# Blender 4.5.10 LTS
# www.blender.org
mtllib bush_sprig.mtl
o bush_sprig
v 0.000360 0.000203 0.012577
v 0.005318 0.006264 0.016141
v -0.004387 0.006264 0.016418
v 0.000227 0.150148 0.007954
v -0.004508 0.144214 0.012165
v 0.005196 0.144214 0.011888
v -0.011852 0.000063 0.004229
v -0.013803 0.006155 0.009980
v -0.017066 0.006006 0.000838
v -0.009849 0.150032 0.001065
v -0.015224 0.143979 -0.002072
v -0.011961 0.144128 0.007070
v -0.007684 -0.000165 -0.009963
v -0.013853 0.005831 -0.010106
v -0.006165 0.005738 -0.016034
v -0.006410 0.149845 -0.010646
v -0.004992 0.143748 -0.016662
v -0.012681 0.143840 -0.010734
v 0.007102 -0.000165 -0.010386
v 0.005238 0.005738 -0.016360
v 0.013252 0.005831 -0.010882
v 0.005791 0.149845 -0.010994
v 0.012046 0.143840 -0.011441
v 0.004032 0.143748 -0.016920
v 0.012074 0.000063 0.003544
v 0.017086 0.006006 -0.000139
v 0.014351 0.006155 0.009175
v 0.009894 0.150032 0.000501
v 0.012346 0.144128 0.006375
v 0.015080 0.143979 -0.002939
v -0.000570 0.138361 0.008134
v 0.004104 0.144495 0.011947
v -0.005593 0.144495 0.011473
v -0.000196 0.288181 0.000471
v -0.005249 0.282330 0.004423
v 0.004448 0.282330 0.004897
v -0.010084 0.138099 0.000491
v -0.012468 0.144306 0.005950
v -0.015015 0.143969 -0.003413
v -0.007694 0.287974 -0.005553
v -0.012816 0.281855 -0.008973
v -0.010270 0.282192 0.000389
v -0.005750 0.137675 -0.010913
v -0.011883 0.143663 -0.011654
v -0.003760 0.143455 -0.016967
v -0.004278 0.287640 -0.014540
v -0.002406 0.281423 -0.020304
v -0.010529 0.281632 -0.014991
v 0.006442 0.137675 -0.010317
v 0.005051 0.143455 -0.016536
v 0.012618 0.143663 -0.010457
v 0.005331 0.287641 -0.014071
v 0.011595 0.281632 -0.013911
v 0.004029 0.281423 -0.019990
v 0.009643 0.138099 0.001454
v 0.014931 0.143969 -0.001950
v 0.011485 0.144306 0.007120
v 0.007854 0.287974 -0.004793
v 0.009838 0.282192 0.001372
v 0.013285 0.281855 -0.007698
v 0.001971 0.107386 0.003904
v 0.004805 0.113528 -0.001258
v -0.003865 0.113528 0.003120
v -0.025986 0.140038 -0.051454
v -0.027033 0.140587 -0.042756
v -0.018364 0.140587 -0.047134
v -0.006678 0.102282 0.004886
v -0.009395 0.110265 0.003748
v -0.014195 0.102317 0.000900
v -0.031108 0.137015 -0.050872
v -0.034441 0.131100 -0.045307
v -0.029641 0.139049 -0.042460
v -0.006098 0.094025 -0.000884
v -0.013825 0.097037 -0.002789
v -0.008122 0.092125 -0.008927
v -0.030765 0.132124 -0.054290
v -0.028564 0.123699 -0.053185
v -0.034266 0.128611 -0.047047
v 0.002909 0.094025 -0.005432
v -0.002363 0.092125 -0.011835
v 0.005962 0.097037 -0.012781
v -0.025431 0.132124 -0.056984
v -0.017524 0.128611 -0.055502
v -0.025849 0.123699 -0.054556
v 0.007896 0.102282 -0.002474
v 0.009150 0.102317 -0.010890
v 0.008593 0.110265 -0.005336
v -0.022477 0.137015 -0.055231
v -0.016578 0.139049 -0.049057
v -0.016020 0.131100 -0.054610
v -0.024039 0.138018 -0.047174
v -0.021299 0.143298 -0.052103
v -0.029454 0.143298 -0.048750
v -0.048652 0.164922 -0.107030
v -0.050239 0.166018 -0.099296
v -0.042083 0.166018 -0.102650
v -0.029762 0.134419 -0.046672
v -0.032388 0.141453 -0.048492
v -0.036278 0.133880 -0.050787
v -0.050901 0.163508 -0.106832
v -0.054129 0.158444 -0.101591
v -0.050239 0.166018 -0.099296
v -0.028878 0.128597 -0.050029
v -0.035825 0.130895 -0.052508
v -0.030073 0.126215 -0.057280
v -0.050553 0.161220 -0.108152
v -0.048378 0.153763 -0.106363
v -0.054129 0.158444 -0.101591
v -0.022608 0.128597 -0.052607
v -0.026860 0.126215 -0.058602
v -0.019415 0.130895 -0.059256
v -0.048089 0.161220 -0.109165
v -0.040933 0.158444 -0.107018
v -0.048378 0.153763 -0.106363
v -0.019618 0.134419 -0.050843
v -0.017882 0.133880 -0.058351
v -0.019032 0.141453 -0.053984
v -0.046914 0.163508 -0.108471
v -0.042083 0.166018 -0.102650
v -0.040933 0.158444 -0.107018
v 0.005064 0.112452 -0.068212
v 0.005168 0.112495 -0.068494
v 0.005518 0.112379 -0.068065
v 0.007069 0.120149 -0.067973
v 0.006989 0.120199 -0.067684
v 0.007419 0.120033 -0.067543
v -0.010108 0.113016 -0.021203
v -0.009655 0.112943 -0.021056
v -0.010189 0.113066 -0.020915
v -0.008184 0.120763 -0.020675
v -0.008287 0.120720 -0.020393
v -0.007753 0.120597 -0.020534
v -0.067713 0.132149 -0.091938
v -0.068143 0.132315 -0.092078
v -0.067609 0.132192 -0.092220
v -0.065788 0.139896 -0.091409
v -0.065708 0.139846 -0.091698
v -0.066242 0.139969 -0.091557
v -0.082885 0.132713 -0.044929
v -0.082966 0.132763 -0.044640
v -0.083315 0.132879 -0.045070
v -0.080961 0.140460 -0.044400
v -0.081414 0.140533 -0.044548
v -0.081064 0.140417 -0.044118
v -0.033080 0.137092 -0.100525
v -0.033174 0.137151 -0.100808
v -0.032652 0.136958 -0.100703
v -0.030313 0.144479 -0.101575
v -0.030185 0.144509 -0.101301
v -0.029791 0.144286 -0.101469
v -0.014800 0.134749 -0.054692
v -0.014372 0.134615 -0.054870
v -0.014671 0.134780 -0.054418
v -0.011904 0.142166 -0.055468
v -0.011810 0.142108 -0.055185
v -0.011510 0.141943 -0.055636
v -0.100706 0.166475 -0.072051
v -0.101099 0.166698 -0.071883
v -0.100799 0.166534 -0.072334
v -0.097810 0.173892 -0.072827
v -0.097938 0.173862 -0.073100
v -0.098238 0.174026 -0.072649
v -0.082425 0.164132 -0.026218
v -0.082296 0.164163 -0.025944
v -0.082818 0.164355 -0.026049
v -0.079529 0.171549 -0.026994
v -0.079957 0.171683 -0.026816
v -0.079435 0.171491 -0.026711
v -0.072846 0.153737 -0.116463
v -0.073106 0.153777 -0.116615
v -0.072669 0.153501 -0.116845
v -0.071163 0.160259 -0.120700
v -0.070879 0.160296 -0.120598
v -0.070725 0.159982 -0.120930
v -0.028098 0.153511 -0.095536
v -0.027921 0.153276 -0.095918
v -0.027815 0.153549 -0.095434
v -0.026131 0.160071 -0.099671
v -0.025871 0.160030 -0.099519
v -0.025978 0.159757 -0.100003
v -0.100115 0.198978 -0.057667
v -0.100269 0.199292 -0.057334
v -0.100375 0.199018 -0.057819
v -0.098148 0.205537 -0.061802
v -0.098431 0.205499 -0.061904
v -0.098325 0.205773 -0.061420
v -0.055367 0.198752 -0.036740
v -0.055083 0.198790 -0.036637
v -0.055521 0.199066 -0.036407
v -0.053400 0.205312 -0.040875
v -0.053577 0.205547 -0.040493
v -0.053140 0.205271 -0.040723
v 0.001911 0.177237 -0.004201
v -0.003795 0.183519 -0.003384
v 0.005045 0.183519 0.000637
v -0.026796 0.217301 0.058910
v -0.019359 0.217577 0.054287
v -0.028199 0.217577 0.050266
v 0.008021 0.172236 0.002082
v 0.008979 0.180299 0.004682
v 0.009654 0.172512 0.010445
v -0.023178 0.214339 0.062631
v -0.016868 0.208303 0.061918
v -0.017543 0.216090 0.056155
v 0.003047 0.164145 0.005488
v 0.006451 0.167302 0.012638
v -0.001971 0.162489 0.012178
v -0.026124 0.209547 0.064648
v -0.026769 0.201085 0.062471
v -0.018346 0.205898 0.062930
v -0.006138 0.164145 0.001310
v -0.007885 0.162489 0.009488
v -0.013765 0.167302 0.003442
v -0.031564 0.209547 0.062174
v -0.035379 0.205898 0.055182
v -0.029498 0.201085 0.061229
v -0.006840 0.172236 -0.004678
v -0.014217 0.172512 -0.000414
v -0.009429 0.180299 -0.003692
v -0.031979 0.214339 0.058628
v -0.030800 0.216090 0.050124
v -0.035588 0.208303 0.053402
v -0.024537 0.214699 0.054053
v -0.029911 0.220127 0.055126
v -0.021976 0.220127 0.058897
v -0.055635 0.248821 0.119482
v -0.048856 0.249621 0.115453
v -0.056791 0.249621 0.111682
v -0.020362 0.211157 0.058099
v -0.019795 0.218276 0.061011
v -0.019012 0.210881 0.065687
v -0.053983 0.247420 0.121082
v -0.048073 0.242225 0.120129
v -0.048856 0.249621 0.115453
v -0.023555 0.205426 0.059916
v -0.020680 0.207886 0.066636
v -0.028130 0.203315 0.065755
v -0.055246 0.245153 0.121801
v -0.055524 0.237655 0.119248
v -0.048073 0.242225 0.120129
v -0.029704 0.205426 0.056994
v -0.031343 0.203316 0.064229
v -0.036730 0.207886 0.059008
v -0.057679 0.245153 0.120645
v -0.060912 0.242225 0.114027
v -0.055524 0.237655 0.119248
v -0.030311 0.211157 0.053370
v -0.037048 0.210880 0.057115
v -0.032927 0.218276 0.054769
v -0.057919 0.247420 0.119212
v -0.056791 0.249621 0.111682
v -0.060912 0.242225 0.114027
v -0.044218 0.186918 0.053813
v -0.044503 0.186949 0.053914
v -0.044393 0.186823 0.053374
v -0.045719 0.194498 0.051911
v -0.045449 0.194558 0.051786
v -0.045609 0.194372 0.051371
v 0.001458 0.189327 0.035151
v 0.001283 0.189233 0.034711
v 0.001728 0.189388 0.035026
v 0.000227 0.196968 0.033124
v 0.000511 0.196937 0.033023
v 0.000067 0.196782 0.032709
v -0.016678 0.210033 0.124202
v -0.016518 0.210219 0.124617
v -0.016963 0.210064 0.124303
v -0.017909 0.217673 0.122175
v -0.018179 0.217613 0.122300
v -0.017735 0.217768 0.122614
v 0.028998 0.212443 0.105540
v 0.029268 0.212503 0.105414
v 0.029158 0.212629 0.105955
v 0.027766 0.220083 0.103513
v 0.027941 0.220177 0.103952
v 0.028051 0.220052 0.103411
v -0.059796 0.210398 0.095679
v -0.059951 0.210461 0.095933
v -0.060210 0.210265 0.095469
v -0.062321 0.217789 0.094159
v -0.062195 0.217815 0.093883
v -0.062580 0.217593 0.093695
v -0.036709 0.207318 0.052115
v -0.037123 0.207185 0.051905
v -0.036583 0.207344 0.051839
v -0.039108 0.214736 0.050319
v -0.038954 0.214672 0.050065
v -0.039493 0.214514 0.050131
v 0.005938 0.239593 0.128451
v 0.006323 0.239815 0.128639
v 0.005784 0.239656 0.128704
v 0.003539 0.247010 0.126655
v 0.003413 0.246985 0.126930
v 0.003953 0.247143 0.126865
v 0.029025 0.236513 0.084886
v 0.029151 0.236539 0.084611
v 0.029410 0.236735 0.085074
v 0.026626 0.243931 0.083090
v 0.027039 0.244064 0.083300
v 0.026780 0.243868 0.082836
v -0.064049 0.237675 0.136992
v -0.063981 0.237711 0.137286
v -0.064453 0.237444 0.137120
v -0.068188 0.244241 0.138745
v -0.068306 0.244285 0.138469
v -0.068659 0.243975 0.138579
v -0.079339 0.238321 0.090022
v -0.079743 0.238090 0.090151
v -0.079458 0.238364 0.089746
v -0.083597 0.244931 0.091499
v -0.083664 0.244895 0.091205
v -0.083950 0.244621 0.091610
v -0.001763 0.282185 0.117327
v -0.001411 0.282495 0.117217
v -0.001696 0.282221 0.117622
v -0.006021 0.288795 0.118804
v -0.005902 0.288751 0.119081
v -0.005617 0.289026 0.118676
v -0.017054 0.282831 0.070358
v -0.017172 0.282875 0.070082
v -0.016701 0.283141 0.070247
v -0.021311 0.289441 0.071835
v -0.020908 0.289672 0.071707
v -0.021379 0.289405 0.071541
v -0.004713 0.247145 0.000644
v -0.001055 0.253411 0.005046
v -0.002370 0.253411 -0.004578
v 0.046693 0.277482 -0.006380
v 0.038766 0.277688 -0.010199
v 0.040081 0.277688 -0.000574
v -0.002562 0.242208 -0.007889
v -0.001008 0.250284 -0.009983
v 0.003659 0.242594 -0.013650
v 0.047967 0.274558 -0.011434
v 0.044093 0.268482 -0.016486
v 0.039427 0.276172 -0.012819
v 0.003130 0.234220 -0.005520
v 0.007263 0.237535 -0.012149
v 0.011462 0.232782 -0.004791
v 0.051338 0.269827 -0.010030
v 0.050040 0.261276 -0.008401
v 0.045841 0.266029 -0.015759
v 0.004496 0.234220 0.004478
v 0.012328 0.232782 0.001541
v 0.010256 0.237535 0.009756
v 0.052147 0.269827 -0.004109
v 0.048388 0.266029 0.002884
v 0.050459 0.261276 -0.005331
v -0.000351 0.242208 0.008287
v 0.007186 0.242594 0.012168
v 0.001707 0.250284 0.009887
v 0.049276 0.274558 -0.001853
v 0.041420 0.276172 0.001773
v 0.046899 0.268482 0.004054
v 0.042997 0.275726 -0.005889
v 0.047006 0.281049 -0.001945
v 0.045855 0.281049 -0.010733
v 0.097826 0.299274 -0.013069
v 0.090689 0.300305 -0.016603
v 0.091840 0.300305 -0.007816
v 0.044036 0.272177 -0.011525
v 0.046374 0.279277 -0.013546
v 0.049735 0.271728 -0.016748
v 0.098231 0.297892 -0.015264
v 0.094051 0.292755 -0.019806
v 0.090689 0.300305 -0.016603
v 0.047133 0.266436 -0.009830
v 0.051281 0.268862 -0.015902
v 0.054509 0.264196 -0.009093
v 0.099437 0.295656 -0.014603
v 0.097279 0.288090 -0.012997
v 0.094051 0.292755 -0.019806
v 0.048008 0.266436 -0.003147
v 0.054946 0.264196 -0.005757
v 0.053580 0.268862 0.001653
v 0.099778 0.295656 -0.012000
v 0.095913 0.292755 -0.005587
v 0.097279 0.288090 -0.012997
v 0.045452 0.272177 -0.000711
v 0.052304 0.271728 0.002869
v 0.048231 0.279277 0.000640
v 0.098782 0.297892 -0.011052
v 0.091840 0.300305 -0.007816
v 0.095913 0.292755 -0.005587
v 0.061272 0.253371 0.026348
v 0.061512 0.253420 0.026528
v 0.061000 0.253305 0.026740
v 0.060390 0.261103 0.028008
v 0.060137 0.261147 0.027845
v 0.059878 0.260987 0.028220
v 0.020735 0.252890 -0.001881
v 0.020462 0.252824 -0.001488
v 0.020482 0.252934 -0.002043
v 0.019599 0.260666 -0.000383
v 0.019360 0.260617 -0.000563
v 0.019341 0.260507 -0.000008
v 0.105030 0.271921 -0.036807
v 0.105288 0.272081 -0.037181
v 0.105269 0.271971 -0.036626
v 0.103894 0.279697 -0.035309
v 0.104147 0.279654 -0.035147
v 0.104167 0.279763 -0.035702
v 0.064492 0.271441 -0.065035
v 0.064239 0.271485 -0.065197
v 0.064751 0.271600 -0.065410
v 0.063357 0.279217 -0.063537
v 0.063629 0.279283 -0.063930
v 0.063117 0.279168 -0.063718
v 0.090540 0.265933 0.005323
v 0.090840 0.265981 0.005307
v 0.090602 0.265743 0.005762
v 0.091173 0.272904 0.009108
v 0.090878 0.272939 0.009170
v 0.090935 0.272665 0.009563
v 0.041562 0.264808 0.011668
v 0.041624 0.264619 0.012108
v 0.041267 0.264843 0.011730
v 0.041900 0.271814 0.015515
v 0.041601 0.271766 0.015531
v 0.041957 0.271541 0.015909
v 0.080783 0.304044 -0.063231
v 0.080726 0.304317 -0.063625
v 0.081083 0.304093 -0.063247
v 0.081121 0.311050 -0.059384
v 0.081416 0.311015 -0.059446
v 0.081060 0.311239 -0.059824
v 0.031806 0.302919 -0.056886
v 0.031510 0.302955 -0.056824
v 0.031748 0.303193 -0.057279
v 0.032143 0.309926 -0.053039
v 0.032082 0.310115 -0.053478
v 0.031844 0.309877 -0.053023
v 0.117914 0.278170 -0.027327
v 0.118136 0.278205 -0.027532
v 0.118232 0.277967 -0.027027
v 0.121201 0.285003 -0.024913
v 0.121017 0.285051 -0.024676
v 0.121298 0.284765 -0.024408
v 0.084429 0.279283 0.008976
v 0.084748 0.279079 0.009276
v 0.084245 0.279331 0.009212
v 0.087532 0.286164 0.011627
v 0.087310 0.286129 0.011832
v 0.087813 0.285878 0.011895
v 0.068545 0.318452 -0.074097
v 0.068264 0.318738 -0.074365
v 0.068767 0.318487 -0.074302
v 0.071648 0.325333 -0.071446
v 0.071833 0.325285 -0.071682
v 0.071330 0.325536 -0.071746
v 0.035061 0.319565 -0.037794
v 0.034876 0.319613 -0.037558
v 0.034780 0.319851 -0.038062
v 0.038164 0.326445 -0.035143
v 0.037845 0.326649 -0.035443
v 0.037942 0.326411 -0.034938
v -0.009370 0.261724 -0.026638
v -0.009614 0.261768 -0.026793
v -0.009177 0.261547 -0.027007
v -0.007785 0.268668 -0.030185
v -0.007519 0.268709 -0.030071
v -0.007348 0.268447 -0.030399
v 0.032581 0.261472 -0.004523
v 0.032774 0.261295 -0.004892
v 0.032847 0.261513 -0.004409
v 0.034433 0.268457 -0.007956
v 0.034676 0.268413 -0.007801
v 0.034604 0.268196 -0.008284
v -0.039370 0.297852 0.030682
v -0.039541 0.298113 0.031010
v -0.039614 0.297895 0.030527
v -0.037518 0.304837 0.027249
v -0.037784 0.304796 0.027135
v -0.037712 0.305014 0.027618
v 0.002581 0.297600 0.052797
v 0.002847 0.297641 0.052911
v 0.002410 0.297862 0.053125
v 0.004433 0.304585 0.049364
v 0.004240 0.304762 0.049733
v 0.004677 0.304541 0.049519
v 0.011419 0.262275 0.005957
v 0.011608 0.262316 0.006151
v 0.011187 0.262064 0.006241
v 0.008571 0.268678 0.009725
v 0.008344 0.268714 0.009574
v 0.008149 0.268426 0.009815
v -0.022837 0.261838 -0.022381
v -0.023069 0.261628 -0.022097
v -0.023063 0.261874 -0.022531
v -0.025911 0.268278 -0.018764
v -0.026101 0.268236 -0.018958
v -0.026106 0.267990 -0.018523
v 0.046594 0.303307 -0.037195
v 0.046789 0.303595 -0.037435
v 0.046784 0.303349 -0.037001
v 0.043520 0.309747 -0.033577
v 0.043746 0.309711 -0.033427
v 0.043752 0.309957 -0.033861
v 0.012339 0.302871 -0.065533
v 0.012112 0.302907 -0.065683
v 0.012534 0.303159 -0.065773
v 0.009264 0.309311 -0.061916
v 0.009496 0.309521 -0.062200
v 0.009075 0.309269 -0.062110
vn 0.0244 -0.5215 0.8529
vn 0.0236 0.5660 0.8241
vn -0.7953 -0.5309 0.2925
vn -0.7852 0.5567 0.2711
vn -0.5156 -0.5462 -0.6602
vn -0.5092 0.5416 -0.6689
vn 0.4770 -0.5462 -0.6886
vn 0.4702 0.5416 -0.6969
vn 0.8107 -0.5309 0.2466
vn 0.7995 0.5567 0.2258
vn -0.4011 -0.6935 0.5984
vn -0.3971 0.7204 0.5687
vn 0.0286 0.0308 0.9991
vn -0.9417 0.0197 0.3358
vn -0.6822 -0.7064 -0.1890
vn -0.6748 0.7077 -0.2095
vn -0.6106 0.0016 -0.7919
vn -0.0200 -0.7143 -0.6995
vn -0.0204 0.6998 -0.7140
vn 0.5644 0.0016 -0.8255
vn 0.6702 -0.7064 -0.2277
vn 0.6617 0.7077 -0.2477
vn 0.9594 0.0197 0.2814
vn 0.4347 -0.6935 0.5745
vn 0.4289 0.7204 0.5450
vn 0.0005 -0.9999 0.0162
vn -0.5644 0.0249 0.8251
vn 0.6106 0.0249 0.7915
vn -0.0005 0.9999 -0.0162
vn -0.9594 0.0069 -0.2818
vn -0.0286 -0.0043 -0.9996
vn 0.9418 0.0069 -0.3362
vn -0.0421 -0.5041 0.8626
vn -0.0397 0.5826 0.8118
vn -0.8161 -0.5254 0.2409
vn -0.8033 0.5616 0.1983
vn -0.4635 -0.5598 -0.6868
vn -0.4555 0.5276 -0.7171
vn 0.5283 -0.5598 -0.6384
vn 0.5232 0.5276 -0.6693
vn 0.7887 -0.5254 0.3192
vn 0.7802 0.5616 0.2756
vn -0.4469 -0.6814 0.5796
vn -0.4391 0.7316 0.5215
vn -0.0487 0.0511 0.9975
vn -0.9649 0.0259 0.2615
vn -0.6662 -0.7105 -0.2268
vn -0.6558 0.7029 -0.2753
vn -0.5476 -0.0149 -0.8366
vn 0.0334 -0.7284 -0.6843
vn 0.0355 0.6852 -0.7275
vn 0.6265 -0.0149 -0.7793
vn 0.6851 -0.7105 -0.1608
vn 0.6796 0.7029 -0.2101
vn 0.9348 0.0259 0.3543
vn 0.3883 -0.6814 0.6204
vn 0.3862 0.7316 0.5618
vn -0.0018 -0.9993 0.0364
vn -0.6265 0.0414 0.7783
vn 0.5476 0.0414 0.8357
vn 0.0018 0.9993 -0.0364
vn -0.9348 0.0006 -0.3553
vn 0.0488 -0.0246 -0.9985
vn 0.9649 0.0006 -0.2625
vn 0.3963 0.4767 0.7847
vn -0.0339 0.9972 -0.0670
vn -0.4683 -0.0335 0.8829
vn -0.8599 0.5097 0.0268
vn -0.4104 -0.8590 0.3061
vn -0.8046 -0.2789 -0.5243
vn 0.4900 -0.8590 -0.1486
vn 0.0557 -0.2789 -0.9587
vn 0.9885 -0.0335 0.1472
vn 0.5320 0.5097 -0.6761
vn 0.0243 0.1492 0.9885
vn -0.5145 0.8497 -0.1156
vn 0.2100 0.8849 0.4158
vn -0.7964 0.2910 0.5302
vn -0.3948 -0.5447 0.7399
vn -0.9170 0.1833 -0.3544
vn -0.7290 -0.6698 -0.1412
vn 0.1030 -0.9735 0.2040
vn -0.4389 -0.2286 -0.8690
vn 0.3191 -0.6698 -0.6705
vn 0.8298 -0.5447 0.1214
vn 0.2591 0.1833 -0.9483
vn 0.8994 0.2910 -0.3262
vn 0.7811 0.1492 0.6063
vn 0.2123 0.8497 -0.4827
vn 0.3879 -0.5095 0.7681
vn -0.3543 0.7162 0.6013
vn 0.6942 0.7162 0.0718
vn -0.3879 0.5095 -0.7681
vn -0.9348 -0.2451 0.2569
vn -0.2452 -0.8392 -0.4854
vn 0.7617 -0.2451 -0.5998
vn 0.3165 0.5543 0.7698
vn -0.0628 0.9863 -0.1527
vn -0.5350 0.0189 0.8446
vn -0.8764 0.4747 -0.0812
vn -0.4034 -0.8475 0.3450
vn -0.7507 -0.3530 -0.5585
vn 0.5294 -0.8475 -0.0386
vn 0.1406 -0.3530 -0.9250
vn 0.9744 0.0189 0.2239
vn 0.5658 0.4747 -0.6742
vn -0.0589 0.2294 0.9715
vn -0.5327 0.8158 -0.2250
vn 0.1460 0.9234 0.3550
vn -0.8452 0.3002 0.4421
vn -0.4329 -0.4988 0.7509
vn -0.8919 0.1165 -0.4369
vn -0.6921 -0.7082 -0.1394
vn 0.1201 -0.9488 0.2920
vn -0.3608 -0.3157 -0.8776
vn 0.3938 -0.7082 -0.5859
vn 0.8359 -0.4988 0.2291
vn 0.3266 0.1165 -0.9380
vn 0.9118 0.3002 -0.2803
vn 0.7253 0.2294 0.6491
vn 0.2204 0.8158 -0.5346
vn 0.3434 -0.4295 0.8352
vn -0.4250 0.7474 0.5107
vn 0.6613 0.7474 0.0640
vn -0.3434 0.4295 -0.8352
vn -0.9432 -0.2615 0.2050
vn -0.1771 -0.8850 -0.4307
vn 0.8146 -0.2615 -0.5178
vn -0.0976 -0.9779 -0.1850
vn 0.3752 0.9253 -0.0553
vn -0.1942 -0.9743 0.1143
vn 0.2786 0.9289 0.2440
vn -0.2786 -0.9289 -0.2440
vn 0.1942 0.9743 -0.1142
vn -0.3752 -0.9253 0.0552
vn 0.0977 0.9779 0.1850
vn -0.1478 -0.9884 -0.0358
vn 0.7484 -0.1418 -0.6479
vn 0.3310 0.9388 0.0956
vn 0.2276 -0.1224 0.9660
vn -0.2861 -0.9544 0.0851
vn 0.1890 0.9580 0.2155
vn -0.7484 0.1418 0.6479
vn -0.3311 -0.9388 -0.0956
vn 0.1477 0.9884 0.0358
vn -0.2276 0.1224 -0.9660
vn -0.1890 -0.9580 -0.2155
vn 0.2861 0.9544 -0.0851
vn -0.2406 -0.9684 -0.0660
vn 0.9208 -0.2492 0.3002
vn 0.3071 -0.0114 -0.9516
vn 0.2406 0.9684 0.0660
vn -0.3071 0.0114 0.9516
vn -0.9208 0.2492 -0.3002
vn -0.3299 -0.9401 -0.0859
vn 0.3816 0.8820 -0.2766
vn -0.2135 -0.9550 0.2058
vn 0.4980 0.8670 0.0152
vn -0.4981 -0.8670 -0.0152
vn 0.2134 0.9550 -0.2058
vn -0.3816 -0.8820 0.2765
vn 0.3298 0.9401 0.0860
vn -0.2750 -0.9595 0.0607
vn 0.1396 -0.1568 -0.9777
vn 0.4454 0.8855 -0.1324
vn 0.7673 -0.2372 0.5958
vn -0.2990 -0.9230 0.2423
vn 0.4159 0.9080 0.0508
vn -0.1396 0.1568 0.9777
vn -0.4453 -0.8855 0.1324
vn 0.2751 0.9595 -0.0607
vn -0.7673 0.2372 -0.5958
vn -0.4159 -0.9080 -0.0508
vn 0.2990 0.9230 -0.2424
vn -0.3620 -0.9271 0.0970
vn 0.8556 -0.3717 -0.3603
vn -0.3701 0.0474 -0.9278
vn 0.3620 0.9271 -0.0970
vn 0.3701 -0.0474 0.9278
vn -0.8556 0.3717 0.3603
vn -0.3502 -0.8613 0.3682
vn 0.1331 0.7502 -0.6476
vn -0.0652 -0.8627 0.5014
vn 0.4179 0.7488 -0.5145
vn -0.4179 -0.7488 0.5144
vn 0.0651 0.8627 -0.5014
vn -0.1331 -0.7502 0.6476
vn 0.3501 0.8613 -0.3682
vn -0.2103 -0.8729 0.4403
vn -0.5853 -0.2995 -0.7535
vn 0.2790 0.7590 -0.5883
vn 0.9510 -0.3072 -0.0350
vn -0.0997 -0.8104 0.5773
vn 0.3859 0.8089 -0.4435
vn 0.5853 0.2995 0.7535
vn -0.2790 -0.7590 0.5883
vn 0.2103 0.8729 -0.4403
vn -0.9510 0.3072 0.0350
vn -0.3859 -0.8090 0.4435
vn 0.0997 0.8104 -0.5774
vn -0.2459 -0.8200 0.5169
vn 0.3450 -0.5724 -0.7439
vn -0.9058 0.0046 -0.4236
vn 0.2459 0.8200 -0.5169
vn 0.9058 -0.0046 0.4236
vn -0.3450 0.5724 0.7439
vn 0.3712 0.4432 -0.8160
vn -0.0157 0.9993 0.0344
vn 0.9803 -0.0553 -0.1896
vn 0.5697 0.5203 0.6363
vn 0.4844 -0.8619 0.1499
vn 0.0931 -0.2548 0.9625
vn -0.4313 -0.8619 -0.2666
vn -0.7867 -0.2548 0.5623
vn -0.5013 -0.0553 -0.8635
vn -0.8539 0.5203 -0.0113
vn 0.7570 0.1174 -0.6428
vn 0.2455 0.8606 0.4462
vn 0.2072 0.8658 -0.4554
vn 0.9183 0.2838 0.2759
vn 0.8158 -0.5609 -0.1409
vn 0.3023 0.2059 0.9307
vn 0.3393 -0.6580 0.6723
vn 0.0823 -0.9801 -0.1809
vn -0.4058 -0.1987 0.8921
vn -0.7297 -0.6580 0.1860
vn -0.4299 -0.5609 -0.7075
vn -0.9002 0.2059 0.3838
vn -0.8114 0.2838 -0.5110
vn -0.0129 0.1174 -0.9930
vn -0.4977 0.8606 0.1082
vn 0.3491 -0.5377 -0.7675
vn 0.7023 0.7007 -0.1253
vn -0.3671 0.7007 -0.6118
vn -0.3491 0.5377 0.7675
vn 0.7841 -0.2414 0.5718
vn -0.2348 -0.8236 0.5163
vn -0.9463 -0.2414 -0.2152
vn 0.3675 0.5167 -0.7733
vn -0.0521 0.9926 0.1095
vn 0.9845 -0.0067 -0.1755
vn 0.5407 0.4897 0.6840
vn 0.5126 -0.8535 0.0931
vn 0.0874 -0.3240 0.9420
vn -0.3959 -0.8535 -0.3387
vn -0.7856 -0.3240 0.5271
vn -0.4856 -0.0067 -0.8742
vn -0.8718 0.4897 0.0126
vn 0.7621 0.1921 -0.6183
vn 0.2075 0.8321 0.5144
vn 0.1829 0.9047 -0.3849
vn 0.9032 0.2936 0.3131
vn 0.8375 -0.5199 -0.1681
vn 0.2803 0.1448 0.9489
vn 0.3523 -0.6951 0.6266
vn 0.1202 -0.9600 -0.2529
vn -0.4121 -0.2800 0.8670
vn -0.7084 -0.6951 0.1225
vn -0.3985 -0.5199 -0.7555
vn -0.9128 0.1448 0.3819
vn -0.8131 0.2936 -0.5026
vn -0.0018 0.1921 -0.9814
vn -0.5299 0.8321 0.1639
vn 0.3800 -0.4652 -0.7995
vn 0.6786 0.7321 -0.0593
vn -0.3825 0.7321 -0.5636
vn -0.3800 0.4653 0.7995
vn 0.7833 -0.2569 0.5660
vn -0.2130 -0.8682 0.4482
vn -0.9336 -0.2569 -0.2500
vn -0.0283 -0.9749 0.2209
vn -0.3309 0.9021 -0.2771
vn 0.2623 -0.9596 0.1021
vn -0.0401 0.9174 -0.3959
vn 0.0401 -0.9174 0.3960
vn -0.2624 0.9595 -0.1021
vn 0.3309 -0.9021 0.2771
vn 0.0283 0.9749 -0.2209
vn 0.1185 -0.9794 0.1636
vn -0.9687 -0.1964 -0.1516
vn -0.1878 0.9212 -0.3407
vn 0.5994 -0.1136 -0.7923
vn 0.2980 -0.9353 0.1906
vn -0.0059 0.9508 -0.3099
vn 0.9687 0.1964 0.1516
vn 0.1878 -0.9212 0.3408
vn -0.1185 0.9794 -0.1636
vn -0.5994 0.1136 0.7923
vn 0.0058 -0.9508 0.3099
vn -0.2980 0.9353 -0.1905
vn 0.1539 -0.9550 0.2534
vn -0.3484 -0.2924 -0.8905
vn -0.9246 -0.0488 0.3778
vn -0.1539 0.9550 -0.2534
vn 0.9246 0.0488 -0.3778
vn 0.3484 0.2924 0.8905
vn 0.1394 -0.9376 0.3185
vn -0.4499 0.8846 -0.1227
vn 0.2865 -0.9572 0.0412
vn -0.3030 0.8650 -0.3999
vn 0.3030 -0.8650 0.4000
vn -0.2864 0.9572 -0.0412
vn 0.4499 -0.8846 0.1227
vn -0.1394 0.9376 -0.3185
vn 0.2157 -0.9593 0.1821
vn -0.8371 -0.1429 0.5281
vn -0.3812 0.8858 -0.2646
vn -0.0445 -0.2486 -0.9676
vn 0.3699 -0.9254 0.0823
vn -0.2223 0.9057 -0.3610
vn 0.8371 0.1429 -0.5281
vn 0.3812 -0.8858 0.2646
vn -0.2156 0.9593 -0.1821
vn 0.0445 0.2487 0.9676
vn 0.2223 -0.9057 0.3610
vn -0.3700 0.9254 -0.0823
vn 0.2999 -0.9272 0.2245
vn -0.8317 -0.3694 -0.4146
vn -0.4673 0.0623 0.8819
vn -0.2999 0.9272 -0.2245
vn 0.4673 -0.0623 -0.8819
vn 0.8317 0.3694 0.4146
vn 0.4942 -0.8693 -0.0074
vn -0.5518 0.7545 0.3553
vn 0.3968 -0.8652 -0.3064
vn -0.6490 0.7587 0.0564
vn 0.6491 -0.7586 -0.0563
vn -0.3969 0.8652 0.3064
vn 0.5518 -0.7545 -0.3554
vn -0.4942 0.8693 0.0074
vn 0.4512 -0.8782 -0.1589
vn -0.1552 -0.3096 0.9381
vn -0.6079 0.7662 0.2085
vn -0.6801 -0.2874 -0.6744
vn 0.4766 -0.8138 -0.3325
vn -0.5744 0.8180 0.0321
vn 0.1552 0.3096 -0.9381
vn 0.6080 -0.7661 -0.2085
vn -0.4511 0.8782 0.1589
vn 0.6801 0.2874 0.6744
vn 0.5744 -0.8179 -0.0321
vn -0.4766 0.8138 0.3325
vn 0.5322 -0.8263 -0.1846
vn -0.7880 -0.5631 0.2488
vn 0.3095 -0.0131 0.9508
vn -0.5322 0.8263 0.1846
vn -0.3095 0.0131 -0.9508
vn 0.7880 0.5631 -0.2488
vn -0.8921 0.4351 0.1219
vn 0.0278 0.9996 -0.0038
vn -0.6762 -0.0602 -0.7342
vn 0.2324 0.5300 -0.8155
vn -0.1053 -0.8616 -0.4965
vn 0.7739 -0.2300 -0.5901
vn 0.0318 -0.8616 0.5065
vn 0.9038 -0.2300 0.3609
vn -0.4545 -0.0602 0.8887
vn 0.4427 0.5300 0.7233
vn -0.9483 0.1048 -0.2997
vn 0.2352 0.8658 -0.4416
vn -0.5001 0.8633 0.0683
vn -0.2499 0.2891 -0.9241
vn -0.5397 -0.5686 -0.6208
vn 0.6250 0.2234 -0.7480
vn 0.4120 -0.6400 -0.6485
vn -0.1720 -0.9848 0.0235
vn 0.9758 -0.1736 -0.1333
vn 0.5709 -0.6400 0.5142
vn -0.3533 -0.5686 0.7428
vn 0.8027 0.2234 0.5529
vn 0.0072 0.2891 0.9573
vn -0.8331 0.1048 0.5431
vn 0.3451 0.8658 0.3623
vn -0.8247 -0.5542 0.1127
vn -0.4843 0.6988 -0.5264
vn -0.3254 0.6988 0.6370
vn 0.8247 0.5542 -0.1127
vn 0.0798 -0.2308 -0.9697
vn 0.5873 -0.8054 -0.0803
vn 0.3370 -0.2308 0.9128
vn -0.8312 0.5452 0.1088
vn 0.1526 0.9881 -0.0200
vn -0.6751 0.0123 -0.7376
vn 0.3006 0.4827 -0.8226
vn -0.2100 -0.8501 -0.4830
vn 0.7417 -0.3349 -0.5812
vn -0.0785 -0.8501 0.5208
vn 0.8663 -0.3349 0.3706
vn -0.4625 0.0123 0.8865
vn 0.5022 0.4827 0.7174
vn -0.9263 0.2173 -0.3076
vn 0.3437 0.8219 -0.4542
vn -0.3885 0.9200 0.0509
vn -0.2076 0.3022 -0.9304
vn -0.6037 -0.5072 -0.6150
vn 0.6514 0.1308 -0.7474
vn 0.3317 -0.6975 -0.6352
vn -0.2939 -0.9551 0.0385
vn 0.9470 -0.2964 -0.1240
vn 0.4840 -0.6975 0.5284
vn -0.4251 -0.5072 0.7497
vn 0.8219 0.1308 0.5544
vn 0.0390 0.3022 0.9524
vn -0.8159 0.2173 0.5358
vn 0.4490 0.8219 0.3504
vn -0.8881 -0.4447 0.1163
vn -0.3907 0.7448 -0.5410
vn -0.2383 0.7448 0.6233
vn 0.8881 0.4447 -0.1163
vn 0.0546 -0.2555 -0.9653
vn 0.4823 -0.8737 -0.0632
vn 0.3013 -0.2555 0.9187
vn 0.2141 -0.9767 -0.0157
vn -0.0647 0.9336 0.3524
vn -0.0439 -0.9798 -0.1953
vn -0.3227 0.9306 0.1727
vn 0.3229 -0.9306 -0.1726
vn 0.0437 0.9798 0.1952
vn 0.0650 -0.9336 -0.3523
vn -0.2140 0.9767 0.0155
vn 0.0861 -0.9906 -0.1067
vn 0.4024 -0.1161 0.9080
vn -0.1962 0.9439 0.2658
vn -0.9893 -0.1326 -0.0611
vn 0.0105 -0.9614 -0.2751
vn -0.2695 0.9584 0.0946
vn -0.4025 0.1161 -0.9080
vn 0.1963 -0.9438 -0.2658
vn -0.0860 0.9906 0.1068
vn 0.9893 0.1326 0.0611
vn 0.2696 -0.9583 -0.0946
vn -0.0107 0.9614 0.2751
vn 0.1419 -0.9720 -0.1872
vn -0.5536 -0.2347 0.7990
vn 0.8206 0.0097 0.5714
vn -0.1419 0.9720 0.1872
vn -0.8206 -0.0097 -0.5714
vn 0.5536 0.2347 -0.7990
vn 0.1265 -0.9044 -0.4075
vn 0.2096 0.8168 0.5375
vn -0.1851 -0.9116 -0.3671
vn -0.1023 0.8096 0.5780
vn 0.1024 -0.8097 -0.5779
vn 0.1854 0.9115 0.3671
vn -0.2097 -0.8167 -0.5375
vn -0.1267 0.9044 0.4075
vn -0.0297 -0.9194 -0.3921
vn 0.9062 -0.2362 0.3508
vn 0.0543 0.8235 0.5648
vn -0.7753 -0.2749 0.5686
vn -0.1981 -0.8684 -0.4545
vn -0.1148 0.8612 0.4951
vn -0.9062 0.2363 -0.3507
vn -0.0543 -0.8235 -0.5648
vn 0.0297 0.9194 0.3922
vn 0.7753 0.2749 -0.5686
vn 0.1151 -0.8612 -0.4951
vn 0.1984 0.8684 0.4545
vn -0.0422 -0.8758 -0.4809
vn 0.1234 -0.4822 0.8673
vn 0.9915 0.0228 -0.1285
vn 0.0422 0.8758 0.4809
vn -0.9915 -0.0228 0.1285
vn -0.1234 0.4822 -0.8673
vn -0.2133 -0.8988 -0.3830
vn 0.5491 0.7915 0.2683
vn -0.4263 -0.8917 -0.1520
vn 0.3360 0.7986 0.4993
vn -0.3360 -0.7986 -0.4993
vn 0.4262 0.8918 0.1519
vn -0.5490 -0.7916 -0.2683
vn 0.2133 0.8988 0.3830
vn -0.3238 -0.9065 -0.2709
vn 0.9058 -0.2892 -0.3096
vn 0.4480 0.8051 0.3886
vn -0.2437 -0.2510 0.9368
vn -0.4901 -0.8457 -0.2112
vn 0.2758 0.8529 0.4434
vn -0.9058 0.2892 0.3096
vn -0.4481 -0.8051 -0.3886
vn 0.3238 0.9065 0.2709
vn 0.2438 0.2510 -0.9368
vn -0.2759 -0.8529 -0.4433
vn 0.4900 0.8458 0.2112
vn -0.3878 -0.8601 -0.3314
vn 0.6246 -0.5096 0.5917
vn 0.6778 -0.0225 -0.7349
vn 0.3878 0.8601 0.3314
vn -0.6778 0.0225 0.7349
vn -0.6246 0.5096 -0.5917
vn -0.3293 -0.9066 0.2638
vn 0.1248 0.8063 -0.5782
vn -0.0401 -0.9084 0.4163
vn 0.4141 0.8046 -0.4256
vn -0.4141 -0.8046 0.4256
vn 0.0401 0.9083 -0.4163
vn -0.1247 -0.8063 0.5782
vn 0.3291 0.9067 -0.2639
vn -0.1873 -0.9199 0.3446
vn -0.5269 -0.2583 -0.8097
vn 0.2732 0.8164 -0.5088
vn 0.9633 -0.2673 -0.0242
vn -0.0828 -0.8621 0.5000
vn 0.3738 0.8603 -0.3466
vn 0.5268 0.2584 0.8098
vn -0.2731 -0.8164 0.5088
vn 0.1873 0.9198 -0.3447
vn -0.9633 0.2673 0.0242
vn -0.3737 -0.8603 0.3466
vn 0.0829 0.8621 -0.5000
vn -0.2315 -0.8731 0.4291
vn 0.4049 -0.4876 -0.7736
vn -0.8846 0.0053 -0.4663
vn 0.2315 0.8731 -0.4291
vn 0.8846 -0.0053 0.4663
vn -0.4049 0.4876 0.7736
vn 0.4531 -0.8521 -0.2618
vn -0.2988 0.7229 0.6230
vn 0.1851 -0.8556 -0.4835
vn -0.5669 0.7195 0.4013
vn 0.5668 -0.7195 -0.4013
vn -0.1848 0.8556 0.4835
vn 0.2989 -0.7229 -0.6230
vn -0.4531 0.8522 0.2618
vn 0.3241 -0.8671 -0.3784
vn 0.3731 -0.3126 0.8736
vn -0.4395 0.7323 0.5201
vn -0.9231 -0.3291 -0.1988
vn 0.2435 -0.7942 -0.5567
vn -0.5132 0.7908 0.3336
vn -0.3731 0.3126 -0.8736
vn 0.4395 -0.7324 -0.5200
vn -0.3240 0.8671 0.3784
vn 0.9232 0.3291 0.1987
vn 0.5132 -0.7908 -0.3336
vn -0.2435 0.7942 0.5567
vn 0.3843 -0.8049 -0.4521
vn -0.5086 -0.5933 0.6239
vn 0.7705 0.0098 0.6374
vn -0.3843 0.8049 0.4521
vn -0.7705 -0.0098 -0.6374
vn 0.5086 0.5933 -0.6239
vn 0.2124 0.8497 -0.4827
vn -0.0000 1.0000 -0.0000
vn 0.8944 0.4472 -0.0000
vn -0.0000 -0.0000 1.0000
vn 0.6080 0.7939 -0.0000
vn -0.1477 -0.9884 -0.0358
vn 0.7485 -0.1418 -0.6479
vn -0.2861 -0.9544 0.0852
vn 0.1890 0.9580 0.2156
vn -0.3310 -0.9388 -0.0956
vn 0.1478 0.9884 0.0358
vn -0.1890 -0.9580 -0.2156
vn 0.2861 0.9544 -0.0852
vn -0.2751 -0.9595 0.0607
vn 0.4453 0.8856 -0.1324
vn 0.2750 0.9595 -0.0607
vn -0.4159 -0.9080 -0.0509
vn -0.0996 -0.8104 0.5773
vn 0.3858 0.8090 -0.4435
vn -0.2790 -0.7590 0.5884
vn -0.3858 -0.8090 0.4435
vn 0.0997 0.8104 -0.5773
vn -0.0000 -0.0000 -1.0000
vn -0.0000 0.1240 -0.9923
vn -0.0000 0.8760 -0.4824
vn 0.2981 -0.9353 0.1905
vn 0.1878 -0.9212 0.3407
vn -0.1185 0.9794 -0.1635
vn -0.5994 0.1136 0.7924
vn 0.0059 -0.9507 0.3099
vn -0.2981 0.9353 -0.1905
vn 0.2156 -0.9593 0.1821
vn 0.3700 -0.9254 0.0823
vn 0.0445 0.2486 0.9676
vn 0.2222 -0.9057 0.3610
vn 0.4511 -0.8782 -0.1589
vn -0.1552 -0.3095 0.9381
vn -0.6080 0.7661 0.2084
vn -0.6802 -0.2874 -0.6744
vn -0.5744 0.8179 0.0320
vn 0.6079 -0.7662 -0.2085
vn -0.4512 0.8782 0.1590
vn 0.6801 0.2873 0.6744
vn 0.5744 -0.8180 -0.0320
vn 0.8028 0.2234 0.5529
vn -0.4250 -0.5072 0.7497
vn -0.0000 -1.0000 -0.0000
vn 0.9550 -0.2966 -0.0000
vn 0.3248 0.9458 -0.0000
vn 0.0861 -0.9905 -0.1069
vn 0.4025 -0.1161 0.9080
vn -0.1964 0.9438 0.2658
vn 0.0105 -0.9613 -0.2752
vn -0.2698 0.9583 0.0946
vn 0.1962 -0.9439 -0.2658
vn -0.0861 0.9906 0.1067
vn 0.2699 -0.9582 -0.0946
vn -0.0104 0.9613 0.2751
vn -0.0297 -0.9194 -0.3922
vn 0.9062 -0.2363 0.3507
vn 0.0543 0.8234 0.5648
vn -0.1986 -0.8683 -0.4545
vn -0.1151 0.8612 0.4951
vn -0.9062 0.2363 -0.3508
vn -0.0543 -0.8234 -0.5648
vn 0.0297 0.9194 0.3921
vn 0.1150 -0.8612 -0.4951
vn 0.1982 0.8684 0.4546
vn -0.3239 -0.9065 -0.2708
vn 0.4481 0.8051 0.3886
vn -0.2438 -0.2510 0.9368
vn -0.4901 -0.8457 -0.2111
vn 0.2760 0.8528 0.4433
vn 0.3238 0.9066 0.2708
vn -0.2760 -0.8528 -0.4433
vn 0.4900 0.8458 0.2111
vn -0.3879 -0.8601 -0.3314
vn 0.3879 0.8601 0.3314
vn -0.1872 -0.9199 0.3447
vn -0.5268 -0.2584 -0.8098
vn 0.2731 0.8164 -0.5088
vn 0.3736 0.8604 -0.3467
vn 0.1872 0.9199 -0.3447
vn -0.3738 -0.8603 0.3466
vn 0.0828 0.8621 -0.5000
vn 0.3241 -0.8670 -0.3784
vn -0.4396 0.7324 0.5200
vn 0.2435 -0.7942 -0.5568
vn 0.4396 -0.7323 -0.5201
vn -0.3241 0.8671 0.3784
vn 0.9231 0.3291 0.1988
vn 0.5131 -0.7908 -0.3337
vt 0.750000 0.401003
vt 0.691366 0.447149
vt 0.808634 0.447149
vt 0.250000 0.390003
vt 0.314887 0.442857
vt 0.185113 0.442857
vt 0.893613 0.296663
vt 0.919381 0.366687
vt 0.955619 0.255158
vt 0.383151 0.293263
vt 0.453469 0.247885
vt 0.413367 0.371307
vt 0.838757 0.127836
vt 0.913317 0.124968
vt 0.818445 0.056039
vt 0.332292 0.136735
vt 0.310864 0.055836
vt 0.415853 0.132115
vt 0.661243 0.127836
vt 0.681555 0.056039
vt 0.586683 0.124968
vt 0.167708 0.136735
vt 0.084147 0.132115
vt 0.189136 0.055836
vt 0.606387 0.296662
vt 0.544381 0.255158
vt 0.580619 0.366687
vt 0.116849 0.293263
vt 0.086633 0.371307
vt 0.046531 0.247885
vt 0.056982 0.980001
vt 0.000000 0.520171
vt 0.051355 0.519999
vt 0.748645 0.519999
vt 0.856982 0.980001
vt 0.743018 0.980001
vt 0.548645 0.519999
vt 0.656982 0.980002
vt 0.543018 0.980001
vt 0.348645 0.519999
vt 0.456982 0.980001
vt 0.343018 0.980001
vt 0.148645 0.519999
vt 0.256982 0.980001
vt 0.143018 0.980002
vt 0.943018 0.980001
vt 0.851355 0.519999
vt 0.948645 0.519999
vt 0.651355 0.519999
vt 0.451355 0.519999
vt 0.251355 0.519999
vt 0.750000 0.390004
vt 0.684143 0.441820
vt 0.815857 0.441820
vt 0.250000 0.375901
vt 0.324038 0.436209
vt 0.175962 0.436209
vt 0.883151 0.293263
vt 0.912080 0.371910
vt 0.952783 0.246642
vt 0.369739 0.288906
vt 0.449974 0.237128
vt 0.404216 0.377955
vt 0.832292 0.136735
vt 0.916029 0.133524
vt 0.809469 0.056105
vt 0.324003 0.148144
vt 0.299553 0.055836
vt 0.419348 0.142872
vt 0.667708 0.136735
vt 0.690531 0.056105
vt 0.583972 0.133524
vt 0.175997 0.148144
vt 0.080652 0.142872
vt 0.200447 0.055836
vt 0.616849 0.293263
vt 0.547218 0.246642
vt 0.587920 0.371910
vt 0.130261 0.288906
vt 0.095784 0.377955
vt 0.050026 0.237128
vt 0.064995 0.980002
vt 0.000000 0.520171
vt 0.057718 0.519999
vt 0.742282 0.519999
vt 0.864995 0.980001
vt 0.735005 0.980002
vt 0.542282 0.519999
vt 0.664995 0.980002
vt 0.535005 0.980001
vt 0.342282 0.519999
vt 0.464995 0.980001
vt 0.335005 0.980002
vt 0.142282 0.519999
vt 0.264995 0.980001
vt 0.135005 0.980002
vt 0.935005 0.980001
vt 0.857718 0.519999
vt 0.942282 0.519999
vt 0.657718 0.519999
vt 0.457718 0.519999
vt 0.257718 0.519999
vt 0.750000 0.378754
vt 0.675725 0.434551
vt 0.824275 0.434551
vt 0.250000 0.347605
vt 0.340502 0.424246
vt 0.159498 0.424246
vt 0.872452 0.289787
vt 0.902566 0.377669
vt 0.948470 0.236390
vt 0.342828 0.280162
vt 0.443685 0.217772
vt 0.387751 0.389918
vt 0.825680 0.145836
vt 0.918565 0.144353
vt 0.798387 0.057038
vt 0.307371 0.171036
vt 0.279202 0.055836
vt 0.425637 0.162228
vt 0.674320 0.145836
vt 0.701613 0.057038
vt 0.581435 0.144353
vt 0.192629 0.171036
vt 0.074363 0.162228
vt 0.220798 0.055836
vt 0.627548 0.289787
vt 0.551530 0.236390
vt 0.597434 0.377669
vt 0.157172 0.280162
vt 0.112249 0.389918
vt 0.056315 0.217772
vt 0.079635 0.957178
vt 0.000000 0.544079
vt 0.065267 0.542822
vt 0.734733 0.542822
vt 0.879635 0.957178
vt 0.720365 0.957178
vt 0.534733 0.542822
vt 0.679635 0.957178
vt 0.520365 0.957178
vt 0.334733 0.542822
vt 0.479635 0.957178
vt 0.320365 0.957178
vt 0.120365 0.957178
vt 0.265267 0.542822
vt 0.279635 0.957178
vt 0.920365 0.957178
vt 0.865267 0.542822
vt 0.934733 0.542822
vt 0.134733 0.542822
vt 0.665267 0.542822
vt 0.465267 0.542822
vt 0.750000 0.360713
vt 0.663902 0.425253
vt 0.836098 0.425253
vt 0.250000 0.310434
vt 0.364127 0.407082
vt 0.135873 0.407082
vt 0.855294 0.284212
vt 0.890070 0.386041
vt 0.943282 0.222272
vt 0.307476 0.268675
vt 0.434661 0.190000
vt 0.364127 0.407082
vt 0.815075 0.160432
vt 0.922666 0.158825
vt 0.783356 0.057610
vt 0.285522 0.201108
vt 0.250000 0.055836
vt 0.434661 0.190000
vt 0.684925 0.160432
vt 0.716644 0.057610
vt 0.577334 0.158825
vt 0.214478 0.201108
vt 0.065339 0.190000
vt 0.250000 0.055836
vt 0.644706 0.284212
vt 0.556718 0.222272
vt 0.609930 0.386041
vt 0.192524 0.268675
vt 0.135873 0.407082
vt 0.065339 0.190000
vt 0.100000 0.961120
vt 0.000000 0.540022
vt 0.075998 0.538880
vt 0.724001 0.538880
vt 0.900000 0.961120
vt 0.700000 0.961120
vt 0.524002 0.538880
vt 0.700000 0.961120
vt 0.500000 0.961120
vt 0.324002 0.538880
vt 0.500000 0.961120
vt 0.300000 0.961120
vt 0.100000 0.961120
vt 0.275998 0.538880
vt 0.300000 0.961120
vt 0.924002 0.538880
vt 0.875998 0.538880
vt 0.124002 0.538880
vt 0.675998 0.538880
vt 0.475998 0.538880
vt 0.126500 0.748500
vt 0.126500 0.750000
vt 0.125000 0.748500
vt 0.623500 0.998500
vt 0.625000 0.998500
vt 0.623500 1.000000
vt 0.126500 0.501500
vt 0.125000 0.501500
vt 0.126500 0.500000
vt 0.625000 0.250003
vt 0.623500 0.251500
vt 0.623500 0.248500
vt 0.373500 0.748500
vt 0.376500 0.748500
vt 0.376475 0.751487
vt 0.626487 0.748525
vt 0.623500 0.751500
vt 0.623500 0.748500
vt 0.373500 0.501500
vt 0.376475 0.498513
vt 0.376500 0.501500
vt 0.626487 0.501475
vt 0.623500 0.501500
vt 0.623500 0.498500
vt 0.623500 0.000000
vt 0.376500 0.001500
vt 0.376500 0.000000
vt 0.623500 0.001500
vt 0.625000 0.001500
vt 0.376500 0.251500
vt 0.376500 0.248500
vt 0.376500 0.998500
vt 0.873500 0.501500
vt 0.126500 0.748500
vt 0.623500 0.248500
vt 0.376475 0.498513
vt 0.623500 0.498500
vt 0.126500 0.501500
vt 0.675910 0.434873
vt 0.824089 0.434873
vt 0.250000 0.347605
vt 0.340834 0.424005
vt 0.159166 0.424005
vt 0.872452 0.289787
vt 0.902929 0.377592
vt 0.948719 0.236666
vt 0.342828 0.280162
vt 0.443558 0.217382
vt 0.387419 0.390159
vt 0.825680 0.145836
vt 0.918605 0.143984
vt 0.798726 0.056886
vt 0.307371 0.171036
vt 0.278791 0.055836
vt 0.425764 0.162618
vt 0.701274 0.056886
vt 0.581395 0.143984
vt 0.192629 0.171036
vt 0.074236 0.162618
vt 0.221209 0.055836
vt 0.627548 0.289787
vt 0.551281 0.236665
vt 0.597071 0.377592
vt 0.157172 0.280162
vt 0.112581 0.390159
vt 0.056442 0.217382
vt 0.065085 0.537477
vt 0.000000 0.963486
vt 0.000000 0.538439
vt 0.734915 0.537477
vt 0.879878 0.962523
vt 0.720122 0.962523
vt 0.534915 0.537477
vt 0.679878 0.962523
vt 0.520122 0.962523
vt 0.320122 0.962523
vt 0.465085 0.537477
vt 0.479878 0.962523
vt 0.134915 0.537476
vt 0.279878 0.962523
vt 0.120122 0.962523
vt 0.934915 0.537476
vt 0.865085 0.537477
vt 0.665085 0.537477
vt 0.334915 0.537476
vt 0.265085 0.537477
vt 0.750000 0.361186
vt 0.664397 0.425910
vt 0.835603 0.425910
vt 0.250000 0.311091
vt 0.855744 0.284358
vt 0.890847 0.385772
vt 0.943753 0.222946
vt 0.308101 0.268878
vt 0.434661 0.190000
vt 0.364127 0.407082
vt 0.815353 0.160049
vt 0.922651 0.158002
vt 0.784143 0.057370
vt 0.285908 0.200576
vt 0.250000 0.055836
vt 0.434661 0.190000
vt 0.684647 0.160049
vt 0.715857 0.057370
vt 0.577349 0.158002
vt 0.214092 0.200576
vt 0.065339 0.190000
vt 0.644256 0.284358
vt 0.556247 0.222946
vt 0.609153 0.385772
vt 0.191899 0.268878
vt 0.135873 0.407082
vt 0.065339 0.190000
vt 0.075484 0.533902
vt 0.000000 0.966969
vt 0.000000 0.534773
vt 0.724516 0.533902
vt 0.900000 0.966098
vt 0.700000 0.966098
vt 0.524516 0.533902
vt 0.700000 0.966098
vt 0.500000 0.966098
vt 0.324516 0.533902
vt 0.300000 0.966098
vt 0.124516 0.533902
vt 0.300000 0.966098
vt 0.100000 0.966098
vt 0.924516 0.533902
vt 0.875484 0.533902
vt 0.100000 0.966098
vt 0.675484 0.533902
vt 0.475484 0.533902
vt 0.275484 0.533902
vt 0.126500 0.748500
vt 0.750000 0.378754
vt 0.675478 0.434120
vt 0.824522 0.434120
vt 0.250000 0.347605
vt 0.340061 0.424567
vt 0.159939 0.424567
vt 0.872452 0.289787
vt 0.902080 0.377771
vt 0.948137 0.236021
vt 0.342828 0.280162
vt 0.443853 0.218291
vt 0.388192 0.389598
vt 0.918512 0.144847
vt 0.797933 0.057241
vt 0.307371 0.171036
vt 0.279746 0.055836
vt 0.425469 0.161709
vt 0.674320 0.145836
vt 0.702067 0.057241
vt 0.581487 0.144847
vt 0.192629 0.171036
vt 0.074531 0.161709
vt 0.220254 0.055836
vt 0.551863 0.236021
vt 0.597920 0.377771
vt 0.111808 0.389598
vt 0.056147 0.218291
vt 0.065509 0.549944
vt 0.000000 0.951765
vt 0.000000 0.551654
vt 0.734491 0.549944
vt 0.879315 0.950056
vt 0.720685 0.950056
vt 0.534491 0.549944
vt 0.679315 0.950056
vt 0.520685 0.950056
vt 0.320685 0.950056
vt 0.465509 0.549944
vt 0.479315 0.950056
vt 0.120685 0.950056
vt 0.265509 0.549944
vt 0.279315 0.950056
vt 0.920685 0.950055
vt 0.865509 0.549944
vt 0.934491 0.549944
vt 0.134491 0.549944
vt 0.665509 0.549944
vt 0.334491 0.549944
vt 0.750000 0.360080
vt 0.663240 0.424366
vt 0.836760 0.424366
vt 0.250000 0.309555
vt 0.364127 0.407082
vt 0.854692 0.284017
vt 0.889022 0.386396
vt 0.942643 0.221368
vt 0.306641 0.268404
vt 0.434661 0.190000
vt 0.364127 0.407082
vt 0.814703 0.160943
vt 0.922680 0.159931
vt 0.782299 0.057938
vt 0.285006 0.201819
vt 0.250000 0.055836
vt 0.434661 0.190000
vt 0.685296 0.160943
vt 0.717701 0.057938
vt 0.577319 0.159931
vt 0.214994 0.201819
vt 0.065339 0.190000
vt 0.645308 0.284017
vt 0.557357 0.221368
vt 0.610978 0.386396
vt 0.193359 0.268404
vt 0.065339 0.190000
vt 0.100000 0.954431
vt 0.000000 0.547129
vt 0.076691 0.545569
vt 0.723309 0.545569
vt 0.900000 0.954431
vt 0.700000 0.954431
vt 0.523309 0.545569
vt 0.700000 0.954431
vt 0.500000 0.954431
vt 0.300000 0.954431
vt 0.476691 0.545569
vt 0.500000 0.954431
vt 0.100000 0.954431
vt 0.276691 0.545569
vt 0.300000 0.954431
vt 0.923309 0.545569
vt 0.876691 0.545569
vt 0.123309 0.545569
vt 0.676691 0.545569
vt 0.323309 0.545569
vt 0.873500 0.748500
vt 0.000000 0.980174
vt 0.000000 0.958435
vt 0.000000 0.962261
vt 0.900000 0.961120
vt 0.079878 0.962524
vt 0.920122 0.962524
vt 0.079315 0.950055
vt 0.000000 0.955991
s 0
usemtl bark
f 1/1/1 2/2/1 3/3/1
f 4/4/2 5/5/2 6/6/2
f 7/7/3 8/8/3 9/9/3
f 10/10/4 11/11/4 12/12/4
f 13/13/5 14/14/5 15/15/5
f 16/16/6 17/17/6 18/18/6
f 19/19/7 20/20/7 21/21/7
f 22/22/8 23/23/8 24/24/8
f 25/25/9 26/26/9 27/27/9
f 28/28/10 29/29/10 30/30/10
f 8/8/11 1/1/11 3/3/11
f 5/5/12 10/10/12 12/12/12
f 6/31/13 3/32/13 2/33/13
f 9/34/14 12/35/14 11/36/14
f 14/14/15 7/7/15 9/9/15
f 11/11/16 16/16/16 18/18/16
f 15/37/17 18/38/17 17/39/17
f 15/15/18 19/19/18 13/13/18
f 24/24/19 16/16/19 22/22/19
f 21/40/20 24/41/20 23/42/20
f 21/21/21 25/25/21 19/19/21
f 30/30/22 22/22/22 28/28/22
f 27/43/23 30/44/23 29/45/23
f 2/2/24 25/25/24 27/27/24
f 29/29/25 4/4/25 6/6/25
f 7/7/26 19/19/26 25/25/26
f 5/46/27 8/47/27 3/48/27
f 29/45/28 2/33/28 27/43/28
f 4/4/29 22/22/29 16/16/29
f 9/34/30 18/38/30 14/49/30
f 17/39/31 20/50/31 15/37/31
f 23/42/32 26/51/32 21/40/32
f 31/52/33 32/53/33 33/54/33
f 34/55/34 35/56/34 36/57/34
f 37/58/35 38/59/35 39/60/35
f 40/61/36 41/62/36 42/63/36
f 43/64/37 44/65/37 45/66/37
f 46/67/38 47/68/38 48/69/38
f 49/70/39 50/71/39 51/72/39
f 52/73/40 53/74/40 54/75/40
f 55/76/41 56/77/41 57/78/41
f 58/79/42 59/80/42 60/81/42
f 33/54/43 37/58/43 31/52/43
f 35/56/44 40/61/44 42/63/44
f 36/82/45 33/83/45 32/84/45
f 39/85/46 42/86/46 41/87/46
f 44/65/47 37/58/47 39/60/47
f 48/69/48 40/61/48 46/67/48
f 45/88/49 48/89/49 47/90/49
f 50/71/50 43/64/50 45/66/50
f 47/68/51 52/73/51 54/75/51
f 51/91/52 54/92/52 53/93/52
f 51/72/53 55/76/53 49/70/53
f 60/81/54 52/73/54 58/79/54
f 57/94/55 60/95/55 59/96/55
f 57/78/56 31/52/56 55/76/56
f 36/57/57 58/79/57 34/55/57
f 37/58/58 49/70/58 55/76/58
f 35/97/59 38/98/59 33/99/59
f 59/96/60 32/84/60 57/94/60
f 34/55/61 52/73/61 46/67/61
f 41/87/62 44/100/62 39/85/62
f 45/88/63 54/92/63 50/101/63
f 53/93/64 56/102/64 51/91/64
f 61/103/65 62/104/65 63/105/65
f 64/106/66 65/107/66 66/108/66
f 67/109/67 68/110/67 69/111/67
f 70/112/68 71/113/68 72/114/68
f 73/115/69 74/116/69 75/117/69
f 76/118/70 77/119/70 78/120/70
f 79/121/71 80/122/71 81/123/71
f 82/124/72 83/125/72 84/126/72
f 85/127/73 86/128/73 87/129/73
f 88/130/74 89/131/74 90/132/74
f 68/110/75 61/103/75 63/105/75
f 65/107/76 70/112/76 72/114/76
f 66/133/77 63/134/77 62/135/77
f 69/136/78 72/137/78 71/138/78
f 74/116/79 67/109/79 69/111/79
f 78/120/80 70/112/80 76/118/80
f 75/139/81 78/140/81 77/141/81
f 80/122/82 73/115/82 75/117/82
f 77/119/83 82/124/83 84/126/83
f 81/142/84 84/143/84 83/144/84
f 81/123/85 85/127/85 79/121/85
f 90/132/86 82/124/86 88/130/86
f 89/145/87 86/146/87 90/147/87
f 87/129/88 61/103/88 85/127/88
f 89/131/89 64/106/89 66/108/89
f 67/109/90 79/121/90 85/127/90
f 65/148/91 68/149/91 63/150/91
f 89/145/92 62/135/92 87/151/92
f 64/106/93 82/124/93 76/118/93
f 71/138/94 74/152/94 69/136/94
f 75/139/95 84/143/95 80/153/95
f 83/144/96 86/146/96 81/142/96
f 91/154/97 92/155/97 93/156/97
f 94/157/98 95/158/98 96/159/98
f 97/160/99 98/161/99 99/162/99
f 100/163/100 101/164/100 102/165/100
f 103/166/101 104/167/101 105/168/101
f 106/169/102 107/170/102 108/171/102
f 109/172/103 110/173/103 111/174/103
f 112/175/104 113/176/104 114/177/104
f 115/178/105 116/179/105 117/180/105
f 118/181/106 119/182/106 120/183/106
f 98/161/107 91/154/107 93/156/107
f 102/165/108 94/157/108 100/163/108
f 96/184/109 93/185/109 92/186/109
f 99/187/110 102/188/110 101/189/110
f 104/167/111 97/160/111 99/162/111
f 108/171/112 100/163/112 106/169/112
f 105/190/113 108/191/113 107/192/113
f 110/173/114 103/166/114 105/168/114
f 114/177/115 106/169/115 112/175/115
f 111/193/116 114/194/116 113/195/116
f 111/174/117 115/178/117 109/172/117
f 120/183/118 112/175/118 118/181/118
f 119/196/119 116/197/119 120/198/119
f 92/155/120 115/178/120 117/180/120
f 96/159/121 118/181/121 94/157/121
f 97/160/122 109/172/122 115/178/122
f 93/199/123 102/188/123 98/200/123
f 117/201/124 96/184/124 92/186/124
f 94/157/125 112/175/125 106/169/125
f 99/187/126 108/191/126 104/202/126
f 105/190/127 114/194/127 110/203/127
f 111/193/128 120/198/128 116/197/128
f 193/103/207 194/242/207 195/243/207
f 196/244/208 197/245/208 198/246/208
f 199/247/209 200/248/209 201/249/209
f 202/250/210 203/251/210 204/252/210
f 205/253/211 206/254/211 207/255/211
f 208/256/212 209/257/212 210/258/212
f 211/121/213 212/259/213 213/260/213
f 214/261/214 215/262/214 216/263/214
f 217/264/215 218/265/215 219/266/215
f 220/267/216 221/268/216 222/269/216
f 195/243/217 199/247/217 193/103/217
f 197/245/218 202/250/218 204/252/218
f 194/270/219 197/271/219 195/272/219
f 201/273/220 204/274/220 203/275/220
f 206/254/221 199/247/221 201/249/221
f 210/258/222 202/250/222 208/256/222
f 207/276/223 210/277/223 209/278/223
f 207/255/224 211/121/224 205/253/224
f 216/263/225 208/256/225 214/261/225
f 215/279/226 212/280/226 216/281/226
f 213/260/227 217/264/227 211/121/227
f 215/262/228 220/267/228 222/269/228
f 219/282/229 222/283/229 221/284/229
f 219/266/230 193/103/230 217/264/230
f 221/268/231 196/244/231 198/246/231
f 199/247/232 211/121/232 217/264/232
f 195/285/233 204/274/233 200/286/233
f 221/284/234 194/270/234 219/282/234
f 196/244/235 214/261/235 208/256/235
f 203/275/236 206/287/236 201/273/236
f 209/278/237 212/280/237 207/276/237
f 213/288/238 222/283/238 218/289/238
f 223/290/239 224/291/239 225/292/239
f 226/293/240 227/158/240 228/159/240
f 229/294/241 230/295/241 231/296/241
f 232/297/242 233/298/242 234/299/242
f 235/300/243 236/301/243 237/302/243
f 238/303/244 239/304/244 240/305/244
f 241/306/245 242/307/245 243/308/245
f 244/309/246 245/310/246 246/177/246
f 247/311/247 248/312/247 249/313/247
f 250/314/248 251/315/248 252/316/248
f 225/292/249 229/294/249 223/290/249
f 234/299/250 226/293/250 232/297/250
f 224/317/251 227/318/251 225/319/251
f 231/320/252 234/321/252 233/322/252
f 236/301/253 229/294/253 231/296/253
f 240/305/254 232/297/254 238/303/254
f 237/323/255 240/324/255 239/325/255
f 242/307/256 235/300/256 237/302/256
f 246/177/257 238/303/257 244/309/257
f 243/326/258 246/325/258 245/327/258
f 248/312/259 241/306/259 243/308/259
f 252/316/260 244/309/260 250/314/260
f 249/328/261 252/329/261 251/330/261
f 249/313/262 223/290/262 247/311/262
f 228/159/263 250/314/263 226/293/263
f 229/294/264 241/306/264 247/311/264
f 225/331/265 234/321/265 230/332/265
f 249/328/266 228/333/266 224/317/266
f 226/293/267 244/309/267 238/303/267
f 231/320/268 240/324/268 236/334/268
f 237/323/269 246/325/269 242/335/269
f 243/326/270 252/329/270 248/336/270
f 325/338/349 326/339/349 327/340/349
f 328/341/350 329/342/350 330/343/350
f 331/344/351 332/345/351 333/346/351
f 334/347/352 335/348/352 336/349/352
f 337/253/353 338/350/353 339/351/353
f 340/352/354 341/353/354 342/354/354
f 343/355/355 344/356/355 345/357/355
f 346/358/356 347/359/356 348/360/356
f 349/264/357 350/361/357 351/362/357
f 352/130/358 353/363/358 354/364/358
f 332/345/359 325/338/359 327/340/359
f 329/342/360 334/347/360 336/349/360
f 326/365/361 329/366/361 327/367/361
f 333/368/362 336/369/362 335/370/362
f 333/346/363 337/253/363 331/344/363
f 342/354/364 334/347/364 340/352/364
f 339/371/365 342/372/365 341/373/365
f 339/351/366 343/355/366 337/253/366
f 348/360/367 340/352/367 346/358/367
f 347/374/368 344/375/368 348/376/368
f 345/357/369 349/264/369 343/355/369
f 354/364/370 346/358/370 352/130/370
f 353/377/371 350/378/371 354/379/371
f 326/339/372 349/264/372 351/362/372
f 330/343/373 352/130/373 328/341/373
f 331/344/374 343/355/374 349/264/374
f 329/380/375 332/381/375 327/382/375
f 353/377/376 326/365/376 351/383/376
f 328/341/377 346/358/377 340/352/377
f 335/370/378 338/384/378 333/368/378
f 341/373/379 344/375/379 339/371/379
f 347/374/380 350/378/380 345/385/380
f 355/386/381 356/387/381 357/388/381
f 358/389/382 359/390/382 360/315/382
f 361/391/383 362/392/383 363/393/383
f 364/394/384 365/395/384 366/396/384
f 367/397/385 368/398/385 369/399/385
f 370/400/386 371/401/386 372/402/386
f 373/403/387 374/404/387 375/405/387
f 376/406/388 377/407/388 378/177/388
f 379/408/389 380/409/389 381/410/389
f 382/411/390 383/315/390 384/412/390
f 362/392/391 355/386/391 357/388/391
f 366/396/392 358/389/392 364/394/392
f 360/413/393 357/414/393 356/415/393
f 363/416/394 366/417/394 365/418/394
f 363/393/395 367/397/395 361/391/395
f 372/402/396 364/394/396 370/400/396
f 369/419/397 372/420/397 371/421/397
f 369/399/398 373/403/398 367/397/398
f 378/177/399 370/400/399 376/406/399
f 377/422/400 374/423/400 378/424/400
f 375/405/401 379/408/401 373/403/401
f 384/412/402 376/406/402 382/411/402
f 383/425/403 380/426/403 384/427/403
f 381/410/404 355/386/404 379/408/404
f 360/315/405 382/411/405 358/389/405
f 361/391/406 373/403/406 379/408/406
f 357/428/407 366/417/407 362/429/407
f 381/430/408 360/413/408 356/415/408
f 358/389/409 376/406/409 370/400/409
f 363/416/410 372/420/410 368/431/410
f 369/419/411 378/424/411 374/423/411
f 375/432/412 384/427/412 380/426/412
f 8/8/11 7/7/11 1/1/11
f 5/5/12 4/4/12 10/10/12
f 6/31/13 5/434/13 3/32/13
f 9/34/14 8/47/14 12/35/14
f 14/14/15 13/13/15 7/7/15
f 11/11/16 10/10/16 16/16/16
f 15/37/17 14/49/17 18/38/17
f 15/15/18 20/20/18 19/19/18
f 24/24/19 17/17/19 16/16/19
f 21/40/20 20/50/20 24/41/20
f 21/21/21 26/26/21 25/25/21
f 30/30/22 23/23/22 22/22/22
f 27/43/23 26/51/23 30/44/23
f 2/2/24 1/1/24 25/25/24
f 29/29/25 28/28/25 4/4/25
f 25/25/26 1/1/26 7/7/26
f 7/7/26 13/13/26 19/19/26
f 5/46/27 12/35/27 8/47/27
f 29/45/28 6/31/28 2/33/28
f 16/16/29 10/10/29 4/4/29
f 4/4/29 28/28/29 22/22/29
f 9/34/30 11/36/30 18/38/30
f 17/39/31 24/41/31 20/50/31
f 23/42/32 30/44/32 26/51/32
f 33/54/43 38/59/43 37/58/43
f 35/56/44 34/55/44 40/61/44
f 36/82/45 35/434/45 33/83/45
f 39/85/46 38/98/46 42/86/46
f 44/65/47 43/64/47 37/58/47
f 48/69/48 41/62/48 40/61/48
f 45/88/49 44/100/49 48/89/49
f 50/71/50 49/70/50 43/64/50
f 47/68/51 46/67/51 52/73/51
f 51/91/52 50/101/52 54/92/52
f 51/72/53 56/77/53 55/76/53
f 60/81/54 53/74/54 52/73/54
f 57/94/55 56/102/55 60/95/55
f 57/78/56 32/53/56 31/52/56
f 36/57/57 59/80/57 58/79/57
f 55/76/58 31/52/58 37/58/58
f 37/58/58 43/64/58 49/70/58
f 35/97/59 42/86/59 38/98/59
f 59/96/60 36/82/60 32/84/60
f 46/67/61 40/61/61 34/55/61
f 34/55/61 58/79/61 52/73/61
f 41/87/62 48/89/62 44/100/62
f 45/88/63 47/90/63 54/92/63
f 53/93/64 60/95/64 56/102/64
f 68/110/75 67/109/75 61/103/75
f 65/107/76 64/106/76 70/112/76
f 66/133/77 65/435/77 63/134/77
f 69/136/78 68/149/78 72/137/78
f 74/116/79 73/115/79 67/109/79
f 78/120/80 71/113/80 70/112/80
f 75/139/81 74/152/81 78/140/81
f 80/122/82 79/121/82 73/115/82
f 77/119/83 76/118/83 82/124/83
f 81/142/84 80/153/84 84/143/84
f 81/123/85 86/128/85 85/127/85
f 90/132/86 83/125/86 82/124/86
f 89/145/87 87/151/87 86/146/87
f 87/129/88 62/104/88 61/103/88
f 89/131/543 88/130/543 64/106/543
f 85/127/90 61/103/90 67/109/90
f 67/109/90 73/115/90 79/121/90
f 65/148/91 72/137/91 68/149/91
f 89/145/92 66/133/92 62/135/92
f 76/118/93 70/112/93 64/106/93
f 64/106/93 88/130/93 82/124/93
f 71/138/94 78/140/94 74/152/94
f 75/139/95 77/141/95 84/143/95
f 83/144/96 90/147/96 86/146/96
f 98/161/107 97/160/107 91/154/107
f 102/165/544 95/158/544 94/157/544
f 96/184/109 95/436/109 93/185/109
f 99/187/110 98/200/110 102/188/110
f 104/167/111 103/166/111 97/160/111
f 108/171/544 101/164/544 100/163/544
f 105/190/113 104/202/113 108/191/113
f 110/173/114 109/172/114 103/166/114
f 114/177/545 107/170/545 106/169/545
f 111/193/116 110/203/116 114/194/116
f 111/174/117 116/179/117 115/178/117
f 120/183/546 113/176/546 112/175/546
f 119/196/119 117/201/119 116/197/119
f 92/155/120 91/154/120 115/178/120
f 96/159/544 119/182/544 118/181/544
f 115/178/122 91/154/122 97/160/122
f 97/160/122 103/166/122 109/172/122
f 93/199/544 95/437/544 102/188/544
f 117/201/544 119/196/544 96/184/544
f 106/169/125 100/163/125 94/157/125
f 94/157/125 118/181/125 112/175/125
f 99/187/544 101/189/544 108/191/544
f 105/190/547 107/192/547 114/194/547
f 111/193/546 113/195/546 120/198/546
f 195/243/217 200/248/217 199/247/217
f 197/245/218 196/244/218 202/250/218
f 194/270/219 198/438/219 197/271/219
f 201/273/220 200/286/220 204/274/220
f 206/254/221 205/253/221 199/247/221
f 210/258/222 203/251/222 202/250/222
f 207/276/223 206/287/223 210/277/223
f 207/255/224 212/259/224 211/121/224
f 216/263/225 209/257/225 208/256/225
f 215/279/226 213/288/226 212/280/226
f 213/260/227 218/265/227 217/264/227
f 215/262/228 214/261/228 220/267/228
f 219/282/229 218/289/229 222/283/229
f 219/266/230 194/242/230 193/103/230
f 221/268/231 220/267/231 196/244/231
f 217/264/232 193/103/232 199/247/232
f 199/247/232 205/253/232 211/121/232
f 195/285/233 197/439/233 204/274/233
f 221/284/234 198/438/234 194/270/234
f 208/256/235 202/250/235 196/244/235
f 196/244/235 220/267/235 214/261/235
f 203/275/236 210/277/236 206/287/236
f 209/278/237 216/281/237 212/280/237
f 213/288/238 215/279/238 222/283/238
f 225/292/249 230/295/249 229/294/249
f 234/299/544 227/158/544 226/293/544
f 224/317/251 228/333/251 227/318/251
f 231/320/252 230/332/252 234/321/252
f 236/301/253 235/300/253 229/294/253
f 240/305/565 233/298/565 232/297/565
f 237/323/255 236/334/255 240/324/255
f 242/307/256 241/306/256 235/300/256
f 246/177/566 239/304/566 238/303/566
f 243/326/258 242/335/258 246/325/258
f 248/312/259 247/311/259 241/306/259
f 252/316/544 245/310/544 244/309/544
f 249/328/261 248/336/261 252/329/261
f 249/313/262 224/291/262 223/290/262
f 228/159/544 251/315/544 250/314/544
f 247/311/264 223/290/264 229/294/264
f 229/294/264 235/300/264 241/306/264
f 225/331/544 227/321/544 234/321/544
f 249/328/544 251/330/544 228/333/544
f 238/303/267 232/297/267 226/293/267
f 226/293/267 250/314/267 244/309/267
f 231/320/544 233/322/544 240/324/544
f 237/323/567 239/325/567 246/325/567
f 243/326/544 245/327/544 252/329/544
f 332/345/359 331/344/359 325/338/359
f 329/342/360 328/341/360 334/347/360
f 326/365/361 330/440/361 329/366/361
f 333/368/362 332/381/362 336/369/362
f 333/346/363 338/350/363 337/253/363
f 342/354/364 335/348/364 334/347/364
f 339/371/365 338/384/365 342/372/365
f 339/351/366 344/356/366 343/355/366
f 348/360/367 341/353/367 340/352/367
f 347/374/368 345/385/368 344/375/368
f 345/357/369 350/361/369 349/264/369
f 354/364/587 347/359/587 346/358/587
f 353/377/371 351/383/371 350/378/371
f 326/339/372 325/338/372 349/264/372
f 330/343/373 353/363/373 352/130/373
f 349/264/374 325/338/374 331/344/374
f 331/344/374 337/253/374 343/355/374
f 329/380/375 336/369/375 332/381/375
f 353/377/376 330/440/376 326/365/376
f 340/352/377 334/347/377 328/341/377
f 328/341/377 352/130/377 346/358/377
f 335/370/378 342/372/378 338/384/378
f 341/373/379 348/376/379 344/375/379
f 347/374/380 354/379/380 350/378/380
f 362/392/391 361/391/391 355/386/391
f 366/396/544 359/390/544 358/389/544
f 360/413/393 359/441/393 357/414/393
f 363/416/394 362/429/394 366/417/394
f 363/393/395 368/398/395 367/397/395
f 372/402/544 365/395/544 364/394/544
f 369/419/397 368/431/397 372/420/397
f 369/399/398 374/404/398 373/403/398
f 378/177/544 371/401/544 370/400/544
f 377/422/400 375/432/400 374/423/400
f 375/405/588 380/409/588 379/408/588
f 384/412/544 377/407/544 376/406/544
f 383/425/403 381/430/403 380/426/403
f 381/410/404 356/387/404 355/386/404
f 360/315/589 383/315/589 382/411/589
f 379/408/406 355/386/406 361/391/406
f 361/391/406 367/397/406 373/403/406
f 357/428/544 359/417/544 366/417/544
f 381/430/590 383/425/590 360/413/590
f 370/400/409 364/394/409 358/389/409
f 358/389/409 382/411/409 376/406/409
f 363/416/544 365/418/544 372/420/544
f 369/419/591 371/421/591 378/424/591
f 375/432/544 377/422/544 384/427/544
usemtl moss
f 121/204/129 122/205/129 123/206/129
f 124/207/130 125/208/130 126/209/130
f 127/210/131 128/211/131 129/212/131
f 130/213/132 131/214/132 132/215/132
f 133/216/133 134/217/133 135/218/133
f 136/219/134 137/220/134 138/221/134
f 139/222/135 140/223/135 141/224/135
f 142/225/136 143/226/136 144/227/136
f 121/204/137 128/211/137 127/210/137
f 124/228/138 123/229/138 122/230/138
f 130/213/139 126/231/139 125/232/139
f 129/233/140 132/215/140 131/214/140
f 139/222/141 129/212/141 140/223/141
f 142/225/142 131/214/142 130/213/142
f 141/224/143 144/227/143 143/226/143
f 133/216/144 141/224/144 134/217/144
f 136/219/145 143/226/145 142/225/145
f 135/218/146 138/221/146 137/220/146
f 121/204/147 135/218/147 122/205/147
f 125/208/148 137/220/148 136/219/148
f 139/222/149 121/204/149 127/210/149
f 126/231/150 128/234/150 123/229/150
f 137/220/151 122/235/151 135/218/151
f 130/236/152 136/219/152 142/225/152
f 129/233/153 144/227/153 140/223/153
f 143/226/154 134/217/154 141/224/154
f 145/237/155 146/205/155 147/206/155
f 148/207/156 149/208/156 150/209/156
f 151/210/157 152/211/157 153/212/157
f 154/213/158 155/214/158 156/238/158
f 157/216/159 158/217/159 159/218/159
f 160/219/160 161/220/160 162/221/160
f 163/222/161 164/239/161 165/224/161
f 166/225/162 167/226/162 168/240/162
f 145/237/163 152/211/163 151/210/163
f 146/230/164 150/231/164 147/229/164
f 154/213/165 150/231/165 149/232/165
f 155/214/166 152/234/166 156/238/166
f 163/222/167 153/212/167 164/239/167
f 154/213/168 168/240/168 155/214/168
f 165/224/169 168/240/169 167/226/169
f 157/216/170 165/224/170 158/217/170
f 160/219/171 167/226/171 166/225/171
f 159/218/172 162/221/172 161/220/172
f 145/237/173 159/218/173 146/205/173
f 149/208/174 161/220/174 160/219/174
f 163/222/175 145/237/175 151/210/175
f 150/231/176 152/234/176 147/229/176
f 161/220/177 146/235/177 159/218/177
f 154/236/178 160/219/178 166/225/178
f 153/233/179 168/240/179 164/239/179
f 165/224/180 162/221/180 158/217/180
f 169/237/181 170/205/181 171/206/181
f 172/207/182 173/208/182 174/209/182
f 175/241/183 176/211/183 177/212/183
f 178/213/184 179/214/184 180/238/184
f 181/216/185 182/217/185 183/218/185
f 184/219/186 185/220/186 186/221/186
f 187/222/187 188/239/187 189/224/187
f 190/225/188 191/226/188 192/240/188
f 175/241/189 171/206/189 176/211/189
f 170/230/190 174/231/190 171/229/190
f 178/213/191 174/231/191 173/232/191
f 179/214/192 176/234/192 180/238/192
f 187/222/193 177/212/193 188/239/193
f 178/213/194 192/240/194 179/214/194
f 191/226/195 188/239/195 192/240/195
f 187/222/196 182/217/196 181/216/196
f 184/219/197 191/226/197 190/225/197
f 183/218/198 186/221/198 185/220/198
f 169/237/199 183/218/199 170/205/199
f 184/219/200 172/207/200 185/220/200
f 187/222/201 169/237/201 175/241/201
f 171/229/202 180/238/202 176/234/202
f 185/220/203 170/235/203 183/218/203
f 178/236/204 184/219/204 190/225/204
f 179/214/205 188/239/205 177/233/205
f 191/226/206 182/217/206 189/224/206
f 253/204/271 254/205/271 255/206/271
f 256/207/272 257/208/272 258/209/272
f 259/210/273 260/211/273 261/212/273
f 262/213/274 263/214/274 264/215/274
f 265/216/275 266/217/275 267/218/275
f 268/219/276 269/220/276 270/221/276
f 271/222/277 272/239/277 273/224/277
f 274/225/278 275/226/278 276/227/278
f 253/204/279 260/211/279 259/210/279
f 256/228/280 255/229/280 254/230/280
f 257/232/281 264/215/281 258/231/281
f 261/233/282 264/215/282 263/214/282
f 271/222/283 261/212/283 272/239/283
f 274/225/284 263/214/284 262/213/284
f 273/224/285 276/227/285 275/226/285
f 271/222/286 266/217/286 265/216/286
f 274/225/287 270/221/287 275/226/287
f 269/220/288 266/217/288 270/221/288
f 253/204/289 267/218/289 254/205/289
f 257/208/290 269/220/290 268/219/290
f 259/210/291 265/216/291 253/204/291
f 258/231/292 260/234/292 255/229/292
f 269/220/293 254/235/293 267/218/293
f 262/236/294 268/219/294 274/225/294
f 263/214/295 272/239/295 261/233/295
f 275/226/296 266/217/296 273/224/296
f 277/337/297 278/205/297 279/206/297
f 280/207/298 281/208/298 282/209/298
f 283/210/299 284/211/299 285/212/299
f 286/213/300 287/214/300 288/215/300
f 289/216/301 290/217/301 291/218/301
f 292/219/302 293/220/302 294/221/302
f 295/222/303 296/223/303 297/224/303
f 298/225/304 299/226/304 300/227/304
f 283/210/305 279/206/305 284/211/305
f 278/230/306 282/231/306 279/229/306
f 286/213/307 282/231/307 281/232/307
f 285/233/308 288/215/308 287/214/308
f 283/210/309 296/223/309 295/222/309
f 298/225/310 287/214/310 286/213/310
f 297/224/311 300/227/311 299/226/311
f 289/216/312 297/224/312 290/217/312
f 292/219/313 299/226/313 298/225/313
f 293/220/314 290/217/314 294/221/314
f 289/216/315 278/205/315 277/337/315
f 281/208/316 293/220/316 292/219/316
f 295/222/317 277/337/317 283/210/317
f 279/229/318 288/215/318 284/234/318
f 293/220/319 278/235/319 291/218/319
f 286/236/320 292/219/320 298/225/320
f 285/233/321 300/227/321 296/223/321
f 299/226/322 290/217/322 297/224/322
f 301/237/323 302/205/323 303/206/323
f 304/207/324 305/208/324 306/209/324
f 307/210/325 308/211/325 309/212/325
f 310/213/326 311/214/326 312/238/326
f 313/216/327 314/217/327 315/218/327
f 316/219/328 317/220/328 318/221/328
f 319/222/329 320/239/329 321/224/329
f 322/225/330 323/226/330 324/240/330
f 307/210/331 303/206/331 308/211/331
f 304/228/332 303/229/332 302/230/332
f 310/213/333 306/231/333 305/232/333
f 311/214/334 308/234/334 312/238/334
f 307/210/335 320/239/335 319/222/335
f 310/213/336 324/240/336 311/214/336
f 321/224/337 324/240/337 323/226/337
f 313/216/338 321/224/338 314/217/338
f 316/219/339 323/226/339 322/225/339
f 315/218/340 318/221/340 317/220/340
f 301/237/341 315/218/341 302/205/341
f 316/219/342 304/207/342 317/220/342
f 319/222/343 301/237/343 307/210/343
f 306/231/344 308/234/344 303/229/344
f 317/220/345 302/235/345 315/218/345
f 310/236/346 316/219/346 322/225/346
f 311/214/347 320/239/347 309/233/347
f 323/226/348 314/217/348 321/224/348
f 385/204/413 386/205/413 387/206/413
f 388/207/414 389/208/414 390/209/414
f 391/210/415 392/211/415 393/212/415
f 394/213/416 395/214/416 396/215/416
f 397/216/417 398/217/417 399/218/417
f 400/219/418 401/220/418 402/221/418
f 403/222/419 404/239/419 405/224/419
f 406/225/420 407/226/420 408/227/420
f 391/210/421 387/206/421 392/211/421
f 386/230/422 390/231/422 387/229/422
f 394/213/423 390/231/423 389/232/423
f 393/233/424 396/215/424 395/214/424
f 403/222/425 393/212/425 404/239/425
f 406/225/426 395/214/426 394/213/426
f 405/224/427 408/227/427 407/226/427
f 403/222/428 398/217/428 397/216/428
f 400/219/429 407/226/429 406/225/429
f 399/218/430 402/221/430 401/220/430
f 385/204/431 399/218/431 386/205/431
f 400/219/432 388/207/432 401/220/432
f 403/222/433 385/204/433 391/210/433
f 390/231/434 392/234/434 387/229/434
f 399/218/435 388/207/435 386/235/435
f 394/236/436 400/219/436 406/225/436
f 395/214/437 404/239/437 393/233/437
f 407/226/438 398/217/438 405/224/438
f 409/337/439 410/205/439 411/206/439
f 412/207/440 413/208/440 414/209/440
f 415/210/441 416/211/441 417/212/441
f 418/213/442 419/214/442 420/215/442
f 421/216/443 422/217/443 423/218/443
f 424/219/444 425/220/444 426/221/444
f 427/222/445 428/223/445 429/224/445
f 430/225/446 431/226/446 432/227/446
f 409/337/447 416/211/447 415/210/447
f 410/230/448 414/231/448 411/229/448
f 418/213/449 414/231/449 413/232/449
f 419/214/450 416/234/450 420/215/450
f 415/210/451 428/223/451 427/222/451
f 430/225/452 419/214/452 418/213/452
f 431/226/453 428/223/453 432/227/453
f 427/222/454 422/217/454 421/216/454
f 430/225/455 426/221/455 431/226/455
f 423/218/456 426/221/456 425/220/456
f 409/337/457 423/218/457 410/205/457
f 424/219/458 412/207/458 425/220/458
f 415/210/459 421/216/459 409/337/459
f 414/231/460 416/234/460 411/229/460
f 425/220/461 410/235/461 423/218/461
f 430/225/462 413/433/462 424/219/462
f 417/233/463 432/227/463 428/223/463
f 429/224/464 426/221/464 422/217/464
f 433/237/465 434/205/465 435/206/465
f 436/207/466 437/208/466 438/209/466
f 439/210/467 440/211/467 441/212/467
f 442/213/468 443/214/468 444/238/468
f 445/216/469 446/217/469 447/218/469
f 448/219/470 449/220/470 450/221/470
f 451/222/471 452/239/471 453/224/471
f 454/225/472 455/226/472 456/240/472
f 439/210/473 435/206/473 440/211/473
f 436/228/474 435/229/474 434/230/474
f 437/232/475 444/238/475 438/231/475
f 443/214/476 440/234/476 444/238/476
f 451/222/477 441/212/477 452/239/477
f 454/225/478 443/214/478 442/213/478
f 453/224/479 456/240/479 455/226/479
f 445/216/480 453/224/480 446/217/480
f 448/219/481 455/226/481 454/225/481
f 447/218/482 450/221/482 449/220/482
f 433/237/483 447/218/483 434/205/483
f 448/219/484 436/207/484 449/220/484
f 439/210/485 445/216/485 433/237/485
f 438/231/486 440/234/486 435/229/486
f 449/220/487 434/235/487 447/218/487
f 442/236/488 448/219/488 454/225/488
f 441/233/489 456/240/489 452/239/489
f 455/226/490 446/217/490 453/224/490
f 457/237/491 458/205/491 459/206/491
f 460/207/492 461/208/492 462/209/492
f 463/241/493 464/211/493 465/212/493
f 466/213/494 467/214/494 468/238/494
f 469/216/495 470/217/495 471/218/495
f 472/219/496 473/220/496 474/221/496
f 475/222/497 476/239/497 477/224/497
f 478/225/498 479/226/498 480/240/498
f 457/237/499 464/211/499 463/241/499
f 458/230/500 462/231/500 459/229/500
f 461/232/501 468/238/501 462/231/501
f 467/214/502 464/234/502 468/238/502
f 475/222/503 465/212/503 476/239/503
f 466/213/504 480/240/504 467/214/504
f 479/226/505 476/239/505 480/240/505
f 469/216/506 477/224/506 470/217/506
f 472/219/507 479/226/507 478/225/507
f 471/218/508 474/221/508 473/220/508
f 469/216/509 458/205/509 457/237/509
f 461/208/510 473/220/510 472/219/510
f 475/222/511 457/237/511 463/241/511
f 462/231/512 464/234/512 459/229/512
f 473/220/513 458/235/513 471/218/513
f 478/225/514 461/433/514 472/219/514
f 467/214/515 476/239/515 465/233/515
f 479/226/516 470/217/516 477/224/516
f 481/337/517 482/205/517 483/206/517
f 484/207/518 485/208/518 486/209/518
f 487/241/519 488/211/519 489/212/519
f 490/213/520 491/214/520 492/215/520
f 493/216/521 494/217/521 495/218/521
f 496/219/522 497/220/522 498/221/522
f 499/222/523 500/239/523 501/224/523
f 502/225/524 503/226/524 504/227/524
f 487/241/525 483/206/525 488/211/525
f 484/228/526 483/229/526 482/230/526
f 490/213/527 486/231/527 485/232/527
f 489/233/528 492/215/528 491/214/528
f 487/241/529 500/239/529 499/222/529
f 502/225/530 491/214/530 490/213/530
f 503/226/531 500/239/531 504/227/531
f 499/222/532 494/217/532 493/216/532
f 496/219/533 503/226/533 502/225/533
f 497/220/534 494/217/534 498/221/534
f 481/337/535 495/218/535 482/205/535
f 485/208/536 497/220/536 496/219/536
f 499/222/537 481/337/537 487/241/537
f 486/231/538 488/234/538 483/229/538
f 495/218/539 484/207/539 482/235/539
f 490/236/540 496/219/540 502/225/540
f 491/214/541 500/239/541 489/233/541
f 503/226/542 494/217/542 501/224/542
f 121/204/548 123/206/548 128/211/548
f 124/228/549 126/231/549 123/229/549
f 130/213/139 132/215/139 126/231/139
f 129/233/140 128/234/140 132/215/140
f 139/222/550 127/210/550 129/212/550
f 142/225/551 144/227/551 131/214/551
f 141/224/143 140/223/143 144/227/143
f 133/216/552 139/222/552 141/224/552
f 136/219/553 138/221/553 143/226/553
f 135/218/146 134/217/146 138/221/146
f 121/204/554 133/216/554 135/218/554
f 125/208/555 124/207/555 137/220/555
f 139/222/149 133/216/149 121/204/149
f 126/231/150 132/215/150 128/234/150
f 137/220/151 124/207/151 122/235/151
f 130/236/152 125/433/152 136/219/152
f 129/233/153 131/214/153 144/227/153
f 143/226/154 138/221/154 134/217/154
f 145/237/556 147/206/556 152/211/556
f 146/230/164 148/228/164 150/231/164
f 154/213/557 156/238/557 150/231/557
f 155/214/166 153/233/166 152/234/166
f 163/222/167 151/210/167 153/212/167
f 154/213/168 166/225/168 168/240/168
f 165/224/169 164/239/169 168/240/169
f 157/216/170 163/222/170 165/224/170
f 160/219/558 162/221/558 167/226/558
f 159/218/172 158/217/172 162/221/172
f 145/237/559 157/216/559 159/218/559
f 149/208/174 148/207/174 161/220/174
f 163/222/175 157/216/175 145/237/175
f 150/231/176 156/238/176 152/234/176
f 161/220/177 148/207/177 146/235/177
f 154/236/178 149/433/178 160/219/178
f 153/233/179 155/214/179 168/240/179
f 165/224/180 167/226/180 162/221/180
f 175/241/189 169/237/189 171/206/189
f 170/230/190 172/228/190 174/231/190
f 178/213/191 180/238/191 174/231/191
f 179/214/192 177/233/192 176/234/192
f 187/222/560 175/241/560 177/212/560
f 178/213/561 190/225/561 192/240/561
f 191/226/195 189/224/195 188/239/195
f 187/222/562 189/224/562 182/217/562
f 184/219/197 186/221/197 191/226/197
f 183/218/198 182/217/198 186/221/198
f 169/237/563 181/216/563 183/218/563
f 184/219/564 173/208/564 172/207/564
f 187/222/201 181/216/201 169/237/201
f 171/229/202 174/231/202 180/238/202
f 185/220/203 172/207/203 170/235/203
f 178/236/204 173/433/204 184/219/204
f 179/214/205 192/240/205 188/239/205
f 191/226/206 186/221/206 182/217/206
f 253/204/279 255/206/279 260/211/279
f 256/228/280 258/231/280 255/229/280
f 257/232/281 262/213/281 264/215/281
f 261/233/282 260/234/282 264/215/282
f 271/222/568 259/210/568 261/212/568
f 274/225/284 276/227/284 263/214/284
f 273/224/285 272/239/285 276/227/285
f 271/222/569 273/224/569 266/217/569
f 274/225/570 268/219/570 270/221/570
f 269/220/571 267/218/571 266/217/571
f 253/204/572 265/216/572 267/218/572
f 257/208/573 256/207/573 269/220/573
f 259/210/291 271/222/291 265/216/291
f 258/231/292 264/215/292 260/234/292
f 269/220/293 256/207/293 254/235/293
f 262/236/294 257/433/294 268/219/294
f 263/214/295 276/227/295 272/239/295
f 275/226/296 270/221/296 266/217/296
f 283/210/574 277/337/574 279/206/574
f 278/230/306 280/228/306 282/231/306
f 286/213/307 288/215/307 282/231/307
f 285/233/308 284/234/308 288/215/308
f 283/210/575 285/212/575 296/223/575
f 298/225/310 300/227/310 287/214/310
f 297/224/311 296/223/311 300/227/311
f 289/216/312 295/222/312 297/224/312
f 292/219/313 294/221/313 299/226/313
f 293/220/576 291/218/576 290/217/576
f 289/216/577 291/218/577 278/205/577
f 281/208/316 280/207/316 293/220/316
f 295/222/317 289/216/317 277/337/317
f 279/229/318 282/231/318 288/215/318
f 293/220/319 280/207/319 278/235/319
f 286/236/320 281/433/320 292/219/320
f 285/233/321 287/214/321 300/227/321
f 299/226/322 294/221/322 290/217/322
f 307/210/578 301/237/578 303/206/578
f 304/228/579 306/231/579 303/229/579
f 310/213/580 312/238/580 306/231/580
f 311/214/581 309/233/581 308/234/581
f 307/210/335 309/212/335 320/239/335
f 310/213/582 322/225/582 324/240/582
f 321/224/337 320/239/337 324/240/337
f 313/216/583 319/222/583 321/224/583
f 316/219/584 318/221/584 323/226/584
f 315/218/585 314/217/585 318/221/585
f 301/237/586 313/216/586 315/218/586
f 316/219/342 305/208/342 304/207/342
f 319/222/343 313/216/343 301/237/343
f 306/231/344 312/238/344 308/234/344
f 317/220/345 304/207/345 302/235/345
f 310/236/346 305/433/346 316/219/346
f 311/214/347 324/240/347 320/239/347
f 323/226/348 318/221/348 314/217/348
f 391/210/592 385/204/592 387/206/592
f 386/230/593 388/228/593 390/231/593
f 394/213/594 396/215/594 390/231/594
f 393/233/424 392/234/424 396/215/424
f 403/222/595 391/210/595 393/212/595
f 406/225/596 408/227/596 395/214/596
f 405/224/427 404/239/427 408/227/427
f 403/222/597 405/224/597 398/217/597
f 400/219/598 402/221/598 407/226/598
f 399/218/430 398/217/430 402/221/430
f 385/204/599 397/216/599 399/218/599
f 400/219/600 389/208/600 388/207/600
f 403/222/433 397/216/433 385/204/433
f 390/231/434 396/215/434 392/234/434
f 399/218/435 401/220/435 388/207/435
f 394/236/436 389/433/436 400/219/436
f 395/214/437 408/227/437 404/239/437
f 407/226/438 402/221/438 398/217/438
f 409/337/601 411/206/601 416/211/601
f 410/230/602 412/228/602 414/231/602
f 418/213/603 420/215/603 414/231/603
f 419/214/450 417/233/450 416/234/450
f 415/210/604 417/212/604 428/223/604
f 430/225/605 432/227/605 419/214/605
f 431/226/606 429/224/606 428/223/606
f 427/222/607 429/224/607 422/217/607
f 430/225/608 424/219/608 426/221/608
f 423/218/456 422/217/456 426/221/456
f 409/337/609 421/216/609 423/218/609
f 424/219/610 413/208/610 412/207/610
f 415/210/459 427/222/459 421/216/459
f 414/231/460 420/215/460 416/234/460
f 425/220/461 412/207/461 410/235/461
f 430/225/462 418/236/462 413/433/462
f 417/233/463 419/214/463 432/227/463
f 429/224/464 431/226/464 426/221/464
f 439/210/611 433/237/611 435/206/611
f 436/228/474 438/231/474 435/229/474
f 437/232/612 442/213/612 444/238/612
f 443/214/613 441/233/613 440/234/613
f 451/222/614 439/210/614 441/212/614
f 454/225/615 456/240/615 443/214/615
f 453/224/479 452/239/479 456/240/479
f 445/216/480 451/222/480 453/224/480
f 448/219/616 450/221/616 455/226/616
f 447/218/482 446/217/482 450/221/482
f 433/237/617 445/216/617 447/218/617
f 448/219/618 437/208/618 436/207/618
f 439/210/619 451/222/619 445/216/619
f 438/231/486 444/238/486 440/234/486
f 449/220/487 436/207/487 434/235/487
f 442/236/620 437/433/620 448/219/620
f 441/233/489 443/214/489 456/240/489
f 455/226/490 450/221/490 446/217/490
f 457/237/621 459/206/621 464/211/621
f 458/230/622 460/228/622 462/231/622
f 461/232/623 466/213/623 468/238/623
f 467/214/502 465/233/502 464/234/502
f 475/222/503 463/241/503 465/212/503
f 466/213/624 478/225/624 480/240/624
f 479/226/505 477/224/505 476/239/505
f 469/216/506 475/222/506 477/224/506
f 472/219/625 474/221/625 479/226/625
f 471/218/508 470/217/508 474/221/508
f 469/216/626 471/218/626 458/205/626
f 461/208/627 460/207/627 473/220/627
f 475/222/511 469/216/511 457/237/511
f 462/231/512 468/238/512 464/234/512
f 473/220/513 460/207/513 458/235/513
f 478/225/514 466/236/514 461/433/514
f 467/214/515 480/240/515 476/239/515
f 479/226/516 474/221/516 470/217/516
f 487/241/628 481/337/628 483/206/628
f 484/228/526 486/231/526 483/229/526
f 490/213/629 492/215/629 486/231/629
f 489/233/528 488/234/528 492/215/528
f 487/241/630 489/212/630 500/239/630
f 502/225/530 504/227/530 491/214/530
f 503/226/531 501/224/531 500/239/531
f 499/222/631 501/224/631 494/217/631
f 496/219/632 498/221/632 503/226/632
f 497/220/633 495/218/633 494/217/633
f 481/337/634 493/216/634 495/218/634
f 485/208/536 484/207/536 497/220/536
f 499/222/537 493/216/537 481/337/537
f 486/231/538 492/215/538 488/234/538
f 495/218/539 497/220/539 484/207/539
f 490/236/540 485/433/540 496/219/540
f 491/214/541 504/227/541 500/239/541
f 503/226/542 498/221/542 494/217/542
