# Blender 4.5.10 LTS
# www.blender.org
mtllib bush_crown.mtl
o bush_crown
v 0.000588 0.000333 0.020572
v 0.005543 0.006386 0.023939
v -0.004165 0.006386 0.024217
v 0.000470 0.065274 0.016444
v -0.004262 0.059347 0.020850
v 0.005446 0.059347 0.020572
v -0.019386 0.000103 0.006917
v -0.021152 0.006190 0.012604
v -0.024416 0.006041 0.003458
v -0.016516 0.065079 0.004831
v -0.022074 0.059030 0.001758
v -0.018811 0.059180 0.010903
v -0.012570 -0.000269 -0.016298
v -0.018619 0.005725 -0.016283
v -0.010928 0.005632 -0.022213
v -0.010719 0.064763 -0.014909
v -0.009419 0.058667 -0.021081
v -0.017110 0.058759 -0.015151
v 0.011618 -0.000269 -0.016989
v 0.009641 0.005632 -0.022802
v 0.017658 0.005725 -0.017321
v 0.009849 0.064763 -0.015498
v 0.016216 0.058759 -0.016104
v 0.008199 0.058667 -0.021585
v 0.019750 0.000103 0.005798
v 0.024573 0.006041 0.002057
v 0.021838 0.006190 0.011375
v 0.016765 0.065079 0.003880
v 0.019403 0.059180 0.009811
v 0.022139 0.059030 0.000493
v -0.000881 0.060431 0.016505
v 0.003804 0.066554 0.020121
v -0.005896 0.066554 0.019647
v -0.000615 0.125275 0.011061
v -0.005680 0.119436 0.015208
v 0.004021 0.119436 0.015681
v -0.016918 0.059990 0.003620
v -0.019112 0.066190 0.009029
v -0.021659 0.065853 -0.000337
v -0.013831 0.124912 0.000444
v -0.019141 0.118798 -0.002927
v -0.016594 0.119136 0.006439
v -0.009613 0.059275 -0.015603
v -0.015639 0.065265 -0.016178
v -0.007513 0.065056 -0.021492
v -0.007811 0.124323 -0.015396
v -0.006043 0.118104 -0.021324
v -0.014170 0.118312 -0.016010
v 0.010939 0.059275 -0.014599
v 0.009423 0.065056 -0.020665
v 0.016992 0.065265 -0.014584
v 0.009125 0.124323 -0.014569
v 0.015513 0.118312 -0.014560
v 0.007944 0.118104 -0.020641
v 0.016336 0.059990 0.005245
v 0.021440 0.065853 0.001769
v 0.017992 0.066190 0.010842
v 0.013572 0.124912 0.001783
v 0.015738 0.119136 0.008018
v 0.019186 0.118798 -0.001055
v 0.021580 0.119875 -0.041678
v 0.021486 0.119900 -0.042138
v 0.022311 0.119797 -0.041837
v 0.022694 0.127684 -0.042785
v 0.022804 0.127753 -0.042332
v 0.023519 0.127581 -0.042484
v 0.038354 0.123510 0.033450
v 0.039085 0.123432 0.033291
v 0.038464 0.123579 0.033903
v 0.039578 0.131388 0.032796
v 0.039672 0.131363 0.033256
v 0.040293 0.131216 0.032645
v -0.097470 0.140485 -0.016095
v -0.098186 0.140657 -0.015943
v -0.097564 0.140510 -0.016555
v -0.096247 0.148364 -0.016749
v -0.096356 0.148294 -0.017201
v -0.096977 0.148441 -0.016590
v -0.080696 0.144120 0.059034
v -0.080587 0.144189 0.059486
v -0.081411 0.144292 0.059185
v -0.079472 0.151999 0.058379
v -0.080203 0.152076 0.058539
v -0.079378 0.151973 0.058839
v -0.014113 0.121536 -0.043933
v -0.014508 0.121607 -0.044179
v -0.013747 0.121391 -0.044574
v -0.013151 0.129239 -0.045722
v -0.012739 0.129261 -0.045495
v -0.012390 0.129024 -0.046117
v 0.052344 0.117563 -0.005120
v 0.052710 0.117419 -0.005760
v 0.052756 0.117586 -0.004893
v 0.053718 0.125288 -0.006681
v 0.054114 0.125218 -0.006436
v 0.054067 0.125051 -0.007303
v -0.072932 0.153011 0.059999
v -0.073281 0.153249 0.060620
v -0.073327 0.153082 0.059754
v -0.071558 0.160736 0.058437
v -0.071970 0.160714 0.058211
v -0.071924 0.160881 0.059077
v -0.006475 0.149038 0.098813
v -0.006063 0.149060 0.099039
v -0.006824 0.149276 0.099434
v -0.005101 0.156763 0.097251
v -0.005466 0.156908 0.097891
v -0.004706 0.156693 0.097496
v -0.045702 0.116797 -0.005204
v -0.046129 0.116862 -0.005018
v -0.046016 0.116703 -0.005880
v -0.046491 0.124618 -0.006496
v -0.046068 0.124647 -0.006700
v -0.046378 0.124459 -0.007359
v 0.024287 0.113937 -0.037334
v 0.023972 0.113843 -0.038010
v 0.024709 0.113967 -0.037538
v 0.023920 0.121787 -0.038831
v 0.024347 0.121723 -0.039017
v 0.023610 0.121599 -0.039489
v 0.005682 0.140141 0.104646
v 0.005992 0.140329 0.105305
v 0.005255 0.140205 0.104833
v 0.005316 0.147991 0.103150
v 0.004893 0.147961 0.103354
v 0.005630 0.148085 0.103826
v 0.075670 0.137281 0.072516
v 0.076093 0.137310 0.072312
v 0.075980 0.137470 0.073175
v 0.075304 0.145131 0.071020
v 0.075618 0.145225 0.071696
v 0.075731 0.145066 0.070833
v -0.036240 0.121153 0.033578
v -0.036336 0.121199 0.034036
v -0.036975 0.121090 0.033436
v -0.037476 0.129018 0.033833
v -0.037394 0.129066 0.033372
v -0.038116 0.128909 0.033233
v -0.021661 0.121311 -0.042094
v -0.022396 0.121248 -0.042236
v -0.021579 0.121359 -0.042555
v -0.022815 0.129224 -0.042300
v -0.022720 0.129178 -0.042759
v -0.023537 0.129067 -0.042440
v 0.083713 0.139253 0.056726
v 0.084435 0.139410 0.056865
v 0.083618 0.139299 0.057184
v 0.082559 0.147166 0.056520
v 0.082477 0.147118 0.056981
v 0.083294 0.147229 0.056662
v 0.098292 0.139411 -0.018946
v 0.098374 0.139459 -0.019407
v 0.099014 0.139568 -0.018807
v 0.097138 0.147324 -0.019152
v 0.097873 0.147387 -0.019010
v 0.097233 0.147278 -0.019610
v 0.009969 0.111563 0.038830
v 0.010252 0.111638 0.039198
v 0.009395 0.111447 0.039302
v 0.008627 0.119338 0.039926
v 0.008324 0.119358 0.039567
v 0.007770 0.119148 0.040030
v -0.038327 0.107033 -0.021052
v -0.038900 0.106917 -0.020581
v -0.038630 0.107053 -0.021411
v -0.039972 0.114828 -0.020315
v -0.040255 0.114753 -0.020683
v -0.040525 0.114618 -0.019853
v 0.102798 0.138423 -0.038069
v 0.103352 0.138633 -0.038532
v 0.103082 0.138497 -0.037701
v 0.101153 0.146217 -0.037332
v 0.101456 0.146198 -0.036973
v 0.101727 0.146333 -0.037804
v 0.054503 0.133893 -0.097952
v 0.054199 0.133912 -0.098311
v 0.055056 0.134103 -0.098414
v 0.052858 0.141687 -0.097215
v 0.053431 0.141804 -0.097686
v 0.052574 0.141613 -0.097583
v 0.026863 0.108013 0.021898
v 0.027330 0.108036 0.021951
v 0.026792 0.107863 0.022631
v 0.027526 0.115655 0.024046
v 0.027062 0.115724 0.024019
v 0.026989 0.115482 0.024726
v -0.049822 0.111813 0.015274
v -0.049893 0.111663 0.016007
v -0.050286 0.111882 0.015247
v -0.049623 0.119524 0.017395
v -0.050090 0.119501 0.017342
v -0.049696 0.119281 0.018102
v 0.038709 0.140322 -0.096711
v 0.038782 0.140565 -0.097418
v 0.039176 0.140346 -0.096658
v 0.038908 0.148034 -0.094590
v 0.039372 0.147964 -0.094563
v 0.038979 0.148184 -0.095323
v -0.037976 0.144122 -0.103334
v -0.038440 0.144192 -0.103362
v -0.037903 0.144365 -0.104042
v -0.037777 0.151834 -0.101214
v -0.037706 0.151983 -0.101947
v -0.038244 0.151810 -0.101267
v 0.042589 0.121509 -0.011126
v 0.042899 0.121571 -0.011475
v 0.043156 0.121356 -0.010657
v 0.044345 0.129186 -0.009925
v 0.044053 0.129216 -0.009557
v 0.044602 0.128970 -0.009107
v -0.006974 0.118919 0.047828
v -0.006408 0.118765 0.048298
v -0.007266 0.118949 0.048196
v -0.005510 0.126625 0.049397
v -0.005820 0.126563 0.049746
v -0.004962 0.126380 0.049848
v -0.049242 0.154372 -0.086885
v -0.049791 0.154618 -0.087336
v -0.048932 0.154434 -0.087234
v -0.047778 0.162079 -0.085316
v -0.047486 0.162048 -0.085683
v -0.048345 0.162232 -0.085785
v -0.098805 0.151781 -0.027930
v -0.099097 0.151812 -0.027563
v -0.099354 0.152027 -0.028381
v -0.097341 0.159488 -0.026361
v -0.097908 0.159642 -0.026831
v -0.097651 0.159426 -0.026013
v -0.013034 0.163492 -0.038842
v -0.013260 0.163559 -0.039194
v -0.012575 0.163299 -0.039181
v -0.010482 0.170810 -0.040669
v -0.010223 0.170831 -0.040336
v -0.009797 0.170550 -0.040656
v 0.026896 0.159657 0.017495
v 0.027355 0.159464 0.017157
v 0.027155 0.159677 0.017829
v 0.029708 0.166996 0.016002
v 0.029933 0.166929 0.016353
v 0.030133 0.166715 0.015682
v -0.085847 0.202426 0.015415
v -0.086272 0.202707 0.015736
v -0.086073 0.202494 0.015064
v -0.083035 0.209766 0.013922
v -0.083295 0.209745 0.013589
v -0.083494 0.209958 0.014260
v -0.045916 0.198591 0.071753
v -0.045657 0.198612 0.072086
v -0.046342 0.198872 0.072073
v -0.043105 0.205931 0.070260
v -0.043564 0.206123 0.070598
v -0.042879 0.205863 0.070611
v 0.009917 0.154136 0.041958
v 0.010095 0.154182 0.042312
v 0.009461 0.153915 0.042224
v 0.006896 0.161188 0.044088
v 0.006679 0.161227 0.043756
v 0.006262 0.160921 0.044000
v -0.022704 0.153558 -0.014501
v -0.023159 0.153336 -0.014236
v -0.022921 0.153597 -0.014833
v -0.025942 0.160649 -0.012703
v -0.026120 0.160603 -0.013057
v -0.026359 0.160342 -0.012459
v 0.081763 0.197583 0.000003
v 0.082179 0.197889 -0.000241
v 0.081941 0.197629 0.000357
v 0.078524 0.204674 0.001801
v 0.078742 0.204635 0.002133
v 0.078980 0.204895 0.001536
v 0.049142 0.197005 -0.056456
v 0.048925 0.197044 -0.056788
v 0.049559 0.197311 -0.056700
v 0.045904 0.204096 -0.054658
v 0.046360 0.204317 -0.054924
v 0.045725 0.204050 -0.055012
vn 0.0247 -0.5013 0.8649
vn 0.0232 0.5844 0.8111
vn -0.8070 -0.5109 0.2963
vn -0.7733 0.5752 0.2666
vn -0.5231 -0.5264 -0.6703
vn -0.5015 0.5604 -0.6591
vn 0.4840 -0.5264 -0.6991
vn 0.4630 0.5604 -0.6867
vn 0.8226 -0.5109 0.2497
vn 0.7873 0.5752 0.2220
vn -0.4064 -0.6839 0.6059
vn -0.3917 0.7295 0.5607
vn 0.0285 0.0635 0.9976
vn -0.9408 0.0523 0.3349
vn -0.6910 -0.6969 -0.1917
vn -0.6657 0.7170 -0.2070
vn -0.6100 0.0343 -0.7917
vn -0.0203 -0.7050 -0.7089
vn -0.0202 0.7092 -0.7047
vn 0.5638 0.0343 -0.8252
vn 0.6789 -0.6969 -0.2309
vn 0.6528 0.7170 -0.2447
vn 0.9584 0.0523 0.2806
vn 0.4403 -0.6839 0.5817
vn 0.4231 0.7295 0.5374
vn 0.0005 -0.9999 0.0162
vn -0.5640 0.0514 0.8242
vn 0.6102 0.0514 0.7906
vn -0.0005 0.9999 -0.0162
vn -0.9588 0.0333 -0.2821
vn -0.0286 0.0221 -0.9993
vn 0.9411 0.0333 -0.3364
vn -0.0427 -0.4836 0.8742
vn -0.0390 0.6008 0.7985
vn -0.8280 -0.5052 0.2434
vn -0.7911 0.5801 0.1943
vn -0.4703 -0.5402 -0.6979
vn -0.4485 0.5466 -0.7072
vn 0.5361 -0.5402 -0.6487
vn 0.5153 0.5466 -0.6601
vn 0.8003 -0.5052 0.3229
vn 0.7684 0.5801 0.2704
vn -0.4527 -0.6717 0.5864
vn -0.4332 0.7405 0.5138
vn -0.0486 0.0838 0.9953
vn -0.9638 0.0586 0.2600
vn -0.6748 -0.7011 -0.2304
vn -0.6470 0.7122 -0.2723
vn -0.5469 0.0178 -0.8370
vn 0.0339 -0.7193 -0.6939
vn 0.0351 0.6947 -0.7184
vn 0.6259 0.0178 -0.7797
vn 0.6941 -0.7011 -0.1635
vn 0.6704 0.7122 -0.2080
vn 0.9339 0.0586 0.3527
vn 0.3934 -0.6717 0.6278
vn 0.3810 0.7405 0.5536
vn -0.0018 -0.9993 0.0364
vn -0.6260 0.0678 0.7769
vn 0.5473 0.0678 0.8342
vn 0.0018 0.9993 -0.0364
vn -0.9341 0.0270 -0.3560
vn 0.0488 0.0018 -0.9988
vn 0.9644 0.0270 -0.2632
vn -0.1127 -0.9931 -0.0312
vn 0.1909 0.9623 -0.1936
vn -0.0684 -0.9835 0.1673
vn 0.2352 0.9719 0.0049
vn -0.2352 -0.9719 -0.0049
vn 0.0684 0.9835 -0.1673
vn -0.1909 -0.9623 0.1936
vn 0.1127 0.9931 0.0312
vn -0.0910 -0.9935 0.0684
vn 0.3257 -0.1284 -0.9367
vn 0.2142 0.9722 -0.0949
vn 0.6950 -0.0483 0.7174
vn -0.1299 -0.9749 0.1808
vn 0.1743 0.9845 0.0181
vn -0.3257 0.1284 0.9367
vn -0.2142 -0.9722 0.0949
vn 0.0910 0.9935 -0.0684
vn -0.6950 0.0483 -0.7174
vn -0.1743 -0.9845 -0.0181
vn 0.1299 0.9749 -0.1808
vn -0.1529 -0.9848 0.0818
vn 0.9640 -0.1669 -0.2072
vn -0.2177 -0.0472 -0.9749
vn 0.1529 0.9848 -0.0818
vn 0.2177 0.0472 0.9749
vn -0.9640 0.1669 0.2072
vn -0.2281 -0.9696 0.0891
vn 0.1129 0.9477 -0.2986
vn -0.0524 -0.9801 0.1916
vn 0.2886 0.9372 -0.1960
vn -0.2885 -0.9372 0.1960
vn 0.0524 0.9801 -0.1917
vn -0.1130 -0.9477 0.2986
vn 0.2280 0.9696 -0.0891
vn -0.1410 -0.9799 0.1411
vn -0.4795 -0.0912 -0.8728
vn 0.2018 0.9474 -0.2486
vn 0.9837 -0.1787 -0.0182
vn -0.0828 -0.9658 0.2456
vn 0.2588 0.9553 -0.1428
vn 0.4795 0.0912 0.8728
vn -0.2018 -0.9474 0.2486
vn 0.1410 0.9799 -0.1411
vn -0.9837 0.1787 0.0182
vn -0.2588 -0.9553 0.1428
vn 0.0828 0.9658 -0.2456
vn -0.1717 -0.9656 0.1952
vn 0.4763 -0.2549 -0.8416
vn -0.8624 0.0516 -0.5037
vn 0.1717 0.9656 -0.1952
vn 0.8624 -0.0516 0.5037
vn -0.4763 0.2549 0.8416
vn -0.0734 -0.9824 0.1717
vn -0.1643 0.9660 -0.1998
vn 0.1115 -0.9900 0.0868
vn 0.0206 0.9584 -0.2847
vn -0.0206 -0.9584 0.2847
vn -0.1115 0.9900 -0.0868
vn 0.1644 -0.9659 0.1998
vn 0.0733 0.9824 -0.1717
vn 0.0191 -0.9913 0.1299
vn -0.9907 -0.0686 -0.1172
vn -0.0722 0.9672 -0.2435
vn 0.5502 -0.1315 -0.8246
vn 0.1382 -0.9799 0.1436
vn 0.0471 0.9724 -0.2287
vn 0.9907 0.0686 0.1172
vn 0.0723 -0.9672 0.2435
vn -0.0191 0.9913 -0.1299
vn -0.5502 0.1315 0.8246
vn -0.0470 -0.9724 0.2287
vn -0.1382 0.9799 -0.1436
vn 0.0458 -0.9813 0.1871
vn -0.4161 -0.1890 -0.8895
vn -0.9082 0.0371 0.4169
vn -0.0458 0.9813 -0.1871
vn 0.9082 -0.0371 -0.4169
vn 0.4161 0.1890 0.8895
vn 0.0622 -0.9916 0.1136
vn -0.2242 0.9725 0.0625
vn 0.1008 -0.9912 -0.0863
vn -0.1857 0.9730 -0.1374
vn 0.1857 -0.9729 0.1374
vn -0.1008 0.9912 0.0863
vn 0.2242 -0.9725 -0.0625
vn -0.0623 0.9916 -0.1136
vn 0.0820 -0.9965 0.0137
vn -0.6747 -0.0793 0.7338
vn -0.2060 0.9778 -0.0377
vn -0.3537 -0.0758 -0.9323
vn 0.1629 -0.9838 -0.0746
vn -0.1242 0.9842 -0.1258
vn 0.6747 0.0793 -0.7338
vn 0.2060 -0.9778 0.0376
vn -0.0819 0.9965 -0.0137
vn 0.3537 0.0758 0.9323
vn 0.1242 -0.9842 0.1258
vn -0.1629 0.9838 0.0746
vn 0.1443 -0.9892 0.0257
vn -0.9713 -0.1466 -0.1874
vn -0.1892 -0.0021 0.9819
vn -0.1443 0.9892 -0.0257
vn 0.1892 0.0021 -0.9819
vn 0.9713 0.1466 0.1874
vn 0.2202 -0.9751 0.0273
vn -0.1881 0.9594 0.2101
vn 0.0925 -0.9871 -0.1310
vn -0.3157 0.9474 0.0519
vn 0.3156 -0.9475 -0.0519
vn -0.0925 0.9871 0.1310
vn 0.1881 -0.9594 -0.2102
vn -0.2201 0.9751 -0.0272
vn 0.1572 -0.9862 -0.0521
vn 0.1338 -0.0653 0.9889
vn -0.2532 0.9584 0.1317
vn -0.9296 -0.1650 -0.3296
vn 0.1406 -0.9752 -0.1709
vn -0.2685 0.9632 0.0124
vn -0.1338 0.0653 -0.9889
vn 0.2532 -0.9584 -0.1317
vn -0.1572 0.9862 0.0522
vn 0.9296 0.1650 0.3296
vn 0.2685 -0.9632 -0.0123
vn -0.1406 0.9752 0.1709
vn 0.2056 -0.9743 -0.0921
vn -0.7517 -0.2175 0.6227
vn 0.6267 0.0588 0.7770
vn -0.2056 0.9743 0.0921
vn -0.6267 -0.0588 -0.7770
vn 0.7517 0.2175 -0.6227
vn 0.0705 -0.9786 -0.1934
vn 0.1199 0.9353 0.3329
vn -0.1321 -0.9685 -0.2109
vn -0.0827 0.9453 0.3154
vn 0.0827 -0.9453 -0.3154
vn 0.1322 0.9685 0.2109
vn -0.1199 -0.9353 -0.3329
vn -0.0706 0.9786 0.1934
vn -0.0309 -0.9787 -0.2032
vn 0.7934 -0.1803 0.5813
vn 0.0187 0.9452 0.3259
vn -0.8950 -0.0967 0.4355
vn -0.1262 -0.9539 -0.2725
vn -0.0768 0.9639 0.2549
vn -0.7934 0.1803 -0.5814
vn -0.0187 -0.9452 -0.3258
vn 0.0309 0.9787 0.2032
vn 0.8950 0.0967 -0.4355
vn 0.0768 -0.9639 -0.2549
vn 0.1262 0.9539 0.2724
vn -0.0249 -0.9639 -0.2651
vn -0.0959 -0.2616 0.9604
vn 0.9951 -0.0493 0.0860
vn 0.0249 0.9639 0.2651
vn -0.9951 0.0493 -0.0860
vn 0.0959 0.2616 -0.9604
vn -0.0689 -0.9699 -0.2336
vn 0.2944 0.9429 0.1558
vn -0.1999 -0.9767 -0.0779
vn 0.1634 0.9361 0.3116
vn -0.1634 -0.9361 -0.3116
vn 0.1999 0.9767 0.0779
vn -0.2944 -0.9429 -0.1558
vn 0.0689 0.9699 0.2336
vn -0.1351 -0.9784 -0.1566
vn 0.9393 -0.1123 -0.3243
vn 0.2301 0.9444 0.2349
vn -0.1520 -0.1694 0.9738
vn -0.2476 -0.9618 -0.1170
vn 0.1163 0.9549 0.2732
vn -0.9393 0.1123 0.3243
vn -0.2301 -0.9444 -0.2349
vn 0.1351 0.9784 0.1566
vn 0.1520 0.1694 -0.9738
vn -0.1164 -0.9549 -0.2732
vn 0.2476 0.9618 0.1171
vn -0.1829 -0.9634 -0.1961
vn 0.7436 -0.2661 0.6134
vn 0.6431 0.0336 -0.7650
vn 0.1829 0.9634 0.1961
vn -0.6431 -0.0336 0.7650
vn -0.7436 0.2661 -0.6134
vn -0.3550 -0.9336 0.0492
vn 0.3412 0.8837 -0.3205
vn -0.2244 -0.9461 0.2336
vn 0.4718 0.8711 -0.1362
vn -0.4718 -0.8711 0.1362
vn 0.2243 0.9461 -0.2336
vn -0.3411 -0.8837 0.3206
vn 0.3551 0.9336 -0.0491
vn -0.2916 -0.9459 0.1423
vn -0.0504 -0.1806 -0.9823
vn 0.4091 0.8831 -0.2299
vn 0.8956 -0.2714 0.3524
vn -0.2836 -0.9178 0.2780
vn 0.4147 0.9052 -0.0930
vn 0.0504 0.1806 0.9823
vn -0.4091 -0.8830 0.2298
vn 0.2915 0.9459 -0.1423
vn -0.8956 0.2714 -0.3524
vn -0.4147 -0.9052 0.0930
vn 0.2836 0.9178 -0.2779
vn -0.3515 -0.9174 0.1867
vn 0.7370 -0.3941 -0.5492
vn -0.5774 0.0555 -0.8146
vn 0.3515 0.9174 -0.1867
vn 0.5774 -0.0555 0.8146
vn -0.7370 0.3941 0.5492
vn 0.3966 -0.9144 -0.0813
vn -0.4042 0.8394 0.3635
vn 0.2766 -0.9165 -0.2889
vn -0.5242 0.8372 0.1558
vn 0.5242 -0.8372 -0.1558
vn -0.2768 0.9165 0.2889
vn 0.4042 -0.8394 -0.3635
vn -0.3966 0.9144 0.0813
vn 0.3391 -0.9221 -0.1865
vn -0.0259 -0.2568 0.9661
vn -0.4676 0.8444 0.2615
vn -0.8476 -0.2714 -0.4560
vn 0.3416 -0.8810 -0.3274
vn -0.4620 0.8789 0.1190
vn 0.0259 0.2568 -0.9661
vn 0.4675 -0.8444 -0.2615
vn -0.3391 0.9221 0.1865
vn 0.8476 0.2714 0.4561
vn 0.4620 -0.8789 -0.1189
vn -0.3416 0.8810 0.3273
vn 0.4048 -0.8864 -0.2248
vn -0.7655 -0.4629 0.4470
vn 0.5003 0.0089 0.8658
vn -0.4048 0.8864 0.2248
vn -0.5003 -0.0089 -0.8658
vn 0.7655 0.4629 -0.4470
vn 0.2018 0.9473 -0.2486
vn -0.0829 -0.9658 0.2456
vn -0.0723 0.9672 -0.2435
vn 0.1383 -0.9799 0.1436
vn -0.0471 -0.9724 0.2287
vn -0.2060 0.9778 -0.0376
vn 0.1628 -0.9838 -0.0746
vn -0.1243 0.9842 -0.1258
vn -0.0820 0.9965 -0.0137
vn -0.1628 0.9838 0.0746
vn -0.2684 0.9632 0.0124
vn -0.1263 -0.9538 -0.2724
vn -0.7934 0.1803 -0.5813
vn -0.0187 -0.9452 -0.3259
vn 0.1263 0.9538 0.2724
vn -0.2476 -0.9618 -0.1171
vn -0.1163 -0.9549 -0.2732
vn 0.2476 0.9618 0.1170
vn 0.4091 0.8830 -0.2298
vn 0.4148 0.9052 -0.0929
vn -0.4091 -0.8830 0.2299
vn 0.2916 0.9459 -0.1423
vn -0.4675 0.8444 0.2615
vn 0.3416 -0.8810 -0.3273
vn -0.4620 0.8789 0.1189
vn 0.4676 -0.8444 -0.2615
vn 0.8476 0.2714 0.4560
vt 0.750000 0.426431
vt 0.707398 0.458672
vt 0.792602 0.458672
vt 0.250000 0.418574
vt 0.295466 0.456967
vt 0.204534 0.456967
vt 0.917796 0.304520
vt 0.935294 0.355000
vt 0.961624 0.273966
vt 0.410323 0.302092
vt 0.460887 0.270716
vt 0.432788 0.357197
vt 0.853703 0.107265
vt 0.907120 0.106222
vt 0.838189 0.056140
vt 0.349085 0.113621
vt 0.334869 0.055836
vt 0.408435 0.109284
vt 0.646297 0.107264
vt 0.661811 0.056140
vt 0.592880 0.106222
vt 0.150915 0.113621
vt 0.091565 0.109284
vt 0.165131 0.055836
vt 0.582204 0.304520
vt 0.538376 0.273966
vt 0.564706 0.355000
vt 0.089677 0.302092
vt 0.067212 0.357197
vt 0.039113 0.270716
vt 0.040274 0.953880
vt 0.000000 0.547403
vt 0.037068 0.546120
vt 0.762932 0.546120
vt 0.840274 0.953880
vt 0.759726 0.953880
vt 0.559726 0.953880
vt 0.637068 0.546120
vt 0.640274 0.953880
vt 0.362932 0.546120
vt 0.440274 0.953880
vt 0.359726 0.953880
vt 0.162932 0.546120
vt 0.240274 0.953880
vt 0.159726 0.953880
vt 0.962932 0.546120
vt 0.837068 0.546120
vt 0.437068 0.546120
vt 0.562932 0.546120
vt 0.237068 0.546120
vt 0.750000 0.418574
vt 0.702164 0.454756
vt 0.797836 0.454756
vt 0.250000 0.408501
vt 0.301878 0.452309
vt 0.198122 0.452309
vt 0.910323 0.302092
vt 0.929953 0.358768
vt 0.959517 0.267779
vt 0.400743 0.298980
vt 0.458438 0.263178
vt 0.426376 0.361856
vt 0.849085 0.113621
vt 0.909053 0.112466
vt 0.831653 0.056231
vt 0.343165 0.121770
vt 0.326944 0.055836
vt 0.410884 0.116822
vt 0.650915 0.113621
vt 0.668347 0.056231
vt 0.590947 0.112466
vt 0.156835 0.121770
vt 0.089116 0.116822
vt 0.173056 0.055836
vt 0.589677 0.302092
vt 0.540483 0.267779
vt 0.570047 0.358768
vt 0.099257 0.298980
vt 0.073624 0.361856
vt 0.041562 0.263178
vt 0.041686 0.546120
vt 0.000000 0.955163
vt 0.000000 0.547403
vt 0.758314 0.546120
vt 0.845906 0.953880
vt 0.754094 0.953880
vt 0.558314 0.546120
vt 0.645906 0.953880
vt 0.554094 0.953880
vt 0.354094 0.953880
vt 0.441686 0.546120
vt 0.445906 0.953880
vt 0.158314 0.546120
vt 0.245906 0.953880
vt 0.154094 0.953880
vt 0.954094 0.953880
vt 0.841686 0.546120
vt 0.958314 0.546120
vt 0.641686 0.546120
vt 0.358314 0.546120
vt 0.241686 0.546120
vt 0.126500 0.748500
vt 0.126500 0.750000
vt 0.125000 0.748500
vt 0.623500 0.998500
vt 0.625000 0.998500
vt 0.623500 1.000000
vt 0.126500 0.501500
vt 0.125000 0.501500
vt 0.126500 0.500000
vt 0.625000 0.250003
vt 0.623500 0.251500
vt 0.623500 0.248500
vt 0.373500 0.748500
vt 0.376500 0.748500
vt 0.376475 0.751487
vt 0.626487 0.748525
vt 0.623500 0.751500
vt 0.623500 0.748500
vt 0.373500 0.501500
vt 0.376475 0.498513
vt 0.376500 0.501500
vt 0.626487 0.501475
vt 0.623500 0.501500
vt 0.623500 0.498500
vt 0.623500 0.000000
vt 0.376500 0.001500
vt 0.376500 0.000000
vt 0.623500 0.001500
vt 0.625000 0.001500
vt 0.376500 0.251500
vt 0.376500 0.248500
vt 0.376500 0.998500
vt 0.873500 0.501500
vt 0.126500 0.748500
vt 0.873500 0.748500
vt 0.376475 0.498513
vt 0.623500 0.498500
vt 0.623500 0.248500
vt 0.376500 0.748500
vt 0.126500 0.748500
vt 0.959726 0.953880
vt 0.045906 0.953880
s 0
usemtl bark
f 1/1/1 2/2/1 3/3/1
f 4/4/2 5/5/2 6/6/2
f 7/7/3 8/8/3 9/9/3
f 10/10/4 11/11/4 12/12/4
f 13/13/5 14/14/5 15/15/5
f 16/16/6 17/17/6 18/18/6
f 19/19/7 20/20/7 21/21/7
f 22/22/8 23/23/8 24/24/8
f 25/25/9 26/26/9 27/27/9
f 28/28/10 29/29/10 30/30/10
f 8/8/11 1/1/11 3/3/11
f 5/5/12 10/10/12 12/12/12
f 6/31/13 3/32/13 2/33/13
f 9/34/14 12/35/14 11/36/14
f 14/14/15 7/7/15 9/9/15
f 11/11/16 16/16/16 18/18/16
f 17/37/17 14/38/17 18/39/17
f 20/20/18 13/13/18 15/15/18
f 17/17/19 22/22/19 24/24/19
f 21/40/20 24/41/20 23/42/20
f 26/26/21 19/19/21 21/21/21
f 23/23/22 28/28/22 30/30/22
f 27/43/23 30/44/23 29/45/23
f 2/2/24 25/25/24 27/27/24
f 6/6/25 28/28/25 4/4/25
f 7/7/26 19/19/26 25/25/26
f 3/46/27 12/35/27 8/47/27
f 29/45/28 2/33/28 27/43/28
f 4/4/29 22/22/29 16/16/29
f 11/36/30 14/38/30 9/34/30
f 17/37/31 20/48/31 15/49/31
f 23/42/32 26/50/32 21/40/32
f 31/51/33 32/52/33 33/53/33
f 34/54/34 35/55/34 36/56/34
f 37/57/35 38/58/35 39/59/35
f 40/60/36 41/61/36 42/62/36
f 43/63/37 44/64/37 45/65/37
f 46/66/38 47/67/38 48/68/38
f 49/69/39 50/70/39 51/71/39
f 52/72/40 53/73/40 54/74/40
f 55/75/41 56/76/41 57/77/41
f 58/78/42 59/79/42 60/80/42
f 38/58/43 31/51/43 33/53/43
f 42/62/44 34/54/44 40/60/44
f 32/81/45 35/82/45 33/83/45
f 39/84/46 42/85/46 41/86/46
f 39/59/47 43/63/47 37/57/47
f 48/68/48 40/60/48 46/66/48
f 45/87/49 48/88/49 47/89/49
f 50/70/50 43/63/50 45/65/50
f 47/67/51 52/72/51 54/74/51
f 53/90/52 50/91/52 54/92/52
f 51/71/53 55/75/53 49/69/53
f 53/73/54 58/78/54 60/80/54
f 57/93/55 60/94/55 59/95/55
f 32/52/56 55/75/56 57/77/56
f 36/56/57 58/78/57 34/54/57
f 37/57/58 49/69/58 55/75/58
f 35/96/59 38/97/59 33/98/59
f 59/95/60 32/81/60 57/93/60
f 34/54/61 52/72/61 46/66/61
f 41/86/62 44/99/62 39/84/62
f 47/89/63 50/91/63 45/87/63
f 51/100/64 60/94/64 56/101/64
f 8/8/11 7/7/11 1/1/11
f 5/5/12 4/4/12 10/10/12
f 6/31/13 5/82/13 3/32/13
f 9/34/14 8/47/14 12/35/14
f 14/14/15 13/13/15 7/7/15
f 11/11/16 10/10/16 16/16/16
f 17/37/17 15/49/17 14/38/17
f 20/20/18 19/19/18 13/13/18
f 17/17/19 16/16/19 22/22/19
f 21/40/20 20/48/20 24/41/20
f 26/26/21 25/25/21 19/19/21
f 23/23/22 22/22/22 28/28/22
f 27/43/23 26/50/23 30/44/23
f 2/2/24 1/1/24 25/25/24
f 6/6/25 29/29/25 28/28/25
f 25/25/26 1/1/26 7/7/26
f 7/7/26 13/13/26 19/19/26
f 3/46/27 5/142/27 12/35/27
f 29/45/28 6/31/28 2/33/28
f 16/16/29 10/10/29 4/4/29
f 4/4/29 28/28/29 22/22/29
f 11/36/30 18/39/30 14/38/30
f 17/37/31 24/41/31 20/48/31
f 23/42/32 30/44/32 26/50/32
f 38/58/43 37/57/43 31/51/43
f 42/62/44 35/55/44 34/54/44
f 32/81/45 36/143/45 35/82/45
f 39/84/46 38/97/46 42/85/46
f 39/59/47 44/64/47 43/63/47
f 48/68/48 41/61/48 40/60/48
f 45/87/49 44/99/49 48/88/49
f 50/70/50 49/69/50 43/63/50
f 47/67/51 46/66/51 52/72/51
f 53/90/52 51/100/52 50/91/52
f 51/71/53 56/76/53 55/75/53
f 53/73/54 52/72/54 58/78/54
f 57/93/55 56/101/55 60/94/55
f 32/52/56 31/51/56 55/75/56
f 36/56/57 59/79/57 58/78/57
f 55/75/58 31/51/58 37/57/58
f 37/57/58 43/63/58 49/69/58
f 35/96/59 42/85/59 38/97/59
f 59/95/60 36/143/60 32/81/60
f 46/66/61 40/60/61 34/54/61
f 34/54/61 58/78/61 52/72/61
f 41/86/62 48/88/62 44/99/62
f 47/89/63 54/92/63 50/91/63
f 51/100/64 53/90/64 60/94/64
usemtl moss
f 61/102/65 62/103/65 63/104/65
f 64/105/66 65/106/66 66/107/66
f 67/108/67 68/109/67 69/110/67
f 70/111/68 71/112/68 72/113/68
f 73/114/69 74/115/69 75/116/69
f 76/117/70 77/118/70 78/119/70
f 79/120/71 80/121/71 81/122/71
f 82/123/72 83/124/72 84/125/72
f 67/108/73 63/104/73 68/109/73
f 64/126/74 63/127/74 62/128/74
f 70/111/75 66/129/75 65/130/75
f 69/131/76 72/113/76 71/112/76
f 79/120/77 69/110/77 80/121/77
f 70/111/78 84/125/78 71/112/78
f 83/124/79 80/121/79 84/125/79
f 73/114/80 81/122/80 74/115/80
f 82/123/81 78/119/81 83/124/81
f 75/116/82 78/119/82 77/118/82
f 61/102/83 75/116/83 62/103/83
f 76/117/84 64/105/84 77/118/84
f 79/120/85 61/102/85 67/108/85
f 63/127/86 72/113/86 68/132/86
f 77/118/87 62/133/87 75/116/87
f 70/134/88 76/117/88 82/123/88
f 71/112/89 80/121/89 69/131/89
f 83/124/90 74/115/90 81/122/90
f 85/102/91 86/103/91 87/104/91
f 88/105/92 89/106/92 90/107/92
f 91/108/93 92/109/93 93/110/93
f 94/111/94 95/112/94 96/113/94
f 97/114/95 98/115/95 99/116/95
f 100/117/96 101/118/96 102/119/96
f 103/120/97 104/121/97 105/122/97
f 106/123/98 107/124/98 108/125/98
f 91/108/99 87/104/99 92/109/99
f 88/126/100 87/127/100 86/128/100
f 89/130/101 96/113/101 90/129/101
f 93/131/102 96/113/102 95/112/102
f 91/108/103 104/121/103 103/120/103
f 94/111/104 108/125/104 95/112/104
f 105/122/105 108/125/105 107/124/105
f 103/120/106 98/115/106 97/114/106
f 106/123/107 102/119/107 107/124/107
f 101/118/108 98/115/108 102/119/108
f 85/102/109 99/116/109 86/103/109
f 100/117/110 88/105/110 101/118/110
f 103/120/111 85/102/111 91/108/111
f 87/127/112 96/113/112 92/132/112
f 101/118/113 86/133/113 99/116/113
f 94/134/114 100/117/114 106/123/114
f 95/112/115 104/121/115 93/131/115
f 107/124/116 98/115/116 105/122/116
f 109/135/117 110/103/117 111/104/117
f 112/105/118 113/106/118 114/107/118
f 115/108/119 116/109/119 117/110/119
f 118/111/120 119/112/120 120/113/120
f 121/114/121 122/115/121 123/116/121
f 124/117/122 125/118/122 126/119/122
f 127/120/123 128/121/123 129/122/123
f 130/123/124 131/124/124 132/125/124
f 115/108/125 111/104/125 116/109/125
f 112/126/126 111/127/126 110/128/126
f 113/130/127 120/113/127 114/129/127
f 117/131/128 120/113/128 119/112/128
f 127/120/129 117/110/129 128/121/129
f 118/111/130 132/125/130 119/112/130
f 131/124/131 128/121/131 132/125/131
f 121/114/132 129/122/132 122/115/132
f 124/117/133 131/124/133 130/123/133
f 123/116/134 126/119/134 125/118/134
f 109/135/135 123/116/135 110/103/135
f 124/117/136 112/105/136 125/118/136
f 127/120/137 109/135/137 115/108/137
f 114/129/138 116/132/138 111/127/138
f 123/116/139 112/105/139 110/133/139
f 130/123/140 113/136/140 124/117/140
f 119/112/141 128/121/141 117/131/141
f 129/122/142 126/119/142 122/115/142
f 133/102/143 134/103/143 135/104/143
f 136/105/144 137/106/144 138/107/144
f 139/108/145 140/109/145 141/110/145
f 142/111/146 143/112/146 144/113/146
f 145/114/147 146/115/147 147/116/147
f 148/117/148 149/118/148 150/119/148
f 151/120/149 152/137/149 153/122/149
f 154/123/150 155/124/150 156/125/150
f 139/108/151 135/104/151 140/109/151
f 136/126/152 135/127/152 134/128/152
f 142/111/153 138/129/153 137/130/153
f 143/112/154 140/132/154 144/113/154
f 151/120/155 141/110/155 152/137/155
f 154/123/156 143/112/156 142/111/156
f 155/124/157 152/137/157 156/125/157
f 145/114/158 153/122/158 146/115/158
f 148/117/159 155/124/159 154/123/159
f 147/116/160 150/119/160 149/118/160
f 133/102/161 147/116/161 134/103/161
f 137/106/162 149/118/162 148/117/162
f 151/120/163 133/102/163 139/108/163
f 138/129/164 140/132/164 135/127/164
f 147/116/165 136/105/165 134/133/165
f 142/134/166 148/117/166 154/123/166
f 143/112/167 152/137/167 141/131/167
f 155/124/168 146/115/168 153/122/168
f 157/135/169 158/103/169 159/104/169
f 160/105/170 161/106/170 162/107/170
f 163/108/171 164/109/171 165/110/171
f 166/111/172 167/112/172 168/113/172
f 169/114/173 170/115/173 171/116/173
f 172/117/174 173/118/174 174/119/174
f 175/120/175 176/137/175 177/122/175
f 178/123/176 179/124/176 180/138/176
f 163/108/177 159/104/177 164/109/177
f 158/128/178 162/129/178 159/127/178
f 161/130/179 168/113/179 162/129/179
f 167/112/180 164/132/180 168/113/180
f 163/108/181 176/137/181 175/120/181
f 178/123/182 167/112/182 166/111/182
f 179/124/183 176/137/183 180/138/183
f 175/120/184 170/115/184 169/114/184
f 172/117/185 179/124/185 178/123/185
f 171/116/186 174/119/186 173/118/186
f 169/114/187 158/103/187 157/135/187
f 161/106/188 173/118/188 172/117/188
f 163/108/189 169/114/189 157/135/189
f 162/129/190 164/132/190 159/127/190
f 173/118/191 158/133/191 171/116/191
f 178/123/192 161/136/192 172/117/192
f 167/112/193 176/137/193 165/131/193
f 179/124/194 170/115/194 177/122/194
f 181/135/195 182/103/195 183/104/195
f 184/105/196 185/106/196 186/107/196
f 187/108/197 188/109/197 189/110/197
f 190/111/198 191/112/198 192/139/198
f 193/114/199 194/115/199 195/116/199
f 196/117/200 197/118/200 198/119/200
f 199/120/201 200/137/201 201/122/201
f 202/123/202 203/124/202 204/125/202
f 187/108/203 183/104/203 188/109/203
f 184/126/204 183/127/204 182/128/204
f 190/111/205 186/129/205 185/130/205
f 191/112/206 188/132/206 192/139/206
f 199/120/207 189/110/207 200/137/207
f 190/111/208 204/125/208 191/112/208
f 201/122/209 204/125/209 203/124/209
f 199/120/210 194/115/210 193/114/210
f 202/123/211 198/119/211 203/124/211
f 197/118/212 194/115/212 198/119/212
f 193/114/213 182/103/213 181/135/213
f 196/117/214 184/105/214 197/118/214
f 187/108/215 193/114/215 181/135/215
f 186/129/216 188/132/216 183/127/216
f 197/118/217 182/133/217 195/116/217
f 190/134/218 196/117/218 202/123/218
f 189/131/219 204/125/219 200/137/219
f 203/124/220 194/115/220 201/122/220
f 205/135/221 206/103/221 207/104/221
f 208/105/222 209/106/222 210/107/222
f 211/108/223 212/109/223 213/110/223
f 214/111/224 215/112/224 216/113/224
f 217/114/225 218/140/225 219/116/225
f 220/117/226 221/118/226 222/119/226
f 223/120/227 224/121/227 225/122/227
f 226/123/228 227/124/228 228/125/228
f 205/135/229 212/109/229 211/108/229
f 206/128/230 210/129/230 207/127/230
f 214/111/231 210/129/231 209/130/231
f 213/131/232 216/113/232 215/112/232
f 223/120/233 213/110/233 224/121/233
f 226/123/234 215/112/234 214/111/234
f 225/122/235 228/125/235 227/124/235
f 217/114/236 225/122/236 218/140/236
f 226/123/237 222/119/237 227/124/237
f 219/116/238 222/119/238 221/118/238
f 217/114/239 206/103/239 205/135/239
f 209/106/240 221/118/240 220/117/240
f 211/108/241 217/114/241 205/135/241
f 210/129/242 212/132/242 207/127/242
f 221/118/243 206/133/243 219/116/243
f 226/123/244 209/136/244 220/117/244
f 215/112/245 224/121/245 213/131/245
f 227/124/246 218/140/246 225/122/246
f 229/135/247 230/103/247 231/104/247
f 232/105/248 233/106/248 234/107/248
f 235/108/249 236/109/249 237/110/249
f 238/111/250 239/112/250 240/113/250
f 241/114/251 242/115/251 243/116/251
f 244/117/252 245/118/252 246/119/252
f 247/120/253 248/121/253 249/122/253
f 250/123/254 251/124/254 252/125/254
f 229/135/255 236/109/255 235/108/255
f 230/128/256 234/129/256 231/127/256
f 238/111/257 234/129/257 233/130/257
f 237/131/258 240/113/258 239/112/258
f 247/120/259 237/110/259 248/121/259
f 238/111/260 252/125/260 239/112/260
f 249/122/261 252/125/261 251/124/261
f 241/114/262 249/122/262 242/115/262
f 244/117/263 251/124/263 250/123/263
f 243/116/264 246/119/264 245/118/264
f 241/114/265 230/103/265 229/135/265
f 244/117/266 232/105/266 245/118/266
f 235/108/267 241/114/267 229/135/267
f 231/127/268 240/113/268 236/132/268
f 243/116/269 232/105/269 230/133/269
f 238/134/270 244/117/270 250/123/270
f 239/112/271 248/121/271 237/131/271
f 251/124/272 242/115/272 249/122/272
f 253/141/273 254/103/273 255/104/273
f 256/105/274 257/106/274 258/107/274
f 259/108/275 260/109/275 261/110/275
f 262/111/276 263/112/276 264/113/276
f 265/114/277 266/115/277 267/116/277
f 268/117/278 269/118/278 270/119/278
f 271/120/279 272/137/279 273/122/279
f 274/123/280 275/124/280 276/125/280
f 259/108/281 255/104/281 260/109/281
f 256/126/282 255/127/282 254/128/282
f 262/111/283 258/129/283 257/130/283
f 263/112/284 260/132/284 264/113/284
f 259/108/285 272/137/285 271/120/285
f 274/123/286 263/112/286 262/111/286
f 275/124/287 272/137/287 276/125/287
f 271/120/288 266/115/288 265/114/288
f 268/117/289 275/124/289 274/123/289
f 269/118/290 266/115/290 270/119/290
f 265/114/291 254/103/291 253/141/291
f 257/106/292 269/118/292 268/117/292
f 271/120/293 253/141/293 259/108/293
f 258/129/294 260/132/294 255/127/294
f 267/116/295 256/105/295 254/133/295
f 262/134/296 268/117/296 274/123/296
f 263/112/297 272/137/297 261/131/297
f 275/124/298 266/115/298 273/122/298
f 67/108/73 61/102/73 63/104/73
f 64/126/74 66/129/74 63/127/74
f 70/111/75 72/113/75 66/129/75
f 69/131/76 68/132/76 72/113/76
f 79/120/77 67/108/77 69/110/77
f 70/111/78 82/123/78 84/125/78
f 83/124/79 81/122/79 80/121/79
f 73/114/80 79/120/80 81/122/80
f 82/123/81 76/117/81 78/119/81
f 75/116/82 74/115/82 78/119/82
f 61/102/83 73/114/83 75/116/83
f 76/117/84 65/106/84 64/105/84
f 79/120/85 73/114/85 61/102/85
f 63/127/86 66/129/86 72/113/86
f 77/118/87 64/105/87 62/133/87
f 70/134/88 65/136/88 76/117/88
f 71/112/89 84/125/89 80/121/89
f 83/124/90 78/119/90 74/115/90
f 91/108/99 85/102/99 87/104/99
f 88/126/100 90/129/100 87/127/100
f 89/130/299 94/111/299 96/113/299
f 93/131/102 92/132/102 96/113/102
f 91/108/300 93/110/300 104/121/300
f 94/111/104 106/123/104 108/125/104
f 105/122/105 104/121/105 108/125/105
f 103/120/106 105/122/106 98/115/106
f 106/123/107 100/117/107 102/119/107
f 101/118/108 99/116/108 98/115/108
f 85/102/109 97/114/109 99/116/109
f 100/117/110 89/106/110 88/105/110
f 103/120/111 97/114/111 85/102/111
f 87/127/112 90/129/112 96/113/112
f 101/118/113 88/105/113 86/133/113
f 94/134/114 89/136/114 100/117/114
f 95/112/115 108/125/115 104/121/115
f 107/124/116 102/119/116 98/115/116
f 115/108/125 109/135/125 111/104/125
f 112/126/126 114/129/126 111/127/126
f 113/130/301 118/111/301 120/113/301
f 117/131/128 116/132/128 120/113/128
f 127/120/302 115/108/302 117/110/302
f 118/111/130 130/123/130 132/125/130
f 131/124/131 129/122/131 128/121/131
f 121/114/132 127/120/132 129/122/132
f 124/117/133 126/119/133 131/124/133
f 123/116/134 122/115/134 126/119/134
f 109/135/303 121/114/303 123/116/303
f 124/117/136 113/106/136 112/105/136
f 127/120/137 121/114/137 109/135/137
f 114/129/138 120/113/138 116/132/138
f 123/116/139 125/118/139 112/105/139
f 130/123/140 118/134/140 113/136/140
f 119/112/141 132/125/141 128/121/141
f 129/122/142 131/124/142 126/119/142
f 139/108/151 133/102/151 135/104/151
f 136/126/152 138/129/152 135/127/152
f 142/111/304 144/113/304 138/129/304
f 143/112/154 141/131/154 140/132/154
f 151/120/305 139/108/305 141/110/305
f 154/123/306 156/125/306 143/112/306
f 155/124/157 153/122/157 152/137/157
f 145/114/158 151/120/158 153/122/158
f 148/117/307 150/119/307 155/124/307
f 147/116/160 146/115/160 150/119/160
f 133/102/161 145/114/161 147/116/161
f 137/106/308 136/105/308 149/118/308
f 151/120/163 145/114/163 133/102/163
f 138/129/164 144/113/164 140/132/164
f 147/116/165 149/118/165 136/105/165
f 142/134/166 137/136/166 148/117/166
f 143/112/167 156/125/167 152/137/167
f 155/124/168 150/119/168 146/115/168
f 163/108/177 157/135/177 159/104/177
f 158/128/178 160/126/178 162/129/178
f 161/130/179 166/111/179 168/113/179
f 167/112/180 165/131/180 164/132/180
f 163/108/181 165/110/181 176/137/181
f 178/123/309 180/138/309 167/112/309
f 179/124/183 177/122/183 176/137/183
f 175/120/184 177/122/184 170/115/184
f 172/117/185 174/119/185 179/124/185
f 171/116/186 170/115/186 174/119/186
f 169/114/187 171/116/187 158/103/187
f 161/106/188 160/105/188 173/118/188
f 163/108/189 175/120/189 169/114/189
f 162/129/190 168/113/190 164/132/190
f 173/118/191 160/105/191 158/133/191
f 178/123/192 166/134/192 161/136/192
f 167/112/193 180/138/193 176/137/193
f 179/124/194 174/119/194 170/115/194
f 187/108/203 181/135/203 183/104/203
f 184/126/204 186/129/204 183/127/204
f 190/111/205 192/139/205 186/129/205
f 191/112/206 189/131/206 188/132/206
f 199/120/310 187/108/310 189/110/310
f 190/111/208 202/123/208 204/125/208
f 201/122/311 200/137/311 204/125/311
f 199/120/312 201/122/312 194/115/312
f 202/123/211 196/117/211 198/119/211
f 197/118/212 195/116/212 194/115/212
f 193/114/213 195/116/213 182/103/213
f 196/117/313 185/106/313 184/105/313
f 187/108/215 199/120/215 193/114/215
f 186/129/216 192/139/216 188/132/216
f 197/118/217 184/105/217 182/133/217
f 190/134/218 185/136/218 196/117/218
f 189/131/219 191/112/219 204/125/219
f 203/124/220 198/119/220 194/115/220
f 205/135/229 207/104/229 212/109/229
f 206/128/230 208/126/230 210/129/230
f 214/111/231 216/113/231 210/129/231
f 213/131/232 212/132/232 216/113/232
f 223/120/314 211/108/314 213/110/314
f 226/123/234 228/125/234 215/112/234
f 225/122/235 224/121/235 228/125/235
f 217/114/236 223/120/236 225/122/236
f 226/123/237 220/117/237 222/119/237
f 219/116/238 218/140/238 222/119/238
f 217/114/315 219/116/315 206/103/315
f 209/106/316 208/105/316 221/118/316
f 211/108/241 223/120/241 217/114/241
f 210/129/242 216/113/242 212/132/242
f 221/118/243 208/105/243 206/133/243
f 226/123/244 214/134/244 209/136/244
f 215/112/245 228/125/245 224/121/245
f 227/124/246 222/119/246 218/140/246
f 229/135/255 231/104/255 236/109/255
f 230/128/256 232/126/256 234/129/256
f 238/111/317 240/113/317 234/129/317
f 237/131/258 236/132/258 240/113/258
f 247/120/259 235/108/259 237/110/259
f 238/111/318 250/123/318 252/125/318
f 249/122/261 248/121/261 252/125/261
f 241/114/319 247/120/319 249/122/319
f 244/117/320 246/119/320 251/124/320
f 243/116/264 242/115/264 246/119/264
f 241/114/265 243/116/265 230/103/265
f 244/117/266 233/106/266 232/105/266
f 235/108/267 247/120/267 241/114/267
f 231/127/268 234/129/268 240/113/268
f 243/116/269 245/118/269 232/105/269
f 238/134/270 233/136/270 244/117/270
f 239/112/271 252/125/271 248/121/271
f 251/124/272 246/119/272 242/115/272
f 259/108/281 253/141/281 255/104/281
f 256/126/282 258/129/282 255/127/282
f 262/111/321 264/113/321 258/129/321
f 263/112/284 261/131/284 260/132/284
f 259/108/322 261/110/322 272/137/322
f 274/123/323 276/125/323 263/112/323
f 275/124/287 273/122/287 272/137/287
f 271/120/324 273/122/324 266/115/324
f 268/117/289 270/119/289 275/124/289
f 269/118/325 267/116/325 266/115/325
f 265/114/291 267/116/291 254/103/291
f 257/106/292 256/105/292 269/118/292
f 271/120/293 265/114/293 253/141/293
f 258/129/294 264/113/294 260/132/294
f 267/116/295 269/118/295 256/105/295
f 262/134/296 257/136/296 268/117/296
f 263/112/297 276/125/297 272/137/297
f 275/124/298 270/119/298 266/115/298
