# Blender 4.5.10 LTS
# www.blender.org
mtllib craft_post_jib.mtl
o craft_post_jib
v 0.280285 0.005268 -0.266148
v 0.280253 0.007432 -0.274009
v 0.288099 0.007598 -0.266177
v 0.278473 0.162934 -0.275516
v 0.278454 0.165250 -0.267698
v 0.286319 0.163100 -0.267684
v 0.280745 0.010548 0.278146
v 0.288559 0.012877 0.278117
v 0.280726 0.012864 0.285964
v 0.278914 0.170530 0.276596
v 0.278947 0.168366 0.284457
v 0.286779 0.168380 0.276610
v -0.263999 -0.000957 -0.265628
v -0.271864 0.001193 -0.265642
v -0.264031 0.001207 -0.273489
v -0.265830 0.159025 -0.267178
v -0.265811 0.156709 -0.274996
v -0.273644 0.156696 -0.267149
v -0.263539 0.004323 0.278667
v -0.263558 0.006639 0.286484
v -0.271404 0.006473 0.278652
v -0.265370 0.164305 0.277116
v -0.273184 0.161976 0.277145
v -0.265338 0.162141 0.284978
v 0.061441 0.112636 -0.083289
v 0.061928 0.139497 -0.085829
v 0.064316 0.139467 -0.083458
v 0.096383 2.005385 -0.096975
v 0.096888 2.032274 -0.094756
v 0.098771 2.005355 -0.094604
v 0.062043 0.113612 0.081947
v 0.064919 0.140442 0.081778
v 0.062548 0.140501 0.084166
v 0.097490 2.033250 0.070480
v 0.097003 2.006389 0.073021
v 0.099374 2.006331 0.070632
v -0.103770 0.115690 -0.082704
v -0.105653 0.142609 -0.082857
v -0.103283 0.142551 -0.085245
v -0.068323 2.035328 -0.094171
v -0.068828 2.008439 -0.096391
v -0.071199 2.008497 -0.094002
v -0.103167 0.116666 0.082532
v -0.102662 0.143555 0.084751
v -0.105051 0.143585 0.082380
v -0.067720 2.036304 0.071065
v -0.070596 2.009473 0.071234
v -0.068208 2.009443 0.073605
v 0.120813 0.151253 -0.129495
v 0.120883 0.152683 -0.133123
v 0.124475 0.152594 -0.129437
v 0.122435 0.249867 -0.132282
v 0.122410 0.251236 -0.128630
v 0.126027 0.249778 -0.128596
v 0.117550 0.149119 0.123195
v 0.121212 0.150460 0.123253
v 0.117526 0.150488 0.126846
v 0.119147 0.249102 0.124060
v 0.119078 0.247672 0.127687
v 0.122764 0.247644 0.124094
v -0.131853 0.155317 -0.132723
v -0.135470 0.156775 -0.132758
v -0.131784 0.156747 -0.136351
v -0.130256 0.255300 -0.131858
v -0.130232 0.253931 -0.135510
v -0.133918 0.253959 -0.131917
v -0.135116 0.153182 0.119966
v -0.135141 0.154551 0.123618
v -0.138733 0.154641 0.119932
v -0.133519 0.253166 0.120832
v -0.137181 0.251825 0.120773
v -0.133589 0.251735 0.124459
v 0.097663 1.861790 -0.061700
v 0.097666 1.863599 -0.063531
v 0.111943 1.863612 -0.061688
v 0.097656 1.989956 -0.064333
v 0.097652 1.991788 -0.062524
v 0.111933 1.989969 -0.062489
v 0.097452 1.862592 0.064657
v 0.111731 1.864413 0.064670
v 0.097448 1.864423 0.066466
v 0.097441 1.992589 0.063833
v 0.097438 1.990781 0.065664
v 0.111721 1.990770 0.063868
v -0.893776 1.861701 -0.063357
v -0.908056 1.863519 -0.063392
v -0.893773 1.863509 -0.065189
v -0.893786 1.991698 -0.064181
v -0.893783 1.989866 -0.065990
v -0.908066 1.989877 -0.064194
v -0.893987 1.862502 0.063000
v -0.893990 1.864334 0.064809
v -0.908267 1.864321 0.062965
v -0.893997 1.992499 0.062176
v -0.908277 1.990678 0.062163
v -0.894000 1.990691 0.064007
v -0.022540 1.381874 -0.048538
v -0.021672 1.382758 -0.049818
v -0.014440 1.375743 -0.048519
v 0.039363 1.445412 -0.051219
v 0.040253 1.446333 -0.049979
v 0.046594 1.438397 -0.049919
v -0.021810 1.383118 0.038930
v -0.013710 1.376987 0.038950
v -0.020921 1.384038 0.040170
v 0.040983 1.447577 0.037489
v 0.040114 1.446692 0.038769
v 0.047324 1.439641 0.037549
v -0.523866 1.870178 -0.051300
v -0.530208 1.878113 -0.051360
v -0.522997 1.871062 -0.052580
v -0.461073 1.934637 -0.052741
v -0.461963 1.933716 -0.053980
v -0.469173 1.940768 -0.052760
v -0.523136 1.871422 0.036168
v -0.522247 1.872342 0.037408
v -0.529478 1.879357 0.036109
v -0.460343 1.935881 0.034728
v -0.468443 1.942012 0.034708
v -0.461212 1.934996 0.036008
v 0.109669 1.876922 -0.094121
v 0.109720 1.877864 -0.097073
v 0.112613 1.877889 -0.094087
v 0.110032 1.945898 -0.097936
v 0.109990 1.946915 -0.095009
v 0.112925 1.945922 -0.094950
v 0.106446 1.879526 0.109957
v 0.109390 1.880493 0.109991
v 0.106404 1.880543 0.112884
v 0.106767 1.949519 0.109069
v 0.106716 1.948577 0.112021
v 0.109702 1.948527 0.109128
v -0.094424 1.877816 -0.097356
v -0.097359 1.878809 -0.097415
v -0.094373 1.878759 -0.100307
v -0.094103 1.947810 -0.098244
v -0.094061 1.946793 -0.101171
v -0.097047 1.946843 -0.098278
v -0.097647 1.880420 0.106722
v -0.097689 1.881438 0.109649
v -0.100582 1.881413 0.106663
v -0.097326 1.950414 0.105834
v -0.100270 1.949447 0.105800
v -0.097377 1.949472 0.108786
v -0.799446 1.683098 -0.004707
v -0.807363 1.690744 -0.004637
v -0.797952 1.690565 -0.012654
v -0.799418 1.863054 -0.008698
v -0.797927 1.855242 -0.016307
v -0.807338 1.855421 -0.008290
v -0.795279 1.683091 -0.005030
v -0.797952 1.690565 -0.012654
v -0.787418 1.690707 -0.006183
v -0.795252 1.863046 -0.009021
v -0.787392 1.855384 -0.009836
v -0.797927 1.855242 -0.016307
v -0.793684 1.683176 -0.001168
v -0.787418 1.690707 -0.006183
v -0.790318 1.690974 0.005833
v -0.793657 1.863132 -0.005159
v -0.790293 1.855651 0.002180
v -0.787392 1.855384 -0.009836
v -0.796865 1.683237 0.001542
v -0.790318 1.690974 0.005833
v -0.802645 1.690997 0.006788
v -0.796838 1.863192 -0.002450
v -0.802620 1.855674 0.003135
v -0.790293 1.855651 0.002180
v -0.800426 1.683189 -0.000645
v -0.802645 1.690997 0.006788
v -0.807363 1.690744 -0.004637
v -0.800399 1.863144 -0.004637
v -0.807338 1.855421 -0.008290
v -0.802620 1.855674 0.003135
v -0.956137 1.639591 0.008333
v -0.955961 1.623592 0.008311
v -0.940140 1.639767 0.008064
v -0.956137 1.639591 0.008333
v -0.939964 1.623768 0.008042
v -0.940140 1.639767 0.008064
v -0.955961 1.623592 0.008311
v -0.939964 1.623768 0.008042
v -0.936021 1.623707 0.083736
v -0.936196 1.639706 0.083758
v -0.936196 1.639706 0.083758
v -0.922157 1.639871 0.076086
v -0.922157 1.639871 0.076086
v -0.921981 1.623872 0.076064
v -0.921981 1.623872 0.076064
v -0.936021 1.623707 0.083736
v -0.883314 1.624207 0.141255
v -0.883490 1.640206 0.141277
v -0.883490 1.640206 0.141277
v -0.874624 1.640321 0.127959
v -0.874624 1.640321 0.127959
v -0.874449 1.624322 0.127937
v -0.874449 1.624322 0.127937
v -0.883314 1.624207 0.141255
v -0.809917 1.624976 0.167691
v -0.810092 1.640975 0.167713
v -0.810092 1.640975 0.167713
v -0.808431 1.641016 0.151800
v -0.808431 1.641016 0.151800
v -0.808256 1.625016 0.151778
v -0.808256 1.625016 0.151778
v -0.809917 1.624976 0.167691
v -0.732642 1.625840 0.156987
v -0.732818 1.641839 0.157009
v -0.732818 1.641839 0.157009
v -0.738742 1.641794 0.142146
v -0.738742 1.641794 0.142146
v -0.738567 1.625795 0.142124
v -0.738567 1.625795 0.142124
v -0.732642 1.625840 0.156987
v -0.669194 1.626599 0.111596
v -0.669370 1.642598 0.111618
v -0.669370 1.642598 0.111618
v -0.681522 1.642479 0.101211
v -0.681522 1.642479 0.101211
v -0.681346 1.626480 0.101189
v -0.681346 1.626480 0.101189
v -0.669194 1.626599 0.111596
v -0.634107 1.627080 0.041916
v -0.634282 1.643079 0.041938
v -0.634282 1.643079 0.041938
v -0.649879 1.642913 0.038371
v -0.649879 1.642913 0.038371
v -0.649703 1.626914 0.038349
v -0.649703 1.626914 0.038349
v -0.634107 1.627080 0.041916
v -0.635418 1.627173 -0.036090
v -0.635594 1.643172 -0.036068
v -0.635594 1.643172 -0.036067
v -0.651062 1.642996 -0.031978
v -0.651062 1.642996 -0.031978
v -0.650886 1.626997 -0.032000
v -0.650886 1.626997 -0.032000
v -0.635418 1.627173 -0.036089
v -0.672829 1.626856 -0.104551
v -0.673005 1.642855 -0.104529
v -0.673005 1.642855 -0.104529
v -0.684800 1.642711 -0.093719
v -0.684800 1.642711 -0.093719
v -0.684624 1.626712 -0.093741
v -0.684624 1.626712 -0.093741
v -0.672829 1.626856 -0.104551
v -0.737768 1.626203 -0.147785
v -0.737944 1.642202 -0.147763
v -0.737944 1.642202 -0.147763
v -0.743365 1.642121 -0.132709
v -0.743365 1.642121 -0.132709
v -0.743189 1.626122 -0.132731
v -0.743189 1.626122 -0.132731
v -0.737768 1.626203 -0.147785
v -0.815359 1.625362 -0.155886
v -0.815534 1.641361 -0.155864
v -0.815534 1.641361 -0.155864
v -0.813339 1.641363 -0.140015
v -0.813339 1.641363 -0.140015
v -0.813163 1.625364 -0.140037
v -0.813163 1.625364 -0.140037
v -0.815359 1.625362 -0.155886
v -0.887826 1.624526 -0.126999
v -0.888001 1.640525 -0.126977
v -0.888001 1.640525 -0.126977
v -0.878693 1.640609 -0.113964
v -0.878693 1.640609 -0.113964
v -0.878517 1.624610 -0.113986
v -0.878517 1.624610 -0.113986
v -0.887826 1.624526 -0.126999
v -0.938568 1.623887 -0.067742
v -0.938744 1.639886 -0.067720
v -0.938744 1.639886 -0.067720
v -0.924454 1.640033 -0.060523
v -0.924454 1.640033 -0.060523
v -0.924279 1.624034 -0.060545
v -0.924279 1.624034 -0.060545
v -0.938568 1.623887 -0.067742
v -0.961809 1.289143 0.007055
v -0.961862 1.273145 0.007315
v -0.945811 1.289086 0.006826
v -0.961809 1.289143 0.007055
v -0.945864 1.273088 0.007086
v -0.945811 1.289086 0.006826
v -0.961862 1.273145 0.007315
v -0.945864 1.273088 0.007086
v -0.942105 1.274304 0.082780
v -0.942052 1.290302 0.082520
v -0.942052 1.290302 0.082520
v -0.927993 1.290132 0.074883
v -0.927993 1.290132 0.074883
v -0.928046 1.274134 0.075143
v -0.928046 1.274134 0.075143
v -0.942105 1.274304 0.082780
v -0.889537 1.275065 0.140422
v -0.889484 1.291063 0.140162
v -0.889484 1.291063 0.140162
v -0.880586 1.290818 0.126868
v -0.880585 1.290818 0.126868
v -0.880638 1.274820 0.127127
v -0.880638 1.274820 0.127127
v -0.889537 1.275065 0.140422
v -0.816201 1.275254 0.167037
v -0.816148 1.291252 0.166777
v -0.816148 1.291252 0.166777
v -0.814448 1.290989 0.150870
v -0.814448 1.290989 0.150870
v -0.814501 1.274991 0.151129
v -0.814501 1.274991 0.151129
v -0.816201 1.275254 0.167037
v -0.738896 1.274828 0.156527
v -0.738843 1.290826 0.156267
v -0.738843 1.290826 0.156267
v -0.744731 1.290604 0.141392
v -0.744731 1.290604 0.141392
v -0.744784 1.274606 0.141651
v -0.744784 1.274606 0.141651
v -0.738896 1.274828 0.156527
v -0.675333 1.273884 0.111299
v -0.675280 1.289882 0.111040
v -0.675280 1.289882 0.111040
v -0.687407 1.289753 0.100604
v -0.687407 1.289753 0.100604
v -0.687460 1.273755 0.100863
v -0.687460 1.273755 0.100863
v -0.675333 1.273884 0.111299
v -0.640073 1.272638 0.041716
v -0.640020 1.288636 0.041457
v -0.640020 1.288636 0.041457
v -0.655609 1.288629 0.037851
v -0.655609 1.288629 0.037851
v -0.655662 1.272631 0.038110
v -0.655662 1.272631 0.038110
v -0.640073 1.272638 0.041716
v -0.641194 1.271376 -0.036282
v -0.641141 1.287374 -0.036542
v -0.641141 1.287374 -0.036542
v -0.656619 1.287491 -0.032491
v -0.656620 1.287491 -0.032491
v -0.656673 1.271493 -0.032232
v -0.656673 1.271493 -0.032232
v -0.641194 1.271376 -0.036282
v -0.678439 1.270387 -0.104828
v -0.678386 1.286385 -0.105087
v -0.678386 1.286385 -0.105087
v -0.690208 1.286599 -0.094309
v -0.690208 1.286599 -0.094309
v -0.690261 1.270601 -0.094049
v -0.690261 1.270601 -0.094049
v -0.678439 1.270387 -0.104828
v -0.743275 1.269898 -0.148217
v -0.743222 1.285896 -0.148477
v -0.743222 1.285896 -0.148477
v -0.748680 1.286158 -0.133439
v -0.748680 1.286158 -0.133439
v -0.748733 1.270160 -0.133179
v -0.748733 1.270160 -0.133179
v -0.743275 1.269898 -0.148217
v -0.820850 1.270020 -0.156511
v -0.820797 1.286018 -0.156770
v -0.820797 1.286018 -0.156770
v -0.818641 1.286268 -0.140918
v -0.818641 1.286268 -0.140918
v -0.818693 1.270270 -0.140659
v -0.818693 1.270270 -0.140659
v -0.820850 1.270020 -0.156511
v -0.893392 1.270726 -0.127808
v -0.893339 1.286724 -0.128068
v -0.893339 1.286724 -0.128068
v -0.884062 1.286905 -0.115033
v -0.884062 1.286905 -0.115033
v -0.884114 1.270907 -0.114773
v -0.884114 1.270907 -0.114773
v -0.893392 1.270726 -0.127808
v -0.944282 1.271854 -0.068685
v -0.944229 1.287852 -0.068944
v -0.944229 1.287852 -0.068944
v -0.929956 1.287922 -0.061713
v -0.929956 1.287922 -0.061713
v -0.930009 1.271924 -0.061454
v -0.930009 1.271924 -0.061454
v -0.944282 1.271854 -0.068685
v -0.783569 1.266530 0.133952
v -0.783640 1.272133 0.133723
v -0.783335 1.272133 0.134035
v -0.788782 1.660860 0.139209
v -0.788860 1.666455 0.139596
v -0.788478 1.660860 0.139521
v -0.783805 1.266225 0.155333
v -0.783571 1.271828 0.155415
v -0.783882 1.271819 0.155720
v -0.789095 1.666150 0.160977
v -0.789025 1.660547 0.161206
v -0.788713 1.660555 0.160901
v -0.804950 1.266250 0.133713
v -0.805332 1.271845 0.133788
v -0.805021 1.271854 0.133484
v -0.810241 1.666175 0.139357
v -0.810163 1.660581 0.138970
v -0.810475 1.660573 0.139274
v -0.805185 1.265945 0.155093
v -0.805263 1.271540 0.155480
v -0.805567 1.271540 0.155169
v -0.810476 1.665871 0.160737
v -0.810710 1.660268 0.160655
v -0.810406 1.660267 0.160966
v -0.641779 1.263166 0.046524
v -0.641863 1.268761 0.046145
v -0.641557 1.268769 0.046455
v -0.647805 1.657484 0.041208
v -0.647892 1.663087 0.041445
v -0.647499 1.657492 0.041518
v -0.641898 1.263435 0.067906
v -0.641676 1.269039 0.067836
v -0.641986 1.269038 0.068143
v -0.648012 1.663356 0.062827
v -0.647928 1.657761 0.063206
v -0.647618 1.657762 0.062900
v -0.663160 1.262837 0.046409
v -0.663554 1.268431 0.046336
v -0.663244 1.268432 0.046030
v -0.669274 1.662758 0.041330
v -0.669186 1.657156 0.041093
v -0.669496 1.657155 0.041399
v -0.663280 1.263107 0.067791
v -0.663367 1.268710 0.068028
v -0.663673 1.268701 0.067718
v -0.669393 1.663028 0.062712
v -0.669615 1.657424 0.062781
v -0.669309 1.657433 0.063091
v -0.699290 1.264580 -0.136841
v -0.699231 1.270178 -0.137190
v -0.698927 1.270177 -0.136877
v -0.695456 1.658949 -0.140006
v -0.695407 1.664551 -0.139738
v -0.695153 1.658949 -0.139693
v -0.699605 1.264738 -0.115460
v -0.699243 1.270335 -0.115496
v -0.699556 1.270340 -0.115193
v -0.695722 1.664709 -0.118357
v -0.695781 1.659112 -0.118009
v -0.695469 1.659106 -0.118312
v -0.720670 1.264786 -0.137159
v -0.720924 1.270388 -0.137204
v -0.720611 1.270383 -0.137507
v -0.716787 1.664756 -0.140056
v -0.716837 1.659155 -0.140323
v -0.717149 1.659160 -0.140020
v -0.720986 1.264944 -0.115777
v -0.720936 1.270546 -0.115510
v -0.721240 1.270546 -0.115823
v -0.717103 1.664914 -0.118674
v -0.717465 1.659318 -0.118638
v -0.717162 1.659317 -0.118326
v -0.878300 1.261858 -0.143968
v -0.878316 1.267462 -0.144187
v -0.878010 1.267459 -0.143877
v -0.879563 1.656212 -0.138019
v -0.879584 1.661806 -0.137622
v -0.879258 1.656208 -0.137709
v -0.878453 1.261519 -0.122587
v -0.878163 1.267119 -0.122496
v -0.878473 1.267113 -0.122190
v -0.879736 1.661466 -0.116241
v -0.879721 1.655862 -0.116022
v -0.879410 1.655868 -0.116328
v -0.899684 1.261792 -0.144122
v -0.900010 1.267391 -0.144035
v -0.899700 1.267396 -0.144341
v -0.900967 1.661740 -0.137776
v -0.900947 1.656146 -0.138173
v -0.901257 1.656140 -0.137867
v -0.899836 1.261452 -0.122741
v -0.899857 1.267047 -0.122344
v -0.900163 1.267051 -0.122654
v -0.901120 1.661400 -0.116395
v -0.901410 1.655800 -0.116486
v -0.901104 1.655796 -0.116176
v -0.942889 1.265965 0.031706
v -0.942798 1.271564 0.031386
v -0.942491 1.271560 0.031695
v -0.936532 1.660313 0.030536
v -0.936443 1.665913 0.030832
v -0.936226 1.660308 0.030845
v -0.942974 1.266014 0.053090
v -0.942576 1.271608 0.053079
v -0.942885 1.271613 0.053385
v -0.936528 1.665961 0.052216
v -0.936620 1.660362 0.052536
v -0.936311 1.660357 0.052229
v -0.964270 1.266310 0.031620
v -0.964488 1.271914 0.031606
v -0.964179 1.271908 0.031300
v -0.957824 1.666257 0.030746
v -0.957913 1.660657 0.030450
v -0.958223 1.660663 0.030757
v -0.964355 1.266358 0.053004
v -0.964266 1.271958 0.053299
v -0.964573 1.271962 0.052990
v -0.957909 1.666305 0.052130
v -0.958308 1.660711 0.052141
v -0.958001 1.660706 0.052450
v -0.810045 1.363406 0.007739
v -0.883934 1.422163 -0.053281
v -0.773532 1.416318 -0.084469
v -0.709739 1.414033 0.011034
v -0.780716 1.418464 0.101246
v -0.888374 1.423489 0.061497
v -0.829292 1.509105 -0.087698
v -0.721634 1.504080 -0.047949
v -0.726074 1.505406 0.066829
v -0.836477 1.511251 0.098017
v -0.900270 1.513536 0.002514
v -0.799963 1.564163 0.005809
v -0.789468 1.376883 -0.046290
v -0.854361 1.380319 -0.027958
v -0.832899 1.411420 -0.082157
v -0.900401 1.415635 0.003640
v -0.856971 1.381098 0.039506
v -0.751972 1.375540 0.009845
v -0.730509 1.406641 -0.044353
v -0.793691 1.378144 0.062870
v -0.734732 1.407902 0.064807
v -0.839732 1.413460 0.094468
v -0.907394 1.468563 -0.031029
v -0.910004 1.469343 0.036435
v -0.800781 1.462523 -0.102387
v -0.865675 1.465958 -0.084055
v -0.700005 1.458226 -0.022887
v -0.737501 1.459570 -0.079023
v -0.744334 1.461611 0.097603
v -0.702615 1.459006 0.044577
v -0.872507 1.467999 0.092571
v -0.809227 1.465046 0.115935
v -0.875276 1.519667 -0.051259
v -0.770277 1.514108 -0.080921
v -0.709607 1.511934 0.009908
v -0.777110 1.516149 0.095705
v -0.879499 1.520928 0.057901
v -0.816317 1.549425 -0.049322
v -0.858037 1.552029 0.003703
v -0.753038 1.546471 -0.025958
v -0.755648 1.547251 0.041506
v -0.820540 1.550686 0.059838
v -0.803013 1.366316 -0.001263
v -0.849800 1.416896 -0.040833
v -0.778701 1.413116 -0.060693
v -0.737830 1.411701 0.000881
v -0.783669 1.414607 0.058796
v -0.852871 1.417818 0.033015
v -0.813533 1.493544 -0.063145
v -0.744331 1.490333 -0.037364
v -0.747402 1.491254 0.036483
v -0.818501 1.495035 0.056344
v -0.859373 1.496449 -0.005230
v -0.794189 1.541835 -0.003086
v -0.789498 1.378416 -0.036035
v -0.831288 1.380638 -0.024361
v -0.816999 1.408147 -0.059293
v -0.860594 1.410911 -0.004213
v -0.833093 1.381180 0.019045
v -0.765474 1.377585 0.000157
v -0.751184 1.405093 -0.034775
v -0.792418 1.379293 0.034198
v -0.754104 1.405970 0.035458
v -0.821723 1.409565 0.054347
v -0.864416 1.457129 -0.026693
v -0.866221 1.457671 0.016713
v -0.795681 1.453199 -0.072409
v -0.837472 1.455421 -0.060735
v -0.730981 1.450480 -0.021063
v -0.755005 1.451311 -0.057255
v -0.759730 1.452730 0.056386
v -0.732786 1.451021 0.022344
v -0.842197 1.456839 0.052906
v -0.801521 1.454952 0.068059
v -0.843099 1.502181 -0.039808
v -0.775479 1.498586 -0.058696
v -0.736608 1.497240 -0.000136
v -0.780204 1.500004 0.054944
v -0.846019 1.503058 0.030426
v -0.804785 1.528858 -0.038548
v -0.831729 1.530566 -0.004507
v -0.764109 1.526971 -0.023394
v -0.765914 1.527512 0.020012
v -0.807705 1.529734 0.031685
v -0.605570 1.621851 -0.166711
v -0.605231 1.622347 -0.171738
v -0.602375 1.620707 -0.166653
v -0.589849 1.651586 -0.170945
v -0.589745 1.651932 -0.165895
v -0.586993 1.649946 -0.165860
v -0.613735 1.616660 0.183075
v -0.610540 1.615516 0.183133
v -0.613631 1.617007 0.188125
v -0.597910 1.646742 0.183891
v -0.598249 1.646246 0.188918
v -0.595158 1.644755 0.183926
v -0.811969 1.730519 -0.169916
v -0.814720 1.732505 -0.169951
v -0.811629 1.731015 -0.174943
v -0.796143 1.760601 -0.169101
v -0.796247 1.760254 -0.174150
v -0.799338 1.761745 -0.169158
v -0.820134 1.725328 0.179870
v -0.820030 1.725675 0.184919
v -0.822885 1.727315 0.179835
v -0.804308 1.755410 0.180686
v -0.807503 1.756554 0.180628
v -0.804648 1.754914 0.185712
v -0.774343 1.733406 -0.177071
v -0.774466 1.733844 -0.182113
v -0.771571 1.735362 -0.177013
v -0.789541 1.763252 -0.182311
v -0.789853 1.763661 -0.177275
v -0.786647 1.764770 -0.177212
v -0.780903 1.732403 0.172786
v -0.778131 1.734360 0.172844
v -0.781214 1.732812 0.177822
v -0.796413 1.762659 0.172582
v -0.796290 1.762221 0.177624
v -0.793206 1.763768 0.172645
v -0.981889 1.626980 -0.181267
v -0.985096 1.625871 -0.181331
v -0.982012 1.627418 -0.186309
v -0.997400 1.657236 -0.181471
v -0.997088 1.656826 -0.186508
v -1.000172 1.655279 -0.181529
v -0.988449 1.625978 0.168590
v -0.988761 1.626387 0.173626
v -0.991656 1.624869 0.168527
v -1.003959 1.656233 0.168386
v -1.006732 1.654277 0.168328
v -1.003837 1.655795 0.173428
v -0.763508 1.722807 -0.197234
v -0.763523 1.723491 -0.202687
v -0.762389 1.723438 -0.197231
v -0.763555 1.767229 -0.202256
v -0.763542 1.767805 -0.196790
v -0.762421 1.767176 -0.196799
v -0.762538 1.719071 0.181826
v -0.761419 1.719702 0.181830
v -0.762525 1.719647 0.187292
v -0.762572 1.764069 0.182270
v -0.762557 1.763386 0.187723
v -0.761451 1.763440 0.182261
v -0.841268 1.722748 -0.197036
v -0.842389 1.723377 -0.197026
v -0.841283 1.723431 -0.202489
v -0.841301 1.767745 -0.196592
v -0.841315 1.767169 -0.202058
v -0.842421 1.767115 -0.196595
v -0.840298 1.719012 0.182025
v -0.840285 1.719588 0.187491
v -0.841419 1.719641 0.182034
v -0.840331 1.764010 0.182468
v -0.841451 1.763379 0.182465
v -0.840317 1.763326 0.187922
vn 0.2753 -0.9266 -0.2562
vn 0.2541 0.9275 -0.2741
vn 0.2757 -0.9215 0.2736
vn 0.2545 0.9327 0.2557
vn -0.2545 -0.9327 -0.2557
vn -0.2757 0.9215 -0.2736
vn -0.2541 -0.9275 0.2741
vn -0.2753 0.9266 0.2562
vn 0.2857 -0.9583 0.0091
vn 0.7065 0.0012 -0.7078
vn 0.2637 0.9646 -0.0096
vn 0.7077 0.0149 0.7064
vn 0.0112 -0.9588 0.2840
vn -0.0108 0.9641 0.2654
vn -0.7065 -0.0012 0.7077
vn -0.2637 -0.9646 0.0096
vn -0.2857 0.9583 -0.0091
vn -0.7077 -0.0149 -0.7064
vn 0.0108 -0.9641 -0.2654
vn -0.0112 0.9588 -0.2840
vn 0.0114 -0.9999 0.0097
vn 0.9999 0.0114 -0.0010
vn -0.0008 -0.0097 -1.0000
vn -0.0114 0.9999 -0.0097
vn 0.0008 0.0097 1.0000
vn -0.9999 -0.0114 0.0010
vn 0.7019 -0.0797 -0.7078
vn 0.7042 0.0453 -0.7086
vn 0.7070 -0.0713 0.7036
vn 0.7093 0.0536 0.7028
vn -0.7093 -0.0536 -0.7028
vn -0.7070 0.0714 -0.7036
vn -0.7042 -0.0453 0.7086
vn -0.7019 0.0797 0.7078
vn 0.9943 -0.1066 -0.0030
vn 0.7044 -0.0172 -0.7096
vn 0.9976 0.0698 -0.0041
vn 0.7096 -0.0089 0.7046
vn 0.0020 -0.0823 0.9966
vn 0.0053 0.0941 0.9956
vn -0.7044 0.0172 0.7096
vn -0.9976 -0.0698 0.0041
vn -0.9943 0.1066 0.0030
vn -0.7096 0.0089 -0.7046
vn -0.0053 -0.0941 -0.9956
vn -0.0020 0.0823 -0.9966
vn -0.0185 -0.9998 0.0060
vn 0.9998 -0.0185 -0.0035
vn -0.0036 -0.0059 -1.0000
vn 0.0185 0.9998 -0.0060
vn 0.0036 0.0059 1.0000
vn -0.9998 0.0185 0.0035
vn 0.3281 -0.8809 -0.3411
vn 0.3562 0.8757 -0.3259
vn 0.3194 -0.8866 0.3345
vn 0.3475 0.8700 0.3497
vn -0.3475 -0.8700 -0.3497
vn -0.3194 0.8866 -0.3346
vn -0.3562 -0.8757 0.3259
vn -0.3281 0.8809 0.3411
vn 0.3440 -0.9390 -0.0035
vn 0.7161 -0.0054 -0.6980
vn 0.3738 0.9274 0.0127
vn 0.6978 -0.0173 0.7161
vn -0.0195 -0.9362 0.3509
vn 0.0103 0.9302 0.3670
vn -0.7161 0.0054 0.6980
vn -0.3738 -0.9274 -0.0127
vn -0.3440 0.9390 0.0035
vn -0.6978 0.0173 -0.7161
vn -0.0103 -0.9302 -0.3670
vn 0.0195 0.9362 -0.3509
vn -0.0160 -0.9998 -0.0087
vn 0.9998 -0.0161 0.0128
vn 0.0129 0.0084 -0.9999
vn 0.0160 0.9998 0.0087
vn -0.0129 -0.0084 0.9999
vn -0.9998 0.0161 -0.0128
vn 0.0910 -0.7087 -0.6996
vn 0.0909 0.6998 -0.7086
vn 0.0886 -0.6998 0.7088
vn 0.0885 0.7087 0.6999
vn -0.0885 -0.7087 -0.6999
vn -0.0886 0.6998 -0.7089
vn -0.0909 -0.6998 0.7086
vn -0.0910 0.7087 0.6996
vn 0.1265 -0.9919 0.0065
vn 0.1281 -0.0063 -0.9917
vn 0.1263 0.9920 -0.0061
vn 0.1248 0.0063 0.9922
vn -0.0011 -0.7026 0.7116
vn -0.0012 0.7116 0.7026
vn -0.1281 0.0063 0.9917
vn -0.1264 -0.9920 0.0061
vn -0.1265 0.9919 -0.0065
vn -0.1248 -0.0063 -0.9922
vn 0.0012 -0.7116 -0.7026
vn 0.0011 0.7026 -0.7116
vn 0.0001 -1.0000 0.0063
vn 1.0000 0.0001 0.0017
vn 0.0017 -0.0063 -1.0000
vn -0.0001 1.0000 -0.0063
vn -0.0017 0.0063 1.0000
vn -1.0000 -0.0001 -0.0017
vn -0.4343 -0.5759 -0.6926
vn 0.5486 0.4330 -0.7152
vn -0.4225 -0.5559 0.7159
vn 0.5604 0.4531 0.6933
vn -0.5604 -0.4531 -0.6933
vn 0.4225 0.5559 -0.7159
vn -0.5486 -0.4330 0.7152
vn 0.4342 0.5759 0.6926
vn -0.6035 -0.7972 0.0164
vn 0.0806 -0.1007 -0.9917
vn 0.7811 0.6242 -0.0154
vn 0.0971 -0.0724 0.9926
vn -0.4874 -0.4963 0.7184
vn 0.4993 0.5165 0.6957
vn -0.0806 0.1007 0.9917
vn -0.7812 -0.6241 0.0154
vn 0.6035 0.7972 -0.0164
vn -0.0971 0.0724 -0.9926
vn -0.4993 -0.5165 -0.6957
vn 0.4874 0.4964 -0.7183
vn -0.6977 -0.7162 0.0160
vn 0.7163 -0.6977 0.0039
vn -0.0083 -0.0142 -0.9999
vn 0.6977 0.7162 -0.0160
vn 0.0083 0.0142 0.9999
vn -0.7163 0.6977 -0.0039
vn 0.3022 -0.9096 -0.2852
vn 0.3104 0.8993 -0.3082
vn 0.2926 -0.9019 0.3176
vn 0.3008 0.9070 0.2947
vn -0.3009 -0.9070 -0.2948
vn -0.2926 0.9019 -0.3177
vn -0.3104 -0.8993 0.3081
vn -0.3021 0.9096 0.2852
vn 0.3118 -0.9500 0.0170
vn 0.7182 -0.0121 -0.6958
vn 0.3206 0.9472 -0.0070
vn 0.6958 0.0059 0.7182
vn -0.0093 -0.9446 0.3282
vn -0.0006 0.9526 0.3041
vn -0.7182 0.0121 0.6958
vn -0.3205 -0.9472 0.0070
vn -0.3119 0.9500 -0.0170
vn -0.6958 -0.0059 -0.7182
vn 0.0006 -0.9526 -0.3041
vn 0.0093 0.9446 -0.3282
vn -0.0046 -0.9999 0.0127
vn 0.9999 -0.0044 0.0158
vn 0.0158 -0.0128 -0.9998
vn 0.0046 0.9999 -0.0127
vn -0.0158 0.0128 0.9998
vn -0.9999 0.0044 -0.0158
vn -0.5443 -0.5579 -0.6265
vn -0.5441 0.5298 -0.6506
vn 0.4392 -0.5598 -0.7027
vn 0.4394 0.5279 -0.7268
vn 0.8156 -0.5396 0.2089
vn 0.8158 0.5481 0.1847
vn 0.0648 -0.5253 0.8484
vn 0.0649 0.5624 0.8243
vn -0.7757 -0.5366 0.3322
vn -0.7755 0.5511 0.3081
vn -0.0000 -1.0000 -0.0000
vn -0.0545 0.6913 -0.7205
vn -0.6486 -0.0168 -0.7610
vn 0.5235 -0.0190 -0.8518
vn 0.6535 -0.7130 -0.2541
vn 0.6537 0.7009 -0.2855
vn 0.9721 0.0051 0.2345
vn 0.4585 -0.6951 0.5538
vn 0.4587 0.7188 0.5224
vn 0.0773 0.0221 0.9968
vn -0.3703 -0.6935 0.6180
vn -0.3701 0.7203 0.5866
vn -0.9243 0.0086 0.3815
vn -0.6875 -0.7105 -0.1502
vn -0.6873 0.7033 -0.1815
vn -0.0001 -0.9998 0.0222
vn 1.0000 -0.0001 -0.0000
vn -0.0000 1.0000 -0.0000
vn 0.0001 0.9998 -0.0222
vn -0.9667 -0.0110 0.2556
vn -0.0110 0.9999 0.0014
vn 0.9667 0.0110 -0.2556
vn 0.0110 -0.9999 -0.0014
vn -0.7372 -0.0090 0.6756
vn 0.7372 0.0090 -0.6756
vn -0.3388 -0.0050 0.9408
vn 0.3388 0.0050 -0.9408
vn 0.1372 0.0001 0.9905
vn -0.1372 -0.0001 -0.9905
vn 0.5818 0.0053 0.8133
vn -0.5818 -0.0053 -0.8133
vn 0.8931 0.0092 0.4498
vn -0.8931 -0.0092 -0.4498
vn 0.9998 0.0110 -0.0168
vn -0.9998 -0.0110 0.0168
vn 0.8775 0.0103 -0.4795
vn -0.8775 -0.0103 0.4795
vn 0.5541 0.0072 -0.8324
vn -0.5541 -0.0072 0.8324
vn 0.1038 0.0025 -0.9946
vn -0.1038 -0.0025 0.9946
vn -0.3703 -0.0028 -0.9289
vn 0.3703 0.0028 0.9289
vn -0.7595 -0.0074 -0.6505
vn 0.7595 0.0074 0.6505
vn -0.9748 -0.0104 -0.2230
vn 0.9748 0.0104 0.2230
vn 0.0109 -0.9999 -0.0014
vn -1.0000 0.0078 -0.0000
vn 0.9335 0.0583 -0.3537
vn -0.0000 -0.0000 1.0000
vn 0.9995 0.0312 -0.0000
vn 0.9988 0.0486 -0.0000
vn 0.9965 -0.0834 -0.0000
vn -0.9995 0.0312 -0.0000
vn 1.0000 -0.0000 -0.0000
vn 0.9701 -0.2425 -0.0000
vn -0.0000 -0.9991 -0.0416
vn -0.9674 0.0073 0.2532
vn 0.0033 0.9999 -0.0162
vn 0.9674 -0.0073 -0.2531
vn -0.0033 -0.9999 0.0162
vn -0.7389 0.0134 0.6737
vn 0.7389 -0.0134 -0.6737
vn -0.3411 0.0164 0.9399
vn 0.3411 -0.0164 -0.9399
vn 0.1348 0.0156 0.9908
vn -0.1348 -0.0156 -0.9908
vn 0.5798 0.0113 0.8147
vn -0.5798 -0.0113 -0.8147
vn 0.8920 0.0044 0.4519
vn -0.8920 -0.0044 -0.4519
vn 0.9999 -0.0035 -0.0143
vn -0.9999 0.0035 0.0143
vn 0.8787 -0.0107 -0.4773
vn -0.8787 0.0107 0.4773
vn 0.5562 -0.0153 -0.8309
vn -0.5562 0.0153 0.8309
vn 0.1063 -0.0165 -0.9942
vn -0.1063 0.0165 0.9942
vn -0.3680 -0.0139 -0.9297
vn 0.3680 0.0139 0.9297
vn -0.7580 -0.0081 -0.6522
vn 0.7580 0.0081 0.6523
vn -0.9743 -0.0004 -0.2254
vn 0.9743 0.0004 0.2254
vn 0.9636 0.2673 -0.0000
vn -0.0000 -0.0000 -1.0000
vn -1.0000 -0.0000 -0.0000
vn -1.0000 -0.0005 -0.0000
vn -0.0000 0.9996 -0.0278
vn -0.5019 0.8649 -0.0000
vn 0.1601 -0.9871 -0.0000
vn 0.7148 -0.0195 -0.6991
vn 0.7139 0.0582 -0.6979
vn 0.6991 -0.0397 0.7139
vn 0.6982 0.0380 0.7149
vn -0.6982 -0.0380 -0.7149
vn -0.6991 0.0397 -0.7140
vn -0.7139 -0.0582 0.6978
vn -0.7147 0.0195 0.6992
vn 0.9991 -0.0419 0.0104
vn 0.7147 0.0193 -0.6992
vn 0.9976 0.0679 0.0120
vn 0.6991 -0.0008 0.7150
vn -0.0103 -0.0691 0.9976
vn -0.0117 0.0407 0.9991
vn -0.7148 -0.0193 0.6991
vn -0.9976 -0.0680 -0.0120
vn -0.9991 0.0419 -0.0104
vn -0.6990 0.0008 -0.7151
vn 0.0117 -0.0407 -0.9991
vn 0.0103 0.0691 -0.9976
vn 0.0132 -0.9998 -0.0141
vn 0.9999 0.0131 0.0112
vn 0.0110 0.0143 -0.9998
vn -0.0132 0.9998 0.0141
vn -0.0110 -0.0143 0.9998
vn -0.9999 -0.0131 -0.0112
vn 0.7111 -0.0369 -0.7021
vn 0.7098 0.0408 -0.7032
vn 0.7031 -0.0191 0.7108
vn 0.7020 0.0586 0.7098
vn -0.7018 -0.0586 -0.7100
vn -0.7031 0.0191 -0.7108
vn -0.7098 -0.0408 0.7032
vn -0.7108 0.0369 0.7024
vn 0.9992 -0.0396 0.0061
vn 0.7111 0.0019 -0.7031
vn 0.9975 0.0702 0.0047
vn 0.7030 0.0198 0.7109
vn -0.0047 -0.0423 0.9991
vn -0.0064 0.0675 0.9977
vn -0.7108 -0.0019 0.7034
vn -0.9975 -0.0703 -0.0047
vn -0.9992 0.0396 -0.0061
vn -0.7031 -0.0198 -0.7108
vn 0.0064 -0.0675 -0.9977
vn 0.0047 0.0423 -0.9991
vn 0.0153 -0.9998 0.0127
vn 0.9999 0.0154 0.0054
vn 0.0056 -0.0126 -0.9999
vn -0.0153 0.9998 -0.0127
vn -0.0056 0.0126 0.9999
vn -0.9999 -0.0154 -0.0054
vn 0.7166 -0.0509 -0.6956
vn 0.7172 0.0269 -0.6964
vn 0.6958 -0.0404 0.7171
vn 0.6963 0.0373 0.7168
vn -0.6963 -0.0373 -0.7167
vn -0.6959 0.0404 -0.7170
vn -0.7172 -0.0269 0.6964
vn -0.7167 0.0509 0.6956
vn 0.9978 -0.0645 0.0152
vn 0.7174 -0.0120 -0.6965
vn 0.9989 0.0453 0.0144
vn 0.6965 -0.0016 0.7175
vn -0.0153 -0.0475 0.9988
vn -0.0142 0.0623 0.9980
vn -0.7175 0.0120 0.6965
vn -0.9989 -0.0453 -0.0144
vn -0.9978 0.0645 -0.0152
vn -0.6967 0.0016 -0.7174
vn 0.0142 -0.0623 -0.9980
vn 0.0153 0.0475 -0.9988
vn -0.0097 -0.9999 0.0072
vn 0.9998 -0.0096 0.0148
vn 0.0148 -0.0074 -0.9999
vn 0.0097 0.9999 -0.0072
vn -0.0148 0.0074 0.9999
vn -0.9998 0.0096 -0.0148
vn 0.7117 -0.0254 -0.7020
vn 0.7114 0.0523 -0.7008
vn 0.7017 -0.0479 0.7108
vn 0.7014 0.0298 0.7122
vn -0.7014 -0.0298 -0.7122
vn -0.7019 0.0479 -0.7106
vn -0.7112 -0.0523 0.7010
vn -0.7117 0.0254 0.7020
vn 0.9986 -0.0518 0.0063
vn 0.7123 0.0134 -0.7018
vn 0.9983 0.0580 0.0081
vn 0.7020 -0.0090 0.7121
vn -0.0070 -0.0708 0.9975
vn -0.0073 0.0390 0.9992
vn -0.7122 -0.0134 0.7019
vn -0.9983 -0.0580 -0.0081
vn -0.9986 0.0518 -0.0063
vn -0.7020 0.0090 -0.7121
vn 0.0073 -0.0390 -0.9992
vn 0.0070 0.0708 -0.9975
vn 0.0032 -0.9999 -0.0159
vn 1.0000 0.0031 0.0072
vn 0.0071 0.0159 -0.9998
vn -0.0032 0.9999 0.0159
vn -0.0071 -0.0159 0.9998
vn -1.0000 -0.0031 -0.0072
vn 0.7086 -0.0518 -0.7037
vn 0.7101 0.0259 -0.7037
vn 0.7030 -0.0486 0.7096
vn 0.7046 0.0291 0.7090
vn -0.7043 -0.0291 -0.7093
vn -0.7032 0.0487 -0.7093
vn -0.7097 -0.0259 0.7040
vn -0.7088 0.0518 0.7035
vn 0.9975 -0.0710 0.0041
vn 0.7099 -0.0130 -0.7042
vn 0.9992 0.0388 0.0039
vn 0.7046 -0.0098 0.7096
vn -0.0049 -0.0527 0.9986
vn -0.0031 0.0572 0.9984
vn -0.7100 0.0130 0.7041
vn -0.9992 -0.0388 -0.0039
vn -0.9975 0.0710 -0.0041
vn -0.7041 0.0098 -0.7101
vn 0.0031 -0.0572 -0.9984
vn 0.0049 0.0527 -0.9986
vn -0.0161 -0.9999 0.0022
vn 0.9999 -0.0161 0.0040
vn 0.0040 -0.0022 -1.0000
vn 0.0161 0.9999 -0.0022
vn -0.0040 0.0022 1.0000
vn -0.9999 0.0161 -0.0040
vn -0.1312 -0.9490 -0.2867
vn -0.6974 -0.6608 -0.2775
vn 0.2075 -0.9648 -0.1617
vn 0.1935 -0.9606 0.1994
vn -0.1538 -0.9422 0.2975
vn -0.9019 -0.3136 -0.2969
vn -0.0062 -0.3647 -0.9311
vn 0.8735 -0.4026 -0.2738
vn 0.5214 -0.3749 0.7666
vn -0.5759 -0.3199 0.7523
vn -0.7842 -0.1030 -0.6119
vn 0.3351 -0.1623 -0.9281
vn 0.9818 -0.1855 0.0401
vn 0.2623 -0.1405 0.9547
vn -0.8292 -0.0896 0.5517
vn -0.3347 0.7040 -0.6264
vn 0.5091 0.6623 -0.5497
vn 0.6974 0.6608 0.2775
vn -0.0302 0.7015 0.7120
vn -0.6680 0.7282 0.1533
vn -0.2075 0.9648 0.1617
vn -0.4363 0.8441 0.3116
vn -0.3815 0.7179 0.5823
vn 0.1312 0.9490 0.2867
vn 0.1972 0.8146 0.5455
vn 0.4657 0.6753 0.5719
vn 0.3545 0.9350 0.0029
vn 0.6149 0.7885 0.0147
vn 0.7173 0.6549 -0.2380
vn 0.1538 0.9422 -0.2975
vn 0.2395 0.8019 -0.5473
vn 0.0256 0.6849 -0.7282
vn -0.1935 0.9606 -0.1994
vn -0.4102 0.8363 -0.3638
vn -0.6535 0.7239 -0.2212
vn -0.8735 0.4026 0.2738
vn -0.8026 0.2490 0.5421
vn -0.5787 0.3920 0.7152
vn 0.0062 0.3647 0.9311
vn 0.2762 0.1987 0.9403
vn 0.5164 0.3377 0.7870
vn 0.9019 0.3136 0.2969
vn 0.9874 0.1543 0.0364
vn 0.9225 0.3075 -0.2335
vn 0.5759 0.3199 -0.7523
vn 0.3481 0.1772 -0.9205
vn 0.0784 0.3431 -0.9360
vn -0.5214 0.3749 -0.7666
vn -0.7581 0.2358 -0.6080
vn -0.8494 0.3954 -0.3497
vn -0.3351 0.1623 0.9281
vn -0.3481 -0.1772 0.9205
vn -0.0784 -0.3431 0.9360
vn 0.7842 0.1030 0.6119
vn 0.7581 -0.2358 0.6080
vn 0.8493 -0.3954 0.3497
vn 0.8292 0.0896 -0.5517
vn 0.8026 -0.2490 -0.5421
vn 0.5787 -0.3920 -0.7152
vn -0.2623 0.1405 -0.9547
vn -0.2762 -0.1987 -0.9403
vn -0.5164 -0.3377 -0.7870
vn -0.9818 0.1855 -0.0401
vn -0.9874 -0.1543 -0.0364
vn -0.9225 -0.3075 0.2335
vn -0.5091 -0.6623 0.5497
vn -0.2395 -0.8019 0.5473
vn -0.0256 -0.6849 0.7282
vn 0.3347 -0.7040 0.6264
vn 0.4102 -0.8363 0.3638
vn 0.6535 -0.7239 0.2212
vn 0.6680 -0.7282 -0.1533
vn 0.4363 -0.8441 -0.3116
vn 0.3815 -0.7179 -0.5823
vn -0.7173 -0.6549 0.2380
vn -0.6149 -0.7885 -0.0147
vn -0.3545 -0.9350 -0.0029
vn 0.0301 -0.7015 -0.7120
vn -0.1972 -0.8146 -0.5455
vn -0.4657 -0.6753 -0.5719
vn -0.1540 -0.9131 -0.3776
vn -0.7781 -0.5417 -0.3179
vn 0.2883 -0.9336 -0.2128
vn 0.2687 -0.9277 0.2592
vn -0.1858 -0.9035 0.3861
vn -0.9235 -0.2268 -0.3093
vn 0.0012 -0.2801 -0.9600
vn 0.9056 -0.3185 -0.2802
vn 0.5397 -0.2889 0.7907
vn -0.5907 -0.2323 0.7727
vn -0.7840 -0.0679 -0.6171
vn 0.3410 -0.1277 -0.9313
vn 0.9877 -0.1501 0.0429
vn 0.2624 -0.1041 0.9593
vn -0.8325 -0.0533 0.5514
vn -0.3872 0.5896 -0.7088
vn 0.5678 0.5425 -0.6191
vn 0.7781 0.5417 0.3179
vn -0.0468 0.5883 0.8073
vn -0.7671 0.6179 0.1728
vn -0.2883 0.9336 0.2128
vn -0.5381 0.7551 0.3745
vn -0.4441 0.6067 0.6593
vn 0.1540 0.9131 0.3776
vn 0.2220 0.7199 0.6577
vn 0.5150 0.5584 0.6504
vn 0.4470 0.8945 0.0074
vn 0.7255 0.6879 0.0216
vn 0.8024 0.5344 -0.2656
vn 0.1858 0.9035 -0.3862
vn 0.2766 0.7035 -0.6547
vn 0.0210 0.5679 -0.8228
vn -0.2687 0.9277 -0.2592
vn -0.5044 0.7450 -0.4366
vn -0.7494 0.6126 -0.2512
vn -0.9056 0.3184 0.2802
vn -0.8146 0.1978 0.5453
vn -0.6032 0.3080 0.7357
vn -0.0012 0.2801 0.9600
vn 0.2734 0.1474 0.9506
vn 0.5248 0.2521 0.8130
vn 0.9235 0.2268 0.3093
vn 0.9940 0.1017 0.0401
vn 0.9462 0.2200 -0.2371
vn 0.5907 0.2323 -0.7727
vn 0.3515 0.1239 -0.9280
vn 0.0787 0.2560 -0.9635
vn -0.5397 0.2889 -0.7907
vn -0.7663 0.1834 -0.6157
vn -0.8789 0.3104 -0.3622
vn -0.3410 0.1277 0.9313
vn -0.3515 -0.1239 0.9280
vn -0.0787 -0.2560 0.9635
vn 0.7840 0.0679 0.6171
vn 0.7663 -0.1834 0.6157
vn 0.8789 -0.3104 0.3622
vn 0.8325 0.0533 -0.5514
vn 0.8146 -0.1979 -0.5453
vn 0.6032 -0.3080 -0.7357
vn -0.2624 0.1041 -0.9593
vn -0.2734 -0.1474 -0.9506
vn -0.5248 -0.2521 -0.8130
vn -0.9877 0.1501 -0.0429
vn -0.9940 -0.1017 -0.0401
vn -0.9462 -0.2200 0.2371
vn -0.5678 -0.5425 0.6191
vn -0.2765 -0.7035 0.6547
vn -0.0210 -0.5679 0.8228
vn 0.3872 -0.5896 0.7088
vn 0.5044 -0.7450 0.4366
vn 0.7494 -0.6126 0.2512
vn 0.7671 -0.6179 -0.1728
vn 0.5381 -0.7551 -0.3745
vn 0.4441 -0.6067 -0.6593
vn -0.8024 -0.5344 0.2656
vn -0.7255 -0.6879 -0.0216
vn -0.4470 -0.8945 -0.0074
vn 0.0468 -0.5883 -0.8073
vn -0.2220 -0.7198 -0.6577
vn -0.5150 -0.5584 -0.6504
vn -0.3331 -0.9359 -0.1148
vn 0.5847 0.8085 -0.0675
vn -0.3374 -0.9386 0.0713
vn 0.5802 0.8058 0.1186
vn -0.5802 -0.8058 -0.1186
vn 0.3374 0.9386 -0.0713
vn -0.5846 -0.8085 0.0675
vn 0.3331 0.9359 0.1148
vn -0.3367 -0.9414 -0.0218
vn 0.7491 -0.3794 -0.5431
vn 0.5850 0.8107 0.0257
vn 0.7232 -0.3958 0.5659
vn -0.4656 -0.8822 0.0701
vn 0.4612 0.8794 0.1179
vn -0.7491 0.3794 0.5431
vn -0.5849 -0.8107 -0.0257
vn 0.3367 0.9414 0.0218
vn -0.7232 0.3958 -0.5659
vn -0.4612 -0.8794 -0.1179
vn 0.4656 0.8822 -0.0701
vn -0.4654 -0.8848 -0.0240
vn 0.8848 -0.4658 0.0137
vn 0.0233 0.0148 -0.9996
vn 0.4654 0.8848 0.0240
vn -0.0233 -0.0148 0.9996
vn -0.8848 0.4658 -0.0137
vn 0.5758 -0.8132 -0.0847
vn -0.3236 0.9413 -0.0965
vn 0.5722 -0.8138 0.1015
vn -0.3271 0.9407 0.0897
vn 0.3271 -0.9407 -0.0897
vn -0.5722 0.8138 -0.1015
vn 0.3238 -0.9412 0.0965
vn -0.5757 0.8133 0.0847
vn 0.5765 -0.8170 0.0085
vn 0.7507 0.3812 -0.5396
vn -0.3268 0.9451 -0.0034
vn 0.7299 0.3780 0.5696
vn 0.4524 -0.8862 0.1000
vn -0.4559 0.8857 0.0881
vn -0.7507 -0.3812 0.5396
vn 0.3268 -0.9451 0.0034
vn -0.5765 0.8171 -0.0085
vn -0.7299 -0.3780 -0.5696
vn 0.4559 -0.8857 -0.0880
vn -0.4524 0.8862 -0.1000
vn 0.4562 -0.8899 0.0060
vn 0.8897 0.4562 0.0180
vn 0.0187 0.0029 -0.9998
vn -0.4562 0.8899 -0.0060
vn -0.0187 -0.0029 0.9998
vn -0.8897 -0.4562 -0.0180
vn 0.4882 -0.8658 -0.1099
vn 0.4869 0.8685 -0.0927
vn 0.4887 -0.8678 0.0903
vn 0.4874 0.8666 0.1073
vn -0.4876 -0.8665 -0.1074
vn -0.4889 0.8677 -0.0903
vn -0.4870 -0.8685 0.0927
vn -0.4884 0.8657 0.1098
vn 0.4909 -0.8712 -0.0098
vn 0.9791 0.0027 -0.2034
vn 0.4896 0.8719 0.0073
vn 0.9801 -0.0012 0.1984
vn 0.0010 -0.9945 0.1048
vn -0.0004 0.9922 0.1244
vn -0.9791 -0.0027 0.2034
vn -0.4897 -0.8718 -0.0073
vn -0.4907 0.8713 0.0098
vn -0.9801 0.0012 -0.1984
vn 0.0004 -0.9922 -0.1244
vn -0.0010 0.9945 -0.1048
vn 0.0007 -1.0000 -0.0099
vn 1.0000 0.0008 -0.0026
vn -0.0026 0.0099 -0.9999
vn -0.0007 1.0000 0.0099
vn 0.0026 -0.0099 0.9999
vn -1.0000 -0.0008 0.0026
vn 0.7065 0.0012 -0.7077
vn 0.0112 -0.9587 0.2840
vn 0.1264 0.9920 -0.0061
vn 0.7812 0.6241 -0.0154
vn -0.4874 -0.4964 0.7183
vn 0.4992 0.5165 0.6957
vn 0.3204 0.9473 -0.0070
vn -0.0093 -0.9446 0.3281
vn -0.3206 -0.9472 0.0070
vn -0.3118 0.9500 -0.0170
vn -0.0547 -0.7226 -0.6891
vn -0.0002 -0.9998 0.0221
vn -0.0002 -0.9998 0.0222
vn 0.0002 0.9998 -0.0222
vn 1.0000 0.0002 -0.0000
vn 0.9944 0.0057 -0.1052
vn -0.9998 -0.0208 -0.0000
vn -0.6445 -0.0000 0.7646
vn -0.9142 0.4052 -0.0000
vn -0.7071 -0.7072 -0.0000
vn 0.9439 0.3301 -0.0000
vn -0.9953 0.0968 -0.0000
vn -0.9988 0.0485 -0.0000
vn 1.0000 -0.0016 -0.0000
vn -1.0000 0.0019 -0.0000
vn 1.0000 0.0009 -0.0000
vn -0.0058 -1.0000 -0.0000
vn -0.8684 0.4958 -0.0000
vn -0.9853 0.1711 -0.0000
vn 0.9674 -0.0073 -0.2532
vn 0.8787 -0.0106 -0.4773
vn -0.7579 -0.0081 -0.6523
vn 0.9934 0.0033 0.1147
vn 0.8944 0.4472 -0.0000
vn 0.3713 -0.9285 -0.0000
vn -0.0000 -0.0350 -0.9994
vn -0.9775 0.2109 -0.0000
vn 0.9935 -0.1139 -0.0000
vn 0.9990 0.0439 -0.0000
vn -0.0000 0.9977 -0.0682
vn -1.0000 -0.0021 -0.0000
vn -0.9990 0.0438 -0.0000
vn 0.1974 -0.0000 -0.9803
vn 0.5019 0.8649 -0.0000
vn 0.5599 -0.8286 -0.0000
vn -0.3148 -0.9492 -0.0000
vn 0.5890 0.8057 -0.0627
vn 0.7468 0.6648 -0.0203
vn -0.9746 -0.2240 -0.0000
vn 0.7150 0.0193 -0.6989
vn 0.9976 0.0680 0.0120
vn 0.6991 -0.0008 0.7151
vn -0.7148 -0.0193 0.6990
vn -0.6992 0.0008 -0.7149
vn 0.7110 0.0019 -0.7032
vn 0.9975 0.0703 0.0047
vn 0.7032 0.0198 0.7107
vn -0.7110 -0.0019 0.7032
vn -0.9975 -0.0702 -0.0047
vn -0.7030 -0.0198 -0.7109
vn 0.6965 -0.0016 0.7176
vn -0.7174 0.0120 0.6965
vn -0.6965 0.0016 -0.7176
vn 0.7120 0.0134 -0.7020
vn 0.7021 -0.0090 0.7121
vn -0.7021 0.0090 -0.7120
vn 0.7098 -0.0130 -0.7043
vn 0.7040 -0.0098 0.7101
vn -0.7096 0.0130 0.7044
vn -0.7042 0.0098 -0.7099
vn -0.3368 -0.9413 -0.0218
vn 0.5850 0.8106 0.0257
vn -0.5850 -0.8106 -0.0257
vn 0.3367 0.9413 0.0218
vn 0.5765 -0.8171 0.0085
vn -0.3270 0.9450 -0.0034
vn -0.4559 0.8857 0.0880
vn 0.3269 -0.9451 0.0034
vn 0.4559 -0.8857 -0.0881
vn 0.4908 -0.8712 -0.0098
vn 0.4897 0.8719 0.0073
vn -0.4895 -0.8720 -0.0073
vn -0.4910 0.8711 0.0098
vt 0.128500 0.746500
vt 0.128500 0.750000
vt 0.125000 0.746500
vt 0.621500 0.996500
vt 0.625000 0.996500
vt 0.621500 1.000000
vt 0.128500 0.503500
vt 0.125000 0.503500
vt 0.128500 0.500000
vt 0.625000 0.250015
vt 0.621500 0.253500
vt 0.621500 0.246501
vt 0.371500 0.746500
vt 0.378499 0.746500
vt 0.378362 0.753431
vt 0.628431 0.746638
vt 0.621500 0.753500
vt 0.621500 0.746501
vt 0.371500 0.503500
vt 0.378362 0.496569
vt 0.378499 0.503500
vt 0.628431 0.503363
vt 0.621500 0.503500
vt 0.621500 0.496501
vt 0.621500 0.000000
vt 0.378500 0.003500
vt 0.378500 0.000000
vt 0.621500 0.003500
vt 0.625000 0.003500
vt 0.378500 0.253500
vt 0.378500 0.246500
vt 0.378500 0.996500
vt 0.871500 0.503500
vt 0.378362 0.496569
vt 0.378499 0.746500
vt 0.621500 0.246501
vt 0.621500 0.496501
vt 0.871500 0.746500
vt 0.750000 0.315630
vt 0.635873 0.407082
vt 0.864127 0.407082
vt 0.250000 0.315630
vt 0.364127 0.407082
vt 0.135873 0.407082
vt 0.812418 0.270281
vt 0.864127 0.407082
vt 0.934661 0.190000
vt 0.312418 0.270281
vt 0.434661 0.190000
vt 0.364127 0.407082
vt 0.788576 0.196904
vt 0.934661 0.190000
vt 0.750000 0.055836
vt 0.288576 0.196904
vt 0.250000 0.055836
vt 0.711424 0.196904
vt 0.565339 0.190000
vt 0.211424 0.196904
vt 0.065339 0.190000
vt 0.250000 0.055836
vt 0.687582 0.270281
vt 0.565339 0.190000
vt 0.635873 0.407082
vt 0.187582 0.270281
vt 0.135873 0.407082
vt 0.065339 0.190000
vt 0.100000 0.978775
vt 0.000000 0.521226
vt 0.100000 0.521226
vt 0.700000 0.978774
vt 0.900000 0.521226
vt 0.900000 0.978774
vt 0.500000 0.521226
vt 0.500000 0.978774
vt 0.300000 0.521226
vt 0.300000 0.978775
vt 0.300000 0.978775
vt 0.900000 0.521226
vt 0.700000 0.521226
vt 0.700000 0.521226
vt 0.538462 0.375000
vt 0.615385 0.625000
vt 0.538462 0.625000
vt 0.538462 0.625000
vt 0.615385 0.875000
vt 0.538462 0.875000
vt 0.615385 0.000000
vt 0.538462 0.125000
vt 0.538462 0.000000
vt 0.615385 0.125000
vt 0.538462 0.375000
vt 0.538462 0.125000
vt 0.692308 0.375000
vt 0.615385 0.375000
vt 0.692308 0.625000
vt 0.615385 0.625000
vt 0.692308 0.000000
vt 0.615385 0.125000
vt 0.692308 0.125000
vt 0.615385 0.375000
vt 0.769231 0.375000
vt 0.692308 0.625000
vt 0.769231 0.875000
vt 0.692308 0.875000
vt 0.769231 0.125000
vt 0.692308 0.125000
vt 0.769231 0.125000
vt 0.692308 0.375000
vt 0.846154 0.375000
vt 0.769231 0.625000
vt 0.769231 0.625000
vt 0.846154 0.875000
vt 0.769231 0.000000
vt 0.846154 0.125000
vt 0.846154 0.125000
vt 0.769231 0.375000
vt 0.923077 0.375000
vt 0.846154 0.625000
vt 0.923077 0.625000
vt 0.846154 0.625000
vt 0.846154 0.000000
vt 0.923077 0.125000
vt 0.923077 0.125000
vt 0.846154 0.375000
vt 1.000000 0.375000
vt 0.923077 0.625000
vt 1.000000 0.875000
vt 0.923077 0.875000
vt 0.923077 0.000000
vt 1.000000 0.125000
vt 1.000000 0.125000
vt 0.923077 0.375000
vt -0.000000 0.375000
vt 0.076923 0.625000
vt -0.000000 0.625000
vt 0.076923 0.625000
vt -0.000000 0.875000
vt -0.000000 0.625000
vt 0.076923 0.000000
vt -0.000000 0.125000
vt -0.000000 0.000000
vt 0.076923 0.125000
vt -0.000000 0.375000
vt -0.000000 0.125000
vt 0.153846 0.375000
vt 0.076923 0.375000
vt 0.153846 0.625000
vt 0.076923 0.875000
vt 0.153846 0.125000
vt 0.076923 0.125000
vt 0.153846 0.375000
vt 0.076923 0.375000
vt 0.230769 0.375000
vt 0.153846 0.625000
vt 0.230769 0.625000
vt 0.153846 0.875000
vt 0.230769 0.000000
vt 0.153846 0.000000
vt 0.153846 0.125000
vt 0.230769 0.375000
vt 0.307692 0.375000
vt 0.230769 0.625000
vt 0.307692 0.875000
vt 0.230769 0.875000
vt 0.307692 0.000000
vt 0.230769 0.125000
vt 0.230769 0.125000
vt 0.307692 0.375000
vt 0.384615 0.375000
vt 0.307692 0.625000
vt 0.384615 0.625000
vt 0.307692 0.625000
vt 0.384615 0.125000
vt 0.307692 0.125000
vt 0.307692 0.125000
vt 0.384615 0.375000
vt 0.461538 0.375000
vt 0.384615 0.625000
vt 0.461539 0.875000
vt 0.384615 0.875000
vt 0.461538 0.000000
vt 0.384615 0.000000
vt 0.384615 0.125000
vt 0.461538 0.375000
vt 0.461538 0.625000
vt 0.461538 0.625000
vt 0.461538 0.125000
vt 0.615385 0.875000
vt 0.538462 0.875000
vt 0.461538 0.875000
vt 0.461538 0.125000
vt 0.692308 0.875000
vt 0.769231 0.875000
vt 0.846154 0.875000
vt 0.923077 0.875000
vt 1.000000 0.625000
vt 0.076923 0.875000
vt -0.000000 0.875000
vt 0.153846 0.875000
vt 0.230769 0.875000
vt 0.307692 0.875000
vt 0.384615 0.875000
vt 0.538462 0.125000
vt 0.615385 0.375000
vt 1.000000 0.000000
vt 1.000000 0.875000
vt 0.181819 0.000000
vt 0.227273 0.078731
vt 0.136365 0.078731
vt 0.272728 0.157461
vt 0.318182 0.078731
vt 0.363637 0.157461
vt 0.909091 0.000000
vt 0.954545 0.078731
vt 0.863636 0.078731
vt 0.727273 0.000000
vt 0.772727 0.078731
vt 0.681818 0.078731
vt 0.545455 0.000000
vt 0.590909 0.078731
vt 0.500000 0.078731
vt 0.318182 0.236191
vt 0.090910 0.157461
vt 0.181819 0.157461
vt 0.136365 0.236191
vt 0.818182 0.157461
vt 0.909091 0.157461
vt 0.863636 0.236191
vt 0.636364 0.157461
vt 0.727273 0.157461
vt 0.681818 0.236191
vt 0.454546 0.157461
vt 0.545455 0.157461
vt 0.500000 0.236191
vt 0.227273 0.236191
vt 0.045455 0.236191
vt 0.772727 0.236191
vt 0.590909 0.236191
vt 0.409092 0.236191
vt 0.181819 0.314921
vt 0.272728 0.314921
vt 0.227273 0.393651
vt 0.000000 0.314921
vt 0.090910 0.314921
vt 0.045455 0.393651
vt 0.727273 0.314921
vt 0.818182 0.314921
vt 0.772727 0.393651
vt 0.545455 0.314921
vt 0.636364 0.314921
vt 0.590909 0.393651
vt 0.363637 0.314921
vt 0.454546 0.314921
vt 0.409092 0.393651
vt 0.500000 0.393651
vt 0.454546 0.472382
vt 0.681818 0.393651
vt 0.636364 0.472382
vt 0.863636 0.393651
vt 0.818182 0.472382
vt 0.909091 0.314921
vt 0.136365 0.393651
vt 0.090910 0.472382
vt 0.318182 0.393651
vt 0.272728 0.472382
vt 0.954545 0.236191
vt 1.000000 0.157461
vt 0.409092 0.078731
vt 0.363637 0.000000
vt 0.000000 0.978774
vt 0.900000 0.978774
vt 1.000000 0.625000
vt 1.000000 0.375000
s 0
usemtl stone
f 1/1/1 2/2/1 3/3/1
f 4/4/2 5/5/2 6/6/2
f 7/7/3 8/8/3 9/9/3
f 10/10/4 11/11/4 12/12/4
f 13/13/5 14/14/5 15/15/5
f 16/16/6 17/17/6 18/18/6
f 19/19/7 20/20/7 21/21/7
f 22/22/8 23/23/8 24/24/8
f 1/1/9 8/8/9 7/7/9
f 4/25/10 3/26/10 2/27/10
f 10/10/11 6/28/11 5/29/11
f 9/30/12 12/12/12 11/11/12
f 7/7/13 20/20/13 19/19/13
f 22/22/14 11/11/14 10/10/14
f 21/21/15 24/24/15 23/23/15
f 13/13/16 21/21/16 14/14/16
f 16/16/17 23/23/17 22/22/17
f 15/15/18 18/18/18 17/17/18
f 1/1/19 15/15/19 2/2/19
f 5/5/20 17/17/20 16/16/20
f 19/19/21 1/1/21 7/7/21
f 6/28/22 8/31/22 3/26/22
f 17/17/23 2/32/23 15/15/23
f 10/33/24 16/16/24 22/22/24
f 11/11/25 20/20/25 9/30/25
f 23/23/26 14/14/26 21/21/26
f 1/1/9 3/3/9 8/8/9
f 4/25/628 6/28/628 3/26/628
f 10/10/11 12/12/11 6/28/11
f 9/30/12 8/31/12 12/12/12
f 7/7/629 9/9/629 20/20/629
f 22/22/14 24/24/14 11/11/14
f 21/21/15 20/20/15 24/24/15
f 13/13/16 19/19/16 21/21/16
f 16/16/17 18/18/17 23/23/17
f 15/15/18 14/14/18 18/18/18
f 1/1/19 13/13/19 15/15/19
f 5/5/20 4/4/20 17/17/20
f 19/19/21 13/13/21 1/1/21
f 6/28/22 12/12/22 8/31/22
f 17/17/23 4/4/23 2/32/23
f 10/33/24 5/38/24 16/16/24
f 11/11/25 24/24/25 20/20/25
f 23/23/26 18/18/26 14/14/26
usemtl wood
f 25/1/27 26/2/27 27/3/27
f 28/4/28 29/5/28 30/6/28
f 31/7/29 32/8/29 33/9/29
f 34/10/30 35/11/30 36/12/30
f 37/13/31 38/14/31 39/15/31
f 40/16/32 41/17/32 42/18/32
f 43/19/33 44/34/33 45/21/33
f 46/22/34 47/23/34 48/24/34
f 25/1/35 32/8/35 31/7/35
f 26/27/36 30/28/36 27/26/36
f 29/29/37 36/12/37 30/28/37
f 33/30/38 36/12/38 35/11/38
f 31/7/39 44/34/39 43/19/39
f 46/22/40 35/11/40 34/10/40
f 45/21/41 48/24/41 47/23/41
f 43/19/42 38/14/42 37/13/42
f 46/22/43 42/18/43 47/23/43
f 39/15/44 42/18/44 41/17/44
f 25/1/45 39/15/45 26/2/45
f 29/5/46 41/17/46 40/16/46
f 31/7/47 37/13/47 25/1/47
f 30/28/48 32/31/48 27/26/48
f 41/17/49 26/32/49 39/15/49
f 34/33/50 40/16/50 46/22/50
f 35/11/51 44/34/51 33/30/51
f 45/21/52 42/18/52 38/14/52
f 73/1/79 74/2/79 75/3/79
f 76/4/80 77/5/80 78/6/80
f 79/7/81 80/8/81 81/9/81
f 82/10/82 83/11/82 84/36/82
f 85/13/83 86/14/83 87/15/83
f 88/16/84 89/17/84 90/18/84
f 91/19/85 92/20/85 93/21/85
f 94/22/86 95/23/86 96/24/86
f 73/1/87 80/8/87 79/7/87
f 76/25/88 75/26/88 74/27/88
f 82/10/89 78/28/89 77/29/89
f 81/30/90 84/36/90 83/11/90
f 79/7/91 92/20/91 91/19/91
f 94/22/92 83/11/92 82/10/92
f 95/23/93 92/20/93 96/24/93
f 85/13/94 93/21/94 86/14/94
f 88/16/95 95/23/95 94/22/95
f 89/17/96 86/14/96 90/18/96
f 85/13/97 74/2/97 73/1/97
f 77/5/98 89/17/98 88/16/98
f 91/19/99 73/1/99 79/7/99
f 78/28/100 80/31/100 75/26/100
f 89/17/101 74/32/101 87/15/101
f 82/33/102 88/16/102 94/22/102
f 83/11/103 92/20/103 81/30/103
f 95/23/104 86/14/104 93/21/104
f 97/1/105 98/2/105 99/3/105
f 100/4/106 101/5/106 102/6/106
f 103/7/107 104/8/107 105/9/107
f 106/10/108 107/11/108 108/36/108
f 109/13/109 110/14/109 111/15/109
f 112/16/110 113/17/110 114/18/110
f 115/19/111 116/20/111 117/21/111
f 118/22/112 119/23/112 120/37/112
f 97/1/113 104/8/113 103/7/113
f 100/25/114 99/26/114 98/27/114
f 101/29/115 108/36/115 102/28/115
f 105/30/116 108/36/116 107/11/116
f 103/7/117 116/20/117 115/19/117
f 106/10/118 120/37/118 107/11/118
f 117/21/119 120/37/119 119/23/119
f 115/19/120 110/14/120 109/13/120
f 112/16/121 119/23/121 118/22/121
f 113/17/122 110/14/122 114/18/122
f 109/13/123 98/2/123 97/1/123
f 112/16/124 100/4/124 113/17/124
f 115/19/125 97/1/125 103/7/125
f 99/26/126 108/36/126 104/31/126
f 113/17/127 98/32/127 111/15/127
f 106/33/128 112/16/128 118/22/128
f 107/11/129 116/20/129 105/30/129
f 117/21/130 114/18/130 110/14/130
f 587/1/550 588/2/550 589/3/550
f 590/4/551 591/5/551 592/6/551
f 593/7/552 594/8/552 595/9/552
f 596/10/553 597/11/553 598/36/553
f 599/13/554 600/14/554 601/15/554
f 602/16/555 603/17/555 604/18/555
f 605/19/556 606/34/556 607/21/556
f 608/22/557 609/23/557 610/37/557
f 587/1/558 594/8/558 593/7/558
f 588/27/559 592/28/559 589/26/559
f 596/10/560 592/28/560 591/29/560
f 595/30/561 598/36/561 597/11/561
f 593/7/562 606/34/562 605/19/562
f 608/22/563 597/11/563 596/10/563
f 607/21/564 610/37/564 609/23/564
f 605/19/565 600/14/565 599/13/565
f 608/22/566 604/18/566 609/23/566
f 603/17/567 600/14/567 604/18/567
f 599/13/568 588/2/568 587/1/568
f 602/16/569 590/4/569 603/17/569
f 593/7/570 599/13/570 587/1/570
f 589/26/571 598/36/571 594/31/571
f 603/17/572 588/32/572 601/15/572
f 608/22/573 591/38/573 602/16/573
f 597/11/574 606/34/574 595/30/574
f 609/23/575 600/14/575 607/21/575
f 611/1/576 612/2/576 613/3/576
f 614/4/577 615/5/577 616/6/577
f 617/7/578 618/8/578 619/9/578
f 620/10/579 621/11/579 622/12/579
f 623/13/580 624/14/580 625/15/580
f 626/16/581 627/17/581 628/18/581
f 629/19/582 630/34/582 631/21/582
f 632/22/583 633/23/583 634/24/583
f 611/1/584 618/8/584 617/7/584
f 612/27/585 616/28/585 613/26/585
f 620/10/586 616/28/586 615/29/586
f 621/11/587 618/31/587 622/12/587
f 629/19/588 619/9/588 630/34/588
f 632/22/589 621/11/589 620/10/589
f 631/21/590 634/24/590 633/23/590
f 629/19/591 624/14/591 623/13/591
f 626/16/592 633/23/592 632/22/592
f 625/15/593 628/18/593 627/17/593
f 611/1/594 625/15/594 612/2/594
f 615/5/595 627/17/595 626/16/595
f 629/19/596 611/1/596 617/7/596
f 616/28/597 618/31/597 613/26/597
f 627/17/598 612/32/598 625/15/598
f 620/33/599 626/16/599 632/22/599
f 619/30/600 634/24/600 630/34/600
f 631/21/601 628/18/601 624/14/601
f 635/1/602 636/2/602 637/3/602
f 638/4/603 639/5/603 640/6/603
f 641/7/604 642/8/604 643/9/604
f 644/10/605 645/11/605 646/12/605
f 647/13/606 648/35/606 649/15/606
f 650/16/607 651/17/607 652/18/607
f 653/19/608 654/34/608 655/21/608
f 656/22/609 657/23/609 658/24/609
f 641/7/610 637/3/610 642/8/610
f 636/27/611 640/28/611 637/26/611
f 639/29/612 646/12/612 640/28/612
f 645/11/613 642/31/613 646/12/613
f 653/19/614 643/9/614 654/34/614
f 644/10/615 658/24/615 645/11/615
f 655/21/616 658/24/616 657/23/616
f 653/19/617 648/35/617 647/13/617
f 656/22/618 652/18/618 657/23/618
f 649/15/619 652/18/619 651/17/619
f 647/13/620 636/2/620 635/1/620
f 639/5/621 651/17/621 650/16/621
f 653/19/622 635/1/622 641/7/622
f 640/28/623 642/31/623 637/26/623
f 651/17/624 636/32/624 649/15/624
f 644/33/625 650/16/625 656/22/625
f 643/30/626 658/24/626 654/34/626
f 657/23/627 648/35/627 655/21/627
f 25/1/35 27/3/35 32/8/35
f 26/27/36 28/25/36 30/28/36
f 29/29/37 34/10/37 36/12/37
f 33/30/38 32/31/38 36/12/38
f 31/7/39 33/9/39 44/34/39
f 46/22/40 48/24/40 35/11/40
f 45/21/41 44/34/41 48/24/41
f 43/19/42 45/21/42 38/14/42
f 46/22/43 40/16/43 42/18/43
f 39/15/44 38/14/44 42/18/44
f 25/1/45 37/13/45 39/15/45
f 29/5/46 28/4/46 41/17/46
f 31/7/47 43/19/47 37/13/47
f 30/28/48 36/12/48 32/31/48
f 41/17/49 28/4/49 26/32/49
f 34/33/50 29/38/50 40/16/50
f 35/11/51 48/24/51 44/34/51
f 45/21/52 47/23/52 42/18/52
f 73/1/87 75/3/87 80/8/87
f 76/25/88 78/28/88 75/26/88
f 82/10/630 84/36/630 78/28/630
f 81/30/90 80/31/90 84/36/90
f 79/7/91 81/9/91 92/20/91
f 94/22/92 96/24/92 83/11/92
f 95/23/93 93/21/93 92/20/93
f 85/13/94 91/19/94 93/21/94
f 88/16/95 90/18/95 95/23/95
f 89/17/96 87/15/96 86/14/96
f 85/13/97 87/15/97 74/2/97
f 77/5/98 76/4/98 89/17/98
f 91/19/99 85/13/99 73/1/99
f 78/28/100 84/36/100 80/31/100
f 89/17/101 76/4/101 74/32/101
f 82/33/102 77/38/102 88/16/102
f 83/11/103 96/24/103 92/20/103
f 95/23/104 90/18/104 86/14/104
f 97/1/113 99/3/113 104/8/113
f 100/25/114 102/28/114 99/26/114
f 101/29/631 106/10/631 108/36/631
f 105/30/116 104/31/116 108/36/116
f 103/7/632 105/9/632 116/20/632
f 106/10/633 118/22/633 120/37/633
f 117/21/119 116/20/119 120/37/119
f 115/19/120 117/21/120 110/14/120
f 112/16/121 114/18/121 119/23/121
f 113/17/122 111/15/122 110/14/122
f 109/13/123 111/15/123 98/2/123
f 112/16/124 101/5/124 100/4/124
f 115/19/125 109/13/125 97/1/125
f 99/26/126 102/28/126 108/36/126
f 113/17/127 100/4/127 98/32/127
f 106/33/128 101/38/128 112/16/128
f 107/11/129 120/37/129 116/20/129
f 117/21/130 119/23/130 114/18/130
f 587/1/698 589/3/698 594/8/698
f 588/27/559 590/25/559 592/28/559
f 596/10/699 598/36/699 592/28/699
f 595/30/561 594/31/561 598/36/561
f 593/7/562 595/9/562 606/34/562
f 608/22/563 610/37/563 597/11/563
f 607/21/564 606/34/564 610/37/564
f 605/19/700 607/21/700 600/14/700
f 608/22/701 602/16/701 604/18/701
f 603/17/567 601/15/567 600/14/567
f 599/13/568 601/15/568 588/2/568
f 602/16/569 591/5/569 590/4/569
f 593/7/570 605/19/570 599/13/570
f 589/26/571 592/28/571 598/36/571
f 603/17/572 590/4/572 588/32/572
f 608/22/573 596/33/573 591/38/573
f 597/11/574 610/37/574 606/34/574
f 609/23/575 604/18/575 600/14/575
f 611/1/702 613/3/702 618/8/702
f 612/27/585 614/25/585 616/28/585
f 620/10/703 622/12/703 616/28/703
f 621/11/587 619/30/587 618/31/587
f 629/19/588 617/7/588 619/9/588
f 632/22/704 634/24/704 621/11/704
f 631/21/590 630/34/590 634/24/590
f 629/19/705 631/21/705 624/14/705
f 626/16/592 628/18/592 633/23/592
f 625/15/593 624/14/593 628/18/593
f 611/1/706 623/13/706 625/15/706
f 615/5/595 614/4/595 627/17/595
f 629/19/596 623/13/596 611/1/596
f 616/28/597 622/12/597 618/31/597
f 627/17/598 614/4/598 612/32/598
f 620/33/599 615/38/599 626/16/599
f 619/30/600 621/11/600 634/24/600
f 631/21/601 633/23/601 628/18/601
f 641/7/707 635/1/707 637/3/707
f 636/27/611 638/25/611 640/28/611
f 639/29/708 644/10/708 646/12/708
f 645/11/613 643/30/613 642/31/613
f 653/19/614 641/7/614 643/9/614
f 644/10/615 656/22/615 658/24/615
f 655/21/616 654/34/616 658/24/616
f 653/19/709 655/21/709 648/35/709
f 656/22/710 650/16/710 652/18/710
f 649/15/619 648/35/619 652/18/619
f 647/13/620 649/15/620 636/2/620
f 639/5/621 638/4/621 651/17/621
f 653/19/622 647/13/622 635/1/622
f 640/28/623 646/12/623 642/31/623
f 651/17/624 638/4/624 636/32/624
f 644/33/625 639/38/625 650/16/625
f 643/30/626 645/11/626 658/24/626
f 657/23/627 652/18/627 648/35/627
usemtl iron
f 49/1/53 50/2/53 51/3/53
f 52/4/54 53/5/54 54/6/54
f 55/7/55 56/8/55 57/9/55
f 58/10/56 59/11/56 60/12/56
f 61/13/57 62/35/57 63/15/57
f 64/16/58 65/17/58 66/18/58
f 67/19/59 68/34/59 69/21/59
f 70/22/60 71/23/60 72/24/60
f 55/7/61 51/3/61 56/8/61
f 52/25/62 51/26/62 50/27/62
f 53/29/63 60/12/63 54/28/63
f 57/30/64 60/12/64 59/11/64
f 55/7/65 68/34/65 67/19/65
f 58/10/66 72/24/66 59/11/66
f 69/21/67 72/24/67 71/23/67
f 61/13/68 69/21/68 62/35/68
f 64/16/69 71/23/69 70/22/69
f 65/17/70 62/35/70 66/18/70
f 61/13/71 50/2/71 49/1/71
f 64/16/72 52/4/72 65/17/72
f 67/19/73 49/1/73 55/7/73
f 54/28/74 56/31/74 51/26/74
f 65/17/75 50/32/75 63/15/75
f 58/33/76 64/16/76 70/22/76
f 59/11/77 68/34/77 57/30/77
f 71/23/78 62/35/78 69/21/78
f 121/1/131 122/2/131 123/3/131
f 124/4/132 125/5/132 126/6/132
f 127/7/133 128/8/133 129/9/133
f 130/10/134 131/11/134 132/12/134
f 133/13/135 134/14/135 135/15/135
f 136/16/136 137/17/136 138/18/136
f 139/19/137 140/20/137 141/21/137
f 142/22/138 143/23/138 144/37/138
f 121/1/139 128/8/139 127/7/139
f 122/27/140 126/28/140 123/26/140
f 125/29/141 132/12/141 126/28/141
f 129/30/142 132/12/142 131/11/142
f 127/7/143 140/20/143 139/19/143
f 130/10/144 144/37/144 131/11/144
f 141/21/145 144/37/145 143/23/145
f 139/19/146 134/14/146 133/13/146
f 136/16/147 143/23/147 142/22/147
f 137/17/148 134/14/148 138/18/148
f 121/1/149 135/15/149 122/2/149
f 125/5/150 137/17/150 136/16/150
f 139/19/151 121/1/151 127/7/151
f 126/28/152 128/31/152 123/26/152
f 137/17/153 122/32/153 135/15/153
f 142/22/154 125/38/154 136/16/154
f 129/30/155 144/37/155 140/20/155
f 143/23/156 134/14/156 141/21/156
f 145/39/157 146/40/157 147/41/157
f 148/42/158 149/43/158 150/44/158
f 151/45/159 152/46/159 153/47/159
f 154/48/160 155/49/160 156/50/160
f 157/51/161 158/52/161 159/53/161
f 160/54/162 161/55/162 162/49/162
f 163/56/163 164/53/163 165/57/163
f 166/58/164 167/59/164 168/60/164
f 169/61/165 170/62/165 171/63/165
f 172/64/166 173/65/166 174/66/166
f 152/46/167 145/39/167 147/41/167
f 156/50/168 148/42/168 154/48/168
f 150/67/169 147/68/169 146/69/169
f 155/70/170 152/71/170 156/72/170
f 153/47/171 157/51/171 151/45/171
f 162/49/172 154/48/172 160/54/172
f 159/73/173 162/70/173 161/74/173
f 159/53/174 163/56/174 157/51/174
f 168/60/175 160/54/175 166/58/175
f 165/75/176 168/74/176 167/76/176
f 165/57/177 169/61/177 163/56/177
f 174/66/178 166/58/178 172/64/178
f 171/69/179 174/77/179 173/67/179
f 171/63/180 145/39/180 169/61/180
f 150/44/181 172/64/181 148/42/181
f 151/45/182 163/56/182 169/61/182
f 147/78/183 156/72/183 152/71/183
f 171/69/184 150/67/184 146/69/184
f 148/42/185 166/58/185 160/54/185
f 153/79/184 162/70/184 158/80/184
f 159/73/184 168/74/184 164/73/184
f 165/75/184 174/77/184 170/75/184
f 176/81/186 184/82/186 175/83/186
f 178/84/187 186/85/187 177/86/187
f 187/87/188 179/88/188 180/89/188
f 189/90/189 181/91/189 182/92/189
f 191/93/190 184/82/190 183/94/190
f 193/95/187 186/85/187 185/96/187
f 195/97/191 188/98/191 187/87/191
f 197/99/189 190/100/189 189/90/189
f 199/101/192 192/102/192 191/93/192
f 193/95/187 202/103/187 194/104/187
f 195/97/193 204/105/193 196/106/193
f 205/107/189 198/108/189 197/99/189
f 207/109/194 200/110/194 199/101/194
f 201/111/187 210/112/187 202/103/187
f 203/113/195 212/114/195 204/105/195
f 213/115/189 206/116/189 205/107/189
f 215/117/196 208/118/196 207/109/196
f 217/119/187 210/112/187 209/120/187
f 211/121/197 220/122/197 212/114/197
f 221/123/189 214/124/189 213/115/189
f 223/125/198 216/126/198 215/117/198
f 217/119/187 226/127/187 218/128/187
f 219/129/199 228/130/199 220/122/199
f 229/131/189 222/132/189 221/123/189
f 223/133/200 232/134/200 224/135/200
f 233/136/187 226/137/187 225/138/187
f 235/139/201 228/140/201 227/141/201
f 237/142/189 230/143/189 229/144/189
f 239/145/202 232/134/202 231/146/202
f 241/147/187 234/148/187 233/136/187
f 235/139/203 244/149/203 236/150/203
f 237/142/189 246/151/189 238/152/189
f 247/153/204 240/154/204 239/145/204
f 249/155/187 242/156/187 241/147/187
f 251/157/205 244/149/205 243/158/205
f 245/159/189 254/160/189 246/151/189
f 255/161/206 248/162/206 247/153/206
f 249/155/187 258/163/187 250/164/187
f 259/165/207 252/166/207 251/157/207
f 253/167/189 262/168/189 254/160/189
f 263/169/208 256/170/208 255/161/208
f 265/171/187 258/163/187 257/172/187
f 259/165/209 268/173/209 260/174/209
f 261/175/189 270/176/189 262/168/189
f 271/177/210 264/178/210 263/169/210
f 265/171/187 274/179/187 266/180/187
f 275/181/211 268/173/211 267/182/211
f 269/183/189 278/184/189 270/176/189
f 272/185/212 176/81/212 175/83/212
f 177/86/187 273/186/187 178/84/187
f 179/88/213 275/181/213 180/89/213
f 181/91/214 277/187/214 182/92/214
f 272/185/184 178/84/184 273/186/184
f 175/83/184 185/96/184 178/84/184
f 181/91/184 183/94/184 176/81/184
f 278/184/184 176/81/184 271/177/184
f 177/86/184 187/188/184 180/189/184
f 274/179/215 180/189/215 275/190/215
f 179/88/184 189/90/184 182/92/184
f 276/191/167 182/92/167 277/187/167
f 190/100/184 191/93/184 183/94/184
f 184/82/184 193/95/184 185/96/184
f 186/85/216 195/192/216 187/188/216
f 188/98/184 197/99/184 189/90/184
f 198/108/184 199/101/184 191/93/184
f 192/102/184 201/111/184 193/95/184
f 194/104/184 203/193/184 195/192/184
f 196/106/184 205/107/184 197/99/184
f 206/116/184 207/109/184 199/101/184
f 200/110/217 209/120/217 201/111/217
f 202/103/184 211/194/184 203/193/184
f 204/105/167 213/115/167 205/107/167
f 214/124/184 215/117/184 207/109/184
f 208/118/184 217/119/184 209/120/184
f 210/112/184 219/195/184 211/194/184
f 212/114/184 221/123/184 213/115/184
f 222/132/184 223/125/184 215/117/184
f 216/126/218 225/196/218 217/119/218
f 226/127/219 219/195/219 218/128/219
f 228/130/220 221/123/220 220/122/220
f 230/143/184 231/146/184 223/133/184
f 224/135/167 233/136/167 225/138/167
f 226/137/167 235/197/167 227/198/167
f 228/140/184 237/142/184 229/144/184
f 238/152/167 239/145/167 231/146/167
f 232/134/184 241/147/184 233/136/184
f 234/148/221 243/199/221 235/197/221
f 236/150/184 245/159/184 237/142/184
f 246/151/184 247/153/184 239/145/184
f 240/154/184 249/155/184 241/147/184
f 242/156/184 251/200/184 243/199/184
f 244/149/222 253/167/222 245/159/222
f 254/160/184 255/161/184 247/153/184
f 248/162/184 257/172/184 249/155/184
f 250/164/184 259/201/184 251/200/184
f 252/166/184 261/175/184 253/167/184
f 262/168/184 263/169/184 255/161/184
f 256/170/184 265/171/184 257/172/184
f 258/163/184 267/202/184 259/201/184
f 260/174/223 269/183/223 261/175/223
f 270/176/167 271/177/167 263/169/167
f 264/178/184 273/186/184 265/171/184
f 266/180/184 275/190/184 267/202/184
f 268/173/224 277/187/224 269/183/224
f 287/94/225 279/83/225 280/81/225
f 289/96/226 281/86/226 282/84/226
f 284/89/227 292/98/227 283/203/227
f 293/90/228 285/91/228 286/92/228
f 295/93/229 288/82/229 287/94/229
f 289/96/226 298/104/226 290/85/226
f 291/87/230 300/106/230 292/98/230
f 301/99/228 294/204/228 293/90/228
f 295/93/231 304/110/231 296/102/231
f 297/95/226 306/103/226 298/104/226
f 299/97/232 308/105/232 300/106/232
f 301/99/228 310/116/228 302/108/228
f 311/109/233 304/110/233 303/101/233
f 305/111/226 314/112/226 306/103/226
f 307/113/234 316/114/234 308/105/234
f 317/115/228 310/116/228 309/107/228
f 319/117/235 312/118/235 311/109/235
f 321/119/226 314/112/226 313/120/226
f 323/129/236 316/114/236 315/121/236
f 325/123/228 318/124/228 317/115/228
f 327/125/237 320/126/237 319/117/237
f 321/119/226 330/127/226 322/128/226
f 331/205/238 324/122/238 323/129/238
f 333/131/228 326/132/228 325/123/228
f 327/133/239 336/134/239 328/135/239
f 329/138/226 338/148/226 330/137/226
f 339/139/240 332/140/240 331/141/240
f 333/144/228 342/152/228 334/143/228
f 343/145/241 336/134/241 335/146/241
f 337/136/226 346/156/226 338/148/226
f 347/158/242 340/150/242 339/139/242
f 341/142/228 350/151/228 342/152/228
f 351/153/243 344/154/243 343/145/243
f 353/155/226 346/156/226 345/147/226
f 355/157/244 348/149/244 347/158/244
f 349/159/228 358/160/228 350/151/228
f 351/153/245 360/170/245 352/162/245
f 361/172/226 354/164/226 353/155/226
f 355/157/246 364/174/246 356/166/246
f 357/167/228 366/168/228 358/160/228
f 359/161/247 368/178/247 360/170/247
f 369/171/226 362/163/226 361/172/226
f 371/182/248 364/174/248 363/165/248
f 373/183/228 366/168/228 365/175/228
f 367/169/249 376/185/249 368/178/249
f 377/186/226 370/180/226 369/171/226
f 371/182/250 380/191/250 372/173/250
f 381/187/228 374/176/228 373/183/228
f 376/185/251 280/81/251 279/83/251
f 281/86/226 377/186/226 282/84/226
f 380/191/252 284/89/252 283/203/252
f 382/184/228 286/92/228 285/91/228
f 376/185/184 282/84/184 377/186/184
f 279/83/184 289/96/184 282/84/184
f 285/91/184 287/94/184 280/81/184
f 382/184/184 280/81/184 375/177/184
f 281/86/184 291/188/184 284/189/184
f 378/179/253 284/189/253 379/190/253
f 283/203/254 293/90/254 286/92/254
f 380/191/167 286/92/167 381/187/167
f 294/204/184 295/93/184 287/94/184
f 288/82/184 297/95/184 289/96/184
f 290/85/184 299/192/184 291/188/184
f 292/98/184 301/99/184 293/90/184
f 302/108/184 303/101/184 295/93/184
f 296/102/184 305/111/184 297/95/184
f 306/103/184 299/192/184 298/104/184
f 300/106/184 309/107/184 301/99/184
f 310/116/184 311/109/184 303/101/184
f 304/110/184 313/120/184 305/111/184
f 306/103/222 315/194/222 307/193/222
f 308/105/167 317/115/167 309/107/167
f 318/124/184 319/117/184 311/109/184
f 312/118/184 321/119/184 313/120/184
f 314/112/184 323/195/184 315/194/184
f 316/114/184 325/123/184 317/115/184
f 326/132/184 327/125/184 319/117/184
f 320/126/184 329/196/184 321/119/184
f 322/128/255 331/206/255 323/195/255
f 324/122/184 333/131/184 325/123/184
f 334/143/184 335/146/184 327/133/184
f 328/135/256 337/136/256 329/138/256
f 330/137/257 339/197/257 331/198/257
f 332/140/184 341/142/184 333/144/184
f 342/152/184 343/145/184 335/146/184
f 336/134/184 345/147/184 337/136/184
f 338/148/257 347/199/257 339/197/257
f 340/150/184 349/159/184 341/142/184
f 350/151/184 351/153/184 343/145/184
f 344/154/184 353/155/184 345/147/184
f 346/156/184 355/200/184 347/199/184
f 348/149/167 357/167/167 349/159/167
f 358/160/184 359/161/184 351/153/184
f 352/162/184 361/172/184 353/155/184
f 354/164/184 363/201/184 355/200/184
f 356/166/184 365/175/184 357/167/184
f 366/168/254 367/169/254 359/161/254
f 360/170/184 369/171/184 361/172/184
f 370/180/258 363/201/258 362/163/258
f 372/173/259 365/175/259 364/174/259
f 374/176/167 375/177/167 367/169/167
f 368/178/184 377/186/184 369/171/184
f 370/180/184 379/190/184 371/202/184
f 372/173/184 381/187/184 373/183/184
f 383/1/260 384/2/260 385/3/260
f 386/4/261 387/5/261 388/6/261
f 389/7/262 390/8/262 391/9/262
f 392/10/263 393/11/263 394/12/263
f 395/13/264 396/35/264 397/15/264
f 398/16/265 399/17/265 400/18/265
f 401/19/266 402/20/266 403/21/266
f 404/22/267 405/23/267 406/24/267
f 389/7/268 385/3/268 390/8/268
f 384/27/269 388/28/269 385/26/269
f 387/29/270 394/12/270 388/28/270
f 391/30/271 394/12/271 393/11/271
f 401/19/272 391/9/272 402/20/272
f 404/22/273 393/11/273 392/10/273
f 403/21/274 406/24/274 405/23/274
f 395/13/275 403/21/275 396/35/275
f 398/16/276 405/23/276 404/22/276
f 397/15/277 400/18/277 399/17/277
f 395/13/278 384/2/278 383/1/278
f 387/5/279 399/17/279 398/16/279
f 401/19/280 383/1/280 389/7/280
f 388/28/281 390/31/281 385/26/281
f 397/15/282 386/4/282 384/32/282
f 404/22/283 387/38/283 398/16/283
f 393/11/284 402/20/284 391/30/284
f 403/21/285 400/18/285 396/35/285
f 407/1/286 408/2/286 409/3/286
f 410/4/287 411/5/287 412/6/287
f 413/7/288 414/8/288 415/9/288
f 416/10/289 417/11/289 418/36/289
f 419/13/290 420/14/290 421/15/290
f 422/16/291 423/17/291 424/18/291
f 425/19/292 426/20/292 427/21/292
f 428/22/293 429/23/293 430/24/293
f 413/7/294 409/3/294 414/8/294
f 410/25/295 409/26/295 408/27/295
f 416/10/296 412/28/296 411/29/296
f 417/11/297 414/31/297 418/36/297
f 413/7/298 426/20/298 425/19/298
f 416/10/299 430/24/299 417/11/299
f 427/21/300 430/24/300 429/23/300
f 425/19/301 420/14/301 419/13/301
f 422/16/302 429/23/302 428/22/302
f 421/15/303 424/18/303 423/17/303
f 407/1/304 421/15/304 408/2/304
f 422/16/305 410/4/305 423/17/305
f 413/7/306 419/13/306 407/1/306
f 412/28/307 414/31/307 409/26/307
f 421/15/308 410/4/308 408/32/308
f 416/33/309 422/16/309 428/22/309
f 417/11/310 426/20/310 415/30/310
f 427/21/311 424/18/311 420/14/311
f 431/1/312 432/2/312 433/3/312
f 434/4/313 435/5/313 436/6/313
f 437/7/314 438/8/314 439/9/314
f 440/10/315 441/11/315 442/36/315
f 443/13/316 444/14/316 445/15/316
f 446/16/317 447/17/317 448/18/317
f 449/19/318 450/20/318 451/21/318
f 452/22/319 453/23/319 454/37/319
f 437/7/320 433/3/320 438/8/320
f 434/25/321 433/26/321 432/27/321
f 435/29/322 442/36/322 436/28/322
f 439/30/323 442/36/323 441/11/323
f 449/19/324 439/9/324 450/20/324
f 440/10/325 454/37/325 441/11/325
f 451/21/326 454/37/326 453/23/326
f 443/13/327 451/21/327 444/14/327
f 446/16/328 453/23/328 452/22/328
f 445/15/329 448/18/329 447/17/329
f 431/1/330 445/15/330 432/2/330
f 446/16/331 434/4/331 447/17/331
f 437/7/332 443/13/332 431/1/332
f 433/26/333 442/36/333 438/31/333
f 445/15/334 434/4/334 432/32/334
f 452/22/335 435/38/335 446/16/335
f 441/11/336 450/20/336 439/30/336
f 453/23/337 444/14/337 451/21/337
f 455/1/338 456/2/338 457/3/338
f 458/4/339 459/5/339 460/6/339
f 461/7/340 462/8/340 463/9/340
f 464/10/341 465/11/341 466/12/341
f 467/13/342 468/14/342 469/15/342
f 470/16/343 471/17/343 472/18/343
f 473/19/344 474/20/344 475/21/344
f 476/22/345 477/23/345 478/24/345
f 455/1/346 462/8/346 461/7/346
f 458/25/347 457/26/347 456/27/347
f 464/10/348 460/28/348 459/29/348
f 463/30/349 466/12/349 465/11/349
f 473/19/350 463/9/350 474/20/350
f 464/10/351 478/24/351 465/11/351
f 477/23/352 474/20/352 478/24/352
f 467/13/353 475/21/353 468/14/353
f 476/22/354 472/18/354 477/23/354
f 469/15/355 472/18/355 471/17/355
f 467/13/356 456/2/356 455/1/356
f 470/16/357 458/4/357 471/17/357
f 461/7/358 467/13/358 455/1/358
f 457/26/359 466/12/359 462/31/359
f 469/15/360 458/4/360 456/32/360
f 476/22/361 459/38/361 470/16/361
f 465/11/362 474/20/362 463/30/362
f 477/23/363 468/14/363 475/21/363
f 479/1/364 480/2/364 481/3/364
f 482/4/365 483/5/365 484/6/365
f 485/7/366 486/8/366 487/9/366
f 488/10/367 489/11/367 490/12/367
f 491/13/368 492/35/368 493/15/368
f 494/16/369 495/17/369 496/18/369
f 497/19/370 498/34/370 499/21/370
f 500/22/371 501/23/371 502/24/371
f 485/7/372 481/3/372 486/8/372
f 482/25/373 481/26/373 480/27/373
f 488/10/374 484/28/374 483/29/374
f 489/11/375 486/31/375 490/12/375
f 497/19/376 487/9/376 498/34/376
f 500/22/377 489/11/377 488/10/377
f 499/21/378 502/24/378 501/23/378
f 491/13/379 499/21/379 492/35/379
f 494/16/380 501/23/380 500/22/380
f 493/15/381 496/18/381 495/17/381
f 491/13/382 480/2/382 479/1/382
f 494/16/383 482/4/383 495/17/383
f 497/19/384 479/1/384 485/7/384
f 484/28/385 486/31/385 481/26/385
f 493/15/386 482/4/386 480/32/386
f 500/22/387 483/38/387 494/16/387
f 487/30/388 502/24/388 498/34/388
f 499/21/389 496/18/389 492/35/389
f 55/7/61 49/1/61 51/3/61
f 52/25/62 54/28/62 51/26/62
f 53/29/63 58/10/63 60/12/63
f 57/30/64 56/31/64 60/12/64
f 55/7/65 57/9/65 68/34/65
f 58/10/66 70/22/66 72/24/66
f 69/21/67 68/34/67 72/24/67
f 61/13/68 67/19/68 69/21/68
f 64/16/69 66/18/69 71/23/69
f 65/17/70 63/15/70 62/35/70
f 61/13/71 63/15/71 50/2/71
f 64/16/72 53/5/72 52/4/72
f 67/19/73 61/13/73 49/1/73
f 54/28/74 60/12/74 56/31/74
f 65/17/75 52/4/75 50/32/75
f 58/33/76 53/38/76 64/16/76
f 59/11/77 72/24/77 68/34/77
f 71/23/78 66/18/78 62/35/78
f 121/1/139 123/3/139 128/8/139
f 122/27/140 124/25/140 126/28/140
f 125/29/634 130/10/634 132/12/634
f 129/30/142 128/31/142 132/12/142
f 127/7/635 129/9/635 140/20/635
f 130/10/144 142/22/144 144/37/144
f 141/21/145 140/20/145 144/37/145
f 139/19/636 141/21/636 134/14/636
f 136/16/637 138/18/637 143/23/637
f 137/17/148 135/15/148 134/14/148
f 121/1/149 133/13/149 135/15/149
f 125/5/150 124/4/150 137/17/150
f 139/19/151 133/13/151 121/1/151
f 126/28/152 132/12/152 128/31/152
f 137/17/153 124/4/153 122/32/153
f 142/22/154 130/33/154 125/38/154
f 129/30/155 131/11/155 144/37/155
f 143/23/156 138/18/156 134/14/156
f 152/46/638 151/45/638 145/39/638
f 156/50/184 149/43/184 148/42/184
f 150/67/169 149/270/169 147/68/169
f 155/70/170 153/79/170 152/71/170
f 153/47/184 158/52/184 157/51/184
f 162/49/184 155/49/184 154/48/184
f 159/73/173 158/80/173 162/70/173
f 159/53/184 164/53/184 163/56/184
f 168/60/184 161/55/184 160/54/184
f 165/75/176 164/73/176 168/74/176
f 165/57/184 170/62/184 169/61/184
f 174/66/167 167/59/167 166/58/167
f 171/69/179 170/75/179 174/77/179
f 171/63/184 146/40/184 145/39/184
f 150/44/184 173/65/184 172/64/184
f 169/61/639 145/39/639 151/45/639
f 151/45/640 157/51/640 163/56/640
f 147/78/184 149/271/184 156/72/184
f 171/69/184 173/67/184 150/67/184
f 160/54/641 154/48/641 148/42/641
f 148/42/641 172/64/641 166/58/641
f 153/79/642 155/70/642 162/70/642
f 159/73/184 161/74/184 168/74/184
f 165/75/222 167/76/222 174/77/222
f 176/81/186 183/94/186 184/82/186
f 178/84/187 185/96/187 186/85/187
f 187/87/188 188/98/188 179/88/188
f 189/90/189 190/100/189 181/91/189
f 191/93/190 192/102/190 184/82/190
f 193/95/187 194/104/187 186/85/187
f 195/97/191 196/106/191 188/98/191
f 197/99/189 198/108/189 190/100/189
f 199/101/192 200/110/192 192/102/192
f 193/95/187 201/111/187 202/103/187
f 195/97/193 203/113/193 204/105/193
f 205/107/189 206/116/189 198/108/189
f 207/109/194 208/118/194 200/110/194
f 201/111/187 209/120/187 210/112/187
f 203/113/195 211/121/195 212/114/195
f 213/115/189 214/124/189 206/116/189
f 215/117/196 216/126/196 208/118/196
f 217/119/187 218/128/187 210/112/187
f 211/121/197 219/129/197 220/122/197
f 221/123/189 222/132/189 214/124/189
f 223/125/198 224/272/198 216/126/198
f 217/119/187 225/196/187 226/127/187
f 219/129/199 227/205/199 228/130/199
f 229/131/189 230/273/189 222/132/189
f 223/133/200 231/146/200 232/134/200
f 233/136/187 234/148/187 226/137/187
f 235/139/201 236/150/201 228/140/201
f 237/142/189 238/152/189 230/143/189
f 239/145/202 240/154/202 232/134/202
f 241/147/187 242/156/187 234/148/187
f 235/139/203 243/158/203 244/149/203
f 237/142/189 245/159/189 246/151/189
f 247/153/204 248/162/204 240/154/204
f 249/155/187 250/164/187 242/156/187
f 251/157/205 252/166/205 244/149/205
f 245/159/189 253/167/189 254/160/189
f 255/161/206 256/170/206 248/162/206
f 249/155/187 257/172/187 258/163/187
f 259/165/207 260/174/207 252/166/207
f 253/167/189 261/175/189 262/168/189
f 263/169/208 264/178/208 256/170/208
f 265/171/187 266/180/187 258/163/187
f 259/165/209 267/182/209 268/173/209
f 261/175/189 269/183/189 270/176/189
f 271/177/210 272/185/210 264/178/210
f 265/171/187 273/186/187 274/179/187
f 275/181/211 276/191/211 268/173/211
f 269/183/189 277/187/189 278/184/189
f 272/185/212 271/177/212 176/81/212
f 177/86/187 274/179/187 273/186/187
f 179/88/213 276/191/213 275/181/213
f 181/91/189 278/184/189 277/187/189
f 272/185/184 175/83/184 178/84/184
f 175/83/184 184/82/184 185/96/184
f 181/91/184 190/100/184 183/94/184
f 278/184/184 181/91/184 176/81/184
f 177/86/643 186/85/643 187/188/643
f 274/179/184 177/86/184 180/189/184
f 179/88/644 188/98/644 189/90/644
f 276/191/184 179/88/184 182/92/184
f 190/100/184 198/108/184 191/93/184
f 184/82/184 192/102/184 193/95/184
f 186/85/184 194/104/184 195/192/184
f 188/98/184 196/106/184 197/99/184
f 198/108/184 206/116/184 199/101/184
f 192/102/645 200/110/645 201/111/645
f 194/104/646 202/103/646 203/193/646
f 196/106/647 204/105/647 205/107/647
f 206/116/184 214/124/184 207/109/184
f 200/110/184 208/118/184 209/120/184
f 202/103/184 210/112/184 211/194/184
f 204/105/184 212/114/184 213/115/184
f 214/124/255 222/132/255 215/117/255
f 208/118/648 216/126/648 217/119/648
f 210/112/649 218/128/649 219/195/649
f 212/114/255 220/122/255 221/123/255
f 222/132/184 230/273/184 223/125/184
f 216/126/650 224/272/650 225/196/650
f 226/127/221 227/206/221 219/195/221
f 228/130/167 229/131/167 221/123/167
f 230/143/651 238/152/651 231/146/651
f 224/135/652 232/134/652 233/136/652
f 226/137/653 234/148/653 235/197/653
f 228/140/184 236/150/184 237/142/184
f 238/152/184 246/151/184 239/145/184
f 232/134/222 240/154/222 241/147/222
f 234/148/184 242/156/184 243/199/184
f 236/150/255 244/149/255 245/159/255
f 246/151/184 254/160/184 247/153/184
f 240/154/184 248/162/184 249/155/184
f 242/156/184 250/164/184 251/200/184
f 244/149/184 252/166/184 253/167/184
f 254/160/184 262/168/184 255/161/184
f 248/162/184 256/170/184 257/172/184
f 250/164/255 258/163/255 259/201/255
f 252/166/654 260/174/654 261/175/654
f 262/168/222 270/176/222 263/169/222
f 256/170/655 264/178/655 265/171/655
f 258/163/184 266/180/184 267/202/184
f 260/174/167 268/173/167 269/183/167
f 270/176/184 278/184/184 271/177/184
f 264/178/184 272/185/184 273/186/184
f 266/180/656 274/179/656 275/190/656
f 268/173/222 276/191/222 277/187/222
f 287/94/225 288/82/225 279/83/225
f 289/96/226 290/85/226 281/86/226
f 284/89/657 291/87/657 292/98/657
f 293/90/228 294/204/228 285/91/228
f 295/93/229 296/102/229 288/82/229
f 289/96/226 297/95/226 298/104/226
f 291/87/230 299/97/230 300/106/230
f 301/99/228 302/108/228 294/204/228
f 295/93/231 303/101/231 304/110/231
f 297/95/226 305/111/226 306/103/226
f 299/97/232 307/113/232 308/105/232
f 301/99/228 309/107/228 310/116/228
f 311/109/233 312/118/233 304/110/233
f 305/111/226 313/120/226 314/112/226
f 307/113/234 315/121/234 316/114/234
f 317/115/228 318/124/228 310/116/228
f 319/117/235 320/126/235 312/118/235
f 321/119/226 322/128/226 314/112/226
f 323/129/236 324/122/236 316/114/236
f 325/123/228 326/132/228 318/124/228
f 327/125/237 328/272/237 320/126/237
f 321/119/226 329/196/226 330/127/226
f 331/205/238 332/130/238 324/122/238
f 333/131/228 334/273/228 326/132/228
f 327/133/239 335/146/239 336/134/239
f 329/138/226 337/136/226 338/148/226
f 339/139/240 340/150/240 332/140/240
f 333/144/228 341/142/228 342/152/228
f 343/145/658 344/154/658 336/134/658
f 337/136/226 345/147/226 346/156/226
f 347/158/242 348/149/242 340/150/242
f 341/142/228 349/159/228 350/151/228
f 351/153/243 352/162/243 344/154/243
f 353/155/226 354/164/226 346/156/226
f 355/157/244 356/166/244 348/149/244
f 349/159/228 357/167/228 358/160/228
f 351/153/245 359/161/245 360/170/245
f 361/172/226 362/163/226 354/164/226
f 355/157/246 363/165/246 364/174/246
f 357/167/228 365/175/228 366/168/228
f 359/161/247 367/169/247 368/178/247
f 369/171/226 370/180/226 362/163/226
f 371/182/248 372/173/248 364/174/248
f 373/183/228 374/176/228 366/168/228
f 367/169/659 375/177/659 376/185/659
f 377/186/226 378/179/226 370/180/226
f 371/182/250 379/181/250 380/191/250
f 381/187/228 382/184/228 374/176/228
f 376/185/251 375/177/251 280/81/251
f 281/86/226 378/179/226 377/186/226
f 380/191/252 379/181/252 284/89/252
f 382/184/228 381/187/228 286/92/228
f 376/185/184 279/83/184 282/84/184
f 279/83/184 288/82/184 289/96/184
f 285/91/184 294/204/184 287/94/184
f 382/184/184 285/91/184 280/81/184
f 281/86/184 290/85/184 291/188/184
f 378/179/184 281/86/184 284/189/184
f 283/203/184 292/98/184 293/90/184
f 380/191/660 283/203/660 286/92/660
f 294/204/184 302/108/184 295/93/184
f 288/82/184 296/102/184 297/95/184
f 290/85/184 298/104/184 299/192/184
f 292/98/184 300/106/184 301/99/184
f 302/108/184 310/116/184 303/101/184
f 296/102/184 304/110/184 305/111/184
f 306/103/661 307/193/661 299/192/661
f 300/106/662 308/105/662 309/107/662
f 310/116/184 318/124/184 311/109/184
f 304/110/663 312/118/663 313/120/663
f 306/103/184 314/112/184 315/194/184
f 308/105/184 316/114/184 317/115/184
f 318/124/184 326/132/184 319/117/184
f 312/118/184 320/126/184 321/119/184
f 314/112/664 322/128/664 323/195/664
f 316/114/222 324/122/222 325/123/222
f 326/132/665 334/273/665 327/125/665
f 320/126/666 328/272/666 329/196/666
f 322/128/667 330/127/667 331/206/667
f 324/122/184 332/130/184 333/131/184
f 334/143/668 342/152/668 335/146/668
f 328/135/184 336/134/184 337/136/184
f 330/137/184 338/148/184 339/197/184
f 332/140/184 340/150/184 341/142/184
f 342/152/184 350/151/184 343/145/184
f 336/134/184 344/154/184 345/147/184
f 338/148/669 346/156/669 347/199/669
f 340/150/222 348/149/222 349/159/222
f 350/151/184 358/160/184 351/153/184
f 344/154/184 352/162/184 353/155/184
f 346/156/184 354/164/184 355/200/184
f 348/149/184 356/166/184 357/167/184
f 358/160/670 366/168/670 359/161/670
f 352/162/184 360/170/184 361/172/184
f 354/164/671 362/163/671 363/201/671
f 356/166/672 364/174/672 365/175/672
f 366/168/673 374/176/673 367/169/673
f 360/170/674 368/178/674 369/171/674
f 370/180/222 371/202/222 363/201/222
f 372/173/184 373/183/184 365/175/184
f 374/176/184 382/184/184 375/177/184
f 368/178/184 376/185/184 377/186/184
f 370/180/675 378/179/675 379/190/675
f 372/173/676 380/191/676 381/187/676
f 389/7/268 383/1/268 385/3/268
f 384/27/677 386/25/677 388/28/677
f 387/29/678 392/10/678 394/12/678
f 391/30/679 390/31/679 394/12/679
f 401/19/272 389/7/272 391/9/272
f 404/22/273 406/24/273 393/11/273
f 403/21/680 402/20/680 406/24/680
f 395/13/275 401/19/275 403/21/275
f 398/16/276 400/18/276 405/23/276
f 397/15/681 396/35/681 400/18/681
f 395/13/278 397/15/278 384/2/278
f 387/5/279 386/4/279 399/17/279
f 401/19/280 395/13/280 383/1/280
f 388/28/281 394/12/281 390/31/281
f 397/15/282 399/17/282 386/4/282
f 404/22/283 392/33/283 387/38/283
f 393/11/284 406/24/284 402/20/284
f 403/21/285 405/23/285 400/18/285
f 413/7/294 407/1/294 409/3/294
f 410/25/682 412/28/682 409/26/682
f 416/10/683 418/36/683 412/28/683
f 417/11/684 415/30/684 414/31/684
f 413/7/298 415/9/298 426/20/298
f 416/10/299 428/22/299 430/24/299
f 427/21/685 426/20/685 430/24/685
f 425/19/686 427/21/686 420/14/686
f 422/16/302 424/18/302 429/23/302
f 421/15/687 420/14/687 424/18/687
f 407/1/304 419/13/304 421/15/304
f 422/16/305 411/5/305 410/4/305
f 413/7/306 425/19/306 419/13/306
f 412/28/307 418/36/307 414/31/307
f 421/15/308 423/17/308 410/4/308
f 416/33/309 411/38/309 422/16/309
f 417/11/310 430/24/310 426/20/310
f 427/21/311 429/23/311 424/18/311
f 437/7/320 431/1/320 433/3/320
f 434/25/321 436/28/321 433/26/321
f 435/29/322 440/10/322 442/36/322
f 439/30/688 438/31/688 442/36/688
f 449/19/324 437/7/324 439/9/324
f 440/10/325 452/22/325 454/37/325
f 451/21/689 450/20/689 454/37/689
f 443/13/327 449/19/327 451/21/327
f 446/16/328 448/18/328 453/23/328
f 445/15/690 444/14/690 448/18/690
f 431/1/330 443/13/330 445/15/330
f 446/16/331 435/5/331 434/4/331
f 437/7/332 449/19/332 443/13/332
f 433/26/333 436/28/333 442/36/333
f 445/15/334 447/17/334 434/4/334
f 452/22/335 440/33/335 435/38/335
f 441/11/336 454/37/336 450/20/336
f 453/23/337 448/18/337 444/14/337
f 455/1/346 457/3/346 462/8/346
f 458/25/691 460/28/691 457/26/691
f 464/10/348 466/12/348 460/28/348
f 463/30/692 462/31/692 466/12/692
f 473/19/350 461/7/350 463/9/350
f 464/10/351 476/22/351 478/24/351
f 477/23/352 475/21/352 474/20/352
f 467/13/353 473/19/353 475/21/353
f 476/22/354 470/16/354 472/18/354
f 469/15/693 468/14/693 472/18/693
f 467/13/356 469/15/356 456/2/356
f 470/16/357 459/5/357 458/4/357
f 461/7/358 473/19/358 467/13/358
f 457/26/359 460/28/359 466/12/359
f 469/15/360 471/17/360 458/4/360
f 476/22/361 464/33/361 459/38/361
f 465/11/362 478/24/362 474/20/362
f 477/23/363 472/18/363 468/14/363
f 485/7/372 479/1/372 481/3/372
f 482/25/694 484/28/694 481/26/694
f 488/10/374 490/12/374 484/28/374
f 489/11/695 487/30/695 486/31/695
f 497/19/376 485/7/376 487/9/376
f 500/22/377 502/24/377 489/11/377
f 499/21/696 498/34/696 502/24/696
f 491/13/379 497/19/379 499/21/379
f 494/16/380 496/18/380 501/23/380
f 493/15/697 492/35/697 496/18/697
f 491/13/382 493/15/382 480/2/382
f 494/16/383 483/5/383 482/4/383
f 497/19/384 491/13/384 479/1/384
f 484/28/385 490/12/385 486/31/385
f 493/15/386 495/17/386 482/4/386
f 500/22/387 488/33/387 483/38/387
f 487/30/388 489/11/388 502/24/388
f 499/21/389 501/23/389 496/18/389
usemtl core
f 503/207/390 516/208/390 515/209/390
f 504/210/391 516/211/391 518/212/391
f 503/213/392 515/214/392 520/215/392
f 503/216/393 520/217/393 522/218/393
f 503/219/394 522/220/394 519/221/394
f 504/210/395 518/212/395 525/222/395
f 505/223/396 517/224/396 527/225/396
f 506/226/397 521/227/397 529/228/397
f 507/229/398 523/230/398 531/231/398
f 508/232/399 524/233/399 533/234/399
f 504/210/400 525/222/400 528/235/400
f 505/223/401 527/225/401 530/236/401
f 506/226/402 529/228/402 532/237/402
f 507/229/403 531/231/403 534/238/403
f 508/232/404 533/234/404 526/239/404
f 509/240/405 535/241/405 540/242/405
f 510/243/406 536/244/406 542/245/406
f 511/246/407 537/247/407 543/248/407
f 512/249/408 538/250/408 544/251/408
f 513/252/409 539/253/409 541/254/409
f 541/254/410 544/255/410 514/256/410
f 541/254/411 539/253/411 544/255/411
f 539/253/412 512/249/412 544/255/412
f 544/251/413 543/257/413 514/258/413
f 544/251/414 538/250/414 543/257/414
f 538/250/415 511/246/415 543/257/415
f 543/248/416 542/259/416 514/260/416
f 543/248/417 537/247/417 542/259/417
f 537/247/418 510/261/418 542/259/418
f 542/245/419 540/262/419 514/263/419
f 542/245/420 536/244/420 540/262/420
f 536/244/421 509/240/421 540/262/421
f 540/242/422 541/264/422 514/265/422
f 540/242/423 535/241/423 541/264/423
f 535/241/424 513/252/424 541/264/424
f 526/239/425 539/253/425 513/252/425
f 526/239/426 533/234/426 539/253/426
f 533/234/427 512/249/427 539/253/427
f 534/238/428 538/250/428 512/249/428
f 534/238/429 531/231/429 538/250/429
f 531/231/430 511/246/430 538/250/430
f 532/237/431 537/247/431 511/246/431
f 532/237/432 529/228/432 537/247/432
f 529/228/433 510/261/433 537/247/433
f 530/236/434 536/244/434 510/243/434
f 530/236/435 527/225/435 536/244/435
f 527/225/436 509/240/436 536/244/436
f 528/235/437 535/241/437 509/240/437
f 528/235/438 525/222/438 535/241/438
f 525/222/439 513/252/439 535/241/439
f 533/234/440 534/238/440 512/249/440
f 533/234/441 524/233/441 534/238/441
f 524/233/442 507/229/442 534/238/442
f 531/231/443 532/237/443 511/246/443
f 531/231/444 523/230/444 532/237/444
f 523/230/445 506/226/445 532/237/445
f 529/228/446 530/266/446 510/261/446
f 529/228/447 521/227/447 530/266/447
f 521/227/448 505/267/448 530/266/448
f 527/225/449 528/235/449 509/240/449
f 527/225/450 517/224/450 528/235/450
f 517/224/451 504/210/451 528/235/451
f 525/222/452 526/239/452 513/252/452
f 525/222/453 518/212/453 526/239/453
f 518/212/454 508/232/454 526/239/454
f 519/221/455 524/233/455 508/232/455
f 519/221/456 522/220/456 524/233/456
f 522/220/457 507/229/457 524/233/457
f 522/218/458 523/230/458 507/229/458
f 522/218/459 520/217/459 523/230/459
f 520/217/460 506/226/460 523/230/460
f 520/215/461 521/227/461 506/226/461
f 520/215/462 515/214/462 521/227/462
f 515/214/463 505/267/463 521/227/463
f 518/212/464 519/268/464 508/232/464
f 518/212/465 516/211/465 519/268/465
f 516/211/466 503/269/466 519/268/466
f 515/209/467 517/224/467 505/223/467
f 515/209/468 516/208/468 517/224/468
f 516/208/469 504/210/469 517/224/469
f 545/207/470 558/208/470 557/209/470
f 546/210/471 558/211/471 560/212/471
f 545/213/472 557/214/472 562/215/472
f 545/216/473 562/217/473 564/218/473
f 545/219/474 564/220/474 561/221/474
f 546/210/475 560/212/475 567/222/475
f 547/223/476 559/224/476 569/225/476
f 548/226/477 563/227/477 571/228/477
f 549/229/478 565/230/478 573/231/478
f 550/232/479 566/233/479 575/234/479
f 546/210/480 567/222/480 570/235/480
f 547/223/481 569/225/481 572/236/481
f 548/226/482 571/228/482 574/237/482
f 549/229/483 573/231/483 576/238/483
f 550/232/484 575/234/484 568/239/484
f 551/240/485 577/241/485 582/242/485
f 552/243/486 578/244/486 584/245/486
f 553/246/487 579/247/487 585/248/487
f 554/249/488 580/250/488 586/251/488
f 555/252/489 581/253/489 583/254/489
f 583/254/490 586/255/490 556/256/490
f 583/254/491 581/253/491 586/255/491
f 581/253/492 554/249/492 586/255/492
f 586/251/493 585/257/493 556/258/493
f 586/251/494 580/250/494 585/257/494
f 580/250/495 553/246/495 585/257/495
f 585/248/496 584/259/496 556/260/496
f 585/248/497 579/247/497 584/259/497
f 579/247/498 552/261/498 584/259/498
f 584/245/499 582/262/499 556/263/499
f 584/245/500 578/244/500 582/262/500
f 578/244/501 551/240/501 582/262/501
f 582/242/502 583/264/502 556/265/502
f 582/242/503 577/241/503 583/264/503
f 577/241/504 555/252/504 583/264/504
f 568/239/505 581/253/505 555/252/505
f 568/239/506 575/234/506 581/253/506
f 575/234/507 554/249/507 581/253/507
f 576/238/508 580/250/508 554/249/508
f 576/238/509 573/231/509 580/250/509
f 573/231/510 553/246/510 580/250/510
f 574/237/511 579/247/511 553/246/511
f 574/237/512 571/228/512 579/247/512
f 571/228/513 552/261/513 579/247/513
f 572/236/514 578/244/514 552/243/514
f 572/236/515 569/225/515 578/244/515
f 569/225/516 551/240/516 578/244/516
f 570/235/517 577/241/517 551/240/517
f 570/235/518 567/222/518 577/241/518
f 567/222/519 555/252/519 577/241/519
f 575/234/520 576/238/520 554/249/520
f 575/234/521 566/233/521 576/238/521
f 566/233/522 549/229/522 576/238/522
f 573/231/523 574/237/523 553/246/523
f 573/231/524 565/230/524 574/237/524
f 565/230/525 548/226/525 574/237/525
f 571/228/526 572/266/526 552/261/526
f 571/228/527 563/227/527 572/266/527
f 563/227/528 547/267/528 572/266/528
f 569/225/529 570/235/529 551/240/529
f 569/225/530 559/224/530 570/235/530
f 559/224/531 546/210/531 570/235/531
f 567/222/532 568/239/532 555/252/532
f 567/222/533 560/212/533 568/239/533
f 560/212/534 550/232/534 568/239/534
f 561/221/535 566/233/535 550/232/535
f 561/221/536 564/220/536 566/233/536
f 564/220/537 549/229/537 566/233/537
f 564/218/538 565/230/538 549/229/538
f 564/218/539 562/217/539 565/230/539
f 562/217/540 548/226/540 565/230/540
f 562/215/541 563/227/541 548/226/541
f 562/215/542 557/214/542 563/227/542
f 557/214/543 547/267/543 563/227/543
f 560/212/544 561/268/544 550/232/544
f 560/212/545 558/211/545 561/268/545
f 558/211/546 545/269/546 561/268/546
f 557/209/547 559/224/547 547/223/547
f 557/209/548 558/208/548 559/224/548
f 558/208/549 546/210/549 559/224/549
