# Blender 4.5.10 LTS
# www.blender.org
mtllib craft_post_gantry.mtl
o craft_post_gantry
v 0.753910 0.004859 -0.159209
v 0.753883 0.006773 -0.163988
v 0.758087 0.006867 -0.159232
v 0.752326 0.142837 -0.165307
v 0.752307 0.144843 -0.160566
v 0.756530 0.142932 -0.160551
v 0.754189 0.008065 0.171255
v 0.758366 0.010072 0.171232
v 0.754171 0.010071 0.175996
v 0.752587 0.148049 0.169899
v 0.752613 0.146135 0.174677
v 0.756809 0.146137 0.169914
v 0.462329 0.001524 -0.158930
v 0.458107 0.003436 -0.158945
v 0.462302 0.003438 -0.163709
v 0.460727 0.141509 -0.160287
v 0.460745 0.139503 -0.165028
v 0.456549 0.139501 -0.160264
v 0.462608 0.004730 0.171534
v 0.462590 0.006736 0.176275
v 0.458386 0.006642 0.171519
v 0.461006 0.144714 0.170177
v 0.456829 0.142706 0.170200
v 0.461032 0.142800 0.174956
v 0.654158 0.092848 -0.074311
v 0.654579 0.116071 -0.076550
v 0.656687 0.116045 -0.074458
v 0.684368 1.729288 -0.086187
v 0.684805 1.752535 -0.084225
v 0.686475 1.729261 -0.084094
v 0.654690 0.093709 0.071485
v 0.657218 0.116906 0.071339
v 0.655126 0.116957 0.073446
v 0.685337 1.753397 0.061571
v 0.684915 1.730173 0.063810
v 0.687007 1.730122 0.061702
v 0.508384 0.095543 -0.073795
v 0.506713 0.118817 -0.073927
v 0.508805 0.118766 -0.076034
v 0.539031 1.755230 -0.083710
v 0.538594 1.731982 -0.085671
v 0.536502 1.732033 -0.083563
v 0.508916 0.096404 0.072001
v 0.509352 0.119652 0.073962
v 0.507245 0.119678 0.071870
v 0.539563 1.756091 0.062087
v 0.537034 1.732895 0.062233
v 0.539141 1.732868 0.064326
v 0.563958 1.390654 -0.041775
v 0.564790 1.391438 -0.042871
v 0.569035 1.386991 -0.041686
v 0.620804 1.445349 -0.041224
v 0.621585 1.446117 -0.040081
v 0.625049 1.440902 -0.040039
v 0.562198 1.390107 0.035963
v 0.567275 1.386445 0.036052
v 0.562979 1.390876 0.037106
v 0.619825 1.445571 0.037658
v 0.618993 1.444786 0.038754
v 0.623289 1.440355 0.037699
v 0.267469 1.698848 -0.046321
v 0.264005 1.704064 -0.046363
v 0.268301 1.699632 -0.047417
v 0.325096 1.754312 -0.044627
v 0.324315 1.753543 -0.045770
v 0.320019 1.757974 -0.044716
v 0.265709 1.698302 0.031417
v 0.266490 1.699070 0.032560
v 0.262245 1.703517 0.031375
v 0.323336 1.753765 0.033112
v 0.318259 1.757428 0.033022
v 0.322504 1.752981 0.034208
v -0.452086 0.006112 -0.164311
v -0.452078 0.008041 -0.169083
v -0.447886 0.008072 -0.164316
v -0.452089 0.144119 -0.169946
v -0.452097 0.146109 -0.165199
v -0.447897 0.144149 -0.165179
v -0.452638 0.008207 0.166162
v -0.448438 0.010168 0.166157
v -0.452646 0.010198 0.170910
v -0.452649 0.148205 0.165274
v -0.452657 0.146275 0.170046
v -0.448449 0.146245 0.165294
v -0.743685 0.006085 -0.164798
v -0.747885 0.008045 -0.164818
v -0.743678 0.008015 -0.169571
v -0.743697 0.146082 -0.165686
v -0.743688 0.144092 -0.170434
v -0.747896 0.144122 -0.165681
v -0.744238 0.008181 0.165675
v -0.744246 0.010171 0.170422
v -0.748438 0.010141 0.165655
v -0.744249 0.148178 0.164787
v -0.748449 0.146218 0.164792
v -0.744257 0.146249 0.169559
v -0.517295 0.098625 -0.062851
v -0.517586 0.121817 -0.065413
v -0.515499 0.121886 -0.063302
v -0.538647 1.734879 -0.097562
v -0.538962 1.758154 -0.095926
v -0.536559 1.734948 -0.095451
v -0.518136 0.101519 0.082918
v -0.516340 0.124780 0.082467
v -0.518452 0.124794 0.084555
v -0.539803 1.761048 0.049843
v -0.539512 1.737857 0.052406
v -0.537400 1.737843 0.050318
v -0.663080 0.096706 -0.063654
v -0.665483 0.119912 -0.064128
v -0.663372 0.119898 -0.066216
v -0.684748 1.756235 -0.096729
v -0.684432 1.732960 -0.098365
v -0.686544 1.732974 -0.096277
v -0.663921 0.099600 0.082115
v -0.664237 0.122875 0.083752
v -0.666324 0.122806 0.081640
v -0.685589 1.759129 0.049040
v -0.687385 1.735868 0.049492
v -0.685297 1.735937 0.051603
v -0.262582 1.685226 -0.028966
v -0.263336 1.686010 -0.030118
v -0.258991 1.690355 -0.028915
v -0.317992 1.741276 -0.032348
v -0.318812 1.742084 -0.031261
v -0.313647 1.745621 -0.031145
v -0.264898 1.686072 0.048755
v -0.261307 1.691201 0.048806
v -0.265718 1.686880 0.049842
v -0.321128 1.742931 0.046460
v -0.320374 1.742147 0.047612
v -0.315963 1.746467 0.046576
v -0.566529 1.384405 -0.034747
v -0.571694 1.380868 -0.034862
v -0.567283 1.385189 -0.035899
v -0.622759 1.441264 -0.037041
v -0.621939 1.440456 -0.038129
v -0.626350 1.436135 -0.037093
v -0.568845 1.385251 0.042974
v -0.569665 1.386060 0.044061
v -0.574010 1.381714 0.042858
v -0.625075 1.442110 0.040679
v -0.628666 1.436981 0.040628
v -0.624321 1.441326 0.041831
v 0.791986 1.713524 -0.081922
v 0.791967 1.715671 -0.084260
v 0.814625 1.716017 -0.081703
v 0.789408 1.861419 -0.081344
v 0.789353 1.863470 -0.078922
v 0.812066 1.861766 -0.078786
v 0.790748 1.710196 0.083279
v 0.813386 1.712690 0.083499
v 0.790693 1.712248 0.085701
v 0.788115 1.860143 0.086280
v 0.788134 1.857996 0.088617
v 0.810827 1.858439 0.086416
v -0.782368 1.686128 -0.094274
v -0.805080 1.687833 -0.094410
v -0.782387 1.688276 -0.096611
v -0.785000 1.836075 -0.091274
v -0.784946 1.834024 -0.093695
v -0.807639 1.833582 -0.091494
v -0.783606 1.682801 0.070928
v -0.783660 1.684853 0.073349
v -0.806319 1.684506 0.070792
v -0.786239 1.832748 0.073928
v -0.808877 1.830254 0.073708
v -0.786220 1.830601 0.076266
v 0.698107 1.675072 -0.105169
v 0.698077 1.675901 -0.107972
v 0.701188 1.675908 -0.105206
v 0.698144 1.734220 -0.108203
v 0.698176 1.735071 -0.105407
v 0.701255 1.734228 -0.105437
v 0.700247 1.675841 0.089218
v 0.703328 1.676677 0.089181
v 0.700279 1.676692 0.092014
v 0.700316 1.735840 0.088980
v 0.700346 1.735012 0.091783
v 0.703395 1.734997 0.088949
v 0.484280 1.675327 -0.102816
v 0.481201 1.676170 -0.102785
v 0.484250 1.676155 -0.105619
v 0.484349 1.735326 -0.103054
v 0.484317 1.734475 -0.105850
v 0.481268 1.734490 -0.103017
v 0.486420 1.676096 0.091571
v 0.486452 1.676947 0.094367
v 0.483341 1.676939 0.091601
v 0.486489 1.736095 0.091333
v 0.483408 1.735259 0.091370
v 0.486519 1.735266 0.094136
v -0.498846 1.677991 -0.098388
v -0.498851 1.678871 -0.101176
v -0.495781 1.678881 -0.098365
v -0.499797 1.737178 -0.100338
v -0.499820 1.737977 -0.097526
v -0.496727 1.737187 -0.097527
v -0.499489 1.675186 0.095990
v -0.496423 1.676076 0.096013
v -0.499512 1.675985 0.098802
v -0.500463 1.735172 0.096853
v -0.500459 1.734292 0.099640
v -0.497370 1.734382 0.096852
v -0.712657 1.674532 -0.099146
v -0.715750 1.675322 -0.099144
v -0.712661 1.675413 -0.101933
v -0.713630 1.734518 -0.098283
v -0.713608 1.733719 -0.101095
v -0.716696 1.733629 -0.098306
v -0.713300 1.671727 0.095233
v -0.713323 1.672527 0.098045
v -0.716393 1.672517 0.095234
v -0.714274 1.731713 0.096096
v -0.717340 1.730824 0.096073
v -0.714269 1.730833 0.098883
v 0.001686 1.512359 -0.001060
v 0.003361 1.519918 0.006763
v -0.006144 1.520094 -0.001142
v 0.004036 1.712339 0.000573
v -0.003973 1.704793 0.000367
v 0.005532 1.704616 0.008271
v 0.000657 1.512404 -0.005111
v -0.006144 1.520094 -0.001142
v -0.001563 1.520134 -0.012625
v 0.003008 1.712384 -0.003478
v 0.000608 1.704833 -0.011117
v -0.003973 1.704793 0.000367
v 0.004191 1.512381 -0.007341
v -0.001563 1.520134 -0.012625
v 0.010773 1.519982 -0.011818
v 0.006542 1.712361 -0.005708
v 0.012944 1.704681 -0.010310
v 0.000608 1.704833 -0.011117
v 0.007404 1.512321 -0.004669
v 0.010773 1.519982 -0.011818
v 0.013817 1.519849 0.000165
v 0.009755 1.712301 -0.003036
v 0.015988 1.704547 0.001673
v 0.012944 1.704681 -0.010310
v 0.005856 1.512308 -0.000788
v 0.013817 1.519849 0.000165
v 0.003361 1.519918 0.006763
v 0.008206 1.712287 0.000846
v 0.005532 1.704616 0.008271
v 0.015988 1.704547 0.001673
v 0.012881 1.297168 0.095491
v 0.012852 1.299406 0.094578
v 0.013268 1.299501 0.094990
v 0.010560 1.460906 0.059696
v 0.010523 1.463321 0.059604
v 0.010976 1.461001 0.060109
v 0.012634 1.303321 0.123993
v 0.013021 1.305653 0.123493
v 0.012597 1.305735 0.123901
v 0.010275 1.469473 0.088107
v 0.010305 1.467236 0.089020
v 0.010728 1.467154 0.088612
v -0.016275 1.296721 0.095334
v -0.016728 1.299040 0.094829
v -0.016304 1.298958 0.094421
v -0.018633 1.462873 0.059448
v -0.018596 1.460458 0.059539
v -0.019020 1.460540 0.059948
v -0.016522 1.302873 0.123836
v -0.016559 1.305288 0.123744
v -0.016975 1.305193 0.123332
v -0.018881 1.469025 0.087950
v -0.019268 1.466693 0.088450
v -0.018851 1.466788 0.088863
v 0.102589 1.304947 -0.066821
v 0.102200 1.307324 -0.067025
v 0.102614 1.307354 -0.066601
v 0.075177 1.469658 -0.052143
v 0.074788 1.471958 -0.051510
v 0.075592 1.469688 -0.051719
v 0.102597 1.302286 -0.037783
v 0.102622 1.304693 -0.037562
v 0.102208 1.304586 -0.037150
v 0.074797 1.469297 -0.022472
v 0.075186 1.466921 -0.022268
v 0.075600 1.467028 -0.022680
v 0.073822 1.300198 -0.067248
v 0.073018 1.302467 -0.067040
v 0.073432 1.302574 -0.067452
v 0.046021 1.467209 -0.051937
v 0.046410 1.464909 -0.052570
v 0.045996 1.464802 -0.052158
v 0.073830 1.297537 -0.038210
v 0.073441 1.299837 -0.037577
v 0.073026 1.299807 -0.038002
v 0.046029 1.464548 -0.022899
v 0.046004 1.462141 -0.023120
v 0.046418 1.462171 -0.022695
v -0.071679 1.297611 -0.071591
v -0.071269 1.299989 -0.071730
v -0.070867 1.299870 -0.071310
v -0.043621 1.461752 -0.052424
v -0.043235 1.464034 -0.051729
v -0.043219 1.461633 -0.052004
v -0.072458 1.294288 -0.042632
v -0.071646 1.296547 -0.042351
v -0.072071 1.296570 -0.041936
v -0.044014 1.460711 -0.022770
v -0.044423 1.458333 -0.022630
v -0.043998 1.458310 -0.023045
v -0.100417 1.302548 -0.071798
v -0.100433 1.304949 -0.071523
v -0.100008 1.304926 -0.071937
v -0.071973 1.468970 -0.051936
v -0.072360 1.466688 -0.052631
v -0.072785 1.466712 -0.052217
v -0.101196 1.299225 -0.042838
v -0.100810 1.301507 -0.042143
v -0.101212 1.301626 -0.042563
v -0.072752 1.465647 -0.022976
v -0.073564 1.463388 -0.023257
v -0.073162 1.463270 -0.022837
v -0.107842 1.330826 -0.006419
v -0.108100 1.314828 -0.006384
v -0.091844 1.330568 -0.006355
v -0.107842 1.330826 -0.006419
v -0.092102 1.314570 -0.006320
v -0.091844 1.330568 -0.006355
v -0.108100 1.314828 -0.006384
v -0.092102 1.314570 -0.006320
v -0.096269 1.314744 0.042460
v -0.096011 1.330742 0.042425
v -0.096011 1.330742 0.042425
v -0.081816 1.330497 0.035046
v -0.081816 1.330497 0.035046
v -0.082074 1.314499 0.035081
v -0.082074 1.314499 0.035081
v -0.096269 1.314744 0.042460
v -0.063097 1.314292 0.080211
v -0.062839 1.330289 0.080176
v -0.062839 1.330289 0.080176
v -0.053699 1.330113 0.067044
v -0.053699 1.330113 0.067044
v -0.053957 1.314115 0.067079
v -0.053957 1.314115 0.067079
v -0.063097 1.314292 0.080211
v -0.016184 1.313575 0.098220
v -0.015926 1.329573 0.098185
v -0.015926 1.329573 0.098185
v -0.013934 1.329506 0.082310
v -0.013934 1.329506 0.082310
v -0.014192 1.313508 0.082345
v -0.014192 1.313508 0.082345
v -0.016184 1.313575 0.098220
v 0.033723 1.312758 0.092363
v 0.033981 1.328756 0.092328
v 0.033981 1.328756 0.092328
v 0.028368 1.328813 0.077345
v 0.028368 1.328813 0.077345
v 0.028110 1.312815 0.077380
v 0.028110 1.312815 0.077380
v 0.033723 1.312758 0.092363
v 0.075191 1.312027 0.063980
v 0.075449 1.328025 0.063945
v 0.075449 1.328025 0.063945
v 0.063517 1.328194 0.053287
v 0.063517 1.328194 0.053287
v 0.063259 1.312196 0.053322
v 0.063259 1.312196 0.053322
v 0.075191 1.312027 0.063980
v 0.098720 1.311551 0.019575
v 0.098978 1.327549 0.019540
v 0.098978 1.327549 0.019540
v 0.083461 1.327790 0.015648
v 0.083461 1.327790 0.015648
v 0.083203 1.311793 0.015683
v 0.083203 1.311793 0.015683
v 0.098720 1.311551 0.019575
v 0.098920 1.311438 -0.030681
v 0.099178 1.327436 -0.030716
v 0.099178 1.327436 -0.030716
v 0.083630 1.327695 -0.026949
v 0.083630 1.327695 -0.026949
v 0.083372 1.311697 -0.026914
v 0.083372 1.311697 -0.026914
v 0.098920 1.311438 -0.030681
v 0.075745 1.311714 -0.075274
v 0.076003 1.327712 -0.075309
v 0.076003 1.327712 -0.075309
v 0.063987 1.327929 -0.064747
v 0.063986 1.327929 -0.064747
v 0.063729 1.311931 -0.064712
v 0.063729 1.311931 -0.064712
v 0.075745 1.311714 -0.075274
v 0.034505 1.312316 -0.103989
v 0.034762 1.328314 -0.104024
v 0.034762 1.328314 -0.104024
v 0.029030 1.328439 -0.089086
v 0.029030 1.328439 -0.089086
v 0.028772 1.312441 -0.089051
v 0.028772 1.312441 -0.089051
v 0.034505 1.312316 -0.103989
v -0.015354 1.313106 -0.110247
v -0.015096 1.329104 -0.110282
v -0.015096 1.329104 -0.110282
v -0.013231 1.329108 -0.094391
v -0.013231 1.329108 -0.094391
v -0.013489 1.313111 -0.094356
v -0.013489 1.313111 -0.094356
v -0.015354 1.313106 -0.110247
v -0.062409 1.313903 -0.092614
v -0.062151 1.329901 -0.092649
v -0.062151 1.329901 -0.092649
v -0.053116 1.329784 -0.079445
v -0.053116 1.329784 -0.079445
v -0.053374 1.313786 -0.079410
v -0.053374 1.313786 -0.079410
v -0.062409 1.313903 -0.092614
v -0.095880 1.314524 -0.055131
v -0.095623 1.330522 -0.055166
v -0.095623 1.330522 -0.055166
v -0.081487 1.330310 -0.047674
v -0.081487 1.330310 -0.047674
v -0.081745 1.314313 -0.047639
v -0.081745 1.314313 -0.047639
v -0.095880 1.314524 -0.055131
v -0.010045 1.323406 0.007739
v -0.083934 1.382162 -0.053281
v 0.026468 1.376318 -0.084469
v 0.090261 1.374033 0.011034
v 0.019284 1.378464 0.101246
v -0.088374 1.383489 0.061497
v -0.029292 1.469105 -0.087698
v 0.078366 1.464080 -0.047949
v 0.073926 1.465406 0.066829
v -0.036477 1.471251 0.098017
v -0.100270 1.473536 0.002514
v 0.000037 1.524163 0.005809
v 0.010532 1.336883 -0.046290
v -0.054361 1.340318 -0.027958
v -0.032899 1.371420 -0.082157
v -0.100401 1.375634 0.003640
v -0.056971 1.341098 0.039506
v 0.048028 1.335540 0.009845
v 0.069491 1.366641 -0.044353
v 0.006309 1.338144 0.062870
v 0.065268 1.367902 0.064807
v -0.039732 1.373460 0.094468
v -0.107394 1.428563 -0.031029
v -0.110004 1.429343 0.036435
v -0.000781 1.422523 -0.102387
v -0.065675 1.425958 -0.084055
v 0.099995 1.418226 -0.022887
v 0.062499 1.419570 -0.079023
v 0.055666 1.421610 0.097603
v 0.097385 1.419006 0.044577
v -0.072507 1.427999 0.092571
v -0.009227 1.425046 0.115935
v -0.075276 1.479667 -0.051259
v 0.029723 1.474108 -0.080921
v 0.090393 1.471934 0.009908
v 0.022890 1.476149 0.095705
v -0.079499 1.480928 0.057901
v -0.016317 1.509424 -0.049322
v -0.058037 1.512029 0.003703
v 0.046962 1.506471 -0.025958
v 0.044352 1.507250 0.041506
v -0.020540 1.510686 0.059838
v -0.003013 1.326316 -0.001263
v -0.049801 1.376896 -0.040833
v 0.021298 1.373116 -0.060693
v 0.062170 1.371701 0.000881
v 0.016331 1.374607 0.058796
v -0.052871 1.377818 0.033015
v -0.013533 1.453544 -0.063145
v 0.055669 1.450333 -0.037364
v 0.052598 1.451254 0.036483
v -0.018501 1.455035 0.056344
v -0.059373 1.456449 -0.005230
v 0.005811 1.501835 -0.003086
v 0.010502 1.338416 -0.036035
v -0.031288 1.340638 -0.024361
v -0.016999 1.368147 -0.059293
v -0.060594 1.370911 -0.004213
v -0.033093 1.341180 0.019045
v 0.034526 1.337585 0.000157
v 0.048816 1.365093 -0.034775
v 0.007582 1.339293 0.034198
v 0.045896 1.365969 0.035458
v -0.021723 1.369565 0.054347
v -0.064416 1.417129 -0.026693
v -0.066221 1.417671 0.016713
v 0.004319 1.413199 -0.072409
v -0.037472 1.415421 -0.060735
v 0.069018 1.410480 -0.021063
v 0.044995 1.411311 -0.057255
v 0.040270 1.412730 0.056386
v 0.067214 1.411021 0.022344
v -0.042197 1.416839 0.052906
v -0.001521 1.414952 0.068059
v -0.043099 1.462181 -0.039808
v 0.024521 1.458586 -0.058696
v 0.063392 1.457240 -0.000136
v 0.019796 1.460004 0.054944
v -0.046018 1.463058 0.030426
v -0.004785 1.488858 -0.038548
v -0.031729 1.490566 -0.004507
v 0.035891 1.486971 -0.023394
v 0.034086 1.487512 0.020012
v -0.007704 1.489734 0.031685
v 0.886822 1.769677 -0.180807
v 0.887044 1.770230 -0.186396
v 0.899716 1.767008 -0.180599
v 0.894896 1.802325 -0.185720
v 0.894900 1.802696 -0.180112
v 0.907568 1.799102 -0.179923
v 0.879235 1.763346 0.207867
v 0.892129 1.760677 0.208075
v 0.879239 1.763717 0.213475
v 0.887313 1.796365 0.208562
v 0.887091 1.795812 0.214151
v 0.899981 1.792772 0.208751
v -0.000515 1.987059 -0.194588
v -0.013182 1.990653 -0.194777
v -0.000292 1.987613 -0.200176
v 0.007564 2.020078 -0.193892
v 0.007560 2.019707 -0.199500
v -0.005330 2.022747 -0.194101
v -0.008102 1.980729 0.194087
v -0.008098 1.981100 0.199695
v -0.020769 1.984322 0.193898
v -0.000023 2.013748 0.194782
v -0.012917 2.016417 0.194574
v -0.000246 2.013195 0.200371
v 0.014946 1.985834 -0.189688
v 0.014947 1.986315 -0.195288
v 0.027651 1.989290 -0.189430
v 0.007432 2.018497 -0.195333
v 0.007215 2.018944 -0.189735
v 0.020136 2.021472 -0.189475
v 0.007371 1.984615 0.199036
v 0.020076 1.988071 0.199295
v 0.007154 1.985061 0.204634
v -0.000360 2.017725 0.198989
v -0.000361 2.017243 0.204589
v 0.012560 2.020253 0.199249
v -0.874618 1.778079 -0.207674
v -0.887539 1.775550 -0.207934
v -0.874618 1.778560 -0.213274
v -0.882350 1.811188 -0.207721
v -0.882133 1.810742 -0.213320
v -0.895055 1.807732 -0.207980
v -0.882194 1.776860 0.181050
v -0.882411 1.777306 0.186648
v -0.895114 1.774331 0.180790
v -0.889925 1.809969 0.181003
v -0.902630 1.806513 0.180745
v -0.889926 1.809488 0.186603
v 0.036442 1.987999 -0.216673
v 0.036426 1.988688 -0.222686
v 0.037561 1.988630 -0.216670
v 0.036394 2.032426 -0.222255
v 0.036409 2.032996 -0.216229
v 0.037529 2.032367 -0.216238
v 0.037511 1.983880 0.201265
v 0.038631 1.984511 0.201269
v 0.037526 1.984450 0.207291
v 0.037478 2.028878 0.201709
v 0.037494 2.028188 0.207722
v 0.038598 2.028249 0.201700
v -0.041318 1.987939 -0.216475
v -0.042438 1.988568 -0.216466
v -0.041334 1.988629 -0.222488
v -0.041351 2.032937 -0.216031
v -0.041366 2.032367 -0.222057
v -0.042471 2.032306 -0.216034
v -0.040248 1.983820 0.201464
v -0.040233 1.984391 0.207490
v -0.041369 1.984450 0.201473
v -0.040282 2.028818 0.201907
v -0.041401 2.028187 0.201904
v -0.040266 2.028129 0.207921
vn 0.4056 -0.8478 -0.3417
vn 0.3862 0.8500 -0.3582
vn 0.4062 -0.8410 0.3574
vn 0.3868 0.8568 0.3410
vn -0.3868 -0.8568 -0.3410
vn -0.4062 0.8410 -0.3574
vn -0.3862 -0.8500 0.3582
vn -0.4056 0.8478 0.3417
vn 0.4332 -0.9012 0.0084
vn 0.7492 0.0022 -0.6623
vn 0.4125 0.9109 -0.0092
vn 0.7503 0.0150 0.6609
vn 0.0109 -0.9209 0.3897
vn -0.0103 0.9283 0.3718
vn -0.7492 -0.0022 0.6623
vn -0.4125 -0.9109 0.0092
vn -0.4332 0.9012 -0.0084
vn -0.7503 -0.0150 -0.6609
vn 0.0103 -0.9283 -0.3718
vn -0.0109 0.9209 -0.3897
vn 0.0114 -0.9999 0.0097
vn 0.9999 0.0114 -0.0010
vn -0.0008 -0.0097 -1.0000
vn -0.0114 0.9999 -0.0097
vn 0.0008 0.0097 1.0000
vn -0.9999 -0.0114 0.0010
vn 0.7018 -0.0810 -0.7078
vn 0.7041 0.0465 -0.7086
vn 0.7069 -0.0726 0.7035
vn 0.7093 0.0549 0.7028
vn -0.7093 -0.0549 -0.7028
vn -0.7069 0.0726 -0.7035
vn -0.7041 -0.0465 0.7085
vn -0.7018 0.0810 0.7078
vn 0.9941 -0.1084 -0.0030
vn 0.7044 -0.0172 -0.7096
vn 0.9974 0.0716 -0.0041
vn 0.7095 -0.0089 0.7046
vn 0.0020 -0.0841 0.9965
vn 0.0053 0.0959 0.9954
vn -0.7044 0.0172 0.7096
vn -0.9974 -0.0716 0.0041
vn -0.9941 0.1084 0.0030
vn -0.7096 0.0089 -0.7046
vn -0.0053 -0.0959 -0.9954
vn -0.0020 0.0841 -0.9965
vn -0.0185 -0.9998 0.0060
vn 0.9998 -0.0185 -0.0035
vn -0.0036 -0.0059 -1.0000
vn 0.0185 0.9998 -0.0060
vn 0.0036 0.0059 1.0000
vn -0.9998 0.0185 0.0035
vn -0.4009 -0.5732 -0.7146
vn 0.6095 0.3993 -0.6849
vn -0.4326 -0.5830 0.6877
vn 0.5777 0.3894 0.7174
vn -0.5777 -0.3894 -0.7174
vn 0.4327 0.5830 -0.6877
vn -0.6095 -0.3993 0.6849
vn 0.4009 0.5732 0.7146
vn -0.5847 -0.8110 -0.0189
vn 0.1463 -0.1220 -0.9817
vn 0.8327 0.5532 0.0227
vn 0.1017 -0.1358 0.9855
vn -0.5254 -0.4952 0.6919
vn 0.4933 0.4852 0.7219
vn -0.1463 0.1220 0.9817
vn -0.8327 -0.5532 -0.0227
vn 0.5847 0.8110 0.0189
vn -0.1017 0.1358 -0.9855
vn -0.4933 -0.4853 -0.7219
vn 0.5254 0.4952 -0.6919
vn -0.7203 -0.6933 -0.0212
vn 0.6932 -0.7206 0.0106
vn 0.0226 0.0070 -0.9997
vn 0.7203 0.6933 0.0212
vn -0.0226 -0.0070 0.9997
vn -0.6932 0.7206 -0.0106
vn 0.3968 -0.8512 -0.3435
vn 0.3967 0.8468 -0.3543
vn 0.3957 -0.8467 0.3556
vn 0.3955 0.8512 0.3449
vn -0.3956 -0.8512 -0.3449
vn -0.3957 0.8467 -0.3556
vn -0.3967 -0.8468 0.3543
vn -0.3969 0.8512 0.3435
vn 0.4230 -0.9061 0.0065
vn 0.7509 -0.0041 -0.6604
vn 0.4228 0.9062 -0.0050
vn 0.7487 0.0043 0.6629
vn -0.0006 -0.9222 0.3866
vn -0.0007 0.9271 0.3749
vn -0.7509 0.0041 0.6604
vn -0.4228 -0.9062 0.0050
vn -0.4230 0.9061 -0.0065
vn -0.7487 -0.0043 -0.6629
vn 0.0007 -0.9271 -0.3749
vn 0.0006 0.9222 -0.3866
vn 0.0001 -1.0000 0.0063
vn 1.0000 0.0001 0.0017
vn 0.0017 -0.0063 -1.0000
vn -0.0001 1.0000 -0.0063
vn -0.0017 0.0063 1.0000
vn -1.0000 -0.0001 -0.0017
vn 0.7105 -0.0685 -0.7004
vn 0.7088 0.0590 -0.7029
vn 0.7024 -0.0404 0.7107
vn 0.7007 0.0870 0.7081
vn -0.7007 -0.0870 -0.7081
vn -0.7024 0.0404 -0.7107
vn -0.7089 -0.0590 0.7029
vn -0.7105 0.0685 0.7004
vn 0.9970 -0.0769 0.0073
vn 0.7111 -0.0047 -0.7031
vn 0.9947 0.1031 0.0037
vn 0.7030 0.0233 0.7108
vn -0.0046 -0.0702 0.9975
vn -0.0069 0.1097 0.9939
vn -0.7111 0.0047 0.7031
vn -0.9947 -0.1031 -0.0037
vn -0.9970 0.0769 -0.0073
vn -0.7030 -0.0233 -0.7108
vn 0.0069 -0.1097 -0.9939
vn 0.0046 0.0702 -0.9975
vn 0.0131 -0.9997 0.0199
vn 0.9999 0.0132 0.0055
vn 0.0058 -0.0199 -0.9998
vn -0.0131 0.9997 -0.0199
vn -0.0058 0.0199 0.9998
vn -0.9999 -0.0132 -0.0055
vn 0.6044 -0.4164 -0.6792
vn -0.3815 0.5805 -0.7193
vn 0.5627 -0.4011 0.7228
vn -0.4232 0.5958 0.6826
vn 0.4232 -0.5958 -0.6826
vn -0.5627 0.4011 -0.7229
vn 0.3814 -0.5805 0.7194
vn -0.6045 0.4164 0.6791
vn 0.8187 -0.5735 0.0306
vn 0.1564 0.1151 -0.9810
vn -0.5644 0.8251 -0.0258
vn 0.0978 0.1365 0.9858
vn 0.4759 -0.4949 0.7270
vn -0.5180 0.5102 0.6865
vn -0.1564 -0.1151 0.9810
vn 0.5644 -0.8251 0.0258
vn -0.8187 0.5735 -0.0306
vn -0.0978 -0.1365 -0.9858
vn 0.5181 -0.5102 -0.6865
vn -0.4759 0.4948 -0.7271
vn 0.7029 -0.7107 0.0287
vn 0.7107 0.7034 0.0135
vn 0.0298 -0.0109 -0.9995
vn -0.7029 0.7107 -0.0287
vn -0.0298 0.0109 0.9995
vn -0.7107 -0.7034 -0.0135
vn 0.0873 -0.7333 -0.6743
vn 0.0611 0.7623 -0.6444
vn 0.0774 -0.7599 0.6454
vn 0.0512 0.7357 0.6754
vn -0.0512 -0.7357 -0.6754
vn -0.0774 0.7599 -0.6455
vn -0.0611 -0.7623 0.6444
vn -0.0873 0.7333 0.6743
vn 0.1097 -0.9938 -0.0192
vn 0.1118 0.0218 -0.9935
vn 0.0747 0.9970 0.0206
vn 0.0969 -0.0182 0.9951
vn 0.0082 -0.7629 0.6465
vn -0.0181 0.7362 0.6765
vn -0.1118 -0.0218 0.9935
vn -0.0747 -0.9970 -0.0206
vn -0.1097 0.9938 0.0192
vn -0.0969 0.0182 -0.9951
vn 0.0181 -0.7363 -0.6764
vn -0.0082 0.7629 -0.6465
vn 0.0176 -0.9996 -0.0200
vn 0.9998 0.0174 0.0078
vn 0.0075 0.0201 -0.9998
vn -0.0176 0.9996 0.0200
vn -0.0075 -0.0201 0.9998
vn -0.9998 -0.0174 -0.0078
vn 0.2486 -0.9281 -0.2771
vn 0.2507 0.9253 -0.2845
vn 0.2547 -0.9259 0.2789
vn 0.2567 0.9276 0.2715
vn -0.2568 -0.9275 -0.2715
vn -0.2548 0.9259 -0.2789
vn -0.2507 -0.9253 0.2844
vn -0.2486 0.9281 0.2771
vn 0.2620 -0.9651 0.0009
vn 0.6645 -0.0037 -0.7473
vn 0.2642 0.9645 -0.0067
vn 0.6808 0.0021 0.7325
vn 0.0021 -0.9567 0.2911
vn 0.0043 0.9590 0.2835
vn -0.6645 0.0037 0.7473
vn -0.2641 -0.9645 0.0067
vn -0.2619 0.9651 -0.0009
vn -0.6808 -0.0021 -0.7325
vn -0.0043 -0.9590 -0.2835
vn -0.0021 0.9567 -0.2912
vn -0.0011 -1.0000 0.0040
vn 0.9999 -0.0012 -0.0110
vn -0.0110 -0.0040 -0.9999
vn 0.0011 1.0000 -0.0040
vn 0.0110 0.0040 0.9999
vn -0.9999 0.0012 0.0110
vn 0.2686 -0.9184 -0.2904
vn 0.2387 0.9346 -0.2638
vn 0.2667 -0.9265 0.2655
vn 0.2367 0.9266 0.2922
vn -0.2367 -0.9266 -0.2922
vn -0.2669 0.9264 -0.2655
vn -0.2386 -0.9346 0.2638
vn -0.2686 0.9184 0.2904
vn 0.2787 -0.9603 -0.0129
vn 0.6751 0.0216 -0.7375
vn 0.2475 0.9688 0.0148
vn 0.6701 0.0002 0.7422
vn 0.0146 -0.9617 0.2736
vn -0.0165 0.9535 0.3011
vn -0.6750 -0.0216 0.7375
vn -0.2474 -0.9688 -0.0148
vn -0.2786 0.9603 0.0129
vn -0.6701 -0.0002 -0.7423
vn 0.0165 -0.9535 -0.3011
vn -0.0146 0.9618 -0.2735
vn 0.0162 -0.9998 -0.0144
vn 0.9999 0.0162 0.0035
vn 0.0033 0.0144 -0.9999
vn -0.0162 0.9998 0.0144
vn -0.0033 -0.0144 0.9999
vn -0.9999 -0.0162 -0.0035
vn -0.5429 -0.5429 0.6407
vn -0.5301 0.5450 0.6496
vn -0.7857 -0.5322 -0.3153
vn -0.7729 0.5556 -0.3064
vn 0.0485 -0.5377 -0.8417
vn 0.0613 0.5501 -0.8328
vn 0.8068 -0.5518 -0.2111
vn 0.8196 0.5361 -0.2022
vn 0.4413 -0.5550 0.7051
vn 0.4541 0.5329 0.7140
vn -0.6936 -0.7004 0.1684
vn -0.6770 0.7137 0.1799
vn -0.6394 0.0012 0.7689
vn -0.9287 0.0139 -0.3704
vn -0.0000 -1.0000 -0.0000
vn -0.3690 0.7164 -0.5922
vn 0.0654 0.0074 -0.9978
vn 0.4438 -0.7079 -0.5495
vn 1.0000 0.0020 -0.0000
vn 0.9692 -0.0094 -0.2462
vn 0.6650 0.6972 0.2677
vn 0.5336 -0.0132 0.8456
vn -0.0545 -0.7123 0.6998
vn -0.0379 0.7018 0.7114
vn -0.0117 -0.9999 -0.0082
vn -0.0421 -0.0078 0.9991
vn 1.0000 -0.0078 -0.0000
vn 0.0117 0.9999 0.0082
vn -1.0000 0.0078 -0.0000
vn 1.0000 -0.0063 -0.0000
vn 0.7093 -0.2583 -0.6559
vn 0.7058 -0.0163 -0.7082
vn 0.6973 0.0378 0.7157
vn 0.6939 0.2799 0.6634
vn -0.6940 -0.2798 -0.6634
vn -0.6973 -0.0378 -0.7158
vn -0.7059 0.0162 0.7082
vn -0.7092 0.2583 0.6560
vn 0.9871 -0.1547 0.0420
vn 0.7130 -0.1383 -0.6874
vn 0.9822 0.1850 -0.0314
vn 0.7010 0.1600 0.6949
vn -0.0060 0.0379 0.9993
vn -0.0108 0.3777 0.9259
vn -0.7130 0.1383 0.6874
vn -0.9822 -0.1850 0.0314
vn -0.9871 0.1548 -0.0420
vn -0.7010 -0.1601 -0.6950
vn 0.0108 -0.3776 -0.9259
vn 0.0060 -0.0379 -0.9993
vn 0.0139 -0.9774 0.2111
vn 0.9999 0.0154 0.0054
vn 0.0085 -0.2110 -0.9775
vn -0.0139 0.9774 -0.2111
vn -0.0085 0.2110 0.9775
vn -0.9999 -0.0154 -0.0054
vn 0.7122 0.0567 -0.6996
vn 0.6718 0.2999 -0.6773
vn 0.7126 -0.0714 0.6979
vn 0.6721 0.1719 0.7202
vn -0.6721 -0.1719 -0.7202
vn -0.7126 0.0714 -0.6979
vn -0.6717 -0.2999 0.6774
vn -0.7123 -0.0566 0.6996
vn 0.9999 -0.0103 -0.0012
vn 0.6973 0.1797 -0.6939
vn 0.9431 0.3311 0.0301
vn 0.6978 0.0506 0.7145
vn 0.0287 -0.2606 0.9650
vn -0.0281 0.0809 0.9963
vn -0.6974 -0.1797 0.6938
vn -0.9431 -0.3311 -0.0301
vn -0.9999 0.0104 0.0012
vn -0.6978 -0.0507 -0.7145
vn 0.0281 -0.0809 -0.9963
vn -0.0287 0.2606 -0.9650
vn 0.1635 -0.9824 -0.0901
vn 0.9865 0.1629 0.0146
vn -0.0003 0.0912 -0.9958
vn -0.1635 0.9824 0.0901
vn 0.0003 -0.0912 0.9958
vn -0.9865 -0.1629 -0.0146
vn 0.6896 -0.1601 -0.7063
vn 0.7310 0.0824 -0.6774
vn 0.6520 -0.3200 0.6874
vn 0.6935 -0.0775 0.7163
vn -0.6934 0.0775 -0.7163
vn -0.6522 0.3199 -0.6872
vn -0.7309 -0.0824 0.6774
vn -0.6896 0.1601 0.7063
vn 0.9415 -0.3369 -0.0133
vn 0.7158 -0.0391 -0.6972
vn 0.9996 0.0034 0.0273
vn 0.6780 -0.2003 0.7073
vn -0.0554 -0.2824 0.9577
vn 0.0028 0.0579 0.9983
vn -0.7158 0.0391 0.6972
vn -0.9996 -0.0034 -0.0273
vn -0.9414 0.3369 0.0133
vn -0.6780 0.2003 -0.7072
vn -0.0028 -0.0579 -0.9983
vn 0.0554 0.2824 -0.9577
vn -0.1673 -0.9790 -0.1168
vn 0.9855 -0.1693 0.0071
vn 0.0267 0.1140 -0.9931
vn 0.1673 0.9790 0.1168
vn -0.0267 -0.1140 0.9931
vn -0.9855 0.1693 -0.0071
vn -0.9718 0.0162 0.2354
vn 0.0161 0.9999 -0.0022
vn 0.9718 -0.0162 -0.2354
vn -0.0161 -0.9999 0.0022
vn -0.7510 0.0136 0.6601
vn 0.7510 -0.0135 -0.6601
vn -0.3583 0.0078 0.9336
vn 0.3583 -0.0078 -0.9336
vn 0.1166 0.0003 0.9932
vn -0.1166 -0.0003 -0.9932
vn 0.5647 -0.0073 0.8253
vn -0.5647 0.0073 -0.8253
vn 0.8835 -0.0132 0.4683
vn -0.8835 0.0132 -0.4683
vn 0.9999 -0.0161 0.0040
vn -0.9999 0.0161 -0.0040
vn 0.8872 -0.0153 -0.4612
vn -0.8872 0.0153 0.4612
vn 0.5713 -0.0110 -0.8207
vn -0.5713 0.0110 0.8207
vn 0.1245 -0.0042 -0.9922
vn -0.1245 0.0042 0.9922
vn -0.3508 0.0036 -0.9364
vn 0.3508 -0.0036 0.9364
vn -0.7458 0.0106 -0.6661
vn 0.7458 -0.0106 0.6661
vn -0.9699 0.0151 -0.2432
vn 0.9699 -0.0151 0.2432
vn -0.0000 1.0000 -0.0000
vn 0.9861 -0.1663 -0.0000
vn -0.8989 -0.4381 -0.0000
vn 0.7071 0.7071 -0.0000
vn -0.8893 0.4573 -0.0076
vn 1.0000 -0.0000 -0.0000
vn -0.0000 -0.0000 -1.0000
vn 1.0000 0.0093 -0.0000
vn -0.9999 -0.0156 -0.0000
vn 0.9829 0.1843 -0.0000
vn -0.0000 0.9998 0.0208
vn -0.0000 -0.9987 -0.0507
vn -0.0000 -0.9996 0.0273
vn 0.6996 0.7146 -0.0000
vn -1.0000 -0.0000 -0.0000
vn -0.1312 -0.9490 -0.2867
vn -0.6974 -0.6608 -0.2775
vn 0.2075 -0.9648 -0.1617
vn 0.1935 -0.9606 0.1994
vn -0.1538 -0.9422 0.2975
vn -0.9019 -0.3136 -0.2969
vn -0.0062 -0.3647 -0.9311
vn 0.8735 -0.4026 -0.2738
vn 0.5214 -0.3749 0.7666
vn -0.5759 -0.3199 0.7523
vn -0.7842 -0.1030 -0.6119
vn 0.3351 -0.1623 -0.9281
vn 0.9818 -0.1855 0.0401
vn 0.2623 -0.1405 0.9547
vn -0.8292 -0.0896 0.5517
vn -0.3347 0.7040 -0.6264
vn 0.5091 0.6623 -0.5497
vn 0.6974 0.6608 0.2775
vn -0.0301 0.7015 0.7120
vn -0.6680 0.7282 0.1533
vn -0.2075 0.9648 0.1617
vn -0.4363 0.8441 0.3116
vn -0.3815 0.7179 0.5823
vn 0.1312 0.9490 0.2867
vn 0.1972 0.8146 0.5455
vn 0.4657 0.6753 0.5719
vn 0.3545 0.9350 0.0029
vn 0.6149 0.7885 0.0147
vn 0.7173 0.6549 -0.2380
vn 0.1538 0.9422 -0.2975
vn 0.2395 0.8019 -0.5473
vn 0.0256 0.6849 -0.7282
vn -0.1935 0.9606 -0.1994
vn -0.4102 0.8363 -0.3638
vn -0.6535 0.7239 -0.2212
vn -0.8735 0.4026 0.2738
vn -0.8026 0.2490 0.5421
vn -0.5787 0.3920 0.7152
vn 0.0062 0.3647 0.9311
vn 0.2762 0.1987 0.9403
vn 0.5164 0.3377 0.7870
vn 0.9019 0.3136 0.2969
vn 0.9874 0.1543 0.0364
vn 0.9225 0.3075 -0.2335
vn 0.5759 0.3199 -0.7523
vn 0.3481 0.1772 -0.9205
vn 0.0784 0.3431 -0.9360
vn -0.5214 0.3749 -0.7666
vn -0.7581 0.2358 -0.6080
vn -0.8493 0.3954 -0.3497
vn -0.3351 0.1623 0.9281
vn -0.3481 -0.1772 0.9205
vn -0.0784 -0.3431 0.9360
vn 0.7842 0.1030 0.6119
vn 0.7581 -0.2358 0.6080
vn 0.8494 -0.3954 0.3497
vn 0.8292 0.0896 -0.5517
vn 0.8026 -0.2490 -0.5421
vn 0.5787 -0.3920 -0.7152
vn -0.2623 0.1405 -0.9547
vn -0.2762 -0.1987 -0.9403
vn -0.5164 -0.3377 -0.7870
vn -0.9818 0.1855 -0.0401
vn -0.9874 -0.1543 -0.0364
vn -0.9225 -0.3075 0.2335
vn -0.5091 -0.6623 0.5497
vn -0.2395 -0.8019 0.5473
vn -0.0256 -0.6849 0.7282
vn 0.3347 -0.7040 0.6264
vn 0.4102 -0.8363 0.3638
vn 0.6535 -0.7239 0.2212
vn 0.6680 -0.7282 -0.1533
vn 0.4363 -0.8441 -0.3116
vn 0.3815 -0.7179 -0.5823
vn -0.7173 -0.6549 0.2380
vn -0.6149 -0.7885 -0.0147
vn -0.3545 -0.9350 -0.0029
vn 0.0301 -0.7015 -0.7120
vn -0.1972 -0.8146 -0.5455
vn -0.4657 -0.6753 -0.5719
vn -0.1540 -0.9131 -0.3776
vn -0.7781 -0.5417 -0.3179
vn 0.2883 -0.9336 -0.2128
vn 0.2687 -0.9277 0.2592
vn -0.1858 -0.9035 0.3861
vn -0.9235 -0.2268 -0.3093
vn 0.0012 -0.2801 -0.9600
vn 0.9056 -0.3185 -0.2802
vn 0.5397 -0.2889 0.7907
vn -0.5907 -0.2323 0.7727
vn -0.7840 -0.0679 -0.6171
vn 0.3410 -0.1277 -0.9313
vn 0.9877 -0.1501 0.0429
vn 0.2624 -0.1041 0.9593
vn -0.8325 -0.0533 0.5514
vn -0.3872 0.5896 -0.7088
vn 0.5678 0.5426 -0.6191
vn 0.7781 0.5417 0.3179
vn -0.0468 0.5883 0.8073
vn -0.7671 0.6179 0.1728
vn -0.2883 0.9336 0.2128
vn -0.5381 0.7551 0.3745
vn -0.4441 0.6067 0.6593
vn 0.1540 0.9131 0.3776
vn 0.2220 0.7198 0.6577
vn 0.5150 0.5584 0.6504
vn 0.4470 0.8945 0.0074
vn 0.7255 0.6879 0.0216
vn 0.8024 0.5344 -0.2656
vn 0.1858 0.9035 -0.3862
vn 0.2766 0.7035 -0.6547
vn 0.0210 0.5679 -0.8228
vn -0.2687 0.9277 -0.2592
vn -0.5044 0.7450 -0.4366
vn -0.7494 0.6126 -0.2512
vn -0.9056 0.3185 0.2802
vn -0.8146 0.1979 0.5453
vn -0.6032 0.3080 0.7357
vn -0.0012 0.2801 0.9600
vn 0.2734 0.1474 0.9506
vn 0.5248 0.2521 0.8130
vn 0.9235 0.2268 0.3093
vn 0.9940 0.1017 0.0401
vn 0.9462 0.2200 -0.2371
vn 0.5907 0.2323 -0.7727
vn 0.3515 0.1239 -0.9280
vn 0.0787 0.2560 -0.9635
vn -0.5397 0.2889 -0.7907
vn -0.7663 0.1834 -0.6157
vn -0.8789 0.3104 -0.3622
vn -0.3410 0.1277 0.9313
vn -0.3515 -0.1239 0.9280
vn -0.0787 -0.2560 0.9635
vn 0.7840 0.0679 0.6171
vn 0.7663 -0.1834 0.6157
vn 0.8789 -0.3104 0.3622
vn 0.8325 0.0533 -0.5514
vn 0.8146 -0.1979 -0.5453
vn 0.6032 -0.3080 -0.7357
vn -0.2624 0.1041 -0.9593
vn -0.2734 -0.1474 -0.9506
vn -0.5248 -0.2521 -0.8130
vn -0.9877 0.1501 -0.0429
vn -0.9940 -0.1017 -0.0401
vn -0.9462 -0.2200 0.2371
vn -0.5678 -0.5425 0.6191
vn -0.2766 -0.7035 0.6547
vn -0.0210 -0.5679 0.8228
vn 0.3872 -0.5896 0.7088
vn 0.5044 -0.7450 0.4366
vn 0.7494 -0.6126 0.2512
vn 0.7671 -0.6179 -0.1728
vn 0.5381 -0.7551 -0.3745
vn 0.4441 -0.6067 -0.6593
vn -0.8024 -0.5344 0.2656
vn -0.7255 -0.6879 -0.0216
vn -0.4470 -0.8945 -0.0074
vn 0.0468 -0.5883 -0.8073
vn -0.2220 -0.7198 -0.6577
vn -0.5150 -0.5584 -0.6504
vn -0.2000 -0.9742 -0.1044
vn 0.2732 0.9598 -0.0637
vn -0.2033 -0.9770 0.0648
vn 0.2699 0.9571 0.1055
vn -0.2699 -0.9571 -0.1055
vn 0.2033 0.9770 -0.0648
vn -0.2732 -0.9598 0.0637
vn 0.2000 0.9742 0.1044
vn -0.2024 -0.9791 -0.0199
vn 0.3982 -0.0782 -0.9140
vn 0.2725 0.9619 0.0210
vn 0.3623 -0.1081 0.9258
vn -0.2384 -0.9690 0.0643
vn 0.2351 0.9663 0.1050
vn -0.3982 0.0782 0.9140
vn -0.2725 -0.9619 -0.0210
vn 0.2024 0.9791 0.0199
vn -0.3623 0.1081 -0.9258
vn -0.2351 -0.9663 -0.1050
vn 0.2384 0.9690 -0.0643
vn -0.2376 -0.9711 -0.0205
vn 0.9712 -0.2379 0.0151
vn 0.0195 0.0163 -0.9997
vn 0.2376 0.9711 0.0205
vn -0.0195 -0.0163 0.9997
vn -0.9712 0.2379 -0.0151
vn 0.2632 -0.9612 -0.0825
vn -0.1897 0.9781 -0.0853
vn 0.2598 -0.9618 0.0867
vn -0.1930 0.9776 0.0840
vn 0.1930 -0.9776 -0.0840
vn -0.2598 0.9618 -0.0867
vn 0.1897 -0.9781 0.0853
vn -0.2632 0.9612 0.0825
vn 0.2624 -0.9650 0.0021
vn 0.3991 0.0919 -0.9123
vn -0.1921 0.9814 -0.0007
vn 0.3633 0.0862 0.9277
vn 0.2249 -0.9706 0.0860
vn -0.2282 0.9700 0.0833
vn -0.3991 -0.0919 0.9123
vn 0.1921 -0.9814 0.0007
vn -0.2624 0.9649 -0.0021
vn -0.3633 -0.0861 -0.9277
vn 0.2282 -0.9700 -0.0833
vn -0.2249 0.9706 -0.0860
vn 0.2274 -0.9738 0.0014
vn 0.9736 0.2274 0.0197
vn 0.0195 0.0031 -0.9998
vn -0.2274 0.9738 -0.0014
vn -0.0195 -0.0031 0.9998
vn -0.9736 -0.2274 -0.0197
vn 0.4886 -0.8667 -0.1006
vn 0.4874 0.8692 -0.0835
vn 0.4891 -0.8684 0.0810
vn 0.4878 0.8674 0.0981
vn -0.4876 -0.8676 -0.0982
vn -0.4895 0.8682 -0.0810
vn -0.4874 -0.8692 0.0835
vn -0.4887 0.8667 0.1006
vn 0.4908 -0.8712 -0.0098
vn 0.9827 0.0026 -0.1854
vn 0.4896 0.8719 0.0073
vn 0.9836 -0.0011 0.1804
vn 0.0010 -0.9955 0.0943
vn -0.0005 0.9935 0.1139
vn -0.9827 -0.0026 0.1854
vn -0.4898 -0.8718 -0.0073
vn -0.4909 0.8711 0.0098
vn -0.9836 0.0011 -0.1804
vn 0.0005 -0.9935 -0.1139
vn -0.0010 0.9955 -0.0943
vn 0.0007 -1.0000 -0.0099
vn 1.0000 0.0008 -0.0026
vn -0.0026 0.0099 -0.9999
vn -0.0007 1.0000 0.0099
vn 0.0026 -0.0099 0.9999
vn -1.0000 -0.0008 0.0026
vn 0.7096 -0.0089 0.7046
vn -0.5253 -0.4952 0.6920
vn 0.4934 0.4853 0.7219
vn -0.4934 -0.4853 -0.7219
vn 0.6933 -0.7206 0.0106
vn -0.6933 0.7206 -0.0106
vn 0.4229 -0.9061 0.0065
vn 0.7510 -0.0041 -0.6603
vn 0.7029 0.0233 0.7109
vn -0.7112 0.0047 0.7030
vn 0.8187 -0.5734 0.0306
vn 0.4760 -0.4949 0.7270
vn -0.5181 0.5103 0.6864
vn 0.5181 -0.5103 -0.6865
vn -0.4760 0.4949 -0.7270
vn 0.2619 -0.9651 0.0009
vn 0.2642 0.9644 -0.0067
vn -0.2642 -0.9644 0.0067
vn -0.2620 0.9651 -0.0009
vn -0.0021 0.9567 -0.2911
vn 0.2788 -0.9603 -0.0129
vn 0.6750 0.0216 -0.7375
vn 0.2474 0.9688 0.0148
vn 0.6701 0.0002 0.7423
vn 0.0146 -0.9618 0.2735
vn -0.2475 -0.9688 -0.0148
vn -0.2788 0.9603 0.0129
vn -0.6701 -0.0002 -0.7422
vn -0.0146 0.9617 -0.2736
vn -0.0000 -0.4803 0.8771
vn -0.3856 -0.6977 -0.6037
vn 0.4605 0.7062 -0.5379
vn 0.6484 -0.7169 0.2562
vn -0.0118 -0.9999 -0.0082
vn -0.9999 0.0134 -0.0000
vn 0.0118 0.9999 0.0082
vn 0.9999 -0.0123 -0.0000
vn 0.9995 -0.0301 -0.0000
vn 0.9871 -0.1548 0.0420
vn 0.7130 -0.1383 -0.6873
vn 0.7010 0.1601 0.6950
vn -0.0108 0.3776 0.9259
vn -0.7131 0.1383 0.6873
vn -0.9871 0.1547 -0.0420
vn -0.7011 -0.1600 -0.6949
vn 0.6974 0.1797 -0.6938
vn -0.6978 -0.0506 -0.7145
vn 0.7159 -0.0391 -0.6972
vn 0.6779 -0.2003 0.7073
vn -0.9415 0.3368 0.0133
vn -0.6779 0.2003 -0.7074
vn -1.0000 -0.0086 -0.0000
vn 0.9999 -0.0124 -0.0000
vn -0.9816 0.1910 -0.0000
vn 0.9988 -0.0497 -0.0000
vn -0.9396 0.3288 -0.0953
vn -0.0000 -0.0000 1.0000
vn 1.0000 0.0001 -0.0000
vn 0.9991 -0.0415 -0.0000
vn 0.9950 0.1000 -0.0000
vn -0.0000 1.0000 0.0049
vn -0.5159 -0.8566 -0.0101
vn -0.0000 0.9101 0.4143
vn -0.4243 0.9055 -0.0000
vn -0.9958 0.0917 -0.0000
vn -0.9951 -0.0989 -0.0000
vn -0.2023 -0.9791 -0.0199
vn 0.3982 -0.0782 -0.9139
vn -0.2726 -0.9619 -0.0210
vn 0.2023 0.9791 0.0199
vn 0.2625 -0.9649 0.0021
vn 0.3633 0.0861 0.9277
vn -0.3992 -0.0919 0.9123
vn 0.1920 -0.9814 0.0007
vn -0.3633 -0.0862 -0.9277
vn -0.2249 0.9706 -0.0861
vn 0.4910 -0.8711 -0.0098
vn 0.4899 0.8717 0.0073
vn -0.0005 0.9935 0.1138
vn -0.4908 0.8712 0.0098
vt 0.128500 0.746500
vt 0.128500 0.750000
vt 0.125000 0.746500
vt 0.621500 0.996500
vt 0.625000 0.996500
vt 0.621500 1.000000
vt 0.128500 0.503500
vt 0.125000 0.503500
vt 0.128500 0.500000
vt 0.625000 0.250015
vt 0.621500 0.253500
vt 0.621500 0.246501
vt 0.371500 0.746500
vt 0.378499 0.746500
vt 0.378362 0.753431
vt 0.628431 0.746638
vt 0.621500 0.753500
vt 0.621500 0.746501
vt 0.371500 0.503500
vt 0.378362 0.496569
vt 0.378499 0.503500
vt 0.628431 0.503363
vt 0.621500 0.503500
vt 0.621500 0.496501
vt 0.621500 0.000000
vt 0.378500 0.003500
vt 0.378500 0.000000
vt 0.621500 0.003500
vt 0.625000 0.003500
vt 0.378500 0.253500
vt 0.378500 0.246500
vt 0.378500 0.996500
vt 0.871500 0.503500
vt 0.378362 0.496569
vt 0.871500 0.746500
vt 0.378499 0.746500
vt 0.621500 0.246501
vt 0.128500 0.746500
vt 0.750000 0.315630
vt 0.635873 0.407082
vt 0.864127 0.407082
vt 0.250000 0.315630
vt 0.364127 0.407082
vt 0.135873 0.407082
vt 0.812418 0.270281
vt 0.864127 0.407082
vt 0.934661 0.190000
vt 0.312418 0.270281
vt 0.434661 0.190000
vt 0.364127 0.407082
vt 0.788576 0.196904
vt 0.934661 0.190000
vt 0.750000 0.055836
vt 0.288576 0.196904
vt 0.250000 0.055836
vt 0.434661 0.190000
vt 0.711424 0.196904
vt 0.750000 0.055836
vt 0.565339 0.190000
vt 0.211424 0.196904
vt 0.065339 0.190000
vt 0.250000 0.055836
vt 0.687582 0.270281
vt 0.565339 0.190000
vt 0.635873 0.407082
vt 0.187582 0.270281
vt 0.135873 0.407082
vt 0.065339 0.190000
vt 0.100000 0.980897
vt 0.000000 0.519103
vt 0.100000 0.519103
vt 0.700000 0.980897
vt 0.900000 0.519103
vt 0.900000 0.980897
vt 0.500000 0.519103
vt 0.700000 0.980897
vt 0.500000 0.980897
vt 0.300000 0.519103
vt 0.300000 0.980897
vt 0.100000 0.980897
vt 0.300000 0.980897
vt 0.900000 0.519103
vt 0.100000 0.519103
vt 0.700000 0.519103
vt 0.700000 0.519103
vt 0.538462 0.375000
vt 0.615385 0.625000
vt 0.538462 0.625000
vt 0.538462 0.625000
vt 0.615385 0.875000
vt 0.538462 0.875000
vt 0.538462 0.000000
vt 0.615385 0.125000
vt 0.538462 0.125000
vt 0.615385 0.125000
vt 0.538462 0.375000
vt 0.538462 0.125000
vt 0.692308 0.375000
vt 0.615385 0.375000
vt 0.615385 0.625000
vt 0.692308 0.875000
vt 0.692308 0.000000
vt 0.615385 0.000000
vt 0.692308 0.375000
vt 0.615385 0.375000
vt 0.769231 0.625000
vt 0.692308 0.625000
vt 0.769231 0.625000
vt 0.692308 0.625000
vt 0.769231 0.125000
vt 0.692308 0.125000
vt 0.769231 0.125000
vt 0.692308 0.125000
vt 0.769231 0.375000
vt 0.846154 0.625000
vt 0.846154 0.625000
vt 0.769231 0.875000
vt 0.846154 0.000000
vt 0.769231 0.000000
vt 0.846154 0.125000
vt 0.769231 0.375000
vt 0.923077 0.375000
vt 0.846154 0.375000
vt 0.923077 0.875000
vt 0.846154 0.875000
vt 0.923077 0.000000
vt 0.846154 0.125000
vt 0.923077 0.375000
vt 0.846154 0.375000
vt 1.000000 0.375000
vt 0.923077 0.625000
vt 1.000000 0.625000
vt 0.923077 0.625000
vt 1.000000 0.125000
vt 0.923077 0.125000
vt 1.000000 0.125000
vt 0.923077 0.125000
vt 0.076923 0.375000
vt -0.000000 0.625000
vt -0.000000 0.375000
vt 0.076923 0.875000
vt -0.000000 0.875000
vt -0.000000 0.000000
vt 0.076923 0.125000
vt -0.000000 0.125000
vt 0.076923 0.375000
vt -0.000000 0.375000
vt 0.153846 0.375000
vt 0.076923 0.625000
vt 0.076923 0.625000
vt 0.153846 0.875000
vt 0.153846 0.000000
vt 0.076923 0.000000
vt 0.153846 0.125000
vt 0.076923 0.125000
vt 0.230769 0.625000
vt 0.153846 0.625000
vt 0.153846 0.625000
vt 0.230769 0.875000
vt 0.230769 0.000000
vt 0.153846 0.125000
vt 0.230769 0.125000
vt 0.153846 0.375000
vt 0.307692 0.375000
vt 0.230769 0.375000
vt 0.230769 0.625000
vt 0.307692 0.875000
vt 0.307692 0.000000
vt 0.230769 0.125000
vt 0.307692 0.375000
vt 0.230769 0.375000
vt 0.384615 0.375000
vt 0.307692 0.625000
vt 0.307692 0.625000
vt 0.384615 0.875000
vt 0.384615 0.000000
vt 0.307692 0.125000
vt 0.384615 0.125000
vt 0.307692 0.125000
vt 0.461538 0.375000
vt 0.384615 0.625000
vt 0.384615 0.625000
vt 0.461538 0.875000
vt 0.461538 0.125000
vt 0.384615 0.125000
vt 0.461538 0.125000
vt 0.384615 0.375000
vt 0.461538 0.625000
vt 0.461538 0.625000
vt 0.461538 0.375000
vt 0.615385 0.875000
vt 0.538462 0.875000
vt 0.461538 0.875000
vt 0.692308 0.875000
vt 0.769231 0.875000
vt 0.846154 0.875000
vt 0.923077 0.875000
vt 1.000000 0.875000
vt 0.230769 0.875000
vt 0.153846 0.875000
vt 0.307692 0.875000
vt 0.384615 0.875000
vt 0.181819 0.000000
vt 0.227273 0.078731
vt 0.136365 0.078731
vt 0.272728 0.157461
vt 0.318182 0.078731
vt 0.363637 0.157461
vt 0.909091 0.000000
vt 0.954545 0.078731
vt 0.863636 0.078731
vt 0.727273 0.000000
vt 0.772727 0.078731
vt 0.681818 0.078731
vt 0.545455 0.000000
vt 0.590909 0.078731
vt 0.500000 0.078731
vt 0.318182 0.236191
vt 0.090910 0.157461
vt 0.181819 0.157461
vt 0.136365 0.236191
vt 0.818182 0.157461
vt 0.909091 0.157461
vt 0.863636 0.236191
vt 0.636364 0.157461
vt 0.727273 0.157461
vt 0.681818 0.236191
vt 0.454546 0.157461
vt 0.545455 0.157461
vt 0.500000 0.236191
vt 0.227273 0.236191
vt 0.045455 0.236191
vt 0.772727 0.236191
vt 0.590909 0.236191
vt 0.409092 0.236191
vt 0.181819 0.314921
vt 0.272728 0.314921
vt 0.227273 0.393651
vt 0.000000 0.314921
vt 0.090910 0.314921
vt 0.045455 0.393651
vt 0.727273 0.314921
vt 0.818182 0.314921
vt 0.772727 0.393651
vt 0.545455 0.314921
vt 0.636364 0.314921
vt 0.590909 0.393651
vt 0.363637 0.314921
vt 0.454546 0.314921
vt 0.409092 0.393651
vt 0.500000 0.393651
vt 0.454546 0.472382
vt 0.681818 0.393651
vt 0.636364 0.472382
vt 0.863636 0.393651
vt 0.818182 0.472382
vt 0.909091 0.314921
vt 0.136365 0.393651
vt 0.090910 0.472382
vt 0.318182 0.393651
vt 0.272728 0.472382
vt 0.954545 0.236191
vt 1.000000 0.157461
vt 0.409092 0.078731
vt 0.363637 0.000000
vt 0.000000 0.980897
vt 0.900000 0.980897
vt 1.000000 0.875000
vt 1.000000 0.000000
vt 1.000000 0.375000
vt 0.461538 0.000000
s 0
usemtl stone
f 1/1/1 2/2/1 3/3/1
f 4/4/2 5/5/2 6/6/2
f 7/7/3 8/8/3 9/9/3
f 10/10/4 11/11/4 12/12/4
f 13/13/5 14/14/5 15/15/5
f 16/16/6 17/17/6 18/18/6
f 19/19/7 20/20/7 21/21/7
f 22/22/8 23/23/8 24/24/8
f 1/1/9 8/8/9 7/7/9
f 4/25/10 3/26/10 2/27/10
f 10/10/11 6/28/11 5/29/11
f 9/30/12 12/12/12 11/11/12
f 19/19/13 9/9/13 20/20/13
f 10/10/14 24/24/14 11/11/14
f 23/23/15 20/20/15 24/24/15
f 13/13/16 21/21/16 14/14/16
f 16/16/17 23/23/17 22/22/17
f 15/15/18 18/18/18 17/17/18
f 13/13/19 2/2/19 1/1/19
f 16/16/20 4/4/20 17/17/20
f 19/19/21 1/1/21 7/7/21
f 6/28/22 8/31/22 3/26/22
f 17/17/23 2/32/23 15/15/23
f 10/33/24 16/16/24 22/22/24
f 9/30/25 24/24/25 20/20/25
f 23/23/26 14/14/26 21/21/26
f 73/1/79 74/2/79 75/3/79
f 76/4/80 77/5/80 78/6/80
f 79/7/81 80/8/81 81/9/81
f 82/10/82 83/11/82 84/37/82
f 85/13/83 86/36/83 87/15/83
f 88/16/84 89/17/84 90/18/84
f 91/19/85 92/34/85 93/21/85
f 94/22/86 95/23/86 96/24/86
f 73/1/87 80/8/87 79/7/87
f 76/25/88 75/26/88 74/27/88
f 82/10/89 78/28/89 77/29/89
f 81/30/90 84/37/90 83/11/90
f 79/7/91 92/34/91 91/19/91
f 94/22/92 83/11/92 82/10/92
f 93/21/93 96/24/93 95/23/93
f 91/19/94 86/36/94 85/13/94
f 88/16/95 95/23/95 94/22/95
f 87/15/96 90/18/96 89/17/96
f 73/1/97 87/15/97 74/2/97
f 77/5/98 89/17/98 88/16/98
f 91/19/99 73/1/99 79/7/99
f 78/28/100 80/31/100 75/26/100
f 89/17/101 74/32/101 87/15/101
f 94/22/102 77/35/102 88/16/102
f 83/11/103 92/34/103 81/30/103
f 95/23/104 86/36/104 93/21/104
f 1/1/9 3/3/9 8/8/9
f 4/25/10 6/28/10 3/26/10
f 10/10/11 12/12/11 6/28/11
f 9/30/12 8/31/12 12/12/12
f 19/19/13 7/7/13 9/9/13
f 10/10/14 22/22/14 24/24/14
f 23/23/15 21/21/15 20/20/15
f 13/13/16 19/19/16 21/21/16
f 16/16/17 18/18/17 23/23/17
f 15/15/18 14/14/18 18/18/18
f 13/13/19 15/15/19 2/2/19
f 16/16/20 5/5/20 4/4/20
f 19/19/21 13/13/21 1/1/21
f 6/28/22 12/12/22 8/31/22
f 17/17/23 4/4/23 2/32/23
f 10/33/24 5/35/24 16/16/24
f 9/30/25 11/11/25 24/24/25
f 23/23/26 18/18/26 14/14/26
f 73/1/630 75/3/630 80/8/630
f 76/25/631 78/28/631 75/26/631
f 82/10/89 84/37/89 78/28/89
f 81/30/90 80/31/90 84/37/90
f 79/7/91 81/9/91 92/34/91
f 94/22/92 96/24/92 83/11/92
f 93/21/93 92/34/93 96/24/93
f 91/19/94 93/21/94 86/36/94
f 88/16/95 90/18/95 95/23/95
f 87/15/96 86/36/96 90/18/96
f 73/1/97 85/13/97 87/15/97
f 77/5/98 76/4/98 89/17/98
f 91/19/99 85/13/99 73/1/99
f 78/28/100 84/37/100 80/31/100
f 89/17/101 76/4/101 74/32/101
f 94/22/102 82/33/102 77/35/102
f 83/11/103 96/24/103 92/34/103
f 95/23/104 90/18/104 86/36/104
usemtl wood
f 25/1/27 26/2/27 27/3/27
f 28/4/28 29/5/28 30/6/28
f 31/7/29 32/8/29 33/9/29
f 34/10/30 35/11/30 36/12/30
f 37/13/31 38/14/31 39/15/31
f 40/16/32 41/17/32 42/18/32
f 43/19/33 44/34/33 45/21/33
f 46/22/34 47/23/34 48/24/34
f 31/7/35 27/3/35 32/8/35
f 28/25/36 27/26/36 26/27/36
f 34/10/37 30/28/37 29/29/37
f 35/11/38 32/31/38 36/12/38
f 31/7/39 44/34/39 43/19/39
f 46/22/40 35/11/40 34/10/40
f 47/23/41 44/34/41 48/24/41
f 43/19/42 38/14/42 37/13/42
f 40/16/43 47/23/43 46/22/43
f 41/17/44 38/14/44 42/18/44
f 25/1/45 39/15/45 26/2/45
f 40/16/46 28/4/46 41/17/46
f 43/19/47 25/1/47 31/7/47
f 30/28/48 32/31/48 27/26/48
f 41/17/49 26/32/49 39/15/49
f 46/22/50 29/35/50 40/16/50
f 35/11/51 44/34/51 33/30/51
f 47/23/52 38/14/52 45/21/52
f 49/1/53 50/2/53 51/3/53
f 52/4/54 53/5/54 54/6/54
f 55/7/55 56/8/55 57/9/55
f 58/10/56 59/11/56 60/12/56
f 61/13/57 62/36/57 63/15/57
f 64/16/58 65/17/58 66/18/58
f 67/19/59 68/20/59 69/21/59
f 70/22/60 71/23/60 72/24/60
f 49/1/61 56/8/61 55/7/61
f 50/27/62 54/28/62 51/26/62
f 53/29/63 60/12/63 54/28/63
f 59/11/64 56/31/64 60/12/64
f 55/7/65 68/20/65 67/19/65
f 70/22/66 59/11/66 58/10/66
f 71/23/67 68/20/67 72/24/67
f 67/19/68 62/36/68 61/13/68
f 64/16/69 71/23/69 70/22/69
f 65/17/70 62/36/70 66/18/70
f 49/1/71 63/15/71 50/2/71
f 53/5/72 65/17/72 64/16/72
f 67/19/73 49/1/73 55/7/73
f 54/28/74 56/31/74 51/26/74
f 65/17/75 50/32/75 63/15/75
f 70/22/76 53/35/76 64/16/76
f 59/11/77 68/20/77 57/30/77
f 71/23/78 62/36/78 69/21/78
f 97/1/105 98/2/105 99/3/105
f 100/4/106 101/5/106 102/6/106
f 103/7/107 104/8/107 105/9/107
f 106/10/108 107/11/108 108/12/108
f 109/13/109 110/36/109 111/15/109
f 112/16/110 113/17/110 114/18/110
f 115/19/111 116/34/111 117/21/111
f 118/22/112 119/23/112 120/24/112
f 97/1/113 104/8/113 103/7/113
f 98/27/114 102/28/114 99/26/114
f 106/10/115 102/28/115 101/29/115
f 105/30/116 108/12/116 107/11/116
f 115/19/117 105/9/117 116/34/117
f 118/22/118 107/11/118 106/10/118
f 117/21/119 120/24/119 119/23/119
f 115/19/120 110/36/120 109/13/120
f 112/16/121 119/23/121 118/22/121
f 111/15/122 114/18/122 113/17/122
f 109/13/123 98/2/123 97/1/123
f 112/16/124 100/4/124 113/17/124
f 115/19/125 97/1/125 103/7/125
f 102/28/126 104/31/126 99/26/126
f 113/17/127 98/32/127 111/15/127
f 118/22/128 101/35/128 112/16/128
f 107/11/129 116/34/129 105/30/129
f 117/21/130 114/18/130 110/36/130
f 121/1/131 122/2/131 123/3/131
f 124/4/132 125/5/132 126/6/132
f 127/7/133 128/8/133 129/9/133
f 130/10/134 131/11/134 132/37/134
f 133/13/135 134/14/135 135/15/135
f 136/16/136 137/17/136 138/18/136
f 139/19/137 140/20/137 141/21/137
f 142/22/138 143/23/138 144/24/138
f 121/1/139 128/8/139 127/7/139
f 122/27/140 126/28/140 123/26/140
f 130/10/141 126/28/141 125/29/141
f 131/11/142 128/31/142 132/37/142
f 139/19/143 129/9/143 140/20/143
f 130/10/144 144/24/144 131/11/144
f 141/21/145 144/24/145 143/23/145
f 133/13/146 141/21/146 134/14/146
f 136/16/147 143/23/147 142/22/147
f 137/17/148 134/14/148 138/18/148
f 121/1/149 135/15/149 122/2/149
f 136/16/150 124/4/150 137/17/150
f 139/19/151 121/1/151 127/7/151
f 126/28/152 128/31/152 123/26/152
f 135/15/153 124/4/153 122/32/153
f 142/22/154 125/35/154 136/16/154
f 129/30/155 144/24/155 140/20/155
f 143/23/156 134/14/156 141/21/156
f 145/1/157 146/2/157 147/3/157
f 148/4/158 149/5/158 150/6/158
f 151/7/159 152/8/159 153/9/159
f 154/10/160 155/11/160 156/12/160
f 157/13/161 158/14/161 159/15/161
f 160/16/162 161/17/162 162/18/162
f 163/19/163 164/20/163 165/21/163
f 166/22/164 167/23/164 168/24/164
f 151/7/165 147/3/165 152/8/165
f 148/25/166 147/26/166 146/27/166
f 154/10/167 150/28/167 149/29/167
f 155/11/168 152/31/168 156/12/168
f 151/7/169 164/20/169 163/19/169
f 166/22/170 155/11/170 154/10/170
f 167/23/171 164/20/171 168/24/171
f 163/19/172 158/14/172 157/13/172
f 160/16/173 167/23/173 166/22/173
f 159/15/174 162/18/174 161/17/174
f 157/13/175 146/2/175 145/1/175
f 160/16/176 148/4/176 161/17/176
f 163/19/177 145/1/177 151/7/177
f 150/28/178 152/31/178 147/26/178
f 161/17/179 146/32/179 159/15/179
f 166/22/180 149/35/180 160/16/180
f 155/11/181 164/20/181 153/30/181
f 165/21/182 162/18/182 158/14/182
f 507/1/546 508/2/546 509/3/546
f 510/4/547 511/5/547 512/6/547
f 513/7/548 514/8/548 515/9/548
f 516/10/549 517/11/549 518/37/549
f 519/13/550 520/14/550 521/15/550
f 522/16/551 523/17/551 524/18/551
f 525/19/552 526/20/552 527/21/552
f 528/22/553 529/23/553 530/24/553
f 507/1/554 514/8/554 513/7/554
f 510/25/555 509/26/555 508/27/555
f 511/29/556 518/37/556 512/28/556
f 515/30/557 518/37/557 517/11/557
f 525/19/558 515/9/558 526/20/558
f 528/22/559 517/11/559 516/10/559
f 529/23/560 526/20/560 530/24/560
f 525/19/561 520/14/561 519/13/561
f 522/16/562 529/23/562 528/22/562
f 523/17/563 520/14/563 524/18/563
f 519/13/564 508/2/564 507/1/564
f 522/16/565 510/4/565 523/17/565
f 525/19/566 507/1/566 513/7/566
f 512/28/567 514/31/567 509/26/567
f 521/15/568 510/4/568 508/32/568
f 528/22/569 511/35/569 522/16/569
f 517/11/570 526/20/570 515/30/570
f 529/23/571 520/14/571 527/21/571
f 531/1/572 532/2/572 533/3/572
f 534/4/573 535/5/573 536/6/573
f 537/7/574 538/8/574 539/9/574
f 540/10/575 541/11/575 542/37/575
f 543/13/576 544/36/576 545/15/576
f 546/16/577 547/17/577 548/18/577
f 549/19/578 550/20/578 551/21/578
f 552/22/579 553/23/579 554/24/579
f 531/1/580 538/8/580 537/7/580
f 532/27/581 536/28/581 533/26/581
f 535/29/582 542/37/582 536/28/582
f 541/11/583 538/31/583 542/37/583
f 549/19/584 539/9/584 550/20/584
f 540/10/585 554/24/585 541/11/585
f 553/23/586 550/20/586 554/24/586
f 549/19/587 544/36/587 543/13/587
f 546/16/588 553/23/588 552/22/588
f 545/15/589 548/18/589 547/17/589
f 531/1/590 545/15/590 532/2/590
f 535/5/591 547/17/591 546/16/591
f 549/19/592 531/1/592 537/7/592
f 536/28/593 538/31/593 533/26/593
f 547/17/594 532/32/594 545/15/594
f 540/33/595 546/16/595 552/22/595
f 541/11/596 550/20/596 539/30/596
f 553/23/597 544/36/597 551/21/597
f 555/1/598 556/2/598 557/3/598
f 558/4/599 559/5/599 560/6/599
f 561/7/600 562/8/600 563/9/600
f 564/10/601 565/11/601 566/37/601
f 567/13/602 568/14/602 569/15/602
f 570/16/603 571/17/603 572/18/603
f 573/19/604 574/20/604 575/21/604
f 576/22/605 577/23/605 578/24/605
f 561/7/606 557/3/606 562/8/606
f 556/27/607 560/28/607 557/26/607
f 559/29/608 566/37/608 560/28/608
f 563/30/609 566/37/609 565/11/609
f 561/7/610 574/20/610 573/19/610
f 576/22/611 565/11/611 564/10/611
f 577/23/612 574/20/612 578/24/612
f 567/13/613 575/21/613 568/14/613
f 576/22/614 572/18/614 577/23/614
f 569/15/615 572/18/615 571/17/615
f 555/1/616 569/15/616 556/2/616
f 570/16/617 558/4/617 571/17/617
f 561/7/618 567/13/618 555/1/618
f 560/28/619 562/31/619 557/26/619
f 569/15/620 558/4/620 556/32/620
f 564/33/621 570/16/621 576/22/621
f 565/11/622 574/20/622 563/30/622
f 575/21/623 572/18/623 568/14/623
f 31/7/35 25/1/35 27/3/35
f 28/25/36 30/28/36 27/26/36
f 34/10/37 36/12/37 30/28/37
f 35/11/624 33/30/624 32/31/624
f 31/7/39 33/9/39 44/34/39
f 46/22/40 48/24/40 35/11/40
f 47/23/41 45/21/41 44/34/41
f 43/19/42 45/21/42 38/14/42
f 40/16/43 42/18/43 47/23/43
f 41/17/44 39/15/44 38/14/44
f 25/1/45 37/13/45 39/15/45
f 40/16/46 29/5/46 28/4/46
f 43/19/47 37/13/47 25/1/47
f 30/28/48 36/12/48 32/31/48
f 41/17/49 28/4/49 26/32/49
f 46/22/50 34/33/50 29/35/50
f 35/11/51 48/24/51 44/34/51
f 47/23/52 42/18/52 38/14/52
f 49/1/61 51/3/61 56/8/61
f 50/27/62 52/25/62 54/28/62
f 53/29/63 58/10/63 60/12/63
f 59/11/64 57/30/64 56/31/64
f 55/7/625 57/9/625 68/20/625
f 70/22/626 72/24/626 59/11/626
f 71/23/67 69/21/67 68/20/67
f 67/19/68 69/21/68 62/36/68
f 64/16/69 66/18/69 71/23/69
f 65/17/70 63/15/70 62/36/70
f 49/1/627 61/13/627 63/15/627
f 53/5/72 52/4/72 65/17/72
f 67/19/73 61/13/73 49/1/73
f 54/28/628 60/12/628 56/31/628
f 65/17/75 52/4/75 50/32/75
f 70/22/76 58/33/76 53/35/76
f 59/11/77 72/24/77 68/20/77
f 71/23/629 66/18/629 62/36/629
f 97/1/113 99/3/113 104/8/113
f 98/27/114 100/25/114 102/28/114
f 106/10/115 108/12/115 102/28/115
f 105/30/632 104/31/632 108/12/632
f 115/19/117 103/7/117 105/9/117
f 118/22/118 120/24/118 107/11/118
f 117/21/633 116/34/633 120/24/633
f 115/19/120 117/21/120 110/36/120
f 112/16/121 114/18/121 119/23/121
f 111/15/122 110/36/122 114/18/122
f 109/13/123 111/15/123 98/2/123
f 112/16/124 101/5/124 100/4/124
f 115/19/125 109/13/125 97/1/125
f 102/28/126 108/12/126 104/31/126
f 113/17/127 100/4/127 98/32/127
f 118/22/128 106/33/128 101/35/128
f 107/11/129 120/24/129 116/34/129
f 117/21/130 119/23/130 114/18/130
f 121/1/634 123/3/634 128/8/634
f 122/27/140 124/25/140 126/28/140
f 130/10/141 132/37/141 126/28/141
f 131/11/142 129/30/142 128/31/142
f 139/19/635 127/7/635 129/9/635
f 130/10/636 142/22/636 144/24/636
f 141/21/145 140/20/145 144/24/145
f 133/13/146 139/19/146 141/21/146
f 136/16/147 138/18/147 143/23/147
f 137/17/148 135/15/148 134/14/148
f 121/1/637 133/13/637 135/15/637
f 136/16/638 125/5/638 124/4/638
f 139/19/151 133/13/151 121/1/151
f 126/28/152 132/37/152 128/31/152
f 135/15/153 137/17/153 124/4/153
f 142/22/154 130/33/154 125/35/154
f 129/30/155 131/11/155 144/24/155
f 143/23/156 138/18/156 134/14/156
f 151/7/165 145/1/165 147/3/165
f 148/25/166 150/28/166 147/26/166
f 154/10/167 156/12/167 150/28/167
f 155/11/168 153/30/168 152/31/168
f 151/7/169 153/9/169 164/20/169
f 166/22/170 168/24/170 155/11/170
f 167/23/171 165/21/171 164/20/171
f 163/19/172 165/21/172 158/14/172
f 160/16/173 162/18/173 167/23/173
f 159/15/174 158/14/174 162/18/174
f 157/13/175 159/15/175 146/2/175
f 160/16/176 149/5/176 148/4/176
f 163/19/177 157/13/177 145/1/177
f 150/28/178 156/12/178 152/31/178
f 161/17/179 148/4/179 146/32/179
f 166/22/180 154/33/180 149/35/180
f 155/11/181 168/24/181 164/20/181
f 165/21/182 167/23/182 162/18/182
f 507/1/690 509/3/690 514/8/690
f 510/25/691 512/28/691 509/26/691
f 511/29/556 516/10/556 518/37/556
f 515/30/557 514/31/557 518/37/557
f 525/19/558 513/7/558 515/9/558
f 528/22/559 530/24/559 517/11/559
f 529/23/560 527/21/560 526/20/560
f 525/19/692 527/21/692 520/14/692
f 522/16/693 524/18/693 529/23/693
f 523/17/563 521/15/563 520/14/563
f 519/13/564 521/15/564 508/2/564
f 522/16/565 511/5/565 510/4/565
f 525/19/566 519/13/566 507/1/566
f 512/28/567 518/37/567 514/31/567
f 521/15/568 523/17/568 510/4/568
f 528/22/569 516/33/569 511/35/569
f 517/11/570 530/24/570 526/20/570
f 529/23/571 524/18/571 520/14/571
f 531/1/694 533/3/694 538/8/694
f 532/27/581 534/25/581 536/28/581
f 535/29/582 540/10/582 542/37/582
f 541/11/695 539/30/695 538/31/695
f 549/19/584 537/7/584 539/9/584
f 540/10/585 552/22/585 554/24/585
f 553/23/696 551/21/696 550/20/696
f 549/19/697 551/21/697 544/36/697
f 546/16/588 548/18/588 553/23/588
f 545/15/698 544/36/698 548/18/698
f 531/1/590 543/13/590 545/15/590
f 535/5/699 534/4/699 547/17/699
f 549/19/592 543/13/592 531/1/592
f 536/28/593 542/37/593 538/31/593
f 547/17/594 534/4/594 532/32/594
f 540/33/595 535/35/595 546/16/595
f 541/11/596 554/24/596 550/20/596
f 553/23/597 548/18/597 544/36/597
f 561/7/700 555/1/700 557/3/700
f 556/27/607 558/25/607 560/28/607
f 559/29/701 564/10/701 566/37/701
f 563/30/609 562/31/609 566/37/609
f 561/7/610 563/9/610 574/20/610
f 576/22/702 578/24/702 565/11/702
f 577/23/612 575/21/612 574/20/612
f 567/13/613 573/19/613 575/21/613
f 576/22/703 570/16/703 572/18/703
f 569/15/615 568/14/615 572/18/615
f 555/1/616 567/13/616 569/15/616
f 570/16/617 559/5/617 558/4/617
f 561/7/618 573/19/618 567/13/618
f 560/28/619 566/37/619 562/31/619
f 569/15/620 571/17/620 558/4/620
f 564/33/621 559/35/621 570/16/621
f 565/11/622 578/24/622 574/20/622
f 575/21/623 577/23/623 572/18/623
usemtl iron
f 169/38/183 170/2/183 171/3/183
f 172/4/184 173/5/184 174/6/184
f 175/7/185 176/8/185 177/9/185
f 178/10/186 179/11/186 180/12/186
f 181/13/187 182/14/187 183/15/187
f 184/16/188 185/17/188 186/18/188
f 187/19/189 188/34/189 189/21/189
f 190/22/190 191/23/190 192/24/190
f 169/38/191 176/8/191 175/7/191
f 172/25/192 171/26/192 170/27/192
f 178/10/193 174/28/193 173/29/193
f 177/30/194 180/12/194 179/11/194
f 175/7/195 188/34/195 187/19/195
f 190/22/196 179/11/196 178/10/196
f 189/21/197 192/24/197 191/23/197
f 187/19/198 182/14/198 181/13/198
f 184/16/199 191/23/199 190/22/199
f 185/17/200 182/14/200 186/18/200
f 169/38/201 183/15/201 170/2/201
f 184/16/202 172/4/202 185/17/202
f 187/19/203 169/38/203 175/7/203
f 174/28/204 176/31/204 171/26/204
f 185/17/205 170/32/205 183/15/205
f 178/33/206 184/16/206 190/22/206
f 179/11/207 188/34/207 177/30/207
f 189/21/208 186/18/208 182/14/208
f 193/1/209 194/2/209 195/3/209
f 196/4/210 197/5/210 198/6/210
f 199/7/211 200/8/211 201/9/211
f 202/10/212 203/11/212 204/37/212
f 205/13/213 206/14/213 207/15/213
f 208/16/214 209/17/214 210/18/214
f 211/19/215 212/20/215 213/21/215
f 214/22/216 215/23/216 216/24/216
f 199/7/217 195/3/217 200/8/217
f 194/27/218 198/28/218 195/26/218
f 202/10/219 198/28/219 197/29/219
f 203/11/220 200/31/220 204/37/220
f 199/7/221 212/20/221 211/19/221
f 202/10/222 216/24/222 203/11/222
f 213/21/223 216/24/223 215/23/223
f 205/13/224 213/21/224 206/14/224
f 214/22/225 210/18/225 215/23/225
f 207/15/226 210/18/226 209/17/226
f 193/1/227 207/15/227 194/2/227
f 197/5/228 209/17/228 208/16/228
f 211/19/229 193/1/229 199/7/229
f 198/28/230 200/31/230 195/26/230
f 207/15/231 196/4/231 194/32/231
f 214/22/232 197/35/232 208/16/232
f 203/11/233 212/20/233 201/30/233
f 213/21/234 210/18/234 206/14/234
f 217/39/235 218/40/235 219/41/235
f 220/42/236 221/43/236 222/44/236
f 223/45/237 224/46/237 225/47/237
f 226/48/238 227/49/238 228/50/238
f 229/51/239 230/52/239 231/53/239
f 232/54/240 233/55/240 234/56/240
f 235/57/241 236/58/241 237/59/241
f 238/60/242 239/61/242 240/62/242
f 241/63/243 242/64/243 243/65/243
f 244/66/244 245/67/244 246/68/244
f 219/41/245 223/45/245 217/39/245
f 228/50/246 220/42/246 226/48/246
f 222/69/247 219/70/247 218/71/247
f 227/72/248 224/73/248 228/74/248
f 230/52/249 223/45/249 225/47/249
f 234/56/250 226/48/250 232/54/250
f 231/75/251 234/76/251 233/77/251
f 231/53/252 235/57/252 229/51/252
f 233/55/253 238/60/253 240/62/253
f 237/78/254 240/77/254 239/79/254
f 242/64/249 235/57/249 237/59/249
f 246/68/255 238/60/255 244/66/255
f 245/80/256 242/78/256 246/81/256
f 243/65/257 217/39/257 241/63/257
f 222/44/258 244/66/258 220/42/258
f 223/45/259 235/57/259 241/63/259
f 219/82/260 228/74/260 224/73/260
f 243/83/261 222/69/261 218/71/261
f 220/42/262 238/60/262 232/54/262
f 225/84/263 234/76/263 230/85/263
f 231/75/261 240/77/261 236/75/261
f 237/78/264 246/81/264 242/78/264
f 247/1/265 248/2/265 249/3/265
f 250/4/266 251/5/266 252/6/266
f 253/7/267 254/8/267 255/9/267
f 256/10/268 257/11/268 258/12/268
f 259/13/269 260/36/269 261/15/269
f 262/16/270 263/17/270 264/18/270
f 265/19/271 266/34/271 267/21/271
f 268/22/272 269/23/272 270/24/272
f 253/7/273 249/3/273 254/8/273
f 248/27/274 252/28/274 249/26/274
f 256/10/275 252/28/275 251/29/275
f 257/11/276 254/31/276 258/12/276
f 265/19/277 255/9/277 266/34/277
f 256/10/278 270/24/278 257/11/278
f 269/23/279 266/34/279 270/24/279
f 265/19/280 260/36/280 259/13/280
f 262/16/281 269/23/281 268/22/281
f 261/15/282 264/18/282 263/17/282
f 247/1/283 261/15/283 248/2/283
f 251/5/284 263/17/284 262/16/284
f 265/19/285 247/1/285 253/7/285
f 252/28/286 254/31/286 249/26/286
f 263/17/287 248/32/287 261/15/287
f 256/33/288 262/16/288 268/22/288
f 255/30/289 270/24/289 266/34/289
f 269/23/290 260/36/290 267/21/290
f 271/1/291 272/2/291 273/3/291
f 274/4/292 275/5/292 276/6/292
f 277/7/293 278/8/293 279/9/293
f 280/10/294 281/11/294 282/12/294
f 283/13/295 284/14/295 285/15/295
f 286/16/296 287/17/296 288/18/296
f 289/19/297 290/20/297 291/21/297
f 292/22/298 293/23/298 294/24/298
f 271/1/299 278/8/299 277/7/299
f 274/25/300 273/26/300 272/27/300
f 280/10/301 276/28/301 275/29/301
f 279/30/302 282/12/302 281/11/302
f 277/7/303 290/20/303 289/19/303
f 292/22/304 281/11/304 280/10/304
f 293/23/305 290/20/305 294/24/305
f 289/19/306 284/14/306 283/13/306
f 286/16/307 293/23/307 292/22/307
f 285/15/308 288/18/308 287/17/308
f 271/1/309 285/15/309 272/2/309
f 286/16/310 274/4/310 287/17/310
f 277/7/311 283/13/311 271/1/311
f 276/28/312 278/31/312 273/26/312
f 285/15/313 274/4/313 272/32/313
f 280/33/314 286/16/314 292/22/314
f 279/30/315 294/24/315 290/20/315
f 291/21/316 288/18/316 284/14/316
f 295/38/317 296/2/317 297/3/317
f 298/4/318 299/5/318 300/6/318
f 301/7/319 302/8/319 303/9/319
f 304/10/320 305/11/320 306/12/320
f 307/13/321 308/14/321 309/15/321
f 310/16/322 311/17/322 312/18/322
f 313/19/323 314/34/323 315/21/323
f 316/22/324 317/23/324 318/24/324
f 295/38/325 302/8/325 301/7/325
f 296/27/326 300/28/326 297/26/326
f 304/10/327 300/28/327 299/29/327
f 303/30/328 306/12/328 305/11/328
f 301/7/329 314/34/329 313/19/329
f 316/22/330 305/11/330 304/10/330
f 315/21/331 318/24/331 317/23/331
f 307/13/332 315/21/332 308/14/332
f 316/22/333 312/18/333 317/23/333
f 311/17/334 308/14/334 312/18/334
f 295/38/335 309/15/335 296/2/335
f 299/5/336 311/17/336 310/16/336
f 301/7/337 307/13/337 295/38/337
f 297/26/338 306/12/338 302/31/338
f 311/17/339 296/32/339 309/15/339
f 316/22/340 299/35/340 310/16/340
f 305/11/341 314/34/341 303/30/341
f 317/23/342 308/14/342 315/21/342
f 320/86/343 328/87/343 319/88/343
f 322/89/344 330/90/344 321/91/344
f 324/92/345 332/93/345 323/94/345
f 333/95/346 325/96/346 326/97/346
f 335/98/347 328/87/347 327/99/347
f 329/100/344 338/101/344 330/90/344
f 339/102/348 332/93/348 331/103/348
f 333/95/346 342/104/346 334/105/346
f 335/98/349 344/106/349 336/107/349
f 345/108/344 338/101/344 337/109/344
f 339/102/350 348/110/350 340/111/350
f 349/112/346 342/104/346 341/113/346
f 343/114/351 352/115/351 344/106/351
f 353/116/344 346/117/344 345/108/344
f 355/118/352 348/110/352 347/119/352
f 357/120/346 350/121/346 349/112/346
f 359/122/353 352/115/353 351/123/353
f 353/116/344 362/124/344 354/125/344
f 363/126/354 356/127/354 355/118/354
f 357/120/346 366/128/346 358/129/346
f 367/130/355 360/131/355 359/122/355
f 369/132/344 362/124/344 361/133/344
f 363/126/356 372/134/356 364/135/356
f 373/136/346 366/128/346 365/137/346
f 375/138/357 368/139/357 367/140/357
f 369/139/344 378/141/344 370/142/344
f 371/143/358 380/144/358 372/145/358
f 373/145/346 382/146/346 374/147/346
f 383/148/359 376/149/359 375/138/359
f 377/150/344 386/151/344 378/141/344
f 387/152/360 380/144/360 379/153/360
f 389/154/346 382/146/346 381/155/346
f 383/148/361 392/156/361 384/157/361
f 385/158/344 394/159/344 386/151/344
f 395/160/362 388/161/362 387/152/362
f 397/162/346 390/163/346 389/154/346
f 399/164/363 392/156/363 391/165/363
f 393/166/344 402/167/344 394/159/344
f 403/168/364 396/169/364 395/160/364
f 397/162/346 406/170/346 398/171/346
f 407/172/365 400/173/365 399/164/365
f 401/174/344 410/175/344 402/167/344
f 411/176/366 404/177/366 403/168/366
f 413/178/346 406/170/346 405/179/346
f 415/180/367 408/181/367 407/172/367
f 409/182/344 418/183/344 410/175/344
f 411/176/368 420/184/368 412/185/368
f 421/186/346 414/187/346 413/178/346
f 416/188/369 320/86/369 319/88/369
f 418/183/344 322/89/344 321/91/344
f 420/184/370 324/92/370 323/94/370
f 325/96/346 421/186/346 326/97/346
f 416/188/371 322/89/371 417/189/371
f 319/88/371 329/100/371 322/89/371
f 325/96/371 327/99/371 320/86/371
f 422/190/371 320/86/371 415/180/371
f 321/91/371 331/191/371 324/192/371
f 418/183/371 324/192/371 419/193/371
f 323/94/371 333/95/371 326/97/371
f 420/184/261 326/97/261 421/186/261
f 342/104/372 327/99/372 334/105/372
f 328/87/371 337/109/371 329/100/371
f 330/90/371 339/194/371 331/191/371
f 332/93/371 341/113/371 333/95/371
f 342/104/249 343/114/249 335/98/249
f 336/107/371 345/108/371 337/109/371
f 338/101/371 347/195/371 339/194/371
f 348/110/373 341/113/373 340/111/373
f 350/121/371 351/123/371 343/114/371
f 344/106/371 353/116/371 345/108/371
f 346/117/374 355/196/374 347/195/374
f 348/110/371 357/120/371 349/112/371
f 358/129/371 359/122/371 351/123/371
f 360/131/375 353/116/375 352/115/375
f 354/125/371 363/197/371 355/196/371
f 356/127/371 365/137/371 357/120/371
f 366/128/249 367/130/249 359/122/249
f 360/131/376 369/132/376 361/133/376
f 362/124/371 371/198/371 363/197/371
f 364/135/371 373/136/371 365/137/371
f 374/147/371 375/138/371 367/140/371
f 368/139/371 377/150/371 369/139/371
f 370/142/371 379/141/371 371/142/371
f 372/145/371 381/155/371 373/145/371
f 382/146/377 383/148/377 375/138/377
f 376/149/371 385/158/371 377/150/371
f 386/151/378 379/141/378 378/141/378
f 380/144/379 389/154/379 381/155/379
f 390/163/371 391/165/371 383/148/371
f 384/157/380 393/166/380 385/158/380
f 386/151/381 395/199/381 387/200/381
f 388/161/371 397/162/371 389/154/371
f 398/171/382 399/164/382 391/165/382
f 392/156/371 401/174/371 393/166/371
f 394/159/371 403/201/371 395/199/371
f 396/169/371 405/179/371 397/162/371
f 406/170/383 407/172/383 399/164/383
f 400/173/371 409/182/371 401/174/371
f 410/175/384 403/201/384 402/167/384
f 404/177/385 413/178/385 405/179/385
f 414/187/371 415/180/371 407/172/371
f 408/181/371 417/189/371 409/182/371
f 410/175/371 419/193/371 411/202/371
f 412/185/371 421/186/371 413/178/371
f 169/38/639 171/3/639 176/8/639
f 172/25/192 174/28/192 171/26/192
f 178/10/640 180/12/640 174/28/640
f 177/30/194 176/31/194 180/12/194
f 175/7/195 177/9/195 188/34/195
f 190/22/196 192/24/196 179/11/196
f 189/21/197 188/34/197 192/24/197
f 187/19/641 189/21/641 182/14/641
f 184/16/642 186/18/642 191/23/642
f 185/17/200 183/15/200 182/14/200
f 169/38/201 181/13/201 183/15/201
f 184/16/643 173/5/643 172/4/643
f 187/19/203 181/13/203 169/38/203
f 174/28/204 180/12/204 176/31/204
f 185/17/205 172/4/205 170/32/205
f 178/33/206 173/35/206 184/16/206
f 179/11/207 192/24/207 188/34/207
f 189/21/208 191/23/208 186/18/208
f 199/7/644 193/1/644 195/3/644
f 194/27/645 196/25/645 198/28/645
f 202/10/646 204/37/646 198/28/646
f 203/11/647 201/30/647 200/31/647
f 199/7/648 201/9/648 212/20/648
f 202/10/222 214/22/222 216/24/222
f 213/21/223 212/20/223 216/24/223
f 205/13/649 211/19/649 213/21/649
f 214/22/650 208/16/650 210/18/650
f 207/15/651 206/14/651 210/18/651
f 193/1/227 205/13/227 207/15/227
f 197/5/652 196/4/652 209/17/652
f 211/19/229 205/13/229 193/1/229
f 198/28/230 204/37/230 200/31/230
f 207/15/231 209/17/231 196/4/231
f 214/22/232 202/33/232 197/35/232
f 203/11/233 216/24/233 212/20/233
f 213/21/234 215/23/234 210/18/234
f 219/41/653 224/46/653 223/45/653
f 228/50/371 221/43/371 220/42/371
f 222/69/247 221/266/247 219/70/247
f 227/72/248 225/84/248 224/73/248
f 230/52/654 229/51/654 223/45/654
f 234/56/371 227/49/371 226/48/371
f 231/75/251 230/85/251 234/76/251
f 231/53/249 236/58/249 235/57/249
f 233/55/655 232/54/655 238/60/655
f 237/78/254 236/75/254 240/77/254
f 242/64/656 241/63/656 235/57/656
f 246/68/371 239/61/371 238/60/371
f 245/80/256 243/83/256 242/78/256
f 243/65/249 218/40/249 217/39/249
f 222/44/371 245/67/371 244/66/371
f 241/63/657 217/39/657 223/45/657
f 223/45/657 229/51/657 235/57/657
f 219/82/658 221/267/658 228/74/658
f 243/83/371 245/80/371 222/69/371
f 232/54/659 226/48/659 220/42/659
f 220/42/659 244/66/659 238/60/659
f 225/84/371 227/72/371 234/76/371
f 231/75/660 233/77/660 240/77/660
f 237/78/661 239/79/661 246/81/661
f 253/7/662 247/1/662 249/3/662
f 248/27/663 250/25/663 252/28/663
f 256/10/275 258/12/275 252/28/275
f 257/11/664 255/30/664 254/31/664
f 265/19/277 253/7/277 255/9/277
f 256/10/665 268/22/665 270/24/665
f 269/23/666 267/21/666 266/34/666
f 265/19/280 267/21/280 260/36/280
f 262/16/667 264/18/667 269/23/667
f 261/15/668 260/36/668 264/18/668
f 247/1/283 259/13/283 261/15/283
f 251/5/284 250/4/284 263/17/284
f 265/19/285 259/13/285 247/1/285
f 252/28/286 258/12/286 254/31/286
f 263/17/287 250/4/287 248/32/287
f 256/33/288 251/35/288 262/16/288
f 255/30/289 257/11/289 270/24/289
f 269/23/290 264/18/290 260/36/290
f 271/1/299 273/3/299 278/8/299
f 274/25/669 276/28/669 273/26/669
f 280/10/301 282/12/301 276/28/301
f 279/30/302 278/31/302 282/12/302
f 277/7/303 279/9/303 290/20/303
f 292/22/304 294/24/304 281/11/304
f 293/23/305 291/21/305 290/20/305
f 289/19/306 291/21/306 284/14/306
f 286/16/307 288/18/307 293/23/307
f 285/15/670 284/14/670 288/18/670
f 271/1/309 283/13/309 285/15/309
f 286/16/310 275/5/310 274/4/310
f 277/7/311 289/19/311 283/13/311
f 276/28/312 282/12/312 278/31/312
f 285/15/313 287/17/313 274/4/313
f 280/33/314 275/35/314 286/16/314
f 279/30/315 281/11/315 294/24/315
f 291/21/316 293/23/316 288/18/316
f 295/38/325 297/3/325 302/8/325
f 296/27/671 298/25/671 300/28/671
f 304/10/327 306/12/327 300/28/327
f 303/30/672 302/31/672 306/12/672
f 301/7/329 303/9/329 314/34/329
f 316/22/330 318/24/330 305/11/330
f 315/21/331 314/34/331 318/24/331
f 307/13/332 313/19/332 315/21/332
f 316/22/673 310/16/673 312/18/673
f 311/17/674 309/15/674 308/14/674
f 295/38/335 307/13/335 309/15/335
f 299/5/336 298/4/336 311/17/336
f 301/7/337 313/19/337 307/13/337
f 297/26/338 300/28/338 306/12/338
f 311/17/339 298/4/339 296/32/339
f 316/22/340 304/33/340 299/35/340
f 305/11/341 318/24/341 314/34/341
f 317/23/342 312/18/342 308/14/342
f 320/86/343 327/99/343 328/87/343
f 322/89/344 329/100/344 330/90/344
f 324/92/345 331/103/345 332/93/345
f 333/95/346 334/105/346 325/96/346
f 335/98/347 336/107/347 328/87/347
f 329/100/344 337/109/344 338/101/344
f 339/102/348 340/111/348 332/93/348
f 333/95/346 341/113/346 342/104/346
f 335/98/349 343/114/349 344/106/349
f 345/108/344 346/117/344 338/101/344
f 339/102/350 347/119/350 348/110/350
f 349/112/346 350/121/346 342/104/346
f 343/114/351 351/123/351 352/115/351
f 353/116/344 354/125/344 346/117/344
f 355/118/352 356/127/352 348/110/352
f 357/120/346 358/129/346 350/121/346
f 359/122/353 360/131/353 352/115/353
f 353/116/344 361/133/344 362/124/344
f 363/126/354 364/135/354 356/127/354
f 357/120/346 365/137/346 366/128/346
f 367/130/355 368/132/355 360/131/355
f 369/132/344 370/268/344 362/124/344
f 363/126/356 371/269/356 372/134/356
f 373/136/346 374/270/346 366/128/346
f 375/138/357 376/149/357 368/139/357
f 369/139/344 377/150/344 378/141/344
f 371/143/358 379/153/358 380/144/358
f 373/145/346 381/155/346 382/146/346
f 383/148/359 384/157/359 376/149/359
f 377/150/344 385/158/344 386/151/344
f 387/152/360 388/161/360 380/144/360
f 389/154/346 390/163/346 382/146/346
f 383/148/361 391/165/361 392/156/361
f 385/158/344 393/166/344 394/159/344
f 395/160/362 396/169/362 388/161/362
f 397/162/346 398/171/346 390/163/346
f 399/164/363 400/173/363 392/156/363
f 393/166/344 401/174/344 402/167/344
f 403/168/364 404/177/364 396/169/364
f 397/162/346 405/179/346 406/170/346
f 407/172/365 408/181/365 400/173/365
f 401/174/344 409/182/344 410/175/344
f 411/176/366 412/185/366 404/177/366
f 413/178/346 414/187/346 406/170/346
f 415/180/367 416/188/367 408/181/367
f 409/182/344 417/189/344 418/183/344
f 411/176/368 419/271/368 420/184/368
f 421/186/346 422/190/346 414/187/346
f 416/188/369 415/180/369 320/86/369
f 418/183/344 417/189/344 322/89/344
f 420/184/370 419/271/370 324/92/370
f 325/96/346 422/190/346 421/186/346
f 416/188/371 319/88/371 322/89/371
f 319/88/371 328/87/371 329/100/371
f 325/96/675 334/105/675 327/99/675
f 422/190/371 325/96/371 320/86/371
f 321/91/371 330/90/371 331/191/371
f 418/183/371 321/91/371 324/192/371
f 323/94/676 332/93/676 333/95/676
f 420/184/371 323/94/371 326/97/371
f 342/104/371 335/98/371 327/99/371
f 328/87/677 336/107/677 337/109/677
f 330/90/371 338/101/371 339/194/371
f 332/93/678 340/111/678 341/113/678
f 342/104/371 350/121/371 343/114/371
f 336/107/371 344/106/371 345/108/371
f 338/101/376 346/117/376 347/195/376
f 348/110/249 349/112/249 341/113/249
f 350/121/371 358/129/371 351/123/371
f 344/106/679 352/115/679 353/116/679
f 346/117/371 354/125/371 355/196/371
f 348/110/371 356/127/371 357/120/371
f 358/129/385 366/128/385 359/122/385
f 360/131/371 361/133/371 353/116/371
f 354/125/371 362/124/371 363/197/371
f 356/127/371 364/135/371 365/137/371
f 366/128/371 374/270/371 367/130/371
f 360/131/371 368/132/371 369/132/371
f 362/124/371 370/268/371 371/198/371
f 364/135/371 372/134/371 373/136/371
f 374/147/680 382/146/680 375/138/680
f 368/139/371 376/149/371 377/150/371
f 370/142/385 378/141/385 379/141/385
f 372/145/681 380/144/681 381/155/681
f 382/146/682 390/163/682 383/148/682
f 376/149/683 384/157/683 385/158/683
f 386/151/684 387/200/684 379/141/684
f 380/144/371 388/161/371 389/154/371
f 390/163/685 398/171/685 391/165/685
f 384/157/385 392/156/385 393/166/385
f 386/151/371 394/159/371 395/199/371
f 388/161/371 396/169/371 397/162/371
f 398/171/686 406/170/686 399/164/686
f 392/156/371 400/173/371 401/174/371
f 394/159/687 402/167/687 403/201/687
f 396/169/385 404/177/385 405/179/385
f 406/170/371 414/187/371 407/172/371
f 400/173/371 408/181/371 409/182/371
f 410/175/371 411/202/371 403/201/371
f 404/177/371 412/185/371 413/178/371
f 414/187/371 422/190/371 415/180/371
f 408/181/371 416/188/371 417/189/371
f 410/175/688 418/183/688 419/193/688
f 412/185/689 420/184/689 421/186/689
usemtl core
f 423/203/386 436/204/386 435/205/386
f 424/206/387 436/207/387 438/208/387
f 423/209/388 435/210/388 440/211/388
f 423/212/389 440/213/389 442/214/389
f 423/215/390 442/216/390 439/217/390
f 424/206/391 438/208/391 445/218/391
f 425/219/392 437/220/392 447/221/392
f 426/222/393 441/223/393 449/224/393
f 427/225/394 443/226/394 451/227/394
f 428/228/395 444/229/395 453/230/395
f 424/206/396 445/218/396 448/231/396
f 425/219/397 447/221/397 450/232/397
f 426/222/398 449/224/398 452/233/398
f 427/225/399 451/227/399 454/234/399
f 428/228/400 453/230/400 446/235/400
f 429/236/401 455/237/401 460/238/401
f 430/239/402 456/240/402 462/241/402
f 431/242/403 457/243/403 463/244/403
f 432/245/404 458/246/404 464/247/404
f 433/248/405 459/249/405 461/250/405
f 461/250/406 464/251/406 434/252/406
f 461/250/407 459/249/407 464/251/407
f 459/249/408 432/245/408 464/251/408
f 464/247/409 463/253/409 434/254/409
f 464/247/410 458/246/410 463/253/410
f 458/246/411 431/242/411 463/253/411
f 463/244/412 462/255/412 434/256/412
f 463/244/413 457/243/413 462/255/413
f 457/243/414 430/257/414 462/255/414
f 462/241/415 460/258/415 434/259/415
f 462/241/416 456/240/416 460/258/416
f 456/240/417 429/236/417 460/258/417
f 460/238/418 461/260/418 434/261/418
f 460/238/419 455/237/419 461/260/419
f 455/237/420 433/248/420 461/260/420
f 446/235/421 459/249/421 433/248/421
f 446/235/422 453/230/422 459/249/422
f 453/230/423 432/245/423 459/249/423
f 454/234/424 458/246/424 432/245/424
f 454/234/425 451/227/425 458/246/425
f 451/227/426 431/242/426 458/246/426
f 452/233/427 457/243/427 431/242/427
f 452/233/428 449/224/428 457/243/428
f 449/224/429 430/257/429 457/243/429
f 450/232/430 456/240/430 430/239/430
f 450/232/431 447/221/431 456/240/431
f 447/221/432 429/236/432 456/240/432
f 448/231/433 455/237/433 429/236/433
f 448/231/434 445/218/434 455/237/434
f 445/218/435 433/248/435 455/237/435
f 453/230/436 454/234/436 432/245/436
f 453/230/437 444/229/437 454/234/437
f 444/229/438 427/225/438 454/234/438
f 451/227/439 452/233/439 431/242/439
f 451/227/440 443/226/440 452/233/440
f 443/226/441 426/222/441 452/233/441
f 449/224/442 450/262/442 430/257/442
f 449/224/443 441/223/443 450/262/443
f 441/223/444 425/263/444 450/262/444
f 447/221/445 448/231/445 429/236/445
f 447/221/446 437/220/446 448/231/446
f 437/220/447 424/206/447 448/231/447
f 445/218/448 446/235/448 433/248/448
f 445/218/449 438/208/449 446/235/449
f 438/208/450 428/228/450 446/235/450
f 439/217/451 444/229/451 428/228/451
f 439/217/452 442/216/452 444/229/452
f 442/216/453 427/225/453 444/229/453
f 442/214/454 443/226/454 427/225/454
f 442/214/455 440/213/455 443/226/455
f 440/213/456 426/222/456 443/226/456
f 440/211/457 441/223/457 426/222/457
f 440/211/458 435/210/458 441/223/458
f 435/210/459 425/263/459 441/223/459
f 438/208/460 439/264/460 428/228/460
f 438/208/461 436/207/461 439/264/461
f 436/207/462 423/265/462 439/264/462
f 435/205/463 437/220/463 425/219/463
f 435/205/464 436/204/464 437/220/464
f 436/204/465 424/206/465 437/220/465
f 465/203/466 478/204/466 477/205/466
f 466/206/467 478/207/467 480/208/467
f 465/209/468 477/210/468 482/211/468
f 465/212/469 482/213/469 484/214/469
f 465/215/470 484/216/470 481/217/470
f 466/206/471 480/208/471 487/218/471
f 467/219/472 479/220/472 489/221/472
f 468/222/473 483/223/473 491/224/473
f 469/225/474 485/226/474 493/227/474
f 470/228/475 486/229/475 495/230/475
f 466/206/476 487/218/476 490/231/476
f 467/219/477 489/221/477 492/232/477
f 468/222/478 491/224/478 494/233/478
f 469/225/479 493/227/479 496/234/479
f 470/228/480 495/230/480 488/235/480
f 471/236/481 497/237/481 502/238/481
f 472/239/482 498/240/482 504/241/482
f 473/242/483 499/243/483 505/244/483
f 474/245/484 500/246/484 506/247/484
f 475/248/485 501/249/485 503/250/485
f 503/250/486 506/251/486 476/252/486
f 503/250/487 501/249/487 506/251/487
f 501/249/488 474/245/488 506/251/488
f 506/247/489 505/253/489 476/254/489
f 506/247/490 500/246/490 505/253/490
f 500/246/491 473/242/491 505/253/491
f 505/244/492 504/255/492 476/256/492
f 505/244/493 499/243/493 504/255/493
f 499/243/494 472/257/494 504/255/494
f 504/241/495 502/258/495 476/259/495
f 504/241/496 498/240/496 502/258/496
f 498/240/497 471/236/497 502/258/497
f 502/238/498 503/260/498 476/261/498
f 502/238/499 497/237/499 503/260/499
f 497/237/500 475/248/500 503/260/500
f 488/235/501 501/249/501 475/248/501
f 488/235/502 495/230/502 501/249/502
f 495/230/503 474/245/503 501/249/503
f 496/234/504 500/246/504 474/245/504
f 496/234/505 493/227/505 500/246/505
f 493/227/506 473/242/506 500/246/506
f 494/233/507 499/243/507 473/242/507
f 494/233/508 491/224/508 499/243/508
f 491/224/509 472/257/509 499/243/509
f 492/232/510 498/240/510 472/239/510
f 492/232/511 489/221/511 498/240/511
f 489/221/512 471/236/512 498/240/512
f 490/231/513 497/237/513 471/236/513
f 490/231/514 487/218/514 497/237/514
f 487/218/515 475/248/515 497/237/515
f 495/230/516 496/234/516 474/245/516
f 495/230/517 486/229/517 496/234/517
f 486/229/518 469/225/518 496/234/518
f 493/227/519 494/233/519 473/242/519
f 493/227/520 485/226/520 494/233/520
f 485/226/521 468/222/521 494/233/521
f 491/224/522 492/262/522 472/257/522
f 491/224/523 483/223/523 492/262/523
f 483/223/524 467/263/524 492/262/524
f 489/221/525 490/231/525 471/236/525
f 489/221/526 479/220/526 490/231/526
f 479/220/527 466/206/527 490/231/527
f 487/218/528 488/235/528 475/248/528
f 487/218/529 480/208/529 488/235/529
f 480/208/530 470/228/530 488/235/530
f 481/217/531 486/229/531 470/228/531
f 481/217/532 484/216/532 486/229/532
f 484/216/533 469/225/533 486/229/533
f 484/214/534 485/226/534 469/225/534
f 484/214/535 482/213/535 485/226/535
f 482/213/536 468/222/536 485/226/536
f 482/211/537 483/223/537 468/222/537
f 482/211/538 477/210/538 483/223/538
f 477/210/539 467/263/539 483/223/539
f 480/208/540 481/264/540 470/228/540
f 480/208/541 478/207/541 481/264/541
f 478/207/542 465/265/542 481/264/542
f 477/205/543 479/220/543 467/219/543
f 477/205/544 478/204/544 479/220/544
f 478/204/545 466/206/545 479/220/545
