# Blender 4.5.10 LTS
# www.blender.org
mtllib dandelion_rosette.mtl
o dandelion_rosette
v 0.031567 0.006829 -0.018284
v 0.031573 0.006867 -0.018574
v 0.032342 0.006730 -0.018288
v 0.033055 0.014626 -0.018834
v 0.033067 0.014683 -0.018548
v 0.033824 0.014489 -0.018549
v 0.032006 0.008335 0.029114
v 0.032781 0.008235 0.029110
v 0.032017 0.008391 0.029400
v 0.033505 0.016189 0.028850
v 0.033499 0.016151 0.029140
v 0.034263 0.015995 0.028849
v -0.094591 0.030931 -0.017882
v -0.095348 0.031124 -0.017881
v -0.094584 0.030969 -0.018172
v -0.093091 0.038785 -0.018146
v -0.093103 0.038728 -0.018432
v -0.093866 0.038884 -0.018142
v -0.094152 0.032437 0.029516
v -0.094140 0.032493 0.029802
v -0.094909 0.032630 0.029517
v -0.092652 0.040291 0.029252
v -0.093427 0.040390 0.029256
v -0.092659 0.040253 0.029542
v -0.016943 -0.009311 -0.035884
v -0.017205 -0.009270 -0.036005
v -0.016654 -0.009487 -0.036588
v -0.016495 -0.001694 -0.038144
v -0.016224 -0.001643 -0.038049
v -0.015944 -0.001911 -0.038727
v 0.027019 -0.008416 -0.018119
v 0.027308 -0.008591 -0.018824
v 0.027291 -0.008364 -0.018024
v 0.027738 -0.000748 -0.020284
v 0.028001 -0.000788 -0.020163
v 0.028018 -0.001016 -0.020963
v -0.063714 0.027233 0.078019
v -0.063993 0.027501 0.078698
v -0.063976 0.027274 0.077898
v -0.062995 0.034901 0.075854
v -0.063266 0.034850 0.075759
v -0.063283 0.035077 0.076559
v -0.019752 0.028128 0.095784
v -0.019480 0.028180 0.095878
v -0.020031 0.028396 0.096462
v -0.019033 0.035796 0.093619
v -0.019321 0.035972 0.094323
v -0.018770 0.035756 0.093739
v -0.037737 -0.000518 -0.007022
v -0.037963 -0.000463 -0.006846
v -0.038235 -0.000696 -0.007597
v -0.039252 0.007104 -0.008732
v -0.039041 0.007140 -0.008930
v -0.039524 0.006871 -0.009482
v -0.001703 -0.002053 -0.037815
v -0.002201 -0.002231 -0.038390
v -0.001492 -0.002016 -0.038014
v -0.003007 0.005606 -0.039723
v -0.002781 0.005551 -0.039899
v -0.003490 0.005336 -0.040275
v 0.043096 0.036359 0.085730
v 0.043579 0.036629 0.086282
v 0.042869 0.036414 0.085906
v 0.041791 0.044018 0.083822
v 0.041580 0.043981 0.084021
v 0.042290 0.044196 0.084397
v 0.079130 0.034824 0.054937
v 0.079341 0.034861 0.054739
v 0.079613 0.035094 0.055489
v 0.077826 0.042483 0.053029
v 0.078324 0.042661 0.053604
v 0.078052 0.042428 0.052853
v -0.011949 0.007105 0.030463
v -0.011855 0.007146 0.030737
v -0.012669 0.006977 0.030736
v -0.013457 0.014846 0.031520
v -0.013570 0.014899 0.031256
v -0.014271 0.014677 0.031519
v -0.028904 0.008082 -0.013816
v -0.029625 0.007954 -0.013542
v -0.029017 0.008135 -0.014080
v -0.030525 0.015876 -0.013023
v -0.030618 0.015835 -0.013297
v -0.031227 0.015654 -0.012759
v 0.105143 0.035960 -0.013737
v 0.105845 0.036182 -0.014001
v 0.105237 0.036001 -0.013464
v 0.103522 0.043754 -0.012945
v 0.103635 0.043701 -0.012681
v 0.104243 0.043882 -0.013218
v 0.088188 0.036937 -0.058016
v 0.088075 0.036990 -0.058280
v 0.088890 0.037159 -0.058280
v 0.086567 0.044731 -0.057223
v 0.087288 0.044859 -0.057497
v 0.086474 0.044690 -0.057497
v 0.019939 0.000496 0.018411
v 0.020228 0.000525 0.018431
v 0.019900 0.000402 0.019185
v 0.020674 0.008280 0.019893
v 0.020389 0.008346 0.019890
v 0.020346 0.008157 0.020647
v -0.027345 0.003580 0.016461
v -0.027383 0.003485 0.017236
v -0.027629 0.003646 0.016458
v -0.026894 0.011429 0.017940
v -0.027184 0.011401 0.017919
v -0.026938 0.011240 0.018697
v 0.026663 0.023871 -0.107705
v 0.026706 0.024060 -0.108462
v 0.026953 0.023899 -0.107685
v 0.027114 0.031720 -0.106226
v 0.027398 0.031654 -0.106223
v 0.027152 0.031815 -0.107001
v -0.020621 0.026955 -0.109655
v -0.020905 0.027021 -0.109658
v -0.020577 0.027144 -0.110412
v -0.020170 0.034804 -0.108176
v -0.020132 0.034899 -0.108951
v -0.020460 0.034776 -0.108197
v 0.036567 -0.008150 -0.001555
v 0.036713 -0.008118 -0.001805
v 0.037243 -0.008292 -0.001189
v 0.038583 -0.000458 -0.001244
v 0.038460 -0.000398 -0.000986
v 0.039113 -0.000633 -0.000627
v 0.014386 -0.005803 0.040297
v 0.015062 -0.005945 0.040663
v 0.014263 -0.005742 0.040554
v 0.016279 0.001949 0.040865
v 0.016133 0.001917 0.041116
v 0.016931 0.001714 0.041224
v -0.072816 0.022933 -0.061271
v -0.073469 0.023168 -0.061630
v -0.072670 0.022965 -0.061522
v -0.070923 0.030685 -0.060703
v -0.070800 0.030624 -0.060960
v -0.071599 0.030827 -0.061069
v -0.094997 0.025280 -0.019420
v -0.095120 0.025341 -0.019162
v -0.095650 0.025515 -0.019779
v -0.093104 0.033032 -0.018852
v -0.093780 0.033174 -0.019218
v -0.093251 0.033000 -0.018601
vn -0.1266 -0.9832 -0.1318
vn 0.2426 0.9500 -0.1966
vn -0.1235 -0.9727 0.1962
vn 0.2456 0.9604 0.1314
vn -0.2456 -0.9604 -0.1314
vn 0.1235 0.9727 -0.1962
vn -0.2425 -0.9500 0.1966
vn 0.1266 0.9832 0.1318
vn -0.1268 -0.9914 0.0327
vn 0.3315 -0.0948 -0.9387
vn 0.2474 0.9683 -0.0331
vn 0.3489 -0.0352 0.9365
vn -0.1834 -0.9631 0.1968
vn 0.1864 0.9736 0.1318
vn -0.3315 0.0948 0.9387
vn -0.2474 -0.9683 0.0331
vn 0.1268 0.9914 -0.0327
vn -0.3489 0.0352 -0.9365
vn -0.1864 -0.9736 -0.1318
vn 0.1834 0.9631 -0.1968
vn -0.1875 -0.9817 0.0329
vn 0.9822 -0.1877 -0.0031
vn -0.0093 -0.0318 -0.9995
vn 0.1875 0.9817 -0.0329
vn 0.0093 0.0318 0.9995
vn -0.9822 0.1877 0.0031
vn -0.2185 -0.9640 0.1512
vn -0.0416 0.9234 -0.3816
vn 0.0857 -0.9578 0.2742
vn 0.2626 0.9296 -0.2587
vn -0.2626 -0.9296 0.2587
vn -0.0857 0.9578 -0.2742
vn 0.0416 -0.9234 0.3817
vn 0.2185 0.9640 -0.1513
vn -0.0673 -0.9742 0.2156
vn -0.7435 -0.1163 -0.6586
vn 0.1120 0.9392 -0.3246
vn 0.9957 -0.0808 0.0442
vn 0.0638 -0.9423 0.3285
vn 0.2410 0.9485 -0.2054
vn 0.7435 0.1163 0.6586
vn -0.1120 -0.9392 0.3246
vn 0.0673 0.9741 -0.2156
vn -0.9957 0.0808 -0.0442
vn -0.2410 -0.9485 0.2054
vn -0.0638 0.9423 -0.3285
vn -0.0898 -0.9585 0.2706
vn 0.3641 -0.2845 -0.8868
vn -0.9270 -0.0189 -0.3746
vn 0.0898 0.9585 -0.2706
vn 0.9270 0.0189 0.3746
vn -0.3641 0.2845 0.8868
vn -0.0023 -0.9547 0.2976
vn -0.3234 0.9305 -0.1720
vn 0.2471 -0.9653 0.0845
vn -0.0740 0.9199 -0.3852
vn 0.0740 -0.9199 0.3852
vn -0.2471 0.9653 -0.0845
vn 0.3234 -0.9305 0.1720
vn 0.0023 0.9547 -0.2976
vn 0.1241 -0.9732 0.1937
vn -0.9308 -0.0691 0.3590
vn -0.2014 0.9379 -0.2824
vn 0.4948 -0.1298 -0.8593
vn 0.2858 -0.9496 0.1285
vn -0.0359 0.9390 -0.3420
vn 0.9308 0.0691 -0.3590
vn 0.2014 -0.9379 0.2824
vn -0.1241 0.9732 -0.1937
vn -0.4948 0.1298 0.8593
vn 0.0359 -0.9390 0.3420
vn -0.2858 0.9496 -0.1285
vn 0.1631 -0.9573 0.2385
vn -0.6293 -0.2871 -0.7221
vn -0.7598 0.0324 0.6493
vn -0.1631 0.9573 -0.2385
vn 0.7598 -0.0324 -0.6493
vn 0.6293 0.2871 0.7221
vn 0.2030 -0.9762 0.0765
vn -0.1961 0.9422 0.2716
vn 0.0856 -0.9694 -0.2299
vn -0.3135 0.9490 -0.0348
vn 0.3135 -0.9490 0.0348
vn -0.0856 0.9694 0.2300
vn 0.1961 -0.9422 -0.2716
vn -0.2030 0.9762 -0.0765
vn 0.1463 -0.9862 -0.0778
vn 0.0196 -0.0971 0.9951
vn -0.2583 0.9586 0.1201
vn -0.6512 -0.0585 -0.7567
vn 0.1411 -0.9576 -0.2513
vn -0.2587 0.9644 -0.0557
vn -0.0196 0.0971 -0.9951
vn 0.2583 -0.9586 -0.1201
vn -0.1463 0.9862 0.0778
vn 0.6512 0.0585 0.7567
vn 0.2587 -0.9643 0.0557
vn -0.1411 0.9576 0.2513
vn 0.2027 -0.9742 -0.0991
vn -0.9116 -0.2247 0.3441
vn 0.3575 -0.0206 0.9337
vn -0.2027 0.9742 0.0991
vn -0.3575 0.0206 -0.9337
vn 0.9116 0.2247 -0.3441
vn 0.1049 -0.9877 -0.1158
vn 0.2159 0.9443 0.2482
vn -0.2223 -0.9664 -0.1293
vn -0.1113 0.9657 0.2348
vn 0.1113 -0.9657 -0.2347
vn 0.2223 0.9664 0.1293
vn -0.2159 -0.9443 -0.2482
vn -0.1050 0.9877 0.1158
vn -0.0595 -0.9905 -0.1242
vn 0.9172 -0.1240 0.3787
vn 0.0530 0.9681 0.2448
vn -0.9535 -0.0020 0.3015
vn -0.2195 -0.9571 -0.1891
vn -0.1083 0.9785 0.1756
vn -0.9172 0.1240 -0.3787
vn -0.0530 -0.9681 -0.2448
vn 0.0595 0.9905 0.1242
vn 0.9534 0.0020 -0.3015
vn 0.1083 -0.9785 -0.1756
vn 0.2195 0.9571 0.1891
vn -0.0564 -0.9811 -0.1849
vn -0.0524 -0.1820 0.9819
vn 0.9970 -0.0650 0.0411
vn 0.0564 0.9811 0.1849
vn -0.9970 0.0650 -0.0411
vn 0.0524 0.1820 -0.9819
vn -0.1046 -0.9769 -0.1866
vn 0.3613 0.9313 -0.0467
vn -0.2581 -0.9606 0.1030
vn 0.2078 0.9475 0.2429
vn -0.2078 -0.9475 -0.2429
vn 0.2581 0.9606 -0.1030
vn -0.3613 -0.9313 0.0467
vn 0.1046 0.9769 0.1866
vn -0.1838 -0.9820 -0.0423
vn 0.7337 -0.1303 -0.6668
vn 0.2884 0.9523 0.0995
vn -0.1438 -0.0374 0.9889
vn -0.3102 -0.9477 0.0750
vn 0.1565 0.9640 0.2152
vn -0.7337 0.1303 0.6668
vn -0.2884 -0.9523 -0.0995
vn 0.1838 0.9820 0.0423
vn 0.1438 0.0374 -0.9889
vn -0.1565 -0.9640 -0.2152
vn 0.3102 0.9477 -0.0750
vn -0.2366 -0.9690 -0.0710
vn 0.8516 -0.2420 0.4649
vn 0.4677 -0.0495 -0.8825
vn 0.2366 0.9690 0.0710
vn -0.4677 0.0495 0.8825
vn -0.8516 0.2420 -0.4649
vn 0.0673 0.9742 -0.2156
vn 0.2587 -0.9643 0.0558
vn 0.9535 0.0020 -0.3015
vn 0.7337 -0.1302 -0.6668
vn 0.1565 0.9640 0.2151
vn -0.7338 0.1303 0.6668
vn -0.1565 -0.9640 -0.2151
vt 0.435780 0.476288
vt 0.435780 0.476000
vt 0.435000 0.476288
vt 0.435780 0.523712
vt 0.435000 0.523712
vt 0.435780 0.524000
vt 0.564220 0.476288
vt 0.565000 0.476288
vt 0.564220 0.476000
vt 0.564220 0.523712
vt 0.564220 0.524000
vt 0.565000 0.523712
vt 0.435780 0.503952
vt 0.435000 0.496048
vt 0.435780 0.496048
vt 0.435000 0.503952
vt 0.565000 0.496048
vt 0.564220 0.503952
vt 0.565000 0.503952
vt 0.564220 0.496048
vt 0.476288 0.503952
vt 0.523712 0.496048
vt 0.476288 0.496048
vt 0.523712 0.503952
s 0
usemtl moss
f 1/1/1 2/2/1 3/3/1
f 4/2/2 5/1/2 6/3/2
f 7/4/3 8/5/3 9/6/3
f 10/4/4 11/6/4 12/5/4
f 13/7/5 14/8/5 15/9/5
f 16/7/6 17/9/6 18/8/6
f 19/10/7 20/11/7 21/12/7
f 22/10/8 23/12/8 24/11/8
f 7/4/9 3/3/9 8/5/9
f 4/13/10 3/14/10 2/15/10
f 10/4/11 6/3/11 5/1/11
f 11/13/12 8/14/12 12/16/12
f 19/10/13 9/6/13 20/11/13
f 10/4/14 24/11/14 11/6/14
f 21/17/15 24/18/15 23/19/15
f 19/10/16 14/8/16 13/7/16
f 22/10/17 18/8/17 23/12/17
f 15/20/18 18/19/18 17/18/18
f 13/7/19 2/2/19 1/1/19
f 5/1/20 17/9/20 16/7/20
f 19/10/21 1/1/21 7/4/21
f 6/21/22 8/22/22 3/23/22
f 17/18/23 2/15/23 15/20/23
f 22/10/24 5/1/24 16/7/24
f 11/13/25 20/20/25 9/15/25
f 23/24/26 14/23/26 21/22/26
f 25/1/27 26/2/27 27/3/27
f 28/2/28 29/1/28 30/3/28
f 31/4/29 32/5/29 33/6/29
f 34/4/30 35/6/30 36/5/30
f 37/7/31 38/8/31 39/9/31
f 40/7/32 41/9/32 42/8/32
f 43/10/33 44/11/33 45/12/33
f 46/10/34 47/12/34 48/11/34
f 31/4/35 27/3/35 32/5/35
f 28/13/36 27/14/36 26/15/36
f 34/4/37 30/3/37 29/1/37
f 33/15/38 36/16/38 35/13/38
f 31/4/39 44/11/39 43/10/39
f 46/10/40 35/6/40 34/4/40
f 47/19/41 44/20/41 48/18/41
f 43/10/42 38/8/42 37/7/42
f 46/10/43 42/8/43 47/12/43
f 39/20/44 42/19/44 41/18/44
f 25/1/45 39/9/45 26/2/45
f 29/1/46 41/9/46 40/7/46
f 43/10/47 25/1/47 31/4/47
f 30/21/48 32/22/48 27/23/48
f 41/18/49 26/15/49 39/20/49
f 46/10/50 29/1/50 40/7/50
f 33/15/51 48/18/51 44/20/51
f 47/24/52 38/23/52 45/22/52
f 49/1/53 50/2/53 51/3/53
f 52/2/54 53/1/54 54/3/54
f 55/4/55 56/5/55 57/6/55
f 58/4/56 59/6/56 60/5/56
f 61/7/57 62/8/57 63/9/57
f 64/7/58 65/9/58 66/8/58
f 67/10/59 68/11/59 69/12/59
f 70/10/60 71/12/60 72/11/60
f 55/4/61 51/3/61 56/5/61
f 50/15/62 54/16/62 51/14/62
f 58/4/63 54/3/63 53/1/63
f 57/15/64 60/16/64 59/13/64
f 67/10/65 57/6/65 68/11/65
f 70/10/66 59/6/66 58/4/66
f 71/19/67 68/20/67 72/18/67
f 67/10/68 62/8/68 61/7/68
f 64/7/69 71/12/69 70/10/69
f 65/18/70 62/17/70 66/19/70
f 61/7/71 50/2/71 49/1/71
f 64/7/72 52/2/72 65/9/72
f 67/10/73 49/1/73 55/4/73
f 54/21/74 56/22/74 51/23/74
f 63/20/75 52/13/75 50/15/75
f 58/4/76 64/7/76 70/10/76
f 59/13/77 68/20/77 57/15/77
f 71/24/78 62/23/78 69/22/78
f 73/1/79 74/2/79 75/3/79
f 76/2/80 77/1/80 78/3/80
f 79/4/81 80/5/81 81/6/81
f 82/4/82 83/6/82 84/5/82
f 85/7/83 86/8/83 87/9/83
f 88/7/84 89/9/84 90/8/84
f 91/10/85 92/11/85 93/12/85
f 94/10/86 95/12/86 96/11/86
f 79/4/87 75/3/87 80/5/87
f 74/15/88 78/16/88 75/14/88
f 82/4/89 78/3/89 77/1/89
f 81/15/90 84/16/90 83/13/90
f 91/10/91 81/6/91 92/11/91
f 82/4/92 96/11/92 83/6/92
f 95/19/93 92/20/93 96/18/93
f 85/7/94 93/12/94 86/8/94
f 94/10/95 90/8/95 95/12/95
f 89/18/96 86/17/96 90/19/96
f 73/1/97 87/9/97 74/2/97
f 77/1/98 89/9/98 88/7/98
f 91/10/99 73/1/99 79/4/99
f 78/21/100 80/22/100 75/23/100
f 89/18/101 74/15/101 87/20/101
f 82/4/102 88/7/102 94/10/102
f 83/13/103 92/20/103 81/15/103
f 93/22/104 90/21/104 86/23/104
f 97/1/105 98/2/105 99/3/105
f 100/2/106 101/1/106 102/3/106
f 103/4/107 104/5/107 105/6/107
f 106/4/108 107/6/108 108/5/108
f 109/7/109 110/8/109 111/9/109
f 112/7/110 113/9/110 114/8/110
f 115/10/111 116/11/111 117/12/111
f 118/10/112 119/12/112 120/11/112
f 103/4/113 99/3/113 104/5/113
f 98/15/114 102/16/114 99/14/114
f 106/4/115 102/3/115 101/1/115
f 107/13/116 104/14/116 108/16/116
f 103/4/117 116/11/117 115/10/117
f 106/4/118 120/11/118 107/6/118
f 119/19/119 116/20/119 120/18/119
f 109/7/120 117/12/120 110/8/120
f 112/7/121 119/12/121 118/10/121
f 111/20/122 114/19/122 113/18/122
f 109/7/123 98/2/123 97/1/123
f 112/7/124 100/2/124 113/9/124
f 115/10/125 97/1/125 103/4/125
f 102/21/126 104/22/126 99/23/126
f 111/20/127 100/13/127 98/15/127
f 106/4/128 112/7/128 118/10/128
f 105/15/129 120/18/129 116/20/129
f 119/24/130 110/23/130 117/22/130
f 121/1/131 122/2/131 123/3/131
f 124/2/132 125/1/132 126/3/132
f 127/4/133 128/5/133 129/6/133
f 130/4/134 131/6/134 132/5/134
f 133/7/135 134/8/135 135/9/135
f 136/7/136 137/9/136 138/8/136
f 139/10/137 140/11/137 141/12/137
f 142/10/138 143/12/138 144/11/138
f 121/1/139 128/5/139 127/4/139
f 124/13/140 123/14/140 122/15/140
f 125/1/141 132/5/141 126/3/141
f 129/15/142 132/16/142 131/13/142
f 139/10/143 129/6/143 140/11/143
f 142/10/144 131/6/144 130/4/144
f 141/17/145 144/18/145 143/19/145
f 139/10/146 134/8/146 133/7/146
f 136/7/147 143/12/147 142/10/147
f 135/20/148 138/19/148 137/18/148
f 121/1/149 135/9/149 122/2/149
f 136/7/150 124/2/150 137/9/150
f 139/10/151 121/1/151 127/4/151
f 126/21/152 128/22/152 123/23/152
f 137/18/153 122/15/153 135/20/153
f 130/4/154 136/7/154 142/10/154
f 131/13/155 140/20/155 129/15/155
f 143/24/156 134/23/156 141/22/156
f 7/4/9 1/1/9 3/3/9
f 4/13/10 6/16/10 3/14/10
f 10/4/11 12/5/11 6/3/11
f 11/13/12 9/15/12 8/14/12
f 19/10/13 7/4/13 9/6/13
f 10/4/14 22/10/14 24/11/14
f 21/17/15 20/20/15 24/18/15
f 19/10/16 21/12/16 14/8/16
f 22/10/17 16/7/17 18/8/17
f 15/20/18 14/17/18 18/19/18
f 13/7/19 15/9/19 2/2/19
f 5/1/20 4/2/20 17/9/20
f 19/10/21 13/7/21 1/1/21
f 6/21/22 12/24/22 8/22/22
f 17/18/23 4/13/23 2/15/23
f 22/10/24 10/4/24 5/1/24
f 11/13/25 24/18/25 20/20/25
f 23/24/26 18/21/26 14/23/26
f 31/4/35 25/1/35 27/3/35
f 28/13/36 30/16/36 27/14/36
f 34/4/37 36/5/37 30/3/37
f 33/15/38 32/14/38 36/16/38
f 31/4/39 33/6/39 44/11/39
f 46/10/40 48/11/40 35/6/40
f 47/19/41 45/17/41 44/20/41
f 43/10/42 45/12/42 38/8/42
f 46/10/157 40/7/157 42/8/157
f 39/20/44 38/17/44 42/19/44
f 25/1/45 37/7/45 39/9/45
f 29/1/46 28/2/46 41/9/46
f 43/10/47 37/7/47 25/1/47
f 30/21/48 36/24/48 32/22/48
f 41/18/49 28/13/49 26/15/49
f 46/10/50 34/4/50 29/1/50
f 33/15/51 35/13/51 48/18/51
f 47/24/52 42/21/52 38/23/52
f 55/4/61 49/1/61 51/3/61
f 50/15/62 52/13/62 54/16/62
f 58/4/63 60/5/63 54/3/63
f 57/15/64 56/14/64 60/16/64
f 67/10/65 55/4/65 57/6/65
f 70/10/66 72/11/66 59/6/66
f 71/19/67 69/17/67 68/20/67
f 67/10/68 69/12/68 62/8/68
f 64/7/69 66/8/69 71/12/69
f 65/18/70 63/20/70 62/17/70
f 61/7/71 63/9/71 50/2/71
f 64/7/72 53/1/72 52/2/72
f 67/10/73 61/7/73 49/1/73
f 54/21/74 60/24/74 56/22/74
f 63/20/75 65/18/75 52/13/75
f 58/4/76 53/1/76 64/7/76
f 59/13/77 72/18/77 68/20/77
f 71/24/78 66/21/78 62/23/78
f 79/4/87 73/1/87 75/3/87
f 74/15/88 76/13/88 78/16/88
f 82/4/89 84/5/89 78/3/89
f 81/15/90 80/14/90 84/16/90
f 91/10/91 79/4/91 81/6/91
f 82/4/92 94/10/92 96/11/92
f 95/19/93 93/17/93 92/20/93
f 85/7/94 91/10/94 93/12/94
f 94/10/95 88/7/95 90/8/95
f 89/18/96 87/20/96 86/17/96
f 73/1/158 85/7/158 87/9/158
f 77/1/98 76/2/98 89/9/98
f 91/10/99 85/7/99 73/1/99
f 78/21/100 84/24/100 80/22/100
f 89/18/101 76/13/101 74/15/101
f 82/4/102 77/1/102 88/7/102
f 83/13/103 96/18/103 92/20/103
f 93/22/104 95/24/104 90/21/104
f 103/4/113 97/1/113 99/3/113
f 98/15/114 100/13/114 102/16/114
f 106/4/115 108/5/115 102/3/115
f 107/13/116 105/15/116 104/14/116
f 103/4/117 105/6/117 116/11/117
f 106/4/118 118/10/118 120/11/118
f 119/19/119 117/17/119 116/20/119
f 109/7/120 115/10/120 117/12/120
f 112/7/121 114/8/121 119/12/121
f 111/20/159 110/17/159 114/19/159
f 109/7/123 111/9/123 98/2/123
f 112/7/124 101/1/124 100/2/124
f 115/10/125 109/7/125 97/1/125
f 102/21/126 108/24/126 104/22/126
f 111/20/127 113/18/127 100/13/127
f 106/4/128 101/1/128 112/7/128
f 105/15/129 107/13/129 120/18/129
f 119/24/130 114/21/130 110/23/130
f 121/1/139 123/3/139 128/5/139
f 124/13/160 126/16/160 123/14/160
f 125/1/141 130/4/141 132/5/141
f 129/15/142 128/14/142 132/16/142
f 139/10/143 127/4/143 129/6/143
f 142/10/161 144/11/161 131/6/161
f 141/17/162 140/20/162 144/18/162
f 139/10/146 141/12/146 134/8/146
f 136/7/147 138/8/147 143/12/147
f 135/20/148 134/17/148 138/19/148
f 121/1/163 133/7/163 135/9/163
f 136/7/150 125/1/150 124/2/150
f 139/10/151 133/7/151 121/1/151
f 126/21/152 132/24/152 128/22/152
f 137/18/153 124/13/153 122/15/153
f 130/4/154 125/1/154 136/7/154
f 131/13/155 144/18/155 140/20/155
f 143/24/156 138/21/156 134/23/156
