# Blender 4.5.10 LTS
# www.blender.org
mtllib dandelion_bloom.mtl
o dandelion_bloom
v 0.029647 0.007112 -0.017281
v 0.029653 0.007151 -0.017559
v 0.030363 0.007024 -0.017285
v 0.031135 0.014910 -0.017819
v 0.031147 0.014966 -0.017545
v 0.031845 0.014784 -0.017545
v 0.030068 0.008556 0.028142
v 0.030784 0.008468 0.028138
v 0.030079 0.008611 0.028416
v 0.031567 0.016409 0.027878
v 0.031561 0.016371 0.028156
v 0.032265 0.016227 0.027878
v -0.086806 0.029360 -0.016910
v -0.087504 0.029543 -0.016910
v -0.086800 0.029399 -0.017188
v -0.085307 0.037214 -0.017174
v -0.085318 0.037158 -0.017448
v -0.086023 0.037302 -0.017170
v -0.086386 0.030804 0.028513
v -0.086374 0.030859 0.028787
v -0.087084 0.030986 0.028514
v -0.084886 0.038657 0.028250
v -0.085602 0.038745 0.028253
v -0.084893 0.038619 0.028527
v -0.016683 -0.008561 -0.033824
v -0.016935 -0.008521 -0.033940
v -0.016417 -0.008720 -0.034475
v -0.016225 -0.000945 -0.036079
v -0.015965 -0.000893 -0.035989
v -0.015707 -0.001144 -0.036614
v 0.025447 -0.007703 -0.016799
v 0.025713 -0.007862 -0.017451
v 0.025707 -0.007652 -0.016709
v 0.026165 -0.000036 -0.018964
v 0.026417 -0.000076 -0.018848
v 0.026423 -0.000286 -0.019590
v -0.059857 0.025172 0.071317
v -0.060115 0.025422 0.071943
v -0.060108 0.025212 0.071201
v -0.059138 0.032839 0.069152
v -0.059398 0.032788 0.069062
v -0.059405 0.032998 0.069804
v -0.017727 0.026029 0.088342
v -0.017466 0.026081 0.088432
v -0.017984 0.026280 0.088967
v -0.017008 0.033697 0.086177
v -0.017274 0.033856 0.086828
v -0.016756 0.033656 0.086293
v -0.035908 0.000193 -0.006199
v -0.036125 0.000248 -0.006031
v -0.036369 0.000032 -0.006730
v -0.037414 0.007815 -0.007916
v -0.037212 0.007852 -0.008107
v -0.037657 0.007599 -0.008615
v -0.001375 -0.001277 -0.035709
v -0.001836 -0.001438 -0.036240
v -0.001173 -0.001240 -0.035900
v -0.002680 0.006381 -0.037617
v -0.002462 0.006327 -0.037785
v -0.003125 0.006129 -0.038126
v 0.038707 0.034234 0.079419
v 0.039152 0.034486 0.079927
v 0.038490 0.034289 0.079586
v 0.037403 0.041893 0.077510
v 0.037201 0.041856 0.077701
v 0.037864 0.042053 0.078042
v 0.073240 0.032763 0.049908
v 0.073442 0.032800 0.049718
v 0.073685 0.033016 0.050417
v 0.071935 0.040422 0.048000
v 0.072396 0.040583 0.048532
v 0.072153 0.040367 0.047832
v -0.010527 0.007560 0.028888
v -0.010438 0.007602 0.029151
v -0.011193 0.007446 0.029141
v -0.012040 0.015302 0.029934
v -0.012149 0.015354 0.029681
v -0.012795 0.015146 0.029924
v -0.026776 0.008497 -0.013546
v -0.027442 0.008382 -0.013293
v -0.026884 0.008549 -0.013799
v -0.028397 0.016290 -0.012753
v -0.028486 0.016249 -0.013015
v -0.029044 0.016082 -0.012510
v 0.097558 0.034196 -0.011912
v 0.098204 0.034404 -0.012155
v 0.097647 0.034237 -0.011650
v 0.095936 0.041990 -0.011120
v 0.096045 0.041937 -0.010867
v 0.096602 0.042105 -0.011372
v 0.081309 0.035132 -0.054346
v 0.081201 0.035184 -0.054599
v 0.081956 0.035341 -0.054589
v 0.079688 0.042926 -0.053553
v 0.080354 0.043041 -0.053806
v 0.079599 0.042885 -0.053816
v 0.019110 0.000785 0.016441
v 0.019388 0.000814 0.016461
v 0.019075 0.000701 0.017157
v 0.019834 0.008569 0.017922
v 0.019561 0.008634 0.017920
v 0.019521 0.008456 0.018618
v -0.026203 0.003740 0.014573
v -0.026238 0.003656 0.015288
v -0.026476 0.003805 0.014570
v -0.025752 0.011589 0.016051
v -0.026030 0.011560 0.016031
v -0.025793 0.011411 0.016749
v 0.025317 0.022361 -0.099974
v 0.025357 0.022540 -0.100672
v 0.025595 0.022391 -0.099954
v 0.025768 0.030211 -0.098495
v 0.026040 0.030146 -0.098493
v 0.025803 0.030295 -0.099211
v -0.019996 0.025317 -0.101842
v -0.020269 0.025382 -0.101845
v -0.019956 0.025495 -0.102540
v -0.019545 0.033166 -0.100363
v -0.019510 0.033250 -0.101079
v -0.019823 0.033137 -0.100384
v 0.034547 -0.007580 -0.001744
v 0.034688 -0.007547 -0.001984
v 0.035172 -0.007708 -0.001406
v 0.036558 0.000112 -0.001423
v 0.036440 0.000172 -0.001176
v 0.037042 -0.000049 -0.000844
v 0.013290 -0.005331 0.038363
v 0.013915 -0.005459 0.038701
v 0.013173 -0.005271 0.038610
v 0.015183 0.002421 0.038932
v 0.015042 0.002388 0.039172
v 0.015785 0.002200 0.039263
v -0.066422 0.021111 -0.056867
v -0.067023 0.021332 -0.057198
v -0.066281 0.021144 -0.057107
v -0.064529 0.028863 -0.056299
v -0.064411 0.028803 -0.056546
v -0.065154 0.028991 -0.056637
v -0.087679 0.023361 -0.016760
v -0.087796 0.023421 -0.016513
v -0.088280 0.023581 -0.017091
v -0.085786 0.031113 -0.016191
v -0.086411 0.031240 -0.016530
v -0.085927 0.031080 -0.015951
v 0.002966 0.015331 0.000936
v 0.006495 0.020373 -0.001981
v 0.004182 0.020373 0.005349
v -0.004535 0.079861 -0.001430
v -0.002222 0.075471 0.003329
v 0.000090 0.075471 -0.004002
v 0.000022 0.015102 0.003126
v 0.003387 0.020311 0.005941
v -0.004261 0.019537 0.006020
v -0.006547 0.079705 0.000067
v -0.009870 0.074697 0.003407
v -0.002222 0.075471 0.003329
v -0.002953 0.014732 0.000996
v -0.005065 0.019437 0.005444
v -0.007478 0.018959 -0.001838
v -0.008581 0.079452 -0.001389
v -0.012283 0.074219 -0.003875
v -0.009870 0.074697 0.003407
v -0.001847 0.014732 -0.002510
v -0.007179 0.018959 -0.002786
v -0.001024 0.019437 -0.007365
v -0.007825 0.079452 -0.003786
v -0.006128 0.074697 -0.008454
v -0.012283 0.074219 -0.003875
v 0.001812 0.015102 -0.002548
v -0.000035 0.019537 -0.007375
v 0.006183 0.020311 -0.002923
v -0.005324 0.079705 -0.003812
v 0.000090 0.075471 -0.004002
v -0.006128 0.074697 -0.008454
v -0.003400 0.074924 -0.000888
v -0.000386 0.079457 -0.003336
v -0.002808 0.079457 0.002950
v -0.014062 0.138920 -0.004997
v -0.012105 0.135255 -0.000633
v -0.009682 0.135255 -0.006919
v -0.006202 0.074606 0.000951
v -0.003653 0.079361 0.003504
v -0.010302 0.078331 0.003172
v -0.015895 0.138712 -0.003794
v -0.018754 0.134225 -0.000965
v -0.012105 0.135255 -0.000633
v -0.008776 0.074092 -0.001156
v -0.011078 0.078176 0.002537
v -0.012765 0.077539 -0.003954
v -0.017580 0.138375 -0.005173
v -0.020441 0.133588 -0.007456
v -0.018754 0.134225 -0.000965
v -0.007566 0.074092 -0.004298
v -0.012400 0.077539 -0.004901
v -0.006793 0.078176 -0.008580
v -0.016787 0.138375 -0.007228
v -0.014834 0.134225 -0.011136
v -0.020441 0.133588 -0.007456
v -0.004243 0.074606 -0.004132
v -0.005792 0.078331 -0.008531
v -0.000640 0.079361 -0.004314
v -0.014613 0.138712 -0.007120
v -0.009682 0.135255 -0.006919
v -0.014834 0.134225 -0.011136
v -0.000759 0.139035 0.030161
v 0.001012 0.144202 0.033189
v -0.003762 0.157340 0.021222
v -0.000224 0.151738 0.029509
v -0.019505 0.140314 0.033083
v -0.019573 0.145606 0.036398
v -0.016952 0.158240 0.023278
v -0.018523 0.152986 0.032361
v -0.036846 0.141560 0.025383
v -0.038617 0.146974 0.027943
v -0.029155 0.159116 0.017860
v -0.035451 0.154202 0.024845
v -0.047278 0.142377 0.009506
v -0.050072 0.147871 0.010507
v -0.036496 0.159691 0.006687
v -0.045633 0.155000 0.009347
v -0.047488 0.142506 -0.009507
v -0.050303 0.148013 -0.010372
v -0.036644 0.159782 -0.006692
v -0.045838 0.155126 -0.009213
v -0.037410 0.141906 -0.025621
v -0.039235 0.147355 -0.028066
v -0.029552 0.159360 -0.018031
v -0.036000 0.154541 -0.024942
v -0.020242 0.140768 -0.033718
v -0.020383 0.146105 -0.036958
v -0.017472 0.158559 -0.023728
v -0.019243 0.153429 -0.032846
v -0.001437 0.139452 -0.031228
v 0.000268 0.144660 -0.034224
v -0.004239 0.157634 -0.021976
v -0.000886 0.152145 -0.030415
v 0.013036 0.138377 -0.018942
v 0.016161 0.143480 -0.020732
v 0.005946 0.156877 -0.013331
v 0.013242 0.151096 -0.018422
v 0.018582 0.137884 -0.000760
v 0.022251 0.142938 -0.000766
v 0.009848 0.156530 -0.000537
v 0.018655 0.150614 -0.000674
v 0.013439 0.138129 0.017545
v 0.016603 0.143207 0.019335
v 0.006229 0.156703 0.012344
v 0.013635 0.150854 0.017194
vn -0.1215 -0.9829 -0.1387
vn 0.2471 0.9474 -0.2035
vn -0.1183 -0.9720 0.2030
vn 0.2502 0.9583 0.1383
vn -0.2502 -0.9583 -0.1383
vn 0.1183 0.9720 -0.2030
vn -0.2471 -0.9474 0.2034
vn 0.1215 0.9829 0.1387
vn -0.1217 -0.9920 0.0326
vn 0.3429 -0.0968 -0.9344
vn 0.2524 0.9671 -0.0331
vn 0.3602 -0.0375 0.9321
vn -0.1831 -0.9618 0.2037
vn 0.1863 0.9726 0.1388
vn -0.3429 0.0968 0.9344
vn -0.2524 -0.9671 0.0331
vn 0.1217 0.9920 -0.0326
vn -0.3602 0.0375 -0.9321
vn -0.1863 -0.9726 -0.1388
vn 0.1831 0.9618 -0.2037
vn -0.1875 -0.9817 0.0329
vn 0.9822 -0.1877 -0.0031
vn -0.0093 -0.0318 -0.9995
vn 0.1875 0.9817 -0.0329
vn 0.0093 0.0318 0.9995
vn -0.9822 0.1877 0.0031
vn -0.2230 -0.9642 0.1439
vn -0.0463 0.9204 -0.3882
vn 0.0940 -0.9577 0.2720
vn 0.2707 0.9269 -0.2601
vn -0.2707 -0.9269 0.2601
vn -0.0941 0.9577 -0.2720
vn 0.0463 -0.9204 0.3882
vn 0.2230 0.9642 -0.1439
vn -0.0654 -0.9753 0.2110
vn -0.7352 -0.1195 -0.6672
vn 0.1139 0.9374 -0.3290
vn 0.9959 -0.0842 0.0323
vn 0.0703 -0.9411 0.3308
vn 0.2474 0.9475 -0.2024
vn 0.7352 0.1195 0.6672
vn -0.1139 -0.9374 0.3290
vn 0.0654 0.9753 -0.2110
vn -0.9959 0.0842 -0.0324
vn -0.2474 -0.9475 0.2024
vn -0.0703 0.9411 -0.3308
vn -0.0898 -0.9585 0.2706
vn 0.3641 -0.2845 -0.8868
vn -0.9270 -0.0189 -0.3746
vn 0.0898 0.9585 -0.2706
vn 0.9270 0.0189 0.3746
vn -0.3641 0.2845 0.8868
vn -0.0108 -0.9545 0.2982
vn -0.3315 0.9279 -0.1708
vn 0.2490 -0.9655 0.0761
vn -0.0717 0.9168 -0.3928
vn 0.0716 -0.9168 0.3928
vn -0.2490 0.9655 -0.0761
vn 0.3315 -0.9279 0.1708
vn 0.0108 0.9544 -0.2982
vn 0.1208 -0.9743 0.1900
vn -0.9348 -0.0726 0.3478
vn -0.2046 0.9361 -0.2860
vn 0.4842 -0.1330 -0.8648
vn 0.2908 -0.9487 0.1237
vn -0.0305 0.9377 -0.3462
vn 0.9348 0.0726 -0.3478
vn 0.2046 -0.9361 0.2860
vn -0.1208 0.9743 -0.1900
vn -0.4842 0.1330 0.8648
vn 0.0305 -0.9376 0.3462
vn -0.2908 0.9487 -0.1237
vn 0.1631 -0.9573 0.2385
vn -0.6293 -0.2871 -0.7221
vn -0.7598 0.0324 0.6493
vn -0.1631 0.9573 -0.2385
vn 0.7598 -0.0324 -0.6493
vn 0.6293 0.2871 0.7221
vn 0.2006 -0.9760 0.0848
vn -0.1979 0.9395 0.2796
vn 0.0784 -0.9690 -0.2345
vn -0.3201 0.9465 -0.0397
vn 0.3201 -0.9466 0.0397
vn -0.0783 0.9690 0.2345
vn 0.1979 -0.9395 -0.2796
vn -0.2006 0.9760 -0.0848
vn 0.1416 -0.9870 -0.0760
vn 0.0075 -0.0996 0.9950
vn -0.2629 0.9571 0.1218
vn -0.6602 -0.0612 -0.7486
vn 0.1384 -0.9563 -0.2576
vn -0.2609 0.9633 -0.0623
vn -0.0075 0.0996 -0.9950
vn 0.2629 -0.9571 -0.1218
vn -0.1416 0.9870 0.0760
vn 0.6601 0.0612 0.7486
vn 0.2609 -0.9633 0.0624
vn -0.1384 0.9563 0.2576
vn 0.2027 -0.9742 -0.0991
vn -0.9116 -0.2247 0.3441
vn 0.3575 -0.0206 0.9337
vn -0.2027 0.9742 0.0991
vn -0.3575 0.0206 -0.9337
vn 0.9116 0.2247 -0.3441
vn 0.1116 -0.9876 -0.1103
vn 0.2225 0.9415 0.2531
vn -0.2293 -0.9654 -0.1244
vn -0.1185 0.9638 0.2391
vn 0.1185 -0.9638 -0.2391
vn 0.2293 0.9654 0.1244
vn -0.2225 -0.9415 -0.2531
vn -0.1116 0.9876 0.1104
vn -0.0597 -0.9911 -0.1191
vn 0.9122 -0.1259 0.3898
vn 0.0528 0.9669 0.2498
vn -0.9497 -0.0044 0.3131
vn -0.2264 -0.9555 -0.1892
vn -0.1153 0.9778 0.1751
vn -0.9122 0.1259 -0.3898
vn -0.0528 -0.9669 -0.2498
vn 0.0597 0.9911 0.1191
vn 0.9497 0.0044 -0.3131
vn 0.1153 -0.9778 -0.1751
vn 0.2264 0.9555 0.1892
vn -0.0564 -0.9811 -0.1849
vn -0.0524 -0.1820 0.9819
vn 0.9970 -0.0650 0.0411
vn 0.0564 0.9811 0.1849
vn -0.9970 0.0650 -0.0411
vn 0.0524 0.1820 -0.9819
vn -0.0968 -0.9770 -0.1902
vn 0.3684 0.9283 -0.0506
vn -0.2567 -0.9600 0.1115
vn 0.2084 0.9452 0.2512
vn -0.2084 -0.9452 -0.2512
vn 0.2567 0.9600 -0.1115
vn -0.3683 -0.9283 0.0506
vn 0.0968 0.9770 0.1902
vn -0.1794 -0.9830 -0.0400
vn 0.7416 -0.1328 -0.6576
vn 0.2927 0.9508 0.1018
vn -0.1319 -0.0404 0.9904
vn -0.3132 -0.9462 0.0812
vn 0.1529 0.9632 0.2212
vn -0.7416 0.1328 0.6576
vn -0.2927 -0.9508 -0.1018
vn 0.1794 0.9830 0.0400
vn 0.1319 0.0404 -0.9904
vn -0.1529 -0.9632 -0.2212
vn 0.3132 0.9462 -0.0812
vn -0.2366 -0.9690 -0.0710
vn 0.8516 -0.2420 0.4649
vn 0.4677 -0.0495 -0.8825
vn 0.2366 0.9690 0.0710
vn -0.4677 0.0495 0.8825
vn -0.8516 0.2420 -0.4649
vn 0.8553 -0.4424 0.2698
vn 0.7344 0.6380 0.2317
vn 0.0599 -0.5043 0.8615
vn -0.0500 0.5770 0.8152
vn -0.7436 -0.6043 0.2862
vn -0.8424 0.4784 0.2478
vn -0.4448 -0.6043 -0.6611
vn -0.5478 0.4784 -0.6864
vn 0.5433 -0.5043 -0.6712
vn 0.4268 0.5770 -0.6963
vn 0.4910 -0.6379 0.5934
vn 0.3431 0.7676 0.5413
vn 0.9467 0.1210 0.2986
vn 0.0054 0.0479 0.9988
vn -0.3411 -0.7221 0.6019
vn -0.4788 0.6845 0.5498
vn -0.9455 -0.0705 0.3180
vn -0.6037 -0.7741 -0.1904
vn -0.7382 0.6331 -0.2329
vn -0.5918 -0.0705 -0.8030
vn 0.0660 -0.7221 -0.6887
vn -0.0767 0.6845 -0.7250
vn 0.5776 0.0479 -0.8149
vn 0.7426 -0.6379 -0.2042
vn 0.5916 0.7676 -0.2465
vn 0.1010 -0.9944 0.0318
vn 0.5891 0.0979 0.8021
vn 0.9427 0.0979 -0.3189
vn -0.1010 0.9944 -0.0318
vn -0.5804 -0.0205 0.8141
vn -0.9495 -0.0936 -0.2995
vn -0.0082 -0.0205 -0.9998
vn 0.8584 -0.3921 0.3308
vn 0.6845 0.6797 0.2638
vn 0.0317 -0.4860 0.8734
vn -0.1308 0.5871 0.7989
vn -0.7279 -0.6378 0.2517
vn -0.8799 0.4373 0.1858
vn -0.3707 -0.6378 -0.6751
vn -0.5276 0.4373 -0.7282
vn 0.6097 -0.4860 -0.6262
vn 0.4392 0.5871 -0.6800
vn 0.4851 -0.6011 0.6351
vn 0.2683 0.7936 0.5461
vn 0.9186 0.1758 0.3540
vn -0.0597 0.0647 0.9961
vn -0.3404 -0.7289 0.5939
vn -0.5471 0.6673 0.5054
vn -0.9586 -0.1150 0.2604
vn -0.5498 -0.8080 -0.2119
vn -0.7539 0.5892 -0.2906
vn -0.5359 -0.1150 -0.8364
vn 0.1463 -0.7289 -0.6688
vn -0.0664 0.6673 -0.7418
vn 0.6243 0.0647 -0.7785
vn 0.7859 -0.6011 -0.1453
vn 0.5654 0.7936 -0.2248
vn 0.1500 -0.9870 0.0578
vn 0.5318 0.1422 0.8348
vn 0.9545 0.1422 -0.2620
vn -0.1500 0.9870 -0.0578
vn -0.6284 -0.0375 0.7770
vn -0.9227 -0.1486 -0.3556
vn 0.0556 -0.0375 -0.9977
vn 0.0956 -0.5275 0.8441
vn 0.1378 0.8469 0.5136
vn -0.3822 -0.4941 0.7809
vn -0.1489 0.8669 0.4757
vn -0.7499 -0.4668 0.4687
vn -0.3696 0.8833 0.2883
vn -0.8908 -0.4543 0.0067
vn -0.4542 0.8908 0.0111
vn -0.7602 -0.4605 -0.4583
vn -0.3758 0.8871 -0.2681
vn -0.3994 -0.4835 -0.7789
vn -0.1593 0.8733 -0.4604
vn 0.0769 -0.5160 -0.8531
vn 0.1266 0.8538 -0.5050
vn 0.5175 -0.5476 -0.6575
vn 0.3910 0.8348 -0.3876
vn 0.7825 -0.5684 -0.2541
vn 0.5501 0.8223 -0.1455
vn 0.7879 -0.5717 0.2290
vn 0.5533 0.8204 0.1445
vn 0.5318 -0.5565 0.6384
vn 0.3996 0.8295 0.3902
vn -0.0690 -0.9976 -0.0060
vn 0.1674 0.4547 0.8748
vn 0.6163 0.4249 0.6631
vn 0.0690 0.9976 0.0060
vn -0.3244 0.4891 0.8097
vn -0.7028 0.5172 0.4884
vn -0.8478 0.5301 0.0130
vn -0.7134 0.5237 -0.4657
vn -0.3421 0.5000 -0.7956
vn 0.1481 0.4665 -0.8720
vn 0.6016 0.4340 -0.6707
vn 0.8743 0.4126 -0.2555
vn 0.8798 0.4092 0.2417
vn 0.2473 0.9475 -0.2024
vn -0.9959 0.0842 -0.0323
vn -0.2473 -0.9475 0.2024
vn 0.2909 -0.9487 0.1237
vn -0.0305 0.9376 -0.3462
vn 0.9347 0.0726 -0.3478
vn -0.2909 0.9487 -0.1237
vn -0.6601 -0.0612 -0.7486
vn -0.2609 0.9633 -0.0624
vn 0.6602 0.0612 0.7486
vn 0.2609 -0.9633 0.0623
vn -0.0000 -1.0000 -0.0000
vn -0.0000 -0.8321 -0.5547
vn -0.0000 -0.6585 0.7526
vn -0.0000 -0.7809 0.6247
vn -0.5547 -0.8321 -0.0000
vn -1.0000 -0.0000 -0.0000
vn -0.9948 -0.1019 -0.0000
vn 0.6212 0.0120 -0.7836
vn 0.9955 0.0944 -0.0000
vn -0.5103 0.0235 0.8597
vn -0.0000 1.0000 -0.0000
vn 0.1618 0.0416 -0.9859
vn -0.9345 -0.3560 -0.0000
vn 0.9985 0.0544 -0.0000
vt 0.440720 0.477276
vt 0.440720 0.477000
vt 0.440000 0.477276
vt 0.440720 0.522724
vt 0.440000 0.522724
vt 0.440720 0.523000
vt 0.559280 0.477276
vt 0.560000 0.477276
vt 0.559280 0.477000
vt 0.559280 0.522724
vt 0.559280 0.523000
vt 0.560000 0.522724
vt 0.440720 0.503952
vt 0.440000 0.496048
vt 0.440720 0.496048
vt 0.440000 0.503952
vt 0.560000 0.503952
vt 0.559280 0.496048
vt 0.559280 0.503952
vt 0.477276 0.503952
vt 0.522724 0.496048
vt 0.477276 0.496048
vt 0.522724 0.503952
vt 0.560000 0.496048
vt 0.028274 0.483750
vt 0.032974 0.486125
vt 0.023575 0.486125
vt 0.028274 0.516250
vt 0.023031 0.513875
vt 0.033517 0.513875
vt 0.018365 0.483750
vt 0.022411 0.486125
vt 0.012594 0.486125
vt 0.018950 0.516250
vt 0.012039 0.513875
vt 0.006720 0.483750
vt 0.011336 0.486125
vt 0.000668 0.486125
vt 0.007329 0.516250
vt 0.000000 0.513875
vt 0.012039 0.513875
vt 0.049829 0.483750
vt 0.055880 0.486125
vt 0.045213 0.486125
vt 0.049220 0.516250
vt 0.044510 0.513875
vt 0.056549 0.513875
vt 0.038184 0.483750
vt 0.043954 0.486125
vt 0.034137 0.486125
vt 0.037599 0.516250
vt 0.044510 0.513875
vt 0.063268 0.483750
vt 0.057217 0.486125
vt 0.063878 0.516250
vt 0.025164 0.483750
vt 0.029282 0.485832
vt 0.021046 0.485832
vt 0.025164 0.516250
vt 0.020489 0.514169
vt 0.029839 0.514169
vt 0.016267 0.483750
vt 0.019856 0.485832
vt 0.011267 0.485832
vt 0.016826 0.516250
vt 0.010698 0.514169
vt 0.005909 0.483750
vt 0.009982 0.485832
vt 0.000680 0.485832
vt 0.006478 0.516250
vt 0.000000 0.514169
vt 0.010698 0.514169
vt 0.044419 0.483750
vt 0.049649 0.485832
vt 0.040346 0.485832
vt 0.043850 0.516250
vt 0.039630 0.514169
vt 0.050328 0.514169
vt 0.034061 0.483750
vt 0.039062 0.485832
vt 0.030473 0.485832
vt 0.033502 0.516250
vt 0.056237 0.483750
vt 0.051008 0.485832
vt 0.056806 0.516250
vt 0.102370 0.498147
vt 0.125664 0.495500
vt 0.125664 0.498147
vt 0.125664 0.501853
vt 0.102114 0.504500
vt 0.102313 0.501853
vt 0.079225 0.498147
vt 0.102326 0.495500
vt 0.079131 0.501853
vt 0.078803 0.504500
vt 0.056242 0.495500
vt 0.079151 0.495500
vt 0.055874 0.504500
vt 0.056221 0.501853
vt 0.033668 0.498147
vt 0.056320 0.498147
vt 0.033336 0.504500
vt 0.033593 0.501853
vt 0.011200 0.498147
vt 0.033609 0.495500
vt 0.011173 0.501853
vt 0.011078 0.504500
vt 0.262527 0.498147
vt 0.240149 0.495500
vt 0.262506 0.495500
vt 0.262500 0.501853
vt 0.240249 0.504500
vt 0.240155 0.501853
vt 0.240127 0.498147
vt 0.217718 0.495500
vt 0.217991 0.504500
vt 0.217734 0.501853
vt 0.195007 0.498147
vt 0.217660 0.498147
vt 0.195453 0.504500
vt 0.195107 0.501853
vt 0.172176 0.495500
vt 0.195085 0.495500
vt 0.172196 0.501853
vt 0.172525 0.504500
vt 0.148957 0.498147
vt 0.172103 0.498147
vt 0.149214 0.504500
vt 0.149014 0.501853
vt 0.149002 0.495500
vt 0.125664 0.504500
vt 0.307202 0.504500
vt 0.011179 0.495500
vt 0.262406 0.504500
vt 0.307570 0.495500
vt 0.284937 0.495500
vt 0.284663 0.504500
s 0
usemtl moss
f 1/1/1 2/2/1 3/3/1
f 4/2/2 5/1/2 6/3/2
f 7/4/3 8/5/3 9/6/3
f 10/4/4 11/6/4 12/5/4
f 13/7/5 14/8/5 15/9/5
f 16/7/6 17/9/6 18/8/6
f 19/10/7 20/11/7 21/12/7
f 22/10/8 23/12/8 24/11/8
f 1/1/9 8/5/9 7/4/9
f 4/13/10 3/14/10 2/15/10
f 5/1/11 12/5/11 6/3/11
f 9/15/12 12/16/12 11/13/12
f 7/4/13 20/11/13 19/10/13
f 22/10/14 11/6/14 10/4/14
f 23/17/15 20/18/15 24/19/15
f 19/10/16 14/8/16 13/7/16
f 16/7/17 23/12/17 22/10/17
f 15/18/18 18/17/18 17/19/18
f 1/1/19 15/9/19 2/2/19
f 16/7/20 4/2/20 17/9/20
f 19/10/21 1/1/21 7/4/21
f 6/20/22 8/21/22 3/22/22
f 15/18/23 4/13/23 2/15/23
f 10/4/24 16/7/24 22/10/24
f 11/13/25 20/18/25 9/15/25
f 23/23/26 14/22/26 21/21/26
f 25/1/27 26/2/27 27/3/27
f 28/2/28 29/1/28 30/3/28
f 31/4/29 32/5/29 33/6/29
f 34/4/30 35/6/30 36/5/30
f 37/7/31 38/8/31 39/9/31
f 40/7/32 41/9/32 42/8/32
f 43/10/33 44/11/33 45/12/33
f 46/10/34 47/12/34 48/11/34
f 31/4/35 27/3/35 32/5/35
f 28/13/36 27/14/36 26/15/36
f 29/1/37 36/5/37 30/3/37
f 35/13/38 32/14/38 36/16/38
f 43/10/39 33/6/39 44/11/39
f 46/10/40 35/6/40 34/4/40
f 47/17/41 44/18/41 48/19/41
f 43/10/42 38/8/42 37/7/42
f 40/7/43 47/12/43 46/10/43
f 39/18/44 42/17/44 41/19/44
f 25/1/45 39/9/45 26/2/45
f 29/1/46 41/9/46 40/7/46
f 43/10/47 25/1/47 31/4/47
f 27/22/48 36/23/48 32/21/48
f 41/19/49 26/15/49 39/18/49
f 34/4/50 40/7/50 46/10/50
f 33/15/51 48/19/51 44/18/51
f 45/21/52 42/20/52 38/22/52
f 49/1/53 50/2/53 51/3/53
f 52/2/54 53/1/54 54/3/54
f 55/4/55 56/5/55 57/6/55
f 58/4/56 59/6/56 60/5/56
f 61/7/57 62/8/57 63/9/57
f 64/7/58 65/9/58 66/8/58
f 67/10/59 68/11/59 69/12/59
f 70/10/60 71/12/60 72/11/60
f 49/1/61 56/5/61 55/4/61
f 50/15/62 54/16/62 51/14/62
f 58/4/63 54/3/63 53/1/63
f 57/15/64 60/16/64 59/13/64
f 55/4/65 68/11/65 67/10/65
f 58/4/66 72/11/66 59/6/66
f 69/24/67 72/19/67 71/17/67
f 61/7/68 69/12/68 62/8/68
f 64/7/69 71/12/69 70/10/69
f 63/18/70 66/17/70 65/19/70
f 61/7/71 50/2/71 49/1/71
f 64/7/72 52/2/72 65/9/72
f 67/10/73 49/1/73 55/4/73
f 54/20/74 56/21/74 51/22/74
f 65/19/75 50/15/75 63/18/75
f 58/4/76 64/7/76 70/10/76
f 57/15/77 72/19/77 68/18/77
f 69/21/78 66/20/78 62/22/78
f 73/1/79 74/2/79 75/3/79
f 76/2/80 77/1/80 78/3/80
f 79/4/81 80/5/81 81/6/81
f 82/4/82 83/6/82 84/5/82
f 85/7/83 86/8/83 87/9/83
f 88/7/84 89/9/84 90/8/84
f 91/10/85 92/11/85 93/12/85
f 94/10/86 95/12/86 96/11/86
f 79/4/87 75/3/87 80/5/87
f 74/15/88 78/16/88 75/14/88
f 82/4/89 78/3/89 77/1/89
f 83/13/90 80/14/90 84/16/90
f 91/10/91 81/6/91 92/11/91
f 94/10/92 83/6/92 82/4/92
f 93/24/93 96/19/93 95/17/93
f 91/10/94 86/8/94 85/7/94
f 88/7/95 95/12/95 94/10/95
f 87/18/96 90/17/96 89/19/96
f 85/7/97 74/2/97 73/1/97
f 88/7/98 76/2/98 89/9/98
f 79/4/99 85/7/99 73/1/99
f 78/20/100 80/21/100 75/22/100
f 89/19/101 74/15/101 87/18/101
f 82/4/102 88/7/102 94/10/102
f 81/15/103 96/19/103 92/18/103
f 95/23/104 86/22/104 93/21/104
f 97/1/105 98/2/105 99/3/105
f 100/2/106 101/1/106 102/3/106
f 103/4/107 104/5/107 105/6/107
f 106/4/108 107/6/108 108/5/108
f 109/7/109 110/8/109 111/9/109
f 112/7/110 113/9/110 114/8/110
f 115/10/111 116/11/111 117/12/111
f 118/10/112 119/12/112 120/11/112
f 103/4/113 99/3/113 104/5/113
f 100/13/114 99/14/114 98/15/114
f 106/4/115 102/3/115 101/1/115
f 107/13/116 104/14/116 108/16/116
f 115/10/117 105/6/117 116/11/117
f 106/4/118 120/11/118 107/6/118
f 117/24/119 120/19/119 119/17/119
f 109/7/120 117/12/120 110/8/120
f 118/10/121 114/8/121 119/12/121
f 113/19/122 110/24/122 114/17/122
f 97/1/123 111/9/123 98/2/123
f 112/7/124 100/2/124 113/9/124
f 115/10/125 97/1/125 103/4/125
f 102/20/126 104/21/126 99/22/126
f 113/19/127 98/15/127 111/18/127
f 106/4/128 112/7/128 118/10/128
f 105/15/129 120/19/129 116/18/129
f 117/21/130 114/20/130 110/22/130
f 121/1/131 122/2/131 123/3/131
f 124/2/132 125/1/132 126/3/132
f 127/4/133 128/5/133 129/6/133
f 130/4/134 131/6/134 132/5/134
f 133/7/135 134/8/135 135/9/135
f 136/7/136 137/9/136 138/8/136
f 139/10/137 140/11/137 141/12/137
f 142/10/138 143/12/138 144/11/138
f 127/4/139 123/3/139 128/5/139
f 122/15/140 126/16/140 123/14/140
f 125/1/141 132/5/141 126/3/141
f 131/13/142 128/14/142 132/16/142
f 127/4/143 140/11/143 139/10/143
f 130/4/144 144/11/144 131/6/144
f 141/24/145 144/19/145 143/17/145
f 133/7/146 141/12/146 134/8/146
f 142/10/147 138/8/147 143/12/147
f 135/18/148 138/17/148 137/19/148
f 121/1/149 135/9/149 122/2/149
f 125/1/150 137/9/150 136/7/150
f 139/10/151 121/1/151 127/4/151
f 126/20/152 128/21/152 123/22/152
f 137/19/153 122/15/153 135/18/153
f 130/4/154 136/7/154 142/10/154
f 131/13/155 140/18/155 129/15/155
f 143/23/156 134/22/156 141/21/156
f 1/1/9 3/3/9 8/5/9
f 4/13/10 6/16/10 3/14/10
f 5/1/11 10/4/11 12/5/11
f 9/15/12 8/14/12 12/16/12
f 7/4/13 9/6/13 20/11/13
f 22/10/14 24/11/14 11/6/14
f 23/17/15 21/24/15 20/18/15
f 19/10/16 21/12/16 14/8/16
f 16/7/17 18/8/17 23/12/17
f 15/18/18 14/24/18 18/17/18
f 1/1/19 13/7/19 15/9/19
f 16/7/20 5/1/20 4/2/20
f 19/10/21 13/7/21 1/1/21
f 6/20/22 12/23/22 8/21/22
f 15/18/23 17/19/23 4/13/23
f 10/4/24 5/1/24 16/7/24
f 11/13/25 24/19/25 20/18/25
f 23/23/26 18/20/26 14/22/26
f 31/4/35 25/1/35 27/3/35
f 28/13/36 30/16/36 27/14/36
f 29/1/37 34/4/37 36/5/37
f 35/13/38 33/15/38 32/14/38
f 43/10/39 31/4/39 33/6/39
f 46/10/256 48/11/256 35/6/256
f 47/17/41 45/24/41 44/18/41
f 43/10/42 45/12/42 38/8/42
f 40/7/43 42/8/43 47/12/43
f 39/18/257 38/24/257 42/17/257
f 25/1/258 37/7/258 39/9/258
f 29/1/46 28/2/46 41/9/46
f 43/10/47 37/7/47 25/1/47
f 27/22/48 30/20/48 36/23/48
f 41/19/49 28/13/49 26/15/49
f 34/4/50 29/1/50 40/7/50
f 33/15/51 35/13/51 48/19/51
f 45/21/52 47/23/52 42/20/52
f 49/1/61 51/3/61 56/5/61
f 50/15/62 52/13/62 54/16/62
f 58/4/63 60/5/63 54/3/63
f 57/15/64 56/14/64 60/16/64
f 55/4/259 57/6/259 68/11/259
f 58/4/260 70/10/260 72/11/260
f 69/24/261 68/18/261 72/19/261
f 61/7/68 67/10/68 69/12/68
f 64/7/69 66/8/69 71/12/69
f 63/18/70 62/24/70 66/17/70
f 61/7/71 63/9/71 50/2/71
f 64/7/262 53/1/262 52/2/262
f 67/10/73 61/7/73 49/1/73
f 54/20/74 60/23/74 56/21/74
f 65/19/75 52/13/75 50/15/75
f 58/4/76 53/1/76 64/7/76
f 57/15/77 59/13/77 72/19/77
f 69/21/78 71/23/78 66/20/78
f 79/4/87 73/1/87 75/3/87
f 74/15/88 76/13/88 78/16/88
f 82/4/89 84/5/89 78/3/89
f 83/13/263 81/15/263 80/14/263
f 91/10/91 79/4/91 81/6/91
f 94/10/264 96/11/264 83/6/264
f 93/24/93 92/18/93 96/19/93
f 91/10/94 93/12/94 86/8/94
f 88/7/95 90/8/95 95/12/95
f 87/18/265 86/24/265 90/17/265
f 85/7/266 87/9/266 74/2/266
f 88/7/98 77/1/98 76/2/98
f 79/4/99 91/10/99 85/7/99
f 78/20/100 84/23/100 80/21/100
f 89/19/101 76/13/101 74/15/101
f 82/4/102 77/1/102 88/7/102
f 81/15/103 83/13/103 96/19/103
f 95/23/104 90/20/104 86/22/104
f 103/4/113 97/1/113 99/3/113
f 100/13/114 102/16/114 99/14/114
f 106/4/115 108/5/115 102/3/115
f 107/13/116 105/15/116 104/14/116
f 115/10/117 103/4/117 105/6/117
f 106/4/118 118/10/118 120/11/118
f 117/24/119 116/18/119 120/19/119
f 109/7/120 115/10/120 117/12/120
f 118/10/121 112/7/121 114/8/121
f 113/19/122 111/18/122 110/24/122
f 97/1/123 109/7/123 111/9/123
f 112/7/124 101/1/124 100/2/124
f 115/10/125 109/7/125 97/1/125
f 102/20/126 108/23/126 104/21/126
f 113/19/127 100/13/127 98/15/127
f 106/4/128 101/1/128 112/7/128
f 105/15/129 107/13/129 120/19/129
f 117/21/130 119/23/130 114/20/130
f 127/4/139 121/1/139 123/3/139
f 122/15/140 124/13/140 126/16/140
f 125/1/141 130/4/141 132/5/141
f 131/13/142 129/15/142 128/14/142
f 127/4/143 129/6/143 140/11/143
f 130/4/144 142/10/144 144/11/144
f 141/24/145 140/18/145 144/19/145
f 133/7/146 139/10/146 141/12/146
f 142/10/147 136/7/147 138/8/147
f 135/18/148 134/24/148 138/17/148
f 121/1/149 133/7/149 135/9/149
f 125/1/150 124/2/150 137/9/150
f 139/10/151 133/7/151 121/1/151
f 126/20/152 132/23/152 128/21/152
f 137/19/153 124/13/153 122/15/153
f 130/4/154 125/1/154 136/7/154
f 131/13/155 144/19/155 140/18/155
f 143/23/156 138/20/156 134/22/156
usemtl bark
f 145/25/157 146/26/157 147/27/157
f 148/28/158 149/29/158 150/30/158
f 151/31/159 152/32/159 153/33/159
f 154/34/160 155/35/160 156/29/160
f 157/36/161 158/37/161 159/38/161
f 160/39/162 161/40/162 162/41/162
f 163/42/163 164/43/163 165/44/163
f 166/45/164 167/46/164 168/47/164
f 169/48/165 170/49/165 171/50/165
f 172/51/166 173/30/166 174/52/166
f 152/32/167 145/25/167 147/27/167
f 156/29/168 148/28/168 154/34/168
f 150/30/169 147/27/169 146/26/169
f 155/35/170 152/32/170 156/29/170
f 153/33/171 157/36/171 151/31/171
f 162/41/172 154/34/172 160/39/172
f 159/38/173 162/41/173 161/40/173
f 164/43/174 157/53/174 159/54/174
f 168/47/175 160/55/175 166/45/175
f 165/44/176 168/47/176 167/46/176
f 165/44/177 169/48/177 163/42/177
f 174/52/178 166/45/178 172/51/178
f 171/50/179 174/52/179 173/30/179
f 171/50/180 145/25/180 169/48/180
f 150/30/181 172/51/181 148/28/181
f 151/31/182 163/42/182 169/48/182
f 147/27/183 156/29/183 152/32/183
f 171/50/184 150/30/184 146/26/184
f 148/28/185 166/45/185 160/55/185
f 153/33/186 162/41/186 158/37/186
f 159/54/187 168/47/187 164/43/187
f 165/44/188 174/52/188 170/49/188
f 175/56/189 176/57/189 177/58/189
f 178/59/190 179/60/190 180/61/190
f 181/62/191 182/63/191 183/64/191
f 184/65/192 185/66/192 186/60/192
f 187/67/193 188/68/193 189/69/193
f 190/70/194 191/71/194 192/72/194
f 193/73/195 194/74/195 195/75/195
f 196/76/196 197/77/196 198/78/196
f 199/79/197 200/80/197 201/81/197
f 202/82/198 203/61/198 204/77/198
f 177/58/199 181/62/199 175/56/199
f 186/60/200 178/59/200 184/65/200
f 180/61/201 177/58/201 176/57/201
f 183/64/202 186/60/202 185/66/202
f 183/64/203 187/67/203 181/62/203
f 192/72/204 184/65/204 190/70/204
f 189/69/205 192/72/205 191/71/205
f 194/74/206 187/83/206 189/84/206
f 198/78/207 190/85/207 196/76/207
f 195/75/208 198/78/208 197/77/208
f 200/80/209 193/73/209 195/75/209
f 204/77/210 196/76/210 202/82/210
f 201/81/211 204/77/211 203/61/211
f 176/57/212 199/79/212 201/81/212
f 180/61/213 202/82/213 178/59/213
f 181/62/214 193/73/214 199/79/214
f 177/58/215 186/60/215 182/63/215
f 201/81/216 180/61/216 176/57/216
f 178/59/217 196/76/217 190/85/217
f 183/64/218 192/72/218 188/68/218
f 189/84/219 198/78/219 194/74/219
f 195/75/220 204/77/220 200/80/220
f 152/32/167 151/31/167 145/25/167
f 156/29/267 149/29/267 148/28/267
f 150/30/169 149/29/169 147/27/169
f 155/35/170 153/33/170 152/32/170
f 153/33/171 158/37/171 157/36/171
f 162/41/268 155/35/268 154/34/268
f 159/38/173 158/37/173 162/41/173
f 164/43/174 163/42/174 157/53/174
f 168/47/269 161/47/269 160/55/269
f 165/44/176 164/43/176 168/47/176
f 165/44/177 170/49/177 169/48/177
f 174/52/270 167/46/270 166/45/270
f 171/50/179 170/49/179 174/52/179
f 171/50/180 146/26/180 145/25/180
f 150/30/271 173/30/271 172/51/271
f 169/48/182 145/25/182 151/31/182
f 151/31/182 157/53/182 163/42/182
f 147/27/272 149/29/272 156/29/272
f 171/50/273 173/30/273 150/30/273
f 160/55/185 154/34/185 148/28/185
f 148/28/185 172/51/185 166/45/185
f 153/33/274 155/35/274 162/41/274
f 159/54/275 161/47/275 168/47/275
f 165/44/276 167/46/276 174/52/276
f 177/58/199 182/63/199 181/62/199
f 186/60/267 179/60/267 178/59/267
f 180/61/201 179/60/201 177/58/201
f 183/64/202 182/63/202 186/60/202
f 183/64/203 188/68/203 187/67/203
f 192/72/267 185/66/267 184/65/267
f 189/69/205 188/68/205 192/72/205
f 194/74/206 193/73/206 187/83/206
f 198/78/277 191/78/277 190/85/277
f 195/75/208 194/74/208 198/78/208
f 200/80/209 199/79/209 193/73/209
f 204/77/267 197/77/267 196/76/267
f 201/81/211 200/80/211 204/77/211
f 176/57/212 175/56/212 199/79/212
f 180/61/272 203/61/272 202/82/272
f 199/79/214 175/56/214 181/62/214
f 181/62/214 187/83/214 193/73/214
f 177/58/278 179/60/278 186/60/278
f 201/81/279 203/61/279 180/61/279
f 190/85/217 184/65/217 178/59/217
f 178/59/217 202/82/217 196/76/217
f 183/64/280 185/66/280 192/72/280
f 189/84/277 191/78/277 198/78/277
f 195/75/277 197/77/277 204/77/277
usemtl bloom
f 210/86/221 205/87/221 206/88/221
f 208/89/222 211/90/222 212/91/222
f 214/92/223 209/93/223 210/86/223
f 216/94/224 211/90/224 215/95/224
f 214/92/225 217/96/225 213/97/225
f 216/94/226 219/98/226 220/99/226
f 222/100/227 217/96/227 218/101/227
f 220/99/228 223/102/228 224/103/228
f 226/104/229 221/105/229 222/100/229
f 228/106/230 223/102/230 227/107/230
f 226/108/231 229/109/231 225/110/231
f 228/111/232 231/112/232 232/113/232
f 230/114/233 233/115/233 229/109/233
f 232/113/234 235/116/234 236/117/234
f 238/118/235 233/115/235 234/119/235
f 236/117/236 239/120/236 240/121/236
f 238/118/237 241/122/237 237/123/237
f 244/124/238 239/120/238 243/125/238
f 246/126/239 241/122/239 242/127/239
f 244/124/240 247/128/240 248/129/240
f 206/88/241 245/130/241 246/126/241
f 248/129/242 207/131/242 208/89/242
f 209/93/243 225/110/243 241/122/243
f 206/88/244 212/91/244 210/86/244
f 248/129/245 206/88/245 246/126/245
f 207/131/246 235/116/246 219/132/246
f 212/91/247 214/92/247 210/86/247
f 216/94/248 218/101/248 214/92/248
f 218/101/249 224/103/249 222/100/249
f 222/100/250 228/106/250 226/104/250
f 228/111/251 230/114/251 226/108/251
f 230/114/252 236/117/252 234/119/252
f 236/117/253 238/118/253 234/119/253
f 240/121/254 242/127/254 238/118/254
f 244/124/255 246/126/255 242/127/255
f 210/86/221 209/93/221 205/87/221
f 208/89/222 207/131/222 211/90/222
f 214/92/223 213/97/223 209/93/223
f 216/94/224 212/91/224 211/90/224
f 214/92/225 218/101/225 217/96/225
f 216/94/226 215/95/226 219/98/226
f 222/100/227 221/105/227 217/96/227
f 220/99/228 219/98/228 223/102/228
f 226/104/229 225/133/229 221/105/229
f 228/106/230 224/103/230 223/102/230
f 226/108/231 230/114/231 229/109/231
f 228/111/232 227/134/232 231/112/232
f 230/114/233 234/119/233 233/115/233
f 232/113/234 231/112/234 235/116/234
f 238/118/235 237/123/235 233/115/235
f 236/117/236 235/116/236 239/120/236
f 238/118/237 242/127/237 241/122/237
f 244/124/238 240/121/238 239/120/238
f 246/126/239 245/130/239 241/122/239
f 244/124/240 243/125/240 247/128/240
f 206/88/241 205/87/241 245/130/241
f 248/129/242 247/128/242 207/131/242
f 245/130/243 205/87/243 209/93/243
f 209/93/243 213/97/243 217/135/243
f 217/135/243 221/136/243 225/110/243
f 225/110/243 229/109/243 233/115/243
f 233/115/243 237/123/243 241/122/243
f 241/122/243 245/130/243 209/93/243
f 209/93/243 217/135/243 225/110/243
f 225/110/243 233/115/243 241/122/243
f 206/88/244 208/89/244 212/91/244
f 248/129/245 208/89/245 206/88/245
f 215/95/246 211/90/246 207/131/246
f 207/131/246 247/128/246 243/125/246
f 243/125/246 239/120/246 235/116/246
f 235/116/246 231/112/246 227/134/246
f 227/134/246 223/137/246 219/132/246
f 219/132/246 215/95/246 207/131/246
f 207/131/246 243/125/246 235/116/246
f 235/116/246 227/134/246 219/132/246
f 212/91/247 216/94/247 214/92/247
f 216/94/248 220/99/248 218/101/248
f 218/101/249 220/99/249 224/103/249
f 222/100/250 224/103/250 228/106/250
f 228/111/251 232/113/251 230/114/251
f 230/114/252 232/113/252 236/117/252
f 236/117/253 240/121/253 238/118/253
f 240/121/254 244/124/254 242/127/254
f 244/124/255 248/129/255 246/126/255
