# Blender 4.5.10 LTS
# www.blender.org
mtllib dandelion_pair.mtl
o dandelion_pair
v 0.028692 0.007270 -0.016286
v 0.028698 0.007308 -0.016552
v 0.029378 0.007187 -0.016290
v 0.030180 0.015068 -0.016812
v 0.030191 0.015124 -0.016550
v 0.030860 0.014947 -0.016550
v 0.029094 0.008650 0.027162
v 0.029781 0.008568 0.027158
v 0.029105 0.008706 0.027424
v 0.030593 0.016504 0.026899
v 0.030587 0.016465 0.027164
v 0.031262 0.016327 0.026898
v -0.082909 0.028591 -0.015930
v -0.083578 0.028767 -0.015930
v -0.082903 0.028630 -0.016196
v -0.081410 0.036445 -0.016194
v -0.081421 0.036389 -0.016456
v -0.082097 0.036527 -0.016190
v -0.082507 0.029971 0.027518
v -0.082496 0.030027 0.027780
v -0.083176 0.030148 0.027518
v -0.081008 0.037825 0.027254
v -0.081694 0.037907 0.027258
v -0.081014 0.037786 0.027520
v -0.016096 -0.008177 -0.032608
v -0.016336 -0.008136 -0.032720
v -0.015840 -0.008328 -0.033233
v -0.015626 -0.000560 -0.034859
v -0.015377 -0.000509 -0.034773
v -0.015130 -0.000752 -0.035372
v 0.024203 -0.007357 -0.016324
v 0.024458 -0.007507 -0.016949
v 0.024452 -0.007306 -0.016238
v 0.024921 0.000311 -0.018489
v 0.025162 0.000270 -0.018377
v 0.025168 0.000069 -0.019088
v -0.057470 0.024150 0.068152
v -0.057717 0.024392 0.068751
v -0.057711 0.024191 0.068040
v -0.056752 0.031818 0.065987
v -0.057001 0.031767 0.065901
v -0.057007 0.031968 0.066612
v -0.017172 0.024971 0.084436
v -0.016923 0.025022 0.084522
v -0.017419 0.025213 0.085035
v -0.016453 0.032638 0.082271
v -0.016709 0.032789 0.082896
v -0.016213 0.032597 0.082383
v -0.034618 0.000533 -0.006108
v -0.034826 0.000587 -0.005948
v -0.035060 0.000381 -0.006618
v -0.036115 0.008154 -0.007833
v -0.035922 0.008192 -0.008016
v -0.036349 0.007948 -0.008503
v -0.001587 -0.000874 -0.034335
v -0.002029 -0.001026 -0.034845
v -0.001394 -0.000836 -0.034518
v -0.002891 0.006785 -0.036243
v -0.002683 0.006731 -0.036403
v -0.003317 0.006541 -0.036730
v 0.036888 0.033155 0.075942
v 0.037315 0.033399 0.076429
v 0.036680 0.033210 0.076102
v 0.035584 0.040814 0.074034
v 0.035391 0.040777 0.074217
v 0.036026 0.040966 0.074544
v 0.069919 0.031749 0.047715
v 0.070112 0.031786 0.047532
v 0.070346 0.031993 0.048202
v 0.068615 0.039407 0.045807
v 0.069057 0.039560 0.046316
v 0.068823 0.039353 0.045647
v -0.009993 0.007798 0.027639
v -0.009909 0.007840 0.027891
v -0.010632 0.007690 0.027882
v -0.011510 0.015540 0.028674
v -0.011615 0.015592 0.028432
v -0.012234 0.015390 0.028665
v -0.025536 0.008694 -0.012949
v -0.026174 0.008586 -0.012707
v -0.025640 0.008746 -0.013191
v -0.027157 0.016488 -0.012157
v -0.027242 0.016446 -0.012408
v -0.027776 0.016286 -0.011924
v 0.093588 0.033324 -0.011461
v 0.094208 0.033526 -0.011694
v 0.093673 0.033365 -0.011210
v 0.091967 0.041118 -0.010668
v 0.092071 0.041065 -0.010427
v 0.092606 0.041226 -0.010910
v 0.078046 0.034219 -0.052050
v 0.077942 0.034272 -0.052292
v 0.078665 0.034421 -0.052283
v 0.076425 0.042013 -0.051257
v 0.077063 0.042121 -0.051499
v 0.076340 0.041972 -0.051508
v 0.018203 0.000961 0.015436
v 0.018469 0.000991 0.015455
v 0.018170 0.000883 0.016122
v 0.018915 0.008746 0.016916
v 0.018654 0.008810 0.016914
v 0.018615 0.008638 0.017583
v -0.025140 0.003788 0.013649
v -0.025173 0.003710 0.014335
v -0.025400 0.003852 0.013647
v -0.024689 0.011637 0.015127
v -0.024955 0.011607 0.015108
v -0.024728 0.011464 0.015796
v 0.024152 0.021639 -0.096129
v 0.024191 0.021811 -0.096797
v 0.024418 0.021669 -0.096109
v 0.024603 0.029488 -0.094650
v 0.024863 0.029424 -0.094648
v 0.024636 0.029566 -0.095336
v -0.019191 0.024466 -0.097916
v -0.019452 0.024530 -0.097918
v -0.019153 0.024638 -0.098584
v -0.018741 0.032315 -0.096437
v -0.018707 0.032393 -0.097123
v -0.019006 0.032285 -0.096456
v 0.033306 -0.007271 -0.001403
v 0.033441 -0.007238 -0.001632
v 0.033905 -0.007392 -0.001079
v 0.035311 0.000421 -0.001071
v 0.035199 0.000481 -0.000835
v 0.035775 0.000268 -0.000517
v 0.012974 -0.005120 0.036961
v 0.013572 -0.005240 0.037285
v 0.012861 -0.005060 0.037197
v 0.014866 0.002633 0.037529
v 0.014731 0.002599 0.037758
v 0.015442 0.002419 0.037846
v -0.063456 0.020225 -0.054229
v -0.064032 0.020438 -0.054547
v -0.063321 0.020258 -0.054459
v -0.061563 0.027977 -0.053661
v -0.061451 0.027917 -0.053897
v -0.062162 0.028097 -0.053985
v -0.083788 0.022376 -0.015866
v -0.083901 0.022436 -0.015629
v -0.084365 0.022590 -0.016183
v -0.081896 0.030129 -0.015297
v -0.082495 0.030249 -0.015621
v -0.082031 0.030095 -0.015068
v 0.002750 0.015440 0.001432
v 0.006576 0.020563 -0.000906
v 0.003028 0.020563 0.005907
v -0.006842 0.084607 -0.003563
v -0.005263 0.080348 0.001590
v -0.001715 0.080348 -0.005224
v -0.000526 0.015136 0.003084
v 0.002133 0.020480 0.006359
v -0.005379 0.019454 0.005123
v -0.009083 0.084399 -0.002433
v -0.012775 0.079322 0.000354
v -0.005263 0.080348 0.001590
v -0.003075 0.014644 0.000474
v -0.006075 0.019319 0.004410
v -0.007170 0.018685 -0.003167
v -0.010826 0.084062 -0.004218
v -0.013870 0.078687 -0.007223
v -0.012775 0.079322 0.000354
v -0.001375 0.014644 -0.002791
v -0.006706 0.018685 -0.004059
v 0.000130 0.019319 -0.007506
v -0.009663 0.084062 -0.006451
v -0.007034 0.079322 -0.010670
v -0.013870 0.078687 -0.007223
v 0.002226 0.015136 -0.002199
v 0.001114 0.019454 -0.007344
v 0.006433 0.020480 -0.001898
v -0.007201 0.084399 -0.006047
v -0.001715 0.080348 -0.005224
v -0.007034 0.079322 -0.010670
v -0.005617 0.079321 -0.002728
v -0.002358 0.083916 -0.004694
v -0.005833 0.083916 0.001072
v -0.018146 0.147782 -0.010279
v -0.016873 0.144239 -0.005581
v -0.013398 0.144239 -0.011347
v -0.008689 0.078934 -0.001395
v -0.006768 0.083798 0.001478
v -0.013220 0.082549 0.000018
v -0.020157 0.147529 -0.009406
v -0.023325 0.142990 -0.007041
v -0.016873 0.144239 -0.005581
v -0.010844 0.078309 -0.003910
v -0.013876 0.082359 -0.000747
v -0.014389 0.081587 -0.007416
v -0.021568 0.147120 -0.011053
v -0.023838 0.142218 -0.013709
v -0.023325 0.142990 -0.007041
v -0.009104 0.078309 -0.006797
v -0.013859 0.081587 -0.008294
v -0.007724 0.082359 -0.010955
v -0.020428 0.147120 -0.012943
v -0.017702 0.142990 -0.016371
v -0.023838 0.142218 -0.013709
v -0.005874 0.078934 -0.006066
v -0.006741 0.082549 -0.010733
v -0.002436 0.083798 -0.005710
v -0.018314 0.147529 -0.012464
v -0.013398 0.144239 -0.011347
v -0.017702 0.142990 -0.016371
v -0.005353 0.148041 0.023051
v -0.003531 0.153258 0.026179
v -0.008000 0.165313 0.015010
v -0.004513 0.159661 0.023199
v -0.022987 0.149244 0.025800
v -0.023067 0.154591 0.029224
v -0.020635 0.166175 0.016980
v -0.022195 0.160867 0.025955
v -0.039301 0.150416 0.018557
v -0.041139 0.155889 0.021200
v -0.032324 0.167015 0.011790
v -0.038553 0.162042 0.018692
v -0.049115 0.151184 0.003620
v -0.052010 0.156741 0.004654
v -0.039356 0.167566 0.001088
v -0.048393 0.162813 0.003716
v -0.049312 0.151306 -0.014266
v -0.052229 0.156875 -0.015160
v -0.039497 0.167653 -0.011728
v -0.048591 0.162935 -0.014219
v -0.039831 0.150742 -0.029425
v -0.041726 0.156250 -0.031952
v -0.032704 0.167249 -0.022589
v -0.039084 0.162369 -0.029418
v -0.023681 0.149671 -0.037042
v -0.023835 0.155064 -0.040390
v -0.021132 0.166481 -0.028046
v -0.022891 0.161295 -0.037056
v -0.005990 0.148433 -0.034700
v -0.004238 0.153693 -0.037795
v -0.008457 0.165595 -0.026368
v -0.005152 0.160054 -0.034707
v 0.007625 0.147422 -0.023142
v 0.010845 0.152573 -0.024992
v 0.001299 0.164870 -0.018087
v 0.008500 0.159040 -0.023118
v 0.012842 0.146958 -0.006037
v 0.016624 0.152059 -0.006044
v 0.005037 0.164538 -0.005832
v 0.013731 0.158575 -0.005968
v 0.008004 0.147189 0.011183
v 0.011265 0.152314 0.013031
v 0.001570 0.164703 0.006507
v 0.008880 0.158806 0.011298
v -0.022255 0.015736 -0.016436
v -0.025315 0.020521 -0.014328
v -0.021640 0.020521 -0.020100
v -0.010342 0.063708 -0.008852
v -0.011742 0.060379 -0.013798
v -0.015416 0.060379 -0.008026
v -0.019281 0.015228 -0.017669
v -0.020856 0.020386 -0.020425
v -0.014428 0.018659 -0.018839
v -0.008311 0.063361 -0.009693
v -0.005314 0.058652 -0.012213
v -0.011742 0.060379 -0.013798
v -0.017300 0.014404 -0.015213
v -0.013906 0.018442 -0.018192
v -0.013607 0.017374 -0.011440
v -0.006959 0.062799 -0.008017
v -0.005015 0.057584 -0.005461
v -0.005314 0.058652 -0.012213
v -0.019051 0.014404 -0.012463
v -0.014069 0.017374 -0.010715
v -0.020313 0.018442 -0.008128
v -0.008154 0.062799 -0.006140
v -0.011259 0.058652 -0.002873
v -0.005015 0.057584 -0.005461
v -0.022113 0.015228 -0.013219
v -0.021120 0.018659 -0.008327
v -0.025277 0.020386 -0.013480
v -0.010245 0.063361 -0.006655
v -0.015416 0.060379 -0.008026
v -0.011259 0.058652 -0.002873
v -0.011778 0.060128 -0.009672
v -0.014242 0.064371 -0.007646
v -0.011188 0.064371 -0.012807
v 0.002136 0.107450 -0.001441
v 0.000663 0.104680 -0.005796
v -0.002390 0.104680 -0.000635
v -0.009111 0.059590 -0.010901
v -0.010401 0.064213 -0.013170
v -0.004785 0.062464 -0.012001
v 0.003879 0.107099 -0.002243
v 0.006279 0.102931 -0.004626
v 0.000663 0.104680 -0.005796
v -0.007255 0.058719 -0.008731
v -0.004238 0.062207 -0.011360
v -0.003820 0.061127 -0.005476
v 0.005092 0.106530 -0.000825
v 0.006696 0.101850 0.001257
v 0.006279 0.102931 -0.004626
v -0.008775 0.058719 -0.006162
v -0.004269 0.061127 -0.004718
v -0.009627 0.062207 -0.002251
v 0.004098 0.106530 0.000853
v 0.001339 0.102931 0.003724
v 0.006696 0.101850 0.001257
v -0.011570 0.059590 -0.006744
v -0.010452 0.062464 -0.002423
v -0.014180 0.064213 -0.006782
v 0.002272 0.107099 0.000473
v -0.002390 0.104680 -0.000635
v 0.001339 0.102931 0.003724
v 0.014858 0.108914 -0.002105
v 0.019331 0.114918 -0.006162
v 0.015075 0.115027 0.003819
v 0.007885 0.138520 -0.005400
v 0.010847 0.132978 0.001821
v 0.015103 0.132870 -0.008160
v 0.006154 0.108731 0.005524
v 0.011852 0.114959 0.006644
v 0.001406 0.114541 0.009550
v 0.003096 0.138419 -0.001202
v -0.000449 0.132543 0.005472
v 0.009998 0.132960 0.002566
v -0.005224 0.108111 0.003481
v -0.002808 0.114312 0.008793
v -0.011578 0.113682 0.002435
v -0.003165 0.138078 -0.002327
v -0.010330 0.131853 -0.001086
v -0.001559 0.132482 0.005272
v -0.010707 0.107521 -0.006698
v -0.013609 0.113464 -0.001334
v -0.014099 0.113097 -0.012167
v -0.006182 0.137753 -0.007927
v -0.011356 0.131428 -0.012913
v -0.010865 0.131795 -0.002079
v -0.006167 0.107405 -0.017346
v -0.012418 0.113054 -0.016110
v -0.004259 0.113225 -0.023262
v -0.003684 0.137689 -0.013787
v -0.002753 0.131588 -0.021104
v -0.010912 0.131417 -0.013952
v 0.004978 0.107850 -0.020446
v -0.000132 0.113390 -0.024410
v 0.010533 0.113971 -0.022494
v 0.002449 0.137935 -0.015492
v 0.008999 0.132213 -0.019490
v -0.001666 0.131632 -0.021406
v 0.014335 0.108522 -0.013663
v 0.013998 0.114220 -0.019982
v 0.019137 0.114773 -0.010442
v 0.007597 0.138304 -0.011760
v 0.015052 0.132831 -0.009288
v 0.009912 0.132278 -0.018828
vn -0.1186 -0.9821 -0.1463
vn 0.2494 0.9452 -0.2109
vn -0.1153 -0.9708 0.2105
vn 0.2527 0.9565 0.1458
vn -0.2527 -0.9565 -0.1458
vn 0.1153 0.9708 -0.2105
vn -0.2494 -0.9452 0.2109
vn 0.1186 0.9821 0.1463
vn -0.1188 -0.9924 0.0326
vn 0.3424 -0.0967 -0.9346
vn 0.2552 0.9663 -0.0331
vn 0.3596 -0.0374 0.9323
vn -0.1828 -0.9602 0.2112
vn 0.1861 0.9716 0.1464
vn -0.3424 0.0967 0.9346
vn -0.2552 -0.9663 0.0331
vn 0.1188 0.9924 -0.0326
vn -0.3596 0.0374 -0.9323
vn -0.1861 -0.9716 -0.1464
vn 0.1828 0.9602 -0.2112
vn -0.1875 -0.9817 0.0329
vn 0.9822 -0.1877 -0.0031
vn -0.0093 -0.0318 -0.9995
vn 0.1875 0.9817 -0.0329
vn 0.0093 0.0318 0.9995
vn -0.9822 0.1877 0.0031
vn -0.2288 -0.9636 0.1382
vn -0.0524 0.9180 -0.3930
vn 0.1021 -0.9569 0.2719
vn 0.2785 0.9248 -0.2593
vn -0.2785 -0.9248 0.2593
vn -0.1021 0.9569 -0.2719
vn 0.0524 -0.9180 0.3930
vn 0.2287 0.9636 -0.1382
vn -0.0644 -0.9759 0.2084
vn -0.7357 -0.1193 -0.6668
vn 0.1149 0.9364 -0.3315
vn 0.9959 -0.0840 0.0330
vn 0.0774 -0.9396 0.3333
vn 0.2542 0.9464 -0.1993
vn 0.7357 0.1193 0.6668
vn -0.1149 -0.9364 0.3315
vn 0.0644 0.9759 -0.2084
vn -0.9959 0.0840 -0.0330
vn -0.2542 -0.9464 0.1992
vn -0.0774 0.9396 -0.3333
vn -0.0898 -0.9585 0.2706
vn 0.3641 -0.2845 -0.8868
vn -0.9270 -0.0189 -0.3746
vn 0.0898 0.9585 -0.2706
vn 0.9270 0.0189 0.3746
vn -0.3641 0.2845 0.8868
vn -0.0185 -0.9535 0.3007
vn -0.3386 0.9259 -0.1676
vn 0.2527 -0.9651 0.0689
vn -0.0674 0.9143 -0.3993
vn 0.0674 -0.9143 0.3993
vn -0.2527 0.9651 -0.0689
vn 0.3386 -0.9259 0.1675
vn 0.0185 0.9535 -0.3007
vn 0.1190 -0.9750 0.1878
vn -0.9346 -0.0724 0.3484
vn -0.2063 0.9351 -0.2881
vn 0.4848 -0.1328 -0.8645
vn 0.2964 -0.9477 0.1185
vn -0.0245 0.9361 -0.3508
vn 0.9346 0.0724 -0.3484
vn 0.2063 -0.9351 0.2881
vn -0.1190 0.9750 -0.1878
vn -0.4848 0.1328 0.8645
vn 0.0245 -0.9361 0.3508
vn -0.2964 0.9477 -0.1185
vn 0.1631 -0.9573 0.2385
vn -0.6293 -0.2871 -0.7221
vn -0.7598 0.0324 0.6493
vn -0.1631 0.9573 -0.2385
vn 0.7598 -0.0324 -0.6493
vn 0.6293 0.2871 0.7221
vn 0.2005 -0.9753 0.0929
vn -0.1974 0.9373 0.2874
vn 0.0729 -0.9679 -0.2404
vn -0.3250 0.9446 -0.0459
vn 0.3250 -0.9446 0.0459
vn -0.0729 0.9679 0.2404
vn 0.1974 -0.9372 -0.2874
vn -0.2005 0.9753 -0.0928
vn 0.1389 -0.9875 -0.0750
vn 0.0081 -0.0995 0.9950
vn -0.2654 0.9563 0.1227
vn -0.6597 -0.0610 -0.7490
vn 0.1354 -0.9548 -0.2645
vn -0.2634 0.9622 -0.0695
vn -0.0081 0.0995 -0.9950
vn 0.2655 -0.9563 -0.1227
vn -0.1389 0.9875 0.0750
vn 0.6597 0.0610 0.7490
vn 0.2634 -0.9622 0.0695
vn -0.1354 0.9548 0.2645
vn 0.2027 -0.9742 -0.0991
vn -0.9116 -0.2247 0.3441
vn 0.3575 -0.0206 0.9337
vn -0.2027 0.9742 0.0991
vn -0.3575 0.0206 -0.9337
vn 0.9116 0.2247 -0.3441
vn 0.1190 -0.9871 -0.1071
vn 0.2297 0.9390 0.2558
vn -0.2368 -0.9639 -0.1217
vn -0.1262 0.9622 0.2412
vn 0.1262 -0.9622 -0.2412
vn 0.2368 0.9639 0.1217
vn -0.2297 -0.9390 -0.2558
vn -0.1190 0.9871 0.1071
vn -0.0599 -0.9914 -0.1163
vn 0.9125 -0.1258 0.3893
vn 0.0526 0.9662 0.2525
vn -0.9499 -0.0043 0.3125
vn -0.2338 -0.9537 -0.1892
vn -0.1229 0.9770 0.1745
vn -0.9125 0.1258 -0.3893
vn -0.0526 -0.9662 -0.2526
vn 0.0599 0.9914 0.1163
vn 0.9499 0.0043 -0.3125
vn 0.1229 -0.9770 -0.1745
vn 0.2338 0.9537 0.1892
vn -0.0564 -0.9811 -0.1849
vn -0.0524 -0.1820 0.9819
vn 0.9970 -0.0650 0.0411
vn 0.0564 0.9811 0.1849
vn -0.9970 0.0650 -0.0411
vn 0.0524 0.1820 -0.9819
vn -0.0906 -0.9765 -0.1955
vn 0.3738 0.9258 -0.0560
vn -0.2575 -0.9588 0.1195
vn 0.2069 0.9435 0.2590
vn -0.2069 -0.9435 -0.2590
vn 0.2575 0.9588 -0.1195
vn -0.3738 -0.9258 0.0560
vn 0.0906 0.9765 0.1955
vn -0.1769 -0.9835 -0.0386
vn 0.7412 -0.1327 -0.6581
vn 0.2951 0.9499 0.1031
vn -0.1325 -0.0402 0.9904
vn -0.3164 -0.9445 0.0880
vn 0.1491 0.9622 0.2278
vn -0.7412 0.1327 0.6581
vn -0.2951 -0.9499 -0.1031
vn 0.1769 0.9835 0.0386
vn 0.1325 0.0403 -0.9904
vn -0.1491 -0.9622 -0.2278
vn 0.3164 0.9445 -0.0880
vn -0.2366 -0.9690 -0.0710
vn 0.8516 -0.2420 0.4649
vn 0.4677 -0.0495 -0.8825
vn 0.2366 0.9690 0.0710
vn -0.4677 0.0495 0.8825
vn -0.8516 0.2420 -0.4649
vn 0.8083 -0.4116 0.4209
vn 0.6633 0.6639 0.3454
vn -0.0751 -0.4936 0.8665
vn -0.2088 0.5830 0.7852
vn -0.7625 -0.6262 0.1626
vn -0.8874 0.4520 0.0904
vn -0.3040 -0.6262 -0.7179
vn -0.4348 0.4520 -0.7789
vn 0.6669 -0.4936 -0.5583
vn 0.5236 0.5830 -0.6213
vn 0.3998 -0.6152 0.6795
vn 0.2200 0.7840 0.5805
vn 0.8763 0.1545 0.4563
vn -0.1696 0.0574 0.9838
vn -0.4177 -0.7270 0.5450
vn -0.5882 0.6736 0.4476
vn -0.9836 -0.0997 0.1504
vn -0.5369 -0.7960 -0.2796
vn -0.7060 0.6053 -0.3676
vn -0.4407 -0.0997 -0.8921
vn 0.2070 -0.7270 -0.6547
vn 0.0294 0.6736 -0.7385
vn 0.7088 0.0574 -0.7031
vn 0.7859 -0.6152 -0.0620
vn -0.0000 1.0000 -0.0000
vn 0.1246 -0.9901 0.0649
vn 0.4375 0.1250 0.8905
vn 0.9804 0.1250 -0.1521
vn -0.1246 0.9901 -0.0649
vn -0.7120 -0.0321 0.7014
vn -0.8795 -0.1292 -0.4580
vn 0.1665 -0.0321 -0.9855
vn 0.7989 -0.3605 0.4815
vn 0.6080 0.7043 0.3664
vn -0.1059 -0.4743 0.8739
vn -0.2852 0.5919 0.7539
vn -0.7407 -0.6586 0.1332
vn -0.9118 0.4101 0.0226
vn -0.2282 -0.6586 -0.7171
vn -0.4059 0.4101 -0.8168
vn 0.7233 -0.4743 -0.5018
vn 0.5334 0.5919 -0.6043
vn 0.3850 -0.5773 0.7201
vn 0.1456 0.8084 0.5703
vn 0.8376 0.2090 0.5048
vn -0.2337 0.0742 0.9695
vn -0.4162 -0.7324 0.5388
vn -0.6465 0.6551 0.3911
vn -0.9853 -0.1440 0.0924
vn -0.4799 -0.8283 -0.2892
vn -0.7094 0.5603 -0.4276
vn -0.3785 -0.1440 -0.9143
vn 0.2820 -0.7324 -0.6197
vn 0.7481 0.0742 -0.6595
vn 0.8165 -0.5773 0.0041
vn 0.5723 0.8084 -0.1376
vn 0.1671 -0.9808 0.1007
vn 0.3742 0.1691 0.9118
vn 0.9810 0.1691 -0.0950
vn -0.1671 0.9808 -0.1007
vn -0.7524 -0.0491 0.6569
vn -0.8419 -0.1839 -0.5074
vn 0.2294 -0.0491 -0.9721
vn 0.0942 -0.5359 0.8390
vn 0.1388 0.8416 0.5219
vn -0.3807 -0.5026 0.7761
vn -0.1527 0.8620 0.4833
vn -0.7463 -0.4755 0.4658
vn -0.3770 0.8787 0.2929
vn -0.8863 -0.4630 0.0066
vn -0.4629 0.8863 0.0111
vn -0.7564 -0.4692 -0.4557
vn -0.3832 0.8825 -0.2726
vn -0.3978 -0.4921 -0.7743
vn -0.1632 0.8685 -0.4681
vn 0.0756 -0.5244 -0.8481
vn 0.1273 0.8487 -0.5134
vn 0.5136 -0.5559 -0.6536
vn 0.3961 0.8294 -0.3940
vn 0.7771 -0.5765 -0.2526
vn 0.5578 0.8167 -0.1480
vn 0.7824 -0.5798 0.2276
vn 0.5610 0.8147 0.1467
vn 0.5278 -0.5646 0.6345
vn 0.4048 0.8240 0.3964
vn -0.0690 -0.9976 -0.0060
vn 0.1676 0.4371 0.8837
vn 0.6211 0.4070 0.6698
vn 0.0690 0.9976 0.0060
vn -0.3293 0.4718 0.8179
vn -0.7116 0.5002 0.4933
vn -0.8581 0.5132 0.0130
vn -0.7223 0.5068 -0.4706
vn -0.3472 0.4828 -0.8040
vn 0.1481 0.4491 -0.8811
vn 0.6062 0.4161 -0.6777
vn 0.8818 0.3946 -0.2583
vn 0.8874 0.3911 0.2441
vn -0.8074 -0.2898 -0.5140
vn -0.5528 0.7554 -0.3519
vn 0.0999 -0.4449 -0.8900
vn 0.3400 0.6027 -0.7219
vn 0.7040 -0.6960 -0.1412
vn 0.9345 0.3556 0.0150
vn 0.1701 -0.6960 0.6976
vn 0.4091 0.3556 0.8404
vn -0.7640 -0.4449 0.4672
vn -0.5102 0.6027 0.6136
vn -0.4010 -0.5239 -0.7515
vn -0.0808 0.8374 -0.5406
vn -0.8092 0.2824 -0.5152
vn 0.2633 0.0990 -0.9596
vn 0.3854 -0.7353 -0.5575
vn -0.0000 0.8321 -0.5547
vn 0.9774 -0.1978 -0.0745
vn 0.4219 -0.8659 0.2686
vn -0.0000 -0.4472 0.8944
vn 0.3462 -0.1978 0.9171
vn -0.3420 -0.7353 0.5852
vn -0.0226 0.6290 0.7771
vn -0.7580 0.0990 0.6447
vn -0.8506 -0.5239 -0.0453
vn -0.5241 0.8374 0.1556
vn -0.2240 -0.9641 -0.1426
vn -0.3391 0.2285 -0.9126
vn -0.9703 0.2285 0.0790
vn 0.2240 0.9641 0.1426
vn 0.7652 -0.0683 -0.6402
vn 0.8164 -0.2517 0.5197
vn -0.2562 -0.0683 0.9642
vn -0.8337 -0.2485 -0.4932
vn -0.5356 0.7828 -0.3169
vn 0.0547 -0.4276 -0.9023
vn 0.3386 0.6064 -0.7194
vn 0.6730 -0.7176 -0.1795
vn 0.9470 0.3211 -0.0082
vn 0.1667 -0.7176 0.6762
vn 0.4488 0.3211 0.8339
vn -0.7645 -0.4276 0.4824
vn -0.4675 0.6064 0.6432
vn -0.4441 -0.4916 -0.7491
vn -0.0673 0.8520 -0.5193
vn -0.8144 0.3233 -0.4818
vn 0.2357 0.1115 -0.9654
vn 0.3399 -0.7357 -0.5858
vn 0.9665 -0.2312 -0.1110
vn 0.3981 -0.8866 0.2355
vn 0.7630 0.4626 0.4514
vn 0.3681 -0.2312 0.9006
vn -0.3498 -0.7357 0.5800
vn 0.0257 0.6113 0.7910
vn -0.7326 0.1115 0.6714
vn -0.8703 -0.4916 -0.0286
vn -0.4875 0.8520 0.1911
vn -0.2639 -0.9518 -0.1561
vn -0.3597 0.2616 -0.8957
vn -0.9582 0.2616 0.1160
vn 0.2639 0.9518 0.1561
vn 0.7411 -0.0812 -0.6665
vn 0.8229 -0.2930 0.4868
vn -0.2273 -0.0812 0.9704
vn 0.8477 -0.3844 0.3656
vn 0.6555 0.7046 0.2718
vn 0.2607 -0.3967 0.8801
vn 0.1670 0.6943 0.7000
vn -0.5066 -0.4386 0.7423
vn -0.4716 0.6595 0.5853
vn -0.8764 -0.4783 0.0559
vn -0.7794 0.6264 0.0141
vn -0.5702 -0.4862 -0.6622
vn -0.5246 0.6199 -0.5836
vn 0.1814 -0.4561 -0.8712
vn 0.1009 0.6449 -0.7576
vn 0.8124 -0.4108 -0.4138
vn 0.6261 0.6826 -0.3769
vn 0.5357 -0.5974 0.5968
vn 0.3843 0.8018 0.4577
vn 0.8912 0.2519 0.3772
vn 0.2514 0.2384 0.9381
vn -0.1053 -0.6230 0.7751
vn -0.1515 0.7804 0.6067
vn -0.5849 0.1929 0.7878
vn -0.6434 -0.6616 0.3850
vn -0.6014 0.7481 0.2806
vn -0.9880 0.1495 0.0397
vn -0.6735 -0.6842 -0.2797
vn -0.6265 0.7293 -0.2751
vn -0.6542 0.1410 -0.7430
vn -0.1729 -0.6736 -0.7185
vn -0.2081 0.7381 -0.6419
vn 0.1649 0.1737 -0.9709
vn 0.4814 -0.6380 -0.6010
vn 0.3389 0.7679 -0.5436
vn 0.8527 0.2231 -0.4723
vn 0.7968 -0.6040 -0.0156
vn 0.6026 0.7962 -0.0543
vn 0.0487 -0.9983 0.0316
vn 0.6384 0.2320 0.7339
vn 0.9733 0.2235 -0.0517
vn -0.0487 0.9983 -0.0316
vn -0.1838 0.1992 0.9626
vn -0.8741 0.1496 0.4622
vn -0.9127 0.1207 -0.3905
vn -0.2705 0.1342 -0.9533
vn 0.5688 0.1800 -0.8025
vn 0.2542 0.9464 -0.1992
vn -0.2542 -0.9464 0.1993
vn 0.9345 0.0724 -0.3484
vn -0.6597 -0.0610 -0.7491
vn 0.2654 -0.9563 -0.1227
vn 0.6597 0.0610 0.7491
vn 0.0526 0.9662 0.2526
vn -0.0526 -0.9662 -0.2525
vn -0.1325 -0.0403 0.9904
vn -0.9981 -0.0624 -0.0000
vn 0.6017 0.7840 -0.1526
vn 0.9923 0.1240 -0.0000
vn 0.9925 0.1219 -0.0000
vn 0.0438 0.6551 -0.7543
vn -0.0000 0.0933 0.9956
vn -0.0000 -0.0000 -1.0000
vn 0.6945 0.6290 -0.3494
vn 0.7305 0.5002 0.4650
vn -0.0000 -1.0000 -0.0000
vn 0.7056 0.6113 -0.3584
vn 0.3843 0.8018 0.4576
vn -0.2080 0.7381 -0.6419
vt 0.126500 0.748500
vt 0.126500 0.750000
vt 0.125000 0.748500
vt 0.623500 0.998500
vt 0.625000 0.998500
vt 0.623500 1.000000
vt 0.126500 0.501500
vt 0.125000 0.501500
vt 0.126500 0.500000
vt 0.625000 0.250003
vt 0.623500 0.251500
vt 0.623500 0.248500
vt 0.373500 0.748500
vt 0.376500 0.748500
vt 0.376475 0.751487
vt 0.626487 0.748525
vt 0.623500 0.751500
vt 0.623500 0.748500
vt 0.373500 0.501500
vt 0.376475 0.498513
vt 0.376500 0.501500
vt 0.626487 0.501475
vt 0.623500 0.501500
vt 0.623500 0.498500
vt 0.623500 0.000000
vt 0.376500 0.001500
vt 0.376500 0.000000
vt 0.625000 0.001500
vt 0.623500 0.001500
vt 0.376500 0.251500
vt 0.376500 0.248500
vt 0.376500 0.998500
vt 0.873500 0.501500
vt 0.126500 0.748500
vt 0.623500 0.248500
vt 0.376475 0.498513
vt 0.623500 0.498500
vt 0.873500 0.748500
vt 0.126500 0.748500
vt 0.126500 0.501500
vt 0.376500 0.748500
vt 0.750000 0.333515
vt 0.647218 0.414287
vt 0.852782 0.414286
vt 0.250000 0.314174
vt 0.364127 0.407082
vt 0.135873 0.407082
vt 0.829427 0.275808
vt 0.874484 0.398519
vt 0.938007 0.203016
vt 0.311033 0.269831
vt 0.434661 0.190000
vt 0.364127 0.407082
vt 0.799089 0.182435
vt 0.929718 0.177503
vt 0.763413 0.056676
vt 0.287721 0.198082
vt 0.250000 0.055836
vt 0.434661 0.190000
vt 0.700911 0.182435
vt 0.736587 0.056676
vt 0.570283 0.177503
vt 0.212279 0.198082
vt 0.065339 0.190000
vt 0.250000 0.055836
vt 0.670572 0.275808
vt 0.561993 0.203016
vt 0.625516 0.398519
vt 0.188967 0.269831
vt 0.135873 0.407082
vt 0.065339 0.190000
vt 0.100000 0.966092
vt 0.000000 0.534190
vt 0.090441 0.533908
vt 0.709559 0.533908
vt 0.900000 0.966092
vt 0.700000 0.966092
vt 0.509559 0.533908
vt 0.700000 0.966092
vt 0.500000 0.966092
vt 0.309559 0.533908
vt 0.300000 0.966092
vt 0.109559 0.533908
vt 0.300000 0.966092
vt 0.100000 0.966092
vt 0.909559 0.533908
vt 0.890441 0.533908
vt 0.690441 0.533908
vt 0.490441 0.533908
vt 0.290441 0.533908
vt 0.750000 0.335906
vt 0.648774 0.415462
vt 0.851226 0.415462
vt 0.250000 0.314174
vt 0.364127 0.407082
vt 0.135873 0.407082
vt 0.831701 0.276546
vt 0.876083 0.397402
vt 0.938644 0.204859
vt 0.311033 0.269831
vt 0.434661 0.190000
vt 0.364127 0.407082
vt 0.800494 0.180501
vt 0.929150 0.175637
vt 0.765363 0.056639
vt 0.287721 0.198082
vt 0.250000 0.055836
vt 0.434661 0.190000
vt 0.699506 0.180501
vt 0.734637 0.056639
vt 0.570850 0.175637
vt 0.212279 0.198082
vt 0.065339 0.190000
vt 0.250000 0.055836
vt 0.668299 0.276546
vt 0.561356 0.204859
vt 0.623917 0.397402
vt 0.188967 0.269831
vt 0.135873 0.407082
vt 0.065339 0.190000
vt 0.100000 0.970283
vt 0.000000 0.529964
vt 0.089053 0.529717
vt 0.700000 0.970283
vt 0.889053 0.529717
vt 0.900000 0.970283
vt 0.500000 0.970283
vt 0.689053 0.529717
vt 0.310947 0.529717
vt 0.500000 0.970283
vt 0.300000 0.970283
vt 0.100000 0.970283
vt 0.289053 0.529717
vt 0.300000 0.970283
vt 0.910947 0.529717
vt 0.110947 0.529717
vt 0.710947 0.529717
vt 0.510947 0.529717
vt 0.489053 0.529717
vt 0.878986 0.450706
vt 0.750000 0.450505
vt 0.750000 0.488580
vt 0.250000 0.490000
vt 0.351775 0.408365
vt 0.379754 0.451901
vt 0.932386 0.333293
vt 0.858402 0.418676
vt 0.421237 0.328201
vt 0.468312 0.349700
vt 0.967020 0.349110
vt 0.948465 0.221465
vt 0.436332 0.223210
vt 0.487557 0.215844
vt 0.930307 0.093763
vt 0.986152 0.216046
vt 0.431380 0.092833
vt 0.392269 0.126723
vt 0.817216 0.021084
vt 0.901532 0.118697
vt 0.303036 0.069377
vt 0.317616 0.019722
vt 0.682784 0.021084
vt 0.806489 0.057616
vt 0.182384 0.019722
vt 0.196964 0.069377
vt 0.569693 0.093763
vt 0.693511 0.057616
vt 0.107731 0.126723
vt 0.068620 0.092833
vt 0.551535 0.221465
vt 0.598468 0.118697
vt 0.063668 0.223209
vt 0.012443 0.215844
vt 0.513848 0.216046
vt 0.567614 0.333293
vt 0.078763 0.328201
vt 0.031688 0.349700
vt 0.621014 0.450706
vt 0.532980 0.349110
vt 0.120246 0.451901
vt 0.148225 0.408365
vt 0.641599 0.418676
vt 0.250000 0.438249
vt 1.000000 0.657336
vt 0.909091 0.842664
vt 0.909091 0.657336
vt 0.090909 0.657336
vt -0.000000 0.842664
vt -0.000000 0.657336
vt 0.818182 0.657336
vt 0.727273 0.842664
vt 0.727273 0.657336
vt 0.636364 0.657335
vt 0.545454 0.842665
vt 0.545454 0.657335
vt 0.454545 0.657336
vt 0.454545 0.842665
vt 0.363636 0.657336
vt 0.363636 0.842665
vt 0.272727 0.657336
vt 0.181818 0.842665
vt 0.181818 0.657336
vt 0.090909 0.842665
vt 0.750000 0.333197
vt 0.646923 0.413809
vt 0.853077 0.413809
vt 0.250000 0.313817
vt 0.364127 0.407082
vt 0.829125 0.275709
vt 0.873939 0.398652
vt 0.937644 0.202588
vt 0.310693 0.269720
vt 0.434661 0.190000
vt 0.798902 0.182692
vt 0.929675 0.178063
vt 0.762893 0.056889
vt 0.287511 0.198371
vt 0.701098 0.182692
vt 0.737107 0.056889
vt 0.570325 0.178063
vt 0.212489 0.198371
vt 0.065339 0.190000
vt 0.670875 0.275709
vt 0.562356 0.202588
vt 0.626061 0.398652
vt 0.189307 0.269721
vt 0.090799 0.542281
vt 0.000000 0.958156
vt 0.000000 0.542718
vt 0.700000 0.957719
vt 0.890799 0.542281
vt 0.900000 0.957719
vt 0.500000 0.957719
vt 0.690799 0.542281
vt 0.700000 0.957719
vt 0.300000 0.957719
vt 0.490799 0.542281
vt 0.109201 0.542281
vt 0.300000 0.957719
vt 0.100000 0.957719
vt 0.909201 0.542281
vt 0.100000 0.957719
vt 0.709201 0.542281
vt 0.509201 0.542281
vt 0.309201 0.542281
vt 0.290799 0.542281
vt 0.750000 0.335592
vt 0.648480 0.414996
vt 0.851520 0.414996
vt 0.250000 0.313817
vt 0.831403 0.276449
vt 0.875549 0.397538
vt 0.938292 0.204436
vt 0.310693 0.269720
vt 0.434661 0.190000
vt 0.364127 0.407082
vt 0.800310 0.180754
vt 0.929114 0.176187
vt 0.764851 0.056843
vt 0.287511 0.198371
vt 0.250000 0.055836
vt 0.434661 0.190000
vt 0.699690 0.180754
vt 0.735149 0.056843
vt 0.570886 0.176187
vt 0.212489 0.198371
vt 0.065339 0.190000
vt 0.668597 0.276449
vt 0.561708 0.204436
vt 0.624450 0.397538
vt 0.189307 0.269720
vt 0.089403 0.537055
vt 0.000000 0.963328
vt 0.000000 0.537439
vt 0.710597 0.537055
vt 0.900000 0.962945
vt 0.700000 0.962945
vt 0.510597 0.537055
vt 0.500000 0.962945
vt 0.310597 0.537055
vt 0.300000 0.962945
vt 0.110597 0.537055
vt 0.100000 0.962945
vt 0.910597 0.537055
vt 0.889403 0.537055
vt 0.689403 0.537055
vt 0.489403 0.537055
vt 0.289403 0.537055
vt 0.750000 0.410086
vt 0.681395 0.451740
vt 0.818605 0.451740
vt 0.250000 0.375837
vt 0.335094 0.449021
vt 0.164906 0.449021
vt 0.875160 0.349812
vt 0.864953 0.429420
vt 0.950501 0.322146
vt 0.348383 0.328458
vt 0.458656 0.307558
vt 0.352545 0.440617
vt 0.906072 0.214377
vt 0.961948 0.271993
vt 0.931416 0.138224
vt 0.372682 0.221999
vt 0.425096 0.122753
vt 0.462966 0.288674
vt 0.819459 0.105768
vt 0.899343 0.098005
vt 0.775721 0.038472
vt 0.304599 0.136625
vt 0.259685 0.033767
vt 0.413019 0.107609
vt 0.680541 0.105767
vt 0.724279 0.038472
vt 0.600657 0.098005
vt 0.195401 0.136625
vt 0.086981 0.107609
vt 0.240315 0.033767
vt 0.593928 0.214377
vt 0.568584 0.138224
vt 0.538052 0.271993
vt 0.127318 0.221999
vt 0.037034 0.288674
vt 0.074904 0.122753
vt 0.624840 0.349812
vt 0.549499 0.322146
vt 0.635047 0.429420
vt 0.151617 0.328458
vt 0.147455 0.440617
vt 0.041344 0.307558
vt 0.052923 0.598415
vt 0.000000 0.909959
vt 0.000000 0.606789
vt 0.791949 0.901585
vt 0.910065 0.598415
vt 0.922337 0.901585
vt 0.649092 0.901585
vt 0.767208 0.598415
vt 0.779480 0.901585
vt 0.506235 0.901585
vt 0.624351 0.598415
vt 0.636622 0.901585
vt 0.363378 0.901585
vt 0.481494 0.598415
vt 0.493765 0.901585
vt 0.232792 0.598415
vt 0.350908 0.901585
vt 0.220520 0.901585
vt 0.089935 0.598415
vt 0.208051 0.901585
vt 0.077663 0.901585
vt 0.934806 0.901585
vt 0.947077 0.598415
vt 0.804220 0.598415
vt 0.661363 0.598415
vt 0.518506 0.598415
vt 0.375649 0.598415
vt 0.338637 0.598415
vt 0.195780 0.598415
vt 0.000000 0.966374
vt 0.000000 0.970530
vt 1.000000 0.842664
vt 0.818182 0.842664
vt 0.636364 0.842664
vt 0.272727 0.842664
vt 0.900000 0.957719
vt 0.900000 0.962945
vt 0.065194 0.901585
s 0
usemtl moss
f 1/1/1 2/2/1 3/3/1
f 4/4/2 5/5/2 6/6/2
f 7/7/3 8/8/3 9/9/3
f 10/10/4 11/11/4 12/12/4
f 13/13/5 14/14/5 15/15/5
f 16/16/6 17/17/6 18/18/6
f 19/19/7 20/20/7 21/21/7
f 22/22/8 23/23/8 24/24/8
f 7/7/9 3/3/9 8/8/9
f 4/25/10 3/26/10 2/27/10
f 5/28/11 12/12/11 6/29/11
f 9/30/12 12/12/12 11/11/12
f 7/7/13 20/20/13 19/19/13
f 10/10/14 24/24/14 11/11/14
f 21/21/15 24/24/15 23/23/15
f 13/13/16 21/21/16 14/14/16
f 16/16/17 23/23/17 22/22/17
f 17/17/18 14/14/18 18/18/18
f 1/1/19 15/15/19 2/2/19
f 16/16/20 4/4/20 17/17/20
f 19/19/21 1/1/21 7/7/21
f 6/29/22 8/31/22 3/26/22
f 17/17/23 2/32/23 15/15/23
f 10/33/24 16/16/24 22/22/24
f 9/30/25 24/24/25 20/20/25
f 23/23/26 14/14/26 21/21/26
f 25/34/27 26/2/27 27/3/27
f 28/4/28 29/5/28 30/6/28
f 31/7/29 32/8/29 33/9/29
f 34/10/30 35/11/30 36/35/30
f 37/13/31 38/14/31 39/15/31
f 40/16/32 41/17/32 42/18/32
f 43/19/33 44/36/33 45/21/33
f 46/22/34 47/23/34 48/37/34
f 31/7/35 27/3/35 32/8/35
f 28/25/36 27/26/36 26/27/36
f 34/10/37 30/29/37 29/28/37
f 33/30/38 36/35/38 35/11/38
f 31/7/39 44/36/39 43/19/39
f 46/22/40 35/11/40 34/10/40
f 47/23/41 44/36/41 48/37/41
f 37/13/42 45/21/42 38/14/42
f 40/16/43 47/23/43 46/22/43
f 41/17/44 38/14/44 42/18/44
f 25/34/45 39/15/45 26/2/45
f 40/16/46 28/4/46 41/17/46
f 43/19/47 25/34/47 31/7/47
f 27/26/48 36/35/48 32/31/48
f 39/15/49 28/4/49 26/32/49
f 46/22/50 29/38/50 40/16/50
f 33/30/51 48/37/51 44/36/51
f 47/23/52 38/14/52 45/21/52
f 49/39/53 50/2/53 51/3/53
f 52/4/54 53/5/54 54/6/54
f 55/40/55 56/8/55 57/9/55
f 58/10/56 59/11/56 60/35/56
f 61/13/57 62/41/57 63/15/57
f 64/16/58 65/17/58 66/18/58
f 67/19/59 68/36/59 69/21/59
f 70/22/60 71/23/60 72/37/60
f 49/39/61 56/8/61 55/40/61
f 50/27/62 54/29/62 51/26/62
f 58/10/63 54/29/63 53/28/63
f 59/11/64 56/31/64 60/35/64
f 67/19/65 57/9/65 68/36/65
f 58/10/66 72/37/66 59/11/66
f 71/23/67 68/36/67 72/37/67
f 67/19/68 62/41/68 61/13/68
f 64/16/69 71/23/69 70/22/69
f 65/17/70 62/41/70 66/18/70
f 49/39/71 63/15/71 50/2/71
f 64/16/72 52/4/72 65/17/72
f 67/19/73 49/39/73 55/40/73
f 51/26/74 60/35/74 56/31/74
f 63/15/75 52/4/75 50/32/75
f 58/33/76 64/16/76 70/22/76
f 59/11/77 68/36/77 57/30/77
f 71/23/78 62/41/78 69/21/78
f 73/39/79 74/2/79 75/3/79
f 76/4/80 77/5/80 78/6/80
f 79/7/81 80/8/81 81/9/81
f 82/10/82 83/11/82 84/12/82
f 85/13/83 86/14/83 87/15/83
f 88/16/84 89/17/84 90/18/84
f 91/19/85 92/36/85 93/21/85
f 94/22/86 95/23/86 96/24/86
f 73/39/87 80/8/87 79/7/87
f 76/25/88 75/26/88 74/27/88
f 82/10/89 78/29/89 77/28/89
f 81/30/90 84/12/90 83/11/90
f 91/19/91 81/9/91 92/36/91
f 82/10/92 96/24/92 83/11/92
f 93/21/93 96/24/93 95/23/93
f 91/19/94 86/14/94 85/13/94
f 88/16/95 95/23/95 94/22/95
f 89/17/96 86/14/96 90/18/96
f 85/13/97 74/2/97 73/39/97
f 77/5/98 89/17/98 88/16/98
f 91/19/99 73/39/99 79/7/99
f 78/29/100 80/31/100 75/26/100
f 89/17/101 74/32/101 87/15/101
f 82/33/102 88/16/102 94/22/102
f 83/11/103 92/36/103 81/30/103
f 93/21/104 90/18/104 86/14/104
f 97/34/105 98/2/105 99/3/105
f 100/4/106 101/5/106 102/6/106
f 103/7/107 104/8/107 105/9/107
f 106/10/108 107/11/108 108/12/108
f 109/13/109 110/14/109 111/15/109
f 112/16/110 113/17/110 114/18/110
f 115/19/111 116/36/111 117/21/111
f 118/22/112 119/23/112 120/24/112
f 103/7/113 99/3/113 104/8/113
f 100/25/114 99/26/114 98/27/114
f 101/28/115 108/12/115 102/29/115
f 105/30/116 108/12/116 107/11/116
f 103/7/117 116/36/117 115/19/117
f 118/22/118 107/11/118 106/10/118
f 117/21/119 120/24/119 119/23/119
f 115/19/120 110/14/120 109/13/120
f 118/22/121 114/18/121 119/23/121
f 111/15/122 114/18/122 113/17/122
f 109/13/123 98/2/123 97/34/123
f 101/5/124 113/17/124 112/16/124
f 103/7/125 109/13/125 97/34/125
f 102/29/126 104/31/126 99/26/126
f 111/15/127 100/4/127 98/32/127
f 106/33/128 112/16/128 118/22/128
f 107/11/129 116/36/129 105/30/129
f 119/23/130 110/14/130 117/21/130
f 121/1/131 122/2/131 123/3/131
f 124/4/132 125/5/132 126/6/132
f 127/7/133 128/8/133 129/9/133
f 130/10/134 131/11/134 132/12/134
f 133/13/135 134/14/135 135/15/135
f 136/16/136 137/17/136 138/18/136
f 139/19/137 140/20/137 141/21/137
f 142/22/138 143/23/138 144/24/138
f 127/7/139 123/3/139 128/8/139
f 122/27/140 126/29/140 123/26/140
f 130/10/141 126/29/141 125/28/141
f 129/30/142 132/12/142 131/11/142
f 139/19/143 129/9/143 140/20/143
f 142/22/144 131/11/144 130/10/144
f 141/21/145 144/24/145 143/23/145
f 139/19/146 134/14/146 133/13/146
f 142/22/147 138/18/147 143/23/147
f 137/17/148 134/14/148 138/18/148
f 121/1/149 135/15/149 122/2/149
f 125/5/150 137/17/150 136/16/150
f 127/7/151 133/13/151 121/1/151
f 126/29/152 128/31/152 123/26/152
f 137/17/153 122/32/153 135/15/153
f 130/33/154 136/16/154 142/22/154
f 129/30/155 144/24/155 140/20/155
f 143/23/156 134/14/156 141/21/156
f 309/289/318 310/290/318 311/291/318
f 312/292/319 313/293/319 314/294/319
f 315/295/320 316/296/320 317/297/320
f 318/298/321 319/299/321 320/300/321
f 321/301/322 322/302/322 323/303/322
f 324/304/323 325/305/323 326/306/323
f 327/307/324 328/308/324 329/309/324
f 330/310/325 331/311/325 332/312/325
f 333/313/326 334/314/326 335/315/326
f 336/316/327 337/317/327 338/318/327
f 339/319/328 340/320/328 341/321/328
f 342/322/329 343/323/329 344/324/329
f 345/325/330 346/326/330 347/327/330
f 348/328/331 349/329/331 350/330/331
f 311/291/332 315/295/332 309/289/332
f 320/300/333 312/292/333 318/298/333
f 310/331/334 313/332/334 311/333/334
f 319/334/335 316/335/335 320/336/335
f 322/302/336 315/295/336 317/297/336
f 319/299/337 324/304/337 326/306/337
f 325/337/338 322/338/338 326/339/338
f 323/303/339 327/307/339 321/301/339
f 332/312/340 324/304/340 330/310/340
f 331/340/341 328/341/341 332/342/341
f 329/309/342 333/313/342 327/307/342
f 338/318/343 330/310/343 336/316/343
f 337/343/344 334/344/344 338/345/344
f 335/315/345 339/319/345 333/313/345
f 337/317/346 342/322/346 344/324/346
f 341/346/347 344/347/347 343/348/347
f 341/321/348 345/325/348 339/319/348
f 343/323/349 348/328/349 350/330/349
f 347/349/350 350/350/350 349/351/350
f 347/327/351 309/289/351 345/325/351
f 314/294/352 348/328/352 312/292/352
f 315/295/353 327/307/353 339/319/353
f 313/352/354 316/335/354 311/353/354
f 349/351/355 310/331/355 347/349/355
f 312/292/356 342/322/356 330/310/356
f 319/334/357 322/338/357 317/354/357
f 325/337/358 328/341/358 323/355/358
f 331/340/359 334/344/359 329/356/359
f 335/357/360 344/347/360 340/358/360
f 343/348/361 346/359/361 341/346/361
f 7/7/9 1/1/9 3/3/9
f 4/25/10 6/29/10 3/26/10
f 5/28/11 10/10/11 12/12/11
f 9/30/12 8/31/12 12/12/12
f 7/7/13 9/9/13 20/20/13
f 10/10/14 22/22/14 24/24/14
f 21/21/15 20/20/15 24/24/15
f 13/13/16 19/19/16 21/21/16
f 16/16/17 18/18/17 23/23/17
f 17/17/18 15/15/18 14/14/18
f 1/1/19 13/13/19 15/15/19
f 16/16/20 5/5/20 4/4/20
f 19/19/21 13/13/21 1/1/21
f 6/29/22 12/12/22 8/31/22
f 17/17/23 4/4/23 2/32/23
f 10/33/24 5/38/24 16/16/24
f 9/30/25 11/11/25 24/24/25
f 23/23/26 18/18/26 14/14/26
f 31/7/35 25/34/35 27/3/35
f 28/25/36 30/29/36 27/26/36
f 34/10/37 36/35/37 30/29/37
f 33/30/38 32/31/38 36/35/38
f 31/7/39 33/9/39 44/36/39
f 46/22/362 48/37/362 35/11/362
f 47/23/41 45/21/41 44/36/41
f 37/13/42 43/19/42 45/21/42
f 40/16/43 42/18/43 47/23/43
f 41/17/44 39/15/44 38/14/44
f 25/34/363 37/13/363 39/15/363
f 40/16/46 29/5/46 28/4/46
f 43/19/47 37/13/47 25/34/47
f 27/26/48 30/29/48 36/35/48
f 39/15/49 41/17/49 28/4/49
f 46/22/50 34/33/50 29/38/50
f 33/30/51 35/11/51 48/37/51
f 47/23/52 42/18/52 38/14/52
f 49/39/61 51/3/61 56/8/61
f 50/27/62 52/25/62 54/29/62
f 58/10/63 60/35/63 54/29/63
f 59/11/64 57/30/64 56/31/64
f 67/19/65 55/40/65 57/9/65
f 58/10/66 70/22/66 72/37/66
f 71/23/364 69/21/364 68/36/364
f 67/19/68 69/21/68 62/41/68
f 64/16/69 66/18/69 71/23/69
f 65/17/70 63/15/70 62/41/70
f 49/39/71 61/13/71 63/15/71
f 64/16/72 53/5/72 52/4/72
f 67/19/73 61/13/73 49/39/73
f 51/26/74 54/29/74 60/35/74
f 63/15/75 65/17/75 52/4/75
f 58/33/76 53/38/76 64/16/76
f 59/11/77 72/37/77 68/36/77
f 71/23/78 66/18/78 62/41/78
f 73/39/87 75/3/87 80/8/87
f 76/25/88 78/29/88 75/26/88
f 82/10/89 84/12/89 78/29/89
f 81/30/365 80/31/365 84/12/365
f 91/19/91 79/7/91 81/9/91
f 82/10/92 94/22/92 96/24/92
f 93/21/93 92/36/93 96/24/93
f 91/19/366 93/21/366 86/14/366
f 88/16/95 90/18/95 95/23/95
f 89/17/367 87/15/367 86/14/367
f 85/13/97 87/15/97 74/2/97
f 77/5/98 76/4/98 89/17/98
f 91/19/99 85/13/99 73/39/99
f 78/29/100 84/12/100 80/31/100
f 89/17/101 76/4/101 74/32/101
f 82/33/102 77/38/102 88/16/102
f 83/11/103 96/24/103 92/36/103
f 93/21/104 95/23/104 90/18/104
f 103/7/113 97/34/113 99/3/113
f 100/25/114 102/29/114 99/26/114
f 101/28/368 106/10/368 108/12/368
f 105/30/116 104/31/116 108/12/116
f 103/7/117 105/9/117 116/36/117
f 118/22/118 120/24/118 107/11/118
f 117/21/119 116/36/119 120/24/119
f 115/19/369 117/21/369 110/14/369
f 118/22/121 112/16/121 114/18/121
f 111/15/122 110/14/122 114/18/122
f 109/13/123 111/15/123 98/2/123
f 101/5/124 100/4/124 113/17/124
f 103/7/125 115/19/125 109/13/125
f 102/29/126 108/12/126 104/31/126
f 111/15/127 113/17/127 100/4/127
f 106/33/128 101/38/128 112/16/128
f 107/11/129 120/24/129 116/36/129
f 119/23/130 114/18/130 110/14/130
f 127/7/139 121/1/139 123/3/139
f 122/27/140 124/25/140 126/29/140
f 130/10/141 132/12/141 126/29/141
f 129/30/370 128/31/370 132/12/370
f 139/19/143 127/7/143 129/9/143
f 142/22/144 144/24/144 131/11/144
f 141/21/145 140/20/145 144/24/145
f 139/19/146 141/21/146 134/14/146
f 142/22/147 136/16/147 138/18/147
f 137/17/148 135/15/148 134/14/148
f 121/1/149 133/13/149 135/15/149
f 125/5/150 124/4/150 137/17/150
f 127/7/151 139/19/151 133/13/151
f 126/29/152 132/12/152 128/31/152
f 137/17/153 124/4/153 122/32/153
f 130/33/154 125/38/154 136/16/154
f 129/30/155 131/11/155 144/24/155
f 143/23/156 138/18/156 134/14/156
f 311/291/332 316/296/332 315/295/332
f 320/300/382 313/293/382 312/292/382
f 310/331/334 314/368/334 313/332/334
f 319/334/335 317/354/335 316/335/335
f 322/302/336 321/301/336 315/295/336
f 319/299/337 318/298/337 324/304/337
f 325/337/338 323/355/338 322/338/338
f 323/303/339 328/308/339 327/307/339
f 332/312/340 325/305/340 324/304/340
f 331/340/341 329/356/341 328/341/341
f 329/309/342 334/314/342 333/313/342
f 338/318/343 331/311/343 330/310/343
f 337/343/344 335/357/344 334/344/344
f 335/315/345 340/320/345 339/319/345
f 337/317/383 336/316/383 342/322/383
f 341/346/347 340/358/347 344/347/347
f 341/321/348 346/326/348 345/325/348
f 343/323/349 342/322/349 348/328/349
f 347/349/350 346/359/350 350/350/350
f 347/327/351 310/290/351 309/289/351
f 314/294/352 349/329/352 348/328/352
f 345/325/353 309/289/353 315/295/353
f 315/295/353 321/301/353 327/307/353
f 327/307/353 333/313/353 339/319/353
f 339/319/353 345/325/353 315/295/353
f 313/352/354 320/336/354 316/335/354
f 349/351/355 314/368/355 310/331/355
f 324/304/356 318/298/356 312/292/356
f 312/292/356 348/328/356 342/322/356
f 342/322/356 336/316/356 330/310/356
f 330/310/356 324/304/356 312/292/356
f 319/334/357 326/339/357 322/338/357
f 325/337/358 332/342/358 328/341/358
f 331/340/359 338/345/359 334/344/359
f 335/357/360 337/343/360 344/347/360
f 343/348/361 350/350/361 346/359/361
usemtl bark
f 145/42/157 146/43/157 147/44/157
f 148/45/158 149/46/158 150/47/158
f 151/48/159 152/49/159 153/50/159
f 154/51/160 155/52/160 156/53/160
f 157/54/161 158/55/161 159/56/161
f 160/57/162 161/58/162 162/59/162
f 163/60/163 164/61/163 165/62/163
f 166/63/164 167/64/164 168/65/164
f 169/66/165 170/67/165 171/68/165
f 172/69/166 173/70/166 174/71/166
f 147/44/167 151/48/167 145/42/167
f 156/53/168 148/45/168 154/51/168
f 150/72/169 147/73/169 146/74/169
f 153/75/170 156/76/170 155/77/170
f 158/55/171 151/48/171 153/50/171
f 162/59/172 154/51/172 160/57/172
f 159/78/173 162/79/173 161/80/173
f 164/61/174 157/54/174 159/56/174
f 168/65/175 160/57/175 166/63/175
f 165/81/176 168/80/176 167/82/176
f 165/62/177 169/66/177 163/60/177
f 174/71/178 166/63/178 172/69/178
f 171/83/179 174/84/179 173/85/179
f 171/68/180 145/42/180 169/66/180
f 173/70/181 148/45/181 150/47/181
f 151/48/182 163/60/182 169/66/182
f 147/86/183 156/76/183 152/87/183
f 173/85/184 146/74/184 171/83/184
f 148/45/185 166/63/185 160/57/185
f 153/75/186 162/79/186 158/88/186
f 159/78/187 168/80/187 164/89/187
f 165/81/188 174/84/188 170/90/188
f 175/91/189 176/92/189 177/93/189
f 178/94/190 179/95/190 180/96/190
f 181/97/191 182/98/191 183/99/191
f 184/100/192 185/101/192 186/102/192
f 187/103/193 188/104/193 189/105/193
f 190/106/194 191/107/194 192/108/194
f 193/109/195 194/110/195 195/111/195
f 196/112/196 197/113/196 198/114/196
f 199/115/197 200/116/197 201/117/197
f 202/118/198 203/119/198 204/120/198
f 182/98/199 175/91/199 177/93/199
f 186/102/200 178/94/200 184/100/200
f 180/121/201 177/122/201 176/123/201
f 185/124/202 182/125/202 186/126/202
f 183/99/203 187/103/203 181/97/203
f 192/108/204 184/100/204 190/106/204
f 191/127/205 188/128/205 192/124/205
f 189/105/206 193/109/206 187/103/206
f 198/114/207 190/106/207 196/112/207
f 195/129/208 198/130/208 197/131/208
f 200/116/209 193/109/209 195/111/209
f 197/113/181 202/118/181 204/120/181
f 203/132/210 200/133/210 204/134/210
f 176/92/211 199/115/211 201/117/211
f 180/96/212 202/118/212 178/94/212
f 181/97/213 193/109/213 199/115/213
f 179/126/214 182/125/214 177/135/214
f 201/136/215 180/121/215 176/123/215
f 178/94/216 196/112/216 190/106/216
f 183/137/217 192/124/217 188/128/217
f 189/138/218 198/130/218 194/139/218
f 197/131/219 200/133/219 195/129/219
f 249/204/255 250/205/255 251/206/255
f 252/207/256 253/208/256 254/47/256
f 255/209/257 256/210/257 257/211/257
f 258/212/258 259/213/258 260/95/258
f 261/214/259 262/215/259 263/216/259
f 264/217/260 265/107/260 266/213/260
f 267/218/261 268/219/261 269/220/261
f 270/221/262 271/222/262 272/114/262
f 273/223/263 274/224/263 275/225/263
f 276/226/264 277/47/264 278/113/264
f 256/210/265 249/204/265 251/206/265
f 260/95/266 252/207/266 258/212/266
f 250/227/267 253/228/267 251/229/267
f 259/230/268 256/231/268 260/232/268
f 257/211/269 261/214/269 255/209/269
f 259/213/270 264/217/270 266/213/270
f 265/233/271 262/234/271 266/235/271
f 263/216/272 267/218/272 261/214/272
f 265/107/273 270/221/273 272/114/273
f 271/236/274 268/237/274 272/233/274
f 274/224/275 267/218/275 269/220/275
f 278/113/276 270/221/276 276/226/276
f 275/238/277 278/239/277 277/240/277
f 275/225/278 249/204/278 273/223/278
f 254/47/279 276/226/279 252/207/279
f 255/209/280 267/218/280 273/223/280
f 251/241/281 260/232/281 256/231/281
f 275/238/282 254/242/282 250/227/282
f 252/207/283 270/221/283 264/217/283
f 259/230/284 262/234/284 257/243/284
f 265/233/285 268/237/285 263/244/285
f 269/245/286 278/239/286 274/246/286
f 279/247/287 280/248/287 281/249/287
f 282/250/288 283/102/288 284/70/288
f 285/251/289 286/252/289 287/253/289
f 288/254/290 289/255/290 290/256/290
f 291/257/291 292/258/291 293/259/291
f 294/260/292 295/261/292 296/262/292
f 297/263/293 298/264/293 299/265/293
f 300/266/294 301/267/294 302/107/294
f 303/268/295 304/269/295 305/270/295
f 306/271/296 307/70/296 308/267/296
f 281/249/297 285/251/297 279/247/297
f 290/256/298 282/250/298 288/254/298
f 280/272/299 283/273/299 281/274/299
f 287/275/300 290/276/300 289/277/300
f 287/253/301 291/257/301 285/251/301
f 289/255/181 294/260/181 296/262/181
f 293/278/302 296/277/302 295/279/302
f 298/264/303 291/257/303 293/259/303
f 302/107/304 294/260/304 300/266/304
f 299/280/305 302/279/305 301/281/305
f 304/269/306 297/263/306 299/265/306
f 308/267/307 300/266/307 306/271/307
f 305/282/308 308/281/308 307/283/308
f 305/270/309 279/247/309 303/268/309
f 284/70/310 306/271/310 282/250/310
f 285/251/311 297/263/311 303/268/311
f 281/284/312 290/276/312 286/285/312
f 305/282/313 284/283/313 280/272/313
f 282/250/314 300/266/314 294/260/314
f 289/277/315 292/286/315 287/275/315
f 293/278/316 302/279/316 298/287/316
f 299/280/317 308/281/317 304/288/317
f 147/44/167 152/49/167 151/48/167
f 156/53/181 149/46/181 148/45/181
f 150/72/169 149/360/169 147/73/169
f 153/75/170 152/87/170 156/76/170
f 158/55/171 157/54/171 151/48/171
f 162/59/181 155/52/181 154/51/181
f 159/78/173 158/88/173 162/79/173
f 164/61/174 163/60/174 157/54/174
f 168/65/371 161/58/371 160/57/371
f 165/81/176 164/89/176 168/80/176
f 165/62/177 170/67/177 169/66/177
f 174/71/181 167/64/181 166/63/181
f 171/83/179 170/90/179 174/84/179
f 171/68/180 146/43/180 145/42/180
f 173/70/372 172/69/372 148/45/372
f 169/66/182 145/42/182 151/48/182
f 151/48/182 157/54/182 163/60/182
f 147/86/181 149/76/181 156/76/181
f 173/85/373 150/72/373 146/74/373
f 160/57/185 154/51/185 148/45/185
f 148/45/185 172/69/185 166/63/185
f 153/75/181 155/77/181 162/79/181
f 159/78/374 161/80/374 168/80/374
f 165/81/181 167/82/181 174/84/181
f 182/98/199 181/97/199 175/91/199
f 186/102/181 179/95/181 178/94/181
f 180/121/201 179/361/201 177/122/201
f 185/124/202 183/137/202 182/125/202
f 183/99/203 188/104/203 187/103/203
f 192/108/181 185/101/181 184/100/181
f 191/127/205 189/138/205 188/128/205
f 189/105/206 194/110/206 193/109/206
f 198/114/181 191/107/181 190/106/181
f 195/129/208 194/139/208 198/130/208
f 200/116/209 199/115/209 193/109/209
f 197/113/375 196/112/375 202/118/375
f 203/132/210 201/136/210 200/133/210
f 176/92/211 175/91/211 199/115/211
f 180/96/181 203/119/181 202/118/181
f 199/115/213 175/91/213 181/97/213
f 181/97/213 187/103/213 193/109/213
f 179/126/376 186/126/376 182/125/376
f 201/136/181 203/132/181 180/121/181
f 190/106/216 184/100/216 178/94/216
f 178/94/216 202/118/216 196/112/216
f 183/137/181 185/124/181 192/124/181
f 189/138/181 191/127/181 198/130/181
f 197/131/377 204/134/377 200/133/377
f 256/210/265 255/209/265 249/204/265
f 260/95/181 253/208/181 252/207/181
f 250/227/267 254/242/267 253/228/267
f 259/230/268 257/243/268 256/231/268
f 257/211/269 262/215/269 261/214/269
f 259/213/378 258/212/378 264/217/378
f 265/233/271 263/244/271 262/234/271
f 263/216/272 268/219/272 267/218/272
f 265/107/379 264/217/379 270/221/379
f 271/236/274 269/245/274 268/237/274
f 274/224/275 273/223/275 267/218/275
f 278/113/181 271/222/181 270/221/181
f 275/238/277 274/246/277 278/239/277
f 275/225/278 250/205/278 249/204/278
f 254/47/181 277/47/181 276/226/181
f 273/223/280 249/204/280 255/209/280
f 255/209/280 261/214/280 267/218/280
f 251/241/181 253/366/181 260/232/181
f 275/238/181 277/240/181 254/242/181
f 264/217/283 258/212/283 252/207/283
f 252/207/283 276/226/283 270/221/283
f 259/230/377 266/235/377 262/234/377
f 265/233/380 272/233/380 268/237/380
f 269/245/181 271/236/181 278/239/181
f 281/249/297 286/252/297 285/251/297
f 290/256/181 283/102/181 282/250/181
f 280/272/299 284/283/299 283/273/299
f 287/275/300 286/285/300 290/276/300
f 287/253/301 292/258/301 291/257/301
f 289/255/381 288/254/381 294/260/381
f 293/278/302 292/286/302 296/277/302
f 298/264/303 297/263/303 291/257/303
f 302/107/181 295/261/181 294/260/181
f 299/280/305 298/287/305 302/279/305
f 304/269/306 303/268/306 297/263/306
f 308/267/181 301/267/181 300/266/181
f 305/282/308 304/288/308 308/281/308
f 305/270/309 280/248/309 279/247/309
f 284/70/181 307/70/181 306/271/181
f 303/268/311 279/247/311 285/251/311
f 285/251/311 291/257/311 297/263/311
f 281/284/181 283/367/181 290/276/181
f 305/282/181 307/283/181 284/283/181
f 294/260/314 288/254/314 282/250/314
f 282/250/314 306/271/314 300/266/314
f 289/277/380 296/277/380 292/286/380
f 293/278/181 295/279/181 302/279/181
f 299/280/181 301/281/181 308/281/181
usemtl bloom
f 210/140/220 205/141/220 206/142/220
f 208/143/221 211/144/221 212/145/221
f 210/140/222 213/146/222 209/147/222
f 212/145/223 215/148/223 216/149/223
f 214/150/224 217/151/224 213/146/224
f 216/149/225 219/152/225 220/153/225
f 222/154/226 217/151/226 218/155/226
f 224/156/227 219/152/227 223/157/227
f 226/158/228 221/159/228 222/154/228
f 224/156/229 227/160/229 228/161/229
f 230/162/230 225/163/230 226/158/230
f 232/164/231 227/160/231 231/165/231
f 234/166/232 229/167/232 230/162/232
f 232/164/233 235/168/233 236/169/233
f 234/166/234 237/170/234 233/171/234
f 236/169/235 239/172/235 240/173/235
f 238/174/236 241/175/236 237/170/236
f 240/173/237 243/176/237 244/177/237
f 246/178/238 241/175/238 242/179/238
f 248/180/239 243/176/239 247/181/239
f 206/142/240 245/182/240 246/178/240
f 208/143/241 247/181/241 207/183/241
f 209/147/242 225/163/242 241/175/242
f 206/184/243 212/185/243 210/186/243
f 246/187/244 208/188/244 206/189/244
f 207/183/245 235/168/245 219/152/245
f 212/185/246 214/190/246 210/186/246
f 214/190/247 220/191/247 218/192/247
f 220/191/248 222/193/248 218/192/248
f 222/193/249 228/194/249 226/195/249
f 228/194/250 230/196/250 226/195/250
f 232/197/251 234/198/251 230/196/251
f 236/199/252 238/200/252 234/198/252
f 238/200/253 244/201/253 242/202/253
f 242/202/254 248/203/254 246/187/254
f 210/140/220 209/147/220 205/141/220
f 208/143/221 207/183/221 211/144/221
f 210/140/222 214/150/222 213/146/222
f 212/145/223 211/144/223 215/148/223
f 214/150/224 218/155/224 217/151/224
f 216/149/225 215/148/225 219/152/225
f 222/154/226 221/159/226 217/151/226
f 224/156/227 220/153/227 219/152/227
f 226/158/228 225/163/228 221/159/228
f 224/156/229 223/157/229 227/160/229
f 230/162/230 229/167/230 225/163/230
f 232/164/231 228/161/231 227/160/231
f 234/166/232 233/171/232 229/167/232
f 232/164/233 231/165/233 235/168/233
f 234/166/234 238/174/234 237/170/234
f 236/169/235 235/168/235 239/172/235
f 238/174/236 242/179/236 241/175/236
f 240/173/237 239/172/237 243/176/237
f 246/178/238 245/182/238 241/175/238
f 248/180/239 244/177/239 243/176/239
f 206/142/240 205/141/240 245/182/240
f 208/143/241 248/180/241 247/181/241
f 245/182/242 205/141/242 209/147/242
f 209/147/242 213/146/242 217/151/242
f 217/151/242 221/159/242 225/163/242
f 225/163/242 229/167/242 233/171/242
f 233/171/242 237/170/242 241/175/242
f 241/175/242 245/182/242 209/147/242
f 209/147/242 217/151/242 225/163/242
f 225/163/242 233/171/242 241/175/242
f 206/184/243 208/362/243 212/185/243
f 246/187/244 248/203/244 208/188/244
f 215/148/245 211/144/245 207/183/245
f 207/183/245 247/181/245 243/176/245
f 243/176/245 239/172/245 235/168/245
f 235/168/245 231/165/245 227/160/245
f 227/160/245 223/157/245 219/152/245
f 219/152/245 215/148/245 207/183/245
f 207/183/245 243/176/245 235/168/245
f 235/168/245 227/160/245 219/152/245
f 212/185/246 216/363/246 214/190/246
f 214/190/247 216/363/247 220/191/247
f 220/191/248 224/364/248 222/193/248
f 222/193/249 224/364/249 228/194/249
f 228/194/250 232/197/250 230/196/250
f 232/197/251 236/199/251 234/198/251
f 236/199/252 240/365/252 238/200/252
f 238/200/253 240/365/253 244/201/253
f 242/202/254 244/201/254 248/203/254
