# Blender 4.5.10 LTS
# www.blender.org
mtllib grove_bonemeal_cake.mtl
o grove_bonemeal_cake
v 0.100935 0.004228 -0.066046
v 0.100848 0.004833 -0.068109
v 0.102195 0.004949 -0.066107
v 0.100884 0.004378 -0.067496
v 0.101631 0.004502 -0.067257
v 0.101775 0.004888 -0.067539
v 0.101837 0.004460 -0.066080
v 0.099024 0.051431 -0.069561
v 0.099059 0.052168 -0.067540
v 0.100372 0.051546 -0.067559
v 0.099024 0.051925 -0.068978
v 0.099778 0.051875 -0.068733
v 0.099976 0.052007 -0.067562
v 0.099952 0.051485 -0.068991
v 0.105172 0.008813 0.075729
v 0.106433 0.009533 0.075668
v 0.105207 0.009550 0.077750
v 0.106074 0.009044 0.075694
v 0.105939 0.009163 0.076876
v 0.106099 0.009565 0.077123
v 0.105208 0.009056 0.077166
v 0.103297 0.056753 0.074234
v 0.103384 0.056148 0.076297
v 0.104609 0.056131 0.074215
v 0.103347 0.056603 0.075684
v 0.104086 0.056536 0.075399
v 0.104276 0.056163 0.075671
v 0.104214 0.056591 0.074212
v 0.011619 0.000820 -0.063266
v 0.010306 0.001442 -0.063247
v 0.011532 0.001425 -0.065329
v 0.010702 0.000982 -0.063244
v 0.010830 0.001037 -0.064431
v 0.010640 0.001410 -0.064703
v 0.011568 0.000970 -0.064716
v 0.009743 0.048760 -0.064760
v 0.009709 0.048023 -0.066782
v 0.008483 0.048040 -0.064700
v 0.009708 0.048517 -0.066198
v 0.008976 0.048410 -0.065907
v 0.008817 0.048008 -0.066155
v 0.008841 0.048529 -0.064726
v 0.015857 0.005405 0.078508
v 0.015891 0.006142 0.080529
v 0.014544 0.006027 0.078527
v 0.015892 0.005648 0.079946
v 0.015138 0.005698 0.079702
v 0.014964 0.006088 0.079960
v 0.014939 0.005567 0.078531
v 0.013981 0.053345 0.077014
v 0.012721 0.052625 0.077075
v 0.014068 0.052740 0.079077
v 0.013079 0.053114 0.077049
v 0.013284 0.053071 0.078225
v 0.013140 0.052686 0.078507
v 0.014032 0.053195 0.078464
v -0.008064 -0.010011 -0.071490
v -0.007973 -0.009423 -0.073544
v -0.006795 -0.009458 -0.071469
v -0.008015 -0.009855 -0.072938
v -0.007307 -0.009812 -0.072656
v -0.007119 -0.009464 -0.072923
v -0.007183 -0.009881 -0.071470
v -0.005258 0.034226 -0.074334
v -0.005271 0.034895 -0.072302
v -0.004080 0.034190 -0.072258
v -0.005245 0.034682 -0.073743
v -0.004547 0.034562 -0.073458
v -0.004413 0.034657 -0.072276
v -0.004404 0.034184 -0.073712
v -0.011666 -0.007222 0.070349
v -0.010397 -0.006669 0.070370
v -0.011678 -0.006553 0.072380
v -0.010785 -0.007092 0.070368
v -0.010969 -0.006977 0.071542
v -0.010794 -0.006619 0.071805
v -0.011691 -0.007010 0.071790
v -0.008873 0.037684 0.069537
v -0.008964 0.037095 0.071591
v -0.007682 0.036979 0.069581
v -0.008921 0.037528 0.070985
v -0.008209 0.037397 0.070740
v -0.008079 0.037030 0.071016
v -0.008015 0.037446 0.069563
v -0.093407 -0.004744 -0.073761
v -0.094597 -0.004040 -0.073805
v -0.093316 -0.004156 -0.075815
v -0.094265 -0.004506 -0.073787
v -0.094070 -0.004458 -0.074964
v -0.094200 -0.004090 -0.075240
v -0.093359 -0.004588 -0.075209
v -0.090614 0.040162 -0.074573
v -0.090601 0.039493 -0.076605
v -0.091882 0.039609 -0.074594
v -0.090589 0.039949 -0.076014
v -0.091310 0.039917 -0.075767
v -0.091486 0.039558 -0.076029
v -0.091495 0.040031 -0.074593
v -0.097009 -0.001955 0.068078
v -0.097022 -0.001286 0.070109
v -0.098199 -0.001251 0.068034
v -0.097034 -0.001743 0.069519
v -0.097732 -0.001623 0.069234
v -0.097876 -0.001245 0.069488
v -0.097867 -0.001718 0.068051
v -0.094216 0.042951 0.067266
v -0.095484 0.042398 0.067245
v -0.094307 0.042362 0.069320
v -0.095097 0.042820 0.067246
v -0.094972 0.042752 0.068431
v -0.095161 0.042404 0.068699
v -0.094264 0.042795 0.068714
v -0.006487 0.037811 -0.004404
v -0.066613 0.043804 -0.049296
v 0.017721 0.042683 -0.075514
v 0.068703 0.041245 -0.003405
v 0.015876 0.041477 0.067378
v -0.067753 0.043058 0.039015
v -0.028582 0.050942 -0.076042
v 0.055047 0.049361 -0.047678
v 0.053907 0.048615 0.040633
v -0.030427 0.049735 0.066850
v -0.081409 0.051173 -0.005259
v -0.006219 0.054608 -0.004259
v 0.007719 0.039200 -0.046214
v -0.041851 0.039859 -0.030804
v -0.027622 0.042723 -0.072601
v -0.077863 0.042943 -0.005283
v -0.042522 0.039420 0.021104
v 0.037685 0.038355 -0.003829
v 0.051915 0.041219 -0.045626
v 0.006634 0.038491 0.037775
v 0.050830 0.040510 0.038363
v -0.029377 0.041575 0.063297
v -0.085890 0.047713 -0.031306
v -0.086560 0.047275 0.020602
v -0.005268 0.046919 -0.088322
v -0.054839 0.047577 -0.072912
v 0.073854 0.045144 -0.029265
v 0.043888 0.045989 -0.071650
v 0.042133 0.044842 0.064248
v 0.073184 0.044706 0.022643
v -0.056594 0.046429 0.062987
v -0.007438 0.045500 0.079658
v -0.063536 0.051909 -0.047027
v 0.016671 0.050844 -0.071960
v 0.065157 0.049476 -0.003381
v 0.014916 0.049696 0.063937
v -0.064620 0.051200 0.036963
v -0.019340 0.053928 -0.046439
v -0.050391 0.054064 -0.004834
v 0.029816 0.052998 -0.029767
v 0.029146 0.052560 0.022140
v -0.020424 0.053218 0.037550
v 0.000295 0.064147 0.063633
v 0.003247 0.068205 0.060268
v -0.003626 0.067237 0.060230
v 0.002435 0.066577 0.062971
v -0.000172 0.067496 0.062761
v -0.000338 0.068761 0.060565
v -0.002426 0.065892 0.062944
v -0.001900 0.083057 -0.020448
v -0.005603 0.084264 -0.015483
v 0.001271 0.085232 -0.015445
v -0.004556 0.084250 -0.018686
v -0.002275 0.085610 -0.017783
v -0.002314 0.085789 -0.015148
v 0.000304 0.084935 -0.018659
v -0.006239 0.058081 0.062059
v -0.008210 0.062981 0.059126
v -0.009442 0.056423 0.057212
v -0.007640 0.061050 0.061688
v -0.009240 0.059077 0.060578
v -0.009905 0.059878 0.058261
v -0.008512 0.056413 0.060335
v -0.003344 0.081717 -0.020796
v -0.006835 0.077707 -0.017397
v -0.005603 0.084264 -0.015483
v -0.005701 0.079360 -0.020105
v -0.006466 0.081718 -0.018792
v -0.007298 0.081161 -0.016348
v -0.004830 0.083997 -0.018751
v -0.002305 0.050308 0.059594
v -0.006682 0.050970 0.055483
v -0.000570 0.047886 0.054338
v -0.005372 0.050209 0.058368
v -0.003780 0.048290 0.057156
v -0.004145 0.048496 0.054651
v -0.001050 0.048028 0.057558
v -0.002475 0.079999 -0.021340
v -0.000723 0.074622 -0.018541
v -0.006835 0.077707 -0.017397
v -0.001214 0.076854 -0.021017
v -0.003943 0.076732 -0.020374
v -0.004297 0.075233 -0.018228
v -0.005536 0.079035 -0.020208
v 0.006660 0.051570 0.059644
v 0.005719 0.048771 0.054373
v 0.010729 0.053423 0.055580
v 0.006106 0.049036 0.057598
v 0.008662 0.050042 0.057226
v 0.008982 0.050345 0.054724
v 0.009648 0.052325 0.058451
v -0.000494 0.080278 -0.021329
v 0.004287 0.079273 -0.017335
v -0.000723 0.074622 -0.018541
v 0.002703 0.080195 -0.020162
v 0.001809 0.077542 -0.020342
v 0.002541 0.076196 -0.018190
v -0.000840 0.076907 -0.021015
v 0.008267 0.060124 0.062140
v 0.011856 0.059423 0.057331
v 0.008840 0.065382 0.059221
v 0.010930 0.059151 0.060444
v 0.010892 0.061912 0.060690
v 0.011335 0.062870 0.058379
v 0.008798 0.063365 0.061780
v -0.000139 0.082168 -0.020778
v 0.001271 0.085232 -0.015445
v 0.004287 0.079273 -0.017335
v 0.000637 0.084767 -0.018721
v 0.002840 0.083029 -0.018740
v 0.003766 0.082720 -0.016286
v 0.002770 0.080553 -0.020057
v -0.007350 0.000479 -0.094766
v -0.027590 0.004655 -0.109654
v 0.000451 0.004812 -0.118622
v 0.017641 0.005396 -0.094728
v 0.000224 0.005600 -0.070993
v -0.027731 0.005143 -0.080218
v -0.015107 0.012154 -0.118818
v 0.012847 0.012612 -0.109593
v 0.012707 0.013099 -0.080157
v -0.015335 0.012942 -0.071189
v -0.032525 0.012358 -0.095083
v -0.007533 0.017276 -0.095045
v -0.002749 0.001551 -0.108764
v -0.019231 0.001459 -0.103492
v -0.014645 0.004006 -0.117515
v -0.031210 0.004201 -0.094941
v -0.019313 0.001746 -0.086190
v 0.007355 0.001895 -0.094719
v 0.011941 0.004442 -0.108741
v -0.002882 0.002015 -0.080768
v 0.011807 0.004905 -0.080746
v -0.014862 0.004756 -0.072217
v -0.034028 0.008442 -0.103679
v -0.034111 0.008728 -0.086376
v -0.007308 0.008414 -0.122901
v -0.023791 0.008322 -0.117630
v 0.019227 0.009026 -0.103434
v 0.009123 0.008683 -0.117479
v 0.008907 0.009432 -0.072181
v 0.019145 0.009312 -0.086132
v -0.024007 0.009071 -0.072332
v -0.007575 0.009340 -0.066909
v -0.026691 0.012849 -0.109065
v -0.000022 0.012999 -0.117594
v 0.016327 0.013554 -0.094869
v -0.000238 0.013748 -0.072296
v -0.026825 0.013313 -0.081069
v -0.012001 0.015740 -0.109043
v -0.022239 0.015860 -0.095091
v 0.004430 0.016009 -0.103620
v 0.004347 0.016295 -0.086318
v -0.012135 0.016203 -0.081047
v 0.035896 -0.005498 0.081505
v 0.035803 -0.005330 0.081247
v 0.036210 -0.005322 0.081379
v 0.035830 -0.005454 0.081327
v 0.036024 -0.005432 0.081290
v 0.036053 -0.005330 0.081237
v 0.036118 -0.005449 0.081420
v 0.035786 0.007288 0.080565
v 0.035878 0.007483 0.080805
v 0.036194 0.007295 0.080697
v 0.035813 0.007420 0.080631
v 0.036007 0.007395 0.080597
v 0.036101 0.007426 0.080725
v 0.036036 0.007288 0.080556
v 0.042331 -0.004556 0.098790
v 0.042645 -0.004380 0.098664
v 0.042423 -0.004361 0.099030
v 0.042553 -0.004507 0.098705
v 0.042566 -0.004475 0.098863
v 0.042619 -0.004369 0.098874
v 0.042396 -0.004493 0.098964
v 0.042313 0.008425 0.098090
v 0.042406 0.008257 0.098348
v 0.042628 0.008237 0.097982
v 0.042379 0.008381 0.098268
v 0.042549 0.008353 0.098170
v 0.042602 0.008249 0.098193
v 0.042536 0.008368 0.098010
v 0.014030 -0.005089 0.089624
v 0.013714 -0.004901 0.089731
v 0.013937 -0.004921 0.089365
v 0.013807 -0.005032 0.089703
v 0.013794 -0.005017 0.089543
v 0.013741 -0.004913 0.089520
v 0.013964 -0.005045 0.089445
v 0.014012 0.007892 0.088923
v 0.013920 0.007697 0.088683
v 0.013698 0.007716 0.089049
v 0.013947 0.007829 0.088749
v 0.013777 0.007811 0.088851
v 0.013724 0.007705 0.088839
v 0.013790 0.007843 0.089008
v 0.020465 -0.004147 0.106909
v 0.020557 -0.003952 0.107148
v 0.020149 -0.003960 0.107016
v 0.020530 -0.004084 0.107082
v 0.020336 -0.004059 0.107116
v 0.020307 -0.003952 0.107157
v 0.020242 -0.004090 0.106988
v 0.020447 0.008834 0.106208
v 0.020132 0.008658 0.106334
v 0.020540 0.008666 0.106466
v 0.020225 0.008785 0.106293
v 0.020319 0.008768 0.106423
v 0.020290 0.008666 0.106476
v 0.020513 0.008790 0.106387
vn 0.2449 -0.9664 -0.0778
vn 0.3890 -0.7283 -0.5641
vn 0.8459 -0.4824 -0.2275
vn 0.3323 0.7200 -0.6093
vn 0.1198 0.9784 -0.1685
vn 0.7442 0.6380 -0.1980
vn 0.2041 -0.9660 0.1584
vn 0.8014 -0.5790 0.1499
vn 0.4233 -0.6912 0.5857
vn 0.1749 0.9825 0.0647
vn 0.3667 0.7572 0.5406
vn 0.8192 0.5459 0.1756
vn -0.1277 -0.9870 -0.0975
vn -0.7534 -0.6480 -0.1116
vn -0.3667 -0.7572 -0.5406
vn -0.2509 0.9599 -0.1252
vn -0.4233 0.6911 -0.5857
vn -0.8589 0.4684 -0.2073
vn -0.1689 -0.9759 0.1383
vn -0.3323 -0.7200 0.6093
vn -0.8062 -0.5319 0.2591
vn -0.1962 0.9746 0.1076
vn -0.7922 0.5890 0.1597
vn -0.3890 0.7283 0.5641
vn 0.2492 -0.9682 0.0239
vn 0.8065 -0.5912 -0.0050
vn 0.5237 -0.0061 -0.8519
vn 0.9589 0.0287 -0.2824
vn 0.1728 0.9843 -0.0370
vn 0.7580 0.6508 -0.0437
vn 0.5736 0.0479 0.8178
vn 0.9740 0.0450 0.2222
vn 0.0428 -0.9853 0.1656
vn 0.0492 -0.7622 0.6455
vn -0.0347 0.9940 0.1040
vn -0.0120 0.8024 0.5967
vn -0.9589 -0.0287 0.2824
vn -0.5237 0.0061 0.8519
vn -0.1728 -0.9843 0.0370
vn -0.7579 -0.6509 0.0437
vn -0.2492 0.9682 -0.0239
vn -0.8065 0.5912 0.0050
vn -0.5736 -0.0479 -0.8177
vn -0.9740 -0.0450 -0.2222
vn 0.0347 -0.9940 -0.1040
vn 0.0120 -0.8024 -0.5967
vn -0.0428 0.9853 -0.1656
vn -0.0492 0.7622 -0.6455
vn 0.0391 -0.9988 0.0311
vn 0.9988 0.0381 -0.0311
vn -0.0299 -0.0323 -0.9990
vn -0.0391 0.9988 -0.0311
vn 0.0299 0.0323 0.9990
vn -0.9988 -0.0381 0.0311
vn 0.1478 -0.9864 -0.0723
vn 0.3466 -0.7749 -0.5285
vn 0.8022 -0.5706 -0.1760
vn 0.4388 0.7064 -0.5553
vn 0.2228 0.9650 -0.1384
vn 0.8092 0.5710 -0.1380
vn 0.0949 -0.9846 0.1469
vn 0.7245 -0.6657 0.1788
vn 0.3186 -0.7532 0.5755
vn 0.2638 0.9610 0.0833
vn 0.4108 0.7282 0.5487
vn 0.8558 0.4682 0.2201
vn -0.2164 -0.9699 -0.1115
vn -0.8018 -0.5768 -0.1563
vn -0.4108 -0.7281 -0.5487
vn -0.1429 0.9826 -0.1184
vn -0.3186 0.7532 -0.5755
vn -0.7917 0.5624 -0.2387
vn -0.2687 -0.9572 0.1074
vn -0.4388 -0.7064 0.5553
vn -0.8663 -0.4601 0.1946
vn -0.1012 0.9895 0.1031
vn -0.7319 0.6715 0.1155
vn -0.3466 0.7749 0.5285
vn 0.1460 -0.9890 0.0232
vn 0.7362 -0.6760 0.0320
vn 0.5860 -0.0511 -0.8087
vn 0.9742 -0.0645 -0.2164
vn 0.2675 0.9635 -0.0122
vn 0.8144 0.5803 0.0093
vn 0.5442 -0.0187 0.8388
vn 0.9619 -0.0550 0.2679
vn -0.0648 -0.9874 0.1445
vn -0.0649 -0.7889 0.6111
vn 0.0584 0.9924 0.1087
vn 0.0346 0.8123 0.5822
vn -0.9742 0.0645 0.2163
vn -0.5860 0.0511 0.8087
vn -0.2675 -0.9635 0.0122
vn -0.8144 -0.5803 -0.0093
vn -0.1460 0.9890 -0.0232
vn -0.7362 0.6760 -0.0320
vn -0.5442 0.0187 -0.8388
vn -0.9619 0.0550 -0.2679
vn -0.0584 -0.9924 -0.1087
vn -0.0346 -0.8123 -0.5822
vn 0.0648 0.9874 -0.1445
vn 0.0649 0.7889 -0.6111
vn -0.0621 -0.9979 0.0180
vn 0.9977 -0.0616 0.0265
vn 0.0254 -0.0197 -0.9995
vn 0.0621 0.9979 -0.0180
vn -0.0254 0.0197 0.9995
vn -0.9977 0.0616 -0.0265
vn -0.0264 -0.9988 -0.0422
vn -0.1205 -0.9914 -0.0502
vn 0.0127 -0.9995 -0.0289
vn 0.0122 -0.9998 0.0123
vn -0.0272 -0.9993 0.0246
vn -0.2777 -0.9565 -0.0897
vn -0.0190 -0.9589 -0.2830
vn 0.2447 -0.9648 -0.0967
vn 0.1490 -0.9659 0.2117
vn -0.1738 -0.9608 0.2161
vn -0.5091 -0.7735 -0.3774
vn 0.1865 -0.7828 -0.5937
vn 0.6071 -0.7946 0.0011
vn 0.1713 -0.7927 0.5850
vn -0.5185 -0.7797 0.3510
vn -0.0443 0.9953 -0.0865
vn 0.0878 0.9931 -0.0781
vn 0.1205 0.9914 0.0502
vn 0.0086 0.9926 0.1209
vn -0.0932 0.9950 0.0364
vn -0.0127 0.9995 0.0289
vn -0.0463 0.9975 0.0526
vn -0.0467 0.9937 0.1022
vn 0.0264 0.9988 0.0422
vn 0.0385 0.9959 0.0814
vn 0.0855 0.9916 0.0971
vn 0.0510 0.9987 0.0091
vn 0.0921 0.9957 0.0096
vn 0.1215 0.9921 -0.0303
vn 0.0272 0.9993 -0.0246
vn 0.0404 0.9972 -0.0635
vn 0.0115 0.9945 -0.1039
vn -0.0122 0.9998 -0.0123
vn -0.0451 0.9983 -0.0369
vn -0.0925 0.9955 -0.0220
vn -0.2447 0.9648 0.0967
vn -0.3646 0.8895 0.2755
vn -0.1546 0.9622 0.2241
vn 0.0190 0.9589 0.2830
vn 0.1518 0.8797 0.4506
vn 0.1680 0.9570 0.2367
vn 0.2777 0.9565 0.0897
vn 0.4779 0.8783 0.0136
vn 0.2797 0.9578 -0.0663
vn 0.1738 0.9608 -0.2161
vn 0.1632 0.8872 -0.4316
vn 0.0261 0.9636 -0.2662
vn -0.1490 0.9659 -0.2117
vn -0.3575 0.8941 -0.2697
vn -0.2423 0.9663 -0.0867
vn -0.1865 0.7828 0.5937
vn -0.1632 -0.8872 0.4316
vn -0.0261 -0.9636 0.2662
vn 0.5091 0.7735 0.3774
vn 0.3575 -0.8941 0.2697
vn 0.2423 -0.9663 0.0867
vn 0.5185 0.7797 -0.3510
vn 0.3646 -0.8895 -0.2755
vn 0.1546 -0.9622 -0.2241
vn -0.1713 0.7927 -0.5850
vn -0.1518 -0.8797 -0.4506
vn -0.1680 -0.9570 -0.2367
vn -0.6071 0.7946 -0.0011
vn -0.4779 -0.8783 -0.0136
vn -0.2797 -0.9578 0.0663
vn -0.0878 -0.9931 0.0781
vn -0.0404 -0.9972 0.0635
vn -0.0115 -0.9945 0.1039
vn 0.0443 -0.9953 0.0865
vn 0.0451 -0.9983 0.0369
vn 0.0925 -0.9955 0.0220
vn 0.0932 -0.9950 -0.0364
vn 0.0463 -0.9975 -0.0526
vn 0.0467 -0.9937 -0.1022
vn -0.1215 -0.9921 0.0303
vn -0.0921 -0.9957 -0.0096
vn -0.0510 -0.9987 -0.0091
vn -0.0086 -0.9926 -0.1209
vn -0.0385 -0.9959 -0.0814
vn -0.0855 -0.9916 -0.0971
vn -0.0915 0.2389 0.9667
vn 0.2373 0.7990 0.5525
vn -0.4090 0.7771 0.4784
vn -0.0478 0.7179 -0.6945
vn -0.4601 0.8744 -0.1541
vn 0.1478 0.9869 -0.0645
vn -0.4882 -0.2105 0.8470
vn -0.7972 0.3836 0.4662
vn -0.9589 -0.1920 0.2090
vn -0.5007 0.3737 -0.7808
vn -0.9066 -0.0620 -0.4175
vn -0.8438 0.5087 -0.1712
vn -0.1689 -0.7066 0.6872
vn -0.7151 -0.6840 0.1443
vn -0.1729 -0.9833 -0.0560
vn -0.3038 -0.1422 -0.9421
vn -0.1201 -0.7491 -0.6515
vn -0.6856 -0.5386 -0.4898
vn 0.4250 -0.5638 0.7081
vn 0.3701 -0.9284 0.0317
vn 0.8627 -0.5033 0.0496
vn 0.2709 -0.1169 -0.9555
vn 0.8123 -0.2375 -0.5327
vn 0.4037 -0.7076 -0.5800
vn 0.4729 0.0205 0.8809
vn 0.9588 -0.0119 0.2840
vn 0.7168 0.5847 0.3799
vn 0.4290 0.4147 -0.8025
vn 0.6022 0.7659 -0.2253
vn 0.9187 0.2352 -0.3172
vn -0.6357 0.5420 0.5497
vn -0.2408 0.0076 0.9705
vn -0.6372 0.7411 -0.2114
vn -0.2945 0.5244 -0.7989
vn 0.1670 0.9629 0.2122
vn -0.4287 0.8790 0.2089
vn -0.9914 -0.1127 -0.0668
vn -0.8846 0.4557 0.0991
vn -0.8312 -0.4987 0.2460
vn -0.3232 -0.4308 0.8426
vn -0.8249 -0.2580 -0.5030
vn -0.3736 0.1033 -0.9218
vn -0.1872 -0.9224 -0.3380
vn -0.7169 -0.6550 -0.2388
vn 0.1388 -0.9882 0.0643
vn 0.0855 -0.6370 0.7661
vn 0.1063 -0.7279 -0.6774
vn 0.0189 -0.0948 -0.9953
vn 0.8725 -0.4311 -0.2299
vn 0.4384 -0.8342 -0.3345
vn 0.9338 -0.2501 0.2558
vn 0.4204 -0.3261 0.8467
vn 0.8695 -0.0193 -0.4935
vn 0.3406 0.2039 -0.9178
vn 0.7232 0.6821 0.1080
vn 0.9846 0.1657 -0.0558
vn 0.4552 0.6957 0.5558
vn 0.2187 0.0723 0.9731
vn 0.4100 0.8886 -0.2056
vn 0.1469 0.5866 -0.7965
vn 0.0350 -0.2860 0.9576
vn -0.6922 0.7000 0.1755
vn 0.4700 0.8637 0.1820
vn -0.0350 0.2860 -0.9576
vn -0.9005 -0.4088 -0.1481
vn 0.1329 -0.9304 -0.3416
vn 0.9800 -0.1439 -0.1376
vn -0.0211 -0.9963 -0.0833
vn -0.2897 -0.9518 -0.1007
vn 0.0959 -0.9944 -0.0447
vn 0.0953 -0.9924 0.0785
vn -0.0220 -0.9930 0.1160
vn -0.6148 -0.7690 -0.1750
vn -0.0057 -0.7701 -0.6379
vn 0.6227 -0.7560 -0.2018
vn 0.4019 -0.7463 0.5306
vn -0.3628 -0.7543 0.5471
vn -0.7385 -0.4059 -0.5384
vn 0.2931 -0.4002 -0.8683
vn 0.9255 -0.3787 0.0107
vn 0.2847 -0.3712 0.8838
vn -0.7436 -0.3880 0.5445
vn -0.1846 0.9402 -0.2862
vn 0.1932 0.9447 -0.2651
vn 0.2897 0.9518 0.1007
vn -0.0284 0.9517 0.3056
vn -0.3215 0.9446 0.0664
vn -0.0959 0.9944 0.0447
vn -0.1920 0.9747 0.1143
vn -0.1871 0.9491 0.2532
vn 0.0211 0.9963 0.0833
vn 0.0574 0.9788 0.1966
vn 0.1908 0.9530 0.2355
vn 0.0939 0.9955 -0.0160
vn 0.2128 0.9770 -0.0151
vn 0.2908 0.9480 -0.1294
vn 0.0220 0.9930 -0.1160
vn 0.0594 0.9718 -0.2283
vn -0.0253 0.9411 -0.3372
vn -0.0953 0.9924 -0.0785
vn -0.1907 0.9704 -0.1483
vn -0.3207 0.9418 -0.1007
vn -0.6227 0.7560 0.2018
vn -0.6906 0.5376 0.4837
vn -0.4069 0.7633 0.5018
vn 0.0057 0.7701 0.6379
vn 0.2510 0.5531 0.7944
vn 0.3577 0.7721 0.5253
vn 0.6148 0.7690 0.1750
vn 0.8376 0.5462 -0.0050
vn 0.6165 0.7629 -0.1945
vn 0.3628 0.7543 -0.5471
vn 0.2586 0.5265 -0.8099
vn 0.0119 0.7486 -0.6629
vn -0.4019 0.7463 -0.5306
vn -0.6859 0.5212 -0.5078
vn -0.6206 0.7488 -0.2326
vn -0.2931 0.4002 0.8683
vn -0.2586 -0.5265 0.8099
vn -0.0119 -0.7486 0.6629
vn 0.7385 0.4059 0.5384
vn 0.6859 -0.5212 0.5078
vn 0.6206 -0.7488 0.2326
vn 0.7436 0.3880 -0.5445
vn 0.6906 -0.5376 -0.4837
vn 0.4069 -0.7633 -0.5018
vn -0.2847 0.3712 -0.8838
vn -0.2510 -0.5531 -0.7944
vn -0.3577 -0.7721 -0.5253
vn -0.9255 0.3787 -0.0107
vn -0.8376 -0.5462 0.0050
vn -0.6165 -0.7629 0.1945
vn -0.1932 -0.9447 0.2651
vn -0.0594 -0.9718 0.2283
vn 0.0253 -0.9411 0.3372
vn 0.1846 -0.9402 0.2862
vn 0.1907 -0.9704 0.1483
vn 0.3207 -0.9418 0.1007
vn 0.3215 -0.9446 -0.0664
vn 0.1920 -0.9747 -0.1143
vn 0.1871 -0.9491 -0.2532
vn -0.2908 -0.9480 0.1294
vn -0.2128 -0.9770 0.0151
vn -0.0939 -0.9955 0.0160
vn 0.0284 -0.9517 -0.3056
vn -0.0574 -0.9788 -0.1966
vn -0.1908 -0.9530 -0.2355
vn 0.1297 -0.9674 -0.2173
vn -0.0935 -0.5518 -0.8287
vn 0.5941 -0.4954 -0.6337
vn -0.0363 0.3539 -0.9346
vn 0.0582 0.9312 -0.3598
vn 0.6027 0.5492 -0.5789
vn 0.2482 -0.9370 0.2460
vn 0.8161 -0.5756 0.0523
vn 0.5706 -0.3639 0.7362
vn 0.2718 0.9599 0.0683
vn 0.4879 0.5445 0.6822
vn 0.8796 0.4678 0.0865
vn -0.2456 -0.9587 -0.1437
vn -0.8145 -0.5801 0.0102
vn -0.5695 -0.4426 -0.6926
vn -0.2744 0.9463 -0.1712
vn -0.4893 0.4666 -0.7368
vn -0.8808 0.4534 -0.1363
vn -0.1271 -0.9388 0.3203
vn 0.0948 -0.4592 0.8833
vn -0.5929 -0.4259 0.6834
vn -0.0607 0.9644 0.2575
vn -0.6043 0.6066 0.5166
vn 0.0351 0.4524 0.8911
vn 0.2065 -0.9782 -0.0236
vn 0.7454 -0.6205 -0.2437
vn -0.0390 -0.0539 -0.9978
vn 0.6690 -0.0392 -0.7423
vn 0.2039 0.9705 -0.1288
vn 0.7438 0.5927 -0.3092
vn 0.6232 0.0430 0.7809
vn 0.9921 0.0081 0.1256
vn 0.0963 -0.9468 0.3071
vn 0.2988 -0.4736 0.8285
vn 0.0937 0.9746 0.2033
vn 0.2974 0.5608 0.7727
vn -0.6689 0.0392 0.7423
vn 0.0390 0.0539 0.9978
vn -0.2039 -0.9705 0.1288
vn -0.7437 -0.5927 0.3092
vn -0.2065 0.9782 0.0236
vn -0.7454 0.6205 0.2437
vn -0.6232 -0.0430 -0.7809
vn -0.9921 -0.0081 -0.1256
vn -0.0937 -0.9746 -0.2033
vn -0.2974 -0.5607 -0.7727
vn -0.0963 0.9468 -0.3071
vn -0.2987 0.4736 -0.8285
vn 0.0013 -0.9985 0.0539
vn 0.9373 -0.0175 -0.3480
vn -0.3484 -0.0510 -0.9359
vn -0.0013 0.9985 -0.0539
vn 0.3484 0.0510 0.9359
vn -0.9373 0.0175 0.3480
vn 0.1962 -0.9746 -0.1076
vn 0.3291 -0.6349 -0.6990
vn 0.7922 -0.5890 -0.1598
vn 0.2802 0.6139 -0.7380
vn 0.1689 0.9759 -0.1383
vn 0.8062 0.5319 -0.2591
vn 0.2509 -0.9599 0.1252
vn 0.8589 -0.4684 0.2072
vn 0.3714 -0.5891 0.7177
vn 0.1277 0.9870 0.0975
vn 0.3225 0.6597 0.6788
vn 0.7534 0.6480 0.1116
vn -0.1749 -0.9825 -0.0647
vn -0.8192 -0.5459 -0.1756
vn -0.3225 -0.6597 -0.6787
vn -0.2041 0.9660 -0.1584
vn -0.3714 0.5891 -0.7177
vn -0.8014 0.5790 -0.1499
vn -0.1198 -0.9784 0.1685
vn -0.2802 -0.6139 0.7380
vn -0.7442 -0.6380 0.1980
vn -0.2449 0.9664 0.0778
vn -0.8459 0.4824 0.2275
vn -0.3291 0.6349 0.6990
vn 0.7579 0.6509 -0.0437
vn 0.5736 0.0479 0.8177
vn 0.1012 -0.9895 -0.1031
vn 0.3072 -0.6791 -0.6667
vn 0.7320 -0.6715 -0.1155
vn 0.3875 0.6114 -0.6900
vn 0.2687 0.9572 -0.1074
vn 0.8663 0.4601 -0.1946
vn 0.1429 -0.9826 0.1184
vn 0.7917 -0.5624 0.2387
vn 0.2723 -0.6521 0.7075
vn 0.2164 0.9699 0.1115
vn 0.3526 0.6384 0.6842
vn 0.8018 0.5768 0.1563
vn -0.2638 -0.9610 -0.0833
vn -0.8558 -0.4682 -0.2201
vn -0.3526 -0.6384 -0.6842
vn -0.0949 0.9846 -0.1469
vn -0.2723 0.6520 -0.7076
vn -0.7245 0.6657 -0.1788
vn -0.2228 -0.9650 0.1384
vn -0.3875 -0.6114 0.6900
vn -0.8092 -0.5710 0.1380
vn -0.1478 0.9864 0.0723
vn -0.8022 0.5706 0.1759
vn -0.3072 0.6791 0.6667
vn 0.9742 -0.0645 -0.2163
vn 0.0114 0.2534 0.9673
vn 0.1732 0.8591 0.4816
vn -0.4548 0.7015 0.5487
vn -0.1447 0.7043 -0.6950
vn -0.4139 0.9078 -0.0677
vn 0.2024 0.9677 -0.1505
vn -0.4697 -0.1123 0.8757
vn -0.8545 0.3634 0.3711
vn -0.9212 -0.2767 0.2735
vn -0.5181 0.2813 -0.8078
vn -0.9444 -0.0272 -0.3276
vn -0.7878 0.5701 -0.2331
vn -0.2605 -0.6604 0.7043
vn -0.6906 -0.7221 0.0409
vn -0.0996 -0.9946 0.0291
vn -0.2176 -0.1857 -0.9582
vn -0.1862 -0.7906 -0.5833
vn -0.7093 -0.4518 -0.5412
vn 0.3500 -0.6335 0.6900
vn 0.4384 -0.8972 -0.0526
vn 0.8746 -0.4601 0.1532
vn 0.3415 -0.0514 -0.9385
vn 0.8130 -0.3275 -0.4814
vn 0.3295 -0.6858 -0.6490
vn 0.5180 -0.0688 0.8526
vn 0.9723 0.0800 0.2198
vn 0.6550 0.5882 0.4743
vn 0.3865 0.4987 -0.7758
vn 0.6723 0.7222 -0.1627
vn 0.8929 0.1915 -0.4075
vn -0.0000 1.0000 -0.0000
vn -0.0000 0.7433 0.6690
vn 0.4383 -0.8342 -0.3345
vn -0.0000 -0.9912 0.1327
vn -0.0000 -0.9575 -0.2886
vn -0.0349 0.2860 -0.9576
vn -0.0000 0.9364 0.3509
vn 0.0607 -0.9644 -0.2575
vn -0.0352 -0.4525 -0.8911
vn 0.6043 -0.6067 -0.5165
vn -0.0948 0.4592 -0.8833
vn 0.1271 0.9388 -0.3202
vn 0.5930 0.4259 -0.6834
vn 0.2744 -0.9462 0.1713
vn 0.8808 -0.4535 0.1362
vn 0.4893 -0.4666 0.7368
vn 0.2456 0.9586 0.1437
vn 0.5696 0.4426 0.6926
vn 0.8144 0.5802 -0.0101
vn -0.2718 -0.9599 -0.0683
vn -0.8796 -0.4679 -0.0865
vn -0.4880 -0.5445 -0.6822
vn -0.2482 0.9369 -0.2461
vn -0.5706 0.3639 -0.7362
vn -0.8160 0.5757 -0.0522
vn -0.0582 -0.9312 0.3598
vn 0.0363 -0.3540 0.9345
vn -0.6027 -0.5491 0.5790
vn -0.1297 0.9674 0.2174
vn -0.5941 0.4954 0.6337
vn 0.0935 0.5518 0.8287
vn -0.0391 -0.0539 -0.9978
vn 0.6690 -0.0392 -0.7422
vn 0.7438 0.5926 -0.3092
vn 0.9921 0.0081 0.1255
vn 0.2988 -0.4735 0.8286
vn -0.6690 0.0392 0.7422
vn -0.7438 -0.5926 0.3092
vn -0.2974 -0.5608 -0.7727
vn -0.2988 0.4734 -0.8286
vt 0.128500 0.746500
vt 0.126479 0.750000
vt 0.125000 0.746500
vt 0.378500 1.000000
vt 0.375000 0.996500
vt 0.378500 0.996500
vt 0.378500 0.003500
vt 0.375000 0.001479
vt 0.378500 0.000000
vt 0.625000 0.996500
vt 0.621500 1.000000
vt 0.621500 0.996500
vt 0.871500 0.746500
vt 0.875000 0.748521
vt 0.871500 0.750000
vt 0.621500 0.003500
vt 0.623521 0.000000
vt 0.625000 0.003500
vt 0.128500 0.503500
vt 0.125000 0.501479
vt 0.128500 0.500000
vt 0.378500 0.246500
vt 0.375740 0.250740
vt 0.375000 0.246500
vt 0.375000 0.253500
vt 0.378500 0.250000
vt 0.378500 0.253500
vt 0.871500 0.503500
vt 0.873521 0.500000
vt 0.875000 0.503500
vt 0.621500 0.250000
vt 0.625000 0.253500
vt 0.621500 0.253500
vt 0.621500 0.246500
vt 0.624260 0.249260
vt 0.371500 0.746500
vt 0.375493 0.750000
vt 0.373250 0.751750
vt 0.378500 0.746500
vt 0.375000 0.746500
vt 0.378500 0.750000
vt 0.378500 0.753500
vt 0.628500 0.746500
vt 0.625000 0.749507
vt 0.625000 0.746500
vt 0.621500 0.750000
vt 0.626750 0.751750
vt 0.621500 0.753500
vt 0.621500 0.746500
vt 0.371500 0.503500
vt 0.375000 0.500493
vt 0.375000 0.503500
vt 0.378500 0.500000
vt 0.373250 0.498250
vt 0.378500 0.496500
vt 0.378500 0.503500
vt 0.628500 0.503500
vt 0.624507 0.500000
vt 0.626750 0.498250
vt 0.621500 0.503500
vt 0.625000 0.503500
vt 0.621500 0.500000
vt 0.621500 0.496500
vt 0.125000 0.503500
vt 0.375000 0.003500
vt 0.875000 0.746500
vt 0.625000 0.246500
vt 0.871500 0.500000
vt 0.128500 0.750000
vt 0.871500 0.503500
vt 0.621500 0.253500
vt 0.621500 0.000000
vt 0.181819 0.000000
vt 0.227273 0.078731
vt 0.136365 0.078731
vt 0.272728 0.157461
vt 0.318182 0.078731
vt 0.363637 0.157461
vt 0.909091 0.000000
vt 0.954545 0.078731
vt 0.863636 0.078731
vt 0.727273 0.000000
vt 0.772727 0.078731
vt 0.681818 0.078731
vt 0.545455 0.000000
vt 0.590909 0.078731
vt 0.500000 0.078731
vt 0.318182 0.236191
vt 0.090910 0.157461
vt 0.181819 0.157461
vt 0.136365 0.236191
vt 0.818182 0.157461
vt 0.909091 0.157461
vt 0.863636 0.236191
vt 0.636364 0.157461
vt 0.727273 0.157461
vt 0.681818 0.236191
vt 0.454546 0.157461
vt 0.545455 0.157461
vt 0.500000 0.236191
vt 0.227273 0.236191
vt 0.045455 0.236191
vt 0.772727 0.236191
vt 0.590909 0.236191
vt 0.409092 0.236191
vt 0.181819 0.314921
vt 0.272728 0.314921
vt 0.227273 0.393651
vt 0.000000 0.314921
vt 0.090910 0.314921
vt 0.045455 0.393651
vt 0.727273 0.314921
vt 0.818182 0.314921
vt 0.772727 0.393651
vt 0.545455 0.314921
vt 0.636364 0.314921
vt 0.590909 0.393651
vt 0.363637 0.314921
vt 0.454546 0.314921
vt 0.409092 0.393651
vt 0.500000 0.393651
vt 0.454546 0.472382
vt 0.681818 0.393651
vt 0.636364 0.472382
vt 0.863636 0.393651
vt 0.818182 0.472382
vt 0.909091 0.314921
vt 0.136365 0.393651
vt 0.090910 0.472382
vt 0.318182 0.393651
vt 0.272728 0.472382
vt 0.954545 0.236191
vt 1.000000 0.157461
vt 0.409092 0.078731
vt 0.363637 0.000000
vt 0.750000 0.392185
vt 0.729706 0.475256
vt 0.810162 0.446290
vt 0.057842 0.524881
vt 0.000000 0.511398
vt 0.052715 0.500000
vt 0.942158 0.524881
vt 0.982218 0.500000
vt 1.000000 0.525456
vt 0.250000 0.308345
vt 0.283573 0.465608
vt 0.141122 0.410895
vt 0.900000 0.975119
vt 1.000000 0.990366
vt 0.904599 1.000000
vt 0.100000 0.975119
vt 0.029417 1.000000
vt 0.000000 0.975694
vt 0.885227 0.293938
vt 0.957960 0.338908
vt 0.955274 0.253439
vt 0.857842 0.524881
vt 0.791109 0.505699
vt 0.852715 0.500000
vt 0.742158 0.524881
vt 0.800000 0.525456
vt 0.305489 0.268029
vt 0.465430 0.284697
vt 0.369375 0.403269
vt 0.700000 0.975119
vt 0.814709 0.995183
vt 0.704599 1.000000
vt 0.900000 0.975119
vt 0.800000 0.975694
vt 0.833574 0.134970
vt 0.898820 0.079692
vt 0.816704 0.055836
vt 0.657842 0.524881
vt 0.591109 0.505699
vt 0.652715 0.500000
vt 0.542158 0.524881
vt 0.600000 0.525456
vt 0.284294 0.202798
vt 0.349570 0.055836
vt 0.432656 0.183830
vt 0.500000 0.975119
vt 0.614709 0.995183
vt 0.504599 1.000000
vt 0.700000 0.975119
vt 0.600000 0.975694
vt 0.666425 0.134970
vt 0.634016 0.055836
vt 0.585952 0.126561
vt 0.457842 0.524881
vt 0.391109 0.505699
vt 0.452715 0.500000
vt 0.342158 0.524881
vt 0.400000 0.525456
vt 0.215706 0.202798
vt 0.096108 0.095304
vt 0.243513 0.055836
vt 0.300000 0.975119
vt 0.414709 0.995183
vt 0.304599 1.000000
vt 0.500000 0.975119
vt 0.400000 0.975693
vt 0.614774 0.293938
vt 0.529498 0.300308
vt 0.581909 0.367875
vt 0.257842 0.524881
vt 0.191109 0.505699
vt 0.252715 0.500000
vt 0.142158 0.524881
vt 0.200000 0.525456
vt 0.194511 0.268029
vt 0.055320 0.348556
vt 0.063334 0.196170
vt 0.100000 0.975119
vt 0.214709 0.995183
vt 0.104599 1.000000
vt 0.300000 0.975119
vt 0.200000 0.975694
vt 0.947285 0.500000
vt 0.918091 0.367875
vt 0.895401 1.000000
vt 0.358878 0.410895
vt 0.000000 0.525456
vt 1.000000 0.975693
vt 0.747285 0.500000
vt 0.695401 1.000000
vt 0.547285 0.500000
vt 0.495401 1.000000
vt 0.347285 0.500000
vt 0.544726 0.253439
vt 0.295401 1.000000
vt 0.067344 0.183830
vt 0.147285 0.500000
vt 0.689838 0.446290
vt 0.095401 1.000000
vt 0.130625 0.403269
vt 0.128500 0.746500
vt 0.376479 1.000000
vt 0.625000 0.998521
vt 0.871500 0.746500
vt 0.128500 0.503500
vt 0.378500 0.253500
vt 0.371500 0.746500
vt 0.378500 0.746500
vt 0.625000 0.746500
vt 0.621500 0.746500
vt 0.371500 0.503500
vt 0.436666 0.196170
vt 0.914048 0.126561
vt 0.256487 0.055836
vt 0.683296 0.055836
s 0
usemtl bone
f 1/1/1 5/2/1 7/3/1
f 6/4/2 4/5/2 2/6/2
f 3/7/3 5/8/3 6/9/3
f 11/10/4 14/11/4 8/12/4
f 9/13/5 12/14/5 11/15/5
f 10/16/6 12/17/6 13/18/6
f 15/19/7 19/20/7 21/21/7
f 16/22/8 19/23/8 18/24/8
f 21/25/9 20/26/9 17/27/9
f 22/28/10 26/29/10 28/30/10
f 27/31/11 25/32/11 23/33/11
f 24/34/12 26/35/12 27/31/12
f 29/36/13 33/37/13 35/38/13
f 30/39/14 33/37/14 32/40/14
f 35/38/15 34/41/15 31/42/15
f 36/43/16 40/44/16 42/45/16
f 41/46/17 39/47/17 37/48/17
f 38/49/18 40/44/18 41/46/18
f 43/50/19 47/51/19 49/52/19
f 48/53/20 46/54/20 44/55/20
f 45/56/21 47/51/21 48/53/21
f 50/57/22 54/58/22 56/59/22
f 51/60/23 54/58/23 53/61/23
f 56/59/24 55/62/24 52/63/24
f 15/19/25 7/3/25 18/64/25
f 7/65/26 16/22/26 18/24/26
f 8/12/27 6/4/27 2/6/27
f 6/9/28 10/16/28 3/7/28
f 22/28/29 13/66/29 9/13/29
f 28/67/30 10/16/30 13/18/30
f 17/27/31 27/31/31 23/33/31
f 20/26/32 24/34/32 27/31/32
f 15/19/33 46/54/33 43/50/33
f 46/54/34 17/27/34 44/55/34
f 22/28/35 56/59/35 25/68/35
f 25/32/36 52/63/36 23/33/36
f 51/60/37 48/53/37 55/62/37
f 48/53/38 52/63/38 55/62/38
f 43/50/39 32/40/39 29/36/39
f 32/40/40 45/56/40 30/39/40
f 36/43/41 53/61/41 50/57/41
f 53/61/42 38/49/42 51/60/42
f 31/42/43 41/46/43 37/48/43
f 34/41/44 38/49/44 41/46/44
f 1/1/45 35/38/45 4/69/45
f 4/5/46 31/42/46 2/6/46
f 9/13/47 39/47/47 36/43/47
f 11/10/48 37/48/48 39/47/48
f 43/50/49 1/1/49 15/19/49
f 3/7/50 24/34/50 16/22/50
f 37/48/51 2/6/51 31/42/51
f 22/28/52 36/43/52 50/57/52
f 23/33/53 44/55/53 17/27/53
f 51/60/54 30/39/54 45/56/54
f 57/1/55 61/2/55 63/3/55
f 62/4/56 60/5/56 58/6/56
f 59/7/57 61/8/57 62/9/57
f 67/10/58 70/11/58 64/12/58
f 65/13/59 68/14/59 67/15/59
f 66/16/60 68/17/60 69/18/60
f 71/19/61 75/20/61 77/21/61
f 72/22/62 75/23/62 74/24/62
f 77/25/63 76/26/63 73/27/63
f 78/70/64 82/29/64 84/30/64
f 83/31/65 81/32/65 79/71/65
f 80/34/66 82/35/66 83/31/66
f 85/36/67 89/37/67 91/38/67
f 86/39/68 89/37/68 88/40/68
f 91/38/69 90/41/69 87/42/69
f 92/43/70 96/44/70 98/45/70
f 97/46/71 95/47/71 93/48/71
f 94/49/72 96/44/72 97/46/72
f 99/50/73 103/51/73 105/52/73
f 104/53/74 102/54/74 100/55/74
f 101/56/75 103/51/75 104/53/75
f 106/57/76 110/58/76 112/59/76
f 107/60/77 110/58/77 109/61/77
f 112/59/78 111/62/78 108/63/78
f 57/1/79 74/64/79 71/19/79
f 63/65/80 72/22/80 74/24/80
f 64/12/81 62/4/81 58/6/81
f 70/72/82 59/7/82 62/9/82
f 78/70/83 69/66/83 65/13/83
f 84/67/84 66/16/84 69/18/84
f 73/27/85 83/31/85 79/71/85
f 76/26/86 80/34/86 83/31/86
f 71/19/87 102/54/87 99/50/87
f 77/25/88 100/55/88 102/54/88
f 106/57/89 81/68/89 78/70/89
f 81/32/90 108/63/90 79/71/90
f 101/56/91 111/62/91 107/60/91
f 104/53/92 108/63/92 111/62/92
f 85/36/93 105/52/93 88/40/93
f 88/40/94 101/56/94 86/39/94
f 106/57/95 98/45/95 109/61/95
f 109/61/96 94/49/96 107/60/96
f 87/42/97 97/46/97 93/48/97
f 90/41/98 94/49/98 97/46/98
f 57/1/99 91/38/99 60/69/99
f 60/5/100 87/42/100 58/6/100
f 92/43/101 67/15/101 95/47/101
f 67/10/102 93/48/102 95/47/102
f 99/50/103 57/1/103 71/19/103
f 66/16/104 72/22/104 59/7/104
f 93/48/105 58/6/105 87/42/105
f 78/70/106 92/43/106 106/57/106
f 79/71/107 100/55/107 73/27/107
f 107/60/108 86/39/108 101/56/108
f 113/73/109 126/74/109 125/75/109
f 114/76/110 126/77/110 128/78/110
f 113/79/111 125/80/111 130/81/111
f 113/82/112 130/83/112 132/84/112
f 113/85/113 132/86/113 129/87/113
f 114/76/114 128/78/114 135/88/114
f 115/89/115 127/90/115 137/91/115
f 116/92/116 131/93/116 139/94/116
f 117/95/117 133/96/117 141/97/117
f 118/98/118 134/99/118 143/100/118
f 114/76/119 135/88/119 138/101/119
f 115/89/120 137/91/120 140/102/120
f 116/92/121 139/94/121 142/103/121
f 117/95/122 141/97/122 144/104/122
f 118/98/123 143/100/123 136/105/123
f 119/106/124 145/107/124 150/108/124
f 120/109/125 146/110/125 152/111/125
f 121/112/126 147/113/126 153/114/126
f 122/115/127 148/116/127 154/117/127
f 123/118/128 149/119/128 151/120/128
f 151/120/129 154/121/129 124/122/129
f 151/120/130 149/119/130 154/121/130
f 149/119/131 122/115/131 154/121/131
f 154/117/132 153/123/132 124/124/132
f 154/117/133 148/116/133 153/123/133
f 148/116/134 121/112/134 153/123/134
f 153/114/135 152/125/135 124/126/135
f 153/114/136 147/113/136 152/125/136
f 147/113/137 120/127/137 152/125/137
f 152/111/138 150/128/138 124/129/138
f 152/111/139 146/110/139 150/128/139
f 146/110/140 119/106/140 150/128/140
f 150/108/141 151/130/141 124/131/141
f 150/108/142 145/107/142 151/130/142
f 145/107/143 123/118/143 151/130/143
f 136/105/144 149/119/144 123/118/144
f 136/105/145 143/100/145 149/119/145
f 143/100/146 122/115/146 149/119/146
f 144/104/147 148/116/147 122/115/147
f 144/104/148 141/97/148 148/116/148
f 141/97/149 121/112/149 148/116/149
f 142/103/150 147/113/150 121/112/150
f 142/103/151 139/94/151 147/113/151
f 139/94/152 120/127/152 147/113/152
f 140/102/153 146/110/153 120/109/153
f 140/102/154 137/91/154 146/110/154
f 137/91/155 119/106/155 146/110/155
f 138/101/156 145/107/156 119/106/156
f 138/101/157 135/88/157 145/107/157
f 135/88/158 123/118/158 145/107/158
f 143/100/159 144/104/159 122/115/159
f 143/100/160 134/99/160 144/104/160
f 134/99/161 117/95/161 144/104/161
f 141/97/162 142/103/162 121/112/162
f 141/97/163 133/96/163 142/103/163
f 133/96/164 116/92/164 142/103/164
f 139/94/165 140/132/165 120/127/165
f 139/94/166 131/93/166 140/132/166
f 131/93/167 115/133/167 140/132/167
f 137/91/168 138/101/168 119/106/168
f 137/91/169 127/90/169 138/101/169
f 127/90/170 114/76/170 138/101/170
f 135/88/171 136/105/171 123/118/171
f 135/88/172 128/78/172 136/105/172
f 128/78/173 118/98/173 136/105/173
f 129/87/174 134/99/174 118/98/174
f 129/87/175 132/86/175 134/99/175
f 132/86/176 117/95/176 134/99/176
f 132/84/177 133/96/177 117/95/177
f 132/84/178 130/83/178 133/96/178
f 130/83/179 116/92/179 133/96/179
f 130/81/180 131/93/180 116/92/180
f 130/81/181 125/80/181 131/93/181
f 125/80/182 115/133/182 131/93/182
f 128/78/183 129/134/183 118/98/183
f 128/78/184 126/77/184 129/134/184
f 126/77/185 113/135/185 129/134/185
f 125/75/186 127/90/186 115/89/186
f 125/75/187 126/74/187 127/90/187
f 126/74/188 114/76/188 127/90/188
f 155/136/189 159/137/189 161/138/189
f 156/139/190 159/140/190 158/141/190
f 157/142/191 159/143/191 160/144/191
f 162/145/192 166/146/192 168/147/192
f 163/148/193 166/149/193 165/150/193
f 164/151/194 166/152/194 167/153/194
f 169/154/195 173/155/195 175/156/195
f 170/157/196 173/158/196 172/159/196
f 171/160/197 173/158/197 174/161/197
f 176/162/198 180/163/198 182/164/198
f 177/165/199 180/166/199 179/167/199
f 178/168/200 180/166/200 181/169/200
f 183/170/201 187/171/201 189/172/201
f 184/173/202 187/174/202 186/175/202
f 185/176/203 187/174/203 188/177/203
f 190/178/204 194/179/204 196/180/204
f 191/181/205 194/182/205 193/183/205
f 192/184/206 194/182/206 195/185/206
f 197/186/207 201/187/207 203/188/207
f 198/189/208 201/190/208 200/191/208
f 199/192/209 201/190/209 202/193/209
f 204/194/210 208/195/210 210/196/210
f 205/197/211 208/198/211 207/199/211
f 206/200/212 208/198/212 209/201/212
f 211/202/213 215/203/213 217/204/213
f 212/205/214 215/206/214 214/207/214
f 213/208/215 215/206/215 216/209/215
f 218/210/216 222/211/216 224/212/216
f 219/213/217 222/214/217 221/215/217
f 220/216/218 222/214/218 223/217/218
f 170/157/219 161/218/219 157/142/219
f 172/219/220 155/136/220 161/138/220
f 178/168/221 165/150/221 182/220/221
f 165/221/222 176/162/222 182/164/222
f 156/139/223 167/153/223 160/222/223
f 167/223/224 157/142/224 160/144/224
f 171/160/225 181/169/225 177/165/225
f 181/169/226 170/157/226 178/168/226
f 184/173/227 175/224/227 171/160/227
f 175/156/228 183/170/228 169/154/228
f 192/184/229 179/167/229 196/225/229
f 196/180/230 176/162/230 190/178/230
f 185/176/231 195/185/231 191/181/231
f 195/185/232 184/173/232 192/184/232
f 185/176/233 200/191/233 189/226/233
f 189/172/234 197/186/234 183/170/234
f 206/200/235 193/183/235 210/227/235
f 210/196/236 190/178/236 204/194/236
f 199/192/237 209/201/237 205/197/237
f 209/201/238 198/189/238 206/200/238
f 212/205/239 203/228/239 199/192/239
f 214/229/240 197/186/240 203/188/240
f 220/216/241 207/199/241 224/230/241
f 207/231/242 218/210/242 224/212/242
f 213/208/243 223/217/243 219/213/243
f 223/217/244 212/205/244 220/216/244
f 156/139/245 217/232/245 213/208/245
f 158/233/246 211/202/246 217/204/246
f 164/151/247 221/215/247 168/234/247
f 221/235/248 162/145/248 168/147/248
f 169/154/249 197/186/249 211/202/249
f 157/142/250 178/168/250 170/157/250
f 213/208/251 164/151/251 156/139/251
f 162/145/252 204/194/252 190/178/252
f 171/160/253 192/184/253 184/173/253
f 185/176/254 206/200/254 198/189/254
f 199/192/255 220/216/255 212/205/255
f 225/73/256 238/74/256 237/75/256
f 226/76/257 238/77/257 240/78/257
f 225/79/258 237/80/258 242/81/258
f 225/82/259 242/83/259 244/84/259
f 225/85/260 244/86/260 241/87/260
f 226/76/261 240/78/261 247/88/261
f 227/89/262 239/90/262 249/91/262
f 228/92/263 243/93/263 251/94/263
f 229/95/264 245/96/264 253/97/264
f 230/98/265 246/99/265 255/100/265
f 226/76/266 247/88/266 250/101/266
f 227/89/267 249/91/267 252/102/267
f 228/92/268 251/94/268 254/103/268
f 229/95/269 253/97/269 256/104/269
f 230/98/270 255/100/270 248/105/270
f 231/106/271 257/107/271 262/108/271
f 232/109/272 258/110/272 264/111/272
f 233/112/273 259/113/273 265/114/273
f 234/115/274 260/116/274 266/117/274
f 235/118/275 261/119/275 263/120/275
f 263/120/276 266/121/276 236/122/276
f 263/120/277 261/119/277 266/121/277
f 261/119/278 234/115/278 266/121/278
f 266/117/279 265/123/279 236/124/279
f 266/117/280 260/116/280 265/123/280
f 260/116/281 233/112/281 265/123/281
f 265/114/282 264/125/282 236/126/282
f 265/114/283 259/113/283 264/125/283
f 259/113/284 232/127/284 264/125/284
f 264/111/285 262/128/285 236/129/285
f 264/111/286 258/110/286 262/128/286
f 258/110/287 231/106/287 262/128/287
f 262/108/288 263/130/288 236/131/288
f 262/108/289 257/107/289 263/130/289
f 257/107/290 235/118/290 263/130/290
f 248/105/291 261/119/291 235/118/291
f 248/105/292 255/100/292 261/119/292
f 255/100/293 234/115/293 261/119/293
f 256/104/294 260/116/294 234/115/294
f 256/104/295 253/97/295 260/116/295
f 253/97/296 233/112/296 260/116/296
f 254/103/297 259/113/297 233/112/297
f 254/103/298 251/94/298 259/113/298
f 251/94/299 232/127/299 259/113/299
f 252/102/300 258/110/300 232/109/300
f 252/102/301 249/91/301 258/110/301
f 249/91/302 231/106/302 258/110/302
f 250/101/303 257/107/303 231/106/303
f 250/101/304 247/88/304 257/107/304
f 247/88/305 235/118/305 257/107/305
f 255/100/306 256/104/306 234/115/306
f 255/100/307 246/99/307 256/104/307
f 246/99/308 229/95/308 256/104/308
f 253/97/309 254/103/309 233/112/309
f 253/97/310 245/96/310 254/103/310
f 245/96/311 228/92/311 254/103/311
f 251/94/312 252/132/312 232/127/312
f 251/94/313 243/93/313 252/132/313
f 243/93/314 227/133/314 252/132/314
f 249/91/315 250/101/315 231/106/315
f 249/91/316 239/90/316 250/101/316
f 239/90/317 226/76/317 250/101/317
f 247/88/318 248/105/318 235/118/318
f 247/88/319 240/78/319 248/105/319
f 240/78/320 230/98/320 248/105/320
f 241/87/321 246/99/321 230/98/321
f 241/87/322 244/86/322 246/99/322
f 244/86/323 229/95/323 246/99/323
f 244/84/324 245/96/324 229/95/324
f 244/84/325 242/83/325 245/96/325
f 242/83/326 228/92/326 245/96/326
f 242/81/327 243/93/327 228/92/327
f 242/81/328 237/80/328 243/93/328
f 237/80/329 227/133/329 243/93/329
f 240/78/330 241/134/330 230/98/330
f 240/78/331 238/77/331 241/134/331
f 238/77/332 225/135/332 241/134/332
f 237/75/333 239/90/333 227/89/333
f 237/75/334 238/74/334 239/90/334
f 238/74/335 226/76/335 239/90/335
f 267/236/336 271/2/336 273/3/336
f 268/6/337 271/237/337 270/5/337
f 269/7/338 271/8/338 272/9/338
f 274/12/339 278/238/339 280/11/339
f 275/239/340 278/14/340 277/15/340
f 276/16/341 278/17/341 279/18/341
f 281/240/342 285/20/342 287/21/342
f 282/22/343 285/23/343 284/24/343
f 283/241/344 285/23/344 286/26/344
f 288/70/345 292/29/345 294/30/345
f 289/71/346 292/35/346 291/32/346
f 290/34/347 292/35/347 293/31/347
f 295/242/348 299/37/348 301/38/348
f 296/243/349 299/37/349 298/40/349
f 297/42/350 299/37/350 300/41/350
f 302/43/351 306/44/351 308/244/351
f 303/48/352 306/44/352 305/47/352
f 304/245/353 306/44/353 307/46/353
f 309/246/354 313/51/354 315/52/354
f 310/55/355 313/51/355 312/54/355
f 311/56/356 313/51/356 314/53/356
f 316/57/357 320/58/357 322/59/357
f 317/60/358 320/58/358 319/61/358
f 318/63/359 320/58/359 321/62/359
f 281/240/360 273/3/360 284/64/360
f 273/65/361 282/22/361 284/24/361
f 274/12/362 272/4/362 268/6/362
f 280/72/363 269/7/363 272/9/363
f 275/239/364 294/30/364 279/66/364
f 279/18/365 290/34/365 276/16/365
f 283/241/366 293/31/366 289/71/366
f 293/31/367 282/22/367 290/34/367
f 281/240/368 312/54/368 309/246/368
f 287/25/369 310/55/369 312/54/369
f 288/70/370 322/59/370 291/68/370
f 291/32/371 318/63/371 289/71/371
f 311/56/372 321/62/372 317/60/372
f 314/53/373 318/63/373 321/62/373
f 309/246/374 298/40/374 295/242/374
f 315/52/375 296/243/375 298/40/375
f 302/43/376 319/61/376 316/57/376
f 319/61/377 304/245/377 317/60/377
f 297/42/378 307/46/378 303/48/378
f 300/41/379 304/245/379 307/46/379
f 267/236/380 301/38/380 270/69/380
f 270/5/381 297/42/381 268/6/381
f 275/239/382 305/47/382 302/43/382
f 277/10/383 303/48/383 305/47/383
f 309/246/384 267/236/384 281/240/384
f 269/7/385 290/34/385 282/22/385
f 303/48/386 268/6/386 297/42/386
f 288/70/387 302/43/387 316/57/387
f 283/241/388 318/63/388 310/55/388
f 317/60/389 296/243/389 311/56/389
f 1/1/390 4/69/390 5/2/390
f 6/4/391 5/237/391 4/5/391
f 3/7/392 7/65/392 5/8/392
f 11/10/393 12/238/393 14/11/393
f 9/13/394 13/66/394 12/14/394
f 10/16/395 14/72/395 12/17/395
f 15/19/396 18/64/396 19/20/396
f 16/22/397 20/26/397 19/23/397
f 21/25/398 19/23/398 20/26/398
f 22/28/399 25/68/399 26/29/399
f 27/31/400 26/35/400 25/32/400
f 24/34/401 28/67/401 26/35/401
f 29/36/402 32/40/402 33/37/402
f 30/39/403 34/41/403 33/37/403
f 35/38/404 33/37/404 34/41/404
f 36/43/405 39/47/405 40/44/405
f 41/46/406 40/44/406 39/47/406
f 38/49/407 42/45/407 40/44/407
f 43/50/408 46/54/408 47/51/408
f 48/53/409 47/51/409 46/54/409
f 45/56/410 49/52/410 47/51/410
f 50/57/411 53/61/411 54/58/411
f 51/60/412 55/62/412 54/58/412
f 56/59/413 54/58/413 55/62/413
f 15/19/25 1/1/25 7/3/25
f 7/65/26 3/7/26 16/22/26
f 8/12/27 14/11/27 6/4/27
f 6/9/28 14/72/28 10/16/28
f 22/28/29 28/30/29 13/66/29
f 28/67/414 24/34/414 10/16/414
f 17/27/415 20/26/415 27/31/415
f 20/26/32 16/22/32 24/34/32
f 15/19/33 21/21/33 46/54/33
f 46/54/34 21/25/34 17/27/34
f 22/28/35 50/57/35 56/59/35
f 25/32/36 56/59/36 52/63/36
f 51/60/37 45/56/37 48/53/37
f 48/53/38 44/55/38 52/63/38
f 43/50/39 49/52/39 32/40/39
f 32/40/40 49/52/40 45/56/40
f 36/43/41 42/45/41 53/61/41
f 53/61/42 42/45/42 38/49/42
f 31/42/43 34/41/43 41/46/43
f 34/41/44 30/39/44 38/49/44
f 1/1/45 29/36/45 35/38/45
f 4/5/46 35/38/46 31/42/46
f 9/13/47 11/15/47 39/47/47
f 11/10/48 8/12/48 37/48/48
f 43/50/49 29/36/49 1/1/49
f 3/7/50 10/16/50 24/34/50
f 37/48/51 8/12/51 2/6/51
f 22/28/52 9/13/52 36/43/52
f 23/33/53 52/63/53 44/55/53
f 51/60/54 38/49/54 30/39/54
f 57/1/416 60/69/416 61/2/416
f 62/4/417 61/237/417 60/5/417
f 59/7/418 63/65/418 61/8/418
f 67/10/419 68/238/419 70/11/419
f 65/13/420 69/66/420 68/14/420
f 66/16/421 70/72/421 68/17/421
f 71/19/422 74/64/422 75/20/422
f 72/22/423 76/26/423 75/23/423
f 77/25/424 75/23/424 76/26/424
f 78/70/425 81/68/425 82/29/425
f 83/31/426 82/35/426 81/32/426
f 80/34/427 84/67/427 82/35/427
f 85/36/428 88/40/428 89/37/428
f 86/39/429 90/41/429 89/37/429
f 91/38/430 89/37/430 90/41/430
f 92/43/431 95/47/431 96/44/431
f 97/46/432 96/44/432 95/47/432
f 94/49/433 98/45/433 96/44/433
f 99/50/434 102/54/434 103/51/434
f 104/53/435 103/51/435 102/54/435
f 101/56/436 105/52/436 103/51/436
f 106/57/437 109/61/437 110/58/437
f 107/60/438 111/62/438 110/58/438
f 112/59/439 110/58/439 111/62/439
f 57/1/79 63/3/79 74/64/79
f 63/65/80 59/7/80 72/22/80
f 64/12/81 70/11/81 62/4/81
f 70/72/440 66/16/440 59/7/440
f 78/70/83 84/30/83 69/66/83
f 84/67/84 80/34/84 66/16/84
f 73/27/85 76/26/85 83/31/85
f 76/26/86 72/22/86 80/34/86
f 71/19/87 77/21/87 102/54/87
f 77/25/88 73/27/88 100/55/88
f 106/57/89 112/59/89 81/68/89
f 81/32/90 112/59/90 108/63/90
f 101/56/91 104/53/91 111/62/91
f 104/53/92 100/55/92 108/63/92
f 85/36/93 99/50/93 105/52/93
f 88/40/94 105/52/94 101/56/94
f 106/57/95 92/43/95 98/45/95
f 109/61/96 98/45/96 94/49/96
f 87/42/97 90/41/97 97/46/97
f 90/41/98 86/39/98 94/49/98
f 57/1/99 85/36/99 91/38/99
f 60/5/100 91/38/100 87/42/100
f 92/43/101 65/13/101 67/15/101
f 67/10/102 64/12/102 93/48/102
f 99/50/103 85/36/103 57/1/103
f 66/16/104 80/34/104 72/22/104
f 93/48/105 64/12/105 58/6/105
f 78/70/106 65/13/106 92/43/106
f 79/71/107 108/63/107 100/55/107
f 107/60/108 94/49/108 86/39/108
f 155/136/441 158/233/441 159/137/441
f 156/139/442 160/222/442 159/140/442
f 157/142/443 161/218/443 159/143/443
f 162/145/444 165/221/444 166/146/444
f 163/148/445 167/223/445 166/149/445
f 164/151/446 168/234/446 166/152/446
f 169/154/447 172/219/447 173/155/447
f 170/157/448 174/161/448 173/158/448
f 171/160/449 175/224/449 173/158/449
f 176/162/450 179/247/450 180/163/450
f 177/165/451 181/169/451 180/166/451
f 178/168/452 182/220/452 180/166/452
f 183/170/453 186/248/453 187/171/453
f 184/173/454 188/177/454 187/174/454
f 185/176/455 189/226/455 187/174/455
f 190/178/456 193/249/456 194/179/456
f 191/181/457 195/185/457 194/182/457
f 192/184/458 196/225/458 194/182/458
f 197/186/459 200/250/459 201/187/459
f 198/189/460 202/193/460 201/190/460
f 199/192/461 203/228/461 201/190/461
f 204/194/462 207/231/462 208/195/462
f 205/197/463 209/201/463 208/198/463
f 206/200/464 210/227/464 208/198/464
f 211/202/465 214/229/465 215/203/465
f 212/205/466 216/209/466 215/206/466
f 213/208/467 217/232/467 215/206/467
f 218/210/468 221/235/468 222/211/468
f 219/213/469 223/217/469 222/214/469
f 220/216/470 224/230/470 222/214/470
f 170/157/219 172/159/219 161/218/219
f 172/219/220 169/154/220 155/136/220
f 178/168/471 163/148/471 165/150/471
f 165/221/222 162/145/222 176/162/222
f 156/139/223 164/151/223 167/153/223
f 167/223/224 163/148/224 157/142/224
f 171/160/225 174/161/225 181/169/225
f 181/169/226 174/161/226 170/157/226
f 184/173/227 186/175/227 175/224/227
f 175/156/228 186/248/228 183/170/228
f 192/184/471 177/165/471 179/167/471
f 196/180/230 179/247/230 176/162/230
f 185/176/231 188/177/231 195/185/231
f 195/185/232 188/177/232 184/173/232
f 185/176/233 198/189/233 200/191/233
f 189/172/234 200/250/234 197/186/234
f 206/200/472 191/181/472 193/183/472
f 210/196/236 193/249/236 190/178/236
f 199/192/237 202/193/237 209/201/237
f 209/201/473 202/193/473 198/189/473
f 212/205/239 214/207/239 203/228/239
f 214/229/240 211/202/240 197/186/240
f 220/216/471 205/197/471 207/199/471
f 207/231/242 204/194/242 218/210/242
f 213/208/243 216/209/243 223/217/243
f 223/217/244 216/209/244 212/205/244
f 156/139/245 158/141/245 217/232/245
f 158/233/246 155/136/246 211/202/246
f 164/151/474 219/213/474 221/215/474
f 221/235/248 218/210/248 162/145/248
f 211/202/249 155/136/249 169/154/249
f 169/154/249 183/170/249 197/186/249
f 157/142/471 163/148/471 178/168/471
f 213/208/475 219/213/475 164/151/475
f 190/178/476 176/162/476 162/145/476
f 162/145/252 218/210/252 204/194/252
f 171/160/471 177/165/471 192/184/471
f 185/176/477 191/181/477 206/200/477
f 199/192/471 205/197/471 220/216/471
f 267/236/478 270/69/478 271/2/478
f 268/6/479 272/4/479 271/237/479
f 269/7/480 273/65/480 271/8/480
f 274/12/481 277/10/481 278/238/481
f 275/239/482 279/66/482 278/14/482
f 276/16/483 280/72/483 278/17/483
f 281/240/484 284/64/484 285/20/484
f 282/22/485 286/26/485 285/23/485
f 283/241/486 287/25/486 285/23/486
f 288/70/487 291/68/487 292/29/487
f 289/71/488 293/31/488 292/35/488
f 290/34/489 294/67/489 292/35/489
f 295/242/490 298/40/490 299/37/490
f 296/243/491 300/41/491 299/37/491
f 297/42/492 301/38/492 299/37/492
f 302/43/493 305/47/493 306/44/493
f 303/48/494 307/46/494 306/44/494
f 304/245/495 308/244/495 306/44/495
f 309/246/496 312/54/496 313/51/496
f 310/55/497 314/53/497 313/51/497
f 311/56/498 315/52/498 313/51/498
f 316/57/499 319/61/499 320/58/499
f 317/60/500 321/62/500 320/58/500
f 318/63/501 322/59/501 320/58/501
f 281/240/360 267/236/360 273/3/360
f 273/65/361 269/7/361 282/22/361
f 274/12/502 280/11/502 272/4/502
f 280/72/503 276/16/503 269/7/503
f 275/239/364 288/70/364 294/30/364
f 279/18/504 294/67/504 290/34/504
f 283/241/366 286/26/366 293/31/366
f 293/31/505 286/26/505 282/22/505
f 281/240/368 287/21/368 312/54/368
f 287/25/506 283/241/506 310/55/506
f 288/70/370 316/57/370 322/59/370
f 291/32/371 322/59/371 318/63/371
f 311/56/507 314/53/507 321/62/507
f 314/53/373 310/55/373 318/63/373
f 309/246/374 315/52/374 298/40/374
f 315/52/508 311/56/508 296/243/508
f 302/43/376 308/244/376 319/61/376
f 319/61/377 308/244/377 304/245/377
f 297/42/378 300/41/378 307/46/378
f 300/41/379 296/243/379 304/245/379
f 267/236/380 295/242/380 301/38/380
f 270/5/509 301/38/509 297/42/509
f 275/239/382 277/15/382 305/47/382
f 277/10/510 274/12/510 303/48/510
f 309/246/384 295/242/384 267/236/384
f 269/7/385 276/16/385 290/34/385
f 303/48/386 274/12/386 268/6/386
f 288/70/387 275/239/387 302/43/387
f 283/241/388 289/71/388 318/63/388
f 317/60/389 304/245/389 296/243/389
