# Blender 4.5.10 LTS
# www.blender.org
mtllib grove_market_frame.mtl
o grove_market_frame
v 1.056711 0.059526 -0.034809
v 1.046800 0.091540 -0.038102
v 1.048926 0.092271 -0.035870
v 1.053814 0.068874 -0.036701
v 1.053760 0.073428 -0.036551
v 1.048309 0.092028 -0.037451
v 1.055318 0.069391 -0.035122
v 0.357711 2.319039 -0.111324
v 0.347771 2.351191 -0.110139
v 0.359836 2.319770 -0.109092
v 0.350688 2.341745 -0.111414
v 0.353210 2.337973 -0.110990
v 0.352191 2.342262 -0.109835
v 0.359220 2.319527 -0.110673
v 1.055721 0.064330 0.120634
v 1.047936 0.097075 0.119573
v 1.045782 0.096482 0.121818
v 1.054327 0.074194 0.120320
v 1.052754 0.078312 0.121477
v 1.047299 0.096930 0.121158
v 1.052804 0.073775 0.121908
v 0.346781 2.355995 0.045303
v 0.356692 2.323980 0.048597
v 0.358846 2.324573 0.046351
v 0.349678 2.346646 0.047195
v 0.352203 2.342856 0.047038
v 0.358209 2.324428 0.047936
v 0.351201 2.347065 0.045607
v 0.908135 0.013579 -0.034335
v 0.896069 0.045000 -0.035383
v 0.898224 0.045593 -0.037629
v 0.903714 0.022508 -0.034639
v 0.902712 0.026717 -0.036069
v 0.896706 0.045145 -0.036968
v 0.905238 0.022927 -0.036227
v 0.199194 2.305243 -0.109666
v 0.209134 2.273091 -0.110850
v 0.206979 2.272499 -0.108604
v 0.202111 2.295798 -0.110940
v 0.202162 2.291262 -0.110509
v 0.207616 2.272644 -0.110190
v 0.200588 2.295379 -0.109352
v 0.907144 0.018382 0.121108
v 0.897205 0.050534 0.122292
v 0.895079 0.049803 0.120060
v 0.904227 0.027828 0.122382
v 0.901706 0.031600 0.121958
v 0.895696 0.050046 0.121641
v 0.902724 0.027311 0.120804
v 0.198204 2.310047 0.045777
v 0.205989 2.277302 0.046838
v 0.208115 2.278033 0.049070
v 0.199598 2.300182 0.046090
v 0.201155 2.296145 0.047519
v 0.206606 2.277545 0.048419
v 0.201101 2.300699 0.047669
v -0.931807 0.010739 -0.056593
v -0.921180 0.042549 -0.059620
v -0.919016 0.041879 -0.057406
v -0.928711 0.020039 -0.058407
v -0.926096 0.023766 -0.058233
v -0.919666 0.042058 -0.058982
v -0.927181 0.019565 -0.056842
v -0.180540 2.253978 -0.114290
v -0.169832 2.285872 -0.112838
v -0.178376 2.253308 -0.112075
v -0.172985 2.276513 -0.114191
v -0.173138 2.271975 -0.113812
v -0.171455 2.276040 -0.112625
v -0.179027 2.253487 -0.113652
v -0.929000 0.013642 0.098874
v -0.916209 0.044782 0.098062
v -0.918292 0.045536 0.100326
v -0.924374 0.022468 0.098626
v -0.923242 0.026718 0.099820
v -0.916802 0.045020 0.099653
v -0.925847 0.023001 0.100227
v -0.167025 2.288775 0.042630
v -0.177652 2.256965 0.045656
v -0.175569 2.256212 0.043392
v -0.170121 2.279476 0.044444
v -0.170284 2.274926 0.044241
v -0.176162 2.256450 0.044983
v -0.168648 2.278943 0.042843
v -1.079254 0.060164 -0.054854
v -1.070710 0.092728 -0.055616
v -1.068627 0.091974 -0.057881
v -1.077631 0.069997 -0.055067
v -1.075995 0.074013 -0.056465
v -1.070117 0.092490 -0.057207
v -1.076158 0.069464 -0.056668
v -0.317279 2.335297 -0.111099
v -0.327987 2.303404 -0.112550
v -0.330070 2.304157 -0.110286
v -0.320432 2.325938 -0.112451
v -0.323037 2.322222 -0.112044
v -0.329477 2.303919 -0.111877
v -0.321905 2.326471 -0.110850
v -1.076447 0.063067 0.100614
v -1.065739 0.094961 0.102065
v -1.067903 0.095631 0.099851
v -1.073294 0.072426 0.101966
v -1.073141 0.076965 0.101588
v -1.067252 0.095452 0.101427
v -1.074824 0.072900 0.100401
v -0.314472 2.338200 0.044369
v -0.327263 2.307061 0.045181
v -0.325099 2.306390 0.047396
v -0.319098 2.329375 0.044617
v -0.320183 2.325173 0.046009
v -0.326613 2.306881 0.046757
v -0.317568 2.328901 0.046183
v 0.870487 0.030806 0.523864
v 0.864213 0.062427 0.522671
v 0.866045 0.062747 0.524726
v 0.868685 0.040095 0.522704
v 0.868957 0.044403 0.523114
v 0.865545 0.062680 0.523314
v 0.869981 0.040321 0.524158
v 0.422563 2.253327 0.575697
v 0.416115 2.284818 0.578418
v 0.424396 2.253647 0.577752
v 0.418040 2.275621 0.576810
v 0.419962 2.271740 0.577021
v 0.419335 2.275847 0.578263
v 0.423895 2.253580 0.576339
v 0.864440 0.026299 0.659735
v 0.859998 0.058240 0.660597
v 0.857992 0.057790 0.662456
v 0.863934 0.035813 0.660028
v 0.862810 0.039821 0.661245
v 0.859375 0.058081 0.661952
v 0.862516 0.035496 0.661343
v 0.410068 2.280311 0.714288
v 0.416342 2.248690 0.715482
v 0.418349 2.249139 0.713623
v 0.411870 2.271022 0.715448
v 0.413815 2.267158 0.715152
v 0.417725 2.248981 0.714978
v 0.413289 2.271340 0.714134
v 0.737226 0.004108 0.517048
v 0.728945 0.035280 0.517714
v 0.730952 0.035729 0.515855
v 0.734006 0.013079 0.517202
v 0.733479 0.017261 0.516184
v 0.729569 0.035438 0.516359
v 0.735424 0.013397 0.515888
v 0.282854 2.258120 0.571601
v 0.289302 2.226629 0.568880
v 0.287296 2.226179 0.570739
v 0.284779 2.248923 0.569994
v 0.284485 2.244598 0.570092
v 0.287920 2.226338 0.569384
v 0.283360 2.248605 0.571308
v 0.731179 -0.000399 0.652919
v 0.724731 0.031092 0.655640
v 0.722899 0.030772 0.653584
v 0.729254 0.008797 0.654526
v 0.727332 0.012678 0.654315
v 0.723399 0.030839 0.654997
v 0.727959 0.008571 0.653073
v 0.276807 2.253613 0.707472
v 0.281249 2.221672 0.706610
v 0.283081 2.221992 0.708665
v 0.277313 2.244098 0.707179
v 0.278337 2.240016 0.708222
v 0.281750 2.221739 0.708023
v 0.278609 2.244324 0.708632
v -0.809806 0.017509 0.575232
v -0.801479 0.048568 0.572638
v -0.799586 0.048101 0.574608
v -0.807367 0.026589 0.573660
v -0.805193 0.030337 0.573838
v -0.800140 0.048221 0.573219
v -0.806028 0.026259 0.575053
v -0.223389 2.207683 0.528600
v -0.215063 2.238821 0.529925
v -0.221496 2.207216 0.530570
v -0.217501 2.229685 0.528725
v -0.217489 2.225362 0.529068
v -0.216163 2.229354 0.530118
v -0.222050 2.207336 0.529181
v -0.809820 0.020288 0.711283
v -0.799600 0.050880 0.710660
v -0.801494 0.051426 0.712609
v -0.806042 0.029038 0.711105
v -0.805208 0.033162 0.712153
v -0.800155 0.051056 0.712042
v -0.807381 0.029425 0.712483
v -0.215077 2.241600 0.665977
v -0.223404 2.210542 0.668571
v -0.221510 2.209995 0.666621
v -0.217516 2.232520 0.667548
v -0.217503 2.228187 0.667382
v -0.222065 2.210172 0.668004
v -0.216177 2.232133 0.666170
v -0.941257 0.052690 0.574499
v -0.934824 0.084295 0.573855
v -0.932931 0.083748 0.571905
v -0.940157 0.062156 0.574306
v -0.938831 0.066103 0.573094
v -0.934270 0.084118 0.572472
v -0.938818 0.061770 0.572928
v -0.346514 2.274002 0.529193
v -0.354841 2.242863 0.527867
v -0.356734 2.243410 0.529816
v -0.348953 2.264865 0.527993
v -0.351127 2.261127 0.528323
v -0.356179 2.243233 0.528434
v -0.350292 2.265252 0.529371
v -0.941272 0.055468 0.710551
v -0.932945 0.086607 0.711876
v -0.934838 0.087074 0.709906
v -0.938833 0.064605 0.711751
v -0.938846 0.068928 0.711408
v -0.934284 0.086953 0.711295
v -0.940172 0.064935 0.710358
v -0.346529 2.276781 0.665244
v -0.356748 2.246189 0.665868
v -0.354855 2.245722 0.667838
v -0.350306 2.268030 0.665422
v -0.351141 2.263952 0.666638
v -0.356194 2.246069 0.667257
v -0.348968 2.267700 0.666816
v 0.077750 2.246396 -0.078835
v 0.077905 2.247610 -0.090140
v 0.079625 2.248435 -0.078931
v 0.077894 2.246445 -0.086774
v 0.078983 2.246844 -0.085321
v 0.079219 2.247887 -0.086842
v 0.079110 2.247029 -0.078848
v 0.072114 2.383261 -0.099247
v 0.071793 2.385955 -0.088205
v 0.073834 2.384087 -0.088038
v 0.071986 2.384859 -0.096067
v 0.073096 2.384751 -0.094579
v 0.073202 2.385443 -0.088141
v 0.073429 2.383538 -0.095949
v 0.061249 2.297770 0.696890
v 0.063124 2.299809 0.696795
v 0.060928 2.300463 0.707932
v 0.062609 2.298403 0.696877
v 0.062207 2.299072 0.703306
v 0.062382 2.300307 0.704685
v 0.061057 2.298865 0.704752
v 0.055292 2.437329 0.687521
v 0.055138 2.436115 0.698825
v 0.057333 2.435461 0.687688
v 0.055149 2.437279 0.695460
v 0.056321 2.436980 0.694048
v 0.056592 2.435959 0.695578
v 0.056701 2.436817 0.687585
v -0.058176 2.240426 -0.081331
v -0.060217 2.242294 -0.081499
v -0.058021 2.241640 -0.092636
v -0.059584 2.240937 -0.081395
v -0.059204 2.240775 -0.087858
v -0.059475 2.241796 -0.089389
v -0.058032 2.240475 -0.089270
v -0.064133 2.379985 -0.090701
v -0.063812 2.377291 -0.101743
v -0.066007 2.377945 -0.090606
v -0.063940 2.378890 -0.098563
v -0.065091 2.378682 -0.097117
v -0.065266 2.377447 -0.098496
v -0.065493 2.379352 -0.090688
v -0.074677 2.291800 0.694394
v -0.074998 2.294494 0.705436
v -0.076718 2.293668 0.694227
v -0.074869 2.292895 0.702256
v -0.075979 2.293003 0.700769
v -0.076312 2.294216 0.702138
v -0.076085 2.292311 0.694330
v -0.080634 2.431359 0.685025
v -0.082508 2.429319 0.685120
v -0.080788 2.430145 0.696329
v -0.081994 2.430726 0.685038
v -0.081866 2.430911 0.691510
v -0.082103 2.429867 0.693031
v -0.080777 2.431310 0.692964
v 0.659827 1.672576 0.001267
v 0.659897 1.673902 -0.000201
v 0.678527 1.674299 0.002383
v 0.659885 1.672935 0.000260
v 0.670678 1.673313 0.001117
v 0.673108 1.674154 0.001048
v 0.673058 1.673216 0.002086
v 0.658528 1.770961 -0.005256
v 0.658419 1.772430 -0.003933
v 0.677158 1.771358 -0.002672
v 0.658488 1.771971 -0.004898
v 0.669287 1.771986 -0.004022
v 0.671661 1.772251 -0.003072
v 0.671739 1.771212 -0.004007
v 0.653592 1.677533 0.098141
v 0.672292 1.679257 0.099256
v 0.653483 1.679002 0.099463
v 0.666823 1.678173 0.098959
v 0.664340 1.678353 0.099601
v 0.666746 1.679212 0.099895
v 0.653523 1.677993 0.099106
v 0.652184 1.777388 0.092940
v 0.652114 1.776061 0.094408
v 0.670923 1.776316 0.094201
v 0.652126 1.777029 0.093948
v 0.662948 1.777026 0.094462
v 0.665377 1.776271 0.094840
v 0.665426 1.777209 0.093801
v -0.639841 1.649948 -0.081227
v -0.658580 1.651020 -0.082488
v -0.639771 1.651275 -0.082695
v -0.653083 1.650127 -0.082088
v -0.650605 1.650310 -0.082749
v -0.653033 1.651065 -0.083126
v -0.639783 1.650307 -0.082235
v -0.641249 1.749803 -0.086427
v -0.641139 1.748334 -0.087750
v -0.659949 1.748079 -0.087543
v -0.641180 1.749343 -0.087393
v -0.651996 1.748983 -0.087888
v -0.654403 1.748124 -0.088181
v -0.654480 1.749163 -0.087246
v -0.646076 1.654906 0.015646
v -0.646185 1.656375 0.016969
v -0.664815 1.655978 0.014385
v -0.646145 1.655366 0.016611
v -0.656944 1.655349 0.015735
v -0.659396 1.656124 0.015720
v -0.659318 1.655085 0.014785
v -0.647484 1.754760 0.010446
v -0.666184 1.753036 0.009330
v -0.647554 1.753434 0.011914
v -0.660715 1.754120 0.009627
v -0.658335 1.754023 0.010596
v -0.660765 1.753182 0.010665
v -0.647542 1.754401 0.011454
v 0.607579 1.480434 0.579958
v 0.607578 1.481924 0.578654
v 0.624893 1.482231 0.580505
v 0.607593 1.480909 0.578998
v 0.617601 1.481310 0.579453
v 0.619836 1.482180 0.579384
v 0.619836 1.481126 0.580306
v 0.605170 1.578879 0.585114
v 0.605101 1.580182 0.586603
v 0.622485 1.579186 0.586964
v 0.605135 1.579839 0.585589
v 0.615152 1.579877 0.586020
v 0.617379 1.580056 0.586897
v 0.617428 1.579135 0.585844
v 0.605193 1.473915 0.676910
v 0.622508 1.475713 0.677456
v 0.605124 1.475218 0.678399
v 0.617451 1.474608 0.677258
v 0.615175 1.474683 0.678017
v 0.617402 1.475529 0.678311
v 0.605159 1.474258 0.677924
v 0.602715 1.573663 0.683555
v 0.602716 1.572173 0.684859
v 0.620099 1.572668 0.683916
v 0.602701 1.573188 0.684515
v 0.612727 1.573250 0.684584
v 0.614994 1.572484 0.684771
v 0.614993 1.573538 0.683849
v -0.596968 1.452608 0.548450
v -0.614352 1.453604 0.548090
v -0.596968 1.454099 0.547147
v -0.609246 1.452734 0.548157
v -0.606979 1.453021 0.547422
v -0.609246 1.453788 0.547235
v -0.596954 1.453084 0.547490
v -0.599446 1.552356 0.555096
v -0.599377 1.551054 0.553607
v -0.616761 1.550559 0.554549
v -0.599411 1.552014 0.554081
v -0.609428 1.551589 0.553989
v -0.611655 1.550743 0.553695
v -0.611704 1.551664 0.554748
v -0.599353 1.446090 0.645402
v -0.599422 1.447392 0.646892
v -0.616737 1.447085 0.645041
v -0.599388 1.446432 0.646417
v -0.609405 1.446394 0.645986
v -0.611680 1.447136 0.646162
v -0.611631 1.446215 0.645109
v -0.601831 1.545838 0.652048
v -0.619146 1.544041 0.651501
v -0.601831 1.544348 0.653351
v -0.614089 1.545145 0.651700
v -0.611853 1.544962 0.652553
v -0.614089 1.544092 0.652621
v -0.601846 1.545362 0.653008
v 0.667404 0.967228 -0.356889
v 0.667002 0.968482 -0.366141
v 0.687270 0.968533 -0.357786
v 0.667117 0.967535 -0.363422
v 0.678637 0.967681 -0.362732
v 0.681165 0.968458 -0.364056
v 0.681449 0.967571 -0.357514
v 0.667397 1.065669 -0.367698
v 0.667810 1.067215 -0.358491
v 0.687664 1.065720 -0.359343
v 0.667520 1.066701 -0.365011
v 0.679039 1.066484 -0.364315
v 0.681851 1.066738 -0.359103
v 0.681560 1.065645 -0.365613
v 0.695674 0.977379 0.283928
v 0.715540 0.978685 0.283030
v 0.696087 0.978925 0.293135
v 0.709719 0.977723 0.283302
v 0.707378 0.978001 0.288742
v 0.710011 0.978816 0.289813
v 0.695964 0.977893 0.290447
v 0.696080 1.077366 0.282326
v 0.696482 1.076112 0.291578
v 0.715935 1.075871 0.281473
v 0.696366 1.077059 0.288859
v 0.707779 1.076804 0.287159
v 0.710406 1.076002 0.288256
v 0.710122 1.076889 0.281714
v -0.711484 0.973801 -0.296162
v -0.731339 0.975295 -0.295309
v -0.711885 0.975055 -0.305414
v -0.725526 0.974278 -0.295550
v -0.723183 0.974363 -0.300995
v -0.725810 0.975164 -0.302092
v -0.711770 0.974108 -0.302695
v -0.711078 1.073787 -0.297763
v -0.711491 1.072241 -0.306971
v -0.730944 1.072482 -0.296866
v -0.711368 1.073274 -0.304283
v -0.722782 1.073166 -0.302578
v -0.725415 1.072351 -0.303649
v -0.725123 1.073444 -0.297138
v -0.683214 0.983952 0.344655
v -0.682801 0.985498 0.353862
v -0.703068 0.985447 0.345507
v -0.682924 0.984465 0.351175
v -0.694443 0.984683 0.350479
v -0.696963 0.985522 0.351777
v -0.697255 0.984429 0.345267
v -0.682808 1.083938 0.343053
v -0.702674 1.082633 0.343950
v -0.682406 1.082685 0.352305
v -0.696853 1.083596 0.343678
v -0.694041 1.083486 0.348896
v -0.696569 1.082709 0.350220
v -0.682521 1.083632 0.349586
v 0.595772 0.012707 -0.077933
v 0.594854 0.027014 -0.078519
v 0.596236 0.027025 -0.077102
v 0.595509 0.016931 -0.078683
v 0.596193 0.018819 -0.078385
v 0.595837 0.027055 -0.078096
v 0.596487 0.016938 -0.077681
v 0.530055 1.014732 -0.022228
v 0.529107 1.028878 -0.020020
v 0.531437 1.014742 -0.020811
v 0.529391 1.024768 -0.021245
v 0.530316 1.022964 -0.021158
v 0.530368 1.024775 -0.020243
v 0.531038 1.014772 -0.021805
v 0.594760 0.007111 0.019101
v 0.595224 0.021428 0.019931
v 0.593812 0.021257 0.021309
v 0.595474 0.011342 0.019352
v 0.595164 0.013129 0.020262
v 0.594804 0.021344 0.020914
v 0.594476 0.011221 0.020327
v 0.528095 1.023281 0.077014
v 0.529014 1.008974 0.077601
v 0.530425 1.009145 0.076223
v 0.528358 1.019057 0.077765
v 0.529287 1.017274 0.077490
v 0.530006 1.009062 0.077205
v 0.529356 1.019178 0.076790
v 0.498785 0.006423 -0.079307
v 0.496455 0.020559 -0.078516
v 0.497867 0.020730 -0.079894
v 0.497524 0.010526 -0.079083
v 0.497593 0.012430 -0.079782
v 0.496875 0.020642 -0.079498
v 0.498522 0.010647 -0.080057
v 0.432120 1.022593 -0.021394
v 0.433068 1.008448 -0.023602
v 0.431656 1.008276 -0.022224
v 0.432404 1.018483 -0.022619
v 0.431716 1.016575 -0.022555
v 0.432076 1.008360 -0.023207
v 0.431406 1.018362 -0.021645
v 0.497773 0.000827 0.017727
v 0.496825 0.014972 0.019935
v 0.495443 0.014962 0.018518
v 0.497489 0.004936 0.018952
v 0.496564 0.006741 0.018865
v 0.495842 0.014932 0.019512
v 0.496512 0.004929 0.017950
v 0.431108 1.016997 0.075640
v 0.430644 1.002680 0.074809
v 0.432027 1.002690 0.076227
v 0.430393 1.012766 0.075388
v 0.430687 1.010885 0.076093
v 0.431043 1.002649 0.075803
v 0.431371 1.012773 0.076391
v -0.497863 -0.009830 -0.050007
v -0.497127 0.004420 -0.051519
v -0.495658 0.004347 -0.050194
v -0.497678 -0.005659 -0.051029
v -0.496758 -0.003855 -0.050905
v -0.496119 0.004365 -0.051161
v -0.496639 -0.005711 -0.050092
v -0.440948 0.994236 -0.059368
v -0.440066 1.008499 -0.058083
v -0.439479 0.994163 -0.058043
v -0.440355 1.004319 -0.059038
v -0.439644 1.002423 -0.058884
v -0.439315 1.004267 -0.058101
v -0.439940 0.994181 -0.059010
v -0.492756 -0.009350 0.047057
v -0.490552 0.004827 0.046871
v -0.491874 0.004913 0.048342
v -0.491532 -0.005231 0.046972
v -0.491566 -0.003367 0.047774
v -0.490908 0.004855 0.047881
v -0.492467 -0.005170 0.048013
v -0.434959 1.008979 0.038982
v -0.435695 0.994729 0.040493
v -0.434372 0.994642 0.039022
v -0.435144 1.004808 0.040004
v -0.434453 1.002911 0.039795
v -0.434729 0.994671 0.040032
v -0.434209 1.004747 0.038963
v -0.594772 -0.004290 -0.044936
v -0.595359 0.010047 -0.044976
v -0.594037 0.009960 -0.046447
v -0.595522 -0.000057 -0.044918
v -0.595279 0.001778 -0.045749
v -0.595002 0.010019 -0.045986
v -0.594588 -0.000119 -0.045958
v -0.536975 1.014040 -0.053012
v -0.537858 0.999776 -0.054297
v -0.539180 0.999863 -0.052826
v -0.537264 1.009859 -0.053967
v -0.538165 1.008056 -0.053729
v -0.538823 0.999835 -0.053835
v -0.538199 1.009920 -0.052927
v -0.589666 -0.003810 0.052128
v -0.588783 0.010454 0.053413
v -0.590252 0.010527 0.052088
v -0.589377 0.000371 0.053084
v -0.590087 0.002266 0.052930
v -0.589792 0.010508 0.053055
v -0.590416 0.000422 0.052147
v -0.531868 1.014519 0.044053
v -0.534073 1.000343 0.044239
v -0.532604 1.000270 0.045564
v -0.533092 1.010400 0.044138
v -0.532974 1.008544 0.044950
v -0.533613 1.000324 0.045206
v -0.532053 1.010349 0.045075
v 0.021456 2.053784 0.150887
v 0.021854 2.054138 0.177039
v -0.002895 2.053934 0.185502
v -0.018588 2.053454 0.164581
v -0.003538 2.053361 0.143188
v 0.022765 2.052215 0.163970
v 0.003749 2.046606 0.164335
v 0.009853 2.052294 0.182323
v -0.011590 2.051931 0.175718
v -0.011930 2.051628 0.153282
v 0.009302 2.051803 0.146022
v -0.065762 2.087720 0.131246
v -0.079796 2.109793 0.131161
v -0.073419 2.123343 0.109715
v -0.055444 2.109644 0.096546
v -0.050712 2.087628 0.109853
v -0.074525 2.097646 0.131245
v -0.070201 2.100322 0.112079
v -0.078585 2.116534 0.119829
v -0.065673 2.116455 0.101476
v -0.053633 2.097518 0.101549
v -0.059104 2.085894 0.119947
v 0.037830 2.088576 0.095822
v 0.012835 2.088153 0.088122
v 0.008103 2.110169 0.074815
v 0.030173 2.124199 0.074291
v 0.048545 2.110853 0.087273
v 0.025676 2.086595 0.090956
v 0.029416 2.101145 0.078013
v 0.009914 2.098043 0.079818
v 0.019107 2.117156 0.072484
v 0.040549 2.117519 0.079089
v 0.044609 2.098631 0.090506
v 0.078522 2.090162 0.175691
v 0.078125 2.089809 0.149540
v 0.088840 2.112086 0.140991
v 0.095859 2.126209 0.161859
v 0.089482 2.112659 0.183305
v 0.079434 2.088239 0.162622
v 0.092582 2.103077 0.162222
v 0.084904 2.099864 0.144224
v 0.094307 2.119164 0.150756
v 0.094648 2.119467 0.173191
v 0.085455 2.100355 0.180525
v 0.015127 2.090195 0.239084
v 0.039877 2.090399 0.230621
v 0.050837 2.112895 0.238235
v 0.032862 2.126595 0.251404
v 0.010792 2.112565 0.251928
v 0.027876 2.088555 0.235905
v 0.032002 2.103449 0.248330
v 0.046810 2.100592 0.235455
v 0.043091 2.119783 0.246474
v 0.021859 2.119608 0.253735
v 0.012456 2.100308 0.247203
v -0.078777 2.110701 0.198308
v -0.064743 2.088628 0.198394
v -0.049050 2.089108 0.219315
v -0.053385 2.111478 0.232159
v -0.071757 2.124824 0.219176
v -0.073505 2.098555 0.198392
v -0.068602 2.101746 0.217339
v -0.057744 2.087106 0.209530
v -0.051722 2.099221 0.227433
v -0.063762 2.118158 0.227360
v -0.077225 2.117746 0.209412
v -0.005862 2.180876 0.074071
v -0.027931 2.166846 0.074596
v -0.045906 2.180545 0.087764
v -0.034946 2.203042 0.095378
v -0.010197 2.203246 0.086915
v -0.016928 2.173833 0.072265
v -0.027071 2.189992 0.077669
v -0.038160 2.173658 0.079525
v -0.041879 2.192849 0.090544
v -0.022945 2.204885 0.090094
v -0.007525 2.193133 0.078797
v 0.083707 2.182740 0.127691
v 0.076688 2.168617 0.106823
v 0.058316 2.181963 0.093841
v 0.053981 2.204333 0.106685
v 0.069673 2.204813 0.127606
v 0.082156 2.175695 0.116588
v 0.073533 2.191695 0.108660
v 0.068693 2.175283 0.098640
v 0.056653 2.194219 0.098566
v 0.062675 2.206335 0.116469
v 0.078436 2.194886 0.127607
v 0.060375 2.183797 0.229453
v 0.078350 2.170098 0.216284
v 0.084727 2.183648 0.194839
v 0.070693 2.205721 0.194753
v 0.055643 2.205813 0.216146
v 0.070604 2.176986 0.224524
v 0.075132 2.193119 0.213921
v 0.083516 2.176907 0.206171
v 0.079456 2.195794 0.194755
v 0.064035 2.207547 0.206052
v 0.058564 2.195922 0.224450
v -0.043614 2.182587 0.238726
v -0.025242 2.169242 0.251709
v -0.003172 2.183272 0.251184
v -0.007904 2.205288 0.237877
v -0.032899 2.204865 0.230178
v -0.035618 2.175922 0.246910
v -0.024485 2.192296 0.247986
v -0.014176 2.176285 0.253515
v -0.004983 2.195397 0.246181
v -0.020745 2.206846 0.235043
v -0.039678 2.194810 0.235494
v -0.084551 2.180782 0.142695
v -0.090928 2.167232 0.164140
v -0.083909 2.181355 0.185008
v -0.073194 2.203632 0.176460
v -0.073591 2.203279 0.150308
v -0.089717 2.173974 0.152808
v -0.087651 2.190363 0.163778
v -0.089376 2.174277 0.175244
v -0.079973 2.193577 0.181776
v -0.074503 2.205202 0.163377
v -0.080525 2.193086 0.145474
v 0.007826 2.239507 0.140497
v -0.016923 2.239303 0.148961
v -0.016526 2.239656 0.175112
v 0.008469 2.240079 0.182811
v 0.023519 2.239987 0.161418
v -0.004922 2.241147 0.143676
v 0.001182 2.246835 0.161665
v -0.017834 2.241226 0.162029
v -0.004371 2.241638 0.179978
v 0.016861 2.241813 0.172717
v 0.016521 2.241509 0.150282
vn 0.7091 0.0779 -0.7008
vn 0.3031 0.0349 -0.9523
vn 0.8907 0.2424 -0.3847
vn 0.3656 0.1032 -0.9250
vn 0.6423 0.2938 -0.7079
vn 0.9043 0.2972 -0.3064
vn 0.7001 0.1213 0.7036
vn 0.9160 0.2657 0.3006
vn 0.3655 0.1229 0.9227
vn 0.6333 0.3372 0.6966
vn 0.2755 0.1440 0.9505
vn 0.8742 0.3034 0.3790
vn -0.6334 -0.3373 -0.6965
vn -0.9005 -0.3160 -0.2988
vn -0.3539 -0.1603 -0.9215
vn -0.7001 -0.1213 -0.7036
vn -0.2910 -0.0938 -0.9521
vn -0.8858 -0.2660 -0.3802
vn -0.6423 -0.2938 0.7079
vn -0.2876 -0.0852 0.9540
vn -0.8791 -0.2798 0.3859
vn -0.7091 -0.0779 0.7008
vn -0.9198 -0.2470 0.3048
vn -0.3772 -0.0658 0.9238
vn 0.9902 0.1400 0.0020
vn 0.9631 0.2690 -0.0022
vn 0.3715 0.0845 -0.9246
vn 0.8851 0.2611 -0.3853
vn 0.8963 0.4434 -0.0080
vn 0.9468 0.3217 -0.0039
vn 0.3597 0.1416 0.9223
vn 0.8802 0.2848 0.3797
vn 0.0407 -0.1212 0.9918
vn 0.0018 0.0045 1.0000
vn -0.0532 0.1822 0.9818
vn -0.0145 0.0572 0.9983
vn -0.8851 -0.2611 0.3853
vn -0.3715 -0.0845 0.9246
vn -0.8963 -0.4434 0.0080
vn -0.9468 -0.3217 0.0039
vn -0.9902 -0.1400 -0.0020
vn -0.9631 -0.2690 0.0022
vn -0.3597 -0.1416 -0.9223
vn -0.8802 -0.2848 -0.3797
vn 0.0532 -0.1822 -0.9818
vn 0.0145 -0.0572 -0.9983
vn -0.0407 0.1212 -0.9918
vn -0.0018 -0.0045 -1.0000
vn 0.2954 -0.9549 0.0314
vn 0.9554 0.2954 -0.0030
vn 0.0064 -0.0309 -0.9995
vn -0.2954 0.9549 -0.0314
vn -0.0064 0.0309 0.9995
vn -0.9554 -0.2954 0.0030
vn 0.6175 -0.3436 -0.7076
vn 0.2615 -0.1390 -0.9551
vn 0.8627 -0.3193 -0.3923
vn 0.3523 -0.1203 -0.9281
vn 0.6893 -0.1292 -0.7128
vn 0.9061 -0.2835 -0.3139
vn 0.6429 -0.3173 0.6971
vn 0.9004 -0.3221 0.2926
vn 0.3732 -0.1229 0.9196
vn 0.7147 -0.1030 0.6918
vn 0.3126 -0.0535 0.9484
vn 0.8889 -0.2679 0.3716
vn -0.7147 0.1030 -0.6918
vn -0.9171 0.2722 -0.2913
vn -0.3856 0.0858 -0.9187
vn -0.6429 0.3173 -0.6971
vn -0.2959 0.1034 -0.9496
vn -0.8764 0.3050 -0.3726
vn -0.6893 0.1292 0.7129
vn -0.2782 0.0891 0.9564
vn -0.8750 0.2821 0.3933
vn -0.6175 0.3436 0.7076
vn -0.8894 0.3334 0.3128
vn -0.3398 0.1574 0.9272
vn 0.8856 -0.4644 -0.0073
vn 0.9390 -0.3439 -0.0105
vn 0.3461 -0.1389 -0.9279
vn 0.8690 -0.3008 -0.3929
vn 0.9865 -0.1631 -0.0148
vn 0.9565 -0.2915 -0.0118
vn 0.3795 -0.1044 0.9193
vn 0.8829 -0.2865 0.3721
vn -0.0326 -0.1322 0.9907
vn 0.0093 -0.0075 0.9999
vn 0.0683 0.1691 0.9832
vn 0.0268 0.0448 0.9986
vn -0.8690 0.3008 0.3930
vn -0.3462 0.1389 0.9278
vn -0.9865 0.1631 0.0148
vn -0.9565 0.2915 0.0118
vn -0.8856 0.4644 0.0073
vn -0.9390 0.3439 0.0105
vn -0.3795 0.1044 -0.9193
vn -0.8828 0.2865 -0.3722
vn -0.0683 -0.1691 -0.9832
vn -0.0268 -0.0448 -0.9986
vn 0.0326 0.1322 -0.9907
vn -0.0093 0.0075 -0.9999
vn -0.3175 -0.9480 0.0234
vn 0.9481 -0.3178 -0.0112
vn -0.0180 -0.0187 -0.9997
vn 0.3175 0.9480 -0.0234
vn 0.0180 0.0187 0.9997
vn -0.9481 0.3178 0.0112
vn 0.7404 0.0600 -0.6694
vn 0.3437 0.0674 -0.9367
vn 0.9251 0.1764 -0.3363
vn 0.4122 0.1232 -0.9027
vn 0.6996 0.2626 -0.6645
vn 0.9417 0.2205 -0.2540
vn 0.6779 0.0134 0.7350
vn 0.9243 0.1534 0.3496
vn 0.3372 0.0270 0.9411
vn 0.6371 0.2160 0.7399
vn 0.2495 0.0514 0.9670
vn 0.8841 0.1861 0.4287
vn -0.6371 -0.2160 -0.7399
vn -0.9148 -0.2004 -0.3506
vn -0.3301 -0.0620 -0.9419
vn -0.6779 -0.0134 -0.7350
vn -0.2590 -0.0043 -0.9659
vn -0.8911 -0.1511 -0.4279
vn -0.6996 -0.2626 0.6646
vn -0.3341 -0.1145 0.9355
vn -0.9181 -0.2114 0.3352
vn -0.7404 -0.0600 0.6695
vn -0.9512 -0.1734 0.2552
vn -0.4193 -0.0881 0.9036
vn 0.9976 0.0516 0.0461
vn 0.9840 0.1714 0.0495
vn 0.4158 0.1057 -0.9033
vn 0.9218 0.1939 -0.3358
vn 0.9402 0.3366 0.0530
vn 0.9740 0.2208 0.0507
vn 0.3337 0.0445 0.9416
vn 0.8877 0.1686 0.4284
vn -0.0152 -0.1752 0.9844
vn -0.0394 -0.0578 0.9975
vn -0.0727 0.1097 0.9913
vn -0.0494 -0.0084 0.9987
vn -0.9217 -0.1939 0.3358
vn -0.4158 -0.1057 0.9033
vn -0.9402 -0.3366 -0.0530
vn -0.9740 -0.2208 -0.0507
vn -0.9976 -0.0516 -0.0461
vn -0.9840 -0.1714 -0.0495
vn -0.3337 -0.0445 -0.9416
vn -0.8877 -0.1686 -0.4285
vn 0.0727 -0.1097 -0.9913
vn 0.0494 0.0084 -0.9987
vn 0.0152 0.1753 -0.9844
vn 0.0394 0.0578 -0.9975
vn 0.1976 -0.9800 -0.0237
vn 0.9793 0.1962 0.0501
vn 0.0444 0.0331 -0.9985
vn -0.1976 0.9800 0.0237
vn -0.0444 -0.0331 0.9985
vn -0.9793 -0.1962 -0.0501
vn 0.6528 -0.2960 -0.6973
vn 0.2865 -0.1210 -0.9504
vn 0.8878 -0.2639 -0.3772
vn 0.3743 -0.1005 -0.9218
vn 0.7062 -0.0964 -0.7014
vn 0.9266 -0.2293 -0.2981
vn 0.6526 -0.2673 0.7090
vn 0.9140 -0.2633 0.3085
vn 0.3649 -0.0973 0.9259
vn 0.7060 -0.0676 0.7049
vn 0.2986 -0.0356 0.9537
vn 0.8969 -0.2137 0.3871
vn -0.7061 0.0676 -0.7049
vn -0.9265 0.2169 -0.3073
vn -0.3742 0.0628 -0.9252
vn -0.6526 0.2673 -0.7090
vn -0.2862 0.0820 -0.9546
vn -0.8877 0.2483 -0.3878
vn -0.7062 0.0964 0.7014
vn -0.2988 0.0745 0.9514
vn -0.8970 0.2293 0.3780
vn -0.6528 0.2960 0.6973
vn -0.9142 0.2757 0.2971
vn -0.3651 0.1350 0.9211
vn 0.9181 -0.3962 0.0082
vn 0.9592 -0.2828 0.0059
vn 0.3698 -0.1178 -0.9216
vn 0.8925 -0.2467 -0.3776
vn 0.9933 -0.1154 0.0025
vn 0.9722 -0.2341 0.0049
vn 0.3696 -0.0801 0.9257
vn 0.8924 -0.2310 0.3875
vn -0.0377 -0.1202 0.9920
vn -0.0066 -0.0039 1.0000
vn 0.0375 0.1606 0.9863
vn 0.0064 0.0448 0.9990
vn -0.8925 0.2467 0.3776
vn -0.3697 0.1178 0.9216
vn -0.9933 0.1154 -0.0025
vn -0.9722 0.2341 -0.0049
vn -0.9181 0.3962 -0.0082
vn -0.9592 0.2828 -0.0059
vn -0.3696 0.0801 -0.9257
vn -0.8924 0.2311 -0.3875
vn -0.0375 -0.1606 -0.9863
vn -0.0064 -0.0448 -0.9990
vn 0.0377 0.1202 -0.9920
vn 0.0066 0.0039 -1.0000
vn -0.2586 -0.9658 0.0197
vn 0.9660 -0.2585 0.0054
vn 0.0001 -0.0204 -0.9998
vn 0.2586 0.9658 -0.0197
vn -0.0001 0.0204 0.9998
vn -0.9660 0.2585 -0.0054
vn 0.4221 -0.9064 0.0176
vn 0.7117 -0.6645 -0.2278
vn 0.9640 -0.2640 -0.0311
vn 0.6541 0.6861 -0.3184
vn 0.2628 0.9565 -0.1268
vn 0.9065 0.4180 -0.0598
vn 0.3406 -0.9300 0.1379
vn 0.9368 -0.3370 0.0937
vn 0.6995 -0.6268 0.3433
vn 0.3417 0.9398 -0.0036
vn 0.6418 0.7241 0.2527
vn 0.9353 0.3475 0.0660
vn -0.2595 -0.9657 -0.0107
vn -0.9043 -0.4248 -0.0425
vn -0.6419 -0.7240 -0.2526
vn -0.4200 0.8996 -0.1200
vn -0.6996 0.6267 -0.3433
vn -0.9610 0.2551 -0.1064
vn -0.3436 -0.9331 0.1059
vn -0.6540 -0.6862 0.3185
vn -0.9383 -0.3383 0.0715
vn -0.3438 0.9390 -0.0004
vn -0.9390 0.3439 0.0087
vn -0.7117 0.6646 0.2278
vn 0.4215 -0.9042 0.0689
vn 0.9392 -0.3408 0.0425
vn 0.9284 0.0147 -0.3713
vn 0.9978 0.0390 -0.0538
vn 0.3431 0.9377 -0.0548
vn 0.9065 0.4220 -0.0087
vn 0.9119 0.0661 0.4051
vn 0.9947 0.0485 0.0904
vn 0.0409 -0.9895 0.1389
vn 0.0309 -0.8925 0.4499
vn -0.0440 0.9990 0.0054
vn -0.0475 0.9440 0.3266
vn -0.9978 -0.0390 0.0538
vn -0.9284 -0.0147 0.3714
vn -0.3430 -0.9377 0.0548
vn -0.9065 -0.4221 0.0087
vn -0.4216 0.9041 -0.0688
vn -0.9391 0.3410 -0.0426
vn -0.9119 -0.0661 -0.4051
vn -0.9947 -0.0485 -0.0904
vn 0.0440 -0.9990 -0.0054
vn 0.0475 -0.9440 -0.3266
vn -0.0409 0.9895 -0.1388
vn -0.0309 0.8925 -0.4499
vn 0.0426 -0.9969 0.0669
vn 0.9989 0.0439 0.0183
vn 0.0212 -0.0661 -0.9976
vn -0.0425 0.9969 -0.0669
vn -0.0212 0.0661 0.9976
vn -0.9989 -0.0439 -0.0183
vn 0.0622 -0.9662 -0.2503
vn 0.0865 -0.4288 -0.8993
vn 0.1810 -0.7340 -0.6546
vn 0.0862 0.2543 -0.9633
vn 0.0334 0.9032 -0.4279
vn 0.1612 0.6668 -0.7276
vn 0.0103 -0.9024 0.4308
vn 0.0910 -0.6624 0.7436
vn -0.0275 -0.2533 0.9670
vn -0.0035 0.9672 0.2541
vn -0.0428 0.4295 0.9021
vn 0.0712 0.7384 0.6706
vn 0.0157 -0.9422 -0.3346
vn -0.0712 -0.7384 -0.6706
vn 0.0360 -0.3515 -0.9355
vn -0.0234 0.9353 -0.3531
vn 0.0320 0.3345 -0.9418
vn -0.0910 0.6625 -0.7435
vn -0.0354 -0.9363 0.3494
vn -0.0757 -0.3353 0.9391
vn -0.1612 -0.6668 0.7276
vn -0.0594 0.9415 0.3318
vn -0.1810 0.7340 0.6546
vn -0.0947 0.3504 0.9318
vn 0.0449 -0.9975 0.0539
vn 0.1907 -0.9797 0.0624
vn 0.0949 -0.0504 -0.9942
vn 0.2401 -0.0471 -0.9696
vn 0.0167 0.9986 -0.0500
vn 0.1631 0.9858 -0.0400
vn -0.0333 0.0515 0.9981
vn 0.1138 0.0533 0.9921
vn -0.0115 -0.9030 0.4294
vn -0.0539 -0.3350 0.9407
vn -0.0376 0.9421 0.3333
vn -0.0647 0.4292 0.9009
vn -0.2401 0.0471 0.9696
vn -0.0949 0.0504 0.9942
vn -0.0168 -0.9986 0.0500
vn -0.1630 -0.9858 0.0400
vn -0.0449 0.9975 -0.0539
vn -0.1907 0.9797 -0.0624
vn 0.0333 -0.0515 -0.9981
vn -0.1138 -0.0533 -0.9921
vn 0.0375 -0.9421 -0.3333
vn 0.0647 -0.4292 -0.9009
vn 0.0115 0.9030 -0.4294
vn 0.0539 0.3350 -0.9407
vn 0.0141 -0.9985 0.0520
vn 0.9978 0.0174 0.0633
vn 0.0641 -0.0510 -0.9966
vn -0.0141 0.9985 -0.0520
vn -0.0641 0.0510 0.9966
vn -0.9978 -0.0174 -0.0633
vn 0.0629 -0.9291 -0.3644
vn 0.0558 -0.3190 -0.9461
vn 0.1708 -0.6487 -0.7416
vn 0.0477 0.3665 -0.9292
vn 0.0102 0.9475 -0.3195
vn 0.1361 0.7489 -0.6486
vn 0.0372 -0.9464 0.3209
vn 0.1365 -0.7426 0.6557
vn 0.0159 -0.3650 0.9309
vn 0.0008 0.9306 0.3661
vn -0.0085 0.3202 0.9473
vn 0.1018 0.6549 0.7488
vn 0.0086 -0.8962 -0.4436
vn -0.1017 -0.6550 -0.7488
vn -0.0009 -0.2388 -0.9711
vn -0.0480 0.9697 -0.2395
vn -0.0105 0.4429 -0.8965
vn -0.1365 0.7425 -0.6557
vn -0.0156 -0.9712 0.2378
vn -0.0368 -0.4442 0.8952
vn -0.1362 -0.7489 0.6486
vn -0.0559 0.8951 0.4423
vn -0.1709 0.6486 0.7417
vn -0.0627 0.2373 0.9694
vn 0.0581 -0.9962 -0.0655
vn 0.2153 -0.9747 -0.0602
vn 0.0579 0.0678 -0.9960
vn 0.2151 0.0702 -0.9741
vn 0.0086 0.9977 0.0673
vn 0.1667 0.9835 0.0702
vn 0.0088 -0.0663 0.9978
vn 0.1669 -0.0614 0.9841
vn 0.0135 -0.9472 0.3203
vn -0.0132 -0.4437 0.8961
vn -0.0323 0.8959 0.4430
vn -0.0322 0.3197 0.9470
vn -0.2151 -0.0702 0.9741
vn -0.0579 -0.0678 0.9960
vn -0.0086 -0.9977 -0.0673
vn -0.1666 -0.9835 -0.0702
vn -0.0581 0.9962 0.0655
vn -0.2153 0.9747 0.0602
vn -0.0088 0.0663 -0.9978
vn -0.1669 0.0614 -0.9841
vn 0.0323 -0.8959 -0.4431
vn 0.0322 -0.3197 -0.9470
vn -0.0135 0.9472 -0.3203
vn 0.0132 0.4435 -0.8962
vn 0.0248 -0.9975 -0.0665
vn 0.9994 0.0231 0.0261
vn 0.0245 0.0671 -0.9974
vn -0.0248 0.9975 0.0665
vn -0.0245 -0.0671 0.9974
vn -0.9994 -0.0231 -0.0261
vn 0.0229 -0.9992 -0.0333
vn 0.0317 -0.9435 -0.3299
vn 0.1551 -0.9780 -0.1392
vn 0.0672 0.8923 -0.4464
vn 0.0236 0.9966 -0.0795
vn 0.1630 0.9718 -0.1705
vn 0.0210 -0.9968 0.0776
vn 0.1682 -0.9734 0.1559
vn 0.0977 -0.8931 0.4391
vn 0.0353 0.9989 0.0308
vn 0.0696 0.9430 0.3255
vn 0.1761 0.9764 0.1247
vn -0.0291 -0.9985 -0.0456
vn -0.1761 -0.9765 -0.1247
vn -0.1050 -0.9059 -0.4103
vn -0.0271 0.9977 -0.0627
vn -0.0619 0.9326 -0.3555
vn -0.1682 0.9734 -0.1559
vn -0.0310 -0.9974 0.0653
vn -0.0393 -0.9321 0.3600
vn -0.1630 -0.9718 0.1705
vn -0.0155 0.9987 0.0476
vn -0.1551 0.9780 0.1392
vn -0.0599 0.9067 0.4176
vn 0.0251 -0.9996 0.0147
vn 0.1634 -0.9865 0.0084
vn 0.1456 -0.0164 -0.9892
vn 0.7165 -0.0141 -0.6974
vn 0.0332 0.9993 -0.0173
vn 0.1714 0.9849 -0.0232
vn 0.2321 0.0146 0.9726
vn 0.7751 0.0070 0.6317
vn -0.0013 -0.9969 0.0786
vn 0.0113 -0.9336 0.3582
vn 0.0068 0.9989 0.0466
vn 0.0190 0.9444 0.3281
vn -0.7165 0.0141 0.6974
vn -0.1456 0.0164 0.9892
vn -0.0332 -0.9993 0.0173
vn -0.1714 -0.9849 0.0232
vn -0.0250 0.9996 -0.0147
vn -0.1634 0.9865 -0.0084
vn -0.2321 -0.0146 -0.9726
vn -0.7751 -0.0070 -0.6318
vn -0.0068 -0.9989 -0.0466
vn -0.0190 -0.9444 -0.3281
vn 0.0013 0.9969 -0.0786
vn -0.0113 0.9336 -0.3582
vn -0.0041 -0.9999 0.0160
vn 0.9990 -0.0048 -0.0440
vn -0.0441 -0.0158 -0.9989
vn 0.0041 0.9999 -0.0160
vn 0.0441 0.0158 0.9989
vn -0.9990 0.0048 0.0440
vn 0.7139 -0.0792 -0.6958
vn 0.3145 0.0359 -0.9486
vn 0.9273 0.0531 -0.3705
vn 0.3894 0.1066 -0.9149
vn 0.6924 0.2497 -0.6769
vn 0.9508 0.1175 -0.2865
vn 0.6994 -0.1595 0.6967
vn 0.9496 0.0056 0.3134
vn 0.3740 -0.0571 0.9257
vn 0.6779 0.1694 0.7154
vn 0.2896 0.0033 0.9571
vn 0.9156 0.0664 0.3965
vn -0.6778 -0.1694 -0.7155
vn -0.9445 -0.0827 -0.3178
vn -0.3702 -0.0002 -0.9290
vn -0.6994 0.1595 -0.6967
vn -0.2946 0.0738 -0.9528
vn -0.9194 -0.0090 -0.3933
vn -0.6923 -0.2497 0.6770
vn -0.3094 -0.1129 0.9442
vn -0.9236 -0.1104 0.3671
vn -0.7139 0.0792 0.6958
vn -0.9559 -0.0405 0.2909
vn -0.3932 -0.0492 0.9181
vn 0.9860 -0.1665 0.0007
vn 0.9996 0.0242 0.0118
vn 0.3915 0.0779 -0.9169
vn 0.9258 0.0818 -0.3690
vn 0.9559 0.2924 0.0268
vn 0.9943 0.1050 0.0164
vn 0.3722 -0.0285 0.9277
vn 0.9178 0.0377 0.3952
vn 0.0049 -0.2855 0.9584
vn -0.0078 -0.0980 0.9952
vn -0.0252 0.1734 0.9845
vn -0.0131 -0.0171 0.9998
vn -0.9258 -0.0818 0.3690
vn -0.3914 -0.0779 0.9169
vn -0.9559 -0.2924 -0.0268
vn -0.9943 -0.1050 -0.0164
vn -0.9860 0.1665 -0.0007
vn -0.9996 -0.0242 -0.0118
vn -0.3723 0.0285 -0.9277
vn -0.9179 -0.0377 -0.3951
vn 0.0252 -0.1734 -0.9845
vn 0.0131 0.0171 -0.9998
vn -0.0049 0.2855 -0.9584
vn 0.0078 0.0980 -0.9952
vn 0.0654 -0.9962 -0.0568
vn 0.9978 0.0647 0.0141
vn 0.0104 0.0576 -0.9983
vn -0.0654 0.9962 0.0568
vn -0.0104 -0.0576 0.9983
vn -0.9978 -0.0647 -0.0141
vn 0.6493 -0.2080 -0.7315
vn 0.2495 -0.0606 -0.9665
vn 0.8990 -0.0832 -0.4300
vn 0.3345 0.0024 -0.9424
vn 0.6681 0.1216 -0.7341
vn 0.9358 -0.0172 -0.3522
vn 0.7226 -0.2011 0.6614
vn 0.9632 -0.0914 0.2528
vn 0.4282 -0.0460 0.9025
vn 0.7413 0.1285 0.6587
vn 0.3540 0.0261 0.9349
vn 0.9425 -0.0220 0.3334
vn -0.7414 -0.1285 -0.6587
vn -0.9676 0.0142 -0.2521
vn -0.4316 -0.0115 -0.9020
vn -0.7226 0.2011 -0.6613
vn -0.3497 0.0512 -0.9355
vn -0.9392 0.0795 -0.3340
vn -0.6681 -0.1216 0.7341
vn -0.2540 -0.0167 0.9671
vn -0.9022 0.0258 0.4305
vn -0.6493 0.2080 0.7315
vn -0.9314 0.0944 0.3517
vn -0.3312 0.0551 0.9419
vn 0.9572 -0.2854 -0.0489
vn 0.9939 -0.0975 -0.0518
vn 0.3330 -0.0264 -0.9426
vn 0.9010 -0.0545 -0.4304
vn 0.9833 0.1745 -0.0526
vn 0.9985 -0.0165 -0.0525
vn 0.4300 -0.0172 0.9027
vn 0.9413 -0.0508 0.3338
vn 0.0381 -0.2251 0.9736
vn 0.0502 -0.0356 0.9981
vn 0.0642 0.2347 0.9699
vn 0.0548 0.0454 0.9975
vn -0.9011 0.0546 0.4303
vn -0.3330 0.0264 0.9426
vn -0.9833 -0.1744 0.0526
vn -0.9985 0.0164 0.0524
vn -0.9572 0.2854 0.0489
vn -0.9939 0.0975 0.0518
vn -0.4301 0.0173 -0.9026
vn -0.9412 0.0508 -0.3340
vn -0.0642 -0.2348 -0.9699
vn -0.0548 -0.0454 -0.9975
vn -0.0381 0.2251 -0.9736
vn -0.0502 0.0356 -0.9981
vn -0.0567 -0.9984 0.0079
vn 0.9970 -0.0570 -0.0522
vn -0.0525 -0.0049 -0.9986
vn 0.0567 0.9984 -0.0079
vn 0.0525 0.0049 0.9986
vn -0.9970 0.0570 0.0522
vn 0.2347 -0.9515 -0.1989
vn 0.2821 -0.9461 0.1589
vn -0.0435 -0.9482 0.3146
vn -0.2921 -0.9549 0.0531
vn -0.1202 -0.9569 -0.2643
vn -0.6762 -0.6777 -0.2890
vn -0.8866 -0.3865 -0.2540
vn -0.8262 -0.1706 -0.5369
vn -0.5785 -0.3284 -0.7467
vn -0.4858 -0.6418 -0.5935
vn 0.4279 -0.6307 -0.6473
vn 0.0803 -0.6739 -0.7344
vn -0.0243 -0.3844 -0.9229
vn 0.2587 -0.1623 -0.9522
vn 0.5382 -0.3145 -0.7820
vn 0.7613 -0.6151 0.2050
vn 0.7376 -0.6577 -0.1527
vn 0.8782 -0.3646 -0.3095
vn 0.9888 -0.1409 -0.0488
vn 0.9166 -0.2957 0.2691
vn 0.0537 -0.6164 0.7856
vn 0.3874 -0.6515 0.6523
vn 0.5736 -0.3546 0.7384
vn 0.3551 -0.1360 0.9249
vn 0.0338 -0.2978 0.9540
vn -0.8902 -0.3181 0.3262
vn -0.7170 -0.6329 0.2921
vn -0.4864 -0.6638 0.5681
vn -0.5171 -0.3681 0.7727
vn -0.7666 -0.1544 0.6232
vn -0.0039 0.3593 -0.9332
vn -0.2876 0.1366 -0.9480
vn -0.5618 0.2935 -0.7735
vn -0.4476 0.6132 -0.6509
vn -0.1028 0.6538 -0.7496
vn 0.8783 0.3791 -0.2911
vn 0.8095 0.1557 -0.5661
vn 0.5554 0.3078 -0.7725
vn 0.4673 0.6253 -0.6251
vn 0.6669 0.6693 -0.3276
vn 0.5402 0.3886 0.7464
vn 0.7851 0.1709 0.5953
vn 0.8995 0.3264 0.2903
vn 0.7253 0.6403 0.2530
vn 0.5032 0.6787 0.5349
vn -0.5511 0.3746 0.7456
vn -0.3270 0.1611 0.9312
vn -0.0050 0.3236 0.9462
vn -0.0301 0.6375 0.7699
vn -0.3676 0.6691 0.6459
vn -0.8873 0.3565 -0.2925
vn -0.9899 0.1399 -0.0226
vn -0.9081 0.3032 0.2887
vn -0.7550 0.6208 0.2113
vn -0.7422 0.6537 -0.1480
vn 0.1117 0.9494 -0.2936
vn -0.2410 0.9459 -0.2173
vn -0.2776 0.9502 0.1417
vn 0.0527 0.9564 0.2874
vn 0.2933 0.9559 0.0184
vn 0.3130 -0.8422 -0.4390
vn 0.0144 -0.8472 -0.5310
vn -0.5038 -0.8489 -0.1597
vn -0.3240 -0.8500 -0.4153
vn -0.2933 -0.4017 -0.8675
vn -0.2368 -0.6648 -0.7085
vn -0.9172 -0.3979 0.0193
vn -0.7495 -0.6617 0.0203
vn -0.3109 -0.8384 0.4478
vn -0.4984 -0.8441 0.1978
vn 0.5323 -0.8314 0.1595
vn 0.5276 -0.8356 -0.1530
vn 0.7428 -0.3842 -0.5484
vn 0.6147 -0.6504 -0.4462
vn 0.0308 -0.8326 0.5531
vn 0.3266 -0.8301 0.4519
vn 0.7592 -0.3695 0.5357
vn 0.6283 -0.6383 0.4448
vn -0.2667 -0.3780 0.8866
vn -0.2149 -0.6453 0.7331
vn -0.9057 0.0650 -0.4189
vn -0.9819 -0.0969 -0.1626
vn -0.8926 0.0766 0.4443
vn -0.9765 -0.0921 0.1949
vn 0.1169 0.0705 -0.9906
vn -0.1469 -0.0972 -0.9844
vn -0.7000 0.0637 -0.7113
vn -0.4852 -0.1000 -0.8687
vn 0.9765 0.0921 -0.1949
vn 0.8926 -0.0766 -0.4443
vn 0.4585 0.0762 -0.8854
vn 0.6781 -0.0832 -0.7303
vn 0.4852 0.1000 0.8687
vn 0.7000 -0.0637 0.7113
vn 0.9819 0.0969 0.1626
vn 0.9057 -0.0650 0.4189
vn -0.6781 0.0832 0.7303
vn -0.4585 -0.0762 0.8854
vn 0.1469 0.0972 0.9844
vn -0.1169 -0.0705 0.9906
vn -0.6283 0.6383 -0.4448
vn -0.7592 0.3695 -0.5357
vn 0.2149 0.6453 -0.7331
vn 0.2667 0.3780 -0.8866
vn 0.7495 0.6617 -0.0203
vn 0.9172 0.3979 -0.0193
vn 0.2368 0.6648 0.7085
vn 0.2933 0.4017 0.8675
vn -0.6147 0.6504 0.4462
vn -0.7428 0.3842 0.5484
vn -0.0308 0.8326 -0.5531
vn -0.3266 0.8301 -0.4519
vn -0.5276 0.8356 0.1530
vn -0.5323 0.8314 -0.1595
vn 0.4984 0.8441 -0.1978
vn 0.3109 0.8384 -0.4478
vn 0.3240 0.8500 0.4153
vn 0.5038 0.8489 0.1597
vn -0.3130 0.8422 0.4390
vn -0.0144 0.8472 0.5310
vn 0.4958 -0.7931 -0.3537
vn -0.1861 -0.8047 -0.5638
vn -0.5968 -0.8022 0.0199
vn 0.5066 -0.7835 0.3598
vn -0.1686 -0.7891 0.5907
vn -0.9796 -0.2000 0.0176
vn -0.8057 0.1697 -0.5675
vn -0.3153 -0.2040 -0.9268
vn 0.2869 0.1788 -0.9411
vn 0.7881 -0.1853 -0.5869
vn 0.9796 0.2000 -0.0176
vn 0.8057 -0.1697 0.5675
vn 0.3153 0.2040 0.9268
vn -0.2869 -0.1788 0.9411
vn -0.7881 0.1853 0.5869
vn 0.1686 0.7891 -0.5907
vn -0.5066 0.7835 -0.3598
vn 0.5968 0.8022 -0.0199
vn 0.1861 0.8047 0.5638
vn -0.4958 0.7931 0.3537
vn 0.7186 0.0314 -0.6947
vn 0.3772 0.0658 -0.9238
vn 0.9198 0.2470 -0.3048
vn 0.2876 0.0852 -0.9540
vn 0.6238 0.3379 -0.7048
vn 0.8791 0.2798 -0.3859
vn 0.7097 0.0745 0.7005
vn 0.8858 0.2660 0.3803
vn 0.2910 0.0938 0.9521
vn 0.6149 0.3810 0.6904
vn 0.3538 0.1603 0.9215
vn 0.9005 0.3159 0.2989
vn -0.6149 -0.3810 -0.6904
vn -0.8742 -0.3034 -0.3791
vn -0.2754 -0.1440 -0.9505
vn -0.7098 -0.0745 -0.7005
vn -0.3654 -0.1229 -0.9227
vn -0.9160 -0.2657 -0.3006
vn -0.6238 -0.3379 0.7047
vn -0.3657 -0.1032 0.9250
vn -0.9043 -0.2972 0.3064
vn -0.7186 -0.0314 0.6947
vn -0.8907 -0.2424 0.3847
vn -0.3031 -0.0349 0.9523
vn 0.8851 0.2611 -0.3852
vn 0.8802 0.2848 0.3796
vn -0.8802 -0.2848 -0.3796
vn 0.5981 -0.3870 -0.7018
vn 0.3398 -0.1574 -0.9272
vn 0.8894 -0.3334 -0.3127
vn 0.2782 -0.0891 -0.9564
vn 0.7001 -0.0827 -0.7092
vn 0.8751 -0.2821 -0.3933
vn 0.6233 -0.3609 0.6937
vn 0.8765 -0.3050 0.3725
vn 0.2959 -0.1034 0.9496
vn 0.7253 -0.0566 0.6861
vn 0.3857 -0.0858 0.9186
vn 0.9171 -0.2722 0.2913
vn -0.7253 0.0566 -0.6861
vn -0.8889 0.2679 -0.3717
vn -0.3126 0.0535 -0.9484
vn -0.6234 0.3609 -0.6937
vn -0.3732 0.1229 -0.9196
vn -0.9003 0.3220 -0.2927
vn -0.7000 0.0827 0.7093
vn -0.3523 0.1203 0.9281
vn -0.9061 0.2835 0.3139
vn -0.5981 0.3870 0.7018
vn -0.8626 0.3192 0.3924
vn -0.2615 0.1390 0.9551
vn 0.8828 -0.2865 0.3722
vn -0.8690 0.3007 0.3929
vn -0.3461 0.1389 0.9279
vn -0.8828 0.2865 -0.3723
vn 0.7450 0.0165 -0.6668
vn 0.4193 0.0882 -0.9035
vn 0.9512 0.1734 -0.2553
vn 0.3341 0.1145 -0.9356
vn 0.6870 0.3043 -0.6598
vn 0.9181 0.2114 -0.3353
vn 0.6829 -0.0299 0.7299
vn 0.8911 0.1510 0.4279
vn 0.2589 0.0043 0.9659
vn 0.6248 0.2580 0.7369
vn 0.3301 0.0620 0.9419
vn 0.9148 0.2004 0.3507
vn -0.6249 -0.2580 -0.7369
vn -0.8840 -0.1861 -0.4288
vn -0.2494 -0.0514 -0.9670
vn -0.6829 0.0299 -0.7299
vn -0.3372 -0.0269 -0.9411
vn -0.9243 -0.1533 -0.3495
vn -0.6870 -0.3044 0.6598
vn -0.4122 -0.1232 0.9027
vn -0.9417 -0.2205 0.2541
vn -0.7450 -0.0164 0.6669
vn -0.9251 -0.1764 0.3362
vn -0.3436 -0.0674 0.9367
vn 0.9217 0.1939 -0.3358
vn -0.0152 -0.1753 0.9844
vn -0.9218 -0.1939 0.3358
vn -0.8878 -0.1686 -0.4283
vn -0.1975 0.9800 0.0237
vn 0.6378 -0.3369 -0.6926
vn 0.3651 -0.1350 -0.9211
vn 0.9141 -0.2757 -0.2972
vn 0.2988 -0.0745 -0.9514
vn 0.7137 -0.0533 -0.6985
vn 0.8970 -0.2294 -0.3779
vn 0.6376 -0.3084 0.7060
vn 0.8877 -0.2483 0.3879
vn 0.2863 -0.0820 0.9546
vn 0.7135 -0.0247 0.7002
vn 0.3742 -0.0628 0.9252
vn 0.9265 -0.2170 0.3074
vn -0.7136 0.0247 -0.7002
vn -0.8969 0.2137 -0.3872
vn -0.2986 0.0356 -0.9537
vn -0.6377 0.3084 -0.7059
vn -0.3649 0.0973 -0.9260
vn -0.9141 0.2633 -0.3084
vn -0.7137 0.0533 0.6985
vn -0.3743 0.1006 0.9218
vn -0.9266 0.2293 0.2980
vn -0.6378 0.3370 0.6926
vn -0.8877 0.2639 0.3772
vn -0.2864 0.1209 0.9504
vn 0.3696 -0.0801 0.9258
vn -0.3695 0.0801 -0.9258
vn -0.8924 0.2310 -0.3875
vn 0.3438 -0.9391 0.0004
vn 0.6856 -0.6457 -0.3362
vn 0.9390 -0.3439 -0.0087
vn 0.6303 0.6509 -0.4232
vn 0.3436 0.9331 -0.1059
vn 0.9383 0.3385 -0.0715
vn 0.4198 -0.8997 0.1199
vn 0.9611 -0.2551 0.1064
vn 0.6690 -0.5938 0.4471
vn 0.2596 0.9657 0.0107
vn 0.6134 0.7029 0.3602
vn 0.9043 0.4248 0.0425
vn -0.3415 -0.9399 0.0036
vn -0.9354 -0.3475 -0.0660
vn -0.6135 -0.7028 -0.3601
vn -0.3412 0.9298 -0.1379
vn -0.6690 0.5938 -0.4470
vn -0.9368 0.3371 -0.0937
vn -0.2630 -0.9564 0.1268
vn -0.6302 -0.6509 0.4233
vn -0.9065 -0.4180 0.0599
vn -0.4222 0.9063 -0.0176
vn -0.9640 0.2641 0.0311
vn -0.6856 0.6457 0.3362
vn 0.4217 -0.9041 0.0688
vn 0.9391 -0.3410 0.0426
vn 0.3428 0.9378 -0.0548
vn 0.0309 -0.8926 0.4499
vn -0.3427 -0.9379 0.0548
vn -0.9066 -0.4219 0.0087
vn -0.4213 0.9043 -0.0689
vn -0.9392 0.3409 -0.0425
vn -0.0409 0.9895 -0.1389
vn -0.0426 0.9969 -0.0669
vn 0.0594 -0.9415 -0.3319
vn 0.0948 -0.3504 -0.9318
vn 0.2332 -0.7270 -0.6458
vn 0.0757 0.3353 -0.9391
vn 0.0354 0.9363 -0.3494
vn 0.2135 0.6623 -0.7182
vn 0.0234 -0.9352 0.3533
vn 0.1438 -0.6561 0.7409
vn -0.0320 -0.3346 0.9418
vn -0.0156 0.9422 0.3346
vn -0.0360 0.3514 0.9355
vn 0.1243 0.7333 0.6685
vn 0.0035 -0.9672 -0.2541
vn -0.1243 -0.7333 -0.6685
vn 0.0428 -0.4295 -0.9020
vn -0.0103 0.9024 -0.4307
vn 0.0275 0.2532 -0.9670
vn -0.1438 0.6561 -0.7408
vn -0.0334 -0.9032 0.4279
vn -0.0862 -0.2543 0.9633
vn -0.2135 -0.6623 0.7182
vn -0.0622 0.9662 0.2503
vn -0.2331 0.7270 0.6458
vn -0.0865 0.4287 0.8993
vn 0.1908 -0.9796 0.0624
vn 0.0168 0.9986 -0.0500
vn 0.1630 0.9858 -0.0400
vn -0.0115 -0.9030 0.4295
vn -0.0375 0.9421 0.3333
vn -0.1631 -0.9858 0.0400
vn -0.1908 0.9796 -0.0624
vn 0.0376 -0.9421 -0.3333
vn 0.0646 -0.4292 -0.9009
vn 0.0559 -0.8951 -0.4424
vn 0.0627 -0.2375 -0.9694
vn 0.2271 -0.6411 -0.7331
vn 0.0369 0.4441 -0.8952
vn 0.0156 0.9712 -0.2379
vn 0.1927 0.7430 -0.6409
vn 0.0480 -0.9697 0.2395
vn 0.1930 -0.7342 0.6509
vn 0.0105 -0.4430 0.8964
vn -0.0086 0.8962 0.4435
vn 0.0009 0.2389 0.9711
vn 0.1586 0.6500 0.7432
vn -0.0008 -0.9306 -0.3660
vn -0.1586 -0.6500 -0.7432
vn 0.0085 -0.3203 -0.9473
vn -0.0371 0.9464 -0.3208
vn -0.0159 0.3651 -0.9308
vn -0.1931 0.7342 -0.6509
vn -0.0102 -0.9475 0.3196
vn -0.0477 -0.3667 0.9291
vn -0.1927 -0.7431 0.6408
vn -0.0629 0.9291 0.3644
vn -0.2271 0.6411 0.7331
vn -0.0558 0.3191 0.9461
vn 0.1666 0.9835 0.0702
vn 0.0135 -0.9472 0.3204
vn -0.0323 0.8959 0.4431
vn -0.1667 -0.9835 -0.0702
vn -0.0135 0.9472 -0.3202
vn 0.0132 0.4438 -0.8960
vn 0.0155 -0.9987 -0.0476
vn 0.0599 -0.9067 -0.4176
vn 0.2229 -0.9647 -0.1404
vn 0.0393 0.9321 -0.3600
vn 0.0310 0.9974 -0.0653
vn 0.2308 0.9578 -0.1712
vn 0.0272 -0.9977 0.0627
vn 0.2358 -0.9601 0.1506
vn 0.0619 -0.9326 0.3555
vn 0.0291 0.9985 0.0456
vn 0.1050 0.9059 0.4103
vn 0.2435 0.9625 0.1198
vn -0.0353 -0.9989 -0.0308
vn -0.2436 -0.9625 -0.1198
vn -0.0696 -0.9430 -0.3255
vn -0.0210 0.9968 -0.0776
vn -0.0977 0.8931 -0.4391
vn -0.2358 0.9601 -0.1506
vn -0.0236 -0.9966 0.0795
vn -0.0672 -0.8923 0.4464
vn -0.2308 -0.9578 0.1712
vn -0.0229 0.9992 0.0333
vn -0.2230 0.9647 0.1404
vn -0.0317 0.9435 0.3299
vn 0.1715 0.9849 -0.0232
vn 0.0189 0.9445 0.3281
vn -0.1715 -0.9849 0.0232
vn -0.0251 0.9996 -0.0147
vn -0.1635 0.9865 -0.0084
vn 0.0013 0.9969 -0.0785
vn 0.7086 -0.1476 -0.6900
vn 0.3932 0.0492 -0.9181
vn 0.9559 0.0405 -0.2910
vn 0.3094 0.1129 -0.9442
vn 0.6781 0.3158 -0.6636
vn 0.9235 0.1104 -0.3672
vn 0.6942 -0.2269 0.6831
vn 0.9193 0.0090 0.3934
vn 0.2946 -0.0738 0.9528
vn 0.6638 0.2366 0.7095
vn 0.3702 0.0002 0.9290
vn 0.9445 0.0827 0.3179
vn -0.6638 -0.2366 -0.7095
vn -0.9156 -0.0664 -0.3966
vn -0.2896 -0.0033 -0.9572
vn -0.6942 0.2268 -0.6831
vn -0.3740 0.0571 -0.9257
vn -0.9496 -0.0056 -0.3134
vn -0.6782 -0.3158 0.6636
vn -0.3894 -0.1066 0.9149
vn -0.9508 -0.1175 0.2865
vn -0.7085 0.1476 0.6900
vn -0.9274 -0.0531 0.3704
vn -0.3144 -0.0359 0.9486
vn 0.9860 -0.1666 0.0007
vn 0.3914 0.0779 -0.9169
vn 0.9259 0.0818 -0.3689
vn 0.9179 0.0377 0.3951
vn -0.9259 -0.0818 0.3689
vn -0.3915 -0.0779 0.9169
vn -0.3722 0.0285 -0.9277
vn -0.9178 -0.0377 -0.3951
vn 0.6363 -0.2748 -0.7208
vn 0.3312 -0.0551 -0.9419
vn 0.9314 -0.0944 -0.3516
vn 0.2539 0.0167 -0.9671
vn 0.6627 0.1896 -0.7245
vn 0.9023 -0.0258 -0.4304
vn 0.7086 -0.2680 0.6528
vn 0.9392 -0.0795 0.3341
vn 0.3496 -0.0512 0.9355
vn 0.7350 0.1964 0.6491
vn 0.4315 0.0115 0.9021
vn 0.9675 -0.0142 0.2523
vn -0.7350 -0.1964 -0.6490
vn -0.9425 0.0220 -0.3335
vn -0.3540 -0.0261 -0.9349
vn -0.7086 0.2680 -0.6527
vn -0.4282 0.0460 -0.9025
vn -0.9632 0.0914 -0.2529
vn -0.6628 -0.1896 0.7244
vn -0.3345 -0.0024 0.9424
vn -0.9357 0.0172 0.3523
vn -0.6364 0.2748 0.7208
vn -0.8990 0.0833 0.4299
vn -0.2495 0.0606 0.9665
vn 0.9010 -0.0546 -0.4304
vn 0.9985 -0.0164 -0.0524
vn 0.4301 -0.0173 0.9026
vn 0.9412 -0.0508 0.3340
vn -0.9010 0.0545 0.4304
vn -0.9833 -0.1745 0.0526
vn -0.9413 0.0508 -0.3338
vn -0.0642 -0.2347 -0.9699
vn 0.2776 -0.9502 -0.1417
vn 0.2411 -0.9459 0.2173
vn -0.1118 -0.9494 0.2936
vn -0.2932 -0.9559 -0.0183
vn -0.0527 -0.9564 -0.2874
vn -0.7253 -0.6403 -0.2530
vn -0.8995 -0.3264 -0.2903
vn -0.7851 -0.1709 -0.5953
vn -0.5402 -0.3886 -0.7464
vn -0.5032 -0.6787 -0.5349
vn 0.3676 -0.6691 -0.6459
vn 0.0301 -0.6375 -0.7699
vn 0.0050 -0.3235 -0.9462
vn 0.3270 -0.1611 -0.9312
vn 0.5511 -0.3746 -0.7456
vn 0.7422 -0.6537 0.1480
vn 0.7550 -0.6208 -0.2113
vn 0.9081 -0.3032 -0.2887
vn 0.9899 -0.1399 0.0226
vn 0.8873 -0.3565 0.2925
vn 0.1028 -0.6538 0.7496
vn 0.4476 -0.6132 0.6509
vn 0.5618 -0.2935 0.7735
vn 0.2876 -0.1366 0.9480
vn 0.0039 -0.3593 0.9332
vn -0.8783 -0.3792 0.2911
vn -0.6669 -0.6693 0.3276
vn -0.4672 -0.6253 0.6251
vn -0.5554 -0.3078 0.7725
vn -0.8095 -0.1557 0.5661
vn -0.0338 0.2978 -0.9540
vn -0.3551 0.1360 -0.9249
vn -0.5736 0.3546 -0.7384
vn -0.3873 0.6515 -0.6523
vn -0.0537 0.6164 -0.7856
vn 0.8902 0.3181 -0.3262
vn 0.7666 0.1544 -0.6232
vn 0.5171 0.3681 -0.7727
vn 0.4864 0.6638 -0.5681
vn 0.7170 0.6329 -0.2921
vn 0.5785 0.3284 0.7467
vn 0.8262 0.1706 0.5369
vn 0.8866 0.3865 0.2540
vn 0.6762 0.6777 0.2890
vn 0.4858 0.6417 0.5935
vn -0.5382 0.3145 0.7820
vn -0.2587 0.1623 0.9522
vn 0.0243 0.3844 0.9229
vn -0.0803 0.6739 0.7344
vn -0.4279 0.6307 0.6473
vn -0.9166 0.2956 -0.2691
vn -0.9888 0.1408 0.0488
vn -0.8782 0.3646 0.3095
vn -0.7376 0.6577 0.1527
vn -0.7613 0.6151 -0.2049
vn 0.0435 0.9482 -0.3146
vn -0.2821 0.9461 -0.1589
vn -0.2347 0.9515 0.1989
vn 0.1202 0.9569 0.2643
vn 0.2921 0.9549 -0.0531
vn -0.7495 -0.6616 0.0203
vn -0.3108 -0.8384 0.4478
vn 0.6148 -0.6504 -0.4462
vn 0.7592 -0.3695 0.5358
vn -0.1468 -0.0972 -0.9844
vn 0.4586 0.0762 -0.8854
vn -0.4586 -0.0762 0.8854
vn 0.1468 0.0972 0.9844
vn 0.7495 0.6616 -0.0203
vn -0.6148 0.6504 0.4462
vn 0.3108 0.8384 -0.4478
vn 0.3239 0.8500 0.4153
vt 0.128500 0.750000
vt 0.125000 0.746500
vt 0.128500 0.746500
vt 0.378500 0.996500
vt 0.376479 1.000000
vt 0.375000 0.996500
vt 0.378500 0.003500
vt 0.375000 0.001479
vt 0.378500 0.000000
vt 0.621500 0.996500
vt 0.625000 0.998521
vt 0.621500 1.000000
vt 0.875000 0.746500
vt 0.871500 0.750000
vt 0.871500 0.746500
vt 0.621500 0.003500
vt 0.623521 0.000000
vt 0.625000 0.003500
vt 0.125000 0.503500
vt 0.128500 0.500000
vt 0.128500 0.503500
vt 0.378500 0.246500
vt 0.375740 0.250740
vt 0.375000 0.246500
vt 0.378500 0.253500
vt 0.378500 0.250000
vt 0.871500 0.500000
vt 0.875000 0.503500
vt 0.871500 0.503500
vt 0.621500 0.253500
vt 0.624260 0.249260
vt 0.625000 0.253500
vt 0.621500 0.246500
vt 0.621500 0.250000
vt 0.375000 0.746500
vt 0.373250 0.751750
vt 0.371500 0.746500
vt 0.378500 0.746500
vt 0.375493 0.750000
vt 0.378500 0.753500
vt 0.378500 0.750000
vt 0.626750 0.751750
vt 0.625000 0.746500
vt 0.628500 0.746500
vt 0.621500 0.753500
vt 0.625000 0.749507
vt 0.621500 0.746500
vt 0.621500 0.750000
vt 0.373250 0.498250
vt 0.375000 0.503500
vt 0.371500 0.503500
vt 0.378500 0.496500
vt 0.375000 0.500493
vt 0.378500 0.503500
vt 0.378500 0.500000
vt 0.625000 0.503500
vt 0.626750 0.498250
vt 0.628500 0.503500
vt 0.621500 0.503500
vt 0.624507 0.500000
vt 0.621500 0.496500
vt 0.621500 0.500000
vt 0.375000 0.003500
vt 0.378500 1.000000
vt 0.621500 0.000000
vt 0.625000 0.246500
vt 0.625000 0.996500
vt 0.871500 0.746500
vt 0.378500 0.246500
vt 0.871500 0.503500
vt 0.621500 0.246500
vt 0.378500 0.753500
vt 0.621500 0.753500
vt 0.371500 0.503500
vt 0.626750 0.498250
vt 0.628500 0.503500
vt 0.375000 0.253500
vt 0.621500 0.003500
vt 0.128500 0.503500
vt 0.378500 0.253500
vt 0.871500 0.503500
vt 0.621500 0.253500
vt 0.371500 0.746500
vt 0.378500 0.746500
vt 0.625000 0.746500
vt 0.621500 0.746500
vt 0.621500 0.496500
vt 0.378500 0.250000
vt 0.871500 0.503500
vt 0.128500 0.746500
vt 0.126479 0.750000
vt 0.875000 0.748521
vt 0.125000 0.501479
vt 0.873521 0.500000
vt 0.378500 0.003500
vt 0.909091 0.044017
vt 0.905013 0.007063
vt 0.928151 0.033013
vt 0.727273 0.044017
vt 0.723195 0.007063
vt 0.746332 0.033012
vt 0.545455 0.044017
vt 0.541377 0.007063
vt 0.564515 0.033013
vt 0.363637 0.044017
vt 0.359559 0.007063
vt 0.382697 0.033013
vt 0.181819 0.044017
vt 0.177741 0.007063
vt 0.200879 0.033013
vt 0.310847 0.135453
vt 0.271912 0.158874
vt 0.272728 0.124449
vt 0.310847 0.179469
vt 0.310847 0.157461
vt 0.272728 0.201477
vt 0.291787 0.190473
vt 0.234609 0.179469
vt 0.253669 0.190473
vt 0.234609 0.135453
vt 0.234609 0.157461
vt 0.961881 0.135453
vt 0.993883 0.153930
vt 0.961881 0.157461
vt 0.129029 0.135453
vt 0.093628 0.162170
vt 0.109970 0.124449
vt 0.129029 0.179469
vt 0.129029 0.157461
vt 0.090910 0.201477
vt 0.109970 0.190473
vt 0.961881 0.179469
vt 0.980940 0.190473
vt 0.780063 0.135453
vt 0.817366 0.158874
vt 0.780063 0.157461
vt 0.856301 0.135453
vt 0.818182 0.124448
vt 0.856301 0.179469
vt 0.856301 0.157461
vt 0.818182 0.201478
vt 0.837242 0.190473
vt 0.780063 0.179469
vt 0.799122 0.190473
vt 0.598245 0.135453
vt 0.635549 0.158874
vt 0.598245 0.157461
vt 0.674483 0.135453
vt 0.636364 0.124449
vt 0.674483 0.179469
vt 0.674483 0.157461
vt 0.636364 0.201477
vt 0.655424 0.190473
vt 0.598245 0.179469
vt 0.617305 0.190473
vt 0.416427 0.179469
vt 0.453731 0.158874
vt 0.435487 0.190473
vt 0.416427 0.135453
vt 0.416427 0.157461
vt 0.492665 0.135453
vt 0.454546 0.124449
vt 0.492665 0.179469
vt 0.492665 0.157461
vt 0.454546 0.201477
vt 0.473605 0.190473
vt 0.143700 0.292913
vt 0.182635 0.313508
vt 0.143700 0.314921
vt 0.181819 0.270905
vt 0.162760 0.281909
vt 0.219938 0.292913
vt 0.200879 0.281909
vt 0.219938 0.336929
vt 0.219938 0.314921
vt 0.143700 0.336929
vt 0.181819 0.347934
vt 0.870972 0.292913
vt 0.906373 0.310212
vt 0.870972 0.314921
vt 0.909091 0.270905
vt 0.890032 0.281909
vt 0.038119 0.292913
vt 0.006117 0.318452
vt 0.019060 0.281909
vt 0.038120 0.336929
vt 0.038120 0.314921
vt 0.870972 0.336929
vt 0.890032 0.347934
vt 0.689154 0.292913
vt 0.728088 0.313508
vt 0.689154 0.314921
vt 0.727273 0.270905
vt 0.708214 0.281909
vt 0.765392 0.292913
vt 0.746332 0.281909
vt 0.765392 0.336929
vt 0.765392 0.314921
vt 0.689154 0.336929
vt 0.727273 0.347933
vt 0.507336 0.292913
vt 0.546271 0.313508
vt 0.507336 0.314921
vt 0.545455 0.270905
vt 0.526395 0.281909
vt 0.583574 0.292913
vt 0.564514 0.281909
vt 0.583574 0.336929
vt 0.583574 0.314921
vt 0.507336 0.336929
vt 0.545455 0.347933
vt 0.325518 0.292913
vt 0.364453 0.313508
vt 0.325518 0.314921
vt 0.363637 0.270904
vt 0.344577 0.281909
vt 0.401756 0.292913
vt 0.382697 0.281909
vt 0.401756 0.336929
vt 0.401756 0.314921
vt 0.325518 0.336929
vt 0.363637 0.347934
vt 0.090910 0.428365
vt 0.094988 0.465319
vt 0.071850 0.439369
vt 0.272728 0.428365
vt 0.276806 0.465319
vt 0.253668 0.439369
vt 0.454546 0.428365
vt 0.458624 0.465319
vt 0.435487 0.439370
vt 0.636364 0.428365
vt 0.640442 0.465319
vt 0.617304 0.439369
vt 0.818182 0.428365
vt 0.822260 0.465319
vt 0.799122 0.439369
vt 0.980940 0.124449
vt 0.344577 0.033013
vt 0.526395 0.033013
vt 0.071850 0.190473
vt 0.928150 0.281909
vt 0.109970 0.439369
vt 0.291787 0.439370
vt 0.837242 0.439369
vt 0.655424 0.439369
vt 0.473606 0.439369
vt 0.890032 0.033012
vt 0.708213 0.033013
vt 0.162759 0.033013
vt 0.019060 0.347933
s 0
usemtl wood
f 4/1/1 7/2/1 1/3/1
f 2/4/2 5/5/2 4/6/2
f 3/7/3 5/8/3 6/9/3
f 8/10/4 12/11/4 14/12/4
f 13/13/5 11/14/5 9/15/5
f 10/16/6 12/17/6 13/18/6
f 18/19/7 21/20/7 15/21/7
f 16/22/8 19/23/8 18/24/8
f 17/25/9 19/23/9 20/26/9
f 25/27/10 28/28/10 22/29/10
f 23/30/11 26/31/11 25/32/11
f 24/33/12 26/31/12 27/34/12
f 32/35/13 35/36/13 29/37/13
f 30/38/14 33/39/14 32/35/14
f 31/40/15 33/39/15 34/41/15
f 39/42/16 42/43/16 36/44/16
f 37/45/17 40/46/17 39/42/17
f 38/47/18 40/46/18 41/48/18
f 46/49/19 49/50/19 43/51/19
f 44/52/20 47/53/20 46/49/20
f 45/54/21 47/53/21 48/55/21
f 53/56/22 56/57/22 50/58/22
f 51/59/23 54/60/23 53/56/23
f 52/61/24 54/60/24 55/62/24
f 1/3/25 18/19/25 15/21/25
f 7/63/26 16/22/26 18/24/26
f 2/4/27 14/12/27 6/64/27
f 14/65/28 3/7/28 6/9/28
f 9/15/29 28/28/29 13/13/29
f 28/66/30 10/16/30 13/18/30
f 23/30/31 20/26/31 27/34/31
f 27/34/32 16/22/32 24/33/32
f 15/21/33 46/49/33 43/51/33
f 46/49/34 17/25/34 44/52/34
f 50/58/35 25/27/35 22/29/35
f 25/32/36 52/61/36 23/30/36
f 51/59/37 48/55/37 55/62/37
f 48/55/38 52/61/38 55/62/38
f 43/51/39 32/35/39 29/37/39
f 32/35/40 45/54/40 30/38/40
f 36/44/41 53/56/41 50/58/41
f 53/56/42 38/47/42 51/59/42
f 37/45/43 34/41/43 41/48/43
f 41/48/44 30/38/44 38/47/44
f 29/37/45 4/1/45 1/3/45
f 35/36/46 2/4/46 4/6/46
f 9/15/47 39/42/47 36/44/47
f 11/67/48 37/45/48 39/42/48
f 43/51/49 1/3/49 15/21/49
f 3/7/50 24/33/50 16/22/50
f 37/45/51 2/4/51 31/40/51
f 50/58/52 9/15/52 36/44/52
f 23/30/53 44/52/53 17/25/53
f 51/59/54 30/38/54 45/54/54
f 60/1/55 63/2/55 57/3/55
f 58/4/56 61/5/56 60/6/56
f 59/7/57 61/8/57 62/9/57
f 64/10/58 68/11/58 70/12/58
f 69/13/59 67/14/59 65/68/59
f 66/16/60 68/17/60 69/18/60
f 74/19/61 77/20/61 71/21/61
f 72/69/62 75/23/62 74/24/62
f 73/25/63 75/23/63 76/26/63
f 81/27/64 84/28/64 78/70/64
f 79/30/65 82/31/65 81/32/65
f 80/71/66 82/31/66 83/34/66
f 88/35/67 91/36/67 85/37/67
f 86/38/68 89/39/68 88/35/68
f 87/72/69 89/39/69 90/41/69
f 95/42/70 98/43/70 92/44/70
f 93/73/71 96/46/71 95/42/71
f 94/47/72 96/46/72 97/48/72
f 102/49/73 105/50/73 99/74/73
f 100/52/74 103/53/74 102/49/74
f 101/54/75 103/53/75 104/55/75
f 109/56/76 112/75/76 106/76/76
f 107/59/77 110/60/77 109/56/77
f 108/61/78 110/60/78 111/62/78
f 57/3/79 74/19/79 71/21/79
f 74/24/80 59/7/80 72/69/80
f 64/10/81 62/64/81 58/4/81
f 62/9/82 66/16/82 59/7/82
f 65/68/83 84/28/83 69/13/83
f 84/66/84 66/16/84 69/18/84
f 79/30/85 76/26/85 83/34/85
f 76/26/86 80/71/86 83/34/86
f 99/74/87 77/20/87 102/49/87
f 77/77/88 100/52/88 102/49/88
f 106/76/89 81/27/89 78/70/89
f 81/32/90 108/61/90 79/30/90
f 107/59/91 104/55/91 111/62/91
f 104/55/92 108/61/92 111/62/92
f 99/74/93 88/35/93 85/37/93
f 105/50/94 86/38/94 88/35/94
f 92/44/95 109/56/95 106/76/95
f 98/43/96 107/59/96 109/56/96
f 87/72/97 97/48/97 93/73/97
f 97/48/98 86/38/98 94/47/98
f 85/37/99 60/1/99 57/3/99
f 91/36/100 58/4/100 60/6/100
f 92/44/101 67/14/101 95/42/101
f 95/42/102 64/10/102 93/73/102
f 71/21/103 85/37/103 57/3/103
f 66/16/104 72/69/104 59/7/104
f 93/73/105 58/4/105 87/72/105
f 78/70/106 92/44/106 106/76/106
f 73/25/107 108/61/107 100/52/107
f 101/54/108 94/47/108 86/38/108
f 116/1/109 119/2/109 113/3/109
f 114/4/110 117/5/110 116/6/110
f 115/7/111 117/8/111 118/9/111
f 120/10/112 124/11/112 126/12/112
f 125/13/113 123/14/113 121/68/113
f 122/78/114 124/17/114 125/18/114
f 130/19/115 133/20/115 127/79/115
f 128/22/116 131/23/116 130/24/116
f 129/80/117 131/23/117 132/26/117
f 137/27/118 140/28/118 134/81/118
f 135/82/119 138/31/119 137/32/119
f 136/33/120 138/31/120 139/34/120
f 144/35/121 147/36/121 141/83/121
f 142/84/122 145/39/122 144/35/122
f 143/40/123 145/39/123 146/41/123
f 151/42/124 154/85/124 148/44/124
f 149/73/125 152/46/125 151/42/125
f 150/86/126 152/46/126 153/48/126
f 158/49/127 161/50/127 155/51/127
f 156/52/128 159/53/128 158/49/128
f 157/54/129 159/53/129 160/55/129
f 165/56/130 168/57/130 162/58/130
f 163/59/131 166/60/131 165/56/131
f 164/87/132 166/60/132 167/62/132
f 113/3/133 130/19/133 127/79/133
f 130/24/134 115/7/134 128/22/134
f 114/4/135 126/12/135 118/64/135
f 126/65/136 115/7/136 118/9/136
f 121/68/137 140/28/137 125/13/137
f 125/18/138 136/33/138 122/78/138
f 129/80/139 139/34/139 135/82/139
f 132/26/140 136/33/140 139/34/140
f 127/79/141 158/49/141 155/51/141
f 133/77/142 156/52/142 158/49/142
f 162/58/143 137/27/143 134/81/143
f 137/32/144 164/87/144 135/82/144
f 163/59/145 160/55/145 167/62/145
f 167/62/146 156/52/146 164/87/146
f 155/51/147 144/35/147 141/83/147
f 144/35/148 157/54/148 142/84/148
f 148/44/149 165/56/149 162/58/149
f 165/56/150 150/86/150 163/59/150
f 149/73/151 146/41/151 153/48/151
f 146/41/152 150/86/152 153/48/152
f 113/3/153 147/36/153 116/1/153
f 147/36/154 114/4/154 116/6/154
f 148/44/155 123/14/155 151/42/155
f 123/67/156 149/73/156 151/42/156
f 155/51/157 113/3/157 127/79/157
f 122/78/158 128/22/158 115/7/158
f 143/40/159 120/10/159 114/4/159
f 134/81/160 148/44/160 162/58/160
f 135/82/161 156/52/161 129/80/161
f 163/59/162 142/84/162 157/54/162
f 172/1/163 175/2/163 169/3/163
f 170/4/164 173/5/164 172/6/164
f 171/7/165 173/8/165 174/9/165
f 176/10/166 180/11/166 182/12/166
f 181/13/167 179/14/167 177/68/167
f 178/16/168 180/17/168 181/18/168
f 186/19/169 189/20/169 183/79/169
f 184/22/170 187/23/170 186/24/170
f 185/80/171 187/23/171 188/88/171
f 193/27/172 196/28/172 190/89/172
f 191/82/173 194/31/173 193/32/173
f 192/71/174 194/31/174 195/34/174
f 200/35/175 203/36/175 197/37/175
f 198/84/176 201/39/176 200/35/176
f 199/72/177 201/39/177 202/41/177
f 207/42/178 210/85/178 204/44/178
f 205/45/179 208/46/179 207/42/179
f 206/86/180 208/46/180 209/48/180
f 214/49/181 217/50/181 211/51/181
f 212/52/182 215/53/182 214/49/182
f 213/54/183 215/53/183 216/55/183
f 221/56/184 224/57/184 218/76/184
f 219/59/185 222/60/185 221/56/185
f 220/87/186 222/60/186 223/62/186
f 183/79/187 175/2/187 186/19/187
f 186/24/188 171/7/188 184/22/188
f 176/10/189 174/64/189 170/4/189
f 174/9/190 178/16/190 171/7/190
f 190/89/191 181/13/191 177/68/191
f 181/18/192 192/71/192 178/16/192
f 185/80/193 195/34/193 191/82/193
f 188/88/194 192/71/194 195/34/194
f 183/79/195 214/49/195 211/51/195
f 189/77/196 212/52/196 214/49/196
f 218/76/197 193/27/197 190/89/197
f 193/32/198 220/87/198 191/82/198
f 213/54/199 223/62/199 219/59/199
f 223/62/200 212/52/200 220/87/200
f 197/37/201 217/50/201 200/35/201
f 217/50/202 198/84/202 200/35/202
f 218/76/203 210/85/203 221/56/203
f 221/56/204 206/86/204 219/59/204
f 199/72/205 209/48/205 205/45/205
f 209/48/206 198/84/206 206/86/206
f 169/3/207 203/36/207 172/1/207
f 203/36/208 170/4/208 172/6/208
f 204/44/209 179/14/209 207/42/209
f 179/67/210 205/45/210 207/42/210
f 183/79/211 197/37/211 169/3/211
f 178/16/212 184/22/212 171/7/212
f 205/45/213 170/4/213 199/72/213
f 218/76/214 177/68/214 204/44/214
f 185/80/215 220/87/215 212/52/215
f 219/59/216 198/84/216 213/54/216
f 225/90/217 229/91/217 231/2/217
f 230/64/218 228/6/218 226/4/218
f 227/7/219 229/8/219 230/9/219
f 235/67/220 238/12/220 232/10/220
f 233/68/221 236/92/221 235/14/221
f 234/16/222 236/17/222 237/18/222
f 239/21/223 243/93/223 245/20/223
f 240/22/224 243/23/224 242/24/224
f 245/77/225 244/26/225 241/80/225
f 246/81/226 250/94/226 252/28/226
f 251/34/227 249/32/227 247/82/227
f 248/33/228 250/31/228 251/34/228
f 253/83/229 257/39/229 259/36/229
f 254/84/230 257/39/230 256/35/230
f 259/36/231 258/41/231 255/40/231
f 260/44/232 264/46/232 266/43/232
f 265/48/233 263/42/233 261/45/233
f 262/86/234 264/46/234 265/48/234
f 267/51/235 271/53/235 273/50/235
f 272/55/236 270/49/236 268/52/236
f 269/54/237 271/53/237 272/55/237
f 274/76/238 278/60/238 280/57/238
f 275/59/239 278/60/239 277/56/239
f 280/57/240 279/62/240 276/87/240
f 239/21/241 231/2/241 242/19/241
f 242/24/242 227/7/242 240/22/242
f 226/4/243 238/12/243 230/64/243
f 230/9/244 234/16/244 227/7/244
f 233/68/245 252/28/245 237/13/245
f 237/18/246 248/33/246 234/16/246
f 241/80/247 251/34/247 247/82/247
f 244/26/248 248/33/248 251/34/248
f 239/21/249 270/49/249 267/51/249
f 270/49/250 241/80/250 268/52/250
f 246/81/251 280/57/251 249/27/251
f 249/32/252 276/87/252 247/82/252
f 275/59/253 272/55/253 279/62/253
f 279/62/254 268/52/254 276/87/254
f 253/83/255 273/50/255 256/35/255
f 256/35/256 269/54/256 254/84/256
f 260/44/257 277/56/257 274/76/257
f 277/56/258 262/86/258 275/59/258
f 255/40/259 265/48/259 261/45/259
f 258/41/260 262/86/260 265/48/260
f 253/83/261 228/1/261 225/90/261
f 259/36/262 226/4/262 228/6/262
f 233/68/263 263/42/263 260/44/263
f 263/42/264 232/10/264 261/45/264
f 239/21/265 253/83/265 225/90/265
f 234/16/266 240/22/266 227/7/266
f 255/40/267 232/10/267 226/4/267
f 246/81/268 260/44/268 274/76/268
f 247/82/269 268/52/269 241/80/269
f 269/54/270 262/86/270 254/84/270
f 393/3/379 397/91/379 399/2/379
f 394/4/380 397/5/380 396/6/380
f 399/63/381 398/9/381 395/7/381
f 400/10/382 404/11/382 406/12/382
f 401/68/383 404/92/383 403/14/383
f 406/65/384 405/18/384 402/16/384
f 407/79/385 411/93/385 413/20/385
f 412/26/386 410/24/386 408/69/386
f 409/25/387 411/23/387 412/26/387
f 414/89/388 418/94/388 420/28/388
f 415/30/389 418/31/389 417/32/389
f 420/66/390 419/34/390 416/33/390
f 421/37/391 425/39/391 427/36/391
f 426/41/392 424/35/392 422/38/392
f 423/40/393 425/39/393 426/41/393
f 428/44/394 432/46/394 434/43/394
f 429/73/395 432/46/395 431/42/395
f 434/43/396 433/48/396 430/47/396
f 435/74/397 439/53/397 441/50/397
f 436/52/398 439/53/398 438/49/398
f 441/50/399 440/55/399 437/54/399
f 442/76/400 446/60/400 448/75/400
f 447/62/401 445/56/401 443/59/401
f 444/61/402 446/60/402 447/62/402
f 407/79/403 399/2/403 410/19/403
f 399/63/404 408/69/404 410/24/404
f 394/4/405 406/12/405 398/64/405
f 406/65/406 395/7/406 398/9/406
f 401/68/407 420/28/407 405/13/407
f 405/18/408 416/33/408 402/16/408
f 409/25/409 419/34/409 415/30/409
f 419/34/410 408/69/410 416/33/410
f 407/79/411 438/49/411 435/74/411
f 413/77/412 436/52/412 438/49/412
f 442/76/413 417/27/413 414/89/413
f 448/75/414 415/30/414 417/32/414
f 437/54/415 447/62/415 443/59/415
f 440/55/416 444/61/416 447/62/416
f 421/37/417 441/50/417 424/35/417
f 441/50/418 422/38/418 424/35/418
f 428/44/419 445/56/419 442/76/419
f 434/43/420 443/59/420 445/56/420
f 423/40/421 433/48/421 429/73/421
f 426/41/422 430/47/422 433/48/422
f 421/37/423 396/1/423 393/3/423
f 396/6/424 423/40/424 394/4/424
f 401/68/425 431/42/425 428/44/425
f 431/42/426 400/10/426 429/73/426
f 435/74/427 393/3/427 407/79/427
f 402/16/428 408/69/428 395/7/428
f 429/73/429 394/4/429 423/40/429
f 442/76/430 401/68/430 428/44/430
f 415/30/431 436/52/431 409/25/431
f 443/59/432 422/38/432 437/54/432
f 452/1/433 455/2/433 449/3/433
f 450/4/434 453/5/434 452/6/434
f 451/7/435 453/8/435 454/9/435
f 456/10/436 460/11/436 462/12/436
f 461/13/437 459/14/437 457/68/437
f 458/78/438 460/17/438 461/18/438
f 466/19/439 469/20/439 463/79/439
f 464/22/440 467/23/440 466/24/440
f 465/80/441 467/23/441 468/26/441
f 473/27/442 476/28/442 470/81/442
f 471/82/443 474/31/443 473/32/443
f 472/33/444 474/31/444 475/34/444
f 480/35/445 483/36/445 477/83/445
f 478/84/446 481/39/446 480/35/446
f 479/40/447 481/39/447 482/41/447
f 487/42/448 490/85/448 484/44/448
f 485/73/449 488/46/449 487/42/449
f 486/86/450 488/46/450 489/48/450
f 494/49/451 497/50/451 491/51/451
f 492/52/452 495/53/452 494/49/452
f 493/54/453 495/53/453 496/55/453
f 501/56/454 504/57/454 498/76/454
f 499/59/455 502/60/455 501/56/455
f 500/87/456 502/60/456 503/62/456
f 449/3/457 466/19/457 463/79/457
f 466/24/458 451/7/458 464/22/458
f 456/10/459 454/64/459 450/4/459
f 462/65/460 451/7/460 454/9/460
f 470/81/461 461/13/461 457/68/461
f 476/66/462 458/78/462 461/18/462
f 465/80/463 475/34/463 471/82/463
f 475/34/464 464/22/464 472/33/464
f 491/51/465 469/20/465 494/49/465
f 469/77/466 492/52/466 494/49/466
f 470/81/467 504/57/467 473/27/467
f 504/57/468 471/82/468 473/32/468
f 499/59/469 496/55/469 503/62/469
f 503/62/470 492/52/470 500/87/470
f 491/51/471 480/35/471 477/83/471
f 480/35/472 493/54/472 478/84/472
f 484/44/473 501/56/473 498/76/473
f 490/85/474 499/59/474 501/56/474
f 479/40/475 489/48/475 485/73/475
f 489/48/476 478/84/476 486/86/476
f 449/3/477 483/36/477 452/1/477
f 452/6/478 479/40/478 450/4/478
f 457/68/479 487/42/479 484/44/479
f 487/42/480 456/10/480 485/73/480
f 463/79/481 477/83/481 449/3/481
f 458/78/482 464/22/482 451/7/482
f 479/40/483 456/10/483 450/4/483
f 470/81/484 484/44/484 498/76/484
f 471/82/485 492/52/485 465/80/485
f 499/59/486 478/84/486 493/54/486
f 508/1/487 511/2/487 505/3/487
f 506/4/488 509/5/488 508/6/488
f 507/7/489 509/8/489 510/9/489
f 512/10/490 516/11/490 518/12/490
f 517/13/491 515/14/491 513/68/491
f 514/16/492 516/17/492 517/18/492
f 522/19/493 525/20/493 519/21/493
f 520/22/494 523/23/494 522/24/494
f 521/80/495 523/23/495 524/26/495
f 529/27/496 532/28/496 526/89/496
f 527/82/497 530/31/497 529/32/497
f 528/71/498 530/31/498 531/34/498
f 536/35/499 539/36/499 533/83/499
f 534/84/500 537/39/500 536/35/500
f 535/40/501 537/39/501 538/41/501
f 543/42/502 546/43/502 540/44/502
f 541/45/503 544/46/503 543/42/503
f 542/86/504 544/46/504 545/48/504
f 550/49/505 553/50/505 547/51/505
f 548/52/506 551/53/506 550/49/506
f 549/54/507 551/53/507 552/55/507
f 557/56/508 560/57/508 554/76/508
f 555/59/509 558/60/509 557/56/509
f 556/87/510 558/60/510 559/62/510
f 505/3/511 522/19/511 519/21/511
f 522/24/512 507/7/512 520/22/512
f 512/10/513 510/64/513 506/4/513
f 510/9/514 514/16/514 507/7/514
f 526/89/515 517/13/515 513/68/515
f 517/18/516 528/71/516 514/16/516
f 521/80/517 531/34/517 527/82/517
f 531/34/518 520/22/518 528/71/518
f 547/51/519 525/20/519 550/49/519
f 525/77/520 548/52/520 550/49/520
f 526/89/521 560/57/521 529/27/521
f 529/32/522 556/87/522 527/82/522
f 555/59/523 552/55/523 559/62/523
f 552/55/524 556/87/524 559/62/524
f 547/51/525 536/35/525 533/83/525
f 553/50/526 534/84/526 536/35/526
f 540/44/527 557/56/527 554/76/527
f 546/43/528 555/59/528 557/56/528
f 535/40/529 545/48/529 541/45/529
f 538/41/530 542/86/530 545/48/530
f 533/83/531 508/1/531 505/3/531
f 539/36/532 506/4/532 508/6/532
f 513/68/533 543/42/533 540/44/533
f 543/42/534 512/10/534 541/45/534
f 519/21/535 533/83/535 505/3/535
f 507/7/536 528/71/536 520/22/536
f 541/45/537 506/4/537 535/40/537
f 554/76/538 513/68/538 540/44/538
f 527/82/539 548/52/539 521/80/539
f 555/59/540 534/84/540 549/54/540
f 4/1/681 5/91/681 7/2/681
f 2/4/682 6/64/682 5/5/682
f 3/7/683 7/63/683 5/8/683
f 8/10/684 11/67/684 12/11/684
f 13/13/685 12/92/685 11/14/685
f 10/16/686 14/65/686 12/17/686
f 18/19/687 19/93/687 21/20/687
f 16/22/688 20/26/688 19/23/688
f 17/25/689 21/77/689 19/23/689
f 25/27/690 26/94/690 28/28/690
f 23/30/691 27/34/691 26/31/691
f 24/33/692 28/66/692 26/31/692
f 32/35/693 33/39/693 35/36/693
f 30/38/694 34/41/694 33/39/694
f 31/40/695 35/36/695 33/39/695
f 39/42/696 40/46/696 42/43/696
f 37/45/697 41/48/697 40/46/697
f 38/47/698 42/43/698 40/46/698
f 46/49/699 47/53/699 49/50/699
f 44/52/700 48/55/700 47/53/700
f 45/54/701 49/50/701 47/53/701
f 53/56/702 54/60/702 56/57/702
f 51/59/703 55/62/703 54/60/703
f 52/61/704 56/57/704 54/60/704
f 1/3/25 7/2/25 18/19/25
f 7/63/26 3/7/26 16/22/26
f 2/4/27 8/10/27 14/12/27
f 14/65/705 10/16/705 3/7/705
f 9/15/29 22/29/29 28/28/29
f 28/66/30 24/33/30 10/16/30
f 23/30/31 17/25/31 20/26/31
f 27/34/706 20/26/706 16/22/706
f 15/21/33 21/20/33 46/49/33
f 46/49/34 21/77/34 17/25/34
f 50/58/35 56/57/35 25/27/35
f 25/32/36 56/57/36 52/61/36
f 51/59/37 45/54/37 48/55/37
f 48/55/38 44/52/38 52/61/38
f 43/51/39 49/50/39 32/35/39
f 32/35/40 49/50/40 45/54/40
f 36/44/41 42/43/41 53/56/41
f 53/56/42 42/43/42 38/47/42
f 37/45/43 31/40/43 34/41/43
f 41/48/707 34/41/707 30/38/707
f 29/37/45 35/36/45 4/1/45
f 35/36/46 31/40/46 2/4/46
f 9/15/47 11/14/47 39/42/47
f 11/67/48 8/10/48 37/45/48
f 43/51/49 29/37/49 1/3/49
f 3/7/50 10/16/50 24/33/50
f 37/45/51 8/10/51 2/4/51
f 50/58/52 22/29/52 9/15/52
f 23/30/53 52/61/53 44/52/53
f 51/59/54 38/47/54 30/38/54
f 60/1/708 61/91/708 63/2/708
f 58/4/709 62/64/709 61/5/709
f 59/7/710 63/63/710 61/8/710
f 64/10/711 67/67/711 68/11/711
f 69/13/712 68/92/712 67/14/712
f 66/16/713 70/65/713 68/17/713
f 74/19/714 75/93/714 77/20/714
f 72/69/715 76/26/715 75/23/715
f 73/25/716 77/77/716 75/23/716
f 81/27/717 82/94/717 84/28/717
f 79/30/718 83/34/718 82/31/718
f 80/71/719 84/66/719 82/31/719
f 88/35/720 89/39/720 91/36/720
f 86/38/721 90/41/721 89/39/721
f 87/72/722 91/36/722 89/39/722
f 95/42/723 96/46/723 98/43/723
f 93/73/724 97/48/724 96/46/724
f 94/47/725 98/43/725 96/46/725
f 102/49/726 103/53/726 105/50/726
f 100/52/727 104/55/727 103/53/727
f 101/54/728 105/50/728 103/53/728
f 109/56/729 110/60/729 112/75/729
f 107/59/730 111/62/730 110/60/730
f 108/61/731 112/75/731 110/60/731
f 57/3/79 63/2/79 74/19/79
f 74/24/80 63/63/80 59/7/80
f 64/10/81 70/12/81 62/64/81
f 62/9/82 70/65/82 66/16/82
f 65/68/83 78/70/83 84/28/83
f 84/66/84 80/71/84 66/16/84
f 79/30/85 73/25/85 76/26/85
f 76/26/732 72/69/732 80/71/732
f 99/74/87 71/21/87 77/20/87
f 77/77/88 73/25/88 100/52/88
f 106/76/89 112/75/89 81/27/89
f 81/32/90 112/75/90 108/61/90
f 107/59/733 101/54/733 104/55/733
f 104/55/734 100/52/734 108/61/734
f 99/74/93 105/50/93 88/35/93
f 105/50/94 101/54/94 86/38/94
f 92/44/95 98/43/95 109/56/95
f 98/43/96 94/47/96 107/59/96
f 87/72/97 90/41/97 97/48/97
f 97/48/735 90/41/735 86/38/735
f 85/37/99 91/36/99 60/1/99
f 91/36/100 87/72/100 58/4/100
f 92/44/101 65/68/101 67/14/101
f 95/42/102 67/67/102 64/10/102
f 71/21/103 99/74/103 85/37/103
f 66/16/104 80/71/104 72/69/104
f 93/73/105 64/10/105 58/4/105
f 78/70/106 65/68/106 92/44/106
f 73/25/107 79/30/107 108/61/107
f 101/54/108 107/59/108 94/47/108
f 116/1/736 117/91/736 119/2/736
f 114/4/737 118/64/737 117/5/737
f 115/7/738 119/63/738 117/8/738
f 120/10/739 123/67/739 124/11/739
f 125/13/740 124/92/740 123/14/740
f 122/78/741 126/65/741 124/17/741
f 130/19/742 131/93/742 133/20/742
f 128/22/743 132/26/743 131/23/743
f 129/80/744 133/77/744 131/23/744
f 137/27/745 138/94/745 140/28/745
f 135/82/746 139/34/746 138/31/746
f 136/33/747 140/66/747 138/31/747
f 144/35/748 145/39/748 147/36/748
f 142/84/749 146/41/749 145/39/749
f 143/40/750 147/36/750 145/39/750
f 151/42/751 152/46/751 154/85/751
f 149/73/752 153/48/752 152/46/752
f 150/86/753 154/85/753 152/46/753
f 158/49/754 159/53/754 161/50/754
f 156/52/755 160/55/755 159/53/755
f 157/54/756 161/50/756 159/53/756
f 165/56/757 166/60/757 168/57/757
f 163/59/758 167/62/758 166/60/758
f 164/87/759 168/57/759 166/60/759
f 113/3/133 119/2/133 130/19/133
f 130/24/134 119/63/134 115/7/134
f 114/4/135 120/10/135 126/12/135
f 126/65/760 122/78/760 115/7/760
f 121/68/137 134/81/137 140/28/137
f 125/18/138 140/66/138 136/33/138
f 129/80/139 132/26/139 139/34/139
f 132/26/140 128/22/140 136/33/140
f 127/79/761 133/20/761 158/49/761
f 133/77/142 129/80/142 156/52/142
f 162/58/143 168/57/143 137/27/143
f 137/32/144 168/57/144 164/87/144
f 163/59/762 157/54/762 160/55/762
f 167/62/146 160/55/146 156/52/146
f 155/51/147 161/50/147 144/35/147
f 144/35/148 161/50/148 157/54/148
f 148/44/149 154/85/149 165/56/149
f 165/56/150 154/85/150 150/86/150
f 149/73/151 143/40/151 146/41/151
f 146/41/763 142/84/763 150/86/763
f 113/3/153 141/83/153 147/36/153
f 147/36/154 143/40/154 114/4/154
f 148/44/155 121/68/155 123/14/155
f 123/67/156 120/10/156 149/73/156
f 155/51/157 141/83/157 113/3/157
f 122/78/158 136/33/158 128/22/158
f 143/40/159 149/73/159 120/10/159
f 134/81/764 121/68/764 148/44/764
f 135/82/161 164/87/161 156/52/161
f 163/59/162 150/86/162 142/84/162
f 172/1/765 173/91/765 175/2/765
f 170/4/766 174/64/766 173/5/766
f 171/7/767 175/63/767 173/8/767
f 176/10/768 179/67/768 180/11/768
f 181/13/769 180/92/769 179/14/769
f 178/16/770 182/65/770 180/17/770
f 186/19/771 187/93/771 189/20/771
f 184/22/772 188/88/772 187/23/772
f 185/80/773 189/77/773 187/23/773
f 193/27/774 194/94/774 196/28/774
f 191/82/775 195/34/775 194/31/775
f 192/71/776 196/66/776 194/31/776
f 200/35/777 201/39/777 203/36/777
f 198/84/778 202/41/778 201/39/778
f 199/72/779 203/36/779 201/39/779
f 207/42/780 208/46/780 210/85/780
f 205/45/781 209/48/781 208/46/781
f 206/86/782 210/85/782 208/46/782
f 214/49/783 215/53/783 217/50/783
f 212/52/784 216/55/784 215/53/784
f 213/54/785 217/50/785 215/53/785
f 221/56/786 222/60/786 224/57/786
f 219/59/787 223/62/787 222/60/787
f 220/87/788 224/57/788 222/60/788
f 183/79/187 169/3/187 175/2/187
f 186/24/188 175/63/188 171/7/188
f 176/10/189 182/12/189 174/64/189
f 174/9/190 182/65/190 178/16/190
f 190/89/191 196/28/191 181/13/191
f 181/18/192 196/66/192 192/71/192
f 185/80/789 188/88/789 195/34/789
f 188/88/194 184/22/194 192/71/194
f 183/79/195 189/20/195 214/49/195
f 189/77/196 185/80/196 212/52/196
f 218/76/197 224/57/197 193/27/197
f 193/32/198 224/57/198 220/87/198
f 213/54/199 216/55/199 223/62/199
f 223/62/200 216/55/200 212/52/200
f 197/37/201 211/51/201 217/50/201
f 217/50/202 213/54/202 198/84/202
f 218/76/203 204/44/203 210/85/203
f 221/56/204 210/85/204 206/86/204
f 199/72/790 202/41/790 209/48/790
f 209/48/791 202/41/791 198/84/791
f 169/3/207 197/37/207 203/36/207
f 203/36/208 199/72/208 170/4/208
f 204/44/209 177/68/209 179/14/209
f 179/67/210 176/10/210 205/45/210
f 183/79/211 211/51/211 197/37/211
f 178/16/212 192/71/212 184/22/212
f 205/45/213 176/10/213 170/4/213
f 218/76/214 190/89/214 177/68/214
f 185/80/215 191/82/215 220/87/215
f 219/59/216 206/86/216 198/84/216
f 225/90/792 228/1/792 229/91/792
f 230/64/793 229/5/793 228/6/793
f 227/7/794 231/63/794 229/8/794
f 235/67/795 236/11/795 238/12/795
f 233/68/796 237/13/796 236/92/796
f 234/16/797 238/65/797 236/17/797
f 239/21/798 242/19/798 243/93/798
f 240/22/799 244/26/799 243/23/799
f 245/77/800 243/23/800 244/26/800
f 246/81/801 249/27/801 250/94/801
f 251/34/802 250/31/802 249/32/802
f 248/33/803 252/66/803 250/31/803
f 253/83/804 256/35/804 257/39/804
f 254/84/805 258/41/805 257/39/805
f 259/36/806 257/39/806 258/41/806
f 260/44/807 263/42/807 264/46/807
f 265/48/808 264/46/808 263/42/808
f 262/86/809 266/43/809 264/46/809
f 267/51/810 270/49/810 271/53/810
f 272/55/811 271/53/811 270/49/811
f 269/54/812 273/50/812 271/53/812
f 274/76/813 277/56/813 278/60/813
f 275/59/814 279/62/814 278/60/814
f 280/57/815 278/60/815 279/62/815
f 239/21/816 225/90/816 231/2/816
f 242/24/817 231/63/817 227/7/817
f 226/4/243 232/10/243 238/12/243
f 230/9/244 238/65/244 234/16/244
f 233/68/818 246/81/818 252/28/818
f 237/18/246 252/66/246 248/33/246
f 241/80/247 244/26/247 251/34/247
f 244/26/248 240/22/248 248/33/248
f 239/21/249 245/20/249 270/49/249
f 270/49/819 245/77/819 241/80/819
f 246/81/251 274/76/251 280/57/251
f 249/32/252 280/57/252 276/87/252
f 275/59/253 269/54/253 272/55/253
f 279/62/254 272/55/254 268/52/254
f 253/83/820 267/51/820 273/50/820
f 256/35/821 273/50/821 269/54/821
f 260/44/822 266/43/822 277/56/822
f 277/56/823 266/43/823 262/86/823
f 255/40/259 258/41/259 265/48/259
f 258/41/260 254/84/260 262/86/260
f 253/83/261 259/36/261 228/1/261
f 259/36/262 255/40/262 226/4/262
f 233/68/824 235/14/824 263/42/824
f 263/42/264 235/67/264 232/10/264
f 239/21/265 267/51/265 253/83/265
f 234/16/266 248/33/266 240/22/266
f 255/40/267 261/45/267 232/10/267
f 246/81/825 233/68/825 260/44/825
f 247/82/269 276/87/269 268/52/269
f 269/54/270 275/59/270 262/86/270
f 393/3/889 396/1/889 397/91/889
f 394/4/890 398/64/890 397/5/890
f 399/63/891 397/8/891 398/9/891
f 400/10/892 403/67/892 404/11/892
f 401/68/893 405/13/893 404/92/893
f 406/65/894 404/17/894 405/18/894
f 407/79/895 410/19/895 411/93/895
f 412/26/896 411/23/896 410/24/896
f 409/25/897 413/77/897 411/23/897
f 414/89/898 417/27/898 418/94/898
f 415/30/899 419/34/899 418/31/899
f 420/66/900 418/31/900 419/34/900
f 421/37/901 424/35/901 425/39/901
f 426/41/902 425/39/902 424/35/902
f 423/40/903 427/36/903 425/39/903
f 428/44/904 431/42/904 432/46/904
f 429/73/905 433/48/905 432/46/905
f 434/43/906 432/46/906 433/48/906
f 435/74/907 438/49/907 439/53/907
f 436/52/908 440/55/908 439/53/908
f 441/50/909 439/53/909 440/55/909
f 442/76/910 445/56/910 446/60/910
f 447/62/911 446/60/911 445/56/911
f 444/61/912 448/75/912 446/60/912
f 407/79/403 393/3/403 399/2/403
f 399/63/404 395/7/404 408/69/404
f 394/4/405 400/10/405 406/12/405
f 406/65/406 402/16/406 395/7/406
f 401/68/407 414/89/407 420/28/407
f 405/18/913 420/66/913 416/33/913
f 409/25/409 412/26/409 419/34/409
f 419/34/410 412/26/410 408/69/410
f 407/79/411 413/20/411 438/49/411
f 413/77/412 409/25/412 436/52/412
f 442/76/413 448/75/413 417/27/413
f 448/75/914 444/61/914 415/30/914
f 437/54/415 440/55/415 447/62/415
f 440/55/416 436/52/416 444/61/416
f 421/37/417 435/74/417 441/50/417
f 441/50/915 437/54/915 422/38/915
f 428/44/916 434/43/916 445/56/916
f 434/43/917 430/47/917 443/59/917
f 423/40/421 426/41/421 433/48/421
f 426/41/422 422/38/422 430/47/422
f 421/37/423 427/36/423 396/1/423
f 396/6/424 427/36/424 423/40/424
f 401/68/918 403/14/918 431/42/918
f 431/42/426 403/67/426 400/10/426
f 435/74/427 421/37/427 393/3/427
f 402/16/428 416/33/428 408/69/428
f 429/73/429 400/10/429 394/4/429
f 442/76/430 414/89/430 401/68/430
f 415/30/431 444/61/431 436/52/431
f 443/59/432 430/47/432 422/38/432
f 452/1/919 453/91/919 455/2/919
f 450/4/920 454/64/920 453/5/920
f 451/7/921 455/63/921 453/8/921
f 456/10/922 459/67/922 460/11/922
f 461/13/923 460/92/923 459/14/923
f 458/78/924 462/65/924 460/17/924
f 466/19/925 467/93/925 469/20/925
f 464/22/926 468/26/926 467/23/926
f 465/80/927 469/77/927 467/23/927
f 473/27/928 474/94/928 476/28/928
f 471/82/929 475/34/929 474/31/929
f 472/33/930 476/66/930 474/31/930
f 480/35/931 481/39/931 483/36/931
f 478/84/932 482/41/932 481/39/932
f 479/40/933 483/36/933 481/39/933
f 487/42/934 488/46/934 490/85/934
f 485/73/935 489/48/935 488/46/935
f 486/86/936 490/85/936 488/46/936
f 494/49/937 495/53/937 497/50/937
f 492/52/938 496/55/938 495/53/938
f 493/54/939 497/50/939 495/53/939
f 501/56/940 502/60/940 504/57/940
f 499/59/941 503/62/941 502/60/941
f 500/87/942 504/57/942 502/60/942
f 449/3/943 455/2/943 466/19/943
f 466/24/458 455/63/458 451/7/458
f 456/10/944 462/12/944 454/64/944
f 462/65/945 458/78/945 451/7/945
f 470/81/461 476/28/461 461/13/461
f 476/66/462 472/33/462 458/78/462
f 465/80/463 468/26/463 475/34/463
f 475/34/946 468/26/946 464/22/946
f 491/51/465 463/79/465 469/20/465
f 469/77/466 465/80/466 492/52/466
f 470/81/467 498/76/467 504/57/467
f 504/57/468 500/87/468 471/82/468
f 499/59/947 493/54/947 496/55/947
f 503/62/948 496/55/948 492/52/948
f 491/51/471 497/50/471 480/35/471
f 480/35/472 497/50/472 493/54/472
f 484/44/473 490/85/473 501/56/473
f 490/85/474 486/86/474 499/59/474
f 479/40/949 482/41/949 489/48/949
f 489/48/950 482/41/950 478/84/950
f 449/3/477 477/83/477 483/36/477
f 452/6/478 483/36/478 479/40/478
f 457/68/479 459/14/479 487/42/479
f 487/42/480 459/67/480 456/10/480
f 463/79/481 491/51/481 477/83/481
f 458/78/482 472/33/482 464/22/482
f 479/40/483 485/73/483 456/10/483
f 470/81/484 457/68/484 484/44/484
f 471/82/485 500/87/485 492/52/485
f 499/59/486 486/86/486 478/84/486
f 508/1/951 509/91/951 511/2/951
f 506/4/952 510/64/952 509/5/952
f 507/7/953 511/63/953 509/8/953
f 512/10/954 515/67/954 516/11/954
f 517/13/955 516/92/955 515/14/955
f 514/16/956 518/65/956 516/17/956
f 522/19/957 523/93/957 525/20/957
f 520/22/958 524/26/958 523/23/958
f 521/80/959 525/77/959 523/23/959
f 529/27/960 530/94/960 532/28/960
f 527/82/961 531/34/961 530/31/961
f 528/71/962 532/66/962 530/31/962
f 536/35/963 537/39/963 539/36/963
f 534/84/964 538/41/964 537/39/964
f 535/40/965 539/36/965 537/39/965
f 543/42/966 544/46/966 546/43/966
f 541/45/967 545/48/967 544/46/967
f 542/86/968 546/43/968 544/46/968
f 550/49/969 551/53/969 553/50/969
f 548/52/970 552/55/970 551/53/970
f 549/54/971 553/50/971 551/53/971
f 557/56/972 558/60/972 560/57/972
f 555/59/973 559/62/973 558/60/973
f 556/87/974 560/57/974 558/60/974
f 505/3/511 511/2/511 522/19/511
f 522/24/512 511/63/512 507/7/512
f 512/10/513 518/12/513 510/64/513
f 510/9/975 518/65/975 514/16/975
f 526/89/515 532/28/515 517/13/515
f 517/18/976 532/66/976 528/71/976
f 521/80/977 524/26/977 531/34/977
f 531/34/978 524/26/978 520/22/978
f 547/51/519 519/21/519 525/20/519
f 525/77/520 521/80/520 548/52/520
f 526/89/521 554/76/521 560/57/521
f 529/32/522 560/57/522 556/87/522
f 555/59/979 549/54/979 552/55/979
f 552/55/524 548/52/524 556/87/524
f 547/51/980 553/50/980 536/35/980
f 553/50/526 549/54/526 534/84/526
f 540/44/527 546/43/527 557/56/527
f 546/43/528 542/86/528 555/59/528
f 535/40/529 538/41/529 545/48/529
f 538/41/981 534/84/981 542/86/981
f 533/83/982 539/36/982 508/1/982
f 539/36/532 535/40/532 506/4/532
f 513/68/533 515/14/533 543/42/533
f 543/42/534 515/67/534 512/10/534
f 519/21/535 547/51/535 533/83/535
f 507/7/536 514/16/536 528/71/536
f 541/45/537 512/10/537 506/4/537
f 554/76/538 526/89/538 513/68/538
f 527/82/539 556/87/539 548/52/539
f 555/59/540 542/86/540 534/84/540
usemtl bark
f 281/3/271 285/91/271 287/2/271
f 282/4/272 285/5/272 284/6/272
f 287/63/273 286/9/273 283/95/273
f 288/10/274 292/11/274 294/12/274
f 289/15/275 292/92/275 291/14/275
f 294/65/276 293/18/276 290/16/276
f 295/21/277 299/93/277 301/20/277
f 300/88/278 298/24/278 296/22/278
f 297/25/279 299/23/279 300/88/279
f 302/89/280 306/94/280 308/28/280
f 303/30/281 306/31/281 305/32/281
f 308/66/282 307/34/282 304/33/282
f 309/37/283 313/39/283 315/36/283
f 314/41/284 312/35/284 310/84/284
f 311/72/285 313/39/285 314/41/285
f 316/44/286 320/46/286 322/85/286
f 317/45/287 320/46/287 319/42/287
f 322/85/288 321/48/288 318/47/288
f 323/51/289 327/53/289 329/50/289
f 324/52/290 327/53/290 326/49/290
f 329/50/291 328/55/291 325/54/291
f 330/76/292 334/60/292 336/75/292
f 335/62/293 333/56/293 331/59/293
f 332/87/294 334/60/294 335/62/294
f 295/21/295 287/2/295 298/19/295
f 287/63/296 296/22/296 298/24/296
f 288/10/297 286/64/297 282/4/297
f 286/9/298 290/16/298 283/95/298
f 302/89/299 293/13/299 289/15/299
f 293/18/300 304/33/300 290/16/300
f 303/30/301 300/88/301 307/34/301
f 307/34/302 296/22/302 304/33/302
f 323/51/303 301/20/303 326/49/303
f 326/49/304 297/25/304 324/52/304
f 302/89/305 336/75/305 305/27/305
f 336/75/306 303/30/306 305/32/306
f 325/54/307 335/62/307 331/59/307
f 328/55/308 332/87/308 335/62/308
f 309/37/309 329/50/309 312/35/309
f 312/35/310 325/54/310 310/84/310
f 316/44/311 333/56/311 330/76/311
f 322/85/312 331/59/312 333/56/312
f 311/72/313 321/48/313 317/45/313
f 314/41/314 318/47/314 321/48/314
f 309/37/315 284/1/315 281/3/315
f 284/6/316 311/72/316 282/4/316
f 289/15/317 319/42/317 316/44/317
f 319/42/318 288/10/318 317/45/318
f 295/21/319 309/37/319 281/3/319
f 290/16/320 296/22/320 283/95/320
f 311/72/321 288/10/321 282/4/321
f 330/76/322 289/15/322 316/44/322
f 303/30/323 324/52/323 297/25/323
f 331/59/324 310/84/324 325/54/324
f 337/3/325 341/91/325 343/2/325
f 338/4/326 341/5/326 340/6/326
f 343/63/327 342/9/327 339/7/327
f 344/10/328 348/11/328 350/12/328
f 345/15/329 348/92/329 347/14/329
f 350/65/330 349/18/330 346/16/330
f 351/21/331 355/93/331 357/20/331
f 356/26/332 354/24/332 352/22/332
f 353/25/333 355/23/333 356/26/333
f 358/29/334 362/94/334 364/28/334
f 359/30/335 362/31/335 361/32/335
f 364/66/336 363/34/336 360/33/336
f 365/37/337 369/39/337 371/36/337
f 370/41/338 368/35/338 366/38/338
f 367/40/339 369/39/339 370/41/339
f 372/44/340 376/46/340 378/43/340
f 373/73/341 376/46/341 375/42/341
f 378/43/342 377/48/342 374/47/342
f 379/51/343 383/53/343 385/50/343
f 380/52/344 383/53/344 382/49/344
f 385/50/345 384/55/345 381/54/345
f 386/58/346 390/60/346 392/57/346
f 391/62/347 389/56/347 387/59/347
f 388/61/348 390/60/348 391/62/348
f 351/21/349 343/2/349 354/19/349
f 343/63/350 352/22/350 354/24/350
f 338/4/351 350/12/351 342/64/351
f 350/65/352 339/7/352 342/9/352
f 345/15/353 364/28/353 349/13/353
f 349/18/354 360/33/354 346/16/354
f 353/25/355 363/34/355 359/30/355
f 363/34/356 352/22/356 360/33/356
f 379/51/357 357/20/357 382/49/357
f 382/49/358 353/25/358 380/52/358
f 386/58/359 361/27/359 358/29/359
f 392/57/360 359/30/360 361/32/360
f 387/59/361 384/55/361 391/62/361
f 384/55/362 388/61/362 391/62/362
f 365/37/363 385/50/363 368/35/363
f 385/50/364 366/38/364 368/35/364
f 372/44/365 389/56/365 386/58/365
f 378/43/366 387/59/366 389/56/366
f 367/40/367 377/48/367 373/73/367
f 377/48/368 366/38/368 374/47/368
f 337/3/369 371/36/369 340/1/369
f 371/36/370 338/4/370 340/6/370
f 372/44/371 347/14/371 375/42/371
f 347/67/372 373/73/372 375/42/372
f 379/51/373 337/3/373 351/21/373
f 346/16/374 352/22/374 339/7/374
f 373/73/375 338/4/375 367/40/375
f 358/29/376 372/44/376 386/58/376
f 359/30/377 380/52/377 353/25/377
f 387/59/378 366/38/378 381/54/378
f 281/3/826 284/1/826 285/91/826
f 282/4/827 286/64/827 285/5/827
f 287/63/828 285/8/828 286/9/828
f 288/10/829 291/67/829 292/11/829
f 289/15/830 293/13/830 292/92/830
f 294/65/831 292/17/831 293/18/831
f 295/21/832 298/19/832 299/93/832
f 300/88/833 299/23/833 298/24/833
f 297/25/834 301/77/834 299/23/834
f 302/89/835 305/27/835 306/94/835
f 303/30/836 307/34/836 306/31/836
f 308/66/837 306/31/837 307/34/837
f 309/37/838 312/35/838 313/39/838
f 314/41/839 313/39/839 312/35/839
f 311/72/840 315/36/840 313/39/840
f 316/44/841 319/42/841 320/46/841
f 317/45/842 321/48/842 320/46/842
f 322/85/843 320/46/843 321/48/843
f 323/51/844 326/49/844 327/53/844
f 324/52/845 328/55/845 327/53/845
f 329/50/846 327/53/846 328/55/846
f 330/76/847 333/56/847 334/60/847
f 335/62/848 334/60/848 333/56/848
f 332/87/849 336/75/849 334/60/849
f 295/21/295 281/3/295 287/2/295
f 287/63/850 283/95/850 296/22/850
f 288/10/297 294/12/297 286/64/297
f 286/9/298 294/65/298 290/16/298
f 302/89/851 308/28/851 293/13/851
f 293/18/852 308/66/852 304/33/852
f 303/30/301 297/25/301 300/88/301
f 307/34/302 300/88/302 296/22/302
f 323/51/853 295/21/853 301/20/853
f 326/49/304 301/77/304 297/25/304
f 302/89/854 330/76/854 336/75/854
f 336/75/306 332/87/306 303/30/306
f 325/54/307 328/55/307 335/62/307
f 328/55/308 324/52/308 332/87/308
f 309/37/309 323/51/309 329/50/309
f 312/35/855 329/50/855 325/54/855
f 316/44/311 322/85/311 333/56/311
f 322/85/856 318/47/856 331/59/856
f 311/72/313 314/41/313 321/48/313
f 314/41/314 310/84/314 318/47/314
f 309/37/857 315/36/857 284/1/857
f 284/6/858 315/36/858 311/72/858
f 289/15/317 291/14/317 319/42/317
f 319/42/318 291/67/318 288/10/318
f 295/21/319 323/51/319 309/37/319
f 290/16/320 304/33/320 296/22/320
f 311/72/321 317/45/321 288/10/321
f 330/76/322 302/89/322 289/15/322
f 303/30/323 332/87/323 324/52/323
f 331/59/324 318/47/324 310/84/324
f 337/3/859 340/1/859 341/91/859
f 338/4/860 342/64/860 341/5/860
f 343/63/861 341/8/861 342/9/861
f 344/10/862 347/67/862 348/11/862
f 345/15/863 349/13/863 348/92/863
f 350/65/864 348/17/864 349/18/864
f 351/21/865 354/19/865 355/93/865
f 356/26/866 355/23/866 354/24/866
f 353/25/867 357/77/867 355/23/867
f 358/29/868 361/27/868 362/94/868
f 359/30/869 363/34/869 362/31/869
f 364/66/870 362/31/870 363/34/870
f 365/37/871 368/35/871 369/39/871
f 370/41/872 369/39/872 368/35/872
f 367/40/873 371/36/873 369/39/873
f 372/44/874 375/42/874 376/46/874
f 373/73/875 377/48/875 376/46/875
f 378/43/876 376/46/876 377/48/876
f 379/51/877 382/49/877 383/53/877
f 380/52/878 384/55/878 383/53/878
f 385/50/879 383/53/879 384/55/879
f 386/58/880 389/56/880 390/60/880
f 391/62/881 390/60/881 389/56/881
f 388/61/882 392/57/882 390/60/882
f 351/21/349 337/3/349 343/2/349
f 343/63/350 339/7/350 352/22/350
f 338/4/351 344/10/351 350/12/351
f 350/65/352 346/16/352 339/7/352
f 345/15/353 358/29/353 364/28/353
f 349/18/883 364/66/883 360/33/883
f 353/25/355 356/26/355 363/34/355
f 363/34/356 356/26/356 352/22/356
f 379/51/884 351/21/884 357/20/884
f 382/49/358 357/77/358 353/25/358
f 386/58/885 392/57/885 361/27/885
f 392/57/360 388/61/360 359/30/360
f 387/59/361 381/54/361 384/55/361
f 384/55/362 380/52/362 388/61/362
f 365/37/363 379/51/363 385/50/363
f 385/50/886 381/54/886 366/38/886
f 372/44/365 378/43/365 389/56/365
f 378/43/366 374/47/366 387/59/366
f 367/40/367 370/41/367 377/48/367
f 377/48/368 370/41/368 366/38/368
f 337/3/369 365/37/369 371/36/369
f 371/36/370 367/40/370 338/4/370
f 372/44/887 345/15/887 347/14/887
f 347/67/888 344/10/888 373/73/888
f 379/51/373 365/37/373 337/3/373
f 346/16/374 360/33/374 352/22/374
f 373/73/375 344/10/375 338/4/375
f 358/29/376 345/15/376 372/44/376
f 359/30/377 388/61/377 380/52/377
f 387/59/378 374/47/378 366/38/378
usemtl core
f 561/96/541 567/97/541 571/98/541
f 562/99/542 567/100/542 566/101/542
f 563/102/543 567/103/543 568/104/543
f 564/105/544 567/106/544 569/107/544
f 565/108/545 567/109/545 570/110/545
f 572/111/546 578/112/546 582/113/546
f 573/114/547 578/112/547 577/115/547
f 574/116/548 578/112/548 579/117/548
f 575/118/549 578/112/549 580/119/549
f 576/120/550 578/112/550 581/121/550
f 583/122/551 589/123/551 593/124/551
f 584/125/552 589/126/552 588/127/552
f 585/128/553 589/126/553 590/129/553
f 586/130/554 589/126/554 591/131/554
f 587/132/555 589/123/555 592/133/555
f 594/134/556 600/135/556 604/136/556
f 595/137/557 600/135/557 599/138/557
f 596/139/558 600/135/558 601/140/558
f 597/141/559 600/135/559 602/142/559
f 598/143/560 600/135/560 603/144/560
f 605/145/561 611/146/561 615/147/561
f 606/148/562 611/146/562 610/149/562
f 607/150/563 611/146/563 612/151/563
f 608/152/564 611/146/564 613/153/564
f 609/154/565 611/146/565 614/155/565
f 616/156/566 622/157/566 626/158/566
f 617/159/567 622/157/567 621/160/567
f 618/161/568 622/157/568 623/162/568
f 619/163/569 622/157/569 624/164/569
f 620/165/570 622/157/570 625/166/570
f 627/167/571 633/168/571 637/169/571
f 628/170/572 633/168/572 632/171/572
f 629/172/573 633/168/573 634/173/573
f 630/174/574 633/168/574 635/175/574
f 631/176/575 633/168/575 636/177/575
f 638/178/576 644/179/576 648/180/576
f 639/181/577 644/179/577 643/182/577
f 640/183/578 644/184/578 645/185/578
f 641/186/579 644/184/579 646/187/579
f 642/188/580 644/179/580 647/189/580
f 649/190/581 655/191/581 659/192/581
f 650/193/582 655/191/582 654/194/582
f 651/195/583 655/191/583 656/196/583
f 652/197/584 655/191/584 657/198/584
f 653/199/585 655/191/585 658/200/585
f 660/201/586 666/202/586 670/203/586
f 661/204/587 666/202/587 665/205/587
f 662/206/588 666/202/588 667/207/588
f 663/208/589 666/202/589 668/209/589
f 664/210/590 666/202/590 669/211/590
f 671/212/591 677/213/591 681/214/591
f 672/215/592 677/213/592 676/216/592
f 673/217/593 677/213/593 678/218/593
f 674/219/594 677/213/594 679/220/594
f 675/221/595 677/213/595 680/222/595
f 682/223/596 688/224/596 692/225/596
f 683/226/597 688/227/597 687/228/597
f 684/229/598 688/230/598 689/231/598
f 685/232/599 688/233/599 690/234/599
f 686/235/600 688/236/600 691/237/600
f 561/96/601 588/238/601 583/122/601
f 588/127/602 565/108/602 584/125/602
f 564/105/603 582/113/603 570/239/603
f 570/110/604 576/120/604 565/108/604
f 575/118/605 590/129/605 581/121/605
f 581/121/606 584/125/606 576/120/606
f 616/156/607 577/115/607 621/160/607
f 621/160/608 572/111/608 617/159/608
f 618/161/609 569/240/609 563/102/609
f 623/162/610 564/105/610 569/107/610
f 594/134/611 566/101/611 599/138/611
f 599/138/612 561/96/612 595/137/612
f 587/132/613 601/140/613 593/124/613
f 593/124/614 595/137/614 583/122/614
f 605/145/615 568/104/615 610/149/615
f 610/149/616 562/99/616 606/148/616
f 607/150/617 604/136/617 598/143/617
f 612/151/618 594/134/618 604/136/618
f 619/163/619 615/147/619 609/154/619
f 624/164/620 605/145/620 615/147/620
f 574/116/621 676/216/621 671/212/621
f 579/117/622 672/215/622 676/216/622
f 620/165/623 678/218/623 626/158/623
f 626/158/624 672/215/624 616/156/624
f 586/130/625 632/171/625 627/167/625
f 591/131/626 628/170/626 632/171/626
f 574/116/627 634/173/627 580/119/627
f 580/119/628 628/170/628 575/118/628
f 597/141/629 643/182/629 638/178/629
f 602/142/630 639/181/630 643/182/630
f 586/130/631 645/185/631 592/241/631
f 645/242/632 587/132/632 592/133/632
f 608/152/633 654/194/633 649/190/633
f 613/153/634 650/193/634 654/194/634
f 597/141/635 656/196/635 603/144/635
f 603/144/636 650/193/636 598/143/636
f 620/165/637 665/205/637 660/201/637
f 625/166/638 661/204/638 665/205/638
f 608/152/639 667/207/639 614/155/639
f 614/155/640 661/204/640 609/154/640
f 675/221/641 635/175/641 681/214/641
f 681/214/642 629/172/642 671/212/642
f 631/176/643 646/187/643 637/169/643
f 637/169/644 640/183/644 627/167/644
f 652/197/645 648/180/645 642/188/645
f 657/198/646 638/178/646 648/180/646
f 663/208/647 659/192/647 653/199/647
f 668/209/648 649/190/648 659/192/648
f 674/219/649 670/203/649 664/210/649
f 679/220/650 660/201/650 670/203/650
f 631/176/651 687/243/651 682/223/651
f 636/177/652 683/226/652 687/228/652
f 684/229/653 680/222/653 674/219/653
f 689/244/654 675/221/654 680/222/654
f 686/235/655 647/189/655 692/245/655
f 692/225/656 641/186/656 682/223/656
f 653/199/657 691/246/657 685/232/657
f 691/237/658 652/197/658 686/235/658
f 684/229/659 669/211/659 690/247/659
f 690/234/660 663/208/660 685/232/660
f 561/96/661 583/122/661 595/137/661
f 565/108/662 576/120/662 584/125/662
f 572/111/663 564/105/663 617/159/663
f 562/99/664 594/134/664 606/148/664
f 563/102/665 605/145/665 618/161/665
f 573/114/666 616/156/666 672/215/666
f 574/116/667 671/212/667 629/172/667
f 585/128/668 575/118/668 628/170/668
f 586/130/669 627/167/669 640/183/669
f 596/139/670 587/132/670 639/181/670
f 597/141/671 638/178/671 651/195/671
f 607/150/672 598/143/672 650/193/672
f 608/152/673 649/190/673 662/206/673
f 619/163/674 609/154/674 661/204/674
f 620/165/675 660/201/675 673/217/675
f 641/186/676 631/176/676 682/223/676
f 630/174/677 675/221/677 683/226/677
f 652/197/678 642/188/678 686/235/678
f 663/208/679 653/199/679 685/232/679
f 674/219/680 664/210/680 684/229/680
f 561/96/983 566/248/983 567/97/983
f 562/99/984 568/249/984 567/100/984
f 563/102/985 569/240/985 567/103/985
f 564/105/986 570/239/986 567/106/986
f 565/108/987 571/250/987 567/109/987
f 572/111/988 577/115/988 578/112/988
f 573/114/989 579/117/989 578/112/989
f 574/116/990 580/119/990 578/112/990
f 575/118/991 581/121/991 578/112/991
f 576/120/992 582/113/992 578/112/992
f 583/122/993 588/238/993 589/123/993
f 584/125/994 590/129/994 589/126/994
f 585/128/995 591/131/995 589/126/995
f 586/130/996 592/241/996 589/126/996
f 587/132/997 593/124/997 589/123/997
f 594/134/998 599/138/998 600/135/998
f 595/137/999 601/140/999 600/135/999
f 596/139/1000 602/142/1000 600/135/1000
f 597/141/1001 603/144/1001 600/135/1001
f 598/143/1002 604/136/1002 600/135/1002
f 605/145/1003 610/149/1003 611/146/1003
f 606/148/1004 612/151/1004 611/146/1004
f 607/150/1005 613/153/1005 611/146/1005
f 608/152/1006 614/155/1006 611/146/1006
f 609/154/1007 615/147/1007 611/146/1007
f 616/156/1008 621/160/1008 622/157/1008
f 617/159/1009 623/162/1009 622/157/1009
f 618/161/1010 624/164/1010 622/157/1010
f 619/163/1011 625/166/1011 622/157/1011
f 620/165/1012 626/158/1012 622/157/1012
f 627/167/1013 632/171/1013 633/168/1013
f 628/170/1014 634/173/1014 633/168/1014
f 629/172/1015 635/175/1015 633/168/1015
f 630/174/1016 636/177/1016 633/168/1016
f 631/176/1017 637/169/1017 633/168/1017
f 638/178/1018 643/182/1018 644/179/1018
f 639/181/1019 645/242/1019 644/179/1019
f 640/183/1020 646/187/1020 644/184/1020
f 641/186/1021 647/251/1021 644/184/1021
f 642/188/1022 648/180/1022 644/179/1022
f 649/190/1023 654/194/1023 655/191/1023
f 650/193/1024 656/196/1024 655/191/1024
f 651/195/1025 657/198/1025 655/191/1025
f 652/197/1026 658/200/1026 655/191/1026
f 653/199/1027 659/192/1027 655/191/1027
f 660/201/1028 665/205/1028 666/202/1028
f 661/204/1029 667/207/1029 666/202/1029
f 662/206/1030 668/209/1030 666/202/1030
f 663/208/1031 669/211/1031 666/202/1031
f 664/210/1032 670/203/1032 666/202/1032
f 671/212/1033 676/216/1033 677/213/1033
f 672/215/1034 678/218/1034 677/213/1034
f 673/217/1035 679/220/1035 677/213/1035
f 674/219/1036 680/222/1036 677/213/1036
f 675/221/1037 681/214/1037 677/213/1037
f 682/223/1038 687/243/1038 688/224/1038
f 683/226/1039 689/244/1039 688/227/1039
f 684/229/1040 690/247/1040 688/230/1040
f 685/232/1041 691/246/1041 688/233/1041
f 686/235/1042 692/245/1042 688/236/1042
f 561/96/601 571/98/601 588/238/601
f 588/127/602 571/250/602 565/108/602
f 564/105/603 572/111/603 582/113/603
f 570/110/604 582/113/604 576/120/604
f 575/118/605 585/128/605 590/129/605
f 581/121/606 590/129/606 584/125/606
f 616/156/607 573/114/607 577/115/607
f 621/160/1043 577/115/1043 572/111/1043
f 618/161/1044 623/162/1044 569/240/1044
f 623/162/610 617/159/610 564/105/610
f 594/134/611 562/99/611 566/101/611
f 599/138/612 566/248/612 561/96/612
f 587/132/613 596/139/613 601/140/613
f 593/124/1045 601/140/1045 595/137/1045
f 605/145/615 563/102/615 568/104/615
f 610/149/616 568/249/616 562/99/616
f 607/150/1046 612/151/1046 604/136/1046
f 612/151/618 606/148/618 594/134/618
f 619/163/619 624/164/619 615/147/619
f 624/164/620 618/161/620 605/145/620
f 574/116/621 579/117/621 676/216/621
f 579/117/622 573/114/622 672/215/622
f 620/165/623 673/217/623 678/218/623
f 626/158/624 678/218/624 672/215/624
f 586/130/625 591/131/625 632/171/625
f 591/131/1047 585/128/1047 628/170/1047
f 574/116/627 629/172/627 634/173/627
f 580/119/628 634/173/628 628/170/628
f 597/141/629 602/142/629 643/182/629
f 602/142/630 596/139/630 639/181/630
f 586/130/1048 640/183/1048 645/185/1048
f 645/242/632 639/181/632 587/132/632
f 608/152/633 613/153/633 654/194/633
f 613/153/634 607/150/634 650/193/634
f 597/141/635 651/195/635 656/196/635
f 603/144/636 656/196/636 650/193/636
f 620/165/637 625/166/637 665/205/637
f 625/166/1049 619/163/1049 661/204/1049
f 608/152/1050 662/206/1050 667/207/1050
f 614/155/640 667/207/640 661/204/640
f 675/221/641 630/174/641 635/175/641
f 681/214/642 635/175/642 629/172/642
f 631/176/643 641/186/643 646/187/643
f 637/169/644 646/187/644 640/183/644
f 652/197/1051 657/198/1051 648/180/1051
f 657/198/646 651/195/646 638/178/646
f 663/208/647 668/209/647 659/192/647
f 668/209/648 662/206/648 649/190/648
f 674/219/1052 679/220/1052 670/203/1052
f 679/220/650 673/217/650 660/201/650
f 631/176/651 636/177/651 687/243/651
f 636/177/652 630/174/652 683/226/652
f 684/229/653 689/231/653 680/222/653
f 689/244/654 683/226/654 675/221/654
f 686/235/655 642/188/655 647/189/655
f 692/225/1053 647/251/1053 641/186/1053
f 653/199/1054 658/200/1054 691/246/1054
f 691/237/658 658/200/658 652/197/658
f 684/229/659 664/210/659 669/211/659
f 690/234/660 669/211/660 663/208/660
