# Blender 4.5.10 LTS
# www.blender.org
mtllib grove_planted_husk.mtl
o grove_planted_husk
v -0.200117 0.003399 -0.161121
v -0.208556 0.015287 -0.151403
v -0.191801 0.014272 -0.172056
v -0.208847 0.007195 -0.157552
v -0.204565 0.008623 -0.164986
v -0.201227 0.015931 -0.162637
v -0.198258 0.006554 -0.170605
v -0.141419 0.091025 -0.117806
v -0.147933 0.079760 -0.139685
v -0.164687 0.080774 -0.119032
v -0.145134 0.087763 -0.129829
v -0.152308 0.086900 -0.126437
v -0.157359 0.081418 -0.130266
v -0.154093 0.088305 -0.118786
v -0.022070 -0.006245 -0.257533
v -0.034813 0.005770 -0.257064
v -0.008374 0.004444 -0.259800
v -0.030740 -0.002519 -0.261316
v -0.022447 -0.001241 -0.263602
v -0.021686 0.006206 -0.259857
v -0.014029 -0.003357 -0.263045
v -0.010430 0.083930 -0.188736
v 0.000325 0.071837 -0.208385
v -0.026115 0.073162 -0.205649
v -0.004593 0.080208 -0.199740
v -0.012073 0.079304 -0.202373
v -0.012987 0.073599 -0.208442
v -0.018731 0.080916 -0.198276
v 0.171980 -0.015251 -0.199630
v 0.162723 -0.003497 -0.208747
v 0.183360 -0.004356 -0.191963
v 0.168544 -0.011831 -0.208567
v 0.176040 -0.010453 -0.204376
v 0.173991 -0.002876 -0.201469
v 0.181587 -0.012374 -0.197959
v 0.132332 0.077304 -0.146137
v 0.153728 0.064815 -0.151985
v 0.133092 0.065675 -0.168769
v 0.144206 0.073354 -0.149657
v 0.140765 0.072211 -0.156768
v 0.144360 0.066296 -0.161491
v 0.133171 0.073814 -0.158632
v 0.268361 -0.018345 -0.021331
v 0.268340 -0.007084 -0.034754
v 0.271085 -0.006975 -0.008283
v 0.272268 -0.015285 -0.030205
v 0.274624 -0.013618 -0.022000
v 0.271180 -0.005995 -0.021675
v 0.274003 -0.015216 -0.013474
v 0.203238 0.075028 -0.014964
v 0.222416 0.062808 -0.003524
v 0.219671 0.062698 -0.029995
v 0.214099 0.071216 -0.008921
v 0.216676 0.069774 -0.016336
v 0.222511 0.063787 -0.016916
v 0.212631 0.071158 -0.023075
v 0.210613 -0.013713 0.172918
v 0.220168 -0.002891 0.162991
v 0.203414 -0.001877 0.183644
v 0.219671 -0.010858 0.169288
v 0.215556 -0.008880 0.176691
v 0.212949 -0.001325 0.174204
v 0.209081 -0.010217 0.182341
v 0.160754 0.078436 0.127945
v 0.166151 0.066991 0.150033
v 0.182906 0.065976 0.129380
v 0.164142 0.075047 0.140029
v 0.171193 0.073422 0.136660
v 0.175686 0.067543 0.140593
v 0.173101 0.074504 0.128986
v 0.032566 -0.004070 0.269330
v 0.046426 0.006626 0.268652
v 0.019987 0.007951 0.271388
v 0.041563 -0.001144 0.273052
v 0.033438 0.000984 0.275307
v 0.033408 0.008399 0.271425
v 0.024853 -0.000306 0.274781
v 0.029765 0.085530 0.198875
v 0.017894 0.074914 0.218733
v 0.044333 0.073589 0.215997
v 0.023601 0.082601 0.209940
v 0.030959 0.081017 0.212596
v 0.031314 0.075362 0.218770
v 0.037739 0.081893 0.208477
v -0.161484 0.004937 0.211428
v -0.151111 0.015892 0.220335
v -0.171747 0.016752 0.203551
v -0.157721 0.008168 0.220303
v -0.165049 0.010196 0.216080
v -0.162270 0.017481 0.213037
v -0.170764 0.008711 0.209695
v -0.112997 0.092156 0.156276
v -0.135510 0.081936 0.162334
v -0.114873 0.081076 0.179117
v -0.125198 0.089455 0.159858
v -0.121879 0.088111 0.166991
v -0.126033 0.082665 0.171819
v -0.114163 0.088996 0.168832
v -0.257865 0.008030 0.033129
v -0.256727 0.019480 0.046342
v -0.259473 0.019370 0.019871
v -0.261445 0.011622 0.041941
v -0.263633 0.013360 0.033705
v -0.259459 0.020601 0.033242
v -0.263180 0.011553 0.025210
v -0.183903 0.094432 0.025103
v -0.204198 0.083943 0.013872
v -0.201452 0.084052 0.040343
v -0.195091 0.091593 0.019121
v -0.197791 0.090548 0.026559
v -0.204184 0.085174 0.027244
v -0.193623 0.091652 0.033276
v 0.006521 -0.012604 -0.007747
v -0.077334 0.067534 -0.066402
v 0.037404 0.068449 -0.104550
v 0.109151 0.067152 -0.007226
v 0.038753 0.065435 0.091071
v -0.076501 0.065672 0.054498
v -0.026529 0.196821 -0.102132
v 0.088725 0.196585 -0.065559
v 0.089559 0.194722 0.055341
v -0.025180 0.193808 0.093490
v -0.096927 0.195104 -0.003834
v 0.005704 0.274861 -0.003313
v 0.024745 0.009803 -0.065035
v -0.042696 0.009265 -0.042612
v -0.024544 0.056907 -0.099512
v -0.091495 0.055275 -0.006026
v -0.042206 0.008170 0.028450
v 0.066917 0.009041 -0.007830
v 0.085070 0.056682 -0.064729
v 0.025538 0.008031 0.049947
v 0.085863 0.054911 0.050254
v -0.023261 0.054041 0.086534
v -0.103501 0.131353 -0.040312
v -0.103011 0.130259 0.030750
v 0.005319 0.132900 -0.120514
v -0.062123 0.132362 -0.098091
v 0.115236 0.131998 -0.041811
v 0.073064 0.132761 -0.099017
v 0.074347 0.129895 0.087030
v 0.115726 0.130904 0.029252
v -0.060840 0.129496 0.087956
v 0.006905 0.129357 0.109453
v -0.073639 0.207346 -0.061314
v 0.035485 0.208216 -0.097595
v 0.103719 0.206982 -0.005035
v 0.036768 0.205350 0.088451
v -0.072846 0.205575 0.053669
v -0.013314 0.254226 -0.061008
v -0.054693 0.253216 -0.003230
v 0.054430 0.254087 -0.039511
v 0.054920 0.252992 0.031552
v -0.012521 0.252454 0.053975
v -0.090895 0.027264 0.006416
v -0.090261 0.030427 0.006045
v -0.089830 0.030331 0.006442
v -0.090718 0.028195 0.006134
v -0.090393 0.028554 0.006181
v -0.089965 0.030364 0.006152
v -0.090413 0.028127 0.006414
v -0.044835 0.249297 0.009417
v -0.044160 0.252439 0.009885
v -0.044403 0.249202 0.009814
v -0.044366 0.251523 0.009574
v -0.044211 0.251064 0.009609
v -0.044061 0.251456 0.009855
v -0.044539 0.249234 0.009524
v -0.089434 0.026512 0.035530
v -0.088369 0.029580 0.035555
v -0.088759 0.029654 0.035998
v -0.088952 0.027376 0.035528
v -0.088909 0.027789 0.035779
v -0.088475 0.029597 0.035859
v -0.089228 0.027428 0.035840
v -0.042699 0.251687 0.038999
v -0.043333 0.248524 0.039369
v -0.042943 0.248450 0.038927
v -0.042876 0.250756 0.039281
v -0.042727 0.250300 0.039207
v -0.043048 0.248467 0.039230
v -0.042601 0.250704 0.038968
v -0.119409 0.033158 0.007998
v -0.119165 0.036395 0.008070
v -0.118776 0.036321 0.007628
v -0.119508 0.034141 0.008029
v -0.119382 0.034545 0.007790
v -0.119060 0.036378 0.007767
v -0.119232 0.034089 0.007716
v -0.072674 0.258333 0.011467
v -0.073349 0.255191 0.011000
v -0.073739 0.255265 0.011442
v -0.072881 0.257417 0.011157
v -0.073200 0.257056 0.011218
v -0.073634 0.255248 0.011138
v -0.073156 0.257469 0.011469
v -0.117949 0.032406 0.037112
v -0.117273 0.035548 0.037580
v -0.117705 0.035643 0.037183
v -0.117742 0.033322 0.037423
v -0.117897 0.033781 0.037388
v -0.117570 0.035611 0.037473
v -0.118047 0.033389 0.037142
v -0.071214 0.257581 0.040581
v -0.072279 0.254514 0.040555
v -0.071847 0.254418 0.040952
v -0.071696 0.256718 0.040583
v -0.071715 0.256292 0.040816
v -0.072144 0.254481 0.040845
v -0.071391 0.256650 0.040863
v 0.006228 0.031493 0.098713
v 0.006294 0.034607 0.097795
v 0.006708 0.034666 0.098217
v 0.006249 0.032378 0.098272
v 0.006499 0.032795 0.098265
v 0.006589 0.034622 0.097922
v 0.006542 0.032420 0.098570
v 0.010502 0.255388 0.062904
v 0.010557 0.258633 0.062816
v 0.010916 0.255446 0.063325
v 0.010543 0.257656 0.062670
v 0.010777 0.257247 0.062793
v 0.010836 0.257697 0.062968
v 0.010797 0.255402 0.063030
v 0.005842 0.036052 0.127512
v 0.006323 0.039225 0.127016
v 0.005897 0.039297 0.127424
v 0.006157 0.036978 0.127369
v 0.006107 0.037430 0.127542
v 0.006196 0.039273 0.127307
v 0.005856 0.037030 0.127658
v 0.010172 0.263192 0.091615
v 0.010106 0.260078 0.092532
v 0.010531 0.260005 0.092124
v 0.010150 0.262307 0.092055
v 0.010385 0.261882 0.092070
v 0.010404 0.260054 0.092415
v 0.010451 0.262256 0.091767
v -0.022925 0.031975 0.098246
v -0.023284 0.035162 0.097737
v -0.022859 0.035089 0.097329
v -0.023204 0.032911 0.098094
v -0.023138 0.033285 0.097791
v -0.023157 0.035114 0.097446
v -0.022903 0.032860 0.097806
v -0.018595 0.259115 0.062350
v -0.018650 0.255870 0.062437
v -0.019076 0.255942 0.062845
v -0.018609 0.258138 0.062203
v -0.018860 0.257737 0.062319
v -0.018949 0.255894 0.062554
v -0.018910 0.258189 0.062492
v -0.023310 0.036534 0.127045
v -0.023255 0.039779 0.126958
v -0.023669 0.039721 0.126536
v -0.023296 0.037512 0.127191
v -0.023530 0.037920 0.127068
v -0.023550 0.039765 0.126831
v -0.023589 0.037470 0.126893
v -0.018981 0.263674 0.091148
v -0.019461 0.260501 0.091644
v -0.019047 0.260560 0.092066
v -0.019295 0.262748 0.091291
v -0.019252 0.262372 0.091596
v -0.019342 0.260545 0.091940
v -0.019002 0.262789 0.091589
v 0.117634 0.032747 0.028765
v 0.117223 0.035881 0.028022
v 0.117640 0.035978 0.028435
v 0.117514 0.033647 0.028375
v 0.117701 0.034096 0.028384
v 0.117518 0.035932 0.028141
v 0.117808 0.033715 0.028666
v 0.088709 0.256464 0.005454
v 0.088298 0.259684 0.005547
v 0.089125 0.256560 0.005867
v 0.088418 0.258723 0.005347
v 0.088712 0.258347 0.005440
v 0.088712 0.258791 0.005639
v 0.089003 0.256514 0.005573
v 0.117619 0.035713 0.057774
v 0.117625 0.038944 0.057444
v 0.117208 0.038933 0.057867
v 0.117793 0.036681 0.057675
v 0.117686 0.037111 0.057875
v 0.117503 0.038958 0.057741
v 0.117499 0.036674 0.057974
v 0.088283 0.262650 0.034556
v 0.088694 0.259516 0.035299
v 0.089110 0.259526 0.034876
v 0.088403 0.261750 0.034946
v 0.088697 0.261363 0.034931
v 0.088988 0.259541 0.035173
v 0.088698 0.261757 0.034647
v 0.088712 0.029046 0.029129
v 0.087885 0.032169 0.028809
v 0.088301 0.032180 0.028386
v 0.088297 0.029938 0.029038
v 0.088298 0.030333 0.028754
v 0.088007 0.032155 0.028512
v 0.088592 0.029946 0.028739
v 0.059376 0.255982 0.005911
v 0.059787 0.252763 0.005818
v 0.059370 0.252752 0.006241
v 0.059496 0.255022 0.005711
v 0.059309 0.254584 0.005810
v 0.059492 0.252737 0.005944
v 0.059202 0.255014 0.006010
v 0.088697 0.032012 0.058138
v 0.088286 0.035231 0.058231
v 0.087870 0.035135 0.057818
v 0.088577 0.032972 0.058338
v 0.088283 0.033348 0.058245
v 0.087992 0.035181 0.058112
v 0.088282 0.032905 0.058047
v 0.059361 0.258948 0.034920
v 0.059355 0.255718 0.035250
v 0.059772 0.255814 0.035663
v 0.059187 0.257980 0.035019
v 0.059294 0.257600 0.035301
v 0.059477 0.255764 0.035544
v 0.059481 0.258048 0.035310
v 0.071084 0.021029 -0.102935
v 0.070961 0.024274 -0.102915
v 0.071359 0.024232 -0.102477
v 0.071056 0.022003 -0.103102
v 0.071277 0.022418 -0.102978
v 0.071251 0.024268 -0.102778
v 0.071338 0.021973 -0.102792
v 0.060999 0.245556 -0.072685
v 0.060835 0.248686 -0.071834
v 0.061398 0.245514 -0.072246
v 0.060892 0.247793 -0.072255
v 0.061150 0.247381 -0.072245
v 0.061174 0.247763 -0.071945
v 0.061289 0.245550 -0.072547
v 0.069679 0.017024 -0.074086
v 0.069955 0.020227 -0.073628
v 0.069516 0.020154 -0.073235
v 0.069934 0.017969 -0.073942
v 0.069849 0.018347 -0.073649
v 0.069818 0.020182 -0.073340
v 0.069623 0.017917 -0.073664
v 0.059431 0.244681 -0.042984
v 0.059554 0.241436 -0.043004
v 0.059993 0.241510 -0.043397
v 0.059459 0.243707 -0.042818
v 0.059722 0.243310 -0.042915
v 0.059856 0.241464 -0.043110
v 0.059769 0.243759 -0.043096
v 0.041987 0.019933 -0.104504
v 0.041424 0.023105 -0.104091
v 0.041863 0.023178 -0.104484
v 0.041648 0.020856 -0.104392
v 0.041696 0.021305 -0.104573
v 0.041561 0.023150 -0.104378
v 0.041959 0.020908 -0.104670
v 0.031738 0.247590 -0.073402
v 0.031902 0.244461 -0.074253
v 0.031463 0.244387 -0.073860
v 0.031794 0.246697 -0.073824
v 0.031568 0.246267 -0.073839
v 0.031600 0.244433 -0.074147
v 0.031484 0.246645 -0.073546
v 0.040582 0.015929 -0.075654
v 0.040419 0.019058 -0.074803
v 0.040020 0.019100 -0.075241
v 0.040526 0.016821 -0.075233
v 0.040268 0.017233 -0.075243
v 0.040128 0.019064 -0.074941
v 0.040244 0.016851 -0.075543
v 0.030334 0.243586 -0.044553
v 0.030058 0.240383 -0.045011
v 0.030457 0.240341 -0.044573
v 0.030079 0.242641 -0.044696
v 0.030141 0.242196 -0.044510
v 0.030167 0.240346 -0.044710
v 0.030361 0.242611 -0.044386
v -0.039962 0.027321 -0.104613
v -0.039604 0.030544 -0.104781
v -0.039200 0.030467 -0.104352
v -0.039851 0.028278 -0.104836
v -0.039567 0.028662 -0.104743
v -0.039313 0.030503 -0.104651
v -0.039566 0.028224 -0.104532
v -0.015695 0.252140 -0.087377
v -0.015365 0.255300 -0.086707
v -0.015292 0.252063 -0.086947
v -0.015456 0.254387 -0.087077
v -0.015261 0.253943 -0.087049
v -0.015170 0.254333 -0.086773
v -0.015404 0.252098 -0.087247
v -0.040930 0.025143 -0.075551
v -0.040169 0.028289 -0.075289
v -0.040600 0.028303 -0.074881
v -0.040534 0.026046 -0.075470
v -0.040552 0.026448 -0.075197
v -0.040301 0.028280 -0.074997
v -0.040839 0.026056 -0.075181
v -0.016333 0.253122 -0.057645
v -0.016691 0.249899 -0.057477
v -0.016260 0.249884 -0.057885
v -0.016444 0.252165 -0.057422
v -0.016245 0.251728 -0.057503
v -0.016392 0.249876 -0.057592
v -0.016139 0.252155 -0.057711
v -0.068939 0.030505 -0.105340
v -0.069012 0.033742 -0.105100
v -0.068580 0.033728 -0.105508
v -0.069133 0.031472 -0.105274
v -0.069026 0.031898 -0.105482
v -0.068880 0.033751 -0.105393
v -0.068828 0.031462 -0.105562
v -0.044341 0.258484 -0.087434
v -0.044672 0.255323 -0.088103
v -0.045103 0.255338 -0.087695
v -0.044432 0.257571 -0.087803
v -0.044720 0.257179 -0.087788
v -0.044971 0.255346 -0.087988
v -0.044737 0.257581 -0.087515
v -0.069907 0.028327 -0.076277
v -0.069576 0.031487 -0.075608
v -0.069980 0.031564 -0.076037
v -0.069816 0.029239 -0.075908
v -0.070010 0.029684 -0.075936
v -0.069867 0.031529 -0.075738
v -0.070101 0.029294 -0.076211
v -0.045309 0.256305 -0.058372
v -0.046071 0.253160 -0.058633
v -0.045668 0.253082 -0.058204
v -0.045705 0.255403 -0.058452
v -0.045704 0.254965 -0.058242
v -0.045959 0.253124 -0.058334
v -0.045420 0.255348 -0.058149
v 0.024992 0.211538 -0.007833
v 0.025432 0.211507 0.018320
v 0.000697 0.211224 0.026820
v -0.015031 0.211080 0.005920
v -0.000015 0.211274 -0.015497
v 0.026313 0.210373 0.005224
v 0.007267 0.206620 0.005540
v 0.013431 0.210207 0.023597
v -0.008024 0.209980 0.017023
v -0.008401 0.210007 -0.005414
v 0.012820 0.210250 -0.012706
v -0.023775 0.215325 -0.000172
v -0.037685 0.229858 0.000079
v -0.031266 0.239035 -0.021182
v -0.013389 0.230173 -0.034573
v -0.008759 0.215520 -0.021589
v -0.032482 0.221855 -0.000018
v -0.028173 0.223826 -0.019151
v -0.036454 0.234426 -0.011158
v -0.023572 0.234592 -0.029531
v -0.011638 0.222124 -0.029747
v -0.017145 0.214252 -0.011506
v 0.028057 0.215919 -0.017983
v 0.003049 0.215655 -0.025646
v -0.001580 0.230308 -0.038631
v 0.020566 0.239629 -0.038993
v 0.038882 0.230736 -0.026231
v 0.015884 0.214630 -0.022856
v 0.019686 0.224374 -0.035597
v 0.000170 0.222260 -0.033804
v 0.009458 0.234971 -0.040881
v 0.030912 0.235197 -0.034306
v 0.034884 0.222626 -0.023166
v 0.036005 0.215957 0.018148
v 0.035565 0.215988 -0.008005
v 0.046391 0.230804 -0.016253
v 0.053521 0.239930 0.004801
v 0.047102 0.230754 0.026062
v 0.036885 0.214823 0.005051
v 0.050115 0.224653 0.004841
v 0.042392 0.222695 -0.013189
v 0.051913 0.235390 -0.006398
v 0.052290 0.235363 0.016038
v 0.043003 0.222652 0.023115
v 0.004100 0.215581 0.036871
v 0.028836 0.215864 0.028372
v 0.039934 0.230661 0.036287
v 0.022057 0.239523 0.049678
v -0.000089 0.230203 0.050039
v 0.016835 0.214563 0.033649
v 0.021063 0.224276 0.046277
v 0.035834 0.222559 0.033339
v 0.032239 0.235103 0.044636
v 0.011019 0.234860 0.051928
v 0.001498 0.222166 0.045137
v -0.037475 0.229844 0.012564
v -0.023565 0.215311 0.012313
v -0.007838 0.215455 0.033213
v -0.012027 0.230077 0.046381
v -0.030344 0.238970 0.033619
v -0.032272 0.221840 0.012467
v -0.027322 0.223766 0.031449
v -0.016558 0.214210 0.023415
v -0.010440 0.222040 0.041479
v -0.022374 0.234508 0.041694
v -0.035866 0.234384 0.023764
v 0.013925 0.246567 -0.038873
v -0.008221 0.237246 -0.038511
v -0.026098 0.246108 -0.025120
v -0.015000 0.260905 -0.017205
v 0.009736 0.261189 -0.025704
v 0.002817 0.241909 -0.040761
v -0.007227 0.252493 -0.035111
v -0.018403 0.241666 -0.033469
v -0.021998 0.254210 -0.022172
v -0.002999 0.262206 -0.022482
v 0.012338 0.254604 -0.033970
v 0.051311 0.246926 -0.001397
v 0.044180 0.237800 -0.022452
v 0.025863 0.246693 -0.035214
v 0.021674 0.261315 -0.022046
v 0.037401 0.261459 -0.001146
v 0.049702 0.242385 -0.012597
v 0.041158 0.253004 -0.020282
v 0.036210 0.242262 -0.030527
v 0.024276 0.254730 -0.030312
v 0.030394 0.262559 -0.012248
v 0.046108 0.254930 -0.001300
v 0.027225 0.246596 0.045740
v 0.045102 0.237734 0.032349
v 0.051521 0.246911 0.011088
v 0.037611 0.261444 0.011339
v 0.022595 0.261250 0.032755
v 0.037408 0.242177 0.040698
v 0.042009 0.252944 0.030318
v 0.050290 0.242344 0.022325
v 0.046318 0.254915 0.011185
v 0.030981 0.262517 0.022673
v 0.025474 0.254645 0.040913
v -0.025046 0.246034 0.037398
v -0.006729 0.237141 0.050159
v 0.015416 0.246461 0.049798
v 0.010787 0.261114 0.036813
v -0.014221 0.260850 0.029149
v -0.017076 0.241572 0.045473
v -0.005850 0.252395 0.046763
v 0.004378 0.241798 0.052048
v 0.013666 0.254510 0.044971
v -0.002048 0.262139 0.034023
v -0.021048 0.254143 0.034333
v -0.033266 0.246015 -0.014896
v -0.039685 0.236839 0.006365
v -0.032555 0.245965 0.027420
v -0.021729 0.260781 0.019172
v -0.022169 0.260813 -0.006981
v -0.038454 0.241406 -0.004871
v -0.036279 0.252117 0.006326
v -0.038077 0.241380 0.017565
v -0.028556 0.254074 0.024356
v -0.023049 0.261947 0.006115
v -0.029166 0.254117 -0.011948
v 0.013139 0.265545 -0.015653
v -0.011596 0.265262 -0.007153
v -0.011156 0.265231 0.019000
v 0.013851 0.265495 0.026663
v 0.028867 0.265689 0.005247
v 0.000405 0.266563 -0.012431
v 0.006569 0.270150 0.005627
v -0.012477 0.266396 0.005943
v 0.001016 0.266520 0.023873
v 0.022237 0.266763 0.016581
v 0.021860 0.266789 -0.005856
vn -0.5633 -0.7446 -0.3581
vn -0.7790 0.3970 -0.4854
vn -0.6168 0.3871 -0.6854
vn -0.1884 0.9572 -0.2198
vn -0.3801 0.7679 -0.5156
vn -0.5458 0.7779 -0.3114
vn -0.1516 -0.7673 -0.6231
vn -0.2054 0.3649 -0.9081
vn 0.0506 0.3520 -0.9346
vn 0.0294 0.9455 -0.3243
vn 0.1012 0.7429 -0.6617
vn -0.1602 0.7560 -0.6347
vn 0.3268 -0.7898 -0.5190
vn 0.4990 0.3312 -0.8008
vn 0.6987 0.3229 -0.6384
vn 0.2573 0.9350 -0.2439
vn 0.5448 0.7233 -0.4243
vn 0.3409 0.7318 -0.5902
vn 0.5917 -0.7991 -0.1067
vn 0.9214 0.3158 -0.2264
vn 0.9480 0.3168 0.0299
vn 0.3617 0.9319 -0.0258
vn 0.6910 0.7205 0.0576
vn 0.6639 0.7194 -0.2041
vn 0.4879 -0.7895 0.3723
vn 0.8146 0.3275 0.4787
vn 0.6524 0.3373 0.6787
vn 0.2816 0.9380 0.2023
vn 0.4541 0.7363 0.5017
vn 0.6197 0.7262 0.2976
vn 0.0762 -0.7668 0.6373
vn 0.2410 0.3596 0.9014
vn -0.0150 0.3724 0.9279
vn 0.0638 0.9496 0.3068
vn -0.0272 0.7613 0.6479
vn 0.2342 0.7482 0.6208
vn -0.4023 -0.7443 0.5331
vn -0.4633 0.3932 0.7941
vn -0.6631 0.4016 0.6317
vn -0.1641 0.9601 0.2265
vn -0.4709 0.7809 0.4104
vn -0.2669 0.7724 0.5763
vn -0.6671 -0.7351 0.1208
vn -0.8858 0.4087 0.2197
vn -0.9124 0.4077 -0.0366
vn -0.2686 0.9632 0.0083
vn -0.6171 0.7836 -0.0715
vn -0.5900 0.7847 0.1902
vn -0.4554 0.2188 -0.8630
vn -0.2377 -0.9068 -0.3482
vn -0.2621 0.7842 -0.5624
vn -0.0769 0.9680 -0.2389
vn -0.6611 0.6380 -0.3947
vn -0.4922 0.6278 -0.6030
vn 0.0825 0.5977 -0.7974
vn -0.1841 0.6111 -0.7698
vn 0.2889 0.1815 -0.9400
vn 0.0706 -0.9222 -0.3802
vn 0.2179 0.7602 -0.6121
vn 0.1219 0.9580 -0.2595
vn 0.6264 0.5735 -0.5280
vn 0.4182 0.5822 -0.6973
vn 0.8699 0.1573 -0.4675
vn 0.3113 -0.9322 -0.1844
vn 0.5926 0.7446 -0.3074
vn 0.2771 0.9516 -0.1333
vn 0.8208 0.5692 0.0475
vn 0.7931 0.5681 -0.2195
vn 0.9472 0.1604 0.2778
vn 0.3433 -0.9310 0.1243
vn 0.6424 0.7466 0.1732
vn 0.2977 0.9524 0.0658
vn 0.5519 0.5875 0.5918
vn 0.7209 0.5772 0.3835
vn 0.4755 0.1889 0.8592
vn 0.1479 -0.9191 0.3651
vn 0.3382 0.7650 0.5481
vn 0.1717 0.9600 0.2211
vn -0.0228 0.6175 0.7862
vn 0.2439 0.6042 0.7586
vn -0.2689 0.2262 0.9362
vn -0.1604 -0.9037 0.3970
vn -0.1417 0.7890 0.5978
vn -0.0271 0.9700 0.2417
vn -0.5666 0.6418 0.5168
vn -0.3585 0.6331 0.6860
vn -0.8498 0.2504 0.4637
vn -0.4011 -0.8937 0.2013
vn -0.5164 0.8046 0.2931
vn -0.1823 0.9764 0.1155
vn -0.7611 0.6460 -0.0587
vn -0.7334 0.6471 0.2083
vn -0.9271 0.2474 -0.2815
vn -0.4331 -0.8949 -0.1074
vn -0.5662 0.8027 -0.1875
vn -0.2029 0.9756 -0.0836
vn -0.0491 -0.9988 0.0092
vn -0.3575 0.5952 -0.7197
vn -0.7488 0.6189 -0.2373
vn 0.0491 0.9988 -0.0092
vn 0.2600 0.5643 -0.7836
vn 0.7420 0.5442 -0.3916
vn 0.8061 0.5467 0.2266
vn 0.4148 0.5704 0.7089
vn -0.2027 0.6014 0.7728
vn -0.6846 0.6214 0.3809
vn -0.1242 -0.9100 -0.3955
vn -0.7633 -0.5744 -0.2957
vn 0.3261 -0.9110 -0.2526
vn 0.3294 -0.9182 0.2199
vn -0.1190 -0.9218 0.3689
vn -0.9244 -0.2681 -0.2713
vn -0.0311 -0.2549 -0.9665
vn 0.9062 -0.2620 -0.3318
vn 0.5923 -0.2797 0.7557
vn -0.5391 -0.2835 0.7931
vn -0.8086 -0.0941 -0.5807
vn 0.3012 -0.0853 -0.9497
vn 0.9952 -0.0978 -0.0084
vn 0.3142 -0.1144 0.9424
vn -0.8006 -0.1122 0.5887
vn -0.4519 0.5859 -0.6727
vn 0.5075 0.5880 -0.6299
vn 0.7633 0.5744 0.2957
vn -0.0380 0.5640 0.8249
vn -0.7890 0.5711 0.2264
vn -0.3261 0.9110 0.2526
vn -0.5580 0.7152 0.4209
vn -0.4425 0.5648 0.6966
vn 0.1242 0.9100 0.3955
vn 0.2159 0.7136 0.6664
vn 0.5162 0.5684 0.6406
vn 0.3993 0.9168 0.0114
vn 0.6885 0.7252 0.0064
vn 0.7593 0.5834 -0.2883
vn 0.1190 0.9218 -0.3689
vn 0.2068 0.7339 -0.6470
vn -0.0492 0.5891 -0.8065
vn -0.3294 0.9182 -0.2199
vn -0.5636 0.7277 -0.3909
vn -0.7920 0.5776 -0.1978
vn -0.9062 0.2620 0.3318
vn -0.7961 0.1397 0.5888
vn -0.5817 0.2561 0.7720
vn 0.0311 0.2549 0.9665
vn 0.3115 0.1374 0.9402
vn 0.5501 0.2590 0.7939
vn 0.9244 0.2681 0.2713
vn 0.9881 0.1539 -0.0044
vn 0.9206 0.2766 -0.2756
vn 0.5391 0.2835 -0.7931
vn 0.2986 0.1664 -0.9398
vn 0.0178 0.2845 -0.9585
vn -0.5923 0.2797 -0.7557
vn -0.8042 0.1576 -0.5731
vn -0.9107 0.2719 -0.3111
vn -0.3012 0.0853 0.9497
vn -0.2986 -0.1664 0.9398
vn -0.0178 -0.2845 0.9585
vn 0.8086 0.0941 0.5807
vn 0.8042 -0.1576 0.5731
vn 0.9107 -0.2719 0.3111
vn 0.8006 0.1122 -0.5887
vn 0.7961 -0.1397 -0.5888
vn 0.5817 -0.2561 -0.7720
vn -0.3142 0.1144 -0.9424
vn -0.3115 -0.1374 -0.9402
vn -0.5501 -0.2590 -0.7939
vn -0.9952 0.0978 0.0084
vn -0.9881 -0.1539 0.0044
vn -0.9206 -0.2766 0.2756
vn -0.5075 -0.5880 0.6299
vn -0.2068 -0.7339 0.6470
vn 0.0492 -0.5891 0.8065
vn 0.4519 -0.5859 0.6727
vn 0.5636 -0.7277 0.3909
vn 0.7920 -0.5776 0.1978
vn 0.7890 -0.5711 -0.2264
vn 0.5580 -0.7152 -0.4209
vn 0.4425 -0.5648 -0.6966
vn -0.7593 -0.5834 0.2883
vn -0.6885 -0.7252 -0.0064
vn -0.3993 -0.9168 -0.0114
vn 0.0380 -0.5640 -0.8249
vn -0.2159 -0.7136 -0.6664
vn -0.5162 -0.5684 -0.6406
vn 0.5962 -0.3345 -0.7298
vn 0.2377 -0.0869 -0.9674
vn 0.8758 -0.2142 -0.4325
vn 0.3355 -0.0160 -0.9419
vn 0.6845 0.0911 -0.7233
vn 0.9260 -0.1342 -0.3529
vn 0.6653 -0.3701 0.6484
vn 0.9354 -0.2505 0.2496
vn 0.4124 -0.1386 0.9004
vn 0.7536 0.0555 0.6549
vn 0.3539 -0.0353 0.9346
vn 0.9297 -0.1590 0.3323
vn -0.7536 -0.0555 -0.6549
vn -0.9563 0.1498 -0.2512
vn -0.4279 0.0636 -0.9016
vn -0.6653 0.3701 -0.6484
vn -0.3330 0.1360 -0.9331
vn -0.9141 0.2339 -0.3312
vn -0.6845 -0.0911 0.7233
vn -0.2586 -0.0137 0.9659
vn -0.8914 0.1393 0.4313
vn -0.5961 0.3345 0.7299
vn -0.9051 0.2349 0.3545
vn -0.3199 0.0910 0.9431
vn 0.8717 -0.4868 -0.0563
vn 0.9655 -0.2546 -0.0550
vn 0.3279 -0.0535 -0.9432
vn 0.8843 -0.1769 -0.4322
vn 0.9937 0.1013 -0.0472
vn 0.9874 -0.1490 -0.0534
vn 0.4205 -0.1012 0.9016
vn 0.9226 -0.1966 0.3319
vn -0.0133 -0.3186 0.9478
vn 0.0390 -0.0786 0.9961
vn 0.1088 0.2695 0.9568
vn 0.0610 0.0271 0.9978
vn -0.8843 0.1769 0.4322
vn -0.3280 0.0535 0.9432
vn -0.9937 -0.1013 0.0472
vn -0.9874 0.1490 0.0534
vn -0.8717 0.4868 0.0563
vn -0.9655 0.2546 0.0550
vn -0.4205 0.1012 -0.9017
vn -0.9226 0.1966 -0.3319
vn -0.1088 -0.2695 -0.9568
vn -0.0610 -0.0271 -0.9978
vn 0.0133 0.3187 -0.9478
vn -0.0390 0.0786 -0.9961
vn -0.2032 -0.9790 -0.0151
vn 0.9779 -0.2021 -0.0543
vn -0.0501 0.0258 -0.9984
vn 0.2032 0.9790 0.0151
vn 0.0501 -0.0258 0.9984
vn -0.9779 0.2021 0.0543
vn 0.6950 -0.3340 -0.6367
vn 0.3140 -0.2046 -0.9271
vn 0.9273 -0.1128 -0.3569
vn 0.3952 -0.1128 -0.9116
vn 0.7032 0.0953 -0.7045
vn 0.9565 -0.0122 -0.2916
vn 0.6768 -0.1181 0.7266
vn 0.9465 -0.0192 0.3220
vn 0.3694 0.1002 0.9239
vn 0.6850 0.3111 0.6588
vn 0.2908 0.1946 0.9368
vn 0.9186 0.0823 0.3865
vn -0.6850 -0.3111 -0.6588
vn -0.9485 -0.0823 -0.3060
vn -0.3708 -0.1758 -0.9119
vn -0.6768 0.1181 -0.7266
vn -0.2889 -0.0930 -0.9528
vn -0.9172 -0.0067 -0.3984
vn -0.7032 -0.0953 0.7045
vn -0.3160 0.1030 0.9432
vn -0.9287 0.0372 0.3689
vn -0.6950 0.3340 0.6367
vn -0.9545 0.1138 0.2755
vn -0.3938 0.1884 0.8997
vn 0.9479 -0.3124 0.0621
vn 0.9973 -0.0698 0.0244
vn 0.3948 -0.1508 -0.9063
vn 0.9287 -0.0751 -0.3632
vn 0.9592 0.2808 -0.0316
vn 0.9993 0.0368 0.0075
vn 0.3704 0.1381 0.9186
vn 0.9186 0.0446 0.3927
vn -0.0183 -0.1475 0.9889
vn -0.0142 0.1028 0.9946
vn -0.0069 0.4457 0.8952
vn -0.0122 0.2094 0.9778
vn -0.9287 0.0751 0.3632
vn -0.3948 0.1508 0.9063
vn -0.9592 -0.2809 0.0316
vn -0.9993 -0.0368 -0.0075
vn -0.9479 0.3124 -0.0621
vn -0.9973 0.0698 -0.0244
vn -0.3704 -0.1381 -0.9186
vn -0.9186 -0.0446 -0.3927
vn 0.0069 -0.4457 -0.8951
vn 0.0122 -0.2094 -0.9778
vn 0.0183 0.1475 -0.9889
vn 0.0142 -0.1028 -0.9946
vn -0.0188 -0.9876 0.1561
vn 0.9997 -0.0165 0.0160
vn 0.0132 -0.1563 -0.9876
vn 0.0188 0.9876 -0.1561
vn -0.0132 0.1563 0.9876
vn -0.9997 0.0165 -0.0160
vn 0.7126 -0.1970 -0.6733
vn 0.3071 -0.1091 -0.9454
vn 0.9207 0.0405 -0.3881
vn 0.3749 -0.0076 -0.9271
vn 0.6572 0.2318 -0.7172
vn 0.9376 0.1408 -0.3180
vn 0.7119 -0.0566 0.7000
vn 0.9504 0.1008 0.2942
vn 0.3837 0.1047 0.9175
vn 0.6565 0.3723 0.6561
vn 0.2930 0.1860 0.9379
vn 0.9106 0.1939 0.3650
vn -0.6565 -0.3723 -0.6561
vn -0.9373 -0.2023 -0.2839
vn -0.3739 -0.1802 -0.9098
vn -0.7119 0.0566 -0.6999
vn -0.3061 -0.0845 -0.9482
vn -0.9203 -0.1183 -0.3728
vn -0.6572 -0.2319 0.7172
vn -0.2940 0.0077 0.9558
vn -0.9110 -0.1161 0.3958
vn -0.7126 0.1970 0.6733
vn -0.9507 -0.0393 0.3076
vn -0.3846 0.0831 0.9193
vn 0.9843 -0.1753 0.0184
vn 0.9973 0.0735 -0.0070
vn 0.3800 -0.0454 -0.9239
vn 0.9165 0.0783 -0.3923
vn 0.9077 0.4175 -0.0422
vn 0.9835 0.1800 -0.0179
vn 0.3791 0.1425 0.9143
vn 0.9162 0.1562 0.3691
vn 0.0378 -0.1993 0.9792
vn 0.0064 0.0483 0.9988
vn -0.0388 0.3934 0.9186
vn -0.0074 0.1548 0.9879
vn -0.9165 -0.0784 0.3922
vn -0.3800 0.0454 0.9239
vn -0.9077 -0.4174 0.0422
vn -0.9835 -0.1800 0.0179
vn -0.9843 0.1753 -0.0184
vn -0.9973 -0.0735 0.0070
vn -0.3791 -0.1426 -0.9143
vn -0.9161 -0.1562 -0.3692
vn 0.0388 -0.3934 -0.9186
vn 0.0074 -0.1548 -0.9879
vn -0.0378 0.1993 -0.9792
vn -0.0064 -0.0483 -0.9988
vn 0.1275 -0.9867 0.1009
vn 0.9918 0.1269 -0.0125
vn 0.0005 -0.1017 -0.9948
vn -0.1275 0.9867 -0.1009
vn -0.0005 0.1017 0.9948
vn -0.9918 -0.1269 0.0125
vn 0.7316 -0.0944 -0.6751
vn 0.3500 0.0912 -0.9323
vn 0.9413 0.0493 -0.3339
vn 0.4243 0.1790 -0.8876
vn 0.7123 0.3358 -0.6163
vn 0.9620 0.1282 -0.2411
vn 0.6652 -0.2840 0.6906
vn 0.9374 -0.0567 0.3435
vn 0.3388 -0.1503 0.9288
vn 0.6458 0.1463 0.7494
vn 0.2537 -0.0684 0.9649
vn 0.9011 0.0201 0.4332
vn -0.6458 -0.1463 -0.7494
vn -0.9328 -0.0451 -0.3574
vn -0.3354 0.0745 -0.9391
vn -0.6652 0.2840 -0.6906
vn -0.2583 0.1702 -0.9510
vn -0.9045 0.0557 -0.4228
vn -0.7123 -0.3359 0.6163
vn -0.3454 -0.1930 0.9184
vn -0.9379 -0.1251 0.3235
vn -0.7316 0.0944 0.6751
vn -0.9666 -0.0264 0.2550
vn -0.4277 -0.1033 0.8980
vn 0.9652 -0.2615 0.0107
vn 0.9988 -0.0159 0.0464
vn 0.4263 0.1413 -0.8935
vn 0.9403 0.0873 -0.3289
vn 0.9384 0.3331 0.0919
vn 0.9940 0.0909 0.0610
vn 0.3374 -0.1125 0.9346
vn 0.9035 -0.0178 0.4283
vn -0.0326 -0.4283 0.9031
vn -0.0457 -0.1905 0.9806
vn -0.0593 0.1663 0.9843
vn -0.0505 -0.0837 0.9952
vn -0.9403 -0.0873 0.3289
vn -0.4264 -0.1413 0.8935
vn -0.9384 -0.3331 -0.0919
vn -0.9940 -0.0909 -0.0610
vn -0.9652 0.2615 -0.0107
vn -0.9988 0.0159 -0.0464
vn -0.3373 0.1125 -0.9346
vn -0.9035 0.0178 -0.4283
vn 0.0593 -0.1663 -0.9843
vn 0.0505 0.0837 -0.9952
vn 0.0326 0.4283 -0.9030
vn 0.0457 0.1905 -0.9806
vn 0.0446 -0.9898 -0.1352
vn 0.9978 0.0376 0.0538
vn 0.0482 0.1373 -0.9894
vn -0.0446 0.9898 0.1352
vn -0.0482 -0.1373 0.9894
vn -0.9978 -0.0376 -0.0538
vn 0.6855 -0.2392 -0.6876
vn 0.3267 -0.0129 -0.9450
vn 0.9260 -0.1102 -0.3611
vn 0.4147 0.0651 -0.9076
vn 0.7320 0.1917 -0.6538
vn 0.9613 -0.0303 -0.2738
vn 0.6397 -0.3423 0.6882
vn 0.9302 -0.1775 0.3212
vn 0.3453 -0.1486 0.9267
vn 0.6862 0.0885 0.7220
vn 0.2745 -0.0531 0.9601
vn 0.9088 -0.0914 0.4071
vn -0.6862 -0.0885 -0.7220
vn -0.9412 0.0755 -0.3292
vn -0.3534 0.0728 -0.9326
vn -0.6397 0.3423 -0.6882
vn -0.2635 0.1551 -0.9521
vn -0.9006 0.1673 -0.4012
vn -0.7320 -0.1916 0.6538
vn -0.3377 -0.0890 0.9370
vn -0.9342 0.0343 0.3552
vn -0.6855 0.2392 0.6876
vn -0.9503 0.1323 0.2818
vn -0.4066 0.0107 0.9136
vn 0.9157 -0.4019 0.0004
vn 0.9865 -0.1625 0.0207
vn 0.4110 0.0272 -0.9112
vn 0.9308 -0.0723 -0.3584
vn 0.9799 0.1936 0.0472
vn 0.9980 -0.0555 0.0291
vn 0.3496 -0.1108 0.9303
vn 0.9054 -0.1294 0.4044
vn -0.0638 -0.3690 0.9272
vn -0.0389 -0.1281 0.9910
vn 0.0005 0.2265 0.9740
vn -0.0274 -0.0211 0.9994
vn -0.9308 0.0723 0.3584
vn -0.4110 -0.0272 0.9112
vn -0.9800 -0.1936 -0.0472
vn -0.9980 0.0555 -0.0291
vn -0.9157 0.4018 -0.0004
vn -0.9865 0.1625 -0.0207
vn -0.3496 0.1108 -0.9303
vn -0.9054 0.1295 -0.4044
vn -0.0005 -0.2265 -0.9740
vn 0.0274 0.0211 -0.9994
vn 0.0638 0.3690 -0.9273
vn 0.0389 0.1281 -0.9910
vn -0.1069 -0.9912 -0.0779
vn 0.9937 -0.1092 0.0249
vn 0.0332 0.0747 -0.9967
vn 0.1069 0.9912 0.0779
vn -0.0332 -0.0747 0.9967
vn -0.9937 0.1092 -0.0249
vn 0.1614 -0.9762 -0.1451
vn 0.1940 -0.9761 0.0976
vn -0.0267 -0.9787 0.2035
vn -0.1957 -0.9803 0.0264
vn -0.0794 -0.9787 -0.1891
vn -0.5375 -0.8090 -0.2378
vn -0.8019 -0.5177 -0.2983
vn -0.8143 -0.2364 -0.5301
vn -0.5493 -0.5144 -0.6585
vn -0.3941 -0.7774 -0.4903
vn 0.3493 -0.7691 -0.5352
vn 0.0651 -0.8019 -0.5939
vn 0.0390 -0.5077 -0.8607
vn 0.2539 -0.2241 -0.9409
vn 0.4597 -0.5032 -0.7318
vn 0.6218 -0.7671 0.1580
vn 0.5899 -0.7968 -0.1308
vn 0.8338 -0.4998 -0.2346
vn 0.9747 -0.2174 -0.0518
vn 0.8412 -0.5003 0.2053
vn 0.0467 -0.7741 0.6314
vn 0.3117 -0.8007 0.5115
vn 0.4840 -0.5049 0.7147
vn 0.3519 -0.2256 0.9084
vn 0.0679 -0.5097 0.8577
vn -0.7914 -0.5184 0.3238
vn -0.5811 -0.7804 0.2307
vn -0.3851 -0.8083 0.4454
vn -0.5269 -0.5160 0.6754
vn -0.7537 -0.2373 0.6129
vn -0.0679 0.5097 -0.8577
vn -0.2854 0.2263 -0.9313
vn -0.4840 0.5049 -0.7147
vn -0.3670 0.7704 -0.5213
vn -0.0850 0.8033 -0.5894
vn 0.7914 0.5184 -0.3238
vn 0.7960 0.2377 -0.5566
vn 0.5269 0.5160 -0.6754
vn 0.3775 0.7785 -0.5014
vn 0.5293 0.8096 -0.2538
vn 0.5493 0.5144 0.6585
vn 0.7739 0.2359 0.5877
vn 0.8019 0.5177 0.2983
vn 0.5886 0.7799 0.2129
vn 0.3999 0.8072 0.4341
vn -0.4597 0.5032 0.7318
vn -0.3212 0.2234 0.9203
vn -0.0390 0.5077 0.8607
vn -0.0254 0.7726 0.6344
vn -0.2943 0.7995 0.5236
vn -0.8412 0.5003 -0.2053
vn -0.9759 0.2175 -0.0185
vn -0.8338 0.4998 0.2346
vn -0.6161 0.7667 0.1807
vn -0.5940 0.7971 -0.1090
vn 0.0730 0.9792 -0.1893
vn -0.1662 0.9765 -0.1372
vn -0.1906 0.9759 0.1064
vn 0.0336 0.9782 0.2048
vn 0.1965 0.9803 0.0221
vn 0.2280 -0.9171 -0.3270
vn 0.0121 -0.9194 -0.3932
vn -0.3620 -0.9239 -0.1242
vn -0.2323 -0.9222 -0.3092
vn -0.2685 -0.5377 -0.7992
vn -0.1891 -0.7948 -0.5767
vn -0.8383 -0.5451 0.0134
vn -0.5998 -0.8001 0.0091
vn -0.2218 -0.9229 0.3146
vn -0.3576 -0.9242 0.1341
vn 0.3872 -0.9160 0.1054
vn 0.3834 -0.9157 -0.1205
vn 0.6805 -0.5277 -0.5084
vn 0.4950 -0.7875 -0.3671
vn 0.0252 -0.9203 0.3903
vn 0.2388 -0.9179 0.3169
vn 0.6972 -0.5289 0.4840
vn 0.5070 -0.7884 0.3483
vn -0.2415 -0.5396 0.8065
vn -0.1696 -0.7961 0.5809
vn -0.9028 0.1146 -0.4145
vn -0.9776 -0.1345 -0.1618
vn -0.8883 0.1136 0.4449
vn -0.9716 -0.1349 0.1942
vn 0.1144 0.1266 -0.9853
vn -0.1475 -0.1242 -0.9812
vn -0.6984 0.1172 -0.7060
vn -0.4842 -0.1281 -0.8655
vn 0.9716 0.1349 -0.1942
vn 0.8883 -0.1136 -0.4449
vn 0.4548 0.1302 -0.8810
vn 0.6743 -0.1155 -0.7294
vn 0.4842 0.1281 0.8655
vn 0.6984 -0.1172 0.7060
vn 0.9776 0.1345 0.1618
vn 0.9028 -0.1146 0.4145
vn -0.6743 0.1155 0.7294
vn -0.4548 -0.1302 0.8810
vn 0.1475 0.1242 0.9812
vn -0.1144 -0.1266 0.9853
vn -0.5070 0.7884 -0.3483
vn -0.6972 0.5289 -0.4840
vn 0.1696 0.7961 -0.5809
vn 0.2415 0.5396 -0.8065
vn 0.5998 0.8001 -0.0091
vn 0.8383 0.5451 -0.0134
vn 0.1891 0.7948 0.5767
vn 0.2685 0.5377 0.7992
vn -0.4950 0.7875 0.3671
vn -0.6805 0.5277 0.5084
vn -0.0252 0.9203 -0.3903
vn -0.2388 0.9179 -0.3169
vn -0.3834 0.9157 0.1205
vn -0.3872 0.9160 -0.1054
vn 0.3576 0.9242 -0.1341
vn 0.2218 0.9229 -0.3146
vn 0.2323 0.9222 0.3092
vn 0.3620 0.9239 0.1242
vn -0.2280 0.9171 0.3270
vn -0.0121 0.9194 0.3932
vn 0.3695 -0.8885 -0.2719
vn -0.1365 -0.8939 -0.4270
vn -0.4403 -0.8978 0.0063
vn 0.3784 -0.8892 0.2572
vn -0.1221 -0.8949 0.4292
vn -0.9573 -0.2885 0.0158
vn -0.7895 0.2701 -0.5511
vn -0.3091 -0.2801 -0.9088
vn 0.2784 0.2823 -0.9181
vn 0.7705 -0.2687 -0.5780
vn 0.9573 0.2885 -0.0158
vn 0.7895 -0.2701 0.5511
vn 0.3091 0.2801 0.9088
vn -0.2784 -0.2823 0.9181
vn -0.7705 0.2687 0.5780
vn 0.1221 0.8949 -0.4292
vn -0.3784 0.8892 -0.2572
vn 0.4403 0.8978 -0.0063
vn 0.1365 0.8939 0.4270
vn -0.3695 0.8885 0.2719
vn -0.5025 -0.7483 -0.4332
vn -0.7963 0.4815 -0.3662
vn -0.4998 0.4635 -0.7317
vn -0.2079 0.9584 -0.1958
vn -0.3605 0.7341 -0.5755
vn -0.6018 0.7487 -0.2780
vn -0.0556 -0.7721 -0.6331
vn -0.3012 0.4528 -0.8392
vn 0.1667 0.4293 -0.8876
vn -0.0013 0.9470 -0.3211
vn 0.1571 0.7076 -0.6889
vn -0.2237 0.7267 -0.6495
vn 0.4018 -0.7930 -0.4580
vn 0.3832 0.4193 -0.8230
vn 0.7483 0.4041 -0.5261
vn 0.2333 0.9360 -0.2634
vn 0.6034 0.6883 -0.4027
vn 0.3061 0.7007 -0.6445
vn 0.6017 -0.7987 -0.0105
vn 0.8559 0.4006 -0.3271
vn 0.9044 0.4025 0.1413
vn 0.3586 0.9318 -0.0566
vn 0.7169 0.6875 0.1155
vn 0.6774 0.6859 -0.2658
vn 0.4270 -0.7859 0.4473
vn 0.8400 0.4077 0.3580
vn 0.5435 0.4257 0.7235
vn 0.3011 0.9368 0.1783
vn 0.4312 0.7057 0.5622
vn 0.6726 0.6911 0.2647
vn -0.0199 -0.7620 0.6472
vn 0.3449 0.4364 0.8310
vn -0.1230 0.4599 0.8794
vn 0.0945 0.9481 0.3036
vn -0.0863 0.7322 0.6756
vn 0.2945 0.7131 0.6362
vn -0.4772 -0.7412 0.4722
vn -0.3394 0.4699 0.8148
vn -0.7046 0.4851 0.5178
vn -0.1401 0.9591 0.2459
vn -0.5326 0.7515 0.3894
vn -0.2353 0.7391 0.6312
vn -0.6771 -0.7355 0.0247
vn -0.8121 0.4886 0.3189
vn -0.8607 0.4866 -0.1495
vn -0.2654 0.9634 0.0391
vn -0.6461 0.7523 -0.1288
vn -0.6066 0.7538 0.2525
vn -0.6612 0.6380 -0.3947
vn 0.4182 0.5821 -0.6973
vn 0.5635 -0.4156 -0.7139
vn 0.3199 -0.0910 -0.9431
vn 0.9051 -0.2349 -0.3544
vn 0.2586 0.0137 -0.9659
vn 0.6868 0.1780 -0.7047
vn 0.8914 -0.1393 -0.4313
vn 0.6311 -0.4504 0.6316
vn 0.9141 -0.2339 0.3311
vn 0.3330 -0.1360 0.9331
vn 0.7542 0.1433 0.6408
vn 0.4279 -0.0636 0.9016
vn 0.9563 -0.1498 0.2511
vn -0.7542 -0.1433 -0.6408
vn -0.9297 0.1590 -0.3322
vn -0.3539 0.0353 -0.9346
vn -0.6310 0.4504 -0.6316
vn -0.4124 0.1386 -0.9004
vn -0.9354 0.2505 -0.2496
vn -0.6868 -0.1780 0.7048
vn -0.3355 0.0160 0.9419
vn -0.9260 0.1342 0.3529
vn -0.5636 0.4156 0.7139
vn -0.8758 0.2142 0.4325
vn -0.2377 0.0869 0.9674
vn 0.3280 -0.0535 -0.9432
vn 0.4205 -0.1012 0.9017
vn -0.8842 0.1769 0.4323
vn -0.3279 0.0535 0.9432
vn -0.8717 0.4869 0.0563
vn 0.0133 0.3186 -0.9478
vn 0.6768 -0.4159 -0.6074
vn 0.3938 -0.1884 -0.8997
vn 0.9545 -0.1138 -0.2755
vn 0.3160 -0.1030 -0.9432
vn 0.6883 0.1830 -0.7020
vn 0.9287 -0.0372 -0.3689
vn 0.6590 -0.2052 0.7236
vn 0.9172 0.0067 0.3984
vn 0.2889 0.0930 0.9528
vn 0.6705 0.3936 0.6289
vn 0.3708 0.1758 0.9119
vn 0.9485 0.0823 0.3060
vn -0.6705 -0.3936 -0.6289
vn -0.9186 -0.0823 -0.3864
vn -0.2908 -0.1946 -0.9368
vn -0.6591 0.2052 -0.7235
vn -0.3694 -0.1002 -0.9239
vn -0.9465 0.0192 -0.3220
vn -0.6883 -0.1829 0.7020
vn -0.3952 0.1129 0.9116
vn -0.9565 0.0122 0.2916
vn -0.6768 0.4159 0.6074
vn -0.9273 0.1128 0.3569
vn -0.3140 0.2046 0.9271
vn 0.9592 0.2809 -0.0316
vn -0.0069 0.4457 0.8951
vn 0.7073 -0.2821 -0.6481
vn 0.3846 -0.0831 -0.9193
vn 0.9507 0.0393 -0.3076
vn 0.2940 -0.0077 -0.9558
vn 0.6299 0.3161 -0.7094
vn 0.9110 0.1161 -0.3958
vn 0.7067 -0.1451 0.6925
vn 0.9203 0.1183 0.3728
vn 0.3061 0.0845 0.9482
vn 0.6293 0.4532 0.6314
vn 0.3739 0.1802 0.9098
vn 0.9373 0.2023 0.2839
vn -0.6293 -0.4532 -0.6313
vn -0.9106 -0.1939 -0.3650
vn -0.2930 -0.1859 -0.9379
vn -0.7066 0.1451 -0.6925
vn -0.3837 -0.1047 -0.9175
vn -0.9504 -0.1008 -0.2943
vn -0.6300 -0.3161 0.7093
vn -0.3749 0.0076 0.9271
vn -0.9376 -0.1408 0.3180
vn -0.7073 0.2821 0.6481
vn -0.9207 -0.0405 0.3881
vn -0.3071 0.1092 0.9454
vn 0.9077 0.4174 -0.0422
vn 0.3791 0.1426 0.9143
vn 0.9161 0.1562 0.3692
vn -0.9165 -0.0783 0.3922
vn -0.3791 -0.1425 -0.9143
vn 0.7184 -0.1822 -0.6714
vn 0.4277 0.1033 -0.8980
vn 0.9666 0.0264 -0.2550
vn 0.3454 0.1930 -0.9184
vn 0.6913 0.4180 -0.5894
vn 0.9379 0.1251 -0.3235
vn 0.6534 -0.3673 0.6619
vn 0.9045 -0.0557 0.4228
vn 0.2583 -0.1702 0.9509
vn 0.6264 0.2329 0.7439
vn 0.3354 -0.0745 0.9391
vn 0.9328 0.0451 0.3575
vn -0.6264 -0.2329 -0.7439
vn -0.9011 -0.0201 -0.4332
vn -0.2537 0.0684 -0.9649
vn -0.6534 0.3673 -0.6619
vn -0.3388 0.1503 -0.9288
vn -0.9374 0.0567 -0.3435
vn -0.6913 -0.4179 0.5894
vn -0.4243 -0.1790 0.8876
vn -0.9620 -0.1282 0.2411
vn -0.7183 0.1822 0.6714
vn -0.9413 -0.0493 0.3338
vn -0.3500 -0.0912 0.9323
vn 0.4264 0.1412 -0.8935
vn 0.9034 -0.0178 0.4283
vn -0.4263 -0.1413 0.8935
vn -0.3374 0.1125 -0.9346
vn 0.0326 0.4283 -0.9031
vn 0.6595 -0.3237 -0.6784
vn 0.4066 -0.0107 -0.9136
vn 0.9503 -0.1323 -0.2818
vn 0.3377 0.0890 -0.9370
vn 0.7244 0.2773 -0.6312
vn 0.9342 -0.0343 -0.3551
vn 0.6148 -0.4244 0.6648
vn 0.9006 -0.1673 0.4011
vn 0.2635 -0.1551 0.9521
vn 0.6796 0.1766 0.7120
vn 0.3534 -0.0728 0.9326
vn 0.9412 -0.0755 0.3292
vn -0.6796 -0.1766 -0.7120
vn -0.9088 0.0914 -0.4071
vn -0.2745 0.0531 -0.9601
vn -0.6148 0.4244 -0.6648
vn -0.3453 0.1486 -0.9267
vn -0.9302 0.1775 -0.3212
vn -0.7244 -0.2773 0.6312
vn -0.4147 -0.0651 0.9076
vn -0.9613 0.0303 0.2737
vn -0.6595 0.3237 0.6784
vn -0.9260 0.1102 0.3611
vn -0.3267 0.0129 0.9450
vn 0.4110 0.0272 -0.9113
vn 0.9800 0.1936 0.0472
vn -0.0638 -0.3690 0.9273
vn -0.4109 -0.0272 0.9113
vn -0.9799 -0.1936 -0.0472
vn -0.9054 0.1294 -0.4045
vn 0.0638 0.3690 -0.9272
vn 0.1906 -0.9759 -0.1064
vn 0.1662 -0.9765 0.1372
vn -0.0730 -0.9792 0.1893
vn -0.1965 -0.9803 -0.0221
vn -0.0336 -0.9782 -0.2048
vn -0.5886 -0.7799 -0.2129
vn -0.8445 -0.4791 -0.2395
vn -0.7739 -0.2359 -0.5877
vn -0.5090 -0.4747 -0.7180
vn -0.3999 -0.8072 -0.4341
vn 0.2943 -0.7995 -0.5236
vn 0.0254 -0.7726 -0.6344
vn -0.0302 -0.4692 -0.8825
vn 0.3212 -0.2234 -0.9203
vn 0.5285 -0.4633 -0.7113
vn 0.5940 -0.7971 0.1090
vn 0.6161 -0.7667 -0.1807
vn 0.8329 -0.4606 -0.3068
vn 0.9759 -0.2175 0.0185
vn 0.8427 -0.4613 0.2775
vn 0.0850 -0.8033 0.5894
vn 0.3671 -0.7704 0.5213
vn 0.5521 -0.4650 0.6920
vn 0.2854 -0.2263 0.9313
vn -0.0005 -0.4713 0.8819
vn -0.8359 -0.4797 0.2667
vn -0.5292 -0.8096 0.2538
vn -0.3775 -0.7785 0.5014
vn -0.4846 -0.4765 0.7336
vn -0.7960 -0.2377 0.5566
vn 0.0005 0.4713 -0.8819
vn -0.3519 0.2256 -0.9084
vn -0.5521 0.4650 -0.6920
vn -0.3117 0.8007 -0.5115
vn -0.0467 0.7741 -0.6314
vn 0.8359 0.4797 -0.2667
vn 0.7537 0.2373 -0.6129
vn 0.4846 0.4765 -0.7336
vn 0.3851 0.8083 -0.4454
vn 0.5811 0.7804 -0.2307
vn 0.5090 0.4747 0.7180
vn 0.8143 0.2364 0.5301
vn 0.8445 0.4791 0.2395
vn 0.5375 0.8090 0.2378
vn 0.3941 0.7774 0.4903
vn -0.5285 0.4633 0.7113
vn -0.2539 0.2241 0.9409
vn 0.0302 0.4692 0.8825
vn -0.0651 0.8019 0.5939
vn -0.3493 0.7691 0.5352
vn -0.8427 0.4613 -0.2775
vn -0.9747 0.2174 0.0518
vn -0.8329 0.4606 0.3068
vn -0.5899 0.7968 0.1308
vn -0.6218 0.7671 -0.1580
vn 0.0267 0.9787 -0.2035
vn -0.1940 0.9761 -0.0976
vn -0.1614 0.9762 0.1451
vn 0.0794 0.9787 0.1891
vn 0.1957 0.9803 -0.0264
vn -0.1696 -0.7961 0.5808
vn 0.1696 0.7961 -0.5808
vt 0.879646 -0.045000
vt 0.879646 -0.039965
vt 0.870910 -0.041670
vt 0.879646 -0.032524
vt 0.888382 -0.041670
vt 0.893660 -0.033631
vt 0.865632 -0.033631
vt 0.879646 0.045000
vt 0.879646 0.040425
vt 0.889351 0.041670
vt 0.879646 0.034737
vt 0.869941 0.041670
vt 0.862203 0.033631
vt 0.897089 0.033631
vt 0.659734 -0.045000
vt 0.659734 -0.039965
vt 0.650999 -0.041670
vt 0.659734 -0.032524
vt 0.668470 -0.041670
vt 0.673749 -0.033631
vt 0.645720 -0.033631
vt 0.659734 0.045000
vt 0.659734 0.040425
vt 0.669440 0.041670
vt 0.659734 0.034737
vt 0.650029 0.041670
vt 0.642292 0.033631
vt 0.677177 0.033631
vt 0.439823 -0.045000
vt 0.439823 -0.039965
vt 0.431087 -0.041670
vt 0.439823 -0.032524
vt 0.448559 -0.041670
vt 0.453837 -0.033631
vt 0.425809 -0.033631
vt 0.439823 0.045000
vt 0.439823 0.040425
vt 0.449528 0.041670
vt 0.439823 0.034737
vt 0.430118 0.041670
vt 0.422380 0.033631
vt 0.457266 0.033631
vt 0.219911 -0.045000
vt 0.219911 -0.039965
vt 0.211176 -0.041670
vt 0.219911 -0.032524
vt 0.228647 -0.041670
vt 0.233926 -0.033631
vt 0.205897 -0.033631
vt 0.219911 0.045000
vt 0.219911 0.040425
vt 0.229617 0.041670
vt 0.219911 0.034737
vt 0.210206 0.041670
vt 0.202469 0.033631
vt 0.237354 0.033631
vt 1.759292 -0.045000
vt 1.759292 -0.039965
vt 1.750556 -0.041670
vt 0.000000 -0.032524
vt 0.008736 -0.041670
vt 0.014014 -0.033631
vt 1.759292 -0.032524
vt 1.745278 -0.033631
vt 1.759292 0.045000
vt 1.759292 0.040425
vt 1.768997 0.041670
vt 1.759292 0.034737
vt 1.749587 0.041670
vt 1.741849 0.033631
vt 0.009705 0.041670
vt 0.000000 0.034737
vt 0.017443 0.033631
vt 1.539380 -0.045000
vt 1.539380 -0.039965
vt 1.530645 -0.041670
vt 1.539380 -0.032524
vt 1.548116 -0.041670
vt 1.553395 -0.033631
vt 1.525366 -0.033631
vt 1.539380 0.045000
vt 1.539380 0.040425
vt 1.549086 0.041670
vt 1.539380 0.034737
vt 1.529675 0.041670
vt 1.521938 0.033631
vt 1.556823 0.033631
vt 1.319469 -0.045000
vt 1.319469 -0.039965
vt 1.310733 -0.041670
vt 1.319469 -0.032524
vt 1.328205 -0.041670
vt 1.333483 -0.033631
vt 1.305455 -0.033631
vt 1.319469 0.045000
vt 1.319469 0.040425
vt 1.329174 0.041670
vt 1.319469 0.034737
vt 1.309764 0.041670
vt 1.302026 0.033631
vt 1.336912 0.033631
vt 1.099557 -0.045000
vt 1.099557 -0.039965
vt 1.090822 -0.041670
vt 1.099557 -0.032524
vt 1.108293 -0.041670
vt 1.113572 -0.033631
vt 1.085543 -0.033631
vt 1.099557 0.045000
vt 1.099557 0.040425
vt 1.109263 0.041670
vt 1.099557 0.034737
vt 1.089852 0.041670
vt 1.082115 0.033631
vt 1.117000 0.033631
vt 0.000000 0.045000
vt 0.500000 0.500000
vt 0.548912 0.464464
vt 0.481318 0.442501
vt 0.439542 0.435712
vt 0.464464 0.377718
vt 0.500000 0.424425
vt 0.439541 0.500000
vt 0.481318 0.557499
vt 0.548912 0.535536
vt 0.464464 0.500000
vt 0.468215 0.435712
vt 0.530230 0.424425
vt 0.500000 0.435713
vt 0.442500 0.424425
vt 0.420858 0.424425
vt 0.432405 0.500000
vt 0.583215 0.435712
vt 0.567595 0.500000
vt 0.406963 0.500000
vt 0.535536 0.500000
vt 0.560458 0.435712
vt 0.593037 0.500000
vt 0.531785 0.564288
vt 0.579142 0.575575
vt 0.518682 0.622282
vt 0.416785 0.564288
vt 0.469770 0.575575
vt 0.451088 0.622282
vt 0.560458 0.564288
vt 0.500000 0.575575
vt 0.535536 0.622282
vt 0.500000 0.564287
vt 0.557500 0.575575
vt 0.500000 0.622281
vt 0.560459 0.500000
vt 0.518682 0.557499
vt 0.579142 0.557500
vt 0.579142 0.575575
vt 0.451088 0.535536
vt 0.469770 0.593036
vt 0.451088 0.464464
vt 0.402175 0.500000
vt 0.439542 0.564288
vt 0.464464 0.622282
vt 0.518682 0.442501
vt 0.469770 0.406964
vt 0.579142 0.442500
vt 0.442500 0.575575
vt 0.557500 0.424425
vt 0.548912 0.377718
vt 0.530230 0.593036
vt 0.481318 0.377718
vt 0.420858 0.557500
vt 0.500000 0.377719
vt 0.420858 0.442500
vt 0.535536 0.377718
vt 0.597825 0.500000
vt 0.530230 0.406964
vt 0.485420 0.385943
vt 0.485123 0.385943
vt 0.485420 0.385000
vt 0.485420 0.388220
vt 0.485178 0.386361
vt 0.485123 0.388220
vt 0.485420 0.611780
vt 0.485178 0.613639
vt 0.485123 0.611780
vt 0.485123 0.614057
vt 0.485420 0.614057
vt 0.485420 0.615000
vt 0.514580 0.388220
vt 0.514822 0.386361
vt 0.514580 0.385943
vt 0.514580 0.611780
vt 0.514822 0.613639
vt 0.514877 0.611780
vt 0.514877 0.385943
vt 0.514580 0.385000
vt 0.514877 0.388220
vt 0.514580 0.614057
vt 0.514877 0.614057
vt 0.514580 0.615000
vt 0.514580 0.514580
vt 0.485420 0.485420
vt 0.485420 0.514580
vt 0.514580 0.485420
vt 0.481999 0.486922
vt 0.500000 0.500000
vt 0.494101 0.481846
vt 0.481999 0.513078
vt 0.480911 0.500000
vt 0.506876 0.521161
vt 0.494101 0.518154
vt 0.522251 0.500000
vt 0.515443 0.511220
vt 0.506876 0.478839
vt 0.515443 0.488780
vt 0.530844 0.493757
vt 0.534828 0.474696
vt 0.524036 0.482537
vt 0.482537 0.496495
vt 0.493757 0.483896
vt 0.493757 0.491957
vt 0.472596 0.501033
vt 0.474696 0.485793
vt 0.518138 0.483896
vt 0.529935 0.496495
vt 0.519718 0.491957
vt 0.515469 0.472595
vt 0.518138 0.464382
vt 0.478717 0.476819
vt 0.486697 0.459057
vt 0.471730 0.471743
vt 0.503594 0.468737
vt 0.490819 0.471744
vt 0.496718 0.496495
vt 0.506262 0.483896
vt 0.507843 0.491957
vt 0.485593 0.501033
vt 0.486697 0.485793
vt 0.471730 0.483896
vt 0.475376 0.496495
vt 0.467592 0.491957
vt 0.471377 0.513078
vt 0.456950 0.500000
vt 0.464390 0.518154
vt 0.471377 0.486922
vt 0.470289 0.500000
vt 0.488780 0.496495
vt 0.481846 0.483896
vt 0.478839 0.491957
vt 0.500000 0.501033
vt 0.500000 0.485793
vt 0.518154 0.483896
vt 0.511220 0.496495
vt 0.521161 0.491957
vt 0.503594 0.531263
vt 0.486697 0.540943
vt 0.506262 0.539476
vt 0.478717 0.523180
vt 0.490819 0.528256
vt 0.506243 0.483896
vt 0.517463 0.496495
vt 0.506243 0.491957
vt 0.530844 0.506243
vt 0.534828 0.525304
vt 0.539480 0.506243
vt 0.515469 0.527405
vt 0.524036 0.517463
vt 0.518138 0.483896
vt 0.519718 0.491957
vt 0.527404 0.501033
vt 0.525304 0.485793
vt 0.535618 0.496495
vt 0.503282 0.503505
vt 0.493738 0.516104
vt 0.492157 0.508043
vt 0.514407 0.498967
vt 0.513303 0.514207
vt 0.528270 0.516104
vt 0.524624 0.503505
vt 0.532408 0.508043
vt 0.521283 0.476819
vt 0.513303 0.459057
vt 0.528270 0.471743
vt 0.496406 0.468737
vt 0.509181 0.471744
vt 0.482537 0.503505
vt 0.493757 0.516104
vt 0.493757 0.508043
vt 0.472596 0.498967
vt 0.474696 0.514207
vt 0.481862 0.516104
vt 0.470065 0.503505
vt 0.480282 0.508043
vt 0.484531 0.472595
vt 0.465172 0.474696
vt 0.481862 0.464382
vt 0.469156 0.493757
vt 0.475964 0.482537
vt 0.527404 0.498967
vt 0.525304 0.514207
vt 0.535618 0.503505
vt 0.506243 0.516104
vt 0.517463 0.503505
vt 0.506243 0.508043
vt 0.469156 0.506243
vt 0.465172 0.525304
vt 0.460520 0.506243
vt 0.484531 0.527405
vt 0.475964 0.517463
vt 0.496406 0.531263
vt 0.513303 0.540943
vt 0.493738 0.539476
vt 0.521283 0.523180
vt 0.509181 0.528256
vt 0.488780 0.503505
vt 0.481846 0.516104
vt 0.478839 0.508043
vt 0.500000 0.498967
vt 0.500000 0.514207
vt 0.518154 0.516104
vt 0.511220 0.503505
vt 0.521161 0.508043
vt 0.528623 0.513078
vt 0.543050 0.500000
vt 0.535610 0.518154
vt 0.528623 0.486922
vt 0.529711 0.500000
vt 0.493124 0.478839
vt 0.500000 0.500000
vt 0.484557 0.488780
vt 0.518001 0.486922
vt 0.505899 0.481846
vt 0.518001 0.513078
vt 0.519089 0.500000
vt 0.493124 0.521161
vt 0.505899 0.518154
vt 0.477749 0.500000
vt 0.484557 0.511220
vt 0.468737 0.491957
vt 0.471743 0.483896
vt 0.531263 0.491957
vt 0.471730 0.528257
vt 0.518138 0.535618
vt 0.537719 0.501033
vt 0.462281 0.498967
vt 0.535610 0.481846
vt 0.468737 0.508043
vt 0.493738 0.460524
vt 0.460520 0.493757
vt 0.481862 0.535618
vt 0.528270 0.528257
vt 0.531263 0.508043
vt 0.528257 0.516104
vt 1.768028 -0.041670
vt 0.000000 -0.039965
vt 0.000000 0.040425
vt 0.000000 -0.045000
vt 0.539480 0.493757
vt 0.464382 0.496495
vt 0.534828 0.485793
vt 0.506262 0.460524
vt 0.464390 0.481846
vt 0.464382 0.503505
vt 0.465172 0.514207
vt 0.528257 0.483896
vt 0.471743 0.516104
s 0
usemtl moss
f 1/1/1 5/2/1 7/3/1
f 6/4/2 4/5/2 2/6/2
f 7/3/3 6/4/3 3/7/3
f 8/8/4 12/9/4 14/10/4
f 13/11/5 11/12/5 9/13/5
f 14/10/6 13/11/6 10/14/6
f 15/15/7 19/16/7 21/17/7
f 20/18/8 18/19/8 16/20/8
f 21/17/9 20/18/9 17/21/9
f 22/22/10 26/23/10 28/24/10
f 27/25/11 25/26/11 23/27/11
f 28/24/12 27/25/12 24/28/12
f 29/29/13 33/30/13 35/31/13
f 34/32/14 32/33/14 30/34/14
f 35/31/15 34/32/15 31/35/15
f 36/36/16 40/37/16 42/38/16
f 41/39/17 39/40/17 37/41/17
f 42/38/18 41/39/18 38/42/18
f 43/43/19 47/44/19 49/45/19
f 48/46/20 46/47/20 44/48/20
f 49/45/21 48/46/21 45/49/21
f 50/50/22 54/51/22 56/52/22
f 55/53/23 53/54/23 51/55/23
f 56/52/24 55/53/24 52/56/24
f 57/57/25 61/58/25 63/59/25
f 62/60/26 60/61/26 58/62/26
f 63/59/27 62/63/27 59/64/27
f 64/65/28 68/66/28 70/67/28
f 69/68/29 67/69/29 65/70/29
f 70/71/30 69/72/30 66/73/30
f 71/74/31 75/75/31 77/76/31
f 76/77/32 74/78/32 72/79/32
f 77/76/33 76/77/33 73/80/33
f 78/81/34 82/82/34 84/83/34
f 83/84/35 81/85/35 79/86/35
f 84/83/36 83/84/36 80/87/36
f 85/88/37 89/89/37 91/90/37
f 90/91/38 88/92/38 86/93/38
f 91/90/39 90/91/39 87/94/39
f 92/95/40 96/96/40 98/97/40
f 97/98/41 95/99/41 93/100/41
f 98/97/42 97/98/42 94/101/42
f 99/102/43 103/103/43 105/104/43
f 104/105/44 102/106/44 100/107/44
f 105/104/45 104/105/45 101/108/45
f 106/109/46 110/110/46 112/111/46
f 111/112/47 109/113/47 107/114/47
f 112/111/48 111/112/48 108/115/48
f 16/20/49 7/3/49 3/7/49
f 7/3/50 15/15/50 1/1/50
f 9/13/51 28/24/51 24/28/51
f 11/12/52 22/22/52 28/24/52
f 2/6/53 13/11/53 6/4/53
f 13/11/54 3/7/54 6/4/54
f 17/21/55 27/25/55 23/27/55
f 27/25/56 16/20/56 24/28/56
f 30/34/57 21/17/57 17/21/57
f 32/33/58 15/15/58 21/17/58
f 23/27/59 42/38/59 38/42/59
f 25/26/60 36/36/60 42/38/60
f 31/35/61 41/39/61 37/41/61
f 41/39/62 30/34/62 38/42/62
f 44/48/63 35/31/63 31/35/63
f 46/47/64 29/29/64 35/31/64
f 37/41/65 56/52/65 52/56/65
f 56/52/66 36/36/66 50/50/66
f 51/55/67 48/46/67 55/53/67
f 55/53/68 44/48/68 52/56/68
f 58/62/69 49/45/69 45/49/69
f 60/61/70 43/43/70 49/45/70
f 51/55/71 70/71/71 66/73/71
f 53/54/72 64/116/72 70/71/72
f 59/64/73 69/68/73 65/70/73
f 69/72/74 58/62/74 66/73/74
f 72/79/75 63/59/75 59/64/75
f 74/78/76 57/57/76 63/59/76
f 65/70/77 84/83/77 80/87/77
f 84/83/78 64/65/78 78/81/78
f 79/86/79 76/77/79 83/84/79
f 83/84/80 72/79/80 80/87/80
f 86/93/81 77/76/81 73/80/81
f 77/76/82 85/88/82 71/74/82
f 79/86/83 98/97/83 94/101/83
f 81/85/84 92/95/84 98/97/84
f 93/100/85 90/91/85 97/98/85
f 90/91/86 94/101/86 97/98/86
f 100/107/87 91/90/87 87/94/87
f 102/106/88 85/88/88 91/90/88
f 108/115/89 95/99/89 112/111/89
f 95/99/90 106/109/90 112/111/90
f 107/114/91 104/105/91 111/112/91
f 111/112/92 100/107/92 108/115/92
f 2/6/93 105/104/93 101/108/93
f 4/5/94 99/102/94 105/104/94
f 107/114/95 14/10/95 10/14/95
f 109/113/96 8/8/96 14/10/96
f 43/43/97 71/74/97 99/102/97
f 9/13/98 16/20/98 3/7/98
f 107/114/99 2/6/99 101/108/99
f 92/95/100 64/65/100 36/36/100
f 23/27/101 30/34/101 17/21/101
f 37/41/102 44/48/102 31/35/102
f 51/55/103 58/62/103 45/49/103
f 65/70/104 72/79/104 59/64/104
f 79/86/105 86/93/105 73/80/105
f 93/100/106 100/107/106 87/94/106
f 1/1/597 4/5/597 5/2/597
f 6/4/598 5/2/598 4/5/598
f 7/3/599 5/2/599 6/4/599
f 8/8/600 11/12/600 12/9/600
f 13/11/601 12/9/601 11/12/601
f 14/10/602 12/9/602 13/11/602
f 15/15/603 18/19/603 19/16/603
f 20/18/604 19/16/604 18/19/604
f 21/17/605 19/16/605 20/18/605
f 22/22/606 25/26/606 26/23/606
f 27/25/607 26/23/607 25/26/607
f 28/24/608 26/23/608 27/25/608
f 29/29/609 32/33/609 33/30/609
f 34/32/610 33/30/610 32/33/610
f 35/31/611 33/30/611 34/32/611
f 36/36/612 39/40/612 40/37/612
f 41/39/613 40/37/613 39/40/613
f 42/38/614 40/37/614 41/39/614
f 43/43/615 46/47/615 47/44/615
f 48/46/616 47/44/616 46/47/616
f 49/45/617 47/44/617 48/46/617
f 50/50/618 53/54/618 54/51/618
f 55/53/619 54/51/619 53/54/619
f 56/52/620 54/51/620 55/53/620
f 57/57/621 60/352/621 61/58/621
f 62/60/622 61/353/622 60/61/622
f 63/59/623 61/58/623 62/63/623
f 64/65/624 67/69/624 68/66/624
f 69/68/625 68/66/625 67/69/625
f 70/71/626 68/354/626 69/72/626
f 71/74/627 74/78/627 75/75/627
f 76/77/628 75/75/628 74/78/628
f 77/76/629 75/75/629 76/77/629
f 78/81/630 81/85/630 82/82/630
f 83/84/631 82/82/631 81/85/631
f 84/83/632 82/82/632 83/84/632
f 85/88/633 88/92/633 89/89/633
f 90/91/634 89/89/634 88/92/634
f 91/90/635 89/89/635 90/91/635
f 92/95/636 95/99/636 96/96/636
f 97/98/637 96/96/637 95/99/637
f 98/97/638 96/96/638 97/98/638
f 99/102/639 102/106/639 103/103/639
f 104/105/640 103/103/640 102/106/640
f 105/104/641 103/103/641 104/105/641
f 106/109/642 109/113/642 110/110/642
f 111/112/643 110/110/643 109/113/643
f 112/111/644 110/110/644 111/112/644
f 16/20/49 18/19/49 7/3/49
f 7/3/50 18/19/50 15/15/50
f 9/13/51 11/12/51 28/24/51
f 11/12/52 8/8/52 22/22/52
f 2/6/645 10/14/645 13/11/645
f 13/11/54 9/13/54 3/7/54
f 17/21/55 20/18/55 27/25/55
f 27/25/56 20/18/56 16/20/56
f 30/34/57 32/33/57 21/17/57
f 32/33/58 29/29/58 15/15/58
f 23/27/59 25/26/59 42/38/59
f 25/26/60 22/22/60 36/36/60
f 31/35/61 34/32/61 41/39/61
f 41/39/646 34/32/646 30/34/646
f 44/48/63 46/47/63 35/31/63
f 46/47/64 43/43/64 29/29/64
f 37/41/65 39/40/65 56/52/65
f 56/52/66 39/40/66 36/36/66
f 51/55/67 45/49/67 48/46/67
f 55/53/68 48/46/68 44/48/68
f 58/62/69 60/61/69 49/45/69
f 60/61/70 57/355/70 43/43/70
f 51/55/71 53/54/71 70/71/71
f 53/54/72 50/50/72 64/116/72
f 59/64/73 62/63/73 69/68/73
f 69/72/74 62/60/74 58/62/74
f 72/79/75 74/78/75 63/59/75
f 74/78/76 71/74/76 57/57/76
f 65/70/77 67/69/77 84/83/77
f 84/83/78 67/69/78 64/65/78
f 79/86/79 73/80/79 76/77/79
f 83/84/80 76/77/80 72/79/80
f 86/93/81 88/92/81 77/76/81
f 77/76/82 88/92/82 85/88/82
f 79/86/83 81/85/83 98/97/83
f 81/85/84 78/81/84 92/95/84
f 93/100/85 87/94/85 90/91/85
f 90/91/86 86/93/86 94/101/86
f 100/107/87 102/106/87 91/90/87
f 102/106/88 99/102/88 85/88/88
f 108/115/89 93/100/89 95/99/89
f 95/99/90 92/95/90 106/109/90
f 107/114/91 101/108/91 104/105/91
f 111/112/92 104/105/92 100/107/92
f 2/6/93 4/5/93 105/104/93
f 4/5/94 1/1/94 99/102/94
f 107/114/95 109/113/95 14/10/95
f 109/113/96 106/109/96 8/8/96
f 99/102/97 1/1/97 15/15/97
f 15/15/97 29/29/97 43/43/97
f 43/43/97 57/57/97 71/74/97
f 71/74/97 85/88/97 99/102/97
f 99/102/97 15/15/97 43/43/97
f 9/13/98 24/28/98 16/20/98
f 107/114/99 10/14/99 2/6/99
f 36/36/100 22/22/100 8/8/100
f 8/8/100 106/109/100 92/95/100
f 92/95/100 78/81/100 64/65/100
f 64/65/100 50/50/100 36/36/100
f 36/36/100 8/8/100 92/95/100
f 23/27/101 38/42/101 30/34/101
f 37/41/102 52/56/102 44/48/102
f 51/55/103 66/73/103 58/62/103
f 65/70/104 80/87/104 72/79/104
f 79/86/105 94/101/105 86/93/105
f 93/100/106 108/115/106 100/107/106
usemtl seed
f 113/117/107 126/118/107 125/119/107
f 114/120/108 126/121/108 128/122/108
f 113/117/109 125/119/109 130/123/109
f 113/117/110 130/123/110 132/124/110
f 113/117/111 132/124/111 129/125/111
f 114/120/112 128/122/112 135/126/112
f 115/127/113 127/128/113 137/117/113
f 116/129/114 131/130/114 139/126/114
f 117/127/115 133/131/115 141/132/115
f 118/133/116 134/128/116 143/134/116
f 114/120/117 135/126/117 138/135/117
f 115/127/118 137/117/118 140/132/118
f 116/129/119 139/126/119 142/136/119
f 117/127/120 141/132/120 144/117/120
f 118/137/121 143/138/121 136/136/121
f 119/139/122 145/140/122 150/141/122
f 120/142/123 146/143/123 152/144/123
f 121/145/124 147/146/124 153/147/124
f 122/139/125 148/143/125 154/141/125
f 123/148/126 149/149/126 151/150/126
f 151/151/127 154/152/127 124/117/127
f 151/151/128 149/153/128 154/152/128
f 149/154/129 122/139/129 154/141/129
f 154/152/130 153/155/130 124/117/130
f 154/152/131 148/156/131 153/155/131
f 148/143/132 121/142/132 153/144/132
f 153/155/133 152/157/133 124/117/133
f 153/155/134 147/158/134 152/157/134
f 147/146/135 120/159/135 152/160/135
f 152/157/136 150/161/136 124/117/136
f 152/157/137 146/162/137 150/161/137
f 146/143/138 119/139/138 150/141/138
f 150/161/139 151/151/139 124/117/139
f 150/161/140 145/163/140 151/151/140
f 145/164/141 123/148/141 151/150/141
f 136/136/142 149/149/142 123/148/142
f 136/136/143 143/138/143 149/149/143
f 143/134/144 122/139/144 149/154/144
f 144/117/145 148/143/145 122/139/145
f 144/117/146 141/132/146 148/143/146
f 141/132/147 121/142/147 148/143/147
f 142/136/148 147/146/148 121/145/148
f 142/136/149 139/126/149 147/146/149
f 139/126/150 120/159/150 147/146/150
f 140/132/151 146/143/151 120/142/151
f 140/132/152 137/117/152 146/143/152
f 137/117/153 119/139/153 146/143/153
f 138/134/154 145/140/154 119/139/154
f 138/135/155 135/126/155 145/164/155
f 135/126/156 123/148/156 145/164/156
f 143/134/157 144/117/157 122/139/157
f 143/134/158 134/128/158 144/117/158
f 134/128/159 117/127/159 144/117/159
f 141/138/160 142/136/160 121/145/160
f 141/138/161 133/165/161 142/136/161
f 133/165/162 116/129/162 142/136/162
f 139/126/163 140/135/163 120/159/163
f 139/126/164 131/130/164 140/135/164
f 131/131/165 115/127/165 140/132/165
f 137/117/166 138/134/166 119/139/166
f 137/117/167 127/128/167 138/134/167
f 127/128/168 114/133/168 138/134/168
f 135/126/169 136/136/169 123/148/169
f 135/126/170 128/122/170 136/136/170
f 128/122/171 118/137/171 136/136/171
f 129/166/172 134/128/172 118/133/172
f 129/125/173 132/124/173 134/167/173
f 132/168/174 117/127/174 134/128/174
f 132/168/175 133/131/175 117/127/175
f 132/124/176 130/123/176 133/169/176
f 130/170/177 116/129/177 133/165/177
f 130/170/178 131/130/178 116/129/178
f 130/123/179 125/119/179 131/171/179
f 125/168/180 115/127/180 131/131/180
f 128/122/181 129/172/181 118/137/181
f 128/173/182 126/118/182 129/125/182
f 126/118/183 113/117/183 129/125/183
f 125/168/184 127/128/184 115/127/184
f 125/119/185 126/118/185 127/174/185
f 126/166/186 114/133/186 127/128/186
usemtl bark
f 158/175/187 161/176/187 155/177/187
f 156/178/188 159/179/188 158/175/188
f 157/178/189 159/179/189 160/180/189
f 162/181/190 166/182/190 168/183/190
f 167/184/191 165/185/191 163/186/191
f 164/181/192 166/182/192 167/185/192
f 172/176/193 175/175/193 169/177/193
f 170/187/194 173/188/194 172/189/194
f 171/178/195 173/179/195 174/180/195
f 179/185/196 182/184/196 176/186/196
f 177/181/197 180/182/197 179/185/197
f 178/190/198 180/191/198 181/192/198
f 186/193/199 189/189/199 183/194/199
f 184/178/200 187/179/200 186/175/200
f 185/187/201 187/188/201 188/195/201
f 193/196/202 196/197/202 190/198/202
f 191/190/203 194/191/203 193/196/203
f 192/181/204 194/182/204 195/183/204
f 200/189/205 203/193/205 197/194/205
f 198/187/206 201/188/206 200/189/206
f 199/187/207 201/188/207 202/195/207
f 207/197/208 210/196/208 204/198/208
f 205/190/209 208/191/209 207/196/209
f 206/190/210 208/191/210 209/192/210
f 169/194/211 161/175/211 172/189/211
f 161/175/212 170/187/212 172/189/212
f 156/178/213 168/183/213 160/180/213
f 160/180/214 164/181/214 157/178/214
f 176/198/215 167/185/215 163/186/215
f 167/185/216 178/190/216 164/181/216
f 177/181/217 174/180/217 181/183/217
f 181/192/218 170/187/218 178/190/218
f 169/177/219 200/189/219 197/194/219
f 200/189/220 171/178/220 198/187/220
f 204/198/221 179/185/221 176/186/221
f 179/185/222 206/190/222 177/181/222
f 199/187/223 209/192/223 205/190/223
f 202/195/224 206/190/224 209/192/224
f 197/194/225 186/175/225 183/177/225
f 203/189/226 184/178/226 186/175/226
f 190/186/227 207/196/227 204/198/227
f 196/185/228 205/190/228 207/196/228
f 185/187/229 195/192/229 191/190/229
f 195/183/230 184/178/230 192/181/230
f 155/177/231 189/189/231 158/175/231
f 189/189/232 156/178/232 158/175/232
f 163/186/233 193/196/233 190/198/233
f 165/185/234 191/190/234 193/196/234
f 197/199/235 155/200/235 169/201/235
f 157/178/236 178/190/236 170/187/236
f 191/190/237 156/178/237 185/187/237
f 204/199/238 163/200/238 190/202/238
f 177/181/239 198/187/239 171/178/239
f 205/190/240 184/178/240 199/187/240
f 214/175/241 217/176/241 211/177/241
f 212/178/242 215/179/242 214/175/242
f 213/178/243 215/179/243 216/180/243
f 218/181/244 222/182/244 224/183/244
f 223/184/245 221/185/245 219/186/245
f 220/181/246 222/182/246 223/185/246
f 228/176/247 231/175/247 225/177/247
f 226/187/248 229/188/248 228/189/248
f 227/178/249 229/179/249 230/180/249
f 235/185/250 238/184/250 232/186/250
f 233/181/251 236/182/251 235/185/251
f 234/190/252 236/191/252 237/192/252
f 242/193/253 245/189/253 239/194/253
f 240/178/254 243/179/254 242/175/254
f 241/187/255 243/188/255 244/195/255
f 249/196/256 252/197/256 246/198/256
f 247/190/257 250/191/257 249/196/257
f 248/181/258 250/182/258 251/183/258
f 256/189/259 259/193/259 253/194/259
f 254/187/260 257/188/260 256/189/260
f 255/187/261 257/188/261 258/195/261
f 263/197/262 266/196/262 260/198/262
f 261/190/263 264/191/263 263/196/263
f 262/190/264 264/191/264 265/192/264
f 211/177/265 228/189/265 225/194/265
f 228/189/266 213/178/266 226/187/266
f 212/178/267 224/183/267 216/180/267
f 224/183/268 213/178/268 216/180/268
f 219/186/269 238/196/269 223/185/269
f 223/185/270 234/190/270 220/181/270
f 233/181/271 230/180/271 237/183/271
f 230/195/272 234/190/272 237/192/272
f 253/194/273 231/175/273 256/189/273
f 231/175/274 254/187/274 256/189/274
f 232/186/275 266/196/275 235/185/275
f 235/185/276 262/190/276 233/181/276
f 261/190/277 258/195/277 265/192/277
f 258/195/278 262/190/278 265/192/278
f 253/194/279 242/175/279 239/177/279
f 259/189/280 240/178/280 242/175/280
f 260/198/281 252/185/281 263/196/281
f 252/185/282 261/190/282 263/196/282
f 247/190/283 244/195/283 251/192/283
f 251/183/284 240/178/284 248/181/284
f 239/194/285 214/175/285 211/177/285
f 245/189/286 212/178/286 214/175/286
f 219/186/287 249/196/287 246/198/287
f 221/185/288 247/190/288 249/196/288
f 253/199/289 211/200/289 225/201/289
f 220/181/290 226/187/290 213/178/290
f 247/190/291 212/178/291 241/187/291
f 232/201/292 246/202/292 260/199/292
f 233/181/293 254/187/293 227/178/293
f 261/190/294 240/178/294 255/187/294
f 270/175/295 273/176/295 267/177/295
f 268/178/296 271/179/296 270/175/296
f 269/178/297 271/179/297 272/180/297
f 274/181/298 278/182/298 280/183/298
f 279/184/299 277/185/299 275/186/299
f 276/181/300 278/182/300 279/185/300
f 284/176/301 287/175/301 281/177/301
f 282/187/302 285/188/302 284/189/302
f 283/178/303 285/179/303 286/180/303
f 291/185/304 294/184/304 288/186/304
f 289/181/305 292/182/305 291/185/305
f 290/190/306 292/191/306 293/192/306
f 298/193/307 301/189/307 295/194/307
f 296/178/308 299/179/308 298/175/308
f 297/187/309 299/188/309 300/195/309
f 305/196/310 308/197/310 302/198/310
f 303/190/311 306/191/311 305/196/311
f 304/181/312 306/182/312 307/183/312
f 312/189/313 315/193/313 309/194/313
f 310/187/314 313/188/314 312/189/314
f 311/187/315 313/188/315 314/195/315
f 319/197/316 322/196/316 316/198/316
f 317/190/317 320/191/317 319/196/317
f 318/190/318 320/191/318 321/192/318
f 267/177/319 284/189/319 281/194/319
f 273/175/320 282/187/320 284/189/320
f 274/181/321 272/180/321 268/178/321
f 272/180/322 276/181/322 269/178/322
f 288/198/323 279/185/323 275/186/323
f 294/196/324 276/181/324 279/185/324
f 289/181/325 286/180/325 293/183/325
f 293/192/326 282/187/326 290/190/326
f 309/194/327 287/175/327 312/189/327
f 287/175/328 310/187/328 312/189/328
f 288/186/329 322/196/329 291/185/329
f 322/196/330 289/181/330 291/185/330
f 311/187/331 321/192/331 317/190/331
f 321/192/332 310/187/332 318/190/332
f 309/194/333 298/175/333 295/177/333
f 315/189/334 296/178/334 298/175/334
f 302/186/335 319/196/335 316/198/335
f 308/185/336 317/190/336 319/196/336
f 297/187/337 307/192/337 303/190/337
f 307/183/338 296/178/338 304/181/338
f 267/177/339 301/189/339 270/175/339
f 301/189/340 268/178/340 270/175/340
f 275/186/341 305/196/341 302/198/341
f 277/185/342 303/190/342 305/196/342
f 309/199/343 267/200/343 281/201/343
f 269/178/344 290/190/344 282/187/344
f 303/190/345 268/178/345 297/187/345
f 288/201/346 302/202/346 316/199/346
f 289/181/347 310/187/347 283/178/347
f 317/190/348 296/178/348 311/187/348
f 326/175/349 329/176/349 323/177/349
f 324/178/350 327/179/350 326/175/350
f 325/178/351 327/179/351 328/180/351
f 330/181/352 334/182/352 336/183/352
f 335/184/353 333/185/353 331/186/353
f 332/181/354 334/182/354 335/185/354
f 340/176/355 343/175/355 337/177/355
f 338/187/356 341/188/356 340/189/356
f 339/178/357 341/179/357 342/180/357
f 347/185/358 350/184/358 344/186/358
f 345/181/359 348/182/359 347/185/359
f 346/190/360 348/191/360 349/192/360
f 354/193/361 357/189/361 351/194/361
f 352/178/362 355/179/362 354/175/362
f 353/187/363 355/188/363 356/195/363
f 361/196/364 364/197/364 358/198/364
f 359/190/365 362/191/365 361/196/365
f 360/181/366 362/182/366 363/183/366
f 368/189/367 371/193/367 365/194/367
f 366/187/368 369/188/368 368/189/368
f 367/187/369 369/188/369 370/195/369
f 375/197/370 378/196/370 372/198/370
f 373/190/371 376/191/371 375/196/371
f 374/190/372 376/191/372 377/192/372
f 337/194/373 329/175/373 340/189/373
f 340/189/374 325/178/374 338/187/374
f 324/178/375 336/183/375 328/180/375
f 328/180/376 332/181/376 325/178/376
f 331/186/377 350/196/377 335/185/377
f 350/196/378 332/181/378 335/185/378
f 339/178/379 349/183/379 345/181/379
f 342/195/380 346/190/380 349/192/380
f 337/177/381 368/189/381 365/194/381
f 343/175/382 366/187/382 368/189/382
f 372/198/383 347/185/383 344/186/383
f 378/196/384 345/181/384 347/185/384
f 373/190/385 370/195/385 377/192/385
f 370/195/386 374/190/386 377/192/386
f 351/177/387 371/189/387 354/175/387
f 371/189/388 352/178/388 354/175/388
f 358/186/389 375/196/389 372/198/389
f 375/196/390 360/181/390 373/190/390
f 359/190/391 356/195/391 363/192/391
f 356/180/392 360/181/392 363/183/392
f 351/194/393 326/175/393 323/177/393
f 357/189/394 324/178/394 326/175/394
f 331/186/395 361/196/395 358/198/395
f 333/185/396 359/190/396 361/196/396
f 365/199/397 323/200/397 337/201/397
f 332/181/398 338/187/398 325/178/398
f 359/190/399 324/178/399 353/187/399
f 344/201/400 358/202/400 372/199/400
f 345/181/401 366/187/401 339/178/401
f 373/190/402 352/178/402 367/187/402
f 382/175/403 385/176/403 379/177/403
f 380/178/404 383/179/404 382/175/404
f 381/178/405 383/179/405 384/180/405
f 386/181/406 390/182/406 392/183/406
f 391/184/407 389/185/407 387/186/407
f 388/181/408 390/182/408 391/185/408
f 396/176/409 399/175/409 393/177/409
f 394/187/410 397/188/410 396/189/410
f 395/178/411 397/179/411 398/180/411
f 403/185/412 406/184/412 400/186/412
f 401/181/413 404/182/413 403/185/413
f 402/190/414 404/191/414 405/192/414
f 410/193/415 413/189/415 407/194/415
f 408/178/416 411/179/416 410/175/416
f 409/187/417 411/188/417 412/195/417
f 417/196/418 420/197/418 414/198/418
f 415/190/419 418/191/419 417/196/419
f 416/181/420 418/182/420 419/183/420
f 424/189/421 427/193/421 421/194/421
f 422/187/422 425/188/422 424/189/422
f 423/187/423 425/188/423 426/195/423
f 431/197/424 434/196/424 428/198/424
f 429/190/425 432/191/425 431/196/425
f 430/190/426 432/191/426 433/192/426
f 379/177/427 396/189/427 393/194/427
f 385/175/428 394/187/428 396/189/428
f 380/178/429 392/183/429 384/180/429
f 384/180/430 388/181/430 381/178/430
f 400/198/431 391/185/431 387/186/431
f 406/196/432 388/181/432 391/185/432
f 395/178/433 405/183/433 401/181/433
f 405/192/434 394/187/434 402/190/434
f 421/194/435 399/175/435 424/189/435
f 424/189/436 395/178/436 422/187/436
f 428/198/437 403/185/437 400/186/437
f 434/196/438 401/181/438 403/185/438
f 423/187/439 433/192/439 429/190/439
f 433/192/440 422/187/440 430/190/440
f 421/194/441 410/175/441 407/177/441
f 427/189/442 408/178/442 410/175/442
f 414/186/443 431/196/443 428/198/443
f 431/196/444 416/181/444 429/190/444
f 415/190/445 412/195/445 419/192/445
f 419/183/446 408/178/446 416/181/446
f 407/194/447 382/175/447 379/177/447
f 382/175/448 409/187/448 380/178/448
f 387/186/449 417/196/449 414/198/449
f 389/185/450 415/190/450 417/196/450
f 421/199/451 379/200/451 393/201/451
f 388/181/452 394/187/452 381/178/452
f 415/190/453 380/178/453 409/187/453
f 400/201/454 414/202/454 428/199/454
f 401/181/455 422/187/455 395/178/455
f 423/187/456 416/181/456 408/178/456
f 435/203/457 441/204/457 445/205/457
f 436/206/458 441/204/458 440/207/458
f 437/208/459 441/204/459 442/209/459
f 438/210/460 441/204/460 443/211/460
f 439/212/461 441/204/461 444/213/461
f 446/214/462 452/215/462 456/216/462
f 453/217/463 451/218/463 447/219/463
f 448/220/464 452/221/464 453/217/464
f 455/222/465 454/223/465 449/224/465
f 450/225/466 452/215/466 455/226/466
f 457/227/467 463/228/467 467/229/467
f 458/230/468 463/228/468 462/231/468
f 465/232/469 464/233/469 459/234/469
f 460/235/470 463/236/470 465/232/470
f 467/237/471 466/238/471 461/239/471
f 468/240/472 474/241/472 478/242/472
f 469/243/473 474/241/473 473/244/473
f 476/245/474 475/246/474 470/247/474
f 471/248/475 474/249/475 476/245/475
f 478/250/476 477/251/476 472/252/476
f 479/253/477 485/254/477 489/255/477
f 480/256/478 485/254/478 484/257/478
f 487/238/479 486/237/479 481/239/479
f 482/235/480 485/236/480 487/238/480
f 489/233/481 488/232/481 483/234/481
f 495/258/482 500/259/482 490/260/482
f 491/261/483 496/262/483 495/263/483
f 492/264/484 496/262/484 497/265/484
f 499/223/485 498/266/485 493/267/485
f 494/268/486 496/269/486 499/270/486
f 506/271/487 511/272/487 501/273/487
f 502/274/488 507/275/488 506/271/488
f 509/276/489 508/277/489 503/278/489
f 504/279/490 507/280/490 509/281/490
f 505/282/491 507/280/491 510/283/491
f 517/284/492 522/285/492 512/286/492
f 513/287/493 518/288/493 517/284/493
f 520/289/494 519/290/494 514/291/494
f 515/292/495 518/293/495 520/294/495
f 516/295/496 518/293/496 521/296/496
f 528/290/497 533/289/497 523/291/497
f 524/297/498 529/298/498 528/299/498
f 531/300/499 530/301/499 525/302/499
f 526/303/500 529/304/500 531/305/500
f 527/306/501 529/304/501 532/307/501
f 539/277/502 544/276/502 534/278/502
f 535/274/503 540/275/503 539/277/503
f 542/272/504 541/271/504 536/273/504
f 537/308/505 540/309/505 542/310/505
f 538/311/506 540/309/506 543/312/506
f 550/313/507 555/314/507 545/315/507
f 546/316/508 551/317/508 550/313/508
f 553/318/509 552/319/509 547/320/509
f 548/321/510 551/322/510 553/323/510
f 549/324/511 551/322/511 554/325/511
f 556/326/512 562/327/512 566/328/512
f 557/329/513 562/327/513 561/330/513
f 558/331/514 562/327/514 563/332/514
f 559/333/515 562/327/515 564/334/515
f 560/335/516 562/327/516 565/336/516
f 457/227/517 445/205/517 462/231/517
f 445/205/518 458/230/518 462/231/518
f 446/214/519 444/213/519 438/210/519
f 444/213/520 450/225/520 439/212/520
f 449/224/521 464/233/521 455/222/521
f 455/226/522 458/230/522 450/225/522
f 447/219/523 495/258/523 490/260/523
f 495/263/524 446/214/524 491/261/524
f 492/264/525 443/211/525 437/208/525
f 443/211/526 491/261/526 438/210/526
f 468/240/527 440/207/527 473/244/527
f 440/207/528 469/243/528 473/244/528
f 461/337/529 475/246/529 467/338/529
f 467/229/530 469/243/530 457/227/530
f 479/253/531 442/209/531 484/257/531
f 442/209/532 480/256/532 484/257/532
f 481/339/533 478/250/533 472/252/533
f 486/340/534 468/240/534 478/242/534
f 493/267/535 489/233/535 483/234/535
f 498/341/536 479/253/536 489/255/536
f 545/315/537 453/217/537 550/313/537
f 550/313/538 447/219/538 546/316/538
f 547/320/539 500/259/539 494/268/539
f 552/319/540 490/260/540 500/259/540
f 501/273/541 465/232/541 506/271/541
f 506/271/542 459/234/542 502/274/542
f 503/278/543 454/223/543 448/342/543
f 508/277/544 449/224/544 454/223/544
f 512/286/545 476/245/545 517/284/545
f 517/284/546 470/247/546 513/287/546
f 514/291/547 466/238/547 460/235/547
f 519/290/548 461/239/548 466/238/548
f 523/291/549 487/238/549 528/290/549
f 528/290/550 481/239/550 524/343/550
f 525/302/551 477/251/551 471/248/551
f 530/301/552 472/252/552 477/251/552
f 534/278/553 499/223/553 539/277/553
f 539/277/554 493/267/554 535/274/554
f 536/273/555 488/232/555 482/235/555
f 541/271/556 483/234/556 488/232/556
f 549/324/557 509/281/557 555/344/557
f 555/314/558 503/345/558 545/315/558
f 505/282/559 520/294/559 511/346/559
f 511/272/560 514/291/560 501/273/560
f 526/303/561 522/347/561 516/295/561
f 522/285/562 525/302/562 512/286/562
f 537/308/563 533/348/563 527/306/563
f 542/272/564 523/291/564 533/289/564
f 548/321/565 544/349/565 538/311/565
f 553/318/566 534/350/566 544/351/566
f 505/282/567 561/330/567 556/326/567
f 561/330/568 504/279/568 557/329/568
f 548/321/569 563/332/569 554/325/569
f 563/332/570 549/324/570 554/325/570
f 516/295/571 566/328/571 560/335/571
f 566/328/572 515/292/572 556/326/572
f 527/306/573 565/336/573 559/333/573
f 565/336/574 526/303/574 560/335/574
f 538/311/575 564/334/575 558/331/575
f 564/334/576 537/308/576 559/333/576
f 435/203/577 457/227/577 469/243/577
f 439/212/578 450/225/578 458/230/578
f 446/214/579 438/210/579 491/261/579
f 436/206/580 468/240/580 480/256/580
f 437/208/581 479/253/581 492/264/581
f 447/219/582 490/260/582 546/316/582
f 448/220/583 545/315/583 503/345/583
f 459/234/584 449/224/584 502/274/584
f 460/235/585 501/273/585 514/291/585
f 470/247/586 461/337/586 513/287/586
f 471/248/587 512/286/587 525/302/587
f 481/339/588 472/252/588 524/297/588
f 482/235/589 523/291/589 536/273/589
f 493/267/590 483/234/590 535/274/590
f 494/268/591 534/350/591 547/320/591
f 515/292/592 505/282/592 556/326/592
f 504/279/593 549/324/593 557/329/593
f 526/303/594 516/295/594 560/335/594
f 537/308/595 527/306/595 559/333/595
f 548/321/596 538/311/596 558/331/596
f 158/175/647 159/179/647 161/176/647
f 156/178/648 160/180/648 159/179/648
f 157/178/649 161/175/649 159/179/649
f 162/181/650 165/185/650 166/182/650
f 167/184/651 166/182/651 165/185/651
f 164/181/652 168/183/652 166/182/652
f 172/176/653 173/179/653 175/175/653
f 170/187/654 174/195/654 173/188/654
f 171/178/655 175/175/655 173/179/655
f 179/185/656 180/182/656 182/184/656
f 177/181/657 181/183/657 180/182/657
f 178/190/658 182/196/658 180/191/658
f 186/193/659 187/188/659 189/189/659
f 184/178/660 188/180/660 187/179/660
f 185/187/661 189/189/661 187/188/661
f 193/196/662 194/191/662 196/197/662
f 191/190/663 195/192/663 194/191/663
f 192/181/664 196/185/664 194/182/664
f 200/189/665 201/188/665 203/193/665
f 198/187/666 202/195/666 201/188/666
f 199/187/667 203/189/667 201/188/667
f 207/197/668 208/191/668 210/196/668
f 205/190/669 209/192/669 208/191/669
f 206/190/670 210/196/670 208/191/670
f 169/194/211 155/177/211 161/175/211
f 161/175/212 157/178/212 170/187/212
f 156/178/671 162/181/671 168/183/671
f 160/180/214 168/183/214 164/181/214
f 176/198/215 182/196/215 167/185/215
f 167/185/216 182/196/216 178/190/216
f 177/181/672 171/178/672 174/180/672
f 181/192/218 174/195/218 170/187/218
f 169/177/219 175/175/219 200/189/219
f 200/189/220 175/175/220 171/178/220
f 204/198/221 210/196/221 179/185/221
f 179/185/222 210/196/222 206/190/222
f 199/187/673 202/195/673 209/192/673
f 202/195/674 198/187/674 206/190/674
f 197/194/225 203/189/225 186/175/225
f 203/189/226 199/187/226 184/178/226
f 190/186/675 196/185/675 207/196/675
f 196/185/228 192/181/228 205/190/228
f 185/187/229 188/195/229 195/192/229
f 195/183/230 188/180/230 184/178/230
f 155/177/231 183/194/231 189/189/231
f 189/189/232 185/187/232 156/178/232
f 163/186/676 165/185/676 193/196/676
f 165/185/234 162/181/234 191/190/234
f 197/199/235 183/202/235 155/200/235
f 157/178/236 164/181/236 178/190/236
f 191/190/237 162/181/237 156/178/237
f 204/199/238 176/201/238 163/200/238
f 177/181/239 206/190/239 198/187/239
f 205/190/240 192/181/240 184/178/240
f 214/175/677 215/179/677 217/176/677
f 212/178/678 216/180/678 215/179/678
f 213/178/679 217/175/679 215/179/679
f 218/181/680 221/185/680 222/182/680
f 223/184/681 222/182/681 221/185/681
f 220/181/682 224/183/682 222/182/682
f 228/176/683 229/179/683 231/175/683
f 226/187/684 230/195/684 229/188/684
f 227/178/685 231/175/685 229/179/685
f 235/185/686 236/182/686 238/184/686
f 233/181/687 237/183/687 236/182/687
f 234/190/688 238/196/688 236/191/688
f 242/193/689 243/188/689 245/189/689
f 240/178/690 244/180/690 243/179/690
f 241/187/691 245/189/691 243/188/691
f 249/196/692 250/191/692 252/197/692
f 247/190/693 251/192/693 250/191/693
f 248/181/694 252/185/694 250/182/694
f 256/189/695 257/188/695 259/193/695
f 254/187/696 258/195/696 257/188/696
f 255/187/697 259/189/697 257/188/697
f 263/197/698 264/191/698 266/196/698
f 261/190/699 265/192/699 264/191/699
f 262/190/700 266/196/700 264/191/700
f 211/177/265 217/175/265 228/189/265
f 228/189/266 217/175/266 213/178/266
f 212/178/267 218/181/267 224/183/267
f 224/183/268 220/181/268 213/178/268
f 219/186/701 232/198/701 238/196/701
f 223/185/270 238/196/270 234/190/270
f 233/181/271 227/178/271 230/180/271
f 230/195/272 226/187/272 234/190/272
f 253/194/273 225/177/273 231/175/273
f 231/175/274 227/178/274 254/187/274
f 232/186/702 260/198/702 266/196/702
f 235/185/276 266/196/276 262/190/276
f 261/190/277 255/187/277 258/195/277
f 258/195/278 254/187/278 262/190/278
f 253/194/279 259/189/279 242/175/279
f 259/189/280 255/187/280 240/178/280
f 260/198/281 246/186/281 252/185/281
f 252/185/282 248/181/282 261/190/282
f 247/190/283 241/187/283 244/195/283
f 251/183/284 244/180/284 240/178/284
f 239/194/285 245/189/285 214/175/285
f 245/189/286 241/187/286 212/178/286
f 219/186/287 221/185/287 249/196/287
f 221/185/288 218/181/288 247/190/288
f 253/199/289 239/202/289 211/200/289
f 220/181/290 234/190/290 226/187/290
f 247/190/291 218/181/291 212/178/291
f 232/201/292 219/200/292 246/202/292
f 233/181/293 262/190/293 254/187/293
f 261/190/294 248/181/294 240/178/294
f 270/175/703 271/179/703 273/176/703
f 268/178/704 272/180/704 271/179/704
f 269/178/705 273/175/705 271/179/705
f 274/181/706 277/185/706 278/182/706
f 279/184/707 278/182/707 277/185/707
f 276/181/708 280/183/708 278/182/708
f 284/176/709 285/179/709 287/175/709
f 282/187/710 286/195/710 285/188/710
f 283/178/711 287/175/711 285/179/711
f 291/185/712 292/182/712 294/184/712
f 289/181/713 293/183/713 292/182/713
f 290/190/714 294/196/714 292/191/714
f 298/193/715 299/188/715 301/189/715
f 296/178/716 300/180/716 299/179/716
f 297/187/717 301/189/717 299/188/717
f 305/196/718 306/191/718 308/197/718
f 303/190/719 307/192/719 306/191/719
f 304/181/720 308/185/720 306/182/720
f 312/189/721 313/188/721 315/193/721
f 310/187/722 314/195/722 313/188/722
f 311/187/723 315/189/723 313/188/723
f 319/197/724 320/191/724 322/196/724
f 317/190/725 321/192/725 320/191/725
f 318/190/726 322/196/726 320/191/726
f 267/177/319 273/175/319 284/189/319
f 273/175/320 269/178/320 282/187/320
f 274/181/321 280/183/321 272/180/321
f 272/180/322 280/183/322 276/181/322
f 288/198/727 294/196/727 279/185/727
f 294/196/324 290/190/324 276/181/324
f 289/181/728 283/178/728 286/180/728
f 293/192/729 286/195/729 282/187/729
f 309/194/327 281/177/327 287/175/327
f 287/175/328 283/178/328 310/187/328
f 288/186/329 316/198/329 322/196/329
f 322/196/330 318/190/330 289/181/330
f 311/187/730 314/195/730 321/192/730
f 321/192/332 314/195/332 310/187/332
f 309/194/333 315/189/333 298/175/333
f 315/189/334 311/187/334 296/178/334
f 302/186/335 308/185/335 319/196/335
f 308/185/336 304/181/336 317/190/336
f 297/187/731 300/195/731 307/192/731
f 307/183/338 300/180/338 296/178/338
f 267/177/339 295/194/339 301/189/339
f 301/189/340 297/187/340 268/178/340
f 275/186/341 277/185/341 305/196/341
f 277/185/342 274/181/342 303/190/342
f 309/199/343 295/202/343 267/200/343
f 269/178/344 276/181/344 290/190/344
f 303/190/345 274/181/345 268/178/345
f 288/201/346 275/200/346 302/202/346
f 289/181/347 318/190/347 310/187/347
f 317/190/348 304/181/348 296/178/348
f 326/175/732 327/179/732 329/176/732
f 324/178/733 328/180/733 327/179/733
f 325/178/734 329/175/734 327/179/734
f 330/181/735 333/185/735 334/182/735
f 335/184/736 334/182/736 333/185/736
f 332/181/737 336/183/737 334/182/737
f 340/176/738 341/179/738 343/175/738
f 338/187/739 342/195/739 341/188/739
f 339/178/740 343/175/740 341/179/740
f 347/185/741 348/182/741 350/184/741
f 345/181/742 349/183/742 348/182/742
f 346/190/743 350/196/743 348/191/743
f 354/193/744 355/188/744 357/189/744
f 352/178/745 356/180/745 355/179/745
f 353/187/746 357/189/746 355/188/746
f 361/196/747 362/191/747 364/197/747
f 359/190/748 363/192/748 362/191/748
f 360/181/749 364/185/749 362/182/749
f 368/189/750 369/188/750 371/193/750
f 366/187/751 370/195/751 369/188/751
f 367/187/752 371/189/752 369/188/752
f 375/197/753 376/191/753 378/196/753
f 373/190/754 377/192/754 376/191/754
f 374/190/755 378/196/755 376/191/755
f 337/194/373 323/177/373 329/175/373
f 340/189/374 329/175/374 325/178/374
f 324/178/756 330/181/756 336/183/756
f 328/180/376 336/183/376 332/181/376
f 331/186/377 344/198/377 350/196/377
f 350/196/378 346/190/378 332/181/378
f 339/178/379 342/180/379 349/183/379
f 342/195/757 338/187/757 346/190/757
f 337/177/381 343/175/381 368/189/381
f 343/175/382 339/178/382 366/187/382
f 372/198/383 378/196/383 347/185/383
f 378/196/384 374/190/384 345/181/384
f 373/190/385 367/187/385 370/195/385
f 370/195/758 366/187/758 374/190/758
f 351/177/387 365/194/387 371/189/387
f 371/189/388 367/187/388 352/178/388
f 358/186/389 364/185/389 375/196/389
f 375/196/390 364/185/390 360/181/390
f 359/190/759 353/187/759 356/195/759
f 356/180/392 352/178/392 360/181/392
f 351/194/393 357/189/393 326/175/393
f 357/189/394 353/187/394 324/178/394
f 331/186/760 333/185/760 361/196/760
f 333/185/396 330/181/396 359/190/396
f 365/199/397 351/202/397 323/200/397
f 332/181/398 346/190/398 338/187/398
f 359/190/399 330/181/399 324/178/399
f 344/201/400 331/200/400 358/202/400
f 345/181/401 374/190/401 366/187/401
f 373/190/402 360/181/402 352/178/402
f 382/175/761 383/179/761 385/176/761
f 380/178/762 384/180/762 383/179/762
f 381/178/763 385/175/763 383/179/763
f 386/181/764 389/185/764 390/182/764
f 391/184/765 390/182/765 389/185/765
f 388/181/766 392/183/766 390/182/766
f 396/176/767 397/179/767 399/175/767
f 394/187/768 398/195/768 397/188/768
f 395/178/769 399/175/769 397/179/769
f 403/185/770 404/182/770 406/184/770
f 401/181/771 405/183/771 404/182/771
f 402/190/772 406/196/772 404/191/772
f 410/193/773 411/188/773 413/189/773
f 408/178/774 412/180/774 411/179/774
f 409/187/775 413/189/775 411/188/775
f 417/196/776 418/191/776 420/197/776
f 415/190/777 419/192/777 418/191/777
f 416/181/778 420/185/778 418/182/778
f 424/189/779 425/188/779 427/193/779
f 422/187/780 426/195/780 425/188/780
f 423/187/781 427/189/781 425/188/781
f 431/197/782 432/191/782 434/196/782
f 429/190/783 433/192/783 432/191/783
f 430/190/784 434/196/784 432/191/784
f 379/177/427 385/175/427 396/189/427
f 385/175/428 381/178/428 394/187/428
f 380/178/785 386/181/785 392/183/785
f 384/180/430 392/183/430 388/181/430
f 400/198/786 406/196/786 391/185/786
f 406/196/432 402/190/432 388/181/432
f 395/178/433 398/180/433 405/183/433
f 405/192/434 398/195/434 394/187/434
f 421/194/787 393/177/787 399/175/787
f 424/189/436 399/175/436 395/178/436
f 428/198/437 434/196/437 403/185/437
f 434/196/438 430/190/438 401/181/438
f 423/187/439 426/195/439 433/192/439
f 433/192/788 426/195/788 422/187/788
f 421/194/789 427/189/789 410/175/789
f 427/189/442 423/187/442 408/178/442
f 414/186/443 420/185/443 431/196/443
f 431/196/444 420/185/444 416/181/444
f 415/190/445 409/187/445 412/195/445
f 419/183/790 412/180/790 408/178/790
f 407/194/447 413/189/447 382/175/447
f 382/175/448 413/189/448 409/187/448
f 387/186/791 389/185/791 417/196/791
f 389/185/450 386/181/450 415/190/450
f 421/199/451 407/202/451 379/200/451
f 388/181/452 402/190/452 394/187/452
f 415/190/453 386/181/453 380/178/453
f 400/201/454 387/200/454 414/202/454
f 401/181/455 430/190/455 422/187/455
f 423/187/456 429/190/456 416/181/456
f 435/203/792 440/207/792 441/204/792
f 436/206/793 442/209/793 441/204/793
f 437/208/794 443/211/794 441/204/794
f 438/210/795 444/213/795 441/204/795
f 439/212/796 445/205/796 441/204/796
f 446/214/797 451/356/797 452/215/797
f 453/217/798 452/221/798 451/218/798
f 448/220/799 454/357/799 452/221/799
f 455/222/800 452/358/800 454/223/800
f 450/225/801 456/216/801 452/215/801
f 457/227/802 462/231/802 463/228/802
f 458/230/803 464/359/803 463/228/803
f 465/232/804 463/236/804 464/233/804
f 460/235/805 466/238/805 463/236/805
f 467/237/806 463/236/806 466/238/806
f 468/240/807 473/244/807 474/241/807
f 469/243/808 475/360/808 474/241/808
f 476/245/809 474/249/809 475/246/809
f 471/248/810 477/251/810 474/249/810
f 478/250/811 474/249/811 477/251/811
f 479/253/812 484/257/812 485/254/812
f 480/256/813 486/340/813 485/254/813
f 487/238/814 485/236/814 486/237/814
f 482/235/815 488/232/815 485/236/815
f 489/233/816 485/236/816 488/232/816
f 495/258/817 496/269/817 500/259/817
f 491/261/818 497/265/818 496/262/818
f 492/264/819 498/341/819 496/262/819
f 499/223/820 496/358/820 498/266/820
f 494/268/821 500/259/821 496/269/821
f 506/271/822 507/275/822 511/272/822
f 502/274/823 508/277/823 507/275/823
f 509/276/824 507/275/824 508/277/824
f 504/279/825 510/283/825 507/280/825
f 505/282/826 511/346/826 507/280/826
f 517/284/827 518/288/827 522/285/827
f 513/287/828 519/361/828 518/288/828
f 520/289/829 518/362/829 519/290/829
f 515/292/830 521/296/830 518/293/830
f 516/295/831 522/347/831 518/293/831
f 528/290/832 529/362/832 533/289/832
f 524/297/833 530/301/833 529/298/833
f 531/300/834 529/298/834 530/301/834
f 526/303/835 532/307/835 529/304/835
f 527/306/836 533/348/836 529/304/836
f 539/277/837 540/275/837 544/276/837
f 535/274/838 541/271/838 540/275/838
f 542/272/839 540/275/839 541/271/839
f 537/308/840 543/312/840 540/309/840
f 538/311/841 544/349/841 540/309/841
f 550/313/842 551/317/842 555/314/842
f 546/316/843 552/319/843 551/317/843
f 553/318/844 551/317/844 552/319/844
f 548/321/845 554/325/845 551/322/845
f 549/324/846 555/344/846 551/322/846
f 556/326/847 561/330/847 562/327/847
f 557/329/848 563/332/848 562/327/848
f 558/331/849 564/334/849 562/327/849
f 559/333/850 565/336/850 562/327/850
f 560/335/851 566/328/851 562/327/851
f 457/227/517 435/203/517 445/205/517
f 445/205/518 439/212/518 458/230/518
f 446/214/519 456/216/519 444/213/519
f 444/213/520 456/216/520 450/225/520
f 449/224/521 459/234/521 464/233/521
f 455/226/522 464/359/522 458/230/522
f 447/219/523 451/218/523 495/258/523
f 495/263/524 451/356/524 446/214/524
f 492/264/525 497/265/525 443/211/525
f 443/211/526 497/265/526 491/261/526
f 468/240/527 436/206/527 440/207/527
f 440/207/528 435/203/528 469/243/528
f 461/337/529 470/247/529 475/246/529
f 467/229/530 475/360/530 469/243/530
f 479/253/531 437/208/531 442/209/531
f 442/209/532 436/206/532 480/256/532
f 481/339/533 486/363/533 478/250/533
f 486/340/534 480/256/534 468/240/534
f 493/267/535 498/266/535 489/233/535
f 498/341/852 492/264/852 479/253/852
f 545/315/537 448/220/537 453/217/537
f 550/313/538 453/217/538 447/219/538
f 547/320/539 552/319/539 500/259/539
f 552/319/540 546/316/540 490/260/540
f 501/273/541 460/235/541 465/232/541
f 506/271/542 465/232/542 459/234/542
f 503/278/543 508/277/543 454/223/543
f 508/277/544 502/274/544 449/224/544
f 512/286/545 471/248/545 476/245/545
f 517/284/546 476/245/546 470/247/546
f 514/291/547 519/290/547 466/238/547
f 519/290/548 513/343/548 461/239/548
f 523/291/549 482/235/549 487/238/549
f 528/290/550 487/238/550 481/239/550
f 525/302/551 530/301/551 477/251/551
f 530/301/552 524/297/552 472/252/552
f 534/278/553 494/342/553 499/223/553
f 539/277/554 499/223/554 493/267/554
f 536/273/555 541/271/555 488/232/555
f 541/271/556 535/274/556 483/234/556
f 549/324/557 504/279/557 509/281/557
f 555/314/558 509/364/558 503/345/558
f 505/282/853 515/292/853 520/294/853
f 511/272/560 520/289/560 514/291/560
f 526/303/561 531/305/561 522/347/561
f 522/285/562 531/300/562 525/302/562
f 537/308/563 542/310/563 533/348/563
f 542/272/564 536/273/564 523/291/564
f 548/321/565 553/323/565 544/349/565
f 553/318/566 547/320/566 534/350/566
f 505/282/567 510/283/567 561/330/567
f 561/330/568 510/283/568 504/279/568
f 548/321/569 558/331/569 563/332/569
f 563/332/570 557/329/570 549/324/570
f 516/295/571 521/296/571 566/328/571
f 566/328/572 521/296/572 515/292/572
f 527/306/573 532/307/573 565/336/573
f 565/336/574 532/307/574 526/303/574
f 538/311/575 543/312/575 564/334/575
f 564/334/576 543/312/576 537/308/576
