# Blender 4.5.10 LTS
# www.blender.org
mtllib grove_planted_ring.mtl
o grove_planted_ring
v -0.200117 0.003399 -0.161121
v -0.208556 0.015287 -0.151403
v -0.191801 0.014272 -0.172056
v -0.208847 0.007195 -0.157552
v -0.204565 0.008623 -0.164986
v -0.201227 0.015931 -0.162637
v -0.198258 0.006554 -0.170605
v -0.141419 0.091025 -0.117806
v -0.147933 0.079760 -0.139685
v -0.164687 0.080774 -0.119032
v -0.145134 0.087763 -0.129829
v -0.152308 0.086900 -0.126437
v -0.157359 0.081418 -0.130266
v -0.154093 0.088305 -0.118786
v -0.022070 -0.006245 -0.257533
v -0.034813 0.005770 -0.257064
v -0.008374 0.004444 -0.259800
v -0.030740 -0.002519 -0.261316
v -0.022447 -0.001241 -0.263602
v -0.021686 0.006206 -0.259857
v -0.014029 -0.003357 -0.263045
v -0.010430 0.083930 -0.188736
v 0.000325 0.071837 -0.208385
v -0.026115 0.073162 -0.205649
v -0.004593 0.080208 -0.199740
v -0.012073 0.079304 -0.202373
v -0.012987 0.073599 -0.208442
v -0.018731 0.080916 -0.198276
v 0.171980 -0.015251 -0.199630
v 0.162723 -0.003497 -0.208747
v 0.183360 -0.004356 -0.191963
v 0.168544 -0.011831 -0.208567
v 0.176040 -0.010453 -0.204376
v 0.173991 -0.002876 -0.201469
v 0.181587 -0.012374 -0.197959
v 0.132332 0.077304 -0.146137
v 0.153728 0.064815 -0.151985
v 0.133092 0.065675 -0.168769
v 0.144206 0.073354 -0.149657
v 0.140765 0.072211 -0.156768
v 0.144360 0.066296 -0.161491
v 0.133171 0.073814 -0.158632
v 0.268361 -0.018345 -0.021331
v 0.268340 -0.007084 -0.034754
v 0.271085 -0.006975 -0.008283
v 0.272268 -0.015285 -0.030205
v 0.274624 -0.013618 -0.022000
v 0.271180 -0.005995 -0.021675
v 0.274003 -0.015216 -0.013474
v 0.203238 0.075028 -0.014964
v 0.222416 0.062808 -0.003524
v 0.219671 0.062698 -0.029995
v 0.214099 0.071216 -0.008921
v 0.216676 0.069774 -0.016336
v 0.222511 0.063787 -0.016916
v 0.212631 0.071158 -0.023075
v 0.210613 -0.013713 0.172918
v 0.220168 -0.002891 0.162991
v 0.203414 -0.001877 0.183644
v 0.219671 -0.010858 0.169288
v 0.215556 -0.008880 0.176691
v 0.212949 -0.001325 0.174204
v 0.209081 -0.010217 0.182341
v 0.160754 0.078436 0.127945
v 0.166151 0.066991 0.150033
v 0.182906 0.065976 0.129380
v 0.164142 0.075047 0.140029
v 0.171193 0.073422 0.136660
v 0.175686 0.067543 0.140593
v 0.173101 0.074504 0.128986
v 0.032566 -0.004070 0.269330
v 0.046426 0.006626 0.268652
v 0.019987 0.007951 0.271388
v 0.041563 -0.001144 0.273052
v 0.033438 0.000984 0.275307
v 0.033408 0.008399 0.271425
v 0.024853 -0.000306 0.274781
v 0.029765 0.085530 0.198875
v 0.017894 0.074914 0.218733
v 0.044333 0.073589 0.215997
v 0.023601 0.082601 0.209940
v 0.030959 0.081017 0.212596
v 0.031314 0.075362 0.218770
v 0.037739 0.081893 0.208477
v -0.161484 0.004937 0.211428
v -0.151111 0.015892 0.220335
v -0.171747 0.016752 0.203551
v -0.157721 0.008168 0.220303
v -0.165049 0.010196 0.216080
v -0.162270 0.017481 0.213037
v -0.170764 0.008711 0.209695
v -0.112997 0.092156 0.156276
v -0.135510 0.081936 0.162334
v -0.114873 0.081076 0.179117
v -0.125198 0.089455 0.159858
v -0.121879 0.088111 0.166991
v -0.126033 0.082665 0.171819
v -0.114163 0.088996 0.168832
v -0.257865 0.008030 0.033129
v -0.256727 0.019480 0.046342
v -0.259473 0.019370 0.019871
v -0.261445 0.011622 0.041941
v -0.263633 0.013360 0.033705
v -0.259459 0.020601 0.033242
v -0.263180 0.011553 0.025210
v -0.183903 0.094432 0.025103
v -0.204198 0.083943 0.013872
v -0.201452 0.084052 0.040343
v -0.195091 0.091593 0.019121
v -0.197791 0.090548 0.026559
v -0.204184 0.085174 0.027244
v -0.193623 0.091652 0.033276
v 0.010399 0.039102 0.111256
v 0.023060 0.053344 0.118178
v -0.002196 0.053046 0.118871
v 0.019425 0.043417 0.116356
v 0.010567 0.045204 0.120012
v 0.010519 0.053277 0.121740
v 0.001566 0.043207 0.116846
v 0.007349 0.228385 0.081464
v -0.004800 0.214628 0.093438
v 0.020456 0.214926 0.092746
v 0.000191 0.224431 0.089711
v 0.007716 0.222859 0.092498
v 0.007891 0.215167 0.095559
v 0.015038 0.224606 0.089305
v -0.080218 0.036941 0.070642
v -0.078081 0.051236 0.084859
v -0.094363 0.050544 0.065550
v -0.078680 0.041293 0.080879
v -0.087104 0.042875 0.076236
v -0.088683 0.050912 0.077279
v -0.090194 0.040804 0.067225
v -0.063476 0.226696 0.049720
v -0.080071 0.212529 0.047689
v -0.063789 0.213222 0.066999
v -0.074287 0.222476 0.049269
v -0.071733 0.220964 0.056888
v -0.073828 0.213218 0.058933
v -0.064715 0.222883 0.060620
v -0.104933 0.034197 -0.025520
v -0.115060 0.048245 -0.014979
v -0.110107 0.047680 -0.039750
v -0.112080 0.038373 -0.017932
v -0.113743 0.039917 -0.027413
v -0.115739 0.047907 -0.027994
v -0.108578 0.037973 -0.035448
v -0.082793 0.224551 -0.025439
v -0.091207 0.210177 -0.039680
v -0.096160 0.210743 -0.014909
v -0.089078 0.220178 -0.034172
v -0.093403 0.218558 -0.027424
v -0.096117 0.210743 -0.027788
v -0.091990 0.220510 -0.019610
v -0.045135 0.032936 -0.104819
v -0.060031 0.046624 -0.106156
v -0.037573 0.046611 -0.117735
v -0.055624 0.036857 -0.105672
v -0.049291 0.038558 -0.112884
v -0.050276 0.046527 -0.114805
v -0.039743 0.036848 -0.113859
v -0.036056 0.223566 -0.087418
v -0.029822 0.209344 -0.102881
v -0.052281 0.209356 -0.091301
v -0.033044 0.219267 -0.097778
v -0.040974 0.217452 -0.096950
v -0.042190 0.209606 -0.099300
v -0.046247 0.219275 -0.090971
v 0.054146 0.034107 -0.107540
v 0.045567 0.047592 -0.120014
v 0.068620 0.048142 -0.109682
v 0.048176 0.037885 -0.116269
v 0.057720 0.039820 -0.115817
v 0.058411 0.047809 -0.117784
v 0.064477 0.038274 -0.108963
v 0.041541 0.224481 -0.089544
v 0.057859 0.210656 -0.094320
v 0.034807 0.210106 -0.104652
v 0.051620 0.220429 -0.093654
v 0.046073 0.218479 -0.099335
v 0.047343 0.210662 -0.101754
v 0.038069 0.220106 -0.099727
v 0.118151 0.036829 -0.031635
v 0.122218 0.050421 -0.046117
v 0.128505 0.051120 -0.021654
v 0.121156 0.040684 -0.041744
v 0.126707 0.042754 -0.034003
v 0.128479 0.050789 -0.034687
v 0.125602 0.041178 -0.024447
v 0.091566 0.226609 -0.030218
v 0.105811 0.213126 -0.020445
v 0.099524 0.212428 -0.044908
v 0.101161 0.222790 -0.024904
v 0.102189 0.220866 -0.032784
v 0.105063 0.213117 -0.033302
v 0.097465 0.222379 -0.039284
v 0.098681 0.039052 0.065739
v 0.112201 0.052981 0.059888
v 0.096989 0.053302 0.080061
v 0.108361 0.043147 0.061784
v 0.105722 0.045150 0.070951
v 0.107165 0.053223 0.071911
v 0.097604 0.043373 0.076048
v 0.076349 0.228346 0.045888
v 0.077925 0.214894 0.063115
v 0.093137 0.214573 0.042942
v 0.078273 0.224570 0.056701
v 0.085119 0.222815 0.052589
v 0.087505 0.215122 0.054511
v 0.087215 0.224382 0.044843
v 0.002623 0.048299 -0.067621
v -0.010987 0.061965 -0.077586
v 0.015312 0.062301 -0.078307
v -0.005209 0.052176 -0.075254
v 0.002266 0.054050 -0.077927
v 0.002109 0.062101 -0.079929
v 0.009923 0.052370 -0.075669
v 0.002226 0.078292 -0.068093
v 0.015286 0.064301 -0.078339
v -0.011014 0.063965 -0.077617
v 0.009635 0.074164 -0.076012
v 0.002026 0.072212 -0.078212
v 0.002082 0.064101 -0.079960
v -0.005497 0.073971 -0.075597
v 0.048109 0.049138 -0.052464
v 0.043905 0.062829 -0.068779
v 0.064512 0.063358 -0.052428
v 0.046962 0.053053 -0.063327
v 0.054382 0.055012 -0.060560
v 0.055442 0.063085 -0.062157
v 0.058819 0.053358 -0.053918
v 0.047712 0.079132 -0.052936
v 0.064486 0.065358 -0.052459
v 0.043879 0.064828 -0.068811
v 0.058531 0.075152 -0.054261
v 0.054142 0.073174 -0.060846
v 0.055415 0.065085 -0.062188
v 0.046674 0.074848 -0.063669
v 0.073204 0.050112 -0.011614
v 0.080287 0.063971 -0.026749
v 0.085559 0.064446 -0.000975
v 0.079254 0.054151 -0.020654
v 0.083135 0.056128 -0.013757
v 0.084866 0.064227 -0.014260
v 0.082287 0.054424 -0.005824
v 0.072807 0.080106 -0.012086
v 0.085532 0.066445 -0.001007
v 0.080261 0.065970 -0.026780
v 0.081999 0.076219 -0.006167
v 0.082895 0.074290 -0.014042
v 0.084840 0.066227 -0.014291
v 0.078966 0.075946 -0.020997
v 0.066166 0.050765 0.035814
v 0.081135 0.064856 0.028839
v 0.068605 0.065054 0.051974
v 0.076556 0.054956 0.032797
v 0.075071 0.056876 0.040585
v 0.076614 0.064993 0.041351
v 0.069347 0.055070 0.046109
v 0.065769 0.080759 0.035342
v 0.068579 0.067054 0.051943
v 0.081108 0.066856 0.028807
v 0.069059 0.076865 0.045766
v 0.074831 0.075038 0.040299
v 0.076587 0.066993 0.041319
v 0.076268 0.076751 0.032454
v 0.030287 0.050791 0.067629
v 0.046052 0.065071 0.071974
v 0.021583 0.064900 0.081646
v 0.040131 0.055092 0.072016
v 0.033963 0.056906 0.077036
v 0.034546 0.065024 0.078654
v 0.026052 0.054993 0.077581
v 0.029891 0.080785 0.067157
v 0.021557 0.066899 0.081614
v 0.046025 0.067070 0.071942
v 0.025764 0.076788 0.077238
v 0.033723 0.075068 0.076751
v 0.034520 0.067023 0.078622
v 0.039843 0.076886 0.071673
v -0.017643 0.050179 0.068944
v -0.008547 0.064514 0.082472
v -0.033505 0.064054 0.074156
v -0.012978 0.054494 0.078652
v -0.020953 0.056204 0.078543
v -0.021653 0.064305 0.080195
v -0.027338 0.054229 0.073866
v -0.018039 0.080172 0.068472
v -0.033531 0.066053 0.074124
v -0.008573 0.066514 0.082441
v -0.027626 0.076024 0.073524
v -0.021193 0.074366 0.078257
v -0.021679 0.066305 0.080164
v -0.013265 0.076289 0.078309
v -0.055198 0.049214 0.039143
v -0.057113 0.063447 0.055422
v -0.070882 0.062913 0.033008
v -0.057920 0.053444 0.049599
v -0.063982 0.055098 0.044399
v -0.065687 0.063174 0.045254
v -0.065842 0.053136 0.036703
v -0.055595 0.079207 0.038671
v -0.070909 0.064912 0.032977
v -0.057139 0.065447 0.055391
v -0.066130 0.074930 0.036360
v -0.064222 0.073261 0.044113
v -0.065714 0.065174 0.045222
v -0.058208 0.075238 0.049257
v -0.064806 0.048348 -0.007829
v -0.076922 0.062369 0.003481
v -0.073060 0.062010 -0.022543
v -0.073666 0.052431 -0.001547
v -0.074990 0.054107 -0.009420
v -0.076953 0.062159 -0.009822
v -0.071444 0.052225 -0.016521
v -0.065203 0.078342 -0.008301
v -0.073086 0.064010 -0.022574
v -0.076948 0.064368 0.003450
v -0.071732 0.074019 -0.016863
v -0.075230 0.072269 -0.009705
v -0.076979 0.064159 -0.009853
v -0.073954 0.074225 -0.001890
v -0.041971 0.047987 -0.049993
v -0.058706 0.061783 -0.049048
v -0.039019 0.061769 -0.066505
v -0.052849 0.051931 -0.050855
v -0.048827 0.053692 -0.057730
v -0.050178 0.061735 -0.059260
v -0.041522 0.051922 -0.060900
v -0.042367 0.077980 -0.050465
v -0.039046 0.063768 -0.066536
v -0.058732 0.063783 -0.049079
v -0.041810 0.073717 -0.061242
v -0.049067 0.071855 -0.058015
v -0.050204 0.063735 -0.059291
v -0.053137 0.073725 -0.051198
v -0.175409 0.004620 0.035439
v -0.175875 0.005885 0.034715
v -0.174519 0.005863 0.034844
v -0.175747 0.004992 0.034929
v -0.175179 0.005146 0.034681
v -0.175118 0.005871 0.034509
v -0.174788 0.004977 0.035021
v -0.174444 0.093352 0.034333
v -0.173936 0.094607 0.035046
v -0.173088 0.093331 0.034463
v -0.174286 0.094242 0.034540
v -0.173724 0.094068 0.034294
v -0.173328 0.094226 0.034632
v -0.173686 0.093339 0.034127
v -0.141611 0.004284 0.085332
v -0.140721 0.005527 0.084738
v -0.141104 0.005539 0.086045
v -0.140990 0.004641 0.084914
v -0.140819 0.004804 0.085404
v -0.140632 0.005529 0.085418
v -0.141261 0.004650 0.085838
v -0.140138 0.094271 0.084940
v -0.139672 0.093007 0.085664
v -0.139290 0.092995 0.084356
v -0.139800 0.093899 0.085449
v -0.139364 0.093726 0.085017
v -0.139200 0.092996 0.085037
v -0.139530 0.093891 0.084525
v -0.235753 0.005786 0.076324
v -0.236602 0.007063 0.076907
v -0.236219 0.007051 0.075600
v -0.236362 0.006167 0.076739
v -0.236527 0.006331 0.076247
v -0.236691 0.007061 0.076227
v -0.236091 0.006158 0.075814
v -0.234280 0.095773 0.075932
v -0.234788 0.094518 0.075219
v -0.235170 0.094530 0.076526
v -0.234631 0.095407 0.075425
v -0.235072 0.095253 0.075859
v -0.235260 0.094528 0.075846
v -0.234901 0.095416 0.076350
v -0.201955 0.005450 0.126217
v -0.201448 0.006705 0.126930
v -0.202804 0.006727 0.126801
v -0.201605 0.005816 0.126724
v -0.202167 0.005990 0.126970
v -0.202205 0.006718 0.127136
v -0.202564 0.005831 0.126632
v -0.200483 0.095437 0.125825
v -0.201372 0.094194 0.126419
v -0.200016 0.094173 0.126549
v -0.201103 0.095080 0.126243
v -0.200712 0.094912 0.126582
v -0.200774 0.094186 0.126755
v -0.200144 0.095065 0.126335
v -0.018836 -0.003978 0.169892
v -0.019783 -0.002798 0.170118
v -0.019167 -0.002710 0.168906
v -0.019464 -0.003663 0.170036
v -0.019499 -0.003483 0.169425
v -0.019697 -0.002766 0.169339
v -0.019028 -0.003601 0.169179
v -0.026910 0.084349 0.172828
v -0.026169 0.085679 0.172680
v -0.026294 0.084437 0.171616
v -0.026736 0.085259 0.172800
v -0.026744 0.085113 0.172179
v -0.026300 0.085321 0.171944
v -0.026824 0.084381 0.172048
v 0.039783 0.001219 0.156913
v 0.039453 0.002488 0.155927
v 0.040525 0.002549 0.156765
v 0.039592 0.001596 0.156199
v 0.040096 0.001801 0.156229
v 0.040116 0.002537 0.156095
v 0.040350 0.001640 0.156792
v 0.032451 0.090877 0.159700
v 0.033398 0.089697 0.159474
v 0.032326 0.089635 0.158636
v 0.033078 0.090562 0.159557
v 0.032850 0.090397 0.158984
v 0.032989 0.089684 0.158804
v 0.032320 0.090519 0.158964
v -0.003000 -0.004895 0.241045
v -0.002875 -0.003653 0.242109
v -0.003947 -0.003715 0.241271
v -0.002869 -0.004537 0.241781
v -0.003400 -0.004416 0.241761
v -0.003539 -0.003702 0.241941
v -0.003628 -0.004581 0.241189
v -0.010333 0.084762 0.243833
v -0.011074 0.083432 0.243981
v -0.010002 0.083494 0.244819
v -0.010900 0.084342 0.243954
v -0.010645 0.084181 0.244516
v -0.010666 0.083445 0.244651
v -0.010141 0.084385 0.244546
v 0.055619 0.000302 0.228066
v 0.056361 0.001632 0.227918
v 0.055745 0.001544 0.229130
v 0.056186 0.000723 0.227945
v 0.056195 0.000868 0.228566
v 0.056275 0.001601 0.228697
v 0.055750 0.000661 0.228802
v 0.048287 0.089960 0.230853
v 0.048618 0.088691 0.231839
v 0.049234 0.088779 0.230627
v 0.048478 0.089583 0.231567
v 0.048950 0.089465 0.231321
v 0.049148 0.088748 0.231407
v 0.048914 0.089645 0.230710
v 0.161995 0.006745 0.072952
v 0.161937 0.008056 0.073739
v 0.160878 0.007944 0.072890
v 0.161983 0.007152 0.073541
v 0.161367 0.007275 0.073429
v 0.161193 0.008000 0.073498
v 0.161234 0.007073 0.072941
v 0.157148 0.095233 0.068275
v 0.157068 0.096434 0.067330
v 0.156089 0.095122 0.067426
v 0.157096 0.096105 0.067965
v 0.156499 0.095902 0.067873
v 0.156347 0.096026 0.067365
v 0.156404 0.095177 0.068033
v 0.161226 0.002933 0.012813
v 0.160109 0.004132 0.012752
v 0.161146 0.004134 0.011869
v 0.160465 0.003261 0.012802
v 0.160585 0.003400 0.012290
v 0.160408 0.004110 0.012134
v 0.161198 0.003262 0.012178
v 0.156300 0.092622 0.007191
v 0.156357 0.091312 0.006404
v 0.155320 0.091310 0.007287
v 0.156312 0.092216 0.006602
v 0.155717 0.092027 0.006734
v 0.155619 0.091288 0.006670
v 0.155578 0.092214 0.007226
v 0.234780 0.010669 0.071773
v 0.235759 0.011981 0.071677
v 0.234722 0.011980 0.072560
v 0.235501 0.011077 0.071737
v 0.235362 0.011264 0.072230
v 0.235460 0.012004 0.072294
v 0.234768 0.011076 0.072362
v 0.229853 0.100358 0.066151
v 0.229933 0.099158 0.067095
v 0.230971 0.099159 0.066212
v 0.229881 0.100029 0.066786
v 0.230494 0.099892 0.066674
v 0.230671 0.099181 0.066830
v 0.230615 0.100031 0.066162
v 0.234011 0.006857 0.011634
v 0.233931 0.008058 0.010689
v 0.234990 0.008170 0.011538
v 0.233983 0.007186 0.010999
v 0.234581 0.007389 0.011091
v 0.234676 0.008114 0.010931
v 0.234732 0.007265 0.011599
v 0.229084 0.096546 0.006012
v 0.230202 0.095347 0.006074
v 0.229142 0.095236 0.005225
v 0.229846 0.096219 0.006023
v 0.229712 0.096017 0.005535
v 0.229887 0.095292 0.005466
v 0.229097 0.096140 0.005423
v 0.121570 -0.003671 -0.120939
v 0.122453 -0.002483 -0.120550
v 0.121257 -0.002442 -0.119900
v 0.122161 -0.003351 -0.120692
v 0.121840 -0.003195 -0.120163
v 0.121939 -0.002482 -0.119957
v 0.121315 -0.003322 -0.120232
v 0.128000 0.084699 -0.115951
v 0.127277 0.086023 -0.116207
v 0.126804 0.084741 -0.115300
v 0.127821 0.085607 -0.115999
v 0.127480 0.085438 -0.115487
v 0.126975 0.085637 -0.115539
v 0.127487 0.084701 -0.115357
v 0.065821 0.001058 -0.143334
v 0.065508 0.002287 -0.142294
v 0.065098 0.002381 -0.143590
v 0.065567 0.001407 -0.142626
v 0.065165 0.001612 -0.142930
v 0.065055 0.002343 -0.142807
v 0.065277 0.001473 -0.143542
v 0.071528 0.090752 -0.138602
v 0.070645 0.089564 -0.138990
v 0.071055 0.089470 -0.137695
v 0.070937 0.090432 -0.138849
v 0.070804 0.090245 -0.138254
v 0.070603 0.089526 -0.138208
v 0.071227 0.090365 -0.137933
v 0.148868 -0.001843 -0.188510
v 0.149341 -0.000561 -0.189417
v 0.149751 -0.000655 -0.188122
v 0.149170 -0.001457 -0.189179
v 0.149593 -0.001336 -0.188858
v 0.149794 -0.000617 -0.188904
v 0.149460 -0.001523 -0.188263
v 0.154575 0.087851 -0.183778
v 0.155298 0.086527 -0.183522
v 0.154889 0.086622 -0.184818
v 0.155120 0.087435 -0.183570
v 0.155232 0.087296 -0.184182
v 0.155341 0.086566 -0.184305
v 0.154830 0.087502 -0.184486
v 0.093120 0.002885 -0.210905
v 0.092397 0.004209 -0.211161
v 0.093593 0.004167 -0.211812
v 0.092576 0.003301 -0.211113
v 0.092917 0.003471 -0.211625
v 0.092910 0.004208 -0.211755
v 0.093421 0.003272 -0.211573
v 0.098827 0.092580 -0.206173
v 0.099140 0.091350 -0.207212
v 0.097944 0.091392 -0.206562
v 0.099082 0.092230 -0.206880
v 0.098557 0.092103 -0.206949
v 0.098457 0.091391 -0.207155
v 0.098236 0.092260 -0.206420
v -0.082723 0.008684 -0.150934
v -0.082173 0.009902 -0.151679
v -0.081964 0.010011 -0.150338
v -0.082323 0.009025 -0.151421
v -0.081948 0.009234 -0.150949
v -0.081787 0.009963 -0.150999
v -0.082175 0.009102 -0.150472
v -0.084024 0.097100 -0.158450
v -0.084627 0.098394 -0.157899
v -0.083815 0.097209 -0.157108
v -0.084211 0.098000 -0.158329
v -0.083829 0.097882 -0.157832
v -0.084064 0.098076 -0.157380
v -0.083637 0.097161 -0.157770
v -0.122717 0.011330 -0.105932
v -0.121959 0.012656 -0.105336
v -0.123320 0.012624 -0.105381
v -0.122170 0.011748 -0.105470
v -0.122608 0.011924 -0.105198
v -0.122596 0.012663 -0.105080
v -0.123132 0.011725 -0.105502
v -0.124621 0.101040 -0.112897
v -0.125171 0.099822 -0.112152
v -0.123809 0.099854 -0.112106
v -0.125021 0.100699 -0.112411
v -0.124489 0.100572 -0.112082
v -0.124447 0.099861 -0.111851
v -0.124058 0.100722 -0.112378
v -0.137233 0.003788 -0.199091
v -0.138045 0.004974 -0.199882
v -0.136683 0.005006 -0.199836
v -0.137796 0.004106 -0.199610
v -0.137365 0.004256 -0.199906
v -0.137407 0.004967 -0.200137
v -0.136833 0.004129 -0.199577
v -0.139137 0.093498 -0.206056
v -0.138534 0.092204 -0.206607
v -0.139895 0.092172 -0.206652
v -0.138721 0.093103 -0.206486
v -0.139246 0.092905 -0.206790
v -0.139258 0.092165 -0.206908
v -0.139684 0.093080 -0.206518
v -0.177227 0.006434 -0.154089
v -0.177830 0.007728 -0.153538
v -0.178039 0.007619 -0.154880
v -0.177643 0.006829 -0.153659
v -0.178025 0.006946 -0.154156
v -0.178217 0.007667 -0.154218
v -0.177790 0.006752 -0.154608
v -0.179131 0.096144 -0.161054
v -0.179890 0.094817 -0.161650
v -0.179681 0.094926 -0.160309
v -0.179679 0.095726 -0.161516
v -0.179906 0.095594 -0.161039
v -0.180067 0.094865 -0.160989
v -0.179531 0.095803 -0.160568
vn -0.5633 -0.7446 -0.3581
vn -0.7790 0.3970 -0.4854
vn -0.6168 0.3871 -0.6854
vn -0.1884 0.9572 -0.2198
vn -0.3801 0.7679 -0.5156
vn -0.5458 0.7779 -0.3114
vn -0.1516 -0.7673 -0.6231
vn -0.2054 0.3649 -0.9081
vn 0.0506 0.3520 -0.9346
vn 0.0294 0.9455 -0.3243
vn 0.1012 0.7429 -0.6617
vn -0.1602 0.7560 -0.6347
vn 0.3268 -0.7898 -0.5190
vn 0.4990 0.3312 -0.8008
vn 0.6987 0.3229 -0.6384
vn 0.2573 0.9350 -0.2439
vn 0.5448 0.7233 -0.4243
vn 0.3409 0.7318 -0.5902
vn 0.5917 -0.7991 -0.1067
vn 0.9214 0.3158 -0.2264
vn 0.9480 0.3168 0.0299
vn 0.3617 0.9319 -0.0258
vn 0.6910 0.7205 0.0576
vn 0.6639 0.7194 -0.2041
vn 0.4879 -0.7895 0.3723
vn 0.8146 0.3275 0.4787
vn 0.6524 0.3373 0.6787
vn 0.2816 0.9380 0.2023
vn 0.4541 0.7363 0.5017
vn 0.6197 0.7262 0.2976
vn 0.0762 -0.7668 0.6373
vn 0.2410 0.3596 0.9014
vn -0.0150 0.3724 0.9279
vn 0.0638 0.9496 0.3068
vn -0.0272 0.7613 0.6479
vn 0.2342 0.7482 0.6208
vn -0.4023 -0.7443 0.5331
vn -0.4633 0.3932 0.7941
vn -0.6631 0.4016 0.6317
vn -0.1641 0.9601 0.2265
vn -0.4709 0.7809 0.4104
vn -0.2669 0.7724 0.5763
vn -0.6671 -0.7351 0.1208
vn -0.8858 0.4087 0.2197
vn -0.9124 0.4077 -0.0366
vn -0.2686 0.9632 0.0083
vn -0.6171 0.7836 -0.0715
vn -0.5900 0.7847 0.1902
vn -0.4554 0.2188 -0.8630
vn -0.2377 -0.9068 -0.3482
vn -0.2621 0.7842 -0.5624
vn -0.0769 0.9680 -0.2389
vn -0.6611 0.6380 -0.3947
vn -0.4922 0.6278 -0.6030
vn 0.0825 0.5977 -0.7974
vn -0.1841 0.6111 -0.7698
vn 0.2889 0.1815 -0.9400
vn 0.0706 -0.9222 -0.3802
vn 0.2179 0.7602 -0.6121
vn 0.1219 0.9580 -0.2595
vn 0.6264 0.5735 -0.5280
vn 0.4182 0.5822 -0.6973
vn 0.8699 0.1573 -0.4675
vn 0.3113 -0.9322 -0.1844
vn 0.5926 0.7446 -0.3074
vn 0.2771 0.9516 -0.1333
vn 0.8208 0.5692 0.0475
vn 0.7931 0.5681 -0.2195
vn 0.9472 0.1604 0.2778
vn 0.3433 -0.9310 0.1243
vn 0.6424 0.7466 0.1732
vn 0.2977 0.9524 0.0658
vn 0.5519 0.5875 0.5918
vn 0.7209 0.5772 0.3835
vn 0.4755 0.1889 0.8592
vn 0.1479 -0.9191 0.3651
vn 0.3382 0.7650 0.5481
vn 0.1717 0.9600 0.2211
vn -0.0228 0.6175 0.7862
vn 0.2439 0.6042 0.7586
vn -0.2689 0.2262 0.9362
vn -0.1604 -0.9037 0.3970
vn -0.1417 0.7890 0.5978
vn -0.0271 0.9700 0.2417
vn -0.5666 0.6418 0.5168
vn -0.3585 0.6331 0.6860
vn -0.8498 0.2504 0.4637
vn -0.4011 -0.8937 0.2013
vn -0.5164 0.8046 0.2931
vn -0.1823 0.9764 0.1155
vn -0.7611 0.6460 -0.0587
vn -0.7334 0.6471 0.2083
vn -0.9271 0.2474 -0.2815
vn -0.4331 -0.8949 -0.1074
vn -0.5662 0.8027 -0.1875
vn -0.2029 0.9756 -0.0836
vn -0.0491 -0.9988 0.0092
vn -0.3575 0.5952 -0.7197
vn -0.7488 0.6189 -0.2373
vn 0.0491 0.9988 -0.0092
vn 0.2600 0.5643 -0.7836
vn 0.7420 0.5442 -0.3916
vn 0.8061 0.5467 0.2266
vn 0.4148 0.5704 0.7089
vn -0.2027 0.6014 0.7728
vn -0.6846 0.6214 0.3809
vn -0.0192 -0.8201 0.5719
vn 0.2646 -0.2670 0.9267
vn -0.2071 -0.2726 0.9396
vn -0.0178 0.8937 0.4482
vn -0.1668 0.4234 0.8904
vn 0.2053 0.4278 0.8802
vn -0.4388 -0.8312 0.3415
vn -0.5525 -0.2808 0.7848
vn -0.8567 -0.2937 0.4241
vn -0.3833 0.8846 0.2658
vn -0.8102 0.4036 0.4251
vn -0.5703 0.4138 0.7096
vn -0.5201 -0.8441 -0.1301
vn -0.9509 -0.3042 0.0575
vn -0.8584 -0.3148 -0.4051
vn -0.4684 0.8734 -0.1335
vn -0.8473 0.3831 -0.3680
vn -0.9202 0.3914 -0.0031
vn -0.2019 -0.8492 -0.4879
vn -0.6304 -0.3196 -0.7074
vn -0.2110 -0.3198 -0.9237
vn -0.2091 0.8686 -0.4492
vn -0.2501 0.3772 -0.8917
vn -0.5810 0.3774 -0.7211
vn 0.2761 -0.8426 -0.4624
vn 0.1675 -0.3153 -0.9341
vn 0.5981 -0.3051 -0.7411
vn 0.1993 0.8739 -0.4434
vn 0.5316 0.3906 -0.7516
vn 0.1920 0.3825 -0.9038
vn 0.5541 -0.8292 -0.0728
vn 0.8421 -0.2947 -0.4517
vn 0.9595 -0.2816 0.0052
vn 0.4494 0.8852 -0.1206
vn 0.9092 0.4130 -0.0532
vn 0.8166 0.4027 -0.4136
vn 0.4227 -0.8192 0.3875
vn 0.8853 -0.2732 0.3764
vn 0.6012 -0.2672 0.7531
vn 0.3527 0.8940 0.2763
vn 0.5984 0.4276 0.6776
vn 0.8225 0.4229 0.3804
vn -0.3805 -0.3238 0.8662
vn -0.1607 -0.8994 0.4065
vn -0.3667 0.4879 0.7922
vn -0.1611 0.9372 0.3095
vn 0.2690 0.1580 0.9501
vn -0.2202 0.1522 0.9635
vn -0.8703 0.1292 0.4753
vn -0.6202 0.1398 0.7719
vn -0.9062 -0.3461 0.2428
vn -0.3958 -0.9094 0.1277
vn -0.8596 0.4669 0.2076
vn -0.3652 0.9285 0.0674
vn -0.9172 0.1068 -0.3837
vn -0.9933 0.1155 -0.0033
vn -0.7463 -0.3644 -0.5570
vn -0.3243 -0.9176 -0.2300
vn -0.7097 0.4498 -0.5423
vn -0.3031 0.9214 -0.2432
vn -0.2747 0.1004 -0.9563
vn -0.6196 0.1006 -0.7785
vn -0.0212 -0.3648 -0.9308
vn -0.0001 -0.9177 -0.3972
vn -0.0298 0.4494 -0.8928
vn -0.0215 0.9212 -0.3884
vn 0.5735 0.1146 -0.8112
vn 0.2195 0.1062 -0.9698
vn 0.7231 -0.3471 -0.5973
vn 0.3328 -0.9098 -0.2480
vn 0.6681 0.4660 -0.5801
vn 0.2675 0.9281 -0.2589
vn 0.9886 0.1389 -0.0577
vn 0.8921 0.1282 -0.4333
vn 0.9261 -0.3245 0.1926
vn 0.4236 -0.8997 0.1052
vn 0.8584 0.4872 0.1605
vn 0.3464 0.9369 0.0479
vn 0.6581 0.1549 0.7368
vn 0.8917 0.1500 0.4270
vn 0.4349 -0.3142 0.8439
vn 0.2039 -0.8951 0.3965
vn 0.3979 0.4969 0.7712
vn 0.1556 0.9409 0.3008
vn 0.0125 -0.9996 0.0253
vn -0.4079 0.1355 0.9029
vn 0.4534 0.1457 0.8793
vn -0.0125 0.9996 -0.0253
vn -0.9632 0.1119 0.2444
vn -0.7943 0.0926 -0.6004
vn -0.0284 0.0922 -0.9953
vn 0.7578 0.1110 -0.6430
vn 0.9722 0.1348 0.1913
vn -0.0484 -0.8729 -0.4855
vn -0.1637 -0.3190 -0.9335
vn 0.1204 -0.3154 -0.9413
vn 0.0212 0.8568 -0.5152
vn 0.1124 0.2887 -0.9508
vn -0.1717 0.2851 -0.9430
vn 0.2864 -0.8672 -0.4072
vn 0.4787 -0.3088 -0.8219
vn 0.7013 -0.3030 -0.6453
vn 0.3360 0.8631 -0.3770
vn 0.6933 0.3010 -0.6548
vn 0.4707 0.2953 -0.8314
vn 0.4926 -0.8602 -0.1321
vn 0.8989 -0.2954 -0.3235
vn 0.9559 -0.2902 -0.0451
vn 0.4882 0.8700 -0.0687
vn 0.9479 0.3138 -0.0546
vn 0.8910 0.3087 -0.3330
vn 0.4736 -0.8550 0.2112
vn 0.9005 -0.2851 0.3285
vn 0.7651 -0.2830 0.5784
vn 0.4067 0.8742 0.2653
vn 0.7571 0.3211 0.5689
vn 0.8925 0.3190 0.3190
vn 0.2383 -0.8542 0.4621
vn 0.4825 -0.2827 0.8290
vn 0.2182 -0.2846 0.9335
vn 0.1295 0.8737 0.4689
vn 0.2102 0.3195 0.9240
vn 0.4745 0.3213 0.8195
vn -0.1031 -0.8581 0.5031
vn -0.1594 -0.2894 0.9438
vn -0.4290 -0.2944 0.8540
vn -0.2136 0.8688 0.4467
vn -0.4369 0.3097 0.8445
vn -0.1673 0.3146 0.9343
vn -0.3909 -0.8648 0.3150
vn -0.7248 -0.3020 0.6193
vn -0.8735 -0.3078 0.3771
vn -0.4621 0.8618 0.2091
vn -0.8815 0.2963 0.3676
vn -0.7328 0.3021 0.6098
vn -0.4905 -0.8713 -0.0141
vn -0.9492 -0.3146 0.0072
vn -0.9075 -0.3185 -0.2740
vn -0.4998 0.8559 -0.1327
vn -0.9155 0.2856 -0.2835
vn -0.9572 0.2895 -0.0023
vn -0.3552 -0.8745 -0.3302
vn -0.7276 -0.3213 -0.6061
vn -0.5150 -0.3215 -0.7947
vn -0.3089 0.8540 -0.4187
vn -0.5229 0.2826 -0.8042
vn -0.7356 0.2828 -0.6156
vn 0.2973 -0.3925 -0.8704
vn 0.1332 -0.9278 -0.3485
vn 0.2872 0.3727 -0.8824
vn 0.1088 0.9196 -0.3775
vn -0.1759 -0.0178 -0.9842
vn 0.1221 -0.0140 -0.9924
vn 0.7315 -0.0011 -0.6819
vn 0.4979 -0.0071 -0.8672
vn 0.7922 -0.3798 -0.4776
vn 0.3383 -0.9225 -0.1858
vn 0.7821 0.3854 -0.4897
vn 0.3138 0.9248 -0.2149
vn 0.9986 0.0124 -0.0523
vn 0.9388 0.0070 -0.3443
vn 0.9188 -0.3684 0.1414
vn 0.3907 -0.9178 0.0706
vn 0.9087 0.3968 0.1294
vn 0.3663 0.9296 0.0416
vn 0.7984 0.0200 0.6018
vn 0.9404 0.0178 0.3396
vn 0.6179 -0.3636 0.6971
vn 0.2661 -0.9158 0.3008
vn 0.6078 0.4016 0.6851
vn 0.2416 0.9315 0.2717
vn 0.2247 0.0183 0.9743
vn 0.5020 0.0202 0.8647
vn 0.0302 -0.3677 0.9294
vn 0.0226 -0.9175 0.3970
vn 0.0201 0.3975 0.9174
vn -0.0018 0.9298 0.3680
vn -0.4542 0.0080 0.8909
vn -0.1714 0.0132 0.9851
vn -0.5693 -0.3788 0.7297
vn -0.2257 -0.9221 0.3143
vn -0.5794 0.3864 0.7176
vn -0.2501 0.9253 0.2852
vn -0.9205 -0.0060 0.3906
vn -0.7645 -0.0000 0.6446
vn -0.9000 -0.3916 0.1913
vn -0.3627 -0.9274 0.0913
vn -0.9101 0.3736 0.1793
vn -0.3871 0.9199 0.0622
vn -0.9561 -0.0172 -0.2924
vn -0.9999 -0.0132 0.0025
vn -0.8073 -0.4003 -0.4338
vn -0.3243 -0.9310 -0.1676
vn -0.8174 0.3650 -0.4458
vn -0.3487 0.9164 -0.1967
vn -0.5444 -0.0204 -0.8386
vn -0.7675 -0.0202 -0.6408
vn -0.3344 -0.4006 -0.8530
vn -0.1284 -0.9311 -0.3413
vn -0.3445 0.3646 -0.8651
vn -0.1528 0.9162 -0.3704
vn 0.0132 -0.9998 0.0157
vn 0.3163 -0.0107 -0.9486
vn -0.3674 -0.0195 -0.9298
vn -0.0132 0.9998 -0.0157
vn 0.8520 0.0030 -0.5235
vn 0.9891 0.0154 0.1466
vn 0.6633 0.0205 0.7480
vn 0.0272 0.0161 0.9995
vn -0.6217 0.0041 0.7833
vn -0.9796 -0.0098 0.2006
vn -0.8792 -0.0191 -0.4760
vn 0.1128 -0.8320 -0.5432
vn -0.3245 -0.2647 -0.9081
vn 0.4719 -0.2419 -0.8478
vn -0.2536 0.2029 -0.9458
vn -0.0042 0.8122 -0.5833
vn 0.5488 0.2943 -0.7824
vn 0.5185 -0.8222 0.2348
vn 0.9220 -0.3227 -0.2141
vn 0.7788 -0.2130 0.5900
vn 0.5682 0.8188 0.0818
vn 0.7300 0.2569 0.6333
vn 0.9684 0.2141 -0.1280
vn -0.5452 -0.8068 -0.2277
vn -0.9320 -0.2905 0.2168
vn -0.7855 -0.1926 -0.5882
vn -0.5411 0.8362 -0.0890
vn -0.7213 0.2751 -0.6356
vn -0.9609 0.2467 0.1260
vn -0.1399 -0.8231 0.5504
vn 0.3158 -0.2672 0.9104
vn -0.4795 -0.2189 0.8498
vn 0.0308 0.8167 0.5762
vn -0.5388 0.3189 0.7797
vn 0.2603 0.2027 0.9440
vn 0.3538 -0.9025 -0.2457
vn 0.7771 -0.3414 -0.5287
vn -0.2624 0.0001 -0.9650
vn 0.4888 -0.0118 -0.8723
vn 0.3831 0.8882 -0.2535
vn 0.7878 0.3111 -0.5316
vn 0.7987 -0.0105 0.6016
vn 0.9913 -0.0168 -0.1306
vn 0.2750 -0.8598 0.4304
vn 0.5348 -0.2797 0.7973
vn 0.3030 0.8540 0.4229
vn 0.5438 0.2690 0.7949
vn -0.4889 0.0118 0.8723
vn 0.2624 -0.0001 0.9650
vn -0.3831 -0.8882 0.2535
vn -0.7878 -0.3111 0.5316
vn -0.3538 0.9025 0.2457
vn -0.7771 0.3413 0.5287
vn -0.7987 0.0105 -0.6016
vn -0.9913 0.0168 0.1305
vn -0.3030 -0.8540 -0.4229
vn -0.5438 -0.2690 -0.7949
vn -0.2750 0.8598 -0.4304
vn -0.5348 0.2797 -0.7973
vn -0.0164 -0.9999 0.0044
vn 0.8278 -0.0160 -0.5608
vn -0.5608 0.0056 -0.8279
vn 0.0164 0.9999 -0.0044
vn 0.5608 -0.0056 0.8279
vn -0.8278 0.0160 0.5608
vn -0.3934 -0.8522 -0.3449
vn -0.9384 -0.3423 -0.0465
vn -0.5942 -0.2562 -0.7624
vn -0.9866 0.1262 -0.1038
vn -0.6103 0.7732 -0.1725
vn -0.5502 0.2872 -0.7841
vn 0.4753 -0.7653 -0.4340
vn 0.1643 -0.2649 -0.9502
vn 0.8487 -0.1182 -0.5154
vn 0.2146 0.8626 -0.4581
vn 0.8320 0.3485 -0.4317
vn 0.2163 0.2781 -0.9359
vn -0.3426 -0.8576 0.3835
vn -0.1143 -0.3462 0.9312
vn -0.8157 -0.2860 0.5029
vn -0.3495 0.7864 0.5094
vn -0.8753 0.1815 0.4481
vn -0.2538 0.1810 0.9502
vn 0.5282 -0.7967 0.2936
vn 0.9818 -0.1877 0.0301
vn 0.6318 -0.2029 0.7481
vn 0.4776 0.8498 0.2230
vn 0.5003 0.3238 0.8031
vn 0.9535 0.2780 0.1164
vn -0.0237 -0.8865 -0.4622
vn -0.1788 -0.3132 -0.9327
vn -0.9906 -0.0775 -0.1124
vn -0.6300 -0.0274 -0.7761
vn -0.1696 0.8977 -0.4067
vn -0.2319 0.3369 -0.9125
vn 0.8499 0.0857 -0.5200
vn 0.2415 0.0499 -0.9691
vn 0.5711 -0.8093 -0.1375
vn 0.9577 -0.1904 -0.2156
vn 0.4314 0.8982 -0.0844
vn 0.9130 0.3563 -0.1986
vn 0.6300 0.0274 0.7761
vn 0.9906 0.0775 0.1124
vn 0.1696 -0.8977 0.4067
vn 0.2319 -0.3370 0.9125
vn 0.0237 0.8865 0.4622
vn 0.1788 0.3131 0.9327
vn -0.8499 -0.0857 0.5200
vn -0.2415 -0.0499 0.9691
vn -0.4314 -0.8982 0.0844
vn -0.9130 -0.3563 0.1986
vn -0.5711 0.8093 0.1375
vn -0.9577 0.1904 0.2156
vn 0.0815 -0.9962 -0.0310
vn -0.2172 0.0126 -0.9760
vn -0.9727 -0.0862 0.2154
vn -0.0815 0.9962 0.0310
vn 0.9727 0.0862 -0.2154
vn 0.2172 -0.0126 0.9760
vn -0.3605 -0.8227 0.4394
vn -0.2181 -0.2193 0.9510
vn -0.8504 -0.2489 0.4635
vn -0.3160 0.2437 0.9169
vn -0.3486 0.8260 0.4430
vn -0.8995 0.2794 0.3361
vn -0.2719 -0.8595 -0.4329
vn -0.8746 -0.3750 -0.3074
vn -0.3174 -0.2778 -0.9067
vn -0.4609 0.7785 -0.4261
vn -0.2710 0.1930 -0.9430
vn -0.8868 0.1552 -0.4353
vn 0.3610 -0.7641 0.5347
vn 0.9082 -0.2362 0.3456
vn 0.3396 -0.1265 0.9320
vn 0.3703 0.8711 0.3227
vn 0.2419 0.3373 0.9098
vn 0.8616 0.3040 0.4065
vn 0.4512 -0.8268 -0.3360
vn 0.2472 -0.3109 -0.9177
vn 0.8757 -0.2104 -0.4347
vn 0.2594 0.7975 -0.5447
vn 0.8659 0.3318 -0.3744
vn 0.2938 0.1606 -0.9423
vn -0.3954 -0.9163 0.0631
vn -0.9259 -0.3760 0.0357
vn -0.3114 0.0424 0.9493
vn -0.8869 -0.0198 0.4615
vn -0.4934 0.8684 -0.0487
vn -0.9616 0.2743 -0.0051
vn -0.3355 -0.0773 -0.9389
vn -0.8983 -0.0765 -0.4326
vn 0.0403 -0.8866 -0.4607
vn 0.0028 -0.3343 -0.9425
vn -0.0535 0.8215 -0.5678
vn -0.0273 0.2126 -0.9768
vn 0.8869 0.0198 -0.4615
vn 0.3113 -0.0424 -0.9493
vn 0.4934 -0.8684 0.0487
vn 0.9616 -0.2743 0.0051
vn 0.3954 0.9163 -0.0631
vn 0.9259 0.3760 -0.0357
vn 0.3355 0.0773 0.9389
vn 0.8983 0.0765 0.4326
vn 0.0535 -0.8214 0.5678
vn 0.0273 -0.2126 0.9768
vn -0.0403 0.8866 0.4607
vn -0.0028 0.3343 0.9425
vn 0.0547 -0.9965 0.0625
vn -0.9984 -0.0538 0.0162
vn 0.0128 0.0633 0.9979
vn -0.0547 0.9965 -0.0625
vn -0.0128 -0.0633 -0.9979
vn 0.9984 0.0538 -0.0162
vn 0.1467 -0.8651 0.4797
vn 0.7539 -0.3444 0.5595
vn 0.0628 -0.2857 0.9563
vn 0.7511 0.1215 0.6490
vn 0.3884 0.7656 0.5128
vn 0.0028 0.2565 0.9665
vn -0.6211 -0.7812 0.0631
vn -0.6681 -0.3011 0.6804
vn -0.9886 -0.1374 -0.0609
vn -0.4548 0.8445 0.2829
vn -0.9373 0.3321 -0.1054
vn -0.7144 0.2420 0.6565
vn 0.5178 -0.8425 -0.1488
vn 0.6292 -0.3101 -0.7127
vn 0.9629 -0.2669 0.0396
vn 0.5598 0.8051 -0.1959
vn 0.9711 0.1981 0.1334
vn 0.7436 0.2173 -0.6323
vn -0.2517 -0.7845 -0.5667
vn -0.7876 -0.1858 -0.5875
vn -0.0921 -0.1737 -0.9805
vn -0.2851 0.8580 -0.4272
vn 0.0361 0.3547 -0.9343
vn -0.7253 0.2828 -0.6276
vn -0.2235 -0.9036 0.3655
vn -0.3747 -0.3489 0.8590
vn 0.7539 -0.0824 0.6518
vn 0.0796 -0.0576 0.9952
vn -0.1099 0.8813 0.4596
vn -0.3333 0.3015 0.8933
vn -0.9965 0.0661 -0.0513
vn -0.7492 0.0127 0.6622
vn -0.5310 -0.8137 -0.2365
vn -0.9070 -0.1980 -0.3718
vn -0.4223 0.8945 -0.1464
vn -0.8722 0.3489 -0.3429
vn -0.0796 0.0576 -0.9952
vn -0.7539 0.0824 -0.6518
vn 0.1099 -0.8813 -0.4597
vn 0.3333 -0.3015 -0.8933
vn 0.2235 0.9036 -0.3655
vn 0.3747 0.3489 -0.8590
vn 0.9965 -0.0661 0.0513
vn 0.7492 -0.0127 -0.6622
vn 0.4223 -0.8945 0.1464
vn 0.8722 -0.3489 0.3429
vn 0.5310 0.8137 0.2366
vn 0.9070 0.1980 0.3718
vn -0.0634 -0.9966 -0.0526
vn -0.3745 -0.0251 0.9269
vn 0.9251 -0.0785 0.3716
vn 0.0634 0.9966 0.0526
vn -0.9251 0.0785 -0.3716
vn 0.3745 0.0251 -0.9269
vn 0.5785 -0.8141 0.0507
vn 0.8075 -0.2897 -0.5138
vn 0.9447 -0.1904 0.2670
vn 0.8477 0.1828 -0.4979
vn 0.5402 0.8113 -0.2236
vn 0.8845 0.3503 0.3081
vn -0.0755 -0.7696 0.6340
vn 0.4441 -0.2310 0.8657
vn -0.3733 -0.1402 0.9170
vn 0.0367 0.8694 0.4928
vn -0.4412 0.3225 0.8374
vn 0.3563 0.3072 0.8824
vn 0.1100 -0.8543 -0.5079
vn -0.4311 -0.3803 -0.8182
vn 0.3819 -0.2641 -0.8857
vn -0.0717 0.7805 -0.6210
vn 0.4299 0.2078 -0.8786
vn -0.3661 0.1521 -0.9181
vn -0.5435 -0.8358 0.0774
vn -0.7963 -0.2407 0.5550
vn -0.9350 -0.2690 -0.2313
vn -0.5746 0.8126 0.0974
vn -0.8975 0.2610 -0.3556
vn -0.8563 0.2215 0.4665
vn 0.3518 -0.8627 0.3633
vn 0.7137 -0.2618 0.6497
vn 0.8701 -0.0198 -0.4925
vn 0.9658 0.0404 0.2561
vn 0.3139 0.9225 0.2247
vn 0.6999 0.3887 0.5992
vn -0.3856 0.0633 0.9205
vn 0.3712 0.0797 0.9251
vn -0.3238 -0.8316 0.4511
vn -0.6324 -0.2313 0.7393
vn -0.3601 0.8769 0.3185
vn -0.6440 0.3157 0.6969
vn -0.9658 -0.0404 -0.2560
vn -0.8701 0.0198 0.4925
vn -0.3139 -0.9225 -0.2247
vn -0.6999 -0.3887 -0.5992
vn -0.3518 0.8627 -0.3633
vn -0.7137 0.2617 -0.6497
vn 0.3856 -0.0633 -0.9205
vn -0.3712 -0.0797 -0.9251
vn 0.3601 -0.8769 -0.3185
vn 0.6440 -0.3157 -0.6968
vn 0.3239 0.8316 -0.4511
vn 0.6324 0.2313 -0.7393
vn 0.0212 -0.9968 0.0774
vn 0.7477 0.0672 0.6606
vn 0.6637 -0.0439 -0.7467
vn -0.0212 0.9968 -0.0774
vn -0.6637 0.0439 0.7467
vn -0.7477 -0.0672 -0.6606
vn -0.5025 -0.7483 -0.4332
vn -0.7963 0.4815 -0.3662
vn -0.4998 0.4635 -0.7317
vn -0.2079 0.9584 -0.1958
vn -0.3605 0.7341 -0.5755
vn -0.6018 0.7487 -0.2780
vn -0.0556 -0.7721 -0.6331
vn -0.3012 0.4528 -0.8392
vn 0.1667 0.4293 -0.8876
vn -0.0013 0.9470 -0.3211
vn 0.1571 0.7076 -0.6889
vn -0.2237 0.7267 -0.6495
vn 0.4018 -0.7930 -0.4580
vn 0.3832 0.4193 -0.8230
vn 0.7483 0.4041 -0.5261
vn 0.2333 0.9360 -0.2634
vn 0.6034 0.6883 -0.4027
vn 0.3061 0.7007 -0.6445
vn 0.6017 -0.7987 -0.0105
vn 0.8559 0.4006 -0.3271
vn 0.9044 0.4025 0.1413
vn 0.3586 0.9318 -0.0566
vn 0.7169 0.6875 0.1155
vn 0.6774 0.6859 -0.2658
vn 0.4270 -0.7859 0.4473
vn 0.8400 0.4077 0.3580
vn 0.5435 0.4257 0.7235
vn 0.3011 0.9368 0.1783
vn 0.4312 0.7057 0.5622
vn 0.6726 0.6911 0.2647
vn -0.0199 -0.7620 0.6472
vn 0.3449 0.4364 0.8310
vn -0.1230 0.4599 0.8794
vn 0.0945 0.9481 0.3036
vn -0.0863 0.7322 0.6756
vn 0.2945 0.7131 0.6362
vn -0.4772 -0.7412 0.4722
vn -0.3394 0.4699 0.8148
vn -0.7046 0.4851 0.5178
vn -0.1401 0.9591 0.2459
vn -0.5326 0.7515 0.3894
vn -0.2353 0.7391 0.6312
vn -0.6771 -0.7355 0.0247
vn -0.8121 0.4886 0.3189
vn -0.8607 0.4866 -0.1495
vn -0.2654 0.9634 0.0391
vn -0.6461 0.7523 -0.1288
vn -0.6066 0.7538 0.2525
vn -0.6612 0.6380 -0.3947
vn 0.4182 0.5821 -0.6973
vn 0.0698 -0.8190 0.5695
vn 0.3403 -0.1949 0.9199
vn -0.2847 -0.2023 0.9370
vn 0.0213 0.8942 0.4472
vn -0.2594 0.3520 0.8993
vn 0.2999 0.3586 0.8840
vn -0.3814 -0.8287 0.4096
vn -0.5018 -0.2075 0.8397
vn -0.9048 -0.2246 0.3619
vn -0.3580 0.8856 0.2957
vn -0.8731 0.3307 0.3583
vn -0.5125 0.3460 0.7859
vn -0.5376 -0.8421 -0.0428
vn -0.9640 -0.2312 0.1314
vn -0.8414 -0.2452 -0.4815
vn -0.4760 0.8743 -0.0952
vn -0.8325 0.3105 -0.4589
vn -0.9421 0.3230 0.0896
vn -0.2811 -0.8492 -0.4471
vn -0.6981 -0.2482 -0.6716
vn -0.1424 -0.2485 -0.9581
vn -0.2439 0.8686 -0.4313
vn -0.1681 0.3067 -0.9369
vn -0.6654 0.3070 -0.6804
vn 0.1949 -0.8445 -0.4988
vn 0.0955 -0.2457 -0.9646
vn 0.6660 -0.2321 -0.7089
vn 0.1636 0.8730 -0.4594
vn 0.6197 0.3221 -0.7157
vn 0.1092 0.3100 -0.9445
vn 0.5320 -0.8317 -0.1590
vn 0.8193 -0.2256 -0.5271
vn 0.9749 -0.2083 0.0783
vn 0.4396 0.8841 -0.1584
vn 0.9378 0.3452 0.0381
vn 0.7985 0.3297 -0.5036
vn 0.4763 -0.8204 0.3164
vn 0.9283 -0.2030 0.3116
vn 0.5518 -0.1951 0.8108
vn 0.3763 0.8935 0.2450
vn 0.5465 0.3585 0.7568
vn 0.8834 0.3514 0.3101
vn 0.2187 0.1552 0.9634
vn -0.1692 0.1506 0.9740
vn -0.8939 0.1303 0.4289
vn -0.5785 0.1437 0.8029
vn -0.8957 0.1085 -0.4312
vn -0.9916 0.1194 0.0486
vn -0.2242 0.1033 -0.9691
vn -0.6593 0.1035 -0.7447
vn 0.6149 0.1185 -0.7797
vn 0.1683 0.1079 -0.9798
vn 0.9897 0.1428 -0.0057
vn 0.8679 0.1293 -0.4795
vn 0.6181 0.1578 0.7701
vn 0.9128 0.1516 0.3793
vn 0.0440 -0.8717 -0.4880
vn -0.2738 -0.2372 -0.9321
vn 0.2283 -0.2308 -0.9459
vn -0.0712 0.8556 -0.5127
vn 0.2225 0.2069 -0.9527
vn -0.2796 0.2004 -0.9390
vn 0.3588 -0.8654 -0.3498
vn 0.3924 -0.2277 -0.8912
vn 0.7857 -0.2176 -0.5790
vn 0.2636 0.8613 -0.4344
vn 0.7799 0.2200 -0.5859
vn 0.3866 0.2099 -0.8981
vn 0.5111 -0.8585 -0.0415
vn 0.8763 -0.2141 -0.4317
vn 0.9769 -0.2050 0.0603
vn 0.4697 0.8683 -0.1593
vn 0.9711 0.2326 0.0535
vn 0.8705 0.2235 -0.4385
vn 0.4296 -0.8543 0.2925
vn 0.9515 -0.2027 0.2314
vn 0.7123 -0.1989 0.6731
vn 0.4507 0.8735 0.1841
vn 0.7065 0.2387 0.6662
vn 0.9457 0.2349 0.2246
vn 0.1524 -0.8548 0.4961
vn 0.5829 -0.1988 0.7879
vn 0.1158 -0.2021 0.9725
vn 0.2155 0.8743 0.4349
vn 0.1100 0.2355 0.9656
vn 0.5771 0.2388 0.7810
vn -0.1908 -0.8597 0.4739
vn -0.0571 -0.2043 0.9772
vn -0.5336 -0.2131 0.8185
vn -0.1259 0.8704 0.4759
vn -0.5393 0.2245 0.8116
vn -0.0629 0.2333 0.9704
vn -0.4393 -0.8667 0.2363
vn -0.6690 -0.2166 0.7110
vn -0.9319 -0.2268 0.2831
vn -0.4138 0.8637 0.2878
vn -0.9377 0.2109 0.2762
vn -0.6748 0.2211 0.7041
vn -0.4769 -0.8726 -0.1055
vn -0.9666 -0.2299 0.1136
vn -0.8928 -0.2367 -0.3831
vn -0.5133 0.8572 -0.0412
vn -0.8986 0.2009 -0.3900
vn -0.9723 0.2077 0.1068
vn -0.2861 -0.8746 -0.3915
vn -0.8105 -0.2380 -0.5353
vn -0.4347 -0.2383 -0.8685
vn -0.3781 0.8540 -0.3574
vn -0.4404 0.1993 -0.8754
vn -0.8162 0.1996 -0.5421
vn 0.4980 -0.0071 -0.8672
vn 0.3139 0.9248 -0.2149
vn -0.0308 -0.8167 -0.5762
vn -0.2603 -0.2027 -0.9440
vn 0.5388 -0.3189 -0.7797
vn -0.3158 0.2673 -0.9104
vn 0.1399 0.8231 -0.5504
vn 0.4794 0.2189 -0.8498
vn 0.5411 -0.8362 0.0890
vn 0.9609 -0.2467 -0.1260
vn 0.7213 -0.2751 0.6356
vn 0.5452 0.8068 0.2277
vn 0.7854 0.1926 0.5882
vn 0.9320 0.2905 -0.2168
vn -0.5682 -0.8188 -0.0818
vn -0.9684 -0.2141 0.1280
vn -0.7300 -0.2569 -0.6333
vn -0.5185 0.8222 -0.2348
vn -0.7788 0.2130 -0.5900
vn -0.9220 0.3227 0.2141
vn 0.0042 -0.8122 0.5833
vn 0.2537 -0.2029 0.9458
vn -0.5489 -0.2943 0.7824
vn -0.1128 0.8320 0.5432
vn -0.4719 0.2419 0.8478
vn 0.3244 0.2647 0.9081
vn 0.7988 -0.0105 0.6016
vn 0.9913 -0.0168 -0.1305
vn -0.7988 0.0105 -0.6016
vn -0.9913 0.0168 0.1306
vn -0.4776 -0.8498 -0.2230
vn -0.9535 -0.2780 -0.1164
vn -0.5003 -0.3238 -0.8031
vn -0.9818 0.1877 -0.0301
vn -0.5282 0.7967 -0.2936
vn -0.6318 0.2029 -0.7481
vn 0.3495 -0.7864 -0.5094
vn 0.2538 -0.1810 -0.9502
vn 0.8753 -0.1815 -0.4481
vn 0.3426 0.8576 -0.3835
vn 0.8157 0.2860 -0.5029
vn 0.1143 0.3462 -0.9312
vn -0.2146 -0.8626 0.4581
vn -0.2163 -0.2780 0.9359
vn -0.8320 -0.3485 0.4317
vn -0.4753 0.7654 0.4340
vn -0.8487 0.1182 0.5154
vn -0.1643 0.2648 0.9502
vn 0.6103 -0.7732 0.1725
vn 0.9866 -0.1262 0.1038
vn 0.5502 -0.2872 0.7841
vn 0.3934 0.8522 0.3449
vn 0.5942 0.2562 0.7624
vn 0.9384 0.3423 0.0465
vn -0.1788 -0.3131 -0.9327
vn 0.2319 -0.3369 0.9125
vn 0.1788 0.3132 0.9327
vn -0.2594 -0.7975 0.5447
vn -0.2938 -0.1606 0.9423
vn -0.8659 -0.3318 0.3744
vn -0.2473 0.3109 0.9177
vn -0.4512 0.8268 0.3360
vn -0.8757 0.2104 0.4347
vn -0.3703 -0.8711 -0.3227
vn -0.8616 -0.3040 -0.4065
vn -0.2419 -0.3373 -0.9098
vn -0.3610 0.7641 -0.5346
vn -0.3396 0.1265 -0.9320
vn -0.9082 0.2362 -0.3456
vn 0.4609 -0.7785 0.4261
vn 0.8868 -0.1552 0.4353
vn 0.2710 -0.1929 0.9430
vn 0.2718 0.8595 0.4328
vn 0.3174 0.2778 0.9067
vn 0.8746 0.3750 0.3074
vn 0.3485 -0.8260 -0.4429
vn 0.3160 -0.2437 -0.9169
vn 0.8995 -0.2794 -0.3360
vn 0.3606 0.8227 -0.4394
vn 0.8504 0.2489 -0.4635
vn 0.2181 0.2193 -0.9510
vn 0.3114 -0.0424 -0.9493
vn 0.8984 0.0765 0.4325
vn 0.0535 -0.8215 0.5678
vn 0.2851 -0.8580 0.4272
vn 0.7253 -0.2828 0.6276
vn -0.0361 -0.3547 0.9343
vn 0.7876 0.1858 0.5875
vn 0.2517 0.7845 0.5667
vn 0.0921 0.1736 0.9805
vn -0.5598 -0.8052 0.1959
vn -0.7437 -0.2172 0.6323
vn -0.9711 -0.1981 -0.1334
vn -0.5178 0.8425 0.1488
vn -0.9629 0.2669 -0.0396
vn -0.6292 0.3101 0.7127
vn 0.4548 -0.8445 -0.2829
vn 0.7144 -0.2420 -0.6565
vn 0.9373 -0.3321 0.1054
vn 0.6211 0.7812 -0.0631
vn 0.9886 0.1374 0.0609
vn 0.6681 0.3011 -0.6804
vn -0.3884 -0.7656 -0.5128
vn -0.7511 -0.1215 -0.6489
vn -0.0028 -0.2565 -0.9665
vn -0.1467 0.8651 -0.4797
vn -0.0628 0.2856 -0.9563
vn -0.7539 0.3444 -0.5595
vn 0.7539 -0.0824 0.6519
vn -0.1099 0.8813 0.4597
vn -0.7539 0.0824 -0.6519
vn 0.1099 -0.8813 -0.4596
vn 0.5310 0.8137 0.2365
vn 0.5746 -0.8126 -0.0975
vn 0.8563 -0.2215 -0.4665
vn 0.8975 -0.2610 0.3555
vn 0.7963 0.2407 -0.5550
vn 0.5435 0.8358 -0.0774
vn 0.9350 0.2690 0.2313
vn 0.0717 -0.7806 0.6210
vn 0.3661 -0.1521 0.9181
vn -0.4299 -0.2078 0.8786
vn -0.1100 0.8543 0.5079
vn -0.3819 0.2642 0.8856
vn 0.4311 0.3803 0.8182
vn -0.0367 -0.8694 -0.4928
vn -0.3563 -0.3072 -0.8824
vn 0.4412 -0.3226 -0.8374
vn 0.0755 0.7696 -0.6341
vn 0.3733 0.1402 -0.9170
vn -0.4441 0.2310 -0.8657
vn -0.5401 -0.8113 0.2235
vn -0.8477 -0.1828 0.4979
vn -0.8845 -0.3504 -0.3081
vn -0.5785 0.8141 -0.0507
vn -0.9447 0.1904 -0.2670
vn -0.8075 0.2896 0.5138
vn 0.7137 -0.2617 0.6497
vn -0.3239 -0.8316 0.4511
vn -0.9658 -0.0404 -0.2561
vn -0.7137 0.2618 -0.6497
vt 0.879646 -0.045000
vt 0.879646 -0.039965
vt 0.870910 -0.041670
vt 0.879646 -0.032524
vt 0.888382 -0.041670
vt 0.893660 -0.033631
vt 0.865632 -0.033631
vt 0.879646 0.045000
vt 0.879646 0.040425
vt 0.889351 0.041670
vt 0.879646 0.034737
vt 0.869941 0.041670
vt 0.862203 0.033631
vt 0.897089 0.033631
vt 0.659734 -0.045000
vt 0.659734 -0.039965
vt 0.650999 -0.041670
vt 0.659734 -0.032524
vt 0.668470 -0.041670
vt 0.673749 -0.033631
vt 0.645720 -0.033631
vt 0.659734 0.045000
vt 0.659734 0.040425
vt 0.669440 0.041670
vt 0.659734 0.034737
vt 0.650029 0.041670
vt 0.642292 0.033631
vt 0.677177 0.033631
vt 0.439823 -0.045000
vt 0.439823 -0.039965
vt 0.431087 -0.041670
vt 0.439823 -0.032524
vt 0.448559 -0.041670
vt 0.453837 -0.033631
vt 0.425809 -0.033631
vt 0.439823 0.045000
vt 0.439823 0.040425
vt 0.449528 0.041670
vt 0.439823 0.034737
vt 0.430118 0.041670
vt 0.422380 0.033631
vt 0.457266 0.033631
vt 0.219911 -0.045000
vt 0.219911 -0.039965
vt 0.211176 -0.041670
vt 0.219911 -0.032524
vt 0.228647 -0.041670
vt 0.233926 -0.033631
vt 0.205897 -0.033631
vt 0.219911 0.045000
vt 0.219911 0.040425
vt 0.229617 0.041670
vt 0.219911 0.034737
vt 0.210206 0.041670
vt 0.202469 0.033631
vt 0.237354 0.033631
vt 1.759292 -0.045000
vt 1.759292 -0.039965
vt 1.750556 -0.041670
vt 0.000000 -0.032524
vt 0.008736 -0.041670
vt 0.014014 -0.033631
vt 1.759292 -0.032524
vt 1.745278 -0.033631
vt 1.759292 0.045000
vt 1.759292 0.040425
vt 1.768997 0.041670
vt 1.759292 0.034737
vt 1.749587 0.041670
vt 1.741849 0.033631
vt 0.009705 0.041670
vt 0.000000 0.034737
vt 0.017443 0.033631
vt 1.539380 -0.045000
vt 1.539380 -0.039965
vt 1.530645 -0.041670
vt 1.539380 -0.032524
vt 1.548116 -0.041670
vt 1.553395 -0.033631
vt 1.525366 -0.033631
vt 1.539380 0.045000
vt 1.539380 0.040425
vt 1.549086 0.041670
vt 1.539380 0.034737
vt 1.529675 0.041670
vt 1.521938 0.033631
vt 1.556823 0.033631
vt 1.319469 -0.045000
vt 1.319469 -0.039965
vt 1.310733 -0.041670
vt 1.319469 -0.032524
vt 1.328205 -0.041670
vt 1.333483 -0.033631
vt 1.305455 -0.033631
vt 1.319469 0.045000
vt 1.319469 0.040425
vt 1.329174 0.041670
vt 1.319469 0.034737
vt 1.309764 0.041670
vt 1.302026 0.033631
vt 1.336912 0.033631
vt 1.099557 -0.045000
vt 1.099557 -0.039965
vt 1.090822 -0.041670
vt 1.099557 -0.032524
vt 1.108293 -0.041670
vt 1.113572 -0.033631
vt 1.085543 -0.033631
vt 1.099557 0.045000
vt 1.099557 0.040425
vt 1.109263 0.041670
vt 1.099557 0.034737
vt 1.089852 0.041670
vt 1.082115 0.033631
vt 1.117000 0.033631
vt 0.000000 0.045000
vt 0.408407 -0.095000
vt 0.408407 -0.089124
vt 0.398329 -0.090928
vt 0.408407 -0.081097
vt 0.418486 -0.090928
vt 0.422370 -0.081097
vt 0.394444 -0.081097
vt 0.408407 0.095000
vt 0.408407 0.089192
vt 0.418823 0.090928
vt 0.408407 0.081423
vt 0.397991 0.090928
vt 0.391367 0.081097
vt 0.425447 0.081097
vt 0.287238 -0.095000
vt 0.287570 -0.089124
vt 0.277563 -0.090928
vt 0.287635 -0.081097
vt 0.297381 -0.090928
vt 0.301305 -0.081097
vt 0.273838 -0.081097
vt 0.285943 0.095000
vt 0.286589 0.089192
vt 0.296657 0.090928
vt 0.286736 0.081423
vt 0.276266 0.090928
vt 0.269998 0.081097
vt 0.303389 0.081097
vt 0.169646 -0.095000
vt 0.170031 -0.089124
vt 0.160351 -0.090928
vt 0.170107 -0.081097
vt 0.179481 -0.090928
vt 0.183298 -0.081097
vt 0.156764 -0.081097
vt 0.168161 0.095000
vt 0.168898 0.089192
vt 0.178510 0.090928
vt 0.169066 0.081423
vt 0.158990 0.090928
vt 0.153002 0.081097
vt 0.185024 0.081097
vt 0.056013 -0.095000
vt 0.056175 -0.089124
vt 0.046805 -0.090928
vt 0.056208 -0.081097
vt 0.065448 -0.090928
vt 0.069111 -0.081097
vt 0.043240 -0.081097
vt 0.055393 0.095000
vt 0.055699 0.089192
vt 0.065097 0.090928
vt 0.055770 0.081423
vt 0.046177 0.090928
vt 0.040211 0.081097
vt 0.071282 0.081097
vt 0.760801 -0.095000
vt 0.760639 -0.089124
vt 0.751366 -0.090928
vt 0.760606 -0.081097
vt 0.770009 -0.090928
vt 0.773575 -0.081097
vt 0.747704 -0.081097
vt 0.761422 0.095000
vt 0.761115 0.089192
vt 0.770637 0.090928
vt 0.761044 0.081423
vt 0.751717 0.090928
vt 0.745532 0.081097
vt 0.776603 0.081097
vt 0.647169 -0.095000
vt 0.646783 -0.089124
vt 0.637333 -0.090928
vt 0.646707 -0.081097
vt 0.656464 -0.090928
vt 0.660050 -0.081097
vt 0.633516 -0.081097
vt 0.648653 0.095000
vt 0.647916 0.089192
vt 0.657825 0.090928
vt 0.647748 0.081423
vt 0.638304 0.090928
vt 0.631790 0.081097
vt 0.663812 0.081097
vt 0.529576 -0.095000
vt 0.529244 -0.089124
vt 0.519433 -0.090928
vt 0.529179 -0.081097
vt 0.539251 -0.090928
vt 0.542976 -0.081097
vt 0.515509 -0.081097
vt 0.530871 0.095000
vt 0.530225 0.089192
vt 0.540549 0.090928
vt 0.530078 0.081423
vt 0.520157 0.090928
vt 0.513425 0.081097
vt 0.546817 0.081097
vt 0.863619 -0.090928
vt 0.860054 -0.081097
vt 0.872827 -0.095000
vt 0.857025 0.081097
vt 0.872207 0.095000
vt 0.500000 0.568941
vt 0.500000 0.579158
vt 0.507570 0.576721
vt 0.500000 0.499000
vt 0.492430 0.489101
vt 0.486844 0.499000
vt 0.507570 0.489101
vt 0.513156 0.499000
vt 0.492430 0.576721
vt 0.500000 0.501000
vt 0.507570 0.510899
vt 0.513156 0.501000
vt 0.492430 0.510899
vt 0.486844 0.501000
vt 0.545060 0.552540
vt 0.551628 0.560367
vt 0.555860 0.553634
vt 0.552834 0.499000
vt 0.544262 0.489101
vt 0.541481 0.499000
vt 0.553634 0.489101
vt 0.561804 0.499000
vt 0.551829 0.499000
vt 0.544263 0.563365
vt 0.561804 0.501000
vt 0.553634 0.510899
vt 0.551829 0.501000
vt 0.544263 0.510899
vt 0.552834 0.501000
vt 0.541481 0.501000
vt 0.569036 0.511012
vt 0.579099 0.512787
vt 0.578012 0.504909
vt 0.513112 0.499000
vt 0.519818 0.489101
vt 0.525724 0.499000
vt 0.504909 0.489101
vt 0.499812 0.499000
vt 0.575384 0.519818
vt 0.513112 0.501000
vt 0.504909 0.510899
vt 0.499812 0.501000
vt 0.519818 0.510899
vt 0.525724 0.501000
vt 0.560710 0.463789
vt 0.569558 0.458680
vt 0.563662 0.453343
vt 0.457742 0.499000
vt 0.466454 0.489101
vt 0.470127 0.499000
vt 0.453343 0.489101
vt 0.447340 0.499000
vt 0.571232 0.466454
vt 0.457742 0.501000
vt 0.453343 0.510899
vt 0.447340 0.501000
vt 0.466454 0.510899
vt 0.470127 0.501000
vt 0.523976 0.432966
vt 0.527471 0.423364
vt 0.519524 0.423066
vt 0.528112 0.499000
vt 0.533750 0.489101
vt 0.539796 0.499000
vt 0.519524 0.489101
vt 0.515072 0.499000
vt 0.533750 0.428244
vt 0.528112 0.501000
vt 0.519524 0.510899
vt 0.515072 0.501000
vt 0.533750 0.510899
vt 0.539796 0.501000
vt 0.476024 0.432966
vt 0.472529 0.423364
vt 0.466250 0.428244
vt 0.471888 0.499000
vt 0.480476 0.489101
vt 0.484928 0.499000
vt 0.466250 0.489101
vt 0.460204 0.499000
vt 0.472529 0.423364
vt 0.480476 0.423066
vt 0.471888 0.501000
vt 0.466250 0.510899
vt 0.460204 0.501000
vt 0.480476 0.510899
vt 0.484928 0.501000
vt 0.439290 0.463789
vt 0.430442 0.458680
vt 0.428768 0.466454
vt 0.430442 0.458680
vt 0.436338 0.453343
vt 0.430963 0.511012
vt 0.420901 0.512787
vt 0.424616 0.519818
vt 0.421988 0.504909
vt 0.454940 0.552540
vt 0.448372 0.560367
vt 0.455738 0.563365
vt 0.455738 0.489101
vt 0.447166 0.499000
vt 0.458519 0.499000
vt 0.444140 0.553634
vt 0.447166 0.501000
vt 0.455738 0.510899
vt 0.458519 0.501000
vt 0.563662 0.489101
vt 0.562888 0.499000
vt 0.562888 0.501000
vt 0.436338 0.489101
vt 0.436338 0.510899
vt 0.437112 0.501000
vt 0.437112 0.499000
vt 0.463550 0.469868
vt 0.462944 0.469367
vt 0.462808 0.469868
vt 0.463550 0.456260
vt 0.462944 0.455533
vt 0.463550 0.455369
vt 0.469868 0.456260
vt 0.469367 0.455533
vt 0.469254 0.456260
vt 0.463550 0.543740
vt 0.462944 0.544467
vt 0.462808 0.543740
vt 0.463550 0.469254
vt 0.469868 0.543740
vt 0.469367 0.544467
vt 0.469868 0.544631
vt 0.463550 0.530132
vt 0.462944 0.530633
vt 0.463550 0.530746
vt 0.530132 0.456260
vt 0.530633 0.455533
vt 0.530132 0.455369
vt 0.462808 0.456260
vt 0.462808 0.530132
vt 0.463550 0.544631
vt 0.530132 0.543740
vt 0.530633 0.544467
vt 0.530746 0.543740
vt 0.536450 0.469868
vt 0.537056 0.469367
vt 0.536450 0.469254
vt 0.469868 0.455369
vt 0.536450 0.456260
vt 0.537056 0.455533
vt 0.537192 0.456260
vt 0.537192 0.469868
vt 0.536450 0.543740
vt 0.537056 0.544467
vt 0.536450 0.544631
vt 0.469254 0.543740
vt 0.536450 0.530132
vt 0.537056 0.530633
vt 0.537192 0.530132
vt 0.536450 0.455369
vt 0.530746 0.456260
vt 0.536450 0.530746
vt 0.530132 0.544631
vt 0.537192 0.543740
vt 1.768028 -0.041670
vt 0.000000 -0.039965
vt 0.000000 0.040425
vt 0.000000 -0.045000
vt 0.862991 0.090928
vt 0.986460 -0.095000
vt 0.984975 0.095000
vt 0.500000 0.490917
vt 0.500000 0.509083
vt 0.544262 0.563365
vt 0.551628 0.490917
vt 0.560367 0.490917
vt 0.560367 0.509083
vt 0.551628 0.509083
vt 0.512787 0.490917
vt 0.512787 0.509083
vt 0.458680 0.490917
vt 0.458680 0.509083
vt 0.527471 0.490917
vt 0.527471 0.509083
vt 0.472529 0.490917
vt 0.472529 0.509083
vt 0.448372 0.490917
vt 0.448372 0.509083
vt 0.563662 0.510899
s 0
usemtl moss
f 1/1/1 5/2/1 7/3/1
f 6/4/2 4/5/2 2/6/2
f 7/3/3 6/4/3 3/7/3
f 8/8/4 12/9/4 14/10/4
f 13/11/5 11/12/5 9/13/5
f 14/10/6 13/11/6 10/14/6
f 15/15/7 19/16/7 21/17/7
f 20/18/8 18/19/8 16/20/8
f 21/17/9 20/18/9 17/21/9
f 22/22/10 26/23/10 28/24/10
f 27/25/11 25/26/11 23/27/11
f 28/24/12 27/25/12 24/28/12
f 29/29/13 33/30/13 35/31/13
f 34/32/14 32/33/14 30/34/14
f 35/31/15 34/32/15 31/35/15
f 36/36/16 40/37/16 42/38/16
f 41/39/17 39/40/17 37/41/17
f 42/38/18 41/39/18 38/42/18
f 43/43/19 47/44/19 49/45/19
f 48/46/20 46/47/20 44/48/20
f 49/45/21 48/46/21 45/49/21
f 50/50/22 54/51/22 56/52/22
f 55/53/23 53/54/23 51/55/23
f 56/52/24 55/53/24 52/56/24
f 57/57/25 61/58/25 63/59/25
f 62/60/26 60/61/26 58/62/26
f 63/59/27 62/63/27 59/64/27
f 64/65/28 68/66/28 70/67/28
f 69/68/29 67/69/29 65/70/29
f 70/71/30 69/72/30 66/73/30
f 71/74/31 75/75/31 77/76/31
f 76/77/32 74/78/32 72/79/32
f 77/76/33 76/77/33 73/80/33
f 78/81/34 82/82/34 84/83/34
f 83/84/35 81/85/35 79/86/35
f 84/83/36 83/84/36 80/87/36
f 85/88/37 89/89/37 91/90/37
f 90/91/38 88/92/38 86/93/38
f 91/90/39 90/91/39 87/94/39
f 92/95/40 96/96/40 98/97/40
f 97/98/41 95/99/41 93/100/41
f 98/97/42 97/98/42 94/101/42
f 99/102/43 103/103/43 105/104/43
f 104/105/44 102/106/44 100/107/44
f 105/104/45 104/105/45 101/108/45
f 106/109/46 110/110/46 112/111/46
f 111/112/47 109/113/47 107/114/47
f 112/111/48 111/112/48 108/115/48
f 16/20/49 7/3/49 3/7/49
f 7/3/50 15/15/50 1/1/50
f 9/13/51 28/24/51 24/28/51
f 11/12/52 22/22/52 28/24/52
f 2/6/53 13/11/53 6/4/53
f 13/11/54 3/7/54 6/4/54
f 17/21/55 27/25/55 23/27/55
f 27/25/56 16/20/56 24/28/56
f 30/34/57 21/17/57 17/21/57
f 32/33/58 15/15/58 21/17/58
f 23/27/59 42/38/59 38/42/59
f 25/26/60 36/36/60 42/38/60
f 31/35/61 41/39/61 37/41/61
f 41/39/62 30/34/62 38/42/62
f 44/48/63 35/31/63 31/35/63
f 46/47/64 29/29/64 35/31/64
f 37/41/65 56/52/65 52/56/65
f 56/52/66 36/36/66 50/50/66
f 51/55/67 48/46/67 55/53/67
f 55/53/68 44/48/68 52/56/68
f 58/62/69 49/45/69 45/49/69
f 60/61/70 43/43/70 49/45/70
f 51/55/71 70/71/71 66/73/71
f 53/54/72 64/116/72 70/71/72
f 59/64/73 69/68/73 65/70/73
f 69/72/74 58/62/74 66/73/74
f 72/79/75 63/59/75 59/64/75
f 74/78/76 57/57/76 63/59/76
f 65/70/77 84/83/77 80/87/77
f 84/83/78 64/65/78 78/81/78
f 79/86/79 76/77/79 83/84/79
f 83/84/80 72/79/80 80/87/80
f 86/93/81 77/76/81 73/80/81
f 77/76/82 85/88/82 71/74/82
f 79/86/83 98/97/83 94/101/83
f 81/85/84 92/95/84 98/97/84
f 93/100/85 90/91/85 97/98/85
f 90/91/86 94/101/86 97/98/86
f 100/107/87 91/90/87 87/94/87
f 102/106/88 85/88/88 91/90/88
f 108/115/89 95/99/89 112/111/89
f 95/99/90 106/109/90 112/111/90
f 107/114/91 104/105/91 111/112/91
f 111/112/92 100/107/92 108/115/92
f 2/6/93 105/104/93 101/108/93
f 4/5/94 99/102/94 105/104/94
f 107/114/95 14/10/95 10/14/95
f 109/113/96 8/8/96 14/10/96
f 43/43/97 71/74/97 99/102/97
f 9/13/98 16/20/98 3/7/98
f 107/114/99 2/6/99 101/108/99
f 92/95/100 64/65/100 36/36/100
f 23/27/101 30/34/101 17/21/101
f 37/41/102 44/48/102 31/35/102
f 51/55/103 58/62/103 45/49/103
f 65/70/104 72/79/104 59/64/104
f 79/86/105 86/93/105 73/80/105
f 93/100/106 100/107/106 87/94/106
f 1/1/589 4/5/589 5/2/589
f 6/4/590 5/2/590 4/5/590
f 7/3/591 5/2/591 6/4/591
f 8/8/592 11/12/592 12/9/592
f 13/11/593 12/9/593 11/12/593
f 14/10/594 12/9/594 13/11/594
f 15/15/595 18/19/595 19/16/595
f 20/18/596 19/16/596 18/19/596
f 21/17/597 19/16/597 20/18/597
f 22/22/598 25/26/598 26/23/598
f 27/25/599 26/23/599 25/26/599
f 28/24/600 26/23/600 27/25/600
f 29/29/601 32/33/601 33/30/601
f 34/32/602 33/30/602 32/33/602
f 35/31/603 33/30/603 34/32/603
f 36/36/604 39/40/604 40/37/604
f 41/39/605 40/37/605 39/40/605
f 42/38/606 40/37/606 41/39/606
f 43/43/607 46/47/607 47/44/607
f 48/46/608 47/44/608 46/47/608
f 49/45/609 47/44/609 48/46/609
f 50/50/610 53/54/610 54/51/610
f 55/53/611 54/51/611 53/54/611
f 56/52/612 54/51/612 55/53/612
f 57/57/613 60/381/613 61/58/613
f 62/60/614 61/382/614 60/61/614
f 63/59/615 61/58/615 62/63/615
f 64/65/616 67/69/616 68/66/616
f 69/68/617 68/66/617 67/69/617
f 70/71/618 68/383/618 69/72/618
f 71/74/619 74/78/619 75/75/619
f 76/77/620 75/75/620 74/78/620
f 77/76/621 75/75/621 76/77/621
f 78/81/622 81/85/622 82/82/622
f 83/84/623 82/82/623 81/85/623
f 84/83/624 82/82/624 83/84/624
f 85/88/625 88/92/625 89/89/625
f 90/91/626 89/89/626 88/92/626
f 91/90/627 89/89/627 90/91/627
f 92/95/628 95/99/628 96/96/628
f 97/98/629 96/96/629 95/99/629
f 98/97/630 96/96/630 97/98/630
f 99/102/631 102/106/631 103/103/631
f 104/105/632 103/103/632 102/106/632
f 105/104/633 103/103/633 104/105/633
f 106/109/634 109/113/634 110/110/634
f 111/112/635 110/110/635 109/113/635
f 112/111/636 110/110/636 111/112/636
f 16/20/49 18/19/49 7/3/49
f 7/3/50 18/19/50 15/15/50
f 9/13/51 11/12/51 28/24/51
f 11/12/52 8/8/52 22/22/52
f 2/6/637 10/14/637 13/11/637
f 13/11/54 9/13/54 3/7/54
f 17/21/55 20/18/55 27/25/55
f 27/25/56 20/18/56 16/20/56
f 30/34/57 32/33/57 21/17/57
f 32/33/58 29/29/58 15/15/58
f 23/27/59 25/26/59 42/38/59
f 25/26/60 22/22/60 36/36/60
f 31/35/61 34/32/61 41/39/61
f 41/39/638 34/32/638 30/34/638
f 44/48/63 46/47/63 35/31/63
f 46/47/64 43/43/64 29/29/64
f 37/41/65 39/40/65 56/52/65
f 56/52/66 39/40/66 36/36/66
f 51/55/67 45/49/67 48/46/67
f 55/53/68 48/46/68 44/48/68
f 58/62/69 60/61/69 49/45/69
f 60/61/70 57/384/70 43/43/70
f 51/55/71 53/54/71 70/71/71
f 53/54/72 50/50/72 64/116/72
f 59/64/73 62/63/73 69/68/73
f 69/72/74 62/60/74 58/62/74
f 72/79/75 74/78/75 63/59/75
f 74/78/76 71/74/76 57/57/76
f 65/70/77 67/69/77 84/83/77
f 84/83/78 67/69/78 64/65/78
f 79/86/79 73/80/79 76/77/79
f 83/84/80 76/77/80 72/79/80
f 86/93/81 88/92/81 77/76/81
f 77/76/82 88/92/82 85/88/82
f 79/86/83 81/85/83 98/97/83
f 81/85/84 78/81/84 92/95/84
f 93/100/85 87/94/85 90/91/85
f 90/91/86 86/93/86 94/101/86
f 100/107/87 102/106/87 91/90/87
f 102/106/88 99/102/88 85/88/88
f 108/115/89 93/100/89 95/99/89
f 95/99/90 92/95/90 106/109/90
f 107/114/91 101/108/91 104/105/91
f 111/112/92 104/105/92 100/107/92
f 2/6/93 4/5/93 105/104/93
f 4/5/94 1/1/94 99/102/94
f 107/114/95 109/113/95 14/10/95
f 109/113/96 106/109/96 8/8/96
f 99/102/97 1/1/97 15/15/97
f 15/15/97 29/29/97 43/43/97
f 43/43/97 57/57/97 71/74/97
f 71/74/97 85/88/97 99/102/97
f 99/102/97 15/15/97 43/43/97
f 9/13/98 24/28/98 16/20/98
f 107/114/99 10/14/99 2/6/99
f 36/36/100 22/22/100 8/8/100
f 8/8/100 106/109/100 92/95/100
f 92/95/100 78/81/100 64/65/100
f 64/65/100 50/50/100 36/36/100
f 36/36/100 8/8/100 92/95/100
f 23/27/101 38/42/101 30/34/101
f 37/41/102 52/56/102 44/48/102
f 51/55/103 66/73/103 58/62/103
f 65/70/104 80/87/104 72/79/104
f 79/86/105 94/101/105 86/93/105
f 93/100/106 108/115/106 100/107/106
usemtl seed
f 113/117/107 117/118/107 119/119/107
f 118/120/108 116/121/108 114/122/108
f 119/119/109 118/120/109 115/123/109
f 120/124/110 124/125/110 126/126/110
f 125/127/111 123/128/111 121/129/111
f 126/126/112 125/127/112 122/130/112
f 127/131/113 131/132/113 133/133/113
f 132/134/114 130/135/114 128/136/114
f 133/133/115 132/134/115 129/137/115
f 134/138/116 138/139/116 140/140/116
f 139/141/117 137/142/117 135/143/117
f 140/140/118 139/141/118 136/144/118
f 141/145/119 145/146/119 147/147/119
f 146/148/120 144/149/120 142/150/120
f 147/147/121 146/148/121 143/151/121
f 148/152/122 152/153/122 154/154/122
f 153/155/123 151/156/123 149/157/123
f 154/154/124 153/155/124 150/158/124
f 155/159/125 159/160/125 161/161/125
f 160/162/126 158/163/126 156/164/126
f 161/161/127 160/162/127 157/165/127
f 162/166/128 166/167/128 168/168/128
f 167/169/129 165/170/129 163/171/129
f 168/168/130 167/169/130 164/172/130
f 169/173/131 173/174/131 175/175/131
f 174/176/132 172/177/132 170/178/132
f 175/175/133 174/176/133 171/179/133
f 176/180/134 180/181/134 182/182/134
f 181/183/135 179/184/135 177/185/135
f 182/182/136 181/183/136 178/186/136
f 183/187/137 187/188/137 189/189/137
f 188/190/138 186/191/138 184/192/138
f 189/189/139 188/190/139 185/193/139
f 190/194/140 194/195/140 196/196/140
f 195/197/141 193/198/141 191/199/141
f 196/196/142 195/197/142 192/200/142
f 197/201/143 201/202/143 203/203/143
f 202/204/144 200/205/144 198/206/144
f 203/203/145 202/204/145 199/207/145
f 204/208/146 208/209/146 210/210/146
f 209/211/147 207/212/147 205/213/147
f 210/210/148 209/211/148 206/214/148
f 128/136/149 119/119/149 115/123/149
f 130/135/150 113/117/150 119/119/150
f 121/129/151 140/140/151 136/144/151
f 123/128/152 134/138/152 140/140/152
f 114/122/153 125/127/153 118/120/153
f 125/127/154 115/123/154 118/120/154
f 129/137/155 139/141/155 135/143/155
f 139/141/156 128/136/156 136/144/156
f 142/150/157 133/133/157 129/137/157
f 133/133/158 141/145/158 127/131/158
f 135/143/159 154/154/159 150/158/159
f 154/154/160 134/138/160 148/152/160
f 143/151/161 153/155/161 149/157/161
f 153/155/162 142/150/162 150/158/162
f 156/164/163 147/147/163 143/151/163
f 147/147/164 155/159/164 141/145/164
f 149/157/165 168/168/165 164/172/165
f 168/168/166 148/152/166 162/166/166
f 157/165/167 167/169/167 163/171/167
f 167/169/168 156/164/168 164/172/168
f 170/178/169 161/215/169 157/216/169
f 172/177/170 155/217/170 161/215/170
f 163/218/171 182/182/171 178/186/171
f 182/182/172 162/219/172 176/180/172
f 171/179/173 181/183/173 177/185/173
f 181/183/174 170/178/174 178/186/174
f 184/192/175 175/175/175 171/179/175
f 186/191/176 169/173/176 175/175/176
f 177/185/177 196/196/177 192/200/177
f 179/184/178 190/194/178 196/196/178
f 185/193/179 195/197/179 191/199/179
f 195/197/180 184/192/180 192/200/180
f 198/206/181 189/189/181 185/193/181
f 200/205/182 183/187/182 189/189/182
f 206/214/183 193/198/183 210/210/183
f 193/198/184 204/208/184 210/210/184
f 199/207/185 209/211/185 205/213/185
f 209/211/186 198/206/186 206/214/186
f 199/207/187 116/121/187 203/203/187
f 203/203/188 113/117/188 197/201/188
f 205/213/189 126/126/189 122/130/189
f 207/212/190 120/124/190 126/126/190
f 127/131/191 155/217/191 183/187/191
f 121/129/192 128/136/192 115/123/192
f 205/213/193 114/122/193 199/207/193
f 120/124/194 190/194/194 162/219/194
f 135/143/195 142/150/195 129/137/195
f 149/157/196 156/164/196 143/151/196
f 163/218/197 170/178/197 157/216/197
f 177/185/198 184/192/198 171/179/198
f 191/199/199 198/206/199 185/193/199
f 113/117/639 116/121/639 117/118/639
f 118/120/640 117/118/640 116/121/640
f 119/119/641 117/118/641 118/120/641
f 120/124/642 123/128/642 124/125/642
f 125/127/643 124/125/643 123/128/643
f 126/126/644 124/125/644 125/127/644
f 127/131/645 130/135/645 131/132/645
f 132/134/646 131/132/646 130/135/646
f 133/133/647 131/132/647 132/134/647
f 134/138/648 137/142/648 138/139/648
f 139/141/649 138/139/649 137/142/649
f 140/140/650 138/139/650 139/141/650
f 141/145/651 144/149/651 145/146/651
f 146/148/652 145/146/652 144/149/652
f 147/147/653 145/146/653 146/148/653
f 148/152/654 151/156/654 152/153/654
f 153/155/655 152/153/655 151/156/655
f 154/154/656 152/153/656 153/155/656
f 155/159/657 158/163/657 159/160/657
f 160/162/658 159/160/658 158/163/658
f 161/161/659 159/160/659 160/162/659
f 162/166/660 165/170/660 166/167/660
f 167/169/661 166/167/661 165/170/661
f 168/168/662 166/167/662 167/169/662
f 169/173/663 172/177/663 173/174/663
f 174/176/664 173/174/664 172/177/664
f 175/175/665 173/174/665 174/176/665
f 176/180/666 179/184/666 180/181/666
f 181/183/667 180/181/667 179/184/667
f 182/182/668 180/181/668 181/183/668
f 183/187/669 186/191/669 187/188/669
f 188/190/670 187/188/670 186/191/670
f 189/189/671 187/188/671 188/190/671
f 190/194/672 193/198/672 194/195/672
f 195/197/673 194/195/673 193/198/673
f 196/196/674 194/195/674 195/197/674
f 197/201/675 200/205/675 201/202/675
f 202/204/676 201/202/676 200/205/676
f 203/203/677 201/202/677 202/204/677
f 204/208/678 207/212/678 208/209/678
f 209/211/679 208/209/679 207/212/679
f 210/210/680 208/209/680 209/211/680
f 128/136/149 130/135/149 119/119/149
f 130/135/150 127/131/150 113/117/150
f 121/129/151 123/128/151 140/140/151
f 123/128/152 120/124/152 134/138/152
f 114/122/681 122/130/681 125/127/681
f 125/127/682 121/129/682 115/123/682
f 129/137/683 132/134/683 139/141/683
f 139/141/684 132/134/684 128/136/684
f 142/150/157 144/149/157 133/133/157
f 133/133/158 144/149/158 141/145/158
f 135/143/159 137/142/159 154/154/159
f 154/154/160 137/142/160 134/138/160
f 143/151/685 146/148/685 153/155/685
f 153/155/686 146/148/686 142/150/686
f 156/164/163 158/163/163 147/147/163
f 147/147/164 158/163/164 155/159/164
f 149/157/165 151/156/165 168/168/165
f 168/168/166 151/156/166 148/152/166
f 157/165/687 160/162/687 167/169/687
f 167/169/688 160/162/688 156/164/688
f 170/178/169 172/177/169 161/215/169
f 172/177/170 169/173/170 155/217/170
f 163/218/171 165/385/171 182/182/171
f 182/182/172 165/385/172 162/219/172
f 171/179/689 174/176/689 181/183/689
f 181/183/690 174/176/690 170/178/690
f 184/192/175 186/191/175 175/175/175
f 186/191/176 183/187/176 169/173/176
f 177/185/177 179/184/177 196/196/177
f 179/184/178 176/180/178 190/194/178
f 185/193/691 188/190/691 195/197/691
f 195/197/692 188/190/692 184/192/692
f 198/206/181 200/205/181 189/189/181
f 200/205/182 197/201/182 183/187/182
f 206/214/183 191/199/183 193/198/183
f 193/198/184 190/194/184 204/208/184
f 199/207/693 202/204/693 209/211/693
f 209/211/694 202/204/694 198/206/694
f 199/207/187 114/122/187 116/121/187
f 203/203/188 116/121/188 113/117/188
f 205/213/189 207/212/189 126/126/189
f 207/212/190 204/208/190 120/124/190
f 197/201/191 113/117/191 127/131/191
f 127/131/191 141/386/191 155/217/191
f 155/217/191 169/173/191 183/187/191
f 183/187/191 197/201/191 127/131/191
f 121/129/192 136/144/192 128/136/192
f 205/213/193 122/130/193 114/122/193
f 148/387/194 134/138/194 120/124/194
f 120/124/194 204/208/194 190/194/194
f 190/194/194 176/180/194 162/219/194
f 162/219/194 148/387/194 120/124/194
f 135/143/195 150/158/195 142/150/195
f 149/157/196 164/172/196 156/164/196
f 163/218/197 178/186/197 170/178/197
f 177/185/198 192/200/198 184/192/198
f 191/199/199 206/214/199 198/206/199
usemtl core
f 211/220/200 215/221/200 217/222/200
f 216/223/201 214/224/201 212/225/201
f 217/226/202 216/223/202 213/227/202
f 218/220/203 222/221/203 224/228/203
f 223/229/204 221/230/204 219/231/204
f 224/232/205 223/229/205 220/233/205
f 225/234/206 229/235/206 231/236/206
f 230/237/207 228/238/207 226/239/207
f 231/240/208 230/241/208 227/242/208
f 232/234/209 236/235/209 238/243/209
f 237/244/210 235/245/210 233/246/210
f 238/247/211 237/248/211 234/249/211
f 239/250/212 243/251/212 245/252/212
f 244/253/213 242/254/213 240/255/213
f 245/256/214 244/253/214 241/257/214
f 246/250/215 250/251/215 252/258/215
f 251/259/216 249/260/216 247/261/216
f 252/262/217 251/259/217 248/263/217
f 253/264/218 257/265/218 259/266/218
f 258/267/219 256/268/219 254/269/219
f 259/270/220 258/267/220 255/271/220
f 260/264/221 264/265/221 266/272/221
f 265/273/222 263/274/222 261/275/222
f 266/276/223 265/273/223 262/277/223
f 267/278/224 271/279/224 273/280/224
f 272/281/225 270/282/225 268/283/225
f 273/284/226 272/281/226 269/285/226
f 274/278/227 278/279/227 280/286/227
f 279/287/228 277/288/228 275/289/228
f 280/290/229 279/287/229 276/291/229
f 281/292/230 285/293/230 287/294/230
f 286/295/231 284/296/231 282/297/231
f 287/298/232 286/295/232 283/299/232
f 288/292/233 292/300/233 294/301/233
f 293/302/234 291/303/234 289/304/234
f 294/305/235 293/302/235 290/306/235
f 295/307/236 299/308/236 301/309/236
f 300/267/237 298/270/237 296/271/237
f 301/268/238 300/267/238 297/269/238
f 302/307/239 306/310/239 308/311/239
f 307/273/240 305/276/240 303/277/240
f 308/274/241 307/273/241 304/275/241
f 309/312/242 313/313/242 315/314/242
f 314/253/243 312/256/243 310/257/243
f 315/254/244 314/253/244 311/255/244
f 316/312/245 320/313/245 322/315/245
f 321/259/246 319/262/246 317/263/246
f 322/260/247 321/259/247 318/261/247
f 323/316/248 327/317/248 329/318/248
f 328/241/249 326/240/249 324/242/249
f 329/319/250 328/320/250 325/321/250
f 330/316/251 334/317/251 336/322/251
f 335/323/252 333/324/252 331/325/252
f 336/245/253 335/244/253 332/246/253
f 213/227/254 228/238/254 217/226/254
f 217/222/255 225/234/255 211/220/255
f 219/231/256 238/247/256 234/249/256
f 221/222/257 232/234/257 238/243/257
f 212/225/258 223/229/258 216/223/258
f 223/229/259 213/227/259 216/223/259
f 227/242/260 237/244/260 233/246/260
f 230/237/261 234/249/261 237/248/261
f 240/255/262 231/240/262 227/242/262
f 231/236/263 239/250/263 225/234/263
f 248/263/264 235/245/264 252/262/264
f 252/258/265 232/234/265 246/250/265
f 241/257/266 251/259/266 247/261/266
f 244/253/267 248/263/267 251/259/267
f 254/269/268 245/256/268 241/257/268
f 256/272/269 239/250/269 245/252/269
f 262/277/270 249/260/270 266/276/270
f 249/252/271 260/264/271 266/272/271
f 261/275/272 258/267/272 265/273/272
f 265/273/273 254/269/273 262/277/273
f 268/283/274 259/326/274 255/327/274
f 270/286/275 253/264/275 259/266/275
f 261/328/276 280/290/276 276/291/276
f 280/286/277 260/264/277 274/278/277
f 269/285/278 279/287/278 275/289/278
f 272/281/279 276/291/279 279/287/279
f 282/297/280 273/284/280 269/285/280
f 284/301/281 267/278/281 273/280/281
f 275/289/282 294/305/282 290/306/282
f 277/280/283 288/292/283 294/301/283
f 289/304/284 286/295/284 293/302/284
f 293/302/285 282/297/285 290/306/285
f 283/299/286 298/329/286 287/298/286
f 298/311/287 281/292/287 287/294/287
f 289/304/288 308/330/288 304/331/288
f 291/294/289 302/307/289 308/311/289
f 297/269/290 307/273/290 303/277/290
f 307/273/291 296/271/291 304/275/291
f 297/269/292 312/256/292 301/268/292
f 312/315/293 295/307/293 301/309/293
f 303/277/294 322/260/294 318/261/294
f 305/309/295 316/312/295 322/315/295
f 311/255/296 321/259/296 317/263/296
f 314/253/297 318/261/297 321/259/297
f 324/242/298 315/254/298 311/255/298
f 326/322/299 309/312/299 315/314/299
f 317/263/300 336/245/300 332/246/300
f 336/322/301 316/312/301 330/316/301
f 331/325/302 328/320/302 335/323/302
f 328/241/303 332/246/303 335/244/303
f 325/321/304 214/224/304 329/319/304
f 214/228/305 323/316/305 329/318/305
f 331/325/306 224/232/306 220/233/306
f 333/318/307 218/220/307 224/228/307
f 225/234/308 281/292/308 309/312/308
f 219/231/309 226/239/309 213/227/309
f 331/325/310 212/225/310 325/321/310
f 218/220/311 288/292/311 260/264/311
f 233/246/312 240/255/312 227/242/312
f 241/257/313 262/277/313 254/269/313
f 261/328/314 268/283/314 255/327/314
f 275/289/315 282/297/315 269/285/315
f 283/299/316 304/331/316 296/332/316
f 297/269/317 318/261/317 310/257/317
f 317/263/318 324/242/318 311/255/318
f 211/220/695 214/228/695 215/221/695
f 216/223/696 215/388/696 214/224/696
f 217/226/697 215/388/697 216/223/697
f 218/220/698 221/222/698 222/221/698
f 223/229/699 222/389/699 221/230/699
f 224/232/700 222/389/700 223/229/700
f 225/234/701 228/390/701 229/235/701
f 230/237/702 229/391/702 228/238/702
f 231/240/703 229/392/703 230/241/703
f 232/234/704 235/236/704 236/235/704
f 237/244/705 236/393/705 235/245/705
f 238/247/706 236/394/706 237/248/706
f 239/250/707 242/258/707 243/251/707
f 244/253/708 243/395/708 242/254/708
f 245/256/709 243/395/709 244/253/709
f 246/250/710 249/252/710 250/251/710
f 251/259/711 250/396/711 249/260/711
f 252/262/712 250/396/712 251/259/712
f 253/264/713 256/272/713 257/265/713
f 258/267/714 257/397/714 256/268/714
f 259/270/715 257/397/715 258/267/715
f 260/264/716 263/266/716 264/265/716
f 265/273/717 264/398/717 263/274/717
f 266/276/718 264/398/718 265/273/718
f 267/278/719 270/286/719 271/279/719
f 272/281/720 271/399/720 270/282/720
f 273/284/721 271/399/721 272/281/721
f 274/278/722 277/280/722 278/279/722
f 279/287/723 278/400/723 277/288/723
f 280/290/724 278/400/724 279/287/724
f 281/292/725 284/301/725 285/293/725
f 286/295/726 285/401/726 284/296/726
f 287/298/727 285/401/727 286/295/727
f 288/292/728 291/294/728 292/300/728
f 293/302/729 292/402/729 291/303/729
f 294/305/730 292/402/730 293/302/730
f 295/307/731 298/311/731 299/308/731
f 300/267/732 299/397/732 298/270/732
f 301/268/733 299/397/733 300/267/733
f 302/307/734 305/309/734 306/310/734
f 307/273/735 306/398/735 305/276/735
f 308/274/736 306/398/736 307/273/736
f 309/312/737 312/315/737 313/313/737
f 314/253/738 313/395/738 312/256/738
f 315/254/739 313/395/739 314/253/739
f 316/312/740 319/314/740 320/313/740
f 321/259/741 320/396/741 319/262/741
f 322/260/742 320/396/742 321/259/742
f 323/316/743 326/322/743 327/317/743
f 328/241/744 327/392/744 326/240/744
f 329/319/745 327/403/745 328/320/745
f 330/316/746 333/318/746 334/317/746
f 335/323/747 334/404/747 333/324/747
f 336/245/748 334/393/748 335/244/748
f 213/227/254 226/239/254 228/238/254
f 217/222/255 228/390/255 225/234/255
f 219/231/256 221/230/256 238/247/256
f 221/222/257 218/220/257 232/234/257
f 212/225/258 220/233/258 223/229/258
f 223/229/259 219/231/259 213/227/259
f 227/242/260 230/241/260 237/244/260
f 230/237/749 226/239/749 234/249/749
f 240/255/262 242/254/262 231/240/262
f 231/236/263 242/258/263 239/250/263
f 248/263/264 233/246/264 235/245/264
f 252/258/750 235/236/750 232/234/750
f 241/257/266 244/253/266 251/259/266
f 244/253/267 240/255/267 248/263/267
f 254/269/268 256/268/268 245/256/268
f 256/272/269 253/264/269 239/250/269
f 262/277/270 247/261/270 249/260/270
f 249/252/271 246/250/271 260/264/271
f 261/275/272 255/271/272 258/267/272
f 265/273/273 258/267/273 254/269/273
f 268/283/274 270/282/274 259/326/274
f 270/286/275 267/278/275 253/264/275
f 261/328/276 263/405/276 280/290/276
f 280/286/277 263/266/277 260/264/277
f 269/285/278 272/281/278 279/287/278
f 272/281/279 268/283/279 276/291/279
f 282/297/280 284/296/280 273/284/280
f 284/301/281 281/292/281 267/278/281
f 275/289/282 277/288/282 294/305/282
f 277/280/283 274/278/283 288/292/283
f 289/304/284 283/299/284 286/295/284
f 293/302/285 286/295/285 282/297/285
f 283/299/286 296/332/286 298/329/286
f 298/311/287 295/307/287 281/292/287
f 289/304/288 291/303/288 308/330/288
f 291/294/289 288/292/289 302/307/289
f 297/269/290 300/267/290 307/273/290
f 307/273/291 300/267/291 296/271/291
f 297/269/292 310/257/292 312/256/292
f 312/315/293 309/312/293 295/307/293
f 303/277/294 305/276/294 322/260/294
f 305/309/295 302/307/295 316/312/295
f 311/255/296 314/253/296 321/259/296
f 314/253/297 310/257/297 318/261/297
f 324/242/298 326/240/298 315/254/298
f 326/322/299 323/316/299 309/312/299
f 317/263/300 319/262/300 336/245/300
f 336/322/301 319/314/301 316/312/301
f 331/325/302 325/321/302 328/320/302
f 328/241/303 324/242/303 332/246/303
f 325/321/304 212/225/304 214/224/304
f 214/228/305 211/220/305 323/316/305
f 331/325/306 333/324/306 224/232/306
f 333/318/307 330/316/307 218/220/307
f 323/316/308 211/220/308 225/234/308
f 225/234/308 239/250/308 253/264/308
f 253/264/308 267/278/308 281/292/308
f 281/292/308 295/307/308 309/312/308
f 309/312/308 323/316/308 225/234/308
f 225/234/308 253/264/308 281/292/308
f 219/231/309 234/249/309 226/239/309
f 331/325/310 220/233/310 212/225/310
f 246/250/311 232/234/311 218/220/311
f 218/220/311 330/316/311 316/312/311
f 316/312/311 302/307/311 288/292/311
f 288/292/311 274/278/311 260/264/311
f 260/264/311 246/250/311 218/220/311
f 218/220/311 316/312/311 288/292/311
f 233/246/312 248/263/312 240/255/312
f 241/257/313 247/261/313 262/277/313
f 261/328/314 276/291/314 268/283/314
f 275/289/315 290/306/315 282/297/315
f 283/299/316 289/304/316 304/331/316
f 297/269/317 303/277/317 318/261/317
f 317/263/318 332/246/318 324/242/318
usemtl stone
f 337/333/319 341/334/319 343/335/319
f 338/336/320 341/337/320 340/338/320
f 339/339/321 341/340/321 342/341/321
f 344/342/322 348/343/322 350/344/322
f 345/333/323 348/334/323 347/345/323
f 346/346/324 348/347/324 349/348/324
f 351/349/325 355/350/325 357/351/325
f 352/352/326 355/353/326 354/354/326
f 353/336/327 355/337/327 356/355/327
f 358/349/328 362/350/328 364/356/328
f 359/342/329 362/343/329 361/357/329
f 360/358/330 362/359/330 363/360/330
f 365/361/331 369/362/331 371/363/331
f 366/339/332 369/340/332 368/364/332
f 367/365/333 369/366/333 370/367/333
f 372/361/334 376/362/334 378/368/334
f 373/369/335 376/370/335 375/371/335
f 374/346/336 376/347/336 377/372/336
f 379/373/337 383/374/337 385/375/337
f 380/365/338 383/366/338 382/376/338
f 381/352/339 383/353/339 384/377/339
f 386/373/340 390/374/340 392/378/340
f 387/358/341 390/359/341 389/379/341
f 388/369/342 390/370/342 391/380/342
f 337/333/343 354/356/343 351/349/343
f 343/364/344 352/352/344 354/354/344
f 338/336/345 350/344/345 342/355/345
f 350/372/346 339/339/346 342/341/346
f 358/349/347 349/335/347 345/333/347
f 364/379/348 346/346/348 349/348/348
f 359/342/349 356/355/349 363/344/349
f 363/360/350 352/352/350 360/358/350
f 351/349/351 382/378/351 379/373/351
f 357/338/352 380/365/352 382/376/352
f 386/373/353 361/351/353 358/349/353
f 361/357/354 388/369/354 359/342/354
f 381/352/355 391/360/355 387/358/355
f 391/380/356 380/365/356 388/369/356
f 365/361/357 385/375/357 368/368/357
f 368/364/358 381/352/358 366/339/358
f 372/361/359 389/375/359 386/373/359
f 378/348/360 387/358/360 389/379/360
f 367/365/361 377/380/361 373/369/361
f 370/341/362 374/346/362 377/372/362
f 365/361/363 340/345/363 337/333/363
f 371/376/364 338/336/364 340/338/364
f 345/333/365 375/363/365 372/361/365
f 375/371/366 344/342/366 373/369/366
f 379/373/367 337/333/367 351/349/367
f 339/339/368 360/358/368 352/352/368
f 373/369/369 338/336/369 367/365/369
f 386/373/370 345/333/370 372/361/370
f 359/342/371 380/365/371 353/336/371
f 381/352/372 374/346/372 366/339/372
f 393/333/373 397/334/373 399/335/373
f 394/336/374 397/337/374 396/338/374
f 395/339/375 397/340/375 398/341/375
f 400/342/376 404/343/376 406/344/376
f 401/333/377 404/334/377 403/345/377
f 402/346/378 404/347/378 405/348/378
f 407/349/379 411/350/379 413/351/379
f 408/352/380 411/353/380 410/354/380
f 409/336/381 411/337/381 412/355/381
f 414/349/382 418/350/382 420/356/382
f 415/342/383 418/343/383 417/357/383
f 416/358/384 418/359/384 419/360/384
f 421/361/385 425/362/385 427/363/385
f 422/339/386 425/340/386 424/364/386
f 423/365/387 425/366/387 426/367/387
f 428/361/388 432/362/388 434/368/388
f 429/369/389 432/370/389 431/371/389
f 430/346/390 432/347/390 433/372/390
f 435/373/391 439/374/391 441/375/391
f 436/365/392 439/366/392 438/376/392
f 437/352/393 439/353/393 440/377/393
f 442/373/394 446/374/394 448/378/394
f 443/358/395 446/359/395 445/379/395
f 444/369/396 446/370/396 447/380/396
f 393/333/397 410/356/397 407/349/397
f 410/354/398 395/339/398 408/352/398
f 394/336/399 406/344/399 398/355/399
f 398/341/400 402/346/400 395/339/400
f 401/333/401 420/356/401 405/335/401
f 420/379/402 402/346/402 405/348/402
f 415/342/403 412/355/403 419/344/403
f 419/360/404 408/352/404 416/358/404
f 435/373/405 413/351/405 438/378/405
f 413/338/406 436/365/406 438/376/406
f 414/349/407 448/378/407 417/351/407
f 417/357/408 444/369/408 415/342/408
f 443/358/409 440/377/409 447/360/409
f 440/367/410 444/369/410 447/380/410
f 435/373/411 424/368/411 421/361/411
f 441/354/412 422/339/412 424/364/412
f 442/373/413 434/368/413 445/375/413
f 445/379/414 430/346/414 443/358/414
f 423/365/415 433/380/415 429/369/415
f 426/341/416 430/346/416 433/372/416
f 393/333/417 427/363/417 396/345/417
f 427/376/418 394/336/418 396/338/418
f 428/361/419 403/345/419 431/363/419
f 403/357/420 429/369/420 431/371/420
f 435/373/421 393/333/421 407/349/421
f 402/346/422 408/352/422 395/339/422
f 429/369/423 394/336/423 423/365/423
f 414/349/424 428/361/424 442/373/424
f 415/342/425 436/365/425 409/336/425
f 443/358/426 422/339/426 437/352/426
f 449/333/427 453/334/427 455/335/427
f 450/336/428 453/337/428 452/338/428
f 451/339/429 453/340/429 454/341/429
f 456/342/430 460/343/430 462/344/430
f 457/333/431 460/334/431 459/345/431
f 458/346/432 460/347/432 461/348/432
f 463/349/433 467/350/433 469/351/433
f 464/352/434 467/353/434 466/354/434
f 465/336/435 467/337/435 468/355/435
f 470/349/436 474/350/436 476/356/436
f 471/342/437 474/343/437 473/357/437
f 472/358/438 474/359/438 475/360/438
f 477/361/439 481/362/439 483/363/439
f 478/339/440 481/340/440 480/364/440
f 479/365/441 481/366/441 482/367/441
f 484/361/442 488/362/442 490/368/442
f 485/369/443 488/370/443 487/371/443
f 486/346/444 488/347/444 489/372/444
f 491/373/445 495/374/445 497/375/445
f 492/365/446 495/366/446 494/376/446
f 493/352/447 495/353/447 496/377/447
f 498/373/448 502/374/448 504/378/448
f 499/358/449 502/359/449 501/379/449
f 500/369/450 502/370/450 503/380/450
f 449/333/451 466/356/451 463/349/451
f 455/364/452 464/352/452 466/354/452
f 456/342/453 454/355/453 450/336/453
f 462/372/454 451/339/454 454/341/454
f 470/349/455 461/335/455 457/333/455
f 476/379/456 458/346/456 461/348/456
f 465/336/457 475/344/457 471/342/457
f 468/377/458 472/358/458 475/360/458
f 463/349/459 494/378/459 491/373/459
f 469/338/460 492/365/460 494/376/460
f 470/349/461 504/378/461 473/351/461
f 504/371/462 471/342/462 473/357/462
f 499/358/463 496/377/463 503/360/463
f 496/367/464 500/369/464 503/380/464
f 477/361/465 497/375/465 480/368/465
f 497/354/466 478/339/466 480/364/466
f 484/361/467 501/375/467 498/373/467
f 490/348/468 499/358/468 501/379/468
f 479/365/469 489/380/469 485/369/469
f 489/372/470 478/339/470 486/346/470
f 477/361/471 452/345/471 449/333/471
f 483/376/472 450/336/472 452/338/472
f 484/361/473 459/345/473 487/363/473
f 487/371/474 456/342/474 485/369/474
f 491/373/475 449/333/475 463/349/475
f 458/346/476 464/352/476 451/339/476
f 479/365/477 456/342/477 450/336/477
f 470/349/478 484/361/478 498/373/478
f 471/342/479 492/365/479 465/336/479
f 493/352/480 486/346/480 478/339/480
f 505/333/481 509/334/481 511/335/481
f 506/336/482 509/337/482 508/338/482
f 507/339/483 509/340/483 510/341/483
f 512/342/484 516/343/484 518/344/484
f 513/333/485 516/334/485 515/345/485
f 514/346/486 516/347/486 517/348/486
f 519/349/487 523/350/487 525/351/487
f 520/352/488 523/353/488 522/354/488
f 521/336/489 523/337/489 524/355/489
f 526/349/490 530/350/490 532/356/490
f 527/342/491 530/343/491 529/357/491
f 528/358/492 530/359/492 531/360/492
f 533/361/493 537/362/493 539/363/493
f 534/339/494 537/340/494 536/364/494
f 535/365/495 537/366/495 538/367/495
f 540/361/496 544/362/496 546/368/496
f 541/369/497 544/370/497 543/371/497
f 542/346/498 544/347/498 545/372/498
f 547/373/499 551/374/499 553/375/499
f 548/365/500 551/366/500 550/376/500
f 549/352/501 551/353/501 552/377/501
f 554/373/502 558/374/502 560/378/502
f 555/358/503 558/359/503 557/379/503
f 556/369/504 558/370/504 559/380/504
f 519/349/505 511/335/505 522/356/505
f 522/354/506 507/339/506 520/352/506
f 506/336/507 518/344/507 510/355/507
f 518/372/508 507/339/508 510/341/508
f 513/333/509 532/356/509 517/335/509
f 532/379/510 514/346/510 517/348/510
f 521/336/511 531/344/511 527/342/511
f 531/360/512 520/352/512 528/358/512
f 547/373/513 525/351/513 550/378/513
f 525/338/514 548/365/514 550/376/514
f 554/373/515 529/351/515 526/349/515
f 529/357/516 556/369/516 527/342/516
f 555/358/517 552/377/517 559/360/517
f 552/367/518 556/369/518 559/380/518
f 533/361/519 553/375/519 536/368/519
f 536/364/520 549/352/520 534/339/520
f 554/373/521 546/368/521 557/375/521
f 557/379/522 542/346/522 555/358/522
f 541/369/523 538/367/523 545/380/523
f 538/341/524 542/346/524 545/372/524
f 533/361/525 508/345/525 505/333/525
f 539/376/526 506/336/526 508/338/526
f 513/333/527 543/363/527 540/361/527
f 543/371/528 512/342/528 541/369/528
f 547/373/529 505/333/529 519/349/529
f 507/339/530 528/358/530 520/352/530
f 535/365/531 512/342/531 506/336/531
f 526/349/532 540/361/532 554/373/532
f 527/342/533 548/365/533 521/336/533
f 555/358/534 534/339/534 549/352/534
f 561/333/535 565/334/535 567/335/535
f 562/336/536 565/337/536 564/338/536
f 563/339/537 565/340/537 566/341/537
f 568/342/538 572/343/538 574/344/538
f 569/333/539 572/334/539 571/345/539
f 570/346/540 572/347/540 573/348/540
f 575/349/541 579/350/541 581/351/541
f 576/352/542 579/353/542 578/354/542
f 577/336/543 579/337/543 580/355/543
f 582/349/544 586/350/544 588/356/544
f 583/342/545 586/343/545 585/357/545
f 584/358/546 586/359/546 587/360/546
f 589/361/547 593/362/547 595/363/547
f 590/339/548 593/340/548 592/364/548
f 591/365/549 593/366/549 594/367/549
f 596/361/550 600/362/550 602/368/550
f 597/369/551 600/370/551 599/371/551
f 598/346/552 600/347/552 601/372/552
f 603/373/553 607/374/553 609/375/553
f 604/365/554 607/366/554 606/376/554
f 605/352/555 607/353/555 608/377/555
f 610/373/556 614/374/556 616/378/556
f 611/358/557 614/359/557 613/379/557
f 612/369/558 614/370/558 615/380/558
f 575/349/559 567/335/559 578/356/559
f 567/364/560 576/352/560 578/354/560
f 562/336/561 574/344/561 566/355/561
f 566/341/562 570/346/562 563/339/562
f 582/349/563 573/335/563 569/333/563
f 573/348/564 584/358/564 570/346/564
f 583/342/565 580/355/565 587/344/565
f 580/377/566 584/358/566 587/360/566
f 575/349/567 606/378/567 603/373/567
f 581/338/568 604/365/568 606/376/568
f 610/373/569 585/351/569 582/349/569
f 585/357/570 612/369/570 583/342/570
f 611/358/571 608/377/571 615/360/571
f 615/380/572 604/365/572 612/369/572
f 603/373/573 592/368/573 589/361/573
f 609/354/574 590/339/574 592/364/574
f 610/373/575 602/368/575 613/375/575
f 613/379/576 598/346/576 611/358/576
f 591/365/577 601/380/577 597/369/577
f 601/372/578 590/339/578 598/346/578
f 589/361/579 564/345/579 561/333/579
f 564/338/580 591/365/580 562/336/580
f 569/333/581 599/363/581 596/361/581
f 571/357/582 597/369/582 599/371/582
f 603/373/583 561/333/583 575/349/583
f 570/346/584 576/352/584 563/339/584
f 597/369/585 562/336/585 591/365/585
f 610/373/586 569/333/586 596/361/586
f 583/342/587 604/365/587 577/336/587
f 611/358/588 590/339/588 605/352/588
f 337/333/751 340/345/751 341/334/751
f 338/336/752 342/355/752 341/337/752
f 339/339/753 343/364/753 341/340/753
f 344/342/754 347/357/754 348/343/754
f 345/333/755 349/335/755 348/334/755
f 346/346/756 350/372/756 348/347/756
f 351/349/757 354/356/757 355/350/757
f 352/352/758 356/377/758 355/353/758
f 353/336/759 357/338/759 355/337/759
f 358/349/760 361/351/760 362/350/760
f 359/342/761 363/344/761 362/343/761
f 360/358/762 364/379/762 362/359/762
f 365/361/763 368/368/763 369/362/763
f 366/339/764 370/341/764 369/340/764
f 367/365/765 371/376/765 369/366/765
f 372/361/766 375/363/766 376/362/766
f 373/369/767 377/380/767 376/370/767
f 374/346/768 378/348/768 376/347/768
f 379/373/769 382/378/769 383/374/769
f 380/365/770 384/367/770 383/366/770
f 381/352/771 385/354/771 383/353/771
f 386/373/772 389/375/772 390/374/772
f 387/358/773 391/360/773 390/359/773
f 388/369/774 392/371/774 390/370/774
f 337/333/343 343/335/343 354/356/343
f 343/364/344 339/339/344 352/352/344
f 338/336/345 344/342/345 350/344/345
f 350/372/346 346/346/346 339/339/346
f 358/349/347 364/356/347 349/335/347
f 364/379/348 360/358/348 346/346/348
f 359/342/775 353/336/775 356/355/775
f 363/360/776 356/377/776 352/352/776
f 351/349/351 357/351/351 382/378/351
f 357/338/352 353/336/352 380/365/352
f 386/373/353 392/378/353 361/351/353
f 361/357/354 392/371/354 388/369/354
f 381/352/355 384/377/355 391/360/355
f 391/380/356 384/367/356 380/365/356
f 365/361/357 379/373/357 385/375/357
f 368/364/358 385/354/358 381/352/358
f 372/361/359 378/368/359 389/375/359
f 378/348/360 374/346/360 387/358/360
f 367/365/777 370/367/777 377/380/777
f 370/341/778 366/339/778 374/346/778
f 365/361/363 371/363/363 340/345/363
f 371/376/364 367/365/364 338/336/364
f 345/333/365 347/345/365 375/363/365
f 375/371/366 347/357/366 344/342/366
f 379/373/367 365/361/367 337/333/367
f 339/339/368 346/346/368 360/358/368
f 373/369/369 344/342/369 338/336/369
f 386/373/370 358/349/370 345/333/370
f 359/342/371 388/369/371 380/365/371
f 381/352/372 387/358/372 374/346/372
f 393/333/779 396/345/779 397/334/779
f 394/336/780 398/355/780 397/337/780
f 395/339/781 399/364/781 397/340/781
f 400/342/782 403/357/782 404/343/782
f 401/333/783 405/335/783 404/334/783
f 402/346/784 406/372/784 404/347/784
f 407/349/785 410/356/785 411/350/785
f 408/352/786 412/377/786 411/353/786
f 409/336/787 413/338/787 411/337/787
f 414/349/788 417/351/788 418/350/788
f 415/342/789 419/344/789 418/343/789
f 416/358/790 420/379/790 418/359/790
f 421/361/791 424/368/791 425/362/791
f 422/339/792 426/341/792 425/340/792
f 423/365/793 427/376/793 425/366/793
f 428/361/794 431/363/794 432/362/794
f 429/369/795 433/380/795 432/370/795
f 430/346/796 434/348/796 432/347/796
f 435/373/797 438/378/797 439/374/797
f 436/365/798 440/367/798 439/366/798
f 437/352/799 441/354/799 439/353/799
f 442/373/800 445/375/800 446/374/800
f 443/358/801 447/360/801 446/359/801
f 444/369/802 448/371/802 446/370/802
f 393/333/397 399/335/397 410/356/397
f 410/354/803 399/364/803 395/339/803
f 394/336/399 400/342/399 406/344/399
f 398/341/400 406/372/400 402/346/400
f 401/333/401 414/349/401 420/356/401
f 420/379/402 416/358/402 402/346/402
f 415/342/403 409/336/403 412/355/403
f 419/360/404 412/377/404 408/352/404
f 435/373/405 407/349/405 413/351/405
f 413/338/406 409/336/406 436/365/406
f 414/349/407 442/373/407 448/378/407
f 417/357/408 448/371/408 444/369/408
f 443/358/409 437/352/409 440/377/409
f 440/367/410 436/365/410 444/369/410
f 435/373/411 441/375/411 424/368/411
f 441/354/804 437/352/804 422/339/804
f 442/373/413 428/361/413 434/368/413
f 445/379/805 434/348/805 430/346/805
f 423/365/415 426/367/415 433/380/415
f 426/341/416 422/339/416 430/346/416
f 393/333/417 421/361/417 427/363/417
f 427/376/418 423/365/418 394/336/418
f 428/361/419 401/333/419 403/345/419
f 403/357/420 400/342/420 429/369/420
f 435/373/421 421/361/421 393/333/421
f 402/346/422 416/358/422 408/352/422
f 429/369/423 400/342/423 394/336/423
f 414/349/424 401/333/424 428/361/424
f 415/342/425 444/369/425 436/365/425
f 443/358/426 430/346/426 422/339/426
f 449/333/806 452/345/806 453/334/806
f 450/336/807 454/355/807 453/337/807
f 451/339/808 455/364/808 453/340/808
f 456/342/809 459/357/809 460/343/809
f 457/333/810 461/335/810 460/334/810
f 458/346/811 462/372/811 460/347/811
f 463/349/812 466/356/812 467/350/812
f 464/352/813 468/377/813 467/353/813
f 465/336/814 469/338/814 467/337/814
f 470/349/815 473/351/815 474/350/815
f 471/342/816 475/344/816 474/343/816
f 472/358/817 476/379/817 474/359/817
f 477/361/818 480/368/818 481/362/818
f 478/339/819 482/341/819 481/340/819
f 479/365/820 483/376/820 481/366/820
f 484/361/821 487/363/821 488/362/821
f 485/369/822 489/380/822 488/370/822
f 486/346/823 490/348/823 488/347/823
f 491/373/824 494/378/824 495/374/824
f 492/365/825 496/367/825 495/366/825
f 493/352/826 497/354/826 495/353/826
f 498/373/827 501/375/827 502/374/827
f 499/358/828 503/360/828 502/359/828
f 500/369/829 504/371/829 502/370/829
f 449/333/451 455/335/451 466/356/451
f 455/364/452 451/339/452 464/352/452
f 456/342/453 462/344/453 454/355/453
f 462/372/454 458/346/454 451/339/454
f 470/349/455 476/356/455 461/335/455
f 476/379/456 472/358/456 458/346/456
f 465/336/457 468/355/457 475/344/457
f 468/377/458 464/352/458 472/358/458
f 463/349/459 469/351/459 494/378/459
f 469/338/460 465/336/460 492/365/460
f 470/349/461 498/373/461 504/378/461
f 504/371/462 500/369/462 471/342/462
f 499/358/463 493/352/463 496/377/463
f 496/367/830 492/365/830 500/369/830
f 477/361/465 491/373/465 497/375/465
f 497/354/466 493/352/466 478/339/466
f 484/361/467 490/368/467 501/375/467
f 490/348/468 486/346/468 499/358/468
f 479/365/469 482/367/469 489/380/469
f 489/372/831 482/341/831 478/339/831
f 477/361/832 483/363/832 452/345/832
f 483/376/472 479/365/472 450/336/472
f 484/361/473 457/333/473 459/345/473
f 487/371/474 459/357/474 456/342/474
f 491/373/475 477/361/475 449/333/475
f 458/346/476 472/358/476 464/352/476
f 479/365/477 485/369/477 456/342/477
f 470/349/478 457/333/478 484/361/478
f 471/342/479 500/369/479 492/365/479
f 493/352/480 499/358/480 486/346/480
f 505/333/833 508/345/833 509/334/833
f 506/336/834 510/355/834 509/337/834
f 507/339/835 511/364/835 509/340/835
f 512/342/836 515/357/836 516/343/836
f 513/333/837 517/335/837 516/334/837
f 514/346/838 518/372/838 516/347/838
f 519/349/839 522/356/839 523/350/839
f 520/352/840 524/377/840 523/353/840
f 521/336/841 525/338/841 523/337/841
f 526/349/842 529/351/842 530/350/842
f 527/342/843 531/344/843 530/343/843
f 528/358/844 532/379/844 530/359/844
f 533/361/845 536/368/845 537/362/845
f 534/339/846 538/341/846 537/340/846
f 535/365/847 539/376/847 537/366/847
f 540/361/848 543/363/848 544/362/848
f 541/369/849 545/380/849 544/370/849
f 542/346/850 546/348/850 544/347/850
f 547/373/851 550/378/851 551/374/851
f 548/365/852 552/367/852 551/366/852
f 549/352/853 553/354/853 551/353/853
f 554/373/854 557/375/854 558/374/854
f 555/358/855 559/360/855 558/359/855
f 556/369/856 560/371/856 558/370/856
f 519/349/505 505/333/505 511/335/505
f 522/354/506 511/364/506 507/339/506
f 506/336/857 512/342/857 518/344/857
f 518/372/508 514/346/508 507/339/508
f 513/333/858 526/349/858 532/356/858
f 532/379/510 528/358/510 514/346/510
f 521/336/511 524/355/511 531/344/511
f 531/360/512 524/377/512 520/352/512
f 547/373/513 519/349/513 525/351/513
f 525/338/514 521/336/514 548/365/514
f 554/373/515 560/378/515 529/351/515
f 529/357/516 560/371/516 556/369/516
f 555/358/517 549/352/517 552/377/517
f 552/367/859 548/365/859 556/369/859
f 533/361/860 547/373/860 553/375/860
f 536/364/520 553/354/520 549/352/520
f 554/373/521 540/361/521 546/368/521
f 557/379/522 546/348/522 542/346/522
f 541/369/523 535/365/523 538/367/523
f 538/341/524 534/339/524 542/346/524
f 533/361/525 539/363/525 508/345/525
f 539/376/526 535/365/526 506/336/526
f 513/333/861 515/345/861 543/363/861
f 543/371/528 515/357/528 512/342/528
f 547/373/529 533/361/529 505/333/529
f 507/339/530 514/346/530 528/358/530
f 535/365/531 541/369/531 512/342/531
f 526/349/532 513/333/532 540/361/532
f 527/342/533 556/369/533 548/365/533
f 555/358/534 542/346/534 534/339/534
f 561/333/862 564/345/862 565/334/862
f 562/336/863 566/355/863 565/337/863
f 563/339/864 567/364/864 565/340/864
f 568/342/865 571/357/865 572/343/865
f 569/333/866 573/335/866 572/334/866
f 570/346/867 574/372/867 572/347/867
f 575/349/868 578/356/868 579/350/868
f 576/352/869 580/377/869 579/353/869
f 577/336/870 581/338/870 579/337/870
f 582/349/871 585/351/871 586/350/871
f 583/342/872 587/344/872 586/343/872
f 584/358/873 588/379/873 586/359/873
f 589/361/874 592/368/874 593/362/874
f 590/339/875 594/341/875 593/340/875
f 591/365/876 595/376/876 593/366/876
f 596/361/877 599/363/877 600/362/877
f 597/369/878 601/380/878 600/370/878
f 598/346/879 602/348/879 600/347/879
f 603/373/880 606/378/880 607/374/880
f 604/365/881 608/367/881 607/366/881
f 605/352/882 609/354/882 607/353/882
f 610/373/883 613/375/883 614/374/883
f 611/358/884 615/360/884 614/359/884
f 612/369/885 616/371/885 614/370/885
f 575/349/559 561/333/559 567/335/559
f 567/364/886 563/339/886 576/352/886
f 562/336/561 568/342/561 574/344/561
f 566/341/562 574/372/562 570/346/562
f 582/349/563 588/356/563 573/335/563
f 573/348/564 588/379/564 584/358/564
f 583/342/565 577/336/565 580/355/565
f 580/377/566 576/352/566 584/358/566
f 575/349/887 581/351/887 606/378/887
f 581/338/568 577/336/568 604/365/568
f 610/373/569 616/378/569 585/351/569
f 585/357/570 616/371/570 612/369/570
f 611/358/888 605/352/888 608/377/888
f 615/380/572 608/367/572 604/365/572
f 603/373/573 609/375/573 592/368/573
f 609/354/574 605/352/574 590/339/574
f 610/373/575 596/361/575 602/368/575
f 613/379/889 602/348/889 598/346/889
f 591/365/577 594/367/577 601/380/577
f 601/372/578 594/341/578 590/339/578
f 589/361/579 595/363/579 564/345/579
f 564/338/580 595/376/580 591/365/580
f 569/333/581 571/345/581 599/363/581
f 571/357/582 568/342/582 597/369/582
f 603/373/583 589/361/583 561/333/583
f 570/346/584 584/358/584 576/352/584
f 597/369/585 568/342/585 562/336/585
f 610/373/586 582/349/586 569/333/586
f 583/342/587 612/369/587 604/365/587
f 611/358/588 598/346/588 590/339/588
