# Blender 4.5.10 LTS
# www.blender.org
mtllib grove_bonemeal_bindle.mtl
o grove_bonemeal_bindle
v 0.007949 -0.004729 0.005900
v -0.058926 0.022722 -0.042642
v 0.033048 0.023357 -0.072607
v 0.089961 0.024532 0.005605
v 0.033160 0.024623 0.083907
v -0.058857 0.023504 0.054088
v -0.018245 0.068951 -0.072939
v 0.073772 0.070069 -0.043120
v 0.073842 0.070851 0.053610
v -0.018132 0.070216 0.083575
v -0.075045 0.069041 0.005364
v 0.006966 0.098303 0.005068
v 0.022788 0.002735 -0.040172
v -0.031273 0.002362 -0.022559
v -0.016520 0.018871 -0.068705
v -0.070540 0.018957 0.005765
v -0.031232 0.002821 0.034297
v 0.056241 0.003425 0.005799
v 0.070994 0.019934 -0.040346
v 0.022854 0.003479 0.051824
v 0.071060 0.020678 0.051651
v -0.016413 0.020074 0.080149
v -0.080056 0.045723 -0.022874
v -0.080015 0.046183 0.033982
v 0.007392 0.046043 -0.086513
v -0.046670 0.045670 -0.068900
v 0.094931 0.047391 -0.023014
v 0.061478 0.046700 -0.068986
v 0.061585 0.047904 0.079868
v 0.094972 0.047850 0.033843
v -0.046562 0.046873 0.079954
v 0.007524 0.047530 0.097481
v -0.056144 0.072895 -0.040682
v 0.031329 0.073499 -0.069181
v 0.085456 0.074616 0.005203
v 0.031436 0.074703 0.079673
v -0.056078 0.073639 0.051314
v -0.007938 0.090095 -0.040856
v -0.041325 0.090148 0.005169
v 0.046147 0.090752 -0.023329
v 0.046188 0.091212 0.033527
v -0.007872 0.090838 0.051140
v 0.015597 0.002571 -0.057906
v 0.015156 0.003274 -0.059072
v 0.016973 0.003208 -0.058497
v 0.015270 0.002767 -0.058718
v 0.016111 0.002813 -0.058898
v 0.016244 0.003217 -0.059136
v 0.016555 0.002721 -0.058311
v 0.017644 0.053712 -0.061190
v 0.018156 0.054463 -0.060085
v 0.019461 0.053647 -0.060614
v 0.017809 0.054233 -0.060879
v 0.018640 0.054090 -0.061051
v 0.019094 0.054186 -0.060472
v 0.018731 0.053656 -0.061254
v 0.048662 0.004252 0.020963
v 0.050038 0.004889 0.020372
v 0.049174 0.005003 0.022069
v 0.049620 0.004402 0.020558
v 0.049726 0.004522 0.021283
v 0.049982 0.004932 0.021340
v 0.049009 0.004482 0.021757
v 0.051221 0.056144 0.018784
v 0.051661 0.055441 0.019951
v 0.052526 0.055327 0.018255
v 0.051547 0.055948 0.019596
v 0.052255 0.055799 0.019130
v 0.052470 0.055371 0.019222
v 0.052158 0.055867 0.018397
v -0.077500 0.008796 -0.019009
v -0.078805 0.009612 -0.018479
v -0.077941 0.009498 -0.020175
v -0.078438 0.009072 -0.018621
v -0.078534 0.009141 -0.019354
v -0.078749 0.009569 -0.019446
v -0.077827 0.008992 -0.019821
v -0.074941 0.060687 -0.021187
v -0.075453 0.059937 -0.022293
v -0.076318 0.060050 -0.020597
v -0.075288 0.060457 -0.021982
v -0.076005 0.060418 -0.021507
v -0.076262 0.060007 -0.021564
v -0.075900 0.060538 -0.020782
v -0.044435 0.010477 0.059860
v -0.043923 0.011228 0.060966
v -0.045741 0.011293 0.060390
v -0.044088 0.010707 0.060655
v -0.044920 0.010850 0.060827
v -0.045011 0.011284 0.061029
v -0.045373 0.010753 0.060247
v -0.041876 0.062368 0.057681
v -0.043253 0.061731 0.058272
v -0.041436 0.061666 0.058848
v -0.042835 0.062219 0.058087
v -0.042391 0.062127 0.058674
v -0.042524 0.061722 0.058911
v -0.041550 0.062172 0.058494
v 0.066781 0.012284 -0.036431
v 0.067527 0.012974 -0.037589
v 0.067812 0.012851 -0.035788
v 0.067298 0.012506 -0.037267
v 0.067789 0.012539 -0.036758
v 0.068027 0.012906 -0.036812
v 0.067500 0.012419 -0.035993
v 0.069214 0.057568 -0.034818
v 0.068517 0.058163 -0.033579
v 0.069499 0.057445 -0.033016
v 0.069020 0.058008 -0.034438
v 0.069505 0.057875 -0.033940
v 0.069222 0.057921 -0.033164
v 0.069715 0.057501 -0.034040
v 0.016671 0.009008 0.046793
v 0.017702 0.009574 0.047436
v 0.015974 0.009603 0.048031
v 0.017390 0.009142 0.047231
v 0.016846 0.009208 0.047850
v 0.016897 0.009563 0.048107
v 0.016168 0.009162 0.047652
v 0.018407 0.054886 0.049644
v 0.017661 0.054197 0.050803
v 0.019390 0.054168 0.050208
v 0.017890 0.054665 0.050480
v 0.018562 0.054544 0.050668
v 0.018584 0.054157 0.050879
v 0.019112 0.054645 0.050059
v -0.003113 0.017532 -0.078308
v -0.004096 0.018250 -0.078871
v -0.002367 0.018222 -0.079467
v -0.003818 0.017774 -0.078723
v -0.003267 0.017875 -0.079331
v -0.003290 0.018262 -0.079542
v -0.002596 0.017754 -0.079144
v -0.001377 0.063411 -0.075456
v -0.000679 0.062816 -0.076695
v -0.002408 0.062844 -0.076099
v -0.000874 0.063256 -0.076315
v -0.001552 0.063211 -0.076513
v -0.001603 0.062856 -0.076770
v -0.002096 0.063276 -0.075894
v -0.053223 0.014256 0.004915
v -0.053920 0.014851 0.006154
v -0.054205 0.014974 0.004352
v -0.053726 0.014411 0.005775
v -0.054211 0.014544 0.005276
v -0.054421 0.014918 0.005376
v -0.053928 0.014497 0.004501
v -0.051487 0.060135 0.007767
v -0.052518 0.059568 0.007124
v -0.052233 0.059445 0.008926
v -0.052206 0.060000 0.007329
v -0.052495 0.059879 0.008094
v -0.052733 0.059512 0.008148
v -0.052004 0.059913 0.008603
v -0.002471 0.067314 0.055728
v -0.002492 0.076406 0.059041
v -0.002512 0.070107 0.062868
v -0.002210 0.104291 0.006936
v -0.002355 0.095828 0.033413
v -0.002287 0.101943 0.020861
v -0.037817 0.067031 0.042642
v -0.040087 0.076105 0.045123
v -0.042475 0.069787 0.048073
v -0.006766 0.104254 0.005250
v -0.023777 0.095657 0.025483
v -0.015741 0.101835 0.015880
v -0.056481 0.066335 0.009903
v -0.059937 0.075365 0.010302
v -0.063576 0.069001 0.011057
v -0.009171 0.104165 0.001030
v -0.035088 0.095235 0.005641
v -0.022845 0.101570 0.003418
v -0.049729 0.065552 -0.027170
v -0.052756 0.074533 -0.029130
v -0.055942 0.068116 -0.030859
v -0.008301 0.104064 -0.003748
v -0.030996 0.094761 -0.016827
v -0.020275 0.101272 -0.010693
v -0.020721 0.065049 -0.051231
v -0.021903 0.073997 -0.054721
v -0.023145 0.067547 -0.058063
v -0.004562 0.103999 -0.006849
v -0.013415 0.094456 -0.031409
v -0.009234 0.101081 -0.019852
v 0.016970 0.065060 -0.051021
v 0.018186 0.074009 -0.054498
v 0.019469 0.067559 -0.057826
v 0.000295 0.104000 -0.006822
v 0.009427 0.094463 -0.031282
v 0.005113 0.101085 -0.019772
v 0.045708 0.065581 -0.026639
v 0.048751 0.074563 -0.028564
v 0.051961 0.068148 -0.030258
v 0.003999 0.104067 -0.003679
v 0.026843 0.094778 -0.016505
v 0.016051 0.101283 -0.010491
v 0.052046 0.066368 0.010508
v 0.055493 0.075400 0.010945
v 0.059127 0.069038 0.011741
v 0.004816 0.104169 0.001108
v 0.030685 0.095255 0.006008
v 0.018464 0.101583 0.003648
v 0.033019 0.067052 0.043037
v 0.035255 0.076128 0.045543
v 0.037614 0.069811 0.048519
v 0.002364 0.104257 0.005301
v 0.019153 0.095670 0.025722
v 0.011221 0.101843 0.016030
v 0.012975 0.094159 -0.021965
v 0.012843 0.094416 -0.022237
v 0.013474 0.094541 -0.022137
v 0.012904 0.094227 -0.022156
v 0.013227 0.094327 -0.022219
v 0.013257 0.094497 -0.022277
v 0.013351 0.094316 -0.022085
v 0.009082 0.113488 -0.022434
v 0.009106 0.113781 -0.022169
v 0.009714 0.113613 -0.022335
v 0.009067 0.113687 -0.022358
v 0.009403 0.113716 -0.022420
v 0.009513 0.113776 -0.022287
v 0.009496 0.113569 -0.022475
v 0.018405 0.095423 -0.003342
v 0.018904 0.095805 -0.003513
v 0.018429 0.095716 -0.003077
v 0.018781 0.095580 -0.003462
v 0.018747 0.095612 -0.003286
v 0.018798 0.095787 -0.003274
v 0.018445 0.095517 -0.003153
v 0.014536 0.115045 -0.003546
v 0.014669 0.114788 -0.003275
v 0.015144 0.114877 -0.003711
v 0.014608 0.114977 -0.003355
v 0.014924 0.115001 -0.003487
v 0.015037 0.114859 -0.003472
v 0.014943 0.115040 -0.003664
v -0.025420 0.086710 -0.010265
v -0.026027 0.086877 -0.010099
v -0.025552 0.086966 -0.010536
v -0.025827 0.086714 -0.010147
v -0.025807 0.086753 -0.010324
v -0.025920 0.086896 -0.010338
v -0.025491 0.086777 -0.010455
v -0.029289 0.106331 -0.010469
v -0.029313 0.106038 -0.010734
v -0.029788 0.105949 -0.010297
v -0.029328 0.106238 -0.010657
v -0.029631 0.106142 -0.010525
v -0.029681 0.105967 -0.010536
v -0.029664 0.106175 -0.010349
v -0.019990 0.087974 0.008358
v -0.019966 0.088267 0.008624
v -0.020597 0.088141 0.008524
v -0.019950 0.088067 0.008547
v -0.020287 0.088038 0.008609
v -0.020380 0.088185 0.008664
v -0.020397 0.087978 0.008477
v -0.023859 0.107595 0.008155
v -0.024358 0.107213 0.008326
v -0.023727 0.107338 0.008426
v -0.024234 0.107439 0.008275
v -0.024110 0.107427 0.008408
v -0.024141 0.107257 0.008467
v -0.023788 0.107527 0.008345
v 0.018004 0.088636 -0.007251
v 0.018294 0.088858 -0.007745
v 0.018271 0.088854 -0.007126
v 0.018195 0.088690 -0.007602
v 0.018301 0.088707 -0.007466
v 0.018384 0.088843 -0.007513
v 0.018180 0.088687 -0.007163
v 0.020596 0.106201 -0.007548
v 0.020372 0.106479 -0.007048
v 0.020573 0.106197 -0.006928
v 0.020544 0.106386 -0.007400
v 0.020641 0.106338 -0.007265
v 0.020528 0.106383 -0.006962
v 0.020686 0.106186 -0.007315
v 0.000210 0.090605 0.027262
v 0.000477 0.090822 0.027387
v -0.000013 0.090883 0.027762
v 0.000385 0.090655 0.027349
v 0.000211 0.090708 0.027621
v 0.000227 0.090852 0.027703
v 0.000039 0.090698 0.027614
v 0.002578 0.108447 0.027465
v 0.002289 0.108226 0.027960
v 0.002779 0.108165 0.027585
v 0.002387 0.108394 0.027816
v 0.002551 0.108339 0.027822
v 0.002529 0.108195 0.027901
v 0.002734 0.108351 0.027551
v 0.001765 0.090889 -0.015752
v 0.001564 0.091171 -0.015872
v 0.002054 0.091110 -0.016246
v 0.001609 0.090985 -0.015838
v 0.001792 0.090997 -0.016109
v 0.001814 0.091141 -0.016187
v 0.001956 0.090942 -0.016103
v 0.004133 0.108731 -0.015549
v 0.004356 0.108453 -0.016049
v 0.003866 0.108514 -0.015674
v 0.004304 0.108638 -0.015901
v 0.004132 0.108628 -0.015908
v 0.004116 0.108484 -0.015990
v 0.003958 0.108681 -0.015636
v -0.016029 0.092857 0.018761
v -0.016253 0.093135 0.019261
v -0.016230 0.093139 0.018641
v -0.016201 0.092950 0.019113
v -0.016298 0.092998 0.018978
v -0.016343 0.093150 0.019028
v -0.016185 0.092953 0.018675
v -0.013661 0.110699 0.018964
v -0.013929 0.110482 0.018839
v -0.013951 0.110478 0.019458
v -0.013837 0.110649 0.018877
v -0.013958 0.110629 0.019179
v -0.014041 0.110493 0.019226
v -0.013852 0.110646 0.019315
v -0.039657 0.098094 -0.007880
v -0.040086 0.098165 -0.008411
v -0.039701 0.098329 -0.007849
v -0.039913 0.098122 -0.008281
v -0.039847 0.098231 -0.008214
v -0.039945 0.098288 -0.008259
v -0.039641 0.098238 -0.007884
v -0.047958 0.101904 -0.004106
v -0.047756 0.101941 -0.003452
v -0.047573 0.102068 -0.003545
v -0.047946 0.101937 -0.003889
v -0.047850 0.102032 -0.003838
v -0.047674 0.102053 -0.003492
v -0.047817 0.102027 -0.003955
v -0.017723 0.096887 0.033281
v -0.017768 0.097122 0.033312
v -0.017521 0.096924 0.033936
v -0.017708 0.097031 0.033277
v -0.017549 0.097004 0.033632
v -0.017565 0.097057 0.033740
v -0.017533 0.096891 0.033719
v -0.025822 0.100734 0.037710
v -0.025393 0.100663 0.038241
v -0.025640 0.100861 0.037616
v -0.025566 0.100706 0.038111
v -0.025552 0.100806 0.038008
v -0.025437 0.100796 0.038045
v -0.025740 0.100846 0.037669
v -0.044431 0.085538 -0.005704
v -0.044613 0.085411 -0.005611
v -0.044860 0.085609 -0.006235
v -0.044512 0.085426 -0.005664
v -0.044701 0.085466 -0.006002
v -0.044816 0.085476 -0.006039
v -0.044687 0.085566 -0.006105
v -0.052530 0.089385 -0.001276
v -0.052732 0.089348 -0.001931
v -0.052485 0.089150 -0.001306
v -0.052720 0.089381 -0.001713
v -0.052704 0.089267 -0.001626
v -0.052688 0.089215 -0.001735
v -0.052545 0.089241 -0.001272
v -0.022497 0.084331 0.035457
v -0.022295 0.084368 0.036112
v -0.022679 0.084204 0.035551
v -0.022307 0.084335 0.035895
v -0.022403 0.084240 0.035844
v -0.022436 0.084245 0.035961
v -0.022579 0.084219 0.035498
v -0.030596 0.088178 0.039886
v -0.030552 0.087943 0.039855
v -0.030167 0.088107 0.040416
v -0.030612 0.088034 0.039890
v -0.030406 0.088041 0.040220
v -0.030308 0.087984 0.040265
v -0.030340 0.088150 0.040287
v 0.032035 0.096087 -0.048804
v 0.032428 0.096148 -0.049255
v 0.032203 0.096010 -0.048703
v 0.032275 0.096103 -0.049145
v 0.032291 0.096030 -0.049046
v 0.032394 0.096049 -0.049074
v 0.032116 0.096005 -0.048755
v 0.038845 0.100748 -0.045488
v 0.038638 0.100819 -0.044928
v 0.038620 0.100610 -0.044936
v 0.038823 0.100796 -0.045302
v 0.038815 0.100706 -0.045216
v 0.038664 0.100699 -0.044912
v 0.038811 0.100648 -0.045307
v 0.011189 0.096427 -0.013705
v 0.011357 0.096350 -0.013604
v 0.010982 0.096498 -0.013145
v 0.011270 0.096345 -0.013656
v 0.011099 0.096375 -0.013363
v 0.011123 0.096395 -0.013260
v 0.011004 0.096449 -0.013331
v 0.017792 0.101159 -0.009829
v 0.017399 0.101098 -0.009378
v 0.017774 0.100950 -0.009838
v 0.017552 0.101143 -0.009488
v 0.017623 0.101051 -0.009534
v 0.017540 0.100995 -0.009494
v 0.017818 0.101038 -0.009813
v 0.026804 0.106008 -0.052007
v 0.026821 0.106217 -0.051998
v 0.027197 0.106069 -0.052458
v 0.026778 0.106128 -0.052023
v 0.026973 0.106116 -0.052302
v 0.027056 0.106172 -0.052342
v 0.027044 0.106024 -0.052348
v 0.033406 0.110740 -0.048131
v 0.033614 0.110669 -0.048691
v 0.033239 0.110817 -0.048232
v 0.033592 0.110717 -0.048505
v 0.033497 0.110792 -0.048473
v 0.033473 0.110771 -0.048576
v 0.033326 0.110822 -0.048180
v 0.005958 0.106348 -0.016908
v 0.005751 0.106419 -0.016348
v 0.005975 0.106557 -0.016900
v 0.005773 0.106370 -0.016534
v 0.005781 0.106461 -0.016620
v 0.005785 0.106518 -0.016529
v 0.005932 0.106468 -0.016924
v 0.012560 0.111080 -0.013032
v 0.012393 0.111157 -0.013133
v 0.012168 0.111019 -0.012581
v 0.012480 0.111162 -0.013081
v 0.012304 0.111137 -0.012790
v 0.012202 0.111118 -0.012762
v 0.012321 0.111064 -0.012691
v -0.007173 0.028840 -0.044029
v -0.008186 0.033219 -0.040173
v -0.011146 0.026661 -0.040215
v -0.006538 0.031331 -0.042044
v -0.007663 0.029041 -0.040911
v -0.009347 0.029791 -0.039347
v -0.008631 0.026694 -0.042073
v -0.108685 0.074400 -0.004285
v -0.105796 0.069142 -0.003157
v -0.102837 0.075700 -0.003115
v -0.108133 0.071353 -0.003116
v -0.106275 0.073300 -0.002302
v -0.103997 0.072272 -0.002289
v -0.106040 0.075990 -0.003086
v -0.011956 0.021956 -0.047752
v -0.013677 0.023017 -0.042186
v -0.017478 0.019844 -0.047406
v -0.011769 0.022177 -0.044516
v -0.013656 0.020414 -0.045576
v -0.015674 0.020684 -0.044272
v -0.014456 0.019933 -0.048208
v -0.110752 0.071424 -0.005894
v -0.109597 0.065969 -0.008378
v -0.105796 0.069142 -0.003157
v -0.111297 0.068422 -0.007179
v -0.109631 0.068469 -0.004914
v -0.107793 0.066809 -0.005243
v -0.108610 0.070666 -0.003487
v -0.015903 0.021551 -0.056021
v -0.019567 0.019630 -0.051783
v -0.021347 0.022231 -0.058251
v -0.017047 0.019668 -0.053634
v -0.018604 0.019907 -0.055939
v -0.020896 0.020149 -0.055211
v -0.018305 0.021507 -0.058207
v -0.112459 0.071249 -0.009469
v -0.111376 0.068570 -0.014846
v -0.109597 0.065969 -0.008378
v -0.112949 0.070221 -0.012577
v -0.112401 0.068185 -0.010717
v -0.110926 0.066488 -0.011806
v -0.111691 0.068382 -0.008003
v -0.016043 0.027930 -0.062609
v -0.021421 0.025608 -0.061738
v -0.019839 0.032025 -0.064583
v -0.018397 0.025693 -0.062530
v -0.018779 0.027901 -0.064195
v -0.021081 0.028588 -0.063927
v -0.017279 0.030230 -0.064542
v -0.112520 0.074007 -0.012317
v -0.109795 0.074987 -0.017691
v -0.111376 0.068570 -0.014846
v -0.111845 0.075395 -0.015246
v -0.112500 0.072662 -0.015340
v -0.111037 0.071550 -0.017034
v -0.112963 0.070857 -0.013234
v -0.012270 0.036290 -0.062555
v -0.017842 0.036449 -0.064555
v -0.014091 0.041850 -0.061635
v -0.014803 0.035716 -0.064507
v -0.014051 0.038378 -0.064128
v -0.016090 0.039647 -0.063856
v -0.012150 0.039534 -0.062442
v -0.110888 0.077621 -0.012294
v -0.106043 0.080387 -0.014770
v -0.109795 0.074987 -0.017691
v -0.108816 0.080047 -0.013175
v -0.109852 0.078528 -0.015303
v -0.108043 0.078185 -0.016992
v -0.111469 0.076229 -0.015241
v -0.007426 0.040335 -0.055901
v -0.011526 0.043991 -0.058112
v -0.008429 0.044308 -0.051625
v -0.008971 0.042189 -0.058075
v -0.007979 0.043447 -0.055788
v -0.009681 0.044998 -0.055052
v -0.006781 0.042413 -0.053488
v -0.108794 0.079370 -0.009417
v -0.102946 0.080705 -0.008284
v -0.106043 0.080387 -0.014770
v -0.106143 0.080675 -0.007925
v -0.106452 0.081367 -0.010633
v -0.104198 0.081395 -0.011710
v -0.108333 0.080451 -0.012512
v -0.005157 0.037019 -0.047656
v -0.007229 0.042553 -0.047261
v -0.007119 0.037549 -0.042093
v -0.005293 0.040237 -0.048078
v -0.005136 0.039292 -0.045456
v -0.006680 0.040612 -0.044145
v -0.005215 0.036699 -0.044423
v -0.107813 0.077936 -0.005852
v -0.102837 0.075700 -0.003115
v -0.102946 0.080705 -0.008284
v -0.105839 0.076806 -0.003448
v -0.104860 0.079040 -0.004847
v -0.102397 0.078763 -0.005167
v -0.105917 0.080344 -0.007102
vn -0.0504 -0.9832 -0.1755
vn -0.4924 -0.8506 -0.1843
vn 0.1654 -0.9806 -0.1056
vn 0.1655 -0.9787 0.1212
vn -0.0501 -0.9802 0.1915
vn -0.8081 -0.5397 -0.2359
vn -0.0178 -0.5371 -0.8434
vn 0.8041 -0.5247 -0.2794
vn 0.5217 -0.5196 0.6766
vn -0.4747 -0.5289 0.7035
vn -0.7874 -0.2327 -0.5709
vn 0.3028 -0.2252 -0.9261
vn 0.9774 -0.2112 0.0010
vn 0.3042 -0.2102 0.9291
vn -0.7865 -0.2234 0.5757
vn -0.3006 0.8379 -0.4556
vn 0.3284 0.8441 -0.4238
vn 0.4924 0.8506 0.1843
vn -0.0352 0.8484 0.5283
vn -0.5253 0.8405 0.1327
vn -0.1654 0.9806 0.1056
vn -0.3268 0.9182 0.2240
vn -0.2999 0.8451 0.4425
vn 0.0504 0.9832 0.1755
vn 0.1130 0.9235 0.3665
vn 0.3290 0.8509 0.4096
vn 0.1836 0.9830 -0.0081
vn 0.3845 0.9231 -0.0077
vn 0.4922 0.8475 -0.1987
vn 0.0501 0.9802 -0.1915
vn 0.1125 0.9175 -0.3816
vn -0.0360 0.8397 -0.5418
vn -0.1655 0.9787 -0.1212
vn -0.3271 0.9144 -0.2384
vn -0.5255 0.8382 -0.1456
vn -0.8041 0.5247 0.2794
vn -0.7684 0.3200 0.5543
vn -0.5208 0.5305 0.6688
vn 0.0178 0.5371 0.8434
vn 0.2900 0.3328 0.8973
vn 0.4757 0.5402 0.6942
vn 0.8081 0.5397 0.2359
vn 0.9433 0.3318 -0.0034
vn 0.8078 0.5358 -0.2457
vn 0.4747 0.5289 -0.7035
vn 0.2887 0.3183 -0.9030
vn 0.0166 0.5234 -0.8519
vn -0.5217 0.5196 -0.6766
vn -0.7692 0.3110 -0.5583
vn -0.8045 0.5201 -0.2867
vn -0.3028 0.2252 0.9261
vn -0.2887 -0.3183 0.9030
vn -0.0166 -0.5234 0.8519
vn 0.7874 0.2327 0.5709
vn 0.7692 -0.3110 0.5583
vn 0.8045 -0.5201 0.2867
vn 0.7865 0.2234 -0.5757
vn 0.7684 -0.3200 -0.5543
vn 0.5208 -0.5305 -0.6688
vn -0.3042 0.2102 -0.9291
vn -0.2900 -0.3328 -0.8973
vn -0.4757 -0.5402 -0.6942
vn -0.9774 0.2112 -0.0010
vn -0.9433 -0.3318 0.0034
vn -0.8078 -0.5358 0.2457
vn -0.3284 -0.8441 0.4238
vn -0.1125 -0.9175 0.3816
vn 0.0360 -0.8397 0.5418
vn 0.3006 -0.8379 0.4556
vn 0.3271 -0.9144 0.2384
vn 0.5255 -0.8382 0.1456
vn 0.5253 -0.8405 -0.1327
vn 0.3268 -0.9182 -0.2240
vn 0.2999 -0.8451 -0.4425
vn -0.4922 -0.8475 0.1987
vn -0.3845 -0.9231 0.0077
vn -0.1836 -0.9830 0.0081
vn 0.0352 -0.8484 -0.5283
vn -0.1130 -0.9235 -0.3665
vn -0.3290 -0.8509 -0.4096
vn 0.0664 -0.9769 -0.2032
vn -0.1387 -0.5884 -0.7966
vn 0.5463 -0.5503 -0.6314
vn -0.0314 0.4170 -0.9084
vn 0.0969 0.9439 -0.3156
vn 0.6040 0.5605 -0.5665
vn 0.1841 -0.9627 0.1982
vn 0.7585 -0.6516 -0.0028
vn 0.5746 -0.4533 0.6814
vn 0.3010 0.9523 0.0497
vn 0.5348 0.5619 0.6311
vn 0.8903 0.4543 0.0312
vn -0.2786 -0.9532 -0.1177
vn -0.8188 -0.5715 0.0541
vn -0.6192 -0.4501 -0.6435
vn -0.2062 0.9698 -0.1304
vn -0.4796 0.5569 -0.6781
vn -0.8415 0.5353 -0.0727
vn -0.1612 -0.9452 0.2839
vn 0.0835 -0.5304 0.8436
vn -0.5951 -0.4393 0.6730
vn -0.0024 0.9720 0.2351
vn -0.5437 0.6625 0.5152
vn 0.0759 0.4864 0.8704
vn 0.1386 -0.9897 -0.0370
vn 0.6778 -0.6840 -0.2696
vn -0.0602 -0.0389 -0.9974
vn 0.6572 -0.0639 -0.7510
vn 0.2350 0.9647 -0.1191
vn 0.7406 0.5892 -0.3230
vn 0.6694 -0.0018 0.7429
vn 0.9971 -0.0467 0.0598
vn 0.0441 -0.9646 0.2599
vn 0.2883 -0.5567 0.7791
vn 0.1397 0.9740 0.1785
vn 0.3448 0.5889 0.7310
vn -0.6572 0.0639 0.7510
vn 0.0602 0.0389 0.9974
vn -0.2350 -0.9647 0.1191
vn -0.7406 -0.5892 0.3230
vn -0.1386 0.9897 0.0370
vn -0.6778 0.6840 0.2696
vn -0.6694 0.0018 -0.7429
vn -0.9971 0.0467 -0.0598
vn -0.1397 -0.9740 -0.1785
vn -0.3448 -0.5889 -0.7310
vn -0.0441 0.9646 -0.2599
vn -0.2883 0.5567 -0.7791
vn -0.0492 -0.9979 0.0419
vn 0.9210 -0.0616 -0.3848
vn -0.3866 -0.0197 -0.9221
vn 0.0492 0.9979 -0.0419
vn 0.3866 0.0197 0.9221
vn -0.9210 0.0616 0.3848
vn 0.2238 -0.9722 -0.0684
vn 0.5762 -0.6358 -0.5136
vn 0.8394 -0.5229 0.1483
vn 0.7347 0.5269 -0.4273
vn 0.2759 0.9611 -0.0115
vn 0.7974 0.5454 0.2584
vn 0.0126 -0.9828 0.1844
vn 0.5381 -0.6456 0.5418
vn -0.0911 -0.5752 0.8129
vn 0.1511 0.9441 0.2930
vn -0.1128 0.6010 0.7913
vn 0.5786 0.4164 0.7013
vn -0.0857 -0.9487 -0.3044
vn -0.5827 -0.5313 -0.6150
vn 0.0513 -0.4755 -0.8782
vn -0.0783 0.9817 -0.1733
vn 0.1614 0.6840 -0.7114
vn -0.5422 0.5424 -0.6417
vn -0.2967 -0.9536 -0.0513
vn -0.6248 -0.6492 0.4337
vn -0.8757 -0.4359 -0.2079
vn -0.2028 0.9703 0.1316
vn -0.7528 0.6316 -0.1852
vn -0.6950 0.5238 0.4926
vn 0.1526 -0.9869 0.0530
vn 0.6600 -0.6529 0.3717
vn 0.8410 0.0018 -0.5411
vn 0.9779 -0.0496 0.2030
vn 0.2262 0.9584 0.1739
vn 0.7055 0.5504 0.4465
vn -0.0838 -0.0587 0.9948
vn 0.6391 -0.0718 0.7658
vn -0.1336 -0.9860 0.0994
vn -0.4084 -0.6924 0.5948
vn -0.0594 0.9734 0.2212
vn -0.3579 0.6423 0.6778
vn -0.9779 0.0496 -0.2030
vn -0.8410 -0.0018 0.5411
vn -0.2262 -0.9584 -0.1739
vn -0.7055 -0.5504 -0.4465
vn -0.1526 0.9869 -0.0530
vn -0.6599 0.6529 -0.3717
vn 0.0838 0.0587 -0.9948
vn -0.6391 0.0718 -0.7658
vn 0.0594 -0.9734 -0.2212
vn 0.3578 -0.6423 -0.6778
vn 0.1336 0.9860 -0.0994
vn 0.4084 0.6924 -0.5948
vn -0.0377 -0.9974 -0.0620
vn 0.8560 -0.0643 0.5129
vn 0.5155 0.0337 -0.8562
vn 0.0377 0.9974 0.0620
vn -0.5155 -0.0337 0.8562
vn -0.8560 0.0643 -0.5129
vn -0.3051 0.4952 0.8134
vn -0.1262 -0.9241 0.3608
vn -0.1667 0.8868 0.4311
vn -0.0692 0.9838 0.1655
vn -0.7632 0.4869 0.4248
vn -0.3159 -0.9275 0.1998
vn -0.4168 0.8823 0.2189
vn -0.1728 0.9819 0.0776
vn -0.8643 0.4743 -0.1674
vn -0.3578 -0.9327 -0.0455
vn -0.4720 0.8754 -0.1044
vn -0.1956 0.9791 -0.0563
vn -0.5610 0.4634 -0.6860
vn -0.2321 -0.9372 -0.2603
vn -0.3064 0.8695 -0.3875
vn -0.1270 0.9766 -0.1736
vn 0.0048 0.4593 -0.8883
vn 0.0022 -0.9389 -0.3441
vn 0.0025 0.8672 -0.4980
vn 0.0009 0.9757 -0.2193
vn 0.5683 0.4638 -0.6797
vn 0.2356 -0.9371 -0.2577
vn 0.3101 0.8696 -0.3841
vn 0.1283 0.9767 -0.1721
vn 0.8658 0.4749 -0.1578
vn 0.3588 -0.9325 -0.0415
vn 0.4726 0.8757 -0.0992
vn 0.1956 0.9792 -0.0541
vn 0.7582 0.4873 0.4332
vn 0.3142 -0.9273 0.2033
vn 0.4138 0.8825 0.2235
vn 0.1713 0.9820 0.0795
vn 0.2957 0.4954 0.8168
vn 0.1227 -0.9240 0.3622
vn 0.1613 0.8869 0.4329
vn 0.0667 0.9838 0.1663
vn 0.0002 -0.9998 0.0211
vn -0.2239 0.7773 0.5879
vn 0.2168 0.7775 0.5904
vn -0.0002 0.9998 -0.0211
vn -0.5599 0.7712 0.3028
vn -0.6340 0.7620 -0.1316
vn -0.4115 0.7540 -0.5119
vn 0.0035 0.7510 -0.6603
vn 0.4168 0.7543 -0.5073
vn 0.6350 0.7624 -0.1245
vn 0.5560 0.7716 0.3090
vn 0.2718 -0.9045 -0.3286
vn -0.0520 -0.4060 -0.9124
vn 0.5461 -0.4589 -0.7008
vn -0.1455 0.2648 -0.9533
vn -0.1527 0.8983 -0.4121
vn 0.3339 0.6177 -0.7120
vn 0.4131 -0.8477 0.3327
vn 0.8527 -0.3875 0.3504
vn 0.4930 -0.1974 0.8474
vn 0.0757 0.9719 0.2227
vn 0.3124 0.4566 0.8330
vn 0.6404 0.6891 0.3393
vn -0.0591 -0.9476 -0.3141
vn -0.6403 -0.6891 -0.3393
vn -0.3778 -0.3867 -0.8413
vn -0.4381 0.8658 -0.2418
vn -0.4591 0.2871 -0.8407
vn -0.8527 0.3875 -0.3504
vn 0.0906 -0.9332 0.3477
vn 0.1987 -0.3376 0.9201
vn -0.3338 -0.6177 0.7120
vn -0.2014 0.8970 0.3935
vn -0.5462 0.4588 0.7008
vn 0.0303 0.3192 0.9472
vn 0.3718 -0.9272 -0.0455
vn 0.8366 -0.5062 -0.2096
vn -0.0920 -0.0285 -0.9953
vn 0.5263 0.0950 -0.8450
vn -0.0078 0.9978 -0.0655
vn 0.5827 0.7815 -0.2229
vn 0.4560 0.0991 0.8844
vn 0.8929 0.1804 0.4125
vn 0.2856 -0.8815 0.3760
vn 0.3321 -0.3154 0.8890
vn -0.0718 0.9313 0.3572
vn 0.1840 0.4355 0.8812
vn -0.5263 -0.0950 0.8450
vn 0.0920 0.0285 0.9953
vn 0.0078 -0.9978 0.0654
vn -0.5827 -0.7815 0.2229
vn -0.3719 0.9272 0.0455
vn -0.8366 0.5062 0.2096
vn -0.4560 -0.0991 -0.8844
vn -0.8929 -0.1804 -0.4125
vn 0.0718 -0.9312 -0.3572
vn -0.1840 -0.4355 -0.8812
vn -0.2856 0.8815 -0.3760
vn -0.3321 0.3154 -0.8890
vn 0.1935 -0.9811 0.0102
vn 0.9405 0.1825 -0.2866
vn -0.2793 -0.0650 -0.9580
vn -0.1935 0.9811 -0.0102
vn 0.2793 0.0650 0.9580
vn -0.9405 -0.1825 0.2866
vn 0.2574 -0.9655 0.0391
vn 0.6832 -0.6622 -0.3076
vn 0.8623 -0.4329 0.2627
vn 0.8333 0.4678 -0.2946
vn 0.4540 0.8909 -0.0147
vn 0.9130 0.2757 0.3006
vn 0.0452 -0.9601 0.2760
vn 0.6832 -0.4971 0.5350
vn 0.1165 -0.5995 0.7919
vn 0.3794 0.8772 0.2942
vn 0.2665 0.5305 0.8047
vn 0.7767 0.2056 0.5953
vn -0.2932 -0.9087 -0.2973
vn -0.7876 -0.2896 -0.5439
vn -0.2665 -0.5305 -0.8047
vn -0.1367 0.9521 -0.2734
vn -0.1164 0.5995 -0.7919
vn -0.6945 0.4143 -0.5883
vn -0.5002 -0.8638 -0.0600
vn -0.8333 -0.4678 0.2947
vn -0.9446 -0.1870 -0.2698
vn -0.2060 0.9779 0.0359
vn -0.8086 0.5110 -0.2917
vn -0.6833 0.6622 0.3075
vn 0.1987 -0.9673 0.1577
vn 0.7530 -0.5088 0.4172
vn 0.9229 -0.1183 -0.3665
vn 0.9511 -0.1294 0.2803
vn 0.4436 0.8782 0.1787
vn 0.8584 0.2853 0.4263
vn 0.2330 -0.0420 0.9716
vn 0.7744 -0.1099 0.6230
vn -0.2132 -0.9652 0.1516
vn -0.4258 -0.6341 0.6455
vn 0.0455 0.9837 0.1738
vn -0.2476 0.7086 0.6607
vn -0.9511 0.1294 -0.2803
vn -0.9229 0.1183 0.3665
vn -0.4436 -0.8782 -0.1787
vn -0.8584 -0.2854 -0.4263
vn -0.1988 0.9673 -0.1576
vn -0.7530 0.5088 -0.4172
vn -0.2330 0.0420 -0.9716
vn -0.7744 0.1099 -0.6230
vn -0.0455 -0.9837 -0.1737
vn 0.2476 -0.7086 -0.6608
vn 0.2132 0.9652 -0.1515
vn 0.4259 0.6340 -0.6455
vn -0.1316 -0.9912 -0.0113
vn 0.8793 -0.1219 0.4603
vn 0.4577 -0.0506 -0.8877
vn 0.1316 0.9912 0.0113
vn -0.4577 0.0506 0.8877
vn -0.8793 0.1219 -0.4603
vn 0.8446 -0.1052 -0.5250
vn 0.6206 0.2164 -0.7537
vn 0.5942 0.6853 -0.4209
vn -0.5992 0.7959 -0.0867
vn -0.7491 0.5795 0.3211
vn -0.1402 0.9900 0.0131
vn 0.9038 -0.1724 -0.3916
vn 0.7451 0.6012 -0.2888
vn 0.9767 0.1968 -0.0853
vn -0.6459 0.6278 0.4344
vn -0.2431 0.7763 0.5817
vn 0.0429 0.9905 0.1305
vn 0.6702 -0.5752 -0.4690
vn 0.0651 -0.9859 -0.1541
vn 0.2432 -0.7762 -0.5817
vn -0.9042 0.1085 0.4132
vn -0.9767 -0.1968 0.0853
vn -0.6974 -0.6796 0.2274
vn 0.7055 -0.6310 -0.3226
vn 0.5993 -0.7958 0.0867
vn 0.0601 -0.9962 0.0630
vn -0.8250 0.1681 0.5396
vn -0.6699 -0.6054 0.4298
vn -0.6206 -0.2165 0.7537
vn 0.8762 -0.1071 -0.4700
vn 0.7098 0.6052 -0.3604
vn 0.0162 0.7693 -0.6387
vn 0.2919 0.9191 -0.2645
vn -0.6771 0.6306 0.3793
vn -0.1029 0.9912 0.0839
vn 0.5575 0.7396 0.3772
vn 0.4047 0.9129 -0.0529
vn 0.8473 -0.3855 -0.3653
vn 0.9348 -0.3553 0.0008
vn -0.7665 0.3810 0.5171
vn -0.5123 0.3320 0.7920
vn -0.2919 -0.9191 0.2646
vn -0.0162 -0.7693 0.6386
vn 0.6771 -0.6306 -0.3793
vn 0.1027 -0.9912 -0.0838
vn -0.8761 0.1071 0.4700
vn -0.7098 -0.6052 0.3605
vn -0.5575 -0.7395 -0.3772
vn -0.4047 -0.9129 0.0529
vn 0.7665 -0.3810 -0.5171
vn 0.5123 -0.3320 -0.7920
vn -0.8473 0.3855 0.3654
vn -0.9348 0.3553 -0.0008
vn 0.8099 -0.3847 -0.4428
vn 0.3508 0.9227 -0.1599
vn -0.4701 0.0259 -0.8822
vn -0.8099 0.3847 0.4428
vn 0.4701 -0.0259 0.8822
vn -0.3508 -0.9227 0.1599
vn -0.5331 -0.7535 -0.3848
vn -0.0983 -0.8634 -0.4948
vn 0.1812 -0.9834 -0.0088
vn 0.9862 -0.0860 0.1417
vn 0.8585 0.3124 0.4068
vn 0.7853 -0.4895 0.3791
vn -0.6512 -0.7054 -0.2799
vn -0.0025 -0.9950 0.1003
vn -0.4889 -0.8570 0.1627
vn 0.7987 0.2498 0.5474
vn 0.5956 -0.0797 0.7993
vn 0.6397 -0.5737 0.5115
vn -0.7706 -0.3138 -0.5547
vn -0.7043 0.4882 -0.5153
vn -0.5956 0.0797 -0.7993
vn 0.5994 0.7524 0.2733
vn 0.4888 0.8571 -0.1627
vn -0.0706 0.9816 -0.1774
vn -0.8650 -0.2487 -0.4358
vn -0.9862 0.0860 -0.1417
vn -0.7504 0.5755 -0.3253
vn 0.5633 0.7068 0.4278
vn -0.0781 0.9963 0.0360
vn 0.0982 0.8634 0.4948
vn -0.5675 -0.7544 -0.3298
vn 0.0383 -0.9987 0.0322
vn 0.6591 -0.7049 -0.2621
vn 0.5054 -0.8456 0.1717
vn 0.8335 0.2498 0.4927
vn 0.7473 -0.4903 0.4485
vn 0.0792 -0.6954 0.7142
vn 0.3854 -0.8437 0.3737
vn -0.7758 -0.5230 -0.3529
vn -0.8862 -0.4632 0.0126
vn 0.6855 0.5245 0.5049
vn 0.4169 0.4708 0.7775
vn -0.5054 0.8456 -0.1716
vn -0.6591 0.7049 0.2621
vn -0.8336 -0.2497 -0.4927
vn -0.7473 0.4903 -0.4485
vn 0.5674 0.7545 0.3297
vn -0.0381 0.9988 -0.0322
vn -0.0792 0.6954 -0.7142
vn -0.3854 0.8437 -0.3737
vn -0.6855 -0.5245 -0.5049
vn -0.4169 -0.4708 -0.7775
vn 0.7758 0.5230 0.3529
vn 0.8862 0.4632 -0.0126
vn -0.7336 -0.5258 -0.4306
vn 0.4485 -0.8506 0.2746
vn 0.5106 -0.0083 -0.8598
vn 0.7336 0.5258 0.4306
vn -0.5106 0.0083 0.8598
vn -0.4485 0.8506 -0.2746
vn 0.8796 -0.4454 0.1669
vn 0.7362 -0.0272 0.6762
vn 0.4741 -0.4777 0.7396
vn -0.5307 0.2796 0.8001
vn -0.1900 -0.2188 0.9571
vn 0.0872 0.2054 0.9748
vn 0.6337 -0.7719 -0.0517
vn 0.3689 -0.7361 0.5675
vn 0.0277 -0.9695 0.2437
vn -0.7561 -0.0712 0.6506
vn -0.6079 -0.6466 0.4607
vn -0.2919 -0.4864 0.8235
vn 0.4470 -0.7576 -0.4757
vn -0.0408 -0.9963 -0.0757
vn -0.2516 -0.8154 -0.5213
vn -0.9577 -0.1238 0.2596
vn -0.8503 -0.4610 -0.2541
vn -0.6912 -0.7044 0.1614
vn 0.4601 -0.4134 -0.7858
vn -0.1843 -0.6119 -0.7692
vn -0.1536 -0.1316 -0.9793
vn -0.9838 0.1615 -0.0784
vn -0.7345 0.1983 -0.6490
vn -0.8100 -0.2843 -0.5129
vn 0.6631 0.0016 -0.7485
vn 0.0465 0.1277 -0.9907
vn 0.2480 0.5670 -0.7855
vn -0.8146 0.5698 -0.1088
vn -0.3478 0.8348 -0.4267
vn -0.5588 0.4575 -0.6917
vn 0.9032 0.1748 -0.3919
vn 0.4777 0.6655 -0.5734
vn 0.6507 0.7545 -0.0857
vn -0.5775 0.7937 0.1911
vn 0.0186 0.9692 0.2454
vn -0.1268 0.9624 -0.2403
vn 0.9996 -0.0241 0.0155
vn 0.7847 0.5966 0.1684
vn 0.7514 0.2895 0.5930
vn -0.4512 0.6646 0.5956
vn 0.0888 0.5003 0.8613
vn 0.1607 0.8502 0.5013
vn 0.4582 -0.6476 0.6088
vn 0.8234 -0.5673 -0.0087
vn -0.2720 -0.3047 0.9128
vn -0.7196 0.1312 0.6819
vn 0.3965 0.0861 0.9140
vn 0.1934 -0.3639 0.9111
vn -0.2734 -0.8782 0.3926
vn -0.0126 -0.6604 0.7508
vn 0.0376 -0.9988 0.0309
vn 0.6349 -0.7247 -0.2677
vn -0.6780 -0.6436 0.3552
vn -0.9018 -0.0210 0.4316
vn -0.5655 -0.7171 -0.4074
vn -0.4434 -0.8956 0.0364
vn -0.1594 -0.7109 -0.6850
vn 0.5467 -0.5957 -0.5884
vn -0.8681 -0.3658 -0.3357
vn -0.9872 0.1038 0.1215
vn -0.4630 -0.0020 -0.8863
vn -0.5715 -0.4424 -0.6911
vn 0.0156 -0.0007 -0.9999
vn 0.6251 -0.2775 -0.7295
vn -0.6991 0.3196 -0.6396
vn -0.9113 0.4114 -0.0149
vn -0.0431 0.7285 -0.6836
vn -0.3005 0.3580 -0.8840
vn 0.4309 0.5971 -0.6766
vn 0.8112 -0.0096 -0.5847
vn -0.2984 0.8964 -0.3276
vn -0.7315 0.6703 0.1251
vn 0.3781 0.9245 0.0481
vn 0.1656 0.9027 -0.3970
vn 0.7737 0.6322 0.0414
vn 0.9648 0.0061 -0.2630
vn 0.0324 0.9304 0.3652
vn -0.5830 0.6855 0.4361
vn 0.4833 0.4383 0.7578
vn 0.4758 0.7817 0.4032
vn 0.7859 0.0783 0.6134
vn 0.9702 -0.2421 -0.0067
vn 0.0441 0.3958 0.9173
vn -0.5777 0.4456 0.6839
vn 0.8426 -0.3778 -0.3838
vn 0.0960 -0.5243 0.8461
vn 0.4526 0.2658 0.8512
vn -0.8426 0.3778 0.3838
vn -0.3619 -0.9066 0.2171
vn -0.5763 -0.5932 -0.5621
vn -0.3858 0.1799 -0.9049
vn 0.0662 0.8305 -0.5530
vn 0.4393 0.8688 0.2285
vn 0.0024 -0.9720 -0.2351
vn -0.0760 -0.4864 -0.8704
vn 0.5437 -0.6626 -0.5152
vn -0.0835 0.5304 -0.8436
vn 0.1612 0.9452 -0.2839
vn 0.5951 0.4392 -0.6730
vn 0.2062 -0.9698 0.1304
vn 0.8415 -0.5353 0.0727
vn 0.4796 -0.5569 0.6781
vn 0.2786 0.9532 0.1177
vn 0.6192 0.4501 0.6435
vn 0.8188 0.5715 -0.0541
vn -0.3010 -0.9523 -0.0497
vn -0.8903 -0.4543 -0.0312
vn -0.5348 -0.5619 -0.6311
vn -0.1841 0.9627 -0.1982
vn -0.5747 0.4533 -0.6814
vn -0.7585 0.6516 0.0028
vn -0.0969 -0.9439 0.3156
vn 0.0314 -0.4170 0.9084
vn -0.6040 -0.5605 0.5665
vn -0.0664 0.9769 0.2032
vn -0.5463 0.5503 0.6314
vn 0.1386 0.5884 0.7966
vn 0.2028 -0.9703 -0.1315
vn 0.6950 -0.5238 -0.4926
vn 0.7529 -0.6316 0.1852
vn 0.6248 0.6492 -0.4337
vn 0.2967 0.9536 0.0513
vn 0.8757 0.4359 0.2079
vn 0.0783 -0.9818 0.1733
vn 0.5423 -0.5424 0.6417
vn -0.1614 -0.6840 0.7114
vn 0.0857 0.9487 0.3044
vn -0.0513 0.4755 0.8782
vn 0.5827 0.5313 0.6150
vn -0.1511 -0.9441 -0.2930
vn -0.5786 -0.4164 -0.7013
vn 0.1128 -0.6010 -0.7913
vn -0.0126 0.9828 -0.1844
vn 0.0911 0.5752 -0.8129
vn -0.5381 0.6456 -0.5418
vn -0.2759 -0.9611 0.0115
vn -0.7347 -0.5269 0.4273
vn -0.7974 -0.5454 -0.2584
vn -0.2238 0.9722 0.0684
vn -0.8394 0.5229 -0.1482
vn -0.5762 0.6358 0.5136
vn 0.9779 -0.0496 0.2031
vn -0.3578 0.6423 0.6778
vn -0.9779 0.0496 -0.2031
vn -0.1525 0.9869 -0.0530
vn -0.6600 0.6529 -0.3717
vn 0.3579 -0.6423 -0.6778
vn -0.5609 0.4634 -0.6860
vn 0.3143 -0.9273 0.2033
vn 0.2014 -0.8970 -0.3935
vn -0.0303 -0.3193 -0.9472
vn 0.6731 -0.3443 -0.6545
vn -0.1987 0.3376 -0.9201
vn -0.0906 0.9332 -0.3477
vn 0.4946 0.5609 -0.6639
vn 0.4381 -0.8658 0.2418
vn 0.9309 -0.2843 0.2295
vn 0.4591 -0.2871 0.8407
vn 0.0591 0.9476 0.3141
vn 0.3778 0.3866 0.8413
vn 0.7524 0.6209 0.2201
vn -0.0757 -0.9719 -0.2227
vn -0.7524 -0.6209 -0.2200
vn -0.3125 -0.4566 -0.8330
vn -0.4131 0.8477 -0.3327
vn -0.4930 0.1974 -0.8473
vn -0.9308 0.2843 -0.2295
vn 0.1526 -0.8983 0.4121
vn 0.1455 -0.2649 0.9533
vn -0.4947 -0.5609 0.6638
vn -0.2718 0.9045 0.3286
vn -0.6730 0.3444 0.6545
vn 0.0520 0.4060 0.9124
vn 0.5826 0.7816 -0.2229
vn -0.0719 0.9313 0.3572
vn 0.0078 -0.9978 0.0655
vn -0.5826 -0.7816 0.2229
vn -0.3718 0.9272 0.0455
vn -0.4561 -0.0991 -0.8844
vn 0.0718 -0.9313 -0.3572
vn 0.2060 -0.9779 -0.0359
vn 0.6803 -0.5712 -0.4592
vn 0.8086 -0.5109 0.2917
vn 0.8071 0.3841 -0.4484
vn 0.5002 0.8638 0.0599
vn 0.9446 0.1870 0.2698
vn 0.1366 -0.9521 0.2734
vn 0.6945 -0.4143 0.5883
vn -0.0043 -0.4955 0.8686
vn 0.2932 0.9087 0.2973
vn 0.1225 0.4598 0.8795
vn 0.7876 0.2896 0.5439
vn -0.3794 -0.8772 -0.2942
vn -0.7767 -0.2056 -0.5953
vn -0.1225 -0.4598 -0.8795
vn -0.0452 0.9601 -0.2760
vn 0.0043 0.4954 -0.8686
vn -0.6832 0.4971 -0.5350
vn -0.4541 -0.8908 0.0147
vn -0.8071 -0.3841 0.4483
vn -0.9130 -0.2757 -0.3006
vn -0.2574 0.9655 -0.0391
vn -0.8623 0.4329 -0.2627
vn -0.6803 0.5712 0.4592
vn 0.1987 -0.9673 0.1576
vn 0.7530 -0.5088 0.4173
vn 0.4438 0.8782 0.1787
vn 0.8583 0.2854 0.4264
vn -0.4258 -0.6340 0.6455
vn 0.0455 0.9837 0.1737
vn -0.2476 0.7086 0.6608
vn -0.4437 -0.8782 -0.1787
vn -0.1988 0.9673 -0.1577
vn -0.7530 0.5089 -0.4173
vn 0.2132 0.9652 -0.1516
vn 0.4258 0.6341 -0.6455
vn 0.8250 -0.1681 -0.5396
vn 0.5076 0.2058 -0.8367
vn 0.6699 0.6054 -0.4298
vn -0.6302 0.7462 -0.2145
vn -0.7055 0.6310 0.3226
vn -0.0603 0.9962 -0.0631
vn 0.9042 -0.1085 -0.4131
vn 0.6974 0.6797 -0.2274
vn 0.9822 0.1797 0.0541
vn -0.6702 0.5752 0.4690
vn -0.1556 0.7201 0.6762
vn -0.0649 0.9859 0.1541
vn 0.6459 -0.6278 -0.4345
vn -0.0432 -0.9905 -0.1305
vn 0.1555 -0.7201 -0.6762
vn -0.9038 0.1724 0.3916
vn -0.9822 -0.1797 -0.0540
vn -0.7451 -0.6012 0.2888
vn 0.7491 -0.5795 -0.3211
vn 0.6303 -0.7461 0.2145
vn 0.1402 -0.9900 -0.0131
vn -0.8446 0.1052 0.5250
vn -0.5942 -0.6854 0.4209
vn -0.5076 -0.2058 0.8367
vn 0.8761 -0.1071 -0.4700
vn 0.7098 0.6052 -0.3605
vn -0.6771 0.6307 0.3793
vn -0.1027 0.9912 0.0838
vn 0.5575 0.7395 0.3772
vn -0.7665 0.3810 0.5170
vn -0.0161 -0.7693 0.6387
vn 0.6771 -0.6307 -0.3793
vn 0.1029 -0.9911 -0.0839
vn -0.8762 0.1071 0.4700
vn -0.7097 -0.6052 0.3605
vn 0.7665 -0.3810 -0.5170
vn -0.8473 0.3855 0.3653
vn -0.5634 -0.7068 -0.4278
vn -0.0135 -0.8056 -0.5923
vn 0.0783 -0.9963 -0.0360
vn 0.9967 -0.0814 0.0007
vn 0.8650 0.2487 0.4358
vn 0.7504 -0.5754 0.3252
vn -0.5994 -0.7523 -0.2733
vn 0.0706 -0.9816 0.1774
vn -0.5335 -0.7971 0.2829
vn 0.7706 0.3138 0.5547
vn 0.4768 -0.0730 0.8760
vn 0.7044 -0.4881 0.5153
vn -0.7987 -0.2498 -0.5474
vn -0.6398 0.5736 -0.5115
vn -0.4768 0.0729 -0.8760
vn 0.6513 0.7054 0.2799
vn 0.5335 0.7971 -0.2828
vn 0.0027 0.9950 -0.1003
vn -0.8584 -0.3124 -0.4068
vn -0.9967 0.0814 -0.0007
vn -0.7853 0.4895 -0.3790
vn 0.5332 0.7534 0.3848
vn -0.1813 0.9834 0.0088
vn 0.0135 0.8056 0.5923
vn -0.5674 -0.7545 -0.3297
vn 0.0379 -0.9988 0.0322
vn 0.5054 -0.8456 0.1716
vn 0.8336 0.2498 0.4926
vn 0.7472 -0.4903 0.4485
vn -0.5054 0.8456 -0.1717
vn -0.8336 -0.2498 -0.4927
vn -0.7472 0.4904 -0.4486
vn 0.5676 0.7544 0.3297
vn -0.0379 0.9988 -0.0322
vn -0.0793 0.6954 -0.7142
vn 0.9151 -0.3667 0.1674
vn 0.6683 -0.0474 0.7424
vn 0.5042 -0.5413 0.6729
vn -0.5646 0.2044 0.7996
vn -0.1010 -0.2117 0.9721
vn 0.0338 0.2771 0.9603
vn 0.6793 -0.7338 0.0110
vn 0.2771 -0.7612 0.5863
vn 0.0709 -0.9848 0.1583
vn -0.7997 -0.1076 0.5907
vn -0.5336 -0.6882 0.4915
vn -0.3206 -0.4067 0.8555
vn 0.4683 -0.7888 -0.3981
vn -0.1349 -0.9861 -0.0969
vn -0.1803 -0.7924 -0.5828
vn -0.9782 -0.0940 0.1854
vn -0.8044 -0.5390 -0.2499
vn -0.7157 -0.6577 0.2350
vn 0.4411 -0.4904 -0.7516
vn -0.2574 -0.5527 -0.7926
vn -0.0603 -0.1088 -0.9922
vn -0.9656 0.2351 -0.1110
vn -0.7094 0.1238 -0.6939
vn -0.8541 -0.2869 -0.4339
vn 0.6181 -0.0632 -0.7835
vn 0.0018 0.2127 -0.9771
vn 0.3406 0.5511 -0.7618
vn -0.7715 0.6317 -0.0754
vn -0.3202 0.8009 -0.5060
vn -0.6315 0.4265 -0.6475
vn 0.8661 0.1710 -0.4697
vn 0.4475 0.7336 -0.5114
vn 0.7205 0.6904 -0.0649
vn -0.5420 0.7973 0.2655
vn 0.0701 0.9826 0.1722
vn -0.2156 0.9452 -0.2451
vn 0.9983 0.0359 -0.0465
vn 0.7441 0.6179 0.2538
vn 0.7933 0.2043 0.5736
vn -0.4499 0.6072 0.6549
vn 0.1677 0.5319 0.8300
vn 0.0805 0.8787 0.4705
vn 0.6690 0.7433 -0.0000
vn -0.0000 1.0000 -0.0000
vn -0.9018 -0.0209 0.4316
vn 0.9923 0.1240 -0.0000
vn -1.0000 -0.0000 -0.0000
vn 1.0000 -0.0000 -0.0000
vn -0.2363 0.5234 0.8187
vt 0.181819 0.000000
vt 0.227273 0.078731
vt 0.136365 0.078731
vt 0.272728 0.157461
vt 0.318182 0.078731
vt 0.363637 0.157461
vt 0.909091 0.000000
vt 0.954545 0.078731
vt 0.863636 0.078731
vt 0.727273 0.000000
vt 0.772727 0.078731
vt 0.681818 0.078731
vt 0.545455 0.000000
vt 0.590909 0.078731
vt 0.500000 0.078731
vt 0.318182 0.236191
vt 0.090910 0.157461
vt 0.181819 0.157461
vt 0.136365 0.236191
vt 0.818182 0.157461
vt 0.909091 0.157461
vt 0.863636 0.236191
vt 0.636364 0.157461
vt 0.727273 0.157461
vt 0.681818 0.236191
vt 0.454546 0.157461
vt 0.545455 0.157461
vt 0.500000 0.236191
vt 0.227273 0.236191
vt 0.045455 0.236191
vt 0.772727 0.236191
vt 0.590909 0.236191
vt 0.409092 0.236191
vt 0.181819 0.314921
vt 0.272728 0.314921
vt 0.227273 0.393651
vt 0.000000 0.314921
vt 0.090910 0.314921
vt 0.045455 0.393651
vt 0.727273 0.314921
vt 0.818182 0.314921
vt 0.772727 0.393651
vt 0.545455 0.314921
vt 0.636364 0.314921
vt 0.590909 0.393651
vt 0.363637 0.314921
vt 0.454546 0.314921
vt 0.409092 0.393651
vt 0.500000 0.393651
vt 0.454546 0.472382
vt 0.681818 0.393651
vt 0.636364 0.472382
vt 0.863636 0.393651
vt 0.818182 0.472382
vt 0.909091 0.314921
vt 0.136365 0.393651
vt 0.090910 0.472382
vt 0.318182 0.393651
vt 0.272728 0.472382
vt 0.954545 0.236191
vt 1.000000 0.157461
vt 0.409092 0.078731
vt 0.363637 0.000000
vt 0.128500 0.746500
vt 0.126479 0.750000
vt 0.125000 0.746500
vt 0.378500 0.996500
vt 0.376479 1.000000
vt 0.375000 0.996500
vt 0.378500 0.003500
vt 0.375000 0.001479
vt 0.378500 0.000000
vt 0.621500 0.996500
vt 0.625000 0.998521
vt 0.621500 1.000000
vt 0.871500 0.746500
vt 0.875000 0.748521
vt 0.871500 0.750000
vt 0.621500 0.003500
vt 0.623521 0.000000
vt 0.625000 0.003500
vt 0.128500 0.503500
vt 0.125000 0.501479
vt 0.128500 0.500000
vt 0.378500 0.246500
vt 0.375740 0.250740
vt 0.375000 0.246500
vt 0.378500 0.253500
vt 0.378500 0.250000
vt 0.871500 0.503500
vt 0.873521 0.500000
vt 0.875000 0.503500
vt 0.621500 0.253500
vt 0.624260 0.249260
vt 0.625000 0.253500
vt 0.621500 0.246500
vt 0.621500 0.250000
vt 0.371500 0.746500
vt 0.375493 0.750000
vt 0.373250 0.751750
vt 0.378500 0.746500
vt 0.375000 0.746500
vt 0.378500 0.753500
vt 0.378500 0.750000
vt 0.628500 0.746500
vt 0.625000 0.749507
vt 0.625000 0.746500
vt 0.621500 0.753500
vt 0.626750 0.751750
vt 0.621500 0.746500
vt 0.621500 0.750000
vt 0.371500 0.503500
vt 0.375000 0.500493
vt 0.375000 0.503500
vt 0.378500 0.496500
vt 0.373250 0.498250
vt 0.378500 0.503500
vt 0.378500 0.500000
vt 0.628500 0.503500
vt 0.624507 0.500000
vt 0.626750 0.498250
vt 0.621500 0.503500
vt 0.625000 0.503500
vt 0.621500 0.496500
vt 0.621500 0.500000
vt 0.125000 0.503500
vt 0.378500 1.000000
vt 0.621500 0.000000
vt 0.875000 0.746500
vt 0.625000 0.246500
vt 0.871500 0.500000
vt 0.128500 0.750000
vt 0.625000 0.996500
vt 0.871500 0.746500
vt 0.128500 0.503500
vt 0.378500 0.250000
vt 0.871500 0.503500
vt 0.621500 0.246500
vt 0.378500 0.753500
vt 0.621500 0.746500
vt 0.371500 0.503500
vt 0.626750 0.498250
vt 0.375000 0.003500
vt 0.375000 0.253500
vt 0.888889 0.618687
vt 0.993888 0.500000
vt 1.000000 0.618687
vt 0.750000 0.486911
vt 0.871435 0.394721
vt 0.750000 0.438919
vt 1.000000 0.881313
vt 0.888889 1.000000
vt 0.888889 0.881313
vt 0.250000 0.488690
vt 0.299797 0.309346
vt 0.403427 0.432847
vt 0.777778 0.500000
vt 0.888889 0.500000
vt 0.902284 0.431485
vt 0.936049 0.282806
vt 0.777778 0.881313
vt 0.777778 1.000000
vt 0.326294 0.263453
vt 0.485064 0.291448
vt 0.666667 0.618687
vt 0.777778 0.618687
vt 0.955171 0.131544
vt 0.983312 0.291139
vt 0.666667 1.000000
vt 0.666667 0.881313
vt 0.317092 0.211265
vt 0.456712 0.130655
vt 0.555556 0.618687
vt 0.666667 0.500000
vt 0.831029 0.027376
vt 0.913609 0.155540
vt 0.555556 0.881313
vt 0.555556 1.000000
vt 0.276497 0.177201
vt 0.331637 0.025705
vt 0.444444 0.500000
vt 0.555556 0.500000
vt 0.685386 0.072474
vt 0.814614 0.072474
vt 0.444444 1.000000
vt 0.444444 0.881313
vt 0.168363 0.025705
vt 0.223503 0.177201
vt 0.333333 0.618687
vt 0.444444 0.618687
vt 0.668972 0.027376
vt 0.586391 0.155540
vt 0.333333 0.881313
vt 0.333333 1.000000
vt 0.182908 0.211264
vt 0.043288 0.130655
vt 0.222222 0.618687
vt 0.333333 0.500000
vt 0.544829 0.131544
vt 0.563951 0.282806
vt 0.222222 1.000000
vt 0.222222 0.881313
vt 0.173706 0.263453
vt 0.014936 0.291448
vt 0.111111 0.618687
vt 0.222222 0.500000
vt 0.516688 0.291139
vt 0.628565 0.394721
vt 0.111111 0.881313
vt 0.111111 1.000000
vt 0.200203 0.309346
vt 0.096573 0.432847
vt 0.000000 0.618687
vt 0.111111 0.500000
vt 0.597716 0.431485
vt 0.002592 1.000000
vt 0.000000 0.881313
vt 0.250000 0.327471
vt 0.378500 0.246500
vt 0.378500 0.253500
vt 0.621500 0.253500
vt 0.621500 0.753500
vt 0.621500 0.496500
vt 0.621500 0.003500
vt 0.371500 0.746500
vt 0.378500 0.746500
vt 0.750000 0.419108
vt 0.739028 0.484716
vt 0.800441 0.465709
vt 0.044567 0.516897
vt 0.000000 0.507500
vt 0.038402 0.500000
vt 0.955434 0.516897
vt 0.991646 0.500000
vt 1.000000 0.517072
vt 0.250000 0.371847
vt 0.266500 0.482054
vt 0.167171 0.450112
vt 0.928571 0.983103
vt 1.000000 0.993217
vt 0.936939 1.000000
vt 0.071429 0.983103
vt 0.012562 1.000000
vt 0.000000 0.983278
vt 0.882214 0.355437
vt 0.926667 0.404922
vt 0.950097 0.345056
vt 0.901709 0.516897
vt 0.852966 0.503750
vt 0.895545 0.500000
vt 0.812576 0.516897
vt 0.857143 0.517072
vt 0.345264 0.325970
vt 0.441715 0.381783
vt 0.354810 0.439526
vt 0.785714 0.983103
vt 0.863424 0.996608
vt 0.794082 1.000000
vt 0.928571 0.983103
vt 0.857143 0.983278
vt 0.914868 0.212370
vt 0.981273 0.208468
vt 0.949077 0.152824
vt 0.758852 0.516897
vt 0.710109 0.503750
vt 0.752688 0.500000
vt 0.669719 0.516897
vt 0.714286 0.517072
vt 0.368792 0.222887
vt 0.472564 0.182277
vt 0.463526 0.286224
vt 0.642857 0.983103
vt 0.720567 0.996609
vt 0.651225 1.000000
vt 0.785714 0.983103
vt 0.714286 0.983278
vt 0.823373 0.097639
vt 0.861725 0.043289
vt 0.798147 0.033767
vt 0.615995 0.516897
vt 0.567252 0.503750
vt 0.609831 0.500000
vt 0.526862 0.516898
vt 0.571429 0.517073
vt 0.302867 0.140220
vt 0.335818 0.033767
vt 0.411452 0.105644
vt 0.500000 0.983103
vt 0.577710 0.996609
vt 0.508367 1.000000
vt 0.642857 0.983103
vt 0.571429 0.983278
vt 0.676627 0.097639
vt 0.658046 0.033767
vt 0.610962 0.077538
vt 0.473138 0.516897
vt 0.424395 0.503750
vt 0.466974 0.500000
vt 0.384005 0.516897
vt 0.428571 0.517072
vt 0.197133 0.140220
vt 0.134449 0.048086
vt 0.237802 0.033767
vt 0.357143 0.983103
vt 0.434853 0.996609
vt 0.365510 1.000000
vt 0.500000 0.983103
vt 0.428571 0.983278
vt 0.585132 0.212370
vt 0.523610 0.187074
vt 0.528475 0.251176
vt 0.330281 0.516897
vt 0.281538 0.503750
vt 0.324117 0.500000
vt 0.241148 0.516897
vt 0.285714 0.517073
vt 0.131208 0.222887
vt 0.020093 0.214450
vt 0.073337 0.124718
vt 0.214286 0.983103
vt 0.291995 0.996609
vt 0.222653 1.000000
vt 0.357143 0.983103
vt 0.285714 0.983278
vt 0.617786 0.355437
vt 0.559651 0.387765
vt 0.612801 0.423929
vt 0.187424 0.516897
vt 0.138680 0.503750
vt 0.181260 0.500000
vt 0.098291 0.516897
vt 0.142857 0.517072
vt 0.154736 0.325970
vt 0.078861 0.407584
vt 0.041903 0.310009
vt 0.071429 0.983103
vt 0.149138 0.996608
vt 0.079796 1.000000
vt 0.214286 0.983103
vt 0.142857 0.983278
vt 0.961598 0.500000
vt 0.887199 0.423928
vt 0.920204 1.000000
vt 0.332829 0.450111
vt 0.000000 0.517072
vt 1.000000 0.983278
vt 0.818741 0.500000
vt 0.777347 1.000000
vt 0.458097 0.310009
vt 0.675883 0.500000
vt 0.889038 0.077538
vt 0.634490 1.000000
vt 0.426663 0.124718
vt 0.533026 0.500000
vt 0.701853 0.033767
vt 0.491633 1.000000
vt 0.262198 0.033767
vt 0.390169 0.500000
vt 0.348776 1.000000
vt 0.088548 0.105644
vt 0.247312 0.500000
vt 0.549903 0.345056
vt 0.205918 1.000000
vt 0.104455 0.500000
vt 0.699559 0.465709
vt 0.063061 1.000000
vt 0.145190 0.439526
vt 0.997408 1.000000
vt 0.006112 0.500000
vt 0.971525 0.251176
vt 0.550923 0.152824
vt 0.036474 0.286224
s 0
usemtl bone
f 1/1/1 14/2/1 13/3/1
f 2/4/2 14/5/2 16/6/2
f 1/7/3 13/8/3 18/9/3
f 1/10/4 18/11/4 20/12/4
f 1/13/5 20/14/5 17/15/5
f 2/4/6 16/6/6 23/16/6
f 3/17/7 15/18/7 25/19/7
f 4/20/8 19/21/8 27/22/8
f 5/23/9 21/24/9 29/25/9
f 6/26/10 22/27/10 31/28/10
f 2/4/11 23/16/11 26/29/11
f 3/17/12 25/19/12 28/30/12
f 4/20/13 27/22/13 30/31/13
f 5/23/14 29/25/14 32/32/14
f 6/26/15 31/28/15 24/33/15
f 7/34/16 33/35/16 38/36/16
f 8/37/17 34/38/17 40/39/17
f 9/40/18 35/41/18 41/42/18
f 10/43/19 36/44/19 42/45/19
f 11/46/20 37/47/20 39/48/20
f 39/48/21 42/49/21 12/50/21
f 39/48/22 37/47/22 42/49/22
f 37/47/23 10/43/23 42/49/23
f 42/45/24 41/51/24 12/52/24
f 42/45/25 36/44/25 41/51/25
f 36/44/26 9/40/26 41/51/26
f 41/42/27 40/53/27 12/54/27
f 41/42/28 35/41/28 40/53/28
f 35/41/29 8/55/29 40/53/29
f 40/39/30 38/56/30 12/57/30
f 40/39/31 34/38/31 38/56/31
f 34/38/32 7/34/32 38/56/32
f 38/36/33 39/58/33 12/59/33
f 38/36/34 33/35/34 39/58/34
f 33/35/35 11/46/35 39/58/35
f 24/33/36 37/47/36 11/46/36
f 24/33/37 31/28/37 37/47/37
f 31/28/38 10/43/38 37/47/38
f 32/32/39 36/44/39 10/43/39
f 32/32/40 29/25/40 36/44/40
f 29/25/41 9/40/41 36/44/41
f 30/31/42 35/41/42 9/40/42
f 30/31/43 27/22/43 35/41/43
f 27/22/44 8/55/44 35/41/44
f 28/30/45 34/38/45 8/37/45
f 28/30/46 25/19/46 34/38/46
f 25/19/47 7/34/47 34/38/47
f 26/29/48 33/35/48 7/34/48
f 26/29/49 23/16/49 33/35/49
f 23/16/50 11/46/50 33/35/50
f 31/28/51 32/32/51 10/43/51
f 31/28/52 22/27/52 32/32/52
f 22/27/53 5/23/53 32/32/53
f 29/25/54 30/31/54 9/40/54
f 29/25/55 21/24/55 30/31/55
f 21/24/56 4/20/56 30/31/56
f 27/22/57 28/60/57 8/55/57
f 27/22/58 19/21/58 28/60/58
f 19/21/59 3/61/59 28/60/59
f 25/19/60 26/29/60 7/34/60
f 25/19/61 15/18/61 26/29/61
f 15/18/62 2/4/62 26/29/62
f 23/16/63 24/33/63 11/46/63
f 23/16/64 16/6/64 24/33/64
f 16/6/65 6/26/65 24/33/65
f 17/15/66 22/27/66 6/26/66
f 17/15/67 20/14/67 22/27/67
f 20/14/68 5/23/68 22/27/68
f 20/12/69 21/24/69 5/23/69
f 20/12/70 18/11/70 21/24/70
f 18/11/71 4/20/71 21/24/71
f 18/9/72 19/21/72 4/20/72
f 18/9/73 13/8/73 19/21/73
f 13/8/74 3/61/74 19/21/74
f 16/6/75 17/62/75 6/26/75
f 16/6/76 14/5/76 17/62/76
f 14/5/77 1/63/77 17/62/77
f 13/3/78 15/18/78 3/17/78
f 13/3/79 14/2/79 15/18/79
f 14/2/80 2/4/80 15/18/80
f 43/64/81 47/65/81 49/66/81
f 44/67/82 47/68/82 46/69/82
f 45/70/83 47/71/83 48/72/83
f 50/73/84 54/74/84 56/75/84
f 51/76/85 54/77/85 53/78/85
f 52/79/86 54/80/86 55/81/86
f 57/82/87 61/83/87 63/84/87
f 58/85/88 61/86/88 60/87/88
f 59/88/89 61/86/89 62/89/89
f 64/90/90 68/91/90 70/92/90
f 65/93/91 68/94/91 67/95/91
f 66/96/92 68/94/92 69/97/92
f 71/98/93 75/99/93 77/100/93
f 72/101/94 75/99/94 74/102/94
f 73/103/95 75/99/95 76/104/95
f 78/105/96 82/106/96 84/107/96
f 79/108/97 82/106/97 81/109/97
f 80/110/98 82/106/98 83/111/98
f 85/112/99 89/113/99 91/114/99
f 86/115/100 89/113/100 88/116/100
f 87/117/101 89/113/101 90/118/101
f 92/119/102 96/120/102 98/121/102
f 93/122/103 96/120/103 95/123/103
f 94/124/104 96/120/104 97/125/104
f 57/82/105 49/66/105 60/126/105
f 60/87/106 45/70/106 58/85/106
f 44/67/107 56/75/107 48/127/107
f 56/128/108 45/70/108 48/72/108
f 51/76/109 70/92/109 55/129/109
f 70/130/110 52/79/110 55/81/110
f 59/88/111 69/97/111 65/93/111
f 62/89/112 66/96/112 69/97/112
f 57/82/113 88/116/113 85/112/113
f 88/116/114 59/88/114 86/115/114
f 64/90/115 98/121/115 67/131/115
f 98/121/116 65/93/116 67/95/116
f 93/122/117 90/118/117 97/125/117
f 90/118/118 94/124/118 97/125/118
f 85/112/119 74/102/119 71/98/119
f 91/114/120 72/101/120 74/102/120
f 92/119/121 84/107/121 95/123/121
f 95/123/122 80/110/122 93/122/122
f 79/108/123 76/104/123 83/111/123
f 76/104/124 80/110/124 83/111/124
f 43/64/125 77/100/125 46/132/125
f 77/100/126 44/67/126 46/69/126
f 51/76/127 81/109/127 78/105/127
f 53/133/128 79/108/128 81/109/128
f 85/112/129 43/64/129 57/82/129
f 52/79/130 58/85/130 45/70/130
f 79/108/131 44/67/131 73/103/131
f 64/90/132 78/105/132 92/119/132
f 65/93/133 86/115/133 59/88/133
f 93/122/134 72/101/134 87/117/134
f 99/64/135 103/65/135 105/66/135
f 100/67/136 103/68/136 102/69/136
f 101/70/137 103/71/137 104/72/137
f 106/73/138 110/74/138 112/75/138
f 107/134/139 110/77/139 109/78/139
f 108/79/140 110/80/140 111/81/140
f 113/135/141 117/83/141 119/84/141
f 114/85/142 117/86/142 116/87/142
f 115/88/143 117/86/143 118/136/143
f 120/137/144 124/91/144 126/92/144
f 121/93/145 124/94/145 123/95/145
f 122/138/146 124/94/146 125/97/146
f 127/98/147 131/99/147 133/100/147
f 128/101/148 131/99/148 130/102/148
f 129/139/149 131/99/149 132/104/149
f 134/105/150 138/106/150 140/107/150
f 135/108/151 138/106/151 137/109/151
f 136/140/152 138/106/152 139/111/152
f 141/141/153 145/113/153 147/114/153
f 142/115/154 145/113/154 144/116/154
f 143/117/155 145/113/155 146/118/155
f 148/119/156 152/120/156 154/142/156
f 149/122/157 152/120/157 151/123/157
f 150/124/158 152/120/158 153/125/158
f 99/64/159 116/126/159 113/135/159
f 105/143/160 114/85/160 116/87/160
f 106/73/161 104/127/161 100/67/161
f 112/128/162 101/70/162 104/72/162
f 107/134/163 126/92/163 111/129/163
f 111/81/164 122/138/164 108/79/164
f 121/93/165 118/136/165 125/97/165
f 118/136/166 122/138/166 125/97/166
f 113/135/167 144/116/167 141/141/167
f 119/144/168 142/115/168 144/116/168
f 148/119/169 123/131/169 120/137/169
f 154/142/170 121/93/170 123/95/170
f 143/117/171 153/125/171 149/122/171
f 153/125/172 142/115/172 150/124/172
f 127/98/173 147/114/173 130/102/173
f 147/114/174 128/101/174 130/102/174
f 148/119/175 140/107/175 151/123/175
f 151/123/176 136/140/176 149/122/176
f 135/108/177 132/104/177 139/111/177
f 132/104/178 136/140/178 139/111/178
f 127/98/179 102/132/179 99/64/179
f 133/100/180 100/67/180 102/69/180
f 134/105/181 109/78/181 137/109/181
f 109/133/182 135/108/182 137/109/182
f 113/135/183 127/98/183 99/64/183
f 108/79/184 114/85/184 101/70/184
f 135/108/185 100/67/185 129/139/185
f 148/119/186 107/134/186 134/105/186
f 121/93/187 142/115/187 115/88/187
f 149/122/188 128/101/188 143/117/188
f 162/145/189 157/146/189 156/147/189
f 157/148/190 161/149/190 155/150/190
f 159/151/191 166/152/191 165/153/191
f 160/154/192 164/155/192 166/156/192
f 162/145/193 169/157/193 163/158/193
f 163/159/194 167/160/194 161/149/194
f 171/161/195 166/152/195 172/162/195
f 166/156/196 170/163/196 172/164/196
f 174/165/197 169/157/197 168/166/197
f 175/167/198 167/160/198 169/168/198
f 171/161/199 178/169/199 177/170/199
f 172/164/200 176/171/200 178/172/200
f 180/173/201 175/174/201 174/165/201
f 181/175/202 173/176/202 175/167/202
f 183/177/203 178/169/203 184/178/203
f 178/172/204 182/179/204 184/180/204
f 180/173/205 187/181/205 181/182/205
f 181/175/206 185/183/206 179/184/206
f 183/177/207 190/185/207 189/186/207
f 190/187/208 182/179/208 188/188/208
f 192/189/209 187/181/209 186/190/209
f 187/191/210 191/192/210 185/183/210
f 195/193/211 190/185/211 196/194/211
f 190/187/212 194/195/212 196/196/212
f 198/197/213 193/198/213 192/189/213
f 193/199/214 197/200/214 191/192/214
f 195/193/215 202/201/215 201/202/215
f 196/196/216 200/203/216 202/204/216
f 204/205/217 199/206/217 198/197/217
f 199/207/218 203/208/218 197/200/218
f 207/209/219 202/201/219 208/210/219
f 202/204/220 206/211/220 208/212/220
f 156/213/221 205/214/221 204/205/221
f 157/148/222 203/208/222 205/215/222
f 207/209/223 160/216/223 159/217/223
f 160/154/224 206/211/224 158/218/224
f 161/149/225 185/183/225 197/200/225
f 159/151/226 162/145/226 156/147/226
f 207/209/227 156/213/227 204/205/227
f 158/218/228 188/188/228 176/171/228
f 165/153/229 168/166/229 162/145/229
f 171/161/230 174/165/230 168/166/230
f 177/170/231 180/173/231 174/165/231
f 180/173/232 189/186/232 186/190/232
f 189/186/233 192/189/233 186/190/233
f 192/189/234 201/202/234 198/197/234
f 201/202/235 204/205/235 198/197/235
f 209/64/236 213/65/236 215/66/236
f 210/67/237 213/68/237 212/69/237
f 215/143/238 214/72/238 211/70/238
f 216/73/239 220/74/239 222/75/239
f 217/76/240 220/77/240 219/78/240
f 222/128/241 221/81/241 218/79/241
f 223/82/242 227/83/242 229/84/242
f 228/89/243 226/87/243 224/219/243
f 225/220/244 227/86/244 228/89/244
f 230/137/245 234/91/245 236/92/245
f 231/221/246 234/94/246 233/95/246
f 236/130/247 235/97/247 232/96/247
f 237/98/248 241/99/248 243/100/248
f 242/104/249 240/102/249 238/101/249
f 239/103/250 241/99/250 242/104/250
f 244/105/251 248/106/251 250/107/251
f 245/222/252 248/106/252 247/109/252
f 250/107/253 249/111/253 246/140/253
f 251/141/254 255/113/254 257/114/254
f 252/115/255 255/113/255 254/116/255
f 257/114/256 256/118/256 253/117/256
f 258/119/257 262/120/257 264/142/257
f 263/125/258 261/123/258 259/122/258
f 260/223/259 262/120/259 263/125/259
f 223/82/260 215/66/260 226/126/260
f 215/143/261 224/219/261 226/87/261
f 210/67/262 222/75/262 214/127/262
f 222/128/263 211/70/263 214/72/263
f 230/137/264 221/129/264 217/76/264
f 236/130/265 218/79/265 221/81/265
f 231/221/266 228/89/266 235/97/266
f 235/97/267 224/219/267 232/96/267
f 223/82/268 254/116/268 251/141/268
f 254/116/269 225/220/269 252/115/269
f 230/137/270 264/142/270 233/131/270
f 233/95/271 260/223/271 231/221/271
f 259/122/272 256/118/272 263/125/272
f 256/118/273 260/223/273 263/125/273
f 237/98/274 257/114/274 240/102/274
f 257/114/275 238/101/275 240/102/275
f 244/105/276 261/123/276 258/119/276
f 250/107/277 259/122/277 261/123/277
f 239/103/278 249/111/278 245/222/278
f 242/104/279 246/140/279 249/111/279
f 237/98/280 212/132/280 209/64/280
f 212/69/281 239/103/281 210/67/281
f 244/105/282 219/78/282 247/109/282
f 219/133/283 245/222/283 247/109/283
f 251/141/284 209/64/284 223/82/284
f 218/79/285 224/219/285 211/70/285
f 245/222/286 210/67/286 239/103/286
f 258/119/287 217/76/287 244/105/287
f 231/221/288 252/115/288 225/220/288
f 253/117/289 246/140/289 238/101/289
f 265/64/290 269/65/290 271/66/290
f 270/127/291 268/69/291 266/67/291
f 267/70/292 269/71/292 270/72/292
f 275/133/293 278/75/293 272/73/293
f 273/76/294 276/77/294 275/78/294
f 274/224/295 276/80/295 277/81/295
f 279/82/296 283/83/296 285/84/296
f 280/219/297 283/86/297 282/87/297
f 285/144/298 284/89/298 281/88/298
f 286/137/299 290/91/299 292/92/299
f 291/97/300 289/95/300 287/221/300
f 288/138/301 290/94/301 291/97/301
f 293/225/302 297/99/302 299/100/302
f 294/226/303 297/99/303 296/102/303
f 299/100/304 298/104/304 295/103/304
f 300/105/305 304/106/305 306/107/305
f 305/111/306 303/109/306 301/222/306
f 302/110/307 304/106/307 305/111/307
f 307/141/308 311/113/308 313/114/308
f 312/118/309 310/116/309 308/115/309
f 309/117/310 311/113/310 312/118/310
f 314/119/311 318/120/311 320/121/311
f 315/122/312 318/120/312 317/123/312
f 320/121/313 319/125/313 316/124/313
f 279/82/314 271/66/314 282/126/314
f 271/143/315 280/219/315 282/87/315
f 272/73/316 270/127/316 266/67/316
f 278/128/317 267/70/317 270/72/317
f 286/137/318 277/129/318 273/76/318
f 277/81/319 288/138/319 274/224/319
f 281/88/320 291/97/320 287/221/320
f 284/89/321 288/138/321 291/97/321
f 307/141/322 285/84/322 310/116/322
f 285/144/323 308/115/323 310/116/323
f 286/137/324 320/121/324 289/131/324
f 289/95/325 316/124/325 287/221/325
f 309/117/326 319/125/326 315/122/326
f 312/118/327 316/124/327 319/125/327
f 307/141/328 296/102/328 293/225/328
f 296/102/329 309/117/329 294/226/329
f 314/119/330 306/107/330 317/123/330
f 306/107/331 315/122/331 317/123/331
f 295/103/332 305/111/332 301/222/332
f 305/111/333 294/226/333 302/110/333
f 293/225/334 268/132/334 265/64/334
f 268/69/335 295/103/335 266/67/335
f 300/105/336 275/78/336 303/109/336
f 275/133/337 301/222/337 303/109/337
f 307/141/338 265/64/338 279/82/338
f 274/224/339 280/219/339 267/70/339
f 301/222/340 266/67/340 295/103/340
f 286/137/341 300/105/341 314/119/341
f 281/88/342 316/124/342 308/115/342
f 315/122/343 294/226/343 309/117/343
f 321/64/344 325/65/344 327/66/344
f 326/127/345 324/69/345 322/67/345
f 323/70/346 325/71/346 326/72/346
f 331/133/347 334/75/347 328/73/347
f 329/76/348 332/77/348 331/78/348
f 330/79/349 332/80/349 333/81/349
f 335/135/350 339/83/350 341/84/350
f 336/85/351 339/86/351 338/87/351
f 341/144/352 340/89/352 337/88/352
f 342/90/353 346/91/353 348/92/353
f 347/97/354 345/95/354 343/93/354
f 344/96/355 346/94/355 347/97/355
f 349/98/356 353/99/356 355/100/356
f 350/101/357 353/99/357 352/102/357
f 355/100/358 354/104/358 351/103/358
f 356/105/359 360/106/359 362/107/359
f 361/111/360 359/109/360 357/108/360
f 358/110/361 360/106/361 361/111/361
f 363/112/362 367/113/362 369/114/362
f 368/118/363 366/116/363 364/115/363
f 365/117/364 367/113/364 368/118/364
f 370/119/365 374/120/365 376/121/365
f 371/122/366 374/120/366 373/123/366
f 376/121/367 375/125/367 372/124/367
f 321/64/368 338/126/368 335/135/368
f 327/143/369 336/85/369 338/87/369
f 322/67/370 334/75/370 326/127/370
f 334/128/371 323/70/371 326/72/371
f 342/90/372 333/129/372 329/76/372
f 348/130/373 330/79/373 333/81/373
f 343/93/374 340/89/374 347/97/374
f 340/89/375 344/96/375 347/97/375
f 335/135/376 366/116/376 363/112/376
f 341/144/377 364/115/377 366/116/377
f 342/90/378 376/121/378 345/131/378
f 345/95/379 372/124/379 343/93/379
f 365/117/380 375/125/380 371/122/380
f 375/125/381 364/115/381 372/124/381
f 363/112/382 352/102/382 349/98/382
f 352/102/383 365/117/383 350/101/383
f 356/105/384 373/123/384 370/119/384
f 373/123/385 358/110/385 371/122/385
f 357/108/386 354/104/386 361/111/386
f 354/104/387 358/110/387 361/111/387
f 321/64/388 355/100/388 324/132/388
f 355/100/389 322/67/389 324/69/389
f 329/76/390 359/109/390 356/105/390
f 359/109/391 328/73/391 357/108/391
f 363/112/392 321/64/392 335/135/392
f 323/70/393 344/96/393 336/85/393
f 357/108/394 322/67/394 351/103/394
f 342/90/395 356/105/395 370/119/395
f 337/88/396 372/124/396 364/115/396
f 371/122/397 350/101/397 365/117/397
f 377/64/398 381/65/398 383/66/398
f 382/127/399 380/69/399 378/67/399
f 379/70/400 381/71/400 382/72/400
f 387/133/401 390/75/401 384/73/401
f 385/134/402 388/77/402 387/78/402
f 386/79/403 388/80/403 389/81/403
f 391/135/404 395/83/404 397/84/404
f 392/85/405 395/86/405 394/87/405
f 397/144/406 396/136/406 393/88/406
f 398/137/407 402/91/407 404/92/407
f 403/97/408 401/95/408 399/93/408
f 400/96/409 402/94/409 403/97/409
f 405/98/410 409/99/410 411/100/410
f 406/101/411 409/99/411 408/102/411
f 411/100/412 410/104/412 407/139/412
f 412/105/413 416/106/413 418/107/413
f 417/111/414 415/109/414 413/108/414
f 414/140/415 416/106/415 417/111/415
f 419/141/416 423/113/416 425/114/416
f 424/118/417 422/116/417 420/115/417
f 421/117/418 423/113/418 424/118/418
f 426/119/419 430/120/419 432/142/419
f 427/122/420 430/120/420 429/123/420
f 432/142/421 431/125/421 428/124/421
f 377/64/422 394/126/422 391/135/422
f 394/87/423 379/70/423 392/85/423
f 384/73/424 382/127/424 378/67/424
f 390/128/425 379/70/425 382/72/425
f 385/134/426 404/92/426 389/129/426
f 389/81/427 400/96/427 386/79/427
f 399/93/428 396/136/428 403/97/428
f 396/136/429 400/96/429 403/97/429
f 391/135/430 422/116/430 419/141/430
f 397/144/431 420/115/431 422/116/431
f 398/137/432 432/142/432 401/131/432
f 401/95/433 428/124/433 399/93/433
f 427/122/434 424/118/434 431/125/434
f 431/125/435 420/115/435 428/124/435
f 419/141/436 408/102/436 405/98/436
f 425/114/437 406/101/437 408/102/437
f 412/105/438 429/123/438 426/119/438
f 429/123/439 414/140/439 427/122/439
f 407/139/440 417/111/440 413/108/440
f 417/111/441 406/101/441 414/140/441
f 405/98/442 380/132/442 377/64/442
f 411/100/443 378/67/443 380/69/443
f 412/105/444 387/78/444 415/109/444
f 415/109/445 384/73/445 413/108/445
f 419/141/446 377/64/446 391/135/446
f 386/79/447 392/85/447 379/70/447
f 407/139/448 384/73/448 378/67/448
f 398/137/449 412/105/449 426/119/449
f 399/93/450 420/115/450 393/88/450
f 427/122/451 406/101/451 421/117/451
f 433/227/452 437/228/452 439/229/452
f 434/230/453 437/231/453 436/232/453
f 435/233/454 437/234/454 438/235/454
f 440/236/455 444/237/455 446/238/455
f 441/239/456 444/240/456 443/241/456
f 442/242/457 444/243/457 445/244/457
f 447/245/458 451/246/458 453/247/458
f 448/248/459 451/249/459 450/250/459
f 449/251/460 451/249/460 452/252/460
f 454/253/461 458/254/461 460/255/461
f 455/256/462 458/257/462 457/258/462
f 456/259/463 458/257/463 459/260/463
f 461/261/464 465/262/464 467/263/464
f 462/264/465 465/265/465 464/266/465
f 463/267/466 465/265/466 466/268/466
f 468/269/467 472/270/467 474/271/467
f 469/272/468 472/273/468 471/274/468
f 470/275/469 472/273/469 473/276/469
f 475/277/470 479/278/470 481/279/470
f 476/280/471 479/281/471 478/282/471
f 477/283/472 479/281/472 480/284/472
f 482/285/473 486/286/473 488/287/473
f 483/288/474 486/289/474 485/290/474
f 484/291/475 486/289/475 487/292/475
f 489/293/476 493/294/476 495/295/476
f 490/296/477 493/297/477 492/298/477
f 491/299/478 493/297/478 494/300/478
f 496/301/479 500/302/479 502/303/479
f 497/304/480 500/305/480 499/306/480
f 498/307/481 500/305/481 501/308/481
f 503/309/482 507/310/482 509/311/482
f 504/312/483 507/313/483 506/314/483
f 505/315/484 507/313/484 508/316/484
f 510/317/485 514/318/485 516/319/485
f 511/320/486 514/321/486 513/322/486
f 512/323/487 514/321/487 515/324/487
f 517/325/488 521/326/488 523/327/488
f 518/328/489 521/329/489 520/330/489
f 519/331/490 521/329/490 522/332/490
f 524/333/491 528/334/491 530/335/491
f 525/336/492 528/337/492 527/338/492
f 526/339/493 528/337/493 529/340/493
f 435/233/494 450/250/494 439/341/494
f 450/342/495 433/227/495 439/229/495
f 456/259/496 443/241/496 460/343/496
f 443/344/497 454/253/497 460/255/497
f 434/230/498 445/244/498 438/345/498
f 445/346/499 435/233/499 438/235/499
f 449/251/500 459/260/500 455/256/500
f 459/260/501 448/248/501 456/259/501
f 462/264/502 453/347/502 449/251/502
f 453/247/503 461/261/503 447/245/503
f 470/275/504 457/258/504 474/348/504
f 457/349/505 468/269/505 474/271/505
f 463/267/506 473/276/506 469/272/506
f 473/276/507 462/264/507 470/275/507
f 476/280/508 467/350/508 463/267/508
f 478/351/509 461/261/509 467/263/509
f 484/291/510 471/274/510 488/352/510
f 471/353/511 482/285/511 488/287/511
f 477/283/512 487/292/512 483/288/512
f 487/292/513 476/280/513 484/291/513
f 490/296/514 481/354/514 477/283/514
f 492/355/515 475/277/515 481/279/515
f 498/307/516 485/290/516 502/356/516
f 485/357/517 496/301/517 502/303/517
f 491/299/518 501/308/518 497/304/518
f 501/308/519 490/296/519 498/307/519
f 491/299/520 506/314/520 495/358/520
f 495/295/521 503/309/521 489/293/521
f 512/323/522 499/306/522 516/359/522
f 499/360/523 510/317/523 516/319/523
f 505/315/524 515/324/524 511/320/524
f 515/324/525 504/312/525 512/323/525
f 505/315/526 520/330/526 509/361/526
f 520/362/527 503/309/527 509/311/527
f 526/339/528 513/322/528 530/363/528
f 530/335/529 510/317/529 524/333/529
f 519/331/530 529/340/530 525/336/530
f 529/340/531 518/328/531 526/339/531
f 519/331/532 436/232/532 523/364/532
f 436/365/533 517/325/533 523/327/533
f 442/242/534 527/338/534 446/366/534
f 527/367/535 440/236/535 446/238/535
f 447/245/536 475/277/536 503/309/536
f 435/233/537 456/259/537 448/248/537
f 519/331/538 442/242/538 434/230/538
f 440/236/539 510/317/539 482/285/539
f 449/251/540 470/275/540 462/264/540
f 463/267/541 484/291/541 476/280/541
f 477/283/542 498/307/542 490/296/542
f 491/299/543 512/323/543 504/312/543
f 505/315/544 526/339/544 518/328/544
f 43/64/545 46/132/545 47/65/545
f 44/67/546 48/127/546 47/68/546
f 45/70/547 49/143/547 47/71/547
f 50/73/548 53/133/548 54/74/548
f 51/76/549 55/129/549 54/77/549
f 52/79/550 56/128/550 54/80/550
f 57/82/551 60/126/551 61/83/551
f 58/85/552 62/89/552 61/86/552
f 59/88/553 63/144/553 61/86/553
f 64/90/554 67/131/554 68/91/554
f 65/93/555 69/97/555 68/94/555
f 66/96/556 70/130/556 68/94/556
f 71/98/557 74/102/557 75/99/557
f 72/101/558 76/104/558 75/99/558
f 73/103/559 77/100/559 75/99/559
f 78/105/560 81/109/560 82/106/560
f 79/108/561 83/111/561 82/106/561
f 80/110/562 84/107/562 82/106/562
f 85/112/563 88/116/563 89/113/563
f 86/115/564 90/118/564 89/113/564
f 87/117/565 91/114/565 89/113/565
f 92/119/566 95/123/566 96/120/566
f 93/122/567 97/125/567 96/120/567
f 94/124/568 98/121/568 96/120/568
f 57/82/105 43/64/105 49/66/105
f 60/87/106 49/143/106 45/70/106
f 44/67/107 50/73/107 56/75/107
f 56/128/108 52/79/108 45/70/108
f 51/76/109 64/90/109 70/92/109
f 70/130/110 66/96/110 52/79/110
f 59/88/111 62/89/111 69/97/111
f 62/89/112 58/85/112 66/96/112
f 57/82/113 63/84/113 88/116/113
f 88/116/114 63/144/114 59/88/114
f 64/90/115 92/119/115 98/121/115
f 98/121/116 94/124/116 65/93/116
f 93/122/117 87/117/117 90/118/117
f 90/118/118 86/115/118 94/124/118
f 85/112/119 91/114/119 74/102/119
f 91/114/120 87/117/120 72/101/120
f 92/119/121 78/105/121 84/107/121
f 95/123/122 84/107/122 80/110/122
f 79/108/123 73/103/123 76/104/123
f 76/104/124 72/101/124 80/110/124
f 43/64/125 71/98/125 77/100/125
f 77/100/126 73/103/126 44/67/126
f 51/76/127 53/78/127 81/109/127
f 53/133/128 50/73/128 79/108/128
f 85/112/129 71/98/129 43/64/129
f 52/79/130 66/96/130 58/85/130
f 79/108/131 50/73/131 44/67/131
f 64/90/132 51/76/132 78/105/132
f 65/93/133 94/124/133 86/115/133
f 93/122/134 80/110/134 72/101/134
f 99/64/569 102/132/569 103/65/569
f 100/67/570 104/127/570 103/68/570
f 101/70/571 105/143/571 103/71/571
f 106/73/572 109/133/572 110/74/572
f 107/134/573 111/129/573 110/77/573
f 108/79/574 112/128/574 110/80/574
f 113/135/575 116/126/575 117/83/575
f 114/85/576 118/136/576 117/86/576
f 115/88/577 119/144/577 117/86/577
f 120/137/578 123/131/578 124/91/578
f 121/93/579 125/97/579 124/94/579
f 122/138/580 126/130/580 124/94/580
f 127/98/581 130/102/581 131/99/581
f 128/101/582 132/104/582 131/99/582
f 129/139/583 133/100/583 131/99/583
f 134/105/584 137/109/584 138/106/584
f 135/108/585 139/111/585 138/106/585
f 136/140/586 140/107/586 138/106/586
f 141/141/587 144/116/587 145/113/587
f 142/115/588 146/118/588 145/113/588
f 143/117/589 147/114/589 145/113/589
f 148/119/590 151/123/590 152/120/590
f 149/122/591 153/125/591 152/120/591
f 150/124/592 154/142/592 152/120/592
f 99/64/159 105/66/159 116/126/159
f 105/143/160 101/70/160 114/85/160
f 106/73/161 112/75/161 104/127/161
f 112/128/593 108/79/593 101/70/593
f 107/134/163 120/137/163 126/92/163
f 111/81/164 126/130/164 122/138/164
f 121/93/165 115/88/165 118/136/165
f 118/136/166 114/85/166 122/138/166
f 113/135/167 119/84/167 144/116/167
f 119/144/168 115/88/168 142/115/168
f 148/119/169 154/142/169 123/131/169
f 154/142/594 150/124/594 121/93/594
f 143/117/595 146/118/595 153/125/595
f 153/125/172 146/118/172 142/115/172
f 127/98/173 141/141/173 147/114/173
f 147/114/174 143/117/174 128/101/174
f 148/119/596 134/105/596 140/107/596
f 151/123/597 140/107/597 136/140/597
f 135/108/177 129/139/177 132/104/177
f 132/104/178 128/101/178 136/140/178
f 127/98/179 133/100/179 102/132/179
f 133/100/598 129/139/598 100/67/598
f 134/105/181 107/134/181 109/78/181
f 109/133/182 106/73/182 135/108/182
f 113/135/183 141/141/183 127/98/183
f 108/79/184 122/138/184 114/85/184
f 135/108/185 106/73/185 100/67/185
f 148/119/186 120/137/186 107/134/186
f 121/93/187 150/124/187 142/115/187
f 149/122/188 136/140/188 128/101/188
f 162/145/189 163/158/189 157/146/189
f 157/148/190 163/159/190 161/149/190
f 159/151/191 160/368/191 166/152/191
f 160/154/192 158/218/192 164/155/192
f 162/145/193 168/166/193 169/157/193
f 163/159/194 169/168/194 167/160/194
f 171/161/195 165/153/195 166/152/195
f 166/156/196 164/155/196 170/163/196
f 174/165/197 175/174/197 169/157/197
f 175/167/198 173/176/198 167/160/198
f 171/161/199 172/162/199 178/169/199
f 172/164/200 170/163/200 176/171/200
f 180/173/599 181/182/599 175/174/599
f 181/175/202 179/184/202 173/176/202
f 183/177/203 177/170/203 178/169/203
f 178/172/204 176/171/204 182/179/204
f 180/173/205 186/190/205 187/181/205
f 181/175/206 187/191/206 185/183/206
f 183/177/207 184/178/207 190/185/207
f 190/187/208 184/180/208 182/179/208
f 192/189/209 193/198/209 187/181/209
f 187/191/210 193/199/210 191/192/210
f 195/193/211 189/186/211 190/185/211
f 190/187/212 188/188/212 194/195/212
f 198/197/213 199/206/213 193/198/213
f 193/199/214 199/207/214 197/200/214
f 195/193/215 196/194/215 202/201/215
f 196/196/216 194/195/216 200/203/216
f 204/205/217 205/214/217 199/206/217
f 199/207/600 205/215/600 203/208/600
f 207/209/219 201/202/219 202/201/219
f 202/204/220 200/203/220 206/211/220
f 156/213/221 157/369/221 205/214/221
f 157/148/222 155/150/222 203/208/222
f 207/209/223 208/210/223 160/216/223
f 160/154/224 208/212/224 206/211/224
f 203/208/225 155/150/225 161/149/225
f 161/149/225 167/160/225 173/176/225
f 173/176/225 179/184/225 185/183/225
f 185/183/225 191/192/225 197/200/225
f 197/200/225 203/208/225 161/149/225
f 161/149/225 173/176/225 185/183/225
f 159/151/226 165/153/226 162/145/226
f 207/209/227 159/217/227 156/213/227
f 170/163/228 164/155/228 158/218/228
f 158/218/228 206/211/228 200/203/228
f 200/203/228 194/195/228 188/188/228
f 188/188/228 182/179/228 176/171/228
f 176/171/228 170/163/228 158/218/228
f 158/218/228 200/203/228 188/188/228
f 165/153/229 171/161/229 168/166/229
f 171/161/230 177/170/230 174/165/230
f 177/170/231 183/177/231 180/173/231
f 180/173/232 183/177/232 189/186/232
f 189/186/233 195/193/233 192/189/233
f 192/189/234 195/193/234 201/202/234
f 201/202/235 207/209/235 204/205/235
f 209/64/601 212/132/601 213/65/601
f 210/67/602 214/127/602 213/68/602
f 215/143/603 213/71/603 214/72/603
f 216/73/604 219/133/604 220/74/604
f 217/76/605 221/129/605 220/77/605
f 222/128/606 220/80/606 221/81/606
f 223/82/607 226/126/607 227/83/607
f 228/89/608 227/86/608 226/87/608
f 225/220/609 229/144/609 227/86/609
f 230/137/610 233/131/610 234/91/610
f 231/221/611 235/97/611 234/94/611
f 236/130/612 234/94/612 235/97/612
f 237/98/613 240/102/613 241/99/613
f 242/104/614 241/99/614 240/102/614
f 239/103/615 243/100/615 241/99/615
f 244/105/616 247/109/616 248/106/616
f 245/222/617 249/111/617 248/106/617
f 250/107/618 248/106/618 249/111/618
f 251/141/619 254/116/619 255/113/619
f 252/115/620 256/118/620 255/113/620
f 257/114/621 255/113/621 256/118/621
f 258/119/622 261/123/622 262/120/622
f 263/125/623 262/120/623 261/123/623
f 260/223/624 264/142/624 262/120/624
f 223/82/260 209/64/260 215/66/260
f 215/143/261 211/70/261 224/219/261
f 210/67/262 216/73/262 222/75/262
f 222/128/263 218/79/263 211/70/263
f 230/137/264 236/92/264 221/129/264
f 236/130/625 232/96/625 218/79/625
f 231/221/266 225/220/266 228/89/266
f 235/97/267 228/89/267 224/219/267
f 223/82/268 229/84/268 254/116/268
f 254/116/269 229/144/269 225/220/269
f 230/137/626 258/119/626 264/142/626
f 233/95/271 264/142/271 260/223/271
f 259/122/272 253/117/272 256/118/272
f 256/118/273 252/115/273 260/223/273
f 237/98/627 251/141/627 257/114/627
f 257/114/628 253/117/628 238/101/628
f 244/105/629 250/107/629 261/123/629
f 250/107/277 246/140/277 259/122/277
f 239/103/630 242/104/630 249/111/630
f 242/104/279 238/101/279 246/140/279
f 237/98/631 243/100/631 212/132/631
f 212/69/281 243/100/281 239/103/281
f 244/105/282 217/76/282 219/78/282
f 219/133/283 216/73/283 245/222/283
f 251/141/284 237/98/284 209/64/284
f 218/79/285 232/96/285 224/219/285
f 245/222/286 216/73/286 210/67/286
f 258/119/287 230/137/287 217/76/287
f 231/221/288 260/223/288 252/115/288
f 253/117/289 259/122/289 246/140/289
f 265/64/632 268/132/632 269/65/632
f 270/127/633 269/68/633 268/69/633
f 267/70/634 271/143/634 269/71/634
f 275/133/635 276/74/635 278/75/635
f 273/76/636 277/129/636 276/77/636
f 274/224/637 278/128/637 276/80/637
f 279/82/638 282/126/638 283/83/638
f 280/219/639 284/89/639 283/86/639
f 285/144/640 283/86/640 284/89/640
f 286/137/641 289/131/641 290/91/641
f 291/97/642 290/94/642 289/95/642
f 288/138/643 292/130/643 290/94/643
f 293/225/644 296/102/644 297/99/644
f 294/226/645 298/104/645 297/99/645
f 299/100/646 297/99/646 298/104/646
f 300/105/647 303/109/647 304/106/647
f 305/111/648 304/106/648 303/109/648
f 302/110/649 306/107/649 304/106/649
f 307/141/650 310/116/650 311/113/650
f 312/118/651 311/113/651 310/116/651
f 309/117/652 313/114/652 311/113/652
f 314/119/653 317/123/653 318/120/653
f 315/122/654 319/125/654 318/120/654
f 320/121/655 318/120/655 319/125/655
f 279/82/656 265/64/656 271/66/656
f 271/143/657 267/70/657 280/219/657
f 272/73/316 278/75/316 270/127/316
f 278/128/317 274/224/317 267/70/317
f 286/137/658 292/92/658 277/129/658
f 277/81/659 292/130/659 288/138/659
f 281/88/320 284/89/320 291/97/320
f 284/89/321 280/219/321 288/138/321
f 307/141/322 279/82/322 285/84/322
f 285/144/660 281/88/660 308/115/660
f 286/137/661 314/119/661 320/121/661
f 289/95/662 320/121/662 316/124/662
f 309/117/326 312/118/326 319/125/326
f 312/118/327 308/115/327 316/124/327
f 307/141/663 313/114/663 296/102/663
f 296/102/329 313/114/329 309/117/329
f 314/119/664 300/105/664 306/107/664
f 306/107/665 302/110/665 315/122/665
f 295/103/332 298/104/332 305/111/332
f 305/111/333 298/104/333 294/226/333
f 293/225/334 299/100/334 268/132/334
f 268/69/335 299/100/335 295/103/335
f 300/105/666 273/76/666 275/78/666
f 275/133/667 272/73/667 301/222/667
f 307/141/338 293/225/338 265/64/338
f 274/224/339 288/138/339 280/219/339
f 301/222/340 272/73/340 266/67/340
f 286/137/341 273/76/341 300/105/341
f 281/88/342 287/221/342 316/124/342
f 315/122/343 302/110/343 294/226/343
f 321/64/668 324/132/668 325/65/668
f 326/127/669 325/68/669 324/69/669
f 323/70/670 327/143/670 325/71/670
f 331/133/671 332/74/671 334/75/671
f 329/76/672 333/129/672 332/77/672
f 330/79/673 334/128/673 332/80/673
f 335/135/674 338/126/674 339/83/674
f 336/85/675 340/89/675 339/86/675
f 341/144/676 339/86/676 340/89/676
f 342/90/677 345/131/677 346/91/677
f 347/97/678 346/94/678 345/95/678
f 344/96/679 348/130/679 346/94/679
f 349/98/680 352/102/680 353/99/680
f 350/101/681 354/104/681 353/99/681
f 355/100/682 353/99/682 354/104/682
f 356/105/683 359/109/683 360/106/683
f 361/111/684 360/106/684 359/109/684
f 358/110/685 362/107/685 360/106/685
f 363/112/686 366/116/686 367/113/686
f 368/118/687 367/113/687 366/116/687
f 365/117/688 369/114/688 367/113/688
f 370/119/689 373/123/689 374/120/689
f 371/122/690 375/125/690 374/120/690
f 376/121/691 374/120/691 375/125/691
f 321/64/692 327/66/692 338/126/692
f 327/143/693 323/70/693 336/85/693
f 322/67/370 328/73/370 334/75/370
f 334/128/371 330/79/371 323/70/371
f 342/90/694 348/92/694 333/129/694
f 348/130/695 344/96/695 330/79/695
f 343/93/696 337/88/696 340/89/696
f 340/89/375 336/85/375 344/96/375
f 335/135/376 341/84/376 366/116/376
f 341/144/377 337/88/377 364/115/377
f 342/90/697 370/119/697 376/121/697
f 345/95/379 376/121/379 372/124/379
f 365/117/380 368/118/380 375/125/380
f 375/125/698 368/118/698 364/115/698
f 363/112/699 369/114/699 352/102/699
f 352/102/700 369/114/700 365/117/700
f 356/105/701 362/107/701 373/123/701
f 373/123/702 362/107/702 358/110/702
f 357/108/386 351/103/386 354/104/386
f 354/104/387 350/101/387 358/110/387
f 321/64/703 349/98/703 355/100/703
f 355/100/389 351/103/389 322/67/389
f 329/76/704 331/78/704 359/109/704
f 359/109/391 331/133/391 328/73/391
f 363/112/392 349/98/392 321/64/392
f 323/70/393 330/79/393 344/96/393
f 357/108/394 328/73/394 322/67/394
f 342/90/395 329/76/395 356/105/395
f 337/88/396 343/93/396 372/124/396
f 371/122/397 358/110/397 350/101/397
f 377/64/705 380/132/705 381/65/705
f 382/127/706 381/68/706 380/69/706
f 379/70/707 383/143/707 381/71/707
f 387/133/708 388/74/708 390/75/708
f 385/134/709 389/129/709 388/77/709
f 386/79/710 390/128/710 388/80/710
f 391/135/711 394/126/711 395/83/711
f 392/85/712 396/136/712 395/86/712
f 397/144/713 395/86/713 396/136/713
f 398/137/714 401/131/714 402/91/714
f 403/97/715 402/94/715 401/95/715
f 400/96/716 404/130/716 402/94/716
f 405/98/717 408/102/717 409/99/717
f 406/101/718 410/104/718 409/99/718
f 411/100/719 409/99/719 410/104/719
f 412/105/720 415/109/720 416/106/720
f 417/111/721 416/106/721 415/109/721
f 414/140/722 418/107/722 416/106/722
f 419/141/723 422/116/723 423/113/723
f 424/118/724 423/113/724 422/116/724
f 421/117/725 425/114/725 423/113/725
f 426/119/726 429/123/726 430/120/726
f 427/122/727 431/125/727 430/120/727
f 432/142/728 430/120/728 431/125/728
f 377/64/729 383/66/729 394/126/729
f 394/87/730 383/143/730 379/70/730
f 384/73/424 390/75/424 382/127/424
f 390/128/731 386/79/731 379/70/731
f 385/134/732 398/137/732 404/92/732
f 389/81/733 404/130/733 400/96/733
f 399/93/428 393/88/428 396/136/428
f 396/136/429 392/85/429 400/96/429
f 391/135/430 397/84/430 422/116/430
f 397/144/431 393/88/431 420/115/431
f 398/137/432 426/119/432 432/142/432
f 401/95/433 432/142/433 428/124/433
f 427/122/734 421/117/734 424/118/734
f 431/125/435 424/118/435 420/115/435
f 419/141/735 425/114/735 408/102/735
f 425/114/736 421/117/736 406/101/736
f 412/105/737 418/107/737 429/123/737
f 429/123/738 418/107/738 414/140/738
f 407/139/739 410/104/739 417/111/739
f 417/111/441 410/104/441 406/101/441
f 405/98/442 411/100/442 380/132/442
f 411/100/443 407/139/443 378/67/443
f 412/105/444 385/134/444 387/78/444
f 415/109/445 387/133/445 384/73/445
f 419/141/446 405/98/446 377/64/446
f 386/79/447 400/96/447 392/85/447
f 407/139/448 413/108/448 384/73/448
f 398/137/449 385/134/449 412/105/449
f 399/93/450 428/124/450 420/115/450
f 427/122/451 414/140/451 406/101/451
f 433/227/740 436/365/740 437/228/740
f 434/230/741 438/345/741 437/231/741
f 435/233/742 439/341/742 437/234/742
f 440/236/743 443/344/743 444/237/743
f 441/239/744 445/346/744 444/240/744
f 442/242/745 446/366/745 444/243/745
f 447/245/746 450/342/746 451/246/746
f 448/248/747 452/252/747 451/249/747
f 449/251/748 453/347/748 451/249/748
f 454/253/749 457/349/749 458/254/749
f 455/256/750 459/260/750 458/257/750
f 456/259/751 460/343/751 458/257/751
f 461/261/752 464/370/752 465/262/752
f 462/264/753 466/268/753 465/265/753
f 463/267/754 467/350/754 465/265/754
f 468/269/755 471/353/755 472/270/755
f 469/272/756 473/276/756 472/273/756
f 470/275/757 474/348/757 472/273/757
f 475/277/758 478/351/758 479/278/758
f 476/280/759 480/284/759 479/281/759
f 477/283/760 481/354/760 479/281/760
f 482/285/761 485/357/761 486/286/761
f 483/288/762 487/292/762 486/289/762
f 484/291/763 488/352/763 486/289/763
f 489/293/764 492/355/764 493/294/764
f 490/296/765 494/300/765 493/297/765
f 491/299/766 495/358/766 493/297/766
f 496/301/767 499/360/767 500/302/767
f 497/304/768 501/308/768 500/305/768
f 498/307/769 502/356/769 500/305/769
f 503/309/770 506/371/770 507/310/770
f 504/312/771 508/316/771 507/313/771
f 505/315/772 509/361/772 507/313/772
f 510/317/773 513/372/773 514/318/773
f 511/320/774 515/324/774 514/321/774
f 512/323/775 516/359/775 514/321/775
f 517/325/776 520/362/776 521/326/776
f 518/328/777 522/332/777 521/329/777
f 519/331/778 523/364/778 521/329/778
f 524/333/779 527/367/779 528/334/779
f 525/336/780 529/340/780 528/337/780
f 526/339/781 530/363/781 528/337/781
f 435/233/494 448/248/494 450/250/494
f 450/342/495 447/245/495 433/227/495
f 456/259/782 441/239/782 443/241/782
f 443/344/497 440/236/497 454/253/497
f 434/230/498 442/242/498 445/244/498
f 445/346/499 441/239/499 435/233/499
f 449/251/500 452/252/500 459/260/500
f 459/260/501 452/252/501 448/248/501
f 462/264/502 464/266/502 453/347/502
f 453/247/503 464/370/503 461/261/503
f 470/275/783 455/256/783 457/258/783
f 457/349/784 454/253/784 468/269/784
f 463/267/506 466/268/506 473/276/506
f 473/276/507 466/268/507 462/264/507
f 476/280/508 478/282/508 467/350/508
f 478/351/509 475/277/509 461/261/509
f 484/291/785 469/272/785 471/274/785
f 471/353/511 468/269/511 482/285/511
f 477/283/512 480/284/512 487/292/512
f 487/292/513 480/284/513 476/280/513
f 490/296/514 492/298/514 481/354/514
f 492/355/515 489/293/515 475/277/515
f 498/307/783 483/288/783 485/290/783
f 485/357/517 482/285/517 496/301/517
f 491/299/518 494/300/518 501/308/518
f 501/308/519 494/300/519 490/296/519
f 491/299/520 504/312/520 506/314/520
f 495/295/521 506/371/521 503/309/521
f 512/323/786 497/304/786 499/306/786
f 499/360/523 496/301/523 510/317/523
f 505/315/524 508/316/524 515/324/524
f 515/324/525 508/316/525 504/312/525
f 505/315/526 518/328/526 520/330/526
f 520/362/527 517/325/527 503/309/527
f 526/339/783 511/320/783 513/322/783
f 530/335/529 513/372/529 510/317/529
f 519/331/530 522/332/530 529/340/530
f 529/340/531 522/332/531 518/328/531
f 519/331/532 434/230/532 436/232/532
f 436/365/533 433/227/533 517/325/533
f 442/242/783 525/336/783 527/338/783
f 527/367/535 524/333/535 440/236/535
f 517/325/536 433/227/536 447/245/536
f 447/245/536 461/261/536 475/277/536
f 475/277/536 489/293/536 503/309/536
f 503/309/536 517/325/536 447/245/536
f 435/233/787 441/239/787 456/259/787
f 519/331/783 525/336/783 442/242/783
f 468/269/539 454/253/539 440/236/539
f 440/236/539 524/333/539 510/317/539
f 510/317/539 496/301/539 482/285/539
f 482/285/539 468/269/539 440/236/539
f 449/251/783 455/256/783 470/275/783
f 463/267/788 469/272/788 484/291/788
f 477/283/783 483/288/783 498/307/783
f 491/299/786 497/304/786 512/323/786
f 505/315/783 511/320/783 526/339/783
