# Blender 4.5.10 LTS
# www.blender.org
mtllib grove_heartwood_nest.mtl
o grove_heartwood_nest
v 0.008379 -0.091806 0.006264
v -0.058734 -0.039437 -0.042479
v 0.033240 -0.038802 -0.072444
v 0.090153 -0.037627 0.005767
v 0.033353 -0.037537 0.084070
v -0.058664 -0.038655 0.054251
v -0.018437 0.047110 -0.073102
v 0.073580 0.048228 -0.043283
v 0.073649 0.049010 0.053447
v -0.018324 0.048375 0.083413
v -0.075238 0.047200 0.005201
v 0.006537 0.101379 0.004704
v 0.023154 -0.077610 -0.039862
v -0.030907 -0.077983 -0.022249
v -0.016294 -0.046828 -0.068513
v -0.070314 -0.046741 0.005957
v -0.030866 -0.077523 0.034607
v 0.056606 -0.076919 0.006109
v 0.071220 -0.045764 -0.040154
v 0.023220 -0.076866 0.052134
v 0.071286 -0.045020 0.051842
v -0.016187 -0.045625 0.080340
v -0.080056 0.003723 -0.022874
v -0.080015 0.004183 0.033982
v 0.007392 0.004043 -0.086513
v -0.046670 0.003670 -0.068900
v 0.094931 0.005391 -0.023014
v 0.061478 0.004700 -0.068986
v 0.061585 0.005904 0.079868
v 0.094972 0.005850 0.033843
v -0.046562 0.004873 0.079954
v 0.007524 0.005530 0.097481
v -0.056370 0.054594 -0.040874
v 0.031103 0.055198 -0.069372
v 0.085230 0.056315 0.005012
v 0.031210 0.056401 0.079481
v -0.056304 0.055337 0.051123
v -0.008304 0.086439 -0.041166
v -0.041691 0.086492 0.004859
v 0.045782 0.087096 -0.023639
v 0.045823 0.087556 0.033217
v -0.008238 0.087183 0.050830
v 0.091856 -0.066000 -0.030262
v 0.092017 -0.065630 -0.030945
v 0.094959 -0.066955 -0.030307
v 0.091897 -0.065896 -0.030740
v 0.093613 -0.066617 -0.030675
v 0.094092 -0.066572 -0.030772
v 0.093978 -0.066833 -0.030290
v 0.104113 -0.039107 -0.031661
v 0.104301 -0.038713 -0.031000
v 0.107056 -0.040432 -0.031024
v 0.104240 -0.038833 -0.031472
v 0.105911 -0.039653 -0.031403
v 0.106321 -0.039770 -0.031021
v 0.106188 -0.040049 -0.031489
v 0.092787 -0.065164 0.016377
v 0.095891 -0.066119 0.016332
v 0.092975 -0.064770 0.017038
v 0.094910 -0.065997 0.016349
v 0.094560 -0.065767 0.016740
v 0.095042 -0.065719 0.016817
v 0.092848 -0.065044 0.016849
v 0.105232 -0.037877 0.015639
v 0.105071 -0.038247 0.016321
v 0.107987 -0.039596 0.015615
v 0.105191 -0.037980 0.016117
v 0.106858 -0.038803 0.016012
v 0.107139 -0.039196 0.016100
v 0.107253 -0.038934 0.015618
v -0.111512 0.026817 -0.027864
v -0.114267 0.028535 -0.027839
v -0.111351 0.027187 -0.028546
v -0.113532 0.027874 -0.027842
v -0.113137 0.027743 -0.028236
v -0.113418 0.028135 -0.028324
v -0.111470 0.026920 -0.028342
v -0.099067 0.054104 -0.028601
v -0.099255 0.053709 -0.029263
v -0.102170 0.055058 -0.028556
v -0.099128 0.053983 -0.029073
v -0.100840 0.054707 -0.028965
v -0.101322 0.054658 -0.029041
v -0.101189 0.054937 -0.028574
v -0.110580 0.027652 0.018776
v -0.110393 0.028046 0.019437
v -0.113335 0.029371 0.018800
v -0.110520 0.027773 0.019248
v -0.112190 0.028592 0.019179
v -0.112468 0.028988 0.019265
v -0.112601 0.028709 0.018797
v -0.098135 0.054939 0.018038
v -0.101239 0.055894 0.018083
v -0.098296 0.054569 0.018720
v -0.100258 0.055773 0.018066
v -0.099892 0.055557 0.018450
v -0.100371 0.055511 0.018548
v -0.098177 0.054836 0.018516
v 0.091503 -0.045555 -0.041839
v 0.091213 -0.045797 -0.042536
v 0.094435 -0.045887 -0.043193
v 0.091322 -0.045836 -0.042199
v 0.093071 -0.046080 -0.042789
v 0.093396 -0.046071 -0.043157
v 0.093600 -0.045900 -0.042664
v 0.087188 -0.027403 -0.064802
v 0.087361 -0.026631 -0.064746
v 0.090410 -0.027493 -0.065459
v 0.087215 -0.027067 -0.064918
v 0.088979 -0.027380 -0.065424
v 0.089493 -0.027131 -0.065383
v 0.089370 -0.027677 -0.065422
v 0.107558 -0.010402 -0.015700
v 0.110490 -0.010734 -0.017055
v 0.107731 -0.009630 -0.015644
v 0.109656 -0.010746 -0.016525
v 0.109393 -0.010342 -0.016215
v 0.109778 -0.010201 -0.016486
v 0.107704 -0.009966 -0.015528
v 0.103416 0.008522 -0.038607
v 0.103706 0.008764 -0.037910
v 0.106465 0.007660 -0.039320
v 0.103597 0.008803 -0.038247
v 0.105301 0.008358 -0.038851
v 0.105752 0.008193 -0.038751
v 0.105548 0.008023 -0.039244
v -0.116122 -0.004104 0.029944
v -0.119171 -0.003242 0.030657
v -0.116411 -0.004345 0.029247
v -0.118254 -0.003604 0.030581
v -0.118007 -0.003939 0.030188
v -0.118458 -0.003775 0.030088
v -0.116303 -0.004384 0.029584
v -0.120264 0.014820 0.007037
v -0.120437 0.014049 0.006981
v -0.123196 0.015152 0.008391
v -0.120410 0.014385 0.006864
v -0.122099 0.014761 0.007552
v -0.122484 0.014620 0.007822
v -0.122361 0.015165 0.007862
v -0.100067 0.031050 0.056082
v -0.099894 0.031821 0.056138
v -0.103115 0.031912 0.056795
v -0.099920 0.031486 0.056254
v -0.101685 0.031799 0.056761
v -0.102076 0.032095 0.056759
v -0.102199 0.031550 0.056719
v -0.104209 0.049974 0.033175
v -0.107141 0.050306 0.034530
v -0.103919 0.050216 0.033872
v -0.106306 0.050319 0.034000
v -0.105777 0.050499 0.034125
v -0.106102 0.050489 0.034493
v -0.104028 0.050255 0.033535
v 0.097931 0.002365 -0.063056
v 0.097840 0.001612 -0.063286
v 0.099972 0.002649 -0.065566
v 0.097979 0.001878 -0.063093
v 0.099255 0.002174 -0.064416
v 0.099422 0.002079 -0.064868
v 0.099487 0.002611 -0.064706
v 0.079083 -0.005982 -0.084281
v 0.078633 -0.005447 -0.084656
v 0.081215 -0.004945 -0.086561
v 0.078839 -0.005870 -0.084516
v 0.080185 -0.005546 -0.085761
v 0.080347 -0.005137 -0.086128
v 0.080665 -0.005515 -0.085863
v 0.085499 0.047049 -0.068111
v 0.087540 0.047333 -0.070620
v 0.085050 0.047583 -0.068486
v 0.087054 0.047295 -0.069760
v 0.086616 0.047602 -0.069555
v 0.086737 0.047673 -0.070025
v 0.085293 0.047472 -0.068251
v 0.066201 0.039237 -0.089711
v 0.066292 0.039990 -0.089481
v 0.068783 0.039740 -0.091615
v 0.066154 0.039724 -0.089674
v 0.067546 0.039882 -0.090899
v 0.067979 0.040079 -0.091020
v 0.067915 0.039547 -0.091183
v -0.062536 -0.024947 0.090187
v -0.065117 -0.025450 0.092091
v -0.062627 -0.025700 0.089957
v -0.064249 -0.025257 0.091659
v -0.063881 -0.025592 0.091375
v -0.064314 -0.025790 0.091496
v -0.062488 -0.025434 0.090150
v -0.081834 -0.032759 0.068587
v -0.081385 -0.033294 0.068962
v -0.083875 -0.033043 0.071096
v -0.081628 -0.033182 0.068727
v -0.082951 -0.033312 0.070031
v -0.083071 -0.033383 0.070501
v -0.083389 -0.033005 0.070236
v -0.074968 0.019737 0.085132
v -0.075417 0.020271 0.084757
v -0.077550 0.019234 0.087037
v -0.075174 0.020160 0.084992
v -0.076520 0.019835 0.086237
v -0.076999 0.019805 0.086339
v -0.076682 0.019427 0.086604
v -0.094266 0.011925 0.063532
v -0.096307 0.011641 0.066042
v -0.094175 0.012678 0.063762
v -0.095821 0.011679 0.065181
v -0.095590 0.012115 0.064892
v -0.095757 0.012211 0.065344
v -0.094314 0.012412 0.063569
v 0.066636 0.045485 -0.087261
v 0.067109 0.044854 -0.087343
v 0.067769 0.046430 -0.090154
v 0.067019 0.045180 -0.087229
v 0.067649 0.045915 -0.088819
v 0.067820 0.045848 -0.089274
v 0.067486 0.046294 -0.089216
v 0.058964 0.021291 -0.102467
v 0.058256 0.021243 -0.102821
v 0.059624 0.022867 -0.105278
v 0.058708 0.021137 -0.102661
v 0.059369 0.021960 -0.104195
v 0.059175 0.022251 -0.104649
v 0.059675 0.022285 -0.104399
v 0.025664 0.065707 -0.096700
v 0.026796 0.066652 -0.099593
v 0.024956 0.065659 -0.097054
v 0.026513 0.066516 -0.098655
v 0.025995 0.066473 -0.098415
v 0.026013 0.066482 -0.098905
v 0.025212 0.065813 -0.096860
v 0.017284 0.041465 -0.112260
v 0.016811 0.042096 -0.112178
v 0.018651 0.043089 -0.114717
v 0.016901 0.041770 -0.112292
v 0.017714 0.042518 -0.113791
v 0.017868 0.042919 -0.114030
v 0.018202 0.042473 -0.114088
v -0.020167 -0.043711 0.098449
v -0.021535 -0.045335 0.100906
v -0.019694 -0.044341 0.098367
v -0.021086 -0.044719 0.100277
v -0.020598 -0.044764 0.099980
v -0.020751 -0.045164 0.100219
v -0.019784 -0.044016 0.098482
v -0.028547 -0.067952 0.082889
v -0.027840 -0.067904 0.083243
v -0.029680 -0.068898 0.085782
v -0.028095 -0.068059 0.083049
v -0.028879 -0.068719 0.084604
v -0.028897 -0.068727 0.085095
v -0.029397 -0.068761 0.084844
v -0.061140 -0.023489 0.089011
v -0.061847 -0.023537 0.088657
v -0.062508 -0.025113 0.091468
v -0.061592 -0.023382 0.088851
v -0.062252 -0.024206 0.090384
v -0.062559 -0.024531 0.090588
v -0.062058 -0.024497 0.090838
v -0.069520 -0.047731 0.073451
v -0.070653 -0.048676 0.076343
v -0.069993 -0.047100 0.073532
v -0.070370 -0.048540 0.075406
v -0.070533 -0.048161 0.075008
v -0.070704 -0.048094 0.075464
v -0.069903 -0.047425 0.073418
v -0.053384 0.076827 -0.040112
v -0.053549 0.077095 -0.040701
v -0.052597 0.077876 -0.040080
v -0.053410 0.076896 -0.040515
v -0.052866 0.077374 -0.040410
v -0.052854 0.077638 -0.040493
v -0.052737 0.077448 -0.040076
v -0.068624 0.097253 -0.042950
v -0.068894 0.097566 -0.042425
v -0.067672 0.098034 -0.042329
v -0.068793 0.097465 -0.042810
v -0.068192 0.097868 -0.042696
v -0.068120 0.098017 -0.042371
v -0.067929 0.097796 -0.042742
v -0.057035 0.078411 -0.001436
v -0.056248 0.079460 -0.001405
v -0.057304 0.078724 -0.000911
v -0.056388 0.079032 -0.001400
v -0.056577 0.078985 -0.001091
v -0.056579 0.079254 -0.001029
v -0.057136 0.078512 -0.001052
v -0.072544 0.099150 -0.003749
v -0.072380 0.098882 -0.003160
v -0.071323 0.099618 -0.003653
v -0.072518 0.099081 -0.003346
v -0.071903 0.099478 -0.003377
v -0.071654 0.099412 -0.003278
v -0.071771 0.099601 -0.003695
v -0.123113 0.024186 -0.044538
v -0.124334 0.023718 -0.044634
v -0.123277 0.024454 -0.045127
v -0.123886 0.023735 -0.044592
v -0.123754 0.023858 -0.044910
v -0.124003 0.023924 -0.045009
v -0.123139 0.024255 -0.044941
v -0.138622 0.044925 -0.046851
v -0.138353 0.044612 -0.047376
v -0.139409 0.043876 -0.046882
v -0.138522 0.044824 -0.047235
v -0.139080 0.044351 -0.047196
v -0.139078 0.044082 -0.047258
v -0.139269 0.044304 -0.046887
v -0.126763 0.025770 -0.005862
v -0.127033 0.026083 -0.005337
v -0.127985 0.025302 -0.005958
v -0.126864 0.025871 -0.005477
v -0.127465 0.025468 -0.005591
v -0.127728 0.025540 -0.005545
v -0.127537 0.025319 -0.005916
v -0.142273 0.046509 -0.008175
v -0.143060 0.045460 -0.008207
v -0.142108 0.046241 -0.007586
v -0.142920 0.045888 -0.008211
v -0.142791 0.045961 -0.007877
v -0.142803 0.045698 -0.007794
v -0.142247 0.046440 -0.007772
v 0.129497 -0.095097 0.004484
v 0.129675 -0.094767 0.004008
v 0.130597 -0.095275 0.004535
v 0.129561 -0.094988 0.004136
v 0.130126 -0.095228 0.004219
v 0.130339 -0.095114 0.004173
v 0.130213 -0.095347 0.004509
v 0.140081 -0.073969 0.005845
v 0.140202 -0.073700 0.006374
v 0.141003 -0.074477 0.006373
v 0.140178 -0.073766 0.006011
v 0.140704 -0.074085 0.006087
v 0.140830 -0.074125 0.006384
v 0.140744 -0.074316 0.006010
v 0.127531 -0.097194 0.039357
v 0.128631 -0.097372 0.039409
v 0.127652 -0.096925 0.039886
v 0.128247 -0.097444 0.039383
v 0.128126 -0.097361 0.039673
v 0.128333 -0.097254 0.039757
v 0.127555 -0.097128 0.039720
v 0.138236 -0.075797 0.041248
v 0.138058 -0.076127 0.041724
v 0.139036 -0.076574 0.041246
v 0.138172 -0.075906 0.041595
v 0.138705 -0.076217 0.041541
v 0.138738 -0.076456 0.041594
v 0.138864 -0.076223 0.041258
v 0.063511 -0.061931 0.002758
v 0.062711 -0.061154 0.002759
v 0.063690 -0.061601 0.002282
v 0.062883 -0.061505 0.002748
v 0.063042 -0.061511 0.002465
v 0.063009 -0.061272 0.002411
v 0.063575 -0.061822 0.002410
v 0.074216 -0.040534 0.004648
v 0.074095 -0.040803 0.004120
v 0.073116 -0.040356 0.004597
v 0.074193 -0.040600 0.004285
v 0.073621 -0.040367 0.004333
v 0.073414 -0.040474 0.004249
v 0.073500 -0.040284 0.004623
v 0.061545 -0.064028 0.037631
v 0.061666 -0.063759 0.038160
v 0.060744 -0.063251 0.037633
v 0.061569 -0.063962 0.037994
v 0.061043 -0.063643 0.037918
v 0.061003 -0.063412 0.037995
v 0.060917 -0.063603 0.037622
v 0.072250 -0.042631 0.039522
v 0.071150 -0.042453 0.039471
v 0.072072 -0.042961 0.039998
v 0.071534 -0.042381 0.039497
v 0.071622 -0.042500 0.039786
v 0.071408 -0.042615 0.039833
v 0.072186 -0.042741 0.039869
vn -0.0982 -0.9419 -0.3213
vn -0.7090 -0.6524 -0.2679
vn 0.2887 -0.9372 -0.1960
vn 0.2889 -0.9339 0.2107
vn -0.0977 -0.9365 0.3367
vn -0.9068 -0.3271 -0.2661
vn -0.0225 -0.3241 -0.9457
vn 0.8970 -0.3103 -0.3149
vn 0.5811 -0.3047 0.7547
vn -0.5337 -0.3150 0.7848
vn -0.8024 -0.1321 -0.5819
vn 0.3072 -0.1244 -0.9435
vn 0.9939 -0.1103 0.0002
vn 0.3086 -0.1092 0.9449
vn -0.8016 -0.1227 0.5851
vn -0.4241 0.6342 -0.6465
vn 0.4746 0.6431 -0.6009
vn 0.7090 0.6524 0.2679
vn -0.0449 0.6492 0.7593
vn -0.7452 0.6379 0.1942
vn -0.2887 0.9372 0.1960
vn -0.5134 0.7781 0.3619
vn -0.4232 0.6446 0.6367
vn 0.0982 0.9419 0.3213
vn 0.1863 0.7867 0.5886
vn 0.4755 0.6528 0.5898
vn 0.3370 0.9415 -0.0079
vn 0.6182 0.7860 -0.0068
vn 0.7086 0.6480 -0.2794
vn 0.0977 0.9365 -0.3367
vn 0.1855 0.7770 -0.6015
vn -0.0460 0.6368 -0.7696
vn -0.2889 0.9339 -0.2107
vn -0.5139 0.7722 -0.3737
vn -0.7455 0.6347 -0.2034
vn -0.8970 0.3103 0.3149
vn -0.7972 0.1760 0.5775
vn -0.5800 0.3168 0.7505
vn 0.0225 0.3241 0.9457
vn 0.3030 0.1894 0.9340
vn 0.5348 0.3277 0.7788
vn 0.9068 0.3271 0.2661
vn 0.9821 0.1883 -0.0022
vn 0.9064 0.3227 -0.2727
vn 0.5337 0.3150 -0.7848
vn 0.3016 0.1743 -0.9374
vn 0.0212 0.3088 -0.9509
vn -0.5811 0.3047 -0.7547
vn -0.7980 0.1667 -0.5791
vn -0.8974 0.3052 -0.3185
vn -0.3072 0.1244 0.9435
vn -0.3016 -0.1743 0.9374
vn -0.0212 -0.3088 0.9509
vn 0.8024 0.1321 0.5819
vn 0.7980 -0.1667 0.5791
vn 0.8974 -0.3052 0.3185
vn 0.8016 0.1227 -0.5851
vn 0.7972 -0.1760 -0.5775
vn 0.5800 -0.3168 -0.7505
vn -0.3086 0.1092 -0.9449
vn -0.3030 -0.1894 -0.9340
vn -0.5348 -0.3277 -0.7788
vn -0.9939 0.1103 -0.0002
vn -0.9821 -0.1883 0.0022
vn -0.9064 -0.3227 0.2727
vn -0.4746 -0.6431 0.6009
vn -0.1855 -0.7770 0.6015
vn 0.0460 -0.6368 0.7696
vn 0.4241 -0.6342 0.6465
vn 0.5139 -0.7722 0.3737
vn 0.7455 -0.6347 0.2034
vn 0.7452 -0.6379 -0.1942
vn 0.5134 -0.7781 -0.3619
vn 0.4232 -0.6446 -0.6367
vn -0.7086 -0.6480 0.2794
vn -0.6182 -0.7860 0.0068
vn -0.3370 -0.9415 0.0079
vn 0.0449 -0.6492 -0.7593
vn -0.1863 -0.7867 -0.5886
vn -0.4755 -0.6528 -0.5898
vn -0.3621 -0.9163 -0.1710
vn -0.1952 -0.5395 -0.8190
vn -0.1154 -0.8615 -0.4945
vn 0.2396 0.3633 -0.9003
vn 0.4327 0.8587 -0.2745
vn 0.5643 0.6289 -0.5348
vn -0.3598 -0.8920 0.2737
vn -0.0950 -0.8431 0.5292
vn -0.0998 -0.4271 0.8987
vn 0.4583 0.8724 0.1699
vn 0.2957 0.4937 0.8178
vn 0.5848 0.6473 0.4890
vn -0.4427 -0.8677 -0.2261
vn -0.5848 -0.6473 -0.4890
vn -0.2751 -0.3951 -0.8765
vn 0.3543 0.9094 -0.2180
vn 0.1620 0.5097 -0.8450
vn 0.0950 0.8431 -0.5292
vn -0.4506 -0.8654 0.2191
vn -0.2624 -0.4639 0.8461
vn -0.5643 -0.6289 0.5348
vn 0.3698 0.9010 0.2270
vn 0.1154 0.8615 0.4945
vn 0.1353 0.4589 0.8781
vn -0.3651 -0.9306 0.0240
vn -0.1224 -0.9923 0.0202
vn 0.0585 -0.0536 -0.9969
vn 0.3915 -0.2028 -0.8976
vn 0.4633 0.8858 -0.0251
vn 0.6689 0.7429 -0.0267
vn 0.0982 -0.0179 0.9950
vn 0.4271 -0.1708 0.8879
vn -0.3966 -0.8760 0.2743
vn -0.2125 -0.4875 0.8468
vn 0.4066 0.8850 0.2267
vn 0.2458 0.5174 0.8197
vn -0.3915 0.2028 0.8976
vn -0.0585 0.0536 0.9969
vn -0.4633 -0.8858 0.0251
vn -0.6689 -0.7429 0.0267
vn 0.3652 0.9306 -0.0240
vn 0.1224 0.9923 -0.0202
vn -0.0982 0.0179 -0.9950
vn -0.4271 0.1708 -0.8879
vn -0.4066 -0.8850 -0.2267
vn -0.2458 -0.5174 -0.8197
vn 0.3966 0.8760 -0.2743
vn 0.2125 0.4875 -0.8468
vn -0.4148 -0.9096 0.0246
vn 0.9097 -0.4152 -0.0107
vn -0.0200 -0.0179 -0.9996
vn 0.4148 0.9096 -0.0246
vn 0.0200 0.0179 0.9996
vn -0.9097 0.4152 0.0107
vn 0.1174 -0.7743 0.6219
vn -0.1590 -0.9853 -0.0628
vn 0.1765 -0.9505 0.2559
vn -0.2969 -0.3989 -0.8676
vn -0.1825 0.4141 -0.8918
vn -0.0497 0.0831 -0.9953
vn 0.2570 -0.4289 0.8660
vn 0.5289 -0.1788 0.8296
vn 0.4396 0.3703 0.8183
vn -0.0191 0.7546 -0.6559
vn 0.2615 0.9648 0.0274
vn 0.3027 0.8548 -0.4216
vn 0.0101 -0.7914 0.6112
vn -0.3027 -0.8548 0.4215
vn -0.3148 -0.9405 -0.1281
vn -0.2513 0.4811 -0.8399
vn -0.4138 -0.2689 -0.8697
vn -0.5289 0.1788 -0.8296
vn 0.1530 -0.4614 0.8739
vn 0.3113 0.2894 0.9052
vn 0.0497 -0.0832 0.9953
vn -0.0846 0.8063 -0.5854
vn -0.1765 0.9505 -0.2559
vn 0.1721 0.9690 0.1774
vn 0.1880 -0.6399 0.7451
vn 0.4106 -0.6574 0.6319
vn -0.2629 -0.7666 -0.5858
vn 0.1106 -0.7563 -0.6448
vn -0.0878 0.6199 -0.7798
vn 0.1473 0.5460 -0.8248
vn 0.4228 0.7347 0.5305
vn 0.7252 0.5895 0.3558
vn 0.2199 -0.4218 0.8796
vn 0.3631 0.2796 0.8888
vn -0.0474 0.7995 -0.5988
vn 0.2106 0.9765 0.0452
vn -0.1106 0.7563 0.6448
vn 0.2629 0.7666 0.5858
vn 0.0877 -0.6199 0.7798
vn -0.1473 -0.5460 0.8248
vn -0.1880 0.6399 -0.7451
vn -0.4106 0.6574 -0.6319
vn -0.4228 -0.7347 -0.5305
vn -0.7252 -0.5895 -0.3558
vn 0.0474 -0.7995 0.5988
vn -0.2106 -0.9765 -0.0452
vn -0.2199 0.4218 -0.8796
vn -0.3631 -0.2796 -0.8888
vn 0.1381 -0.6308 0.7636
vn 0.9287 -0.1854 -0.3211
vn -0.3441 -0.7535 -0.5602
vn -0.1381 0.6308 -0.7636
vn 0.3441 0.7535 0.5602
vn -0.9287 0.1854 0.3211
vn 0.7199 0.0752 0.6900
vn 0.6162 -0.6467 0.4495
vn 0.8486 -0.2455 0.4685
vn 0.0012 -0.9595 -0.2818
vn -0.5267 -0.4868 -0.6968
vn -0.2054 -0.6723 -0.7113
vn 0.5843 0.4966 0.6418
vn 0.5758 0.7353 0.3576
vn 0.1090 0.9782 0.1765
vn -0.6439 -0.0623 -0.7626
vn -0.5370 0.6602 -0.5251
vn -0.4783 0.3086 -0.8222
vn 0.6602 0.0071 0.7511
vn 0.4783 -0.3086 0.8222
vn 0.4724 -0.7429 0.4743
vn -0.6162 -0.4479 -0.6479
vn -0.1727 -0.9475 -0.2691
vn -0.5758 -0.7353 -0.3576
vn 0.5402 0.4350 0.7204
vn 0.0934 0.9340 0.3448
vn 0.2054 0.6722 0.7113
vn -0.7177 -0.0170 -0.6961
vn -0.8486 0.2455 -0.4685
vn -0.5827 0.7241 -0.3690
vn 0.6810 0.2666 0.6820
vn 0.8292 0.2851 0.4809
vn 0.3273 -0.9437 0.0489
vn 0.5609 -0.8003 -0.2117
vn -0.6036 -0.2534 -0.7559
vn -0.3980 -0.2117 -0.8926
vn -0.2037 0.9647 -0.1670
vn 0.0850 0.9103 -0.4052
vn 0.5559 0.4921 0.6699
vn 0.1332 0.9422 0.3074
vn -0.6895 -0.0120 -0.7242
vn -0.5775 0.6545 -0.4881
vn -0.5609 0.8003 0.2117
vn -0.3273 0.9437 -0.0489
vn 0.6036 0.2534 0.7559
vn 0.3980 0.2117 0.8926
vn -0.6811 -0.2666 -0.6820
vn -0.8292 -0.2851 -0.4809
vn 0.2037 -0.9647 0.1670
vn -0.0850 -0.9103 0.4052
vn 0.6895 0.0121 0.7242
vn 0.5775 -0.6545 0.4881
vn -0.5560 -0.4921 -0.6699
vn -0.1332 -0.9422 -0.3074
vn 0.6433 0.2604 0.7200
vn 0.7178 0.1222 -0.6855
vn 0.2665 -0.9577 0.1083
vn -0.6433 -0.2604 -0.7200
vn -0.2665 0.9577 -0.1083
vn -0.7178 -0.1222 0.6855
vn 0.4650 0.7282 0.5034
vn 0.9064 0.1070 0.4086
vn 0.7787 0.5430 0.3142
vn 0.6841 -0.7198 -0.1184
vn -0.0347 -0.8742 -0.4844
vn 0.3210 -0.7810 -0.5357
vn 0.0659 0.9062 0.4177
vn -0.1207 0.9869 0.1070
vn -0.6244 0.7811 -0.0092
vn -0.4239 -0.6860 -0.5913
vn -0.8635 -0.0629 -0.5003
vn -0.5784 -0.3372 -0.7428
vn 0.4745 0.6571 0.5857
vn 0.5783 0.3372 0.7428
vn 0.8769 -0.0507 0.4780
vn -0.1233 -0.8969 -0.4247
vn 0.5554 -0.8285 -0.0718
vn 0.1207 -0.9869 -0.1070
vn 0.0822 0.8547 0.5126
vn -0.5983 0.7844 0.1636
vn -0.3210 0.7810 0.5356
vn -0.5057 -0.6891 -0.5190
vn -0.7787 -0.5430 -0.3142
vn -0.9365 -0.0107 -0.3504
vn 0.2999 0.8284 0.4731
vn 0.3831 0.8906 0.2452
vn 0.9084 -0.3975 0.1300
vn 0.9590 -0.2076 -0.1931
vn -0.2580 -0.7854 -0.5627
vn -0.1498 -0.6509 -0.7442
vn -0.8415 0.4662 -0.2731
vn -0.6096 0.5666 -0.5544
vn 0.0503 0.8909 0.4514
vn -0.5777 0.8077 0.1179
vn -0.4905 -0.6737 -0.5528
vn -0.8863 -0.0851 -0.4552
vn -0.9590 0.2075 0.1931
vn -0.9084 0.3975 -0.1300
vn 0.2580 0.7854 0.5627
vn 0.1498 0.6509 0.7442
vn -0.2999 -0.8284 -0.4731
vn -0.3831 -0.8906 -0.2452
vn 0.8415 -0.4662 0.2731
vn 0.6096 -0.5666 0.5544
vn 0.4905 0.6737 0.5528
vn 0.8863 0.0851 0.4552
vn -0.0503 -0.8909 -0.4514
vn 0.5777 -0.8077 -0.1179
vn 0.2793 0.8081 0.5187
vn 0.3883 0.3990 -0.8307
vn 0.8782 -0.4334 0.2023
vn -0.2793 -0.8081 -0.5187
vn -0.8782 0.4334 -0.2023
vn -0.3883 -0.3990 0.8307
vn 0.6919 -0.7140 -0.1074
vn 0.4913 -0.3886 -0.7795
vn 0.8783 -0.2927 -0.3781
vn -0.0453 0.4078 -0.9120
vn -0.4791 0.8098 -0.3387
vn 0.0148 0.8619 -0.5068
vn 0.6199 -0.7035 0.3477
vn 0.7900 -0.2544 0.5579
vn 0.3054 -0.2114 0.9285
vn -0.5063 0.8541 0.1192
vn -0.3027 0.5309 0.7915
vn -0.0736 0.9002 0.4291
vn 0.5277 -0.8309 -0.1765
vn 0.0736 -0.9003 -0.4291
vn 0.2117 -0.4800 -0.8513
vn -0.6541 0.6976 -0.2923
vn -0.3340 0.3204 -0.8865
vn -0.7900 0.2544 -0.5579
vn 0.4686 -0.8377 0.2805
vn 0.1454 -0.4627 0.8745
vn -0.0148 -0.8619 0.5069
vn -0.6685 0.7246 0.1676
vn -0.8783 0.2927 0.3780
vn -0.4718 0.2836 0.8348
vn 0.6870 -0.7205 0.0944
vn 0.9453 -0.3100 0.1019
vn 0.2367 0.0689 -0.9691
vn 0.6471 0.4124 -0.6412
vn -0.4976 0.8635 -0.0823
vn -0.0333 0.9985 -0.0440
vn 0.0520 0.1490 0.9875
vn 0.5191 0.4680 0.7152
vn 0.5516 -0.7596 0.3446
vn 0.2414 -0.3943 0.8867
vn -0.6004 0.7808 0.1727
vn -0.3998 0.4630 0.7911
vn -0.6471 -0.4124 0.6412
vn -0.2367 -0.0689 0.9691
vn 0.4976 -0.8635 0.0823
vn 0.0333 -0.9985 0.0440
vn -0.6870 0.7205 -0.0944
vn -0.9453 0.3100 -0.1019
vn -0.0520 -0.1490 -0.9875
vn -0.5191 -0.4680 -0.7152
vn 0.6004 -0.7808 -0.1727
vn 0.3998 -0.4631 -0.7910
vn -0.5516 0.7596 -0.3445
vn -0.2414 0.3943 -0.8867
vn 0.5965 -0.7976 0.0890
vn 0.7971 0.6018 0.0506
vn 0.0939 -0.0407 -0.9947
vn -0.5965 0.7976 -0.0890
vn -0.0939 0.0407 0.9947
vn -0.7971 -0.6018 -0.0506
vn -0.3079 -0.9098 -0.2784
vn -0.0729 -0.4732 -0.8779
vn 0.1914 -0.8388 -0.5096
vn 0.3947 0.3528 -0.8484
vn 0.5289 0.8280 -0.1862
vn 0.8182 0.4140 -0.3990
vn -0.3568 -0.9145 0.1907
vn 0.1387 -0.8950 0.4240
vn -0.0832 -0.5093 0.8565
vn 0.5346 0.7958 0.2843
vn 0.2995 0.3593 0.8839
vn 0.7656 0.3578 0.5347
vn -0.4991 -0.7963 -0.3418
vn -0.7656 -0.3579 -0.5346
vn -0.2949 -0.2462 -0.9233
vn 0.3310 0.9344 -0.1314
vn 0.1675 0.5742 -0.8014
vn -0.1387 0.8950 -0.4240
vn -0.5578 -0.8205 0.1256
vn -0.3942 -0.4603 0.7955
vn -0.8182 -0.4140 0.3990
vn 0.3270 0.8827 0.3374
vn -0.1914 0.8388 0.5097
vn -0.0167 0.4028 0.9151
vn -0.3264 -0.9422 -0.0751
vn 0.1868 -0.9812 -0.0485
vn 0.2271 -0.0276 -0.9735
vn 0.7094 -0.2985 -0.6384
vn 0.5581 0.8258 0.0811
vn 0.8963 0.4368 0.0768
vn 0.1168 -0.1453 0.9825
vn 0.6354 -0.3774 0.6736
vn -0.4449 -0.8753 0.1894
vn -0.2831 -0.5214 0.8050
vn 0.4150 0.8434 0.3412
vn 0.1877 0.4196 0.8881
vn -0.7094 0.2985 0.6385
vn -0.2271 0.0276 0.9735
vn -0.5581 -0.8258 -0.0811
vn -0.8963 -0.4368 -0.0768
vn 0.3264 0.9422 0.0751
vn -0.1868 0.9812 0.0485
vn -0.1168 0.1453 -0.9825
vn -0.6354 0.3774 -0.6736
vn -0.4150 -0.8434 -0.3412
vn -0.1877 -0.4196 -0.8881
vn 0.4449 0.8753 -0.1894
vn 0.2831 0.5214 -0.8050
vn -0.4460 -0.8915 -0.0788
vn 0.8932 -0.4490 0.0234
vn 0.0562 0.0599 -0.9966
vn 0.4460 0.8915 0.0788
vn -0.0562 -0.0599 0.9966
vn -0.8932 0.4490 -0.0234
vn -0.3698 -0.9010 -0.2270
vn -0.1353 -0.4589 -0.8781
vn -0.0143 -0.8775 -0.4794
vn 0.2624 0.4639 -0.8461
vn 0.4506 0.8654 -0.2191
vn 0.6431 0.5638 -0.5183
vn -0.3543 -0.9094 0.2180
vn 0.0055 -0.8598 0.5107
vn -0.1620 -0.5097 0.8450
vn 0.4427 0.8677 0.2261
vn 0.2751 0.3951 0.8765
vn 0.6628 0.5815 0.4717
vn -0.4583 -0.8724 -0.1698
vn -0.6628 -0.5815 -0.4717
vn -0.2956 -0.4937 -0.8178
vn 0.3598 0.8920 -0.2737
vn 0.0999 0.4271 -0.8987
vn -0.0055 0.8598 -0.5106
vn -0.4327 -0.8587 0.2745
vn -0.2396 -0.3633 0.9003
vn -0.6431 -0.5638 0.5183
vn 0.3621 0.9163 0.1710
vn 0.0143 0.8775 0.4793
vn 0.1952 0.5395 0.8190
vn -0.3652 -0.9306 0.0240
vn -0.1225 -0.9923 0.0202
vn 0.1225 0.9923 -0.0202
vn 0.3966 0.8761 -0.2743
vn 0.0846 -0.8063 0.5854
vn -0.1721 -0.9690 -0.1775
vn 0.2700 -0.9390 0.2131
vn -0.3113 -0.2894 -0.9052
vn -0.1530 0.4614 -0.8739
vn 0.0513 0.0606 -0.9968
vn 0.2513 -0.4811 0.8399
vn 0.6108 -0.1928 0.7679
vn 0.4138 0.2689 0.8697
vn -0.0101 0.7914 -0.6112
vn 0.3148 0.9405 0.1281
vn 0.3921 0.8068 -0.4420
vn 0.0191 -0.7546 0.6559
vn -0.3921 -0.8068 0.4420
vn -0.2615 -0.9648 -0.0274
vn -0.2570 0.4289 -0.8660
vn -0.4396 -0.3703 -0.8183
vn -0.6109 0.1928 -0.7679
vn 0.1825 -0.4141 0.8918
vn 0.2969 0.3988 0.8677
vn -0.0513 -0.0606 0.9968
vn -0.1174 0.7743 -0.6219
vn -0.2700 0.9390 -0.2131
vn 0.1590 0.9853 0.0628
vn -0.0877 0.6199 -0.7798
vn 0.7177 0.0169 0.6961
vn 0.5827 -0.7241 0.3690
vn 0.8975 -0.2244 0.3797
vn -0.0934 -0.9340 -0.3448
vn -0.5402 -0.4349 -0.7204
vn -0.1218 -0.6370 -0.7612
vn 0.6162 0.4479 0.6479
vn 0.6336 0.7241 0.2725
vn 0.1727 0.9475 0.2691
vn -0.6602 -0.0071 -0.7511
vn -0.4724 0.7429 -0.4743
vn -0.3857 0.3115 -0.8684
vn 0.6439 0.0623 0.7626
vn 0.3857 -0.3115 0.8684
vn 0.5370 -0.6602 0.5252
vn -0.5843 -0.4966 -0.6418
vn -0.1090 -0.9782 -0.1765
vn -0.6336 -0.7241 -0.2725
vn 0.5267 0.4868 0.6968
vn -0.0012 0.9595 0.2818
vn 0.1218 0.6370 0.7611
vn -0.7199 -0.0752 -0.6900
vn -0.8975 0.2244 -0.3797
vn -0.6162 0.6467 -0.4495
vn 0.6811 0.2666 0.6820
vn 0.5560 0.4921 0.6699
vn 0.1333 0.9422 0.3075
vn -0.6895 -0.0121 -0.7242
vn -0.6810 -0.2666 -0.6820
vn -0.1332 -0.9422 -0.3075
vn 0.5057 0.6891 0.5191
vn 0.9365 0.0107 0.3504
vn 0.7946 0.5678 0.2150
vn 0.5983 -0.7844 -0.1636
vn -0.0822 -0.8547 -0.5126
vn 0.3520 -0.7126 -0.6069
vn 0.1233 0.8969 0.4247
vn -0.0751 0.9971 0.0146
vn -0.5554 0.8285 0.0719
vn -0.4745 -0.6571 -0.5857
vn -0.8769 0.0507 -0.4780
vn -0.5178 -0.2834 -0.8072
vn 0.4239 0.6860 0.5913
vn 0.5178 0.2834 0.8072
vn 0.8635 0.0630 0.5003
vn -0.0659 -0.9062 -0.4177
vn 0.6244 -0.7810 0.0092
vn 0.0751 -0.9971 -0.0146
vn 0.0347 0.8742 0.4844
vn -0.6840 0.7198 0.1184
vn -0.3520 0.7126 0.6069
vn -0.4650 -0.7282 -0.5034
vn -0.7946 -0.5678 -0.2150
vn -0.9064 -0.1070 -0.4086
vn -0.9590 0.2076 0.1931
vn 0.4905 0.6736 0.5528
vn 0.6685 -0.7246 -0.1676
vn 0.4718 -0.2836 -0.8348
vn 0.9341 -0.1444 -0.3264
vn -0.1454 0.4627 -0.8745
vn -0.4686 0.8377 -0.2806
vn 0.1665 0.8820 -0.4408
vn 0.6541 -0.6976 0.2923
vn 0.8556 -0.1104 0.5057
vn 0.3340 -0.3203 0.8865
vn -0.5277 0.8309 0.1765
vn -0.2117 0.4800 0.8514
vn 0.0880 0.9161 0.3912
vn 0.5063 -0.8541 -0.1192
vn -0.0879 -0.9161 -0.3912
vn 0.3027 -0.5309 -0.7915
vn -0.6198 0.7035 -0.3476
vn -0.3053 0.2114 -0.9285
vn -0.8556 0.1103 -0.5057
vn 0.4791 -0.8098 0.3387
vn 0.0453 -0.4078 0.9120
vn -0.1665 -0.8820 0.4409
vn -0.6919 0.7140 0.1074
vn -0.9341 0.1445 0.3264
vn -0.4912 0.3886 0.7795
vn 0.5516 -0.7596 0.3445
vn 0.3998 -0.4630 -0.7911
vn -0.3271 -0.8827 -0.3374
vn 0.0167 -0.4028 -0.9151
vn 0.3479 -0.8265 -0.4426
vn 0.3941 0.4603 -0.7955
vn 0.5578 0.8205 -0.1255
vn 0.8980 0.2727 -0.3454
vn -0.3310 -0.9344 0.1314
vn 0.3018 -0.8758 0.3768
vn -0.1676 -0.5742 0.8014
vn 0.4991 0.7963 0.3419
vn 0.2948 0.2462 0.9233
vn 0.8518 0.2236 0.4738
vn -0.5346 -0.7958 -0.2843
vn -0.8518 -0.2235 -0.4739
vn -0.2995 -0.3593 -0.8839
vn 0.3568 0.9145 -0.1907
vn 0.0832 0.5094 -0.8565
vn -0.3017 0.8758 -0.3768
vn -0.5289 -0.8280 0.1862
vn -0.3948 -0.3528 0.8484
vn -0.8979 -0.2728 0.3454
vn 0.3079 0.9098 0.2784
vn -0.3480 0.8265 0.4425
vn 0.0728 0.4732 0.8780
vn -0.2831 -0.5214 0.8049
vn -0.7094 0.2985 0.6384
vn -0.1869 0.9812 0.0485
vn 0.4449 0.8753 -0.1893
vt 0.181819 0.000000
vt 0.227273 0.078731
vt 0.136365 0.078731
vt 0.272728 0.157461
vt 0.318182 0.078731
vt 0.363637 0.157461
vt 0.909091 0.000000
vt 0.954545 0.078731
vt 0.863636 0.078731
vt 0.727273 0.000000
vt 0.772727 0.078731
vt 0.681818 0.078731
vt 0.545455 0.000000
vt 0.590909 0.078731
vt 0.500000 0.078731
vt 0.318182 0.236191
vt 0.090910 0.157461
vt 0.181819 0.157461
vt 0.136365 0.236191
vt 0.818182 0.157461
vt 0.909091 0.157461
vt 0.863636 0.236191
vt 0.636364 0.157461
vt 0.727273 0.157461
vt 0.681818 0.236191
vt 0.454546 0.157461
vt 0.545455 0.157461
vt 0.500000 0.236191
vt 0.227273 0.236191
vt 0.045455 0.236191
vt 0.772727 0.236191
vt 0.590909 0.236191
vt 0.409092 0.236191
vt 0.181819 0.314921
vt 0.272728 0.314921
vt 0.227273 0.393651
vt 0.000000 0.314921
vt 0.090910 0.314921
vt 0.045455 0.393651
vt 0.727273 0.314921
vt 0.818182 0.314921
vt 0.772727 0.393651
vt 0.545455 0.314921
vt 0.636364 0.314921
vt 0.590909 0.393651
vt 0.363637 0.314921
vt 0.454546 0.314921
vt 0.409092 0.393651
vt 0.500000 0.393651
vt 0.454546 0.472382
vt 0.681818 0.393651
vt 0.636364 0.472382
vt 0.863636 0.393651
vt 0.818182 0.472382
vt 0.909091 0.314921
vt 0.136365 0.393651
vt 0.090910 0.472382
vt 0.318182 0.393651
vt 0.272728 0.472382
vt 0.954545 0.236191
vt 1.000000 0.157461
vt 0.409092 0.078731
vt 0.363637 0.000000
vt 0.128500 0.746500
vt 0.126479 0.750000
vt 0.125000 0.746500
vt 0.378500 0.996500
vt 0.376479 1.000000
vt 0.375000 0.996500
vt 0.375000 0.003500
vt 0.378500 0.000000
vt 0.378500 0.003500
vt 0.621500 0.996500
vt 0.625000 0.998521
vt 0.621500 1.000000
vt 0.871500 0.746500
vt 0.875000 0.748521
vt 0.871500 0.750000
vt 0.621500 0.000000
vt 0.625000 0.003500
vt 0.621500 0.003500
vt 0.128500 0.503500
vt 0.125000 0.501479
vt 0.128500 0.500000
vt 0.378500 0.250000
vt 0.375000 0.246500
vt 0.378500 0.246500
vt 0.378500 0.253500
vt 0.375740 0.250740
vt 0.871500 0.503500
vt 0.873521 0.500000
vt 0.875000 0.503500
vt 0.621500 0.253500
vt 0.624260 0.249260
vt 0.625000 0.253500
vt 0.625000 0.246500
vt 0.621500 0.250000
vt 0.621500 0.246500
vt 0.371500 0.746500
vt 0.375493 0.750000
vt 0.373250 0.751750
vt 0.378500 0.750000
vt 0.375000 0.746500
vt 0.378500 0.746500
vt 0.378500 0.753500
vt 0.628500 0.746500
vt 0.625000 0.749507
vt 0.625000 0.746500
vt 0.621500 0.753500
vt 0.626750 0.751750
vt 0.621500 0.750000
vt 0.621500 0.746500
vt 0.371500 0.503500
vt 0.375000 0.500493
vt 0.375000 0.503500
vt 0.378500 0.496500
vt 0.373250 0.498250
vt 0.378500 0.500000
vt 0.378500 0.503500
vt 0.628500 0.503500
vt 0.624507 0.500000
vt 0.626750 0.498250
vt 0.621500 0.500000
vt 0.625000 0.503500
vt 0.621500 0.503500
vt 0.621500 0.496500
vt 0.125000 0.503500
vt 0.378500 1.000000
vt 0.875000 0.746500
vt 0.871500 0.500000
vt 0.128500 0.750000
vt 0.871500 0.746500
vt 0.378500 0.250000
vt 0.871500 0.503500
vt 0.378500 0.753500
vt 0.371500 0.503500
vt 0.626750 0.498250
vt 0.375000 0.253500
vt 0.621500 0.253500
vt 0.621500 0.496500
vt 0.378500 0.246500
vt 0.378500 0.253500
vt 0.871500 0.503500
vt 0.378500 0.746500
vt 0.625000 0.746500
vt 0.621500 0.746500
vt 0.621500 0.746500
vt 0.128500 0.503500
vt 0.871500 0.503500
vt 0.621500 0.246500
vt 0.621500 0.753500
vt 0.625000 0.996500
vt 0.375000 0.001479
vt 0.623521 0.000000
s 0
usemtl core
f 1/1/1 14/2/1 13/3/1
f 2/4/2 14/5/2 16/6/2
f 1/7/3 13/8/3 18/9/3
f 1/10/4 18/11/4 20/12/4
f 1/13/5 20/14/5 17/15/5
f 2/4/6 16/6/6 23/16/6
f 3/17/7 15/18/7 25/19/7
f 4/20/8 19/21/8 27/22/8
f 5/23/9 21/24/9 29/25/9
f 6/26/10 22/27/10 31/28/10
f 2/4/11 23/16/11 26/29/11
f 3/17/12 25/19/12 28/30/12
f 4/20/13 27/22/13 30/31/13
f 5/23/14 29/25/14 32/32/14
f 6/26/15 31/28/15 24/33/15
f 7/34/16 33/35/16 38/36/16
f 8/37/17 34/38/17 40/39/17
f 9/40/18 35/41/18 41/42/18
f 10/43/19 36/44/19 42/45/19
f 11/46/20 37/47/20 39/48/20
f 39/48/21 42/49/21 12/50/21
f 39/48/22 37/47/22 42/49/22
f 37/47/23 10/43/23 42/49/23
f 42/45/24 41/51/24 12/52/24
f 42/45/25 36/44/25 41/51/25
f 36/44/26 9/40/26 41/51/26
f 41/42/27 40/53/27 12/54/27
f 41/42/28 35/41/28 40/53/28
f 35/41/29 8/55/29 40/53/29
f 40/39/30 38/56/30 12/57/30
f 40/39/31 34/38/31 38/56/31
f 34/38/32 7/34/32 38/56/32
f 38/36/33 39/58/33 12/59/33
f 38/36/34 33/35/34 39/58/34
f 33/35/35 11/46/35 39/58/35
f 24/33/36 37/47/36 11/46/36
f 24/33/37 31/28/37 37/47/37
f 31/28/38 10/43/38 37/47/38
f 32/32/39 36/44/39 10/43/39
f 32/32/40 29/25/40 36/44/40
f 29/25/41 9/40/41 36/44/41
f 30/31/42 35/41/42 9/40/42
f 30/31/43 27/22/43 35/41/43
f 27/22/44 8/55/44 35/41/44
f 28/30/45 34/38/45 8/37/45
f 28/30/46 25/19/46 34/38/46
f 25/19/47 7/34/47 34/38/47
f 26/29/48 33/35/48 7/34/48
f 26/29/49 23/16/49 33/35/49
f 23/16/50 11/46/50 33/35/50
f 31/28/51 32/32/51 10/43/51
f 31/28/52 22/27/52 32/32/52
f 22/27/53 5/23/53 32/32/53
f 29/25/54 30/31/54 9/40/54
f 29/25/55 21/24/55 30/31/55
f 21/24/56 4/20/56 30/31/56
f 27/22/57 28/60/57 8/55/57
f 27/22/58 19/21/58 28/60/58
f 19/21/59 3/61/59 28/60/59
f 25/19/60 26/29/60 7/34/60
f 25/19/61 15/18/61 26/29/61
f 15/18/62 2/4/62 26/29/62
f 23/16/63 24/33/63 11/46/63
f 23/16/64 16/6/64 24/33/64
f 16/6/65 6/26/65 24/33/65
f 17/15/66 22/27/66 6/26/66
f 17/15/67 20/14/67 22/27/67
f 20/14/68 5/23/68 22/27/68
f 20/12/69 21/24/69 5/23/69
f 20/12/70 18/11/70 21/24/70
f 18/11/71 4/20/71 21/24/71
f 18/9/72 19/21/72 4/20/72
f 18/9/73 13/8/73 19/21/73
f 13/8/74 3/61/74 19/21/74
f 16/6/75 17/62/75 6/26/75
f 16/6/76 14/5/76 17/62/76
f 14/5/77 1/63/77 17/62/77
f 13/3/78 15/18/78 3/17/78
f 13/3/79 14/2/79 15/18/79
f 14/2/80 2/4/80 15/18/80
usemtl bark
f 43/64/81 47/65/81 49/66/81
f 44/67/82 47/68/82 46/69/82
f 49/70/83 48/71/83 45/72/83
f 50/73/84 54/74/84 56/75/84
f 51/76/85 54/77/85 53/78/85
f 56/79/86 55/80/86 52/81/86
f 57/82/87 61/83/87 63/84/87
f 62/85/88 60/86/88 58/87/88
f 59/88/89 61/89/89 62/85/89
f 64/90/90 68/91/90 70/92/90
f 65/93/91 68/94/91 67/95/91
f 70/96/92 69/97/92 66/98/92
f 71/99/93 75/100/93 77/101/93
f 76/102/94 74/103/94 72/104/94
f 73/105/95 75/100/95 76/102/95
f 78/106/96 82/107/96 84/108/96
f 79/109/97 82/107/97 81/110/97
f 84/108/98 83/111/98 80/112/98
f 85/113/99 89/114/99 91/115/99
f 86/116/100 89/114/100 88/117/100
f 91/115/101 90/118/101 87/119/101
f 92/120/102 96/121/102 98/122/102
f 97/123/103 95/124/103 93/125/103
f 94/126/104 96/121/104 97/123/104
f 43/64/105 60/127/105 57/82/105
f 49/70/106 58/87/106 60/86/106
f 50/73/107 48/128/107 44/67/107
f 48/71/108 52/81/108 45/72/108
f 51/76/109 70/92/109 55/129/109
f 70/96/110 52/81/110 55/80/110
f 65/93/111 62/85/111 69/97/111
f 69/97/112 58/87/112 66/98/112
f 57/82/113 88/117/113 85/113/113
f 88/117/114 59/88/114 86/116/114
f 92/120/115 67/130/115 64/90/115
f 67/95/116 94/126/116 65/93/116
f 93/125/117 90/118/117 97/123/117
f 90/118/118 94/126/118 97/123/118
f 85/113/119 74/103/119 71/99/119
f 91/115/120 72/104/120 74/103/120
f 78/106/121 95/124/121 92/120/121
f 84/108/122 93/125/122 95/124/122
f 79/109/123 76/102/123 83/111/123
f 76/102/124 80/112/124 83/111/124
f 43/64/125 77/101/125 46/131/125
f 46/69/126 73/105/126 44/67/126
f 51/76/127 81/110/127 78/106/127
f 81/110/128 50/73/128 79/109/128
f 85/113/129 43/64/129 57/82/129
f 52/81/130 58/87/130 45/72/130
f 73/105/131 50/73/131 44/67/131
f 64/90/132 78/106/132 92/120/132
f 59/88/133 94/126/133 86/116/133
f 87/119/134 80/112/134 72/104/134
f 99/64/135 103/65/135 105/66/135
f 100/67/136 103/68/136 102/69/136
f 105/70/137 104/71/137 101/72/137
f 106/73/138 110/74/138 112/75/138
f 107/132/139 110/77/139 109/78/139
f 112/79/140 111/80/140 108/81/140
f 113/82/141 117/83/141 119/84/141
f 118/133/142 116/86/142 114/87/142
f 115/88/143 117/89/143 118/133/143
f 120/134/144 124/91/144 126/92/144
f 121/93/145 124/94/145 123/95/145
f 126/96/146 125/97/146 122/98/146
f 127/99/147 131/100/147 133/101/147
f 132/102/148 130/103/148 128/104/148
f 129/135/149 131/100/149 132/102/149
f 134/106/150 138/107/150 140/108/150
f 135/109/151 138/107/151 137/110/151
f 140/108/152 139/111/152 136/112/152
f 141/136/153 145/114/153 147/115/153
f 142/116/154 145/114/154 144/117/154
f 147/115/155 146/118/155 143/119/155
f 148/120/156 152/121/156 154/137/156
f 153/123/157 151/124/157 149/125/157
f 150/126/158 152/121/158 153/123/158
f 99/64/159 116/127/159 113/82/159
f 116/86/160 101/72/160 114/87/160
f 100/67/161 112/75/161 104/128/161
f 112/79/162 101/72/162 104/71/162
f 107/132/163 126/92/163 111/129/163
f 126/96/164 108/81/164 111/80/164
f 115/88/165 125/97/165 121/93/165
f 118/133/166 122/98/166 125/97/166
f 141/136/167 119/84/167 144/117/167
f 119/138/168 142/116/168 144/117/168
f 148/120/169 123/130/169 120/134/169
f 123/95/170 150/126/170 121/93/170
f 143/119/171 153/123/171 149/125/171
f 153/123/172 142/116/172 150/126/172
f 141/136/173 130/103/173 127/99/173
f 130/103/174 143/119/174 128/104/174
f 134/106/175 151/124/175 148/120/175
f 140/108/176 149/125/176 151/124/176
f 129/135/177 139/111/177 135/109/177
f 132/102/178 136/112/178 139/111/178
f 127/99/179 102/131/179 99/64/179
f 102/69/180 129/135/180 100/67/180
f 107/132/181 137/110/181 134/106/181
f 137/110/182 106/73/182 135/109/182
f 113/82/183 127/99/183 99/64/183
f 101/72/184 122/98/184 114/87/184
f 129/135/185 106/73/185 100/67/185
f 148/120/186 107/132/186 134/106/186
f 115/88/187 150/126/187 142/116/187
f 149/125/188 128/104/188 143/119/188
f 155/64/189 159/65/189 161/66/189
f 156/67/190 159/68/190 158/69/190
f 161/70/191 160/71/191 157/72/191
f 162/73/192 166/74/192 168/75/192
f 163/76/193 166/77/193 165/78/193
f 168/79/194 167/80/194 164/81/194
f 169/82/195 173/83/195 175/84/195
f 174/133/196 172/86/196 170/87/196
f 171/88/197 173/89/197 174/133/197
f 176/134/198 180/91/198 182/92/198
f 177/139/199 180/94/199 179/95/199
f 182/96/200 181/97/200 178/98/200
f 183/99/201 187/100/201 189/101/201
f 188/102/202 186/103/202 184/104/202
f 185/135/203 187/100/203 188/102/203
f 190/106/204 194/107/204 196/108/204
f 191/109/205 194/107/205 193/110/205
f 196/108/206 195/111/206 192/112/206
f 197/113/207 201/114/207 203/115/207
f 198/116/208 201/114/208 200/117/208
f 203/115/209 202/118/209 199/119/209
f 204/120/210 208/121/210 210/137/210
f 209/123/211 207/124/211 205/125/211
f 206/140/212 208/121/212 209/123/212
f 155/64/213 172/127/213 169/82/213
f 172/86/214 157/72/214 170/87/214
f 162/73/215 160/128/215 156/67/215
f 160/71/216 164/81/216 157/72/216
f 176/134/217 167/129/217 163/76/217
f 182/96/218 164/81/218 167/80/218
f 171/88/219 181/97/219 177/139/219
f 181/97/220 170/87/220 178/98/220
f 197/113/221 175/84/221 200/117/221
f 200/117/222 171/88/222 198/116/222
f 204/120/223 179/130/223 176/134/223
f 210/137/224 177/139/224 179/95/224
f 199/119/225 209/123/225 205/125/225
f 209/123/226 198/116/226 206/140/226
f 183/99/227 203/115/227 186/103/227
f 203/115/228 184/104/228 186/103/228
f 190/106/229 207/124/229 204/120/229
f 196/108/230 205/125/230 207/124/230
f 185/135/231 195/111/231 191/109/231
f 188/102/232 192/112/232 195/111/232
f 183/99/233 158/131/233 155/64/233
f 189/101/234 156/67/234 158/69/234
f 190/106/235 165/78/235 193/110/235
f 193/110/236 162/73/236 191/109/236
f 197/113/237 155/64/237 169/82/237
f 164/81/238 170/87/238 157/72/238
f 191/109/239 156/67/239 185/135/239
f 176/134/240 190/106/240 204/120/240
f 171/88/241 206/140/241 198/116/241
f 205/125/242 184/104/242 199/119/242
f 211/64/243 215/65/243 217/66/243
f 212/67/244 215/68/244 214/69/244
f 217/70/245 216/71/245 213/72/245
f 218/73/246 222/74/246 224/75/246
f 219/76/247 222/77/247 221/78/247
f 224/79/248 223/80/248 220/81/248
f 225/82/249 229/83/249 231/84/249
f 230/85/250 228/86/250 226/141/250
f 227/142/251 229/89/251 230/85/251
f 232/143/252 236/91/252 238/92/252
f 233/139/253 236/94/253 235/95/253
f 238/96/254 237/97/254 234/98/254
f 239/99/255 243/100/255 245/101/255
f 244/102/256 242/103/256 240/144/256
f 241/105/257 243/100/257 244/102/257
f 246/106/258 250/107/258 252/145/258
f 247/109/259 250/107/259 249/110/259
f 252/145/260 251/111/260 248/146/260
f 253/136/261 257/114/261 259/115/261
f 254/116/262 257/114/262 256/117/262
f 259/115/263 258/118/263 255/119/263
f 260/120/264 264/121/264 266/137/264
f 265/123/265 263/124/265 261/125/265
f 262/126/266 264/121/266 265/123/266
f 211/64/267 228/127/267 225/82/267
f 217/70/268 226/141/268 228/86/268
f 218/73/269 216/128/269 212/67/269
f 224/79/270 213/72/270 216/71/270
f 219/76/271 238/92/271 223/129/271
f 238/96/272 220/81/272 223/80/272
f 233/139/273 230/85/273 237/97/273
f 230/85/274 234/98/274 237/97/274
f 225/82/275 256/117/275 253/136/275
f 231/138/276 254/116/276 256/117/276
f 260/120/277 235/130/277 232/143/277
f 266/137/278 233/139/278 235/95/278
f 261/125/279 258/118/279 265/123/279
f 258/118/280 262/126/280 265/123/280
f 253/136/281 242/103/281 239/99/281
f 242/103/282 255/119/282 240/144/282
f 246/106/283 263/124/283 260/120/283
f 252/145/284 261/125/284 263/124/284
f 241/105/285 251/111/285 247/109/285
f 251/111/286 240/144/286 248/146/286
f 211/64/287 245/101/287 214/131/287
f 214/69/288 241/105/288 212/67/288
f 246/106/289 221/78/289 249/110/289
f 249/110/290 218/73/290 247/109/290
f 253/136/291 211/64/291 225/82/291
f 220/81/292 226/141/292 213/72/292
f 247/109/293 212/67/293 241/105/293
f 260/120/294 219/76/294 246/106/294
f 233/139/295 254/116/295 227/142/295
f 261/125/296 240/144/296 255/119/296
f 267/64/297 271/65/297 273/66/297
f 268/67/298 271/68/298 270/69/298
f 273/70/299 272/71/299 269/72/299
f 274/73/300 278/74/300 280/75/300
f 275/76/301 278/77/301 277/78/301
f 280/79/302 279/80/302 276/81/302
f 281/82/303 285/83/303 287/84/303
f 286/85/304 284/86/304 282/141/304
f 283/142/305 285/89/305 286/85/305
f 288/90/306 292/91/306 294/92/306
f 289/139/307 292/94/307 291/95/307
f 294/96/308 293/97/308 290/98/308
f 295/99/309 299/100/309 301/101/309
f 300/102/310 298/103/310 296/144/310
f 297/105/311 299/100/311 300/102/311
f 302/106/312 306/107/312 308/145/312
f 303/109/313 306/107/313 305/110/313
f 308/145/314 307/111/314 304/147/314
f 309/136/315 313/114/315 315/115/315
f 310/116/316 313/114/316 312/117/316
f 315/115/317 314/118/317 311/119/317
f 316/120/318 320/121/318 322/137/318
f 321/123/319 319/124/319 317/125/319
f 318/140/320 320/121/320 321/123/320
f 267/64/321 284/127/321 281/82/321
f 273/70/322 282/141/322 284/86/322
f 274/73/323 272/128/323 268/67/323
f 280/79/324 269/72/324 272/71/324
f 275/76/325 294/92/325 279/129/325
f 294/96/326 276/81/326 279/80/326
f 283/142/327 293/97/327 289/139/327
f 293/97/328 282/141/328 290/98/328
f 309/136/329 287/84/329 312/117/329
f 312/117/330 283/142/330 310/116/330
f 288/90/331 322/137/331 291/130/331
f 322/137/332 289/139/332 291/95/332
f 317/125/333 314/118/333 321/123/333
f 314/118/334 318/140/334 321/123/334
f 309/136/335 298/103/335 295/99/335
f 298/103/336 311/119/336 296/144/336
f 302/106/337 319/124/337 316/120/337
f 319/124/338 304/147/338 317/125/338
f 297/105/339 307/111/339 303/109/339
f 307/111/340 296/144/340 304/147/340
f 295/99/341 270/131/341 267/64/341
f 301/101/342 268/67/342 270/69/342
f 302/106/343 277/78/343 305/110/343
f 305/110/344 274/73/344 303/109/344
f 309/136/345 267/64/345 281/82/345
f 276/81/346 282/141/346 269/72/346
f 297/105/347 274/73/347 268/67/347
f 316/120/348 275/76/348 302/106/348
f 283/142/349 318/140/349 310/116/349
f 317/125/350 296/144/350 311/119/350
f 323/64/351 327/65/351 329/66/351
f 324/67/352 327/68/352 326/69/352
f 329/70/353 328/71/353 325/72/353
f 330/73/354 334/74/354 336/75/354
f 331/76/355 334/77/355 333/78/355
f 336/79/356 335/80/356 332/81/356
f 337/148/357 341/83/357 343/84/357
f 342/85/358 340/86/358 338/87/358
f 339/142/359 341/89/359 342/85/359
f 344/149/360 348/91/360 350/92/360
f 345/139/361 348/94/361 347/95/361
f 350/96/362 349/97/362 346/150/362
f 351/99/363 355/100/363 357/101/363
f 356/102/364 354/103/364 352/104/364
f 353/105/365 355/100/365 356/102/365
f 358/106/366 362/107/366 364/145/366
f 359/151/367 362/107/367 361/110/367
f 364/145/368 363/111/368 360/147/368
f 365/136/369 369/114/369 371/115/369
f 366/116/370 369/114/370 368/117/370
f 371/115/371 370/118/371 367/119/371
f 372/120/372 376/121/372 378/137/372
f 377/123/373 375/124/373 373/125/373
f 374/140/374 376/121/374 377/123/374
f 323/64/375 340/127/375 337/148/375
f 340/86/376 325/72/376 338/87/376
f 330/73/377 328/128/377 324/67/377
f 336/79/378 325/72/378 328/71/378
f 331/76/379 350/92/379 335/129/379
f 350/96/380 332/81/380 335/80/380
f 339/142/381 349/97/381 345/139/381
f 342/85/382 346/150/382 349/97/382
f 365/136/383 343/84/383 368/117/383
f 368/117/384 339/142/384 366/116/384
f 344/149/385 378/137/385 347/130/385
f 347/95/386 374/140/386 345/139/386
f 367/119/387 377/123/387 373/125/387
f 377/123/388 366/116/388 374/140/388
f 365/136/389 354/103/389 351/99/389
f 371/115/390 352/104/390 354/103/390
f 358/106/391 375/124/391 372/120/391
f 364/145/392 373/125/392 375/124/392
f 359/151/393 356/102/393 363/111/393
f 363/111/394 352/104/394 360/147/394
f 351/99/395 326/131/395 323/64/395
f 357/101/396 324/67/396 326/69/396
f 358/106/397 333/78/397 361/110/397
f 333/152/398 359/151/398 361/110/398
f 337/148/399 351/99/399 323/64/399
f 332/81/400 338/87/400 325/72/400
f 359/151/401 324/67/401 353/105/401
f 344/149/402 358/106/402 372/120/402
f 345/139/403 366/116/403 339/142/403
f 373/125/404 352/104/404 367/119/404
f 43/64/405 46/131/405 47/65/405
f 44/67/406 48/128/406 47/68/406
f 49/70/407 47/153/407 48/71/407
f 50/73/408 53/152/408 54/74/408
f 51/76/409 55/129/409 54/77/409
f 56/79/410 54/154/410 55/80/410
f 57/82/411 60/127/411 61/83/411
f 62/85/412 61/89/412 60/86/412
f 59/88/413 63/138/413 61/89/413
f 64/90/414 67/130/414 68/91/414
f 65/93/415 69/97/415 68/94/415
f 70/96/416 68/94/416 69/97/416
f 71/99/417 74/103/417 75/100/417
f 76/102/418 75/100/418 74/103/418
f 73/105/419 77/101/419 75/100/419
f 78/106/420 81/110/420 82/107/420
f 79/109/421 83/111/421 82/107/421
f 84/108/422 82/107/422 83/111/422
f 85/113/423 88/117/423 89/114/423
f 86/116/424 90/118/424 89/114/424
f 91/115/425 89/114/425 90/118/425
f 92/120/426 95/124/426 96/121/426
f 97/123/427 96/121/427 95/124/427
f 94/126/428 98/122/428 96/121/428
f 43/64/429 49/66/429 60/127/429
f 49/70/430 45/72/430 58/87/430
f 50/73/107 56/75/107 48/128/107
f 48/71/108 56/79/108 52/81/108
f 51/76/109 64/90/109 70/92/109
f 70/96/110 66/98/110 52/81/110
f 65/93/111 59/88/111 62/85/111
f 69/97/112 62/85/112 58/87/112
f 57/82/113 63/84/113 88/117/113
f 88/117/114 63/138/114 59/88/114
f 92/120/115 98/122/115 67/130/115
f 67/95/116 98/122/116 94/126/116
f 93/125/117 87/119/117 90/118/117
f 90/118/118 86/116/118 94/126/118
f 85/113/119 91/115/119 74/103/119
f 91/115/120 87/119/120 72/104/120
f 78/106/121 84/108/121 95/124/121
f 84/108/431 80/112/431 93/125/431
f 79/109/123 73/105/123 76/102/123
f 76/102/124 72/104/124 80/112/124
f 43/64/125 71/99/125 77/101/125
f 46/69/126 77/101/126 73/105/126
f 51/76/432 53/78/432 81/110/432
f 81/110/128 53/152/128 50/73/128
f 85/113/129 71/99/129 43/64/129
f 52/81/130 66/98/130 58/87/130
f 73/105/131 79/109/131 50/73/131
f 64/90/132 51/76/132 78/106/132
f 59/88/133 65/93/133 94/126/133
f 87/119/134 93/125/134 80/112/134
f 99/64/433 102/131/433 103/65/433
f 100/67/434 104/128/434 103/68/434
f 105/70/435 103/153/435 104/71/435
f 106/73/436 109/152/436 110/74/436
f 107/132/437 111/129/437 110/77/437
f 112/79/438 110/154/438 111/80/438
f 113/82/439 116/127/439 117/83/439
f 118/133/440 117/89/440 116/86/440
f 115/88/441 119/138/441 117/89/441
f 120/134/442 123/130/442 124/91/442
f 121/93/443 125/97/443 124/94/443
f 126/96/444 124/94/444 125/97/444
f 127/99/445 130/103/445 131/100/445
f 132/102/446 131/100/446 130/103/446
f 129/135/447 133/101/447 131/100/447
f 134/106/448 137/110/448 138/107/448
f 135/109/449 139/111/449 138/107/449
f 140/108/450 138/107/450 139/111/450
f 141/136/451 144/117/451 145/114/451
f 142/116/452 146/118/452 145/114/452
f 147/115/453 145/114/453 146/118/453
f 148/120/454 151/124/454 152/121/454
f 153/123/455 152/121/455 151/124/455
f 150/126/456 154/137/456 152/121/456
f 99/64/159 105/66/159 116/127/159
f 116/86/160 105/70/160 101/72/160
f 100/67/161 106/73/161 112/75/161
f 112/79/162 108/81/162 101/72/162
f 107/132/457 120/134/457 126/92/457
f 126/96/164 122/98/164 108/81/164
f 115/88/165 118/133/165 125/97/165
f 118/133/166 114/87/166 122/98/166
f 141/136/167 113/82/167 119/84/167
f 119/138/168 115/88/168 142/116/168
f 148/120/169 154/137/169 123/130/169
f 123/95/170 154/137/170 150/126/170
f 143/119/171 146/118/171 153/123/171
f 153/123/172 146/118/172 142/116/172
f 141/136/173 147/115/173 130/103/173
f 130/103/174 147/115/174 143/119/174
f 134/106/175 140/108/175 151/124/175
f 140/108/176 136/112/176 149/125/176
f 129/135/177 132/102/177 139/111/177
f 132/102/178 128/104/178 136/112/178
f 127/99/179 133/101/179 102/131/179
f 102/69/180 133/101/180 129/135/180
f 107/132/181 109/78/181 137/110/181
f 137/110/182 109/152/182 106/73/182
f 113/82/183 141/136/183 127/99/183
f 101/72/184 108/81/184 122/98/184
f 129/135/185 135/109/185 106/73/185
f 148/120/186 120/134/186 107/132/186
f 115/88/187 121/93/187 150/126/187
f 149/125/188 136/112/188 128/104/188
f 155/64/458 158/131/458 159/65/458
f 156/67/459 160/128/459 159/68/459
f 161/70/460 159/153/460 160/71/460
f 162/73/461 165/152/461 166/74/461
f 163/76/462 167/129/462 166/77/462
f 168/79/463 166/154/463 167/80/463
f 169/82/464 172/127/464 173/83/464
f 174/133/465 173/89/465 172/86/465
f 171/88/466 175/138/466 173/89/466
f 176/134/467 179/130/467 180/91/467
f 177/139/468 181/97/468 180/94/468
f 182/96/469 180/94/469 181/97/469
f 183/99/470 186/103/470 187/100/470
f 188/102/471 187/100/471 186/103/471
f 185/135/472 189/101/472 187/100/472
f 190/106/473 193/110/473 194/107/473
f 191/109/474 195/111/474 194/107/474
f 196/108/475 194/107/475 195/111/475
f 197/113/476 200/117/476 201/114/476
f 198/116/477 202/118/477 201/114/477
f 203/115/478 201/114/478 202/118/478
f 204/120/479 207/124/479 208/121/479
f 209/123/480 208/121/480 207/124/480
f 206/140/481 210/137/481 208/121/481
f 155/64/482 161/66/482 172/127/482
f 172/86/214 161/70/214 157/72/214
f 162/73/215 168/75/215 160/128/215
f 160/71/216 168/79/216 164/81/216
f 176/134/217 182/92/217 167/129/217
f 182/96/218 178/98/218 164/81/218
f 171/88/219 174/133/219 181/97/219
f 181/97/220 174/133/220 170/87/220
f 197/113/483 169/82/483 175/84/483
f 200/117/484 175/138/484 171/88/484
f 204/120/485 210/137/485 179/130/485
f 210/137/224 206/140/224 177/139/224
f 199/119/225 202/118/225 209/123/225
f 209/123/226 202/118/226 198/116/226
f 183/99/227 197/113/227 203/115/227
f 203/115/228 199/119/228 184/104/228
f 190/106/486 196/108/486 207/124/486
f 196/108/230 192/112/230 205/125/230
f 185/135/231 188/102/231 195/111/231
f 188/102/232 184/104/232 192/112/232
f 183/99/233 189/101/233 158/131/233
f 189/101/234 185/135/234 156/67/234
f 190/106/235 163/76/235 165/78/235
f 193/110/487 165/152/487 162/73/487
f 197/113/237 183/99/237 155/64/237
f 164/81/238 178/98/238 170/87/238
f 191/109/239 162/73/239 156/67/239
f 176/134/240 163/76/240 190/106/240
f 171/88/241 177/139/241 206/140/241
f 205/125/242 192/112/242 184/104/242
f 211/64/488 214/131/488 215/65/488
f 212/67/489 216/128/489 215/68/489
f 217/70/490 215/153/490 216/71/490
f 218/73/491 221/152/491 222/74/491
f 219/76/492 223/129/492 222/77/492
f 224/79/493 222/154/493 223/80/493
f 225/82/494 228/127/494 229/83/494
f 230/85/495 229/89/495 228/86/495
f 227/142/496 231/138/496 229/89/496
f 232/143/497 235/130/497 236/91/497
f 233/139/498 237/97/498 236/94/498
f 238/96/499 236/94/499 237/97/499
f 239/99/500 242/103/500 243/100/500
f 244/102/501 243/100/501 242/103/501
f 241/105/502 245/101/502 243/100/502
f 246/106/503 249/110/503 250/107/503
f 247/109/504 251/111/504 250/107/504
f 252/145/505 250/107/505 251/111/505
f 253/136/506 256/117/506 257/114/506
f 254/116/507 258/118/507 257/114/507
f 259/115/508 257/114/508 258/118/508
f 260/120/509 263/124/509 264/121/509
f 265/123/510 264/121/510 263/124/510
f 262/126/511 266/137/511 264/121/511
f 211/64/267 217/66/267 228/127/267
f 217/70/268 213/72/268 226/141/268
f 218/73/269 224/75/269 216/128/269
f 224/79/270 220/81/270 213/72/270
f 219/76/271 232/143/271 238/92/271
f 238/96/272 234/98/272 220/81/272
f 233/139/273 227/142/273 230/85/273
f 230/85/274 226/141/274 234/98/274
f 225/82/275 231/84/275 256/117/275
f 231/138/276 227/142/276 254/116/276
f 260/120/277 266/137/277 235/130/277
f 266/137/278 262/126/278 233/139/278
f 261/125/512 255/119/512 258/118/512
f 258/118/280 254/116/280 262/126/280
f 253/136/281 259/115/281 242/103/281
f 242/103/282 259/115/282 255/119/282
f 246/106/283 252/145/283 263/124/283
f 252/145/284 248/146/284 261/125/284
f 241/105/285 244/102/285 251/111/285
f 251/111/286 244/102/286 240/144/286
f 211/64/513 239/99/513 245/101/513
f 214/69/288 245/101/288 241/105/288
f 246/106/289 219/76/289 221/78/289
f 249/110/290 221/152/290 218/73/290
f 253/136/291 239/99/291 211/64/291
f 220/81/292 234/98/292 226/141/292
f 247/109/293 218/73/293 212/67/293
f 260/120/294 232/143/294 219/76/294
f 233/139/295 262/126/295 254/116/295
f 261/125/296 248/146/296 240/144/296
f 267/64/514 270/131/514 271/65/514
f 268/67/515 272/128/515 271/68/515
f 273/70/516 271/153/516 272/71/516
f 274/73/517 277/152/517 278/74/517
f 275/76/518 279/129/518 278/77/518
f 280/79/519 278/154/519 279/80/519
f 281/82/520 284/127/520 285/83/520
f 286/85/521 285/89/521 284/86/521
f 283/142/522 287/138/522 285/89/522
f 288/90/523 291/130/523 292/91/523
f 289/139/524 293/97/524 292/94/524
f 294/96/525 292/94/525 293/97/525
f 295/99/526 298/103/526 299/100/526
f 300/102/527 299/100/527 298/103/527
f 297/105/528 301/101/528 299/100/528
f 302/106/529 305/110/529 306/107/529
f 303/109/530 307/111/530 306/107/530
f 308/145/531 306/107/531 307/111/531
f 309/136/532 312/117/532 313/114/532
f 310/116/533 314/118/533 313/114/533
f 315/115/534 313/114/534 314/118/534
f 316/120/535 319/124/535 320/121/535
f 321/123/536 320/121/536 319/124/536
f 318/140/537 322/137/537 320/121/537
f 267/64/321 273/66/321 284/127/321
f 273/70/322 269/72/322 282/141/322
f 274/73/323 280/75/323 272/128/323
f 280/79/324 276/81/324 269/72/324
f 275/76/325 288/90/325 294/92/325
f 294/96/326 290/98/326 276/81/326
f 283/142/327 286/85/327 293/97/327
f 293/97/328 286/85/328 282/141/328
f 309/136/538 281/82/538 287/84/538
f 312/117/330 287/138/330 283/142/330
f 288/90/331 316/120/331 322/137/331
f 322/137/332 318/140/332 289/139/332
f 317/125/333 311/119/333 314/118/333
f 314/118/334 310/116/334 318/140/334
f 309/136/335 315/115/335 298/103/335
f 298/103/336 315/115/336 311/119/336
f 302/106/337 308/145/337 319/124/337
f 319/124/338 308/145/338 304/147/338
f 297/105/339 300/102/339 307/111/339
f 307/111/340 300/102/340 296/144/340
f 295/99/341 301/101/341 270/131/341
f 301/101/539 297/105/539 268/67/539
f 302/106/343 275/76/343 277/78/343
f 305/110/344 277/152/344 274/73/344
f 309/136/345 295/99/345 267/64/345
f 276/81/346 290/98/346 282/141/346
f 297/105/347 303/109/347 274/73/347
f 316/120/348 288/90/348 275/76/348
f 283/142/349 289/139/349 318/140/349
f 317/125/350 304/147/350 296/144/350
f 323/64/540 326/131/540 327/65/540
f 324/67/541 328/128/541 327/68/541
f 329/70/542 327/153/542 328/71/542
f 330/73/543 333/152/543 334/74/543
f 331/76/544 335/129/544 334/77/544
f 336/79/545 334/154/545 335/80/545
f 337/148/546 340/127/546 341/83/546
f 342/85/547 341/89/547 340/86/547
f 339/142/548 343/138/548 341/89/548
f 344/149/549 347/130/549 348/91/549
f 345/139/550 349/97/550 348/94/550
f 350/96/551 348/94/551 349/97/551
f 351/99/552 354/103/552 355/100/552
f 356/102/553 355/100/553 354/103/553
f 353/105/554 357/101/554 355/100/554
f 358/106/555 361/110/555 362/107/555
f 359/151/556 363/111/556 362/107/556
f 364/145/557 362/107/557 363/111/557
f 365/136/558 368/117/558 369/114/558
f 366/116/559 370/118/559 369/114/559
f 371/115/560 369/114/560 370/118/560
f 372/120/561 375/124/561 376/121/561
f 377/123/562 376/121/562 375/124/562
f 374/140/563 378/137/563 376/121/563
f 323/64/375 329/66/375 340/127/375
f 340/86/376 329/70/376 325/72/376
f 330/73/377 336/75/377 328/128/377
f 336/79/378 332/81/378 325/72/378
f 331/76/379 344/149/379 350/92/379
f 350/96/380 346/150/380 332/81/380
f 339/142/381 342/85/381 349/97/381
f 342/85/382 338/87/382 346/150/382
f 365/136/383 337/148/383 343/84/383
f 368/117/564 343/138/564 339/142/564
f 344/149/385 372/120/385 378/137/385
f 347/95/386 378/137/386 374/140/386
f 367/119/565 370/118/565 377/123/565
f 377/123/388 370/118/388 366/116/388
f 365/136/389 371/115/389 354/103/389
f 371/115/390 367/119/390 352/104/390
f 358/106/391 364/145/391 375/124/391
f 364/145/566 360/147/566 373/125/566
f 359/151/393 353/105/393 356/102/393
f 363/111/394 356/102/394 352/104/394
f 351/99/395 357/101/395 326/131/395
f 357/101/396 353/105/396 324/67/396
f 358/106/567 331/76/567 333/78/567
f 333/152/398 330/73/398 359/151/398
f 337/148/399 365/136/399 351/99/399
f 332/81/400 346/150/400 338/87/400
f 359/151/401 330/73/401 324/67/401
f 344/149/402 331/76/402 358/106/402
f 345/139/403 374/140/403 366/116/403
f 373/125/404 360/147/404 352/104/404
