# Blender 4.5.10 LTS
# www.blender.org
mtllib grove_planted_cracked.mtl
o grove_planted_cracked
v -0.200117 0.003399 -0.161121
v -0.208556 0.015287 -0.151403
v -0.191801 0.014272 -0.172056
v -0.208847 0.007195 -0.157552
v -0.204565 0.008623 -0.164986
v -0.201227 0.015931 -0.162637
v -0.198258 0.006554 -0.170605
v -0.141419 0.091025 -0.117806
v -0.147933 0.079760 -0.139685
v -0.164687 0.080774 -0.119032
v -0.145134 0.087763 -0.129829
v -0.152308 0.086900 -0.126437
v -0.157359 0.081418 -0.130266
v -0.154093 0.088305 -0.118786
v -0.022070 -0.006245 -0.257533
v -0.034813 0.005770 -0.257064
v -0.008374 0.004444 -0.259800
v -0.030740 -0.002519 -0.261316
v -0.022447 -0.001241 -0.263602
v -0.021686 0.006206 -0.259857
v -0.014029 -0.003357 -0.263045
v -0.010430 0.083930 -0.188736
v 0.000325 0.071837 -0.208385
v -0.026115 0.073162 -0.205649
v -0.004593 0.080208 -0.199740
v -0.012073 0.079304 -0.202373
v -0.012987 0.073599 -0.208442
v -0.018731 0.080916 -0.198276
v 0.171980 -0.015251 -0.199630
v 0.162723 -0.003497 -0.208747
v 0.183360 -0.004356 -0.191963
v 0.168544 -0.011831 -0.208567
v 0.176040 -0.010453 -0.204376
v 0.173991 -0.002876 -0.201469
v 0.181587 -0.012374 -0.197959
v 0.132332 0.077304 -0.146137
v 0.153728 0.064815 -0.151985
v 0.133092 0.065675 -0.168769
v 0.144206 0.073354 -0.149657
v 0.140765 0.072211 -0.156768
v 0.144360 0.066296 -0.161491
v 0.133171 0.073814 -0.158632
v 0.268361 -0.018345 -0.021331
v 0.268340 -0.007084 -0.034754
v 0.271085 -0.006975 -0.008283
v 0.272268 -0.015285 -0.030205
v 0.274624 -0.013618 -0.022000
v 0.271180 -0.005995 -0.021675
v 0.274003 -0.015216 -0.013474
v 0.203238 0.075028 -0.014964
v 0.222416 0.062808 -0.003524
v 0.219671 0.062698 -0.029995
v 0.214099 0.071216 -0.008921
v 0.216676 0.069774 -0.016336
v 0.222511 0.063787 -0.016916
v 0.212631 0.071158 -0.023075
v 0.210613 -0.013713 0.172918
v 0.220168 -0.002891 0.162991
v 0.203414 -0.001877 0.183644
v 0.219671 -0.010858 0.169288
v 0.215556 -0.008880 0.176691
v 0.212949 -0.001325 0.174204
v 0.209081 -0.010217 0.182341
v 0.160754 0.078436 0.127945
v 0.166151 0.066991 0.150033
v 0.182906 0.065976 0.129380
v 0.164142 0.075047 0.140029
v 0.171193 0.073422 0.136660
v 0.175686 0.067543 0.140593
v 0.173101 0.074504 0.128986
v 0.032566 -0.004070 0.269330
v 0.046426 0.006626 0.268652
v 0.019987 0.007951 0.271388
v 0.041563 -0.001144 0.273052
v 0.033438 0.000984 0.275307
v 0.033408 0.008399 0.271425
v 0.024853 -0.000306 0.274781
v 0.029765 0.085530 0.198875
v 0.017894 0.074914 0.218733
v 0.044333 0.073589 0.215997
v 0.023601 0.082601 0.209940
v 0.030959 0.081017 0.212596
v 0.031314 0.075362 0.218770
v 0.037739 0.081893 0.208477
v -0.161484 0.004937 0.211428
v -0.151111 0.015892 0.220335
v -0.171747 0.016752 0.203551
v -0.157721 0.008168 0.220303
v -0.165049 0.010196 0.216080
v -0.162270 0.017481 0.213037
v -0.170764 0.008711 0.209695
v -0.112997 0.092156 0.156276
v -0.135510 0.081936 0.162334
v -0.114873 0.081076 0.179117
v -0.125198 0.089455 0.159858
v -0.121879 0.088111 0.166991
v -0.126033 0.082665 0.171819
v -0.114163 0.088996 0.168832
v -0.257865 0.008030 0.033129
v -0.256727 0.019480 0.046342
v -0.259473 0.019370 0.019871
v -0.261445 0.011622 0.041941
v -0.263633 0.013360 0.033705
v -0.259459 0.020601 0.033242
v -0.263180 0.011553 0.025210
v -0.183903 0.094432 0.025103
v -0.204198 0.083943 0.013872
v -0.201452 0.084052 0.040343
v -0.195091 0.091593 0.019121
v -0.197791 0.090548 0.026559
v -0.204184 0.085174 0.027244
v -0.193623 0.091652 0.033276
v 0.072270 0.022451 0.086370
v 0.087334 0.033390 0.094815
v 0.062500 0.037916 0.095495
v 0.081878 0.024522 0.091914
v 0.073481 0.027686 0.095759
v 0.074969 0.035458 0.098367
v 0.064318 0.027723 0.092396
v 0.118759 0.279391 0.074153
v 0.104004 0.267306 0.084588
v 0.128838 0.262780 0.083907
v 0.110819 0.276244 0.081929
v 0.117880 0.273009 0.084533
v 0.116508 0.265146 0.086749
v 0.125480 0.273573 0.081527
v -0.004815 0.038656 0.051092
v -0.000474 0.051154 0.066675
v -0.016280 0.055172 0.047395
v -0.002712 0.041813 0.061719
v -0.010636 0.045369 0.057263
v -0.010819 0.053492 0.059105
v -0.013888 0.044654 0.048086
v 0.062600 0.291197 0.048451
v 0.043906 0.280635 0.045038
v 0.059712 0.276617 0.064318
v 0.051262 0.289175 0.047561
v 0.053404 0.286564 0.055025
v 0.049965 0.279135 0.056295
v 0.060594 0.286803 0.058943
v -0.025075 0.047195 -0.032370
v -0.032831 0.062148 -0.020788
v -0.027707 0.062632 -0.045510
v -0.031505 0.052080 -0.024488
v -0.032744 0.054688 -0.033813
v -0.033366 0.062996 -0.033779
v -0.027882 0.052422 -0.041969
v 0.047839 0.297418 -0.012354
v 0.037390 0.286026 -0.027640
v 0.032265 0.285541 -0.002918
v 0.041087 0.295025 -0.021414
v 0.036457 0.293706 -0.014786
v 0.032476 0.286507 -0.015752
v 0.038062 0.294739 -0.006819
v 0.026746 0.041639 -0.101167
v 0.014628 0.058093 -0.101713
v 0.036824 0.054679 -0.113261
v 0.017179 0.047591 -0.101791
v 0.023804 0.048624 -0.108886
v 0.024305 0.056812 -0.110343
v 0.032874 0.045177 -0.109957
v 0.085593 0.293370 -0.062475
v 0.089361 0.279419 -0.078718
v 0.067165 0.282833 -0.067169
v 0.087955 0.289389 -0.073057
v 0.079802 0.289059 -0.072330
v 0.077210 0.281710 -0.075140
v 0.074851 0.291404 -0.066239
v 0.111626 0.026170 -0.103493
v 0.106165 0.042043 -0.115161
v 0.128719 0.037301 -0.104839
v 0.106681 0.031727 -0.111980
v 0.116427 0.031745 -0.111424
v 0.118768 0.039598 -0.112932
v 0.122629 0.028374 -0.104681
v 0.147431 0.282101 -0.064170
v 0.160685 0.265790 -0.069732
v 0.138131 0.270532 -0.080054
v 0.156574 0.276512 -0.068479
v 0.150799 0.276121 -0.074276
v 0.150481 0.268357 -0.077148
v 0.143259 0.279311 -0.074573
v 0.165648 0.012438 -0.037597
v 0.172852 0.026083 -0.051007
v 0.178780 0.023585 -0.026587
v 0.169604 0.016433 -0.047381
v 0.175378 0.016760 -0.039517
v 0.178890 0.024315 -0.039596
v 0.173796 0.014667 -0.030114
v 0.186788 0.272097 -0.016162
v 0.197653 0.255402 -0.007450
v 0.191725 0.257900 -0.031870
v 0.195272 0.266089 -0.011128
v 0.195985 0.264635 -0.019158
v 0.197116 0.256503 -0.020264
v 0.191773 0.267564 -0.025544
v 0.148133 0.010783 0.046900
v 0.164471 0.022232 0.042441
v 0.149309 0.023858 0.062570
v 0.158566 0.013227 0.043360
v 0.156265 0.014954 0.052689
v 0.159397 0.022473 0.054440
v 0.147845 0.014377 0.057593
v 0.174028 0.270891 0.045397
v 0.172427 0.256076 0.061229
v 0.187589 0.254451 0.041100
v 0.174909 0.265970 0.055810
v 0.181335 0.263250 0.051518
v 0.181996 0.255074 0.052677
v 0.183860 0.265011 0.043927
v -0.066380 0.027890 0.092150
v -0.055023 0.042738 0.100416
v -0.080046 0.039629 0.101805
v -0.057668 0.032678 0.097488
v -0.066509 0.033146 0.101602
v -0.067331 0.040979 0.104316
v -0.075361 0.030480 0.098470
v -0.095292 0.257200 0.084574
v -0.105453 0.241145 0.095147
v -0.080431 0.244254 0.093759
v -0.101697 0.251740 0.092486
v -0.093918 0.250734 0.094851
v -0.092816 0.242798 0.096953
v -0.086926 0.253575 0.091667
v -0.137015 0.021500 0.062781
v -0.136136 0.034555 0.078483
v -0.152985 0.033876 0.059686
v -0.135634 0.025027 0.073410
v -0.144386 0.026101 0.069221
v -0.146927 0.033778 0.071221
v -0.147548 0.024547 0.060118
v -0.146763 0.252543 0.063173
v -0.161551 0.236915 0.060030
v -0.144703 0.237594 0.078828
v -0.157003 0.247235 0.062530
v -0.153961 0.245302 0.069886
v -0.154990 0.237173 0.071102
v -0.147057 0.247636 0.073626
v -0.158670 0.024171 -0.010817
v -0.170181 0.035997 0.001243
v -0.166169 0.038259 -0.023586
v -0.166027 0.026826 -0.002683
v -0.168262 0.029046 -0.011922
v -0.171329 0.036788 -0.011713
v -0.163190 0.028425 -0.020240
v -0.162543 0.254490 0.009543
v -0.169573 0.240662 -0.005695
v -0.173585 0.238400 0.019134
v -0.168541 0.250286 0.000610
v -0.172369 0.247573 0.007325
v -0.174051 0.239524 0.006320
v -0.170910 0.248951 0.015267
v -0.115039 0.033892 -0.073222
v -0.131522 0.045978 -0.073142
v -0.109670 0.049478 -0.085306
v -0.125959 0.036720 -0.073491
v -0.120157 0.039763 -0.080727
v -0.122163 0.047742 -0.082035
v -0.110508 0.039195 -0.082092
v -0.130749 0.261573 -0.035932
v -0.123476 0.249563 -0.052535
v -0.145328 0.246063 -0.040372
v -0.127623 0.258595 -0.046646
v -0.135281 0.255836 -0.045723
v -0.135646 0.248081 -0.048611
v -0.140522 0.256529 -0.039466
v -0.038976 0.043343 -0.077444
v -0.049269 0.056983 -0.088658
v -0.026033 0.059085 -0.078996
v -0.045603 0.047259 -0.085694
v -0.036295 0.050183 -0.085381
v -0.036451 0.058391 -0.086792
v -0.029172 0.048746 -0.078862
v -0.075323 0.268460 -0.039008
v -0.057974 0.256917 -0.045219
v -0.081211 0.254815 -0.054881
v -0.065060 0.265905 -0.043654
v -0.070624 0.263870 -0.049311
v -0.068694 0.256400 -0.052327
v -0.078777 0.264664 -0.049357
v 0.012241 0.045407 -0.020302
v 0.014638 0.060724 -0.033621
v 0.021762 0.059846 -0.009410
v 0.014531 0.050507 -0.030103
v 0.020174 0.052459 -0.022380
v 0.021264 0.060717 -0.022401
v 0.019569 0.049886 -0.012983
v -0.038001 0.269964 0.002631
v -0.022391 0.257185 0.010744
v -0.029514 0.258064 -0.013467
v -0.027964 0.266712 0.007334
v -0.027087 0.265624 -0.000738
v -0.023612 0.258217 -0.002029
v -0.032169 0.267230 -0.006958
v 0.000045 0.038530 0.055174
v 0.012077 0.054385 0.050525
v -0.002276 0.051187 0.071055
v 0.009162 0.044018 0.051421
v 0.006728 0.044876 0.060835
v 0.007521 0.052968 0.062650
v -0.000987 0.041757 0.065937
v -0.046888 0.264953 0.057630
v -0.043521 0.250166 0.073213
v -0.029167 0.253364 0.052683
v -0.044269 0.260408 0.067922
v -0.037454 0.259778 0.063420
v -0.034347 0.252163 0.064406
v -0.035796 0.262295 0.055803
v 0.026447 0.067426 -0.038421
v 0.026479 0.070366 -0.039401
v 0.027233 0.070362 -0.038409
v 0.026463 0.068287 -0.039114
v 0.026907 0.068666 -0.038980
v 0.027019 0.070363 -0.039106
v 0.026996 0.068284 -0.038412
v 0.027617 0.274483 -0.039445
v 0.027618 0.277423 -0.038466
v 0.028371 0.274479 -0.038453
v 0.027624 0.276561 -0.039158
v 0.028064 0.276178 -0.039024
v 0.028157 0.276559 -0.038457
v 0.028157 0.274480 -0.039149
v 0.025359 0.067447 0.029610
v 0.026145 0.070382 0.029622
v 0.025359 0.070387 0.030590
v 0.025908 0.068305 0.029619
v 0.025801 0.068687 0.030183
v 0.025908 0.070384 0.030311
v 0.025352 0.068308 0.030303
v 0.026530 0.277443 0.029566
v 0.026498 0.274504 0.030546
v 0.027283 0.274499 0.029579
v 0.026514 0.276582 0.030259
v 0.026958 0.276198 0.030139
v 0.027047 0.274500 0.030268
v 0.027069 0.276579 0.029575
v -0.027006 0.067724 -0.039276
v -0.027759 0.070668 -0.039289
v -0.026974 0.070664 -0.040256
v -0.027545 0.068588 -0.039285
v -0.027434 0.068969 -0.039849
v -0.027522 0.070667 -0.039978
v -0.026990 0.068585 -0.039969
v -0.025835 0.277721 -0.039320
v -0.025835 0.274780 -0.040300
v -0.026621 0.274785 -0.039332
v -0.025828 0.276859 -0.040013
v -0.026277 0.276480 -0.039893
v -0.026384 0.274783 -0.040021
v -0.026384 0.276863 -0.039329
v -0.028094 0.067744 0.028755
v -0.028093 0.070685 0.029735
v -0.028847 0.070689 0.028742
v -0.028100 0.068606 0.029448
v -0.028540 0.068990 0.029314
v -0.028633 0.070688 0.029439
v -0.028633 0.068609 0.028746
v -0.026923 0.277741 0.028711
v -0.027709 0.274805 0.028699
v -0.026955 0.274801 0.029691
v -0.027472 0.276883 0.028702
v -0.027383 0.276501 0.029270
v -0.027495 0.274804 0.029396
v -0.026939 0.276880 0.029404
v -0.099861 0.077370 -0.113218
v -0.100225 0.077643 -0.113751
v -0.099031 0.077905 -0.113688
v -0.100091 0.077439 -0.113604
v -0.099543 0.077617 -0.113813
v -0.099504 0.077817 -0.113936
v -0.099246 0.077624 -0.113559
v -0.104874 0.098463 -0.112274
v -0.104644 0.098790 -0.111697
v -0.103680 0.098725 -0.112210
v -0.104834 0.098683 -0.112096
v -0.104269 0.098784 -0.112311
v -0.103990 0.098868 -0.112051
v -0.104153 0.098637 -0.112459
v -0.079240 0.079240 -0.074689
v -0.078409 0.079775 -0.075160
v -0.079010 0.079567 -0.074113
v -0.078625 0.079494 -0.075031
v -0.078578 0.079518 -0.074644
v -0.078462 0.079725 -0.074623
v -0.079049 0.079347 -0.074291
v -0.084022 0.100660 -0.073169
v -0.083658 0.100387 -0.072635
v -0.083058 0.100595 -0.073682
v -0.083793 0.100591 -0.072783
v -0.083304 0.100685 -0.073142
v -0.083111 0.100546 -0.073146
v -0.083368 0.100739 -0.073523
v -0.162167 0.061036 -0.079077
v -0.163131 0.061100 -0.078564
v -0.162531 0.061308 -0.079610
v -0.162821 0.060957 -0.078723
v -0.162885 0.061011 -0.079104
v -0.163079 0.061150 -0.079100
v -0.162397 0.061104 -0.079463
v -0.166950 0.082456 -0.077556
v -0.167180 0.082129 -0.078133
v -0.167780 0.081920 -0.077086
v -0.167140 0.082349 -0.077955
v -0.167611 0.082177 -0.077602
v -0.167727 0.081970 -0.077622
v -0.167565 0.082201 -0.077215
v -0.141545 0.062906 -0.040548
v -0.141315 0.063232 -0.039972
v -0.142510 0.062970 -0.040035
v -0.141355 0.063012 -0.040150
v -0.141920 0.062912 -0.039935
v -0.142037 0.063058 -0.039787
v -0.142200 0.062827 -0.040194
v -0.146328 0.084326 -0.039028
v -0.147158 0.083790 -0.038558
v -0.145964 0.084053 -0.038494
v -0.146943 0.084071 -0.038687
v -0.146646 0.084079 -0.038433
v -0.146686 0.083878 -0.038309
v -0.146098 0.084257 -0.038642
v 0.143009 0.050805 0.082161
v 0.143355 0.051094 0.081763
v 0.143670 0.051031 0.082704
v 0.143249 0.050893 0.081873
v 0.143583 0.050898 0.082234
v 0.143717 0.051053 0.082258
v 0.143472 0.050849 0.082539
v 0.144096 0.070491 0.082804
v 0.143771 0.070762 0.083232
v 0.144411 0.070429 0.083745
v 0.144005 0.070686 0.082935
v 0.144336 0.070618 0.083292
v 0.144228 0.070642 0.083601
v 0.144458 0.070451 0.083299
v 0.119693 0.050159 0.110800
v 0.120354 0.050385 0.111344
v 0.119368 0.050429 0.111228
v 0.120156 0.050203 0.111178
v 0.119879 0.050241 0.111350
v 0.119926 0.050394 0.111481
v 0.119459 0.050234 0.111096
v 0.120455 0.070115 0.111871
v 0.120109 0.069827 0.112269
v 0.121095 0.069783 0.112385
v 0.120215 0.070027 0.112158
v 0.120633 0.069961 0.112408
v 0.120667 0.069792 0.112522
v 0.120912 0.069996 0.112240
v 0.097832 0.054499 0.045465
v 0.097192 0.054832 0.044951
v 0.098178 0.054788 0.045067
v 0.097375 0.054619 0.045095
v 0.097654 0.054653 0.044928
v 0.097620 0.054823 0.044814
v 0.098072 0.054588 0.045177
v 0.098594 0.074456 0.046536
v 0.098919 0.074186 0.046108
v 0.097932 0.074230 0.045992
v 0.098828 0.074381 0.046240
v 0.098407 0.074374 0.045986
v 0.098360 0.074221 0.045855
v 0.098131 0.074412 0.046157
v 0.074516 0.053853 0.074104
v 0.074191 0.054123 0.074532
v 0.073876 0.054185 0.073591
v 0.074282 0.053928 0.074400
v 0.073951 0.053996 0.074044
v 0.073829 0.054163 0.074037
v 0.074059 0.053972 0.073735
v 0.075278 0.073810 0.075175
v 0.074617 0.073583 0.074632
v 0.074932 0.073521 0.075573
v 0.074815 0.073765 0.074797
v 0.074704 0.073717 0.075102
v 0.074570 0.073561 0.075078
v 0.075037 0.073721 0.075462
vn -0.5633 -0.7446 -0.3581
vn -0.7790 0.3970 -0.4854
vn -0.6168 0.3871 -0.6854
vn -0.1884 0.9572 -0.2198
vn -0.3801 0.7679 -0.5156
vn -0.5458 0.7779 -0.3114
vn -0.1516 -0.7673 -0.6231
vn -0.2054 0.3649 -0.9081
vn 0.0506 0.3520 -0.9346
vn 0.0294 0.9455 -0.3243
vn 0.1012 0.7429 -0.6617
vn -0.1602 0.7560 -0.6347
vn 0.3268 -0.7898 -0.5190
vn 0.4990 0.3312 -0.8008
vn 0.6987 0.3229 -0.6384
vn 0.2573 0.9350 -0.2439
vn 0.5448 0.7233 -0.4243
vn 0.3409 0.7318 -0.5902
vn 0.5917 -0.7991 -0.1067
vn 0.9214 0.3158 -0.2264
vn 0.9480 0.3168 0.0299
vn 0.3617 0.9319 -0.0258
vn 0.6910 0.7205 0.0576
vn 0.6639 0.7194 -0.2041
vn 0.4879 -0.7895 0.3723
vn 0.8146 0.3275 0.4787
vn 0.6524 0.3373 0.6787
vn 0.2816 0.9380 0.2023
vn 0.4541 0.7363 0.5017
vn 0.6197 0.7262 0.2976
vn 0.0762 -0.7668 0.6373
vn 0.2410 0.3596 0.9014
vn -0.0150 0.3724 0.9279
vn 0.0638 0.9496 0.3068
vn -0.0272 0.7613 0.6479
vn 0.2342 0.7482 0.6208
vn -0.4023 -0.7443 0.5331
vn -0.4633 0.3932 0.7941
vn -0.6631 0.4016 0.6317
vn -0.1641 0.9601 0.2265
vn -0.4709 0.7809 0.4104
vn -0.2669 0.7724 0.5763
vn -0.6671 -0.7351 0.1208
vn -0.8858 0.4087 0.2197
vn -0.9124 0.4077 -0.0366
vn -0.2686 0.9632 0.0083
vn -0.6171 0.7836 -0.0715
vn -0.5900 0.7847 0.1902
vn -0.4554 0.2188 -0.8630
vn -0.2377 -0.9068 -0.3482
vn -0.2621 0.7842 -0.5624
vn -0.0769 0.9680 -0.2389
vn -0.6611 0.6380 -0.3947
vn -0.4922 0.6278 -0.6030
vn 0.0825 0.5977 -0.7974
vn -0.1841 0.6111 -0.7698
vn 0.2889 0.1815 -0.9400
vn 0.0706 -0.9222 -0.3802
vn 0.2179 0.7602 -0.6121
vn 0.1219 0.9580 -0.2595
vn 0.6264 0.5735 -0.5280
vn 0.4182 0.5822 -0.6973
vn 0.8699 0.1573 -0.4675
vn 0.3113 -0.9322 -0.1844
vn 0.5926 0.7446 -0.3074
vn 0.2771 0.9516 -0.1333
vn 0.8208 0.5692 0.0475
vn 0.7931 0.5681 -0.2195
vn 0.9472 0.1604 0.2778
vn 0.3433 -0.9310 0.1243
vn 0.6424 0.7466 0.1732
vn 0.2977 0.9524 0.0658
vn 0.5519 0.5875 0.5918
vn 0.7209 0.5772 0.3835
vn 0.4755 0.1889 0.8592
vn 0.1479 -0.9191 0.3651
vn 0.3382 0.7650 0.5481
vn 0.1717 0.9600 0.2211
vn -0.0228 0.6175 0.7862
vn 0.2439 0.6042 0.7586
vn -0.2689 0.2262 0.9362
vn -0.1604 -0.9037 0.3970
vn -0.1417 0.7890 0.5978
vn -0.0271 0.9700 0.2417
vn -0.5666 0.6418 0.5168
vn -0.3585 0.6331 0.6860
vn -0.8498 0.2504 0.4637
vn -0.4011 -0.8937 0.2013
vn -0.5164 0.8046 0.2931
vn -0.1823 0.9764 0.1155
vn -0.7611 0.6460 -0.0587
vn -0.7334 0.6471 0.2083
vn -0.9271 0.2474 -0.2815
vn -0.4331 -0.8949 -0.1074
vn -0.5662 0.8027 -0.1875
vn -0.2029 0.9756 -0.0836
vn -0.0491 -0.9988 0.0092
vn -0.3575 0.5952 -0.7197
vn -0.7488 0.6189 -0.2373
vn 0.0491 0.9988 -0.0092
vn 0.2600 0.5643 -0.7836
vn 0.7420 0.5442 -0.3916
vn 0.8061 0.5467 0.2266
vn 0.4148 0.5704 0.7089
vn -0.2027 0.6014 0.7728
vn -0.6846 0.6214 0.3809
vn -0.1857 -0.8478 0.4967
vn 0.1884 -0.4081 0.8933
vn -0.2725 -0.3241 0.9059
vn 0.1464 0.8371 0.5271
vn -0.0998 0.3529 0.9303
vn 0.2670 0.2860 0.9203
vn -0.5916 -0.7601 0.2689
vn -0.6079 -0.2536 0.7524
vn -0.9012 -0.1790 0.3946
vn -0.2166 0.9145 0.3416
vn -0.7349 0.4967 0.4617
vn -0.5015 0.4373 0.7465
vn -0.6659 -0.7195 -0.1971
vn -0.9894 -0.1419 0.0315
vn -0.8943 -0.1329 -0.4273
vn -0.2971 0.9527 -0.0636
vn -0.7648 0.5483 -0.3383
vn -0.8405 0.5411 0.0269
vn -0.3526 -0.7567 -0.5505
vn -0.6688 -0.1570 -0.7267
vn -0.2569 -0.2204 -0.9410
vn -0.0345 0.9229 -0.3835
vn -0.1669 0.4689 -0.8673
vn -0.4948 0.5193 -0.6967
vn 0.1123 -0.8437 -0.5250
vn 0.1124 -0.2877 -0.9511
vn 0.5310 -0.3757 -0.7595
vn 0.3735 0.8475 -0.3771
vn 0.6084 0.3183 -0.7270
vn 0.2753 0.3883 -0.8794
vn 0.3788 -0.9149 -0.1400
vn 0.7660 -0.4354 -0.4728
vn 0.8761 -0.4818 -0.0196
vn 0.6196 0.7834 -0.0493
vn 0.9775 0.2098 -0.0229
vn 0.8899 0.2467 -0.3836
vn 0.2461 -0.9167 0.3147
vn 0.7999 -0.4890 0.3480
vn 0.5185 -0.4588 0.7216
vn 0.5185 0.7787 0.3531
vn 0.6622 0.2252 0.7146
vn 0.8862 0.2012 0.4173
vn -0.4494 -0.3323 0.8292
vn -0.3360 -0.8826 0.3288
vn -0.2851 0.4665 0.8373
vn 0.0157 0.9212 0.3888
vn 0.2759 -0.0013 0.9612
vn -0.2073 0.0868 0.9744
vn -0.8438 0.2303 0.4848
vn -0.6001 0.1684 0.7820
vn -0.9560 -0.2035 0.2112
vn -0.5627 -0.8250 0.0522
vn -0.7691 0.5895 0.2470
vn -0.1848 0.9721 0.1443
vn -0.8812 0.2868 -0.3758
vn -0.9602 0.2794 0.0052
vn -0.7917 -0.1880 -0.5812
vn -0.4892 -0.8180 -0.3024
vn -0.6122 0.6043 -0.5099
vn -0.1198 0.9783 -0.1692
vn -0.2413 0.2023 -0.9491
vn -0.5834 0.2549 -0.7711
vn -0.0803 -0.2974 -0.9514
vn -0.1708 -0.8670 -0.4681
vn 0.0674 0.4998 -0.8635
vn 0.1617 0.9350 -0.3157
vn 0.5941 0.0403 -0.8034
vn 0.2464 0.1134 -0.9625
vn 0.6427 -0.4494 -0.6205
vn 0.1527 -0.9350 -0.3200
vn 0.7580 0.3546 -0.5475
vn 0.4478 0.8749 -0.1848
vn 0.9959 -0.0771 -0.0484
vn 0.9045 -0.0386 -0.4248
vn 0.8327 -0.5295 0.1622
vn 0.2377 -0.9709 0.0303
vn 0.9394 0.2781 0.2002
vn 0.5229 0.8432 0.1249
vn 0.6615 -0.0615 0.7474
vn 0.8952 -0.0866 0.4372
vn 0.3467 -0.4774 0.8074
vn 0.0202 -0.9475 0.3190
vn 0.4752 0.3279 0.8165
vn 0.3307 0.8638 0.3802
vn -0.1805 -0.9819 -0.0567
vn -0.3934 0.1146 0.9122
vn 0.4563 -0.0403 0.8889
vn 0.1805 0.9819 0.0567
vn -0.9342 0.2520 0.2526
vn -0.7589 0.2686 -0.5933
vn 0.0006 0.1518 -0.9884
vn 0.7722 -0.0104 -0.6353
vn 0.9750 -0.0959 0.2002
vn 0.0905 -0.8699 0.4849
vn 0.3279 -0.3424 0.8805
vn -0.1365 -0.4001 0.9062
vn -0.0945 0.8369 0.5391
vn -0.1730 0.2972 0.9390
vn 0.1966 0.3431 0.9185
vn -0.3297 -0.9049 0.2690
vn -0.4821 -0.4314 0.7625
vn -0.7948 -0.4440 0.4136
vn -0.4693 0.8044 0.3644
vn -0.8356 0.2497 0.4894
vn -0.5867 0.2598 0.7670
vn -0.4265 -0.8834 -0.1942
vn -0.9008 -0.4309 0.0535
vn -0.8263 -0.3890 -0.4073
vn -0.5695 0.8211 -0.0378
vn -0.9031 0.2988 -0.3084
vn -0.9624 0.2654 0.0584
vn -0.1270 -0.8214 -0.5560
vn -0.6128 -0.3414 -0.7127
vn -0.2073 -0.2764 -0.9384
vn -0.3196 0.8746 -0.3646
vn -0.3248 0.4074 -0.8535
vn -0.6476 0.3557 -0.6739
vn 0.3433 -0.7657 -0.5439
vn 0.1649 -0.2302 -0.9591
vn 0.5962 -0.1912 -0.7798
vn 0.0921 0.9245 -0.3699
vn 0.4638 0.4938 -0.7355
vn 0.1206 0.4628 -0.8782
vn 0.6302 -0.7582 -0.1670
vn 0.8468 -0.1811 -0.5002
vn 0.9790 -0.1974 -0.0508
vn 0.3557 0.9333 -0.0497
vn 0.8690 0.4929 -0.0433
vn 0.7638 0.5059 -0.4009
vn 0.5177 -0.8046 0.2909
vn 0.9193 -0.2310 0.3185
vn 0.6529 -0.2904 0.6995
vn 0.2727 0.8943 0.3549
vn 0.5856 0.4054 0.7020
vn 0.7976 0.4526 0.3987
vn -0.3051 -0.4601 0.8338
vn -0.0475 -0.9462 0.3201
vn -0.3864 0.3512 0.8529
vn -0.2483 0.8795 0.4059
vn 0.2919 0.0717 0.9537
vn -0.1949 0.0112 0.9808
vn -0.8593 -0.0371 0.5101
vn -0.5996 -0.0267 0.7998
vn -0.8452 -0.4818 0.2312
vn -0.2892 -0.9559 0.0504
vn -0.9021 0.3304 0.2774
vn -0.4620 0.8709 0.1675
vn -0.9374 0.0150 -0.3480
vn -0.9992 -0.0199 0.0347
vn -0.7166 -0.4093 -0.5648
vn -0.2317 -0.9235 -0.3058
vn -0.7793 0.3997 -0.4826
vn -0.4111 0.8996 -0.1473
vn -0.3187 0.1317 -0.9387
vn -0.6555 0.0778 -0.7512
vn -0.0161 -0.2971 -0.9547
vn 0.0818 -0.8733 -0.4803
vn -0.1104 0.5068 -0.8550
vn -0.1340 0.9440 -0.3015
vn 0.5308 0.2252 -0.8170
vn 0.1727 0.1928 -0.9659
vn 0.7289 -0.2297 -0.6450
vn 0.4152 -0.8431 -0.3417
vn 0.6009 0.5712 -0.5592
vn 0.1606 0.9706 -0.1790
vn 0.9715 0.2250 -0.0747
vn 0.8617 0.2385 -0.4479
vn 0.9572 -0.2579 0.1312
vn 0.5174 -0.8557 0.0056
vn 0.8190 0.5443 0.1819
vn 0.2509 0.9595 0.1280
vn 0.6715 0.1313 0.7293
vn 0.8927 0.1806 0.4129
vn 0.4971 -0.3604 0.7893
vn 0.3115 -0.9016 0.3002
vn 0.3796 0.4464 0.8104
vn 0.0689 0.9190 0.3883
vn 0.1191 -0.9903 -0.0710
vn -0.3825 -0.0177 0.9238
vn 0.4736 0.0887 0.8763
vn -0.1191 0.9903 0.0710
vn -0.9589 -0.0409 0.2807
vn -0.8217 0.0365 -0.5688
vn -0.0741 0.1562 -0.9849
vn 0.7209 0.2281 -0.6544
vn 0.9646 0.1981 0.1739
vn 0.7104 -0.4493 -0.5418
vn 0.3859 -0.1293 -0.9134
vn 0.9523 -0.0843 -0.2933
vn 0.4788 0.0905 -0.8732
vn 0.7153 0.4411 -0.5420
vn 0.9692 0.0992 -0.2255
vn 0.6927 -0.4489 0.5645
vn 0.9603 -0.1100 0.2564
vn 0.4496 -0.0956 0.8881
vn 0.6976 0.4414 0.5643
vn 0.3579 0.1252 0.9253
vn 0.9433 0.0737 0.3236
vn -0.6976 -0.4414 -0.5643
vn -0.9615 -0.0994 -0.2563
vn -0.4507 -0.0910 -0.8880
vn -0.6927 0.4489 -0.5645
vn -0.3565 0.1288 -0.9254
vn -0.9424 0.0841 -0.3236
vn -0.7153 -0.4411 0.5420
vn -0.3873 -0.1246 0.9135
vn -0.9532 -0.0735 0.2933
vn -0.7103 0.4493 0.5418
vn -0.9680 0.1101 0.2255
vn -0.4778 0.0962 0.8732
vn 0.8421 -0.5391 0.0136
vn 0.9934 -0.1134 0.0159
vn 0.4804 -0.0029 -0.8770
vn 0.9557 -0.0054 -0.2942
vn 0.8481 0.5297 0.0134
vn 0.9946 0.1023 0.0159
vn 0.4521 -0.0023 0.8919
vn 0.9458 -0.0052 0.3246
vn -0.0160 -0.6267 0.7791
vn -0.0166 -0.1365 0.9905
vn -0.0090 0.6272 0.7788
vn -0.0151 0.1371 0.9904
vn -0.9557 0.0054 0.2942
vn -0.4804 0.0029 0.8770
vn -0.8481 -0.5297 -0.0134
vn -0.9946 -0.1023 -0.0159
vn -0.8421 0.5391 -0.0136
vn -0.9934 0.1134 -0.0159
vn -0.4521 0.0023 -0.8919
vn -0.9458 0.0052 -0.3246
vn 0.0090 -0.6272 -0.7788
vn 0.0151 -0.1371 -0.9904
vn 0.0160 0.6267 -0.7791
vn 0.0166 0.1365 -0.9905
vn -0.0056 -1.0000 0.0002
vn 0.9999 -0.0056 0.0160
vn 0.0160 -0.0003 -0.9999
vn 0.0056 1.0000 -0.0002
vn -0.0160 0.0003 0.9999
vn -0.9999 0.0056 -0.0160
vn 0.2433 -0.9350 -0.2579
vn -0.0939 -0.6229 -0.7767
vn 0.4488 -0.6335 -0.6302
vn -0.3286 0.5302 -0.7816
vn -0.2276 0.9622 -0.1493
vn 0.1193 0.8424 -0.5254
vn 0.3831 -0.9215 0.0640
vn 0.7983 -0.6019 0.0227
vn 0.6773 -0.4388 0.5906
vn -0.0395 0.9885 0.1462
vn 0.3399 0.6874 0.6418
vn 0.4687 0.8741 0.1274
vn 0.0412 -0.9791 -0.1989
vn -0.4687 -0.8741 -0.1274
vn -0.4453 -0.6003 -0.6643
vn -0.3870 0.9220 -0.0107
vn -0.6181 0.5583 -0.5535
vn -0.7983 0.6019 -0.0226
vn 0.1833 -0.9754 0.1223
vn 0.3720 -0.6228 0.6883
vn -0.1193 -0.8425 0.5254
vn -0.1968 0.9384 0.2842
vn -0.4489 0.6336 0.6302
vn 0.0966 0.5089 0.8554
vn 0.3189 -0.9395 -0.1251
vn 0.6713 -0.6651 -0.3271
vn -0.2514 0.0125 -0.9678
vn 0.4355 0.1601 -0.8858
vn -0.1127 0.9936 0.0121
vn 0.3165 0.9241 -0.2143
vn 0.6637 0.0955 0.7419
vn 0.9712 0.2087 0.1150
vn 0.3066 -0.9458 0.1071
vn 0.5002 -0.5968 0.6274
vn -0.1195 0.9627 0.2426
vn 0.2192 0.6620 0.7167
vn -0.4355 -0.1601 0.8858
vn 0.2514 -0.0126 0.9678
vn 0.1127 -0.9936 -0.0121
vn -0.3165 -0.9241 0.2143
vn -0.3189 0.9395 0.1251
vn -0.6714 0.6651 0.3270
vn -0.6637 -0.0955 -0.7419
vn -0.9712 -0.2087 -0.1150
vn 0.1195 -0.9628 -0.2425
vn -0.2192 -0.6620 -0.7168
vn -0.3066 0.9458 -0.1071
vn -0.5003 0.5967 -0.6274
vn 0.2174 -0.9736 -0.0691
vn 0.8547 0.2241 -0.4683
vn -0.4715 -0.0428 -0.8809
vn -0.2174 0.9736 0.0691
vn 0.4715 0.0428 0.8809
vn -0.8547 -0.2241 0.4683
vn 0.1705 -0.9808 -0.0942
vn 0.5877 -0.6058 -0.5362
vn 0.6614 -0.7494 0.0322
vn 0.7162 0.5040 -0.4827
vn 0.2505 0.9669 -0.0475
vn 0.7163 0.6891 0.1095
vn -0.0910 -0.9800 0.1770
vn 0.1824 -0.7626 0.6206
vn -0.3767 -0.5318 0.7584
vn 0.0386 0.9638 0.2640
vn -0.3456 0.5860 0.7329
vn 0.2373 0.6759 0.6977
vn 0.0170 -0.9595 -0.2811
vn -0.2373 -0.6759 -0.6977
vn 0.3383 -0.4748 -0.8125
vn 0.0359 0.9866 -0.1593
vn 0.3922 0.6330 -0.6675
vn -0.1824 0.7626 -0.6206
vn -0.2450 -0.9695 -0.0105
vn -0.6343 -0.6132 0.4708
vn -0.7163 -0.6892 -0.1094
vn -0.1765 0.9726 0.1515
vn -0.6614 0.7494 -0.0322
vn -0.6778 0.5025 0.5367
vn 0.0682 -0.9971 0.0330
vn 0.4560 -0.8171 0.3528
vn 0.8072 0.0008 -0.5903
vn 0.9938 -0.0434 0.1023
vn 0.1437 0.9798 0.1391
vn 0.5154 0.7376 0.4362
vn -0.4140 -0.0330 0.9097
vn 0.3028 -0.0626 0.9510
vn -0.1717 -0.9787 0.1129
vn -0.5196 -0.6308 0.5762
vn -0.0972 0.9712 0.2175
vn -0.4725 0.6034 0.6424
vn -0.9938 0.0434 -0.1022
vn -0.8071 -0.0009 0.5904
vn -0.1437 -0.9798 -0.1391
vn -0.5154 -0.7377 -0.4362
vn -0.0682 0.9971 -0.0330
vn -0.4560 0.8171 -0.3528
vn 0.4140 0.0330 -0.9097
vn -0.3028 0.0626 -0.9510
vn 0.0972 -0.9712 -0.2175
vn 0.4725 -0.6033 -0.6424
vn 0.1717 0.9787 -0.1129
vn 0.5196 0.6308 -0.5762
vn -0.0381 -0.9978 -0.0535
vn 0.7746 -0.0633 0.6292
vn 0.6312 0.0175 -0.7754
vn 0.0381 0.9978 0.0535
vn -0.6312 -0.0175 0.7754
vn -0.7746 0.0633 -0.6292
vn -0.5025 -0.7483 -0.4332
vn -0.7963 0.4815 -0.3662
vn -0.4998 0.4635 -0.7317
vn -0.2079 0.9584 -0.1958
vn -0.3605 0.7341 -0.5755
vn -0.6018 0.7487 -0.2780
vn -0.0556 -0.7721 -0.6331
vn -0.3012 0.4528 -0.8392
vn 0.1667 0.4293 -0.8876
vn -0.0013 0.9470 -0.3211
vn 0.1571 0.7076 -0.6889
vn -0.2237 0.7267 -0.6495
vn 0.4018 -0.7930 -0.4580
vn 0.3832 0.4193 -0.8230
vn 0.7483 0.4041 -0.5261
vn 0.2333 0.9360 -0.2634
vn 0.6034 0.6883 -0.4027
vn 0.3061 0.7007 -0.6445
vn 0.6017 -0.7987 -0.0105
vn 0.8559 0.4006 -0.3271
vn 0.9044 0.4025 0.1413
vn 0.3586 0.9318 -0.0566
vn 0.7169 0.6875 0.1155
vn 0.6774 0.6859 -0.2658
vn 0.4270 -0.7859 0.4473
vn 0.8400 0.4077 0.3580
vn 0.5435 0.4257 0.7235
vn 0.3011 0.9368 0.1783
vn 0.4312 0.7057 0.5622
vn 0.6726 0.6911 0.2647
vn -0.0199 -0.7620 0.6472
vn 0.3449 0.4364 0.8310
vn -0.1230 0.4599 0.8794
vn 0.0945 0.9481 0.3036
vn -0.0863 0.7322 0.6756
vn 0.2945 0.7131 0.6362
vn -0.4772 -0.7412 0.4722
vn -0.3394 0.4699 0.8148
vn -0.7046 0.4851 0.5178
vn -0.1401 0.9591 0.2459
vn -0.5326 0.7515 0.3894
vn -0.2353 0.7391 0.6312
vn -0.6771 -0.7355 0.0247
vn -0.8121 0.4886 0.3189
vn -0.8607 0.4866 -0.1495
vn -0.2654 0.9634 0.0391
vn -0.6461 0.7523 -0.1288
vn -0.6066 0.7538 0.2525
vn -0.6612 0.6380 -0.3947
vn 0.4182 0.5821 -0.6973
vn -0.0990 -0.8636 0.4943
vn 0.2764 -0.3528 0.8939
vn -0.3352 -0.2413 0.9107
vn 0.1862 0.8298 0.5260
vn -0.2067 0.2987 0.9317
vn 0.3478 0.1976 0.9165
vn -0.5364 -0.7741 0.3362
vn -0.5463 -0.1970 0.8141
vn -0.9356 -0.0980 0.3392
vn -0.1912 0.9081 0.3726
vn -0.8099 0.4410 0.3866
vn -0.4570 0.3513 0.8171
vn -0.6838 -0.7212 -0.1108
vn -0.9910 -0.0746 0.1108
vn -0.8648 -0.0627 -0.4982
vn -0.3054 0.9519 -0.0239
vn -0.7613 0.4796 -0.4364
vn -0.8757 0.4687 0.1156
vn -0.4301 -0.7448 -0.5102
vn -0.7230 -0.0779 -0.6865
vn -0.1763 -0.1620 -0.9709
vn -0.0702 0.9284 -0.3650
vn -0.0974 0.3853 -0.9176
vn -0.5930 0.4615 -0.6598
vn 0.0335 -0.8271 -0.5610
vn 0.0561 -0.2044 -0.9773
vn 0.6116 -0.3211 -0.7231
vn 0.3372 0.8551 -0.3937
vn 0.6818 0.2292 -0.6947
vn 0.1782 0.3351 -0.9252
vn 0.3581 -0.9061 -0.2252
vn 0.7595 -0.3587 -0.5427
vn 0.9055 -0.4203 0.0588
vn 0.6101 0.7874 -0.0885
vn 0.9896 0.1288 0.0645
vn 0.8572 0.1846 -0.4807
vn 0.2991 -0.9224 0.2445
vn 0.8575 -0.4248 0.2901
vn 0.4841 -0.3848 0.7859
vn 0.5429 0.7761 0.3208
vn 0.5942 0.1597 0.7883
vn 0.9327 0.1234 0.3389
vn 0.2256 0.0055 0.9742
vn -0.1572 0.0753 0.9847
vn -0.8665 0.2389 0.4384
vn -0.5589 0.1607 0.8135
vn -0.8592 0.2873 -0.4234
vn -0.9589 0.2778 0.0576
vn -0.1909 0.1955 -0.9619
vn -0.6228 0.2619 -0.7372
vn 0.6351 0.0327 -0.7717
vn 0.1963 0.1249 -0.9726
vn 0.9969 -0.0786 0.0040
vn 0.8816 -0.0300 -0.4711
vn 0.6220 -0.0545 0.7811
vn 0.9170 -0.0861 0.3895
vn 0.1779 -0.8590 0.4801
vn 0.3954 -0.2634 0.8799
vn -0.2209 -0.3400 0.9141
vn -0.0544 0.8419 0.5369
vn -0.2587 0.2136 0.9420
vn 0.2999 0.2830 0.9110
vn -0.2709 -0.9026 0.3346
vn -0.4384 -0.3596 0.8237
vn -0.8534 -0.3764 0.3607
vn -0.4423 0.8054 0.3945
vn -0.8927 0.1751 0.4152
vn -0.5166 0.1902 0.8348
vn -0.4405 -0.8913 -0.1076
vn -0.9200 -0.3681 0.1341
vn -0.8212 -0.3124 -0.4775
vn -0.5759 0.8175 0.0020
vn -0.8822 0.2353 -0.4078
vn -0.9718 0.1848 0.1465
vn -0.2033 -0.8336 -0.5135
vn -0.6869 -0.2825 -0.6696
vn -0.1486 -0.1963 -0.9692
vn -0.3547 0.8690 -0.3451
vn -0.2351 0.3490 -0.9072
vn -0.7229 0.2708 -0.6356
vn 0.2622 -0.7731 -0.5776
vn 0.0855 -0.1672 -0.9822
vn 0.6579 -0.1154 -0.7442
vn 0.0549 0.9211 -0.3854
vn 0.5613 0.4304 -0.7069
vn 0.0426 0.3835 -0.9226
vn 0.6054 -0.7552 -0.2515
vn 0.8155 -0.1091 -0.5683
vn 0.9910 -0.1307 0.0281
vn 0.3443 0.9347 -0.0885
vn 0.9073 0.4183 0.0422
vn 0.7483 0.4379 -0.4983
vn 0.5678 -0.7934 0.2192
vn 0.9535 -0.1519 0.2604
vn 0.5999 -0.2306 0.7661
vn 0.2957 0.8994 0.3219
vn 0.5424 0.3218 0.7761
vn 0.8628 0.3932 0.3177
vn 0.2424 0.0625 0.9682
vn -0.1433 0.0146 0.9896
vn -0.8849 -0.0348 0.4644
vn -0.5571 -0.0216 0.8301
vn -0.9179 0.0229 -0.3961
vn -0.9960 -0.0211 0.0870
vn -0.2690 0.1409 -0.9528
vn -0.6942 0.0728 -0.7161
vn 0.5731 0.2302 -0.7865
vn 0.1211 0.1893 -0.9744
vn 0.9744 0.2237 -0.0224
vn 0.8358 0.2408 -0.4934
vn 0.6326 0.1262 0.7641
vn 0.9119 0.1884 0.3647
vn 0.6458 -0.5828 -0.4932
vn 0.4778 -0.0962 -0.8732
vn 0.9680 -0.1101 -0.2255
vn 0.3873 0.1246 -0.9135
vn 0.6523 0.5754 -0.4935
vn 0.9532 0.0735 -0.2933
vn 0.6297 -0.5825 0.5140
vn 0.9424 -0.0841 0.3237
vn 0.3565 -0.1288 0.9254
vn 0.6361 0.5757 0.5138
vn 0.4507 0.0910 0.8880
vn 0.9615 0.0994 0.2563
vn -0.6361 -0.5757 -0.5137
vn -0.9433 -0.0737 -0.3236
vn -0.3579 -0.1252 -0.9253
vn -0.6297 0.5825 -0.5140
vn -0.4496 0.0956 -0.8881
vn -0.9603 0.1100 -0.2564
vn -0.6522 -0.5754 0.4935
vn -0.4788 -0.0905 0.8732
vn -0.9692 -0.0992 0.2255
vn -0.6457 0.5829 0.4933
vn -0.9523 0.0843 0.2933
vn -0.3859 0.1293 0.9134
vn -0.4521 0.0023 -0.8920
vn 0.1968 -0.9384 -0.2842
vn -0.0966 -0.5088 -0.8554
vn 0.5662 -0.5104 -0.6472
vn -0.3720 0.6228 -0.6883
vn -0.1833 0.9754 -0.1223
vn 0.2771 0.7841 -0.5553
vn 0.3870 -0.9220 0.0107
vn 0.8726 -0.4826 -0.0747
vn 0.6181 -0.5582 0.5535
vn -0.0412 0.9791 0.1989
vn 0.4453 0.6003 0.6643
vn 0.5837 0.8118 0.0172
vn 0.0395 -0.9885 -0.1463
vn -0.5837 -0.8118 -0.0172
vn -0.3399 -0.6874 -0.6418
vn -0.3831 0.9215 -0.0640
vn -0.6773 0.4387 -0.5906
vn -0.8727 0.4826 0.0747
vn 0.2276 -0.9623 0.1493
vn 0.3286 -0.5301 0.7817
vn -0.2771 -0.7841 0.5554
vn -0.2433 0.9350 0.2579
vn -0.5662 0.5104 0.6472
vn 0.0938 0.6228 0.7767
vn 0.6714 -0.6651 -0.3270
vn -0.2514 0.0126 -0.9678
vn 0.3166 0.9241 -0.2143
vn 0.5003 -0.5967 0.6274
vn -0.1195 0.9628 0.2425
vn -0.6713 0.6651 0.3271
vn 0.1195 -0.9627 -0.2426
vn -0.2192 -0.6620 -0.7167
vn -0.5002 0.5968 -0.6274
vn 0.1764 -0.9726 -0.1515
vn 0.6777 -0.5026 -0.5368
vn 0.7349 -0.6584 0.1625
vn 0.6343 0.6132 -0.4708
vn 0.2450 0.9695 0.0105
vn 0.7822 0.5795 0.2288
vn -0.0359 -0.9866 0.1593
vn 0.3227 -0.6699 0.6687
vn -0.3922 -0.6330 0.6674
vn -0.0169 0.9595 0.2811
vn -0.3383 0.4748 0.8125
vn 0.3700 0.5681 0.7351
vn -0.0386 -0.9638 -0.2640
vn -0.3701 -0.5681 -0.7351
vn 0.3456 -0.5861 -0.7328
vn 0.0910 0.9800 -0.1770
vn 0.3768 0.5318 -0.7584
vn -0.3227 0.6698 -0.6687
vn -0.2505 -0.9669 0.0475
vn -0.7162 -0.5040 0.4827
vn -0.7822 -0.5795 -0.2288
vn -0.1705 0.9808 0.0942
vn -0.7349 0.6584 -0.1625
vn -0.5877 0.6059 0.5362
vn 0.8072 0.0009 -0.5903
vn 0.9938 -0.0434 0.1021
vn 0.5153 0.7377 0.4362
vn -0.1717 -0.9787 0.1128
vn -0.5196 -0.6309 0.5762
vn -0.4725 0.6033 0.6424
vn -0.8072 -0.0008 0.5903
vn -0.5153 -0.7377 -0.4362
vn 0.4725 -0.6034 -0.6424
vn 0.1717 0.9787 -0.1128
vn 0.5196 0.6309 -0.5762
vt 0.879646 0.477500
vt 0.879646 0.480017
vt 0.870910 0.479165
vt 0.879646 0.483738
vt 0.888382 0.479165
vt 0.893660 0.483185
vt 0.865632 0.483185
vt 0.879646 0.522500
vt 0.879646 0.520212
vt 0.889351 0.520835
vt 0.879646 0.517369
vt 0.869941 0.520835
vt 0.862203 0.516815
vt 0.897089 0.516815
vt 0.659734 0.477500
vt 0.659734 0.480017
vt 0.650999 0.479165
vt 0.659734 0.483738
vt 0.668470 0.479165
vt 0.673749 0.483185
vt 0.645720 0.483185
vt 0.659734 0.522500
vt 0.659734 0.520212
vt 0.669440 0.520835
vt 0.659734 0.517369
vt 0.650029 0.520835
vt 0.642292 0.516815
vt 0.677177 0.516815
vt 0.439823 0.477500
vt 0.439823 0.480017
vt 0.431087 0.479165
vt 0.439823 0.483738
vt 0.448559 0.479165
vt 0.453837 0.483185
vt 0.425809 0.483185
vt 0.439823 0.522500
vt 0.439823 0.520212
vt 0.449528 0.520835
vt 0.439823 0.517369
vt 0.430118 0.520835
vt 0.422380 0.516815
vt 0.457266 0.516815
vt 0.219911 0.477500
vt 0.219911 0.480017
vt 0.211176 0.479165
vt 0.219911 0.483738
vt 0.228647 0.479165
vt 0.233926 0.483185
vt 0.205897 0.483185
vt 0.219911 0.522500
vt 0.219911 0.520212
vt 0.229617 0.520835
vt 0.219911 0.517369
vt 0.210206 0.520835
vt 0.202469 0.516815
vt 0.237354 0.516815
vt 1.759292 0.477500
vt 1.759292 0.480017
vt 1.750556 0.479165
vt 0.000000 0.483738
vt 0.008736 0.479165
vt 0.014014 0.483185
vt 1.759292 0.483738
vt 1.745278 0.483185
vt 1.759292 0.522500
vt 1.759292 0.520212
vt 1.768997 0.520835
vt 1.759292 0.517369
vt 1.749587 0.520835
vt 1.741849 0.516815
vt 0.009705 0.520835
vt 0.000000 0.517369
vt 0.017443 0.516815
vt 1.539380 0.477500
vt 1.539380 0.480017
vt 1.530645 0.479165
vt 1.539380 0.483738
vt 1.548116 0.479165
vt 1.553395 0.483185
vt 1.525366 0.483185
vt 1.539380 0.522500
vt 1.539380 0.520212
vt 1.549086 0.520835
vt 1.539380 0.517369
vt 1.529675 0.520835
vt 1.521938 0.516815
vt 1.556823 0.516815
vt 1.319469 0.477500
vt 1.319469 0.480017
vt 1.310733 0.479165
vt 1.319469 0.483738
vt 1.328205 0.479165
vt 1.333483 0.483185
vt 1.305455 0.483185
vt 1.319469 0.522500
vt 1.319469 0.520212
vt 1.329174 0.520835
vt 1.319469 0.517369
vt 1.309764 0.520835
vt 1.302026 0.516815
vt 1.336912 0.516815
vt 1.099557 0.477500
vt 1.099557 0.480017
vt 1.090822 0.479165
vt 1.099557 0.483738
vt 1.108293 0.479165
vt 1.113572 0.483185
vt 1.085543 0.483185
vt 1.099557 0.522500
vt 1.099557 0.520212
vt 1.109263 0.520835
vt 1.099557 0.517369
vt 1.089852 0.520835
vt 1.082115 0.516815
vt 1.117000 0.516815
vt 0.000000 0.522500
vt 0.361283 0.435000
vt 0.361283 0.437946
vt 0.351127 0.437041
vt 0.361283 0.441970
vt 0.371439 0.437041
vt 0.375273 0.441970
vt 0.347294 0.441970
vt 0.361283 0.565000
vt 0.361283 0.562081
vt 0.372513 0.562959
vt 0.361283 0.558160
vt 0.350053 0.562959
vt 0.343097 0.558030
vt 0.379469 0.558030
vt 0.254170 0.435000
vt 0.254503 0.437946
vt 0.244418 0.437041
vt 0.254573 0.441970
vt 0.264399 0.437041
vt 0.268286 0.441970
vt 0.240750 0.441970
vt 0.252668 0.565000
vt 0.253385 0.562081
vt 0.264238 0.562959
vt 0.253535 0.558160
vt 0.242271 0.562959
vt 0.235698 0.558030
vt 0.271314 0.558030
vt 0.150157 0.435000
vt 0.150545 0.437946
vt 0.140781 0.437041
vt 0.150627 0.441970
vt 0.160087 0.437041
vt 0.163876 0.441970
vt 0.137245 0.441970
vt 0.148439 0.565000
vt 0.149254 0.562081
vt 0.159601 0.562959
vt 0.149425 0.558160
vt 0.138603 0.562959
vt 0.132328 0.558030
vt 0.166446 0.558030
vt 0.049586 0.435000
vt 0.049750 0.437946
vt 0.040290 0.437041
vt 0.049785 0.441970
vt 0.059116 0.437041
vt 0.062749 0.441970
vt 0.036763 0.441970
vt 0.048869 0.565000
vt 0.049207 0.562081
vt 0.059310 0.562959
vt 0.049279 0.558160
vt 0.038977 0.562959
vt 0.032721 0.558030
vt 0.065802 0.558030
vt 0.672980 0.435000
vt 0.672816 0.437946
vt 0.663451 0.437041
vt 0.672781 0.441970
vt 0.682277 0.437041
vt 0.685803 0.441970
vt 0.659817 0.441970
vt 0.673697 0.565000
vt 0.673359 0.562081
vt 0.683589 0.562959
vt 0.673287 0.558160
vt 0.663256 0.562959
vt 0.656764 0.558030
vt 0.689845 0.558030
vt 0.572409 0.435000
vt 0.572022 0.437946
vt 0.562479 0.437041
vt 0.571939 0.441970
vt 0.581785 0.437041
vt 0.585322 0.441970
vt 0.558690 0.441970
vt 0.574127 0.565000
vt 0.573312 0.562081
vt 0.583963 0.562959
vt 0.573141 0.558160
vt 0.562965 0.562959
vt 0.556120 0.558030
vt 0.590238 0.558030
vt 0.468397 0.435000
vt 0.468064 0.437946
vt 0.458168 0.437041
vt 0.467993 0.441970
vt 0.478148 0.437041
vt 0.481816 0.441970
vt 0.454281 0.441970
vt 0.469898 0.565000
vt 0.469181 0.562081
vt 0.480296 0.562959
vt 0.469032 0.558160
vt 0.458328 0.562959
vt 0.451252 0.558030
vt 0.486868 0.558030
vt 0.762856 0.437041
vt 0.759329 0.441970
vt 0.772153 0.435000
vt 0.755288 0.558030
vt 0.761544 0.562959
vt 0.771435 0.565000
vt 0.326726 0.442500
vt 0.326726 0.445446
vt 0.316485 0.444541
vt 0.326726 0.449469
vt 0.336966 0.444541
vt 0.340787 0.449469
vt 0.312665 0.449469
vt 0.326726 0.557500
vt 0.326726 0.554582
vt 0.337975 0.555459
vt 0.326726 0.550661
vt 0.315476 0.555459
vt 0.308604 0.550531
vt 0.344847 0.550531
vt 0.229937 0.442500
vt 0.230264 0.445446
vt 0.220096 0.444541
vt 0.230333 0.449469
vt 0.240254 0.444541
vt 0.244130 0.449469
vt 0.216438 0.449469
vt 0.228611 0.557500
vt 0.229312 0.554582
vt 0.240203 0.555459
vt 0.229455 0.550661
vt 0.218178 0.555459
vt 0.211676 0.550531
vt 0.247201 0.550531
vt 0.135886 0.442500
vt 0.136267 0.445446
vt 0.126414 0.444541
vt 0.136348 0.449469
vt 0.145911 0.444541
vt 0.149696 0.449469
vt 0.122882 0.449469
vt 0.134367 0.557500
vt 0.135165 0.554582
vt 0.145567 0.555459
vt 0.135329 0.550661
vt 0.124480 0.555459
vt 0.118260 0.550531
vt 0.152350 0.550531
vt 0.044882 0.442500
vt 0.045043 0.445446
vt 0.035485 0.444541
vt 0.045077 0.449469
vt 0.054511 0.444541
vt 0.058143 0.449469
vt 0.031960 0.449469
vt 0.044247 0.557500
vt 0.044579 0.554582
vt 0.054739 0.555459
vt 0.044648 0.550661
vt 0.034299 0.555459
vt 0.028090 0.550531
vt 0.061182 0.550531
vt 0.608569 0.442500
vt 0.608408 0.445446
vt 0.598940 0.444541
vt 0.608374 0.449469
vt 0.617966 0.444541
vt 0.621491 0.449469
vt 0.595308 0.449469
vt 0.609205 0.557500
vt 0.608872 0.554582
vt 0.619152 0.555459
vt 0.608804 0.550661
vt 0.598712 0.555459
vt 0.592269 0.550531
vt 0.625362 0.550531
vt 0.517565 0.442500
vt 0.517184 0.445446
vt 0.507540 0.444541
vt 0.517103 0.449469
vt 0.527037 0.444541
vt 0.530569 0.449469
vt 0.503756 0.449469
vt 0.519085 0.557500
vt 0.518287 0.554582
vt 0.528972 0.555459
vt 0.518122 0.550661
vt 0.507885 0.555459
vt 0.501101 0.550531
vt 0.535192 0.550531
vt 0.423515 0.442500
vt 0.423187 0.445446
vt 0.413197 0.444541
vt 0.423119 0.449469
vt 0.433355 0.444541
vt 0.437013 0.449469
vt 0.409321 0.449469
vt 0.424840 0.557500
vt 0.424140 0.554582
vt 0.435273 0.555459
vt 0.423996 0.550661
vt 0.413249 0.555459
vt 0.406250 0.550531
vt 0.441775 0.550531
vt 0.688937 0.444541
vt 0.685412 0.449469
vt 0.698333 0.442500
vt 0.681541 0.550531
vt 0.687750 0.555459
vt 0.697698 0.557500
vt 0.465287 0.395861
vt 0.465980 0.395861
vt 0.465980 0.395000
vt 0.473270 0.397940
vt 0.472825 0.396243
vt 0.473270 0.395861
vt 0.465980 0.397940
vt 0.465414 0.396243
vt 0.465287 0.397940
vt 0.473270 0.602060
vt 0.472825 0.603757
vt 0.472726 0.602060
vt 0.465980 0.604139
vt 0.465287 0.604139
vt 0.465980 0.605000
vt 0.465980 0.602060
vt 0.465414 0.603757
vt 0.534020 0.395861
vt 0.534713 0.395861
vt 0.534020 0.395000
vt 0.534020 0.397940
vt 0.534586 0.396243
vt 0.472726 0.397940
vt 0.534713 0.604139
vt 0.534020 0.604139
vt 0.534020 0.605000
vt 0.473270 0.604139
vt 0.534020 0.602060
vt 0.534586 0.603757
vt 0.534713 0.602060
vt 0.526730 0.397940
vt 0.527175 0.396243
vt 0.527274 0.397940
vt 0.526730 0.602060
vt 0.527175 0.603757
vt 0.526730 0.604139
vt 0.465287 0.602060
vt 0.526730 0.395861
vt 0.534713 0.397940
vt 0.527274 0.602060
vt 0.473270 0.395000
vt 0.526730 0.395000
vt 0.526730 0.605000
vt 0.473270 0.605000
vt 0.526730 0.534020
vt 0.473270 0.465980
vt 0.473270 0.534020
vt 0.526730 0.465980
vt 0.463550 0.478130
vt 0.462944 0.477766
vt 0.462808 0.478130
vt 0.463550 0.489308
vt 0.462944 0.489130
vt 0.463550 0.489090
vt 0.462808 0.477685
vt 0.462500 0.478130
vt 0.463550 0.510692
vt 0.462944 0.510870
vt 0.462808 0.510692
vt 0.463550 0.477685
vt 0.463550 0.521870
vt 0.462944 0.522234
vt 0.463550 0.522316
vt 0.462808 0.522316
vt 0.462808 0.521870
vt 0.462500 0.521870
vt 0.462808 0.489308
vt 0.463550 0.510910
vt 0.536450 0.478130
vt 0.537056 0.477766
vt 0.536450 0.477685
vt 0.537192 0.477685
vt 0.537192 0.478130
vt 0.537500 0.478130
vt 0.536450 0.489308
vt 0.537056 0.489130
vt 0.537192 0.489308
vt 0.536450 0.510692
vt 0.537056 0.510870
vt 0.536450 0.510910
vt 0.536450 0.521870
vt 0.537056 0.522234
vt 0.537192 0.521870
vt 0.536450 0.489090
vt 0.537192 0.522316
vt 0.537500 0.521870
vt 0.536450 0.522316
vt 0.537192 0.510692
vt 0.477685 0.510692
vt 0.478130 0.489308
vt 0.477685 0.489308
vt 0.522316 0.510692
vt 0.521870 0.489308
vt 0.521870 0.510692
vt 0.522316 0.489308
vt 0.478130 0.510692
vt 0.470840 0.481532
vt 0.470355 0.481225
vt 0.470246 0.481532
vt 0.470840 0.490280
vt 0.470355 0.490118
vt 0.470840 0.490082
vt 0.470246 0.481156
vt 0.470000 0.481532
vt 0.470840 0.509720
vt 0.470355 0.509882
vt 0.470246 0.509720
vt 0.470840 0.481156
vt 0.470840 0.518468
vt 0.470355 0.518775
vt 0.470840 0.518844
vt 0.470246 0.518844
vt 0.470246 0.518468
vt 0.470000 0.518468
vt 0.470246 0.490280
vt 0.470840 0.509918
vt 0.529160 0.481532
vt 0.529645 0.481225
vt 0.529160 0.481156
vt 0.529754 0.481156
vt 0.529754 0.481532
vt 0.530000 0.481532
vt 0.529160 0.490280
vt 0.529645 0.490118
vt 0.529754 0.490280
vt 0.529160 0.509720
vt 0.529645 0.509882
vt 0.529160 0.509918
vt 0.529160 0.518468
vt 0.529645 0.518775
vt 0.529754 0.518468
vt 0.529160 0.490082
vt 0.529754 0.518844
vt 0.530000 0.518468
vt 0.529160 0.518844
vt 0.529754 0.509720
vt 0.481156 0.490280
vt 0.481532 0.509720
vt 0.481532 0.490280
vt 0.518844 0.490280
vt 0.518468 0.509720
vt 0.518844 0.509720
vt 0.518468 0.490280
vt 0.481156 0.509720
vt 1.768028 0.479165
vt 0.000000 0.480017
vt 0.000000 0.520212
vt 0.000000 0.477500
vt 0.872724 0.435000
vt 0.871006 0.565000
vt 0.789337 0.442500
vt 0.787818 0.557500
s 0
usemtl moss
f 1/1/1 5/2/1 7/3/1
f 6/4/2 4/5/2 2/6/2
f 7/3/3 6/4/3 3/7/3
f 8/8/4 12/9/4 14/10/4
f 13/11/5 11/12/5 9/13/5
f 14/10/6 13/11/6 10/14/6
f 15/15/7 19/16/7 21/17/7
f 20/18/8 18/19/8 16/20/8
f 21/17/9 20/18/9 17/21/9
f 22/22/10 26/23/10 28/24/10
f 27/25/11 25/26/11 23/27/11
f 28/24/12 27/25/12 24/28/12
f 29/29/13 33/30/13 35/31/13
f 34/32/14 32/33/14 30/34/14
f 35/31/15 34/32/15 31/35/15
f 36/36/16 40/37/16 42/38/16
f 41/39/17 39/40/17 37/41/17
f 42/38/18 41/39/18 38/42/18
f 43/43/19 47/44/19 49/45/19
f 48/46/20 46/47/20 44/48/20
f 49/45/21 48/46/21 45/49/21
f 50/50/22 54/51/22 56/52/22
f 55/53/23 53/54/23 51/55/23
f 56/52/24 55/53/24 52/56/24
f 57/57/25 61/58/25 63/59/25
f 62/60/26 60/61/26 58/62/26
f 63/59/27 62/63/27 59/64/27
f 64/65/28 68/66/28 70/67/28
f 69/68/29 67/69/29 65/70/29
f 70/71/30 69/72/30 66/73/30
f 71/74/31 75/75/31 77/76/31
f 76/77/32 74/78/32 72/79/32
f 77/76/33 76/77/33 73/80/33
f 78/81/34 82/82/34 84/83/34
f 83/84/35 81/85/35 79/86/35
f 84/83/36 83/84/36 80/87/36
f 85/88/37 89/89/37 91/90/37
f 90/91/38 88/92/38 86/93/38
f 91/90/39 90/91/39 87/94/39
f 92/95/40 96/96/40 98/97/40
f 97/98/41 95/99/41 93/100/41
f 98/97/42 97/98/42 94/101/42
f 99/102/43 103/103/43 105/104/43
f 104/105/44 102/106/44 100/107/44
f 105/104/45 104/105/45 101/108/45
f 106/109/46 110/110/46 112/111/46
f 111/112/47 109/113/47 107/114/47
f 112/111/48 111/112/48 108/115/48
f 16/20/49 7/3/49 3/7/49
f 7/3/50 15/15/50 1/1/50
f 9/13/51 28/24/51 24/28/51
f 11/12/52 22/22/52 28/24/52
f 2/6/53 13/11/53 6/4/53
f 13/11/54 3/7/54 6/4/54
f 17/21/55 27/25/55 23/27/55
f 27/25/56 16/20/56 24/28/56
f 30/34/57 21/17/57 17/21/57
f 32/33/58 15/15/58 21/17/58
f 23/27/59 42/38/59 38/42/59
f 25/26/60 36/36/60 42/38/60
f 31/35/61 41/39/61 37/41/61
f 41/39/62 30/34/62 38/42/62
f 44/48/63 35/31/63 31/35/63
f 46/47/64 29/29/64 35/31/64
f 37/41/65 56/52/65 52/56/65
f 56/52/66 36/36/66 50/50/66
f 51/55/67 48/46/67 55/53/67
f 55/53/68 44/48/68 52/56/68
f 58/62/69 49/45/69 45/49/69
f 60/61/70 43/43/70 49/45/70
f 51/55/71 70/71/71 66/73/71
f 53/54/72 64/116/72 70/71/72
f 59/64/73 69/68/73 65/70/73
f 69/72/74 58/62/74 66/73/74
f 72/79/75 63/59/75 59/64/75
f 74/78/76 57/57/76 63/59/76
f 65/70/77 84/83/77 80/87/77
f 84/83/78 64/65/78 78/81/78
f 79/86/79 76/77/79 83/84/79
f 83/84/80 72/79/80 80/87/80
f 86/93/81 77/76/81 73/80/81
f 77/76/82 85/88/82 71/74/82
f 79/86/83 98/97/83 94/101/83
f 81/85/84 92/95/84 98/97/84
f 93/100/85 90/91/85 97/98/85
f 90/91/86 94/101/86 97/98/86
f 100/107/87 91/90/87 87/94/87
f 102/106/88 85/88/88 91/90/88
f 108/115/89 95/99/89 112/111/89
f 95/99/90 106/109/90 112/111/90
f 107/114/91 104/105/91 111/112/91
f 111/112/92 100/107/92 108/115/92
f 2/6/93 105/104/93 101/108/93
f 4/5/94 99/102/94 105/104/94
f 107/114/95 14/10/95 10/14/95
f 109/113/96 8/8/96 14/10/96
f 43/43/97 71/74/97 99/102/97
f 9/13/98 16/20/98 3/7/98
f 107/114/99 2/6/99 101/108/99
f 92/95/100 64/65/100 36/36/100
f 23/27/101 30/34/101 17/21/101
f 37/41/102 44/48/102 31/35/102
f 51/55/103 58/62/103 45/49/103
f 65/70/104 72/79/104 59/64/104
f 79/86/105 86/93/105 73/80/105
f 93/100/106 100/107/106 87/94/106
f 1/1/455 4/5/455 5/2/455
f 6/4/456 5/2/456 4/5/456
f 7/3/457 5/2/457 6/4/457
f 8/8/458 11/12/458 12/9/458
f 13/11/459 12/9/459 11/12/459
f 14/10/460 12/9/460 13/11/460
f 15/15/461 18/19/461 19/16/461
f 20/18/462 19/16/462 18/19/462
f 21/17/463 19/16/463 20/18/463
f 22/22/464 25/26/464 26/23/464
f 27/25/465 26/23/465 25/26/465
f 28/24/466 26/23/466 27/25/466
f 29/29/467 32/33/467 33/30/467
f 34/32/468 33/30/468 32/33/468
f 35/31/469 33/30/469 34/32/469
f 36/36/470 39/40/470 40/37/470
f 41/39/471 40/37/471 39/40/471
f 42/38/472 40/37/472 41/39/472
f 43/43/473 46/47/473 47/44/473
f 48/46/474 47/44/474 46/47/474
f 49/45/475 47/44/475 48/46/475
f 50/50/476 53/54/476 54/51/476
f 55/53/477 54/51/477 53/54/477
f 56/52/478 54/51/478 55/53/478
f 57/57/479 60/469/479 61/58/479
f 62/60/480 61/470/480 60/61/480
f 63/59/481 61/58/481 62/63/481
f 64/65/482 67/69/482 68/66/482
f 69/68/483 68/66/483 67/69/483
f 70/71/484 68/471/484 69/72/484
f 71/74/485 74/78/485 75/75/485
f 76/77/486 75/75/486 74/78/486
f 77/76/487 75/75/487 76/77/487
f 78/81/488 81/85/488 82/82/488
f 83/84/489 82/82/489 81/85/489
f 84/83/490 82/82/490 83/84/490
f 85/88/491 88/92/491 89/89/491
f 90/91/492 89/89/492 88/92/492
f 91/90/493 89/89/493 90/91/493
f 92/95/494 95/99/494 96/96/494
f 97/98/495 96/96/495 95/99/495
f 98/97/496 96/96/496 97/98/496
f 99/102/497 102/106/497 103/103/497
f 104/105/498 103/103/498 102/106/498
f 105/104/499 103/103/499 104/105/499
f 106/109/500 109/113/500 110/110/500
f 111/112/501 110/110/501 109/113/501
f 112/111/502 110/110/502 111/112/502
f 16/20/49 18/19/49 7/3/49
f 7/3/50 18/19/50 15/15/50
f 9/13/51 11/12/51 28/24/51
f 11/12/52 8/8/52 22/22/52
f 2/6/503 10/14/503 13/11/503
f 13/11/54 9/13/54 3/7/54
f 17/21/55 20/18/55 27/25/55
f 27/25/56 20/18/56 16/20/56
f 30/34/57 32/33/57 21/17/57
f 32/33/58 29/29/58 15/15/58
f 23/27/59 25/26/59 42/38/59
f 25/26/60 22/22/60 36/36/60
f 31/35/61 34/32/61 41/39/61
f 41/39/504 34/32/504 30/34/504
f 44/48/63 46/47/63 35/31/63
f 46/47/64 43/43/64 29/29/64
f 37/41/65 39/40/65 56/52/65
f 56/52/66 39/40/66 36/36/66
f 51/55/67 45/49/67 48/46/67
f 55/53/68 48/46/68 44/48/68
f 58/62/69 60/61/69 49/45/69
f 60/61/70 57/472/70 43/43/70
f 51/55/71 53/54/71 70/71/71
f 53/54/72 50/50/72 64/116/72
f 59/64/73 62/63/73 69/68/73
f 69/72/74 62/60/74 58/62/74
f 72/79/75 74/78/75 63/59/75
f 74/78/76 71/74/76 57/57/76
f 65/70/77 67/69/77 84/83/77
f 84/83/78 67/69/78 64/65/78
f 79/86/79 73/80/79 76/77/79
f 83/84/80 76/77/80 72/79/80
f 86/93/81 88/92/81 77/76/81
f 77/76/82 88/92/82 85/88/82
f 79/86/83 81/85/83 98/97/83
f 81/85/84 78/81/84 92/95/84
f 93/100/85 87/94/85 90/91/85
f 90/91/86 86/93/86 94/101/86
f 100/107/87 102/106/87 91/90/87
f 102/106/88 99/102/88 85/88/88
f 108/115/89 93/100/89 95/99/89
f 95/99/90 92/95/90 106/109/90
f 107/114/91 101/108/91 104/105/91
f 111/112/92 104/105/92 100/107/92
f 2/6/93 4/5/93 105/104/93
f 4/5/94 1/1/94 99/102/94
f 107/114/95 109/113/95 14/10/95
f 109/113/96 106/109/96 8/8/96
f 99/102/97 1/1/97 15/15/97
f 15/15/97 29/29/97 43/43/97
f 43/43/97 57/57/97 71/74/97
f 71/74/97 85/88/97 99/102/97
f 99/102/97 15/15/97 43/43/97
f 9/13/98 24/28/98 16/20/98
f 107/114/99 10/14/99 2/6/99
f 36/36/100 22/22/100 8/8/100
f 8/8/100 106/109/100 92/95/100
f 92/95/100 78/81/100 64/65/100
f 64/65/100 50/50/100 36/36/100
f 36/36/100 8/8/100 92/95/100
f 23/27/101 38/42/101 30/34/101
f 37/41/102 52/56/102 44/48/102
f 51/55/103 66/73/103 58/62/103
f 65/70/104 80/87/104 72/79/104
f 79/86/105 94/101/105 86/93/105
f 93/100/106 108/115/106 100/107/106
usemtl seed
f 113/117/107 117/118/107 119/119/107
f 118/120/108 116/121/108 114/122/108
f 119/119/109 118/120/109 115/123/109
f 120/124/110 124/125/110 126/126/110
f 125/127/111 123/128/111 121/129/111
f 126/126/112 125/127/112 122/130/112
f 127/131/113 131/132/113 133/133/113
f 132/134/114 130/135/114 128/136/114
f 133/133/115 132/134/115 129/137/115
f 134/138/116 138/139/116 140/140/116
f 139/141/117 137/142/117 135/143/117
f 140/140/118 139/141/118 136/144/118
f 141/145/119 145/146/119 147/147/119
f 146/148/120 144/149/120 142/150/120
f 147/147/121 146/148/121 143/151/121
f 148/152/122 152/153/122 154/154/122
f 153/155/123 151/156/123 149/157/123
f 154/154/124 153/155/124 150/158/124
f 155/159/125 159/160/125 161/161/125
f 160/162/126 158/163/126 156/164/126
f 161/161/127 160/162/127 157/165/127
f 162/166/128 166/167/128 168/168/128
f 167/169/129 165/170/129 163/171/129
f 168/168/130 167/169/130 164/172/130
f 169/173/131 173/174/131 175/175/131
f 174/176/132 172/177/132 170/178/132
f 175/175/133 174/176/133 171/179/133
f 176/180/134 180/181/134 182/182/134
f 181/183/135 179/184/135 177/185/135
f 182/182/136 181/183/136 178/186/136
f 183/187/137 187/188/137 189/189/137
f 188/190/138 186/191/138 184/192/138
f 189/189/139 188/190/139 185/193/139
f 190/194/140 194/195/140 196/196/140
f 195/197/141 193/198/141 191/199/141
f 196/196/142 195/197/142 192/200/142
f 197/201/143 201/202/143 203/203/143
f 202/204/144 200/205/144 198/206/144
f 203/203/145 202/204/145 199/207/145
f 204/208/146 208/209/146 210/210/146
f 209/211/147 207/212/147 205/213/147
f 210/210/148 209/211/148 206/214/148
f 128/136/149 119/119/149 115/123/149
f 130/135/150 113/117/150 119/119/150
f 136/144/151 123/128/151 140/140/151
f 123/128/152 134/138/152 140/140/152
f 114/122/153 125/127/153 118/120/153
f 125/127/154 115/123/154 118/120/154
f 129/137/155 139/141/155 135/143/155
f 139/141/156 128/136/156 136/144/156
f 142/150/157 133/133/157 129/137/157
f 133/133/158 141/145/158 127/131/158
f 150/158/159 137/142/159 154/154/159
f 154/154/160 134/138/160 148/152/160
f 143/151/161 153/155/161 149/157/161
f 153/155/162 142/150/162 150/158/162
f 143/151/163 158/163/163 147/147/163
f 147/147/164 155/159/164 141/145/164
f 149/157/165 168/168/165 164/172/165
f 151/156/166 162/166/166 168/168/166
f 157/165/167 167/169/167 163/171/167
f 167/169/168 156/164/168 164/172/168
f 170/178/169 161/215/169 157/216/169
f 161/215/170 169/173/170 155/217/170
f 163/218/171 182/182/171 178/186/171
f 165/219/172 176/180/172 182/182/172
f 171/179/173 181/183/173 177/185/173
f 181/183/174 170/178/174 178/186/174
f 184/192/175 175/175/175 171/179/175
f 175/175/176 183/187/176 169/173/176
f 177/185/177 196/196/177 192/200/177
f 179/184/178 190/194/178 196/196/178
f 185/193/179 195/197/179 191/199/179
f 195/197/180 184/192/180 192/200/180
f 198/206/181 189/189/181 185/193/181
f 189/189/182 197/201/182 183/187/182
f 191/199/183 210/210/183 206/214/183
f 193/198/184 204/208/184 210/210/184
f 199/207/185 209/211/185 205/213/185
f 209/211/186 198/206/186 206/214/186
f 114/122/187 203/203/187 199/207/187
f 116/121/188 197/201/188 203/203/188
f 122/130/189 207/212/189 126/126/189
f 126/126/190 204/208/190 120/124/190
f 127/131/191 155/217/191 183/187/191
f 121/129/192 128/136/192 115/123/192
f 205/213/193 114/122/193 199/207/193
f 120/124/194 190/194/194 162/220/194
f 135/143/195 142/150/195 129/137/195
f 149/157/196 156/164/196 143/151/196
f 163/218/197 170/178/197 157/216/197
f 177/185/198 184/192/198 171/179/198
f 191/199/199 198/206/199 185/193/199
f 211/221/200 215/222/200 217/223/200
f 216/224/201 214/225/201 212/226/201
f 217/223/202 216/224/202 213/227/202
f 218/228/203 222/229/203 224/230/203
f 223/231/204 221/232/204 219/233/204
f 224/230/205 223/231/205 220/234/205
f 225/235/206 229/236/206 231/237/206
f 230/238/207 228/239/207 226/240/207
f 231/237/208 230/238/208 227/241/208
f 232/242/209 236/243/209 238/244/209
f 237/245/210 235/246/210 233/247/210
f 238/244/211 237/245/211 234/248/211
f 239/249/212 243/250/212 245/251/212
f 244/252/213 242/253/213 240/254/213
f 245/251/214 244/252/214 241/255/214
f 246/256/215 250/257/215 252/258/215
f 251/259/216 249/260/216 247/261/216
f 252/258/217 251/259/217 248/262/217
f 253/263/218 257/264/218 259/265/218
f 258/266/219 256/267/219 254/268/219
f 259/265/220 258/266/220 255/269/220
f 260/270/221 264/271/221 266/272/221
f 265/273/222 263/274/222 261/275/222
f 266/272/223 265/273/223 262/276/223
f 267/277/224 271/278/224 273/279/224
f 272/280/225 270/281/225 268/282/225
f 273/279/226 272/280/226 269/283/226
f 274/284/227 278/285/227 280/286/227
f 279/287/228 277/288/228 275/289/228
f 280/286/229 279/287/229 276/290/229
f 281/291/230 285/292/230 287/293/230
f 286/294/231 284/295/231 282/296/231
f 287/293/232 286/294/232 283/297/232
f 288/298/233 292/299/233 294/300/233
f 293/301/234 291/302/234 289/303/234
f 294/300/235 293/301/235 290/304/235
f 295/305/236 299/306/236 301/307/236
f 300/308/237 298/309/237 296/310/237
f 301/307/238 300/308/238 297/311/238
f 302/312/239 306/313/239 308/314/239
f 307/315/240 305/316/240 303/317/240
f 308/314/241 307/315/241 304/318/241
f 213/227/242 228/239/242 217/223/242
f 228/239/243 211/221/243 217/223/243
f 219/233/244 238/244/244 234/248/244
f 238/244/245 218/228/245 232/242/245
f 212/226/246 223/231/246 216/224/246
f 223/231/247 213/227/247 216/224/247
f 227/241/248 237/245/248 233/247/248
f 237/245/249 226/240/249 234/248/249
f 227/241/250 242/253/250 231/237/250
f 242/253/251 225/235/251 231/237/251
f 233/247/252 252/258/252 248/262/252
f 235/246/253 246/256/253 252/258/253
f 241/255/254 251/259/254 247/261/254
f 251/259/255 240/254/255 248/262/255
f 254/268/256 245/251/256 241/255/256
f 256/267/257 239/249/257 245/251/257
f 262/276/258 249/260/258 266/272/258
f 249/260/259 260/270/259 266/272/259
f 255/269/260 265/273/260 261/275/260
f 265/273/261 254/268/261 262/276/261
f 268/282/262 259/319/262 255/320/262
f 270/281/263 253/321/263 259/319/263
f 261/322/264 280/286/264 276/290/264
f 263/323/265 274/284/265 280/286/265
f 269/283/266 279/287/266 275/289/266
f 279/287/267 268/282/267 276/290/267
f 282/296/268 273/279/268 269/283/268
f 284/295/269 267/277/269 273/279/269
f 290/304/270 277/288/270 294/300/270
f 277/288/271 288/298/271 294/300/271
f 283/297/272 293/301/272 289/303/272
f 293/301/273 282/296/273 290/304/273
f 296/310/274 287/293/274 283/297/274
f 298/309/275 281/291/275 287/293/275
f 289/303/276 308/314/276 304/318/276
f 291/302/277 302/312/277 308/314/277
f 297/311/278 307/315/278 303/317/278
f 307/315/279 296/310/279 304/318/279
f 212/226/280 301/307/280 297/311/280
f 301/307/281 211/221/281 295/305/281
f 220/234/282 305/316/282 224/230/282
f 305/316/283 218/228/283 224/230/283
f 225/235/284 253/321/284 281/291/284
f 219/233/285 226/240/285 213/227/285
f 297/311/286 220/234/286 212/226/286
f 218/228/287 288/298/287 260/324/287
f 233/247/288 240/254/288 227/241/288
f 247/261/289 254/268/289 241/255/289
f 255/320/290 276/290/290 268/282/290
f 275/289/291 282/296/291 269/283/291
f 289/303/292 296/310/292 283/297/292
f 113/117/505 116/121/505 117/118/505
f 118/120/506 117/118/506 116/121/506
f 119/119/507 117/118/507 118/120/507
f 120/124/508 123/128/508 124/125/508
f 125/127/509 124/125/509 123/128/509
f 126/126/510 124/125/510 125/127/510
f 127/131/511 130/135/511 131/132/511
f 132/134/512 131/132/512 130/135/512
f 133/133/513 131/132/513 132/134/513
f 134/138/514 137/142/514 138/139/514
f 139/141/515 138/139/515 137/142/515
f 140/140/516 138/139/516 139/141/516
f 141/145/517 144/149/517 145/146/517
f 146/148/518 145/146/518 144/149/518
f 147/147/519 145/146/519 146/148/519
f 148/152/520 151/156/520 152/153/520
f 153/155/521 152/153/521 151/156/521
f 154/154/522 152/153/522 153/155/522
f 155/159/523 158/163/523 159/160/523
f 160/162/524 159/160/524 158/163/524
f 161/161/525 159/160/525 160/162/525
f 162/166/526 165/170/526 166/167/526
f 167/169/527 166/167/527 165/170/527
f 168/168/528 166/167/528 167/169/528
f 169/173/529 172/177/529 173/174/529
f 174/176/530 173/174/530 172/177/530
f 175/175/531 173/174/531 174/176/531
f 176/180/532 179/184/532 180/181/532
f 181/183/533 180/181/533 179/184/533
f 182/182/534 180/181/534 181/183/534
f 183/187/535 186/191/535 187/188/535
f 188/190/536 187/188/536 186/191/536
f 189/189/537 187/188/537 188/190/537
f 190/194/538 193/198/538 194/195/538
f 195/197/539 194/195/539 193/198/539
f 196/196/540 194/195/540 195/197/540
f 197/201/541 200/205/541 201/202/541
f 202/204/542 201/202/542 200/205/542
f 203/203/543 201/202/543 202/204/543
f 204/208/544 207/212/544 208/209/544
f 209/211/545 208/209/545 207/212/545
f 210/210/546 208/209/546 209/211/546
f 128/136/149 130/135/149 119/119/149
f 130/135/150 127/131/150 113/117/150
f 136/144/151 121/129/151 123/128/151
f 123/128/152 120/124/152 134/138/152
f 114/122/547 122/130/547 125/127/547
f 125/127/548 121/129/548 115/123/548
f 129/137/549 132/134/549 139/141/549
f 139/141/550 132/134/550 128/136/550
f 142/150/157 144/149/157 133/133/157
f 133/133/158 144/149/158 141/145/158
f 150/158/159 135/143/159 137/142/159
f 154/154/160 137/142/160 134/138/160
f 143/151/551 146/148/551 153/155/551
f 153/155/552 146/148/552 142/150/552
f 143/151/163 156/164/163 158/163/163
f 147/147/164 158/163/164 155/159/164
f 149/157/165 151/156/165 168/168/165
f 151/156/166 148/152/166 162/166/166
f 157/165/553 160/162/553 167/169/553
f 167/169/554 160/162/554 156/164/554
f 170/178/169 172/177/169 161/215/169
f 161/215/170 172/177/170 169/173/170
f 163/218/171 165/219/171 182/182/171
f 165/219/172 162/220/172 176/180/172
f 171/179/555 174/176/555 181/183/555
f 181/183/556 174/176/556 170/178/556
f 184/192/175 186/191/175 175/175/175
f 175/175/176 186/191/176 183/187/176
f 177/185/177 179/184/177 196/196/177
f 179/184/178 176/180/178 190/194/178
f 185/193/557 188/190/557 195/197/557
f 195/197/558 188/190/558 184/192/558
f 198/206/181 200/205/181 189/189/181
f 189/189/182 200/205/182 197/201/182
f 191/199/183 193/198/183 210/210/183
f 193/198/184 190/194/184 204/208/184
f 199/207/559 202/204/559 209/211/559
f 209/211/560 202/204/560 198/206/560
f 114/122/187 116/121/187 203/203/187
f 116/121/188 113/117/188 197/201/188
f 122/130/189 205/213/189 207/212/189
f 126/126/190 207/212/190 204/208/190
f 197/201/191 113/117/191 127/131/191
f 127/131/191 141/473/191 155/217/191
f 155/217/191 169/173/191 183/187/191
f 183/187/191 197/201/191 127/131/191
f 121/129/192 136/144/192 128/136/192
f 205/213/193 122/130/193 114/122/193
f 148/474/194 134/138/194 120/124/194
f 120/124/194 204/208/194 190/194/194
f 190/194/194 176/180/194 162/220/194
f 162/220/194 148/474/194 120/124/194
f 135/143/195 150/158/195 142/150/195
f 149/157/196 164/172/196 156/164/196
f 163/218/197 178/186/197 170/178/197
f 177/185/198 192/200/198 184/192/198
f 191/199/199 206/214/199 198/206/199
f 211/221/561 214/225/561 215/222/561
f 216/224/562 215/222/562 214/225/562
f 217/223/563 215/222/563 216/224/563
f 218/228/564 221/232/564 222/229/564
f 223/231/565 222/229/565 221/232/565
f 224/230/566 222/229/566 223/231/566
f 225/235/567 228/239/567 229/236/567
f 230/238/568 229/236/568 228/239/568
f 231/237/569 229/236/569 230/238/569
f 232/242/570 235/246/570 236/243/570
f 237/245/571 236/243/571 235/246/571
f 238/244/572 236/243/572 237/245/572
f 239/249/573 242/253/573 243/250/573
f 244/252/574 243/250/574 242/253/574
f 245/251/575 243/250/575 244/252/575
f 246/256/576 249/260/576 250/257/576
f 251/259/577 250/257/577 249/260/577
f 252/258/578 250/257/578 251/259/578
f 253/263/579 256/267/579 257/264/579
f 258/266/580 257/264/580 256/267/580
f 259/265/581 257/264/581 258/266/581
f 260/270/582 263/274/582 264/271/582
f 265/273/583 264/271/583 263/274/583
f 266/272/584 264/271/584 265/273/584
f 267/277/585 270/281/585 271/278/585
f 272/280/586 271/278/586 270/281/586
f 273/279/587 271/278/587 272/280/587
f 274/284/588 277/288/588 278/285/588
f 279/287/589 278/285/589 277/288/589
f 280/286/590 278/285/590 279/287/590
f 281/291/591 284/295/591 285/292/591
f 286/294/592 285/292/592 284/295/592
f 287/293/593 285/292/593 286/294/593
f 288/298/594 291/302/594 292/299/594
f 293/301/595 292/299/595 291/302/595
f 294/300/596 292/299/596 293/301/596
f 295/305/597 298/309/597 299/306/597
f 300/308/598 299/306/598 298/309/598
f 301/307/599 299/306/599 300/308/599
f 302/312/600 305/316/600 306/313/600
f 307/315/601 306/313/601 305/316/601
f 308/314/602 306/313/602 307/315/602
f 213/227/242 226/240/242 228/239/242
f 228/239/243 225/235/243 211/221/243
f 219/233/244 221/232/244 238/244/244
f 238/244/245 221/232/245 218/228/245
f 212/226/603 220/234/603 223/231/603
f 223/231/604 219/233/604 213/227/604
f 227/241/605 230/238/605 237/245/605
f 237/245/606 230/238/606 226/240/606
f 227/241/250 240/254/250 242/253/250
f 242/253/251 239/249/251 225/235/251
f 233/247/252 235/246/252 252/258/252
f 235/246/253 232/242/253 246/256/253
f 241/255/607 244/252/607 251/259/607
f 251/259/608 244/252/608 240/254/608
f 254/268/256 256/267/256 245/251/256
f 256/267/257 253/263/257 239/249/257
f 262/276/258 247/261/258 249/260/258
f 249/260/259 246/256/259 260/270/259
f 255/269/609 258/266/609 265/273/609
f 265/273/610 258/266/610 254/268/610
f 268/282/262 270/281/262 259/319/262
f 270/281/263 267/277/263 253/321/263
f 261/322/264 263/323/264 280/286/264
f 263/323/265 260/324/265 274/284/265
f 269/283/611 272/280/611 279/287/611
f 279/287/612 272/280/612 268/282/612
f 282/296/268 284/295/268 273/279/268
f 284/295/269 281/291/269 267/277/269
f 290/304/270 275/289/270 277/288/270
f 277/288/271 274/284/271 288/298/271
f 283/297/613 286/294/613 293/301/613
f 293/301/614 286/294/614 282/296/614
f 296/310/274 298/309/274 287/293/274
f 298/309/275 295/305/275 281/291/275
f 289/303/276 291/302/276 308/314/276
f 291/302/277 288/298/277 302/312/277
f 297/311/615 300/308/615 307/315/615
f 307/315/616 300/308/616 296/310/616
f 212/226/280 214/225/280 301/307/280
f 301/307/281 214/225/281 211/221/281
f 220/234/282 303/317/282 305/316/282
f 305/316/283 302/312/283 218/228/283
f 295/305/284 211/221/284 225/235/284
f 225/235/284 239/475/284 253/321/284
f 253/321/284 267/277/284 281/291/284
f 281/291/284 295/305/284 225/235/284
f 219/233/285 234/248/285 226/240/285
f 297/311/286 303/317/286 220/234/286
f 246/476/287 232/242/287 218/228/287
f 218/228/287 302/312/287 288/298/287
f 288/298/287 274/284/287 260/324/287
f 260/324/287 246/476/287 218/228/287
f 233/247/288 248/262/288 240/254/288
f 247/261/289 262/276/289 254/268/289
f 255/320/290 261/322/290 276/290/290
f 275/289/291 290/304/291 282/296/291
f 289/303/292 304/318/292 296/310/292
usemtl core
f 312/325/293 315/326/293 309/327/293
f 310/328/294 313/329/294 312/330/294
f 311/331/295 313/332/295 314/333/295
f 316/334/296 320/335/296 322/336/296
f 321/337/297 319/338/297 317/339/297
f 318/340/298 320/341/298 321/337/298
f 326/342/299 329/343/299 323/344/299
f 324/345/300 327/346/300 326/342/300
f 325/328/301 327/329/301 328/347/301
f 333/348/302 336/349/302 330/350/302
f 331/334/303 334/335/303 333/351/303
f 332/352/304 334/353/304 335/354/304
f 340/326/305 343/325/305 337/327/305
f 338/331/306 341/332/306 340/326/306
f 339/355/307 341/356/307 342/357/307
f 347/338/308 350/337/308 344/339/308
f 345/358/309 348/359/309 347/360/309
f 346/340/310 348/341/310 349/361/310
f 354/343/311 357/342/311 351/344/311
f 352/355/312 355/356/312 354/362/312
f 353/345/313 355/346/313 356/363/313
f 361/349/314 364/348/314 358/350/314
f 359/352/315 362/353/315 361/349/315
f 360/358/316 362/359/316 363/364/316
f 309/327/317 326/342/317 323/344/317
f 315/326/318 324/345/318 326/342/318
f 316/334/319 314/347/319 310/328/319
f 322/361/320 311/331/320 314/333/320
f 330/350/321 321/337/321 317/339/321
f 336/349/322 318/340/322 321/337/322
f 325/328/323 335/336/323 331/334/323
f 335/354/324 324/345/324 332/352/324
f 323/365/325 354/362/325 351/366/325
f 329/330/326 352/355/326 354/362/326
f 358/367/327 333/351/327 330/368/327
f 364/360/328 331/334/328 333/351/328
f 353/345/329 363/354/329 359/352/329
f 356/357/330 360/358/330 363/364/330
f 351/344/331 340/326/331 337/327/331
f 357/342/332 338/331/332 340/326/332
f 358/350/333 350/337/333 361/349/333
f 350/337/334 359/352/334 361/349/334
f 339/355/335 349/364/335 345/358/335
f 342/333/336 346/340/336 349/361/336
f 337/366/337 312/330/337 309/365/337
f 312/330/338 339/355/338 310/328/338
f 317/368/339 347/360/339 344/367/339
f 319/351/340 345/358/340 347/360/340
f 351/369/341 309/370/341 323/371/341
f 318/340/342 324/345/342 311/331/342
f 345/358/343 310/328/343 339/355/343
f 330/371/344 344/372/344 358/369/344
f 325/328/345 360/358/345 352/355/345
f 359/352/346 338/331/346 353/345/346
f 312/325/617 313/332/617 315/326/617
f 310/328/618 314/347/618 313/329/618
f 311/331/619 315/326/619 313/332/619
f 316/334/620 319/351/620 320/335/620
f 321/337/621 320/341/621 319/338/621
f 318/340/622 322/361/622 320/341/622
f 326/342/623 327/346/623 329/343/623
f 324/345/624 328/363/624 327/346/624
f 325/328/625 329/330/625 327/329/625
f 333/348/626 334/353/626 336/349/626
f 331/334/627 335/336/627 334/335/627
f 332/352/628 336/349/628 334/353/628
f 340/326/629 341/332/629 343/325/629
f 338/331/630 342/333/630 341/332/630
f 339/355/631 343/362/631 341/356/631
f 347/338/632 348/341/632 350/337/632
f 345/358/633 349/364/633 348/359/633
f 346/340/634 350/337/634 348/341/634
f 354/343/635 355/346/635 357/342/635
f 352/355/636 356/357/636 355/356/636
f 353/345/637 357/342/637 355/346/637
f 361/349/638 362/353/638 364/348/638
f 359/352/639 363/354/639 362/353/639
f 360/358/640 364/360/640 362/359/640
f 309/327/317 315/326/317 326/342/317
f 315/326/318 311/331/318 324/345/318
f 316/334/319 322/336/319 314/347/319
f 322/361/320 318/340/320 311/331/320
f 330/350/321 336/349/321 321/337/321
f 336/349/322 332/352/322 318/340/322
f 325/328/323 328/347/323 335/336/323
f 335/354/324 328/363/324 324/345/324
f 323/365/325 329/330/325 354/362/325
f 329/330/326 325/328/326 352/355/326
f 358/367/327 364/360/327 333/351/327
f 364/360/328 360/358/328 331/334/328
f 353/345/329 356/363/329 363/354/329
f 356/357/330 352/355/330 360/358/330
f 351/344/331 357/342/331 340/326/331
f 357/342/332 353/345/332 338/331/332
f 358/350/333 344/339/333 350/337/333
f 350/337/334 346/340/334 359/352/334
f 339/355/641 342/357/641 349/364/641
f 342/333/336 338/331/336 346/340/336
f 337/366/337 343/362/337 312/330/337
f 312/330/338 343/362/338 339/355/338
f 317/368/339 319/351/339 347/360/339
f 319/351/340 316/334/340 345/358/340
f 351/369/341 337/372/341 309/370/341
f 318/340/342 332/352/342 324/345/342
f 345/358/343 316/334/343 310/328/343
f 330/371/344 317/370/344 344/372/344
f 325/328/345 331/334/345 360/358/345
f 359/352/346 346/340/346 338/331/346
usemtl bark
f 365/373/347 369/374/347 371/375/347
f 366/376/348 369/377/348 368/378/348
f 371/375/349 370/379/349 367/380/349
f 372/381/350 376/382/350 378/383/350
f 373/373/351 376/374/351 375/384/351
f 378/379/352 377/375/352 374/380/352
f 379/385/353 383/386/353 385/387/353
f 384/388/354 382/389/354 380/390/354
f 381/376/355 383/377/355 384/391/355
f 386/385/356 390/386/356 392/389/356
f 387/381/357 390/382/357 389/392/357
f 392/389/358 391/388/358 388/390/358
f 393/393/359 397/394/359 399/395/359
f 398/396/360 396/397/360 394/398/360
f 395/399/361 397/400/361 398/401/361
f 400/393/362 404/394/362 406/397/362
f 401/402/363 404/403/363 403/404/363
f 406/397/364 405/396/364 402/398/364
f 407/405/365 411/406/365 413/407/365
f 408/399/366 411/400/366 410/408/366
f 413/407/367 412/409/367 409/410/367
f 414/405/368 418/406/368 420/411/368
f 419/409/369 417/407/369 415/410/369
f 416/402/370 418/403/370 419/412/370
f 365/373/371 382/389/371 379/385/371
f 382/389/372 367/380/372 380/390/372
f 366/376/373 378/383/373 370/391/373
f 378/413/374 367/414/374 370/415/374
f 373/373/375 392/389/375 377/375/375
f 377/375/376 388/390/376 374/380/376
f 381/376/377 391/383/377 387/381/377
f 391/416/378 380/417/378 388/418/378
f 379/385/379 410/411/379 407/405/379
f 410/408/380 381/376/380 408/399/380
f 386/385/381 420/411/381 389/387/381
f 420/404/382 387/381/382 389/392/382
f 415/418/383 412/419/383 419/416/383
f 412/401/384 416/402/384 419/412/384
f 407/405/385 396/397/385 393/393/385
f 413/407/386 394/398/386 396/397/386
f 414/405/387 406/397/387 417/407/387
f 406/397/388 415/410/388 417/407/388
f 395/399/389 405/412/389 401/402/389
f 398/415/390 402/420/390 405/413/390
f 393/393/391 368/384/391 365/373/391
f 399/408/392 366/376/392 368/378/392
f 400/393/393 375/384/393 403/395/393
f 375/392/394 401/402/394 403/404/394
f 407/405/395 365/373/395 379/385/395
f 374/420/396 380/417/396 367/414/396
f 401/402/397 366/376/397 395/399/397
f 386/385/398 400/393/398 414/405/398
f 381/376/399 416/402/399 408/399/399
f 415/418/400 394/414/400 409/417/400
f 421/421/401 425/422/401 427/423/401
f 422/424/402 425/425/402 424/426/402
f 427/423/403 426/427/403 423/428/403
f 428/429/404 432/430/404 434/431/404
f 429/421/405 432/422/405 431/432/405
f 434/427/406 433/423/406 430/428/406
f 435/433/407 439/434/407 441/435/407
f 440/436/408 438/437/408 436/438/408
f 437/424/409 439/425/409 440/439/409
f 442/433/410 446/434/410 448/437/410
f 443/429/411 446/430/411 445/440/411
f 448/437/412 447/436/412 444/438/412
f 449/441/413 453/442/413 455/443/413
f 454/444/414 452/445/414 450/446/414
f 451/447/415 453/448/415 454/449/415
f 456/441/416 460/442/416 462/445/416
f 457/450/417 460/451/417 459/452/417
f 462/445/418 461/444/418 458/446/418
f 463/453/419 467/454/419 469/455/419
f 464/447/420 467/448/420 466/456/420
f 469/455/421 468/457/421 465/458/421
f 470/453/422 474/454/422 476/459/422
f 475/457/423 473/455/423 471/458/423
f 472/450/424 474/451/424 475/460/424
f 421/421/425 438/437/425 435/433/425
f 427/423/426 436/438/426 438/437/426
f 428/429/427 426/439/427 422/424/427
f 426/461/428 430/462/428 423/463/428
f 429/421/429 448/437/429 433/423/429
f 448/437/430 430/428/430 433/423/430
f 437/424/431 447/431/431 443/429/431
f 440/464/432 444/465/432 447/466/432
f 435/433/433 466/459/433 463/453/433
f 441/426/434 464/447/434 466/456/434
f 470/453/435 445/435/435 442/433/435
f 476/452/436 443/429/436 445/440/436
f 465/467/437 475/466/437 471/465/437
f 468/449/438 472/450/438 475/460/438
f 449/441/439 469/455/439 452/445/439
f 452/445/440 465/458/440 450/446/440
f 470/453/441 462/445/441 473/455/441
f 473/455/442 458/446/442 471/458/442
f 457/450/443 454/449/443 461/460/443
f 454/461/444 458/462/444 461/468/444
f 449/441/445 424/432/445 421/421/445
f 455/456/446 422/424/446 424/426/446
f 429/421/447 459/443/447 456/441/447
f 459/452/448 428/429/448 457/450/448
f 463/453/449 421/421/449 435/433/449
f 430/462/450 436/467/450 423/463/450
f 457/450/451 422/424/451 451/447/451
f 442/433/452 456/441/452 470/453/452
f 443/429/453 464/447/453 437/424/453
f 465/467/454 458/462/454 450/463/454
f 365/373/642 368/384/642 369/374/642
f 366/376/643 370/391/643 369/377/643
f 371/375/644 369/374/644 370/379/644
f 372/381/645 375/392/645 376/382/645
f 373/373/646 377/375/646 376/374/646
f 378/379/647 376/374/647 377/375/647
f 379/385/648 382/389/648 383/386/648
f 384/388/649 383/386/649 382/389/649
f 381/376/650 385/378/650 383/377/650
f 386/385/651 389/387/651 390/386/651
f 387/381/652 391/383/652 390/382/652
f 392/389/653 390/386/653 391/388/653
f 393/393/654 396/397/654 397/394/654
f 398/396/655 397/394/655 396/397/655
f 395/399/656 399/408/656 397/400/656
f 400/393/657 403/395/657 404/394/657
f 401/402/658 405/412/658 404/403/658
f 406/397/659 404/394/659 405/396/659
f 407/405/660 410/411/660 411/406/660
f 408/399/661 412/401/661 411/400/661
f 413/407/662 411/406/662 412/409/662
f 414/405/663 417/407/663 418/406/663
f 419/409/664 418/406/664 417/407/664
f 416/402/665 420/404/665 418/403/665
f 365/373/371 371/375/371 382/389/371
f 382/389/666 371/375/666 367/380/666
f 366/376/667 372/381/667 378/383/667
f 378/413/374 374/420/374 367/414/374
f 373/373/375 386/385/375 392/389/375
f 377/375/668 392/389/668 388/390/668
f 381/376/377 384/391/377 391/383/377
f 391/416/378 384/419/378 380/417/378
f 379/385/379 385/387/379 410/411/379
f 410/408/669 385/378/669 381/376/669
f 386/385/670 414/405/670 420/411/670
f 420/404/382 416/402/382 387/381/382
f 415/418/383 409/417/383 412/419/383
f 412/401/384 408/399/384 416/402/384
f 407/405/385 413/407/385 396/397/385
f 413/407/386 409/410/386 394/398/386
f 414/405/387 400/393/387 406/397/387
f 406/397/671 402/398/671 415/410/671
f 395/399/389 398/401/389 405/412/389
f 398/415/390 394/414/390 402/420/390
f 393/393/672 399/395/672 368/384/672
f 399/408/673 395/399/673 366/376/673
f 400/393/393 373/373/393 375/384/393
f 375/392/674 372/381/674 401/402/674
f 407/405/395 393/393/395 365/373/395
f 374/420/396 388/418/396 380/417/396
f 401/402/397 372/381/397 366/376/397
f 386/385/398 373/373/398 400/393/398
f 381/376/399 387/381/399 416/402/399
f 415/418/400 402/420/400 394/414/400
f 421/421/675 424/432/675 425/422/675
f 422/424/676 426/439/676 425/425/676
f 427/423/677 425/422/677 426/427/677
f 428/429/678 431/440/678 432/430/678
f 429/421/679 433/423/679 432/422/679
f 434/427/680 432/422/680 433/423/680
f 435/433/681 438/437/681 439/434/681
f 440/436/682 439/434/682 438/437/682
f 437/424/683 441/426/683 439/425/683
f 442/433/684 445/435/684 446/434/684
f 443/429/685 447/431/685 446/430/685
f 448/437/686 446/434/686 447/436/686
f 449/441/687 452/445/687 453/442/687
f 454/444/688 453/442/688 452/445/688
f 451/447/689 455/456/689 453/448/689
f 456/441/690 459/443/690 460/442/690
f 457/450/691 461/460/691 460/451/691
f 462/445/692 460/442/692 461/444/692
f 463/453/693 466/459/693 467/454/693
f 464/447/694 468/449/694 467/448/694
f 469/455/695 467/454/695 468/457/695
f 470/453/696 473/455/696 474/454/696
f 475/457/697 474/454/697 473/455/697
f 472/450/698 476/452/698 474/451/698
f 421/421/425 427/423/425 438/437/425
f 427/423/426 423/428/426 436/438/426
f 428/429/699 434/431/699 426/439/699
f 426/461/700 434/468/700 430/462/700
f 429/421/429 442/433/429 448/437/429
f 448/437/701 444/438/701 430/428/701
f 437/424/431 440/439/431 447/431/431
f 440/464/432 436/467/432 444/465/432
f 435/433/702 441/435/702 466/459/702
f 441/426/703 437/424/703 464/447/703
f 470/453/435 476/459/435 445/435/435
f 476/452/704 472/450/704 443/429/704
f 465/467/437 468/464/437 475/466/437
f 468/449/705 464/447/705 472/450/705
f 449/441/439 463/453/439 469/455/439
f 452/445/706 469/455/706 465/458/706
f 470/453/441 456/441/441 462/445/441
f 473/455/442 462/445/442 458/446/442
f 457/450/443 451/447/443 454/449/443
f 454/461/444 450/463/444 458/462/444
f 449/441/445 455/443/445 424/432/445
f 455/456/707 451/447/707 422/424/707
f 429/421/708 431/432/708 459/443/708
f 459/452/709 431/440/709 428/429/709
f 463/453/449 449/441/449 421/421/449
f 430/462/450 444/465/450 436/467/450
f 457/450/451 428/429/451 422/424/451
f 442/433/452 429/421/452 456/441/452
f 443/429/453 472/450/453 464/447/453
f 465/467/454 471/465/454 458/462/454
