# Blender 4.5.10 LTS
# www.blender.org
mtllib grove_bonemeal_crock.mtl
o grove_bonemeal_crock
v 0.008495 0.008806 0.067806
v 0.008000 0.023149 0.084074
v 0.008361 0.013200 0.078540
v 0.006677 0.057004 0.074256
v 0.007229 0.043593 0.086810
v 0.006850 0.053269 0.083902
v -0.020116 0.007487 0.060847
v -0.028381 0.021473 0.075226
v -0.025300 0.011649 0.070353
v -0.025651 0.055515 0.066393
v -0.030728 0.041844 0.077578
v -0.029901 0.051576 0.074963
v -0.042200 0.006015 0.041382
v -0.056462 0.019600 0.050475
v -0.051282 0.009916 0.047452
v -0.050604 0.053851 0.044399
v -0.060026 0.039890 0.051755
v -0.058269 0.049684 0.049960
v -0.052698 0.004726 0.013871
v -0.069811 0.017962 0.015493
v -0.063634 0.008400 0.015084
v -0.062466 0.052395 0.013314
v -0.073953 0.038181 0.015257
v -0.071754 0.048029 0.014621
v -0.049205 0.003917 -0.015385
v -0.065369 0.016932 -0.021707
v -0.059524 0.007448 -0.019336
v -0.058519 0.051480 -0.019743
v -0.069319 0.037106 -0.023555
v -0.067267 0.046989 -0.022958
v -0.032521 0.003771 -0.039683
v -0.044155 0.016747 -0.052603
v -0.039895 0.007276 -0.047923
v -0.039668 0.051316 -0.047197
v -0.047186 0.036913 -0.055790
v -0.045836 0.046802 -0.054169
v -0.006469 0.004323 -0.053456
v -0.011027 0.017449 -0.070117
v -0.009244 0.007926 -0.064127
v -0.010230 0.051939 -0.062760
v -0.012623 0.037646 -0.074063
v -0.012371 0.047511 -0.071862
v 0.022984 0.005447 -0.053550
v 0.026424 0.018878 -0.070236
v 0.025409 0.009248 -0.064238
v 0.023049 0.053209 -0.062866
v 0.026451 0.039136 -0.074187
v 0.025462 0.048954 -0.071982
v 0.049090 0.006884 -0.039943
v 0.059619 0.020705 -0.052934
v 0.056123 0.010938 -0.048229
v 0.052546 0.054833 -0.047491
v 0.061085 0.041043 -0.056135
v 0.058996 0.050800 -0.054503
v 0.065869 0.008306 -0.015752
v 0.080954 0.022513 -0.022173
v 0.075863 0.012611 -0.019767
v 0.071505 0.056439 -0.020157
v 0.083344 0.042929 -0.024042
v 0.080549 0.052626 -0.023429
v 0.069476 0.009386 0.013481
v 0.085541 0.023887 0.014998
v 0.080107 0.013883 0.014626
v 0.075581 0.057660 0.012874
v 0.088130 0.044363 0.014740
v 0.085182 0.054015 0.014121
v 0.059086 0.009878 0.041059
v 0.072329 0.024513 0.050065
v 0.067883 0.014461 0.047072
v 0.063840 0.058216 0.044035
v 0.074345 0.045015 0.051327
v 0.071836 0.054647 0.049546
v 0.037078 0.009669 0.060665
v 0.044345 0.024246 0.074994
v 0.041990 0.014215 0.070138
v 0.038974 0.057979 0.066187
v 0.045149 0.044738 0.077336
v 0.043566 0.054378 0.074729
v -0.004075 0.035900 0.064062
v -0.003080 0.049844 0.075448
v -0.003706 0.040101 0.073368
v -0.000551 0.095539 0.050840
v -0.001171 0.082161 0.068284
v -0.000655 0.091738 0.061920
v -0.036451 0.037734 0.056475
v -0.040886 0.051986 0.066589
v -0.040451 0.042183 0.064757
v -0.027344 0.097057 0.044562
v -0.035951 0.084132 0.060133
v -0.032566 0.093546 0.054442
v -0.061617 0.038835 0.034690
v -0.070274 0.053272 0.041150
v -0.069014 0.043433 0.040032
v -0.048170 0.097968 0.026534
v -0.062987 0.085315 0.036730
v -0.057371 0.094631 0.032970
v -0.073808 0.038951 0.003698
v -0.084510 0.053406 0.004960
v -0.082851 0.043564 0.004857
v -0.058258 0.098063 0.000887
v -0.076083 0.085439 0.003437
v -0.069387 0.094745 0.002423
v -0.070232 0.038054 -0.029401
v -0.080333 0.052359 -0.033690
v -0.078792 0.042546 -0.032709
v -0.055299 0.097321 -0.026504
v -0.072241 0.084475 -0.032120
v -0.065862 0.093861 -0.030200
v -0.051707 0.036350 -0.057024
v -0.058701 0.050370 -0.065947
v -0.057766 0.040612 -0.064060
v -0.039969 0.095911 -0.049363
v -0.052341 0.082645 -0.061795
v -0.047603 0.092182 -0.057427
v -0.022477 0.034230 -0.072844
v -0.024569 0.047894 -0.084420
v -0.024592 0.038206 -0.082015
v -0.015780 0.094157 -0.062455
v -0.020940 0.080368 -0.078790
v -0.018793 0.090092 -0.073020
v 0.010761 0.032179 -0.073236
v 0.014244 0.045499 -0.084878
v 0.013132 0.035879 -0.082460
v 0.011726 0.092460 -0.062779
v 0.014767 0.078165 -0.079211
v 0.013968 0.088071 -0.073406
v 0.040393 0.030668 -0.058111
v 0.048846 0.043734 -0.067215
v 0.046763 0.034163 -0.065293
v 0.036248 0.091209 -0.050262
v 0.046600 0.076541 -0.062962
v 0.043174 0.086581 -0.058498
v 0.059631 0.030042 -0.030933
v 0.071310 0.043003 -0.035479
v 0.068598 0.033452 -0.034447
v 0.052168 0.090691 -0.027771
v 0.067266 0.075868 -0.033766
v 0.062136 0.085964 -0.031710
v 0.064067 0.030444 0.002072
v 0.076491 0.043473 0.003061
v 0.073633 0.033909 0.003011
v 0.055839 0.091024 -0.000459
v 0.072032 0.076300 0.001690
v 0.066509 0.086360 0.000820
v 0.052686 0.031783 0.033342
v 0.063200 0.045037 0.039576
v 0.060715 0.035429 0.038502
v 0.046420 0.092132 0.025418
v 0.059805 0.077739 0.035282
v 0.055291 0.087680 0.031641
v 0.028094 0.033752 0.055713
v 0.034484 0.047336 0.065700
v 0.032804 0.037664 0.063893
v 0.026070 0.093761 0.043932
v 0.033387 0.079854 0.059315
v 0.031052 0.089621 0.053692
v -0.010228 0.091134 0.057469
v -0.010345 0.099681 0.070519
v -0.010477 0.093502 0.065319
v -0.009424 0.108885 0.064123
v -0.010345 0.099681 0.070519
v -0.009908 0.106053 0.070024
v -0.038684 0.093235 0.048877
v -0.044624 0.102211 0.060169
v -0.042483 0.095864 0.055655
v -0.040622 0.111187 0.054703
v -0.044624 0.102211 0.060169
v -0.043853 0.108558 0.059775
v -0.059861 0.095334 0.028019
v -0.070136 0.104741 0.035042
v -0.066303 0.098226 0.032195
v -0.063840 0.113489 0.031835
v -0.070136 0.104741 0.035042
v -0.069116 0.111063 0.034893
v -0.068909 0.096953 -0.000326
v -0.081036 0.106690 0.000895
v -0.076480 0.100046 0.000313
v -0.073760 0.115264 0.000758
v -0.081036 0.106690 0.000895
v -0.079910 0.112994 0.001080
v -0.063755 0.097719 -0.029665
v -0.074827 0.107614 -0.034449
v -0.070683 0.100908 -0.032687
v -0.068109 0.116104 -0.031408
v -0.074827 0.107614 -0.034449
v -0.073761 0.113908 -0.033920
v -0.045580 0.097458 -0.053277
v -0.052932 0.107299 -0.062894
v -0.050239 0.100614 -0.059245
v -0.048182 0.115817 -0.057296
v -0.052932 0.107299 -0.062894
v -0.052080 0.113596 -0.062087
v -0.018547 0.096229 -0.065753
v -0.020365 0.105818 -0.077923
v -0.019833 0.099231 -0.073277
v -0.018544 0.114470 -0.070974
v -0.020365 0.105818 -0.077923
v -0.019831 0.112130 -0.076969
v 0.011151 0.094313 -0.064234
v 0.015411 0.103510 -0.076093
v 0.013570 0.097077 -0.071568
v 0.014016 0.112370 -0.069308
v 0.015411 0.103510 -0.076093
v 0.015596 0.109845 -0.075157
v 0.036710 0.092150 -0.049068
v 0.046201 0.100905 -0.057823
v 0.042318 0.094644 -0.054511
v 0.042039 0.109998 -0.052681
v 0.046201 0.100905 -0.057823
v 0.046086 0.107265 -0.057065
v 0.052275 0.090236 -0.023730
v 0.064952 0.098598 -0.027299
v 0.059825 0.092491 -0.026012
v 0.059104 0.107899 -0.024901
v 0.064952 0.098598 -0.027299
v 0.064654 0.104981 -0.026840
v 0.054281 0.089008 0.005975
v 0.067368 0.097119 0.008486
v 0.062081 0.091109 0.007400
v 0.061302 0.106553 0.007667
v 0.067368 0.097119 0.008486
v 0.067046 0.103516 0.008596
v 0.042267 0.088748 0.033243
v 0.052895 0.096806 0.041335
v 0.048568 0.090817 0.038070
v 0.048131 0.106268 0.037563
v 0.052895 0.096806 0.041335
v 0.052714 0.103206 0.041125
v 0.018986 0.089515 0.051827
v 0.024849 0.097730 0.063722
v 0.022382 0.091680 0.058973
v 0.022606 0.107109 0.057937
v 0.024849 0.097730 0.063722
v 0.024942 0.104121 0.063293
v 0.001834 0.104185 0.000317
v -0.061780 0.112205 -0.046079
v 0.026260 0.112061 -0.074549
v 0.080543 0.112461 0.000383
v 0.026051 0.112852 0.075163
v -0.061909 0.112694 0.046448
v -0.022386 0.125438 -0.074687
v 0.065574 0.125596 -0.045972
v 0.065445 0.126085 0.046554
v -0.022594 0.126229 0.075025
v -0.076877 0.125829 0.000093
v 0.001832 0.134105 0.000159
v 0.016191 0.106188 -0.043674
v -0.035557 0.106273 -0.026940
v -0.021200 0.110902 -0.070945
v -0.073024 0.111274 0.000175
v -0.035633 0.106560 0.027446
v 0.048098 0.106423 0.000370
v 0.062455 0.111052 -0.043635
v 0.016068 0.106653 0.044324
v 0.062332 0.111517 0.044363
v -0.021398 0.111655 0.071439
v -0.081822 0.118995 -0.027071
v -0.081898 0.119282 0.027314
v 0.001955 0.118680 -0.087761
v -0.049793 0.118765 -0.071026
v 0.085564 0.119007 -0.026838
v 0.053657 0.118773 -0.070882
v 0.053459 0.119525 0.071502
v 0.085488 0.119295 0.027547
v -0.049992 0.119517 0.071358
v 0.001710 0.119610 0.088237
v -0.058667 0.126773 -0.043887
v 0.025064 0.126635 -0.070963
v 0.076689 0.127015 0.000301
v 0.024865 0.127388 0.071421
v -0.058790 0.127238 0.044111
v -0.012403 0.131637 -0.043848
v -0.044432 0.131867 0.000106
v 0.039298 0.131730 -0.026970
v 0.039222 0.132017 0.027415
v -0.012526 0.132102 0.044150
v -0.002785 0.102306 0.067619
v -0.003139 0.108163 0.072902
v -0.002939 0.104176 0.071507
v -0.003253 0.113271 0.066883
v -0.003139 0.108163 0.072902
v -0.003270 0.111930 0.070986
v -0.037111 0.100228 0.058491
v -0.040081 0.105926 0.063079
v -0.039114 0.101986 0.061887
v -0.037579 0.111193 0.057755
v -0.040081 0.105926 0.063079
v -0.039445 0.109740 0.061367
v -0.063211 0.097501 0.034466
v -0.068170 0.102991 0.037223
v -0.066621 0.099112 0.036568
v -0.063680 0.108466 0.033730
v -0.068170 0.102991 0.037223
v -0.066952 0.106866 0.036047
v -0.075108 0.094749 0.001048
v -0.080973 0.100030 0.001258
v -0.079158 0.096213 0.001349
v -0.075576 0.105715 0.000312
v -0.080973 0.100030 0.001258
v -0.079489 0.103966 0.000828
v -0.070075 0.092604 -0.034108
v -0.075557 0.097721 -0.036577
v -0.073854 0.093952 -0.035702
v -0.070543 0.103569 -0.034844
v -0.075557 0.097721 -0.036577
v -0.074185 0.101705 -0.036222
v -0.049265 0.091556 -0.062948
v -0.053161 0.096594 -0.067615
v -0.051923 0.092847 -0.066096
v -0.049733 0.102521 -0.063684
v -0.053161 0.096594 -0.067615
v -0.052254 0.100601 -0.066616
v -0.017446 0.091846 -0.078865
v -0.018917 0.096905 -0.084745
v -0.018389 0.093153 -0.082870
v -0.017914 0.102811 -0.079601
v -0.018917 0.096905 -0.084745
v -0.018720 0.100906 -0.083391
v 0.018093 0.093406 -0.078212
v 0.019330 0.098585 -0.084042
v 0.019065 0.094797 -0.082182
v 0.017625 0.104372 -0.078948
v 0.019330 0.098585 -0.084042
v 0.018734 0.102551 -0.082703
v 0.049211 0.095881 -0.061140
v 0.052819 0.101248 -0.065669
v 0.051859 0.097405 -0.064190
v 0.048743 0.106846 -0.061876
v 0.052819 0.101248 -0.065669
v 0.051528 0.105159 -0.064710
v 0.068778 0.098702 -0.031559
v 0.073877 0.104284 -0.033833
v 0.072480 0.100378 -0.033015
v 0.068310 0.109667 -0.032295
v 0.073877 0.104284 -0.033833
v 0.072149 0.108132 -0.033535
v 0.072312 0.101224 0.003755
v 0.077680 0.106998 0.004171
v 0.076205 0.103036 0.004202
v 0.071844 0.112189 0.003019
v 0.077680 0.106998 0.004171
v 0.075874 0.110790 0.003681
v 0.059004 0.102868 0.036710
v 0.063358 0.108768 0.039638
v 0.062180 0.104769 0.038933
v 0.058536 0.113833 0.035974
v 0.063358 0.108768 0.039638
v 0.061849 0.112523 0.038412
v 0.031902 0.103259 0.059758
v 0.034191 0.109188 0.064442
v 0.033617 0.105180 0.063223
v 0.031434 0.114224 0.059022
v 0.034191 0.109188 0.064442
v 0.033286 0.112934 0.062702
v -0.054291 0.064237 0.014493
v -0.054435 0.064828 0.014263
v -0.054093 0.064908 0.014447
v -0.054339 0.064406 0.014339
v -0.054165 0.064525 0.014349
v -0.054199 0.064881 0.014306
v -0.054098 0.064462 0.014469
v -0.063452 0.106608 0.012763
v -0.063568 0.107220 0.012951
v -0.063111 0.106688 0.012948
v -0.063540 0.107036 0.012809
v -0.063332 0.107000 0.012825
v -0.063299 0.107093 0.012940
v -0.063217 0.106660 0.012807
v -0.053336 0.064964 0.029024
v -0.053138 0.065636 0.028977
v -0.053452 0.065577 0.029212
v -0.053143 0.065190 0.029000
v -0.053194 0.065265 0.029121
v -0.053225 0.065623 0.029133
v -0.053365 0.065148 0.029166
v -0.062614 0.107947 0.027482
v -0.062470 0.107356 0.027713
v -0.062156 0.107416 0.027478
v -0.062566 0.107779 0.027636
v -0.062361 0.107739 0.027597
v -0.062242 0.107402 0.027634
v -0.062344 0.107821 0.027470
v -0.077044 0.059388 0.016231
v -0.077501 0.059920 0.016235
v -0.077187 0.059980 0.016001
v -0.077313 0.059515 0.016243
v -0.077296 0.059596 0.016116
v -0.077415 0.059933 0.016080
v -0.077091 0.059557 0.016077
v -0.086321 0.102372 0.014689
v -0.086205 0.101759 0.014501
v -0.086519 0.101700 0.014736
v -0.086292 0.102188 0.014547
v -0.086463 0.102071 0.014592
v -0.086432 0.101713 0.014580
v -0.086514 0.102146 0.014713
v -0.076089 0.060116 0.030762
v -0.076205 0.060728 0.030950
v -0.076546 0.060648 0.030765
v -0.076117 0.060300 0.030904
v -0.076325 0.060336 0.030888
v -0.076441 0.060676 0.030906
v -0.076358 0.060243 0.030773
v -0.085366 0.103099 0.029220
v -0.085564 0.102428 0.029266
v -0.085222 0.102508 0.029451
v -0.085560 0.102873 0.029244
v -0.085492 0.102811 0.029364
v -0.085458 0.102455 0.029407
v -0.085318 0.102930 0.029374
v -0.053362 0.070807 -0.049231
v -0.053252 0.071264 -0.049345
v -0.053114 0.071226 -0.049068
v -0.053295 0.070945 -0.049331
v -0.053174 0.070987 -0.049237
v -0.053120 0.071242 -0.049216
v -0.053198 0.070919 -0.049136
v -0.051492 0.102145 -0.046076
v -0.051552 0.102578 -0.045869
v -0.051355 0.102108 -0.045800
v -0.051499 0.102456 -0.045996
v -0.051385 0.102383 -0.045915
v -0.051402 0.102430 -0.045801
v -0.051360 0.102124 -0.045948
v -0.059258 0.069963 -0.038087
v -0.059010 0.070383 -0.037924
v -0.059317 0.070396 -0.037879
v -0.059093 0.070076 -0.037991
v -0.059168 0.070130 -0.037907
v -0.059135 0.070382 -0.037844
v -0.059310 0.070085 -0.037960
v -0.057447 0.101734 -0.034724
v -0.057558 0.101278 -0.034611
v -0.057250 0.101265 -0.034656
v -0.057515 0.101596 -0.034625
v -0.057379 0.101525 -0.034585
v -0.057376 0.101263 -0.034576
v -0.057298 0.101587 -0.034656
v -0.068806 0.072537 -0.057270
v -0.069003 0.073007 -0.057339
v -0.068695 0.072994 -0.057383
v -0.068955 0.072685 -0.057338
v -0.068874 0.072747 -0.057410
v -0.068877 0.073008 -0.057418
v -0.068738 0.072676 -0.057370
v -0.066995 0.104309 -0.053908
v -0.066936 0.103876 -0.054115
v -0.067243 0.103889 -0.054070
v -0.066942 0.104187 -0.054035
v -0.067085 0.104142 -0.054087
v -0.067118 0.103890 -0.054150
v -0.067160 0.104196 -0.054003
v -0.074701 0.071694 -0.046125
v -0.074761 0.072127 -0.045918
v -0.074898 0.072164 -0.046194
v -0.074754 0.071816 -0.045998
v -0.074868 0.071889 -0.046080
v -0.074893 0.072148 -0.046047
v -0.074851 0.071842 -0.046194
v -0.072891 0.103465 -0.042763
v -0.073138 0.103045 -0.042926
v -0.073001 0.103008 -0.042650
v -0.073055 0.103353 -0.042859
v -0.073079 0.103285 -0.042757
v -0.073133 0.103029 -0.042779
v -0.072958 0.103326 -0.042663
v -0.017254 0.011815 -0.055634
v -0.015653 0.015998 -0.051755
v -0.021496 0.011791 -0.051498
v -0.015311 0.013595 -0.053730
v -0.017345 0.012135 -0.052489
v -0.018310 0.013578 -0.050805
v -0.019442 0.010620 -0.053548
v -0.085518 0.109799 -0.003787
v -0.085567 0.103757 -0.002836
v -0.079724 0.107964 -0.003093
v -0.086479 0.106842 -0.002634
v -0.083837 0.107575 -0.001988
v -0.082382 0.105544 -0.002143
v -0.082347 0.109817 -0.002816
v -0.025837 0.008035 -0.059202
v -0.026372 0.009643 -0.053526
v -0.031633 0.008959 -0.058400
v -0.025322 0.008031 -0.055993
v -0.027914 0.007480 -0.056883
v -0.029421 0.008684 -0.055425
v -0.029042 0.007547 -0.059439
v -0.088905 0.108308 -0.005196
v -0.090828 0.103073 -0.007710
v -0.085567 0.103757 -0.002836
v -0.090976 0.106016 -0.006404
v -0.089345 0.105150 -0.004278
v -0.088616 0.102798 -0.004735
v -0.087256 0.106500 -0.002957
v -0.030458 0.010099 -0.067867
v -0.034259 0.010132 -0.063323
v -0.034976 0.013486 -0.069658
v -0.032208 0.008961 -0.065375
v -0.033603 0.010022 -0.067552
v -0.035403 0.011357 -0.066641
v -0.032715 0.011333 -0.069855
v -0.090729 0.109122 -0.008615
v -0.091545 0.106427 -0.014046
v -0.090828 0.103073 -0.007710
v -0.091902 0.108575 -0.011669
v -0.092310 0.106474 -0.009838
v -0.091972 0.104297 -0.011029
v -0.091395 0.106203 -0.007189
v -0.027637 0.016453 -0.075103
v -0.033374 0.017097 -0.073770
v -0.029007 0.021963 -0.076796
v -0.030783 0.015686 -0.074811
v -0.030130 0.017846 -0.076462
v -0.031751 0.019582 -0.076008
v -0.027695 0.019127 -0.076951
v -0.089616 0.111630 -0.011471
v -0.087179 0.111294 -0.017072
v -0.091545 0.106427 -0.014046
v -0.088559 0.112592 -0.014464
v -0.090500 0.110552 -0.014481
v -0.089923 0.108913 -0.016284
v -0.091646 0.109150 -0.012324
v -0.019499 0.022313 -0.075461
v -0.024383 0.025292 -0.076999
v -0.018221 0.028006 -0.074437
v -0.022120 0.023141 -0.077197
v -0.020110 0.025061 -0.076903
v -0.021217 0.027167 -0.076472
v -0.017763 0.025060 -0.075385
v -0.086404 0.113942 -0.011612
v -0.081017 0.114008 -0.014509
v -0.087179 0.111294 -0.017072
v -0.083464 0.115041 -0.012684
v -0.085278 0.114312 -0.014711
v -0.084012 0.113169 -0.016545
v -0.087822 0.113122 -0.014496
v -0.012171 0.023265 -0.068672
v -0.014058 0.028547 -0.070580
v -0.010740 0.027065 -0.064359
v -0.012743 0.025713 -0.070734
v -0.011087 0.026233 -0.068543
v -0.011731 0.028400 -0.067684
v -0.010397 0.024665 -0.066335
v -0.083512 0.114318 -0.008933
v -0.077699 0.112526 -0.008288
v -0.081017 0.114008 -0.014509
v -0.080455 0.114080 -0.007670
v -0.080576 0.114923 -0.010355
v -0.078690 0.113860 -0.011614
v -0.082801 0.115128 -0.012069
v -0.011172 0.018593 -0.059848
v -0.010172 0.024411 -0.059345
v -0.012197 0.019849 -0.054150
v -0.009713 0.021464 -0.060290
v -0.009857 0.020481 -0.057678
v -0.010437 0.022352 -0.056261
v -0.011145 0.018238 -0.056617
v -0.083118 0.112474 -0.005450
v -0.079724 0.107964 -0.003093
v -0.077699 0.112526 -0.008288
v -0.081796 0.110431 -0.003198
v -0.079935 0.111925 -0.004692
v -0.077964 0.110467 -0.005204
v -0.080364 0.113657 -0.006871
v -0.035946 0.008336 -0.062701
v -0.036040 0.008500 -0.062863
v -0.035329 0.008534 -0.063008
v -0.036011 0.008389 -0.062820
v -0.035641 0.008433 -0.062981
v -0.035575 0.008529 -0.063037
v -0.035508 0.008413 -0.062923
v -0.036372 0.019152 -0.061998
v -0.036287 0.019294 -0.061812
v -0.035661 0.019186 -0.062144
v -0.036349 0.019257 -0.061939
v -0.035978 0.019262 -0.062102
v -0.035846 0.019281 -0.062042
v -0.035907 0.019181 -0.062173
v -0.029693 0.007552 -0.050640
v -0.029076 0.007751 -0.050947
v -0.029608 0.007694 -0.050454
v -0.029255 0.007629 -0.050862
v -0.029284 0.007637 -0.050719
v -0.029195 0.007730 -0.050731
v -0.029631 0.007589 -0.050514
v -0.030035 0.018511 -0.049751
v -0.029940 0.018346 -0.049590
v -0.029408 0.018403 -0.050083
v -0.029970 0.018458 -0.049632
v -0.029622 0.018466 -0.049840
v -0.029527 0.018381 -0.049866
v -0.029594 0.018498 -0.049981
v -0.079085 0.005193 -0.040542
v -0.079711 0.005302 -0.040210
v -0.079180 0.005358 -0.040703
v -0.079526 0.005206 -0.040312
v -0.079498 0.005239 -0.040452
v -0.079593 0.005323 -0.040426
v -0.079150 0.005246 -0.040661
v -0.079427 0.016152 -0.039653
v -0.079512 0.016010 -0.039839
v -0.080043 0.015953 -0.039346
v -0.079489 0.016115 -0.039779
v -0.079836 0.016068 -0.039574
v -0.079925 0.015975 -0.039562
v -0.079865 0.016075 -0.039431
v -0.072833 0.004410 -0.028480
v -0.072748 0.004552 -0.028294
v -0.073459 0.004518 -0.028149
v -0.072771 0.004447 -0.028354
v -0.073142 0.004442 -0.028191
v -0.073213 0.004523 -0.028120
v -0.073274 0.004423 -0.028251
v -0.073174 0.015369 -0.027592
v -0.073791 0.015170 -0.027285
v -0.073080 0.015204 -0.027430
v -0.073612 0.015292 -0.027369
v -0.073479 0.015271 -0.027312
v -0.073545 0.015175 -0.027255
v -0.073109 0.015316 -0.027472
vn -0.1859 -0.4828 0.8558
vn -0.0493 -0.9246 0.3778
vn -0.2393 0.2708 0.9324
vn -0.1301 0.9238 0.3600
vn -0.5524 -0.5030 0.6648
vn -0.2011 -0.9329 0.2987
vn -0.6498 0.2482 0.7184
vn -0.3002 0.9145 0.2714
vn -0.7879 -0.5229 0.3252
vn -0.2987 -0.9412 0.1581
vn -0.9136 0.2259 0.3380
vn -0.4095 0.9052 0.1138
vn -0.8386 -0.5381 -0.0852
vn -0.3196 -0.9475 -0.0119
vn -0.9703 0.2089 -0.1216
vn -0.4330 0.8982 -0.0766
vn -0.6927 -0.5450 -0.4724
vn -0.2592 -0.9503 -0.1723
vn -0.8070 0.2012 -0.5553
vn -0.3653 0.8949 -0.2562
vn -0.3838 -0.5421 -0.7476
vn -0.1312 -0.9491 -0.2863
vn -0.4609 0.2045 -0.8636
vn -0.2219 0.8963 -0.3839
vn 0.0175 -0.5299 -0.8479
vn 0.0350 -0.9441 -0.3278
vn -0.0114 0.2180 -0.9759
vn -0.0358 0.9019 -0.4304
vn 0.4192 -0.5114 -0.7502
vn 0.2013 -0.9364 -0.2874
vn 0.4385 0.2388 -0.8665
vn 0.1506 0.9105 -0.3851
vn 0.7292 -0.4908 -0.4769
vn 0.3297 -0.9279 -0.1742
vn 0.7857 0.2619 -0.5604
vn 0.2944 0.9201 -0.2583
vn 0.8766 -0.4727 -0.0907
vn 0.3908 -0.9204 -0.0142
vn 0.9508 0.2822 -0.1278
vn 0.3628 0.9285 -0.0791
vn 0.8275 -0.4613 0.3200
vn 0.3705 -0.9157 0.1559
vn 0.8959 0.2949 0.3323
vn 0.3401 0.9338 0.1115
vn 0.5933 -0.4593 0.6611
vn 0.2735 -0.9148 0.2972
vn 0.6335 0.2972 0.7144
vn 0.2314 0.9347 0.2697
vn 0.2276 -0.4670 0.8545
vn 0.1220 -0.9180 0.3773
vn 0.2239 0.2885 0.9309
vn 0.0617 0.9311 0.3594
vn 0.0382 -0.9988 0.0322
vn -0.2281 -0.1376 0.9639
vn 0.2440 -0.1196 0.9624
vn -0.0382 0.9988 -0.0322
vn -0.6466 -0.1606 0.7457
vn -0.9155 -0.1834 0.3580
vn -0.9734 -0.2007 -0.1107
vn -0.8068 -0.2086 -0.5527
vn -0.4540 -0.2053 -0.8670
vn 0.0042 -0.1914 -0.9815
vn 0.4628 -0.1703 -0.8699
vn 0.8168 -0.1467 -0.5579
vn 0.9851 -0.1260 -0.1169
vn 0.9291 -0.1131 0.3521
vn 0.6617 -0.1107 0.7416
vn -0.2342 -0.1886 0.9537
vn -0.1475 -0.8992 0.4118
vn -0.1604 0.5523 0.8181
vn -0.0224 0.9457 0.3242
vn -0.6494 -0.1675 0.7418
vn -0.3195 -0.8905 0.3240
vn -0.5230 0.5708 0.6330
vn -0.1726 0.9534 0.2475
vn -0.9190 -0.1587 0.3609
vn -0.4311 -0.8868 0.1663
vn -0.7584 0.5784 0.3005
vn -0.2701 0.9566 0.1098
vn -0.9812 -0.1643 -0.1016
vn -0.4569 -0.8892 -0.0253
vn -0.8127 0.5735 -0.1034
vn -0.2926 0.9545 -0.0575
vn -0.8217 -0.1831 -0.5397
vn -0.3908 -0.8969 -0.2068
vn -0.6734 0.5571 -0.4860
vn -0.2349 0.9477 -0.2160
vn -0.4771 -0.2107 -0.8532
vn -0.2481 -0.9084 -0.3366
vn -0.3725 0.5330 -0.7597
vn -0.1102 0.9378 -0.3293
vn -0.0263 -0.2408 -0.9702
vn -0.0614 -0.9208 -0.3851
vn 0.0211 0.5067 -0.8618
vn 0.0528 0.9269 -0.3717
vn 0.4274 -0.2665 -0.8639
vn 0.1266 -0.9315 -0.3410
vn 0.4172 0.4843 -0.7690
vn 0.2169 0.9176 -0.3332
vn 0.7800 -0.2819 -0.5586
vn 0.2726 -0.9379 -0.2146
vn 0.7252 0.4708 -0.5025
vn 0.3444 0.9120 -0.2228
vn 0.9509 -0.2835 -0.1244
vn 0.3434 -0.9385 -0.0347
vn 0.8743 0.4694 -0.1233
vn 0.4062 0.9114 -0.0657
vn 0.9008 -0.2710 0.3395
vn 0.3226 -0.9333 0.1574
vn 0.8306 0.4804 0.2817
vn 0.3881 0.9160 0.1020
vn 0.6412 -0.2471 0.7265
vn 0.2151 -0.9235 0.3177
vn 0.6039 0.5012 0.6197
vn 0.2942 0.9246 0.2420
vn 0.2316 -0.2174 0.9482
vn 0.0455 -0.9111 0.4096
vn 0.2463 0.5272 0.8133
vn 0.1461 0.9353 0.3222
vn -0.0613 -0.9979 0.0204
vn -0.2104 0.2234 0.9517
vn 0.2586 0.1945 0.9462
vn 0.0613 0.9979 -0.0204
vn -0.6284 0.2448 0.7384
vn -0.8998 0.2536 0.3549
vn -0.9624 0.2479 -0.1107
vn -0.8019 0.2290 -0.5519
vn -0.4549 0.2012 -0.8675
vn -0.0011 0.1709 -0.9853
vn 0.4557 0.1451 -0.8782
vn 0.8107 0.1295 -0.5709
vn 0.9827 0.1279 -0.1337
vn 0.9323 0.1406 0.3333
vn 0.6709 0.1646 0.7230
vn -0.2689 -0.6168 0.7398
vn -0.1547 -0.9472 0.2807
vn -0.2815 0.0935 0.9550
vn -0.0626 0.9018 0.4276
vn -0.5959 -0.5891 0.5457
vn -0.2901 -0.9358 0.2004
vn -0.6895 0.1280 0.7129
vn -0.2316 0.9161 0.3273
vn -0.7950 -0.5646 0.2215
vn -0.3726 -0.9256 0.0661
vn -0.9379 0.1586 0.3085
vn -0.3345 0.9288 0.1598
vn -0.8207 -0.5489 -0.1585
vn -0.3832 -0.9191 -0.0913
vn -0.9699 0.1782 -0.1657
vn -0.3477 0.9369 -0.0366
vn -0.6670 -0.5456 -0.5074
vn -0.3196 -0.9177 -0.2358
vn -0.7782 0.1823 -0.6010
vn -0.2683 0.9386 -0.2169
vn -0.3691 -0.5554 -0.7452
vn -0.1962 -0.9218 -0.3343
vn -0.4065 0.1701 -0.8977
vn -0.1144 0.9335 -0.3398
vn 0.0046 -0.5761 -0.8173
vn -0.0414 -0.9304 -0.3642
vn 0.0598 0.1442 -0.9877
vn 0.0788 0.9228 -0.3771
vn 0.3687 -0.6030 -0.7074
vn 0.1094 -0.9415 -0.3187
vn 0.5141 0.1107 -0.8506
vn 0.2670 0.9089 -0.3203
vn 0.6397 -0.6299 -0.4405
vn 0.2217 -0.9526 -0.2082
vn 0.8521 0.0772 -0.5176
vn 0.4070 0.8950 -0.1824
vn 0.7554 -0.6506 -0.0779
vn 0.2696 -0.9612 -0.0579
vn 0.9966 0.0514 -0.0652
vn 0.4668 0.8843 0.0050
vn 0.6895 -0.6604 0.2975
vn 0.2423 -0.9653 0.0975
vn 0.9143 0.0391 0.4032
vn 0.4327 0.8793 0.1990
vn 0.4569 -0.6570 0.5996
vn 0.1460 -0.9639 0.2227
vn 0.6241 0.0433 0.7801
vn 0.3126 0.8810 0.3552
vn 0.1111 -0.6413 0.7592
vn 0.0027 -0.9574 0.2888
vn 0.1926 0.0629 0.9793
vn 0.1338 0.8891 0.4377
vn -0.0624 -0.9974 -0.0370
vn -0.0000 1.0000 -0.0000
vn 0.0624 0.9974 0.0370
vn 0.3708 0.9264 0.0659
vn -1.0000 -0.0000 -0.0000
vn -0.0624 -0.9981 -0.0000
vn -0.0000 0.9985 0.0547
vn 0.3643 0.9313 -0.0000
vn -0.0183 -0.9985 -0.0514
vn -0.1765 -0.9823 -0.0627
vn 0.0483 -0.9984 -0.0297
vn 0.0482 -0.9980 0.0404
vn -0.0184 -0.9979 0.0619
vn -0.4186 -0.9002 -0.1199
vn -0.0108 -0.9018 -0.4320
vn 0.4121 -0.9003 -0.1405
vn 0.2655 -0.8977 0.3517
vn -0.2479 -0.8976 0.3644
vn -0.6481 -0.5999 -0.4691
vn 0.2489 -0.6014 -0.7592
vn 0.8020 -0.5973 0.0043
vn 0.2468 -0.5933 0.7662
vn -0.6494 -0.5949 0.4736
vn -0.1030 0.9811 -0.1639
vn 0.1190 0.9812 -0.1521
vn 0.1765 0.9823 0.0627
vn -0.0100 0.9829 0.1837
vn -0.1828 0.9822 0.0437
vn -0.0483 0.9984 0.0297
vn -0.1044 0.9921 0.0703
vn -0.1035 0.9828 0.1532
vn 0.0183 0.9985 0.0514
vn 0.0396 0.9923 0.1173
vn 0.1186 0.9827 0.1421
vn 0.0595 0.9982 -0.0052
vn 0.1287 0.9917 -0.0051
vn 0.1767 0.9816 -0.0726
vn 0.0184 0.9979 -0.0619
vn 0.0399 0.9910 -0.1277
vn -0.0095 0.9809 -0.1941
vn -0.0482 0.9980 -0.0404
vn -0.1042 0.9913 -0.0811
vn -0.1827 0.9817 -0.0546
vn -0.4121 0.9003 0.1405
vn -0.5385 0.7490 0.3861
vn -0.2665 0.9013 0.3414
vn 0.0108 0.9018 0.4320
vn 0.2045 0.7503 0.6287
vn 0.2469 0.9014 0.3556
vn 0.4186 0.9002 0.1199
vn 0.6648 0.7470 -0.0030
vn 0.4190 0.8989 -0.1282
vn 0.2479 0.8976 -0.3644
vn 0.2063 0.7436 -0.6360
vn 0.0120 0.8972 -0.4414
vn -0.2655 0.8977 -0.3517
vn -0.5374 0.7448 -0.3955
vn -0.4117 0.8987 -0.1512
vn -0.2489 0.6014 0.7592
vn -0.2063 -0.7436 0.6360
vn -0.0120 -0.8972 0.4414
vn 0.6481 0.5999 0.4691
vn 0.5374 -0.7448 0.3955
vn 0.4117 -0.8987 0.1512
vn 0.6494 0.5949 -0.4736
vn 0.5385 -0.7490 -0.3861
vn 0.2665 -0.9013 -0.3414
vn -0.2468 0.5933 -0.7662
vn -0.2045 -0.7503 -0.6287
vn -0.2469 -0.9014 -0.3556
vn -0.8020 0.5973 -0.0043
vn -0.6648 -0.7470 0.0030
vn -0.4190 -0.8989 0.1282
vn -0.1190 -0.9812 0.1521
vn -0.0399 -0.9910 0.1277
vn 0.0095 -0.9809 0.1941
vn 0.1030 -0.9811 0.1639
vn 0.1042 -0.9913 0.0811
vn 0.1827 -0.9817 0.0546
vn 0.1828 -0.9822 -0.0437
vn 0.1044 -0.9921 -0.0703
vn 0.1035 -0.9828 -0.1532
vn -0.1767 -0.9816 0.0726
vn -0.1287 -0.9917 0.0051
vn -0.0595 -0.9982 0.0052
vn 0.0101 -0.9829 -0.1837
vn -0.0396 -0.9923 -0.1173
vn -0.1186 -0.9827 -0.1421
vn -0.2236 -0.3319 0.9164
vn -0.0601 -0.9004 0.4308
vn -0.2562 0.4310 0.8652
vn -0.1387 0.9415 0.3072
vn -0.6103 -0.3627 0.7042
vn -0.2202 -0.9132 0.3429
vn -0.6429 0.4003 0.6530
vn -0.2989 0.9288 0.2193
vn -0.8535 -0.3977 0.3366
vn -0.3210 -0.9277 0.1906
vn -0.8861 0.3652 0.2854
vn -0.3996 0.9142 0.0670
vn -0.8975 -0.4291 -0.1023
vn -0.3392 -0.9407 0.0088
vn -0.9300 0.3339 -0.1535
vn -0.4178 0.9013 -0.1148
vn -0.7321 -0.4495 -0.5119
vn -0.2707 -0.9491 -0.1608
vn -0.7646 0.3135 -0.5631
vn -0.3493 0.8928 -0.2845
vn -0.3952 -0.4544 -0.7983
vn -0.1311 -0.9512 -0.2795
vn -0.4278 0.3086 -0.8496
vn -0.2098 0.8908 -0.4031
vn 0.0359 -0.4425 -0.8960
vn 0.0474 -0.9463 -0.3199
vn 0.0033 0.3204 -0.9473
vn -0.0312 0.8957 -0.4436
vn 0.4625 -0.4167 -0.7826
vn 0.2241 -0.9356 -0.2729
vn 0.4299 0.3463 -0.8338
vn 0.1455 0.9064 -0.3966
vn 0.7869 -0.3828 -0.4840
vn 0.3585 -0.9215 -0.1493
vn 0.7543 0.3802 -0.5352
vn 0.2799 0.9204 -0.2729
vn 0.9348 -0.3486 -0.0687
vn 0.4198 -0.9074 0.0228
vn 0.9022 0.4144 -0.1199
vn 0.3411 0.9346 -0.1009
vn 0.8722 -0.3219 0.3683
vn 0.3938 -0.8963 0.2038
vn 0.8396 0.4410 0.3171
vn 0.3152 0.9456 0.0801
vn 0.6136 -0.3089 0.7267
vn 0.2867 -0.8909 0.3522
vn 0.5810 0.4540 0.6755
vn 0.2081 0.9510 0.2286
vn 0.2181 -0.3125 0.9245
vn 0.1229 -0.8924 0.4342
vn 0.1855 0.4504 0.8733
vn 0.0443 0.9495 0.3105
vn 0.0426 -0.9969 0.0669
vn -0.0426 0.9969 -0.0669
vn 0.4990 -0.5035 -0.7054
vn 0.1535 -0.1424 -0.9778
vn 0.7990 0.0044 -0.6013
vn 0.1580 0.1057 -0.9818
vn 0.2577 0.6147 -0.7454
vn 0.7815 0.3523 -0.5149
vn 0.5901 -0.4341 0.6807
vn 0.9230 0.0109 0.3847
vn 0.3282 -0.0021 0.9446
vn 0.3488 0.6841 0.6406
vn 0.2229 0.2226 0.9491
vn 0.8103 0.3384 0.4785
vn -0.3488 -0.6841 -0.6406
vn -0.8397 -0.3966 -0.3709
vn -0.2842 -0.2018 -0.9373
vn -0.5901 0.4341 -0.6807
vn -0.2808 0.0454 -0.9587
vn -0.8706 -0.0590 -0.4885
vn -0.2577 -0.6147 0.7454
vn -0.0957 -0.1257 0.9874
vn -0.7387 -0.2839 0.6114
vn -0.4990 0.5035 0.7053
vn -0.8647 0.0334 0.5011
vn -0.2021 0.0982 0.9744
vn 0.7578 -0.6523 -0.0171
vn 0.9978 -0.0126 -0.0649
vn 0.1810 0.0038 -0.9835
vn 0.7768 0.1457 -0.6127
vn 0.4219 0.9037 -0.0730
vn 0.9049 0.4180 -0.0804
vn 0.3078 0.1004 0.9461
vn 0.8492 0.2008 0.4885
vn 0.1846 -0.5823 0.7918
vn 0.0943 -0.0872 0.9917
vn -0.0834 0.6593 0.7472
vn 0.0354 0.1860 0.9819
vn -0.7768 -0.1457 0.6126
vn -0.1810 -0.0038 0.9835
vn -0.4220 -0.9037 0.0730
vn -0.9049 -0.4180 0.0804
vn -0.7578 0.6523 0.0171
vn -0.9978 0.0126 0.0649
vn -0.3079 -0.1004 -0.9461
vn -0.8492 -0.2008 -0.4884
vn 0.0834 -0.6593 -0.7472
vn -0.0354 -0.1860 -0.9819
vn -0.1846 0.5823 -0.7918
vn -0.0943 0.0872 -0.9917
vn 0.2108 -0.9769 0.0351
vn 0.9753 0.2078 -0.0745
vn -0.0655 -0.0499 -0.9966
vn -0.2108 0.9769 -0.0351
vn 0.0655 0.0499 0.9966
vn -0.9753 -0.2078 0.0745
vn 0.6654 -0.6209 -0.4144
vn 0.6345 -0.1183 -0.7638
vn 0.9773 -0.2041 -0.0559
vn 0.7016 0.1572 -0.6950
vn 0.7358 0.6149 -0.2837
vn 0.9857 0.1448 0.0858
vn 0.0732 -0.7056 0.7048
vn 0.5946 -0.3219 0.7368
vn -0.1995 -0.2135 0.9563
vn 0.1437 0.5302 0.8356
vn -0.2448 0.0746 0.9667
vn 0.5359 0.0345 0.8436
vn -0.1437 -0.5302 -0.8356
vn -0.6181 -0.0922 -0.7806
vn 0.1856 -0.0303 -0.9822
vn -0.0732 0.7056 -0.7048
vn 0.2630 0.2467 -0.9327
vn -0.5185 0.2698 -0.8114
vn -0.7358 -0.6149 0.2837
vn -0.6528 -0.2031 0.7298
vn -0.9947 -0.1002 0.0236
vn -0.6653 0.6209 0.4145
vn -0.9621 0.2693 -0.0419
vn -0.6878 0.0865 0.7207
vn 0.4779 -0.8581 0.1878
vn 0.8468 -0.3217 0.4236
vn 0.7000 0.0356 -0.7133
vn 0.9978 -0.0526 -0.0402
vn 0.5689 0.7408 0.3571
vn 0.8725 0.1290 0.4713
vn -0.1940 -0.0923 0.9766
vn 0.5336 -0.1190 0.8373
vn -0.3727 -0.7429 0.5561
vn -0.4695 -0.2306 0.8523
vn -0.2935 0.6475 0.7033
vn -0.4507 0.0989 0.8872
vn -0.9978 0.0526 0.0403
vn -0.7000 -0.0356 0.7133
vn -0.5689 -0.7408 -0.3571
vn -0.8725 -0.1289 -0.4713
vn -0.4778 0.8581 -0.1878
vn -0.8468 0.3216 -0.4236
vn 0.1940 0.0923 -0.9767
vn -0.5335 0.1190 -0.8374
vn 0.2935 -0.6475 -0.7033
vn 0.4507 -0.0989 -0.8872
vn 0.3727 0.7429 -0.5561
vn 0.4695 0.2306 -0.8523
vn -0.0566 -0.9929 -0.1051
vn 0.8827 -0.0989 0.4595
vn 0.4666 0.0668 -0.8820
vn 0.0566 0.9929 0.1051
vn -0.4666 -0.0668 0.8820
vn -0.8827 0.0989 -0.4595
vn 0.5487 -0.8300 0.1003
vn 0.6713 -0.4112 0.6166
vn 0.2241 -0.6727 0.7051
vn -0.2591 0.4816 0.8372
vn -0.2032 -0.1236 0.9713
vn 0.2488 0.1047 0.9629
vn 0.1566 -0.9831 -0.0950
vn -0.0088 -0.8388 0.5444
vn -0.4443 -0.8600 0.2510
vn -0.6396 0.2953 0.7098
vn -0.8139 -0.2694 0.5147
vn -0.4347 -0.3000 0.8491
vn -0.0292 -0.8637 -0.5031
vn -0.5407 -0.8389 -0.0619
vn -0.6655 -0.5622 -0.4910
vn -0.8686 0.3629 0.3373
vn -0.9832 0.0351 -0.1791
vn -0.9370 -0.2681 0.2241
vn 0.1313 -0.5617 -0.8168
vn -0.5239 -0.4115 -0.7458
vn -0.2728 -0.0036 -0.9621
vn -0.7737 0.6335 0.0004
vn -0.5836 0.5605 -0.5876
vn -0.8797 0.1763 -0.4417
vn 0.5172 -0.3045 -0.7998
vn 0.0290 0.1215 -0.9922
vn 0.4379 0.3951 -0.8075
vn -0.4264 0.9033 -0.0473
vn 0.0840 0.9112 -0.4033
vn -0.3060 0.6986 -0.6467
vn 0.8379 -0.2858 -0.4649
vn 0.7016 0.3589 -0.6156
vn 0.9316 0.3338 -0.1437
vn -0.0881 0.9692 0.2302
vn 0.5169 0.8231 0.2351
vn 0.3520 0.9056 -0.2367
vn 0.8519 -0.5197 -0.0643
vn 0.9875 0.1218 0.1004
vn 0.8364 -0.1414 0.5295
vn -0.0136 0.7815 0.6238
vn 0.3890 0.3626 0.8469
vn 0.5990 0.6412 0.4796
vn 0.1158 -0.8082 0.5774
vn 0.4262 -0.9020 -0.0695
vn -0.3200 -0.1557 0.9345
vn -0.5047 0.4510 0.7361
vn 0.4516 -0.1507 0.8794
vn 0.0512 -0.4390 0.8970
vn -0.6471 -0.6346 0.4226
vn -0.2866 -0.5878 0.7566
vn -0.4663 -0.8838 0.0381
vn 0.1653 -0.9359 -0.3111
vn -0.8806 -0.2286 0.4152
vn -0.7563 0.4183 0.5030
vn -0.8781 -0.3235 -0.3525
vn -0.8289 -0.5534 0.0816
vn -0.5457 -0.5127 -0.6629
vn 0.1298 -0.7696 -0.6252
vn -0.9570 0.1289 -0.2599
vn -0.7906 0.5787 0.2000
vn -0.4679 0.2600 -0.8447
vn -0.7671 -0.0734 -0.6373
vn -0.0625 0.0258 -0.9977
vn 0.3462 -0.5283 -0.7752
vn -0.9981 -0.0624 -0.0000
vn -0.5818 0.8114 0.0553
vn 0.2746 0.6766 -0.6832
vn -0.1476 0.4906 -0.8588
vn 0.6193 0.3261 -0.7142
vn 0.6517 -0.3938 -0.6482
vn 0.1648 0.9366 -0.3093
vn -0.2871 0.9413 0.1778
vn 0.7904 0.6125 0.0103
vn 0.5630 0.7141 -0.4160
vn 0.9864 0.1621 -0.0259
vn 0.8162 -0.4672 -0.3398
vn 0.5184 0.7786 0.3536
vn -0.1284 0.8704 0.4754
vn 0.6909 0.1161 0.7135
vn 0.8297 0.4287 0.3576
vn 0.7624 -0.3427 0.5490
vn 0.7158 -0.6934 -0.0822
vn 0.3026 0.2925 0.9071
vn -0.2252 0.6522 0.7238
vn 0.5096 -0.7352 -0.4470
vn -0.1177 -0.5273 0.8415
vn 0.5853 -0.0211 0.8106
vn -0.5096 0.7352 0.4469
vn -0.7506 -0.6095 0.2551
vn -0.8369 -0.2060 -0.5071
vn -0.3116 0.3795 -0.8711
vn 0.4298 0.7060 -0.5629
vn 0.8289 0.5277 0.1855
vn -0.0027 -0.9432 -0.3322
vn -0.3211 -0.4072 -0.8550
vn 0.1027 -0.6651 -0.7397
vn -0.3402 0.4315 -0.8355
vn -0.1125 0.9673 -0.2273
vn 0.0576 0.7806 -0.6224
vn 0.2302 -0.9587 0.1668
vn 0.6265 -0.7308 0.2710
vn 0.5300 -0.4176 0.7381
vn 0.1591 0.9546 0.2519
vn 0.4604 0.4174 0.7834
vn 0.5815 0.7149 0.3882
vn -0.1713 -0.9318 -0.3201
vn -0.5815 -0.7150 -0.3882
vn -0.5068 -0.3253 -0.7983
vn -0.2191 0.9710 -0.0957
vn -0.4893 0.5089 -0.7083
vn -0.6266 0.7308 -0.2709
vn 0.0627 -0.9824 0.1760
vn 0.3500 -0.5190 0.7799
vn -0.0576 -0.7806 0.6224
vn 0.0535 0.9232 0.3806
vn -0.1027 0.6652 0.7396
vn 0.3170 0.3115 0.8958
vn 0.1115 -0.9863 -0.1219
vn 0.4438 -0.8495 -0.2852
vn -0.3542 0.0646 -0.9329
vn 0.1165 0.0839 -0.9896
vn 0.0496 0.9980 0.0391
vn 0.3890 0.9102 -0.1425
vn 0.5587 -0.0497 0.8279
vn 0.8778 -0.0115 0.4790
vn 0.1717 -0.9652 0.1974
vn 0.4209 -0.5155 0.7464
vn 0.1127 0.9295 0.3511
vn 0.3920 0.4137 0.8217
vn -0.1164 -0.0839 0.9896
vn 0.3541 -0.0646 0.9330
vn -0.0496 -0.9980 -0.0391
vn -0.3890 -0.9102 0.1425
vn -0.1115 0.9863 0.1219
vn -0.4438 0.8495 0.2852
vn -0.5587 0.0497 -0.8279
vn -0.8778 0.0115 -0.4789
vn -0.1127 -0.9295 -0.3511
vn -0.3920 -0.4137 -0.8217
vn -0.1717 0.9652 -0.1975
vn -0.4209 0.5156 -0.7463
vn 0.0311 -0.9962 -0.0808
vn 0.8876 0.0647 -0.4560
vn -0.4595 0.0576 -0.8863
vn -0.0311 0.9962 0.0808
vn 0.4595 -0.0576 0.8863
vn -0.8876 -0.0647 0.4560
vn -0.3833 -0.9191 -0.0913
vn -0.0000 0.9995 -0.0312
vn -0.7233 0.6816 0.1103
vn 0.9489 0.2965 -0.1075
vn 0.8944 0.4472 -0.0000
vn 0.0425 -0.9969 0.0669
vn 0.4756 -0.6418 -0.6016
vn 0.2020 -0.0982 -0.9744
vn 0.8648 -0.0334 -0.5010
vn 0.0957 0.1256 -0.9874
vn 0.1778 0.7378 -0.6511
vn 0.7387 0.2839 -0.6114
vn 0.5542 -0.5818 0.5952
vn 0.8706 0.0590 0.4885
vn 0.2808 -0.0454 0.9587
vn 0.2565 0.7977 0.5457
vn 0.2842 0.2018 0.9373
vn 0.8397 0.3967 0.3708
vn -0.2565 -0.7977 -0.5457
vn -0.8103 -0.3385 -0.4784
vn -0.2229 -0.2226 -0.9491
vn -0.5543 0.5818 -0.5952
vn -0.3282 0.0021 -0.9446
vn -0.9230 -0.0109 -0.3848
vn -0.1778 -0.7378 0.6511
vn -0.1580 -0.1057 0.9818
vn -0.7816 -0.3523 0.5148
vn -0.4756 0.6417 0.6017
vn -0.7990 -0.0044 0.6013
vn -0.1535 0.1424 0.9778
vn 0.4220 0.9037 -0.0730
vn 0.3079 0.1004 0.9461
vn 0.8491 0.2008 0.4885
vn 0.1845 -0.5823 0.7918
vn -0.7577 0.6523 0.0171
vn -0.9978 0.0125 0.0649
vn -0.8492 -0.2008 -0.4885
vn 0.5488 -0.7478 -0.3736
vn 0.6877 -0.0866 -0.7208
vn 0.9621 -0.2694 0.0420
vn 0.6528 0.2031 -0.7298
vn 0.6338 0.7428 -0.2158
vn 0.9947 0.1002 -0.0237
vn 0.0491 -0.8193 0.5713
vn 0.5186 -0.2698 0.8114
vn -0.2631 -0.2467 0.9327
vn 0.1340 0.6712 0.7290
vn -0.1856 0.0303 0.9822
vn 0.6181 0.0922 0.7806
vn -0.1340 -0.6712 -0.7290
vn -0.5360 -0.0346 -0.8435
vn 0.2447 -0.0747 -0.9667
vn -0.0491 0.8193 -0.5713
vn 0.1994 0.2135 -0.9564
vn -0.5945 0.3220 -0.7368
vn -0.6339 -0.7427 0.2158
vn -0.7016 -0.1572 0.6950
vn -0.9857 -0.1448 -0.0857
vn -0.5489 0.7478 0.3735
vn -0.9773 0.2041 0.0560
vn -0.6344 0.1183 0.7639
vn 0.4778 -0.8581 0.1878
vn 0.8468 -0.3216 0.4236
vn 0.5690 0.7408 0.3570
vn 0.8725 0.1289 0.4713
vn -0.1941 -0.0923 0.9766
vn -0.3727 -0.7428 0.5561
vn -0.9978 0.0526 0.0402
vn -0.5690 -0.7408 -0.3570
vn -0.8725 -0.1290 -0.4713
vn -0.8468 0.3217 -0.4236
vn 0.1940 0.0923 -0.9766
vn -0.5336 0.1190 -0.8373
vn 0.2935 -0.6476 -0.7032
vn 0.6188 -0.7795 0.0972
vn 0.6073 -0.3968 0.6883
vn 0.2134 -0.7409 0.6368
vn -0.3259 0.4335 0.8402
vn -0.1219 -0.1622 0.9792
vn 0.2375 0.1937 0.9519
vn 0.2197 -0.9749 -0.0365
vn -0.0993 -0.8151 0.5707
vn -0.4211 -0.8924 0.1624
vn -0.6997 0.2875 0.6540
vn -0.7685 -0.3433 0.5399
vn -0.4171 -0.2178 0.8824
vn -0.0206 -0.9040 -0.4271
vn -0.6184 -0.7822 -0.0754
vn -0.5969 -0.5761 -0.5584
vn -0.8768 0.4013 0.2649
vn -0.9825 -0.0553 -0.1779
vn -0.9291 -0.2179 0.2988
vn 0.0789 -0.6201 -0.7805
vn -0.5592 -0.3228 -0.7636
vn -0.1817 -0.0302 -0.9829
vn -0.7238 0.6892 -0.0342
vn -0.6026 0.4851 -0.6336
vn -0.9129 0.1934 -0.3594
vn 0.4433 -0.3371 -0.8306
vn 0.0338 0.2171 -0.9756
vn 0.5119 0.3342 -0.7914
vn -0.3559 0.9344 -0.0180
vn 0.0850 0.8709 -0.4841
vn -0.3808 0.7065 -0.5966
vn 0.7981 -0.2680 -0.5396
vn 0.7140 0.4310 -0.5517
vn 0.9616 0.2427 -0.1281
vn -0.0501 0.9522 0.3013
vn 0.5625 0.8115 0.1580
vn 0.2666 0.9349 -0.2341
vn 0.8762 -0.4649 -0.1266
vn 0.9693 0.1578 0.1887
vn 0.8288 -0.2357 0.5075
vn -0.0368 0.7293 0.6832
vn 0.4705 0.3518 0.8093
vn 0.5418 0.7067 0.4550
vn -0.4918 0.6474 -0.5823
vn -0.5818 0.8115 0.0553
vn 0.7904 0.6125 0.0102
vn -0.0000 -1.0000 -0.0000
vn -0.0000 -0.0000 -1.0000
vn 0.5096 -0.7352 -0.4469
vn -0.6170 -0.0000 -0.7870
vn 1.0000 -0.0000 -0.0000
vn -0.0535 -0.9232 -0.3806
vn -0.3171 -0.3114 -0.8958
vn 0.2321 -0.6089 -0.7585
vn -0.3499 0.5190 -0.7798
vn -0.0627 0.9824 -0.1760
vn 0.1901 0.7364 -0.6492
vn 0.2191 -0.9710 0.0956
vn 0.7196 -0.6701 0.1821
vn 0.4893 -0.5089 0.7083
vn 0.1713 0.9318 0.3201
vn 0.5069 0.3252 0.7983
vn 0.6777 0.6753 0.2911
vn -0.1591 -0.9546 -0.2519
vn -0.6776 -0.6753 -0.2912
vn -0.4604 -0.4175 -0.7834
vn -0.2302 0.9587 -0.1668
vn -0.5300 0.4177 -0.7380
vn -0.7196 0.6701 -0.1821
vn 0.1124 -0.9673 0.2272
vn 0.3402 -0.4314 0.8356
vn -0.1902 -0.7363 0.6493
vn 0.0027 0.9432 0.3321
vn -0.2321 0.6090 0.7585
vn 0.3211 0.4073 0.8550
vn 0.4438 -0.8495 -0.2853
vn -0.3541 0.0646 -0.9330
vn 0.3889 0.9102 -0.1425
vn 0.4209 -0.5156 0.7463
vn 0.1127 0.9295 0.3512
vn -0.3889 -0.9102 0.1425
vn -0.4438 0.8495 0.2853
vn -0.1127 -0.9295 -0.3512
vn -0.1717 0.9652 -0.1974
vt 0.923077 0.643961
vt 0.998204 0.500000
vt 1.000000 0.643961
vt 0.861235 0.461941
vt 0.750000 0.444466
vt 0.750000 0.489358
vt 1.000000 0.856039
vt 0.923077 1.000000
vt 0.923077 0.856039
vt 0.361161 0.461800
vt 0.250000 0.448803
vt 0.342388 0.426031
vt 0.846154 0.643961
vt 0.923077 0.500000
vt 0.910043 0.360470
vt 0.840373 0.422191
vt 0.846154 1.000000
vt 0.846154 0.856039
vt 0.413612 0.362933
vt 0.446857 0.385880
vt 0.769231 0.643961
vt 0.846154 0.500000
vt 0.987613 0.278851
vt 0.946988 0.385971
vt 0.769231 1.000000
vt 0.769231 0.856039
vt 0.487455 0.278832
vt 0.447353 0.273963
vt 0.692308 0.500000
vt 0.769231 0.500000
vt 0.973804 0.165122
vt 0.943048 0.273440
vt 0.692308 1.000000
vt 0.692308 0.856039
vt 0.435884 0.179504
vt 0.473655 0.165179
vt 0.692308 0.643961
vt 0.615385 0.500000
vt 0.908724 0.070838
vt 0.931829 0.181041
vt 0.615385 1.000000
vt 0.615385 0.856039
vt 0.381831 0.101194
vt 0.408618 0.070957
vt 0.538462 0.643961
vt 0.615385 0.643961
vt 0.807282 0.017597
vt 0.878955 0.104440
vt 0.538462 1.000000
vt 0.538462 0.856039
vt 0.307244 0.017752
vt 0.297577 0.056974
vt 0.461538 0.643961
vt 0.538462 0.500000
vt 0.692718 0.017597
vt 0.796539 0.061184
vt 0.461538 0.856039
vt 0.461538 1.000000
vt 0.202423 0.056974
vt 0.192756 0.017752
vt 0.384615 0.500000
vt 0.461538 0.500000
vt 0.591276 0.070838
vt 0.703461 0.061184
vt 0.384615 1.000000
vt 0.384615 0.856039
vt 0.118169 0.101194
vt 0.091382 0.070957
vt 0.307692 0.643961
vt 0.384615 0.643961
vt 0.526196 0.165122
vt 0.621045 0.104440
vt 0.307692 1.000000
vt 0.307692 0.856039
vt 0.026345 0.165179
vt 0.064116 0.179504
vt 0.230769 0.643961
vt 0.307692 0.500000
vt 0.512387 0.278851
vt 0.568171 0.181041
vt 0.230769 1.000000
vt 0.230769 0.856039
vt 0.052647 0.273963
vt 0.012545 0.278832
vt 0.153846 0.500000
vt 0.230769 0.500000
vt 0.553012 0.385971
vt 0.556952 0.273440
vt 0.153846 1.000000
vt 0.153846 0.856039
vt 0.086388 0.362933
vt 0.053143 0.385880
vt 0.076923 0.643961
vt 0.153846 0.643961
vt 0.638765 0.461941
vt 0.589957 0.360470
vt 0.076923 1.000000
vt 0.076923 0.856039
vt 0.157612 0.426031
vt 0.138839 0.461800
vt 0.000000 0.643961
vt 0.076923 0.500000
vt 0.659627 0.422191
vt 0.002243 1.000000
vt 0.000000 0.856039
vt 0.250000 0.489199
vt 0.923077 0.614527
vt 0.997698 0.500000
vt 1.000000 0.614527
vt 0.861151 0.461781
vt 0.750000 0.448803
vt 0.750000 0.489177
vt 0.923077 0.885473
vt 0.998174 1.000000
vt 0.923077 1.000000
vt 0.250000 0.489347
vt 0.339197 0.419952
vt 0.361230 0.461932
vt 0.846154 0.614527
vt 0.923077 0.500000
vt 0.946839 0.385868
vt 0.842388 0.426031
vt 0.846154 0.885473
vt 0.846154 1.000000
vt 0.407961 0.359032
vt 0.446979 0.385965
vt 0.769231 0.614527
vt 0.846154 0.500000
vt 0.987433 0.278830
vt 0.913612 0.362933
vt 0.769231 0.885473
vt 0.769231 1.000000
vt 0.440537 0.273135
vt 0.487602 0.278850
vt 0.692308 0.614527
vt 0.769231 0.500000
vt 0.973635 0.165187
vt 0.947353 0.273963
vt 0.692308 0.885473
vt 0.429464 0.181938
vt 0.473794 0.165126
vt 0.615385 0.614527
vt 0.908604 0.070973
vt 0.935884 0.179504
vt 0.615385 1.000000
vt 0.615385 0.885473
vt 0.377278 0.106333
vt 0.408717 0.070846
vt 0.538462 0.614527
vt 0.807239 0.017773
vt 0.881831 0.101194
vt 0.538462 0.885473
vt 0.538462 1.000000
vt 0.307280 0.017608
vt 0.295933 0.063641
vt 0.461538 0.614527
vt 0.702423 0.056974
vt 0.797577 0.056974
vt 0.461538 1.000000
vt 0.461538 0.885473
vt 0.204067 0.063641
vt 0.192720 0.017608
vt 0.384615 0.614527
vt 0.692761 0.017773
vt 0.618169 0.101194
vt 0.384615 1.000000
vt 0.384615 0.885473
vt 0.122722 0.106333
vt 0.091283 0.070846
vt 0.307692 0.614527
vt 0.384615 0.500000
vt 0.526365 0.165187
vt 0.591396 0.070973
vt 0.307692 1.000000
vt 0.307692 0.885473
vt 0.070536 0.181938
vt 0.026206 0.165126
vt 0.230769 0.614527
vt 0.307692 0.500000
vt 0.512567 0.278830
vt 0.564116 0.179504
vt 0.230769 1.000000
vt 0.230769 0.885473
vt 0.059463 0.273135
vt 0.012398 0.278850
vt 0.153846 0.614527
vt 0.230769 0.500000
vt 0.586389 0.362933
vt 0.552647 0.273963
vt 0.153846 1.000000
vt 0.153846 0.885473
vt 0.092039 0.359032
vt 0.053021 0.385965
vt 0.076923 0.614527
vt 0.553161 0.385868
vt 0.657612 0.426031
vt 0.076923 1.000000
vt 0.076923 0.885473
vt 0.160803 0.419951
vt 0.138770 0.461932
vt 0.000000 0.614527
vt 0.076923 0.500000
vt 0.638849 0.461781
vt 0.001826 1.000000
vt 0.000000 0.885473
vt 0.250000 0.441937
vt 1.000000 0.885473
vt 0.923077 0.750000
vt 0.998945 0.500000
vt 1.000000 0.750000
vt 0.861358 0.462176
vt 0.750000 0.457524
vt 0.750000 0.489623
vt 1.000000 0.750000
vt 0.923077 1.000000
vt 0.923077 0.750000
vt 0.361228 0.461927
vt 0.250000 0.460022
vt 0.347602 0.435966
vt 0.846154 0.750000
vt 0.947206 0.386121
vt 0.846441 0.433754
vt 0.846154 1.000000
vt 0.846154 0.750000
vt 0.422845 0.369306
vt 0.446975 0.385962
vt 0.769231 0.750000
vt 0.987876 0.278883
vt 0.920789 0.367887
vt 0.769231 0.750000
vt 0.458491 0.275315
vt 0.487597 0.278850
vt 0.692308 0.750000
vt 0.769231 0.500000
vt 0.944039 0.176411
vt 0.956011 0.275014
vt 0.692308 0.750000
vt 0.473789 0.165128
vt 0.446374 0.175525
vt 0.615385 0.750000
vt 0.692308 0.500000
vt 0.974051 0.165028
vt 0.887614 0.094666
vt 0.615385 0.750000
vt 0.408713 0.070850
vt 0.389271 0.092796
vt 0.538462 0.750000
vt 0.908899 0.070640
vt 0.799664 0.048506
vt 0.538462 0.750000
vt 0.538462 1.000000
vt 0.300262 0.046081
vt 0.307278 0.017613
vt 0.461539 0.750000
vt 0.538462 0.500000
vt 0.807346 0.017340
vt 0.700336 0.048506
vt 0.461538 0.750000
vt 0.199738 0.046081
vt 0.192722 0.017613
vt 0.384615 0.750000
vt 0.461539 0.500000
vt 0.591101 0.070640
vt 0.692655 0.017340
vt 0.384615 1.000000
vt 0.384615 0.750000
vt 0.110729 0.092796
vt 0.091287 0.070850
vt 0.307692 0.500000
vt 0.525949 0.165029
vt 0.612386 0.094666
vt 0.307692 0.750000
vt 0.053626 0.175525
vt 0.026211 0.165128
vt 0.230769 0.750000
vt 0.307692 0.750000
vt 0.512124 0.278883
vt 0.555962 0.176411
vt 0.230769 1.000000
vt 0.230769 0.750000
vt 0.041509 0.275315
vt 0.012403 0.278850
vt 0.153846 0.750000
vt 0.230769 0.500000
vt 0.552794 0.386121
vt 0.543989 0.275014
vt 0.153846 1.000000
vt 0.153846 0.750000
vt 0.053025 0.385962
vt 0.077155 0.369306
vt 0.076923 0.500000
vt 0.153846 0.500000
vt 0.638642 0.462176
vt 0.579211 0.367887
vt 0.076923 0.750000
vt 0.076923 1.000000
vt 0.152398 0.435966
vt 0.138772 0.461927
vt 0.000000 0.750000
vt 0.653559 0.433753
vt 0.001840 1.000000
vt 0.250000 0.489342
vt 0.181819 0.000000
vt 0.227273 0.078731
vt 0.136365 0.078731
vt 0.272728 0.157461
vt 0.318182 0.078731
vt 0.363637 0.157461
vt 0.909091 0.000000
vt 0.954545 0.078731
vt 0.863636 0.078731
vt 0.727273 0.000000
vt 0.772727 0.078731
vt 0.681818 0.078731
vt 0.545455 0.000000
vt 0.590909 0.078731
vt 0.500000 0.078731
vt 0.318182 0.236191
vt 0.090910 0.157461
vt 0.181819 0.157461
vt 0.136365 0.236191
vt 0.818182 0.157461
vt 0.909091 0.157461
vt 0.863636 0.236191
vt 0.636364 0.157461
vt 0.727273 0.157461
vt 0.681818 0.236191
vt 0.454546 0.157461
vt 0.545455 0.157461
vt 0.500000 0.236191
vt 0.227273 0.236191
vt 0.045455 0.236191
vt 0.772727 0.236191
vt 0.590909 0.236191
vt 0.409092 0.236191
vt 0.181819 0.314921
vt 0.272728 0.314921
vt 0.227273 0.393651
vt 0.000000 0.314921
vt 0.090910 0.314921
vt 0.045455 0.393651
vt 0.727273 0.314921
vt 0.818182 0.314921
vt 0.772727 0.393651
vt 0.545455 0.314921
vt 0.636364 0.314921
vt 0.590909 0.393651
vt 0.363637 0.314921
vt 0.454546 0.314921
vt 0.409092 0.393651
vt 0.500000 0.393651
vt 0.454546 0.472382
vt 0.681818 0.393651
vt 0.636364 0.472382
vt 0.863636 0.393651
vt 0.818182 0.472382
vt 0.909091 0.314921
vt 0.136365 0.393651
vt 0.090910 0.472382
vt 0.318182 0.393651
vt 0.272728 0.472382
vt 0.954545 0.236191
vt 1.000000 0.157461
vt 0.409092 0.078731
vt 0.363637 0.000000
vt 0.999202 0.500000
vt 1.000000 0.750000
vt 0.750000 0.489715
vt 0.853636 0.447462
vt 0.750000 0.473006
vt 0.923077 0.750000
vt 0.999202 1.000000
vt 0.923077 1.000000
vt 0.250000 0.489715
vt 0.353636 0.447462
vt 0.361401 0.462257
vt 0.846154 0.750000
vt 0.923077 0.500000
vt 0.861401 0.462257
vt 0.933531 0.376682
vt 0.846154 0.750000
vt 0.447282 0.386174
vt 0.433531 0.376682
vt 0.769231 0.750000
vt 0.846154 0.500000
vt 0.947281 0.386174
vt 0.971380 0.276880
vt 0.769231 1.000000
vt 0.487967 0.278894
vt 0.471380 0.276880
vt 0.692308 0.750000
vt 0.974137 0.164996
vt 0.987967 0.278894
vt 0.692308 1.000000
vt 0.474137 0.164996
vt 0.458514 0.170921
vt 0.615385 0.750000
vt 0.692308 0.500000
vt 0.897880 0.083077
vt 0.958514 0.170921
vt 0.615385 1.000000
vt 0.615385 0.750000
vt 0.397880 0.083077
vt 0.408960 0.070571
vt 0.538462 0.750000
vt 0.908960 0.070571
vt 0.803369 0.033474
vt 0.303369 0.033474
vt 0.307368 0.017251
vt 0.461538 0.750000
vt 0.807368 0.017251
vt 0.696631 0.033474
vt 0.196631 0.033474
vt 0.192632 0.017251
vt 0.384615 0.750000
vt 0.461538 0.500000
vt 0.591040 0.070571
vt 0.692632 0.017251
vt 0.384615 0.750000
vt 0.102120 0.083077
vt 0.091040 0.070571
vt 0.307692 0.750000
vt 0.384615 0.500000
vt 0.525863 0.164996
vt 0.602120 0.083077
vt 0.307692 1.000000
vt 0.041486 0.170921
vt 0.025863 0.164996
vt 0.230769 0.750000
vt 0.512033 0.278894
vt 0.541486 0.170921
vt 0.230769 0.750000
vt 0.028620 0.276880
vt 0.012033 0.278894
vt 0.153846 0.750000
vt 0.230769 0.500000
vt 0.566469 0.376682
vt 0.528620 0.276880
vt 0.153846 1.000000
vt 0.153846 0.750000
vt 0.066469 0.376682
vt 0.052718 0.386174
vt 0.076923 0.750000
vt 0.153846 0.500000
vt 0.552719 0.386174
vt 0.646364 0.447462
vt 0.146364 0.447462
vt 0.138599 0.462257
vt 0.000000 0.750000
vt 0.076923 0.500000
vt 0.638599 0.462257
vt 0.000798 1.000000
vt 0.250000 0.473006
vt 0.128500 0.750000
vt 0.125000 0.746500
vt 0.128500 0.746500
vt 0.378500 0.996500
vt 0.376479 1.000000
vt 0.375000 0.996500
vt 0.378500 0.003500
vt 0.375000 0.001479
vt 0.378500 0.000000
vt 0.621500 0.996500
vt 0.625000 0.998521
vt 0.621500 1.000000
vt 0.875000 0.746500
vt 0.871500 0.750000
vt 0.871500 0.746500
vt 0.621500 0.003500
vt 0.623521 0.000000
vt 0.625000 0.003500
vt 0.125000 0.503500
vt 0.128500 0.500000
vt 0.128500 0.503500
vt 0.378500 0.246500
vt 0.375740 0.250740
vt 0.375000 0.246500
vt 0.378500 0.253500
vt 0.378500 0.250000
vt 0.871500 0.500000
vt 0.875000 0.503500
vt 0.871500 0.503500
vt 0.621500 0.253500
vt 0.624260 0.249260
vt 0.625000 0.253500
vt 0.621500 0.246500
vt 0.621500 0.250000
vt 0.375000 0.746500
vt 0.373250 0.751750
vt 0.371500 0.746500
vt 0.378500 0.746500
vt 0.375493 0.750000
vt 0.378500 0.753500
vt 0.378500 0.750000
vt 0.626750 0.751750
vt 0.625000 0.746500
vt 0.628500 0.746500
vt 0.621500 0.753500
vt 0.625000 0.749507
vt 0.621500 0.746500
vt 0.621500 0.750000
vt 0.373250 0.498250
vt 0.375000 0.503500
vt 0.371500 0.503500
vt 0.378500 0.496500
vt 0.375000 0.500493
vt 0.378500 0.503500
vt 0.378500 0.500000
vt 0.625000 0.503500
vt 0.626750 0.498250
vt 0.628500 0.503500
vt 0.621500 0.503500
vt 0.624507 0.500000
vt 0.621500 0.496500
vt 0.621500 0.500000
vt 0.375000 0.003500
vt 0.378500 1.000000
vt 0.625000 0.246500
vt 0.375000 0.253500
vt 0.128500 0.746500
vt 0.871500 0.746500
vt 0.128500 0.503500
vt 0.378500 0.253500
vt 0.378500 0.250000
vt 0.621500 0.253500
vt 0.378500 0.746500
vt 0.378500 0.753500
vt 0.621500 0.753500
vt 0.371500 0.503500
vt 0.625000 0.996500
vt 0.750000 0.423453
vt 0.739670 0.485026
vt 0.797371 0.467187
vt 0.041860 0.515356
vt 0.000000 0.506835
vt 0.036065 0.500000
vt 0.958140 0.515356
vt 0.992136 0.500000
vt 1.000000 0.515524
vt 0.250000 0.371694
vt 0.266469 0.482069
vt 0.167098 0.450076
vt 0.928571 0.984644
vt 1.000000 0.993855
vt 0.936883 1.000000
vt 0.071429 0.984644
vt 0.012539 1.000000
vt 0.000000 0.984813
vt 0.885611 0.358146
vt 0.927310 0.404612
vt 0.949339 0.348378
vt 0.899003 0.515356
vt 0.853211 0.503417
vt 0.893208 0.500000
vt 0.815282 0.515356
vt 0.857143 0.515524
vt 0.345144 0.325875
vt 0.441707 0.381816
vt 0.354737 0.439561
vt 0.785714 0.984644
vt 0.863412 0.996928
vt 0.794026 1.000000
vt 0.928572 0.984645
vt 0.857143 0.984813
vt 0.919104 0.211403
vt 0.981431 0.207772
vt 0.951201 0.155488
vt 0.756146 0.515356
vt 0.710354 0.503417
vt 0.750351 0.500000
vt 0.672425 0.515356
vt 0.714286 0.515524
vt 0.368642 0.222921
vt 0.472586 0.182303
vt 0.463508 0.286303
vt 0.642857 0.984645
vt 0.720555 0.996928
vt 0.651169 1.000000
vt 0.785714 0.984644
vt 0.714286 0.984813
vt 0.825258 0.093725
vt 0.861280 0.042731
vt 0.801554 0.033767
vt 0.613289 0.515356
vt 0.567496 0.503418
vt 0.607494 0.500000
vt 0.529568 0.515356
vt 0.571429 0.515524
vt 0.302801 0.140358
vt 0.335853 0.033767
vt 0.411502 0.105707
vt 0.500000 0.984644
vt 0.577698 0.996927
vt 0.508312 1.000000
vt 0.642857 0.984644
vt 0.571429 0.984813
vt 0.674742 0.093725
vt 0.657333 0.033767
vt 0.613086 0.074874
vt 0.470432 0.515356
vt 0.424639 0.503417
vt 0.464637 0.500000
vt 0.386711 0.515356
vt 0.428572 0.515524
vt 0.197199 0.140358
vt 0.134471 0.048059
vt 0.237882 0.033767
vt 0.357143 0.984645
vt 0.434841 0.996927
vt 0.365455 1.000000
vt 0.500000 0.984644
vt 0.428571 0.984813
vt 0.580896 0.211403
vt 0.523166 0.187631
vt 0.527717 0.247854
vt 0.327575 0.515356
vt 0.281782 0.503418
vt 0.321780 0.500000
vt 0.243854 0.515356
vt 0.285714 0.515524
vt 0.131358 0.222921
vt 0.020085 0.214416
vt 0.073387 0.124655
vt 0.214286 0.984644
vt 0.291984 0.996928
vt 0.222598 1.000000
vt 0.357143 0.984644
vt 0.285714 0.984813
vt 0.614389 0.358146
vt 0.559809 0.388460
vt 0.609731 0.422450
vt 0.184718 0.515356
vt 0.138925 0.503418
vt 0.178922 0.500000
vt 0.100997 0.515356
vt 0.142857 0.515524
vt 0.154856 0.325875
vt 0.078830 0.407569
vt 0.041885 0.309930
vt 0.071429 0.984644
vt 0.149127 0.996927
vt 0.079741 1.000000
vt 0.214286 0.984644
vt 0.142857 0.984813
vt 0.963935 0.500000
vt 0.920260 1.000000
vt 0.000000 0.515524
vt 1.000000 0.984813
vt 0.821078 0.500000
vt 0.777402 1.000000
vt 0.678220 0.500000
vt 0.634545 1.000000
vt 0.535363 0.500000
vt 0.698446 0.033767
vt 0.491688 1.000000
vt 0.262118 0.033767
vt 0.392506 0.500000
vt 0.548799 0.155488
vt 0.348831 1.000000
vt 0.088498 0.105707
vt 0.249649 0.500000
vt 0.205974 1.000000
vt 0.036492 0.286302
vt 0.106792 0.500000
vt 0.063117 1.000000
vt 0.126479 0.750000
vt 0.875000 0.748521
vt 0.621500 0.000000
vt 0.125000 0.501479
vt 0.378500 0.246500
vt 0.873521 0.500000
vt 0.621500 0.246500
vt 0.628500 0.746500
vt 0.621500 0.746500
vt 0.621500 0.496500
vt 0.997757 1.000000
vt 0.001796 0.500000
vt 0.002302 0.500000
vt 0.998160 1.000000
vt 0.001055 0.500000
vt 0.000798 0.500000
vt 0.702629 0.467187
vt 0.332902 0.450076
vt 0.890269 0.422450
vt 0.458115 0.309930
vt 0.972283 0.247854
vt 0.426613 0.124655
vt 0.886914 0.074874
vt 0.550661 0.348378
vt 0.145263 0.439561
s 0
usemtl bone
f 8/1/1 3/2/1 2/3/1
f 9/4/2 1/5/2 3/6/2
f 5/7/3 12/8/3 11/9/3
f 12/10/4 4/11/4 10/12/4
f 14/13/5 9/14/5 8/1/5
f 9/4/6 13/15/6 7/16/6
f 11/9/7 18/17/7 17/18/7
f 12/10/8 16/19/8 18/20/8
f 20/21/9 15/22/9 14/13/9
f 21/23/10 13/15/10 15/24/10
f 17/18/11 24/25/11 23/26/11
f 24/27/12 16/19/12 22/28/12
f 20/21/13 27/29/13 21/30/13
f 27/31/14 19/32/14 21/23/14
f 23/26/15 30/33/15 29/34/15
f 24/27/16 28/35/16 30/36/16
f 26/37/17 33/38/17 27/29/17
f 33/39/18 25/40/18 27/31/18
f 29/34/19 36/41/19 35/42/19
f 30/36/20 34/43/20 36/44/20
f 38/45/21 33/38/21 32/46/21
f 39/47/22 31/48/22 33/39/22
f 35/42/23 42/49/23 41/50/23
f 42/51/24 34/43/24 40/52/24
f 44/53/25 39/54/25 38/45/25
f 45/55/26 37/56/26 39/47/26
f 47/57/27 42/49/27 48/58/27
f 42/51/28 46/59/28 48/60/28
f 44/53/29 51/61/29 45/62/29
f 51/63/30 43/64/30 45/55/30
f 47/57/31 54/65/31 53/66/31
f 48/60/32 52/67/32 54/68/32
f 56/69/33 51/61/33 50/70/33
f 57/71/34 49/72/34 51/63/34
f 53/66/35 60/73/35 59/74/35
f 60/75/36 52/67/36 58/76/36
f 62/77/37 57/78/37 56/69/37
f 63/79/38 55/80/38 57/71/38
f 59/74/39 66/81/39 65/82/39
f 60/75/40 64/83/40 66/84/40
f 62/77/41 69/85/41 63/86/41
f 69/87/42 61/88/42 63/79/42
f 65/82/43 72/89/43 71/90/43
f 66/84/44 70/91/44 72/92/44
f 74/93/45 69/85/45 68/94/45
f 75/95/46 67/96/46 69/87/46
f 71/90/47 78/97/47 77/98/47
f 72/92/48 76/99/48 78/100/48
f 2/101/49 75/102/49 74/93/49
f 75/95/50 1/5/50 73/103/50
f 77/98/51 6/104/51 5/105/51
f 78/100/52 4/11/52 6/106/52
f 7/16/53 31/48/53 55/80/53
f 5/7/54 8/1/54 2/3/54
f 77/98/55 2/101/55 74/93/55
f 4/11/56 58/76/56 34/43/56
f 8/1/57 17/18/57 14/13/57
f 17/18/58 20/21/58 14/13/58
f 20/21/59 29/34/59 26/37/59
f 29/34/60 32/46/60 26/37/60
f 35/42/61 38/45/61 32/46/61
f 41/50/62 44/53/62 38/45/62
f 47/57/63 50/70/63 44/53/63
f 53/66/64 56/69/64 50/70/64
f 59/74/65 62/77/65 56/69/65
f 62/77/66 71/90/66 68/94/66
f 68/94/67 77/98/67 74/93/67
f 86/107/68 81/108/68 80/109/68
f 87/110/69 79/111/69 81/112/69
f 89/113/70 84/114/70 90/115/70
f 84/116/71 88/117/71 90/118/71
f 92/119/72 87/120/72 86/107/72
f 93/121/73 85/122/73 87/110/73
f 95/123/74 90/115/74 96/124/74
f 90/118/75 94/125/75 96/126/75
f 98/127/76 93/128/76 92/119/76
f 99/129/77 91/130/77 93/121/77
f 101/131/78 96/124/78 102/132/78
f 96/126/79 100/133/79 102/134/79
f 104/135/80 99/136/80 98/127/80
f 105/137/81 97/138/81 99/129/81
f 101/131/82 108/33/82 107/139/82
f 102/134/83 106/140/83 108/141/83
f 110/142/84 105/29/84 104/135/84
f 111/143/85 103/144/85 105/137/85
f 107/139/86 114/145/86 113/146/86
f 108/141/87 112/147/87 114/148/87
f 116/149/88 111/38/88 110/142/88
f 117/150/89 109/151/89 111/143/89
f 119/152/90 114/145/90 120/153/90
f 120/154/91 112/147/91 118/155/91
f 122/156/92 117/54/92 116/149/92
f 117/150/93 121/157/93 115/158/93
f 119/152/94 126/159/94 125/160/94
f 120/154/95 124/161/95 126/162/95
f 128/163/96 123/62/96 122/156/96
f 123/164/97 127/165/97 121/157/97
f 125/160/98 132/166/98 131/167/98
f 126/162/99 130/168/99 132/169/99
f 134/170/100 129/171/100 128/163/100
f 135/172/101 127/165/101 129/173/101
f 131/167/102 138/174/102 137/175/102
f 132/169/103 136/176/103 138/177/103
f 140/178/104 135/179/104 134/170/104
f 141/180/105 133/181/105 135/172/105
f 137/175/106 144/182/106 143/183/106
f 138/177/107 142/184/107 144/185/107
f 146/186/108 141/187/108 140/178/108
f 141/180/109 145/188/109 139/189/109
f 143/183/110 150/190/110 149/191/110
f 144/185/111 148/192/111 150/193/111
f 152/194/112 147/85/112 146/186/112
f 147/195/113 151/196/113 145/188/113
f 149/191/114 156/197/114 155/198/114
f 150/193/115 154/199/115 156/200/115
f 80/201/116 153/202/116 152/194/116
f 81/112/117 151/196/117 153/203/117
f 155/198/118 84/204/118 83/205/118
f 156/200/119 82/206/119 84/116/119
f 85/122/120 109/151/120 133/181/120
f 83/207/121 86/107/121 80/109/121
f 155/198/122 80/201/122 152/194/122
f 82/206/123 136/176/123 112/147/123
f 89/113/124 92/119/124 86/107/124
f 95/123/125 98/127/125 92/119/125
f 101/131/126 104/135/126 98/127/126
f 104/135/127 113/146/127 110/142/127
f 113/146/128 116/149/128 110/142/128
f 119/152/129 122/156/129 116/149/129
f 125/160/130 128/163/130 122/156/130
f 131/167/131 134/170/131 128/163/131
f 137/175/132 140/178/132 134/170/132
f 143/183/133 146/186/133 140/178/133
f 149/191/134 152/194/134 146/186/134
f 164/208/135 159/209/135 158/210/135
f 165/211/136 157/212/136 159/213/136
f 161/214/137 168/215/137 167/216/137
f 168/217/138 160/218/138 166/219/138
f 170/220/139 165/14/139 164/208/139
f 171/221/140 163/222/140 165/211/140
f 167/216/141 174/223/141 173/224/141
f 168/217/142 172/225/142 174/226/142
f 176/227/143 171/128/143 170/220/143
f 177/228/144 169/229/144 171/221/144
f 173/224/145 180/132/145 179/230/145
f 174/226/146 178/231/146 180/232/146
f 182/233/147 177/234/147 176/227/147
f 177/228/148 181/235/148 175/236/148
f 185/237/149 180/132/149 186/33/149
f 186/238/150 178/231/150 184/239/150
f 188/240/151 183/241/151 182/233/151
f 183/242/152 187/243/152 181/235/152
f 191/244/153 186/33/153 192/41/153
f 192/245/154 184/239/154 190/246/154
f 194/247/155 189/38/155 188/240/155
f 189/248/156 193/249/156 187/243/156
f 197/250/157 192/41/157 198/251/157
f 192/245/158 196/252/158 198/253/158
f 200/254/159 195/255/159 194/247/159
f 195/256/160 199/257/160 193/249/160
f 197/250/161 204/58/161 203/258/161
f 198/253/162 202/259/162 204/260/162
f 206/261/163 201/262/163 200/254/163
f 207/263/164 199/257/164 201/264/164
f 203/258/165 210/265/165 209/266/165
f 204/260/166 208/267/166 210/268/166
f 206/261/167 213/269/167 207/61/167
f 213/270/168 205/271/168 207/263/168
f 209/266/169 216/174/169 215/272/169
f 210/268/170 214/273/170 216/274/170
f 218/275/171 213/269/171 212/276/171
f 219/277/172 211/278/172 213/270/172
f 215/272/173 222/279/173 221/280/173
f 216/274/174 220/281/174 222/282/174
f 224/283/175 219/284/175 218/275/175
f 225/285/176 217/286/176 219/277/176
f 221/280/177 228/287/177 227/288/177
f 228/289/178 220/281/178 226/290/178
f 224/283/179 231/291/179 225/292/179
f 231/293/180 223/294/180 225/285/180
f 233/295/181 228/287/181 234/296/181
f 228/289/182 232/297/182 234/298/182
f 158/299/183 231/291/183 230/295/183
f 231/293/184 157/212/184 229/300/184
f 161/299/185 234/296/185 162/301/185
f 234/298/186 160/218/186 162/302/186
f 163/222/187 187/243/187 211/278/187
f 158/210/188 167/216/188 164/208/188
f 230/295/188 161/299/188 158/299/188
f 160/218/189 214/273/189 190/246/189
f 164/208/190 173/224/190 170/220/190
f 170/220/188 179/230/188 176/227/188
f 176/227/188 185/237/188 182/233/188
f 182/233/188 191/244/188 188/240/188
f 188/240/191 197/250/191 194/247/191
f 197/250/192 200/254/192 194/247/192
f 200/254/188 209/266/188 206/261/188
f 206/261/188 215/272/188 212/276/188
f 215/272/193 218/275/193 212/276/193
f 218/275/194 227/288/194 224/283/194
f 224/283/188 233/295/188 230/295/188
f 235/303/195 248/304/195 247/305/195
f 236/306/196 248/307/196 250/308/196
f 235/309/197 247/310/197 252/311/197
f 235/312/198 252/313/198 254/314/198
f 235/315/199 254/316/199 251/317/199
f 236/306/200 250/308/200 257/318/200
f 237/319/201 249/320/201 259/321/201
f 238/322/202 253/323/202 261/324/202
f 239/325/203 255/326/203 263/327/203
f 240/328/204 256/329/204 265/330/204
f 236/306/205 257/318/205 260/331/205
f 237/319/206 259/321/206 262/332/206
f 238/322/207 261/324/207 264/333/207
f 239/325/208 263/327/208 266/334/208
f 240/328/209 265/330/209 258/335/209
f 241/336/210 267/337/210 272/338/210
f 242/339/211 268/340/211 274/341/211
f 243/342/212 269/343/212 275/344/212
f 244/345/213 270/346/213 276/347/213
f 245/348/214 271/349/214 273/350/214
f 273/350/215 276/351/215 246/352/215
f 273/350/216 271/349/216 276/351/216
f 271/349/217 244/345/217 276/351/217
f 276/347/218 275/353/218 246/354/218
f 276/347/219 270/346/219 275/353/219
f 270/346/220 243/342/220 275/353/220
f 275/344/221 274/355/221 246/356/221
f 275/344/222 269/343/222 274/355/222
f 269/343/223 242/357/223 274/355/223
f 274/341/224 272/358/224 246/359/224
f 274/341/225 268/340/225 272/358/225
f 268/340/226 241/336/226 272/358/226
f 272/338/227 273/360/227 246/361/227
f 272/338/228 267/337/228 273/360/228
f 267/337/229 245/348/229 273/360/229
f 258/335/230 271/349/230 245/348/230
f 258/335/231 265/330/231 271/349/231
f 265/330/232 244/345/232 271/349/232
f 266/334/233 270/346/233 244/345/233
f 266/334/234 263/327/234 270/346/234
f 263/327/235 243/342/235 270/346/235
f 264/333/236 269/343/236 243/342/236
f 264/333/237 261/324/237 269/343/237
f 261/324/238 242/357/238 269/343/238
f 262/332/239 268/340/239 242/339/239
f 262/332/240 259/321/240 268/340/240
f 259/321/241 241/336/241 268/340/241
f 260/331/242 267/337/242 241/336/242
f 260/331/243 257/318/243 267/337/243
f 257/318/244 245/348/244 267/337/244
f 265/330/245 266/334/245 244/345/245
f 265/330/246 256/329/246 266/334/246
f 256/329/247 239/325/247 266/334/247
f 263/327/248 264/333/248 243/342/248
f 263/327/249 255/326/249 264/333/249
f 255/326/250 238/322/250 264/333/250
f 261/324/251 262/362/251 242/357/251
f 261/324/252 253/323/252 262/362/252
f 253/323/253 237/363/253 262/362/253
f 259/321/254 260/331/254 241/336/254
f 259/321/255 249/320/255 260/331/255
f 249/320/256 236/306/256 260/331/256
f 257/318/257 258/335/257 245/348/257
f 257/318/258 250/308/258 258/335/258
f 250/308/259 240/328/259 258/335/259
f 251/317/260 256/329/260 240/328/260
f 251/317/261 254/316/261 256/329/261
f 254/316/262 239/325/262 256/329/262
f 254/314/263 255/326/263 239/325/263
f 254/314/264 252/313/264 255/326/264
f 252/313/265 238/322/265 255/326/265
f 252/311/266 253/323/266 238/322/266
f 252/311/267 247/310/267 253/323/267
f 247/310/268 237/363/268 253/323/268
f 250/308/269 251/364/269 240/328/269
f 250/308/270 248/307/270 251/364/270
f 248/307/271 235/365/271 251/364/271
f 247/305/272 249/320/272 237/319/272
f 247/305/273 248/304/273 249/320/273
f 248/304/274 236/306/274 249/320/274
f 284/216/275 279/366/275 278/367/275
f 279/368/276 283/369/276 277/370/276
f 287/371/277 282/372/277 288/373/277
f 282/374/278 286/375/278 288/376/278
f 290/377/279 285/378/279 284/216/279
f 285/379/280 289/380/280 283/369/280
f 287/371/281 294/223/281 293/381/281
f 294/382/282 286/375/282 292/383/282
f 296/384/283 291/385/283 290/377/283
f 291/386/284 295/387/284 289/380/284
f 299/230/285 294/223/285 300/388/285
f 300/389/286 292/383/286 298/390/286
f 302/391/287 297/136/287 296/384/287
f 303/392/288 295/387/288 297/393/288
f 299/230/289 306/394/289 305/391/289
f 306/395/290 298/390/290 304/396/290
f 308/397/291 303/398/291 302/391/291
f 303/392/292 307/399/292 301/400/292
f 305/391/293 312/401/293 311/402/293
f 306/395/294 310/403/294 312/404/294
f 314/405/295 309/38/295 308/397/295
f 309/406/296 313/407/296 307/399/296
f 311/402/297 318/49/297 317/405/297
f 312/404/298 316/408/298 318/409/298
f 320/410/299 315/255/299 314/405/299
f 315/411/300 319/412/300 313/407/300
f 317/405/301 324/159/301 323/410/301
f 318/409/302 322/413/302 324/414/302
f 326/415/303 321/416/303 320/410/303
f 327/417/304 319/412/304 321/418/304
f 323/410/305 330/65/305 329/419/305
f 324/414/306 328/420/306 330/421/306
f 332/422/307 327/423/307 326/415/307
f 333/424/308 325/425/308 327/417/308
f 335/422/309 330/65/309 336/426/309
f 330/421/310 334/427/310 336/428/310
f 338/429/311 333/78/311 332/422/311
f 339/430/312 331/431/312 333/424/312
f 335/422/313 342/279/313 341/432/313
f 336/428/314 340/433/314 342/434/314
f 344/435/315 339/436/315 338/429/315
f 339/430/316 343/437/316 337/438/316
f 341/432/317 348/439/317 347/440/317
f 342/434/318 346/441/318 348/442/318
f 350/443/319 345/444/319 344/435/319
f 345/445/320 349/446/320 343/437/320
f 353/295/321 348/439/321 354/97/321
f 348/442/322 352/447/322 354/448/322
f 278/449/323 351/450/323 350/443/323
f 279/368/324 349/446/324 351/451/324
f 353/295/325 282/452/325 281/449/325
f 354/448/326 280/453/326 282/374/326
f 283/369/327 307/399/327 331/431/327
f 278/367/188 287/371/188 284/216/188
f 350/443/188 281/449/188 278/449/188
f 280/453/328 334/427/328 310/403/328
f 284/216/188 293/381/188 290/377/188
f 290/377/188 299/230/188 296/384/188
f 296/384/188 305/391/188 302/391/188
f 302/391/188 311/402/188 308/397/188
f 308/397/188 317/405/188 314/405/188
f 314/405/188 323/410/188 320/410/188
f 320/410/188 329/419/188 326/415/188
f 326/415/188 335/422/188 332/422/188
f 332/422/188 341/432/188 338/429/188
f 338/429/188 347/440/188 344/435/188
f 344/435/188 353/295/188 350/443/188
f 358/454/329 361/455/329 355/456/329
f 356/457/330 359/458/330 358/459/330
f 357/460/331 359/461/331 360/462/331
f 362/463/332 366/464/332 368/465/332
f 367/466/333 365/467/333 363/468/333
f 364/469/334 366/470/334 367/471/334
f 372/472/335 375/473/335 369/474/335
f 370/475/336 373/476/336 372/477/336
f 371/478/337 373/476/337 374/479/337
f 379/480/338 382/481/338 376/482/338
f 377/483/339 380/484/339 379/485/339
f 378/486/340 380/484/340 381/487/340
f 386/488/341 389/489/341 383/490/341
f 384/491/342 387/492/342 386/488/342
f 385/493/343 387/492/343 388/494/343
f 393/495/344 396/496/344 390/497/344
f 391/498/345 394/499/345 393/495/345
f 392/500/346 394/499/346 395/501/346
f 400/502/347 403/503/347 397/504/347
f 398/505/348 401/506/348 400/502/348
f 399/507/349 401/506/349 402/508/349
f 407/509/350 410/510/350 404/511/350
f 405/512/351 408/513/351 407/509/351
f 406/514/352 408/513/352 409/515/352
f 355/456/353 372/472/353 369/474/353
f 361/516/354 370/475/354 372/477/354
f 362/463/355 360/517/355 356/457/355
f 360/462/356 364/469/356 357/460/356
f 363/468/357 382/481/357 367/466/357
f 382/518/358 364/469/358 367/471/358
f 371/478/359 381/487/359 377/483/359
f 381/487/360 370/475/360 378/486/360
f 397/504/361 375/473/361 400/502/361
f 375/519/362 398/505/362 400/502/362
f 376/482/363 410/510/363 379/480/363
f 410/510/364 377/483/364 379/485/364
f 405/512/365 402/508/365 409/515/365
f 409/515/366 398/505/366 406/514/366
f 397/504/367 386/488/367 383/490/367
f 386/488/368 399/507/368 384/491/368
f 390/497/369 407/509/369 404/511/369
f 396/496/370 405/512/370 407/509/370
f 385/493/371 395/501/371 391/498/371
f 395/501/372 384/491/372 392/500/372
f 383/490/373 358/454/373 355/456/373
f 389/489/374 356/457/374 358/459/374
f 390/497/375 365/467/375 393/495/375
f 393/495/376 362/463/376 391/498/376
f 397/504/377 355/456/377 369/474/377
f 364/469/378 370/475/378 357/460/378
f 391/498/379 356/457/379 385/493/379
f 404/511/380 363/468/380 390/497/380
f 377/483/381 398/505/381 371/478/381
f 405/512/382 384/491/382 399/507/382
f 414/454/383 417/455/383 411/520/383
f 412/457/384 415/458/384 414/459/384
f 413/460/385 415/461/385 416/462/385
f 418/463/386 422/464/386 424/465/386
f 423/466/387 421/467/387 419/521/387
f 420/469/388 422/470/388 423/471/388
f 428/472/389 431/473/389 425/522/389
f 426/475/390 429/476/390 428/477/390
f 427/523/391 429/476/391 430/524/391
f 435/480/392 438/481/392 432/482/392
f 433/525/393 436/484/393 435/485/393
f 434/486/394 436/484/394 437/487/394
f 442/488/395 445/489/395 439/490/395
f 440/526/396 443/492/396 442/488/396
f 441/527/397 443/492/397 444/494/397
f 449/495/398 452/496/398 446/497/398
f 447/528/399 450/499/399 449/495/399
f 448/500/400 450/499/400 451/501/400
f 456/502/401 459/503/401 453/529/401
f 454/505/402 457/506/402 456/502/402
f 455/507/403 457/506/403 458/508/403
f 463/509/404 466/510/404 460/511/404
f 461/512/405 464/513/405 463/509/405
f 462/514/406 464/513/406 465/515/406
f 425/522/407 417/455/407 428/472/407
f 417/516/408 426/475/408 428/477/408
f 412/457/409 424/465/409 416/517/409
f 416/462/410 420/469/410 413/460/410
f 419/521/411 438/481/411 423/466/411
f 423/471/412 434/486/412 420/469/412
f 427/523/413 437/487/413 433/525/413
f 430/524/414 434/486/414 437/487/414
f 425/522/415 456/502/415 453/529/415
f 456/502/416 427/523/416 454/505/416
f 460/511/417 435/480/417 432/482/417
f 435/485/418 462/514/418 433/525/418
f 455/507/419 465/515/419 461/512/419
f 458/508/420 462/514/420 465/515/420
f 453/529/421 442/488/421 439/490/421
f 442/488/422 455/507/422 440/526/422
f 446/497/423 463/509/423 460/511/423
f 452/496/424 461/512/424 463/509/424
f 441/527/425 451/501/425 447/528/425
f 451/501/426 440/526/426 448/500/426
f 411/520/427 445/489/427 414/454/427
f 445/489/428 412/457/428 414/459/428
f 446/497/429 421/467/429 449/495/429
f 421/530/430 447/528/430 449/495/430
f 453/529/431 411/520/431 425/522/431
f 420/469/432 426/475/432 413/460/432
f 447/528/433 412/457/433 441/527/433
f 460/511/434 419/521/434 446/497/434
f 433/525/435 454/505/435 427/523/435
f 455/507/436 448/500/436 440/526/436
f 467/531/437 471/532/437 473/533/437
f 468/534/438 471/535/438 470/536/438
f 469/537/439 471/538/439 472/539/439
f 474/540/440 478/541/440 480/542/440
f 475/543/441 478/544/441 477/545/441
f 476/546/442 478/547/442 479/548/442
f 481/549/443 485/550/443 487/551/443
f 482/552/444 485/553/444 484/554/444
f 483/555/445 485/553/445 486/556/445
f 488/557/446 492/558/446 494/559/446
f 489/560/447 492/561/447 491/562/447
f 490/563/448 492/561/448 493/564/448
f 495/565/449 499/566/449 501/567/449
f 496/568/450 499/569/450 498/570/450
f 497/571/451 499/569/451 500/572/451
f 502/573/452 506/574/452 508/575/452
f 503/576/453 506/577/453 505/578/453
f 504/579/454 506/577/454 507/580/454
f 509/581/455 513/582/455 515/583/455
f 510/584/456 513/585/456 512/586/456
f 511/587/457 513/585/457 514/588/457
f 516/589/458 520/590/458 522/591/458
f 517/592/459 520/593/459 519/594/459
f 518/595/460 520/593/460 521/596/460
f 523/597/461 527/598/461 529/599/461
f 524/600/462 527/601/462 526/602/462
f 525/603/463 527/601/463 528/604/463
f 530/605/464 534/606/464 536/607/464
f 531/608/465 534/609/465 533/610/465
f 532/611/466 534/609/466 535/612/466
f 537/613/467 541/614/467 543/615/467
f 538/616/468 541/617/468 540/618/468
f 539/619/469 541/617/469 542/620/469
f 544/621/470 548/622/470 550/623/470
f 545/624/471 548/625/471 547/626/471
f 546/627/472 548/625/472 549/628/472
f 551/629/473 555/630/473 557/631/473
f 552/632/474 555/633/474 554/634/474
f 553/635/475 555/633/475 556/636/475
f 558/637/476 562/638/476 564/639/476
f 559/640/477 562/641/477 561/642/477
f 560/643/478 562/641/478 563/644/478
f 469/537/479 484/554/479 473/645/479
f 473/533/480 481/549/480 467/531/480
f 490/563/481 477/545/481 494/646/481
f 494/559/482 474/540/482 488/557/482
f 468/534/483 479/548/483 472/647/483
f 479/648/484 469/537/484 472/539/484
f 483/555/485 493/564/485 489/560/485
f 493/564/486 482/552/486 490/563/486
f 496/568/487 487/649/487 483/555/487
f 487/551/488 495/565/488 481/549/488
f 504/579/489 491/562/489 508/650/489
f 508/575/490 488/557/490 502/573/490
f 497/571/491 507/580/491 503/576/491
f 507/580/492 496/568/492 504/579/492
f 510/584/493 501/651/493 497/571/493
f 501/567/494 509/581/494 495/565/494
f 518/595/495 505/578/495 522/652/495
f 522/591/496 502/573/496 516/589/496
f 511/587/497 521/596/497 517/592/497
f 521/596/498 510/584/498 518/595/498
f 511/587/499 526/602/499 515/653/499
f 526/654/500 509/581/500 515/583/500
f 517/592/501 536/655/501 532/611/501
f 519/656/502 530/605/502 536/607/502
f 525/603/503 535/612/503 531/608/503
f 535/612/504 524/600/504 532/611/504
f 538/616/505 529/657/505 525/603/505
f 540/658/506 523/597/506 529/599/506
f 546/627/507 533/610/507 550/659/507
f 533/660/508 544/621/508 550/623/508
f 539/619/509 549/628/509 545/624/509
f 549/628/510 538/616/510 546/627/510
f 552/632/511 543/661/511 539/619/511
f 543/615/512 551/629/512 537/613/512
f 560/643/513 547/626/513 564/662/513
f 547/663/514 558/637/514 564/639/514
f 553/635/515 563/644/515 559/640/515
f 563/644/516 552/632/516 560/643/516
f 468/534/517 557/664/517 553/635/517
f 557/631/518 467/531/518 551/629/518
f 476/546/519 561/642/519 480/665/519
f 480/542/520 558/637/520 474/540/520
f 481/549/521 509/581/521 537/613/521
f 469/537/522 490/563/522 482/552/522
f 553/635/523 476/546/523 468/534/523
f 474/540/524 544/621/524 516/589/524
f 483/555/525 504/579/525 496/568/525
f 497/571/526 518/595/526 510/584/526
f 511/587/527 532/611/527 524/600/527
f 525/603/528 546/627/528 538/616/528
f 539/619/529 560/643/529 552/632/529
f 565/520/530 569/666/530 571/455/530
f 566/457/531 569/458/531 568/459/531
f 571/516/532 570/462/532 567/460/532
f 572/463/533 576/464/533 578/465/533
f 573/468/534 576/667/534 575/467/534
f 578/668/535 577/471/535 574/469/535
f 579/522/536 583/669/536 585/473/536
f 584/479/537 582/477/537 580/670/537
f 581/523/538 583/476/538 584/479/538
f 586/482/539 590/671/539 592/481/539
f 587/525/540 590/484/540 589/485/540
f 592/518/541 591/487/541 588/672/541
f 593/490/542 597/492/542 599/489/542
f 598/494/543 596/488/543 594/491/543
f 595/493/544 597/492/544 598/494/544
f 600/673/545 604/499/545 606/496/545
f 601/498/546 604/499/546 603/495/546
f 606/496/547 605/501/547 602/674/547
f 607/529/548 611/506/548 613/503/548
f 608/505/549 611/506/549 610/502/549
f 613/503/550 612/508/550 609/507/550
f 614/511/551 618/513/551 620/510/551
f 619/515/552 617/509/552 615/512/552
f 616/675/553 618/513/553 619/515/553
f 565/520/554 582/472/554 579/522/554
f 582/477/555 567/460/555 580/670/555
f 572/463/556 570/517/556 566/457/556
f 578/668/557 567/460/557 570/462/557
f 586/482/558 577/466/558 573/468/558
f 577/471/559 588/672/559 574/469/559
f 581/523/560 591/487/560 587/525/560
f 591/487/561 580/670/561 588/672/561
f 607/529/562 585/473/562 610/502/562
f 610/502/563 581/523/563 608/505/563
f 614/511/564 589/480/564 586/482/564
f 620/510/565 587/525/565 589/485/565
f 615/512/566 612/508/566 619/515/566
f 619/515/567 608/505/567 616/675/567
f 593/490/568 613/503/568 596/488/568
f 613/503/569 594/491/569 596/488/569
f 600/673/570 617/509/570 614/511/570
f 606/496/571 615/512/571 617/509/571
f 601/498/572 598/494/572 605/501/572
f 598/494/573 602/674/573 605/501/573
f 593/490/574 568/454/574 565/520/574
f 599/489/575 566/457/575 568/459/575
f 600/673/576 575/467/576 603/495/576
f 575/530/577 601/498/577 603/495/577
f 607/529/578 565/520/578 579/522/578
f 567/460/579 588/672/579 580/670/579
f 601/498/580 566/457/580 595/493/580
f 586/482/581 600/673/581 614/511/581
f 581/523/582 616/675/582 608/505/582
f 615/512/583 594/491/583 609/507/583
f 8/1/1 9/14/1 3/2/1
f 9/4/2 7/16/2 1/5/2
f 5/7/3 6/676/3 12/8/3
f 12/10/4 6/106/4 4/11/4
f 14/13/5 15/22/5 9/14/5
f 9/4/6 15/24/6 13/15/6
f 11/9/7 12/8/7 18/17/7
f 12/10/8 10/12/8 16/19/8
f 20/21/9 21/30/9 15/22/9
f 21/23/10 19/32/10 13/15/10
f 17/18/11 18/17/11 24/25/11
f 24/27/12 18/20/12 16/19/12
f 20/21/13 26/37/13 27/29/13
f 27/31/14 25/40/14 19/32/14
f 23/26/15 24/25/15 30/33/15
f 24/27/16 22/28/16 28/35/16
f 26/37/17 32/46/17 33/38/17
f 33/39/18 31/48/18 25/40/18
f 29/34/19 30/33/19 36/41/19
f 30/36/20 28/35/20 34/43/20
f 38/45/21 39/54/21 33/38/21
f 39/47/22 37/56/22 31/48/22
f 35/42/23 36/41/23 42/49/23
f 42/51/24 36/44/24 34/43/24
f 44/53/25 45/62/25 39/54/25
f 45/55/26 43/64/26 37/56/26
f 47/57/27 41/50/27 42/49/27
f 42/51/28 40/52/28 46/59/28
f 44/53/29 50/70/29 51/61/29
f 51/63/30 49/72/30 43/64/30
f 47/57/31 48/58/31 54/65/31
f 48/60/32 46/59/32 52/67/32
f 56/69/33 57/78/33 51/61/33
f 57/71/34 55/80/34 49/72/34
f 53/66/35 54/65/35 60/73/35
f 60/75/36 54/68/36 52/67/36
f 62/77/37 63/86/37 57/78/37
f 63/79/38 61/88/38 55/80/38
f 59/74/39 60/73/39 66/81/39
f 60/75/40 58/76/40 64/83/40
f 62/77/41 68/94/41 69/85/41
f 69/87/42 67/96/42 61/88/42
f 65/82/43 66/81/43 72/89/43
f 66/84/44 64/83/44 70/91/44
f 74/93/45 75/102/45 69/85/45
f 75/95/46 73/103/46 67/96/46
f 71/90/47 72/89/47 78/97/47
f 72/92/48 70/91/48 76/99/48
f 2/101/49 3/677/49 75/102/49
f 75/95/50 3/6/50 1/5/50
f 77/98/51 78/97/51 6/104/51
f 78/100/52 76/99/52 4/11/52
f 73/103/53 1/5/53 7/16/53
f 7/16/53 13/15/53 19/32/53
f 19/32/53 25/40/53 31/48/53
f 31/48/53 37/56/53 43/64/53
f 43/64/53 49/72/53 55/80/53
f 55/80/53 61/88/53 67/96/53
f 67/96/53 73/103/53 7/16/53
f 7/16/53 19/32/53 31/48/53
f 31/48/53 43/64/53 55/80/53
f 55/80/53 67/96/53 7/16/53
f 5/7/54 11/9/54 8/1/54
f 77/98/55 5/105/55 2/101/55
f 16/19/56 10/12/56 4/11/56
f 4/11/56 76/99/56 70/91/56
f 70/91/56 64/83/56 58/76/56
f 58/76/56 52/67/56 46/59/56
f 46/59/56 40/52/56 34/43/56
f 34/43/56 28/35/56 22/28/56
f 22/28/56 16/19/56 4/11/56
f 4/11/56 70/91/56 58/76/56
f 58/76/56 46/59/56 34/43/56
f 34/43/56 22/28/56 4/11/56
f 8/1/57 11/9/57 17/18/57
f 17/18/58 23/26/58 20/21/58
f 20/21/59 23/26/59 29/34/59
f 29/34/60 35/42/60 32/46/60
f 35/42/61 41/50/61 38/45/61
f 41/50/62 47/57/62 44/53/62
f 47/57/63 53/66/63 50/70/63
f 53/66/64 59/74/64 56/69/64
f 59/74/65 65/82/65 62/77/65
f 62/77/66 65/82/66 71/90/66
f 68/94/67 71/90/67 77/98/67
f 86/107/68 87/120/68 81/108/68
f 87/110/69 85/122/69 79/111/69
f 89/113/70 83/207/70 84/114/70
f 84/116/71 82/206/71 88/117/71
f 92/119/72 93/128/72 87/120/72
f 93/121/73 91/130/73 85/122/73
f 95/123/74 89/113/74 90/115/74
f 90/118/75 88/117/75 94/125/75
f 98/127/76 99/136/76 93/128/76
f 99/129/77 97/138/77 91/130/77
f 101/131/78 95/123/78 96/124/78
f 96/126/79 94/125/79 100/133/79
f 104/135/80 105/29/80 99/136/80
f 105/137/81 103/144/81 97/138/81
f 101/131/82 102/132/82 108/33/82
f 102/134/83 100/133/83 106/140/83
f 110/142/84 111/38/84 105/29/84
f 111/143/85 109/151/85 103/144/85
f 107/139/86 108/33/86 114/145/86
f 108/141/87 106/140/87 112/147/87
f 116/149/88 117/54/88 111/38/88
f 117/150/89 115/158/89 109/151/89
f 119/152/90 113/146/90 114/145/90
f 120/154/91 114/148/91 112/147/91
f 122/156/92 123/62/92 117/54/92
f 117/150/93 123/164/93 121/157/93
f 119/152/94 120/153/94 126/159/94
f 120/154/95 118/155/95 124/161/95
f 128/163/96 129/171/96 123/62/96
f 123/164/97 129/173/97 127/165/97
f 125/160/98 126/159/98 132/166/98
f 126/162/99 124/161/99 130/168/99
f 134/170/100 135/179/100 129/171/100
f 135/172/101 133/181/101 127/165/101
f 131/167/102 132/166/102 138/174/102
f 132/169/103 130/168/103 136/176/103
f 140/178/104 141/187/104 135/179/104
f 141/180/105 139/189/105 133/181/105
f 137/175/106 138/174/106 144/182/106
f 138/177/107 136/176/107 142/184/107
f 146/186/108 147/85/108 141/187/108
f 141/180/109 147/195/109 145/188/109
f 143/183/110 144/182/110 150/190/110
f 144/185/111 142/184/111 148/192/111
f 152/194/112 153/202/112 147/85/112
f 147/195/113 153/203/113 151/196/113
f 149/191/114 150/190/114 156/197/114
f 150/193/115 148/192/115 154/199/115
f 80/201/116 81/678/116 153/202/116
f 81/112/117 79/111/117 151/196/117
f 155/198/118 156/197/118 84/204/118
f 156/200/119 154/199/119 82/206/119
f 151/196/120 79/111/120 85/122/120
f 85/122/120 91/130/120 97/138/120
f 97/138/120 103/144/120 109/151/120
f 109/151/120 115/158/120 121/157/120
f 121/157/120 127/165/120 133/181/120
f 133/181/120 139/189/120 145/188/120
f 145/188/120 151/196/120 85/122/120
f 85/122/120 97/138/120 109/151/120
f 109/151/120 121/157/120 133/181/120
f 133/181/120 145/188/120 85/122/120
f 83/207/121 89/113/121 86/107/121
f 155/198/122 83/205/122 80/201/122
f 94/125/123 88/117/123 82/206/123
f 82/206/123 154/199/123 148/192/123
f 148/192/123 142/184/123 136/176/123
f 136/176/123 130/168/123 124/161/123
f 124/161/123 118/155/123 112/147/123
f 112/147/123 106/140/123 100/133/123
f 100/133/123 94/125/123 82/206/123
f 82/206/123 148/192/123 136/176/123
f 136/176/123 124/161/123 112/147/123
f 112/147/123 100/133/123 82/206/123
f 89/113/124 95/123/124 92/119/124
f 95/123/125 101/131/125 98/127/125
f 101/131/126 107/139/126 104/135/126
f 104/135/127 107/139/127 113/146/127
f 113/146/128 119/152/128 116/149/128
f 119/152/129 125/160/129 122/156/129
f 125/160/130 131/167/130 128/163/130
f 131/167/131 137/175/131 134/170/131
f 137/175/132 143/183/132 140/178/132
f 143/183/133 149/191/133 146/186/133
f 149/191/134 155/198/134 152/194/134
f 164/208/135 165/14/135 159/209/135
f 165/211/136 163/222/136 157/212/136
f 161/214/137 162/679/137 168/215/137
f 168/217/138 162/302/138 160/218/138
f 170/220/139 171/128/139 165/14/139
f 171/221/140 169/229/140 163/222/140
f 167/216/141 168/215/141 174/223/141
f 168/217/142 166/219/142 172/225/142
f 176/227/143 177/234/143 171/128/143
f 177/228/144 175/236/144 169/229/144
f 173/224/145 174/223/145 180/132/145
f 174/226/146 172/225/146 178/231/146
f 182/233/147 183/241/147 177/234/147
f 177/228/584 183/242/584 181/235/584
f 185/237/149 179/230/149 180/132/149
f 186/238/150 180/232/150 178/231/150
f 188/240/151 189/38/151 183/241/151
f 183/242/152 189/248/152 187/243/152
f 191/244/153 185/237/153 186/33/153
f 192/245/154 186/238/154 184/239/154
f 194/247/155 195/255/155 189/38/155
f 189/248/156 195/256/156 193/249/156
f 197/250/157 191/244/157 192/41/157
f 192/245/158 190/246/158 196/252/158
f 200/254/159 201/262/159 195/255/159
f 195/256/160 201/264/160 199/257/160
f 197/250/161 198/251/161 204/58/161
f 198/253/162 196/252/162 202/259/162
f 206/261/163 207/61/163 201/262/163
f 207/263/164 205/271/164 199/257/164
f 203/258/165 204/58/165 210/265/165
f 204/260/166 202/259/166 208/267/166
f 206/261/167 212/276/167 213/269/167
f 213/270/168 211/278/168 205/271/168
f 209/266/169 210/265/169 216/174/169
f 210/268/170 208/267/170 214/273/170
f 218/275/171 219/284/171 213/269/171
f 219/277/172 217/286/172 211/278/172
f 215/272/173 216/174/173 222/279/173
f 216/274/174 214/273/174 220/281/174
f 224/283/175 225/292/175 219/284/175
f 225/285/176 223/294/176 217/286/176
f 221/280/177 222/279/177 228/287/177
f 228/289/178 222/282/178 220/281/178
f 224/283/179 230/295/179 231/291/179
f 231/293/180 229/300/180 223/294/180
f 233/295/181 227/288/181 228/287/181
f 228/289/182 226/290/182 232/297/182
f 158/299/183 159/680/183 231/291/183
f 231/293/184 159/213/184 157/212/184
f 161/299/185 233/295/185 234/296/185
f 234/298/186 232/297/186 160/218/186
f 229/300/187 157/212/187 163/222/187
f 163/222/187 169/229/187 175/236/187
f 175/236/187 181/235/187 187/243/187
f 187/243/187 193/249/187 199/257/187
f 199/257/187 205/271/187 211/278/187
f 211/278/187 217/286/187 223/294/187
f 223/294/187 229/300/187 163/222/187
f 163/222/187 175/236/187 187/243/187
f 187/243/187 199/257/187 211/278/187
f 211/278/187 223/294/187 163/222/187
f 158/210/188 161/214/188 167/216/188
f 230/295/188 233/295/188 161/299/188
f 172/225/189 166/219/189 160/218/189
f 160/218/189 232/297/189 226/290/189
f 226/290/189 220/281/189 214/273/189
f 214/273/189 208/267/189 202/259/189
f 202/259/189 196/252/189 190/246/189
f 190/246/189 184/239/189 178/231/189
f 178/231/189 172/225/189 160/218/189
f 160/218/189 226/290/189 214/273/189
f 214/273/189 202/259/189 190/246/189
f 190/246/189 178/231/189 160/218/189
f 164/208/188 167/216/188 173/224/188
f 170/220/188 173/224/188 179/230/188
f 176/227/188 179/230/188 185/237/188
f 182/233/585 185/237/585 191/244/585
f 188/240/188 191/244/188 197/250/188
f 197/250/191 203/258/191 200/254/191
f 200/254/188 203/258/188 209/266/188
f 206/261/188 209/266/188 215/272/188
f 215/272/586 221/280/586 218/275/586
f 218/275/587 221/280/587 227/288/587
f 224/283/588 227/288/588 233/295/588
f 284/216/275 285/378/275 279/366/275
f 279/368/276 285/379/276 283/369/276
f 287/371/277 281/367/277 282/372/277
f 282/374/278 280/453/278 286/375/278
f 290/377/279 291/385/279 285/378/279
f 285/379/280 291/386/280 289/380/280
f 287/371/281 288/373/281 294/223/281
f 294/382/282 288/376/282 286/375/282
f 296/384/283 297/136/283 291/385/283
f 291/386/284 297/393/284 295/387/284
f 299/230/285 293/381/285 294/223/285
f 300/389/286 294/382/286 292/383/286
f 302/391/287 303/398/287 297/136/287
f 303/392/288 301/400/288 295/387/288
f 299/230/289 300/388/289 306/394/289
f 306/395/290 300/389/290 298/390/290
f 308/397/291 309/38/291 303/398/291
f 303/392/292 309/406/292 307/399/292
f 305/391/293 306/394/293 312/401/293
f 306/395/294 304/396/294 310/403/294
f 314/405/295 315/255/295 309/38/295
f 309/406/296 315/411/296 313/407/296
f 311/402/297 312/401/297 318/49/297
f 312/404/298 310/403/298 316/408/298
f 320/410/299 321/416/299 315/255/299
f 315/411/300 321/418/300 319/412/300
f 317/405/301 318/49/301 324/159/301
f 318/409/302 316/408/302 322/413/302
f 326/415/303 327/423/303 321/416/303
f 327/417/304 325/425/304 319/412/304
f 323/410/305 324/159/305 330/65/305
f 324/414/306 322/413/306 328/420/306
f 332/422/307 333/78/307 327/423/307
f 333/424/308 331/431/308 325/425/308
f 335/422/309 329/419/309 330/65/309
f 330/421/310 328/420/310 334/427/310
f 338/429/311 339/436/311 333/78/311
f 339/430/312 337/438/312 331/431/312
f 335/422/313 336/426/313 342/279/313
f 336/428/314 334/427/314 340/433/314
f 344/435/315 345/444/315 339/436/315
f 339/430/316 345/445/316 343/437/316
f 341/432/317 342/279/317 348/439/317
f 342/434/318 340/433/318 346/441/318
f 350/443/319 351/450/319 345/444/319
f 345/445/320 351/451/320 349/446/320
f 353/295/321 347/440/321 348/439/321
f 348/442/322 346/441/322 352/447/322
f 278/449/323 279/681/323 351/450/323
f 279/368/324 277/370/324 349/446/324
f 353/295/325 354/97/325 282/452/325
f 354/448/326 352/447/326 280/453/326
f 349/446/327 277/370/327 283/369/327
f 283/369/327 289/380/327 295/387/327
f 295/387/589 301/400/589 307/399/589
f 307/399/327 313/407/327 319/412/327
f 319/412/327 325/425/327 331/431/327
f 331/431/327 337/438/327 343/437/327
f 343/437/327 349/446/327 283/369/327
f 283/369/327 295/387/327 307/399/327
f 307/399/327 319/412/327 331/431/327
f 331/431/327 343/437/327 283/369/327
f 278/367/188 281/367/188 287/371/188
f 350/443/188 353/295/188 281/449/188
f 292/383/328 286/375/328 280/453/328
f 280/453/328 352/447/328 346/441/328
f 346/441/328 340/433/328 334/427/328
f 334/427/328 328/420/328 322/413/328
f 322/413/328 316/408/328 310/403/328
f 310/403/328 304/396/328 298/390/328
f 298/390/328 292/383/328 280/453/328
f 280/453/328 346/441/328 334/427/328
f 334/427/328 322/413/328 310/403/328
f 310/403/328 298/390/328 280/453/328
f 284/216/188 287/371/188 293/381/188
f 290/377/188 293/381/188 299/230/188
f 296/384/188 299/230/188 305/391/188
f 302/391/188 305/391/188 311/402/188
f 308/397/188 311/402/188 317/405/188
f 314/405/188 317/405/188 323/410/188
f 320/410/188 323/410/188 329/419/188
f 326/415/188 329/419/188 335/422/188
f 332/422/188 335/422/188 341/432/188
f 338/429/188 341/432/188 347/440/188
f 344/435/188 347/440/188 353/295/188
f 358/454/590 359/666/590 361/455/590
f 356/457/591 360/517/591 359/458/591
f 357/460/592 361/516/592 359/461/592
f 362/463/593 365/530/593 366/464/593
f 367/466/594 366/667/594 365/467/594
f 364/469/595 368/668/595 366/470/595
f 372/472/596 373/669/596 375/473/596
f 370/475/597 374/479/597 373/476/597
f 371/478/598 375/519/598 373/476/598
f 379/480/599 380/671/599 382/481/599
f 377/483/600 381/487/600 380/484/600
f 378/486/601 382/518/601 380/484/601
f 386/488/602 387/492/602 389/489/602
f 384/491/603 388/494/603 387/492/603
f 385/493/604 389/489/604 387/492/604
f 393/495/605 394/499/605 396/496/605
f 391/498/606 395/501/606 394/499/606
f 392/500/607 396/496/607 394/499/607
f 400/502/608 401/506/608 403/503/608
f 398/505/609 402/508/609 401/506/609
f 399/507/610 403/503/610 401/506/610
f 407/509/611 408/513/611 410/510/611
f 405/512/612 409/515/612 408/513/612
f 406/514/613 410/510/613 408/513/613
f 355/456/353 361/455/353 372/472/353
f 361/516/354 357/460/354 370/475/354
f 362/463/355 368/465/355 360/517/355
f 360/462/356 368/668/356 364/469/356
f 363/468/614 376/482/614 382/481/614
f 382/518/358 378/486/358 364/469/358
f 371/478/615 374/479/615 381/487/615
f 381/487/616 374/479/616 370/475/616
f 397/504/617 369/474/617 375/473/617
f 375/519/362 371/478/362 398/505/362
f 376/482/363 404/511/363 410/510/363
f 410/510/364 406/514/364 377/483/364
f 405/512/365 399/507/365 402/508/365
f 409/515/366 402/508/366 398/505/366
f 397/504/367 403/503/367 386/488/367
f 386/488/368 403/503/368 399/507/368
f 390/497/618 396/496/618 407/509/618
f 396/496/619 392/500/619 405/512/619
f 385/493/371 388/494/371 395/501/371
f 395/501/620 388/494/620 384/491/620
f 383/490/373 389/489/373 358/454/373
f 389/489/374 385/493/374 356/457/374
f 390/497/375 363/468/375 365/467/375
f 393/495/376 365/530/376 362/463/376
f 397/504/377 383/490/377 355/456/377
f 364/469/378 378/486/378 370/475/378
f 391/498/379 362/463/379 356/457/379
f 404/511/380 376/482/380 363/468/380
f 377/483/381 406/514/381 398/505/381
f 405/512/382 392/500/382 384/491/382
f 414/454/621 415/666/621 417/455/621
f 412/457/622 416/517/622 415/458/622
f 413/460/623 417/516/623 415/461/623
f 418/463/624 421/530/624 422/464/624
f 423/466/625 422/667/625 421/467/625
f 420/469/626 424/668/626 422/470/626
f 428/472/627 429/669/627 431/473/627
f 426/475/628 430/524/628 429/476/628
f 427/523/629 431/519/629 429/476/629
f 435/480/630 436/671/630 438/481/630
f 433/525/631 437/487/631 436/484/631
f 434/486/632 438/518/632 436/484/632
f 442/488/633 443/492/633 445/489/633
f 440/526/634 444/494/634 443/492/634
f 441/527/635 445/489/635 443/492/635
f 449/495/636 450/499/636 452/496/636
f 447/528/637 451/501/637 450/499/637
f 448/500/638 452/496/638 450/499/638
f 456/502/639 457/506/639 459/503/639
f 454/505/640 458/508/640 457/506/640
f 455/507/641 459/503/641 457/506/641
f 463/509/642 464/513/642 466/510/642
f 461/512/643 465/515/643 464/513/643
f 462/514/644 466/510/644 464/513/644
f 425/522/645 411/520/645 417/455/645
f 417/516/646 413/460/646 426/475/646
f 412/457/409 418/463/409 424/465/409
f 416/462/410 424/668/410 420/469/410
f 419/521/647 432/482/647 438/481/647
f 423/471/648 438/518/648 434/486/648
f 427/523/649 430/524/649 437/487/649
f 430/524/414 426/475/414 434/486/414
f 425/522/650 431/473/650 456/502/650
f 456/502/416 431/519/416 427/523/416
f 460/511/417 466/510/417 435/480/417
f 435/485/418 466/510/418 462/514/418
f 455/507/651 458/508/651 465/515/651
f 458/508/420 454/505/420 462/514/420
f 453/529/652 459/503/652 442/488/652
f 442/488/653 459/503/653 455/507/653
f 446/497/423 452/496/423 463/509/423
f 452/496/654 448/500/654 461/512/654
f 441/527/655 444/494/655 451/501/655
f 451/501/656 444/494/656 440/526/656
f 411/520/657 439/490/657 445/489/657
f 445/489/428 441/527/428 412/457/428
f 446/497/429 419/521/429 421/467/429
f 421/530/430 418/463/430 447/528/430
f 453/529/431 439/490/431 411/520/431
f 420/469/432 434/486/432 426/475/432
f 447/528/433 418/463/433 412/457/433
f 460/511/434 432/482/434 419/521/434
f 433/525/435 462/514/435 454/505/435
f 455/507/436 461/512/436 448/500/436
f 467/531/658 470/682/658 471/532/658
f 468/534/659 472/647/659 471/535/659
f 469/537/660 473/645/660 471/538/660
f 474/540/661 477/683/661 478/541/661
f 475/543/662 479/648/662 478/544/662
f 476/546/663 480/665/663 478/547/663
f 481/549/664 484/684/664 485/550/664
f 482/552/665 486/556/665 485/553/665
f 483/555/666 487/649/666 485/553/666
f 488/557/667 491/685/667 492/558/667
f 489/560/668 493/564/668 492/561/668
f 490/563/669 494/646/669 492/561/669
f 495/565/670 498/686/670 499/566/670
f 496/568/671 500/572/671 499/569/671
f 497/571/672 501/651/672 499/569/672
f 502/573/673 505/687/673 506/574/673
f 503/576/674 507/580/674 506/577/674
f 504/579/675 508/650/675 506/577/675
f 509/581/676 512/688/676 513/582/676
f 510/584/677 514/588/677 513/585/677
f 511/587/678 515/653/678 513/585/678
f 516/589/679 519/656/679 520/590/679
f 517/592/680 521/596/680 520/593/680
f 518/595/681 522/652/681 520/593/681
f 523/597/682 526/654/682 527/598/682
f 524/600/683 528/604/683 527/601/683
f 525/603/684 529/657/684 527/601/684
f 530/605/685 533/660/685 534/606/685
f 531/608/686 535/612/686 534/609/686
f 532/611/687 536/655/687 534/609/687
f 537/613/688 540/658/688 541/614/688
f 538/616/689 542/620/689 541/617/689
f 539/619/690 543/661/690 541/617/690
f 544/621/691 547/663/691 548/622/691
f 545/624/692 549/628/692 548/625/692
f 546/627/693 550/659/693 548/625/693
f 551/629/694 554/689/694 555/630/694
f 552/632/695 556/636/695 555/633/695
f 553/635/696 557/664/696 555/633/696
f 558/637/697 561/690/697 562/638/697
f 559/640/698 563/644/698 562/641/698
f 560/643/699 564/662/699 562/641/699
f 469/537/479 482/552/479 484/554/479
f 473/533/480 484/684/480 481/549/480
f 490/563/188 475/543/188 477/545/188
f 494/559/482 477/683/482 474/540/482
f 468/534/483 476/546/483 479/548/483
f 479/648/484 475/543/484 469/537/484
f 483/555/485 486/556/485 493/564/485
f 493/564/486 486/556/486 482/552/486
f 496/568/487 498/570/487 487/649/487
f 487/551/488 498/686/488 495/565/488
f 504/579/188 489/560/188 491/562/188
f 508/575/490 491/685/490 488/557/490
f 497/571/491 500/572/491 507/580/491
f 507/580/492 500/572/492 496/568/492
f 510/584/493 512/586/493 501/651/493
f 501/567/494 512/688/494 509/581/494
f 518/595/188 503/576/188 505/578/188
f 522/591/496 505/687/496 502/573/496
f 511/587/497 514/588/497 521/596/497
f 521/596/498 514/588/498 510/584/498
f 511/587/499 524/600/499 526/602/499
f 526/654/500 523/597/500 509/581/500
f 517/592/700 519/594/700 536/655/700
f 519/656/701 516/589/701 530/605/701
f 525/603/503 528/604/503 535/612/503
f 535/612/504 528/604/504 524/600/504
f 538/616/505 540/618/505 529/657/505
f 540/658/506 537/613/506 523/597/506
f 546/627/188 531/608/188 533/610/188
f 533/660/508 530/605/508 544/621/508
f 539/619/702 542/620/702 549/628/702
f 549/628/510 542/620/510 538/616/510
f 552/632/511 554/634/511 543/661/511
f 543/615/512 554/689/512 551/629/512
f 560/643/703 545/624/703 547/626/703
f 547/663/514 544/621/514 558/637/514
f 553/635/515 556/636/515 563/644/515
f 563/644/516 556/636/516 552/632/516
f 468/534/517 470/536/517 557/664/517
f 557/631/518 470/682/518 467/531/518
f 476/546/704 559/640/704 561/642/704
f 480/542/520 561/690/520 558/637/520
f 551/629/705 467/531/705 481/549/705
f 481/549/521 495/565/521 509/581/521
f 509/581/705 523/597/705 537/613/705
f 537/613/521 551/629/521 481/549/521
f 469/537/188 475/543/188 490/563/188
f 553/635/706 559/640/706 476/546/706
f 502/573/524 488/557/524 474/540/524
f 474/540/524 558/637/524 544/621/524
f 544/621/524 530/605/524 516/589/524
f 516/589/524 502/573/524 474/540/524
f 483/555/188 489/560/188 504/579/188
f 497/571/707 503/576/707 518/595/707
f 511/587/191 517/592/191 532/611/191
f 525/603/188 531/608/188 546/627/188
f 539/619/191 545/624/191 560/643/191
f 565/520/708 568/454/708 569/666/708
f 566/457/709 570/517/709 569/458/709
f 571/516/710 569/461/710 570/462/710
f 572/463/711 575/530/711 576/464/711
f 573/468/712 577/466/712 576/667/712
f 578/668/713 576/470/713 577/471/713
f 579/522/714 582/472/714 583/669/714
f 584/479/715 583/476/715 582/477/715
f 581/523/716 585/519/716 583/476/716
f 586/482/717 589/480/717 590/671/717
f 587/525/718 591/487/718 590/484/718
f 592/518/719 590/484/719 591/487/719
f 593/490/720 596/488/720 597/492/720
f 598/494/721 597/492/721 596/488/721
f 595/493/722 599/489/722 597/492/722
f 600/673/723 603/495/723 604/499/723
f 601/498/724 605/501/724 604/499/724
f 606/496/725 604/499/725 605/501/725
f 607/529/726 610/502/726 611/506/726
f 608/505/727 612/508/727 611/506/727
f 613/503/728 611/506/728 612/508/728
f 614/511/729 617/509/729 618/513/729
f 619/515/730 618/513/730 617/509/730
f 616/675/731 620/510/731 618/513/731
f 565/520/554 571/455/554 582/472/554
f 582/477/732 571/516/732 567/460/732
f 572/463/733 578/465/733 570/517/733
f 578/668/557 574/469/557 567/460/557
f 586/482/558 592/481/558 577/466/558
f 577/471/734 592/518/734 588/672/734
f 581/523/560 584/479/560 591/487/560
f 591/487/561 584/479/561 580/670/561
f 607/529/562 579/522/562 585/473/562
f 610/502/735 585/519/735 581/523/735
f 614/511/736 620/510/736 589/480/736
f 620/510/565 616/675/565 587/525/565
f 615/512/566 609/507/566 612/508/566
f 619/515/567 612/508/567 608/505/567
f 593/490/568 607/529/568 613/503/568
f 613/503/737 609/507/737 594/491/737
f 600/673/570 606/496/570 617/509/570
f 606/496/738 602/674/738 615/512/738
f 601/498/572 595/493/572 598/494/572
f 598/494/573 594/491/573 602/674/573
f 593/490/739 599/489/739 568/454/739
f 599/489/575 595/493/575 566/457/575
f 600/673/740 573/468/740 575/467/740
f 575/530/577 572/463/577 601/498/577
f 607/529/578 593/490/578 565/520/578
f 567/460/579 574/469/579 588/672/579
f 601/498/580 572/463/580 566/457/580
f 586/482/581 573/468/581 600/673/581
f 581/523/582 587/525/582 616/675/582
f 615/512/583 602/674/583 594/491/583
