# Blender 4.5.10 LTS
# www.blender.org
mtllib grove_heartwood_knot.mtl
o grove_heartwood_knot
v 0.008686 -0.124003 0.006524
v -0.075247 -0.054093 -0.054441
v 0.039720 -0.053299 -0.091897
v 0.110861 -0.051830 0.005867
v 0.039861 -0.051717 0.103745
v -0.075160 -0.053115 0.066472
v -0.024945 0.061290 -0.092777
v 0.090076 0.062688 -0.055504
v 0.090163 0.063666 0.065409
v -0.024804 0.062872 0.102866
v -0.095946 0.061403 0.005101
v 0.006230 0.133577 0.004444
v 0.027143 -0.105056 -0.051144
v -0.040433 -0.105523 -0.029127
v -0.022192 -0.063963 -0.086978
v -0.089716 -0.063855 0.006109
v -0.040382 -0.104948 0.041943
v 0.068959 -0.104193 0.006321
v 0.087200 -0.062634 -0.051530
v 0.027226 -0.104126 0.063852
v 0.087283 -0.061704 0.063466
v -0.022058 -0.062459 0.099088
v -0.101934 0.003457 -0.029964
v -0.101883 0.004031 0.041107
v 0.007375 0.003857 -0.109512
v -0.060201 0.003390 -0.087496
v 0.116799 0.005542 -0.030138
v 0.074983 0.004679 -0.087604
v 0.075117 0.006183 0.098464
v 0.116850 0.006116 0.040932
v -0.060067 0.004894 0.098572
v 0.007541 0.005716 0.120480
v -0.072367 0.071277 -0.052497
v 0.036974 0.072032 -0.088120
v 0.104632 0.073428 0.004859
v 0.037108 0.073536 0.097946
v -0.072285 0.072207 0.062498
v -0.012310 0.113699 -0.052883
v -0.054043 0.113766 0.004647
v 0.055297 0.114521 -0.030975
v 0.055348 0.115096 0.040095
v -0.012227 0.114629 0.062112
v -0.056397 -0.057220 0.012294
v -0.118061 -0.011327 -0.032959
v -0.032157 -0.012790 -0.061155
v 0.021209 -0.013248 0.011843
v -0.031714 -0.012069 0.085154
v -0.117788 -0.010882 0.057464
v -0.078565 0.061009 -0.061378
v 0.007508 0.059822 -0.033689
v 0.007782 0.060267 0.056734
v -0.078123 0.061729 0.084931
v -0.131489 0.062187 0.011933
v -0.053883 0.106159 0.011482
v -0.042370 -0.045446 -0.030807
v -0.092863 -0.044587 -0.014234
v -0.078615 -0.018472 -0.057406
v -0.128948 -0.017350 0.012317
v -0.092702 -0.044325 0.038915
v -0.011002 -0.045716 0.012100
v 0.003246 -0.019601 -0.031072
v -0.042110 -0.045023 0.055191
v 0.003506 -0.019177 0.054926
v -0.078194 -0.017787 0.081742
v -0.137001 0.025599 -0.014446
v -0.136840 0.025860 0.038704
v -0.055400 0.024046 -0.074111
v -0.105894 0.024906 -0.057537
v 0.026561 0.023079 -0.014928
v -0.004807 0.023349 -0.057835
v -0.004386 0.024034 0.081313
v 0.026721 0.023341 0.038221
v -0.105473 0.025591 0.081611
v -0.054880 0.024893 0.097886
v -0.113786 0.068117 -0.031150
v -0.032085 0.066726 -0.057966
v 0.018668 0.066290 0.011459
v -0.031664 0.067411 0.081182
v -0.113526 0.068540 0.054848
v -0.068170 0.093963 -0.031415
v -0.099278 0.094655 0.011676
v -0.017577 0.093265 -0.015140
v -0.017417 0.093526 0.038009
v -0.067910 0.094386 0.054583
v 0.040473 -0.099278 -0.024968
v -0.009045 -0.057531 -0.062060
v 0.061234 -0.058464 -0.083907
v 0.103719 -0.059662 -0.023816
v 0.059696 -0.059470 0.035169
v -0.009995 -0.058152 0.011533
v 0.023598 0.007889 -0.083833
v 0.093289 0.006571 -0.060197
v 0.092339 0.005949 0.013396
v 0.022060 0.006883 0.035244
v -0.020425 0.008081 -0.024847
v 0.042821 0.047697 -0.023696
v 0.052470 -0.088191 -0.059723
v 0.011162 -0.087642 -0.046881
v 0.023364 -0.063652 -0.081525
v -0.018503 -0.063468 -0.025427
v 0.010603 -0.088007 -0.003625
v 0.077442 -0.088895 -0.024403
v 0.089645 -0.064905 -0.059046
v 0.051566 -0.088782 0.010268
v 0.088741 -0.065496 0.010945
v 0.021902 -0.064608 0.031723
v -0.024634 -0.024537 -0.046811
v -0.025192 -0.024903 -0.003554
v 0.042551 -0.025199 -0.094323
v 0.001242 -0.024651 -0.081482
v 0.108486 -0.026678 -0.045110
v 0.083515 -0.025974 -0.080431
v 0.082052 -0.026930 0.032818
v 0.107928 -0.027044 -0.001853
v -0.000220 -0.025607 0.031767
v 0.040743 -0.026382 0.045660
v -0.005447 0.013915 -0.059608
v 0.061392 0.013027 -0.080387
v 0.101797 0.011887 -0.023237
v 0.059930 0.012071 0.032862
v -0.006351 0.013324 0.010383
v 0.031728 0.037201 -0.058932
v 0.005852 0.037314 -0.024261
v 0.072691 0.036426 -0.045039
v 0.072133 0.036061 -0.001782
v 0.030824 0.036609 0.011059
v 0.006590 0.021665 -0.086623
v 0.006476 0.022170 -0.088835
v 0.006790 0.022598 -0.086761
v 0.006595 0.021678 -0.088129
v 0.006791 0.021887 -0.087877
v 0.006737 0.022338 -0.088227
v 0.006817 0.021981 -0.086662
v -0.007879 0.079886 -0.098562
v -0.008178 0.081043 -0.096630
v -0.007564 0.080314 -0.096487
v -0.008052 0.080569 -0.098054
v -0.007802 0.080563 -0.097766
v -0.007830 0.080872 -0.096587
v -0.007618 0.080053 -0.097954
v 0.000135 0.044309 0.057263
v 0.000336 0.045242 0.057126
v -0.000165 0.045467 0.059196
v 0.000363 0.044625 0.057224
v 0.000229 0.044908 0.058402
v 0.000151 0.045443 0.058590
v 0.000009 0.044783 0.058688
v -0.014633 0.103687 0.047256
v -0.014519 0.103182 0.049469
v -0.014019 0.102958 0.047399
v -0.014638 0.103675 0.048763
v -0.014364 0.103583 0.048513
v -0.014204 0.103159 0.048863
v -0.014284 0.103516 0.047299
v -0.021702 0.014602 -0.086780
v -0.022316 0.015332 -0.086923
v -0.021815 0.015108 -0.088993
v -0.022050 0.014774 -0.086823
v -0.021970 0.014707 -0.088037
v -0.022131 0.015131 -0.088388
v -0.021696 0.014615 -0.088287
v -0.036470 0.073980 -0.096787
v -0.036170 0.072823 -0.098720
v -0.036670 0.073047 -0.096650
v -0.036343 0.073506 -0.098212
v -0.036564 0.073382 -0.097926
v -0.036485 0.072847 -0.098114
v -0.036697 0.073665 -0.096748
v -0.028156 0.037246 0.057106
v -0.028456 0.038404 0.059038
v -0.028771 0.037976 0.056963
v -0.028283 0.037720 0.058530
v -0.028533 0.037727 0.058242
v -0.028717 0.038236 0.058430
v -0.028505 0.037418 0.057063
v -0.042924 0.096624 0.047099
v -0.043125 0.095691 0.047237
v -0.042811 0.096119 0.049311
v -0.043152 0.096309 0.047138
v -0.043126 0.096403 0.048353
v -0.043072 0.095952 0.048703
v -0.042930 0.096612 0.048605
v 0.059864 -0.043096 -0.103094
v 0.060091 -0.042560 -0.105092
v 0.060441 -0.042559 -0.103129
v 0.059928 -0.042990 -0.104489
v 0.060157 -0.042959 -0.104237
v 0.060336 -0.042610 -0.104514
v 0.060175 -0.042989 -0.103101
v 0.076323 0.003156 -0.108008
v 0.076564 0.003937 -0.106094
v 0.076674 0.003157 -0.106046
v 0.076491 0.003658 -0.107465
v 0.076659 0.003518 -0.107202
v 0.076738 0.003658 -0.106077
v 0.076568 0.003106 -0.107431
v 0.060373 -0.034613 0.032721
v 0.060950 -0.034075 0.032685
v 0.060614 -0.033832 0.034635
v 0.060684 -0.034506 0.032713
v 0.060674 -0.034334 0.033836
v 0.060854 -0.033954 0.034066
v 0.060446 -0.034333 0.034092
v 0.077073 0.012421 0.029720
v 0.076846 0.011884 0.031719
v 0.077182 0.011641 0.029769
v 0.077009 0.012314 0.031116
v 0.077176 0.012143 0.030871
v 0.077087 0.011763 0.031150
v 0.077247 0.012142 0.029737
v 0.036044 -0.034666 -0.103531
v 0.035934 -0.033886 -0.103579
v 0.036270 -0.034130 -0.105529
v 0.035870 -0.034387 -0.103548
v 0.035940 -0.034388 -0.104682
v 0.036030 -0.034008 -0.104961
v 0.036107 -0.034560 -0.104926
v 0.052744 0.012367 -0.106531
v 0.052503 0.011586 -0.108446
v 0.052167 0.011830 -0.106496
v 0.052670 0.012088 -0.107902
v 0.052443 0.012088 -0.107647
v 0.052262 0.011708 -0.107877
v 0.052433 0.012260 -0.106524
v 0.036552 -0.026183 0.032283
v 0.036793 -0.025402 0.034198
v 0.036443 -0.025403 0.032235
v 0.036626 -0.025903 0.033654
v 0.036457 -0.025764 0.033391
v 0.036549 -0.025352 0.033620
v 0.036378 -0.025904 0.032267
v 0.053252 0.020851 0.029283
v 0.052675 0.020314 0.029319
v 0.053026 0.020314 0.031281
v 0.052941 0.020744 0.029291
v 0.052959 0.020713 0.030426
v 0.052781 0.020364 0.030704
v 0.053189 0.020744 0.030678
v -0.056541 -0.057059 -0.078356
v -0.056427 -0.056186 -0.079914
v -0.056201 -0.056457 -0.078237
v -0.056462 -0.056694 -0.079498
v -0.056282 -0.056653 -0.079258
v -0.056222 -0.056268 -0.079414
v -0.056303 -0.056885 -0.078313
v -0.056115 -0.013960 -0.073134
v -0.056220 -0.013617 -0.071381
v -0.055890 -0.014231 -0.071457
v -0.056144 -0.013608 -0.072580
v -0.055965 -0.013724 -0.072366
v -0.055985 -0.013799 -0.071395
v -0.055910 -0.014042 -0.072634
v -0.064159 -0.075456 0.036572
v -0.063819 -0.074854 0.036691
v -0.064264 -0.075113 0.038325
v -0.063921 -0.075282 0.036615
v -0.064027 -0.075355 0.037581
v -0.063995 -0.075039 0.037855
v -0.064235 -0.075465 0.037771
v -0.063838 -0.032014 0.043547
v -0.063953 -0.032887 0.045104
v -0.063508 -0.032628 0.043470
v -0.063917 -0.032379 0.044689
v -0.063710 -0.032427 0.044474
v -0.063684 -0.032813 0.044635
v -0.063603 -0.032196 0.043533
v -0.079819 -0.056650 -0.079834
v -0.080149 -0.056036 -0.079757
v -0.079704 -0.055777 -0.081391
v -0.080054 -0.056468 -0.079820
v -0.079947 -0.056237 -0.080760
v -0.079974 -0.055851 -0.080922
v -0.079740 -0.056285 -0.080976
v -0.079498 -0.013208 -0.072859
v -0.079393 -0.013551 -0.074612
v -0.079838 -0.013810 -0.072977
v -0.079422 -0.013199 -0.074058
v -0.079630 -0.013309 -0.073868
v -0.079662 -0.013625 -0.074142
v -0.079736 -0.013382 -0.072902
v -0.087437 -0.075047 0.035094
v -0.087542 -0.074704 0.036847
v -0.087767 -0.074433 0.035171
v -0.087513 -0.075056 0.036293
v -0.087692 -0.074940 0.036079
v -0.087747 -0.074622 0.036347
v -0.087672 -0.074865 0.035108
v -0.087116 -0.031605 0.042069
v -0.087456 -0.032207 0.041950
v -0.087230 -0.032478 0.043627
v -0.087354 -0.031779 0.042026
v -0.087375 -0.032011 0.042971
v -0.087435 -0.032396 0.043127
v -0.087195 -0.031970 0.043211
vn -0.1045 -0.9344 -0.3405
vn -0.7278 -0.6281 -0.2752
vn 0.3048 -0.9295 -0.2078
vn 0.3051 -0.9260 0.2224
vn -0.1040 -0.9288 0.3557
vn -0.9125 -0.3092 -0.2679
vn -0.0229 -0.3062 -0.9517
vn 0.9023 -0.2923 -0.3169
vn 0.5844 -0.2866 0.7591
vn -0.5372 -0.2971 0.7894
vn -0.8032 -0.1247 -0.5825
vn 0.3074 -0.1171 -0.9443
vn 0.9947 -0.1029 0.0001
vn 0.3088 -0.1018 0.9457
vn -0.8024 -0.1153 0.5856
vn -0.4348 0.6095 -0.6630
vn 0.4874 0.6186 -0.6162
vn 0.7278 0.6281 0.2752
vn -0.0457 0.6248 0.7794
vn -0.7642 0.6133 0.1996
vn -0.3048 0.9295 0.2078
vn -0.5329 0.7579 0.3764
vn -0.4338 0.6201 0.6537
vn 0.1045 0.9344 0.3405
vn 0.1941 0.7667 0.6120
vn 0.4882 0.6285 0.6055
vn 0.3571 0.9340 -0.0078
vn 0.6428 0.7660 -0.0067
vn 0.7274 0.6236 -0.2864
vn 0.1040 0.9288 -0.3557
vn 0.1932 0.7567 -0.6246
vn -0.0468 0.6121 -0.7894
vn -0.3051 0.9260 -0.2224
vn -0.5334 0.7517 -0.3878
vn -0.7645 0.6100 -0.2084
vn -0.9023 0.2923 0.3169
vn -0.7987 0.1652 0.5787
vn -0.5833 0.2989 0.7552
vn 0.0229 0.3062 0.9517
vn 0.3037 0.1786 0.9359
vn 0.5383 0.3098 0.7838
vn 0.9125 0.3092 0.2679
vn 0.9841 0.1775 -0.0021
vn 0.9121 0.3048 -0.2742
vn 0.5372 0.2971 -0.7894
vn 0.3023 0.1634 -0.9391
vn 0.0215 0.2908 -0.9565
vn -0.5844 0.2866 -0.7591
vn -0.7995 0.1558 -0.5801
vn -0.9027 0.2871 -0.3203
vn -0.3074 0.1171 0.9443
vn -0.3023 -0.1634 0.9391
vn -0.0215 -0.2908 0.9565
vn 0.8032 0.1247 0.5825
vn 0.7995 -0.1558 0.5801
vn 0.9027 -0.2871 0.3203
vn 0.8024 0.1153 -0.5856
vn 0.7987 -0.1652 -0.5787
vn 0.5833 -0.2989 -0.7552
vn -0.3088 0.1018 -0.9457
vn -0.3037 -0.1786 -0.9359
vn -0.5383 -0.3098 -0.7838
vn -0.9947 0.1029 -0.0001
vn -0.9841 -0.1775 0.0021
vn -0.9121 -0.3048 0.2742
vn -0.4874 -0.6186 0.6162
vn -0.1932 -0.7567 0.6246
vn 0.0468 -0.6121 0.7894
vn 0.4348 -0.6095 0.6630
vn 0.5334 -0.7517 0.3878
vn 0.7645 -0.6100 0.2084
vn 0.7642 -0.6133 -0.1996
vn 0.5329 -0.7579 -0.3764
vn 0.4338 -0.6201 -0.6537
vn -0.7274 -0.6236 0.2864
vn -0.6428 -0.7660 0.0067
vn -0.3571 -0.9340 0.0078
vn 0.0457 -0.6248 -0.7794
vn -0.1941 -0.7667 -0.6120
vn -0.4882 -0.6285 -0.6055
vn -0.1133 -0.9485 -0.2959
vn -0.6954 -0.6713 -0.2565
vn 0.2408 -0.9533 -0.1820
vn 0.2419 -0.9515 0.1900
vn -0.1115 -0.9455 0.3059
vn -0.9057 -0.3331 -0.2621
vn -0.0328 -0.3499 -0.9362
vn 0.8781 -0.3609 -0.3141
vn 0.5681 -0.3508 0.7444
vn -0.5344 -0.3337 0.7766
vn -0.8056 -0.1226 -0.5796
vn 0.3014 -0.1415 -0.9429
vn 0.9891 -0.1474 -0.0023
vn 0.3071 -0.1322 0.9425
vn -0.8021 -0.1169 0.5856
vn -0.3909 0.6837 -0.6163
vn 0.4692 0.6706 -0.5745
vn 0.6954 0.6713 0.2565
vn -0.0250 0.6847 0.7284
vn -0.6964 0.6924 0.1890
vn -0.2408 0.9533 0.1820
vn -0.4616 0.8182 0.3426
vn -0.3872 0.6897 0.6119
vn 0.1133 0.9485 0.2959
vn 0.1956 0.8092 0.5540
vn 0.4727 0.6762 0.5651
vn 0.3310 0.9436 -0.0056
vn 0.5997 0.8002 -0.0058
vn 0.6938 0.6687 -0.2673
vn 0.1115 0.9455 -0.3059
vn 0.1922 0.8037 -0.5632
vn -0.0294 0.6775 -0.7349
vn -0.2419 0.9515 -0.1900
vn -0.4637 0.8148 -0.3479
vn -0.6975 0.6905 -0.1916
vn -0.8781 0.3609 0.3141
vn -0.7883 0.2121 0.5776
vn -0.5636 0.3582 0.7444
vn 0.0328 0.3499 0.9362
vn 0.3088 0.1970 0.9305
vn 0.5390 0.3413 0.7700
vn 0.9057 0.3331 0.2621
vn 0.9833 0.1820 -0.0039
vn 0.9041 0.3305 -0.2708
vn 0.5344 0.3337 -0.7766
vn 0.3031 0.1878 -0.9343
vn 0.0271 0.3407 -0.9398
vn -0.5681 0.3508 -0.7444
vn -0.7918 0.2064 -0.5749
vn -0.8800 0.3578 -0.3124
vn -0.3014 0.1415 0.9429
vn -0.3031 -0.1878 0.9343
vn -0.0271 -0.3407 0.9398
vn 0.8056 0.1226 0.5796
vn 0.7918 -0.2064 0.5749
vn 0.8800 -0.3578 0.3124
vn 0.8021 0.1169 -0.5856
vn 0.7883 -0.2121 -0.5776
vn 0.5636 -0.3582 -0.7444
vn -0.3071 0.1322 -0.9425
vn -0.3088 -0.1970 -0.9305
vn -0.5390 -0.3413 -0.7700
vn -0.9891 0.1474 0.0023
vn -0.9833 -0.1820 0.0039
vn -0.9041 -0.3305 0.2708
vn -0.4692 -0.6706 0.5745
vn -0.1922 -0.8037 0.5632
vn 0.0294 -0.6775 0.7349
vn 0.3909 -0.6837 0.6163
vn 0.4637 -0.8148 0.3479
vn 0.6975 -0.6905 0.1916
vn 0.6964 -0.6924 -0.1890
vn 0.4616 -0.8182 -0.3426
vn 0.3872 -0.6897 -0.6119
vn -0.6938 -0.6687 0.2673
vn -0.5997 -0.8002 0.0058
vn -0.3310 -0.9436 0.0056
vn 0.0250 -0.6847 -0.7284
vn -0.1956 -0.8092 -0.5540
vn -0.4727 -0.6762 -0.5651
vn -0.1176 -0.9336 -0.3384
vn -0.7215 -0.6295 -0.2883
vn 0.2674 -0.9409 -0.2079
vn 0.2622 -0.9443 0.1988
vn -0.1261 -0.9392 0.3195
vn -0.9110 -0.2993 -0.2837
vn -0.0177 -0.3078 -0.9513
vn 0.8931 -0.3279 -0.3080
vn 0.5626 -0.3319 0.7572
vn -0.5523 -0.3142 0.7721
vn -0.7974 -0.1019 -0.5948
vn 0.3170 -0.1167 -0.9412
vn 0.9907 -0.1357 0.0116
vn 0.2926 -0.1326 0.9470
vn -0.8125 -0.1117 0.5722
vn -0.3989 0.6554 -0.6413
vn 0.4991 0.6406 -0.5836
vn 0.7215 0.6295 0.2883
vn -0.0389 0.6375 0.7695
vn -0.7314 0.6535 0.1949
vn -0.2674 0.9409 0.2079
vn -0.4984 0.7850 0.3680
vn -0.4155 0.6446 0.6418
vn 0.1176 0.9336 0.3384
vn 0.1981 0.7718 0.6042
vn 0.4837 0.6305 0.6070
vn 0.3608 0.9325 0.0125
vn 0.6380 0.7699 0.0147
vn 0.7286 0.6341 -0.2589
vn 0.1261 0.9392 -0.3195
vn 0.2135 0.7818 -0.5858
vn -0.0192 0.6504 -0.7593
vn -0.2622 0.9443 -0.1988
vn -0.4889 0.7912 -0.3675
vn -0.7262 0.6569 -0.2027
vn -0.8931 0.3279 0.3080
vn -0.8004 0.1868 0.5696
vn -0.5821 0.3191 0.7479
vn 0.0177 0.3078 0.9513
vn 0.2947 0.1661 0.9410
vn 0.5322 0.3010 0.7913
vn 0.9110 0.2993 0.2837
vn 0.9865 0.1631 0.0141
vn 0.9180 0.3039 -0.2550
vn 0.5523 0.3142 -0.7721
vn 0.3189 0.1819 -0.9302
vn 0.0422 0.3238 -0.9452
vn -0.5626 0.3319 -0.7572
vn -0.7855 0.1966 -0.5868
vn -0.8849 0.3333 -0.3254
vn -0.3170 0.1167 0.9412
vn -0.3189 -0.1819 0.9302
vn -0.0422 -0.3238 0.9452
vn 0.7974 0.1019 0.5948
vn 0.7855 -0.1966 0.5868
vn 0.8849 -0.3333 0.3254
vn 0.8125 0.1117 -0.5722
vn 0.8004 -0.1868 -0.5696
vn 0.5821 -0.3191 -0.7479
vn -0.2926 0.1326 -0.9470
vn -0.2947 -0.1661 -0.9410
vn -0.5322 -0.3010 -0.7913
vn -0.9907 0.1357 -0.0116
vn -0.9865 -0.1631 -0.0141
vn -0.9180 -0.3039 0.2550
vn -0.4991 -0.6406 0.5836
vn -0.2135 -0.7818 0.5858
vn 0.0192 -0.6504 0.7593
vn 0.3989 -0.6554 0.6413
vn 0.4889 -0.7912 0.3675
vn 0.7262 -0.6569 0.2027
vn 0.7314 -0.6535 -0.1949
vn 0.4984 -0.7850 -0.3680
vn 0.4155 -0.6446 -0.6418
vn -0.7286 -0.6341 0.2589
vn -0.6380 -0.7699 -0.0147
vn -0.3608 -0.9325 -0.0125
vn 0.0389 -0.6375 -0.7695
vn -0.1981 -0.7718 -0.6042
vn -0.4837 -0.6305 -0.6070
vn 0.8123 -0.5826 0.0275
vn 0.9138 -0.2445 -0.3244
vn 0.9954 0.0808 -0.0508
vn 0.7235 0.5206 -0.4534
vn 0.3365 0.9020 -0.2704
vn 0.9055 0.4152 -0.0878
vn 0.7181 -0.6388 0.2763
vn 0.9934 0.0588 0.0983
vn 0.8785 -0.1207 0.4623
vn 0.4434 0.8961 -0.0205
vn 0.6882 0.6444 0.3334
vn 0.9160 0.3964 0.0614
vn -0.3239 -0.9460 -0.0092
vn -0.9000 -0.4345 -0.0350
vn -0.6882 -0.6444 -0.3334
vn -0.8035 0.5518 -0.2235
vn -0.8785 0.1207 -0.4623
vn -0.9882 -0.1062 -0.1103
vn -0.4521 -0.8653 0.2165
vn -0.7235 -0.5206 0.4534
vn -0.9233 -0.3710 0.0997
vn -0.7306 0.6828 0.0033
vn -0.9989 -0.0395 0.0244
vn -0.9138 0.2445 0.3244
vn 0.8119 -0.5700 0.1261
vn 0.9981 0.0493 0.0370
vn 0.8929 0.1506 -0.4242
vn 0.9706 0.2286 -0.0761
vn 0.4499 0.8851 -0.1191
vn 0.9045 0.4257 -0.0264
vn 0.8544 0.2857 0.4340
vn 0.9632 0.2542 0.0869
vn 0.2273 -0.9178 0.3256
vn 0.1373 -0.5682 0.8113
vn -0.2422 0.9702 0.0074
vn -0.1999 0.7876 0.5828
vn -0.9706 -0.2286 0.0761
vn -0.8929 -0.1506 0.4242
vn -0.4500 -0.8851 0.1191
vn -0.9045 -0.4257 0.0264
vn -0.8119 0.5700 -0.1261
vn -0.9981 -0.0493 -0.0370
vn -0.8544 -0.2856 -0.4340
vn -0.9632 -0.2542 -0.0869
vn 0.2422 -0.9702 -0.0074
vn 0.1999 -0.7876 -0.5828
vn -0.2273 0.9178 -0.3256
vn -0.1373 0.5682 -0.8113
vn 0.2382 -0.9577 0.1614
vn 0.9702 0.2422 0.0054
vn 0.0443 -0.1553 -0.9869
vn -0.2382 0.9577 -0.1614
vn -0.0443 0.1553 0.9869
vn -0.9702 -0.2422 -0.0054
vn 0.3244 -0.9454 -0.0308
vn 0.6325 -0.7013 -0.3289
vn 0.8727 -0.4858 -0.0487
vn 0.9188 0.1052 -0.3804
vn 0.7700 0.6159 -0.1668
vn 0.9899 -0.1314 -0.0532
vn 0.2054 -0.9611 0.1847
vn 0.8499 -0.5197 0.0870
vn 0.6352 -0.6552 0.4089
vn 0.8455 0.5314 0.0523
vn 0.9216 0.1513 0.3574
vn 0.9819 -0.1705 0.0828
vn -0.7709 -0.6315 -0.0831
vn -0.9903 0.1242 -0.0618
vn -0.9216 -0.1513 -0.3574
vn -0.3251 0.9344 -0.1458
vn -0.6352 0.6552 -0.4089
vn -0.8733 0.4764 -0.1023
vn -0.8449 -0.5204 0.1243
vn -0.9188 -0.1052 0.3804
vn -0.9813 0.1799 0.0683
vn -0.2045 0.9767 0.0652
vn -0.8495 0.5269 0.0280
vn -0.6325 0.7013 0.3289
vn 0.3260 -0.9436 0.0577
vn 0.8511 -0.5242 0.0296
vn 0.8585 -0.3299 -0.3925
vn 0.9395 -0.3374 -0.0593
vn 0.8485 0.5279 -0.0362
vn 0.9918 -0.1280 0.0043
vn 0.8616 -0.2789 0.4241
vn 0.9401 -0.3278 0.0938
vn -0.3299 -0.9214 0.2054
vn -0.2505 -0.6717 0.6972
vn 0.3310 0.9397 0.0867
vn 0.2554 0.7531 0.6063
vn -0.9395 0.3374 0.0593
vn -0.8585 0.3299 0.3925
vn -0.8485 -0.5279 0.0362
vn -0.9918 0.1280 -0.0043
vn -0.3260 0.9436 -0.0577
vn -0.8511 0.5242 -0.0296
vn -0.8616 0.2789 -0.4241
vn -0.9401 0.3278 -0.0938
vn -0.3310 -0.9397 -0.0867
vn -0.2554 -0.7531 -0.6063
vn 0.3299 0.9214 -0.2054
vn 0.2505 0.6717 -0.6972
vn -0.3340 -0.9407 0.0600
vn 0.9426 -0.3336 0.0173
vn -0.0037 -0.0623 -0.9980
vn 0.3340 0.9407 -0.0600
vn 0.0037 0.0623 0.9980
vn -0.9426 0.3336 -0.0173
vn 0.6011 -0.7789 -0.1786
vn 0.8288 -0.3879 -0.4032
vn 0.9840 -0.1725 -0.0450
vn 0.8352 0.4827 -0.2635
vn 0.5129 0.8576 0.0392
vn 0.9771 0.2099 0.0355
vn 0.4834 -0.8751 0.0240
vn 0.9658 -0.2440 0.0878
vn 0.7778 -0.5110 0.3658
vn 0.6006 0.7578 0.2549
vn 0.7843 0.3596 0.5056
vn 0.9758 0.1380 0.1693
vn -0.4959 -0.8165 -0.2956
vn -0.9690 -0.1903 -0.1575
vn -0.7843 -0.3596 -0.5056
vn -0.5891 0.8081 -0.0035
vn -0.7778 0.5110 -0.3658
vn -0.9734 0.1981 -0.1154
vn -0.6127 -0.7870 -0.0728
vn -0.8352 -0.4827 0.2635
vn -0.9865 -0.1637 -0.0090
vn -0.5004 0.8340 0.2324
vn -0.9739 0.2245 0.0342
vn -0.8288 0.3879 0.4033
vn 0.5976 -0.7969 -0.0879
vn 0.9717 -0.2347 0.0268
vn 0.9270 0.0528 -0.3714
vn 0.9998 -0.0045 -0.0182
vn 0.6093 0.7757 0.1646
vn 0.9749 0.2005 0.0967
vn 0.8702 -0.0844 0.4855
vn 0.9890 -0.0305 0.1445
vn -0.0170 -0.9998 -0.0088
vn -0.0487 -0.8438 0.5344
vn -0.0026 0.9525 0.3047
vn -0.0378 0.6347 0.7718
vn -0.9998 0.0045 0.0182
vn -0.9270 -0.0528 0.3714
vn -0.6093 -0.7757 -0.1645
vn -0.9749 -0.2005 -0.0967
vn -0.5977 0.7969 0.0879
vn -0.9717 0.2347 -0.0268
vn -0.8702 0.0844 -0.4855
vn -0.9890 0.0305 -0.1445
vn 0.0026 -0.9525 -0.3047
vn 0.0378 -0.6347 -0.7718
vn 0.0170 0.9998 0.0088
vn 0.0487 0.8438 -0.5344
vn -0.0073 -0.9873 -0.1585
vn 0.9978 -0.0175 0.0633
vn 0.0653 0.1577 -0.9853
vn 0.0073 0.9873 0.1585
vn -0.0653 -0.1577 0.9853
vn -0.9978 0.0175 -0.0633
vn 0.7306 -0.6828 -0.0033
vn 0.8534 -0.2511 -0.4568
vn 0.9989 0.0395 -0.0244
vn 0.6771 0.4576 -0.5762
vn 0.4521 0.8653 -0.2165
vn 0.9233 0.3710 -0.0997
vn 0.8035 -0.5518 0.2235
vn 0.9882 0.1062 0.1103
vn 0.8067 -0.0872 0.5845
vn 0.3239 0.9460 0.0092
vn 0.6304 0.6215 0.4651
vn 0.9000 0.4345 0.0350
vn -0.4434 -0.8961 0.0205
vn -0.9160 -0.3964 -0.0614
vn -0.6304 -0.6215 -0.4651
vn -0.7181 0.6387 -0.2763
vn -0.8067 0.0872 -0.5845
vn -0.9934 -0.0588 -0.0983
vn -0.3365 -0.9020 0.2704
vn -0.6771 -0.4576 0.5762
vn -0.9055 -0.4152 0.0878
vn -0.8123 0.5826 -0.0275
vn -0.9954 -0.0808 0.0508
vn -0.8534 0.2511 0.4568
vn 0.4500 0.8851 -0.1191
vn 0.8544 0.2856 0.4340
vn -0.2423 0.9702 0.0074
vn -0.8119 0.5701 -0.1261
vn 0.2423 -0.9702 -0.0074
vn 0.2045 -0.9767 -0.0652
vn 0.5912 -0.6654 -0.4557
vn 0.8495 -0.5269 -0.0280
vn 0.8592 0.0892 -0.5039
vn 0.8449 0.5204 -0.1243
vn 0.9813 -0.1799 -0.0682
vn 0.3251 -0.9344 0.1458
vn 0.8733 -0.4764 0.1023
vn 0.5949 -0.6038 0.5306
vn 0.7709 0.6315 0.0831
vn 0.8629 0.1508 0.4824
vn 0.9903 -0.1242 0.0618
vn -0.8455 -0.5314 -0.0523
vn -0.9819 0.1705 -0.0828
vn -0.8628 -0.1508 -0.4824
vn -0.2054 0.9611 -0.1847
vn -0.5949 0.6038 -0.5306
vn -0.8499 0.5197 -0.0870
vn -0.7700 -0.6159 0.1668
vn -0.8592 -0.0892 0.5039
vn -0.9899 0.1314 0.0532
vn -0.3244 0.9454 0.0308
vn -0.8727 0.4858 0.0487
vn -0.5912 0.6654 0.4557
vn 0.3261 -0.9436 0.0577
vn 0.3309 0.9397 0.0867
vn -0.3309 -0.9397 -0.0867
vn 0.5004 -0.8340 -0.2324
vn 0.7801 -0.3359 -0.5278
vn 0.9739 -0.2245 -0.0342
vn 0.7861 0.4730 -0.3979
vn 0.6127 0.7870 0.0728
vn 0.9865 0.1637 0.0090
vn 0.5891 -0.8081 0.0035
vn 0.9734 -0.1981 0.1154
vn 0.7125 -0.4993 0.4931
vn 0.4959 0.8165 0.2956
vn 0.7184 0.3095 0.6229
vn 0.9690 0.1903 0.1575
vn -0.6006 -0.7578 -0.2549
vn -0.9758 -0.1380 -0.1693
vn -0.7184 -0.3095 -0.6229
vn -0.4834 0.8751 -0.0240
vn -0.7125 0.4992 -0.4931
vn -0.9658 0.2440 -0.0878
vn -0.5128 -0.8576 -0.0392
vn -0.7861 -0.4729 0.3979
vn -0.9771 -0.2099 -0.0355
vn -0.6011 0.7789 0.1786
vn -0.9840 0.1725 0.0450
vn -0.7802 0.3359 0.5278
vn 0.5977 -0.7969 -0.0879
vn 0.6093 0.7757 0.1645
vn -0.6093 -0.7757 -0.1646
vn -0.8702 0.0844 -0.4854
vt 0.500000 0.500000
vt 0.548912 0.464464
vt 0.481318 0.442501
vt 0.439542 0.442398
vt 0.464464 0.390436
vt 0.500000 0.432285
vt 0.439541 0.500000
vt 0.481318 0.557499
vt 0.548912 0.535536
vt 0.464464 0.500000
vt 0.468215 0.442398
vt 0.530230 0.432285
vt 0.500000 0.442399
vt 0.442500 0.432285
vt 0.420858 0.432285
vt 0.432405 0.500000
vt 0.583215 0.442398
vt 0.567595 0.500000
vt 0.406963 0.500000
vt 0.535536 0.500000
vt 0.560458 0.442398
vt 0.593037 0.500000
vt 0.531785 0.557602
vt 0.579142 0.567715
vt 0.518682 0.609564
vt 0.416785 0.439542
vt 0.469770 0.406964
vt 0.451088 0.464464
vt 0.560458 0.557602
vt 0.500000 0.567715
vt 0.535536 0.609564
vt 0.469770 0.567715
vt 0.500000 0.557601
vt 0.557500 0.567715
vt 0.500000 0.609564
vt 0.560459 0.500000
vt 0.518682 0.557499
vt 0.579142 0.557500
vt 0.579142 0.567715
vt 0.451088 0.535536
vt 0.469770 0.593036
vt 0.416785 0.560458
vt 0.402175 0.500000
vt 0.439542 0.557602
vt 0.464464 0.609564
vt 0.518682 0.442501
vt 0.579142 0.442500
vt 0.442500 0.567715
vt 0.416785 0.557602
vt 0.557500 0.432285
vt 0.530230 0.593036
vt 0.583215 0.560458
vt 0.481318 0.390436
vt 0.420858 0.557500
vt 0.500000 0.390436
vt 0.420858 0.442500
vt 0.535536 0.390436
vt 0.597825 0.500000
vt 0.530230 0.406964
vt 0.583215 0.439542
vt 0.536578 0.473425
vt 0.486029 0.457000
vt 0.454788 0.463462
vt 0.473425 0.430502
vt 0.500000 0.457047
vt 0.454787 0.500000
vt 0.486029 0.543000
vt 0.536578 0.526575
vt 0.473425 0.500000
vt 0.476231 0.463462
vt 0.522607 0.457047
vt 0.500000 0.463462
vt 0.457000 0.457047
vt 0.440816 0.457047
vt 0.449450 0.500000
vt 0.562230 0.463462
vt 0.550550 0.500000
vt 0.430425 0.500000
vt 0.526575 0.500000
vt 0.545212 0.463462
vt 0.569575 0.500000
vt 0.523769 0.426844
vt 0.559184 0.457000
vt 0.513971 0.457000
vt 0.437770 0.454788
vt 0.477393 0.430425
vt 0.463422 0.473425
vt 0.545212 0.536538
vt 0.500000 0.542953
vt 0.526575 0.569498
vt 0.523769 0.536538
vt 0.477393 0.542953
vt 0.513971 0.569498
vt 0.500000 0.536538
vt 0.543000 0.542953
vt 0.500000 0.569498
vt 0.545213 0.500000
vt 0.513971 0.543000
vt 0.559184 0.543000
vt 0.523769 0.573156
vt 0.463422 0.526575
vt 0.477393 0.569575
vt 0.437770 0.545212
vt 0.426844 0.500000
vt 0.454788 0.536538
vt 0.473425 0.569498
vt 0.457000 0.542953
vt 0.559184 0.542953
vt 0.437770 0.536538
vt 0.543000 0.457047
vt 0.522607 0.569575
vt 0.562230 0.545212
vt 0.486029 0.430502
vt 0.440816 0.543000
vt 0.476231 0.573156
vt 0.500000 0.430502
vt 0.440816 0.457000
vt 0.476231 0.426844
vt 0.526575 0.430502
vt 0.573156 0.500000
vt 0.522607 0.430425
vt 0.562230 0.454788
vt 0.529773 0.478369
vt 0.488628 0.465000
vt 0.463199 0.467129
vt 0.478369 0.437477
vt 0.500000 0.461358
vt 0.463199 0.500000
vt 0.488628 0.535000
vt 0.529773 0.521631
vt 0.478369 0.500000
vt 0.480653 0.467129
vt 0.518401 0.461358
vt 0.500000 0.467130
vt 0.465000 0.461358
vt 0.451827 0.461358
vt 0.458855 0.500000
vt 0.550653 0.467129
vt 0.518401 0.461358
vt 0.541145 0.500000
vt 0.443369 0.500000
vt 0.521631 0.500000
vt 0.536801 0.467129
vt 0.556631 0.500000
vt 0.519347 0.440455
vt 0.548173 0.465000
vt 0.511372 0.465000
vt 0.449347 0.463199
vt 0.481599 0.443369
vt 0.470227 0.478369
vt 0.536801 0.532871
vt 0.500000 0.538642
vt 0.521631 0.562523
vt 0.519347 0.532871
vt 0.481599 0.538642
vt 0.511372 0.562523
vt 0.500000 0.532870
vt 0.535000 0.538642
vt 0.500000 0.562523
vt 0.536801 0.500000
vt 0.511372 0.535000
vt 0.548173 0.535000
vt 0.519347 0.559545
vt 0.470227 0.521631
vt 0.481599 0.556631
vt 0.449347 0.536801
vt 0.440455 0.500000
vt 0.463199 0.532871
vt 0.478369 0.562523
vt 0.465000 0.538642
vt 0.548173 0.538642
vt 0.449347 0.532871
vt 0.535000 0.461358
vt 0.518401 0.556631
vt 0.550653 0.536801
vt 0.488628 0.437477
vt 0.451827 0.535000
vt 0.480653 0.559545
vt 0.500000 0.437477
vt 0.451827 0.465000
vt 0.480653 0.440455
vt 0.521631 0.437477
vt 0.559545 0.500000
vt 0.518401 0.443369
vt 0.550653 0.463199
vt 0.485420 0.427100
vt 0.485178 0.425888
vt 0.485123 0.427100
vt 0.425615 0.469868
vt 0.425615 0.469254
vt 0.425000 0.469868
vt 0.427100 0.469868
vt 0.425888 0.469367
vt 0.425615 0.530746
vt 0.425615 0.530132
vt 0.425000 0.530132
vt 0.485420 0.425615
vt 0.427100 0.530132
vt 0.425888 0.530633
vt 0.427100 0.530746
vt 0.485420 0.572900
vt 0.485178 0.574112
vt 0.485420 0.574385
vt 0.572900 0.469868
vt 0.574112 0.469367
vt 0.572900 0.469254
vt 0.574385 0.469254
vt 0.574385 0.469868
vt 0.575000 0.469868
vt 0.485123 0.572900
vt 0.574385 0.530132
vt 0.574385 0.530746
vt 0.575000 0.530132
vt 0.572900 0.530132
vt 0.574112 0.530633
vt 0.514580 0.427100
vt 0.514822 0.425888
vt 0.514580 0.425615
vt 0.427100 0.469254
vt 0.514877 0.427100
vt 0.514580 0.572900
vt 0.514822 0.574112
vt 0.514877 0.572900
vt 0.514580 0.574385
vt 0.572900 0.530746
vt 0.514580 0.575000
vt 0.485420 0.575000
vt 0.485420 0.425000
vt 0.514580 0.425000
vt 0.514580 0.530132
vt 0.485420 0.469868
vt 0.514580 0.469868
vt 0.487364 0.431960
vt 0.487154 0.430828
vt 0.487107 0.431960
vt 0.430574 0.475700
vt 0.430574 0.475205
vt 0.430000 0.475700
vt 0.431960 0.475700
vt 0.430828 0.475296
vt 0.430574 0.524795
vt 0.430574 0.524300
vt 0.430000 0.524300
vt 0.487364 0.430574
vt 0.431960 0.524300
vt 0.430828 0.524704
vt 0.431960 0.524795
vt 0.487364 0.568040
vt 0.487154 0.569172
vt 0.487364 0.569426
vt 0.568040 0.475700
vt 0.569172 0.475296
vt 0.568040 0.475205
vt 0.569426 0.475205
vt 0.569426 0.475700
vt 0.570000 0.475700
vt 0.487107 0.568040
vt 0.569426 0.524300
vt 0.569426 0.524795
vt 0.570000 0.524300
vt 0.568040 0.524300
vt 0.569172 0.524704
vt 0.512636 0.431960
vt 0.512846 0.430828
vt 0.512636 0.430574
vt 0.431960 0.475205
vt 0.512893 0.431960
vt 0.512636 0.568040
vt 0.512846 0.569172
vt 0.512893 0.568040
vt 0.512636 0.569426
vt 0.568040 0.524795
vt 0.512636 0.570000
vt 0.487364 0.570000
vt 0.512636 0.430000
vt 0.487364 0.430000
vt 0.512636 0.475700
vt 0.487364 0.524300
vt 0.487364 0.475700
vt 0.488336 0.441680
vt 0.488142 0.440710
vt 0.488098 0.441680
vt 0.440492 0.478616
vt 0.440492 0.478180
vt 0.440000 0.478616
vt 0.441680 0.478616
vt 0.440710 0.478260
vt 0.440492 0.521820
vt 0.440492 0.521384
vt 0.440000 0.521384
vt 0.488336 0.440492
vt 0.441680 0.521384
vt 0.440710 0.521740
vt 0.441680 0.521820
vt 0.488336 0.558320
vt 0.488142 0.559290
vt 0.488336 0.559508
vt 0.558320 0.478616
vt 0.559290 0.478260
vt 0.558320 0.478180
vt 0.559508 0.478180
vt 0.559508 0.478616
vt 0.560000 0.478616
vt 0.488098 0.558320
vt 0.559508 0.521384
vt 0.559508 0.521820
vt 0.560000 0.521384
vt 0.558320 0.521384
vt 0.559290 0.521740
vt 0.511664 0.441680
vt 0.511858 0.440710
vt 0.511664 0.440492
vt 0.441680 0.478180
vt 0.511902 0.441680
vt 0.511664 0.558320
vt 0.511858 0.559290
vt 0.511902 0.558320
vt 0.511664 0.559508
vt 0.558320 0.521820
vt 0.511664 0.560000
vt 0.488336 0.560000
vt 0.488336 0.440000
vt 0.511664 0.440000
vt 0.511664 0.478616
vt 0.488336 0.521384
vt 0.488336 0.478616
vt 0.485420 0.530132
vt 0.512636 0.524300
vt 0.511664 0.521384
s 0
usemtl bark
f 1/1/1 14/2/1 13/3/1
f 2/4/2 14/5/2 16/6/2
f 1/1/3 13/3/3 18/7/3
f 1/1/4 18/7/4 20/8/4
f 1/1/5 20/8/5 17/9/5
f 2/4/6 16/6/6 23/10/6
f 3/11/7 15/12/7 25/1/7
f 4/13/8 19/14/8 27/10/8
f 5/11/9 21/15/9 29/16/9
f 6/17/10 22/12/10 31/18/10
f 2/4/11 23/10/11 26/19/11
f 3/11/12 25/1/12 28/16/12
f 4/13/13 27/10/13 30/20/13
f 5/11/14 29/16/14 32/1/14
f 6/21/15 31/22/15 24/20/15
f 7/23/16 33/24/16 38/25/16
f 8/26/17 34/27/17 40/28/17
f 9/29/18 35/30/18 41/31/18
f 10/23/19 36/32/19 42/25/19
f 11/33/20 37/34/20 39/35/20
f 39/36/21 42/37/21 12/1/21
f 39/36/22 37/38/22 42/37/22
f 37/39/23 10/23/23 42/25/23
f 42/37/24 41/40/24 12/1/24
f 42/37/25 36/41/25 41/40/25
f 36/41/26 9/42/26 41/40/26
f 41/40/27 40/28/27 12/1/27
f 41/40/28 35/43/28 40/28/28
f 35/30/29 8/44/29 40/45/29
f 40/28/30 38/46/30 12/1/30
f 40/28/31 34/27/31 38/46/31
f 34/32/32 7/23/32 38/25/32
f 38/46/33 39/36/33 12/1/33
f 38/46/34 33/47/34 39/36/34
f 33/48/35 11/33/35 39/35/35
f 24/20/36 37/34/36 11/33/36
f 24/20/37 31/22/37 37/34/37
f 31/18/38 10/23/38 37/39/38
f 32/1/39 36/32/39 10/23/39
f 32/1/40 29/16/40 36/32/40
f 29/16/41 9/49/41 36/32/41
f 30/20/42 35/30/42 9/29/42
f 30/20/43 27/10/43 35/30/43
f 27/10/44 8/44/44 35/30/44
f 28/16/45 34/32/45 8/49/45
f 28/16/46 25/1/46 34/32/46
f 25/1/47 7/23/47 34/32/47
f 26/18/48 33/24/48 7/23/48
f 26/19/49 23/10/49 33/48/49
f 23/10/50 11/33/50 33/48/50
f 31/18/51 32/1/51 10/23/51
f 31/18/52 22/12/52 32/1/52
f 22/12/53 5/11/53 32/1/53
f 29/22/54 30/20/54 9/29/54
f 29/22/55 21/50/55 30/20/55
f 21/50/56 4/13/56 30/20/56
f 27/10/57 28/19/57 8/44/57
f 27/10/58 19/14/58 28/19/58
f 19/15/59 3/11/59 28/16/59
f 25/1/60 26/18/60 7/23/60
f 25/1/61 15/12/61 26/18/61
f 15/12/62 2/17/62 26/18/62
f 23/10/63 24/20/63 11/33/63
f 23/10/64 16/6/64 24/20/64
f 16/6/65 6/21/65 24/20/65
f 17/9/66 22/51/66 6/52/66
f 17/9/67 20/8/67 22/51/67
f 20/53/68 5/11/68 22/12/68
f 20/53/69 21/15/69 5/11/69
f 20/8/70 18/7/70 21/54/70
f 18/55/71 4/13/71 21/50/71
f 18/55/72 19/14/72 4/13/72
f 18/7/73 13/3/73 19/56/73
f 13/53/74 3/11/74 19/15/74
f 16/6/75 17/57/75 6/21/75
f 16/58/76 14/2/76 17/9/76
f 14/2/77 1/1/77 17/9/77
f 13/53/78 15/12/78 3/11/78
f 13/3/79 14/2/79 15/59/79
f 14/2/80 2/60/80 15/59/80
f 43/1/81 56/61/81 55/62/81
f 44/63/82 56/64/82 58/65/82
f 43/1/83 55/62/83 60/66/83
f 43/1/84 60/66/84 62/67/84
f 43/1/85 62/67/85 59/68/85
f 44/63/86 58/65/86 65/69/86
f 45/70/87 57/71/87 67/1/87
f 46/72/88 61/73/88 69/69/88
f 47/70/89 63/74/89 71/75/89
f 48/76/90 64/71/90 73/77/90
f 44/63/91 65/69/91 68/78/91
f 45/70/92 67/1/92 70/75/92
f 46/72/93 69/69/93 72/79/93
f 47/70/94 71/75/94 74/1/94
f 48/80/95 73/81/95 66/79/95
f 49/82/96 75/83/96 80/84/96
f 50/85/97 76/86/97 82/87/97
f 51/88/98 77/89/98 83/90/98
f 52/91/99 78/92/99 84/93/99
f 53/94/100 79/95/100 81/96/100
f 81/97/101 84/98/101 54/1/101
f 81/97/102 79/99/102 84/98/102
f 79/99/103 52/100/103 84/98/103
f 84/98/104 83/101/104 54/1/104
f 84/98/105 78/102/105 83/101/105
f 78/102/106 51/103/106 83/101/106
f 83/101/107 82/87/107 54/1/107
f 83/101/108 77/104/108 82/87/108
f 77/89/109 50/105/109 82/106/109
f 82/87/110 80/84/110 54/1/110
f 82/87/111 76/86/111 80/84/111
f 76/92/112 49/91/112 80/93/112
f 80/84/113 81/97/113 54/1/113
f 80/84/114 75/83/114 81/97/114
f 75/107/115 53/94/115 81/96/115
f 66/79/116 79/95/116 53/94/116
f 66/79/117 73/81/117 79/95/117
f 73/77/118 52/91/118 79/108/118
f 74/1/119 78/92/119 52/91/119
f 74/1/120 71/75/120 78/92/120
f 71/75/121 51/109/121 78/92/121
f 72/79/122 77/89/122 51/88/122
f 72/79/123 69/69/123 77/89/123
f 69/69/124 50/105/124 77/89/124
f 70/75/125 76/92/125 50/109/125
f 70/75/126 67/1/126 76/92/126
f 67/1/127 49/91/127 76/92/127
f 68/77/128 75/108/128 49/91/128
f 68/78/129 65/69/129 75/107/129
f 65/69/130 53/94/130 75/107/130
f 73/77/131 74/1/131 52/91/131
f 73/77/132 64/71/132 74/1/132
f 64/71/133 47/70/133 74/1/133
f 71/81/134 72/79/134 51/88/134
f 71/81/135 63/110/135 72/79/135
f 63/110/136 46/72/136 72/79/136
f 69/69/137 70/78/137 50/105/137
f 69/69/138 61/73/138 70/78/138
f 61/74/139 45/70/139 70/75/139
f 67/1/140 68/77/140 49/91/140
f 67/1/141 57/71/141 68/77/141
f 57/71/142 44/76/142 68/77/142
f 65/69/143 66/79/143 53/94/143
f 65/69/144 58/65/144 66/79/144
f 58/65/145 48/80/145 66/79/145
f 59/68/146 64/111/146 48/112/146
f 59/68/147 62/67/147 64/111/147
f 62/113/148 47/70/148 64/71/148
f 62/67/149 63/114/149 47/115/149
f 62/67/150 60/66/150 63/114/150
f 60/116/151 46/72/151 63/110/151
f 60/116/152 61/73/152 46/72/152
f 60/66/153 55/62/153 61/117/153
f 55/62/154 45/118/154 61/117/154
f 58/65/155 59/119/155 48/80/155
f 58/120/156 56/61/156 59/68/156
f 56/61/157 43/1/157 59/68/157
f 55/113/158 57/71/158 45/70/158
f 55/62/159 56/61/159 57/121/159
f 56/61/160 44/122/160 57/121/160
f 85/1/161 98/123/161 97/124/161
f 86/125/162 98/126/162 100/127/162
f 85/1/163 97/124/163 102/128/163
f 85/1/164 102/128/164 104/129/164
f 85/1/165 104/129/165 101/130/165
f 86/125/166 100/127/166 107/131/166
f 87/132/167 99/133/167 109/1/167
f 88/134/168 103/135/168 111/131/168
f 89/132/169 105/136/169 113/137/169
f 90/138/170 106/139/170 115/140/170
f 86/125/171 107/131/171 110/141/171
f 87/132/172 109/1/172 112/137/172
f 88/134/173 111/131/173 114/142/173
f 89/132/174 113/137/174 116/1/174
f 90/143/175 115/144/175 108/142/175
f 91/145/176 117/146/176 122/147/176
f 92/148/177 118/149/177 124/150/177
f 93/151/178 119/152/178 125/153/178
f 94/154/179 120/155/179 126/156/179
f 95/157/180 121/158/180 123/159/180
f 123/160/181 126/161/181 96/1/181
f 123/160/182 121/162/182 126/161/182
f 121/162/183 94/163/183 126/161/183
f 126/161/184 125/164/184 96/1/184
f 126/161/185 120/165/185 125/164/185
f 120/165/186 93/166/186 125/164/186
f 125/164/187 124/150/187 96/1/187
f 125/164/188 119/167/188 124/150/188
f 119/152/189 92/168/189 124/169/189
f 124/150/190 122/147/190 96/1/190
f 124/150/191 118/149/191 122/147/191
f 118/155/192 91/154/192 122/156/192
f 122/147/193 123/160/193 96/1/193
f 122/147/194 117/146/194 123/160/194
f 117/170/195 95/157/195 123/159/195
f 108/142/196 121/158/196 95/157/196
f 108/142/197 115/144/197 121/158/197
f 115/140/198 94/154/198 121/171/198
f 116/1/199 120/155/199 94/154/199
f 116/1/200 113/137/200 120/155/200
f 113/137/201 93/172/201 120/155/201
f 114/142/202 119/152/202 93/151/202
f 114/142/203 111/131/203 119/152/203
f 111/131/204 92/168/204 119/152/204
f 112/137/205 118/155/205 92/172/205
f 112/137/206 109/1/206 118/155/206
f 109/1/207 91/154/207 118/155/207
f 110/140/208 117/171/208 91/154/208
f 110/141/209 107/131/209 117/170/209
f 107/131/210 95/157/210 117/170/210
f 115/140/211 116/1/211 94/154/211
f 115/140/212 106/139/212 116/1/212
f 106/139/213 89/132/213 116/1/213
f 113/144/214 114/142/214 93/151/214
f 113/144/215 105/173/215 114/142/215
f 105/173/216 88/134/216 114/142/216
f 111/131/217 112/141/217 92/168/217
f 111/131/218 103/135/218 112/141/218
f 103/136/219 87/132/219 112/137/219
f 109/1/220 110/140/220 91/154/220
f 109/1/221 99/133/221 110/140/221
f 99/133/222 86/138/222 110/140/222
f 107/131/223 108/142/223 95/157/223
f 107/131/224 100/127/224 108/142/224
f 100/127/225 90/143/225 108/142/225
f 101/130/226 106/174/226 90/175/226
f 101/130/227 104/129/227 106/174/227
f 104/176/228 89/132/228 106/139/228
f 104/129/229 105/177/229 89/178/229
f 104/129/230 102/128/230 105/177/230
f 102/179/231 88/134/231 105/173/231
f 102/179/232 103/135/232 88/134/232
f 102/128/233 97/124/233 103/180/233
f 97/124/234 87/181/234 103/180/234
f 100/127/235 101/182/235 90/143/235
f 100/183/236 98/123/236 101/130/236
f 98/123/237 85/1/237 101/130/237
f 97/176/238 99/133/238 87/132/238
f 97/124/239 98/123/239 99/184/239
f 98/123/240 86/185/240 99/184/240
usemtl core
f 127/186/241 131/187/241 133/188/241
f 132/189/242 130/190/242 128/191/242
f 129/192/243 131/193/243 132/189/243
f 137/194/244 140/195/244 134/196/244
f 135/186/245 138/187/245 137/197/245
f 136/198/246 138/199/246 139/200/246
f 141/201/247 145/202/247 147/203/247
f 142/204/248 145/205/248 144/206/248
f 147/207/249 146/208/249 143/209/249
f 148/201/250 152/202/250 154/210/250
f 153/211/251 151/212/251 149/213/251
f 150/214/252 152/215/252 153/211/252
f 155/216/253 159/217/253 161/218/253
f 156/192/254 159/193/254 158/219/254
f 161/190/255 160/189/255 157/191/255
f 162/216/256 166/217/256 168/220/256
f 167/195/257 165/194/257 163/196/257
f 164/198/258 166/199/258 167/195/258
f 169/221/259 173/222/259 175/223/259
f 174/208/260 172/207/260 170/209/260
f 171/204/261 173/205/261 174/208/261
f 176/221/262 180/222/262 182/224/262
f 177/214/263 180/215/263 179/225/263
f 182/212/264 181/211/264 178/213/264
f 141/201/265 133/188/265 144/210/265
f 133/219/266 142/204/266 144/206/266
f 134/196/267 132/189/267 128/191/267
f 132/189/268 136/198/268 129/192/268
f 148/201/269 139/188/269 135/186/269
f 139/200/270 150/214/270 136/198/270
f 149/213/271 146/208/271 153/211/271
f 153/211/272 142/204/272 150/214/272
f 141/201/273 172/224/273 169/221/273
f 147/203/274 170/226/274 172/224/274
f 148/201/275 182/224/275 151/203/275
f 182/224/276 149/227/276 151/203/276
f 171/204/277 181/211/277 177/214/277
f 181/211/278 170/209/278 178/213/278
f 169/221/279 158/220/279 155/216/279
f 158/219/280 171/204/280 156/192/280
f 162/216/281 179/223/281 176/221/281
f 168/200/282 177/214/282 179/225/282
f 157/191/283 167/195/283 163/196/283
f 160/189/284 164/198/284 167/195/284
f 155/216/285 130/197/285 127/186/285
f 161/218/286 128/228/286 130/197/286
f 135/186/287 165/218/287 162/216/287
f 137/197/288 163/229/288 165/218/288
f 169/221/289 127/186/289 141/201/289
f 129/192/290 150/214/290 142/204/290
f 163/230/291 128/231/291 157/232/291
f 148/201/292 162/216/292 176/221/292
f 143/231/293 178/230/293 170/232/293
f 177/214/294 156/192/294 171/204/294
f 183/233/295 187/234/295 189/235/295
f 188/236/296 186/237/296 184/238/296
f 185/239/297 187/240/297 188/236/297
f 193/241/298 196/242/298 190/243/298
f 191/233/299 194/234/299 193/244/299
f 192/245/300 194/246/300 195/247/300
f 197/248/301 201/249/301 203/250/301
f 198/251/302 201/252/302 200/253/302
f 203/254/303 202/255/303 199/256/303
f 204/248/304 208/249/304 210/257/304
f 209/258/305 207/259/305 205/260/305
f 206/261/306 208/262/306 209/258/306
f 211/263/307 215/264/307 217/265/307
f 212/239/308 215/240/308 214/266/308
f 217/237/309 216/236/309 213/238/309
f 218/263/310 222/264/310 224/267/310
f 223/242/311 221/241/311 219/243/311
f 220/245/312 222/246/312 223/242/312
f 225/268/313 229/269/313 231/270/313
f 230/255/314 228/254/314 226/256/314
f 227/251/315 229/252/315 230/255/315
f 232/268/316 236/269/316 238/271/316
f 233/261/317 236/262/317 235/272/317
f 238/259/318 237/258/318 234/260/318
f 197/248/319 189/235/319 200/257/319
f 189/266/320 198/251/320 200/253/320
f 190/243/321 188/236/321 184/238/321
f 196/242/322 185/239/322 188/236/322
f 204/248/323 195/235/323 191/233/323
f 195/247/324 206/261/324 192/245/324
f 199/256/325 209/258/325 205/260/325
f 209/258/326 198/251/326 206/261/326
f 225/268/327 203/250/327 228/271/327
f 203/250/328 226/273/328 228/271/328
f 204/248/329 238/271/329 207/250/329
f 207/250/330 234/273/330 205/274/330
f 233/261/331 230/255/331 237/258/331
f 230/255/332 234/260/332 237/258/332
f 225/268/333 214/267/333 211/263/333
f 214/266/334 227/251/334 212/239/334
f 232/268/335 224/267/335 235/270/335
f 224/247/336 233/261/336 235/272/336
f 213/238/337 223/242/337 219/243/337
f 216/236/338 220/245/338 223/242/338
f 211/263/339 186/244/339 183/233/339
f 186/244/340 213/275/340 184/276/340
f 191/233/341 221/265/341 218/263/341
f 193/244/342 219/275/342 221/265/342
f 225/268/343 183/233/343 197/248/343
f 192/245/344 198/251/344 185/239/344
f 213/277/345 190/278/345 184/279/345
f 204/248/346 218/263/346 232/268/346
f 205/278/347 226/277/347 199/279/347
f 227/251/348 220/245/348 212/239/348
f 239/280/349 243/281/349 245/282/349
f 244/283/350 242/284/350 240/285/350
f 241/286/351 243/287/351 244/283/351
f 249/288/352 252/289/352 246/290/352
f 247/280/353 250/281/353 249/291/353
f 248/292/354 250/293/354 251/294/354
f 253/295/355 257/296/355 259/297/355
f 254/298/356 257/299/356 256/300/356
f 259/301/357 258/302/357 255/303/357
f 260/295/358 264/296/358 266/304/358
f 265/305/359 263/306/359 261/307/359
f 262/308/360 264/309/360 265/305/360
f 267/310/361 271/311/361 273/312/361
f 268/286/362 271/287/362 270/313/362
f 273/284/363 272/283/363 269/285/363
f 274/310/364 278/311/364 280/314/364
f 279/289/365 277/288/365 275/290/365
f 276/292/366 278/293/366 279/289/366
f 281/315/367 285/316/367 287/317/367
f 286/302/368 284/301/368 282/303/368
f 283/298/369 285/299/369 286/302/369
f 288/315/370 292/316/370 294/318/370
f 289/308/371 292/309/371 291/319/371
f 294/306/372 293/305/372 290/307/372
f 239/280/373 256/304/373 253/295/373
f 245/313/374 254/298/374 256/300/374
f 246/290/375 244/283/375 240/285/375
f 252/289/376 241/286/376 244/283/376
f 260/295/377 251/282/377 247/280/377
f 266/319/378 248/292/378 251/294/378
f 261/307/379 258/302/379 265/305/379
f 258/302/380 262/308/380 265/305/380
f 281/315/381 259/297/381 284/318/381
f 259/297/382 282/320/382 284/318/382
f 288/315/383 263/297/383 260/295/383
f 294/318/384 261/321/384 263/297/384
f 283/298/385 293/305/385 289/308/385
f 286/302/386 290/307/386 293/305/386
f 267/310/387 287/317/387 270/314/387
f 287/300/388 268/286/388 270/313/388
f 288/315/389 280/314/389 291/317/389
f 280/294/390 289/308/390 291/319/390
f 275/290/391 272/283/391 279/289/391
f 279/289/392 268/286/392 276/292/392
f 267/310/393 242/291/393 239/280/393
f 273/312/394 240/322/394 242/291/394
f 274/310/395 249/291/395 277/312/395
f 249/291/396 275/323/396 277/312/396
f 253/295/397 267/310/397 239/280/397
f 241/286/398 262/308/398 254/298/398
f 269/324/399 246/325/399 240/326/399
f 288/315/400 247/280/400 274/310/400
f 261/325/401 282/324/401 255/326/401
f 289/308/402 268/286/402 283/298/402
f 127/186/403 130/197/403 131/187/403
f 132/189/404 131/193/404 130/190/404
f 129/192/405 133/219/405 131/193/405
f 137/194/406 138/199/406 140/195/406
f 135/186/407 139/188/407 138/187/407
f 136/198/408 140/195/408 138/199/408
f 141/201/409 144/210/409 145/202/409
f 142/204/410 146/208/410 145/205/410
f 147/207/411 145/205/411 146/208/411
f 148/201/412 151/203/412 152/202/412
f 153/211/413 152/215/413 151/212/413
f 150/214/414 154/225/414 152/215/414
f 155/216/415 158/220/415 159/217/415
f 156/192/416 160/189/416 159/193/416
f 161/190/417 159/193/417 160/189/417
f 162/216/418 165/218/418 166/217/418
f 167/195/419 166/199/419 165/194/419
f 164/198/420 168/200/420 166/199/420
f 169/221/421 172/224/421 173/222/421
f 174/208/422 173/205/422 172/207/422
f 171/204/423 175/206/423 173/205/423
f 176/221/424 179/223/424 180/222/424
f 177/214/425 181/211/425 180/215/425
f 182/212/426 180/215/426 181/211/426
f 141/201/265 127/186/265 133/188/265
f 133/219/266 129/192/266 142/204/266
f 134/196/267 140/195/267 132/189/267
f 132/189/268 140/195/268 136/198/268
f 148/201/427 154/210/427 139/188/427
f 139/200/270 154/225/270 150/214/270
f 149/213/428 143/209/428 146/208/428
f 153/211/272 146/208/272 142/204/272
f 141/201/273 147/203/273 172/224/273
f 147/203/274 143/227/274 170/226/274
f 148/201/429 176/221/429 182/224/429
f 182/224/276 178/226/276 149/227/276
f 171/204/277 174/208/277 181/211/277
f 181/211/278 174/208/278 170/209/278
f 169/221/279 175/223/279 158/220/279
f 158/219/280 175/206/280 171/204/280
f 162/216/430 168/220/430 179/223/430
f 168/200/282 164/198/282 177/214/282
f 157/191/283 160/189/283 167/195/283
f 160/189/284 156/192/284 164/198/284
f 155/216/431 161/218/431 130/197/431
f 161/218/286 157/229/286 128/228/286
f 135/186/287 137/197/287 165/218/287
f 137/197/288 134/228/288 163/229/288
f 169/221/289 155/216/289 127/186/289
f 129/192/290 136/198/290 150/214/290
f 163/230/291 134/327/291 128/231/291
f 148/201/292 135/186/292 162/216/292
f 143/231/293 149/327/293 178/230/293
f 177/214/294 164/198/294 156/192/294
f 183/233/432 186/244/432 187/234/432
f 188/236/433 187/240/433 186/237/433
f 185/239/434 189/266/434 187/240/434
f 193/241/435 194/246/435 196/242/435
f 191/233/436 195/235/436 194/234/436
f 192/245/437 196/242/437 194/246/437
f 197/248/438 200/257/438 201/249/438
f 198/251/439 202/255/439 201/252/439
f 203/254/440 201/252/440 202/255/440
f 204/248/441 207/250/441 208/249/441
f 209/258/442 208/262/442 207/259/442
f 206/261/443 210/272/443 208/262/443
f 211/263/444 214/267/444 215/264/444
f 212/239/445 216/236/445 215/240/445
f 217/237/446 215/240/446 216/236/446
f 218/263/447 221/265/447 222/264/447
f 223/242/448 222/246/448 221/241/448
f 220/245/449 224/247/449 222/246/449
f 225/268/450 228/271/450 229/269/450
f 230/255/451 229/252/451 228/254/451
f 227/251/452 231/253/452 229/252/452
f 232/268/453 235/270/453 236/269/453
f 233/261/454 237/258/454 236/262/454
f 238/259/455 236/262/455 237/258/455
f 197/248/456 183/233/456 189/235/456
f 189/266/320 185/239/320 198/251/320
f 190/243/321 196/242/321 188/236/321
f 196/242/322 192/245/322 185/239/322
f 204/248/323 210/257/323 195/235/323
f 195/247/324 210/272/324 206/261/324
f 199/256/325 202/255/325 209/258/325
f 209/258/326 202/255/326 198/251/326
f 225/268/327 197/248/327 203/250/327
f 203/250/328 199/274/328 226/273/328
f 204/248/457 232/268/457 238/271/457
f 207/250/330 238/271/330 234/273/330
f 233/261/331 227/251/331 230/255/331
f 230/255/332 226/256/332 234/260/332
f 225/268/333 231/270/333 214/267/333
f 214/266/334 231/253/334 227/251/334
f 232/268/335 218/263/335 224/267/335
f 224/247/336 220/245/336 233/261/336
f 213/238/337 216/236/337 223/242/337
f 216/236/338 212/239/338 220/245/338
f 211/263/458 217/265/458 186/244/458
f 186/244/340 217/265/340 213/275/340
f 191/233/341 193/244/341 221/265/341
f 193/244/342 190/276/342 219/275/342
f 225/268/343 211/263/343 183/233/343
f 192/245/344 206/261/344 198/251/344
f 213/277/345 219/328/345 190/278/345
f 204/248/346 191/233/346 218/263/346
f 205/278/347 234/328/347 226/277/347
f 227/251/348 233/261/348 220/245/348
f 239/280/459 242/291/459 243/281/459
f 244/283/460 243/287/460 242/284/460
f 241/286/461 245/313/461 243/287/461
f 249/288/462 250/293/462 252/289/462
f 247/280/463 251/282/463 250/281/463
f 248/292/464 252/289/464 250/293/464
f 253/295/465 256/304/465 257/296/465
f 254/298/466 258/302/466 257/299/466
f 259/301/467 257/299/467 258/302/467
f 260/295/468 263/297/468 264/296/468
f 265/305/469 264/309/469 263/306/469
f 262/308/470 266/319/470 264/309/470
f 267/310/471 270/314/471 271/311/471
f 268/286/472 272/283/472 271/287/472
f 273/284/473 271/287/473 272/283/473
f 274/310/474 277/312/474 278/311/474
f 279/289/475 278/293/475 277/288/475
f 276/292/476 280/294/476 278/293/476
f 281/315/477 284/318/477 285/316/477
f 286/302/478 285/299/478 284/301/478
f 283/298/479 287/300/479 285/299/479
f 288/315/480 291/317/480 292/316/480
f 289/308/481 293/305/481 292/309/481
f 294/306/482 292/309/482 293/305/482
f 239/280/483 245/282/483 256/304/483
f 245/313/374 241/286/374 254/298/374
f 246/290/375 252/289/375 244/283/375
f 252/289/376 248/292/376 241/286/376
f 260/295/484 266/304/484 251/282/484
f 266/319/378 262/308/378 248/292/378
f 261/307/379 255/303/379 258/302/379
f 258/302/380 254/298/380 262/308/380
f 281/315/381 253/295/381 259/297/381
f 259/297/382 255/321/382 282/320/382
f 288/315/383 294/318/383 263/297/383
f 294/318/384 290/320/384 261/321/384
f 283/298/385 286/302/385 293/305/385
f 286/302/386 282/303/386 290/307/386
f 267/310/485 281/315/485 287/317/485
f 287/300/388 283/298/388 268/286/388
f 288/315/389 274/310/389 280/314/389
f 280/294/390 276/292/390 289/308/390
f 275/290/486 269/285/486 272/283/486
f 279/289/392 272/283/392 268/286/392
f 267/310/393 273/312/393 242/291/393
f 273/312/394 269/323/394 240/322/394
f 274/310/395 247/280/395 249/291/395
f 249/291/396 246/322/396 275/323/396
f 253/295/397 281/315/397 267/310/397
f 241/286/398 248/292/398 262/308/398
f 269/324/399 275/329/399 246/325/399
f 288/315/400 260/295/400 247/280/400
f 261/325/401 290/329/401 282/324/401
f 289/308/402 276/292/402 268/286/402
