# Blender 4.5.10 LTS
# www.blender.org
mtllib grove_bonemeal_open_sack.mtl
o grove_bonemeal_open_sack
v 0.004065 -0.006848 0.001998
v -0.058531 0.027369 -0.043447
v 0.027445 0.027963 -0.071458
v 0.080646 0.029061 0.001653
v 0.027550 0.029146 0.074848
v -0.058466 0.028100 0.046974
v -0.020635 0.084428 -0.071880
v 0.065381 0.085473 -0.044006
v 0.065446 0.086204 0.046416
v -0.020529 0.085610 0.074427
v -0.073731 0.084512 0.001316
v 0.002851 0.120422 0.000970
v 0.017914 0.002441 -0.041088
v -0.032621 0.002092 -0.024624
v -0.018879 0.022553 -0.067800
v -0.069376 0.022634 0.001813
v -0.032583 0.002521 0.028525
v 0.049185 0.003086 0.001885
v 0.062927 0.023548 -0.041291
v 0.017976 0.003136 0.044908
v 0.062989 0.024243 0.044705
v -0.018779 0.023678 0.071345
v -0.078349 0.055792 -0.025025
v -0.078310 0.056222 0.028123
v 0.003396 0.056091 -0.084513
v -0.047140 0.055742 -0.068049
v 0.085226 0.057351 -0.025155
v 0.053955 0.056706 -0.068129
v 0.054055 0.057831 0.071017
v 0.085264 0.057781 0.027993
v -0.047039 0.056867 0.071098
v 0.003520 0.057482 0.087481
v -0.056074 0.089330 -0.041737
v 0.025694 0.089895 -0.068377
v 0.076291 0.090939 0.001156
v 0.025794 0.091020 0.070769
v -0.056012 0.090025 0.044259
v -0.011060 0.110437 -0.041940
v -0.042269 0.110487 0.001083
v 0.039499 0.111052 -0.025556
v 0.039537 0.111481 0.027592
v -0.010998 0.111132 0.044056
v 0.004262 -0.018405 0.002081
v -0.047615 0.003700 -0.035724
v 0.024305 0.002476 -0.059330
v 0.068983 0.002092 0.001784
v 0.024675 0.003079 0.063161
v -0.047386 0.004073 0.039979
v -0.014955 0.037860 -0.059386
v 0.057107 0.036867 -0.036204
v 0.057336 0.037239 0.039499
v -0.014584 0.038463 0.063106
v -0.059263 0.038847 0.001991
v 0.005458 0.059345 0.001695
v 0.015938 -0.012957 -0.033981
v -0.026336 -0.012237 -0.020106
v -0.014555 0.000037 -0.056203
v -0.056693 0.000975 0.002170
v -0.026201 -0.012018 0.024391
v 0.042199 -0.013182 0.001941
v 0.053980 -0.000909 -0.034156
v 0.016155 -0.012602 0.038017
v 0.054198 -0.000554 0.037842
v -0.014202 0.000610 0.060293
v -0.063675 0.021415 -0.020159
v -0.063540 0.021634 0.024338
v 0.004642 0.020115 -0.070111
v -0.037631 0.020835 -0.056236
v 0.073261 0.019305 -0.020563
v 0.046999 0.019531 -0.056485
v 0.047352 0.020105 0.060011
v 0.073395 0.019525 0.023934
v -0.037279 0.021408 0.060261
v 0.005078 0.020824 0.073887
v -0.044478 0.041494 -0.034067
v 0.023923 0.040330 -0.056517
v 0.066414 0.039964 0.001606
v 0.024275 0.040903 0.059978
v -0.044260 0.041848 0.037932
v -0.006435 0.053542 -0.034241
v -0.032479 0.054122 0.001835
v 0.035921 0.052958 -0.020615
v 0.036056 0.053177 0.023882
v -0.006217 0.053896 0.037757
v -0.011369 0.076213 0.055919
v 0.002199 0.088669 0.070195
v -0.024610 0.090398 0.068824
v -0.004210 0.079469 0.065293
v -0.011616 0.081586 0.067524
v -0.011307 0.089198 0.071081
v -0.018968 0.080421 0.064539
v -0.008405 0.131728 0.067972
v -0.023106 0.118555 0.074937
v 0.003702 0.116826 0.076308
v -0.016702 0.127944 0.074757
v -0.009268 0.125540 0.077033
v -0.009804 0.117354 0.077194
v -0.001395 0.126956 0.075540
v -0.043939 0.078676 0.044497
v -0.039837 0.091550 0.063484
v -0.061615 0.093495 0.047817
v -0.042866 0.082228 0.056158
v -0.050240 0.084507 0.053980
v -0.051669 0.092250 0.056927
v -0.054854 0.083299 0.047533
v -0.046279 0.134592 0.054690
v -0.062802 0.121854 0.052986
v -0.041023 0.119909 0.068654
v -0.057033 0.131163 0.056029
v -0.052073 0.128776 0.062022
v -0.052855 0.120610 0.062097
v -0.044597 0.130053 0.064975
v -0.065130 0.081014 0.017244
v -0.071523 0.094588 0.035075
v -0.081357 0.096131 0.010086
v -0.070404 0.085014 0.027536
v -0.075370 0.087279 0.021660
v -0.077930 0.095147 0.023154
v -0.075817 0.085864 0.013780
v -0.070921 0.137311 0.022999
v -0.084294 0.124683 0.013005
v -0.074460 0.123140 0.037994
v -0.080798 0.134047 0.018418
v -0.079923 0.131849 0.026204
v -0.080866 0.123700 0.026072
v -0.075182 0.133166 0.032687
v -0.068215 0.082485 -0.017189
v -0.082799 0.096818 -0.006012
v -0.077567 0.097470 -0.032389
v -0.078081 0.086943 -0.011486
v -0.079028 0.089024 -0.019172
v -0.081753 0.096970 -0.019517
v -0.075201 0.087302 -0.026006
v -0.074508 0.139021 -0.017041
v -0.080759 0.126144 -0.032314
v -0.085991 0.125493 -0.005937
v -0.080452 0.135679 -0.026134
v -0.083977 0.133782 -0.019049
v -0.084944 0.125645 -0.019441
v -0.083440 0.135307 -0.011073
v -0.052214 0.082622 -0.047869
v -0.070086 0.097534 -0.046733
v -0.051449 0.097087 -0.066123
v -0.063460 0.087402 -0.048517
v -0.060053 0.089186 -0.055555
v -0.061924 0.097140 -0.057536
v -0.053200 0.087156 -0.059191
v -0.055901 0.139181 -0.052716
v -0.053319 0.125773 -0.068582
v -0.071956 0.126220 -0.049192
v -0.056106 0.135541 -0.063482
v -0.062948 0.133963 -0.059370
v -0.063794 0.125826 -0.059995
v -0.066748 0.135796 -0.052411
v -0.022208 0.081382 -0.065055
v -0.037420 0.096507 -0.074158
v -0.011294 0.095104 -0.080406
v -0.031183 0.086246 -0.071802
v -0.024469 0.087715 -0.075935
v -0.024739 0.095603 -0.078833
v -0.016801 0.085473 -0.075241
v -0.021009 0.137738 -0.072701
v -0.010686 0.123687 -0.084284
v -0.036812 0.125090 -0.078037
v -0.015488 0.133677 -0.081769
v -0.023512 0.132332 -0.081956
v -0.024131 0.124186 -0.082712
v -0.030406 0.134478 -0.078202
v 0.012277 0.079157 -0.063291
v 0.004829 0.094064 -0.079581
v 0.030148 0.092149 -0.070702
v 0.008503 0.083841 -0.073947
v 0.016426 0.085078 -0.073843
v 0.017997 0.092847 -0.076648
v 0.022441 0.082788 -0.069059
v 0.019092 0.135152 -0.070650
v 0.033604 0.120549 -0.074435
v 0.008285 0.122463 -0.083314
v 0.028504 0.130679 -0.075189
v 0.021810 0.129409 -0.079638
v 0.021453 0.121246 -0.080380
v 0.014047 0.131772 -0.080259
v 0.040293 0.076656 -0.043137
v 0.043246 0.090980 -0.061280
v 0.059719 0.089162 -0.040094
v 0.042997 0.080952 -0.054271
v 0.049648 0.082111 -0.049943
v 0.052714 0.089747 -0.051672
v 0.052065 0.079951 -0.042608
v 0.051669 0.132243 -0.047214
v 0.065489 0.117355 -0.042161
v 0.049016 0.119172 -0.063348
v 0.061905 0.127499 -0.045830
v 0.058629 0.126121 -0.053151
v 0.058484 0.117939 -0.053740
v 0.052499 0.128536 -0.057927
v 0.052943 0.074671 -0.010992
v 0.065634 0.088234 -0.025065
v 0.068032 0.087090 0.001703
v 0.061348 0.078495 -0.019021
v 0.064650 0.079757 -0.011823
v 0.068391 0.087287 -0.011837
v 0.062668 0.077865 -0.004286
v 0.066380 0.129935 -0.009834
v 0.074847 0.115119 0.002290
v 0.072449 0.116263 -0.024478
v 0.074109 0.125145 -0.003014
v 0.075255 0.123513 -0.010904
v 0.075206 0.115316 -0.011250
v 0.072740 0.125798 -0.018298
v 0.046212 0.073833 0.022939
v 0.064885 0.086699 0.017566
v 0.052446 0.086592 0.041416
v 0.057729 0.077251 0.020611
v 0.056669 0.078763 0.028414
v 0.060050 0.086248 0.030211
v 0.050882 0.077192 0.033739
v 0.058553 0.128960 0.029621
v 0.058705 0.114552 0.044805
v 0.071144 0.114658 0.020955
v 0.061242 0.124367 0.039665
v 0.066409 0.122411 0.033689
v 0.066309 0.114208 0.033601
v 0.068345 0.124428 0.026047
v 0.022238 0.074408 0.047882
v 0.041237 0.086861 0.053078
v 0.017911 0.087825 0.066438
v 0.033290 0.077614 0.052042
v 0.028237 0.079445 0.057994
v 0.030340 0.086961 0.061122
v 0.020449 0.078145 0.059396
v 0.030674 0.129629 0.058626
v 0.022190 0.115832 0.071887
v 0.045516 0.114868 0.058527
v 0.027389 0.125410 0.068657
v 0.034900 0.123167 0.066471
v 0.034619 0.114968 0.066571
v 0.040708 0.124859 0.061028
v 0.000000 0.117000 0.094000
v 0.000000 0.147000 0.094000
v -0.043684 0.117000 0.083233
v -0.043684 0.147000 0.083233
v -0.077360 0.117000 0.053398
v -0.077360 0.147000 0.053398
v -0.093315 0.117000 0.011330
v -0.093315 0.147000 0.011330
v -0.087892 0.117000 -0.033333
v -0.087892 0.147000 -0.033333
v -0.062334 0.117000 -0.070360
v -0.062334 0.147000 -0.070360
v -0.022496 0.117000 -0.091269
v -0.022496 0.147000 -0.091269
v 0.022496 0.117000 -0.091269
v 0.022496 0.147000 -0.091269
v 0.062334 0.117000 -0.070360
v 0.062334 0.147000 -0.070360
v 0.087892 0.117000 -0.033333
v 0.087892 0.147000 -0.033333
v 0.093315 0.117000 0.011330
v 0.093315 0.147000 0.011330
v 0.077360 0.117000 0.053398
v 0.077360 0.147000 0.053398
v 0.043684 0.117000 0.083233
v 0.043684 0.147000 0.083233
v 0.001834 0.129105 0.000333
v -0.057442 0.138845 -0.042911
v 0.024594 0.138710 -0.069440
v 0.075176 0.139083 0.000383
v 0.024400 0.139448 0.070064
v -0.057563 0.139301 0.043307
v -0.020735 0.154842 -0.069588
v 0.061228 0.154989 -0.042831
v 0.061108 0.155445 0.043387
v -0.020929 0.155580 0.069916
v -0.071511 0.155207 0.000093
v 0.001831 0.165185 0.000143
v 0.015212 0.131584 -0.040661
v -0.033007 0.131663 -0.025068
v -0.019629 0.137309 -0.066080
v -0.067920 0.137656 0.000191
v -0.033078 0.131931 0.025609
v 0.044944 0.131803 0.000379
v 0.058322 0.137448 -0.040632
v 0.015098 0.132017 0.041337
v 0.058208 0.137882 0.041366
v -0.019814 0.138010 0.066596
v -0.076119 0.147005 -0.025209
v -0.076189 0.147273 0.025468
v 0.001947 0.146712 -0.081761
v -0.046273 0.146791 -0.066168
v 0.079855 0.147017 -0.024992
v 0.050123 0.146798 -0.066033
v 0.049939 0.147499 0.066643
v 0.079784 0.147285 0.025685
v -0.046458 0.147492 0.066509
v 0.001718 0.147578 0.082237
v -0.054542 0.156408 -0.040890
v 0.023480 0.156280 -0.066120
v 0.071585 0.156634 0.000285
v 0.023295 0.156981 0.066556
v -0.054657 0.156842 0.041108
v -0.011433 0.162273 -0.040861
v -0.041278 0.162487 0.000097
v 0.036743 0.162359 -0.025133
v 0.036673 0.162627 0.025544
v -0.011547 0.162706 0.041137
v -0.020042 0.137648 0.031789
v -0.018021 0.144296 0.032136
v -0.025668 0.141735 0.031995
v -0.018063 0.140651 0.033063
v -0.021152 0.140845 0.033927
v -0.022041 0.143541 0.033209
v -0.023470 0.138840 0.032964
v -0.036342 0.188107 -0.000894
v -0.039359 0.184118 0.004543
v -0.031712 0.186679 0.004683
v -0.039006 0.186934 0.001813
v -0.036349 0.187891 0.003454
v -0.035733 0.185924 0.005757
v -0.033599 0.188745 0.001912
v -0.026280 0.133040 0.026791
v -0.029673 0.138776 0.028786
v -0.030850 0.134820 0.021857
v -0.028240 0.135317 0.029142
v -0.030100 0.134236 0.026757
v -0.031471 0.136576 0.025654
v -0.029072 0.132520 0.024243
v -0.037811 0.187022 -0.002072
v -0.040535 0.180162 -0.002386
v -0.039359 0.184118 0.004543
v -0.040062 0.183971 -0.003267
v -0.040852 0.184566 -0.000153
v -0.041157 0.181918 0.001411
v -0.039230 0.186768 0.001633
v -0.022219 0.130325 0.018963
v -0.028242 0.133076 0.016831
v -0.021323 0.133192 0.012689
v -0.025967 0.130444 0.018258
v -0.024276 0.130341 0.015528
v -0.025333 0.132471 0.013821
v -0.021074 0.130526 0.015329
v -0.036855 0.186382 -0.003915
v -0.033616 0.180278 -0.006528
v -0.040535 0.180162 -0.002386
v -0.035024 0.183955 -0.006477
v -0.037921 0.182606 -0.005803
v -0.037626 0.179557 -0.005396
v -0.039916 0.183873 -0.003548
v -0.013472 0.133255 0.019124
v -0.015706 0.135074 0.012792
v -0.010253 0.139101 0.017161
v -0.014386 0.132766 0.015452
v -0.011727 0.134544 0.015759
v -0.012110 0.136900 0.014064
v -0.010530 0.135614 0.018541
v -0.034794 0.187072 -0.003878
v -0.028163 0.184306 -0.002159
v -0.033616 0.180278 -0.006528
v -0.030853 0.186909 -0.003382
v -0.031608 0.184721 -0.005687
v -0.030020 0.182104 -0.005256
v -0.034709 0.184061 -0.006471
v -0.012126 0.137781 0.027051
v -0.009389 0.142008 0.022251
v -0.012938 0.144381 0.029093
v -0.009501 0.139075 0.024602
v -0.009797 0.141036 0.027130
v -0.010076 0.143741 0.026046
v -0.012011 0.140753 0.029440
v -0.034477 0.188138 -0.002010
v -0.031712 0.186679 0.004683
v -0.028163 0.184306 -0.002159
v -0.033315 0.188750 0.001742
v -0.030636 0.187987 0.000034
v -0.028850 0.186040 0.001636
v -0.030805 0.187071 -0.003097
vn -0.0687 -0.9705 -0.2313
vn -0.5929 -0.7738 -0.2230
vn 0.2126 -0.9670 -0.1402
vn 0.2128 -0.9647 0.1555
vn -0.0683 -0.9666 0.2471
vn -0.8628 -0.4379 -0.2526
vn -0.0203 -0.4351 -0.9002
vn 0.8559 -0.4219 -0.2990
vn 0.5549 -0.4165 0.7201
vn -0.5074 -0.4264 0.7488
vn -0.7962 -0.1809 -0.5773
vn 0.3055 -0.1733 -0.9363
vn 0.9872 -0.1593 0.0006
vn 0.3069 -0.1582 0.9385
vn -0.7954 -0.1716 0.5813
vn -0.3581 0.7585 -0.5444
vn 0.3962 0.7660 -0.5062
vn 0.5929 0.7738 0.2230
vn -0.0399 0.7711 0.6355
vn -0.6276 0.7616 0.1612
vn -0.2126 0.9670 0.1402
vn -0.4062 0.8690 0.2825
vn -0.3573 0.7672 0.5326
vn 0.0687 0.9705 0.2313
vn 0.1441 0.8757 0.4609
vn 0.3969 0.7741 0.4932
vn 0.2422 0.9702 -0.0080
vn 0.4838 0.8752 -0.0074
vn 0.5926 0.7701 -0.2363
vn 0.0683 0.9666 -0.2471
vn 0.1434 0.8681 -0.4752
vn -0.0408 0.7607 -0.6478
vn -0.2128 0.9646 -0.1555
vn -0.4066 0.8643 -0.2960
vn -0.6279 0.7589 -0.1726
vn -0.8559 0.4219 0.2990
vn -0.7853 0.2470 0.5677
vn -0.5539 0.4281 0.7141
vn 0.0203 0.4351 0.9002
vn 0.2975 0.2602 0.9186
vn 0.5084 0.4385 0.7411
vn 0.8628 0.4379 0.2526
vn 0.9658 0.2591 -0.0028
vn 0.8624 0.4338 -0.2608
vn 0.5074 0.4264 -0.7488
vn 0.2962 0.2453 -0.9231
vn 0.0190 0.4205 -0.9071
vn -0.5549 0.4165 -0.7201
vn -0.7861 0.2378 -0.5705
vn -0.8564 0.4170 -0.3045
vn -0.3055 0.1733 0.9363
vn -0.2962 -0.2453 0.9231
vn -0.0190 -0.4205 0.9071
vn 0.7962 0.1809 0.5773
vn 0.7861 -0.2378 0.5705
vn 0.8564 -0.4170 0.3045
vn 0.7954 0.1716 -0.5813
vn 0.7853 -0.2470 -0.5677
vn 0.5539 -0.4281 -0.7141
vn -0.3069 0.1582 -0.9385
vn -0.2975 -0.2602 -0.9186
vn -0.5084 -0.4385 -0.7411
vn -0.9872 0.1593 -0.0006
vn -0.9658 -0.2591 0.0028
vn -0.8624 -0.4338 0.2608
vn -0.3962 -0.7660 0.5062
vn -0.1434 -0.8681 0.4752
vn 0.0408 -0.7607 0.6478
vn 0.3581 -0.7585 0.5444
vn 0.4066 -0.8643 0.2960
vn 0.6279 -0.7589 0.1726
vn 0.6276 -0.7616 -0.1612
vn 0.4062 -0.8690 -0.2825
vn 0.3574 -0.7672 -0.5326
vn -0.5926 -0.7701 0.2363
vn -0.4838 -0.8752 0.0074
vn -0.2422 -0.9702 0.0080
vn 0.0399 -0.7711 -0.6355
vn -0.1441 -0.8757 -0.4609
vn -0.3969 -0.7741 -0.4932
vn -0.0732 -0.9824 -0.1721
vn -0.5011 -0.8463 -0.1809
vn 0.1352 -0.9852 -0.1051
vn 0.1359 -0.9841 0.1139
vn -0.0721 -0.9806 0.1822
vn -0.8136 -0.5326 -0.2332
vn -0.0329 -0.5477 -0.8361
vn 0.7817 -0.5574 -0.2798
vn 0.5044 -0.5485 0.6669
vn -0.4815 -0.5331 0.6956
vn -0.7928 -0.2190 -0.5688
vn 0.2945 -0.2375 -0.9257
vn 0.9700 -0.2433 -0.0017
vn 0.3001 -0.2284 0.9262
vn -0.7893 -0.2133 0.5757
vn -0.2728 0.8551 -0.4408
vn 0.3399 0.8458 -0.4111
vn 0.5011 0.8463 0.1809
vn -0.0121 0.8559 0.5171
vn -0.4904 0.8613 0.1328
vn -0.1352 0.9852 0.1051
vn -0.2936 0.9302 0.2205
vn -0.2702 0.8594 0.4340
vn 0.0732 0.9824 0.1721
vn 0.1332 0.9243 0.3577
vn 0.3424 0.8498 0.4007
vn 0.2014 0.9795 -0.0054
vn 0.3955 0.9184 -0.0057
vn 0.4999 0.8445 -0.1923
vn 0.0721 0.9806 -0.1822
vn 0.1310 0.9207 -0.3676
vn -0.0153 0.8507 -0.5254
vn -0.1359 0.9841 -0.1139
vn -0.2949 0.9280 -0.2278
vn -0.4912 0.8600 -0.1383
vn -0.7817 0.5574 0.2798
vn -0.7558 0.3479 0.5547
vn -0.5004 0.5550 0.6645
vn 0.0329 0.5477 0.8361
vn 0.2991 0.3333 0.8941
vn 0.4857 0.5400 0.6874
vn 0.8136 0.5326 0.2332
vn 0.9478 0.3189 -0.0044
vn 0.8121 0.5303 -0.2434
vn 0.4815 0.5331 -0.6956
vn 0.2937 0.3245 -0.8991
vn 0.0278 0.5394 -0.8416
vn -0.5044 0.5485 -0.6669
vn -0.7592 0.3424 -0.5535
vn -0.7834 0.5547 -0.2805
vn -0.2945 0.2375 0.9257
vn -0.2937 -0.3245 0.8991
vn -0.0278 -0.5394 0.8416
vn 0.7928 0.2190 0.5688
vn 0.7592 -0.3424 0.5535
vn 0.7834 -0.5547 0.2805
vn 0.7893 0.2133 -0.5757
vn 0.7558 -0.3479 -0.5547
vn 0.5004 -0.5550 -0.6645
vn -0.3001 0.2284 -0.9262
vn -0.2991 -0.3333 -0.8941
vn -0.4857 -0.5400 -0.6874
vn -0.9700 0.2433 0.0017
vn -0.9478 -0.3189 0.0044
vn -0.8121 -0.5303 0.2434
vn -0.3399 -0.8458 0.4111
vn -0.1310 -0.9207 0.3676
vn 0.0153 -0.8507 0.5254
vn 0.2728 -0.8551 0.4408
vn 0.2949 -0.9280 0.2278
vn 0.4912 -0.8600 0.1383
vn 0.4904 -0.8613 -0.1328
vn 0.2936 -0.9302 -0.2205
vn 0.2702 -0.8594 -0.4340
vn -0.4999 -0.8445 0.1923
vn -0.3955 -0.9184 0.0057
vn -0.2014 -0.9795 0.0054
vn 0.0121 -0.8559 -0.5171
vn -0.1332 -0.9243 -0.3577
vn -0.3424 -0.8498 -0.4007
vn -0.0266 -0.9074 0.4195
vn 0.0379 -0.4903 0.8707
vn -0.1887 -0.4757 0.8591
vn -0.0424 0.8269 0.5607
vn -0.1551 0.1246 0.9800
vn 0.0694 0.1101 0.9915
vn -0.2756 -0.8897 0.3640
vn -0.4519 -0.4558 0.7668
vn -0.6360 -0.4394 0.6344
vn -0.3131 0.8489 0.4259
vn -0.6549 0.1649 0.7375
vn -0.4726 0.1486 0.8687
vn -0.4547 -0.8718 0.1824
vn -0.8073 -0.4205 0.4141
vn -0.8904 -0.4074 0.2029
vn -0.4677 0.8682 0.1657
vn -0.9438 0.2006 0.2626
vn -0.8615 0.1876 0.4718
vn -0.5072 -0.8592 -0.0675
vn -0.9153 -0.3955 -0.0754
vn -0.8711 -0.3900 -0.2984
vn -0.4571 0.8788 -0.1371
vn -0.9301 0.2204 -0.2939
vn -0.9739 0.2149 -0.0731
vn -0.4163 -0.8560 -0.3065
vn -0.7418 -0.3889 -0.5463
vn -0.5842 -0.3927 -0.7102
vn -0.2846 0.8772 -0.3866
vn -0.6181 0.2180 -0.7553
vn -0.7741 0.2217 -0.5930
vn -0.2109 -0.8632 -0.4587
vn -0.3418 -0.4027 -0.8491
vn -0.1209 -0.4146 -0.9019
vn -0.0051 0.8641 -0.5033
vn -0.1068 0.1941 -0.9751
vn -0.3255 0.2059 -0.9228
vn 0.0438 -0.8785 -0.4757
vn 0.1578 -0.4326 -0.8877
vn 0.3718 -0.4488 -0.8126
vn 0.2928 0.8435 -0.4504
vn 0.4413 0.1564 -0.8836
vn 0.2294 0.1724 -0.9579
vn 0.2669 -0.8971 -0.3521
vn 0.5982 -0.4690 -0.6498
vn 0.7375 -0.4843 -0.4706
vn 0.5144 0.8220 -0.2446
vn 0.8523 0.1168 -0.5098
vn 0.7144 0.1320 -0.6871
vn 0.3876 -0.9130 -0.1272
vn 0.8397 -0.5004 -0.2109
vn 0.8600 -0.5100 0.0154
vn 0.5894 0.8064 0.0488
vn 0.9957 0.0879 0.0277
vn 0.9757 0.0974 -0.1964
vn 0.3676 -0.9212 0.1276
vn 0.8056 -0.5168 0.2896
vn 0.7005 -0.5177 0.4912
vn 0.4940 0.8017 0.3366
vn 0.8260 0.0788 0.5581
vn 0.9301 0.0797 0.3585
vn 0.2132 -0.9191 0.3314
vn 0.5067 -0.5131 0.6928
vn 0.3095 -0.5049 0.8058
vn 0.2585 0.8093 0.5275
vn 0.3970 0.0925 0.9131
vn 0.5923 0.0844 0.8013
vn -0.3174 -0.5201 0.7930
vn -0.1766 -0.9369 0.3017
vn -0.3069 0.2271 0.9242
vn -0.0762 0.9075 0.4130
vn 0.0556 -0.2147 0.9751
vn -0.1814 -0.1994 0.9630
vn -0.6776 -0.1592 0.7180
vn -0.4851 -0.1764 0.8565
vn -0.7100 -0.4850 0.5105
vn -0.3393 -0.9224 0.1847
vn -0.7496 0.2666 0.6058
vn -0.2596 0.9239 0.2811
vn -0.9621 -0.1238 0.2430
vn -0.8752 -0.1374 0.4639
vn -0.8873 -0.4572 0.0600
vn -0.4127 -0.9109 -0.0019
vn -0.9495 0.2980 0.0978
vn -0.3424 0.9369 0.0707
vn -0.9446 -0.1043 -0.3112
vn -0.9909 -0.1101 -0.0780
vn -0.7930 -0.4454 -0.4156
vn -0.3736 -0.9060 -0.1989
vn -0.8432 0.3112 -0.4384
vn -0.2983 0.9424 -0.1514
vn -0.6307 -0.1070 -0.7686
vn -0.7954 -0.1030 -0.5972
vn -0.4570 -0.4535 -0.7652
vn -0.2345 -0.9093 -0.3437
vn -0.4643 0.3021 -0.8325
vn -0.1414 0.9386 -0.3147
vn -0.1200 -0.1310 -0.9841
vn -0.3509 -0.1186 -0.9289
vn 0.0140 -0.4788 -0.8778
vn -0.0394 -0.9198 -0.3904
vn 0.0667 0.2736 -0.9595
vn 0.0786 0.9268 -0.3673
vn 0.4254 -0.1686 -0.8892
vn 0.2016 -0.1517 -0.9677
vn 0.4705 -0.5133 -0.7177
vn 0.1497 -0.9341 -0.3241
vn 0.5814 0.2347 -0.7790
vn 0.2917 0.9107 -0.2925
vn 0.8322 -0.2080 -0.5140
vn 0.6866 -0.1920 -0.7013
vn 0.7675 -0.5461 -0.3358
vn 0.2727 -0.9477 -0.1659
vn 0.9163 0.1978 -0.3484
vn 0.4304 0.8954 -0.1141
vn 0.9713 -0.2366 0.0223
vn 0.9501 -0.2265 -0.2143
vn 0.8107 -0.5667 0.1468
vn 0.2907 -0.9562 0.0340
vn 0.9650 0.1745 0.1957
vn 0.4506 0.8857 0.1113
vn 0.7986 -0.2454 0.5495
vn 0.9086 -0.2445 0.3387
vn 0.5865 -0.5686 0.5768
vn 0.1978 -0.9570 0.2121
vn 0.7122 0.1723 0.6805
vn 0.3459 0.8848 0.3121
vn 0.3689 -0.2315 0.9002
vn 0.5751 -0.2400 0.7821
vn 0.1659 -0.5512 0.8177
vn 0.0236 -0.9498 0.3119
vn 0.2380 0.1919 0.9521
vn 0.1495 0.8930 0.4246
vn -0.0624 -0.9974 -0.0370
vn -0.3376 -0.1825 0.9234
vn 0.2159 -0.2182 0.9517
vn 0.0624 0.9974 0.0370
vn -0.7873 -0.1423 0.5999
vn -0.9903 -0.1104 0.0840
vn -0.8823 -0.0970 -0.4606
vn -0.4975 -0.1062 -0.8609
vn 0.0419 -0.1352 -0.9899
vn 0.5647 -0.1747 -0.8066
vn 0.9048 -0.2123 -0.3692
vn 0.9543 -0.2359 0.1835
vn 0.6975 -0.2381 0.6759
vn -0.2393 -0.0000 0.9709
vn -0.6631 -0.0000 0.7485
vn -0.9350 -0.0000 0.3546
vn -0.9927 -0.0000 -0.1205
vn -0.8230 -0.0000 -0.5681
vn -0.4647 -0.0000 -0.8855
vn -0.0000 -0.0000 -1.0000
vn 0.4647 -0.0000 -0.8855
vn 0.8230 -0.0000 -0.5681
vn 0.9927 -0.0000 -0.1205
vn 0.9350 -0.0000 0.3546
vn 0.6631 -0.0000 0.7485
vn 0.2393 -0.0000 0.9709
vn -0.0236 -0.9974 -0.0680
vn -0.2257 -0.9708 -0.0817
vn 0.0624 -0.9973 -0.0399
vn 0.0623 -0.9968 0.0506
vn -0.0238 -0.9966 0.0785
vn -0.5100 -0.8475 -0.1473
vn -0.0132 -0.8495 -0.5275
vn 0.5019 -0.8476 -0.1725
vn 0.3234 -0.8444 0.4271
vn -0.3019 -0.8444 0.4426
vn -0.7004 -0.5016 -0.5078
vn 0.2690 -0.5032 -0.8212
vn 0.8667 -0.4988 0.0038
vn 0.2667 -0.4945 0.8273
vn -0.7018 -0.4962 0.5111
vn -0.1317 0.9692 -0.2080
vn 0.1522 0.9693 -0.1930
vn 0.2257 0.9708 0.0817
vn -0.0128 0.9716 0.2364
vn -0.2337 0.9706 0.0574
vn -0.0624 0.9973 0.0399
vn -0.1343 0.9867 0.0920
vn -0.1323 0.9714 0.1974
vn 0.0236 0.9974 0.0680
vn 0.0509 0.9870 0.1525
vn 0.1517 0.9713 0.1832
vn 0.0770 0.9970 -0.0052
vn 0.1657 0.9862 -0.0050
vn 0.2260 0.9699 -0.0913
vn 0.0238 0.9966 -0.0785
vn 0.0514 0.9853 -0.1628
vn -0.0122 0.9690 -0.2467
vn -0.0623 0.9968 -0.0506
vn -0.1340 0.9856 -0.1028
vn -0.2336 0.9699 -0.0683
vn -0.5019 0.8476 0.1725
vn -0.6116 0.6578 0.4395
vn -0.3246 0.8489 0.4172
vn 0.0132 0.8495 0.5275
vn 0.2323 0.6594 0.7150
vn 0.3007 0.8490 0.4345
vn 0.5100 0.8475 0.1473
vn 0.7551 0.6556 -0.0024
vn 0.5104 0.8459 -0.1549
vn 0.3019 0.8444 -0.4426
vn 0.2343 0.6518 -0.7213
vn 0.0146 0.8438 -0.5364
vn -0.3234 0.8444 -0.4271
vn -0.6104 0.6532 -0.4482
vn -0.5014 0.8457 -0.1828
vn -0.2690 0.5032 0.8212
vn -0.2343 -0.6518 0.7213
vn -0.0146 -0.8438 0.5364
vn 0.7004 0.5016 0.5078
vn 0.6104 -0.6532 0.4482
vn 0.5014 -0.8457 0.1828
vn 0.7018 0.4962 -0.5111
vn 0.6116 -0.6578 -0.4395
vn 0.3246 -0.8489 -0.4172
vn -0.2667 0.4945 -0.8273
vn -0.2323 -0.6594 -0.7150
vn -0.3007 -0.8490 -0.4345
vn -0.8667 0.4988 -0.0038
vn -0.7551 -0.6556 0.0024
vn -0.5104 -0.8459 0.1549
vn -0.1522 -0.9693 0.1930
vn -0.0514 -0.9853 0.1628
vn 0.0122 -0.9690 0.2467
vn 0.1317 -0.9692 0.2080
vn 0.1340 -0.9856 0.1028
vn 0.2336 -0.9699 0.0683
vn 0.2337 -0.9706 -0.0574
vn 0.1343 -0.9867 -0.0920
vn 0.1323 -0.9714 -0.1974
vn -0.2259 -0.9699 0.0913
vn -0.1657 -0.9862 0.0050
vn -0.0770 -0.9970 0.0052
vn 0.0128 -0.9716 -0.2364
vn -0.0509 -0.9870 -0.1525
vn -0.1517 -0.9713 -0.1832
vn 0.1057 -0.5272 0.8432
vn 0.2755 0.2341 0.9324
vn -0.3697 0.1233 0.9209
vn -0.2718 0.9612 0.0472
vn -0.5638 0.6102 0.5566
vn 0.0288 0.7637 0.6449
vn -0.2679 -0.8433 0.4658
vn -0.7148 -0.2281 0.6610
vn -0.8757 -0.4766 0.0771
vn -0.6929 0.6871 -0.2184
vn -0.9647 0.0606 -0.2562
vn -0.9037 0.2901 0.3149
vn 0.0554 -0.9978 -0.0377
vn -0.6070 -0.7139 -0.3491
vn -0.0957 -0.6508 -0.7532
vn -0.4925 0.4963 -0.7149
vn -0.1986 -0.0623 -0.9781
vn -0.7256 -0.1595 -0.6694
vn 0.6288 -0.7770 0.0285
vn 0.4500 -0.5519 -0.7021
vn 0.8924 -0.1587 -0.4224
vn 0.0523 0.6525 -0.7560
vn 0.6759 0.4113 -0.6116
vn 0.3170 0.0362 -0.9477
vn 0.6599 -0.4862 0.5729
vn 0.9954 0.0340 0.0899
vn 0.7231 0.3198 0.6123
vn 0.1887 0.9398 -0.2850
vn 0.4502 0.8269 0.3369
vn 0.7832 0.6068 -0.1355
vn -0.5518 -0.1440 0.8214
vn -0.0161 -0.7250 0.6885
vn -0.7342 0.5177 0.4391
vn -0.5139 0.8465 -0.1390
vn 0.1120 0.5655 0.8171
vn -0.4568 0.3749 0.8067
vn -0.9708 -0.2344 -0.0505
vn -0.8833 0.0599 0.4649
vn -0.7136 -0.6881 -0.1315
vn -0.0843 -0.9541 0.2872
vn -0.0000 -0.1468 -0.9892
vn -0.5784 0.6298 -0.5185
vn -0.1785 -0.4114 -0.8938
vn -0.6932 -0.4200 -0.5857
vn 0.2380 -0.6721 -0.7011
vn 0.3164 -0.9474 0.0474
vn 0.0121 0.0186 -0.9998
vn -0.1994 0.6362 -0.7453
vn 0.8252 0.0885 -0.5578
vn 0.4196 -0.2111 -0.8828
vn 0.9879 -0.1182 -0.1003
vn 0.6322 -0.7142 0.3004
vn 0.7208 0.5421 -0.4319
vn 0.0993 0.8568 -0.5060
vn 0.6532 0.5745 0.4932
vn 0.9173 0.3980 -0.0158
vn 0.4998 0.2082 0.8408
vn 0.4267 -0.5767 0.6967
vn 0.2595 0.8506 0.4574
vn -0.0951 0.9868 -0.1313
vn 0.2779 -0.8538 0.4403
vn -0.7020 0.2133 0.6795
vn 0.4091 0.5855 0.6999
vn -0.2779 0.8538 -0.4403
vn -0.8730 -0.3615 -0.3274
vn 0.1325 -0.3447 -0.9293
vn 0.9249 0.2406 -0.2944
vn -0.1327 -0.9005 0.4141
vn 0.1481 -0.4236 0.8937
vn -0.2912 -0.3953 0.8712
vn 0.0908 0.8183 0.5675
vn -0.2815 0.0373 0.9588
vn 0.1851 0.0072 0.9827
vn -0.3617 -0.8820 0.3020
vn -0.3695 -0.3894 0.8437
vn -0.7264 -0.3575 0.5870
vn -0.2049 0.8392 0.5038
vn -0.7526 0.0781 0.6539
vn -0.3735 0.0442 0.9266
vn -0.4936 -0.8656 0.0835
vn -0.7774 -0.3519 0.5214
vn -0.9385 -0.3266 0.1120
vn -0.4188 0.8605 0.2899
vn -0.9836 0.1116 0.1420
vn -0.8124 0.0847 0.5769
vn -0.4865 -0.8566 -0.1719
vn -0.9459 -0.3230 0.0291
vn -0.8602 -0.3124 -0.4031
vn -0.4831 0.8755 -0.0060
vn -0.9012 0.1271 -0.4144
vn -0.9923 0.1157 0.0448
vn -0.3425 -0.8578 -0.3833
vn -0.8217 -0.3120 -0.4769
vn -0.5163 -0.3194 -0.7946
vn -0.3773 0.8795 -0.2902
vn -0.5316 0.1197 -0.8385
vn -0.8560 0.1274 -0.5010
vn -0.1075 -0.8688 -0.4834
vn -0.4441 -0.3223 -0.8360
vn -0.0160 -0.3453 -0.9383
vn -0.1350 0.8711 -0.4723
vn 0.0078 0.0917 -0.9958
vn -0.4469 0.1162 -0.8870
vn 0.1440 -0.8861 -0.4405
vn 0.0669 -0.3507 -0.9341
vn 0.4818 -0.3821 -0.7886
vn 0.1669 0.8530 -0.4945
vn 0.5459 0.0521 -0.8362
vn 0.1052 0.0854 -0.9908
vn 0.3321 -0.9043 -0.2683
vn 0.5492 -0.3881 -0.7401
vn 0.8191 -0.4179 -0.3930
vn 0.4325 0.8310 -0.3499
vn 0.9117 0.0134 -0.4106
vn 0.6250 0.0451 -0.7793
vn 0.3971 -0.9175 -0.0213
vn 0.8496 -0.4226 -0.3156
vn 0.8889 -0.4414 0.1230
vn 0.5775 0.8121 -0.0842
vn 0.9892 -0.0121 0.1461
vn 0.9475 0.0078 -0.3198
vn 0.3184 -0.9216 0.2220
vn 0.8727 -0.4434 0.2046
vn 0.6688 -0.4451 0.5954
vn 0.5558 0.8022 0.2181
vn 0.7537 -0.0163 0.6570
vn 0.9702 -0.0144 0.2419
vn 0.1209 -0.9153 0.3843
vn 0.6112 -0.4437 0.6554
vn 0.2289 -0.4280 0.8743
vn 0.3744 0.8045 0.4610
vn 0.2800 0.0021 0.9600
vn 0.6860 -0.0147 0.7275
vn 0.2053 -0.4938 0.8450
vn 0.1903 0.3108 0.9312
vn -0.3915 0.0107 0.9201
vn -0.3634 0.9305 0.0456
vn -0.5041 0.5852 0.6351
vn 0.0640 0.8205 0.5681
vn -0.2526 -0.7918 0.5561
vn -0.7896 -0.1869 0.5845
vn -0.8175 -0.5732 0.0566
vn -0.7070 0.6397 -0.3014
vn -0.9857 0.0144 -0.1680
vn -0.8681 0.3854 0.3127
vn -0.0347 -0.9993 0.0163
vn -0.6024 -0.6593 -0.4498
vn -0.0034 -0.7038 -0.7104
vn -0.4097 0.4977 -0.7645
vn -0.2434 -0.1515 -0.9580
vn -0.7666 -0.0718 -0.6380
vn 0.5578 -0.8295 -0.0285
vn 0.4931 -0.4536 -0.7423
vn 0.9256 -0.2006 -0.3209
vn 0.1177 0.7007 -0.7037
vn 0.6970 0.3169 -0.6433
vn 0.2282 0.0806 -0.9703
vn 0.7061 -0.5171 0.4837
vn 0.9830 0.1460 0.1112
vn 0.6858 0.2410 0.6868
vn 0.1462 0.9682 -0.2030
vn 0.5359 0.7722 0.3414
vn 0.7416 0.6321 -0.2248
vn -0.0000 1.0000 -0.0000
vn -0.5139 0.8465 -0.1389
vn -0.4568 0.3750 0.8067
vn -0.8872 0.0035 -0.4614
vn 0.3165 -0.9474 0.0474
vn -0.0000 -0.1544 -0.9880
vt 0.181819 0.000000
vt 0.227273 0.078731
vt 0.136365 0.078731
vt 0.272728 0.157461
vt 0.318182 0.078731
vt 0.363637 0.157461
vt 0.909091 0.000000
vt 0.954545 0.078731
vt 0.863636 0.078731
vt 0.727273 0.000000
vt 0.772727 0.078731
vt 0.681818 0.078731
vt 0.545455 0.000000
vt 0.590909 0.078731
vt 0.500000 0.078731
vt 0.318182 0.236191
vt 0.090910 0.157461
vt 0.181819 0.157461
vt 0.136365 0.236191
vt 0.818182 0.157461
vt 0.909091 0.157461
vt 0.863636 0.236191
vt 0.636364 0.157461
vt 0.727273 0.157461
vt 0.681818 0.236191
vt 0.454546 0.157461
vt 0.545455 0.157461
vt 0.500000 0.236191
vt 0.227273 0.236191
vt 0.045455 0.236191
vt 0.772727 0.236191
vt 0.590909 0.236191
vt 0.409092 0.236191
vt 0.181819 0.314921
vt 0.272728 0.314921
vt 0.227273 0.393651
vt 0.000000 0.314921
vt 0.090910 0.314921
vt 0.045455 0.393651
vt 0.727273 0.314921
vt 0.818182 0.314921
vt 0.772727 0.393651
vt 0.545455 0.314921
vt 0.636364 0.314921
vt 0.590909 0.393651
vt 0.363637 0.314921
vt 0.454546 0.314921
vt 0.409092 0.393651
vt 0.500000 0.393651
vt 0.454546 0.472382
vt 0.681818 0.393651
vt 0.636364 0.472382
vt 0.863636 0.393651
vt 0.818182 0.472382
vt 0.909091 0.314921
vt 0.136365 0.393651
vt 0.090910 0.472382
vt 0.318182 0.393651
vt 0.272728 0.472382
vt 0.954545 0.236191
vt 1.000000 0.157461
vt 0.409092 0.078731
vt 0.363637 0.000000
vt 0.750000 0.443923
vt 0.747288 0.489204
vt 0.776412 0.482245
vt -0.000000 0.617103
vt 0.018505 0.500000
vt 0.028719 0.623205
vt 0.981495 0.500000
vt 1.000000 0.617103
vt 0.971281 0.623205
vt 0.250000 0.449281
vt 0.253993 0.488828
vt 0.224800 0.482601
vt 1.000000 0.870694
vt 0.982344 1.000000
vt 0.972837 0.876795
vt 0.017655 1.000000
vt -0.000000 0.870694
vt 0.027163 0.876795
vt 0.854843 0.413138
vt 0.877042 0.452697
vt 0.897780 0.431097
vt 0.909091 0.617103
vt 0.927596 0.500000
vt 0.937810 0.623205
vt 0.890586 0.500000
vt 0.880372 0.623205
vt 0.357739 0.417646
vt 0.382479 0.448756
vt 0.354554 0.459300
vt 0.909091 0.870694
vt 0.891435 1.000000
vt 0.881928 0.876795
vt 0.926746 1.000000
vt 0.936254 0.876795
vt 0.926398 0.330559
vt 0.966461 0.351835
vt 0.972229 0.322453
vt 0.818182 0.617103
vt 0.836687 0.500000
vt 0.846901 0.623205
vt 0.799677 0.500000
vt 0.789462 0.623205
vt 0.431272 0.332784
vt 0.468904 0.345580
vt 0.451113 0.369548
vt 0.818182 0.870694
vt 0.800526 1.000000
vt 0.791019 0.876795
vt 0.835837 1.000000
vt 0.845345 0.876795
vt 0.941949 0.222402
vt 0.987155 0.218642
vt 0.976122 0.190805
vt 0.727273 0.617103
vt 0.745778 0.500000
vt 0.755992 0.623205
vt 0.708768 0.500000
vt 0.698553 0.623205
vt 0.447252 0.221639
vt 0.485828 0.212059
vt 0.483820 0.241841
vt 0.727273 0.870694
vt 0.709617 1.000000
vt 0.700109 0.876795
vt 0.744928 1.000000
vt 0.754436 0.876795
vt 0.896557 0.123007
vt 0.932554 0.095404
vt 0.908223 0.077951
vt 0.636363 0.617103
vt 0.654868 0.500000
vt 0.665083 0.623205
vt 0.617859 0.500000
vt 0.607644 0.623205
vt 0.400606 0.119499
vt 0.427879 0.090584
vt 0.442290 0.116724
vt 0.636364 0.870694
vt 0.618708 1.000000
vt 0.609200 0.876795
vt 0.654019 1.000000
vt 0.663527 0.876795
vt 0.804635 0.063932
vt 0.819993 0.021250
vt 0.790089 0.019722
vt 0.545454 0.617103
vt 0.563959 0.500000
vt 0.574174 0.623205
vt 0.526949 0.500000
vt 0.516735 0.623205
vt 0.306144 0.058791
vt 0.313454 0.019722
vt 0.339710 0.033921
vt 0.545454 0.870694
vt 0.527799 1.000000
vt 0.518291 0.876795
vt 0.563110 1.000000
vt 0.572618 0.876795
vt 0.695366 0.063932
vt 0.685210 0.019722
vt 0.659227 0.034604
vt 0.454545 0.617103
vt 0.473050 0.500000
vt 0.483265 0.623205
vt 0.436040 0.500000
vt 0.425826 0.623205
vt 0.193856 0.058791
vt 0.178883 0.021972
vt 0.208648 0.019722
vt 0.454545 0.870694
vt 0.436890 1.000000
vt 0.427382 0.876795
vt 0.472201 1.000000
vt 0.481708 0.876795
vt 0.603443 0.123007
vt 0.570998 0.091305
vt 0.557185 0.117873
vt 0.363636 0.617103
vt 0.382141 0.500000
vt 0.392355 0.623205
vt 0.345131 0.500000
vt 0.334917 0.623205
vt 0.099394 0.119499
vt 0.066891 0.096619
vt 0.090714 0.078634
vt 0.363636 0.870693
vt 0.345981 1.000000
vt 0.336473 0.876795
vt 0.381292 1.000000
vt 0.390799 0.876795
vt 0.558051 0.222402
vt 0.513617 0.213274
vt 0.516360 0.243091
vt 0.272727 0.617103
vt 0.291232 0.500000
vt 0.301446 0.623205
vt 0.254222 0.500000
vt 0.244008 0.623205
vt 0.052748 0.221639
vt 0.013035 0.219964
vt 0.023353 0.191954
vt 0.272727 0.870694
vt 0.255072 1.000000
vt 0.245564 0.876795
vt 0.290383 1.000000
vt 0.299890 0.876795
vt 0.573601 0.330559
vt 0.531286 0.346902
vt 0.549715 0.370503
vt 0.181818 0.617103
vt 0.200323 0.500000
vt 0.210537 0.623205
vt 0.163313 0.500000
vt 0.153099 0.623205
vt 0.068728 0.332784
vt 0.034414 0.352845
vt 0.027951 0.323703
vt 0.181818 0.870693
vt 0.164162 1.000000
vt 0.154655 0.876795
vt 0.199474 1.000000
vt 0.208981 0.876795
vt 0.645157 0.413138
vt 0.618395 0.449765
vt 0.646658 0.459656
vt 0.090909 0.617103
vt 0.109414 0.500000
vt 0.119628 0.623205
vt 0.072404 0.500000
vt 0.062190 0.623205
vt 0.142261 0.417646
vt 0.124239 0.453073
vt 0.103047 0.432052
vt 0.090909 0.870694
vt 0.073253 1.000000
vt 0.063746 0.876795
vt 0.108565 1.000000
vt 0.118072 0.876795
vt 0.853342 0.459656
vt 0.275200 0.482601
vt 0.950285 0.370503
vt 0.396953 0.432052
vt 0.840773 0.034604
vt 0.409286 0.078634
vt 0.709911 0.019722
vt 0.291352 0.019722
vt 0.160290 0.033921
vt 0.523878 0.190805
vt 0.527771 0.322453
vt 0.016181 0.241841
vt 0.602220 0.431097
vt 0.048887 0.369548
vt 0.723588 0.482245
vt 1.000000 1.000000
vt 0.923077 0.500000
vt 1.000000 0.500000
vt 0.846154 1.000000
vt 0.846154 0.500000
vt 0.769231 1.000000
vt 0.769231 0.500000
vt 0.692308 0.500000
vt 0.692308 1.000000
vt 0.615385 0.500000
vt 0.615385 1.000000
vt 0.538462 0.500000
vt 0.538462 1.000000
vt 0.461538 0.500000
vt 0.384615 1.000000
vt 0.384615 0.500000
vt 0.307692 1.000000
vt 0.307692 0.500000
vt 0.230769 0.500000
vt 0.153846 1.000000
vt 0.153846 0.500000
vt 0.076923 0.500000
vt 0.076923 1.000000
vt 0.000000 0.500000
vt 0.750000 0.384549
vt 0.727655 0.473765
vt 0.815208 0.442624
vt 0.063168 0.540011
vt 0.000000 0.518873
vt 0.057136 0.500000
vt 0.936832 0.540011
vt 0.980421 0.500000
vt 1.000000 0.541291
vt 0.250000 0.305461
vt 0.283315 0.465795
vt 0.139899 0.410007
vt 0.900000 0.959989
vt 1.000000 0.985052
vt 0.903527 1.000000
vt 0.100000 0.959989
vt 0.029191 1.000000
vt 0.000000 0.961270
vt 0.877964 0.291578
vt 0.955908 0.340399
vt 0.953347 0.247508
vt 0.863168 0.540011
vt 0.790210 0.509436
vt 0.857136 0.500000
vt 0.736832 0.540011
vt 0.800000 0.541291
vt 0.302747 0.267138
vt 0.465528 0.285000
vt 0.368153 0.404157
vt 0.700000 0.959989
vt 0.814595 0.992526
vt 0.703527 1.000000
vt 0.800000 0.961270
vt 0.829086 0.141147
vt 0.899604 0.082105
vt 0.810467 0.055836
vt 0.663168 0.540011
vt 0.590210 0.509436
vt 0.657136 0.500000
vt 0.536832 0.540011
vt 0.600000 0.541291
vt 0.282599 0.205131
vt 0.349889 0.055836
vt 0.433123 0.185267
vt 0.500000 0.959989
vt 0.614596 0.992526
vt 0.503527 1.000000
vt 0.700000 0.959989
vt 0.600000 0.961270
vt 0.670914 0.141147
vt 0.636552 0.055836
vt 0.584024 0.132492
vt 0.463168 0.540011
vt 0.390210 0.509436
vt 0.457136 0.500000
vt 0.336832 0.540011
vt 0.400000 0.541291
vt 0.217401 0.205131
vt 0.096206 0.095000
vt 0.245024 0.055836
vt 0.300000 0.959989
vt 0.414595 0.992526
vt 0.303527 1.000000
vt 0.400000 0.961270
vt 0.622036 0.291578
vt 0.530282 0.297895
vt 0.586954 0.371540
vt 0.263168 0.540011
vt 0.190210 0.509436
vt 0.257136 0.500000
vt 0.136832 0.540011
vt 0.200000 0.541291
vt 0.197253 0.267139
vt 0.055061 0.348369
vt 0.063801 0.194733
vt 0.100000 0.959989
vt 0.214596 0.992526
vt 0.103527 1.000000
vt 0.200000 0.961270
vt 0.942864 0.500000
vt 0.913046 0.371540
vt 0.896473 1.000000
vt 0.000000 0.541291
vt 1.000000 0.961270
vt 0.742864 0.500000
vt 0.915976 0.132492
vt 0.696473 1.000000
vt 0.436199 0.194733
vt 0.542864 0.500000
vt 0.689533 0.055836
vt 0.496473 1.000000
vt 0.342864 0.500000
vt 0.296473 1.000000
vt 0.142864 0.500000
vt 0.096473 1.000000
vt 0.131848 0.404157
vt -0.000000 0.545045
vt 0.998100 0.500000
vt 1.000000 0.940851
vt 0.002797 1.000000
vt 0.908141 0.522523
vt 0.910490 0.970425
vt 0.817232 0.522522
vt 0.472049 0.323703
vt 0.819581 0.970425
vt 0.983640 0.243091
vt 0.726323 0.522523
vt 0.476647 0.191954
vt 0.728671 0.970425
vt 0.942815 0.117873
vt 0.635414 0.522523
vt 0.637762 0.970425
vt 0.544504 0.522523
vt 0.546853 0.970425
vt 0.453595 0.522522
vt 0.455944 0.970425
vt 0.591777 0.077951
vt 0.362686 0.522522
vt 0.057710 0.116724
vt 0.365035 0.970425
vt 0.271777 0.522523
vt 0.274126 0.970425
vt 0.180868 0.522523
vt 0.183217 0.970425
vt 0.089959 0.522522
vt 0.145446 0.459300
vt 0.092308 0.970425
vt 0.923077 1.000000
vt 0.461538 1.000000
vt 0.230769 1.000000
vt 0.000000 1.000000
vt 0.684792 0.442624
vt 0.360101 0.410007
vt 0.254976 0.055836
vt 0.066877 0.185268
vt 0.546654 0.247508
s 0
usemtl bone
f 1/1/1 14/2/1 13/3/1
f 2/4/2 14/5/2 16/6/2
f 1/7/3 13/8/3 18/9/3
f 1/10/4 18/11/4 20/12/4
f 1/13/5 20/14/5 17/15/5
f 2/4/6 16/6/6 23/16/6
f 3/17/7 15/18/7 25/19/7
f 4/20/8 19/21/8 27/22/8
f 5/23/9 21/24/9 29/25/9
f 6/26/10 22/27/10 31/28/10
f 2/4/11 23/16/11 26/29/11
f 3/17/12 25/19/12 28/30/12
f 4/20/13 27/22/13 30/31/13
f 5/23/14 29/25/14 32/32/14
f 6/26/15 31/28/15 24/33/15
f 7/34/16 33/35/16 38/36/16
f 8/37/17 34/38/17 40/39/17
f 9/40/18 35/41/18 41/42/18
f 10/43/19 36/44/19 42/45/19
f 11/46/20 37/47/20 39/48/20
f 39/48/21 42/49/21 12/50/21
f 39/48/22 37/47/22 42/49/22
f 37/47/23 10/43/23 42/49/23
f 42/45/24 41/51/24 12/52/24
f 42/45/25 36/44/25 41/51/25
f 36/44/26 9/40/26 41/51/26
f 41/42/27 40/53/27 12/54/27
f 41/42/28 35/41/28 40/53/28
f 35/41/29 8/55/29 40/53/29
f 40/39/30 38/56/30 12/57/30
f 40/39/31 34/38/31 38/56/31
f 34/38/32 7/34/32 38/56/32
f 38/36/33 39/58/33 12/59/33
f 38/36/34 33/35/34 39/58/34
f 33/35/35 11/46/35 39/58/35
f 24/33/36 37/47/36 11/46/36
f 24/33/37 31/28/37 37/47/37
f 31/28/38 10/43/38 37/47/38
f 32/32/39 36/44/39 10/43/39
f 32/32/40 29/25/40 36/44/40
f 29/25/41 9/40/41 36/44/41
f 30/31/42 35/41/42 9/40/42
f 30/31/43 27/22/43 35/41/43
f 27/22/44 8/55/44 35/41/44
f 28/30/45 34/38/45 8/37/45
f 28/30/46 25/19/46 34/38/46
f 25/19/47 7/34/47 34/38/47
f 26/29/48 33/35/48 7/34/48
f 26/29/49 23/16/49 33/35/49
f 23/16/50 11/46/50 33/35/50
f 31/28/51 32/32/51 10/43/51
f 31/28/52 22/27/52 32/32/52
f 22/27/53 5/23/53 32/32/53
f 29/25/54 30/31/54 9/40/54
f 29/25/55 21/24/55 30/31/55
f 21/24/56 4/20/56 30/31/56
f 27/22/57 28/60/57 8/55/57
f 27/22/58 19/21/58 28/60/58
f 19/21/59 3/61/59 28/60/59
f 25/19/60 26/29/60 7/34/60
f 25/19/61 15/18/61 26/29/61
f 15/18/62 2/4/62 26/29/62
f 23/16/63 24/33/63 11/46/63
f 23/16/64 16/6/64 24/33/64
f 16/6/65 6/26/65 24/33/65
f 17/15/66 22/27/66 6/26/66
f 17/15/67 20/14/67 22/27/67
f 20/14/68 5/23/68 22/27/68
f 20/12/69 21/24/69 5/23/69
f 20/12/70 18/11/70 21/24/70
f 18/11/71 4/20/71 21/24/71
f 18/9/72 19/21/72 4/20/72
f 18/9/73 13/8/73 19/21/73
f 13/8/74 3/61/74 19/21/74
f 16/6/75 17/62/75 6/26/75
f 16/6/76 14/5/76 17/62/76
f 14/5/77 1/63/77 17/62/77
f 13/3/78 15/18/78 3/17/78
f 13/3/79 14/2/79 15/18/79
f 14/2/80 2/4/80 15/18/80
f 43/1/81 56/2/81 55/3/81
f 44/4/82 56/5/82 58/6/82
f 43/7/83 55/8/83 60/9/83
f 43/10/84 60/11/84 62/12/84
f 43/13/85 62/14/85 59/15/85
f 44/4/86 58/6/86 65/16/86
f 45/17/87 57/18/87 67/19/87
f 46/20/88 61/21/88 69/22/88
f 47/23/89 63/24/89 71/25/89
f 48/26/90 64/27/90 73/28/90
f 44/4/91 65/16/91 68/29/91
f 45/17/92 67/19/92 70/30/92
f 46/20/93 69/22/93 72/31/93
f 47/23/94 71/25/94 74/32/94
f 48/26/95 73/28/95 66/33/95
f 49/34/96 75/35/96 80/36/96
f 50/37/97 76/38/97 82/39/97
f 51/40/98 77/41/98 83/42/98
f 52/43/99 78/44/99 84/45/99
f 53/46/100 79/47/100 81/48/100
f 81/48/101 84/49/101 54/50/101
f 81/48/102 79/47/102 84/49/102
f 79/47/103 52/43/103 84/49/103
f 84/45/104 83/51/104 54/52/104
f 84/45/105 78/44/105 83/51/105
f 78/44/106 51/40/106 83/51/106
f 83/42/107 82/53/107 54/54/107
f 83/42/108 77/41/108 82/53/108
f 77/41/109 50/55/109 82/53/109
f 82/39/110 80/56/110 54/57/110
f 82/39/111 76/38/111 80/56/111
f 76/38/112 49/34/112 80/56/112
f 80/36/113 81/58/113 54/59/113
f 80/36/114 75/35/114 81/58/114
f 75/35/115 53/46/115 81/58/115
f 66/33/116 79/47/116 53/46/116
f 66/33/117 73/28/117 79/47/117
f 73/28/118 52/43/118 79/47/118
f 74/32/119 78/44/119 52/43/119
f 74/32/120 71/25/120 78/44/120
f 71/25/121 51/40/121 78/44/121
f 72/31/122 77/41/122 51/40/122
f 72/31/123 69/22/123 77/41/123
f 69/22/124 50/55/124 77/41/124
f 70/30/125 76/38/125 50/37/125
f 70/30/126 67/19/126 76/38/126
f 67/19/127 49/34/127 76/38/127
f 68/29/128 75/35/128 49/34/128
f 68/29/129 65/16/129 75/35/129
f 65/16/130 53/46/130 75/35/130
f 73/28/131 74/32/131 52/43/131
f 73/28/132 64/27/132 74/32/132
f 64/27/133 47/23/133 74/32/133
f 71/25/134 72/31/134 51/40/134
f 71/25/135 63/24/135 72/31/135
f 63/24/136 46/20/136 72/31/136
f 69/22/137 70/60/137 50/55/137
f 69/22/138 61/21/138 70/60/138
f 61/21/139 45/61/139 70/60/139
f 67/19/140 68/29/140 49/34/140
f 67/19/141 57/18/141 68/29/141
f 57/18/142 44/4/142 68/29/142
f 65/16/143 66/33/143 53/46/143
f 65/16/144 58/6/144 66/33/144
f 58/6/145 48/26/145 66/33/145
f 59/15/146 64/27/146 48/26/146
f 59/15/147 62/14/147 64/27/147
f 62/14/148 47/23/148 64/27/148
f 62/12/149 63/24/149 47/23/149
f 62/12/150 60/11/150 63/24/150
f 60/11/151 46/20/151 63/24/151
f 60/9/152 61/21/152 46/20/152
f 60/9/153 55/8/153 61/21/153
f 55/8/154 45/61/154 61/21/154
f 58/6/155 59/62/155 48/26/155
f 58/6/156 56/5/156 59/62/156
f 56/5/157 43/63/157 59/62/157
f 55/3/158 57/18/158 45/17/158
f 55/3/159 56/2/159 57/18/159
f 56/2/160 44/4/160 57/18/160
f 85/64/161 89/65/161 91/66/161
f 90/67/162 88/68/162 86/69/162
f 91/70/163 90/71/163 87/72/163
f 92/73/164 96/74/164 98/75/164
f 97/76/165 95/77/165 93/78/165
f 98/79/166 97/80/166 94/81/166
f 99/82/167 103/83/167 105/84/167
f 104/85/168 102/86/168 100/87/168
f 105/88/169 104/85/169 101/89/169
f 106/90/170 110/91/170 112/92/170
f 111/93/171 109/94/171 107/95/171
f 112/96/172 111/93/172 108/97/172
f 113/98/173 117/99/173 119/100/173
f 118/101/174 116/102/174 114/103/174
f 119/104/175 118/101/175 115/105/175
f 120/106/176 124/107/176 126/108/176
f 125/109/177 123/110/177 121/111/177
f 126/112/178 125/109/178 122/113/178
f 127/114/179 131/115/179 133/116/179
f 132/117/180 130/118/180 128/119/180
f 133/120/181 132/117/181 129/121/181
f 134/122/182 138/123/182 140/124/182
f 139/125/183 137/126/183 135/127/183
f 140/128/184 139/125/184 136/129/184
f 141/130/185 145/131/185 147/132/185
f 146/133/186 144/134/186 142/135/186
f 147/136/187 146/133/187 143/137/187
f 148/138/188 152/139/188 154/140/188
f 153/141/189 151/142/189 149/143/189
f 154/144/190 153/141/190 150/145/190
f 155/146/191 159/147/191 161/148/191
f 160/149/192 158/150/192 156/151/192
f 161/152/193 160/149/193 157/153/193
f 162/154/194 166/155/194 168/156/194
f 167/157/195 165/158/195 163/159/195
f 168/160/196 167/157/196 164/161/196
f 169/162/197 173/163/197 175/164/197
f 174/165/198 172/166/198 170/167/198
f 175/168/199 174/165/199 171/169/199
f 176/170/200 180/171/200 182/172/200
f 181/173/201 179/174/201 177/175/201
f 182/176/202 181/173/202 178/177/202
f 183/178/203 187/179/203 189/180/203
f 188/181/204 186/182/204 184/183/204
f 189/184/205 188/181/205 185/185/205
f 190/186/206 194/187/206 196/188/206
f 195/189/207 193/190/207 191/191/207
f 196/192/208 195/189/208 192/193/208
f 197/194/209 201/195/209 203/196/209
f 202/197/210 200/198/210 198/199/210
f 203/200/211 202/197/211 199/201/211
f 204/202/212 208/203/212 210/204/212
f 209/205/213 207/206/213 205/207/213
f 210/208/214 209/205/214 206/209/214
f 211/210/215 215/211/215 217/212/215
f 216/213/216 214/214/216 212/215/216
f 217/216/217 216/213/217 213/217/217
f 218/218/218 222/219/218 224/220/218
f 223/221/219 221/222/219 219/223/219
f 224/224/220 223/221/220 220/225/220
f 225/226/221 229/227/221 231/228/221
f 230/229/222 228/230/222 226/231/222
f 231/232/223 230/229/223 227/233/223
f 232/234/224 236/235/224 238/236/224
f 237/237/225 235/238/225 233/239/225
f 238/240/226 237/237/226 234/241/226
f 100/87/227 91/70/227 87/72/227
f 102/242/228 85/64/228 91/66/228
f 108/97/229 95/77/229 112/96/229
f 95/243/230 106/90/230 112/92/230
f 94/81/231 90/67/231 86/69/231
f 90/71/232 93/78/232 87/72/232
f 101/89/233 111/93/233 107/95/233
f 104/85/234 108/97/234 111/93/234
f 101/89/235 116/102/235 105/88/235
f 116/244/236 99/82/236 105/84/236
f 107/95/237 126/112/237 122/113/237
f 109/245/238 120/106/238 126/108/238
f 121/111/239 118/101/239 125/109/239
f 118/101/240 122/113/240 125/109/240
f 128/119/241 119/104/241 115/105/241
f 119/100/242 127/114/242 113/98/242
f 121/111/243 140/128/243 136/129/243
f 140/124/244 120/106/244 134/122/244
f 129/121/245 139/125/245 135/127/245
f 139/125/246 128/119/246 136/129/246
f 129/121/247 144/134/247 133/120/247
f 133/116/248 141/130/248 127/114/248
f 135/127/249 154/144/249 150/145/249
f 154/140/250 134/122/250 148/138/250
f 143/137/251 153/141/251 149/143/251
f 153/141/252 142/135/252 150/145/252
f 156/151/253 147/136/253 143/137/253
f 158/246/254 141/130/254 147/132/254
f 164/161/255 151/142/255 168/160/255
f 151/247/256 162/154/256 168/156/256
f 163/159/257 160/149/257 167/157/257
f 160/149/258 164/161/258 167/157/258
f 170/167/259 161/152/259 157/153/259
f 172/248/260 155/146/260 161/148/260
f 163/159/261 182/176/261 178/177/261
f 165/249/262 176/170/262 182/172/262
f 171/169/263 181/173/263 177/175/263
f 174/165/264 178/177/264 181/173/264
f 184/183/265 175/168/265 171/169/265
f 175/164/266 183/178/266 169/162/266
f 192/193/267 179/174/267 196/192/267
f 179/250/268 190/186/268 196/188/268
f 185/185/269 195/189/269 191/191/269
f 195/189/270 184/183/270 192/193/270
f 185/185/271 200/198/271 189/184/271
f 200/251/272 183/178/272 189/180/272
f 191/191/273 210/208/273 206/209/273
f 210/204/274 190/186/274 204/202/274
f 199/201/275 209/205/275 205/207/275
f 202/197/276 206/209/276 209/205/276
f 212/215/277 203/200/277 199/201/277
f 214/252/278 197/194/278 203/196/278
f 220/225/279 207/206/279 224/224/279
f 207/253/280 218/218/280 224/220/280
f 219/223/281 216/213/281 223/221/281
f 216/213/282 220/225/282 223/221/282
f 226/231/283 217/216/283 213/217/283
f 228/254/284 211/210/284 217/212/284
f 234/241/285 221/222/285 238/240/285
f 221/255/286 232/234/286 238/236/286
f 227/233/287 237/237/287 233/239/287
f 237/237/288 226/231/288 234/241/288
f 227/233/289 88/68/289 231/232/289
f 88/256/290 225/226/290 231/228/290
f 233/239/291 98/79/291 94/81/291
f 98/75/292 232/234/292 92/73/292
f 99/82/293 155/146/293 211/210/293
f 93/78/294 100/87/294 87/72/294
f 227/233/295 94/81/295 86/69/295
f 92/73/296 190/186/296 134/122/296
f 107/95/297 114/103/297 101/89/297
f 121/111/298 128/119/298 115/105/298
f 135/127/299 142/135/299 129/121/299
f 143/137/300 164/161/300 156/151/300
f 157/153/301 178/177/301 170/167/301
f 171/169/302 192/193/302 184/183/302
f 191/191/303 198/199/303 185/185/303
f 199/201/304 220/225/304 212/215/304
f 219/223/305 226/231/305 213/217/305
f 240/257/306 241/258/306 239/259/306
f 241/258/307 244/260/307 243/261/307
f 243/261/308 246/262/308 245/263/308
f 246/262/309 247/264/309 245/263/309
f 248/265/310 249/266/310 247/264/310
f 250/267/311 251/268/311 249/266/311
f 252/269/312 253/270/312 251/268/312
f 253/270/313 256/271/313 255/272/313
f 255/272/314 258/273/314 257/274/314
f 258/273/315 259/275/315 257/274/315
f 259/275/316 262/276/316 261/277/316
f 262/276/317 263/278/317 261/277/317
f 264/279/318 239/280/318 263/278/318
f 265/1/319 278/2/319 277/3/319
f 266/4/320 278/5/320 280/6/320
f 265/7/321 277/8/321 282/9/321
f 265/10/322 282/11/322 284/12/322
f 265/13/323 284/14/323 281/15/323
f 266/4/324 280/6/324 287/16/324
f 267/17/325 279/18/325 289/19/325
f 268/20/326 283/21/326 291/22/326
f 269/23/327 285/24/327 293/25/327
f 270/26/328 286/27/328 295/28/328
f 266/4/329 287/16/329 290/29/329
f 267/17/330 289/19/330 292/30/330
f 268/20/331 291/22/331 294/31/331
f 269/23/332 293/25/332 296/32/332
f 270/26/333 295/28/333 288/33/333
f 271/34/334 297/35/334 302/36/334
f 272/37/335 298/38/335 304/39/335
f 273/40/336 299/41/336 305/42/336
f 274/43/337 300/44/337 306/45/337
f 275/46/338 301/47/338 303/48/338
f 303/48/339 306/49/339 276/50/339
f 303/48/340 301/47/340 306/49/340
f 301/47/341 274/43/341 306/49/341
f 306/45/342 305/51/342 276/52/342
f 306/45/343 300/44/343 305/51/343
f 300/44/344 273/40/344 305/51/344
f 305/42/345 304/53/345 276/54/345
f 305/42/346 299/41/346 304/53/346
f 299/41/347 272/55/347 304/53/347
f 304/39/348 302/56/348 276/57/348
f 304/39/349 298/38/349 302/56/349
f 298/38/350 271/34/350 302/56/350
f 302/36/351 303/58/351 276/59/351
f 302/36/352 297/35/352 303/58/352
f 297/35/353 275/46/353 303/58/353
f 288/33/354 301/47/354 275/46/354
f 288/33/355 295/28/355 301/47/355
f 295/28/356 274/43/356 301/47/356
f 296/32/357 300/44/357 274/43/357
f 296/32/358 293/25/358 300/44/358
f 293/25/359 273/40/359 300/44/359
f 294/31/360 299/41/360 273/40/360
f 294/31/361 291/22/361 299/41/361
f 291/22/362 272/55/362 299/41/362
f 292/30/363 298/38/363 272/37/363
f 292/30/364 289/19/364 298/38/364
f 289/19/365 271/34/365 298/38/365
f 290/29/366 297/35/366 271/34/366
f 290/29/367 287/16/367 297/35/367
f 287/16/368 275/46/368 297/35/368
f 295/28/369 296/32/369 274/43/369
f 295/28/370 286/27/370 296/32/370
f 286/27/371 269/23/371 296/32/371
f 293/25/372 294/31/372 273/40/372
f 293/25/373 285/24/373 294/31/373
f 285/24/374 268/20/374 294/31/374
f 291/22/375 292/60/375 272/55/375
f 291/22/376 283/21/376 292/60/376
f 283/21/377 267/61/377 292/60/377
f 289/19/378 290/29/378 271/34/378
f 289/19/379 279/18/379 290/29/379
f 279/18/380 266/4/380 290/29/380
f 287/16/381 288/33/381 275/46/381
f 287/16/382 280/6/382 288/33/382
f 280/6/383 270/26/383 288/33/383
f 281/15/384 286/27/384 270/26/384
f 281/15/385 284/14/385 286/27/385
f 284/14/386 269/23/386 286/27/386
f 284/12/387 285/24/387 269/23/387
f 284/12/388 282/11/388 285/24/388
f 282/11/389 268/20/389 285/24/389
f 282/9/390 283/21/390 268/20/390
f 282/9/391 277/8/391 283/21/391
f 277/8/392 267/61/392 283/21/392
f 280/6/393 281/62/393 270/26/393
f 280/6/394 278/5/394 281/62/394
f 278/5/395 265/63/395 281/62/395
f 277/3/396 279/18/396 267/17/396
f 277/3/397 278/2/397 279/18/397
f 278/2/398 266/4/398 279/18/398
f 307/281/399 311/282/399 313/283/399
f 308/284/400 311/285/400 310/286/400
f 309/287/401 311/288/401 312/289/401
f 314/290/402 318/291/402 320/292/402
f 315/293/403 318/294/403 317/295/403
f 316/296/404 318/297/404 319/298/404
f 321/299/405 325/300/405 327/301/405
f 322/302/406 325/303/406 324/304/406
f 323/305/407 325/303/407 326/306/407
f 328/307/408 332/308/408 334/309/408
f 329/310/409 332/311/409 331/312/409
f 330/293/410 332/311/410 333/313/410
f 335/314/411 339/315/411 341/316/411
f 336/317/412 339/318/412 338/319/412
f 337/320/413 339/318/413 340/321/413
f 342/322/414 346/323/414 348/324/414
f 343/325/415 346/326/415 345/327/415
f 344/328/416 346/326/416 347/329/416
f 349/330/417 353/331/417 355/332/417
f 350/333/418 353/334/418 352/335/418
f 351/336/419 353/334/419 354/337/419
f 356/338/420 360/339/420 362/340/420
f 357/341/421 360/342/421 359/343/421
f 358/325/422 360/342/422 361/344/422
f 363/345/423 367/346/423 369/347/423
f 364/348/424 367/349/424 366/350/424
f 365/351/425 367/349/425 368/352/425
f 370/353/426 374/354/426 376/355/426
f 371/356/427 374/357/427 373/358/427
f 372/341/428 374/357/428 375/359/428
f 309/287/429 324/304/429 313/360/429
f 324/361/430 307/281/430 313/283/430
f 330/293/431 317/295/431 334/362/431
f 334/309/432 314/290/432 328/307/432
f 308/284/433 319/298/433 312/363/433
f 319/364/434 309/287/434 312/289/434
f 323/305/435 333/313/435 329/310/435
f 333/313/436 322/302/436 330/293/436
f 323/305/437 338/319/437 327/365/437
f 338/366/438 321/299/438 327/301/438
f 329/310/439 348/367/439 344/328/439
f 331/368/440 342/322/440 348/324/440
f 337/320/441 347/329/441 343/325/441
f 347/329/442 336/317/442 344/328/442
f 337/320/443 352/335/443 341/369/443
f 352/370/444 335/314/444 341/316/444
f 358/325/445 345/327/445 362/371/445
f 362/340/446 342/322/446 356/338/446
f 351/336/447 361/344/447 357/341/447
f 361/344/448 350/333/448 358/325/448
f 351/336/449 366/350/449 355/372/449
f 355/332/450 363/345/450 349/330/450
f 372/341/451 359/343/451 376/373/451
f 376/355/452 356/338/452 370/353/452
f 365/351/453 375/359/453 371/356/453
f 375/359/454 364/348/454 372/341/454
f 365/351/455 310/286/455 369/374/455
f 369/347/456 307/281/456 363/345/456
f 316/296/457 373/358/457 320/375/457
f 373/376/458 314/290/458 320/292/458
f 321/299/459 349/330/459 363/345/459
f 309/287/460 330/293/460 322/302/460
f 365/351/461 316/296/461 308/284/461
f 314/290/462 356/338/462 342/322/462
f 329/310/463 336/317/463 323/305/463
f 337/320/464 358/325/464 350/333/464
f 351/336/465 372/341/465 364/348/465
f 85/64/466 88/256/466 89/65/466
f 90/67/467 89/377/467 88/68/467
f 91/70/468 89/378/468 90/71/468
f 92/73/469 95/243/469 96/74/469
f 97/76/470 96/379/470 95/77/470
f 98/79/471 96/380/471 97/80/471
f 99/82/472 102/242/472 103/83/472
f 104/85/473 103/381/473 102/86/473
f 105/88/474 103/381/474 104/85/474
f 106/90/475 109/245/475 110/91/475
f 111/93/476 110/382/476 109/94/476
f 112/96/477 110/382/477 111/93/477
f 113/98/478 116/244/478 117/99/478
f 118/101/479 117/383/479 116/102/479
f 119/104/480 117/383/480 118/101/480
f 120/106/481 123/384/481 124/107/481
f 125/109/482 124/385/482 123/110/482
f 126/112/483 124/385/483 125/109/483
f 127/114/484 130/386/484 131/115/484
f 132/117/485 131/387/485 130/118/485
f 133/120/486 131/387/486 132/117/486
f 134/122/487 137/388/487 138/123/487
f 139/125/488 138/389/488 137/126/488
f 140/128/489 138/389/489 139/125/489
f 141/130/490 144/390/490 145/131/490
f 146/133/491 145/391/491 144/134/491
f 147/136/492 145/391/492 146/133/492
f 148/138/493 151/247/493 152/139/493
f 153/141/494 152/392/494 151/142/494
f 154/144/495 152/392/495 153/141/495
f 155/146/496 158/246/496 159/147/496
f 160/149/497 159/393/497 158/150/497
f 161/152/498 159/393/498 160/149/498
f 162/154/499 165/249/499 166/155/499
f 167/157/500 166/394/500 165/158/500
f 168/160/501 166/394/501 167/157/501
f 169/162/502 172/248/502 173/163/502
f 174/165/503 173/395/503 172/166/503
f 175/168/504 173/395/504 174/165/504
f 176/170/505 179/250/505 180/171/505
f 181/173/506 180/396/506 179/174/506
f 182/176/507 180/396/507 181/173/507
f 183/178/508 186/397/508 187/179/508
f 188/181/509 187/398/509 186/182/509
f 189/184/510 187/398/510 188/181/510
f 190/186/511 193/399/511 194/187/511
f 195/189/512 194/400/512 193/190/512
f 196/192/513 194/400/513 195/189/513
f 197/194/514 200/251/514 201/195/514
f 202/197/515 201/401/515 200/198/515
f 203/200/516 201/401/516 202/197/516
f 204/202/517 207/253/517 208/203/517
f 209/205/518 208/402/518 207/206/518
f 210/208/519 208/402/519 209/205/519
f 211/210/520 214/252/520 215/211/520
f 216/213/521 215/403/521 214/214/521
f 217/216/522 215/403/522 216/213/522
f 218/218/523 221/255/523 222/219/523
f 223/221/524 222/404/524 221/222/524
f 224/224/525 222/404/525 223/221/525
f 225/226/526 228/254/526 229/227/526
f 230/229/527 229/405/527 228/230/527
f 231/232/528 229/405/528 230/229/528
f 232/234/529 235/406/529 236/235/529
f 237/237/530 236/407/530 235/238/530
f 238/240/531 236/407/531 237/237/531
f 100/87/227 102/86/227 91/70/227
f 102/242/228 99/82/228 85/64/228
f 108/97/229 93/78/229 95/77/229
f 95/243/230 92/73/230 106/90/230
f 94/81/231 97/80/231 90/67/231
f 90/71/232 97/76/232 93/78/232
f 101/89/233 104/85/233 111/93/233
f 104/85/234 100/87/234 108/97/234
f 101/89/235 114/103/235 116/102/235
f 116/244/236 113/98/236 99/82/236
f 107/95/237 109/94/237 126/112/237
f 109/245/238 106/90/238 120/106/238
f 121/111/239 115/105/239 118/101/239
f 118/101/240 114/103/240 122/113/240
f 128/119/241 130/118/241 119/104/241
f 119/100/242 130/386/242 127/114/242
f 121/111/243 123/110/243 140/128/243
f 140/124/244 123/384/244 120/106/244
f 129/121/245 132/117/245 139/125/245
f 139/125/246 132/117/246 128/119/246
f 129/121/247 142/135/247 144/134/247
f 133/116/248 144/390/248 141/130/248
f 135/127/249 137/126/249 154/144/249
f 154/140/250 137/388/250 134/122/250
f 143/137/251 146/133/251 153/141/251
f 153/141/252 146/133/252 142/135/252
f 156/151/253 158/150/253 147/136/253
f 158/246/254 155/146/254 141/130/254
f 164/161/255 149/143/255 151/142/255
f 151/247/256 148/138/256 162/154/256
f 163/159/257 157/153/257 160/149/257
f 160/149/258 156/151/258 164/161/258
f 170/167/259 172/166/259 161/152/259
f 172/248/260 169/162/260 155/146/260
f 163/159/261 165/158/261 182/176/261
f 165/249/262 162/154/262 176/170/262
f 171/169/263 174/165/263 181/173/263
f 174/165/264 170/167/264 178/177/264
f 184/183/265 186/182/265 175/168/265
f 175/164/266 186/397/266 183/178/266
f 192/193/267 177/175/267 179/174/267
f 179/250/268 176/170/268 190/186/268
f 185/185/269 188/181/269 195/189/269
f 195/189/270 188/181/270 184/183/270
f 185/185/271 198/199/271 200/198/271
f 200/251/272 197/194/272 183/178/272
f 191/191/273 193/190/273 210/208/273
f 210/204/274 193/399/274 190/186/274
f 199/201/275 202/197/275 209/205/275
f 202/197/276 198/199/276 206/209/276
f 212/215/277 214/214/277 203/200/277
f 214/252/278 211/210/278 197/194/278
f 220/225/279 205/207/279 207/206/279
f 207/253/280 204/202/280 218/218/280
f 219/223/281 213/217/281 216/213/281
f 216/213/282 212/215/282 220/225/282
f 226/231/283 228/230/283 217/216/283
f 228/254/284 225/226/284 211/210/284
f 234/241/285 219/223/285 221/222/285
f 221/255/286 218/218/286 232/234/286
f 227/233/287 230/229/287 237/237/287
f 237/237/288 230/229/288 226/231/288
f 227/233/289 86/69/289 88/68/289
f 88/256/290 85/64/290 225/226/290
f 233/239/291 235/238/291 98/79/291
f 98/75/292 235/406/292 232/234/292
f 225/226/293 85/64/293 99/82/293
f 99/82/293 113/98/293 127/114/293
f 127/114/293 141/130/293 155/146/293
f 155/146/293 169/162/293 183/178/293
f 183/178/293 197/194/293 211/210/293
f 211/210/293 225/226/293 99/82/293
f 99/82/293 127/114/293 155/146/293
f 155/146/293 183/178/293 211/210/293
f 93/78/294 108/97/294 100/87/294
f 227/233/295 233/239/295 94/81/295
f 120/106/296 106/90/296 92/73/296
f 92/73/296 232/234/296 218/218/296
f 218/218/296 204/202/296 190/186/296
f 190/186/296 176/170/296 162/154/296
f 162/154/296 148/138/296 134/122/296
f 134/122/296 120/106/296 92/73/296
f 92/73/296 218/218/296 190/186/296
f 190/186/296 162/154/296 134/122/296
f 107/95/297 122/113/297 114/103/297
f 121/111/298 136/129/298 128/119/298
f 135/127/299 150/145/299 142/135/299
f 143/137/300 149/143/300 164/161/300
f 157/153/301 163/159/301 178/177/301
f 171/169/302 177/175/302 192/193/302
f 191/191/303 206/209/303 198/199/303
f 199/201/304 205/207/304 220/225/304
f 219/223/305 234/241/305 226/231/305
f 240/257/306 242/408/306 241/258/306
f 241/258/307 242/408/307 244/260/307
f 243/261/308 244/260/308 246/262/308
f 246/262/309 248/265/309 247/264/309
f 248/265/310 250/267/310 249/266/310
f 250/267/311 252/269/311 251/268/311
f 252/269/312 254/409/312 253/270/312
f 253/270/313 254/409/313 256/271/313
f 255/272/314 256/271/314 258/273/314
f 258/273/315 260/410/315 259/275/315
f 259/275/316 260/410/316 262/276/316
f 262/276/317 264/279/317 263/278/317
f 264/279/318 240/411/318 239/280/318
f 307/281/532 310/412/532 311/282/532
f 308/284/533 312/363/533 311/285/533
f 309/287/534 313/360/534 311/288/534
f 314/290/535 317/413/535 318/291/535
f 315/293/536 319/364/536 318/294/536
f 316/296/537 320/375/537 318/297/537
f 321/299/538 324/361/538 325/300/538
f 322/302/539 326/306/539 325/303/539
f 323/305/540 327/365/540 325/303/540
f 328/307/541 331/368/541 332/308/541
f 329/310/542 333/313/542 332/311/542
f 330/293/543 334/362/543 332/311/543
f 335/314/544 338/366/544 339/315/544
f 336/317/545 340/321/545 339/318/545
f 337/320/546 341/369/546 339/318/546
f 342/322/547 345/414/547 346/323/547
f 343/325/548 347/329/548 346/326/548
f 344/328/549 348/367/549 346/326/549
f 349/330/550 352/370/550 353/331/550
f 350/333/551 354/337/551 353/334/551
f 351/336/552 355/372/552 353/334/552
f 356/338/553 359/415/553 360/339/553
f 357/341/554 361/344/554 360/342/554
f 358/325/555 362/371/555 360/342/555
f 363/345/556 366/416/556 367/346/556
f 364/348/557 368/352/557 367/349/557
f 365/351/558 369/374/558 367/349/558
f 370/353/559 373/376/559 374/354/559
f 371/356/560 375/359/560 374/357/560
f 372/341/561 376/373/561 374/357/561
f 309/287/429 322/302/429 324/304/429
f 324/361/430 321/299/430 307/281/430
f 330/293/562 315/293/562 317/295/562
f 334/309/563 317/413/563 314/290/563
f 308/284/433 316/296/433 319/298/433
f 319/364/564 315/293/564 309/287/564
f 323/305/435 326/306/435 333/313/435
f 333/313/436 326/306/436 322/302/436
f 323/305/437 336/317/437 338/319/437
f 338/366/438 335/314/438 321/299/438
f 329/310/565 331/312/565 348/367/565
f 331/368/440 328/307/440 342/322/440
f 337/320/441 340/321/441 347/329/441
f 347/329/442 340/321/442 336/317/442
f 337/320/443 350/333/443 352/335/443
f 352/370/566 349/330/566 335/314/566
f 358/325/562 343/325/562 345/327/562
f 362/340/446 345/414/446 342/322/446
f 351/336/447 354/337/447 361/344/447
f 361/344/448 354/337/448 350/333/448
f 351/336/449 364/348/449 366/350/449
f 355/332/450 366/416/450 363/345/450
f 372/341/562 357/341/562 359/343/562
f 376/355/452 359/415/452 356/338/452
f 365/351/453 368/352/453 375/359/453
f 375/359/454 368/352/454 364/348/454
f 365/351/455 308/284/455 310/286/455
f 369/347/456 310/412/456 307/281/456
f 316/296/562 371/356/562 373/358/562
f 373/376/458 370/353/458 314/290/458
f 363/345/459 307/281/459 321/299/459
f 321/299/459 335/314/459 349/330/459
f 309/287/562 315/293/562 330/293/562
f 365/351/562 371/356/562 316/296/562
f 342/322/462 328/307/462 314/290/462
f 314/290/462 370/353/462 356/338/462
f 329/310/567 344/328/567 336/317/567
f 337/320/562 343/325/562 358/325/562
f 351/336/562 357/341/562 372/341/562
