# Blender 4.5.10 LTS
# www.blender.org
mtllib grove_bonemeal_bundle.mtl
o grove_bonemeal_bundle
v 0.110989 0.032733 0.056821
v 0.102034 0.039839 0.061595
v 0.102601 0.024963 0.061593
v 0.108094 0.037889 0.060112
v 0.107051 0.032582 0.062183
v 0.102163 0.032395 0.063487
v 0.108496 0.027370 0.060111
v -0.097911 0.024768 0.036653
v -0.089864 0.017625 0.043012
v -0.090431 0.032501 0.043014
v -0.095591 0.019589 0.040408
v -0.094903 0.024882 0.042686
v -0.090302 0.025057 0.044906
v -0.095992 0.030108 0.040409
v 0.111765 0.022724 0.052005
v 0.102773 0.022750 0.060528
v 0.104073 0.013512 0.048926
v 0.108822 0.023157 0.058084
v 0.108169 0.018154 0.055241
v 0.103383 0.016643 0.055907
v 0.109742 0.016625 0.049880
v -0.097322 0.017162 0.032993
v -0.088563 0.008387 0.031410
v -0.089864 0.017625 0.043012
v -0.094527 0.011191 0.031307
v -0.093965 0.012777 0.036861
v -0.089253 0.011519 0.038391
v -0.095446 0.017723 0.039510
v 0.112742 0.020284 0.041186
v 0.104290 0.012972 0.046534
v 0.105344 0.016329 0.032068
v 0.110153 0.015598 0.045327
v 0.109578 0.014636 0.039645
v 0.104922 0.012802 0.038880
v 0.110899 0.017972 0.035098
v -0.096579 0.015307 0.024771
v -0.087509 0.011744 0.016945
v -0.088563 0.008387 0.031410
v -0.093599 0.013110 0.019062
v -0.092783 0.009824 0.023776
v -0.087931 0.008217 0.023756
v -0.094345 0.010736 0.029290
v 0.113186 0.027248 0.032511
v 0.105442 0.017870 0.030150
v 0.105456 0.031294 0.023714
v 0.111085 0.020903 0.031447
v 0.110217 0.024676 0.027139
v 0.105620 0.023764 0.025226
v 0.111096 0.030395 0.026896
v -0.096242 0.020600 0.018179
v -0.087495 0.025168 0.010509
v -0.087509 0.011744 0.016945
v -0.093506 0.023900 0.012894
v -0.092246 0.018248 0.013283
v -0.087331 0.017638 0.012022
v -0.093516 0.014408 0.017445
v 0.112761 0.038374 0.032512
v 0.105363 0.033754 0.023714
v 0.104326 0.047136 0.030153
v 0.110917 0.035078 0.026897
v 0.109606 0.040714 0.027141
v 0.104952 0.041274 0.025228
v 0.110184 0.044541 0.031450
v -0.096564 0.029055 0.018180
v -0.088531 0.038550 0.016948
v -0.087495 0.025168 0.010509
v -0.094318 0.035436 0.017448
v -0.092759 0.031705 0.013285
v -0.087905 0.032688 0.012024
v -0.093585 0.025974 0.012894
v 0.111789 0.045283 0.041189
v 0.104111 0.048664 0.032072
v 0.102804 0.051928 0.046538
v 0.109774 0.047449 0.035102
v 0.108204 0.050674 0.039649
v 0.103421 0.052148 0.038884
v 0.108850 0.049757 0.045331
v -0.097303 0.034305 0.024774
v -0.089838 0.041814 0.031414
v -0.088531 0.038550 0.016948
v -0.095424 0.039032 0.029294
v -0.093936 0.040061 0.023779
v -0.089221 0.042033 0.023760
v -0.094500 0.036724 0.019065
v 0.111000 0.042772 0.052007
v 0.102629 0.051372 0.048931
v 0.102036 0.042060 0.060530
v 0.108518 0.048700 0.049884
v 0.107067 0.047055 0.055244
v 0.102180 0.048196 0.055911
v 0.108099 0.042115 0.058086
v -0.097903 0.032397 0.032995
v -0.090431 0.032501 0.043014
v -0.089838 0.041814 0.031414
v -0.095990 0.031979 0.039512
v -0.094890 0.037025 0.036864
v -0.090288 0.038637 0.038394
v -0.095571 0.038564 0.031310
v 0.101423 -0.009907 0.024029
v 0.077736 0.006062 0.006673
v 0.110700 0.005501 -0.004147
v 0.131177 0.005325 0.023864
v 0.110869 0.005777 0.051995
v 0.077841 0.006233 0.041370
v 0.092851 0.031163 -0.004219
v 0.125879 0.030707 0.006406
v 0.125984 0.030878 0.041103
v 0.093021 0.031439 0.051923
v 0.072543 0.031615 0.023912
v 0.102297 0.046846 0.023747
v 0.106799 -0.005832 0.007492
v 0.087424 -0.005503 0.013852
v 0.092876 0.003553 -0.002709
v 0.073563 0.003984 0.024045
v 0.087486 -0.005402 0.034246
v 0.118836 -0.005936 0.023957
v 0.124288 0.003120 0.007395
v 0.106899 -0.005670 0.040492
v 0.124388 0.003283 0.040395
v 0.093038 0.003816 0.050684
v 0.070448 0.018903 0.013783
v 0.070510 0.019003 0.034178
v 0.101760 0.018307 -0.009112
v 0.082385 0.018637 -0.002752
v 0.133210 0.017936 0.013598
v 0.121174 0.018040 -0.002866
v 0.121335 0.018302 0.050528
v 0.133272 0.018037 0.033993
v 0.082546 0.018900 0.050642
v 0.101960 0.018632 0.056887
v 0.079332 0.033657 0.007381
v 0.110683 0.033123 -0.002909
v 0.130158 0.032956 0.023731
v 0.110844 0.033386 0.050485
v 0.079432 0.033819 0.040380
v 0.096821 0.042610 0.007284
v 0.084885 0.042875 0.023819
v 0.116235 0.042342 0.013529
v 0.116296 0.042442 0.033924
v 0.096921 0.042772 0.040283
v -0.111766 0.000342 0.025444
v -0.133611 0.015136 0.009093
v -0.102689 0.014725 -0.000520
v -0.083995 0.014198 0.025920
v -0.103365 0.014283 0.051874
v -0.134029 0.014862 0.041474
v -0.119341 0.038136 -0.000537
v -0.088677 0.037556 0.009863
v -0.089095 0.037283 0.042243
v -0.120017 0.037694 0.051856
v -0.138711 0.038221 0.025416
v -0.110940 0.052077 0.025892
v -0.106503 0.004254 0.010144
v -0.124679 0.004496 0.015794
v -0.119343 0.012950 0.000533
v -0.137765 0.013031 0.025216
v -0.124924 0.004335 0.034827
v -0.095515 0.003945 0.025685
v -0.090180 0.012399 0.010423
v -0.106901 0.003994 0.040940
v -0.090577 0.012139 0.041219
v -0.119987 0.012530 0.050362
v -0.140516 0.026761 0.015778
v -0.140762 0.026600 0.034810
v -0.110955 0.026470 -0.005128
v -0.129131 0.026711 0.000522
v -0.081944 0.025819 0.016526
v -0.092931 0.026129 0.000985
v -0.093575 0.025708 0.050814
v -0.082189 0.025658 0.035559
v -0.129775 0.026290 0.050352
v -0.111751 0.025949 0.056465
v -0.132129 0.040280 0.010117
v -0.102719 0.039889 0.000975
v -0.084941 0.039388 0.026121
v -0.103363 0.039468 0.050804
v -0.132526 0.040020 0.040913
v -0.115805 0.048424 0.010397
v -0.127191 0.048474 0.025652
v -0.097781 0.048084 0.016510
v -0.098027 0.047923 0.035542
v -0.116203 0.048164 0.041193
v 0.100244 0.033175 -0.008330
v 0.092955 0.039938 -0.003042
v 0.092959 0.026407 -0.003042
v 0.098183 0.037958 -0.005057
v 0.097296 0.033174 -0.003047
v 0.093031 0.033172 -0.001317
v 0.098186 0.028390 -0.005057
v -0.095694 0.033116 -0.002682
v -0.087967 0.026352 0.002173
v -0.087971 0.039884 0.002173
v -0.093356 0.028332 0.000464
v -0.092298 0.033117 0.002418
v -0.087895 0.033118 0.003898
v -0.093359 0.037900 0.000464
v 0.100058 0.024054 -0.012718
v 0.092917 0.024385 -0.004015
v 0.092464 0.015948 -0.014584
v 0.098107 0.024549 -0.006905
v 0.097027 0.020026 -0.009373
v 0.092738 0.018817 -0.008224
v 0.097787 0.018583 -0.014378
v -0.095836 0.026184 -0.006017
v -0.088421 0.017915 -0.008396
v -0.087967 0.026352 0.002173
v -0.093711 0.020665 -0.007828
v -0.092523 0.022087 -0.002889
v -0.088147 0.020784 -0.002036
v -0.093391 0.026631 -0.000354
v 0.099633 0.021801 -0.022578
v 0.092370 0.015449 -0.016769
v 0.091801 0.018460 -0.029949
v 0.097608 0.017634 -0.018531
v 0.096415 0.016779 -0.023586
v 0.092069 0.015272 -0.023743
v 0.097205 0.019763 -0.027850
v -0.096159 0.024472 -0.013510
v -0.088990 0.020926 -0.021576
v -0.088421 0.017915 -0.008396
v -0.094193 0.022374 -0.018986
v -0.093037 0.019363 -0.014812
v -0.088721 0.017738 -0.015370
v -0.093790 0.020245 -0.009667
v 0.099290 0.028113 -0.030485
v 0.091725 0.019859 -0.031702
v 0.091468 0.032050 -0.037567
v 0.097061 0.022421 -0.031180
v 0.095920 0.025877 -0.034985
v 0.091530 0.025206 -0.036188
v 0.096879 0.031042 -0.035328
v -0.096419 0.029269 -0.019519
v -0.089247 0.033117 -0.027442
v -0.088990 0.020926 -0.021576
v -0.094438 0.032172 -0.024608
v -0.093452 0.026995 -0.024374
v -0.089185 0.026273 -0.026063
v -0.094257 0.023551 -0.020461
v 0.099287 0.038236 -0.030485
v 0.091467 0.034294 -0.037567
v 0.091717 0.046485 -0.031702
v 0.096878 0.035305 -0.035328
v 0.095916 0.040470 -0.034985
v 0.091525 0.041138 -0.036188
v 0.097054 0.043926 -0.031180
v -0.096422 0.036962 -0.019520
v -0.088997 0.045309 -0.021576
v -0.089247 0.033117 -0.027442
v -0.094263 0.042680 -0.020461
v -0.093455 0.039237 -0.024374
v -0.089189 0.039962 -0.026063
v -0.094439 0.034060 -0.024608
v 0.099626 0.044547 -0.022578
v 0.091792 0.047884 -0.029949
v 0.092359 0.050895 -0.016769
v 0.097197 0.046584 -0.027850
v 0.096405 0.049568 -0.023586
v 0.092059 0.051072 -0.023743
v 0.097598 0.048713 -0.018531
v -0.096164 0.041759 -0.013510
v -0.088430 0.048320 -0.008396
v -0.088997 0.045309 -0.021576
v -0.093798 0.045987 -0.009667
v -0.093045 0.046870 -0.014812
v -0.088731 0.048497 -0.015370
v -0.094199 0.043858 -0.018986
v 0.100052 0.042295 -0.012718
v 0.092454 0.050396 -0.014584
v 0.092912 0.041959 -0.004015
v 0.097778 0.047764 -0.014378
v 0.097019 0.046321 -0.009373
v 0.092729 0.047527 -0.008224
v 0.098102 0.041799 -0.006905
v -0.095840 0.040047 -0.006017
v -0.087971 0.039884 0.002173
v -0.088430 0.048320 -0.008396
v -0.093395 0.039601 -0.000354
v -0.092530 0.044146 -0.002889
v -0.088155 0.045451 -0.002036
v -0.093719 0.045567 -0.007828
v 0.096839 -0.000918 -0.022477
v 0.075052 0.012842 -0.038583
v 0.105097 0.013010 -0.048191
v 0.123515 0.013636 -0.022591
v 0.104853 0.013854 0.002840
v 0.074902 0.013364 -0.007044
v 0.088263 0.035900 -0.048651
v 0.118214 0.036390 -0.038767
v 0.118064 0.036912 -0.007228
v 0.088020 0.036744 0.002381
v 0.069602 0.036119 -0.023220
v 0.096277 0.050672 -0.023333
v 0.101742 0.002740 -0.037516
v 0.084083 0.002641 -0.031869
v 0.088936 0.010828 -0.046983
v 0.071188 0.011036 -0.022797
v 0.083994 0.002948 -0.013331
v 0.112568 0.003108 -0.022469
v 0.117422 0.011294 -0.037583
v 0.101599 0.003236 -0.007521
v 0.117279 0.011790 -0.007588
v 0.088705 0.011631 0.001550
v 0.068073 0.024411 -0.032305
v 0.067984 0.024718 -0.013767
v 0.096701 0.024381 -0.052901
v 0.079042 0.024282 -0.047253
v 0.125132 0.025037 -0.032043
v 0.114306 0.024669 -0.047091
v 0.114075 0.025472 0.001443
v 0.125044 0.025344 -0.013505
v 0.078810 0.025085 0.001281
v 0.096415 0.025373 0.007090
v 0.075838 0.037964 -0.038223
v 0.104412 0.038124 -0.047361
v 0.121928 0.038718 -0.023013
v 0.104180 0.038927 0.001173
v 0.075695 0.038460 -0.008227
v 0.091517 0.046518 -0.038289
v 0.080548 0.046647 -0.023342
v 0.109122 0.046806 -0.032480
v 0.109034 0.047113 -0.013942
v 0.091374 0.047014 -0.008294
v -0.091936 -0.003850 -0.009845
v -0.111903 0.009051 -0.025048
v -0.083763 0.008812 -0.033701
v -0.066836 0.009041 -0.009613
v -0.084515 0.009420 0.013926
v -0.112367 0.009427 0.004386
v -0.099142 0.029916 -0.034213
v -0.071290 0.029909 -0.024673
v -0.071754 0.030285 0.004761
v -0.099894 0.030523 0.013414
v -0.116821 0.030295 -0.010674
v -0.091721 0.043186 -0.010442
v -0.087151 -0.000536 -0.023815
v -0.103691 -0.000396 -0.018729
v -0.098887 0.007047 -0.032751
v -0.115700 0.007408 -0.010364
v -0.103964 -0.000175 -0.001428
v -0.077202 -0.000402 -0.009656
v -0.072397 0.007041 -0.023678
v -0.087593 -0.000179 0.004179
v -0.072840 0.007398 0.004316
v -0.099602 0.007625 0.012544
v -0.118318 0.019674 -0.019216
v -0.118591 0.019895 -0.001915
v -0.091386 0.019311 -0.038138
v -0.107927 0.019451 -0.033052
v -0.065066 0.019441 -0.018372
v -0.075015 0.019307 -0.032530
v -0.075730 0.019885 0.012765
v -0.065339 0.019662 -0.001071
v -0.108642 0.020029 0.012244
v -0.092271 0.020025 0.017851
v -0.110817 0.031938 -0.024603
v -0.084055 0.031711 -0.032831
v -0.067957 0.031928 -0.009923
v -0.084770 0.032289 0.012464
v -0.111260 0.032295 0.003391
v -0.096064 0.039515 -0.024466
v -0.106455 0.039738 -0.010631
v -0.079693 0.039511 -0.018859
v -0.079966 0.039732 -0.001558
v -0.096506 0.039872 0.003528
v 0.091878 0.060317 0.013760
v 0.084452 0.066333 0.018573
v 0.085197 0.053496 0.018593
v 0.089573 0.064741 0.016806
v 0.088939 0.060154 0.018697
v 0.084849 0.059918 0.020223
v 0.090099 0.055664 0.016820
v -0.085843 0.050002 0.013743
v -0.078276 0.044008 0.018577
v -0.079021 0.056845 0.018557
v -0.083448 0.045591 0.016803
v -0.082760 0.050188 0.018681
v -0.078624 0.050430 0.020207
v -0.083975 0.054668 0.016789
v 0.092318 0.051659 0.009602
v 0.085295 0.051584 0.017675
v 0.085611 0.043557 0.007635
v 0.090285 0.052021 0.015070
v 0.089574 0.047672 0.012703
v 0.085542 0.046293 0.013679
v 0.090509 0.046345 0.007971
v -0.085508 0.043422 0.010583
v -0.077959 0.035981 0.008537
v -0.078276 0.044008 0.018577
v -0.083142 0.038302 0.008929
v -0.082227 0.039715 0.013651
v -0.078028 0.038716 0.014581
v -0.083366 0.043978 0.016028
v 0.092304 0.049500 0.000233
v 0.085608 0.043080 0.005566
v 0.085257 0.045907 -0.006973
v 0.090503 0.045437 0.004029
v 0.089554 0.044561 -0.000804
v 0.085520 0.042896 -0.001066
v 0.090255 0.047436 -0.004837
v -0.085519 0.041782 0.003463
v -0.078310 0.038807 -0.004002
v -0.077959 0.035981 0.008537
v -0.083393 0.039899 -0.001683
v -0.082244 0.037104 0.002317
v -0.078047 0.035797 0.001905
v -0.083145 0.037900 0.007184
v 0.091846 0.055467 -0.007293
v 0.085156 0.047224 -0.008635
v 0.084403 0.058777 -0.014231
v 0.090062 0.049946 -0.008003
v 0.088894 0.053163 -0.011652
v 0.084799 0.052287 -0.012910
v 0.089529 0.058115 -0.011960
v -0.085867 0.046316 -0.002256
v -0.079063 0.050360 -0.009598
v -0.078310 0.038807 -0.004002
v -0.084011 0.049179 -0.007042
v -0.082798 0.044322 -0.006786
v -0.078667 0.043869 -0.008277
v -0.083478 0.041010 -0.003085
v 0.091289 0.065066 -0.007307
v 0.084280 0.060896 -0.014234
v 0.083691 0.072475 -0.008674
v 0.089295 0.062154 -0.011967
v 0.088091 0.067000 -0.011673
v 0.083922 0.067393 -0.012933
v 0.088878 0.070341 -0.008034
v -0.086291 0.053611 -0.002267
v -0.079652 0.061938 -0.004037
v -0.079063 0.050360 -0.009598
v -0.084531 0.059155 -0.003112
v -0.083472 0.055933 -0.006804
v -0.079421 0.056856 -0.008296
v -0.084115 0.050967 -0.007045
v 0.091052 0.071068 0.000200
v 0.083638 0.073801 -0.007016
v 0.083657 0.076687 0.005515
v 0.088779 0.072867 -0.004876
v 0.087749 0.075653 -0.000851
v 0.083550 0.076840 -0.001118
v 0.088792 0.074907 0.003984
v -0.086470 0.058172 0.003438
v -0.079633 0.064825 0.008493
v -0.079652 0.061938 -0.004037
v -0.084562 0.062314 0.007146
v -0.083758 0.063194 0.002277
v -0.079741 0.064977 0.001861
v -0.084575 0.060273 -0.001714
v 0.091314 0.068955 0.009576
v 0.083715 0.076220 0.007585
v 0.084328 0.068240 0.017649
v 0.088902 0.074018 0.007929
v 0.088127 0.072606 0.012665
v 0.083962 0.073513 0.013638
v 0.089336 0.068376 0.015046
v -0.086271 0.056566 0.010563
v -0.079021 0.056845 0.018557
v -0.079633 0.064825 0.008493
v -0.084080 0.056278 0.016010
v -0.083441 0.060637 0.013619
v -0.079386 0.062118 0.014546
v -0.084513 0.061920 0.008893
v 0.081270 0.043074 0.001179
v 0.060499 0.056587 -0.013630
v 0.088895 0.056517 -0.023203
v 0.106775 0.056592 0.000845
v 0.089429 0.056709 0.025281
v 0.060829 0.056706 0.016335
v 0.073167 0.078458 -0.023117
v 0.101767 0.078461 -0.014171
v 0.102097 0.078579 0.015794
v 0.073701 0.078650 0.025367
v 0.055821 0.078575 0.001319
v 0.081326 0.092093 0.000985
v 0.085747 0.046672 -0.013135
v 0.069056 0.046714 -0.007508
v 0.073538 0.054615 -0.021840
v 0.057041 0.054727 0.001400
v 0.069250 0.046783 0.010104
v 0.096256 0.046716 0.001000
v 0.100739 0.054618 -0.013332
v 0.086061 0.046785 0.015363
v 0.101052 0.054731 0.015166
v 0.074046 0.054798 0.024271
v 0.054098 0.067581 -0.007426
v 0.054291 0.067651 0.010186
v 0.080984 0.067471 -0.027416
v 0.064293 0.067512 -0.021789
v 0.108305 0.067516 -0.008023
v 0.097795 0.067472 -0.022158
v 0.098303 0.067655 0.023953
v 0.108498 0.067586 0.009590
v 0.064801 0.067695 0.024322
v 0.081612 0.067696 0.029580
v 0.061544 0.080436 -0.013002
v 0.088550 0.080369 -0.022107
v 0.105555 0.080440 0.000764
v 0.089058 0.080551 0.024004
v 0.061857 0.080549 0.015496
v 0.076535 0.088382 -0.013199
v 0.066339 0.088451 0.001164
v 0.093346 0.088383 -0.007940
v 0.093540 0.088453 0.009672
v 0.076849 0.088495 0.015299
v -0.095197 0.044513 0.006532
v -0.114597 0.056752 -0.007341
v -0.087972 0.057307 -0.015889
v -0.071609 0.057247 0.006794
v -0.088122 0.056654 0.029361
v -0.114689 0.056349 0.020625
v -0.102998 0.077050 -0.015654
v -0.076431 0.077356 -0.006917
v -0.076523 0.076952 0.021048
v -0.103148 0.076397 0.029596
v -0.119511 0.076458 0.006913
v -0.095922 0.089191 0.007175
v -0.090887 0.048111 -0.006703
v -0.106536 0.047785 -0.001678
v -0.102290 0.055305 -0.014857
v -0.117994 0.054742 0.006605
v -0.106591 0.047548 0.014759
v -0.081269 0.048076 0.006630
v -0.077022 0.055596 -0.006549
v -0.090975 0.047728 0.019894
v -0.077110 0.055212 0.020048
v -0.102432 0.054684 0.028177
v -0.120827 0.066562 -0.001455
v -0.120882 0.066324 0.014983
v -0.095472 0.067236 -0.019743
v -0.111122 0.066910 -0.014719
v -0.070238 0.067380 -0.001276
v -0.079856 0.067416 -0.014608
v -0.079998 0.066794 0.028426
v -0.070292 0.067143 0.015162
v -0.111264 0.066289 0.028316
v -0.095648 0.066468 0.033451
v -0.114010 0.078492 -0.006341
v -0.088688 0.079020 -0.014470
v -0.073126 0.078962 0.007103
v -0.088830 0.078399 0.028565
v -0.114098 0.078108 0.020256
v -0.100145 0.085977 -0.006187
v -0.109851 0.085628 0.007077
v -0.084529 0.086156 -0.001052
v -0.084583 0.085919 0.015386
v -0.100233 0.085593 0.020410
v 0.005000 0.038000 0.068000
v -0.029000 0.038000 0.068000
v 0.005000 0.009187 0.060898
v -0.029000 0.009187 0.060898
v 0.005000 -0.013025 0.041220
v -0.029000 -0.013025 0.041220
v 0.005000 -0.023548 0.013473
v -0.029000 -0.023548 0.013473
v 0.005000 -0.019971 -0.015986
v -0.029000 -0.019971 -0.015986
v 0.005000 -0.003114 -0.040408
v -0.029000 -0.003114 -0.040408
v 0.005000 0.023162 -0.054198
v -0.029000 0.023162 -0.054198
v 0.005000 0.052838 -0.054198
v -0.029000 0.052838 -0.054198
v 0.005000 0.079114 -0.040408
v -0.029000 0.079114 -0.040408
v 0.005000 0.095971 -0.015986
v -0.029000 0.095971 -0.015986
v 0.005000 0.099548 0.013473
v -0.029000 0.099548 0.013473
v 0.005000 0.089025 0.041220
v -0.029000 0.089025 0.041220
v 0.005000 0.066813 0.060898
v -0.029000 0.066813 0.060898
vn 0.8061 -0.0119 0.5917
vn 0.3146 0.2908 0.9036
vn 0.2591 -0.2241 0.9395
vn -0.8950 0.0078 0.4461
vn -0.4774 -0.2943 0.8280
vn -0.4310 0.2152 0.8763
vn 0.8399 -0.4046 0.3618
vn 0.3537 -0.4966 0.7927
vn 0.3259 -0.8501 0.4136
vn -0.8658 -0.4117 0.2846
vn -0.4115 -0.8646 0.2884
vn -0.3875 -0.5806 0.7161
vn 0.8791 -0.4684 -0.0884
vn 0.4249 -0.8986 0.1092
vn 0.3919 -0.8267 -0.4038
vn -0.8257 -0.5456 -0.1436
vn -0.3502 -0.7958 -0.4940
vn -0.3145 -0.9492 -0.0049
vn 0.8942 -0.1551 -0.4198
vn 0.4746 -0.6126 -0.6320
vn 0.4072 -0.1714 -0.8971
vn -0.8048 -0.2931 -0.5161
vn -0.3395 -0.1398 -0.9302
vn -0.2669 -0.6131 -0.7436
vn 0.8739 0.2993 -0.3830
vn 0.4654 0.1461 -0.8730
vn 0.3604 0.6223 -0.6949
vn -0.8190 0.1556 -0.5523
vn -0.3876 0.6095 -0.6915
vn -0.2806 0.1748 -0.9438
vn 0.8334 0.5526 -0.0056
vn 0.4042 0.8062 -0.4321
vn 0.2867 0.9567 0.0506
vn -0.8574 0.4628 -0.2250
vn -0.4582 0.8878 0.0421
vn -0.3452 0.8210 -0.4548
vn 0.8032 0.4142 0.4281
vn 0.3371 0.8706 0.3585
vn 0.2416 0.5800 0.7780
vn -0.8913 0.3970 0.2193
vn -0.4981 0.4856 0.7184
vn -0.4121 0.8390 0.3553
vn 0.3684 -0.3798 0.8485
vn 0.8868 -0.1428 0.4395
vn -0.4902 -0.4085 0.7700
vn -0.9345 -0.2105 0.2870
vn -0.1024 0.2433 0.9645
vn -0.0836 -0.2507 0.9645
vn -0.0128 -0.9128 0.4082
vn -0.0560 -0.6060 0.7935
vn 0.4372 -0.8680 0.2353
vn 0.9177 -0.3617 0.1645
vn -0.4221 -0.8918 0.1630
vn -0.9040 -0.4273 0.0147
vn 0.0569 -0.8880 -0.4563
vn 0.0219 -0.9995 0.0240
vn 0.4929 -0.6906 -0.5293
vn 0.9427 -0.2822 -0.1783
vn -0.3670 -0.7161 -0.5937
vn -0.8792 -0.3485 -0.3248
vn 0.0731 -0.1949 -0.9781
vn 0.0726 -0.6407 -0.7644
vn 0.4937 0.0189 -0.8694
vn 0.9430 0.0360 -0.3309
vn -0.0000 -0.0000 -1.0000
vn -0.8789 -0.0335 -0.4758
vn 0.0236 0.6445 -0.7642
vn 0.0581 0.2001 -0.9780
vn 0.4389 0.7263 -0.5291
vn 0.9184 0.3532 -0.1782
vn -0.4204 0.6862 -0.5935
vn -0.9032 0.2806 -0.3247
vn -0.0543 0.9982 0.0243
vn -0.0109 0.8899 -0.4561
vn 0.3698 0.8988 0.2355
vn 0.8874 0.4305 0.1646
vn -0.4888 0.8570 0.1633
vn -0.9339 0.3572 0.0148
vn -0.1020 0.5998 0.7936
vn -0.0823 0.9091 0.4084
vn 0.3384 0.4065 0.8486
vn 0.8734 0.2098 0.4395
vn -0.5198 0.3698 0.7701
vn -0.9478 0.1386 0.2870
vn 0.9960 0.0380 0.0814
vn -0.0699 -0.4369 0.8968
vn -0.1030 0.4301 0.8969
vn -0.9960 -0.0380 -0.0814
vn 0.0059 -0.9754 0.2206
vn 0.0674 -0.7797 -0.6225
vn 0.0682 0.0027 -0.9977
vn 0.0078 0.7827 -0.6223
vn -0.0684 0.9729 0.2208
vn -0.1049 -0.9572 -0.2699
vn -0.6635 -0.7073 -0.2440
vn 0.2186 -0.9616 -0.1659
vn 0.2196 -0.9599 0.1740
vn -0.1032 -0.9544 0.2799
vn -0.8946 -0.3646 -0.2585
vn -0.0329 -0.3811 -0.9239
vn 0.8662 -0.3919 -0.3099
vn 0.5602 -0.3820 0.7350
vn -0.5280 -0.3651 0.7667
vn -0.8043 -0.1362 -0.5784
vn 0.3006 -0.1550 -0.9411
vn 0.9870 -0.1609 -0.0022
vn 0.3063 -0.1457 0.9407
vn -0.8008 -0.1305 0.5846
vn -0.3714 0.7191 -0.5874
vn 0.4480 0.7067 -0.5476
vn 0.6635 0.7073 0.2440
vn -0.0227 0.7201 0.6935
vn -0.6623 0.7274 0.1797
vn -0.2186 0.9616 0.1659
vn -0.4303 0.8441 0.3199
vn -0.3678 0.7248 0.5825
vn 0.1049 0.9572 0.2699
vn 0.1841 0.8356 0.5175
vn 0.4513 0.7120 0.5379
vn 0.3038 0.9527 -0.0056
vn 0.5619 0.8272 -0.0058
vn 0.6620 0.7048 -0.2550
vn 0.1032 0.9544 -0.2799
vn 0.1809 0.8305 -0.5268
vn -0.0269 0.7132 -0.7004
vn -0.2196 0.9599 -0.1740
vn -0.4323 0.8409 -0.3256
vn -0.6634 0.7256 -0.1828
vn -0.8662 0.3919 0.3099
vn -0.7846 0.2318 0.5750
vn -0.5558 0.3892 0.7346
vn 0.0329 0.3811 0.9239
vn 0.3078 0.2167 0.9265
vn 0.5326 0.3726 0.7599
vn 0.8946 0.3646 0.2585
vn 0.9794 0.2017 -0.0040
vn 0.8930 0.3620 -0.2675
vn 0.5280 0.3651 -0.7667
vn 0.3022 0.2076 -0.9304
vn 0.0273 0.3720 -0.9278
vn -0.5602 0.3820 -0.7350
vn -0.7881 0.2261 -0.5725
vn -0.8681 0.3889 -0.3085
vn -0.3006 0.1550 0.9411
vn -0.3022 -0.2076 0.9304
vn -0.0273 -0.3720 0.9278
vn 0.8043 0.1362 0.5784
vn 0.7881 -0.2261 0.5725
vn 0.8681 -0.3889 0.3085
vn 0.8008 0.1305 -0.5846
vn 0.7846 -0.2318 -0.5750
vn 0.5558 -0.3892 -0.7346
vn -0.3063 0.1457 -0.9407
vn -0.3078 -0.2167 -0.9265
vn -0.5326 -0.3726 -0.7599
vn -0.9870 0.1609 0.0022
vn -0.9794 -0.2017 0.0040
vn -0.8930 -0.3620 0.2675
vn -0.4480 -0.7067 0.5476
vn -0.1809 -0.8305 0.5268
vn 0.0269 -0.7132 0.7004
vn 0.3714 -0.7191 0.5874
vn 0.4323 -0.8409 0.3256
vn 0.6634 -0.7256 0.1828
vn 0.6623 -0.7274 -0.1797
vn 0.4303 -0.8441 -0.3199
vn 0.3678 -0.7248 -0.5825
vn -0.6620 -0.7048 0.2550
vn -0.5619 -0.8272 0.0058
vn -0.3038 -0.9527 0.0056
vn 0.0227 -0.7201 -0.6935
vn -0.1841 -0.8356 -0.5175
vn -0.4513 -0.7120 -0.5379
vn -0.0992 -0.9553 -0.2784
vn -0.6521 -0.7118 -0.2609
vn 0.2157 -0.9613 -0.1716
vn 0.2114 -0.9641 0.1609
vn -0.1062 -0.9599 0.2596
vn -0.8876 -0.3681 -0.2767
vn -0.0184 -0.3764 -0.9263
vn 0.8678 -0.3960 -0.3003
vn 0.5462 -0.3998 0.7361
vn -0.5387 -0.3826 0.7506
vn -0.7947 -0.1313 -0.5927
vn 0.3153 -0.1460 -0.9377
vn 0.9862 -0.1649 0.0113
vn 0.2910 -0.1619 0.9429
vn -0.8097 -0.1411 0.5696
vn -0.3569 0.7352 -0.5763
vn 0.4518 0.7218 -0.5243
vn 0.6521 0.7118 0.2609
vn -0.0327 0.7190 0.6943
vn -0.6564 0.7334 0.1768
vn -0.2157 0.9613 0.1716
vn -0.4275 0.8458 0.3191
vn -0.3719 0.7254 0.5792
vn 0.0992 0.9553 0.2784
vn 0.1737 0.8345 0.5230
vn 0.4379 0.7127 0.5479
vn 0.2982 0.9544 0.0119
vn 0.5534 0.8328 0.0142
vn 0.6585 0.7160 -0.2319
vn 0.1062 0.9599 -0.2596
vn 0.1869 0.8431 -0.5042
vn -0.0150 0.7306 -0.6826
vn -0.2114 0.9641 -0.1609
vn -0.4193 0.8512 -0.3157
vn -0.6518 0.7364 -0.1813
vn -0.8678 0.3960 0.3003
vn -0.7926 0.2295 0.5649
vn -0.5651 0.3874 0.7284
vn 0.0184 0.3764 0.9263
vn 0.2928 0.2090 0.9330
vn 0.5190 0.3698 0.7706
vn 0.8876 0.3681 0.2767
vn 0.9784 0.2060 0.0144
vn 0.8944 0.3726 -0.2475
vn 0.5387 0.3826 -0.7506
vn 0.3168 0.2247 -0.9215
vn 0.0423 0.3920 -0.9190
vn -0.5462 0.3998 -0.7361
vn -0.7778 0.2392 -0.5812
vn -0.8598 0.4012 -0.3159
vn -0.3153 0.1460 0.9377
vn -0.3168 -0.2247 0.9215
vn -0.0423 -0.3920 0.9190
vn 0.7947 0.1313 0.5927
vn 0.7778 -0.2392 0.5812
vn 0.8598 -0.4012 0.3159
vn 0.8097 0.1411 -0.5696
vn 0.7926 -0.2295 -0.5649
vn 0.5651 -0.3874 -0.7284
vn -0.2910 0.1619 -0.9429
vn -0.2928 -0.2090 -0.9330
vn -0.5190 -0.3698 -0.7707
vn -0.9862 0.1649 -0.0113
vn -0.9784 -0.2060 -0.0144
vn -0.8944 -0.3726 0.2475
vn -0.4518 -0.7218 0.5243
vn -0.1869 -0.8431 0.5042
vn 0.0150 -0.7306 0.6826
vn 0.3569 -0.7352 0.5763
vn 0.4193 -0.8512 0.3157
vn 0.6518 -0.7364 0.1813
vn 0.6564 -0.7334 -0.1768
vn 0.4275 -0.8458 -0.3191
vn 0.3719 -0.7254 -0.5792
vn -0.6585 -0.7160 0.2319
vn -0.5534 -0.8328 -0.0142
vn -0.2982 -0.9544 -0.0119
vn 0.0327 -0.7190 -0.6943
vn -0.1737 -0.8345 -0.5230
vn -0.4379 -0.7127 -0.5479
vn 0.8724 -0.0422 0.4869
vn 0.4354 0.2788 0.8560
vn 0.3655 -0.2336 0.9010
vn -0.8316 0.0417 0.5538
vn -0.3812 -0.2759 0.8824
vn -0.3100 0.2315 0.9221
vn 0.8626 -0.4360 0.2566
vn 0.4309 -0.5094 0.7449
vn 0.3430 -0.8617 0.3740
vn -0.8385 -0.3787 0.3919
vn -0.4043 -0.8485 0.3415
vn -0.3167 -0.5655 0.7615
vn 0.8432 -0.5012 -0.1946
vn 0.4015 -0.9139 0.0600
vn 0.3077 -0.8409 -0.4453
vn -0.8569 -0.5141 -0.0373
vn -0.4382 -0.7822 -0.4429
vn -0.3478 -0.9368 0.0388
vn 0.8287 -0.1888 -0.5268
vn 0.3693 -0.6301 -0.6830
vn 0.2861 -0.1868 -0.9398
vn -0.8731 -0.2626 -0.4108
vn -0.4572 -0.1270 -0.8802
vn -0.3798 -0.6027 -0.7018
vn 0.8302 0.2659 -0.4900
vn 0.3587 0.1282 -0.9246
vn 0.2946 0.6080 -0.7372
vn -0.8748 0.1864 -0.4471
vn -0.4472 0.6237 -0.6411
vn -0.3887 0.1851 -0.9026
vn 0.8464 0.5206 -0.1118
vn 0.3775 0.7901 -0.4829
vn 0.3268 0.9451 0.0099
vn -0.8608 0.4949 -0.1191
vn -0.4155 0.9047 0.0944
vn -0.3677 0.8335 -0.4124
vn 0.8652 0.3835 0.3230
vn 0.4117 0.8571 0.3096
vn 0.3583 0.5705 0.7390
vn -0.8415 0.4305 0.3264
vn -0.3862 0.5043 0.7724
vn -0.3327 0.8541 0.3997
vn 0.4568 -0.3932 0.7979
vn 0.9286 -0.1761 0.3266
vn -0.4054 -0.3896 0.8270
vn -0.8988 -0.1750 0.4019
vn 0.0278 0.2472 0.9686
vn 0.0280 -0.2472 0.9686
vn 0.0041 -0.9116 0.4110
vn 0.0207 -0.6034 0.7972
vn 0.4304 -0.8838 0.1834
vn 0.9168 -0.3961 0.0510
vn -0.4315 -0.8753 0.2186
vn -0.9105 -0.3929 0.1290
vn -0.0332 -0.8896 -0.4556
vn -0.0124 -0.9996 0.0260
vn 0.3973 -0.7087 -0.5829
vn 0.9020 -0.3176 -0.2926
vn -0.4642 -0.7019 -0.5402
vn -0.9252 -0.3151 -0.2114
vn -0.0560 -0.1977 -0.9787
vn -0.0466 -0.6431 -0.7644
vn 0.3824 0.0001 -0.9240
vn 0.8953 0.0003 -0.4455
vn -0.8944 -0.0000 -0.4472
vn -0.9318 -0.0003 -0.3629
vn -0.0470 0.6431 -0.7644
vn -0.0561 0.1976 -0.9787
vn 0.3969 0.7090 -0.5829
vn 0.9018 0.3181 -0.2926
vn -0.4647 0.7017 -0.5402
vn -0.9254 0.3146 -0.2114
vn -0.0130 0.9996 0.0260
vn -0.0338 0.8896 -0.4556
vn 0.4299 0.8841 0.1834
vn 0.9166 0.3966 0.0510
vn -0.4320 0.8750 0.2185
vn -0.9107 0.3923 0.1290
vn 0.0203 0.6034 0.7972
vn 0.0036 0.9116 0.4110
vn 0.4565 0.3935 0.7979
vn 0.9285 0.1767 0.3266
vn -0.4056 0.3893 0.8270
vn -0.8989 0.1745 0.4019
vn 0.9991 0.0003 -0.0431
vn 0.0261 -0.4338 0.9006
vn 0.0258 0.4339 0.9006
vn -0.9991 -0.0003 0.0431
vn -0.0030 -0.9748 0.2229
vn -0.0395 -0.7818 -0.6223
vn -0.0559 -0.0000 -0.9984
vn -0.0400 0.7818 -0.6223
vn -0.0036 0.9748 0.2229
vn -0.0776 -0.9626 -0.2594
vn -0.6427 -0.7273 -0.2406
vn 0.2451 -0.9574 -0.1529
vn 0.2435 -0.9517 0.1869
vn -0.0802 -0.9535 0.2904
vn -0.8827 -0.3910 -0.2608
vn -0.0158 -0.3925 -0.9196
vn 0.8786 -0.3725 -0.2989
vn 0.5644 -0.3586 0.7435
vn -0.5241 -0.3700 0.7671
vn -0.7960 -0.1640 -0.5827
vn 0.3118 -0.1579 -0.9370
vn 0.9908 -0.1348 0.0070
vn 0.3028 -0.1267 0.9446
vn -0.8015 -0.1448 0.5802
vn -0.3856 0.7022 -0.5985
vn 0.4335 0.7119 -0.5526
vn 0.6427 0.7273 0.2406
vn -0.0470 0.7272 0.6848
vn -0.6826 0.7117 0.1663
vn -0.2451 0.9574 0.1529
vn -0.4548 0.8361 0.3068
vn -0.3912 0.7216 0.5712
vn 0.0776 0.9626 0.2594
vn 0.1581 0.8461 0.5090
vn 0.4283 0.7298 0.5328
vn 0.2786 0.9603 -0.0146
vn 0.5399 0.8416 -0.0113
vn 0.6451 0.7191 -0.2583
vn 0.0802 0.9535 -0.2904
vn 0.1631 0.8288 -0.5352
vn -0.0403 0.7041 -0.7089
vn -0.2435 0.9517 -0.1869
vn -0.4517 0.8254 -0.3386
vn -0.6808 0.7057 -0.1962
vn -0.8786 0.3725 0.2989
vn -0.7948 0.2176 0.5665
vn -0.5714 0.3829 0.7258
vn 0.0158 0.3925 0.9196
vn 0.2949 0.2354 0.9261
vn 0.5168 0.3953 0.7594
vn 0.8827 0.3910 0.2608
vn 0.9738 0.2275 0.0009
vn 0.8852 0.3823 -0.2652
vn 0.5241 0.3700 -0.7671
vn 0.3037 0.2047 -0.9305
vn 0.0246 0.3619 -0.9319
vn -0.5644 0.3586 -0.7435
vn -0.7893 0.1986 -0.5809
vn -0.8756 0.3622 -0.3194
vn -0.3118 0.1579 0.9370
vn -0.3037 -0.2047 0.9305
vn -0.0246 -0.3619 0.9319
vn 0.7960 0.1640 0.5827
vn 0.7893 -0.1986 0.5809
vn 0.8756 -0.3622 0.3194
vn 0.8015 0.1448 -0.5802
vn 0.7948 -0.2176 -0.5665
vn 0.5714 -0.3829 -0.7258
vn -0.3028 0.1267 -0.9446
vn -0.2949 -0.2354 -0.9261
vn -0.5168 -0.3953 -0.7594
vn -0.9908 0.1348 -0.0070
vn -0.9738 -0.2275 -0.0009
vn -0.8852 -0.3823 0.2652
vn -0.4335 -0.7119 0.5526
vn -0.1631 -0.8288 0.5352
vn 0.0403 -0.7041 0.7089
vn 0.3856 -0.7022 0.5985
vn 0.4517 -0.8254 0.3386
vn 0.6808 -0.7057 0.1962
vn 0.6826 -0.7117 -0.1663
vn 0.4548 -0.8361 -0.3068
vn 0.3912 -0.7216 -0.5712
vn -0.6451 -0.7191 0.2583
vn -0.5399 -0.8416 0.0113
vn -0.2786 -0.9603 0.0146
vn 0.0470 -0.7272 -0.6848
vn -0.1581 -0.8461 -0.5090
vn -0.4283 -0.7298 -0.5328
vn -0.0876 -0.9621 -0.2582
vn -0.6432 -0.7246 -0.2474
vn 0.2271 -0.9622 -0.1505
vn 0.2218 -0.9579 0.1820
vn -0.0961 -0.9552 0.2798
vn -0.8826 -0.3841 -0.2712
vn -0.0114 -0.3963 -0.9181
vn 0.8731 -0.3924 -0.2894
vn 0.5485 -0.3777 0.7459
vn -0.5365 -0.3726 0.7572
vn -0.7914 -0.1530 -0.5919
vn 0.3197 -0.1624 -0.9335
vn 0.9880 -0.1534 0.0176
vn 0.2900 -0.1384 0.9470
vn -0.8097 -0.1381 0.5703
vn -0.3635 0.7186 -0.5929
vn 0.4451 0.7155 -0.5384
vn 0.6432 0.7246 0.2474
vn -0.0430 0.7332 0.6786
vn -0.6652 0.7295 0.1593
vn -0.2271 0.9622 0.1505
vn -0.4380 0.8475 0.2998
vn -0.3818 0.7333 0.5626
vn 0.0876 0.9621 0.2582
vn 0.1626 0.8474 0.5055
vn 0.4282 0.7292 0.5338
vn 0.2873 0.9578 -0.0077
vn 0.5439 0.8392 -0.0021
vn 0.6510 0.7183 -0.2454
vn 0.0961 0.9552 -0.2798
vn 0.1788 0.8343 -0.5216
vn -0.0212 0.7157 -0.6981
vn -0.2218 0.9579 -0.1820
vn -0.4280 0.8394 -0.3350
vn -0.6595 0.7249 -0.1988
vn -0.8731 0.3924 0.2894
vn -0.7968 0.2325 0.5577
vn -0.5717 0.3964 0.7184
vn 0.0114 0.3963 0.9181
vn 0.2877 0.2322 0.9292
vn 0.5125 0.3920 0.7640
vn 0.8826 0.3841 0.2712
vn 0.9760 0.2174 0.0126
vn 0.8908 0.3774 -0.2529
vn 0.5365 0.3726 -0.7572
vn 0.3169 0.2085 -0.9252
vn 0.0405 0.3727 -0.9270
vn -0.5485 0.3777 -0.7459
vn -0.7787 0.2178 -0.5883
vn -0.8634 0.3845 -0.3268
vn -0.3197 0.1624 0.9335
vn -0.3169 -0.2085 0.9252
vn -0.0405 -0.3727 0.9270
vn 0.7914 0.1530 0.5919
vn 0.7787 -0.2178 0.5884
vn 0.8634 -0.3845 0.3268
vn 0.8097 0.1381 -0.5703
vn 0.7968 -0.2325 -0.5577
vn 0.5717 -0.3964 -0.7184
vn -0.2900 0.1384 -0.9470
vn -0.2877 -0.2322 -0.9292
vn -0.5125 -0.3920 -0.7640
vn -0.9880 0.1534 -0.0176
vn -0.9760 -0.2174 -0.0126
vn -0.8908 -0.3774 0.2529
vn -0.4451 -0.7155 0.5384
vn -0.1788 -0.8343 0.5216
vn 0.0212 -0.7157 0.6981
vn 0.3635 -0.7186 0.5929
vn 0.4280 -0.8394 0.3350
vn 0.6595 -0.7249 0.1988
vn 0.6652 -0.7295 -0.1593
vn 0.4380 -0.8475 -0.2998
vn 0.3818 -0.7333 -0.5626
vn -0.6510 -0.7183 0.2454
vn -0.5439 -0.8392 0.0021
vn -0.2873 -0.9578 0.0077
vn 0.0430 -0.7332 -0.6786
vn -0.1626 -0.8474 -0.5055
vn -0.4282 -0.7292 -0.5338
vn 0.8592 0.0081 0.5116
vn 0.3938 0.3033 0.8677
vn 0.3522 -0.2123 0.9115
vn -0.8481 -0.0064 0.5299
vn -0.3899 -0.2975 0.8715
vn -0.3493 0.2131 0.9124
vn 0.8786 -0.3857 0.2816
vn 0.4378 -0.4840 0.7577
vn 0.3809 -0.8407 0.3849
vn -0.8261 -0.4263 0.3686
vn -0.3647 -0.8702 0.3311
vn -0.3055 -0.5828 0.7530
vn 0.8757 -0.4519 -0.1699
vn 0.4512 -0.8895 0.0727
vn 0.3676 -0.8219 -0.4352
vn -0.8246 -0.5625 -0.0607
vn -0.3801 -0.8059 -0.4538
vn -0.2947 -0.9551 0.0304
vn 0.8527 -0.1407 -0.5030
vn 0.4237 -0.6079 -0.6715
vn 0.3224 -0.1699 -0.9312
vn -0.8446 -0.3124 -0.4347
vn -0.4245 -0.1530 -0.8924
vn -0.3249 -0.6234 -0.7111
vn 0.8269 0.3135 -0.4668
vn 0.3762 0.1488 -0.9145
vn 0.2793 0.6242 -0.7296
vn -0.8712 0.1357 -0.4718
vn -0.4645 0.5968 -0.6542
vn -0.3735 0.1624 -0.9133
vn 0.8177 0.5687 -0.0886
vn 0.3444 0.8108 -0.4733
vn 0.2708 0.9625 0.0177
vn -0.8842 0.4443 -0.1440
vn -0.4699 0.8790 0.0812
vn -0.4039 0.8107 -0.4238
vn 0.8321 0.4328 0.3468
vn 0.3522 0.8796 0.3199
vn 0.3032 0.5902 0.7481
vn -0.8739 0.3811 0.3017
vn -0.4368 0.4809 0.7602
vn -0.3931 0.8333 0.3887
vn 0.4555 -0.3665 0.8113
vn 0.9276 -0.1224 0.3530
vn -0.4059 -0.4124 0.8156
vn -0.8983 -0.2265 0.3765
vn -0.0145 0.2482 0.9686
vn 0.0141 -0.2453 0.9693
vn 0.0444 -0.9099 0.4124
vn 0.0323 -0.6013 0.7984
vn 0.4749 -0.8578 0.1969
vn 0.9363 -0.3426 0.0775
vn -0.3868 -0.8985 0.2075
vn -0.8897 -0.4447 0.1038
vn 0.0304 -0.8900 -0.4550
vn 0.0438 -0.9987 0.0271
vn 0.4534 -0.6848 -0.5705
vn 0.9266 -0.2651 -0.2666
vn -0.4080 -0.7273 -0.5519
vn -0.8992 -0.3678 -0.2369
vn -0.0174 -0.2005 -0.9795
vn 0.0115 -0.6447 -0.7644
vn 0.4073 0.0223 -0.9130
vn 0.9060 0.0519 -0.4202
vn -0.4536 -0.0277 -0.8908
vn -0.9197 -0.0540 -0.3890
vn -0.0630 0.6393 -0.7663
vn -0.0403 0.1942 -0.9801
vn 0.3712 0.7309 -0.5727
vn 0.8898 0.3697 -0.2675
vn -0.4893 0.6736 -0.5540
vn -0.9357 0.2606 -0.2379
vn -0.0720 0.9971 0.0241
vn -0.0727 0.8861 -0.4577
vn 0.3724 0.9075 0.1942
vn 0.8903 0.4489 0.0763
vn -0.6000 0.8000 -0.0000
vn -0.9352 0.3390 0.1026
vn -0.0377 0.6034 0.7965
vn -0.0612 0.9102 0.4096
vn 0.4099 0.4192 0.8101
vn 0.9071 0.2299 0.3525
vn -0.4510 0.3651 0.8144
vn -0.9185 0.1222 0.3760
vn 0.9982 0.0579 -0.0148
vn 0.0250 -0.4318 0.9016
vn -0.0253 0.4345 0.9003
vn -0.9982 -0.0579 0.0148
vn 0.0463 -0.9735 0.2242
vn 0.0227 -0.7827 -0.6220
vn -0.0282 -0.0032 -0.9996
vn -0.0679 0.7782 -0.6244
vn -0.0666 0.9729 0.2212
vn -0.0935 -0.9583 -0.2701
vn -0.6553 -0.7164 -0.2395
vn 0.2309 -0.9582 -0.1687
vn 0.2346 -0.9569 0.1711
vn -0.0874 -0.9561 0.2797
vn -0.8914 -0.3770 -0.2517
vn -0.0349 -0.3806 -0.9241
vn 0.8692 -0.3793 -0.3173
vn 0.5715 -0.3748 0.7300
vn -0.5166 -0.3733 0.7706
vn -0.8069 -0.1470 -0.5721
vn 0.2952 -0.1498 -0.9436
vn 0.9891 -0.1469 -0.0103
vn 0.3159 -0.1423 0.9381
vn -0.7941 -0.1424 0.5909
vn -0.3863 0.7143 -0.5836
vn 0.4335 0.7135 -0.5504
vn 0.6553 0.7164 0.2395
vn -0.0274 0.7190 0.6945
vn -0.6711 0.7177 0.1858
vn -0.2309 0.9582 0.1687
vn -0.4397 0.8376 0.3243
vn -0.3734 0.7190 0.5863
vn 0.0935 0.9583 0.2701
vn 0.1764 0.8376 0.5170
vn 0.4455 0.7178 0.5351
vn 0.2902 0.9570 -0.0070
vn 0.5500 0.8351 -0.0094
vn 0.6498 0.7144 -0.2595
vn 0.0874 0.9561 -0.2797
vn 0.1649 0.8335 -0.5274
vn -0.0427 0.7135 -0.6994
vn -0.2346 0.9569 -0.1711
vn -0.4468 0.8350 -0.3211
vn -0.6751 0.7163 -0.1767
vn -0.8692 0.3793 0.3173
vn -0.7832 0.2200 0.5816
vn -0.5553 0.3806 0.7395
vn 0.0349 0.3806 0.9241
vn 0.3121 0.2201 0.9242
vn 0.5334 0.3794 0.7560
vn 0.8914 0.3770 0.2517
vn 0.9764 0.2156 -0.0116
vn 0.8856 0.3749 -0.2743
vn 0.5166 0.3733 -0.7706
vn 0.2917 0.2128 -0.9326
vn 0.0145 0.3733 -0.9276
vn -0.5715 0.3748 -0.7300
vn -0.7958 0.2155 -0.5659
vn -0.8760 0.3768 -0.3011
vn -0.2952 0.1498 0.9436
vn -0.2917 -0.2128 0.9326
vn -0.0145 -0.3733 0.9276
vn 0.8069 0.1470 0.5721
vn 0.7958 -0.2155 0.5659
vn 0.8760 -0.3768 0.3011
vn 0.7941 0.1424 -0.5909
vn 0.7832 -0.2200 -0.5816
vn 0.5553 -0.3806 -0.7395
vn -0.3159 0.1423 -0.9381
vn -0.3121 -0.2201 -0.9242
vn -0.5334 -0.3794 -0.7560
vn -0.9891 0.1469 0.0103
vn -0.9764 -0.2156 0.0116
vn -0.8856 -0.3749 0.2743
vn -0.4335 -0.7135 0.5504
vn -0.1649 -0.8335 0.5274
vn 0.0427 -0.7135 0.6994
vn 0.3863 -0.7143 0.5836
vn 0.4468 -0.8350 0.3211
vn 0.6751 -0.7163 0.1767
vn 0.6711 -0.7177 -0.1858
vn 0.4397 -0.8376 -0.3243
vn 0.3734 -0.7190 -0.5863
vn -0.6498 -0.7144 0.2595
vn -0.5500 -0.8351 0.0094
vn -0.2902 -0.9570 0.0070
vn 0.0274 -0.7190 -0.6945
vn -0.1764 -0.8376 -0.5170
vn -0.4455 -0.7178 -0.5351
vn -0.0710 -0.9565 -0.2831
vn -0.6312 -0.7310 -0.2591
vn 0.2450 -0.9528 -0.1792
vn 0.2439 -0.9576 0.1533
vn -0.0727 -0.9642 0.2549
vn -0.8778 -0.3951 -0.2708
vn -0.0149 -0.3716 -0.9283
vn 0.8772 -0.3660 -0.3106
vn 0.5657 -0.3860 0.7287
vn -0.5190 -0.4040 0.7533
vn -0.7955 -0.1536 -0.5861
vn 0.3111 -0.1305 -0.9414
vn 0.9911 -0.1330 0.0014
vn 0.3048 -0.1577 0.9393
vn -0.7994 -0.1704 0.5762
vn -0.3858 0.7264 -0.5687
vn 0.4233 0.7389 -0.5242
vn 0.6312 0.7310 0.2591
vn -0.0495 0.7137 0.6987
vn -0.6780 0.7108 0.1871
vn -0.2450 0.9528 0.1792
vn -0.4516 0.8298 0.3280
vn -0.3896 0.7098 0.5869
vn 0.0710 0.9565 0.2831
vn 0.1515 0.8367 0.5263
vn 0.4198 0.7234 0.5481
vn 0.2673 0.9635 0.0148
vn 0.5263 0.8502 0.0140
vn 0.6329 0.7381 -0.2337
vn 0.0727 0.9642 -0.2549
vn 0.1549 0.8515 -0.5009
vn -0.0449 0.7335 -0.6782
vn -0.2439 0.9576 -0.1533
vn -0.4495 0.8389 -0.3069
vn -0.6768 0.7160 -0.1710
vn -0.8772 0.3660 0.3106
vn -0.7943 0.2006 0.5735
vn -0.5705 0.3649 0.7358
vn 0.0149 0.3716 0.9283
vn 0.2946 0.2131 0.9315
vn 0.5140 0.3820 0.7680
vn 0.8778 0.3951 0.2708
vn 0.9714 0.2374 0.0066
vn 0.8796 0.4027 -0.2534
vn 0.5190 0.4040 -0.7533
vn 0.3008 0.2399 -0.9230
vn 0.0210 0.3983 -0.9170
vn -0.5657 0.3860 -0.7287
vn -0.7905 0.2172 -0.5727
vn -0.8752 0.3749 -0.3057
vn -0.3111 0.1305 0.9414
vn -0.3008 -0.2399 0.9230
vn -0.0210 -0.3983 0.9170
vn 0.7955 0.1536 0.5861
vn 0.7905 -0.2172 0.5727
vn 0.8752 -0.3749 0.3057
vn 0.7994 0.1704 -0.5762
vn 0.7943 -0.2006 -0.5735
vn 0.5705 -0.3649 -0.7358
vn -0.3048 0.1577 -0.9393
vn -0.2946 -0.2131 -0.9315
vn -0.5140 -0.3820 -0.7680
vn -0.9911 0.1330 -0.0014
vn -0.9714 -0.2374 -0.0066
vn -0.8796 -0.4027 0.2534
vn -0.4233 -0.7389 0.5242
vn -0.1549 -0.8515 0.5009
vn 0.0449 -0.7335 0.6782
vn 0.3858 -0.7264 0.5687
vn 0.4495 -0.8389 0.3069
vn 0.6768 -0.7160 0.1710
vn 0.6780 -0.7108 -0.1871
vn 0.4516 -0.8298 -0.3280
vn 0.3897 -0.7098 -0.5869
vn -0.6329 -0.7381 0.2337
vn -0.5263 -0.8502 -0.0140
vn -0.2673 -0.9635 -0.0148
vn 0.0495 -0.7137 -0.6987
vn -0.1515 -0.8367 -0.5263
vn -0.4198 -0.7234 -0.5481
vn -0.0000 -0.2393 0.9709
vn -0.0000 -0.6631 0.7485
vn -0.0000 -0.9350 0.3546
vn -0.0000 -0.9927 -0.1205
vn -0.0000 -0.8230 -0.5681
vn -0.0000 -0.4647 -0.8855
vn -0.0000 0.4647 -0.8855
vn -0.0000 0.8230 -0.5681
vn -0.0000 0.9927 -0.1205
vn -0.0000 0.9350 0.3546
vn -0.0000 0.6631 0.7485
vn -0.0000 0.2393 0.9709
vn 0.8029 0.0731 0.5917
vn 0.2412 0.2430 0.9396
vn 0.3359 -0.2662 0.9035
vn -0.8918 -0.0761 0.4461
vn -0.4133 -0.2476 0.8763
vn -0.4984 0.2569 0.8280
vn 0.8324 -0.3519 0.4280
vn 0.2851 -0.5601 0.7778
vn 0.4024 -0.8424 0.3583
vn -0.8584 -0.4637 0.2192
vn -0.3470 -0.8680 0.3551
vn -0.4597 -0.5223 0.7182
vn 0.8731 -0.4876 -0.0058
vn 0.3587 -0.9321 0.0504
vn 0.4644 -0.7729 -0.4323
vn -0.8197 -0.5267 -0.2252
vn -0.2817 -0.8448 -0.4550
vn -0.3892 -0.9202 0.0419
vn 0.8942 -0.2318 -0.3831
vn 0.4067 -0.5929 -0.6950
vn 0.4751 -0.1100 -0.8730
vn -0.8048 -0.2174 -0.5523
vn -0.2665 -0.1954 -0.9438
vn -0.3401 -0.6371 -0.6917
vn 0.8798 0.2229 -0.4198
vn 0.3929 0.2021 -0.8971
vn 0.4266 0.6471 -0.6319
vn -0.8248 0.2311 -0.5160
vn -0.3129 0.5911 -0.7434
vn -0.3492 0.1137 -0.9301
vn 0.8409 0.5340 -0.0882
vn 0.3277 0.8542 -0.4036
vn 0.3552 0.9283 0.1095
vn -0.8648 0.4811 -0.1435
vn -0.3859 0.9225 -0.0046
vn -0.4098 0.7669 -0.4939
vn 0.8066 0.4673 0.3619
vn 0.2602 0.8724 0.4138
vn 0.3149 0.5219 0.7928
vn -0.8946 0.3445 0.2847
vn -0.4306 0.5492 0.7162
vn -0.4762 0.8307 0.2886
vn 0.2425 -0.0000 -0.9701
vn -0.1731 -0.9849 -0.0000
vn 0.9427 -0.2821 -0.1783
vn 0.3511 -0.0000 0.9363
vn -0.3662 -0.0139 -0.9304
vn 0.2357 -0.2357 0.9428
vn -0.0000 1.0000 -0.0000
vn 0.7682 -0.5121 -0.3841
vn -0.9478 0.1386 0.2871
vn 0.2356 -0.0000 -0.9719
vn -0.0047 -0.9332 -0.3594
vn 1.0000 -0.0000 -0.0000
vn -0.0617 0.7907 0.6091
vn 0.0797 -0.0000 -0.9968
vn -0.0462 -0.7912 0.6098
vn 0.8724 0.0428 0.4869
vn 0.3654 0.2338 0.9010
vn 0.4356 -0.2785 0.8560
vn -0.8316 -0.0422 0.5538
vn -0.3099 -0.2317 0.9221
vn -0.3813 0.2757 0.8824
vn 0.8655 -0.3830 0.3230
vn 0.3587 -0.5703 0.7390
vn 0.4122 -0.8569 0.3096
vn -0.8413 -0.4310 0.3264
vn -0.3322 -0.8543 0.3997
vn -0.3859 -0.5045 0.7724
vn 0.8467 -0.5201 -0.1118
vn 0.3273 -0.9449 0.0099
vn 0.3780 -0.7899 -0.4828
vn -0.8605 -0.4954 -0.1191
vn -0.3672 -0.8337 -0.4124
vn -0.4150 -0.9049 0.0944
vn 0.8304 -0.2654 -0.4900
vn 0.2950 -0.6079 -0.7372
vn 0.3588 -0.1280 -0.9246
vn -0.8747 -0.1870 -0.4471
vn -0.3886 -0.1853 -0.9026
vn -0.4468 -0.6240 -0.6411
vn 0.8286 0.1893 -0.5268
vn 0.2860 0.1869 -0.9398
vn 0.3690 0.6303 -0.6830
vn -0.8733 0.2621 -0.4108
vn -0.3802 0.6025 -0.7018
vn -0.4573 0.1267 -0.8802
vn 0.8429 0.5017 -0.1946
vn 0.3072 0.8411 -0.4453
vn 0.4009 0.9142 0.0600
vn -0.8572 0.5136 -0.0373
vn -0.3483 0.9366 0.0388
vn -0.4387 0.7819 -0.4429
vn 0.8623 0.4365 0.2566
vn 0.3425 0.8619 0.3739
vn 0.4306 0.5097 0.7449
vn -0.8387 0.3782 0.3919
vn -0.3170 0.5653 0.7615
vn -0.4048 0.8482 0.3415
vn 0.3810 0.5238 -0.7619
vn -0.4790 -0.0001 -0.8778
vn 0.3969 0.7090 -0.5830
vn -0.0000 -1.0000 -0.0000
vn -0.0099 0.8932 -0.4496
vn 0.0776 -0.9970 -0.0000
vn 0.0862 -0.0000 0.9963
vn 0.8543 0.0929 0.5115
vn 0.3251 0.2544 0.9108
vn 0.4261 -0.2531 0.8686
vn -0.8432 -0.0902 0.5300
vn -0.3225 -0.2493 0.9132
vn -0.4219 0.2531 0.8706
vn 0.8765 -0.3326 0.3480
vn 0.3694 -0.5489 0.7499
vn 0.4515 -0.8319 0.3225
vn -0.8240 -0.4787 0.3030
vn -0.2941 -0.8720 0.3913
vn -0.3783 -0.5259 0.7618
vn 0.8781 -0.4706 -0.0870
vn 0.3803 -0.9246 0.0206
vn 0.4360 -0.7669 -0.4709
vn -0.8269 -0.5440 -0.1425
vn -0.3073 -0.8533 -0.4213
vn -0.3651 -0.9272 0.0840
vn 0.8577 -0.2171 -0.4660
vn 0.3498 -0.5899 -0.7278
vn 0.3911 -0.1071 -0.9141
vn -0.8496 -0.2370 -0.4713
vn -0.3521 -0.2073 -0.9127
vn -0.3922 -0.6485 -0.6524
vn 0.8308 0.2369 -0.5036
vn 0.3007 0.2033 -0.9318
vn 0.3507 0.6508 -0.6734
vn -0.8750 0.2112 -0.4355
vn -0.3948 0.5795 -0.7130
vn -0.4392 0.1002 -0.8928
vn 0.8176 0.5497 -0.1715
vn 0.2701 0.8576 -0.4378
vn 0.3452 0.9359 0.0699
vn -0.8841 0.4631 -0.0623
vn -0.4032 0.9147 0.0276
vn -0.4707 0.7552 -0.4562
vn 0.8280 0.4856 0.2803
vn 0.2810 0.8803 0.3823
vn 0.3788 0.5336 0.7562
vn -0.8699 0.3290 0.3674
vn -0.3710 0.5458 0.7513
vn -0.4630 0.8232 0.3286
vn 0.9363 -0.3427 0.0775
vn -0.3846 -0.9231 -0.0000
vn -0.0000 -0.0000 1.0000
vn 0.3714 -0.9285 -0.0000
vn -0.4881 0.8484 0.2049
vn 0.0226 -0.9997 -0.0000
vn 0.0416 -0.9991 -0.0000
vn 0.0477 -0.0000 0.9989
vn 0.0060 -1.0000 -0.0000
vn -0.0624 0.9981 -0.0000
vt 0.750000 0.389969
vt 0.735057 0.482804
vt 0.820789 0.455909
vt 0.062181 0.519668
vt 0.000000 0.508433
vt 0.053895 0.500000
vt 0.937819 0.519669
vt 0.988623 0.500000
vt 1.000000 0.519727
vt 0.250000 0.373684
vt 0.266868 0.481877
vt 0.168038 0.450529
vt 0.928571 0.980331
vt 1.000000 0.991808
vt 0.937599 1.000000
vt 0.071429 0.980331
vt 0.012842 1.000000
vt 0.000000 0.980390
vt 0.859432 0.337269
vt 0.922697 0.406834
vt 0.955123 0.323037
vt 0.919323 0.519668
vt 0.851455 0.504217
vt 0.911038 0.500000
vt 0.794962 0.519668
vt 0.857143 0.519727
vt 0.346700 0.327116
vt 0.441805 0.381385
vt 0.355678 0.439108
vt 0.785714 0.980331
vt 0.863564 0.995904
vt 0.794742 1.000000
vt 0.928571 0.980331
vt 0.857143 0.980390
vt 0.886459 0.218854
vt 0.980292 0.212764
vt 0.934995 0.135166
vt 0.776466 0.519668
vt 0.708597 0.504217
vt 0.768181 0.500000
vt 0.652105 0.519669
vt 0.714286 0.519727
vt 0.370583 0.222478
vt 0.472310 0.181958
vt 0.463740 0.285285
vt 0.642857 0.980331
vt 0.720707 0.995904
vt 0.651885 1.000000
vt 0.785714 0.980331
vt 0.714286 0.980390
vt 0.810730 0.123893
vt 0.864473 0.046734
vt 0.775562 0.033767
vt 0.633609 0.519669
vt 0.565740 0.504217
vt 0.625323 0.500000
vt 0.509248 0.519669
vt 0.571429 0.519727
vt 0.303665 0.138564
vt 0.335410 0.033767
vt 0.410851 0.104891
vt 0.500000 0.980331
vt 0.577850 0.995904
vt 0.509028 1.000000
vt 0.642857 0.980331
vt 0.571429 0.980390
vt 0.689270 0.123893
vt 0.662453 0.033767
vt 0.596880 0.095196
vt 0.490752 0.519668
vt 0.422883 0.504217
vt 0.482466 0.500000
vt 0.366391 0.519668
vt 0.428571 0.519727
vt 0.196335 0.138564
vt 0.134195 0.048405
vt 0.236838 0.033767
vt 0.357143 0.980331
vt 0.434992 0.995904
vt 0.366171 1.000000
vt 0.500000 0.980331
vt 0.428571 0.980390
vt 0.613541 0.218854
vt 0.526358 0.183628
vt 0.533501 0.273196
vt 0.347895 0.519668
vt 0.280026 0.504217
vt 0.339609 0.500000
vt 0.223534 0.519668
vt 0.285714 0.519727
vt 0.129417 0.222478
vt 0.020183 0.214847
vt 0.072736 0.125471
vt 0.214286 0.980331
vt 0.292135 0.995904
vt 0.223314 1.000000
vt 0.357143 0.980332
vt 0.285714 0.980390
vt 0.640568 0.337269
vt 0.558670 0.383468
vt 0.633150 0.433728
vt 0.205038 0.519668
vt 0.137169 0.504217
vt 0.196752 0.500000
vt 0.080677 0.519668
vt 0.142857 0.519727
vt 0.153300 0.327116
vt 0.079228 0.407761
vt 0.042118 0.310948
vt 0.071429 0.980331
vt 0.149278 0.995904
vt 0.080457 1.000000
vt 0.214286 0.980331
vt 0.142857 0.980390
vt 0.946105 0.500000
vt 0.866850 0.433728
vt 0.919543 1.000000
vt 0.331962 0.450529
vt 0.000000 0.519727
vt 1.000000 0.980390
vt 0.803248 0.500000
vt 0.966499 0.273196
vt 0.776686 1.000000
vt 0.660391 0.500000
vt 0.633829 1.000000
vt 0.517534 0.500000
vt 0.724438 0.033767
vt 0.490972 1.000000
vt 0.374677 0.500000
vt 0.565005 0.135166
vt 0.348115 1.000000
vt 0.231819 0.500000
vt 0.205258 1.000000
vt 0.088962 0.500000
vt 0.062401 1.000000
vt 0.144322 0.439108
vt 0.181819 0.000000
vt 0.227273 0.078731
vt 0.136365 0.078731
vt 0.272728 0.157461
vt 0.318182 0.078731
vt 0.363637 0.157461
vt 0.909091 0.000000
vt 0.954545 0.078731
vt 0.863636 0.078731
vt 0.727273 0.000000
vt 0.772727 0.078731
vt 0.681818 0.078731
vt 0.545455 0.000000
vt 0.590909 0.078731
vt 0.500000 0.078731
vt 0.318182 0.236191
vt 0.090910 0.157461
vt 0.181819 0.157461
vt 0.136365 0.236191
vt 0.818182 0.157461
vt 0.909091 0.157461
vt 0.863636 0.236191
vt 0.636364 0.157461
vt 0.727273 0.157461
vt 0.681818 0.236191
vt 0.454546 0.157461
vt 0.545455 0.157461
vt 0.500000 0.236191
vt 0.227273 0.236191
vt 0.045455 0.236191
vt 0.772727 0.236191
vt 0.590909 0.236191
vt 0.409092 0.236191
vt 0.181819 0.314921
vt 0.272728 0.314921
vt 0.227273 0.393651
vt 0.000000 0.314921
vt 0.090910 0.314921
vt 0.045455 0.393651
vt 0.727273 0.314921
vt 0.818182 0.314921
vt 0.772727 0.393651
vt 0.545455 0.314921
vt 0.636364 0.314921
vt 0.590909 0.393651
vt 0.363637 0.314921
vt 0.454546 0.314921
vt 0.409092 0.393651
vt 0.500000 0.393651
vt 0.454546 0.472382
vt 0.681818 0.393651
vt 0.636364 0.472382
vt 0.863636 0.393651
vt 0.818182 0.472382
vt 0.909091 0.314921
vt 0.136365 0.393651
vt 0.090910 0.472382
vt 0.318182 0.393651
vt 0.272728 0.472382
vt 0.954545 0.236191
vt 1.000000 0.157461
vt 0.409092 0.078731
vt 0.363637 0.000000
vt 0.750000 0.389985
vt 0.735065 0.482808
vt 0.820774 0.455917
vt 0.062161 0.519155
vt 0.000000 0.508210
vt 0.053883 0.500000
vt 0.937839 0.519155
vt 0.988630 0.500000
vt 1.000000 0.519210
vt 0.250000 0.373704
vt 0.266871 0.481875
vt 0.168047 0.450534
vt 0.928571 0.980845
vt 1.000000 0.992019
vt 0.937606 1.000000
vt 0.071429 0.980845
vt 0.012845 1.000000
vt 0.000000 0.980901
vt 0.859445 0.337279
vt 0.922705 0.406830
vt 0.955119 0.323054
vt 0.919304 0.519155
vt 0.851458 0.504105
vt 0.911026 0.500000
vt 0.794982 0.519155
vt 0.857143 0.519210
vt 0.346715 0.327128
vt 0.441806 0.381381
vt 0.355687 0.439104
vt 0.785714 0.980845
vt 0.863565 0.996009
vt 0.794749 1.000000
vt 0.857143 0.980901
vt 0.886475 0.218850
vt 0.980294 0.212756
vt 0.935006 0.135180
vt 0.776447 0.519154
vt 0.708601 0.504105
vt 0.768169 0.500000
vt 0.652125 0.519155
vt 0.714286 0.519210
vt 0.370602 0.222473
vt 0.472307 0.181955
vt 0.463742 0.285275
vt 0.642857 0.980845
vt 0.720708 0.996009
vt 0.651892 1.000000
vt 0.785714 0.980845
vt 0.714286 0.980901
vt 0.810737 0.123878
vt 0.864467 0.046727
vt 0.775579 0.033767
vt 0.633589 0.519154
vt 0.565743 0.504105
vt 0.625311 0.500000
vt 0.509268 0.519154
vt 0.571429 0.519210
vt 0.303673 0.138547
vt 0.335406 0.033767
vt 0.410845 0.104883
vt 0.500000 0.980846
vt 0.577851 0.996009
vt 0.509035 1.000000
vt 0.571429 0.980901
vt 0.689263 0.123878
vt 0.662444 0.033767
vt 0.596891 0.095183
vt 0.490732 0.519154
vt 0.422886 0.504105
vt 0.482454 0.500000
vt 0.366411 0.519155
vt 0.428571 0.519210
vt 0.196327 0.138547
vt 0.134193 0.048408
vt 0.236828 0.033767
vt 0.357143 0.980846
vt 0.434994 0.996009
vt 0.366178 1.000000
vt 0.500000 0.980846
vt 0.428571 0.980901
vt 0.613525 0.218850
vt 0.526352 0.183635
vt 0.533497 0.273179
vt 0.347875 0.519155
vt 0.280029 0.504105
vt 0.339597 0.500000
vt 0.223554 0.519154
vt 0.285714 0.519210
vt 0.129398 0.222473
vt 0.020184 0.214851
vt 0.072730 0.125479
vt 0.214286 0.980845
vt 0.292137 0.996009
vt 0.223321 1.000000
vt 0.357143 0.980845
vt 0.285714 0.980901
vt 0.640555 0.337279
vt 0.558672 0.383477
vt 0.633134 0.433721
vt 0.205018 0.519154
vt 0.137172 0.504105
vt 0.196740 0.500000
vt 0.080696 0.519155
vt 0.142857 0.519210
vt 0.153285 0.327128
vt 0.079232 0.407762
vt 0.042120 0.310958
vt 0.071429 0.980845
vt 0.149280 0.996009
vt 0.080464 1.000000
vt 0.214286 0.980845
vt 0.142857 0.980901
vt 0.946117 0.500000
vt 0.919536 1.000000
vt 0.331953 0.450534
vt 0.000000 0.519210
vt 1.000000 0.980901
vt 0.803260 0.500000
vt 0.966503 0.273179
vt 0.776679 1.000000
vt 0.457880 0.310958
vt 0.660403 0.500000
vt 0.633822 1.000000
vt 0.427270 0.125479
vt 0.517546 0.500000
vt 0.490965 1.000000
vt 0.374689 0.500000
vt 0.564994 0.135180
vt 0.348108 1.000000
vt 0.089155 0.104883
vt 0.231831 0.500000
vt 0.544881 0.323054
vt 0.205251 1.000000
vt 0.036258 0.285275
vt 0.088974 0.500000
vt 0.062394 1.000000
vt 0.750000 0.389956
vt 0.735051 0.482801
vt 0.820801 0.455904
vt 0.062195 0.520042
vt 0.000000 0.508596
vt 0.053904 0.500000
vt 0.937805 0.520043
vt 0.988619 0.500000
vt 1.000000 0.520104
vt 0.250000 0.373670
vt 0.266865 0.481878
vt 0.168032 0.450526
vt 0.928571 0.979958
vt 1.000000 0.991654
vt 0.937595 1.000000
vt 0.071429 0.979958
vt 0.012840 1.000000
vt 0.000000 0.980019
vt 0.859423 0.337262
vt 0.922691 0.406837
vt 0.955126 0.323025
vt 0.919338 0.520042
vt 0.851452 0.504298
vt 0.911046 0.500000
vt 0.794948 0.520042
vt 0.857143 0.520104
vt 0.346689 0.327107
vt 0.441805 0.381388
vt 0.355671 0.439111
vt 0.785714 0.979958
vt 0.863563 0.995827
vt 0.794737 1.000000
vt 0.928571 0.979958
vt 0.857143 0.980019
vt 0.886448 0.218857
vt 0.980291 0.212771
vt 0.934987 0.135156
vt 0.776481 0.520043
vt 0.708595 0.504298
vt 0.768189 0.500000
vt 0.652091 0.520042
vt 0.714286 0.520104
vt 0.370570 0.222481
vt 0.472312 0.181960
vt 0.463738 0.285292
vt 0.642857 0.979958
vt 0.720706 0.995827
vt 0.651880 1.000000
vt 0.785714 0.979958
vt 0.714286 0.980019
vt 0.810725 0.123904
vt 0.864477 0.046740
vt 0.775549 0.033767
vt 0.633623 0.520043
vt 0.565738 0.504298
vt 0.625332 0.500000
vt 0.509234 0.520043
vt 0.571429 0.520104
vt 0.303659 0.138577
vt 0.335414 0.033767
vt 0.410856 0.104897
vt 0.500000 0.979958
vt 0.577849 0.995827
vt 0.509023 1.000000
vt 0.642857 0.979958
vt 0.571429 0.980019
vt 0.689275 0.123904
vt 0.662460 0.033767
vt 0.596872 0.095206
vt 0.490766 0.520043
vt 0.422881 0.504298
vt 0.482475 0.500000
vt 0.366377 0.520042
vt 0.428571 0.520104
vt 0.196341 0.138577
vt 0.134197 0.048402
vt 0.236846 0.033767
vt 0.357143 0.979957
vt 0.434991 0.995827
vt 0.366166 1.000000
vt 0.500000 0.979958
vt 0.428571 0.980019
vt 0.613553 0.218857
vt 0.526362 0.183623
vt 0.533504 0.273208
vt 0.347909 0.520042
vt 0.280024 0.504298
vt 0.339618 0.500000
vt 0.223520 0.520043
vt 0.285714 0.520104
vt 0.129430 0.222481
vt 0.020183 0.214844
vt 0.072741 0.125466
vt 0.214286 0.979958
vt 0.292134 0.995827
vt 0.223309 1.000000
vt 0.357143 0.979958
vt 0.285714 0.980019
vt 0.640578 0.337261
vt 0.558668 0.383462
vt 0.633162 0.433734
vt 0.205052 0.520042
vt 0.137167 0.504298
vt 0.196761 0.500000
vt 0.080662 0.520043
vt 0.142857 0.520104
vt 0.153311 0.327107
vt 0.079225 0.407759
vt 0.042116 0.310941
vt 0.071429 0.979958
vt 0.149277 0.995827
vt 0.080452 1.000000
vt 0.214286 0.979958
vt 0.142857 0.980019
vt 0.946097 0.500000
vt 0.919548 1.000000
vt 0.000000 0.520104
vt 1.000000 0.980019
vt 0.803239 0.500000
vt 0.966496 0.273208
vt 0.776691 1.000000
vt 0.457884 0.310941
vt 0.660382 0.500000
vt 0.633834 1.000000
vt 0.517525 0.500000
vt 0.724451 0.033767
vt 0.490977 1.000000
vt 0.263154 0.033767
vt 0.374668 0.500000
vt 0.348120 1.000000
vt 0.231811 0.500000
vt 0.205263 1.000000
vt 0.036262 0.285292
vt 0.088954 0.500000
vt 0.062405 1.000000
vt 1.000000 1.000000
vt 0.923077 0.500000
vt 1.000000 0.500000
vt 0.923077 1.000000
vt 0.846154 0.500000
vt 0.769231 1.000000
vt 0.769231 0.500000
vt 0.692308 0.500000
vt 0.692308 1.000000
vt 0.615385 0.500000
vt 0.615385 1.000000
vt 0.538462 0.500000
vt 0.538462 1.000000
vt 0.461538 0.500000
vt 0.461538 1.000000
vt 0.384615 0.500000
vt 0.384615 1.000000
vt 0.307692 0.500000
vt 0.307692 1.000000
vt 0.230769 0.500000
vt 0.153846 1.000000
vt 0.153846 0.500000
vt 0.076923 0.500000
vt 0.076923 1.000000
vt 0.000000 0.500000
vt 0.679210 0.455910
vt 0.457882 0.310948
vt 0.427264 0.125471
vt 0.903120 0.095196
vt 0.263162 0.033767
vt 0.089149 0.104891
vt 0.036260 0.285285
vt 0.544877 0.323037
vt 0.679226 0.455917
vt 0.866866 0.433721
vt 0.903109 0.095183
vt 0.263172 0.033767
vt 0.724421 0.033767
vt 0.144313 0.439104
vt 0.679199 0.455904
vt 0.331968 0.450526
vt 0.866838 0.433734
vt 0.427259 0.125466
vt 0.903128 0.095206
vt 0.089144 0.104897
vt 0.565013 0.135156
vt 0.544874 0.323025
vt 0.144329 0.439111
vt 0.846154 1.000000
vt 0.230769 1.000000
vt 0.000000 1.000000
s 0
usemtl bone
f 1/1/1 5/2/1 7/3/1
f 2/4/2 5/5/2 4/6/2
f 3/7/3 5/8/3 6/9/3
f 8/10/4 12/11/4 14/12/4
f 9/13/5 12/14/5 11/15/5
f 10/16/6 12/17/6 13/18/6
f 15/19/7 19/20/7 21/21/7
f 16/22/8 19/23/8 18/24/8
f 17/25/9 19/23/9 20/26/9
f 22/27/10 26/28/10 28/29/10
f 23/30/11 26/31/11 25/32/11
f 24/33/12 26/31/12 27/34/12
f 29/35/13 33/36/13 35/37/13
f 30/38/14 33/39/14 32/40/14
f 31/41/15 33/39/15 34/42/15
f 36/43/16 40/44/16 42/45/16
f 37/46/17 40/47/17 39/48/17
f 38/49/18 40/47/18 41/50/18
f 43/51/19 47/52/19 49/53/19
f 44/54/20 47/55/20 46/56/20
f 45/57/21 47/55/21 48/58/21
f 50/59/22 54/60/22 56/61/22
f 51/62/23 54/63/23 53/64/23
f 52/65/24 54/63/24 55/66/24
f 57/67/25 61/68/25 63/69/25
f 58/70/26 61/71/26 60/72/26
f 59/73/27 61/71/27 62/74/27
f 64/75/28 68/76/28 70/77/28
f 65/78/29 68/79/29 67/80/29
f 66/81/30 68/79/30 69/82/30
f 71/83/31 75/84/31 77/85/31
f 72/86/32 75/87/32 74/88/32
f 73/89/33 75/87/33 76/90/33
f 78/91/34 82/92/34 84/93/34
f 79/94/35 82/95/35 81/96/35
f 80/97/36 82/95/36 83/98/36
f 85/99/37 89/100/37 91/101/37
f 86/102/38 89/103/38 88/104/38
f 87/105/39 89/103/39 90/106/39
f 92/107/40 96/108/40 98/109/40
f 93/110/41 96/111/41 95/112/41
f 94/113/42 96/111/42 97/114/42
f 16/22/43 7/115/43 3/7/43
f 18/116/44 1/1/44 7/3/44
f 24/33/45 11/15/45 28/117/45
f 11/118/46 22/27/46 28/29/46
f 2/4/47 13/18/47 6/119/47
f 13/120/48 3/7/48 6/9/48
f 17/25/49 27/34/49 23/30/49
f 27/34/50 16/22/50 24/33/50
f 30/38/51 21/121/51 17/25/51
f 32/122/52 15/19/52 21/21/52
f 38/49/53 25/32/53 42/123/53
f 42/45/54 22/27/54 36/43/54
f 31/41/55 41/50/55 37/46/55
f 41/50/56 30/38/56 38/49/56
f 31/41/57 46/56/57 35/124/57
f 35/37/58 43/51/58 29/35/58
f 52/65/59 39/48/59 56/125/59
f 56/61/60 36/43/60 50/59/60
f 45/57/61 55/66/61 51/62/61
f 55/66/62 44/54/62 52/65/62
f 58/70/63 49/126/63 45/57/63
f 60/127/64 43/51/64 49/53/64
f 51/62/65 70/128/65 66/81/65
f 70/77/66 50/59/66 64/75/66
f 59/73/67 69/82/67 65/78/67
f 69/82/68 58/70/68 66/81/68
f 72/86/69 63/129/69 59/73/69
f 74/130/70 57/67/70 63/69/70
f 80/97/71 67/80/71 84/131/71
f 84/93/72 64/75/72 78/91/72
f 73/89/73 83/98/73 79/94/73
f 83/98/74 72/86/74 80/97/74
f 86/102/75 77/132/75 73/89/75
f 77/85/76 85/99/76 71/83/76
f 94/113/77 81/96/77 98/133/77
f 98/109/78 78/91/78 92/107/78
f 87/105/79 97/114/79 93/110/79
f 97/114/80 86/102/80 94/113/80
f 87/105/81 4/6/81 91/134/81
f 91/101/82 1/1/82 85/99/82
f 10/16/83 95/112/83 14/135/83
f 95/136/84 8/10/84 14/12/84
f 15/19/85 43/51/85 71/83/85
f 3/7/86 24/33/86 16/22/86
f 87/105/87 10/16/87 2/4/87
f 8/10/88 78/91/88 50/59/88
f 17/25/89 38/49/89 30/38/89
f 31/41/90 52/65/90 44/54/90
f 51/62/91 58/70/91 45/57/91
f 59/73/92 80/97/92 72/86/92
f 73/89/93 94/113/93 86/102/93
f 99/137/94 112/138/94 111/139/94
f 100/140/95 112/141/95 114/142/95
f 99/143/96 111/144/96 116/145/96
f 99/146/97 116/147/97 118/148/97
f 99/149/98 118/150/98 115/151/98
f 100/140/99 114/142/99 121/152/99
f 101/153/100 113/154/100 123/155/100
f 102/156/101 117/157/101 125/158/101
f 103/159/102 119/160/102 127/161/102
f 104/162/103 120/163/103 129/164/103
f 100/140/104 121/152/104 124/165/104
f 101/153/105 123/155/105 126/166/105
f 102/156/106 125/158/106 128/167/106
f 103/159/107 127/161/107 130/168/107
f 104/162/108 129/164/108 122/169/108
f 105/170/109 131/171/109 136/172/109
f 106/173/110 132/174/110 138/175/110
f 107/176/111 133/177/111 139/178/111
f 108/179/112 134/180/112 140/181/112
f 109/182/113 135/183/113 137/184/113
f 137/184/114 140/185/114 110/186/114
f 137/184/115 135/183/115 140/185/115
f 135/183/116 108/179/116 140/185/116
f 140/181/117 139/187/117 110/188/117
f 140/181/118 134/180/118 139/187/118
f 134/180/119 107/176/119 139/187/119
f 139/178/120 138/189/120 110/190/120
f 139/178/121 133/177/121 138/189/121
f 133/177/122 106/191/122 138/189/122
f 138/175/123 136/192/123 110/193/123
f 138/175/124 132/174/124 136/192/124
f 132/174/125 105/170/125 136/192/125
f 136/172/126 137/194/126 110/195/126
f 136/172/127 131/171/127 137/194/127
f 131/171/128 109/182/128 137/194/128
f 122/169/129 135/183/129 109/182/129
f 122/169/130 129/164/130 135/183/130
f 129/164/131 108/179/131 135/183/131
f 130/168/132 134/180/132 108/179/132
f 130/168/133 127/161/133 134/180/133
f 127/161/134 107/176/134 134/180/134
f 128/167/135 133/177/135 107/176/135
f 128/167/136 125/158/136 133/177/136
f 125/158/137 106/191/137 133/177/137
f 126/166/138 132/174/138 106/173/138
f 126/166/139 123/155/139 132/174/139
f 123/155/140 105/170/140 132/174/140
f 124/165/141 131/171/141 105/170/141
f 124/165/142 121/152/142 131/171/142
f 121/152/143 109/182/143 131/171/143
f 129/164/144 130/168/144 108/179/144
f 129/164/145 120/163/145 130/168/145
f 120/163/146 103/159/146 130/168/146
f 127/161/147 128/167/147 107/176/147
f 127/161/148 119/160/148 128/167/148
f 119/160/149 102/156/149 128/167/149
f 125/158/150 126/196/150 106/191/150
f 125/158/151 117/157/151 126/196/151
f 117/157/152 101/197/152 126/196/152
f 123/155/153 124/165/153 105/170/153
f 123/155/154 113/154/154 124/165/154
f 113/154/155 100/140/155 124/165/155
f 121/152/156 122/169/156 109/182/156
f 121/152/157 114/142/157 122/169/157
f 114/142/158 104/162/158 122/169/158
f 115/151/159 120/163/159 104/162/159
f 115/151/160 118/150/160 120/163/160
f 118/150/161 103/159/161 120/163/161
f 118/148/162 119/160/162 103/159/162
f 118/148/163 116/147/163 119/160/163
f 116/147/164 102/156/164 119/160/164
f 116/145/165 117/157/165 102/156/165
f 116/145/166 111/144/166 117/157/166
f 111/144/167 101/197/167 117/157/167
f 114/142/168 115/198/168 104/162/168
f 114/142/169 112/141/169 115/198/169
f 112/141/170 99/199/170 115/198/170
f 111/139/171 113/154/171 101/153/171
f 111/139/172 112/138/172 113/154/172
f 112/138/173 100/140/173 113/154/173
f 141/137/174 154/138/174 153/139/174
f 142/140/175 154/141/175 156/142/175
f 141/143/176 153/144/176 158/145/176
f 141/146/177 158/147/177 160/148/177
f 141/149/178 160/150/178 157/151/178
f 142/140/179 156/142/179 163/152/179
f 143/153/180 155/154/180 165/155/180
f 144/156/181 159/157/181 167/158/181
f 145/159/182 161/160/182 169/161/182
f 146/162/183 162/163/183 171/164/183
f 142/140/184 163/152/184 166/165/184
f 143/153/185 165/155/185 168/166/185
f 144/156/186 167/158/186 170/167/186
f 145/159/187 169/161/187 172/168/187
f 146/162/188 171/164/188 164/169/188
f 147/170/189 173/171/189 178/172/189
f 148/173/190 174/174/190 180/175/190
f 149/176/191 175/177/191 181/178/191
f 150/179/192 176/180/192 182/181/192
f 151/182/193 177/183/193 179/184/193
f 179/184/194 182/185/194 152/186/194
f 179/184/195 177/183/195 182/185/195
f 177/183/196 150/179/196 182/185/196
f 182/181/197 181/187/197 152/188/197
f 182/181/198 176/180/198 181/187/198
f 176/180/199 149/176/199 181/187/199
f 181/178/200 180/189/200 152/190/200
f 181/178/201 175/177/201 180/189/201
f 175/177/202 148/191/202 180/189/202
f 180/175/203 178/192/203 152/193/203
f 180/175/204 174/174/204 178/192/204
f 174/174/205 147/170/205 178/192/205
f 178/172/206 179/194/206 152/195/206
f 178/172/207 173/171/207 179/194/207
f 173/171/208 151/182/208 179/194/208
f 164/169/209 177/183/209 151/182/209
f 164/169/210 171/164/210 177/183/210
f 171/164/211 150/179/211 177/183/211
f 172/168/212 176/180/212 150/179/212
f 172/168/213 169/161/213 176/180/213
f 169/161/214 149/176/214 176/180/214
f 170/167/215 175/177/215 149/176/215
f 170/167/216 167/158/216 175/177/216
f 167/158/217 148/191/217 175/177/217
f 168/166/218 174/174/218 148/173/218
f 168/166/219 165/155/219 174/174/219
f 165/155/220 147/170/220 174/174/220
f 166/165/221 173/171/221 147/170/221
f 166/165/222 163/152/222 173/171/222
f 163/152/223 151/182/223 173/171/223
f 171/164/224 172/168/224 150/179/224
f 171/164/225 162/163/225 172/168/225
f 162/163/226 145/159/226 172/168/226
f 169/161/227 170/167/227 149/176/227
f 169/161/228 161/160/228 170/167/228
f 161/160/229 144/156/229 170/167/229
f 167/158/230 168/196/230 148/191/230
f 167/158/231 159/157/231 168/196/231
f 159/157/232 143/197/232 168/196/232
f 165/155/233 166/165/233 147/170/233
f 165/155/234 155/154/234 166/165/234
f 155/154/235 142/140/235 166/165/235
f 163/152/236 164/169/236 151/182/236
f 163/152/237 156/142/237 164/169/237
f 156/142/238 146/162/238 164/169/238
f 157/151/239 162/163/239 146/162/239
f 157/151/240 160/150/240 162/163/240
f 160/150/241 145/159/241 162/163/241
f 160/148/242 161/160/242 145/159/242
f 160/148/243 158/147/243 161/160/243
f 158/147/244 144/156/244 161/160/244
f 158/145/245 159/157/245 144/156/245
f 158/145/246 153/144/246 159/157/246
f 153/144/247 143/197/247 159/157/247
f 156/142/248 157/198/248 146/162/248
f 156/142/249 154/141/249 157/198/249
f 154/141/250 141/199/250 157/198/250
f 153/139/251 155/154/251 143/153/251
f 153/139/252 154/138/252 155/154/252
f 154/138/253 142/140/253 155/154/253
f 183/200/254 187/201/254 189/202/254
f 184/203/255 187/204/255 186/205/255
f 185/206/256 187/207/256 188/208/256
f 190/209/257 194/210/257 196/211/257
f 191/212/258 194/213/258 193/214/258
f 192/215/259 194/216/259 195/217/259
f 197/218/260 201/219/260 203/220/260
f 198/221/261 201/222/261 200/223/261
f 199/224/262 201/222/262 202/225/262
f 204/226/263 208/227/263 210/228/263
f 205/229/264 208/230/264 207/231/264
f 206/212/265 208/230/265 209/232/265
f 211/233/266 215/234/266 217/235/266
f 212/236/267 215/237/267 214/238/267
f 213/239/268 215/237/268 216/240/268
f 218/241/269 222/242/269 224/243/269
f 219/244/270 222/245/270 221/246/270
f 220/247/271 222/245/271 223/248/271
f 225/249/272 229/250/272 231/251/272
f 226/252/273 229/253/273 228/254/273
f 227/255/274 229/253/274 230/256/274
f 232/257/275 236/258/275 238/259/275
f 233/260/276 236/261/276 235/262/276
f 234/244/277 236/261/277 237/263/277
f 239/264/278 243/265/278 245/266/278
f 240/267/279 243/268/279 242/269/279
f 241/270/280 243/268/280 244/271/280
f 246/272/281 250/273/281 252/274/281
f 247/275/282 250/276/282 249/277/282
f 248/278/283 250/276/283 251/279/283
f 253/280/284 257/281/284 259/282/284
f 254/283/285 257/284/285 256/285/285
f 255/286/286 257/284/286 258/287/286
f 260/288/287 264/289/287 266/290/287
f 261/291/288 264/292/288 263/293/288
f 262/294/289 264/292/289 265/295/289
f 267/296/290 271/297/290 273/298/290
f 268/299/291 271/300/291 270/301/291
f 269/302/292 271/300/292 272/303/292
f 274/304/293 278/305/293 280/306/293
f 275/307/294 278/308/294 277/309/294
f 276/310/295 278/308/295 279/311/295
f 185/206/296 200/223/296 189/312/296
f 189/202/297 197/218/297 183/200/297
f 206/212/298 193/214/298 210/313/298
f 193/314/299 204/226/299 210/228/299
f 184/203/300 195/217/300 188/315/300
f 195/316/301 185/206/301 188/208/301
f 199/224/302 209/232/302 205/229/302
f 209/232/303 198/221/303 206/212/303
f 212/236/304 203/317/304 199/224/304
f 214/318/305 197/218/305 203/220/305
f 220/247/306 207/231/306 224/319/306
f 207/320/307 218/241/307 224/243/307
f 213/239/308 223/248/308 219/244/308
f 223/248/309 212/236/309 220/247/309
f 226/252/310 217/321/310 213/239/310
f 217/235/311 225/249/311 211/233/311
f 234/244/312 221/246/312 238/322/312
f 221/323/313 232/257/313 238/259/313
f 227/255/314 237/263/314 233/260/314
f 237/263/315 226/252/315 234/244/315
f 227/255/316 242/269/316 231/324/316
f 231/251/317 239/264/317 225/249/317
f 233/260/318 252/325/318 248/278/318
f 252/274/319 232/257/319 246/272/319
f 241/270/320 251/279/320 247/275/320
f 251/279/321 240/267/321 248/278/321
f 241/270/322 256/285/322 245/326/322
f 256/327/323 239/264/323 245/266/323
f 262/294/324 249/277/324 266/328/324
f 249/329/325 260/288/325 266/290/325
f 255/286/326 265/295/326 261/291/326
f 265/295/327 254/283/327 262/294/327
f 268/299/328 259/330/328 255/286/328
f 270/331/329 253/280/329 259/282/329
f 276/310/330 263/293/330 280/332/330
f 263/333/331 274/304/331 280/306/331
f 269/302/332 279/311/332 275/307/332
f 279/311/333 268/299/333 276/310/333
f 184/203/334 273/334/334 269/302/334
f 273/298/335 183/200/335 267/296/335
f 192/215/336 277/309/336 196/335/336
f 196/211/337 274/304/337 190/209/337
f 197/218/338 225/249/338 253/280/338
f 185/206/339 206/212/339 198/221/339
f 269/302/340 192/215/340 184/203/340
f 190/209/341 260/288/341 232/257/341
f 205/229/342 212/236/342 199/224/342
f 213/239/343 234/244/343 226/252/343
f 233/260/344 240/267/344 227/255/344
f 241/270/345 262/294/345 254/283/345
f 255/286/346 276/310/346 268/299/346
f 281/137/347 294/138/347 293/139/347
f 282/140/348 294/141/348 296/142/348
f 281/143/349 293/144/349 298/145/349
f 281/146/350 298/147/350 300/148/350
f 281/149/351 300/150/351 297/151/351
f 282/140/352 296/142/352 303/152/352
f 283/153/353 295/154/353 305/155/353
f 284/156/354 299/157/354 307/158/354
f 285/159/355 301/160/355 309/161/355
f 286/162/356 302/163/356 311/164/356
f 282/140/357 303/152/357 306/165/357
f 283/153/358 305/155/358 308/166/358
f 284/156/359 307/158/359 310/167/359
f 285/159/360 309/161/360 312/168/360
f 286/162/361 311/164/361 304/169/361
f 287/170/362 313/171/362 318/172/362
f 288/173/363 314/174/363 320/175/363
f 289/176/364 315/177/364 321/178/364
f 290/179/365 316/180/365 322/181/365
f 291/182/366 317/183/366 319/184/366
f 319/184/367 322/185/367 292/186/367
f 319/184/368 317/183/368 322/185/368
f 317/183/369 290/179/369 322/185/369
f 322/181/370 321/187/370 292/188/370
f 322/181/371 316/180/371 321/187/371
f 316/180/372 289/176/372 321/187/372
f 321/178/373 320/189/373 292/190/373
f 321/178/374 315/177/374 320/189/374
f 315/177/375 288/191/375 320/189/375
f 320/175/376 318/192/376 292/193/376
f 320/175/377 314/174/377 318/192/377
f 314/174/378 287/170/378 318/192/378
f 318/172/379 319/194/379 292/195/379
f 318/172/380 313/171/380 319/194/380
f 313/171/381 291/182/381 319/194/381
f 304/169/382 317/183/382 291/182/382
f 304/169/383 311/164/383 317/183/383
f 311/164/384 290/179/384 317/183/384
f 312/168/385 316/180/385 290/179/385
f 312/168/386 309/161/386 316/180/386
f 309/161/387 289/176/387 316/180/387
f 310/167/388 315/177/388 289/176/388
f 310/167/389 307/158/389 315/177/389
f 307/158/390 288/191/390 315/177/390
f 308/166/391 314/174/391 288/173/391
f 308/166/392 305/155/392 314/174/392
f 305/155/393 287/170/393 314/174/393
f 306/165/394 313/171/394 287/170/394
f 306/165/395 303/152/395 313/171/395
f 303/152/396 291/182/396 313/171/396
f 311/164/397 312/168/397 290/179/397
f 311/164/398 302/163/398 312/168/398
f 302/163/399 285/159/399 312/168/399
f 309/161/400 310/167/400 289/176/400
f 309/161/401 301/160/401 310/167/401
f 301/160/402 284/156/402 310/167/402
f 307/158/403 308/196/403 288/191/403
f 307/158/404 299/157/404 308/196/404
f 299/157/405 283/197/405 308/196/405
f 305/155/406 306/165/406 287/170/406
f 305/155/407 295/154/407 306/165/407
f 295/154/408 282/140/408 306/165/408
f 303/152/409 304/169/409 291/182/409
f 303/152/410 296/142/410 304/169/410
f 296/142/411 286/162/411 304/169/411
f 297/151/412 302/163/412 286/162/412
f 297/151/413 300/150/413 302/163/413
f 300/150/414 285/159/414 302/163/414
f 300/148/415 301/160/415 285/159/415
f 300/148/416 298/147/416 301/160/416
f 298/147/417 284/156/417 301/160/417
f 298/145/418 299/157/418 284/156/418
f 298/145/419 293/144/419 299/157/419
f 293/144/420 283/197/420 299/157/420
f 296/142/421 297/198/421 286/162/421
f 296/142/422 294/141/422 297/198/422
f 294/141/423 281/199/423 297/198/423
f 293/139/424 295/154/424 283/153/424
f 293/139/425 294/138/425 295/154/425
f 294/138/426 282/140/426 295/154/426
f 323/137/427 336/138/427 335/139/427
f 324/140/428 336/141/428 338/142/428
f 323/143/429 335/144/429 340/145/429
f 323/146/430 340/147/430 342/148/430
f 323/149/431 342/150/431 339/151/431
f 324/140/432 338/142/432 345/152/432
f 325/153/433 337/154/433 347/155/433
f 326/156/434 341/157/434 349/158/434
f 327/159/435 343/160/435 351/161/435
f 328/162/436 344/163/436 353/164/436
f 324/140/437 345/152/437 348/165/437
f 325/153/438 347/155/438 350/166/438
f 326/156/439 349/158/439 352/167/439
f 327/159/440 351/161/440 354/168/440
f 328/162/441 353/164/441 346/169/441
f 329/170/442 355/171/442 360/172/442
f 330/173/443 356/174/443 362/175/443
f 331/176/444 357/177/444 363/178/444
f 332/179/445 358/180/445 364/181/445
f 333/182/446 359/183/446 361/184/446
f 361/184/447 364/185/447 334/186/447
f 361/184/448 359/183/448 364/185/448
f 359/183/449 332/179/449 364/185/449
f 364/181/450 363/187/450 334/188/450
f 364/181/451 358/180/451 363/187/451
f 358/180/452 331/176/452 363/187/452
f 363/178/453 362/189/453 334/190/453
f 363/178/454 357/177/454 362/189/454
f 357/177/455 330/191/455 362/189/455
f 362/175/456 360/192/456 334/193/456
f 362/175/457 356/174/457 360/192/457
f 356/174/458 329/170/458 360/192/458
f 360/172/459 361/194/459 334/195/459
f 360/172/460 355/171/460 361/194/460
f 355/171/461 333/182/461 361/194/461
f 346/169/462 359/183/462 333/182/462
f 346/169/463 353/164/463 359/183/463
f 353/164/464 332/179/464 359/183/464
f 354/168/465 358/180/465 332/179/465
f 354/168/466 351/161/466 358/180/466
f 351/161/467 331/176/467 358/180/467
f 352/167/468 357/177/468 331/176/468
f 352/167/469 349/158/469 357/177/469
f 349/158/470 330/191/470 357/177/470
f 350/166/471 356/174/471 330/173/471
f 350/166/472 347/155/472 356/174/472
f 347/155/473 329/170/473 356/174/473
f 348/165/474 355/171/474 329/170/474
f 348/165/475 345/152/475 355/171/475
f 345/152/476 333/182/476 355/171/476
f 353/164/477 354/168/477 332/179/477
f 353/164/478 344/163/478 354/168/478
f 344/163/479 327/159/479 354/168/479
f 351/161/480 352/167/480 331/176/480
f 351/161/481 343/160/481 352/167/481
f 343/160/482 326/156/482 352/167/482
f 349/158/483 350/196/483 330/191/483
f 349/158/484 341/157/484 350/196/484
f 341/157/485 325/197/485 350/196/485
f 347/155/486 348/165/486 329/170/486
f 347/155/487 337/154/487 348/165/487
f 337/154/488 324/140/488 348/165/488
f 345/152/489 346/169/489 333/182/489
f 345/152/490 338/142/490 346/169/490
f 338/142/491 328/162/491 346/169/491
f 339/151/492 344/163/492 328/162/492
f 339/151/493 342/150/493 344/163/493
f 342/150/494 327/159/494 344/163/494
f 342/148/495 343/160/495 327/159/495
f 342/148/496 340/147/496 343/160/496
f 340/147/497 326/156/497 343/160/497
f 340/145/498 341/157/498 326/156/498
f 340/145/499 335/144/499 341/157/499
f 335/144/500 325/197/500 341/157/500
f 338/142/501 339/198/501 328/162/501
f 338/142/502 336/141/502 339/198/502
f 336/141/503 323/199/503 339/198/503
f 335/139/504 337/154/504 325/153/504
f 335/139/505 336/138/505 337/154/505
f 336/138/506 324/140/506 337/154/506
f 365/336/507 369/337/507 371/338/507
f 366/339/508 369/340/508 368/341/508
f 367/342/509 369/343/509 370/344/509
f 372/345/510 376/346/510 378/347/510
f 373/348/511 376/349/511 375/350/511
f 374/351/512 376/352/512 377/353/512
f 379/354/513 383/355/513 385/356/513
f 380/357/514 383/358/514 382/359/514
f 381/360/515 383/358/515 384/361/515
f 386/362/516 390/363/516 392/364/516
f 387/365/517 390/366/517 389/367/517
f 388/368/518 390/366/518 391/369/518
f 393/370/519 397/371/519 399/372/519
f 394/373/520 397/374/520 396/375/520
f 395/376/521 397/374/521 398/377/521
f 400/378/522 404/379/522 406/380/522
f 401/381/523 404/382/523 403/383/523
f 402/384/524 404/382/524 405/385/524
f 407/386/525 411/387/525 413/388/525
f 408/389/526 411/390/526 410/391/526
f 409/392/527 411/390/527 412/393/527
f 414/394/528 418/395/528 420/396/528
f 415/397/529 418/398/529 417/399/529
f 416/400/530 418/398/530 419/401/530
f 421/402/531 425/403/531 427/404/531
f 422/405/532 425/406/532 424/407/532
f 423/408/533 425/406/533 426/409/533
f 428/410/534 432/411/534 434/412/534
f 429/413/535 432/414/535 431/415/535
f 430/416/536 432/414/536 433/417/536
f 435/418/537 439/419/537 441/420/537
f 436/421/538 439/422/538 438/423/538
f 437/424/539 439/422/539 440/425/539
f 442/426/540 446/427/540 448/428/540
f 443/429/541 446/430/541 445/431/541
f 444/432/542 446/430/542 447/433/542
f 449/434/543 453/435/543 455/436/543
f 450/437/544 453/438/544 452/439/544
f 451/440/545 453/438/545 454/441/545
f 456/442/546 460/443/546 462/444/546
f 457/445/547 460/446/547 459/447/547
f 458/448/548 460/446/548 461/449/548
f 367/342/549 382/359/549 371/450/549
f 371/338/550 379/354/550 365/336/550
f 388/368/551 375/350/551 392/451/551
f 392/364/552 372/345/552 386/362/552
f 366/339/553 377/353/553 370/452/553
f 377/453/554 367/342/554 370/344/554
f 381/360/555 391/369/555 387/365/555
f 391/369/556 380/357/556 388/368/556
f 381/360/557 396/375/557 385/454/557
f 396/455/558 379/354/558 385/356/558
f 402/384/559 389/367/559 406/456/559
f 389/457/560 400/378/560 406/380/560
f 395/376/561 405/385/561 401/381/561
f 405/385/562 394/373/562 402/384/562
f 408/389/563 399/458/563 395/376/563
f 399/372/564 407/386/564 393/370/564
f 416/400/565 403/383/565 420/459/565
f 420/396/566 400/378/566 414/394/566
f 409/392/567 419/401/567 415/397/567
f 419/401/568 408/389/568 416/400/568
f 422/405/569 413/460/569 409/392/569
f 424/461/570 407/386/570 413/388/570
f 430/416/571 417/399/571 434/462/571
f 417/463/572 428/410/572 434/412/572
f 423/408/573 433/417/573 429/413/573
f 433/417/574 422/405/574 430/416/574
f 423/408/575 438/423/575 427/464/575
f 427/404/576 435/418/576 421/402/576
f 444/432/577 431/415/577 448/465/577
f 448/428/578 428/410/578 442/426/578
f 437/424/579 447/433/579 443/429/579
f 447/433/580 436/421/580 444/432/580
f 437/424/581 452/439/581 441/466/581
f 441/420/582 449/434/582 435/418/582
f 443/429/583 462/467/583 458/448/583
f 445/468/584 456/442/584 462/444/584
f 451/440/585 461/449/585 457/445/585
f 461/449/586 450/437/586 458/448/586
f 366/339/587 455/469/587 451/440/587
f 455/436/588 365/336/588 449/434/588
f 374/351/589 459/447/589 378/470/589
f 378/347/590 456/442/590 372/345/590
f 379/354/591 407/386/591 435/418/591
f 367/342/592 388/368/592 380/357/592
f 451/440/593 374/351/593 366/339/593
f 372/345/594 442/426/594 414/394/594
f 387/365/595 394/373/595 381/360/595
f 395/376/596 416/400/596 408/389/596
f 409/392/597 430/416/597 422/405/597
f 423/408/598 444/432/598 436/421/598
f 443/429/599 450/437/599 437/424/599
f 463/137/600 476/138/600 475/139/600
f 464/140/601 476/141/601 478/142/601
f 463/143/602 475/144/602 480/145/602
f 463/146/603 480/147/603 482/148/603
f 463/149/604 482/150/604 479/151/604
f 464/140/605 478/142/605 485/152/605
f 465/153/606 477/154/606 487/155/606
f 466/156/607 481/157/607 489/158/607
f 467/159/608 483/160/608 491/161/608
f 468/162/609 484/163/609 493/164/609
f 464/140/610 485/152/610 488/165/610
f 465/153/611 487/155/611 490/166/611
f 466/156/612 489/158/612 492/167/612
f 467/159/613 491/161/613 494/168/613
f 468/162/614 493/164/614 486/169/614
f 469/170/615 495/171/615 500/172/615
f 470/173/616 496/174/616 502/175/616
f 471/176/617 497/177/617 503/178/617
f 472/179/618 498/180/618 504/181/618
f 473/182/619 499/183/619 501/184/619
f 501/184/620 504/185/620 474/186/620
f 501/184/621 499/183/621 504/185/621
f 499/183/622 472/179/622 504/185/622
f 504/181/623 503/187/623 474/188/623
f 504/181/624 498/180/624 503/187/624
f 498/180/625 471/176/625 503/187/625
f 503/178/626 502/189/626 474/190/626
f 503/178/627 497/177/627 502/189/627
f 497/177/628 470/191/628 502/189/628
f 502/175/629 500/192/629 474/193/629
f 502/175/630 496/174/630 500/192/630
f 496/174/631 469/170/631 500/192/631
f 500/172/632 501/194/632 474/195/632
f 500/172/633 495/171/633 501/194/633
f 495/171/634 473/182/634 501/194/634
f 486/169/635 499/183/635 473/182/635
f 486/169/636 493/164/636 499/183/636
f 493/164/637 472/179/637 499/183/637
f 494/168/638 498/180/638 472/179/638
f 494/168/639 491/161/639 498/180/639
f 491/161/640 471/176/640 498/180/640
f 492/167/641 497/177/641 471/176/641
f 492/167/642 489/158/642 497/177/642
f 489/158/643 470/191/643 497/177/643
f 490/166/644 496/174/644 470/173/644
f 490/166/645 487/155/645 496/174/645
f 487/155/646 469/170/646 496/174/646
f 488/165/647 495/171/647 469/170/647
f 488/165/648 485/152/648 495/171/648
f 485/152/649 473/182/649 495/171/649
f 493/164/650 494/168/650 472/179/650
f 493/164/651 484/163/651 494/168/651
f 484/163/652 467/159/652 494/168/652
f 491/161/653 492/167/653 471/176/653
f 491/161/654 483/160/654 492/167/654
f 483/160/655 466/156/655 492/167/655
f 489/158/656 490/196/656 470/191/656
f 489/158/657 481/157/657 490/196/657
f 481/157/658 465/197/658 490/196/658
f 487/155/659 488/165/659 469/170/659
f 487/155/660 477/154/660 488/165/660
f 477/154/661 464/140/661 488/165/661
f 485/152/662 486/169/662 473/182/662
f 485/152/663 478/142/663 486/169/663
f 478/142/664 468/162/664 486/169/664
f 479/151/665 484/163/665 468/162/665
f 479/151/666 482/150/666 484/163/666
f 482/150/667 467/159/667 484/163/667
f 482/148/668 483/160/668 467/159/668
f 482/148/669 480/147/669 483/160/669
f 480/147/670 466/156/670 483/160/670
f 480/145/671 481/157/671 466/156/671
f 480/145/672 475/144/672 481/157/672
f 475/144/673 465/197/673 481/157/673
f 478/142/674 479/198/674 468/162/674
f 478/142/675 476/141/675 479/198/675
f 476/141/676 463/199/676 479/198/676
f 475/139/677 477/154/677 465/153/677
f 475/139/678 476/138/678 477/154/678
f 476/138/679 464/140/679 477/154/679
f 505/137/680 518/138/680 517/139/680
f 506/140/681 518/141/681 520/142/681
f 505/143/682 517/144/682 522/145/682
f 505/146/683 522/147/683 524/148/683
f 505/149/684 524/150/684 521/151/684
f 506/140/685 520/142/685 527/152/685
f 507/153/686 519/154/686 529/155/686
f 508/156/687 523/157/687 531/158/687
f 509/159/688 525/160/688 533/161/688
f 510/162/689 526/163/689 535/164/689
f 506/140/690 527/152/690 530/165/690
f 507/153/691 529/155/691 532/166/691
f 508/156/692 531/158/692 534/167/692
f 509/159/693 533/161/693 536/168/693
f 510/162/694 535/164/694 528/169/694
f 511/170/695 537/171/695 542/172/695
f 512/173/696 538/174/696 544/175/696
f 513/176/697 539/177/697 545/178/697
f 514/179/698 540/180/698 546/181/698
f 515/182/699 541/183/699 543/184/699
f 543/184/700 546/185/700 516/186/700
f 543/184/701 541/183/701 546/185/701
f 541/183/702 514/179/702 546/185/702
f 546/181/703 545/187/703 516/188/703
f 546/181/704 540/180/704 545/187/704
f 540/180/705 513/176/705 545/187/705
f 545/178/706 544/189/706 516/190/706
f 545/178/707 539/177/707 544/189/707
f 539/177/708 512/191/708 544/189/708
f 544/175/709 542/192/709 516/193/709
f 544/175/710 538/174/710 542/192/710
f 538/174/711 511/170/711 542/192/711
f 542/172/712 543/194/712 516/195/712
f 542/172/713 537/171/713 543/194/713
f 537/171/714 515/182/714 543/194/714
f 528/169/715 541/183/715 515/182/715
f 528/169/716 535/164/716 541/183/716
f 535/164/717 514/179/717 541/183/717
f 536/168/718 540/180/718 514/179/718
f 536/168/719 533/161/719 540/180/719
f 533/161/720 513/176/720 540/180/720
f 534/167/721 539/177/721 513/176/721
f 534/167/722 531/158/722 539/177/722
f 531/158/723 512/191/723 539/177/723
f 532/166/724 538/174/724 512/173/724
f 532/166/725 529/155/725 538/174/725
f 529/155/726 511/170/726 538/174/726
f 530/165/727 537/171/727 511/170/727
f 530/165/728 527/152/728 537/171/728
f 527/152/729 515/182/729 537/171/729
f 535/164/730 536/168/730 514/179/730
f 535/164/731 526/163/731 536/168/731
f 526/163/732 509/159/732 536/168/732
f 533/161/733 534/167/733 513/176/733
f 533/161/734 525/160/734 534/167/734
f 525/160/735 508/156/735 534/167/735
f 531/158/736 532/196/736 512/191/736
f 531/158/737 523/157/737 532/196/737
f 523/157/738 507/197/738 532/196/738
f 529/155/739 530/165/739 511/170/739
f 529/155/740 519/154/740 530/165/740
f 519/154/741 506/140/741 530/165/741
f 527/152/742 528/169/742 515/182/742
f 527/152/743 520/142/743 528/169/743
f 520/142/744 510/162/744 528/169/744
f 521/151/745 526/163/745 510/162/745
f 521/151/746 524/150/746 526/163/746
f 524/150/747 509/159/747 526/163/747
f 524/148/748 525/160/748 509/159/748
f 524/148/749 522/147/749 525/160/749
f 522/147/750 508/156/750 525/160/750
f 522/145/751 523/157/751 508/156/751
f 522/145/752 517/144/752 523/157/752
f 517/144/753 507/197/753 523/157/753
f 520/142/754 521/198/754 510/162/754
f 520/142/755 518/141/755 521/198/755
f 518/141/756 505/199/756 521/198/756
f 517/139/757 519/154/757 507/153/757
f 517/139/758 518/138/758 519/154/758
f 518/138/759 506/140/759 519/154/759
f 548/471/760 549/472/760 547/473/760
f 550/474/761 551/475/761 549/472/761
f 551/475/762 554/476/762 553/477/762
f 554/476/763 555/478/763 553/477/763
f 556/479/764 557/480/764 555/478/764
f 558/481/765 559/482/765 557/480/765
f 560/483/65 561/484/65 559/482/65
f 562/485/766 563/486/766 561/484/766
f 564/487/767 565/488/767 563/486/767
f 566/489/768 567/490/768 565/488/768
f 567/490/769 570/491/769 569/492/769
f 570/491/770 571/493/770 569/492/770
f 572/494/771 547/495/771 571/493/771
f 1/1/772 4/496/772 5/2/772
f 2/4/773 6/119/773 5/5/773
f 3/7/774 7/115/774 5/8/774
f 8/10/775 11/118/775 12/11/775
f 9/13/776 13/120/776 12/14/776
f 10/16/777 14/135/777 12/17/777
f 15/19/778 18/116/778 19/20/778
f 16/22/779 20/26/779 19/23/779
f 17/25/780 21/121/780 19/23/780
f 22/27/781 25/497/781 26/28/781
f 23/30/782 27/34/782 26/31/782
f 24/33/783 28/117/783 26/31/783
f 29/35/784 32/122/784 33/36/784
f 30/38/785 34/42/785 33/39/785
f 31/41/786 35/124/786 33/39/786
f 36/43/787 39/498/787 40/44/787
f 37/46/788 41/50/788 40/47/788
f 38/49/789 42/123/789 40/47/789
f 43/51/790 46/499/790 47/52/790
f 44/54/791 48/58/791 47/55/791
f 45/57/792 49/126/792 47/55/792
f 50/59/793 53/500/793 54/60/793
f 51/62/794 55/66/794 54/63/794
f 52/65/795 56/125/795 54/63/795
f 57/67/796 60/127/796 61/68/796
f 58/70/797 62/74/797 61/71/797
f 59/73/798 63/129/798 61/71/798
f 64/75/799 67/501/799 68/76/799
f 65/78/800 69/82/800 68/79/800
f 66/81/801 70/128/801 68/79/801
f 71/83/802 74/130/802 75/84/802
f 72/86/803 76/90/803 75/87/803
f 73/89/804 77/132/804 75/87/804
f 78/91/805 81/502/805 82/92/805
f 79/94/806 83/98/806 82/95/806
f 80/97/807 84/131/807 82/95/807
f 85/99/808 88/503/808 89/100/808
f 86/102/809 90/106/809 89/103/809
f 87/105/810 91/134/810 89/103/810
f 92/107/811 95/136/811 96/108/811
f 93/110/812 97/114/812 96/111/812
f 94/113/813 98/133/813 96/111/813
f 16/22/43 18/24/43 7/115/43
f 18/116/44 15/19/44 1/1/44
f 24/33/814 9/13/814 11/15/814
f 11/118/46 8/10/46 22/27/46
f 2/4/47 10/16/47 13/18/47
f 13/120/48 9/13/48 3/7/48
f 17/25/49 20/26/49 27/34/49
f 27/34/50 20/26/50 16/22/50
f 30/38/51 32/40/51 21/121/51
f 32/122/52 29/35/52 15/19/52
f 38/49/815 23/30/815 25/32/815
f 42/45/54 25/497/54 22/27/54
f 31/41/55 34/42/55 41/50/55
f 41/50/56 34/42/56 30/38/56
f 31/41/57 44/54/57 46/56/57
f 35/37/816 46/499/816 43/51/816
f 52/65/817 37/46/817 39/48/817
f 56/61/60 39/498/60 36/43/60
f 45/57/61 48/58/61 55/66/61
f 55/66/62 48/58/62 44/54/62
f 58/70/63 60/72/63 49/126/63
f 60/127/64 57/67/64 43/51/64
f 51/62/818 53/64/818 70/128/818
f 70/77/66 53/500/66 50/59/66
f 59/73/67 62/74/67 69/82/67
f 69/82/68 62/74/68 58/70/68
f 72/86/69 74/88/69 63/129/69
f 74/130/70 71/83/70 57/67/70
f 80/97/819 65/78/819 67/80/819
f 84/93/72 67/501/72 64/75/72
f 73/89/73 76/90/73 83/98/73
f 83/98/74 76/90/74 72/86/74
f 86/102/75 88/104/75 77/132/75
f 77/85/76 88/503/76 85/99/76
f 94/113/820 79/94/820 81/96/820
f 98/109/78 81/502/78 78/91/78
f 87/105/79 90/106/79 97/114/79
f 97/114/80 90/106/80 86/102/80
f 87/105/81 2/4/81 4/6/81
f 91/101/82 4/496/82 1/1/82
f 10/16/821 93/110/821 95/112/821
f 95/136/822 92/107/822 8/10/822
f 85/99/85 1/1/85 15/19/85
f 15/19/85 29/35/85 43/51/85
f 43/51/85 57/67/85 71/83/85
f 71/83/85 85/99/85 15/19/85
f 3/7/823 9/13/823 24/33/823
f 87/105/824 93/110/824 10/16/824
f 36/43/88 22/27/88 8/10/88
f 8/10/88 92/107/88 78/91/88
f 78/91/88 64/75/88 50/59/88
f 50/59/88 36/43/88 8/10/88
f 17/25/825 23/30/825 38/49/825
f 31/41/826 37/46/826 52/65/826
f 51/62/827 66/81/827 58/70/827
f 59/73/828 65/78/828 80/97/828
f 73/89/820 79/94/820 94/113/820
f 183/200/829 186/504/829 187/201/829
f 184/203/830 188/315/830 187/204/830
f 185/206/831 189/312/831 187/207/831
f 190/209/832 193/314/832 194/210/832
f 191/212/833 195/316/833 194/213/833
f 192/215/834 196/335/834 194/216/834
f 197/218/835 200/505/835 201/219/835
f 198/221/836 202/225/836 201/222/836
f 199/224/837 203/317/837 201/222/837
f 204/226/838 207/320/838 208/227/838
f 205/229/839 209/232/839 208/230/839
f 206/212/840 210/313/840 208/230/840
f 211/233/841 214/318/841 215/234/841
f 212/236/842 216/240/842 215/237/842
f 213/239/843 217/321/843 215/237/843
f 218/241/844 221/323/844 222/242/844
f 219/244/845 223/248/845 222/245/845
f 220/247/846 224/319/846 222/245/846
f 225/249/847 228/506/847 229/250/847
f 226/252/848 230/256/848 229/253/848
f 227/255/849 231/324/849 229/253/849
f 232/257/850 235/507/850 236/258/850
f 233/260/851 237/263/851 236/261/851
f 234/244/852 238/322/852 236/261/852
f 239/264/853 242/508/853 243/265/853
f 240/267/854 244/271/854 243/268/854
f 241/270/855 245/326/855 243/268/855
f 246/272/856 249/329/856 250/273/856
f 247/275/857 251/279/857 250/276/857
f 248/278/858 252/325/858 250/276/858
f 253/280/859 256/327/859 257/281/859
f 254/283/860 258/287/860 257/284/860
f 255/286/861 259/330/861 257/284/861
f 260/288/862 263/333/862 264/289/862
f 261/291/863 265/295/863 264/292/863
f 262/294/864 266/328/864 264/292/864
f 267/296/865 270/331/865 271/297/865
f 268/299/866 272/303/866 271/300/866
f 269/302/867 273/334/867 271/300/867
f 274/304/868 277/509/868 278/305/868
f 275/307/869 279/311/869 278/308/869
f 276/310/870 280/332/870 278/308/870
f 185/206/296 198/221/296 200/223/296
f 189/202/297 200/505/297 197/218/297
f 206/212/871 191/212/871 193/214/871
f 193/314/299 190/209/299 204/226/299
f 184/203/300 192/215/300 195/217/300
f 195/316/301 191/212/301 185/206/301
f 199/224/302 202/225/302 209/232/302
f 209/232/303 202/225/303 198/221/303
f 212/236/304 214/238/304 203/317/304
f 214/318/305 211/233/305 197/218/305
f 220/247/825 205/229/825 207/231/825
f 207/320/307 204/226/307 218/241/307
f 213/239/308 216/240/308 223/248/308
f 223/248/309 216/240/309 212/236/309
f 226/252/310 228/254/310 217/321/310
f 217/235/311 228/506/311 225/249/311
f 234/244/820 219/244/820 221/246/820
f 221/323/313 218/241/313 232/257/313
f 227/255/314 230/256/314 237/263/314
f 237/263/315 230/256/315 226/252/315
f 227/255/316 240/267/316 242/269/316
f 231/251/317 242/508/317 239/264/317
f 233/260/872 235/262/872 252/325/872
f 252/274/319 235/507/319 232/257/319
f 241/270/320 244/271/320 251/279/320
f 251/279/321 244/271/321 240/267/321
f 241/270/873 254/283/873 256/285/873
f 256/327/323 253/280/323 239/264/323
f 262/294/820 247/275/820 249/277/820
f 249/329/325 246/272/325 260/288/325
f 255/286/326 258/287/326 265/295/326
f 265/295/327 258/287/327 254/283/327
f 268/299/328 270/301/328 259/330/328
f 270/331/329 267/296/329 253/280/329
f 276/310/820 261/291/820 263/293/820
f 263/333/331 260/288/331 274/304/331
f 269/302/332 272/303/332 279/311/332
f 279/311/333 272/303/333 268/299/333
f 184/203/334 186/205/334 273/334/334
f 273/298/335 186/504/335 183/200/335
f 192/215/874 275/307/874 277/309/874
f 196/211/337 277/509/337 274/304/337
f 267/296/338 183/200/338 197/218/338
f 197/218/338 211/233/338 225/249/338
f 225/249/338 239/264/338 253/280/338
f 253/280/338 267/296/338 197/218/338
f 185/206/875 191/212/875 206/212/875
f 269/302/876 275/307/876 192/215/876
f 218/241/341 204/226/341 190/209/341
f 190/209/341 274/304/341 260/288/341
f 260/288/341 246/272/341 232/257/341
f 232/257/341 218/241/341 190/209/341
f 205/229/877 220/247/877 212/236/877
f 213/239/820 219/244/820 234/244/820
f 233/260/65 248/278/65 240/267/65
f 241/270/820 247/275/820 262/294/820
f 255/286/820 261/291/820 276/310/820
f 365/336/878 368/510/878 369/337/878
f 366/339/879 370/452/879 369/340/879
f 367/342/880 371/450/880 369/343/880
f 372/345/881 375/511/881 376/346/881
f 373/348/882 377/453/882 376/349/882
f 374/351/883 378/470/883 376/352/883
f 379/354/884 382/512/884 383/355/884
f 380/357/885 384/361/885 383/358/885
f 381/360/886 385/454/886 383/358/886
f 386/362/887 389/457/887 390/363/887
f 387/365/888 391/369/888 390/366/888
f 388/368/889 392/451/889 390/366/889
f 393/370/890 396/455/890 397/371/890
f 394/373/891 398/377/891 397/374/891
f 395/376/892 399/458/892 397/374/892
f 400/378/893 403/513/893 404/379/893
f 401/381/894 405/385/894 404/382/894
f 402/384/895 406/456/895 404/382/895
f 407/386/896 410/514/896 411/387/896
f 408/389/897 412/393/897 411/390/897
f 409/392/898 413/460/898 411/390/898
f 414/394/899 417/463/899 418/395/899
f 415/397/900 419/401/900 418/398/900
f 416/400/901 420/459/901 418/398/901
f 421/402/902 424/461/902 425/403/902
f 422/405/903 426/409/903 425/406/903
f 423/408/904 427/464/904 425/406/904
f 428/410/905 431/515/905 432/411/905
f 429/413/906 433/417/906 432/414/906
f 430/416/907 434/462/907 432/414/907
f 435/418/908 438/516/908 439/419/908
f 436/421/909 440/425/909 439/422/909
f 437/424/910 441/466/910 439/422/910
f 442/426/911 445/468/911 446/427/911
f 443/429/912 447/433/912 446/430/912
f 444/432/913 448/465/913 446/430/913
f 449/434/914 452/517/914 453/435/914
f 450/437/915 454/441/915 453/438/915
f 451/440/916 455/469/916 453/438/916
f 456/442/917 459/518/917 460/443/917
f 457/445/918 461/449/918 460/446/918
f 458/448/919 462/467/919 460/446/919
f 367/342/549 380/357/549 382/359/549
f 371/338/550 382/512/550 379/354/550
f 388/368/820 373/348/820 375/350/820
f 392/364/552 375/511/552 372/345/552
f 366/339/553 374/351/553 377/353/553
f 377/453/554 373/348/554 367/342/554
f 381/360/555 384/361/555 391/369/555
f 391/369/556 384/361/556 380/357/556
f 381/360/557 394/373/557 396/375/557
f 396/455/920 393/370/920 379/354/920
f 402/384/921 387/365/921 389/367/921
f 389/457/560 386/362/560 400/378/560
f 395/376/561 398/377/561 405/385/561
f 405/385/562 398/377/562 394/373/562
f 408/389/563 410/391/563 399/458/563
f 399/372/564 410/514/564 407/386/564
f 416/400/922 401/381/922 403/383/922
f 420/396/566 403/513/566 400/378/566
f 409/392/567 412/393/567 419/401/567
f 419/401/568 412/393/568 408/389/568
f 422/405/569 424/407/569 413/460/569
f 424/461/570 421/402/570 407/386/570
f 430/416/820 415/397/820 417/399/820
f 417/463/572 414/394/572 428/410/572
f 423/408/573 426/409/573 433/417/573
f 433/417/574 426/409/574 422/405/574
f 423/408/575 436/421/575 438/423/575
f 427/404/576 438/516/576 435/418/576
f 444/432/923 429/413/923 431/415/923
f 448/428/578 431/515/578 428/410/578
f 437/424/579 440/425/579 447/433/579
f 447/433/580 440/425/580 436/421/580
f 437/424/581 450/437/581 452/439/581
f 441/420/582 452/517/582 449/434/582
f 443/429/924 445/431/924 462/467/924
f 445/468/584 442/426/584 456/442/584
f 451/440/585 454/441/585 461/449/585
f 461/449/586 454/441/586 450/437/586
f 366/339/587 368/341/587 455/469/587
f 455/436/588 368/510/588 365/336/588
f 374/351/874 457/445/874 459/447/874
f 378/347/590 459/518/590 456/442/590
f 449/434/591 365/336/591 379/354/591
f 379/354/591 393/370/591 407/386/591
f 407/386/591 421/402/591 435/418/591
f 435/418/591 449/434/591 379/354/591
f 367/342/820 373/348/820 388/368/820
f 451/440/925 457/445/925 374/351/925
f 400/378/594 386/362/594 372/345/594
f 372/345/594 456/442/594 442/426/594
f 442/426/594 428/410/594 414/394/594
f 414/394/594 400/378/594 372/345/594
f 387/365/926 402/384/926 394/373/926
f 395/376/927 401/381/927 416/400/927
f 409/392/820 415/397/820 430/416/820
f 423/408/928 429/413/928 444/432/928
f 443/429/929 458/448/929 450/437/929
f 548/471/760 550/474/760 549/472/760
f 550/474/761 552/519/761 551/475/761
f 551/475/762 552/519/762 554/476/762
f 554/476/763 556/479/763 555/478/763
f 556/479/764 558/481/764 557/480/764
f 558/481/765 560/483/765 559/482/765
f 560/483/65 562/485/65 561/484/65
f 562/485/766 564/487/766 563/486/766
f 564/487/767 566/489/767 565/488/767
f 566/489/768 568/520/768 567/490/768
f 567/490/769 568/520/769 570/491/769
f 570/491/770 572/494/770 571/493/770
f 572/494/771 548/521/771 547/495/771
