# Blender 4.5.10 LTS
# www.blender.org
mtllib grove_bonemeal_horn.mtl
o grove_bonemeal_horn
v 0.105439 0.100054 0.029000
v 0.078561 0.100054 0.029000
v 0.092000 0.101689 0.029000
v 0.078561 0.094054 -0.029000
v 0.105439 0.094054 -0.029000
v 0.092000 0.095689 -0.029000
v 0.075163 0.099056 0.029000
v 0.052552 0.084525 0.029000
v 0.062974 0.093166 0.029000
v 0.055796 0.079478 -0.029000
v 0.078407 0.094009 -0.029000
v 0.066218 0.088118 -0.029000
v 0.050233 0.081848 0.029000
v 0.039067 0.057400 0.029000
v 0.043163 0.070303 0.029000
v 0.044525 0.054907 -0.029000
v 0.055690 0.079356 -0.029000
v 0.048621 0.067811 -0.029000
v 0.038563 0.053894 0.029000
v 0.042388 0.027290 0.029000
v 0.038858 0.040359 0.029000
v 0.048327 0.028144 -0.029000
v 0.044502 0.054748 -0.029000
v 0.044797 0.041213 -0.029000
v 0.043860 0.024068 0.029000
v 0.061461 0.003756 0.029000
v 0.051425 0.012841 0.029000
v 0.065995 0.007685 -0.029000
v 0.048394 0.027997 -0.029000
v 0.055959 0.016771 -0.029000
v 0.064440 0.001841 0.029000
v 0.090229 -0.005732 0.029000
v 0.076874 -0.003514 0.029000
v 0.091919 0.000025 -0.029000
v 0.066131 0.007598 -0.029000
v 0.078565 0.002243 -0.029000
v 0.093771 -0.005732 0.029000
v 0.119560 0.001841 0.029000
v 0.107126 -0.003514 0.029000
v 0.117869 0.007598 -0.029000
v 0.092081 0.000025 -0.029000
v 0.105435 0.002243 -0.029000
v 0.122539 0.003756 0.029000
v 0.140140 0.024068 0.029000
v 0.132575 0.012841 0.029000
v 0.135606 0.027997 -0.029000
v 0.118005 0.007685 -0.029000
v 0.128041 0.016771 -0.029000
v 0.141612 0.027290 0.029000
v 0.145437 0.053894 0.029000
v 0.145142 0.040359 0.029000
v 0.139498 0.054748 -0.029000
v 0.135673 0.028144 -0.029000
v 0.139203 0.041213 -0.029000
v 0.144933 0.057400 0.029000
v 0.133767 0.081848 0.029000
v 0.140837 0.070303 0.029000
v 0.128310 0.079356 -0.029000
v 0.139475 0.054907 -0.029000
v 0.135379 0.067811 -0.029000
v 0.131448 0.084525 0.029000
v 0.108837 0.099056 0.029000
v 0.121026 0.093166 0.029000
v 0.105593 0.094009 -0.029000
v 0.128204 0.079478 -0.029000
v 0.117782 0.088118 -0.029000
v 0.084780 0.053199 0.032101
v 0.075478 0.061365 0.040086
v 0.076127 0.044346 0.040084
v 0.081879 0.057782 0.037621
v 0.080913 0.053051 0.039195
v 0.075946 0.052861 0.041096
v 0.082236 0.048407 0.037620
v -0.043714 0.048296 0.050361
v -0.034804 0.040113 0.055848
v -0.035454 0.057133 0.055850
v -0.041105 0.043532 0.055099
v -0.040157 0.048431 0.056380
v -0.034986 0.048628 0.056860
v -0.041476 0.053244 0.055100
v 0.085303 0.041987 0.028805
v 0.076127 0.044346 0.040084
v 0.076941 0.030039 0.030878
v 0.082498 0.042801 0.035972
v 0.081618 0.037948 0.034756
v 0.076703 0.036654 0.036332
v 0.082947 0.034920 0.030901
v -0.042635 0.025203 0.043573
v -0.033511 0.015549 0.043627
v -0.034325 0.029856 0.052833
v -0.039862 0.018693 0.044944
v -0.038929 0.022145 0.048653
v -0.033749 0.022164 0.049081
v -0.040326 0.026857 0.050198
v 0.085853 0.034343 0.019968
v 0.076941 0.030039 0.030878
v 0.077662 0.022988 0.015391
v 0.083221 0.031098 0.026482
v 0.082359 0.027652 0.022852
v 0.077497 0.025605 0.023557
v 0.083619 0.027214 0.017951
v -0.041503 0.009459 0.025370
v -0.032288 0.001505 0.020055
v -0.033008 0.008556 0.035542
v -0.038633 0.003301 0.022963
v -0.037641 0.004223 0.027933
v -0.032453 0.004122 0.028221
v -0.039045 0.007324 0.031800
v 0.086253 0.032694 0.008394
v 0.077662 0.022988 0.015391
v 0.078061 0.025431 -0.001460
v 0.083819 0.026389 0.012164
v 0.082898 0.025430 0.007261
v 0.078076 0.023221 0.006827
v 0.084038 0.027735 0.002881
v -0.040678 0.006062 0.001531
v -0.031523 0.002439 -0.007385
v -0.031921 -0.000004 0.009466
v -0.037810 0.002242 -0.003867
v -0.036702 0.000357 0.000798
v -0.031507 0.000229 0.000902
v -0.038038 0.000848 0.005749
v 0.086378 0.037563 -0.002242
v 0.078061 0.025431 -0.001460
v 0.078010 0.036592 -0.014326
v 0.084101 0.030169 -0.002437
v 0.083066 0.031989 -0.007065
v 0.078256 0.030259 -0.008547
v 0.084073 0.036318 -0.009524
v -0.040421 0.016091 -0.020375
v -0.031459 0.018055 -0.029981
v -0.031408 0.006893 -0.017116
v -0.037653 0.015852 -0.027026
v -0.036410 0.011772 -0.024138
v -0.031213 0.011722 -0.024202
v -0.037625 0.009483 -0.019685
v 0.086187 0.047404 -0.008562
v 0.078010 0.036592 -0.014326
v 0.077527 0.052929 -0.019120
v 0.083978 0.041238 -0.012684
v 0.082809 0.045245 -0.015579
v 0.077980 0.044485 -0.017683
v 0.083711 0.050237 -0.015325
v -0.040815 0.036361 -0.033393
v -0.032117 0.043394 -0.040557
v -0.031633 0.027058 -0.035763
v -0.038213 0.039811 -0.039162
v -0.036857 0.034846 -0.038956
v -0.031663 0.034951 -0.039120
v -0.037937 0.030490 -0.036426
v 0.085741 0.059094 -0.008561
v 0.077527 0.052929 -0.019120
v 0.076765 0.069253 -0.014322
v 0.083489 0.056082 -0.015324
v 0.082208 0.060991 -0.015577
v 0.077336 0.061382 -0.017681
v 0.083068 0.065074 -0.012681
v -0.041733 0.060437 -0.033391
v -0.033287 0.070413 -0.035758
v -0.032524 0.054089 -0.040556
v -0.039311 0.066512 -0.036422
v -0.037903 0.062251 -0.038953
v -0.032716 0.062542 -0.039117
v -0.038876 0.057197 -0.039160
v 0.085182 0.068919 -0.002238
v 0.076765 0.069253 -0.014322
v 0.075965 0.080383 -0.001454
v 0.082789 0.069987 -0.009520
v 0.081455 0.074226 -0.007060
v 0.076528 0.075585 -0.008541
v 0.082348 0.076118 -0.002431
v -0.042885 0.080676 -0.020367
v -0.034598 0.090532 -0.017105
v -0.033799 0.079402 -0.029973
v -0.040599 0.087477 -0.019675
v -0.039214 0.085288 -0.024129
v -0.034036 0.085734 -0.024193
v -0.040143 0.081126 -0.027018
v 0.084687 0.073762 0.008399
v 0.075965 0.080383 -0.001454
v 0.075381 0.082784 0.015398
v 0.082101 0.078540 0.002887
v 0.080788 0.080750 0.007268
v 0.075812 0.082585 0.006834
v 0.081779 0.079862 0.012170
v -0.043904 0.090650 0.001541
v -0.035635 0.097364 0.009478
v -0.035051 0.094963 -0.007374
v -0.041668 0.096049 0.005761
v -0.040374 0.096642 0.000809
v -0.035204 0.097165 0.000914
v -0.041336 0.094679 -0.003856
v 0.084413 0.072084 0.019972
v 0.075381 0.082784 0.015398
v 0.075200 0.075695 0.030884
v 0.081642 0.079023 0.017957
v 0.080420 0.078490 0.022858
v 0.075416 0.080160 0.023564
v 0.081543 0.075118 0.026487
v -0.044468 0.087195 0.025379
v -0.036067 0.088740 0.035552
v -0.035885 0.095829 0.020066
v -0.042179 0.089509 0.031810
v -0.041016 0.092708 0.027944
v -0.035850 0.093205 0.028232
v -0.042076 0.093554 0.022974
v 0.084448 0.064419 0.028808
v 0.075200 0.075695 0.030884
v 0.075478 0.061365 0.040086
v 0.081560 0.071285 0.030905
v 0.080466 0.068164 0.034760
v 0.075466 0.069079 0.036336
v 0.081713 0.063392 0.035974
v -0.044397 0.071406 0.043579
v -0.035757 0.067397 0.052838
v -0.036035 0.081726 0.043635
v -0.041969 0.069931 0.050203
v -0.040935 0.074736 0.048660
v -0.035769 0.075111 0.049088
v -0.042128 0.078107 0.044952
v -0.041091 0.033763 0.020219
v -0.045037 0.037481 0.022942
v -0.045464 0.030562 0.022947
v -0.042422 0.035791 0.022278
v -0.043110 0.033889 0.022913
v -0.045234 0.034021 0.023454
v -0.042661 0.031916 0.022281
v -0.135014 0.039559 0.023194
v -0.132028 0.035904 0.025689
v -0.131601 0.042823 0.025684
v -0.134428 0.037475 0.025151
v -0.133920 0.039493 0.025775
v -0.131799 0.039363 0.026197
v -0.134176 0.041558 0.025148
v -0.041074 0.029842 0.018821
v -0.045464 0.030562 0.022947
v -0.044984 0.025210 0.018569
v -0.042652 0.029956 0.021583
v -0.043084 0.028024 0.020823
v -0.045206 0.027564 0.021154
v -0.042384 0.026957 0.019131
v -0.134941 0.022751 0.017205
v -0.131497 0.018674 0.017079
v -0.131977 0.024027 0.021457
v -0.134083 0.019973 0.017457
v -0.133841 0.021178 0.019249
v -0.131719 0.021029 0.019664
v -0.134366 0.023132 0.020040
v -0.040549 0.027721 0.015278
v -0.044984 0.025210 0.018569
v -0.043822 0.023927 0.011857
v -0.042122 0.025897 0.017359
v -0.042300 0.024852 0.015523
v -0.044342 0.024072 0.015318
v -0.041471 0.025179 0.013599
v -0.132693 0.013662 0.002015
v -0.128746 0.010970 -0.000367
v -0.129908 0.012252 0.006345
v -0.131479 0.011460 0.000533
v -0.131391 0.011274 0.002696
v -0.129267 0.011115 0.003095
v -0.132165 0.012217 0.004495
v -0.039762 0.028394 0.011246
v -0.043822 0.023927 0.011857
v -0.042522 0.027315 0.005951
v -0.041077 0.025515 0.011583
v -0.041123 0.025859 0.009492
v -0.043047 0.025180 0.008679
v -0.040349 0.027413 0.008275
v -0.129320 0.016546 -0.015268
v -0.125063 0.016395 -0.018485
v -0.126363 0.013007 -0.012580
v -0.127834 0.015921 -0.017701
v -0.127716 0.014417 -0.016137
v -0.125588 0.014260 -0.015758
v -0.128601 0.013921 -0.014215
v -0.039082 0.031545 0.008612
v -0.042522 0.027315 0.005951
v -0.041692 0.033788 0.003615
v -0.040009 0.028988 0.006958
v -0.040105 0.030572 0.005552
v -0.041926 0.030369 0.004342
v -0.039544 0.032614 0.005650
v -0.126402 0.030053 -0.026557
v -0.122171 0.032412 -0.028799
v -0.123001 0.025940 -0.026463
v -0.124854 0.031267 -0.028713
v -0.124536 0.029135 -0.028438
v -0.122405 0.028994 -0.028072
v -0.125344 0.027446 -0.027334
v -0.038825 0.035700 0.008609
v -0.041692 0.033788 0.003615
v -0.041720 0.040317 0.005942
v -0.039416 0.034692 0.005648
v -0.039721 0.036787 0.005548
v -0.041504 0.037211 0.004337
v -0.039431 0.038349 0.006951
v -0.125304 0.047863 -0.026570
v -0.121423 0.051527 -0.026481
v -0.121395 0.044997 -0.028808
v -0.123933 0.050318 -0.027350
v -0.123339 0.048542 -0.028452
v -0.121207 0.048420 -0.028086
v -0.123916 0.046464 -0.028724
v -0.039113 0.038915 0.011238
v -0.041720 0.040317 0.005942
v -0.042593 0.043848 0.011843
v -0.039575 0.039956 0.008266
v -0.040152 0.041595 0.009480
v -0.041978 0.042504 0.008666
v -0.040065 0.041934 0.011571
v -0.126539 0.061642 -0.015301
v -0.123169 0.064794 -0.012617
v -0.122295 0.061264 -0.018518
v -0.125502 0.064160 -0.014251
v -0.124685 0.063557 -0.016172
v -0.122554 0.063451 -0.015794
v -0.124987 0.062076 -0.017734
v -0.039811 0.039685 0.015269
v -0.042593 0.043848 0.011843
v -0.043903 0.042727 0.018556
v -0.040413 0.042319 0.013587
v -0.041196 0.042747 0.015510
v -0.043127 0.043772 0.015304
v -0.041147 0.041691 0.017347
v -0.129529 0.064943 0.001977
v -0.126592 0.066007 0.006306
v -0.125282 0.067127 -0.000408
v -0.128827 0.066316 0.004455
v -0.127944 0.067154 0.002656
v -0.125816 0.067052 0.003054
v -0.128054 0.066977 0.000493
v -0.040592 0.037650 0.018816
v -0.043903 0.042727 0.018556
v -0.045037 0.037481 0.022942
v -0.041538 0.040674 0.019121
v -0.042364 0.039704 0.020815
v -0.044413 0.040422 0.021144
v -0.042173 0.037735 0.021577
v -0.132876 0.056222 0.017180
v -0.130091 0.054597 0.021435
v -0.128957 0.059844 0.017049
v -0.132353 0.055777 0.020017
v -0.131591 0.057651 0.019222
v -0.129467 0.057539 0.019637
v -0.131684 0.058874 0.017428
v 0.117436 0.004012 -0.018446
v 0.086019 0.012014 -0.041919
v 0.130195 0.011428 -0.055652
v 0.156899 0.010674 -0.017880
v 0.129228 0.010795 0.019197
v 0.085422 0.011624 0.004340
v 0.106066 0.023623 -0.055860
v 0.149872 0.022795 -0.041003
v 0.149275 0.022404 0.005255
v 0.105100 0.022991 0.018988
v 0.078395 0.023744 -0.018783
v 0.117858 0.030407 -0.018218
v 0.124898 0.006053 -0.040335
v 0.098933 0.006398 -0.032263
v 0.106432 0.010757 -0.054132
v 0.080116 0.010873 -0.018870
v 0.098582 0.006169 -0.005073
v 0.140595 0.005611 -0.018133
v 0.148094 0.009970 -0.040002
v 0.124330 0.005682 0.003660
v 0.147526 0.009598 0.003992
v 0.105513 0.010156 0.017053
v 0.075985 0.017997 -0.032461
v 0.075634 0.017767 -0.005271
v 0.118215 0.017581 -0.062327
v 0.092250 0.017926 -0.054255
v 0.159660 0.016651 -0.031392
v 0.143964 0.017094 -0.053594
v 0.143045 0.016493 0.017591
v 0.159309 0.016422 -0.004202
v 0.091330 0.017325 0.016930
v 0.117079 0.016838 0.025663
v 0.087768 0.024821 -0.040656
v 0.129781 0.024263 -0.053716
v 0.155178 0.023546 -0.017794
v 0.128862 0.023661 0.017468
v 0.087200 0.024449 0.003339
v 0.110964 0.028737 -0.040323
v 0.094699 0.028808 -0.018530
v 0.136712 0.028250 -0.031590
v 0.136361 0.028020 -0.004401
v 0.110396 0.028365 0.003671
v 0.159833 0.009945 -0.029724
v 0.138147 0.013840 -0.045547
v 0.168160 0.013791 -0.055253
v 0.186666 0.013927 -0.029708
v 0.168089 0.014060 -0.004214
v 0.138103 0.014007 -0.014004
v 0.151576 0.020229 -0.055310
v 0.181563 0.020283 -0.045520
v 0.181519 0.020450 -0.013977
v 0.151505 0.020499 -0.004272
v 0.133000 0.020363 -0.029816
v 0.159832 0.024345 -0.029800
v 0.164728 0.010941 -0.044723
v 0.147086 0.010970 -0.039018
v 0.151981 0.013231 -0.054023
v 0.134313 0.013358 -0.029778
v 0.147060 0.011068 -0.020477
v 0.175605 0.011021 -0.029708
v 0.180499 0.013282 -0.044713
v 0.164686 0.011100 -0.014723
v 0.180458 0.013440 -0.014714
v 0.151913 0.013487 -0.005483
v 0.131314 0.017094 -0.039072
v 0.131288 0.017192 -0.020532
v 0.159874 0.016986 -0.059762
v 0.142233 0.017015 -0.054057
v 0.188377 0.017098 -0.038993
v 0.177500 0.017018 -0.054008
v 0.177432 0.017275 -0.005467
v 0.188351 0.017196 -0.020452
v 0.142165 0.017272 -0.005516
v 0.159791 0.017303 0.000238
v 0.139208 0.020849 -0.044810
v 0.167752 0.020802 -0.054041
v 0.185352 0.020932 -0.029746
v 0.167685 0.021059 -0.005501
v 0.139166 0.021008 -0.014811
v 0.154979 0.023190 -0.044801
v 0.144060 0.023268 -0.029816
v 0.172605 0.023222 -0.039047
v 0.172579 0.023319 -0.020506
v 0.154938 0.023348 -0.014802
vn 0.1201 0.9875 -0.1022
vn -0.1201 0.9875 -0.1022
vn -0.6349 0.7658 -0.1022
vn -0.4328 0.8957 -0.1022
vn -0.9481 0.3010 -0.1022
vn -0.8484 0.5195 -0.1022
vn -0.9603 -0.2594 -0.1022
vn -0.9945 -0.0217 -0.1022
vn -0.6676 -0.7374 -0.1022
vn -0.8249 -0.5559 -0.1022
vn -0.1630 -0.9813 -0.1022
vn -0.3934 -0.9137 -0.1022
vn 0.3934 -0.9137 -0.1022
vn 0.1630 -0.9813 -0.1022
vn 0.8249 -0.5559 -0.1022
vn 0.6676 -0.7374 -0.1022
vn 0.9945 -0.0217 -0.1022
vn 0.9603 -0.2594 -0.1022
vn 0.8484 0.5195 -0.1022
vn 0.9481 0.3010 -0.1022
vn 0.4328 0.8957 -0.1022
vn 0.6349 0.7658 -0.1022
vn -0.2804 0.9548 -0.0988
vn 0.2804 0.9548 -0.0988
vn -0.7521 0.6517 -0.0988
vn -0.9850 0.1416 -0.0988
vn -0.9052 -0.4134 -0.0988
vn -0.5380 -0.8371 -0.0988
vn -0.0000 -0.9951 -0.0988
vn 0.5380 -0.8371 -0.0988
vn 0.9052 -0.4134 -0.0988
vn 0.9850 0.1416 -0.0988
vn 0.7521 0.6517 -0.0988
vn 0.8740 0.0868 0.4781
vn 0.4188 0.1297 0.8988
vn 0.4275 -0.0977 0.8987
vn -0.8557 -0.0994 0.5078
vn -0.1811 -0.1198 0.9761
vn -0.1897 0.1054 0.9762
vn 0.8849 -0.1660 0.4352
vn 0.4400 -0.3669 0.8196
vn 0.4509 -0.5581 0.6966
vn -0.8416 -0.3764 0.3873
vn -0.1552 -0.6317 0.7595
vn -0.1660 -0.4424 0.8813
vn 0.8971 -0.3554 0.2624
vn 0.4641 -0.7416 0.4844
vn 0.4737 -0.8358 0.2774
vn -0.8279 -0.5442 0.1359
vn -0.1299 -0.9450 0.3002
vn -0.1394 -0.8517 0.5052
vn 0.9069 -0.4211 0.0145
vn 0.4834 -0.8754 -0.0005
vn 0.4887 -0.8428 -0.2256
vn -0.8189 -0.5493 -0.1664
vn -0.1131 -0.9601 -0.2558
vn -0.1184 -0.9924 -0.0327
vn 0.9110 -0.3424 -0.2298
vn 0.4917 -0.7259 -0.4810
vn 0.4910 -0.5767 -0.6529
vn -0.8174 -0.3903 -0.4236
vn -0.1102 -0.6723 -0.7321
vn -0.1095 -0.8200 -0.5618
vn 0.9082 -0.1442 -0.3929
vn 0.4864 -0.3404 -0.8047
vn 0.4800 -0.1221 -0.8687
vn -0.8240 -0.1175 -0.5542
vn -0.1220 -0.1729 -0.9773
vn -0.1156 -0.3892 -0.9139
vn 0.8994 0.1105 -0.4230
vn 0.4693 0.1585 -0.8687
vn 0.4591 0.3767 -0.8046
vn -0.8366 0.1823 -0.5166
vn -0.1450 0.3794 -0.9138
vn -0.1349 0.1634 -0.9773
vn 0.8873 0.3410 -0.3106
vn 0.4456 0.6126 -0.6528
vn 0.4350 0.7613 -0.4808
vn -0.8511 0.4141 -0.3229
vn -0.1716 0.8094 -0.5616
vn -0.1611 0.6621 -0.7319
vn 0.8758 0.4739 -0.0913
vn 0.4231 0.8776 -0.2254
vn 0.4153 0.9097 -0.0002
vn -0.8629 0.5042 -0.0344
vn -0.1936 0.9805 -0.0325
vn -0.1859 0.9488 -0.2556
vn 0.8686 0.4672 0.1652
vn 0.4087 0.8694 0.2776
vn 0.4063 0.7747 0.4846
vn -0.8684 0.4240 0.2572
vn -0.2039 0.8384 0.5054
vn -0.2015 0.9323 0.3005
vn 0.8679 0.3228 0.3775
vn 0.4071 0.5906 0.6967
vn 0.4108 0.3991 0.8197
vn -0.8657 0.1990 0.4593
vn -0.1992 0.4282 0.8814
vn -0.2029 0.6179 0.7596
vn 0.4893 -0.2248 0.8426
vn 0.9267 -0.0655 0.3702
vn -0.2634 -0.2834 0.9221
vn -0.9218 -0.1484 0.3582
vn 0.1350 0.1241 0.9830
vn 0.1440 -0.1137 0.9830
vn 0.1699 -0.6232 0.7634
vn 0.1585 -0.4233 0.8920
vn 0.5126 -0.6334 0.5797
vn 0.9363 -0.2348 0.2612
vn -0.2373 -0.7420 0.6270
vn -0.9110 -0.3383 0.2360
vn 0.1951 -0.9328 0.3029
vn 0.1850 -0.8343 0.5193
vn -0.0000 1.0000 -0.0000
vn 0.9448 -0.3182 0.0780
vn -0.2142 -0.9680 0.1305
vn -0.9014 -0.4320 0.0304
vn 0.2117 -0.9442 -0.2522
vn 0.2062 -0.9784 -0.0167
vn 0.3995 -0.4494 -0.7990
vn 0.9495 -0.2893 -0.1213
vn -0.2014 -0.8897 -0.4097
vn -0.8961 -0.3995 -0.1934
vn 0.2145 -0.6538 -0.7256
vn 0.2152 -0.8098 -0.5458
vn 0.5431 -0.4463 -0.7113
vn 0.9489 -0.1572 -0.2735
vn -0.2030 -0.5319 -0.8221
vn -0.8968 -0.2513 -0.3642
vn 0.2025 -0.1538 -0.9671
vn 0.2092 -0.3821 -0.9001
vn 0.5293 0.0203 -0.8482
vn 0.9432 0.0360 -0.3302
vn -0.2185 -0.0082 -0.9758
vn -0.9032 -0.0344 -0.4279
vn 0.1795 0.3971 -0.9000
vn 0.1902 0.1690 -0.9671
vn 0.5075 0.4865 -0.7111
vn 0.9342 0.2291 -0.2734
vn -0.2429 0.5151 -0.8220
vn -0.9133 0.1824 -0.3642
vn 0.1529 0.8240 -0.5456
vn 0.1641 0.6684 -0.7255
vn 0.4847 0.8043 -0.3437
vn 0.9247 0.3608 -0.1212
vn -0.2686 0.8719 -0.4095
vn -0.9239 0.3302 -0.1933
vn 0.1311 0.9912 -0.0164
vn 0.1392 0.9577 -0.2519
vn 0.4680 0.8729 0.1376
vn 0.9178 0.3892 0.0781
vn -0.2873 0.9489 0.1308
vn -0.9317 0.3620 0.0305
vn 0.1210 0.8458 0.5195
vn 0.1235 0.9449 0.3031
vn 0.4629 0.6705 0.5799
vn 0.9157 0.3053 0.2613
vn -0.2931 0.7216 0.6272
vn -0.9341 0.2679 0.2361
vn 0.1258 0.4339 0.8921
vn 0.1219 0.6342 0.7635
vn 0.4708 0.2612 0.8427
vn 0.9190 0.1358 0.3702
vn -0.2842 0.2623 0.9222
vn -0.9304 0.0776 0.3583
vn 0.9988 0.0381 0.0291
vn -0.0000 -0.0000 1.0000
vn 0.0203 -0.0000 0.9998
vn -0.9988 -0.0381 -0.0291
vn 1.0000 -0.0000 -0.0000
vn 0.2408 -0.4815 -0.8427
vn -0.1849 0.7396 0.6472
vn 0.2537 -0.7314 -0.6330
vn -0.0000 -1.0000 -0.0000
vn -0.7027 0.6859 0.1891
vn -0.0000 -0.0000 -1.0000
vn 0.8000 -0.0102 0.5999
vn 0.3169 0.1214 0.9406
vn 0.2997 -0.1580 0.9408
vn -0.9207 0.0041 0.3903
vn -0.2912 -0.1200 0.9491
vn -0.2741 0.1563 0.9489
vn 0.7962 -0.3057 0.5222
vn 0.3011 -0.4703 0.8296
vn 0.3204 -0.6864 0.6528
vn -0.9123 -0.3387 0.2304
vn -0.2703 -0.7232 0.6355
vn -0.2895 -0.5094 0.8103
vn 0.8307 -0.4834 0.2760
vn 0.3622 -0.8552 0.3706
vn 0.4091 -0.9070 0.0996
vn -0.8596 -0.4994 -0.1080
vn -0.1719 -0.9850 0.0155
vn -0.2183 -0.9338 0.2836
vn 0.8875 -0.4602 -0.0233
vn 0.4718 -0.8535 -0.2215
vn 0.5243 -0.7166 -0.4600
vn -0.7874 -0.4030 -0.4666
vn -0.0418 -0.7829 -0.6208
vn -0.0937 -0.9182 -0.3849
vn 0.9399 -0.2470 -0.2358
vn 0.5785 -0.4658 -0.6697
vn 0.6120 -0.2044 -0.7640
vn -0.7294 -0.0944 -0.6776
vn 0.0590 -0.2114 -0.9756
vn 0.0258 -0.4700 -0.8823
vn 0.9634 0.0565 -0.2619
vn 0.6324 0.1265 -0.7642
vn 0.6313 0.3902 -0.6703
vn -0.7127 0.2819 -0.6423
vn 0.0833 0.4619 -0.8830
vn 0.0844 0.2012 -0.9759
vn 0.9471 0.3083 -0.0896
vn 0.6083 0.6461 -0.4609
vn 0.5731 0.7887 -0.2227
vn -0.7452 0.5499 -0.3772
vn 0.0198 0.9222 -0.3862
vn 0.0547 0.7812 -0.6219
vn 0.8985 0.3905 0.2006
vn 0.5175 0.8500 0.0983
vn 0.4646 0.8048 0.3694
vn -0.8117 0.5841 -0.0063
vn -0.1018 0.9539 0.2822
vn -0.0495 0.9987 0.0141
vn 0.8404 0.2647 0.4729
vn 0.4024 0.6428 0.6518
vn 0.3566 0.4309 0.8289
vn -0.8810 0.3685 0.2968
vn -0.2246 0.5423 0.8096
vn -0.1794 0.7519 0.6344
vn 0.3595 -0.3119 0.8795
vn 0.8520 -0.1725 0.4943
vn -0.3963 -0.3097 0.8643
vn -0.9750 -0.0784 0.2081
vn 0.0402 0.1443 0.9887
vn 0.0223 -0.1467 0.9889
vn 0.0440 -0.7367 0.6748
vn 0.0239 -0.5116 0.8589
vn 0.3996 -0.7594 0.5135
vn 0.8686 -0.3578 0.3427
vn -0.3500 -0.8258 0.4423
vn -0.9558 -0.2921 0.0333
vn 0.1417 -0.9879 0.0628
vn 0.0928 -0.9340 0.3450
vn 0.4967 -0.8666 -0.0477
vn 0.9089 -0.4022 0.1102
vn -0.2380 -0.9494 -0.2049
vn -0.9094 -0.3433 -0.2347
vn 0.2696 -0.7828 -0.5608
vn 0.2149 -0.9253 -0.3124
vn 0.6054 -0.5834 -0.5415
vn 0.9539 -0.2849 -0.0943
vn -0.1127 -0.6228 -0.7742
vn -0.8575 -0.2081 -0.4706
vn 0.3679 -0.2174 -0.9041
vn 0.3329 -0.4896 -0.8059
vn 0.6748 -0.0422 -0.7368
vn 0.9827 -0.0607 -0.1752
vn -0.0326 0.0013 -0.9995
vn -0.8243 0.0504 -0.5639
vn 0.3905 0.4438 -0.8065
vn 0.3917 0.1692 -0.9044
vn 0.9817 0.1654 -0.0946
vn -0.0354 0.6308 -0.7752
vn -0.8254 0.3112 -0.4710
vn 0.3270 0.8914 -0.3138
vn 0.3637 0.7430 -0.5619
vn 0.5995 0.7989 -0.0489
vn 0.9514 0.2876 0.1097
vn -0.1196 0.9712 -0.2063
vn -0.8603 0.4522 -0.2353
vn 0.2070 0.9160 0.3437
vn 0.2621 0.9631 0.0614
vn 0.4899 0.7053 0.5124
vn 0.9061 0.2489 0.3422
vn -0.2459 0.8632 0.4410
vn -0.9126 0.4074 0.0328
vn 0.0866 0.5060 0.8582
vn 0.1343 0.7267 0.6737
vn 0.3951 0.2666 0.8791
vn 0.8668 0.0671 0.4941
vn -0.3552 0.3573 0.8638
vn -0.9579 0.1979 0.2079
vn 0.9815 -0.0604 0.1814
vn -0.9815 0.0604 -0.1814
vn 0.7071 -0.7071 -0.0000
vn -0.0470 -0.9930 -0.1086
vn -0.3141 -0.9408 -0.1271
vn 0.0696 -0.9952 -0.0691
vn 0.0681 -0.9962 0.0540
vn -0.0495 -0.9947 0.0906
vn -0.6336 -0.7476 -0.1993
vn -0.0208 -0.7534 -0.6572
vn 0.6040 -0.7672 -0.2160
vn 0.3773 -0.7699 0.5147
vn -0.3875 -0.7578 0.5250
vn -0.7444 -0.3723 -0.5543
vn 0.2897 -0.3860 -0.8758
vn 0.9149 -0.4036 0.0084
vn 0.2671 -0.4008 0.8764
vn -0.7584 -0.3814 0.5286
vn -0.1569 0.9517 -0.2638
vn 0.2206 0.9455 -0.2395
vn 0.3141 0.9408 0.1271
vn -0.0056 0.9442 0.3294
vn -0.2967 0.9509 0.0878
vn -0.0696 0.9952 0.0691
vn -0.1668 0.9764 0.1374
vn -0.1639 0.9472 0.2757
vn 0.0470 0.9930 0.1086
vn 0.0818 0.9717 0.2217
vn 0.2142 0.9413 0.2611
vn 0.1206 0.9926 0.0099
vn 0.2389 0.9710 0.0113
vn 0.3171 0.9428 -0.1030
vn 0.0495 0.9947 -0.0906
vn 0.0873 0.9753 -0.2031
vn 0.0027 0.9496 -0.3134
vn -0.0681 0.9962 -0.0540
vn -0.1634 0.9786 -0.1252
vn -0.2945 0.9523 -0.0794
vn -0.6040 0.7672 0.2160
vn -0.6801 0.5437 0.4917
vn -0.3906 0.7612 0.5177
vn 0.0208 0.7534 0.6572
vn 0.2588 0.5260 0.8102
vn 0.3737 0.7487 0.5475
vn 0.6336 0.7476 0.1993
vn 0.8520 0.5234 0.0154
vn 0.6383 0.7507 -0.1702
vn 0.3875 0.7578 -0.5250
vn 0.2796 0.5395 -0.7942
vn 0.0376 0.7644 -0.6437
vn -0.3773 0.7699 -0.5147
vn -0.6673 0.5521 -0.4998
vn -0.5984 0.7709 -0.2185
vn -0.2897 0.3860 0.8758
vn -0.2796 -0.5395 0.7942
vn -0.0376 -0.7644 0.6437
vn 0.7444 0.3723 0.5543
vn 0.6673 -0.5521 0.4998
vn 0.5984 -0.7709 0.2185
vn 0.7584 0.3814 -0.5286
vn 0.6801 -0.5437 -0.4917
vn 0.3906 -0.7612 -0.5177
vn -0.2671 0.4008 -0.8764
vn -0.2588 -0.5260 -0.8102
vn -0.3737 -0.7487 -0.5475
vn -0.9149 0.4036 -0.0084
vn -0.8520 -0.5234 -0.0154
vn -0.6383 -0.7507 0.1702
vn -0.2206 -0.9455 0.2395
vn -0.0873 -0.9753 0.2031
vn -0.0027 -0.9496 0.3134
vn 0.1569 -0.9517 0.2638
vn 0.1634 -0.9786 0.1252
vn 0.2945 -0.9523 0.0794
vn 0.2967 -0.9509 -0.0878
vn 0.1668 -0.9764 -0.1374
vn 0.1639 -0.9472 -0.2757
vn -0.3171 -0.9428 0.1030
vn -0.2389 -0.9710 -0.0113
vn -0.1206 -0.9926 -0.0099
vn 0.0056 -0.9442 -0.3294
vn -0.0818 -0.9717 -0.2217
vn -0.2142 -0.9413 -0.2611
vn -0.0258 -0.9969 -0.0746
vn -0.2449 -0.9655 -0.0890
vn 0.0681 -0.9967 -0.0440
vn 0.0679 -0.9962 0.0547
vn -0.0260 -0.9960 0.0851
vn -0.5419 -0.8256 -0.1570
vn -0.0140 -0.8277 -0.5609
vn 0.5334 -0.8257 -0.1837
vn 0.3437 -0.8224 0.4534
vn -0.3209 -0.8223 0.4699
vn -0.7148 -0.4694 -0.5184
vn 0.2745 -0.4711 -0.8383
vn 0.8845 -0.4666 0.0037
vn 0.2722 -0.4622 0.8440
vn -0.7162 -0.4640 0.5213
vn -0.1429 0.9638 -0.2252
vn 0.1652 0.9639 -0.2090
vn 0.2449 0.9655 0.0890
vn -0.0139 0.9663 0.2569
vn -0.2536 0.9653 0.0627
vn -0.0681 0.9967 0.0440
vn -0.1461 0.9841 0.1006
vn -0.1435 0.9661 0.2146
vn 0.0258 0.9969 0.0746
vn 0.0554 0.9845 0.1664
vn 0.1646 0.9660 0.1992
vn 0.0839 0.9965 -0.0051
vn 0.1803 0.9836 -0.0049
vn 0.2451 0.9645 -0.0986
vn 0.0260 0.9960 -0.0851
vn 0.0559 0.9827 -0.1766
vn -0.0132 0.9636 -0.2672
vn -0.0679 0.9962 -0.0547
vn -0.1458 0.9830 -0.1114
vn -0.2534 0.9646 -0.0736
vn -0.5334 0.8257 0.1837
vn -0.6337 0.6251 0.4557
vn -0.3449 0.8271 0.4438
vn 0.0140 0.8277 0.5609
vn 0.2407 0.6266 0.7412
vn 0.3196 0.8272 0.4621
vn 0.5419 0.8256 0.1570
vn 0.7824 0.6227 -0.0022
vn 0.5424 0.8239 -0.1642
vn 0.3209 0.8223 -0.4699
vn 0.2428 0.6188 -0.7471
vn 0.0156 0.8218 -0.5696
vn -0.3437 0.8224 -0.4534
vn -0.6324 0.6202 -0.4641
vn -0.5328 0.8237 -0.1939
vn -0.2745 0.4711 0.8383
vn -0.2428 -0.6188 0.7471
vn -0.0156 -0.8218 0.5696
vn 0.7148 0.4694 0.5184
vn 0.6324 -0.6202 0.4641
vn 0.5328 -0.8237 0.1939
vn 0.7162 0.4640 -0.5213
vn 0.6337 -0.6251 -0.4557
vn 0.3449 -0.8271 -0.4438
vn -0.2722 0.4622 -0.8440
vn -0.2407 -0.6266 -0.7412
vn -0.3196 -0.8272 -0.4621
vn -0.8845 0.4666 -0.0037
vn -0.7824 -0.6227 0.0022
vn -0.5424 -0.8239 0.1642
vn -0.1652 -0.9639 0.2090
vn -0.0559 -0.9827 0.1766
vn 0.0132 -0.9636 0.2672
vn 0.1429 -0.9638 0.2252
vn 0.1458 -0.9830 0.1114
vn 0.2534 -0.9646 0.0736
vn 0.2536 -0.9653 -0.0627
vn 0.1461 -0.9841 -0.1006
vn 0.1435 -0.9661 -0.2146
vn -0.2451 -0.9645 0.0986
vn -0.1803 -0.9836 0.0049
vn -0.0839 -0.9965 0.0051
vn 0.0139 -0.9663 -0.2569
vn -0.0554 -0.9845 -0.1664
vn -0.1646 -0.9660 -0.1992
vn -0.2803 0.9548 -0.0988
vn 0.2803 0.9548 -0.0988
vn -0.7520 0.6517 -0.0988
vn -0.5380 -0.8372 -0.0988
vn 0.9850 0.1417 -0.0988
vn 0.7521 0.6516 -0.0988
vn 0.8781 -0.0201 0.4781
vn 0.3396 0.2339 0.9110
vn 0.3564 -0.2075 0.9110
vn -0.8608 0.0338 0.5078
vn -0.0808 -0.2375 0.9680
vn -0.0986 0.2304 0.9681
vn 0.8900 -0.2559 0.3774
vn 0.3602 -0.2876 0.8874
vn 0.3813 -0.6587 0.6487
vn -0.8480 -0.2645 0.4593
vn -0.0540 -0.7242 0.6875
vn -0.0764 -0.3309 0.9406
vn 0.9017 -0.3997 0.1651
vn 0.3852 -0.7133 0.5856
vn 0.4039 -0.8961 0.1839
vn -0.8335 -0.4890 0.2571
vn -0.0296 -0.9817 0.1881
vn -0.0494 -0.7879 0.6139
vn 0.9094 -0.4058 -0.0914
vn 0.4068 -0.9079 0.1012
vn 0.4171 -0.8445 -0.3358
vn -0.8220 -0.5684 -0.0345
vn -0.0153 -0.9283 -0.3715
vn -0.0263 -0.9954 0.0917
vn 0.9107 -0.2723 -0.3106
vn 0.4180 -0.8098 -0.4118
vn 0.4167 -0.5203 -0.7454
vn -0.8170 -0.4776 -0.3230
vn -0.0157 -0.5809 -0.8138
vn -0.0143 -0.8877 -0.4602
vn 0.9052 -0.0416 -0.4230
vn 0.4153 -0.4500 -0.7906
vn 0.4028 -0.0263 -0.9149
vn -0.8203 -0.2454 -0.5167
vn -0.0306 -0.0498 -0.9983
vn -0.0173 -0.4989 -0.8665
vn 0.8946 0.2131 -0.3928
vn 0.3996 0.0572 -0.9149
vn 0.3798 0.4805 -0.7905
vn -0.8306 0.0546 -0.5542
vn -0.0552 0.4963 -0.8664
vn -0.0343 0.0476 -0.9983
vn 0.8823 0.4109 -0.2297
vn 0.3759 0.5507 -0.7453
vn 0.3551 0.8394 -0.4116
vn -0.8448 0.3270 -0.4235
vn -0.0819 0.8842 -0.4600
vn -0.0599 0.5782 -0.8137
vn 0.8722 0.4890 0.0146
vn 0.3516 0.8739 -0.3356
vn 0.3364 0.9362 0.1015
vn -0.8583 0.4854 -0.1662
vn -0.1020 0.9905 0.0919
vn -0.0860 0.9245 -0.3713
vn 0.8675 0.4226 0.2625
vn 0.3345 0.9242 0.1841
vn 0.3298 0.7404 0.5857
vn -0.8669 0.4795 0.1361
vn -0.1093 0.7817 0.6140
vn -0.1043 0.9765 0.1884
vn 0.8697 0.2328 0.4353
vn 0.3300 0.6856 0.6488
vn 0.3372 0.3140 0.8875
vn -0.8679 0.3111 0.3873
vn -0.1014 0.3239 0.9406
vn -0.1090 0.7178 0.6877
vn 0.7071 -0.0000 0.7071
vn 0.9267 -0.0655 0.3701
vn 0.5332 -0.8348 0.1374
vn 0.5446 -0.7650 -0.3438
vn -0.4472 -0.0000 0.8944
vn -0.0000 0.8643 0.5029
vn 0.1456 -0.2727 0.9510
vn 0.1244 0.2828 0.9511
vn 0.1721 -0.7397 0.6505
vn 0.1957 -0.9699 0.1450
vn 0.2087 -0.8902 -0.4051
vn 0.2070 -0.5258 -0.8250
vn 0.1913 0.0074 -0.9815
vn 0.1664 0.5403 -0.8249
vn 0.1403 0.9036 -0.4049
vn 0.1212 0.9819 0.1452
vn 0.1153 0.7505 0.6507
vn 0.7953 -0.0873 0.6000
vn 0.2535 0.2226 0.9414
vn 0.2243 -0.2507 0.9417
vn -0.9142 0.1097 0.3902
vn -0.2036 -0.2419 0.9487
vn -0.1722 0.2664 0.9483
vn 0.8015 -0.3653 0.4734
vn 0.2250 -0.3996 0.8887
vn 0.2578 -0.7658 0.5892
vn -0.9196 -0.2570 0.2972
vn -0.1676 -0.8074 0.5657
vn -0.2028 -0.4141 0.8873
vn 0.8437 -0.4977 0.2012
vn 0.2777 -0.8463 0.4546
vn 0.3572 -0.9340 -0.0046
vn -0.8773 -0.4799 -0.0056
vn -0.0592 -0.9948 -0.0831
vn -0.1445 -0.9006 0.4100
vn 0.9020 -0.4225 -0.0891
vn 0.3871 -0.9085 -0.1577
vn 0.4760 -0.6767 -0.5617
vn -0.8072 -0.4546 -0.3765
vn 0.0709 -0.7163 -0.6942
vn -0.0246 -0.9652 -0.2603
vn 0.9492 -0.1749 -0.2618
vn 0.5019 -0.5571 -0.6617
vn 0.5587 -0.1142 -0.8215
vn -0.7420 -0.1931 -0.6419
vn 0.1618 -0.1023 -0.9815
vn 0.1008 -0.5779 -0.8099
vn 0.9631 0.1293 -0.2360
vn 0.5684 0.0435 -0.8216
vn 0.5665 0.4902 -0.6624
vn -0.7123 0.1823 -0.6778
vn 0.1710 0.5599 -0.8107
vn 0.1731 0.0802 -0.9816
vn 0.9373 0.3476 -0.0239
vn 0.5555 0.6123 -0.5626
vn 0.4958 0.8538 -0.1589
vn -0.7319 0.4960 -0.4672
vn 0.0942 0.9606 -0.2617
vn 0.1584 0.7012 -0.6952
vn 0.8839 0.3780 0.2754
vn 0.4693 0.8830 -0.0059
vn 0.3796 0.8064 0.4534
vn -0.7917 0.6011 -0.1088
vn -0.0327 0.9121 0.4087
vn 0.0635 0.9944 -0.0846
vn 0.8278 0.2063 0.5218
vn 0.3500 0.7291 0.5881
vn 0.2724 0.3702 0.8881
vn -0.8637 0.4486 0.2299
vn -0.1503 0.4372 0.8867
vn -0.0670 0.8227 0.5645
vn -1.0000 -0.0000 -0.0000
vn -0.9094 -0.3434 -0.2347
vn 0.6725 0.5037 -0.5422
vn -0.0353 0.6308 -0.7752
vn -0.0000 -0.2425 0.9701
vn 0.9061 0.2488 0.3422
vn -0.3551 0.3573 0.8638
vn 0.0091 -0.3356 0.9420
vn 0.0504 0.3333 0.9415
vn 0.0555 -0.8532 0.5187
vn 0.1678 -0.9772 -0.1303
vn 0.2936 -0.6496 -0.7013
vn 0.3738 -0.0237 -0.9272
vn 0.3711 0.6076 -0.7022
vn 0.2867 0.9489 -0.1317
vn 0.1600 0.8406 0.5174
vt 0.040352 0.500000
vt -0.000000 1.000000
vt -0.000000 0.502040
vt 1.000000 1.000000
vt 0.959648 0.500000
vt 1.000000 0.502040
vt 0.868739 0.500000
vt 0.909091 1.000000
vt 0.863897 1.000000
vt 0.949443 0.500000
vt 0.954285 1.000000
vt 0.777830 0.500000
vt 0.818182 1.000000
vt 0.772988 1.000000
vt 0.858534 0.500000
vt 0.863376 1.000000
vt 0.686921 0.500000
vt 0.727273 1.000000
vt 0.682079 1.000000
vt 0.767624 0.500000
vt 0.772467 1.000000
vt 0.596012 0.500000
vt 0.636364 1.000000
vt 0.591169 1.000000
vt 0.676715 0.500000
vt 0.681558 1.000000
vt 0.505103 0.500000
vt 0.545454 1.000000
vt 0.500260 1.000000
vt 0.585806 0.500000
vt 0.590648 1.000000
vt 0.414193 0.500000
vt 0.454545 1.000000
vt 0.409351 1.000000
vt 0.494897 0.500000
vt 0.499739 1.000000
vt 0.323284 0.500000
vt 0.363636 1.000000
vt 0.318442 1.000000
vt 0.403988 0.500000
vt 0.408830 1.000000
vt 0.232375 0.500000
vt 0.272727 1.000000
vt 0.227533 1.000000
vt 0.313079 0.500000
vt 0.317921 1.000000
vt 0.141466 0.500000
vt 0.181818 1.000000
vt 0.136624 1.000000
vt 0.222170 0.500000
vt 0.227012 1.000000
vt 0.050557 0.500000
vt 0.090909 1.000000
vt 0.045715 1.000000
vt 0.131261 0.500000
vt 0.136103 1.000000
vt 0.954806 1.000000
vt 0.750000 0.416082
vt 0.745598 0.488708
vt 0.792429 0.477542
vt -0.000000 0.532538
vt 0.029727 0.500000
vt 0.045454 0.534169
vt 0.970273 0.500000
vt 1.000000 0.532538
vt 0.954546 0.534169
vt 0.250000 0.447355
vt 0.254151 0.488781
vt 0.223646 0.482262
vt 1.000000 0.964200
vt 0.981536 1.000000
vt 0.971464 0.965831
vt 0.018464 1.000000
vt -0.000000 0.964200
vt 0.028535 0.965831
vt 0.839791 0.389717
vt 0.875352 0.453193
vt 0.908712 0.418481
vt 0.909091 0.532538
vt 0.938818 0.500000
vt 0.879364 0.500000
vt 0.863636 0.534169
vt 0.356698 0.416026
vt 0.382587 0.448632
vt 0.353400 0.459639
vt 0.909091 0.964200
vt 0.890626 1.000000
vt 0.880555 0.965831
vt 0.927555 1.000000
vt 0.937626 0.965831
vt 0.901074 0.318993
vt 0.965307 0.353167
vt 0.974605 0.305929
vt 0.818182 0.532538
vt 0.847909 0.500000
vt 0.863636 0.534169
vt 0.788455 0.500000
vt 0.772727 0.534169
vt 0.429521 0.331984
vt 0.468927 0.345418
vt 0.450325 0.370458
vt 0.818182 0.964200
vt 0.799717 1.000000
vt 0.789646 0.965831
vt 0.836646 1.000000
vt 0.846717 0.965831
vt 0.914392 0.226364
vt 0.986904 0.220385
vt 0.969187 0.175620
vt 0.727273 0.532538
vt 0.757000 0.500000
vt 0.772727 0.534169
vt 0.697546 0.500000
vt 0.681818 0.534169
vt 0.445346 0.221913
vt 0.485760 0.211910
vt 0.483648 0.243032
vt 0.727273 0.964200
vt 0.708808 1.000000
vt 0.698737 0.965831
vt 0.745737 1.000000
vt 0.755808 0.965831
vt 0.875517 0.141239
vt 0.933286 0.097006
vt 0.894179 0.068926
vt 0.636363 0.532538
vt 0.666091 0.500000
vt 0.681818 0.534169
vt 0.606636 0.500000
vt 0.590909 0.534169
vt 0.399151 0.120760
vt 0.427741 0.090495
vt 0.442790 0.117818
vt 0.636363 0.964200
vt 0.617899 1.000000
vt 0.607828 0.965831
vt 0.654828 1.000000
vt 0.664899 0.965831
vt 0.796791 0.090645
vt 0.821475 0.022202
vt 0.773395 0.019722
vt 0.545454 0.532538
vt 0.575181 0.500000
vt 0.590909 0.534169
vt 0.515727 0.500000
vt 0.500000 0.534169
vt 0.305601 0.060639
vt 0.313290 0.019722
vt 0.340722 0.034571
vt 0.545454 0.964200
vt 0.526990 1.000000
vt 0.516919 0.965831
vt 0.563919 1.000000
vt 0.573990 0.965831
vt 0.703209 0.090645
vt 0.686972 0.019722
vt 0.645184 0.043629
vt 0.454545 0.532538
vt 0.484272 0.500000
vt 0.500000 0.534169
vt 0.424818 0.500000
vt 0.409091 0.534169
vt 0.194399 0.060639
vt 0.178745 0.022060
vt 0.209851 0.019722
vt 0.454545 0.964200
vt 0.436081 1.000000
vt 0.426010 0.965831
vt 0.473010 1.000000
vt 0.483081 0.965831
vt 0.624483 0.141239
vt 0.572479 0.090353
vt 0.550250 0.133058
vt 0.363636 0.532538
vt 0.393363 0.500000
vt 0.409091 0.534169
vt 0.333909 0.500000
vt 0.318182 0.534169
vt 0.100849 0.120760
vt 0.066823 0.096768
vt 0.091727 0.077984
vt 0.363636 0.964200
vt 0.345172 1.000000
vt 0.335101 0.965831
vt 0.382101 1.000000
vt 0.392172 0.965831
vt 0.585608 0.226364
vt 0.514349 0.211671
vt 0.518736 0.259615
vt 0.272727 0.532538
vt 0.302454 0.500000
vt 0.318182 0.534169
vt 0.243000 0.500000
vt 0.227273 0.534169
vt 0.054654 0.221913
vt 0.013058 0.220126
vt 0.023853 0.190860
vt 0.272727 0.964200
vt 0.254263 1.000000
vt 0.244191 0.965831
vt 0.291191 1.000000
vt 0.301263 0.965831
vt 0.598926 0.318993
vt 0.531035 0.345159
vt 0.560647 0.383119
vt 0.181818 0.532538
vt 0.211545 0.500000
vt 0.227273 0.534169
vt 0.152091 0.500000
vt 0.136363 0.534169
vt 0.070479 0.331984
vt 0.034521 0.352969
vt 0.027779 0.322512
vt 0.181818 0.964200
vt 0.163354 1.000000
vt 0.153282 0.965831
vt 0.200282 1.000000
vt 0.210354 0.965831
vt 0.660209 0.389717
vt 0.617242 0.448434
vt 0.662675 0.464359
vt 0.090909 0.532539
vt 0.120636 0.500000
vt 0.136363 0.534169
vt 0.061182 0.500000
vt 0.045454 0.534169
vt 0.143302 0.416026
vt 0.124397 0.453120
vt 0.102259 0.431143
vt 0.090909 0.964200
vt 0.072445 1.000000
vt 0.062373 0.965831
vt 0.109373 1.000000
vt 0.119445 0.965831
vt 0.837325 0.464359
vt 0.276354 0.482262
vt 0.939354 0.383119
vt 0.397741 0.431143
vt 0.472221 0.322512
vt 0.949750 0.133058
vt 0.476147 0.190860
vt 0.854816 0.043629
vt 0.408273 0.077984
vt 0.726605 0.019722
vt 0.290149 0.019722
vt 0.605821 0.068926
vt 0.159278 0.034571
vt 0.016352 0.243032
vt 0.049675 0.370458
vt 0.707571 0.477542
vt 0.146600 0.459639
vt 0.750000 0.396052
vt 0.743079 0.487481
vt 0.803664 0.470468
vt 0.000000 0.518164
vt 0.038651 0.500000
vt 0.055556 0.519587
vt 0.961349 0.500000
vt 1.000000 0.518164
vt 0.944444 0.519587
vt 0.250000 0.458684
vt 0.254050 0.488526
vt 0.230097 0.482756
vt 1.000000 0.978990
vt 0.985665 1.000000
vt 0.979101 0.980413
vt 0.014335 1.000000
vt 0.000000 0.978990
vt 0.020899 0.980413
vt 0.843881 0.361882
vt 0.897348 0.436370
vt 0.932823 0.384393
vt 0.888889 0.518164
vt 0.927540 0.500000
vt 0.944444 0.519587
vt 0.850238 0.500000
vt 0.833333 0.519587
vt 0.384140 0.409861
vt 0.406424 0.430118
vt 0.384366 0.441095
vt 0.888889 0.978990
vt 0.874554 1.000000
vt 0.867990 0.980413
vt 0.903224 1.000000
vt 0.909788 0.980413
vt 0.893833 0.275362
vt 0.982671 0.298054
vt 0.976437 0.235435
vt 0.777778 0.518164
vt 0.816429 0.500000
vt 0.833333 0.519587
vt 0.739126 0.500000
vt 0.722222 0.519587
vt 0.455514 0.286238
vt 0.485605 0.287431
vt 0.475764 0.310018
vt 0.777778 0.978990
vt 0.763443 1.000000
vt 0.756878 0.980413
vt 0.792112 1.000000
vt 0.798677 0.980413
vt 0.876485 0.176974
vt 0.959125 0.137253
vt 0.914099 0.093291
vt 0.666667 0.518164
vt 0.705318 0.500000
vt 0.628015 0.500000
vt 0.611111 0.519587
vt 0.430726 0.145658
vt 0.454544 0.127230
vt 0.461524 0.150858
vt 0.666667 0.978990
vt 0.652332 1.000000
vt 0.645767 0.980413
vt 0.681001 1.000000
vt 0.687566 0.980413
vt 0.799953 0.112756
vt 0.837727 0.029208
vt 0.774976 0.024474
vt 0.555556 0.518164
vt 0.594207 0.500000
vt 0.611111 0.519587
vt 0.516904 0.500000
vt 0.500000 0.519587
vt 0.321374 0.053901
vt 0.327775 0.024474
vt 0.348310 0.038088
vt 0.555556 0.978990
vt 0.541221 1.000000
vt 0.534656 0.980413
vt 0.569890 1.000000
vt 0.576455 0.980413
vt 0.700047 0.112756
vt 0.675280 0.024474
vt 0.624168 0.061182
vt 0.444444 0.518164
vt 0.483096 0.500000
vt 0.500000 0.519587
vt 0.405793 0.500000
vt 0.388889 0.519587
vt 0.178626 0.053901
vt 0.164613 0.027244
vt 0.189095 0.024474
vt 0.444444 0.978990
vt 0.430110 1.000000
vt 0.423545 0.980413
vt 0.458779 1.000000
vt 0.465344 0.980413
vt 0.623515 0.176974
vt 0.547796 0.125266
vt 0.532237 0.186241
vt 0.333333 0.518164
vt 0.371985 0.500000
vt 0.294682 0.500000
vt 0.277778 0.519587
vt 0.069274 0.145658
vt 0.041405 0.134245
vt 0.058379 0.116386
vt 0.333333 0.978990
vt 0.318999 1.000000
vt 0.312434 0.980413
vt 0.347668 1.000000
vt 0.354233 0.980413
vt 0.606167 0.275362
vt 0.514925 0.284423
vt 0.542200 0.341133
vt 0.222222 0.518164
vt 0.260874 0.500000
vt 0.277778 0.519587
vt 0.183571 0.500000
vt 0.166667 0.519587
vt 0.044486 0.286238
vt 0.015801 0.295408
vt 0.017324 0.270817
vt 0.222222 0.978990
vt 0.207888 1.000000
vt 0.201323 0.980413
vt 0.236557 1.000000
vt 0.243122 0.980413
vt 0.656119 0.361882
vt 0.592049 0.427473
vt 0.649395 0.453383
vt 0.111111 0.518164
vt 0.149763 0.500000
vt 0.072460 0.500000
vt 0.055556 0.519587
vt 0.115860 0.409861
vt 0.099781 0.435325
vt 0.085141 0.415508
vt 0.111111 0.978990
vt 0.096776 1.000000
vt 0.090212 0.980413
vt 0.125446 1.000000
vt 0.132011 0.980413
vt 0.850605 0.453383
vt 0.269903 0.482756
vt 0.967763 0.186241
vt 0.875832 0.061182
vt 0.441621 0.116386
vt 0.725024 0.024474
vt 0.151690 0.038088
vt 0.038476 0.150858
vt 0.567177 0.384393
vt 0.024236 0.310018
vt 0.115634 0.441095
vt 0.181819 0.000000
vt 0.227273 0.078731
vt 0.136365 0.078731
vt 0.272728 0.157461
vt 0.318182 0.078731
vt 0.363637 0.157461
vt 0.909091 0.000000
vt 0.954545 0.078731
vt 0.863636 0.078731
vt 0.727273 0.000000
vt 0.772727 0.078731
vt 0.681818 0.078731
vt 0.545455 0.000000
vt 0.590909 0.078731
vt 0.500000 0.078731
vt 0.318182 0.236191
vt 0.090910 0.157461
vt 0.181819 0.157461
vt 0.136365 0.236191
vt 0.818182 0.157461
vt 0.909091 0.157461
vt 0.863636 0.236191
vt 0.636364 0.157461
vt 0.727273 0.157461
vt 0.681818 0.236191
vt 0.454546 0.157461
vt 0.545455 0.157461
vt 0.500000 0.236191
vt 0.227273 0.236191
vt 0.045455 0.236191
vt 0.772727 0.236191
vt 0.590909 0.236191
vt 0.409092 0.236191
vt 0.181819 0.314921
vt 0.272728 0.314921
vt 0.227273 0.393651
vt 0.000000 0.314921
vt 0.090910 0.314921
vt 0.045455 0.393651
vt 0.727273 0.314921
vt 0.818182 0.314921
vt 0.772727 0.393651
vt 0.545455 0.314921
vt 0.636364 0.314921
vt 0.590909 0.393651
vt 0.363637 0.314921
vt 0.454546 0.314921
vt 0.409092 0.393651
vt 0.500000 0.393651
vt 0.454546 0.472382
vt 0.681818 0.393651
vt 0.636364 0.472382
vt 0.863636 0.393651
vt 0.818182 0.472382
vt 0.909091 0.314921
vt 0.136365 0.393651
vt 0.090910 0.472382
vt 0.318182 0.393651
vt 0.272728 0.472382
vt 0.954545 0.236191
vt 1.000000 0.157461
vt 0.409092 0.078731
vt 0.363637 0.000000
vt 0.045194 1.000000
vt 0.909091 0.502040
vt 0.818182 0.502040
vt 0.727273 0.502040
vt 0.636364 0.502040
vt 0.545454 0.502040
vt 0.454545 0.502040
vt 0.363636 0.502040
vt 0.272727 0.502040
vt 0.181818 0.502040
vt 0.090909 0.502040
vt -0.000000 0.512563
vt 0.996916 0.500000
vt 1.000000 0.983667
vt 0.002908 1.000000
vt 0.907549 0.506282
vt 0.910545 0.991834
vt 0.816640 0.506282
vt 0.819636 0.991834
vt 0.981264 0.259615
vt 0.725731 0.506282
vt 0.728727 0.991834
vt 0.634822 0.506282
vt 0.637818 0.991834
vt 0.543912 0.506282
vt 0.546908 0.991834
vt 0.453003 0.506282
vt 0.455999 0.991834
vt 0.362094 0.506282
vt 0.057210 0.117818
vt 0.365090 0.991834
vt 0.530813 0.175620
vt 0.271185 0.506282
vt 0.274181 0.991834
vt 0.525395 0.305929
vt 0.180276 0.506282
vt 0.183272 0.991834
vt 0.591288 0.418481
vt 0.089367 0.506282
vt 0.092363 0.991834
vt 0.696336 0.470468
vt 0.000000 0.506775
vt 0.995016 0.500000
vt 1.000000 0.990201
vt 0.002917 1.000000
vt 0.886397 0.503388
vt 0.414859 0.415508
vt 0.890347 0.995101
vt 0.957800 0.341133
vt 0.775286 0.503388
vt 0.482676 0.270817
vt 0.779236 0.995101
vt 0.664174 0.503388
vt 0.668125 0.995101
vt 0.553063 0.503388
vt 0.310905 0.024474
vt 0.557014 0.995101
vt 0.441952 0.503388
vt 0.445903 0.995101
vt 0.585901 0.093291
vt 0.330841 0.503388
vt 0.334792 0.995101
vt 0.523563 0.235435
vt 0.219730 0.503388
vt 0.223681 0.995101
vt 0.108619 0.503388
vt 0.112570 0.995101
s 0
usemtl bone
f 1/1/1 6/2/1 3/3/1
f 6/4/2 2/5/2 3/6/2
f 8/7/3 12/8/3 10/9/3
f 12/8/4 7/10/4 11/11/4
f 14/12/5 18/13/5 16/14/5
f 18/13/6 13/15/6 17/16/6
f 20/17/7 24/18/7 22/19/7
f 24/18/8 19/20/8 23/21/8
f 26/22/9 30/23/9 28/24/9
f 30/23/10 25/25/10 29/26/10
f 32/27/11 36/28/11 34/29/11
f 36/28/12 31/30/12 35/31/12
f 38/32/13 42/33/13 40/34/13
f 42/33/14 37/35/14 41/36/14
f 44/37/15 48/38/15 46/39/15
f 48/38/16 43/40/16 47/41/16
f 50/42/17 54/43/17 52/44/17
f 54/43/18 49/45/18 53/46/18
f 56/47/19 60/48/19 58/49/19
f 60/48/20 55/50/20 59/51/20
f 62/52/21 66/53/21 64/54/21
f 66/53/22 61/55/22 65/56/22
f 4/57/23 7/10/23 2/5/23
f 64/54/24 1/1/24 62/52/24
f 8/7/25 17/16/25 13/15/25
f 16/14/26 19/20/26 14/12/26
f 22/19/27 25/25/27 20/17/27
f 26/22/28 35/31/28 31/30/28
f 34/29/29 37/35/29 32/27/29
f 40/34/30 43/40/30 38/32/30
f 44/37/31 53/46/31 49/45/31
f 50/42/32 59/51/32 55/50/32
f 56/47/33 65/56/33 61/55/33
f 67/58/34 71/59/34 73/60/34
f 72/61/35 70/62/35 68/63/35
f 73/64/36 72/65/36 69/66/36
f 74/67/37 78/68/37 80/69/37
f 79/70/38 77/71/38 75/72/38
f 80/73/39 79/74/39 76/75/39
f 81/76/40 85/77/40 87/78/40
f 86/79/41 84/80/41 82/66/41
f 87/81/42 86/79/42 83/82/42
f 88/83/43 92/84/43 94/85/43
f 93/86/44 91/87/44 89/88/44
f 94/89/45 93/86/45 90/90/45
f 95/91/46 99/92/46 101/93/46
f 100/94/47 98/95/47 96/96/47
f 101/97/48 100/94/48 97/98/48
f 102/99/49 106/100/49 108/101/49
f 107/102/50 105/103/50 103/104/50
f 108/105/51 107/102/51 104/106/51
f 109/107/52 113/108/52 115/109/52
f 114/110/53 112/111/53 110/112/53
f 115/113/54 114/110/54 111/114/54
f 116/115/55 120/116/55 122/117/55
f 121/118/56 119/119/56 117/120/56
f 122/121/57 121/118/57 118/122/57
f 123/123/58 127/124/58 129/125/58
f 128/126/59 126/127/59 124/128/59
f 129/129/60 128/126/60 125/130/60
f 130/131/61 134/132/61 136/133/61
f 135/134/62 133/135/62 131/136/62
f 136/137/63 135/134/63 132/138/63
f 137/139/64 141/140/64 143/141/64
f 142/142/65 140/143/65 138/144/65
f 143/145/66 142/142/66 139/146/66
f 144/147/67 148/148/67 150/149/67
f 149/150/68 147/151/68 145/152/68
f 150/153/69 149/150/69 146/154/69
f 151/155/70 155/156/70 157/157/70
f 156/158/71 154/159/71 152/160/71
f 157/161/72 156/158/72 153/162/72
f 158/163/73 162/164/73 164/165/73
f 163/166/74 161/167/74 159/168/74
f 164/169/75 163/166/75 160/170/75
f 165/171/76 169/172/76 171/173/76
f 170/174/77 168/175/77 166/176/77
f 171/177/78 170/174/78 167/178/78
f 172/179/79 176/180/79 178/181/79
f 177/182/80 175/183/80 173/184/80
f 178/185/81 177/182/81 174/186/81
f 179/187/82 183/188/82 185/189/82
f 184/190/83 182/191/83 180/192/83
f 185/193/84 184/190/84 181/194/84
f 186/195/85 190/196/85 192/197/85
f 191/198/86 189/199/86 187/200/86
f 192/201/87 191/198/87 188/202/87
f 193/203/88 197/204/88 199/205/88
f 198/206/89 196/207/89 194/208/89
f 199/209/90 198/206/90 195/210/90
f 200/211/91 204/212/91 206/213/91
f 205/214/92 203/215/92 201/216/92
f 206/217/93 205/214/93 202/218/93
f 207/219/94 211/220/94 213/221/94
f 212/222/95 210/223/95 208/224/95
f 213/225/96 212/222/96 209/226/96
f 214/227/97 218/228/97 220/229/97
f 219/230/98 217/231/98 215/232/98
f 220/233/99 219/230/99 216/234/99
f 69/66/100 84/80/100 73/64/100
f 84/235/101 67/58/101 73/60/101
f 90/90/102 77/71/102 94/89/102
f 77/236/103 88/83/103 94/85/103
f 68/63/104 79/74/104 72/61/104
f 79/70/105 69/66/105 72/65/105
f 89/88/106 86/79/106 93/86/106
f 86/79/107 90/90/107 93/86/107
f 83/82/108 98/95/108 87/81/108
f 98/237/109 81/76/109 87/78/109
f 89/88/110 108/105/110 104/106/110
f 91/238/111 102/99/111 108/101/111
f 103/104/112 100/94/112 107/102/112
f 107/102/113 96/96/113 104/106/113
f 110/112/114 101/97/114 97/98/114
f 101/93/115 109/107/115 95/91/115
f 103/104/116 122/121/116 118/122/116
f 105/239/117 116/115/117 122/117/117
f 111/114/118 121/118/118 117/120/118
f 114/110/119 118/122/119 121/118/119
f 124/128/120 115/113/120 111/114/120
f 126/240/121 109/107/121 115/109/121
f 117/120/122 136/137/122 132/138/122
f 119/241/123 130/131/123 136/133/123
f 125/130/124 135/134/124 131/136/124
f 135/134/125 124/128/125 132/138/125
f 125/130/126 140/143/126 129/129/126
f 140/242/127 123/123/127 129/125/127
f 131/136/128 150/153/128 146/154/128
f 133/243/129 144/147/129 150/149/129
f 139/146/130 149/150/130 145/152/130
f 149/150/131 138/144/131 146/154/131
f 139/146/132 154/159/132 143/145/132
f 154/244/133 137/139/133 143/141/133
f 145/152/134 164/169/134 160/170/134
f 147/245/135 158/163/135 164/165/135
f 153/162/136 163/166/136 159/168/136
f 163/166/137 152/160/137 160/170/137
f 153/162/138 168/175/138 157/161/138
f 168/246/139 151/155/139 157/157/139
f 159/168/140 178/185/140 174/186/140
f 161/247/141 172/179/141 178/181/141
f 167/178/142 177/182/142 173/184/142
f 170/174/143 174/186/143 177/182/143
f 167/178/144 182/191/144 171/177/144
f 171/173/145 179/187/145 165/171/145
f 188/202/146 175/183/146 192/201/146
f 192/197/147 172/179/147 186/195/147
f 181/194/148 191/198/148 187/200/148
f 191/198/149 180/192/149 188/202/149
f 181/194/150 196/207/150 185/193/150
f 185/189/151 193/203/151 179/187/151
f 187/200/152 206/217/152 202/218/152
f 189/248/153 200/211/153 206/213/153
f 195/210/154 205/214/154 201/216/154
f 198/206/155 202/218/155 205/214/155
f 195/210/156 210/223/156 199/209/156
f 199/205/157 207/219/157 193/203/157
f 201/216/158 220/233/158 216/234/158
f 203/249/159 214/227/159 220/229/159
f 215/232/160 212/222/160 219/230/160
f 212/222/161 216/234/161 219/230/161
f 209/226/162 70/62/162 213/225/162
f 70/250/163 207/219/163 213/221/163
f 215/232/164 80/73/164 76/75/164
f 217/251/165 74/67/165 80/69/165
f 81/76/166 137/139/166 193/203/166
f 69/66/167 90/90/167 82/66/167
f 215/232/168 68/63/168 209/226/168
f 74/67/169 172/179/169 116/115/169
f 83/82/114 104/106/114 96/96/114
f 97/98/170 118/122/170 110/112/170
f 111/114/171 132/138/171 124/128/171
f 125/130/172 146/154/172 138/144/172
f 145/152/173 152/160/173 139/146/173
f 153/162/174 174/186/174 166/176/174
f 173/184/175 180/192/175 167/178/175
f 181/194/176 202/218/176 194/208/176
f 195/210/114 216/234/114 208/224/114
f 221/252/177 225/253/177 227/254/177
f 226/255/178 224/256/178 222/257/178
f 227/258/179 226/259/179 223/260/179
f 228/261/180 232/262/180 234/263/180
f 233/264/181 231/265/181 229/266/181
f 234/267/182 233/268/182 230/269/182
f 235/270/183 239/271/183 241/272/183
f 240/273/184 238/274/184 236/275/184
f 241/276/185 240/273/185 237/277/185
f 242/278/186 246/279/186 248/280/186
f 247/281/187 245/282/187 243/283/187
f 248/284/188 247/281/188 244/285/188
f 249/286/189 253/287/189 255/288/189
f 254/289/190 252/290/190 250/291/190
f 255/292/191 254/289/191 251/293/191
f 256/294/192 260/295/192 262/296/192
f 261/297/193 259/298/193 257/299/193
f 262/300/194 261/297/194 258/301/194
f 263/302/195 267/303/195 269/304/195
f 268/305/196 266/306/196 264/293/196
f 269/307/197 268/305/197 265/308/197
f 270/309/198 274/310/198 276/311/198
f 275/312/199 273/313/199 271/314/199
f 276/315/200 275/312/200 272/316/200
f 277/317/201 281/318/201 283/319/201
f 282/320/202 280/321/202 278/322/202
f 283/323/203 282/320/203 279/324/203
f 284/325/204 288/326/204 290/327/204
f 289/328/205 287/329/205 285/330/205
f 290/331/206 289/328/206 286/332/206
f 291/333/207 295/334/207 297/335/207
f 296/336/208 294/337/208 292/338/208
f 297/339/209 296/336/209 293/340/209
f 298/341/210 302/342/210 304/343/210
f 303/344/211 301/345/211 299/346/211
f 304/347/212 303/344/212 300/348/212
f 305/349/213 309/350/213 311/351/213
f 310/352/214 308/353/214 306/340/214
f 311/354/215 310/352/215 307/355/215
f 312/356/216 316/357/216 318/358/216
f 317/359/217 315/360/217 313/361/217
f 318/362/218 317/359/218 314/363/218
f 319/364/219 323/365/219 325/366/219
f 324/367/220 322/368/220 320/369/220
f 325/370/221 324/367/221 321/371/221
f 326/372/222 330/373/222 332/374/222
f 331/375/223 329/376/223 327/377/223
f 332/378/224 331/375/224 328/379/224
f 333/380/225 337/381/225 339/382/225
f 338/383/226 336/384/226 334/371/226
f 339/385/227 338/383/227 335/386/227
f 340/387/228 344/388/228 346/389/228
f 345/390/229 343/391/229 341/392/229
f 346/393/230 345/390/230 342/394/230
f 223/260/231 238/274/231 227/258/231
f 238/395/232 221/252/232 227/254/232
f 244/285/233 231/265/233 248/284/233
f 231/396/234 242/278/234 248/280/234
f 230/269/235 226/255/235 222/257/235
f 233/264/236 223/260/236 226/259/236
f 243/283/237 240/273/237 247/281/237
f 247/281/238 236/275/238 244/285/238
f 237/277/239 252/290/239 241/276/239
f 241/272/240 249/286/240 235/270/240
f 258/301/241 245/282/241 262/300/241
f 262/296/242 242/278/242 256/294/242
f 251/293/243 261/297/243 257/299/243
f 254/289/244 258/301/244 261/297/244
f 251/293/245 266/306/245 255/292/245
f 266/397/246 249/286/246 255/288/246
f 257/299/247 276/315/247 272/316/247
f 276/311/248 256/294/248 270/309/248
f 265/308/249 275/312/249 271/314/249
f 275/312/250 264/293/250 272/316/250
f 265/308/251 280/321/251 269/307/251
f 280/398/252 263/302/252 269/304/252
f 271/314/253 290/331/253 286/332/253
f 273/399/254 284/325/254 290/327/254
f 285/330/255 282/320/255 289/328/255
f 282/320/256 286/332/256 289/328/256
f 279/324/257 294/337/257 283/323/257
f 294/400/258 277/317/258 283/319/258
f 285/330/259 304/347/259 300/348/259
f 304/343/260 284/325/260 298/341/260
f 299/346/261 296/336/261 303/344/261
f 296/336/262 300/348/262 303/344/262
f 306/340/114 297/339/114 293/340/114
f 297/335/263 305/349/263 291/333/263
f 299/346/264 318/362/264 314/363/264
f 301/401/265 312/356/265 318/358/265
f 313/361/266 310/352/266 317/359/266
f 317/359/267 306/340/267 314/363/267
f 307/355/268 322/368/268 311/354/268
f 311/351/269 319/364/269 305/349/269
f 313/361/270 332/378/270 328/379/270
f 315/402/271 326/372/271 332/374/271
f 327/377/272 324/367/272 331/375/272
f 324/367/273 328/379/273 331/375/273
f 321/371/274 336/384/274 325/370/274
f 336/403/275 319/364/275 325/366/275
f 327/377/276 346/393/276 342/394/276
f 329/404/277 340/387/277 346/389/277
f 335/386/278 345/390/278 341/392/278
f 345/390/279 334/371/279 342/394/279
f 335/386/280 224/256/280 339/385/280
f 339/382/281 221/252/281 333/380/281
f 341/392/282 234/267/282 230/269/282
f 343/405/283 228/261/283 234/263/283
f 235/270/284 291/333/284 319/364/284
f 223/260/114 244/285/114 236/275/114
f 335/386/174 230/269/174 222/257/174
f 228/261/285 298/341/285 270/309/285
f 237/277/114 258/301/114 250/291/114
f 251/293/114 272/316/114 264/293/114
f 265/308/114 286/332/114 278/322/114
f 279/324/114 300/348/114 292/338/114
f 293/340/114 314/363/114 306/340/114
f 307/355/286 328/379/286 320/369/286
f 321/371/114 342/394/114 334/371/114
f 347/406/287 360/407/287 359/408/287
f 348/409/288 360/410/288 362/411/288
f 347/412/289 359/413/289 364/414/289
f 347/415/290 364/416/290 366/417/290
f 347/418/291 366/419/291 363/420/291
f 348/409/292 362/411/292 369/421/292
f 349/422/293 361/423/293 371/424/293
f 350/425/294 365/426/294 373/427/294
f 351/428/295 367/429/295 375/430/295
f 352/431/296 368/432/296 377/433/296
f 348/409/297 369/421/297 372/434/297
f 349/422/298 371/424/298 374/435/298
f 350/425/299 373/427/299 376/436/299
f 351/428/300 375/430/300 378/437/300
f 352/431/301 377/433/301 370/438/301
f 353/439/302 379/440/302 384/441/302
f 354/442/303 380/443/303 386/444/303
f 355/445/304 381/446/304 387/447/304
f 356/448/305 382/449/305 388/450/305
f 357/451/306 383/452/306 385/453/306
f 385/453/307 388/454/307 358/455/307
f 385/453/308 383/452/308 388/454/308
f 383/452/309 356/448/309 388/454/309
f 388/450/310 387/456/310 358/457/310
f 388/450/311 382/449/311 387/456/311
f 382/449/312 355/445/312 387/456/312
f 387/447/313 386/458/313 358/459/313
f 387/447/314 381/446/314 386/458/314
f 381/446/315 354/460/315 386/458/315
f 386/444/316 384/461/316 358/462/316
f 386/444/317 380/443/317 384/461/317
f 380/443/318 353/439/318 384/461/318
f 384/441/319 385/463/319 358/464/319
f 384/441/320 379/440/320 385/463/320
f 379/440/321 357/451/321 385/463/321
f 370/438/322 383/452/322 357/451/322
f 370/438/323 377/433/323 383/452/323
f 377/433/324 356/448/324 383/452/324
f 378/437/325 382/449/325 356/448/325
f 378/437/326 375/430/326 382/449/326
f 375/430/327 355/445/327 382/449/327
f 376/436/328 381/446/328 355/445/328
f 376/436/329 373/427/329 381/446/329
f 373/427/330 354/460/330 381/446/330
f 374/435/331 380/443/331 354/442/331
f 374/435/332 371/424/332 380/443/332
f 371/424/333 353/439/333 380/443/333
f 372/434/334 379/440/334 353/439/334
f 372/434/335 369/421/335 379/440/335
f 369/421/336 357/451/336 379/440/336
f 377/433/337 378/437/337 356/448/337
f 377/433/338 368/432/338 378/437/338
f 368/432/339 351/428/339 378/437/339
f 375/430/340 376/436/340 355/445/340
f 375/430/341 367/429/341 376/436/341
f 367/429/342 350/425/342 376/436/342
f 373/427/343 374/465/343 354/460/343
f 373/427/344 365/426/344 374/465/344
f 365/426/345 349/466/345 374/465/345
f 371/424/346 372/434/346 353/439/346
f 371/424/347 361/423/347 372/434/347
f 361/423/348 348/409/348 372/434/348
f 369/421/349 370/438/349 357/451/349
f 369/421/350 362/411/350 370/438/350
f 362/411/351 352/431/351 370/438/351
f 363/420/352 368/432/352 352/431/352
f 363/420/353 366/419/353 368/432/353
f 366/419/354 351/428/354 368/432/354
f 366/417/355 367/429/355 351/428/355
f 366/417/356 364/416/356 367/429/356
f 364/416/357 350/425/357 367/429/357
f 364/414/358 365/426/358 350/425/358
f 364/414/359 359/413/359 365/426/359
f 359/413/360 349/466/360 365/426/360
f 362/411/361 363/467/361 352/431/361
f 362/411/362 360/410/362 363/467/362
f 360/410/363 347/468/363 363/467/363
f 359/408/364 361/423/364 349/422/364
f 359/408/365 360/407/365 361/423/365
f 360/407/366 348/409/366 361/423/366
f 389/406/367 402/407/367 401/408/367
f 390/409/368 402/410/368 404/411/368
f 389/412/369 401/413/369 406/414/369
f 389/415/370 406/416/370 408/417/370
f 389/418/371 408/419/371 405/420/371
f 390/409/372 404/411/372 411/421/372
f 391/422/373 403/423/373 413/424/373
f 392/425/374 407/426/374 415/427/374
f 393/428/375 409/429/375 417/430/375
f 394/431/376 410/432/376 419/433/376
f 390/409/377 411/421/377 414/434/377
f 391/422/378 413/424/378 416/435/378
f 392/425/379 415/427/379 418/436/379
f 393/428/380 417/430/380 420/437/380
f 394/431/381 419/433/381 412/438/381
f 395/439/382 421/440/382 426/441/382
f 396/442/383 422/443/383 428/444/383
f 397/445/384 423/446/384 429/447/384
f 398/448/385 424/449/385 430/450/385
f 399/451/386 425/452/386 427/453/386
f 427/453/387 430/454/387 400/455/387
f 427/453/388 425/452/388 430/454/388
f 425/452/389 398/448/389 430/454/389
f 430/450/390 429/456/390 400/457/390
f 430/450/391 424/449/391 429/456/391
f 424/449/392 397/445/392 429/456/392
f 429/447/393 428/458/393 400/459/393
f 429/447/394 423/446/394 428/458/394
f 423/446/395 396/460/395 428/458/395
f 428/444/396 426/461/396 400/462/396
f 428/444/397 422/443/397 426/461/397
f 422/443/398 395/439/398 426/461/398
f 426/441/399 427/463/399 400/464/399
f 426/441/400 421/440/400 427/463/400
f 421/440/401 399/451/401 427/463/401
f 412/438/402 425/452/402 399/451/402
f 412/438/403 419/433/403 425/452/403
f 419/433/404 398/448/404 425/452/404
f 420/437/405 424/449/405 398/448/405
f 420/437/406 417/430/406 424/449/406
f 417/430/407 397/445/407 424/449/407
f 418/436/408 423/446/408 397/445/408
f 418/436/409 415/427/409 423/446/409
f 415/427/410 396/460/410 423/446/410
f 416/435/411 422/443/411 396/442/411
f 416/435/412 413/424/412 422/443/412
f 413/424/413 395/439/413 422/443/413
f 414/434/414 421/440/414 395/439/414
f 414/434/415 411/421/415 421/440/415
f 411/421/416 399/451/416 421/440/416
f 419/433/417 420/437/417 398/448/417
f 419/433/418 410/432/418 420/437/418
f 410/432/419 393/428/419 420/437/419
f 417/430/420 418/436/420 397/445/420
f 417/430/421 409/429/421 418/436/421
f 409/429/422 392/425/422 418/436/422
f 415/427/423 416/465/423 396/460/423
f 415/427/424 407/426/424 416/465/424
f 407/426/425 391/466/425 416/465/425
f 413/424/426 414/434/426 395/439/426
f 413/424/427 403/423/427 414/434/427
f 403/423/428 390/409/428 414/434/428
f 411/421/429 412/438/429 399/451/429
f 411/421/430 404/411/430 412/438/430
f 404/411/431 394/431/431 412/438/431
f 405/420/432 410/432/432 394/431/432
f 405/420/433 408/419/433 410/432/433
f 408/419/434 393/428/434 410/432/434
f 408/417/435 409/429/435 393/428/435
f 408/417/436 406/416/436 409/429/436
f 406/416/437 392/425/437 409/429/437
f 406/414/438 407/426/438 392/425/438
f 406/414/439 401/413/439 407/426/439
f 401/413/440 391/466/440 407/426/440
f 404/411/441 405/467/441 394/431/441
f 404/411/442 402/410/442 405/467/442
f 402/410/443 389/468/443 405/467/443
f 401/408/444 403/423/444 391/422/444
f 401/408/445 402/407/445 403/423/445
f 402/407/446 390/409/446 403/423/446
f 1/1/1 5/469/1 6/2/1
f 6/4/2 4/57/2 2/5/2
f 8/7/3 9/470/3 12/8/3
f 12/8/4 9/470/4 7/10/4
f 14/12/5 15/471/5 18/13/5
f 18/13/6 15/471/6 13/15/6
f 20/17/7 21/472/7 24/18/7
f 24/18/8 21/472/8 19/20/8
f 26/22/9 27/473/9 30/23/9
f 30/23/10 27/473/10 25/25/10
f 32/27/11 33/474/11 36/28/11
f 36/28/12 33/474/12 31/30/12
f 38/32/13 39/475/13 42/33/13
f 42/33/14 39/475/14 37/35/14
f 44/37/15 45/476/15 48/38/15
f 48/38/16 45/476/16 43/40/16
f 50/42/17 51/477/17 54/43/17
f 54/43/18 51/477/18 49/45/18
f 56/47/19 57/478/19 60/48/19
f 60/48/20 57/478/20 55/50/20
f 62/52/21 63/479/21 66/53/21
f 66/53/22 63/479/22 61/55/22
f 4/57/447 11/11/447 7/10/447
f 64/54/448 5/469/448 1/1/448
f 8/7/449 10/9/449 17/16/449
f 16/14/26 23/21/26 19/20/26
f 22/19/27 29/26/27 25/25/27
f 26/22/450 28/24/450 35/31/450
f 34/29/29 41/36/29 37/35/29
f 40/34/30 47/41/30 43/40/30
f 44/37/31 46/39/31 53/46/31
f 50/42/451 52/44/451 59/51/451
f 56/47/452 58/49/452 65/56/452
f 67/58/453 70/250/453 71/59/453
f 72/61/454 71/480/454 70/62/454
f 73/64/455 71/481/455 72/65/455
f 74/67/456 77/236/456 78/68/456
f 79/70/457 78/482/457 77/71/457
f 80/73/458 78/483/458 79/74/458
f 81/76/459 84/235/459 85/77/459
f 86/79/460 85/484/460 84/80/460
f 87/81/461 85/484/461 86/79/461
f 88/83/462 91/238/462 92/84/462
f 93/86/463 92/485/463 91/87/463
f 94/89/464 92/485/464 93/86/464
f 95/91/465 98/237/465 99/92/465
f 100/94/466 99/486/466 98/95/466
f 101/97/467 99/486/467 100/94/467
f 102/99/468 105/239/468 106/100/468
f 107/102/469 106/487/469 105/103/469
f 108/105/470 106/487/470 107/102/470
f 109/107/471 112/488/471 113/108/471
f 114/110/472 113/489/472 112/111/472
f 115/113/473 113/489/473 114/110/473
f 116/115/474 119/241/474 120/116/474
f 121/118/475 120/490/475 119/119/475
f 122/121/476 120/490/476 121/118/476
f 123/123/477 126/240/477 127/124/477
f 128/126/478 127/491/478 126/127/478
f 129/129/479 127/491/479 128/126/479
f 130/131/480 133/243/480 134/132/480
f 135/134/481 134/492/481 133/135/481
f 136/137/482 134/492/482 135/134/482
f 137/139/483 140/242/483 141/140/483
f 142/142/484 141/493/484 140/143/484
f 143/145/485 141/493/485 142/142/485
f 144/147/486 147/245/486 148/148/486
f 149/150/487 148/494/487 147/151/487
f 150/153/488 148/494/488 149/150/488
f 151/155/489 154/244/489 155/156/489
f 156/158/490 155/495/490 154/159/490
f 157/161/491 155/495/491 156/158/491
f 158/163/492 161/247/492 162/164/492
f 163/166/493 162/496/493 161/167/493
f 164/169/494 162/496/494 163/166/494
f 165/171/495 168/246/495 169/172/495
f 170/174/496 169/497/496 168/175/496
f 171/177/497 169/497/497 170/174/497
f 172/179/498 175/498/498 176/180/498
f 177/182/499 176/499/499 175/183/499
f 178/185/500 176/499/500 177/182/500
f 179/187/501 182/500/501 183/188/501
f 184/190/502 183/501/502 182/191/502
f 185/193/503 183/501/503 184/190/503
f 186/195/504 189/248/504 190/196/504
f 191/198/505 190/502/505 189/199/505
f 192/201/506 190/502/506 191/198/506
f 193/203/507 196/503/507 197/204/507
f 198/206/508 197/504/508 196/207/508
f 199/209/509 197/504/509 198/206/509
f 200/211/510 203/249/510 204/212/510
f 205/214/511 204/505/511 203/215/511
f 206/217/512 204/505/512 205/214/512
f 207/219/513 210/506/513 211/220/513
f 212/222/514 211/507/514 210/223/514
f 213/225/515 211/507/515 212/222/515
f 214/227/516 217/251/516 218/228/516
f 219/230/517 218/508/517 217/231/517
f 220/233/518 218/508/518 219/230/518
f 69/66/519 82/66/519 84/80/519
f 84/235/520 81/76/520 67/58/520
f 90/90/102 75/72/102 77/71/102
f 77/236/103 74/67/103 88/83/103
f 68/63/104 76/75/104 79/74/104
f 79/70/105 75/72/105 69/66/105
f 89/88/106 83/82/106 86/79/106
f 86/79/107 82/66/107 90/90/107
f 83/82/114 96/96/114 98/95/114
f 98/237/109 95/91/109 81/76/109
f 89/88/110 91/87/110 108/105/110
f 91/238/111 88/83/111 102/99/111
f 103/104/112 97/98/112 100/94/112
f 107/102/113 100/94/113 96/96/113
f 110/112/521 112/111/521 101/97/521
f 101/93/115 112/488/115 109/107/115
f 103/104/116 105/103/116 122/121/116
f 105/239/117 102/99/117 116/115/117
f 111/114/118 114/110/118 121/118/118
f 114/110/119 110/112/119 118/122/119
f 124/128/522 126/127/522 115/113/522
f 126/240/121 123/123/121 109/107/121
f 117/120/122 119/119/122 136/137/122
f 119/241/123 116/115/123 130/131/123
f 125/130/124 128/126/124 135/134/124
f 135/134/125 128/126/125 124/128/125
f 125/130/523 138/144/523 140/143/523
f 140/242/127 137/139/127 123/123/127
f 131/136/128 133/135/128 150/153/128
f 133/243/129 130/131/129 144/147/129
f 139/146/130 142/142/130 149/150/130
f 149/150/131 142/142/131 138/144/131
f 139/146/286 152/160/286 154/159/286
f 154/244/133 151/155/133 137/139/133
f 145/152/134 147/151/134 164/169/134
f 147/245/135 144/147/135 158/163/135
f 153/162/136 156/158/136 163/166/136
f 163/166/137 156/158/137 152/160/137
f 153/162/170 166/176/170 168/175/170
f 168/246/139 165/171/139 151/155/139
f 159/168/140 161/167/140 178/185/140
f 161/247/141 158/163/141 172/179/141
f 167/178/142 170/174/142 177/182/142
f 170/174/143 166/176/143 174/186/143
f 167/178/524 180/192/524 182/191/524
f 171/173/145 182/500/145 179/187/145
f 188/202/146 173/184/146 175/183/146
f 192/197/147 175/498/147 172/179/147
f 181/194/148 184/190/148 191/198/148
f 191/198/149 184/190/149 180/192/149
f 181/194/176 194/208/176 196/207/176
f 185/189/151 196/503/151 193/203/151
f 187/200/152 189/199/152 206/217/152
f 189/248/153 186/195/153 200/211/153
f 195/210/154 198/206/154 205/214/154
f 198/206/155 194/208/155 202/218/155
f 195/210/114 208/224/114 210/223/114
f 199/205/157 210/506/157 207/219/157
f 201/216/158 203/215/158 220/233/158
f 203/249/159 200/211/159 214/227/159
f 215/232/160 209/226/160 212/222/160
f 212/222/161 208/224/161 216/234/161
f 209/226/170 68/63/170 70/62/170
f 70/250/163 67/58/163 207/219/163
f 215/232/164 217/231/164 80/73/164
f 217/251/165 214/227/165 74/67/165
f 207/219/166 67/58/166 81/76/166
f 81/76/166 95/91/166 109/107/166
f 109/107/166 123/123/166 137/139/166
f 137/139/166 151/155/166 165/171/166
f 165/171/166 179/187/166 193/203/166
f 193/203/166 207/219/166 81/76/166
f 81/76/166 109/107/166 137/139/166
f 137/139/166 165/171/166 193/203/166
f 69/66/525 75/72/525 90/90/525
f 215/232/526 76/75/526 68/63/526
f 102/99/169 88/83/169 74/67/169
f 74/67/169 214/227/169 200/211/169
f 200/211/169 186/195/169 172/179/169
f 172/179/169 158/163/169 144/147/169
f 144/147/169 130/131/169 116/115/169
f 116/115/169 102/99/169 74/67/169
f 74/67/169 200/211/169 172/179/169
f 172/179/169 144/147/169 116/115/169
f 83/82/527 89/88/527 104/106/527
f 97/98/528 103/104/528 118/122/528
f 111/114/529 117/120/529 132/138/529
f 125/130/530 131/136/530 146/154/530
f 145/152/531 160/170/531 152/160/531
f 153/162/532 159/168/532 174/186/532
f 173/184/533 188/202/533 180/192/533
f 181/194/534 187/200/534 202/218/534
f 195/210/535 201/216/535 216/234/535
f 221/252/536 224/509/536 225/253/536
f 226/255/537 225/510/537 224/256/537
f 227/258/538 225/511/538 226/259/538
f 228/261/539 231/396/539 232/262/539
f 233/264/540 232/512/540 231/265/540
f 234/267/541 232/513/541 233/268/541
f 235/270/542 238/395/542 239/271/542
f 240/273/543 239/514/543 238/274/543
f 241/276/544 239/514/544 240/273/544
f 242/278/545 245/515/545 246/279/545
f 247/281/546 246/516/546 245/282/546
f 248/284/547 246/516/547 247/281/547
f 249/286/548 252/517/548 253/287/548
f 254/289/549 253/518/549 252/290/549
f 255/292/550 253/518/550 254/289/550
f 256/294/551 259/519/551 260/295/551
f 261/297/552 260/520/552 259/298/552
f 262/300/553 260/520/553 261/297/553
f 263/302/554 266/397/554 267/303/554
f 268/305/555 267/521/555 266/306/555
f 269/307/556 267/521/556 268/305/556
f 270/309/557 273/399/557 274/310/557
f 275/312/558 274/522/558 273/313/558
f 276/315/559 274/522/559 275/312/559
f 277/317/560 280/398/560 281/318/560
f 282/320/561 281/523/561 280/321/561
f 283/323/562 281/523/562 282/320/562
f 284/325/563 287/524/563 288/326/563
f 289/328/564 288/525/564 287/329/564
f 290/331/565 288/525/565 289/328/565
f 291/333/566 294/400/566 295/334/566
f 296/336/567 295/526/567 294/337/567
f 297/339/568 295/526/568 296/336/568
f 298/341/569 301/401/569 302/342/569
f 303/344/570 302/527/570 301/345/570
f 304/347/571 302/527/571 303/344/571
f 305/349/572 308/528/572 309/350/572
f 310/352/573 309/529/573 308/353/573
f 311/354/574 309/529/574 310/352/574
f 312/356/575 315/402/575 316/357/575
f 317/359/576 316/530/576 315/360/576
f 318/362/577 316/530/577 317/359/577
f 319/364/578 322/531/578 323/365/578
f 324/367/579 323/532/579 322/368/579
f 325/370/580 323/532/580 324/367/580
f 326/372/581 329/404/581 330/373/581
f 331/375/582 330/533/582 329/376/582
f 332/378/583 330/533/583 331/375/583
f 333/380/584 336/403/584 337/381/584
f 338/383/585 337/534/585 336/384/585
f 339/385/586 337/534/586 338/383/586
f 340/387/587 343/405/587 344/388/587
f 345/390/588 344/535/588 343/391/588
f 346/393/589 344/535/589 345/390/589
f 223/260/114 236/275/114 238/274/114
f 238/395/232 235/270/232 221/252/232
f 244/285/233 229/266/233 231/265/233
f 231/396/234 228/261/234 242/278/234
f 230/269/235 233/268/235 226/255/235
f 233/264/236 229/266/236 223/260/236
f 243/283/237 237/277/237 240/273/237
f 247/281/238 240/273/238 236/275/238
f 237/277/114 250/291/114 252/290/114
f 241/272/240 252/517/240 249/286/240
f 258/301/241 243/283/241 245/282/241
f 262/296/242 245/515/242 242/278/242
f 251/293/243 254/289/243 261/297/243
f 254/289/244 250/291/244 258/301/244
f 251/293/590 264/293/590 266/306/590
f 266/397/246 263/302/246 249/286/246
f 257/299/247 259/298/247 276/315/247
f 276/311/591 259/519/591 256/294/591
f 265/308/249 268/305/249 275/312/249
f 275/312/250 268/305/250 264/293/250
f 265/308/114 278/322/114 280/321/114
f 280/398/252 277/317/252 263/302/252
f 271/314/253 273/313/253 290/331/253
f 273/399/254 270/309/254 284/325/254
f 285/330/255 279/324/255 282/320/255
f 282/320/256 278/322/256 286/332/256
f 279/324/114 292/338/114 294/337/114
f 294/400/258 291/333/258 277/317/258
f 285/330/259 287/329/259 304/347/259
f 304/343/260 287/524/260 284/325/260
f 299/346/261 293/340/261 296/336/261
f 296/336/262 292/338/262 300/348/262
f 306/340/592 308/353/592 297/339/592
f 297/335/263 308/528/263 305/349/263
f 299/346/593 301/345/593 318/362/593
f 301/401/265 298/341/265 312/356/265
f 313/361/266 307/355/266 310/352/266
f 317/359/267 310/352/267 306/340/267
f 307/355/594 320/369/594 322/368/594
f 311/351/269 322/531/269 319/364/269
f 313/361/270 315/360/270 332/378/270
f 315/402/271 312/356/271 326/372/271
f 327/377/272 321/371/272 324/367/272
f 324/367/273 320/369/273 328/379/273
f 321/371/114 334/371/114 336/384/114
f 336/403/595 333/380/595 319/364/595
f 327/377/276 329/376/276 346/393/276
f 329/404/277 326/372/277 340/387/277
f 335/386/278 338/383/278 345/390/278
f 345/390/279 338/383/279 334/371/279
f 335/386/114 222/257/114 224/256/114
f 339/382/281 224/509/281 221/252/281
f 341/392/596 343/391/596 234/267/596
f 343/405/283 340/387/283 228/261/283
f 333/380/284 221/252/284 235/270/284
f 235/270/284 249/286/284 263/302/284
f 263/302/284 277/317/284 291/333/284
f 291/333/284 305/349/284 319/364/284
f 319/364/284 333/380/284 235/270/284
f 235/270/284 263/302/284 291/333/284
f 223/260/597 229/266/597 244/285/597
f 335/386/598 341/392/598 230/269/598
f 256/294/285 242/278/285 228/261/285
f 228/261/285 340/387/285 326/372/285
f 326/372/285 312/356/285 298/341/285
f 298/341/285 284/325/285 270/309/285
f 270/309/285 256/294/285 228/261/285
f 228/261/285 326/372/285 298/341/285
f 237/277/599 243/283/599 258/301/599
f 251/293/600 257/299/600 272/316/600
f 265/308/601 271/314/601 286/332/601
f 279/324/602 285/330/602 300/348/602
f 293/340/603 299/346/603 314/363/603
f 307/355/604 313/361/604 328/379/604
f 321/371/605 327/377/605 342/394/605
