# Blender 4.5.10 LTS
# www.blender.org
mtllib grove_heartwood_lantern.mtl
o grove_heartwood_lantern
v 0.013172 -0.105000 0.113206
v -0.013172 -0.105000 0.113206
v 0.000000 -0.105000 0.115192
v -0.013172 0.045000 0.091206
v 0.013172 0.045000 0.091206
v 0.000000 0.045000 0.093192
v -0.062677 -0.105000 0.095187
v -0.082858 -0.105000 0.078254
v -0.074044 -0.105000 0.088242
v -0.068716 0.045000 0.061401
v -0.048536 0.045000 0.078334
v -0.059902 0.045000 0.071389
v -0.109199 -0.105000 0.032630
v -0.113773 -0.105000 0.006686
v -0.113442 -0.105000 0.020003
v -0.092107 0.045000 0.002866
v -0.087533 0.045000 0.028810
v -0.091776 0.045000 0.016183
v -0.104625 -0.105000 -0.045196
v -0.091453 -0.105000 -0.068010
v -0.099759 -0.105000 -0.057596
v -0.072401 0.045000 -0.057010
v -0.085573 0.045000 -0.034196
v -0.080706 0.045000 -0.046596
v -0.051096 -0.105000 -0.101874
v -0.026341 -0.105000 -0.110884
v -0.039398 -0.105000 -0.108245
v -0.018817 0.045000 -0.090210
v -0.043572 0.045000 -0.081200
v -0.031873 0.045000 -0.087571
v 0.026341 -0.105000 -0.110884
v 0.051096 -0.105000 -0.101874
v 0.039398 -0.105000 -0.108245
v 0.043572 0.045000 -0.081200
v 0.018817 0.045000 -0.090210
v 0.031873 0.045000 -0.087571
v 0.091453 -0.105000 -0.068010
v 0.104625 -0.105000 -0.045196
v 0.099759 -0.105000 -0.057596
v 0.085573 0.045000 -0.034196
v 0.072401 0.045000 -0.057010
v 0.080706 0.045000 -0.046596
v 0.113773 -0.105000 0.006686
v 0.109199 -0.105000 0.032630
v 0.113442 -0.105000 0.020003
v 0.087533 0.045000 0.028810
v 0.092107 0.045000 0.002866
v 0.091776 0.045000 0.016183
v 0.082858 -0.105000 0.078254
v 0.062677 -0.105000 0.095187
v 0.074044 -0.105000 0.088242
v 0.048536 0.045000 0.078334
v 0.068716 0.045000 0.061401
v 0.059902 0.045000 0.071389
v 0.008003 -0.150409 0.005946
v -0.071933 -0.120018 -0.052074
v 0.038036 -0.119259 -0.087902
v 0.106084 -0.117855 0.005612
v 0.038170 -0.117746 0.099235
v -0.071850 -0.119084 0.063582
v -0.023255 -0.068681 -0.088267
v 0.086765 -0.067343 -0.052614
v 0.086849 -0.066408 0.063042
v -0.023120 -0.067168 0.098870
v -0.091169 -0.068572 0.005356
v 0.006912 -0.036018 0.005022
v 0.025752 -0.142141 -0.049135
v -0.038886 -0.142588 -0.028076
v -0.021234 -0.124278 -0.083238
v -0.085822 -0.124175 0.005801
v -0.038837 -0.142038 0.039904
v 0.065749 -0.141316 0.005831
v 0.083402 -0.123006 -0.049331
v 0.025831 -0.141252 0.060860
v 0.083482 -0.122117 0.060664
v -0.021106 -0.122840 0.094738
v -0.097178 -0.094485 -0.028423
v -0.097129 -0.093936 0.039558
v 0.007379 -0.094103 -0.104512
v -0.057260 -0.094549 -0.083453
v 0.112045 -0.092491 -0.028590
v 0.072047 -0.093317 -0.083556
v 0.072175 -0.091878 0.094421
v 0.112094 -0.091942 0.039391
v -0.057132 -0.093110 0.094525
v 0.007537 -0.092324 0.115480
v -0.068566 -0.064310 -0.049696
v 0.036021 -0.063587 -0.083770
v 0.100738 -0.062252 0.005167
v 0.036149 -0.062149 0.094207
v -0.068487 -0.063421 0.060299
v -0.010915 -0.045175 -0.049892
v -0.050834 -0.045111 0.005137
v 0.053753 -0.044389 -0.028936
v 0.053802 -0.043839 0.039044
v -0.010836 -0.044286 0.060103
v -0.004629 -0.040278 -0.005631
v -0.063265 0.013904 -0.048831
v 0.018644 0.012510 -0.075716
v 0.069528 0.012073 -0.006113
v 0.019066 0.013197 0.063788
v -0.063004 0.014329 0.037387
v -0.025346 0.099743 -0.076012
v 0.056724 0.098611 -0.049611
v 0.056985 0.099035 0.036607
v -0.024924 0.100429 0.063492
v -0.075808 0.100866 -0.006111
v -0.001651 0.153217 -0.006593
v 0.008789 -0.026236 -0.046741
v -0.039355 -0.025416 -0.030939
v -0.025676 0.005612 -0.072134
v -0.073667 0.006681 -0.005654
v -0.039202 -0.025167 0.019738
v 0.038698 -0.026493 -0.005830
v 0.052378 0.004535 -0.047025
v 0.009037 -0.025832 0.035256
v 0.052626 0.004939 0.034973
v -0.025275 0.006265 0.060542
v -0.081194 0.057546 -0.031221
v -0.081040 0.057796 0.019456
v -0.003388 0.056066 -0.088111
v -0.051533 0.056886 -0.072308
v 0.074761 0.055144 -0.031681
v 0.044852 0.055401 -0.072593
v 0.045253 0.056054 0.060084
v 0.074914 0.055393 0.018997
v -0.051132 0.057539 0.060368
v -0.002892 0.056873 0.075886
v -0.058906 0.108001 -0.047198
v 0.018995 0.106675 -0.072766
v 0.067388 0.106259 -0.006571
v 0.019396 0.107328 0.059909
v -0.058658 0.108404 0.034801
v -0.015317 0.138772 -0.047481
v -0.044978 0.139432 -0.006394
v 0.032922 0.138106 -0.031962
v 0.033076 0.138356 0.018715
v -0.015069 0.139175 0.034517
v 0.111403 -0.006783 -0.009804
v 0.111093 -0.004979 -0.010178
v 0.111459 -0.004923 -0.009739
v 0.111320 -0.006249 -0.010087
v 0.111497 -0.005978 -0.010015
v 0.111360 -0.004934 -0.010041
v 0.111579 -0.006209 -0.009777
v 0.088293 0.119268 -0.007071
v 0.087945 0.121044 -0.006606
v 0.088659 0.119324 -0.006631
v 0.088055 0.120529 -0.006916
v 0.088317 0.120336 -0.006856
v 0.088314 0.120569 -0.006606
v 0.088559 0.119313 -0.006934
v 0.110090 -0.007752 0.019311
v 0.110147 -0.005892 0.019375
v 0.109743 -0.005976 0.019775
v 0.110266 -0.007178 0.019338
v 0.110163 -0.006963 0.019583
v 0.110021 -0.005922 0.019666
v 0.109981 -0.007237 0.019620
v 0.086633 0.120074 0.022508
v 0.086942 0.118271 0.022882
v 0.087346 0.118355 0.022483
v 0.086715 0.119540 0.022791
v 0.086983 0.119351 0.022742
v 0.087220 0.118325 0.022774
v 0.087001 0.119600 0.022509
v 0.084661 -0.011656 -0.011171
v 0.083948 -0.009936 -0.011146
v 0.084352 -0.009852 -0.011546
v 0.084293 -0.011181 -0.011172
v 0.084311 -0.010932 -0.011406
v 0.084074 -0.009906 -0.011437
v 0.084579 -0.011122 -0.011455
v 0.061204 0.116170 -0.007974
v 0.061551 0.114395 -0.008438
v 0.061147 0.114311 -0.008039
v 0.061314 0.115656 -0.008284
v 0.061131 0.115382 -0.008247
v 0.061273 0.114341 -0.008329
v 0.061028 0.115597 -0.008001
v 0.083349 -0.012625 0.017943
v 0.083002 -0.010849 0.018407
v 0.082635 -0.010905 0.017968
v 0.083239 -0.012111 0.018252
v 0.082977 -0.011917 0.018193
v 0.082735 -0.010895 0.018270
v 0.082980 -0.012150 0.017942
v 0.059891 0.115201 0.021140
v 0.059835 0.113342 0.021076
v 0.060201 0.113398 0.021515
v 0.059715 0.114628 0.021113
v 0.059797 0.114396 0.021352
v 0.059934 0.113352 0.021378
v 0.059974 0.114667 0.021423
v -0.092666 -0.007502 -0.002979
v -0.092226 -0.005745 -0.003435
v -0.091846 -0.005831 -0.003013
v -0.092537 -0.006991 -0.003286
v -0.092260 -0.006816 -0.003235
v -0.091957 -0.005810 -0.003310
v -0.092268 -0.007052 -0.002988
v -0.061686 0.116843 -0.005936
v -0.061246 0.118618 -0.005552
v -0.061306 0.116757 -0.005514
v -0.061375 0.118094 -0.005838
v -0.061212 0.117812 -0.005778
v -0.061106 0.118033 -0.005540
v -0.061417 0.116779 -0.005811
v -0.092679 -0.006904 0.026175
v -0.091859 -0.005233 0.026141
v -0.092240 -0.005130 0.026559
v -0.092282 -0.006454 0.026166
v -0.092274 -0.006207 0.026403
v -0.091971 -0.005199 0.026437
v -0.092551 -0.006381 0.026461
v -0.061260 0.119216 0.023602
v -0.061700 0.117459 0.024058
v -0.061319 0.117355 0.023640
v -0.061389 0.118705 0.023909
v -0.061226 0.118420 0.023861
v -0.061431 0.117389 0.023936
v -0.061120 0.118632 0.023614
v -0.119075 -0.000926 -0.003126
v -0.119015 0.000934 -0.003164
v -0.118635 0.000831 -0.003582
v -0.119215 -0.000342 -0.003138
v -0.119109 -0.000130 -0.003385
v -0.118904 0.000901 -0.003460
v -0.118946 -0.000415 -0.003433
v -0.087655 0.125194 -0.005699
v -0.088095 0.123419 -0.006083
v -0.088476 0.123523 -0.005665
v -0.087784 0.124671 -0.005985
v -0.088061 0.124497 -0.005927
v -0.088364 0.123489 -0.005961
v -0.088053 0.124744 -0.005690
v -0.119088 -0.000328 0.026028
v -0.118649 0.001447 0.026412
v -0.119029 0.001533 0.025990
v -0.118960 0.000195 0.026314
v -0.119122 0.000478 0.026254
v -0.118918 0.001511 0.026287
v -0.119229 0.000256 0.026016
v -0.087669 0.125792 0.023455
v -0.088489 0.124121 0.023489
v -0.088109 0.124035 0.023911
v -0.088067 0.125342 0.023464
v -0.088074 0.125105 0.023711
v -0.088378 0.124099 0.023786
v -0.087798 0.125281 0.023762
vn 0.1475 0.1435 0.9786
vn -0.1475 0.1435 0.9786
vn -0.7420 0.1435 0.6548
vn -0.5160 0.1435 0.8445
vn -0.9893 0.1435 0.0246
vn -0.9381 0.1435 0.3152
vn -0.7737 0.1435 -0.6171
vn -0.9212 0.1435 -0.3615
vn -0.1961 0.1435 -0.9700
vn -0.4733 0.1435 -0.8691
vn 0.4733 0.1435 -0.8691
vn 0.1961 0.1435 -0.9700
vn 0.9212 0.1435 -0.3615
vn 0.7737 0.1435 -0.6171
vn 0.9381 0.1435 0.3152
vn 0.9893 0.1435 0.0246
vn 0.5160 0.1435 0.8445
vn 0.7420 0.1435 0.6548
vn -0.3388 0.1365 0.9309
vn 0.3388 0.1365 0.9309
vn -0.8579 0.1365 0.4953
vn -0.9756 0.1365 -0.1720
vn -0.6368 0.1365 -0.7589
vn -0.0000 0.1365 -0.9906
vn 0.6368 0.1365 -0.7589
vn 0.9756 0.1365 -0.1720
vn 0.8579 0.1365 0.4953
vn -0.0462 -0.9856 -0.1628
vn -0.4660 -0.8675 -0.1741
vn 0.1546 -0.9831 -0.0977
vn 0.1548 -0.9814 0.1134
vn -0.0460 -0.9828 0.1788
vn -0.7902 -0.5679 -0.2304
vn -0.0170 -0.5653 -0.8247
vn 0.7871 -0.5532 -0.2730
vn 0.5108 -0.5482 0.6622
vn -0.4640 -0.5573 0.6885
vn -0.7842 -0.2487 -0.5685
vn 0.3018 -0.2412 -0.9223
vn 0.9738 -0.2273 0.0011
vn 0.3032 -0.2263 0.9257
vn -0.7833 -0.2395 0.5736
vn -0.2854 0.8554 -0.4322
vn 0.3106 0.8613 -0.4020
vn 0.4660 0.8675 0.1741
vn -0.0339 0.8653 0.5000
vn -0.4983 0.8579 0.1253
vn -0.1546 0.9831 0.0977
vn -0.3074 0.9282 0.2097
vn -0.2848 0.8623 0.4187
vn 0.0462 0.9856 0.1628
vn 0.1055 0.9332 0.3435
vn 0.3112 0.8677 0.3876
vn 0.1702 0.9854 -0.0081
vn 0.3603 0.9328 -0.0078
vn 0.4657 0.8646 -0.1888
vn 0.0460 0.9828 -0.1788
vn 0.1050 0.9275 -0.3587
vn -0.0347 0.8572 -0.5139
vn -0.1548 0.9814 -0.1134
vn -0.3077 0.9247 -0.2243
vn -0.4985 0.8558 -0.1384
vn -0.7871 0.5532 0.2730
vn -0.7623 0.3420 0.5495
vn -0.5099 0.5589 0.6540
vn 0.0170 0.5653 0.8247
vn 0.2874 0.3547 0.8897
vn 0.4650 0.5684 0.6788
vn 0.7902 0.5679 0.2304
vn 0.9354 0.3537 -0.0035
vn 0.7899 0.5641 -0.2407
vn 0.4640 0.5573 -0.6885
vn 0.2861 0.3403 -0.8957
vn 0.0158 0.5519 -0.8338
vn -0.5108 0.5482 -0.6622
vn -0.7631 0.3330 -0.5539
vn -0.7875 0.5487 -0.2808
vn -0.3018 0.2412 0.9223
vn -0.2861 -0.3403 0.8957
vn -0.0158 -0.5519 0.8338
vn 0.7842 0.2487 0.5685
vn 0.7631 -0.3330 0.5539
vn 0.7875 -0.5487 0.2808
vn 0.7833 0.2395 -0.5736
vn 0.7623 -0.3420 -0.5495
vn 0.5099 -0.5589 -0.6540
vn -0.3032 0.2263 -0.9257
vn -0.2874 -0.3547 -0.8897
vn -0.4650 -0.5684 -0.6788
vn -0.9738 0.2273 -0.0011
vn -0.9354 -0.3537 0.0035
vn -0.7899 -0.5641 0.2407
vn -0.3106 -0.8613 0.4020
vn -0.1050 -0.9275 0.3587
vn 0.0347 -0.8572 0.5139
vn 0.2854 -0.8554 0.4322
vn 0.3077 -0.9247 0.2243
vn 0.4985 -0.8558 0.1384
vn 0.4983 -0.8579 -0.1253
vn 0.3074 -0.9282 -0.2097
vn 0.2848 -0.8623 -0.4187
vn -0.4657 -0.8646 0.1888
vn -0.3603 -0.9328 0.0078
vn -0.1702 -0.9854 0.0081
vn 0.0339 -0.8653 -0.5000
vn -0.1055 -0.9332 -0.3435
vn -0.3112 -0.8677 -0.3876
vn -0.1336 -0.9237 -0.3591
vn -0.7579 -0.5887 -0.2811
vn 0.2947 -0.9296 -0.2213
vn 0.2961 -0.9274 0.2287
vn -0.1314 -0.9201 0.3690
vn -0.9243 -0.2715 -0.2681
vn -0.0324 -0.2887 -0.9569
vn 0.8982 -0.2999 -0.3213
vn 0.5815 -0.2896 0.7603
vn -0.5449 -0.2721 0.7931
vn -0.8077 -0.0972 -0.5815
vn 0.3027 -0.1161 -0.9460
vn 0.9925 -0.1220 -0.0024
vn 0.3084 -0.1068 0.9452
vn -0.8042 -0.0914 0.5873
vn -0.4295 0.6023 -0.6729
vn 0.5106 0.5880 -0.6273
vn 0.7579 0.5887 0.2811
vn -0.0295 0.6034 0.7969
vn -0.7634 0.6118 0.2073
vn -0.2947 0.9296 0.2213
vn -0.5290 0.7529 0.3915
vn -0.4255 0.6089 0.6695
vn 0.1336 0.9237 0.3591
vn 0.2202 0.7426 0.6325
vn 0.5144 0.5942 0.6183
vn 0.3970 0.9178 -0.0057
vn 0.6809 0.7324 -0.0057
vn 0.7561 0.5859 -0.2915
vn 0.1314 0.9201 -0.3690
vn 0.2164 0.7363 -0.6411
vn -0.0344 0.5955 -0.8026
vn -0.2961 0.9274 -0.2287
vn -0.5314 0.7491 -0.3956
vn -0.7646 0.6097 -0.2087
vn -0.8982 0.2999 0.3213
vn -0.7943 0.1749 0.5818
vn -0.5769 0.2971 0.7609
vn 0.0324 0.2887 0.9569
vn 0.3103 0.1597 0.9371
vn 0.5497 0.2799 0.7871
vn 0.9243 0.2715 0.2681
vn 0.9895 0.1446 -0.0037
vn 0.9227 0.2689 -0.2764
vn 0.5449 0.2721 -0.7931
vn 0.3046 0.1504 -0.9405
vn 0.0266 0.2793 -0.9598
vn -0.5815 0.2896 -0.7603
vn -0.7978 0.1692 -0.5787
vn -0.9002 0.2967 -0.3188
vn -0.3027 0.1161 0.9460
vn -0.3046 -0.1504 0.9405
vn -0.0266 -0.2793 0.9598
vn 0.8077 0.0972 0.5815
vn 0.7978 -0.1692 0.5787
vn 0.9002 -0.2967 0.3188
vn 0.8042 0.0914 -0.5873
vn 0.7943 -0.1749 -0.5818
vn 0.5769 -0.2971 -0.7609
vn -0.3084 0.1068 -0.9452
vn -0.3103 -0.1597 -0.9371
vn -0.5497 -0.2799 -0.7871
vn -0.9925 0.1220 0.0024
vn -0.9895 -0.1446 0.0037
vn -0.9227 -0.2689 0.2764
vn -0.5106 -0.5880 0.6273
vn -0.2164 -0.7363 0.6411
vn 0.0343 -0.5955 0.8026
vn 0.4295 -0.6023 0.6729
vn 0.5314 -0.7491 0.3956
vn 0.7646 -0.6097 0.2087
vn 0.7634 -0.6118 -0.2073
vn 0.5290 -0.7529 -0.3915
vn 0.4255 -0.6089 -0.6695
vn -0.7561 -0.5859 0.2915
vn -0.6809 -0.7324 0.0057
vn -0.3970 -0.9178 0.0057
vn 0.0295 -0.6034 -0.7969
vn -0.2202 -0.7426 -0.6325
vn -0.5144 -0.5942 -0.6183
vn 0.7643 -0.2058 -0.6112
vn 0.3742 0.0002 -0.9274
vn 0.9423 0.1160 -0.3140
vn 0.4267 0.1686 -0.8886
vn 0.6360 0.4929 -0.5937
vn 0.9359 0.2643 -0.2328
vn 0.7068 -0.2482 0.6624
vn 0.9412 0.0778 0.3288
vn 0.3687 -0.0236 0.9292
vn 0.5786 0.4505 0.6799
vn 0.2568 0.1148 0.9596
vn 0.8869 0.2174 0.4076
vn -0.5786 -0.4505 -0.6799
vn -0.9104 -0.2454 -0.3330
vn -0.3446 -0.1079 -0.9325
vn -0.7068 0.2482 -0.6624
vn -0.2893 0.0625 -0.9552
vn -0.9099 -0.0921 -0.4045
vn -0.6360 -0.4929 0.5937
vn -0.3416 -0.1774 0.9229
vn -0.9193 -0.2413 0.3110
vn -0.7642 0.2058 0.6112
vn -0.9667 -0.0967 0.2370
vn -0.4508 -0.0370 0.8919
vn 0.9550 -0.2948 0.0332
vn 0.9947 0.0910 0.0479
vn 0.4397 0.1030 -0.8922
vn 0.9327 0.1790 -0.3132
vn 0.7885 0.6125 0.0559
vn 0.9626 0.2657 0.0522
vn 0.3574 0.0423 0.9330
vn 0.9002 0.1550 0.4069
vn 0.0485 -0.5076 0.8602
vn -0.0276 -0.1266 0.9916
vn -0.1271 0.4495 0.8842
vn -0.0620 0.0605 0.9962
vn -0.9327 -0.1790 0.3131
vn -0.4397 -0.1030 0.8922
vn -0.7885 -0.6125 -0.0559
vn -0.9626 -0.2657 -0.0522
vn -0.9550 0.2948 -0.0332
vn -0.9947 -0.0910 -0.0479
vn -0.3574 -0.0423 -0.9330
vn -0.9002 -0.1550 -0.4069
vn 0.1271 -0.4495 -0.8842
vn 0.0620 -0.0605 -0.9962
vn -0.0485 0.5076 -0.8602
vn 0.0276 0.1266 -0.9916
vn 0.1804 -0.9833 -0.0246
vn 0.9826 0.1791 0.0503
vn 0.0450 0.0332 -0.9984
vn -0.1804 0.9833 0.0246
vn -0.0450 -0.0332 0.9984
vn -0.9826 -0.1791 -0.0503
vn 0.5775 -0.5229 -0.6269
vn 0.2902 -0.1843 -0.9391
vn 0.8880 -0.2941 -0.3535
vn 0.4093 -0.0516 -0.9109
vn 0.7492 0.1665 -0.6410
vn 0.9476 -0.1539 -0.2798
vn 0.5769 -0.4968 0.6484
vn 0.9062 -0.3077 0.2901
vn 0.3762 -0.1440 0.9153
vn 0.7487 0.1927 0.6343
vn 0.3329 0.0292 0.9425
vn 0.9185 -0.1557 0.3636
vn -0.7487 -0.1927 -0.6343
vn -0.9474 0.1423 -0.2868
vn -0.4085 0.0142 -0.9127
vn -0.5769 0.4968 -0.6484
vn -0.2893 0.1457 -0.9461
vn -0.8877 0.2794 -0.3661
vn -0.7492 -0.1665 0.6410
vn -0.3338 0.0095 0.9426
vn -0.9188 0.1705 0.3561
vn -0.5775 0.5229 0.6269
vn -0.9064 0.3193 0.2765
vn -0.3770 0.1814 0.9083
vn 0.7494 -0.6620 0.0139
vn 0.9450 -0.3269 0.0071
vn 0.3940 -0.1168 -0.9116
vn 0.9052 -0.2328 -0.3555
vn 0.9724 0.2332 -0.0043
vn 0.9880 -0.1545 0.0036
vn 0.3932 -0.0793 0.9160
vn 0.9049 -0.2180 0.3656
vn -0.1180 -0.4543 0.8830
vn -0.0235 -0.0719 0.9971
vn 0.1172 0.4901 0.8638
vn 0.0225 0.1127 0.9934
vn -0.9053 0.2328 0.3554
vn -0.3940 0.1168 0.9116
vn -0.9724 -0.2332 0.0043
vn -0.9880 0.1545 -0.0036
vn -0.7494 0.6620 -0.0139
vn -0.9450 0.3269 -0.0071
vn -0.3932 0.0793 -0.9160
vn -0.9049 0.2180 -0.3656
vn -0.1172 -0.4901 -0.8638
vn -0.0225 -0.1127 -0.9934
vn 0.1180 0.4542 -0.8830
vn 0.0235 0.0719 -0.9971
vn -0.2417 -0.9702 0.0198
vn 0.9704 -0.2416 0.0054
vn 0.0005 -0.0205 -0.9998
vn 0.2417 0.9702 -0.0198
vn -0.0005 0.0205 0.9998
vn -0.9704 0.2416 -0.0054
vn 0.7443 -0.3343 -0.5781
vn 0.4508 0.0370 -0.8919
vn 0.9667 0.0967 -0.2370
vn 0.3416 0.1774 -0.9229
vn 0.5721 0.6043 -0.5546
vn 0.9193 0.2413 -0.3110
vn 0.6903 -0.3742 0.6192
vn 0.9099 0.0921 0.4045
vn 0.2893 -0.0625 0.9552
vn 0.5181 0.5644 0.6427
vn 0.3445 0.1079 0.9325
vn 0.9104 0.2454 0.3330
vn -0.5181 -0.5644 -0.6427
vn -0.8869 -0.2174 -0.4077
vn -0.2567 -0.1148 -0.9596
vn -0.6903 0.3742 -0.6192
vn -0.3687 0.0236 -0.9293
vn -0.9412 -0.0778 -0.3288
vn -0.5721 -0.6043 0.5546
vn -0.4267 -0.1686 0.8886
vn -0.9359 -0.2643 0.2328
vn -0.7443 0.3343 0.5781
vn -0.9423 -0.1160 0.3141
vn -0.3741 -0.0002 0.9274
vn 0.9327 0.1790 -0.3131
vn -0.3575 -0.0423 -0.9330
vn 0.5083 -0.6306 -0.5865
vn 0.3770 -0.1814 -0.9083
vn 0.9064 -0.3193 -0.2764
vn 0.3337 -0.0095 -0.9426
vn 0.7390 0.2955 -0.6054
vn 0.9188 -0.1705 -0.3560
vn 0.5077 -0.6060 0.6124
vn 0.8877 -0.2794 0.3661
vn 0.2893 -0.1457 0.9461
vn 0.7384 0.3201 0.5935
vn 0.4085 -0.0142 0.9127
vn 0.9474 -0.1423 0.2868
vn -0.7385 -0.3201 -0.5935
vn -0.9185 0.1557 -0.3636
vn -0.3329 -0.0292 -0.9425
vn -0.5078 0.6060 -0.6124
vn -0.3762 0.1440 -0.9153
vn -0.9062 0.3077 -0.2901
vn -0.7390 -0.2955 0.6054
vn -0.4093 0.0516 0.9109
vn -0.9476 0.1539 0.2798
vn -0.5083 0.6305 0.5865
vn -0.8880 0.2941 0.3535
vn -0.2902 0.1843 0.9390
vn 0.7494 -0.6619 0.0139
vn 0.9053 -0.2328 -0.3554
vn -0.1180 -0.4542 0.8830
vn -0.9052 0.2328 0.3555
vn -0.3941 0.1168 0.9116
vn -0.7494 0.6619 -0.0139
vt 0.019296 0.500000
vt 0.000000 1.000000
vt 0.000000 0.501344
vt 1.000000 1.000000
vt 0.980704 0.500000
vt 1.000000 0.501344
vt 0.869593 0.500000
vt 0.888889 1.000000
vt 0.865171 1.000000
vt 0.908184 0.500000
vt 0.912606 1.000000
vt 0.758482 0.500000
vt 0.777778 1.000000
vt 0.754060 1.000000
vt 0.797073 0.500000
vt 0.801495 1.000000
vt 0.647371 0.500000
vt 0.666667 1.000000
vt 0.642949 1.000000
vt 0.685962 0.500000
vt 0.690384 1.000000
vt 0.536260 0.500000
vt 0.555556 1.000000
vt 0.531838 1.000000
vt 0.574851 0.500000
vt 0.579273 1.000000
vt 0.425149 0.500000
vt 0.444444 1.000000
vt 0.420727 1.000000
vt 0.463740 0.500000
vt 0.468162 1.000000
vt 0.314038 0.500000
vt 0.333333 1.000000
vt 0.309616 1.000000
vt 0.352629 0.500000
vt 0.357051 1.000000
vt 0.202927 0.500000
vt 0.222222 1.000000
vt 0.198505 1.000000
vt 0.241518 0.500000
vt 0.245940 1.000000
vt 0.091816 0.500000
vt 0.111111 1.000000
vt 0.087394 1.000000
vt 0.130407 0.500000
vt 0.134829 1.000000
vt 0.976282 1.000000
vt 0.181819 0.000000
vt 0.227273 0.078731
vt 0.136365 0.078731
vt 0.272728 0.157461
vt 0.318182 0.078731
vt 0.363637 0.157461
vt 0.909091 0.000000
vt 0.954545 0.078731
vt 0.863636 0.078731
vt 0.727273 0.000000
vt 0.772727 0.078731
vt 0.681818 0.078731
vt 0.545455 0.000000
vt 0.590909 0.078731
vt 0.500000 0.078731
vt 0.318182 0.236191
vt 0.090910 0.157461
vt 0.181819 0.157461
vt 0.136365 0.236191
vt 0.818182 0.157461
vt 0.909091 0.157461
vt 0.863636 0.236191
vt 0.636364 0.157461
vt 0.727273 0.157461
vt 0.681818 0.236191
vt 0.454546 0.157461
vt 0.545455 0.157461
vt 0.500000 0.236191
vt 0.227273 0.236191
vt 0.045455 0.236191
vt 0.772727 0.236191
vt 0.590909 0.236191
vt 0.409092 0.236191
vt 0.181819 0.314921
vt 0.272728 0.314921
vt 0.227273 0.393651
vt 0.000000 0.314921
vt 0.090910 0.314921
vt 0.045455 0.393651
vt 0.727273 0.314921
vt 0.818182 0.314921
vt 0.772727 0.393651
vt 0.545455 0.314921
vt 0.636364 0.314921
vt 0.590909 0.393651
vt 0.363637 0.314921
vt 0.454546 0.314921
vt 0.409092 0.393651
vt 0.500000 0.393651
vt 0.454546 0.472382
vt 0.681818 0.393651
vt 0.636364 0.472382
vt 0.863636 0.393651
vt 0.818182 0.472382
vt 0.909091 0.314921
vt 0.136365 0.393651
vt 0.090910 0.472382
vt 0.318182 0.393651
vt 0.272728 0.472382
vt 0.954545 0.236191
vt 1.000000 0.157461
vt 0.409092 0.078731
vt 0.363637 0.000000
vt 0.128500 0.750000
vt 0.125000 0.746500
vt 0.128500 0.746500
vt 0.378500 0.996500
vt 0.376479 1.000000
vt 0.375000 0.996500
vt 0.378500 0.003500
vt 0.375000 0.001479
vt 0.378500 0.000000
vt 0.621500 0.996500
vt 0.625000 0.998521
vt 0.621500 1.000000
vt 0.875000 0.746500
vt 0.871500 0.750000
vt 0.871500 0.746500
vt 0.621500 0.003500
vt 0.623521 0.000000
vt 0.625000 0.003500
vt 0.125000 0.503500
vt 0.128500 0.500000
vt 0.128500 0.503500
vt 0.378500 0.246500
vt 0.375740 0.250740
vt 0.375000 0.246500
vt 0.378500 0.253500
vt 0.378500 0.250000
vt 0.871500 0.500000
vt 0.875000 0.503500
vt 0.871500 0.503500
vt 0.621500 0.253500
vt 0.624260 0.249260
vt 0.625000 0.253500
vt 0.621500 0.246500
vt 0.621500 0.250000
vt 0.375000 0.746500
vt 0.373250 0.751750
vt 0.371500 0.746500
vt 0.378500 0.746500
vt 0.375493 0.750000
vt 0.378500 0.753500
vt 0.378500 0.750000
vt 0.626750 0.751750
vt 0.625000 0.746500
vt 0.628500 0.746500
vt 0.621500 0.753500
vt 0.625000 0.749507
vt 0.621500 0.746500
vt 0.621500 0.750000
vt 0.373250 0.498250
vt 0.375000 0.503500
vt 0.371500 0.503500
vt 0.378500 0.496500
vt 0.375000 0.500493
vt 0.378500 0.503500
vt 0.378500 0.500000
vt 0.625000 0.503500
vt 0.626750 0.498250
vt 0.628500 0.503500
vt 0.621500 0.503500
vt 0.624507 0.500000
vt 0.621500 0.496500
vt 0.621500 0.500000
vt 0.375000 0.003500
vt 0.378500 1.000000
vt 0.621500 0.000000
vt 0.375000 0.253500
vt 0.128500 0.746500
vt 0.378500 0.253500
vt 0.378500 0.250000
vt 0.621500 0.246500
vt 0.628500 0.746500
vt 0.621500 0.746500
vt 0.371500 0.503500
vt 0.626750 0.498250
vt 0.621500 0.496500
vt 0.625000 0.246500
vt 0.625000 0.996500
vt 0.023718 1.000000
vt 0.888889 0.501344
vt 0.777778 0.501344
vt 0.666667 0.501344
vt 0.555556 0.501344
vt 0.444444 0.501344
vt 0.333333 0.501344
vt 0.222222 0.501344
vt 0.111111 0.501344
vt 0.126479 0.750000
vt 0.875000 0.748521
vt 0.125000 0.501479
vt 0.873521 0.500000
s 0
usemtl bark
f 1/1/1 6/2/1 3/3/1
f 6/4/2 2/5/2 3/6/2
f 8/7/3 12/8/3 10/9/3
f 12/8/4 7/10/4 11/11/4
f 14/12/5 18/13/5 16/14/5
f 18/13/6 13/15/6 17/16/6
f 20/17/7 24/18/7 22/19/7
f 24/18/8 19/20/8 23/21/8
f 26/22/9 30/23/9 28/24/9
f 30/23/10 25/25/10 29/26/10
f 32/27/11 36/28/11 34/29/11
f 36/28/12 31/30/12 35/31/12
f 38/32/13 42/33/13 40/34/13
f 42/33/14 37/35/14 41/36/14
f 44/37/15 48/38/15 46/39/15
f 48/38/16 43/40/16 47/41/16
f 50/42/17 54/43/17 52/44/17
f 54/43/18 49/45/18 53/46/18
f 4/47/19 7/10/19 2/5/19
f 52/44/20 1/1/20 50/42/20
f 8/7/21 17/16/21 13/15/21
f 16/14/22 19/20/22 14/12/22
f 20/17/23 29/26/23 25/25/23
f 28/24/24 31/30/24 26/22/24
f 34/29/25 37/35/25 32/27/25
f 40/34/26 43/40/26 38/32/26
f 46/39/27 49/45/27 44/37/27
f 55/48/28 68/49/28 67/50/28
f 56/51/29 68/52/29 70/53/29
f 55/54/30 67/55/30 72/56/30
f 55/57/31 72/58/31 74/59/31
f 55/60/32 74/61/32 71/62/32
f 56/51/33 70/53/33 77/63/33
f 57/64/34 69/65/34 79/66/34
f 58/67/35 73/68/35 81/69/35
f 59/70/36 75/71/36 83/72/36
f 60/73/37 76/74/37 85/75/37
f 56/51/38 77/63/38 80/76/38
f 57/64/39 79/66/39 82/77/39
f 58/67/40 81/69/40 84/78/40
f 59/70/41 83/72/41 86/79/41
f 60/73/42 85/75/42 78/80/42
f 61/81/43 87/82/43 92/83/43
f 62/84/44 88/85/44 94/86/44
f 63/87/45 89/88/45 95/89/45
f 64/90/46 90/91/46 96/92/46
f 65/93/47 91/94/47 93/95/47
f 93/95/48 96/96/48 66/97/48
f 93/95/49 91/94/49 96/96/49
f 91/94/50 64/90/50 96/96/50
f 96/92/51 95/98/51 66/99/51
f 96/92/52 90/91/52 95/98/52
f 90/91/53 63/87/53 95/98/53
f 95/89/54 94/100/54 66/101/54
f 95/89/55 89/88/55 94/100/55
f 89/88/56 62/102/56 94/100/56
f 94/86/57 92/103/57 66/104/57
f 94/86/58 88/85/58 92/103/58
f 88/85/59 61/81/59 92/103/59
f 92/83/60 93/105/60 66/106/60
f 92/83/61 87/82/61 93/105/61
f 87/82/62 65/93/62 93/105/62
f 78/80/63 91/94/63 65/93/63
f 78/80/64 85/75/64 91/94/64
f 85/75/65 64/90/65 91/94/65
f 86/79/66 90/91/66 64/90/66
f 86/79/67 83/72/67 90/91/67
f 83/72/68 63/87/68 90/91/68
f 84/78/69 89/88/69 63/87/69
f 84/78/70 81/69/70 89/88/70
f 81/69/71 62/102/71 89/88/71
f 82/77/72 88/85/72 62/84/72
f 82/77/73 79/66/73 88/85/73
f 79/66/74 61/81/74 88/85/74
f 80/76/75 87/82/75 61/81/75
f 80/76/76 77/63/76 87/82/76
f 77/63/77 65/93/77 87/82/77
f 85/75/78 86/79/78 64/90/78
f 85/75/79 76/74/79 86/79/79
f 76/74/80 59/70/80 86/79/80
f 83/72/81 84/78/81 63/87/81
f 83/72/82 75/71/82 84/78/82
f 75/71/83 58/67/83 84/78/83
f 81/69/84 82/107/84 62/102/84
f 81/69/85 73/68/85 82/107/85
f 73/68/86 57/108/86 82/107/86
f 79/66/87 80/76/87 61/81/87
f 79/66/88 69/65/88 80/76/88
f 69/65/89 56/51/89 80/76/89
f 77/63/90 78/80/90 65/93/90
f 77/63/91 70/53/91 78/80/91
f 70/53/92 60/73/92 78/80/92
f 71/62/93 76/74/93 60/73/93
f 71/62/94 74/61/94 76/74/94
f 74/61/95 59/70/95 76/74/95
f 74/59/96 75/71/96 59/70/96
f 74/59/97 72/58/97 75/71/97
f 72/58/98 58/67/98 75/71/98
f 72/56/99 73/68/99 58/67/99
f 72/56/100 67/55/100 73/68/100
f 67/55/101 57/108/101 73/68/101
f 70/53/102 71/109/102 60/73/102
f 70/53/103 68/52/103 71/109/103
f 68/52/104 55/110/104 71/109/104
f 67/50/105 69/65/105 57/64/105
f 67/50/106 68/49/106 69/65/106
f 68/49/107 56/51/107 69/65/107
f 142/111/188 145/112/188 139/113/188
f 140/114/189 143/115/189 142/116/189
f 141/117/190 143/118/190 144/119/190
f 146/120/191 150/121/191 152/122/191
f 151/123/192 149/124/192 147/125/192
f 148/126/193 150/127/193 151/128/193
f 156/129/194 159/130/194 153/131/194
f 154/132/195 157/133/195 156/134/195
f 155/135/196 157/133/196 158/136/196
f 163/137/197 166/138/197 160/139/197
f 161/140/198 164/141/198 163/142/198
f 162/143/199 164/141/199 165/144/199
f 170/145/200 173/146/200 167/147/200
f 168/148/201 171/149/201 170/145/201
f 169/150/202 171/149/202 172/151/202
f 177/152/203 180/153/203 174/154/203
f 175/155/204 178/156/204 177/152/204
f 176/157/205 178/156/205 179/158/205
f 184/159/206 187/160/206 181/161/206
f 182/162/207 185/163/207 184/159/207
f 183/164/208 185/163/208 186/165/208
f 191/166/209 194/167/209 188/168/209
f 189/169/210 192/170/210 191/166/210
f 190/171/211 192/170/211 193/172/211
f 153/131/212 145/112/212 156/129/212
f 145/173/213 154/132/213 156/134/213
f 146/120/214 144/174/214 140/114/214
f 152/175/215 141/117/215 144/119/215
f 160/139/216 151/123/216 147/125/216
f 151/128/217 162/143/217 148/126/217
f 161/140/218 158/136/218 165/144/218
f 158/136/219 162/143/219 165/144/219
f 153/131/220 184/159/220 181/161/220
f 159/176/221 182/162/221 184/159/221
f 188/168/222 163/137/222 160/139/222
f 163/142/223 190/171/223 161/140/223
f 183/164/224 193/172/224 189/169/224
f 186/165/225 190/171/225 193/172/225
f 181/161/226 170/145/226 167/147/226
f 187/160/227 168/148/227 170/145/227
f 174/154/228 191/166/228 188/168/228
f 191/166/229 176/157/229 189/169/229
f 169/150/230 179/158/230 175/155/230
f 172/151/231 176/157/231 179/158/231
f 139/113/232 173/146/232 142/111/232
f 173/146/233 140/114/233 142/116/233
f 174/154/234 149/124/234 177/152/234
f 177/152/235 146/120/235 175/155/235
f 181/161/236 139/113/236 153/131/236
f 148/126/237 154/132/237 141/117/237
f 175/155/238 140/114/238 169/150/238
f 188/168/239 147/125/239 174/154/239
f 161/140/240 182/162/240 155/135/240
f 189/169/241 168/148/241 183/164/241
f 198/111/242 201/112/242 195/177/242
f 196/114/243 199/115/243 198/116/243
f 197/117/244 199/118/244 200/119/244
f 202/120/245 206/121/245 208/122/245
f 207/123/246 205/124/246 203/125/246
f 204/126/247 206/127/247 207/128/247
f 212/129/248 215/130/248 209/131/248
f 210/132/249 213/133/249 212/134/249
f 211/178/250 213/133/250 214/179/250
f 219/137/251 222/138/251 216/139/251
f 217/140/252 220/141/252 219/142/252
f 218/180/253 220/141/253 221/144/253
f 226/145/254 229/146/254 223/147/254
f 224/148/255 227/149/255 226/145/255
f 225/150/256 227/149/256 228/151/256
f 233/152/257 236/153/257 230/181/257
f 231/155/258 234/156/258 233/152/258
f 232/182/259 234/156/259 235/158/259
f 240/159/260 243/160/260 237/183/260
f 238/162/261 241/163/261 240/159/261
f 239/164/262 241/163/262 242/165/262
f 247/166/263 250/184/263 244/168/263
f 245/169/264 248/170/264 247/166/264
f 246/185/265 248/170/265 249/172/265
f 195/177/266 212/129/266 209/131/266
f 201/173/267 210/132/267 212/134/267
f 202/120/268 200/174/268 196/114/268
f 208/175/269 197/117/269 200/119/269
f 216/139/270 207/123/270 203/125/270
f 222/186/271 204/126/271 207/128/271
f 211/178/272 221/144/272 217/140/272
f 221/144/273 210/132/273 218/180/273
f 209/131/274 240/159/274 237/183/274
f 240/159/275 211/178/275 238/162/275
f 216/139/276 250/184/276 219/137/276
f 219/142/277 246/185/277 217/140/277
f 239/164/278 249/172/278 245/169/278
f 242/165/279 246/185/279 249/172/279
f 223/147/280 243/160/280 226/145/280
f 243/160/281 224/148/281 226/145/281
f 230/181/282 247/166/282 244/168/282
f 247/166/283 232/182/283 245/169/283
f 231/155/284 228/151/284 235/158/284
f 228/151/285 232/182/285 235/158/285
f 223/147/286 198/111/286 195/177/286
f 229/146/287 196/114/287 198/116/287
f 203/125/288 233/152/288 230/181/288
f 205/187/289 231/155/289 233/152/289
f 209/131/290 223/147/290 195/177/290
f 197/117/291 218/180/291 210/132/291
f 231/155/292 196/114/292 225/150/292
f 216/139/293 230/181/293 244/168/293
f 217/140/294 238/162/294 211/178/294
f 245/169/295 224/148/295 239/164/295
f 1/1/1 5/188/1 6/2/1
f 6/4/2 4/47/2 2/5/2
f 8/7/3 9/189/3 12/8/3
f 12/8/4 9/189/4 7/10/4
f 14/12/5 15/190/5 18/13/5
f 18/13/6 15/190/6 13/15/6
f 20/17/7 21/191/7 24/18/7
f 24/18/8 21/191/8 19/20/8
f 26/22/9 27/192/9 30/23/9
f 30/23/10 27/192/10 25/25/10
f 32/27/11 33/193/11 36/28/11
f 36/28/12 33/193/12 31/30/12
f 38/32/13 39/194/13 42/33/13
f 42/33/14 39/194/14 37/35/14
f 44/37/15 45/195/15 48/38/15
f 48/38/16 45/195/16 43/40/16
f 50/42/17 51/196/17 54/43/17
f 54/43/18 51/196/18 49/45/18
f 4/47/19 11/11/19 7/10/19
f 52/44/20 5/188/20 1/1/20
f 8/7/21 10/9/21 17/16/21
f 16/14/22 23/21/22 19/20/22
f 20/17/23 22/19/23 29/26/23
f 28/24/24 35/31/24 31/30/24
f 34/29/25 41/36/25 37/35/25
f 40/34/26 47/41/26 43/40/26
f 46/39/27 53/46/27 49/45/27
f 142/111/296 143/197/296 145/112/296
f 140/114/297 144/174/297 143/115/297
f 141/117/298 145/173/298 143/118/298
f 146/120/299 149/187/299 150/121/299
f 151/123/300 150/198/300 149/124/300
f 148/126/301 152/175/301 150/127/301
f 156/129/302 157/199/302 159/130/302
f 154/132/303 158/136/303 157/133/303
f 155/135/304 159/176/304 157/133/304
f 163/137/305 164/200/305 166/138/305
f 161/140/306 165/144/306 164/141/306
f 162/143/307 166/186/307 164/141/307
f 170/145/308 171/149/308 173/146/308
f 168/148/309 172/151/309 171/149/309
f 169/150/310 173/146/310 171/149/310
f 177/152/311 178/156/311 180/153/311
f 175/155/312 179/158/312 178/156/312
f 176/157/313 180/153/313 178/156/313
f 184/159/314 185/163/314 187/160/314
f 182/162/315 186/165/315 185/163/315
f 183/164/316 187/160/316 185/163/316
f 191/166/317 192/170/317 194/167/317
f 189/169/318 193/172/318 192/170/318
f 190/171/319 194/167/319 192/170/319
f 153/131/212 139/113/212 145/112/212
f 145/173/213 141/117/213 154/132/213
f 146/120/214 152/122/214 144/174/214
f 152/175/320 148/126/320 141/117/320
f 160/139/216 166/138/216 151/123/216
f 151/128/217 166/186/217 162/143/217
f 161/140/218 155/135/218 158/136/218
f 158/136/219 154/132/219 162/143/219
f 153/131/220 159/130/220 184/159/220
f 159/176/221 155/135/221 182/162/221
f 188/168/222 194/167/222 163/137/222
f 163/142/223 194/167/223 190/171/223
f 183/164/224 186/165/224 193/172/224
f 186/165/225 182/162/225 190/171/225
f 181/161/226 187/160/226 170/145/226
f 187/160/227 183/164/227 168/148/227
f 174/154/228 180/153/228 191/166/228
f 191/166/229 180/153/229 176/157/229
f 169/150/321 172/151/321 179/158/321
f 172/151/231 168/148/231 176/157/231
f 139/113/232 167/147/232 173/146/232
f 173/146/233 169/150/233 140/114/233
f 174/154/234 147/125/234 149/124/234
f 177/152/235 149/187/235 146/120/235
f 181/161/236 167/147/236 139/113/236
f 148/126/237 162/143/237 154/132/237
f 175/155/238 146/120/238 140/114/238
f 188/168/239 160/139/239 147/125/239
f 161/140/240 190/171/240 182/162/240
f 189/169/241 176/157/241 168/148/241
f 198/111/322 199/197/322 201/112/322
f 196/114/323 200/174/323 199/115/323
f 197/117/324 201/173/324 199/118/324
f 202/120/325 205/187/325 206/121/325
f 207/123/326 206/198/326 205/124/326
f 204/126/327 208/175/327 206/127/327
f 212/129/328 213/199/328 215/130/328
f 210/132/329 214/179/329 213/133/329
f 211/178/330 215/176/330 213/133/330
f 219/137/331 220/200/331 222/138/331
f 217/140/332 221/144/332 220/141/332
f 218/180/333 222/186/333 220/141/333
f 226/145/334 227/149/334 229/146/334
f 224/148/335 228/151/335 227/149/335
f 225/150/336 229/146/336 227/149/336
f 233/152/337 234/156/337 236/153/337
f 231/155/338 235/158/338 234/156/338
f 232/182/339 236/153/339 234/156/339
f 240/159/340 241/163/340 243/160/340
f 238/162/341 242/165/341 241/163/341
f 239/164/342 243/160/342 241/163/342
f 247/166/343 248/170/343 250/184/343
f 245/169/344 249/172/344 248/170/344
f 246/185/345 250/184/345 248/170/345
f 195/177/346 201/112/346 212/129/346
f 201/173/267 197/117/267 210/132/267
f 202/120/268 208/122/268 200/174/268
f 208/175/347 204/126/347 197/117/347
f 216/139/270 222/138/270 207/123/270
f 222/186/271 218/180/271 204/126/271
f 211/178/272 214/179/272 221/144/272
f 221/144/273 214/179/273 210/132/273
f 209/131/348 215/130/348 240/159/348
f 240/159/275 215/176/275 211/178/275
f 216/139/276 244/168/276 250/184/276
f 219/142/277 250/184/277 246/185/277
f 239/164/349 242/165/349 249/172/349
f 242/165/350 238/162/350 246/185/350
f 223/147/280 237/183/280 243/160/280
f 243/160/281 239/164/281 224/148/281
f 230/181/351 236/153/351 247/166/351
f 247/166/283 236/153/283 232/182/283
f 231/155/284 225/150/284 228/151/284
f 228/151/285 224/148/285 232/182/285
f 223/147/286 229/146/286 198/111/286
f 229/146/287 225/150/287 196/114/287
f 203/125/288 205/124/288 233/152/288
f 205/187/289 202/120/289 231/155/289
f 209/131/290 237/183/290 223/147/290
f 197/117/291 204/126/291 218/180/291
f 231/155/292 202/120/292 196/114/292
f 216/139/293 203/125/293 230/181/293
f 217/140/294 246/185/294 238/162/294
f 245/169/295 232/182/295 224/148/295
usemtl core
f 97/48/108 110/49/108 109/50/108
f 98/51/109 110/52/109 112/53/109
f 97/54/110 109/55/110 114/56/110
f 97/57/111 114/58/111 116/59/111
f 97/60/112 116/61/112 113/62/112
f 98/51/113 112/53/113 119/63/113
f 99/64/114 111/65/114 121/66/114
f 100/67/115 115/68/115 123/69/115
f 101/70/116 117/71/116 125/72/116
f 102/73/117 118/74/117 127/75/117
f 98/51/118 119/63/118 122/76/118
f 99/64/119 121/66/119 124/77/119
f 100/67/120 123/69/120 126/78/120
f 101/70/121 125/72/121 128/79/121
f 102/73/122 127/75/122 120/80/122
f 103/81/123 129/82/123 134/83/123
f 104/84/124 130/85/124 136/86/124
f 105/87/125 131/88/125 137/89/125
f 106/90/126 132/91/126 138/92/126
f 107/93/127 133/94/127 135/95/127
f 135/95/128 138/96/128 108/97/128
f 135/95/129 133/94/129 138/96/129
f 133/94/130 106/90/130 138/96/130
f 138/92/131 137/98/131 108/99/131
f 138/92/132 132/91/132 137/98/132
f 132/91/133 105/87/133 137/98/133
f 137/89/134 136/100/134 108/101/134
f 137/89/135 131/88/135 136/100/135
f 131/88/136 104/102/136 136/100/136
f 136/86/137 134/103/137 108/104/137
f 136/86/138 130/85/138 134/103/138
f 130/85/139 103/81/139 134/103/139
f 134/83/140 135/105/140 108/106/140
f 134/83/141 129/82/141 135/105/141
f 129/82/142 107/93/142 135/105/142
f 120/80/143 133/94/143 107/93/143
f 120/80/144 127/75/144 133/94/144
f 127/75/145 106/90/145 133/94/145
f 128/79/146 132/91/146 106/90/146
f 128/79/147 125/72/147 132/91/147
f 125/72/148 105/87/148 132/91/148
f 126/78/149 131/88/149 105/87/149
f 126/78/150 123/69/150 131/88/150
f 123/69/151 104/102/151 131/88/151
f 124/77/152 130/85/152 104/84/152
f 124/77/153 121/66/153 130/85/153
f 121/66/154 103/81/154 130/85/154
f 122/76/155 129/82/155 103/81/155
f 122/76/156 119/63/156 129/82/156
f 119/63/157 107/93/157 129/82/157
f 127/75/158 128/79/158 106/90/158
f 127/75/159 118/74/159 128/79/159
f 118/74/160 101/70/160 128/79/160
f 125/72/161 126/78/161 105/87/161
f 125/72/162 117/71/162 126/78/162
f 117/71/163 100/67/163 126/78/163
f 123/69/164 124/107/164 104/102/164
f 123/69/165 115/68/165 124/107/165
f 115/68/166 99/108/166 124/107/166
f 121/66/167 122/76/167 103/81/167
f 121/66/168 111/65/168 122/76/168
f 111/65/169 98/51/169 122/76/169
f 119/63/170 120/80/170 107/93/170
f 119/63/171 112/53/171 120/80/171
f 112/53/172 102/73/172 120/80/172
f 113/62/173 118/74/173 102/73/173
f 113/62/174 116/61/174 118/74/174
f 116/61/175 101/70/175 118/74/175
f 116/59/176 117/71/176 101/70/176
f 116/59/177 114/58/177 117/71/177
f 114/58/178 100/67/178 117/71/178
f 114/56/179 115/68/179 100/67/179
f 114/56/180 109/55/180 115/68/180
f 109/55/181 99/108/181 115/68/181
f 112/53/182 113/109/182 102/73/182
f 112/53/183 110/52/183 113/109/183
f 110/52/184 97/110/184 113/109/184
f 109/50/185 111/65/185 99/64/185
f 109/50/186 110/49/186 111/65/186
f 110/49/187 98/51/187 111/65/187
