# Blender 4.5.10 LTS
# www.blender.org
mtllib grove_heartwood_pod.mtl
o grove_heartwood_pod
v -0.052412 0.010221 -0.039521
v -0.063119 0.024050 -0.032429
v -0.047040 0.023077 -0.052250
v -0.061374 0.014577 -0.035368
v -0.057950 0.016044 -0.044299
v -0.057575 0.023667 -0.044369
v -0.050004 0.013889 -0.049384
v -0.000073 0.158160 -0.004327
v -0.003926 0.144938 -0.023260
v -0.020006 0.145911 -0.003439
v -0.002693 0.154308 -0.015579
v -0.009835 0.153153 -0.012000
v -0.013642 0.146352 -0.014755
v -0.011795 0.154859 -0.004358
v 0.004408 0.007181 -0.066280
v -0.007661 0.020970 -0.070795
v 0.017849 0.019717 -0.070561
v -0.004382 0.011448 -0.070869
v 0.004748 0.012689 -0.073826
v 0.005123 0.020312 -0.073896
v 0.013656 0.010562 -0.070703
v 0.011267 0.157553 -0.009667
v 0.023499 0.143583 -0.023927
v -0.002011 0.144835 -0.024162
v 0.018376 0.153245 -0.018567
v 0.011108 0.152032 -0.021863
v 0.010806 0.145044 -0.026268
v 0.003935 0.153953 -0.018700
v 0.060751 0.004667 -0.038479
v 0.056898 0.017975 -0.051293
v 0.072629 0.017388 -0.031179
v 0.058895 0.008544 -0.048381
v 0.066919 0.009915 -0.043149
v 0.067294 0.017539 -0.043219
v 0.070019 0.008128 -0.034158
v 0.022512 0.157052 -0.004119
v 0.041130 0.142910 -0.002876
v 0.025399 0.143498 -0.022990
v 0.033853 0.152619 -0.003938
v 0.031876 0.151106 -0.011616
v 0.035049 0.143962 -0.014306
v 0.024948 0.152951 -0.015325
v 0.074191 0.004573 0.022948
v 0.081943 0.017322 0.011392
v 0.076049 0.017841 0.036239
v 0.080809 0.008053 0.015162
v 0.081749 0.009812 0.024631
v 0.082123 0.017435 0.024561
v 0.076641 0.008420 0.032732
v 0.025194 0.157033 0.008140
v 0.035689 0.143426 0.024042
v 0.041583 0.142907 -0.000805
v 0.032084 0.152901 0.017293
v 0.036829 0.151071 0.011025
v 0.040831 0.143922 0.012124
v 0.035421 0.152608 0.003227
v 0.034605 0.006969 0.071744
v 0.048614 0.019502 0.070057
v 0.025534 0.020737 0.080927
v 0.044858 0.010344 0.071911
v 0.038069 0.012456 0.078475
v 0.038443 0.020079 0.078404
v 0.028537 0.011217 0.079597
v 0.017294 0.157511 0.017879
v 0.011274 0.144742 0.036557
v 0.034354 0.143507 0.025687
v 0.014401 0.153880 0.029138
v 0.022239 0.151954 0.029011
v 0.023799 0.144953 0.033119
v 0.027467 0.153181 0.022985
v -0.028196 0.010052 0.071166
v -0.017990 0.022874 0.080526
v -0.040877 0.023895 0.069233
v -0.021887 0.013692 0.079133
v -0.031228 0.015857 0.077837
v -0.030854 0.023481 0.077766
v -0.038070 0.014414 0.071147
v 0.004760 0.158126 0.017763
v -0.013730 0.145867 0.025244
v 0.009157 0.144846 0.036537
v -0.005880 0.154818 0.022678
v -0.000909 0.153090 0.028798
v -0.003223 0.146279 0.032870
v 0.007076 0.154240 0.029070
v -0.066922 0.011499 0.021648
v -0.067716 0.024898 0.034915
v -0.073175 0.024936 0.009964
v -0.069164 0.015576 0.031389
v -0.073961 0.017454 0.023197
v -0.073586 0.025077 0.023127
v -0.073024 0.015603 0.013745
v -0.002968 0.158415 0.007881
v -0.020495 0.145954 -0.001377
v -0.015036 0.145916 0.023575
v -0.013488 0.155008 0.002777
v -0.015183 0.153624 0.010546
v -0.019886 0.146902 0.011564
v -0.010398 0.154987 0.016902
v 0.003411 -0.002512 -0.074216
v 0.015942 -0.014668 -0.078461
v -0.009043 -0.014963 -0.077776
v 0.012168 -0.005819 -0.078726
v 0.003272 -0.007371 -0.081389
v 0.003362 -0.014623 -0.081244
v -0.005499 -0.006027 -0.078242
v 0.006462 -0.136074 -0.020401
v -0.006580 -0.122797 -0.034328
v 0.018405 -0.122502 -0.035013
v -0.000817 -0.131938 -0.029040
v 0.006065 -0.130235 -0.032374
v 0.005865 -0.123491 -0.036757
v 0.013157 -0.131773 -0.029423
v -0.052769 -0.004874 -0.045280
v -0.047633 -0.016585 -0.057900
v -0.062662 -0.017972 -0.037975
v -0.050655 -0.007925 -0.054984
v -0.058198 -0.009955 -0.049729
v -0.057650 -0.017187 -0.049819
v -0.061282 -0.008906 -0.040895
v -0.001921 -0.136427 -0.016084
v -0.021609 -0.124184 -0.014403
v -0.006580 -0.122797 -0.034328
v -0.013414 -0.132890 -0.015737
v -0.011812 -0.130987 -0.023166
v -0.015708 -0.124398 -0.025646
v -0.005008 -0.132114 -0.026882
v -0.065103 -0.008836 0.016617
v -0.071135 -0.020694 0.004541
v -0.064891 -0.022129 0.028703
v -0.071196 -0.012091 0.008855
v -0.071694 -0.014290 0.017996
v -0.071046 -0.021490 0.017401
v -0.066781 -0.013105 0.025940
v -0.003762 -0.137018 -0.006847
v -0.015366 -0.125619 0.009758
v -0.021609 -0.124184 -0.014403
v -0.010842 -0.133988 0.002394
v -0.015738 -0.132248 -0.003469
v -0.020444 -0.125919 -0.001877
v -0.014335 -0.133185 -0.011119
v -0.024305 -0.011415 0.064865
v -0.036867 -0.023900 0.061844
v -0.014052 -0.024302 0.072048
v -0.033989 -0.015178 0.064720
v -0.027054 -0.017112 0.070787
v -0.026739 -0.024291 0.069799
v -0.017856 -0.015463 0.071935
v 0.002326 -0.137403 0.000352
v 0.007450 -0.126021 0.019962
v -0.015366 -0.125619 0.009758
v 0.004962 -0.134405 0.011701
v -0.002755 -0.133068 0.011884
v -0.004778 -0.126910 0.016650
v -0.007798 -0.134180 0.005994
v 0.038905 -0.010669 0.063132
v 0.029367 -0.023790 0.070858
v 0.051573 -0.022856 0.059420
v 0.032950 -0.014863 0.070543
v 0.042108 -0.016296 0.068891
v 0.041908 -0.023481 0.067918
v 0.048652 -0.014203 0.062455
v 0.011759 -0.137291 0.000094
v 0.029656 -0.125088 0.008524
v 0.007450 -0.126021 0.019962
v 0.022098 -0.133827 0.005174
v 0.017360 -0.132831 0.011333
v 0.019495 -0.126623 0.015985
v 0.009678 -0.134349 0.011571
v 0.076928 -0.007160 0.012724
v 0.077691 -0.020446 0.024795
v 0.082567 -0.018880 0.000329
v 0.079214 -0.011383 0.021939
v 0.083710 -0.012456 0.013737
v 0.083201 -0.019670 0.013174
v 0.082661 -0.010275 0.004638
v 0.017432 -0.136768 -0.007428
v 0.034532 -0.123522 -0.015942
v 0.029656 -0.125088 0.008524
v 0.027662 -0.132690 -0.012270
v 0.029460 -0.131714 -0.004708
v 0.034096 -0.125276 -0.003372
v 0.024935 -0.133566 0.001414
v 0.061132 -0.003530 -0.048401
v 0.071716 -0.016386 -0.041658
v 0.055590 -0.015367 -0.060729
v 0.069965 -0.007357 -0.044492
v 0.066427 -0.008485 -0.053144
v 0.066046 -0.015728 -0.053210
v 0.058562 -0.006637 -0.057978
v 0.015075 -0.136226 -0.016550
v 0.018405 -0.122502 -0.035013
v 0.034532 -0.123522 -0.015942
v 0.017464 -0.131849 -0.027497
v 0.024433 -0.130559 -0.024160
v 0.028030 -0.123882 -0.026844
v 0.026484 -0.132419 -0.016831
v 0.003899 -0.024890 0.001680
v -0.067466 -0.004741 -0.048554
v 0.030081 -0.005481 -0.081748
v 0.091776 -0.007595 0.000758
v 0.032357 -0.008162 0.084942
v -0.066059 -0.006398 0.054465
v -0.023694 0.025007 -0.080523
v 0.074723 0.023243 -0.050046
v 0.076130 0.021586 0.052973
v -0.021418 0.022326 0.086167
v -0.083113 0.024440 0.003661
v 0.004765 0.041736 0.002739
v 0.019212 -0.019331 -0.047451
v -0.038124 -0.018896 -0.027940
v -0.022735 -0.007487 -0.076978
v -0.079245 -0.008026 0.003086
v -0.037297 -0.019870 0.032613
v 0.055476 -0.020573 0.001045
v 0.070866 -0.009165 -0.047993
v 0.020550 -0.020907 0.050527
v 0.072204 -0.010741 0.049985
v -0.020570 -0.010037 0.081553
v -0.089269 0.010100 -0.026775
v -0.088442 0.009126 0.033778
v 0.002994 0.009998 -0.095769
v -0.054343 0.010433 -0.076258
v 0.097105 0.007719 -0.029359
v 0.060842 0.008961 -0.077855
v 0.063007 0.006412 0.080677
v 0.097932 0.006745 0.031194
v -0.052179 0.007884 0.082274
v 0.005670 0.006847 0.100188
v -0.063540 0.027586 -0.045566
v 0.029234 0.026882 -0.077135
v 0.087908 0.024871 0.001333
v 0.031398 0.024333 0.081396
v -0.062202 0.026010 0.052411
v -0.011887 0.037752 -0.046108
v -0.046812 0.037419 0.003374
v 0.045961 0.036715 -0.028194
v 0.046788 0.035741 0.032359
v -0.010549 0.036176 0.051869
v -0.070128 -0.104152 0.008368
v -0.069827 -0.100951 0.007992
v -0.069498 -0.100977 0.008333
v -0.070038 -0.103217 0.008119
v -0.069807 -0.102818 0.008160
v -0.069592 -0.100971 0.008094
v -0.069805 -0.103235 0.008360
v -0.049296 0.121647 0.005201
v -0.049005 0.124858 0.005497
v -0.048966 0.121621 0.005542
v -0.049088 0.123915 0.005271
v -0.048934 0.123482 0.005323
v -0.048855 0.123897 0.005512
v -0.049061 0.121626 0.005303
v -0.070471 -0.103828 0.031691
v -0.069841 -0.100653 0.031657
v -0.070180 -0.100617 0.031987
v -0.070148 -0.102911 0.031683
v -0.070156 -0.102488 0.031871
v -0.069942 -0.100641 0.031892
v -0.070388 -0.102886 0.031917
v -0.049348 0.125182 0.028820
v -0.049649 0.121980 0.029196
v -0.049310 0.121945 0.028865
v -0.049438 0.124246 0.029069
v -0.049283 0.123812 0.029034
v -0.049411 0.121957 0.029101
v -0.049198 0.124221 0.028835
v -0.093355 -0.102015 0.007997
v -0.093393 -0.098778 0.007951
v -0.093054 -0.098813 0.007621
v -0.093505 -0.101054 0.007981
v -0.093420 -0.100645 0.007783
v -0.093292 -0.098790 0.007715
v -0.093265 -0.101079 0.007747
v -0.072232 0.126995 0.005125
v -0.072523 0.123785 0.004829
v -0.072862 0.123820 0.005160
v -0.072315 0.126053 0.004899
v -0.072547 0.125655 0.004945
v -0.072761 0.123808 0.004924
v -0.072555 0.126078 0.005133
v -0.093698 -0.101691 0.031320
v -0.093407 -0.098480 0.031616
v -0.093737 -0.098454 0.031274
v -0.093615 -0.100748 0.031546
v -0.093769 -0.100315 0.031494
v -0.093642 -0.098459 0.031513
v -0.093848 -0.100730 0.031304
v -0.072575 0.127319 0.028448
v -0.073206 0.124144 0.028483
v -0.072876 0.124118 0.028824
v -0.072898 0.126402 0.028456
v -0.072896 0.125985 0.028656
v -0.073111 0.124138 0.028722
v -0.072665 0.126384 0.028698
v 0.003643 -0.106008 0.073241
v 0.003735 -0.102860 0.072489
v 0.004076 -0.102827 0.072818
v 0.003668 -0.105104 0.072883
v 0.003875 -0.104690 0.072870
v 0.003974 -0.102855 0.072584
v 0.003909 -0.105081 0.073116
v 0.010464 0.118698 0.043405
v 0.010567 0.121932 0.043319
v 0.010806 0.118730 0.043734
v 0.010535 0.120967 0.043206
v 0.010717 0.120552 0.043301
v 0.010776 0.120990 0.043439
v 0.010704 0.118703 0.043499
v 0.004031 -0.102983 0.096369
v 0.004464 -0.099803 0.095946
v 0.004134 -0.099749 0.096283
v 0.004297 -0.102056 0.096244
v 0.004269 -0.101616 0.096382
v 0.004370 -0.099769 0.096183
v 0.004064 -0.102018 0.096482
v 0.010955 0.124957 0.066447
v 0.010863 0.121809 0.067199
v 0.011194 0.121755 0.066861
v 0.010930 0.124053 0.066805
v 0.011111 0.123627 0.066814
v 0.011099 0.121789 0.067098
v 0.011164 0.124014 0.066566
v -0.019671 -0.105261 0.073535
v -0.019910 -0.102059 0.073120
v -0.019579 -0.102114 0.072783
v -0.019880 -0.104319 0.073415
v -0.019827 -0.103931 0.073168
v -0.019815 -0.102093 0.072883
v -0.019646 -0.104357 0.073176
v -0.012747 0.122679 0.043612
v -0.012850 0.119444 0.043698
v -0.013180 0.119499 0.044035
v -0.012780 0.121714 0.043499
v -0.012985 0.121311 0.043599
v -0.013086 0.119465 0.043799
v -0.013013 0.121752 0.043738
v -0.019283 -0.102237 0.096663
v -0.019180 -0.099002 0.096577
v -0.019522 -0.099035 0.096248
v -0.019251 -0.101271 0.096775
v -0.019433 -0.100857 0.096680
v -0.019419 -0.099007 0.096482
v -0.019492 -0.101295 0.096543
v -0.012359 0.125703 0.066740
v -0.012792 0.122523 0.067163
v -0.012451 0.122556 0.067492
v -0.012625 0.124776 0.066866
v -0.012591 0.124386 0.067112
v -0.012690 0.122551 0.067398
v -0.012384 0.124799 0.067098
v 0.072086 -0.118743 0.017964
v 0.072062 -0.115531 0.017555
v 0.072379 -0.115519 0.017908
v 0.072086 -0.117805 0.017705
v 0.072272 -0.117384 0.017750
v 0.072294 -0.115526 0.017666
v 0.072311 -0.117797 0.017955
v 0.069121 0.107951 0.012452
v 0.069061 0.111177 0.012714
v 0.069438 0.107963 0.012806
v 0.069086 0.110229 0.012499
v 0.069283 0.109815 0.012562
v 0.069310 0.110238 0.012749
v 0.069353 0.107957 0.012563
v 0.070823 -0.118228 0.041252
v 0.071116 -0.115004 0.041196
v 0.070762 -0.115001 0.041514
v 0.071048 -0.117282 0.041243
v 0.070988 -0.116860 0.041425
v 0.071005 -0.115000 0.041428
v 0.070798 -0.117280 0.041468
v 0.067798 0.111692 0.036002
v 0.067822 0.108481 0.036411
v 0.068176 0.108478 0.036094
v 0.067797 0.110755 0.036261
v 0.067999 0.110339 0.036237
v 0.068065 0.108482 0.036326
v 0.068047 0.110753 0.036037
v 0.048794 -0.119078 0.016708
v 0.048416 -0.115864 0.016617
v 0.048770 -0.115867 0.016299
v 0.048544 -0.118139 0.016674
v 0.048593 -0.117725 0.016473
v 0.048527 -0.115868 0.016385
v 0.048795 -0.118140 0.016449
v 0.045769 0.110842 0.011459
v 0.045829 0.107616 0.011197
v 0.045476 0.107618 0.011514
v 0.045794 0.109894 0.011243
v 0.045604 0.109475 0.011286
v 0.045587 0.107615 0.011282
v 0.045544 0.109896 0.011467
v 0.047531 -0.118563 0.039996
v 0.047471 -0.115337 0.040258
v 0.047153 -0.115349 0.039905
v 0.047506 -0.117615 0.040212
v 0.047309 -0.117201 0.040148
v 0.047239 -0.115342 0.040147
v 0.047282 -0.117624 0.039962
v 0.044506 0.111357 0.034747
v 0.044213 0.108134 0.034802
v 0.044530 0.108146 0.035156
v 0.044281 0.110411 0.034755
v 0.044320 0.109998 0.034961
v 0.044298 0.108140 0.035045
v 0.044506 0.110420 0.035005
v 0.070950 -0.108655 -0.069468
v 0.070844 -0.105436 -0.069795
v 0.071171 -0.105425 -0.069450
v 0.070922 -0.107712 -0.069703
v 0.071100 -0.107288 -0.069653
v 0.071079 -0.105428 -0.069690
v 0.071154 -0.107704 -0.069459
v 0.062878 0.117981 -0.069165
v 0.062755 0.121198 -0.068820
v 0.063206 0.117992 -0.068820
v 0.062795 0.120256 -0.069060
v 0.063002 0.119845 -0.069012
v 0.063026 0.120264 -0.068816
v 0.063113 0.117989 -0.069060
v 0.070368 -0.108742 -0.046147
v 0.070589 -0.105512 -0.046130
v 0.070245 -0.105525 -0.045802
v 0.070572 -0.107791 -0.046139
v 0.070509 -0.107376 -0.045945
v 0.070485 -0.105516 -0.045895
v 0.070329 -0.107800 -0.045907
v 0.062173 0.121111 -0.045499
v 0.062280 0.117892 -0.045172
v 0.062624 0.117905 -0.045500
v 0.062201 0.120168 -0.045264
v 0.062411 0.119757 -0.045304
v 0.062520 0.117901 -0.045265
v 0.062444 0.120177 -0.045496
v 0.047644 -0.109485 -0.070053
v 0.047194 -0.106279 -0.070052
v 0.047538 -0.106265 -0.070379
v 0.047373 -0.108550 -0.070056
v 0.047407 -0.108131 -0.070248
v 0.047298 -0.106274 -0.070287
v 0.047617 -0.108541 -0.070287
v 0.039449 0.120369 -0.069404
v 0.039572 0.117152 -0.069749
v 0.039228 0.117139 -0.069422
v 0.039489 0.119427 -0.069644
v 0.039309 0.119002 -0.069607
v 0.039333 0.117143 -0.069657
v 0.039246 0.119418 -0.069413
v 0.047062 -0.109571 -0.046732
v 0.046939 -0.106354 -0.046387
v 0.046612 -0.106365 -0.046731
v 0.047023 -0.108629 -0.046492
v 0.046815 -0.108219 -0.046539
v 0.046704 -0.106362 -0.046491
v 0.046791 -0.108637 -0.046735
v 0.038868 0.120282 -0.046084
v 0.038647 0.117052 -0.046101
v 0.038974 0.117063 -0.045757
v 0.038664 0.119331 -0.046092
v 0.038717 0.118914 -0.045898
v 0.038739 0.117055 -0.045861
v 0.038895 0.119339 -0.045849
v -0.015051 -0.116210 -0.080441
v -0.015070 -0.112974 -0.080510
v -0.014712 -0.113000 -0.080198
v -0.015066 -0.115251 -0.080600
v -0.014869 -0.114837 -0.080535
v -0.014826 -0.112981 -0.080428
v -0.014813 -0.115269 -0.080379
v -0.014809 0.109824 -0.062059
v -0.014783 0.113005 -0.061459
v -0.014451 0.109797 -0.061747
v -0.014800 0.112085 -0.061773
v -0.014604 0.111665 -0.061777
v -0.014547 0.112066 -0.061553
v -0.014565 0.109816 -0.061977
v -0.013481 -0.118133 -0.057246
v -0.013142 -0.114923 -0.057003
v -0.013455 -0.114952 -0.056646
v -0.013243 -0.117192 -0.057184
v -0.013273 -0.116792 -0.056954
v -0.013224 -0.114943 -0.056760
v -0.013464 -0.117213 -0.056932
v -0.013213 0.111082 -0.038264
v -0.013194 0.107845 -0.038195
v -0.012881 0.107875 -0.038552
v -0.013198 0.110123 -0.038105
v -0.013008 0.109711 -0.038196
v -0.012963 0.107855 -0.038309
v -0.012977 0.110143 -0.038357
v -0.038326 -0.116313 -0.078875
v -0.038657 -0.113105 -0.078586
v -0.038345 -0.113076 -0.078943
v -0.038562 -0.115374 -0.078781
v -0.038531 -0.114941 -0.078942
v -0.038575 -0.113085 -0.078829
v -0.038341 -0.115353 -0.079033
v -0.038058 0.112902 -0.059892
v -0.038084 0.109721 -0.060492
v -0.038397 0.109692 -0.060136
v -0.038075 0.111982 -0.060206
v -0.038266 0.111561 -0.060185
v -0.038314 0.109712 -0.060378
v -0.038296 0.111961 -0.059954
v -0.036756 -0.118236 -0.055679
v -0.036730 -0.115054 -0.055079
v -0.037088 -0.115028 -0.055391
v -0.036739 -0.117315 -0.055365
v -0.036935 -0.116896 -0.055361
v -0.036973 -0.115047 -0.055161
v -0.036992 -0.117297 -0.055585
v -0.036488 0.110980 -0.036697
v -0.036827 0.107769 -0.036940
v -0.036469 0.107743 -0.036628
v -0.036726 0.110039 -0.036759
v -0.036670 0.109606 -0.036603
v -0.036713 0.107750 -0.036710
v -0.036473 0.110020 -0.036538
vn -0.4722 -0.7823 -0.4062
vn -0.9068 -0.0368 -0.4199
vn -0.6001 -0.0554 -0.7980
vn -0.2600 0.9261 -0.2735
vn -0.4797 0.5931 -0.6466
vn -0.7028 0.6067 -0.3716
vn 0.0136 -0.8079 -0.5891
vn -0.2387 -0.0747 -0.9682
vn 0.2480 -0.0986 -0.9637
vn 0.0616 0.9090 -0.4123
vn 0.2122 0.5577 -0.8025
vn -0.1418 0.5751 -0.8057
vn 0.4596 -0.8274 -0.3229
vn 0.6063 -0.1146 -0.7869
vn 0.9064 -0.1258 -0.4032
vn 0.3707 0.8953 -0.2470
vn 0.7655 0.5346 -0.3581
vn 0.5472 0.5427 -0.6371
vn 0.5298 -0.8261 0.1921
vn 0.9919 -0.1264 -0.0125
vn 0.8795 -0.1165 0.4615
vn 0.4345 0.8953 0.0979
vn 0.7637 0.5412 0.3520
vn 0.8454 0.5340 0.0072
vn 0.1715 -0.8050 0.5680
vn 0.6277 -0.1012 0.7719
vn 0.1874 -0.0777 0.9792
vn 0.2049 0.9091 0.3628
vn 0.2080 0.5726 0.7930
vn 0.5282 0.5555 0.6422
vn -0.3456 -0.7800 0.5217
vn -0.2121 -0.0581 0.9755
vn -0.6487 -0.0386 0.7601
vn -0.1452 0.9262 0.3481
vn -0.4830 0.6051 0.6329
vn -0.1655 0.5910 0.7896
vn -0.6320 -0.7699 0.0882
vn -0.8950 -0.0294 0.4451
vn -0.9991 -0.0287 -0.0308
vn -0.3521 0.9337 0.0649
vn -0.7891 0.6143 -0.0078
vn -0.7133 0.6137 0.3384
vn -0.4280 -0.1405 -0.8928
vn -0.2305 -0.8923 -0.3881
vn -0.3040 0.6276 -0.7168
vn -0.0921 0.9485 -0.3033
vn -0.8292 0.3929 -0.3976
vn -0.5416 0.3755 -0.7521
vn 0.2081 0.3363 -0.9185
vn -0.1573 0.3542 -0.9218
vn 0.4285 -0.1825 -0.8849
vn 0.1491 -0.9109 -0.3846
vn 0.3771 0.5941 -0.7105
vn 0.1901 0.9346 -0.3007
vn 0.8511 0.3092 -0.4243
vn 0.6258 0.3177 -0.7124
vn 0.9566 -0.2022 -0.2096
vn 0.3833 -0.9197 -0.0853
vn 0.7971 0.5784 -0.1735
vn 0.3640 0.9281 -0.0782
vn 0.8663 0.3160 0.3869
vn 0.9507 0.3085 0.0310
vn 0.7588 -0.1848 0.6246
vn 0.2955 -0.9120 0.2845
vn 0.6397 0.5923 0.4899
vn 0.2988 0.9338 0.1966
vn 0.2423 0.3514 0.9043
vn 0.5728 0.3337 0.7486
vn -0.0161 -0.1433 0.9895
vn -0.0480 -0.8936 0.4463
vn 0.0235 0.6253 0.7801
vn 0.0436 0.9475 0.3168
vn -0.5511 0.3889 0.7383
vn -0.2233 0.3743 0.9000
vn -0.7846 -0.1091 0.6104
vn -0.3886 -0.8784 0.2782
vn -0.5875 0.6525 0.4786
vn -0.2095 0.9588 0.1919
vn -0.9163 0.4002 0.0139
vn -0.8381 0.3996 0.3712
vn -0.9678 -0.1078 -0.2273
vn -0.4698 -0.8778 -0.0931
vn -0.7333 0.6535 -0.1876
vn -0.2699 0.9592 -0.0841
vn -0.0491 -0.9988 0.0092
vn -0.3856 0.3404 -0.8575
vn -0.9015 0.3717 -0.2216
vn 0.0491 0.9988 -0.0092
vn 0.4328 0.3003 -0.8500
vn 0.9375 0.2814 -0.2047
vn 0.7484 0.2981 0.5925
vn 0.0079 0.3377 0.9412
vn -0.7264 0.3704 0.5789
vn -0.0737 0.8263 -0.5583
vn 0.2158 0.0628 -0.9744
vn -0.2702 0.0571 -0.9611
vn -0.0126 -0.8989 -0.4380
vn -0.1873 -0.5777 -0.7945
vn 0.1571 -0.5736 -0.8039
vn -0.5246 0.8045 -0.2787
vn -0.6288 0.0420 -0.7764
vn -0.9212 0.0150 -0.3888
vn -0.3026 -0.9118 -0.2776
vn -0.7064 -0.6099 -0.3592
vn -0.4993 -0.5908 -0.6338
vn -0.5865 0.7712 0.2476
vn -0.9999 -0.0103 0.0063
vn -0.8785 -0.0382 0.4763
vn -0.3577 -0.9326 0.0487
vn -0.6888 -0.6517 0.3175
vn -0.7749 -0.6319 -0.0155
vn -0.2127 0.7516 0.6243
vn -0.6181 -0.0546 0.7842
vn -0.1742 -0.0625 0.9827
vn -0.1364 -0.9456 0.2953
vn -0.1478 -0.6716 0.7261
vn -0.4623 -0.6660 0.5854
vn 0.3152 0.7605 0.5678
vn 0.2292 -0.0577 0.9717
vn 0.6612 -0.0396 0.7492
vn 0.1946 -0.9411 0.2765
vn 0.5092 -0.6545 0.5588
vn 0.2032 -0.6674 0.7164
vn 0.5997 0.7911 0.1205
vn 0.9039 -0.0172 0.4274
vn 0.9987 0.0133 -0.0485
vn 0.3861 -0.9224 0.0064
vn 0.7876 -0.6135 -0.0583
vn 0.7204 -0.6351 0.2789
vn 0.4267 0.8204 -0.3807
vn 0.8979 0.0365 -0.4387
vn 0.5842 0.0563 -0.8097
vn 0.2939 -0.9036 -0.3115
vn 0.4776 -0.5793 -0.6606
vn 0.6998 -0.5933 -0.3977
vn -0.4582 0.1359 -0.8784
vn -0.2110 0.9184 -0.3347
vn -0.3378 -0.6218 -0.7066
vn -0.1331 -0.9329 -0.3346
vn 0.1997 -0.3667 -0.9087
vn -0.2404 -0.3719 -0.8966
vn -0.8120 -0.4068 -0.4185
vn -0.5989 -0.3871 -0.7010
vn -0.9780 0.0879 -0.1893
vn -0.4406 0.8972 -0.0304
vn -0.0000 -1.0000 -0.0000
vn -0.2953 -0.9479 -0.1195
vn -0.8116 -0.4554 0.3660
vn -0.9001 -0.4350 0.0234
vn -0.7620 0.0383 0.6464
vn -0.3452 0.8753 0.3387
vn -0.0000 -0.4472 0.8944
vn -0.2279 -0.9634 0.1412
vn -0.1968 -0.4795 0.8552
vn -0.5203 -0.4738 0.7105
vn 0.0271 0.0244 0.9993
vn 0.0033 0.8691 0.4946
vn 0.0277 -0.7058 0.7079
vn 0.0183 -0.9677 0.2514
vn 0.5694 -0.4609 0.6807
vn 0.2546 -0.4742 0.8428
vn 0.7952 0.0567 0.6037
vn 0.3425 0.8834 0.3199
vn 0.6063 -0.6814 0.4099
vn 0.2580 -0.9576 0.1279
vn 0.9100 -0.4137 -0.0262
vn 0.8409 -0.4359 0.3207
vn 0.9638 0.1108 -0.2425
vn 0.4170 0.9073 -0.0539
vn 0.7333 -0.6406 -0.2276
vn 0.3106 -0.9407 -0.1361
vn 0.5686 -0.3733 -0.7330
vn 0.7973 -0.3878 -0.4626
vn 0.4060 0.1461 -0.9021
vn 0.1706 0.9229 -0.3452
vn -0.0000 -0.0000 -1.0000
vn 0.1365 -0.9297 -0.3420
vn -0.0101 0.9980 0.0619
vn -0.4177 -0.3477 -0.8394
vn 0.3792 -0.3383 -0.8612
vn 0.0101 -0.9980 -0.0619
vn -0.8971 -0.3920 -0.2039
vn -0.6979 -0.4378 0.5668
vn 0.0298 -0.4506 0.8922
vn 0.7381 -0.4208 0.5274
vn 0.8936 -0.3709 -0.2529
vn -0.0511 -0.9905 -0.1280
vn -0.3496 -0.9266 -0.1387
vn 0.0820 -0.9928 -0.0868
vn 0.0839 -0.9951 0.0525
vn -0.0480 -0.9941 0.0974
vn -0.6800 -0.7055 -0.2000
vn -0.0371 -0.7057 -0.7075
vn 0.6442 -0.7218 -0.2531
vn 0.4223 -0.7315 0.5353
vn -0.3960 -0.7214 0.5681
vn -0.7701 -0.3304 -0.5457
vn 0.2728 -0.3383 -0.9006
vn 0.9324 -0.3609 -0.0185
vn 0.2972 -0.3670 0.8815
vn -0.7550 -0.3481 0.5557
vn -0.1880 0.9403 -0.2837
vn 0.2342 0.9346 -0.2678
vn 0.3496 0.9266 0.1387
vn -0.0014 0.9274 0.3740
vn -0.3337 0.9359 0.1130
vn -0.0820 0.9928 0.0868
vn -0.1887 0.9679 0.1659
vn -0.1798 0.9306 0.3188
vn 0.0511 0.9905 0.1280
vn 0.0935 0.9628 0.2533
vn 0.2419 0.9256 0.2912
vn 0.1314 0.9912 0.0141
vn 0.2639 0.9645 0.0119
vn 0.3461 0.9307 -0.1183
vn 0.0480 0.9941 -0.0974
vn 0.0870 0.9705 -0.2247
vn -0.0112 0.9390 -0.3438
vn -0.0839 0.9951 -0.0525
vn -0.1928 0.9727 -0.1295
vn -0.3362 0.9389 -0.0737
vn -0.6442 0.7218 0.2531
vn -0.6919 0.4904 0.5299
vn -0.4072 0.7137 0.5699
vn 0.0371 0.7057 0.7075
vn 0.2871 0.4729 0.8331
vn 0.4117 0.7029 0.5800
vn 0.6800 0.7055 0.2000
vn 0.8781 0.4785 -0.0043
vn 0.6746 0.7118 -0.1957
vn 0.3960 0.7214 -0.5682
vn 0.2644 0.4995 -0.8250
vn 0.0181 0.7281 -0.6852
vn -0.4223 0.7315 -0.5353
vn -0.7059 0.5069 -0.4948
vn -0.6505 0.7293 -0.2120
vn -0.2728 0.3383 0.9006
vn -0.2644 -0.4995 0.8250
vn -0.0181 -0.7281 0.6852
vn 0.7701 0.3304 0.5457
vn 0.7059 -0.5069 0.4948
vn 0.6505 -0.7293 0.2120
vn 0.7550 0.3481 -0.5557
vn 0.6919 -0.4904 -0.5299
vn 0.4072 -0.7137 -0.5699
vn -0.2972 0.3670 -0.8815
vn -0.2871 -0.4729 -0.8331
vn -0.4117 -0.7029 -0.5800
vn -0.9324 0.3609 0.0185
vn -0.8781 -0.4785 0.0043
vn -0.6746 -0.7118 0.1957
vn -0.2342 -0.9346 0.2678
vn -0.0870 -0.9705 0.2247
vn 0.0112 -0.9390 0.3438
vn 0.1880 -0.9403 0.2837
vn 0.1928 -0.9727 0.1295
vn 0.3362 -0.9389 0.0737
vn 0.3337 -0.9359 -0.1130
vn 0.1887 -0.9679 -0.1659
vn 0.1798 -0.9306 -0.3188
vn -0.3461 -0.9307 0.1183
vn -0.2639 -0.9645 -0.0119
vn -0.1314 -0.9912 -0.0141
vn 0.0014 -0.9274 -0.3740
vn -0.0935 -0.9628 -0.2533
vn -0.2419 -0.9256 -0.2912
vn 0.6873 -0.2481 -0.6827
vn 0.3116 -0.0819 -0.9467
vn 0.9223 -0.1204 -0.3673
vn 0.3972 -0.0174 -0.9175
vn 0.7195 0.1012 -0.6871
vn 0.9563 -0.0505 -0.2879
vn 0.6668 -0.2287 0.7093
vn 0.9399 -0.1240 0.3182
vn 0.3644 -0.0527 0.9297
vn 0.6990 0.1205 0.7049
vn 0.2911 0.0265 0.9563
vn 0.9166 -0.0488 0.3967
vn -0.6990 -0.1205 -0.7049
vn -0.9474 0.0421 -0.3172
vn -0.3701 -0.0083 -0.9290
vn -0.6668 0.2287 -0.7093
vn -0.2836 0.0555 -0.9573
vn -0.9110 0.1098 -0.3975
vn -0.7195 -0.1012 0.6871
vn -0.3191 -0.0000 0.9477
vn -0.9279 0.0594 0.3681
vn -0.6872 0.2481 0.6827
vn -0.9487 0.1324 0.2870
vn -0.3916 0.0784 0.9168
vn 0.9431 -0.3321 0.0185
vn 0.9908 -0.1345 0.0164
vn 0.3946 -0.0479 -0.9176
vn 0.9255 -0.0900 -0.3679
vn 0.9879 0.1544 0.0124
vn 0.9987 -0.0486 0.0154
vn 0.3674 -0.0222 0.9298
vn 0.9143 -0.0793 0.3973
vn -0.0367 -0.2298 0.9726
vn -0.0187 -0.0291 0.9994
vn 0.0082 0.2567 0.9665
vn -0.0107 0.0569 0.9983
vn -0.9255 0.0900 0.3679
vn -0.3946 0.0479 0.9176
vn -0.9879 -0.1544 -0.0124
vn -0.9987 0.0486 -0.0154
vn -0.9431 0.3321 -0.0185
vn -0.9908 0.1345 -0.0164
vn -0.3674 0.0222 -0.9298
vn -0.9142 0.0793 -0.3973
vn -0.0082 -0.2567 -0.9665
vn 0.0107 -0.0569 -0.9983
vn 0.0367 0.2298 -0.9726
vn 0.0187 0.0291 -0.9994
vn -0.0918 -0.9957 0.0125
vn 0.9957 -0.0916 0.0159
vn 0.0147 -0.0139 -0.9998
vn 0.0918 0.9957 -0.0125
vn -0.0147 0.0139 0.9998
vn -0.9957 0.0916 -0.0159
vn 0.6789 -0.2863 -0.6761
vn 0.2854 -0.1739 -0.9425
vn 0.9156 -0.1095 -0.3868
vn 0.3678 -0.1016 -0.9243
vn 0.6894 0.0613 -0.7218
vn 0.9479 -0.0289 -0.3174
vn 0.7020 -0.1058 0.7042
vn 0.9554 -0.0320 0.2934
vn 0.3967 0.0771 0.9147
vn 0.7126 0.2418 0.6586
vn 0.3195 0.1545 0.9349
vn 0.9302 0.0504 0.3636
vn -0.7126 -0.2418 -0.6586
vn -0.9579 -0.0495 -0.2827
vn -0.3986 -0.1378 -0.9067
vn -0.7020 0.1058 -0.7042
vn -0.3171 -0.0730 -0.9456
vn -0.9283 0.0103 -0.3716
vn -0.6894 -0.0613 0.7217
vn -0.2879 0.0923 0.9532
vn -0.9175 0.0488 0.3948
vn -0.6789 0.2863 0.6761
vn -0.9454 0.1105 0.3067
vn -0.3660 0.1623 0.9163
vn 0.9618 -0.2731 0.0196
vn 0.9972 -0.0748 -0.0069
vn 0.3671 -0.1320 -0.9208
vn 0.9170 -0.0792 -0.3910
vn 0.9765 0.2111 -0.0440
vn 0.9998 0.0108 -0.0182
vn 0.3978 0.1075 0.9111
vn 0.9297 0.0200 0.3678
vn 0.0088 -0.1164 0.9932
vn 0.0153 0.0867 0.9961
vn 0.0235 0.3678 0.9296
vn 0.0179 0.1723 0.9849
vn -0.9170 0.0792 0.3910
vn -0.3671 0.1320 0.9208
vn -0.9765 -0.2111 0.0440
vn -0.9998 -0.0108 0.0182
vn -0.9618 0.2731 -0.0196
vn -0.9972 0.0748 0.0069
vn -0.3978 -0.1075 -0.9111
vn -0.9297 -0.0200 -0.3678
vn -0.0235 -0.3678 -0.9296
vn -0.0179 -0.1723 -0.9849
vn -0.0088 0.1164 -0.9932
vn -0.0153 -0.0867 -0.9961
vn -0.0301 -0.9910 0.1301
vn 0.9994 -0.0320 -0.0126
vn -0.0166 -0.1296 -0.9914
vn 0.0301 0.9910 -0.1301
vn 0.0166 0.1296 0.9914
vn -0.9994 0.0320 0.0126
vn 0.7351 -0.1807 -0.6535
vn 0.3543 -0.0578 -0.9334
vn 0.9431 -0.0258 -0.3314
vn 0.4315 0.0157 -0.9020
vn 0.7305 0.1699 -0.6615
vn 0.9666 0.0481 -0.2518
vn 0.6597 -0.1499 0.7365
vn 0.9349 -0.0208 0.3543
vn 0.3323 -0.0047 0.9432
vn 0.6551 0.2007 0.7284
vn 0.2501 0.0665 0.9659
vn 0.9009 0.0523 0.4309
vn -0.6551 -0.2007 -0.7284
vn -0.9338 -0.0615 -0.3524
vn -0.3315 -0.0565 -0.9418
vn -0.6597 0.1499 -0.7364
vn -0.2512 0.0158 -0.9678
vn -0.9017 0.0089 -0.4322
vn -0.7304 -0.1699 0.6615
vn -0.3532 -0.0245 0.9352
vn -0.9423 -0.0354 0.3328
vn -0.7351 0.1807 0.6535
vn -0.9677 0.0341 0.2500
vn -0.4323 0.0455 0.9006
vn 0.9714 -0.2303 0.0578
vn 0.9981 -0.0288 0.0548
vn 0.4321 -0.0149 -0.9017
vn 0.9432 0.0048 -0.3323
vn 0.9650 0.2581 0.0466
vn 0.9969 0.0575 0.0528
vn 0.3321 0.0259 0.9429
vn 0.9017 0.0217 0.4318
vn -0.0493 -0.2228 0.9736
vn -0.0535 -0.0211 0.9983
vn -0.0557 0.2656 0.9625
vn -0.0547 0.0652 0.9964
vn -0.9432 -0.0048 0.3323
vn -0.4321 0.0149 0.9017
vn -0.9650 -0.2581 -0.0466
vn -0.9969 -0.0575 -0.0528
vn -0.9714 0.2303 -0.0578
vn -0.9981 0.0288 -0.0548
vn -0.3321 -0.0259 -0.9429
vn -0.9017 -0.0217 -0.4317
vn 0.0557 -0.2656 -0.9625
vn 0.0547 -0.0652 -0.9964
vn 0.0493 0.2228 -0.9736
vn 0.0535 0.0211 -0.9983
vn 0.0132 -0.9997 0.0228
vn 0.9984 0.0144 0.0538
vn 0.0541 -0.0221 -0.9983
vn -0.0132 0.9997 -0.0228
vn -0.0541 0.0221 0.9983
vn -0.9984 -0.0144 -0.0538
vn 0.7191 -0.1479 -0.6790
vn 0.3276 -0.0268 -0.9444
vn 0.9332 0.0036 -0.3592
vn 0.4041 0.0476 -0.9135
vn 0.7066 0.2026 -0.6780
vn 0.9574 0.0761 -0.2785
vn 0.6844 -0.1531 0.7128
vn 0.9453 -0.0084 0.3262
vn 0.3602 -0.0204 0.9326
vn 0.6719 0.1974 0.7139
vn 0.2772 0.0484 0.9596
vn 0.9119 0.0620 0.4056
vn -0.6719 -0.1974 -0.7139
vn -0.9423 -0.0739 -0.3265
vn -0.3580 -0.0408 -0.9328
vn -0.6844 0.1531 -0.7129
vn -0.2801 0.0339 -0.9594
vn -0.9141 -0.0008 -0.4054
vn -0.7066 -0.2026 0.6780
vn -0.3246 -0.0554 0.9442
vn -0.9310 -0.0649 0.3592
vn -0.7191 0.1479 0.6790
vn -0.9603 0.0062 0.2788
vn -0.4063 0.0136 0.9137
vn 0.9775 -0.2097 0.0236
vn 0.9997 -0.0076 0.0249
vn 0.4054 0.0170 -0.9140
vn 0.9326 0.0343 -0.3594
vn 0.9601 0.2786 0.0250
vn 0.9966 0.0787 0.0252
vn 0.3593 0.0102 0.9332
vn 0.9135 0.0314 0.4057
vn -0.0155 -0.2477 0.9687
vn -0.0234 -0.0469 0.9986
vn -0.0329 0.2405 0.9701
vn -0.0265 0.0394 0.9989
vn -0.9325 -0.0343 0.3594
vn -0.4054 -0.0170 0.9140
vn -0.9601 -0.2786 -0.0250
vn -0.9966 -0.0787 -0.0252
vn -0.9775 0.2097 -0.0236
vn -0.9997 0.0076 -0.0249
vn -0.3593 -0.0102 -0.9332
vn -0.9135 -0.0314 -0.4057
vn 0.0329 -0.2405 -0.9701
vn 0.0265 -0.0395 -0.9989
vn 0.0155 0.2477 -0.9687
vn 0.0234 0.0469 -0.9986
vn 0.0356 -0.9994 -0.0028
vn 0.9991 0.0355 0.0251
vn 0.0249 0.0037 -0.9997
vn -0.0356 0.9994 0.0028
vn -0.0249 -0.0037 0.9997
vn -0.9991 -0.0355 -0.0251
vn 0.6475 -0.1143 -0.7534
vn 0.2379 0.0388 -0.9705
vn 0.8956 0.0051 -0.4449
vn 0.3195 0.1083 -0.9414
vn 0.6479 0.2352 -0.7245
vn 0.9297 0.0701 -0.3615
vn 0.7412 -0.2291 0.6310
vn 0.9704 -0.0618 0.2336
vn 0.4437 -0.1050 0.8900
vn 0.7416 0.1205 0.6599
vn 0.3661 -0.0361 0.9299
vn 0.9471 0.0031 0.3208
vn -0.7416 -0.1204 -0.6599
vn -0.9705 -0.0203 -0.2404
vn -0.4438 0.0439 -0.8950
vn -0.7412 0.2291 -0.6310
vn -0.3660 0.1182 -0.9231
vn -0.9471 0.0580 -0.3158
vn -0.6479 -0.2352 0.7245
vn -0.2379 -0.1208 0.9637
vn -0.8956 -0.0661 0.4398
vn -0.6475 0.1143 0.7534
vn -0.9296 0.0119 0.3683
vn -0.3195 -0.0473 0.9464
vn 0.9672 -0.2392 -0.0853
vn 0.9968 -0.0386 -0.0707
vn 0.3196 0.0778 -0.9443
vn 0.8960 0.0356 -0.4426
vn 0.9678 0.2477 -0.0450
vn 0.9969 0.0474 -0.0635
vn 0.4440 -0.0745 0.8929
vn 0.9475 -0.0275 0.3185
vn 0.0650 -0.3234 0.9440
vn 0.0672 -0.1254 0.9898
vn 0.0655 0.1635 0.9844
vn 0.0673 -0.0393 0.9970
vn -0.8960 -0.0356 0.4426
vn -0.3196 -0.0778 0.9443
vn -0.9678 -0.2477 0.0450
vn -0.9969 -0.0474 0.0635
vn -0.9672 0.2392 0.0853
vn -0.9968 0.0386 0.0707
vn -0.4440 0.0745 -0.8929
vn -0.9475 0.0275 -0.3185
vn -0.0655 -0.1635 -0.9844
vn -0.0673 0.0393 -0.9970
vn -0.0650 0.3234 -0.9440
vn -0.0672 0.1254 -0.9898
vn -0.0012 -0.9966 -0.0825
vn 0.9977 0.0044 -0.0672
vn -0.0673 0.0824 -0.9943
vn 0.0012 0.9966 0.0825
vn 0.0673 -0.0824 0.9943
vn -0.9977 -0.0044 0.0672
vn -0.5324 -0.7787 -0.3320
vn -0.9352 0.0428 -0.3515
vn -0.5353 0.0186 -0.8444
vn -0.2767 0.9271 -0.2529
vn -0.4454 0.5389 -0.7150
vn -0.7651 0.5583 -0.3209
vn -0.0819 -0.8032 -0.5900
vn -0.3089 0.0064 -0.9511
vn 0.3255 -0.0247 -0.9452
vn 0.0352 0.9103 -0.4125
vn 0.2864 0.5020 -0.8161
vn -0.2208 0.5269 -0.8208
vn 0.4007 -0.8252 -0.3982
vn 0.5500 -0.0347 -0.8344
vn 0.9412 -0.0493 -0.3343
vn 0.3544 0.8959 -0.2678
vn 0.8218 0.4804 -0.3063
vn 0.5091 0.4921 -0.7062
vn 0.5519 -0.8280 0.0991
vn 0.9948 -0.0497 -0.0895
vn 0.8482 -0.0368 0.5284
vn 0.4406 0.8948 0.0722
vn 0.7578 0.4903 0.4305
vn 0.8750 0.4800 -0.0635
vn 0.2579 -0.8096 0.5273
vn 0.6904 -0.0272 0.7229
vn 0.1165 0.0035 0.9932
vn 0.2288 0.9078 0.3515
vn 0.1425 0.5244 0.8395
vn 0.6013 0.4998 0.6234
vn -0.2599 -0.7838 0.5640
vn -0.1338 0.0158 0.9909
vn -0.7029 0.0411 0.7101
vn -0.1215 0.9251 0.3598
vn -0.5608 0.5568 0.6127
vn -0.1058 0.5365 0.8372
vn -0.6116 -0.7701 0.1816
vn -0.8573 0.0469 0.5127
vn -0.9930 0.0479 -0.1078
vn -0.3464 0.9337 0.0908
vn -0.8224 0.5633 -0.0791
vn -0.7139 0.5626 0.4169
vn -0.8088 0.3907 -0.4396
vn -0.5785 0.3768 -0.7235
vn 0.2535 0.3350 -0.9075
vn -0.2028 0.3574 -0.9117
vn 0.1900 0.9346 -0.3007
vn 0.8708 0.3095 -0.3820
vn 0.5895 0.3200 -0.7417
vn 0.8456 0.3182 0.4287
vn 0.9510 0.3089 -0.0157
vn 0.1967 0.3546 0.9141
vn 0.6095 0.3325 0.7197
vn -0.5871 0.3912 0.7087
vn -0.1778 0.3729 0.9107
vn -0.9157 0.4005 -0.0329
vn -0.8181 0.3998 0.4134
vn 0.0235 0.8275 -0.5610
vn 0.2892 -0.0156 -0.9571
vn -0.3407 -0.0230 -0.9399
vn 0.0098 -0.8986 -0.4386
vn -0.2591 -0.5317 -0.8063
vn 0.2270 -0.5260 -0.8197
vn -0.4661 0.8099 -0.3562
vn -0.5655 -0.0324 -0.8241
vn -0.9444 -0.0674 -0.3218
vn -0.2891 -0.9105 -0.2956
vn -0.7628 -0.5676 -0.3099
vn -0.4704 -0.5406 -0.6975
vn -0.6107 0.7768 0.1537
vn -0.9938 -0.0833 -0.0741
vn -0.8364 -0.1194 0.5350
vn -0.3633 -0.9313 0.0270
vn -0.6877 -0.6104 0.3930
vn -0.8092 -0.5825 -0.0770
vn -0.3014 0.7532 0.5847
vn -0.6731 -0.1297 0.7281
vn -0.0979 -0.1399 0.9853
vn -0.1569 -0.9453 0.2861
vn -0.0904 -0.6279 0.7730
vn -0.5343 -0.6201 0.5745
vn 0.2288 0.7568 0.6122
vn 0.1550 -0.1369 0.9784
vn 0.7149 -0.1134 0.6900
vn 0.1746 -0.9419 0.2868
vn 0.5794 -0.6069 0.5440
vn 0.1474 -0.6251 0.7665
vn 0.5808 0.7850 0.2156
vn 0.8670 -0.0993 0.4883
vn 0.9899 -0.0598 -0.1285
vn 0.3817 -0.9238 0.0284
vn 0.8173 -0.5633 -0.1216
vn 0.7224 -0.5937 0.3544
vn 0.4894 0.8164 -0.3065
vn 0.9267 -0.0453 -0.3731
vn 0.5201 -0.0196 -0.8539
vn 0.3084 -0.9046 -0.2944
vn 0.4441 -0.5298 -0.7226
vn 0.7579 -0.5496 -0.3515
vn -0.0000 1.0000 -0.0000
vn 0.1565 -0.3660 -0.9174
vn -0.1978 -0.3702 -0.9076
vn -0.8299 -0.4100 -0.3783
vn -0.5652 -0.3856 -0.7293
vn -0.7294 -0.6579 -0.1875
vn -0.7912 -0.4582 0.4050
vn -0.9012 -0.4329 -0.0206
vn -0.5667 -0.6953 0.4421
vn -0.1535 -0.4802 0.8636
vn -0.5554 -0.4731 0.6839
vn -0.0000 -0.7071 0.7071
vn 0.6030 -0.4594 0.6522
vn 0.2118 -0.4758 0.8536
vn -0.0000 0.4472 -0.8944
vn 0.9087 -0.4115 -0.0702
vn 0.8228 -0.4391 0.3608
vn -0.0000 -0.2425 -0.9701
vn 0.5333 -0.3726 -0.7594
vn 0.8174 -0.3905 -0.4235
vn 0.3132 -0.6141 -0.7245
vn -0.8000 -0.6000 -0.0000
vn -0.0000 -0.0000 1.0000
vn -0.0000 0.1789 -0.9839
vn 0.2425 -0.0000 -0.9701
vn 0.6697 -0.3179 -0.6711
vn 0.3916 -0.0784 -0.9168
vn 0.9488 -0.1324 -0.2869
vn 0.3191 -0.0000 -0.9477
vn 0.7150 0.1733 -0.6773
vn 0.9279 -0.0594 -0.3681
vn 0.6496 -0.2989 0.6991
vn 0.9110 -0.1098 0.3976
vn 0.2836 -0.0555 0.9573
vn 0.6949 0.1923 0.6929
vn 0.3701 0.0083 0.9290
vn 0.9474 -0.0421 0.3172
vn -0.6948 -0.1923 -0.6930
vn -0.9166 0.0488 -0.3968
vn -0.2911 -0.0265 -0.9563
vn -0.6496 0.2989 -0.6991
vn -0.3645 0.0527 -0.9297
vn -0.9399 0.1240 -0.3182
vn -0.7150 -0.1733 0.6773
vn -0.3972 0.0174 0.9175
vn -0.9563 0.0505 0.2880
vn -0.6698 0.3179 0.6711
vn -0.9223 0.1204 0.3673
vn -0.3116 0.0819 0.9467
vn 0.9142 -0.0793 0.3973
vn 0.6660 -0.3552 -0.6559
vn 0.3660 -0.1623 -0.9163
vn 0.9454 -0.1105 -0.3067
vn 0.2879 -0.0923 -0.9532
vn 0.6809 0.1337 -0.7201
vn 0.9175 -0.0488 -0.3948
vn 0.6888 -0.1776 0.7028
vn 0.9283 -0.0103 0.3716
vn 0.3171 0.0730 0.9456
vn 0.7037 0.3114 0.6387
vn 0.3985 0.1378 0.9067
vn 0.9579 0.0495 0.2827
vn -0.7037 -0.3114 -0.6386
vn -0.9302 -0.0504 -0.3636
vn -0.3195 -0.1545 -0.9349
vn -0.6888 0.1775 -0.7029
vn -0.3967 -0.0771 -0.9147
vn -0.9554 0.0320 -0.2934
vn -0.6809 -0.1337 0.7201
vn -0.3678 0.1016 0.9243
vn -0.9479 0.0289 0.3174
vn -0.6660 0.3552 0.6559
vn -0.9156 0.1095 0.3869
vn -0.2854 0.1739 0.9425
vn 0.7245 -0.2519 -0.6416
vn 0.4323 -0.0455 -0.9006
vn 0.9676 -0.0341 -0.2500
vn 0.3532 0.0245 -0.9352
vn 0.7181 0.2413 -0.6528
vn 0.9423 0.0354 -0.3328
vn 0.6503 -0.2216 0.7266
vn 0.9017 -0.0089 0.4323
vn 0.2512 -0.0158 0.9678
vn 0.6439 0.2715 0.7153
vn 0.3315 0.0565 0.9417
vn 0.9338 0.0615 0.3525
vn -0.6438 -0.2715 -0.7153
vn -0.9009 -0.0523 -0.4308
vn -0.2501 -0.0665 -0.9659
vn -0.6504 0.2216 -0.7266
vn -0.3323 0.0047 -0.9432
vn -0.9349 0.0208 -0.3544
vn -0.7181 -0.2413 0.6528
vn -0.4315 -0.0157 0.9020
vn -0.9666 -0.0481 0.2518
vn -0.7245 0.2519 0.6416
vn -0.9431 0.0258 0.3314
vn -0.3543 0.0578 0.9334
vn -0.9017 -0.0217 -0.4318
vn 0.7105 -0.2196 -0.6686
vn 0.4063 -0.0136 -0.9137
vn 0.9603 -0.0062 -0.2789
vn 0.3246 0.0554 -0.9442
vn 0.6929 0.2734 -0.6672
vn 0.9310 0.0648 -0.3592
vn 0.6763 -0.2247 0.7015
vn 0.9141 0.0008 0.4054
vn 0.2801 -0.0339 0.9594
vn 0.6587 0.2683 0.7029
vn 0.3580 0.0408 0.9328
vn 0.9423 0.0739 0.3266
vn -0.6587 -0.2683 -0.7029
vn -0.9119 -0.0620 -0.4056
vn -0.2771 -0.0484 -0.9596
vn -0.6763 0.2247 -0.7015
vn -0.3602 0.0204 -0.9326
vn -0.9452 0.0084 -0.3263
vn -0.6929 -0.2734 0.6672
vn -0.4041 -0.0476 0.9135
vn -0.9574 -0.0761 0.2786
vn -0.7105 0.2196 0.6686
vn -0.9332 -0.0036 0.3593
vn -0.3276 0.0268 0.9444
vn -0.9326 -0.0343 0.3594
vn 0.0329 -0.2406 -0.9701
vn 0.6373 -0.1863 -0.7478
vn 0.3195 0.0473 -0.9464
vn 0.9296 -0.0119 -0.3683
vn 0.2379 0.1208 -0.9637
vn 0.6379 0.3053 -0.7070
vn 0.8956 0.0661 -0.4398
vn 0.7295 -0.2993 0.6150
vn 0.9471 -0.0580 0.3158
vn 0.3660 -0.1182 0.9231
vn 0.7301 0.1924 0.6557
vn 0.4438 -0.0439 0.8950
vn 0.9705 0.0203 0.2404
vn -0.7301 -0.1924 -0.6557
vn -0.9471 -0.0031 -0.3209
vn -0.3661 0.0361 -0.9299
vn -0.7295 0.2993 -0.6150
vn -0.4437 0.1050 -0.8900
vn -0.9704 0.0618 -0.2336
vn -0.6379 -0.3053 0.7070
vn -0.3195 -0.1083 0.9414
vn -0.9297 -0.0701 0.3615
vn -0.6373 0.1863 0.7478
vn -0.8956 -0.0051 0.4449
vn -0.2378 -0.0388 0.9705
vt 0.276460 -0.075000
vt 0.276460 -0.069412
vt 0.265816 -0.071128
vt 0.276460 -0.061779
vt 0.287104 -0.071128
vt 0.291479 -0.061779
vt 0.261441 -0.061779
vt 0.276460 0.075000
vt 0.276460 0.069590
vt 0.305863 0.071128
vt 0.276460 0.062636
vt 0.247057 0.071128
vt 0.236711 0.061779
vt 0.316210 0.061779
vt 0.194909 -0.075000
vt 0.195154 -0.069412
vt 0.184598 -0.071128
vt 0.195154 -0.061779
vt 0.205593 -0.071128
vt 0.209936 -0.061779
vt 0.180309 -0.061779
vt 0.183428 0.075000
vt 0.190245 0.069590
vt 0.217933 0.071128
vt 0.191335 0.062636
vt 0.162042 0.071128
vt 0.153694 0.061779
vt 0.230347 0.061779
vt 0.115385 -0.075000
vt 0.115673 -0.069412
vt 0.105409 -0.071128
vt 0.115673 -0.061779
vt 0.125797 -0.071128
vt 0.130023 -0.061779
vt 0.101245 -0.061779
vt 0.103585 0.075000
vt 0.110214 0.069590
vt 0.135315 0.071128
vt 0.111372 0.062636
vt 0.084428 0.071128
vt 0.076338 0.061779
vt 0.147729 0.061779
vt 0.038148 -0.075000
vt 0.038271 -0.069412
vt 0.028265 -0.071128
vt 0.038271 -0.061779
vt 0.048215 -0.071128
vt 0.052334 -0.061779
vt 0.024173 -0.061779
vt 0.033521 0.075000
vt 0.036033 0.069590
vt 0.059845 0.071128
vt 0.036493 0.062636
vt 0.011916 0.071128
vt 0.002721 0.061779
vt 0.070756 0.061779
vt 0.514772 -0.075000
vt 0.514649 -0.069412
vt 0.504705 -0.071128
vt 0.514650 -0.061779
vt 0.524655 -0.071128
vt 0.528748 -0.061779
vt 0.500586 -0.061779
vt 0.519400 0.075000
vt 0.516888 0.069590
vt 0.541004 0.071128
vt 0.516427 0.062636
vt 0.493076 0.071128
vt 0.482165 0.061779
vt 0.550200 0.061779
vt 0.437535 -0.075000
vt 0.437247 -0.069412
vt 0.427123 -0.071128
vt 0.437247 -0.061779
vt 0.447512 -0.071128
vt 0.451675 -0.061779
vt 0.422897 -0.061779
vt 0.449336 0.075000
vt 0.442706 0.069590
vt 0.468492 0.071128
vt 0.441548 0.062636
vt 0.417605 0.071128
vt 0.405191 0.061779
vt 0.476583 0.061779
vt 0.358011 -0.075000
vt 0.357766 -0.069412
vt 0.347328 -0.071128
vt 0.357766 -0.061779
vt 0.368323 -0.071128
vt 0.372611 -0.061779
vt 0.342984 -0.061779
vt 0.369492 0.075000
vt 0.362675 0.069590
vt 0.390879 0.071128
vt 0.361585 0.062636
vt 0.334987 0.071128
vt 0.322573 0.061779
vt 0.399226 0.061779
vt 0.581186 -0.071128
vt 0.577093 -0.061779
vt 0.591069 -0.075000
vt 0.555641 0.061779
vt 0.586441 0.075000
vt 0.276460 -0.065000
vt 0.276460 -0.059708
vt 0.266002 -0.061333
vt 0.276460 -0.052479
vt 0.286919 -0.061333
vt 0.291363 -0.052479
vt 0.261557 -0.052479
vt 0.276460 0.065000
vt 0.276460 0.059909
vt 0.310723 0.061333
vt 0.276460 0.053448
vt 0.242198 0.061333
vt 0.232717 0.052479
vt 0.320203 0.052479
vt 0.194650 -0.065000
vt 0.194898 -0.059708
vt 0.184540 -0.061333
vt 0.194878 -0.052479
vt 0.205136 -0.061333
vt 0.209516 -0.052479
vt 0.180170 -0.052479
vt 0.175775 0.065000
vt 0.188122 0.059909
vt 0.219837 0.061333
vt 0.189825 0.053448
vt 0.155889 0.061333
vt 0.149124 0.052479
vt 0.115083 -0.065000
vt 0.115373 -0.059708
vt 0.105332 -0.061333
vt 0.115350 -0.052479
vt 0.125270 -0.061333
vt 0.129509 -0.052479
vt 0.101102 -0.052479
vt 0.097202 0.065000
vt 0.108040 0.059909
vt 0.135967 0.061333
vt 0.109776 0.053448
vt 0.079296 0.061333
vt 0.072451 0.052479
vt 0.038020 -0.065000
vt 0.038143 -0.059708
vt 0.028379 -0.061333
vt 0.038133 -0.052479
vt 0.047846 -0.061333
vt 0.051981 -0.052479
vt 0.024247 -0.052479
vt 0.031273 0.065000
vt 0.035186 0.059909
vt 0.061347 0.061333
vt 0.035860 0.053448
vt 0.008649 0.061333
vt 0.000000 0.052479
vt 0.514900 -0.065000
vt 0.514777 -0.059708
vt 0.505074 -0.061333
vt 0.514787 -0.052479
vt 0.524542 -0.061333
vt 0.528673 -0.052479
vt 0.500940 -0.052479
vt 0.521647 0.065000
vt 0.517734 0.059909
vt 0.544271 0.061333
vt 0.517060 0.053448
vt 0.491573 0.061333
vt 0.480470 0.052479
vt 0.552920 0.052479
vt 0.437838 -0.065000
vt 0.437548 -0.059708
vt 0.427650 -0.061333
vt 0.437571 -0.052479
vt 0.447588 -0.061333
vt 0.451818 -0.052479
vt 0.423411 -0.052479
vt 0.455719 0.065000
vt 0.444880 0.059909
vt 0.473624 0.061333
vt 0.443144 0.053448
vt 0.416953 0.061333
vt 0.403796 0.052479
vt 0.358271 -0.065000
vt 0.358022 -0.059708
vt 0.347784 -0.061333
vt 0.358042 -0.052479
vt 0.368380 -0.061333
vt 0.372750 -0.052479
vt 0.343404 -0.052479
vt 0.377146 0.065000
vt 0.364798 0.059909
vt 0.397031 0.061333
vt 0.363095 0.053448
vt 0.333083 0.061333
vt 0.577167 -0.052479
vt 0.581299 -0.061333
vt 0.590940 -0.065000
vt 0.561570 0.061333
vt 0.584194 0.065000
vt 0.500000 0.500000
vt 0.541682 0.469717
vt 0.484079 0.451000
vt 0.570913 0.448479
vt 0.583363 0.500000
vt 0.448478 0.500000
vt 0.484079 0.549000
vt 0.541682 0.530283
vt 0.593204 0.469717
vt 0.472914 0.416636
vt 0.525761 0.420717
vt 0.500000 0.402000
vt 0.412346 0.500000
vt 0.432557 0.451000
vt 0.406796 0.469717
vt 0.472914 0.583364
vt 0.432557 0.549000
vt 0.442397 0.579284
vt 0.570913 0.551521
vt 0.525761 0.579283
vt 0.557603 0.579284
vt 0.448479 0.485099
vt 0.469717 0.500000
vt 0.420716 0.500000
vt 0.472914 0.485099
vt 0.442397 0.500000
vt 0.500000 0.485099
vt 0.530283 0.500000
vt 0.551521 0.485099
vt 0.579284 0.500000
vt 0.527086 0.416636
vt 0.567443 0.451000
vt 0.515921 0.451000
vt 0.429086 0.448479
vt 0.474239 0.420717
vt 0.458318 0.469717
vt 0.429086 0.551521
vt 0.416637 0.500000
vt 0.458318 0.530283
vt 0.527086 0.583364
vt 0.474239 0.579283
vt 0.515921 0.549000
vt 0.587654 0.500000
vt 0.567443 0.549000
vt 0.551522 0.500000
vt 0.593204 0.530283
vt 0.549000 0.517518
vt 0.500000 0.598000
vt 0.474239 0.517518
vt 0.406796 0.530283
vt 0.500000 0.517518
vt 0.442397 0.420716
vt 0.557603 0.420716
vt 0.451000 0.517518
vt 0.557603 0.500000
vt 0.527086 0.514901
vt 0.525761 0.482482
vt 0.551521 0.514901
vt 0.549000 0.482482
vt 0.448479 0.514901
vt 0.451000 0.482482
vt 0.500000 0.514901
vt 0.500000 0.482482
vt 0.488336 0.385943
vt 0.488098 0.385943
vt 0.488336 0.385000
vt 0.488336 0.388220
vt 0.488142 0.386361
vt 0.488098 0.388220
vt 0.488336 0.611780
vt 0.488142 0.613639
vt 0.488098 0.611780
vt 0.488098 0.614057
vt 0.488336 0.614057
vt 0.488336 0.615000
vt 0.511664 0.388220
vt 0.511858 0.386361
vt 0.511664 0.385943
vt 0.511664 0.611780
vt 0.511858 0.613639
vt 0.511902 0.611780
vt 0.511902 0.385943
vt 0.511664 0.385000
vt 0.511902 0.388220
vt 0.511664 0.614057
vt 0.511902 0.614057
vt 0.511664 0.615000
vt 0.511664 0.511664
vt 0.488336 0.488336
vt 0.488336 0.511664
vt 0.511664 0.488336
vt 0.564837 0.071128
vt 0.668306 -0.075000
vt 0.656505 0.075000
vt 0.668003 -0.065000
vt 0.650122 0.065000
s 0
usemtl bark
f 1/1/1 5/2/1 7/3/1
f 6/4/2 4/5/2 2/6/2
f 7/3/3 6/4/3 3/7/3
f 8/8/4 12/9/4 14/10/4
f 13/11/5 11/12/5 9/13/5
f 14/10/6 13/11/6 10/14/6
f 15/15/7 19/16/7 21/17/7
f 20/18/8 18/19/8 16/20/8
f 21/17/9 20/18/9 17/21/9
f 22/22/10 26/23/10 28/24/10
f 27/25/11 25/26/11 23/27/11
f 28/24/12 27/25/12 24/28/12
f 29/29/13 33/30/13 35/31/13
f 34/32/14 32/33/14 30/34/14
f 35/31/15 34/32/15 31/35/15
f 36/36/16 40/37/16 42/38/16
f 41/39/17 39/40/17 37/41/17
f 42/38/18 41/39/18 38/42/18
f 43/43/19 47/44/19 49/45/19
f 48/46/20 46/47/20 44/48/20
f 49/45/21 48/46/21 45/49/21
f 50/50/22 54/51/22 56/52/22
f 55/53/23 53/54/23 51/55/23
f 56/52/24 55/53/24 52/56/24
f 57/57/25 61/58/25 63/59/25
f 62/60/26 60/61/26 58/62/26
f 63/59/27 62/60/27 59/63/27
f 64/64/28 68/65/28 70/66/28
f 69/67/29 67/68/29 65/69/29
f 70/66/30 69/67/30 66/70/30
f 71/71/31 75/72/31 77/73/31
f 76/74/32 74/75/32 72/76/32
f 77/73/33 76/74/33 73/77/33
f 78/78/34 82/79/34 84/80/34
f 83/81/35 81/82/35 79/83/35
f 84/80/36 83/81/36 80/84/36
f 85/85/37 89/86/37 91/87/37
f 90/88/38 88/89/38 86/90/38
f 91/87/39 90/88/39 87/91/39
f 92/92/40 96/93/40 98/94/40
f 97/95/41 95/96/41 93/97/41
f 98/94/42 97/95/42 94/98/42
f 3/7/43 18/19/43 7/3/43
f 18/19/44 1/1/44 7/3/44
f 24/28/45 11/12/45 28/24/45
f 28/24/46 8/8/46 22/22/46
f 2/6/47 13/11/47 6/4/47
f 13/11/48 3/7/48 6/4/48
f 17/21/49 27/25/49 23/27/49
f 27/25/50 16/20/50 24/28/50
f 17/21/51 32/33/51 21/17/51
f 32/33/52 15/15/52 21/17/52
f 38/42/53 25/26/53 42/38/53
f 25/26/54 36/36/54 42/38/54
f 31/35/55 41/39/55 37/41/55
f 41/39/56 30/34/56 38/42/56
f 44/48/57 35/31/57 31/35/57
f 46/47/58 29/29/58 35/31/58
f 52/56/59 39/40/59 56/52/59
f 39/40/60 50/50/60 56/52/60
f 45/49/61 55/53/61 51/55/61
f 55/53/62 44/48/62 52/56/62
f 58/62/63 49/99/63 45/100/63
f 49/99/64 57/57/64 43/101/64
f 51/102/65 70/66/65 66/70/65
f 70/66/66 50/103/66 64/64/66
f 59/63/67 69/67/67 65/69/67
f 69/67/68 58/62/68 66/70/68
f 72/76/69 63/59/69 59/63/69
f 63/59/70 71/71/70 57/57/70
f 65/69/71 84/80/71 80/84/71
f 67/68/72 78/78/72 84/80/72
f 73/77/73 83/81/73 79/83/73
f 83/81/74 72/76/74 80/84/74
f 86/90/75 77/73/75 73/77/75
f 88/89/76 71/71/76 77/73/76
f 94/98/77 81/82/77 98/94/77
f 98/94/78 78/78/78 92/92/78
f 87/91/79 97/95/79 93/97/79
f 97/95/80 86/90/80 94/98/80
f 2/6/81 91/87/81 87/91/81
f 4/5/82 85/85/82 91/87/82
f 93/97/83 14/10/83 10/14/83
f 14/10/84 92/92/84 8/8/84
f 15/15/85 43/101/85 71/71/85
f 9/13/86 16/20/86 3/7/86
f 87/91/87 10/14/87 2/6/87
f 8/8/88 78/78/88 50/103/88
f 17/21/89 38/42/89 30/34/89
f 37/41/90 44/48/90 31/35/90
f 51/102/91 58/62/91 45/100/91
f 65/69/92 72/76/92 59/63/92
f 79/83/93 86/90/93 73/77/93
f 99/104/94 103/105/94 105/106/94
f 104/107/95 102/108/95 100/109/95
f 105/106/96 104/107/96 101/110/96
f 106/111/97 110/112/97 112/113/97
f 111/114/98 109/115/98 107/116/98
f 112/113/99 111/114/99 108/117/99
f 113/118/100 117/119/100 119/120/100
f 118/121/101 116/122/101 114/123/101
f 119/120/102 118/121/102 115/124/102
f 120/125/103 124/126/103 126/127/103
f 125/128/104 123/129/104 121/130/104
f 126/127/105 125/128/105 122/116/105
f 127/131/106 131/132/106 133/133/106
f 132/134/107 130/135/107 128/136/107
f 133/133/108 132/134/108 129/137/108
f 134/138/109 138/139/109 140/140/109
f 139/141/110 137/142/110 135/143/110
f 140/140/111 139/141/111 136/130/111
f 141/144/112 145/145/112 147/146/112
f 146/147/113 144/148/113 142/149/113
f 147/146/114 146/147/114 143/150/114
f 148/151/115 152/152/115 154/153/115
f 153/154/116 151/155/116 149/156/116
f 154/153/117 153/154/117 150/143/117
f 155/157/118 159/158/118 161/159/118
f 160/160/119 158/161/119 156/162/119
f 161/159/120 160/160/120 157/163/120
f 162/164/121 166/165/121 168/166/121
f 167/167/122 165/168/122 163/169/122
f 168/166/123 167/167/123 164/170/123
f 169/171/124 173/172/124 175/173/124
f 174/174/125 172/175/125 170/176/125
f 175/173/126 174/174/126 171/177/126
f 176/178/127 180/179/127 182/180/127
f 181/181/128 179/182/128 177/183/128
f 182/180/129 181/181/129 178/169/129
f 183/184/130 187/185/130 189/186/130
f 188/187/131 186/188/131 184/189/131
f 189/186/132 188/187/132 185/190/132
f 190/191/133 194/192/133 196/193/133
f 195/194/134 193/195/134 191/117/134
f 196/193/135 195/194/135 192/183/135
f 114/123/136 105/106/136 101/110/136
f 105/106/137 113/118/137 99/104/137
f 122/116/138 109/115/138 126/127/138
f 109/115/139 120/125/139 126/127/139
f 100/109/140 111/114/140 104/107/140
f 111/114/141 101/110/141 104/107/141
f 115/124/142 125/128/142 121/130/142
f 125/128/143 114/123/143 122/116/143
f 128/136/144 119/120/144 115/124/144
f 130/135/145 113/118/145 119/120/145
f 121/130/146 140/140/146 136/130/146
f 140/140/147 120/125/147 134/138/147
f 129/137/148 139/141/148 135/143/148
f 139/141/149 128/136/149 136/130/149
f 142/149/150 133/133/150 129/137/150
f 144/148/151 127/131/151 133/133/151
f 135/143/152 154/153/152 150/143/152
f 137/142/153 148/151/153 154/153/153
f 143/150/154 153/154/154 149/156/154
f 153/154/155 142/149/155 150/143/155
f 143/196/156 158/161/156 147/197/156
f 158/161/157 141/198/157 147/197/157
f 164/170/158 151/199/158 168/166/158
f 151/199/159 162/164/159 168/166/159
f 157/163/160 167/167/160 163/169/160
f 167/167/161 156/162/161 164/170/161
f 157/163/162 172/175/162 161/159/162
f 172/175/163 155/157/163 161/159/163
f 178/169/164 165/168/164 182/180/164
f 165/168/165 176/178/165 182/180/165
f 171/177/166 181/181/166 177/183/166
f 181/181/167 170/176/167 178/169/167
f 171/177/168 186/188/168 175/173/168
f 175/173/169 183/184/169 169/171/169
f 192/183/170 179/182/170 196/193/170
f 196/193/171 176/178/171 190/191/171
f 185/190/172 195/194/172 191/117/172
f 195/194/173 184/189/173 192/183/173
f 100/109/174 189/186/174 185/190/174
f 189/186/175 99/104/175 183/184/175
f 191/117/176 112/113/176 108/117/176
f 193/195/177 106/111/177 112/113/177
f 113/118/178 141/198/178 169/171/178
f 101/110/179 122/116/179 114/123/179
f 191/117/180 100/109/180 185/190/180
f 106/111/181 176/178/181 148/200/181
f 121/130/182 128/136/182 115/124/182
f 129/137/183 150/143/183 142/149/183
f 149/170/184 156/162/184 143/196/184
f 157/163/185 178/169/185 170/176/185
f 177/183/186 184/189/186 171/177/186
f 242/264/267 245/265/267 239/266/267
f 240/267/268 243/268/268 242/264/268
f 241/267/269 243/268/269 244/269/269
f 246/270/270 250/271/270 252/272/270
f 251/273/271 249/274/271 247/275/271
f 248/270/272 250/271/272 251/274/272
f 256/265/273 259/264/273 253/266/273
f 254/276/274 257/277/274 256/278/274
f 255/267/275 257/268/275 258/269/275
f 263/274/276 266/273/276 260/275/276
f 261/270/277 264/271/277 263/274/277
f 262/279/278 264/280/278 265/281/278
f 270/282/279 273/278/279 267/283/279
f 268/267/280 271/268/280 270/264/280
f 269/276/281 271/277/281 272/284/281
f 277/285/282 280/286/282 274/287/282
f 275/279/283 278/280/283 277/285/283
f 276/270/284 278/271/284 279/272/284
f 284/278/285 287/282/285 281/283/285
f 282/276/286 285/277/286 284/278/286
f 283/276/287 285/277/287 286/284/287
f 291/286/288 294/285/288 288/287/288
f 289/279/289 292/280/289 291/285/289
f 290/279/290 292/280/290 293/281/290
f 239/266/291 256/278/291 253/283/291
f 256/278/292 241/267/292 254/276/292
f 240/267/293 252/272/293 244/269/293
f 252/272/294 241/267/294 244/269/294
f 260/287/295 251/274/295 247/275/295
f 266/285/296 248/270/296 251/274/296
f 255/267/297 265/272/297 261/270/297
f 258/284/298 262/279/298 265/281/298
f 281/283/299 259/264/299 284/278/299
f 259/264/300 282/276/300 284/278/300
f 288/287/301 263/274/301 260/275/301
f 263/274/302 290/279/302 261/270/302
f 283/276/303 293/281/303 289/279/303
f 293/281/304 282/276/304 290/279/304
f 281/283/305 270/264/305 267/266/305
f 270/264/306 283/276/306 268/267/306
f 274/275/307 291/285/307 288/287/307
f 280/274/308 289/279/308 291/285/308
f 275/279/309 272/284/309 279/281/309
f 279/272/310 268/267/310 276/270/310
f 239/266/311 273/278/311 242/264/311
f 273/278/312 240/267/312 242/264/312
f 247/275/313 277/285/313 274/287/313
f 249/274/314 275/279/314 277/285/314
f 281/288/315 239/289/315 253/290/315
f 248/270/316 254/276/316 241/267/316
f 269/276/317 246/270/317 240/267/317
f 260/290/318 274/291/318 288/288/318
f 255/267/319 290/279/319 282/276/319
f 283/276/320 276/270/320 268/267/320
f 298/264/321 301/265/321 295/266/321
f 296/267/322 299/268/322 298/264/322
f 297/267/323 299/268/323 300/269/323
f 302/270/324 306/271/324 308/272/324
f 307/273/325 305/274/325 303/275/325
f 304/270/326 306/271/326 307/274/326
f 312/265/327 315/264/327 309/266/327
f 310/276/328 313/277/328 312/278/328
f 311/267/329 313/268/329 314/269/329
f 319/274/330 322/273/330 316/275/330
f 317/270/331 320/271/331 319/274/331
f 318/279/332 320/280/332 321/281/332
f 326/282/333 329/278/333 323/283/333
f 324/267/334 327/268/334 326/264/334
f 325/276/335 327/277/335 328/284/335
f 333/285/336 336/286/336 330/287/336
f 331/279/337 334/280/337 333/285/337
f 332/270/338 334/271/338 335/272/338
f 340/278/339 343/282/339 337/283/339
f 338/276/340 341/277/340 340/278/340
f 339/276/341 341/277/341 342/284/341
f 347/286/342 350/285/342 344/287/342
f 345/279/343 348/280/343 347/285/343
f 346/279/344 348/280/344 349/281/344
f 309/283/345 301/264/345 312/278/345
f 301/264/346 310/276/346 312/278/346
f 302/270/347 300/269/347 296/267/347
f 300/269/348 304/270/348 297/267/348
f 303/275/349 322/285/349 307/274/349
f 322/285/350 304/270/350 307/274/350
f 311/267/351 321/272/351 317/270/351
f 314/284/352 318/279/352 321/281/352
f 309/266/353 340/278/353 337/283/353
f 315/264/354 338/276/354 340/278/354
f 316/275/355 350/285/355 319/274/355
f 350/285/356 317/270/356 319/274/356
f 339/276/357 349/281/357 345/279/357
f 349/281/358 338/276/358 346/279/358
f 323/266/359 343/278/359 326/264/359
f 326/264/360 339/276/360 324/267/360
f 330/275/361 347/285/361 344/287/361
f 347/285/362 332/270/362 345/279/362
f 325/276/363 335/281/363 331/279/363
f 328/269/364 332/270/364 335/272/364
f 295/266/365 329/278/365 298/264/365
f 329/278/366 296/267/366 298/264/366
f 303/275/367 333/285/367 330/287/367
f 305/274/368 331/279/368 333/285/368
f 337/288/369 295/289/369 309/290/369
f 304/270/370 310/276/370 297/267/370
f 331/279/371 296/267/371 325/276/371
f 316/290/372 330/291/372 344/288/372
f 317/270/373 338/276/373 311/267/373
f 339/276/374 332/270/374 324/267/374
f 354/264/375 357/265/375 351/266/375
f 352/267/376 355/268/376 354/264/376
f 353/267/377 355/268/377 356/269/377
f 358/270/378 362/271/378 364/272/378
f 363/273/379 361/274/379 359/275/379
f 360/270/380 362/271/380 363/274/380
f 368/265/381 371/264/381 365/266/381
f 366/276/382 369/277/382 368/278/382
f 367/267/383 369/268/383 370/269/383
f 375/274/384 378/273/384 372/275/384
f 373/270/385 376/271/385 375/274/385
f 374/279/386 376/280/386 377/281/386
f 382/282/387 385/278/387 379/283/387
f 380/267/388 383/268/388 382/264/388
f 381/276/389 383/277/389 384/284/389
f 389/285/390 392/286/390 386/287/390
f 387/279/391 390/280/391 389/285/391
f 388/270/392 390/271/392 391/272/392
f 396/278/393 399/282/393 393/283/393
f 394/276/394 397/277/394 396/278/394
f 395/276/395 397/277/395 398/284/395
f 403/286/396 406/285/396 400/287/396
f 401/279/397 404/280/397 403/285/397
f 402/279/398 404/280/398 405/281/398
f 351/266/399 368/278/399 365/283/399
f 368/278/400 353/267/400 366/276/400
f 352/267/401 364/272/401 356/269/401
f 356/269/402 360/270/402 353/267/402
f 359/275/403 378/285/403 363/274/403
f 378/285/404 360/270/404 363/274/404
f 367/267/405 377/272/405 373/270/405
f 370/284/406 374/279/406 377/281/406
f 365/266/407 396/278/407 393/283/407
f 371/264/408 394/276/408 396/278/408
f 372/275/409 406/285/409 375/274/409
f 406/285/410 373/270/410 375/274/410
f 395/276/411 405/281/411 401/279/411
f 398/284/412 402/279/412 405/281/412
f 393/283/413 382/264/413 379/266/413
f 399/278/414 380/267/414 382/264/414
f 386/275/415 403/285/415 400/287/415
f 403/285/416 388/270/416 401/279/416
f 381/276/417 391/281/417 387/279/417
f 391/272/418 380/267/418 388/270/418
f 351/266/419 385/278/419 354/264/419
f 354/264/420 381/276/420 352/267/420
f 359/275/421 389/285/421 386/287/421
f 389/285/422 358/270/422 387/279/422
f 393/288/423 351/289/423 365/290/423
f 360/270/424 366/276/424 353/267/424
f 387/279/425 352/267/425 381/276/425
f 372/290/426 386/291/426 400/288/426
f 373/270/427 394/276/427 367/267/427
f 401/279/428 380/267/428 395/276/428
f 410/264/429 413/265/429 407/266/429
f 408/267/430 411/268/430 410/264/430
f 409/267/431 411/268/431 412/269/431
f 414/270/432 418/271/432 420/272/432
f 419/273/433 417/274/433 415/275/433
f 416/270/434 418/271/434 419/274/434
f 424/265/435 427/264/435 421/266/435
f 422/276/436 425/277/436 424/278/436
f 423/267/437 425/268/437 426/269/437
f 431/274/438 434/273/438 428/275/438
f 429/270/439 432/271/439 431/274/439
f 430/279/440 432/280/440 433/281/440
f 438/282/441 441/278/441 435/283/441
f 436/267/442 439/268/442 438/264/442
f 437/276/443 439/277/443 440/284/443
f 445/285/444 448/286/444 442/287/444
f 443/279/445 446/280/445 445/285/445
f 444/270/446 446/271/446 447/272/446
f 452/278/447 455/282/447 449/283/447
f 450/276/448 453/277/448 452/278/448
f 451/276/449 453/277/449 454/284/449
f 459/286/450 462/285/450 456/287/450
f 457/279/451 460/280/451 459/285/451
f 458/279/452 460/280/452 461/281/452
f 407/266/453 424/278/453 421/283/453
f 413/264/454 422/276/454 424/278/454
f 414/270/455 412/269/455 408/267/455
f 420/272/456 409/267/456 412/269/456
f 415/275/457 434/285/457 419/274/457
f 434/285/458 416/270/458 419/274/458
f 429/270/459 426/269/459 433/272/459
f 433/281/460 422/276/460 430/279/460
f 449/283/461 427/264/461 452/278/461
f 427/264/462 450/276/462 452/278/462
f 456/287/463 431/274/463 428/275/463
f 431/274/464 458/279/464 429/270/464
f 451/276/465 461/281/465 457/279/465
f 454/284/466 458/279/466 461/281/466
f 449/283/467 438/264/467 435/266/467
f 455/278/468 436/267/468 438/264/468
f 456/287/469 448/274/469 459/285/469
f 448/274/470 457/279/470 459/285/470
f 437/276/471 447/281/471 443/279/471
f 440/269/472 444/270/472 447/272/472
f 407/266/473 441/278/473 410/264/473
f 410/264/474 437/276/474 408/267/474
f 442/287/475 417/274/475 445/285/475
f 417/274/476 443/279/476 445/285/476
f 421/290/477 435/291/477 407/289/477
f 416/270/478 422/276/478 409/267/478
f 443/279/479 408/267/479 437/276/479
f 428/290/480 442/291/480 456/288/480
f 429/270/481 450/276/481 423/267/481
f 451/276/482 444/270/482 436/267/482
f 466/264/483 469/265/483 463/266/483
f 464/267/484 467/268/484 466/264/484
f 465/267/485 467/268/485 468/269/485
f 470/270/486 474/271/486 476/272/486
f 475/273/487 473/274/487 471/275/487
f 472/270/488 474/271/488 475/274/488
f 480/265/489 483/264/489 477/266/489
f 478/276/490 481/277/490 480/278/490
f 479/267/491 481/268/491 482/269/491
f 487/274/492 490/273/492 484/275/492
f 485/270/493 488/271/493 487/274/493
f 486/279/494 488/280/494 489/281/494
f 494/282/495 497/278/495 491/283/495
f 492/267/496 495/268/496 494/264/496
f 493/276/497 495/277/497 496/284/497
f 501/285/498 504/286/498 498/287/498
f 499/279/499 502/280/499 501/285/499
f 500/270/500 502/271/500 503/272/500
f 508/278/501 511/282/501 505/283/501
f 506/276/502 509/277/502 508/278/502
f 507/276/503 509/277/503 510/284/503
f 515/286/504 518/285/504 512/287/504
f 513/279/505 516/280/505 515/285/505
f 514/279/506 516/280/506 517/281/506
f 463/266/507 480/278/507 477/283/507
f 480/278/508 465/267/508 478/276/508
f 470/270/509 468/269/509 464/267/509
f 468/269/510 472/270/510 465/267/510
f 484/287/511 475/274/511 471/275/511
f 490/285/512 472/270/512 475/274/512
f 479/267/513 489/272/513 485/270/513
f 489/281/514 478/276/514 486/279/514
f 505/283/515 483/264/515 508/278/515
f 483/264/516 506/276/516 508/278/516
f 512/287/517 487/274/517 484/275/517
f 487/274/518 514/279/518 485/270/518
f 513/279/519 510/284/519 517/281/519
f 510/284/520 514/279/520 517/281/520
f 491/266/521 511/278/521 494/264/521
f 511/278/522 492/267/522 494/264/522
f 512/287/523 504/274/523 515/285/523
f 504/274/524 513/279/524 515/285/524
f 499/279/525 496/284/525 503/281/525
f 503/272/526 492/267/526 500/270/526
f 463/266/527 497/278/527 466/264/527
f 497/278/528 464/267/528 466/264/528
f 471/275/529 501/285/529 498/287/529
f 473/274/530 499/279/530 501/285/530
f 505/288/531 463/289/531 477/290/531
f 472/270/532 478/276/532 465/267/532
f 499/279/533 464/267/533 493/276/533
f 512/288/534 471/289/534 498/291/534
f 479/267/535 514/279/535 506/276/535
f 513/279/536 492/267/536 507/276/536
f 1/1/537 4/5/537 5/2/537
f 6/4/538 5/2/538 4/5/538
f 7/3/539 5/2/539 6/4/539
f 8/8/540 11/12/540 12/9/540
f 13/11/541 12/9/541 11/12/541
f 14/10/542 12/9/542 13/11/542
f 15/15/543 18/19/543 19/16/543
f 20/18/544 19/16/544 18/19/544
f 21/17/545 19/16/545 20/18/545
f 22/22/546 25/26/546 26/23/546
f 27/25/547 26/23/547 25/26/547
f 28/24/548 26/23/548 27/25/548
f 29/29/549 32/33/549 33/30/549
f 34/32/550 33/30/550 32/33/550
f 35/31/551 33/30/551 34/32/551
f 36/36/552 39/40/552 40/37/552
f 41/39/553 40/37/553 39/40/553
f 42/38/554 40/37/554 41/39/554
f 43/43/555 46/47/555 47/44/555
f 48/46/556 47/44/556 46/47/556
f 49/45/557 47/44/557 48/46/557
f 50/50/558 53/54/558 54/51/558
f 55/53/559 54/51/559 53/54/559
f 56/52/560 54/51/560 55/53/560
f 57/57/561 60/61/561 61/58/561
f 62/60/562 61/58/562 60/61/562
f 63/59/563 61/58/563 62/60/563
f 64/64/564 67/68/564 68/65/564
f 69/67/565 68/65/565 67/68/565
f 70/66/566 68/65/566 69/67/566
f 71/71/567 74/75/567 75/72/567
f 76/74/568 75/72/568 74/75/568
f 77/73/569 75/72/569 76/74/569
f 78/78/570 81/82/570 82/79/570
f 83/81/571 82/79/571 81/82/571
f 84/80/572 82/79/572 83/81/572
f 85/85/573 88/89/573 89/86/573
f 90/88/574 89/86/574 88/89/574
f 91/87/575 89/86/575 90/88/575
f 92/92/576 95/96/576 96/93/576
f 97/95/577 96/93/577 95/96/577
f 98/94/578 96/93/578 97/95/578
f 3/7/43 16/20/43 18/19/43
f 18/19/44 15/15/44 1/1/44
f 24/28/45 9/13/45 11/12/45
f 28/24/46 11/12/46 8/8/46
f 2/6/579 10/14/579 13/11/579
f 13/11/580 9/13/580 3/7/580
f 17/21/581 20/18/581 27/25/581
f 27/25/582 20/18/582 16/20/582
f 17/21/51 30/34/51 32/33/51
f 32/33/52 29/29/52 15/15/52
f 38/42/53 23/27/53 25/26/53
f 25/26/583 22/22/583 36/36/583
f 31/35/584 34/32/584 41/39/584
f 41/39/585 34/32/585 30/34/585
f 44/48/57 46/47/57 35/31/57
f 46/47/58 43/43/58 29/29/58
f 52/56/59 37/41/59 39/40/59
f 39/40/60 36/36/60 50/50/60
f 45/49/586 48/46/586 55/53/586
f 55/53/587 48/46/587 44/48/587
f 58/62/63 60/61/63 49/99/63
f 49/99/64 60/61/64 57/57/64
f 51/102/65 53/292/65 70/66/65
f 70/66/66 53/292/66 50/103/66
f 59/63/588 62/60/588 69/67/588
f 69/67/589 62/60/589 58/62/589
f 72/76/69 74/75/69 63/59/69
f 63/59/70 74/75/70 71/71/70
f 65/69/71 67/68/71 84/80/71
f 67/68/72 64/64/72 78/78/72
f 73/77/590 76/74/590 83/81/590
f 83/81/591 76/74/591 72/76/591
f 86/90/75 88/89/75 77/73/75
f 88/89/76 85/85/76 71/71/76
f 94/98/77 79/83/77 81/82/77
f 98/94/78 81/82/78 78/78/78
f 87/91/592 90/88/592 97/95/592
f 97/95/593 90/88/593 86/90/593
f 2/6/81 4/5/81 91/87/81
f 4/5/82 1/1/82 85/85/82
f 93/97/83 95/96/83 14/10/83
f 14/10/84 95/96/84 92/92/84
f 85/85/85 1/1/85 15/15/85
f 15/15/85 29/293/85 43/101/85
f 43/101/85 57/57/85 71/71/85
f 71/71/85 85/85/85 15/15/85
f 9/13/86 24/28/86 16/20/86
f 87/91/87 93/97/87 10/14/87
f 36/294/88 22/22/88 8/8/88
f 8/8/88 92/92/88 78/78/88
f 78/78/88 64/64/88 50/103/88
f 50/103/88 36/294/88 8/8/88
f 17/21/89 23/27/89 38/42/89
f 37/41/90 52/56/90 44/48/90
f 51/102/91 66/70/91 58/62/91
f 65/69/92 80/84/92 72/76/92
f 79/83/93 94/98/93 86/90/93
f 99/104/594 102/108/594 103/105/594
f 104/107/595 103/105/595 102/108/595
f 105/106/596 103/105/596 104/107/596
f 106/111/597 109/115/597 110/112/597
f 111/114/598 110/112/598 109/115/598
f 112/113/599 110/112/599 111/114/599
f 113/118/600 116/122/600 117/119/600
f 118/121/601 117/119/601 116/122/601
f 119/120/602 117/119/602 118/121/602
f 120/125/603 123/129/603 124/126/603
f 125/128/604 124/126/604 123/129/604
f 126/127/605 124/126/605 125/128/605
f 127/131/606 130/135/606 131/132/606
f 132/134/607 131/132/607 130/135/607
f 133/133/608 131/132/608 132/134/608
f 134/138/609 137/142/609 138/139/609
f 139/141/610 138/139/610 137/142/610
f 140/140/611 138/139/611 139/141/611
f 141/144/612 144/148/612 145/145/612
f 146/147/613 145/145/613 144/148/613
f 147/146/614 145/145/614 146/147/614
f 148/151/615 151/155/615 152/152/615
f 153/154/616 152/152/616 151/155/616
f 154/153/617 152/152/617 153/154/617
f 155/157/618 158/161/618 159/158/618
f 160/160/619 159/158/619 158/161/619
f 161/159/620 159/158/620 160/160/620
f 162/164/621 165/168/621 166/165/621
f 167/167/622 166/165/622 165/168/622
f 168/166/623 166/165/623 167/167/623
f 169/171/624 172/175/624 173/172/624
f 174/174/625 173/172/625 172/175/625
f 175/173/626 173/172/626 174/174/626
f 176/178/627 179/182/627 180/179/627
f 181/181/628 180/179/628 179/182/628
f 182/180/629 180/179/629 181/181/629
f 183/184/630 186/188/630 187/185/630
f 188/187/631 187/185/631 186/188/631
f 189/186/632 187/185/632 188/187/632
f 190/191/633 193/195/633 194/192/633
f 195/194/634 194/192/634 193/195/634
f 196/193/635 194/192/635 195/194/635
f 114/123/136 116/122/136 105/106/136
f 105/106/137 116/122/137 113/118/137
f 122/116/636 107/116/636 109/115/636
f 109/115/139 106/111/139 120/125/139
f 100/109/637 108/117/637 111/114/637
f 111/114/638 107/116/638 101/110/638
f 115/124/639 118/121/639 125/128/639
f 125/128/640 118/121/640 114/123/640
f 128/136/144 130/135/144 119/120/144
f 130/135/145 127/131/145 113/118/145
f 121/130/641 123/129/641 140/140/641
f 140/140/147 123/129/147 120/125/147
f 129/137/642 132/134/642 139/141/642
f 139/141/643 132/134/643 128/136/643
f 142/149/150 144/148/150 133/133/150
f 144/148/151 141/144/151 127/131/151
f 135/143/644 137/142/644 154/153/644
f 137/142/153 134/138/153 148/151/153
f 143/150/645 146/147/645 153/154/645
f 153/154/646 146/147/646 142/149/646
f 143/196/156 156/162/156 158/161/156
f 158/161/157 155/157/157 141/198/157
f 164/170/647 149/170/647 151/199/647
f 151/199/159 148/200/159 162/164/159
f 157/163/648 160/160/648 167/167/648
f 167/167/649 160/160/649 156/162/649
f 157/163/162 170/176/162 172/175/162
f 172/175/163 169/171/163 155/157/163
f 178/169/650 163/169/650 165/168/650
f 165/168/165 162/164/165 176/178/165
f 171/177/651 174/174/651 181/181/651
f 181/181/652 174/174/652 170/176/652
f 171/177/168 184/189/168 186/188/168
f 175/173/169 186/188/169 183/184/169
f 192/183/653 177/183/653 179/182/653
f 196/193/171 179/182/171 176/178/171
f 185/190/654 188/187/654 195/194/654
f 195/194/655 188/187/655 184/189/655
f 100/109/174 102/108/174 189/186/174
f 189/186/175 102/108/175 99/104/175
f 191/117/656 193/195/656 112/113/656
f 193/195/177 190/191/177 106/111/177
f 183/184/178 99/104/178 113/118/178
f 113/118/178 127/295/178 141/198/178
f 141/198/178 155/157/178 169/171/178
f 169/171/178 183/184/178 113/118/178
f 101/110/636 107/116/636 122/116/636
f 191/117/146 108/117/146 100/109/146
f 134/296/181 120/125/181 106/111/181
f 106/111/181 190/191/181 176/178/181
f 176/178/181 162/164/181 148/200/181
f 148/200/181 134/296/181 106/111/181
f 121/130/657 136/130/657 128/136/657
f 129/137/146 135/143/146 150/143/146
f 149/170/658 164/170/658 156/162/658
f 157/163/659 163/169/659 178/169/659
f 177/183/660 192/183/660 184/189/660
f 242/264/661 243/268/661 245/265/661
f 240/267/662 244/269/662 243/268/662
f 241/267/663 245/264/663 243/268/663
f 246/270/664 249/274/664 250/271/664
f 251/273/665 250/271/665 249/274/665
f 248/270/666 252/272/666 250/271/666
f 256/265/667 257/268/667 259/264/667
f 254/276/668 258/284/668 257/277/668
f 255/267/669 259/264/669 257/268/669
f 263/274/670 264/271/670 266/273/670
f 261/270/671 265/272/671 264/271/671
f 262/279/672 266/285/672 264/280/672
f 270/282/673 271/277/673 273/278/673
f 268/267/674 272/269/674 271/268/674
f 269/276/675 273/278/675 271/277/675
f 277/285/676 278/280/676 280/286/676
f 275/279/677 279/281/677 278/280/677
f 276/270/678 280/274/678 278/271/678
f 284/278/679 285/277/679 287/282/679
f 282/276/680 286/284/680 285/277/680
f 283/276/681 287/278/681 285/277/681
f 291/286/682 292/280/682 294/285/682
f 289/279/683 293/281/683 292/280/683
f 290/279/684 294/285/684 292/280/684
f 239/266/291 245/264/291 256/278/291
f 256/278/292 245/264/292 241/267/292
f 240/267/293 246/270/293 252/272/293
f 252/272/294 248/270/294 241/267/294
f 260/287/295 266/285/295 251/274/295
f 266/285/296 262/279/296 248/270/296
f 255/267/297 258/269/297 265/272/297
f 258/284/685 254/276/685 262/279/685
f 281/283/299 253/266/299 259/264/299
f 259/264/300 255/267/300 282/276/300
f 288/287/301 294/285/301 263/274/301
f 263/274/302 294/285/302 290/279/302
f 283/276/303 286/284/303 293/281/303
f 293/281/304 286/284/304 282/276/304
f 281/283/305 287/278/305 270/264/305
f 270/264/306 287/278/306 283/276/306
f 274/275/307 280/274/307 291/285/307
f 280/274/308 276/270/308 289/279/308
f 275/279/309 269/276/309 272/284/309
f 279/272/310 272/269/310 268/267/310
f 239/266/311 267/283/311 273/278/311
f 273/278/312 269/276/312 240/267/312
f 247/275/313 249/274/313 277/285/313
f 249/274/314 246/270/314 275/279/314
f 281/288/315 267/291/315 239/289/315
f 248/270/316 262/279/316 254/276/316
f 269/276/317 275/279/317 246/270/317
f 260/290/318 247/289/318 274/291/318
f 255/267/319 261/270/319 290/279/319
f 283/276/320 289/279/320 276/270/320
f 298/264/686 299/268/686 301/265/686
f 296/267/687 300/269/687 299/268/687
f 297/267/688 301/264/688 299/268/688
f 302/270/689 305/274/689 306/271/689
f 307/273/690 306/271/690 305/274/690
f 304/270/691 308/272/691 306/271/691
f 312/265/692 313/268/692 315/264/692
f 310/276/693 314/284/693 313/277/693
f 311/267/694 315/264/694 313/268/694
f 319/274/695 320/271/695 322/273/695
f 317/270/696 321/272/696 320/271/696
f 318/279/697 322/285/697 320/280/697
f 326/282/698 327/277/698 329/278/698
f 324/267/699 328/269/699 327/268/699
f 325/276/700 329/278/700 327/277/700
f 333/285/701 334/280/701 336/286/701
f 331/279/702 335/281/702 334/280/702
f 332/270/703 336/274/703 334/271/703
f 340/278/704 341/277/704 343/282/704
f 338/276/705 342/284/705 341/277/705
f 339/276/706 343/278/706 341/277/706
f 347/286/707 348/280/707 350/285/707
f 345/279/708 349/281/708 348/280/708
f 346/279/709 350/285/709 348/280/709
f 309/283/345 295/266/345 301/264/345
f 301/264/346 297/267/346 310/276/346
f 302/270/347 308/272/347 300/269/347
f 300/269/348 308/272/348 304/270/348
f 303/275/349 316/287/349 322/285/349
f 322/285/350 318/279/350 304/270/350
f 311/267/351 314/269/351 321/272/351
f 314/284/352 310/276/352 318/279/352
f 309/266/353 315/264/353 340/278/353
f 315/264/354 311/267/354 338/276/354
f 316/275/355 344/287/355 350/285/355
f 350/285/356 346/279/356 317/270/356
f 339/276/357 342/284/357 349/281/357
f 349/281/358 342/284/358 338/276/358
f 323/266/359 337/283/359 343/278/359
f 326/264/360 343/278/360 339/276/360
f 330/275/361 336/274/361 347/285/361
f 347/285/362 336/274/362 332/270/362
f 325/276/363 328/284/363 335/281/363
f 328/269/364 324/267/364 332/270/364
f 295/266/365 323/283/365 329/278/365
f 329/278/366 325/276/366 296/267/366
f 303/275/367 305/274/367 333/285/367
f 305/274/368 302/270/368 331/279/368
f 337/288/369 323/291/369 295/289/369
f 304/270/370 318/279/370 310/276/370
f 331/279/371 302/270/371 296/267/371
f 316/290/372 303/289/372 330/291/372
f 317/270/373 346/279/373 338/276/373
f 339/276/374 345/279/374 332/270/374
f 354/264/710 355/268/710 357/265/710
f 352/267/711 356/269/711 355/268/711
f 353/267/712 357/264/712 355/268/712
f 358/270/713 361/274/713 362/271/713
f 363/273/714 362/271/714 361/274/714
f 360/270/715 364/272/715 362/271/715
f 368/265/716 369/268/716 371/264/716
f 366/276/717 370/284/717 369/277/717
f 367/267/718 371/264/718 369/268/718
f 375/274/719 376/271/719 378/273/719
f 373/270/720 377/272/720 376/271/720
f 374/279/721 378/285/721 376/280/721
f 382/282/722 383/277/722 385/278/722
f 380/267/723 384/269/723 383/268/723
f 381/276/724 385/278/724 383/277/724
f 389/285/725 390/280/725 392/286/725
f 387/279/726 391/281/726 390/280/726
f 388/270/727 392/274/727 390/271/727
f 396/278/728 397/277/728 399/282/728
f 394/276/729 398/284/729 397/277/729
f 395/276/730 399/278/730 397/277/730
f 403/286/731 404/280/731 406/285/731
f 401/279/732 405/281/732 404/280/732
f 402/279/733 406/285/733 404/280/733
f 351/266/399 357/264/399 368/278/399
f 368/278/400 357/264/400 353/267/400
f 352/267/401 358/270/401 364/272/401
f 356/269/402 364/272/402 360/270/402
f 359/275/403 372/287/403 378/285/403
f 378/285/404 374/279/404 360/270/404
f 367/267/405 370/269/405 377/272/405
f 370/284/406 366/276/406 374/279/406
f 365/266/407 371/264/407 396/278/407
f 371/264/408 367/267/408 394/276/408
f 372/275/409 400/287/409 406/285/409
f 406/285/410 402/279/410 373/270/410
f 395/276/411 398/284/411 405/281/411
f 398/284/412 394/276/412 402/279/412
f 393/283/413 399/278/413 382/264/413
f 399/278/414 395/276/414 380/267/414
f 386/275/415 392/274/415 403/285/415
f 403/285/416 392/274/416 388/270/416
f 381/276/417 384/284/417 391/281/417
f 391/272/734 384/269/734 380/267/734
f 351/266/419 379/283/419 385/278/419
f 354/264/420 385/278/420 381/276/420
f 359/275/421 361/274/421 389/285/421
f 389/285/422 361/274/422 358/270/422
f 393/288/423 379/291/423 351/289/423
f 360/270/424 374/279/424 366/276/424
f 387/279/425 358/270/425 352/267/425
f 372/290/426 359/289/426 386/291/426
f 373/270/427 402/279/427 394/276/427
f 401/279/428 388/270/428 380/267/428
f 410/264/735 411/268/735 413/265/735
f 408/267/736 412/269/736 411/268/736
f 409/267/737 413/264/737 411/268/737
f 414/270/738 417/274/738 418/271/738
f 419/273/739 418/271/739 417/274/739
f 416/270/740 420/272/740 418/271/740
f 424/265/741 425/268/741 427/264/741
f 422/276/742 426/284/742 425/277/742
f 423/267/743 427/264/743 425/268/743
f 431/274/744 432/271/744 434/273/744
f 429/270/745 433/272/745 432/271/745
f 430/279/746 434/285/746 432/280/746
f 438/282/747 439/277/747 441/278/747
f 436/267/748 440/269/748 439/268/748
f 437/276/749 441/278/749 439/277/749
f 445/285/750 446/280/750 448/286/750
f 443/279/751 447/281/751 446/280/751
f 444/270/752 448/274/752 446/271/752
f 452/278/753 453/277/753 455/282/753
f 450/276/754 454/284/754 453/277/754
f 451/276/755 455/278/755 453/277/755
f 459/286/756 460/280/756 462/285/756
f 457/279/757 461/281/757 460/280/757
f 458/279/758 462/285/758 460/280/758
f 407/266/453 413/264/453 424/278/453
f 413/264/454 409/267/454 422/276/454
f 414/270/455 420/272/455 412/269/455
f 420/272/456 416/270/456 409/267/456
f 415/275/457 428/287/457 434/285/457
f 434/285/458 430/279/458 416/270/458
f 429/270/459 423/267/459 426/269/459
f 433/281/460 426/284/460 422/276/460
f 449/283/461 421/266/461 427/264/461
f 427/264/462 423/267/462 450/276/462
f 456/287/463 462/285/463 431/274/463
f 431/274/464 462/285/464 458/279/464
f 451/276/759 454/284/759 461/281/759
f 454/284/466 450/276/466 458/279/466
f 449/283/467 455/278/467 438/264/467
f 455/278/468 451/276/468 436/267/468
f 456/287/469 442/275/469 448/274/469
f 448/274/470 444/270/470 457/279/470
f 437/276/471 440/284/471 447/281/471
f 440/269/472 436/267/472 444/270/472
f 407/266/760 435/283/760 441/278/760
f 410/264/474 441/278/474 437/276/474
f 442/287/475 415/275/475 417/274/475
f 417/274/476 414/270/476 443/279/476
f 421/290/477 449/288/477 435/291/477
f 416/270/478 430/279/478 422/276/478
f 443/279/479 414/270/479 408/267/479
f 428/290/480 415/289/480 442/291/480
f 429/270/481 458/279/481 450/276/481
f 451/276/482 457/279/482 444/270/482
f 466/264/761 467/268/761 469/265/761
f 464/267/762 468/269/762 467/268/762
f 465/267/763 469/264/763 467/268/763
f 470/270/764 473/274/764 474/271/764
f 475/273/765 474/271/765 473/274/765
f 472/270/766 476/272/766 474/271/766
f 480/265/767 481/268/767 483/264/767
f 478/276/768 482/284/768 481/277/768
f 479/267/769 483/264/769 481/268/769
f 487/274/770 488/271/770 490/273/770
f 485/270/771 489/272/771 488/271/771
f 486/279/772 490/285/772 488/280/772
f 494/282/773 495/277/773 497/278/773
f 492/267/774 496/269/774 495/268/774
f 493/276/775 497/278/775 495/277/775
f 501/285/776 502/280/776 504/286/776
f 499/279/777 503/281/777 502/280/777
f 500/270/778 504/274/778 502/271/778
f 508/278/779 509/277/779 511/282/779
f 506/276/780 510/284/780 509/277/780
f 507/276/781 511/278/781 509/277/781
f 515/286/782 516/280/782 518/285/782
f 513/279/783 517/281/783 516/280/783
f 514/279/784 518/285/784 516/280/784
f 463/266/507 469/264/507 480/278/507
f 480/278/508 469/264/508 465/267/508
f 470/270/509 476/272/509 468/269/509
f 468/269/510 476/272/510 472/270/510
f 484/287/511 490/285/511 475/274/511
f 490/285/512 486/279/512 472/270/512
f 479/267/513 482/269/513 489/272/513
f 489/281/514 482/284/514 478/276/514
f 505/283/515 477/266/515 483/264/515
f 483/264/516 479/267/516 506/276/516
f 512/287/517 518/285/517 487/274/517
f 487/274/518 518/285/518 514/279/518
f 513/279/519 507/276/519 510/284/519
f 510/284/520 506/276/520 514/279/520
f 491/266/521 505/283/521 511/278/521
f 511/278/522 507/276/522 492/267/522
f 512/287/523 498/275/523 504/274/523
f 504/274/524 500/270/524 513/279/524
f 499/279/525 493/276/525 496/284/525
f 503/272/526 496/269/526 492/267/526
f 463/266/527 491/283/527 497/278/527
f 497/278/528 493/276/528 464/267/528
f 471/275/529 473/274/529 501/285/529
f 473/274/530 470/270/530 499/279/530
f 505/288/531 491/291/531 463/289/531
f 472/270/532 486/279/532 478/276/532
f 499/279/533 470/270/533 464/267/533
f 512/288/534 484/290/534 471/289/534
f 479/267/535 485/270/535 514/279/535
f 513/279/536 500/270/536 492/267/536
usemtl core
f 197/201/187 210/202/187 209/203/187
f 198/204/188 210/202/188 212/205/188
f 197/201/189 209/203/189 214/206/189
f 197/201/190 214/206/190 216/207/190
f 197/201/191 216/207/191 213/208/191
f 198/204/192 212/205/192 219/209/192
f 199/210/193 211/211/193 221/212/193
f 200/213/194 215/214/194 223/215/194
f 201/216/195 217/217/195 225/218/195
f 202/219/196 218/220/196 227/221/196
f 198/222/197 219/223/197 222/224/197
f 199/225/198 221/201/198 224/226/198
f 200/227/199 223/223/199 226/228/199
f 201/225/200 225/226/200 228/201/200
f 202/229/201 227/230/201 220/228/201
f 203/231/202 229/232/202 234/233/202
f 204/234/203 230/235/203 236/236/203
f 205/237/204 231/238/204 237/239/204
f 206/240/205 232/241/205 238/242/205
f 207/243/206 233/244/206 235/245/206
f 235/245/207 238/242/207 208/201/207
f 235/245/208 233/244/208 238/242/208
f 233/244/209 206/240/209 238/242/209
f 238/242/210 237/239/210 208/201/210
f 238/242/211 232/241/211 237/239/211
f 232/241/212 205/237/212 237/239/212
f 237/239/213 236/236/213 208/201/213
f 237/239/214 231/238/214 236/236/214
f 231/238/215 204/234/215 236/236/215
f 236/236/216 234/233/216 208/201/216
f 236/236/217 230/235/217 234/233/217
f 230/235/218 203/231/218 234/233/218
f 234/233/219 235/245/219 208/201/219
f 234/233/220 229/232/220 235/245/220
f 229/232/221 207/243/221 235/245/221
f 220/246/222 233/244/222 207/243/222
f 220/228/223 227/230/223 233/247/223
f 227/221/224 206/240/224 233/244/224
f 228/248/225 232/241/225 206/240/225
f 228/201/226 225/226/226 232/249/226
f 225/218/227 205/237/227 232/241/227
f 226/250/228 231/238/228 205/237/228
f 226/228/229 223/223/229 231/251/229
f 223/215/230 204/234/230 231/238/230
f 224/252/231 230/235/231 204/234/231
f 224/226/232 221/201/232 230/249/232
f 221/212/233 203/231/233 230/235/233
f 222/253/234 229/232/234 203/231/234
f 222/224/235 219/223/235 229/254/235
f 219/209/236 207/243/236 229/232/236
f 227/255/237 228/201/237 206/256/237
f 227/255/238 218/257/238 228/201/238
f 218/220/239 201/216/239 228/248/239
f 225/230/240 226/228/240 205/258/240
f 225/230/241 217/259/241 226/228/241
f 217/217/242 200/213/242 226/250/242
f 223/223/243 224/224/243 204/260/243
f 223/223/244 215/261/244 224/224/244
f 215/214/245 199/210/245 224/252/245
f 221/201/246 222/255/246 203/256/246
f 221/201/247 211/257/247 222/255/247
f 211/211/248 198/204/248 222/253/248
f 219/223/249 220/228/249 207/262/249
f 219/223/250 212/263/250 220/228/250
f 212/205/251 202/219/251 220/246/251
f 213/208/252 218/220/252 202/219/252
f 213/208/253 216/207/253 218/220/253
f 216/207/254 201/216/254 218/220/254
f 216/207/255 217/217/255 201/216/255
f 216/207/256 214/206/256 217/217/256
f 214/206/257 200/213/257 217/217/257
f 214/206/258 215/214/258 200/213/258
f 214/206/259 209/203/259 215/214/259
f 209/203/260 199/210/260 215/214/260
f 212/205/261 213/208/261 202/219/261
f 212/205/262 210/202/262 213/208/262
f 210/202/263 197/201/263 213/208/263
f 209/203/264 211/211/264 199/210/264
f 209/203/265 210/202/265 211/211/265
f 210/202/266 198/204/266 211/211/266
