# Blender 4.5.10 LTS
# www.blender.org
mtllib grove_bonemeal_pouch.mtl
o grove_bonemeal_pouch
v 0.008037 -0.003969 0.005975
v -0.063230 0.028523 -0.045759
v 0.034742 0.029200 -0.077679
v 0.095367 0.030451 0.005634
v 0.034862 0.030548 0.089043
v -0.063156 0.029356 0.057279
v -0.019946 0.083026 -0.078075
v 0.078072 0.084217 -0.046311
v 0.078146 0.085050 0.056728
v -0.019826 0.084373 0.088647
v -0.080451 0.083122 0.005334
v 0.006878 0.117542 0.004993
v 0.023835 0.004860 -0.043109
v -0.033751 0.004463 -0.024347
v -0.018055 0.023959 -0.073518
v -0.075597 0.024051 0.005808
v -0.033707 0.004952 0.036217
v 0.059470 0.005596 0.005860
v 0.075167 0.025092 -0.043310
v 0.023906 0.005653 0.054887
v 0.075237 0.025884 0.054686
v -0.017940 0.025241 0.085043
v -0.085763 0.055654 -0.024724
v -0.085720 0.056143 0.035841
v 0.007387 0.055994 -0.092513
v -0.050200 0.055597 -0.073751
v 0.100635 0.057430 -0.024872
v 0.065001 0.056695 -0.073843
v 0.065115 0.057976 0.084719
v 0.100679 0.057920 0.035692
v -0.050085 0.056878 0.084811
v 0.007528 0.057579 0.103481
v -0.060322 0.087689 -0.043718
v 0.032856 0.088333 -0.074075
v 0.090513 0.089522 0.005160
v 0.032970 0.089614 0.084486
v -0.060251 0.088481 0.054278
v -0.008990 0.107921 -0.043919
v -0.044554 0.107977 0.005108
v 0.048623 0.108621 -0.025249
v 0.048666 0.109110 0.035316
v -0.008920 0.108713 0.054077
v -0.017746 -0.016885 -0.015917
v -0.076870 0.005571 -0.058959
v 0.005039 0.004177 -0.085844
v 0.055923 0.003740 -0.016241
v 0.005461 0.004864 0.053661
v -0.076609 0.005996 0.027259
v -0.039741 0.040076 -0.085885
v 0.042329 0.038944 -0.059483
v 0.042590 0.039368 0.026734
v -0.039319 0.040762 0.053619
v -0.090203 0.041200 -0.015983
v -0.016534 0.061825 -0.016308
v -0.004459 -0.011415 -0.056984
v -0.052604 -0.010595 -0.041182
v -0.039212 0.001785 -0.082284
v -0.087203 0.002854 -0.015804
v -0.052451 -0.010346 0.009496
v 0.025449 -0.011672 -0.016073
v 0.038842 0.000708 -0.057175
v -0.004211 -0.011011 0.025014
v 0.039090 0.001112 0.024823
v -0.038810 0.002438 0.050392
v -0.095194 0.023546 -0.041221
v -0.095040 0.023796 0.009456
v -0.017388 0.022066 -0.098111
v -0.065533 0.022886 -0.082308
v 0.060761 0.021144 -0.041681
v 0.030852 0.021401 -0.082593
v 0.031253 0.022054 0.050084
v 0.060914 0.021393 0.008997
v -0.065132 0.023539 0.050368
v -0.016892 0.022873 0.065886
v -0.073370 0.043827 -0.057048
v 0.004531 0.042502 -0.082616
v 0.052923 0.042086 -0.016421
v 0.004932 0.043155 0.050059
v -0.073122 0.044231 0.024950
v -0.030068 0.055951 -0.057238
v -0.059729 0.056611 -0.016151
v 0.018171 0.055285 -0.041720
v 0.018324 0.055535 0.008957
v -0.029820 0.056354 0.024760
v -0.010551 0.072394 0.050227
v -0.010162 0.081863 0.054574
v -0.010759 0.074964 0.057532
v -0.005712 0.113772 0.007795
v -0.007653 0.103320 0.032571
v -0.006602 0.110507 0.021084
v -0.039938 0.074616 0.039921
v -0.041671 0.084246 0.043525
v -0.043972 0.077475 0.045884
v -0.011762 0.114230 0.005673
v -0.027060 0.104787 0.025766
v -0.019770 0.111503 0.016466
v -0.059059 0.076726 0.015331
v -0.062171 0.086507 0.017160
v -0.065583 0.079860 0.018092
v -0.015700 0.114664 0.000610
v -0.039687 0.106180 0.009526
v -0.028338 0.112448 0.005447
v -0.061842 0.078053 -0.015738
v -0.065156 0.087931 -0.016151
v -0.068729 0.081360 -0.017022
v -0.016273 0.114937 -0.005788
v -0.041526 0.107057 -0.010991
v -0.029585 0.113043 -0.008475
v -0.047405 0.078177 -0.043420
v -0.049676 0.088063 -0.045831
v -0.052411 0.081500 -0.048309
v -0.013300 0.114963 -0.011487
v -0.031991 0.107138 -0.029273
v -0.023116 0.113098 -0.020879
v -0.020330 0.077058 -0.058927
v -0.020647 0.086863 -0.062457
v -0.021811 0.080235 -0.065835
v -0.007725 0.114732 -0.014680
v -0.014111 0.106399 -0.039513
v -0.010984 0.112597 -0.027828
v 0.010786 0.075051 -0.057335
v 0.012714 0.084711 -0.060751
v 0.013356 0.077966 -0.064036
v -0.001318 0.114319 -0.014353
v 0.006438 0.105074 -0.038462
v 0.002959 0.111697 -0.027115
v 0.036064 0.072794 -0.039150
v 0.039816 0.082291 -0.041254
v 0.041926 0.075415 -0.043484
v 0.003887 0.113854 -0.010608
v 0.023131 0.103583 -0.026453
v 0.014286 0.110686 -0.018966
v 0.047478 0.071003 -0.010146
v 0.052055 0.080371 -0.010156
v 0.054827 0.073391 -0.010702
v 0.006237 0.113485 -0.004636
v 0.030669 0.102400 -0.007299
v 0.019401 0.109883 -0.005969
v 0.041405 0.070246 0.020469
v 0.045543 0.079560 0.022669
v 0.047963 0.072536 0.023900
v 0.004986 0.113330 0.001668
v 0.026658 0.101901 0.012920
v 0.016680 0.109544 0.007749
v 0.019773 0.070765 0.042975
v 0.022350 0.080116 0.046800
v 0.023514 0.073123 0.049336
v 0.000532 0.113437 0.006302
v 0.012373 0.102244 0.027782
v 0.006986 0.109777 0.017834
v 0.001707 0.116628 0.023171
v 0.001665 0.123779 0.030231
v 0.001678 0.118786 0.028224
v 0.001704 0.130625 0.022875
v 0.001665 0.123779 0.030231
v 0.001676 0.128683 0.028015
v -0.008870 0.116570 0.020502
v -0.012257 0.123702 0.026718
v -0.011264 0.118714 0.024958
v -0.008872 0.130567 0.020206
v -0.012257 0.123702 0.026718
v -0.011266 0.128612 0.024749
v -0.016994 0.116415 0.013225
v -0.022952 0.123498 0.017138
v -0.021206 0.118524 0.016053
v -0.016997 0.130411 0.012929
v -0.022952 0.123498 0.017138
v -0.021208 0.128422 0.015844
v -0.020805 0.116198 0.003006
v -0.027968 0.123212 0.003687
v -0.025870 0.118259 0.003549
v -0.020808 0.130195 0.002710
v -0.027968 0.123212 0.003687
v -0.025872 0.128156 0.003340
v -0.019430 0.115969 -0.007812
v -0.026158 0.122912 -0.010554
v -0.024187 0.117979 -0.009690
v -0.019433 0.129966 -0.008108
v -0.026158 0.122912 -0.010554
v -0.024189 0.127877 -0.009899
v -0.013184 0.115781 -0.016753
v -0.017935 0.122664 -0.022323
v -0.016543 0.117749 -0.020630
v -0.013186 0.129778 -0.017049
v -0.017935 0.122664 -0.022323
v -0.016545 0.127647 -0.020839
v -0.003497 0.115677 -0.021767
v -0.005184 0.122527 -0.028923
v -0.004689 0.117622 -0.026766
v -0.003499 0.129674 -0.022063
v -0.005184 0.122527 -0.028923
v -0.004691 0.127519 -0.026975
v 0.007411 0.115680 -0.021707
v 0.009174 0.122531 -0.028843
v 0.008659 0.117626 -0.026692
v 0.007409 0.129677 -0.022003
v 0.009174 0.122531 -0.028843
v 0.008657 0.127523 -0.026901
v 0.017042 0.115790 -0.016585
v 0.021851 0.122676 -0.022101
v 0.020443 0.117761 -0.020424
v 0.017039 0.129787 -0.016881
v 0.021851 0.122676 -0.022101
v 0.020441 0.127658 -0.020633
v 0.023188 0.115982 -0.007575
v 0.029942 0.122929 -0.010241
v 0.027964 0.117995 -0.009399
v 0.023186 0.129979 -0.007871
v 0.029942 0.122929 -0.010241
v 0.027963 0.127892 -0.009608
v 0.024443 0.116211 0.003258
v 0.031593 0.123230 0.004019
v 0.029499 0.118276 0.003858
v 0.024440 0.130208 0.002962
v 0.031593 0.123230 0.004019
v 0.029498 0.128173 0.003648
v 0.020518 0.116426 0.013434
v 0.026427 0.123513 0.017413
v 0.024697 0.118538 0.016309
v 0.020515 0.130423 0.013138
v 0.026427 0.123513 0.017413
v 0.024695 0.128435 0.016100
v 0.012313 0.116576 0.020620
v 0.015626 0.123711 0.026873
v 0.014656 0.118722 0.025103
v 0.012310 0.130573 0.020324
v 0.015626 0.123711 0.026873
v 0.014654 0.128619 0.024894
v -0.001064 0.120737 0.006366
v 0.007075 0.129593 0.017659
v -0.010357 0.128828 0.017339
v 0.003358 0.123638 0.012956
v -0.001384 0.124446 0.014910
v -0.001635 0.128666 0.018448
v -0.005963 0.123229 0.012784
v -0.002765 0.151964 0.024310
v -0.011182 0.143970 0.026040
v 0.006250 0.144735 0.026360
v -0.008087 0.149698 0.027760
v -0.002713 0.148868 0.028844
v -0.002459 0.143807 0.027149
v 0.002604 0.150167 0.027956
v -0.008899 0.120200 0.003351
v -0.010357 0.128828 0.017339
v -0.023473 0.127500 0.005902
v -0.009880 0.122960 0.011277
v -0.014809 0.123526 0.009743
v -0.017489 0.127579 0.012346
v -0.016894 0.122251 0.005162
v -0.023342 0.150554 0.016392
v -0.030477 0.142219 0.012225
v -0.017361 0.143546 0.023662
v -0.029509 0.147967 0.015597
v -0.026039 0.147270 0.019867
v -0.024492 0.142297 0.018670
v -0.021465 0.148781 0.022611
v -0.012946 0.119534 -0.003993
v -0.023473 0.127500 0.005902
v -0.026136 0.126232 -0.011299
v -0.018917 0.121918 0.001489
v -0.021743 0.122385 -0.002842
v -0.025678 0.126232 -0.002516
v -0.020341 0.121239 -0.007709
v -0.033970 0.148805 -0.002898
v -0.036330 0.140425 -0.010768
v -0.033668 0.141693 0.006434
v -0.038051 0.146052 -0.007493
v -0.038088 0.145287 -0.002001
v -0.035873 0.140425 -0.001985
v -0.036418 0.146830 0.003057
v -0.011311 0.119051 -0.012231
v -0.026136 0.126232 -0.011299
v -0.017099 0.125616 -0.026217
v -0.019523 0.120998 -0.011827
v -0.018942 0.121557 -0.016957
v -0.022370 0.125254 -0.019186
v -0.014691 0.120668 -0.019804
v -0.029676 0.147536 -0.024532
v -0.026004 0.139428 -0.032182
v -0.035041 0.140044 -0.017264
v -0.029717 0.144849 -0.030707
v -0.033220 0.143848 -0.026527
v -0.031275 0.139066 -0.025151
v -0.035260 0.145227 -0.021558
v -0.004759 0.118976 -0.017506
v -0.017099 0.125616 -0.026217
v -0.000591 0.125941 -0.031871
v -0.011415 0.120631 -0.022442
v -0.007716 0.121430 -0.025997
v -0.009112 0.125103 -0.029863
v -0.002588 0.120805 -0.025465
v -0.012470 0.147340 -0.038388
v -0.004330 0.139694 -0.041996
v -0.020838 0.139369 -0.036342
v -0.008406 0.144922 -0.043183
v -0.013714 0.143626 -0.042235
v -0.012851 0.138856 -0.039988
v -0.018531 0.144722 -0.039716
v 0.003643 0.119345 -0.017352
v -0.000591 0.125941 -0.031871
v 0.015664 0.127055 -0.025615
v 0.001613 0.120990 -0.025388
v 0.006682 0.122062 -0.025733
v 0.007892 0.125850 -0.029550
v 0.010305 0.121585 -0.022043
v 0.009598 0.148309 -0.037983
v 0.018551 0.141099 -0.035619
v 0.002297 0.139986 -0.041874
v 0.015909 0.146235 -0.039083
v 0.011303 0.144725 -0.041776
v 0.010779 0.139894 -0.039554
v 0.005940 0.145552 -0.042920
v 0.009965 0.119985 -0.011840
v 0.015664 0.127055 -0.025615
v 0.024059 0.128436 -0.010377
v 0.013465 0.121905 -0.019287
v 0.017515 0.123158 -0.016287
v 0.020685 0.127145 -0.018396
v 0.017955 0.122644 -0.011139
v 0.026201 0.149990 -0.023506
v 0.031932 0.142985 -0.016034
v 0.023537 0.141604 -0.031272
v 0.031853 0.148175 -0.020326
v 0.030126 0.146630 -0.025363
v 0.028558 0.141694 -0.024052
v 0.026704 0.147327 -0.029671
v 0.011248 0.120597 -0.003549
v 0.024059 0.128436 -0.010377
v 0.020667 0.129439 0.006713
v 0.018596 0.122949 -0.006994
v 0.019714 0.124206 -0.002081
v 0.023282 0.128382 -0.001617
v 0.016783 0.123486 0.002145
v 0.029572 0.151596 -0.001731
v 0.029552 0.144470 0.007594
v 0.032944 0.143467 -0.009496
v 0.031964 0.149833 0.004312
v 0.033946 0.148451 -0.000678
v 0.032167 0.143413 -0.000736
v 0.034044 0.149219 -0.006169
v 0.006892 0.120894 0.003641
v 0.020667 0.129439 0.006713
v 0.007075 0.129593 0.017659
v 0.014605 0.123634 0.005740
v 0.012250 0.124715 0.010240
v 0.014467 0.128983 0.012933
v 0.007337 0.123717 0.011593
v 0.018132 0.152375 0.017153
v 0.012525 0.144859 0.024211
v 0.026117 0.144704 0.013265
v 0.016190 0.150435 0.023303
v 0.020978 0.149334 0.020730
v 0.019917 0.144248 0.019485
v 0.024527 0.150340 0.016590
v 0.065347 0.030465 0.071022
v 0.071777 0.031984 0.069103
v 0.065673 0.036938 0.068716
v 0.069089 0.030675 0.071295
v 0.067826 0.033553 0.071463
v 0.069319 0.035253 0.069664
v 0.064773 0.034178 0.071021
v 0.099285 0.066583 -0.001866
v 0.095865 0.069070 0.003873
v 0.101969 0.064116 0.004260
v 0.097614 0.069129 0.000489
v 0.100180 0.067986 0.001975
v 0.099512 0.067384 0.004821
v 0.101930 0.065626 0.000763
v 0.057884 0.031577 0.067767
v 0.060924 0.037646 0.066644
v 0.055462 0.034416 0.061987
v 0.059171 0.035013 0.068578
v 0.056717 0.035209 0.066618
v 0.057459 0.037021 0.064491
v 0.055309 0.032729 0.065285
v 0.097160 0.066900 -0.002793
v 0.090403 0.065840 -0.000784
v 0.095865 0.069070 0.003873
v 0.093316 0.066910 -0.002994
v 0.094161 0.068883 -0.000651
v 0.092400 0.068445 0.001719
v 0.097178 0.069194 0.000299
v 0.056120 0.025008 0.063155
v 0.054340 0.030237 0.059052
v 0.057069 0.023287 0.056562
v 0.053986 0.027799 0.061823
v 0.054092 0.025431 0.059752
v 0.054656 0.026582 0.057161
v 0.055915 0.022885 0.060062
v 0.096658 0.065029 -0.004106
v 0.093132 0.058890 -0.003275
v 0.090403 0.065840 -0.000784
v 0.095142 0.061612 -0.005025
v 0.092738 0.063585 -0.004371
v 0.090719 0.062185 -0.002676
v 0.093213 0.066526 -0.003264
v 0.062494 0.019836 0.063560
v 0.061124 0.019996 0.056819
v 0.068272 0.018930 0.059937
v 0.060698 0.019003 0.060365
v 0.063578 0.017733 0.060355
v 0.064784 0.018362 0.057804
v 0.065753 0.018249 0.062570
v 0.098473 0.063556 -0.003991
v 0.100280 0.057825 -0.000157
v 0.093132 0.058890 -0.003275
v 0.100569 0.060556 -0.002797
v 0.097879 0.059414 -0.004044
v 0.096792 0.057257 -0.002291
v 0.095514 0.061310 -0.005001
v 0.068196 0.023208 0.068422
v 0.071901 0.021076 0.063031
v 0.073590 0.027367 0.067448
v 0.070033 0.020780 0.066219
v 0.072066 0.022752 0.067592
v 0.073847 0.023721 0.065531
v 0.071227 0.025229 0.069343
v 0.100097 0.064517 -0.002606
v 0.101969 0.064116 0.004260
v 0.100280 0.057825 -0.000157
v 0.102097 0.065202 0.000611
v 0.102478 0.062133 -0.000123
v 0.102226 0.060470 0.002343
v 0.100902 0.060753 -0.002512
v -0.038462 0.037981 -0.057982
v -0.038608 0.038165 -0.058167
v -0.037665 0.038507 -0.058267
v -0.038542 0.038041 -0.058127
v -0.038044 0.038267 -0.058279
v -0.037978 0.038413 -0.058329
v -0.037874 0.038283 -0.058198
v -0.042606 0.049910 -0.055768
v -0.042575 0.050064 -0.055513
v -0.041662 0.050251 -0.055867
v -0.042620 0.050025 -0.055679
v -0.042108 0.050207 -0.055839
v -0.041953 0.050267 -0.055749
v -0.041975 0.050157 -0.055929
v -0.032310 0.036949 -0.042680
v -0.031513 0.037474 -0.042965
v -0.032279 0.037103 -0.042425
v -0.031723 0.037250 -0.042896
v -0.031790 0.037217 -0.042723
v -0.031701 0.037359 -0.042716
v -0.032265 0.036988 -0.042514
v -0.036423 0.049031 -0.040211
v -0.036277 0.048847 -0.040026
v -0.035510 0.049219 -0.040566
v -0.036343 0.048971 -0.040066
v -0.035854 0.049157 -0.040283
v -0.035698 0.049104 -0.040316
v -0.035801 0.049234 -0.040448
v -0.097830 0.013240 -0.035783
v -0.098743 0.013053 -0.035429
v -0.097976 0.013424 -0.035969
v -0.098452 0.013038 -0.035547
v -0.098399 0.013115 -0.035711
v -0.098555 0.013168 -0.035678
v -0.097910 0.013300 -0.035929
v -0.101942 0.025323 -0.033314
v -0.101973 0.025169 -0.033569
v -0.102740 0.024798 -0.033029
v -0.101988 0.025284 -0.033480
v -0.102463 0.025054 -0.033271
v -0.102552 0.024913 -0.033278
v -0.102530 0.025022 -0.033098
v -0.091678 0.012208 -0.020481
v -0.091647 0.012362 -0.020227
v -0.092591 0.012021 -0.020127
v -0.091633 0.012247 -0.020316
v -0.092145 0.012065 -0.020155
v -0.092278 0.012114 -0.020065
v -0.092300 0.012005 -0.020245
v -0.095791 0.024291 -0.018013
v -0.096588 0.023765 -0.017728
v -0.095644 0.024107 -0.017827
v -0.096378 0.023989 -0.017797
v -0.096209 0.024005 -0.017716
v -0.096275 0.023859 -0.017665
v -0.095711 0.024231 -0.017867
vn -0.0566 -0.9793 -0.1944
vn -0.5292 -0.8250 -0.1985
vn 0.1813 -0.9764 -0.1173
vn 0.1815 -0.9744 0.1328
vn -0.0563 -0.9760 0.2102
vn -0.8304 -0.5016 -0.2426
vn -0.0188 -0.4989 -0.8665
vn 0.8253 -0.4861 -0.2874
vn 0.5353 -0.4810 0.6944
vn -0.4880 -0.4905 0.7220
vn -0.7911 -0.2123 -0.5736
vn 0.3040 -0.2047 -0.9304
vn 0.9816 -0.1908 0.0008
vn 0.3053 -0.1897 0.9332
vn -0.7903 -0.2030 0.5781
vn -0.3217 0.8113 -0.4882
vn 0.3532 0.8180 -0.4540
vn 0.5292 0.8250 0.1985
vn -0.0369 0.8226 0.5675
vn -0.5628 0.8141 0.1431
vn -0.1813 0.9764 0.1173
vn -0.3547 0.9024 0.2446
vn -0.3210 0.8191 0.4754
vn 0.0566 0.9793 0.1944
vn 0.1239 0.9082 0.3997
vn 0.3538 0.8253 0.4402
vn 0.2034 0.9791 -0.0081
vn 0.4194 0.9078 -0.0076
vn 0.5289 0.8217 -0.2125
vn 0.0563 0.9760 -0.2102
vn 0.1234 0.9017 -0.4145
vn -0.0378 0.8133 -0.5807
vn -0.1815 0.9744 -0.1328
vn -0.3551 0.8984 -0.2586
vn -0.5630 0.8117 -0.1555
vn -0.8253 0.4861 0.2874
vn -0.7755 0.2915 0.5600
vn -0.5343 0.4921 0.6873
vn 0.0188 0.4989 0.8665
vn 0.2932 0.3045 0.9063
vn 0.4890 0.5021 0.7133
vn 0.8304 0.5016 0.2426
vn 0.9528 0.3035 -0.0031
vn 0.8300 0.4976 -0.2519
vn 0.4880 0.4905 -0.7220
vn 0.2918 0.2898 -0.9115
vn 0.0175 0.4848 -0.8745
vn -0.5353 0.4810 -0.6944
vn -0.7763 0.2825 -0.5635
vn -0.8257 0.4814 -0.2940
vn -0.3040 0.2047 0.9304
vn -0.2918 -0.2898 0.9115
vn -0.0175 -0.4848 0.8745
vn 0.7911 0.2123 0.5736
vn 0.7763 -0.2825 0.5635
vn 0.8257 -0.4814 0.2940
vn 0.7903 0.2030 -0.5781
vn 0.7755 -0.2915 -0.5600
vn 0.5343 -0.4921 -0.6873
vn -0.3053 0.1897 -0.9332
vn -0.2932 -0.3045 -0.9063
vn -0.4890 -0.5021 -0.7133
vn -0.9816 0.1908 -0.0008
vn -0.9528 -0.3035 0.0031
vn -0.8300 -0.4976 0.2519
vn -0.3532 -0.8180 0.4540
vn -0.1234 -0.9017 0.4145
vn 0.0378 -0.8133 0.5807
vn 0.3217 -0.8113 0.4882
vn 0.3551 -0.8984 0.2586
vn 0.5630 -0.8117 0.1555
vn 0.5628 -0.8141 -0.1431
vn 0.3547 -0.9024 -0.2446
vn 0.3210 -0.8191 -0.4754
vn -0.5289 -0.8217 0.2125
vn -0.4194 -0.9078 0.0076
vn -0.2034 -0.9791 0.0081
vn 0.0369 -0.8226 -0.5675
vn -0.1239 -0.9082 -0.3997
vn -0.3538 -0.8253 -0.4402
vn -0.0670 -0.9859 -0.1530
vn -0.4602 -0.8723 -0.1651
vn 0.1190 -0.9885 -0.0932
vn 0.1196 -0.9876 0.1022
vn -0.0660 -0.9844 0.1631
vn -0.7844 -0.5783 -0.2242
vn -0.0327 -0.5928 -0.8047
vn 0.7516 -0.6022 -0.2690
vn 0.4847 -0.5936 0.6425
vn -0.4646 -0.5788 0.6702
vn -0.7878 -0.2458 -0.5648
vn 0.2921 -0.2642 -0.9192
vn 0.9629 -0.2699 -0.0016
vn 0.2976 -0.2551 0.9200
vn -0.7844 -0.2402 0.5719
vn -0.2483 0.8804 -0.4041
vn 0.3127 0.8719 -0.3768
vn 0.4602 0.8723 0.1651
vn -0.0096 0.8811 0.4729
vn -0.4474 0.8861 0.1211
vn -0.1190 0.9885 0.0932
vn -0.2634 0.9440 0.1985
vn -0.2458 0.8843 0.3969
vn 0.0670 0.9859 0.1530
vn 0.1218 0.9387 0.3224
vn 0.3149 0.8756 0.3663
vn 0.1814 0.9834 -0.0054
vn 0.3587 0.9334 -0.0057
vn 0.4592 0.8706 -0.1765
vn 0.0660 0.9844 -0.1631
vn 0.1198 0.9355 -0.3324
vn -0.0125 0.8764 -0.4814
vn -0.1196 0.9876 -0.1022
vn -0.2646 0.9420 -0.2062
vn -0.4482 0.8849 -0.1271
vn -0.7516 0.6022 0.2690
vn -0.7443 0.3839 0.5465
vn -0.4808 0.5999 0.6395
vn 0.0327 0.5928 0.8047
vn 0.2954 0.3696 0.8810
vn 0.4686 0.5854 0.6616
vn 0.7844 0.5783 0.2242
vn 0.9347 0.3553 -0.0046
vn 0.7830 0.5761 -0.2347
vn 0.4646 0.5788 -0.6702
vn 0.2901 0.3609 -0.8863
vn 0.0278 0.5848 -0.8107
vn -0.4847 0.5936 -0.6425
vn -0.7476 0.3785 -0.5458
vn -0.7533 0.5995 -0.2704
vn -0.2921 0.2642 0.9192
vn -0.2901 -0.3609 0.8863
vn -0.0278 -0.5848 0.8107
vn 0.7878 0.2458 0.5648
vn 0.7476 -0.3785 0.5458
vn 0.7533 -0.5995 0.2704
vn 0.7844 0.2402 -0.5719
vn 0.7443 -0.3839 -0.5465
vn 0.4808 -0.5999 -0.6395
vn -0.2976 0.2551 -0.9200
vn -0.2954 -0.3696 -0.8810
vn -0.4686 -0.5854 -0.6616
vn -0.9629 0.2699 0.0016
vn -0.9347 -0.3553 0.0046
vn -0.7830 -0.5761 0.2347
vn -0.3127 -0.8719 0.3768
vn -0.1198 -0.9355 0.3324
vn 0.0125 -0.8764 0.4814
vn 0.2483 -0.8804 0.4041
vn 0.2646 -0.9420 0.2062
vn 0.4482 -0.8849 0.1271
vn 0.4474 -0.8861 -0.1211
vn 0.2634 -0.9440 -0.1985
vn 0.2458 -0.8843 -0.3969
vn -0.4592 -0.8706 0.1765
vn -0.3587 -0.9334 0.0057
vn -0.1814 -0.9834 0.0054
vn 0.0096 -0.8811 -0.4729
vn -0.1218 -0.9387 -0.3224
vn -0.3149 -0.8756 -0.3663
vn -0.2765 0.3987 0.8744
vn -0.1830 -0.9290 0.3216
vn -0.1180 0.8467 0.5189
vn -0.0100 0.9712 0.2380
vn -0.6920 0.4358 0.5755
vn -0.3551 -0.9137 0.1978
vn -0.3536 0.8677 0.3494
vn -0.1076 0.9799 0.1678
vn -0.8796 0.4653 0.0987
vn -0.4329 -0.9015 0.0003
vn -0.4600 0.8844 0.0790
vn -0.1517 0.9869 0.0558
vn -0.7798 0.4777 -0.4046
vn -0.3915 -0.8963 -0.2082
vn -0.4034 0.8914 -0.2064
vn -0.1283 0.9898 -0.0625
vn -0.4242 0.4692 -0.7745
vn -0.2442 -0.8998 -0.3614
vn -0.2017 0.8866 -0.4162
vn -0.0447 0.9878 -0.1494
vn 0.0742 0.4424 -0.8937
vn -0.0377 -0.9109 -0.4108
vn 0.0810 0.8714 -0.4838
vn 0.0724 0.9815 -0.1774
vn 0.5573 0.4059 -0.7243
vn 0.1624 -0.9261 -0.3406
vn 0.3549 0.8507 -0.3877
vn 0.1859 0.9729 -0.1376
vn 0.8716 0.3712 -0.3201
vn 0.2925 -0.9404 -0.1732
vn 0.5332 0.8310 -0.1585
vn 0.2597 0.9648 -0.0426
vn 0.9174 0.3494 0.1906
vn 0.3115 -0.9495 0.0383
vn 0.5591 0.8187 0.1311
vn 0.2704 0.9596 0.0773
vn 0.6801 0.3473 0.6457
vn 0.2132 -0.9503 0.2268
vn 0.4245 0.8175 0.3892
vn 0.2147 0.9591 0.1842
vn 0.2350 0.3657 0.9006
vn 0.0288 -0.9427 0.3324
vn 0.1721 0.8279 0.5337
vn 0.1101 0.9635 0.2441
vn -0.0624 -0.9974 -0.0370
vn -0.1829 0.7142 0.6756
vn 0.2033 0.6893 0.6954
vn 0.0624 0.9974 0.0370
vn -0.4967 0.7422 0.4499
vn -0.6384 0.7645 0.0899
vn -0.5630 0.7738 -0.2902
vn -0.2945 0.7674 -0.5695
vn 0.0819 0.7472 -0.6595
vn 0.4467 0.7196 -0.5316
vn 0.6840 0.6934 -0.2264
vn 0.7186 0.6769 0.1593
vn 0.5394 0.6754 0.5029
vn -0.2260 -0.3637 0.9037
vn -0.0935 -0.9158 0.3905
vn -0.2262 0.4015 0.8875
vn -0.0938 0.9315 0.3514
vn -0.6164 -0.3682 0.6960
vn -0.2552 -0.9177 0.3045
vn -0.6166 0.3970 0.6799
vn -0.2555 0.9297 0.2654
vn -0.8656 -0.3759 0.3308
vn -0.3584 -0.9209 0.1532
vn -0.8657 0.3893 0.3146
vn -0.3587 0.9264 0.1141
vn -0.9164 -0.3852 -0.1084
vn -0.3795 -0.9248 -0.0287
vn -0.9166 0.3800 -0.1245
vn -0.3798 0.9226 -0.0678
vn -0.7573 -0.3939 -0.5208
vn -0.3136 -0.9284 -0.1996
vn -0.7575 0.3713 -0.5370
vn -0.3139 0.9190 -0.2386
vn -0.4247 -0.4000 -0.8122
vn -0.1758 -0.9309 -0.3202
vn -0.4249 0.3652 -0.8283
vn -0.1761 0.9165 -0.3593
vn 0.0052 -0.4021 -0.9156
vn 0.0023 -0.9318 -0.3631
vn 0.0051 0.3631 -0.9317
vn 0.0020 0.9156 -0.4021
vn 0.4340 -0.3998 -0.8074
vn 0.1799 -0.9308 -0.3182
vn 0.4338 0.3654 -0.8236
vn 0.1796 0.9166 -0.3573
vn 0.7633 -0.3935 -0.5124
vn 0.3163 -0.9282 -0.1961
vn 0.7632 0.3717 -0.5286
vn 0.3160 0.9192 -0.2351
vn 0.9178 -0.3847 -0.0981
vn 0.3803 -0.9245 -0.0245
vn 0.9177 0.3805 -0.1143
vn 0.3800 0.9228 -0.0635
vn 0.8621 -0.3754 0.3404
vn 0.3572 -0.9207 0.1572
vn 0.8619 0.3898 0.3243
vn 0.3569 0.9266 0.1181
vn 0.6088 -0.3678 0.7029
vn 0.2523 -0.9175 0.3073
vn 0.6087 0.3974 0.6867
vn 0.2520 0.9298 0.2683
vn 0.2162 -0.3636 0.9061
vn 0.0897 -0.9158 0.3915
vn 0.2160 0.4016 0.8900
vn 0.0893 0.9316 0.3525
vn 0.0002 -0.9998 0.0211
vn -0.0000 1.0000 -0.0000
vn -0.0002 0.9998 -0.0211
vn 0.0579 -0.9149 0.3994
vn 0.1374 -0.6653 0.7338
vn -0.1053 -0.6760 0.7294
vn -0.1068 0.8205 0.5616
vn -0.1271 -0.2216 0.9668
vn 0.1105 -0.2112 0.9712
vn -0.1629 -0.9288 0.3327
vn -0.3292 -0.6913 0.6432
vn -0.5118 -0.7098 0.4840
vn -0.4847 0.7916 0.3719
vn -0.7045 -0.2671 0.6575
vn -0.5258 -0.2490 0.8134
vn -0.2887 -0.9472 0.1399
vn -0.6275 -0.7288 0.2741
vn -0.6645 -0.7465 0.0346
vn -0.6515 0.7585 -0.0163
vn -0.9467 -0.3182 0.0493
vn -0.9104 -0.3009 0.2838
vn -0.2606 -0.9613 -0.0890
vn -0.6178 -0.7603 -0.2008
vn -0.4920 -0.7688 -0.4084
vn -0.5291 0.7365 -0.4215
vn -0.7404 -0.3512 -0.5731
vn -0.8635 -0.3428 -0.3698
vn -0.0919 -0.9647 -0.2467
vn -0.3048 -0.7710 -0.5592
vn -0.0750 -0.7664 -0.6379
vn -0.1747 0.7360 -0.6541
vn -0.1820 -0.3506 -0.9187
vn -0.4070 -0.3550 -0.8416
vn 0.1386 -0.9557 -0.2595
vn 0.1652 -0.7559 -0.6335
vn 0.3915 -0.7404 -0.5464
vn 0.2458 0.7572 -0.6051
vn 0.4671 -0.3166 -0.8256
vn 0.2456 -0.3318 -0.9108
vn 0.3229 -0.9386 -0.1214
vn 0.5721 -0.7221 -0.3889
vn 0.6890 -0.7029 -0.1768
vn 0.5357 0.7903 -0.2976
vn 0.9032 -0.2652 -0.3374
vn 0.7888 -0.2840 -0.5451
vn 0.3749 -0.9213 0.1030
vn 0.7257 -0.6854 0.0602
vn 0.6784 -0.6715 0.2981
vn 0.5592 0.8196 0.1246
vn 0.9223 -0.2204 0.3174
vn 0.9685 -0.2341 0.0845
vn 0.2703 -0.9120 0.3087
vn 0.5540 -0.6630 0.5036
vn 0.3647 -0.6608 0.6560
vn 0.3055 0.8316 0.4639
vn 0.5154 -0.2032 0.8325
vn 0.7006 -0.2053 0.6833
vn -0.2097 -0.7108 0.6715
vn -0.0591 -0.9450 0.3218
vn -0.3524 -0.0893 0.9316
vn -0.1872 0.9284 0.3211
vn 0.1302 -0.4886 0.8627
vn -0.1184 -0.4996 0.8581
vn -0.6136 -0.5396 0.5764
vn -0.4265 -0.5207 0.7396
vn -0.5529 -0.7455 0.3722
vn -0.2012 -0.9594 0.1979
vn -0.8617 -0.1409 0.4875
vn -0.3981 0.9070 0.1371
vn -0.8107 -0.5839 0.0423
vn -0.7728 -0.5658 0.2876
vn -0.0000 -1.0000 -0.0000
vn -0.2301 -0.9731 0.0114
vn -0.9650 -0.1901 -0.1804
vn -0.4409 0.8866 -0.1395
vn -0.6175 -0.6117 -0.4945
vn -0.7464 -0.6029 -0.2817
vn -0.0000 -0.6000 -0.8000
vn -0.1322 -0.9798 -0.1503
vn -0.6142 -0.2140 -0.7596
vn -0.2956 0.8767 -0.3795
vn -0.1244 -0.6100 -0.7826
vn -0.3599 -0.6146 -0.7019
vn 0.0458 -0.7863 -0.6162
vn 0.0468 -0.9762 -0.2115
vn 0.0268 -0.2014 -0.9791
vn -0.0301 0.8819 -0.4704
vn 0.4379 -0.5796 -0.6873
vn 0.2060 -0.5955 -0.7765
vn 0.4712 -0.7571 -0.4525
vn 0.2229 -0.9642 -0.1437
vn 0.6580 -0.1582 -0.7362
vn 0.2313 0.8999 -0.3698
vn 0.8062 -0.5347 -0.2532
vn 0.6865 -0.5544 -0.4705
vn 0.7071 -0.7071 -0.0000
vn 0.3139 -0.9492 0.0214
vn 0.9840 -0.1045 -0.1446
vn 0.3664 0.9221 -0.1247
vn 0.8083 -0.4964 0.3166
vn 0.8567 -0.5107 0.0729
vn 0.6021 -0.6948 0.3934
vn 0.2772 -0.9383 0.2066
vn 0.8523 -0.0656 0.5190
vn 0.3118 0.9382 0.1502
vn 0.4431 -0.4825 0.7555
vn 0.6370 -0.4847 0.5994
vn 0.9912 -0.0465 0.1239
vn 0.1299 -0.9367 0.3253
vn 0.3245 -0.0596 0.9440
vn 0.0932 0.9407 0.3262
vn 0.0426 -0.9969 0.0669
vn -0.0000 -0.4687 0.8833
vn 0.9976 -0.0312 0.0623
vn -0.0426 0.9969 -0.0669
vn -0.6442 -0.7648 -0.0000
vn 0.1228 -0.3367 -0.9336
vn -0.6605 -0.7508 -0.0000
vn -0.1477 -0.0224 0.9888
vn 0.5594 0.1988 0.8047
vn 0.1193 0.6702 0.7325
vn 0.6315 0.6692 -0.3917
vn 0.3126 0.9331 0.1778
vn 0.7866 0.5402 0.2990
vn -0.6928 0.0057 0.7211
vn -0.4100 0.7012 0.5832
vn -0.8467 0.5129 0.1417
vn 0.1045 0.7984 -0.5930
vn -0.5680 0.7190 -0.4006
vn -0.1980 0.9796 0.0342
vn -0.7688 -0.5023 0.3959
vn -0.9948 0.0377 -0.0942
vn -0.7755 -0.4970 -0.3894
vn -0.0703 0.3614 -0.9298
vn -0.4328 -0.2391 -0.8692
vn -0.7216 0.2680 -0.6383
vn -0.2706 -0.8443 0.4625
vn -0.3869 -0.8749 -0.2914
vn 0.2345 -0.9638 -0.1268
vn 0.3486 -0.0378 -0.9365
vn 0.5313 -0.6171 -0.5805
vn -0.0605 -0.6112 -0.7892
vn 0.1132 -0.5477 0.8289
vn 0.5737 -0.7753 0.2642
vn 0.7875 -0.2424 0.5666
vn 0.7823 0.1524 -0.6039
vn 0.9920 0.1074 0.0666
vn 0.8716 -0.4430 -0.2098
vn -0.2124 0.6663 0.7148
vn -0.4068 -0.0625 0.9114
vn 0.1143 0.9905 0.0763
vn 0.3553 0.7497 -0.5583
vn 0.7106 0.4401 0.5490
vn 0.2436 0.8191 0.5193
vn -0.7483 0.6576 -0.0873
vn -0.3304 0.9047 0.2690
vn -0.9743 0.2158 0.0652
vn -0.7278 -0.2524 0.6377
vn -0.6226 0.5547 -0.5520
vn 0.0447 0.5660 -0.8232
vn -0.6752 -0.3793 -0.6326
vn -0.8839 0.1524 -0.4421
vn -0.5937 -0.7536 -0.2822
vn -0.5674 -0.6608 0.4913
vn -0.2544 -0.3830 -0.8880
vn 0.1998 0.1708 -0.9648
vn 0.3619 -0.8586 -0.3630
vn -0.1850 -0.7771 -0.6015
vn 0.4034 -0.9022 0.1526
vn -0.1474 -0.7234 0.6745
vn 0.7100 -0.5267 -0.4674
vn 0.6063 0.1102 -0.7875
vn 0.9297 -0.1179 0.3490
vn 0.8005 -0.5993 0.0110
vn 0.6390 -0.0247 0.7688
vn -0.0481 -0.3537 0.9341
vn 0.9379 0.3221 0.1286
vn 0.7024 0.4680 -0.5363
vn -0.4128 -0.4466 0.7938
vn -0.0504 0.9040 0.4245
vn 0.8603 0.1649 0.4823
vn 0.4128 0.4466 -0.7938
vn -0.8653 0.4221 -0.2703
vn -0.4582 -0.6148 -0.6420
vn 0.6083 -0.7738 -0.1768
vn 0.2839 -0.8588 -0.4265
vn -0.1172 -0.3623 -0.9247
vn 0.3164 -0.5377 -0.7815
vn -0.3825 0.4463 -0.8090
vn -0.3643 0.9239 -0.1167
vn -0.1570 0.8533 -0.4973
vn 0.4624 -0.8831 0.0801
vn 0.7425 -0.6093 0.2784
vn 0.5439 -0.3790 0.7487
vn -0.1538 0.9130 0.3778
vn 0.2353 0.4114 0.8805
vn 0.2690 0.7818 0.5625
vn 0.1398 -0.8862 -0.4416
vn -0.2691 -0.7818 -0.5626
vn -0.3021 -0.3314 -0.8938
vn -0.4592 0.8883 -0.0097
vn -0.5360 0.4719 -0.7000
vn -0.7425 0.6093 -0.2783
vn 0.3292 -0.9425 0.0584
vn 0.4178 -0.5211 0.7442
vn 0.1570 -0.8533 0.4973
vn -0.2379 0.8454 0.4783
vn -0.3164 0.5378 0.7815
vn 0.1407 0.2641 0.9542
vn 0.3823 -0.8988 -0.2144
vn 0.6456 -0.6993 -0.3068
vn -0.2831 0.0986 -0.9540
vn 0.1201 0.2378 -0.9639
vn -0.2485 0.9546 0.1643
vn 0.0683 0.9969 0.0398
vn 0.4578 -0.0258 0.8887
vn 0.7625 0.1300 0.6338
vn 0.4140 -0.9049 0.0986
vn 0.4780 -0.4976 0.7238
vn -0.1891 0.8672 0.4607
vn 0.1767 0.3877 0.9047
vn -0.1202 -0.2378 0.9638
vn 0.2831 -0.0986 0.9540
vn 0.2485 -0.9546 -0.1643
vn -0.0683 -0.9969 -0.0398
vn -0.3823 0.8988 0.2144
vn -0.6456 0.6993 0.3068
vn -0.4578 0.0258 -0.8887
vn -0.7625 -0.1300 -0.6338
vn 0.1891 -0.8672 -0.4607
vn -0.1767 -0.3877 -0.9047
vn -0.4140 0.9049 -0.0986
vn -0.4780 0.4977 -0.7237
vn 0.3163 -0.9294 -0.1899
vn 0.8725 0.3636 -0.3263
vn -0.3723 0.0625 -0.9260
vn -0.3163 0.9294 0.1899
vn 0.3723 -0.0625 0.9260
vn -0.8725 -0.3636 0.3263
vn 0.0809 0.8714 -0.4838
vn 0.2926 -0.9404 -0.1732
vn 0.3569 0.9267 0.1181
vn 0.6089 -0.3678 0.7029
vn 0.0080 -0.9171 0.3985
vn 0.2055 -0.6217 0.7558
vn -0.1778 -0.6385 0.7488
vn 0.0138 0.8258 0.5638
vn -0.2345 -0.3192 0.9182
vn 0.2278 -0.2989 0.9267
vn -0.2004 -0.9326 0.3000
vn -0.2934 -0.6464 0.7043
vn -0.5818 -0.6756 0.4529
vn -0.3940 0.8008 0.4510
vn -0.7506 -0.3660 0.5502
vn -0.4028 -0.3308 0.8534
vn -0.2963 -0.9508 0.0906
vn -0.6415 -0.6854 0.3445
vn -0.7000 -0.7133 -0.0337
vn -0.6331 0.7672 0.1027
vn -0.9081 -0.4139 -0.0637
vn -0.8375 -0.3803 0.3925
vn -0.2348 -0.9631 -0.1317
vn -0.6759 -0.7204 -0.1552
vn -0.4772 -0.7340 -0.4833
vn -0.5916 0.7407 -0.3183
vn -0.6333 -0.4406 -0.6362
vn -0.8730 -0.4243 -0.2406
vn -0.0447 -0.9638 -0.2629
vn -0.3806 -0.7351 -0.5611
vn -0.0176 -0.7279 -0.6854
vn -0.2889 0.7338 -0.6149
vn -0.0549 -0.4336 -0.8994
vn -0.4926 -0.4422 -0.7495
vn 0.1851 -0.9526 -0.2416
vn 0.1064 -0.7225 -0.6831
vn 0.4638 -0.6980 -0.5456
vn 0.1334 0.7495 -0.6484
vn 0.5566 -0.3961 -0.7302
vn 0.1256 -0.4257 -0.8961
vn 0.3470 -0.9346 -0.0778
vn 0.5571 -0.6886 -0.4643
vn 0.7417 -0.6582 -0.1292
vn 0.4776 0.7807 -0.4030
vn 0.9150 -0.3458 -0.2078
vn 0.6924 -0.3824 -0.6119
vn 0.3652 -0.9184 0.1519
vn 0.7606 -0.6492 -0.0069
vn 0.6860 -0.6271 0.3689
vn 0.5827 0.8127 0.0063
vn 0.8526 -0.3061 0.4235
vn 0.9426 -0.3326 -0.0297
vn 0.2314 -0.9115 0.3400
vn 0.6218 -0.6227 0.4750
vn 0.3229 -0.6193 0.7156
vn 0.3995 0.8305 0.3881
vn 0.3987 -0.2956 0.8682
vn 0.7591 -0.2997 0.5779
vn -0.0000 -0.7214 0.6925
vn -0.2013 -0.9594 0.1979
vn -0.6226 -0.7787 -0.0779
vn -0.3861 -0.7948 -0.4682
vn -0.2956 0.8767 -0.3794
vn 0.6580 -0.1582 -0.7363
vn 0.6908 -0.7210 -0.0538
vn 0.2464 -0.6907 0.6798
vn 0.1298 -0.9367 0.3253
vn 0.0425 -0.9969 0.0669
vn -0.2838 -0.4893 0.8246
vn 0.2952 -0.4639 0.8353
vn -0.7195 -0.5334 0.4448
vn -0.8079 -0.5756 -0.1266
vn -0.5077 -0.5960 -0.6221
vn 0.0406 -0.5852 -0.8099
vn 0.5805 -0.5482 -0.6021
vn 0.8593 -0.5023 -0.0960
vn 0.7467 -0.4690 0.4717
vn -0.0674 -0.0875 0.9939
vn 0.5741 0.3011 0.7614
vn 0.0191 0.6373 0.7704
vn 0.5551 0.7312 -0.3965
vn 0.3449 0.8987 0.2710
vn 0.8339 0.5100 0.2109
vn -0.6210 0.0481 0.7823
vn -0.4397 0.7535 0.4887
vn -0.8934 0.4153 0.1710
vn 0.0362 0.7580 -0.6513
vn -0.5933 0.7459 -0.3028
vn -0.1015 0.9948 -0.0028
vn -0.8046 -0.4109 0.4286
vn -0.9788 0.0209 -0.2038
vn -0.7533 -0.5775 -0.3146
vn -0.0362 0.2744 -0.9609
vn -0.5241 -0.2349 -0.8186
vn -0.6659 0.3545 -0.6565
vn -0.3646 -0.8303 0.4215
vn -0.2981 -0.8844 -0.3591
vn 0.2458 -0.9692 -0.0154
vn 0.4380 -0.0512 -0.8975
vn 0.4568 -0.6883 -0.5636
vn -0.0792 -0.5260 -0.8468
vn 0.0910 -0.6304 0.7709
vn 0.6617 -0.7112 0.2374
vn 0.7232 -0.2184 0.6552
vn 0.8035 0.2311 -0.5487
vn 0.9939 0.0123 0.1098
vn 0.8477 -0.4300 -0.3107
vn -0.4068 -0.0626 0.9114
vn 0.3619 -0.8587 -0.3630
vn 0.2378 -0.8454 -0.4783
vn -0.1407 -0.2641 -0.9542
vn 0.4181 -0.4592 -0.7838
vn -0.4178 0.5211 -0.7442
vn -0.3292 0.9425 -0.0584
vn -0.0298 0.8568 -0.5148
vn 0.4593 -0.8882 0.0098
vn 0.8212 -0.5269 0.2190
vn 0.5360 -0.4719 0.7000
vn -0.1398 0.8863 0.4416
vn 0.3022 0.3313 0.8938
vn 0.3733 0.7891 0.4878
vn 0.1538 -0.9130 -0.3778
vn -0.3734 -0.7891 -0.4878
vn -0.2353 -0.4115 -0.8805
vn -0.4623 0.8831 -0.0801
vn -0.5439 0.3790 -0.7487
vn -0.8213 0.5269 -0.2188
vn 0.3643 -0.9239 0.1167
vn 0.3825 -0.4462 0.8091
vn 0.0297 -0.8567 0.5149
vn -0.2839 0.8588 0.4264
vn -0.4181 0.4592 0.7838
vn 0.1172 0.3622 0.9247
vn 0.1202 0.2378 -0.9638
vn -0.1201 -0.2378 0.9638
vn -0.6456 0.6994 0.3068
vn -0.1767 -0.3878 -0.9047
vn -0.4780 0.4976 -0.7238
vt 0.181819 0.000000
vt 0.227273 0.078731
vt 0.136365 0.078731
vt 0.272728 0.157461
vt 0.318182 0.078731
vt 0.363637 0.157461
vt 0.909091 0.000000
vt 0.954545 0.078731
vt 0.863636 0.078731
vt 0.727273 0.000000
vt 0.772727 0.078731
vt 0.681818 0.078731
vt 0.545455 0.000000
vt 0.590909 0.078731
vt 0.500000 0.078731
vt 0.318182 0.236191
vt 0.090910 0.157461
vt 0.181819 0.157461
vt 0.136365 0.236191
vt 0.818182 0.157461
vt 0.909091 0.157461
vt 0.863636 0.236191
vt 0.636364 0.157461
vt 0.727273 0.157461
vt 0.681818 0.236191
vt 0.454546 0.157461
vt 0.545455 0.157461
vt 0.500000 0.236191
vt 0.227273 0.236191
vt 0.045455 0.236191
vt 0.772727 0.236191
vt 0.590909 0.236191
vt 0.409092 0.236191
vt 0.181819 0.314921
vt 0.272728 0.314921
vt 0.227273 0.393651
vt 0.000000 0.314921
vt 0.090910 0.314921
vt 0.045455 0.393651
vt 0.727273 0.314921
vt 0.818182 0.314921
vt 0.772727 0.393651
vt 0.545455 0.314921
vt 0.636364 0.314921
vt 0.590909 0.393651
vt 0.363637 0.314921
vt 0.454546 0.314921
vt 0.409092 0.393651
vt 0.500000 0.393651
vt 0.454546 0.472382
vt 0.681818 0.393651
vt 0.636364 0.472382
vt 0.863636 0.393651
vt 0.818182 0.472382
vt 0.909091 0.314921
vt 0.136365 0.393651
vt 0.090910 0.472382
vt 0.318182 0.393651
vt 0.272728 0.472382
vt 0.954545 0.236191
vt 1.000000 0.157461
vt 0.409092 0.078731
vt 0.363637 0.000000
vt 0.909091 0.620362
vt 0.995210 0.500000
vt 1.000000 0.620362
vt 0.750000 0.487993
vt 0.852708 0.409816
vt 0.750000 0.439974
vt 1.000000 0.879638
vt 0.909091 1.000000
vt 0.909091 0.879638
vt 0.250000 0.489142
vt 0.306937 0.338595
vt 0.379290 0.451179
vt 0.818182 0.620362
vt 0.909091 0.500000
vt 0.878669 0.450212
vt 0.922806 0.328918
vt 0.818182 1.000000
vt 0.818182 0.879638
vt 0.345797 0.293749
vt 0.467531 0.349343
vt 0.727273 0.620362
vt 0.818182 0.500000
vt 0.985570 0.216130
vt 0.966486 0.348866
vt 0.727273 1.000000
vt 0.727273 0.879638
vt 0.354242 0.235012
vt 0.486708 0.215967
vt 0.636364 0.620362
vt 0.727273 0.500000
vt 0.929863 0.094148
vt 0.938040 0.222964
vt 0.636364 1.000000
vt 0.636364 0.879638
vt 0.430731 0.093395
vt 0.329591 0.181034
vt 0.545454 0.620362
vt 0.636363 0.500000
vt 0.817050 0.021648
vt 0.893573 0.125594
vt 0.545454 1.000000
vt 0.545454 0.879638
vt 0.279670 0.148952
vt 0.317374 0.020545
vt 0.454545 0.500000
vt 0.545454 0.500000
vt 0.682950 0.021648
vt 0.803522 0.067722
vt 0.454545 1.000000
vt 0.454545 0.879638
vt 0.182626 0.020545
vt 0.220330 0.148952
vt 0.454545 0.620362
vt 0.363636 0.500000
vt 0.570137 0.094148
vt 0.696478 0.067722
vt 0.363636 1.000000
vt 0.363636 0.879638
vt 0.170409 0.181034
vt 0.069269 0.093395
vt 0.272727 0.620362
vt 0.363636 0.620362
vt 0.561960 0.222964
vt 0.606428 0.125594
vt 0.272727 0.879638
vt 0.272727 1.000000
vt 0.145758 0.235012
vt 0.013292 0.215967
vt 0.181818 0.620362
vt 0.272727 0.500000
vt 0.533514 0.348866
vt 0.514430 0.216130
vt 0.181818 0.879638
vt 0.181818 1.000000
vt 0.154203 0.293749
vt 0.032469 0.349343
vt 0.090909 0.500000
vt 0.181818 0.500000
vt 0.621331 0.450212
vt 0.577194 0.328918
vt 0.090909 1.000000
vt 0.090909 0.879638
vt 0.120710 0.451179
vt 0.193063 0.338595
vt 0.090909 0.620362
vt 0.004789 0.500000
vt 0.647292 0.409816
vt -0.000000 0.879638
vt 0.002048 1.000000
vt 0.250000 0.355313
vt -0.000000 0.620362
vt 1.000000 0.750000
vt 0.923077 0.500000
vt 0.997293 0.500000
vt 0.750000 0.489033
vt 0.834730 0.411440
vt 0.750000 0.432324
vt 0.923077 1.000000
vt 0.923077 0.750000
vt 0.250000 0.489033
vt 0.334730 0.411440
vt 0.361084 0.461653
vt 0.846154 0.750000
vt 0.923077 0.750000
vt 0.861084 0.461653
vt 0.900050 0.353572
vt 0.846154 0.750000
vt 0.846154 1.000000
vt 0.400050 0.353572
vt 0.446720 0.385786
vt 0.769231 0.500000
vt 0.846154 0.500000
vt 0.987290 0.278812
vt 0.946720 0.385786
vt 0.769231 0.750000
vt 0.769231 1.000000
vt 0.430995 0.271977
vt 0.487290 0.278812
vt 0.769231 0.750000
vt 0.692308 0.500000
vt 0.973499 0.165238
vt 0.930995 0.271977
vt 0.692308 1.000000
vt 0.692308 0.750000
vt 0.420476 0.185347
vt 0.473499 0.165238
vt 0.615385 0.750000
vt 0.908508 0.071082
vt 0.920476 0.185347
vt 0.615385 1.000000
vt 0.615385 0.750000
vt 0.408508 0.071082
vt 0.370903 0.113528
vt 0.538462 0.750000
vt 0.615385 0.500000
vt 0.807204 0.017913
vt 0.870903 0.113528
vt 0.538462 1.000000
vt 0.538462 0.750000
vt 0.293633 0.072974
vt 0.307204 0.017913
vt 0.461539 0.500000
vt 0.538462 0.500000
vt 0.706367 0.072974
vt 0.793633 0.072974
vt 0.461538 1.000000
vt 0.461539 0.750000
vt 0.206367 0.072974
vt 0.192796 0.017913
vt 0.384615 0.750000
vt 0.461538 0.750000
vt 0.591492 0.071082
vt 0.692796 0.017913
vt 0.384615 1.000000
vt 0.384615 0.750000
vt 0.129097 0.113528
vt 0.091492 0.071082
vt 0.307692 0.750000
vt 0.384615 0.500000
vt 0.579524 0.185347
vt 0.629097 0.113528
vt 0.307692 1.000000
vt 0.079524 0.185347
vt 0.026501 0.165238
vt 0.230769 0.750000
vt 0.307692 0.500000
vt 0.512710 0.278812
vt 0.526501 0.165238
vt 0.230769 1.000000
vt 0.069005 0.271977
vt 0.012710 0.278812
vt 0.153846 0.500000
vt 0.230769 0.500000
vt 0.553280 0.385786
vt 0.569005 0.271977
vt 0.153846 1.000000
vt 0.153846 0.750000
vt 0.099950 0.353572
vt 0.053280 0.385786
vt 0.153846 0.750000
vt 0.076923 0.500000
vt 0.638916 0.461653
vt 0.599950 0.353572
vt 0.076923 1.000000
vt 0.076923 0.750000
vt 0.165270 0.411440
vt 0.138916 0.461653
vt 0.000000 0.750000
vt 0.076923 0.750000
vt 0.665270 0.411440
vt 0.002707 1.000000
vt 0.250000 0.432324
vt 0.750000 0.384152
vt 0.746746 0.488816
vt 0.805577 0.469772
vt 0.000000 0.604345
vt 0.040029 0.500000
vt 0.055556 0.628777
vt 0.959971 0.500000
vt 1.000000 0.604345
vt 0.944445 0.628777
vt 0.250000 0.434556
vt 0.259891 0.486400
vt 0.211428 0.475961
vt 1.000000 0.846792
vt 0.972219 1.000000
vt 0.958807 0.871223
vt 0.027781 1.000000
vt 0.000000 0.846792
vt 0.041193 0.871224
vt 0.836232 0.352767
vt 0.901015 0.435035
vt 0.933841 0.382631
vt 0.888889 0.604345
vt 0.928918 0.500000
vt 0.944445 0.628777
vt 0.848860 0.500000
vt 0.833333 0.628777
vt 0.368630 0.391378
vt 0.409532 0.424735
vt 0.365697 0.447890
vt 0.888889 0.846792
vt 0.861108 1.000000
vt 0.847696 0.871223
vt 0.916670 1.000000
vt 0.930082 0.871223
vt 0.882114 0.273295
vt 0.984622 0.294675
vt 0.976084 0.233431
vt 0.777778 0.604345
vt 0.817806 0.500000
vt 0.833333 0.628777
vt 0.737749 0.500000
vt 0.722222 0.628777
vt 0.431752 0.282048
vt 0.484526 0.281309
vt 0.465830 0.327223
vt 0.777778 0.846792
vt 0.749997 1.000000
vt 0.736585 0.871223
vt 0.805559 1.000000
vt 0.818971 0.871223
vt 0.866179 0.182924
vt 0.958447 0.133410
vt 0.912540 0.091983
vt 0.666667 0.604345
vt 0.706695 0.500000
vt 0.722222 0.628777
vt 0.626638 0.500000
vt 0.611111 0.628777
vt 0.409830 0.157722
vt 0.449783 0.123234
vt 0.464974 0.170424
vt 0.666667 0.846792
vt 0.638886 1.000000
vt 0.625474 0.871224
vt 0.694448 1.000000
vt 0.707860 0.871224
vt 0.795883 0.123938
vt 0.834738 0.026700
vt 0.772941 0.024474
vt 0.555556 0.604345
vt 0.595584 0.500000
vt 0.515527 0.500000
vt 0.500000 0.628776
vt 0.313122 0.076574
vt 0.321559 0.024474
vt 0.363529 0.050858
vt 0.555556 0.846792
vt 0.527775 1.000000
vt 0.514363 0.871224
vt 0.583337 1.000000
vt 0.596749 0.871223
vt 0.704117 0.123938
vt 0.671378 0.024474
vt 0.622609 0.062490
vt 0.444444 0.604345
vt 0.484473 0.500000
vt 0.500000 0.628777
vt 0.404416 0.500000
vt 0.388889 0.628776
vt 0.186878 0.076574
vt 0.159852 0.031240
vt 0.208962 0.024474
vt 0.444444 0.846792
vt 0.416663 1.000000
vt 0.403251 0.871223
vt 0.472225 1.000000
vt 0.485638 0.871223
vt 0.633821 0.182924
vt 0.544807 0.127774
vt 0.531884 0.188245
vt 0.333333 0.604345
vt 0.373362 0.500000
vt 0.388889 0.628777
vt 0.293305 0.500000
vt 0.277778 0.628777
vt 0.090170 0.157722
vt 0.040326 0.140366
vt 0.073598 0.103615
vt 0.333333 0.846792
vt 0.305552 1.000000
vt 0.292140 0.871224
vt 0.361114 1.000000
vt 0.374526 0.871223
vt 0.617886 0.273295
vt 0.514247 0.288265
vt 0.543218 0.342895
vt 0.222222 0.604345
vt 0.262251 0.500000
vt 0.277778 0.628777
vt 0.182194 0.500000
vt 0.166667 0.628777
vt 0.068248 0.282048
vt 0.018909 0.300792
vt 0.020774 0.251252
vt 0.222222 0.846792
vt 0.194441 1.000000
vt 0.181029 0.871224
vt 0.250003 1.000000
vt 0.263415 0.871223
vt 0.663768 0.352767
vt 0.594000 0.430852
vt 0.651308 0.454079
vt 0.111111 0.604345
vt 0.151140 0.500000
vt 0.071082 0.500000
vt 0.055556 0.628777
vt 0.131370 0.391378
vt 0.105622 0.437451
vt 0.075207 0.398303
vt 0.111111 0.846792
vt 0.083330 1.000000
vt 0.069918 0.871223
vt 0.138892 1.000000
vt 0.152304 0.871223
vt 0.848692 0.454079
vt 0.956782 0.342895
vt 0.424793 0.398303
vt 0.968116 0.188245
vt 0.877391 0.062490
vt 0.426402 0.103615
vt 0.727059 0.024474
vt 0.136471 0.050858
vt 0.523916 0.233431
vt 0.694423 0.469772
vt 0.134303 0.447890
vt 0.750000 0.379056
vt 0.727218 0.473448
vt 0.818065 0.440548
vt 0.065314 0.527595
vt 0.000000 0.512460
vt 0.059640 0.500000
vt 0.934686 0.527595
vt 0.980038 0.500000
vt 1.000000 0.528114
vt 0.250000 0.309716
vt 0.283693 0.465521
vt 0.141700 0.411316
vt 0.900000 0.972405
vt 1.000000 0.989135
vt 0.905106 1.000000
vt 0.100000 0.972405
vt 0.029522 1.000000
vt 0.000000 0.972925
vt 0.872739 0.289880
vt 0.955472 0.340716
vt 0.952255 0.244149
vt 0.865314 0.527595
vt 0.790019 0.506230
vt 0.859640 0.500000
vt 0.734686 0.527595
vt 0.800000 0.528114
vt 0.306793 0.268453
vt 0.465384 0.284556
vt 0.369954 0.402849
vt 0.700000 0.972405
vt 0.814761 0.994567
vt 0.705106 1.000000
vt 0.900000 0.972405
vt 0.800000 0.972925
vt 0.825857 0.145592
vt 0.899770 0.082618
vt 0.806935 0.055836
vt 0.665314 0.527595
vt 0.590019 0.506230
vt 0.659640 0.500000
vt 0.534686 0.527595
vt 0.600000 0.528114
vt 0.285100 0.201689
vt 0.349422 0.055836
vt 0.432435 0.183150
vt 0.500000 0.972405
vt 0.614761 0.994567
vt 0.505106 1.000000
vt 0.600000 0.972925
vt 0.674143 0.145592
vt 0.637092 0.055836
vt 0.582933 0.135851
vt 0.465314 0.527595
vt 0.390019 0.506230
vt 0.459640 0.500000
vt 0.334686 0.527595
vt 0.400000 0.528114
vt 0.214900 0.201689
vt 0.096062 0.095444
vt 0.242798 0.055836
vt 0.300000 0.972405
vt 0.414761 0.994567
vt 0.305106 1.000000
vt 0.400000 0.972925
vt 0.627261 0.289880
vt 0.530448 0.297382
vt 0.589812 0.373616
vt 0.265314 0.527595
vt 0.190019 0.506230
vt 0.259640 0.500000
vt 0.134686 0.527595
vt 0.200000 0.528114
vt 0.193207 0.268453
vt 0.055439 0.348643
vt 0.063113 0.196850
vt 0.100000 0.972405
vt 0.214761 0.994567
vt 0.105106 1.000000
vt 0.300000 0.972405
vt 0.200000 0.972925
vt 0.940360 0.500000
vt 0.910188 0.373616
vt 0.894894 1.000000
vt 0.358300 0.411316
vt 0.000000 0.528114
vt 1.000000 0.972925
vt 0.740360 0.500000
vt 0.694894 1.000000
vt 0.436887 0.196850
vt 0.540360 0.500000
vt 0.693065 0.055836
vt 0.494894 1.000000
vt 0.257202 0.055836
vt 0.340360 0.500000
vt 0.547745 0.244149
vt 0.294894 1.000000
vt 0.067565 0.183150
vt 0.140360 0.500000
vt 0.094894 1.000000
vt 0.130046 0.402849
vt 0.128500 0.746500
vt 0.126479 0.750000
vt 0.125000 0.746500
vt 0.378500 0.996500
vt 0.376479 1.000000
vt 0.375000 0.996500
vt 0.375000 0.003500
vt 0.378500 0.000000
vt 0.378500 0.003500
vt 0.621500 0.996500
vt 0.625000 0.998521
vt 0.621500 1.000000
vt 0.871500 0.746500
vt 0.875000 0.748521
vt 0.871500 0.750000
vt 0.621500 0.000000
vt 0.625000 0.003500
vt 0.621500 0.003500
vt 0.128500 0.503500
vt 0.125000 0.501479
vt 0.128500 0.500000
vt 0.378500 0.250000
vt 0.375000 0.246500
vt 0.378500 0.246500
vt 0.378500 0.253500
vt 0.375740 0.250740
vt 0.871500 0.503500
vt 0.873521 0.500000
vt 0.875000 0.503500
vt 0.621500 0.253500
vt 0.624260 0.249260
vt 0.625000 0.253500
vt 0.625000 0.246500
vt 0.621500 0.250000
vt 0.621500 0.246500
vt 0.371500 0.746500
vt 0.375493 0.750000
vt 0.373250 0.751750
vt 0.378500 0.750000
vt 0.375000 0.746500
vt 0.378500 0.746500
vt 0.378500 0.753500
vt 0.628500 0.746500
vt 0.625000 0.749507
vt 0.625000 0.746500
vt 0.621500 0.753500
vt 0.626750 0.751750
vt 0.621500 0.750000
vt 0.621500 0.746500
vt 0.371500 0.503500
vt 0.375000 0.500493
vt 0.375000 0.503500
vt 0.378500 0.496500
vt 0.373250 0.498250
vt 0.378500 0.500000
vt 0.378500 0.503500
vt 0.628500 0.503500
vt 0.624507 0.500000
vt 0.626750 0.498250
vt 0.621500 0.500000
vt 0.625000 0.503500
vt 0.621500 0.503500
vt 0.621500 0.496500
vt 0.125000 0.503500
vt 0.378500 1.000000
vt 0.875000 0.746500
vt 0.375000 0.253500
vt 0.871500 0.500000
vt 0.128500 0.750000
vt 0.997952 1.000000
vt 0.997293 1.000000
vt 0.002707 0.500000
vt 0.000000 0.529085
vt 0.997656 0.500000
vt 0.288572 0.475961
vt 1.000000 0.919435
vt 0.007124 1.000000
vt 0.887717 0.514542
vt 0.892451 0.959718
vt 0.776606 0.514542
vt 0.479226 0.251252
vt 0.781340 0.959718
vt 0.665495 0.514542
vt 0.670229 0.959718
vt 0.554384 0.514542
vt 0.291038 0.024474
vt 0.559118 0.959718
vt 0.443273 0.514542
vt 0.448007 0.959718
vt 0.587460 0.091983
vt 0.332161 0.514542
vt 0.035026 0.170424
vt 0.336895 0.959718
vt 0.221050 0.514542
vt 0.034170 0.327223
vt 0.225784 0.959718
vt 0.566159 0.382631
vt 0.109939 0.514542
vt 0.114673 0.959718
vt 0.681935 0.440548
vt 0.917067 0.135851
vt 0.375000 0.001479
vt 0.625000 0.996500
vt 0.623521 0.000000
s 0
usemtl bone
f 1/1/1 14/2/1 13/3/1
f 2/4/2 14/5/2 16/6/2
f 1/7/3 13/8/3 18/9/3
f 1/10/4 18/11/4 20/12/4
f 1/13/5 20/14/5 17/15/5
f 2/4/6 16/6/6 23/16/6
f 3/17/7 15/18/7 25/19/7
f 4/20/8 19/21/8 27/22/8
f 5/23/9 21/24/9 29/25/9
f 6/26/10 22/27/10 31/28/10
f 2/4/11 23/16/11 26/29/11
f 3/17/12 25/19/12 28/30/12
f 4/20/13 27/22/13 30/31/13
f 5/23/14 29/25/14 32/32/14
f 6/26/15 31/28/15 24/33/15
f 7/34/16 33/35/16 38/36/16
f 8/37/17 34/38/17 40/39/17
f 9/40/18 35/41/18 41/42/18
f 10/43/19 36/44/19 42/45/19
f 11/46/20 37/47/20 39/48/20
f 39/48/21 42/49/21 12/50/21
f 39/48/22 37/47/22 42/49/22
f 37/47/23 10/43/23 42/49/23
f 42/45/24 41/51/24 12/52/24
f 42/45/25 36/44/25 41/51/25
f 36/44/26 9/40/26 41/51/26
f 41/42/27 40/53/27 12/54/27
f 41/42/28 35/41/28 40/53/28
f 35/41/29 8/55/29 40/53/29
f 40/39/30 38/56/30 12/57/30
f 40/39/31 34/38/31 38/56/31
f 34/38/32 7/34/32 38/56/32
f 38/36/33 39/58/33 12/59/33
f 38/36/34 33/35/34 39/58/34
f 33/35/35 11/46/35 39/58/35
f 24/33/36 37/47/36 11/46/36
f 24/33/37 31/28/37 37/47/37
f 31/28/38 10/43/38 37/47/38
f 32/32/39 36/44/39 10/43/39
f 32/32/40 29/25/40 36/44/40
f 29/25/41 9/40/41 36/44/41
f 30/31/42 35/41/42 9/40/42
f 30/31/43 27/22/43 35/41/43
f 27/22/44 8/55/44 35/41/44
f 28/30/45 34/38/45 8/37/45
f 28/30/46 25/19/46 34/38/46
f 25/19/47 7/34/47 34/38/47
f 26/29/48 33/35/48 7/34/48
f 26/29/49 23/16/49 33/35/49
f 23/16/50 11/46/50 33/35/50
f 31/28/51 32/32/51 10/43/51
f 31/28/52 22/27/52 32/32/52
f 22/27/53 5/23/53 32/32/53
f 29/25/54 30/31/54 9/40/54
f 29/25/55 21/24/55 30/31/55
f 21/24/56 4/20/56 30/31/56
f 27/22/57 28/60/57 8/55/57
f 27/22/58 19/21/58 28/60/58
f 19/21/59 3/61/59 28/60/59
f 25/19/60 26/29/60 7/34/60
f 25/19/61 15/18/61 26/29/61
f 15/18/62 2/4/62 26/29/62
f 23/16/63 24/33/63 11/46/63
f 23/16/64 16/6/64 24/33/64
f 16/6/65 6/26/65 24/33/65
f 17/15/66 22/27/66 6/26/66
f 17/15/67 20/14/67 22/27/67
f 20/14/68 5/23/68 22/27/68
f 20/12/69 21/24/69 5/23/69
f 20/12/70 18/11/70 21/24/70
f 18/11/71 4/20/71 21/24/71
f 18/9/72 19/21/72 4/20/72
f 18/9/73 13/8/73 19/21/73
f 13/8/74 3/61/74 19/21/74
f 16/6/75 17/62/75 6/26/75
f 16/6/76 14/5/76 17/62/76
f 14/5/77 1/63/77 17/62/77
f 13/3/78 15/18/78 3/17/78
f 13/3/79 14/2/79 15/18/79
f 14/2/80 2/4/80 15/18/80
f 43/1/81 56/2/81 55/3/81
f 44/4/82 56/5/82 58/6/82
f 43/7/83 55/8/83 60/9/83
f 43/10/84 60/11/84 62/12/84
f 43/13/85 62/14/85 59/15/85
f 44/4/86 58/6/86 65/16/86
f 45/17/87 57/18/87 67/19/87
f 46/20/88 61/21/88 69/22/88
f 47/23/89 63/24/89 71/25/89
f 48/26/90 64/27/90 73/28/90
f 44/4/91 65/16/91 68/29/91
f 45/17/92 67/19/92 70/30/92
f 46/20/93 69/22/93 72/31/93
f 47/23/94 71/25/94 74/32/94
f 48/26/95 73/28/95 66/33/95
f 49/34/96 75/35/96 80/36/96
f 50/37/97 76/38/97 82/39/97
f 51/40/98 77/41/98 83/42/98
f 52/43/99 78/44/99 84/45/99
f 53/46/100 79/47/100 81/48/100
f 81/48/101 84/49/101 54/50/101
f 81/48/102 79/47/102 84/49/102
f 79/47/103 52/43/103 84/49/103
f 84/45/104 83/51/104 54/52/104
f 84/45/105 78/44/105 83/51/105
f 78/44/106 51/40/106 83/51/106
f 83/42/107 82/53/107 54/54/107
f 83/42/108 77/41/108 82/53/108
f 77/41/109 50/55/109 82/53/109
f 82/39/110 80/56/110 54/57/110
f 82/39/111 76/38/111 80/56/111
f 76/38/112 49/34/112 80/56/112
f 80/36/113 81/58/113 54/59/113
f 80/36/114 75/35/114 81/58/114
f 75/35/115 53/46/115 81/58/115
f 66/33/116 79/47/116 53/46/116
f 66/33/117 73/28/117 79/47/117
f 73/28/118 52/43/118 79/47/118
f 74/32/119 78/44/119 52/43/119
f 74/32/120 71/25/120 78/44/120
f 71/25/121 51/40/121 78/44/121
f 72/31/122 77/41/122 51/40/122
f 72/31/123 69/22/123 77/41/123
f 69/22/124 50/55/124 77/41/124
f 70/30/125 76/38/125 50/37/125
f 70/30/126 67/19/126 76/38/126
f 67/19/127 49/34/127 76/38/127
f 68/29/128 75/35/128 49/34/128
f 68/29/129 65/16/129 75/35/129
f 65/16/130 53/46/130 75/35/130
f 73/28/131 74/32/131 52/43/131
f 73/28/132 64/27/132 74/32/132
f 64/27/133 47/23/133 74/32/133
f 71/25/134 72/31/134 51/40/134
f 71/25/135 63/24/135 72/31/135
f 63/24/136 46/20/136 72/31/136
f 69/22/137 70/60/137 50/55/137
f 69/22/138 61/21/138 70/60/138
f 61/21/139 45/61/139 70/60/139
f 67/19/140 68/29/140 49/34/140
f 67/19/141 57/18/141 68/29/141
f 57/18/142 44/4/142 68/29/142
f 65/16/143 66/33/143 53/46/143
f 65/16/144 58/6/144 66/33/144
f 58/6/145 48/26/145 66/33/145
f 59/15/146 64/27/146 48/26/146
f 59/15/147 62/14/147 64/27/147
f 62/14/148 47/23/148 64/27/148
f 62/12/149 63/24/149 47/23/149
f 62/12/150 60/11/150 63/24/150
f 60/11/151 46/20/151 63/24/151
f 60/9/152 61/21/152 46/20/152
f 60/9/153 55/8/153 61/21/153
f 55/8/154 45/61/154 61/21/154
f 58/6/155 59/62/155 48/26/155
f 58/6/156 56/5/156 59/62/156
f 56/5/157 43/63/157 59/62/157
f 55/3/158 57/18/158 45/17/158
f 55/3/159 56/2/159 57/18/159
f 56/2/160 44/4/160 57/18/160
f 92/64/161 87/65/161 86/66/161
f 87/67/162 91/68/162 85/69/162
f 89/70/163 96/71/163 95/72/163
f 90/73/164 94/74/164 96/75/164
f 98/76/165 93/77/165 92/64/165
f 93/78/166 97/79/166 91/68/166
f 95/72/167 102/80/167 101/81/167
f 96/75/168 100/82/168 102/83/168
f 104/84/169 99/85/169 98/76/169
f 105/86/170 97/79/170 99/87/170
f 101/81/171 108/88/171 107/89/171
f 102/83/172 106/90/172 108/91/172
f 110/92/173 105/93/173 104/84/173
f 111/94/174 103/95/174 105/86/174
f 107/89/175 114/96/175 113/97/175
f 114/98/176 106/90/176 112/99/176
f 116/100/177 111/101/177 110/92/177
f 117/102/178 109/103/178 111/94/178
f 113/97/179 120/104/179 119/105/179
f 114/98/180 118/106/180 120/107/180
f 116/100/181 123/108/181 117/109/181
f 123/110/182 115/111/182 117/102/182
f 119/105/183 126/112/183 125/113/183
f 126/114/184 118/106/184 124/115/184
f 122/116/185 129/117/185 123/108/185
f 129/118/186 121/119/186 123/110/186
f 125/113/187 132/120/187 131/121/187
f 126/114/188 130/122/188 132/123/188
f 134/124/189 129/117/189 128/125/189
f 129/118/190 133/126/190 127/127/190
f 137/128/191 132/120/191 138/129/191
f 132/123/192 136/130/192 138/131/192
f 140/132/193 135/133/193 134/124/193
f 141/134/194 133/126/194 135/135/194
f 143/136/195 138/129/195 144/137/195
f 138/131/196 142/138/196 144/139/196
f 140/132/197 147/140/197 141/141/197
f 147/142/198 139/143/198 141/134/198
f 143/136/199 150/144/199 149/145/199
f 150/146/200 142/138/200 148/147/200
f 146/148/201 87/149/201 147/140/201
f 87/67/202 145/150/202 147/142/202
f 89/151/203 150/144/203 90/152/203
f 150/146/204 88/153/204 90/73/204
f 91/68/205 115/111/205 139/143/205
f 86/66/206 95/72/206 92/64/206
f 146/148/207 89/151/207 86/154/207
f 88/153/208 130/122/208 106/90/208
f 95/72/209 98/76/209 92/64/209
f 101/81/210 104/84/210 98/76/210
f 107/89/211 110/92/211 104/84/211
f 113/97/212 116/100/212 110/92/212
f 116/100/213 125/113/213 122/116/213
f 122/116/214 131/121/214 128/125/214
f 128/125/215 137/128/215 134/124/215
f 137/128/216 140/132/216 134/124/216
f 140/132/217 149/145/217 146/148/217
f 152/155/218 159/156/218 153/157/218
f 153/158/219 157/159/219 151/160/219
f 155/155/220 162/161/220 161/162/220
f 156/163/221 160/164/221 162/165/221
f 164/166/222 159/156/222 158/167/222
f 159/168/223 163/169/223 157/159/223
f 167/170/224 162/161/224 168/171/224
f 162/165/225 166/172/225 168/173/225
f 164/166/226 171/174/226 165/175/226
f 171/176/227 163/169/227 165/177/227
f 173/178/228 168/171/228 174/179/228
f 168/173/229 172/180/229 174/181/229
f 170/182/230 177/183/230 171/174/230
f 177/184/231 169/185/231 171/176/231
f 173/178/232 180/186/232 179/187/232
f 174/181/233 178/188/233 180/189/233
f 182/190/234 177/183/234 176/187/234
f 183/191/235 175/192/235 177/184/235
f 179/187/236 186/193/236 185/194/236
f 186/195/237 178/188/237 184/196/237
f 188/197/238 183/198/238 182/190/238
f 189/199/239 181/200/239 183/191/239
f 185/194/240 192/201/240 191/202/240
f 186/195/241 190/203/241 192/204/241
f 188/197/242 195/205/242 189/206/242
f 189/199/243 193/207/243 187/208/243
f 191/202/244 198/209/244 197/210/244
f 192/204/245 196/211/245 198/212/245
f 200/213/246 195/205/246 194/214/246
f 201/215/247 193/207/247 195/216/247
f 197/210/248 204/217/248 203/218/248
f 198/212/249 202/219/249 204/220/249
f 206/221/250 201/222/250 200/213/250
f 201/215/251 205/223/251 199/224/251
f 209/221/252 204/217/252 210/225/252
f 204/220/253 208/226/253 210/227/253
f 212/228/254 207/229/254 206/221/254
f 213/230/255 205/223/255 207/231/255
f 215/228/256 210/225/256 216/232/256
f 210/227/257 214/233/257 216/234/257
f 212/228/258 219/235/258 213/236/258
f 219/237/259 211/238/259 213/230/259
f 215/228/260 222/239/260 221/240/260
f 216/234/261 220/241/261 222/242/261
f 218/243/262 225/244/262 219/235/262
f 225/245/263 217/246/263 219/237/263
f 221/240/264 228/247/264 227/248/264
f 222/242/265 226/249/265 228/250/265
f 152/251/266 225/244/266 224/252/266
f 225/245/267 151/160/267 223/253/267
f 155/251/268 228/247/268 156/254/268
f 228/250/269 154/255/269 156/163/269
f 157/159/270 181/200/270 205/223/270
f 152/155/271 161/162/271 158/167/271
f 224/252/271 155/251/271 152/251/271
f 154/255/272 208/226/272 184/196/272
f 158/167/271 167/170/271 164/166/271
f 164/166/271 173/178/271 170/182/271
f 170/182/271 179/187/271 176/187/271
f 176/187/271 185/194/271 182/190/271
f 182/190/271 191/202/271 188/197/271
f 188/197/271 197/210/271 194/214/271
f 194/214/271 203/218/271 200/213/271
f 200/213/271 209/221/271 206/221/271
f 206/221/271 215/228/271 212/228/271
f 212/228/271 221/240/271 218/243/271
f 218/243/271 227/248/271 224/252/271
f 229/256/273 233/257/273 235/258/273
f 234/259/274 232/260/274 230/261/274
f 235/262/275 234/263/275 231/264/275
f 236/265/276 240/266/276 242/267/276
f 241/268/277 239/269/277 237/270/277
f 242/271/278 241/272/278 238/273/278
f 243/274/279 247/275/279 249/276/279
f 248/277/280 246/278/280 244/279/280
f 249/280/281 248/277/281 245/281/281
f 250/282/282 254/283/282 256/284/282
f 255/285/283 253/286/283 251/287/283
f 256/288/284 255/285/284 252/289/284
f 257/290/285 261/291/285 263/292/285
f 262/293/286 260/294/286 258/295/286
f 263/296/287 262/293/287 259/297/287
f 264/298/288 268/299/288 270/300/288
f 269/301/289 267/302/289 265/303/289
f 270/304/290 269/301/290 266/305/290
f 271/306/291 275/307/291 277/308/291
f 276/309/292 274/310/292 272/311/292
f 277/312/293 276/309/293 273/313/293
f 278/314/294 282/315/294 284/316/294
f 283/317/295 281/318/295 279/319/295
f 284/320/296 283/317/296 280/321/296
f 285/322/297 289/323/297 291/324/297
f 290/325/298 288/326/298 286/313/298
f 291/327/299 290/325/299 287/328/299
f 292/329/300 296/330/300 298/331/300
f 297/332/301 295/333/301 293/334/301
f 298/335/302 297/332/302 294/336/302
f 299/337/303 303/338/303 305/339/303
f 304/340/304 302/341/304 300/342/304
f 305/343/305 304/340/305 301/344/305
f 306/345/306 310/346/306 312/347/306
f 311/348/307 309/349/307 307/350/307
f 312/351/308 311/348/308 308/352/308
f 313/353/309 317/354/309 319/355/309
f 318/356/310 316/357/310 314/358/310
f 319/359/311 318/356/311 315/360/311
f 320/361/312 324/362/312 326/363/312
f 325/364/313 323/365/313 321/366/313
f 326/367/314 325/364/314 322/368/314
f 327/369/315 331/370/315 333/371/315
f 332/372/316 330/373/316 328/374/316
f 333/375/317 332/372/317 329/376/317
f 334/377/318 338/378/318 340/379/318
f 339/380/319 337/381/319 335/382/319
f 340/383/320 339/380/320 336/384/320
f 341/385/321 345/386/321 347/387/321
f 346/388/322 344/389/322 342/376/322
f 347/390/323 346/388/323 343/391/323
f 348/392/324 352/393/324 354/394/324
f 353/395/325 351/396/325 349/397/325
f 354/398/326 353/395/326 350/399/326
f 231/264/327 246/278/327 235/262/327
f 246/400/328 229/256/328 235/258/328
f 252/289/329 239/269/329 256/288/329
f 256/284/330 236/265/330 250/282/330
f 238/273/331 234/259/331 230/261/331
f 241/268/332 231/264/332 234/263/332
f 245/281/333 255/285/333 251/287/333
f 248/277/334 252/289/334 255/285/334
f 245/281/335 260/294/335 249/280/335
f 260/401/336 243/274/336 249/276/336
f 266/305/337 253/286/337 270/304/337
f 253/402/338 264/298/338 270/300/338
f 265/303/339 262/293/339 269/301/339
f 262/293/340 266/305/340 269/301/340
f 272/311/341 263/296/341 259/297/341
f 274/403/342 257/290/342 263/292/342
f 280/321/343 267/302/343 284/320/343
f 284/316/344 264/298/344 278/314/344
f 279/319/345 276/309/345 283/317/345
f 283/317/346 272/311/346 280/321/346
f 286/313/347 277/312/347 273/313/347
f 288/404/348 271/306/348 277/308/348
f 294/336/349 281/318/349 298/335/349
f 281/405/350 292/329/350 298/331/350
f 287/328/351 297/332/351 293/334/351
f 290/325/352 294/336/352 297/332/352
f 287/328/353 302/341/353 291/327/353
f 302/406/354 285/322/354 291/324/354
f 308/352/355 295/333/355 312/351/355
f 312/347/356 292/329/356 306/345/356
f 307/350/357 304/340/357 311/348/357
f 311/348/358 300/342/358 308/352/358
f 301/344/359 316/357/359 305/343/359
f 305/339/360 313/353/360 299/337/360
f 322/368/361 309/349/361 326/367/361
f 309/407/362 320/361/362 326/363/362
f 315/360/363 325/364/363 321/366/363
f 318/356/364 322/368/364 325/364/364
f 328/374/365 319/359/365 315/360/365
f 330/408/366 313/353/366 319/355/366
f 321/366/367 340/383/367 336/384/367
f 340/379/368 320/361/368 334/377/368
f 335/382/369 332/372/369 339/380/369
f 332/372/370 336/384/370 339/380/370
f 329/376/371 344/389/371 333/375/371
f 333/371/372 341/385/372 327/369/372
f 350/399/373 337/381/373 354/398/373
f 354/394/374 334/377/374 348/392/374
f 349/397/375 346/388/375 353/395/375
f 346/388/376 350/399/376 353/395/376
f 230/261/377 347/390/377 343/391/377
f 232/409/378 341/385/378 347/387/378
f 238/273/379 351/396/379 242/271/379
f 351/410/380 236/265/380 242/267/380
f 243/274/381 299/337/381 327/369/381
f 237/270/382 244/279/382 231/264/382
f 343/391/383 238/273/383 230/261/383
f 236/265/384 306/345/384 278/314/384
f 245/281/271 266/305/271 258/295/271
f 265/303/385 272/311/385 259/297/385
f 273/313/341 294/336/341 286/313/341
f 287/328/271 308/352/271 300/342/271
f 307/350/386 314/358/386 301/344/386
f 321/366/387 328/374/387 315/360/387
f 329/376/271 350/399/271 342/376/271
f 355/411/388 359/412/388 361/413/388
f 356/414/389 359/415/389 358/416/389
f 357/417/390 359/418/390 360/419/390
f 362/420/391 366/421/391 368/422/391
f 363/423/392 366/424/392 365/425/392
f 364/426/393 366/427/393 367/428/393
f 369/429/394 373/430/394 375/431/394
f 370/432/395 373/433/395 372/434/395
f 371/435/396 373/433/396 374/436/396
f 376/437/397 380/438/397 382/439/397
f 377/440/398 380/441/398 379/442/398
f 378/443/399 380/441/399 381/444/399
f 383/445/400 387/446/400 389/447/400
f 384/448/401 387/449/401 386/450/401
f 385/451/402 387/449/402 388/452/402
f 390/453/403 394/454/403 396/455/403
f 391/456/404 394/457/404 393/458/404
f 392/440/405 394/457/405 395/459/405
f 397/460/406 401/461/406 403/462/406
f 398/463/407 401/464/407 400/465/407
f 399/466/408 401/464/408 402/467/408
f 404/468/409 408/469/409 410/470/409
f 405/471/410 408/472/410 407/473/410
f 406/456/411 408/472/411 409/474/411
f 411/475/412 415/476/412 417/477/412
f 412/478/413 415/479/413 414/480/413
f 413/481/414 415/479/414 416/482/414
f 418/483/415 422/484/415 424/485/415
f 419/486/416 422/487/416 421/488/416
f 420/489/417 422/487/417 423/490/417
f 370/432/418 361/491/418 357/417/418
f 372/492/419 355/411/419 361/413/419
f 378/443/420 365/425/420 382/493/420
f 365/494/421 376/437/421 382/439/421
f 356/414/422 367/428/422 360/495/422
f 367/496/423 357/417/423 360/419/423
f 371/435/424 381/444/424 377/440/424
f 381/444/425 370/432/425 378/443/425
f 371/435/426 386/450/426 375/497/426
f 375/431/427 383/445/427 369/429/427
f 392/440/428 379/442/428 396/498/428
f 379/499/429 390/453/429 396/455/429
f 385/451/430 395/459/430 391/456/430
f 395/459/431 384/448/431 392/440/431
f 398/463/432 389/500/432 385/451/432
f 400/501/433 383/445/433 389/447/433
f 406/456/434 393/458/434 410/502/434
f 393/503/435 404/468/435 410/470/435
f 399/466/436 409/474/436 405/471/436
f 409/474/437 398/463/437 406/456/437
f 412/478/438 403/504/438 399/466/438
f 414/505/439 397/460/439 403/462/439
f 420/489/440 407/473/440 424/506/440
f 407/507/441 418/483/441 424/485/441
f 413/481/442 423/490/442 419/486/442
f 423/490/443 412/478/443 420/489/443
f 356/414/444 417/508/444 413/481/444
f 417/477/445 355/411/445 411/475/445
f 364/426/446 421/488/446 368/509/446
f 421/510/447 362/420/447 368/422/447
f 369/429/448 397/460/448 411/475/448
f 357/417/449 378/443/449 370/432/449
f 413/481/450 364/426/450 356/414/450
f 362/420/451 404/468/451 390/453/451
f 371/435/452 392/440/452 384/448/452
f 385/451/453 406/456/453 398/463/453
f 399/466/454 420/489/454 412/478/454
f 425/511/455 429/512/455 431/513/455
f 426/514/456 429/515/456 428/516/456
f 431/517/457 430/518/457 427/519/457
f 432/520/458 436/521/458 438/522/458
f 433/523/459 436/524/459 435/525/459
f 438/526/460 437/527/460 434/528/460
f 439/529/461 443/530/461 445/531/461
f 444/532/462 442/533/462 440/534/462
f 441/535/463 443/536/463 444/532/463
f 446/537/464 450/538/464 452/539/464
f 447/540/465 450/541/465 449/542/465
f 452/543/466 451/544/466 448/545/466
f 453/546/467 457/547/467 459/548/467
f 458/549/468 456/550/468 454/551/468
f 455/552/469 457/547/469 458/549/469
f 460/553/470 464/554/470 466/555/470
f 461/556/471 464/554/471 463/557/471
f 466/555/472 465/558/472 462/559/472
f 467/560/473 471/561/473 473/562/473
f 468/563/474 471/561/474 470/564/474
f 473/562/475 472/565/475 469/566/475
f 474/567/476 478/568/476 480/569/476
f 479/570/477 477/571/477 475/572/477
f 476/573/478 478/568/478 479/570/478
f 439/529/479 431/513/479 442/574/479
f 431/517/480 440/534/480 442/533/480
f 426/514/481 438/522/481 430/575/481
f 438/526/482 427/519/482 430/518/482
f 446/537/483 437/576/483 433/523/483
f 452/543/484 434/528/484 437/527/484
f 447/540/485 444/532/485 451/544/485
f 444/532/486 448/545/486 451/544/486
f 439/529/487 470/564/487 467/560/487
f 445/577/488 468/563/488 470/564/488
f 446/537/489 480/569/489 449/578/489
f 480/569/490 447/540/490 449/542/490
f 475/572/491 472/565/491 479/570/491
f 472/565/492 476/573/492 479/570/492
f 467/560/493 456/550/493 453/546/493
f 456/550/494 469/566/494 454/551/494
f 460/553/495 477/571/495 474/567/495
f 477/571/496 462/559/496 475/572/496
f 455/552/497 465/558/497 461/556/497
f 458/549/498 462/559/498 465/558/498
f 453/546/499 428/579/499 425/511/499
f 428/516/500 455/552/500 426/514/500
f 460/553/501 435/525/501 463/557/501
f 463/557/502 432/520/502 461/556/502
f 439/529/503 453/546/503 425/511/503
f 434/528/504 440/534/504 427/519/504
f 461/556/505 426/514/505 455/552/505
f 446/537/506 460/553/506 474/567/506
f 447/540/507 468/563/507 441/535/507
f 475/572/508 454/551/508 469/566/508
f 92/64/161 93/77/161 87/65/161
f 87/67/162 93/78/162 91/68/162
f 89/70/163 90/580/163 96/71/163
f 90/73/164 88/153/164 94/74/164
f 98/76/165 99/85/165 93/77/165
f 93/78/166 99/87/166 97/79/166
f 95/72/167 96/71/167 102/80/167
f 96/75/168 94/74/168 100/82/168
f 104/84/169 105/93/169 99/85/169
f 105/86/170 103/95/170 97/79/170
f 101/81/171 102/80/171 108/88/171
f 102/83/172 100/82/172 106/90/172
f 110/92/173 111/101/173 105/93/173
f 111/94/174 109/103/174 103/95/174
f 107/89/175 108/88/175 114/96/175
f 114/98/176 108/91/176 106/90/176
f 116/100/177 117/109/177 111/101/177
f 117/102/178 115/111/178 109/103/178
f 113/97/179 114/96/179 120/104/179
f 114/98/180 112/99/180 118/106/180
f 116/100/181 122/116/181 123/108/181
f 123/110/182 121/119/182 115/111/182
f 119/105/509 120/104/509 126/112/509
f 126/114/184 120/107/184 118/106/184
f 122/116/185 128/125/185 129/117/185
f 129/118/186 127/127/186 121/119/186
f 125/113/187 126/112/187 132/120/187
f 126/114/188 124/115/188 130/122/188
f 134/124/189 135/133/189 129/117/189
f 129/118/510 135/135/510 133/126/510
f 137/128/191 131/121/191 132/120/191
f 132/123/192 130/122/192 136/130/192
f 140/132/193 141/141/193 135/133/193
f 141/134/194 139/143/194 133/126/194
f 143/136/195 137/128/195 138/129/195
f 138/131/196 136/130/196 142/138/196
f 140/132/197 146/148/197 147/140/197
f 147/142/198 145/150/198 139/143/198
f 143/136/199 144/137/199 150/144/199
f 150/146/200 144/139/200 142/138/200
f 146/148/201 86/154/201 87/149/201
f 87/67/202 85/69/202 145/150/202
f 89/151/203 149/145/203 150/144/203
f 150/146/204 148/147/204 88/153/204
f 145/150/205 85/69/205 91/68/205
f 91/68/205 97/79/205 103/95/205
f 103/95/205 109/103/205 115/111/205
f 115/111/205 121/119/205 127/127/205
f 127/127/205 133/126/205 139/143/205
f 139/143/205 145/150/205 91/68/205
f 91/68/205 103/95/205 115/111/205
f 115/111/205 127/127/205 139/143/205
f 86/66/206 89/70/206 95/72/206
f 146/148/207 149/145/207 89/151/207
f 100/82/208 94/74/208 88/153/208
f 88/153/208 148/147/208 142/138/208
f 142/138/208 136/130/208 130/122/208
f 130/122/208 124/115/208 118/106/208
f 118/106/208 112/99/208 106/90/208
f 106/90/208 100/82/208 88/153/208
f 88/153/208 142/138/208 130/122/208
f 130/122/208 118/106/208 106/90/208
f 95/72/209 101/81/209 98/76/209
f 101/81/210 107/89/210 104/84/210
f 107/89/211 113/97/211 110/92/211
f 113/97/212 119/105/212 116/100/212
f 116/100/213 119/105/213 125/113/213
f 122/116/214 125/113/214 131/121/214
f 128/125/215 131/121/215 137/128/215
f 137/128/216 143/136/216 140/132/216
f 140/132/217 143/136/217 149/145/217
f 152/155/218 158/167/218 159/156/218
f 153/158/219 159/168/219 157/159/219
f 155/155/220 156/581/220 162/161/220
f 156/163/221 154/255/221 160/164/221
f 164/166/222 165/175/222 159/156/222
f 159/168/223 165/177/223 163/169/223
f 167/170/224 161/162/224 162/161/224
f 162/165/225 160/164/225 166/172/225
f 164/166/226 170/182/226 171/174/226
f 171/176/227 169/185/227 163/169/227
f 173/178/228 167/170/228 168/171/228
f 168/173/229 166/172/229 172/180/229
f 170/182/230 176/187/230 177/183/230
f 177/184/231 175/192/231 169/185/231
f 173/178/232 174/179/232 180/186/232
f 174/181/233 172/180/233 178/188/233
f 182/190/234 183/198/234 177/183/234
f 183/191/235 181/200/235 175/192/235
f 179/187/236 180/186/236 186/193/236
f 186/195/237 180/189/237 178/188/237
f 188/197/238 189/206/238 183/198/238
f 189/199/239 187/208/239 181/200/239
f 185/194/240 186/193/240 192/201/240
f 186/195/241 184/196/241 190/203/241
f 188/197/242 194/214/242 195/205/242
f 189/199/243 195/216/243 193/207/243
f 191/202/244 192/201/244 198/209/244
f 192/204/245 190/203/245 196/211/245
f 200/213/246 201/222/246 195/205/246
f 201/215/247 199/224/247 193/207/247
f 197/210/248 198/209/248 204/217/248
f 198/212/249 196/211/249 202/219/249
f 206/221/250 207/229/250 201/222/250
f 201/215/251 207/231/251 205/223/251
f 209/221/252 203/218/252 204/217/252
f 204/220/253 202/219/253 208/226/253
f 212/228/254 213/236/254 207/229/254
f 213/230/255 211/238/255 205/223/255
f 215/228/256 209/221/256 210/225/256
f 210/227/257 208/226/257 214/233/257
f 212/228/258 218/243/258 219/235/258
f 219/237/259 217/246/259 211/238/259
f 215/228/260 216/232/260 222/239/260
f 216/234/511 214/233/511 220/241/511
f 218/243/512 224/252/512 225/244/512
f 225/245/263 223/253/263 217/246/263
f 221/240/264 222/239/264 228/247/264
f 222/242/265 220/241/265 226/249/265
f 152/251/266 153/582/266 225/244/266
f 225/245/267 153/158/267 151/160/267
f 155/251/268 227/248/268 228/247/268
f 228/250/269 226/249/269 154/255/269
f 223/253/270 151/160/270 157/159/270
f 157/159/270 163/169/270 169/185/270
f 169/185/270 175/192/270 181/200/270
f 181/200/270 187/208/270 193/207/270
f 193/207/270 199/224/270 205/223/270
f 205/223/270 211/238/270 217/246/270
f 217/246/270 223/253/270 157/159/270
f 157/159/270 169/185/270 181/200/270
f 181/200/270 193/207/270 205/223/270
f 205/223/270 217/246/270 157/159/270
f 152/155/271 155/155/271 161/162/271
f 224/252/271 227/248/271 155/251/271
f 166/172/272 160/164/272 154/255/272
f 154/255/272 226/249/272 220/241/272
f 220/241/272 214/233/272 208/226/272
f 208/226/272 202/219/272 196/211/272
f 196/211/272 190/203/272 184/196/272
f 184/196/272 178/188/272 172/180/272
f 172/180/272 166/172/272 154/255/272
f 154/255/272 220/241/272 208/226/272
f 208/226/272 196/211/272 184/196/272
f 184/196/272 172/180/272 154/255/272
f 158/167/271 161/162/271 167/170/271
f 164/166/271 167/170/271 173/178/271
f 170/182/271 173/178/271 179/187/271
f 176/187/271 179/187/271 185/194/271
f 182/190/271 185/194/271 191/202/271
f 188/197/271 191/202/271 197/210/271
f 194/214/271 197/210/271 203/218/271
f 200/213/271 203/218/271 209/221/271
f 206/221/271 209/221/271 215/228/271
f 212/228/271 215/228/271 221/240/271
f 218/243/271 221/240/271 227/248/271
f 229/256/513 232/409/513 233/257/513
f 234/259/514 233/583/514 232/260/514
f 235/262/515 233/584/515 234/263/515
f 236/265/516 239/585/516 240/266/516
f 241/268/517 240/586/517 239/269/517
f 242/271/518 240/587/518 241/272/518
f 243/274/519 246/400/519 247/275/519
f 248/277/520 247/588/520 246/278/520
f 249/280/521 247/588/521 248/277/521
f 250/282/522 253/402/522 254/283/522
f 255/285/523 254/589/523 253/286/523
f 256/288/524 254/589/524 255/285/524
f 257/290/525 260/401/525 261/291/525
f 262/293/526 261/590/526 260/294/526
f 263/296/527 261/590/527 262/293/527
f 264/298/528 267/591/528 268/299/528
f 269/301/529 268/592/529 267/302/529
f 270/304/530 268/592/530 269/301/530
f 271/306/531 274/403/531 275/307/531
f 276/309/532 275/593/532 274/310/532
f 277/312/533 275/593/533 276/309/533
f 278/314/534 281/405/534 282/315/534
f 283/317/535 282/594/535 281/318/535
f 284/320/536 282/594/536 283/317/536
f 285/322/537 288/404/537 289/323/537
f 290/325/538 289/595/538 288/326/538
f 291/327/539 289/595/539 290/325/539
f 292/329/540 295/596/540 296/330/540
f 297/332/541 296/597/541 295/333/541
f 298/335/542 296/597/542 297/332/542
f 299/337/543 302/406/543 303/338/543
f 304/340/544 303/598/544 302/341/544
f 305/343/545 303/598/545 304/340/545
f 306/345/546 309/407/546 310/346/546
f 311/348/547 310/599/547 309/349/547
f 312/351/548 310/599/548 311/348/548
f 313/353/549 316/600/549 317/354/549
f 318/356/550 317/601/550 316/357/550
f 319/359/551 317/601/551 318/356/551
f 320/361/552 323/602/552 324/362/552
f 325/364/553 324/603/553 323/365/553
f 326/367/554 324/603/554 325/364/554
f 327/369/555 330/408/555 331/370/555
f 332/372/556 331/604/556 330/373/556
f 333/375/557 331/604/557 332/372/557
f 334/377/558 337/605/558 338/378/558
f 339/380/559 338/606/559 337/381/559
f 340/383/560 338/606/560 339/380/560
f 341/385/561 344/607/561 345/386/561
f 346/388/562 345/608/562 344/389/562
f 347/390/563 345/608/563 346/388/563
f 348/392/564 351/410/564 352/393/564
f 353/395/565 352/609/565 351/396/565
f 354/398/566 352/609/566 353/395/566
f 231/264/567 244/279/567 246/278/567
f 246/400/328 243/274/328 229/256/328
f 252/289/329 237/270/329 239/269/329
f 256/284/330 239/585/330 236/265/330
f 238/273/331 241/272/331 234/259/331
f 241/268/332 237/270/332 231/264/332
f 245/281/333 248/277/333 255/285/333
f 248/277/334 244/279/334 252/289/334
f 245/281/271 258/295/271 260/294/271
f 260/401/568 257/290/568 243/274/568
f 266/305/337 251/287/337 253/286/337
f 253/402/338 250/282/338 264/298/338
f 265/303/339 259/297/339 262/293/339
f 262/293/340 258/295/340 266/305/340
f 272/311/569 274/310/569 263/296/569
f 274/403/342 271/306/342 257/290/342
f 280/321/343 265/303/343 267/302/343
f 284/316/344 267/591/344 264/298/344
f 279/319/345 273/313/345 276/309/345
f 283/317/346 276/309/346 272/311/346
f 286/313/570 288/326/570 277/312/570
f 288/404/348 285/322/348 271/306/348
f 294/336/349 279/319/349 281/318/349
f 281/405/571 278/314/571 292/329/571
f 287/328/351 290/325/351 297/332/351
f 290/325/352 286/313/352 294/336/352
f 287/328/271 300/342/271 302/341/271
f 302/406/354 299/337/354 285/322/354
f 308/352/355 293/334/355 295/333/355
f 312/347/356 295/596/356 292/329/356
f 307/350/357 301/344/357 304/340/357
f 311/348/358 304/340/358 300/342/358
f 301/344/341 314/358/341 316/357/341
f 305/339/360 316/600/360 313/353/360
f 322/368/572 307/350/572 309/349/572
f 309/407/362 306/345/362 320/361/362
f 315/360/363 318/356/363 325/364/363
f 318/356/364 314/358/364 322/368/364
f 328/374/573 330/373/573 319/359/573
f 330/408/366 327/369/366 313/353/366
f 321/366/367 323/365/367 340/383/367
f 340/379/368 323/602/368 320/361/368
f 335/382/369 329/376/369 332/372/369
f 332/372/370 328/374/370 336/384/370
f 329/376/271 342/376/271 344/389/271
f 333/371/372 344/607/372 341/385/372
f 350/399/373 335/382/373 337/381/373
f 354/394/374 337/605/374 334/377/374
f 349/397/375 343/391/375 346/388/375
f 346/388/376 342/376/376 350/399/376
f 230/261/574 232/260/574 347/390/574
f 232/409/575 229/256/575 341/385/575
f 238/273/379 349/397/379 351/396/379
f 351/410/380 348/392/380 236/265/380
f 341/385/381 229/256/381 243/274/381
f 243/274/576 257/290/576 271/306/576
f 271/306/381 285/322/381 299/337/381
f 299/337/381 313/353/381 327/369/381
f 327/369/381 341/385/381 243/274/381
f 243/274/381 271/306/381 299/337/381
f 237/270/577 252/289/577 244/279/577
f 343/391/578 349/397/578 238/273/578
f 264/298/384 250/282/384 236/265/384
f 236/265/384 348/392/384 334/377/384
f 334/377/384 320/361/384 306/345/384
f 306/345/384 292/329/384 278/314/384
f 278/314/384 264/298/384 236/265/384
f 236/265/384 334/377/384 306/345/384
f 245/281/579 251/287/579 266/305/579
f 265/303/580 280/321/580 272/311/580
f 273/313/581 279/319/581 294/336/581
f 287/328/582 293/334/582 308/352/582
f 307/350/583 322/368/583 314/358/583
f 321/366/584 336/384/584 328/374/584
f 329/376/585 335/382/585 350/399/585
f 355/411/586 358/610/586 359/412/586
f 356/414/587 360/495/587 359/415/587
f 357/417/588 361/491/588 359/418/588
f 362/420/589 365/494/589 366/421/589
f 363/423/590 367/496/590 366/424/590
f 364/426/591 368/509/591 366/427/591
f 369/429/592 372/492/592 373/430/592
f 370/432/593 374/436/593 373/433/593
f 371/435/594 375/497/594 373/433/594
f 376/437/595 379/499/595 380/438/595
f 377/440/596 381/444/596 380/441/596
f 378/443/597 382/493/597 380/441/597
f 383/445/598 386/611/598 387/446/598
f 384/448/599 388/452/599 387/449/599
f 385/451/600 389/500/600 387/449/600
f 390/453/601 393/503/601 394/454/601
f 391/456/602 395/459/602 394/457/602
f 392/440/603 396/498/603 394/457/603
f 397/460/604 400/501/604 401/461/604
f 398/463/605 402/467/605 401/464/605
f 399/466/606 403/504/606 401/464/606
f 404/468/607 407/507/607 408/469/607
f 405/471/608 409/474/608 408/472/608
f 406/456/609 410/502/609 408/472/609
f 411/475/610 414/505/610 415/476/610
f 412/478/611 416/482/611 415/479/611
f 413/481/612 417/508/612 415/479/612
f 418/483/613 421/510/613 422/484/613
f 419/486/614 423/490/614 422/487/614
f 420/489/615 424/506/615 422/487/615
f 370/432/418 372/434/418 361/491/418
f 372/492/616 369/429/616 355/411/616
f 378/443/271 363/423/271 365/425/271
f 365/494/421 362/420/421 376/437/421
f 356/414/422 364/426/422 367/428/422
f 367/496/423 363/423/423 357/417/423
f 371/435/424 374/436/424 381/444/424
f 381/444/425 374/436/425 370/432/425
f 371/435/426 384/448/426 386/450/426
f 375/431/427 386/611/427 383/445/427
f 392/440/271 377/440/271 379/442/271
f 379/499/429 376/437/429 390/453/429
f 385/451/430 388/452/430 395/459/430
f 395/459/431 388/452/431 384/448/431
f 398/463/432 400/465/432 389/500/432
f 400/501/433 397/460/433 383/445/433
f 406/456/271 391/456/271 393/458/271
f 393/503/435 390/453/435 404/468/435
f 399/466/617 402/467/617 409/474/617
f 409/474/437 402/467/437 398/463/437
f 412/478/438 414/480/438 403/504/438
f 414/505/439 411/475/439 397/460/439
f 420/489/271 405/471/271 407/473/271
f 407/507/441 404/468/441 418/483/441
f 413/481/442 416/482/442 423/490/442
f 423/490/443 416/482/443 412/478/443
f 356/414/444 358/416/444 417/508/444
f 417/477/445 358/610/445 355/411/445
f 364/426/271 419/486/271 421/488/271
f 421/510/447 418/483/447 362/420/447
f 411/475/448 355/411/448 369/429/448
f 369/429/448 383/445/448 397/460/448
f 357/417/271 363/423/271 378/443/271
f 413/481/271 419/486/271 364/426/271
f 390/453/451 376/437/451 362/420/451
f 362/420/451 418/483/451 404/468/451
f 371/435/271 377/440/271 392/440/271
f 385/451/271 391/456/271 406/456/271
f 399/466/271 405/471/271 420/489/271
f 425/511/618 428/579/618 429/512/618
f 426/514/619 430/575/619 429/515/619
f 431/517/620 429/612/620 430/518/620
f 432/520/621 435/613/621 436/521/621
f 433/523/622 437/576/622 436/524/622
f 438/526/623 436/614/623 437/527/623
f 439/529/624 442/574/624 443/530/624
f 444/532/625 443/536/625 442/533/625
f 441/535/626 445/577/626 443/536/626
f 446/537/627 449/578/627 450/538/627
f 447/540/628 451/544/628 450/541/628
f 452/543/629 450/541/629 451/544/629
f 453/546/630 456/550/630 457/547/630
f 458/549/631 457/547/631 456/550/631
f 455/552/632 459/548/632 457/547/632
f 460/553/633 463/557/633 464/554/633
f 461/556/634 465/558/634 464/554/634
f 466/555/635 464/554/635 465/558/635
f 467/560/636 470/564/636 471/561/636
f 468/563/637 472/565/637 471/561/637
f 473/562/638 471/561/638 472/565/638
f 474/567/639 477/571/639 478/568/639
f 479/570/640 478/568/640 477/571/640
f 476/573/641 480/569/641 478/568/641
f 439/529/479 425/511/479 431/513/479
f 431/517/480 427/519/480 440/534/480
f 426/514/481 432/520/481 438/522/481
f 438/526/642 434/528/642 427/519/642
f 446/537/483 452/539/483 437/576/483
f 452/543/484 448/545/484 434/528/484
f 447/540/485 441/535/485 444/532/485
f 444/532/486 440/534/486 448/545/486
f 439/529/487 445/531/487 470/564/487
f 445/577/488 441/535/488 468/563/488
f 446/537/489 474/567/489 480/569/489
f 480/569/490 476/573/490 447/540/490
f 475/572/643 469/566/643 472/565/643
f 472/565/492 468/563/492 476/573/492
f 467/560/493 473/562/493 456/550/493
f 456/550/494 473/562/494 469/566/494
f 460/553/495 466/555/495 477/571/495
f 477/571/644 466/555/644 462/559/644
f 455/552/497 458/549/497 465/558/497
f 458/549/498 454/551/498 462/559/498
f 453/546/499 459/548/499 428/579/499
f 428/516/645 459/548/645 455/552/645
f 460/553/501 433/523/501 435/525/501
f 463/557/646 435/613/646 432/520/646
f 439/529/503 467/560/503 453/546/503
f 434/528/504 448/545/504 440/534/504
f 461/556/505 432/520/505 426/514/505
f 446/537/506 433/523/506 460/553/506
f 447/540/507 476/573/507 468/563/507
f 475/572/508 462/559/508 454/551/508
