# Blender 4.5.10 LTS
# www.blender.org
mtllib grove_bonemeal_heap.mtl
o grove_bonemeal_heap
v 0.007832 -0.030410 0.005801
v -0.063322 -0.009835 -0.045837
v 0.034650 -0.009159 -0.077757
v 0.095275 -0.007908 0.005556
v 0.034770 -0.007811 0.088965
v -0.063248 -0.009002 0.057202
v -0.019854 0.025384 -0.077997
v 0.078164 0.026576 -0.046233
v 0.078238 0.027408 0.056805
v -0.019734 0.026732 0.088725
v -0.080359 0.025481 0.005412
v 0.007084 0.047984 0.005168
v 0.023660 -0.024801 -0.043257
v -0.033926 -0.025198 -0.024496
v -0.018163 -0.012707 -0.073609
v -0.075705 -0.012615 0.005717
v -0.033882 -0.024709 0.036069
v 0.059295 -0.024065 0.005712
v 0.075059 -0.011574 -0.043401
v 0.023731 -0.024009 0.054739
v 0.075129 -0.010782 0.054595
v -0.018049 -0.011425 0.084952
v -0.085763 0.007654 -0.024724
v -0.085720 0.008143 0.035841
v 0.007387 0.007994 -0.092513
v -0.050200 0.007597 -0.073751
v 0.100635 0.009430 -0.024872
v 0.065001 0.008695 -0.073843
v 0.065115 0.009976 0.084719
v 0.100679 0.009920 0.035692
v -0.050085 0.008878 0.084811
v 0.007528 0.009579 0.103481
v -0.060213 0.028355 -0.043627
v 0.032964 0.028999 -0.073983
v 0.090621 0.030188 0.005251
v 0.033078 0.030280 0.084578
v -0.060143 0.029147 0.054369
v -0.008815 0.041582 -0.043770
v -0.044379 0.041639 0.005256
v 0.048798 0.042282 -0.025101
v 0.048841 0.042772 0.035464
v -0.008745 0.042374 0.054225
v -0.059502 -0.027087 -0.031995
v -0.104259 -0.013535 -0.064522
v -0.042328 -0.014589 -0.084850
v -0.003854 -0.014919 -0.032223
v -0.042008 -0.014070 0.020629
v -0.104062 -0.013214 0.000667
v -0.076271 0.007009 -0.084853
v -0.014218 0.006153 -0.064891
v -0.014021 0.006474 0.000298
v -0.075952 0.007528 0.020625
v -0.114425 0.007859 -0.032001
v -0.058777 0.020027 -0.032229
v -0.049471 -0.023877 -0.063041
v -0.085873 -0.023257 -0.051093
v -0.075778 -0.015911 -0.082160
v -0.112064 -0.015103 -0.031895
v -0.085757 -0.023069 -0.012776
v -0.026857 -0.024071 -0.032109
v -0.016762 -0.016725 -0.063176
v -0.049283 -0.023572 -0.001043
v -0.016574 -0.016420 -0.001177
v -0.075475 -0.015417 0.018155
v -0.118156 -0.002716 -0.051097
v -0.118040 -0.002528 -0.012780
v -0.059327 -0.003835 -0.094111
v -0.095730 -0.003216 -0.082163
v -0.000239 -0.004533 -0.051444
v -0.022853 -0.004338 -0.082378
v -0.022550 -0.003845 0.017939
v -0.000124 -0.004344 -0.013128
v -0.095426 -0.002722 0.018153
v -0.058952 -0.003225 0.029887
v -0.101705 0.009359 -0.063047
v -0.042805 0.008357 -0.082380
v -0.006216 0.008042 -0.032329
v -0.042502 0.008850 0.017936
v -0.101518 0.009664 -0.001049
v -0.068996 0.016511 -0.063181
v -0.091423 0.017011 -0.032116
v -0.032523 0.016008 -0.051448
v -0.032407 0.016197 -0.013131
v -0.068809 0.016816 -0.001183
v 0.047337 -0.015227 0.023500
v 0.008808 -0.003615 -0.005292
v 0.063023 -0.004335 -0.022146
v 0.095797 -0.005260 0.024210
v 0.061837 -0.005111 0.069713
v 0.008075 -0.004095 0.051480
v 0.033457 0.013530 -0.022377
v 0.087219 0.012513 -0.004143
v 0.086486 0.012034 0.052628
v 0.032271 0.012754 0.069482
v -0.000503 0.013678 0.023126
v 0.047958 0.023646 0.023836
v 0.056502 -0.012238 -0.003359
v 0.024636 -0.011814 0.006547
v 0.033856 -0.005412 -0.020283
v 0.001559 -0.005271 0.022993
v 0.024205 -0.012096 0.039916
v 0.075766 -0.012781 0.023888
v 0.084987 -0.006379 -0.002942
v 0.055805 -0.012694 0.050634
v 0.084290 -0.006835 0.051051
v 0.032728 -0.006150 0.067080
v -0.003484 0.005176 0.006327
v -0.003915 0.004894 0.039697
v 0.048344 0.004665 -0.030325
v 0.016477 0.005089 -0.020419
v 0.099209 0.003524 0.007640
v 0.079945 0.004068 -0.019608
v 0.078817 0.003330 0.067755
v 0.098778 0.003243 0.041009
v 0.015349 0.004351 0.066944
v 0.046950 0.003753 0.077662
v 0.011004 0.015254 -0.003715
v 0.062566 0.014569 -0.019743
v 0.093736 0.013689 0.024343
v 0.061438 0.013831 0.067619
v 0.010307 0.014798 0.050279
v 0.039489 0.021112 -0.003297
v 0.019528 0.021200 0.023449
v 0.071089 0.020515 0.007420
v 0.070658 0.020233 0.040789
v 0.038792 0.020656 0.050696
v -0.022536 0.044408 0.089019
v -0.020338 0.050904 0.085384
v -0.028596 0.047565 0.085338
v -0.020664 0.048188 0.088551
v -0.024205 0.048543 0.088512
v -0.024949 0.050420 0.085949
v -0.026503 0.045826 0.088519
v -0.038048 0.084319 -0.023367
v -0.042689 0.083821 -0.016758
v -0.034431 0.087161 -0.016712
v -0.041600 0.084667 -0.020853
v -0.039117 0.086909 -0.019525
v -0.039042 0.086676 -0.016147
v -0.035761 0.087028 -0.020820
v -0.029114 0.034839 0.086027
v -0.033283 0.040747 0.083207
v -0.032932 0.032585 0.079657
v -0.031798 0.038124 0.086111
v -0.033260 0.035371 0.084393
v -0.034498 0.036530 0.081606
v -0.031550 0.032353 0.083600
v -0.039467 0.082254 -0.024012
v -0.042337 0.075659 -0.020308
v -0.042689 0.083821 -0.016758
v -0.041626 0.078496 -0.023488
v -0.043213 0.080952 -0.021388
v -0.043904 0.079604 -0.018358
v -0.041874 0.084268 -0.020978
v -0.021771 0.026630 0.081286
v -0.027700 0.026736 0.076279
v -0.019225 0.025031 0.074131
v -0.025639 0.025745 0.079785
v -0.023152 0.024071 0.077868
v -0.023839 0.024614 0.074725
v -0.019647 0.024539 0.078266
v -0.037883 0.080484 -0.025035
v -0.033862 0.073954 -0.022456
v -0.042337 0.075659 -0.020308
v -0.035327 0.076949 -0.025204
v -0.038641 0.075841 -0.024339
v -0.038477 0.073537 -0.021862
v -0.041320 0.078155 -0.023685
v -0.010654 0.031125 0.081348
v -0.011304 0.028234 0.074175
v -0.006418 0.035342 0.076398
v -0.010699 0.028158 0.078316
v -0.007850 0.030259 0.077953
v -0.007703 0.031139 0.074815
v -0.007243 0.033184 0.079887
v -0.035486 0.081453 -0.025022
v -0.028976 0.081062 -0.020234
v -0.033862 0.073954 -0.022456
v -0.031409 0.082162 -0.023630
v -0.031721 0.078640 -0.024300
v -0.030261 0.076860 -0.021816
v -0.034864 0.077136 -0.025202
v -0.011127 0.042113 0.086127
v -0.006754 0.043171 0.079802
v -0.012209 0.049269 0.083324
v -0.007624 0.042028 0.083734
v -0.008501 0.045383 0.084531
v -0.008389 0.047088 0.081752
v -0.011481 0.046340 0.086224
v -0.035588 0.083823 -0.023991
v -0.034431 0.087161 -0.016712
v -0.028976 0.081062 -0.020234
v -0.035286 0.086932 -0.020941
v -0.032015 0.085480 -0.021325
v -0.030611 0.084980 -0.018284
v -0.031429 0.082620 -0.023431
v 0.029012 0.010720 -0.072132
v 0.032868 0.010312 -0.066439
v 0.025195 0.012153 -0.066579
v 0.031481 0.009235 -0.069710
v 0.028580 0.009197 -0.068473
v 0.028783 0.010248 -0.065784
v 0.026056 0.010536 -0.069809
v 0.042116 0.071186 0.004105
v 0.036997 0.066612 0.002083
v 0.044670 0.064771 0.002224
v 0.038778 0.069243 0.004209
v 0.041133 0.067125 0.004562
v 0.040584 0.064707 0.002879
v 0.044203 0.067942 0.004308
v 0.022739 0.016835 -0.075470
v 0.020945 0.016296 -0.068842
v 0.020074 0.022785 -0.073248
v 0.021163 0.015306 -0.072413
v 0.019621 0.017930 -0.073241
v 0.019278 0.019513 -0.070842
v 0.020547 0.019894 -0.075529
v 0.040562 0.072701 0.003278
v 0.036126 0.073101 -0.002323
v 0.036997 0.066612 0.002083
v 0.037851 0.074135 0.000928
v 0.036696 0.071450 0.002200
v 0.035330 0.069829 0.000083
v 0.038467 0.069546 0.004044
v 0.027338 0.023192 -0.080602
v 0.023190 0.027093 -0.076725
v 0.030325 0.029263 -0.079307
v 0.024134 0.024853 -0.079531
v 0.026189 0.027009 -0.080569
v 0.026246 0.029146 -0.078616
v 0.029179 0.026387 -0.081357
v 0.041701 0.074275 0.002007
v 0.043261 0.075271 -0.004906
v 0.036126 0.073101 -0.002323
v 0.043124 0.075984 -0.001152
v 0.039949 0.075947 -0.001429
v 0.039182 0.075153 -0.004214
v 0.038079 0.074449 0.000674
v 0.036453 0.021006 -0.080434
v 0.036501 0.027782 -0.079194
v 0.041782 0.022634 -0.076383
v 0.036289 0.024682 -0.081227
v 0.039206 0.023887 -0.080330
v 0.040056 0.025833 -0.078362
v 0.040022 0.021042 -0.079239
v 0.043958 0.073734 0.002049
v 0.048541 0.070123 -0.002095
v 0.043261 0.075271 -0.004906
v 0.047309 0.072235 0.000843
v 0.046396 0.074401 -0.001311
v 0.046816 0.073322 -0.004074
v 0.043575 0.075875 -0.001144
v 0.037488 0.013297 -0.075200
v 0.042483 0.017411 -0.072837
v 0.038612 0.012059 -0.068517
v 0.040829 0.015030 -0.075157
v 0.040684 0.012878 -0.072855
v 0.041624 0.014154 -0.070432
v 0.038092 0.011245 -0.072103
v 0.044215 0.071825 0.003345
v 0.044670 0.064771 0.002224
v 0.048541 0.070123 -0.002095
v 0.044623 0.068070 0.004157
v 0.047128 0.068948 0.002392
v 0.047682 0.066866 0.000310
v 0.047360 0.071854 0.001102
v 0.041054 0.055323 0.039345
v 0.040911 0.055500 0.039079
v 0.042106 0.056057 0.039104
v 0.040990 0.055369 0.039154
v 0.041644 0.055710 0.039046
v 0.041733 0.055888 0.038983
v 0.041834 0.055763 0.039171
v 0.034742 0.068697 0.039671
v 0.034707 0.068900 0.039954
v 0.035936 0.069254 0.039695
v 0.034695 0.068835 0.039757
v 0.035372 0.069127 0.039647
v 0.035540 0.069229 0.039775
v 0.035564 0.069086 0.039574
v 0.044803 0.056221 0.058399
v 0.045855 0.056956 0.058158
v 0.044769 0.056424 0.058682
v 0.045584 0.056662 0.058225
v 0.045455 0.056623 0.058417
v 0.045559 0.056806 0.058425
v 0.044816 0.056286 0.058596
v 0.038456 0.069799 0.059008
v 0.038599 0.069622 0.059274
v 0.039686 0.070153 0.058749
v 0.038521 0.069752 0.059199
v 0.039184 0.070040 0.059018
v 0.039390 0.070003 0.059016
v 0.039289 0.070128 0.058828
v -0.038113 0.017537 0.056705
v -0.039343 0.017183 0.056964
v -0.038256 0.017714 0.056439
v -0.038946 0.017208 0.056885
v -0.038841 0.017296 0.056695
v -0.039047 0.017333 0.056697
v -0.038178 0.017584 0.056514
v -0.044460 0.031114 0.057314
v -0.044426 0.030911 0.057031
v -0.045512 0.030380 0.057555
v -0.044473 0.031050 0.057117
v -0.045112 0.030712 0.057296
v -0.045216 0.030530 0.057288
v -0.045241 0.030674 0.057488
v -0.034364 0.018436 0.075759
v -0.034399 0.018639 0.076042
v -0.035593 0.018082 0.076018
v -0.034352 0.018501 0.075956
v -0.035029 0.018209 0.076066
v -0.035221 0.018250 0.076139
v -0.035197 0.018107 0.075939
v -0.040711 0.032013 0.076368
v -0.041763 0.031279 0.076609
v -0.040568 0.031836 0.076634
v -0.041491 0.031573 0.076542
v -0.041301 0.031626 0.076667
v -0.041390 0.031447 0.076730
v -0.040647 0.031967 0.076559
vn -0.0336 -0.9917 -0.1242
vn -0.3769 -0.9156 -0.1399
vn 0.1219 -0.9898 -0.0738
vn 0.1220 -0.9885 0.0897
vn -0.0334 -0.9895 0.1403
vn -0.7154 -0.6671 -0.2078
vn -0.0140 -0.6648 -0.7469
vn 0.7154 -0.6538 -0.2465
vn 0.4648 -0.6493 0.6019
vn -0.4195 -0.6575 0.6258
vn -0.7688 -0.3137 -0.5573
vn 0.2968 -0.3063 -0.9045
vn 0.9562 -0.2927 0.0017
vn 0.2981 -0.2917 0.9089
vn -0.7680 -0.3046 0.5634
vn -0.2341 0.9058 -0.3532
vn 0.2506 0.9106 -0.3286
vn 0.3769 0.9156 0.1399
vn -0.0296 0.9139 0.4049
vn -0.4072 0.9078 0.1002
vn -0.1219 0.9898 0.0738
vn -0.2454 0.9554 0.1642
vn -0.2336 0.9114 0.3388
vn 0.0336 0.9917 0.1242
vn 0.0814 0.9594 0.2701
vn 0.2510 0.9158 0.3135
vn 0.1296 0.9915 -0.0081
vn 0.2831 0.9591 -0.0080
vn 0.3767 0.9132 -0.1552
vn 0.0334 0.9895 -0.1403
vn 0.0810 0.9549 -0.2857
vn -0.0302 0.9072 -0.4196
vn -0.1220 0.9885 -0.0897
vn -0.2457 0.9526 -0.1793
vn -0.4074 0.9061 -0.1143
vn -0.7154 0.6538 0.2465
vn -0.7338 0.4282 0.5275
vn -0.4640 0.6590 0.5920
vn 0.0140 0.6648 0.7469
vn 0.2754 0.4404 0.8545
vn 0.4204 0.6676 0.6145
vn 0.7154 0.6671 0.2078
vn 0.8983 0.4394 -0.0042
vn 0.7151 0.6636 -0.2196
vn 0.4195 0.6575 -0.6258
vn 0.2741 0.4266 -0.8619
vn 0.0129 0.6526 -0.7576
vn -0.4648 0.6493 -0.6019
vn -0.7345 0.4196 -0.5333
vn -0.7158 0.6497 -0.2560
vn -0.2968 0.3063 0.9045
vn -0.2741 -0.4266 0.8619
vn -0.0129 -0.6526 0.7576
vn 0.7688 0.3137 0.5573
vn 0.7345 -0.4196 0.5333
vn 0.7158 -0.6497 0.2560
vn 0.7680 0.3046 -0.5634
vn 0.7338 -0.4282 -0.5275
vn 0.4640 -0.6590 -0.5920
vn -0.2981 0.2917 -0.9089
vn -0.2754 -0.4404 -0.8545
vn -0.4204 -0.6676 -0.6145
vn -0.9562 0.2927 -0.0017
vn -0.8983 -0.4394 0.0042
vn -0.7151 -0.6636 0.2196
vn -0.2506 -0.9106 0.3286
vn -0.0810 -0.9549 0.2857
vn 0.0302 -0.9072 0.4196
vn 0.2341 -0.9058 0.3532
vn 0.2457 -0.9526 0.1793
vn 0.4074 -0.9061 0.1143
vn 0.4072 -0.9078 -0.1002
vn 0.2454 -0.9554 -0.1642
vn 0.2336 -0.9114 -0.3388
vn -0.3767 -0.9132 0.1552
vn -0.2831 -0.9591 0.0080
vn -0.1296 -0.9915 0.0081
vn 0.0296 -0.9139 -0.4049
vn -0.0814 -0.9594 -0.2701
vn -0.2510 -0.9158 -0.3135
vn -0.0565 -0.9911 -0.1207
vn -0.3839 -0.9134 -0.1357
vn 0.0915 -0.9931 -0.0731
vn 0.0920 -0.9924 0.0823
vn -0.0557 -0.9898 0.1308
vn -0.7162 -0.6676 -0.2034
vn -0.0319 -0.6808 -0.7318
vn 0.6821 -0.6893 -0.2442
vn 0.4390 -0.6815 0.5855
vn -0.4251 -0.6680 0.6107
vn -0.7740 -0.3070 -0.5538
vn 0.2855 -0.3251 -0.9016
vn 0.9437 -0.3307 -0.0012
vn 0.2910 -0.3162 0.9030
vn -0.7706 -0.3015 0.5615
vn -0.2025 0.9200 -0.3354
vn 0.2618 0.9130 -0.3129
vn 0.3839 0.9134 0.1357
vn -0.0050 0.9206 0.3904
vn -0.3674 0.9247 0.0993
vn -0.0915 0.9931 0.0731
vn -0.2102 0.9645 0.1598
vn -0.2005 0.9233 0.3275
vn 0.0565 0.9911 0.1207
vn 0.1017 0.9602 0.2601
vn 0.2636 0.9160 0.3023
vn 0.1475 0.9890 -0.0053
vn 0.2935 0.9559 -0.0056
vn 0.3830 0.9120 -0.1470
vn 0.0557 0.9898 -0.1308
vn 0.1001 0.9576 -0.2702
vn -0.0074 0.9167 -0.3994
vn -0.0920 0.9924 -0.0823
vn -0.2112 0.9629 -0.1680
vn -0.3680 0.9237 -0.1062
vn -0.6821 0.6893 0.2442
vn -0.7143 0.4627 0.5251
vn -0.4355 0.6872 0.5814
vn 0.0319 0.6808 0.7318
vn 0.2856 0.4489 0.8467
vn 0.4288 0.6740 0.6016
vn 0.7162 0.6676 0.2034
vn 0.9003 0.4353 -0.0049
vn 0.7149 0.6655 -0.2143
vn 0.4251 0.6680 -0.6107
vn 0.2804 0.4406 -0.8528
vn 0.0275 0.6735 -0.7387
vn -0.4390 0.6815 -0.5855
vn -0.7174 0.4576 -0.5253
vn -0.6835 0.6869 -0.2469
vn -0.2855 0.3251 0.9016
vn -0.2804 -0.4406 0.8528
vn -0.0275 -0.6735 0.7387
vn 0.7740 0.3070 0.5538
vn 0.7174 -0.4576 0.5253
vn 0.6835 -0.6869 0.2469
vn 0.7706 0.3015 -0.5615
vn 0.7143 -0.4627 -0.5251
vn 0.4355 -0.6872 -0.5814
vn -0.2910 0.3162 -0.9030
vn -0.2856 -0.4489 -0.8467
vn -0.4288 -0.6740 -0.6016
vn -0.9437 0.3307 0.0012
vn -0.9003 -0.4353 0.0049
vn -0.7149 -0.6655 0.2143
vn -0.2618 -0.9130 0.3129
vn -0.1001 -0.9576 0.2702
vn 0.0074 -0.9167 0.3994
vn 0.2025 -0.9200 0.3354
vn 0.2112 -0.9629 0.1680
vn 0.3680 -0.9237 0.1062
vn 0.3674 -0.9247 -0.0993
vn 0.2102 -0.9645 -0.1598
vn 0.2005 -0.9233 -0.3275
vn -0.3830 -0.9120 0.1470
vn -0.2935 -0.9559 0.0056
vn -0.1475 -0.9890 0.0053
vn 0.0050 -0.9206 -0.3904
vn -0.1017 -0.9602 -0.2601
vn -0.2636 -0.9160 -0.3023
vn -0.0531 -0.9903 -0.1283
vn -0.3657 -0.9190 -0.1475
vn 0.0865 -0.9930 -0.0810
vn 0.0846 -0.9942 0.0664
vn -0.0561 -0.9923 0.1102
vn -0.6958 -0.6842 -0.2184
vn -0.0207 -0.6907 -0.7229
vn 0.6676 -0.7059 -0.2367
vn 0.4179 -0.7088 0.5683
vn -0.4247 -0.6955 0.5796
vn -0.7612 -0.3148 -0.5670
vn 0.2977 -0.3289 -0.8962
vn 0.9378 -0.3469 0.0092
vn 0.2746 -0.3440 0.8979
vn -0.7755 -0.3242 0.5418
vn -0.1871 0.9318 -0.3112
vn 0.2559 0.9244 -0.2827
vn 0.3657 0.9190 0.1475
vn -0.0095 0.9229 0.3849
vn -0.3511 0.9308 0.1014
vn -0.0865 0.9930 0.0810
vn -0.2011 0.9662 0.1614
vn -0.1953 0.9264 0.3219
vn 0.0531 0.9903 0.1283
vn 0.0941 0.9606 0.2615
vn 0.2484 0.9195 0.3048
vn 0.1412 0.9899 0.0102
vn 0.2805 0.9598 0.0117
vn 0.3692 0.9212 -0.1225
vn 0.0561 0.9923 -0.1102
vn 0.1006 0.9649 -0.2428
vn 0.0003 0.9293 -0.3694
vn -0.0846 0.9942 -0.0664
vn -0.1971 0.9688 -0.1502
vn -0.3486 0.9325 -0.0947
vn -0.6676 0.7059 0.2367
vn -0.7137 0.4757 0.5141
vn -0.4326 0.6992 0.5692
vn 0.0207 0.6907 0.7229
vn 0.2696 0.4571 0.8476
vn 0.4095 0.6855 0.6020
vn 0.6958 0.6842 0.2184
vn 0.8907 0.4544 0.0153
vn 0.7011 0.6877 -0.1888
vn 0.4247 0.6955 -0.5796
vn 0.2913 0.4713 -0.8325
vn 0.0392 0.7028 -0.7103
vn -0.4179 0.7088 -0.5683
vn -0.7003 0.4844 -0.5243
vn -0.6615 0.7099 -0.2419
vn -0.2977 0.3289 0.8962
vn -0.2913 -0.4713 0.8325
vn -0.0392 -0.7028 0.7104
vn 0.7612 0.3148 0.5670
vn 0.7003 -0.4844 0.5243
vn 0.6615 -0.7099 0.2419
vn 0.7755 0.3242 -0.5418
vn 0.7137 -0.4757 -0.5141
vn 0.4326 -0.6992 -0.5692
vn -0.2746 0.3440 -0.8979
vn -0.2696 -0.4571 -0.8476
vn -0.4095 -0.6855 -0.6020
vn -0.9378 0.3469 -0.0092
vn -0.8907 -0.4544 -0.0153
vn -0.7011 -0.6877 0.1888
vn -0.2559 -0.9244 0.2827
vn -0.1006 -0.9649 0.2428
vn -0.0003 -0.9293 0.3694
vn 0.1871 -0.9318 0.3112
vn 0.1971 -0.9688 0.1502
vn 0.3486 -0.9325 0.0947
vn 0.3511 -0.9308 -0.1014
vn 0.2011 -0.9662 -0.1614
vn 0.1953 -0.9264 -0.3219
vn -0.3692 -0.9212 0.1225
vn -0.2805 -0.9598 -0.0117
vn -0.1412 -0.9899 -0.0102
vn 0.0095 -0.9229 -0.3849
vn -0.0941 -0.9606 -0.2615
vn -0.2484 -0.9195 -0.3048
vn -0.0952 0.0832 0.9920
vn 0.0682 0.7538 0.6536
vn -0.5567 0.5847 0.5901
vn -0.2543 0.7676 -0.5883
vn -0.6636 0.7478 -0.0220
vn -0.0957 0.9929 0.0705
vn -0.3782 -0.4296 0.8200
vn -0.8392 0.1137 0.5317
vn -0.8719 -0.4460 0.2020
vn -0.6161 0.3367 -0.7121
vn -0.8865 -0.2287 -0.4023
vn -0.9491 0.3043 -0.0812
vn 0.0411 -0.8078 0.5881
vn -0.5215 -0.8507 0.0660
vn 0.0649 -0.9809 -0.1836
vn -0.3098 -0.0913 -0.9464
vn 0.0292 -0.6680 -0.7436
vn -0.5616 -0.6241 -0.5432
vn 0.5833 -0.5287 0.6167
vn 0.5824 -0.8067 -0.1000
vn 0.9592 -0.2807 -0.0338
vn 0.2414 0.0751 -0.9675
vn 0.8180 0.0369 -0.5741
vn 0.5313 -0.5093 -0.6770
vn 0.4990 0.0219 0.8663
vn 0.9469 0.1849 0.2632
vn 0.5751 0.6869 0.4444
vn 0.2757 0.6060 -0.7462
vn 0.3899 0.9119 -0.1281
vn 0.8192 0.4901 -0.2978
vn -0.7164 0.2947 0.6324
vn -0.1845 -0.1755 0.9670
vn -0.8065 0.5838 -0.0938
vn -0.4528 0.5344 -0.7137
vn -0.0568 0.9383 0.3411
vn -0.6146 0.7127 0.3379
vn -0.9375 -0.3428 -0.0595
vn -0.9612 0.2086 0.1803
vn -0.6730 -0.7138 0.1937
vn -0.1662 -0.6004 0.7822
vn -0.7648 -0.3862 -0.5157
vn -0.4352 0.1256 -0.8915
vn 0.0219 -0.8905 -0.4544
vn -0.5506 -0.7753 -0.3093
vn 0.3743 -0.9245 -0.0717
vn 0.2750 -0.6892 0.6704
vn 0.2424 -0.5889 -0.7710
vn -0.0107 0.0402 -0.9991
vn 0.9377 -0.1735 -0.3010
vn 0.6076 -0.6537 -0.4511
vn 0.9781 -0.0462 0.2029
vn 0.5293 -0.3191 0.7861
vn 0.8232 0.2559 -0.5069
vn 0.2341 0.3962 -0.8878
vn 0.5443 0.8174 0.1887
vn 0.9128 0.4054 -0.0492
vn 0.3041 0.7074 0.6381
vn 0.2454 -0.0017 0.9694
vn 0.1749 0.9806 -0.0884
vn -0.0391 0.7017 -0.7114
vn 0.1521 -0.3887 0.9087
vn -0.8291 0.4808 0.2852
vn 0.2591 0.9209 0.2913
vn -0.1521 0.3887 -0.9087
vn -0.7829 -0.5948 -0.1826
vn 0.3340 -0.8195 -0.4657
vn 0.9779 0.1172 -0.1728
vn -0.2573 -0.8810 -0.3971
vn 0.1244 -0.9569 0.2624
vn -0.4987 -0.7939 0.3479
vn 0.0559 0.0983 0.9936
vn -0.4465 -0.3597 0.8193
vn 0.1371 -0.5868 0.7980
vn -0.6181 -0.4552 -0.6409
vn -0.8704 -0.4856 0.0815
vn -0.9757 0.0907 -0.1993
vn -0.3710 0.4442 0.8155
vn -0.8252 0.4892 0.2824
vn -0.8154 -0.0647 0.5752
vn -0.2683 -0.0726 -0.9606
vn -0.7152 0.4087 -0.5669
vn -0.1428 0.6699 -0.7286
vn -0.1389 0.8608 0.4896
vn 0.0049 0.9825 -0.1864
vn -0.5853 0.8079 -0.0691
vn 0.3087 -0.2619 -0.9144
vn 0.3753 0.4902 -0.7867
vn 0.8490 0.1433 -0.5086
vn 0.4313 0.7723 0.4663
vn 0.8967 0.4385 0.0608
vn 0.5094 0.8250 -0.2446
vn 0.3155 -0.7615 -0.5661
vn 0.8942 -0.3538 -0.2741
vn 0.6291 -0.7614 0.1567
vn 0.5517 0.3011 0.7778
vn 0.6177 -0.3910 0.6823
vn 0.9559 -0.0370 0.2913
vn -0.7286 -0.6702 0.1413
vn -0.4005 -0.7201 -0.5666
vn -0.6090 -0.2066 0.7658
vn -0.1664 0.3355 0.9272
vn 0.1095 -0.7878 0.6061
vn -0.4758 -0.6475 0.5953
vn -0.9651 0.2597 0.0342
vn -0.8986 -0.2353 0.3703
vn -0.8499 0.2335 -0.4724
vn -0.4516 -0.3394 -0.8252
vn -0.7260 0.6654 0.1737
vn -0.2158 0.7030 0.6777
vn -0.1109 0.8538 -0.5087
vn -0.6551 0.6883 -0.3117
vn 0.1438 0.5358 -0.8320
vn -0.0329 -0.2120 -0.9767
vn 0.2327 0.9570 -0.1733
vn 0.1884 0.8259 0.5314
vn 0.9063 0.3137 -0.2830
vn 0.5036 0.7064 -0.4974
vn 0.8792 -0.1812 -0.4406
vn 0.2769 -0.5141 -0.8118
vn 0.9423 0.2653 0.2044
vn 0.4874 0.5344 0.6906
vn 0.6808 -0.6141 0.3993
vn 0.9761 -0.2059 0.0698
vn 0.3401 -0.9265 0.1609
vn 0.0498 -0.8281 -0.5584
vn 0.4221 -0.4539 0.7848
vn 0.2682 0.2312 0.9352
vn -0.1215 -0.5687 -0.8135
vn -0.7263 -0.4723 0.4994
vn 0.4153 -0.7461 0.5204
vn 0.1215 0.5687 0.8135
vn -0.8558 0.4931 -0.1561
vn 0.2056 0.8160 -0.5403
vn 0.9912 0.0501 -0.1222
vn 0.4241 -0.8616 -0.2789
vn 0.0891 -0.4517 -0.8877
vn 0.4784 -0.5902 -0.6502
vn -0.2684 0.3445 -0.8996
vn -0.4170 0.8706 -0.2613
vn -0.1673 0.7912 -0.5883
vn 0.5045 -0.8288 0.2421
vn 0.6992 -0.5373 0.4717
vn 0.4147 -0.2746 0.8676
vn -0.3080 0.9170 0.2535
vn 0.0178 0.5027 0.8643
vn 0.0534 0.8441 0.5336
vn 0.3027 -0.8979 -0.3196
vn -0.0534 -0.8441 -0.5336
vn -0.0856 -0.4293 -0.8991
vn -0.5134 0.8402 -0.1746
vn -0.4262 0.3709 -0.8251
vn -0.6992 0.5373 -0.4717
vn 0.3973 -0.8956 0.2001
vn 0.3193 -0.4219 0.8486
vn 0.1673 -0.7912 0.5883
vn -0.3902 0.8562 0.3387
vn -0.4784 0.5902 0.6502
vn -0.0607 0.3595 0.9312
vn 0.4818 -0.8746 -0.0536
vn 0.7180 -0.6875 -0.1088
vn -0.1127 -0.0082 -0.9936
vn 0.2406 0.1554 -0.9581
vn -0.3625 0.9316 0.0274
vn -0.0695 0.9970 -0.0334
vn 0.2715 0.0839 0.9588
vn 0.5822 0.2373 0.7776
vn 0.4613 -0.8507 0.2520
vn 0.3734 -0.3972 0.8384
vn -0.3469 0.8781 0.3295
vn -0.0357 0.4781 0.8776
vn -0.2407 -0.1554 0.9581
vn 0.1127 0.0081 0.9936
vn 0.3625 -0.9316 -0.0274
vn 0.0695 -0.9970 0.0334
vn -0.4818 0.8746 0.0536
vn -0.7180 0.6875 0.1088
vn -0.2715 -0.0839 -0.9588
vn -0.5822 -0.2373 -0.7777
vn 0.3469 -0.8781 -0.3295
vn 0.0357 -0.4781 -0.8776
vn -0.4613 0.8507 -0.2520
vn -0.3734 0.3971 -0.8384
vn 0.4231 -0.9052 -0.0406
vn 0.8853 0.4225 -0.1941
vn -0.1929 -0.0462 -0.9801
vn -0.4231 0.9052 0.0406
vn 0.1929 0.0462 0.9801
vn -0.8853 -0.4225 0.1941
vn 0.0011 0.1221 0.9925
vn -0.0119 0.8050 0.5931
vn -0.5793 0.4919 0.6500
vn -0.3451 0.7309 -0.5888
vn -0.6221 0.7801 0.0675
vn -0.0426 0.9989 -0.0185
vn -0.3823 -0.3344 0.8614
vn -0.8951 0.0924 0.4362
vn -0.8117 -0.5263 0.2534
vn -0.6123 0.2469 -0.7511
vn -0.9267 -0.2160 -0.3075
vn -0.9129 0.3851 -0.1354
vn -0.0577 -0.7879 0.6131
vn -0.4941 -0.8684 -0.0419
vn 0.1430 -0.9844 -0.1024
vn -0.2165 -0.1101 -0.9701
vn -0.0214 -0.7328 -0.6801
vn -0.6081 -0.5398 -0.5820
vn 0.5263 -0.6116 0.5908
vn 0.6369 -0.7496 -0.1804
vn 0.9656 -0.2494 0.0743
vn 0.2952 0.1533 -0.9431
vn 0.8428 -0.0562 -0.5354
vn 0.4505 -0.4977 -0.7412
vn 0.5626 -0.0491 0.8253
vn 0.9349 0.2846 0.2121
vn 0.5191 0.6631 0.5393
vn 0.2157 0.6731 -0.7074
vn 0.4715 0.8788 -0.0733
vn 0.8000 0.4533 -0.3929
vn -0.0000 1.0000 -0.0000
vn -0.6146 0.7127 0.3380
vn -0.9363 -0.0000 0.3511
vn -0.9779 -0.0000 0.2089
vn -0.1566 -0.9051 -0.3953
vn 0.0720 -0.9308 0.3584
vn -0.5538 -0.7943 0.2500
vn -0.0397 0.1212 0.9918
vn -0.4159 -0.4542 0.7879
vn 0.2061 -0.5162 0.8313
vn -0.6067 -0.5404 -0.5831
vn -0.9110 -0.3920 0.1285
vn -0.9473 0.0879 -0.3080
vn -0.3818 0.5250 0.7606
vn -0.8782 0.4030 0.2577
vn -0.7511 -0.0627 0.6572
vn -0.3620 -0.1011 -0.9267
vn -0.6735 0.5085 -0.5365
vn -0.0847 0.6005 -0.7951
vn -0.0501 0.8878 0.4575
vn -0.0711 0.9643 -0.2553
vn -0.6019 0.7979 0.0332
vn 0.2394 -0.1943 -0.9513
vn 0.4563 0.5262 -0.7176
vn 0.8420 0.0352 -0.5383
vn 0.4971 0.7082 0.5013
vn 0.8900 0.4540 -0.0420
vn 0.4476 0.8763 -0.1783
vn 0.3663 -0.6913 -0.6228
vn 0.9170 -0.3633 -0.1645
vn 0.5521 -0.8268 0.1076
vn 0.5035 0.2344 0.8316
vn 0.6769 -0.4227 0.6026
vn 0.9469 0.0641 0.3150
vn 0.1883 0.8259 0.5314
vn 0.4874 0.5343 0.6906
vn -0.0000 -1.0000 -0.0000
vn -0.5027 0.8645 -0.0000
vn 0.3902 -0.8562 -0.3387
vn 0.0607 -0.3595 -0.9312
vn 0.5664 -0.5123 -0.6455
vn -0.3193 0.4219 -0.8486
vn -0.3973 0.8956 -0.2001
vn -0.0509 0.8085 -0.5863
vn 0.5134 -0.8402 0.1747
vn 0.7775 -0.4617 0.4271
vn 0.4262 -0.3709 0.8251
vn -0.3027 0.8979 0.3195
vn 0.0856 0.4293 0.8991
vn 0.1601 0.8590 0.4862
vn 0.3080 -0.9170 -0.2534
vn -0.1601 -0.8590 -0.4862
vn -0.0178 -0.5027 -0.8643
vn -0.5045 0.8288 -0.2422
vn -0.4147 0.2746 -0.8675
vn -0.7775 0.4617 -0.4270
vn 0.4170 -0.8705 0.2613
vn 0.2683 -0.3446 0.8996
vn 0.0510 -0.8085 0.5863
vn -0.4241 0.8616 0.2789
vn -0.5665 0.5122 0.6455
vn -0.0891 0.4517 0.8877
vn -0.1127 -0.0081 -0.9936
vn 0.5822 0.2373 0.7777
vn 0.4613 -0.8507 0.2521
vn 0.1127 0.0082 0.9936
vn -0.5822 -0.2373 -0.7776
vn 0.3469 -0.8781 -0.3296
vt 0.181819 0.000000
vt 0.227273 0.078731
vt 0.136365 0.078731
vt 0.272728 0.157461
vt 0.318182 0.078731
vt 0.363637 0.157461
vt 0.909091 0.000000
vt 0.954545 0.078731
vt 0.863636 0.078731
vt 0.727273 0.000000
vt 0.772727 0.078731
vt 0.681818 0.078731
vt 0.545455 0.000000
vt 0.590909 0.078731
vt 0.500000 0.078731
vt 0.318182 0.236191
vt 0.090910 0.157461
vt 0.181819 0.157461
vt 0.136365 0.236191
vt 0.818182 0.157461
vt 0.909091 0.157461
vt 0.863636 0.236191
vt 0.636364 0.157461
vt 0.727273 0.157461
vt 0.681818 0.236191
vt 0.454546 0.157461
vt 0.545455 0.157461
vt 0.500000 0.236191
vt 0.227273 0.236191
vt 0.045455 0.236191
vt 0.772727 0.236191
vt 0.590909 0.236191
vt 0.409092 0.236191
vt 0.181819 0.314921
vt 0.272728 0.314921
vt 0.227273 0.393651
vt 0.000000 0.314921
vt 0.090910 0.314921
vt 0.045455 0.393651
vt 0.727273 0.314921
vt 0.818182 0.314921
vt 0.772727 0.393651
vt 0.545455 0.314921
vt 0.636364 0.314921
vt 0.590909 0.393651
vt 0.363637 0.314921
vt 0.454546 0.314921
vt 0.409092 0.393651
vt 0.500000 0.393651
vt 0.454546 0.472382
vt 0.681818 0.393651
vt 0.636364 0.472382
vt 0.863636 0.393651
vt 0.818182 0.472382
vt 0.909091 0.314921
vt 0.136365 0.393651
vt 0.090910 0.472382
vt 0.318182 0.393651
vt 0.272728 0.472382
vt 0.954545 0.236191
vt 1.000000 0.157461
vt 0.409092 0.078731
vt 0.363637 0.000000
vt 0.750000 0.394004
vt 0.730132 0.475565
vt 0.809008 0.447128
vt 0.056680 0.522888
vt 0.000000 0.510449
vt 0.051704 0.500000
vt 0.943320 0.522888
vt 0.982592 0.500000
vt 1.000000 0.523394
vt 0.250000 0.308673
vt 0.283602 0.465587
vt 0.141261 0.410996
vt 0.900000 0.977112
vt 1.000000 0.991102
vt 0.904721 1.000000
vt 0.100000 0.977112
vt 0.029443 1.000000
vt 0.000000 0.977617
vt 0.886955 0.294500
vt 0.958386 0.338599
vt 0.955714 0.254796
vt 0.856679 0.522888
vt 0.791296 0.505225
vt 0.851704 0.500000
vt 0.743320 0.522888
vt 0.800000 0.523394
vt 0.305802 0.268131
vt 0.465419 0.284663
vt 0.369514 0.403168
vt 0.700000 0.977112
vt 0.814721 0.995551
vt 0.704721 1.000000
vt 0.900000 0.977112
vt 0.800000 0.977617
vt 0.834643 0.133499
vt 0.898657 0.079192
vt 0.818130 0.055836
vt 0.656680 0.522888
vt 0.591296 0.505225
vt 0.651704 0.500000
vt 0.543321 0.522888
vt 0.600000 0.523394
vt 0.284487 0.202532
vt 0.349534 0.055836
vt 0.432603 0.183667
vt 0.500000 0.977112
vt 0.614721 0.995551
vt 0.504721 1.000000
vt 0.700000 0.977112
vt 0.600000 0.977617
vt 0.665357 0.133499
vt 0.633489 0.055836
vt 0.586392 0.125204
vt 0.456680 0.522888
vt 0.391296 0.505225
vt 0.451704 0.500000
vt 0.343321 0.522888
vt 0.400000 0.523394
vt 0.215513 0.202532
vt 0.096097 0.095337
vt 0.243341 0.055836
vt 0.300000 0.977112
vt 0.414721 0.995551
vt 0.304721 1.000000
vt 0.500000 0.977112
vt 0.400000 0.977617
vt 0.613044 0.294500
vt 0.529335 0.300808
vt 0.580754 0.367036
vt 0.256680 0.522888
vt 0.191296 0.505225
vt 0.251704 0.500000
vt 0.143320 0.522888
vt 0.200000 0.523394
vt 0.194198 0.268131
vt 0.055349 0.348577
vt 0.063281 0.196333
vt 0.100000 0.977112
vt 0.214721 0.995551
vt 0.104721 1.000000
vt 0.300000 0.977112
vt 0.200000 0.977617
vt 0.948296 0.500000
vt 0.919245 0.367036
vt 0.895279 1.000000
vt 0.000000 0.523394
vt 1.000000 0.977617
vt 0.748296 0.500000
vt 0.695279 1.000000
vt 0.436719 0.196333
vt 0.548296 0.500000
vt 0.681870 0.055836
vt 0.495279 1.000000
vt 0.256659 0.055836
vt 0.348296 0.500000
vt 0.544285 0.254796
vt 0.295280 1.000000
vt 0.067397 0.183667
vt 0.148296 0.500000
vt 0.095280 1.000000
vt 0.130486 0.403168
vt 0.750000 0.386714
vt 0.728716 0.474536
vt 0.813421 0.443922
vt 0.060882 0.524839
vt 0.000000 0.511271
vt 0.055571 0.500000
vt 0.939118 0.524839
vt 0.981351 0.500000
vt 1.000000 0.525342
vt 0.250000 0.309250
vt 0.283653 0.465550
vt 0.141504 0.411173
vt 0.900000 0.975161
vt 1.000000 0.990275
vt 0.904934 1.000000
vt 0.100000 0.975161
vt 0.029487 1.000000
vt 0.000000 0.975665
vt 0.880023 0.292247
vt 0.956970 0.339628
vt 0.954029 0.249608
vt 0.860882 0.524839
vt 0.790675 0.505636
vt 0.855571 0.500000
vt 0.739118 0.524839
vt 0.800000 0.525342
vt 0.306350 0.268309
vt 0.465399 0.284603
vt 0.369757 0.402991
vt 0.700000 0.975161
vt 0.814744 0.995138
vt 0.704934 1.000000
vt 0.900000 0.975161
vt 0.800000 0.975665
vt 0.830359 0.139396
vt 0.899198 0.080857
vt 0.812676 0.055836
vt 0.660882 0.524839
vt 0.590675 0.505636
vt 0.655571 0.500000
vt 0.539118 0.524839
vt 0.600000 0.525342
vt 0.284826 0.202066
vt 0.349472 0.055836
vt 0.432510 0.183381
vt 0.500000 0.975161
vt 0.614743 0.995138
vt 0.504934 1.000000
vt 0.700000 0.975162
vt 0.600000 0.975665
vt 0.669641 0.139396
vt 0.635240 0.055836
vt 0.584707 0.130392
vt 0.460882 0.524839
vt 0.390675 0.505636
vt 0.455571 0.500000
vt 0.339118 0.524839
vt 0.400000 0.525342
vt 0.215174 0.202066
vt 0.096077 0.095397
vt 0.243040 0.055836
vt 0.300000 0.975161
vt 0.414744 0.995138
vt 0.304934 1.000000
vt 0.500000 0.975161
vt 0.400000 0.975665
vt 0.619977 0.292247
vt 0.529876 0.299143
vt 0.585168 0.370242
vt 0.260882 0.524839
vt 0.190675 0.505636
vt 0.255571 0.500000
vt 0.139118 0.524839
vt 0.200000 0.525342
vt 0.193650 0.268309
vt 0.055399 0.348614
vt 0.063188 0.196619
vt 0.100000 0.975161
vt 0.214744 0.995138
vt 0.104934 1.000000
vt 0.300000 0.975162
vt 0.200000 0.975665
vt 0.944429 0.500000
vt 0.895066 1.000000
vt 0.000000 0.525342
vt 1.000000 0.975665
vt 0.744429 0.500000
vt 0.695066 1.000000
vt 0.544429 0.500000
vt 0.687324 0.055836
vt 0.495066 1.000000
vt 0.256960 0.055836
vt 0.344429 0.500000
vt 0.545971 0.249608
vt 0.295066 1.000000
vt 0.144429 0.500000
vt 0.095066 1.000000
vt 0.130243 0.402991
vt 0.128500 0.746500
vt 0.126479 0.750000
vt 0.125000 0.746500
vt 0.378500 0.996500
vt 0.376479 1.000000
vt 0.375000 0.996500
vt 0.375000 0.003500
vt 0.378500 0.000000
vt 0.378500 0.003500
vt 0.621500 0.996500
vt 0.625000 0.998521
vt 0.621500 1.000000
vt 0.871500 0.746500
vt 0.875000 0.748521
vt 0.871500 0.750000
vt 0.621500 0.000000
vt 0.625000 0.003500
vt 0.621500 0.003500
vt 0.128500 0.503500
vt 0.125000 0.501479
vt 0.128500 0.500000
vt 0.378500 0.250000
vt 0.375000 0.246500
vt 0.378500 0.246500
vt 0.378500 0.253500
vt 0.375740 0.250740
vt 0.871500 0.503500
vt 0.873521 0.500000
vt 0.875000 0.503500
vt 0.621500 0.253500
vt 0.624260 0.249260
vt 0.625000 0.253500
vt 0.625000 0.246500
vt 0.621500 0.250000
vt 0.621500 0.246500
vt 0.371500 0.746500
vt 0.375493 0.750000
vt 0.373250 0.751750
vt 0.378500 0.750000
vt 0.375000 0.746500
vt 0.378500 0.746500
vt 0.378500 0.753500
vt 0.628500 0.746500
vt 0.625000 0.749507
vt 0.625000 0.746500
vt 0.621500 0.753500
vt 0.626750 0.751750
vt 0.621500 0.750000
vt 0.621500 0.746500
vt 0.371500 0.503500
vt 0.375000 0.500493
vt 0.375000 0.503500
vt 0.378500 0.496500
vt 0.373250 0.498250
vt 0.378500 0.500000
vt 0.378500 0.503500
vt 0.628500 0.503500
vt 0.624507 0.500000
vt 0.626750 0.498250
vt 0.621500 0.500000
vt 0.625000 0.503500
vt 0.621500 0.503500
vt 0.621500 0.496500
vt 0.125000 0.503500
vt 0.378500 1.000000
vt 0.875000 0.746500
vt 0.871500 0.500000
vt 0.128500 0.750000
vt 0.625000 0.996500
vt 0.690992 0.447128
vt 0.358739 0.410996
vt 0.913607 0.125204
vt 0.686579 0.443922
vt 0.358496 0.411173
vt 0.914832 0.370242
vt 0.436812 0.196619
vt 0.915293 0.130392
vt 0.067490 0.183381
vt 0.375000 0.001479
vt 0.623521 0.000000
vt 0.375000 0.253500
s 0
usemtl bone
f 1/1/1 14/2/1 13/3/1
f 2/4/2 14/5/2 16/6/2
f 1/7/3 13/8/3 18/9/3
f 1/10/4 18/11/4 20/12/4
f 1/13/5 20/14/5 17/15/5
f 2/4/6 16/6/6 23/16/6
f 3/17/7 15/18/7 25/19/7
f 4/20/8 19/21/8 27/22/8
f 5/23/9 21/24/9 29/25/9
f 6/26/10 22/27/10 31/28/10
f 2/4/11 23/16/11 26/29/11
f 3/17/12 25/19/12 28/30/12
f 4/20/13 27/22/13 30/31/13
f 5/23/14 29/25/14 32/32/14
f 6/26/15 31/28/15 24/33/15
f 7/34/16 33/35/16 38/36/16
f 8/37/17 34/38/17 40/39/17
f 9/40/18 35/41/18 41/42/18
f 10/43/19 36/44/19 42/45/19
f 11/46/20 37/47/20 39/48/20
f 39/48/21 42/49/21 12/50/21
f 39/48/22 37/47/22 42/49/22
f 37/47/23 10/43/23 42/49/23
f 42/45/24 41/51/24 12/52/24
f 42/45/25 36/44/25 41/51/25
f 36/44/26 9/40/26 41/51/26
f 41/42/27 40/53/27 12/54/27
f 41/42/28 35/41/28 40/53/28
f 35/41/29 8/55/29 40/53/29
f 40/39/30 38/56/30 12/57/30
f 40/39/31 34/38/31 38/56/31
f 34/38/32 7/34/32 38/56/32
f 38/36/33 39/58/33 12/59/33
f 38/36/34 33/35/34 39/58/34
f 33/35/35 11/46/35 39/58/35
f 24/33/36 37/47/36 11/46/36
f 24/33/37 31/28/37 37/47/37
f 31/28/38 10/43/38 37/47/38
f 32/32/39 36/44/39 10/43/39
f 32/32/40 29/25/40 36/44/40
f 29/25/41 9/40/41 36/44/41
f 30/31/42 35/41/42 9/40/42
f 30/31/43 27/22/43 35/41/43
f 27/22/44 8/55/44 35/41/44
f 28/30/45 34/38/45 8/37/45
f 28/30/46 25/19/46 34/38/46
f 25/19/47 7/34/47 34/38/47
f 26/29/48 33/35/48 7/34/48
f 26/29/49 23/16/49 33/35/49
f 23/16/50 11/46/50 33/35/50
f 31/28/51 32/32/51 10/43/51
f 31/28/52 22/27/52 32/32/52
f 22/27/53 5/23/53 32/32/53
f 29/25/54 30/31/54 9/40/54
f 29/25/55 21/24/55 30/31/55
f 21/24/56 4/20/56 30/31/56
f 27/22/57 28/60/57 8/55/57
f 27/22/58 19/21/58 28/60/58
f 19/21/59 3/61/59 28/60/59
f 25/19/60 26/29/60 7/34/60
f 25/19/61 15/18/61 26/29/61
f 15/18/62 2/4/62 26/29/62
f 23/16/63 24/33/63 11/46/63
f 23/16/64 16/6/64 24/33/64
f 16/6/65 6/26/65 24/33/65
f 17/15/66 22/27/66 6/26/66
f 17/15/67 20/14/67 22/27/67
f 20/14/68 5/23/68 22/27/68
f 20/12/69 21/24/69 5/23/69
f 20/12/70 18/11/70 21/24/70
f 18/11/71 4/20/71 21/24/71
f 18/9/72 19/21/72 4/20/72
f 18/9/73 13/8/73 19/21/73
f 13/8/74 3/61/74 19/21/74
f 16/6/75 17/62/75 6/26/75
f 16/6/76 14/5/76 17/62/76
f 14/5/77 1/63/77 17/62/77
f 13/3/78 15/18/78 3/17/78
f 13/3/79 14/2/79 15/18/79
f 14/2/80 2/4/80 15/18/80
f 43/1/81 56/2/81 55/3/81
f 44/4/82 56/5/82 58/6/82
f 43/7/83 55/8/83 60/9/83
f 43/10/84 60/11/84 62/12/84
f 43/13/85 62/14/85 59/15/85
f 44/4/86 58/6/86 65/16/86
f 45/17/87 57/18/87 67/19/87
f 46/20/88 61/21/88 69/22/88
f 47/23/89 63/24/89 71/25/89
f 48/26/90 64/27/90 73/28/90
f 44/4/91 65/16/91 68/29/91
f 45/17/92 67/19/92 70/30/92
f 46/20/93 69/22/93 72/31/93
f 47/23/94 71/25/94 74/32/94
f 48/26/95 73/28/95 66/33/95
f 49/34/96 75/35/96 80/36/96
f 50/37/97 76/38/97 82/39/97
f 51/40/98 77/41/98 83/42/98
f 52/43/99 78/44/99 84/45/99
f 53/46/100 79/47/100 81/48/100
f 81/48/101 84/49/101 54/50/101
f 81/48/102 79/47/102 84/49/102
f 79/47/103 52/43/103 84/49/103
f 84/45/104 83/51/104 54/52/104
f 84/45/105 78/44/105 83/51/105
f 78/44/106 51/40/106 83/51/106
f 83/42/107 82/53/107 54/54/107
f 83/42/108 77/41/108 82/53/108
f 77/41/109 50/55/109 82/53/109
f 82/39/110 80/56/110 54/57/110
f 82/39/111 76/38/111 80/56/111
f 76/38/112 49/34/112 80/56/112
f 80/36/113 81/58/113 54/59/113
f 80/36/114 75/35/114 81/58/114
f 75/35/115 53/46/115 81/58/115
f 66/33/116 79/47/116 53/46/116
f 66/33/117 73/28/117 79/47/117
f 73/28/118 52/43/118 79/47/118
f 74/32/119 78/44/119 52/43/119
f 74/32/120 71/25/120 78/44/120
f 71/25/121 51/40/121 78/44/121
f 72/31/122 77/41/122 51/40/122
f 72/31/123 69/22/123 77/41/123
f 69/22/124 50/55/124 77/41/124
f 70/30/125 76/38/125 50/37/125
f 70/30/126 67/19/126 76/38/126
f 67/19/127 49/34/127 76/38/127
f 68/29/128 75/35/128 49/34/128
f 68/29/129 65/16/129 75/35/129
f 65/16/130 53/46/130 75/35/130
f 73/28/131 74/32/131 52/43/131
f 73/28/132 64/27/132 74/32/132
f 64/27/133 47/23/133 74/32/133
f 71/25/134 72/31/134 51/40/134
f 71/25/135 63/24/135 72/31/135
f 63/24/136 46/20/136 72/31/136
f 69/22/137 70/60/137 50/55/137
f 69/22/138 61/21/138 70/60/138
f 61/21/139 45/61/139 70/60/139
f 67/19/140 68/29/140 49/34/140
f 67/19/141 57/18/141 68/29/141
f 57/18/142 44/4/142 68/29/142
f 65/16/143 66/33/143 53/46/143
f 65/16/144 58/6/144 66/33/144
f 58/6/145 48/26/145 66/33/145
f 59/15/146 64/27/146 48/26/146
f 59/15/147 62/14/147 64/27/147
f 62/14/148 47/23/148 64/27/148
f 62/12/149 63/24/149 47/23/149
f 62/12/150 60/11/150 63/24/150
f 60/11/151 46/20/151 63/24/151
f 60/9/152 61/21/152 46/20/152
f 60/9/153 55/8/153 61/21/153
f 55/8/154 45/61/154 61/21/154
f 58/6/155 59/62/155 48/26/155
f 58/6/156 56/5/156 59/62/156
f 56/5/157 43/63/157 59/62/157
f 55/3/158 57/18/158 45/17/158
f 55/3/159 56/2/159 57/18/159
f 56/2/160 44/4/160 57/18/160
f 85/1/161 98/2/161 97/3/161
f 86/4/162 98/5/162 100/6/162
f 85/7/163 97/8/163 102/9/163
f 85/10/164 102/11/164 104/12/164
f 85/13/165 104/14/165 101/15/165
f 86/4/166 100/6/166 107/16/166
f 87/17/167 99/18/167 109/19/167
f 88/20/168 103/21/168 111/22/168
f 89/23/169 105/24/169 113/25/169
f 90/26/170 106/27/170 115/28/170
f 86/4/171 107/16/171 110/29/171
f 87/17/172 109/19/172 112/30/172
f 88/20/173 111/22/173 114/31/173
f 89/23/174 113/25/174 116/32/174
f 90/26/175 115/28/175 108/33/175
f 91/34/176 117/35/176 122/36/176
f 92/37/177 118/38/177 124/39/177
f 93/40/178 119/41/178 125/42/178
f 94/43/179 120/44/179 126/45/179
f 95/46/180 121/47/180 123/48/180
f 123/48/181 126/49/181 96/50/181
f 123/48/182 121/47/182 126/49/182
f 121/47/183 94/43/183 126/49/183
f 126/45/184 125/51/184 96/52/184
f 126/45/185 120/44/185 125/51/185
f 120/44/186 93/40/186 125/51/186
f 125/42/187 124/53/187 96/54/187
f 125/42/188 119/41/188 124/53/188
f 119/41/189 92/55/189 124/53/189
f 124/39/190 122/56/190 96/57/190
f 124/39/191 118/38/191 122/56/191
f 118/38/192 91/34/192 122/56/192
f 122/36/193 123/58/193 96/59/193
f 122/36/194 117/35/194 123/58/194
f 117/35/195 95/46/195 123/58/195
f 108/33/196 121/47/196 95/46/196
f 108/33/197 115/28/197 121/47/197
f 115/28/198 94/43/198 121/47/198
f 116/32/199 120/44/199 94/43/199
f 116/32/200 113/25/200 120/44/200
f 113/25/201 93/40/201 120/44/201
f 114/31/202 119/41/202 93/40/202
f 114/31/203 111/22/203 119/41/203
f 111/22/204 92/55/204 119/41/204
f 112/30/205 118/38/205 92/37/205
f 112/30/206 109/19/206 118/38/206
f 109/19/207 91/34/207 118/38/207
f 110/29/208 117/35/208 91/34/208
f 110/29/209 107/16/209 117/35/209
f 107/16/210 95/46/210 117/35/210
f 115/28/211 116/32/211 94/43/211
f 115/28/212 106/27/212 116/32/212
f 106/27/213 89/23/213 116/32/213
f 113/25/214 114/31/214 93/40/214
f 113/25/215 105/24/215 114/31/215
f 105/24/216 88/20/216 114/31/216
f 111/22/217 112/60/217 92/55/217
f 111/22/218 103/21/218 112/60/218
f 103/21/219 87/61/219 112/60/219
f 109/19/220 110/29/220 91/34/220
f 109/19/221 99/18/221 110/29/221
f 99/18/222 86/4/222 110/29/222
f 107/16/223 108/33/223 95/46/223
f 107/16/224 100/6/224 108/33/224
f 100/6/225 90/26/225 108/33/225
f 101/15/226 106/27/226 90/26/226
f 101/15/227 104/14/227 106/27/227
f 104/14/228 89/23/228 106/27/228
f 104/12/229 105/24/229 89/23/229
f 104/12/230 102/11/230 105/24/230
f 102/11/231 88/20/231 105/24/231
f 102/9/232 103/21/232 88/20/232
f 102/9/233 97/8/233 103/21/233
f 97/8/234 87/61/234 103/21/234
f 100/6/235 101/62/235 90/26/235
f 100/6/236 98/5/236 101/62/236
f 98/5/237 85/63/237 101/62/237
f 97/3/238 99/18/238 87/17/238
f 97/3/239 98/2/239 99/18/239
f 98/2/240 86/4/240 99/18/240
f 127/64/241 131/65/241 133/66/241
f 128/67/242 131/68/242 130/69/242
f 129/70/243 131/71/243 132/72/243
f 134/73/244 138/74/244 140/75/244
f 135/76/245 138/77/245 137/78/245
f 136/79/246 138/80/246 139/81/246
f 141/82/247 145/83/247 147/84/247
f 142/85/248 145/86/248 144/87/248
f 143/88/249 145/86/249 146/89/249
f 148/90/250 152/91/250 154/92/250
f 149/93/251 152/94/251 151/95/251
f 150/96/252 152/94/252 153/97/252
f 155/98/253 159/99/253 161/100/253
f 156/101/254 159/102/254 158/103/254
f 157/104/255 159/102/255 160/105/255
f 162/106/256 166/107/256 168/108/256
f 163/109/257 166/110/257 165/111/257
f 164/112/258 166/110/258 167/113/258
f 169/114/259 173/115/259 175/116/259
f 170/117/260 173/118/260 172/119/260
f 171/120/261 173/118/261 174/121/261
f 176/122/262 180/123/262 182/124/262
f 177/125/263 180/126/263 179/127/263
f 178/128/264 180/126/264 181/129/264
f 183/130/265 187/131/265 189/132/265
f 184/133/266 187/134/266 186/135/266
f 185/136/267 187/134/267 188/137/267
f 190/138/268 194/139/268 196/140/268
f 191/141/269 194/142/269 193/143/269
f 192/144/270 194/142/270 195/145/270
f 142/85/271 133/146/271 129/70/271
f 144/147/272 127/64/272 133/66/272
f 150/96/273 137/78/273 154/148/273
f 154/92/274 134/73/274 148/90/274
f 128/67/275 139/81/275 132/149/275
f 139/150/276 129/70/276 132/72/276
f 143/88/277 153/97/277 149/93/277
f 153/97/278 142/85/278 150/96/278
f 156/101/279 147/151/279 143/88/279
f 147/84/280 155/98/280 141/82/280
f 164/112/281 151/95/281 168/152/281
f 151/153/282 162/106/282 168/108/282
f 157/104/283 167/113/283 163/109/283
f 167/113/284 156/101/284 164/112/284
f 157/104/285 172/119/285 161/154/285
f 172/155/286 155/98/286 161/100/286
f 178/128/287 165/111/287 182/156/287
f 165/157/288 176/122/288 182/124/288
f 171/120/289 181/129/289 177/125/289
f 181/129/290 170/117/290 178/128/290
f 184/133/291 175/158/291 171/120/291
f 186/159/292 169/114/292 175/116/292
f 192/144/293 179/127/293 196/160/293
f 179/161/294 190/138/294 196/140/294
f 185/136/295 195/145/295 191/141/295
f 195/145/296 184/133/296 192/144/296
f 128/67/297 189/162/297 185/136/297
f 189/132/298 127/64/298 183/130/298
f 136/79/299 193/143/299 140/163/299
f 193/164/300 134/73/300 140/75/300
f 141/82/301 169/114/301 183/130/301
f 129/70/302 150/96/302 142/85/302
f 185/136/303 136/79/303 128/67/303
f 134/73/304 176/122/304 162/106/304
f 143/88/305 164/112/305 156/101/305
f 157/104/306 178/128/306 170/117/306
f 171/120/307 192/144/307 184/133/307
f 197/165/308 201/166/308 203/167/308
f 198/168/309 201/169/309 200/170/309
f 199/171/310 201/172/310 202/173/310
f 204/174/311 208/175/311 210/176/311
f 205/177/312 208/178/312 207/179/312
f 206/180/313 208/181/313 209/182/313
f 211/183/314 215/184/314 217/185/314
f 212/186/315 215/187/315 214/188/315
f 213/189/316 215/187/316 216/190/316
f 218/191/317 222/192/317 224/193/317
f 219/194/318 222/195/318 221/196/318
f 220/197/319 222/195/319 223/198/319
f 225/199/320 229/200/320 231/201/320
f 226/202/321 229/203/321 228/204/321
f 227/205/322 229/203/322 230/206/322
f 232/207/323 236/208/323 238/209/323
f 233/210/324 236/211/324 235/212/324
f 234/213/325 236/211/325 237/214/325
f 239/215/326 243/216/326 245/217/326
f 240/218/327 243/219/327 242/220/327
f 241/221/328 243/219/328 244/222/328
f 246/223/329 250/224/329 252/225/329
f 247/226/330 250/227/330 249/228/330
f 248/229/331 250/227/331 251/230/331
f 253/231/332 257/232/332 259/233/332
f 254/234/333 257/235/333 256/236/333
f 255/237/334 257/235/334 258/238/334
f 260/239/335 264/240/335 266/241/335
f 261/242/336 264/243/336 263/244/336
f 262/245/337 264/243/337 265/246/337
f 199/171/338 214/188/338 203/247/338
f 203/167/339 211/183/339 197/165/339
f 220/197/340 207/179/340 224/248/340
f 224/193/341 204/174/341 218/191/341
f 198/168/342 209/182/342 202/249/342
f 209/250/343 199/171/343 202/173/343
f 213/189/344 223/198/344 219/194/344
f 223/198/345 212/186/345 220/197/345
f 213/189/346 228/204/346 217/251/346
f 217/185/347 225/199/347 211/183/347
f 234/213/348 221/196/348 238/252/348
f 238/209/349 218/191/349 232/207/349
f 227/205/350 237/214/350 233/210/350
f 237/214/351 226/202/351 234/213/351
f 240/218/352 231/253/352 227/205/352
f 242/254/353 225/199/353 231/201/353
f 248/229/354 235/212/354 252/255/354
f 235/256/355 246/223/355 252/225/355
f 241/221/356 251/230/356 247/226/356
f 251/230/357 240/218/357 248/229/357
f 254/234/358 245/257/358 241/221/358
f 256/258/359 239/215/359 245/217/359
f 262/245/360 249/228/360 266/259/360
f 266/241/361 246/223/361 260/239/361
f 255/237/362 265/246/362 261/242/362
f 265/246/363 254/234/363 262/245/363
f 255/237/364 200/170/364 259/260/364
f 259/233/365 197/165/365 253/231/365
f 206/180/366 263/244/366 210/261/366
f 263/262/367 204/174/367 210/176/367
f 211/183/368 239/215/368 253/231/368
f 199/171/369 220/197/369 212/186/369
f 255/237/370 206/180/370 198/168/370
f 204/174/371 246/223/371 232/207/371
f 213/189/372 234/213/372 226/202/372
f 227/205/373 248/229/373 240/218/373
f 241/221/374 262/245/374 254/234/374
f 267/263/375 271/264/375 273/265/375
f 268/266/376 271/267/376 270/268/376
f 273/269/377 272/270/377 269/271/377
f 274/272/378 278/273/378 280/274/378
f 275/275/379 278/276/379 277/277/379
f 280/278/380 279/279/380 276/280/380
f 281/281/381 285/282/381 287/283/381
f 286/284/382 284/285/382 282/286/382
f 283/287/383 285/288/383 286/284/383
f 288/289/384 292/290/384 294/291/384
f 289/292/385 292/293/385 291/294/385
f 294/295/386 293/296/386 290/297/386
f 295/298/387 299/299/387 301/300/387
f 300/301/388 298/302/388 296/303/388
f 297/304/389 299/299/389 300/301/389
f 302/305/390 306/306/390 308/307/390
f 303/308/391 306/306/391 305/309/391
f 308/307/392 307/310/392 304/311/392
f 309/312/393 313/313/393 315/314/393
f 310/315/394 313/313/394 312/316/394
f 315/314/395 314/317/395 311/318/395
f 316/319/396 320/320/396 322/321/396
f 321/322/397 319/323/397 317/324/397
f 318/325/398 320/320/398 321/322/398
f 267/263/399 284/326/399 281/281/399
f 284/285/400 269/271/400 282/286/400
f 268/266/401 280/274/401 272/327/401
f 272/270/402 276/280/402 269/271/402
f 288/289/403 279/328/403 275/275/403
f 294/295/404 276/280/404 279/279/404
f 283/287/405 293/296/405 289/292/405
f 293/296/406 282/286/406 290/297/406
f 281/281/407 312/316/407 309/312/407
f 312/316/408 283/287/408 310/315/408
f 316/319/409 291/329/409 288/289/409
f 322/321/410 289/292/410 291/294/410
f 311/318/411 321/322/411 317/324/411
f 321/322/412 310/315/412 318/325/412
f 309/312/413 298/302/413 295/298/413
f 298/302/414 311/318/414 296/303/414
f 316/319/415 308/307/415 319/323/415
f 308/307/416 317/324/416 319/323/416
f 297/304/417 307/310/417 303/308/417
f 300/301/418 304/311/418 307/310/418
f 295/298/419 270/330/419 267/263/419
f 301/300/420 268/266/420 270/268/420
f 302/305/421 277/277/421 305/309/421
f 277/331/422 303/308/422 305/309/422
f 309/312/423 267/263/423 281/281/423
f 269/271/424 290/297/424 282/286/424
f 303/308/425 268/266/425 297/304/425
f 316/319/426 275/275/426 302/305/426
f 289/292/427 310/315/427 283/287/427
f 317/324/428 296/303/428 311/318/428
f 127/64/429 130/332/429 131/65/429
f 128/67/430 132/149/430 131/68/430
f 129/70/431 133/146/431 131/71/431
f 134/73/432 137/333/432 138/74/432
f 135/76/433 139/150/433 138/77/433
f 136/79/434 140/163/434 138/80/434
f 141/82/435 144/147/435 145/83/435
f 142/85/436 146/89/436 145/86/436
f 143/88/437 147/151/437 145/86/437
f 148/90/438 151/153/438 152/91/438
f 149/93/439 153/97/439 152/94/439
f 150/96/440 154/148/440 152/94/440
f 155/98/441 158/334/441 159/99/441
f 156/101/442 160/105/442 159/102/442
f 157/104/443 161/154/443 159/102/443
f 162/106/444 165/157/444 166/107/444
f 163/109/445 167/113/445 166/110/445
f 164/112/446 168/152/446 166/110/446
f 169/114/447 172/155/447 173/115/447
f 170/117/448 174/121/448 173/118/448
f 171/120/449 175/158/449 173/118/449
f 176/122/450 179/161/450 180/123/450
f 177/125/451 181/129/451 180/126/451
f 178/128/452 182/156/452 180/126/452
f 183/130/453 186/159/453 187/131/453
f 184/133/454 188/137/454 187/134/454
f 185/136/455 189/162/455 187/134/455
f 190/138/456 193/164/456 194/139/456
f 191/141/457 195/145/457 194/142/457
f 192/144/458 196/160/458 194/142/458
f 142/85/271 144/87/271 133/146/271
f 144/147/272 141/82/272 127/64/272
f 150/96/459 135/76/459 137/78/459
f 154/92/274 137/333/274 134/73/274
f 128/67/275 136/79/275 139/81/275
f 139/150/460 135/76/460 129/70/460
f 143/88/277 146/89/277 153/97/277
f 153/97/278 146/89/278 142/85/278
f 156/101/279 158/103/279 147/151/279
f 147/84/280 158/334/280 155/98/280
f 164/112/459 149/93/459 151/95/459
f 151/153/282 148/90/282 162/106/282
f 157/104/283 160/105/283 167/113/283
f 167/113/284 160/105/284 156/101/284
f 157/104/285 170/117/285 172/119/285
f 172/155/286 169/114/286 155/98/286
f 178/128/459 163/109/459 165/111/459
f 165/157/288 162/106/288 176/122/288
f 171/120/289 174/121/289 181/129/289
f 181/129/290 174/121/290 170/117/290
f 184/133/291 186/135/291 175/158/291
f 186/159/292 183/130/292 169/114/292
f 192/144/461 177/125/461 179/127/461
f 179/161/294 176/122/294 190/138/294
f 185/136/295 188/137/295 195/145/295
f 195/145/296 188/137/296 184/133/296
f 128/67/297 130/69/297 189/162/297
f 189/132/298 130/332/298 127/64/298
f 136/79/459 191/141/459 193/143/459
f 193/164/300 190/138/300 134/73/300
f 183/130/301 127/64/301 141/82/301
f 141/82/301 155/98/301 169/114/301
f 129/70/459 135/76/459 150/96/459
f 185/136/459 191/141/459 136/79/459
f 162/106/304 148/90/304 134/73/304
f 134/73/304 190/138/304 176/122/304
f 143/88/459 149/93/459 164/112/459
f 157/104/459 163/109/459 178/128/459
f 171/120/462 177/125/462 192/144/462
f 197/165/463 200/335/463 201/166/463
f 198/168/464 202/249/464 201/169/464
f 199/171/465 203/247/465 201/172/465
f 204/174/466 207/336/466 208/175/466
f 205/177/467 209/250/467 208/178/467
f 206/180/468 210/261/468 208/181/468
f 211/183/469 214/337/469 215/184/469
f 212/186/470 216/190/470 215/187/470
f 213/189/471 217/251/471 215/187/471
f 218/191/472 221/338/472 222/192/472
f 219/194/473 223/198/473 222/195/473
f 220/197/474 224/248/474 222/195/474
f 225/199/475 228/339/475 229/200/475
f 226/202/476 230/206/476 229/203/476
f 227/205/477 231/253/477 229/203/477
f 232/207/478 235/256/478 236/208/478
f 233/210/479 237/214/479 236/211/479
f 234/213/480 238/252/480 236/211/480
f 239/215/481 242/254/481 243/216/481
f 240/218/482 244/222/482 243/219/482
f 241/221/483 245/257/483 243/219/483
f 246/223/484 249/340/484 250/224/484
f 247/226/485 251/230/485 250/227/485
f 248/229/486 252/255/486 250/227/486
f 253/231/487 256/258/487 257/232/487
f 254/234/488 258/238/488 257/235/488
f 255/237/489 259/260/489 257/235/489
f 260/239/490 263/262/490 264/240/490
f 261/242/491 265/246/491 264/243/491
f 262/245/492 266/259/492 264/243/492
f 199/171/338 212/186/338 214/188/338
f 203/167/339 214/337/339 211/183/339
f 220/197/459 205/177/459 207/179/459
f 224/193/341 207/336/341 204/174/341
f 198/168/342 206/180/342 209/182/342
f 209/250/343 205/177/343 199/171/343
f 213/189/344 216/190/344 223/198/344
f 223/198/345 216/190/345 212/186/345
f 213/189/346 226/202/346 228/204/346
f 217/185/347 228/339/347 225/199/347
f 234/213/459 219/194/459 221/196/459
f 238/209/349 221/338/349 218/191/349
f 227/205/350 230/206/350 237/214/350
f 237/214/351 230/206/351 226/202/351
f 240/218/352 242/220/352 231/253/352
f 242/254/353 239/215/353 225/199/353
f 248/229/459 233/210/459 235/212/459
f 235/256/493 232/207/493 246/223/493
f 241/221/356 244/222/356 251/230/356
f 251/230/357 244/222/357 240/218/357
f 254/234/358 256/236/358 245/257/358
f 256/258/359 253/231/359 239/215/359
f 262/245/459 247/226/459 249/228/459
f 266/241/494 249/340/494 246/223/494
f 255/237/362 258/238/362 265/246/362
f 265/246/363 258/238/363 254/234/363
f 255/237/364 198/168/364 200/170/364
f 259/233/365 200/335/365 197/165/365
f 206/180/495 261/242/495 263/244/495
f 263/262/367 260/239/367 204/174/367
f 253/231/368 197/165/368 211/183/368
f 211/183/368 225/199/368 239/215/368
f 199/171/459 205/177/459 220/197/459
f 255/237/496 261/242/496 206/180/496
f 232/207/371 218/191/371 204/174/371
f 204/174/371 260/239/371 246/223/371
f 213/189/459 219/194/459 234/213/459
f 227/205/459 233/210/459 248/229/459
f 241/221/459 247/226/459 262/245/459
f 267/263/497 270/330/497 271/264/497
f 268/266/498 272/327/498 271/267/498
f 273/269/499 271/341/499 272/270/499
f 274/272/500 277/331/500 278/273/500
f 275/275/501 279/328/501 278/276/501
f 280/278/502 278/342/502 279/279/502
f 281/281/503 284/326/503 285/282/503
f 286/284/504 285/288/504 284/285/504
f 283/287/505 287/343/505 285/288/505
f 288/289/506 291/329/506 292/290/506
f 289/292/507 293/296/507 292/293/507
f 294/295/508 292/293/508 293/296/508
f 295/298/509 298/302/509 299/299/509
f 300/301/510 299/299/510 298/302/510
f 297/304/511 301/300/511 299/299/511
f 302/305/512 305/309/512 306/306/512
f 303/308/513 307/310/513 306/306/513
f 308/307/514 306/306/514 307/310/514
f 309/312/515 312/316/515 313/313/515
f 310/315/516 314/317/516 313/313/516
f 315/314/517 313/313/517 314/317/517
f 316/319/518 319/323/518 320/320/518
f 321/322/519 320/320/519 319/323/519
f 318/325/520 322/321/520 320/320/520
f 267/263/399 273/265/399 284/326/399
f 284/285/400 273/269/400 269/271/400
f 268/266/521 274/272/521 280/274/521
f 272/270/402 280/278/402 276/280/402
f 288/289/403 294/291/403 279/328/403
f 294/295/404 290/297/404 276/280/404
f 283/287/405 286/284/405 293/296/405
f 293/296/522 286/284/522 282/286/522
f 281/281/523 287/283/523 312/316/523
f 312/316/408 287/343/408 283/287/408
f 316/319/409 322/321/409 291/329/409
f 322/321/410 318/325/410 289/292/410
f 311/318/411 314/317/411 321/322/411
f 321/322/524 314/317/524 310/315/524
f 309/312/413 315/314/413 298/302/413
f 298/302/414 315/314/414 311/318/414
f 316/319/415 302/305/415 308/307/415
f 308/307/416 304/311/416 317/324/416
f 297/304/417 300/301/417 307/310/417
f 300/301/525 296/303/525 304/311/525
f 295/298/526 301/300/526 270/330/526
f 301/300/420 297/304/420 268/266/420
f 302/305/421 275/275/421 277/277/421
f 277/331/422 274/272/422 303/308/422
f 309/312/423 295/298/423 267/263/423
f 269/271/424 276/280/424 290/297/424
f 303/308/425 274/272/425 268/266/425
f 316/319/426 288/289/426 275/275/426
f 289/292/427 318/325/427 310/315/427
f 317/324/428 304/311/428 296/303/428
