# Blender 4.5.10 LTS
# www.blender.org
mtllib hod_jib_remodel2_b.mtl
o hod_jib_remodel2_b
v 0.510139 -0.121115 -0.082808
v 0.487551 -0.099719 -0.082586
v 0.509526 -0.098914 -0.104597
v 0.445838 1.441279 -0.067866
v 0.467235 1.463866 -0.067668
v 0.467813 1.442085 -0.089877
v 0.570117 -0.119491 -0.082841
v 0.569504 -0.097290 -0.104630
v 0.591513 -0.096904 -0.082642
v 0.527213 1.465490 -0.067701
v 0.549800 1.444094 -0.067922
v 0.527791 1.443708 -0.089910
v 0.510263 -0.122601 0.073185
v 0.509685 -0.100820 0.095394
v 0.487676 -0.101206 0.073406
v 0.467359 1.462379 0.088325
v 0.445962 1.439793 0.088126
v 0.467972 1.440178 0.110114
v 0.570241 -0.120977 0.073152
v 0.591638 -0.098391 0.073350
v 0.569663 -0.099196 0.095361
v 0.527337 1.464003 0.088292
v 0.527950 1.441802 0.110081
v 0.549924 1.442607 0.088070
v 0.589910 -0.111990 -0.082955
v 0.567832 -0.090069 -0.082739
v 0.589681 -0.089925 -0.104889
v 0.562247 1.478174 -0.078076
v 0.584168 1.500253 -0.078161
v 0.584096 1.478318 -0.100226
v 0.649908 -0.111775 -0.083365
v 0.649679 -0.089710 -0.105299
v 0.671829 -0.089696 -0.083450
v 0.644167 1.500468 -0.078571
v 0.666244 1.478547 -0.078787
v 0.644094 1.478533 -0.100636
v 0.590978 -0.112450 0.073041
v 0.591051 -0.090515 0.095106
v 0.568901 -0.090529 0.073257
v 0.585237 1.499793 0.077835
v 0.563316 1.477714 0.077920
v 0.585466 1.477728 0.099769
v 0.650977 -0.112235 0.072631
v 0.672898 -0.090156 0.072546
v 0.651049 -0.090300 0.094696
v 0.645235 1.500008 0.077424
v 0.645464 1.477943 0.099358
v 0.667313 1.478087 0.077208
v 0.579260 1.000704 -0.033411
v 0.567160 1.019276 -0.055244
v 0.585445 1.031194 -0.033072
v 0.315910 1.398386 -0.051807
v 0.303704 1.416489 -0.029642
v 0.334195 1.410304 -0.029635
v 0.579102 1.000001 0.032585
v 0.585288 1.030491 0.032924
v 0.566896 1.018105 0.054750
v 0.303546 1.415787 0.036354
v 0.315646 1.397214 0.058186
v 0.334037 1.409601 0.036361
v 0.524245 0.964248 -0.033931
v 0.493753 0.970434 -0.033938
v 0.512144 0.982820 -0.055764
v 0.248688 1.380033 -0.030162
v 0.260894 1.361930 -0.052327
v 0.242503 1.349544 -0.030502
v 0.524087 0.963545 0.032065
v 0.511881 0.981649 0.054230
v 0.493595 0.969731 0.032058
v 0.248531 1.379330 0.035834
v 0.242345 1.348841 0.035494
v 0.260631 1.360758 0.057666
v 0.660599 1.005282 -0.114859
v 0.660468 1.013439 -0.123020
v 0.668695 1.013505 -0.114928
v 0.660330 1.031119 -0.123023
v 0.660334 1.039281 -0.114865
v 0.668557 1.031185 -0.114931
v 0.662449 1.005340 0.108814
v 0.670545 1.013563 0.108745
v 0.662453 1.013502 0.116972
v 0.662184 1.039339 0.108807
v 0.662315 1.031181 0.116968
v 0.670407 1.031243 0.108741
v 0.437758 1.003545 -0.113015
v 0.429535 1.011641 -0.112949
v 0.437627 1.011703 -0.121176
v 0.437493 1.037544 -0.113022
v 0.437490 1.029382 -0.121180
v 0.429398 1.029320 -0.112953
v 0.439608 1.003603 0.110657
v 0.439612 1.011765 0.118815
v 0.431385 1.011699 0.110723
v 0.439343 1.037602 0.110651
v 0.431247 1.029379 0.110720
v 0.439474 1.029444 0.118812
v 0.677900 0.109697 -0.117790
v 0.677866 0.117867 -0.125940
v 0.686008 0.117909 -0.117762
v 0.677753 0.135547 -0.125919
v 0.677683 0.143697 -0.117749
v 0.685895 0.135589 -0.117741
v 0.677412 0.109423 0.105889
v 0.685520 0.117635 0.105917
v 0.677342 0.117573 0.114059
v 0.677195 0.143423 0.105930
v 0.677229 0.135253 0.114081
v 0.685407 0.135315 0.105938
v 0.457333 0.108290 -0.118273
v 0.449121 0.116398 -0.118281
v 0.457298 0.116460 -0.126424
v 0.457116 0.142290 -0.118232
v 0.457186 0.134140 -0.126402
v 0.449008 0.134078 -0.118260
v 0.456844 0.108016 0.105406
v 0.456774 0.116166 0.113576
v 0.448632 0.116124 0.105398
v 0.456627 0.142016 0.105447
v 0.448519 0.133804 0.105419
v 0.456661 0.133846 0.113597
v -0.670056 -0.112851 -0.065512
v -0.691326 -0.090145 -0.065585
v -0.669659 -0.091235 -0.087886
v -0.641855 1.428838 -0.091801
v -0.619152 1.450101 -0.092487
v -0.620187 1.427747 -0.114102
v -0.610094 -0.114818 -0.066349
v -0.609697 -0.093202 -0.088723
v -0.587392 -0.093555 -0.067035
v -0.559191 1.448134 -0.093323
v -0.537920 1.425428 -0.093250
v -0.560225 1.425780 -0.114938
v -0.667795 -0.110233 0.090449
v -0.666760 -0.087879 0.112065
v -0.689065 -0.087527 0.090377
v -0.616891 1.452720 0.063475
v -0.639593 1.431456 0.064161
v -0.617288 1.431104 0.085849
v -0.607833 -0.112200 0.089613
v -0.585131 -0.090937 0.088927
v -0.606798 -0.089846 0.111228
v -0.556929 1.450752 0.062639
v -0.557326 1.429136 0.085013
v -0.535659 1.428046 0.062711
v -0.561356 -0.109766 -0.080031
v -0.583022 -0.087438 -0.079819
v -0.561267 -0.087795 -0.102059
v -0.559448 1.482491 -0.081947
v -0.537121 1.504158 -0.082219
v -0.537693 1.482134 -0.104188
v -0.501366 -0.110668 -0.080690
v -0.501278 -0.088696 -0.102718
v -0.479040 -0.089001 -0.080961
v -0.477131 1.503256 -0.082878
v -0.455466 1.480928 -0.083090
v -0.477704 1.481233 -0.104847
v -0.559639 -0.109580 0.075960
v -0.559067 -0.087557 0.097929
v -0.581305 -0.087252 0.076172
v -0.535405 1.504344 0.073772
v -0.557731 1.482677 0.074043
v -0.535493 1.482372 0.095800
v -0.499650 -0.110482 0.075301
v -0.477323 -0.088815 0.075029
v -0.499077 -0.088458 0.097270
v -0.475415 1.503442 0.073113
v -0.475503 1.481471 0.095141
v -0.453749 1.481114 0.072901
v -0.521820 0.964453 -0.025037
v -0.510374 0.982615 -0.047556
v -0.491404 0.970952 -0.025828
v -0.265635 1.360572 -0.058345
v -0.253173 1.379332 -0.036880
v -0.246665 1.348908 -0.036617
v -0.520296 0.965349 0.040939
v -0.489879 0.971848 0.040148
v -0.507833 0.984109 0.062404
v -0.251648 1.380228 0.029097
v -0.263094 1.362065 0.051616
v -0.245141 1.349804 0.029359
v -0.577206 1.000339 -0.024245
v -0.583713 1.030763 -0.024507
v -0.565760 1.018502 -0.046764
v -0.308558 1.415218 -0.036087
v -0.321021 1.396458 -0.057552
v -0.338974 1.408719 -0.035296
v -0.575681 1.001235 0.041732
v -0.563218 1.019995 0.063197
v -0.582188 1.031659 0.041469
v -0.307034 1.416114 0.029889
v -0.337450 1.409615 0.030680
v -0.318480 1.397951 0.052408
v -0.447135 1.010296 -0.105202
v -0.447041 1.018502 -0.113316
v -0.438949 1.018430 -0.105088
v -0.446984 1.036182 -0.113217
v -0.447026 1.044296 -0.105011
v -0.438893 1.036109 -0.104989
v -0.449007 1.009044 0.118466
v -0.440821 1.017177 0.118580
v -0.449049 1.017158 0.126672
v -0.448898 1.043043 0.118658
v -0.448993 1.034837 0.126771
v -0.440765 1.034857 0.118680
v -0.673502 1.011032 -0.107093
v -0.681636 1.019218 -0.107115
v -0.673408 1.019237 -0.115206
v -0.673393 1.045031 -0.106901
v -0.673351 1.036917 -0.115107
v -0.681579 1.036898 -0.107015
v -0.675374 1.009779 0.116576
v -0.675416 1.017893 0.124781
v -0.683507 1.017965 0.116554
v -0.675265 1.043778 0.116767
v -0.683451 1.035645 0.116653
v -0.675359 1.035573 0.124881
v -0.452354 0.096647 -0.116560
v -0.452441 0.104780 -0.124746
v -0.444254 0.104867 -0.116614
v -0.452571 0.122459 -0.124803
v -0.452604 0.130646 -0.116670
v -0.444384 0.122546 -0.116671
v -0.451604 0.097379 0.107118
v -0.443504 0.105598 0.107064
v -0.451636 0.105565 0.115251
v -0.451854 0.131378 0.107008
v -0.451766 0.123245 0.115194
v -0.443634 0.123278 0.107006
v -0.674917 0.095015 -0.115808
v -0.683137 0.103115 -0.115807
v -0.675005 0.103148 -0.123994
v -0.675167 0.129014 -0.115918
v -0.675135 0.120828 -0.124052
v -0.683267 0.120795 -0.115864
v -0.674167 0.095747 0.107870
v -0.674200 0.103934 0.116003
v -0.682387 0.103847 0.107871
v -0.674417 0.129746 0.107759
v -0.682517 0.121527 0.107813
v -0.674330 0.121613 0.115946
v 0.713629 1.458735 -0.076770
v 0.713715 1.480675 -0.098024
v 0.735160 1.480399 -0.076272
v 0.713564 1.527469 -0.097282
v 0.713341 1.548723 -0.075342
v 0.735009 1.527193 -0.075530
v 0.713252 1.457896 -0.023978
v 0.734782 1.479560 -0.023480
v 0.713028 1.479150 -0.002039
v 0.712963 1.547884 -0.022550
v 0.712878 1.525944 -0.001296
v 0.734632 1.526354 -0.022738
v -0.710170 1.454329 -0.087017
v -0.731839 1.475859 -0.086830
v -0.710085 1.476269 -0.108271
v -0.710459 1.544317 -0.085589
v -0.710235 1.523063 -0.107529
v -0.731989 1.522653 -0.086087
v -0.710548 1.453490 -0.034225
v -0.710771 1.474744 -0.012286
v -0.732216 1.475021 -0.034038
v -0.710836 1.543478 -0.032797
v -0.732366 1.521814 -0.033295
v -0.710921 1.521538 -0.011543
v 0.693858 1.440522 0.006976
v 0.693847 1.461979 -0.014766
v 0.715734 1.461838 0.006543
v 0.694453 1.508774 -0.015079
v 0.695024 1.530512 0.006374
v 0.716340 1.508633 0.006230
v 0.694569 1.440866 0.059770
v 0.716445 1.462182 0.059337
v 0.695140 1.462604 0.081223
v 0.695735 1.530856 0.059168
v 0.695746 1.509399 0.080910
v 0.717052 1.508977 0.059024
v -0.699268 1.458699 0.025625
v -0.720584 1.480579 0.025769
v -0.699278 1.480156 0.003883
v -0.698101 1.548690 0.025023
v -0.698672 1.526951 0.003570
v -0.719977 1.527374 0.025456
v -0.698556 1.459043 0.078419
v -0.697986 1.480782 0.099872
v -0.719872 1.480923 0.078563
v -0.697390 1.549034 0.077817
v -0.719266 1.527718 0.078250
v -0.697379 1.527577 0.099559
v -0.000358 1.407699 -0.020524
v -0.000182 1.407463 0.015474
v 0.031675 1.395717 -0.020760
v 0.031851 1.395481 0.015239
v 0.048512 1.365947 -0.021037
v 0.048688 1.365711 0.014962
v 0.042273 1.332319 -0.021227
v 0.042449 1.332083 0.014772
v 0.015879 1.310568 -0.021240
v 0.016055 1.310333 0.014759
v -0.018322 1.310872 -0.021071
v -0.018145 1.310636 0.014928
v -0.044325 1.333087 -0.020798
v -0.044149 1.332851 0.015201
v -0.049964 1.366820 -0.020549
v -0.049788 1.366584 0.015450
v -0.032600 1.396286 -0.020441
v -0.032424 1.396051 0.015558
v 0.006253 1.360826 0.003530
v 0.007466 1.355190 0.009285
v 0.013126 1.356454 0.003564
v 0.112986 0.880697 0.008868
v 0.114274 0.875088 0.003104
v 0.118646 0.881961 0.003148
v 0.006334 1.360855 -0.008950
v 0.013206 1.356483 -0.008916
v 0.007621 1.355246 -0.014715
v 0.114355 0.875117 -0.009376
v 0.113142 0.880753 -0.015131
v 0.118727 0.881990 -0.009332
v -0.005929 1.358117 0.003445
v -0.010301 1.351244 0.003400
v -0.004716 1.352481 0.009199
v 0.102092 0.872379 0.003019
v 0.100804 0.877988 0.008783
v 0.095219 0.876751 0.002984
v -0.005849 1.358146 -0.009035
v -0.004561 1.352536 -0.014800
v -0.010221 1.351273 -0.009079
v 0.102173 0.872408 -0.009461
v 0.095300 0.876780 -0.009496
v 0.100959 0.878044 -0.015216
v 0.010787 1.358792 0.006898
v 0.009457 1.353183 0.012653
v 0.015105 1.351885 0.006928
v -0.099721 0.879686 0.012279
v -0.100980 0.874069 0.006514
v -0.094073 0.878388 0.006554
v 0.010863 1.358784 -0.005582
v 0.015181 1.351877 -0.005552
v 0.009604 1.353168 -0.011346
v -0.100904 0.874062 -0.005965
v -0.099575 0.879671 -0.011721
v -0.093997 0.878380 -0.005926
v -0.001374 1.361596 0.006822
v -0.008281 1.357277 0.006782
v -0.002703 1.355987 0.012577
v -0.113141 0.876873 0.006439
v -0.111881 0.882490 0.012203
v -0.117459 0.883780 0.006408
v -0.001298 1.361588 -0.005658
v -0.002557 1.355972 -0.011422
v -0.008205 1.357270 -0.005697
v -0.113065 0.876866 -0.006041
v -0.117383 0.883773 -0.006072
v -0.111735 0.882475 -0.011797
v 0.127796 0.829705 -0.094049
v 0.127983 0.839263 -0.103688
v 0.137549 0.839149 -0.094055
v 0.128319 0.860060 -0.103774
v 0.128441 0.869699 -0.094214
v 0.137885 0.859946 -0.094141
v 0.127500 0.830068 -0.007250
v 0.137254 0.839512 -0.007256
v 0.127623 0.839707 0.002310
v 0.128145 0.870063 -0.007415
v 0.127958 0.860504 0.002224
v 0.137589 0.860309 -0.007342
v -0.134211 0.833925 -0.094958
v -0.143655 0.843678 -0.095031
v -0.134024 0.843484 -0.104598
v -0.133566 0.873920 -0.095124
v -0.133688 0.864281 -0.104684
v -0.143320 0.864476 -0.095117
v -0.134507 0.834289 -0.008160
v -0.134385 0.843928 0.001401
v -0.143951 0.844042 -0.008233
v -0.133862 0.874283 -0.008325
v -0.143615 0.864839 -0.008319
v -0.134049 0.864725 0.001315
v 0.126260 0.835112 0.005969
v 0.126276 0.844808 -0.003534
v 0.135964 0.844607 0.005975
v 0.126502 0.865605 -0.003326
v 0.126695 0.875108 0.006369
v 0.136190 0.865405 0.006183
v 0.127062 0.834236 0.092761
v 0.136765 0.843731 0.092767
v 0.127255 0.843738 0.102456
v 0.127496 0.874231 0.093161
v 0.127481 0.864536 0.102664
v 0.136991 0.864529 0.092975
v -0.122811 0.837795 0.008295
v -0.132306 0.847498 0.008481
v -0.122795 0.847491 -0.001208
v -0.122376 0.877791 0.008695
v -0.122569 0.868289 -0.001000
v -0.132080 0.868295 0.008689
v -0.122010 0.836919 0.095087
v -0.121817 0.846421 0.104782
v -0.131504 0.846622 0.095273
v -0.121575 0.876915 0.095487
v -0.131278 0.867419 0.095481
v -0.121591 0.867219 0.104990
v 0.008937 0.876534 0.006638
v -0.058810 0.934365 -0.039296
v 0.029984 0.934974 -0.072012
v 0.088517 0.937300 0.002309
v 0.035897 0.938127 0.080958
v -0.055156 0.936313 0.055244
v -0.021100 1.030875 -0.072014
v 0.069953 1.032688 -0.046300
v 0.073607 1.034637 0.048240
v -0.015187 1.034028 0.080956
v -0.073720 1.031702 0.006635
v 0.005860 1.092468 0.002306
v 0.021578 0.891928 -0.039211
v -0.030613 0.891570 -0.019981
v -0.018242 0.925921 -0.066210
v -0.068286 0.926708 0.008589
v -0.028465 0.892715 0.035588
v 0.055983 0.893295 0.004474
v 0.068354 0.927646 -0.041755
v 0.025054 0.893781 0.050702
v 0.071830 0.929499 0.048158
v -0.012619 0.928919 0.079272
v -0.079198 0.982776 -0.019983
v -0.077050 0.983921 0.035586
v 0.003923 0.982648 -0.085442
v -0.048269 0.982290 -0.066212
v 0.091847 0.985080 -0.026642
v 0.057442 0.983714 -0.070328
v 0.063066 0.986712 0.075156
v 0.093995 0.986226 0.028927
v -0.042646 0.985288 0.079272
v 0.010874 0.986354 0.094386
v -0.057033 1.039503 -0.039214
v 0.027416 1.040083 -0.070328
v 0.083083 1.042294 0.000355
v 0.033039 1.043081 0.075154
v -0.053557 1.041356 0.050699
v -0.010257 1.075220 -0.041758
v -0.041186 1.075706 0.004470
v 0.043262 1.076286 -0.026644
v 0.045410 1.077432 0.028925
v -0.006781 1.077073 0.048155
vn -0.5620 -0.5872 -0.5825
vn -0.5932 0.5670 -0.5715
vn 0.5923 -0.5560 -0.5831
vn 0.5611 0.5982 -0.5721
vn -0.5611 -0.5982 0.5721
vn -0.5923 0.5560 0.5832
vn 0.5932 -0.5670 0.5715
vn 0.5620 0.5872 0.5825
vn 0.0186 -0.7001 -0.7138
vn -0.7074 -0.0124 -0.7067
vn -0.0197 0.7136 -0.7003
vn 0.7063 0.0259 -0.7075
vn 0.7260 -0.6877 -0.0071
vn 0.6877 0.7260 0.0064
vn 0.7074 0.0124 0.7067
vn 0.0197 -0.7136 0.7003
vn -0.0186 0.7001 0.7138
vn -0.7063 -0.0259 0.7075
vn -0.6877 -0.7260 -0.0064
vn -0.7260 0.6877 0.0071
vn 0.0271 -0.9996 -0.0095
vn -0.0008 0.0095 -1.0000
vn -0.9996 -0.0271 0.0005
vn -0.0271 0.9996 0.0095
vn 0.9996 0.0271 -0.0005
vn 0.0008 -0.0095 1.0000
vn -0.5792 -0.5777 -0.5751
vn -0.5833 0.5770 -0.5717
vn 0.5754 -0.5736 -0.5830
vn 0.5713 0.5811 -0.5796
vn -0.5713 -0.5811 0.5796
vn -0.5754 0.5736 0.5830
vn 0.5833 -0.5770 0.5717
vn 0.5792 0.5777 0.5751
vn -0.0023 -0.7050 -0.7092
vn -0.7119 -0.0004 -0.7023
vn -0.0074 0.7092 -0.7050
vn 0.7022 0.0046 -0.7119
vn 0.7096 -0.7046 -0.0069
vn 0.7046 0.7096 -0.0027
vn 0.7119 0.0004 0.7023
vn 0.0074 -0.7092 0.7050
vn 0.0023 0.7050 0.7092
vn -0.7022 -0.0046 0.7119
vn -0.7046 -0.7096 0.0027
vn -0.7096 0.7046 0.0069
vn 0.0036 -1.0000 -0.0030
vn -0.0068 0.0029 -1.0000
vn -1.0000 -0.0036 0.0068
vn -0.0036 1.0000 0.0030
vn 1.0000 0.0036 -0.0068
vn 0.0068 -0.0029 1.0000
vn 0.8016 -0.1562 -0.5771
vn 0.1637 0.8063 -0.5684
vn 0.7988 -0.1685 0.5775
vn 0.1609 0.7940 0.5862
vn -0.1609 -0.7940 -0.5862
vn -0.7988 0.1685 -0.5775
vn -0.1637 -0.8063 0.5684
vn -0.8016 0.1562 0.5771
vn 0.9800 -0.1988 0.0002
vn 0.5911 0.3981 -0.7015
vn 0.1988 0.9800 0.0109
vn 0.5877 0.3830 0.7126
vn 0.3889 -0.5969 0.7017
vn -0.3923 0.5819 0.7124
vn -0.5911 -0.3981 0.7015
vn -0.1988 -0.9800 -0.0109
vn -0.9800 0.1988 -0.0002
vn -0.5877 -0.3831 -0.7126
vn 0.3923 -0.5819 -0.7124
vn -0.3889 0.5969 -0.7017
vn 0.5524 -0.8335 -0.0076
vn 0.8336 0.5524 0.0079
vn 0.0024 0.0107 -0.9999
vn -0.5524 0.8335 0.0076
vn -0.0024 -0.0107 0.9999
vn -0.8336 -0.5524 -0.0079
vn 0.5770 -0.5730 -0.5820
vn 0.5680 0.5817 -0.5822
vn 0.5866 -0.5727 0.5727
vn 0.5776 0.5820 0.5725
vn -0.5776 -0.5820 -0.5724
vn -0.5866 0.5727 -0.5727
vn -0.5680 -0.5817 0.5822
vn -0.5770 0.5730 0.5820
vn 0.7126 -0.7016 -0.0057
vn 0.7012 0.0053 -0.7129
vn 0.7015 0.7126 -0.0060
vn 0.7129 0.0057 0.7012
vn 0.0114 -0.7069 0.7072
vn 0.0003 0.7073 0.7069
vn -0.7012 -0.0053 0.7129
vn -0.7016 -0.7126 0.0060
vn -0.7126 0.7016 0.0057
vn -0.7129 -0.0057 -0.7012
vn -0.0003 -0.7073 -0.7069
vn -0.0114 0.7069 -0.7072
vn 0.0078 -1.0000 0.0002
vn 0.9999 0.0078 -0.0083
vn -0.0083 -0.0003 -1.0000
vn -0.0078 1.0000 -0.0002
vn 0.0083 0.0003 1.0000
vn -0.9999 -0.0078 0.0083
vn 0.5823 -0.5729 -0.5768
vn 0.5749 0.5817 -0.5754
vn 0.5798 -0.5744 0.5779
vn 0.5724 0.5803 0.5793
vn -0.5724 -0.5803 -0.5793
vn -0.5798 0.5744 -0.5779
vn -0.5749 -0.5817 0.5754
vn -0.5823 0.5729 0.5768
vn 0.7116 -0.7026 0.0007
vn 0.7086 0.0054 -0.7056
vn 0.7026 0.7116 0.0024
vn 0.7055 0.0036 0.7087
vn 0.0030 -0.7080 0.7062
vn -0.0061 0.7062 0.7080
vn -0.7086 -0.0054 0.7056
vn -0.7026 -0.7116 -0.0024
vn -0.7116 0.7026 -0.0007
vn -0.7055 -0.0036 -0.7087
vn 0.0061 -0.7062 -0.7080
vn -0.0030 0.7080 -0.7062
vn 0.0064 -1.0000 -0.0012
vn 1.0000 0.0064 0.0022
vn 0.0022 0.0012 -1.0000
vn -0.0064 1.0000 0.0012
vn -0.0022 -0.0012 1.0000
vn -1.0000 -0.0064 -0.0022
vn -0.6041 -0.5677 -0.5592
vn -0.5666 0.5862 -0.5791
vn 0.5498 -0.6056 -0.5753
vn 0.5874 0.5483 -0.5952
vn -0.5874 -0.5483 0.5952
vn -0.5498 0.6056 0.5753
vn 0.5666 -0.5862 0.5791
vn 0.6041 0.5677 0.5592
vn -0.0333 -0.7185 -0.6947
vn -0.7169 0.0113 -0.6971
vn 0.0128 0.6948 -0.7191
vn 0.6964 -0.0351 -0.7168
vn 0.6836 -0.7298 0.0023
vn 0.7297 0.6834 -0.0221
vn 0.7169 -0.0113 0.6971
vn -0.0128 -0.6948 0.7191
vn 0.0333 0.7185 0.6947
vn -0.6964 0.0351 0.7168
vn -0.7297 -0.6834 0.0221
vn -0.6836 0.7298 -0.0023
vn -0.0325 -0.9993 0.0172
vn -0.0145 -0.0168 -0.9998
vn -0.9994 0.0328 0.0139
vn 0.0326 0.9993 -0.0172
vn 0.9994 -0.0328 -0.0139
vn 0.0145 0.0168 0.9998
vn -0.5923 -0.5693 -0.5702
vn -0.5749 0.5853 -0.5718
vn 0.5622 -0.5866 -0.5829
vn 0.5796 0.5679 -0.5844
vn -0.5796 -0.5679 0.5844
vn -0.5622 0.5866 0.5829
vn 0.5749 -0.5853 0.5718
vn 0.5923 0.5693 0.5702
vn -0.0184 -0.7079 -0.7061
vn -0.7148 0.0098 -0.6993
vn 0.0028 0.7062 -0.7080
vn 0.6992 -0.0115 -0.7148
vn 0.6964 -0.7177 -0.0068
vn 0.7176 0.6964 -0.0087
vn 0.7148 -0.0098 0.6993
vn -0.0028 -0.7062 0.7080
vn 0.0184 0.7079 0.7061
vn -0.6992 0.0115 0.7148
vn -0.7176 -0.6964 0.0087
vn -0.6964 0.7177 0.0068
vn -0.0150 -0.9999 0.0014
vn -0.0110 -0.0012 -0.9999
vn -0.9998 0.0150 0.0110
vn 0.0150 0.9999 -0.0014
vn 0.9998 -0.0150 -0.0110
vn 0.0110 0.0012 0.9999
vn 0.1574 -0.8062 -0.5702
vn 0.7849 0.1627 -0.5979
vn 0.1841 -0.7906 0.5840
vn 0.8116 0.1784 0.5564
vn -0.8116 -0.1784 -0.5564
vn -0.1841 0.7906 -0.5840
vn -0.7849 -0.1627 0.5979
vn -0.1574 0.8062 0.5703
vn 0.2092 -0.9778 0.0084
vn 0.5770 -0.3941 -0.7153
vn 0.9776 0.2089 -0.0254
vn 0.6097 -0.3749 0.6984
vn -0.3679 -0.5838 0.7238
vn 0.4006 0.6030 0.6899
vn -0.5770 0.3941 0.7153
vn -0.9776 -0.2089 0.0254
vn -0.2092 0.9778 -0.0084
vn -0.6097 0.3749 -0.6984
vn -0.4006 -0.6030 -0.6899
vn 0.3679 0.5838 -0.7238
vn -0.5434 -0.8391 0.0240
vn 0.8392 -0.5437 -0.0120
vn -0.0231 -0.0136 -0.9996
vn 0.5434 0.8392 -0.0240
vn 0.0231 0.0136 0.9996
vn -0.8392 0.5437 0.0120
vn 0.5803 -0.5760 -0.5758
vn 0.5840 0.5787 -0.5692
vn 0.5707 -0.5824 0.5789
vn 0.5743 0.5722 0.5854
vn -0.5743 -0.5722 -0.5854
vn -0.5706 0.5825 -0.5789
vn -0.5840 -0.5787 0.5693
vn -0.5803 0.5760 0.5758
vn 0.7048 -0.7094 0.0019
vn 0.7130 0.0017 -0.7012
vn 0.7093 0.7048 0.0099
vn 0.7012 -0.0063 0.7130
vn -0.0082 -0.7110 0.7031
vn -0.0037 0.7031 0.7111
vn -0.7130 -0.0017 0.7012
vn -0.7093 -0.7048 -0.0099
vn -0.7048 0.7094 -0.0019
vn -0.7012 0.0063 -0.7130
vn 0.0037 -0.7031 -0.7111
vn 0.0082 0.7111 -0.7031
vn -0.0032 -1.0000 -0.0056
vn 1.0000 -0.0032 0.0084
vn 0.0084 0.0056 -0.9999
vn 0.0032 1.0000 0.0056
vn -0.0084 -0.0056 0.9999
vn -1.0000 0.0032 -0.0083
vn 0.5796 -0.5750 -0.5774
vn 0.5712 0.5797 -0.5812
vn 0.5835 -0.5712 0.5773
vn 0.5750 0.5835 0.5735
vn -0.5750 -0.5835 -0.5735
vn -0.5835 0.5712 -0.5773
vn -0.5712 -0.5797 0.5812
vn -0.5796 0.5750 0.5774
vn 0.7123 -0.7019 -0.0001
vn 0.7047 0.0029 -0.7095
vn 0.7019 0.7123 -0.0047
vn 0.7095 0.0075 0.7047
vn 0.0076 -0.7048 0.7094
vn -0.0028 0.7094 0.7048
vn -0.7047 -0.0029 0.7095
vn -0.7019 -0.7123 0.0047
vn -0.7123 0.7019 0.0001
vn -0.7095 -0.0075 -0.7047
vn 0.0028 -0.7094 -0.7048
vn -0.0076 0.7048 -0.7094
vn 0.0073 -1.0000 0.0032
vn 1.0000 0.0073 -0.0034
vn -0.0034 -0.0033 -1.0000
vn -0.0073 1.0000 -0.0032
vn 0.0034 0.0033 1.0000
vn -1.0000 -0.0073 0.0034
vn 0.5833 -0.5663 -0.5823
vn 0.5796 0.5882 -0.5639
vn 0.5751 -0.5847 0.5723
vn 0.5714 0.5699 0.5906
vn -0.5714 -0.5699 -0.5906
vn -0.5751 0.5847 -0.5723
vn -0.5796 -0.5882 0.5640
vn -0.5833 0.5663 0.5823
vn 0.7093 -0.7048 -0.0061
vn 0.7121 0.0134 -0.7019
vn 0.7048 0.7092 0.0163
vn 0.7020 -0.0090 0.7121
vn -0.0028 -0.7182 0.6958
vn -0.0073 0.6958 0.7182
vn -0.7121 -0.0134 0.7019
vn -0.7048 -0.7092 -0.0163
vn -0.7094 0.7048 0.0061
vn -0.7020 0.0090 -0.7121
vn 0.0073 -0.6958 -0.7182
vn 0.0028 0.7182 -0.6958
vn 0.0032 -0.9999 -0.0159
vn 1.0000 0.0031 0.0072
vn 0.0071 0.0159 -0.9998
vn -0.0032 0.9999 0.0159
vn -0.0071 -0.0159 0.9998
vn -1.0000 -0.0031 -0.0072
vn 0.5620 -0.5886 -0.5812
vn 0.5770 0.5660 -0.5889
vn 0.5776 -0.5811 0.5734
vn 0.5925 0.5735 0.5657
vn -0.5925 -0.5735 -0.5657
vn -0.5775 0.5811 -0.5734
vn -0.5770 -0.5660 0.5889
vn -0.5620 0.5886 0.5811
vn 0.6978 -0.7163 -0.0047
vn 0.6975 -0.0138 -0.7165
vn 0.7161 0.6978 -0.0142
vn 0.7165 -0.0046 0.6976
vn 0.0004 -0.7024 0.7118
vn 0.0187 0.7116 0.7023
vn -0.6975 0.0138 0.7165
vn -0.7161 -0.6978 0.0142
vn -0.6978 0.7163 0.0047
vn -0.7165 0.0046 -0.6976
vn -0.0187 -0.7116 -0.7023
vn -0.0004 0.7024 -0.7118
vn -0.0130 -0.9999 0.0067
vn 0.9998 -0.0130 -0.0134
vn -0.0135 -0.0065 -0.9999
vn 0.0130 0.9999 -0.0067
vn 0.0135 0.0065 0.9999
vn -0.9998 0.0130 0.0134
vn 0.3504 0.9366 0.0044
vn 0.8704 0.4923 -0.0010
vn 0.9832 -0.1824 -0.0060
vn 0.6359 -0.7717 -0.0082
vn -0.0089 -0.9999 -0.0065
vn -0.6496 -0.7603 -0.0018
vn -0.9863 -0.1649 0.0037
vn 0.0049 -0.0066 1.0000
vn -0.8615 0.5077 0.0075
vn -0.3336 0.9427 0.0078
vn -0.0049 0.0066 -1.0000
vn 0.4345 0.6876 0.5818
vn 0.6852 -0.4396 0.5808
vn 0.4420 0.6902 -0.5729
vn 0.6926 -0.4369 -0.5739
vn -0.6926 0.4369 0.5739
vn -0.4420 -0.6902 0.5729
vn -0.6852 0.4396 -0.5808
vn -0.4345 -0.6876 -0.5818
vn 0.5368 0.8437 0.0054
vn 0.6857 0.1519 0.7119
vn 0.8437 -0.5368 0.0042
vn 0.6948 0.1551 -0.7023
vn -0.1489 0.6919 -0.7065
vn 0.1581 -0.6886 -0.7077
vn -0.6857 -0.1519 -0.7119
vn -0.8437 0.5367 -0.0042
vn -0.5367 -0.8437 -0.0054
vn -0.6948 -0.1551 0.7023
vn -0.1581 0.6886 0.7077
vn 0.1489 -0.6919 0.7065
vn -0.2171 0.9761 0.0009
vn 0.9761 0.2171 0.0068
vn -0.0065 -0.0023 1.0000
vn 0.2171 -0.9762 -0.0009
vn 0.0065 0.0023 -1.0000
vn -0.9761 -0.2171 -0.0068
vn 0.6888 0.4332 0.5813
vn 0.4293 -0.6920 0.5804
vn 0.6958 0.4325 -0.5734
vn 0.4364 -0.6927 -0.5743
vn -0.4364 0.6927 0.5743
vn -0.6958 -0.4325 0.5734
vn -0.4293 0.6920 -0.5804
vn -0.6888 -0.4332 -0.5813
vn 0.8479 0.5301 0.0048
vn 0.6847 -0.1584 0.7114
vn 0.5301 -0.8479 0.0037
vn 0.6933 -0.1593 -0.7028
vn 0.1632 0.6886 -0.7066
vn -0.1546 -0.6895 -0.7076
vn -0.6847 0.1584 -0.7114
vn -0.5302 0.8479 -0.0037
vn -0.8479 -0.5302 -0.0048
vn -0.6933 0.1593 0.7028
vn 0.1546 0.6895 0.7076
vn -0.1632 -0.6886 0.7065
vn 0.2247 0.9744 0.0008
vn 0.9744 -0.2247 0.0061
vn -0.0061 0.0006 1.0000
vn -0.2247 -0.9744 -0.0008
vn 0.0061 -0.0006 -1.0000
vn -0.9744 0.2247 -0.0061
vn 0.5699 -0.5890 -0.5730
vn 0.5886 0.5656 -0.5777
vn 0.5660 -0.5842 0.5817
vn 0.5846 0.5704 0.5770
vn -0.5846 -0.5704 -0.5770
vn -0.5660 0.5842 -0.5817
vn -0.5885 -0.5656 0.5777
vn -0.5699 0.5890 0.5730
vn 0.6956 -0.7184 0.0054
vn 0.7094 -0.0144 -0.7046
vn 0.7184 0.6956 -0.0005
vn 0.7046 -0.0084 0.7096
vn -0.0138 -0.7040 0.7100
vn 0.0090 0.7100 0.7042
vn -0.7094 0.0144 0.7046
vn -0.7184 -0.6956 0.0005
vn -0.6956 0.7184 -0.0054
vn -0.7046 0.0084 -0.7096
vn -0.0090 -0.7100 -0.7042
vn 0.0138 0.7040 -0.7100
vn -0.0161 -0.9999 0.0041
vn 0.9999 -0.0161 0.0035
vn 0.0034 -0.0042 -1.0000
vn 0.0161 0.9999 -0.0041
vn -0.0034 0.0042 1.0000
vn -0.9999 0.0161 -0.0035
vn 0.5657 -0.5777 -0.5885
vn 0.5782 0.5769 -0.5769
vn 0.5763 -0.5893 0.5661
vn 0.5889 0.5652 0.5777
vn -0.5889 -0.5652 -0.5777
vn -0.5763 0.5893 -0.5661
vn -0.5782 -0.5769 0.5769
vn -0.5657 0.5777 0.5885
vn 0.6994 -0.7146 -0.0137
vn 0.7005 -0.0005 -0.7136
vn 0.7147 0.6994 0.0005
vn 0.7136 -0.0148 0.7004
vn -0.0012 -0.7142 0.7000
vn 0.0142 0.6999 0.7141
vn -0.7005 0.0005 0.7136
vn -0.7147 -0.6994 -0.0005
vn -0.6994 0.7146 0.0137
vn -0.7136 0.0148 -0.7004
vn -0.0142 -0.6999 -0.7141
vn 0.0012 0.7142 -0.7000
vn -0.0109 -0.9999 -0.0100
vn 0.9999 -0.0108 -0.0093
vn -0.0092 0.0101 -0.9999
vn 0.0109 0.9999 0.0100
vn 0.0092 -0.0101 0.9999
vn -0.9999 0.0108 0.0093
vn -0.1210 -0.9305 -0.3458
vn -0.7544 -0.6083 -0.2466
vn 0.3182 -0.9217 -0.2218
vn 0.3358 -0.9123 0.2343
vn -0.0925 -0.9153 0.3921
vn -0.9262 -0.2979 -0.2309
vn -0.0582 -0.3000 -0.9521
vn 0.8958 -0.2744 -0.3498
vn 0.6173 -0.2564 0.7437
vn -0.5087 -0.2710 0.8172
vn -0.8249 -0.1278 -0.5506
vn 0.2720 -0.1203 -0.9547
vn 0.9951 -0.0915 -0.0366
vn 0.3451 -0.0813 0.9350
vn -0.7798 -0.1037 0.6174
vn -0.4735 0.5725 -0.6694
vn 0.4733 0.5862 -0.6575
vn 0.7544 0.6083 0.2466
vn -0.0187 0.6083 0.7935
vn -0.7776 0.5861 0.2274
vn -0.3182 0.9217 0.2218
vn -0.5414 0.7377 0.4033
vn -0.4214 0.6003 0.6798
vn 0.1210 0.9305 0.3458
vn 0.2230 0.7530 0.6191
vn 0.5217 0.6120 0.5944
vn 0.3748 0.9265 -0.0336
vn 0.6647 0.7460 -0.0411
vn 0.7322 0.5965 -0.3289
vn 0.0925 0.9153 -0.3921
vn 0.1733 0.7265 -0.6650
vn -0.0809 0.5752 -0.8140
vn -0.3358 0.9123 -0.2343
vn -0.5721 0.7214 -0.3903
vn -0.7938 0.5775 -0.1907
vn -0.8958 0.2744 0.3498
vn -0.7781 0.1583 0.6078
vn -0.5585 0.2878 0.7780
vn 0.0582 0.3000 0.9521
vn 0.3390 0.1806 0.9233
vn 0.5698 0.3036 0.7636
vn 0.9262 0.2979 0.2309
vn 0.9845 0.1704 -0.0416
vn 0.9052 0.2867 -0.3138
vn 0.5087 0.2710 -0.8172
vn 0.2664 0.1419 -0.9534
vn -0.0159 0.2605 -0.9653
vn -0.6173 0.2564 -0.7437
vn -0.8229 0.1344 -0.5520
vn -0.9205 0.2612 -0.2906
vn -0.2720 0.1203 0.9547
vn -0.2664 -0.1419 0.9534
vn 0.0159 -0.2605 0.9653
vn 0.8249 0.1278 0.5506
vn 0.8229 -0.1344 0.5520
vn 0.9205 -0.2612 0.2906
vn 0.7798 0.1037 -0.6174
vn 0.7781 -0.1583 -0.6078
vn 0.5585 -0.2878 -0.7780
vn -0.3451 0.0813 -0.9350
vn -0.3390 -0.1806 -0.9233
vn -0.5698 -0.3036 -0.7636
vn -0.9951 0.0915 0.0366
vn -0.9845 -0.1704 0.0416
vn -0.9052 -0.2867 0.3138
vn -0.4733 -0.5862 0.6575
vn -0.1733 -0.7265 0.6650
vn 0.0809 -0.5752 0.8140
vn 0.4735 -0.5725 0.6694
vn 0.5721 -0.7214 0.3903
vn 0.7938 -0.5775 0.1907
vn 0.7776 -0.5861 -0.2274
vn 0.5414 -0.7377 -0.4033
vn 0.4214 -0.6003 -0.6798
vn -0.7322 -0.5965 0.3289
vn -0.6647 -0.7460 0.0411
vn -0.3748 -0.9265 0.0336
vn 0.0187 -0.6083 -0.7935
vn -0.2230 -0.7530 -0.6191
vn -0.5217 -0.6120 -0.5944
vn -0.5877 -0.3830 -0.7126
vn 0.7016 0.7126 -0.0060
vn -0.7015 -0.7126 0.0060
vn 0.7056 0.0036 0.7086
vn 0.0325 0.9993 -0.0172
vn 0.5434 0.8391 -0.0240
vn -0.0082 -0.7111 0.7031
vn -0.0037 0.7031 0.7110
vn -1.0000 0.0033 -0.0084
vn -0.7094 -0.0075 -0.7047
vn 0.7094 -0.7048 -0.0061
vn -0.7093 0.7048 0.0061
vn -0.7162 -0.6978 0.0142
vn -0.8437 0.5368 -0.0042
vn -0.2171 0.9762 0.0009
vn 0.8479 0.5302 0.0048
vn 0.1632 0.6886 -0.7065
vn 0.7046 -0.0084 0.7095
vn -0.7046 0.0084 -0.7095
vt 0.152500 0.697115
vt 0.152500 0.750000
vt 0.125000 0.697115
vt 0.621531 0.000000
vt 0.625000 0.052885
vt 0.621531 0.052885
vt 0.152500 0.552885
vt 0.125000 0.552885
vt 0.152500 0.500000
vt 0.625000 0.251763
vt 0.621531 0.277461
vt 0.621531 0.197115
vt 0.347500 0.697115
vt 0.378458 0.697115
vt 0.377913 0.777006
vt 0.643712 0.722804
vt 0.621531 0.777500
vt 0.621531 0.697271
vt 0.347500 0.552885
vt 0.377913 0.472994
vt 0.378458 0.552885
vt 0.643712 0.527196
vt 0.621531 0.552729
vt 0.621531 0.472500
vt 0.378469 0.052885
vt 0.378469 0.000000
vt 0.378469 0.277500
vt 0.621531 0.972500
vt 0.378469 0.197115
vt 0.378469 0.972500
vt 0.847500 0.552885
vt 0.152500 0.697115
vt 0.621589 0.000000
vt 0.621589 0.052885
vt 0.152500 0.552885
vt 0.125000 0.552885
vt 0.625000 0.251763
vt 0.621589 0.277461
vt 0.621589 0.197115
vt 0.347500 0.697115
vt 0.378402 0.697115
vt 0.377866 0.777015
vt 0.643712 0.722804
vt 0.621589 0.777500
vt 0.621589 0.697268
vt 0.347500 0.552885
vt 0.377866 0.472985
vt 0.378401 0.552885
vt 0.643712 0.527196
vt 0.621589 0.552732
vt 0.621589 0.472500
vt 0.378411 0.052885
vt 0.378411 0.000000
vt 0.378411 0.277500
vt 0.621589 0.972500
vt 0.378411 0.197115
vt 0.378411 0.972500
vt 0.175000 0.700000
vt 0.175000 0.750000
vt 0.125000 0.700000
vt 0.613974 0.000000
vt 0.625000 0.050000
vt 0.613974 0.050000
vt 0.175000 0.550000
vt 0.125000 0.550000
vt 0.175000 0.500000
vt 0.625000 0.245369
vt 0.613974 0.299551
vt 0.613974 0.200000
vt 0.325000 0.700000
vt 0.385927 0.700000
vt 0.382791 0.797349
vt 0.661081 0.727838
vt 0.613974 0.800000
vt 0.613974 0.700449
vt 0.325000 0.550000
vt 0.382791 0.452651
vt 0.385927 0.550000
vt 0.661081 0.522162
vt 0.613974 0.549551
vt 0.613974 0.450000
vt 0.386026 0.000000
vt 0.386026 0.050000
vt 0.386026 0.300000
vt 0.625000 0.950000
vt 0.386026 0.200000
vt 0.386026 0.950000
vt 0.825000 0.700000
vt 0.133529 0.741500
vt 0.133529 0.750000
vt 0.125000 0.741500
vt 0.565000 0.991471
vt 0.625000 0.991471
vt 0.565000 1.000000
vt 0.133529 0.508500
vt 0.125000 0.508500
vt 0.133529 0.500000
vt 0.625000 0.250093
vt 0.565000 0.258529
vt 0.565000 0.241572
vt 0.366471 0.741500
vt 0.434491 0.741500
vt 0.408398 0.755218
vt 0.633122 0.742313
vt 0.565000 0.758529
vt 0.565000 0.741572
vt 0.366471 0.508500
vt 0.408398 0.494782
vt 0.434491 0.508500
vt 0.633122 0.507705
vt 0.565000 0.508500
vt 0.565000 0.491543
vt 0.435000 0.000000
vt 0.565000 0.008500
vt 0.435000 0.008500
vt 0.625000 0.008500
vt 0.435000 0.241500
vt 0.435000 0.991471
vt 0.866471 0.508500
vt 0.435000 0.258529
vt 0.133612 0.741500
vt 0.133611 0.750000
vt 0.565000 0.991389
vt 0.625000 0.991388
vt 0.133612 0.508500
vt 0.133612 0.500000
vt 0.625000 0.250092
vt 0.565000 0.258612
vt 0.565000 0.241572
vt 0.366388 0.741500
vt 0.434491 0.741500
vt 0.408370 0.755269
vt 0.633200 0.742317
vt 0.565000 0.758612
vt 0.565000 0.741572
vt 0.366388 0.508500
vt 0.408370 0.494731
vt 0.434491 0.508500
vt 0.633200 0.507701
vt 0.565000 0.491463
vt 0.435000 0.258612
vt 0.435000 0.991389
vt 0.866388 0.741500
vt 0.125000 0.697115
vt 0.621483 0.000000
vt 0.621483 0.052885
vt 0.152500 0.552885
vt 0.621483 0.277460
vt 0.621483 0.197115
vt 0.378506 0.697115
vt 0.377952 0.777000
vt 0.621483 0.777500
vt 0.621484 0.697273
vt 0.347500 0.552885
vt 0.377952 0.473001
vt 0.378506 0.552885
vt 0.621484 0.552727
vt 0.621483 0.472500
vt 0.378517 0.052885
vt 0.378517 0.000000
vt 0.378517 0.197115
vt 0.625000 0.972500
vt 0.378517 0.972500
vt 0.847500 0.697115
vt 0.378517 0.277500
vt 0.152500 0.697115
vt 0.621593 0.000000
vt 0.621593 0.052885
vt 0.621593 0.277461
vt 0.621593 0.197115
vt 0.378398 0.697115
vt 0.377863 0.777015
vt 0.621593 0.777500
vt 0.621593 0.697268
vt 0.377863 0.472985
vt 0.378398 0.552885
vt 0.643712 0.527196
vt 0.621593 0.552732
vt 0.621593 0.472500
vt 0.378407 0.000000
vt 0.378407 0.052885
vt 0.378407 0.277500
vt 0.378407 0.197115
vt 0.378407 0.972500
vt 0.613876 0.000000
vt 0.613875 0.050000
vt 0.613875 0.299547
vt 0.613876 0.200000
vt 0.386024 0.700000
vt 0.382854 0.797325
vt 0.613876 0.800000
vt 0.613876 0.700453
vt 0.382854 0.452675
vt 0.386024 0.550000
vt 0.613876 0.549547
vt 0.613876 0.450000
vt 0.386124 0.000000
vt 0.386124 0.050000
vt 0.386124 0.300000
vt 0.613876 0.950000
vt 0.386124 0.200000
vt 0.386124 0.950000
vt 0.133406 0.741500
vt 0.133406 0.750000
vt 0.125000 0.741500
vt 0.565000 0.991594
vt 0.625000 0.991594
vt 0.133406 0.508500
vt 0.133406 0.500000
vt 0.625000 0.250096
vt 0.565000 0.258406
vt 0.565000 0.241572
vt 0.366594 0.741500
vt 0.434491 0.741500
vt 0.408439 0.755142
vt 0.633004 0.742308
vt 0.565000 0.758406
vt 0.366594 0.508500
vt 0.408439 0.494858
vt 0.434491 0.508500
vt 0.633004 0.507710
vt 0.565000 0.508500
vt 0.565000 0.491665
vt 0.565000 0.008500
vt 0.435000 0.008500
vt 0.435000 0.241500
vt 0.435000 0.991594
vt 0.866594 0.741500
vt 0.435000 0.258406
vt 0.133539 0.741500
vt 0.133539 0.750000
vt 0.565000 0.991461
vt 0.625000 0.991461
vt 0.133539 0.508500
vt 0.133539 0.500000
vt 0.625000 0.250093
vt 0.565000 0.258539
vt 0.565000 0.241572
vt 0.366461 0.741500
vt 0.434491 0.741500
vt 0.408394 0.755225
vt 0.633132 0.742314
vt 0.565000 0.758539
vt 0.565000 0.741572
vt 0.366461 0.508500
vt 0.408394 0.494775
vt 0.633132 0.507704
vt 0.565000 0.491533
vt 0.565000 0.008500
vt 0.435000 0.258539
vt 0.435000 0.991460
vt 0.866461 0.508500
vt 0.128681 0.693750
vt 0.128681 0.750000
vt 0.125000 0.693750
vt 0.565000 0.000000
vt 0.625000 0.056250
vt 0.565000 0.056250
vt 0.128681 0.556250
vt 0.125000 0.556250
vt 0.128681 0.500000
vt 0.625000 0.251025
vt 0.565000 0.253668
vt 0.565000 0.193750
vt 0.371319 0.693750
vt 0.430903 0.693750
vt 0.410032 0.752238
vt 0.627342 0.715549
vt 0.565000 0.753681
vt 0.565000 0.697591
vt 0.371319 0.556250
vt 0.410032 0.497762
vt 0.430903 0.556250
vt 0.627342 0.534452
vt 0.565000 0.552409
vt 0.565000 0.496319
vt 0.435000 0.056250
vt 0.435000 0.193750
vt 0.565000 0.996319
vt 0.435000 0.996319
vt 0.871319 0.556250
vt 0.435000 0.253681
vt 0.128759 0.693750
vt 0.128759 0.750000
vt 0.125000 0.693750
vt 0.565000 0.000000
vt 0.625000 0.056250
vt 0.565000 0.056250
vt 0.128759 0.556250
vt 0.125000 0.556250
vt 0.128759 0.500000
vt 0.625000 0.251044
vt 0.565000 0.253745
vt 0.565000 0.193750
vt 0.371241 0.693750
vt 0.430903 0.693750
vt 0.410006 0.752285
vt 0.627392 0.715573
vt 0.565000 0.753759
vt 0.565000 0.697591
vt 0.371241 0.556250
vt 0.410006 0.497715
vt 0.430903 0.556250
vt 0.627392 0.534427
vt 0.565000 0.552409
vt 0.565000 0.496241
vt 0.435000 0.056250
vt 0.435000 0.253759
vt 0.625000 0.996241
vt 0.435000 0.996241
vt 0.871241 0.693750
vt 1.000000 0.500000
vt 0.888889 1.000000
vt 0.888889 0.500000
vt 0.777778 1.000000
vt 0.777778 0.500000
vt 0.666667 0.500000
vt 0.666667 1.000000
vt 0.555556 0.500000
vt 0.555556 1.000000
vt 0.444444 0.500000
vt 0.333333 1.000000
vt 0.333333 0.500000
vt 0.222222 1.000000
vt 0.222222 0.500000
vt 0.250000 0.490000
vt 0.167915 0.024474
vt 0.457846 0.130000
vt 0.111111 1.000000
vt 0.111111 0.500000
vt 0.000000 1.000000
vt 0.000000 0.500000
vt 0.904269 0.433851
vt 0.667915 0.024474
vt 0.513646 0.291676
vt 0.185000 0.690000
vt 0.185000 0.750000
vt 0.125000 0.690000
vt 0.622106 0.940000
vt 0.625000 0.940000
vt 0.622106 1.000000
vt 0.185000 0.560000
vt 0.125000 0.560000
vt 0.185000 0.500000
vt 0.625000 0.257429
vt 0.622106 0.310000
vt 0.622106 0.190170
vt 0.315000 0.690000
vt 0.377886 0.690000
vt 0.377086 0.809230
vt 0.664826 0.730348
vt 0.622106 0.810000
vt 0.622106 0.690170
vt 0.315000 0.560000
vt 0.377086 0.440770
vt 0.377886 0.560000
vt 0.664826 0.528543
vt 0.622106 0.560000
vt 0.622106 0.440170
vt 0.622106 0.000000
vt 0.377894 0.060000
vt 0.377894 0.000000
vt 0.625000 0.060000
vt 0.622106 0.060000
vt 0.377894 0.190000
vt 0.377894 0.940000
vt 0.815000 0.690000
vt 0.377894 0.310000
vt 0.185000 0.690000
vt 0.185000 0.750000
vt 0.125000 0.690000
vt 0.622105 0.940000
vt 0.625000 0.940000
vt 0.622105 1.000000
vt 0.185000 0.560000
vt 0.125000 0.560000
vt 0.185000 0.500000
vt 0.625000 0.257429
vt 0.622105 0.310000
vt 0.622105 0.190170
vt 0.315000 0.690000
vt 0.377887 0.690000
vt 0.377087 0.809229
vt 0.664826 0.730348
vt 0.622105 0.810000
vt 0.622105 0.690170
vt 0.315000 0.560000
vt 0.377087 0.440771
vt 0.377887 0.560000
vt 0.664826 0.528543
vt 0.622105 0.560000
vt 0.622105 0.440170
vt 0.377895 0.000000
vt 0.622105 0.060000
vt 0.377895 0.060000
vt 0.377895 0.190000
vt 0.377895 0.940000
vt 0.815000 0.560000
vt 0.377895 0.310000
vt 0.133534 0.727359
vt 0.133534 0.750000
vt 0.125000 0.727359
vt 0.565000 0.991466
vt 0.625000 0.991466
vt 0.133534 0.522642
vt 0.125000 0.522642
vt 0.133534 0.500000
vt 0.625000 0.250905
vt 0.565000 0.258534
vt 0.565000 0.227899
vt 0.366466 0.727359
vt 0.433569 0.727359
vt 0.408396 0.755221
vt 0.632407 0.731473
vt 0.565000 0.758534
vt 0.565000 0.727899
vt 0.366466 0.522642
vt 0.408396 0.494779
vt 0.433569 0.522642
vt 0.632407 0.518617
vt 0.565000 0.522642
vt 0.565000 0.491539
vt 0.565000 0.022642
vt 0.435000 0.022642
vt 0.625000 0.022642
vt 0.435000 0.258534
vt 0.435000 0.227359
vt 0.435000 0.991466
vt 0.866466 0.522642
vt 0.133945 0.727358
vt 0.133945 0.750000
vt 0.565000 0.991055
vt 0.625000 0.991055
vt 0.133945 0.522641
vt 0.133945 0.500000
vt 0.625000 0.250923
vt 0.565000 0.258945
vt 0.565000 0.227899
vt 0.366055 0.727358
vt 0.433569 0.727359
vt 0.408260 0.755476
vt 0.632766 0.731522
vt 0.565000 0.758945
vt 0.366055 0.522642
vt 0.408260 0.494524
vt 0.632766 0.518574
vt 0.565000 0.491135
vt 0.565000 0.000000
vt 0.435000 0.022642
vt 0.565000 0.022642
vt 0.435000 0.227359
vt 0.435000 0.991055
vt 0.866055 0.522641
vt 0.435000 0.258945
vt 0.181819 0.000000
vt 0.227273 0.078731
vt 0.136365 0.078731
vt 0.272728 0.157461
vt 0.318182 0.078731
vt 0.363637 0.157461
vt 0.909091 0.000000
vt 0.954545 0.078731
vt 0.863636 0.078731
vt 0.727273 0.000000
vt 0.772727 0.078731
vt 0.681818 0.078731
vt 0.545455 0.000000
vt 0.590909 0.078731
vt 0.500000 0.078731
vt 0.318182 0.236191
vt 0.090910 0.157461
vt 0.181819 0.157461
vt 0.136365 0.236191
vt 0.818182 0.157461
vt 0.909091 0.157461
vt 0.863636 0.236191
vt 0.636364 0.157461
vt 0.727273 0.157461
vt 0.681818 0.236191
vt 0.454546 0.157461
vt 0.545455 0.157461
vt 0.500000 0.236191
vt 0.227273 0.236191
vt 0.045455 0.236191
vt 0.772727 0.236191
vt 0.590909 0.236191
vt 0.409092 0.236191
vt 0.181819 0.314921
vt 0.272728 0.314921
vt 0.227273 0.393651
vt 0.000000 0.314921
vt 0.090910 0.314921
vt 0.045455 0.393651
vt 0.727273 0.314921
vt 0.818182 0.314921
vt 0.772727 0.393651
vt 0.545455 0.314921
vt 0.636364 0.314921
vt 0.590909 0.393651
vt 0.363637 0.314921
vt 0.454546 0.314921
vt 0.409092 0.393651
vt 0.500000 0.393651
vt 0.454546 0.472382
vt 0.681818 0.393651
vt 0.636364 0.472382
vt 0.863636 0.393651
vt 0.818182 0.472382
vt 0.909091 0.314921
vt 0.136365 0.393651
vt 0.090910 0.472382
vt 0.318182 0.393651
vt 0.272728 0.472382
vt 0.954545 0.236191
vt 1.000000 0.157461
vt 0.409092 0.078731
vt 0.363637 0.000000
vt 0.613974 0.950000
vt 0.825000 0.550000
vt 0.866471 0.741500
vt 0.866389 0.508500
vt 0.621483 0.972500
vt 0.621593 0.972500
vt 0.866594 0.508500
vt 0.866461 0.741500
vt 0.625000 0.996319
vt 0.871319 0.693750
vt 0.565000 0.996241
vt 0.871241 0.556250
vt 1.000000 1.000000
vt 0.444444 1.000000
vt 0.486354 0.291676
vt 0.404269 0.433851
vt 0.095731 0.433851
vt 0.013646 0.291676
vt 0.042154 0.130000
vt 0.332085 0.024474
vt 0.595731 0.433851
vt 0.750000 0.490000
vt 0.986354 0.291676
vt 0.957846 0.130000
vt 0.832085 0.024474
vt 0.542154 0.130000
vt 0.622105 0.000000
vt 0.866466 0.727359
vt 0.866055 0.727358
s 0
usemtl wood
f 1/1/1 2/2/1 3/3/1
f 4/4/2 5/5/2 6/6/2
f 7/7/3 8/8/3 9/9/3
f 10/10/4 11/11/4 12/12/4
f 13/13/5 14/14/5 15/15/5
f 16/16/6 17/17/6 18/18/6
f 19/19/7 20/20/7 21/21/7
f 22/22/8 23/23/8 24/24/8
f 7/7/9 3/3/9 8/8/9
f 4/4/10 3/25/10 2/26/10
f 10/10/11 6/6/11 5/5/11
f 9/27/12 12/12/12 11/11/12
f 7/7/13 20/20/13 19/19/13
f 22/22/14 11/11/14 10/10/14
f 21/21/15 24/24/15 23/23/15
f 19/19/16 14/14/16 13/13/16
f 22/22/17 18/18/17 23/23/17
f 15/15/18 18/18/18 17/17/18
f 13/13/19 2/2/19 1/1/19
f 16/16/20 4/28/20 17/17/20
f 19/19/21 1/1/21 7/7/21
f 6/6/22 8/29/22 3/25/22
f 17/17/23 2/30/23 15/15/23
f 10/31/24 16/16/24 22/22/24
f 11/11/25 20/20/25 9/27/25
f 23/23/26 14/14/26 21/21/26
f 25/32/27 26/2/27 27/3/27
f 28/33/28 29/5/28 30/34/28
f 31/35/29 32/36/29 33/9/29
f 34/37/30 35/38/30 36/39/30
f 37/40/31 38/41/31 39/42/31
f 40/43/32 41/44/32 42/45/32
f 43/46/33 44/47/33 45/48/33
f 46/49/34 47/50/34 48/51/34
f 25/32/35 32/36/35 31/35/35
f 28/33/36 27/52/36 26/53/36
f 34/37/37 30/34/37 29/5/37
f 33/54/38 36/39/38 35/38/38
f 43/46/39 33/9/39 44/47/39
f 46/49/40 35/38/40 34/37/40
f 45/48/41 48/51/41 47/50/41
f 37/40/42 45/48/42 38/41/42
f 40/43/43 47/50/43 46/49/43
f 41/44/44 38/41/44 42/45/44
f 37/40/45 26/2/45 25/32/45
f 40/43/46 28/55/46 41/44/46
f 31/35/47 37/40/47 25/32/47
f 27/52/48 36/39/48 32/56/48
f 41/44/49 26/57/49 39/42/49
f 34/31/50 40/43/50 46/49/50
f 33/54/51 48/51/51 44/47/51
f 47/50/52 38/41/52 45/48/52
f 49/58/53 50/59/53 51/60/53
f 52/61/54 53/62/54 54/63/54
f 55/64/55 56/65/55 57/66/55
f 58/67/56 59/68/56 60/69/56
f 61/70/57 62/71/57 63/72/57
f 64/73/58 65/74/58 66/75/58
f 67/76/59 68/77/59 69/78/59
f 70/79/60 71/80/60 72/81/60
f 55/64/61 51/60/61 56/65/61
f 50/82/62 54/63/62 51/83/62
f 58/67/63 54/63/63 53/62/63
f 57/84/64 60/69/64 59/68/64
f 55/64/65 68/77/65 67/76/65
f 70/79/66 59/68/66 58/67/66
f 69/78/67 72/81/67 71/80/67
f 61/70/68 69/78/68 62/71/68
f 70/79/69 66/75/69 71/80/69
f 63/72/70 66/75/70 65/74/70
f 49/58/71 63/72/71 50/59/71
f 53/85/72 65/74/72 64/73/72
f 67/76/73 49/58/73 55/64/73
f 51/83/74 60/69/74 56/86/74
f 65/74/75 50/87/75 63/72/75
f 70/79/76 53/88/76 64/73/76
f 57/84/77 72/81/77 68/77/77
f 69/78/78 66/75/78 62/71/78
f 121/32/131 122/2/131 123/144/131
f 124/145/132 125/5/132 126/146/132
f 127/147/133 128/8/133 129/9/133
f 130/10/134 131/148/134 132/149/134
f 133/13/135 134/150/135 135/151/135
f 136/43/136 137/152/136 138/153/136
f 139/154/137 140/155/137 141/156/137
f 142/22/138 143/157/138 144/158/138
f 127/147/139 123/144/139 128/8/139
f 124/145/140 123/159/140 122/160/140
f 125/5/141 132/149/141 126/146/141
f 131/148/142 128/161/142 132/149/142
f 127/147/143 140/155/143 139/154/143
f 142/22/144 131/148/144 130/10/144
f 141/156/145 144/158/145 143/157/145
f 139/154/146 134/150/146 133/13/146
f 142/22/147 138/153/147 143/157/147
f 135/151/148 138/153/148 137/152/148
f 121/32/149 135/151/149 122/2/149
f 125/162/150 137/152/150 136/43/150
f 127/147/151 133/13/151 121/32/151
f 123/159/152 132/149/152 128/161/152
f 137/152/153 122/163/153 135/151/153
f 142/22/154 125/164/154 136/43/154
f 131/148/155 140/155/155 129/165/155
f 143/157/156 134/150/156 141/156/156
f 145/166/157 146/2/157 147/3/157
f 148/167/158 149/5/158 150/168/158
f 151/35/159 152/8/159 153/9/159
f 154/10/160 155/169/160 156/170/160
f 157/13/161 158/171/161 159/172/161
f 160/16/162 161/173/162 162/174/162
f 163/19/163 164/175/163 165/176/163
f 166/177/164 167/178/164 168/179/164
f 145/166/165 152/8/165 151/35/165
f 146/180/166 150/168/166 147/181/166
f 154/10/167 150/168/167 149/5/167
f 153/182/168 156/170/168 155/169/168
f 151/35/169 164/175/169 163/19/169
f 166/177/170 155/169/170 154/10/170
f 165/176/171 168/179/171 167/178/171
f 157/13/172 165/176/172 158/171/172
f 166/177/173 162/174/173 167/178/173
f 159/172/174 162/174/174 161/173/174
f 157/13/175 146/2/175 145/166/175
f 149/162/176 161/173/176 160/16/176
f 163/19/177 145/166/177 151/35/177
f 147/181/178 156/170/178 152/183/178
f 161/173/179 146/184/179 159/172/179
f 154/31/180 160/16/180 166/177/180
f 155/169/181 164/175/181 153/182/181
f 165/176/182 162/174/182 158/171/182
f 169/58/183 170/59/183 171/60/183
f 172/185/184 173/62/184 174/186/184
f 175/64/185 176/65/185 177/66/185
f 178/67/186 179/187/186 180/188/186
f 181/70/187 182/189/187 183/190/187
f 184/73/188 185/191/188 186/192/188
f 187/76/189 188/193/189 189/194/189
f 190/79/190 191/195/190 192/196/190
f 169/58/191 176/65/191 175/64/191
f 170/197/192 174/186/192 171/198/192
f 178/67/193 174/186/193 173/62/193
f 177/199/194 180/188/194 179/187/194
f 187/76/195 177/66/195 188/193/195
f 190/79/196 179/187/196 178/67/196
f 189/194/197 192/196/197 191/195/197
f 187/76/198 182/189/198 181/70/198
f 184/73/199 191/195/199 190/79/199
f 183/190/200 186/192/200 185/191/200
f 181/70/201 170/59/201 169/58/201
f 184/73/202 172/200/202 185/191/202
f 187/76/203 169/58/203 175/64/203
f 171/198/204 180/188/204 176/201/204
f 185/191/205 170/202/205 183/190/205
f 190/79/206 173/88/206 184/73/206
f 179/187/207 188/193/207 177/199/207
f 189/194/208 186/192/208 182/189/208
f 241/253/261 242/254/261 243/255/261
f 244/256/262 245/257/262 246/258/262
f 247/259/263 248/260/263 249/261/263
f 250/262/264 251/263/264 252/264/264
f 253/265/265 254/266/265 255/267/265
f 256/268/266 257/269/266 258/270/266
f 259/271/267 260/272/267 261/273/267
f 262/274/268 263/275/268 264/276/268
f 241/253/269 248/260/269 247/259/269
f 242/113/270 246/258/270 243/277/270
f 250/262/271 246/258/271 245/257/271
f 251/263/272 248/278/272 252/264/272
f 247/259/273 260/272/273 259/271/273
f 262/274/274 251/263/274 250/262/274
f 263/275/275 260/272/275 264/276/275
f 259/271/276 254/266/276 253/265/276
f 256/268/277 263/275/277 262/274/277
f 257/269/278 254/266/278 258/270/278
f 253/265/279 242/254/279 241/253/279
f 256/268/280 244/279/280 257/269/280
f 247/259/281 253/265/281 241/253/281
f 246/258/282 248/278/282 243/277/282
f 255/267/283 244/279/283 242/280/283
f 250/281/284 256/268/284 262/274/284
f 251/263/285 260/272/285 249/282/285
f 261/273/286 258/270/286 254/266/286
f 265/283/287 266/284/287 267/285/287
f 268/286/288 269/287/288 270/288/288
f 271/289/289 272/290/289 273/291/289
f 274/292/290 275/293/290 276/294/290
f 277/295/291 278/296/291 279/297/291
f 280/298/292 281/299/292 282/300/292
f 283/301/293 284/302/293 285/303/293
f 286/304/294 287/305/294 288/306/294
f 265/283/295 272/290/295 271/289/295
f 268/286/296 267/307/296 266/113/296
f 269/287/297 276/294/297 270/288/297
f 273/308/298 276/294/298 275/293/298
f 271/289/299 284/302/299 283/301/299
f 286/304/300 275/293/300 274/292/300
f 287/305/301 284/302/301 288/306/301
f 277/295/302 285/303/302 278/296/302
f 280/298/303 287/305/303 286/304/303
f 279/297/304 282/300/304 281/299/304
f 265/283/305 279/297/305 266/284/305
f 269/309/306 281/299/306 280/298/306
f 283/301/307 265/283/307 271/289/307
f 267/307/308 276/294/308 272/278/308
f 281/299/309 266/310/309 279/297/309
f 286/304/310 269/311/310 280/298/310
f 275/293/311 284/302/311 273/308/311
f 287/305/312 278/296/312 285/303/312
f 355/400/376 356/401/376 357/402/376
f 358/403/377 359/404/377 360/94/377
f 361/405/378 362/406/378 363/407/378
f 364/408/379 365/409/379 366/410/379
f 367/411/380 368/412/380 369/413/380
f 370/414/381 371/415/381 372/416/381
f 373/417/382 374/418/382 375/419/382
f 376/420/383 377/421/383 378/422/383
f 355/400/384 362/406/384 361/405/384
f 356/113/385 360/423/385 357/424/385
f 359/425/386 366/410/386 360/423/386
f 363/426/387 366/410/387 365/409/387
f 373/417/388 363/407/388 374/418/388
f 376/420/389 365/409/389 364/408/389
f 377/421/390 374/418/390 378/422/390
f 373/417/391 368/412/391 367/411/391
f 370/414/392 377/421/392 376/420/392
f 371/415/393 368/412/393 372/416/393
f 367/411/394 356/401/394 355/400/394
f 359/404/395 371/415/395 370/414/395
f 373/417/396 355/400/396 361/405/396
f 360/423/397 362/427/397 357/424/397
f 371/415/398 356/428/398 369/413/398
f 364/429/399 370/414/399 376/420/399
f 365/409/400 374/418/400 363/426/400
f 377/421/401 368/412/401 375/419/401
f 379/430/402 380/431/402 381/402/402
f 382/432/403 383/433/403 384/94/403
f 385/434/404 386/406/404 387/435/404
f 388/436/405 389/437/405 390/438/405
f 391/439/406 392/440/406 393/441/406
f 394/442/407 395/443/407 396/416/407
f 397/444/408 398/445/408 399/419/408
f 400/446/409 401/421/409 402/447/409
f 379/430/410 386/406/410 385/434/410
f 382/448/411 381/449/411 380/113/411
f 388/436/412 384/450/412 383/425/412
f 389/437/413 386/451/413 390/438/413
f 397/444/414 387/435/414 398/445/414
f 400/446/415 389/437/415 388/436/415
f 401/421/416 398/445/416 402/447/416
f 391/439/417 399/419/417 392/440/417
f 400/446/418 396/416/418 401/421/418
f 395/443/419 392/440/419 396/416/419
f 391/439/420 380/431/420 379/430/420
f 383/433/421 395/443/421 394/442/421
f 385/434/422 391/439/422 379/430/422
f 384/450/423 386/451/423 381/449/423
f 395/443/424 380/452/424 393/441/424
f 388/453/425 394/442/425 400/446/425
f 389/437/426 398/445/426 387/454/426
f 401/421/427 392/440/427 399/419/427
f 7/7/9 1/1/9 3/3/9
f 4/4/10 6/6/10 3/25/10
f 10/10/11 12/12/11 6/6/11
f 9/27/12 8/29/12 12/12/12
f 7/7/13 9/9/13 20/20/13
f 22/22/14 24/24/14 11/11/14
f 21/21/15 20/20/15 24/24/15
f 19/19/16 21/21/16 14/14/16
f 22/22/17 16/16/17 18/18/17
f 15/15/18 14/14/18 18/18/18
f 13/13/19 15/15/19 2/2/19
f 16/16/20 5/162/20 4/28/20
f 19/19/21 13/13/21 1/1/21
f 6/6/22 12/12/22 8/29/22
f 17/17/23 4/28/23 2/30/23
f 10/31/24 5/164/24 16/16/24
f 11/11/25 24/24/25 20/20/25
f 23/23/26 18/18/26 14/14/26
f 25/32/35 27/3/35 32/36/35
f 28/33/36 30/34/36 27/52/36
f 34/37/37 36/39/37 30/34/37
f 33/54/38 32/56/38 36/39/38
f 43/46/39 31/35/39 33/9/39
f 46/49/40 48/51/40 35/38/40
f 45/48/41 44/47/41 48/51/41
f 37/40/42 43/46/42 45/48/42
f 40/43/43 42/45/43 47/50/43
f 41/44/44 39/42/44 38/41/44
f 37/40/45 39/42/45 26/2/45
f 40/43/46 29/162/46 28/55/46
f 31/35/47 43/46/47 37/40/47
f 27/52/48 30/34/48 36/39/48
f 41/44/49 28/55/49 26/57/49
f 34/31/50 29/164/50 40/43/50
f 33/54/51 35/38/51 48/51/51
f 47/50/52 42/45/52 38/41/52
f 55/64/61 49/58/61 51/60/61
f 50/82/62 52/61/62 54/63/62
f 58/67/63 60/69/63 54/63/63
f 57/84/64 56/86/64 60/69/64
f 55/64/65 57/66/65 68/77/65
f 70/79/66 72/81/66 59/68/66
f 69/78/67 68/77/67 72/81/67
f 61/70/68 67/76/68 69/78/68
f 70/79/69 64/73/69 66/75/69
f 63/72/508 62/71/508 66/75/508
f 49/58/71 61/70/71 63/72/71
f 53/85/72 52/518/72 65/74/72
f 67/76/73 61/70/73 49/58/73
f 51/83/74 54/63/74 60/69/74
f 65/74/75 52/518/75 50/87/75
f 70/79/76 58/519/76 53/88/76
f 57/84/77 59/68/77 72/81/77
f 69/78/78 71/80/78 66/75/78
f 127/147/139 121/32/139 123/144/139
f 124/145/140 126/146/140 123/159/140
f 125/5/141 130/10/141 132/149/141
f 131/148/142 129/165/142 128/161/142
f 127/147/143 129/9/143 140/155/143
f 142/22/144 144/158/144 131/148/144
f 141/156/145 140/155/145 144/158/145
f 139/154/146 141/156/146 134/150/146
f 142/22/147 136/43/147 138/153/147
f 135/151/148 134/150/148 138/153/148
f 121/32/149 133/13/149 135/151/149
f 125/162/150 124/522/150 137/152/150
f 127/147/151 139/154/151 133/13/151
f 123/159/152 126/146/152 132/149/152
f 137/152/153 124/522/153 122/163/153
f 142/22/512 130/31/512 125/164/512
f 131/148/155 144/158/155 140/155/155
f 143/157/156 138/153/156 134/150/156
f 145/166/165 147/3/165 152/8/165
f 146/180/166 148/167/166 150/168/166
f 154/10/167 156/170/167 150/168/167
f 153/182/168 152/183/168 156/170/168
f 151/35/169 153/9/169 164/175/169
f 166/177/170 168/179/170 155/169/170
f 165/176/171 164/175/171 168/179/171
f 157/13/172 163/19/172 165/176/172
f 166/177/173 160/16/173 162/174/173
f 159/172/174 158/171/174 162/174/174
f 157/13/175 159/172/175 146/2/175
f 149/162/176 148/523/176 161/173/176
f 163/19/177 157/13/177 145/166/177
f 147/181/178 150/168/178 156/170/178
f 161/173/179 148/523/179 146/184/179
f 154/31/180 149/164/180 160/16/180
f 155/169/181 168/179/181 164/175/181
f 165/176/182 167/178/182 162/174/182
f 169/58/191 171/60/191 176/65/191
f 170/197/192 172/185/192 174/186/192
f 178/67/193 180/188/193 174/186/193
f 177/199/194 176/201/194 180/188/194
f 187/76/195 175/64/195 177/66/195
f 190/79/196 192/196/196 179/187/196
f 189/194/197 188/193/197 192/196/197
f 187/76/198 189/194/198 182/189/198
f 184/73/199 186/192/199 191/195/199
f 183/190/200 182/189/200 186/192/200
f 181/70/201 183/190/201 170/59/201
f 184/73/202 173/85/202 172/200/202
f 187/76/203 181/70/203 169/58/203
f 171/198/204 174/186/204 180/188/204
f 185/191/205 172/200/205 170/202/205
f 190/79/513 178/519/513 173/88/513
f 179/187/207 192/196/207 188/193/207
f 189/194/208 191/195/208 186/192/208
f 241/253/518 243/255/518 248/260/518
f 242/113/270 244/256/270 246/258/270
f 250/262/271 252/264/271 246/258/271
f 251/263/272 249/282/272 248/278/272
f 247/259/273 249/261/273 260/272/273
f 262/274/274 264/276/274 251/263/274
f 263/275/275 261/273/275 260/272/275
f 259/271/276 261/273/276 254/266/276
f 256/268/519 258/270/519 263/275/519
f 257/269/278 255/267/278 254/266/278
f 253/265/279 255/267/279 242/254/279
f 256/268/280 245/526/280 244/279/280
f 247/259/281 259/271/281 253/265/281
f 246/258/282 252/264/282 248/278/282
f 255/267/283 257/269/283 244/279/283
f 250/281/284 245/527/284 256/268/284
f 251/263/285 264/276/285 260/272/285
f 261/273/286 263/275/286 258/270/286
f 265/283/295 267/285/295 272/290/295
f 268/286/296 270/288/296 267/307/296
f 269/287/297 274/292/297 276/294/297
f 273/308/298 272/278/298 276/294/298
f 271/289/299 273/291/299 284/302/299
f 286/304/300 288/306/300 275/293/300
f 287/305/301 285/303/301 284/302/301
f 277/295/520 283/301/520 285/303/520
f 280/298/303 282/300/303 287/305/303
f 279/297/304 278/296/304 282/300/304
f 265/283/305 277/295/305 279/297/305
f 269/309/306 268/528/306 281/299/306
f 283/301/307 277/295/307 265/283/307
f 267/307/308 270/288/308 276/294/308
f 281/299/309 268/528/309 266/310/309
f 286/304/310 274/529/310 269/311/310
f 275/293/311 288/306/311 284/302/311
f 287/305/312 282/300/312 278/296/312
f 355/400/384 357/402/384 362/406/384
f 356/113/385 358/448/385 360/423/385
f 359/425/386 364/408/386 366/410/386
f 363/426/525 362/427/525 366/410/525
f 373/417/388 361/405/388 363/407/388
f 376/420/389 378/422/389 365/409/389
f 377/421/390 375/419/390 374/418/390
f 373/417/391 375/419/391 368/412/391
f 370/414/392 372/416/392 377/421/392
f 371/415/526 369/413/526 368/412/526
f 367/411/394 369/413/394 356/401/394
f 359/404/395 358/403/395 371/415/395
f 373/417/396 367/411/396 355/400/396
f 360/423/397 366/410/397 362/427/397
f 371/415/398 358/403/398 356/428/398
f 364/429/399 359/545/399 370/414/399
f 365/409/400 378/422/400 374/418/400
f 377/421/401 372/416/401 368/412/401
f 379/430/410 381/402/410 386/406/410
f 382/448/411 384/450/411 381/449/411
f 388/436/412 390/438/412 384/450/412
f 389/437/413 387/454/413 386/451/413
f 397/444/414 385/434/414 387/435/414
f 400/446/415 402/447/415 389/437/415
f 401/421/416 399/419/416 398/445/416
f 391/439/417 397/444/417 399/419/417
f 400/446/418 394/442/418 396/416/418
f 395/443/419 393/441/419 392/440/419
f 391/439/420 393/441/420 380/431/420
f 383/433/421 382/432/421 395/443/421
f 385/434/422 397/444/422 391/439/422
f 384/450/423 390/438/423 386/451/423
f 395/443/424 382/432/424 380/452/424
f 388/453/425 383/546/425 394/442/425
f 389/437/426 402/447/426 398/445/426
f 401/421/427 396/416/427 392/440/427
usemtl rope
f 73/89/79 74/90/79 75/91/79
f 76/92/80 77/93/80 78/94/80
f 79/95/81 80/96/81 81/97/81
f 82/98/82 83/99/82 84/100/82
f 85/101/83 86/102/83 87/103/83
f 88/104/84 89/105/84 90/106/84
f 91/107/85 92/108/85 93/109/85
f 94/110/86 95/111/86 96/112/86
f 73/89/87 80/96/87 79/95/87
f 74/113/88 78/114/88 75/115/88
f 82/98/89 78/114/89 77/116/89
f 83/99/90 80/117/90 84/100/90
f 79/95/91 92/108/91 91/107/91
f 94/110/92 83/99/92 82/98/92
f 93/109/93 96/112/93 95/111/93
f 85/101/94 93/109/94 86/102/94
f 88/104/95 95/111/95 94/110/95
f 87/103/96 90/106/96 89/105/96
f 85/101/97 74/90/97 73/89/97
f 88/104/98 76/92/98 89/105/98
f 79/95/99 85/101/99 73/89/99
f 78/114/100 80/117/100 75/115/100
f 89/105/101 74/118/101 87/103/101
f 82/119/102 88/104/102 94/110/102
f 83/99/103 92/108/103 81/120/103
f 95/111/104 86/102/104 93/109/104
f 97/121/105 98/122/105 99/91/105
f 100/123/106 101/124/106 102/94/106
f 103/125/107 104/96/107 105/126/107
f 106/127/108 107/128/108 108/129/108
f 109/130/109 110/131/109 111/132/109
f 112/133/110 113/134/110 114/135/110
f 115/136/111 116/137/111 117/138/111
f 118/139/112 119/111/112 120/140/112
f 103/125/113 99/91/113 104/96/113
f 98/113/114 102/114/114 99/115/114
f 101/116/115 108/129/115 102/114/115
f 105/141/116 108/129/116 107/128/116
f 115/136/117 105/126/117 116/137/117
f 118/139/118 107/128/118 106/127/118
f 117/138/119 120/140/119 119/111/119
f 115/136/120 110/131/120 109/130/120
f 112/133/121 119/111/121 118/139/121
f 113/134/122 110/131/122 114/135/122
f 109/130/123 98/122/123 97/121/123
f 101/124/124 113/134/124 112/133/124
f 115/136/125 97/121/125 103/125/125
f 102/114/126 104/117/126 99/115/126
f 113/134/127 98/142/127 111/132/127
f 118/139/128 101/143/128 112/133/128
f 107/128/129 116/137/129 105/141/129
f 119/111/130 110/131/130 117/138/130
f 193/203/209 194/204/209 195/205/209
f 196/206/210 197/207/210 198/94/210
f 199/208/211 200/96/211 201/209/211
f 202/210/212 203/211/212 204/212/212
f 205/213/213 206/214/213 207/215/213
f 208/216/214 209/217/214 210/135/214
f 211/218/215 212/219/215 213/220/215
f 214/221/216 215/222/216 216/223/216
f 193/203/217 200/96/217 199/208/217
f 194/113/218 198/224/218 195/225/218
f 202/210/219 198/224/219 197/116/219
f 203/211/220 200/226/220 204/212/220
f 199/208/221 212/219/221 211/218/221
f 202/210/222 216/223/222 203/211/222
f 213/220/223 216/223/223 215/222/223
f 211/218/224 206/214/224 205/213/224
f 208/216/225 215/222/225 214/221/225
f 207/215/226 210/135/226 209/217/226
f 205/213/227 194/204/227 193/203/227
f 197/207/228 209/217/228 208/216/228
f 211/218/229 193/203/229 199/208/229
f 198/224/230 200/226/230 195/225/230
f 209/217/231 194/227/231 207/215/231
f 214/221/232 197/228/232 208/216/232
f 203/211/233 212/219/233 201/229/233
f 215/222/234 206/214/234 213/220/234
f 217/230/235 218/231/235 219/205/235
f 220/232/236 221/233/236 222/94/236
f 223/234/237 224/96/237 225/235/237
f 226/236/238 227/237/238 228/238/238
f 229/239/239 230/240/239 231/241/239
f 232/242/240 233/243/240 234/244/240
f 235/245/241 236/246/241 237/220/241
f 238/247/242 239/222/242 240/248/242
f 223/234/243 219/205/243 224/96/243
f 218/113/244 222/249/244 219/225/244
f 226/236/245 222/249/245 221/116/245
f 225/250/246 228/238/246 227/237/246
f 223/234/247 236/246/247 235/245/247
f 238/247/248 227/237/248 226/236/248
f 239/222/249 236/246/249 240/248/249
f 235/245/250 230/240/250 229/239/250
f 238/247/251 234/244/251 239/222/251
f 231/241/252 234/244/252 233/243/252
f 217/230/253 231/241/253 218/231/253
f 232/242/254 220/232/254 233/243/254
f 223/234/255 229/239/255 217/230/255
f 219/225/256 228/238/256 224/226/256
f 231/241/257 220/232/257 218/251/257
f 226/252/258 232/242/258 238/247/258
f 227/237/259 236/246/259 225/250/259
f 239/222/260 230/240/260 237/220/260
f 289/312/313 292/313/313 291/314/313
f 291/314/314 294/315/314 293/316/314
f 294/315/315 295/317/315 293/316/315
f 296/318/316 297/319/316 295/317/316
f 298/320/317 299/321/317 297/319/317
f 299/321/318 302/322/318 301/323/318
f 301/323/319 304/324/319 303/325/319
f 290/326/320 300/327/320 296/328/320
f 303/325/321 306/329/321 305/330/321
f 305/330/322 290/331/322 289/332/322
f 291/333/323 299/334/323 303/335/323
f 307/336/324 308/337/324 309/338/324
f 310/339/325 311/340/325 312/341/325
f 313/342/326 314/343/326 315/344/326
f 316/345/327 317/346/327 318/347/327
f 319/348/328 320/349/328 321/350/328
f 322/351/329 323/352/329 324/353/329
f 325/354/330 326/355/330 327/356/330
f 328/357/331 329/358/331 330/359/331
f 313/342/332 309/338/332 314/343/332
f 310/360/333 309/361/333 308/362/333
f 311/363/334 318/347/334 312/364/334
f 317/346/335 314/365/335 318/347/335
f 325/354/336 315/344/336 326/355/336
f 328/357/337 317/346/337 316/345/337
f 329/358/338 326/355/338 330/359/338
f 319/348/339 327/356/339 320/349/339
f 322/351/340 329/358/340 328/357/340
f 323/352/341 320/349/341 324/353/341
f 307/336/342 321/350/342 308/337/342
f 311/340/343 323/352/343 322/351/343
f 325/354/344 307/336/344 313/342/344
f 312/364/345 314/365/345 309/361/345
f 323/352/346 308/366/346 321/350/346
f 328/357/347 311/367/347 322/351/347
f 317/346/348 326/355/348 315/368/348
f 327/356/349 324/353/349 320/349/349
f 331/369/350 332/370/350 333/371/350
f 334/372/351 335/373/351 336/374/351
f 337/375/352 338/376/352 339/377/352
f 340/378/353 341/379/353 342/380/353
f 343/381/354 344/382/354 345/383/354
f 346/384/355 347/385/355 348/386/355
f 349/387/356 350/388/356 351/389/356
f 352/390/357 353/391/357 354/392/357
f 331/369/358 338/376/358 337/375/358
f 332/393/359 336/394/359 333/395/359
f 335/363/360 342/380/360 336/394/360
f 341/379/361 338/396/361 342/380/361
f 337/375/362 350/388/362 349/387/362
f 340/378/363 354/392/363 341/379/363
f 351/389/364 354/392/364 353/391/364
f 349/387/365 344/382/365 343/381/365
f 352/390/366 348/386/366 353/391/366
f 345/383/367 348/386/367 347/385/367
f 343/381/368 332/370/368 331/369/368
f 346/384/369 334/372/369 347/385/369
f 337/375/370 343/381/370 331/369/370
f 336/394/371 338/396/371 333/395/371
f 345/383/372 334/372/372 332/397/372
f 340/398/373 346/384/373 352/390/373
f 341/379/374 350/388/374 339/399/374
f 351/389/375 348/386/375 344/382/375
f 73/89/87 75/91/87 80/96/87
f 74/113/88 76/448/88 78/114/88
f 82/98/509 84/100/509 78/114/509
f 83/99/90 81/120/90 80/117/90
f 79/95/91 81/97/91 92/108/91
f 94/110/92 96/112/92 83/99/92
f 93/109/93 92/108/93 96/112/93
f 85/101/510 91/107/510 93/109/510
f 88/104/95 90/106/95 95/111/95
f 87/103/96 86/102/96 90/106/96
f 85/101/97 87/103/97 74/90/97
f 88/104/98 77/93/98 76/92/98
f 79/95/99 91/107/99 85/101/99
f 78/114/100 84/100/100 80/117/100
f 89/105/101 76/92/101 74/118/101
f 82/119/102 77/520/102 88/104/102
f 83/99/103 96/112/103 92/108/103
f 95/111/104 90/106/104 86/102/104
f 103/125/113 97/121/113 99/91/113
f 98/113/114 100/448/114 102/114/114
f 101/116/115 106/127/115 108/129/115
f 105/141/511 104/117/511 108/129/511
f 115/136/117 103/125/117 105/126/117
f 118/139/118 120/140/118 107/128/118
f 117/138/119 116/137/119 120/140/119
f 115/136/120 117/138/120 110/131/120
f 112/133/121 114/135/121 119/111/121
f 113/134/122 111/132/122 110/131/122
f 109/130/123 111/132/123 98/122/123
f 101/124/124 100/123/124 113/134/124
f 115/136/125 109/130/125 97/121/125
f 102/114/126 108/129/126 104/117/126
f 113/134/127 100/123/127 98/142/127
f 118/139/128 106/521/128 101/143/128
f 107/128/129 120/140/129 116/137/129
f 119/111/130 114/135/130 110/131/130
f 193/203/217 195/205/217 200/96/217
f 194/113/218 196/448/218 198/224/218
f 202/210/219 204/212/219 198/224/219
f 203/211/220 201/229/220 200/226/220
f 199/208/514 201/209/514 212/219/514
f 202/210/515 214/221/515 216/223/515
f 213/220/223 212/219/223 216/223/223
f 211/218/224 213/220/224 206/214/224
f 208/216/225 210/135/225 215/222/225
f 207/215/226 206/214/226 210/135/226
f 205/213/227 207/215/227 194/204/227
f 197/207/228 196/206/228 209/217/228
f 211/218/229 205/213/229 193/203/229
f 198/224/230 204/212/230 200/226/230
f 209/217/231 196/206/231 194/227/231
f 214/221/232 202/524/232 197/228/232
f 203/211/233 216/223/233 212/219/233
f 215/222/516 210/135/516 206/214/516
f 223/234/243 217/230/243 219/205/243
f 218/113/244 220/448/244 222/249/244
f 226/236/245 228/238/245 222/249/245
f 225/250/246 224/226/246 228/238/246
f 223/234/247 225/235/247 236/246/247
f 238/247/248 240/248/248 227/237/248
f 239/222/249 237/220/249 236/246/249
f 235/245/250 237/220/250 230/240/250
f 238/247/251 232/242/251 234/244/251
f 231/241/517 230/240/517 234/244/517
f 217/230/253 229/239/253 231/241/253
f 232/242/254 221/233/254 220/232/254
f 223/234/255 235/245/255 229/239/255
f 219/225/256 222/249/256 228/238/256
f 231/241/257 233/243/257 220/232/257
f 226/252/258 221/525/258 232/242/258
f 227/237/259 240/248/259 236/246/259
f 239/222/260 234/244/260 230/240/260
f 289/312/313 290/530/313 292/313/313
f 291/314/314 292/313/314 294/315/314
f 294/315/315 296/318/315 295/317/315
f 296/318/316 298/320/316 297/319/316
f 298/320/317 300/531/317 299/321/317
f 299/321/318 300/531/318 302/322/318
f 301/323/319 302/322/319 304/324/319
f 294/532/320 292/533/320 290/326/320
f 290/326/320 306/534/320 304/535/320
f 304/535/320 302/536/320 300/327/320
f 300/327/320 298/537/320 296/328/320
f 296/328/320 294/532/320 290/326/320
f 290/326/320 304/535/320 300/327/320
f 303/325/321 304/324/321 306/329/321
f 305/330/322 306/329/322 290/331/322
f 305/538/323 289/539/323 291/333/323
f 291/333/323 293/540/323 295/541/323
f 295/541/323 297/542/323 299/334/323
f 299/334/323 301/543/323 303/335/323
f 303/335/323 305/538/323 291/333/323
f 291/333/323 295/541/323 299/334/323
f 313/342/332 307/336/332 309/338/332
f 310/360/333 312/364/333 309/361/333
f 311/363/334 316/345/334 318/347/334
f 317/346/335 315/368/335 314/365/335
f 325/354/336 313/342/336 315/344/336
f 328/357/337 330/359/337 317/346/337
f 329/358/338 327/356/338 326/355/338
f 319/348/521 325/354/521 327/356/521
f 322/351/340 324/353/340 329/358/340
f 323/352/341 321/350/341 320/349/341
f 307/336/342 319/348/342 321/350/342
f 311/340/343 310/339/343 323/352/343
f 325/354/522 319/348/522 307/336/522
f 312/364/345 318/347/345 314/365/345
f 323/352/346 310/339/346 308/366/346
f 328/357/347 316/398/347 311/367/347
f 317/346/348 330/359/348 326/355/348
f 327/356/349 329/358/349 324/353/349
f 331/369/523 333/371/523 338/376/523
f 332/393/359 334/544/359 336/394/359
f 335/363/360 340/378/360 342/380/360
f 341/379/361 339/399/361 338/396/361
f 337/375/524 339/377/524 350/388/524
f 340/378/363 352/390/363 354/392/363
f 351/389/364 350/388/364 354/392/364
f 349/387/365 351/389/365 344/382/365
f 352/390/366 346/384/366 348/386/366
f 345/383/367 344/382/367 348/386/367
f 343/381/368 345/383/368 332/370/368
f 346/384/369 335/373/369 334/372/369
f 337/375/370 349/387/370 343/381/370
f 336/394/371 342/380/371 338/396/371
f 345/383/372 347/385/372 334/372/372
f 340/398/373 335/367/373 346/384/373
f 341/379/374 354/392/374 350/388/374
f 351/389/375 353/391/375 348/386/375
usemtl core
f 403/455/428 416/456/428 415/457/428
f 404/458/429 416/459/429 418/460/429
f 403/461/430 415/462/430 420/463/430
f 403/464/431 420/465/431 422/466/431
f 403/467/432 422/468/432 419/469/432
f 404/458/433 418/460/433 425/470/433
f 405/471/434 417/472/434 427/473/434
f 406/474/435 421/475/435 429/476/435
f 407/477/436 423/478/436 431/479/436
f 408/480/437 424/481/437 433/482/437
f 404/458/438 425/470/438 428/483/438
f 405/471/439 427/473/439 430/484/439
f 406/474/440 429/476/440 432/485/440
f 407/477/441 431/479/441 434/486/441
f 408/480/442 433/482/442 426/487/442
f 409/488/443 435/489/443 440/490/443
f 410/491/444 436/492/444 442/493/444
f 411/494/445 437/495/445 443/496/445
f 412/497/446 438/498/446 444/499/446
f 413/500/447 439/501/447 441/502/447
f 441/502/448 444/503/448 414/504/448
f 441/502/449 439/501/449 444/503/449
f 439/501/450 412/497/450 444/503/450
f 444/499/451 443/505/451 414/506/451
f 444/499/452 438/498/452 443/505/452
f 438/498/453 411/494/453 443/505/453
f 443/496/454 442/507/454 414/508/454
f 443/496/455 437/495/455 442/507/455
f 437/495/456 410/509/456 442/507/456
f 442/493/457 440/510/457 414/511/457
f 442/493/458 436/492/458 440/510/458
f 436/492/459 409/488/459 440/510/459
f 440/490/460 441/512/460 414/513/460
f 440/490/461 435/489/461 441/512/461
f 435/489/462 413/500/462 441/512/462
f 426/487/463 439/501/463 413/500/463
f 426/487/464 433/482/464 439/501/464
f 433/482/465 412/497/465 439/501/465
f 434/486/466 438/498/466 412/497/466
f 434/486/467 431/479/467 438/498/467
f 431/479/468 411/494/468 438/498/468
f 432/485/469 437/495/469 411/494/469
f 432/485/470 429/476/470 437/495/470
f 429/476/471 410/509/471 437/495/471
f 430/484/472 436/492/472 410/491/472
f 430/484/473 427/473/473 436/492/473
f 427/473/474 409/488/474 436/492/474
f 428/483/475 435/489/475 409/488/475
f 428/483/476 425/470/476 435/489/476
f 425/470/477 413/500/477 435/489/477
f 433/482/478 434/486/478 412/497/478
f 433/482/479 424/481/479 434/486/479
f 424/481/480 407/477/480 434/486/480
f 431/479/481 432/485/481 411/494/481
f 431/479/482 423/478/482 432/485/482
f 423/478/483 406/474/483 432/485/483
f 429/476/484 430/514/484 410/509/484
f 429/476/485 421/475/485 430/514/485
f 421/475/486 405/515/486 430/514/486
f 427/473/487 428/483/487 409/488/487
f 427/473/488 417/472/488 428/483/488
f 417/472/489 404/458/489 428/483/489
f 425/470/490 426/487/490 413/500/490
f 425/470/491 418/460/491 426/487/491
f 418/460/492 408/480/492 426/487/492
f 419/469/493 424/481/493 408/480/493
f 419/469/494 422/468/494 424/481/494
f 422/468/495 407/477/495 424/481/495
f 422/466/496 423/478/496 407/477/496
f 422/466/497 420/465/497 423/478/497
f 420/465/498 406/474/498 423/478/498
f 420/463/499 421/475/499 406/474/499
f 420/463/500 415/462/500 421/475/500
f 415/462/501 405/515/501 421/475/501
f 418/460/502 419/516/502 408/480/502
f 418/460/503 416/459/503 419/516/503
f 416/459/504 403/517/504 419/516/504
f 415/457/505 417/472/505 405/471/505
f 415/457/506 416/456/506 417/472/506
f 416/456/507 404/458/507 417/472/507
