# Blender 4.5.10 LTS
# www.blender.org
mtllib hod_jib_remodel_a.mtl
o hod_jib_remodel_a
v 0.108448 -0.119812 -0.089579
v 0.108222 -0.097992 -0.111756
v 0.130237 -0.097604 -0.089775
v 0.095054 1.282706 -0.122908
v 0.094860 1.304882 -0.101086
v 0.117069 1.283094 -0.100926
v 0.108589 -0.118228 0.106414
v 0.130378 -0.096020 0.106219
v 0.108395 -0.096052 0.128236
v 0.095001 1.306467 0.094907
v 0.095227 1.284646 0.117084
v 0.117210 1.284678 0.095067
v -0.087543 -0.121680 -0.089423
v -0.109752 -0.099892 -0.089583
v -0.087769 -0.099860 -0.111600
v -0.101131 1.303015 -0.100930
v -0.100937 1.280838 -0.122752
v -0.122920 1.280807 -0.100735
v -0.087402 -0.120096 0.106570
v -0.087596 -0.097920 0.128392
v -0.109611 -0.098307 0.106410
v -0.100990 1.304599 0.095064
v -0.122779 1.282391 0.095259
v -0.100764 1.282778 0.117240
v 0.045957 -0.061951 -0.348052
v 0.045781 -0.034023 -0.361762
v 0.067944 -0.041066 -0.341093
v 0.045362 0.652410 -0.127380
v 0.045513 0.666121 -0.099452
v 0.067525 0.645366 -0.106712
v 0.046597 -0.089739 -0.266667
v 0.068583 -0.068855 -0.259709
v 0.046748 -0.076028 -0.238739
v 0.046153 0.638333 -0.018068
v 0.046329 0.610405 -0.004357
v 0.068165 0.617578 -0.025327
v -0.040040 -0.062205 -0.347462
v -0.062052 -0.041450 -0.340203
v -0.040217 -0.034276 -0.361173
v -0.040484 0.665868 -0.098863
v -0.040635 0.652157 -0.126791
v -0.062471 0.644983 -0.105821
v -0.039401 -0.089993 -0.266078
v -0.039250 -0.076282 -0.238150
v -0.061413 -0.069238 -0.258819
v -0.039845 0.638080 -0.017479
v -0.061832 0.617195 -0.024437
v -0.039669 0.610151 -0.003768
v 0.046509 -0.093239 0.255749
v 0.046569 -0.078748 0.228217
v 0.068277 -0.071924 0.249435
v 0.038917 0.621455 0.010868
v 0.038398 0.648984 0.025356
v 0.060625 0.628279 0.032086
v 0.045380 -0.067757 0.337879
v 0.067147 -0.046443 0.331565
v 0.044861 -0.040229 0.352367
v 0.037269 0.674466 0.107487
v 0.037210 0.659974 0.135018
v 0.059496 0.653761 0.114216
v -0.039478 -0.094431 0.254936
v -0.061705 -0.073726 0.248206
v -0.039419 -0.079940 0.227404
v -0.047589 0.647792 0.024544
v -0.047071 0.620264 0.010055
v -0.069357 0.626477 0.030857
v -0.040608 -0.068949 0.337066
v -0.041126 -0.041421 0.351555
v -0.062834 -0.048244 0.330337
v -0.048719 0.673274 0.106674
v -0.070486 0.651959 0.112988
v -0.048778 0.658782 0.134206
v -0.619557 1.541407 0.072331
v -0.597277 1.538867 0.093898
v -0.595178 1.560731 0.071863
v 1.082515 1.344389 0.060948
v 1.103934 1.341870 0.038524
v 1.084614 1.366253 0.038913
v -0.621630 1.541456 -0.033649
v -0.597251 1.560780 -0.034117
v -0.600211 1.538936 -0.056074
v 1.101861 1.341918 -0.067456
v 1.079581 1.344458 -0.089023
v 1.082541 1.366302 -0.067067
v -0.629445 1.455977 0.072485
v -0.610124 1.431594 0.072096
v -0.607165 1.453438 0.094052
v 1.094047 1.256440 0.038678
v 1.072627 1.258960 0.061102
v 1.069668 1.237116 0.039146
v -0.631518 1.456026 -0.033495
v -0.610099 1.453507 -0.055919
v -0.612198 1.431642 -0.033884
v 1.091974 1.256489 -0.067302
v 1.067595 1.237164 -0.066834
v 1.069694 1.259029 -0.088869
v 0.000232 1.107965 -0.034437
v 0.000690 1.107422 0.025559
v -0.121826 1.152594 -0.033101
v -0.121367 1.152052 0.026895
v -0.186634 1.265240 -0.031587
v -0.186176 1.264698 0.028408
v -0.163869 1.393195 -0.030605
v -0.163411 1.392652 0.029391
v -0.064183 1.476586 -0.030613
v -0.063724 1.476044 0.029383
v 0.065781 1.476395 -0.031607
v 0.066239 1.475853 0.028388
v 0.165210 1.392711 -0.033124
v 0.165669 1.392169 0.026872
v 0.187581 1.264690 -0.034452
v 0.188040 1.264148 0.025544
v 0.122426 1.152235 -0.034971
v 0.122885 1.151693 0.025025
v -0.549853 1.439710 0.007275
v -0.547315 1.432914 0.014420
v -0.540612 1.435434 0.007182
v -0.464814 1.208313 0.012620
v -0.462387 1.201592 0.005366
v -0.458111 1.210833 0.005381
v -0.549973 1.439790 -0.008324
v -0.540732 1.435515 -0.008418
v -0.547546 1.433070 -0.015578
v -0.462507 1.201673 -0.010233
v -0.465045 1.208468 -0.017379
v -0.458231 1.210914 -0.010218
v -0.564496 1.434330 0.007360
v -0.568772 1.425089 0.007345
v -0.561958 1.427535 0.014505
v -0.477030 1.196212 0.005451
v -0.479457 1.202933 0.012705
v -0.486271 1.200488 0.005544
v -0.564616 1.434411 -0.008239
v -0.562189 1.427690 -0.015493
v -0.568892 1.425170 -0.008254
v -0.477150 1.196293 -0.010149
v -0.486391 1.200569 -0.010055
v -0.479688 1.203089 -0.017294
v -0.556902 1.438849 0.003912
v -0.559397 1.432119 0.011134
v -0.552693 1.429577 0.003904
v -0.643552 1.208024 0.011883
v -0.646119 1.201273 0.004706
v -0.636847 1.205482 0.004654
v -0.556979 1.438826 -0.011688
v -0.552770 1.429554 -0.011695
v -0.559546 1.432075 -0.018866
v -0.646196 1.201250 -0.010894
v -0.643701 1.207980 -0.018116
v -0.636925 1.205459 -0.010946
v -0.571506 1.444333 0.003976
v -0.580777 1.440124 0.004028
v -0.574001 1.437604 0.011198
v -0.660723 1.206758 0.004770
v -0.658156 1.213509 0.011948
v -0.664932 1.216029 0.004777
v -0.571583 1.444310 -0.011624
v -0.574150 1.437559 -0.018801
v -0.580855 1.440101 -0.011572
v -0.660800 1.206734 -0.010830
v -0.665009 1.216006 -0.010822
v -0.658305 1.213464 -0.018052
v -0.432605 0.945794 -0.127563
v -0.432867 0.967869 -0.149485
v -0.410923 0.968106 -0.127430
v -0.435960 1.183846 -0.148728
v -0.436329 1.205765 -0.126651
v -0.414016 1.184083 -0.126673
v -0.433233 0.944887 0.128435
v -0.411550 0.967199 0.128567
v -0.433602 0.966807 0.150512
v -0.436956 1.204859 0.129347
v -0.436695 1.182783 0.151269
v -0.414643 1.183176 0.129324
v -0.692748 0.942070 -0.128213
v -0.715061 0.963753 -0.128191
v -0.693009 0.964146 -0.150136
v -0.696472 1.202042 -0.127302
v -0.696103 1.180122 -0.149379
v -0.718154 1.179730 -0.127434
v -0.693376 0.941164 0.127784
v -0.693744 0.963083 0.149861
v -0.715688 0.962846 0.127806
v -0.697099 1.201135 0.128696
v -0.718781 1.178823 0.128564
v -0.696838 1.179060 0.150619
v 1.010260 1.316932 0.007908
v 1.011841 1.311438 0.013710
v 1.017401 1.313012 0.007969
v 1.117675 0.947984 0.016528
v 1.119314 0.942418 0.010811
v 1.123234 0.949558 0.010786
v 1.010323 1.316854 -0.004572
v 1.017464 1.312934 -0.004511
v 1.011963 1.311288 -0.010289
v 1.119377 0.942340 -0.001669
v 1.117796 0.947833 -0.007471
v 1.123297 0.949480 -0.001693
v 0.998278 1.313443 0.007869
v 0.994358 1.306302 0.007894
v 0.999859 1.307949 0.013671
v 1.107332 0.938928 0.010772
v 1.105692 0.944495 0.016489
v 1.100191 0.942848 0.010711
v 0.998341 1.313365 -0.004611
v 0.999981 1.307798 -0.010328
v 0.994421 1.306224 -0.004586
v 1.107395 0.938850 -0.001707
v 1.100255 0.942770 -0.001768
v 1.105814 0.944344 -0.007510
v 1.003321 1.304314 0.008008
v 1.001735 1.298772 0.013764
v 1.007224 1.297164 0.007964
v 0.897299 0.943248 0.013533
v 0.895638 0.937737 0.007770
v 0.902788 0.941640 0.007733
v 1.003239 1.304346 -0.004472
v 1.007142 1.297196 -0.004516
v 1.001577 1.298834 -0.010235
v 0.895556 0.937769 -0.004710
v 0.897142 0.943310 -0.010466
v 0.902706 0.941672 -0.004747
v 0.991347 1.307831 0.008095
v 0.984197 1.303928 0.008132
v 0.989761 1.302290 0.013852
v 0.883664 0.941254 0.007857
v 0.885325 0.946766 0.013621
v 0.879761 0.948404 0.007902
v 0.991265 1.307863 -0.004384
v 0.989604 1.302351 -0.010148
v 0.984115 1.303960 -0.004347
v 0.883582 0.941286 -0.004622
v 0.879679 0.948436 -0.004578
v 0.885168 0.946828 -0.010379
v 1.128188 0.895433 -0.099379
v 1.128253 0.907494 -0.111318
v 1.140061 0.907557 -0.099129
v 1.127982 0.933493 -0.111188
v 1.127666 0.945430 -0.099130
v 1.139789 0.933555 -0.098999
v 1.125085 0.894424 0.096594
v 1.136957 0.906548 0.096844
v 1.124770 0.906362 0.108652
v 1.124563 0.944421 0.096843
v 1.124498 0.932360 0.108781
v 1.136686 0.932546 0.096974
v 0.872600 0.892786 -0.103440
v 0.860477 0.904661 -0.103571
v 0.872665 0.904847 -0.115379
v 0.872078 0.942782 -0.103191
v 0.872394 0.930845 -0.115249
v 0.860206 0.930659 -0.103442
v 0.869497 0.891777 0.092533
v 0.869182 0.903714 0.104591
v 0.857374 0.903652 0.092402
v 0.868975 0.941773 0.092782
v 0.857102 0.929650 0.092531
v 0.868910 0.929712 0.104720
v 1.008511 0.935045 -0.005229
v 0.942433 0.995499 -0.050207
v 1.032218 0.997374 -0.080043
v 1.088379 0.995571 -0.003899
v 1.033302 0.992581 0.072995
v 0.943103 0.992537 0.044374
v 0.981463 1.093390 -0.076676
v 1.071662 1.093434 -0.048056
v 1.072332 1.090472 0.046526
v 0.982547 1.088597 0.076362
v 0.926386 1.090400 0.000218
v 1.006254 1.150926 0.001548
v 1.022643 0.952730 -0.049798
v 0.969869 0.951627 -0.032261
v 0.983804 0.988264 -0.076236
v 0.931423 0.985421 -0.003105
v 0.970263 0.949886 0.023332
v 1.055654 0.951670 -0.005042
v 1.069589 0.988306 -0.049017
v 1.023281 0.949912 0.040155
v 1.070226 0.985489 0.040936
v 0.984835 0.983705 0.069311
v 0.921597 1.042943 -0.029060
v 0.921991 1.041202 0.026534
v 1.006745 1.045803 -0.091794
v 0.953971 1.044701 -0.074258
v 1.092774 1.044769 -0.030215
v 1.059763 1.045829 -0.074972
v 1.060794 1.041270 0.070576
v 1.093168 1.043028 0.025379
v 0.955001 1.040142 0.071290
v 1.008020 1.040168 0.088113
v 0.944539 1.100482 -0.044618
v 1.029930 1.102266 -0.072992
v 1.083341 1.100550 -0.000576
v 1.030961 1.097707 0.072555
v 0.945176 1.097665 0.045335
v 0.991484 1.136059 -0.043836
v 0.959111 1.134301 0.001361
v 1.044502 1.136085 -0.027013
v 1.044896 1.134343 0.028580
v 0.992121 1.133241 0.046117
vn 0.5824 -0.5765 -0.5731
vn 0.5714 0.5781 -0.5825
vn 0.5832 -0.5671 0.5815
vn 0.5722 0.5875 0.5722
vn -0.5722 -0.5875 -0.5722
vn -0.5832 0.5671 -0.5815
vn -0.5714 -0.5781 0.5825
vn -0.5824 0.5765 0.5731
vn 0.7138 -0.7003 0.0051
vn 0.7066 0.0010 -0.7076
vn 0.7003 0.7138 -0.0063
vn 0.7076 0.0125 0.7065
vn 0.0073 -0.7013 0.7128
vn -0.0062 0.7128 0.7014
vn -0.7066 -0.0010 0.7076
vn -0.7003 -0.7138 0.0063
vn -0.7138 0.7003 -0.0051
vn -0.7076 -0.0125 -0.7065
vn 0.0062 -0.7128 -0.7014
vn -0.0073 0.7013 -0.7128
vn 0.0095 -0.9999 0.0081
vn 1.0000 0.0095 -0.0008
vn -0.0007 -0.0081 -1.0000
vn -0.0095 0.9999 -0.0081
vn 0.0007 0.0081 1.0000
vn -1.0000 -0.0095 0.0008
vn 0.5734 -0.3581 -0.7369
vn 0.5727 0.7346 -0.3638
vn 0.5820 -0.7312 0.3558
vn 0.5813 0.3615 0.7290
vn -0.5813 -0.3615 -0.7290
vn -0.5820 0.7312 -0.3558
vn -0.5727 -0.7346 0.3638
vn -0.5734 0.3581 0.7369
vn 0.7075 -0.6671 -0.2333
vn 0.7018 0.2306 -0.6740
vn 0.7067 0.6713 0.2236
vn 0.7123 -0.2264 0.6643
vn 0.0057 -0.8977 0.4407
vn 0.0048 0.4407 0.8976
vn -0.7018 -0.2306 0.6740
vn -0.7067 -0.6713 -0.2236
vn -0.7075 0.6671 0.2333
vn -0.7123 0.2264 -0.6643
vn -0.0048 -0.4407 -0.8976
vn -0.0057 0.8977 -0.4407
vn 0.0006 -0.9464 -0.3231
vn 1.0000 0.0029 -0.0068
vn -0.0074 0.3231 -0.9463
vn -0.0006 0.9464 0.3231
vn 0.0074 -0.3231 0.9463
vn -1.0000 -0.0029 0.0068
vn 0.5909 -0.7144 -0.3748
vn 0.5788 0.3883 -0.7171
vn 0.5757 -0.3723 0.7280
vn 0.5637 0.7304 0.3857
vn -0.5637 -0.7304 -0.3857
vn -0.5757 0.3723 -0.7280
vn -0.5788 -0.3883 0.7171
vn -0.5909 0.7144 0.3748
vn 0.7144 -0.6655 0.2163
vn 0.7163 -0.1997 -0.6686
vn 0.6996 0.6851 -0.2029
vn 0.6977 0.2193 0.6820
vn -0.0019 -0.4658 0.8849
vn -0.0167 0.8848 0.4657
vn -0.7163 0.1997 0.6686
vn -0.6996 -0.6851 0.2029
vn -0.7144 0.6655 -0.2163
vn -0.6977 -0.2193 -0.6820
vn 0.0167 -0.8848 -0.4657
vn 0.0019 0.4658 -0.8849
vn 0.0104 -0.9550 0.2964
vn 0.9999 0.0139 0.0094
vn 0.0131 -0.2963 -0.9550
vn -0.0104 0.9550 -0.2964
vn -0.0131 0.2963 0.9550
vn -0.9999 -0.0139 -0.0094
vn -0.4957 0.6396 0.5875
vn 0.6511 0.5069 0.5650
vn -0.5183 0.6402 -0.5670
vn 0.6285 0.5074 -0.5895
vn -0.6285 -0.5074 0.5895
vn 0.5183 -0.6402 0.5670
vn -0.6511 -0.5069 -0.5650
vn 0.4957 -0.6396 -0.5875
vn -0.6210 0.7837 0.0125
vn 0.0951 0.7021 0.7057
vn 0.7836 0.6211 -0.0150
vn 0.0675 0.7027 -0.7082
vn -0.7161 0.0816 -0.6932
vn 0.6885 -0.0810 -0.7207
vn -0.0951 -0.7021 -0.7057
vn -0.7836 -0.6211 0.0150
vn 0.6210 -0.7837 -0.0125
vn -0.0675 -0.7027 0.7082
vn -0.6884 0.0810 0.7207
vn 0.7161 -0.0816 0.6932
vn -0.9932 0.1150 0.0195
vn 0.1150 0.9934 -0.0018
vn 0.0196 -0.0005 0.9998
vn 0.9932 -0.1150 -0.0195
vn -0.0196 0.0005 -0.9998
vn -0.1150 -0.9934 0.0018
vn -0.3435 -0.9392 -0.0059
vn -0.8668 -0.4987 0.0021
vn -0.9845 0.1751 0.0091
vn -0.6416 0.7670 0.0118
vn 0.0015 1.0000 0.0090
vn 0.6439 0.7651 0.0020
vn 0.9850 0.1722 -0.0060
vn 0.0076 -0.0090 0.9999
vn 0.8652 -0.5013 -0.0111
vn 0.3406 -0.9402 -0.0111
vn -0.0076 0.0090 -0.9999
vn 0.3473 0.7380 0.5785
vn 0.7454 -0.3458 0.5698
vn 0.3384 0.7440 -0.5761
vn 0.7365 -0.3398 -0.5848
vn -0.7365 0.3398 0.5848
vn -0.3384 -0.7440 0.5761
vn -0.7454 0.3458 -0.5698
vn -0.3473 -0.7380 -0.5785
vn 0.4199 0.9075 0.0015
vn 0.6692 0.2402 0.7032
vn 0.9075 -0.4199 -0.0092
vn 0.6583 0.2475 -0.7109
vn -0.2492 0.6674 -0.7017
vn 0.2383 -0.6601 -0.7124
vn -0.6692 -0.2402 -0.7032
vn -0.9075 0.4199 0.0092
vn -0.4199 -0.9076 -0.0015
vn -0.6583 -0.2475 0.7109
vn -0.2384 0.6601 0.7124
vn 0.2493 -0.6674 0.7018
vn -0.3448 0.9386 0.0075
vn 0.9386 0.3448 -0.0054
vn 0.0077 -0.0052 1.0000
vn 0.3448 -0.9387 -0.0075
vn -0.0077 0.0052 -1.0000
vn -0.9386 -0.3448 0.0054
vn 0.7463 0.3384 0.5732
vn 0.3404 -0.7426 0.5768
vn 0.7406 0.3367 -0.5815
vn 0.3347 -0.7443 -0.5779
vn -0.3346 0.7443 0.5779
vn -0.7406 -0.3367 0.5815
vn -0.3404 0.7426 -0.5768
vn -0.7463 -0.3384 -0.5732
vn 0.9106 0.4134 -0.0051
vn 0.6655 -0.2475 0.7042
vn 0.4134 -0.9106 -0.0007
vn 0.6585 -0.2496 -0.7100
vn 0.2451 0.6609 -0.7093
vn -0.2521 -0.6630 -0.7049
vn -0.6655 0.2475 -0.7042
vn -0.4134 0.9106 0.0007
vn -0.9106 -0.4134 0.0051
vn -0.6585 0.2496 0.7100
vn 0.2521 0.6630 0.7049
vn -0.2451 -0.6609 0.7093
vn 0.3516 0.9362 -0.0031
vn 0.9362 -0.3516 -0.0041
vn 0.0050 0.0015 1.0000
vn -0.3515 -0.9362 0.0031
vn -0.0050 -0.0015 -1.0000
vn -0.9362 0.3516 0.0041
vn 0.5870 -0.5670 -0.5779
vn 0.5704 0.5876 -0.5739
vn 0.5841 -0.5711 0.5768
vn 0.5676 0.5835 0.5808
vn -0.5676 -0.5835 -0.5808
vn -0.5841 0.5711 -0.5768
vn -0.5704 -0.5876 0.5739
vn -0.5870 0.5670 0.5779
vn 0.7172 -0.6969 -0.0007
vn 0.7088 0.0126 -0.7053
vn 0.6969 0.7172 0.0042
vn 0.7053 0.0076 0.7089
vn 0.0084 -0.7095 0.7046
vn -0.0119 0.7045 0.7096
vn -0.7088 -0.0126 0.7053
vn -0.6969 -0.7171 -0.0042
vn -0.7172 0.6969 0.0007
vn -0.7053 -0.0076 -0.7089
vn 0.0119 -0.7045 -0.7096
vn -0.0084 0.7095 -0.7046
vn 0.0143 -0.9999 -0.0035
vn 0.9999 0.0143 0.0025
vn 0.0025 0.0035 -1.0000
vn -0.0143 0.9999 0.0035
vn -0.0025 -0.0035 1.0000
vn -0.9999 -0.0143 -0.0025
vn 0.3900 0.7194 0.5748
vn 0.7128 -0.3893 0.5834
vn 0.3958 0.7121 -0.5798
vn 0.7187 -0.3965 -0.5712
vn -0.7187 0.3965 0.5712
vn -0.3958 -0.7121 0.5798
vn -0.7128 0.3893 -0.5834
vn -0.3900 -0.7194 -0.5748
vn 0.4812 0.8766 -0.0031
vn 0.6753 0.2021 0.7093
vn 0.8766 -0.4812 0.0075
vn 0.6825 0.1933 -0.7049
vn -0.1941 0.6745 -0.7124
vn 0.2013 -0.6833 -0.7018
vn -0.6753 -0.2021 -0.7093
vn -0.8766 0.4812 -0.0075
vn -0.4812 -0.8766 0.0031
vn -0.6825 -0.1933 0.7049
vn -0.2013 0.6833 0.7018
vn 0.1941 -0.6745 0.7123
vn -0.2796 0.9601 -0.0075
vn 0.9601 0.2796 0.0031
vn -0.0051 0.0063 1.0000
vn 0.2796 -0.9601 0.0074
vn 0.0051 -0.0063 -1.0000
vn -0.9601 -0.2796 -0.0031
vn 0.7204 0.3897 0.5736
vn 0.3950 -0.7182 0.5729
vn 0.7129 0.3927 -0.5810
vn 0.3874 -0.7152 -0.5818
vn -0.3874 0.7152 0.5817
vn -0.7129 -0.3927 0.5810
vn -0.3950 0.7181 -0.5729
vn -0.7205 -0.3898 -0.5736
vn 0.8777 0.4792 -0.0045
vn 0.6831 -0.2011 0.7021
vn 0.4791 -0.8777 -0.0054
vn 0.6738 -0.1975 -0.7121
vn 0.1947 0.6803 -0.7067
vn -0.2039 -0.6766 -0.7075
vn -0.6831 0.2011 -0.7021
vn -0.4791 0.8777 0.0054
vn -0.8777 -0.4792 0.0045
vn -0.6738 0.1975 0.7121
vn 0.2039 0.6766 0.7075
vn -0.1946 -0.6803 0.7066
vn 0.2819 0.9595 0.0006
vn 0.9594 -0.2818 -0.0070
vn 0.0066 -0.0026 1.0000
vn -0.2818 -0.9595 -0.0006
vn -0.0066 0.0026 -1.0000
vn -0.9594 0.2818 0.0070
vn 0.5924 -0.5684 -0.5710
vn 0.5804 0.5863 -0.5652
vn 0.5741 -0.5743 0.5835
vn 0.5621 0.5803 0.5893
vn -0.5621 -0.5803 -0.5893
vn -0.5741 0.5743 -0.5836
vn -0.5804 -0.5863 0.5652
vn -0.5924 0.5684 0.5710
vn 0.7144 -0.6997 0.0077
vn 0.7182 0.0110 -0.6958
vn 0.6996 0.7144 0.0148
vn 0.6958 0.0037 0.7182
vn -0.0038 -0.7107 0.7035
vn -0.0186 0.7034 0.7105
vn -0.7182 -0.0110 0.6958
vn -0.6996 -0.7144 -0.0148
vn -0.7144 0.6997 -0.0077
vn -0.6958 -0.0037 -0.7182
vn 0.0186 -0.7034 -0.7105
vn 0.0038 0.7107 -0.7035
vn 0.0104 -0.9999 -0.0050
vn 0.9998 0.0104 0.0159
vn 0.0158 0.0051 -0.9999
vn -0.0104 0.9999 0.0050
vn -0.0158 -0.0051 0.9999
vn -0.9998 -0.0104 -0.0159
vn -0.1130 -0.9107 -0.3972
vn -0.7481 -0.5912 -0.3013
vn 0.3221 -0.9105 -0.2592
vn 0.3254 -0.9248 0.1971
vn -0.1077 -0.9339 0.3410
vn -0.9194 -0.2812 -0.2751
vn -0.0290 -0.2501 -0.9678
vn 0.9055 -0.2602 -0.3352
vn 0.5927 -0.2975 0.7485
vn -0.5351 -0.3104 0.7856
vn -0.8075 -0.0952 -0.5821
vn 0.3017 -0.0720 -0.9507
vn 0.9955 -0.0943 -0.0100
vn 0.3151 -0.1312 0.9400
vn -0.7993 -0.1318 0.5864
vn -0.4503 0.6086 -0.6533
vn 0.4957 0.6172 -0.6110
vn 0.7481 0.5912 0.3014
vn -0.0419 0.5665 0.8230
vn -0.7826 0.5773 0.2330
vn -0.3221 0.9105 0.2592
vn -0.5515 0.7185 0.4238
vn -0.4408 0.5663 0.6964
vn 0.1130 0.9107 0.3972
vn 0.2057 0.7188 0.6641
vn 0.5046 0.5779 0.6414
vn 0.3786 0.9252 0.0263
vn 0.6680 0.7439 0.0186
vn 0.7441 0.6092 -0.2743
vn 0.1077 0.9339 -0.3410
vn 0.1966 0.7591 -0.6206
vn -0.0533 0.6169 -0.7852
vn -0.3254 0.9248 -0.1971
vn -0.5572 0.7433 -0.3702
vn -0.7856 0.5904 -0.1853
vn -0.9055 0.2602 0.3352
vn -0.7964 0.1304 0.5905
vn -0.5819 0.2498 0.7739
vn 0.0290 0.2501 0.9678
vn 0.3102 0.1309 0.9416
vn 0.5464 0.2609 0.7959
vn 0.9194 0.2812 0.2751
vn 0.9858 0.1676 -0.0017
vn 0.9155 0.2982 -0.2699
vn 0.5351 0.3104 -0.7856
vn 0.2969 0.1897 -0.9359
vn 0.0154 0.3102 -0.9505
vn -0.5927 0.2975 -0.7485
vn -0.8047 0.1667 -0.5699
vn -0.9100 0.2803 -0.3054
vn -0.3017 0.0720 0.9507
vn -0.2969 -0.1897 0.9359
vn -0.0155 -0.3102 0.9505
vn 0.8075 0.0952 0.5821
vn 0.8047 -0.1667 0.5699
vn 0.9100 -0.2803 0.3054
vn 0.7993 0.1318 -0.5864
vn 0.7964 -0.1304 -0.5905
vn 0.5819 -0.2498 -0.7739
vn -0.3151 0.1312 -0.9400
vn -0.3102 -0.1309 -0.9416
vn -0.5464 -0.2609 -0.7959
vn -0.9955 0.0943 0.0100
vn -0.9858 -0.1676 0.0017
vn -0.9155 -0.2982 0.2699
vn -0.4957 -0.6172 0.6110
vn -0.1966 -0.7591 0.6206
vn 0.0533 -0.6169 0.7852
vn 0.4503 -0.6086 0.6533
vn 0.5572 -0.7433 0.3702
vn 0.7856 -0.5904 0.1853
vn 0.7826 -0.5773 -0.2330
vn 0.5515 -0.7185 -0.4238
vn 0.4408 -0.5663 -0.6964
vn -0.7441 -0.6092 0.2743
vn -0.6680 -0.7439 -0.0186
vn -0.3786 -0.9252 -0.0263
vn 0.0419 -0.5665 -0.8230
vn -0.2057 -0.7188 -0.6641
vn -0.5046 -0.5779 -0.6414
vn -0.6885 0.0810 0.7207
vn 0.4199 0.9076 0.0015
vn -0.2492 0.6674 -0.7018
vn -0.3448 0.9387 0.0075
vn 0.6655 -0.2476 0.7042
vn -0.6655 0.2476 -0.7042
vn -0.9105 -0.4134 0.0051
vn -0.6584 0.2496 0.7100
vn -0.3516 -0.9362 0.0031
vn -0.6969 -0.7172 -0.0042
vn -0.1941 0.6745 -0.7123
vn -0.2796 0.9601 -0.0074
vn 0.8777 0.4791 -0.0045
vn 0.1946 0.6803 -0.7066
vn -0.8777 -0.4791 0.0045
vn 0.2040 0.6766 0.7075
vn 0.2818 0.9595 0.0006
vt 0.147917 0.727083
vt 0.147917 0.750000
vt 0.125000 0.727083
vt 0.621140 0.000000
vt 0.625000 0.022917
vt 0.621140 0.022917
vt 0.147917 0.522917
vt 0.125000 0.522917
vt 0.147917 0.500000
vt 0.625000 0.249239
vt 0.621140 0.272887
vt 0.621140 0.227083
vt 0.352083 0.727083
vt 0.378855 0.727083
vt 0.378315 0.772450
vt 0.644990 0.732937
vt 0.621140 0.772917
vt 0.621140 0.727113
vt 0.352083 0.522917
vt 0.378315 0.477550
vt 0.378855 0.522917
vt 0.644990 0.517063
vt 0.621140 0.522887
vt 0.621140 0.477083
vt 0.378860 0.022917
vt 0.378860 0.000000
vt 0.378860 0.272917
vt 0.625000 0.977083
vt 0.378860 0.227083
vt 0.378860 0.977083
vt 0.852083 0.522917
vt 0.167308 0.707692
vt 0.167308 0.750000
vt 0.125000 0.707692
vt 0.617851 0.000000
vt 0.625000 0.042308
vt 0.617851 0.042308
vt 0.167308 0.542308
vt 0.125000 0.542308
vt 0.167308 0.500000
vt 0.625000 0.246927
vt 0.617851 0.292106
vt 0.617851 0.207692
vt 0.332692 0.707692
vt 0.382115 0.707692
vt 0.380410 0.790821
vt 0.657363 0.727582
vt 0.617851 0.792308
vt 0.617851 0.707894
vt 0.332692 0.542308
vt 0.380411 0.459180
vt 0.382115 0.542308
vt 0.657363 0.522418
vt 0.617851 0.542106
vt 0.617851 0.457692
vt 0.382149 0.042308
vt 0.382149 0.000000
vt 0.382149 0.207692
vt 0.625000 0.957692
vt 0.382149 0.957692
vt 0.832692 0.542308
vt 0.382149 0.292308
vt 0.167308 0.707692
vt 0.167308 0.750000
vt 0.125000 0.707692
vt 0.617923 0.000000
vt 0.625000 0.042308
vt 0.617923 0.042308
vt 0.167308 0.542308
vt 0.167308 0.500000
vt 0.625000 0.246927
vt 0.617923 0.292108
vt 0.617923 0.207692
vt 0.332692 0.707692
vt 0.382043 0.707692
vt 0.380359 0.790836
vt 0.657363 0.727581
vt 0.617923 0.792308
vt 0.617923 0.707892
vt 0.332692 0.542308
vt 0.380359 0.459164
vt 0.382043 0.542308
vt 0.657363 0.522418
vt 0.617923 0.542108
vt 0.617923 0.457692
vt 0.382077 0.042308
vt 0.382077 0.000000
vt 0.382077 0.292308
vt 0.382077 0.207692
vt 0.382077 0.957692
vt 0.167308 0.713333
vt 0.167308 0.750000
vt 0.125000 0.713333
vt 0.621831 0.000000
vt 0.625000 0.036667
vt 0.621831 0.036667
vt 0.167308 0.536667
vt 0.125000 0.536667
vt 0.625000 0.246388
vt 0.621831 0.292219
vt 0.621831 0.213333
vt 0.332692 0.713333
vt 0.378164 0.713333
vt 0.377470 0.791657
vt 0.658865 0.729093
vt 0.621831 0.792308
vt 0.621831 0.713399
vt 0.332692 0.536667
vt 0.377470 0.458343
vt 0.378164 0.536667
vt 0.658865 0.520907
vt 0.621831 0.536601
vt 0.621831 0.457692
vt 0.378169 0.000000
vt 0.378169 0.036667
vt 0.378169 0.213333
vt 0.621831 0.957692
vt 0.378169 0.957692
vt 0.832692 0.713333
vt 0.378169 0.292308
vt 1.000000 0.500000
vt 0.888889 1.000000
vt 0.888889 0.500000
vt 0.777778 1.000000
vt 0.777778 0.500000
vt 0.666667 1.000000
vt 0.666667 0.500000
vt 0.555556 1.000000
vt 0.555556 0.500000
vt 0.444444 0.500000
vt 0.444444 1.000000
vt 0.333333 0.500000
vt 0.333333 1.000000
vt 0.222222 0.500000
vt 0.250000 0.490000
vt 0.167915 0.024474
vt 0.457846 0.130000
vt 0.222222 1.000000
vt 0.111111 0.500000
vt 0.000000 1.000000
vt 0.000000 0.500000
vt 0.904269 0.433851
vt 0.667915 0.024474
vt 0.513646 0.291676
vt 0.185000 0.690000
vt 0.185000 0.750000
vt 0.125000 0.690000
vt 0.617905 0.940000
vt 0.625000 0.940000
vt 0.617904 1.000000
vt 0.185000 0.560000
vt 0.125000 0.560000
vt 0.185000 0.500000
vt 0.625000 0.257429
vt 0.617904 0.310000
vt 0.617904 0.190423
vt 0.315000 0.690000
vt 0.382046 0.690000
vt 0.379951 0.808082
vt 0.664826 0.730348
vt 0.617904 0.810000
vt 0.617904 0.690423
vt 0.315000 0.560000
vt 0.379951 0.441918
vt 0.382046 0.560000
vt 0.664826 0.528543
vt 0.617904 0.560000
vt 0.617904 0.440423
vt 0.617904 0.000000
vt 0.382096 0.060000
vt 0.382096 0.000000
vt 0.625000 0.060000
vt 0.617904 0.060000
vt 0.382096 0.310000
vt 0.382096 0.190000
vt 0.382096 0.940000
vt 0.815000 0.560000
vt 0.185000 0.690000
vt 0.185000 0.750000
vt 0.617907 0.940000
vt 0.625000 0.940000
vt 0.617907 1.000000
vt 0.625000 0.257429
vt 0.617907 0.310000
vt 0.617907 0.190423
vt 0.315000 0.690000
vt 0.382043 0.690000
vt 0.379949 0.808083
vt 0.664826 0.730348
vt 0.617907 0.810000
vt 0.617907 0.690423
vt 0.379949 0.441917
vt 0.382043 0.560000
vt 0.664826 0.528543
vt 0.617907 0.560000
vt 0.617907 0.440423
vt 0.617907 0.000000
vt 0.382093 0.060000
vt 0.382093 0.000000
vt 0.617907 0.060000
vt 0.382093 0.190000
vt 0.382093 0.940000
vt 0.382093 0.310000
vt 0.143082 0.731667
vt 0.143082 0.750000
vt 0.125000 0.731667
vt 0.603846 0.000000
vt 0.625000 0.018333
vt 0.603846 0.018333
vt 0.143082 0.518333
vt 0.125000 0.518333
vt 0.143082 0.500000
vt 0.625000 0.249555
vt 0.603846 0.267976
vt 0.603846 0.231667
vt 0.356918 0.731667
vt 0.396028 0.731667
vt 0.391477 0.765927
vt 0.641229 0.735398
vt 0.603846 0.768082
vt 0.603846 0.731776
vt 0.356918 0.518333
vt 0.391477 0.484073
vt 0.396028 0.518333
vt 0.641229 0.514602
vt 0.603846 0.518224
vt 0.603846 0.481918
vt 0.396154 0.018333
vt 0.396154 0.000000
vt 0.396154 0.268082
vt 0.625000 0.981918
vt 0.396154 0.231667
vt 0.396154 0.981918
vt 0.856918 0.518333
vt 0.185000 0.690000
vt 0.185000 0.750000
vt 0.621309 0.940000
vt 0.625000 0.940000
vt 0.621308 1.000000
vt 0.185000 0.560000
vt 0.125000 0.560000
vt 0.625000 0.257429
vt 0.621308 0.310000
vt 0.621308 0.190217
vt 0.315000 0.690000
vt 0.378678 0.690000
vt 0.377645 0.809015
vt 0.664826 0.730348
vt 0.621308 0.810000
vt 0.621308 0.690217
vt 0.315000 0.560000
vt 0.377645 0.440986
vt 0.378678 0.560000
vt 0.664826 0.528543
vt 0.621308 0.560000
vt 0.621308 0.440217
vt 0.621308 0.000000
vt 0.378692 0.060000
vt 0.378692 0.000000
vt 0.621308 0.060000
vt 0.625000 0.060000
vt 0.378692 0.310000
vt 0.378692 0.190000
vt 0.378692 0.940000
vt 0.815000 0.560000
vt 0.185000 0.690000
vt 0.621231 0.940000
vt 0.621231 1.000000
vt 0.621231 0.310000
vt 0.621231 0.190222
vt 0.378755 0.690000
vt 0.377699 0.808994
vt 0.621231 0.810000
vt 0.621231 0.690222
vt 0.377699 0.441006
vt 0.378755 0.560000
vt 0.621231 0.560000
vt 0.621231 0.440222
vt 0.621231 0.000000
vt 0.378769 0.060000
vt 0.378769 0.000000
vt 0.621231 0.060000
vt 0.378769 0.190000
vt 0.378769 0.940000
vt 0.815000 0.690000
vt 0.378769 0.310000
vt 0.135728 0.736364
vt 0.135728 0.750000
vt 0.125000 0.736364
vt 0.565000 0.989272
vt 0.625000 0.989272
vt 0.565000 1.000000
vt 0.135728 0.513636
vt 0.125000 0.513636
vt 0.135728 0.500000
vt 0.625000 0.250324
vt 0.565000 0.260728
vt 0.565000 0.236553
vt 0.364272 0.736364
vt 0.434168 0.736364
vt 0.407672 0.756583
vt 0.634901 0.738242
vt 0.565000 0.760728
vt 0.565000 0.736553
vt 0.364272 0.513636
vt 0.407672 0.493417
vt 0.434168 0.513636
vt 0.634901 0.511811
vt 0.565000 0.513636
vt 0.565000 0.489388
vt 0.565000 0.000000
vt 0.435000 0.013636
vt 0.435000 0.000000
vt 0.565000 0.013636
vt 0.625000 0.013636
vt 0.435000 0.260728
vt 0.435000 0.236364
vt 0.435000 0.989272
vt 0.864272 0.513636
vt 0.181819 0.000000
vt 0.227273 0.078731
vt 0.136365 0.078731
vt 0.272728 0.157461
vt 0.318182 0.078731
vt 0.363637 0.157461
vt 0.909091 0.000000
vt 0.954545 0.078731
vt 0.863636 0.078731
vt 0.727273 0.000000
vt 0.772727 0.078731
vt 0.681818 0.078731
vt 0.545455 0.000000
vt 0.590909 0.078731
vt 0.500000 0.078731
vt 0.318182 0.236191
vt 0.090910 0.157461
vt 0.181819 0.157461
vt 0.136365 0.236191
vt 0.818182 0.157461
vt 0.909091 0.157461
vt 0.863636 0.236191
vt 0.636364 0.157461
vt 0.727273 0.157461
vt 0.681818 0.236191
vt 0.454546 0.157461
vt 0.545455 0.157461
vt 0.500000 0.236191
vt 0.227273 0.236191
vt 0.045455 0.236191
vt 0.772727 0.236191
vt 0.590909 0.236191
vt 0.409092 0.236191
vt 0.181819 0.314921
vt 0.272728 0.314921
vt 0.227273 0.393651
vt 0.000000 0.314921
vt 0.090910 0.314921
vt 0.045455 0.393651
vt 0.727273 0.314921
vt 0.818182 0.314921
vt 0.772727 0.393651
vt 0.545455 0.314921
vt 0.636364 0.314921
vt 0.590909 0.393651
vt 0.363637 0.314921
vt 0.454546 0.314921
vt 0.409092 0.393651
vt 0.500000 0.393651
vt 0.454546 0.472382
vt 0.681818 0.393651
vt 0.636364 0.472382
vt 0.863636 0.393651
vt 0.818182 0.472382
vt 0.909091 0.314921
vt 0.136365 0.393651
vt 0.090910 0.472382
vt 0.318182 0.393651
vt 0.272728 0.472382
vt 0.954545 0.236191
vt 1.000000 0.157461
vt 0.409092 0.078731
vt 0.363637 0.000000
vt 0.621140 0.977083
vt 0.852083 0.727083
vt 0.617851 0.957692
vt 0.832692 0.707692
vt 0.617923 0.957692
vt 0.832692 0.536667
vt 1.000000 1.000000
vt 0.486354 0.291676
vt 0.404269 0.433851
vt 0.095731 0.433851
vt 0.013646 0.291676
vt 0.042154 0.130000
vt 0.332085 0.024474
vt 0.111111 1.000000
vt 0.595731 0.433851
vt 0.750000 0.490000
vt 0.986354 0.291676
vt 0.957846 0.130000
vt 0.832085 0.024474
vt 0.542154 0.130000
vt 0.815000 0.690000
vt 0.603846 0.981918
vt 0.856918 0.731667
vt 0.864272 0.736364
s 0
usemtl wood
f 1/1/1 2/2/1 3/3/1
f 4/4/2 5/5/2 6/6/2
f 7/7/3 8/8/3 9/9/3
f 10/10/4 11/11/4 12/12/4
f 13/13/5 14/14/5 15/15/5
f 16/16/6 17/17/6 18/18/6
f 19/19/7 20/20/7 21/21/7
f 22/22/8 23/23/8 24/24/8
f 1/1/9 8/8/9 7/7/9
f 4/4/10 3/25/10 2/26/10
f 10/10/11 6/6/11 5/5/11
f 9/27/12 12/12/12 11/11/12
f 7/7/13 20/20/13 19/19/13
f 22/22/14 11/11/14 10/10/14
f 21/21/15 24/24/15 23/23/15
f 19/19/16 14/14/16 13/13/16
f 16/16/17 23/23/17 22/22/17
f 15/15/18 18/18/18 17/17/18
f 13/13/19 2/2/19 1/1/19
f 5/28/20 17/17/20 16/16/20
f 7/7/21 13/13/21 1/1/21
f 6/6/22 8/29/22 3/25/22
f 17/17/23 2/30/23 15/15/23
f 10/31/24 16/16/24 22/22/24
f 9/27/25 24/24/25 20/20/25
f 23/23/26 14/14/26 21/21/26
f 25/32/27 26/33/27 27/34/27
f 28/35/28 29/36/28 30/37/28
f 31/38/29 32/39/29 33/40/29
f 34/41/30 35/42/30 36/43/30
f 37/44/31 38/45/31 39/46/31
f 40/47/32 41/48/32 42/49/32
f 43/50/33 44/51/33 45/52/33
f 46/53/34 47/54/34 48/55/34
f 31/38/35 27/34/35 32/39/35
f 28/35/36 27/56/36 26/57/36
f 29/36/37 36/43/37 30/37/37
f 35/42/38 32/58/38 36/43/38
f 43/50/39 33/40/39 44/51/39
f 46/53/40 35/42/40 34/41/40
f 47/54/41 44/51/41 48/55/41
f 43/50/42 38/45/42 37/44/42
f 40/47/43 47/54/43 46/53/43
f 39/46/44 42/49/44 41/48/44
f 37/44/45 26/33/45 25/32/45
f 29/59/46 41/48/46 40/47/46
f 31/38/47 37/44/47 25/32/47
f 27/56/48 36/43/48 32/58/48
f 41/48/49 26/60/49 39/46/49
f 34/61/50 40/47/50 46/53/50
f 35/42/51 44/51/51 33/62/51
f 45/52/52 42/49/52 38/45/52
f 49/63/53 50/64/53 51/65/53
f 52/66/54 53/67/54 54/68/54
f 55/69/55 56/39/55 57/70/55
f 58/71/56 59/72/56 60/73/56
f 61/74/57 62/75/57 63/76/57
f 64/77/58 65/78/58 66/79/58
f 67/80/59 68/81/59 69/82/59
f 70/83/60 71/84/60 72/85/60
f 49/63/61 56/39/61 55/69/61
f 52/66/62 51/86/62 50/87/62
f 58/71/63 54/68/63 53/67/63
f 57/88/64 60/73/64 59/72/64
f 55/69/65 68/81/65 67/80/65
f 58/71/66 72/85/66 59/72/66
f 69/82/67 72/85/67 71/84/67
f 61/74/68 69/82/68 62/75/68
f 64/77/69 71/84/69 70/83/69
f 65/78/70 62/75/70 66/79/70
f 61/74/71 50/64/71 49/63/71
f 53/59/72 65/78/72 64/77/72
f 67/80/73 49/63/73 55/69/73
f 54/68/74 56/89/74 51/86/74
f 65/78/75 50/90/75 63/76/75
f 58/61/76 64/77/76 70/83/76
f 59/72/77 68/81/77 57/88/77
f 71/84/78 62/75/78 69/82/78
f 73/91/79 74/92/79 75/93/79
f 76/94/80 77/95/80 78/96/80
f 79/97/81 80/98/81 81/70/81
f 82/99/82 83/100/82 84/101/82
f 85/102/83 86/103/83 87/104/83
f 88/105/84 89/106/84 90/107/84
f 91/108/85 92/109/85 93/110/85
f 94/111/86 95/112/86 96/113/86
f 79/97/87 75/93/87 80/98/87
f 74/114/88 78/96/88 75/115/88
f 77/95/89 84/101/89 78/96/89
f 83/100/90 80/116/90 84/101/90
f 91/108/91 81/70/91 92/109/91
f 82/99/92 96/113/92 83/100/92
f 95/112/93 92/109/93 96/113/93
f 91/108/94 86/103/94 85/102/94
f 88/105/95 95/112/95 94/111/95
f 89/106/96 86/103/96 90/107/96
f 73/91/97 87/104/97 74/92/97
f 88/105/98 76/117/98 89/106/98
f 91/108/99 73/91/99 79/97/99
f 78/96/100 80/116/100 75/115/100
f 89/106/101 74/118/101 87/104/101
f 94/111/102 77/119/102 88/105/102
f 83/100/103 92/109/103 81/120/103
f 95/112/104 86/103/104 93/110/104
f 163/204/168 164/205/168 165/206/168
f 166/207/169 167/208/169 168/209/169
f 169/210/170 170/211/170 171/212/170
f 172/213/171 173/214/171 174/215/171
f 175/216/172 176/217/172 177/218/172
f 178/219/173 179/220/173 180/221/173
f 181/222/174 182/223/174 183/224/174
f 184/225/175 185/226/175 186/227/175
f 169/210/176 165/206/176 170/211/176
f 166/207/177 165/228/177 164/229/177
f 172/213/178 168/209/178 167/208/178
f 171/230/179 174/215/179 173/214/179
f 169/210/180 182/223/180 181/222/180
f 184/225/181 173/214/181 172/213/181
f 183/224/182 186/227/182 185/226/182
f 181/222/183 176/217/183 175/216/183
f 178/219/184 185/226/184 184/225/184
f 179/220/185 176/217/185 180/221/185
f 175/216/186 164/205/186 163/204/186
f 167/231/187 179/220/187 178/219/187
f 169/210/188 175/216/188 163/204/188
f 168/209/189 170/232/189 165/228/189
f 179/220/190 164/233/190 177/218/190
f 172/234/191 178/219/191 184/225/191
f 171/230/192 186/227/192 182/223/192
f 185/226/193 176/217/193 183/224/193
f 235/287/246 236/288/246 237/289/246
f 238/290/247 239/291/247 240/292/247
f 241/293/248 242/294/248 243/295/248
f 244/296/249 245/297/249 246/298/249
f 247/299/250 248/300/250 249/301/250
f 250/302/251 251/303/251 252/304/251
f 253/305/252 254/306/252 255/307/252
f 256/308/253 257/309/253 258/310/253
f 235/287/254 242/294/254 241/293/254
f 238/311/255 237/312/255 236/313/255
f 244/296/256 240/314/256 239/315/256
f 243/316/257 246/298/257 245/297/257
f 241/293/258 254/306/258 253/305/258
f 244/296/259 258/310/259 245/297/259
f 255/307/260 258/310/260 257/309/260
f 253/305/261 248/300/261 247/299/261
f 250/302/262 257/309/262 256/308/262
f 251/303/263 248/300/263 252/304/263
f 247/299/264 236/288/264 235/287/264
f 250/302/265 238/290/265 251/303/265
f 241/293/266 247/299/266 235/287/266
f 237/312/267 246/298/267 242/317/267
f 249/301/268 238/290/268 236/318/268
f 244/319/269 250/302/269 256/308/269
f 243/316/270 258/310/270 254/306/270
f 255/307/271 252/304/271 248/300/271
f 1/1/9 3/3/9 8/8/9
f 4/4/10 6/6/10 3/25/10
f 10/10/11 12/12/11 6/6/11
f 9/27/12 8/29/12 12/12/12
f 7/7/13 9/9/13 20/20/13
f 22/22/14 24/24/14 11/11/14
f 21/21/15 20/20/15 24/24/15
f 19/19/16 21/21/16 14/14/16
f 16/16/17 18/18/17 23/23/17
f 15/15/18 14/14/18 18/18/18
f 13/13/19 15/15/19 2/2/19
f 5/28/20 4/383/20 17/17/20
f 7/7/21 19/19/21 13/13/21
f 6/6/22 12/12/22 8/29/22
f 17/17/23 4/383/23 2/30/23
f 10/31/24 5/384/24 16/16/24
f 9/27/25 11/11/25 24/24/25
f 23/23/26 18/18/26 14/14/26
f 31/38/35 25/32/35 27/34/35
f 28/35/36 30/37/36 27/56/36
f 29/36/37 34/41/37 36/43/37
f 35/42/38 33/62/38 32/58/38
f 43/50/39 31/38/39 33/40/39
f 46/53/40 48/55/40 35/42/40
f 47/54/41 45/52/41 44/51/41
f 43/50/42 45/52/42 38/45/42
f 40/47/43 42/49/43 47/54/43
f 39/46/44 38/45/44 42/49/44
f 37/44/45 39/46/45 26/33/45
f 29/59/46 28/385/46 41/48/46
f 31/38/47 43/50/47 37/44/47
f 27/56/48 30/37/48 36/43/48
f 41/48/49 28/385/49 26/60/49
f 34/61/50 29/386/50 40/47/50
f 35/42/51 48/55/51 44/51/51
f 45/52/52 47/54/52 42/49/52
f 49/63/61 51/65/61 56/39/61
f 52/66/62 54/68/62 51/86/62
f 58/71/63 60/73/63 54/68/63
f 57/88/64 56/89/64 60/73/64
f 55/69/65 57/70/65 68/81/65
f 58/71/66 70/83/66 72/85/66
f 69/82/67 68/81/67 72/85/67
f 61/74/68 67/80/68 69/82/68
f 64/77/69 66/79/69 71/84/69
f 65/78/70 63/76/70 62/75/70
f 61/74/71 63/76/71 50/64/71
f 53/59/72 52/387/72 65/78/72
f 67/80/73 61/74/73 49/63/73
f 54/68/74 60/73/74 56/89/74
f 65/78/75 52/387/75 50/90/75
f 58/61/76 53/386/76 64/77/76
f 59/72/77 72/85/77 68/81/77
f 71/84/78 66/79/78 62/75/78
f 79/97/87 73/91/87 75/93/87
f 74/114/88 76/94/88 78/96/88
f 77/95/89 82/99/89 84/101/89
f 83/100/90 81/120/90 80/116/90
f 91/108/91 79/97/91 81/70/91
f 82/99/92 94/111/92 96/113/92
f 95/112/93 93/110/93 92/109/93
f 91/108/94 93/110/94 86/103/94
f 88/105/95 90/107/95 95/112/95
f 89/106/96 87/104/96 86/103/96
f 73/91/352 85/102/352 87/104/352
f 88/105/98 77/59/98 76/117/98
f 91/108/99 85/102/99 73/91/99
f 78/96/100 84/101/100 80/116/100
f 89/106/101 76/117/101 74/118/101
f 94/111/102 82/388/102 77/119/102
f 83/100/103 96/113/103 92/109/103
f 95/112/104 90/107/104 86/103/104
f 169/210/176 163/204/176 165/206/176
f 166/207/177 168/209/177 165/228/177
f 172/213/178 174/215/178 168/209/178
f 171/230/179 170/232/179 174/215/179
f 169/210/180 171/212/180 182/223/180
f 184/225/181 186/227/181 173/214/181
f 183/224/182 182/223/182 186/227/182
f 181/222/361 183/224/361 176/217/361
f 178/219/184 180/221/184 185/226/184
f 179/220/185 177/218/185 176/217/185
f 175/216/186 177/218/186 164/205/186
f 167/231/187 166/404/187 179/220/187
f 169/210/188 181/222/188 175/216/188
f 168/209/189 174/215/189 170/232/189
f 179/220/190 166/404/190 164/233/190
f 172/234/191 167/405/191 178/219/191
f 171/230/192 173/214/192 186/227/192
f 185/226/193 180/221/193 176/217/193
f 235/287/254 237/289/254 242/294/254
f 238/311/255 240/314/255 237/312/255
f 244/296/256 246/298/256 240/314/256
f 243/316/257 242/317/257 246/298/257
f 241/293/258 243/295/258 254/306/258
f 244/296/259 256/308/259 258/310/259
f 255/307/260 254/306/260 258/310/260
f 253/305/261 255/307/261 248/300/261
f 250/302/262 252/304/262 257/309/262
f 251/303/263 249/301/263 248/300/263
f 247/299/264 249/301/264 236/288/264
f 250/302/265 239/291/265 238/290/265
f 241/293/266 253/305/266 247/299/266
f 237/312/267 240/314/267 246/298/267
f 249/301/268 251/303/268 238/290/268
f 244/319/269 239/406/269 250/302/269
f 243/316/270 245/297/270 258/310/270
f 255/307/271 257/309/271 252/304/271
usemtl rope
f 97/121/105 100/122/105 99/123/105
f 99/123/106 102/124/106 101/125/106
f 101/125/107 104/126/107 103/127/107
f 103/127/108 106/128/108 105/129/108
f 106/128/109 107/130/109 105/129/109
f 108/131/110 109/132/110 107/130/110
f 110/133/111 111/134/111 109/132/111
f 98/135/112 108/136/112 104/137/112
f 112/138/113 113/139/113 111/134/113
f 113/139/114 98/140/114 97/141/114
f 99/142/115 107/143/115 111/144/115
f 115/145/116 116/146/116 117/147/116
f 118/148/117 119/149/117 120/150/117
f 121/151/118 122/152/118 123/153/118
f 124/154/119 125/155/119 126/156/119
f 127/157/120 128/158/120 129/159/120
f 130/160/121 131/161/121 132/162/121
f 133/163/122 134/164/122 135/165/122
f 136/166/123 137/167/123 138/168/123
f 115/145/124 122/152/124 121/151/124
f 118/169/125 117/170/125 116/171/125
f 119/172/126 126/156/126 120/173/126
f 123/174/127 126/156/127 125/155/127
f 121/151/128 134/164/128 133/163/128
f 136/166/129 125/155/129 124/154/129
f 137/167/130 134/164/130 138/168/130
f 127/157/131 135/165/131 128/158/131
f 136/166/132 132/162/132 137/167/132
f 129/159/133 132/162/133 131/161/133
f 127/157/134 116/146/134 115/145/134
f 119/149/135 131/161/135 130/160/135
f 121/151/136 127/157/136 115/145/136
f 120/173/137 122/175/137 117/170/137
f 131/161/138 116/176/138 129/159/138
f 124/177/139 130/160/139 136/166/139
f 123/174/140 138/168/140 134/164/140
f 137/167/141 128/158/141 135/165/141
f 139/178/142 140/179/142 141/147/142
f 142/180/143 143/181/143 144/182/143
f 145/151/144 146/152/144 147/153/144
f 148/183/145 149/184/145 150/185/145
f 151/186/146 152/187/146 153/188/146
f 154/189/147 155/190/147 156/191/147
f 157/163/148 158/192/148 159/193/148
f 160/194/149 161/195/149 162/196/149
f 145/151/150 141/147/150 146/152/150
f 142/197/151 141/198/151 140/199/151
f 143/172/152 150/185/152 144/200/152
f 149/184/153 146/201/153 150/185/153
f 157/163/154 147/153/154 158/192/154
f 148/183/155 162/196/155 149/184/155
f 161/195/156 158/192/156 162/196/156
f 157/163/157 152/187/157 151/186/157
f 154/189/158 161/195/158 160/194/158
f 153/188/159 156/191/159 155/190/159
f 151/186/160 140/179/160 139/178/160
f 143/181/161 155/190/161 154/189/161
f 157/163/162 139/178/162 145/151/162
f 144/200/163 146/201/163 141/198/163
f 153/188/164 142/180/164 140/202/164
f 148/177/165 154/189/165 160/194/165
f 149/184/166 158/192/166 147/203/166
f 159/193/167 156/191/167 152/187/167
f 187/235/194 188/236/194 189/147/194
f 190/237/195 191/238/195 192/239/195
f 193/240/196 194/241/196 195/153/196
f 196/242/197 197/243/197 198/244/197
f 199/245/198 200/246/198 201/247/198
f 202/248/199 203/249/199 204/250/199
f 205/251/200 206/252/200 207/253/200
f 208/254/201 209/255/201 210/256/201
f 193/240/202 189/147/202 194/241/202
f 190/257/203 189/258/203 188/259/203
f 196/242/204 192/260/204 191/261/204
f 195/262/205 198/244/205 197/243/205
f 193/240/206 206/252/206 205/251/206
f 208/254/207 197/243/207 196/242/207
f 207/253/208 210/256/208 209/255/208
f 199/245/209 207/253/209 200/246/209
f 208/254/210 204/250/210 209/255/210
f 201/247/211 204/250/211 203/249/211
f 199/245/212 188/236/212 187/235/212
f 202/248/213 190/237/213 203/249/213
f 205/251/214 187/235/214 193/240/214
f 189/258/215 198/244/215 194/263/215
f 203/249/216 188/264/216 201/247/216
f 196/265/217 202/248/217 208/254/217
f 197/243/218 206/252/218 195/262/218
f 207/253/219 204/250/219 200/246/219
f 211/266/220 212/236/220 213/147/220
f 214/267/221 215/238/221 216/268/221
f 217/240/222 218/241/222 219/153/222
f 220/242/223 221/269/223 222/270/223
f 223/245/224 224/271/224 225/272/224
f 226/248/225 227/273/225 228/274/225
f 229/251/226 230/275/226 231/276/226
f 232/254/227 233/277/227 234/278/227
f 217/240/228 213/147/228 218/241/228
f 214/279/229 213/280/229 212/281/229
f 215/261/230 222/270/230 216/282/230
f 221/269/231 218/283/231 222/270/231
f 217/240/232 230/275/232 229/251/232
f 232/254/233 221/269/233 220/242/233
f 233/277/234 230/275/234 234/278/234
f 229/251/235 224/271/235 223/245/235
f 226/248/236 233/277/236 232/254/236
f 227/273/237 224/271/237 228/274/237
f 211/266/238 225/272/238 212/236/238
f 226/248/239 214/267/239 227/273/239
f 229/251/240 211/266/240 217/240/240
f 216/282/241 218/283/241 213/280/241
f 227/273/242 212/284/242 225/272/242
f 232/254/243 215/285/243 226/248/243
f 221/269/244 230/275/244 219/286/244
f 233/277/245 224/271/245 231/276/245
f 97/121/105 98/389/105 100/122/105
f 99/123/106 100/122/106 102/124/106
f 101/125/107 102/124/107 104/126/107
f 103/127/108 104/126/108 106/128/108
f 106/128/109 108/131/109 107/130/109
f 108/131/110 110/133/110 109/132/110
f 110/133/111 112/138/111 111/134/111
f 102/390/112 100/391/112 98/135/112
f 98/135/112 114/392/112 112/393/112
f 112/393/112 110/394/112 108/136/112
f 108/136/112 106/395/112 104/137/112
f 104/137/112 102/390/112 98/135/112
f 98/135/112 112/393/112 108/136/112
f 112/138/113 114/396/113 113/139/113
f 113/139/114 114/396/114 98/140/114
f 113/397/115 97/398/115 99/142/115
f 99/142/115 101/399/115 103/400/115
f 103/400/115 105/401/115 107/143/115
f 107/143/115 109/402/115 111/144/115
f 111/144/115 113/397/115 99/142/115
f 99/142/115 103/400/115 107/143/115
f 115/145/353 117/147/353 122/152/353
f 118/169/125 120/173/125 117/170/125
f 119/172/126 124/154/126 126/156/126
f 123/174/127 122/175/127 126/156/127
f 121/151/354 123/153/354 134/164/354
f 136/166/129 138/168/129 125/155/129
f 137/167/130 135/165/130 134/164/130
f 127/157/131 133/163/131 135/165/131
f 136/166/132 130/160/132 132/162/132
f 129/159/133 128/158/133 132/162/133
f 127/157/134 129/159/134 116/146/134
f 119/149/135 118/148/135 131/161/135
f 121/151/355 133/163/355 127/157/355
f 120/173/137 126/156/137 122/175/137
f 131/161/138 118/148/138 116/176/138
f 124/177/139 119/403/139 130/160/139
f 123/174/140 125/155/140 138/168/140
f 137/167/141 132/162/141 128/158/141
f 145/151/150 139/178/150 141/147/150
f 142/197/356 144/200/356 141/198/356
f 143/172/152 148/183/152 150/185/152
f 149/184/153 147/203/153 146/201/153
f 157/163/154 145/151/154 147/153/154
f 148/183/155 160/194/155 162/196/155
f 161/195/357 159/193/357 158/192/357
f 157/163/157 159/193/157 152/187/157
f 154/189/358 156/191/358 161/195/358
f 153/188/359 152/187/359 156/191/359
f 151/186/160 153/188/160 140/179/160
f 143/181/161 142/180/161 155/190/161
f 157/163/162 151/186/162 139/178/162
f 144/200/163 150/185/163 146/201/163
f 153/188/164 155/190/164 142/180/164
f 148/177/360 143/403/360 154/189/360
f 149/184/166 162/196/166 158/192/166
f 159/193/167 161/195/167 156/191/167
f 193/240/202 187/235/202 189/147/202
f 190/257/203 192/260/203 189/258/203
f 196/242/204 198/244/204 192/260/204
f 195/262/205 194/263/205 198/244/205
f 193/240/362 195/153/362 206/252/362
f 208/254/207 210/256/207 197/243/207
f 207/253/208 206/252/208 210/256/208
f 199/245/209 205/251/209 207/253/209
f 208/254/210 202/248/210 204/250/210
f 201/247/211 200/246/211 204/250/211
f 199/245/212 201/247/212 188/236/212
f 202/248/213 191/238/213 190/237/213
f 205/251/363 199/245/363 187/235/363
f 189/258/215 192/260/215 198/244/215
f 203/249/216 190/237/216 188/264/216
f 196/265/217 191/285/217 202/248/217
f 197/243/218 210/256/218 206/252/218
f 207/253/219 209/255/219 204/250/219
f 217/240/364 211/266/364 213/147/364
f 214/279/229 216/282/229 213/280/229
f 215/261/230 220/242/230 222/270/230
f 221/269/231 219/286/231 218/283/231
f 217/240/365 219/153/365 230/275/365
f 232/254/233 234/278/233 221/269/233
f 233/277/234 231/276/234 230/275/234
f 229/251/235 231/276/235 224/271/235
f 226/248/366 228/274/366 233/277/366
f 227/273/237 225/272/237 224/271/237
f 211/266/367 223/245/367 225/272/367
f 226/248/239 215/238/239 214/267/239
f 229/251/368 223/245/368 211/266/368
f 216/282/241 222/270/241 218/283/241
f 227/273/242 214/267/242 212/284/242
f 232/254/243 220/265/243 215/285/243
f 221/269/244 234/278/244 230/275/244
f 233/277/245 228/274/245 224/271/245
usemtl core
f 259/320/272 272/321/272 271/322/272
f 260/323/273 272/324/273 274/325/273
f 259/326/274 271/327/274 276/328/274
f 259/329/275 276/330/275 278/331/275
f 259/332/276 278/333/276 275/334/276
f 260/323/277 274/325/277 281/335/277
f 261/336/278 273/337/278 283/338/278
f 262/339/279 277/340/279 285/341/279
f 263/342/280 279/343/280 287/344/280
f 264/345/281 280/346/281 289/347/281
f 260/323/282 281/335/282 284/348/282
f 261/336/283 283/338/283 286/349/283
f 262/339/284 285/341/284 288/350/284
f 263/342/285 287/344/285 290/351/285
f 264/345/286 289/347/286 282/352/286
f 265/353/287 291/354/287 296/355/287
f 266/356/288 292/357/288 298/358/288
f 267/359/289 293/360/289 299/361/289
f 268/362/290 294/363/290 300/364/290
f 269/365/291 295/366/291 297/367/291
f 297/367/292 300/368/292 270/369/292
f 297/367/293 295/366/293 300/368/293
f 295/366/294 268/362/294 300/368/294
f 300/364/295 299/370/295 270/371/295
f 300/364/296 294/363/296 299/370/296
f 294/363/297 267/359/297 299/370/297
f 299/361/298 298/372/298 270/373/298
f 299/361/299 293/360/299 298/372/299
f 293/360/300 266/374/300 298/372/300
f 298/358/301 296/375/301 270/376/301
f 298/358/302 292/357/302 296/375/302
f 292/357/303 265/353/303 296/375/303
f 296/355/304 297/377/304 270/378/304
f 296/355/305 291/354/305 297/377/305
f 291/354/306 269/365/306 297/377/306
f 282/352/307 295/366/307 269/365/307
f 282/352/308 289/347/308 295/366/308
f 289/347/309 268/362/309 295/366/309
f 290/351/310 294/363/310 268/362/310
f 290/351/311 287/344/311 294/363/311
f 287/344/312 267/359/312 294/363/312
f 288/350/313 293/360/313 267/359/313
f 288/350/314 285/341/314 293/360/314
f 285/341/315 266/374/315 293/360/315
f 286/349/316 292/357/316 266/356/316
f 286/349/317 283/338/317 292/357/317
f 283/338/318 265/353/318 292/357/318
f 284/348/319 291/354/319 265/353/319
f 284/348/320 281/335/320 291/354/320
f 281/335/321 269/365/321 291/354/321
f 289/347/322 290/351/322 268/362/322
f 289/347/323 280/346/323 290/351/323
f 280/346/324 263/342/324 290/351/324
f 287/344/325 288/350/325 267/359/325
f 287/344/326 279/343/326 288/350/326
f 279/343/327 262/339/327 288/350/327
f 285/341/328 286/379/328 266/374/328
f 285/341/329 277/340/329 286/379/329
f 277/340/330 261/380/330 286/379/330
f 283/338/331 284/348/331 265/353/331
f 283/338/332 273/337/332 284/348/332
f 273/337/333 260/323/333 284/348/333
f 281/335/334 282/352/334 269/365/334
f 281/335/335 274/325/335 282/352/335
f 274/325/336 264/345/336 282/352/336
f 275/334/337 280/346/337 264/345/337
f 275/334/338 278/333/338 280/346/338
f 278/333/339 263/342/339 280/346/339
f 278/331/340 279/343/340 263/342/340
f 278/331/341 276/330/341 279/343/341
f 276/330/342 262/339/342 279/343/342
f 276/328/343 277/340/343 262/339/343
f 276/328/344 271/327/344 277/340/344
f 271/327/345 261/380/345 277/340/345
f 274/325/346 275/381/346 264/345/346
f 274/325/347 272/324/347 275/381/347
f 272/324/348 259/382/348 275/381/348
f 271/322/349 273/337/349 261/336/349
f 271/322/350 272/321/350 273/337/350
f 272/321/351 260/323/351 273/337/351
