# Blender 4.5.10 LTS
# www.blender.org
mtllib hod_jib_remodel_b.mtl
o hod_jib_remodel_b
v 0.669262 -0.118482 -0.068927
v 0.668622 -0.096669 -0.091103
v 0.690625 -0.095864 -0.069122
v 0.624659 1.444287 -0.103530
v 0.624044 1.466455 -0.081708
v 0.646663 1.445092 -0.081549
v 0.669350 -0.117221 0.087068
v 0.690714 -0.094603 0.086873
v 0.668735 -0.095053 0.108890
v 0.624133 1.467716 0.074287
v 0.624772 1.445903 0.096463
v 0.646751 1.446353 0.074446
v 0.513325 -0.122929 -0.068802
v 0.490707 -0.101566 -0.068962
v 0.512685 -0.101117 -0.090979
v 0.468108 1.462008 -0.081584
v 0.468723 1.439840 -0.103406
v 0.446744 1.439390 -0.081389
v 0.513414 -0.121669 0.087192
v 0.512799 -0.099501 0.109014
v 0.490795 -0.100306 0.087033
v 0.468196 1.463268 0.074411
v 0.446832 1.440651 0.074606
v 0.468836 1.441456 0.096587
v 0.579334 0.999159 -0.040670
v 0.567052 1.017912 -0.062245
v 0.585857 1.029579 -0.040376
v 0.322798 1.395493 -0.053643
v 0.311185 1.413677 -0.031227
v 0.341603 1.407159 -0.031774
v 0.580338 0.998305 0.025317
v 0.586861 1.028725 0.025611
v 0.568725 1.016489 0.047733
v 0.312190 1.412823 0.034760
v 0.324472 1.394070 0.056335
v 0.342607 1.406306 0.034213
v 0.523923 0.963305 -0.040290
v 0.493505 0.969823 -0.039743
v 0.511641 0.982058 -0.061865
v 0.255774 1.377823 -0.030847
v 0.267387 1.359639 -0.053264
v 0.249251 1.347404 -0.031142
v 0.524927 0.962452 0.025697
v 0.513314 0.980636 0.048113
v 0.494509 0.968969 0.026244
v 0.256779 1.376970 0.035139
v 0.250255 1.346550 0.034845
v 0.269061 1.358217 0.056714
v -0.491317 -0.118697 -0.086165
v -0.490998 -0.096418 -0.107880
v -0.469208 -0.096812 -0.085675
v -0.483318 1.438208 -0.088198
v -0.483417 1.459925 -0.065919
v -0.461529 1.437814 -0.065993
v -0.492801 -0.120690 0.069815
v -0.470693 -0.098805 0.070306
v -0.492900 -0.098973 0.092095
v -0.484902 1.457932 0.090061
v -0.485221 1.435653 0.111777
v -0.463013 1.435821 0.089987
v -0.647308 -0.117897 -0.087639
v -0.669197 -0.095787 -0.087565
v -0.646989 -0.095618 -0.109354
v -0.639408 1.460724 -0.067393
v -0.639309 1.439008 -0.089672
v -0.661517 1.438839 -0.067883
v -0.648792 -0.119890 0.068341
v -0.648891 -0.098174 0.090621
v -0.670681 -0.097780 0.068415
v -0.640893 1.458731 0.088587
v -0.663002 1.436846 0.088097
v -0.641212 1.436452 0.110302
v -0.526651 0.960706 -0.029808
v -0.515059 0.979292 -0.051904
v -0.496254 0.967331 -0.030194
v -0.268472 1.363313 -0.053923
v -0.256289 1.381751 -0.032022
v -0.249666 1.351352 -0.032213
v -0.525765 0.960484 0.036185
v -0.495368 0.967109 0.035799
v -0.513582 0.978922 0.058086
v -0.255403 1.381529 0.033971
v -0.266995 1.362943 0.056067
v -0.248780 1.351130 0.033780
v -0.582180 0.996367 -0.028943
v -0.588803 1.026766 -0.028752
v -0.570589 1.014953 -0.051038
v -0.311819 1.417412 -0.031157
v -0.324001 1.398974 -0.053057
v -0.342216 1.410787 -0.030771
v -0.581294 0.996145 0.037051
v -0.569112 1.014583 0.058951
v -0.587917 1.026544 0.037242
v -0.310933 1.417190 0.034837
v -0.341330 1.410565 0.035223
v -0.322524 1.398604 0.056932
v 0.707237 1.424967 -0.081324
v 0.707052 1.447019 -0.103271
v 0.728954 1.447246 -0.081175
v 0.705315 1.583007 -0.102946
v 0.704939 1.604952 -0.080893
v 0.727218 1.583234 -0.080850
v 0.706558 1.424585 0.074674
v 0.728275 1.446864 0.074823
v 0.706182 1.446529 0.096726
v 0.704260 1.604570 0.075105
v 0.704445 1.582518 0.097052
v 0.726539 1.582852 0.075148
v -0.689732 1.407143 -0.087448
v -0.712011 1.428861 -0.087491
v -0.689918 1.429195 -0.109395
v -0.692031 1.587128 -0.087017
v -0.691654 1.565184 -0.109069
v -0.713748 1.564849 -0.087166
v -0.690411 1.406761 0.068550
v -0.690788 1.428706 0.090603
v -0.712690 1.428479 0.068507
v -0.692710 1.586746 0.068981
v -0.714427 1.564467 0.068832
v -0.692525 1.564694 0.090928
v -0.060988 1.357077 -0.001946
v -0.051506 1.357098 -0.015398
v -0.035785 1.356766 -0.010540
v -0.035550 1.356538 0.005914
v -0.051126 1.356731 0.011226
v -0.050243 1.391499 -0.001624
v -0.042386 1.386318 -0.015125
v -0.029292 1.377566 -0.010346
v -0.029057 1.377339 0.006109
v -0.042006 1.385950 0.011500
v -0.022595 1.414652 -0.001698
v -0.018917 1.405971 -0.015188
v -0.012585 1.391557 -0.010391
v -0.012350 1.391329 0.006064
v -0.018537 1.405603 0.011436
v 0.013178 1.419183 -0.002146
v 0.011449 1.409818 -0.015568
v 0.009032 1.394295 -0.010661
v 0.009266 1.394068 0.005793
v 0.011829 1.409450 0.011056
v 0.045719 1.403656 -0.002825
v 0.039071 1.396637 -0.016144
v 0.028695 1.384912 -0.011071
v 0.028930 1.384685 0.005383
v 0.039451 1.396269 0.010480
v 0.064695 1.372999 -0.003519
v 0.055179 1.370614 -0.016734
v 0.040162 1.366387 -0.011491
v 0.040397 1.366159 0.004964
v 0.055559 1.370246 0.009891
v 0.064083 1.336946 -0.004008
v 0.054660 1.340010 -0.017149
v 0.039792 1.344601 -0.011787
v 0.040027 1.344373 0.004668
v 0.055039 1.339642 0.009475
v 0.044076 1.306943 -0.004137
v 0.037677 1.314542 -0.017259
v 0.027703 1.326471 -0.011865
v 0.027937 1.326243 0.004590
v 0.038057 1.314175 0.009366
v 0.011027 1.292516 -0.003865
v 0.009623 1.302296 -0.017027
v 0.007732 1.317753 -0.011700
v 0.007967 1.317526 0.004755
v 0.010003 1.301929 0.009597
v -0.024572 1.298246 -0.003278
v -0.020595 1.307160 -0.016529
v -0.013780 1.321215 -0.011345
v -0.013545 1.320988 0.005109
v -0.020215 1.306792 0.010095
v -0.051418 1.322314 -0.002563
v -0.043383 1.327590 -0.015922
v -0.030002 1.335759 -0.010913
v -0.029767 1.335531 0.005542
v -0.043003 1.327222 0.010703
v 0.002626 1.359795 0.011920
v 0.003930 1.354141 0.017638
v 0.009535 1.355481 0.011881
v 0.113212 0.881578 0.014071
v 0.114503 0.876008 0.008269
v 0.118818 0.882918 0.008314
v 0.002612 1.359886 -0.000559
v 0.009522 1.355572 -0.000598
v 0.003904 1.354316 -0.006362
v 0.114490 0.876099 -0.004211
v 0.113186 0.881753 -0.009928
v 0.118804 0.883009 -0.004165
v -0.009533 1.356983 0.011913
v -0.013847 1.350073 0.011867
v -0.008229 1.351329 0.017630
v 0.102344 0.873197 0.008261
v 0.101053 0.878766 0.014064
v 0.095435 0.877511 0.008301
v -0.009547 1.357074 -0.000567
v -0.008255 1.351504 -0.006369
v -0.013861 1.350164 -0.000612
v 0.102331 0.873288 -0.004218
v 0.095421 0.877602 -0.004179
v 0.101027 0.878941 -0.009936
v 0.000890 1.361673 0.007550
v -0.000370 1.356007 0.013266
v 0.005274 1.354807 0.007516
v -0.104083 0.885986 0.009609
v -0.105305 0.880402 0.003805
v -0.098439 0.884786 0.003859
v 0.000932 1.361760 -0.004930
v 0.005315 1.354895 -0.004964
v -0.000290 1.356177 -0.010734
v -0.105264 0.880490 -0.008675
v -0.104003 0.886155 -0.014391
v -0.098398 0.884874 -0.008621
v -0.011297 1.364362 0.007528
v -0.018162 1.359978 0.007474
v -0.012557 1.358697 0.013244
v -0.117492 0.883092 0.003784
v -0.116270 0.888676 0.009587
v -0.121875 0.889957 0.003817
v -0.011255 1.364450 -0.004951
v -0.012477 1.358866 -0.010755
v -0.018121 1.360066 -0.005005
v -0.117450 0.883180 -0.008696
v -0.121834 0.890045 -0.008662
v -0.116190 0.888845 -0.014412
v 0.134269 0.838091 -0.090644
v 0.134481 0.849932 -0.102799
v 0.146404 0.849955 -0.090722
v 0.134774 0.875929 -0.103137
v 0.134833 0.888084 -0.091294
v 0.146697 0.875951 -0.091060
v 0.133025 0.840652 0.105335
v 0.145159 0.852516 0.105257
v 0.133084 0.852808 0.117178
v 0.133589 0.890645 0.104685
v 0.133378 0.878804 0.116840
v 0.145453 0.878512 0.104919
v -0.118279 0.840920 -0.092285
v -0.130142 0.853052 -0.092519
v -0.118067 0.852761 -0.104439
v -0.117714 0.890913 -0.092935
v -0.117774 0.878757 -0.104777
v -0.129849 0.879049 -0.092857
v -0.119523 0.843481 0.103695
v -0.119464 0.855636 0.115537
v -0.131387 0.855614 0.103461
v -0.118959 0.893474 0.103045
v -0.131093 0.881610 0.103123
v -0.119170 0.881633 0.115199
v -0.008363 0.875514 0.008103
v -0.073522 0.934016 -0.040641
v 0.015854 0.931217 -0.071614
v 0.073017 0.933845 0.003755
v 0.018970 0.938266 0.081309
v -0.071596 0.938372 0.053869
v -0.032411 1.028505 -0.075115
v 0.058155 1.028399 -0.047675
v 0.060081 1.032755 0.046835
v -0.029294 1.035554 0.077808
v -0.086458 1.032926 0.002438
v -0.005077 1.091257 -0.001909
v 0.005583 0.889317 -0.037874
v -0.046951 0.890962 -0.019669
v -0.032717 0.923703 -0.066526
v -0.084118 0.927909 0.007231
v -0.045819 0.893522 0.035882
v 0.039183 0.890861 0.006426
v 0.053417 0.923603 -0.040430
v 0.007414 0.893460 0.052011
v 0.055249 0.927746 0.049456
v -0.029753 0.930407 0.078912
v -0.092854 0.983486 -0.022999
v -0.091722 0.986047 0.032553
v -0.008552 0.979242 -0.086789
v -0.061086 0.980887 -0.068584
v 0.078281 0.980724 -0.026359
v 0.044681 0.979180 -0.070661
v 0.047645 0.985884 0.074778
v 0.079413 0.983285 0.029193
v -0.058122 0.987591 0.076854
v -0.004889 0.987529 0.092983
v -0.068690 1.039025 -0.043262
v 0.016312 1.036364 -0.072718
v 0.070677 1.038862 -0.001038
v 0.019276 1.043068 0.072719
v -0.066858 1.043168 0.046624
v -0.020855 1.073311 -0.045817
v -0.052623 1.075910 -0.000233
v 0.032378 1.073249 -0.029689
v 0.033510 1.075809 0.025863
v -0.019023 1.077454 0.044068
vn 0.5933 -0.5653 -0.5731
vn 0.5603 0.5889 -0.5824
vn 0.5939 -0.5560 0.5815
vn 0.5610 0.5982 0.5722
vn -0.5610 -0.5982 -0.5722
vn -0.5939 0.5560 -0.5815
vn -0.5603 -0.5889 0.5824
vn -0.5932 0.5653 0.5731
vn 0.7270 -0.6866 0.0051
vn 0.7064 0.0144 -0.7076
vn 0.6867 0.7270 -0.0063
vn 0.7072 0.0259 0.7065
vn 0.0206 -0.7011 0.7128
vn -0.0198 0.7125 0.7014
vn -0.7064 -0.0144 0.7076
vn -0.6867 -0.7270 0.0063
vn -0.7270 0.6866 -0.0051
vn -0.7072 -0.0259 -0.7065
vn 0.0198 -0.7125 -0.7014
vn -0.0206 0.7011 -0.7128
vn 0.0285 -0.9996 0.0081
vn 0.9996 0.0285 -0.0008
vn -0.0006 -0.0081 -1.0000
vn -0.0285 0.9996 -0.0081
vn 0.0006 0.0081 1.0000
vn -0.9996 -0.0285 0.0008
vn 0.7895 -0.1636 -0.5916
vn 0.1624 0.8058 -0.5695
vn 0.8070 -0.1785 0.5629
vn 0.1800 0.7908 0.5850
vn -0.1800 -0.7908 -0.5850
vn -0.8070 0.1785 -0.5629
vn -0.1624 -0.8058 0.5695
vn -0.7895 0.1636 0.5916
vn 0.9777 -0.2095 -0.0176
vn 0.5829 0.3933 -0.7110
vn 0.2097 0.9777 0.0095
vn 0.6044 0.3750 0.7029
vn 0.3948 -0.6027 0.6934
vn -0.3732 0.5845 0.7205
vn -0.5829 -0.3933 0.7110
vn -0.2097 -0.9777 -0.0095
vn -0.9777 0.2095 0.0176
vn -0.6044 -0.3750 -0.7029
vn 0.3732 -0.5845 -0.7205
vn -0.3948 0.6027 -0.6934
vn 0.5431 -0.8395 -0.0191
vn 0.8396 0.5432 -0.0058
vn -0.0152 0.0129 -0.9998
vn -0.5431 0.8395 0.0191
vn 0.0152 -0.0129 0.9998
vn -0.8396 -0.5432 0.0058
vn 0.5799 -0.5729 -0.5792
vn 0.5857 0.5817 -0.5644
vn 0.5689 -0.5876 0.5753
vn 0.5747 0.5670 0.5901
vn -0.5747 -0.5670 -0.5901
vn -0.5689 0.5876 -0.5753
vn -0.5857 -0.5817 0.5644
vn -0.5799 0.5729 0.5792
vn 0.7035 -0.7107 -0.0024
vn 0.7138 0.0054 -0.7003
vn 0.7106 0.7034 0.0157
vn 0.7003 -0.0127 0.7137
vn -0.0103 -0.7161 0.6979
vn -0.0032 0.6980 0.7161
vn -0.7138 -0.0054 0.7003
vn -0.7106 -0.7034 -0.0157
vn -0.7035 0.7107 0.0024
vn -0.7003 0.0127 -0.7137
vn 0.0032 -0.6980 -0.7161
vn 0.0103 0.7161 -0.6979
vn -0.0050 -0.9999 -0.0128
vn 0.9999 -0.0051 0.0095
vn 0.0095 0.0128 -0.9999
vn 0.0050 0.9999 0.0128
vn -0.0095 -0.0128 0.9999
vn -0.9999 0.0051 -0.0094
vn 0.1661 -0.7958 -0.5823
vn 0.7900 0.1758 -0.5874
vn 0.1816 -0.7997 0.5723
vn 0.8055 0.1719 0.5672
vn -0.8055 -0.1719 -0.5672
vn -0.1816 0.7997 -0.5723
vn -0.7900 -0.1758 0.5874
vn -0.1661 0.7958 0.5823
vn 0.2129 -0.9771 -0.0061
vn 0.5854 -0.3797 -0.7163
vn 0.9770 0.2129 -0.0124
vn 0.6044 -0.3844 0.6978
vn -0.3726 -0.5974 0.7102
vn 0.3916 0.5926 0.7039
vn -0.5854 0.3797 0.7163
vn -0.9770 -0.2129 0.0124
vn -0.2129 0.9771 0.0061
vn -0.6044 0.3844 -0.6978
vn -0.3916 -0.5926 -0.7039
vn 0.3726 0.5974 -0.7102
vn -0.5403 -0.8415 0.0044
vn 0.8414 -0.5403 -0.0131
vn -0.0134 0.0034 -0.9999
vn 0.5403 0.8415 -0.0044
vn 0.0134 -0.0034 0.9999
vn -0.8414 0.5403 0.0131
vn 0.5872 -0.5685 -0.5762
vn 0.5724 0.5861 -0.5734
vn 0.5822 -0.5714 0.5785
vn 0.5674 0.5832 0.5813
vn -0.5674 -0.5833 -0.5813
vn -0.5822 0.5713 -0.5785
vn -0.5724 -0.5861 0.5734
vn -0.5872 0.5685 0.5762
vn 0.7161 -0.6980 0.0014
vn 0.7101 0.0108 -0.7040
vn 0.6980 0.7161 0.0048
vn 0.7040 0.0073 0.7102
vn 0.0060 -0.7088 0.7054
vn -0.0121 0.7053 0.7088
vn -0.7101 -0.0108 0.7040
vn -0.6980 -0.7161 -0.0048
vn -0.7161 0.6980 -0.0014
vn -0.7040 -0.0073 -0.7102
vn 0.0121 -0.7053 -0.7088
vn -0.0060 0.7088 -0.7054
vn 0.0128 -0.9999 -0.0024
vn 0.9999 0.0128 0.0044
vn 0.0044 0.0024 -1.0000
vn -0.0128 0.9999 0.0024
vn -0.0044 -0.0024 1.0000
vn -0.9999 -0.0128 -0.0044
vn -0.7912 0.2522 -0.5572
vn 0.2926 -0.0824 -0.9527
vn 0.9545 -0.2978 -0.0177
vn 0.3197 -0.1086 0.9413
vn -0.7748 0.2364 0.5863
vn -0.5347 0.6367 -0.5556
vn 0.1924 -0.2328 -0.9533
vn 0.6419 -0.7666 -0.0197
vn 0.2194 -0.2590 0.9406
vn -0.5184 0.6209 0.5880
vn -0.1111 0.8217 -0.5590
vn 0.0267 -0.3051 -0.9519
vn 0.1255 -0.9920 -0.0155
vn 0.0538 -0.3313 0.9420
vn -0.0948 0.8059 0.5845
vn 0.3452 0.7482 -0.5666
vn -0.1517 -0.2764 -0.9490
vn -0.4307 -0.9025 -0.0063
vn -0.1247 -0.3025 0.9450
vn 0.3615 0.7324 0.5769
vn 0.6893 0.4397 -0.5757
vn -0.2862 -0.1558 -0.9454
vn -0.8502 -0.5264 0.0049
vn -0.2592 -0.1819 0.9485
vn 0.7056 0.4239 0.5678
vn 0.8120 -0.0059 -0.5836
vn -0.3342 0.0185 -0.9423
vn -0.9998 0.0168 0.0145
vn -0.3072 -0.0077 0.9516
vn 0.8283 -0.0217 0.5599
vn 0.6743 -0.4471 -0.5878
vn -0.2803 0.1910 -0.9407
vn -0.8319 0.5546 0.0195
vn -0.2533 0.1648 0.9532
vn 0.6906 -0.4629 0.5557
vn 0.3199 -0.7439 -0.5868
vn -0.1418 0.3070 -0.9411
vn -0.3999 0.9164 0.0184
vn -0.1147 0.2808 0.9529
vn 0.3362 -0.7597 0.5567
vn -0.1387 -0.8019 -0.5811
vn 0.0375 0.3297 -0.9433
vn 0.1591 0.9872 0.0114
vn 0.0645 0.3036 0.9506
vn -0.1223 -0.8177 0.5624
vn -0.5558 -0.6029 -0.5724
vn 0.2006 0.2519 -0.9467
vn 0.6675 0.7446 0.0008
vn 0.2276 0.2257 0.9472
vn -0.5395 -0.6187 0.5711
vn -0.7990 -0.2100 -0.5635
vn 0.2957 0.0983 -0.9502
vn 0.9640 0.2656 -0.0101
vn 0.3227 0.0721 0.9437
vn -0.7827 -0.2258 0.5800
vn 0.4331 0.6884 0.5819
vn 0.6932 -0.4366 0.5734
vn 0.4318 0.6968 -0.5728
vn 0.6920 -0.4282 -0.5812
vn -0.6919 0.4282 0.5813
vn -0.4318 -0.6968 0.5728
vn -0.6932 0.4366 -0.5734
vn -0.4331 -0.6884 -0.5819
vn 0.5296 0.8482 0.0056
vn 0.6897 0.1542 0.7075
vn 0.8482 -0.5296 -0.0048
vn 0.6882 0.1645 -0.7067
vn -0.1601 0.6941 -0.7019
vn 0.1585 -0.6837 -0.7123
vn -0.6897 -0.1542 -0.7075
vn -0.8482 0.5296 0.0048
vn -0.5296 -0.8482 -0.0056
vn -0.6882 -0.1645 0.7067
vn -0.1585 0.6837 0.7123
vn 0.1601 -0.6941 0.7019
vn -0.2253 0.9743 0.0074
vn 0.9743 0.2253 0.0006
vn 0.0011 -0.0073 1.0000
vn 0.2253 -0.9743 -0.0074
vn -0.0011 0.0073 -1.0000
vn -0.9743 -0.2253 -0.0006
vn 0.6862 0.4353 0.5827
vn 0.4375 -0.6922 0.5739
vn 0.6901 0.4434 -0.5720
vn 0.4413 -0.6841 -0.5807
vn -0.4413 0.6841 0.5807
vn -0.6901 -0.4434 0.5719
vn -0.4375 0.6922 -0.5739
vn -0.6863 -0.4353 -0.5827
vn 0.8428 0.5381 0.0066
vn 0.6881 -0.1574 0.7083
vn 0.5381 -0.8428 -0.0041
vn 0.6928 -0.1474 -0.7059
vn 0.1547 0.6955 -0.7017
vn -0.1500 -0.6855 -0.7125
vn -0.6881 0.1574 -0.7083
vn -0.5382 0.8428 0.0042
vn -0.8429 -0.5381 -0.0066
vn -0.6928 0.1474 0.7059
vn 0.1500 0.6855 0.7125
vn -0.1547 -0.6955 0.7017
vn 0.2155 0.9765 0.0076
vn 0.9765 -0.2155 0.0017
vn -0.0033 -0.0070 1.0000
vn -0.2155 -0.9765 -0.0076
vn 0.0033 0.0070 -1.0000
vn -0.9765 0.2155 -0.0017
vn 0.5745 -0.5913 -0.5660
vn 0.5875 0.5633 -0.5810
vn 0.5671 -0.5762 0.5885
vn 0.5801 0.5783 0.5735
vn -0.5801 -0.5783 -0.5735
vn -0.5671 0.5762 -0.5885
vn -0.5875 -0.5633 0.5810
vn -0.5744 0.5913 0.5660
vn 0.6991 -0.7149 0.0138
vn 0.7115 -0.0172 -0.7024
vn 0.7150 0.6991 -0.0046
vn 0.7026 0.0013 0.7116
vn -0.0125 -0.6978 0.7162
vn 0.0035 0.7162 0.6978
vn -0.7115 0.0172 0.7024
vn -0.7150 -0.6991 0.0046
vn -0.6991 0.7149 -0.0138
vn -0.7026 -0.0013 -0.7116
vn -0.0035 -0.7162 -0.6978
vn 0.0125 0.6978 -0.7162
vn -0.0113 -0.9999 0.0130
vn 0.9999 -0.0112 0.0065
vn 0.0063 -0.0131 -0.9999
vn 0.0113 0.9999 -0.0130
vn -0.0063 0.0131 0.9999
vn -0.9999 0.0112 -0.0065
vn -0.1415 -0.9355 -0.3238
vn -0.7670 -0.5929 -0.2454
vn 0.2954 -0.9360 -0.1914
vn 0.3047 -0.9150 0.2645
vn -0.1265 -0.9015 0.4139
vn -0.9300 -0.2774 -0.2412
vn -0.0490 -0.3235 -0.9450
vn 0.8938 -0.3091 -0.3249
vn 0.5955 -0.2541 0.7621
vn -0.5317 -0.2345 0.8138
vn -0.8178 -0.1187 -0.5631
vn 0.2864 -0.1533 -0.9458
vn 0.9926 -0.1209 -0.0147
vn 0.3249 -0.0662 0.9434
vn -0.7940 -0.0649 0.6045
vn -0.4440 0.5678 -0.6932
vn 0.5025 0.5548 -0.6631
vn 0.7670 0.5929 0.2454
vn -0.0160 0.6295 0.7769
vn -0.7644 0.6139 0.1968
vn -0.2954 0.9360 0.1914
vn -0.5272 0.7634 0.3733
vn -0.4165 0.6299 0.6555
vn 0.1415 0.9355 0.3238
vn 0.2330 0.7625 0.6036
vn 0.5280 0.6124 0.5883
vn 0.4022 0.9142 -0.0503
vn 0.6867 0.7254 -0.0474
vn 0.7553 0.5664 -0.3299
vn 0.1265 0.9015 -0.4139
vn 0.2069 0.7033 -0.6801
vn -0.0487 0.5554 -0.8302
vn -0.3047 0.9150 -0.2645
vn -0.5434 0.7268 -0.4201
vn -0.7729 0.5947 -0.2212
vn -0.8938 0.3091 0.3249
vn -0.7845 0.1966 0.5881
vn -0.5645 0.3242 0.7591
vn 0.0490 0.3235 0.9450
vn 0.3266 0.1953 0.9248
vn 0.5639 0.3073 0.7665
vn 0.9300 0.2774 0.2412
vn 0.9896 0.1411 -0.0267
vn 0.9189 0.2523 -0.3033
vn 0.5317 0.2345 -0.8138
vn 0.2884 0.1088 -0.9513
vn 0.0099 0.2351 -0.9719
vn -0.5955 0.2541 -0.7621
vn -0.8081 0.1432 -0.5713
vn -0.9069 0.2795 -0.3153
vn -0.2864 0.1533 0.9458
vn -0.2884 -0.1088 0.9513
vn -0.0099 -0.2351 0.9719
vn 0.8178 0.1187 0.5631
vn 0.8081 -0.1432 0.5713
vn 0.9069 -0.2795 0.3153
vn 0.7940 0.0649 -0.6045
vn 0.7845 -0.1966 -0.5881
vn 0.5645 -0.3242 -0.7591
vn -0.3249 0.0662 -0.9434
vn -0.3266 -0.1953 -0.9248
vn -0.5639 -0.3073 -0.7665
vn -0.9926 0.1209 0.0147
vn -0.9896 -0.1411 0.0267
vn -0.9189 -0.2523 0.3033
vn -0.5025 -0.5547 0.6631
vn -0.2069 -0.7033 0.6801
vn 0.0487 -0.5554 0.8302
vn 0.4440 -0.5678 0.6932
vn 0.5434 -0.7268 0.4201
vn 0.7729 -0.5947 0.2212
vn 0.7644 -0.6139 -0.1968
vn 0.5272 -0.7634 -0.3733
vn 0.4165 -0.6299 -0.6555
vn -0.7553 -0.5664 0.3299
vn -0.6867 -0.7254 0.0474
vn -0.4022 -0.9142 0.0503
vn 0.0160 -0.6295 -0.7769
vn -0.2330 -0.7625 -0.6036
vn -0.5280 -0.6124 -0.5883
vn 0.9999 -0.0051 0.0094
vn -0.9999 0.0051 -0.0095
vn 0.6419 -0.7666 -0.0198
vn -0.4308 -0.9024 -0.0063
vn 0.3362 -0.7596 0.5567
vn -0.1387 -0.8020 -0.5811
vn -0.5394 -0.6187 0.5711
vn 0.6881 0.1645 -0.7067
vn 0.1586 -0.6837 -0.7123
vn 0.8429 0.5381 0.0066
vn -0.5381 0.8428 0.0041
vn -0.8428 -0.5381 -0.0066
vt 0.152500 0.722500
vt 0.152500 0.750000
vt 0.125000 0.722500
vt 0.621531 0.000000
vt 0.625000 0.027500
vt 0.621531 0.027500
vt 0.152500 0.527500
vt 0.125000 0.527500
vt 0.152500 0.500000
vt 0.625000 0.248862
vt 0.621531 0.277461
vt 0.621531 0.222500
vt 0.347500 0.722500
vt 0.378464 0.722500
vt 0.377913 0.777006
vt 0.648292 0.730915
vt 0.621531 0.777500
vt 0.621531 0.722539
vt 0.347500 0.527500
vt 0.377913 0.472994
vt 0.378464 0.527500
vt 0.648293 0.519085
vt 0.621531 0.527461
vt 0.621531 0.472500
vt 0.378469 0.000000
vt 0.378469 0.027500
vt 0.378469 0.222500
vt 0.625000 0.972500
vt 0.378469 0.972500
vt 0.847500 0.527500
vt 0.378469 0.277500
vt 0.175000 0.700000
vt 0.175000 0.750000
vt 0.125000 0.700000
vt 0.613861 0.000000
vt 0.625000 0.050000
vt 0.613861 0.050000
vt 0.175000 0.550000
vt 0.125000 0.550000
vt 0.175000 0.500000
vt 0.625000 0.245369
vt 0.613861 0.299546
vt 0.613861 0.200000
vt 0.325000 0.700000
vt 0.386037 0.700000
vt 0.382863 0.797321
vt 0.661081 0.727838
vt 0.613862 0.800000
vt 0.613861 0.700454
vt 0.325000 0.550000
vt 0.382863 0.452679
vt 0.386037 0.550000
vt 0.661081 0.522162
vt 0.613862 0.549546
vt 0.613861 0.450000
vt 0.386139 0.000000
vt 0.386139 0.050000
vt 0.386139 0.300000
vt 0.613861 0.950000
vt 0.386139 0.200000
vt 0.386139 0.950000
vt 0.825000 0.700000
vt 0.152500 0.722500
vt 0.621516 0.000000
vt 0.625000 0.027500
vt 0.621516 0.027500
vt 0.152500 0.527500
vt 0.152500 0.500000
vt 0.625000 0.248862
vt 0.621516 0.277461
vt 0.621516 0.222500
vt 0.347500 0.722500
vt 0.378479 0.722500
vt 0.377925 0.777004
vt 0.648293 0.730915
vt 0.621516 0.777500
vt 0.621516 0.722539
vt 0.347500 0.527500
vt 0.377925 0.472996
vt 0.378479 0.527500
vt 0.648293 0.519085
vt 0.621516 0.527461
vt 0.621516 0.472500
vt 0.378484 0.027500
vt 0.378484 0.000000
vt 0.378484 0.277500
vt 0.621516 0.972500
vt 0.378484 0.222500
vt 0.378484 0.972500
vt 0.175000 0.700000
vt 0.125000 0.700000
vt 0.614008 0.000000
vt 0.625000 0.050000
vt 0.614008 0.050000
vt 0.175000 0.550000
vt 0.125000 0.550000
vt 0.625000 0.245370
vt 0.614008 0.299552
vt 0.614008 0.200000
vt 0.325000 0.700000
vt 0.385893 0.700000
vt 0.382769 0.797358
vt 0.661081 0.727838
vt 0.614008 0.800000
vt 0.614008 0.700448
vt 0.382769 0.452642
vt 0.385893 0.550000
vt 0.661081 0.522162
vt 0.614008 0.549552
vt 0.614008 0.450000
vt 0.385992 0.050000
vt 0.385992 0.000000
vt 0.385992 0.200000
vt 0.614008 0.950000
vt 0.385992 0.950000
vt 0.825000 0.550000
vt 0.385992 0.300000
vt 0.128817 0.722500
vt 0.128817 0.750000
vt 0.125000 0.722500
vt 0.594445 0.000000
vt 0.625000 0.027500
vt 0.594444 0.027500
vt 0.128817 0.527500
vt 0.125000 0.527500
vt 0.128817 0.500000
vt 0.625000 0.250429
vt 0.594444 0.253810
vt 0.594444 0.222500
vt 0.371183 0.722500
vt 0.405139 0.722500
vt 0.399221 0.753113
vt 0.628189 0.727653
vt 0.594444 0.753817
vt 0.594444 0.722875
vt 0.371183 0.527500
vt 0.399221 0.496887
vt 0.405139 0.527500
vt 0.628188 0.522346
vt 0.594444 0.527125
vt 0.594444 0.496183
vt 0.405556 0.027500
vt 0.405556 0.000000
vt 0.405556 0.222500
vt 0.594444 0.996184
vt 0.405556 0.996183
vt 0.871183 0.527500
vt 0.405555 0.253817
vt 0.545455 0.600000
vt 0.636364 0.800000
vt 0.545455 0.800000
vt 0.545455 1.000000
vt 0.636364 0.000000
vt 0.545455 0.200000
vt 0.545455 0.000000
vt 0.636364 0.400000
vt 0.545455 0.400000
vt 0.727273 0.600000
vt 0.636364 0.600000
vt 0.727273 1.000000
vt 0.636364 1.000000
vt 0.727273 0.200000
vt 0.636364 0.200000
vt 0.727273 0.400000
vt 0.818182 0.600000
vt 0.727273 0.800000
vt 0.818182 1.000000
vt 0.818182 0.000000
vt 0.727273 0.000000
vt 0.818182 0.200000
vt 0.818182 0.400000
vt 0.909091 0.800000
vt 0.818182 0.800000
vt 0.909091 1.000000
vt 0.909091 0.000000
vt 0.909091 0.200000
vt 0.909091 0.400000
vt 0.909091 0.600000
vt 1.000000 0.800000
vt 1.000000 1.000000
vt 1.000000 0.000000
vt 1.000000 0.400000
vt 1.000000 0.600000
vt 0.000000 0.600000
vt 0.090909 0.800000
vt 0.000000 0.800000
vt 0.000000 1.000000
vt 0.090909 0.000000
vt 0.000000 0.200000
vt 0.000000 0.000000
vt 0.090909 0.200000
vt 0.000000 0.400000
vt 0.090909 0.600000
vt 0.181818 0.800000
vt 0.090909 1.000000
vt 0.181818 0.200000
vt 0.090909 0.400000
vt 0.181818 0.600000
vt 0.272727 0.600000
vt 0.272727 0.800000
vt 0.181818 1.000000
vt 0.181818 0.000000
vt 0.272727 0.200000
vt 0.181818 0.400000
vt 0.363636 0.600000
vt 0.363636 1.000000
vt 0.272727 1.000000
vt 0.272727 0.000000
vt 0.363636 0.200000
vt 0.272727 0.400000
vt 0.454545 0.800000
vt 0.363636 0.800000
vt 0.454545 0.000000
vt 0.363636 0.000000
vt 0.454545 0.200000
vt 0.363636 0.400000
vt 0.454545 0.400000
vt 0.454545 0.600000
vt 0.454545 1.000000
vt 0.185000 0.690000
vt 0.185000 0.750000
vt 0.125000 0.690000
vt 0.622100 0.940000
vt 0.625000 0.940000
vt 0.622100 1.000000
vt 0.185000 0.560000
vt 0.125000 0.560000
vt 0.185000 0.500000
vt 0.625000 0.257429
vt 0.622100 0.310000
vt 0.622100 0.190170
vt 0.315000 0.690000
vt 0.377892 0.690000
vt 0.377091 0.809228
vt 0.664826 0.730348
vt 0.622100 0.810000
vt 0.622100 0.690170
vt 0.315000 0.560000
vt 0.377091 0.440772
vt 0.377892 0.560000
vt 0.664826 0.528543
vt 0.622100 0.560000
vt 0.622100 0.440170
vt 0.622100 0.000000
vt 0.377900 0.060000
vt 0.377900 0.000000
vt 0.622100 0.060000
vt 0.625000 0.060000
vt 0.377900 0.190000
vt 0.377900 0.940000
vt 0.815000 0.690000
vt 0.377900 0.310000
vt 0.185000 0.690000
vt 0.185000 0.750000
vt 0.125000 0.690000
vt 0.622078 0.940000
vt 0.625000 0.940000
vt 0.622078 1.000000
vt 0.185000 0.500000
vt 0.625000 0.257429
vt 0.622078 0.310000
vt 0.622078 0.190171
vt 0.315000 0.690000
vt 0.377913 0.690000
vt 0.377106 0.809222
vt 0.664826 0.730348
vt 0.622078 0.810000
vt 0.622078 0.690172
vt 0.315000 0.560000
vt 0.377106 0.440778
vt 0.377913 0.560000
vt 0.622078 0.560000
vt 0.622078 0.440171
vt 0.622078 0.000000
vt 0.377922 0.060000
vt 0.377922 0.000000
vt 0.622078 0.060000
vt 0.377922 0.310000
vt 0.377922 0.190000
vt 0.377922 0.940000
vt 0.135847 0.736364
vt 0.135847 0.750000
vt 0.125000 0.736364
vt 0.565000 0.989153
vt 0.625000 0.989153
vt 0.565000 1.000000
vt 0.135847 0.513636
vt 0.125000 0.513636
vt 0.135847 0.500000
vt 0.625000 0.250322
vt 0.565000 0.260847
vt 0.565000 0.236553
vt 0.364153 0.736364
vt 0.434168 0.736364
vt 0.407633 0.756657
vt 0.635011 0.738250
vt 0.565000 0.760847
vt 0.565000 0.736553
vt 0.364153 0.513636
vt 0.407633 0.493343
vt 0.434168 0.513636
vt 0.635011 0.511803
vt 0.565000 0.513636
vt 0.565000 0.489271
vt 0.435000 0.000000
vt 0.565000 0.013636
vt 0.435000 0.013636
vt 0.625000 0.013636
vt 0.435000 0.260847
vt 0.435000 0.236364
vt 0.435000 0.989153
vt 0.864153 0.513636
vt 0.181819 0.000000
vt 0.227273 0.078731
vt 0.136365 0.078731
vt 0.272728 0.157461
vt 0.318182 0.078731
vt 0.363637 0.157461
vt 0.909091 0.000000
vt 0.954545 0.078731
vt 0.863636 0.078731
vt 0.727273 0.000000
vt 0.772727 0.078731
vt 0.681818 0.078731
vt 0.545455 0.000000
vt 0.590909 0.078731
vt 0.500000 0.078731
vt 0.318182 0.236191
vt 0.090910 0.157461
vt 0.181819 0.157461
vt 0.136365 0.236191
vt 0.818182 0.157461
vt 0.909091 0.157461
vt 0.863636 0.236191
vt 0.636364 0.157461
vt 0.727273 0.157461
vt 0.681818 0.236191
vt 0.454546 0.157461
vt 0.545455 0.157461
vt 0.500000 0.236191
vt 0.227273 0.236191
vt 0.045455 0.236191
vt 0.772727 0.236191
vt 0.590909 0.236191
vt 0.409092 0.236191
vt 0.181819 0.314921
vt 0.272728 0.314921
vt 0.227273 0.393651
vt 0.000000 0.314921
vt 0.090910 0.314921
vt 0.045455 0.393651
vt 0.727273 0.314921
vt 0.818182 0.314921
vt 0.772727 0.393651
vt 0.545455 0.314921
vt 0.636364 0.314921
vt 0.590909 0.393651
vt 0.363637 0.314921
vt 0.454546 0.314921
vt 0.409092 0.393651
vt 0.500000 0.393651
vt 0.454546 0.472382
vt 0.681818 0.393651
vt 0.636364 0.472382
vt 0.863636 0.393651
vt 0.818182 0.472382
vt 0.909091 0.314921
vt 0.136365 0.393651
vt 0.090910 0.472382
vt 0.318182 0.393651
vt 0.272728 0.472382
vt 0.954545 0.236191
vt 1.000000 0.157461
vt 0.409092 0.078731
vt 0.363637 0.000000
vt 0.621531 0.972500
vt 0.847500 0.722500
vt 0.625000 0.950000
vt 0.625000 0.996184
vt 0.871183 0.722500
vt 1.000000 0.200000
vt 0.815000 0.560000
vt 0.565000 0.000000
vt 0.864153 0.736364
s 0
usemtl wood
f 1/1/1 2/2/1 3/3/1
f 4/4/2 5/5/2 6/6/2
f 7/7/3 8/8/3 9/9/3
f 10/10/4 11/11/4 12/12/4
f 13/13/5 14/14/5 15/15/5
f 16/16/6 17/17/6 18/18/6
f 19/19/7 20/20/7 21/21/7
f 22/22/8 23/23/8 24/24/8
f 1/1/9 8/8/9 7/7/9
f 2/25/10 6/6/10 3/26/10
f 10/10/11 6/6/11 5/5/11
f 11/11/12 8/27/12 12/12/12
f 7/7/13 20/20/13 19/19/13
f 10/10/14 24/24/14 11/11/14
f 21/21/15 24/24/15 23/23/15
f 19/19/16 14/14/16 13/13/16
f 16/16/17 23/23/17 22/22/17
f 15/15/18 18/18/18 17/17/18
f 13/13/19 2/2/19 1/1/19
f 5/28/20 17/17/20 16/16/20
f 19/19/21 1/1/21 7/7/21
f 6/6/22 8/27/22 3/26/22
f 17/17/23 2/29/23 15/15/23
f 10/30/24 16/16/24 22/22/24
f 11/11/25 20/20/25 9/31/25
f 21/21/26 18/18/26 14/14/26
f 25/32/27 26/33/27 27/34/27
f 28/35/28 29/36/28 30/37/28
f 31/38/29 32/39/29 33/40/29
f 34/41/30 35/42/30 36/43/30
f 37/44/31 38/45/31 39/46/31
f 40/47/32 41/48/32 42/49/32
f 43/50/33 44/51/33 45/52/33
f 46/53/34 47/54/34 48/55/34
f 31/38/35 27/34/35 32/39/35
f 26/56/36 30/37/36 27/57/36
f 34/41/37 30/37/37 29/36/37
f 33/58/38 36/43/38 35/42/38
f 31/38/39 44/51/39 43/50/39
f 46/53/40 35/42/40 34/41/40
f 45/52/41 48/55/41 47/54/41
f 43/50/42 38/45/42 37/44/42
f 46/53/43 42/49/43 47/54/43
f 39/46/44 42/49/44 41/48/44
f 25/32/45 39/46/45 26/33/45
f 40/47/46 28/59/46 41/48/46
f 31/38/47 37/44/47 25/32/47
f 30/37/48 32/60/48 27/57/48
f 41/48/49 26/61/49 39/46/49
f 46/53/50 29/62/50 40/47/50
f 33/58/51 48/55/51 44/51/51
f 45/52/52 42/49/52 38/45/52
f 49/63/53 50/2/53 51/3/53
f 52/64/54 53/65/54 54/66/54
f 55/67/55 56/8/55 57/68/55
f 58/69/56 59/70/56 60/71/56
f 61/72/57 62/73/57 63/74/57
f 64/75/58 65/76/58 66/77/58
f 67/78/59 68/79/59 69/80/59
f 70/81/60 71/82/60 72/83/60
f 49/63/61 56/8/61 55/67/61
f 52/64/62 51/84/62 50/85/62
f 53/65/63 60/71/63 54/66/63
f 57/86/64 60/71/64 59/70/64
f 55/67/65 68/79/65 67/78/65
f 58/69/66 72/83/66 59/70/66
f 69/80/67 72/83/67 71/82/67
f 61/72/68 69/80/68 62/73/68
f 70/81/69 66/77/69 71/82/69
f 63/74/70 66/77/70 65/76/70
f 49/63/71 63/74/71 50/2/71
f 64/75/72 52/87/72 65/76/72
f 67/78/73 49/63/73 55/67/73
f 54/66/74 56/88/74 51/84/74
f 65/76/75 50/89/75 63/74/75
f 58/30/76 64/75/76 70/81/76
f 59/70/77 68/79/77 57/86/77
f 71/82/78 62/73/78 69/80/78
f 73/90/79 74/33/79 75/91/79
f 76/92/80 77/93/80 78/94/80
f 79/95/81 80/96/81 81/40/81
f 82/97/82 83/98/82 84/99/82
f 85/100/83 86/101/83 87/102/83
f 88/103/84 89/104/84 90/105/84
f 91/50/85 92/106/85 93/107/85
f 94/108/86 95/109/86 96/110/86
f 79/95/87 75/91/87 80/96/87
f 76/92/88 75/111/88 74/112/88
f 77/93/89 84/99/89 78/94/89
f 83/98/90 80/113/90 84/99/90
f 91/50/91 81/40/91 92/106/91
f 94/108/92 83/98/92 82/97/92
f 95/109/93 92/106/93 96/110/93
f 91/50/94 86/101/94 85/100/94
f 94/108/95 90/105/95 95/109/95
f 87/102/96 90/105/96 89/104/96
f 85/100/97 74/33/97 73/90/97
f 88/103/98 76/114/98 89/104/98
f 79/95/99 85/100/99 73/90/99
f 78/94/100 80/113/100 75/111/100
f 89/104/101 74/115/101 87/102/101
f 82/116/102 88/103/102 94/108/102
f 83/98/103 92/106/103 81/117/103
f 95/109/104 86/101/104 93/107/104
f 97/118/105 98/119/105 99/120/105
f 100/121/106 101/122/106 102/123/106
f 103/124/107 104/125/107 105/126/107
f 106/127/108 107/128/108 108/129/108
f 109/130/109 110/131/109 111/132/109
f 112/133/110 113/134/110 114/135/110
f 115/136/111 116/137/111 117/138/111
f 118/139/112 119/140/112 120/141/112
f 97/118/113 104/125/113 103/124/113
f 100/121/114 99/142/114 98/143/114
f 106/127/115 102/123/115 101/122/115
f 107/128/116 104/144/116 108/129/116
f 103/124/117 116/137/117 115/136/117
f 106/127/118 120/141/118 107/128/118
f 119/140/119 116/137/119 120/141/119
f 115/136/120 110/131/120 109/130/120
f 112/133/121 119/140/121 118/139/121
f 113/134/122 110/131/122 114/135/122
f 109/130/123 98/119/123 97/118/123
f 112/133/124 100/145/124 113/134/124
f 103/124/125 109/130/125 97/118/125
f 99/142/126 108/129/126 104/144/126
f 113/134/127 98/146/127 111/132/127
f 106/147/128 112/133/128 118/139/128
f 107/128/129 116/137/129 105/148/129
f 119/140/130 110/131/130 117/138/130
f 224/281/238 225/282/238 226/283/238
f 227/284/239 228/285/239 229/286/239
f 230/287/240 231/288/240 232/289/240
f 233/290/241 234/291/241 235/292/241
f 236/293/242 237/294/242 238/295/242
f 239/296/243 240/297/243 241/298/243
f 242/299/244 243/300/244 244/301/244
f 245/302/245 246/303/245 247/304/245
f 224/281/246 231/288/246 230/287/246
f 225/305/247 229/306/247 226/307/247
f 233/290/248 229/306/248 228/308/248
f 232/309/249 235/292/249 234/291/249
f 242/299/250 232/289/250 243/300/250
f 233/290/251 247/304/251 234/291/251
f 246/303/252 243/300/252 247/304/252
f 236/293/253 244/301/253 237/294/253
f 239/296/254 246/303/254 245/302/254
f 240/297/255 237/294/255 241/298/255
f 236/293/256 225/282/256 224/281/256
f 228/285/257 240/297/257 239/296/257
f 242/299/258 224/281/258 230/287/258
f 229/306/259 231/310/259 226/307/259
f 240/297/260 225/311/260 238/295/260
f 233/312/261 239/296/261 245/302/261
f 232/309/262 247/304/262 243/300/262
f 246/303/263 237/294/263 244/301/263
f 1/1/9 3/3/9 8/8/9
f 2/25/10 4/4/10 6/6/10
f 10/10/11 12/12/11 6/6/11
f 11/11/12 9/31/12 8/27/12
f 7/7/13 9/9/13 20/20/13
f 10/10/14 22/22/14 24/24/14
f 21/21/15 20/20/15 24/24/15
f 19/19/16 21/21/16 14/14/16
f 16/16/17 18/18/17 23/23/17
f 15/15/18 14/14/18 18/18/18
f 13/13/19 15/15/19 2/2/19
f 5/28/20 4/376/20 17/17/20
f 19/19/21 13/13/21 1/1/21
f 6/6/22 12/12/22 8/27/22
f 17/17/23 4/376/23 2/29/23
f 10/30/24 5/377/24 16/16/24
f 11/11/25 24/24/25 20/20/25
f 21/21/26 23/23/26 18/18/26
f 31/38/35 25/32/35 27/34/35
f 26/56/36 28/35/36 30/37/36
f 34/41/37 36/43/37 30/37/37
f 33/58/38 32/60/38 36/43/38
f 31/38/39 33/40/39 44/51/39
f 46/53/40 48/55/40 35/42/40
f 45/52/41 44/51/41 48/55/41
f 43/50/42 45/52/42 38/45/42
f 46/53/43 40/47/43 42/49/43
f 39/46/44 38/45/44 42/49/44
f 25/32/45 37/44/45 39/46/45
f 40/47/46 29/378/46 28/59/46
f 31/38/47 43/50/47 37/44/47
f 30/37/48 36/43/48 32/60/48
f 41/48/49 28/59/49 26/61/49
f 46/53/50 34/116/50 29/62/50
f 33/58/51 35/42/51 48/55/51
f 45/52/52 47/54/52 42/49/52
f 49/63/61 51/3/61 56/8/61
f 52/64/62 54/66/62 51/84/62
f 53/65/63 58/69/63 60/71/63
f 57/86/64 56/88/64 60/71/64
f 55/67/65 57/68/65 68/79/65
f 58/69/66 70/81/66 72/83/66
f 69/80/67 68/79/67 72/83/67
f 61/72/68 67/78/68 69/80/68
f 70/81/69 64/75/69 66/77/69
f 63/74/70 62/73/70 66/77/70
f 49/63/71 61/72/71 63/74/71
f 64/75/72 53/28/72 52/87/72
f 67/78/73 61/72/73 49/63/73
f 54/66/344 60/71/344 56/88/344
f 65/76/75 52/87/75 50/89/75
f 58/30/76 53/377/76 64/75/76
f 59/70/77 72/83/77 68/79/77
f 71/82/345 66/77/345 62/73/345
f 79/95/87 73/90/87 75/91/87
f 76/92/88 78/94/88 75/111/88
f 77/93/89 82/97/89 84/99/89
f 83/98/90 81/117/90 80/113/90
f 91/50/91 79/95/91 81/40/91
f 94/108/92 96/110/92 83/98/92
f 95/109/93 93/107/93 92/106/93
f 91/50/94 93/107/94 86/101/94
f 94/108/95 88/103/95 90/105/95
f 87/102/96 86/101/96 90/105/96
f 85/100/97 87/102/97 74/33/97
f 88/103/98 77/378/98 76/114/98
f 79/95/99 91/50/99 85/100/99
f 78/94/100 84/99/100 80/113/100
f 89/104/101 76/114/101 74/115/101
f 82/116/102 77/62/102 88/103/102
f 83/98/103 96/110/103 92/106/103
f 95/109/104 90/105/104 86/101/104
f 97/118/113 99/120/113 104/125/113
f 100/121/114 102/123/114 99/142/114
f 106/127/115 108/129/115 102/123/115
f 107/128/116 105/148/116 104/144/116
f 103/124/117 105/126/117 116/137/117
f 106/127/118 118/139/118 120/141/118
f 119/140/119 117/138/119 116/137/119
f 115/136/120 117/138/120 110/131/120
f 112/133/121 114/135/121 119/140/121
f 113/134/122 111/132/122 110/131/122
f 109/130/123 111/132/123 98/119/123
f 112/133/124 101/379/124 100/145/124
f 103/124/125 115/136/125 109/130/125
f 99/142/126 102/123/126 108/129/126
f 113/134/127 100/145/127 98/146/127
f 106/147/128 101/380/128 112/133/128
f 107/128/129 120/141/129 116/137/129
f 119/140/130 114/135/130 110/131/130
f 224/281/246 226/283/246 231/288/246
f 225/305/247 227/383/247 229/306/247
f 233/290/248 235/292/248 229/306/248
f 232/309/249 231/310/249 235/292/249
f 242/299/250 230/287/250 232/289/250
f 233/290/251 245/302/251 247/304/251
f 246/303/252 244/301/252 243/300/252
f 236/293/253 242/299/253 244/301/253
f 239/296/254 241/298/254 246/303/254
f 240/297/255 238/295/255 237/294/255
f 236/293/256 238/295/256 225/282/256
f 228/285/257 227/284/257 240/297/257
f 242/299/258 236/293/258 224/281/258
f 229/306/259 235/292/259 231/310/259
f 240/297/260 227/284/260 225/311/260
f 233/312/261 228/384/261 239/296/261
f 232/309/262 234/291/262 247/304/262
f 246/303/263 241/298/263 237/294/263
usemtl iron
f 121/149/131 127/150/131 122/151/131
f 127/150/132 123/152/132 122/151/132
f 128/153/133 124/154/133 123/155/133
f 124/154/134 130/156/134 125/157/134
f 130/156/135 121/149/135 125/157/135
f 131/158/136 127/150/136 126/159/136
f 127/150/137 133/160/137 128/161/137
f 128/153/138 134/162/138 129/163/138
f 129/163/139 135/164/139 130/156/139
f 130/156/140 131/158/140 126/159/140
f 136/165/141 132/166/141 131/158/141
f 132/166/142 138/167/142 133/160/142
f 138/168/143 134/162/143 133/169/143
f 139/170/144 135/164/144 134/162/144
f 140/171/145 131/158/145 135/164/145
f 136/165/146 142/172/146 137/173/146
f 137/173/147 143/174/147 138/167/147
f 143/175/148 139/170/148 138/168/148
f 144/176/149 140/171/149 139/170/149
f 145/177/150 136/165/150 140/171/150
f 141/178/151 147/179/151 142/172/151
f 142/172/152 148/180/152 143/174/152
f 148/181/153 144/176/153 143/175/153
f 144/176/154 150/182/154 145/177/154
f 145/177/155 146/183/155 141/178/155
f 146/184/156 152/185/156 147/186/156
f 152/185/157 148/187/157 147/186/157
f 153/188/158 149/189/158 148/190/158
f 154/191/159 150/192/159 149/189/159
f 150/192/160 151/193/160 146/184/160
f 151/193/161 157/194/161 152/185/161
f 157/194/162 153/195/162 152/185/162
f 153/188/163 159/196/163 154/191/163
f 159/196/164 155/197/164 154/191/164
f 155/197/165 156/198/165 151/193/165
f 161/199/166 157/194/166 156/198/166
f 162/200/167 158/201/167 157/194/167
f 158/202/168 164/203/168 159/196/168
f 164/203/169 160/204/169 159/196/169
f 160/204/170 161/199/170 156/198/170
f 166/205/171 162/200/171 161/199/171
f 162/200/172 168/206/172 163/207/172
f 163/208/173 169/209/173 164/203/173
f 169/209/174 165/210/174 164/203/174
f 165/210/175 166/205/175 161/199/175
f 166/205/176 172/211/176 167/212/176
f 172/211/177 168/206/177 167/212/177
f 173/213/178 169/209/178 168/214/178
f 174/215/179 170/216/179 169/209/179
f 175/217/180 166/205/180 170/216/180
f 171/218/181 122/151/181 172/211/181
f 122/151/182 173/219/182 172/211/182
f 123/155/183 174/215/183 173/213/183
f 174/215/184 125/157/184 175/217/184
f 125/157/185 171/218/185 175/217/185
f 121/149/131 126/159/131 127/150/131
f 127/150/132 128/161/132 123/152/132
f 128/153/133 129/163/133 124/154/133
f 124/154/134 129/163/134 130/156/134
f 130/156/135 126/159/135 121/149/135
f 131/158/136 132/166/136 127/150/136
f 127/150/137 132/166/137 133/160/137
f 128/153/346 133/169/346 134/162/346
f 129/163/139 134/162/139 135/164/139
f 130/156/140 135/164/140 131/158/140
f 136/165/141 137/173/141 132/166/141
f 132/166/142 137/173/142 138/167/142
f 138/168/143 139/170/143 134/162/143
f 139/170/144 140/171/144 135/164/144
f 140/171/145 136/165/145 131/158/145
f 136/165/146 141/178/146 142/172/146
f 137/173/147 142/172/147 143/174/147
f 143/175/347 144/176/347 139/170/347
f 144/176/149 145/177/149 140/171/149
f 145/177/150 141/178/150 136/165/150
f 141/178/151 146/183/151 147/179/151
f 142/172/152 147/179/152 148/180/152
f 148/181/153 149/381/153 144/176/153
f 144/176/154 149/381/154 150/182/154
f 145/177/155 150/182/155 146/183/155
f 146/184/156 151/193/156 152/185/156
f 152/185/157 153/195/157 148/187/157
f 153/188/158 154/191/158 149/189/158
f 154/191/159 155/197/159 150/192/159
f 150/192/160 155/197/160 151/193/160
f 151/193/161 156/198/161 157/194/161
f 157/194/162 158/201/162 153/195/162
f 153/188/163 158/202/163 159/196/163
f 159/196/164 160/204/164 155/197/164
f 155/197/165 160/204/165 156/198/165
f 161/199/166 162/200/166 157/194/166
f 162/200/167 163/207/167 158/201/167
f 158/202/168 163/208/168 164/203/168
f 164/203/169 165/210/169 160/204/169
f 160/204/348 165/210/348 161/199/348
f 166/205/349 167/212/349 162/200/349
f 162/200/172 167/212/172 168/206/172
f 163/208/173 168/214/173 169/209/173
f 169/209/174 170/216/174 165/210/174
f 165/210/175 170/216/175 166/205/175
f 166/205/176 171/218/176 172/211/176
f 172/211/177 173/219/177 168/206/177
f 173/213/178 174/215/178 169/209/178
f 174/215/179 175/217/179 170/216/179
f 175/217/350 171/218/350 166/205/350
f 171/218/181 121/149/181 122/151/181
f 122/151/182 123/152/182 173/219/182
f 123/155/183 124/154/183 174/215/183
f 174/215/184 124/154/184 125/157/184
f 125/157/185 121/149/185 171/218/185
usemtl rope
f 176/220/186 177/221/186 178/222/186
f 179/223/187 180/224/187 181/225/187
f 182/226/188 183/227/188 184/228/188
f 185/229/189 186/230/189 187/231/189
f 188/232/190 189/233/190 190/234/190
f 191/235/191 192/236/191 193/237/191
f 194/238/192 195/239/192 196/240/192
f 197/241/193 198/242/193 199/243/193
f 182/226/194 178/222/194 183/227/194
f 179/244/195 178/245/195 177/246/195
f 185/229/196 181/247/196 180/248/196
f 186/230/197 183/249/197 187/231/197
f 194/238/198 184/228/198 195/239/198
f 185/229/199 199/243/199 186/230/199
f 196/240/200 199/243/200 198/242/200
f 194/238/201 189/233/201 188/232/201
f 191/235/202 198/242/202 197/241/202
f 190/234/203 193/237/203 192/236/203
f 188/232/204 177/221/204 176/220/204
f 180/224/205 192/236/205 191/235/205
f 182/226/206 188/232/206 176/220/206
f 181/247/207 183/249/207 178/245/207
f 192/236/208 177/250/208 190/234/208
f 197/241/209 180/251/209 191/235/209
f 186/230/210 195/239/210 184/252/210
f 198/242/211 189/233/211 196/240/211
f 200/253/212 201/254/212 202/255/212
f 203/256/213 204/257/213 205/258/213
f 206/226/214 207/227/214 208/259/214
f 209/260/215 210/261/215 211/262/215
f 212/263/216 213/264/216 214/265/216
f 215/266/217 216/267/217 217/268/217
f 218/269/218 219/270/218 220/271/218
f 221/241/219 222/272/219 223/273/219
f 200/253/220 207/227/220 206/226/220
f 203/274/221 202/275/221 201/276/221
f 204/248/222 211/262/222 205/277/222
f 208/278/223 211/262/223 210/261/223
f 218/269/224 208/259/224 219/270/224
f 209/260/225 223/273/225 210/261/225
f 220/271/226 223/273/226 222/272/226
f 212/263/227 220/271/227 213/264/227
f 215/266/228 222/272/228 221/241/228
f 214/265/229 217/268/229 216/267/229
f 212/263/230 201/254/230 200/253/230
f 204/257/231 216/267/231 215/266/231
f 218/269/232 200/253/232 206/226/232
f 202/275/233 211/262/233 207/279/233
f 214/265/234 203/256/234 201/280/234
f 221/241/235 204/251/235 215/266/235
f 210/261/236 219/270/236 208/278/236
f 222/272/237 213/264/237 220/271/237
f 182/226/194 176/220/194 178/222/194
f 179/244/195 181/247/195 178/245/195
f 185/229/196 187/231/196 181/247/196
f 186/230/351 184/252/351 183/249/351
f 194/238/198 182/226/198 184/228/198
f 185/229/352 197/241/352 199/243/352
f 196/240/200 195/239/200 199/243/200
f 194/238/201 196/240/201 189/233/201
f 191/235/202 193/237/202 198/242/202
f 190/234/203 189/233/203 193/237/203
f 188/232/204 190/234/204 177/221/204
f 180/224/205 179/223/205 192/236/205
f 182/226/206 194/238/206 188/232/206
f 181/247/207 187/231/207 183/249/207
f 192/236/208 179/223/208 177/250/208
f 197/241/209 185/382/209 180/251/209
f 186/230/210 199/243/210 195/239/210
f 198/242/211 193/237/211 189/233/211
f 200/253/353 202/255/353 207/227/353
f 203/274/221 205/277/221 202/275/221
f 204/248/222 209/260/222 211/262/222
f 208/278/223 207/279/223 211/262/223
f 218/269/224 206/226/224 208/259/224
f 209/260/225 221/241/225 223/273/225
f 220/271/226 219/270/226 223/273/226
f 212/263/354 218/269/354 220/271/354
f 215/266/355 217/268/355 222/272/355
f 214/265/229 213/264/229 217/268/229
f 212/263/230 214/265/230 201/254/230
f 204/257/231 203/256/231 216/267/231
f 218/269/232 212/263/232 200/253/232
f 202/275/233 205/277/233 211/262/233
f 214/265/234 216/267/234 203/256/234
f 221/241/235 209/382/235 204/251/235
f 210/261/236 223/273/236 219/270/236
f 222/272/237 217/268/237 213/264/237
usemtl core
f 248/313/264 261/314/264 260/315/264
f 249/316/265 261/317/265 263/318/265
f 248/319/266 260/320/266 265/321/266
f 248/322/267 265/323/267 267/324/267
f 248/325/268 267/326/268 264/327/268
f 249/316/269 263/318/269 270/328/269
f 250/329/270 262/330/270 272/331/270
f 251/332/271 266/333/271 274/334/271
f 252/335/272 268/336/272 276/337/272
f 253/338/273 269/339/273 278/340/273
f 249/316/274 270/328/274 273/341/274
f 250/329/275 272/331/275 275/342/275
f 251/332/276 274/334/276 277/343/276
f 252/335/277 276/337/277 279/344/277
f 253/338/278 278/340/278 271/345/278
f 254/346/279 280/347/279 285/348/279
f 255/349/280 281/350/280 287/351/280
f 256/352/281 282/353/281 288/354/281
f 257/355/282 283/356/282 289/357/282
f 258/358/283 284/359/283 286/360/283
f 286/360/284 289/361/284 259/362/284
f 286/360/285 284/359/285 289/361/285
f 284/359/286 257/355/286 289/361/286
f 289/357/287 288/363/287 259/364/287
f 289/357/288 283/356/288 288/363/288
f 283/356/289 256/352/289 288/363/289
f 288/354/290 287/365/290 259/366/290
f 288/354/291 282/353/291 287/365/291
f 282/353/292 255/367/292 287/365/292
f 287/351/293 285/368/293 259/369/293
f 287/351/294 281/350/294 285/368/294
f 281/350/295 254/346/295 285/368/295
f 285/348/296 286/370/296 259/371/296
f 285/348/297 280/347/297 286/370/297
f 280/347/298 258/358/298 286/370/298
f 271/345/299 284/359/299 258/358/299
f 271/345/300 278/340/300 284/359/300
f 278/340/301 257/355/301 284/359/301
f 279/344/302 283/356/302 257/355/302
f 279/344/303 276/337/303 283/356/303
f 276/337/304 256/352/304 283/356/304
f 277/343/305 282/353/305 256/352/305
f 277/343/306 274/334/306 282/353/306
f 274/334/307 255/367/307 282/353/307
f 275/342/308 281/350/308 255/349/308
f 275/342/309 272/331/309 281/350/309
f 272/331/310 254/346/310 281/350/310
f 273/341/311 280/347/311 254/346/311
f 273/341/312 270/328/312 280/347/312
f 270/328/313 258/358/313 280/347/313
f 278/340/314 279/344/314 257/355/314
f 278/340/315 269/339/315 279/344/315
f 269/339/316 252/335/316 279/344/316
f 276/337/317 277/343/317 256/352/317
f 276/337/318 268/336/318 277/343/318
f 268/336/319 251/332/319 277/343/319
f 274/334/320 275/372/320 255/367/320
f 274/334/321 266/333/321 275/372/321
f 266/333/322 250/373/322 275/372/322
f 272/331/323 273/341/323 254/346/323
f 272/331/324 262/330/324 273/341/324
f 262/330/325 249/316/325 273/341/325
f 270/328/326 271/345/326 258/358/326
f 270/328/327 263/318/327 271/345/327
f 263/318/328 253/338/328 271/345/328
f 264/327/329 269/339/329 253/338/329
f 264/327/330 267/326/330 269/339/330
f 267/326/331 252/335/331 269/339/331
f 267/324/332 268/336/332 252/335/332
f 267/324/333 265/323/333 268/336/333
f 265/323/334 251/332/334 268/336/334
f 265/321/335 266/333/335 251/332/335
f 265/321/336 260/320/336 266/333/336
f 260/320/337 250/373/337 266/333/337
f 263/318/338 264/374/338 253/338/338
f 263/318/339 261/317/339 264/374/339
f 261/317/340 248/375/340 264/374/340
f 260/315/341 262/330/341 250/329/341
f 260/315/342 261/314/342 262/330/342
f 261/314/343 249/316/343 262/330/343
