# Blender 4.5.10 LTS
# www.blender.org
mtllib hod_jib_remodel_c.mtl
o hod_jib_remodel_c
v 0.681360 0.785439 -0.231535
v 0.681704 0.807229 -0.253741
v 0.703343 0.807456 -0.231387
v 0.681662 0.873226 -0.254370
v 0.681290 0.895434 -0.232584
v 0.703301 0.873453 -0.232016
v 0.673287 0.790166 0.264377
v 0.695270 0.812183 0.264525
v 0.672915 0.812375 0.286163
v 0.673217 0.900161 0.263328
v 0.672873 0.878372 0.285534
v 0.695228 0.878180 0.263895
v -0.684185 0.784351 -0.253754
v -0.706196 0.806333 -0.254322
v -0.683841 0.806141 -0.275960
v -0.684255 0.894346 -0.254804
v -0.683883 0.872138 -0.276590
v -0.706238 0.872330 -0.254952
v -0.692258 0.789078 0.242157
v -0.692630 0.811287 0.263943
v -0.714269 0.811060 0.241589
v -0.692329 0.899073 0.241108
v -0.714312 0.877057 0.240960
v -0.692672 0.877284 0.263314
v 0.546370 -0.120312 -0.211994
v 0.522840 -0.099959 -0.211772
v 0.544631 -0.098305 -0.233917
v 0.460792 0.757203 -0.208820
v 0.481146 0.780734 -0.208890
v 0.482583 0.758857 -0.230965
v 0.642117 -0.113379 -0.212629
v 0.640378 -0.091372 -0.234553
v 0.662471 -0.089848 -0.212699
v 0.576893 0.787668 -0.209525
v 0.600423 0.767314 -0.209746
v 0.578330 0.765790 -0.231600
v 0.549220 -0.121539 0.203995
v 0.547782 -0.099662 0.226070
v 0.525689 -0.101186 0.204216
v 0.483995 0.779508 0.207099
v 0.463641 0.755976 0.207169
v 0.485734 0.757500 0.229023
v 0.644967 -0.114606 0.203359
v 0.665321 -0.091075 0.203289
v 0.643529 -0.092728 0.225434
v 0.579742 0.786441 0.206463
v 0.581481 0.764434 0.228387
v 0.603273 0.766087 0.206242
v -0.652600 -0.111259 -0.213869
v -0.672285 -0.087166 -0.213721
v -0.650189 -0.089068 -0.235541
v -0.585283 0.777006 -0.200920
v -0.561191 0.796687 -0.200419
v -0.563187 0.775105 -0.222741
v -0.557087 -0.120887 -0.213100
v -0.554676 -0.098695 -0.234772
v -0.532995 -0.101206 -0.212599
v -0.465678 0.787059 -0.199650
v -0.445993 0.762966 -0.199798
v -0.467674 0.765477 -0.221971
v -0.656531 -0.117025 0.202073
v -0.654536 -0.095443 0.224394
v -0.676216 -0.092932 0.202221
v -0.565122 0.790921 0.215522
v -0.589214 0.771240 0.215022
v -0.567534 0.768729 0.237195
v -0.561018 -0.126652 0.202842
v -0.536926 -0.106972 0.203342
v -0.559023 -0.105070 0.225163
v -0.469609 0.781294 0.216291
v -0.472021 0.759102 0.237964
v -0.449924 0.757201 0.216143
v 0.551151 0.260100 -0.039285
v 0.550445 0.282086 -0.061287
v 0.572803 0.282440 -0.039654
v 0.549571 0.338079 -0.061302
v 0.549592 0.360088 -0.039311
v 0.571929 0.338433 -0.039669
v 0.552077 0.260129 0.016708
v 0.573729 0.282469 0.016338
v 0.552098 0.282138 0.038699
v 0.550518 0.360117 0.016682
v 0.551225 0.338131 0.038684
v 0.572855 0.338462 0.016323
v -0.560576 0.242767 -0.020890
v -0.582913 0.264421 -0.020531
v -0.561282 0.264753 -0.042892
v -0.562135 0.342755 -0.020916
v -0.562155 0.320746 -0.042907
v -0.583786 0.320414 -0.020546
v -0.559649 0.242796 0.035103
v -0.559629 0.264805 0.057094
v -0.581987 0.264450 0.035461
v -0.561209 0.342784 0.035077
v -0.582860 0.320443 0.035446
v -0.560502 0.320798 0.057079
v 0.577090 0.773832 -0.189033
v 0.576868 0.796161 -0.210698
v 0.599146 0.795776 -0.188983
v 0.579096 1.639794 -0.198015
v 0.579434 1.661460 -0.175688
v 0.601374 1.639408 -0.176300
v 0.578565 0.772085 -0.073055
v 0.600621 0.794028 -0.073005
v 0.578903 0.793751 -0.050729
v 0.580910 1.659712 -0.059711
v 0.581131 1.637383 -0.038046
v 0.602850 1.637661 -0.060322
v 0.461099 0.774116 -0.187553
v 0.439159 0.796168 -0.186942
v 0.460878 0.796445 -0.209218
v 0.463444 1.661744 -0.174209
v 0.463106 1.640078 -0.196535
v 0.441388 1.639800 -0.174259
v 0.462575 0.772369 -0.071575
v 0.462913 0.794035 -0.049249
v 0.440635 0.794420 -0.070964
v 0.464920 1.659996 -0.058231
v 0.442863 1.638053 -0.058281
v 0.465141 1.637668 -0.036566
v 0.516970 1.494862 -0.163441
v 0.494676 1.473171 -0.162754
v 0.494655 1.494796 -0.185122
v -0.114409 1.481585 -0.154064
v -0.136106 1.503884 -0.154123
v -0.114429 1.503211 -0.176432
v 0.518001 1.570844 -0.164732
v 0.495686 1.570778 -0.186412
v 0.496304 1.593142 -0.164791
v -0.135075 1.579866 -0.155414
v -0.112781 1.601557 -0.156101
v -0.113398 1.579193 -0.177722
v 0.518071 1.496137 -0.087460
v 0.496395 1.496810 -0.065152
v 0.495777 1.474446 -0.086773
v -0.135004 1.505159 -0.078142
v -0.113307 1.482861 -0.078082
v -0.112690 1.505224 -0.056461
v 0.519103 1.572119 -0.088750
v 0.497406 1.594418 -0.088810
v 0.497426 1.572792 -0.066442
v -0.133973 1.581141 -0.079432
v -0.111658 1.581207 -0.057752
v -0.111679 1.602832 -0.080120
v 0.533741 1.164064 -0.152638
v 0.518023 1.179577 -0.174553
v 0.533777 1.195177 -0.152725
v 0.193097 1.505277 -0.172798
v 0.177740 1.520913 -0.150715
v 0.208852 1.520876 -0.150970
v 0.534201 1.164221 -0.096640
v 0.534237 1.195333 -0.096727
v 0.518843 1.179857 -0.074557
v 0.178200 1.521070 -0.094717
v 0.193918 1.505557 -0.072801
v 0.209311 1.521033 -0.094972
v 0.494098 1.124513 -0.152201
v 0.462987 1.124550 -0.151946
v 0.478380 1.140026 -0.174117
v 0.138097 1.481362 -0.150278
v 0.153455 1.465726 -0.172361
v 0.138061 1.450250 -0.150191
v 0.494558 1.124670 -0.096203
v 0.479201 1.140306 -0.074120
v 0.463446 1.124707 -0.095948
v 0.138557 1.481519 -0.094280
v 0.138521 1.450407 -0.094193
v 0.154275 1.466006 -0.072365
v 0.519980 1.424976 -0.142060
v 0.520410 1.425461 -0.092064
v 0.446117 1.452036 -0.141687
v 0.446548 1.452521 -0.091691
v 0.406925 1.520242 -0.142012
v 0.407356 1.520727 -0.092016
v 0.420743 1.597679 -0.142882
v 0.421173 1.598164 -0.092886
v 0.481105 1.648113 -0.143891
v 0.481535 1.648598 -0.093896
v 0.559766 1.647946 -0.144567
v 0.560196 1.648431 -0.094571
v 0.619921 1.597255 -0.144593
v 0.620351 1.597741 -0.094597
v 0.633422 1.519761 -0.143957
v 0.633853 1.520246 -0.093961
v 0.593953 1.451722 -0.142957
v 0.594383 1.452207 -0.092961
v -0.089962 1.526919 -0.111936
v -0.088151 1.521498 -0.106132
v -0.082663 1.523304 -0.111874
v 0.017503 1.208424 -0.103630
v 0.019376 1.202931 -0.109346
v 0.022992 1.210230 -0.109372
v -0.089896 1.526842 -0.124415
v -0.082597 1.523227 -0.124354
v -0.088023 1.521349 -0.130132
v 0.019442 1.202854 -0.121826
v 0.017631 1.208276 -0.127629
v 0.023058 1.210153 -0.121852
v -0.101787 1.522929 -0.111974
v -0.105403 1.515629 -0.111948
v -0.099976 1.517507 -0.106171
v 0.007551 1.198940 -0.109384
v 0.005679 1.204433 -0.103668
v 0.000252 1.202556 -0.109446
v -0.101720 1.522851 -0.124454
v -0.099848 1.517358 -0.130170
v -0.105336 1.515552 -0.124428
v 0.007618 1.198863 -0.121864
v 0.000318 1.202478 -0.121925
v 0.005807 1.204285 -0.127667
v -0.096679 1.514319 -0.112056
v -0.098496 1.508851 -0.106298
v -0.093080 1.507011 -0.112098
v -0.202631 1.202670 -0.106404
v -0.204522 1.197231 -0.112166
v -0.197215 1.200830 -0.112204
v -0.096759 1.514351 -0.124535
v -0.093161 1.507043 -0.124577
v -0.098651 1.508912 -0.130297
v -0.204603 1.197263 -0.124646
v -0.202786 1.202731 -0.130403
v -0.197295 1.200861 -0.124684
v -0.108494 1.518337 -0.111969
v -0.115802 1.514739 -0.111931
v -0.110311 1.512869 -0.106211
v -0.216338 1.201249 -0.112079
v -0.214446 1.206688 -0.106317
v -0.219936 1.208557 -0.112037
v -0.108574 1.518369 -0.124449
v -0.110466 1.512930 -0.130211
v -0.115882 1.514770 -0.124411
v -0.216418 1.201281 -0.124559
v -0.220017 1.208589 -0.124517
v -0.214601 1.206749 -0.130317
v 0.028188 1.155434 -0.219379
v 0.028253 1.167495 -0.231318
v 0.040061 1.167557 -0.219129
v 0.027982 1.193493 -0.231188
v 0.027667 1.205430 -0.219130
v 0.039790 1.193555 -0.218999
v 0.025085 1.154424 -0.023406
v 0.036958 1.166548 -0.023156
v 0.024770 1.166362 -0.011348
v 0.024563 1.204421 -0.023157
v 0.024498 1.192360 -0.011219
v 0.036686 1.192546 -0.023026
v -0.227400 1.152786 -0.223440
v -0.239523 1.164661 -0.223571
v -0.227335 1.164847 -0.235379
v -0.227922 1.202783 -0.223191
v -0.227606 1.190845 -0.235249
v -0.239794 1.190659 -0.223442
v -0.230503 1.151777 -0.027467
v -0.230818 1.163714 -0.015409
v -0.242626 1.163652 -0.027598
v -0.231025 1.201773 -0.027218
v -0.242898 1.189650 -0.027469
v -0.231090 1.189712 -0.015280
v -0.091489 1.195045 -0.125229
v -0.157567 1.255499 -0.170207
v -0.067782 1.257374 -0.200043
v -0.011621 1.255571 -0.123899
v -0.066698 1.252581 -0.047005
v -0.156897 1.252537 -0.075626
v -0.118537 1.353390 -0.196676
v -0.028338 1.353434 -0.168056
v -0.027668 1.350472 -0.073474
v -0.117453 1.348597 -0.043638
v -0.173614 1.350400 -0.119782
v -0.093746 1.410927 -0.118452
v -0.077356 1.212730 -0.169798
v -0.130131 1.211627 -0.152261
v -0.116196 1.248264 -0.196236
v -0.168577 1.245421 -0.123105
v -0.129737 1.209886 -0.096668
v -0.044346 1.211670 -0.125042
v -0.030411 1.248306 -0.169017
v -0.076719 1.209912 -0.079845
v -0.029774 1.245489 -0.079064
v -0.115165 1.243706 -0.050689
v -0.178403 1.302943 -0.149060
v -0.178009 1.301202 -0.093466
v -0.093255 1.305803 -0.211794
v -0.146029 1.304701 -0.194258
v -0.007226 1.304769 -0.150215
v -0.040236 1.305829 -0.194972
v -0.039206 1.301270 -0.049424
v -0.006832 1.303028 -0.094621
v -0.144999 1.300142 -0.048710
v -0.091980 1.300168 -0.031887
v -0.155461 1.360482 -0.164618
v -0.070070 1.362266 -0.192992
v -0.016658 1.360550 -0.120576
v -0.069039 1.357707 -0.047445
v -0.154824 1.357665 -0.074665
v -0.108516 1.396059 -0.163836
v -0.140889 1.394301 -0.118639
v -0.055498 1.396085 -0.147013
v -0.055104 1.394344 -0.091420
v -0.107879 1.393242 -0.073883
vn 0.5870 -0.5824 -0.5623
vn 0.5863 0.5723 -0.5734
vn 0.5683 -0.5714 0.5921
vn 0.5675 0.5833 0.5811
vn -0.5675 -0.5833 -0.5811
vn -0.5683 0.5714 -0.5921
vn -0.5863 -0.5723 0.5734
vn -0.5870 0.5824 0.5623
vn 0.7075 -0.7065 0.0183
vn 0.7185 -0.0062 -0.6955
vn 0.7066 0.7076 0.0048
vn 0.6955 0.0073 0.7185
vn -0.0111 -0.7003 0.7137
vn -0.0120 0.7138 0.7002
vn -0.7185 0.0062 0.6955
vn -0.7066 -0.7076 -0.0048
vn -0.7075 0.7065 -0.0183
vn -0.6955 -0.0073 -0.7185
vn 0.0120 -0.7138 -0.7002
vn 0.0111 0.7003 -0.7137
vn 0.0006 -1.0000 0.0095
vn 0.9999 0.0008 0.0163
vn 0.0163 -0.0095 -0.9998
vn -0.0006 1.0000 -0.0095
vn -0.0163 0.0095 0.9998
vn -0.9999 -0.0008 -0.0163
vn -0.5381 -0.6158 -0.5755
vn -0.6215 0.5358 -0.5715
vn 0.6136 -0.5324 -0.5831
vn 0.5302 0.6192 -0.5792
vn -0.5302 -0.6192 0.5792
vn -0.6136 0.5324 0.5831
vn 0.6215 -0.5358 0.5715
vn 0.5381 0.6158 0.5755
vn 0.0462 -0.7032 -0.7095
vn -0.7101 -0.0490 -0.7024
vn -0.0559 0.7073 -0.7047
vn 0.7004 0.0532 -0.7118
vn 0.7563 -0.6542 -0.0071
vn 0.6542 0.7563 -0.0023
vn 0.7101 0.0490 0.7024
vn 0.0559 -0.7073 0.7047
vn -0.0462 0.7032 0.7095
vn -0.7004 -0.0532 0.7118
vn -0.6542 -0.7563 0.0023
vn -0.7563 0.6542 0.0071
vn 0.0722 -0.9974 -0.0034
vn -0.0069 0.0029 -1.0000
vn -0.9974 -0.0722 0.0066
vn -0.0722 0.9974 0.0034
vn 0.9974 0.0722 -0.0066
vn 0.0068 -0.0029 1.0000
vn -0.6268 -0.5085 -0.5904
vn -0.5111 0.6403 -0.5734
vn 0.5220 -0.6243 -0.5812
vn 0.6377 0.5245 -0.5641
vn -0.6377 -0.5245 0.5641
vn -0.5220 0.6243 0.5812
vn 0.5111 -0.6403 0.5734
vn 0.6268 0.5085 0.5904
vn -0.0641 -0.6937 -0.7174
vn -0.6968 0.0807 -0.7127
vn 0.0775 0.7133 -0.6966
vn 0.7102 -0.0611 -0.7013
vn 0.6327 -0.7744 -0.0048
vn 0.7743 0.6326 0.0161
vn 0.6968 -0.0807 0.7127
vn -0.0775 -0.7133 0.6966
vn 0.0641 0.6937 0.7174
vn -0.7102 0.0611 0.7013
vn -0.7743 -0.6326 -0.0161
vn -0.6327 0.7744 0.0048
vn -0.1002 -0.9949 -0.0147
vn 0.0094 0.0139 -0.9999
vn -0.9949 0.1003 -0.0080
vn 0.1002 0.9949 0.0147
vn 0.9949 -0.1003 0.0080
vn -0.0094 -0.0139 0.9999
vn 0.5767 -0.5686 -0.5867
vn 0.5587 0.5860 -0.5870
vn 0.5958 -0.5680 0.5679
vn 0.5777 0.5866 0.5676
vn -0.5777 -0.5866 -0.5676
vn -0.5957 0.5680 -0.5679
vn -0.5586 -0.5860 0.5870
vn -0.5767 0.5686 0.5867
vn 0.7180 -0.6960 -0.0115
vn 0.6952 0.0107 -0.7187
vn 0.6959 0.7180 -0.0119
vn 0.7186 0.0114 0.6953
vn 0.0227 -0.7067 0.7072
vn 0.0007 0.7074 0.7068
vn -0.6952 -0.0107 0.7187
vn -0.6959 -0.7180 0.0119
vn -0.7180 0.6960 0.0115
vn -0.7186 -0.0114 -0.6953
vn -0.0007 -0.7074 -0.7068
vn -0.0227 0.7067 -0.7072
vn 0.0156 -0.9999 0.0003
vn 0.9997 0.0156 -0.0165
vn -0.0165 -0.0005 -0.9999
vn -0.0156 0.9999 -0.0003
vn 0.0165 0.0005 0.9999
vn -0.9997 -0.0156 0.0165
vn 0.5684 -0.5700 -0.5933
vn 0.5715 0.5846 -0.5759
vn 0.5831 -0.5874 0.5612
vn 0.5862 0.5672 0.5785
vn -0.5862 -0.5672 -0.5786
vn -0.5831 0.5874 -0.5612
vn -0.5715 -0.5846 0.5759
vn -0.5684 0.5700 0.5933
vn 0.7052 -0.7088 -0.0196
vn 0.6981 0.0089 -0.7160
vn 0.7089 0.7053 0.0016
vn 0.7160 -0.0124 0.6979
vn 0.0071 -0.7177 0.6963
vn 0.0109 0.6964 0.7176
vn -0.6981 -0.0089 0.7160
vn -0.7089 -0.7053 -0.0016
vn -0.7052 0.7088 0.0197
vn -0.7160 0.0124 -0.6979
vn -0.0109 -0.6964 -0.7176
vn -0.0071 0.7177 -0.6963
vn -0.0026 -0.9999 -0.0150
vn 0.9999 -0.0024 -0.0128
vn -0.0127 0.0151 -0.9998
vn 0.0026 0.9999 0.0150
vn 0.0127 -0.0151 0.9998
vn -0.9999 0.0024 0.0128
vn 0.5610 -0.5949 -0.5756
vn -0.5934 -0.5789 -0.5592
vn 0.5767 0.5596 -0.5952
vn -0.5778 0.5755 -0.5788
vn 0.5778 -0.5755 0.5788
vn -0.5767 -0.5596 0.5952
vn 0.5934 0.5789 0.5592
vn -0.5610 0.5949 0.5756
vn 0.6967 -0.0216 -0.7170
vn -0.0198 -0.7188 -0.6949
vn -0.7172 -0.0021 -0.6968
vn -0.0007 0.6951 -0.7189
vn 0.7166 0.6972 -0.0221
vn -0.6974 0.7167 -0.0019
vn 0.0198 0.7188 0.6949
vn 0.7172 0.0021 0.6968
vn -0.6967 0.0216 0.7170
vn 0.0007 -0.6951 0.7189
vn 0.6974 -0.7167 0.0019
vn -0.7166 -0.6972 0.0221
vn 0.9998 -0.0138 -0.0143
vn -0.0145 -0.0168 -0.9998
vn -0.0136 -0.9998 0.0170
vn -0.9998 0.0138 0.0143
vn 0.0136 0.9998 -0.0170
vn 0.0145 0.0168 0.9998
vn 0.8117 -0.0026 -0.5840
vn -0.0038 0.8149 -0.5796
vn 0.8212 0.0006 0.5706
vn 0.0057 0.8181 0.5750
vn -0.0057 -0.8181 -0.5750
vn -0.8212 -0.0006 -0.5706
vn 0.0038 -0.8149 0.5796
vn -0.8117 0.0026 0.5840
vn 1.0000 -0.0012 -0.0082
vn 0.4948 0.4974 -0.7126
vn 0.0012 1.0000 -0.0028
vn 0.5064 0.5014 0.7016
vn 0.5052 -0.4986 0.7044
vn -0.4936 0.5026 0.7098
vn -0.4948 -0.4974 0.7126
vn -0.0012 -1.0000 0.0028
vn -1.0000 0.0012 0.0082
vn -0.5064 -0.5014 -0.7016
vn 0.4936 -0.5026 -0.7098
vn -0.5052 0.4986 -0.7044
vn 0.7063 -0.7079 -0.0038
vn 0.7079 0.7063 -0.0078
vn -0.0082 -0.0028 -1.0000
vn -0.7063 0.7079 0.0038
vn 0.0082 0.0028 1.0000
vn -0.7079 -0.7063 0.0078
vn -0.3439 -0.9389 0.0121
vn -0.8670 -0.4981 0.0123
vn -0.9844 0.1757 0.0068
vn -0.6412 0.7674 -0.0019
vn 0.0020 1.0000 -0.0097
vn 0.6443 0.7646 -0.0130
vn 0.9851 0.1715 -0.0101
vn 0.0086 0.0097 0.9999
vn 0.8650 -0.5018 -0.0026
vn 0.3401 -0.9404 0.0062
vn -0.0086 -0.0097 -0.9999
vn 0.3593 0.7352 0.5747
vn 0.7286 -0.3588 0.5835
vn 0.3655 0.7281 -0.5799
vn 0.7347 -0.3660 -0.5712
vn -0.7347 0.3660 0.5712
vn -0.3655 -0.7281 0.5799
vn -0.7286 0.3588 -0.5835
vn -0.3593 -0.7352 -0.5747
vn 0.4438 0.8961 -0.0032
vn 0.6662 0.2305 0.7093
vn 0.8961 -0.4438 0.0075
vn 0.6737 0.2217 -0.7049
vn -0.2223 0.6656 -0.7124
vn 0.2299 -0.6743 -0.7017
vn -0.6662 -0.2305 -0.7093
vn -0.8961 0.4438 -0.0075
vn -0.4439 -0.8961 0.0032
vn -0.6737 -0.2217 0.7049
vn -0.2299 0.6743 0.7017
vn 0.2223 -0.6656 0.7124
vn -0.3197 0.9475 -0.0076
vn 0.9475 0.3198 0.0031
vn -0.0053 0.0062 1.0000
vn 0.3198 -0.9475 0.0076
vn 0.0053 -0.0062 -1.0000
vn -0.9475 -0.3198 -0.0031
vn 0.7362 0.3592 0.5735
vn 0.3644 -0.7340 0.5731
vn 0.7288 0.3622 -0.5812
vn 0.3569 -0.7310 -0.5815
vn -0.3570 0.7310 0.5815
vn -0.7288 -0.3622 0.5812
vn -0.3644 0.7340 -0.5731
vn -0.7362 -0.3592 -0.5735
vn 0.8971 0.4418 -0.0047
vn 0.6740 -0.2295 0.7022
vn 0.4417 -0.8971 -0.0051
vn 0.6649 -0.2259 -0.7120
vn 0.2231 0.6712 -0.7069
vn -0.2323 -0.6676 -0.7073
vn -0.6740 0.2295 -0.7022
vn -0.4418 0.8971 0.0051
vn -0.8971 -0.4418 0.0047
vn -0.6649 0.2259 0.7120
vn 0.2323 0.6676 0.7073
vn -0.2231 -0.6712 0.7069
vn 0.3220 0.9467 0.0003
vn 0.9467 -0.3220 -0.0069
vn 0.0065 -0.0025 1.0000
vn -0.3220 -0.9467 -0.0003
vn -0.0065 0.0025 -1.0000
vn -0.9467 0.3220 0.0069
vn 0.5924 -0.5684 -0.5710
vn 0.5804 0.5863 -0.5652
vn 0.5741 -0.5743 0.5836
vn 0.5621 0.5803 0.5893
vn -0.5621 -0.5803 -0.5893
vn -0.5741 0.5743 -0.5836
vn -0.5804 -0.5863 0.5652
vn -0.5924 0.5684 0.5710
vn 0.7144 -0.6997 0.0077
vn 0.7182 0.0110 -0.6958
vn 0.6996 0.7144 0.0148
vn 0.6958 0.0037 0.7182
vn -0.0038 -0.7107 0.7035
vn -0.0186 0.7034 0.7105
vn -0.7182 -0.0110 0.6958
vn -0.6996 -0.7144 -0.0148
vn -0.7144 0.6997 -0.0077
vn -0.6958 -0.0037 -0.7182
vn 0.0186 -0.7034 -0.7105
vn 0.0038 0.7107 -0.7035
vn 0.0104 -0.9999 -0.0050
vn 0.9998 0.0104 0.0159
vn 0.0158 0.0051 -0.9999
vn -0.0104 0.9999 0.0050
vn -0.0158 -0.0051 0.9999
vn -0.9998 -0.0104 -0.0159
vn -0.1130 -0.9107 -0.3972
vn -0.7481 -0.5912 -0.3014
vn 0.3221 -0.9105 -0.2592
vn 0.3254 -0.9248 0.1971
vn -0.1077 -0.9339 0.3410
vn -0.9194 -0.2812 -0.2750
vn -0.0290 -0.2501 -0.9678
vn 0.9055 -0.2602 -0.3352
vn 0.5927 -0.2975 0.7485
vn -0.5352 -0.3104 0.7856
vn -0.8075 -0.0952 -0.5821
vn 0.3017 -0.0720 -0.9507
vn 0.9955 -0.0943 -0.0100
vn 0.3151 -0.1312 0.9400
vn -0.7993 -0.1318 0.5864
vn -0.4503 0.6086 -0.6533
vn 0.4957 0.6172 -0.6110
vn 0.7481 0.5912 0.3014
vn -0.0419 0.5665 0.8230
vn -0.7826 0.5773 0.2330
vn -0.3221 0.9105 0.2592
vn -0.5515 0.7185 0.4238
vn -0.4408 0.5663 0.6964
vn 0.1130 0.9107 0.3972
vn 0.2057 0.7188 0.6641
vn 0.5046 0.5779 0.6414
vn 0.3786 0.9252 0.0263
vn 0.6680 0.7439 0.0186
vn 0.7441 0.6092 -0.2743
vn 0.1077 0.9339 -0.3410
vn 0.1966 0.7591 -0.6206
vn -0.0533 0.6169 -0.7852
vn -0.3254 0.9248 -0.1971
vn -0.5572 0.7433 -0.3702
vn -0.7856 0.5904 -0.1853
vn -0.9055 0.2602 0.3352
vn -0.7964 0.1304 0.5905
vn -0.5819 0.2498 0.7739
vn 0.0290 0.2501 0.9678
vn 0.3102 0.1309 0.9416
vn 0.5464 0.2609 0.7959
vn 0.9194 0.2812 0.2751
vn 0.9858 0.1676 -0.0017
vn 0.9155 0.2982 -0.2699
vn 0.5352 0.3104 -0.7856
vn 0.2969 0.1897 -0.9359
vn 0.0154 0.3102 -0.9506
vn -0.5927 0.2975 -0.7485
vn -0.8046 0.1667 -0.5699
vn -0.9100 0.2803 -0.3054
vn -0.3017 0.0720 0.9507
vn -0.2969 -0.1897 0.9359
vn -0.0154 -0.3102 0.9505
vn 0.8075 0.0952 0.5821
vn 0.8047 -0.1667 0.5699
vn 0.9100 -0.2803 0.3054
vn 0.7993 0.1318 -0.5864
vn 0.7964 -0.1304 -0.5905
vn 0.5819 -0.2498 -0.7739
vn -0.3151 0.1312 -0.9400
vn -0.3102 -0.1309 -0.9416
vn -0.5464 -0.2609 -0.7959
vn -0.9955 0.0943 0.0100
vn -0.9858 -0.1676 0.0017
vn -0.9155 -0.2982 0.2699
vn -0.4957 -0.6172 0.6110
vn -0.1966 -0.7591 0.6206
vn 0.0533 -0.6169 0.7852
vn 0.4503 -0.6086 0.6533
vn 0.5572 -0.7433 0.3702
vn 0.7856 -0.5904 0.1853
vn 0.7826 -0.5773 -0.2330
vn 0.5515 -0.7185 -0.4238
vn 0.4408 -0.5663 -0.6964
vn -0.7441 -0.6092 0.2743
vn -0.6680 -0.7439 -0.0186
vn -0.3786 -0.9252 -0.0263
vn 0.0419 -0.5665 -0.8230
vn -0.2057 -0.7188 -0.6641
vn -0.5046 -0.5779 -0.6414
vn -0.7179 0.6960 0.0115
vn -0.7160 0.0124 -0.6980
vn 0.4439 0.8961 -0.0032
vn 0.3197 -0.9475 0.0076
vn 0.4418 -0.8971 -0.0051
vn -0.4417 0.8971 0.0051
vn -0.2231 -0.6713 0.7069
vt 0.128901 0.739815
vt 0.128901 0.750000
vt 0.125000 0.739815
vt 0.575000 0.000000
vt 0.625000 0.010185
vt 0.575000 0.010185
vt 0.128901 0.510185
vt 0.125000 0.510185
vt 0.128901 0.500000
vt 0.625000 0.250074
vt 0.575000 0.253889
vt 0.575000 0.239815
vt 0.371098 0.739815
vt 0.424586 0.739815
vt 0.407880 0.752662
vt 0.628674 0.740636
vt 0.575000 0.753901
vt 0.575000 0.739899
vt 0.371098 0.510185
vt 0.407880 0.497338
vt 0.424586 0.510185
vt 0.628674 0.509364
vt 0.575000 0.510101
vt 0.575000 0.496099
vt 0.425000 0.010185
vt 0.425000 0.000000
vt 0.425000 0.239815
vt 0.575000 0.996099
vt 0.425000 0.996099
vt 0.871099 0.739815
vt 0.425000 0.253901
vt 0.136956 0.710714
vt 0.136957 0.750000
vt 0.125000 0.710714
vt 0.618912 0.000000
vt 0.625000 0.039286
vt 0.618912 0.039286
vt 0.136957 0.539286
vt 0.125000 0.539286
vt 0.136957 0.500000
vt 0.625000 0.251281
vt 0.618912 0.261944
vt 0.618912 0.210714
vt 0.363043 0.710714
vt 0.381065 0.710714
vt 0.380482 0.761555
vt 0.634118 0.722879
vt 0.618912 0.761957
vt 0.618912 0.710860
vt 0.363043 0.539286
vt 0.380482 0.488445
vt 0.381065 0.539286
vt 0.634118 0.527121
vt 0.618912 0.539140
vt 0.618912 0.488043
vt 0.381088 0.039286
vt 0.381088 0.000000
vt 0.381088 0.261957
vt 0.625000 0.988043
vt 0.381088 0.210714
vt 0.381088 0.988043
vt 0.863044 0.539286
vt 0.618973 0.000000
vt 0.618973 0.039286
vt 0.618974 0.261944
vt 0.618973 0.210714
vt 0.381004 0.710714
vt 0.380428 0.761559
vt 0.618973 0.761957
vt 0.618973 0.710859
vt 0.380428 0.488441
vt 0.381004 0.539286
vt 0.618973 0.539141
vt 0.618973 0.488043
vt 0.381027 0.000000
vt 0.381026 0.039286
vt 0.381027 0.261957
vt 0.618973 0.988043
vt 0.381026 0.210714
vt 0.381026 0.988043
vt 0.129758 0.695000
vt 0.129758 0.750000
vt 0.125000 0.695000
vt 0.570000 0.000000
vt 0.625000 0.055000
vt 0.570000 0.055000
vt 0.129758 0.555000
vt 0.125000 0.555000
vt 0.129758 0.500000
vt 0.625000 0.251244
vt 0.570000 0.254738
vt 0.570000 0.195000
vt 0.370242 0.695000
vt 0.426725 0.695000
vt 0.408870 0.753075
vt 0.628075 0.716130
vt 0.570000 0.754758
vt 0.570000 0.698275
vt 0.370242 0.555000
vt 0.408870 0.496925
vt 0.426725 0.555000
vt 0.628075 0.533870
vt 0.570000 0.551725
vt 0.570000 0.495242
vt 0.430000 0.055000
vt 0.430000 0.000000
vt 0.430000 0.195000
vt 0.625000 0.995242
vt 0.430000 0.995242
vt 0.870242 0.695000
vt 0.430000 0.254758
vt 0.159375 0.715625
vt 0.159375 0.750000
vt 0.125000 0.715625
vt 0.618804 0.000000
vt 0.625000 0.034375
vt 0.618804 0.034375
vt 0.159375 0.534375
vt 0.125000 0.534375
vt 0.159375 0.500000
vt 0.625000 0.248113
vt 0.618804 0.284263
vt 0.618804 0.215625
vt 0.340625 0.715625
vt 0.381175 0.715625
vt 0.379920 0.783294
vt 0.652810 0.728754
vt 0.618804 0.784375
vt 0.618804 0.715737
vt 0.340625 0.534375
vt 0.379920 0.466706
vt 0.381175 0.534375
vt 0.652810 0.521246
vt 0.618804 0.534263
vt 0.618804 0.465625
vt 0.381196 0.034375
vt 0.381196 0.000000
vt 0.381196 0.284375
vt 0.625000 0.965625
vt 0.381196 0.215625
vt 0.381196 0.965625
vt 0.840625 0.534375
vt 0.170833 0.704167
vt 0.170833 0.750000
vt 0.125000 0.704167
vt 0.616580 0.000000
vt 0.625000 0.045833
vt 0.616580 0.045833
vt 0.170833 0.545833
vt 0.125000 0.545833
vt 0.170833 0.500000
vt 0.625000 0.246268
vt 0.616580 0.295551
vt 0.616580 0.204167
vt 0.329167 0.704167
vt 0.383368 0.704167
vt 0.381200 0.793958
vt 0.659154 0.727525
vt 0.616580 0.795833
vt 0.616580 0.704449
vt 0.329167 0.545833
vt 0.381200 0.456042
vt 0.383368 0.545833
vt 0.659154 0.522475
vt 0.616580 0.545551
vt 0.616580 0.454167
vt 0.383420 0.045833
vt 0.383420 0.000000
vt 0.383420 0.295833
vt 0.616580 0.954167
vt 0.383420 0.204167
vt 0.383420 0.954167
vt 0.829167 0.545833
vt 0.180000 0.695000
vt 0.180000 0.750000
vt 0.614089 0.000000
vt 0.625000 0.055000
vt 0.614089 0.055000
vt 0.180000 0.555000
vt 0.125000 0.555000
vt 0.180000 0.500000
vt 0.625000 0.244095
vt 0.614089 0.304454
vt 0.614089 0.195000
vt 0.320000 0.695000
vt 0.385803 0.695000
vt 0.382538 0.802185
vt 0.663113 0.728774
vt 0.614089 0.805000
vt 0.614089 0.695546
vt 0.320000 0.555000
vt 0.382538 0.447814
vt 0.385803 0.555000
vt 0.663113 0.521226
vt 0.614089 0.554454
vt 0.614089 0.445000
vt 0.385911 0.055000
vt 0.385911 0.000000
vt 0.385911 0.305000
vt 0.625000 0.945000
vt 0.385911 0.195000
vt 0.614089 0.945000
vt 0.385911 0.945000
vt 0.820000 0.695000
vt 1.000000 0.500000
vt 0.888889 1.000000
vt 0.888889 0.500000
vt 0.777778 0.500000
vt 0.777778 1.000000
vt 0.666667 0.500000
vt 0.666667 1.000000
vt 0.555556 0.500000
vt 0.444444 1.000000
vt 0.444444 0.500000
vt 0.333333 0.500000
vt 0.222222 1.000000
vt 0.222222 0.500000
vt 0.250000 0.490000
vt 0.167915 0.024474
vt 0.457846 0.130000
vt 0.111111 1.000000
vt 0.111111 0.500000
vt 0.000000 1.000000
vt 0.000000 0.500000
vt 0.904269 0.433851
vt 0.667915 0.024474
vt 0.513646 0.291676
vt 0.185000 0.690000
vt 0.185000 0.750000
vt 0.125000 0.690000
vt 0.620789 0.940000
vt 0.625000 0.940000
vt 0.620789 1.000000
vt 0.185000 0.560000
vt 0.125000 0.560000
vt 0.185000 0.500000
vt 0.625000 0.257429
vt 0.620789 0.310000
vt 0.620789 0.190248
vt 0.315000 0.690000
vt 0.379194 0.690000
vt 0.378006 0.808873
vt 0.664826 0.730348
vt 0.620789 0.810000
vt 0.620789 0.690248
vt 0.315000 0.560000
vt 0.378006 0.441126
vt 0.379194 0.560000
vt 0.664826 0.528543
vt 0.620789 0.560000
vt 0.620789 0.440248
vt 0.620789 0.000000
vt 0.379211 0.060000
vt 0.379211 0.000000
vt 0.625000 0.060000
vt 0.620789 0.060000
vt 0.379211 0.190000
vt 0.379211 0.940000
vt 0.815000 0.690000
vt 0.379211 0.310000
vt 0.185000 0.690000
vt 0.125000 0.690000
vt 0.620701 0.940000
vt 0.625000 0.940000
vt 0.620701 1.000000
vt 0.185000 0.560000
vt 0.125000 0.560000
vt 0.185000 0.500000
vt 0.625000 0.257429
vt 0.620701 0.310000
vt 0.620701 0.190253
vt 0.315000 0.690000
vt 0.379281 0.690000
vt 0.378067 0.808850
vt 0.664826 0.730348
vt 0.620700 0.810000
vt 0.620701 0.690253
vt 0.378067 0.441150
vt 0.379281 0.560000
vt 0.664826 0.528543
vt 0.620701 0.560000
vt 0.620701 0.440253
vt 0.379299 0.000000
vt 0.620700 0.060000
vt 0.379299 0.060000
vt 0.625000 0.060000
vt 0.379299 0.310000
vt 0.379299 0.190000
vt 0.379299 0.940000
vt 0.815000 0.560000
vt 0.135728 0.736364
vt 0.135728 0.750000
vt 0.125000 0.736364
vt 0.565000 0.989272
vt 0.625000 0.989272
vt 0.565000 1.000000
vt 0.135728 0.513636
vt 0.125000 0.513636
vt 0.135728 0.500000
vt 0.625000 0.250324
vt 0.565000 0.260728
vt 0.565000 0.236553
vt 0.364272 0.736364
vt 0.434168 0.736364
vt 0.407672 0.756583
vt 0.634901 0.738242
vt 0.565000 0.760728
vt 0.565000 0.736553
vt 0.364272 0.513636
vt 0.407672 0.493417
vt 0.434168 0.513636
vt 0.634901 0.511811
vt 0.565000 0.513636
vt 0.565000 0.489388
vt 0.565000 0.000000
vt 0.435000 0.013636
vt 0.435000 0.000000
vt 0.565000 0.013636
vt 0.625000 0.013636
vt 0.435000 0.236364
vt 0.435000 0.989272
vt 0.864272 0.513636
vt 0.435000 0.260728
vt 0.181819 0.000000
vt 0.227273 0.078731
vt 0.136365 0.078731
vt 0.272728 0.157461
vt 0.318182 0.078731
vt 0.363637 0.157461
vt 0.909091 0.000000
vt 0.954545 0.078731
vt 0.863636 0.078731
vt 0.727273 0.000000
vt 0.772727 0.078731
vt 0.681818 0.078731
vt 0.545455 0.000000
vt 0.590909 0.078731
vt 0.500000 0.078731
vt 0.318182 0.236191
vt 0.090910 0.157461
vt 0.181819 0.157461
vt 0.136365 0.236191
vt 0.818182 0.157461
vt 0.909091 0.157461
vt 0.863636 0.236191
vt 0.636364 0.157461
vt 0.727273 0.157461
vt 0.681818 0.236191
vt 0.454546 0.157461
vt 0.545455 0.157461
vt 0.500000 0.236191
vt 0.227273 0.236191
vt 0.045455 0.236191
vt 0.772727 0.236191
vt 0.590909 0.236191
vt 0.409092 0.236191
vt 0.181819 0.314921
vt 0.272728 0.314921
vt 0.227273 0.393651
vt 0.000000 0.314921
vt 0.090910 0.314921
vt 0.045455 0.393651
vt 0.727273 0.314921
vt 0.818182 0.314921
vt 0.772727 0.393651
vt 0.545455 0.314921
vt 0.636364 0.314921
vt 0.590909 0.393651
vt 0.363637 0.314921
vt 0.454546 0.314921
vt 0.409092 0.393651
vt 0.500000 0.393651
vt 0.454546 0.472382
vt 0.681818 0.393651
vt 0.636364 0.472382
vt 0.863636 0.393651
vt 0.818182 0.472382
vt 0.909091 0.314921
vt 0.136365 0.393651
vt 0.090910 0.472382
vt 0.318182 0.393651
vt 0.272728 0.472382
vt 0.954545 0.236191
vt 1.000000 0.157461
vt 0.409092 0.078731
vt 0.363637 0.000000
vt 0.625000 0.996099
vt 0.871099 0.510185
vt 0.618912 0.988044
vt 0.863043 0.710714
vt 0.570000 0.995242
vt 0.870242 0.555000
vt 0.618804 0.965625
vt 0.840625 0.715625
vt 0.625000 0.954167
vt 0.829167 0.704167
vt 0.820000 0.555000
vt 1.000000 1.000000
vt 0.555556 1.000000
vt 0.333333 1.000000
vt 0.486354 0.291676
vt 0.404269 0.433851
vt 0.095731 0.433851
vt 0.013646 0.291676
vt 0.042154 0.130000
vt 0.332085 0.024474
vt 0.595731 0.433851
vt 0.750000 0.490000
vt 0.986354 0.291676
vt 0.957846 0.130000
vt 0.832085 0.024474
vt 0.542154 0.130000
vt 0.815000 0.560000
vt 0.620701 0.000000
vt 0.815000 0.690000
vt 0.864272 0.736364
s 0
usemtl wood
f 1/1/1 2/2/1 3/3/1
f 4/4/2 5/5/2 6/6/2
f 7/7/3 8/8/3 9/9/3
f 10/10/4 11/11/4 12/12/4
f 13/13/5 14/14/5 15/15/5
f 16/16/6 17/17/6 18/18/6
f 19/19/7 20/20/7 21/21/7
f 22/22/8 23/23/8 24/24/8
f 1/1/9 8/8/9 7/7/9
f 4/4/10 3/25/10 2/26/10
f 10/10/11 6/6/11 5/5/11
f 11/11/12 8/27/12 12/12/12
f 7/7/13 20/20/13 19/19/13
f 22/22/14 11/11/14 10/10/14
f 23/23/15 20/20/15 24/24/15
f 19/19/16 14/14/16 13/13/16
f 16/16/17 23/23/17 22/22/17
f 15/15/18 18/18/18 17/17/18
f 13/13/19 2/2/19 1/1/19
f 16/16/20 4/28/20 17/17/20
f 19/19/21 1/1/21 7/7/21
f 6/6/22 8/27/22 3/25/22
f 17/17/23 2/29/23 15/15/23
f 22/22/24 5/30/24 16/16/24
f 11/11/25 20/20/25 9/31/25
f 23/23/26 14/14/26 21/21/26
f 25/32/27 26/33/27 27/34/27
f 28/35/28 29/36/28 30/37/28
f 31/38/29 32/39/29 33/40/29
f 34/41/30 35/42/30 36/43/30
f 37/44/31 38/45/31 39/46/31
f 40/47/32 41/48/32 42/49/32
f 43/50/33 44/51/33 45/52/33
f 46/53/34 47/54/34 48/55/34
f 25/32/35 32/39/35 31/38/35
f 28/35/36 27/56/36 26/57/36
f 29/36/37 36/43/37 30/37/37
f 33/58/38 36/43/38 35/42/38
f 31/38/39 44/51/39 43/50/39
f 46/53/40 35/42/40 34/41/40
f 47/54/41 44/51/41 48/55/41
f 43/50/42 38/45/42 37/44/42
f 46/53/43 42/49/43 47/54/43
f 39/46/44 42/49/44 41/48/44
f 37/44/45 26/33/45 25/32/45
f 29/59/46 41/48/46 40/47/46
f 43/50/47 25/32/47 31/38/47
f 30/37/48 32/60/48 27/56/48
f 41/48/49 26/61/49 39/46/49
f 34/62/50 40/47/50 46/53/50
f 35/42/51 44/51/51 33/58/51
f 47/54/52 38/45/52 45/52/52
f 49/32/53 50/33/53 51/34/53
f 52/63/54 53/36/54 54/64/54
f 55/38/55 56/39/55 57/40/55
f 58/41/56 59/65/56 60/66/56
f 61/44/57 62/67/57 63/68/57
f 64/47/58 65/69/58 66/70/58
f 67/50/59 68/71/59 69/72/59
f 70/53/60 71/73/60 72/74/60
f 55/38/61 51/34/61 56/39/61
f 50/75/62 54/64/62 51/76/62
f 58/41/63 54/64/63 53/36/63
f 57/77/64 60/66/64 59/65/64
f 55/38/65 68/71/65 67/50/65
f 58/41/66 72/74/66 59/65/66
f 71/73/67 68/71/67 72/74/67
f 67/50/68 62/67/68 61/44/68
f 64/47/69 71/73/69 70/53/69
f 63/68/70 66/70/70 65/69/70
f 61/44/71 50/33/71 49/32/71
f 64/47/72 52/78/72 65/69/72
f 67/50/73 49/32/73 55/38/73
f 54/64/74 56/79/74 51/76/74
f 63/68/75 52/78/75 50/80/75
f 58/62/76 64/47/76 70/53/76
f 59/65/77 68/71/77 57/77/77
f 71/73/78 62/67/78 69/72/78
f 73/81/79 74/82/79 75/83/79
f 76/84/80 77/85/80 78/86/80
f 79/87/81 80/88/81 81/89/81
f 82/90/82 83/91/82 84/92/82
f 85/93/83 86/94/83 87/95/83
f 88/96/84 89/97/84 90/98/84
f 91/99/85 92/100/85 93/101/85
f 94/102/86 95/103/86 96/104/86
f 73/81/87 80/88/87 79/87/87
f 76/84/88 75/105/88 74/106/88
f 82/90/89 78/86/89 77/85/89
f 83/91/90 80/107/90 84/92/90
f 79/87/91 92/100/91 91/99/91
f 94/102/92 83/91/92 82/90/92
f 95/103/93 92/100/93 96/104/93
f 85/93/94 93/101/94 86/94/94
f 88/96/95 95/103/95 94/102/95
f 89/97/96 86/94/96 90/98/96
f 73/81/97 87/95/97 74/82/97
f 77/108/98 89/97/98 88/96/98
f 91/99/99 73/81/99 79/87/99
f 78/86/100 80/107/100 75/105/100
f 89/97/101 74/109/101 87/95/101
f 94/102/102 77/110/102 88/96/102
f 83/91/103 92/100/103 81/111/103
f 95/103/104 86/94/104 93/101/104
f 97/112/105 98/113/105 99/114/105
f 100/115/106 101/116/106 102/117/106
f 103/118/107 104/119/107 105/120/107
f 106/121/108 107/122/108 108/123/108
f 109/124/109 110/125/109 111/126/109
f 112/127/110 113/128/110 114/129/110
f 115/130/111 116/131/111 117/132/111
f 118/133/112 119/134/112 120/135/112
f 97/112/113 104/119/113 103/118/113
f 100/115/114 99/136/114 98/137/114
f 106/121/115 102/117/115 101/116/115
f 105/138/116 108/123/116 107/122/116
f 103/118/117 116/131/117 115/130/117
f 106/121/118 120/135/118 107/122/118
f 117/132/119 120/135/119 119/134/119
f 109/124/120 117/132/120 110/125/120
f 112/127/121 119/134/121 118/133/121
f 111/126/122 114/129/122 113/128/122
f 97/112/123 111/126/123 98/113/123
f 101/139/124 113/128/124 112/127/124
f 103/118/125 109/124/125 97/112/125
f 99/136/126 108/123/126 104/140/126
f 113/128/127 98/141/127 111/126/127
f 106/142/128 112/127/128 118/133/128
f 107/122/129 116/131/129 105/138/129
f 119/134/130 110/125/130 117/132/130
f 121/143/131 122/144/131 123/145/131
f 124/146/132 125/147/132 126/148/132
f 127/149/133 128/150/133 129/151/133
f 130/152/134 131/153/134 132/154/134
f 133/155/135 134/156/135 135/157/135
f 136/158/136 137/159/136 138/160/136
f 139/161/137 140/162/137 141/163/137
f 142/164/138 143/165/138 144/166/138
f 127/149/139 123/145/139 128/150/139
f 124/146/140 123/167/140 122/168/140
f 125/147/141 132/154/141 126/148/141
f 129/169/142 132/154/142 131/153/142
f 139/161/143 129/151/143 140/162/143
f 142/164/144 131/153/144 130/152/144
f 141/163/145 144/166/145 143/165/145
f 133/155/146 141/163/146 134/156/146
f 136/158/147 143/165/147 142/164/147
f 137/159/148 134/156/148 138/160/148
f 121/143/149 135/157/149 122/144/149
f 136/158/150 124/170/150 137/159/150
f 127/149/151 133/155/151 121/143/151
f 126/148/152 128/171/152 123/167/152
f 137/159/153 122/172/153 135/157/153
f 130/173/154 136/158/154 142/164/154
f 131/153/155 140/162/155 129/169/155
f 143/165/156 134/156/156 141/163/156
f 145/174/157 146/175/157 147/83/157
f 148/176/158 149/177/158 150/178/158
f 151/179/159 152/180/159 153/181/159
f 154/182/160 155/183/160 156/184/160
f 157/185/161 158/186/161 159/187/161
f 160/188/162 161/189/162 162/190/162
f 163/191/163 164/192/163 165/193/163
f 166/194/164 167/195/164 168/196/164
f 145/174/165 152/180/165 151/179/165
f 148/176/166 147/197/166 146/198/166
f 149/177/167 156/184/167 150/178/167
f 153/199/168 156/184/168 155/183/168
f 151/179/169 164/192/169 163/191/169
f 166/194/170 155/183/170 154/182/170
f 167/195/171 164/192/171 168/196/171
f 157/185/172 165/193/172 158/186/172
f 160/188/173 167/195/173 166/194/173
f 159/187/174 162/190/174 161/189/174
f 157/185/175 146/175/175 145/174/175
f 149/200/176 161/189/176 160/188/176
f 151/179/177 157/185/177 145/174/177
f 150/178/178 152/201/178 147/197/178
f 159/187/179 148/202/179 146/203/179
f 166/194/180 149/204/180 160/188/180
f 155/183/181 164/192/181 153/199/181
f 167/195/182 158/186/182 165/193/182
f 235/291/246 236/292/246 237/293/246
f 238/294/247 239/295/247 240/296/247
f 241/297/248 242/298/248 243/299/248
f 244/300/249 245/301/249 246/302/249
f 247/303/250 248/304/250 249/305/250
f 250/306/251 251/307/251 252/308/251
f 253/309/252 254/310/252 255/311/252
f 256/312/253 257/313/253 258/314/253
f 235/291/254 242/298/254 241/297/254
f 238/315/255 237/316/255 236/317/255
f 244/300/256 240/318/256 239/319/256
f 245/301/257 242/320/257 246/302/257
f 241/297/258 254/310/258 253/309/258
f 244/300/259 258/314/259 245/301/259
f 257/313/260 254/310/260 258/314/260
f 247/303/261 255/311/261 248/304/261
f 250/306/262 257/313/262 256/312/262
f 249/305/263 252/308/263 251/307/263
f 247/303/264 236/292/264 235/291/264
f 239/295/265 251/307/265 250/306/265
f 253/309/266 235/291/266 241/297/266
f 237/316/267 246/302/267 242/320/267
f 251/307/268 236/321/268 249/305/268
f 244/322/269 250/306/269 256/312/269
f 245/301/270 254/310/270 243/323/270
f 257/313/271 248/304/271 255/311/271
f 1/1/9 3/3/9 8/8/9
f 4/4/10 6/6/10 3/25/10
f 10/10/11 12/12/11 6/6/11
f 11/11/12 9/31/12 8/27/12
f 7/7/13 9/9/13 20/20/13
f 22/22/14 24/24/14 11/11/14
f 23/23/15 21/21/15 20/20/15
f 19/19/16 21/21/16 14/14/16
f 16/16/17 18/18/17 23/23/17
f 15/15/18 14/14/18 18/18/18
f 13/13/19 15/15/19 2/2/19
f 16/16/20 5/387/20 4/28/20
f 19/19/21 13/13/21 1/1/21
f 6/6/22 12/12/22 8/27/22
f 17/17/23 4/28/23 2/29/23
f 22/22/24 10/388/24 5/30/24
f 11/11/25 24/24/25 20/20/25
f 23/23/26 18/18/26 14/14/26
f 25/32/35 27/34/35 32/39/35
f 28/35/36 30/37/36 27/56/36
f 29/36/37 34/41/37 36/43/37
f 33/58/38 32/60/38 36/43/38
f 31/38/39 33/40/39 44/51/39
f 46/53/40 48/55/40 35/42/40
f 47/54/41 45/52/41 44/51/41
f 43/50/42 45/52/42 38/45/42
f 46/53/43 40/47/43 42/49/43
f 39/46/44 38/45/44 42/49/44
f 37/44/45 39/46/45 26/33/45
f 29/59/46 28/389/46 41/48/46
f 43/50/47 37/44/47 25/32/47
f 30/37/48 36/43/48 32/60/48
f 41/48/49 28/389/49 26/61/49
f 34/62/50 29/390/50 40/47/50
f 35/42/51 48/55/51 44/51/51
f 47/54/52 42/49/52 38/45/52
f 55/38/61 49/32/61 51/34/61
f 50/75/62 52/63/62 54/64/62
f 58/41/63 60/66/63 54/64/63
f 57/77/64 56/79/64 60/66/64
f 55/38/65 57/40/65 68/71/65
f 58/41/66 70/53/66 72/74/66
f 71/73/67 69/72/67 68/71/67
f 67/50/68 69/72/68 62/67/68
f 64/47/69 66/70/69 71/73/69
f 63/68/70 62/67/70 66/70/70
f 61/44/71 63/68/71 50/33/71
f 64/47/72 53/59/72 52/78/72
f 67/50/73 61/44/73 49/32/73
f 54/64/74 60/66/74 56/79/74
f 63/68/75 65/69/75 52/78/75
f 58/62/76 53/390/76 64/47/76
f 59/65/77 72/74/77 68/71/77
f 71/73/78 66/70/78 62/67/78
f 73/81/87 75/83/87 80/88/87
f 76/84/88 78/86/88 75/105/88
f 82/90/89 84/92/89 78/86/89
f 83/91/90 81/111/90 80/107/90
f 79/87/91 81/89/91 92/100/91
f 94/102/92 96/104/92 83/91/92
f 95/103/93 93/101/93 92/100/93
f 85/93/94 91/99/94 93/101/94
f 88/96/352 90/98/352 95/103/352
f 89/97/96 87/95/96 86/94/96
f 73/81/97 85/93/97 87/95/97
f 77/108/98 76/391/98 89/97/98
f 91/99/99 85/93/99 73/81/99
f 78/86/100 84/92/100 80/107/100
f 89/97/101 76/391/101 74/109/101
f 94/102/102 82/392/102 77/110/102
f 83/91/103 96/104/103 92/100/103
f 95/103/104 90/98/104 86/94/104
f 97/112/113 99/114/113 104/119/113
f 100/115/114 102/117/114 99/136/114
f 106/121/115 108/123/115 102/117/115
f 105/138/116 104/140/116 108/123/116
f 103/118/117 105/120/117 116/131/117
f 106/121/118 118/133/118 120/135/118
f 117/132/119 116/131/119 120/135/119
f 109/124/120 115/130/120 117/132/120
f 112/127/121 114/129/121 119/134/121
f 111/126/353 110/125/353 114/129/353
f 97/112/123 109/124/123 111/126/123
f 101/139/124 100/393/124 113/128/124
f 103/118/125 115/130/125 109/124/125
f 99/136/126 102/117/126 108/123/126
f 113/128/127 100/393/127 98/141/127
f 106/142/128 101/394/128 112/127/128
f 107/122/129 120/135/129 116/131/129
f 119/134/130 114/129/130 110/125/130
f 127/149/139 121/143/139 123/145/139
f 124/146/140 126/148/140 123/167/140
f 125/147/141 130/152/141 132/154/141
f 129/169/142 128/171/142 132/154/142
f 139/161/143 127/149/143 129/151/143
f 142/164/144 144/166/144 131/153/144
f 141/163/145 140/162/145 144/166/145
f 133/155/146 139/161/146 141/163/146
f 136/158/147 138/160/147 143/165/147
f 137/159/148 135/157/148 134/156/148
f 121/143/149 133/155/149 135/157/149
f 136/158/150 125/395/150 124/170/150
f 127/149/151 139/161/151 133/155/151
f 126/148/152 132/154/152 128/171/152
f 137/159/153 124/170/153 122/172/153
f 130/173/154 125/396/154 136/158/154
f 131/153/155 144/166/155 140/162/155
f 143/165/156 138/160/156 134/156/156
f 145/174/165 147/83/165 152/180/165
f 148/176/166 150/178/166 147/197/166
f 149/177/167 154/182/167 156/184/167
f 153/199/168 152/201/168 156/184/168
f 151/179/169 153/181/169 164/192/169
f 166/194/170 168/196/170 155/183/170
f 167/195/171 165/193/171 164/192/171
f 157/185/172 163/191/172 165/193/172
f 160/188/173 162/190/173 167/195/173
f 159/187/174 158/186/174 162/190/174
f 157/185/175 159/187/175 146/175/175
f 149/200/176 148/202/176 161/189/176
f 151/179/177 163/191/177 157/185/177
f 150/178/178 156/184/178 152/201/178
f 159/187/179 161/189/179 148/202/179
f 166/194/180 154/397/180 149/204/180
f 155/183/181 168/196/181 164/192/181
f 167/195/182 162/190/182 158/186/182
f 235/291/254 237/293/254 242/298/254
f 238/315/255 240/318/255 237/316/255
f 244/300/256 246/302/256 240/318/256
f 245/301/257 243/323/257 242/320/257
f 241/297/258 243/299/258 254/310/258
f 244/300/259 256/312/259 258/314/259
f 257/313/260 255/311/260 254/310/260
f 247/303/261 253/309/261 255/311/261
f 250/306/262 252/308/262 257/313/262
f 249/305/263 248/304/263 252/308/263
f 247/303/264 249/305/264 236/292/264
f 239/295/265 238/294/265 251/307/265
f 253/309/266 247/303/266 235/291/266
f 237/316/267 240/318/267 246/302/267
f 251/307/268 238/294/268 236/321/268
f 244/322/269 239/416/269 250/306/269
f 245/301/270 258/314/270 254/310/270
f 257/313/271 252/308/271 248/304/271
usemtl rope
f 169/205/183 172/206/183 171/207/183
f 172/206/184 173/208/184 171/207/184
f 174/209/185 175/210/185 173/208/185
f 176/211/186 177/212/186 175/210/186
f 177/212/187 180/213/187 179/214/187
f 180/213/188 181/215/188 179/214/188
f 181/215/189 184/216/189 183/217/189
f 170/218/190 180/219/190 176/220/190
f 183/217/191 186/221/191 185/222/191
f 185/222/192 170/223/192 169/224/192
f 171/225/193 179/226/193 183/227/193
f 187/228/194 188/229/194 189/230/194
f 190/231/195 191/232/195 192/233/195
f 193/234/196 194/235/196 195/236/196
f 196/237/197 197/238/197 198/239/197
f 199/240/198 200/241/198 201/242/198
f 202/243/199 203/244/199 204/245/199
f 205/246/200 206/247/200 207/248/200
f 208/249/201 209/250/201 210/251/201
f 193/234/202 189/230/202 194/235/202
f 190/252/203 189/253/203 188/254/203
f 191/255/204 198/239/204 192/256/204
f 197/238/205 194/257/205 198/239/205
f 193/234/206 206/247/206 205/246/206
f 196/237/207 210/251/207 197/238/207
f 207/248/208 210/251/208 209/250/208
f 205/246/209 200/241/209 199/240/209
f 202/243/210 209/250/210 208/249/210
f 201/242/211 204/245/211 203/244/211
f 187/228/212 201/242/212 188/229/212
f 191/232/213 203/244/213 202/243/213
f 193/234/214 199/240/214 187/228/214
f 189/253/215 198/239/215 194/257/215
f 203/244/216 188/258/216 201/242/216
f 208/249/217 191/259/217 202/243/217
f 195/260/218 210/251/218 206/247/218
f 209/250/219 200/241/219 207/248/219
f 211/261/220 212/229/220 213/262/220
f 214/263/221 215/264/221 216/265/221
f 217/266/222 218/267/222 219/268/222
f 220/269/223 221/270/223 222/271/223
f 223/272/224 224/273/224 225/274/224
f 226/275/225 227/276/225 228/277/225
f 229/246/226 230/278/226 231/279/226
f 232/280/227 233/281/227 234/282/227
f 217/266/228 213/262/228 218/267/228
f 212/283/229 216/284/229 213/285/229
f 215/286/230 222/271/230 216/284/230
f 219/287/231 222/271/231 221/270/231
f 229/246/232 219/268/232 230/278/232
f 220/269/233 234/282/233 221/270/233
f 231/279/234 234/282/234 233/281/234
f 229/246/235 224/273/235 223/272/235
f 232/280/236 228/277/236 233/281/236
f 227/276/237 224/273/237 228/277/237
f 211/261/238 225/274/238 212/229/238
f 215/264/239 227/276/239 226/275/239
f 229/246/240 211/261/240 217/266/240
f 216/284/241 218/288/241 213/285/241
f 227/276/242 212/289/242 225/274/242
f 220/290/243 226/275/243 232/280/243
f 221/270/244 230/278/244 219/287/244
f 233/281/245 224/273/245 231/279/245
f 169/205/183 170/398/183 172/206/183
f 172/206/184 174/209/184 173/208/184
f 174/209/185 176/211/185 175/210/185
f 176/211/186 178/399/186 177/212/186
f 177/212/187 178/399/187 180/213/187
f 180/213/188 182/400/188 181/215/188
f 181/215/189 182/400/189 184/216/189
f 174/401/190 172/402/190 170/218/190
f 170/218/190 186/403/190 184/404/190
f 184/404/190 182/405/190 180/219/190
f 180/219/190 178/406/190 176/220/190
f 176/220/190 174/401/190 170/218/190
f 170/218/190 184/404/190 180/219/190
f 183/217/191 184/216/191 186/221/191
f 185/222/192 186/221/192 170/223/192
f 185/407/193 169/408/193 171/225/193
f 171/225/193 173/409/193 175/410/193
f 175/410/193 177/411/193 179/226/193
f 179/226/193 181/412/193 183/227/193
f 183/227/193 185/407/193 171/225/193
f 171/225/193 175/410/193 179/226/193
f 193/234/354 187/228/354 189/230/354
f 190/252/203 192/256/203 189/253/203
f 191/255/204 196/237/204 198/239/204
f 197/238/205 195/260/205 194/257/205
f 193/234/206 195/236/206 206/247/206
f 196/237/207 208/249/207 210/251/207
f 207/248/208 206/247/208 210/251/208
f 205/246/209 207/248/209 200/241/209
f 202/243/210 204/245/210 209/250/210
f 201/242/211 200/241/211 204/245/211
f 187/228/212 199/240/212 201/242/212
f 191/232/213 190/231/213 203/244/213
f 193/234/214 205/246/214 199/240/214
f 189/253/215 192/256/215 198/239/215
f 203/244/216 190/231/216 188/258/216
f 208/249/355 196/413/355 191/259/355
f 195/260/218 197/238/218 210/251/218
f 209/250/219 204/245/219 200/241/219
f 217/266/228 211/261/228 213/262/228
f 212/283/229 214/414/229 216/284/229
f 215/286/356 220/269/356 222/271/356
f 219/287/231 218/288/231 222/271/231
f 229/246/232 217/266/232 219/268/232
f 220/269/233 232/280/233 234/282/233
f 231/279/234 230/278/234 234/282/234
f 229/246/357 231/279/357 224/273/357
f 232/280/236 226/275/236 228/277/236
f 227/276/237 225/274/237 224/273/237
f 211/261/238 223/272/238 225/274/238
f 215/264/358 214/263/358 227/276/358
f 229/246/240 223/272/240 211/261/240
f 216/284/241 222/271/241 218/288/241
f 227/276/242 214/263/242 212/289/242
f 220/290/243 215/415/243 226/275/243
f 221/270/244 234/282/244 230/278/244
f 233/281/245 228/277/245 224/273/245
usemtl core
f 259/324/272 272/325/272 271/326/272
f 260/327/273 272/328/273 274/329/273
f 259/330/274 271/331/274 276/332/274
f 259/333/275 276/334/275 278/335/275
f 259/336/276 278/337/276 275/338/276
f 260/327/277 274/329/277 281/339/277
f 261/340/278 273/341/278 283/342/278
f 262/343/279 277/344/279 285/345/279
f 263/346/280 279/347/280 287/348/280
f 264/349/281 280/350/281 289/351/281
f 260/327/282 281/339/282 284/352/282
f 261/340/283 283/342/283 286/353/283
f 262/343/284 285/345/284 288/354/284
f 263/346/285 287/348/285 290/355/285
f 264/349/286 289/351/286 282/356/286
f 265/357/287 291/358/287 296/359/287
f 266/360/288 292/361/288 298/362/288
f 267/363/289 293/364/289 299/365/289
f 268/366/290 294/367/290 300/368/290
f 269/369/291 295/370/291 297/371/291
f 297/371/292 300/372/292 270/373/292
f 297/371/293 295/370/293 300/372/293
f 295/370/294 268/366/294 300/372/294
f 300/368/295 299/374/295 270/375/295
f 300/368/296 294/367/296 299/374/296
f 294/367/297 267/363/297 299/374/297
f 299/365/298 298/376/298 270/377/298
f 299/365/299 293/364/299 298/376/299
f 293/364/300 266/378/300 298/376/300
f 298/362/301 296/379/301 270/380/301
f 298/362/302 292/361/302 296/379/302
f 292/361/303 265/357/303 296/379/303
f 296/359/304 297/381/304 270/382/304
f 296/359/305 291/358/305 297/381/305
f 291/358/306 269/369/306 297/381/306
f 282/356/307 295/370/307 269/369/307
f 282/356/308 289/351/308 295/370/308
f 289/351/309 268/366/309 295/370/309
f 290/355/310 294/367/310 268/366/310
f 290/355/311 287/348/311 294/367/311
f 287/348/312 267/363/312 294/367/312
f 288/354/313 293/364/313 267/363/313
f 288/354/314 285/345/314 293/364/314
f 285/345/315 266/378/315 293/364/315
f 286/353/316 292/361/316 266/360/316
f 286/353/317 283/342/317 292/361/317
f 283/342/318 265/357/318 292/361/318
f 284/352/319 291/358/319 265/357/319
f 284/352/320 281/339/320 291/358/320
f 281/339/321 269/369/321 291/358/321
f 289/351/322 290/355/322 268/366/322
f 289/351/323 280/350/323 290/355/323
f 280/350/324 263/346/324 290/355/324
f 287/348/325 288/354/325 267/363/325
f 287/348/326 279/347/326 288/354/326
f 279/347/327 262/343/327 288/354/327
f 285/345/328 286/383/328 266/378/328
f 285/345/329 277/344/329 286/383/329
f 277/344/330 261/384/330 286/383/330
f 283/342/331 284/352/331 265/357/331
f 283/342/332 273/341/332 284/352/332
f 273/341/333 260/327/333 284/352/333
f 281/339/334 282/356/334 269/369/334
f 281/339/335 274/329/335 282/356/335
f 274/329/336 264/349/336 282/356/336
f 275/338/337 280/350/337 264/349/337
f 275/338/338 278/337/338 280/350/338
f 278/337/339 263/346/339 280/350/339
f 278/335/340 279/347/340 263/346/340
f 278/335/341 276/334/341 279/347/341
f 276/334/342 262/343/342 279/347/342
f 276/332/343 277/344/343 262/343/343
f 276/332/344 271/331/344 277/344/344
f 271/331/345 261/384/345 277/344/345
f 274/329/346 275/385/346 264/349/346
f 274/329/347 272/328/347 275/385/347
f 272/328/348 259/386/348 275/385/348
f 271/326/349 273/341/349 261/340/349
f 271/326/350 272/325/350 273/341/350
f 272/325/351 260/327/351 273/341/351
