# Blender 4.5.10 LTS
# www.blender.org
mtllib mushroom_cluster.mtl
o mushroom_cluster
v 0.000130 0.000553 0.004548
v 0.005067 0.006948 0.007321
v -0.004640 0.006948 0.007599
v -0.000028 0.035138 -0.000981
v -0.004744 0.029681 0.003964
v 0.004963 0.029681 0.003687
v -0.004317 0.000171 0.001530
v -0.006157 0.006818 0.006569
v -0.009419 0.005704 -0.002509
v -0.003195 0.034866 -0.003130
v -0.008681 0.028509 -0.005572
v -0.005419 0.029623 0.003506
v -0.002798 -0.000447 -0.003603
v -0.008900 0.005493 -0.004260
v -0.001210 0.004805 -0.010148
v -0.002113 0.034426 -0.006784
v -0.000759 0.027727 -0.012240
v -0.008450 0.028415 -0.006351
v 0.002588 -0.000447 -0.003757
v 0.000628 0.004805 -0.010201
v 0.008642 0.005493 -0.004762
v 0.001722 0.034426 -0.006894
v 0.008073 0.028415 -0.006824
v 0.000058 0.027727 -0.012263
v 0.004398 0.000171 0.001281
v 0.009260 0.005704 -0.003044
v 0.006522 0.006818 0.006206
v 0.003011 0.034866 -0.003307
v 0.005611 0.029623 0.003191
v 0.008348 0.028509 -0.006059
v -0.000291 0.032490 -0.000196
v 0.004128 0.038539 0.002631
v -0.004965 0.038539 0.002187
v 0.000013 0.066955 -0.006422
v -0.004758 0.061932 -0.002038
v 0.004334 0.061932 -0.001594
v -0.003707 0.032127 -0.002916
v -0.005786 0.038452 0.001533
v -0.008177 0.037233 -0.007165
v -0.002193 0.066721 -0.008178
v -0.007150 0.060713 -0.010737
v -0.004758 0.061932 -0.002038
v -0.002154 0.031541 -0.006970
v -0.007804 0.037092 -0.008140
v -0.000189 0.036339 -0.013072
v -0.001190 0.066342 -0.010797
v 0.000465 0.059960 -0.015669
v -0.007150 0.060713 -0.010737
v 0.002223 0.031541 -0.006756
v 0.000863 0.036339 -0.013021
v 0.007960 0.037092 -0.007370
v 0.001637 0.066342 -0.010659
v 0.007562 0.060713 -0.010019
v 0.000465 0.059960 -0.015669
v 0.003374 0.032127 -0.002570
v 0.008237 0.037233 -0.006364
v 0.005009 0.038452 0.002061
v 0.002380 0.066721 -0.007955
v 0.004334 0.061932 -0.001594
v 0.007562 0.060713 -0.010019
v 0.030952 0.068772 0.025784
v 0.031888 0.072962 0.027020
v 0.010137 0.092183 0.005348
v 0.017980 0.088603 0.013366
v 0.009913 0.067493 0.034974
v 0.009760 0.071617 0.036685
v 0.006623 0.091970 0.006883
v 0.007562 0.087970 0.017917
v -0.012094 0.066061 0.028466
v -0.013385 0.070111 0.029840
v 0.002947 0.091731 0.005796
v -0.003336 0.087261 0.014694
v -0.024772 0.065146 0.009304
v -0.026719 0.069148 0.009688
v 0.000829 0.091578 0.002595
v -0.009615 0.086808 0.005205
v -0.022188 0.065175 -0.013544
v -0.024002 0.069179 -0.014342
v 0.001260 0.091582 -0.001221
v -0.008335 0.086822 -0.006109
v -0.005552 0.066135 -0.029388
v -0.006505 0.070189 -0.031006
v 0.004039 0.091743 -0.003868
v -0.000097 0.087298 -0.013956
v 0.017352 0.067577 -0.030815
v 0.017583 0.071706 -0.032507
v 0.007865 0.091984 -0.004106
v 0.011245 0.088012 -0.014662
v 0.035807 0.068826 -0.017157
v 0.036994 0.073019 -0.018142
v 0.010948 0.092192 -0.001825
v 0.020385 0.088630 -0.007899
v 0.041179 0.069298 0.005196
v 0.042643 0.073515 0.005367
v 0.011845 0.092271 0.001909
v 0.023044 0.088864 0.003171
v -0.052731 0.000487 0.022848
v -0.047280 0.006827 0.021990
v -0.054784 0.006827 0.027969
v -0.055461 0.024115 0.019421
v -0.056167 0.018793 0.026234
v -0.048663 0.018793 0.020255
v -0.057031 0.000150 0.023057
v -0.055502 0.006771 0.028004
v -0.063457 0.005561 0.022778
v -0.058345 0.023889 0.019562
v -0.064122 0.017584 0.021008
v -0.056167 0.018793 0.026234
v -0.058524 -0.000394 0.019042
v -0.063706 0.005470 0.022108
v -0.061119 0.004722 0.012899
v -0.059346 0.023524 0.016869
v -0.061535 0.016836 0.011799
v -0.064122 0.017584 0.021008
v -0.055147 -0.000394 0.016351
v -0.060555 0.004722 0.012450
v -0.051001 0.005470 0.011985
v -0.057081 0.023524 0.015065
v -0.051980 0.017584 0.011333
v -0.061535 0.016836 0.011799
v -0.051567 0.000150 0.018703
v -0.050403 0.005561 0.012377
v -0.047086 0.006771 0.021299
v -0.054680 0.023889 0.016642
v -0.048663 0.018793 0.020255
v -0.051980 0.017584 0.011333
v -0.054785 0.022421 0.020339
v -0.050091 0.028040 0.019531
v -0.056735 0.028040 0.024685
v -0.057859 0.045923 0.016377
v -0.058479 0.041376 0.022437
v -0.051835 0.041376 0.017283
v -0.058726 0.022051 0.020487
v -0.057538 0.027964 0.024715
v -0.064431 0.026691 0.020070
v -0.060384 0.045685 0.016472
v -0.065372 0.040103 0.017791
v -0.058479 0.041376 0.022437
v -0.060038 0.021451 0.016799
v -0.064698 0.026569 0.019318
v -0.062314 0.025783 0.011293
v -0.061225 0.045301 0.014109
v -0.062987 0.039317 0.009766
v -0.065372 0.040103 0.017791
v -0.056909 0.021451 0.014371
v -0.061676 0.025783 0.010798
v -0.053310 0.026569 0.010483
v -0.059219 0.045301 0.012553
v -0.054621 0.040103 0.009452
v -0.062987 0.039317 0.009766
v -0.053662 0.022051 0.016559
v -0.052648 0.026691 0.010929
v -0.049862 0.027964 0.018760
v -0.057139 0.045685 0.013955
v -0.051835 0.041376 0.017283
v -0.054621 0.040103 0.009452
v -0.041001 0.042746 0.001037
v -0.040151 0.046949 -0.000219
v -0.056172 0.060721 0.017979
v -0.048825 0.057226 0.009468
v -0.032609 0.043025 0.015631
v -0.031166 0.047247 0.015407
v -0.055178 0.060754 0.019707
v -0.044070 0.057384 0.017737
v -0.035537 0.042536 0.032205
v -0.034301 0.046724 0.033151
v -0.055525 0.060696 0.021670
v -0.045729 0.057107 0.027128
v -0.048416 0.041507 0.043003
v -0.048089 0.045622 0.044712
v -0.057050 0.060575 0.022948
v -0.053026 0.056524 0.033245
v -0.065218 0.040421 0.042973
v -0.066078 0.044459 0.044679
v -0.059040 0.060446 0.022945
v -0.062546 0.055908 0.033228
v -0.078083 0.039784 0.032128
v -0.079851 0.043777 0.033069
v -0.060563 0.060371 0.021661
v -0.069834 0.055548 0.027084
v -0.080990 0.039896 0.015544
v -0.082964 0.043897 0.015313
v -0.060907 0.060384 0.019697
v -0.071482 0.055611 0.017688
v -0.072579 0.040704 0.000980
v -0.073959 0.044762 -0.000280
v -0.059911 0.060479 0.017972
v -0.066716 0.056069 0.009436
v -0.056786 0.041829 -0.004750
v -0.057051 0.045967 -0.006414
v -0.058041 0.060613 0.017293
v -0.057768 0.056707 0.006190
v -0.016789 0.000692 0.058412
v -0.014253 0.006646 0.054321
v -0.015370 0.006646 0.063012
v -0.021793 0.019042 0.057770
v -0.017526 0.014554 0.062735
v -0.016410 0.014554 0.054044
v -0.019409 0.000214 0.061250
v -0.015745 0.006577 0.063418
v -0.024173 0.004836 0.065065
v -0.023543 0.018723 0.059664
v -0.025954 0.012813 0.064382
v -0.017526 0.014554 0.062735
v -0.022846 -0.000560 0.059596
v -0.024665 0.004726 0.064829
v -0.028757 0.003650 0.057156
v -0.025837 0.018207 0.058560
v -0.030047 0.011737 0.056709
v -0.025954 0.012813 0.064382
v -0.022350 -0.000560 0.055736
v -0.028686 0.003650 0.056603
v -0.022788 0.004726 0.050214
v -0.025506 0.018207 0.055983
v -0.024148 0.012813 0.050320
v -0.030047 0.011737 0.056709
v -0.018607 0.000214 0.055005
v -0.022252 0.004836 0.050109
v -0.014514 0.006577 0.053833
v -0.023007 0.018723 0.055494
v -0.016410 0.014554 0.054044
v -0.024148 0.012813 0.050320
v -0.020731 0.017926 0.057947
v -0.018808 0.023250 0.054343
v -0.019892 0.023250 0.061945
v -0.026930 0.035898 0.057063
v -0.023000 0.032258 0.061502
v -0.021916 0.032258 0.053900
v -0.023136 0.017351 0.060522
v -0.020329 0.023145 0.062412
v -0.027618 0.021145 0.063770
v -0.028464 0.035532 0.058705
v -0.030288 0.030258 0.062860
v -0.023000 0.032258 0.061502
v -0.026214 0.016421 0.058968
v -0.028176 0.020976 0.063488
v -0.031597 0.019740 0.056725
v -0.030427 0.034938 0.057715
v -0.033709 0.029022 0.056097
v -0.030288 0.030258 0.062860
v -0.025710 0.016421 0.055434
v -0.031506 0.019740 0.056083
v -0.026331 0.020976 0.050546
v -0.030105 0.034938 0.055460
v -0.028534 0.030258 0.050559
v -0.033709 0.029022 0.056097
v -0.022321 0.017351 0.054803
v -0.025716 0.021145 0.050431
v -0.019097 0.023145 0.053772
v -0.027944 0.035532 0.055058
v -0.021916 0.032258 0.053900
v -0.028534 0.030258 0.050559
v -0.014358 0.029633 0.082780
v -0.013997 0.033715 0.084558
v -0.018621 0.046083 0.065393
v -0.016083 0.041766 0.076049
v -0.027679 0.029558 0.081172
v -0.028498 0.033634 0.082807
v -0.019582 0.046077 0.065277
v -0.024535 0.041719 0.075028
v -0.036850 0.029687 0.071379
v -0.038483 0.033775 0.072147
v -0.020244 0.046087 0.064570
v -0.030355 0.041801 0.068815
v -0.037582 0.029959 0.057984
v -0.039279 0.034071 0.057565
v -0.020296 0.046106 0.063604
v -0.030819 0.041973 0.060315
v -0.029530 0.030247 0.047255
v -0.030514 0.034384 0.045884
v -0.019716 0.046127 0.062830
v -0.025710 0.042156 0.053507
v -0.016464 0.030416 0.044211
v -0.016289 0.034567 0.042571
v -0.018773 0.046139 0.062610
v -0.017419 0.042263 0.051576
v -0.004496 0.030387 0.050278
v -0.003260 0.034536 0.049175
v -0.017910 0.046137 0.063048
v -0.009825 0.042244 0.055425
v 0.000773 0.030173 0.062615
v 0.002476 0.034304 0.062606
v -0.017530 0.046122 0.063938
v -0.006482 0.042109 0.063254
v -0.003122 0.029876 0.075451
v -0.001764 0.033980 0.076580
v -0.017811 0.046100 0.064864
v -0.008953 0.041920 0.071399
v 0.047415 0.000683 0.028480
v 0.046664 0.006107 0.024257
v 0.050898 0.006107 0.030982
v 0.043843 0.014068 0.030729
v 0.049826 0.010123 0.031657
v 0.045592 0.010123 0.024932
v 0.047233 0.000211 0.031891
v 0.050880 0.006059 0.031328
v 0.045968 0.004300 0.037323
v 0.043722 0.013755 0.032989
v 0.044914 0.008364 0.037652
v 0.049826 0.010123 0.031657
v 0.043965 -0.000552 0.032689
v 0.045637 0.004223 0.037403
v 0.038366 0.003136 0.034383
v 0.041557 0.013250 0.033518
v 0.037644 0.007277 0.034632
v 0.044914 0.008364 0.037652
v 0.042128 -0.000552 0.029771
v 0.038180 0.003136 0.034088
v 0.038599 0.004223 0.026226
v 0.040340 0.013250 0.031584
v 0.038063 0.008364 0.026770
v 0.037644 0.007277 0.034632
v 0.044259 0.000211 0.027169
v 0.038815 0.004300 0.025962
v 0.046344 0.006059 0.024124
v 0.041752 0.013755 0.029860
v 0.045592 0.010123 0.024932
v 0.038063 0.008364 0.026770
v 0.044775 0.013242 0.030414
v 0.044302 0.018042 0.026743
v 0.047476 0.018042 0.032943
v 0.040613 0.026476 0.032545
v 0.045867 0.023157 0.033767
v 0.042693 0.023157 0.027567
v 0.044345 0.012748 0.033512
v 0.047415 0.017972 0.033383
v 0.042712 0.016211 0.038209
v 0.040341 0.026163 0.034504
v 0.041164 0.021396 0.038593
v 0.045867 0.023157 0.033767
v 0.041315 0.011947 0.033964
v 0.042282 0.016097 0.038274
v 0.036200 0.015008 0.035057
v 0.038425 0.025656 0.034790
v 0.035083 0.020308 0.035376
v 0.041164 0.021396 0.038593
v 0.039872 0.011947 0.031145
v 0.035995 0.015008 0.034656
v 0.036940 0.016097 0.027842
v 0.037512 0.025656 0.033008
v 0.036027 0.021396 0.028562
v 0.035083 0.020308 0.035376
v 0.042010 0.012748 0.028951
v 0.037244 0.016211 0.027530
v 0.043909 0.017972 0.026535
v 0.038864 0.026163 0.031620
v 0.042693 0.023157 0.027567
v 0.036027 0.021396 0.028562
v 0.052709 0.024678 0.008547
v 0.052954 0.028830 0.007087
v 0.048743 0.036820 0.023462
v 0.051462 0.033399 0.012698
v 0.061077 0.024726 0.014124
v 0.062298 0.028883 0.013314
v 0.048743 0.036820 0.023462
v 0.057657 0.033434 0.016827
v 0.063911 0.024353 0.023764
v 0.065463 0.028467 0.024079
v 0.048743 0.036820 0.023462
v 0.059756 0.033158 0.023965
v 0.059886 0.023734 0.032958
v 0.060969 0.027775 0.034346
v 0.048743 0.036820 0.023462
v 0.056776 0.032699 0.030773
v 0.050885 0.023158 0.037403
v 0.050917 0.027132 0.039310
v 0.048743 0.036820 0.023462
v 0.050111 0.032273 0.034064
v 0.041120 0.022895 0.035020
v 0.040012 0.026838 0.036649
v 0.048743 0.036820 0.023462
v 0.042880 0.032078 0.032300
v 0.035160 0.023068 0.026923
v 0.033356 0.027032 0.027607
v 0.048743 0.036820 0.023462
v 0.038467 0.032206 0.026305
v 0.035793 0.023596 0.016902
v 0.034064 0.027621 0.016416
v 0.048743 0.036820 0.023462
v 0.038936 0.032597 0.018884
v 0.042724 0.024232 0.009645
v 0.041803 0.028332 0.008312
v 0.048743 0.036820 0.023462
v 0.044068 0.033068 0.013511
vn 0.0260 -0.4145 0.9097
vn 0.0214 0.6611 0.7500
vn -0.8020 -0.4856 0.3477
vn -0.7786 0.5924 0.2071
vn -0.5192 -0.6007 -0.6080
vn -0.5053 0.4812 -0.7163
vn 0.4836 -0.6007 -0.6366
vn 0.4636 0.4812 -0.7440
vn 0.8206 -0.4856 0.3013
vn 0.7892 0.5924 0.1622
vn -0.4029 -0.6211 0.6722
vn -0.3956 0.7805 0.4841
vn 0.0282 0.1579 0.9870
vn -0.9414 0.0747 0.3290
vn -0.6863 -0.7179 -0.1167
vn -0.6705 0.6866 -0.2811
vn -0.6102 -0.0601 -0.7900
vn -0.0180 -0.7777 -0.6284
vn -0.0222 0.6286 -0.7774
vn 0.5641 -0.0601 -0.8235
vn 0.6785 -0.7179 -0.1557
vn 0.6533 0.6866 -0.3189
vn 0.9586 0.0747 0.2747
vn 0.4406 -0.6211 0.6481
vn 0.4226 0.7805 0.4607
vn 0.0034 -0.9927 0.1205
vn -0.5644 0.1278 0.8155
vn 0.6101 0.1278 0.7819
vn -0.0034 0.9927 -0.1205
vn -0.9591 -0.0070 -0.2830
vn -0.0285 -0.0903 -0.9955
vn 0.9414 -0.0070 -0.3373
vn -0.0448 -0.3959 0.9172
vn -0.0359 0.6762 0.7358
vn -0.8270 -0.4789 0.2945
vn -0.7917 0.5960 0.1342
vn -0.4713 -0.6132 -0.6340
vn -0.4480 0.4663 -0.7628
vn 0.5308 -0.6132 -0.5850
vn 0.5202 0.4663 -0.7155
vn 0.7944 -0.4789 0.3737
vn 0.7748 0.5960 0.2107
vn -0.4542 -0.6076 0.6515
vn -0.4310 0.7899 0.4361
vn -0.0480 0.1780 0.9829
vn -0.9639 0.0808 0.2537
vn -0.6759 -0.7205 -0.1548
vn -0.0000 -0.9701 -0.2425
vn -0.5474 -0.0765 -0.8334
vn 0.0299 -0.7903 -0.6119
vn -0.0000 0.6247 -0.7809
vn 0.6260 -0.0765 -0.7761
vn 0.6878 -0.7205 -0.0882
vn -0.0000 0.7071 -0.7071
vn 0.9346 0.0808 0.3464
vn 0.3886 -0.6076 0.6927
vn 0.3865 0.7899 0.4761
vn -0.0069 -0.9900 0.1406
vn -0.6257 0.1440 0.7667
vn 0.5480 0.1440 0.8240
vn 0.0069 0.9900 -0.1406
vn -0.9344 -0.0133 -0.3561
vn 0.0485 -0.1105 -0.9927
vn 0.9646 -0.0133 -0.2633
vn 0.3937 -0.3398 0.8541
vn 0.0883 0.9389 0.3328
vn -0.2396 -0.3796 0.8936
vn -0.1631 0.9230 0.3484
vn -0.7498 -0.4142 0.5159
vn -0.3657 0.9093 0.1985
vn -0.8984 -0.4272 -0.1021
vn -0.4246 0.9041 -0.0469
vn -0.6156 -0.4127 -0.6714
vn -0.3124 0.9099 -0.2729
vn -0.0339 -0.3773 -0.9255
vn -0.0815 0.9240 -0.3737
vn 0.5746 -0.3377 -0.7455
vn 0.1601 0.9397 -0.3023
vn 0.9251 -0.3124 -0.2157
vn 0.2993 0.9497 -0.0920
vn 0.8537 -0.3132 0.4160
vn 0.2709 0.9494 0.1588
vn 0.0632 -0.9980 0.0059
vn 0.2274 0.7472 0.6244
vn 0.5668 0.7668 0.3011
vn -0.0632 0.9980 -0.0059
vn -0.2400 0.7178 0.6536
vn -0.6166 0.6923 0.3749
vn -0.7262 0.6827 -0.0812
vn -0.5175 0.6934 -0.5013
vn -0.0882 0.7195 -0.6888
vn 0.3608 0.7487 -0.5560
vn 0.6195 0.7674 -0.1651
vn 0.5725 -0.3950 0.7185
vn 0.4589 0.6765 0.5760
vn -0.4321 -0.4736 0.7674
vn -0.5005 0.6014 0.6227
vn -0.7810 -0.6008 -0.1706
vn -0.8337 0.4799 -0.2732
vn 0.0081 -0.6008 -0.7993
vn -0.0801 0.4799 -0.8736
vn 0.8445 -0.4736 -0.2498
vn 0.7188 0.6014 -0.3488
vn 0.0861 -0.6091 0.7884
vn -0.0319 0.7893 0.6132
vn 0.6127 0.1823 0.7690
vn -0.5564 0.0908 0.8259
vn -0.6170 -0.7160 0.3265
vn -0.7069 0.6866 0.1698
vn -0.9623 -0.0572 -0.2657
vn -0.3884 -0.7821 -0.4874
vn -0.4874 0.6232 -0.6116
vn -0.0441 -0.0572 -0.9974
vn 0.4561 -0.7160 -0.5285
vn 0.3233 0.6866 -0.6511
vn 0.9293 0.0908 -0.3579
vn 0.7493 -0.6091 0.2600
vn 0.6048 0.7893 0.1059
vn 0.0826 -0.9912 0.1037
vn 0.0366 0.1475 0.9884
vn 0.9552 0.1475 0.2564
vn -0.0826 0.9912 -0.1037
vn -0.9373 -0.0005 0.3486
vn -0.6205 -0.0921 -0.7788
vn 0.5491 -0.0005 -0.8357
vn 0.5694 -0.3702 0.7340
vn 0.4401 0.6960 0.5673
vn -0.4343 -0.4646 0.7717
vn -0.5185 0.6059 0.6033
vn -0.7686 -0.6173 -0.1678
vn -0.8378 0.4601 -0.2940
vn 0.0285 -0.6173 -0.7862
vn -0.0765 0.4601 -0.8846
vn 0.8554 -0.4646 -0.2289
vn 0.7133 0.6059 -0.3523
vn 0.0857 -0.5908 0.8022
vn -0.0529 0.8013 0.5959
vn 0.5995 0.2087 0.7727
vn -0.5686 0.0988 0.8166
vn -0.6094 -0.7192 0.3337
vn -0.7203 0.6781 0.1461
vn -0.9577 -0.0789 -0.2768
vn -0.3690 -0.7985 -0.4756
vn -0.4895 0.6020 -0.6309
vn -0.0300 -0.0789 -0.9964
vn 0.4747 -0.7192 -0.5073
vn 0.3205 0.6781 -0.6614
vn 0.9323 0.0988 -0.3478
vn 0.7557 -0.5908 0.2824
vn 0.5903 0.8013 0.0968
vn 0.0975 -0.9873 0.1257
vn 0.0212 0.1689 0.9854
vn 0.9492 0.1689 0.2654
vn -0.0976 0.9873 -0.1257
vn -0.9416 -0.0089 0.3365
vn -0.6086 -0.1188 -0.7845
vn 0.5600 -0.0089 -0.8284
vn 0.8274 -0.3078 -0.4698
vn 0.2590 0.9513 -0.1671
vn 0.9371 -0.3120 0.1564
vn 0.3026 0.9496 0.0815
vn 0.6196 -0.3425 0.7063
vn 0.1765 0.9375 0.2998
vn 0.0232 -0.3850 0.9226
vn -0.0602 0.9207 0.3857
vn -0.5728 -0.4196 0.7041
vn -0.2969 0.9069 0.2990
vn -0.8897 -0.4302 0.1531
vn -0.4227 0.9027 0.0802
vn -0.7791 -0.4117 -0.4728
vn -0.3788 0.9101 -0.1683
vn -0.2928 -0.3728 -0.8805
vn -0.1857 0.9255 -0.3301
vn 0.3416 -0.3318 -0.8793
vn 0.0661 0.9418 -0.3297
vn 0.0646 -0.9978 -0.0180
vn 0.5460 0.7706 -0.3287
vn 0.1875 0.7529 -0.6309
vn -0.0646 0.9978 0.0180
vn 0.6270 0.7675 0.1334
vn 0.3926 0.7450 0.5393
vn -0.0474 0.7136 0.6989
vn -0.4873 0.6881 0.5377
vn -0.7211 0.6803 0.1310
vn -0.6395 0.6939 -0.3308
vn -0.2807 0.7226 -0.6317
vn 0.9405 -0.3175 0.1208
vn 0.6726 0.7349 0.0864
vn 0.2591 -0.4418 0.8589
vn 0.0262 0.6170 0.7865
vn -0.6347 -0.6429 0.4287
vn -0.8216 0.4263 0.3784
vn -0.5057 -0.6429 -0.5752
vn -0.6993 0.4263 -0.5738
vn 0.4678 -0.4418 -0.7655
vn 0.2242 0.6170 -0.7543
vn 0.6566 -0.5528 0.5131
vn 0.3401 0.8242 0.4528
vn 0.9564 0.2651 0.1229
vn 0.1663 0.1210 0.9786
vn -0.1615 -0.7218 0.6730
vn -0.4405 0.6629 0.6054
vn -0.8702 -0.1122 0.4798
vn -0.5587 -0.8263 -0.0718
vn -0.8195 0.5633 -0.1053
vn -0.7206 -0.1122 -0.6842
vn 0.0139 -0.7218 -0.6919
vn -0.2732 0.6629 -0.6971
vn 0.4082 0.1210 -0.9048
vn 0.7650 -0.5528 -0.3305
vn 0.4435 0.8242 -0.3521
vn 0.2072 -0.9779 0.0266
vn 0.6994 0.2146 0.6818
vn 0.8490 0.2146 -0.4829
vn -0.2072 0.9779 -0.0266
vn -0.4301 -0.0187 0.9026
vn -0.9786 -0.1629 -0.1257
vn -0.1880 -0.0187 -0.9820
vn 0.9577 -0.2534 0.1365
vn 0.6212 0.7787 0.0886
vn 0.2757 -0.4163 0.8664
vn -0.0258 0.6241 0.7809
vn -0.5967 -0.6800 0.4261
vn -0.8533 0.3740 0.3632
vn -0.4539 -0.6800 -0.5759
vn -0.7178 0.3740 -0.5872
vn 0.5068 -0.4163 -0.7549
vn 0.1935 0.6241 -0.7570
vn 0.6844 -0.5037 0.5271
vn 0.2783 0.8488 0.4496
vn 0.9349 0.3290 0.1333
vn 0.1440 0.1401 0.9796
vn -0.1228 -0.7252 0.6775
vn -0.4920 0.6374 0.5931
vn -0.8675 -0.1656 0.4691
vn -0.5016 -0.8621 -0.0715
vn -0.8535 0.5067 -0.1217
vn -0.7019 -0.1656 -0.6928
vn 0.0715 -0.7252 -0.6848
vn -0.3066 0.6374 -0.7069
vn 0.4121 0.1401 -0.9003
vn 0.8045 -0.5037 -0.3148
vn 0.3929 0.8488 -0.3539
vn 0.2711 -0.9618 0.0387
vn 0.6739 0.2663 0.6892
vn 0.8396 0.2663 -0.4734
vn -0.2711 0.9618 -0.0387
vn -0.4407 -0.0395 0.8968
vn -0.9638 -0.2286 -0.1374
vn -0.1725 -0.0395 -0.9842
vn -0.1083 -0.3889 0.9149
vn -0.0517 0.9213 0.3855
vn -0.6754 -0.3876 0.6274
vn -0.2768 0.9218 0.2714
vn -0.9250 -0.3774 0.0428
vn -0.3759 0.9258 0.0393
vn -0.7405 -0.3633 -0.5654
vn -0.3027 0.9314 -0.2022
vn -0.2080 -0.3518 -0.9127
vn -0.0913 0.9360 -0.3400
vn 0.4231 -0.3483 -0.8364
vn 0.1593 0.9374 -0.3098
vn 0.8577 -0.3544 -0.3724
vn 0.3318 0.9350 -0.1255
vn 0.8924 -0.3673 0.2623
vn 0.3456 0.9298 0.1264
vn 0.5109 -0.3809 0.7707
vn 0.1941 0.9244 0.3283
vn 0.0081 -0.9998 -0.0207
vn -0.0880 0.7127 0.6959
vn 0.3689 0.7186 0.5895
vn -0.0081 0.9998 0.0207
vn -0.5065 0.7137 0.4838
vn -0.6907 0.7212 0.0523
vn -0.5545 0.7316 -0.3965
vn -0.1616 0.7401 -0.6528
vn 0.3042 0.7427 -0.5965
vn 0.6249 0.7382 -0.2541
vn 0.6505 0.7287 0.2143
vn 0.8111 -0.2853 -0.5107
vn 0.5530 0.7569 -0.3482
vn 0.7574 -0.4245 0.4961
vn 0.5027 0.6264 0.5957
vn -0.2067 -0.6498 0.7315
vn -0.4013 0.4152 0.8165
vn -0.7490 -0.6498 -0.1297
vn -0.9097 0.4152 0.0090
vn -0.1200 -0.4245 -0.8974
vn -0.3199 0.6264 -0.7108
vn 0.8470 -0.5309 -0.0283
vn 0.5290 0.8363 0.1438
vn 0.8071 0.3007 -0.5082
vn 0.7453 0.1403 0.6518
vn 0.3187 -0.7200 0.6164
vn 0.0301 0.6577 0.7527
vn -0.3656 -0.1192 0.9231
vn -0.4631 -0.8370 0.2916
vn -0.7083 0.5473 0.4459
vn -0.9905 -0.1192 -0.0692
vn -0.4181 -0.7200 -0.5538
vn -0.6657 0.6577 -0.3525
vn -0.2657 0.1403 -0.9538
vn 0.3916 -0.5309 -0.7515
vn 0.0989 0.8363 -0.5392
vn 0.1969 -0.9725 -0.1240
vn 0.9662 0.2435 0.0851
vn 0.3408 0.2435 -0.9080
vn -0.1969 0.9725 0.1240
vn 0.2408 -0.0162 0.9704
vn -0.8329 -0.1768 0.5244
vn -0.7711 -0.0162 -0.6365
vn 0.8613 -0.2523 -0.4410
vn 0.5583 0.7788 -0.2859
vn 0.7233 -0.4114 0.5547
vn 0.4289 0.6297 0.6477
vn -0.2506 -0.6687 0.7000
vn -0.4842 0.3885 0.7840
vn -0.7145 -0.6687 -0.2058
vn -0.9191 0.3885 -0.0654
vn -0.0273 -0.4114 -0.9111
vn -0.2748 0.6297 -0.7266
vn 0.8619 -0.5056 0.0388
vn 0.4886 0.8485 0.2032
vn 0.8392 0.3332 -0.4297
vn 0.6802 0.1499 0.7175
vn 0.2848 -0.7216 0.6310
vn -0.0565 0.6445 0.7626
vn -0.4419 -0.1465 0.8850
vn -0.4614 -0.8552 0.2362
vn -0.7612 0.5183 0.3898
vn -0.9764 -0.1465 -0.1588
vn -0.3454 -0.7216 -0.5999
vn -0.4472 0.8944 -0.0000
vn -0.1846 0.1499 -0.9713
vn 0.4724 -0.5055 -0.7220
vn 0.1207 0.8485 -0.5152
vn 0.2366 -0.9640 -0.1212
vn 0.9470 0.2698 0.1744
vn 0.4121 0.2698 -0.8703
vn -0.2366 0.9640 0.1212
vn 0.1545 -0.0270 0.9876
vn -0.8702 -0.2103 0.4456
vn -0.7110 -0.0270 -0.7027
vn 0.5286 -0.3093 -0.7905
vn -0.0000 1.0000 -0.0000
vn 0.9054 -0.3203 -0.2786
vn -1.0000 -0.0000 -0.0000
vn 0.8654 -0.3537 0.3550
vn -0.2767 0.9610 -0.0000
vn 0.4272 -0.3939 0.8139
vn -0.0000 -0.8310 -0.5563
vn -0.2042 -0.4221 0.8833
vn -0.7332 -0.4251 0.5307
vn -0.9124 -0.4015 -0.0788
vn -0.6580 -0.3624 -0.6601
vn -0.0889 -0.3259 -0.9412
vn 0.0391 -0.9980 -0.0501
vn 0.3510 0.7697 -0.5333
vn -0.1047 0.7574 -0.6445
vn 0.6291 0.7616 -0.1555
vn 0.5995 0.7370 0.3121
vn 0.2761 0.7073 0.6507
vn -0.1898 0.6865 0.7019
vn -0.5802 0.6843 0.4418
vn -0.7125 0.7017 -0.0081
vn -0.5247 0.7306 -0.4370
vn 0.6533 0.6866 -0.3190
vn -0.6461 0.6804 -0.3460
vn 0.0386 0.6127 -0.7894
vn 0.6767 0.6804 -0.2814
vn -0.0000 -0.7071 -0.7071
vn 0.5467 -0.0595 -0.8352
vn -0.0000 -0.1237 -0.9923
vn -0.0000 -0.1240 -0.9923
vn -0.0000 -0.0939 -0.9956
vn -0.0814 0.9240 -0.3737
vn 0.8944 -0.4472 -0.0000
vn -0.9523 -0.3050 -0.0000
vn 0.9992 0.0400 -0.0000
vn 1.0000 -0.0000 -0.0000
vn -0.8944 -0.4472 -0.0000
vn -0.0975 0.9873 -0.1257
vn 0.9811 0.1937 -0.0000
vn 0.9968 0.0796 -0.0000
vn -0.9952 -0.0982 -0.0000
vn -0.0646 0.9978 0.0181
vn 0.6566 -0.5529 0.5131
vn -0.0000 -0.0000 1.0000
vn -0.4472 -0.0000 0.8944
vn -0.1204 0.9631 -0.2408
vn -0.0148 -0.0782 -0.9968
vn -0.4419 -0.2176 -0.8703
vn -0.0000 -0.4472 -0.8944
vn -0.7018 -0.1656 -0.6928
vn 0.0714 -0.7252 -0.6848
vn -0.0000 -0.6573 0.7536
vn -0.0000 0.0460 -0.9989
vn 0.3187 -0.7201 0.6164
vn -0.1632 -0.0000 0.9866
vn 0.8619 -0.5055 0.0387
vn -0.6517 0.6445 -0.3999
vn -0.9828 -0.1847 -0.0000
vn 0.1678 0.9509 -0.2599
vn 0.3174 0.9466 -0.0567
vn 0.3015 0.9333 0.1949
vn 0.1275 0.9174 0.3770
vn -0.1231 0.9062 0.4046
vn -0.3332 0.9050 0.2646
vn -0.4043 0.9143 0.0226
vn -0.3033 0.9299 -0.2081
vn -0.0773 0.9443 -0.3197
vn -0.0000 -1.0000 -0.0000
vt 0.750000 0.341672
vt 0.651884 0.416315
vt 0.848116 0.416315
vt 0.250000 0.323339
vt 0.356691 0.412485
vt 0.143309 0.412485
vt 0.837185 0.278328
vt 0.877855 0.394708
vt 0.938494 0.208081
vt 0.319750 0.272663
vt 0.437501 0.198742
vt 0.371563 0.401679
vt 0.803883 0.175836
vt 0.927135 0.173120
vt 0.768380 0.057778
vt 0.293108 0.190667
vt 0.259191 0.055836
vt 0.431821 0.181258
vt 0.696117 0.175836
vt 0.731620 0.057778
vt 0.572865 0.173120
vt 0.206892 0.190667
vt 0.068179 0.181258
vt 0.240809 0.055836
vt 0.662815 0.278328
vt 0.561506 0.208081
vt 0.622145 0.394708
vt 0.180250 0.272663
vt 0.128437 0.401679
vt 0.062499 0.198742
vt 0.086779 0.585674
vt 0.000000 0.916223
vt 0.000000 0.587572
vt 0.713221 0.585674
vt 0.893590 0.914326
vt 0.706410 0.914326
vt 0.506410 0.914326
vt 0.686779 0.585674
vt 0.693590 0.914326
vt 0.306410 0.914326
vt 0.486779 0.585674
vt 0.493590 0.914326
vt 0.113221 0.585674
vt 0.293590 0.914326
vt 0.106410 0.914326
vt 0.906410 0.914326
vt 0.886779 0.585674
vt 0.913221 0.585674
vt 0.093590 0.914326
vt 0.513222 0.585674
vt 0.286779 0.585674
vt 0.313221 0.585674
vt 0.750000 0.333758
vt 0.646772 0.412214
vt 0.853228 0.412214
vt 0.250000 0.311723
vt 0.364127 0.407082
vt 0.135873 0.407082
vt 0.829658 0.275883
vt 0.872376 0.398302
vt 0.936174 0.201951
vt 0.308702 0.269074
vt 0.434661 0.190000
vt 0.799231 0.182239
vt 0.928860 0.179442
vt 0.761834 0.058091
vt 0.286280 0.200065
vt 0.250000 0.055836
vt 0.434661 0.190000
vt 0.700769 0.182239
vt 0.738166 0.058091
vt 0.571140 0.179442
vt 0.213720 0.200065
vt 0.065339 0.190000
vt 0.250000 0.055836
vt 0.670342 0.275883
vt 0.563826 0.201951
vt 0.627625 0.398302
vt 0.191298 0.269074
vt 0.135873 0.407082
vt 0.065339 0.190000
vt 0.100000 0.919681
vt 0.000000 0.582098
vt 0.091481 0.580319
vt 0.708519 0.580319
vt 0.900000 0.919681
vt 0.700000 0.919681
vt 0.508519 0.580319
vt 0.700000 0.919681
vt 0.500000 0.919681
vt 0.308519 0.580319
vt 0.500000 0.919681
vt 0.300000 0.919681
vt 0.108519 0.580319
vt 0.300000 0.919681
vt 0.100000 0.919681
vt 0.908520 0.580319
vt 0.891481 0.580319
vt 0.691481 0.580319
vt 0.491481 0.580319
vt 0.291481 0.580319
vt 0.902173 0.431352
vt 0.750000 0.451690
vt 0.750000 0.486739
vt 0.404269 0.433851
vt 0.250000 0.362299
vt 0.322184 0.336026
vt 0.948625 0.285023
vt 0.879644 0.404503
vt 0.360593 0.269501
vt 0.486354 0.291676
vt 0.955022 0.131631
vt 0.983142 0.291109
vt 0.457846 0.130000
vt 0.347254 0.193851
vt 0.830969 0.027538
vt 0.924668 0.149155
vt 0.332085 0.024474
vt 0.288408 0.144474
vt 0.669030 0.027538
vt 0.818982 0.060474
vt 0.167915 0.024474
vt 0.211592 0.144474
vt 0.544978 0.131631
vt 0.681018 0.060474
vt 0.152747 0.193851
vt 0.042154 0.130000
vt 0.551374 0.285023
vt 0.575332 0.149155
vt 0.139407 0.269501
vt 0.013646 0.291676
vt 0.516858 0.291109
vt 0.620356 0.404503
vt 0.177816 0.336026
vt 0.095731 0.433851
vt 0.597827 0.431352
vt 0.250000 0.490000
vt 1.000000 0.917029
vt 0.888889 0.582971
vt 1.000000 0.582971
vt 0.111111 0.917029
vt 0.000000 0.582971
vt 0.111111 0.582971
vt 0.888889 0.917029
vt 0.777778 0.582971
vt 0.666667 0.917029
vt 0.666667 0.582971
vt 0.555556 0.582971
vt 0.444444 0.917029
vt 0.444444 0.582971
vt 0.333333 0.582971
vt 0.333333 0.917029
vt 0.222222 0.582971
vt 0.222222 0.917029
vt 0.750000 0.330147
vt 0.644138 0.409077
vt 0.855862 0.409077
vt 0.250000 0.310390
vt 0.364127 0.407082
vt 0.135873 0.407082
vt 0.826225 0.274767
vt 0.868578 0.399838
vt 0.934004 0.198477
vt 0.307435 0.268662
vt 0.797109 0.185159
vt 0.929147 0.183528
vt 0.757859 0.059080
vt 0.285497 0.201143
vt 0.250000 0.055836
vt 0.434661 0.190000
vt 0.702890 0.185159
vt 0.742141 0.059080
vt 0.570853 0.183528
vt 0.214503 0.201143
vt 0.065339 0.190000
vt 0.250000 0.055836
vt 0.673775 0.274767
vt 0.565996 0.198477
vt 0.631422 0.399838
vt 0.192565 0.268662
vt 0.065339 0.190000
vt 0.100000 0.876617
vt 0.000000 0.627035
vt 0.094299 0.623383
vt 0.705701 0.623383
vt 0.900000 0.876617
vt 0.700000 0.876617
vt 0.505701 0.623383
vt 0.700000 0.876617
vt 0.500000 0.876617
vt 0.305701 0.623383
vt 0.500000 0.876617
vt 0.300000 0.876617
vt 0.105701 0.623383
vt 0.300000 0.876617
vt 0.100000 0.876617
vt 0.905701 0.623383
vt 0.894299 0.623383
vt 0.694299 0.623383
vt 0.494299 0.623383
vt 0.294299 0.623383
vt 0.750000 0.332589
vt 0.645699 0.410390
vt 0.854301 0.410390
vt 0.250000 0.310390
vt 0.135873 0.407082
vt 0.828547 0.275521
vt 0.870309 0.398759
vt 0.934771 0.200367
vt 0.307435 0.268662
vt 0.434661 0.190000
vt 0.364127 0.407082
vt 0.798545 0.183184
vt 0.928656 0.181548
vt 0.759894 0.058935
vt 0.285497 0.201143
vt 0.250000 0.055836
vt 0.701455 0.183184
vt 0.740106 0.058935
vt 0.571344 0.181548
vt 0.214503 0.201143
vt 0.065339 0.190000
vt 0.671453 0.275522
vt 0.565229 0.200367
vt 0.629691 0.398759
vt 0.192565 0.268662
vt 0.135873 0.407082
vt 0.065339 0.190000
vt 0.100000 0.891866
vt 0.000000 0.611334
vt 0.092830 0.608134
vt 0.707170 0.608134
vt 0.900000 0.891866
vt 0.700000 0.891866
vt 0.500000 0.891866
vt 0.692830 0.608134
vt 0.307170 0.608134
vt 0.500000 0.891866
vt 0.300000 0.891866
vt 0.107170 0.608134
vt 0.300000 0.891866
vt 0.907170 0.608134
vt 0.892830 0.608134
vt 0.507170 0.608134
vt 0.492830 0.608134
vt 0.292830 0.608134
vt 0.750000 0.485792
vt 0.872494 0.395983
vt 0.750000 0.440567
vt 0.404269 0.433851
vt 0.250000 0.325224
vt 0.298353 0.307625
vt 0.901564 0.430627
vt 0.937672 0.283092
vt 0.324081 0.263063
vt 0.486354 0.291676
vt 0.982210 0.290945
vt 0.915036 0.154716
vt 0.315146 0.212388
vt 0.457846 0.130000
vt 0.954202 0.132104
vt 0.815178 0.070925
vt 0.275728 0.179313
vt 0.332085 0.024474
vt 0.669354 0.028428
vt 0.830646 0.028428
vt 0.224272 0.179313
vt 0.167915 0.024474
vt 0.545798 0.132104
vt 0.684822 0.070925
vt 0.042154 0.130000
vt 0.184854 0.212388
vt 0.517790 0.290945
vt 0.584964 0.154716
vt 0.013646 0.291676
vt 0.175919 0.263063
vt 0.598436 0.430627
vt 0.562328 0.283092
vt 0.201647 0.307625
vt 0.627506 0.395983
vt 1.000000 0.607060
vt 0.888889 0.892940
vt 0.888889 0.607060
vt 0.111111 0.607060
vt 0.000000 0.892940
vt 0.000000 0.607060
vt 0.777778 0.892940
vt 0.777778 0.607060
vt 0.666667 0.607060
vt 0.666667 0.892940
vt 0.555556 0.607060
vt 0.444444 0.892940
vt 0.444444 0.607060
vt 0.333333 0.607060
vt 0.333333 0.892940
vt 0.222222 0.607060
vt 0.111111 0.892940
vt 0.750000 0.329446
vt 0.643510 0.407948
vt 0.856490 0.407948
vt 0.250000 0.309602
vt 0.825557 0.274550
vt 0.867310 0.400087
vt 0.933125 0.197530
vt 0.306685 0.268418
vt 0.796697 0.185727
vt 0.928992 0.184811
vt 0.756687 0.059624
vt 0.285033 0.201781
vt 0.250000 0.055836
vt 0.703303 0.185727
vt 0.743313 0.059624
vt 0.571008 0.184811
vt 0.214967 0.201781
vt 0.065339 0.190000
vt 0.250000 0.055836
vt 0.674443 0.274550
vt 0.566875 0.197530
vt 0.632690 0.400087
vt 0.193315 0.268418
vt 0.135873 0.407082
vt 0.065339 0.190000
vt 0.100000 0.857732
vt 0.000000 0.647102
vt 0.095128 0.642269
vt 0.704872 0.642269
vt 0.900000 0.857731
vt 0.700000 0.857731
vt 0.504872 0.642269
vt 0.700000 0.857732
vt 0.500000 0.857731
vt 0.304872 0.642269
vt 0.500000 0.857731
vt 0.300000 0.857732
vt 0.104872 0.642269
vt 0.300000 0.857731
vt 0.100000 0.857731
vt 0.900000 0.857731
vt 0.895128 0.642269
vt 0.904872 0.642269
vt 0.695128 0.642269
vt 0.495128 0.642269
vt 0.295128 0.642269
vt 0.750000 0.331898
vt 0.645071 0.409292
vt 0.854929 0.409292
vt 0.250000 0.309602
vt 0.364127 0.407082
vt 0.827890 0.275308
vt 0.869070 0.399017
vt 0.933920 0.199430
vt 0.306685 0.268418
vt 0.434661 0.190000
vt 0.364127 0.407082
vt 0.798139 0.183743
vt 0.928519 0.182806
vt 0.758740 0.059455
vt 0.285033 0.201781
vt 0.434661 0.190000
vt 0.701862 0.183743
vt 0.741260 0.059455
vt 0.571481 0.182806
vt 0.214967 0.201781
vt 0.250000 0.055836
vt 0.672110 0.275308
vt 0.566080 0.199430
vt 0.630930 0.399017
vt 0.193315 0.268418
vt 0.135873 0.407082
vt 0.065339 0.190000
vt 0.100000 0.875315
vt 0.000000 0.628921
vt 0.093640 0.624685
vt 0.706360 0.624685
vt 0.900000 0.875315
vt 0.700000 0.875315
vt 0.500000 0.875315
vt 0.693640 0.624685
vt 0.700000 0.875315
vt 0.300000 0.875315
vt 0.493640 0.624685
vt 0.500000 0.875315
vt 0.106360 0.624685
vt 0.300000 0.875315
vt 0.100000 0.875315
vt 0.906360 0.624685
vt 0.893640 0.624685
vt 0.506360 0.624685
vt 0.306360 0.624685
vt 0.293640 0.624685
vt 0.901044 0.430007
vt 0.750000 0.431061
vt 0.750000 0.484983
vt 0.250000 0.490000
vt 0.277985 0.283351
vt 0.404269 0.433851
vt 0.981413 0.290804
vt 0.866384 0.388701
vt 0.292875 0.257560
vt 0.486354 0.291676
vt 0.953501 0.132509
vt 0.928310 0.281441
vt 0.457846 0.130000
vt 0.287704 0.228232
vt 0.830369 0.029188
vt 0.906803 0.159470
vt 0.264890 0.209089
vt 0.688074 0.079858
vt 0.811926 0.079858
vt 0.167915 0.024474
vt 0.235110 0.209089
vt 0.669631 0.029188
vt 0.593197 0.159470
vt 0.212296 0.228232
vt 0.546499 0.132509
vt 0.571690 0.281441
vt 0.207125 0.257560
vt 0.013646 0.291676
vt 0.518587 0.290804
vt 0.633616 0.388701
vt 0.222015 0.283351
vt 0.095731 0.433851
vt 0.598956 0.430007
vt 0.250000 0.293536
vt 1.000000 0.627648
vt 0.888889 0.872352
vt 0.888889 0.627648
vt 0.111111 0.872352
vt 0.000000 0.627648
vt 0.111111 0.627648
vt 0.777778 0.627648
vt 0.666667 0.872352
vt 0.666667 0.627648
vt 0.555556 0.627648
vt 0.555556 0.872352
vt 0.444445 0.627648
vt 0.333333 0.872352
vt 0.333333 0.627648
vt 0.222222 0.872352
vt 0.222222 0.627648
vt 0.750000 0.328237
vt 0.642440 0.405965
vt 0.857560 0.405965
vt 0.250000 0.308244
vt 0.364127 0.407082
vt 0.824408 0.274177
vt 0.865094 0.400491
vt 0.931569 0.195900
vt 0.305393 0.267998
vt 0.795987 0.186705
vt 0.928692 0.187044
vt 0.754656 0.060600
vt 0.284235 0.202880
vt 0.250000 0.055836
vt 0.704013 0.186705
vt 0.745344 0.060600
vt 0.571308 0.187044
vt 0.215765 0.202880
vt 0.065339 0.190000
vt 0.675592 0.274177
vt 0.568431 0.195900
vt 0.634906 0.400491
vt 0.194607 0.267998
vt 0.100000 0.825015
vt 0.000000 0.682240
vt 0.096579 0.674985
vt 0.700000 0.825015
vt 0.896579 0.674985
vt 0.900000 0.825015
vt 0.500000 0.825015
vt 0.696579 0.674985
vt 0.700000 0.825015
vt 0.300000 0.825015
vt 0.496579 0.674985
vt 0.103421 0.674985
vt 0.100000 0.825015
vt 0.903421 0.674985
vt 0.703421 0.674985
vt 0.503421 0.674985
vt 0.303421 0.674985
vt 0.296579 0.674985
vt 0.750000 0.330708
vt 0.643999 0.407364
vt 0.856001 0.407364
vt 0.250000 0.308244
vt 0.826758 0.274940
vt 0.866906 0.399441
vt 0.932418 0.197816
vt 0.305393 0.267998
vt 0.797439 0.184706
vt 0.928252 0.184995
vt 0.756740 0.060384
vt 0.284235 0.202880
vt 0.250000 0.055836
vt 0.434661 0.190000
vt 0.702561 0.184706
vt 0.743260 0.060384
vt 0.571747 0.184995
vt 0.215765 0.202880
vt 0.065339 0.190000
vt 0.250000 0.055836
vt 0.673242 0.274940
vt 0.567582 0.197816
vt 0.633094 0.399441
vt 0.194607 0.267998
vt 0.065339 0.190000
vt 0.100000 0.846642
vt 0.000000 0.659716
vt 0.095056 0.653357
vt 0.704944 0.653358
vt 0.900000 0.846642
vt 0.700000 0.846643
vt 0.500000 0.846642
vt 0.695056 0.653358
vt 0.700000 0.846642
vt 0.304944 0.653358
vt 0.300000 0.846642
vt 0.104944 0.653358
vt 0.300000 0.846643
vt 0.100000 0.846643
vt 0.904944 0.653358
vt 0.895056 0.653358
vt 0.504944 0.653357
vt 0.495056 0.653358
vt 0.295056 0.653357
vt 0.750000 0.483871
vt 0.857988 0.378695
vt 0.750000 0.418000
vt 0.404269 0.433851
vt 0.250000 0.250000
vt 0.900329 0.429156
vt 0.915448 0.279173
vt 0.486354 0.291676
vt 0.250000 0.250000
vt 0.980318 0.290611
vt 0.895492 0.166000
vt 0.457846 0.130000
vt 0.250000 0.250000
vt 0.952538 0.133064
vt 0.807459 0.092132
vt 0.332085 0.024474
vt 0.250000 0.250000
vt 0.829989 0.030233
vt 0.692541 0.092132
vt 0.167915 0.024474
vt 0.250000 0.250000
vt 0.670011 0.030233
vt 0.604508 0.166000
vt 0.250000 0.250000
vt 0.519682 0.290611
vt 0.547462 0.133064
vt 0.250000 0.250000
vt 0.642012 0.378695
vt 0.584552 0.279173
vt 0.095731 0.433851
vt 0.250000 0.250000
vt 0.599671 0.429156
vt 0.250000 0.490000
vt 1.000000 0.844065
vt 0.888889 0.655935
vt 1.000000 0.655935
vt 0.111111 0.844065
vt 0.000000 0.655935
vt 0.111111 0.655935
vt 0.888889 0.844065
vt 0.777778 0.655935
vt 0.666667 0.844065
vt 0.666667 0.655935
vt 0.555556 0.844065
vt 0.555556 0.655935
vt 0.444445 0.655935
vt 0.444445 0.844065
vt 0.333333 0.655935
vt 0.333333 0.844065
vt 0.222222 0.655935
vt 0.222222 0.844065
vt 0.000000 0.921461
vt 0.900000 0.919681
vt 0.000000 0.917029
vt 0.777778 0.917029
vt 0.555556 0.917029
vt 0.000000 0.880268
vt 0.900000 0.876617
vt 0.000000 0.895067
vt 0.900000 0.891866
vt 1.000000 0.892940
vt 0.555556 0.892940
vt 0.222222 0.892940
vt 0.000000 0.862565
vt 0.000000 0.879551
vt 0.900000 0.875315
vt 1.000000 0.872352
vt 0.000000 0.872352
vt 0.777778 0.872352
vt 0.444445 0.872352
vt 0.000000 0.832270
vt 0.900000 0.825015
vt 0.000000 0.853001
vt 0.900000 0.846642
vt 0.000000 0.844065
vt 0.777778 0.844065
s 0
usemtl bark
f 1/1/1 2/2/1 3/3/1
f 4/4/2 5/5/2 6/6/2
f 7/7/3 8/8/3 9/9/3
f 10/10/4 11/11/4 12/12/4
f 13/13/5 14/14/5 15/15/5
f 16/16/6 17/17/6 18/18/6
f 19/19/7 20/20/7 21/21/7
f 22/22/8 23/23/8 24/24/8
f 25/25/9 26/26/9 27/27/9
f 28/28/10 29/29/10 30/30/10
f 8/8/11 1/1/11 3/3/11
f 5/5/12 10/10/12 12/12/12
f 2/31/13 5/32/13 3/33/13
f 9/34/14 12/35/14 11/36/14
f 14/14/15 7/7/15 9/9/15
f 18/18/16 10/10/16 16/16/16
f 17/37/17 14/38/17 18/39/17
f 20/20/18 13/13/18 15/15/18
f 17/17/19 22/22/19 24/24/19
f 23/40/20 20/41/20 24/42/20
f 21/21/21 25/25/21 19/19/21
f 30/30/22 22/22/22 28/28/22
f 27/43/23 30/44/23 29/45/23
f 2/2/24 25/25/24 27/27/24
f 29/29/25 4/4/25 6/6/25
f 7/7/26 19/19/26 25/25/26
f 5/46/27 8/47/27 3/48/27
f 27/43/28 6/49/28 2/31/28
f 4/4/29 22/22/29 16/16/29
f 9/34/30 18/39/30 14/38/30
f 15/50/31 24/42/31 20/41/31
f 23/40/32 26/51/32 21/52/32
f 31/53/33 32/54/33 33/55/33
f 34/56/34 35/57/34 36/58/34
f 37/59/35 38/60/35 39/61/35
f 40/62/36 41/63/36 42/57/36
f 43/64/37 44/65/37 45/66/37
f 46/67/38 47/68/38 48/69/38
f 49/70/39 50/71/39 51/72/39
f 52/73/40 53/74/40 54/75/40
f 55/76/41 56/77/41 57/78/41
f 58/79/42 59/80/42 60/81/42
f 38/60/43 31/53/43 33/55/43
f 42/57/44 34/56/44 40/62/44
f 36/82/45 33/83/45 32/84/45
f 39/85/46 42/86/46 41/87/46
f 44/65/47 37/59/47 39/61/47
f 41/63/48 46/67/48 48/69/48
f 45/88/49 48/89/49 47/90/49
f 50/71/50 43/64/50 45/66/50
f 47/68/51 52/73/51 54/75/51
f 51/91/52 54/92/52 53/93/52
f 56/77/53 49/70/53 51/72/53
f 53/74/54 58/79/54 60/81/54
f 57/94/55 60/95/55 59/96/55
f 32/54/56 55/76/56 57/78/56
f 36/58/57 58/79/57 34/56/57
f 37/59/58 49/70/58 55/76/58
f 33/97/59 42/86/59 38/98/59
f 57/94/60 36/82/60 32/84/60
f 34/56/61 52/73/61 46/67/61
f 39/85/62 48/89/62 44/99/62
f 47/90/63 50/100/63 45/88/63
f 51/91/64 60/95/64 56/101/64
f 97/155/94 98/156/94 99/157/94
f 100/158/95 101/159/95 102/160/95
f 103/161/96 104/162/96 105/163/96
f 106/164/97 107/69/97 108/159/97
f 109/165/98 110/166/98 111/167/98
f 112/168/99 113/169/99 114/170/99
f 115/171/100 116/172/100 117/173/100
f 118/174/101 119/175/101 120/176/101
f 121/177/102 122/178/102 123/179/102
f 124/180/103 125/160/103 126/181/103
f 104/162/104 97/155/104 99/157/104
f 108/159/105 100/158/105 106/164/105
f 102/182/106 99/183/106 98/184/106
f 105/185/107 108/186/107 107/187/107
f 110/166/108 103/161/108 105/163/108
f 114/170/109 106/164/109 112/168/109
f 111/188/110 114/189/110 113/190/110
f 116/172/111 109/165/111 111/167/111
f 120/176/112 112/168/112 118/174/112
f 117/191/113 120/192/113 119/193/113
f 122/178/114 115/171/114 117/173/114
f 126/181/115 118/174/115 124/180/115
f 123/194/116 126/195/116 125/196/116
f 98/156/117 121/177/117 123/179/117
f 102/160/118 124/180/118 100/158/118
f 103/161/119 115/171/119 121/177/119
f 99/197/120 108/186/120 104/198/120
f 123/194/121 102/182/121 98/184/121
f 100/158/122 118/174/122 112/168/122
f 105/185/123 114/189/123 110/199/123
f 111/188/124 120/192/124 116/200/124
f 117/191/125 126/195/125 122/201/125
f 127/202/126 128/203/126 129/204/126
f 130/205/127 131/57/127 132/206/127
f 133/207/128 134/208/128 135/209/128
f 136/210/129 137/211/129 138/212/129
f 139/213/130 140/214/130 141/215/130
f 142/216/131 143/217/131 144/170/131
f 145/218/132 146/219/132 147/220/132
f 148/221/133 149/222/133 150/68/133
f 151/223/134 152/224/134 153/225/134
f 154/226/135 155/227/135 156/228/135
f 129/204/136 133/207/136 127/202/136
f 138/212/137 130/205/137 136/210/137
f 132/229/138 129/230/138 128/231/138
f 135/232/139 138/233/139 137/234/139
f 135/209/140 139/213/140 133/207/140
f 144/170/141 136/210/141 142/216/141
f 143/235/142 140/236/142 144/234/142
f 146/219/143 139/213/143 141/215/143
f 150/68/144 142/216/144 148/221/144
f 147/237/145 150/238/145 149/239/145
f 152/224/146 145/218/146 147/220/146
f 156/228/147 148/221/147 154/226/147
f 153/240/148 156/241/148 155/229/148
f 153/225/149 127/202/149 151/223/149
f 132/206/150 154/226/150 130/205/150
f 133/207/151 145/218/151 151/223/151
f 129/242/152 138/233/152 134/243/152
f 153/240/153 132/229/153 128/231/153
f 130/205/154 148/221/154 142/216/154
f 135/232/155 144/234/155 140/236/155
f 141/244/156 150/238/156 146/245/156
f 147/237/157 156/241/157 152/246/157
f 193/298/187 194/299/187 195/300/187
f 196/301/188 197/159/188 198/227/188
f 199/302/189 200/303/189 201/304/189
f 202/305/190 203/170/190 204/57/190
f 205/306/191 206/307/191 207/308/191
f 208/309/192 209/310/192 210/69/192
f 211/311/193 212/312/193 213/313/193
f 214/314/194 215/315/194 216/316/194
f 217/317/195 218/318/195 219/319/195
f 220/320/196 221/321/196 222/322/196
f 195/300/197 199/302/197 193/298/197
f 204/57/198 196/301/198 202/305/198
f 198/323/199 195/324/199 194/325/199
f 201/326/200 204/327/200 203/328/200
f 201/304/201 205/306/201 199/302/201
f 210/69/202 202/305/202 208/309/202
f 207/329/203 210/330/203 209/331/203
f 212/312/204 205/306/204 207/308/204
f 216/316/205 208/309/205 214/314/205
f 213/332/206 216/333/206 215/334/206
f 218/318/207 211/311/207 213/313/207
f 222/322/208 214/314/208 220/320/208
f 219/335/209 222/336/209 221/337/209
f 219/319/210 193/298/210 217/317/210
f 198/227/211 220/320/211 196/301/211
f 199/302/212 211/311/212 217/317/212
f 197/338/213 200/339/213 195/340/213
f 219/335/214 198/323/214 194/325/214
f 196/301/215 214/314/215 208/309/215
f 201/326/216 210/330/216 206/341/216
f 207/329/217 216/333/217 212/342/217
f 215/334/218 218/343/218 213/332/218
f 223/344/219 224/345/219 225/346/219
f 226/347/220 227/348/220 228/160/220
f 229/349/221 230/350/221 231/351/221
f 232/352/222 233/353/222 234/354/222
f 235/355/223 236/356/223 237/357/223
f 238/358/224 239/316/224 240/359/224
f 241/360/225 242/361/225 243/362/225
f 244/363/226 245/175/226 246/364/226
f 247/365/227 248/366/227 249/367/227
f 250/368/228 251/369/228 252/370/228
f 230/350/229 223/344/229 225/346/229
f 234/354/230 226/347/230 232/352/230
f 228/371/231 225/372/231 224/373/231
f 231/374/232 234/375/232 233/376/232
f 231/351/233 235/355/233 229/349/233
f 240/359/234 232/352/234 238/358/234
f 239/377/235 236/378/235 240/379/235
f 242/361/236 235/355/236 237/357/236
f 246/364/237 238/358/237 244/363/237
f 245/380/238 242/381/238 246/382/238
f 248/366/239 241/360/239 243/362/239
f 252/370/240 244/363/240 250/368/240
f 249/383/241 252/384/241 251/385/241
f 224/345/242 247/365/242 249/367/242
f 228/160/243 250/368/243 226/347/243
f 229/349/244 241/360/244 247/365/244
f 225/386/245 234/375/245 230/387/245
f 249/383/246 228/371/246 224/373/246
f 226/347/247 244/363/247 238/358/247
f 231/374/248 240/379/248 236/378/248
f 237/388/249 246/382/249 242/381/249
f 243/389/250 252/384/250 248/390/250
f 289/441/280 290/442/280 291/443/280
f 292/444/281 293/445/281 294/160/281
f 295/446/282 296/447/282 297/448/282
f 298/449/283 299/170/283 300/212/283
f 301/450/284 302/451/284 303/452/284
f 304/453/285 305/454/285 306/170/285
f 307/455/286 308/456/286 309/457/286
f 310/458/287 311/459/287 312/454/287
f 313/460/288 314/461/288 315/462/288
f 316/463/289 317/160/289 318/228/289
f 291/443/290 295/446/290 289/441/290
f 300/212/291 292/444/291 298/449/291
f 294/464/292 291/465/292 290/466/292
f 299/467/293 296/468/293 300/469/293
f 297/448/294 301/450/294 295/446/294
f 306/170/295 298/449/295 304/453/295
f 305/470/296 302/471/296 306/472/296
f 303/452/297 307/455/297 301/450/297
f 312/454/298 304/453/298 310/458/298
f 311/473/299 308/474/299 312/470/299
f 314/461/300 307/455/300 309/457/300
f 318/228/301 310/458/301 316/463/301
f 315/475/302 318/473/302 317/476/302
f 290/442/303 313/460/303 315/462/303
f 294/160/304 316/463/304 292/444/304
f 295/446/305 307/455/305 313/460/305
f 291/477/306 300/469/306 296/468/306
f 315/475/307 294/464/307 290/466/307
f 292/444/308 310/458/308 304/453/308
f 297/478/309 306/472/309 302/471/309
f 303/479/310 312/470/310 308/474/310
f 309/480/311 318/473/311 314/481/311
f 319/482/312 320/483/312 321/484/312
f 322/485/313 323/348/313 324/80/313
f 325/486/314 326/487/314 327/488/314
f 328/489/315 329/63/315 330/57/315
f 331/490/316 332/491/316 333/492/316
f 334/493/317 335/494/317 336/495/317
f 337/496/318 338/497/318 339/498/318
f 340/499/319 341/500/319 342/501/319
f 343/502/320 344/503/320 345/504/320
f 346/505/321 347/369/321 348/506/321
f 326/487/322 319/482/322 321/484/322
f 330/57/323 322/485/323 328/489/323
f 324/507/324 321/508/324 320/509/324
f 327/510/325 330/511/325 329/512/325
f 327/488/326 331/490/326 325/486/326
f 336/495/327 328/489/327 334/493/327
f 335/513/328 332/514/328 336/515/328
f 338/497/329 331/490/329 333/492/329
f 342/501/330 334/493/330 340/499/330
f 339/516/331 342/513/331 341/517/331
f 344/503/332 337/496/332 339/498/332
f 341/500/333 346/505/333 348/506/333
f 345/518/334 348/519/334 347/520/334
f 320/483/335 343/502/335 345/504/335
f 324/80/336 346/505/336 322/485/336
f 325/486/337 337/496/337 343/502/337
f 321/521/338 330/511/338 326/522/338
f 345/518/339 324/507/339 320/509/339
f 322/485/340 340/499/340 334/493/340
f 327/510/341 336/515/341 332/514/341
f 333/523/342 342/513/342 338/524/342
f 339/516/343 348/519/343 344/525/343
f 8/8/11 7/7/11 1/1/11
f 5/5/12 4/4/12 10/10/12
f 2/31/13 6/49/13 5/32/13
f 9/34/14 8/47/14 12/35/14
f 14/14/15 13/13/15 7/7/15
f 18/18/16 11/11/16 10/10/16
f 17/37/17 15/50/17 14/38/17
f 20/20/18 19/19/18 13/13/18
f 17/17/19 16/16/19 22/22/19
f 23/40/20 21/52/20 20/41/20
f 21/21/21 26/26/21 25/25/21
f 30/30/367 23/23/367 22/22/367
f 27/43/23 26/51/23 30/44/23
f 2/2/24 1/1/24 25/25/24
f 29/29/25 28/28/25 4/4/25
f 25/25/26 1/1/26 7/7/26
f 7/7/26 13/13/26 19/19/26
f 5/46/27 12/35/27 8/47/27
f 27/43/28 29/45/28 6/49/28
f 16/16/29 10/10/29 4/4/29
f 4/4/29 28/28/29 22/22/29
f 9/34/30 11/36/30 18/39/30
f 15/50/31 17/37/31 24/42/31
f 23/40/32 30/44/32 26/51/32
f 38/60/43 37/59/43 31/53/43
f 42/57/345 35/57/345 34/56/345
f 36/82/45 35/577/45 33/83/45
f 39/85/46 38/98/46 42/86/46
f 44/65/47 43/64/47 37/59/47
f 41/63/368 40/62/368 46/67/368
f 45/88/49 44/99/49 48/89/49
f 50/71/50 49/70/50 43/64/50
f 47/68/369 46/67/369 52/73/369
f 51/91/52 50/100/52 54/92/52
f 56/77/53 55/76/53 49/70/53
f 53/74/370 52/73/370 58/79/370
f 57/94/55 56/101/55 60/95/55
f 32/54/56 31/53/56 55/76/56
f 36/58/371 59/80/371 58/79/371
f 55/76/58 31/53/58 37/59/58
f 37/59/58 43/64/58 49/70/58
f 33/97/345 35/578/345 42/86/345
f 57/94/372 59/96/372 36/82/372
f 46/67/61 40/62/61 34/56/61
f 34/56/61 58/79/61 52/73/61
f 39/85/373 41/87/373 48/89/373
f 47/90/374 54/92/374 50/100/374
f 51/91/375 53/93/375 60/95/375
f 104/162/104 103/161/104 97/155/104
f 108/159/347 101/159/347 100/158/347
f 102/182/106 101/582/106 99/183/106
f 105/185/107 104/198/107 108/186/107
f 110/166/108 109/165/108 103/161/108
f 114/170/345 107/69/345 106/164/345
f 111/188/110 110/199/110 114/189/110
f 116/172/111 115/171/111 109/165/111
f 120/176/377 113/169/377 112/168/377
f 117/191/113 116/200/113 120/192/113
f 122/178/114 121/177/114 115/171/114
f 126/181/345 119/175/345 118/174/345
f 123/194/116 122/201/116 126/195/116
f 98/156/117 97/155/117 121/177/117
f 102/160/345 125/160/345 124/180/345
f 121/177/119 97/155/119 103/161/119
f 103/161/119 109/165/119 115/171/119
f 99/197/378 101/583/378 108/186/378
f 123/194/345 125/196/345 102/182/345
f 112/168/122 106/164/122 100/158/122
f 100/158/122 124/180/122 118/174/122
f 105/185/345 107/187/345 114/189/345
f 111/188/379 113/190/379 120/192/379
f 117/191/345 119/193/345 126/195/345
f 129/204/136 134/208/136 133/207/136
f 138/212/345 131/57/345 130/205/345
f 132/229/138 131/584/138 129/230/138
f 135/232/139 134/243/139 138/233/139
f 135/209/140 140/214/140 139/213/140
f 144/170/380 137/211/380 136/210/380
f 143/235/142 141/244/142 140/236/142
f 146/219/143 145/218/143 139/213/143
f 150/68/345 143/217/345 142/216/345
f 147/237/145 146/245/145 150/238/145
f 152/224/146 151/223/146 145/218/146
f 156/228/381 149/222/381 148/221/381
f 153/240/148 152/246/148 156/241/148
f 153/225/149 128/203/149 127/202/149
f 132/206/345 155/227/345 154/226/345
f 151/223/151 127/202/151 133/207/151
f 133/207/151 139/213/151 145/218/151
f 129/242/345 131/585/345 138/233/345
f 153/240/345 155/229/345 132/229/345
f 142/216/154 136/210/154 130/205/154
f 130/205/382 154/226/382 148/221/382
f 135/232/383 137/234/383 144/234/383
f 141/244/384 143/235/384 150/238/384
f 147/237/385 149/239/385 156/241/385
f 195/300/387 200/303/387 199/302/387
f 204/57/388 197/159/388 196/301/388
f 198/323/199 197/589/199 195/324/199
f 201/326/200 200/339/200 204/327/200
f 201/304/201 206/307/201 205/306/201
f 210/69/345 203/170/345 202/305/345
f 207/329/203 206/341/203 210/330/203
f 212/312/204 211/311/204 205/306/204
f 216/316/345 209/310/345 208/309/345
f 213/332/206 212/342/206 216/333/206
f 218/318/207 217/317/207 211/311/207
f 222/322/389 215/315/389 214/314/389
f 219/335/209 218/343/209 222/336/209
f 219/319/210 194/299/210 193/298/210
f 198/227/390 221/321/390 220/320/390
f 217/317/212 193/298/212 199/302/212
f 199/302/212 205/306/212 211/311/212
f 197/338/388 204/327/388 200/339/388
f 219/335/391 221/337/391 198/323/391
f 208/309/215 202/305/215 196/301/215
f 196/301/215 220/320/215 214/314/215
f 201/326/345 203/328/345 210/330/345
f 207/329/345 209/331/345 216/333/345
f 215/334/392 222/336/392 218/343/392
f 230/350/229 229/349/229 223/344/229
f 234/354/345 227/348/345 226/347/345
f 228/371/231 227/590/231 225/372/231
f 231/374/232 230/387/232 234/375/232
f 231/351/233 236/356/233 235/355/233
f 240/359/393 233/353/393 232/352/393
f 239/377/235 237/388/235 236/378/235
f 242/361/236 241/360/236 235/355/236
f 246/364/345 239/316/345 238/358/345
f 245/380/394 243/389/394 242/381/394
f 248/366/395 247/365/395 241/360/395
f 252/370/345 245/175/345 244/363/345
f 249/383/241 248/390/241 252/384/241
f 224/345/242 223/344/242 247/365/242
f 228/160/345 251/369/345 250/368/345
f 247/365/244 223/344/244 229/349/244
f 229/349/244 235/355/244 241/360/244
f 225/386/396 227/591/396 234/375/396
f 249/383/345 251/385/345 228/371/345
f 238/358/247 232/352/247 226/347/247
f 226/347/247 250/368/247 244/363/247
f 231/374/397 233/376/397 240/379/397
f 237/388/345 239/377/345 246/382/345
f 243/389/345 245/380/345 252/384/345
f 291/443/290 296/447/290 295/446/290
f 300/212/345 293/445/345 292/444/345
f 294/464/292 293/596/292 291/465/292
f 299/467/293 297/478/293 296/468/293
f 297/448/398 302/451/398 301/450/398
f 306/170/345 299/170/345 298/449/345
f 305/470/296 303/479/296 302/471/296
f 303/452/297 308/456/297 307/455/297
f 312/454/345 305/454/345 304/453/345
f 311/473/299 309/480/299 308/474/299
f 314/461/300 313/460/300 307/455/300
f 318/228/345 311/459/345 310/458/345
f 315/475/302 314/481/302 318/473/302
f 290/442/303 289/441/303 313/460/303
f 294/160/345 317/160/345 316/463/345
f 313/460/305 289/441/305 295/446/305
f 295/446/305 301/450/305 307/455/305
f 291/477/399 293/597/399 300/469/399
f 315/475/345 317/476/345 294/464/345
f 304/453/308 298/449/308 292/444/308
f 292/444/308 316/463/308 310/458/308
f 297/478/345 299/467/345 306/472/345
f 303/479/345 305/470/345 312/470/345
f 309/480/345 311/473/345 318/473/345
f 326/487/400 325/486/400 319/482/400
f 330/57/345 323/348/345 322/485/345
f 324/507/324 323/598/324 321/508/324
f 327/510/325 326/522/325 330/511/325
f 327/488/326 332/491/326 331/490/326
f 336/495/345 329/63/345 328/489/345
f 335/513/328 333/523/328 332/514/328
f 338/497/329 337/496/329 331/490/329
f 342/501/345 335/494/345 334/493/345
f 339/516/331 338/524/331 342/513/331
f 344/503/332 343/502/332 337/496/332
f 341/500/401 340/499/401 346/505/401
f 345/518/334 344/525/334 348/519/334
f 320/483/335 319/482/335 343/502/335
f 324/80/345 347/369/345 346/505/345
f 343/502/337 319/482/337 325/486/337
f 325/486/337 331/490/337 337/496/337
f 321/521/345 323/599/345 330/511/345
f 345/518/345 347/520/345 324/507/345
f 334/493/340 328/489/340 322/485/340
f 322/485/340 346/505/340 340/499/340
f 327/510/345 329/512/345 336/515/345
f 333/523/345 335/513/345 342/513/345
f 339/516/402 341/517/402 348/519/402
usemtl cap
f 66/102/65 61/103/65 62/104/65
f 68/105/66 63/106/66 67/107/66
f 66/102/67 69/108/67 65/109/67
f 68/105/68 71/110/68 72/111/68
f 74/112/69 69/108/69 70/113/69
f 76/114/70 71/110/70 75/115/70
f 78/116/71 73/117/71 74/112/71
f 80/118/72 75/115/72 79/119/72
f 82/120/73 77/121/73 78/116/73
f 84/122/74 79/119/74 83/123/74
f 86/124/75 81/125/75 82/120/75
f 84/122/76 87/126/76 88/127/76
f 86/124/77 89/128/77 85/129/77
f 88/127/78 91/130/78 92/131/78
f 90/132/79 93/133/79 89/128/79
f 92/131/80 95/134/80 96/135/80
f 62/104/81 93/133/81 94/136/81
f 96/135/82 63/106/82 64/137/82
f 65/109/83 81/125/83 89/128/83
f 64/138/84 66/139/84 62/140/84
f 96/141/85 62/142/85 94/143/85
f 63/106/86 83/123/86 75/115/86
f 68/144/87 70/145/87 66/139/87
f 70/145/88 76/146/88 74/147/88
f 76/146/89 78/148/89 74/147/89
f 78/148/90 84/149/90 82/150/90
f 84/149/91 86/151/91 82/150/91
f 88/152/92 90/153/92 86/151/92
f 92/154/93 94/143/93 90/153/93
f 158/247/158 161/248/158 157/249/158
f 164/250/159 159/251/159 163/252/159
f 162/253/160 165/254/160 161/248/160
f 164/250/161 167/255/161 168/256/161
f 166/257/162 169/258/162 165/254/162
f 168/256/163 171/259/163 172/260/163
f 170/261/164 173/262/164 169/258/164
f 172/260/165 175/263/165 176/264/165
f 178/265/166 173/262/166 174/266/166
f 176/264/167 179/267/167 180/268/167
f 182/269/168 177/270/168 178/265/168
f 184/271/169 179/267/169 183/272/169
f 186/273/170 181/274/170 182/269/170
f 188/275/171 183/272/171 187/276/171
f 190/277/172 185/278/172 186/273/172
f 192/135/173 187/276/173 191/279/173
f 190/277/174 157/249/174 189/280/174
f 160/137/175 191/279/175 159/251/175
f 161/248/176 177/270/176 185/278/176
f 158/281/177 164/282/177 162/283/177
f 190/284/178 160/285/178 158/286/178
f 159/251/179 179/267/179 171/259/179
f 162/283/180 168/287/180 166/288/180
f 168/287/181 170/289/181 166/288/181
f 172/290/182 174/291/182 170/289/182
f 174/291/183 180/292/183 178/293/183
f 180/292/184 182/294/184 178/293/184
f 184/295/185 186/296/185 182/294/185
f 186/296/186 192/297/186 190/284/186
f 258/391/251 253/392/251 254/393/251
f 256/394/252 259/395/252 260/396/252
f 262/397/253 257/398/253 258/391/253
f 260/396/254 263/399/254 264/400/254
f 266/401/255 261/402/255 262/397/255
f 268/403/256 263/399/256 267/404/256
f 270/405/257 265/406/257 266/401/257
f 268/403/258 271/407/258 272/118/258
f 270/405/259 273/408/259 269/409/259
f 276/410/260 271/407/260 275/411/260
f 274/412/261 277/413/261 273/408/261
f 276/410/262 279/414/262 280/127/262
f 278/415/263 281/416/263 277/413/263
f 280/127/264 283/417/264 284/418/264
f 282/419/265 285/420/265 281/416/265
f 284/418/266 287/421/266 288/422/266
f 286/423/267 253/392/267 285/420/267
f 256/394/268 287/421/268 255/424/268
f 257/398/269 273/408/269 281/416/269
f 254/425/270 260/426/270 258/427/270
f 288/428/271 254/429/271 286/430/271
f 255/424/272 275/411/272 267/404/272
f 260/426/273 262/431/273 258/427/273
f 262/431/274 268/432/274 266/433/274
f 268/432/275 270/434/275 266/433/275
f 272/435/276 274/436/276 270/434/276
f 274/436/277 280/437/277 278/438/277
f 278/438/278 284/439/278 282/440/278
f 282/440/279 288/428/279 286/430/279
f 350/526/344 353/527/344 349/528/344
f 356/529/345 351/530/345 355/530/345
f 354/531/346 357/532/346 353/527/346
f 360/533/347 355/530/347 359/534/347
f 358/535/348 361/536/348 357/532/348
f 364/537/349 359/534/349 363/538/349
f 362/539/350 365/540/350 361/536/350
f 368/541/351 363/538/351 367/542/351
f 366/543/352 369/544/352 365/540/352
f 372/545/345 367/542/345 371/546/345
f 370/547/353 373/548/353 369/544/353
f 376/127/345 371/546/345 375/549/345
f 378/550/354 373/548/354 374/551/354
f 380/131/345 375/549/345 379/552/345
f 378/550/355 381/553/355 377/554/355
f 384/555/345 379/552/345 383/556/345
f 350/526/356 381/553/356 382/557/356
f 352/558/345 383/556/345 351/530/345
f 353/527/357 369/544/357 377/554/357
f 352/559/358 354/560/358 350/561/358
f 384/562/359 350/563/359 382/564/359
f 351/530/345 383/556/345 367/542/345
f 356/565/360 358/566/360 354/560/360
f 358/566/361 364/567/361 362/568/361
f 362/568/362 368/569/362 366/570/362
f 368/569/363 370/571/363 366/570/363
f 372/572/364 374/573/364 370/571/364
f 376/574/365 378/575/365 374/573/365
f 380/576/366 382/564/366 378/575/366
f 66/102/65 65/109/65 61/103/65
f 68/105/66 64/137/66 63/106/66
f 66/102/67 70/113/67 69/108/67
f 68/105/68 67/107/68 71/110/68
f 74/112/69 73/117/69 69/108/69
f 76/114/70 72/111/70 71/110/70
f 78/116/71 77/121/71 73/117/71
f 80/118/72 76/114/72 75/115/72
f 82/120/73 81/125/73 77/121/73
f 84/122/74 80/118/74 79/119/74
f 86/124/75 85/129/75 81/125/75
f 84/122/376 83/123/376 87/126/376
f 86/124/77 90/132/77 89/128/77
f 88/127/78 87/126/78 91/130/78
f 90/132/79 94/136/79 93/133/79
f 92/131/80 91/130/80 95/134/80
f 62/104/81 61/103/81 93/133/81
f 96/135/82 95/134/82 63/106/82
f 93/133/83 61/103/83 65/109/83
f 65/109/83 69/108/83 73/117/83
f 73/117/83 77/121/83 81/125/83
f 81/125/83 85/129/83 89/128/83
f 89/128/83 93/133/83 65/109/83
f 65/109/83 73/117/83 81/125/83
f 64/138/84 68/144/84 66/139/84
f 96/141/85 64/579/85 62/142/85
f 71/110/86 67/107/86 63/106/86
f 63/106/86 95/134/86 91/130/86
f 91/130/86 87/126/86 83/123/86
f 83/123/86 79/119/86 75/115/86
f 75/115/86 71/110/86 63/106/86
f 63/106/86 91/130/86 83/123/86
f 68/144/87 72/580/87 70/145/87
f 70/145/88 72/580/88 76/146/88
f 76/146/89 80/581/89 78/148/89
f 78/148/90 80/581/90 84/149/90
f 84/149/91 88/152/91 86/151/91
f 88/152/92 92/154/92 90/153/92
f 92/154/93 96/141/93 94/143/93
f 158/247/158 162/253/158 161/248/158
f 164/250/159 160/137/159 159/251/159
f 162/253/160 166/257/160 165/254/160
f 164/250/161 163/252/161 167/255/161
f 166/257/162 170/261/162 169/258/162
f 168/256/163 167/255/163 171/259/163
f 170/261/164 174/266/164 173/262/164
f 172/260/165 171/259/165 175/263/165
f 178/265/166 177/270/166 173/262/166
f 176/264/167 175/263/167 179/267/167
f 182/269/168 181/274/168 177/270/168
f 184/271/169 180/268/169 179/267/169
f 186/273/170 185/278/170 181/274/170
f 188/275/171 184/271/171 183/272/171
f 190/277/172 189/280/172 185/278/172
f 192/135/173 188/275/173 187/276/173
f 190/277/174 158/247/174 157/249/174
f 160/137/175 192/135/175 191/279/175
f 189/280/176 157/249/176 161/248/176
f 161/248/176 165/254/176 169/258/176
f 169/258/176 173/262/176 177/270/176
f 177/270/176 181/274/176 185/278/176
f 185/278/176 189/280/176 161/248/176
f 161/248/176 169/258/176 177/270/176
f 158/281/177 160/586/177 164/282/177
f 190/284/178 192/297/178 160/285/178
f 167/255/179 163/252/179 159/251/179
f 159/251/386 191/279/386 187/276/386
f 187/276/179 183/272/179 179/267/179
f 179/267/179 175/263/179 171/259/179
f 171/259/179 167/255/179 159/251/179
f 159/251/179 187/276/179 179/267/179
f 162/283/180 164/282/180 168/287/180
f 168/287/181 172/290/181 170/289/181
f 172/290/182 176/587/182 174/291/182
f 174/291/183 176/587/183 180/292/183
f 180/292/184 184/295/184 182/294/184
f 184/295/185 188/588/185 186/296/185
f 186/296/186 188/588/186 192/297/186
f 258/391/251 257/398/251 253/392/251
f 256/394/252 255/424/252 259/395/252
f 262/397/253 261/402/253 257/398/253
f 260/396/254 259/395/254 263/399/254
f 266/401/255 265/406/255 261/402/255
f 268/403/256 264/400/256 263/399/256
f 270/405/257 269/409/257 265/406/257
f 268/403/258 267/404/258 271/407/258
f 270/405/259 274/412/259 273/408/259
f 276/410/260 272/118/260 271/407/260
f 274/412/261 278/415/261 277/413/261
f 276/410/262 275/411/262 279/414/262
f 278/415/263 282/419/263 281/416/263
f 280/127/264 279/414/264 283/417/264
f 282/419/265 286/423/265 285/420/265
f 284/418/266 283/417/266 287/421/266
f 286/423/267 254/393/267 253/392/267
f 256/394/268 288/422/268 287/421/268
f 285/420/269 253/392/269 257/398/269
f 257/398/269 261/402/269 265/406/269
f 265/406/269 269/409/269 273/408/269
f 273/408/269 277/413/269 281/416/269
f 281/416/269 285/420/269 257/398/269
f 257/398/269 265/406/269 273/408/269
f 254/425/270 256/592/270 260/426/270
f 288/428/271 256/593/271 254/429/271
f 263/399/272 259/395/272 255/424/272
f 255/424/272 287/421/272 283/417/272
f 283/417/272 279/414/272 275/411/272
f 275/411/272 271/407/272 267/404/272
f 267/404/272 263/399/272 255/424/272
f 255/424/272 283/417/272 275/411/272
f 260/426/273 264/594/273 262/431/273
f 262/431/274 264/594/274 268/432/274
f 268/432/275 272/435/275 270/434/275
f 272/435/276 276/595/276 274/436/276
f 274/436/277 276/595/277 280/437/277
f 278/438/278 280/437/278 284/439/278
f 282/440/279 284/439/279 288/428/279
f 350/526/344 354/531/344 353/527/344
f 356/529/403 352/558/403 351/530/403
f 354/531/346 358/535/346 357/532/346
f 360/533/404 356/529/404 355/530/404
f 358/535/348 362/539/348 361/536/348
f 364/537/405 360/533/405 359/534/405
f 362/539/350 366/543/350 365/540/350
f 368/541/406 364/537/406 363/538/406
f 366/543/352 370/547/352 369/544/352
f 372/545/407 368/541/407 367/542/407
f 370/547/353 374/551/353 373/548/353
f 376/127/408 372/545/408 371/546/408
f 378/550/354 377/554/354 373/548/354
f 380/131/409 376/127/409 375/549/409
f 378/550/355 382/557/355 381/553/355
f 384/555/410 380/131/410 379/552/410
f 350/526/356 349/528/356 381/553/356
f 352/558/411 384/555/411 383/556/411
f 381/553/357 349/528/357 353/527/357
f 353/527/357 357/532/357 361/536/357
f 361/536/357 365/540/357 369/544/357
f 369/544/357 373/548/357 377/554/357
f 377/554/357 381/553/357 353/527/357
f 353/527/357 361/536/357 369/544/357
f 352/559/358 356/565/358 354/560/358
f 384/562/359 352/600/359 350/563/359
f 359/534/345 355/530/345 351/530/345
f 383/556/345 379/552/345 375/549/345
f 363/538/412 359/534/412 351/530/412
f 383/556/345 375/549/345 371/546/345
f 367/542/345 363/538/345 351/530/345
f 383/556/345 371/546/345 367/542/345
f 356/565/360 360/601/360 358/566/360
f 358/566/361 360/601/361 364/567/361
f 362/568/362 364/567/362 368/569/362
f 368/569/363 372/572/363 370/571/363
f 372/572/364 376/574/364 374/573/364
f 376/574/365 380/576/365 378/575/365
f 380/576/366 384/562/366 382/564/366
