# Blender 4.5.10 LTS
# www.blender.org
mtllib mushroom_pair.mtl
o mushroom_pair
v 0.003428 0.000794 0.005564
v 0.009079 0.007186 0.005480
v 0.000812 0.007186 0.010574
v 0.000254 0.037835 0.000413
v -0.001347 0.032380 0.007070
v 0.006921 0.032380 0.001976
v -0.004271 0.000245 0.005004
v -0.003332 0.006891 0.010272
v -0.010696 0.005777 0.004041
v -0.005644 0.037414 -0.000017
v -0.011630 0.031059 0.000626
v -0.004266 0.032172 0.006857
v -0.006068 -0.000642 -0.002472
v -0.011663 0.005299 0.000018
v -0.007946 0.004611 -0.008927
v -0.007021 0.036734 -0.005744
v -0.008594 0.030034 -0.011153
v -0.012311 0.030722 -0.002208
v 0.000521 -0.000642 -0.006531
v -0.004400 0.004611 -0.011112
v 0.005261 0.005299 -0.010409
v -0.001973 0.036734 -0.008854
v 0.003564 0.030722 -0.011989
v -0.006097 0.030034 -0.012692
v 0.006390 0.000245 -0.001565
v 0.008419 0.005777 -0.007736
v 0.010673 0.006891 0.001643
v 0.002523 0.037414 -0.005049
v 0.008043 0.032172 -0.000726
v 0.005789 0.031059 -0.010106
v 0.000100 0.034958 0.000899
v 0.005681 0.041408 0.001136
v -0.002955 0.041408 0.005575
v -0.003010 0.071868 -0.005151
v -0.005071 0.066513 0.001460
v 0.003566 0.066513 -0.002979
v -0.005743 0.034468 0.000023
v -0.005276 0.041213 0.005227
v -0.012125 0.039913 -0.001533
v -0.007069 0.071527 -0.005760
v -0.013027 0.065120 -0.005467
v -0.006178 0.066420 0.001294
v -0.006666 0.033674 -0.005780
v -0.012491 0.039598 -0.003838
v -0.008087 0.038794 -0.012455
v -0.007710 0.070976 -0.009791
v -0.008798 0.064166 -0.015184
v -0.013202 0.064970 -0.006566
v -0.001393 0.033674 -0.008490
v -0.005993 0.038794 -0.013532
v 0.003577 0.039598 -0.012097
v -0.004047 0.070976 -0.011674
v 0.001772 0.064970 -0.014262
v -0.007799 0.064166 -0.015697
v 0.002789 0.034468 -0.004363
v 0.005238 0.039913 -0.010458
v 0.006749 0.041213 -0.000954
v -0.001142 0.071527 -0.008806
v 0.004076 0.066420 -0.003976
v 0.002564 0.065120 -0.013481
v 0.028616 0.075159 0.035597
v 0.029562 0.079368 0.036845
v 0.003622 0.103493 0.011072
v 0.011455 0.099895 0.019077
v 0.002570 0.073577 0.046974
v 0.002417 0.077718 0.048702
v -0.001394 0.103188 0.013263
v -0.000455 0.099171 0.024280
v -0.024674 0.071804 0.038917
v -0.025977 0.075871 0.040305
v -0.006641 0.102846 0.011711
v -0.012913 0.098360 0.020595
v -0.040370 0.070671 0.015195
v -0.042335 0.074690 0.015583
v -0.009664 0.102628 0.007142
v -0.020089 0.097842 0.009749
v -0.037171 0.070707 -0.013091
v -0.039002 0.074727 -0.013897
v -0.009048 0.102635 0.001695
v -0.018627 0.097859 -0.003186
v -0.016576 0.071895 -0.032706
v -0.017538 0.075966 -0.034340
v -0.005082 0.102864 -0.002083
v -0.009210 0.098402 -0.012155
v 0.011779 0.073680 -0.034473
v 0.012014 0.077827 -0.036181
v 0.000380 0.103208 -0.002424
v 0.003756 0.099218 -0.012963
v 0.034627 0.075227 -0.017564
v 0.035826 0.079438 -0.018559
v 0.004780 0.103506 0.000833
v 0.014203 0.099926 -0.005231
v 0.041276 0.075811 0.010109
v 0.042757 0.080047 0.010282
v 0.006061 0.103618 0.006163
v 0.017244 0.100193 0.007423
v -0.071158 0.000487 0.026548
v -0.076574 0.006827 0.025490
v -0.067477 0.006827 0.022438
v -0.069765 0.024115 0.030701
v -0.066771 0.018793 0.024541
v -0.075868 0.018793 0.027593
v -0.067046 0.000150 0.027822
v -0.066791 0.006771 0.022650
v -0.061103 0.005561 0.030282
v -0.067007 0.023889 0.031556
v -0.061083 0.017584 0.032173
v -0.066771 0.018793 0.024541
v -0.067016 -0.000394 0.032106
v -0.061098 0.005470 0.030996
v -0.066679 0.004722 0.038765
v -0.066987 0.023524 0.034428
v -0.066664 0.016836 0.039941
v -0.061083 0.017584 0.032173
v -0.071110 -0.000394 0.033479
v -0.067362 0.004723 0.038994
v -0.076499 0.005470 0.036164
v -0.069732 0.023524 0.035349
v -0.075802 0.017584 0.037111
v -0.066664 0.016836 0.039941
v -0.073670 0.000150 0.030045
v -0.076926 0.005561 0.035591
v -0.076993 0.006771 0.026073
v -0.071449 0.023889 0.033046
v -0.075868 0.018793 0.027593
v -0.075802 0.017584 0.037111
v -0.070086 0.022421 0.029608
v -0.074774 0.028040 0.028762
v -0.066767 0.028040 0.026191
v -0.068553 0.045923 0.034382
v -0.065897 0.041376 0.028900
v -0.073904 0.041376 0.031471
v -0.066333 0.022051 0.030817
v -0.066002 0.027964 0.026437
v -0.061114 0.026691 0.033160
v -0.066148 0.045685 0.035156
v -0.061009 0.040103 0.035623
v -0.065897 0.041376 0.028900
v -0.066361 0.021451 0.034731
v -0.061120 0.026569 0.033958
v -0.066105 0.025783 0.040684
v -0.066166 0.045301 0.037665
v -0.065994 0.039317 0.042349
v -0.061009 0.040103 0.035623
v -0.070132 0.021451 0.035942
v -0.066874 0.025783 0.040931
v -0.074843 0.026569 0.038365
v -0.068582 0.045301 0.038441
v -0.073964 0.040103 0.039783
v -0.065994 0.039317 0.042349
v -0.072434 0.022051 0.032776
v -0.075312 0.026691 0.037719
v -0.075252 0.027964 0.029408
v -0.070057 0.045685 0.036412
v -0.073904 0.041376 0.031471
v -0.073964 0.040103 0.039783
v -0.049985 0.044915 0.006717
v -0.049080 0.049215 0.005391
v -0.066684 0.065548 0.025316
v -0.059391 0.061955 0.016875
v -0.040571 0.045228 0.023091
v -0.039041 0.049549 0.022852
v -0.065383 0.065591 0.027577
v -0.054362 0.062123 0.025622
v -0.043856 0.044680 0.041684
v -0.042544 0.048964 0.042680
v -0.065837 0.065515 0.030146
v -0.056117 0.061830 0.035555
v -0.058304 0.043526 0.053798
v -0.057951 0.047733 0.055598
v -0.067833 0.065356 0.031820
v -0.063835 0.061213 0.042026
v -0.077154 0.042306 0.053764
v -0.078052 0.046433 0.055561
v -0.070437 0.065188 0.031815
v -0.073905 0.060562 0.042008
v -0.091586 0.041592 0.041598
v -0.093443 0.045672 0.042588
v -0.072431 0.065089 0.030134
v -0.081615 0.060180 0.035509
v -0.094848 0.041718 0.022992
v -0.096921 0.045805 0.022747
v -0.072881 0.065106 0.027564
v -0.083357 0.060247 0.025570
v -0.085412 0.042624 0.006653
v -0.086859 0.046772 0.005323
v -0.071578 0.065231 0.025307
v -0.078316 0.060731 0.016841
v -0.067695 0.043887 0.000226
v -0.067965 0.048118 -0.001531
v -0.069130 0.065406 0.024419
v -0.068852 0.061406 0.013408
vn 0.4779 -0.4123 0.7757
vn 0.3928 0.6628 0.6375
vn -0.5217 -0.4835 0.7029
vn -0.5700 0.5942 0.5674
vn -0.7549 -0.5987 -0.2676
vn -0.7947 0.4832 -0.3674
vn 0.1005 -0.5987 -0.7946
vn 0.0293 0.4832 -0.8750
vn 0.8624 -0.4835 -0.1499
vn 0.7632 0.5942 -0.2540
vn -0.0129 -0.6201 0.7844
vn -0.1005 0.7813 0.6160
vn 0.5177 0.1612 0.8402
vn -0.6508 0.0780 0.7552
vn -0.6537 -0.7170 0.2422
vn -0.7203 0.6876 0.0915
vn -0.9235 -0.0567 -0.3793
vn -0.3303 -0.7769 -0.5361
vn -0.4075 0.6297 -0.6614
vn 0.0765 -0.0567 -0.9955
vn 0.5103 -0.7170 -0.4749
vn 0.4056 0.6876 -0.6022
vn 0.9672 0.0780 -0.2417
vn 0.7065 -0.6201 0.3412
vn 0.5954 0.7813 0.1872
vn 0.0633 -0.9927 0.1027
vn -0.0812 0.1305 0.9881
vn 0.9191 0.1305 0.3718
vn -0.0633 0.9927 -0.1027
vn -0.9722 -0.0043 0.2342
vn -0.5225 -0.0876 -0.8481
vn 0.6463 -0.0043 -0.7630
vn 0.4202 -0.3937 0.8176
vn 0.3361 0.6779 0.6538
vn -0.5700 -0.4768 0.6691
vn -0.6177 0.5978 0.5109
vn -0.7264 -0.6113 -0.3142
vn -0.7683 0.4683 -0.4363
vn 0.1673 -0.6113 -0.7735
vn 0.0924 0.4683 -0.8787
vn 0.8759 -0.4768 -0.0740
vn 0.7750 0.5978 -0.2050
vn -0.0678 -0.6065 0.7922
vn -0.1551 0.7908 0.5921
vn 0.4496 0.1813 0.8747
vn -0.7080 0.0841 0.7011
vn -0.6638 -0.7196 0.2040
vn -0.7316 0.6814 0.0231
vn -0.8908 -0.0732 -0.4484
vn -0.2806 -0.7895 -0.5459
vn -0.3609 0.6137 -0.7022
vn 0.1538 -0.0732 -0.9854
vn 0.5522 -0.7196 -0.4210
vn 0.4446 0.6814 -0.5814
vn 0.9823 0.0841 -0.1677
vn 0.6837 -0.6065 0.4059
vn 0.5718 0.7908 0.2185
vn 0.0643 -0.9900 0.1252
vn -0.1587 0.1467 0.9764
vn 0.8863 0.1467 0.4393
vn -0.0643 0.9900 -0.1252
vn -0.9873 -0.0106 0.1584
vn -0.4545 -0.1078 -0.8842
vn 0.7035 -0.0106 -0.7106
vn 0.3936 -0.3417 0.8535
vn 0.0891 0.9382 0.3345
vn -0.2392 -0.3815 0.8929
vn -0.1636 0.9223 0.3502
vn -0.7491 -0.4160 0.5155
vn -0.3672 0.9085 0.1995
vn -0.8975 -0.4290 -0.1020
vn -0.4264 0.9033 -0.0471
vn -0.6150 -0.4145 -0.6708
vn -0.3136 0.9091 -0.2742
vn -0.0337 -0.3792 -0.9247
vn -0.0815 0.9232 -0.3756
vn 0.5743 -0.3396 -0.7449
vn 0.1613 0.9390 -0.3038
vn 0.9245 -0.3143 -0.2155
vn 0.3011 0.9491 -0.0924
vn 0.8532 -0.3151 0.4157
vn 0.2726 0.9488 0.1597
vn 0.0632 -0.9980 0.0059
vn 0.2287 0.7446 0.6271
vn 0.5696 0.7643 0.3025
vn -0.0632 0.9980 -0.0059
vn -0.2406 0.7150 0.6564
vn -0.6188 0.6894 0.3765
vn -0.7289 0.6798 -0.0815
vn -0.5193 0.6906 -0.5034
vn -0.0882 0.7167 -0.6917
vn 0.3627 0.7461 -0.5584
vn 0.6225 0.7649 -0.1657
vn -0.2922 -0.3950 -0.8709
vn -0.2343 0.6765 -0.6982
vn 0.6685 -0.4736 -0.5733
vn 0.6833 0.6014 -0.4140
vn 0.6755 -0.6008 0.4274
vn 0.6900 0.4799 0.5418
vn -0.2810 -0.6008 0.7484
vn -0.2235 0.4799 0.8483
vn -0.8791 -0.4736 -0.0541
vn -0.7947 0.6014 0.0820
vn 0.1888 -0.6091 -0.7703
vn 0.2397 0.7893 -0.5653
vn -0.3128 0.1823 -0.9322
vn 0.8053 0.0908 -0.5858
vn 0.6915 -0.7160 -0.0958
vn 0.7223 0.6866 0.0822
vn 0.8134 -0.0572 0.5789
vn 0.1982 -0.7821 0.5908
vn 0.2488 0.6232 0.7414
vn -0.2997 -0.0572 0.9523
vn -0.6093 -0.7160 0.3407
vn -0.5265 0.6866 0.5013
vn -0.9957 0.0908 0.0185
vn -0.6152 -0.6091 -0.5006
vn -0.5322 0.7893 -0.3063
vn -0.0422 -0.9912 -0.1257
vn 0.3036 0.1475 -0.9413
vn -0.8099 0.1475 -0.5677
vn 0.0422 0.9912 0.1257
vn 1.0000 -0.0005 -0.0070
vn 0.3167 -0.0921 0.9440
vn -0.8018 -0.0005 0.5975
vn -0.2840 -0.3702 -0.8845
vn -0.2195 0.6960 -0.6836
vn 0.6721 -0.4646 -0.5766
vn 0.6936 0.6059 -0.3896
vn 0.6649 -0.6173 0.4206
vn 0.6867 0.4601 0.5628
vn -0.2957 -0.6173 0.7291
vn -0.2307 0.4601 0.8574
vn -0.8821 -0.4646 -0.0775
vn -0.7908 0.6059 0.0871
vn 0.1938 -0.5908 -0.7832
vn 0.2535 0.8013 -0.5418
vn -0.2990 0.2087 -0.9312
vn 0.8136 0.0988 -0.5729
vn 0.6868 -0.7192 -0.1052
vn 0.7268 0.6781 0.1091
vn 0.8053 -0.0789 0.5876
vn 0.1841 -0.7985 0.5731
vn 0.2442 0.6020 0.7603
vn -0.3126 -0.0789 0.9466
vn -0.6196 -0.7192 0.3144
vn -0.5274 0.6781 0.5119
vn -0.9951 0.0988 0.0080
vn -0.6136 -0.5908 -0.5239
vn -0.5216 0.8013 -0.2929
vn -0.0487 -0.9873 -0.1515
vn 0.3171 0.1689 -0.9332
vn -0.8012 0.1689 -0.5741
vn 0.0487 0.9873 0.1515
vn 0.9999 -0.0089 0.0058
vn 0.3036 -0.1188 0.9454
vn -0.8096 -0.0089 0.5870
vn 0.8245 -0.3179 -0.4680
vn 0.2678 0.9480 -0.1721
vn 0.9338 -0.3221 0.1555
vn 0.3126 0.9463 0.0832
vn 0.6176 -0.3525 0.7031
vn 0.1831 0.9338 0.3073
vn 0.0239 -0.3948 0.9185
vn -0.0600 0.9165 0.3955
vn -0.5696 -0.4293 0.7009
vn -0.3030 0.9024 0.3065
vn -0.8851 -0.4398 0.1522
vn -0.4321 0.8981 0.0818
vn -0.7750 -0.4214 -0.4709
vn -0.3871 0.9056 -0.1733
vn -0.2908 -0.3827 -0.8769
vn -0.1888 0.9215 -0.3395
vn 0.3409 -0.3418 -0.8758
vn 0.0698 0.9382 -0.3390
vn 0.0646 -0.9978 -0.0180
vn 0.5602 0.7568 -0.3366
vn 0.1937 0.7387 -0.6456
vn -0.0646 0.9978 0.0180
vn 0.6431 0.7537 0.1359
vn 0.4035 0.7306 0.5508
vn -0.0465 0.6986 0.7140
vn -0.4962 0.6725 0.5492
vn -0.7353 0.6645 0.1334
vn -0.6519 0.6784 -0.3388
vn -0.2850 0.7078 -0.6464
vn 0.8944 0.4472 -0.0000
vn -1.0000 -0.0000 -0.0000
vn 0.8134 -0.0572 0.5788
vn -0.0000 1.0000 -0.0000
vn 1.0000 -0.0000 -0.0000
vn -1.0000 0.0026 -0.0000
vn -0.6000 -0.8000 -0.0000
vn -0.0000 -0.2915 -0.9566
vn -0.9998 0.0177 -0.0000
vn -0.0000 0.0540 -0.9985
vn -0.0646 0.9977 0.0180
vn -0.0646 0.9978 0.0181
vn -0.0646 0.9977 0.0181
vt 0.043982 -0.018750
vt 0.049958 -0.012753
vt 0.038007 -0.012753
vt 0.043982 0.018750
vt 0.037444 0.012753
vt 0.050521 0.012753
vt 0.027280 -0.018750
vt 0.032990 -0.012753
vt 0.020738 -0.012753
vt 0.027544 0.018750
vt 0.020180 0.012753
vt 0.033612 0.012753
vt 0.009392 -0.018750
vt 0.015501 -0.012753
vt 0.002697 -0.012753
vt 0.009588 0.018750
vt 0.002074 0.012753
vt 0.016164 0.012753
vt 0.078572 -0.018750
vt 0.085268 -0.012753
vt 0.072463 -0.012753
vt 0.078377 0.018750
vt 0.071800 0.012753
vt 0.085891 0.012753
vt 0.060684 -0.018750
vt 0.067226 -0.012753
vt 0.054975 -0.012753
vt 0.060420 0.018750
vt 0.054353 0.012753
vt 0.067785 0.012753
vt 0.097357 -0.018750
vt 0.090661 -0.012753
vt 0.097552 0.018750
vt 0.090039 0.012753
vt 0.039144 -0.018750
vt 0.045149 -0.012753
vt 0.033140 -0.012753
vt 0.039144 0.018750
vt 0.032507 0.012753
vt 0.045782 0.012753
vt 0.024836 -0.018750
vt 0.030324 -0.012753
vt 0.017877 -0.012753
vt 0.025391 0.018750
vt 0.017240 0.012753
vt 0.031040 0.012753
vt 0.008787 -0.018750
vt 0.014876 -0.012753
vt 0.001572 -0.012753
vt 0.009271 0.018750
vt 0.000828 0.012753
vt 0.015667 0.012753
vt 0.069502 -0.018750
vt 0.076717 -0.012753
vt 0.063412 -0.012753
vt 0.069017 0.018750
vt 0.062621 0.012753
vt 0.077460 0.012753
vt 0.053453 -0.018750
vt 0.060411 -0.012753
vt 0.047964 -0.012753
vt 0.052897 0.018750
vt 0.047248 0.012753
vt 0.061048 0.012753
vt 0.087075 -0.018750
vt 0.079860 -0.012753
vt 0.079117 0.012753
vt 0.087560 0.018750
vt 0.116334 -0.010867
vt 0.150796 -0.015000
vt 0.150796 -0.010867
vt 0.150796 0.010867
vt 0.111560 0.015000
vt 0.115049 0.010867
vt 0.082283 -0.015000
vt 0.116293 -0.015000
vt 0.075909 0.015000
vt 0.080493 0.010867
vt 0.049031 -0.010867
vt 0.082343 -0.010867
vt 0.044030 0.015000
vt 0.047506 0.010867
vt 0.016274 -0.010867
vt 0.048980 -0.015000
vt 0.014434 0.015000
vt 0.015695 0.010867
vt 0.285319 -0.010867
vt 0.317847 -0.015000
vt 0.317867 -0.010867
vt 0.285897 0.010867
vt 0.316027 0.015000
vt 0.287159 0.015000
vt 0.252562 -0.010867
vt 0.285339 -0.015000
vt 0.257563 0.015000
vt 0.254086 0.010867
vt 0.219250 -0.010867
vt 0.252613 -0.015000
vt 0.225684 0.015000
vt 0.221100 0.010867
vt 0.185259 -0.010867
vt 0.219310 -0.015000
vt 0.190033 0.015000
vt 0.186544 0.010867
vt 0.185300 -0.015000
vt 0.150796 0.015000
vt 0.345622 0.015000
vt 0.317288 0.010867
vt 0.034558 -0.012000
vt 0.040538 -0.006078
vt 0.028577 -0.006078
vt 0.034558 0.012000
vt 0.028179 0.006078
vt 0.040936 0.006078
vt 0.022650 -0.012000
vt 0.027722 -0.006078
vt 0.015180 -0.006078
vt 0.023483 0.012000
vt 0.014771 0.006078
vt 0.008410 -0.012000
vt 0.014247 -0.006078
vt 0.000499 -0.006078
vt 0.009350 0.012000
vt 0.000000 0.006078
vt 0.014771 0.006078
vt 0.060705 -0.012000
vt 0.068616 -0.006078
vt 0.054868 -0.006078
vt 0.059765 0.012000
vt 0.054344 0.006078
vt 0.069115 0.006078
vt 0.046465 -0.012000
vt 0.053935 -0.006078
vt 0.041393 -0.006078
vt 0.045632 0.012000
vt 0.069614 -0.006078
vt 0.077525 -0.012000
vt 0.078465 0.012000
vt 0.030756 -0.012000
vt 0.035996 -0.006810
vt 0.025517 -0.006810
vt 0.030756 0.012000
vt 0.025069 0.006810
vt 0.036443 0.006810
vt 0.020054 -0.012000
vt 0.024556 -0.006810
vt 0.013585 -0.006810
vt 0.020851 0.012000
vt 0.013126 0.006810
vt 0.025069 0.006810
vt 0.007383 -0.012000
vt 0.012542 -0.006810
vt 0.000557 -0.006810
vt 0.008259 0.012000
vt 0.000000 0.006810
vt 0.013126 0.006810
vt 0.054129 -0.012000
vt 0.060956 -0.006810
vt 0.048971 -0.006810
vt 0.053253 0.012000
vt 0.048386 0.006810
vt 0.061512 0.006810
vt 0.041458 -0.012000
vt 0.047927 -0.006810
vt 0.036956 -0.006810
vt 0.040661 0.012000
vt 0.036443 0.006810
vt 0.048386 0.006810
vt 0.068895 -0.012000
vt 0.062069 -0.006810
vt 0.069772 0.012000
vt 0.106814 -0.006792
vt 0.082357 -0.011000
vt 0.106814 -0.011000
vt 0.106814 0.006792
vt 0.076954 0.011000
vt 0.081699 0.006792
vt 0.058327 -0.006792
vt 0.082403 -0.006792
vt 0.057307 0.006792
vt 0.051369 0.011000
vt 0.034673 -0.011000
vt 0.058259 -0.011000
vt 0.029531 0.011000
vt 0.033886 0.006792
vt 0.034730 -0.006792
vt 0.011505 -0.011000
vt 0.009650 0.011000
vt 0.011206 0.006792
vt 0.225156 -0.006792
vt 0.202123 -0.011000
vt 0.225134 -0.011000
vt 0.202422 0.006792
vt 0.223279 0.011000
vt 0.203978 0.011000
vt 0.178898 -0.006792
vt 0.202101 -0.006792
vt 0.179743 0.006792
vt 0.184097 0.011000
vt 0.155302 -0.006792
vt 0.178955 -0.011000
vt 0.162260 0.011000
vt 0.156321 0.006792
vt 0.131225 -0.006792
vt 0.155369 -0.011000
vt 0.131929 0.006792
vt 0.136674 0.011000
vt 0.131271 -0.011000
vt 0.106814 0.011000
vt 0.243159 0.011000
vt 0.011527 -0.006792
vt 0.224834 0.006792
vt 0.016254 -0.015000
vt 0.350573 -0.015000
vt 0.248301 -0.011000
s 0
usemtl bark
f 1/1/1 2/2/1 3/3/1
f 4/4/2 5/5/2 6/6/2
f 7/7/3 8/8/3 9/9/3
f 10/10/4 11/11/4 12/12/4
f 13/13/5 14/14/5 15/15/5
f 16/16/6 17/17/6 18/18/6
f 19/19/7 20/20/7 21/21/7
f 22/22/8 23/23/8 24/24/8
f 25/25/9 26/26/9 27/27/9
f 28/28/10 29/29/10 30/30/10
f 3/3/11 7/7/11 1/1/11
f 5/5/12 10/10/12 12/12/12
f 6/6/13 3/3/13 2/2/13
f 9/9/14 12/12/14 11/11/14
f 14/14/15 7/7/15 9/9/15
f 11/11/16 16/16/16 18/18/16
f 15/15/17 18/18/17 17/17/17
f 20/20/18 13/31/18 15/32/18
f 24/24/19 16/33/19 22/22/19
f 21/21/20 24/24/20 23/23/20
f 21/21/21 25/25/21 19/19/21
f 30/30/22 22/22/22 28/28/22
f 29/29/23 26/26/23 30/30/23
f 2/2/24 25/25/24 27/27/24
f 6/6/25 28/28/25 4/4/25
f 7/7/26 19/19/26 25/25/26
f 5/5/27 8/8/27 3/3/27
f 29/29/28 2/2/28 27/27/28
f 4/4/29 22/22/29 16/33/29
f 9/9/30 18/18/30 14/14/30
f 17/34/31 20/20/31 15/32/31
f 23/23/32 26/26/32 21/21/32
f 31/35/33 32/36/33 33/37/33
f 34/38/34 35/39/34 36/40/34
f 37/41/35 38/42/35 39/43/35
f 40/44/36 41/45/36 42/46/36
f 43/47/37 44/48/37 45/49/37
f 46/50/38 47/51/38 48/52/38
f 49/53/39 50/54/39 51/55/39
f 52/56/40 53/57/40 54/58/40
f 55/59/41 56/60/41 57/61/41
f 58/62/42 59/63/42 60/64/42
f 33/37/43 37/41/43 31/35/43
f 35/39/44 40/44/44 42/46/44
f 36/40/45 33/37/45 32/36/45
f 39/43/46 42/46/46 41/45/46
f 44/48/47 37/41/47 39/43/47
f 48/52/48 40/44/48 46/50/48
f 45/49/49 48/52/49 47/51/49
f 50/54/50 43/65/50 45/66/50
f 47/67/51 52/56/51 54/58/51
f 53/57/52 50/54/52 54/58/52
f 51/55/53 55/59/53 49/53/53
f 53/57/54 58/62/54 60/64/54
f 59/63/55 56/60/55 60/64/55
f 32/36/56 55/59/56 57/61/56
f 36/40/57 58/62/57 34/38/57
f 37/41/58 49/53/58 55/59/58
f 35/39/59 38/42/59 33/37/59
f 59/63/60 32/36/60 57/61/60
f 34/38/61 52/56/61 46/68/61
f 41/45/62 44/48/62 39/43/62
f 47/67/63 50/54/63 45/66/63
f 53/57/64 56/60/64 51/55/64
f 97/109/94 98/110/94 99/111/94
f 100/112/95 101/113/95 102/114/95
f 103/115/96 104/116/96 105/117/96
f 106/118/97 107/119/97 108/113/97
f 109/120/98 110/121/98 111/122/98
f 112/123/99 113/124/99 114/125/99
f 115/126/100 116/127/100 117/128/100
f 118/129/101 119/130/101 120/131/101
f 121/132/102 122/133/102 123/134/102
f 124/135/103 125/114/103 126/130/103
f 99/111/104 103/115/104 97/109/104
f 108/113/105 100/112/105 106/118/105
f 98/110/106 101/113/106 99/111/106
f 105/117/107 108/113/107 107/119/107
f 110/121/108 103/115/108 105/117/108
f 114/125/109 106/118/109 112/123/109
f 113/124/110 110/121/110 114/125/110
f 111/136/111 115/126/111 109/137/111
f 120/131/112 112/138/112 118/129/112
f 117/128/113 120/131/113 119/130/113
f 117/128/114 121/132/114 115/126/114
f 126/130/115 118/129/115 124/135/115
f 125/114/116 122/133/116 126/130/116
f 98/110/117 121/132/117 123/134/117
f 102/114/118 124/135/118 100/112/118
f 103/115/119 115/126/119 121/132/119
f 99/111/120 108/113/120 104/116/120
f 123/134/121 102/114/121 98/110/121
f 100/112/122 118/129/122 112/138/122
f 105/117/123 114/125/123 110/121/123
f 111/136/124 120/131/124 116/127/124
f 117/128/125 126/130/125 122/133/125
f 127/139/126 128/140/126 129/141/126
f 130/142/127 131/143/127 132/144/127
f 133/145/128 134/146/128 135/147/128
f 136/148/129 137/149/129 138/150/129
f 139/151/130 140/152/130 141/153/130
f 142/154/131 143/155/131 144/156/131
f 145/157/132 146/158/132 147/159/132
f 148/160/133 149/161/133 150/162/133
f 151/163/134 152/164/134 153/165/134
f 154/166/135 155/167/135 156/168/135
f 129/141/136 133/145/136 127/139/136
f 138/150/137 130/142/137 136/148/137
f 132/144/138 129/141/138 128/140/138
f 135/147/139 138/150/139 137/149/139
f 135/147/140 139/151/140 133/145/140
f 144/156/141 136/148/141 142/154/141
f 143/155/142 140/152/142 144/156/142
f 146/158/143 139/169/143 141/170/143
f 150/162/144 142/171/144 148/160/144
f 147/159/145 150/162/145 149/161/145
f 147/159/146 151/163/146 145/157/146
f 156/168/147 148/160/147 154/166/147
f 153/165/148 156/168/148 155/167/148
f 153/165/149 127/139/149 151/163/149
f 132/144/150 154/166/150 130/142/150
f 133/145/151 145/157/151 151/163/151
f 129/141/152 138/150/152 134/146/152
f 153/165/153 132/144/153 128/140/153
f 130/142/154 148/160/154 142/171/154
f 135/147/155 144/156/155 140/152/155
f 141/170/156 150/162/156 146/158/156
f 147/159/157 156/168/157 152/164/157
f 3/3/11 8/8/11 7/7/11
f 5/5/12 4/4/12 10/10/12
f 6/6/13 5/5/13 3/3/13
f 9/9/14 8/8/14 12/12/14
f 14/14/15 13/13/15 7/7/15
f 11/11/16 10/10/16 16/16/16
f 15/15/17 14/14/17 18/18/17
f 20/20/18 19/19/18 13/31/18
f 24/24/19 17/34/19 16/33/19
f 21/21/20 20/20/20 24/24/20
f 21/21/21 26/26/21 25/25/21
f 30/30/22 23/23/22 22/22/22
f 29/29/23 27/27/23 26/26/23
f 2/2/24 1/1/24 25/25/24
f 6/6/25 29/29/25 28/28/25
f 25/25/26 1/1/26 7/7/26
f 7/7/26 13/31/26 19/19/26
f 5/5/27 12/12/27 8/8/27
f 29/29/28 6/6/28 2/2/28
f 16/33/29 10/10/29 4/4/29
f 4/4/29 28/28/29 22/22/29
f 9/9/30 11/11/30 18/18/30
f 17/34/31 24/24/31 20/20/31
f 23/23/32 30/30/32 26/26/32
f 33/37/43 38/42/43 37/41/43
f 35/39/44 34/38/44 40/44/44
f 36/40/45 35/39/45 33/37/45
f 39/43/46 38/42/46 42/46/46
f 44/48/47 43/47/47 37/41/47
f 48/52/48 41/45/48 40/44/48
f 45/49/49 44/48/49 48/52/49
f 50/54/50 49/53/50 43/65/50
f 47/67/51 46/68/51 52/56/51
f 53/57/52 51/55/52 50/54/52
f 51/55/53 56/60/53 55/59/53
f 53/57/54 52/56/54 58/62/54
f 59/63/55 57/61/55 56/60/55
f 32/36/56 31/35/56 55/59/56
f 36/40/57 59/63/57 58/62/57
f 55/59/58 31/35/58 37/41/58
f 37/41/58 43/65/58 49/53/58
f 35/39/59 42/46/59 38/42/59
f 59/63/60 36/40/60 32/36/60
f 46/68/61 40/44/61 34/38/61
f 34/38/61 58/62/61 52/56/61
f 41/45/62 48/52/62 44/48/62
f 47/67/63 54/58/63 50/54/63
f 53/57/64 60/64/64 56/60/64
f 99/111/104 104/116/104 103/115/104
f 108/113/187 101/113/187 100/112/187
f 98/110/106 102/114/106 101/113/106
f 105/117/107 104/116/107 108/113/107
f 110/121/108 109/120/108 103/115/108
f 114/125/188 107/119/188 106/118/188
f 113/124/189 111/122/189 110/121/189
f 111/136/111 116/127/111 115/126/111
f 120/131/190 113/131/190 112/138/190
f 117/128/113 116/127/113 120/131/113
f 117/128/114 122/133/114 121/132/114
f 126/130/190 119/130/190 118/129/190
f 125/114/116 123/134/116 122/133/116
f 98/110/117 97/109/117 121/132/117
f 102/114/190 125/114/190 124/135/190
f 121/132/119 97/109/119 103/115/119
f 103/115/119 109/137/119 115/126/119
f 99/111/191 101/113/191 108/113/191
f 123/134/190 125/114/190 102/114/190
f 112/138/122 106/118/122 100/112/122
f 100/112/122 124/135/122 118/129/122
f 105/117/192 107/119/192 114/125/192
f 111/136/190 113/131/190 120/131/190
f 117/128/190 119/130/190 126/130/190
f 129/141/136 134/146/136 133/145/136
f 138/150/190 131/143/190 130/142/190
f 132/144/138 131/143/138 129/141/138
f 135/147/139 134/146/139 138/150/139
f 135/147/140 140/152/140 139/151/140
f 144/156/193 137/149/193 136/148/193
f 143/155/142 141/153/142 140/152/142
f 146/158/143 145/157/143 139/169/143
f 150/162/194 143/162/194 142/171/194
f 147/159/145 146/158/145 150/162/145
f 147/159/146 152/164/146 151/163/146
f 156/168/191 149/161/191 148/160/191
f 153/165/148 152/164/148 156/168/148
f 153/165/149 128/140/149 127/139/149
f 132/144/190 155/167/190 154/166/190
f 151/163/151 127/139/151 133/145/151
f 133/145/151 139/169/151 145/157/151
f 129/141/190 131/143/190 138/150/190
f 153/165/190 155/167/190 132/144/190
f 142/171/154 136/148/154 130/142/154
f 130/142/154 154/166/154 148/160/154
f 135/147/195 137/149/195 144/156/195
f 141/170/196 143/162/196 150/162/196
f 147/159/191 149/161/191 156/168/191
usemtl cap
f 66/69/65 61/70/65 62/71/65
f 64/72/66 67/73/66 68/74/66
f 66/69/67 69/75/67 65/76/67
f 68/74/68 71/77/68 72/78/68
f 74/79/69 69/75/69 70/80/69
f 72/78/70 75/81/70 76/82/70
f 78/83/71 73/84/71 74/79/71
f 76/82/72 79/85/72 80/86/72
f 82/87/73 77/88/73 78/89/73
f 84/90/74 79/91/74 83/92/74
f 86/93/75 81/94/75 82/87/75
f 84/90/76 87/95/76 88/96/76
f 90/97/77 85/98/77 86/93/77
f 88/96/78 91/99/78 92/100/78
f 94/101/79 89/102/79 90/97/79
f 92/100/80 95/103/80 96/104/80
f 94/101/81 61/70/81 93/105/81
f 64/72/82 95/103/82 63/106/82
f 65/76/83 81/94/83 89/102/83
f 64/72/84 66/69/84 62/71/84
f 94/101/85 64/72/85 62/71/85
f 63/106/86 83/92/86 75/107/86
f 68/74/87 70/80/87 66/69/87
f 72/78/88 74/79/88 70/80/88
f 76/82/89 78/83/89 74/79/89
f 80/108/90 82/87/90 78/89/90
f 82/87/91 88/96/91 86/93/91
f 88/96/92 90/97/92 86/93/92
f 92/100/93 94/101/93 90/97/93
f 158/172/158 161/173/158 157/174/158
f 160/175/159 163/176/159 164/177/159
f 166/178/160 161/173/160 162/179/160
f 168/180/161 163/176/161 167/181/161
f 166/178/162 169/182/162 165/183/162
f 168/180/163 171/184/163 172/185/163
f 170/186/164 173/187/164 169/182/164
f 172/185/165 175/188/165 176/189/165
f 174/190/166 177/191/166 173/192/166
f 180/193/167 175/194/167 179/195/167
f 182/196/168 177/191/168 178/197/168
f 184/198/169 179/195/169 183/199/169
f 186/200/170 181/201/170 182/196/170
f 184/198/171 187/202/171 188/203/171
f 190/204/172 185/205/172 186/200/172
f 192/206/173 187/202/173 191/207/173
f 190/204/174 157/174/174 189/208/174
f 192/206/175 159/209/175 160/175/175
f 161/173/176 177/191/176 185/205/176
f 158/172/177 164/177/177 162/179/177
f 192/206/178 158/172/178 190/204/178
f 159/209/179 179/195/179 171/210/179
f 164/177/180 166/178/180 162/179/180
f 166/178/181 172/185/181 170/186/181
f 172/185/182 174/211/182 170/186/182
f 176/212/183 178/197/183 174/190/183
f 178/197/184 184/198/184 182/196/184
f 184/198/185 186/200/185 182/196/185
f 188/203/186 190/204/186 186/200/186
f 66/69/65 65/76/65 61/70/65
f 64/72/66 63/106/66 67/73/66
f 66/69/67 70/80/67 69/75/67
f 68/74/68 67/73/68 71/77/68
f 74/79/69 73/84/69 69/75/69
f 72/78/70 71/77/70 75/81/70
f 78/83/71 77/213/71 73/84/71
f 76/82/72 75/81/72 79/85/72
f 82/87/73 81/94/73 77/88/73
f 84/90/74 80/108/74 79/91/74
f 86/93/75 85/98/75 81/94/75
f 84/90/76 83/92/76 87/95/76
f 90/97/77 89/102/77 85/98/77
f 88/96/78 87/95/78 91/99/78
f 94/101/79 93/105/79 89/102/79
f 92/100/80 91/99/80 95/103/80
f 94/101/81 62/71/81 61/70/81
f 64/72/82 96/104/82 95/103/82
f 93/105/83 61/70/83 65/76/83
f 65/76/83 69/75/83 73/214/83
f 73/214/83 77/88/83 81/94/83
f 81/94/83 85/98/83 89/102/83
f 89/102/83 93/105/83 65/76/83
f 65/76/83 73/214/83 81/94/83
f 64/72/84 68/74/84 66/69/84
f 94/101/85 96/104/85 64/72/85
f 71/77/86 67/73/86 63/106/86
f 63/106/86 95/103/86 91/99/86
f 91/99/86 87/95/86 83/92/86
f 83/92/86 79/91/86 75/107/86
f 75/107/86 71/77/86 63/106/86
f 63/106/86 91/99/86 83/92/86
f 68/74/87 72/78/87 70/80/87
f 72/78/88 76/82/88 74/79/88
f 76/82/89 80/86/89 78/83/89
f 80/108/90 84/90/90 82/87/90
f 82/87/91 84/90/91 88/96/91
f 88/96/92 92/100/92 90/97/92
f 92/100/93 96/104/93 94/101/93
f 158/172/158 162/179/158 161/173/158
f 160/175/159 159/209/159 163/176/159
f 166/178/160 165/183/160 161/173/160
f 168/180/161 164/177/161 163/176/161
f 166/178/162 170/186/162 169/182/162
f 168/180/163 167/181/163 171/184/163
f 170/186/164 174/211/164 173/187/164
f 172/185/165 171/184/165 175/188/165
f 174/190/166 178/197/166 177/191/166
f 180/193/167 176/212/167 175/194/167
f 182/196/168 181/201/168 177/191/168
f 184/198/169 180/193/169 179/195/169
f 186/200/170 185/205/170 181/201/170
f 184/198/171 183/199/171 187/202/171
f 190/204/172 189/208/172 185/205/172
f 192/206/173 188/203/173 187/202/173
f 190/204/174 158/172/174 157/174/174
f 192/206/175 191/207/175 159/209/175
f 189/208/176 157/174/176 161/173/176
f 161/173/176 165/183/176 169/215/176
f 169/215/176 173/192/176 177/191/176
f 177/191/176 181/201/176 185/205/176
f 185/205/176 189/208/176 161/173/176
f 161/173/176 169/215/176 177/191/176
f 158/172/177 160/175/177 164/177/177
f 192/206/178 160/175/178 158/172/178
f 167/181/197 163/176/197 159/209/197
f 159/209/198 191/207/198 187/202/198
f 187/202/179 183/199/179 179/195/179
f 179/195/199 175/194/199 171/210/199
f 171/210/179 167/181/179 159/209/179
f 159/209/179 187/202/179 179/195/179
f 164/177/180 168/180/180 166/178/180
f 166/178/181 168/180/181 172/185/181
f 172/185/182 176/189/182 174/211/182
f 176/212/183 180/193/183 178/197/183
f 178/197/184 180/193/184 184/198/184
f 184/198/185 188/203/185 186/200/185
f 188/203/186 192/206/186 190/204/186
