# Blender 4.5.10 LTS
# www.blender.org
mtllib mushroom_button.mtl
o mushroom_button
v 0.000474 0.000268 0.016575
v 0.005426 0.006303 0.019647
v -0.004294 0.006303 0.019925
v 0.000386 0.027722 0.013492
v -0.004344 0.021813 0.018183
v 0.005376 0.021813 0.017905
v -0.015619 0.000083 0.005573
v -0.017105 0.006155 0.011167
v -0.020373 0.006006 0.002010
v -0.013145 0.027566 0.004241
v -0.018976 0.021532 0.001258
v -0.015708 0.021682 0.010414
v -0.010127 -0.000217 -0.013131
v -0.016001 0.005767 -0.012879
v -0.008301 0.005675 -0.018816
v -0.008528 0.027314 -0.011485
v -0.007398 0.021228 -0.017887
v -0.015097 0.021321 -0.011949
v 0.009360 -0.000217 -0.013688
v 0.007212 0.005675 -0.019260
v 0.015239 0.005767 -0.013773
v 0.007857 0.027314 -0.011953
v 0.014390 0.021321 -0.012793
v 0.006363 0.021228 -0.018280
v 0.015912 0.000083 0.004671
v 0.020455 0.006006 0.000842
v 0.017715 0.006155 0.010171
v 0.013366 0.027566 0.003483
v 0.016277 0.021682 0.009500
v 0.019016 0.021532 0.000171
v -0.000692 0.025806 0.013509
v 0.004014 0.031904 0.016832
v -0.005698 0.031904 0.016357
v -0.000514 0.053191 0.009871
v -0.005598 0.047376 0.014302
v 0.004114 0.047376 0.014777
v -0.013467 0.025454 0.003245
v -0.015375 0.031638 0.008583
v -0.017926 0.031301 -0.000794
v -0.010871 0.052906 0.001551
v -0.016459 0.046809 -0.001751
v -0.013908 0.047147 0.007626
v -0.007648 0.024885 -0.012068
v -0.013518 0.030870 -0.012394
v -0.005382 0.030661 -0.017715
v -0.006153 0.052445 -0.010863
v -0.004537 0.046231 -0.017034
v -0.012673 0.046439 -0.011713
v 0.008724 0.024885 -0.011269
v 0.007020 0.030661 -0.017109
v 0.014598 0.030870 -0.011020
v 0.007119 0.052445 -0.010215
v 0.013691 0.046439 -0.010425
v 0.006113 0.046231 -0.016513
v 0.013024 0.025454 0.004539
v 0.017854 0.031301 0.000954
v 0.014402 0.031638 0.010037
v 0.010605 0.052906 0.002600
v 0.013036 0.047147 0.008942
v 0.016488 0.046809 -0.000142
v 0.046556 0.051838 0.041771
v 0.047546 0.056119 0.043070
v 0.014194 0.089683 0.010086
v 0.021982 0.086014 0.018041
v 0.011748 0.049724 0.056976
v 0.011595 0.053934 0.058774
v 0.006549 0.089219 0.013425
v 0.007488 0.085133 0.024372
v -0.024662 0.047355 0.046208
v -0.026011 0.051488 0.047653
v -0.001448 0.088699 0.011060
v -0.007674 0.084146 0.019888
v -0.045637 0.045840 0.014506
v -0.047675 0.049923 0.014910
v -0.006055 0.088366 0.004098
v -0.016408 0.083516 0.006688
v -0.041363 0.045888 -0.023296
v -0.043261 0.049973 -0.024134
v -0.005117 0.088376 -0.004205
v -0.014628 0.083536 -0.009053
v -0.013840 0.047477 -0.049510
v -0.014833 0.051613 -0.051209
v 0.000929 0.088725 -0.009963
v -0.003167 0.084197 -0.019969
v 0.024055 0.049862 -0.051871
v 0.024306 0.054078 -0.053647
v 0.009251 0.089249 -0.010481
v 0.012612 0.085191 -0.020952
v 0.054589 0.051929 -0.029273
v 0.055843 0.056212 -0.030307
v 0.015958 0.089703 -0.005518
v 0.025327 0.086051 -0.011542
v 0.063475 0.052709 0.007709
v 0.065021 0.057018 0.007889
v 0.017910 0.089875 0.002605
v 0.029027 0.086376 0.003857
vn 0.0252 -0.4699 0.8823
vn 0.0226 0.6105 0.7917
vn -0.8239 -0.4797 0.3019
vn -0.7554 0.6015 0.2598
vn -0.5341 -0.4955 -0.6850
vn -0.4899 0.5870 -0.6445
vn 0.4941 -0.4955 -0.7144
vn 0.4523 0.5870 -0.6715
vn 0.8398 -0.4797 0.2543
vn 0.7691 0.6015 0.2162
vn -0.4140 -0.6695 0.6168
vn -0.3837 0.7428 0.5487
vn 0.0284 0.1116 0.9933
vn -0.9376 0.1005 0.3330
vn -0.7039 -0.6828 -0.1958
vn -0.6520 0.7305 -0.2032
vn -0.6079 0.0825 -0.7897
vn -0.0207 -0.6910 -0.7226
vn -0.0198 0.7229 -0.6907
vn 0.5618 0.0825 -0.8232
vn 0.6916 -0.6828 -0.2357
vn 0.6393 0.7305 -0.2401
vn 0.9551 0.1005 0.2788
vn 0.4485 -0.6695 0.5921
vn 0.4144 0.7428 0.5259
vn 0.0005 -0.9999 0.0162
vn -0.5628 0.0905 0.8217
vn 0.6088 0.0905 0.7881
vn -0.0005 0.9999 -0.0162
vn -0.9567 0.0724 -0.2821
vn -0.0285 0.0613 -0.9977
vn 0.9390 0.0724 -0.3363
vn -0.0435 -0.4519 0.8910
vn -0.0380 0.6264 0.7785
vn -0.8452 -0.4739 0.2469
vn -0.7727 0.6062 0.1883
vn -0.4800 -0.5096 -0.7140
vn -0.4380 0.5735 -0.6922
vn 0.5473 -0.5096 -0.6638
vn 0.5034 0.5735 -0.6463
vn 0.8171 -0.4739 0.3281
vn 0.7506 0.6062 0.2627
vn -0.4611 -0.6571 0.5964
vn -0.4242 0.7535 0.5022
vn -0.0484 0.1318 0.9901
vn -0.9604 0.1067 0.2574
vn -0.6874 -0.6870 -0.2357
vn -0.6336 0.7258 -0.2678
vn -0.5450 0.0661 -0.8359
vn 0.0346 -0.7055 -0.7079
vn 0.0344 0.7087 -0.7047
vn 0.6238 0.0661 -0.7788
vn 0.7071 -0.6870 -0.1676
vn 0.6567 0.7258 -0.2047
vn 0.9307 0.1067 0.3497
vn 0.4007 -0.6571 0.6385
vn 0.3733 0.7535 0.5412
vn -0.0018 -0.9993 0.0364
vn -0.6245 0.1068 0.7737
vn 0.5461 0.1068 0.8309
vn 0.0018 0.9993 -0.0364
vn -0.9319 0.0661 -0.3566
vn 0.0488 0.0410 -0.9980
vn 0.9622 0.0661 -0.2641
vn 0.3928 -0.3491 0.8508
vn 0.0922 0.9354 0.3412
vn -0.2379 -0.3888 0.8901
vn -0.1655 0.9192 0.3573
vn -0.7462 -0.4232 0.5139
vn -0.3731 0.9052 0.2036
vn -0.8941 -0.4362 -0.1016
vn -0.4336 0.8999 -0.0479
vn -0.6125 -0.4217 -0.6686
vn -0.3185 0.9058 -0.2795
vn -0.0331 -0.3865 -0.9217
vn -0.0818 0.9202 -0.3829
vn 0.5730 -0.3471 -0.7425
vn 0.1658 0.9363 -0.3097
vn 0.9221 -0.3218 -0.2148
vn 0.3085 0.9466 -0.0941
vn 0.8510 -0.3226 0.4144
vn 0.2794 0.9462 0.1630
vn 0.0632 -0.9980 0.0059
vn 0.2339 0.7339 0.6377
vn 0.5805 0.7539 0.3076
vn -0.0632 0.9980 -0.0059
vn -0.2432 0.7039 0.6674
vn -0.6276 0.6779 0.3829
vn -0.7395 0.6681 -0.0828
vn -0.5265 0.6790 -0.5116
vn -0.0882 0.7056 -0.7031
vn 0.3702 0.7355 -0.5675
vn 0.6343 0.7545 -0.1683
vt 0.750000 0.415836
vt 0.699167 0.451983
vt 0.800833 0.451983
vt 0.250000 0.406670
vt 0.301558 0.452541
vt 0.198442 0.452541
vt 0.907719 0.301246
vt 0.926389 0.360761
vt 0.957805 0.264071
vt 0.399002 0.298414
vt 0.458560 0.263554
vt 0.426695 0.361623
vt 0.847476 0.115836
vt 0.909847 0.116471
vt 0.827598 0.056714
vt 0.342088 0.123252
vt 0.327339 0.055836
vt 0.410762 0.116446
vt 0.652524 0.115836
vt 0.672402 0.056714
vt 0.590153 0.116471
vt 0.157912 0.123252
vt 0.089238 0.116446
vt 0.172661 0.055836
vt 0.592281 0.301246
vt 0.542195 0.264071
vt 0.573611 0.360761
vt 0.100998 0.298414
vt 0.073305 0.361623
vt 0.041440 0.263554
vt 0.046314 0.891237
vt 0.000000 0.614873
vt 0.043888 0.608763
vt 0.753687 0.891237
vt 0.843888 0.608763
vt 0.846314 0.891237
vt 0.556113 0.608763
vt 0.646313 0.891237
vt 0.553687 0.891237
vt 0.356112 0.608763
vt 0.446314 0.891237
vt 0.353687 0.891237
vt 0.156113 0.608763
vt 0.246314 0.891237
vt 0.153687 0.891237
vt 0.956113 0.608763
vt 0.643887 0.608763
vt 0.756113 0.608763
vt 0.443888 0.608763
vt 0.243888 0.608763
vt 0.750000 0.406670
vt 0.692982 0.447150
vt 0.807018 0.447150
vt 0.250000 0.394918
vt 0.308829 0.447258
vt 0.191171 0.447258
vt 0.899002 0.298414
vt 0.919882 0.365150
vt 0.955121 0.256695
vt 0.387825 0.294782
vt 0.455783 0.255006
vt 0.419424 0.366906
vt 0.842088 0.123252
vt 0.912011 0.124016
vt 0.819753 0.056988
vt 0.335181 0.132759
vt 0.318351 0.055836
vt 0.413539 0.124994
vt 0.657912 0.123252
vt 0.680247 0.056988
vt 0.587990 0.124016
vt 0.164819 0.132759
vt 0.086461 0.124994
vt 0.181649 0.055836
vt 0.600998 0.298414
vt 0.544880 0.256695
vt 0.580119 0.365150
vt 0.112175 0.294782
vt 0.080576 0.366906
vt 0.044217 0.255006
vt 0.049448 0.608763
vt 0.000000 0.897346
vt 0.000000 0.614872
vt 0.750552 0.608763
vt 0.852679 0.891237
vt 0.747321 0.891237
vt 0.550552 0.608763
vt 0.652679 0.891237
vt 0.547321 0.891237
vt 0.350552 0.608763
vt 0.452679 0.891237
vt 0.347321 0.891237
vt 0.147321 0.891237
vt 0.249448 0.608763
vt 0.252679 0.891237
vt 0.947321 0.891237
vt 0.849448 0.608763
vt 0.950552 0.608763
vt 0.150552 0.608763
vt 0.649448 0.608763
vt 0.449448 0.608763
vt 0.902942 0.432269
vt 0.750000 0.465284
vt 0.750000 0.487936
vt 0.250000 0.490000
vt 0.351311 0.370738
vt 0.404269 0.433851
vt 0.984321 0.291317
vt 0.888382 0.414917
vt 0.405218 0.277369
vt 0.486354 0.291676
vt 0.956059 0.131032
vt 0.962013 0.287384
vt 0.457846 0.130000
vt 0.386496 0.171194
vt 0.823631 0.047700
vt 0.936441 0.142358
vt 0.303906 0.101893
vt 0.332085 0.024474
vt 0.668621 0.026413
vt 0.831379 0.026413
vt 0.167915 0.024474
vt 0.196094 0.101893
vt 0.543941 0.131032
vt 0.676369 0.047700
vt 0.113504 0.171194
vt 0.042154 0.130000
vt 0.515679 0.291317
vt 0.563559 0.142358
vt 0.013646 0.291676
vt 0.094782 0.277369
vt 0.611618 0.414917
vt 0.537987 0.287384
vt 0.148689 0.370738
vt 0.095731 0.433851
vt 0.597058 0.432269
vt 0.250000 0.407612
vt 1.000000 0.947483
vt 0.888889 0.552517
vt 1.000000 0.552517
vt 0.111111 0.947483
vt 0.000000 0.552517
vt 0.111111 0.552517
vt 0.888889 0.947483
vt 0.777778 0.552517
vt 0.777778 0.947483
vt 0.666667 0.552517
vt 0.666667 0.947483
vt 0.555556 0.552517
vt 0.444445 0.947483
vt 0.444445 0.552517
vt 0.333333 0.552517
vt 0.333333 0.947483
vt 0.222222 0.552517
vt 0.953687 0.891237
vt 0.052679 0.891237
vt 0.000000 0.947483
vt 0.555556 0.947483
vt 0.222222 0.947483
s 0
usemtl bark
f 1/1/1 2/2/1 3/3/1
f 4/4/2 5/5/2 6/6/2
f 7/7/3 8/8/3 9/9/3
f 10/10/4 11/11/4 12/12/4
f 13/13/5 14/14/5 15/15/5
f 16/16/6 17/17/6 18/18/6
f 19/19/7 20/20/7 21/21/7
f 22/22/8 23/23/8 24/24/8
f 25/25/9 26/26/9 27/27/9
f 28/28/10 29/29/10 30/30/10
f 3/3/11 7/7/11 1/1/11
f 5/5/12 10/10/12 12/12/12
f 6/31/13 3/32/13 2/33/13
f 11/34/14 8/35/14 12/36/14
f 14/14/15 7/7/15 9/9/15
f 11/11/16 16/16/16 18/18/16
f 15/37/17 18/38/17 17/39/17
f 20/20/18 13/13/18 15/15/18
f 17/17/19 22/22/19 24/24/19
f 21/40/20 24/41/20 23/42/20
f 26/26/21 19/19/21 21/21/21
f 30/30/22 22/22/22 28/28/22
f 27/43/23 30/44/23 29/45/23
f 2/2/24 25/25/24 27/27/24
f 29/29/25 4/4/25 6/6/25
f 7/7/26 19/19/26 25/25/26
f 3/46/27 12/36/27 8/35/27
f 27/43/28 6/31/28 2/33/28
f 4/4/29 22/22/29 16/16/29
f 11/34/30 14/47/30 9/48/30
f 17/39/31 20/49/31 15/37/31
f 23/42/32 26/50/32 21/40/32
f 31/51/33 32/52/33 33/53/33
f 34/54/34 35/55/34 36/56/34
f 37/57/35 38/58/35 39/59/35
f 40/60/36 41/61/36 42/62/36
f 43/63/37 44/64/37 45/65/37
f 46/66/38 47/67/38 48/68/38
f 49/69/39 50/70/39 51/71/39
f 52/72/40 53/73/40 54/74/40
f 55/75/41 56/76/41 57/77/41
f 58/78/42 59/79/42 60/80/42
f 38/58/43 31/51/43 33/53/43
f 42/62/44 34/54/44 40/60/44
f 32/81/45 35/82/45 33/83/45
f 39/84/46 42/85/46 41/86/46
f 39/59/47 43/63/47 37/57/47
f 41/61/48 46/66/48 48/68/48
f 45/87/49 48/88/49 47/89/49
f 50/70/50 43/63/50 45/65/50
f 47/67/51 52/72/51 54/74/51
f 51/90/52 54/91/52 53/92/52
f 56/76/53 49/69/53 51/71/53
f 53/73/54 58/78/54 60/80/54
f 59/93/55 56/94/55 60/95/55
f 57/77/56 31/51/56 55/75/56
f 59/79/57 34/54/57 36/56/57
f 37/57/58 49/69/58 55/75/58
f 35/96/59 38/97/59 33/98/59
f 59/93/60 32/81/60 57/99/60
f 34/54/61 52/72/61 46/66/61
f 41/86/62 44/100/62 39/84/62
f 47/89/63 50/101/63 45/87/63
f 51/90/64 60/95/64 56/94/64
f 3/3/11 8/8/11 7/7/11
f 5/5/12 4/4/12 10/10/12
f 6/31/13 5/82/13 3/32/13
f 11/34/14 9/48/14 8/35/14
f 14/14/15 13/13/15 7/7/15
f 11/11/16 10/10/16 16/16/16
f 15/37/17 14/47/17 18/38/17
f 20/20/18 19/19/18 13/13/18
f 17/17/19 16/16/19 22/22/19
f 21/40/20 20/49/20 24/41/20
f 26/26/21 25/25/21 19/19/21
f 30/30/22 23/23/22 22/22/22
f 27/43/23 26/50/23 30/44/23
f 2/2/24 1/1/24 25/25/24
f 29/29/25 28/28/25 4/4/25
f 25/25/26 1/1/26 7/7/26
f 7/7/26 13/13/26 19/19/26
f 3/46/27 5/155/27 12/36/27
f 27/43/28 29/45/28 6/31/28
f 16/16/29 10/10/29 4/4/29
f 4/4/29 28/28/29 22/22/29
f 11/34/30 18/38/30 14/47/30
f 17/39/31 24/41/31 20/49/31
f 23/42/32 30/44/32 26/50/32
f 38/58/43 37/57/43 31/51/43
f 42/62/44 35/55/44 34/54/44
f 32/81/45 36/156/45 35/82/45
f 39/84/46 38/97/46 42/85/46
f 39/59/47 44/64/47 43/63/47
f 41/61/48 40/60/48 46/66/48
f 45/87/49 44/100/49 48/88/49
f 50/70/50 49/69/50 43/63/50
f 47/67/51 46/66/51 52/72/51
f 51/90/52 50/101/52 54/91/52
f 56/76/53 55/75/53 49/69/53
f 53/73/54 52/72/54 58/78/54
f 59/93/55 57/99/55 56/94/55
f 57/77/56 32/52/56 31/51/56
f 59/79/57 58/78/57 34/54/57
f 55/75/58 31/51/58 37/57/58
f 37/57/58 43/63/58 49/69/58
f 35/96/59 42/85/59 38/97/59
f 59/93/60 36/156/60 32/81/60
f 46/66/61 40/60/61 34/54/61
f 34/54/61 58/78/61 52/72/61
f 41/86/62 48/88/62 44/100/62
f 47/89/63 54/91/63 50/101/63
f 51/90/64 53/92/64 60/95/64
usemtl cap
f 66/102/65 61/103/65 62/104/65
f 64/105/66 67/106/66 68/107/66
f 70/108/67 65/109/67 66/102/67
f 68/107/68 71/110/68 72/111/68
f 74/112/69 69/113/69 70/108/69
f 76/114/70 71/110/70 75/115/70
f 74/112/71 77/116/71 73/117/71
f 76/114/72 79/118/72 80/119/72
f 82/120/73 77/116/73 78/121/73
f 84/122/74 79/118/74 83/123/74
f 86/124/75 81/125/75 82/120/75
f 84/122/76 87/126/76 88/127/76
f 90/128/77 85/129/77 86/124/77
f 92/130/78 87/126/78 91/131/78
f 90/128/79 93/132/79 89/133/79
f 92/130/80 95/134/80 96/135/80
f 94/136/81 61/103/81 93/132/81
f 64/105/82 95/134/82 63/137/82
f 65/109/83 81/125/83 89/133/83
f 64/138/84 66/139/84 62/140/84
f 96/141/85 62/142/85 94/143/85
f 63/137/86 83/123/86 75/115/86
f 68/144/87 70/145/87 66/139/87
f 72/146/88 74/147/88 70/145/88
f 76/148/89 78/149/89 74/147/89
f 78/149/90 84/150/90 82/151/90
f 84/150/91 86/152/91 82/151/91
f 88/153/92 90/154/92 86/152/92
f 90/154/93 96/141/93 94/143/93
f 66/102/65 65/109/65 61/103/65
f 64/105/66 63/137/66 67/106/66
f 70/108/67 69/113/67 65/109/67
f 68/107/68 67/106/68 71/110/68
f 74/112/69 73/117/69 69/113/69
f 76/114/70 72/111/70 71/110/70
f 74/112/71 78/121/71 77/116/71
f 76/114/72 75/115/72 79/118/72
f 82/120/73 81/125/73 77/116/73
f 84/122/74 80/119/74 79/118/74
f 86/124/75 85/129/75 81/125/75
f 84/122/76 83/123/76 87/126/76
f 90/128/77 89/133/77 85/129/77
f 92/130/78 88/127/78 87/126/78
f 90/128/79 94/136/79 93/132/79
f 92/130/80 91/131/80 95/134/80
f 94/136/81 62/104/81 61/103/81
f 64/105/82 96/135/82 95/134/82
f 93/132/83 61/103/83 65/109/83
f 65/109/83 69/113/83 73/117/83
f 73/117/83 77/116/83 81/125/83
f 81/125/83 85/129/83 89/133/83
f 89/133/83 93/132/83 65/109/83
f 65/109/83 73/117/83 81/125/83
f 64/138/84 68/144/84 66/139/84
f 96/141/85 64/157/85 62/142/85
f 71/110/86 67/106/86 63/137/86
f 63/137/86 95/134/86 91/131/86
f 91/131/86 87/126/86 83/123/86
f 83/123/86 79/118/86 75/115/86
f 75/115/86 71/110/86 63/137/86
f 63/137/86 91/131/86 83/123/86
f 68/144/87 72/146/87 70/145/87
f 72/146/88 76/148/88 74/147/88
f 76/148/89 80/158/89 78/149/89
f 78/149/90 80/158/90 84/150/90
f 84/150/91 88/153/91 86/152/91
f 88/153/92 92/159/92 90/154/92
f 90/154/93 92/159/93 96/141/93
