# Blender 4.5.10 LTS
# www.blender.org
mtllib stow_rail_remodel2_c.mtl
o stow_rail_remodel2_c
v -0.089427 -0.126431 -0.058394
v -0.037578 1.514907 -0.305997
v -0.010624 -0.133650 -0.094006
v 0.019160 1.509709 -0.331638
v 0.066891 -0.128816 -0.055298
v 0.074971 1.513189 -0.303768
v 0.084747 -0.115569 0.028583
v 0.087827 1.522727 -0.243374
v 0.029498 -0.103884 0.094471
v 0.048048 1.531140 -0.195934
v -0.057251 -0.102560 0.092753
v -0.014411 1.532093 -0.197172
v -0.110178 -0.112594 0.024721
v -0.052519 1.524869 -0.246154
v 0.476486 -0.056783 0.391949
v 0.011821 0.811539 -0.060595
v 0.431916 -0.080158 0.392478
v -0.026602 0.791389 -0.060139
v 0.411314 -0.109248 0.356946
v -0.044362 0.766311 -0.090770
v 0.430195 -0.122149 0.312111
v -0.028085 0.755189 -0.129421
v 0.474340 -0.109146 0.291733
v 0.009971 0.766399 -0.146988
v 0.510508 -0.080030 0.311158
v 0.041150 0.791499 -0.130242
v 0.511463 -0.056727 0.355759
v 0.041974 0.811588 -0.091794
v -0.462735 -0.104601 0.315791
v 0.022694 0.743493 -0.153025
v -0.427626 -0.104556 0.351853
v 0.052960 0.743532 -0.121936
v -0.427696 -0.079823 0.395687
v 0.052900 0.764854 -0.084149
v -0.462893 -0.049025 0.414284
v 0.022558 0.791404 -0.068116
v -0.506712 -0.035355 0.393641
v -0.015217 0.803188 -0.085912
v -0.526157 -0.049106 0.349302
v -0.031981 0.791334 -0.124135
v -0.506586 -0.079924 0.314656
v -0.015109 0.764767 -0.154003
v -0.017348 0.887496 -0.180958
v -0.017026 0.894641 -0.145676
v 0.059348 0.870233 -0.178161
v 0.059670 0.877378 -0.142879
v 0.106869 0.808708 -0.166136
v 0.107190 0.815853 -0.130854
v 0.102978 0.731710 -0.150509
v 0.103300 0.738854 -0.115227
v 0.049497 0.675266 -0.138592
v 0.049819 0.682410 -0.103310
v -0.028550 0.665788 -0.135962
v -0.028228 0.672932 -0.100679
v -0.094644 0.707710 -0.143848
v -0.094323 0.714855 -0.108566
v -0.117859 0.781417 -0.158562
v -0.117538 0.788561 -0.123279
v -0.087333 0.852420 -0.173218
v -0.087011 0.859565 -0.137935
v -0.024144 0.284033 -0.081658
v -0.023934 0.290780 -0.046296
v -0.090525 0.325567 -0.089186
v -0.090314 0.332313 -0.053825
v -0.114245 0.399268 -0.103105
v -0.114034 0.406014 -0.067744
v -0.084205 0.470650 -0.116902
v -0.083994 0.477396 -0.081540
v -0.014461 0.506313 -0.124121
v -0.014251 0.513059 -0.088759
v 0.062352 0.489570 -0.121384
v 0.062563 0.496316 -0.086022
v 0.110294 0.428255 -0.109972
v 0.110504 0.435001 -0.074610
v 0.106931 0.351058 -0.095224
v 0.107141 0.357804 -0.059863
v 0.053837 0.294101 -0.084042
v 0.054048 0.300847 -0.048681
v 0.007725 0.986457 -0.161841
v 0.327626 1.056756 -0.171066
v 0.002901 1.012988 -0.139985
v 0.323767 1.077981 -0.153581
v -0.003772 1.046226 -0.147435
v 0.318429 1.104572 -0.159541
v -0.007269 1.061143 -0.178582
v 0.315631 1.116505 -0.184458
v -0.004958 1.046505 -0.209970
v 0.317480 1.104795 -0.209569
v 0.001422 1.013336 -0.217964
v 0.322584 1.078260 -0.215965
v 0.007066 0.986612 -0.196545
v 0.327099 1.056880 -0.198829
v 0.055015 1.079937 -0.166549
v 0.019699 1.086919 -0.166348
v 0.050699 1.057247 -0.136851
v 0.015383 1.064230 -0.136649
v 0.043609 1.021155 -0.128946
v 0.008293 1.028137 -0.128744
v 0.037061 0.988547 -0.146533
v 0.001745 0.995530 -0.146331
v 0.034121 0.974682 -0.181383
v -0.001195 0.981664 -0.181181
v 0.036163 0.986047 -0.217190
v 0.000847 0.993029 -0.216988
v 0.042233 1.017324 -0.237198
v 0.006917 1.024306 -0.236996
v 0.049489 1.053879 -0.232046
v 0.014173 1.060861 -0.231845
v 0.054537 1.078606 -0.204145
v 0.019221 1.085588 -0.203943
v 0.320000 0.815000 -0.095732
v 0.320000 1.025000 -0.055732
v 0.265363 0.815000 -0.115618
v 0.239652 1.025000 -0.084976
v 0.236291 0.815000 -0.165972
v 0.196899 1.025000 -0.159026
v 0.246388 0.815000 -0.223232
v 0.211747 1.025000 -0.243232
v 0.290928 0.815000 -0.260606
v 0.277248 1.025000 -0.298193
v 0.349072 0.815000 -0.260606
v 0.362753 1.025000 -0.298193
v 0.393612 0.815000 -0.223232
v 0.428253 1.025000 -0.243232
v 0.403709 0.815000 -0.165972
v 0.443101 1.025000 -0.159026
v 0.374637 0.815000 -0.115618
v 0.400348 1.025000 -0.084976
v 0.320000 0.819491 -0.119308
v 0.320000 1.029491 -0.079308
v 0.280518 0.819491 -0.133678
v 0.254806 1.029491 -0.103037
v 0.259509 0.819491 -0.170066
v 0.220117 1.029491 -0.163120
v 0.266805 0.819491 -0.211444
v 0.232164 1.029491 -0.231444
v 0.298992 0.819491 -0.238451
v 0.285311 1.029491 -0.276039
v 0.341008 0.819491 -0.238451
v 0.354689 1.029491 -0.276039
v 0.373195 0.819491 -0.211444
v 0.407836 1.029491 -0.231444
v 0.380491 0.819491 -0.170066
v 0.419883 1.029491 -0.163120
v 0.359483 0.819491 -0.133678
v 0.385194 1.029491 -0.103037
v 0.320000 0.980000 -0.043732
v 0.320000 1.030000 -0.043732
v 0.231938 0.980000 -0.075784
v 0.231938 1.030000 -0.075784
v 0.185081 0.980000 -0.156942
v 0.185081 1.030000 -0.156942
v 0.201355 0.980000 -0.249232
v 0.201355 1.030000 -0.249232
v 0.273143 0.980000 -0.309470
v 0.273143 1.030000 -0.309470
v 0.366857 0.980000 -0.309470
v 0.366857 1.030000 -0.309470
v 0.438646 0.980000 -0.249232
v 0.438645 1.030000 -0.249232
v 0.454919 0.980000 -0.156942
v 0.454919 1.030000 -0.156942
v 0.408062 0.980000 -0.075784
v 0.408062 1.030000 -0.075784
v 0.320000 0.980000 -0.063732
v 0.320000 1.030000 -0.063732
v 0.244794 0.980000 -0.091105
v 0.244794 1.030000 -0.091105
v 0.204778 0.980000 -0.160415
v 0.204778 1.030000 -0.160415
v 0.218675 0.980000 -0.239232
v 0.218675 1.030000 -0.239232
v 0.279984 0.980000 -0.290676
v 0.279984 1.030000 -0.290676
v 0.360016 0.980000 -0.290676
v 0.360016 1.030000 -0.290676
v 0.421325 0.980000 -0.239232
v 0.421325 1.030000 -0.239232
v 0.435223 0.980000 -0.160415
v 0.435223 1.030000 -0.160415
v 0.395206 0.980000 -0.091105
v 0.395206 1.030000 -0.091105
v 0.324156 1.084909 -0.172713
v 0.328586 1.082057 -0.167422
v 0.331460 1.086461 -0.172722
v 0.403801 1.033201 -0.167234
v 0.408227 1.030301 -0.172503
v 0.406675 1.037605 -0.172535
v 0.324151 1.084859 -0.184152
v 0.331455 1.086411 -0.184162
v 0.328577 1.081960 -0.189421
v 0.408222 1.030251 -0.183943
v 0.403793 1.033104 -0.189234
v 0.406671 1.037555 -0.183975
v 0.317924 1.075316 -0.172668
v 0.319476 1.068012 -0.172636
v 0.322354 1.072463 -0.167377
v 0.401995 1.020708 -0.172459
v 0.397569 1.023607 -0.167190
v 0.394691 1.019156 -0.172449
v 0.317920 1.075265 -0.184108
v 0.322346 1.072366 -0.189377
v 0.319472 1.067961 -0.184076
v 0.401991 1.020657 -0.183899
v 0.394687 1.019106 -0.183889
v 0.397561 1.023510 -0.189190
v 0.327525 1.078140 -0.172096
v 0.323088 1.075315 -0.166796
v 0.325919 1.070848 -0.172067
v 0.245778 1.025905 -0.166447
v 0.241317 1.023043 -0.171707
v 0.248610 1.021437 -0.171718
v 0.327499 1.078100 -0.183536
v 0.325893 1.070808 -0.183507
v 0.323038 1.075238 -0.188796
v 0.241292 1.023003 -0.183147
v 0.245729 1.025827 -0.188447
v 0.248584 1.021397 -0.183158
v 0.321364 1.087780 -0.172116
v 0.314071 1.089385 -0.172105
v 0.316927 1.084955 -0.166816
v 0.235157 1.032682 -0.171727
v 0.239617 1.035544 -0.166467
v 0.236762 1.039975 -0.171757
v 0.321338 1.087739 -0.183556
v 0.316877 1.084877 -0.188816
v 0.314045 1.089345 -0.183545
v 0.235131 1.032642 -0.183167
v 0.236736 1.039934 -0.183197
v 0.239568 1.035467 -0.188467
v 0.007056 1.293106 -0.206200
v -0.314063 1.358029 -0.200580
v 0.001901 1.267489 -0.183353
v -0.318187 1.337536 -0.182302
v -0.005779 1.234206 -0.189524
v -0.324331 1.310909 -0.187239
v -0.010201 1.218320 -0.220068
v -0.327869 1.298200 -0.211674
v -0.008036 1.231793 -0.251983
v -0.326136 1.308979 -0.237207
v -0.000913 1.264480 -0.261238
v -0.320438 1.335129 -0.244611
v 0.005803 1.291767 -0.240863
v -0.315065 1.356958 -0.228310
v 0.000586 1.316526 -0.235330
v -0.034710 1.323611 -0.235142
v 0.000518 1.315195 -0.197731
v -0.034777 1.322279 -0.197544
v -0.004294 1.290480 -0.169777
v -0.039589 1.297564 -0.169589
v -0.011599 1.253946 -0.164547
v -0.046894 1.261030 -0.164359
v -0.017978 1.222688 -0.184488
v -0.053274 1.229772 -0.184301
v -0.020447 1.211332 -0.220271
v -0.055743 1.218416 -0.220083
v -0.017851 1.225191 -0.255151
v -0.053147 1.232275 -0.254963
v -0.011404 1.257781 -0.272808
v -0.046700 1.264865 -0.272620
v -0.004123 1.293852 -0.264980
v -0.039418 1.300936 -0.264792
v -0.320000 1.055000 -0.133781
v -0.320000 1.265000 -0.093780
v -0.374637 1.055000 -0.153667
v -0.400348 1.265000 -0.123025
v -0.403709 1.055000 -0.204020
v -0.443101 1.265000 -0.197074
v -0.393612 1.055000 -0.261281
v -0.428253 1.265000 -0.281281
v -0.349072 1.055000 -0.298654
v -0.362753 1.265000 -0.336242
v -0.290928 1.055000 -0.298654
v -0.277248 1.265000 -0.336242
v -0.246388 1.055000 -0.261281
v -0.211747 1.265000 -0.281281
v -0.236291 1.055000 -0.204020
v -0.196899 1.265000 -0.197075
v -0.265363 1.055000 -0.153667
v -0.239652 1.265000 -0.123025
v -0.320000 1.059491 -0.157357
v -0.320000 1.269491 -0.117357
v -0.359482 1.059491 -0.171727
v -0.385194 1.269491 -0.141085
v -0.380491 1.059491 -0.208114
v -0.419883 1.269491 -0.201168
v -0.373195 1.059491 -0.249492
v -0.407836 1.269491 -0.269492
v -0.341008 1.059491 -0.276500
v -0.354689 1.269491 -0.314088
v -0.298992 1.059491 -0.276500
v -0.285311 1.269491 -0.314088
v -0.266805 1.059491 -0.249492
v -0.232164 1.269491 -0.269492
v -0.259509 1.059491 -0.208114
v -0.220117 1.269491 -0.201168
v -0.280517 1.059491 -0.171727
v -0.254806 1.269491 -0.141085
v -0.320000 1.220000 -0.081780
v -0.320000 1.270000 -0.081781
v -0.408062 1.220000 -0.113832
v -0.408062 1.270000 -0.113832
v -0.454919 1.220000 -0.194991
v -0.454919 1.270000 -0.194991
v -0.438645 1.220000 -0.287280
v -0.438646 1.270000 -0.287280
v -0.366857 1.220000 -0.347518
v -0.366857 1.270000 -0.347518
v -0.273143 1.220000 -0.347518
v -0.273143 1.270000 -0.347518
v -0.201355 1.220000 -0.287280
v -0.201355 1.270000 -0.287280
v -0.185081 1.220000 -0.194991
v -0.185081 1.270000 -0.194991
v -0.231938 1.220000 -0.113832
v -0.231938 1.270000 -0.113832
v -0.320000 1.220000 -0.101781
v -0.320000 1.270000 -0.101781
v -0.395206 1.220000 -0.129153
v -0.395206 1.270000 -0.129153
v -0.435223 1.220000 -0.198464
v -0.435223 1.270000 -0.198464
v -0.421325 1.220000 -0.277281
v -0.421325 1.270000 -0.277281
v -0.360016 1.220000 -0.328725
v -0.360016 1.270000 -0.328725
v -0.279984 1.220000 -0.328725
v -0.279984 1.270000 -0.328725
v -0.218675 1.220000 -0.277281
v -0.218675 1.270000 -0.277281
v -0.204778 1.220000 -0.198464
v -0.204778 1.270000 -0.198464
v -0.244794 1.220000 -0.129153
v -0.244794 1.270000 -0.129153
v -0.312845 1.325963 -0.213675
v -0.308378 1.323087 -0.208428
v -0.305546 1.327540 -0.213711
v -0.232921 1.274452 -0.208981
v -0.228512 1.271606 -0.214294
v -0.230090 1.278905 -0.214264
v -0.312908 1.325995 -0.225115
v -0.305609 1.327573 -0.225151
v -0.308499 1.323149 -0.230427
v -0.228575 1.271639 -0.225733
v -0.233042 1.274514 -0.230981
v -0.230153 1.278937 -0.225704
v -0.319042 1.316347 -0.213668
v -0.317465 1.309049 -0.213698
v -0.314575 1.313472 -0.208421
v -0.234710 1.261991 -0.214287
v -0.239119 1.264836 -0.208974
v -0.242008 1.260413 -0.214251
v -0.319105 1.316379 -0.225108
v -0.314697 1.313534 -0.230420
v -0.317528 1.309081 -0.225137
v -0.234773 1.262023 -0.225726
v -0.242071 1.260446 -0.225691
v -0.239240 1.264899 -0.230974
v -0.313713 1.318849 -0.210519
v -0.318154 1.315992 -0.205241
v -0.315263 1.311545 -0.210497
v -0.394676 1.266270 -0.205265
v -0.399089 1.263374 -0.210546
v -0.391785 1.261823 -0.210521
v -0.313682 1.318808 -0.221959
v -0.315233 1.311503 -0.221937
v -0.318095 1.315912 -0.227240
v -0.399059 1.263332 -0.221986
v -0.394617 1.266190 -0.227264
v -0.391754 1.261781 -0.221961
v -0.319946 1.328442 -0.210571
v -0.327250 1.329993 -0.210596
v -0.324387 1.325584 -0.205292
v -0.405322 1.272966 -0.210598
v -0.400909 1.275862 -0.205316
v -0.403772 1.280271 -0.210620
v -0.319915 1.328400 -0.222011
v -0.324328 1.325504 -0.227292
v -0.327219 1.329951 -0.222036
v -0.405292 1.272925 -0.222037
v -0.403741 1.280229 -0.222060
v -0.400850 1.275782 -0.227316
v 0.008815 1.439945 -0.244243
v 0.326856 1.518752 -0.242344
v 0.003252 1.463324 -0.219196
v 0.322405 1.537454 -0.222307
v -0.004240 1.497068 -0.222365
v 0.316412 1.564450 -0.224842
v -0.008017 1.515768 -0.251363
v 0.313390 1.579410 -0.248040
v -0.005237 1.505342 -0.284354
v 0.315614 1.571069 -0.274433
v 0.002008 1.473641 -0.296495
v 0.321410 1.545708 -0.284146
v 0.008262 1.444537 -0.278644
v 0.326413 1.522425 -0.269865
v 0.055522 1.539409 -0.245076
v 0.020210 1.546405 -0.245454
v 0.051686 1.521838 -0.212030
v 0.016375 1.528835 -0.212409
v 0.044739 1.487518 -0.198273
v 0.009427 1.494514 -0.198652
v 0.037930 1.452506 -0.210242
v 0.002618 1.459502 -0.210621
v 0.034446 1.433185 -0.242336
v -0.000866 1.440182 -0.242714
v 0.035917 1.438597 -0.279538
v 0.000605 1.445593 -0.279916
v 0.041655 1.466208 -0.304441
v 0.006343 1.473204 -0.304819
v 0.048974 1.503098 -0.305392
v 0.013663 1.510095 -0.305771
v 0.054451 1.532008 -0.281947
v 0.019139 1.539005 -0.282326
v 0.320000 1.275000 -0.168659
v 0.320000 1.485000 -0.128659
v 0.265363 1.275000 -0.188545
v 0.239652 1.485000 -0.157903
v 0.236291 1.275000 -0.238898
v 0.196899 1.485000 -0.231953
v 0.246388 1.275000 -0.296159
v 0.211747 1.485000 -0.316159
v 0.290928 1.275000 -0.333532
v 0.277247 1.485000 -0.371120
v 0.349072 1.275000 -0.333532
v 0.362752 1.485000 -0.371120
v 0.393612 1.275000 -0.296159
v 0.428253 1.485000 -0.316159
v 0.403709 1.275000 -0.238898
v 0.443101 1.485000 -0.231953
v 0.374637 1.275000 -0.188545
v 0.400348 1.485000 -0.157903
v 0.320000 1.279491 -0.192235
v 0.320000 1.489491 -0.152235
v 0.280517 1.279491 -0.206605
v 0.254806 1.489491 -0.175963
v 0.259509 1.279491 -0.242992
v 0.220117 1.489491 -0.236046
v 0.266805 1.279491 -0.284370
v 0.232164 1.489491 -0.304370
v 0.298992 1.279491 -0.311378
v 0.285311 1.489491 -0.348966
v 0.341008 1.279491 -0.311378
v 0.354689 1.489491 -0.348966
v 0.373195 1.279491 -0.284370
v 0.407836 1.489491 -0.304370
v 0.380491 1.279491 -0.242992
v 0.419883 1.489491 -0.236046
v 0.359483 1.279491 -0.206605
v 0.385194 1.489491 -0.175963
v 0.320000 1.440000 -0.116659
v 0.320000 1.490000 -0.116659
v 0.231938 1.440000 -0.148710
v 0.231938 1.490000 -0.148710
v 0.185081 1.440000 -0.229869
v 0.185081 1.490000 -0.229869
v 0.201355 1.440000 -0.322159
v 0.201355 1.490000 -0.322159
v 0.273143 1.440000 -0.382396
v 0.273143 1.490000 -0.382396
v 0.366857 1.440000 -0.382396
v 0.366857 1.490000 -0.382396
v 0.438645 1.440000 -0.322159
v 0.438645 1.490000 -0.322159
v 0.454919 1.440000 -0.229869
v 0.454919 1.490000 -0.229869
v 0.408062 1.440000 -0.148710
v 0.408062 1.490000 -0.148710
v 0.320000 1.440000 -0.136659
v 0.320000 1.490000 -0.136659
v 0.244794 1.440000 -0.164031
v 0.244794 1.490000 -0.164031
v 0.204777 1.440000 -0.233342
v 0.204777 1.490000 -0.233342
v 0.218675 1.440000 -0.312159
v 0.218675 1.490000 -0.312159
v 0.279984 1.440000 -0.363603
v 0.279984 1.490000 -0.363603
v 0.360016 1.440000 -0.363603
v 0.360016 1.490000 -0.363603
v 0.421325 1.440000 -0.312159
v 0.421325 1.490000 -0.312159
v 0.435223 1.440000 -0.233342
v 0.435223 1.490000 -0.233342
v 0.395206 1.440000 -0.164031
v 0.395206 1.490000 -0.164031
v 0.319645 1.544924 -0.249581
v 0.324093 1.542036 -0.244324
v 0.326945 1.546496 -0.249591
v 0.400398 1.492766 -0.244728
v 0.404821 1.489926 -0.250031
v 0.403249 1.497226 -0.249994
v 0.319618 1.544977 -0.261021
v 0.326918 1.546548 -0.261030
v 0.324042 1.542137 -0.266324
v 0.404794 1.489978 -0.261471
v 0.400346 1.492866 -0.266728
v 0.403223 1.497278 -0.261434
v 0.313439 1.535314 -0.249610
v 0.315011 1.528014 -0.249647
v 0.317887 1.532426 -0.244354
v 0.398615 1.480315 -0.250061
v 0.394192 1.483155 -0.244757
v 0.391315 1.478744 -0.250051
v 0.313413 1.535366 -0.261050
v 0.317836 1.532526 -0.266353
v 0.314984 1.528067 -0.261087
v 0.398588 1.480368 -0.261501
v 0.391288 1.478796 -0.261491
v 0.394140 1.483256 -0.266757
v 0.322083 1.532442 -0.246059
v 0.317627 1.529615 -0.240775
v 0.320460 1.525154 -0.246050
v 0.240478 1.480572 -0.240718
v 0.236022 1.477734 -0.245995
v 0.243310 1.476110 -0.245993
v 0.322083 1.532429 -0.257499
v 0.320459 1.525141 -0.257490
v 0.317627 1.529591 -0.262775
v 0.236021 1.477721 -0.257435
v 0.240477 1.480547 -0.262718
v 0.243310 1.476098 -0.257433
v 0.315946 1.542096 -0.246069
v 0.308657 1.543720 -0.246071
v 0.311490 1.539270 -0.240786
v 0.229885 1.487388 -0.246005
v 0.234341 1.490227 -0.240728
v 0.231508 1.494677 -0.246013
v 0.315945 1.542084 -0.257509
v 0.311489 1.539245 -0.262786
v 0.308657 1.543707 -0.257511
v 0.229884 1.487375 -0.257445
v 0.231507 1.494664 -0.257453
v 0.234340 1.490202 -0.262729
v 0.549973 -0.019129 0.461547
v 0.617942 0.029831 0.410430
v 0.613574 0.025786 0.515986
v 0.517464 0.018329 0.548398
v 0.462435 0.017766 0.462873
v 0.524534 0.024874 0.377605
v 0.627441 0.097548 0.465690
v 0.565342 0.090440 0.550958
v 0.471934 0.085484 0.518132
v 0.476302 0.089529 0.412577
v 0.572411 0.096985 0.380164
v 0.539903 0.134444 0.467016
v -0.539103 -0.014898 0.461142
v -0.634815 0.019753 0.492250
v -0.590354 0.027599 0.384062
v -0.479166 0.035339 0.384961
v -0.454912 0.032277 0.493708
v -0.551108 0.022644 0.560014
v -0.634033 0.091406 0.435294
v -0.537836 0.101038 0.368987
v -0.454129 0.103930 0.436752
v -0.498590 0.096084 0.544940
v -0.609778 0.088344 0.544040
v -0.549842 0.138581 0.467859
v -0.008244 -0.011912 0.416713
v -0.052620 0.023211 0.357655
v 0.027934 0.018053 0.340956
v 0.061183 0.019502 0.427105
v 0.001176 0.025555 0.497047
v -0.069157 0.027847 0.454124
v -0.010618 0.076331 0.331546
v 0.059715 0.074039 0.374469
v 0.043178 0.078676 0.470938
v -0.037376 0.083834 0.487637
v -0.070625 0.082385 0.401488
v -0.001197 0.113798 0.411879
vn -0.4180 -0.1226 -0.9001
vn 0.4494 -0.1358 -0.8830
vn 0.9786 -0.0355 -0.2027
vn 0.7711 0.1029 0.6283
vn -0.0168 0.1750 0.9844
vn 0.0182 0.9870 -0.1598
vn -0.7919 0.1267 0.5974
vn -0.9704 -0.0057 -0.2413
vn -0.0182 -0.9870 0.1598
vn -0.1855 0.3743 0.9086
vn -0.8091 -0.1277 0.5737
vn -0.8255 -0.5295 -0.1953
vn -0.2225 -0.5285 -0.8192
vn 0.5459 -0.1255 -0.8284
vn -0.4271 0.8051 -0.4115
vn 0.9011 0.3760 -0.2158
vn 0.5756 0.5985 0.5572
vn 0.4271 -0.8051 0.4115
vn 0.5611 -0.6227 -0.5455
vn 0.8963 -0.3856 0.2190
vn 0.5589 0.1458 0.8163
vn -0.1972 0.5712 0.7968
vn -0.8025 0.5704 0.1750
vn 0.4494 0.7783 -0.4385
vn -0.8013 0.1440 -0.5807
vn -0.1944 -0.3870 -0.9014
vn -0.4494 -0.7783 0.4385
vn 0.2221 0.9552 -0.1955
vn 0.7969 0.5907 -0.1269
vn 0.9987 -0.0502 0.0011
vn 0.7333 -0.6677 0.1285
vn 0.1247 -0.9727 0.1958
vn -0.5422 -0.8226 0.1715
vn -0.9554 -0.2876 0.0669
vn 0.0089 0.1985 0.9801
vn -0.9216 0.3820 -0.0690
vn -0.4565 0.8728 -0.1726
vn -0.0089 -0.1985 -0.9801
vn -0.5366 -0.8283 0.1612
vn -0.9534 -0.2952 0.0620
vn -0.9242 0.3761 -0.0663
vn -0.4625 0.8714 -0.1635
vn 0.2156 0.9589 -0.1842
vn 0.7928 0.5978 -0.1188
vn 0.9991 -0.0431 0.0023
vn 0.0058 0.1874 0.9823
vn 0.7379 -0.6638 0.1222
vn 0.1314 -0.9739 0.1850
vn -0.0058 -0.1874 -0.9823
vn 0.1566 -0.6109 0.7761
vn -0.0028 0.2182 0.9759
vn -0.1439 0.8861 0.4405
vn -0.1604 0.8900 -0.4268
vn -0.0398 0.2269 -0.9731
vn 0.9810 0.1930 -0.0177
vn 0.1270 -0.6039 -0.7869
vn 0.2144 -0.9767 -0.0084
vn -0.9810 -0.1930 0.0177
vn 0.1565 0.7737 0.6139
vn 0.0461 0.2051 0.9777
vn -0.0858 -0.4596 0.8840
vn -0.1776 -0.9092 0.3767
vn -0.1863 -0.9333 -0.3069
vn -0.1078 -0.5208 -0.8468
vn 0.0211 0.1354 -0.9906
vn -0.9810 0.1939 0.0056
vn 0.1401 0.7283 -0.6708
vn 0.1936 0.9804 -0.0372
vn 0.9810 -0.1939 -0.0056
vn -0.3367 -0.1762 0.9250
vn -0.8525 -0.1762 0.4922
vn -0.9694 -0.1762 -0.1709
vn -0.6327 -0.1762 -0.7541
vn -0.0000 -0.1762 -0.9844
vn 0.6327 -0.1762 -0.7541
vn 0.9694 -0.1762 -0.1709
vn 0.8525 -0.1762 0.4922
vn 0.3367 -0.1762 0.9250
vn 0.3367 0.1762 -0.9250
vn 0.8525 0.1762 -0.4922
vn 0.9694 0.1762 0.1709
vn 0.6327 0.1762 0.7541
vn -0.0000 0.1762 0.9844
vn -0.6327 0.1762 0.7541
vn -0.9694 0.1762 0.1709
vn -0.8525 0.1762 -0.4922
vn -0.3367 0.1762 -0.9250
vn 0.0679 -0.9801 -0.1867
vn -0.0679 0.9801 0.1867
vn 0.1720 -0.9801 -0.0993
vn -0.1720 0.9801 0.0993
vn 0.1956 -0.9801 0.0345
vn -0.1956 0.9801 -0.0345
vn 0.1277 -0.9801 0.1522
vn -0.1277 0.9801 -0.1522
vn -0.0000 -0.9801 0.1987
vn -0.0000 0.9801 -0.1987
vn -0.1277 -0.9801 0.1522
vn 0.1277 0.9801 -0.1522
vn -0.1956 -0.9801 0.0345
vn 0.1956 0.9801 -0.0345
vn -0.1720 -0.9801 -0.0993
vn 0.1720 0.9801 0.0993
vn -0.0679 -0.9801 -0.1867
vn 0.0679 0.9801 0.1867
vn -0.3420 -0.0000 0.9397
vn -0.8660 -0.0000 0.5000
vn -0.9848 -0.0000 -0.1736
vn -0.6428 -0.0000 -0.7660
vn -0.0000 -0.0000 -1.0000
vn 0.6428 -0.0000 -0.7660
vn 0.9848 -0.0000 -0.1736
vn 0.8660 -0.0000 0.5000
vn 0.3420 -0.0000 0.9397
vn 0.3420 -0.0000 -0.9397
vn 0.8660 -0.0000 -0.5000
vn 0.9848 -0.0000 0.1736
vn 0.6428 -0.0000 0.7660
vn -0.0000 -0.0000 1.0000
vn -0.6428 -0.0000 0.7660
vn -0.9848 -0.0000 0.1736
vn -0.8660 -0.0000 -0.5000
vn -0.3420 -0.0000 -0.9397
vn -0.0000 -1.0000 -0.0000
vn -0.0000 1.0000 -0.0000
vn -0.1695 0.8012 0.5739
vn 0.7989 0.1722 0.5763
vn -0.1699 0.7961 -0.5808
vn 0.7985 0.1671 -0.5784
vn -0.7985 -0.1671 0.5784
vn 0.1699 -0.7961 0.5808
vn -0.7989 -0.1722 -0.5763
vn 0.1695 -0.8012 -0.5739
vn -0.2078 0.9782 -0.0042
vn 0.3854 0.5961 0.7043
vn 0.9782 0.2078 -0.0013
vn 0.3849 0.5899 -0.7099
vn -0.5933 0.3821 -0.7086
vn 0.5927 -0.3883 -0.7056
vn -0.3854 -0.5961 -0.7043
vn -0.9782 -0.2078 0.0013
vn 0.2078 -0.9782 0.0042
vn -0.3849 -0.5899 0.7099
vn -0.5927 0.3883 0.7056
vn 0.5933 -0.3821 0.7086
vn -0.8386 0.5447 -0.0021
vn 0.5447 0.8386 -0.0039
vn 0.0004 0.0044 1.0000
vn 0.8386 -0.5447 0.0021
vn -0.0004 -0.0044 -1.0000
vn -0.5447 -0.8386 0.0039
vn 0.7987 -0.1735 0.5762
vn -0.1742 -0.7954 0.5805
vn 0.7961 -0.1776 -0.5785
vn -0.1769 -0.7994 -0.5741
vn 0.1769 0.7994 0.5741
vn -0.7961 0.1776 0.5785
vn 0.1742 0.7954 -0.5805
vn -0.7987 0.1735 -0.5762
vn 0.9766 -0.2150 -0.0015
vn 0.3824 -0.5933 0.7083
vn -0.2150 -0.9766 0.0039
vn 0.3792 -0.5983 -0.7059
vn 0.5942 0.3783 -0.7098
vn -0.5974 -0.3833 -0.7044
vn -0.3824 0.5933 -0.7083
vn 0.2150 0.9766 -0.0039
vn -0.9766 0.2150 0.0014
vn -0.3792 0.5983 0.7059
vn 0.5974 0.3833 0.7044
vn -0.5942 -0.3783 0.7098
vn 0.8426 0.5385 -0.0038
vn 0.5385 -0.8426 0.0017
vn 0.0023 0.0035 1.0000
vn -0.8426 -0.5385 0.0038
vn -0.0023 -0.0035 -1.0000
vn -0.5385 0.8426 -0.0017
vn 0.1431 0.6426 0.7527
vn -0.0349 -0.1744 0.9841
vn -0.2028 -0.8564 0.4748
vn -0.2341 -0.8899 -0.3915
vn -0.1053 -0.2496 -0.9626
vn -0.9751 0.2201 0.0267
vn 0.0867 0.5823 -0.8084
vn 0.1972 0.9793 -0.0450
vn 0.9751 -0.2201 -0.0267
vn 0.1968 0.9798 0.0351
vn 0.1496 0.7278 0.6692
vn 0.0324 0.1353 0.9903
vn -0.1000 -0.5206 0.8480
vn -0.1856 -0.9328 0.3089
vn -0.1843 -0.9086 -0.3748
vn -0.0969 -0.4592 -0.8830
vn -0.9804 0.1968 0.0052
vn 0.0360 0.2050 -0.9781
vn 0.1519 0.7733 -0.6155
vn 0.9804 -0.1968 -0.0052
vn 0.1957 0.9801 -0.0345
vn 0.0680 0.9801 0.1867
vn -0.1693 0.7964 0.5805
vn 0.8012 0.1709 0.5734
vn -0.1757 0.7997 -0.5741
vn 0.7949 0.1741 -0.5813
vn -0.7949 -0.1741 0.5813
vn 0.1757 -0.7997 0.5741
vn -0.8012 -0.1709 -0.5734
vn 0.1693 -0.7964 -0.5805
vn -0.2113 0.9774 0.0039
vn 0.3870 0.5924 0.7067
vn 0.9774 0.2113 -0.0048
vn 0.3792 0.5963 -0.7075
vn -0.5982 0.3851 -0.7027
vn 0.5904 -0.3811 -0.7114
vn -0.3870 -0.5924 -0.7067
vn -0.9774 -0.2113 0.0048
vn 0.2113 -0.9774 -0.0039
vn -0.3792 -0.5963 0.7075
vn -0.5904 0.3811 0.7115
vn 0.5982 -0.3851 0.7027
vn -0.8405 0.5418 0.0062
vn 0.5418 0.8405 -0.0006
vn 0.0055 -0.0028 1.0000
vn 0.8405 -0.5418 -0.0062
vn -0.0055 0.0028 -1.0000
vn -0.5418 -0.8405 0.0006
vn 0.7971 -0.1674 0.5801
vn -0.1711 -0.7966 0.5798
vn 0.8002 -0.1717 -0.5746
vn -0.1680 -0.8008 -0.5749
vn 0.1680 0.8008 0.5749
vn -0.8002 0.1717 0.5746
vn 0.1711 0.7966 -0.5798
vn -0.7971 0.1674 -0.5801
vn 0.9782 -0.2076 0.0034
vn 0.3834 -0.5903 0.7103
vn -0.2077 -0.9782 0.0030
vn 0.3872 -0.5955 -0.7039
vn 0.5948 0.3827 -0.7069
vn -0.5910 -0.3879 -0.7073
vn -0.3834 0.5903 -0.7103
vn 0.2077 0.9782 -0.0030
vn -0.9782 0.2076 -0.0034
vn -0.3872 0.5955 0.7039
vn 0.5910 0.3879 0.7073
vn -0.5948 -0.3827 0.7069
vn 0.8385 0.5449 0.0003
vn 0.5448 -0.8385 0.0045
vn -0.0027 0.0036 1.0000
vn -0.8385 -0.5449 -0.0003
vn 0.0027 -0.0036 -1.0000
vn -0.5448 0.8385 -0.0045
vn 0.1697 -0.7014 0.6923
vn -0.0114 0.0910 0.9958
vn -0.1677 0.8184 0.5496
vn -0.1816 0.9332 -0.3102
vn -0.0425 0.3488 -0.9362
vn 0.9759 0.2179 0.0134
vn 0.1447 -0.4946 -0.8570
vn 0.2391 -0.9619 -0.1322
vn -0.9759 -0.2179 -0.0134
vn 0.1658 0.8626 0.4779
vn 0.0615 0.3606 0.9307
vn -0.0716 -0.3101 0.9480
vn -0.1712 -0.8358 0.5217
vn -0.1907 -0.9703 -0.1487
vn -0.1209 -0.6509 -0.7495
vn 0.0054 -0.0269 -0.9996
vn -0.9809 0.1943 -0.0105
vn 0.1292 0.6097 -0.7820
vn 0.1925 0.9610 -0.1985
vn 0.9809 -0.1943 0.0105
vn -0.1705 0.7956 0.5814
vn 0.7996 0.1692 0.5762
vn -0.1732 0.8008 -0.5733
vn 0.7969 0.1745 -0.5784
vn -0.7969 -0.1745 0.5784
vn 0.1732 -0.8008 0.5733
vn -0.7996 -0.1692 -0.5763
vn 0.1705 -0.7956 -0.5814
vn -0.2104 0.9776 0.0050
vn 0.3852 0.5908 0.7089
vn 0.9776 0.2105 -0.0013
vn 0.3819 0.5973 -0.7053
vn -0.5957 0.3868 -0.7039
vn 0.5924 -0.3803 -0.7102
vn -0.3852 -0.5908 -0.7089
vn -0.9776 -0.2105 0.0013
vn 0.2104 -0.9776 -0.0050
vn -0.3819 -0.5973 0.7053
vn -0.5924 0.3803 0.7102
vn 0.5957 -0.3868 0.7040
vn -0.8401 0.5424 0.0044
vn 0.5425 0.8401 0.0026
vn 0.0023 -0.0046 1.0000
vn 0.8401 -0.5424 -0.0044
vn -0.0023 0.0046 -1.0000
vn -0.5425 -0.8401 -0.0026
vn 0.7970 -0.1769 0.5775
vn -0.1775 -0.7963 0.5782
vn 0.7969 -0.1782 -0.5772
vn -0.1775 -0.7976 -0.5764
vn 0.1775 0.7976 0.5765
vn -0.7969 0.1782 0.5772
vn 0.1775 0.7963 -0.5782
vn -0.7970 0.1769 -0.5775
vn 0.9761 -0.2174 0.0002
vn 0.3794 -0.5960 0.7078
vn -0.2174 -0.9761 0.0011
vn 0.3793 -0.5975 -0.7064
vn 0.5967 0.3786 -0.7076
vn -0.5968 -0.3801 -0.7067
vn -0.3794 0.5960 -0.7078
vn 0.2174 0.9761 -0.0011
vn -0.9761 0.2174 -0.0002
vn -0.3793 0.5975 0.7064
vn 0.5968 0.3801 0.7067
vn -0.5967 -0.3785 0.7075
vn 0.8439 0.5365 -0.0006
vn 0.5365 -0.8439 0.0009
vn -0.0000 0.0011 1.0000
vn -0.8439 -0.5365 0.0006
vn -0.0000 -0.0011 -1.0000
vn -0.5365 0.8439 -0.0009
vn 0.5809 -0.8139 -0.0072
vn 0.2216 -0.8344 -0.5046
vn 0.2203 -0.8630 0.4547
vn -0.3733 -0.8945 0.2461
vn -0.3695 -0.8644 -0.3411
vn 0.3345 -0.1893 -0.9232
vn 0.9855 -0.1663 0.0344
vn 0.3268 -0.2493 0.9116
vn -0.7989 -0.3091 0.5160
vn -0.7702 -0.2595 -0.5826
vn 0.7989 0.3091 -0.5160
vn 0.7702 0.2595 0.5826
vn -0.3345 0.1893 0.9232
vn -0.9855 0.1663 -0.0344
vn -0.3268 0.2493 -0.9116
vn 0.3733 0.8945 -0.2461
vn 0.3695 0.8644 0.3411
vn -0.2216 0.8344 0.5046
vn -0.5809 0.8139 0.0072
vn -0.2203 0.8630 -0.4547
vn -0.3960 -0.8897 -0.2272
vn -0.2283 -0.9191 0.3212
vn 0.0637 -0.8554 -0.5140
vn 0.5248 -0.8395 -0.1407
vn 0.3413 -0.8642 0.3696
vn -0.5840 -0.3425 0.7360
vn -0.8765 -0.2937 -0.3815
vn 0.0230 -0.2168 -0.9760
vn 0.9582 -0.1845 -0.2189
vn 0.5668 -0.2438 0.7869
vn -0.9582 0.1845 0.2189
vn -0.5668 0.2438 -0.7869
vn 0.5840 0.3425 -0.7360
vn 0.8765 0.2937 0.3815
vn -0.0230 0.2168 0.9760
vn -0.5248 0.8395 0.1407
vn -0.3413 0.8642 -0.3696
vn 0.2283 0.9191 -0.3212
vn 0.3960 0.8897 0.2272
vn -0.0637 0.8554 0.5140
vn -0.1450 -0.8945 -0.4230
vn -0.5706 -0.8192 -0.0584
vn 0.4261 -0.8923 -0.1494
vn 0.3379 -0.8675 0.3650
vn -0.2916 -0.8533 0.4322
vn -0.9712 -0.1785 -0.1579
vn -0.2120 -0.2909 -0.9330
vn 0.8908 -0.3029 -0.3387
vn 0.7227 -0.2558 0.6421
vn -0.5146 -0.2061 0.8323
vn -0.7227 0.2558 -0.6421
vn 0.5146 0.2061 -0.8323
vn 0.9712 0.1785 0.1579
vn 0.2120 0.2909 0.9330
vn -0.8908 0.3029 0.3387
vn -0.3379 0.8675 -0.3650
vn 0.2916 0.8533 -0.4322
vn 0.5706 0.8192 0.0584
vn 0.1450 0.8945 0.4230
vn -0.4261 0.8923 0.1494
vn 0.5756 0.5984 0.5572
vn -0.1604 0.8900 -0.4269
vn 0.1402 0.7283 -0.6708
vn 0.3849 0.5899 -0.7098
vn 0.5385 -0.8426 0.0018
vn -0.5385 0.8426 -0.0018
vn -0.2341 -0.8899 -0.3916
vn -0.1844 -0.9086 -0.3747
vn -0.0680 0.9801 0.1867
vn -0.1721 0.9801 0.0993
vn -0.2112 0.9774 0.0039
vn 0.5904 -0.3811 -0.7115
vn -0.3870 -0.5923 -0.7067
vn 0.2112 -0.9774 -0.0039
vn -0.5905 0.3811 0.7114
vn 0.9782 -0.2077 0.0034
vn -0.2076 -0.9782 0.0030
vn -0.5910 -0.3878 -0.7073
vn 0.2076 0.9782 -0.0030
vn -0.9782 0.2077 -0.0034
vn 0.0027 -0.0037 -1.0000
vn -0.0425 0.3489 -0.9362
vn -0.2105 0.9776 0.0050
vn -0.5957 0.3868 -0.7040
vn 0.2105 -0.9776 -0.0050
vn 0.8401 -0.5424 -0.0045
vn 0.3794 -0.5959 0.7078
vn -0.3794 0.5959 -0.7078
vn -0.3793 0.5975 0.7065
vn -0.5967 -0.3785 0.7076
vt 1.000000 1.000000
vt 0.857143 0.500000
vt 1.000000 0.500000
vt 0.857143 1.000000
vt 0.714286 0.500000
vt 0.571429 1.000000
vt 0.571429 0.500000
vt 0.428571 1.000000
vt 0.428571 0.500000
vt 0.285714 1.000000
vt 0.285714 0.500000
vt 0.250000 0.490000
vt 0.016017 0.196595
vt 0.354132 0.033767
vt 0.142857 1.000000
vt 0.142857 0.500000
vt 0.000000 1.000000
vt 0.000000 0.500000
vt 0.937640 0.399638
vt 0.854132 0.033767
vt 0.516017 0.196595
vt 0.714286 1.000000
vt 0.016017 0.196595
vt 0.354132 0.033767
vt 0.937640 0.399638
vt 0.516017 0.196595
vt 0.888889 1.000000
vt 0.888889 0.500000
vt 0.777778 1.000000
vt 0.777778 0.500000
vt 0.666667 0.500000
vt 0.666667 1.000000
vt 0.555556 0.500000
vt 0.444444 1.000000
vt 0.444444 0.500000
vt 0.333333 0.500000
vt 0.333333 1.000000
vt 0.222222 0.500000
vt 0.167915 0.024474
vt 0.457846 0.130000
vt 0.111111 1.000000
vt 0.111111 0.500000
vt 0.000000 1.000000
vt 0.000000 0.500000
vt 0.904269 0.433851
vt 0.667915 0.024474
vt 0.513646 0.291676
vt 0.555556 1.000000
vt 0.016017 0.196595
vt 0.222222 1.000000
vt 0.167915 0.024474
vt 0.667915 0.024474
vt 0.185000 0.690000
vt 0.185000 0.750000
vt 0.125000 0.690000
vt 0.611833 0.940000
vt 0.625000 0.940000
vt 0.611833 1.000000
vt 0.185000 0.560000
vt 0.125000 0.560000
vt 0.185000 0.500000
vt 0.625000 0.257429
vt 0.611833 0.310000
vt 0.611833 0.190802
vt 0.315000 0.690000
vt 0.387991 0.690000
vt 0.383727 0.806359
vt 0.664826 0.730348
vt 0.611833 0.810000
vt 0.611833 0.690802
vt 0.315000 0.560000
vt 0.383727 0.443641
vt 0.387991 0.560000
vt 0.664826 0.528543
vt 0.611833 0.560000
vt 0.611833 0.440802
vt 0.611833 0.000000
vt 0.388167 0.060000
vt 0.388167 0.000000
vt 0.611833 0.060000
vt 0.625000 0.060000
vt 0.388167 0.310000
vt 0.388167 0.190000
vt 0.388167 0.940000
vt 0.815000 0.690000
vt 0.185000 0.690000
vt 0.612098 0.940000
vt 0.625000 0.940000
vt 0.612098 1.000000
vt 0.125000 0.560000
vt 0.625000 0.257429
vt 0.612098 0.310000
vt 0.612098 0.190785
vt 0.315000 0.690000
vt 0.387733 0.690000
vt 0.383571 0.806436
vt 0.612098 0.810000
vt 0.612098 0.690786
vt 0.315000 0.560000
vt 0.383571 0.443564
vt 0.387733 0.560000
vt 0.612098 0.560000
vt 0.612098 0.440785
vt 0.387902 0.000000
vt 0.612098 0.060000
vt 0.387902 0.060000
vt 0.387902 0.310000
vt 0.387902 0.190000
vt 0.387902 0.940000
vt 0.125000 0.690000
vt 0.611844 0.940000
vt 0.625000 0.940000
vt 0.611844 1.000000
vt 0.185000 0.560000
vt 0.625000 0.257429
vt 0.611844 0.310000
vt 0.611844 0.190802
vt 0.315000 0.690000
vt 0.387980 0.690000
vt 0.383720 0.806362
vt 0.664826 0.730348
vt 0.611844 0.810000
vt 0.611844 0.690802
vt 0.383720 0.443638
vt 0.387980 0.560000
vt 0.611844 0.560000
vt 0.611844 0.440802
vt 0.611844 0.000000
vt 0.388156 0.060000
vt 0.388156 0.000000
vt 0.611844 0.060000
vt 0.388156 0.310000
vt 0.388156 0.190000
vt 0.388156 0.940000
vt 0.815000 0.560000
vt 0.185000 0.750000
vt 0.125000 0.690000
vt 0.612036 0.940000
vt 0.625000 0.940000
vt 0.612036 1.000000
vt 0.185000 0.560000
vt 0.612036 0.310000
vt 0.612036 0.190789
vt 0.387794 0.690000
vt 0.383608 0.806417
vt 0.664826 0.730348
vt 0.612036 0.810000
vt 0.612036 0.690790
vt 0.315000 0.560000
vt 0.383608 0.443583
vt 0.387794 0.560000
vt 0.664826 0.528543
vt 0.612036 0.560000
vt 0.612036 0.440789
vt 0.612036 0.000000
vt 0.387964 0.060000
vt 0.387964 0.000000
vt 0.612036 0.060000
vt 0.387964 0.190000
vt 0.387964 0.940000
vt 0.387964 0.310000
vt 0.185000 0.750000
vt 0.611981 0.940000
vt 0.625000 0.940000
vt 0.611981 1.000000
vt 0.185000 0.560000
vt 0.625000 0.257429
vt 0.611981 0.310000
vt 0.611981 0.190793
vt 0.387847 0.690000
vt 0.383640 0.806401
vt 0.611981 0.810000
vt 0.611981 0.690793
vt 0.383640 0.443598
vt 0.387847 0.560000
vt 0.611981 0.560000
vt 0.611981 0.440793
vt 0.388019 0.000000
vt 0.611981 0.060000
vt 0.388019 0.060000
vt 0.388019 0.310000
vt 0.388019 0.190000
vt 0.388019 0.940000
vt 0.185000 0.690000
vt 0.185000 0.750000
vt 0.612056 0.940000
vt 0.612056 1.000000
vt 0.185000 0.560000
vt 0.612056 0.310000
vt 0.612056 0.190788
vt 0.315000 0.690000
vt 0.387774 0.690000
vt 0.383596 0.806423
vt 0.664826 0.730348
vt 0.612056 0.810000
vt 0.612056 0.690788
vt 0.315000 0.560000
vt 0.383596 0.443577
vt 0.387774 0.560000
vt 0.612056 0.560000
vt 0.612056 0.440788
vt 0.387944 0.000000
vt 0.612056 0.060000
vt 0.387944 0.060000
vt 0.625000 0.060000
vt 0.387944 0.310000
vt 0.387944 0.190000
vt 0.387944 0.940000
vt 0.815000 0.690000
vt 0.181819 0.000000
vt 0.272728 0.157461
vt 0.090910 0.157461
vt 0.363637 0.000000
vt 0.454546 0.157461
vt 0.909091 0.000000
vt 1.000000 0.157461
vt 0.818182 0.157461
vt 0.727273 0.000000
vt 0.636364 0.157461
vt 0.545455 0.000000
vt 0.363637 0.314921
vt 0.181819 0.314921
vt 0.909091 0.314921
vt 0.727273 0.314921
vt 0.545455 0.314921
vt 0.000000 0.314921
vt 0.272728 0.472382
vt 0.090910 0.472382
vt 0.818182 0.472382
vt 0.636364 0.472382
vt 0.454546 0.472382
vt 0.483983 0.196595
vt 0.437640 0.399638
vt 0.062360 0.399638
vt 0.145868 0.033767
vt 0.562360 0.399638
vt 0.750000 0.490000
vt 0.983983 0.196595
vt 0.645868 0.033767
vt 0.483983 0.196595
vt 0.062360 0.399638
vt 0.145868 0.033767
vt 0.562360 0.399638
vt 0.750000 0.490000
vt 0.983983 0.196595
vt 0.486354 0.291676
vt 0.404269 0.433851
vt 0.095731 0.433851
vt 0.013646 0.291676
vt 0.042154 0.130000
vt 0.332085 0.024474
vt 0.595731 0.433851
vt 0.986354 0.291676
vt 0.957846 0.130000
vt 0.832085 0.024474
vt 0.542154 0.130000
vt 0.095731 0.433851
vt 0.332085 0.024474
vt 0.832085 0.024474
vt 0.612098 0.000000
vt 0.611981 0.000000
vt 0.612056 0.000000
vt 0.815000 0.560000
s 0
usemtl wood
f 2/1/1 3/2/1 1/3/1
f 4/4/2 5/5/2 3/2/2
f 5/5/3 8/6/3 7/7/3
f 7/7/4 10/8/4 9/9/4
f 9/9/5 12/10/5 11/11/5
f 2/12/6 12/13/6 8/14/6
f 11/11/7 14/15/7 13/16/7
f 13/16/8 2/17/8 1/18/8
f 3/19/9 7/20/9 11/21/9
f 16/1/10 17/2/10 15/3/10
f 18/4/11 19/5/11 17/2/11
f 20/22/12 21/7/12 19/5/12
f 22/6/13 23/9/13 21/7/13
f 24/8/14 25/11/14 23/9/14
f 16/12/15 26/23/15 22/24/15
f 25/11/16 28/15/16 27/16/16
f 28/15/17 15/18/17 27/16/17
f 17/25/18 21/20/18 25/26/18
f 30/1/19 31/2/19 29/3/19
f 31/2/20 34/22/20 33/5/20
f 34/22/21 35/7/21 33/5/21
f 36/6/22 37/9/22 35/7/22
f 38/8/23 39/11/23 37/9/23
f 30/12/24 40/23/24 36/24/24
f 40/10/25 41/16/25 39/11/25
f 42/15/26 29/18/26 41/16/26
f 31/25/27 35/20/27 39/26/27
f 80/1/50 81/2/50 79/3/50
f 82/4/51 83/5/51 81/2/51
f 83/5/52 86/6/52 85/7/52
f 85/7/53 88/8/53 87/9/53
f 88/8/54 89/11/54 87/9/54
f 80/12/55 90/49/55 86/14/55
f 90/10/56 91/16/56 89/11/56
f 92/15/57 79/18/57 91/16/57
f 81/25/58 85/20/58 89/21/58
f 231/3/178 234/4/178 233/2/178
f 234/4/179 235/5/179 233/2/179
f 236/22/180 237/7/180 235/5/180
f 237/7/181 240/8/181 239/9/181
f 240/8/182 241/11/182 239/9/182
f 232/12/183 242/49/183 238/14/183
f 241/11/184 244/15/184 243/16/184
f 244/15/185 231/18/185 243/16/185
f 233/25/186 237/20/186 241/21/186
f 384/1/252 385/2/252 383/3/252
f 385/2/253 388/22/253 387/5/253
f 388/22/254 389/7/254 387/5/254
f 390/6/255 391/9/255 389/7/255
f 392/8/256 393/11/256 391/9/256
f 384/12/257 394/49/257 390/14/257
f 393/11/258 396/15/258 395/16/258
f 396/15/259 383/18/259 395/16/259
f 385/25/260 389/20/260 393/21/260
f 2/1/1 4/4/1 3/2/1
f 4/4/2 6/22/2 5/5/2
f 5/5/3 6/22/3 8/6/3
f 7/7/4 8/6/4 10/8/4
f 9/9/5 10/8/5 12/10/5
f 6/232/6 4/233/6 2/12/6
f 2/12/6 14/234/6 12/13/6
f 12/13/6 10/235/6 8/14/6
f 8/14/6 6/232/6 2/12/6
f 11/11/7 12/10/7 14/15/7
f 13/16/8 14/15/8 2/17/8
f 13/236/9 1/237/9 3/19/9
f 3/19/9 5/238/9 7/20/9
f 7/20/9 9/239/9 11/21/9
f 11/21/9 13/236/9 3/19/9
f 16/1/10 18/4/10 17/2/10
f 18/4/11 20/22/11 19/5/11
f 20/22/12 22/6/12 21/7/12
f 22/6/13 24/8/13 23/9/13
f 24/8/14 26/10/14 25/11/14
f 20/240/15 18/233/15 16/12/15
f 16/12/15 28/241/15 26/23/15
f 26/23/15 24/242/15 22/24/15
f 22/24/15 20/240/15 16/12/15
f 25/11/16 26/10/16 28/15/16
f 28/15/384 16/17/384 15/18/384
f 27/243/18 15/244/18 17/25/18
f 17/25/18 19/245/18 21/20/18
f 21/20/18 23/239/18 25/26/18
f 25/26/18 27/243/18 17/25/18
f 30/1/19 32/4/19 31/2/19
f 31/2/20 32/4/20 34/22/20
f 34/22/21 36/6/21 35/7/21
f 36/6/22 38/8/22 37/9/22
f 38/8/23 40/10/23 39/11/23
f 34/240/24 32/233/24 30/12/24
f 30/12/24 42/241/24 40/23/24
f 40/23/24 38/242/24 36/24/24
f 36/24/24 34/240/24 30/12/24
f 40/10/25 42/15/25 41/16/25
f 42/15/26 30/17/26 29/18/26
f 41/243/27 29/244/27 31/25/27
f 31/25/27 33/245/27 35/20/27
f 35/20/27 37/239/27 39/26/27
f 39/26/27 41/243/27 31/25/27
f 80/1/50 82/4/50 81/2/50
f 82/4/51 84/22/51 83/5/51
f 83/5/52 84/22/52 86/6/52
f 85/7/385 86/6/385 88/8/385
f 88/8/54 90/10/54 89/11/54
f 84/240/55 82/233/55 80/12/55
f 80/12/55 92/234/55 90/49/55
f 90/49/55 88/235/55 86/14/55
f 86/14/55 84/240/55 80/12/55
f 90/10/56 92/15/56 91/16/56
f 92/15/57 80/17/57 79/18/57
f 91/243/58 79/237/58 81/25/58
f 81/25/58 83/238/58 85/20/58
f 85/20/58 87/239/58 89/21/58
f 89/21/58 91/243/58 81/25/58
f 231/3/178 232/1/178 234/4/178
f 234/4/179 236/22/179 235/5/179
f 236/22/180 238/6/180 237/7/180
f 237/7/390 238/6/390 240/8/390
f 240/8/182 242/10/182 241/11/182
f 236/240/183 234/233/183 232/12/183
f 232/12/183 244/234/183 242/49/183
f 242/49/183 240/235/183 238/14/183
f 238/14/183 236/240/183 232/12/183
f 241/11/184 242/10/184 244/15/184
f 244/15/185 232/17/185 231/18/185
f 243/243/186 231/237/186 233/25/186
f 233/25/186 235/238/186 237/20/186
f 237/20/186 239/239/186 241/21/186
f 241/21/186 243/243/186 233/25/186
f 384/1/252 386/4/252 385/2/252
f 385/2/253 386/4/253 388/22/253
f 388/22/254 390/6/254 389/7/254
f 390/6/255 392/8/255 391/9/255
f 392/8/405 394/10/405 393/11/405
f 388/240/257 386/233/257 384/12/257
f 384/12/257 396/234/257 394/49/257
f 394/49/257 392/235/257 390/14/257
f 390/14/257 388/240/257 384/12/257
f 393/11/258 394/10/258 396/15/258
f 396/15/259 384/17/259 383/18/259
f 395/243/260 383/237/260 385/25/260
f 385/25/260 387/238/260 389/20/260
f 389/20/260 391/239/260 393/21/260
f 393/21/260 395/243/260 385/25/260
usemtl rope
f 43/3/28 46/27/28 45/28/28
f 45/28/29 48/29/29 47/30/29
f 48/29/30 49/31/30 47/30/30
f 50/32/31 51/33/31 49/31/31
f 51/33/32 54/34/32 53/35/32
f 54/34/33 55/36/33 53/35/33
f 56/37/34 57/38/34 55/36/34
f 44/12/35 54/39/35 50/40/35
f 57/38/36 60/41/36 59/42/36
f 59/42/37 44/43/37 43/44/37
f 45/45/38 53/46/38 57/47/38
f 62/1/39 63/28/39 61/3/39
f 63/28/40 66/29/40 65/30/40
f 65/30/41 68/32/41 67/31/41
f 67/31/42 70/48/42 69/33/42
f 70/48/43 71/35/43 69/33/43
f 72/34/44 73/36/44 71/35/44
f 74/37/45 75/38/45 73/36/45
f 62/12/46 72/39/46 68/40/46
f 75/38/47 78/41/47 77/42/47
f 77/42/48 62/43/48 61/44/48
f 63/45/49 71/46/49 75/47/49
f 93/3/59 96/27/59 95/28/59
f 96/27/60 97/30/60 95/28/60
f 98/29/61 99/31/61 97/30/61
f 99/31/62 102/48/62 101/33/62
f 101/33/63 104/34/63 103/35/63
f 103/35/64 106/37/64 105/36/64
f 105/36/65 108/50/65 107/38/65
f 94/12/66 104/51/66 100/40/66
f 107/38/67 110/41/67 109/42/67
f 110/41/68 93/44/68 109/42/68
f 95/45/69 103/52/69 107/47/69
f 148/1/106 149/28/106 147/3/106
f 149/28/107 152/29/107 151/30/107
f 152/29/108 153/31/108 151/30/108
f 154/32/109 155/33/109 153/31/109
f 155/33/110 158/34/110 157/35/110
f 157/35/111 160/37/111 159/36/111
f 160/37/112 161/38/112 159/36/112
f 162/50/113 163/42/113 161/38/113
f 163/42/114 148/43/114 147/44/114
f 167/28/115 166/1/115 165/3/115
f 167/28/116 170/29/116 168/27/116
f 169/30/117 172/32/117 170/29/117
f 173/33/118 172/32/118 171/31/118
f 175/35/119 174/48/119 173/33/119
f 175/35/120 178/37/120 176/34/120
f 179/38/121 178/37/121 177/36/121
f 179/38/122 182/41/122 180/50/122
f 181/42/123 166/43/123 182/41/123
f 149/28/124 165/3/124 147/3/124
f 150/27/125 166/1/125 168/27/125
f 151/30/124 167/28/124 149/28/124
f 150/27/125 170/29/125 152/29/125
f 153/31/124 169/30/124 151/30/124
f 152/29/125 172/32/125 154/32/125
f 155/33/124 171/31/124 153/31/124
f 154/32/125 174/48/125 156/48/125
f 157/35/124 173/33/124 155/33/124
f 158/34/125 174/48/125 176/34/125
f 157/35/124 177/36/124 175/35/124
f 158/34/125 178/37/125 160/37/125
f 161/38/124 177/36/124 159/36/124
f 160/37/125 180/50/125 162/50/125
f 163/42/124 179/38/124 161/38/124
f 164/41/125 180/50/125 182/41/125
f 147/44/124 181/42/124 163/42/124
f 164/41/125 166/43/125 148/43/125
f 183/53/126 184/54/126 185/55/126
f 186/56/127 187/57/127 188/58/127
f 189/59/128 190/60/128 191/61/128
f 192/62/129 193/63/129 194/64/129
f 195/65/130 196/66/130 197/67/130
f 198/68/131 199/69/131 200/70/131
f 201/71/132 202/72/132 203/73/132
f 204/74/133 205/75/133 206/76/133
f 183/53/134 190/60/134 189/59/134
f 186/77/135 185/78/135 184/79/135
f 192/62/136 188/80/136 187/81/136
f 191/82/137 194/64/137 193/63/137
f 201/71/138 191/61/138 202/72/138
f 204/74/139 193/63/139 192/62/139
f 203/73/140 206/76/140 205/75/140
f 201/71/141 196/66/141 195/65/141
f 198/68/142 205/75/142 204/74/142
f 199/69/143 196/66/143 200/70/143
f 183/53/144 197/67/144 184/54/144
f 187/57/145 199/69/145 198/68/145
f 201/71/146 183/53/146 189/59/146
f 185/78/147 194/64/147 190/83/147
f 197/67/148 186/56/148 184/84/148
f 204/74/149 187/85/149 198/68/149
f 191/82/150 206/76/150 202/72/150
f 203/73/151 200/70/151 196/66/151
f 207/86/152 208/54/152 209/55/152
f 210/87/153 211/88/153 212/89/153
f 213/59/154 214/90/154 215/61/154
f 216/91/155 217/92/155 218/93/155
f 219/94/156 220/95/156 221/96/156
f 222/68/157 223/97/157 224/98/157
f 225/99/158 226/100/158 227/101/158
f 228/74/159 229/102/159 230/103/159
f 207/86/160 214/90/160 213/59/160
f 208/104/161 212/105/161 209/106/161
f 211/81/162 218/93/162 212/105/162
f 215/107/163 218/93/163 217/92/163
f 213/59/164 226/100/164 225/99/164
f 216/91/165 230/103/165 217/92/165
f 227/101/166 230/103/166 229/102/166
f 219/94/167 227/101/167 220/95/167
f 222/68/168 229/102/168 228/74/168
f 221/96/169 224/98/169 223/97/169
f 207/86/170 221/96/170 208/54/170
f 211/88/171 223/97/171 222/68/171
f 213/59/172 219/94/172 207/86/172
f 209/106/173 218/93/173 214/108/173
f 223/97/174 208/109/174 221/96/174
f 228/74/175 211/85/175 222/68/175
f 215/107/176 230/103/176 226/100/176
f 227/101/177 224/98/177 220/95/177
f 245/3/187 248/27/187 247/28/187
f 248/27/188 249/30/188 247/28/188
f 249/30/189 252/32/189 251/31/189
f 251/31/190 254/48/190 253/33/190
f 253/33/191 256/34/191 255/35/191
f 255/35/192 258/37/192 257/36/192
f 257/36/193 260/50/193 259/38/193
f 246/12/194 256/51/194 252/40/194
f 260/50/195 261/42/195 259/38/195
f 262/41/196 245/44/196 261/42/196
f 247/45/197 255/52/197 259/47/197
f 300/1/106 301/28/106 299/3/106
f 302/27/107 303/30/107 301/28/107
f 304/29/108 305/31/108 303/30/108
f 306/32/109 307/33/109 305/31/109
f 307/33/110 310/34/110 309/35/110
f 310/34/111 311/36/111 309/35/111
f 311/36/112 314/50/112 313/38/112
f 314/50/113 315/42/113 313/38/113
f 316/41/114 299/44/114 315/42/114
f 317/3/115 320/27/115 318/1/115
f 321/30/116 320/27/116 319/28/116
f 323/31/117 322/29/117 321/30/117
f 323/31/118 326/48/118 324/32/118
f 327/35/119 326/48/119 325/33/119
f 327/35/120 330/37/120 328/34/120
f 331/38/121 330/37/121 329/36/121
f 333/42/122 332/50/122 331/38/122
f 333/42/123 318/43/123 334/41/123
f 301/28/124 317/3/124 299/3/124
f 300/1/125 320/27/125 302/27/125
f 301/28/124 321/30/124 319/28/124
f 304/29/125 320/27/125 322/29/125
f 303/30/124 323/31/124 321/30/124
f 306/32/125 322/29/125 324/32/125
f 307/33/124 323/31/124 305/31/124
f 308/48/125 324/32/125 326/48/125
f 309/35/124 325/33/124 307/33/124
f 308/48/125 328/34/125 310/34/125
f 309/35/124 329/36/124 327/35/124
f 310/34/125 330/37/125 312/37/125
f 313/38/124 329/36/124 311/36/124
f 314/50/125 330/37/125 332/50/125
f 315/42/124 331/38/124 313/38/124
f 316/41/125 332/50/125 334/41/125
f 315/42/124 317/44/124 333/42/124
f 316/41/125 318/43/125 300/43/125
f 335/86/200 336/54/200 337/110/200
f 338/111/201 339/112/201 340/113/201
f 341/114/202 342/90/202 343/61/202
f 344/115/203 345/116/203 346/117/203
f 347/118/204 348/119/204 349/120/204
f 350/121/205 351/122/205 352/123/205
f 353/71/206 354/124/206 355/125/206
f 356/74/207 357/126/207 358/127/207
f 335/86/208 342/90/208 341/114/208
f 338/128/209 337/129/209 336/130/209
f 344/115/210 340/131/210 339/81/210
f 343/132/211 346/117/211 345/116/211
f 341/114/212 354/124/212 353/71/212
f 344/115/213 358/127/213 345/116/213
f 357/126/214 354/124/214 358/127/214
f 353/71/215 348/119/215 347/118/215
f 350/121/216 357/126/216 356/74/216
f 351/122/217 348/119/217 352/123/217
f 335/86/218 349/120/218 336/54/218
f 350/121/219 338/111/219 351/122/219
f 341/114/220 347/118/220 335/86/220
f 337/129/221 346/117/221 342/133/221
f 351/122/222 336/134/222 349/120/222
f 344/135/223 350/121/223 356/74/223
f 343/132/224 358/127/224 354/124/224
f 355/125/225 352/123/225 348/119/225
f 359/86/226 360/136/226 361/137/226
f 362/138/227 363/139/227 364/140/227
f 365/141/228 366/60/228 367/61/228
f 368/115/229 369/142/229 370/143/229
f 371/65/230 372/144/230 373/145/230
f 374/146/231 375/147/231 376/148/231
f 377/149/232 378/150/232 379/151/232
f 380/152/233 381/153/233 382/154/233
f 359/86/234 366/60/234 365/141/234
f 362/155/235 361/156/235 360/157/235
f 368/115/236 364/158/236 363/81/236
f 369/142/237 366/159/237 370/143/237
f 365/141/238 378/150/238 377/149/238
f 380/152/239 369/142/239 368/115/239
f 381/153/240 378/150/240 382/154/240
f 377/149/241 372/144/241 371/65/241
f 374/146/242 381/153/242 380/152/242
f 375/147/243 372/144/243 376/148/243
f 371/65/244 360/136/244 359/86/244
f 363/139/245 375/147/245 374/146/245
f 365/141/246 371/65/246 359/86/246
f 364/158/247 366/159/247 361/156/247
f 373/145/248 362/138/248 360/160/248
f 368/135/249 374/146/249 380/152/249
f 369/142/250 378/150/250 367/161/250
f 379/151/251 376/148/251 372/144/251
f 397/3/261 400/27/261 399/28/261
f 399/28/262 402/29/262 401/30/262
f 402/29/263 403/31/263 401/30/263
f 404/32/264 405/33/264 403/31/264
f 406/48/265 407/35/265 405/33/265
f 407/35/266 410/37/266 409/36/266
f 409/36/267 412/50/267 411/38/267
f 398/12/268 408/51/268 404/40/268
f 412/50/269 413/42/269 411/38/269
f 413/42/270 398/43/270 397/44/270
f 399/45/271 407/52/271 411/47/271
f 451/3/106 454/27/106 453/28/106
f 453/28/107 456/29/107 455/30/107
f 456/29/108 457/31/108 455/30/108
f 458/32/109 459/33/109 457/31/109
f 460/48/110 461/35/110 459/33/110
f 462/34/111 463/36/111 461/35/111
f 464/37/112 465/38/112 463/36/112
f 465/38/113 468/41/113 467/42/113
f 468/41/114 451/44/114 467/42/114
f 469/3/115 472/27/115 470/1/115
f 473/30/116 472/27/116 471/28/116
f 473/30/117 476/32/117 474/29/117
f 477/33/118 476/32/118 475/31/118
f 479/35/119 478/48/119 477/33/119
f 481/36/120 480/34/120 479/35/120
f 481/36/121 484/50/121 482/37/121
f 483/38/122 486/41/122 484/50/122
f 469/44/123 486/41/123 485/42/123
f 453/28/124 469/3/124 451/3/124
f 452/1/125 472/27/125 454/27/125
f 455/30/124 471/28/124 453/28/124
f 454/27/125 474/29/125 456/29/125
f 457/31/124 473/30/124 455/30/124
f 456/29/125 476/32/125 458/32/125
f 459/33/124 475/31/124 457/31/124
f 460/48/125 476/32/125 478/48/125
f 461/35/124 477/33/124 459/33/124
f 460/48/125 480/34/125 462/34/125
f 463/36/124 479/35/124 461/35/124
f 462/34/125 482/37/125 464/37/125
f 465/38/124 481/36/124 463/36/124
f 464/37/125 484/50/125 466/50/125
f 465/38/124 485/42/124 483/38/124
f 466/50/125 486/41/125 468/41/125
f 467/42/124 469/44/124 485/42/124
f 452/43/125 486/41/125 470/43/125
f 487/86/272 488/162/272 489/110/272
f 490/163/273 491/164/273 492/165/273
f 493/166/274 494/90/274 495/61/274
f 496/167/275 497/168/275 498/169/275
f 499/65/276 500/170/276 501/171/276
f 502/146/277 503/172/277 504/173/277
f 505/99/278 506/174/278 507/175/278
f 508/152/279 509/176/279 510/177/279
f 493/166/280 489/110/280 494/90/280
f 488/178/281 492/179/281 489/180/281
f 496/167/282 492/179/282 491/81/282
f 495/181/283 498/169/283 497/168/283
f 493/166/284 506/174/284 505/99/284
f 496/167/285 510/177/285 497/168/285
f 509/176/286 506/174/286 510/177/286
f 499/65/287 507/175/287 500/170/287
f 508/152/288 504/173/288 509/176/288
f 503/172/289 500/170/289 504/173/289
f 487/86/290 501/171/290 488/162/290
f 491/164/291 503/172/291 502/146/291
f 493/166/292 499/65/292 487/86/292
f 492/179/293 494/182/293 489/180/293
f 503/172/294 488/183/294 501/171/294
f 508/152/295 491/85/295 502/146/295
f 497/168/296 506/174/296 495/181/296
f 507/175/297 504/173/297 500/170/297
f 511/184/298 512/185/298 513/110/298
f 514/186/299 515/139/299 516/187/299
f 517/188/300 518/90/300 519/61/300
f 520/91/301 521/189/301 522/190/301
f 523/191/302 524/192/302 525/193/302
f 526/194/303 527/195/303 528/196/303
f 529/197/304 530/198/304 531/199/304
f 532/74/305 533/200/305 534/201/305
f 511/184/306 518/90/306 517/188/306
f 512/202/307 516/203/307 513/204/307
f 515/205/308 522/190/308 516/203/308
f 519/206/309 522/190/309 521/189/309
f 529/197/310 519/61/310 530/198/310
f 520/91/311 534/201/311 521/189/311
f 531/199/312 534/201/312 533/200/312
f 529/197/313 524/192/313 523/191/313
f 526/194/314 533/200/314 532/74/314
f 525/193/315 528/196/315 527/195/315
f 511/184/316 525/193/316 512/185/316
f 526/194/317 514/186/317 527/195/317
f 517/188/318 523/191/318 511/184/318
f 516/203/319 518/207/319 513/204/319
f 527/195/320 512/208/320 525/193/320
f 532/74/321 515/209/321 526/194/321
f 519/206/322 534/201/322 530/198/322
f 531/199/323 528/196/323 524/192/323
f 43/3/28 44/1/28 46/27/28
f 45/28/29 46/27/29 48/29/29
f 48/29/30 50/32/30 49/31/30
f 50/32/31 52/48/31 51/33/31
f 51/33/32 52/48/32 54/34/32
f 54/34/33 56/37/33 55/36/33
f 56/37/34 58/50/34 57/38/34
f 48/246/35 46/247/35 44/12/35
f 44/12/35 60/248/35 58/249/35
f 58/249/35 56/250/35 54/39/35
f 54/39/35 52/251/35 50/40/35
f 50/40/35 48/246/35 44/12/35
f 44/12/35 58/249/35 54/39/35
f 57/38/36 58/50/36 60/41/36
f 59/42/37 60/41/37 44/43/37
f 59/252/38 43/237/38 45/45/38
f 45/45/38 47/253/38 49/254/38
f 49/254/38 51/255/38 53/46/38
f 53/46/38 55/256/38 57/47/38
f 57/47/38 59/252/38 45/45/38
f 45/45/38 49/254/38 53/46/38
f 62/1/39 64/27/39 63/28/39
f 63/28/40 64/27/40 66/29/40
f 65/30/41 66/29/41 68/32/41
f 67/31/42 68/32/42 70/48/42
f 70/48/43 72/34/43 71/35/43
f 72/34/44 74/37/44 73/36/44
f 74/37/45 76/50/45 75/38/45
f 66/246/46 64/247/46 62/12/46
f 62/12/46 78/248/46 76/249/46
f 76/249/46 74/250/46 72/39/46
f 72/39/46 70/251/46 68/40/46
f 68/40/46 66/246/46 62/12/46
f 62/12/46 76/249/46 72/39/46
f 75/38/47 76/50/47 78/41/47
f 77/42/48 78/41/48 62/43/48
f 77/252/49 61/237/49 63/45/49
f 63/45/49 65/253/49 67/254/49
f 67/254/49 69/255/49 71/46/49
f 71/46/49 73/256/49 75/47/49
f 75/47/49 77/252/49 63/45/49
f 63/45/49 67/254/49 71/46/49
f 93/3/59 94/1/59 96/27/59
f 96/27/60 98/29/60 97/30/60
f 98/29/61 100/32/61 99/31/61
f 99/31/62 100/32/62 102/48/62
f 101/33/63 102/48/63 104/34/63
f 103/35/64 104/34/64 106/37/64
f 105/36/65 106/37/65 108/50/65
f 98/246/66 96/247/66 94/12/66
f 94/12/66 110/257/66 108/249/66
f 108/249/66 106/250/66 104/51/66
f 104/51/66 102/258/66 100/40/66
f 100/40/66 98/246/66 94/12/66
f 94/12/66 108/249/66 104/51/66
f 107/38/386 108/50/386 110/41/386
f 110/41/68 94/43/68 93/44/68
f 109/252/69 93/237/69 95/45/69
f 95/45/69 97/253/69 99/254/69
f 99/254/69 101/259/69 103/52/69
f 103/52/69 105/256/69 107/47/69
f 107/47/69 109/252/69 95/45/69
f 95/45/69 99/254/69 103/52/69
f 148/1/106 150/27/106 149/28/106
f 149/28/107 150/27/107 152/29/107
f 152/29/108 154/32/108 153/31/108
f 154/32/109 156/48/109 155/33/109
f 155/33/110 156/48/110 158/34/110
f 157/35/111 158/34/111 160/37/111
f 160/37/112 162/50/112 161/38/112
f 162/50/113 164/41/113 163/42/113
f 163/42/114 164/41/114 148/43/114
f 167/28/115 168/27/115 166/1/115
f 167/28/116 169/30/116 170/29/116
f 169/30/117 171/31/117 172/32/117
f 173/33/118 174/48/118 172/32/118
f 175/35/119 176/34/119 174/48/119
f 175/35/120 177/36/120 178/37/120
f 179/38/121 180/50/121 178/37/121
f 179/38/122 181/42/122 182/41/122
f 181/42/123 165/44/123 166/43/123
f 149/28/124 167/28/124 165/3/124
f 150/27/125 148/1/125 166/1/125
f 151/30/124 169/30/124 167/28/124
f 150/27/125 168/27/125 170/29/125
f 153/31/124 171/31/124 169/30/124
f 152/29/125 170/29/125 172/32/125
f 155/33/124 173/33/124 171/31/124
f 154/32/125 172/32/125 174/48/125
f 157/35/124 175/35/124 173/33/124
f 158/34/125 156/48/125 174/48/125
f 157/35/124 159/36/124 177/36/124
f 158/34/125 176/34/125 178/37/125
f 161/38/124 179/38/124 177/36/124
f 160/37/125 178/37/125 180/50/125
f 163/42/124 181/42/124 179/38/124
f 164/41/125 162/50/125 180/50/125
f 147/44/124 165/44/124 181/42/124
f 164/41/125 182/41/125 166/43/125
f 183/53/134 185/55/134 190/60/134
f 186/77/135 188/80/135 185/78/135
f 192/62/136 194/64/136 188/80/136
f 191/82/387 190/83/387 194/64/387
f 201/71/138 189/59/138 191/61/138
f 204/74/139 206/76/139 193/63/139
f 203/73/140 202/72/140 206/76/140
f 201/71/141 203/73/141 196/66/141
f 198/68/142 200/70/142 205/75/142
f 199/69/143 197/67/143 196/66/143
f 183/53/144 195/65/144 197/67/144
f 187/57/145 186/56/145 199/69/145
f 201/71/146 195/65/146 183/53/146
f 185/78/147 188/80/147 194/64/147
f 197/67/148 199/69/148 186/56/148
f 204/74/149 192/135/149 187/85/149
f 191/82/150 193/63/150 206/76/150
f 203/73/151 205/75/151 200/70/151
f 207/86/160 209/55/160 214/90/160
f 208/104/161 210/260/161 212/105/161
f 211/81/162 216/91/162 218/93/162
f 215/107/163 214/108/163 218/93/163
f 213/59/164 215/61/164 226/100/164
f 216/91/165 228/74/165 230/103/165
f 227/101/166 226/100/166 230/103/166
f 219/94/167 225/99/167 227/101/167
f 222/68/168 224/98/168 229/102/168
f 221/96/169 220/95/169 224/98/169
f 207/86/170 219/94/170 221/96/170
f 211/88/171 210/87/171 223/97/171
f 213/59/172 225/99/172 219/94/172
f 209/106/388 212/105/388 218/93/388
f 223/97/174 210/87/174 208/109/174
f 228/74/175 216/135/175 211/85/175
f 215/107/176 217/92/176 230/103/176
f 227/101/389 229/102/389 224/98/389
f 245/3/187 246/1/187 248/27/187
f 248/27/188 250/29/188 249/30/188
f 249/30/189 250/29/189 252/32/189
f 251/31/190 252/32/190 254/48/190
f 253/33/191 254/48/191 256/34/191
f 255/35/391 256/34/391 258/37/391
f 257/36/193 258/37/193 260/50/193
f 250/246/194 248/247/194 246/12/194
f 246/12/194 262/257/194 260/249/194
f 260/249/194 258/250/194 256/51/194
f 256/51/194 254/258/194 252/40/194
f 252/40/194 250/246/194 246/12/194
f 246/12/194 260/249/194 256/51/194
f 260/50/195 262/41/195 261/42/195
f 262/41/196 246/43/196 245/44/196
f 261/252/197 245/237/197 247/45/197
f 247/45/197 249/253/197 251/254/197
f 251/254/197 253/259/197 255/52/197
f 255/52/197 257/256/197 259/47/197
f 259/47/197 261/252/197 247/45/197
f 247/45/197 251/254/197 255/52/197
f 300/1/106 302/27/106 301/28/106
f 302/27/107 304/29/107 303/30/107
f 304/29/108 306/32/108 305/31/108
f 306/32/109 308/48/109 307/33/109
f 307/33/110 308/48/110 310/34/110
f 310/34/111 312/37/111 311/36/111
f 311/36/112 312/37/112 314/50/112
f 314/50/113 316/41/113 315/42/113
f 316/41/114 300/43/114 299/44/114
f 317/3/115 319/28/115 320/27/115
f 321/30/116 322/29/116 320/27/116
f 323/31/117 324/32/117 322/29/117
f 323/31/118 325/33/118 326/48/118
f 327/35/119 328/34/119 326/48/119
f 327/35/120 329/36/120 330/37/120
f 331/38/121 332/50/121 330/37/121
f 333/42/122 334/41/122 332/50/122
f 333/42/123 317/44/123 318/43/123
f 301/28/124 319/28/124 317/3/124
f 300/1/125 318/1/125 320/27/125
f 301/28/124 303/30/124 321/30/124
f 304/29/125 302/27/125 320/27/125
f 303/30/124 305/31/124 323/31/124
f 306/32/125 304/29/125 322/29/125
f 307/33/124 325/33/124 323/31/124
f 308/48/125 306/32/125 324/32/125
f 309/35/124 327/35/124 325/33/124
f 308/48/125 326/48/125 328/34/125
f 309/35/124 311/36/124 329/36/124
f 310/34/125 328/34/125 330/37/125
f 313/38/124 331/38/124 329/36/124
f 314/50/125 312/37/125 330/37/125
f 315/42/124 333/42/124 331/38/124
f 316/41/125 314/50/125 332/50/125
f 315/42/124 299/44/124 317/44/124
f 316/41/125 334/41/125 318/43/125
f 335/86/394 337/110/394 342/90/394
f 338/128/209 340/131/209 337/129/209
f 344/115/210 346/117/210 340/131/210
f 343/132/211 342/133/211 346/117/211
f 341/114/212 343/61/212 354/124/212
f 344/115/395 356/74/395 358/127/395
f 357/126/396 355/125/396 354/124/396
f 353/71/215 355/125/215 348/119/215
f 350/121/397 352/123/397 357/126/397
f 351/122/217 349/120/217 348/119/217
f 335/86/398 347/118/398 349/120/398
f 350/121/219 339/112/219 338/111/219
f 341/114/220 353/71/220 347/118/220
f 337/129/221 340/131/221 346/117/221
f 351/122/222 338/111/222 336/134/222
f 344/135/223 339/85/223 350/121/223
f 343/132/224 345/116/224 358/127/224
f 355/125/225 357/126/225 352/123/225
f 359/86/399 361/137/399 366/60/399
f 362/155/235 364/158/235 361/156/235
f 368/115/400 370/143/400 364/158/400
f 369/142/237 367/161/237 366/159/237
f 365/141/238 367/61/238 378/150/238
f 380/152/401 382/154/401 369/142/401
f 381/153/240 379/151/240 378/150/240
f 377/149/402 379/151/402 372/144/402
f 374/146/403 376/148/403 381/153/403
f 375/147/243 373/145/243 372/144/243
f 371/65/244 373/145/244 360/136/244
f 363/139/245 362/138/245 375/147/245
f 365/141/246 377/149/246 371/65/246
f 364/158/247 370/143/247 366/159/247
f 373/145/248 375/147/248 362/138/248
f 368/135/249 363/85/249 374/146/249
f 369/142/404 382/154/404 378/150/404
f 379/151/251 381/153/251 376/148/251
f 397/3/261 398/1/261 400/27/261
f 399/28/262 400/27/262 402/29/262
f 402/29/263 404/32/263 403/31/263
f 404/32/264 406/48/264 405/33/264
f 406/48/265 408/34/265 407/35/265
f 407/35/266 408/34/266 410/37/266
f 409/36/267 410/37/267 412/50/267
f 402/246/268 400/247/268 398/12/268
f 398/12/268 414/257/268 412/249/268
f 412/249/268 410/250/268 408/51/268
f 408/51/268 406/258/268 404/40/268
f 404/40/268 402/246/268 398/12/268
f 398/12/268 412/249/268 408/51/268
f 412/50/269 414/41/269 413/42/269
f 413/42/270 414/41/270 398/43/270
f 413/252/271 397/237/271 399/45/271
f 399/45/271 401/253/271 403/254/271
f 403/254/271 405/259/271 407/52/271
f 407/52/271 409/256/271 411/47/271
f 411/47/271 413/252/271 399/45/271
f 399/45/271 403/254/271 407/52/271
f 451/3/106 452/1/106 454/27/106
f 453/28/107 454/27/107 456/29/107
f 456/29/108 458/32/108 457/31/108
f 458/32/109 460/48/109 459/33/109
f 460/48/110 462/34/110 461/35/110
f 462/34/111 464/37/111 463/36/111
f 464/37/112 466/50/112 465/38/112
f 465/38/113 466/50/113 468/41/113
f 468/41/114 452/43/114 451/44/114
f 469/3/115 471/28/115 472/27/115
f 473/30/116 474/29/116 472/27/116
f 473/30/117 475/31/117 476/32/117
f 477/33/118 478/48/118 476/32/118
f 479/35/119 480/34/119 478/48/119
f 481/36/120 482/37/120 480/34/120
f 481/36/121 483/38/121 484/50/121
f 483/38/122 485/42/122 486/41/122
f 469/44/123 470/43/123 486/41/123
f 453/28/124 471/28/124 469/3/124
f 452/1/125 470/1/125 472/27/125
f 455/30/124 473/30/124 471/28/124
f 454/27/125 472/27/125 474/29/125
f 457/31/124 475/31/124 473/30/124
f 456/29/125 474/29/125 476/32/125
f 459/33/124 477/33/124 475/31/124
f 460/48/125 458/32/125 476/32/125
f 461/35/124 479/35/124 477/33/124
f 460/48/125 478/48/125 480/34/125
f 463/36/124 481/36/124 479/35/124
f 462/34/125 480/34/125 482/37/125
f 465/38/124 483/38/124 481/36/124
f 464/37/125 482/37/125 484/50/125
f 465/38/124 467/42/124 485/42/124
f 466/50/125 484/50/125 486/41/125
f 467/42/124 451/44/124 469/44/124
f 452/43/125 468/41/125 486/41/125
f 493/166/406 487/86/406 489/110/406
f 488/178/281 490/261/281 492/179/281
f 496/167/282 498/169/282 492/179/282
f 495/181/283 494/182/283 498/169/283
f 493/166/407 495/61/407 506/174/407
f 496/167/285 508/152/285 510/177/285
f 509/176/286 507/175/286 506/174/286
f 499/65/287 505/99/287 507/175/287
f 508/152/408 502/146/408 504/173/408
f 503/172/289 501/171/289 500/170/289
f 487/86/290 499/65/290 501/171/290
f 491/164/291 490/163/291 503/172/291
f 493/166/292 505/99/292 499/65/292
f 492/179/293 498/169/293 494/182/293
f 503/172/294 490/163/294 488/183/294
f 508/152/409 496/135/409 491/85/409
f 497/168/296 510/177/296 506/174/296
f 507/175/297 509/176/297 504/173/297
f 511/184/306 513/110/306 518/90/306
f 512/202/410 514/262/410 516/203/410
f 515/205/308 520/91/308 522/190/308
f 519/206/309 518/207/309 522/190/309
f 529/197/310 517/188/310 519/61/310
f 520/91/311 532/74/311 534/201/311
f 531/199/411 530/198/411 534/201/411
f 529/197/313 531/199/313 524/192/313
f 526/194/314 528/196/314 533/200/314
f 525/193/412 524/192/412 528/196/412
f 511/184/316 523/191/316 525/193/316
f 526/194/413 515/139/413 514/186/413
f 517/188/318 529/197/318 523/191/318
f 516/203/319 522/190/319 518/207/319
f 527/195/320 514/186/320 512/208/320
f 532/74/321 520/263/321 515/209/321
f 519/206/322 521/189/322 534/201/322
f 531/199/323 533/200/323 528/196/323
usemtl bark
f 112/1/70 113/28/70 111/3/70
f 114/27/71 115/30/71 113/28/71
f 115/30/72 118/32/72 117/31/72
f 118/32/73 119/33/73 117/31/73
f 120/48/74 121/35/74 119/33/74
f 122/34/75 123/36/75 121/35/75
f 123/36/76 126/50/76 125/38/76
f 126/50/77 127/42/77 125/38/77
f 128/41/78 111/44/78 127/42/78
f 131/28/79 130/1/79 129/3/79
f 133/30/80 132/27/80 131/28/80
f 135/31/81 134/29/81 133/30/81
f 137/33/82 136/32/82 135/31/82
f 137/33/83 140/34/83 138/48/83
f 141/36/84 140/34/84 139/35/84
f 143/38/85 142/37/85 141/36/85
f 145/42/86 144/50/86 143/38/86
f 129/44/87 146/41/87 145/42/87
f 113/28/88 129/3/88 111/3/88
f 114/27/89 130/1/89 132/27/89
f 115/30/90 131/28/90 113/28/90
f 114/27/91 134/29/91 116/29/91
f 115/30/92 135/31/92 133/30/92
f 116/29/93 136/32/93 118/32/93
f 119/33/94 135/31/94 117/31/94
f 118/32/95 138/48/95 120/48/95
f 121/35/96 137/33/96 119/33/96
f 120/48/97 140/34/97 122/34/97
f 123/36/98 139/35/98 121/35/98
f 122/34/99 142/37/99 124/37/99
f 123/36/100 143/38/100 141/36/100
f 124/37/101 144/50/101 126/50/101
f 127/42/102 143/38/102 125/38/102
f 128/41/103 144/50/103 146/41/103
f 111/44/104 145/42/104 127/42/104
f 128/41/105 130/43/105 112/43/105
f 264/1/70 265/28/70 263/3/70
f 266/27/71 267/30/71 265/28/71
f 267/30/72 270/32/72 269/31/72
f 270/32/73 271/33/73 269/31/73
f 272/48/74 273/35/74 271/33/74
f 274/34/75 275/36/75 273/35/75
f 275/36/76 278/50/76 277/38/76
f 278/50/77 279/42/77 277/38/77
f 279/42/78 264/43/78 263/44/78
f 283/28/79 282/1/79 281/3/79
f 285/30/80 284/27/80 283/28/80
f 287/31/81 286/29/81 285/30/81
f 289/33/82 288/32/82 287/31/82
f 291/35/83 290/48/83 289/33/83
f 293/36/84 292/34/84 291/35/84
f 295/38/85 294/37/85 293/36/85
f 297/42/86 296/50/86 295/38/86
f 281/44/87 298/41/87 297/42/87
f 265/28/88 281/3/88 263/3/88
f 264/1/89 284/27/89 266/27/89
f 267/30/90 283/28/90 265/28/90
f 266/27/91 286/29/91 268/29/91
f 267/30/92 287/31/92 285/30/92
f 268/29/93 288/32/93 270/32/93
f 271/33/94 287/31/94 269/31/94
f 272/48/95 288/32/95 290/48/95
f 271/33/96 291/35/96 289/33/96
f 272/48/97 292/34/97 274/34/97
f 275/36/98 291/35/98 273/35/98
f 276/37/99 292/34/99 294/37/99
f 277/38/100 293/36/100 275/36/100
f 278/50/198 294/37/198 296/50/198
f 277/38/102 297/42/102 295/38/102
f 280/41/103 296/50/103 298/41/103
f 263/44/104 297/42/104 279/42/104
f 264/43/199 298/41/199 282/43/199
f 416/1/70 417/28/70 415/3/70
f 417/28/71 420/29/71 419/30/71
f 420/29/72 421/31/72 419/30/72
f 422/32/73 423/33/73 421/31/73
f 424/48/74 425/35/74 423/33/74
f 426/34/75 427/36/75 425/35/75
f 428/37/76 429/38/76 427/36/76
f 430/50/77 431/42/77 429/38/77
f 432/41/78 415/44/78 431/42/78
f 435/28/79 434/1/79 433/3/79
f 437/30/80 436/27/80 435/28/80
f 439/31/81 438/29/81 437/30/81
f 441/33/82 440/32/82 439/31/82
f 443/35/83 442/48/83 441/33/83
f 445/36/84 444/34/84 443/35/84
f 447/38/85 446/37/85 445/36/85
f 447/38/86 450/41/86 448/50/86
f 433/44/87 450/41/87 449/42/87
f 415/3/88 435/28/88 433/3/88
f 418/27/89 434/1/89 436/27/89
f 417/28/90 437/30/90 435/28/90
f 418/27/91 438/29/91 420/29/91
f 421/31/92 437/30/92 419/30/92
f 420/29/93 440/32/93 422/32/93
f 423/33/94 439/31/94 421/31/94
f 424/48/95 440/32/95 442/48/95
f 423/33/96 443/35/96 441/33/96
f 426/34/97 442/48/97 444/34/97
f 425/35/98 445/36/98 443/35/98
f 428/37/99 444/34/99 446/37/99
f 429/38/100 445/36/100 427/36/100
f 428/37/101 448/50/101 430/50/101
f 431/42/102 447/38/102 429/38/102
f 430/50/103 450/41/103 432/41/103
f 415/44/104 449/42/104 431/42/104
f 432/41/105 434/43/105 416/43/105
f 112/1/70 114/27/70 113/28/70
f 114/27/71 116/29/71 115/30/71
f 115/30/72 116/29/72 118/32/72
f 118/32/73 120/48/73 119/33/73
f 120/48/74 122/34/74 121/35/74
f 122/34/75 124/37/75 123/36/75
f 123/36/76 124/37/76 126/50/76
f 126/50/77 128/41/77 127/42/77
f 128/41/78 112/43/78 111/44/78
f 131/28/79 132/27/79 130/1/79
f 133/30/80 134/29/80 132/27/80
f 135/31/81 136/32/81 134/29/81
f 137/33/82 138/48/82 136/32/82
f 137/33/83 139/35/83 140/34/83
f 141/36/84 142/37/84 140/34/84
f 143/38/85 144/50/85 142/37/85
f 145/42/86 146/41/86 144/50/86
f 129/44/87 130/43/87 146/41/87
f 113/28/88 131/28/88 129/3/88
f 114/27/89 112/1/89 130/1/89
f 115/30/90 133/30/90 131/28/90
f 114/27/91 132/27/91 134/29/91
f 115/30/92 117/31/92 135/31/92
f 116/29/93 134/29/93 136/32/93
f 119/33/94 137/33/94 135/31/94
f 118/32/95 136/32/95 138/48/95
f 121/35/96 139/35/96 137/33/96
f 120/48/97 138/48/97 140/34/97
f 123/36/98 141/36/98 139/35/98
f 122/34/99 140/34/99 142/37/99
f 123/36/100 125/38/100 143/38/100
f 124/37/101 142/37/101 144/50/101
f 127/42/102 145/42/102 143/38/102
f 128/41/103 126/50/103 144/50/103
f 111/44/104 129/44/104 145/42/104
f 128/41/105 146/41/105 130/43/105
f 264/1/70 266/27/70 265/28/70
f 266/27/71 268/29/71 267/30/71
f 267/30/72 268/29/72 270/32/72
f 270/32/73 272/48/73 271/33/73
f 272/48/74 274/34/74 273/35/74
f 274/34/75 276/37/75 275/36/75
f 275/36/76 276/37/76 278/50/76
f 278/50/77 280/41/77 279/42/77
f 279/42/78 280/41/78 264/43/78
f 283/28/79 284/27/79 282/1/79
f 285/30/80 286/29/80 284/27/80
f 287/31/81 288/32/81 286/29/81
f 289/33/82 290/48/82 288/32/82
f 291/35/83 292/34/83 290/48/83
f 293/36/84 294/37/84 292/34/84
f 295/38/85 296/50/85 294/37/85
f 297/42/86 298/41/86 296/50/86
f 281/44/87 282/43/87 298/41/87
f 265/28/88 283/28/88 281/3/88
f 264/1/392 282/1/392 284/27/392
f 267/30/90 285/30/90 283/28/90
f 266/27/393 284/27/393 286/29/393
f 267/30/92 269/31/92 287/31/92
f 268/29/93 286/29/93 288/32/93
f 271/33/94 289/33/94 287/31/94
f 272/48/95 270/32/95 288/32/95
f 271/33/96 273/35/96 291/35/96
f 272/48/97 290/48/97 292/34/97
f 275/36/98 293/36/98 291/35/98
f 276/37/99 274/34/99 292/34/99
f 277/38/100 295/38/100 293/36/100
f 278/50/101 276/37/101 294/37/101
f 277/38/102 279/42/102 297/42/102
f 280/41/103 278/50/103 296/50/103
f 263/44/104 281/44/104 297/42/104
f 264/43/105 280/41/105 298/41/105
f 416/1/70 418/27/70 417/28/70
f 417/28/71 418/27/71 420/29/71
f 420/29/72 422/32/72 421/31/72
f 422/32/73 424/48/73 423/33/73
f 424/48/74 426/34/74 425/35/74
f 426/34/75 428/37/75 427/36/75
f 428/37/76 430/50/76 429/38/76
f 430/50/77 432/41/77 431/42/77
f 432/41/78 416/43/78 415/44/78
f 435/28/79 436/27/79 434/1/79
f 437/30/80 438/29/80 436/27/80
f 439/31/81 440/32/81 438/29/81
f 441/33/82 442/48/82 440/32/82
f 443/35/83 444/34/83 442/48/83
f 445/36/84 446/37/84 444/34/84
f 447/38/85 448/50/85 446/37/85
f 447/38/86 449/42/86 450/41/86
f 433/44/87 434/43/87 450/41/87
f 415/3/88 417/28/88 435/28/88
f 418/27/89 416/1/89 434/1/89
f 417/28/90 419/30/90 437/30/90
f 418/27/91 436/27/91 438/29/91
f 421/31/92 439/31/92 437/30/92
f 420/29/93 438/29/93 440/32/93
f 423/33/94 441/33/94 439/31/94
f 424/48/95 422/32/95 440/32/95
f 423/33/96 425/35/96 443/35/96
f 426/34/97 424/48/97 442/48/97
f 425/35/98 427/36/98 445/36/98
f 428/37/99 426/34/99 444/34/99
f 429/38/100 447/38/100 445/36/100
f 428/37/101 446/37/101 448/50/101
f 431/42/102 449/42/102 447/38/102
f 430/50/103 448/50/103 450/41/103
f 415/44/104 433/44/104 449/42/104
f 432/41/105 450/41/105 434/43/105
usemtl stone
f 535/210/324 536/211/324 537/212/324
f 536/211/325 535/213/325 540/214/325
f 535/215/326 537/216/326 538/217/326
f 535/218/327 538/217/327 539/219/327
f 535/220/328 539/219/328 540/214/328
f 536/211/329 540/214/329 545/221/329
f 537/212/330 536/211/330 541/222/330
f 538/217/331 537/216/331 542/223/331
f 539/219/332 538/217/332 543/224/332
f 540/214/333 539/219/333 544/225/333
f 536/211/334 545/221/334 541/222/334
f 537/212/335 541/222/335 542/226/335
f 538/217/336 542/223/336 543/224/336
f 539/219/337 543/224/337 544/225/337
f 540/214/338 544/225/338 545/221/338
f 541/222/339 545/221/339 546/227/339
f 542/226/340 541/222/340 546/228/340
f 543/224/341 542/223/341 546/229/341
f 544/225/342 543/224/342 546/230/342
f 545/221/343 544/225/343 546/231/343
f 547/210/344 548/211/344 549/212/344
f 548/211/345 547/213/345 552/214/345
f 547/215/346 549/216/346 550/217/346
f 547/218/347 550/217/347 551/219/347
f 547/220/348 551/219/348 552/214/348
f 548/211/349 552/214/349 557/221/349
f 549/212/350 548/211/350 553/222/350
f 550/217/351 549/216/351 554/223/351
f 551/219/352 550/217/352 555/224/352
f 552/214/353 551/219/353 556/225/353
f 548/211/354 557/221/354 553/222/354
f 549/212/355 553/222/355 554/226/355
f 550/217/356 554/223/356 555/224/356
f 551/219/357 555/224/357 556/225/357
f 552/214/358 556/225/358 557/221/358
f 553/222/359 557/221/359 558/227/359
f 554/226/360 553/222/360 558/228/360
f 555/224/361 554/223/361 558/229/361
f 556/225/362 555/224/362 558/230/362
f 557/221/363 556/225/363 558/231/363
f 559/210/364 560/211/364 561/212/364
f 560/211/365 559/213/365 564/214/365
f 559/215/366 561/216/366 562/217/366
f 559/218/367 562/217/367 563/219/367
f 559/220/368 563/219/368 564/214/368
f 560/211/369 564/214/369 569/221/369
f 561/212/370 560/211/370 565/222/370
f 562/217/371 561/216/371 566/223/371
f 563/219/372 562/217/372 567/224/372
f 564/214/373 563/219/373 568/225/373
f 560/211/374 569/221/374 565/222/374
f 561/212/375 565/222/375 566/226/375
f 562/217/376 566/223/376 567/224/376
f 563/219/377 567/224/377 568/225/377
f 564/214/378 568/225/378 569/221/378
f 565/222/379 569/221/379 570/227/379
f 566/226/380 565/222/380 570/228/380
f 567/224/381 566/223/381 570/229/381
f 568/225/382 567/224/382 570/230/382
f 569/221/383 568/225/383 570/231/383
