# Blender 4.5.10 LTS
# www.blender.org
mtllib stow_label_board.mtl
o stow_label_board
v 0.104857 0.495248 0.189168
v 0.098575 0.501719 0.190884
v 0.105542 0.501297 0.182297
v 0.100480 0.497276 0.190559
v 0.101740 0.497974 0.186505
v 0.100964 0.501554 0.185700
v 0.105406 0.496978 0.184487
v 0.115815 0.654919 0.190216
v 0.115659 0.648716 0.183265
v 0.108693 0.649137 0.191852
v 0.116118 0.653060 0.185511
v 0.112343 0.652467 0.187520
v 0.111081 0.648972 0.186668
v 0.111192 0.653358 0.191584
v 0.113627 0.494779 0.185038
v 0.108438 0.501143 0.180933
v 0.119489 0.500600 0.181035
v 0.109831 0.496741 0.182403
v 0.113791 0.497330 0.180830
v 0.113976 0.500858 0.179573
v 0.117645 0.496358 0.182475
v 0.121449 0.654617 0.187563
v 0.126711 0.648173 0.183366
v 0.115659 0.648716 0.183265
v 0.125291 0.652604 0.184944
v 0.121359 0.651984 0.183273
v 0.121197 0.648431 0.181904
v 0.117477 0.652987 0.184872
v 0.122324 0.494391 0.189329
v 0.122361 0.500472 0.182452
v 0.129176 0.500217 0.191166
v 0.122033 0.496162 0.184640
v 0.125741 0.496796 0.186726
v 0.126878 0.500282 0.185939
v 0.126852 0.495982 0.190802
v 0.127035 0.654368 0.190320
v 0.133526 0.647918 0.192080
v 0.126711 0.648173 0.183366
v 0.131458 0.652364 0.191770
v 0.130300 0.651585 0.187685
v 0.131229 0.647983 0.186854
v 0.126639 0.652544 0.185608
v 0.124398 0.494376 0.198810
v 0.129861 0.500212 0.194297
v 0.127308 0.500437 0.205061
v 0.127899 0.495975 0.195585
v 0.128592 0.496776 0.199755
v 0.129956 0.500261 0.200006
v 0.126093 0.496134 0.203197
v 0.128368 0.654359 0.196410
v 0.130973 0.648143 0.202845
v 0.133526 0.647918 0.192080
v 0.129974 0.652520 0.200851
v 0.132433 0.651570 0.197432
v 0.133621 0.647967 0.197790
v 0.131779 0.652361 0.193239
v 0.118288 0.494746 0.206342
v 0.125290 0.500560 0.207548
v 0.115291 0.501095 0.212257
v 0.123010 0.496320 0.206997
v 0.120196 0.497285 0.210104
v 0.120891 0.500809 0.211180
v 0.115940 0.496698 0.210327
v 0.124443 0.654596 0.201248
v 0.120973 0.648678 0.207554
v 0.130973 0.648143 0.202845
v 0.121956 0.652956 0.205348
v 0.126151 0.651951 0.205176
v 0.126574 0.648393 0.206477
v 0.129027 0.652578 0.202018
v 0.108595 0.495222 0.206253
v 0.112090 0.501252 0.212228
v 0.102175 0.501694 0.207335
v 0.111049 0.496939 0.210282
v 0.106876 0.497939 0.209982
v 0.106510 0.501515 0.211048
v 0.104038 0.497251 0.206822
v 0.118216 0.654902 0.201191
v 0.111058 0.649121 0.202662
v 0.120973 0.648678 0.207554
v 0.113443 0.653343 0.201874
v 0.116186 0.652440 0.205084
v 0.115393 0.648942 0.206374
v 0.120455 0.653030 0.205334
v 0.102617 0.495445 0.198610
v 0.100201 0.501768 0.204812
v 0.097836 0.501784 0.194002
v 0.101022 0.497364 0.202966
v 0.098662 0.498245 0.199479
v 0.097641 0.501847 0.199708
v 0.099350 0.497376 0.195323
v 0.114377 0.655046 0.196281
v 0.108693 0.649137 0.191852
v 0.111058 0.649121 0.202662
v 0.110845 0.653389 0.193046
v 0.110040 0.652669 0.197226
v 0.108498 0.649200 0.197558
v 0.112517 0.653377 0.200690
v -0.101283 0.485597 0.190216
v -0.094841 0.491543 0.192940
v -0.105491 0.491413 0.195939
v -0.096807 0.487279 0.191749
v -0.100134 0.487929 0.194397
v -0.099783 0.491391 0.195795
v -0.104339 0.487187 0.193869
v -0.101511 0.645529 0.196368
v -0.105702 0.639071 0.201618
v -0.095051 0.639202 0.198620
v -0.104561 0.643523 0.199883
v -0.100355 0.642673 0.200349
v -0.099993 0.639050 0.201475
v -0.097030 0.643616 0.197762
v -0.110842 0.485753 0.188541
v -0.108647 0.491464 0.195386
v -0.117634 0.491916 0.188945
v -0.109161 0.487265 0.193024
v -0.113269 0.488144 0.192095
v -0.113965 0.491623 0.193310
v -0.115516 0.487584 0.188470
v -0.107651 0.645629 0.195292
v -0.114689 0.639523 0.195178
v -0.105702 0.639071 0.201618
v -0.112397 0.643867 0.195069
v -0.110182 0.642834 0.198627
v -0.111019 0.639230 0.199543
v -0.106042 0.643548 0.199623
v -0.115487 0.486310 0.180037
v -0.119168 0.492100 0.186137
v -0.119724 0.492793 0.175108
v -0.117860 0.487866 0.184180
v -0.119652 0.488909 0.180411
v -0.120856 0.492449 0.180694
v -0.118253 0.488356 0.176380
v -0.110635 0.645987 0.189829
v -0.115244 0.640216 0.184148
v -0.114689 0.639523 0.195178
v -0.113510 0.644443 0.185952
v -0.114957 0.643407 0.189885
v -0.116376 0.639872 0.189734
v -0.113117 0.643953 0.193752
v -0.111720 0.486849 0.171109
v -0.118480 0.492971 0.172159
v -0.110187 0.493384 0.164846
v -0.116352 0.488627 0.171876
v -0.114476 0.489649 0.168142
v -0.115268 0.493248 0.167447
v -0.110488 0.488920 0.166704
v -0.108215 0.646333 0.184094
v -0.106951 0.640629 0.176834
v -0.115244 0.640216 0.184148
v -0.107061 0.644819 0.179397
v -0.111085 0.643960 0.180706
v -0.112032 0.640494 0.179436
v -0.112926 0.644527 0.184569
v -0.102379 0.486963 0.168478
v -0.107102 0.493422 0.163977
v -0.096204 0.493244 0.165887
v -0.105775 0.488977 0.165377
v -0.101640 0.489807 0.164527
v -0.101408 0.493418 0.163545
v -0.098068 0.488852 0.166727
v -0.102214 0.646406 0.182404
v -0.096053 0.640451 0.178744
v -0.106951 0.640629 0.176834
v -0.097908 0.644711 0.180340
v -0.101481 0.644078 0.178002
v -0.101257 0.640626 0.176402
v -0.105614 0.644837 0.178990
v -0.094496 0.486568 0.174127
v -0.093601 0.493113 0.167752
v -0.088305 0.492478 0.177448
v -0.094092 0.488652 0.169577
v -0.090808 0.489263 0.172289
v -0.089714 0.492831 0.171925
v -0.090347 0.488203 0.176433
v -0.097151 0.646152 0.186033
v -0.090757 0.639816 0.188440
v -0.096053 0.640451 0.178744
v -0.092942 0.644200 0.188071
v -0.093377 0.643671 0.183809
v -0.092165 0.640169 0.182917
v -0.096687 0.644649 0.181215
v -0.094009 0.485960 0.183801
v -0.088144 0.492277 0.180642
v -0.092439 0.491663 0.190822
v -0.090101 0.487896 0.181314
v -0.090138 0.488427 0.185583
v -0.088991 0.491929 0.186278
v -0.093137 0.487462 0.188512
v -0.096838 0.645761 0.192247
v -0.095051 0.639202 0.198620
v -0.090757 0.639816 0.188440
v -0.095903 0.643672 0.196768
v -0.092876 0.643046 0.193755
v -0.091603 0.639468 0.194076
v -0.092867 0.644106 0.189570
v 0.177090 0.605587 0.182741
v 0.176983 0.607699 0.182481
v 0.181999 0.607960 0.183034
v 0.177064 0.606213 0.182514
v 0.179950 0.606644 0.182685
v 0.180535 0.607891 0.182722
v 0.180611 0.606398 0.182906
v 0.168639 0.753085 0.189618
v 0.168506 0.755161 0.190084
v 0.173655 0.753346 0.190172
v 0.168550 0.754561 0.189797
v 0.171467 0.754448 0.189941
v 0.172097 0.754745 0.190189
v 0.172191 0.753277 0.189859
v 0.176208 0.604298 0.207965
v 0.181117 0.606671 0.208258
v 0.176075 0.606373 0.208431
v 0.179729 0.605109 0.208129
v 0.179053 0.605333 0.208328
v 0.179635 0.606576 0.208459
v 0.176164 0.604898 0.208252
v 0.167624 0.753872 0.215308
v 0.167731 0.751759 0.215569
v 0.172772 0.752057 0.215395
v 0.167650 0.753245 0.215535
v 0.170570 0.753137 0.215584
v 0.171291 0.751962 0.215597
v 0.171215 0.753456 0.215412
v -0.172042 0.586197 0.169537
v -0.177191 0.588012 0.169450
v -0.172150 0.588310 0.169276
v -0.175633 0.586613 0.169433
v -0.174989 0.586932 0.169261
v -0.175709 0.588107 0.169248
v -0.172069 0.586824 0.169310
v -0.180627 0.735771 0.176880
v -0.180494 0.733696 0.176414
v -0.185535 0.733398 0.176587
v -0.180583 0.735171 0.176593
v -0.183472 0.734736 0.176517
v -0.184053 0.733493 0.176386
v -0.184147 0.734960 0.176716
v -0.172925 0.584908 0.194761
v -0.173058 0.586984 0.195227
v -0.178074 0.586723 0.194673
v -0.172969 0.585508 0.195048
v -0.175886 0.585621 0.194904
v -0.176610 0.586792 0.194986
v -0.176516 0.585324 0.194656
v -0.181509 0.734482 0.202104
v -0.186418 0.732109 0.201811
v -0.181402 0.732370 0.202364
v -0.185030 0.733671 0.201939
v -0.184369 0.733425 0.202160
v -0.184954 0.732178 0.202124
v -0.181483 0.733856 0.202331
v 0.187015 0.746030 0.177679
v 0.187019 0.746341 0.177121
v 0.192619 0.746248 0.177669
v 0.187016 0.746122 0.177284
v 0.190249 0.746110 0.177350
v 0.190979 0.746276 0.177277
v 0.190976 0.746056 0.177672
v 0.187361 0.767722 0.177239
v 0.187367 0.768026 0.177801
v 0.192962 0.767629 0.177788
v 0.187365 0.767938 0.177405
v 0.190597 0.767846 0.177470
v 0.191325 0.767873 0.177792
v 0.191321 0.767657 0.177395
v 0.187092 0.745813 0.216559
v 0.192697 0.746031 0.216549
v 0.187098 0.746118 0.217120
v 0.191053 0.745840 0.216551
v 0.190328 0.745890 0.216876
v 0.191057 0.746055 0.216948
v 0.187095 0.745901 0.216955
v 0.187444 0.767810 0.216680
v 0.187441 0.767499 0.217239
v 0.193039 0.767412 0.216667
v 0.187444 0.767717 0.217076
v 0.190676 0.767626 0.216996
v 0.191400 0.767436 0.217067
v 0.191402 0.767656 0.216672
v -0.201734 0.752247 0.178487
v -0.207329 0.752645 0.178500
v -0.201730 0.752558 0.177928
v -0.205692 0.752401 0.178495
v -0.204966 0.752431 0.178171
v -0.205689 0.752621 0.178101
v -0.201734 0.752340 0.178091
v -0.201382 0.774244 0.178609
v -0.201388 0.773939 0.178047
v -0.206986 0.774026 0.178618
v -0.201384 0.774156 0.178212
v -0.204618 0.774168 0.178291
v -0.205347 0.774002 0.178219
v -0.205343 0.774217 0.178616
v -0.201657 0.752031 0.217366
v -0.201651 0.752336 0.217928
v -0.207251 0.752428 0.217379
v -0.201655 0.752119 0.217762
v -0.204887 0.752211 0.217697
v -0.205611 0.752400 0.217772
v -0.205615 0.752184 0.217375
v -0.201305 0.774028 0.217488
v -0.206909 0.773809 0.217498
v -0.201309 0.773717 0.218046
v -0.205266 0.774001 0.217496
v -0.204539 0.773947 0.217817
v -0.205268 0.773781 0.217890
v -0.201306 0.773935 0.217883
v 0.147057 0.613277 0.207127
v 0.147055 0.614817 0.207020
v 0.151254 0.614825 0.207169
v 0.147057 0.613728 0.207049
v 0.149481 0.613933 0.207086
v 0.150024 0.614823 0.207079
v 0.150026 0.613734 0.207155
v 0.146851 0.721737 0.207312
v 0.146847 0.723276 0.207428
v 0.151049 0.721744 0.207462
v 0.146848 0.722826 0.207348
v 0.149273 0.722630 0.207384
v 0.149817 0.722831 0.207454
v 0.149820 0.721742 0.207372
v 0.146987 0.613256 0.214903
v 0.151184 0.614804 0.214945
v 0.146983 0.614795 0.215019
v 0.149956 0.613712 0.214931
v 0.149410 0.613911 0.214991
v 0.149953 0.614801 0.215013
v 0.146985 0.613706 0.214983
v 0.146776 0.723255 0.215204
v 0.146778 0.721715 0.215312
v 0.150979 0.721723 0.215238
v 0.146776 0.722804 0.215282
v 0.149202 0.722609 0.215289
v 0.149748 0.721720 0.215306
v 0.149747 0.722810 0.215230
v -0.144531 0.612727 0.204492
v -0.148733 0.614259 0.204458
v -0.144533 0.614267 0.204384
v -0.147501 0.613172 0.204466
v -0.146956 0.613373 0.204407
v -0.147503 0.614261 0.204390
v -0.144531 0.613178 0.204414
v -0.144741 0.722726 0.204793
v -0.144737 0.721186 0.204676
v -0.148938 0.721178 0.204750
v -0.144739 0.722275 0.204712
v -0.147164 0.722071 0.204704
v -0.147707 0.721181 0.204682
v -0.147710 0.722269 0.204765
v -0.144601 0.612705 0.212267
v -0.144605 0.614245 0.212383
v -0.148804 0.614237 0.212233
v -0.144602 0.613156 0.212348
v -0.147028 0.613351 0.212312
v -0.147574 0.614239 0.212324
v -0.147572 0.613151 0.212242
v -0.144811 0.722705 0.212568
v -0.149008 0.721157 0.212526
v -0.144809 0.721164 0.212676
v -0.147780 0.722248 0.212540
v -0.147235 0.722049 0.212609
v -0.147779 0.721159 0.212616
v -0.144811 0.722253 0.212646
vn -0.4231 -0.8326 -0.3573
vn -0.8754 -0.3509 -0.3325
vn -0.5805 -0.2964 -0.7584
vn -0.3835 0.8734 -0.3002
vn -0.4743 0.4434 -0.7606
vn -0.8293 0.3955 -0.3947
vn 0.0056 -0.8552 -0.5183
vn -0.2908 -0.3846 -0.8761
vn 0.2265 -0.3375 -0.9137
vn 0.0048 0.8522 -0.5232
vn 0.3029 0.4043 -0.8630
vn -0.2051 0.3601 -0.9101
vn 0.3986 -0.8724 -0.2830
vn 0.4983 -0.4223 -0.7572
vn 0.8512 -0.3633 -0.3787
vn 0.4213 0.8332 -0.3581
vn 0.8677 0.3815 -0.3186
vn 0.5868 0.3227 -0.7427
vn 0.4601 -0.8712 0.1712
vn 0.8978 -0.4356 -0.0654
vn 0.8232 -0.3543 0.4436
vn 0.5521 0.8308 0.0707
vn 0.7949 0.3923 0.4628
vn 0.9501 0.3115 -0.0184
vn 0.1437 -0.8526 0.5024
vn 0.6068 -0.4144 0.6783
vn 0.1635 -0.3174 0.9341
vn 0.2989 0.8466 0.4403
vn 0.1393 0.4285 0.8927
vn 0.6111 0.3349 0.7172
vn -0.3123 -0.8305 0.4612
vn -0.1556 -0.3748 0.9140
vn -0.6310 -0.2802 0.7234
vn -0.1478 0.8689 0.4724
vn -0.6054 0.4629 0.6475
vn -0.1748 0.3754 0.9103
vn -0.5645 -0.8217 0.0785
vn -0.8152 -0.3465 0.4641
vn -0.9621 -0.2709 -0.0299
vn -0.4515 0.8808 0.1429
vn -0.8785 0.4695 -0.0883
vn -0.8158 0.4023 0.4154
vn -0.4075 -0.4027 -0.8196
vn -0.2184 -0.9067 -0.3607
vn -0.3585 0.4584 -0.8132
vn -0.1257 0.9199 -0.3715
vn -0.9055 0.0649 -0.4193
vn -0.5944 0.0461 -0.8029
vn 0.2565 0.0027 -0.9665
vn -0.2372 0.0269 -0.9711
vn 0.3811 -0.4414 -0.8123
vn 0.1351 -0.9241 -0.3575
vn 0.4165 0.4204 -0.8061
vn 0.2219 0.9028 -0.3683
vn 0.9151 -0.0245 -0.4025
vn 0.6107 -0.0131 -0.7918
vn 0.8675 -0.4596 -0.1905
vn 0.3532 -0.9322 -0.0787
vn 0.8944 0.4025 -0.1951
vn 0.4364 0.8948 -0.0941
vn 0.8855 -0.0150 0.4644
vn 0.9996 -0.0250 -0.0164
vn 0.6852 -0.4436 0.5777
vn 0.2715 -0.9250 0.2657
vn 0.7154 0.4183 0.5597
vn 0.3561 0.9019 0.2446
vn 0.1900 0.0240 0.9815
vn 0.6367 0.0001 0.7711
vn -0.0283 -0.4054 0.9137
vn -0.0484 -0.9079 0.4163
vn 0.0142 0.4558 0.8900
vn 0.0415 0.9187 0.3927
vn -0.6477 0.0631 0.7593
vn -0.2048 0.0433 0.9779
vn -0.7359 -0.3738 0.5646
vn -0.3656 -0.8938 0.2598
vn -0.6811 0.4869 0.5469
vn -0.2705 0.9326 0.2388
vn -0.9967 0.0729 -0.0348
vn -0.8911 0.0722 0.4480
vn -0.9046 -0.3726 -0.2068
vn -0.4412 -0.8933 -0.0860
vn -0.8469 0.4880 -0.2111
vn -0.3449 0.9332 -0.1013
vn -0.0491 -0.9988 0.0092
vn -0.4243 0.0351 -0.9049
vn -0.9704 0.0681 -0.2316
vn 0.0491 0.9988 -0.0092
vn 0.4422 -0.0075 -0.8969
vn 0.9765 -0.0274 -0.2137
vn 0.7763 -0.0098 0.6303
vn -0.0076 0.0321 0.9995
vn -0.7850 0.0668 0.6159
vn 0.0972 -0.8803 0.4643
vn 0.5050 -0.4403 0.7424
vn 0.0219 -0.3762 0.9263
vn 0.1844 0.8233 0.5368
vn -0.0284 0.3694 0.9288
vn 0.4695 0.3042 0.8289
vn -0.3464 -0.8707 0.3490
vn -0.2867 -0.4428 0.8496
vn -0.7281 -0.3511 0.5887
vn -0.2619 0.8283 0.4953
vn -0.7236 0.3959 0.5654
vn -0.3385 0.3047 0.8903
vn -0.5325 -0.8436 -0.0690
vn -0.8641 -0.4052 0.2986
vn -0.9311 -0.3002 -0.2071
vn -0.5076 0.8530 0.1211
vn -0.8721 0.4448 -0.2037
vn -0.8901 0.3447 0.2981
vn -0.3211 -0.8193 -0.4750
vn -0.7924 -0.3559 -0.4955
vn -0.4342 -0.2619 -0.8619
vn -0.3676 0.8789 -0.3040
vn -0.3622 0.4794 -0.7994
vn -0.7700 0.3942 -0.5017
vn 0.1287 -0.8162 -0.5632
vn -0.1255 -0.3319 -0.9349
vn 0.3884 -0.2650 -0.8826
vn 0.0527 0.8864 -0.4599
vn 0.4222 0.4735 -0.7730
vn -0.0687 0.4157 -0.9069
vn 0.4782 -0.8366 -0.2673
vn 0.6342 -0.3514 -0.6887
vn 0.9172 -0.3072 -0.2536
vn 0.4368 0.8699 -0.2292
vn 0.8904 0.4317 -0.1445
vn 0.6859 0.3933 -0.6123
vn 0.4641 -0.8651 0.1900
vn 0.9148 -0.3997 0.0578
vn 0.7541 -0.3567 0.5514
vn 0.4954 0.8418 0.2144
vn 0.6898 0.3854 0.6129
vn 0.9253 0.3436 0.1602
vn -0.1599 -0.4690 0.8686
vn -0.0756 -0.9359 0.3440
vn -0.1525 0.3927 0.9069
vn -0.0646 0.8899 0.4516
vn 0.5007 -0.0326 0.8650
vn 0.0250 -0.0384 0.9990
vn -0.7657 -0.0119 0.6431
vn -0.3643 -0.0320 0.9307
vn -0.8012 -0.4368 0.4090
vn -0.3631 -0.9215 0.1380
vn -0.7827 0.4243 0.4553
vn -0.3474 0.9041 0.2490
vn -0.9797 0.0418 -0.1959
vn -0.9549 0.0108 0.2967
vn -0.8409 -0.3873 -0.3781
vn -0.3809 -0.8993 -0.2149
vn -0.8217 0.4730 -0.3181
vn -0.3649 0.9259 -0.0981
vn -0.4559 0.0822 -0.8862
vn -0.8263 0.0637 -0.5596
vn -0.2490 -0.3578 -0.9000
vn -0.1155 -0.8861 -0.4489
vn -0.2401 0.5019 -0.8309
vn -0.1039 0.9389 -0.3282
vn 0.4114 0.0789 -0.9081
vn -0.0754 0.0868 -0.9934
vn 0.5287 -0.3705 -0.7637
vn 0.2331 -0.8918 -0.3878
vn 0.5241 0.4894 -0.6970
vn 0.2389 0.9333 -0.2681
vn 0.9689 0.0344 -0.2449
vn 0.7324 0.0628 -0.6780
vn 0.9066 -0.4159 -0.0718
vn 0.4025 -0.9121 -0.0776
vn 0.8954 0.4449 -0.0172
vn 0.4056 0.9133 0.0370
vn 0.7970 -0.0178 0.6038
vn 0.9888 0.0096 0.1490
vn 0.6001 -0.4597 0.6546
vn 0.2652 -0.9317 0.2481
vn 0.5943 0.4018 0.6967
vn 0.2705 0.8940 0.3573
vn -0.0054 -0.9980 -0.0625
vn -0.1731 -0.0381 0.9842
vn 0.6619 -0.0279 0.7491
vn 0.0054 0.9980 0.0625
vn -0.8777 -0.0027 0.4792
vn -0.9213 0.0516 -0.3855
vn -0.2710 0.0840 -0.9589
vn 0.5834 0.0701 -0.8092
vn 0.9986 0.0203 -0.0491
vn 0.1400 -0.4266 -0.8935
vn 0.0617 -0.0193 -0.9979
vn 0.2125 -0.1089 -0.9711
vn 0.0615 0.1074 -0.9923
vn 0.0610 0.4343 -0.8987
vn 0.1932 0.2268 -0.9546
vn 0.0408 -0.4286 0.9026
vn 0.1447 -0.2080 0.9674
vn -0.0019 -0.1041 0.9946
vn 0.0243 0.4358 0.8997
vn -0.0161 0.0218 0.9996
vn 0.1254 0.1277 0.9839
vn 0.0033 -0.3403 -0.9403
vn -0.1254 -0.1277 -0.9839
vn 0.0082 -0.0056 -1.0000
vn -0.0789 0.5159 -0.8530
vn 0.0079 0.1210 -0.9926
vn -0.1447 0.2080 -0.9674
vn -0.0854 -0.5251 0.8468
vn -0.0536 -0.1236 0.9909
vn -0.1932 -0.2268 0.9546
vn -0.1052 0.3345 0.9365
vn -0.2125 0.1089 0.9711
vn -0.0678 0.0023 0.9977
vn 0.2261 -0.9732 -0.0418
vn 0.7479 -0.6637 -0.0078
vn 0.0647 0.0526 -0.9965
vn 0.2058 0.0598 -0.9768
vn 0.1133 0.9921 0.0547
vn 0.6673 0.7423 0.0613
vn -0.0051 -0.0493 0.9988
vn 0.1370 -0.0407 0.9897
vn -0.0101 -0.4319 0.9018
vn -0.0307 -0.1223 0.9920
vn -0.0543 0.3379 0.9396
vn -0.0389 0.0205 0.9990
vn -0.2058 -0.0598 0.9768
vn -0.0647 -0.0526 0.9965
vn -0.1133 -0.9921 -0.0547
vn -0.6672 -0.7423 -0.0613
vn -0.2261 0.9732 0.0418
vn -0.7479 0.6637 0.0078
vn 0.0051 0.0493 -0.9988
vn -0.1370 0.0407 -0.9897
vn 0.0543 -0.3379 -0.9396
vn 0.0389 -0.0206 -0.9990
vn 0.0101 0.4320 -0.9018
vn 0.0307 0.1223 -0.9920
vn 0.0572 -0.9972 -0.0490
vn 0.9978 0.0554 0.0377
vn 0.0349 0.0510 -0.9981
vn -0.0572 0.9972 0.0490
vn -0.0349 -0.0510 0.9981
vn -0.9978 -0.0554 -0.0377
vn 0.0063 -0.9841 -0.1777
vn 0.0142 -0.5972 -0.8020
vn 0.1008 -0.8693 -0.4838
vn 0.0421 0.5041 -0.8626
vn 0.0322 0.9757 -0.2167
vn 0.1285 0.8710 -0.4742
vn 0.0019 -0.9763 0.2166
vn 0.1026 -0.8748 0.4736
vn 0.0296 -0.5053 0.8624
vn 0.0385 0.9833 0.1776
vn 0.0366 0.5965 0.8017
vn 0.1304 0.8657 0.4833
vn -0.0330 -0.9732 -0.2274
vn -0.1305 -0.8657 -0.4832
vn -0.0455 -0.4945 -0.8680
vn -0.0070 0.9860 -0.1666
vn -0.0173 0.6062 -0.7951
vn -0.1025 0.8747 -0.4737
vn -0.0379 -0.9853 0.1667
vn -0.0334 -0.6052 0.7953
vn -0.1285 -0.8711 0.4740
vn -0.0010 0.9737 0.2276
vn -0.1007 0.8694 0.4837
vn -0.0261 0.4960 0.8679
vn 0.0068 -1.0000 -0.0056
vn 0.1158 -0.9933 -0.0058
vn 0.0394 0.0049 -0.9992
vn 0.2327 0.0017 -0.9725
vn 0.0388 0.9992 0.0055
vn 0.1474 0.9891 0.0052
vn 0.0434 -0.0062 0.9990
vn 0.2366 -0.0092 0.9716
vn -0.0152 -0.9761 0.2167
vn -0.0080 -0.6060 0.7954
vn 0.0160 0.9737 0.2275
vn 0.0112 0.5973 0.8020
vn -0.2327 -0.0017 0.9725
vn -0.0394 -0.0049 0.9992
vn -0.0388 -0.9992 -0.0055
vn -0.1474 -0.9891 -0.0052
vn -0.0068 1.0000 0.0056
vn -0.1158 0.9933 0.0058
vn -0.0434 0.0062 -0.9990
vn -0.2366 0.0092 -0.9716
vn -0.0160 -0.9736 -0.2276
vn -0.0112 -0.5970 -0.8022
vn 0.0152 0.9761 -0.2168
vn 0.0080 0.6059 -0.7955
vn -0.0160 -0.9999 -0.0055
vn 0.9999 -0.0160 -0.0021
vn -0.0020 0.0056 -1.0000
vn 0.0160 0.9999 0.0055
vn 0.0020 -0.0056 1.0000
vn -0.9999 0.0160 0.0021
vn 0.0431 -0.2200 -0.9745
vn 0.0176 -0.0273 -0.9995
vn 0.0732 -0.0695 -0.9949
vn 0.0200 0.0259 -0.9995
vn 0.0287 0.1756 -0.9841
vn 0.0729 0.0753 -0.9945
vn 0.0116 -0.1756 0.9844
vn 0.0552 -0.0750 0.9957
vn 0.0021 -0.0258 0.9997
vn 0.0246 0.2203 0.9751
vn -0.0006 0.0275 0.9996
vn 0.0550 0.0698 0.9960
vn -0.0109 -0.1702 -0.9853
vn -0.0549 -0.0697 -0.9961
vn -0.0020 -0.0204 -0.9998
vn -0.0255 0.2254 -0.9739
vn 0.0005 0.0328 -0.9995
vn -0.0552 0.0750 -0.9957
vn -0.0422 -0.2257 0.9733
vn -0.0174 -0.0328 0.9993
vn -0.0729 -0.0752 0.9945
vn -0.0294 0.1702 0.9850
vn -0.0732 0.0695 0.9949
vn -0.0201 0.0203 0.9996
vn 0.1520 -0.9884 -0.0013
vn 0.6643 -0.7475 0.0039
vn 0.0201 0.0028 -0.9998
vn 0.0732 0.0029 -0.9973
vn 0.1483 0.9889 0.0041
vn 0.6613 0.7501 0.0080
vn 0.0020 -0.0027 1.0000
vn 0.0552 -0.0026 0.9985
vn -0.0086 -0.1757 0.9844
vn -0.0090 -0.0329 0.9994
vn -0.0092 0.1702 0.9854
vn -0.0091 0.0274 0.9996
vn -0.0733 -0.0029 0.9973
vn -0.0201 -0.0028 0.9998
vn -0.1482 -0.9889 -0.0041
vn -0.6613 -0.7501 -0.0080
vn -0.1521 0.9884 0.0013
vn -0.6642 0.7475 -0.0039
vn -0.0020 0.0027 -1.0000
vn -0.0552 0.0026 -0.9985
vn 0.0092 -0.1702 -0.9854
vn 0.0091 -0.0273 -0.9996
vn 0.0086 0.1756 -0.9844
vn 0.0090 0.0328 -0.9994
vn 0.0019 -1.0000 -0.0027
vn 1.0000 0.0019 0.0090
vn 0.0090 0.0028 -1.0000
vn -0.0019 1.0000 0.0027
vn -0.0090 -0.0028 1.0000
vn -1.0000 -0.0019 -0.0090
vn -0.4769 -0.8294 -0.2911
vn -0.8756 -0.2785 -0.3946
vn -0.5233 -0.3722 -0.7666
vn -0.3310 0.8702 -0.3650
vn -0.5387 0.3779 -0.7530
vn -0.8202 0.4643 -0.3341
vn -0.0797 -0.8510 -0.5191
vn -0.2417 -0.3145 -0.9180
vn 0.2678 -0.4121 -0.8709
vn 0.0883 0.8481 -0.5224
vn 0.2560 0.3374 -0.9059
vn -0.2459 0.4312 -0.8681
vn 0.3460 -0.8704 -0.3503
vn 0.5625 -0.3525 -0.7479
vn 0.8428 -0.4352 -0.3167
vn 0.4727 0.8313 -0.2924
vn 0.8712 0.3120 -0.3791
vn 0.5293 0.3941 -0.7513
vn 0.4798 -0.8729 0.0882
vn 0.9314 -0.3638 -0.0124
vn 0.7687 -0.4242 0.4787
vn 0.5328 0.8325 0.1519
vn 0.8435 0.3209 0.4307
vn 0.9217 0.3811 -0.0717
vn 0.2209 -0.8567 0.4661
vn 0.5872 -0.3400 0.7346
vn 0.1013 -0.3874 0.9163
vn 0.2234 0.8507 0.4759
vn 0.1939 0.3573 0.9136
vn 0.6358 0.4019 0.6589
vn -0.2357 -0.8340 0.4989
vn -0.2109 -0.2990 0.9307
vn -0.6568 -0.3524 0.6667
vn -0.2226 0.8722 0.4355
vn -0.5885 0.3938 0.7061
vn -0.1131 0.4409 0.8904
vn -0.5463 -0.8218 0.1620
vn -0.8619 -0.2716 0.4281
vn -0.9347 -0.3456 -0.0823
vn -0.4693 0.8809 0.0613
vn -0.9145 0.4030 -0.0356
vn -0.7611 0.4687 0.4485
vn -0.0000 -1.0000 -0.0000
vn 0.1352 -0.9241 -0.3575
vn -0.0000 1.0000 -0.0000
vn 0.2220 0.9028 -0.3683
vn 0.9151 -0.0245 -0.4026
vn 0.6852 -0.4435 0.5777
vn -1.0000 -0.0000 -0.0000
vn -0.6476 0.0631 0.7593
vn -0.4413 -0.8932 -0.0860
vn -0.3449 0.9331 -0.1013
vn -0.0000 -0.0455 0.9990
vn -0.9984 0.0557 -0.0000
vn 0.1793 -0.8793 0.4411
vn 0.4731 -0.3707 0.7992
vn -0.0334 -0.4469 0.8940
vn 0.1041 0.8223 0.5594
vn 0.0251 0.2988 0.9540
vn 0.5004 0.3759 0.7799
vn -0.2771 -0.8742 0.3987
vn -0.3474 -0.3702 0.8615
vn -0.7410 -0.4200 0.5240
vn -0.3298 0.8317 0.4467
vn -0.7134 0.3236 0.6216
vn -0.2773 0.3735 0.8852
vn -0.5282 -0.8489 0.0161
vn -0.9076 -0.3296 0.2602
vn -0.8922 -0.3702 -0.2589
vn -0.5118 0.8583 0.0379
vn -0.9133 0.3737 -0.1621
vn -0.8445 0.4104 0.3440
vn -0.3851 -0.8225 -0.4186
vn -0.7856 -0.2794 -0.5520
vn -0.3731 -0.3350 -0.8652
vn -0.3050 0.8820 -0.3592
vn -0.4240 0.4114 -0.8068
vn -0.7741 0.4589 -0.4362
vn 0.0446 -0.8148 -0.5780
vn -0.0734 -0.2575 -0.9635
vn 0.4253 -0.3409 -0.8384
vn 0.1349 0.8850 -0.4455
vn 0.3860 0.4083 -0.8272
vn -0.1190 0.4824 -0.8679
vn 0.4373 -0.8317 -0.3421
vn 0.6929 -0.2803 -0.6644
vn 0.9019 -0.3835 -0.1986
vn 0.4767 0.8651 -0.1561
vn 0.9068 0.3668 -0.2078
vn 0.6274 0.4632 -0.6259
vn 0.4973 -0.8604 0.1115
vn 0.9361 -0.3307 0.1201
vn 0.6978 -0.4307 0.5724
vn 0.4630 0.8372 0.2912
vn 0.7462 0.3180 0.5849
vn 0.9031 0.4158 0.1074
vn -0.3473 0.9041 0.2490
vn -0.3648 0.9259 -0.0981
vn 0.2390 0.9333 -0.2681
vn 0.9066 -0.4158 -0.0718
vn 0.6002 -0.4597 0.6546
vn 0.2651 -0.9318 0.2481
vn 0.0053 0.9980 0.0625
vn 0.1052 -0.3346 -0.9365
vn 0.0678 -0.0022 -0.9977
vn 0.2808 -0.1033 -0.9542
vn 0.0535 0.1235 -0.9909
vn 0.0854 0.5250 -0.8468
vn 0.2618 0.2274 -0.9379
vn 0.0789 -0.5159 0.8530
vn 0.2140 -0.2010 0.9559
vn -0.0079 -0.1210 0.9926
vn -0.0033 0.3403 0.9403
vn -0.0082 0.0056 1.0000
vn 0.1949 0.1298 0.9722
vn -0.0243 -0.4357 -0.8998
vn -0.1950 -0.1298 -0.9722
vn 0.0161 -0.0218 -0.9996
vn -0.0408 0.4286 -0.9026
vn 0.0019 0.1041 -0.9946
vn -0.2139 0.2010 -0.9560
vn -0.0610 -0.4342 0.8987
vn -0.0615 -0.1074 0.9923
vn -0.2618 -0.2274 0.9379
vn -0.1400 0.4267 0.8935
vn -0.2808 0.1034 0.9542
vn -0.0618 0.0193 0.9979
vn -0.0101 -0.4320 0.9018
vn -0.0543 0.3378 0.9396
vn -0.6673 -0.7423 -0.0613
vn -0.7480 0.6637 0.0078
vn 0.0389 -0.0205 -0.9990
vn 0.0101 0.4319 -0.9019
vn 0.0010 -0.9738 -0.2276
vn 0.0261 -0.4958 -0.8681
vn 0.1490 -0.8642 -0.4805
vn 0.0334 0.6054 -0.7952
vn 0.0379 0.9853 -0.1667
vn 0.1768 0.8642 -0.4710
vn 0.0070 -0.9860 0.1666
vn 0.1510 -0.8695 0.4702
vn 0.0174 -0.6062 0.7951
vn 0.0331 0.9732 0.2274
vn 0.0456 0.4945 0.8680
vn 0.1787 0.8589 0.4799
vn -0.0385 -0.9834 -0.1774
vn -0.1787 -0.8590 -0.4798
vn -0.0366 -0.5965 -0.8017
vn -0.0019 0.9762 -0.2168
vn -0.0296 0.5052 -0.8625
vn -0.1512 0.8695 -0.4703
vn -0.0322 -0.9757 0.2167
vn -0.0421 -0.5044 0.8625
vn -0.1770 -0.8643 0.4709
vn -0.0063 0.9841 0.1777
vn -0.1491 0.8642 0.4806
vn -0.0142 0.5973 0.8019
vn 0.1475 0.9890 0.0052
vn 0.0160 0.9736 0.2276
vn 0.0112 0.5970 0.8022
vn -0.1475 -0.9891 -0.0052
vn -0.1157 0.9933 0.0058
vn -0.0160 -0.9737 -0.2275
vn -0.0112 -0.5971 -0.8021
vn 0.0152 0.9761 -0.2167
vn 0.0080 0.6060 -0.7954
vn 0.0294 -0.1702 -0.9850
vn 0.0201 -0.0204 -0.9996
vn 0.1005 -0.0694 -0.9925
vn 0.0174 0.0329 -0.9993
vn 0.0422 0.2258 -0.9733
vn 0.1002 0.0752 -0.9921
vn 0.0255 -0.2254 0.9739
vn 0.0825 -0.0748 0.9938
vn -0.0005 -0.0329 0.9995
vn 0.0109 0.1701 0.9854
vn 0.0020 0.0204 0.9998
vn 0.0822 0.0697 0.9942
vn -0.0246 -0.2203 -0.9751
vn -0.0822 -0.0696 -0.9942
vn 0.0006 -0.0274 -0.9996
vn -0.0116 0.1755 -0.9844
vn -0.0021 0.0258 -0.9997
vn -0.0825 0.0748 -0.9938
vn -0.0287 -0.1757 0.9840
vn -0.0200 -0.0259 0.9995
vn -0.1002 -0.0752 0.9921
vn -0.0431 0.2203 0.9745
vn -0.1005 0.0693 0.9925
vn -0.0176 0.0273 0.9995
vn 0.1521 -0.9884 -0.0014
vn 0.6642 -0.7475 0.0039
vn 0.0733 0.0029 -0.9973
vn 0.1482 0.9889 0.0041
vn 0.6614 0.7500 0.0080
vn -0.0086 -0.1755 0.9844
vn -0.0091 0.0273 0.9996
vn -0.1483 -0.9889 -0.0041
vn -0.6614 -0.7500 -0.0080
vn -0.1520 0.9884 0.0014
vn 0.0092 -0.1703 -0.9853
vn 0.0090 0.0329 -0.9994
vt 0.750000 0.399126
vt 0.736285 0.483395
vt 0.814408 0.458983
vt 0.056691 0.519184
vt 0.000000 0.508309
vt 0.049036 0.500000
vt 0.943309 0.519184
vt 0.989558 0.500000
vt 1.000000 0.519282
vt 0.250000 0.373162
vt 0.266764 0.481927
vt 0.167793 0.450411
vt 0.928571 0.980815
vt 1.000000 0.992092
vt 0.937412 1.000000
vt 0.071429 0.980815
vt 0.012763 1.000000
vt 0.000000 0.980913
vt 0.866591 0.342979
vt 0.923925 0.406242
vt 0.953547 0.329943
vt 0.913834 0.519184
vt 0.851922 0.504154
vt 0.906179 0.500000
vt 0.800452 0.519184
vt 0.857143 0.519282
vt 0.346292 0.326790
vt 0.441780 0.381497
vt 0.355432 0.439227
vt 0.785714 0.980815
vt 0.863524 0.996046
vt 0.794555 1.000000
vt 0.928571 0.980816
vt 0.857143 0.980913
vt 0.895387 0.216816
vt 0.980595 0.211436
vt 0.939411 0.140704
vt 0.770976 0.519185
vt 0.709065 0.504154
vt 0.763322 0.500000
vt 0.657595 0.519184
vt 0.714286 0.519282
vt 0.370074 0.222594
vt 0.472382 0.182048
vt 0.463679 0.285551
vt 0.642857 0.980815
vt 0.720667 0.996046
vt 0.651698 1.000000
vt 0.714286 0.980913
vt 0.814703 0.115642
vt 0.863623 0.045669
vt 0.782645 0.033767
vt 0.628119 0.519185
vt 0.566208 0.504154
vt 0.620465 0.500000
vt 0.514738 0.519185
vt 0.571429 0.519282
vt 0.303438 0.139035
vt 0.335525 0.033767
vt 0.411022 0.105104
vt 0.500000 0.980815
vt 0.577810 0.996046
vt 0.508841 1.000000
vt 0.571429 0.980913
vt 0.685297 0.115642
vt 0.661090 0.033767
vt 0.601296 0.089658
vt 0.485262 0.519185
vt 0.423351 0.504154
vt 0.477608 0.500000
vt 0.371881 0.519184
vt 0.428571 0.519282
vt 0.196562 0.139035
vt 0.134267 0.048315
vt 0.237111 0.033767
vt 0.357143 0.980815
vt 0.434953 0.996046
vt 0.365984 1.000000
vt 0.500000 0.980816
vt 0.428571 0.980913
vt 0.604613 0.216816
vt 0.525508 0.184694
vt 0.531925 0.266290
vt 0.342405 0.519185
vt 0.280494 0.504154
vt 0.334750 0.500000
vt 0.229024 0.519184
vt 0.285714 0.519282
vt 0.129926 0.222594
vt 0.020158 0.214735
vt 0.072907 0.125258
vt 0.214286 0.980816
vt 0.292096 0.996046
vt 0.223127 1.000000
vt 0.285714 0.980913
vt 0.633409 0.342978
vt 0.558973 0.384797
vt 0.626768 0.430655
vt 0.199548 0.519184
vt 0.137636 0.504154
vt 0.191893 0.500000
vt 0.086167 0.519184
vt 0.142857 0.519282
vt 0.153708 0.326790
vt 0.079124 0.407711
vt 0.042057 0.310682
vt 0.071429 0.980815
vt 0.149239 0.996046
vt 0.080269 1.000000
vt 0.214286 0.980816
vt 0.142857 0.980913
vt 0.950964 0.500000
vt 0.919731 1.000000
vt 0.332208 0.450411
vt 0.000000 0.519282
vt 1.000000 0.980913
vt 0.808107 0.500000
vt 0.968075 0.266290
vt 0.776873 1.000000
vt 0.457943 0.310682
vt 0.665250 0.500000
vt 0.634016 1.000000
vt 0.427093 0.125258
vt 0.522393 0.500000
vt 0.491159 1.000000
vt 0.262889 0.033767
vt 0.379535 0.500000
vt 0.560589 0.140704
vt 0.348302 1.000000
vt 0.236678 0.500000
vt 0.205445 1.000000
vt 0.093821 0.500000
vt 0.685592 0.458983
vt 0.062588 1.000000
vt 0.750000 0.399126
vt 0.250000 0.373162
vt 0.866591 0.342979
vt 0.895387 0.216816
vt 0.657595 0.519185
vt 0.370074 0.222594
vt 0.642857 0.980815
vt 0.814703 0.115642
vt 0.514738 0.519184
vt 0.357143 0.980815
vt 0.214286 0.980816
vt 0.633409 0.342979
vt 0.153708 0.326790
vt 0.071429 0.980815
vt 0.088979 0.105104
vt 0.128500 0.746500
vt 0.126479 0.750000
vt 0.125000 0.746500
vt 0.378500 0.996500
vt 0.376479 1.000000
vt 0.375000 0.996500
vt 0.375000 0.003500
vt 0.378500 0.000000
vt 0.378500 0.003500
vt 0.621500 0.996500
vt 0.625000 0.998521
vt 0.621500 1.000000
vt 0.871500 0.746500
vt 0.875000 0.748521
vt 0.871500 0.750000
vt 0.621500 0.000000
vt 0.625000 0.003500
vt 0.621500 0.003500
vt 0.128500 0.503500
vt 0.125000 0.501479
vt 0.128500 0.500000
vt 0.378500 0.250000
vt 0.375000 0.246500
vt 0.378500 0.246500
vt 0.378500 0.253500
vt 0.375740 0.250740
vt 0.871500 0.503500
vt 0.873521 0.500000
vt 0.875000 0.503500
vt 0.621500 0.253500
vt 0.624260 0.249260
vt 0.625000 0.253500
vt 0.625000 0.246500
vt 0.621500 0.250000
vt 0.621500 0.246500
vt 0.371500 0.746500
vt 0.375493 0.750000
vt 0.373250 0.751750
vt 0.378500 0.750000
vt 0.375000 0.746500
vt 0.378500 0.746500
vt 0.378500 0.753500
vt 0.628500 0.746500
vt 0.625000 0.749507
vt 0.625000 0.746500
vt 0.621500 0.753500
vt 0.626750 0.751750
vt 0.621500 0.750000
vt 0.621500 0.746500
vt 0.371500 0.503500
vt 0.375000 0.500493
vt 0.375000 0.503500
vt 0.378500 0.496500
vt 0.373250 0.498250
vt 0.378500 0.500000
vt 0.378500 0.503500
vt 0.628500 0.503500
vt 0.624507 0.500000
vt 0.626750 0.498250
vt 0.621500 0.500000
vt 0.625000 0.503500
vt 0.621500 0.503500
vt 0.621500 0.496500
vt 0.125000 0.503500
vt 0.378500 1.000000
vt 0.875000 0.746500
vt 0.375000 0.253500
vt 0.871500 0.500000
vt 0.128500 0.750000
vt 0.625000 0.996500
vt 0.871500 0.503500
vt 0.621500 0.753500
vt 0.621500 0.746500
vt 0.371500 0.503500
vt 0.621500 0.496500
vt 0.128500 0.503500
vt 0.378500 0.246500
vt 0.378500 0.253500
vt 0.621500 0.246500
vt 0.625000 0.746500
vt 0.621500 0.746500
vt 0.873232 0.430655
vt 0.898704 0.089658
vt 0.717355 0.033767
vt 0.036321 0.285551
vt 0.546453 0.329943
vt 0.144568 0.439227
vt 0.375000 0.001479
vt 0.623521 0.000000
s 0
usemtl wood
f 1/1/1 5/2/1 7/3/1
f 2/4/2 5/5/2 4/6/2
f 3/7/3 5/8/3 6/9/3
f 8/10/4 12/11/4 14/12/4
f 9/13/5 12/14/5 11/15/5
f 10/16/6 12/17/6 13/18/6
f 15/19/7 19/20/7 21/21/7
f 16/22/8 19/23/8 18/24/8
f 17/25/9 19/23/9 20/26/9
f 22/27/10 26/28/10 28/29/10
f 23/30/11 26/31/11 25/32/11
f 24/33/12 26/31/12 27/34/12
f 29/35/13 33/36/13 35/37/13
f 30/38/14 33/39/14 32/40/14
f 31/41/15 33/39/15 34/42/15
f 36/43/16 40/44/16 42/45/16
f 37/46/17 40/47/17 39/48/17
f 38/30/18 40/47/18 41/49/18
f 43/50/19 47/51/19 49/52/19
f 44/53/20 47/54/20 46/55/20
f 45/56/21 47/54/21 48/57/21
f 50/58/22 54/59/22 56/60/22
f 51/61/23 54/62/23 53/63/23
f 52/46/24 54/62/24 55/64/24
f 57/65/25 61/66/25 63/67/25
f 58/68/26 61/69/26 60/70/26
f 59/71/27 61/69/27 62/72/27
f 64/73/28 68/74/28 70/75/28
f 65/76/29 68/77/29 67/78/29
f 66/79/30 68/77/30 69/80/30
f 71/81/31 75/82/31 77/83/31
f 72/84/32 75/85/32 74/86/32
f 73/87/33 75/85/33 76/88/33
f 78/89/34 82/90/34 84/91/34
f 79/92/35 82/93/35 81/94/35
f 80/76/36 82/93/36 83/95/36
f 85/96/37 89/97/37 91/98/37
f 86/99/38 89/100/38 88/101/38
f 87/102/39 89/100/39 90/103/39
f 92/104/40 96/105/40 98/106/40
f 93/107/41 96/108/41 95/109/41
f 94/110/42 96/108/42 97/111/42
f 3/7/43 18/24/43 7/112/43
f 7/3/44 15/19/44 1/1/44
f 24/33/45 11/15/45 28/113/45
f 11/114/46 22/27/46 28/29/46
f 2/4/47 13/18/47 6/115/47
f 13/116/48 3/7/48 6/9/48
f 17/25/49 27/34/49 23/30/49
f 27/34/50 16/22/50 24/33/50
f 17/25/51 32/40/51 21/117/51
f 32/118/52 15/19/52 21/21/52
f 38/30/53 25/32/53 42/119/53
f 25/120/54 36/43/54 42/45/54
f 31/41/55 41/49/55 37/46/55
f 41/49/56 30/38/56 38/30/56
f 44/53/57 35/121/57 31/41/57
f 35/37/58 43/50/58 29/35/58
f 52/46/59 39/48/59 56/122/59
f 39/123/60 50/58/60 56/60/60
f 45/56/61 55/64/61 51/61/61
f 55/64/62 44/53/62 52/46/62
f 58/68/63 49/124/63 45/56/63
f 49/52/64 57/65/64 43/50/64
f 66/79/65 53/63/65 70/125/65
f 53/126/66 64/73/66 70/75/66
f 59/71/67 69/80/67 65/76/67
f 69/80/68 58/68/68 66/79/68
f 59/71/69 74/86/69 63/127/69
f 74/128/70 57/65/70 63/67/70
f 80/76/71 67/78/71 84/129/71
f 84/91/72 64/73/72 78/89/72
f 73/87/73 83/95/73 79/92/73
f 83/95/74 72/84/74 80/76/74
f 86/99/75 77/130/75 73/87/75
f 77/83/76 85/96/76 71/81/76
f 94/110/77 81/94/77 98/131/77
f 98/106/78 78/89/78 92/104/78
f 87/102/79 97/111/79 93/107/79
f 97/111/80 86/99/80 94/110/80
f 87/102/81 4/6/81 91/132/81
f 4/133/82 85/96/82 91/98/82
f 10/16/83 95/109/83 14/134/83
f 14/12/84 92/104/84 8/10/84
f 15/19/85 43/50/85 71/81/85
f 3/7/86 24/33/86 16/22/86
f 87/102/87 10/16/87 2/4/87
f 8/10/88 78/89/88 50/58/88
f 17/25/89 38/30/89 30/38/89
f 31/41/90 52/46/90 44/53/90
f 45/56/91 66/79/91 58/68/91
f 59/71/92 80/76/92 72/84/92
f 73/87/93 94/110/93 86/99/93
f 99/135/94 103/2/94 105/3/94
f 100/4/95 103/5/95 102/6/95
f 101/7/96 103/8/96 104/9/96
f 106/136/97 110/11/97 112/12/97
f 107/13/98 110/14/98 109/15/98
f 108/16/99 110/17/99 111/18/99
f 113/137/100 117/20/100 119/21/100
f 114/22/101 117/23/101 116/24/101
f 115/25/102 117/23/102 118/26/102
f 120/27/103 124/28/103 126/29/103
f 121/30/104 124/31/104 123/32/104
f 122/33/105 124/31/105 125/34/105
f 127/138/106 131/36/106 133/37/106
f 128/38/107 131/39/107 130/40/107
f 129/139/108 131/39/108 132/42/108
f 134/140/109 138/44/109 140/45/109
f 135/141/110 138/47/110 137/48/110
f 136/30/111 138/47/111 139/49/111
f 141/142/112 145/51/112 147/52/112
f 142/53/113 145/54/113 144/55/113
f 143/143/114 145/54/114 146/57/114
f 148/58/115 152/59/115 154/60/115
f 149/79/116 152/62/116 151/63/116
f 150/46/117 152/62/117 153/64/117
f 155/65/118 159/66/118 161/67/118
f 156/68/119 159/69/119 158/70/119
f 157/71/120 159/69/120 160/72/120
f 162/73/121 166/74/121 168/75/121
f 163/144/122 166/77/122 165/78/122
f 164/79/123 166/77/123 167/80/123
f 169/81/124 173/82/124 175/83/124
f 170/84/125 173/85/125 172/86/125
f 171/87/126 173/85/126 174/88/126
f 176/89/127 180/90/127 182/91/127
f 177/145/128 180/93/128 179/94/128
f 178/76/129 180/93/129 181/95/129
f 183/146/130 187/97/130 189/98/130
f 184/99/131 187/100/131 186/101/131
f 185/102/132 187/100/132 188/103/132
f 190/147/133 194/105/133 196/106/133
f 191/148/134 194/108/134 193/109/134
f 192/110/135 194/108/135 195/111/135
f 101/7/136 116/24/136 105/112/136
f 105/3/137 113/137/137 99/135/137
f 122/33/138 109/15/138 126/113/138
f 126/29/139 106/136/139 120/27/139
f 100/4/140 111/18/140 104/115/140
f 111/116/141 101/7/141 104/9/141
f 115/25/142 125/34/142 121/30/142
f 125/34/143 114/22/143 122/33/143
f 128/38/144 119/117/144 115/25/144
f 119/21/145 127/138/145 113/137/145
f 136/30/146 123/32/146 140/119/146
f 140/45/147 120/27/147 134/140/147
f 129/139/148 139/49/148 135/141/148
f 139/49/149 128/38/149 136/30/149
f 129/139/150 144/55/150 133/121/150
f 133/37/151 141/142/151 127/138/151
f 150/46/152 137/48/152 154/122/152
f 137/123/153 148/58/153 154/60/153
f 143/143/154 153/64/154 149/79/154
f 153/64/155 142/53/155 150/46/155
f 143/143/156 158/70/156 147/124/156
f 147/52/157 155/65/157 141/142/157
f 164/79/158 151/63/158 168/125/158
f 168/75/159 148/58/159 162/73/159
f 157/71/160 167/80/160 163/144/160
f 167/80/161 156/68/161 164/79/161
f 170/84/162 161/127/162 157/71/162
f 172/128/163 155/65/163 161/67/163
f 178/76/164 165/78/164 182/129/164
f 165/149/165 176/89/165 182/91/165
f 171/87/166 181/95/166 177/145/166
f 181/95/167 170/84/167 178/76/167
f 184/99/168 175/130/168 171/87/168
f 175/83/169 183/146/169 169/81/169
f 192/110/170 179/94/170 196/131/170
f 196/106/171 176/89/171 190/147/171
f 185/102/172 195/111/172 191/148/172
f 195/111/173 184/99/173 192/110/173
f 185/102/174 102/6/174 189/132/174
f 102/133/175 183/146/175 189/98/175
f 108/16/176 193/109/176 112/134/176
f 112/12/177 190/147/177 106/136/177
f 113/137/178 141/142/178 169/81/178
f 101/7/179 122/33/179 114/22/179
f 185/102/180 108/16/180 100/4/180
f 106/136/181 176/89/181 148/58/181
f 115/25/182 136/30/182 128/38/182
f 129/139/183 150/46/183 142/53/183
f 143/143/184 164/79/184 156/68/184
f 157/71/185 178/76/185 170/84/185
f 171/87/186 192/110/186 184/99/186
f 197/150/187 201/151/187 203/152/187
f 198/153/188 201/154/188 200/155/188
f 203/156/189 202/157/189 199/158/189
f 204/159/190 208/160/190 210/161/190
f 205/162/191 208/163/191 207/164/191
f 210/165/192 209/166/192 206/167/192
f 211/168/193 215/169/193 217/170/193
f 216/171/194 214/172/194 212/173/194
f 213/174/195 215/175/195 216/171/195
f 218/176/196 222/177/196 224/178/196
f 219/179/197 222/180/197 221/181/197
f 224/182/198 223/183/198 220/184/198
f 225/185/199 229/186/199 231/187/199
f 230/188/200 228/189/200 226/190/200
f 227/191/201 229/186/201 230/188/201
f 232/192/202 236/193/202 238/194/202
f 233/195/203 236/193/203 235/196/203
f 238/194/204 237/197/204 234/198/204
f 239/199/205 243/200/205 245/201/205
f 240/202/206 243/200/206 242/203/206
f 245/201/207 244/204/207 241/205/207
f 246/206/208 250/207/208 252/208/208
f 251/209/209 249/210/209 247/211/209
f 248/212/210 250/207/210 251/209/210
f 211/168/211 203/152/211 214/213/211
f 203/156/212 212/173/212 214/172/212
f 204/159/213 202/214/213 198/153/213
f 210/165/214 199/158/214 202/157/214
f 218/176/215 209/215/215 205/162/215
f 209/166/216 220/184/216 206/167/216
f 219/179/217 216/171/217 223/183/217
f 223/183/218 212/173/218 220/184/218
f 211/168/219 242/203/219 239/199/219
f 217/216/220 240/202/220 242/203/220
f 246/206/221 221/217/221 218/176/221
f 252/208/222 219/179/222 221/181/222
f 247/211/223 244/204/223 251/209/223
f 244/204/224 248/212/224 251/209/224
f 225/185/225 245/201/225 228/189/225
f 245/201/226 226/190/226 228/189/226
f 232/192/227 249/210/227 246/206/227
f 249/210/228 234/198/228 247/211/228
f 233/195/229 230/188/229 237/197/229
f 237/197/230 226/190/230 234/198/230
f 197/150/231 231/187/231 200/218/231
f 231/187/232 198/153/232 200/155/232
f 232/192/233 207/164/233 235/196/233
f 207/219/234 233/195/234 235/196/234
f 211/168/235 225/185/235 197/150/235
f 199/158/236 220/184/236 212/173/236
f 233/195/237 198/153/237 227/191/237
f 218/176/238 232/192/238 246/206/238
f 213/174/239 248/212/239 240/202/239
f 247/211/240 226/190/240 241/205/240
f 253/150/241 257/151/241 259/152/241
f 254/153/242 257/154/242 256/155/242
f 259/156/243 258/157/243 255/158/243
f 260/159/244 264/160/244 266/161/244
f 261/162/245 264/163/245 263/164/245
f 266/165/246 265/166/246 262/167/246
f 267/168/247 271/169/247 273/170/247
f 272/171/248 270/172/248 268/173/248
f 269/174/249 271/175/249 272/171/249
f 274/220/250 278/177/250 280/178/250
f 275/179/251 278/180/251 277/181/251
f 280/182/252 279/183/252 276/184/252
f 281/185/253 285/186/253 287/187/253
f 286/188/254 284/189/254 282/190/254
f 283/191/255 285/186/255 286/188/255
f 288/192/256 292/193/256 294/194/256
f 289/221/257 292/193/257 291/196/257
f 294/194/258 293/197/258 290/222/258
f 295/223/259 299/200/259 301/201/259
f 296/202/260 299/200/260 298/203/260
f 301/201/261 300/204/261 297/205/261
f 302/206/262 306/207/262 308/208/262
f 307/209/263 305/210/263 303/211/263
f 304/224/264 306/207/264 307/209/264
f 267/168/265 259/152/265 270/213/265
f 259/156/266 268/173/266 270/172/266
f 254/153/267 266/161/267 258/214/267
f 266/165/268 255/158/268 258/157/268
f 274/220/269 265/215/269 261/162/269
f 280/182/270 262/167/270 265/166/270
f 269/174/271 279/183/271 275/179/271
f 279/183/272 268/173/272 276/184/272
f 267/168/273 298/203/273 295/223/273
f 273/216/274 296/202/274 298/203/274
f 302/206/275 277/217/275 274/220/275
f 277/181/276 304/224/276 275/179/276
f 297/205/277 307/209/277 303/211/277
f 307/209/278 296/202/278 304/224/278
f 281/185/279 301/201/279 284/189/279
f 284/189/280 297/205/280 282/190/280
f 288/192/281 305/210/281 302/206/281
f 305/210/282 290/222/282 303/211/282
f 289/221/283 286/188/283 293/197/283
f 293/197/284 282/190/284 290/222/284
f 253/150/285 287/187/285 256/218/285
f 256/155/286 283/191/286 254/153/286
f 288/192/287 263/164/287 291/196/287
f 291/196/288 260/159/288 289/221/288
f 267/168/289 281/185/289 253/150/289
f 255/158/290 276/184/290 268/173/290
f 283/191/291 260/159/291 254/153/291
f 274/220/292 288/192/292 302/206/292
f 275/179/293 296/202/293 269/174/293
f 303/211/294 282/190/294 297/205/294
f 1/1/349 4/133/349 5/2/349
f 2/4/350 6/115/350 5/5/350
f 3/7/351 7/112/351 5/8/351
f 8/10/352 11/114/352 12/11/352
f 9/13/353 13/116/353 12/14/353
f 10/16/354 14/134/354 12/17/354
f 15/19/355 18/231/355 19/20/355
f 16/22/356 20/26/356 19/23/356
f 17/25/357 21/117/357 19/23/357
f 22/27/358 25/120/358 26/28/358
f 23/30/359 27/34/359 26/31/359
f 24/33/360 28/113/360 26/31/360
f 29/35/361 32/118/361 33/36/361
f 30/38/362 34/42/362 33/39/362
f 31/41/363 35/121/363 33/39/363
f 36/43/364 39/123/364 40/44/364
f 37/46/365 41/49/365 40/47/365
f 38/30/366 42/119/366 40/47/366
f 43/50/367 46/232/367 47/51/367
f 44/53/368 48/57/368 47/54/368
f 45/56/369 49/124/369 47/54/369
f 50/58/370 53/126/370 54/59/370
f 51/61/371 55/64/371 54/62/371
f 52/46/372 56/122/372 54/62/372
f 57/65/373 60/233/373 61/66/373
f 58/68/374 62/72/374 61/69/374
f 59/71/375 63/127/375 61/69/375
f 64/73/376 67/149/376 68/74/376
f 65/76/377 69/80/377 68/77/377
f 66/79/378 70/125/378 68/77/378
f 71/81/379 74/128/379 75/82/379
f 72/84/380 76/88/380 75/85/380
f 73/87/381 77/130/381 75/85/381
f 78/89/382 81/234/382 82/90/382
f 79/92/383 83/95/383 82/93/383
f 80/76/384 84/129/384 82/93/384
f 85/96/385 88/235/385 89/97/385
f 86/99/386 90/103/386 89/100/386
f 87/102/387 91/132/387 89/100/387
f 92/104/388 95/236/388 96/105/388
f 93/107/389 97/111/389 96/108/389
f 94/110/390 98/131/390 96/108/390
f 3/7/43 16/22/43 18/24/43
f 7/3/44 18/231/44 15/19/44
f 24/33/391 9/13/391 11/15/391
f 11/114/46 8/10/46 22/27/46
f 2/4/47 10/16/47 13/18/47
f 13/116/48 9/13/48 3/7/48
f 17/25/49 20/26/49 27/34/49
f 27/34/50 20/26/50 16/22/50
f 17/25/51 30/38/51 32/40/51
f 32/118/392 29/35/392 15/19/392
f 38/30/393 23/30/393 25/32/393
f 25/120/394 22/27/394 36/43/394
f 31/41/395 34/42/395 41/49/395
f 41/49/56 34/42/56 30/38/56
f 44/53/57 46/55/57 35/121/57
f 35/37/58 46/232/58 43/50/58
f 52/46/393 37/46/393 39/48/393
f 39/123/60 36/43/60 50/58/60
f 45/56/61 48/57/61 55/64/61
f 55/64/62 48/57/62 44/53/62
f 58/68/396 60/70/396 49/124/396
f 49/52/64 60/233/64 57/65/64
f 66/79/397 51/61/397 53/63/397
f 53/126/66 50/58/66 64/73/66
f 59/71/67 62/72/67 69/80/67
f 69/80/68 62/72/68 58/68/68
f 59/71/69 72/84/69 74/86/69
f 74/128/70 71/81/70 57/65/70
f 80/76/393 65/76/393 67/78/393
f 84/91/72 67/149/72 64/73/72
f 73/87/398 76/88/398 83/95/398
f 83/95/74 76/88/74 72/84/74
f 86/99/75 88/101/75 77/130/75
f 77/83/76 88/235/76 85/96/76
f 94/110/393 79/92/393 81/94/393
f 98/106/78 81/234/78 78/89/78
f 87/102/79 90/103/79 97/111/79
f 97/111/80 90/103/80 86/99/80
f 87/102/81 2/4/81 4/6/81
f 4/133/399 1/1/399 85/96/399
f 10/16/393 93/107/393 95/109/393
f 14/12/400 95/236/400 92/104/400
f 85/96/85 1/1/85 15/19/85
f 15/19/85 29/35/85 43/50/85
f 43/50/85 57/65/85 71/81/85
f 71/81/85 85/96/85 15/19/85
f 3/7/401 9/13/401 24/33/401
f 87/102/393 93/107/393 10/16/393
f 36/43/88 22/27/88 8/10/88
f 8/10/88 92/104/88 78/89/88
f 78/89/88 64/73/88 50/58/88
f 50/58/88 36/43/88 8/10/88
f 17/25/393 23/30/393 38/30/393
f 31/41/393 37/46/393 52/46/393
f 45/56/402 51/61/402 66/79/402
f 59/71/393 65/76/393 80/76/393
f 73/87/391 79/92/391 94/110/391
f 99/135/403 102/133/403 103/2/403
f 100/4/404 104/115/404 103/5/404
f 101/7/405 105/112/405 103/8/405
f 106/136/406 109/114/406 110/11/406
f 107/13/407 111/116/407 110/14/407
f 108/16/408 112/134/408 110/17/408
f 113/137/409 116/231/409 117/20/409
f 114/22/410 118/26/410 117/23/410
f 115/25/411 119/117/411 117/23/411
f 120/27/412 123/120/412 124/28/412
f 121/30/413 125/34/413 124/31/413
f 122/33/414 126/113/414 124/31/414
f 127/138/415 130/118/415 131/36/415
f 128/38/416 132/42/416 131/39/416
f 129/139/417 133/121/417 131/39/417
f 134/140/418 137/123/418 138/44/418
f 135/141/419 139/49/419 138/47/419
f 136/30/420 140/119/420 138/47/420
f 141/142/421 144/232/421 145/51/421
f 142/53/422 146/57/422 145/54/422
f 143/143/423 147/124/423 145/54/423
f 148/58/424 151/126/424 152/59/424
f 149/79/425 153/64/425 152/62/425
f 150/46/426 154/122/426 152/62/426
f 155/65/427 158/233/427 159/66/427
f 156/68/428 160/72/428 159/69/428
f 157/71/429 161/127/429 159/69/429
f 162/73/430 165/149/430 166/74/430
f 163/144/431 167/80/431 166/77/431
f 164/79/432 168/125/432 166/77/432
f 169/81/433 172/128/433 173/82/433
f 170/84/434 174/88/434 173/85/434
f 171/87/435 175/130/435 173/85/435
f 176/89/436 179/234/436 180/90/436
f 177/145/437 181/95/437 180/93/437
f 178/76/438 182/129/438 180/93/438
f 183/146/439 186/235/439 187/97/439
f 184/99/440 188/103/440 187/100/440
f 185/102/441 189/132/441 187/100/441
f 190/147/442 193/236/442 194/105/442
f 191/148/443 195/111/443 194/108/443
f 192/110/444 196/131/444 194/108/444
f 101/7/136 114/22/136 116/24/136
f 105/3/137 116/231/137 113/137/137
f 122/33/393 107/13/393 109/15/393
f 126/29/139 109/114/139 106/136/139
f 100/4/140 108/16/140 111/18/140
f 111/116/141 107/13/141 101/7/141
f 115/25/142 118/26/142 125/34/142
f 125/34/143 118/26/143 114/22/143
f 128/38/144 130/40/144 119/117/144
f 119/21/145 130/118/145 127/138/145
f 136/30/393 121/30/393 123/32/393
f 140/45/445 123/120/445 120/27/445
f 129/139/148 132/42/148 139/49/148
f 139/49/149 132/42/149 128/38/149
f 129/139/150 142/53/150 144/55/150
f 133/37/151 144/232/151 141/142/151
f 150/46/393 135/141/393 137/48/393
f 137/123/446 134/140/446 148/58/446
f 143/143/154 146/57/154 153/64/154
f 153/64/155 146/57/155 142/53/155
f 143/143/156 156/68/156 158/70/156
f 147/52/157 158/233/157 155/65/157
f 164/79/393 149/79/393 151/63/393
f 168/75/159 151/126/159 148/58/159
f 157/71/160 160/72/160 167/80/160
f 167/80/161 160/72/161 156/68/161
f 170/84/162 172/86/162 161/127/162
f 172/128/163 169/81/163 155/65/163
f 178/76/393 163/144/393 165/78/393
f 165/149/447 162/73/447 176/89/447
f 171/87/166 174/88/166 181/95/166
f 181/95/167 174/88/167 170/84/167
f 184/99/448 186/101/448 175/130/448
f 175/83/169 186/235/169 183/146/169
f 192/110/393 177/145/393 179/94/393
f 196/106/171 179/234/171 176/89/171
f 185/102/172 188/103/172 195/111/172
f 195/111/173 188/103/173 184/99/173
f 185/102/449 100/4/449 102/6/449
f 102/133/450 99/135/450 183/146/450
f 108/16/393 191/148/393 193/109/393
f 112/12/177 193/236/177 190/147/177
f 183/146/178 99/135/178 113/137/178
f 113/137/178 127/138/178 141/142/178
f 141/142/178 155/65/178 169/81/178
f 169/81/178 183/146/178 113/137/178
f 101/7/393 107/13/393 122/33/393
f 185/102/393 191/148/393 108/16/393
f 134/140/451 120/27/451 106/136/451
f 106/136/181 190/147/181 176/89/181
f 176/89/451 162/73/451 148/58/451
f 148/58/181 134/140/181 106/136/181
f 115/25/393 121/30/393 136/30/393
f 129/139/393 135/141/393 150/46/393
f 143/143/393 149/79/393 164/79/393
f 157/71/393 163/144/393 178/76/393
f 171/87/393 177/145/393 192/110/393
f 197/150/452 200/218/452 201/151/452
f 198/153/453 202/214/453 201/154/453
f 203/156/454 201/237/454 202/157/454
f 204/159/455 207/219/455 208/160/455
f 205/162/456 209/215/456 208/163/456
f 210/165/457 208/238/457 209/166/457
f 211/168/458 214/213/458 215/169/458
f 216/171/459 215/175/459 214/172/459
f 213/174/460 217/216/460 215/175/460
f 218/176/461 221/217/461 222/177/461
f 219/179/462 223/183/462 222/180/462
f 224/182/463 222/180/463 223/183/463
f 225/185/464 228/189/464 229/186/464
f 230/188/465 229/186/465 228/189/465
f 227/191/466 231/187/466 229/186/466
f 232/192/467 235/196/467 236/193/467
f 233/195/468 237/197/468 236/193/468
f 238/194/469 236/193/469 237/197/469
f 239/199/470 242/203/470 243/200/470
f 240/202/471 244/204/471 243/200/471
f 245/201/472 243/200/472 244/204/472
f 246/206/473 249/210/473 250/207/473
f 251/209/474 250/207/474 249/210/474
f 248/212/475 252/208/475 250/207/475
f 211/168/211 197/150/211 203/152/211
f 203/156/212 199/158/212 212/173/212
f 204/159/213 210/161/213 202/214/213
f 210/165/214 206/167/214 199/158/214
f 218/176/215 224/178/215 209/215/215
f 209/166/216 224/182/216 220/184/216
f 219/179/217 213/174/217 216/171/217
f 223/183/218 216/171/218 212/173/218
f 211/168/476 217/170/476 242/203/476
f 217/216/220 213/174/220 240/202/220
f 246/206/477 252/208/477 221/217/477
f 252/208/222 248/212/222 219/179/222
f 247/211/223 241/205/223 244/204/223
f 244/204/224 240/202/224 248/212/224
f 225/185/225 239/199/225 245/201/225
f 245/201/478 241/205/478 226/190/478
f 232/192/227 238/194/227 249/210/227
f 249/210/479 238/194/479 234/198/479
f 233/195/229 227/191/229 230/188/229
f 237/197/230 230/188/230 226/190/230
f 197/150/231 225/185/231 231/187/231
f 231/187/480 227/191/480 198/153/480
f 232/192/481 205/162/481 207/164/481
f 207/219/234 204/159/234 233/195/234
f 211/168/235 239/199/235 225/185/235
f 199/158/236 206/167/236 220/184/236
f 233/195/237 204/159/237 198/153/237
f 218/176/238 205/162/238 232/192/238
f 213/174/239 219/179/239 248/212/239
f 247/211/240 234/198/240 226/190/240
f 253/150/482 256/218/482 257/151/482
f 254/153/483 258/214/483 257/154/483
f 259/156/484 257/237/484 258/157/484
f 260/159/485 263/219/485 264/160/485
f 261/162/486 265/215/486 264/163/486
f 266/165/487 264/238/487 265/166/487
f 267/168/488 270/213/488 271/169/488
f 272/171/489 271/175/489 270/172/489
f 269/174/490 273/216/490 271/175/490
f 274/220/491 277/217/491 278/177/491
f 275/179/492 279/183/492 278/180/492
f 280/182/493 278/180/493 279/183/493
f 281/185/494 284/189/494 285/186/494
f 286/188/495 285/186/495 284/189/495
f 283/191/496 287/187/496 285/186/496
f 288/192/497 291/196/497 292/193/497
f 289/221/498 293/197/498 292/193/498
f 294/194/499 292/193/499 293/197/499
f 295/223/500 298/203/500 299/200/500
f 296/202/501 300/204/501 299/200/501
f 301/201/502 299/200/502 300/204/502
f 302/206/503 305/210/503 306/207/503
f 307/209/504 306/207/504 305/210/504
f 304/224/505 308/208/505 306/207/505
f 267/168/265 253/150/265 259/152/265
f 259/156/266 255/158/266 268/173/266
f 254/153/267 260/159/267 266/161/267
f 266/165/268 262/167/268 255/158/268
f 274/220/269 280/178/269 265/215/269
f 280/182/506 276/184/506 262/167/506
f 269/174/271 272/171/271 279/183/271
f 279/183/272 272/171/272 268/173/272
f 267/168/273 273/170/273 298/203/273
f 273/216/274 269/174/274 296/202/274
f 302/206/507 308/208/507 277/217/507
f 277/181/508 308/208/508 304/224/508
f 297/205/277 300/204/277 307/209/277
f 307/209/278 300/204/278 296/202/278
f 281/185/279 295/223/279 301/201/279
f 284/189/509 301/201/509 297/205/509
f 288/192/281 294/194/281 305/210/281
f 305/210/510 294/194/510 290/222/510
f 289/221/283 283/191/283 286/188/283
f 293/197/284 286/188/284 282/190/284
f 253/150/511 281/185/511 287/187/511
f 256/155/512 287/187/512 283/191/512
f 288/192/513 261/162/513 263/164/513
f 291/196/514 263/219/514 260/159/514
f 267/168/289 295/223/289 281/185/289
f 255/158/290 262/167/290 276/184/290
f 283/191/291 289/221/291 260/159/291
f 274/220/292 261/162/292 288/192/292
f 275/179/293 304/224/293 296/202/293
f 303/211/294 290/222/294 282/190/294
usemtl slate
f 309/150/295 313/151/295 315/152/295
f 310/153/296 313/154/296 312/155/296
f 315/156/297 314/157/297 311/158/297
f 316/159/298 320/160/298 322/161/298
f 317/162/299 320/163/299 319/164/299
f 322/165/300 321/166/300 318/167/300
f 323/225/301 327/169/301 329/170/301
f 328/171/302 326/172/302 324/226/302
f 325/227/303 327/175/303 328/171/303
f 330/220/304 334/177/304 336/178/304
f 331/179/305 334/180/305 333/181/305
f 336/182/306 335/183/306 332/228/306
f 337/185/307 341/186/307 343/187/307
f 342/188/308 340/189/308 338/190/308
f 339/191/309 341/186/309 342/188/309
f 344/192/310 348/193/310 350/229/310
f 345/221/311 348/193/311 347/196/311
f 350/229/312 349/197/312 346/230/312
f 351/199/313 355/200/313 357/201/313
f 352/202/314 355/200/314 354/203/314
f 357/201/315 356/204/315 353/205/315
f 358/206/316 362/207/316 364/208/316
f 363/209/317 361/210/317 359/211/317
f 360/212/318 362/207/318 363/209/318
f 309/150/319 326/213/319 323/225/319
f 315/156/320 324/226/320 326/172/320
f 316/159/321 314/214/321 310/153/321
f 314/157/322 318/167/322 311/158/322
f 330/220/323 321/215/323 317/162/323
f 321/166/324 332/228/324 318/167/324
f 325/227/325 335/183/325 331/179/325
f 335/183/326 324/226/326 332/228/326
f 323/225/327 354/203/327 351/199/327
f 329/216/328 352/202/328 354/203/328
f 358/206/329 333/217/329 330/220/329
f 333/181/330 360/212/330 331/179/330
f 359/211/331 356/204/331 363/209/331
f 356/204/332 360/212/332 363/209/332
f 337/185/333 357/201/333 340/189/333
f 340/189/334 353/205/334 338/190/334
f 358/206/335 350/229/335 361/210/335
f 361/210/336 346/230/336 359/211/336
f 339/191/337 349/197/337 345/221/337
f 349/197/338 338/190/338 346/230/338
f 309/150/339 343/187/339 312/218/339
f 343/187/340 310/153/340 312/155/340
f 344/192/341 319/164/341 347/196/341
f 319/219/342 345/221/342 347/196/342
f 323/225/343 337/185/343 309/150/343
f 318/167/344 324/226/344 311/158/344
f 345/221/345 310/153/345 339/191/345
f 358/206/346 317/162/346 344/192/346
f 325/227/347 360/212/347 352/202/347
f 359/211/348 338/190/348 353/205/348
f 309/150/515 312/218/515 313/151/515
f 310/153/516 314/214/516 313/154/516
f 315/156/517 313/237/517 314/157/517
f 316/159/518 319/219/518 320/160/518
f 317/162/519 321/215/519 320/163/519
f 322/165/520 320/238/520 321/166/520
f 323/225/521 326/213/521 327/169/521
f 328/171/522 327/175/522 326/172/522
f 325/227/523 329/216/523 327/175/523
f 330/220/524 333/217/524 334/177/524
f 331/179/525 335/183/525 334/180/525
f 336/182/526 334/180/526 335/183/526
f 337/185/527 340/189/527 341/186/527
f 342/188/528 341/186/528 340/189/528
f 339/191/529 343/187/529 341/186/529
f 344/192/530 347/196/530 348/193/530
f 345/221/531 349/197/531 348/193/531
f 350/229/532 348/193/532 349/197/532
f 351/199/533 354/203/533 355/200/533
f 352/202/534 356/204/534 355/200/534
f 357/201/535 355/200/535 356/204/535
f 358/206/536 361/210/536 362/207/536
f 363/209/537 362/207/537 361/210/537
f 360/212/538 364/208/538 362/207/538
f 309/150/539 315/152/539 326/213/539
f 315/156/540 311/158/540 324/226/540
f 316/159/321 322/161/321 314/214/321
f 314/157/541 322/165/541 318/167/541
f 330/220/542 336/178/542 321/215/542
f 321/166/543 336/182/543 332/228/543
f 325/227/325 328/171/325 335/183/325
f 335/183/326 328/171/326 324/226/326
f 323/225/544 329/170/544 354/203/544
f 329/216/328 325/227/328 352/202/328
f 358/206/329 364/208/329 333/217/329
f 333/181/545 364/208/545 360/212/545
f 359/211/331 353/205/331 356/204/331
f 356/204/332 352/202/332 360/212/332
f 337/185/546 351/199/546 357/201/546
f 340/189/547 357/201/547 353/205/547
f 358/206/548 344/192/548 350/229/548
f 361/210/336 350/229/336 346/230/336
f 339/191/337 342/188/337 349/197/337
f 349/197/338 342/188/338 338/190/338
f 309/150/549 337/185/549 343/187/549
f 343/187/340 339/191/340 310/153/340
f 344/192/341 317/162/341 319/164/341
f 319/219/550 316/159/550 345/221/550
f 323/225/343 351/199/343 337/185/343
f 318/167/344 332/228/344 324/226/344
f 345/221/345 316/159/345 310/153/345
f 358/206/346 330/220/346 317/162/346
f 325/227/347 331/179/347 360/212/347
f 359/211/348 346/230/348 338/190/348
