# Blender 4.5.10 LTS
# www.blender.org
mtllib stow_post_remodel_a.mtl
o stow_post_remodel_a
v 0.595778 -0.120935 -0.281114
v 0.572056 -0.100805 -0.280903
v 0.593965 -0.098800 -0.302902
v 0.475460 1.078647 -0.269585
v 0.495590 1.102368 -0.269375
v 0.497369 1.080652 -0.291584
v 0.701424 -0.112283 -0.281115
v 0.699611 -0.090148 -0.302904
v 0.721555 -0.088562 -0.280905
v 0.601237 1.111021 -0.269377
v 0.624959 1.090891 -0.269588
v 0.603015 1.089305 -0.291586
v 0.596221 -0.126234 0.274861
v 0.594443 -0.104518 0.297070
v 0.572499 -0.106104 0.275072
v 0.496033 1.097070 0.286600
v 0.475903 1.073348 0.286390
v 0.497847 1.074934 0.308388
v 0.701867 -0.117582 0.274859
v 0.721998 -0.093860 0.275069
v 0.700089 -0.095866 0.297069
v 0.601680 1.105722 0.286598
v 0.603493 1.083587 0.308386
v 0.625402 1.085592 0.286387
v -0.700437 -0.108899 -0.281790
v -0.720393 -0.085030 -0.281583
v -0.698631 -0.086921 -0.303738
v -0.616706 1.076136 -0.278869
v -0.592837 1.096093 -0.278974
v -0.594944 1.074245 -0.301024
v -0.594860 -0.118325 -0.282541
v -0.593054 -0.096347 -0.304489
v -0.570991 -0.098368 -0.282646
v -0.487260 1.086667 -0.279725
v -0.467304 1.062798 -0.279932
v -0.489367 1.064819 -0.301775
v -0.696629 -0.110539 0.274194
v -0.694521 -0.088691 0.296245
v -0.716584 -0.086670 0.274402
v -0.589028 1.094453 0.277011
v -0.612897 1.074497 0.277115
v -0.590834 1.072476 0.298959
v -0.591051 -0.119964 0.273443
v -0.567182 -0.100008 0.273339
v -0.588944 -0.098117 0.295494
v -0.483451 1.085028 0.276260
v -0.485257 1.063050 0.298208
v -0.463495 1.061159 0.276053
v 0.540176 0.144004 -0.274543
v 0.540250 0.160569 -0.291574
v 0.557132 0.160643 -0.274857
v 0.548379 1.026847 -0.303621
v 0.548620 1.043877 -0.287057
v 0.565261 1.026921 -0.286904
v 0.540356 0.144508 -0.238146
v 0.557312 0.161147 -0.238461
v 0.540597 0.161539 -0.221582
v 0.548800 1.044382 -0.250661
v 0.548726 1.027817 -0.233629
v 0.565441 1.027425 -0.250508
v -0.553645 0.154341 -0.269270
v -0.570287 0.171298 -0.269423
v -0.553571 0.170906 -0.286302
v -0.545201 1.054215 -0.281785
v -0.545442 1.037184 -0.298349
v -0.562158 1.037576 -0.281470
v -0.553465 0.154846 -0.232874
v -0.553224 0.171876 -0.216310
v -0.570106 0.171802 -0.233027
v -0.545021 1.054719 -0.245388
v -0.561977 1.038080 -0.245074
v -0.545095 1.038154 -0.228357
v 0.539982 0.269866 -0.271937
v 0.539365 0.289054 -0.291139
v 0.558878 0.289363 -0.272259
v 0.538716 0.330649 -0.291150
v 0.538734 0.349856 -0.271958
v 0.558229 0.330958 -0.272270
v 0.548607 0.270137 0.249592
v 0.567503 0.289634 0.249269
v 0.548625 0.289345 0.268784
v 0.547360 0.350127 0.249571
v 0.547977 0.330939 0.268773
v 0.566854 0.331229 0.249258
v -0.557417 0.252756 -0.253779
v -0.576912 0.271655 -0.253466
v -0.558034 0.271944 -0.272981
v -0.558665 0.332747 -0.253800
v -0.558683 0.313539 -0.272992
v -0.577560 0.313250 -0.253477
v -0.548792 0.253027 0.267750
v -0.548774 0.272235 0.286942
v -0.568286 0.271926 0.268062
v -0.550039 0.333017 0.267729
v -0.568935 0.313520 0.268051
v -0.549422 0.313830 0.286931
v 0.554539 0.698418 -0.257060
v 0.554398 0.715258 -0.273819
v 0.571123 0.715431 -0.256946
v 0.553933 0.751655 -0.273732
v 0.553646 0.768413 -0.256892
v 0.570659 0.751828 -0.256859
v 0.552423 0.697227 0.229334
v 0.569007 0.714240 0.229448
v 0.552135 0.713985 0.246174
v 0.551529 0.767221 0.229502
v 0.551670 0.750381 0.246261
v 0.568542 0.750637 0.229535
v -0.537001 0.684492 -0.261844
v -0.554014 0.701076 -0.261878
v -0.537143 0.701332 -0.278604
v -0.537895 0.754486 -0.261677
v -0.537607 0.737729 -0.278517
v -0.554479 0.737473 -0.261791
v -0.539118 0.683300 0.224549
v -0.539406 0.700058 0.241389
v -0.556131 0.699885 0.224516
v -0.540012 0.753295 0.224717
v -0.556596 0.736282 0.224603
v -0.539871 0.736455 0.241477
v 0.551250 0.251396 0.244208
v 0.551111 0.268473 0.227692
v 0.567803 0.268435 0.244599
v 0.547804 0.494818 0.231469
v 0.547453 0.511332 0.248547
v 0.564496 0.494779 0.248377
v 0.551021 0.250785 0.280603
v 0.567574 0.267824 0.280993
v 0.550670 0.267299 0.297680
v 0.547224 0.510721 0.284941
v 0.547363 0.493643 0.301458
v 0.564267 0.494169 0.284771
v -0.541477 0.235551 0.237064
v -0.558520 0.252103 0.237235
v -0.541616 0.252629 0.220547
v -0.545274 0.495487 0.241403
v -0.544923 0.478973 0.224325
v -0.561827 0.478448 0.241013
v -0.541706 0.234940 0.273459
v -0.542057 0.251454 0.290536
v -0.558749 0.251493 0.273629
v -0.545503 0.494876 0.277797
v -0.562056 0.477837 0.277407
v -0.545363 0.477798 0.294314
v 0.737341 0.081472 -0.044768
v 0.736729 0.103497 -0.066735
v 0.759095 0.103712 -0.045107
v 0.735895 0.179492 -0.066630
v 0.736023 0.201464 -0.044603
v 0.758260 0.179708 -0.045003
v 0.738619 0.081381 0.031221
v 0.760372 0.103622 0.030882
v 0.738747 0.103354 0.053248
v 0.737301 0.201374 0.031386
v 0.737912 0.179349 0.053353
v 0.759538 0.179617 0.030986
v -0.723465 0.065395 -0.020219
v -0.745702 0.087152 -0.019820
v -0.724076 0.087420 -0.042186
v -0.724783 0.185388 -0.020054
v -0.724911 0.163416 -0.042082
v -0.746536 0.163147 -0.019715
v -0.722187 0.065305 0.055770
v -0.722059 0.087277 0.077797
v -0.744424 0.087062 0.056170
v -0.723505 0.185298 0.055935
v -0.745258 0.163057 0.056274
v -0.722893 0.163273 0.077901
v 0.755506 1.110491 -0.325761
v 0.755245 1.132567 -0.347683
v 0.777189 1.132804 -0.325629
v 0.754014 1.218557 -0.347382
v 0.753645 1.240477 -0.325305
v 0.775958 1.218794 -0.325327
v 0.753899 1.108168 0.330233
v 0.775582 1.130480 0.330365
v 0.753530 1.130088 0.352310
v 0.752037 1.238154 0.330689
v 0.752299 1.216078 0.352611
v 0.774350 1.216471 0.330667
v -0.761742 1.088775 -0.329555
v -0.784054 1.110458 -0.329533
v -0.762003 1.110851 -0.351478
v -0.763603 1.218761 -0.329100
v -0.763234 1.196841 -0.351177
v -0.785286 1.196449 -0.329232
v -0.763349 1.086452 0.326438
v -0.763718 1.108372 0.348515
v -0.785662 1.108135 0.326461
v -0.765211 1.216438 0.326894
v -0.786893 1.194125 0.326762
v -0.764949 1.194362 0.348817
v 0.150562 1.232301 0.094800
v 0.150950 1.249287 0.078193
v 0.167466 1.248990 0.095271
v 0.151180 1.285684 0.078605
v 0.151004 1.302295 0.095592
v 0.167695 1.285387 0.095682
v 0.146765 1.229765 0.321154
v 0.163668 1.246454 0.321625
v 0.146589 1.246375 0.338141
v 0.147207 1.299759 0.321946
v 0.146819 1.282772 0.338552
v 0.163898 1.282851 0.322036
v -0.159607 1.234316 0.089619
v -0.176298 1.251223 0.089529
v -0.159219 1.251302 0.073013
v -0.159166 1.304310 0.090411
v -0.158990 1.287699 0.073424
v -0.176069 1.287620 0.089940
v -0.163404 1.231780 0.315973
v -0.163580 1.248390 0.332960
v -0.180096 1.248687 0.315883
v -0.162963 1.301774 0.316765
v -0.179866 1.285084 0.316294
v -0.163350 1.284787 0.333371
v 0.125408 1.245815 0.168146
v 0.132968 1.266481 0.146151
v 0.153802 1.258531 0.167848
v 0.253537 1.582590 0.146203
v 0.261658 1.603035 0.168205
v 0.274371 1.574640 0.167900
v 0.126249 1.245483 0.234140
v 0.154643 1.258199 0.233842
v 0.134369 1.265928 0.256141
v 0.262499 1.602703 0.234198
v 0.254939 1.582037 0.256193
v 0.275212 1.574308 0.233894
v 0.054404 1.272897 0.169187
v 0.041691 1.301292 0.169492
v 0.061964 1.293563 0.147192
v 0.190654 1.630117 0.169246
v 0.182534 1.609672 0.147244
v 0.162260 1.617401 0.169544
v 0.055245 1.272565 0.235181
v 0.063366 1.293010 0.257182
v 0.042532 1.300960 0.235485
v 0.191495 1.629785 0.235240
v 0.163101 1.617069 0.235538
v 0.183935 1.609119 0.257234
v -0.052313 1.272008 0.166337
v -0.060420 1.292584 0.144453
v -0.039637 1.300421 0.166239
v -0.182527 1.611454 0.146237
v -0.190155 1.631968 0.168350
v -0.161743 1.619291 0.168023
v -0.051594 1.271914 0.232333
v -0.038917 1.300327 0.232235
v -0.059221 1.292428 0.254446
v -0.189435 1.631874 0.234346
v -0.181328 1.611298 0.256230
v -0.161024 1.619197 0.234019
v -0.123283 1.244827 0.167072
v -0.151694 1.257504 0.167399
v -0.131390 1.265403 0.145188
v -0.261124 1.604787 0.169086
v -0.253496 1.584274 0.146972
v -0.273800 1.576374 0.169183
v -0.122563 1.244733 0.233068
v -0.130191 1.265247 0.255181
v -0.150974 1.257410 0.233395
v -0.260405 1.604693 0.235082
v -0.273081 1.576281 0.235179
v -0.252297 1.584117 0.256965
v 0.008511 1.335045 0.194771
v -0.057567 1.395499 0.149793
v 0.032218 1.397374 0.119957
v 0.088379 1.395571 0.196101
v 0.033302 1.392581 0.272995
v -0.056897 1.392537 0.244374
v -0.018537 1.493390 0.123324
v 0.071662 1.493434 0.151944
v 0.072332 1.490472 0.246526
v -0.017453 1.488597 0.276362
v -0.073614 1.490400 0.200218
v 0.006254 1.550927 0.201548
v 0.022644 1.352730 0.150202
v -0.030131 1.351628 0.167739
v -0.016196 1.388264 0.123764
v -0.068577 1.385421 0.196895
v -0.029737 1.349887 0.223332
v 0.055654 1.351670 0.194958
v 0.069589 1.388306 0.150983
v 0.023281 1.349913 0.240155
v 0.070226 1.385489 0.240937
v -0.015165 1.383706 0.269311
v -0.078403 1.442943 0.170940
v -0.078009 1.441202 0.226534
v 0.006745 1.445803 0.108206
v -0.046029 1.444701 0.125742
v 0.092774 1.444769 0.169785
v 0.059764 1.445829 0.125028
v 0.060794 1.441271 0.270576
v 0.093168 1.443028 0.225379
v -0.044999 1.440142 0.271290
v 0.008020 1.440168 0.288113
v -0.055461 1.500482 0.155382
v 0.029930 1.502266 0.127008
v 0.083342 1.500550 0.199424
v 0.030961 1.497707 0.272555
v -0.054824 1.497665 0.245335
v -0.008516 1.536059 0.156164
v -0.040889 1.534301 0.201361
v 0.044502 1.536085 0.172987
v 0.044896 1.534344 0.228580
v -0.007879 1.533242 0.246117
vn -0.5288 -0.6170 -0.5828
vn -0.6230 0.5338 -0.5718
vn 0.6221 -0.5228 -0.5829
vn 0.5278 0.6280 -0.5718
vn -0.5278 -0.6280 0.5718
vn -0.6221 0.5228 0.5829
vn 0.6230 -0.5338 0.5718
vn 0.5288 0.6170 0.5828
vn 0.0572 -0.6980 -0.7138
vn -0.7053 -0.0510 -0.7071
vn -0.0583 0.7115 -0.7003
vn 0.7042 0.0645 -0.7071
vn 0.7625 -0.6470 -0.0068
vn 0.6470 0.7624 0.0068
vn 0.7053 0.0510 0.7071
vn 0.0583 -0.7115 0.7003
vn -0.0572 0.6980 0.7138
vn -0.7042 -0.0645 0.7071
vn -0.6470 -0.7624 -0.0068
vn -0.7625 0.6470 0.0068
vn 0.0816 -0.9966 -0.0096
vn -0.0008 0.0095 -1.0000
vn -0.9967 -0.0816 -0.0000
vn -0.0816 0.9966 0.0096
vn 0.9967 0.0816 -0.0000
vn 0.0008 -0.0095 1.0000
vn -0.6304 -0.5220 -0.5746
vn -0.5277 0.6281 -0.5719
vn 0.5197 -0.6247 -0.5828
vn 0.6224 0.5254 -0.5801
vn -0.6224 -0.5254 0.5801
vn -0.5197 0.6247 0.5828
vn 0.5276 -0.6281 0.5719
vn 0.6304 0.5220 0.5746
vn -0.0677 -0.7022 -0.7087
vn -0.7091 0.0650 -0.7021
vn 0.0580 0.7064 -0.7054
vn 0.6994 -0.0608 -0.7121
vn 0.6414 -0.7672 -0.0067
vn 0.7672 0.6414 -0.0034
vn 0.7091 -0.0650 0.7021
vn -0.0580 -0.7064 0.7054
vn 0.0677 0.7022 0.7087
vn -0.6994 0.0608 0.7121
vn -0.7672 -0.6414 0.0034
vn -0.6414 0.7672 0.0067
vn -0.0889 -0.9960 -0.0023
vn -0.0068 0.0029 -1.0000
vn -0.9960 0.0889 0.0071
vn 0.0889 0.9960 0.0023
vn 0.9960 -0.0889 -0.0071
vn 0.0068 -0.0029 1.0000
vn 0.5690 -0.5907 -0.5720
vn 0.5799 0.5638 -0.5881
vn 0.5748 -0.5747 0.5825
vn 0.5856 0.5798 0.5665
vn -0.5856 -0.5798 -0.5665
vn -0.5748 0.5747 -0.5825
vn -0.5799 -0.5638 0.5881
vn -0.5690 0.5907 0.5720
vn 0.7004 -0.7137 0.0064
vn 0.7036 -0.0165 -0.7104
vn 0.7137 0.7003 -0.0132
vn 0.7106 0.0031 0.7036
vn -0.0031 -0.6972 0.7169
vn 0.0101 0.7168 0.6972
vn -0.7036 0.0165 0.7104
vn -0.7137 -0.7003 0.0132
vn -0.7004 0.7137 -0.0064
vn -0.7106 -0.0031 -0.7036
vn -0.0101 -0.7168 -0.6972
vn 0.0031 0.6972 -0.7169
vn -0.0094 -0.9999 0.0139
vn 0.9999 -0.0095 -0.0048
vn -0.0050 -0.0139 -0.9999
vn 0.0094 0.9999 -0.0139
vn 0.0050 0.0139 0.9999
vn -0.9999 0.0095 0.0048
vn 0.5767 -0.5686 -0.5867
vn 0.5586 0.5860 -0.5870
vn 0.5957 -0.5680 0.5679
vn 0.5777 0.5866 0.5676
vn -0.5777 -0.5866 -0.5676
vn -0.5958 0.5680 -0.5679
vn -0.5587 -0.5860 0.5870
vn -0.5767 0.5686 0.5867
vn 0.7179 -0.6960 -0.0115
vn 0.6952 0.0107 -0.7187
vn 0.6959 0.7180 -0.0119
vn 0.7186 0.0114 0.6953
vn 0.0227 -0.7067 0.7072
vn 0.0007 0.7074 0.7068
vn -0.6952 -0.0107 0.7187
vn -0.6959 -0.7180 0.0119
vn -0.7179 0.6960 0.0115
vn -0.7186 -0.0114 -0.6953
vn -0.0007 -0.7074 -0.7068
vn -0.0227 0.7067 -0.7072
vn 0.0156 -0.9999 0.0003
vn 0.9997 0.0156 -0.0165
vn -0.0165 -0.0005 -0.9999
vn -0.0156 0.9999 -0.0003
vn 0.0165 0.0005 0.9999
vn -0.9997 -0.0156 0.0165
vn 0.5872 -0.5685 -0.5762
vn 0.5724 0.5861 -0.5734
vn 0.5822 -0.5714 0.5785
vn 0.5674 0.5833 0.5813
vn -0.5674 -0.5832 -0.5813
vn -0.5822 0.5714 -0.5785
vn -0.5724 -0.5861 0.5734
vn -0.5872 0.5685 0.5762
vn 0.7161 -0.6980 0.0014
vn 0.7101 0.0108 -0.7040
vn 0.6980 0.7161 0.0048
vn 0.7040 0.0073 0.7102
vn 0.0060 -0.7088 0.7054
vn -0.0121 0.7053 0.7088
vn -0.7101 -0.0108 0.7040
vn -0.6980 -0.7161 -0.0048
vn -0.7161 0.6980 -0.0014
vn -0.7040 -0.0073 -0.7102
vn 0.0121 -0.7053 -0.7088
vn -0.0060 0.7088 -0.7054
vn 0.0128 -0.9999 -0.0024
vn 0.9999 0.0128 0.0044
vn 0.0044 0.0024 -1.0000
vn -0.0128 0.9999 0.0024
vn -0.0044 -0.0025 1.0000
vn -0.9999 -0.0128 -0.0044
vn 0.5893 -0.5592 -0.5831
vn 0.5725 0.5953 -0.5639
vn 0.5821 -0.5785 0.5714
vn 0.5652 0.5759 0.5907
vn -0.5652 -0.5759 -0.5907
vn -0.5821 0.5785 -0.5714
vn -0.5725 -0.5953 0.5638
vn -0.5893 0.5591 0.5831
vn 0.7173 -0.6967 -0.0072
vn 0.7115 0.0221 -0.7024
vn 0.6967 0.7172 0.0164
vn 0.7026 -0.0016 0.7116
vn 0.0059 -0.7188 0.6952
vn -0.0148 0.6951 0.7188
vn -0.7115 -0.0221 0.7024
vn -0.6967 -0.7172 -0.0164
vn -0.7173 0.6967 0.0072
vn -0.7026 0.0016 -0.7116
vn 0.0148 -0.6951 -0.7188
vn -0.0059 0.7188 -0.6952
vn 0.0146 -0.9998 -0.0167
vn 0.9999 0.0145 0.0065
vn 0.0063 0.0168 -0.9998
vn -0.0146 0.9998 0.0167
vn -0.0063 -0.0168 0.9998
vn -0.9999 -0.0145 -0.0065
vn 0.5739 -0.5703 -0.5878
vn 0.5612 0.5844 -0.5862
vn 0.5933 -0.5717 0.5668
vn 0.5806 0.5830 0.5684
vn -0.5806 -0.5830 -0.5684
vn -0.5933 0.5716 -0.5668
vn -0.5612 -0.5844 0.5862
vn -0.5739 0.5703 0.5878
vn 0.7147 -0.6993 -0.0129
vn 0.6951 0.0086 -0.7189
vn 0.6992 0.7148 -0.0109
vn 0.7189 0.0069 0.6951
vn 0.0197 -0.7079 0.7060
vn 0.0041 0.7062 0.7080
vn -0.6951 -0.0086 0.7189
vn -0.6992 -0.7148 0.0109
vn -0.7147 0.6993 0.0129
vn -0.7189 -0.0069 -0.6951
vn -0.0041 -0.7062 -0.7080
vn -0.0197 0.7079 -0.7060
vn 0.0110 -0.9999 -0.0014
vn 0.9998 0.0110 -0.0168
vn -0.0168 0.0012 -0.9999
vn -0.0110 0.9999 0.0014
vn 0.0168 -0.0012 0.9999
vn -0.9998 -0.0110 0.0168
vn 0.5870 -0.5670 -0.5779
vn 0.5704 0.5876 -0.5739
vn 0.5841 -0.5711 0.5768
vn 0.5676 0.5835 0.5808
vn -0.5676 -0.5835 -0.5808
vn -0.5841 0.5711 -0.5768
vn -0.5704 -0.5876 0.5739
vn -0.5870 0.5670 0.5779
vn 0.7172 -0.6969 -0.0007
vn 0.7088 0.0126 -0.7053
vn 0.6969 0.7171 0.0042
vn 0.7053 0.0076 0.7089
vn 0.0084 -0.7095 0.7046
vn -0.0119 0.7045 0.7096
vn -0.7088 -0.0126 0.7053
vn -0.6969 -0.7171 -0.0042
vn -0.7172 0.6969 0.0007
vn -0.7053 -0.0076 -0.7089
vn 0.0119 -0.7045 -0.7096
vn -0.0084 0.7095 -0.7046
vn 0.0143 -0.9999 -0.0035
vn 0.9999 0.0143 0.0025
vn 0.0025 0.0035 -1.0000
vn -0.0143 0.9999 0.0035
vn -0.0025 -0.0035 1.0000
vn -0.9999 -0.0143 -0.0025
vn 0.5833 -0.5746 -0.5741
vn 0.5906 0.5800 -0.5611
vn 0.5639 -0.5875 0.5803
vn 0.5712 0.5671 0.5934
vn -0.5712 -0.5671 -0.5934
vn -0.5639 0.5875 -0.5803
vn -0.5906 -0.5800 0.5611
vn -0.5833 0.5746 0.5741
vn 0.7025 -0.7116 0.0038
vn 0.7189 0.0033 -0.6952
vn 0.7115 0.7025 0.0198
vn 0.6951 -0.0125 0.7188
vn -0.0163 -0.7150 0.6990
vn -0.0074 0.6991 0.7150
vn -0.7189 -0.0033 0.6952
vn -0.7114 -0.7025 -0.0198
vn -0.7025 0.7116 -0.0038
vn -0.6951 0.0125 -0.7188
vn 0.0074 -0.6991 -0.7150
vn 0.0163 0.7150 -0.6990
vn -0.0063 -0.9999 -0.0113
vn 0.9998 -0.0065 0.0167
vn 0.0168 0.0112 -0.9998
vn 0.0063 0.9999 0.0113
vn -0.0168 -0.0112 0.9998
vn -0.9998 0.0065 -0.0167
vn 0.3263 -0.7423 -0.5853
vn 0.7378 0.3366 -0.5851
vn 0.3410 -0.7481 0.5693
vn 0.7525 0.3308 0.5695
vn -0.7525 -0.3308 -0.5695
vn -0.3410 0.7481 -0.5693
vn -0.7378 -0.3366 0.5851
vn -0.3263 0.7423 0.5853
vn 0.4086 -0.9127 -0.0098
vn 0.6516 -0.2484 -0.7167
vn 0.9126 0.4087 -0.0096
vn 0.6696 -0.2555 0.6974
vn -0.2430 -0.6642 0.7069
vn 0.2610 0.6571 0.7072
vn -0.6516 0.2484 0.7167
vn -0.9126 -0.4087 0.0096
vn -0.4086 0.9127 0.0098
vn -0.6696 0.2555 -0.6974
vn -0.2610 -0.6571 -0.7071
vn 0.2430 0.6642 -0.7069
vn -0.3564 -0.9343 -0.0002
vn 0.9343 -0.3563 -0.0137
vn -0.0127 0.0050 -0.9999
vn 0.3564 0.9343 0.0002
vn 0.0127 -0.0050 0.9999
vn -0.9343 0.3563 0.0137
vn 0.7393 -0.3319 -0.5859
vn 0.3264 0.7465 -0.5799
vn 0.7519 -0.3335 0.5687
vn 0.3390 0.7448 0.5747
vn -0.3390 -0.7448 -0.5747
vn -0.7519 0.3335 -0.5687
vn -0.3264 -0.7465 0.5799
vn -0.7393 0.3319 0.5859
vn 0.9132 -0.4074 -0.0105
vn 0.6526 0.2539 -0.7139
vn 0.4074 0.9132 -0.0031
vn 0.6680 0.2519 0.7002
vn 0.2606 -0.6613 0.7034
vn -0.2452 0.6593 0.7108
vn -0.6526 -0.2539 0.7139
vn -0.4074 -0.9132 0.0031
vn -0.9132 0.4075 0.0105
vn -0.6680 -0.2519 -0.7002
vn 0.2452 -0.6593 -0.7108
vn -0.2606 0.6613 -0.7034
vn 0.3576 -0.9339 -0.0052
vn 0.9338 0.3576 -0.0097
vn -0.0109 0.0014 -0.9999
vn -0.3576 0.9339 0.0052
vn 0.0109 -0.0014 0.9999
vn -0.9338 -0.3576 0.0097
vn -0.1130 -0.9107 -0.3972
vn -0.7481 -0.5912 -0.3014
vn 0.3221 -0.9105 -0.2592
vn 0.3254 -0.9248 0.1971
vn -0.1077 -0.9339 0.3410
vn -0.9194 -0.2812 -0.2751
vn -0.0290 -0.2501 -0.9678
vn 0.9055 -0.2602 -0.3352
vn 0.5927 -0.2975 0.7485
vn -0.5352 -0.3104 0.7856
vn -0.8075 -0.0952 -0.5821
vn 0.3017 -0.0720 -0.9507
vn 0.9955 -0.0943 -0.0100
vn 0.3151 -0.1312 0.9400
vn -0.7993 -0.1318 0.5864
vn -0.4503 0.6086 -0.6533
vn 0.4957 0.6172 -0.6110
vn 0.7481 0.5912 0.3013
vn -0.0419 0.5665 0.8230
vn -0.7826 0.5773 0.2330
vn -0.3221 0.9105 0.2592
vn -0.5515 0.7185 0.4238
vn -0.4408 0.5663 0.6964
vn 0.1130 0.9107 0.3972
vn 0.2057 0.7188 0.6641
vn 0.5046 0.5779 0.6414
vn 0.3786 0.9252 0.0263
vn 0.6680 0.7439 0.0186
vn 0.7441 0.6092 -0.2743
vn 0.1077 0.9339 -0.3410
vn 0.1966 0.7591 -0.6206
vn -0.0533 0.6169 -0.7852
vn -0.3254 0.9248 -0.1971
vn -0.5572 0.7433 -0.3702
vn -0.7856 0.5904 -0.1853
vn -0.9055 0.2602 0.3352
vn -0.7964 0.1304 0.5905
vn -0.5819 0.2498 0.7739
vn 0.0290 0.2501 0.9678
vn 0.3102 0.1309 0.9416
vn 0.5464 0.2609 0.7959
vn 0.9194 0.2812 0.2750
vn 0.9858 0.1676 -0.0017
vn 0.9155 0.2982 -0.2699
vn 0.5352 0.3104 -0.7856
vn 0.2969 0.1897 -0.9359
vn 0.0154 0.3102 -0.9506
vn -0.5927 0.2975 -0.7485
vn -0.8046 0.1667 -0.5699
vn -0.9100 0.2803 -0.3054
vn -0.3017 0.0720 0.9507
vn -0.2969 -0.1897 0.9359
vn -0.0154 -0.3102 0.9506
vn 0.8075 0.0952 0.5821
vn 0.8046 -0.1667 0.5699
vn 0.9100 -0.2803 0.3054
vn 0.7993 0.1318 -0.5864
vn 0.7964 -0.1304 -0.5905
vn 0.5819 -0.2498 -0.7739
vn -0.3151 0.1312 -0.9400
vn -0.3102 -0.1309 -0.9416
vn -0.5464 -0.2609 -0.7959
vn -0.9955 0.0943 0.0100
vn -0.9858 -0.1676 0.0017
vn -0.9155 -0.2982 0.2699
vn -0.4957 -0.6172 0.6110
vn -0.1965 -0.7591 0.6206
vn 0.0533 -0.6169 0.7852
vn 0.4503 -0.6086 0.6533
vn 0.5572 -0.7433 0.3702
vn 0.7856 -0.5904 0.1853
vn 0.7826 -0.5773 -0.2330
vn 0.5515 -0.7185 -0.4238
vn 0.4408 -0.5663 -0.6964
vn -0.7441 -0.6092 0.2743
vn -0.6680 -0.7439 -0.0186
vn -0.3786 -0.9252 -0.0263
vn 0.0419 -0.5665 -0.8230
vn -0.2057 -0.7188 -0.6641
vn -0.5046 -0.5779 -0.6414
vn 0.0069 -0.0029 1.0000
vn -0.7180 0.6960 0.0115
vn -0.0044 -0.0024 1.0000
vn 0.6969 0.7172 0.0042
vn -0.6969 -0.7172 -0.0042
vn -0.7115 -0.7025 -0.0198
vn 0.2610 0.6571 0.7071
vn -0.9132 0.4074 0.0105
vt 0.134167 0.713333
vt 0.134167 0.750000
vt 0.125000 0.713333
vt 0.620519 0.000000
vt 0.625000 0.036667
vt 0.620519 0.036667
vt 0.134167 0.536667
vt 0.125000 0.536667
vt 0.134167 0.500000
vt 0.625000 0.251060
vt 0.620519 0.259161
vt 0.620519 0.213333
vt 0.365833 0.713333
vt 0.379469 0.713333
vt 0.379141 0.758939
vt 0.632135 0.723490
vt 0.620519 0.759167
vt 0.620519 0.713426
vt 0.365833 0.536667
vt 0.379141 0.491061
vt 0.379470 0.536667
vt 0.632135 0.526510
vt 0.620519 0.536574
vt 0.620519 0.490833
vt 0.379481 0.036667
vt 0.379481 0.000000
vt 0.379481 0.213333
vt 0.620519 0.990833
vt 0.379481 0.990833
vt 0.865833 0.713333
vt 0.379481 0.259167
vt 0.134167 0.713333
vt 0.134167 0.750000
vt 0.620454 0.000000
vt 0.625000 0.036667
vt 0.620454 0.036667
vt 0.134167 0.500000
vt 0.625000 0.251060
vt 0.620454 0.259161
vt 0.620454 0.213333
vt 0.365833 0.713333
vt 0.379535 0.713333
vt 0.379200 0.758935
vt 0.632135 0.723490
vt 0.620454 0.759167
vt 0.620454 0.713427
vt 0.365833 0.536667
vt 0.379200 0.491065
vt 0.379535 0.536667
vt 0.632135 0.526510
vt 0.620454 0.536573
vt 0.620454 0.490833
vt 0.379546 0.036667
vt 0.379546 0.000000
vt 0.379546 0.259167
vt 0.625000 0.990833
vt 0.379546 0.213333
vt 0.379546 0.990833
vt 0.865833 0.536667
vt 0.128725 0.690000
vt 0.128725 0.750000
vt 0.125000 0.690000
vt 0.620333 0.000000
vt 0.625000 0.060000
vt 0.620333 0.060000
vt 0.128725 0.560000
vt 0.125000 0.560000
vt 0.128725 0.500000
vt 0.625000 0.251117
vt 0.620333 0.253724
vt 0.620333 0.190000
vt 0.371275 0.690000
vt 0.379645 0.690000
vt 0.379445 0.753627
vt 0.627265 0.714983
vt 0.620333 0.753725
vt 0.620333 0.690275
vt 0.371275 0.560000
vt 0.379445 0.496373
vt 0.379645 0.560000
vt 0.627265 0.535017
vt 0.620333 0.559725
vt 0.620333 0.496275
vt 0.379667 0.060000
vt 0.379667 0.000000
vt 0.379667 0.253725
vt 0.625000 0.996275
vt 0.379667 0.190000
vt 0.379667 0.996275
vt 0.871275 0.690000
vt 0.129225 0.741429
vt 0.129225 0.750000
vt 0.125000 0.741428
vt 0.565000 0.000000
vt 0.625000 0.008571
vt 0.565000 0.008571
vt 0.129225 0.508571
vt 0.125000 0.508571
vt 0.129225 0.500000
vt 0.625000 0.250041
vt 0.565000 0.254208
vt 0.565000 0.241429
vt 0.370775 0.741429
vt 0.434487 0.741429
vt 0.409847 0.752570
vt 0.629019 0.742053
vt 0.565000 0.754225
vt 0.565000 0.741502
vt 0.370775 0.508571
vt 0.409847 0.497430
vt 0.434487 0.508571
vt 0.629019 0.507946
vt 0.565000 0.508498
vt 0.565000 0.495775
vt 0.435000 0.008571
vt 0.435000 0.000000
vt 0.435000 0.241429
vt 0.625000 0.995775
vt 0.435000 0.995775
vt 0.870775 0.508571
vt 0.435000 0.254225
vt 0.128733 0.741923
vt 0.128732 0.750000
vt 0.125000 0.741923
vt 0.565000 0.000000
vt 0.625000 0.008077
vt 0.565000 0.008077
vt 0.128733 0.508077
vt 0.125000 0.508077
vt 0.128732 0.500000
vt 0.625000 0.250040
vt 0.565000 0.253719
vt 0.565000 0.241923
vt 0.371267 0.741923
vt 0.434517 0.741923
vt 0.410015 0.752269
vt 0.628561 0.742467
vt 0.565000 0.753733
vt 0.565000 0.741988
vt 0.371267 0.508077
vt 0.410015 0.497731
vt 0.434517 0.508077
vt 0.628561 0.507533
vt 0.565000 0.508012
vt 0.565000 0.496267
vt 0.435000 0.008077
vt 0.435000 0.253733
vt 0.565000 0.996268
vt 0.435000 0.241923
vt 0.435000 0.996267
vt 0.871267 0.508077
vt 0.128728 0.690000
vt 0.128728 0.750000
vt 0.125000 0.690000
vt 0.608846 0.000000
vt 0.625000 0.060000
vt 0.608846 0.060000
vt 0.128728 0.560000
vt 0.125000 0.560000
vt 0.128728 0.500000
vt 0.625000 0.251117
vt 0.608846 0.253725
vt 0.608846 0.190000
vt 0.371272 0.690000
vt 0.390886 0.690000
vt 0.389286 0.753378
vt 0.627267 0.714984
vt 0.608846 0.753728
vt 0.608846 0.690996
vt 0.371272 0.560000
vt 0.389286 0.496622
vt 0.390886 0.560000
vt 0.627267 0.535016
vt 0.608846 0.559004
vt 0.608846 0.496272
vt 0.391154 0.060000
vt 0.391154 0.000000
vt 0.391154 0.253729
vt 0.625000 0.996271
vt 0.391154 0.190000
vt 0.391154 0.996271
vt 0.871271 0.690000
vt 0.128654 0.704167
vt 0.128654 0.750000
vt 0.125000 0.704167
vt 0.579167 0.000000
vt 0.625000 0.045833
vt 0.579167 0.045833
vt 0.128654 0.545833
vt 0.125000 0.545833
vt 0.128654 0.500000
vt 0.625000 0.250799
vt 0.579167 0.253645
vt 0.579167 0.204167
vt 0.371346 0.704167
vt 0.419075 0.704167
vt 0.406580 0.752602
vt 0.627602 0.718420
vt 0.579167 0.753654
vt 0.579167 0.705925
vt 0.371346 0.545833
vt 0.406580 0.497398
vt 0.419075 0.545833
vt 0.627602 0.531580
vt 0.579167 0.544075
vt 0.579167 0.496346
vt 0.420833 0.045833
vt 0.420833 0.000000
vt 0.420833 0.253654
vt 0.579167 0.996346
vt 0.420833 0.204167
vt 0.420833 0.996346
vt 0.871346 0.545833
vt 0.128522 0.742143
vt 0.128522 0.750000
vt 0.125000 0.742143
vt 0.582692 0.000000
vt 0.625000 0.007857
vt 0.582692 0.007857
vt 0.128522 0.507857
vt 0.125000 0.507857
vt 0.128522 0.500000
vt 0.625000 0.250039
vt 0.582692 0.253514
vt 0.582692 0.242143
vt 0.371477 0.742143
vt 0.417086 0.742143
vt 0.405234 0.752594
vt 0.628365 0.742652
vt 0.582692 0.753522
vt 0.582692 0.742184
vt 0.371477 0.507857
vt 0.405234 0.497405
vt 0.417086 0.507857
vt 0.628365 0.507347
vt 0.582692 0.507816
vt 0.582692 0.496478
vt 0.417308 0.000000
vt 0.417308 0.007857
vt 0.417308 0.253522
vt 0.582692 0.996478
vt 0.417308 0.242143
vt 0.417308 0.996478
vt 0.871478 0.507857
vt 0.137216 0.733846
vt 0.137216 0.750000
vt 0.125000 0.733846
vt 0.625000 0.016154
vt 0.565000 0.016154
vt 0.137216 0.516154
vt 0.125000 0.516154
vt 0.137216 0.500000
vt 0.625000 0.249938
vt 0.565000 0.262065
vt 0.565000 0.233846
vt 0.362784 0.733846
vt 0.434004 0.733846
vt 0.407187 0.757511
vt 0.636098 0.736442
vt 0.565000 0.762216
vt 0.565000 0.734114
vt 0.362784 0.516154
vt 0.407187 0.492489
vt 0.434004 0.516154
vt 0.636098 0.513558
vt 0.565000 0.515886
vt 0.565000 0.487784
vt 0.435000 0.016154
vt 0.435000 0.262216
vt 0.625000 0.987784
vt 0.435000 0.233846
vt 0.565000 0.987784
vt 0.435000 0.987784
vt 0.862784 0.733846
vt 0.170833 0.700000
vt 0.170833 0.750000
vt 0.125000 0.700000
vt 0.610614 0.000000
vt 0.625000 0.050000
vt 0.610614 0.050000
vt 0.170833 0.550000
vt 0.125000 0.550000
vt 0.170833 0.500000
vt 0.625000 0.246847
vt 0.610614 0.295341
vt 0.610614 0.200000
vt 0.329167 0.700000
vt 0.389215 0.700000
vt 0.385090 0.792564
vt 0.657884 0.727075
vt 0.610614 0.795833
vt 0.610614 0.700593
vt 0.329167 0.550000
vt 0.385090 0.457436
vt 0.389215 0.550000
vt 0.657884 0.522925
vt 0.610614 0.549407
vt 0.610614 0.454167
vt 0.389386 0.000000
vt 0.389386 0.050000
vt 0.389386 0.200000
vt 0.625000 0.954167
vt 0.610614 0.954167
vt 0.389386 0.954167
vt 0.829167 0.550000
vt 0.389386 0.295833
vt 0.170833 0.750000
vt 0.125000 0.700000
vt 0.610731 0.000000
vt 0.610731 0.050000
vt 0.170833 0.550000
vt 0.625000 0.246847
vt 0.610731 0.295345
vt 0.610731 0.200000
vt 0.329167 0.700000
vt 0.389101 0.700000
vt 0.385018 0.792592
vt 0.657884 0.727075
vt 0.610731 0.795833
vt 0.610731 0.700588
vt 0.385018 0.457408
vt 0.389101 0.550000
vt 0.610731 0.549412
vt 0.610731 0.454167
vt 0.389269 0.050000
vt 0.389269 0.000000
vt 0.389269 0.200000
vt 0.610731 0.954167
vt 0.389269 0.954167
vt 0.389269 0.295833
vt 0.181819 0.000000
vt 0.227273 0.078731
vt 0.136365 0.078731
vt 0.272728 0.157461
vt 0.318182 0.078731
vt 0.363637 0.157461
vt 0.909091 0.000000
vt 0.954545 0.078731
vt 0.863636 0.078731
vt 0.727273 0.000000
vt 0.772727 0.078731
vt 0.681818 0.078731
vt 0.545455 0.000000
vt 0.590909 0.078731
vt 0.500000 0.078731
vt 0.318182 0.236191
vt 0.090910 0.157461
vt 0.181819 0.157461
vt 0.136365 0.236191
vt 0.818182 0.157461
vt 0.909091 0.157461
vt 0.863636 0.236191
vt 0.636364 0.157461
vt 0.727273 0.157461
vt 0.681818 0.236191
vt 0.454546 0.157461
vt 0.545455 0.157461
vt 0.500000 0.236191
vt 0.227273 0.236191
vt 0.045455 0.236191
vt 0.772727 0.236191
vt 0.590909 0.236191
vt 0.409092 0.236191
vt 0.181819 0.314921
vt 0.272728 0.314921
vt 0.227273 0.393651
vt 0.000000 0.314921
vt 0.090910 0.314921
vt 0.045455 0.393651
vt 0.727273 0.314921
vt 0.818182 0.314921
vt 0.772727 0.393651
vt 0.545455 0.314921
vt 0.636364 0.314921
vt 0.590909 0.393651
vt 0.363637 0.314921
vt 0.454546 0.314921
vt 0.409092 0.393651
vt 0.500000 0.393651
vt 0.454546 0.472382
vt 0.681818 0.393651
vt 0.636364 0.472382
vt 0.863636 0.393651
vt 0.818182 0.472382
vt 0.909091 0.314921
vt 0.136365 0.393651
vt 0.090910 0.472382
vt 0.318182 0.393651
vt 0.272728 0.472382
vt 0.954545 0.236191
vt 1.000000 0.157461
vt 0.409092 0.078731
vt 0.363637 0.000000
vt 0.620454 0.990833
vt 0.620333 0.996275
vt 0.871275 0.560000
vt 0.565000 0.995775
vt 0.870775 0.741429
vt 0.625000 0.996268
vt 0.871267 0.741923
vt 0.608846 0.996272
vt 0.871272 0.560000
vt 0.625000 0.996346
vt 0.871346 0.704167
vt 0.625000 0.996478
vt 0.871478 0.742143
vt 0.862784 0.516154
vt 0.829167 0.700000
s 0
usemtl wood
f 1/1/1 2/2/1 3/3/1
f 4/4/2 5/5/2 6/6/2
f 7/7/3 8/8/3 9/9/3
f 10/10/4 11/11/4 12/12/4
f 13/13/5 14/14/5 15/15/5
f 16/16/6 17/17/6 18/18/6
f 19/19/7 20/20/7 21/21/7
f 22/22/8 23/23/8 24/24/8
f 1/1/9 8/8/9 7/7/9
f 4/4/10 3/25/10 2/26/10
f 5/5/11 12/12/11 6/6/11
f 11/11/12 8/27/12 12/12/12
f 7/7/13 20/20/13 19/19/13
f 22/22/14 11/11/14 10/10/14
f 21/21/15 24/24/15 23/23/15
f 19/19/16 14/14/16 13/13/16
f 16/16/17 23/23/17 22/22/17
f 17/17/18 14/14/18 18/18/18
f 1/1/19 15/15/19 2/2/19
f 16/16/20 4/28/20 17/17/20
f 19/19/21 1/1/21 7/7/21
f 6/6/22 8/27/22 3/25/22
f 17/17/23 2/29/23 15/15/23
f 22/22/24 5/30/24 16/16/24
f 11/11/25 20/20/25 9/31/25
f 21/21/26 18/18/26 14/14/26
f 25/32/27 26/33/27 27/3/27
f 28/34/28 29/35/28 30/36/28
f 31/7/29 32/8/29 33/37/29
f 34/38/30 35/39/30 36/40/30
f 37/41/31 38/42/31 39/43/31
f 40/44/32 41/45/32 42/46/32
f 43/47/33 44/48/33 45/49/33
f 46/50/34 47/51/34 48/52/34
f 31/7/35 27/3/35 32/8/35
f 28/34/36 27/53/36 26/54/36
f 34/38/37 30/36/37 29/35/37
f 33/55/38 36/40/38 35/39/38
f 43/47/39 33/37/39 44/48/39
f 46/50/40 35/39/40 34/38/40
f 45/49/41 48/52/41 47/51/41
f 43/47/42 38/42/42 37/41/42
f 40/44/43 47/51/43 46/50/43
f 39/43/44 42/46/44 41/45/44
f 37/41/45 26/33/45 25/32/45
f 29/56/46 41/45/46 40/44/46
f 31/7/47 37/41/47 25/32/47
f 30/36/48 32/57/48 27/53/48
f 41/45/49 26/58/49 39/43/49
f 34/59/50 40/44/50 46/50/50
f 35/39/51 44/48/51 33/55/51
f 47/51/52 38/42/52 45/49/52
f 49/60/53 50/61/53 51/62/53
f 52/63/54 53/64/54 54/65/54
f 55/66/55 56/67/55 57/68/55
f 58/69/56 59/70/56 60/71/56
f 61/72/57 62/73/57 63/74/57
f 64/75/58 65/76/58 66/77/58
f 67/78/59 68/79/59 69/80/59
f 70/81/60 71/82/60 72/83/60
f 49/60/61 56/67/61 55/66/61
f 52/63/62 51/84/62 50/85/62
f 53/64/63 60/71/63 54/65/63
f 57/86/64 60/71/64 59/70/64
f 67/78/65 57/68/65 68/79/65
f 58/69/66 72/83/66 59/70/66
f 71/82/67 68/79/67 72/83/67
f 61/72/68 69/80/68 62/73/68
f 64/75/69 71/82/69 70/81/69
f 63/74/70 66/77/70 65/76/70
f 61/72/71 50/61/71 49/60/71
f 53/87/72 65/76/72 64/75/72
f 67/78/73 49/60/73 55/66/73
f 54/65/74 56/88/74 51/84/74
f 65/76/75 50/89/75 63/74/75
f 70/81/76 53/90/76 64/75/76
f 57/86/77 72/83/77 68/79/77
f 71/82/78 62/73/78 69/80/78
f 73/91/79 74/92/79 75/93/79
f 76/94/80 77/95/80 78/96/80
f 79/97/81 80/98/81 81/99/81
f 82/100/82 83/101/82 84/102/82
f 85/103/83 86/104/83 87/105/83
f 88/106/84 89/107/84 90/108/84
f 91/109/85 92/110/85 93/111/85
f 94/112/86 95/113/86 96/114/86
f 79/97/87 75/93/87 80/98/87
f 76/94/88 75/115/88 74/116/88
f 82/100/89 78/96/89 77/95/89
f 83/101/90 80/117/90 84/102/90
f 79/97/91 92/110/91 91/109/91
f 82/100/92 96/114/92 83/101/92
f 95/113/93 92/110/93 96/114/93
f 91/109/94 86/104/94 85/103/94
f 88/106/95 95/113/95 94/112/95
f 87/105/96 90/108/96 89/107/96
f 85/103/97 74/92/97 73/91/97
f 77/118/98 89/107/98 88/106/98
f 91/109/99 73/91/99 79/97/99
f 78/96/100 80/117/100 75/115/100
f 89/107/101 74/119/101 87/105/101
f 82/120/102 88/106/102 94/112/102
f 83/101/103 92/110/103 81/121/103
f 95/113/104 86/104/104 93/111/104
f 97/122/105 98/123/105 99/124/105
f 100/125/106 101/126/106 102/127/106
f 103/128/107 104/129/107 105/130/107
f 106/131/108 107/132/108 108/133/108
f 109/134/109 110/135/109 111/136/109
f 112/137/110 113/138/110 114/139/110
f 115/140/111 116/141/111 117/142/111
f 118/143/112 119/144/112 120/145/112
f 97/122/113 104/129/113 103/128/113
f 100/125/114 99/146/114 98/116/114
f 106/131/115 102/127/115 101/126/115
f 105/147/116 108/133/116 107/132/116
f 103/128/117 116/141/117 115/140/117
f 118/143/118 107/132/118 106/131/118
f 117/142/119 120/145/119 119/144/119
f 115/140/120 110/135/120 109/134/120
f 112/137/121 119/144/121 118/143/121
f 113/138/122 110/135/122 114/139/122
f 97/122/123 111/136/123 98/123/123
f 112/137/124 100/148/124 113/138/124
f 115/140/125 97/122/125 103/128/125
f 102/127/126 104/149/126 99/146/126
f 111/136/127 100/148/127 98/150/127
f 106/151/128 112/137/128 118/143/128
f 107/132/129 116/141/129 105/147/129
f 117/142/130 114/139/130 110/135/130
f 121/152/131 122/153/131 123/154/131
f 124/155/132 125/156/132 126/157/132
f 127/158/133 128/159/133 129/160/133
f 130/161/134 131/162/134 132/163/134
f 133/164/135 134/165/135 135/166/135
f 136/167/136 137/168/136 138/169/136
f 139/170/137 140/171/137 141/172/137
f 142/173/138 143/174/138 144/175/138
f 127/158/139 123/154/139 128/159/139
f 124/155/140 123/176/140 122/177/140
f 130/161/141 126/157/141 125/156/141
f 129/178/142 132/163/142 131/162/142
f 127/158/143 140/171/143 139/170/143
f 130/161/144 144/175/144 131/162/144
f 143/174/145 140/171/145 144/175/145
f 133/164/146 141/172/146 134/165/146
f 142/173/147 138/169/147 143/174/147
f 135/166/148 138/169/148 137/168/148
f 121/152/149 135/166/149 122/153/149
f 125/179/150 137/168/150 136/167/150
f 139/170/151 121/152/151 127/158/151
f 126/157/152 128/180/152 123/176/152
f 137/168/153 122/181/153 135/166/153
f 142/173/154 125/182/154 136/167/154
f 131/162/155 140/171/155 129/178/155
f 143/174/156 134/165/156 141/172/156
f 145/183/157 146/184/157 147/185/157
f 148/186/158 149/187/158 150/188/158
f 151/189/159 152/190/159 153/191/159
f 154/192/160 155/193/160 156/194/160
f 157/195/161 158/196/161 159/197/161
f 160/198/162 161/199/162 162/200/162
f 163/201/163 164/202/163 165/203/163
f 166/204/164 167/205/164 168/206/164
f 145/183/165 152/190/165 151/189/165
f 148/186/166 147/207/166 146/208/166
f 149/187/167 156/194/167 150/188/167
f 153/209/168 156/194/168 155/193/168
f 163/201/169 153/191/169 164/202/169
f 154/192/170 168/206/170 155/193/170
f 167/205/171 164/202/171 168/206/171
f 163/201/172 158/196/172 157/195/172
f 160/198/173 167/205/173 166/204/173
f 159/197/174 162/200/174 161/199/174
f 157/195/175 146/184/175 145/183/175
f 160/198/176 148/210/176 161/199/176
f 151/189/177 157/195/177 145/183/177
f 147/207/178 156/194/178 152/211/178
f 161/199/179 146/212/179 159/197/179
f 154/213/180 160/198/180 166/204/180
f 155/193/181 164/202/181 153/209/181
f 167/205/182 158/196/182 165/203/182
f 169/214/183 170/215/183 171/216/183
f 172/217/184 173/218/184 174/219/184
f 175/220/185 176/221/185 177/222/185
f 178/223/186 179/224/186 180/225/186
f 181/226/187 182/227/187 183/228/187
f 184/229/188 185/230/188 186/231/188
f 187/232/189 188/233/189 189/234/189
f 190/235/190 191/236/190 192/237/190
f 175/220/191 171/216/191 176/221/191
f 170/238/192 174/219/192 171/239/192
f 178/223/193 174/219/193 173/218/193
f 177/240/194 180/225/194 179/224/194
f 187/232/195 177/222/195 188/233/195
f 178/223/196 192/237/196 179/224/196
f 191/236/197 188/233/197 192/237/197
f 181/226/198 189/234/198 182/227/198
f 184/229/199 191/236/199 190/235/199
f 185/230/200 182/227/200 186/231/200
f 181/226/201 170/215/201 169/214/201
f 184/229/202 172/241/202 185/230/202
f 187/232/203 169/214/203 175/220/203
f 174/219/204 176/242/204 171/239/204
f 183/228/205 172/241/205 170/243/205
f 178/244/206 184/229/206 190/235/206
f 179/224/207 188/233/207 177/240/207
f 191/236/208 182/227/208 189/234/208
f 193/245/209 194/246/209 195/247/209
f 196/125/210 197/248/210 198/249/210
f 199/250/211 200/251/211 201/252/211
f 202/253/212 203/254/212 204/255/212
f 205/256/213 206/257/213 207/258/213
f 208/259/214 209/260/214 210/261/214
f 211/262/215 212/263/215 213/264/215
f 214/265/216 215/266/216 216/267/216
f 193/245/217 200/251/217 199/250/217
f 196/125/218 195/268/218 194/116/218
f 202/253/219 198/249/219 197/248/219
f 201/269/220 204/255/220 203/254/220
f 199/250/221 212/263/221 211/262/221
f 214/265/222 203/254/222 202/253/222
f 215/266/223 212/263/223 216/267/223
f 205/256/224 213/264/224 206/257/224
f 214/265/225 210/261/225 215/266/225
f 207/258/226 210/261/226 209/260/226
f 205/256/227 194/246/227 193/245/227
f 197/270/228 209/260/228 208/259/228
f 211/262/229 193/245/229 199/250/229
f 198/249/230 200/271/230 195/268/230
f 207/258/231 196/272/231 194/273/231
f 214/265/232 197/274/232 208/259/232
f 201/269/233 216/267/233 212/263/233
f 215/266/234 206/257/234 213/264/234
f 217/275/235 218/276/235 219/277/235
f 220/278/236 221/279/236 222/280/236
f 223/281/237 224/282/237 225/283/237
f 226/284/238 227/285/238 228/286/238
f 229/287/239 230/288/239 231/289/239
f 232/290/240 233/291/240 234/292/240
f 235/293/241 236/294/241 237/295/241
f 238/296/242 239/297/242 240/298/242
f 223/281/243 219/277/243 224/282/243
f 218/299/244 222/280/244 219/300/244
f 221/279/245 228/286/245 222/280/245
f 227/285/246 224/301/246 228/286/246
f 235/293/247 225/283/247 236/294/247
f 238/296/248 227/285/248 226/284/248
f 239/297/249 236/294/249 240/298/249
f 229/287/250 237/295/250 230/288/250
f 238/296/251 234/292/251 239/297/251
f 233/291/252 230/288/252 234/292/252
f 229/287/253 218/276/253 217/275/253
f 221/302/254 233/291/254 232/290/254
f 223/281/255 229/287/255 217/275/255
f 222/280/256 224/301/256 219/300/256
f 231/289/257 220/303/257 218/304/257
f 226/305/258 232/290/258 238/296/258
f 225/306/259 240/298/259 236/294/259
f 239/297/260 230/288/260 237/295/260
f 241/275/261 242/307/261 243/308/261
f 244/309/262 245/279/262 246/310/262
f 247/311/263 248/282/263 249/283/263
f 250/312/264 251/313/264 252/314/264
f 253/315/265 254/316/265 255/317/265
f 256/318/266 257/319/266 258/320/266
f 259/293/267 260/321/267 261/322/267
f 262/296/268 263/323/268 264/324/268
f 247/311/269 243/308/269 248/282/269
f 244/309/270 243/325/270 242/326/270
f 250/312/271 246/310/271 245/279/271
f 251/313/272 248/327/272 252/314/272
f 247/311/273 260/321/273 259/293/273
f 250/312/274 264/324/274 251/313/274
f 261/322/275 264/324/275 263/323/275
f 259/293/276 254/316/276 253/315/276
f 256/318/277 263/323/277 262/296/277
f 255/317/278 258/320/278 257/319/278
f 253/315/279 242/307/279 241/275/279
f 256/318/280 244/328/280 257/319/280
f 259/293/281 241/275/281 247/311/281
f 246/310/282 248/327/282 243/325/282
f 257/319/283 242/329/283 255/317/283
f 250/305/284 256/318/284 262/296/284
f 251/313/285 260/321/285 249/330/285
f 261/322/286 258/320/286 254/316/286
f 1/1/9 3/3/9 8/8/9
f 4/4/10 6/6/10 3/25/10
f 5/5/11 10/10/11 12/12/11
f 11/11/12 9/31/12 8/27/12
f 7/7/13 9/9/13 20/20/13
f 22/22/14 24/24/14 11/11/14
f 21/21/15 20/20/15 24/24/15
f 19/19/16 21/21/16 14/14/16
f 16/16/17 18/18/17 23/23/17
f 17/17/18 15/15/18 14/14/18
f 1/1/19 13/13/19 15/15/19
f 16/16/20 5/56/20 4/28/20
f 19/19/21 13/13/21 1/1/21
f 6/6/22 12/12/22 8/27/22
f 17/17/23 4/28/23 2/29/23
f 22/22/24 10/59/24 5/30/24
f 11/11/25 24/24/25 20/20/25
f 21/21/26 23/23/26 18/18/26
f 31/7/35 25/32/35 27/3/35
f 28/34/36 30/36/36 27/53/36
f 34/38/37 36/40/37 30/36/37
f 33/55/38 32/57/38 36/40/38
f 43/47/39 31/7/39 33/37/39
f 46/50/40 48/52/40 35/39/40
f 45/49/41 44/48/41 48/52/41
f 43/47/42 45/49/42 38/42/42
f 40/44/43 42/46/43 47/51/43
f 39/43/44 38/42/44 42/46/44
f 37/41/45 39/43/45 26/33/45
f 29/56/46 28/394/46 41/45/46
f 31/7/47 43/47/47 37/41/47
f 30/36/48 36/40/48 32/57/48
f 41/45/49 28/394/49 26/58/49
f 34/59/50 29/30/50 40/44/50
f 35/39/51 48/52/51 44/48/51
f 47/51/367 42/46/367 38/42/367
f 49/60/61 51/62/61 56/67/61
f 52/63/62 54/65/62 51/84/62
f 53/64/63 58/69/63 60/71/63
f 57/86/64 56/88/64 60/71/64
f 67/78/65 55/66/65 57/68/65
f 58/69/66 70/81/66 72/83/66
f 71/82/67 69/80/67 68/79/67
f 61/72/68 67/78/68 69/80/68
f 64/75/69 66/77/69 71/82/69
f 63/74/70 62/73/70 66/77/70
f 61/72/71 63/74/71 50/61/71
f 53/87/72 52/395/72 65/76/72
f 67/78/73 61/72/73 49/60/73
f 54/65/74 60/71/74 56/88/74
f 65/76/75 52/395/75 50/89/75
f 70/81/76 58/396/76 53/90/76
f 57/86/77 59/70/77 72/83/77
f 71/82/78 66/77/78 62/73/78
f 79/97/87 73/91/87 75/93/87
f 76/94/88 78/96/88 75/115/88
f 82/100/89 84/102/89 78/96/89
f 83/101/90 81/121/90 80/117/90
f 79/97/91 81/99/91 92/110/91
f 82/100/92 94/112/92 96/114/92
f 95/113/93 93/111/93 92/110/93
f 91/109/94 93/111/94 86/104/94
f 88/106/368 90/108/368 95/113/368
f 87/105/96 86/104/96 90/108/96
f 85/103/97 87/105/97 74/92/97
f 77/118/98 76/397/98 89/107/98
f 91/109/99 85/103/99 73/91/99
f 78/96/100 84/102/100 80/117/100
f 89/107/101 76/397/101 74/119/101
f 82/120/102 77/398/102 88/106/102
f 83/101/103 96/114/103 92/110/103
f 95/113/104 90/108/104 86/104/104
f 97/122/113 99/124/113 104/129/113
f 100/125/114 102/127/114 99/146/114
f 106/131/115 108/133/115 102/127/115
f 105/147/116 104/149/116 108/133/116
f 103/128/117 105/130/117 116/141/117
f 118/143/118 120/145/118 107/132/118
f 117/142/119 116/141/119 120/145/119
f 115/140/120 117/142/120 110/135/120
f 112/137/121 114/139/121 119/144/121
f 113/138/122 111/136/122 110/135/122
f 97/122/123 109/134/123 111/136/123
f 112/137/124 101/399/124 100/148/124
f 115/140/125 109/134/125 97/122/125
f 102/127/126 108/133/126 104/149/126
f 111/136/127 113/138/127 100/148/127
f 106/151/128 101/400/128 112/137/128
f 107/132/369 120/145/369 116/141/369
f 117/142/130 119/144/130 114/139/130
f 127/158/139 121/152/139 123/154/139
f 124/155/140 126/157/140 123/176/140
f 130/161/141 132/163/141 126/157/141
f 129/178/142 128/180/142 132/163/142
f 127/158/143 129/160/143 140/171/143
f 130/161/144 142/173/144 144/175/144
f 143/174/145 141/172/145 140/171/145
f 133/164/146 139/170/146 141/172/146
f 142/173/147 136/167/147 138/169/147
f 135/166/148 134/165/148 138/169/148
f 121/152/149 133/164/149 135/166/149
f 125/179/150 124/401/150 137/168/150
f 139/170/151 133/164/151 121/152/151
f 126/157/152 132/163/152 128/180/152
f 137/168/153 124/401/153 122/181/153
f 142/173/154 130/402/154 125/182/154
f 131/162/155 144/175/155 140/171/155
f 143/174/156 138/169/156 134/165/156
f 145/183/165 147/185/165 152/190/165
f 148/186/166 150/188/166 147/207/166
f 149/187/167 154/192/167 156/194/167
f 153/209/168 152/211/168 156/194/168
f 163/201/169 151/189/169 153/191/169
f 154/192/170 166/204/170 168/206/170
f 167/205/171 165/203/171 164/202/171
f 163/201/172 165/203/172 158/196/172
f 160/198/173 162/200/173 167/205/173
f 159/197/174 158/196/174 162/200/174
f 157/195/175 159/197/175 146/184/175
f 160/198/176 149/403/176 148/210/176
f 151/189/177 163/201/177 157/195/177
f 147/207/178 150/188/178 156/194/178
f 161/199/179 148/210/179 146/212/179
f 154/213/180 149/404/180 160/198/180
f 155/193/181 168/206/181 164/202/181
f 167/205/182 162/200/182 158/196/182
f 175/220/191 169/214/191 171/216/191
f 170/238/192 172/217/192 174/219/192
f 178/223/370 180/225/370 174/219/370
f 177/240/194 176/242/194 180/225/194
f 187/232/195 175/220/195 177/222/195
f 178/223/196 190/235/196 192/237/196
f 191/236/197 189/234/197 188/233/197
f 181/226/371 187/232/371 189/234/371
f 184/229/199 186/231/199 191/236/199
f 185/230/200 183/228/200 182/227/200
f 181/226/201 183/228/201 170/215/201
f 184/229/202 173/405/202 172/241/202
f 187/232/203 181/226/203 169/214/203
f 174/219/204 180/225/204 176/242/204
f 183/228/205 185/230/205 172/241/205
f 178/244/206 173/406/206 184/229/206
f 179/224/207 192/237/207 188/233/207
f 191/236/208 186/231/208 182/227/208
f 193/245/217 195/247/217 200/251/217
f 196/125/218 198/249/218 195/268/218
f 202/253/219 204/255/219 198/249/219
f 201/269/220 200/271/220 204/255/220
f 199/250/221 201/252/221 212/263/221
f 214/265/222 216/267/222 203/254/222
f 215/266/223 213/264/223 212/263/223
f 205/256/372 211/262/372 213/264/372
f 214/265/225 208/259/225 210/261/225
f 207/258/226 206/257/226 210/261/226
f 205/256/227 207/258/227 194/246/227
f 197/270/228 196/272/228 209/260/228
f 211/262/229 205/256/229 193/245/229
f 198/249/230 204/255/230 200/271/230
f 207/258/231 209/260/231 196/272/231
f 214/265/232 202/407/232 197/274/232
f 201/269/233 203/254/233 216/267/233
f 215/266/234 210/261/234 206/257/234
f 223/281/243 217/275/243 219/277/243
f 218/299/244 220/278/244 222/280/244
f 221/279/245 226/284/245 228/286/245
f 227/285/246 225/306/246 224/301/246
f 235/293/247 223/281/247 225/283/247
f 238/296/373 240/298/373 227/285/373
f 239/297/249 237/295/249 236/294/249
f 229/287/250 235/293/250 237/295/250
f 238/296/251 232/290/251 234/292/251
f 233/291/252 231/289/252 230/288/252
f 229/287/253 231/289/253 218/276/253
f 221/302/254 220/303/254 233/291/254
f 223/281/255 235/293/255 229/287/255
f 222/280/256 228/286/256 224/301/256
f 231/289/257 233/291/257 220/303/257
f 226/305/258 221/408/258 232/290/258
f 225/306/259 227/285/259 240/298/259
f 239/297/260 234/292/260 230/288/260
f 247/311/269 241/275/269 243/308/269
f 244/309/270 246/310/270 243/325/270
f 250/312/271 252/314/271 246/310/271
f 251/313/272 249/330/272 248/327/272
f 247/311/273 249/283/273 260/321/273
f 250/312/274 262/296/274 264/324/274
f 261/322/275 260/321/275 264/324/275
f 259/293/276 261/322/276 254/316/276
f 256/318/374 258/320/374 263/323/374
f 255/317/278 254/316/278 258/320/278
f 253/315/279 255/317/279 242/307/279
f 256/318/280 245/302/280 244/328/280
f 259/293/281 253/315/281 241/275/281
f 246/310/282 252/314/282 248/327/282
f 257/319/283 244/328/283 242/329/283
f 250/305/284 245/408/284 256/318/284
f 251/313/285 264/324/285 260/321/285
f 261/322/286 263/323/286 258/320/286
usemtl core
f 265/331/287 278/332/287 277/333/287
f 266/334/288 278/335/288 280/336/288
f 265/337/289 277/338/289 282/339/289
f 265/340/290 282/341/290 284/342/290
f 265/343/291 284/344/291 281/345/291
f 266/334/292 280/336/292 287/346/292
f 267/347/293 279/348/293 289/349/293
f 268/350/294 283/351/294 291/352/294
f 269/353/295 285/354/295 293/355/295
f 270/356/296 286/357/296 295/358/296
f 266/334/297 287/346/297 290/359/297
f 267/347/298 289/349/298 292/360/298
f 268/350/299 291/352/299 294/361/299
f 269/353/300 293/355/300 296/362/300
f 270/356/301 295/358/301 288/363/301
f 271/364/302 297/365/302 302/366/302
f 272/367/303 298/368/303 304/369/303
f 273/370/304 299/371/304 305/372/304
f 274/373/305 300/374/305 306/375/305
f 275/376/306 301/377/306 303/378/306
f 303/378/307 306/379/307 276/380/307
f 303/378/308 301/377/308 306/379/308
f 301/377/309 274/373/309 306/379/309
f 306/375/310 305/381/310 276/382/310
f 306/375/311 300/374/311 305/381/311
f 300/374/312 273/370/312 305/381/312
f 305/372/313 304/383/313 276/384/313
f 305/372/314 299/371/314 304/383/314
f 299/371/315 272/385/315 304/383/315
f 304/369/316 302/386/316 276/387/316
f 304/369/317 298/368/317 302/386/317
f 298/368/318 271/364/318 302/386/318
f 302/366/319 303/388/319 276/389/319
f 302/366/320 297/365/320 303/388/320
f 297/365/321 275/376/321 303/388/321
f 288/363/322 301/377/322 275/376/322
f 288/363/323 295/358/323 301/377/323
f 295/358/324 274/373/324 301/377/324
f 296/362/325 300/374/325 274/373/325
f 296/362/326 293/355/326 300/374/326
f 293/355/327 273/370/327 300/374/327
f 294/361/328 299/371/328 273/370/328
f 294/361/329 291/352/329 299/371/329
f 291/352/330 272/385/330 299/371/330
f 292/360/331 298/368/331 272/367/331
f 292/360/332 289/349/332 298/368/332
f 289/349/333 271/364/333 298/368/333
f 290/359/334 297/365/334 271/364/334
f 290/359/335 287/346/335 297/365/335
f 287/346/336 275/376/336 297/365/336
f 295/358/337 296/362/337 274/373/337
f 295/358/338 286/357/338 296/362/338
f 286/357/339 269/353/339 296/362/339
f 293/355/340 294/361/340 273/370/340
f 293/355/341 285/354/341 294/361/341
f 285/354/342 268/350/342 294/361/342
f 291/352/343 292/390/343 272/385/343
f 291/352/344 283/351/344 292/390/344
f 283/351/345 267/391/345 292/390/345
f 289/349/346 290/359/346 271/364/346
f 289/349/347 279/348/347 290/359/347
f 279/348/348 266/334/348 290/359/348
f 287/346/349 288/363/349 275/376/349
f 287/346/350 280/336/350 288/363/350
f 280/336/351 270/356/351 288/363/351
f 281/345/352 286/357/352 270/356/352
f 281/345/353 284/344/353 286/357/353
f 284/344/354 269/353/354 286/357/354
f 284/342/355 285/354/355 269/353/355
f 284/342/356 282/341/356 285/354/356
f 282/341/357 268/350/357 285/354/357
f 282/339/358 283/351/358 268/350/358
f 282/339/359 277/338/359 283/351/359
f 277/338/360 267/391/360 283/351/360
f 280/336/361 281/392/361 270/356/361
f 280/336/362 278/335/362 281/392/362
f 278/335/363 265/393/363 281/392/363
f 277/333/364 279/348/364 267/347/364
f 277/333/365 278/332/365 279/348/365
f 278/332/366 266/334/366 279/348/366
