# Blender 4.5.10 LTS
# www.blender.org
mtllib stow_label_plank.mtl
o stow_label_plank
v 0.180275 0.275986 0.257700
v 0.180194 0.278073 0.257297
v 0.185091 0.278270 0.257617
v 0.180251 0.276593 0.257443
v 0.183068 0.276974 0.257469
v 0.183657 0.278208 0.257384
v 0.183714 0.276733 0.257669
v 0.174625 0.423691 0.252601
v 0.174546 0.425799 0.252869
v 0.179523 0.423888 0.252921
v 0.174569 0.425177 0.252651
v 0.177406 0.425014 0.252695
v 0.178032 0.425317 0.252878
v 0.178088 0.423826 0.252688
v 0.180321 0.276740 0.281016
v 0.185137 0.279024 0.280933
v 0.180241 0.278848 0.281284
v 0.183760 0.277486 0.280985
v 0.183114 0.277741 0.281172
v 0.183703 0.278977 0.281175
v 0.180298 0.277362 0.281233
v 0.174591 0.426553 0.276185
v 0.174672 0.424466 0.276588
v 0.179568 0.424642 0.276237
v 0.174615 0.425946 0.276442
v 0.177453 0.425780 0.276398
v 0.178134 0.424595 0.276479
v 0.178077 0.426070 0.276193
v -0.159676 0.263021 0.258783
v -0.164653 0.264931 0.258731
v -0.159757 0.265107 0.258380
v -0.163162 0.263503 0.258775
v -0.162537 0.263793 0.258570
v -0.163219 0.264978 0.258489
v -0.159700 0.263627 0.258526
v -0.165405 0.412833 0.253952
v -0.165326 0.410725 0.253684
v -0.170221 0.410549 0.254036
v -0.165382 0.412211 0.253735
v -0.168199 0.411833 0.253796
v -0.168788 0.410596 0.253794
v -0.168844 0.412087 0.253983
v -0.159630 0.263774 0.282099
v -0.159710 0.265882 0.282367
v -0.164607 0.265685 0.282047
v -0.159653 0.264396 0.282317
v -0.162491 0.264559 0.282274
v -0.163172 0.265747 0.282280
v -0.163116 0.264256 0.282091
v -0.165360 0.413587 0.277268
v -0.170176 0.411303 0.277351
v -0.165279 0.411500 0.277672
v -0.168798 0.412840 0.277299
v -0.168152 0.412599 0.277500
v -0.168741 0.411365 0.277584
v -0.165336 0.412980 0.277525
v 0.157175 0.325526 0.265946
v 0.157199 0.325566 0.273885
v 0.149657 0.325694 0.276361
v 0.144971 0.325734 0.269952
v 0.149618 0.325631 0.263515
v 0.157509 0.325007 0.269917
v 0.151691 0.323466 0.269942
v 0.153523 0.325096 0.275439
v 0.147039 0.325185 0.273354
v 0.147019 0.325151 0.266543
v 0.153489 0.325041 0.264419
v 0.144971 0.325734 0.269952
v 0.140902 0.332551 0.269930
v 0.143033 0.336661 0.263481
v 0.148420 0.332384 0.259516
v 0.149618 0.325631 0.263515
v 0.142397 0.328821 0.269944
v 0.143805 0.329643 0.264150
v 0.141370 0.334614 0.266513
v 0.145356 0.334526 0.260991
v 0.148847 0.328677 0.261009
v 0.147019 0.325151 0.266543
v 0.157175 0.325527 0.265946
v 0.149618 0.325631 0.263515
v 0.148420 0.332384 0.259516
v 0.155237 0.336453 0.259475
v 0.160648 0.332215 0.263449
v 0.153489 0.325041 0.264419
v 0.154797 0.329456 0.260542
v 0.148847 0.328677 0.261009
v 0.151827 0.334415 0.258867
v 0.158310 0.334326 0.260953
v 0.159338 0.328532 0.264384
v 0.157199 0.325566 0.273885
v 0.157175 0.325527 0.265946
v 0.160648 0.332215 0.263449
v 0.162819 0.336388 0.269845
v 0.160687 0.332278 0.276295
v 0.157509 0.325007 0.269917
v 0.161626 0.329397 0.269883
v 0.159338 0.328532 0.264384
v 0.162330 0.334292 0.266451
v 0.162351 0.334325 0.273262
v 0.159371 0.328587 0.275404
v 0.149657 0.325694 0.276361
v 0.157199 0.325566 0.273885
v 0.160687 0.332278 0.276295
v 0.155300 0.336556 0.280260
v 0.148483 0.332486 0.280301
v 0.153523 0.325096 0.275439
v 0.154854 0.329548 0.279264
v 0.159371 0.328587 0.275405
v 0.158364 0.334414 0.278785
v 0.151894 0.334524 0.280908
v 0.148901 0.328765 0.278841
v 0.140902 0.332551 0.269930
v 0.144971 0.325734 0.269952
v 0.149657 0.325694 0.276361
v 0.148483 0.332486 0.280301
v 0.143072 0.336724 0.276326
v 0.142397 0.328821 0.269944
v 0.143840 0.329700 0.275721
v 0.147039 0.325185 0.273354
v 0.148901 0.328765 0.278841
v 0.145410 0.334613 0.278823
v 0.141390 0.334648 0.273324
v 0.155237 0.336453 0.259475
v 0.148420 0.332384 0.259516
v 0.143033 0.336661 0.263481
v 0.146521 0.343374 0.265890
v 0.154064 0.343245 0.263415
v 0.151827 0.334416 0.258867
v 0.148866 0.339391 0.260511
v 0.145356 0.334526 0.260991
v 0.144349 0.340353 0.264371
v 0.150198 0.343844 0.264336
v 0.154819 0.340175 0.260935
v 0.162819 0.336388 0.269845
v 0.160648 0.332215 0.263449
v 0.155237 0.336453 0.259475
v 0.154064 0.343245 0.263415
v 0.158749 0.343205 0.269824
v 0.162330 0.334292 0.266451
v 0.159880 0.339239 0.264055
v 0.158310 0.334326 0.260953
v 0.154819 0.340175 0.260935
v 0.156681 0.343754 0.266422
v 0.161323 0.340119 0.269831
v 0.155300 0.336556 0.280260
v 0.160687 0.332279 0.276295
v 0.162819 0.336388 0.269845
v 0.158749 0.343205 0.269824
v 0.154102 0.343309 0.276261
v 0.158364 0.334414 0.278785
v 0.159915 0.339296 0.275625
v 0.162351 0.334325 0.273262
v 0.161323 0.340119 0.269831
v 0.156702 0.343788 0.273233
v 0.154873 0.340262 0.278766
v 0.143072 0.336724 0.276326
v 0.148483 0.332486 0.280301
v 0.155300 0.336556 0.280260
v 0.154102 0.343309 0.276261
v 0.146545 0.343413 0.273830
v 0.145410 0.334613 0.278823
v 0.148923 0.339483 0.279233
v 0.151893 0.334524 0.280908
v 0.154873 0.340262 0.278766
v 0.150231 0.343898 0.275357
v 0.144383 0.340407 0.275392
v 0.143033 0.336661 0.263481
v 0.140902 0.332551 0.269930
v 0.143072 0.336724 0.276326
v 0.146545 0.343413 0.273830
v 0.146521 0.343374 0.265890
v 0.141370 0.334614 0.266513
v 0.142094 0.339542 0.269892
v 0.141390 0.334648 0.273324
v 0.144383 0.340407 0.275392
v 0.146211 0.343933 0.269858
v 0.144349 0.340353 0.264371
v 0.154064 0.343246 0.263415
v 0.146521 0.343374 0.265890
v 0.146545 0.343413 0.273830
v 0.154102 0.343309 0.276261
v 0.158749 0.343205 0.269824
v 0.150198 0.343844 0.264336
v 0.152030 0.345473 0.269833
v 0.146211 0.343933 0.269858
v 0.150231 0.343898 0.275357
v 0.156702 0.343788 0.273233
v 0.156681 0.343754 0.266422
v -0.155980 0.333316 0.267692
v -0.156083 0.333249 0.275631
v -0.163664 0.333349 0.277987
v -0.168246 0.333479 0.271505
v -0.163498 0.333458 0.265143
v -0.155710 0.332743 0.271661
v -0.161529 0.331207 0.271573
v -0.159784 0.332761 0.277120
v -0.166233 0.332883 0.274932
v -0.166145 0.332940 0.268122
v -0.159642 0.332854 0.266100
v -0.168246 0.333479 0.271505
v -0.172312 0.340298 0.271510
v -0.170075 0.344492 0.265151
v -0.164628 0.340265 0.261216
v -0.163498 0.333458 0.265143
v -0.170818 0.336567 0.271498
v -0.169318 0.337466 0.265739
v -0.171788 0.342407 0.268129
v -0.167714 0.342389 0.262671
v -0.164227 0.336538 0.262666
v -0.166145 0.332940 0.268122
v -0.155980 0.333316 0.267692
v -0.163498 0.333458 0.265143
v -0.164628 0.340265 0.261216
v -0.157809 0.344329 0.261338
v -0.152465 0.340035 0.265341
v -0.159641 0.332854 0.266100
v -0.158270 0.337319 0.262305
v -0.164227 0.336538 0.262666
v -0.161211 0.342302 0.260649
v -0.154761 0.342180 0.262836
v -0.153792 0.336341 0.266205
v -0.156083 0.333249 0.275631
v -0.155980 0.333316 0.267692
v -0.152465 0.340035 0.265341
v -0.150394 0.344120 0.271826
v -0.152630 0.339926 0.278185
v -0.155710 0.332743 0.271661
v -0.151591 0.337130 0.271751
v -0.153791 0.336341 0.266205
v -0.150830 0.342070 0.268397
v -0.150918 0.342012 0.275207
v -0.153934 0.336248 0.277225
v -0.163664 0.333349 0.277987
v -0.156083 0.333249 0.275631
v -0.152631 0.339926 0.278185
v -0.158078 0.344154 0.282121
v -0.164896 0.340089 0.281998
v -0.159784 0.332761 0.277120
v -0.158511 0.337161 0.281024
v -0.153934 0.336248 0.277225
v -0.154992 0.342030 0.280666
v -0.161495 0.342116 0.282688
v -0.164457 0.336388 0.280496
v -0.172312 0.340298 0.271511
v -0.168246 0.333479 0.271505
v -0.163664 0.333349 0.277987
v -0.164897 0.340089 0.281998
v -0.170241 0.344384 0.277996
v -0.170818 0.336567 0.271498
v -0.169468 0.337368 0.277309
v -0.166233 0.332883 0.274932
v -0.164457 0.336388 0.280496
v -0.167945 0.342238 0.280500
v -0.171876 0.342349 0.274940
v -0.157809 0.344330 0.261338
v -0.164628 0.340265 0.261216
v -0.170075 0.344493 0.265151
v -0.166623 0.351170 0.267706
v -0.159042 0.351069 0.265349
v -0.161211 0.342303 0.260649
v -0.164194 0.347258 0.262312
v -0.167714 0.342389 0.262671
v -0.168772 0.348171 0.266112
v -0.162922 0.351658 0.266217
v -0.158249 0.348031 0.262840
v -0.150394 0.344120 0.271826
v -0.152465 0.340035 0.265341
v -0.157809 0.344330 0.261338
v -0.159042 0.351069 0.265349
v -0.154460 0.350940 0.271831
v -0.150830 0.342070 0.268397
v -0.153238 0.347051 0.266028
v -0.154761 0.342181 0.262836
v -0.158249 0.348031 0.262840
v -0.156473 0.351536 0.268404
v -0.151888 0.347852 0.271838
v -0.158078 0.344154 0.282121
v -0.152630 0.339926 0.278185
v -0.150394 0.344120 0.271826
v -0.154460 0.350940 0.271831
v -0.159208 0.350961 0.278194
v -0.154992 0.342030 0.280666
v -0.153388 0.346953 0.277597
v -0.150918 0.342012 0.275207
v -0.151888 0.347852 0.271838
v -0.156561 0.351479 0.275214
v -0.158479 0.347881 0.280670
v -0.170241 0.344384 0.277996
v -0.164897 0.340089 0.281998
v -0.158078 0.344154 0.282121
v -0.159208 0.350961 0.278194
v -0.166726 0.351103 0.275644
v -0.167944 0.342238 0.280500
v -0.164436 0.347100 0.281032
v -0.161495 0.342116 0.282688
v -0.158479 0.347881 0.280670
v -0.163064 0.351565 0.277236
v -0.168914 0.348078 0.277131
v -0.170075 0.344493 0.265151
v -0.172312 0.340298 0.271511
v -0.170241 0.344384 0.277995
v -0.166726 0.351103 0.275644
v -0.166623 0.351170 0.267706
v -0.171788 0.342407 0.268129
v -0.171115 0.347288 0.271585
v -0.171876 0.342349 0.274939
v -0.168914 0.348078 0.277131
v -0.166996 0.351676 0.271675
v -0.168772 0.348171 0.266112
v -0.159042 0.351069 0.265349
v -0.166623 0.351170 0.267706
v -0.166726 0.351103 0.275644
v -0.159208 0.350961 0.278194
v -0.154460 0.350940 0.271831
v -0.162922 0.351658 0.266217
v -0.161177 0.353212 0.271763
v -0.166996 0.351676 0.271675
v -0.163064 0.351565 0.277236
v -0.156561 0.351479 0.275214
v -0.156473 0.351536 0.268404
v 0.147638 0.292139 0.272646
v 0.147638 0.293679 0.272529
v 0.151838 0.293680 0.272645
v 0.147638 0.292590 0.272566
v 0.150063 0.292790 0.272582
v 0.150608 0.293679 0.272565
v 0.150608 0.292591 0.272647
v 0.147634 0.400599 0.272190
v 0.147634 0.402139 0.272297
v 0.151834 0.400599 0.272306
v 0.147634 0.401688 0.272220
v 0.150058 0.401488 0.272237
v 0.150603 0.401688 0.272301
v 0.150604 0.400599 0.272226
v 0.147632 0.292164 0.280422
v 0.151832 0.293704 0.280421
v 0.147632 0.293704 0.280529
v 0.150602 0.292615 0.280423
v 0.150056 0.292815 0.280487
v 0.150601 0.293704 0.280499
v 0.147632 0.292615 0.280500
v 0.147627 0.402164 0.280073
v 0.147627 0.400624 0.280190
v 0.151827 0.400624 0.280082
v 0.147627 0.401713 0.280154
v 0.150052 0.401513 0.280142
v 0.150597 0.400624 0.280160
v 0.150597 0.401713 0.280077
v -0.143962 0.292126 0.272402
v -0.148162 0.293666 0.272394
v -0.143962 0.293666 0.272286
v -0.146932 0.292577 0.272399
v -0.146387 0.292777 0.272334
v -0.146932 0.293666 0.272316
v -0.143962 0.292577 0.272322
v -0.143966 0.402126 0.272054
v -0.143966 0.400585 0.271947
v -0.148166 0.400586 0.272055
v -0.143966 0.401674 0.271976
v -0.146391 0.401475 0.271989
v -0.146936 0.400585 0.271977
v -0.146936 0.401675 0.272053
v -0.143968 0.292151 0.280178
v -0.143968 0.293691 0.280286
v -0.148168 0.293691 0.280170
v -0.143968 0.292602 0.280256
v -0.146393 0.292802 0.280239
v -0.146938 0.293691 0.280250
v -0.146938 0.292602 0.280175
v -0.143973 0.402150 0.279830
v -0.148173 0.400610 0.279831
v -0.143973 0.400611 0.279947
v -0.146943 0.401699 0.279829
v -0.146398 0.401500 0.279894
v -0.146943 0.400610 0.279911
v -0.143973 0.401700 0.279910
vn 0.0949 -0.4734 -0.8757
vn 0.0223 -0.0975 -0.9950
vn 0.1653 -0.1811 -0.9695
vn 0.0244 0.0195 -0.9995
vn 0.0334 0.3312 -0.9430
vn 0.1534 0.1304 -0.9795
vn 0.0646 -0.3275 0.9427
vn 0.1691 -0.1181 0.9785
vn 0.0322 -0.0174 0.9993
vn 0.0641 0.4795 0.8752
vn 0.0212 0.0991 0.9949
vn 0.1572 0.1934 0.9685
vn -0.0371 -0.3914 -0.9195
vn -0.1572 -0.1934 -0.9685
vn -0.0283 -0.0841 -0.9961
vn -0.0984 0.4158 -0.9041
vn -0.0262 0.0330 -0.9991
vn -0.1691 0.1181 -0.9785
vn -0.0607 -0.4220 0.9046
vn -0.0172 -0.0346 0.9993
vn -0.1534 -0.1304 0.9795
vn -0.0609 0.3876 0.9198
vn -0.1652 0.1811 0.9695
vn -0.0283 0.0819 0.9962
vn 0.2123 -0.9767 0.0312
vn 0.7451 -0.6667 0.0201
vn 0.0264 -0.0312 -0.9992
vn 0.1613 -0.0256 -0.9866
vn 0.1370 0.9900 -0.0323
vn 0.6920 0.7215 -0.0247
vn 0.0303 0.0334 0.9990
vn 0.1651 0.0381 0.9855
vn 0.0156 -0.3297 0.9439
vn 0.0045 -0.0338 0.9994
vn -0.0119 0.3900 0.9207
vn -0.0006 0.0983 0.9952
vn -0.1613 0.0256 0.9866
vn -0.0264 0.0312 0.9992
vn -0.1371 -0.9900 0.0323
vn -0.6920 -0.7215 0.0247
vn -0.2123 0.9767 -0.0312
vn -0.7451 0.6667 -0.0201
vn -0.0303 -0.0334 -0.9990
vn -0.1651 -0.0381 -0.9855
vn 0.0119 -0.3900 -0.9207
vn 0.0006 -0.0983 -0.9952
vn -0.0156 0.3296 -0.9440
vn -0.0045 0.0338 -0.9994
vn 0.0382 -0.9988 0.0322
vn 0.9993 0.0381 -0.0032
vn -0.0020 -0.0323 -0.9995
vn -0.0382 0.9988 -0.0322
vn 0.0020 0.0323 0.9995
vn -0.9993 -0.0381 0.0032
vn 0.2104 -0.9561 -0.2041
vn 0.2535 -0.9550 0.1543
vn -0.0740 -0.9492 0.3060
vn -0.3195 -0.9467 0.0413
vn -0.1437 -0.9510 -0.2739
vn -0.6913 -0.6560 -0.3030
vn -0.8939 -0.3593 -0.2682
vn -0.8239 -0.1429 -0.5484
vn -0.5781 -0.3059 -0.7565
vn -0.4961 -0.6229 -0.6048
vn 0.4181 -0.6372 -0.6474
vn 0.0706 -0.6699 -0.7391
vn -0.0235 -0.3760 -0.9263
vn 0.2660 -0.1617 -0.9503
vn 0.5389 -0.3231 -0.7779
vn 0.7412 -0.6380 0.2090
vn 0.7207 -0.6770 -0.1492
vn 0.8714 -0.3867 -0.3018
vn 0.9850 -0.1682 -0.0379
vn 0.9045 -0.3235 0.2779
vn 0.0266 -0.6241 0.7809
vn 0.3607 -0.6674 0.6515
vn 0.5542 -0.3766 0.7424
vn 0.3396 -0.1535 0.9280
vn 0.0135 -0.3065 0.9518
vn -0.9028 -0.2955 0.3125
vn -0.7381 -0.6148 0.2779
vn -0.5119 -0.6545 0.5564
vn -0.5369 -0.3597 0.7631
vn -0.7784 -0.1379 0.6124
vn 0.0179 0.3668 -0.9301
vn -0.2717 0.1523 -0.9502
vn -0.5436 0.3155 -0.7778
vn -0.4221 0.6308 -0.6511
vn -0.0750 0.6626 -0.7452
vn 0.8922 0.3566 -0.2771
vn 0.8206 0.1375 -0.5548
vn 0.5735 0.2984 -0.7630
vn 0.4924 0.6169 -0.6139
vn 0.6894 0.6530 -0.3136
vn 0.5415 0.3672 0.7563
vn 0.7821 0.1439 0.6063
vn 0.9046 0.2986 0.3041
vn 0.7397 0.6175 0.2673
vn 0.5153 0.6599 0.5468
vn -0.5497 0.3839 0.7420
vn -0.3340 0.1626 0.9285
vn -0.0078 0.3158 0.9488
vn -0.0219 0.6318 0.7748
vn -0.3568 0.6738 0.6470
vn -0.8733 0.3837 -0.3003
vn -0.9852 0.1679 -0.0336
vn -0.9028 0.3263 0.2801
vn -0.7399 0.6400 0.2072
vn -0.7216 0.6755 -0.1515
vn 0.1420 0.9482 -0.2841
vn -0.2117 0.9540 -0.2122
vn -0.2526 0.9564 0.1464
vn 0.0758 0.9521 0.2962
vn 0.3197 0.9471 0.0301
vn 0.2546 -0.8797 -0.4017
vn -0.3731 -0.9039 -0.2092
vn 0.8735 0.4297 0.2286
vn -0.0000 -1.0000 -0.0000
vn -0.0000 -0.4008 -0.9162
vn -0.2641 -0.8385 -0.4767
vn -0.8862 -0.4634 -0.0000
vn 0.6201 0.7845 -0.0000
vn -0.0000 1.0000 -0.0000
vn 1.0000 -0.0000 -0.0000
vn 0.7938 -0.5954 0.1240
vn 0.5475 -0.8231 -0.1513
vn 0.7454 -0.2981 -0.5963
vn 0.5837 -0.6826 -0.4397
vn 0.2400 -0.7953 0.5567
vn 0.4465 -0.8139 0.3717
vn 0.7032 -0.3915 0.5935
vn 0.5145 -0.6860 0.5145
vn -0.3408 -0.3513 0.8720
vn -0.0000 -0.4488 0.8936
vn -0.9382 0.0079 -0.3460
vn -0.9545 -0.1790 -0.2386
vn -0.9085 -0.1447 0.3920
vn -0.9684 -0.0605 0.2421
vn 0.1622 0.0411 -0.9859
vn -0.1212 -0.1804 -0.9761
vn -0.6667 0.3333 -0.6667
vn -0.4867 -0.3244 -0.8111
vn -0.0000 0.6000 -0.8000
vn 0.6860 -0.5145 -0.5145
vn 0.4818 0.1782 -0.8580
vn 0.5455 0.1818 -0.8182
vn 0.3692 -0.2397 0.8979
vn 0.7004 -0.1963 0.6862
vn 0.9815 -0.1344 0.1360
vn 0.8835 -0.3313 0.3313
vn -0.5756 0.4069 0.7093
vn -0.3956 0.0606 0.9164
vn 0.1606 0.2141 0.9635
vn -0.1468 -0.2378 0.9602
vn -0.6407 0.6339 -0.4333
vn -0.6965 0.3980 -0.5970
vn 0.4082 0.4082 -0.8165
vn 0.6194 0.7851 -0.0000
vn 0.6899 0.7239 -0.0000
vn -0.0000 0.8321 0.5547
vn 0.1938 0.4885 0.8508
vn -0.5767 0.7094 0.4052
vn -0.8602 0.3756 0.3450
vn 0.0406 0.5664 -0.8231
vn -0.0000 0.7295 -0.6839
vn -0.5339 0.8336 0.1414
vn -0.7821 0.6110 -0.1222
vn 0.0029 1.0000 -0.0000
vn 0.9398 0.0710 -0.3343
vn -0.4124 0.8249 0.3867
vn 0.1794 0.7177 0.6728
vn 0.4082 -0.8165 -0.4082
vn 0.6667 -0.6667 0.3333
vn -0.0000 -0.0000 1.0000
vn -0.9965 -0.0830 -0.0000
vn -0.5298 0.5298 -0.6623
vn -0.3162 -0.0000 -0.9487
vn 0.2425 -0.0000 -0.9701
vn 0.7778 -0.4444 -0.4444
vn 0.9701 0.2425 -0.0000
vn 0.7220 -0.3094 0.6189
vn 0.2425 -0.0000 0.9701
vn -0.2357 -0.2357 0.9428
vn -0.8296 0.2074 0.5185
vn -0.0000 0.8944 -0.4472
vn -0.8165 0.4082 -0.4082
vn -0.0000 0.9285 0.3714
vn 0.2131 -0.9534 -0.2135
vn 0.2505 -0.9571 0.1455
vn -0.0793 -0.9531 0.2920
vn -0.3205 -0.9469 0.0236
vn -0.1398 -0.9471 -0.2888
vn -0.6867 -0.6514 -0.3227
vn -0.8896 -0.3551 -0.2872
vn -0.8151 -0.1350 -0.5633
vn -0.5661 -0.2953 -0.7696
vn -0.4867 -0.6145 -0.6209
vn 0.4281 -0.6288 -0.6491
vn 0.0820 -0.6600 -0.7468
vn -0.0089 -0.3636 -0.9315
vn 0.2810 -0.1492 -0.9480
vn 0.5511 -0.3131 -0.7735
vn 0.7374 -0.6412 0.2123
vn 0.7227 -0.6754 -0.1467
vn 0.8759 -0.3832 -0.2930
vn 0.9854 -0.1684 -0.0244
vn 0.8998 -0.3279 0.2879
vn 0.0138 -0.6345 0.7728
vn 0.3500 -0.6764 0.6481
vn 0.5421 -0.3869 0.7460
vn 0.3247 -0.1661 0.9311
vn -0.0018 -0.3192 0.9477
vn -0.9078 -0.2991 0.2941
vn -0.7427 -0.6180 0.2578
vn -0.5211 -0.6615 0.5394
vn -0.5491 -0.3695 0.7496
vn -0.7881 -0.1455 0.5981
vn 0.0329 0.3792 -0.9247
vn -0.2565 0.1652 -0.9523
vn -0.5310 0.3262 -0.7821
vn -0.4113 0.6398 -0.6492
vn -0.0628 0.6725 -0.7374
vn 0.8967 0.3597 -0.2580
vn 0.8294 0.1443 -0.5398
vn 0.5857 0.3081 -0.7497
vn 0.5024 0.6248 -0.5977
vn 0.6946 0.6566 -0.2938
vn 0.5295 0.3567 0.7697
vn 0.7724 0.1352 0.6206
vn 0.8998 0.2938 0.3225
vn 0.7357 0.6134 0.2873
vn 0.5068 0.6522 0.5637
vn -0.5612 0.3743 0.7382
vn -0.3486 0.1504 0.9251
vn -0.0227 0.3031 0.9527
vn -0.0339 0.6214 0.7828
vn -0.3667 0.6654 0.6502
vn -0.8682 0.3883 -0.3090
vn -0.9845 0.1690 -0.0470
vn -0.9070 0.3231 0.2700
vn -0.7428 0.6377 0.2040
vn -0.7188 0.6780 -0.1539
vn 0.1470 0.9518 -0.2691
vn -0.2078 0.9569 -0.2028
vn -0.2544 0.9546 0.1552
vn 0.0716 0.9480 0.3100
vn 0.3196 0.9463 0.0478
vn 0.4203 -0.8407 -0.3415
vn -0.0000 -0.0000 -1.0000
vn -0.0000 -0.5425 -0.8401
vn -0.0000 -0.7526 -0.6585
vn -0.2910 -0.4571 -0.8405
vn -0.0000 -0.8321 -0.5547
vn -0.8855 -0.4645 -0.0000
vn -0.0000 -0.2628 0.9648
vn 0.7412 -0.6594 0.1256
vn -0.0000 -0.9860 -0.1665
vn 0.7553 -0.4196 -0.5035
vn 0.7428 -0.5571 -0.3714
vn 0.4240 -0.8480 0.3180
vn 0.6700 -0.4408 0.5974
vn 0.4650 -0.6970 0.5458
vn -0.0000 -0.3511 0.9363
vn -0.0000 -0.3179 0.9481
vn -0.8920 -0.0743 -0.4460
vn -0.9684 0.0605 -0.2421
vn -0.9457 0.0788 0.3152
vn -0.9957 0.0415 0.0830
vn 0.1330 0.1773 -0.9751
vn -0.2152 -0.1391 -0.9666
vn -0.6667 -0.1333 -0.7333
vn -0.6000 -0.0000 -0.8000
vn 0.9923 -0.0000 -0.1240
vn 0.9231 -0.2308 -0.3077
vn 0.4750 -0.0784 -0.8765
vn 0.5203 -0.3468 -0.7804
vn 0.4622 -0.1502 0.8740
vn 0.5455 -0.1818 0.8182
vn 0.9885 -0.0000 0.1515
vn 0.5774 -0.5774 0.5774
vn -0.6727 -0.0000 0.7399
vn -0.5638 -0.4864 0.6675
vn 0.0695 0.1313 0.9889
vn -0.1726 -0.0097 0.9850
vn -0.5404 0.7572 -0.3669
vn -0.7827 0.3560 -0.5105
vn 0.2098 0.5912 -0.7788
vn 0.1586 0.4014 -0.9021
vn 0.7330 -0.0000 0.6802
vn 0.9851 0.1722 -0.0000
vn 0.4160 0.7785 0.4700
vn 0.6247 0.4685 0.6247
vn -0.4264 0.6396 0.6396
vn -0.7966 0.3541 0.4900
vn 0.0468 0.0725 -0.9963
vn -0.1208 0.9084 -0.4002
vn -0.7444 0.6574 0.1170
vn -0.0000 0.9924 -0.1228
vn -0.0000 0.9923 -0.1240
vn -0.6803 -0.3491 0.6445
vn -0.2290 -0.0000 0.9734
vn 0.5345 -0.8018 -0.2673
vn 0.2279 -0.9117 0.3419
vn -0.9923 -0.1240 -0.0000
vn -0.6963 0.1741 -0.6963
vn -0.3015 -0.3015 -0.9045
vn 0.9117 -0.2279 -0.3419
vn 0.8433 -0.1054 0.5270
vn 0.4082 0.4082 0.8165
vn -0.3015 -0.3015 0.9045
vn -0.5298 0.5298 0.6623
vn -0.0000 0.8000 -0.6000
vn -0.6667 0.6667 0.3333
vn 0.0347 -0.2258 -0.9736
vn 0.0093 -0.0333 -0.9994
vn 0.0649 -0.0755 -0.9950
vn 0.0119 0.0199 -0.9997
vn 0.0210 0.1697 -0.9853
vn 0.0649 0.0692 -0.9955
vn 0.0193 -0.1699 0.9853
vn 0.0633 -0.0692 0.9956
vn 0.0102 -0.0199 0.9997
vn 0.0330 0.2260 0.9736
vn 0.0076 0.0332 0.9994
vn 0.0632 0.0756 0.9951
vn -0.0193 -0.1761 -0.9842
vn -0.0632 -0.0756 -0.9951
vn -0.0102 -0.0262 -0.9996
vn -0.0331 0.2202 -0.9749
vn -0.0076 0.0269 -0.9996
vn -0.0632 0.0692 -0.9956
vn -0.0347 -0.2199 0.9749
vn -0.0093 -0.0269 0.9996
vn -0.0649 -0.0692 0.9955
vn -0.0210 0.1761 0.9842
vn -0.0649 0.0756 0.9950
vn -0.0119 0.0262 0.9996
vn 0.1502 -0.9886 0.0033
vn 0.6629 -0.7487 0.0029
vn 0.0119 -0.0032 -0.9999
vn 0.0651 -0.0032 -0.9979
vn 0.1501 0.9887 -0.0030
vn 0.6628 0.7488 -0.0018
vn 0.0102 0.0032 0.9999
vn 0.0634 0.0032 0.9980
vn -0.0008 -0.1696 0.9855
vn -0.0008 -0.0269 0.9996
vn -0.0008 0.1758 0.9844
vn -0.0008 0.0333 0.9994
vn -0.0651 0.0032 0.9979
vn -0.0119 0.0032 0.9999
vn -0.1501 -0.9887 0.0030
vn -0.6628 -0.7488 0.0018
vn -0.1502 0.9887 -0.0033
vn -0.6629 0.7487 -0.0029
vn -0.0102 -0.0032 -0.9999
vn -0.0634 -0.0032 -0.9980
vn 0.0008 -0.1762 -0.9844
vn 0.0008 -0.0332 -0.9994
vn 0.0008 0.1701 -0.9854
vn 0.0008 0.0269 -0.9996
vn -0.0000 -1.0000 0.0032
vn 1.0000 -0.0000 0.0008
vn 0.0008 -0.0032 -1.0000
vn -0.0000 1.0000 -0.0032
vn -0.0008 0.0032 1.0000
vn -1.0000 -0.0000 -0.0008
vn 0.0609 -0.3876 -0.9198
vn 0.0283 -0.0819 -0.9962
vn 0.2313 -0.1760 -0.9568
vn 0.0172 0.0346 -0.9993
vn 0.0606 0.4220 -0.9046
vn 0.2195 0.1313 -0.9667
vn 0.0984 -0.4158 0.9041
vn 0.2350 -0.1139 0.9653
vn 0.0262 -0.0330 0.9991
vn 0.0371 0.3914 0.9195
vn 0.0283 0.0841 0.9961
vn 0.2233 0.1934 0.9554
vn -0.0641 -0.4795 -0.8752
vn -0.2233 -0.1934 -0.9554
vn -0.0212 -0.0991 -0.9949
vn -0.0646 0.3275 -0.9427
vn -0.0322 0.0174 -0.9993
vn -0.2350 0.1139 -0.9653
vn -0.0334 -0.3312 0.9430
vn -0.0244 -0.0196 0.9995
vn -0.2195 -0.1313 0.9667
vn -0.0949 0.4734 0.8757
vn -0.2313 0.1760 0.9568
vn -0.0223 0.0975 0.9950
vn 0.1371 0.9900 -0.0323
vn 0.0156 -0.3297 0.9440
vn -0.0119 0.3899 0.9208
vn -0.1370 -0.9900 0.0323
vn -0.0156 0.3298 -0.9439
vn 0.2526 -0.9564 -0.1464
vn 0.2117 -0.9540 0.2122
vn -0.1420 -0.9482 0.2841
vn -0.3197 -0.9471 -0.0301
vn -0.0758 -0.9521 -0.2961
vn -0.7397 -0.6175 -0.2674
vn -0.9046 -0.2986 -0.3041
vn -0.7821 -0.1439 -0.6063
vn -0.5415 -0.3672 -0.7563
vn -0.5153 -0.6599 -0.5468
vn 0.3568 -0.6738 -0.6470
vn 0.0219 -0.6318 -0.7748
vn 0.0078 -0.3158 -0.9488
vn 0.3339 -0.1626 -0.9285
vn 0.5497 -0.3839 -0.7420
vn 0.7216 -0.6755 0.1515
vn 0.7399 -0.6400 -0.2072
vn 0.9028 -0.3263 -0.2801
vn 0.9852 -0.1679 0.0336
vn 0.8733 -0.3837 0.3003
vn 0.0750 -0.6626 0.7452
vn 0.4221 -0.6308 0.6511
vn 0.5436 -0.3155 0.7778
vn 0.2717 -0.1523 0.9502
vn -0.0179 -0.3669 0.9301
vn -0.8922 -0.3567 0.2771
vn -0.6894 -0.6530 0.3136
vn -0.4924 -0.6170 0.6139
vn -0.5735 -0.2984 0.7630
vn -0.8206 -0.1375 0.5548
vn -0.0135 0.3065 -0.9518
vn -0.3396 0.1535 -0.9280
vn -0.5542 0.3766 -0.7424
vn -0.3607 0.6675 -0.6515
vn -0.0266 0.6241 -0.7809
vn 0.9028 0.2955 -0.3125
vn 0.7784 0.1379 -0.6124
vn 0.5369 0.3597 -0.7631
vn 0.5119 0.6545 -0.5564
vn 0.7381 0.6148 -0.2779
vn 0.5781 0.3058 0.7565
vn 0.8239 0.1429 0.5484
vn 0.8939 0.3593 0.2682
vn 0.6913 0.6560 0.3030
vn 0.4961 0.6230 0.6048
vn -0.5389 0.3231 0.7779
vn -0.2660 0.1617 0.9503
vn 0.0235 0.3760 0.9263
vn -0.0706 0.6699 0.7391
vn -0.4181 0.6372 0.6474
vn -0.9045 0.3235 -0.2778
vn -0.9850 0.1682 0.0379
vn -0.8714 0.3867 0.3018
vn -0.7207 0.6770 0.1492
vn -0.7412 0.6380 -0.2090
vn 0.0740 0.9492 -0.3060
vn -0.2535 0.9550 -0.1543
vn -0.2104 0.9561 0.2041
vn 0.1437 0.9510 0.2739
vn 0.3194 0.9467 -0.0413
vn 0.3427 -0.6854 -0.6425
vn -0.2577 -0.0000 -0.9662
vn 0.9981 -0.0000 -0.0624
vn -0.7771 -0.4375 -0.4525
vn -0.3114 -0.5449 -0.7785
vn -0.8453 -0.5343 -0.0000
vn -0.8329 -0.4165 0.3644
vn -0.0000 -0.9857 0.1684
vn 0.5342 -0.8347 -0.1336
vn 0.7982 -0.4162 -0.4355
vn 0.5367 -0.7155 -0.4472
vn -0.0000 -0.7526 0.6585
vn 0.6690 -0.4460 0.5946
vn 0.5476 -0.7206 0.4253
vn -0.1150 -0.3739 0.9203
vn -0.0000 -0.7071 0.7071
vn -0.9123 0.1521 -0.3801
vn -0.9861 -0.0291 -0.1635
vn -0.8729 0.2182 0.4364
vn -0.9955 -0.0849 0.0429
vn 0.1078 0.2157 -0.9705
vn -0.1240 -0.0000 -0.9923
vn -0.6352 -0.0127 -0.7723
vn -0.4630 0.0651 -0.8839
vn 0.9814 0.0768 -0.1760
vn 0.9286 -0.0720 -0.3639
vn 0.4061 -0.0000 -0.9138
vn 0.6801 -0.2958 -0.6708
vn 0.3980 0.1990 0.8955
vn 0.6360 -0.2120 0.7420
vn 0.9363 0.3511 -0.0000
vn 0.8906 -0.0059 0.4547
vn -0.6554 0.1638 0.7373
vn -0.4364 -0.2182 0.8729
vn 0.1120 -0.0784 0.9906
vn -0.1104 -0.0000 0.9939
vn -0.5121 0.7682 -0.3841
vn -0.6855 0.4265 -0.5900
vn 0.2510 0.6054 -0.7554
vn 0.2151 0.4298 -0.8769
vn 0.9851 0.1721 -0.0000
vn 0.2572 0.5142 0.8182
vn 0.2979 0.3352 0.8938
vn -0.6247 0.6247 0.4685
vn -0.6965 0.3980 0.5970
vn -0.2182 0.8729 -0.4364
vn -0.5914 0.7195 -0.3642
vn -0.6172 0.7715 0.1543
vn -0.0000 0.9840 -0.1783
vn -0.0000 0.9981 -0.0624
vn -0.0000 0.9923 0.1240
vn -0.3561 0.7702 0.5291
vn -0.3500 0.9230 0.1596
vn 0.2544 -0.9546 -0.1551
vn 0.2078 -0.9569 0.2028
vn -0.1470 -0.9518 0.2691
vn -0.3196 -0.9463 -0.0478
vn -0.0716 -0.9480 -0.3100
vn -0.7357 -0.6134 -0.2873
vn -0.8998 -0.2938 -0.3225
vn -0.7724 -0.1352 -0.6206
vn -0.5295 -0.3566 -0.7697
vn -0.5068 -0.6522 -0.5637
vn 0.3667 -0.6654 -0.6502
vn 0.0339 -0.6214 -0.7828
vn 0.0227 -0.3031 -0.9527
vn 0.3486 -0.1504 -0.9251
vn 0.5612 -0.3743 -0.7382
vn 0.7188 -0.6780 0.1539
vn 0.7428 -0.6377 -0.2040
vn 0.9070 -0.3231 -0.2700
vn 0.9845 -0.1690 0.0470
vn 0.8682 -0.3883 0.3090
vn 0.0628 -0.6725 0.7374
vn 0.4113 -0.6398 0.6492
vn 0.5310 -0.3262 0.7821
vn 0.2565 -0.1652 0.9523
vn -0.0329 -0.3792 0.9247
vn -0.8967 -0.3597 0.2580
vn -0.6946 -0.6566 0.2939
vn -0.5024 -0.6247 0.5977
vn -0.5857 -0.3081 0.7497
vn -0.8294 -0.1443 0.5397
vn 0.0018 0.3192 -0.9477
vn -0.3247 0.1661 -0.9311
vn -0.5421 0.3869 -0.7460
vn -0.3499 0.6764 -0.6481
vn -0.0138 0.6345 -0.7728
vn 0.9078 0.2991 -0.2941
vn 0.7881 0.1455 -0.5981
vn 0.5491 0.3695 -0.7496
vn 0.5211 0.6615 -0.5394
vn 0.7427 0.6180 -0.2579
vn 0.5661 0.2953 0.7696
vn 0.8151 0.1350 0.5633
vn 0.8896 0.3551 0.2871
vn 0.6867 0.6514 0.3227
vn 0.4867 0.6144 0.6210
vn -0.5510 0.3131 0.7735
vn -0.2810 0.1492 0.9480
vn 0.0089 0.3636 0.9315
vn -0.0820 0.6600 0.7468
vn -0.4281 0.6288 0.6491
vn -0.8998 0.3279 -0.2879
vn -0.9854 0.1684 0.0244
vn -0.8759 0.3832 0.2930
vn -0.7227 0.6754 0.1467
vn -0.7374 0.6412 -0.2123
vn 0.0794 0.9531 -0.2920
vn -0.2505 0.9571 -0.1455
vn -0.2132 0.9534 0.2135
vn 0.1398 0.9471 0.2888
vn 0.3205 0.9469 -0.0236
vn 0.0409 -0.9739 -0.2233
vn -0.1145 -0.9934 -0.0000
vn -0.4716 -0.8806 -0.0464
vn -0.2857 -0.4286 -0.8571
vn -0.0000 -0.4918 -0.8707
vn -0.8047 -0.4183 0.4213
vn -0.4882 -0.6171 0.6171
vn -0.0000 -0.9363 0.3511
vn -0.8889 -0.4444 0.1111
vn -0.0000 -0.9778 0.2095
vn 0.7361 -0.6671 -0.1150
vn 0.7362 -0.4218 -0.5292
vn 0.4381 -0.7881 -0.4323
vn -0.0489 -0.9773 0.2059
vn -0.0383 -0.8476 0.5292
vn 0.7553 -0.4196 0.5035
vn 0.5367 -0.7155 0.4472
vn -0.0000 -0.5011 0.8654
vn -0.0000 -0.8682 0.4961
vn -0.9083 0.1451 -0.3924
vn -0.9767 -0.1788 -0.1183
vn -0.8904 0.3217 0.3222
vn -0.9194 -0.3832 0.0887
vn 0.0686 0.1013 -0.9925
vn -0.1104 -0.0000 -0.9939
vn -0.6412 0.3826 -0.6652
vn -0.2092 0.1374 -0.9682
vn 0.9811 -0.0181 -0.1926
vn 0.8447 -0.0974 -0.5263
vn 0.4364 0.2182 -0.8729
vn 0.7910 0.0719 -0.6076
vn 0.6761 0.0133 0.7367
vn 0.9847 -0.1231 0.1231
vn 0.9446 -0.0083 0.3280
vn -0.6634 0.3456 0.6637
vn -0.3417 -0.0000 0.9398
vn 0.1483 -0.0000 0.9889
vn -0.1414 -0.0000 0.9899
vn -0.5774 0.5774 -0.5774
vn -0.5959 0.4256 -0.6810
vn 0.2979 0.3352 -0.8938
vn 0.5620 0.5849 0.5849
vn -0.0000 0.3511 0.9363
vn 0.3440 0.3596 0.8674
vn -0.6043 0.6973 0.3854
vn -0.6674 0.4767 0.5721
vn -0.2129 0.8516 -0.4790
vn -0.5241 -0.0000 -0.8517
vn -0.0000 0.9906 0.1366
vn -0.7452 0.6520 -0.1397
vn 0.9313 0.0376 -0.3622
vn -0.0000 0.9545 0.2983
vn 0.0953 0.9954 -0.0000
vn 0.0210 -0.1763 -0.9841
vn 0.0119 -0.0262 -0.9996
vn 0.0922 -0.0753 -0.9929
vn 0.0093 0.0270 -0.9996
vn 0.0347 0.2198 -0.9749
vn 0.0921 0.0691 -0.9933
vn 0.0330 -0.2198 0.9750
vn 0.0905 -0.0691 0.9935
vn 0.0076 -0.0269 0.9996
vn 0.0193 0.1760 0.9842
vn 0.0102 0.0263 0.9996
vn 0.0905 0.0754 0.9930
vn -0.0330 -0.2260 -0.9736
vn -0.0905 -0.0753 -0.9930
vn -0.0076 -0.0333 -0.9994
vn -0.0193 0.1697 -0.9853
vn -0.0102 0.0199 -0.9997
vn -0.0906 0.0691 -0.9935
vn -0.0210 -0.1697 0.9853
vn -0.0119 -0.0199 0.9997
vn -0.0922 -0.0691 0.9933
vn -0.0347 0.2259 0.9735
vn -0.0922 0.0755 0.9929
vn -0.0093 0.0334 0.9994
vn 0.1502 -0.9887 0.0033
vn -0.0008 -0.1702 0.9854
vn -0.0008 0.1761 0.9844
vn -0.1502 -0.9887 0.0030
vn 0.0008 -0.1761 -0.9844
vn 0.0008 -0.0333 -0.9994
vn 0.0008 0.1695 -0.9855
vt 0.128500 0.746500
vt 0.126479 0.750000
vt 0.125000 0.746500
vt 0.378500 0.996500
vt 0.376479 1.000000
vt 0.375000 0.996500
vt 0.375000 0.003500
vt 0.378500 0.000000
vt 0.378500 0.003500
vt 0.621500 0.996500
vt 0.625000 0.998521
vt 0.621500 1.000000
vt 0.871500 0.746500
vt 0.875000 0.748521
vt 0.871500 0.750000
vt 0.621500 0.000000
vt 0.625000 0.003500
vt 0.621500 0.003500
vt 0.128500 0.503500
vt 0.125000 0.501479
vt 0.128500 0.500000
vt 0.378500 0.250000
vt 0.375000 0.246500
vt 0.378500 0.246500
vt 0.378500 0.253500
vt 0.375740 0.250740
vt 0.871500 0.503500
vt 0.873521 0.500000
vt 0.875000 0.503500
vt 0.621500 0.253500
vt 0.624260 0.249260
vt 0.625000 0.253500
vt 0.625000 0.246500
vt 0.621500 0.250000
vt 0.621500 0.246500
vt 0.371500 0.746500
vt 0.375493 0.750000
vt 0.373250 0.751750
vt 0.378500 0.750000
vt 0.375000 0.746500
vt 0.378500 0.746500
vt 0.378500 0.753500
vt 0.628500 0.746500
vt 0.625000 0.749507
vt 0.625000 0.746500
vt 0.621500 0.753500
vt 0.626750 0.751750
vt 0.621500 0.750000
vt 0.621500 0.746500
vt 0.371500 0.503500
vt 0.375000 0.500493
vt 0.375000 0.503500
vt 0.378500 0.496500
vt 0.373250 0.498250
vt 0.378500 0.500000
vt 0.378500 0.503500
vt 0.628500 0.503500
vt 0.624507 0.500000
vt 0.626750 0.498250
vt 0.621500 0.500000
vt 0.625000 0.503500
vt 0.621500 0.503500
vt 0.621500 0.496500
vt 0.125000 0.503500
vt 0.378500 1.000000
vt 0.875000 0.746500
vt 0.375000 0.253500
vt 0.871500 0.500000
vt 0.128500 0.750000
vt 0.909091 0.104973
vt 0.899366 0.016844
vt 0.954545 0.078730
vt 0.727273 0.104973
vt 0.717548 0.016845
vt 0.772727 0.078729
vt 0.545455 0.104974
vt 0.535730 0.016845
vt 0.590909 0.078730
vt 0.363637 0.104974
vt 0.353912 0.016845
vt 0.409092 0.078731
vt 0.181819 0.104974
vt 0.172094 0.016845
vt 0.227274 0.078731
vt 0.363637 0.104974
vt 0.270783 0.160830
vt 0.272728 0.078731
vt 0.363636 0.209947
vt 0.363637 0.157461
vt 0.272728 0.262433
vt 0.318182 0.236190
vt 0.181819 0.209947
vt 0.227274 0.236190
vt 0.181819 0.104974
vt 0.181819 0.157461
vt 0.909092 0.104974
vt 0.985413 0.149039
vt 0.909092 0.157461
vt 0.181819 0.104974
vt 0.097393 0.168690
vt 0.136364 0.078731
vt 0.181818 0.209947
vt 0.181818 0.157461
vt 0.090910 0.262434
vt 0.136364 0.236190
vt 0.909092 0.209947
vt 0.954546 0.236190
vt 0.727273 0.104974
vt 0.816237 0.160830
vt 0.727274 0.157461
vt 0.909091 0.104974
vt 0.818182 0.078731
vt 0.909090 0.209947
vt 0.909090 0.157461
vt 0.818182 0.262434
vt 0.863636 0.236191
vt 0.727274 0.209947
vt 0.772728 0.236191
vt 0.545455 0.104974
vt 0.634419 0.160830
vt 0.545456 0.157461
vt 0.727272 0.104974
vt 0.636364 0.078731
vt 0.727272 0.209947
vt 0.727272 0.157461
vt 0.636364 0.262434
vt 0.681818 0.236190
vt 0.545456 0.209947
vt 0.590910 0.236190
vt 0.363637 0.209947
vt 0.452601 0.160830
vt 0.409092 0.236190
vt 0.363637 0.104974
vt 0.363637 0.157461
vt 0.545455 0.104974
vt 0.454546 0.078731
vt 0.545454 0.209947
vt 0.545455 0.157461
vt 0.454546 0.262433
vt 0.500000 0.236190
vt 0.090911 0.262435
vt 0.183764 0.311552
vt 0.090910 0.314921
vt 0.181819 0.209948
vt 0.136365 0.236192
vt 0.272727 0.262435
vt 0.227273 0.236192
vt 0.272727 0.367408
vt 0.272727 0.314921
vt 0.090910 0.367408
vt 0.181819 0.393651
vt 0.818183 0.262435
vt 0.902608 0.303692
vt 0.818182 0.314921
vt 0.909091 0.209949
vt 0.863637 0.236192
vt 0.090909 0.262435
vt 0.014587 0.323343
vt 0.045454 0.236192
vt 0.090909 0.367408
vt 0.090909 0.314921
vt 0.818182 0.367408
vt 0.863637 0.393651
vt 0.636364 0.262435
vt 0.729218 0.311552
vt 0.636364 0.314921
vt 0.727273 0.209949
vt 0.681819 0.236192
vt 0.818181 0.262435
vt 0.772727 0.236192
vt 0.818182 0.314921
vt 0.636364 0.367408
vt 0.727273 0.393651
vt 0.454547 0.262435
vt 0.547400 0.311552
vt 0.454547 0.314921
vt 0.545455 0.209948
vt 0.500001 0.236192
vt 0.636363 0.262435
vt 0.590909 0.236192
vt 0.636364 0.367408
vt 0.636363 0.314921
vt 0.454547 0.367408
vt 0.545455 0.393651
vt 0.272729 0.262435
vt 0.365582 0.311552
vt 0.272729 0.314921
vt 0.363637 0.209948
vt 0.318183 0.236191
vt 0.454545 0.262435
vt 0.409091 0.236191
vt 0.454546 0.367408
vt 0.454545 0.314921
vt 0.272728 0.367408
vt 0.363637 0.393651
vt 0.090910 0.367408
vt 0.100635 0.455537
vt 0.045455 0.393651
vt 0.272728 0.367409
vt 0.282453 0.455538
vt 0.227274 0.393652
vt 0.454546 0.367409
vt 0.464271 0.455537
vt 0.409092 0.393653
vt 0.636364 0.367408
vt 0.646089 0.455537
vt 0.590910 0.393652
vt 0.818182 0.367408
vt 0.827907 0.455537
vt 0.772727 0.393651
vt 0.954546 0.078731
vt 0.318182 0.078731
vt 0.500000 0.078731
vt 0.045455 0.236190
vt 0.954545 0.236192
vt 0.136364 0.393652
vt 0.318182 0.393653
vt 0.863637 0.393651
vt 0.681819 0.393651
vt 0.500000 0.393652
vt 0.909091 0.104973
vt 0.363637 0.104974
vt 0.270783 0.160830
vt 0.272728 0.078731
vt 0.363636 0.209947
vt 0.181820 0.209947
vt 0.227274 0.236190
vt 0.097393 0.168690
vt 0.181818 0.157461
vt 0.909092 0.209947
vt 0.727274 0.157461
vt 0.863636 0.236191
vt 0.634419 0.160830
vt 0.545456 0.157461
vt 0.636364 0.078731
vt 0.727272 0.209947
vt 0.727272 0.157461
vt 0.545456 0.209947
vt 0.452601 0.160830
vt 0.409092 0.236190
vt 0.363637 0.157461
vt 0.090910 0.314921
vt 0.090910 0.367408
vt 0.181819 0.393651
vt 0.818182 0.314921
vt 0.090909 0.367408
vt 0.090909 0.314921
vt 0.729218 0.311552
vt 0.636364 0.314921
vt 0.727273 0.209949
vt 0.772727 0.236192
vt 0.818182 0.367408
vt 0.547400 0.311552
vt 0.454547 0.314921
vt 0.500001 0.236192
vt 0.636364 0.367408
vt 0.272729 0.314921
vt 0.409091 0.236191
vt 0.272728 0.367408
vt 0.090910 0.367408
vt 0.272728 0.367409
vt 0.636364 0.367408
vt 0.136365 0.078730
vt 0.681819 0.078730
vt 0.045455 0.393651
vt 0.128500 0.746500
vt 0.128500 0.503500
vt 0.378500 0.246500
vt 0.378500 0.253500
vt 0.871500 0.503500
vt 0.621500 0.253500
vt 0.371500 0.746500
vt 0.378500 0.753500
vt 0.621500 0.753500
vt 0.621500 0.746500
vt 0.371500 0.503500
vt 0.626750 0.498250
vt 0.621500 0.496500
vt 0.625000 0.996500
vt 0.375000 0.001479
vt 0.623521 0.000000
vt 0.863637 0.078729
s 0
usemtl wood
f 1/1/1 5/2/1 7/3/1
f 2/4/2 5/5/2 4/6/2
f 7/7/3 6/8/3 3/9/3
f 8/10/4 12/11/4 14/12/4
f 9/13/5 12/14/5 11/15/5
f 14/16/6 13/17/6 10/18/6
f 15/19/7 19/20/7 21/21/7
f 20/22/8 18/23/8 16/24/8
f 17/25/9 19/26/9 20/22/9
f 22/27/10 26/28/10 28/29/10
f 23/30/11 26/31/11 25/32/11
f 28/33/12 27/34/12 24/35/12
f 29/36/13 33/37/13 35/38/13
f 34/39/14 32/40/14 30/41/14
f 31/42/15 33/37/15 34/39/15
f 36/43/16 40/44/16 42/45/16
f 37/46/17 40/44/17 39/47/17
f 42/45/18 41/48/18 38/49/18
f 43/50/19 47/51/19 49/52/19
f 44/53/20 47/51/20 46/54/20
f 49/52/21 48/55/21 45/56/21
f 50/57/22 54/58/22 56/59/22
f 55/60/23 53/61/23 51/62/23
f 52/63/24 54/58/24 55/60/24
f 15/19/25 7/3/25 18/64/25
f 18/23/26 3/9/26 16/24/26
f 8/10/27 6/65/27 2/4/27
f 14/16/28 3/9/28 6/8/28
f 9/13/29 28/29/29 13/66/29
f 28/33/30 10/18/30 13/17/30
f 23/30/31 20/22/31 27/34/31
f 20/22/32 24/35/32 27/34/32
f 43/50/33 21/21/33 46/54/33
f 21/67/34 44/53/34 46/54/34
f 50/57/35 25/68/35 22/27/35
f 56/59/36 23/30/36 25/32/36
f 45/56/37 55/60/37 51/62/37
f 48/55/38 52/63/38 55/60/38
f 43/50/39 32/40/39 29/36/39
f 32/40/40 45/56/40 30/41/40
f 36/43/41 53/61/41 50/57/41
f 42/45/42 51/62/42 53/61/42
f 31/42/43 41/48/43 37/46/43
f 34/39/44 38/49/44 41/48/44
f 1/1/45 35/38/45 4/69/45
f 35/38/46 2/4/46 4/6/46
f 9/13/47 39/47/47 36/43/47
f 39/47/48 8/10/48 37/46/48
f 43/50/49 1/1/49 15/19/49
f 10/18/50 16/24/50 3/9/50
f 37/46/51 2/4/51 31/42/51
f 22/27/52 36/43/52 50/57/52
f 23/30/53 44/53/53 17/25/53
f 51/62/54 30/41/54 45/56/54
f 1/1/368 4/69/368 5/2/368
f 2/4/369 6/65/369 5/5/369
f 7/7/370 5/280/370 6/8/370
f 8/10/371 11/279/371 12/11/371
f 9/13/372 13/66/372 12/14/372
f 14/16/373 12/281/373 13/17/373
f 15/19/374 18/64/374 19/20/374
f 20/22/375 19/26/375 18/23/375
f 17/25/376 21/67/376 19/26/376
f 22/27/377 25/68/377 26/28/377
f 23/30/378 27/34/378 26/31/378
f 28/33/379 26/31/379 27/34/379
f 29/36/380 32/40/380 33/37/380
f 34/39/381 33/37/381 32/40/381
f 31/42/382 35/38/382 33/37/382
f 36/43/383 39/47/383 40/44/383
f 37/46/384 41/48/384 40/44/384
f 42/45/385 40/44/385 41/48/385
f 43/50/386 46/54/386 47/51/386
f 44/53/387 48/55/387 47/51/387
f 49/52/388 47/51/388 48/55/388
f 50/57/389 53/61/389 54/58/389
f 55/60/390 54/58/390 53/61/390
f 52/63/391 56/59/391 54/58/391
f 15/19/25 1/1/25 7/3/25
f 18/23/26 7/7/26 3/9/26
f 8/10/27 14/12/27 6/65/27
f 14/16/28 10/18/28 3/9/28
f 9/13/392 22/27/392 28/29/392
f 28/33/30 24/35/30 10/18/30
f 23/30/31 17/25/31 20/22/31
f 20/22/32 16/24/32 24/35/32
f 43/50/393 15/19/393 21/21/393
f 21/67/34 17/25/34 44/53/34
f 50/57/394 56/59/394 25/68/394
f 56/59/36 52/63/36 23/30/36
f 45/56/37 48/55/37 55/60/37
f 48/55/38 44/53/38 52/63/38
f 43/50/395 49/52/395 32/40/395
f 32/40/40 49/52/40 45/56/40
f 36/43/41 42/45/41 53/61/41
f 42/45/42 38/49/42 51/62/42
f 31/42/43 34/39/43 41/48/43
f 34/39/44 30/41/44 38/49/44
f 1/1/45 29/36/45 35/38/45
f 35/38/46 31/42/46 2/4/46
f 9/13/396 11/15/396 39/47/396
f 39/47/48 11/279/48 8/10/48
f 43/50/49 29/36/49 1/1/49
f 10/18/50 24/35/50 16/24/50
f 37/46/51 8/10/51 2/4/51
f 22/27/52 9/13/52 36/43/52
f 23/30/53 52/63/53 44/53/53
f 51/62/54 38/49/54 30/41/54
usemtl iron
f 57/70/55 63/71/55 67/72/55
f 58/73/56 63/74/56 62/75/56
f 59/76/57 63/77/57 64/78/57
f 60/79/58 63/80/58 65/81/58
f 61/82/59 63/83/59 66/84/59
f 68/85/60 74/86/60 78/87/60
f 69/88/61 74/86/61 73/89/61
f 70/90/62 74/86/62 75/91/62
f 71/92/63 74/86/63 76/93/63
f 72/94/64 74/86/64 77/95/64
f 79/96/65 85/97/65 89/98/65
f 80/99/66 85/100/66 84/101/66
f 81/102/67 85/100/67 86/103/67
f 82/104/68 85/100/68 87/105/68
f 83/106/69 85/97/69 88/107/69
f 90/108/70 96/109/70 100/110/70
f 91/111/71 96/109/71 95/112/71
f 92/113/72 96/109/72 97/114/72
f 93/115/73 96/109/73 98/116/73
f 94/117/74 96/109/74 99/118/74
f 101/119/75 107/120/75 111/121/75
f 102/122/76 107/120/76 106/123/76
f 103/124/77 107/120/77 108/125/77
f 104/126/78 107/120/78 109/127/78
f 105/128/79 107/120/79 110/129/79
f 112/130/80 118/131/80 122/132/80
f 113/133/81 118/131/81 117/134/81
f 114/135/82 118/131/82 119/136/82
f 115/137/83 118/131/83 120/138/83
f 116/139/84 118/131/84 121/140/84
f 123/141/85 129/142/85 133/143/85
f 124/144/86 129/142/86 128/145/86
f 125/146/87 129/142/87 130/147/87
f 126/148/88 129/142/88 131/149/88
f 127/150/89 129/142/89 132/151/89
f 134/152/90 140/153/90 144/154/90
f 135/155/91 140/153/91 139/156/91
f 136/157/92 140/158/92 141/159/92
f 137/160/93 140/158/93 142/161/93
f 138/162/94 140/153/94 143/163/94
f 145/164/95 151/165/95 155/166/95
f 146/167/96 151/165/96 150/168/96
f 147/169/97 151/165/97 152/170/97
f 148/162/98 151/165/98 153/171/98
f 149/172/99 151/165/99 154/173/99
f 156/174/100 162/175/100 166/176/100
f 157/177/101 162/175/101 161/178/101
f 158/179/102 162/175/102 163/180/102
f 159/181/103 162/175/103 164/182/103
f 160/183/104 162/175/104 165/184/104
f 167/185/105 173/186/105 177/187/105
f 168/188/106 173/186/106 172/189/106
f 169/190/107 173/186/107 174/191/107
f 170/192/108 173/186/108 175/193/108
f 171/194/109 173/186/109 176/195/109
f 178/196/110 184/197/110 188/198/110
f 179/199/111 184/200/111 183/201/111
f 180/202/112 184/203/112 185/204/112
f 181/205/113 184/206/113 186/207/113
f 182/208/114 184/209/114 187/210/114
f 79/96/115 67/72/115 84/211/115
f 84/101/116 61/82/116 80/99/116
f 60/79/117 78/87/117 66/212/117
f 66/84/118 72/94/118 61/82/118
f 81/102/119 77/95/119 71/92/119
f 77/95/120 80/99/120 72/94/120
f 112/130/121 73/89/121 117/134/121
f 117/134/122 68/85/122 113/133/122
f 59/76/123 119/136/123 65/213/123
f 65/81/124 113/133/124 60/79/124
f 58/73/125 95/112/125 90/108/125
f 95/112/126 57/70/126 91/111/126
f 92/113/127 89/98/127 83/106/127
f 89/98/128 91/111/128 79/96/128
f 101/119/129 64/78/129 106/123/129
f 106/123/130 58/73/130 102/122/130
f 94/117/131 108/125/131 100/110/131
f 108/125/132 90/108/132 100/110/132
f 105/128/133 120/138/133 111/121/133
f 111/121/134 114/135/134 101/119/134
f 167/185/135 75/91/135 172/189/135
f 75/91/136 168/188/136 172/189/136
f 116/139/137 174/191/137 122/132/137
f 174/191/138 112/130/138 122/132/138
f 123/141/139 87/105/139 128/145/139
f 128/145/140 81/102/140 124/144/140
f 125/146/141 76/93/141 70/90/141
f 130/147/142 71/92/142 76/93/142
f 93/115/143 139/156/143 134/152/143
f 98/116/144 135/155/144 139/156/144
f 82/104/145 141/159/145 88/214/145
f 141/215/146 83/106/146 88/107/146
f 145/164/147 109/127/147 150/168/147
f 150/168/148 103/124/148 146/167/148
f 93/115/149 152/170/149 99/118/149
f 152/170/150 94/117/150 99/118/150
f 156/174/151 121/140/151 161/178/151
f 161/178/152 115/137/152 157/177/152
f 158/179/153 110/129/153 104/126/153
f 110/129/154 157/177/154 105/128/154
f 171/194/155 131/149/155 177/187/155
f 131/149/156 167/185/156 177/187/156
f 137/160/123 133/143/123 127/150/123
f 142/161/157 123/141/157 133/143/157
f 138/162/158 153/171/158 144/154/158
f 153/171/159 134/152/159 144/154/159
f 159/181/160 155/166/160 149/172/160
f 155/166/161 158/179/161 145/164/161
f 160/183/162 175/193/162 166/176/162
f 166/176/163 169/190/163 156/174/163
f 178/196/164 132/151/164 183/216/164
f 132/151/165 179/199/165 183/201/165
f 170/192/166 185/204/166 176/195/166
f 185/217/167 171/194/167 176/195/167
f 182/208/168 143/163/168 188/218/168
f 188/198/169 137/160/169 178/196/169
f 181/205/123 154/173/123 187/219/123
f 187/210/123 148/162/123 182/208/123
f 160/183/170 186/220/170 180/202/170
f 165/184/171 181/205/171 186/207/171
f 57/70/172 79/96/172 91/111/172
f 61/82/123 72/94/123 80/99/123
f 68/85/123 60/79/123 113/133/123
f 58/73/173 90/108/173 102/122/173
f 59/76/174 101/119/174 114/135/174
f 69/88/175 112/130/175 168/188/175
f 70/90/176 167/185/176 125/146/176
f 81/102/177 71/92/177 124/144/177
f 82/104/178 123/141/178 136/157/178
f 92/113/179 83/106/179 135/155/179
f 93/115/180 134/152/180 147/169/180
f 103/124/181 94/117/181 146/167/181
f 104/126/182 145/164/182 158/179/182
f 115/137/183 105/128/183 157/177/183
f 116/139/184 156/174/184 169/190/184
f 137/160/185 127/150/185 178/196/185
f 126/148/186 171/194/186 179/199/186
f 148/162/123 138/162/123 182/208/123
f 159/181/123 149/172/123 181/205/123
f 170/192/187 160/183/187 180/202/187
f 189/221/188 195/71/188 199/72/188
f 190/73/189 195/74/189 194/75/189
f 191/76/190 195/77/190 196/78/190
f 192/79/191 195/80/191 197/81/191
f 193/82/192 195/83/192 198/84/192
f 200/222/193 206/223/193 210/224/193
f 201/225/194 206/223/194 205/89/194
f 202/90/195 206/223/195 207/91/195
f 203/226/196 206/223/196 208/227/196
f 204/94/197 206/223/197 209/95/197
f 211/96/198 217/97/198 221/98/198
f 212/99/199 217/228/199 216/101/199
f 213/102/200 217/228/200 218/229/200
f 214/104/201 217/228/201 219/105/201
f 215/230/202 217/97/202 220/107/202
f 222/108/203 228/109/203 232/231/203
f 223/111/204 228/109/204 227/112/204
f 224/113/205 228/109/205 229/114/205
f 225/115/206 228/109/206 230/232/206
f 226/117/207 228/109/207 231/118/207
f 233/119/208 239/233/208 243/234/208
f 234/122/209 239/233/209 238/235/209
f 235/236/210 239/233/210 240/237/210
f 236/126/211 239/233/211 241/127/211
f 237/238/212 239/233/212 242/129/212
f 244/130/213 250/239/213 254/240/213
f 245/133/214 250/239/214 249/241/214
f 246/135/215 250/239/215 251/136/215
f 247/137/216 250/239/216 252/138/216
f 248/139/217 250/239/217 253/140/217
f 255/141/218 261/142/218 265/242/218
f 256/144/219 261/142/219 260/145/219
f 257/146/220 261/142/220 262/147/220
f 258/148/221 261/142/221 263/149/221
f 259/243/222 261/142/222 264/244/222
f 266/152/223 272/153/223 276/245/223
f 267/155/224 272/153/224 271/156/224
f 268/157/225 272/158/225 273/159/225
f 269/246/226 272/158/226 274/247/226
f 270/162/227 272/153/227 275/163/227
f 277/164/228 283/248/228 287/249/228
f 278/250/229 283/248/229 282/168/229
f 279/169/230 283/248/230 284/251/230
f 280/252/231 283/248/231 285/171/231
f 281/172/232 283/248/232 286/173/232
f 288/174/233 294/253/233 298/254/233
f 289/177/234 294/253/234 293/255/234
f 290/179/235 294/253/235 295/180/235
f 291/256/236 294/253/236 296/182/236
f 292/183/237 294/253/237 297/184/237
f 299/185/238 305/186/238 309/257/238
f 300/188/239 305/186/239 304/189/239
f 301/190/240 305/186/240 306/258/240
f 302/192/241 305/186/241 307/193/241
f 303/259/242 305/186/242 308/195/242
f 310/260/243 316/197/243 320/198/243
f 311/261/244 316/200/244 315/201/244
f 312/202/245 316/203/245 317/204/245
f 313/262/246 316/206/246 318/207/246
f 314/208/247 316/209/247 319/210/247
f 189/221/248 216/211/248 211/96/248
f 199/263/249 212/99/249 216/101/249
f 192/79/250 210/224/250 198/212/250
f 210/224/251 193/82/251 198/84/251
f 203/226/252 218/229/252 209/95/252
f 218/229/253 204/94/253 209/95/253
f 201/225/254 249/241/254 244/130/254
f 249/241/123 200/222/123 245/133/123
f 191/76/255 251/136/255 197/213/255
f 197/81/123 245/133/123 192/79/123
f 222/108/256 194/75/256 227/112/256
f 227/112/257 189/221/257 223/111/257
f 224/113/258 221/98/258 215/230/258
f 229/114/259 211/96/259 221/98/259
f 191/76/174 238/235/174 233/119/174
f 196/264/260 234/122/260 238/235/260
f 226/117/261 240/237/261 232/231/261
f 232/231/262 234/122/262 222/108/262
f 247/137/263 243/234/263 237/238/263
f 243/234/264 246/135/264 233/119/264
f 202/90/265 304/189/265 299/185/265
f 207/91/266 300/188/266 304/189/266
f 301/190/267 254/240/267 248/139/267
f 306/258/268 244/130/268 254/240/268
f 214/104/269 260/145/269 255/141/269
f 260/145/270 213/102/270 256/144/270
f 257/146/271 208/227/271 202/90/271
f 262/147/272 203/226/272 208/227/272
f 225/115/273 271/156/273 266/152/273
f 230/232/274 267/155/274 271/156/274
f 214/104/275 273/159/275 220/214/275
f 273/215/276 215/230/276 220/107/276
f 277/164/277 241/127/277 282/168/277
f 241/127/278 278/250/278 282/168/278
f 225/115/279 284/251/279 231/118/279
f 284/251/280 226/117/280 231/118/280
f 248/139/281 293/255/281 288/174/281
f 293/255/282 247/137/282 289/177/282
f 236/126/283 295/180/283 242/129/283
f 242/129/284 289/177/284 237/238/284
f 303/259/285 263/149/285 309/257/285
f 309/257/286 257/146/286 299/185/286
f 259/243/287 274/247/287 265/242/287
f 265/242/288 268/157/288 255/141/288
f 270/162/289 285/171/289 276/245/289
f 276/245/290 279/169/290 266/152/290
f 281/172/291 296/182/291 287/249/291
f 296/182/292 277/164/292 287/249/292
f 302/192/293 298/254/293 292/183/293
f 298/254/294 301/190/294 288/174/294
f 310/260/295 264/244/295 315/216/295
f 315/201/296 258/148/296 311/261/296
f 302/192/297 317/204/297 308/195/297
f 308/195/298 311/261/298 303/259/298
f 314/208/123 275/163/123 320/218/123
f 275/265/299 310/260/299 320/198/299
f 281/172/174 319/219/174 313/262/174
f 319/210/123 280/252/123 314/208/123
f 312/202/300 297/184/300 318/220/300
f 297/184/301 313/262/301 318/207/301
f 189/221/302 211/96/302 223/111/302
f 193/82/118 204/94/118 212/99/118
f 200/222/123 192/79/123 245/133/123
f 190/73/303 222/108/303 234/122/303
f 191/76/123 233/119/123 246/135/123
f 201/225/304 244/130/304 300/188/304
f 202/90/305 299/185/305 257/146/305
f 213/102/306 203/226/306 256/144/306
f 214/104/178 255/141/178 268/157/178
f 224/113/307 215/230/307 267/155/307
f 225/115/124 266/152/124 279/169/124
f 235/236/308 226/117/308 278/250/308
f 236/126/309 277/164/309 290/179/309
f 247/137/310 237/238/310 289/177/310
f 248/139/311 288/174/311 301/190/311
f 269/246/123 259/243/123 310/260/123
f 258/148/312 303/259/312 311/261/312
f 280/252/123 270/162/123 314/208/123
f 291/256/123 281/172/123 313/262/123
f 302/192/313 292/183/313 312/202/313
f 57/70/397 62/282/397 63/71/397
f 58/73/398 64/264/398 63/74/398
f 59/76/399 65/213/399 63/77/399
f 60/79/400 66/212/400 63/80/400
f 61/82/401 67/263/401 63/83/401
f 68/85/402 73/89/402 74/86/402
f 69/88/403 75/91/403 74/86/403
f 70/90/404 76/93/404 74/86/404
f 71/92/405 77/95/405 74/86/405
f 72/94/406 78/87/406 74/86/406
f 79/96/407 84/211/407 85/97/407
f 80/99/408 86/103/408 85/100/408
f 81/102/409 87/105/409 85/100/409
f 82/104/410 88/214/410 85/100/410
f 83/106/411 89/98/411 85/97/411
f 90/108/412 95/112/412 96/109/412
f 91/111/413 97/114/413 96/109/413
f 92/113/414 98/116/414 96/109/414
f 93/115/415 99/118/415 96/109/415
f 94/117/416 100/110/416 96/109/416
f 101/119/417 106/123/417 107/120/417
f 102/122/418 108/125/418 107/120/418
f 103/124/419 109/127/419 107/120/419
f 104/126/420 110/129/420 107/120/420
f 105/128/421 111/121/421 107/120/421
f 112/130/422 117/134/422 118/131/422
f 113/133/423 119/136/423 118/131/423
f 114/135/424 120/138/424 118/131/424
f 115/137/425 121/140/425 118/131/425
f 116/139/426 122/132/426 118/131/426
f 123/141/427 128/145/427 129/142/427
f 124/144/428 130/147/428 129/142/428
f 125/146/429 131/149/429 129/142/429
f 126/148/430 132/151/430 129/142/430
f 127/150/431 133/143/431 129/142/431
f 134/152/432 139/156/432 140/153/432
f 135/155/433 141/215/433 140/153/433
f 136/157/434 142/161/434 140/158/434
f 137/160/435 143/265/435 140/158/435
f 138/162/436 144/154/436 140/153/436
f 145/164/437 150/168/437 151/165/437
f 146/167/438 152/170/438 151/165/438
f 147/169/439 153/171/439 151/165/439
f 148/162/440 154/173/440 151/165/440
f 149/172/441 155/166/441 151/165/441
f 156/174/442 161/178/442 162/175/442
f 157/177/443 163/180/443 162/175/443
f 158/179/444 164/182/444 162/175/444
f 159/181/445 165/184/445 162/175/445
f 160/183/446 166/176/446 162/175/446
f 167/185/447 172/189/447 173/186/447
f 168/188/448 174/191/448 173/186/448
f 169/190/449 175/193/449 173/186/449
f 170/192/450 176/195/450 173/186/450
f 171/194/451 177/187/451 173/186/451
f 178/196/452 183/216/452 184/197/452
f 179/199/453 185/217/453 184/200/453
f 180/202/454 186/220/454 184/203/454
f 181/205/455 187/219/455 184/206/455
f 182/208/456 188/218/456 184/209/456
f 79/96/457 57/70/457 67/72/457
f 84/101/458 67/263/458 61/82/458
f 60/79/123 68/85/123 78/87/123
f 66/84/459 78/87/459 72/94/459
f 81/102/460 86/103/460 77/95/460
f 77/95/461 86/103/461 80/99/461
f 112/130/254 69/88/254 73/89/254
f 117/134/462 73/89/462 68/85/462
f 59/76/463 114/135/463 119/136/463
f 65/81/123 119/136/123 113/133/123
f 58/73/464 62/75/464 95/112/464
f 95/112/465 62/282/465 57/70/465
f 92/113/466 97/114/466 89/98/466
f 89/98/467 97/114/467 91/111/467
f 101/119/174 59/76/174 64/78/174
f 106/123/468 64/264/468 58/73/468
f 94/117/469 103/124/469 108/125/469
f 108/125/470 102/122/470 90/108/470
f 105/128/471 115/137/471 120/138/471
f 111/121/472 120/138/472 114/135/472
f 167/185/473 70/90/473 75/91/473
f 75/91/474 69/88/474 168/188/474
f 116/139/475 169/190/475 174/191/475
f 174/191/476 168/188/476 112/130/476
f 123/141/477 82/104/477 87/105/477
f 128/145/478 87/105/478 81/102/478
f 125/146/479 130/147/479 76/93/479
f 130/147/480 124/144/480 71/92/480
f 93/115/481 98/116/481 139/156/481
f 98/116/482 92/113/482 135/155/482
f 82/104/483 136/157/483 141/159/483
f 141/215/484 135/155/484 83/106/484
f 145/164/485 104/126/485 109/127/485
f 150/168/486 109/127/486 103/124/486
f 93/115/487 147/169/487 152/170/487
f 152/170/488 146/167/488 94/117/488
f 156/174/489 116/139/489 121/140/489
f 161/178/490 121/140/490 115/137/490
f 158/179/491 163/180/491 110/129/491
f 110/129/492 163/180/492 157/177/492
f 171/194/493 126/148/493 131/149/493
f 131/149/494 125/146/494 167/185/494
f 137/160/495 142/161/495 133/143/495
f 142/161/496 136/157/496 123/141/496
f 138/162/123 148/162/123 153/171/123
f 153/171/497 147/169/497 134/152/497
f 159/181/498 164/182/498 155/166/498
f 155/166/499 164/182/499 158/179/499
f 160/183/500 170/192/500 175/193/500
f 166/176/501 175/193/501 169/190/501
f 178/196/502 127/150/502 132/151/502
f 132/151/503 126/148/503 179/199/503
f 170/192/504 180/202/504 185/204/504
f 185/217/505 179/199/505 171/194/505
f 182/208/123 138/162/123 143/163/123
f 188/198/506 143/265/506 137/160/506
f 181/205/507 149/172/507 154/173/507
f 187/210/299 154/173/299 148/162/299
f 160/183/508 165/184/508 186/220/508
f 165/184/509 159/181/509 181/205/509
f 189/221/510 194/282/510 195/71/510
f 190/73/511 196/264/511 195/74/511
f 191/76/512 197/213/512 195/77/512
f 192/79/513 198/212/513 195/80/513
f 193/82/514 199/263/514 195/83/514
f 200/222/515 205/89/515 206/223/515
f 201/225/516 207/91/516 206/223/516
f 202/90/517 208/227/517 206/223/517
f 203/226/518 209/95/518 206/223/518
f 204/94/519 210/224/519 206/223/519
f 211/96/520 216/211/520 217/97/520
f 212/99/521 218/229/521 217/228/521
f 213/102/522 219/105/522 217/228/522
f 214/104/523 220/214/523 217/228/523
f 215/230/524 221/98/524 217/97/524
f 222/108/525 227/112/525 228/109/525
f 223/111/526 229/114/526 228/109/526
f 224/113/527 230/232/527 228/109/527
f 225/115/528 231/118/528 228/109/528
f 226/117/529 232/231/529 228/109/529
f 233/119/530 238/235/530 239/233/530
f 234/122/531 240/237/531 239/233/531
f 235/236/532 241/127/532 239/233/532
f 236/126/533 242/129/533 239/233/533
f 237/238/534 243/234/534 239/233/534
f 244/130/535 249/241/535 250/239/535
f 245/133/536 251/136/536 250/239/536
f 246/135/537 252/138/537 250/239/537
f 247/137/538 253/140/538 250/239/538
f 248/139/539 254/240/539 250/239/539
f 255/141/540 260/145/540 261/142/540
f 256/144/541 262/147/541 261/142/541
f 257/146/542 263/149/542 261/142/542
f 258/148/543 264/244/543 261/142/543
f 259/243/544 265/242/544 261/142/544
f 266/152/545 271/156/545 272/153/545
f 267/155/546 273/215/546 272/153/546
f 268/157/547 274/247/547 272/158/547
f 269/246/548 275/265/548 272/158/548
f 270/162/549 276/245/549 272/153/549
f 277/164/550 282/168/550 283/248/550
f 278/250/551 284/251/551 283/248/551
f 279/169/552 285/171/552 283/248/552
f 280/252/553 286/173/553 283/248/553
f 281/172/554 287/249/554 283/248/554
f 288/174/555 293/255/555 294/253/555
f 289/177/556 295/180/556 294/253/556
f 290/179/557 296/182/557 294/253/557
f 291/256/558 297/184/558 294/253/558
f 292/183/559 298/254/559 294/253/559
f 299/185/560 304/189/560 305/186/560
f 300/188/561 306/258/561 305/186/561
f 301/190/562 307/193/562 305/186/562
f 302/192/563 308/195/563 305/186/563
f 303/259/564 309/257/564 305/186/564
f 310/260/565 315/216/565 316/197/565
f 311/261/566 317/217/566 316/200/566
f 312/202/567 318/220/567 316/203/567
f 313/262/568 319/219/568 316/206/568
f 314/208/569 320/218/569 316/209/569
f 189/221/570 199/72/570 216/211/570
f 199/263/571 193/82/571 212/99/571
f 192/79/123 200/222/123 210/224/123
f 210/224/572 204/94/572 193/82/572
f 203/226/573 213/102/573 218/229/573
f 218/229/574 212/99/574 204/94/574
f 201/225/575 205/89/575 249/241/575
f 249/241/576 205/89/576 200/222/576
f 191/76/577 246/135/577 251/136/577
f 197/81/578 251/136/578 245/133/578
f 222/108/579 190/73/579 194/75/579
f 227/112/580 194/282/580 189/221/580
f 224/113/581 229/114/581 221/98/581
f 229/114/582 223/111/582 211/96/582
f 191/76/583 196/78/583 238/235/583
f 196/264/584 190/73/584 234/122/584
f 226/117/585 235/236/585 240/237/585
f 232/231/586 240/237/586 234/122/586
f 247/137/587 252/138/587 243/234/587
f 243/234/588 252/138/588 246/135/588
f 202/90/589 207/91/589 304/189/589
f 207/91/590 201/225/590 300/188/590
f 301/190/591 306/258/591 254/240/591
f 306/258/592 300/188/592 244/130/592
f 214/104/593 219/105/593 260/145/593
f 260/145/594 219/105/594 213/102/594
f 257/146/595 262/147/595 208/227/595
f 262/147/596 256/144/596 203/226/596
f 225/115/597 230/232/597 271/156/597
f 230/232/598 224/113/598 267/155/598
f 214/104/599 268/157/599 273/159/599
f 273/215/600 267/155/600 215/230/600
f 277/164/309 236/126/309 241/127/309
f 241/127/601 235/236/601 278/250/601
f 225/115/602 279/169/602 284/251/602
f 284/251/603 278/250/603 226/117/603
f 248/139/604 253/140/604 293/255/604
f 293/255/605 253/140/605 247/137/605
f 236/126/606 290/179/606 295/180/606
f 242/129/607 295/180/607 289/177/607
f 303/259/608 258/148/608 263/149/608
f 309/257/609 263/149/609 257/146/609
f 259/243/123 269/246/123 274/247/123
f 265/242/610 274/247/610 268/157/610
f 270/162/123 280/252/123 285/171/123
f 276/245/611 285/171/611 279/169/611
f 281/172/612 291/256/612 296/182/612
f 296/182/613 290/179/613 277/164/613
f 302/192/614 307/193/614 298/254/614
f 298/254/615 307/193/615 301/190/615
f 310/260/616 259/243/616 264/244/616
f 315/201/617 264/244/617 258/148/617
f 302/192/618 312/202/618 317/204/618
f 308/195/619 317/217/619 311/261/619
f 314/208/123 270/162/123 275/163/123
f 275/265/620 269/246/620 310/260/620
f 281/172/123 286/173/123 319/219/123
f 319/210/249 286/173/249 280/252/249
f 312/202/621 292/183/621 297/184/621
f 297/184/622 291/256/622 313/262/622
usemtl slate
f 321/266/314 325/2/314 327/3/314
f 322/4/315 325/5/315 324/6/315
f 327/7/316 326/8/316 323/9/316
f 328/10/317 332/11/317 334/12/317
f 329/13/318 332/14/318 331/15/318
f 334/16/319 333/17/319 330/18/319
f 335/267/320 339/20/320 341/21/320
f 340/22/321 338/23/321 336/268/321
f 337/269/322 339/26/322 340/22/322
f 342/270/323 346/28/323 348/29/323
f 343/271/324 346/31/324 345/32/324
f 348/33/325 347/34/325 344/35/325
f 349/272/326 353/37/326 355/38/326
f 354/39/327 352/40/327 350/41/327
f 351/273/328 353/37/328 354/39/328
f 356/43/329 360/44/329 362/45/329
f 357/274/330 360/44/330 359/47/330
f 362/45/331 361/48/331 358/275/331
f 363/276/332 367/51/332 369/52/332
f 364/53/333 367/51/333 366/54/333
f 369/52/334 368/55/334 365/56/334
f 370/57/335 374/58/335 376/277/335
f 375/60/336 373/61/336 371/62/336
f 372/278/337 374/58/337 375/60/337
f 321/266/338 338/64/338 335/267/338
f 338/23/339 323/9/339 336/268/339
f 328/10/340 326/65/340 322/4/340
f 334/16/341 323/9/341 326/8/341
f 329/13/342 348/29/342 333/66/342
f 348/33/343 330/18/343 333/17/343
f 343/271/344 340/22/344 347/34/344
f 347/34/345 336/268/345 344/35/345
f 335/267/346 366/54/346 363/276/346
f 341/67/347 364/53/347 366/54/347
f 370/57/348 345/68/348 342/270/348
f 376/277/349 343/271/349 345/32/349
f 371/62/350 368/55/350 375/60/350
f 368/55/351 372/278/351 375/60/351
f 363/276/352 352/40/352 349/272/352
f 369/52/353 350/41/353 352/40/353
f 356/43/354 373/61/354 370/57/354
f 373/61/355 358/275/355 371/62/355
f 351/273/356 361/48/356 357/274/356
f 354/39/357 358/275/357 361/48/357
f 321/266/358 355/38/358 324/69/358
f 355/38/359 322/4/359 324/6/359
f 329/13/360 359/47/360 356/43/360
f 331/279/361 357/274/361 359/47/361
f 363/276/362 321/266/362 335/267/362
f 330/18/363 336/268/363 323/9/363
f 357/274/364 322/4/364 351/273/364
f 342/270/365 356/43/365 370/57/365
f 343/271/366 364/53/366 337/269/366
f 371/62/367 350/41/367 365/56/367
f 321/266/623 324/69/623 325/2/623
f 322/4/624 326/65/624 325/5/624
f 327/7/625 325/280/625 326/8/625
f 328/10/626 331/279/626 332/11/626
f 329/13/627 333/66/627 332/14/627
f 334/16/628 332/281/628 333/17/628
f 335/267/629 338/64/629 339/20/629
f 340/22/630 339/26/630 338/23/630
f 337/269/631 341/67/631 339/26/631
f 342/270/632 345/68/632 346/28/632
f 343/271/633 347/34/633 346/31/633
f 348/33/634 346/31/634 347/34/634
f 349/272/635 352/40/635 353/37/635
f 354/39/636 353/37/636 352/40/636
f 351/273/637 355/38/637 353/37/637
f 356/43/638 359/47/638 360/44/638
f 357/274/639 361/48/639 360/44/639
f 362/45/640 360/44/640 361/48/640
f 363/276/641 366/54/641 367/51/641
f 364/53/642 368/55/642 367/51/642
f 369/52/643 367/51/643 368/55/643
f 370/57/644 373/61/644 374/58/644
f 375/60/645 374/58/645 373/61/645
f 372/278/646 376/277/646 374/58/646
f 321/266/647 327/3/647 338/64/647
f 338/23/339 327/7/339 323/9/339
f 328/10/340 334/12/340 326/65/340
f 334/16/341 330/18/341 323/9/341
f 329/13/342 342/270/342 348/29/342
f 348/33/343 344/35/343 330/18/343
f 343/271/344 337/269/344 340/22/344
f 347/34/345 340/22/345 336/268/345
f 335/267/648 341/21/648 366/54/648
f 341/67/347 337/269/347 364/53/347
f 370/57/649 376/277/649 345/68/649
f 376/277/349 372/278/349 343/271/349
f 371/62/350 365/56/350 368/55/350
f 368/55/351 364/53/351 372/278/351
f 363/276/650 369/52/650 352/40/650
f 369/52/353 365/56/353 350/41/353
f 356/43/354 362/45/354 373/61/354
f 373/61/355 362/45/355 358/275/355
f 351/273/356 354/39/356 361/48/356
f 354/39/357 350/41/357 358/275/357
f 321/266/651 349/272/651 355/38/651
f 355/38/652 351/273/652 322/4/652
f 329/13/653 331/15/653 359/47/653
f 331/279/361 328/10/361 357/274/361
f 363/276/362 349/272/362 321/266/362
f 330/18/363 344/35/363 336/268/363
f 357/274/364 328/10/364 322/4/364
f 342/270/365 329/13/365 356/43/365
f 343/271/366 372/278/366 364/53/366
f 371/62/367 358/275/367 350/41/367
