# Blender 4.5.10 LTS
# www.blender.org
mtllib stow_perch_remodel_a.mtl
o stow_perch_remodel_a
v -0.237663 -0.094489 -0.186384
v -0.159161 0.804383 -0.138775
v -0.061270 -0.098096 -0.291190
v -0.029806 0.801738 -0.215633
v 0.141220 -0.101718 -0.258069
v 0.118686 0.799082 -0.191344
v 0.275057 -0.103659 -0.102520
v 0.216834 0.797659 -0.077275
v 0.277620 -0.103011 0.102675
v 0.218713 0.798134 0.073202
v 0.147708 -0.100077 0.261503
v 0.123444 0.800285 0.189675
v -0.053892 -0.096231 0.299646
v -0.024395 0.803106 0.217647
v -0.232848 -0.093271 0.199257
v -0.155630 0.805276 0.144028
v -0.305425 -0.092583 0.007309
v -0.208853 0.805781 0.003266
v -0.432337 -0.062420 0.187829
v -0.440798 -0.032912 0.192892
v -0.434963 -0.042671 0.163932
v -0.245798 0.418475 0.080064
v -0.220329 0.428335 0.065159
v -0.239963 0.408715 0.051103
v -0.381442 -0.091894 0.157877
v -0.384069 -0.072144 0.133980
v -0.355974 -0.082034 0.142973
v -0.169435 0.398861 0.035208
v -0.160973 0.369353 0.030145
v -0.189068 0.379242 0.021152
v -0.378710 -0.062733 0.279262
v -0.359076 -0.043114 0.293318
v -0.387171 -0.033224 0.284325
v -0.166702 0.428022 0.156592
v -0.192170 0.418162 0.171497
v -0.164075 0.408273 0.180489
v -0.327815 -0.092206 0.249310
v -0.302347 -0.082346 0.234406
v -0.308181 -0.072587 0.263367
v -0.115807 0.398549 0.126641
v -0.113181 0.378800 0.150538
v -0.107346 0.369040 0.121578
v 0.040638 -0.062775 0.474979
v 0.043012 -0.033295 0.484637
v 0.017404 -0.042762 0.469717
v 0.004206 0.423658 0.261308
v -0.001516 0.433594 0.232385
v -0.021401 0.414191 0.246388
v 0.028492 -0.092091 0.417107
v 0.005259 -0.072077 0.411845
v 0.022770 -0.082154 0.388185
v -0.013661 0.404279 0.174514
v -0.016035 0.374799 0.164856
v -0.033547 0.384875 0.188516
v 0.144515 -0.064244 0.453923
v 0.164401 -0.044841 0.439921
v 0.146890 -0.034764 0.463581
v 0.102362 0.432125 0.211330
v 0.108084 0.422188 0.240252
v 0.125595 0.412112 0.216592
v 0.132370 -0.093560 0.396052
v 0.126648 -0.083623 0.367129
v 0.152256 -0.074156 0.382049
v 0.090216 0.402810 0.153458
v 0.113450 0.382796 0.158720
v 0.087842 0.373330 0.143800
v 0.460081 -0.066683 0.102312
v 0.470237 -0.037289 0.103204
v 0.448562 -0.046877 0.123360
v 0.247823 0.423236 0.083087
v 0.218546 0.433432 0.080466
v 0.226148 0.413648 0.103243
v 0.400929 -0.095481 0.097041
v 0.389411 -0.075675 0.118089
v 0.371652 -0.085285 0.094419
v 0.159394 0.404634 0.075194
v 0.149238 0.375240 0.074302
v 0.166996 0.384851 0.097972
v 0.469516 -0.066738 -0.003267
v 0.461914 -0.046955 -0.026045
v 0.479673 -0.037344 -0.002375
v 0.227981 0.433377 -0.025114
v 0.257259 0.423181 -0.022492
v 0.239500 0.413571 -0.046162
v 0.410365 -0.095536 -0.008539
v 0.381087 -0.085340 -0.011160
v 0.402763 -0.075752 -0.031316
v 0.168830 0.404579 -0.030385
v 0.180348 0.384773 -0.051433
v 0.158673 0.375185 -0.031277
v 0.240303 -0.068832 -0.417072
v 0.244269 -0.039327 -0.426110
v 0.256679 -0.049198 -0.399342
v 0.154428 0.421984 -0.214332
v 0.142794 0.431854 -0.187217
v 0.166839 0.412113 -0.187564
v 0.216904 -0.098285 -0.362841
v 0.233280 -0.078652 -0.345112
v 0.205270 -0.088415 -0.335726
v 0.119395 0.402401 -0.132986
v 0.115430 0.372895 -0.123947
v 0.143440 0.382659 -0.133333
v 0.142926 -0.068573 -0.458947
v 0.118881 -0.048831 -0.458600
v 0.146891 -0.039067 -0.467986
v 0.045417 0.432114 -0.229092
v 0.057051 0.422244 -0.256207
v 0.029040 0.412480 -0.246821
v 0.119526 -0.098026 -0.404716
v 0.107892 -0.088156 -0.377601
v 0.095482 -0.078284 -0.404369
v 0.022017 0.402661 -0.174861
v 0.005641 0.383027 -0.192590
v 0.018052 0.373155 -0.165822
v -0.318187 -0.063928 -0.352406
v -0.325319 -0.034438 -0.359301
v -0.296118 -0.044599 -0.362767
v -0.151135 0.417621 -0.217059
v -0.128824 0.427527 -0.197769
v -0.121934 0.407460 -0.220525
v -0.274023 -0.093303 -0.313130
v -0.251953 -0.073975 -0.323491
v -0.251712 -0.083397 -0.293841
v -0.084660 0.398151 -0.158493
v -0.077528 0.368662 -0.151599
v -0.077769 0.378085 -0.181249
v -0.387956 -0.062149 -0.272624
v -0.394847 -0.042082 -0.249868
v -0.395088 -0.032659 -0.279518
v -0.198593 0.429306 -0.117987
v -0.220904 0.419400 -0.137277
v -0.220663 0.409977 -0.107626
v -0.343792 -0.091524 -0.233348
v -0.321481 -0.081618 -0.214058
v -0.350682 -0.071457 -0.210592
v -0.154429 0.399930 -0.078711
v -0.176498 0.380602 -0.068350
v -0.147297 0.370441 -0.071817
v 0.125202 0.677675 0.206323
v 0.125171 0.727675 0.206204
v -0.039013 0.677652 0.239785
v -0.039045 0.727652 0.239665
v -0.186318 0.677367 0.159862
v -0.186350 0.727367 0.159742
v -0.247787 0.676955 0.003953
v -0.247818 0.726954 0.003833
v -0.194657 0.676607 -0.154992
v -0.194689 0.726607 -0.155112
v -0.051789 0.676488 -0.242601
v -0.051821 0.726487 -0.242720
v 0.113967 0.676652 -0.217879
v 0.113935 0.726651 -0.217999
v 0.225053 0.677023 -0.092395
v 0.225021 0.727022 -0.092515
v 0.229490 0.677427 0.075135
v 0.229458 0.727427 0.075015
v 0.021389 0.797521 -0.162067
v 0.021116 0.807522 -0.183617
v 0.038160 0.813238 -0.168083
v 0.020400 1.228835 -0.337850
v 0.020620 1.250386 -0.327851
v 0.037445 1.234551 -0.322316
v 0.021922 0.810034 -0.127889
v 0.038693 0.825750 -0.133905
v 0.022141 0.831585 -0.117890
v 0.021153 1.262899 -0.293673
v 0.021426 1.252898 -0.272124
v 0.037978 1.247063 -0.288139
v -0.020007 0.797668 -0.161475
v -0.036832 0.813503 -0.167009
v -0.020280 0.807669 -0.183024
v -0.020776 1.250533 -0.327259
v -0.020995 1.228982 -0.337258
v -0.037547 1.234817 -0.321243
v -0.019473 0.810180 -0.127297
v -0.019254 0.831731 -0.117298
v -0.036298 0.826016 -0.132832
v -0.020242 1.263046 -0.293081
v -0.037014 1.247329 -0.287065
v -0.019969 1.253045 -0.271531
v -0.146240 0.795120 0.069414
v -0.165002 0.805187 0.079955
v -0.159609 0.810724 0.057489
v -0.303252 1.236274 0.153026
v -0.294620 1.257793 0.147839
v -0.297860 1.241812 0.130560
v -0.116562 0.807525 0.052376
v -0.129932 0.823130 0.040451
v -0.107929 0.829044 0.047189
v -0.264942 1.270199 0.130801
v -0.246180 1.260132 0.120260
v -0.268182 1.254218 0.113522
v -0.125774 0.795583 0.105399
v -0.122534 0.811565 0.122679
v -0.144536 0.805651 0.115940
v -0.274154 1.258257 0.183824
v -0.282787 1.236738 0.189011
v -0.260785 1.242652 0.195750
v -0.096097 0.807989 0.088361
v -0.087464 0.829508 0.083174
v -0.092857 0.823970 0.105641
v -0.244477 1.270663 0.166786
v -0.231107 1.255058 0.178712
v -0.225715 1.260595 0.156245
v 0.133767 0.793979 0.106512
v 0.152428 0.804442 0.116846
v 0.130377 0.809985 0.123739
v 0.280446 1.228789 0.185095
v 0.271377 1.250120 0.179875
v 0.258396 1.234333 0.191989
v 0.103726 0.805751 0.089662
v 0.100336 0.821758 0.106890
v 0.094657 0.827082 0.084442
v 0.241336 1.261892 0.163025
v 0.222676 1.251429 0.152692
v 0.228355 1.246106 0.175139
v 0.153939 0.793708 0.070360
v 0.166920 0.809494 0.058246
v 0.172599 0.804171 0.080694
v 0.291549 1.249849 0.143723
v 0.300618 1.228518 0.148943
v 0.294939 1.233842 0.126496
v 0.123898 0.805480 0.053510
v 0.114829 0.826811 0.048290
v 0.136879 0.821267 0.041396
v 0.261508 1.261621 0.126873
v 0.264898 1.245615 0.109646
v 0.242847 1.251158 0.116540
v 0.005600 0.918715 0.000978
v -0.060022 0.979630 -0.044048
v 0.029017 0.978373 -0.076072
v 0.086980 0.977165 -0.001279
v 0.033763 0.977674 0.076969
v -0.057089 0.979198 0.050536
v -0.019198 1.075728 -0.074133
v 0.071654 1.074205 -0.047700
v 0.074587 1.073773 0.046884
v -0.014452 1.075030 0.078909
v -0.072415 1.076238 0.004116
v 0.008965 1.134687 0.001859
v 0.019068 0.934822 -0.044388
v -0.033267 0.935561 -0.025565
v -0.019503 0.970626 -0.070854
v -0.070114 0.971112 0.003565
v -0.031543 0.935307 0.030030
v 0.053138 0.934112 -0.000426
v 0.066903 0.969178 -0.045715
v 0.021858 0.934411 0.045567
v 0.069692 0.968767 0.044240
v -0.014989 0.969962 0.074697
v -0.079123 1.028150 -0.023720
v -0.077399 1.027897 0.031875
v 0.004493 1.027112 -0.088538
v -0.047843 1.027850 -0.069714
v 0.091964 1.025506 -0.029038
v 0.057894 1.026216 -0.073001
v 0.062408 1.025552 0.072551
v 0.093688 1.025252 0.026557
v -0.043329 1.027186 0.075837
v 0.010072 1.026291 0.091374
v -0.055127 1.084635 -0.041404
v 0.029554 1.083440 -0.071860
v 0.084679 1.082291 -0.000728
v 0.034068 1.082776 0.073690
v -0.052338 1.084225 0.048552
v -0.007293 1.118991 -0.042730
v -0.038573 1.119291 0.003263
v 0.046108 1.118096 -0.027193
v 0.047832 1.117842 0.028401
v -0.004503 1.118581 0.047225
vn -0.5074 0.0897 -0.8570
vn 0.1623 0.0769 -0.9837
vn 0.7567 0.0671 -0.6503
vn 0.9978 0.0648 -0.0127
vn 0.7727 0.0711 0.6307
vn 0.1868 0.0831 0.9789
vn -0.4858 0.0952 0.8689
vn 0.0184 0.9998 -0.0034
vn -0.9304 0.1016 0.3522
vn -0.9389 0.0994 -0.3295
vn -0.0184 -0.9998 0.0034
vn -0.9605 -0.2571 -0.1069
vn -0.5141 0.7761 -0.3651
vn -0.0700 -0.7727 -0.6309
vn 0.3763 0.2605 -0.8891
vn -0.3763 -0.2605 0.8891
vn 0.0700 0.7727 0.6309
vn 0.5141 -0.7761 0.3651
vn 0.9605 0.2571 0.1069
vn -0.6311 -0.6306 -0.4518
vn -0.9030 0.3179 -0.2890
vn -0.0844 0.6348 -0.7681
vn 0.1875 -0.3137 -0.9308
vn 0.2719 -0.9485 -0.1627
vn 0.8186 0.3169 -0.4790
vn 0.9030 -0.3179 0.2890
vn 0.0844 -0.6348 0.7681
vn 0.6311 0.6306 0.4518
vn -0.1875 0.3137 0.9308
vn -0.8186 -0.3169 0.4790
vn -0.2719 0.9485 0.1627
vn -0.3865 -0.8947 0.2237
vn -0.5059 0.0029 -0.8626
vn -0.7711 0.4466 0.4538
vn 0.3865 0.8947 -0.2237
vn 0.7711 -0.4466 -0.4538
vn 0.5059 -0.0029 0.8626
vn -0.4156 -0.2528 0.8737
vn -0.5035 0.7817 0.3682
vn -0.6281 -0.7656 -0.1388
vn -0.7160 0.2688 -0.6443
vn 0.7160 -0.2688 0.6443
vn 0.6281 0.7657 0.1388
vn 0.5035 -0.7817 -0.3682
vn 0.4156 0.2528 -0.8737
vn -0.6392 -0.6237 0.4500
vn -0.5628 0.3239 0.7605
vn -0.7467 0.6433 -0.1691
vn -0.8231 -0.3043 -0.4796
vn -0.0763 -0.9475 -0.3104
vn -0.1839 0.3194 -0.9296
vn 0.5628 -0.3239 -0.7605
vn 0.7467 -0.6433 0.1691
vn 0.6392 0.6236 -0.4500
vn 0.8231 0.3043 0.4796
vn 0.1839 -0.3194 0.9296
vn 0.0763 0.9475 0.3104
vn 0.0761 -0.8958 0.4378
vn -0.9800 0.0139 0.1986
vn 0.1840 0.4442 0.8768
vn -0.0761 0.8958 -0.4378
vn -0.1840 -0.4442 -0.8768
vn 0.9800 -0.0139 -0.1986
vn 0.7169 -0.2673 0.6439
vn 0.2152 0.7717 0.5985
vn -0.3179 -0.7711 0.5516
vn -0.8197 0.2679 0.5063
vn 0.8197 -0.2679 -0.5063
vn 0.3179 0.7711 -0.5516
vn -0.2152 -0.7717 -0.5985
vn -0.7169 0.2673 -0.6439
vn 0.2443 -0.6359 0.7321
vn 0.5708 0.3089 0.7608
vn -0.3702 0.6366 0.6765
vn -0.6967 -0.3082 0.6478
vn -0.3265 -0.9448 -0.0287
vn -0.9410 0.3277 -0.0843
vn -0.5708 -0.3089 -0.7608
vn 0.3702 -0.6366 -0.6765
vn -0.2443 0.6359 -0.7321
vn 0.6967 0.3082 -0.6478
vn 0.9410 -0.3277 0.0843
vn 0.3265 0.9448 0.0287
vn 0.4346 -0.8998 0.0393
vn -0.0890 0.0005 0.9960
vn 0.8962 0.4363 0.0799
vn -0.4346 0.8998 -0.0393
vn -0.8962 -0.4363 -0.0799
vn 0.0890 -0.0005 -0.9960
vn 0.8357 -0.2604 -0.4835
vn 0.6345 0.7729 -0.0091
vn 0.4263 -0.7757 0.4653
vn 0.2251 0.2576 0.9397
vn -0.2251 -0.2576 -0.9397
vn -0.4263 0.7757 -0.4653
vn -0.6345 -0.7729 0.0091
vn -0.8357 0.2604 0.4835
vn 0.7728 -0.6345 -0.0112
vn 0.9003 0.3138 -0.3017
vn 0.5264 0.6311 0.5698
vn 0.3989 -0.3173 0.8604
vn -0.1275 -0.9483 0.2905
vn -0.3739 0.3172 0.8715
vn -0.9003 -0.3138 0.3017
vn -0.5264 -0.6311 -0.5698
vn -0.7728 0.6345 0.0112
vn -0.3989 0.3173 -0.8604
vn 0.3739 -0.3172 -0.8715
vn 0.1275 0.9483 -0.2905
vn 0.1743 -0.8949 -0.4108
vn 0.9187 -0.0024 0.3950
vn 0.3545 0.4463 -0.8217
vn -0.1743 0.8949 0.4108
vn -0.3545 -0.4463 0.8217
vn -0.9187 0.0024 -0.3950
vn -0.2055 -0.2696 -0.9408
vn 0.1928 0.7642 -0.6155
vn 0.5672 -0.7836 -0.2536
vn 0.9655 0.2503 0.0717
vn -0.9655 -0.2503 -0.0717
vn -0.5672 0.7836 0.2536
vn -0.1928 -0.7642 0.6155
vn 0.2055 0.2696 0.9408
vn 0.2215 -0.6450 -0.7314
vn -0.0078 0.3029 -0.9530
vn 0.7094 0.6212 -0.3330
vn 0.9386 -0.3266 -0.1114
vn 0.2292 -0.9478 0.2216
vn 0.7171 0.3184 0.6200
vn 0.0078 -0.3029 0.9530
vn -0.7094 -0.6212 0.3330
vn -0.2215 0.6450 0.7314
vn -0.9386 0.3266 0.1114
vn -0.7171 -0.3184 -0.6200
vn -0.2292 0.9478 -0.2216
vn -0.3450 -0.8953 -0.2817
vn 0.6582 -0.0168 -0.7527
vn -0.6692 0.4451 -0.5951
vn 0.3450 0.8953 0.2817
vn 0.6692 -0.4451 0.5951
vn -0.6582 0.0168 0.7527
vn 0.1997 0.0025 0.9799
vn -0.4769 0.0018 0.8790
vn -0.9303 0.0003 0.3668
vn -0.9484 -0.0014 -0.3170
vn -0.5228 -0.0024 -0.8525
vn 0.1475 -0.0023 -0.9891
vn 0.7488 -0.0011 -0.6628
vn -0.0006 1.0000 -0.0024
vn 0.9996 0.0006 -0.0265
vn 0.7828 0.0020 0.6223
vn 0.0006 -1.0000 0.0024
vn 0.5697 -0.7427 -0.3519
vn 0.5679 0.3417 -0.7488
vn 0.5867 -0.3457 0.7323
vn 0.5848 0.7386 0.3354
vn -0.5848 -0.7386 -0.3354
vn -0.5867 0.3457 -0.7323
vn -0.5679 -0.3417 0.7488
vn -0.5697 0.7427 0.3519
vn 0.7082 -0.6665 0.2330
vn 0.6967 -0.2456 -0.6741
vn 0.7059 0.6615 -0.2532
vn 0.7174 0.2406 0.6538
vn 0.0115 -0.4209 0.9070
vn 0.0092 0.9071 0.4209
vn -0.6967 0.2456 0.6741
vn -0.7059 -0.6615 0.2532
vn -0.7082 0.6665 -0.2330
vn -0.7174 -0.2406 -0.6538
vn -0.0092 -0.9071 -0.4209
vn -0.0115 0.4209 -0.9070
vn 0.0016 -0.9391 0.3438
vn 0.9999 -0.0035 -0.0143
vn -0.0147 -0.3438 -0.9389
vn -0.0016 0.9391 -0.3438
vn 0.0147 0.3438 0.9389
vn -0.9999 0.0035 0.0143
vn -0.5821 -0.7460 -0.3236
vn -0.9302 0.3395 -0.1396
vn 0.3594 -0.3524 -0.8641
vn 0.0113 0.7330 -0.6801
vn -0.0113 -0.7330 0.6801
vn -0.3594 0.3524 0.8641
vn 0.9302 -0.3395 0.1396
vn 0.5821 0.7460 0.3236
vn -0.1364 -0.6726 -0.7273
vn -0.9261 -0.2489 -0.2836
vn -0.5627 0.6568 -0.5019
vn 0.2270 0.2331 -0.9456
vn 0.7897 -0.4237 -0.4437
vn 0.3633 0.9057 -0.2183
vn 0.9261 0.2489 0.2836
vn 0.5627 -0.6568 0.5019
vn 0.1364 0.6726 0.7273
vn -0.2270 -0.2331 0.9456
vn -0.3633 -0.9057 0.2183
vn -0.7897 0.4237 0.4437
vn 0.3015 -0.9401 -0.1593
vn -0.4943 -0.0112 -0.8692
vn -0.8153 -0.3408 0.4681
vn -0.3015 0.9401 0.1593
vn 0.8153 0.3408 -0.4681
vn 0.4943 0.0112 0.8692
vn 0.0304 -0.7293 0.6836
vn 0.3600 0.3634 0.8593
vn -0.9226 -0.3558 0.1490
vn -0.5930 0.7368 0.3248
vn 0.5930 -0.7368 -0.3248
vn 0.9226 0.3558 -0.1490
vn -0.3600 -0.3634 -0.8593
vn -0.0304 0.7293 -0.6836
vn -0.5464 -0.6645 0.5099
vn 0.2390 -0.2241 0.9448
vn -0.1427 0.6737 0.7251
vn -0.9281 0.2333 0.2902
vn -0.7854 -0.4404 -0.4349
vn -0.3817 0.8978 -0.2197
vn -0.2390 0.2241 -0.9448
vn 0.1427 -0.6737 -0.7251
vn 0.5464 0.6645 -0.5099
vn 0.9281 -0.2333 -0.2902
vn 0.3817 -0.8978 0.2197
vn 0.7854 0.4404 0.4349
vn -0.2855 -0.9462 -0.1522
vn -0.4872 0.0065 0.8732
vn 0.8253 -0.3234 0.4629
vn 0.2855 0.9462 0.1522
vn -0.8253 0.3234 -0.4629
vn 0.4872 -0.0065 -0.8732
vn -0.1457 -0.9179 -0.3691
vn -0.7701 -0.5795 -0.2669
vn 0.2925 -0.9252 -0.2416
vn 0.3067 -0.9273 0.2146
vn -0.1228 -0.9212 0.3691
vn -0.9327 -0.2645 -0.2450
vn -0.0593 -0.2752 -0.9596
vn 0.8901 -0.2925 -0.3496
vn 0.6033 -0.2925 0.7419
vn -0.5232 -0.2752 0.8065
vn -0.8238 -0.0898 -0.5597
vn 0.2762 -0.1054 -0.9553
vn 0.9922 -0.1203 -0.0313
vn 0.3348 -0.1140 0.9354
vn -0.7876 -0.0952 0.6088
vn -0.4508 0.6023 -0.6588
vn 0.4959 0.5874 -0.6395
vn 0.7701 0.5795 0.2669
vn -0.0072 0.5894 0.8078
vn -0.7618 0.6035 0.2357
vn -0.2925 0.9252 0.2416
vn -0.5226 0.7437 0.4170
vn -0.4090 0.5961 0.6909
vn 0.1457 0.9179 0.3691
vn 0.2401 0.7309 0.6389
vn 0.5347 0.5817 0.6129
vn 0.4024 0.9154 -0.0083
vn 0.6868 0.7266 -0.0180
vn 0.7522 0.5821 -0.3088
vn 0.1228 0.9212 -0.3691
vn 0.2003 0.7367 -0.6458
vn -0.0571 0.5967 -0.8004
vn -0.3067 0.9273 -0.2146
vn -0.5472 0.7473 -0.3770
vn -0.7747 0.6054 -0.1825
vn -0.8901 0.2925 0.3496
vn -0.7780 0.1669 0.6057
vn -0.5561 0.2856 0.7805
vn 0.0593 0.2752 0.9596
vn 0.3366 0.1482 0.9299
vn 0.5723 0.2680 0.7750
vn 0.9327 0.2645 0.2450
vn 0.9894 0.1419 -0.0300
vn 0.9158 0.2670 -0.2999
vn 0.5232 0.2752 -0.8065
vn 0.2783 0.1567 -0.9476
vn -0.0002 0.2840 -0.9588
vn -0.6033 0.2925 -0.7419
vn -0.8140 0.1721 -0.5547
vn -0.9099 0.2954 -0.2911
vn -0.2762 0.1054 0.9553
vn -0.2783 -0.1567 0.9476
vn 0.0002 -0.2840 0.9588
vn 0.8238 0.0898 0.5597
vn 0.8140 -0.1721 0.5547
vn 0.9099 -0.2954 0.2911
vn 0.7876 0.0952 -0.6088
vn 0.7780 -0.1668 -0.6057
vn 0.5561 -0.2855 -0.7805
vn -0.3348 0.1140 -0.9354
vn -0.3366 -0.1482 -0.9299
vn -0.5723 -0.2680 -0.7750
vn -0.9922 0.1203 0.0313
vn -0.9894 -0.1419 0.0300
vn -0.9158 -0.2670 0.2999
vn -0.4959 -0.5874 0.6395
vn -0.2003 -0.7367 0.6458
vn 0.0571 -0.5967 0.8004
vn 0.4508 -0.6023 0.6588
vn 0.5472 -0.7473 0.3770
vn 0.7747 -0.6054 0.1825
vn 0.7618 -0.6035 -0.2357
vn 0.5226 -0.7437 -0.4170
vn 0.4090 -0.5961 -0.6909
vn -0.7522 -0.5821 0.3088
vn -0.6868 -0.7266 0.0180
vn -0.4024 -0.9154 0.0083
vn 0.0072 -0.5894 -0.8078
vn -0.2401 -0.7309 -0.6389
vn -0.5347 -0.5817 -0.6129
vn -0.2720 0.9484 0.1627
vn -0.6392 -0.6236 0.4501
vn 0.6392 0.6237 -0.4501
vt 1.000000 1.000000
vt 0.888889 0.500000
vt 1.000000 0.500000
vt 0.888889 1.000000
vt 0.777778 0.500000
vt 0.777778 1.000000
vt 0.666667 0.500000
vt 0.555556 1.000000
vt 0.555556 0.500000
vt 0.444444 0.500000
vt 0.444444 1.000000
vt 0.333333 0.500000
vt 0.333333 1.000000
vt 0.222222 0.500000
vt 0.250000 0.490000
vt 0.167915 0.024474
vt 0.457846 0.130000
vt 0.111111 1.000000
vt 0.111111 0.500000
vt 0.000000 0.500000
vt 0.904269 0.433851
vt 0.667915 0.024474
vt 0.513646 0.291676
vt 0.161667 0.700000
vt 0.161667 0.750000
vt 0.125000 0.700000
vt 0.614972 0.000000
vt 0.625000 0.050000
vt 0.614972 0.050000
vt 0.161667 0.550000
vt 0.125000 0.550000
vt 0.161667 0.500000
vt 0.625000 0.249531
vt 0.614972 0.286456
vt 0.614972 0.200000
vt 0.338333 0.700000
vt 0.384946 0.700000
vt 0.382646 0.784797
vt 0.650991 0.725234
vt 0.614972 0.786667
vt 0.614972 0.700407
vt 0.338333 0.550000
vt 0.382646 0.465203
vt 0.384946 0.550000
vt 0.650991 0.524766
vt 0.614972 0.549593
vt 0.614972 0.463333
vt 0.385028 0.000000
vt 0.385028 0.050000
vt 0.385028 0.286667
vt 0.614972 0.963333
vt 0.385028 0.200000
vt 0.385028 0.963333
vt 0.838333 0.700000
vt 0.161667 0.700000
vt 0.161667 0.750000
vt 0.125000 0.700000
vt 0.615074 0.000000
vt 0.615074 0.050000
vt 0.161667 0.550000
vt 0.161667 0.500000
vt 0.625000 0.249531
vt 0.615074 0.286458
vt 0.615074 0.200000
vt 0.338333 0.700000
vt 0.384846 0.700000
vt 0.382575 0.784816
vt 0.650991 0.725234
vt 0.615074 0.786667
vt 0.615074 0.700403
vt 0.338333 0.550000
vt 0.382575 0.465184
vt 0.384846 0.550000
vt 0.650991 0.524766
vt 0.615074 0.549597
vt 0.615074 0.463333
vt 0.384926 0.000000
vt 0.384926 0.050000
vt 0.384926 0.286667
vt 0.625000 0.963333
vt 0.384926 0.200000
vt 0.384926 0.963333
vt 0.838333 0.550000
vt 0.615105 0.000000
vt 0.615105 0.050000
vt 0.161667 0.550000
vt 0.615105 0.286459
vt 0.615105 0.200000
vt 0.384816 0.700000
vt 0.382553 0.784822
vt 0.615105 0.786667
vt 0.615105 0.700402
vt 0.382553 0.465178
vt 0.384816 0.550000
vt 0.650991 0.524766
vt 0.615105 0.549598
vt 0.615105 0.463333
vt 0.384895 0.050000
vt 0.384895 0.000000
vt 0.384895 0.200000
vt 0.384895 0.963333
vt 0.384895 0.286667
vt 0.615169 0.000000
vt 0.625000 0.050000
vt 0.615170 0.050000
vt 0.625000 0.249531
vt 0.615170 0.286460
vt 0.615170 0.200000
vt 0.338333 0.700000
vt 0.384752 0.700000
vt 0.382507 0.784835
vt 0.650991 0.725234
vt 0.615170 0.786667
vt 0.615170 0.700399
vt 0.382507 0.465165
vt 0.384752 0.550000
vt 0.615170 0.549601
vt 0.615170 0.463333
vt 0.384830 0.050000
vt 0.384830 0.000000
vt 0.384830 0.200000
vt 0.615170 0.963333
vt 0.384830 0.963333
vt 0.384830 0.286667
vt 0.161667 0.700000
vt 0.161667 0.750000
vt 0.125000 0.700000
vt 0.614980 0.000000
vt 0.614980 0.050000
vt 0.161667 0.550000
vt 0.125000 0.550000
vt 0.625000 0.249531
vt 0.614980 0.286456
vt 0.614980 0.200000
vt 0.338333 0.700000
vt 0.384938 0.700000
vt 0.382641 0.784798
vt 0.614980 0.786667
vt 0.614980 0.700407
vt 0.338333 0.550000
vt 0.382641 0.465202
vt 0.384938 0.550000
vt 0.650991 0.524766
vt 0.614980 0.549593
vt 0.614980 0.463333
vt 0.385020 0.050000
vt 0.385020 0.000000
vt 0.385020 0.286667
vt 0.614980 0.963333
vt 0.385020 0.200000
vt 0.385020 0.963333
vt 0.666667 1.000000
vt 0.222222 1.000000
vt 0.167915 0.024474
vt 0.457846 0.130000
vt 0.181000 0.690000
vt 0.181000 0.750000
vt 0.125000 0.690000
vt 0.616291 0.000000
vt 0.625000 0.060000
vt 0.616291 0.060000
vt 0.181000 0.560000
vt 0.125000 0.560000
vt 0.181000 0.500000
vt 0.625000 0.244518
vt 0.616291 0.305551
vt 0.616291 0.190000
vt 0.319000 0.690000
vt 0.383633 0.690000
vt 0.381100 0.803742
vt 0.661896 0.729572
vt 0.616291 0.806000
vt 0.616291 0.690522
vt 0.319000 0.560000
vt 0.381100 0.446258
vt 0.383633 0.560000
vt 0.661896 0.520428
vt 0.616291 0.559478
vt 0.616291 0.444000
vt 0.383709 0.060000
vt 0.383709 0.000000
vt 0.383709 0.306000
vt 0.625000 0.944000
vt 0.383709 0.190000
vt 0.383709 0.944000
vt 0.819000 0.560000
vt 0.181000 0.690000
vt 0.181000 0.750000
vt 0.616466 0.000000
vt 0.625000 0.060000
vt 0.616466 0.060000
vt 0.181000 0.560000
vt 0.181000 0.500000
vt 0.625000 0.244518
vt 0.616466 0.305560
vt 0.616466 0.190000
vt 0.319000 0.690000
vt 0.383461 0.690000
vt 0.380986 0.803789
vt 0.661896 0.729572
vt 0.616466 0.806000
vt 0.616466 0.690511
vt 0.380986 0.446211
vt 0.383461 0.560000
vt 0.616466 0.559489
vt 0.616466 0.444000
vt 0.383534 0.060000
vt 0.383534 0.000000
vt 0.383534 0.306000
vt 0.383534 0.190000
vt 0.383534 0.944000
vt 0.125000 0.690000
vt 0.616287 0.000000
vt 0.625000 0.060000
vt 0.616287 0.060000
vt 0.181000 0.560000
vt 0.616287 0.305550
vt 0.616287 0.190000
vt 0.383637 0.690000
vt 0.381103 0.803742
vt 0.616287 0.806000
vt 0.616287 0.690522
vt 0.381103 0.446259
vt 0.383637 0.560000
vt 0.616287 0.559478
vt 0.616287 0.444000
vt 0.383713 0.060000
vt 0.383713 0.000000
vt 0.383713 0.306000
vt 0.383713 0.190000
vt 0.383713 0.944000
vt 0.181819 0.000000
vt 0.227273 0.078731
vt 0.136365 0.078731
vt 0.272728 0.157461
vt 0.318182 0.078731
vt 0.363637 0.157461
vt 0.909091 0.000000
vt 0.954545 0.078731
vt 0.863636 0.078731
vt 0.727273 0.000000
vt 0.772727 0.078731
vt 0.681818 0.078731
vt 0.545455 0.000000
vt 0.590909 0.078731
vt 0.500000 0.078731
vt 0.318182 0.236191
vt 0.090910 0.157461
vt 0.181819 0.157461
vt 0.136365 0.236191
vt 0.818182 0.157461
vt 0.909091 0.157461
vt 0.863636 0.236191
vt 0.636364 0.157461
vt 0.727273 0.157461
vt 0.681818 0.236191
vt 0.454546 0.157461
vt 0.545455 0.157461
vt 0.500000 0.236191
vt 0.227273 0.236191
vt 0.045455 0.236191
vt 0.772727 0.236191
vt 0.590909 0.236191
vt 0.409092 0.236191
vt 0.181819 0.314921
vt 0.272728 0.314921
vt 0.227273 0.393651
vt 0.000000 0.314921
vt 0.090910 0.314921
vt 0.045455 0.393651
vt 0.727273 0.314921
vt 0.818182 0.314921
vt 0.772727 0.393651
vt 0.545455 0.314921
vt 0.636364 0.314921
vt 0.590909 0.393651
vt 0.363637 0.314921
vt 0.454546 0.314921
vt 0.409092 0.393651
vt 0.500000 0.393651
vt 0.454546 0.472382
vt 0.681818 0.393651
vt 0.636364 0.472382
vt 0.863636 0.393651
vt 0.818182 0.472382
vt 0.909091 0.314921
vt 0.136365 0.393651
vt 0.090910 0.472382
vt 0.318182 0.393651
vt 0.272728 0.472382
vt 0.954545 0.236191
vt 1.000000 0.157461
vt 0.409092 0.078731
vt 0.363637 0.000000
vt 0.486354 0.291676
vt 0.404269 0.433851
vt 0.095731 0.433851
vt 0.013646 0.291676
vt 0.042154 0.130000
vt 0.332085 0.024474
vt 0.000000 1.000000
vt 0.595731 0.433851
vt 0.750000 0.490000
vt 0.986354 0.291676
vt 0.957846 0.130000
vt 0.832085 0.024474
vt 0.542154 0.130000
vt 0.615074 0.963333
vt 0.615105 0.963333
vt 0.404269 0.433851
vt 0.095731 0.433851
vt 0.042154 0.130000
vt 0.332085 0.024474
vt 0.616291 0.944000
vt 0.819000 0.690000
vt 0.616466 0.944000
vt 0.616287 0.944000
s 0
usemtl wood
f 2/1/1 3/2/1 1/3/1
f 4/4/2 5/5/2 3/2/2
f 6/6/3 7/7/3 5/5/3
f 7/7/4 10/8/4 9/9/4
f 10/8/5 11/10/5 9/9/5
f 12/11/6 13/12/6 11/10/6
f 14/13/7 15/14/7 13/12/7
f 2/15/8 12/16/8 8/17/8
f 15/14/9 18/18/9 17/19/9
f 18/18/10 1/20/10 17/19/10
f 3/21/11 11/22/11 15/23/11
f 19/24/12 20/25/12 21/26/12
f 22/27/13 23/28/13 24/29/13
f 25/30/14 26/31/14 27/32/14
f 28/33/15 29/34/15 30/35/15
f 31/36/16 32/37/16 33/38/16
f 34/39/17 35/40/17 36/41/17
f 37/42/18 38/43/18 39/44/18
f 40/45/19 41/46/19 42/47/19
f 25/30/20 21/26/20 26/31/20
f 20/48/21 24/29/21 21/49/21
f 28/33/22 24/29/22 23/28/22
f 27/50/23 30/35/23 29/34/23
f 25/30/24 38/43/24 37/42/24
f 40/45/25 29/34/25 28/33/25
f 39/44/26 42/47/26 41/46/26
f 37/42/27 32/37/27 31/36/27
f 40/45/28 36/41/28 41/46/28
f 33/38/29 36/41/29 35/40/29
f 31/36/30 20/25/30 19/24/30
f 34/39/31 22/51/31 35/40/31
f 37/42/32 19/24/32 25/30/32
f 24/29/33 26/52/33 21/49/33
f 35/40/34 20/53/34 33/38/34
f 40/45/35 23/54/35 34/39/35
f 29/34/36 38/43/36 27/50/36
f 41/46/37 32/37/37 39/44/37
f 43/55/38 44/56/38 45/57/38
f 46/58/39 47/28/39 48/59/39
f 49/60/40 50/31/40 51/61/40
f 52/62/41 53/63/41 54/64/41
f 55/65/42 56/66/42 57/67/42
f 58/68/43 59/69/43 60/70/43
f 61/71/44 62/72/44 63/73/44
f 64/74/45 65/75/45 66/76/45
f 43/55/46 50/31/46 49/60/46
f 44/77/47 48/59/47 45/78/47
f 52/62/48 48/59/48 47/28/48
f 51/79/49 54/64/49 53/63/49
f 61/71/50 51/61/50 62/72/50
f 52/62/51 66/76/51 53/63/51
f 65/75/52 62/72/52 66/76/52
f 61/71/53 56/66/53 55/65/53
f 58/68/54 65/75/54 64/74/54
f 57/67/55 60/70/55 59/69/55
f 55/65/56 44/56/56 43/55/56
f 47/80/57 59/69/57 58/68/57
f 49/60/58 55/65/58 43/55/58
f 45/78/59 54/64/59 50/81/59
f 59/69/60 44/82/60 57/67/60
f 52/83/61 58/68/61 64/74/61
f 53/63/62 62/72/62 51/79/62
f 63/73/63 60/70/63 56/66/63
f 67/24/64 68/25/64 69/26/64
f 70/84/65 71/28/65 72/85/65
f 73/86/66 74/31/66 75/32/66
f 76/33/67 77/87/67 78/88/67
f 79/36/68 80/89/68 81/90/68
f 82/39/69 83/91/69 84/92/69
f 85/42/70 86/93/70 87/94/70
f 88/95/71 89/96/71 90/97/71
f 73/86/72 69/26/72 74/31/72
f 70/84/73 69/98/73 68/99/73
f 71/28/74 78/88/74 72/85/74
f 77/87/75 74/100/75 78/88/75
f 85/42/76 75/32/76 86/93/76
f 88/95/77 77/87/77 76/33/77
f 87/94/78 90/97/78 89/96/78
f 79/36/79 87/94/79 80/89/79
f 82/39/80 89/96/80 88/95/80
f 81/90/81 84/92/81 83/91/81
f 79/36/82 68/25/82 67/24/82
f 71/80/83 83/91/83 82/39/83
f 85/42/84 67/24/84 73/86/84
f 72/85/85 74/100/85 69/98/85
f 83/91/86 68/101/86 81/90/86
f 88/95/87 71/54/87 82/39/87
f 77/87/88 86/93/88 75/102/88
f 89/96/89 80/89/89 87/94/89
f 91/24/90 92/25/90 93/57/90
f 94/103/91 95/104/91 96/105/91
f 97/86/92 98/31/92 99/32/92
f 100/106/93 101/107/93 102/108/93
f 103/109/94 104/110/94 105/111/94
f 106/112/95 107/113/95 108/114/95
f 109/42/96 110/115/96 111/116/96
f 112/45/97 113/117/97 114/118/97
f 97/86/98 93/57/98 98/31/98
f 94/103/99 93/119/99 92/120/99
f 100/106/100 96/105/100 95/104/100
f 101/107/101 98/121/101 102/108/101
f 109/42/102 99/32/102 110/115/102
f 100/106/103 114/118/103 101/107/103
f 111/116/104 114/118/104 113/117/104
f 109/42/105 104/110/105 103/109/105
f 106/112/106 113/117/106 112/45/106
f 105/111/107 108/114/107 107/113/107
f 103/109/108 92/25/108 91/24/108
f 95/80/109 107/113/109 106/112/109
f 97/86/110 103/109/110 91/24/110
f 93/119/111 102/108/111 98/121/111
f 105/111/112 94/122/112 92/123/112
f 100/83/113 106/112/113 112/45/113
f 101/107/114 110/115/114 99/124/114
f 113/117/115 104/110/115 111/116/115
f 115/125/116 116/126/116 117/127/116
f 118/128/117 119/28/117 120/129/117
f 121/130/118 122/131/118 123/61/118
f 124/132/119 125/133/119 126/134/119
f 127/135/120 128/136/120 129/137/120
f 130/68/121 131/138/121 132/139/121
f 133/140/122 134/141/122 135/142/122
f 136/143/123 137/144/123 138/145/123
f 115/125/124 122/131/124 121/130/124
f 118/128/125 117/146/125 116/147/125
f 124/132/126 120/129/126 119/28/126
f 123/148/127 126/134/127 125/133/127
f 121/130/128 134/141/128 133/140/128
f 136/143/129 125/133/129 124/132/129
f 137/144/130 134/141/130 138/145/130
f 127/135/131 135/142/131 128/136/131
f 130/68/132 137/144/132 136/143/132
f 129/137/133 132/139/133 131/138/133
f 127/135/134 116/126/134 115/125/134
f 130/68/135 118/149/135 131/138/135
f 133/140/136 115/125/136 121/130/136
f 120/129/137 122/150/137 117/146/137
f 131/138/138 116/151/138 129/137/138
f 124/83/139 130/68/139 136/143/139
f 125/133/140 134/141/140 123/148/140
f 137/144/141 128/136/141 135/142/141
f 157/156/153 158/157/153 159/158/153
f 160/159/154 161/160/154 162/161/154
f 163/162/155 164/163/155 165/164/155
f 166/165/156 167/166/156 168/167/156
f 169/168/157 170/169/157 171/170/157
f 172/171/158 173/172/158 174/173/158
f 175/174/159 176/175/159 177/176/159
f 178/177/160 179/178/160 180/179/160
f 163/162/161 159/158/161 164/163/161
f 160/159/162 159/180/162 158/181/162
f 161/160/163 168/167/163 162/161/163
f 165/182/164 168/167/164 167/166/164
f 175/174/165 165/164/165 176/175/165
f 178/177/166 167/166/166 166/165/166
f 179/178/167 176/175/167 180/179/167
f 169/168/168 177/176/168 170/169/168
f 172/171/169 179/178/169 178/177/169
f 171/170/170 174/173/170 173/172/170
f 169/168/171 158/157/171 157/156/171
f 161/183/172 173/172/172 172/171/172
f 163/162/173 169/168/173 157/156/173
f 159/180/174 168/167/174 164/184/174
f 173/172/175 158/185/175 171/170/175
f 166/186/176 172/171/176 178/177/176
f 167/166/177 176/175/177 165/182/177
f 179/178/178 170/169/178 177/176/178
f 181/187/179 182/188/179 183/158/179
f 184/189/180 185/190/180 186/191/180
f 187/192/181 188/163/181 189/193/181
f 190/194/182 191/195/182 192/196/182
f 193/197/183 194/198/183 195/199/183
f 196/200/184 197/201/184 198/202/184
f 199/174/185 200/203/185 201/204/185
f 202/177/186 203/205/186 204/206/186
f 181/187/187 188/163/187 187/192/187
f 184/189/188 183/207/188 182/208/188
f 185/190/189 192/196/189 186/191/189
f 189/209/190 192/196/190 191/195/190
f 199/174/191 189/193/191 200/203/191
f 190/194/192 204/206/192 191/195/192
f 201/204/193 204/206/193 203/205/193
f 199/174/194 194/198/194 193/197/194
f 202/177/195 198/202/195 203/205/195
f 197/201/196 194/198/196 198/202/196
f 193/197/197 182/188/197 181/187/197
f 185/183/198 197/201/198 196/200/198
f 199/174/199 181/187/199 187/192/199
f 186/191/200 188/210/200 183/207/200
f 197/201/201 182/211/201 195/199/201
f 190/186/202 196/200/202 202/177/202
f 191/195/203 200/203/203 189/209/203
f 201/204/204 198/202/204 194/198/204
f 205/187/205 206/188/205 207/212/205
f 208/213/206 209/214/206 210/215/206
f 211/216/207 212/163/207 213/193/207
f 214/194/208 215/217/208 216/218/208
f 217/197/209 218/219/209 219/220/209
f 220/200/210 221/221/210 222/222/210
f 223/174/211 224/223/211 225/224/211
f 226/177/212 227/225/212 228/226/212
f 205/187/213 212/163/213 211/216/213
f 208/213/214 207/227/214 206/228/214
f 214/194/215 210/215/215 209/214/215
f 213/229/216 216/218/216 215/217/216
f 223/174/217 213/193/217 224/223/217
f 214/194/218 228/226/218 215/217/218
f 227/225/219 224/223/219 228/226/219
f 217/197/220 225/224/220 218/219/220
f 220/200/221 227/225/221 226/177/221
f 221/221/222 218/219/222 222/222/222
f 217/197/223 206/188/223 205/187/223
f 209/183/224 221/221/224 220/200/224
f 223/174/225 205/187/225 211/216/225
f 210/215/226 212/230/226 207/227/226
f 221/221/227 206/231/227 219/220/227
f 214/186/228 220/200/228 226/177/228
f 215/217/229 224/223/229 213/229/229
f 227/225/230 218/219/230 225/224/230
f 2/1/1 4/4/1 3/2/1
f 4/4/2 6/6/2 5/5/2
f 6/6/3 8/152/3 7/7/3
f 7/7/4 8/152/4 10/8/4
f 10/8/5 12/11/5 11/10/5
f 12/11/6 14/13/6 13/12/6
f 14/13/7 16/153/7 15/14/7
f 6/295/8 4/296/8 2/15/8
f 2/15/8 18/297/8 16/298/8
f 16/298/8 14/299/8 12/16/8
f 12/16/8 10/300/8 8/17/8
f 8/17/8 6/295/8 2/15/8
f 2/15/8 16/298/8 12/16/8
f 15/14/9 16/153/9 18/18/9
f 18/18/10 2/301/10 1/20/10
f 17/302/11 1/303/11 3/21/11
f 3/21/11 5/304/11 7/305/11
f 7/305/11 9/306/11 11/22/11
f 11/22/11 13/307/11 15/23/11
f 15/23/11 17/302/11 3/21/11
f 3/21/11 7/305/11 11/22/11
f 25/30/20 19/24/20 21/26/20
f 20/48/21 22/27/21 24/29/21
f 28/33/22 30/35/22 24/29/22
f 27/50/23 26/52/23 30/35/23
f 25/30/24 27/32/24 38/43/24
f 40/45/25 42/47/25 29/34/25
f 39/44/26 38/43/26 42/47/26
f 37/42/27 39/44/27 32/37/27
f 40/45/28 34/39/28 36/41/28
f 33/38/29 32/37/29 36/41/29
f 31/36/30 33/38/30 20/25/30
f 34/39/311 23/80/311 22/51/311
f 37/42/32 31/36/32 19/24/32
f 24/29/33 30/35/33 26/52/33
f 35/40/34 22/51/34 20/53/34
f 40/45/35 28/83/35 23/54/35
f 29/34/36 42/47/36 38/43/36
f 41/46/37 36/41/37 32/37/37
f 43/55/312 45/57/312 50/31/312
f 44/77/47 46/58/47 48/59/47
f 52/62/48 54/64/48 48/59/48
f 51/79/49 50/81/49 54/64/49
f 61/71/50 49/60/50 51/61/50
f 52/62/51 64/74/51 66/76/51
f 65/75/52 63/73/52 62/72/52
f 61/71/53 63/73/53 56/66/53
f 58/68/313 60/70/313 65/75/313
f 57/67/55 56/66/55 60/70/55
f 55/65/56 57/67/56 44/56/56
f 47/80/57 46/308/57 59/69/57
f 49/60/58 61/71/58 55/65/58
f 45/78/59 48/59/59 54/64/59
f 59/69/60 46/308/60 44/82/60
f 52/83/61 47/54/61 58/68/61
f 53/63/62 66/76/62 62/72/62
f 63/73/63 65/75/63 60/70/63
f 73/86/72 67/24/72 69/26/72
f 70/84/73 72/85/73 69/98/73
f 71/28/74 76/33/74 78/88/74
f 77/87/75 75/102/75 74/100/75
f 85/42/76 73/86/76 75/32/76
f 88/95/77 90/97/77 77/87/77
f 87/94/78 86/93/78 90/97/78
f 79/36/79 85/42/79 87/94/79
f 82/39/80 84/92/80 89/96/80
f 81/90/81 80/89/81 84/92/81
f 79/36/82 81/90/82 68/25/82
f 71/80/83 70/309/83 83/91/83
f 85/42/84 79/36/84 67/24/84
f 72/85/85 78/88/85 74/100/85
f 83/91/86 70/309/86 68/101/86
f 88/95/87 76/83/87 71/54/87
f 77/87/88 90/97/88 86/93/88
f 89/96/89 84/92/89 80/89/89
f 97/86/98 91/24/98 93/57/98
f 94/103/99 96/105/99 93/119/99
f 100/106/100 102/108/100 96/105/100
f 101/107/101 99/124/101 98/121/101
f 109/42/102 97/86/102 99/32/102
f 100/106/103 112/45/103 114/118/103
f 111/116/104 110/115/104 114/118/104
f 109/42/105 111/116/105 104/110/105
f 106/112/106 108/114/106 113/117/106
f 105/111/107 104/110/107 108/114/107
f 103/109/108 105/111/108 92/25/108
f 95/80/109 94/122/109 107/113/109
f 97/86/110 109/42/110 103/109/110
f 93/119/111 96/105/111 102/108/111
f 105/111/112 107/113/112 94/122/112
f 100/83/113 95/54/113 106/112/113
f 101/107/114 114/118/114 110/115/114
f 113/117/115 108/114/115 104/110/115
f 115/125/124 117/127/124 122/131/124
f 118/128/125 120/129/125 117/146/125
f 124/132/126 126/134/126 120/129/126
f 123/148/127 122/150/127 126/134/127
f 121/130/128 123/61/128 134/141/128
f 136/143/129 138/145/129 125/133/129
f 137/144/130 135/142/130 134/141/130
f 127/135/131 133/140/131 135/142/131
f 130/68/132 132/139/132 137/144/132
f 129/137/133 128/136/133 132/139/133
f 127/135/134 129/137/134 116/126/134
f 130/68/135 119/80/135 118/149/135
f 133/140/136 127/135/136 115/125/136
f 120/129/137 126/134/137 122/150/137
f 131/138/138 118/149/138 116/151/138
f 124/83/139 119/54/139 130/68/139
f 125/133/140 138/145/140 134/141/140
f 137/144/141 132/139/141 128/136/141
f 163/162/161 157/156/161 159/158/161
f 160/159/162 162/161/162 159/180/162
f 161/160/163 166/165/163 168/167/163
f 165/182/164 164/184/164 168/167/164
f 175/174/165 163/162/165 165/164/165
f 178/177/166 180/179/166 167/166/166
f 179/178/167 177/176/167 176/175/167
f 169/168/168 175/174/168 177/176/168
f 172/171/169 174/173/169 179/178/169
f 171/170/170 170/169/170 174/173/170
f 169/168/171 171/170/171 158/157/171
f 161/183/172 160/314/172 173/172/172
f 163/162/173 175/174/173 169/168/173
f 159/180/174 162/161/174 168/167/174
f 173/172/175 160/314/175 158/185/175
f 166/186/176 161/315/176 172/171/176
f 167/166/177 180/179/177 176/175/177
f 179/178/178 174/173/178 170/169/178
f 181/187/187 183/158/187 188/163/187
f 184/189/188 186/191/188 183/207/188
f 185/190/189 190/194/189 192/196/189
f 189/209/190 188/210/190 192/196/190
f 199/174/191 187/192/191 189/193/191
f 190/194/192 202/177/192 204/206/192
f 201/204/193 200/203/193 204/206/193
f 199/174/194 201/204/194 194/198/194
f 202/177/195 196/200/195 198/202/195
f 197/201/196 195/199/196 194/198/196
f 193/197/197 195/199/197 182/188/197
f 185/183/198 184/316/198 197/201/198
f 199/174/199 193/197/199 181/187/199
f 186/191/200 192/196/200 188/210/200
f 197/201/201 184/316/201 182/211/201
f 190/186/202 185/315/202 196/200/202
f 191/195/203 204/206/203 200/203/203
f 201/204/204 203/205/204 198/202/204
f 205/187/213 207/212/213 212/163/213
f 208/213/214 210/215/214 207/227/214
f 214/194/215 216/218/215 210/215/215
f 213/229/216 212/230/216 216/218/216
f 223/174/217 211/216/217 213/193/217
f 214/194/218 226/177/218 228/226/218
f 227/225/219 225/224/219 224/223/219
f 217/197/220 223/174/220 225/224/220
f 220/200/221 222/222/221 227/225/221
f 221/221/222 219/220/222 218/219/222
f 217/197/223 219/220/223 206/188/223
f 209/183/224 208/317/224 221/221/224
f 223/174/225 217/197/225 205/187/225
f 210/215/226 216/218/226 212/230/226
f 221/221/227 208/317/227 206/231/227
f 214/186/228 209/315/228 220/200/228
f 215/217/229 228/226/229 224/223/229
f 227/225/230 222/222/230 218/219/230
usemtl rope
f 139/3/142 142/4/142 141/2/142
f 141/2/143 144/6/143 143/5/143
f 143/5/144 146/152/144 145/7/144
f 146/152/145 147/9/145 145/7/145
f 148/8/146 149/10/146 147/9/146
f 150/11/147 151/12/147 149/10/147
f 151/12/148 154/153/148 153/14/148
f 140/15/149 150/154/149 146/155/149
f 154/153/150 155/19/150 153/14/150
f 156/18/151 139/20/151 155/19/151
f 141/21/152 149/22/152 153/23/152
f 139/3/142 140/1/142 142/4/142
f 141/2/143 142/4/143 144/6/143
f 143/5/144 144/6/144 146/152/144
f 146/152/145 148/8/145 147/9/145
f 148/8/146 150/11/146 149/10/146
f 150/11/147 152/13/147 151/12/147
f 151/12/148 152/13/148 154/153/148
f 144/295/149 142/310/149 140/15/149
f 140/15/149 156/311/149 154/298/149
f 154/298/149 152/312/149 150/154/149
f 150/154/149 148/313/149 146/155/149
f 146/155/149 144/295/149 140/15/149
f 140/15/149 154/298/149 150/154/149
f 154/153/150 156/18/150 155/19/150
f 156/18/151 140/301/151 139/20/151
f 155/302/152 139/303/152 141/21/152
f 141/21/152 143/304/152 145/305/152
f 145/305/152 147/306/152 149/22/152
f 149/22/152 151/307/152 153/23/152
f 153/23/152 155/302/152 141/21/152
f 141/21/152 145/305/152 149/22/152
usemtl core
f 229/232/231 242/233/231 241/234/231
f 230/235/232 242/236/232 244/237/232
f 229/238/233 241/239/233 246/240/233
f 229/241/234 246/242/234 248/243/234
f 229/244/235 248/245/235 245/246/235
f 230/235/236 244/237/236 251/247/236
f 231/248/237 243/249/237 253/250/237
f 232/251/238 247/252/238 255/253/238
f 233/254/239 249/255/239 257/256/239
f 234/257/240 250/258/240 259/259/240
f 230/235/241 251/247/241 254/260/241
f 231/248/242 253/250/242 256/261/242
f 232/251/243 255/253/243 258/262/243
f 233/254/244 257/256/244 260/263/244
f 234/257/245 259/259/245 252/264/245
f 235/265/246 261/266/246 266/267/246
f 236/268/247 262/269/247 268/270/247
f 237/271/248 263/272/248 269/273/248
f 238/274/249 264/275/249 270/276/249
f 239/277/250 265/278/250 267/279/250
f 267/279/251 270/280/251 240/281/251
f 267/279/252 265/278/252 270/280/252
f 265/278/253 238/274/253 270/280/253
f 270/276/254 269/282/254 240/283/254
f 270/276/255 264/275/255 269/282/255
f 264/275/256 237/271/256 269/282/256
f 269/273/257 268/284/257 240/285/257
f 269/273/258 263/272/258 268/284/258
f 263/272/259 236/286/259 268/284/259
f 268/270/260 266/287/260 240/288/260
f 268/270/261 262/269/261 266/287/261
f 262/269/262 235/265/262 266/287/262
f 266/267/263 267/289/263 240/290/263
f 266/267/264 261/266/264 267/289/264
f 261/266/265 239/277/265 267/289/265
f 252/264/266 265/278/266 239/277/266
f 252/264/267 259/259/267 265/278/267
f 259/259/268 238/274/268 265/278/268
f 260/263/269 264/275/269 238/274/269
f 260/263/270 257/256/270 264/275/270
f 257/256/271 237/271/271 264/275/271
f 258/262/272 263/272/272 237/271/272
f 258/262/273 255/253/273 263/272/273
f 255/253/274 236/286/274 263/272/274
f 256/261/275 262/269/275 236/268/275
f 256/261/276 253/250/276 262/269/276
f 253/250/277 235/265/277 262/269/277
f 254/260/278 261/266/278 235/265/278
f 254/260/279 251/247/279 261/266/279
f 251/247/280 239/277/280 261/266/280
f 259/259/281 260/263/281 238/274/281
f 259/259/282 250/258/282 260/263/282
f 250/258/283 233/254/283 260/263/283
f 257/256/284 258/262/284 237/271/284
f 257/256/285 249/255/285 258/262/285
f 249/255/286 232/251/286 258/262/286
f 255/253/287 256/291/287 236/286/287
f 255/253/288 247/252/288 256/291/288
f 247/252/289 231/292/289 256/291/289
f 253/250/290 254/260/290 235/265/290
f 253/250/291 243/249/291 254/260/291
f 243/249/292 230/235/292 254/260/292
f 251/247/293 252/264/293 239/277/293
f 251/247/294 244/237/294 252/264/294
f 244/237/295 234/257/295 252/264/295
f 245/246/296 250/258/296 234/257/296
f 245/246/297 248/245/297 250/258/297
f 248/245/298 233/254/298 250/258/298
f 248/243/299 249/255/299 233/254/299
f 248/243/300 246/242/300 249/255/300
f 246/242/301 232/251/301 249/255/301
f 246/240/302 247/252/302 232/251/302
f 246/240/303 241/239/303 247/252/303
f 241/239/304 231/292/304 247/252/304
f 244/237/305 245/293/305 234/257/305
f 244/237/306 242/236/306 245/293/306
f 242/236/307 229/294/307 245/293/307
f 241/234/308 243/249/308 231/248/308
f 241/234/309 242/233/309 243/249/309
f 242/233/310 230/235/310 243/249/310
