# Blender 4.5.10 LTS
# www.blender.org
mtllib stow_perch_remodel2_b.mtl
o stow_perch_remodel2_b
v -0.060443 -0.064207 -0.576162
v -0.016951 1.372342 -0.077627
v -0.008637 -0.057999 -0.597587
v 0.018915 1.376640 -0.092460
v 0.041085 -0.067388 -0.572665
v 0.053338 1.370140 -0.075207
v 0.051280 -0.085303 -0.520162
v 0.060396 1.357737 -0.038858
v 0.014272 -0.098254 -0.479613
v 0.034775 1.348771 -0.010786
v -0.042071 -0.096489 -0.481554
v -0.004232 1.349993 -0.012129
v -0.075323 -0.081336 -0.524522
v -0.027252 1.360483 -0.041876
v -0.449352 -0.079315 0.315254
v -0.029903 1.364194 0.081920
v -0.502550 -0.065580 0.302496
v -0.066733 1.373703 0.073088
v -0.527755 -0.065651 0.252036
v -0.084182 1.373654 0.038154
v -0.505986 -0.079474 0.201871
v -0.069112 1.364084 0.003424
v -0.453636 -0.096641 0.189776
v -0.032869 1.352199 -0.004949
v -0.410126 -0.104224 0.224859
v -0.002747 1.346949 0.019339
v -0.408219 -0.096513 0.280702
v -0.001426 1.352288 0.057999
v 0.463875 -0.090359 0.222102
v 0.074593 1.358320 -0.030659
v 0.504676 -0.072977 0.256954
v 0.102839 1.370354 -0.006530
v 0.501773 -0.063315 0.312450
v 0.100830 1.377043 0.031889
v 0.457353 -0.068649 0.346799
v 0.070077 1.373350 0.055670
v 0.404864 -0.084963 0.334137
v 0.033739 1.362056 0.046904
v 0.383833 -0.099972 0.283998
v 0.019179 1.351665 0.012192
v 0.410095 -0.102373 0.234138
v 0.037360 1.350003 -0.022326
v -0.057096 1.240971 -0.082067
v -0.057134 1.276971 -0.082145
v 0.009590 1.241007 -0.097301
v 0.009552 1.277007 -0.097380
v 0.070467 1.241139 -0.066107
v 0.070429 1.277138 -0.066185
v 0.097050 1.241304 -0.003079
v 0.097012 1.277304 -0.003158
v 0.076900 1.241426 0.062290
v 0.076863 1.277426 0.062211
v 0.019446 1.241447 0.099413
v 0.019409 1.277447 0.099335
v -0.048429 1.241358 0.090921
v -0.048466 1.277358 0.090842
v -0.094965 1.241200 0.040787
v -0.095003 1.277200 0.040708
v -0.098388 1.241047 -0.027531
v -0.098426 1.277047 -0.027610
v 0.203319 0.739021 -0.169629
v 0.203671 0.751072 -0.181572
v 0.215506 0.750830 -0.169412
v 0.204082 0.777069 -0.181453
v 0.204109 0.789015 -0.169399
v 0.215917 0.776826 -0.169293
v 0.202074 0.738618 -0.077638
v 0.214261 0.750426 -0.077421
v 0.202101 0.750564 -0.065584
v 0.202864 0.788611 -0.077408
v 0.202512 0.776560 -0.065465
v 0.214672 0.776423 -0.077302
v -0.214577 0.745645 -0.175256
v -0.226385 0.757834 -0.175362
v -0.214225 0.757696 -0.187199
v -0.213787 0.795638 -0.175026
v -0.213815 0.783692 -0.187080
v -0.225974 0.783830 -0.175243
v -0.215822 0.745242 -0.083265
v -0.215795 0.757188 -0.071211
v -0.227630 0.757430 -0.083371
v -0.215033 0.795235 -0.083035
v -0.227219 0.783427 -0.083252
v -0.215384 0.783184 -0.071092
v 0.203059 0.765050 -0.041974
v 0.203193 0.777153 -0.053870
v 0.215238 0.776869 -0.041918
v 0.203584 0.803149 -0.053645
v 0.203810 0.815043 -0.041541
v 0.215628 0.802865 -0.041693
v 0.203411 0.764248 0.050021
v 0.215590 0.776066 0.050078
v 0.203637 0.776141 0.062125
v 0.204162 0.814240 0.050455
v 0.204027 0.802138 0.062350
v 0.215980 0.802063 0.050303
v -0.203070 0.771132 -0.040368
v -0.214889 0.783310 -0.040216
v -0.202936 0.783235 -0.052263
v -0.202320 0.821125 -0.039935
v -0.202546 0.809231 -0.052038
v -0.214498 0.809306 -0.039991
v -0.202718 0.770330 0.051628
v -0.202492 0.782224 0.063732
v -0.214537 0.782508 0.051780
v -0.201968 0.820323 0.052061
v -0.214146 0.808504 0.052005
v -0.202102 0.808220 0.063957
v 0.212544 0.748886 0.076232
v 0.212411 0.760690 0.064040
v 0.224582 0.760842 0.075866
v 0.212497 0.786687 0.063619
v 0.212709 0.798879 0.075421
v 0.224668 0.786838 0.075444
v 0.213865 0.750374 0.168211
v 0.225904 0.762330 0.167844
v 0.214077 0.762567 0.180013
v 0.214031 0.800367 0.167399
v 0.214163 0.788563 0.179591
v 0.225990 0.788327 0.167422
v -0.211738 0.750389 0.082305
v -0.223697 0.762430 0.082282
v -0.211871 0.762193 0.070113
v -0.211573 0.800382 0.081494
v -0.211785 0.788190 0.069691
v -0.223611 0.788426 0.081860
v -0.210416 0.751877 0.174283
v -0.210204 0.764069 0.186086
v -0.222375 0.763918 0.174260
v -0.210251 0.801870 0.173472
v -0.222289 0.789914 0.173838
v -0.210118 0.790066 0.185664
v 0.019643 0.720483 -0.212261
v -0.016355 0.720175 -0.212501
v 0.019787 0.734675 -0.252227
v -0.016211 0.734367 -0.252466
v 0.019617 0.771235 -0.273721
v -0.016381 0.770927 -0.273960
v 0.019213 0.813056 -0.266687
v -0.016785 0.812748 -0.266926
v 0.018763 0.840570 -0.234415
v -0.017235 0.840262 -0.234655
v 0.018478 0.840902 -0.192007
v -0.017520 0.840594 -0.192247
v 0.018491 0.813898 -0.159305
v -0.017507 0.813590 -0.159545
v 0.018797 0.772192 -0.151611
v -0.017201 0.771884 -0.151851
v 0.019251 0.735300 -0.172525
v -0.016747 0.734992 -0.172765
v 0.014833 0.471432 -0.379133
v -0.021165 0.471100 -0.378991
v 0.015161 0.455201 -0.334086
v -0.020837 0.454870 -0.333944
v 0.015638 0.413813 -0.310013
v -0.020361 0.413481 -0.309871
v 0.016040 0.366633 -0.318177
v -0.019958 0.366301 -0.318035
v 0.016180 0.335737 -0.354759
v -0.019818 0.335406 -0.354616
v 0.015992 0.335583 -0.402641
v -0.020006 0.335251 -0.402499
v 0.015564 0.366241 -0.439419
v -0.020434 0.365910 -0.439277
v 0.015096 0.413368 -0.447884
v -0.020902 0.413036 -0.447742
v 0.014808 0.454911 -0.424076
v -0.021191 0.454579 -0.423933
v -0.192921 0.718695 0.086203
v -0.175018 0.718374 0.117434
v -0.227420 0.733236 0.106128
v -0.209517 0.732915 0.137359
v -0.245625 0.769982 0.116941
v -0.227722 0.769661 0.148172
v -0.239018 0.811740 0.113582
v -0.221115 0.811419 0.144813
v -0.210690 0.838970 0.097623
v -0.192787 0.838649 0.128854
v -0.173896 0.838931 0.076531
v -0.155993 0.838611 0.107763
v -0.145852 0.811642 0.060176
v -0.127950 0.811321 0.091407
v -0.139681 0.769871 0.056210
v -0.121779 0.769550 0.087441
v -0.158270 0.733163 0.066488
v -0.140367 0.732842 0.097720
v -0.338953 0.469275 0.171772
v -0.320887 0.469341 0.202910
v -0.299931 0.453181 0.149166
v -0.281865 0.453246 0.180304
v -0.278960 0.411864 0.137086
v -0.260894 0.411929 0.168225
v -0.285854 0.364657 0.141185
v -0.267787 0.364723 0.172324
v -0.317385 0.333650 0.159545
v -0.299319 0.333716 0.190684
v -0.358801 0.333350 0.183574
v -0.340735 0.333416 0.214713
v -0.390722 0.363898 0.202030
v -0.372656 0.363964 0.233168
v -0.398212 0.411000 0.206276
v -0.380146 0.411066 0.237415
v -0.377767 0.452617 0.194326
v -0.359701 0.452683 0.225465
v 0.175080 0.843732 0.118534
v 0.193006 0.844014 0.087315
v 0.140680 0.828907 0.098647
v 0.158605 0.829189 0.067429
v 0.122690 0.792011 0.087985
v 0.140616 0.792293 0.056767
v 0.129530 0.750306 0.091536
v 0.147456 0.750588 0.060318
v 0.157999 0.723308 0.107639
v 0.175924 0.723590 0.076420
v 0.194775 0.723649 0.128758
v 0.212700 0.723931 0.097540
v 0.222651 0.751169 0.145013
v 0.240576 0.751451 0.113794
v 0.228584 0.792992 0.148797
v 0.246509 0.793273 0.117578
v 0.209796 0.829548 0.138339
v 0.227722 0.829829 0.107121
v 0.322377 0.469273 0.204586
v 0.340687 0.469094 0.173590
v 0.283630 0.452784 0.181792
v 0.301939 0.452605 0.150797
v 0.263001 0.411257 0.169846
v 0.281310 0.411078 0.138850
v 0.270143 0.364123 0.174335
v 0.288452 0.363945 0.143340
v 0.301713 0.333436 0.193161
v 0.320023 0.333258 0.162165
v 0.342941 0.333556 0.217514
v 0.361250 0.333378 0.186518
v 0.374534 0.364426 0.235999
v 0.392843 0.364247 0.205003
v 0.381710 0.411601 0.239966
v 0.400020 0.411423 0.208971
v 0.361112 0.453008 0.227561
v 0.379422 0.452830 0.196565
v 0.032259 0.805122 -0.040855
v 0.042622 0.815604 -0.060206
v 0.052271 0.859770 -0.078076
v 0.054873 0.849057 -0.082992
v 0.054149 0.805134 -0.019363
v 0.073302 0.815620 -0.030084
v 0.090967 0.859790 -0.040082
v 0.095840 0.849079 -0.042768
v 0.060944 0.805287 0.010551
v 0.082826 0.815835 0.011843
v 0.102980 0.860061 0.012799
v 0.108559 0.849365 0.013219
v 0.050488 0.805532 0.039390
v 0.068171 0.816179 0.052263
v 0.084496 0.860495 0.063779
v 0.088989 0.849825 0.067193
v 0.026100 0.805792 0.057997
v 0.033989 0.816543 0.078342
v 0.041383 0.860955 0.096672
v 0.043345 0.850312 0.102018
v -0.004476 0.805985 0.060465
v -0.008866 0.816813 0.081801
v -0.012669 0.861294 0.101035
v -0.013881 0.850672 0.106637
v -0.031534 0.806048 0.046010
v -0.046789 0.816901 0.061541
v -0.060501 0.861406 0.075482
v -0.064522 0.850790 0.079583
v -0.046482 0.805962 0.019222
v -0.067740 0.816781 0.023996
v -0.086925 0.861254 0.028127
v -0.092498 0.850629 0.029447
v -0.044574 0.805754 -0.011395
v -0.065066 0.816490 -0.018916
v -0.083553 0.860887 -0.025997
v -0.088928 0.850241 -0.027855
v -0.026417 0.805491 -0.036119
v -0.039617 0.816121 -0.053569
v -0.051455 0.860422 -0.069704
v -0.054944 0.849747 -0.074128
v 0.002226 0.805255 -0.047101
v 0.000528 0.815790 -0.068961
v -0.000821 0.860005 -0.089118
v -0.001338 0.849306 -0.094683
v -0.008767 0.848166 -0.106841
v -0.008876 0.863165 -0.106903
v 0.054760 0.848673 -0.095920
v 0.054651 0.863672 -0.095983
v 0.102296 0.849200 -0.052387
v 0.102187 0.864200 -0.052450
v 0.118751 0.849580 0.009937
v 0.118642 0.864580 0.009874
v 0.098899 0.849692 0.071264
v 0.098790 0.864692 0.071201
v 0.049043 0.849500 0.112124
v 0.048934 0.864500 0.112061
v -0.014987 0.849066 0.119543
v -0.015096 0.864066 0.119481
v -0.072863 0.848527 0.091167
v -0.072973 0.863526 0.091104
v -0.106210 0.848054 0.036004
v -0.106319 0.863054 0.035941
v -0.104439 0.847798 -0.028431
v -0.104548 0.862797 -0.028494
v -0.068114 0.847839 -0.081682
v -0.068223 0.862839 -0.081745
v 0.043165 0.003893 0.424300
v 0.071911 0.025303 0.415880
v 0.052835 0.025164 0.452754
v 0.073862 0.131552 0.440662
v 0.073282 0.110195 0.463653
v 0.092358 0.110335 0.426779
v 0.019724 0.003774 0.445889
v 0.047172 0.025135 0.457970
v 0.008857 0.024983 0.473955
v 0.032811 0.131343 0.478471
v 0.017574 0.109955 0.495658
v 0.055889 0.110107 0.479672
v -0.012110 0.003674 0.447360
v 0.001166 0.024959 0.474311
v -0.038461 0.024865 0.461927
v -0.022938 0.131168 0.481047
v -0.045673 0.109787 0.484366
v -0.006047 0.109881 0.496749
v -0.037442 0.003639 0.428025
v -0.044580 0.024857 0.457256
v -0.066977 0.024865 0.422298
v -0.067302 0.131107 0.447185
v -0.086866 0.109770 0.435061
v -0.064470 0.109761 0.470019
v -0.044419 0.003686 0.396930
v -0.068662 0.024877 0.414786
v -0.063348 0.024983 0.373611
v -0.079520 0.131189 0.392730
v -0.086729 0.109911 0.370814
v -0.092042 0.109805 0.411989
v -0.029776 0.003793 0.368625
v -0.059811 0.025009 0.366773
v -0.029273 0.025164 0.338647
v -0.053876 0.131376 0.343161
v -0.045326 0.110145 0.321686
v -0.075864 0.109990 0.349812
v -0.000365 0.003909 0.356355
v -0.022168 0.025192 0.335683
v 0.019304 0.025323 0.333766
v -0.002370 0.131580 0.321672
v 0.017969 0.110362 0.310665
v -0.023504 0.110232 0.312581
v 0.030052 0.003981 0.365860
v 0.026653 0.025340 0.336063
v 0.059654 0.025385 0.361252
v 0.050899 0.131706 0.338319
v 0.073540 0.110461 0.342908
v 0.040538 0.110416 0.317718
v 0.047244 0.003975 0.392694
v 0.063807 0.025384 0.367735
v 0.072897 0.025323 0.408245
v 0.081005 0.131695 0.385311
v 0.095385 0.110395 0.403327
v 0.086296 0.110456 0.362818
v 0.070392 0.122574 0.346123
v 0.062479 0.142489 0.325754
v 0.087568 0.142768 0.359209
v 0.033398 0.214588 0.373097
v 0.066592 0.194940 0.374504
v 0.041503 0.194661 0.341049
v 0.086586 0.122763 0.399531
v 0.093562 0.142838 0.378978
v 0.091278 0.142825 0.420734
v 0.040660 0.214673 0.397048
v 0.065238 0.194938 0.419326
v 0.067522 0.194951 0.377571
v 0.064663 0.122540 0.450854
v 0.083163 0.142743 0.439731
v 0.054575 0.142443 0.470250
v 0.030829 0.214573 0.420064
v 0.035391 0.194625 0.452792
v 0.063979 0.194925 0.422274
v 0.014882 0.122011 0.476077
v 0.036149 0.142247 0.479586
v -0.005367 0.141801 0.484588
v 0.008505 0.214336 0.431375
v -0.008983 0.194149 0.459242
v 0.032533 0.194595 0.454241
v -0.039465 0.121422 0.463399
v -0.025484 0.141583 0.479895
v -0.060501 0.141200 0.457039
v -0.015867 0.214072 0.425690
v -0.047121 0.193732 0.435658
v -0.012104 0.194115 0.458514
v -0.072949 0.121049 0.418751
v -0.072895 0.141062 0.440513
v -0.085029 0.140920 0.400494
v -0.030883 0.213904 0.405667
v -0.061178 0.193569 0.393076
v -0.049044 0.193710 0.433094
v -0.069901 0.121067 0.363024
v -0.083901 0.140927 0.379867
v -0.067474 0.141093 0.341411
v -0.029516 0.213912 0.380677
v -0.044576 0.193736 0.351419
v -0.061003 0.193570 0.389876
v -0.031748 0.121467 0.322295
v -0.053352 0.141241 0.326334
v -0.016051 0.141638 0.307434
v -0.012406 0.214092 0.362412
v -0.005084 0.194156 0.330181
v -0.042385 0.193759 0.349081
v 0.023658 0.122062 0.315620
v 0.004458 0.141858 0.304964
v 0.045180 0.142300 0.314464
v 0.012440 0.214359 0.359418
v 0.038820 0.194632 0.339297
v -0.001903 0.194190 0.329797
v -0.070775 0.194776 0.418967
v -0.070850 0.219775 0.419193
v -0.063133 0.195226 0.371700
v -0.063208 0.220225 0.371926
v -0.026895 0.195619 0.340404
v -0.026971 0.220617 0.340630
v 0.020983 0.195769 0.339723
v 0.020907 0.220768 0.339949
v 0.058098 0.195608 0.369975
v 0.058022 0.220607 0.370201
v 0.067084 0.195210 0.417006
v 0.067008 0.220209 0.417232
v 0.043736 0.194761 0.458808
v 0.043660 0.219760 0.459034
v -0.001021 0.194472 0.475823
v -0.001097 0.219471 0.476049
v -0.046245 0.194478 0.460088
v -0.046320 0.219477 0.460314
v -0.067519 1.381732 -0.000023
v -0.067514 1.383312 0.003731
v -0.070395 1.384402 0.001066
v -0.067070 1.676355 0.123133
v -0.067067 1.680109 0.121552
v -0.069951 1.677445 0.120468
v -0.067521 1.384086 -0.005802
v -0.070397 1.386757 -0.004713
v -0.067517 1.387840 -0.007382
v -0.067068 1.682463 0.115774
v -0.067073 1.680883 0.112020
v -0.069952 1.679800 0.114689
v 0.070721 1.381565 -0.000129
v 0.073605 1.384229 0.000956
v 0.070726 1.383145 0.003625
v 0.071173 1.679942 0.121447
v 0.071170 1.676188 0.123027
v 0.074049 1.677271 0.120358
v 0.070719 1.383919 -0.005907
v 0.070723 1.387673 -0.007488
v 0.073603 1.386583 -0.004823
v 0.071172 1.682297 0.115668
v 0.074048 1.679626 0.114579
v 0.071167 1.680716 0.111914
v 0.035612 1.378185 0.055260
v 0.038953 1.379509 0.053343
v 0.038136 1.380782 0.057125
v 0.161145 1.668752 -0.017627
v 0.159991 1.672604 -0.016980
v 0.160328 1.670025 -0.013845
v 0.030742 1.380924 0.058038
v 0.033266 1.383521 0.059903
v 0.029587 1.384776 0.058685
v 0.155120 1.675343 -0.014202
v 0.151779 1.674019 -0.012285
v 0.155458 1.672764 -0.011068
v -0.033060 1.377758 -0.064716
v -0.033398 1.380337 -0.067850
v -0.029719 1.379082 -0.066633
v 0.091318 1.672177 -0.136956
v 0.092473 1.668325 -0.137603
v 0.088794 1.669580 -0.138820
v -0.037930 1.380497 -0.061938
v -0.039085 1.384349 -0.061291
v -0.038268 1.383076 -0.065072
v 0.086448 1.674916 -0.134178
v 0.083924 1.672319 -0.136043
v 0.083107 1.673592 -0.132261
v 0.032188 1.377239 -0.062462
v 0.028778 1.378281 -0.064431
v 0.032373 1.379738 -0.065673
v -0.110270 1.653710 -0.143782
v -0.109375 1.657647 -0.143249
v -0.106676 1.655167 -0.145024
v 0.036852 1.380374 -0.059752
v 0.037037 1.382874 -0.062962
v 0.037748 1.384311 -0.059218
v -0.104710 1.660783 -0.140538
v -0.101300 1.659740 -0.138570
v -0.102011 1.658303 -0.142314
v -0.037027 1.376771 0.057202
v -0.039726 1.379252 0.058977
v -0.040437 1.377814 0.055233
v -0.178589 1.657180 -0.023585
v -0.179485 1.653243 -0.024118
v -0.178774 1.654680 -0.020374
v -0.032362 1.379907 0.059912
v -0.031466 1.383844 0.060445
v -0.035061 1.382387 0.061688
v -0.173924 1.660316 -0.020874
v -0.174109 1.657816 -0.017664
v -0.170514 1.659273 -0.018906
v 0.001141 0.855691 -0.008301
v -0.064701 0.916060 -0.053738
v 0.025365 0.918331 -0.082689
v 0.080785 0.916484 -0.006006
v 0.024971 0.913070 0.070337
v -0.064944 0.912809 0.040836
v -0.025749 1.014164 -0.079526
v 0.064166 1.014425 -0.050025
v 0.063923 1.011174 0.044549
v -0.026142 1.008903 0.073500
v -0.081563 1.010750 -0.003183
v -0.001919 1.071543 -0.000888
v 0.015648 0.873561 -0.052676
v -0.037291 0.872227 -0.035659
v -0.023053 0.909045 -0.079383
v -0.076135 0.905799 -0.006777
v -0.037434 0.870315 0.019930
v 0.048224 0.872476 -0.007603
v 0.062462 0.909294 -0.051327
v 0.015416 0.870469 0.037270
v 0.062230 0.906202 0.038619
v -0.023427 0.904042 0.066152
v -0.085904 0.963368 -0.032651
v -0.086047 0.961457 0.022938
v -0.000157 0.966709 -0.094541
v -0.053097 0.965374 -0.077525
v 0.085269 0.965777 -0.032128
v 0.052694 0.966863 -0.077201
v 0.052319 0.961860 0.068335
v 0.085126 0.963866 0.023462
v -0.053471 0.960371 0.068012
v -0.000620 0.960525 0.085352
v -0.063008 1.021032 -0.047808
v 0.022650 1.023192 -0.075342
v 0.075357 1.021435 -0.002412
v 0.022275 1.018189 0.070194
v -0.063240 1.017940 0.042138
v -0.016194 1.056765 -0.046459
v -0.049001 1.054758 -0.001587
v 0.036656 1.056918 -0.029119
v 0.036513 1.055007 0.026470
v -0.016426 1.053673 0.043486
vn -0.3948 0.3119 -0.8642
vn 0.4720 0.2847 -0.8344
vn 0.9835 0.0516 -0.1734
vn 0.7546 -0.2119 0.6210
vn -0.0424 -0.3074 0.9506
vn 0.0187 0.9474 0.3196
vn -0.8073 -0.1630 0.5672
vn -0.9641 0.1126 -0.2404
vn -0.0187 -0.9474 -0.3196
vn -0.1773 0.2070 0.9621
vn -0.8466 0.3237 0.4224
vn -0.8760 0.2051 -0.4366
vn -0.2432 -0.0595 -0.9682
vn 0.5752 -0.2708 -0.7719
vn 0.2790 0.9499 -0.1407
vn 0.9629 -0.2697 0.0044
vn 0.6281 -0.0570 0.7761
vn -0.2790 -0.9499 0.1407
vn 0.6396 0.0379 -0.7677
vn 0.9632 0.2688 0.0036
vn 0.5592 0.3058 0.7706
vn -0.2682 0.1209 0.9558
vn -0.8958 -0.1465 0.4196
vn -0.2524 0.9510 -0.1788
vn -0.8512 -0.2951 -0.4341
vn -0.1678 -0.2130 -0.9625
vn 0.2524 -0.9510 0.1788
vn -0.2227 -0.0024 -0.9749
vn 0.4560 -0.0015 -0.8900
vn 0.9214 0.0001 -0.3886
vn 0.9556 0.0016 0.2946
vn 0.5427 0.0024 0.8399
vn -0.1241 0.0020 0.9923
vn -0.7329 0.0007 0.6803
vn -0.0010 1.0000 -0.0022
vn -0.9987 -0.0009 0.0500
vn -0.7972 -0.0021 -0.6036
vn 0.0010 -1.0000 0.0022
vn 0.5759 -0.5839 -0.5722
vn 0.5942 0.5707 -0.5669
vn 0.5603 -0.5890 0.5824
vn 0.5785 0.5656 0.5877
vn -0.5785 -0.5656 -0.5877
vn -0.5603 0.5890 -0.5824
vn -0.5942 -0.5707 0.5669
vn -0.5759 0.5839 0.5722
vn 0.6958 -0.7182 0.0063
vn 0.7165 -0.0081 -0.6975
vn 0.7181 0.6958 0.0128
vn 0.6974 -0.0143 0.7166
vn -0.0207 -0.7101 0.7038
vn 0.0016 0.7039 0.7103
vn -0.7165 0.0081 0.6975
vn -0.7181 -0.6958 -0.0128
vn -0.6958 0.7182 -0.0063
vn -0.6974 0.0143 -0.7166
vn -0.0016 -0.7039 -0.7103
vn 0.0207 0.7101 -0.7038
vn -0.0158 -0.9999 -0.0046
vn 0.9998 -0.0158 0.0135
vn 0.0135 0.0044 -0.9999
vn 0.0158 0.9999 0.0046
vn -0.0135 -0.0044 0.9999
vn -0.9998 0.0158 -0.0135
vn 0.5664 -0.5809 -0.5846
vn 0.5837 0.5737 -0.5746
vn 0.5708 -0.5909 0.5700
vn 0.5881 0.5636 0.5800
vn -0.5882 -0.5636 -0.5800
vn -0.5708 0.5909 -0.5700
vn -0.5837 -0.5736 0.5746
vn -0.5664 0.5809 0.5846
vn 0.6964 -0.7176 -0.0089
vn 0.7043 -0.0044 -0.7099
vn 0.7176 0.6964 0.0033
vn 0.7097 -0.0168 0.7043
vn -0.0079 -0.7132 0.7010
vn 0.0133 0.7008 0.7132
vn -0.7043 0.0044 0.7099
vn -0.7176 -0.6964 -0.0033
vn -0.6964 0.7176 0.0089
vn -0.7097 0.0168 -0.7043
vn -0.0133 -0.7008 -0.7132
vn 0.0079 0.7132 -0.7010
vn -0.0150 -0.9998 -0.0087
vn 0.9999 -0.0150 -0.0040
vn -0.0038 0.0087 -1.0000
vn 0.0150 0.9998 0.0087
vn 0.0038 -0.0087 1.0000
vn -0.9999 0.0150 0.0040
vn 0.5671 -0.5886 -0.5761
vn 0.5709 0.5659 -0.5948
vn 0.5837 -0.5700 0.5783
vn 0.5875 0.5846 0.5596
vn -0.5875 -0.5846 -0.5596
vn -0.5837 0.5700 -0.5783
vn -0.5709 -0.5659 0.5948
vn -0.5671 0.5887 0.5761
vn 0.7047 -0.7095 0.0014
vn 0.6969 -0.0139 -0.7171
vn 0.7094 0.7045 -0.0216
vn 0.7172 0.0089 0.6968
vn 0.0078 -0.6956 0.7184
vn 0.0125 0.7184 0.6955
vn -0.6969 0.0139 0.7171
vn -0.7094 -0.7045 0.0216
vn -0.7047 0.7095 -0.0014
vn -0.7172 -0.0089 -0.6968
vn -0.0125 -0.7184 -0.6955
vn -0.0078 0.6956 -0.7184
vn -0.0033 -0.9999 0.0162
vn 0.9999 -0.0035 -0.0143
vn -0.0144 -0.0162 -0.9998
vn 0.0033 0.9999 -0.0162
vn 0.0144 0.0162 0.9998
vn -0.9999 0.0035 0.0143
vn 0.0103 -0.9423 -0.3346
vn 0.0101 -0.5068 -0.8620
vn 0.0051 0.1659 -0.9861
vn -0.0022 0.7610 -0.6488
vn -0.0085 0.9999 -0.0079
vn -0.0108 0.7710 0.6367
vn -0.0081 0.1814 0.9834
vn -0.9999 -0.0086 -0.0067
vn -0.0016 -0.4932 0.8699
vn 0.0057 -0.9369 0.3494
vn 0.9999 0.0086 0.0067
vn -0.0073 0.9408 0.3390
vn -0.0012 0.5028 0.8644
vn 0.0055 -0.1705 0.9853
vn 0.0096 -0.7639 0.6452
vn 0.0092 -1.0000 0.0032
vn 0.0045 -0.7681 -0.6403
vn -0.0023 -0.1768 -0.9842
vn -0.9999 -0.0092 0.0040
vn -0.0080 0.4972 -0.8676
vn -0.0100 0.9385 -0.3450
vn 0.9999 0.0092 -0.0040
vn -0.3016 -0.9393 0.1633
vn -0.7539 -0.4992 0.4271
vn -0.8535 0.1745 0.4910
vn -0.5537 0.7666 0.3252
vn 0.0052 1.0000 0.0073
vn 0.5617 0.7654 -0.3141
vn 0.8553 0.1727 -0.4885
vn 0.4973 -0.0089 0.8675
vn 0.7487 -0.5008 -0.4343
vn 0.2918 -0.9400 -0.1769
vn -0.4973 0.0089 -0.8675
vn 0.2899 0.9418 -0.1702
vn 0.7459 0.5054 -0.4338
vn 0.8529 -0.1675 -0.4945
vn 0.5608 -0.7620 -0.3238
vn 0.0063 -1.0000 -0.0016
vn -0.5511 -0.7701 0.3214
vn -0.8507 -0.1798 0.4939
vn 0.5018 0.0018 0.8650
vn -0.7522 0.4946 0.4354
vn -0.3018 0.9375 0.1731
vn -0.5018 -0.0018 -0.8650
vn -0.3068 0.9369 -0.1677
vn -0.7564 0.4930 -0.4299
vn -0.8521 -0.1815 -0.4909
vn -0.5491 -0.7712 -0.3222
vn 0.0109 -0.9999 -0.0028
vn 0.5657 -0.7608 0.3180
vn 0.8559 -0.1657 0.4899
vn 0.4979 0.0078 -0.8672
vn 0.7455 0.5069 0.4327
vn 0.2864 0.9424 0.1729
vn -0.4979 -0.0078 0.8672
vn -0.2941 0.9388 -0.1791
vn -0.7455 0.4978 -0.4432
vn -0.8480 -0.1761 -0.4999
vn -0.5537 -0.7676 -0.3227
vn -0.0004 -1.0000 0.0055
vn 0.5532 -0.7644 0.3312
vn 0.8479 -0.1712 0.5018
vn 0.5086 -0.0050 -0.8610
vn 0.7458 0.5022 0.4377
vn 0.2948 0.9405 0.1687
vn -0.5086 0.0050 0.8610
vn 0.3124 -0.8953 -0.3177
vn 0.6271 0.4455 -0.6389
vn 0.4368 -0.8946 -0.0947
vn 0.8719 0.4469 -0.2003
vn 0.4209 -0.8928 0.1602
vn 0.8406 0.4503 0.3009
vn 0.2698 -0.8906 0.3660
vn 0.5433 0.4546 0.7058
vn 0.0313 -0.8887 0.4575
vn 0.0744 0.4585 0.8856
vn -0.2187 -0.8876 0.4055
vn -0.4174 0.4607 0.7833
vn -0.4009 -0.8877 0.2265
vn -0.7758 0.4605 0.4314
vn -0.4575 -0.8889 -0.0225
vn -0.8870 0.4580 -0.0584
vn -0.3704 -0.8910 -0.2625
vn -0.7159 0.4539 -0.5306
vn -0.1674 -0.8932 -0.4174
vn -0.3165 0.4497 -0.8352
vn 0.0871 -0.8948 -0.4380
vn 0.1841 0.4465 -0.8756
vn -0.0058 -1.0000 0.0064
vn 0.5627 -0.5961 -0.5727
vn 0.1611 -0.5952 -0.7873
vn 0.0058 1.0000 -0.0064
vn 0.7845 -0.5949 -0.1752
vn 0.7562 -0.5918 0.2792
vn 0.4867 -0.5879 0.6461
vn 0.0616 -0.5844 0.8091
vn -0.3841 -0.5824 0.7164
vn -0.7090 -0.5826 0.3975
vn -0.8098 -0.5848 -0.0465
vn -0.6546 -0.5885 -0.4745
vn -0.2927 -0.5924 -0.7506
vn 0.1694 -0.0029 -0.9855
vn 0.6754 0.0018 -0.7375
vn 0.9668 0.0060 -0.2553
vn 0.9514 0.0082 0.3080
vn 0.6338 0.0078 0.7734
vn 0.1151 0.0050 0.9933
vn -0.4402 0.0006 0.8979
vn -0.8558 -0.0041 0.5174
vn -0.9996 -0.0074 -0.0274
vn -0.0073 1.0000 -0.0042
vn -0.8261 -0.0084 -0.5635
vn -0.3903 -0.0067 -0.9207
vn 0.0073 -1.0000 0.0042
vn 0.6244 -0.7124 0.3203
vn 0.8025 0.4269 0.4168
vn 0.2719 -0.7142 0.6450
vn 0.3472 0.4246 0.8362
vn -0.2068 -0.7157 0.6671
vn -0.2712 0.4226 0.8648
vn -0.5877 -0.7162 0.3763
vn -0.7633 0.4220 0.4891
vn -0.6926 -0.7155 -0.0912
vn -0.8989 0.4229 -0.1149
vn -0.4724 -0.7139 -0.5169
vn -0.6144 0.4250 -0.6648
vn -0.0302 -0.7122 -0.7014
vn -0.0431 0.4272 -0.9031
vn 0.4272 -0.7111 -0.5584
vn 0.5478 0.4286 -0.7185
vn 0.6857 -0.7112 -0.1549
vn 0.8818 0.4285 -0.1972
vn 0.4174 -0.7902 0.4488
vn 0.5336 0.6129 0.5828
vn 0.8574 -0.2629 0.4425
vn 0.3721 -0.2653 0.8894
vn 0.0307 -0.7917 0.6101
vn 0.0346 0.6109 0.7909
vn -0.2868 -0.2674 0.9199
vn -0.3692 -0.7926 0.4852
vn -0.4815 0.6097 0.6297
vn -0.8112 -0.2681 0.5196
vn -0.5953 -0.7926 0.1324
vn -0.7731 0.6098 0.1744
vn -0.9556 -0.2672 -0.1240
vn -0.5416 -0.7915 -0.2832
vn -0.7039 0.6112 -0.3619
vn -0.6525 -0.2650 -0.7099
vn -0.2334 -0.7899 -0.5670
vn -0.3062 0.6132 -0.7282
vn -0.0437 -0.2625 -0.9639
vn 0.1851 -0.7886 -0.5864
vn 0.2339 0.6149 -0.7531
vn 0.5859 -0.2611 -0.7672
vn 0.5182 -0.7881 -0.3322
vn 0.6637 0.6155 -0.4251
vn 0.9418 -0.2612 -0.2117
vn 0.6099 -0.7888 0.0767
vn 0.7821 0.6147 0.1025
vn 0.0031 -1.0000 -0.0022
vn 0.6568 -0.2492 0.7117
vn 0.9611 -0.2469 0.1234
vn -0.0031 1.0000 0.0022
vn 0.0455 -0.2516 0.9668
vn -0.5868 -0.2531 0.7692
vn -0.9441 -0.2529 0.2114
vn -0.8593 -0.2512 -0.4455
vn -0.3721 -0.2488 -0.8942
vn 0.2896 -0.2467 -0.9248
vn 0.8161 -0.2460 -0.5229
vn 0.7687 -0.2818 -0.5742
vn 0.4848 0.7925 -0.3701
vn 0.9587 -0.2796 0.0523
vn 0.6071 0.7939 0.0335
vn 0.7015 -0.2822 0.6544
vn 0.4415 0.7922 0.4213
vn 0.1176 -0.2884 0.9503
vn 0.0653 0.7882 0.6119
vn -0.5199 -0.2953 0.8015
vn -0.3454 0.7838 0.5161
vn -0.9127 -0.2997 0.2778
vn -0.5985 0.7809 0.1787
vn -0.8770 -0.2994 -0.3759
vn -0.5754 0.7811 -0.2424
vn -0.4294 -0.2948 -0.8537
vn -0.2871 0.7841 -0.5502
vn 0.2205 -0.2878 -0.9320
vn 0.1316 0.7886 -0.6007
vn 0.8110 -0.5317 -0.2440
vn 0.5080 0.8469 -0.1570
vn 0.7145 0.4454 -0.5395
vn 0.8929 0.4475 0.0490
vn 0.7796 -0.5319 0.3307
vn 0.4878 0.8468 0.2120
vn 0.6514 0.4451 0.6145
vn 0.3861 -0.5360 0.7508
vn 0.2351 0.8442 0.4817
vn 0.1028 0.4392 0.8925
vn -0.1853 -0.5421 0.8196
vn -0.1318 0.8402 0.5260
vn -0.4961 0.4327 0.7528
vn -0.6673 -0.5474 0.5050
vn -0.4413 0.8369 0.3240
vn -0.8650 0.4286 0.2608
vn -0.8343 -0.5493 -0.0458
vn -0.5485 0.8356 -0.0297
vn -0.8314 0.4288 -0.3533
vn -0.6082 -0.5470 -0.5751
vn -0.4033 0.8371 -0.3696
vn -0.4110 0.4332 -0.8021
vn -0.0948 -0.5416 -0.8353
vn -0.0737 0.8406 -0.5367
vn 0.1995 0.4398 -0.8757
vn 0.4657 -0.5355 -0.7045
vn 0.2862 0.8445 -0.4527
vn 0.0108 -0.9999 0.0003
vn 0.8656 0.4254 -0.2640
vn 0.4925 0.4213 -0.7616
vn -0.0108 0.9999 -0.0003
vn 0.8317 0.4252 0.3571
vn 0.4065 0.4208 0.8110
vn -0.2110 0.4141 0.8854
vn -0.7319 0.4084 0.5455
vn -0.9124 0.4063 -0.0498
vn -0.6680 0.4088 -0.6218
vn -0.1132 0.4147 -0.9029
vn -0.9872 -0.0015 -0.1596
vn -0.6536 0.0049 -0.7568
vn -0.0143 0.0090 -0.9999
vn 0.6318 0.0089 -0.7751
vn 0.9822 0.0047 -0.1876
vn 0.8731 -0.0018 0.4876
vn 0.3554 -0.0074 0.9347
vn -0.0030 1.0000 0.0090
vn -0.3286 -0.0095 0.9444
vn -0.8588 -0.0072 0.5122
vn 0.0030 -1.0000 -0.0090
vn -0.5780 -0.7518 0.3173
vn -0.5764 0.3175 0.7530
vn -0.5783 -0.3161 -0.7521
vn -0.5767 0.7532 -0.3164
vn 0.5767 -0.7532 0.3164
vn 0.5783 0.3161 0.7521
vn 0.5764 -0.3175 -0.7530
vn 0.5780 0.7518 -0.3172
vn -0.7081 -0.6540 -0.2663
vn -0.7069 -0.2660 0.6554
vn -0.7061 0.6557 0.2674
vn -0.7073 0.2677 -0.6543
vn -0.0012 -0.3880 -0.9217
vn 0.0008 0.9217 -0.3880
vn 0.7069 0.2660 -0.6554
vn 0.7061 -0.6557 -0.2674
vn 0.7081 0.6540 0.2663
vn 0.7073 -0.2677 0.6543
vn -0.0008 -0.9216 0.3880
vn 0.0012 0.3880 0.9216
vn -0.0014 -0.9261 -0.3773
vn -1.0000 0.0012 0.0008
vn 0.0003 -0.3773 0.9261
vn 0.0014 0.9261 0.3773
vn -0.0003 0.3773 -0.9261
vn 1.0000 -0.0012 -0.0008
vn 0.5183 -0.7704 0.3713
vn 0.9566 0.2671 0.1168
vn -0.3830 -0.2635 0.8854
vn 0.0554 0.7740 0.6308
vn -0.0553 -0.7740 -0.6308
vn 0.3830 0.2636 -0.8854
vn -0.9566 -0.2671 -0.1168
vn -0.5183 0.7704 -0.3713
vn 0.0829 -0.6332 0.7696
vn 0.9031 -0.3082 0.2989
vn 0.6197 0.6375 0.4578
vn -0.2006 0.3126 0.9285
vn -0.8203 -0.3249 0.4707
vn -0.2835 0.9457 0.1589
vn -0.9031 0.3082 -0.2989
vn -0.6197 -0.6375 -0.4578
vn -0.0829 0.6331 -0.7696
vn 0.2006 -0.3126 -0.9285
vn 0.2834 -0.9457 -0.1589
vn 0.8203 0.3250 -0.4707
vn -0.3796 -0.8985 0.2205
vn 0.4968 0.0031 0.8679
vn 0.7805 -0.4389 -0.4452
vn 0.3796 0.8985 -0.2205
vn -0.7805 0.4389 0.4452
vn -0.4968 -0.0031 -0.8679
vn 0.1095 -0.7873 -0.6067
vn -0.3945 0.2110 -0.8944
vn 0.9727 -0.2071 -0.1052
vn 0.4687 0.7912 -0.3928
vn -0.4687 -0.7912 0.3928
vn -0.9727 0.2071 0.1052
vn 0.3945 -0.2110 0.8943
vn -0.1094 0.7873 0.6068
vn 0.6626 -0.6090 -0.4360
vn -0.1746 -0.3530 -0.9192
vn 0.0454 0.6137 -0.7882
vn 0.8826 0.3577 -0.3050
vn 0.8372 -0.2560 0.4833
vn 0.2200 0.9667 0.1310
vn 0.1746 0.3530 0.9192
vn -0.0454 -0.6137 0.7882
vn -0.6627 0.6089 0.4360
vn -0.8826 -0.3577 0.3050
vn -0.2200 -0.9667 -0.1310
vn -0.8372 0.2560 -0.4833
vn 0.4364 -0.8646 0.2491
vn 0.5007 0.0034 -0.8656
vn -0.7475 -0.5025 -0.4343
vn -0.4365 0.8645 -0.2491
vn 0.7475 0.5025 0.4343
vn -0.5007 -0.0034 0.8656
vn -0.1060 -0.9099 -0.4011
vn -0.7431 -0.5928 -0.3104
vn 0.3278 -0.9086 -0.2588
vn 0.3266 -0.9243 0.1974
vn -0.1079 -0.9353 0.3371
vn -0.9157 -0.2834 -0.2849
vn -0.0187 -0.2472 -0.9688
vn 0.9096 -0.2561 -0.3271
vn 0.5864 -0.2978 0.7533
vn -0.5417 -0.3147 0.7794
vn -0.8015 -0.0961 -0.5903
vn 0.3112 -0.0681 -0.9479
vn 0.9959 -0.0909 -0.0006
vn 0.3063 -0.1330 0.9426
vn -0.8045 -0.1363 0.5781
vn -0.4460 0.6091 -0.6558
vn 0.4996 0.6207 -0.6043
vn 0.7431 0.5928 0.3104
vn -0.0519 0.5638 0.8243
vn -0.7868 0.5739 0.2271
vn -0.3278 0.9086 0.2588
vn -0.5581 0.7153 0.4206
vn -0.4495 0.5627 0.6938
vn 0.1060 0.9099 0.4011
vn 0.1967 0.7175 0.6682
vn 0.4963 0.5777 0.6480
vn 0.3752 0.9264 0.0328
vn 0.6652 0.7461 0.0274
vn 0.7446 0.6125 -0.2652
vn 0.1079 0.9353 -0.3371
vn 0.2000 0.7616 -0.6164
vn -0.0477 0.6191 -0.7838
vn -0.3266 0.9243 -0.1974
vn -0.5561 0.7426 -0.3733
vn -0.7857 0.5883 -0.1912
vn -0.9096 0.2561 0.3271
vn -0.8026 0.1259 0.5831
vn -0.5903 0.2455 0.7690
vn 0.0187 0.2472 0.9688
vn 0.3005 0.1291 0.9450
vn 0.5377 0.2603 0.8020
vn 0.9157 0.2834 0.2849
vn 0.9852 0.1710 0.0084
vn 0.9171 0.3022 -0.2600
vn 0.5417 0.3147 -0.7794
vn 0.3053 0.1936 -0.9324
vn 0.0237 0.3132 -0.9494
vn -0.5864 0.2978 -0.7533
vn -0.7996 0.1658 -0.5772
vn -0.9080 0.2781 -0.3135
vn -0.3112 0.0681 0.9479
vn -0.3053 -0.1936 0.9324
vn -0.0237 -0.3132 0.9494
vn 0.8015 0.0961 0.5903
vn 0.7996 -0.1658 0.5772
vn 0.9080 -0.2781 0.3134
vn 0.8045 0.1363 -0.5781
vn 0.8026 -0.1259 -0.5831
vn 0.5903 -0.2455 -0.7690
vn -0.3063 0.1330 -0.9426
vn -0.3005 -0.1291 -0.9450
vn -0.5377 -0.2603 -0.8020
vn -0.9959 0.0909 0.0006
vn -0.9852 -0.1710 -0.0084
vn -0.9171 -0.3022 0.2600
vn -0.4996 -0.6207 0.6043
vn -0.2000 -0.7616 0.6164
vn 0.0477 -0.6191 0.7838
vn 0.4460 -0.6091 0.6558
vn 0.5561 -0.7426 0.3733
vn 0.7857 -0.5883 0.1912
vn 0.7868 -0.5739 -0.2271
vn 0.5581 -0.7153 -0.4206
vn 0.4495 -0.5627 -0.6938
vn -0.7446 -0.6125 0.2652
vn -0.6652 -0.7461 -0.0274
vn -0.3752 -0.9264 -0.0328
vn 0.0519 -0.5638 -0.8243
vn -0.1967 -0.7175 -0.6682
vn -0.4963 -0.5777 -0.6480
vn -0.7973 -0.0021 -0.6036
vn 0.8406 0.4503 0.3010
vn -0.7158 0.4540 -0.5306
vn 0.9514 0.0082 0.3079
vn -0.8558 -0.0041 0.5173
vn 0.0030 -1.0000 -0.0022
vn 0.7796 -0.5318 0.3307
vn -0.4034 0.8371 -0.3696
vn -0.0012 -0.3880 -0.9216
vn 0.0828 -0.6332 0.7696
vn -0.0829 0.6332 -0.7696
vn 0.2835 -0.9457 -0.1589
vn 0.6627 -0.6090 -0.4360
vn -0.1746 -0.3529 -0.9192
vn -0.6627 0.6089 0.4359
vn -0.2199 -0.9667 -0.1310
vn -0.8372 0.2560 -0.4832
vn 0.4365 -0.8646 0.2491
vt 1.000000 0.500000
vt 0.857143 1.000000
vt 0.857143 0.500000
vt 0.714286 1.000000
vt 0.714286 0.500000
vt 0.571429 0.500000
vt 0.428571 1.000000
vt 0.428571 0.500000
vt 0.285714 0.500000
vt 0.250000 0.490000
vt 0.016017 0.196595
vt 0.354132 0.033767
vt 0.142857 1.000000
vt 0.142857 0.500000
vt 0.000000 0.500000
vt 0.937640 0.399638
vt 0.854132 0.033767
vt 0.516017 0.196595
vt 0.571429 1.000000
vt 0.285714 1.000000
vt 0.000000 1.000000
vt 1.000000 1.000000
vt 0.888889 1.000000
vt 0.888889 0.500000
vt 0.777778 1.000000
vt 0.777778 0.500000
vt 0.666667 0.500000
vt 0.666667 1.000000
vt 0.555556 0.500000
vt 0.444444 1.000000
vt 0.444444 0.500000
vt 0.333333 1.000000
vt 0.333333 0.500000
vt 0.222222 0.500000
vt 0.167915 0.024474
vt 0.457846 0.130000
vt 0.111111 1.000000
vt 0.111111 0.500000
vt 0.000000 0.500000
vt 0.904269 0.433851
vt 0.667915 0.024474
vt 0.513646 0.291676
vt 0.131788 0.724138
vt 0.131788 0.750000
vt 0.125000 0.724138
vt 0.565000 0.993213
vt 0.625000 0.993213
vt 0.565000 1.000000
vt 0.131788 0.525862
vt 0.125000 0.525862
vt 0.131788 0.500000
vt 0.625000 0.250981
vt 0.565000 0.256788
vt 0.565000 0.224852
vt 0.368212 0.724138
vt 0.433344 0.724138
vt 0.408979 0.754143
vt 0.630750 0.729127
vt 0.565000 0.756788
vt 0.565000 0.724852
vt 0.368212 0.525862
vt 0.408979 0.495857
vt 0.433344 0.525862
vt 0.630750 0.520959
vt 0.565000 0.525862
vt 0.565000 0.493258
vt 0.435000 0.000000
vt 0.565000 0.025862
vt 0.435000 0.025862
vt 0.625000 0.025862
vt 0.435000 0.256788
vt 0.435000 0.224138
vt 0.435000 0.993212
vt 0.868212 0.525862
vt 0.131974 0.724138
vt 0.131974 0.750000
vt 0.125000 0.724138
vt 0.565000 0.993026
vt 0.625000 0.993026
vt 0.131974 0.525862
vt 0.125000 0.525862
vt 0.131974 0.500000
vt 0.625000 0.250998
vt 0.565000 0.256974
vt 0.565000 0.224852
vt 0.368026 0.724138
vt 0.433344 0.724138
vt 0.408917 0.754258
vt 0.630909 0.729153
vt 0.565000 0.756974
vt 0.565000 0.724852
vt 0.368026 0.525862
vt 0.408917 0.495742
vt 0.433344 0.525862
vt 0.630909 0.520936
vt 0.565000 0.525862
vt 0.565000 0.493074
vt 0.565000 0.000000
vt 0.435000 0.025862
vt 0.565000 0.025862
vt 0.625000 0.025862
vt 0.435000 0.224138
vt 0.435000 0.993026
vt 0.868026 0.724138
vt 0.435000 0.256974
vt 0.131692 0.724138
vt 0.131692 0.750000
vt 0.125000 0.724138
vt 0.565000 0.993308
vt 0.625000 0.993308
vt 0.131692 0.525862
vt 0.125000 0.525862
vt 0.131692 0.500000
vt 0.625000 0.250972
vt 0.565000 0.256692
vt 0.368308 0.724138
vt 0.433344 0.724138
vt 0.409012 0.754084
vt 0.630669 0.729114
vt 0.565000 0.756691
vt 0.368308 0.525862
vt 0.409012 0.495916
vt 0.630669 0.520971
vt 0.565000 0.493353
vt 0.435000 0.256692
vt 0.435000 0.993308
vt 0.868308 0.724138
vt 0.555556 1.000000
vt 0.457846 0.130000
vt 0.222222 1.000000
vt 0.250000 0.490000
vt 0.167915 0.024474
vt 0.457846 0.130000
vt 0.000000 1.000000
vt 0.667915 0.024474
vt 0.750000 0.490000
vt 0.853580 0.411174
vt 0.750000 0.441587
vt 0.378995 0.450720
vt 0.250000 0.459984
vt 0.363526 0.426650
vt 0.879754 0.451901
vt 0.924274 0.329588
vt 0.441008 0.337231
vt 0.467035 0.349117
vt 0.987557 0.215844
vt 0.968312 0.349700
vt 0.486168 0.216044
vt 0.457847 0.220116
vt 0.931380 0.092833
vt 0.939637 0.222734
vt 0.430319 0.093753
vt 0.408695 0.112490
vt 0.803976 0.066173
vt 0.894792 0.124537
vt 0.309159 0.048522
vt 0.317220 0.021069
vt 0.682384 0.019722
vt 0.817616 0.019722
vt 0.182780 0.021069
vt 0.190841 0.048522
vt 0.568620 0.092833
vt 0.696024 0.066173
vt 0.091305 0.112490
vt 0.069681 0.093753
vt 0.512443 0.215844
vt 0.605208 0.124537
vt 0.013832 0.216044
vt 0.042153 0.220116
vt 0.575726 0.329588
vt 0.560363 0.222734
vt 0.058992 0.337231
vt 0.032965 0.349116
vt 0.531688 0.349700
vt 0.646420 0.411174
vt 0.121005 0.450720
vt 0.136474 0.426650
vt 0.620246 0.451901
vt 0.250000 0.488596
vt 1.000000 0.596959
vt 0.909091 0.903041
vt 0.909091 0.596959
vt 0.090909 0.596959
vt -0.000000 0.903041
vt -0.000000 0.596959
vt 0.818182 0.903041
vt 0.818182 0.596959
vt 0.727273 0.596959
vt 0.727273 0.903041
vt 0.636364 0.596959
vt 0.636364 0.903041
vt 0.545454 0.596959
vt 0.454545 0.903041
vt 0.454545 0.596959
vt 0.363636 0.596959
vt 0.272727 0.903041
vt 0.272727 0.596959
vt 0.181818 0.596959
vt 0.181818 0.903041
vt 0.909091 0.500000
vt 0.909091 1.000000
vt 0.818182 0.500000
vt 0.818182 1.000000
vt 0.727273 0.500000
vt 0.727273 1.000000
vt 0.636364 0.500000
vt 0.636364 1.000000
vt 0.545454 0.500000
vt 0.545454 1.000000
vt 0.454545 0.500000
vt 0.454545 1.000000
vt 0.363636 0.500000
vt 0.363636 1.000000
vt 0.272727 0.500000
vt 0.272727 1.000000
vt 0.181818 0.500000
vt 0.068620 0.092833
vt 0.487557 0.215844
vt 0.181818 1.000000
vt 0.090909 0.500000
vt 0.090909 1.000000
vt -0.000000 0.500000
vt 0.879754 0.451901
vt 0.817616 0.019722
vt 0.531688 0.349700
vt 0.750000 0.409731
vt 0.685268 0.466439
vt 0.814733 0.466439
vt 0.250000 0.436487
vt 0.300395 0.467472
vt 0.199605 0.467472
vt 0.852673 0.372361
vt 0.839536 0.457411
vt 0.938713 0.374193
vt 0.369872 0.392857
vt 0.428393 0.384200
vt 0.351183 0.448987
vt 0.907304 0.277737
vt 0.951910 0.351333
vt 0.974392 0.223835
vt 0.433654 0.282383
vt 0.472919 0.238134
vt 0.455417 0.337393
vt 0.888331 0.170135
vt 0.969808 0.197840
vt 0.905076 0.085720
vt 0.411503 0.156756
vt 0.413139 0.097620
vt 0.463534 0.184907
vt 0.804631 0.099902
vt 0.884855 0.068753
vt 0.763198 0.024474
vt 0.313782 0.074759
vt 0.277024 0.028407
vt 0.371736 0.062879
vt 0.695369 0.099902
vt 0.736802 0.024474
vt 0.615145 0.068753
vt 0.186218 0.074759
vt 0.128264 0.062879
vt 0.222976 0.028407
vt 0.611669 0.170135
vt 0.594924 0.085720
vt 0.530192 0.197840
vt 0.088498 0.156756
vt 0.036466 0.184907
vt 0.086861 0.097620
vt 0.592696 0.277737
vt 0.525608 0.223835
vt 0.548090 0.351333
vt 0.066346 0.282383
vt 0.044583 0.337393
vt 0.027081 0.238134
vt 0.647327 0.372361
vt 0.561287 0.374193
vt 0.660463 0.457411
vt 0.130128 0.392857
vt 0.148817 0.448987
vt 0.071607 0.384200
vt 0.036462 0.916522
vt 0.000000 0.575926
vt 0.047145 0.583478
vt 0.852427 0.916522
vt 0.936034 0.583478
vt 0.925350 0.916521
vt 0.741316 0.916521
vt 0.824923 0.583478
vt 0.814240 0.916522
vt 0.619522 0.583479
vt 0.703128 0.916522
vt 0.630205 0.916522
vt 0.508410 0.583478
vt 0.592017 0.916522
vt 0.519094 0.916522
vt 0.407983 0.916522
vt 0.491590 0.583478
vt 0.480906 0.916522
vt 0.286188 0.583478
vt 0.369795 0.916522
vt 0.296872 0.916521
vt 0.175077 0.583478
vt 0.258684 0.916522
vt 0.185761 0.916522
vt 0.063966 0.583478
vt 0.147573 0.916522
vt 0.074649 0.916522
vt 0.963538 0.916521
vt 0.952855 0.583479
vt 0.841744 0.583478
vt 0.713812 0.583478
vt 0.730633 0.583478
vt 0.602701 0.583478
vt 0.380478 0.583479
vt 0.397299 0.583479
vt 0.269367 0.583478
vt 0.158256 0.583478
vt 0.750000 0.436487
vt 0.697375 0.463615
vt 0.802625 0.463615
vt 0.250000 0.396352
vt 0.321111 0.464118
vt 0.178889 0.464118
vt 0.869872 0.392857
vt 0.846996 0.447466
vt 0.927623 0.379812
vt 0.344073 0.362112
vt 0.442107 0.368314
vt 0.333158 0.459733
vt 0.933654 0.282383
vt 0.951232 0.338920
vt 0.969508 0.235268
vt 0.394129 0.275414
vt 0.473213 0.217150
vt 0.448516 0.357212
vt 0.911503 0.156756
vt 0.961309 0.188767
vt 0.908684 0.097618
vt 0.376745 0.176824
vt 0.399876 0.081357
vt 0.470987 0.204525
vt 0.813782 0.074759
vt 0.872512 0.067266
vt 0.773609 0.031268
vt 0.300055 0.112474
vt 0.256410 0.024474
vt 0.390055 0.073117
vt 0.686218 0.074759
vt 0.726391 0.031268
vt 0.627488 0.067266
vt 0.199945 0.112474
vt 0.109945 0.073117
vt 0.243590 0.024474
vt 0.588497 0.156756
vt 0.591316 0.097618
vt 0.538691 0.188767
vt 0.123255 0.176824
vt 0.029013 0.204525
vt 0.100124 0.081357
vt 0.566346 0.282383
vt 0.530492 0.235268
vt 0.548768 0.338920
vt 0.105871 0.275414
vt 0.051484 0.357212
vt 0.026787 0.217150
vt 0.630128 0.392857
vt 0.572377 0.379812
vt 0.653004 0.447466
vt 0.155927 0.362112
vt 0.166842 0.459733
vt 0.057893 0.368314
vt 0.038259 0.608250
vt 0.000000 0.907960
vt 0.000000 0.624461
vt 0.837184 0.891750
vt 0.927148 0.608250
vt 0.940593 0.891750
vt 0.739519 0.608250
vt 0.829482 0.891750
vt 0.726073 0.891750
vt 0.628408 0.608250
vt 0.718371 0.891750
vt 0.614962 0.891750
vt 0.517297 0.608250
vt 0.607260 0.891750
vt 0.503851 0.891750
vt 0.406186 0.608250
vt 0.496149 0.891750
vt 0.392740 0.891750
vt 0.295075 0.608250
vt 0.385038 0.891750
vt 0.281629 0.891750
vt 0.183964 0.608250
vt 0.273927 0.891750
vt 0.170518 0.891750
vt 0.072852 0.608250
vt 0.162816 0.891750
vt 0.059406 0.891750
vt 0.948295 0.891750
vt 0.961741 0.608250
vt 0.816036 0.608250
vt 0.850630 0.608250
vt 0.704925 0.608250
vt 0.593814 0.608250
vt 0.482703 0.608250
vt 0.371592 0.608250
vt 0.260481 0.608250
vt 0.149370 0.608250
vt 0.130000 0.690000
vt 0.130000 0.750000
vt 0.125000 0.690000
vt 0.622765 0.995000
vt 0.625000 0.995000
vt 0.622765 1.000000
vt 0.130000 0.560000
vt 0.125000 0.560000
vt 0.130000 0.500000
vt 0.625000 0.252227
vt 0.622765 0.255000
vt 0.622765 0.190131
vt 0.370000 0.690000
vt 0.377230 0.690000
vt 0.377144 0.754937
vt 0.628045 0.715417
vt 0.622765 0.755000
vt 0.622765 0.690131
vt 0.370000 0.560000
vt 0.377144 0.495063
vt 0.377230 0.560000
vt 0.628045 0.534903
vt 0.622765 0.560000
vt 0.622765 0.495001
vt 0.377235 0.000000
vt 0.622765 0.060000
vt 0.377235 0.060000
vt 0.625000 0.060000
vt 0.377235 0.255000
vt 0.377235 0.190000
vt 0.377235 0.995000
vt 0.870000 0.560000
vt 0.130000 0.750000
vt 0.622803 0.995000
vt 0.622803 1.000000
vt 0.125000 0.560000
vt 0.622803 0.255000
vt 0.622803 0.190129
vt 0.370000 0.690000
vt 0.377193 0.690000
vt 0.377109 0.754939
vt 0.628045 0.715417
vt 0.622803 0.755000
vt 0.622803 0.690129
vt 0.370000 0.560000
vt 0.377109 0.495061
vt 0.377193 0.560000
vt 0.622803 0.560000
vt 0.622803 0.495001
vt 0.377197 0.000000
vt 0.622803 0.060000
vt 0.377197 0.060000
vt 0.377197 0.190000
vt 0.377197 0.995000
vt 0.870000 0.690000
vt 0.377197 0.255000
vt 0.622780 0.995000
vt 0.625000 0.995000
vt 0.622780 1.000000
vt 0.130000 0.560000
vt 0.125000 0.560000
vt 0.625000 0.252227
vt 0.622780 0.255000
vt 0.622780 0.190130
vt 0.377215 0.690000
vt 0.377130 0.754938
vt 0.622780 0.755000
vt 0.622780 0.690130
vt 0.377130 0.495062
vt 0.377215 0.560000
vt 0.628045 0.534903
vt 0.622780 0.560000
vt 0.622780 0.495001
vt 0.622780 0.000000
vt 0.377220 0.060000
vt 0.377220 0.000000
vt 0.625000 0.060000
vt 0.622780 0.060000
vt 0.377220 0.190000
vt 0.377220 0.995000
vt 0.377220 0.255000
vt 0.181819 0.000000
vt 0.227273 0.078731
vt 0.136365 0.078731
vt 0.272728 0.157461
vt 0.318182 0.078731
vt 0.363637 0.157461
vt 0.909091 0.000000
vt 0.954545 0.078731
vt 0.863636 0.078731
vt 0.727273 0.000000
vt 0.772727 0.078731
vt 0.681818 0.078731
vt 0.545455 0.000000
vt 0.590909 0.078731
vt 0.500000 0.078731
vt 0.318182 0.236191
vt 0.090910 0.157461
vt 0.181819 0.157461
vt 0.136365 0.236191
vt 0.818182 0.157461
vt 0.909091 0.157461
vt 0.863636 0.236191
vt 0.636364 0.157461
vt 0.727273 0.157461
vt 0.681818 0.236191
vt 0.454546 0.157461
vt 0.545455 0.157461
vt 0.500000 0.236191
vt 0.227273 0.236191
vt 0.045455 0.236191
vt 0.772727 0.236191
vt 0.590909 0.236191
vt 0.409092 0.236191
vt 0.181819 0.314921
vt 0.272728 0.314921
vt 0.227273 0.393651
vt 0.000000 0.314921
vt 0.090910 0.314921
vt 0.045455 0.393651
vt 0.727273 0.314921
vt 0.818182 0.314921
vt 0.772727 0.393651
vt 0.545455 0.314921
vt 0.636364 0.314921
vt 0.590909 0.393651
vt 0.363637 0.314921
vt 0.454546 0.314921
vt 0.409092 0.393651
vt 0.500000 0.393651
vt 0.454546 0.472382
vt 0.681818 0.393651
vt 0.636364 0.472382
vt 0.863636 0.393651
vt 0.818182 0.472382
vt 0.909091 0.314921
vt 0.136365 0.393651
vt 0.090910 0.472382
vt 0.318182 0.393651
vt 0.272728 0.472382
vt 0.954545 0.236191
vt 1.000000 0.157461
vt 0.409092 0.078731
vt 0.363637 0.000000
vt 0.483983 0.196595
vt 0.437640 0.399638
vt 0.062360 0.399638
vt 0.145868 0.033767
vt 0.562360 0.399638
vt 0.750000 0.490000
vt 0.983983 0.196595
vt 0.645868 0.033767
vt 0.486354 0.291676
vt 0.404269 0.433851
vt 0.095731 0.433851
vt 0.013646 0.291676
vt 0.042154 0.130000
vt 0.332085 0.024474
vt 0.595731 0.433851
vt 0.986354 0.291676
vt 0.957846 0.130000
vt 0.832085 0.024474
vt 0.542154 0.130000
vt 0.868212 0.724138
vt 0.868026 0.525862
vt 0.868308 0.525862
vt 0.042154 0.130000
vt 0.957846 0.130000
vt 0.542154 0.130000
vt 0.042154 0.130000
vt 0.332085 0.024474
vt 0.750000 0.490000
vt 0.957846 0.130000
vt 0.832085 0.024474
vt 0.542154 0.130000
vt 1.000000 0.903041
vt 0.090909 0.903041
vt 0.545454 0.903041
vt 0.363636 0.903041
vt 0.468312 0.349700
vt 0.379754 0.451901
vt 0.120246 0.451901
vt 0.031688 0.349700
vt 0.012443 0.215844
vt 0.182384 0.019722
vt 0.317616 0.019722
vt 0.431380 0.092833
vt -0.000000 1.000000
vt 0.968312 0.349700
vt 0.987557 0.215844
vt 0.682384 0.019722
vt 0.568620 0.092833
vt 0.000000 0.908969
vt 0.051705 0.891750
vt 0.622765 0.000000
vt 0.622803 0.000000
vt 0.870000 0.690000
s 0
usemtl wood
f 1/1/1 4/2/1 3/3/1
f 3/3/2 6/4/2 5/5/2
f 6/4/3 7/6/3 5/5/3
f 7/6/4 10/7/4 9/8/4
f 10/7/5 11/9/5 9/8/5
f 2/10/6 12/11/6 8/12/6
f 11/9/7 14/13/7 13/14/7
f 14/13/8 1/15/8 13/14/8
f 3/16/9 7/17/9 11/18/9
f 15/1/10 18/2/10 17/3/10
f 18/2/11 19/5/11 17/3/11
f 20/4/12 21/6/12 19/5/12
f 22/19/13 23/8/13 21/6/13
f 24/7/14 25/9/14 23/8/14
f 16/10/15 26/11/15 22/12/15
f 26/20/16 27/14/16 25/9/16
f 27/14/17 16/21/17 15/15/17
f 17/16/18 21/17/18 25/18/18
f 30/22/19 31/3/19 29/1/19
f 32/2/20 33/5/20 31/3/20
f 34/4/21 35/6/21 33/5/21
f 35/6/22 38/7/22 37/8/22
f 38/7/23 39/9/23 37/8/23
f 30/10/24 40/11/24 36/12/24
f 40/20/25 41/14/25 39/9/25
f 42/13/26 29/15/26 41/14/26
f 31/16/27 35/17/27 39/18/27
f 61/43/39 62/44/39 63/45/39
f 64/46/40 65/47/40 66/48/40
f 67/49/41 68/50/41 69/51/41
f 70/52/42 71/53/42 72/54/42
f 73/55/43 74/56/43 75/57/43
f 76/58/44 77/59/44 78/60/44
f 79/61/45 80/62/45 81/63/45
f 82/64/46 83/65/46 84/66/46
f 61/43/47 68/50/47 67/49/47
f 62/67/48 66/68/48 63/69/48
f 65/70/49 72/54/49 66/68/49
f 69/71/50 72/54/50 71/53/50
f 79/61/51 69/51/51 80/62/51
f 70/52/52 84/66/52 71/53/52
f 81/63/53 84/66/53 83/65/53
f 73/55/54 81/63/54 74/56/54
f 82/64/55 78/60/55 83/65/55
f 77/59/56 74/56/56 78/60/56
f 61/43/57 75/57/57 62/44/57
f 65/47/58 77/59/58 76/58/58
f 67/49/59 73/55/59 61/43/59
f 63/69/60 72/54/60 68/72/60
f 77/59/61 62/73/61 75/57/61
f 70/74/62 76/58/62 82/64/62
f 71/53/63 80/62/63 69/71/63
f 81/63/64 78/60/64 74/56/64
f 85/75/65 86/76/65 87/77/65
f 88/78/66 89/79/66 90/48/66
f 91/80/67 92/81/67 93/82/67
f 94/83/68 95/84/68 96/85/68
f 97/86/69 98/87/69 99/88/69
f 100/89/70 101/90/70 102/91/70
f 103/92/71 104/93/71 105/94/71
f 106/95/72 107/96/72 108/97/72
f 91/80/73 87/77/73 92/81/73
f 88/98/74 87/99/74 86/67/74
f 94/83/75 90/100/75 89/101/75
f 95/84/76 92/102/76 96/85/76
f 91/80/77 104/93/77 103/92/77
f 106/95/78 95/84/78 94/83/78
f 107/96/79 104/93/79 108/97/79
f 97/86/80 105/94/80 98/87/80
f 106/95/81 102/91/81 107/96/81
f 101/90/82 98/87/82 102/91/82
f 97/86/83 86/76/83 85/75/83
f 89/79/84 101/90/84 100/89/84
f 103/92/85 85/75/85 91/80/85
f 90/100/86 92/102/86 87/99/86
f 101/90/87 86/103/87 99/88/87
f 106/95/88 89/104/88 100/89/88
f 95/84/89 104/93/89 93/105/89
f 105/94/90 102/91/90 98/87/90
f 109/106/91 110/107/91 111/108/91
f 112/109/92 113/110/92 114/48/92
f 115/111/93 116/112/93 117/113/93
f 118/114/94 119/115/94 120/54/94
f 121/116/95 122/117/95 123/118/95
f 124/119/96 125/120/96 126/60/96
f 127/121/97 128/122/97 129/63/97
f 130/123/98 131/65/98 132/124/98
f 115/111/99 111/108/99 116/112/99
f 112/98/100 111/69/100 110/67/100
f 118/114/101 114/68/101 113/70/101
f 117/125/102 120/54/102 119/115/102
f 115/111/103 128/122/103 127/121/103
f 130/123/104 119/115/104 118/114/104
f 131/65/105 128/122/105 132/124/105
f 121/116/106 129/63/106 122/117/106
f 130/123/107 126/60/107 131/65/107
f 123/118/108 126/60/108 125/120/108
f 121/116/109 110/107/109 109/106/109
f 113/110/110 125/120/110 124/119/110
f 127/121/111 109/106/111 115/111/111
f 114/68/112 116/72/112 111/69/112
f 125/120/113 110/126/113 123/118/113
f 130/123/114 113/127/114 124/119/114
f 119/115/115 128/122/115 117/125/115
f 129/63/116 126/60/116 122/117/116
f 1/1/1 2/22/1 4/2/1
f 3/3/2 4/2/2 6/4/2
f 6/4/3 8/19/3 7/6/3
f 7/6/4 8/19/4 10/7/4
f 10/7/5 12/20/5 11/9/5
f 6/552/6 4/553/6 2/10/6
f 2/10/6 14/554/6 12/11/6
f 12/11/6 10/555/6 8/12/6
f 8/12/6 6/552/6 2/10/6
f 11/9/7 12/20/7 14/13/7
f 14/13/8 2/21/8 1/15/8
f 13/556/9 1/557/9 3/16/9
f 3/16/9 5/558/9 7/17/9
f 7/17/9 9/559/9 11/18/9
f 11/18/9 13/556/9 3/16/9
f 15/1/10 16/22/10 18/2/10
f 18/2/11 20/4/11 19/5/11
f 20/4/12 22/19/12 21/6/12
f 22/19/13 24/7/13 23/8/13
f 24/7/14 26/20/14 25/9/14
f 20/552/15 18/553/15 16/10/15
f 16/10/15 28/554/15 26/11/15
f 26/11/15 24/555/15 22/12/15
f 22/12/15 20/552/15 16/10/15
f 26/20/16 28/13/16 27/14/16
f 27/14/17 28/13/17 16/21/17
f 27/556/18 15/557/18 17/16/18
f 17/16/18 19/558/18 21/17/18
f 21/17/18 23/559/18 25/18/18
f 25/18/18 27/556/18 17/16/18
f 30/22/19 32/2/19 31/3/19
f 32/2/20 34/4/20 33/5/20
f 34/4/21 36/19/21 35/6/21
f 35/6/22 36/19/22 38/7/22
f 38/7/23 40/20/23 39/9/23
f 34/552/24 32/553/24 30/10/24
f 30/10/24 42/554/24 40/11/24
f 40/11/24 38/555/24 36/12/24
f 36/12/24 34/552/24 30/10/24
f 40/20/25 42/13/25 41/14/25
f 42/13/26 30/21/26 29/15/26
f 41/556/27 29/557/27 31/16/27
f 31/16/27 33/558/27 35/17/27
f 35/17/27 37/559/27 39/18/27
f 39/18/27 41/556/27 31/16/27
f 61/43/47 63/45/47 68/50/47
f 62/67/48 64/98/48 66/68/48
f 65/70/49 70/52/49 72/54/49
f 69/71/50 68/72/50 72/54/50
f 79/61/51 67/49/51 69/51/51
f 70/52/52 82/64/52 84/66/52
f 81/63/53 80/62/53 84/66/53
f 73/55/54 79/61/54 81/63/54
f 82/64/55 76/58/55 78/60/55
f 77/59/56 75/57/56 74/56/56
f 61/43/57 73/55/57 75/57/57
f 65/47/58 64/46/58 77/59/58
f 67/49/59 79/61/59 73/55/59
f 63/69/60 66/68/60 72/54/60
f 77/59/61 64/46/61 62/73/61
f 70/74/62 65/571/62 76/58/62
f 71/53/63 84/66/63 80/62/63
f 81/63/64 83/65/64 78/60/64
f 91/80/73 85/75/73 87/77/73
f 88/98/74 90/100/74 87/99/74
f 94/83/75 96/85/75 90/100/75
f 95/84/76 93/105/76 92/102/76
f 91/80/77 93/82/77 104/93/77
f 106/95/78 108/97/78 95/84/78
f 107/96/79 105/94/79 104/93/79
f 97/86/80 103/92/80 105/94/80
f 106/95/81 100/89/81 102/91/81
f 101/90/82 99/88/82 98/87/82
f 97/86/83 99/88/83 86/76/83
f 89/79/84 88/78/84 101/90/84
f 103/92/85 97/86/85 85/75/85
f 90/100/86 96/85/86 92/102/86
f 101/90/87 88/78/87 86/103/87
f 106/95/88 94/572/88 89/104/88
f 95/84/89 108/97/89 104/93/89
f 105/94/90 107/96/90 102/91/90
f 115/111/99 109/106/99 111/108/99
f 112/98/100 114/68/100 111/69/100
f 118/114/101 120/54/101 114/68/101
f 117/125/102 116/72/102 120/54/102
f 115/111/103 117/113/103 128/122/103
f 130/123/104 132/124/104 119/115/104
f 131/65/105 129/63/105 128/122/105
f 121/116/106 127/121/106 129/63/106
f 130/123/107 124/119/107 126/60/107
f 123/118/108 122/117/108 126/60/108
f 121/116/109 123/118/109 110/107/109
f 113/110/110 112/109/110 125/120/110
f 127/121/111 121/116/111 109/106/111
f 114/68/112 120/54/112 116/72/112
f 125/120/113 112/109/113 110/126/113
f 130/123/114 118/573/114 113/127/114
f 119/115/115 132/124/115 128/122/115
f 129/63/116 131/65/116 126/60/116
usemtl cord
f 43/1/28 46/23/28 45/24/28
f 45/24/29 48/25/29 47/26/29
f 48/25/30 49/27/30 47/26/30
f 50/28/31 51/29/31 49/27/31
f 51/29/32 54/30/32 53/31/32
f 53/31/33 56/32/33 55/33/33
f 56/32/34 57/34/34 55/33/34
f 44/10/35 54/35/35 50/36/35
f 57/34/36 60/37/36 59/38/36
f 60/37/37 43/39/37 59/38/37
f 45/40/38 53/41/38 57/42/38
f 133/1/117 136/23/117 135/24/117
f 135/24/118 138/25/118 137/26/118
f 137/26/119 140/28/119 139/27/119
f 139/27/120 142/128/120 141/29/120
f 142/128/121 143/31/121 141/29/121
f 143/31/122 146/32/122 145/33/122
f 146/32/123 147/34/123 145/33/123
f 134/10/124 144/35/124 140/129/124
f 148/130/125 149/38/125 147/34/125
f 150/37/126 133/39/126 149/38/126
f 135/40/127 143/41/127 147/42/127
f 152/22/128 153/24/128 151/1/128
f 154/23/129 155/26/129 153/24/129
f 156/25/130 157/27/130 155/26/130
f 158/28/131 159/29/131 157/27/131
f 160/128/132 161/31/132 159/29/132
f 162/30/133 163/33/133 161/31/133
f 164/32/134 165/34/134 163/33/134
f 152/131/135 162/132/135 158/133/135
f 166/130/136 167/38/136 165/34/136
f 167/38/137 152/134/137 151/39/137
f 153/40/138 161/135/138 165/42/138
f 170/22/139 171/24/139 169/1/139
f 171/24/140 174/25/140 173/26/140
f 173/26/141 176/28/141 175/27/141
f 175/27/142 178/128/142 177/29/142
f 178/128/143 179/31/143 177/29/143
f 179/31/144 182/32/144 181/33/144
f 181/33/145 184/130/145 183/34/145
f 170/10/146 180/35/146 176/129/146
f 184/130/147 185/38/147 183/34/147
f 186/37/148 169/39/148 185/38/148
f 171/40/149 179/41/149 183/42/149
f 187/1/150 190/23/150 189/24/150
f 190/23/151 191/26/151 189/24/151
f 191/26/152 194/28/152 193/27/152
f 193/27/153 196/128/153 195/29/153
f 195/29/154 198/30/154 197/31/154
f 198/30/155 199/33/155 197/31/155
f 199/33/156 202/130/156 201/34/156
f 188/131/157 198/132/157 194/133/157
f 201/34/158 204/37/158 203/38/158
f 203/38/159 188/134/159 187/39/159
f 189/40/160 197/135/160 201/42/160
f 205/1/161 208/23/161 207/24/161
f 208/23/162 209/26/162 207/24/162
f 210/25/163 211/27/163 209/26/163
f 212/28/164 213/29/164 211/27/164
f 213/29/165 216/30/165 215/31/165
f 215/31/166 218/32/166 217/33/166
f 218/32/167 219/34/167 217/33/167
f 206/10/168 216/35/168 212/129/168
f 220/130/169 221/38/169 219/34/169
f 222/37/170 205/39/170 221/38/170
f 207/40/171 215/41/171 219/42/171
f 224/22/172 225/24/172 223/1/172
f 225/24/173 228/25/173 227/26/173
f 228/25/174 229/27/174 227/26/174
f 230/28/175 231/29/175 229/27/175
f 232/128/176 233/31/176 231/29/176
f 234/30/177 235/33/177 233/31/177
f 235/33/178 238/130/178 237/34/178
f 224/131/179 234/132/179 230/133/179
f 238/130/180 239/38/180 237/34/180
f 240/37/181 223/39/181 239/38/181
f 225/40/182 233/135/182 237/42/182
f 43/1/28 44/22/28 46/23/28
f 45/24/29 46/23/29 48/25/29
f 48/25/30 50/28/30 49/27/30
f 50/28/31 52/128/31 51/29/31
f 51/29/32 52/128/32 54/30/32
f 53/31/33 54/30/33 56/32/33
f 56/32/34 58/130/34 57/34/34
f 48/560/35 46/561/35 44/10/35
f 44/10/35 60/562/35 58/563/35
f 58/563/35 56/564/35 54/35/35
f 54/35/35 52/565/35 50/36/35
f 50/36/35 48/560/35 44/10/35
f 44/10/35 58/563/35 54/35/35
f 57/34/36 58/130/36 60/37/36
f 60/37/512 44/134/512 43/39/512
f 59/566/38 43/557/38 45/40/38
f 45/40/38 47/567/38 49/568/38
f 49/568/38 51/569/38 53/41/38
f 53/41/38 55/570/38 57/42/38
f 57/42/38 59/566/38 45/40/38
f 45/40/38 49/568/38 53/41/38
f 133/1/117 134/22/117 136/23/117
f 135/24/118 136/23/118 138/25/118
f 137/26/119 138/25/119 140/28/119
f 139/27/120 140/28/120 142/128/120
f 142/128/121 144/30/121 143/31/121
f 143/31/122 144/30/122 146/32/122
f 146/32/123 148/130/123 147/34/123
f 138/560/124 136/561/124 134/10/124
f 134/10/124 150/562/124 148/563/124
f 148/563/124 146/574/124 144/35/124
f 144/35/124 142/565/124 140/129/124
f 140/129/124 138/560/124 134/10/124
f 134/10/124 148/563/124 144/35/124
f 148/130/125 150/37/125 149/38/125
f 150/37/126 134/134/126 133/39/126
f 149/566/127 133/557/127 135/40/127
f 135/40/127 137/567/127 139/575/127
f 139/575/127 141/569/127 143/41/127
f 143/41/127 145/576/127 147/42/127
f 147/42/127 149/566/127 135/40/127
f 135/40/127 139/575/127 143/41/127
f 152/22/128 154/23/128 153/24/128
f 154/23/129 156/25/129 155/26/129
f 156/25/130 158/28/130 157/27/130
f 158/28/131 160/128/131 159/29/131
f 160/128/132 162/30/132 161/31/132
f 162/30/133 164/32/133 163/33/133
f 164/32/134 166/130/134 165/34/134
f 156/560/135 154/561/135 152/131/135
f 152/131/135 168/562/135 166/563/135
f 166/563/135 164/577/135 162/132/135
f 162/132/135 160/578/135 158/133/135
f 158/133/135 156/560/135 152/131/135
f 152/131/135 166/563/135 162/132/135
f 166/130/136 168/37/136 167/38/136
f 167/38/137 168/37/137 152/134/137
f 167/566/138 151/579/138 153/40/138
f 153/40/138 155/567/138 157/580/138
f 157/580/138 159/581/138 161/135/138
f 161/135/138 163/582/138 165/42/138
f 165/42/138 167/566/138 153/40/138
f 153/40/138 157/580/138 161/135/138
f 170/22/139 172/23/139 171/24/139
f 171/24/140 172/23/140 174/25/140
f 173/26/141 174/25/141 176/28/141
f 175/27/142 176/28/142 178/128/142
f 178/128/143 180/30/143 179/31/143
f 179/31/144 180/30/144 182/32/144
f 181/33/145 182/32/145 184/130/145
f 174/560/146 172/561/146 170/10/146
f 170/10/146 186/562/146 184/563/146
f 184/563/146 182/574/146 180/35/146
f 180/35/146 178/565/146 176/129/146
f 176/129/146 174/560/146 170/10/146
f 170/10/146 184/563/146 180/35/146
f 184/130/147 186/37/147 185/38/147
f 186/37/148 170/134/148 169/39/148
f 185/566/149 169/557/149 171/40/149
f 171/40/149 173/567/149 175/575/149
f 175/575/149 177/569/149 179/41/149
f 179/41/149 181/576/149 183/42/149
f 183/42/149 185/566/149 171/40/149
f 171/40/149 175/575/149 179/41/149
f 187/1/150 188/22/150 190/23/150
f 190/23/151 192/25/151 191/26/151
f 191/26/152 192/25/152 194/28/152
f 193/27/153 194/28/153 196/128/153
f 195/29/154 196/128/154 198/30/154
f 198/30/155 200/32/155 199/33/155
f 199/33/156 200/32/156 202/130/156
f 192/560/157 190/561/157 188/131/157
f 188/131/157 204/562/157 202/563/157
f 202/563/157 200/577/157 198/132/157
f 198/132/157 196/578/157 194/133/157
f 194/133/157 192/560/157 188/131/157
f 188/131/157 202/563/157 198/132/157
f 201/34/158 202/130/158 204/37/158
f 203/38/159 204/37/159 188/134/159
f 203/566/160 187/579/160 189/40/160
f 189/40/160 191/567/160 193/580/160
f 193/580/160 195/581/160 197/135/160
f 197/135/160 199/582/160 201/42/160
f 201/42/160 203/566/160 189/40/160
f 189/40/160 193/580/160 197/135/160
f 205/1/161 206/22/161 208/23/161
f 208/23/162 210/25/162 209/26/162
f 210/25/163 212/28/163 211/27/163
f 212/28/164 214/128/164 213/29/164
f 213/29/165 214/128/165 216/30/165
f 215/31/166 216/30/166 218/32/166
f 218/32/167 220/130/167 219/34/167
f 210/560/168 208/561/168 206/10/168
f 206/10/168 222/562/168 220/563/168
f 220/563/168 218/574/168 216/35/168
f 216/35/168 214/565/168 212/129/168
f 212/129/168 210/560/168 206/10/168
f 206/10/168 220/563/168 216/35/168
f 220/130/169 222/37/169 221/38/169
f 222/37/170 206/134/170 205/39/170
f 221/566/171 205/557/171 207/40/171
f 207/40/171 209/567/171 211/575/171
f 211/575/171 213/569/171 215/41/171
f 215/41/171 217/576/171 219/42/171
f 219/42/171 221/566/171 207/40/171
f 207/40/171 211/575/171 215/41/171
f 224/22/172 226/23/172 225/24/172
f 225/24/173 226/23/173 228/25/173
f 228/25/174 230/28/174 229/27/174
f 230/28/175 232/128/175 231/29/175
f 232/128/176 234/30/176 233/31/176
f 234/30/177 236/32/177 235/33/177
f 235/33/178 236/32/178 238/130/178
f 228/560/179 226/561/179 224/131/179
f 224/131/179 240/562/179 238/563/179
f 238/563/179 236/577/179 234/132/179
f 234/132/179 232/578/179 230/133/179
f 230/133/179 228/560/179 224/131/179
f 224/131/179 238/563/179 234/132/179
f 238/130/180 240/37/180 239/38/180
f 240/37/181 224/134/181 223/39/181
f 239/566/182 223/579/182 225/40/182
f 225/40/182 227/567/182 229/580/182
f 229/580/182 231/581/182 233/135/182
f 233/135/182 235/582/182 237/42/182
f 237/42/182 239/566/182 225/40/182
f 225/40/182 229/580/182 233/135/182
usemtl clay
f 242/136/183 245/137/183 241/138/183
f 248/139/184 243/140/184 247/141/184
f 246/142/185 249/143/185 245/137/185
f 248/139/186 251/144/186 252/145/186
f 254/146/187 249/143/187 250/147/187
f 256/148/188 251/144/188 255/149/188
f 258/150/189 253/151/189 254/146/189
f 260/152/190 255/149/190 259/153/190
f 258/150/191 261/154/191 257/155/191
f 260/152/192 263/156/192 264/157/192
f 266/158/193 261/154/193 262/159/193
f 268/160/194 263/156/194 267/161/194
f 270/162/195 265/163/195 266/158/195
f 268/160/196 271/164/196 272/165/196
f 274/166/197 269/167/197 270/162/197
f 276/168/198 271/164/198 275/169/198
f 274/166/199 277/170/199 273/171/199
f 276/168/200 279/172/200 280/173/200
f 278/174/201 281/175/201 277/170/201
f 284/176/202 279/172/202 283/177/202
f 282/178/203 241/138/203 281/175/203
f 244/179/204 283/177/204 243/140/204
f 245/137/205 261/154/205 277/170/205
f 242/180/206 248/181/206 246/182/206
f 282/183/207 244/184/207 242/185/207
f 243/140/208 271/164/208 255/149/208
f 246/182/209 252/186/209 250/187/209
f 252/186/210 254/188/210 250/187/210
f 256/189/211 258/190/211 254/188/211
f 260/191/212 262/192/212 258/190/212
f 262/192/213 268/193/213 266/194/213
f 268/193/214 270/195/214 266/194/214
f 270/195/215 276/196/215 274/197/215
f 276/196/216 278/198/216 274/197/216
f 280/199/217 282/183/217 278/198/217
f 286/22/218 287/200/218 285/1/218
f 288/201/219 289/202/219 287/200/219
f 290/203/220 291/204/220 289/202/220
f 292/205/221 293/206/221 291/204/221
f 294/207/222 295/208/222 293/206/222
f 296/209/223 297/210/223 295/208/223
f 298/211/224 299/212/224 297/210/224
f 300/213/225 301/214/225 299/212/225
f 302/215/226 303/216/226 301/214/226
f 286/10/227 300/217/227 292/218/227
f 304/219/228 305/220/228 303/216/228
f 306/221/229 285/222/229 305/220/229
f 287/223/230 295/224/230 303/225/230
f 307/226/231 308/227/231 309/228/231
f 310/229/232 311/230/232 312/231/232
f 313/232/233 314/233/233 315/234/233
f 316/235/234 317/236/234 318/237/234
f 319/238/235 320/239/235 321/240/235
f 322/241/236 323/242/236 324/243/236
f 325/244/237 326/245/237 327/246/237
f 328/247/238 329/248/238 330/249/238
f 331/250/239 332/251/239 333/252/239
f 334/253/240 335/254/240 336/255/240
f 337/256/241 338/257/241 339/258/241
f 340/259/242 341/260/242 342/261/242
f 343/262/243 344/263/243 345/264/243
f 346/265/244 347/266/244 348/267/244
f 349/268/245 350/269/245 351/270/245
f 352/271/246 353/272/246 354/273/246
f 355/274/247 356/275/247 357/276/247
f 358/277/248 359/278/248 360/279/248
f 309/228/249 313/232/249 307/226/249
f 318/237/250 310/229/250 316/235/250
f 312/280/251 309/281/251 308/282/251
f 317/283/252 314/284/252 318/285/252
f 320/239/253 313/232/253 315/234/253
f 324/243/254 316/235/254 322/241/254
f 323/286/255 320/287/255 324/288/255
f 321/240/256 325/244/256 319/238/256
f 323/242/257 328/247/257 330/249/257
f 327/289/258 330/290/258 329/291/258
f 332/251/259 325/244/259 327/246/259
f 336/255/260 328/247/260 334/253/260
f 333/292/261 336/293/261 335/294/261
f 338/257/262 331/250/262 333/252/262
f 342/261/263 334/253/263 340/259/263
f 341/295/264 338/296/264 342/297/264
f 344/263/265 337/256/265 339/258/265
f 348/267/266 340/259/266 346/265/266
f 345/298/267 348/299/267 347/300/267
f 350/269/268 343/262/268 345/264/268
f 354/273/269 346/265/269 352/271/269
f 351/301/270 354/302/270 353/303/270
f 356/275/271 349/268/271 351/270/271
f 353/272/272 358/277/272 360/279/272
f 357/304/273 360/305/273 359/306/273
f 308/227/274 355/274/274 357/276/274
f 312/231/275 358/277/275 310/229/275
f 313/232/276 337/256/276 349/268/276
f 311/307/277 314/284/277 309/308/277
f 359/306/278 308/282/278 357/304/278
f 310/229/279 340/259/279 328/247/279
f 317/283/280 320/287/280 315/309/280
f 323/286/281 326/310/281 321/311/281
f 327/289/282 336/293/282 332/312/282
f 333/292/283 342/297/283 338/296/283
f 341/295/284 344/313/284 339/314/284
f 345/298/285 354/302/285 350/315/285
f 353/303/286 356/316/286 351/301/286
f 361/317/287 362/318/287 363/319/287
f 364/320/288 365/321/288 366/322/288
f 367/323/289 368/324/289 369/325/289
f 370/326/290 371/327/290 372/328/290
f 373/329/291 374/330/291 375/331/291
f 376/332/292 377/333/292 378/334/292
f 379/335/293 380/336/293 381/337/293
f 382/338/294 383/339/294 384/340/294
f 385/341/295 386/342/295 387/343/295
f 388/344/296 389/345/296 390/346/296
f 391/347/297 392/348/297 393/349/297
f 394/350/298 395/351/298 396/352/298
f 397/353/299 398/354/299 399/355/299
f 400/356/300 401/357/300 402/358/300
f 403/359/301 404/360/301 405/361/301
f 406/362/302 407/363/302 408/364/302
f 409/365/303 410/366/303 411/367/303
f 412/368/304 413/369/304 414/370/304
f 368/324/305 361/317/305 363/319/305
f 365/321/306 370/326/306 372/328/306
f 362/371/307 365/372/307 363/373/307
f 371/374/308 368/375/308 372/376/308
f 374/330/309 367/323/309 369/325/309
f 378/334/310 370/326/310 376/332/310
f 375/377/311 378/378/311 377/379/311
f 380/336/312 373/329/312 375/331/312
f 377/333/313 382/338/313 384/340/313
f 381/380/314 384/381/314 383/382/314
f 386/342/315 379/335/315 381/337/315
f 383/339/316 388/344/316 390/346/316
f 387/383/317 390/384/317 389/385/317
f 392/348/318 385/341/318 387/343/318
f 396/352/319 388/344/319 394/350/319
f 393/386/320 396/387/320 395/388/320
f 398/354/321 391/347/321 393/349/321
f 402/358/322 394/350/322 400/356/322
f 399/389/323 402/390/323 401/391/323
f 404/360/324 397/353/324 399/355/324
f 401/357/325 406/362/325 408/364/325
f 405/392/326 408/393/326 407/394/326
f 410/366/327 403/359/327 405/361/327
f 407/363/328 412/368/328 414/370/328
f 411/395/329 414/396/329 413/397/329
f 411/367/330 361/317/330 409/365/330
f 366/322/331 412/368/331 364/320/331
f 367/323/332 391/347/332 403/359/332
f 365/398/333 368/375/333 363/399/333
f 413/397/334 362/371/334 411/395/334
f 364/320/335 394/350/335 382/338/335
f 371/374/336 374/400/336 369/401/336
f 375/377/337 384/381/337 380/402/337
f 381/380/338 390/384/338 386/403/338
f 389/385/339 392/404/339 387/383/339
f 395/388/340 398/405/340 393/386/340
f 399/389/341 408/393/341 404/406/341
f 405/392/342 414/396/342 410/407/342
f 415/1/343 418/23/343 417/24/343
f 418/23/344 419/26/344 417/24/344
f 419/26/345 422/28/345 421/27/345
f 421/27/346 424/128/346 423/29/346
f 423/29/347 426/30/347 425/31/347
f 426/30/348 427/33/348 425/31/348
f 427/33/349 430/130/349 429/34/349
f 416/131/350 426/132/350 422/133/350
f 430/130/351 431/38/351 429/34/351
f 431/38/352 416/134/352 415/39/352
f 417/40/353 425/135/353 429/42/353
f 242/136/183 246/142/183 245/137/183
f 248/139/184 244/179/184 243/140/184
f 246/142/185 250/147/185 249/143/185
f 248/139/186 247/141/186 251/144/186
f 254/146/187 253/151/187 249/143/187
f 256/148/513 252/145/513 251/144/513
f 258/150/189 257/155/189 253/151/189
f 260/152/190 256/148/190 255/149/190
f 258/150/191 262/159/191 261/154/191
f 260/152/192 259/153/192 263/156/192
f 266/158/193 265/163/193 261/154/193
f 268/160/194 264/157/194 263/156/194
f 270/162/195 269/167/195 265/163/195
f 268/160/196 267/161/196 271/164/196
f 274/166/197 273/171/197 269/167/197
f 276/168/198 272/165/198 271/164/198
f 274/166/199 278/174/199 277/170/199
f 276/168/514 275/169/514 279/172/514
f 278/174/201 282/178/201 281/175/201
f 284/176/202 280/173/202 279/172/202
f 282/178/203 242/136/203 241/138/203
f 244/179/204 284/176/204 283/177/204
f 281/175/205 241/138/205 245/137/205
f 245/137/205 249/143/205 253/151/205
f 253/151/205 257/155/205 261/154/205
f 261/154/205 265/163/205 269/167/205
f 269/167/205 273/171/205 277/170/205
f 277/170/205 281/175/205 245/137/205
f 245/137/205 253/151/205 261/154/205
f 261/154/205 269/167/205 277/170/205
f 242/180/206 244/583/206 248/181/206
f 282/183/207 284/584/207 244/184/207
f 251/144/208 247/141/208 243/140/208
f 243/140/208 283/177/208 279/172/208
f 279/172/208 275/169/208 271/164/208
f 271/164/208 267/161/208 263/156/208
f 263/156/208 259/153/208 255/149/208
f 255/149/208 251/144/208 243/140/208
f 243/140/208 279/172/208 271/164/208
f 271/164/208 263/156/208 255/149/208
f 246/182/209 248/181/209 252/186/209
f 252/186/210 256/189/210 254/188/210
f 256/189/211 260/191/211 258/190/211
f 260/191/212 264/585/212 262/192/212
f 262/192/213 264/585/213 268/193/213
f 268/193/214 272/586/214 270/195/214
f 270/195/215 272/586/215 276/196/215
f 276/196/216 280/199/216 278/198/216
f 280/199/217 284/584/217 282/183/217
f 286/22/218 288/201/218 287/200/218
f 288/201/219 290/203/219 289/202/219
f 290/203/220 292/205/220 291/204/220
f 292/205/515 294/207/515 293/206/515
f 294/207/222 296/209/222 295/208/222
f 296/209/223 298/211/223 297/210/223
f 298/211/224 300/213/224 299/212/224
f 300/213/516 302/215/516 301/214/516
f 302/215/226 304/219/226 303/216/226
f 290/587/227 288/588/227 286/10/227
f 286/10/227 306/589/227 304/590/227
f 304/590/227 302/591/227 300/217/227
f 300/217/227 298/592/227 296/593/227
f 296/593/227 294/594/227 292/218/227
f 292/218/227 290/587/227 286/10/227
f 286/10/227 304/590/227 300/217/227
f 300/217/227 296/593/227 292/218/227
f 304/219/228 306/221/228 305/220/228
f 306/221/229 286/595/229 285/222/229
f 305/178/230 285/557/230 287/223/230
f 287/223/230 289/596/230 291/597/230
f 291/597/230 293/150/230 295/224/230
f 295/224/230 297/598/230 299/599/230
f 299/599/230 301/166/230 303/225/230
f 303/225/230 305/178/230 287/223/230
f 287/223/230 291/597/230 295/224/230
f 295/224/230 299/599/230 303/225/230
f 309/228/249 314/233/249 313/232/249
f 318/237/250 311/230/250 310/229/250
f 312/280/251 311/600/251 309/281/251
f 317/283/252 315/309/252 314/284/252
f 320/239/253 319/238/253 313/232/253
f 324/243/254 317/236/254 316/235/254
f 323/286/255 321/311/255 320/287/255
f 321/240/256 326/245/256 325/244/256
f 323/242/257 322/241/257 328/247/257
f 327/289/258 326/310/258 330/290/258
f 332/251/259 331/250/259 325/244/259
f 336/255/260 329/248/260 328/247/260
f 333/292/261 332/312/261 336/293/261
f 338/257/262 337/256/262 331/250/262
f 342/261/263 335/254/263 334/253/263
f 341/295/264 339/314/264 338/296/264
f 344/263/265 343/262/265 337/256/265
f 348/267/266 341/260/266 340/259/266
f 345/298/267 344/313/267 348/299/267
f 350/269/268 349/268/268 343/262/268
f 354/273/269 347/266/269 346/265/269
f 351/301/270 350/315/270 354/302/270
f 356/275/271 355/274/271 349/268/271
f 353/272/272 352/271/272 358/277/272
f 357/304/273 356/316/273 360/305/273
f 308/227/274 307/226/274 355/274/274
f 312/231/275 359/278/275 358/277/275
f 355/274/276 307/226/276 313/232/276
f 313/232/517 319/238/517 325/244/517
f 325/244/276 331/250/276 337/256/276
f 337/256/276 343/262/276 349/268/276
f 349/268/276 355/274/276 313/232/276
f 313/232/276 325/244/276 337/256/276
f 311/307/277 318/285/277 314/284/277
f 359/306/278 312/280/278 308/282/278
f 322/241/279 316/235/279 310/229/279
f 310/229/279 358/277/279 352/271/279
f 352/271/279 346/265/279 340/259/279
f 340/259/279 334/253/279 328/247/279
f 328/247/279 322/241/279 310/229/279
f 310/229/279 352/271/279 340/259/279
f 317/283/280 324/288/280 320/287/280
f 323/286/281 330/290/281 326/310/281
f 327/289/282 329/291/282 336/293/282
f 333/292/283 335/294/283 342/297/283
f 341/295/284 348/299/284 344/313/284
f 345/298/285 347/300/285 354/302/285
f 353/303/286 360/305/286 356/316/286
f 368/324/305 367/323/305 361/317/305
f 365/321/306 364/320/306 370/326/306
f 362/371/307 366/601/307 365/372/307
f 371/374/308 369/401/308 368/375/308
f 374/330/518 373/329/518 367/323/518
f 378/334/310 371/327/310 370/326/310
f 375/377/311 374/400/311 378/378/311
f 380/336/312 379/335/312 373/329/312
f 377/333/313 376/332/313 382/338/313
f 381/380/314 380/402/314 384/381/314
f 386/342/315 385/341/315 379/335/315
f 383/339/316 382/338/316 388/344/316
f 387/383/317 386/403/317 390/384/317
f 392/348/318 391/347/318 385/341/318
f 396/352/319 389/345/319 388/344/319
f 393/386/320 392/404/320 396/387/320
f 398/354/321 397/353/321 391/347/321
f 402/358/322 395/351/322 394/350/322
f 399/389/323 398/405/323 402/390/323
f 404/360/324 403/359/324 397/353/324
f 401/357/519 400/356/519 406/362/519
f 405/392/326 404/406/326 408/393/326
f 410/366/327 409/365/327 403/359/327
f 407/363/328 406/362/328 412/368/328
f 411/395/329 410/407/329 414/396/329
f 411/367/330 362/318/330 361/317/330
f 366/322/331 413/369/331 412/368/331
f 409/365/332 361/317/332 367/323/332
f 367/323/332 373/329/332 379/335/332
f 379/335/332 385/341/332 391/347/332
f 391/347/332 397/353/332 403/359/332
f 403/359/332 409/365/332 367/323/332
f 367/323/332 379/335/332 391/347/332
f 365/398/333 372/376/333 368/375/333
f 413/397/334 366/601/334 362/371/334
f 376/332/335 370/326/335 364/320/335
f 364/320/335 412/368/335 406/362/335
f 406/362/335 400/356/335 394/350/335
f 394/350/335 388/344/335 382/338/335
f 382/338/335 376/332/335 364/320/335
f 364/320/335 406/362/335 394/350/335
f 371/374/336 378/378/336 374/400/336
f 375/377/337 377/379/337 384/381/337
f 381/380/338 383/382/338 390/384/338
f 389/385/339 396/387/339 392/404/339
f 395/388/340 402/390/340 398/405/340
f 399/389/341 401/391/341 408/393/341
f 405/392/342 407/394/342 414/396/342
f 415/1/343 416/22/343 418/23/343
f 418/23/344 420/25/344 419/26/344
f 419/26/345 420/25/345 422/28/345
f 421/27/346 422/28/346 424/128/346
f 423/29/347 424/128/347 426/30/347
f 426/30/348 428/32/348 427/33/348
f 427/33/349 428/32/349 430/130/349
f 420/560/350 418/561/350 416/131/350
f 416/131/350 432/562/350 430/563/350
f 430/563/350 428/577/350 426/132/350
f 426/132/350 424/578/350 422/133/350
f 422/133/350 420/560/350 416/131/350
f 416/131/350 430/563/350 426/132/350
f 430/130/351 432/37/351 431/38/351
f 431/38/352 432/37/352 416/134/352
f 431/566/353 415/579/353 417/40/353
f 417/40/353 419/567/353 421/580/353
f 421/580/353 423/581/353 425/135/353
f 425/135/353 427/582/353 429/42/353
f 429/42/353 431/566/353 417/40/353
f 417/40/353 421/580/353 425/135/353
usemtl frond
f 433/408/354 434/409/354 435/410/354
f 436/411/355 437/412/355 438/413/355
f 439/414/356 440/415/356 441/416/356
f 442/417/357 443/418/357 444/419/357
f 445/420/358 446/421/358 447/422/358
f 448/423/359 449/424/359 450/425/359
f 451/426/360 452/427/360 453/428/360
f 454/429/361 455/430/361 456/431/361
f 439/414/362 435/410/362 440/415/362
f 434/432/363 438/433/363 435/434/363
f 437/435/364 444/419/364 438/433/364
f 441/436/365 444/419/365 443/418/365
f 439/414/366 452/427/366 451/426/366
f 454/429/367 443/418/367 442/417/367
f 453/428/368 456/431/368 455/430/368
f 451/426/369 446/421/369 445/420/369
f 448/423/370 455/430/370 454/429/370
f 449/424/371 446/421/371 450/425/371
f 445/420/372 434/409/372 433/408/372
f 437/412/373 449/424/373 448/423/373
f 451/426/374 433/408/374 439/414/374
f 438/433/375 440/437/375 435/434/375
f 449/424/376 434/438/376 447/422/376
f 442/439/377 448/423/377 454/429/377
f 443/418/378 452/427/378 441/436/378
f 455/430/379 446/421/379 453/428/379
f 457/408/380 458/440/380 459/410/380
f 460/441/381 461/412/381 462/442/381
f 463/414/382 464/443/382 465/416/382
f 466/417/383 467/444/383 468/445/383
f 469/446/384 470/447/384 471/448/384
f 472/449/385 473/450/385 474/451/385
f 475/452/386 476/453/386 477/454/386
f 478/429/387 479/455/387 480/456/387
f 463/414/388 459/410/388 464/443/388
f 458/457/389 462/458/389 459/459/389
f 466/417/390 462/458/390 461/435/390
f 467/444/391 464/460/391 468/445/391
f 463/414/392 476/453/392 475/452/392
f 478/429/393 467/444/393 466/417/393
f 477/454/394 480/456/394 479/455/394
f 475/452/395 470/447/395 469/446/395
f 472/449/396 479/455/396 478/429/396
f 473/450/397 470/447/397 474/451/397
f 457/408/398 471/448/398 458/440/398
f 461/412/399 473/450/399 472/449/399
f 475/452/400 457/408/400 463/414/400
f 462/458/401 464/460/401 459/459/401
f 473/450/402 458/461/402 471/448/402
f 478/429/403 461/462/403 472/449/403
f 467/444/404 476/453/404 465/463/404
f 479/455/405 470/447/405 477/454/405
f 481/408/406 482/440/406 483/410/406
f 484/464/407 485/465/407 486/466/407
f 487/467/408 488/468/408 489/416/408
f 490/469/409 491/470/409 492/471/409
f 493/420/410 494/472/410 495/473/410
f 496/423/411 497/474/411 498/475/411
f 499/426/412 500/476/412 501/477/412
f 502/478/413 503/479/413 504/480/413
f 481/408/414 488/468/414 487/467/414
f 484/481/415 483/482/415 482/483/415
f 485/484/416 492/471/416 486/485/416
f 491/470/417 488/486/417 492/471/417
f 487/467/418 500/476/418 499/426/418
f 490/469/419 504/480/419 491/470/419
f 501/477/420 504/480/420 503/479/420
f 499/426/421 494/472/421 493/420/421
f 496/423/422 503/479/422 502/478/422
f 495/473/423 498/475/423 497/474/423
f 493/420/424 482/440/424 481/408/424
f 485/465/425 497/474/425 496/423/425
f 499/426/426 481/408/426 487/467/426
f 483/482/427 492/471/427 488/486/427
f 495/473/428 484/464/428 482/487/428
f 490/439/429 496/423/429 502/478/429
f 489/488/430 504/480/430 500/476/430
f 503/479/431 494/472/431 501/477/431
f 439/414/362 433/408/362 435/410/362
f 434/432/363 436/602/363 438/433/363
f 437/435/364 442/417/364 444/419/364
f 441/436/365 440/437/365 444/419/365
f 439/414/520 441/416/520 452/427/520
f 454/429/367 456/431/367 443/418/367
f 453/428/368 452/427/368 456/431/368
f 451/426/369 453/428/369 446/421/369
f 448/423/370 450/425/370 455/430/370
f 449/424/371 447/422/371 446/421/371
f 445/420/372 447/422/372 434/409/372
f 437/412/373 436/411/373 449/424/373
f 451/426/374 445/420/374 433/408/374
f 438/433/375 444/419/375 440/437/375
f 449/424/376 436/411/376 434/438/376
f 442/439/377 437/462/377 448/423/377
f 443/418/378 456/431/378 452/427/378
f 455/430/379 450/425/379 446/421/379
f 463/414/521 457/408/521 459/410/521
f 458/457/389 460/603/389 462/458/389
f 466/417/390 468/445/390 462/458/390
f 467/444/391 465/463/391 464/460/391
f 463/414/392 465/416/392 476/453/392
f 478/429/393 480/456/393 467/444/393
f 477/454/394 476/453/394 480/456/394
f 475/452/395 477/454/395 470/447/395
f 472/449/522 474/451/522 479/455/522
f 473/450/397 471/448/397 470/447/397
f 457/408/523 469/446/523 471/448/523
f 461/412/399 460/441/399 473/450/399
f 475/452/400 469/446/400 457/408/400
f 462/458/401 468/445/401 464/460/401
f 473/450/402 460/441/402 458/461/402
f 478/429/403 466/439/403 461/462/403
f 467/444/404 480/456/404 476/453/404
f 479/455/405 474/451/405 470/447/405
f 481/408/524 483/410/524 488/468/524
f 484/481/525 486/485/525 483/482/525
f 485/484/416 490/469/416 492/471/416
f 491/470/417 489/488/417 488/486/417
f 487/467/418 489/416/418 500/476/418
f 490/469/419 502/478/419 504/480/419
f 501/477/420 500/476/420 504/480/420
f 499/426/421 501/477/421 494/472/421
f 496/423/526 498/475/526 503/479/526
f 495/473/423 494/472/423 498/475/423
f 493/420/527 495/473/527 482/440/527
f 485/465/528 484/464/528 497/474/528
f 499/426/529 493/420/529 481/408/529
f 483/482/427 486/485/427 492/471/427
f 495/473/428 497/474/428 484/464/428
f 490/439/429 485/604/429 496/423/429
f 489/488/430 491/470/430 504/480/430
f 503/479/431 498/475/431 494/472/431
usemtl core
f 505/489/432 518/490/432 517/491/432
f 506/492/433 518/493/433 520/494/433
f 505/495/434 517/496/434 522/497/434
f 505/498/435 522/499/435 524/500/435
f 505/501/436 524/502/436 521/503/436
f 506/492/437 520/494/437 527/504/437
f 507/505/438 519/506/438 529/507/438
f 508/508/439 523/509/439 531/510/439
f 509/511/440 525/512/440 533/513/440
f 510/514/441 526/515/441 535/516/441
f 506/492/442 527/504/442 530/517/442
f 507/505/443 529/507/443 532/518/443
f 508/508/444 531/510/444 534/519/444
f 509/511/445 533/513/445 536/520/445
f 510/514/446 535/516/446 528/521/446
f 511/522/447 537/523/447 542/524/447
f 512/525/448 538/526/448 544/527/448
f 513/528/449 539/529/449 545/530/449
f 514/531/450 540/532/450 546/533/450
f 515/534/451 541/535/451 543/536/451
f 543/536/452 546/537/452 516/538/452
f 543/536/453 541/535/453 546/537/453
f 541/535/454 514/531/454 546/537/454
f 546/533/455 545/539/455 516/540/455
f 546/533/456 540/532/456 545/539/456
f 540/532/457 513/528/457 545/539/457
f 545/530/458 544/541/458 516/542/458
f 545/530/459 539/529/459 544/541/459
f 539/529/460 512/543/460 544/541/460
f 544/527/461 542/544/461 516/545/461
f 544/527/462 538/526/462 542/544/462
f 538/526/463 511/522/463 542/544/463
f 542/524/464 543/546/464 516/547/464
f 542/524/465 537/523/465 543/546/465
f 537/523/466 515/534/466 543/546/466
f 528/521/467 541/535/467 515/534/467
f 528/521/468 535/516/468 541/535/468
f 535/516/469 514/531/469 541/535/469
f 536/520/470 540/532/470 514/531/470
f 536/520/471 533/513/471 540/532/471
f 533/513/472 513/528/472 540/532/472
f 534/519/473 539/529/473 513/528/473
f 534/519/474 531/510/474 539/529/474
f 531/510/475 512/543/475 539/529/475
f 532/518/476 538/526/476 512/525/476
f 532/518/477 529/507/477 538/526/477
f 529/507/478 511/522/478 538/526/478
f 530/517/479 537/523/479 511/522/479
f 530/517/480 527/504/480 537/523/480
f 527/504/481 515/534/481 537/523/481
f 535/516/482 536/520/482 514/531/482
f 535/516/483 526/515/483 536/520/483
f 526/515/484 509/511/484 536/520/484
f 533/513/485 534/519/485 513/528/485
f 533/513/486 525/512/486 534/519/486
f 525/512/487 508/508/487 534/519/487
f 531/510/488 532/548/488 512/543/488
f 531/510/489 523/509/489 532/548/489
f 523/509/490 507/549/490 532/548/490
f 529/507/491 530/517/491 511/522/491
f 529/507/492 519/506/492 530/517/492
f 519/506/493 506/492/493 530/517/493
f 527/504/494 528/521/494 515/534/494
f 527/504/495 520/494/495 528/521/495
f 520/494/496 510/514/496 528/521/496
f 521/503/497 526/515/497 510/514/497
f 521/503/498 524/502/498 526/515/498
f 524/502/499 509/511/499 526/515/499
f 524/500/500 525/512/500 509/511/500
f 524/500/501 522/499/501 525/512/501
f 522/499/502 508/508/502 525/512/502
f 522/497/503 523/509/503 508/508/503
f 522/497/504 517/496/504 523/509/504
f 517/496/505 507/549/505 523/509/505
f 520/494/506 521/550/506 510/514/506
f 520/494/507 518/493/507 521/550/507
f 518/493/508 505/551/508 521/550/508
f 517/491/509 519/506/509 507/505/509
f 517/491/510 518/490/510 519/506/510
f 518/490/511 506/492/511 519/506/511
