# Blender 4.5.10 LTS
# www.blender.org
mtllib stow_rail_remodel_b.mtl
o stow_rail_remodel_b
v 0.658784 -0.122742 -0.188457
v 0.634143 -0.103749 -0.188256
v 0.655943 -0.100716 -0.210246
v 0.554173 0.514150 -0.182303
v 0.573168 0.538791 -0.182084
v 0.575974 0.517184 -0.204293
v 0.753990 -0.110421 -0.188415
v 0.751149 -0.088394 -0.210204
v 0.772985 -0.085780 -0.188195
v 0.668374 0.551112 -0.182042
v 0.693016 0.532119 -0.182243
v 0.671180 0.529505 -0.204251
v 0.659084 -0.126326 0.187526
v 0.656278 -0.104718 0.209735
v 0.634442 -0.107332 0.187727
v 0.573467 0.535208 0.193899
v 0.554473 0.510567 0.193679
v 0.576309 0.513181 0.215688
v 0.754290 -0.114004 0.187568
v 0.773284 -0.089364 0.187787
v 0.751484 -0.092397 0.209777
v 0.668674 0.547529 0.193941
v 0.671515 0.525502 0.215730
v 0.693315 0.528535 0.193740
v -0.750372 -0.110574 -0.191070
v -0.769185 -0.085794 -0.190868
v -0.747539 -0.088713 -0.213026
v -0.685982 0.522016 -0.189646
v -0.661202 0.540830 -0.189760
v -0.664336 0.519098 -0.211803
v -0.655262 -0.123593 -0.191760
v -0.652429 -0.101731 -0.213715
v -0.630482 -0.104779 -0.191874
v -0.566091 0.527811 -0.190450
v -0.547278 0.503031 -0.190652
v -0.569225 0.506080 -0.212493
v -0.747797 -0.111683 0.184920
v -0.744662 -0.089951 0.206963
v -0.766609 -0.086903 0.185121
v -0.658626 0.539721 0.186230
v -0.683406 0.520908 0.186344
v -0.661459 0.517859 0.208185
v -0.652686 -0.124701 0.184230
v -0.627906 -0.105888 0.184115
v -0.649552 -0.102969 0.206273
v -0.563515 0.526703 0.185540
v -0.566348 0.504841 0.207495
v -0.544703 0.501923 0.185338
v 0.774995 0.513847 -0.230931
v 0.775092 0.535539 -0.253235
v 0.797200 0.535636 -0.231343
v 0.775711 0.601529 -0.254152
v 0.776027 0.623831 -0.232461
v 0.797819 0.601626 -0.232261
v 0.777252 0.520166 0.225019
v 0.799457 0.541955 0.224607
v 0.777568 0.542468 0.246711
v 0.778284 0.630151 0.223490
v 0.778187 0.608459 0.245793
v 0.800077 0.607946 0.223690
v -0.783129 0.528572 -0.223421
v -0.804922 0.550777 -0.223621
v -0.783032 0.550264 -0.245724
v -0.782097 0.638557 -0.224950
v -0.782413 0.616255 -0.246642
v -0.804303 0.616768 -0.224538
v -0.780872 0.534892 0.232530
v -0.780557 0.557194 0.254222
v -0.802664 0.557097 0.232330
v -0.779840 0.644876 0.231000
v -0.802045 0.623087 0.231412
v -0.779937 0.623184 0.253304
v 0.725313 0.642803 -0.254903
v 0.724696 0.661990 -0.274105
v 0.744209 0.662299 -0.255226
v 0.719993 0.963554 -0.274184
v 0.720011 0.982761 -0.254992
v 0.739506 0.963863 -0.255304
v 0.726001 0.642824 -0.213309
v 0.744897 0.662321 -0.213631
v 0.726019 0.662032 -0.194116
v 0.720699 0.982783 -0.213398
v 0.721316 0.963595 -0.194195
v 0.740194 0.963884 -0.213710
v -0.730756 0.620101 -0.230810
v -0.750251 0.638999 -0.230498
v -0.731373 0.639288 -0.250013
v -0.736058 0.960059 -0.230899
v -0.736076 0.940852 -0.250092
v -0.754954 0.940562 -0.230577
v -0.730069 0.620122 -0.189216
v -0.730050 0.639330 -0.170024
v -0.749563 0.639021 -0.188904
v -0.735370 0.960081 -0.189305
v -0.754266 0.940584 -0.188982
v -0.734753 0.940893 -0.170103
v 0.578204 0.163204 0.068208
v 0.578019 0.185256 0.046261
v 0.599921 0.185483 0.068358
v 0.577304 0.241251 0.046395
v 0.576927 0.263196 0.068448
v 0.599206 0.241478 0.068492
v 0.577960 0.163067 0.124208
v 0.599677 0.185346 0.124357
v 0.577583 0.185011 0.146260
v 0.576683 0.263058 0.124447
v 0.576868 0.241006 0.146394
v 0.598962 0.241341 0.124491
v -0.562156 0.148655 0.063210
v -0.584435 0.170372 0.063166
v -0.562341 0.170707 0.041263
v -0.563432 0.248646 0.063449
v -0.563056 0.226702 0.041397
v -0.585150 0.226367 0.063300
v -0.562399 0.148517 0.119209
v -0.562776 0.170462 0.141262
v -0.584678 0.170235 0.119165
v -0.563676 0.248509 0.119449
v -0.585393 0.226230 0.119299
v -0.563491 0.226457 0.141396
v 0.380000 0.570000 0.245000
v 0.380000 1.070000 0.305000
v 0.248229 0.570000 0.197039
v 0.209661 1.070000 0.243002
v 0.178114 0.570000 0.075598
v 0.119026 1.070000 0.086017
v 0.202465 0.570000 -0.062500
v 0.150503 1.070000 -0.092500
v 0.309886 0.570000 -0.152637
v 0.289365 1.070000 -0.209019
v 0.450114 0.570000 -0.152637
v 0.470635 1.070000 -0.209019
v 0.557535 0.570000 -0.062500
v 0.609497 1.070000 -0.092500
v 0.581886 0.570000 0.075598
v 0.640974 1.070000 0.086017
v 0.511771 0.570000 0.197039
v 0.550339 1.070000 0.243002
v 0.380000 0.572860 0.221171
v 0.380000 1.072860 0.281171
v 0.263546 0.572859 0.178785
v 0.224978 1.072859 0.224748
v 0.201581 0.572860 0.071460
v 0.142493 1.072860 0.081879
v 0.223101 0.572860 -0.050585
v 0.171140 1.072860 -0.080585
v 0.318036 0.572859 -0.130245
v 0.297515 1.072860 -0.186627
v 0.441964 0.572860 -0.130245
v 0.462485 1.072860 -0.186627
v 0.536899 0.572859 -0.050585
v 0.588860 1.072860 -0.080585
v 0.558419 0.572860 0.071460
v 0.617507 1.072860 0.081879
v 0.496454 0.572859 0.178785
v 0.535022 1.072859 0.224748
v 0.380000 1.025000 0.317000
v 0.380000 1.075000 0.317000
v 0.201948 1.025000 0.252194
v 0.201948 1.075000 0.252194
v 0.107208 1.025000 0.088101
v 0.107208 1.075000 0.088101
v 0.140111 1.025000 -0.098500
v 0.140111 1.075000 -0.098500
v 0.285260 1.025000 -0.220295
v 0.285260 1.075000 -0.220295
v 0.474740 1.025000 -0.220295
v 0.474740 1.075000 -0.220295
v 0.619889 1.025000 -0.098500
v 0.619889 1.075000 -0.098500
v 0.652792 1.025000 0.088101
v 0.652792 1.075000 0.088101
v 0.558052 1.025000 0.252194
v 0.558052 1.075000 0.252194
v 0.380000 1.025000 0.297000
v 0.380000 1.075000 0.297000
v 0.214804 1.025000 0.236873
v 0.214804 1.075000 0.236873
v 0.126904 1.025000 0.084628
v 0.126904 1.075000 0.084628
v 0.157431 1.025000 -0.088500
v 0.157431 1.075000 -0.088500
v 0.292101 1.025000 -0.201501
v 0.292101 1.075000 -0.201501
v 0.467899 1.025000 -0.201501
v 0.467899 1.075000 -0.201501
v 0.602569 1.025000 -0.088500
v 0.602569 1.075000 -0.088500
v 0.633096 1.025000 0.084628
v 0.633096 1.075000 0.084628
v 0.545196 1.025000 0.236873
v 0.545196 1.075000 0.236873
v -0.380000 0.570000 0.245000
v -0.380000 1.070000 0.305000
v -0.511772 0.570000 0.197039
v -0.550339 1.070000 0.243002
v -0.581886 0.570000 0.075598
v -0.640974 1.070000 0.086017
v -0.557535 0.570000 -0.062500
v -0.609497 1.070000 -0.092500
v -0.450114 0.570000 -0.152637
v -0.470635 1.070000 -0.209019
v -0.309886 0.570000 -0.152637
v -0.289365 1.070000 -0.209019
v -0.202465 0.570000 -0.062500
v -0.150503 1.070000 -0.092500
v -0.178114 0.570000 0.075598
v -0.119026 1.070000 0.086017
v -0.248229 0.570000 0.197039
v -0.209661 1.070000 0.243002
v -0.380000 0.572859 0.221171
v -0.380000 1.072859 0.281171
v -0.496455 0.572859 0.178785
v -0.535022 1.072860 0.224748
v -0.558419 0.572859 0.071460
v -0.617507 1.072859 0.081879
v -0.536899 0.572860 -0.050585
v -0.588860 1.072860 -0.080585
v -0.441964 0.572860 -0.130245
v -0.462485 1.072860 -0.186627
v -0.318036 0.572860 -0.130245
v -0.297515 1.072860 -0.186627
v -0.223101 0.572859 -0.050585
v -0.171140 1.072860 -0.080585
v -0.201581 0.572860 0.071460
v -0.142493 1.072860 0.081879
v -0.263546 0.572859 0.178785
v -0.224978 1.072860 0.224748
v -0.380000 1.025000 0.317000
v -0.380000 1.075000 0.317000
v -0.558052 1.025000 0.252194
v -0.558052 1.075000 0.252194
v -0.652792 1.025000 0.088101
v -0.652792 1.075000 0.088101
v -0.619889 1.025000 -0.098500
v -0.619889 1.075000 -0.098500
v -0.474740 1.025000 -0.220295
v -0.474740 1.075000 -0.220295
v -0.285260 1.025000 -0.220295
v -0.285260 1.075000 -0.220295
v -0.140111 1.025000 -0.098500
v -0.140111 1.075000 -0.098500
v -0.107208 1.025000 0.088101
v -0.107208 1.075000 0.088101
v -0.201948 1.025000 0.252194
v -0.201948 1.075000 0.252194
v -0.380000 1.025000 0.297000
v -0.380000 1.075000 0.297000
v -0.545196 1.025000 0.236873
v -0.545197 1.075000 0.236873
v -0.633096 1.025000 0.084628
v -0.633096 1.075000 0.084628
v -0.602568 1.025000 -0.088500
v -0.602569 1.075000 -0.088500
v -0.467899 1.025000 -0.201501
v -0.467899 1.075000 -0.201501
v -0.292101 1.025000 -0.201501
v -0.292101 1.075000 -0.201501
v -0.157431 1.025000 -0.088500
v -0.157431 1.075000 -0.088500
v -0.126904 1.025000 0.084628
v -0.126904 1.075000 0.084628
v -0.214804 1.025000 0.236873
v -0.214804 1.075000 0.236873
vn -0.4989 -0.6411 -0.5831
vn -0.6471 0.5040 -0.5721
vn 0.6462 -0.4929 -0.5826
vn 0.4980 0.6522 -0.5716
vn -0.4980 -0.6522 0.5716
vn -0.6462 0.4929 0.5826
vn 0.6471 -0.5040 0.5721
vn 0.4989 0.6411 0.5831
vn 0.0902 -0.6945 -0.7138
vn -0.7018 -0.0840 -0.7074
vn -0.0913 0.7080 -0.7003
vn 0.7007 0.0975 -0.7068
vn 0.7920 -0.6105 -0.0064
vn 0.6105 0.7920 0.0071
vn 0.7018 0.0840 0.7074
vn 0.0913 -0.7080 0.7003
vn -0.0902 0.6945 0.7138
vn -0.7007 -0.0975 0.7068
vn -0.6105 -0.7920 -0.0071
vn -0.7920 0.6105 0.0064
vn 0.1283 -0.9917 -0.0096
vn -0.0008 0.0095 -1.0000
vn -0.9917 -0.1283 -0.0004
vn -0.1283 0.9917 0.0096
vn 0.9917 0.1283 0.0004
vn 0.0008 -0.0095 1.0000
vn -0.6543 -0.4920 -0.5743
vn -0.4977 0.6520 -0.5720
vn 0.4897 -0.6486 -0.5826
vn 0.6464 0.4954 -0.5803
vn -0.6463 -0.4954 0.5803
vn -0.4897 0.6486 0.5826
vn 0.4977 -0.6520 0.5720
vn 0.6543 0.4920 0.5743
vn -0.1007 -0.6985 -0.7085
vn -0.7054 0.0980 -0.7020
vn 0.0911 0.7027 -0.7057
vn 0.6957 -0.0938 -0.7122
vn 0.6047 -0.7965 -0.0065
vn 0.7965 0.6047 -0.0037
vn 0.7054 -0.0980 0.7020
vn -0.0911 -0.7027 0.7057
vn 0.1007 0.6985 0.7085
vn -0.6957 0.0938 0.7122
vn -0.7965 -0.6047 0.0037
vn -0.6047 0.7965 0.0065
vn -0.1356 -0.9908 -0.0020
vn -0.0069 0.0029 -1.0000
vn -0.9907 0.1356 0.0072
vn 0.1356 0.9908 0.0020
vn 0.9907 -0.1356 -0.0072
vn 0.0069 -0.0029 1.0000
vn 0.5690 -0.5907 -0.5720
vn 0.5799 0.5638 -0.5881
vn 0.5748 -0.5747 0.5825
vn 0.5856 0.5798 0.5665
vn -0.5856 -0.5798 -0.5665
vn -0.5748 0.5747 -0.5825
vn -0.5799 -0.5638 0.5881
vn -0.5690 0.5907 0.5720
vn 0.7004 -0.7137 0.0064
vn 0.7036 -0.0165 -0.7104
vn 0.7137 0.7003 -0.0132
vn 0.7106 0.0031 0.7036
vn -0.0031 -0.6972 0.7169
vn 0.0101 0.7168 0.6972
vn -0.7036 0.0165 0.7104
vn -0.7137 -0.7003 0.0132
vn -0.7004 0.7137 -0.0064
vn -0.7106 -0.0031 -0.7036
vn -0.0101 -0.7168 -0.6972
vn 0.0031 0.6972 -0.7169
vn -0.0094 -0.9999 0.0139
vn 0.9999 -0.0095 -0.0048
vn -0.0050 -0.0139 -0.9999
vn 0.0094 0.9999 -0.0139
vn 0.0050 0.0139 0.9999
vn -0.9999 0.0095 0.0048
vn 0.5767 -0.5686 -0.5867
vn 0.5586 0.5860 -0.5870
vn 0.5958 -0.5680 0.5679
vn 0.5777 0.5866 0.5676
vn -0.5777 -0.5866 -0.5676
vn -0.5958 0.5680 -0.5679
vn -0.5586 -0.5860 0.5870
vn -0.5767 0.5686 0.5867
vn 0.7179 -0.6960 -0.0115
vn 0.6952 0.0107 -0.7187
vn 0.6959 0.7180 -0.0119
vn 0.7186 0.0114 0.6953
vn 0.0227 -0.7067 0.7072
vn 0.0007 0.7074 0.7068
vn -0.6952 -0.0107 0.7187
vn -0.6959 -0.7180 0.0119
vn -0.7180 0.6960 0.0115
vn -0.7186 -0.0114 -0.6953
vn -0.0007 -0.7074 -0.7068
vn -0.0227 0.7067 -0.7072
vn 0.0156 -0.9999 0.0003
vn 0.9997 0.0156 -0.0165
vn -0.0165 -0.0005 -0.9999
vn -0.0156 0.9999 -0.0003
vn 0.0165 0.0005 0.9999
vn -0.9997 -0.0156 0.0165
vn 0.5872 -0.5685 -0.5762
vn 0.5724 0.5861 -0.5734
vn 0.5822 -0.5714 0.5785
vn 0.5674 0.5833 0.5813
vn -0.5674 -0.5833 -0.5813
vn -0.5822 0.5714 -0.5785
vn -0.5724 -0.5861 0.5734
vn -0.5872 0.5685 0.5762
vn 0.7161 -0.6980 0.0014
vn 0.7101 0.0108 -0.7040
vn 0.6980 0.7161 0.0048
vn 0.7040 0.0073 0.7102
vn 0.0060 -0.7088 0.7054
vn -0.0121 0.7053 0.7088
vn -0.7101 -0.0108 0.7040
vn -0.6980 -0.7161 -0.0048
vn -0.7161 0.6980 -0.0014
vn -0.7040 -0.0073 -0.7102
vn 0.0121 -0.7053 -0.7088
vn -0.0060 0.7088 -0.7054
vn 0.0128 -0.9999 -0.0024
vn 0.9999 0.0128 0.0044
vn 0.0044 0.0024 -1.0000
vn -0.0128 0.9999 0.0024
vn -0.0044 -0.0024 1.0000
vn -0.9999 -0.0128 -0.0044
vn -0.3399 -0.1121 0.9338
vn -0.8606 -0.1121 0.4969
vn -0.9786 -0.1121 -0.1726
vn -0.6387 -0.1121 -0.7612
vn -0.0000 -0.1121 -0.9937
vn 0.6387 -0.1121 -0.7612
vn 0.9786 -0.1121 -0.1726
vn 0.8606 -0.1121 0.4969
vn 0.3399 -0.1121 0.9338
vn 0.3399 0.1121 -0.9338
vn 0.8606 0.1121 -0.4969
vn 0.9786 0.1121 0.1726
vn 0.6387 0.1121 0.7612
vn -0.0000 0.1121 0.9937
vn -0.6387 0.1121 0.7612
vn -0.9786 0.1121 0.1726
vn -0.8606 0.1121 -0.4969
vn -0.3399 0.1121 -0.9338
vn 0.0433 -0.9919 -0.1190
vn -0.0433 0.9919 0.1190
vn 0.1097 -0.9919 -0.0633
vn -0.1097 0.9919 0.0633
vn 0.1247 -0.9919 0.0220
vn -0.1248 0.9919 -0.0220
vn 0.0814 -0.9919 0.0970
vn -0.0814 0.9919 -0.0970
vn -0.0000 -0.9919 0.1267
vn -0.0000 0.9919 -0.1267
vn -0.0814 -0.9919 0.0970
vn 0.0814 0.9919 -0.0970
vn -0.1247 -0.9919 0.0220
vn 0.1248 0.9919 -0.0220
vn -0.1097 -0.9919 -0.0633
vn 0.1097 0.9919 0.0633
vn -0.0433 -0.9919 -0.1190
vn 0.0433 0.9919 0.1190
vn -0.3420 -0.0000 0.9397
vn -0.8660 -0.0000 0.5000
vn -0.9848 -0.0000 -0.1736
vn -0.6428 -0.0000 -0.7660
vn -0.0000 -0.0000 -1.0000
vn 0.6428 -0.0000 -0.7660
vn 0.9848 -0.0000 -0.1736
vn 0.8660 -0.0000 0.5000
vn 0.3420 -0.0000 0.9397
vn 0.3420 -0.0000 -0.9397
vn 0.8660 -0.0000 -0.5000
vn 0.9848 -0.0000 0.1736
vn 0.6428 -0.0000 0.7660
vn -0.0000 -0.0000 1.0000
vn -0.6428 -0.0000 0.7660
vn -0.9848 -0.0000 0.1736
vn -0.8660 -0.0000 -0.5000
vn -0.3420 -0.0000 -0.9397
vn -0.0000 -1.0000 -0.0000
vn -0.0000 1.0000 -0.0000
vn 0.1247 0.9919 -0.0220
vn 0.9999 -0.0094 -0.0048
vn -0.9999 0.0094 0.0048
vn -0.7179 0.6960 0.0115
vn 0.1248 -0.9919 0.0220
vn -0.1247 0.9919 -0.0220
vn -0.1248 -0.9919 0.0220
vt 0.138095 0.710714
vt 0.138095 0.750000
vt 0.125000 0.710714
vt 0.616755 0.000000
vt 0.625000 0.039286
vt 0.616755 0.039286
vt 0.138095 0.539286
vt 0.125000 0.539286
vt 0.138095 0.500000
vt 0.625000 0.251284
vt 0.616755 0.263075
vt 0.616755 0.210714
vt 0.361905 0.710714
vt 0.383203 0.710714
vt 0.382272 0.762498
vt 0.634996 0.723111
vt 0.616755 0.763095
vt 0.616755 0.710914
vt 0.361905 0.539286
vt 0.382272 0.487502
vt 0.383203 0.539286
vt 0.634996 0.526889
vt 0.616755 0.539086
vt 0.616755 0.486905
vt 0.383245 0.000000
vt 0.383245 0.039286
vt 0.383245 0.210714
vt 0.616755 0.986905
vt 0.383245 0.986905
vt 0.861905 0.539286
vt 0.383245 0.263095
vt 0.138095 0.710714
vt 0.125000 0.710714
vt 0.616635 0.000000
vt 0.616635 0.039286
vt 0.138095 0.539286
vt 0.125000 0.539286
vt 0.625000 0.251284
vt 0.616635 0.263074
vt 0.616635 0.210714
vt 0.361905 0.710714
vt 0.383322 0.710714
vt 0.382372 0.762489
vt 0.634996 0.723111
vt 0.616635 0.763095
vt 0.616635 0.710917
vt 0.382372 0.487511
vt 0.383322 0.539286
vt 0.616635 0.539083
vt 0.616635 0.486905
vt 0.383365 0.000000
vt 0.383365 0.039286
vt 0.383365 0.263095
vt 0.625000 0.986905
vt 0.383365 0.210714
vt 0.383365 0.986905
vt 0.128433 0.739000
vt 0.128433 0.750000
vt 0.125000 0.739000
vt 0.575000 0.000000
vt 0.625000 0.011000
vt 0.575000 0.011000
vt 0.128433 0.511000
vt 0.125000 0.511000
vt 0.128433 0.500000
vt 0.625000 0.250091
vt 0.575000 0.253423
vt 0.575000 0.239000
vt 0.371567 0.739000
vt 0.424552 0.739000
vt 0.408011 0.752341
vt 0.628216 0.739912
vt 0.575000 0.753433
vt 0.575000 0.739099
vt 0.371567 0.511000
vt 0.408011 0.497659
vt 0.424552 0.511000
vt 0.628216 0.510088
vt 0.575000 0.510901
vt 0.575000 0.496567
vt 0.425000 0.011000
vt 0.425000 0.000000
vt 0.425000 0.239000
vt 0.625000 0.996567
vt 0.425000 0.996567
vt 0.871567 0.739000
vt 0.425000 0.253433
vt 0.128211 0.690000
vt 0.128211 0.750000
vt 0.125000 0.690000
vt 0.610882 0.000000
vt 0.625000 0.060000
vt 0.610882 0.060000
vt 0.128211 0.560000
vt 0.125000 0.560000
vt 0.128211 0.500000
vt 0.625000 0.250977
vt 0.610882 0.253209
vt 0.610882 0.190000
vt 0.371789 0.690000
vt 0.388915 0.690000
vt 0.387700 0.752948
vt 0.626951 0.714807
vt 0.610882 0.753211
vt 0.610882 0.690863
vt 0.371789 0.560000
vt 0.387700 0.497052
vt 0.388915 0.560000
vt 0.626951 0.535193
vt 0.610882 0.559137
vt 0.610882 0.496789
vt 0.389118 0.060000
vt 0.389118 0.000000
vt 0.389118 0.253211
vt 0.625000 0.996789
vt 0.389118 0.190000
vt 0.389118 0.996789
vt 0.871789 0.560000
vt 0.129643 0.695000
vt 0.129643 0.750000
vt 0.125000 0.695000
vt 0.570000 0.000000
vt 0.625000 0.055000
vt 0.570000 0.055000
vt 0.129643 0.555000
vt 0.125000 0.555000
vt 0.129643 0.500000
vt 0.625000 0.251219
vt 0.570000 0.254624
vt 0.570000 0.195000
vt 0.370357 0.695000
vt 0.426725 0.695000
vt 0.408905 0.753001
vt 0.628001 0.716095
vt 0.570000 0.754643
vt 0.570000 0.698275
vt 0.370357 0.555000
vt 0.408905 0.496999
vt 0.426725 0.555000
vt 0.628001 0.533905
vt 0.570000 0.551725
vt 0.570000 0.495357
vt 0.430000 0.000000
vt 0.430000 0.055000
vt 0.430000 0.254643
vt 0.625000 0.995357
vt 0.430000 0.195000
vt 0.570000 0.995357
vt 0.430000 0.995357
vt 0.870357 0.555000
vt 1.000000 1.000000
vt 0.888889 0.500000
vt 1.000000 0.500000
vt 0.888889 1.000000
vt 0.777778 0.500000
vt 0.666667 1.000000
vt 0.666667 0.500000
vt 0.555556 0.500000
vt 0.555556 1.000000
vt 0.444444 0.500000
vt 0.333333 1.000000
vt 0.333333 0.500000
vt 0.222222 0.500000
vt 0.222222 1.000000
vt 0.111111 0.500000
vt 0.111111 1.000000
vt 0.000000 0.500000
vt 0.777778 1.000000
vt 0.444444 1.000000
vt 0.000000 1.000000
vt 0.861905 0.710714
vt 0.616635 0.986905
vt 0.575000 0.996567
vt 0.871567 0.511000
vt 0.610882 0.996789
vt 0.871789 0.690000
vt 0.870357 0.695000
s 0
usemtl wood
f 1/1/1 2/2/1 3/3/1
f 4/4/2 5/5/2 6/6/2
f 7/7/3 8/8/3 9/9/3
f 10/10/4 11/11/4 12/12/4
f 13/13/5 14/14/5 15/15/5
f 16/16/6 17/17/6 18/18/6
f 19/19/7 20/20/7 21/21/7
f 22/22/8 23/23/8 24/24/8
f 1/1/9 8/8/9 7/7/9
f 2/25/10 6/6/10 3/26/10
f 10/10/11 6/6/11 5/5/11
f 11/11/12 8/27/12 12/12/12
f 7/7/13 20/20/13 19/19/13
f 22/22/14 11/11/14 10/10/14
f 23/23/15 20/20/15 24/24/15
f 19/19/16 14/14/16 13/13/16
f 16/16/17 23/23/17 22/22/17
f 17/17/18 14/14/18 18/18/18
f 13/13/19 2/2/19 1/1/19
f 16/16/20 4/28/20 17/17/20
f 19/19/21 1/1/21 7/7/21
f 6/6/22 8/27/22 3/26/22
f 17/17/23 2/29/23 15/15/23
f 10/30/24 16/16/24 22/22/24
f 11/11/25 20/20/25 9/31/25
f 23/23/26 14/14/26 21/21/26
f 25/32/27 26/2/27 27/33/27
f 28/34/28 29/5/28 30/35/28
f 31/36/29 32/37/29 33/9/29
f 34/38/30 35/39/30 36/40/30
f 37/41/31 38/42/31 39/43/31
f 40/44/32 41/45/32 42/46/32
f 43/19/33 44/47/33 45/48/33
f 46/22/34 47/49/34 48/50/34
f 31/36/35 27/33/35 32/37/35
f 26/51/36 30/35/36 27/52/36
f 29/5/37 36/40/37 30/35/37
f 33/53/38 36/40/38 35/39/38
f 43/19/39 33/9/39 44/47/39
f 46/22/40 35/39/40 34/38/40
f 45/48/41 48/50/41 47/49/41
f 43/19/42 38/42/42 37/41/42
f 46/22/43 42/46/43 47/49/43
f 39/43/44 42/46/44 41/45/44
f 37/41/45 26/2/45 25/32/45
f 29/54/46 41/45/46 40/44/46
f 43/19/47 25/32/47 31/36/47
f 30/35/48 32/55/48 27/52/48
f 41/45/49 26/56/49 39/43/49
f 34/30/50 40/44/50 46/22/50
f 35/39/51 44/47/51 33/53/51
f 45/48/52 42/46/52 38/42/52
f 49/57/53 50/58/53 51/59/53
f 52/60/54 53/61/54 54/62/54
f 55/63/55 56/64/55 57/65/55
f 58/66/56 59/67/56 60/68/56
f 61/69/57 62/70/57 63/71/57
f 64/72/58 65/73/58 66/74/58
f 67/75/59 68/76/59 69/77/59
f 70/78/60 71/79/60 72/80/60
f 49/57/61 56/64/61 55/63/61
f 52/60/62 51/81/62 50/82/62
f 58/66/63 54/62/63 53/61/63
f 59/67/64 56/83/64 60/68/64
f 67/75/65 57/65/65 68/76/65
f 70/78/66 59/67/66 58/66/66
f 69/77/67 72/80/67 71/79/67
f 61/69/68 69/77/68 62/70/68
f 64/72/69 71/79/69 70/78/69
f 63/71/70 66/74/70 65/73/70
f 61/69/71 50/58/71 49/57/71
f 53/84/72 65/73/72 64/72/72
f 67/75/73 49/57/73 55/63/73
f 54/62/74 56/83/74 51/81/74
f 65/73/75 50/85/75 63/71/75
f 70/78/76 53/86/76 64/72/76
f 59/67/77 68/76/77 57/87/77
f 69/77/78 66/74/78 62/70/78
f 73/88/79 74/89/79 75/90/79
f 76/91/80 77/92/80 78/93/80
f 79/94/81 80/95/81 81/96/81
f 82/97/82 83/98/82 84/99/82
f 85/100/83 86/101/83 87/102/83
f 88/103/84 89/104/84 90/105/84
f 91/106/85 92/107/85 93/108/85
f 94/109/86 95/110/86 96/111/86
f 79/94/87 75/90/87 80/95/87
f 76/91/88 75/112/88 74/113/88
f 82/97/89 78/93/89 77/92/89
f 81/114/90 84/99/90 83/98/90
f 79/94/91 92/107/91 91/106/91
f 82/97/92 96/111/92 83/98/92
f 95/110/93 92/107/93 96/111/93
f 85/100/94 93/108/94 86/101/94
f 88/103/95 95/110/95 94/109/95
f 89/104/96 86/101/96 90/105/96
f 85/100/97 74/89/97 73/88/97
f 77/115/98 89/104/98 88/103/98
f 79/94/99 85/100/99 73/88/99
f 78/93/100 80/116/100 75/112/100
f 89/104/101 74/117/101 87/102/101
f 82/118/102 88/103/102 94/109/102
f 83/98/103 92/107/103 81/114/103
f 95/110/104 86/101/104 93/108/104
f 97/119/105 98/120/105 99/121/105
f 100/122/106 101/123/106 102/124/106
f 103/125/107 104/126/107 105/127/107
f 106/128/108 107/129/108 108/130/108
f 109/131/109 110/132/109 111/133/109
f 112/134/110 113/135/110 114/136/110
f 115/137/111 116/138/111 117/139/111
f 118/140/112 119/141/112 120/142/112
f 103/125/113 99/121/113 104/126/113
f 98/143/114 102/124/114 99/144/114
f 106/128/115 102/124/115 101/123/115
f 105/145/116 108/130/116 107/129/116
f 103/125/117 116/138/117 115/137/117
f 118/140/118 107/129/118 106/128/118
f 117/139/119 120/142/119 119/141/119
f 115/137/120 110/132/120 109/131/120
f 118/140/121 114/136/121 119/141/121
f 113/135/122 110/132/122 114/136/122
f 109/131/123 98/120/123 97/119/123
f 101/146/124 113/135/124 112/134/124
f 115/137/125 97/119/125 103/125/125
f 99/144/126 108/130/126 104/147/126
f 111/133/127 100/148/127 98/149/127
f 106/150/128 112/134/128 118/140/128
f 107/129/129 116/138/129 105/145/129
f 119/141/130 110/132/130 117/139/130
f 1/1/9 3/3/9 8/8/9
f 2/25/10 4/4/10 6/6/10
f 10/10/11 12/12/11 6/6/11
f 11/11/12 9/31/12 8/27/12
f 7/7/13 9/9/13 20/20/13
f 22/22/14 24/24/14 11/11/14
f 23/23/15 21/21/15 20/20/15
f 19/19/16 21/21/16 14/14/16
f 16/16/17 18/18/17 23/23/17
f 17/17/18 15/15/18 14/14/18
f 13/13/19 15/15/19 2/2/19
f 16/16/20 5/54/20 4/28/20
f 19/19/21 13/13/21 1/1/21
f 6/6/22 12/12/22 8/27/22
f 17/17/23 4/28/23 2/29/23
f 10/30/24 5/171/24 16/16/24
f 11/11/25 24/24/25 20/20/25
f 23/23/26 18/18/26 14/14/26
f 31/36/35 25/32/35 27/33/35
f 26/51/36 28/34/36 30/35/36
f 29/5/37 34/38/37 36/40/37
f 33/53/38 32/55/38 36/40/38
f 43/19/39 31/36/39 33/9/39
f 46/22/40 48/50/40 35/39/40
f 45/48/41 44/47/41 48/50/41
f 43/19/42 45/48/42 38/42/42
f 46/22/43 40/44/43 42/46/43
f 39/43/44 38/42/44 42/46/44
f 37/41/45 39/43/45 26/2/45
f 29/54/46 28/172/46 41/45/46
f 43/19/47 37/41/47 25/32/47
f 30/35/48 36/40/48 32/55/48
f 41/45/49 28/172/49 26/56/49
f 34/30/50 29/171/50 40/44/50
f 35/39/51 48/50/51 44/47/51
f 45/48/52 47/49/52 42/46/52
f 49/57/61 51/59/61 56/64/61
f 52/60/62 54/62/62 51/81/62
f 58/66/63 60/68/63 54/62/63
f 59/67/64 57/87/64 56/83/64
f 67/75/65 55/63/65 57/65/65
f 70/78/66 72/80/66 59/67/66
f 69/77/67 68/76/67 72/80/67
f 61/69/68 67/75/68 69/77/68
f 64/72/69 66/74/69 71/79/69
f 63/71/70 62/70/70 66/74/70
f 61/69/71 63/71/71 50/58/71
f 53/84/72 52/173/72 65/73/72
f 67/75/73 61/69/73 49/57/73
f 54/62/188 60/68/188 56/83/188
f 65/73/75 52/173/75 50/85/75
f 70/78/76 58/174/76 53/86/76
f 59/67/77 72/80/77 68/76/77
f 69/77/189 71/79/189 66/74/189
f 79/94/87 73/88/87 75/90/87
f 76/91/88 78/93/88 75/112/88
f 82/97/89 84/99/89 78/93/89
f 81/114/90 80/116/90 84/99/90
f 79/94/91 81/96/91 92/107/91
f 82/97/92 94/109/92 96/111/92
f 95/110/93 93/108/93 92/107/93
f 85/100/94 91/106/94 93/108/94
f 88/103/190 90/105/190 95/110/190
f 89/104/96 87/102/96 86/101/96
f 85/100/97 87/102/97 74/89/97
f 77/115/98 76/175/98 89/104/98
f 79/94/99 91/106/99 85/100/99
f 78/93/100 84/99/100 80/116/100
f 89/104/101 76/175/101 74/117/101
f 82/118/102 77/176/102 88/103/102
f 83/98/103 96/111/103 92/107/103
f 95/110/104 90/105/104 86/101/104
f 103/125/113 97/119/113 99/121/113
f 98/143/114 100/122/114 102/124/114
f 106/128/115 108/130/115 102/124/115
f 105/145/116 104/147/116 108/130/116
f 103/125/117 105/127/117 116/138/117
f 118/140/118 120/142/118 107/129/118
f 117/139/119 116/138/119 120/142/119
f 115/137/120 117/139/120 110/132/120
f 118/140/121 112/134/121 114/136/121
f 113/135/122 111/133/122 110/132/122
f 109/131/123 111/133/123 98/120/123
f 101/146/124 100/148/124 113/135/124
f 115/137/125 109/131/125 97/119/125
f 99/144/126 102/124/126 108/130/126
f 111/133/127 113/135/127 100/148/127
f 106/150/128 101/177/128 112/134/128
f 107/129/129 120/142/129 116/138/129
f 119/141/130 114/136/130 110/132/130
usemtl bark
f 122/151/131 123/152/131 121/153/131
f 124/154/132 125/155/132 123/152/132
f 125/155/133 128/156/133 127/157/133
f 128/156/134 129/158/134 127/157/134
f 130/159/135 131/160/135 129/158/135
f 131/160/136 134/161/136 133/162/136
f 134/161/137 135/163/137 133/162/137
f 136/164/138 137/165/138 135/163/138
f 138/166/139 121/167/139 137/165/139
f 139/153/140 142/154/140 140/151/140
f 143/155/141 142/154/141 141/152/141
f 145/157/142 144/168/142 143/155/142
f 145/157/143 148/159/143 146/156/143
f 149/160/144 148/159/144 147/158/144
f 149/160/145 152/161/145 150/169/145
f 153/163/146 152/161/146 151/162/146
f 153/163/147 156/166/147 154/164/147
f 139/167/148 156/166/148 155/165/148
f 123/152/149 139/153/149 121/153/149
f 122/151/150 142/154/150 124/154/150
f 125/155/151 141/152/151 123/152/151
f 124/154/152 144/168/152 126/168/152
f 127/157/153 143/155/153 125/155/153
f 128/156/154 144/168/154 146/156/154
f 127/157/155 147/158/155 145/157/155
f 130/159/156 146/156/156 148/159/156
f 129/158/157 149/160/157 147/158/157
f 130/159/158 150/169/158 132/169/158
f 133/162/159 149/160/159 131/160/159
f 134/161/160 150/169/160 152/161/160
f 135/163/161 151/162/161 133/162/161
f 134/161/162 154/164/162 136/164/162
f 137/165/163 153/163/163 135/163/163
f 138/166/164 154/164/164 156/166/164
f 121/167/165 155/165/165 137/165/165
f 122/170/166 156/166/166 140/170/166
f 193/153/131 196/154/131 195/152/131
f 196/154/132 197/155/132 195/152/132
f 198/168/133 199/157/133 197/155/133
f 200/156/134 201/158/134 199/157/134
f 202/159/135 203/160/135 201/158/135
f 204/169/136 205/162/136 203/160/136
f 206/161/137 207/163/137 205/162/137
f 208/164/138 209/165/138 207/163/138
f 210/166/139 193/167/139 209/165/139
f 213/152/140 212/151/140 211/153/140
f 213/152/141 216/168/141 214/154/141
f 217/157/142 216/168/142 215/155/142
f 219/158/143 218/156/143 217/157/143
f 221/160/144 220/159/144 219/158/144
f 221/160/145 224/161/145 222/169/145
f 225/163/146 224/161/146 223/162/146
f 225/163/147 228/166/147 226/164/147
f 227/165/148 212/170/148 228/166/148
f 195/152/149 211/153/149 193/153/149
f 194/151/150 214/154/150 196/154/150
f 197/155/151 213/152/151 195/152/151
f 196/154/152 216/168/152 198/168/152
f 197/155/153 217/157/153 215/155/153
f 200/156/154 216/168/154 218/156/154
f 199/157/155 219/158/155 217/157/155
f 202/159/156 218/156/156 220/159/156
f 201/158/157 221/160/157 219/158/157
f 202/159/158 222/169/158 204/169/158
f 205/162/159 221/160/159 203/160/159
f 206/161/160 222/169/160 224/161/160
f 207/163/161 223/162/161 205/162/161
f 206/161/187 226/164/187 208/164/187
f 207/163/163 227/165/163 225/163/163
f 208/164/164 228/166/164 210/166/164
f 193/167/165 227/165/165 209/165/165
f 210/166/166 212/170/166 194/170/166
f 122/151/131 124/154/131 123/152/131
f 124/154/132 126/168/132 125/155/132
f 125/155/133 126/168/133 128/156/133
f 128/156/134 130/159/134 129/158/134
f 130/159/135 132/169/135 131/160/135
f 131/160/136 132/169/136 134/161/136
f 134/161/137 136/164/137 135/163/137
f 136/164/138 138/166/138 137/165/138
f 138/166/139 122/170/139 121/167/139
f 139/153/140 141/152/140 142/154/140
f 143/155/141 144/168/141 142/154/141
f 145/157/142 146/156/142 144/168/142
f 145/157/143 147/158/143 148/159/143
f 149/160/144 150/169/144 148/159/144
f 149/160/145 151/162/145 152/161/145
f 153/163/146 154/164/146 152/161/146
f 153/163/147 155/165/147 156/166/147
f 139/167/148 140/170/148 156/166/148
f 123/152/149 141/152/149 139/153/149
f 122/151/150 140/151/150 142/154/150
f 125/155/151 143/155/151 141/152/151
f 124/154/152 142/154/152 144/168/152
f 127/157/191 145/157/191 143/155/191
f 128/156/192 126/168/192 144/168/192
f 127/157/155 129/158/155 147/158/155
f 130/159/156 128/156/156 146/156/156
f 129/158/157 131/160/157 149/160/157
f 130/159/158 148/159/158 150/169/158
f 133/162/159 151/162/159 149/160/159
f 134/161/160 132/169/160 150/169/160
f 135/163/193 153/163/193 151/162/193
f 134/161/162 152/161/162 154/164/162
f 137/165/163 155/165/163 153/163/163
f 138/166/164 136/164/164 154/164/164
f 121/167/165 139/167/165 155/165/165
f 122/170/166 138/166/166 156/166/166
f 193/153/131 194/151/131 196/154/131
f 196/154/132 198/168/132 197/155/132
f 198/168/133 200/156/133 199/157/133
f 200/156/134 202/159/134 201/158/134
f 202/159/135 204/169/135 203/160/135
f 204/169/136 206/161/136 205/162/136
f 206/161/137 208/164/137 207/163/137
f 208/164/138 210/166/138 209/165/138
f 210/166/139 194/170/139 193/167/139
f 213/152/140 214/154/140 212/151/140
f 213/152/141 215/155/141 216/168/141
f 217/157/142 218/156/142 216/168/142
f 219/158/143 220/159/143 218/156/143
f 221/160/144 222/169/144 220/159/144
f 221/160/145 223/162/145 224/161/145
f 225/163/146 226/164/146 224/161/146
f 225/163/147 227/165/147 228/166/147
f 227/165/148 211/167/148 212/170/148
f 195/152/149 213/152/149 211/153/149
f 194/151/150 212/151/150 214/154/150
f 197/155/151 215/155/151 213/152/151
f 196/154/152 214/154/152 216/168/152
f 197/155/153 199/157/153 217/157/153
f 200/156/192 198/168/192 216/168/192
f 199/157/155 201/158/155 219/158/155
f 202/159/156 200/156/156 218/156/156
f 201/158/157 203/160/157 221/160/157
f 202/159/158 220/159/158 222/169/158
f 205/162/159 223/162/159 221/160/159
f 206/161/160 204/169/160 222/169/160
f 207/163/193 225/163/193 223/162/193
f 206/161/162 224/161/162 226/164/162
f 207/163/163 209/165/163 227/165/163
f 208/164/164 226/164/164 228/166/164
f 193/167/165 211/167/165 227/165/165
f 210/166/166 228/166/166 212/170/166
usemtl rope
f 158/151/167 159/152/167 157/153/167
f 159/152/168 162/168/168 161/155/168
f 162/168/169 163/157/169 161/155/169
f 164/156/170 165/158/170 163/157/170
f 166/159/171 167/160/171 165/158/171
f 167/160/172 170/161/172 169/162/172
f 170/161/173 171/163/173 169/162/173
f 172/164/174 173/165/174 171/163/174
f 173/165/175 158/170/175 157/167/175
f 177/152/176 176/151/176 175/153/176
f 179/155/177 178/154/177 177/152/177
f 179/155/178 182/156/178 180/168/178
f 183/158/179 182/156/179 181/157/179
f 185/160/180 184/159/180 183/158/180
f 185/160/181 188/161/181 186/169/181
f 189/163/182 188/161/182 187/162/182
f 191/165/183 190/164/183 189/163/183
f 175/167/184 192/166/184 191/165/184
f 159/152/185 175/153/185 157/153/185
f 158/151/186 178/154/186 160/154/186
f 159/152/185 179/155/185 177/152/185
f 160/154/186 180/168/186 162/168/186
f 161/155/185 181/157/185 179/155/185
f 162/168/186 182/156/186 164/156/186
f 165/158/185 181/157/185 163/157/185
f 164/156/186 184/159/186 166/159/186
f 167/160/185 183/158/185 165/158/185
f 166/159/186 186/169/186 168/169/186
f 167/160/185 187/162/185 185/160/185
f 170/161/186 186/169/186 188/161/186
f 171/163/185 187/162/185 169/162/185
f 170/161/186 190/164/186 172/164/186
f 173/165/185 189/163/185 171/163/185
f 172/164/186 192/166/186 174/166/186
f 157/167/185 191/165/185 173/165/185
f 174/166/186 176/170/186 158/170/186
f 229/153/167 232/154/167 231/152/167
f 232/154/168 233/155/168 231/152/168
f 234/168/169 235/157/169 233/155/169
f 236/156/170 237/158/170 235/157/170
f 238/159/171 239/160/171 237/158/171
f 240/169/172 241/162/172 239/160/172
f 241/162/173 244/164/173 243/163/173
f 243/163/174 246/166/174 245/165/174
f 245/165/175 230/170/175 229/167/175
f 249/152/176 248/151/176 247/153/176
f 251/155/177 250/154/177 249/152/177
f 251/155/178 254/156/178 252/168/178
f 253/157/179 256/159/179 254/156/179
f 257/160/180 256/159/180 255/158/180
f 259/162/181 258/169/181 257/160/181
f 261/163/182 260/161/182 259/162/182
f 263/165/183 262/164/183 261/163/183
f 263/165/184 248/170/184 264/166/184
f 229/153/185 249/152/185 247/153/185
f 232/154/186 248/151/186 250/154/186
f 231/152/185 251/155/185 249/152/185
f 234/168/186 250/154/186 252/168/186
f 235/157/185 251/155/185 233/155/185
f 234/168/186 254/156/186 236/156/186
f 237/158/185 253/157/185 235/157/185
f 236/156/186 256/159/186 238/159/186
f 239/160/185 255/158/185 237/158/185
f 240/169/186 256/159/186 258/169/186
f 239/160/185 259/162/185 257/160/185
f 240/169/186 260/161/186 242/161/186
f 241/162/185 261/163/185 259/162/185
f 242/161/186 262/164/186 244/164/186
f 245/165/185 261/163/185 243/163/185
f 246/166/186 262/164/186 264/166/186
f 229/167/185 263/165/185 245/165/185
f 230/170/186 264/166/186 248/170/186
f 158/151/167 160/154/167 159/152/167
f 159/152/168 160/154/168 162/168/168
f 162/168/169 164/156/169 163/157/169
f 164/156/170 166/159/170 165/158/170
f 166/159/171 168/169/171 167/160/171
f 167/160/172 168/169/172 170/161/172
f 170/161/173 172/164/173 171/163/173
f 172/164/174 174/166/174 173/165/174
f 173/165/175 174/166/175 158/170/175
f 177/152/176 178/154/176 176/151/176
f 179/155/177 180/168/177 178/154/177
f 179/155/178 181/157/178 182/156/178
f 183/158/179 184/159/179 182/156/179
f 185/160/180 186/169/180 184/159/180
f 185/160/181 187/162/181 188/161/181
f 189/163/182 190/164/182 188/161/182
f 191/165/183 192/166/183 190/164/183
f 175/167/184 176/170/184 192/166/184
f 159/152/185 177/152/185 175/153/185
f 158/151/186 176/151/186 178/154/186
f 159/152/185 161/155/185 179/155/185
f 160/154/186 178/154/186 180/168/186
f 161/155/185 163/157/185 181/157/185
f 162/168/186 180/168/186 182/156/186
f 165/158/185 183/158/185 181/157/185
f 164/156/186 182/156/186 184/159/186
f 167/160/185 185/160/185 183/158/185
f 166/159/186 184/159/186 186/169/186
f 167/160/185 169/162/185 187/162/185
f 170/161/186 168/169/186 186/169/186
f 171/163/185 189/163/185 187/162/185
f 170/161/186 188/161/186 190/164/186
f 173/165/185 191/165/185 189/163/185
f 172/164/186 190/164/186 192/166/186
f 157/167/185 175/167/185 191/165/185
f 174/166/186 192/166/186 176/170/186
f 229/153/167 230/151/167 232/154/167
f 232/154/168 234/168/168 233/155/168
f 234/168/169 236/156/169 235/157/169
f 236/156/170 238/159/170 237/158/170
f 238/159/171 240/169/171 239/160/171
f 240/169/172 242/161/172 241/162/172
f 241/162/173 242/161/173 244/164/173
f 243/163/174 244/164/174 246/166/174
f 245/165/175 246/166/175 230/170/175
f 249/152/176 250/154/176 248/151/176
f 251/155/177 252/168/177 250/154/177
f 251/155/178 253/157/178 254/156/178
f 253/157/179 255/158/179 256/159/179
f 257/160/180 258/169/180 256/159/180
f 259/162/181 260/161/181 258/169/181
f 261/163/182 262/164/182 260/161/182
f 263/165/183 264/166/183 262/164/183
f 263/165/184 247/167/184 248/170/184
f 229/153/185 231/152/185 249/152/185
f 232/154/186 230/151/186 248/151/186
f 231/152/185 233/155/185 251/155/185
f 234/168/186 232/154/186 250/154/186
f 235/157/185 253/157/185 251/155/185
f 234/168/186 252/168/186 254/156/186
f 237/158/185 255/158/185 253/157/185
f 236/156/186 254/156/186 256/159/186
f 239/160/185 257/160/185 255/158/185
f 240/169/186 238/159/186 256/159/186
f 239/160/185 241/162/185 259/162/185
f 240/169/186 258/169/186 260/161/186
f 241/162/185 243/163/185 261/163/185
f 242/161/186 260/161/186 262/164/186
f 245/165/185 263/165/185 261/163/185
f 246/166/186 244/164/186 262/164/186
f 229/167/185 247/167/185 263/165/185
f 230/170/186 246/166/186 264/166/186
