# Blender 4.5.10 LTS
# www.blender.org
mtllib stow_rail_remodel_c.mtl
o stow_rail_remodel_c
v -0.089427 -0.126431 -0.058394
v -0.037578 1.514907 -0.305997
v -0.010624 -0.133650 -0.094006
v 0.019160 1.509709 -0.331638
v 0.066891 -0.128816 -0.055298
v 0.074971 1.513189 -0.303768
v 0.084747 -0.115569 0.028583
v 0.087827 1.522727 -0.243374
v 0.029498 -0.103884 0.094471
v 0.048048 1.531140 -0.195934
v -0.057251 -0.102560 0.092753
v -0.014411 1.532093 -0.197172
v -0.110178 -0.112594 0.024721
v -0.052519 1.524869 -0.246154
v 0.476486 -0.056783 0.391949
v 0.011821 0.811539 -0.060595
v 0.431916 -0.080158 0.392478
v -0.026602 0.791389 -0.060139
v 0.411314 -0.109248 0.356946
v -0.044362 0.766311 -0.090770
v 0.430195 -0.122149 0.312111
v -0.028085 0.755189 -0.129421
v 0.474340 -0.109146 0.291733
v 0.009971 0.766399 -0.146988
v 0.510508 -0.080030 0.311158
v 0.041150 0.791499 -0.130242
v 0.511463 -0.056727 0.355759
v 0.041974 0.811588 -0.091794
v -0.462735 -0.104601 0.315791
v 0.022694 0.743493 -0.153025
v -0.427626 -0.104556 0.351853
v 0.052960 0.743532 -0.121936
v -0.427696 -0.079823 0.395687
v 0.052900 0.764854 -0.084149
v -0.462893 -0.049025 0.414284
v 0.022558 0.791404 -0.068116
v -0.506712 -0.035355 0.393641
v -0.015217 0.803188 -0.085912
v -0.526157 -0.049106 0.349302
v -0.031981 0.791334 -0.124135
v -0.506586 -0.079924 0.314656
v -0.015109 0.764767 -0.154003
v -0.017500 0.884123 -0.197619
v -0.016874 0.898015 -0.129015
v 0.059196 0.866859 -0.194823
v 0.059822 0.880751 -0.126218
v 0.106717 0.805335 -0.182797
v 0.107342 0.819227 -0.114193
v 0.102826 0.728336 -0.167170
v 0.103452 0.742228 -0.098565
v 0.049345 0.671892 -0.155253
v 0.049971 0.685784 -0.086648
v -0.028702 0.662414 -0.152623
v -0.028077 0.676306 -0.084018
v -0.094796 0.704336 -0.160509
v -0.094171 0.718228 -0.091904
v -0.118011 0.778043 -0.175223
v -0.117386 0.791935 -0.106618
v -0.087484 0.849046 -0.189879
v -0.086859 0.862938 -0.121274
v -0.007547 1.052331 -0.173467
v 0.312627 1.121731 -0.179451
v -0.005944 1.043773 -0.207068
v 0.313910 1.114885 -0.206332
v 0.001324 1.012923 -0.221221
v 0.319724 1.090205 -0.217654
v 0.008784 0.983012 -0.205268
v 0.325692 1.066276 -0.204892
v 0.010818 0.976563 -0.171222
v 0.327320 1.061117 -0.177655
v 0.005895 0.998432 -0.144721
v 0.323381 1.078613 -0.156454
v -0.002278 1.032152 -0.145720
v 0.316842 1.105588 -0.157254
v 0.320000 0.815000 -0.095732
v 0.320000 1.025000 -0.055732
v 0.265363 0.815000 -0.115618
v 0.239652 1.025000 -0.084976
v 0.236291 0.815000 -0.165972
v 0.196899 1.025000 -0.159026
v 0.246388 0.815000 -0.223232
v 0.211747 1.025000 -0.243232
v 0.290928 0.815000 -0.260606
v 0.277248 1.025000 -0.298193
v 0.349072 0.815000 -0.260606
v 0.362753 1.025000 -0.298193
v 0.393612 0.815000 -0.223232
v 0.428253 1.025000 -0.243232
v 0.403709 0.815000 -0.165972
v 0.443101 1.025000 -0.159026
v 0.374637 0.815000 -0.115618
v 0.400348 1.025000 -0.084976
v 0.320000 0.819491 -0.119308
v 0.320000 1.029491 -0.079308
v 0.280518 0.819491 -0.133678
v 0.254806 1.029491 -0.103037
v 0.259509 0.819491 -0.170066
v 0.220117 1.029491 -0.163120
v 0.266805 0.819491 -0.211444
v 0.232164 1.029491 -0.231444
v 0.298992 0.819491 -0.238451
v 0.285311 1.029491 -0.276039
v 0.341008 0.819491 -0.238451
v 0.354689 1.029491 -0.276039
v 0.373195 0.819491 -0.211444
v 0.407836 1.029491 -0.231444
v 0.380491 0.819491 -0.170066
v 0.419883 1.029491 -0.163120
v 0.359483 0.819491 -0.133678
v 0.385194 1.029491 -0.103037
v 0.320000 0.980000 -0.043732
v 0.320000 1.030000 -0.043732
v 0.231938 0.980000 -0.075784
v 0.231938 1.030000 -0.075784
v 0.185081 0.980000 -0.156942
v 0.185081 1.030000 -0.156942
v 0.201355 0.980000 -0.249232
v 0.201355 1.030000 -0.249232
v 0.273143 0.980000 -0.309470
v 0.273143 1.030000 -0.309470
v 0.366857 0.980000 -0.309470
v 0.366857 1.030000 -0.309470
v 0.438646 0.980000 -0.249232
v 0.438645 1.030000 -0.249232
v 0.454919 0.980000 -0.156942
v 0.454919 1.030000 -0.156942
v 0.408062 0.980000 -0.075784
v 0.408062 1.030000 -0.075784
v 0.320000 0.980000 -0.063732
v 0.320000 1.030000 -0.063732
v 0.244794 0.980000 -0.091105
v 0.244794 1.030000 -0.091105
v 0.204778 0.980000 -0.160415
v 0.204778 1.030000 -0.160415
v 0.218675 0.980000 -0.239232
v 0.218675 1.030000 -0.239232
v 0.279984 0.980000 -0.290676
v 0.279984 1.030000 -0.290676
v 0.360016 0.980000 -0.290676
v 0.360016 1.030000 -0.290676
v 0.421325 0.980000 -0.239232
v 0.421325 1.030000 -0.239232
v 0.435223 0.980000 -0.160415
v 0.435223 1.030000 -0.160415
v 0.395206 0.980000 -0.091105
v 0.395206 1.030000 -0.091105
v 0.325392 1.082824 -0.175823
v 0.329869 1.079899 -0.170611
v 0.332706 1.084327 -0.175912
v 0.404709 1.030573 -0.171773
v 0.409048 1.027688 -0.177121
v 0.407545 1.035002 -0.177074
v 0.325243 1.082868 -0.187262
v 0.332557 1.084371 -0.187351
v 0.329583 1.079982 -0.192609
v 0.408899 1.027731 -0.188560
v 0.404422 1.030657 -0.193771
v 0.407397 1.035045 -0.188513
v 0.319097 1.073272 -0.175777
v 0.320600 1.065958 -0.175824
v 0.323574 1.070346 -0.170566
v 0.402753 1.018135 -0.177076
v 0.398414 1.021021 -0.171728
v 0.395440 1.016632 -0.176986
v 0.318948 1.073315 -0.187216
v 0.323288 1.070430 -0.192564
v 0.320451 1.066001 -0.187263
v 0.402604 1.018179 -0.188514
v 0.395291 1.016676 -0.188425
v 0.398127 1.021104 -0.193726
v 0.318888 1.077696 -0.178819
v 0.314491 1.074836 -0.173504
v 0.317319 1.070395 -0.178800
v 0.239174 1.026163 -0.172912
v 0.234701 1.023292 -0.178157
v 0.242001 1.021723 -0.178208
v 0.318806 1.077683 -0.190258
v 0.317237 1.070383 -0.190239
v 0.314333 1.074812 -0.195503
v 0.234619 1.023279 -0.189597
v 0.239016 1.026139 -0.194912
v 0.241919 1.021710 -0.189648
v 0.312679 1.087304 -0.178785
v 0.305378 1.088873 -0.178734
v 0.308282 1.084444 -0.173470
v 0.228492 1.032900 -0.178123
v 0.232965 1.035771 -0.172878
v 0.230061 1.040200 -0.178142
v 0.312597 1.087292 -0.190224
v 0.308124 1.084420 -0.195469
v 0.305297 1.088861 -0.190174
v 0.228410 1.032888 -0.189563
v 0.229979 1.040188 -0.189582
v 0.232807 1.035748 -0.194877
v 0.008615 1.301225 -0.206829
v -0.314356 1.356464 -0.205183
v 0.004354 1.277743 -0.181624
v -0.317764 1.337679 -0.185019
v -0.002304 1.243804 -0.184565
v -0.323091 1.310528 -0.187372
v -0.006345 1.224965 -0.213437
v -0.326324 1.295456 -0.210469
v -0.004727 1.235411 -0.246498
v -0.325029 1.303813 -0.236919
v 0.001332 1.267277 -0.258854
v -0.320182 1.329306 -0.246803
v 0.007270 1.296567 -0.241200
v -0.315431 1.352738 -0.232680
v -0.320000 1.055000 -0.133781
v -0.320000 1.265000 -0.093780
v -0.374637 1.055000 -0.153667
v -0.400348 1.265000 -0.123025
v -0.403709 1.055000 -0.204020
v -0.443101 1.265000 -0.197074
v -0.393612 1.055000 -0.261281
v -0.428253 1.265000 -0.281281
v -0.349072 1.055000 -0.298654
v -0.362753 1.265000 -0.336242
v -0.290928 1.055000 -0.298654
v -0.277248 1.265000 -0.336242
v -0.246388 1.055000 -0.261281
v -0.211747 1.265000 -0.281281
v -0.236291 1.055000 -0.204020
v -0.196899 1.265000 -0.197075
v -0.265363 1.055000 -0.153667
v -0.239652 1.265000 -0.123025
v -0.320000 1.059491 -0.157357
v -0.320000 1.269491 -0.117357
v -0.359482 1.059491 -0.171727
v -0.385194 1.269491 -0.141085
v -0.380491 1.059491 -0.208114
v -0.419883 1.269491 -0.201168
v -0.373195 1.059491 -0.249492
v -0.407836 1.269491 -0.269492
v -0.341008 1.059491 -0.276500
v -0.354689 1.269491 -0.314088
v -0.298992 1.059491 -0.276500
v -0.285311 1.269491 -0.314088
v -0.266805 1.059491 -0.249492
v -0.232164 1.269491 -0.269492
v -0.259509 1.059491 -0.208114
v -0.220117 1.269491 -0.201168
v -0.280517 1.059491 -0.171727
v -0.254806 1.269491 -0.141085
v -0.320000 1.220000 -0.081780
v -0.320000 1.270000 -0.081781
v -0.408062 1.220000 -0.113832
v -0.408062 1.270000 -0.113832
v -0.454919 1.220000 -0.194991
v -0.454919 1.270000 -0.194991
v -0.438645 1.220000 -0.287280
v -0.438646 1.270000 -0.287280
v -0.366857 1.220000 -0.347518
v -0.366857 1.270000 -0.347518
v -0.273143 1.220000 -0.347518
v -0.273143 1.270000 -0.347518
v -0.201355 1.220000 -0.287280
v -0.201355 1.270000 -0.287280
v -0.185081 1.220000 -0.194991
v -0.185081 1.270000 -0.194991
v -0.231938 1.220000 -0.113832
v -0.231938 1.270000 -0.113832
v -0.320000 1.220000 -0.101781
v -0.320000 1.270000 -0.101781
v -0.395206 1.220000 -0.129153
v -0.395206 1.270000 -0.129153
v -0.435223 1.220000 -0.198464
v -0.435223 1.270000 -0.198464
v -0.421325 1.220000 -0.277281
v -0.421325 1.270000 -0.277281
v -0.360016 1.220000 -0.328725
v -0.360016 1.270000 -0.328725
v -0.279984 1.220000 -0.328725
v -0.279984 1.270000 -0.328725
v -0.218675 1.220000 -0.277281
v -0.218675 1.270000 -0.277281
v -0.204778 1.220000 -0.198464
v -0.204778 1.270000 -0.198464
v -0.244794 1.220000 -0.129153
v -0.244794 1.270000 -0.129153
v -0.313378 1.328226 -0.210424
v -0.309007 1.325352 -0.205095
v -0.306068 1.329750 -0.210365
v -0.232260 1.275079 -0.204246
v -0.227798 1.272167 -0.209477
v -0.229321 1.279477 -0.209517
v -0.313278 1.328185 -0.221863
v -0.305969 1.329709 -0.221805
v -0.308816 1.325274 -0.227094
v -0.227698 1.272126 -0.220917
v -0.232069 1.275000 -0.226245
v -0.229222 1.279436 -0.220956
v -0.319647 1.318657 -0.210444
v -0.318123 1.311347 -0.210405
v -0.315276 1.315783 -0.205115
v -0.234066 1.262597 -0.209498
v -0.238529 1.265509 -0.204267
v -0.241376 1.261073 -0.209556
v -0.319547 1.318616 -0.221884
v -0.315084 1.315704 -0.227114
v -0.318023 1.311306 -0.221844
v -0.233967 1.262556 -0.220937
v -0.241276 1.261032 -0.220995
v -0.238337 1.265430 -0.226266
v -0.318920 1.312856 -0.211564
v -0.323316 1.309966 -0.206266
v -0.320460 1.305550 -0.211567
v -0.398423 1.261018 -0.205956
v -0.402873 1.258143 -0.211218
v -0.395567 1.256602 -0.211257
v -0.318978 1.312873 -0.223004
v -0.320518 1.305567 -0.223006
v -0.323428 1.309998 -0.228265
v -0.402931 1.258160 -0.222658
v -0.398535 1.261050 -0.227956
v -0.395625 1.256619 -0.222697
v -0.325166 1.322441 -0.211518
v -0.332472 1.323981 -0.211479
v -0.329562 1.319550 -0.206220
v -0.409119 1.267727 -0.211172
v -0.404669 1.270602 -0.205910
v -0.407578 1.275033 -0.211169
v -0.325224 1.322457 -0.222958
v -0.329674 1.319582 -0.228219
v -0.332530 1.323998 -0.222918
v -0.409177 1.267744 -0.222612
v -0.407636 1.275050 -0.222609
v -0.404781 1.270634 -0.227910
v 0.010503 1.442006 -0.263260
v 0.329002 1.518899 -0.266411
v 0.010232 1.446110 -0.228793
v 0.328785 1.522182 -0.238838
v 0.004290 1.474994 -0.210484
v 0.324031 1.545290 -0.224191
v -0.002849 1.506908 -0.222120
v 0.318321 1.570821 -0.233499
v -0.005808 1.517820 -0.254938
v 0.315953 1.579550 -0.259754
v -0.002359 1.499513 -0.284225
v 0.318712 1.564904 -0.283184
v 0.004900 1.465772 -0.287929
v 0.324519 1.537912 -0.286147
v 0.320000 1.275000 -0.168659
v 0.320000 1.485000 -0.128659
v 0.265363 1.275000 -0.188545
v 0.239652 1.485000 -0.157903
v 0.236291 1.275000 -0.238898
v 0.196899 1.485000 -0.231953
v 0.246388 1.275000 -0.296159
v 0.211747 1.485000 -0.316159
v 0.290928 1.275000 -0.333532
v 0.277247 1.485000 -0.371120
v 0.349072 1.275000 -0.333532
v 0.362752 1.485000 -0.371120
v 0.393612 1.275000 -0.296159
v 0.428253 1.485000 -0.316159
v 0.403709 1.275000 -0.238898
v 0.443101 1.485000 -0.231953
v 0.374637 1.275000 -0.188545
v 0.400348 1.485000 -0.157903
v 0.320000 1.279491 -0.192235
v 0.320000 1.489491 -0.152235
v 0.280517 1.279491 -0.206605
v 0.254806 1.489491 -0.175963
v 0.259509 1.279491 -0.242992
v 0.220117 1.489491 -0.236046
v 0.266805 1.279491 -0.284370
v 0.232164 1.489491 -0.304370
v 0.298992 1.279491 -0.311378
v 0.285311 1.489491 -0.348966
v 0.341008 1.279491 -0.311378
v 0.354689 1.489491 -0.348966
v 0.373195 1.279491 -0.284370
v 0.407836 1.489491 -0.304370
v 0.380491 1.279491 -0.242992
v 0.419883 1.489491 -0.236046
v 0.359483 1.279491 -0.206605
v 0.385194 1.489491 -0.175963
v 0.320000 1.440000 -0.116659
v 0.320000 1.490000 -0.116659
v 0.231938 1.440000 -0.148710
v 0.231938 1.490000 -0.148710
v 0.185081 1.440000 -0.229869
v 0.185081 1.490000 -0.229869
v 0.201355 1.440000 -0.322159
v 0.201355 1.490000 -0.322159
v 0.273143 1.440000 -0.382396
v 0.273143 1.490000 -0.382396
v 0.366857 1.440000 -0.382396
v 0.366857 1.490000 -0.382396
v 0.438645 1.440000 -0.322159
v 0.438645 1.490000 -0.322159
v 0.454919 1.440000 -0.229869
v 0.454919 1.490000 -0.229869
v 0.408062 1.440000 -0.148710
v 0.408062 1.490000 -0.148710
v 0.320000 1.440000 -0.136659
v 0.320000 1.490000 -0.136659
v 0.244794 1.440000 -0.164031
v 0.244794 1.490000 -0.164031
v 0.204777 1.440000 -0.233342
v 0.204777 1.490000 -0.233342
v 0.218675 1.440000 -0.312159
v 0.218675 1.490000 -0.312159
v 0.279984 1.440000 -0.363603
v 0.279984 1.490000 -0.363603
v 0.360016 1.440000 -0.363603
v 0.360016 1.490000 -0.363603
v 0.421325 1.440000 -0.312159
v 0.421325 1.490000 -0.312159
v 0.435223 1.440000 -0.233342
v 0.435223 1.490000 -0.233342
v 0.395206 1.440000 -0.164031
v 0.395206 1.490000 -0.164031
v 0.327155 1.545963 -0.248553
v 0.331622 1.543087 -0.243306
v 0.334454 1.547540 -0.248589
v 0.407079 1.494452 -0.243859
v 0.411488 1.491607 -0.249172
v 0.409910 1.498905 -0.249142
v 0.327092 1.545995 -0.259993
v 0.334391 1.547573 -0.260029
v 0.331501 1.543149 -0.265305
v 0.411425 1.491639 -0.260611
v 0.406958 1.494514 -0.265859
v 0.409847 1.498937 -0.260582
v 0.320958 1.536347 -0.248546
v 0.322535 1.529048 -0.248576
v 0.325425 1.533472 -0.243299
v 0.405290 1.481991 -0.249165
v 0.400881 1.484836 -0.243852
v 0.397992 1.480413 -0.249129
v 0.320895 1.536379 -0.259986
v 0.325303 1.533534 -0.265298
v 0.322472 1.529081 -0.260015
v 0.405227 1.482023 -0.260604
v 0.397929 1.480446 -0.260569
v 0.400760 1.484899 -0.265852
v 0.326287 1.538849 -0.245397
v 0.321846 1.535992 -0.240119
v 0.324737 1.531545 -0.245375
v 0.245324 1.486270 -0.240143
v 0.240911 1.483374 -0.245424
v 0.248215 1.481823 -0.245399
v 0.326318 1.538808 -0.256837
v 0.324767 1.531503 -0.256815
v 0.321905 1.535912 -0.262118
v 0.240941 1.483332 -0.256864
v 0.245383 1.486190 -0.262142
v 0.248246 1.481781 -0.256839
v 0.320054 1.548442 -0.245449
v 0.312750 1.549993 -0.245474
v 0.315613 1.545584 -0.240170
v 0.234678 1.492966 -0.245476
v 0.239091 1.495863 -0.240194
v 0.236228 1.500271 -0.245498
v 0.320085 1.548400 -0.256889
v 0.315672 1.545504 -0.262170
v 0.312781 1.549951 -0.256914
v 0.234708 1.492925 -0.256916
v 0.236259 1.500229 -0.256938
v 0.239150 1.495782 -0.262194
vn -0.4180 -0.1226 -0.9001
vn 0.4494 -0.1358 -0.8830
vn 0.9786 -0.0355 -0.2027
vn 0.7711 0.1029 0.6283
vn -0.0168 0.1750 0.9844
vn 0.0182 0.9870 -0.1598
vn -0.7919 0.1267 0.5974
vn -0.9704 -0.0057 -0.2413
vn -0.0182 -0.9870 0.1598
vn -0.1855 0.3743 0.9086
vn -0.8091 -0.1277 0.5737
vn -0.8255 -0.5295 -0.1953
vn -0.2225 -0.5285 -0.8192
vn 0.5459 -0.1255 -0.8284
vn -0.4271 0.8051 -0.4115
vn 0.9011 0.3760 -0.2158
vn 0.5756 0.5985 0.5572
vn 0.4271 -0.8051 0.4115
vn 0.5611 -0.6227 -0.5455
vn 0.8963 -0.3856 0.2190
vn 0.5589 0.1458 0.8163
vn -0.1972 0.5712 0.7968
vn -0.8025 0.5704 0.1750
vn 0.4494 0.7783 -0.4385
vn -0.8013 0.1440 -0.5807
vn -0.1944 -0.3870 -0.9014
vn -0.4494 -0.7783 0.4385
vn 0.2221 0.9552 -0.1955
vn 0.7969 0.5907 -0.1269
vn 0.9987 -0.0502 0.0011
vn 0.7333 -0.6677 0.1285
vn 0.1247 -0.9727 0.1958
vn -0.5422 -0.8226 0.1715
vn -0.9554 -0.2876 0.0669
vn 0.0089 0.1985 0.9801
vn -0.9216 0.3820 -0.0690
vn -0.4565 0.8728 -0.1726
vn -0.0089 -0.1985 -0.9801
vn -0.2095 0.9451 -0.2507
vn -0.0865 0.3985 -0.9131
vn 0.1178 -0.4443 -0.8881
vn 0.2495 -0.9486 -0.1946
vn 0.2094 -0.7347 0.6452
vn 0.9719 0.2352 -0.0135
vn 0.0277 0.0363 0.9990
vn -0.1587 0.7839 0.6002
vn -0.9719 -0.2352 0.0135
vn -0.3367 -0.1762 0.9250
vn -0.8525 -0.1762 0.4922
vn -0.9694 -0.1762 -0.1709
vn -0.6327 -0.1762 -0.7541
vn -0.0000 -0.1762 -0.9844
vn 0.6327 -0.1762 -0.7541
vn 0.9694 -0.1762 -0.1709
vn 0.8525 -0.1762 0.4922
vn 0.3367 -0.1762 0.9250
vn 0.3367 0.1762 -0.9250
vn 0.8525 0.1762 -0.4922
vn 0.9694 0.1762 0.1709
vn 0.6327 0.1762 0.7541
vn -0.0000 0.1762 0.9844
vn -0.6327 0.1762 0.7541
vn -0.9694 0.1762 0.1709
vn -0.8525 0.1762 -0.4922
vn -0.3367 0.1762 -0.9250
vn 0.0679 -0.9801 -0.1867
vn -0.0679 0.9801 0.1867
vn 0.1720 -0.9801 -0.0993
vn -0.1720 0.9801 0.0993
vn 0.1956 -0.9801 0.0345
vn -0.1956 0.9801 -0.0345
vn 0.1277 -0.9801 0.1522
vn -0.1277 0.9801 -0.1522
vn -0.0000 -0.9801 0.1987
vn -0.0000 0.9801 -0.1987
vn -0.1277 -0.9801 0.1522
vn 0.1277 0.9801 -0.1522
vn -0.1956 -0.9801 0.0345
vn 0.1956 0.9801 -0.0345
vn -0.1720 -0.9801 -0.0993
vn 0.1720 0.9801 0.0993
vn -0.0679 -0.9801 -0.1867
vn 0.0679 0.9801 0.1867
vn -0.3420 -0.0000 0.9397
vn -0.8660 -0.0000 0.5000
vn -0.9848 -0.0000 -0.1736
vn -0.6428 -0.0000 -0.7660
vn -0.0000 -0.0000 -1.0000
vn 0.6428 -0.0000 -0.7660
vn 0.9848 -0.0000 -0.1736
vn 0.8660 -0.0000 0.5000
vn 0.3420 -0.0000 0.9397
vn 0.3420 -0.0000 -0.9397
vn 0.8660 -0.0000 -0.5000
vn 0.9848 -0.0000 0.1736
vn 0.6428 -0.0000 0.7660
vn -0.0000 -0.0000 1.0000
vn -0.6428 -0.0000 0.7660
vn -0.9848 -0.0000 0.1736
vn -0.8660 -0.0000 -0.5000
vn -0.3420 -0.0000 -0.9397
vn -0.0000 -1.0000 -0.0000
vn -0.0000 1.0000 -0.0000
vn -0.1568 0.7976 0.5825
vn 0.8072 0.1622 0.5675
vn -0.1718 0.8020 -0.5721
vn 0.7922 0.1666 -0.5871
vn -0.7922 -0.1666 0.5871
vn 0.1718 -0.8020 0.5721
vn -0.8072 -0.1622 -0.5675
vn 0.1568 -0.7976 -0.5825
vn -0.2012 0.9795 0.0063
vn 0.3983 0.5877 0.7042
vn 0.9795 0.2013 -0.0120
vn 0.3799 0.5931 -0.7099
vn -0.5996 0.3918 -0.6979
vn 0.5812 -0.3864 -0.7162
vn -0.3983 -0.5877 -0.7042
vn -0.9795 -0.2013 0.0120
vn 0.2013 -0.9795 -0.0063
vn -0.3799 -0.5931 0.7099
vn -0.5811 0.3864 0.7162
vn 0.5996 -0.3918 0.6979
vn -0.8349 0.5502 0.0130
vn 0.5503 0.8350 -0.0040
vn 0.0130 -0.0038 0.9999
vn 0.8349 -0.5503 -0.0130
vn -0.0130 0.0038 -0.9999
vn -0.5503 -0.8350 0.0040
vn 0.8024 -0.1709 0.5718
vn -0.1674 -0.7977 0.5794
vn 0.7941 -0.1722 -0.5829
vn -0.1757 -0.7989 -0.5753
vn 0.1757 0.7989 0.5753
vn -0.7941 0.1722 0.5829
vn 0.1674 0.7977 -0.5794
vn -0.8024 0.1709 -0.5718
vn 0.9777 -0.2101 -0.0068
vn 0.3888 -0.5931 0.7050
vn -0.2101 -0.9777 0.0026
vn 0.3787 -0.5947 -0.7092
vn 0.5888 0.3830 -0.7117
vn -0.5989 -0.3845 -0.7024
vn -0.3888 0.5931 -0.7050
vn 0.2101 0.9777 -0.0026
vn -0.9777 0.2101 0.0068
vn -0.3787 0.5947 0.7092
vn 0.5989 0.3845 0.7024
vn -0.5888 -0.3830 0.7118
vn 0.8399 0.5427 -0.0066
vn 0.5427 -0.8399 -0.0030
vn 0.0072 0.0011 1.0000
vn -0.8399 -0.5427 0.0066
vn -0.0072 -0.0011 -1.0000
vn -0.5427 0.8399 0.0030
vn 0.1258 0.7152 0.6875
vn -0.0256 -0.0813 0.9964
vn -0.1740 -0.8134 0.5551
vn -0.2077 -0.9298 -0.3039
vn -0.1012 -0.3429 -0.9339
vn -0.9814 0.1915 0.0125
vn 0.0653 0.5054 -0.8604
vn 0.1663 0.9763 -0.1388
vn 0.9814 -0.1915 -0.0125
vn 0.1957 0.9801 -0.0345
vn 0.0680 0.9801 0.1867
vn -0.1716 0.8014 0.5730
vn 0.7943 0.1687 0.5837
vn -0.1616 0.7973 -0.5816
vn 0.8043 0.1645 -0.5710
vn -0.8043 -0.1645 0.5710
vn 0.1616 -0.7972 0.5816
vn -0.7943 -0.1687 -0.5837
vn 0.1716 -0.8014 -0.5730
vn -0.2040 0.9790 -0.0053
vn 0.3813 0.5940 0.7083
vn 0.9789 0.2041 0.0078
vn 0.3936 0.5890 -0.7058
vn -0.5853 0.3849 -0.7136
vn 0.5976 -0.3900 -0.7005
vn -0.3813 -0.5940 -0.7083
vn -0.9789 -0.2041 -0.0078
vn 0.2040 -0.9790 0.0053
vn -0.3936 -0.5890 0.7058
vn -0.5976 0.3900 0.7005
vn 0.5853 -0.3849 0.7136
vn -0.8365 0.5479 -0.0093
vn 0.5479 0.8365 0.0018
vn -0.0087 0.0036 1.0000
vn 0.8365 -0.5479 0.0093
vn 0.0087 -0.0036 -1.0000
vn -0.5479 -0.8365 -0.0018
vn 0.8018 -0.1693 0.5730
vn -0.1655 -0.7998 0.5770
vn 0.7960 -0.1676 -0.5816
vn -0.1714 -0.7981 -0.5777
vn 0.1714 0.7981 0.5777
vn -0.7960 0.1676 0.5816
vn 0.1655 0.7998 -0.5770
vn -0.8018 0.1693 -0.5730
vn 0.9785 -0.2063 -0.0053
vn 0.3897 -0.5934 0.7043
vn -0.2063 -0.9785 -0.0004
vn 0.3825 -0.5914 -0.7099
vn 0.5888 0.3871 -0.7095
vn -0.5960 -0.3850 -0.7047
vn -0.3897 0.5934 -0.7043
vn 0.2063 0.9785 0.0004
vn -0.9785 0.2063 0.0053
vn -0.3825 0.5914 0.7099
vn 0.5960 0.3850 0.7047
vn -0.5888 -0.3871 0.7095
vn 0.8378 0.5460 -0.0035
vn 0.5460 -0.8378 -0.0040
vn 0.0051 -0.0015 1.0000
vn -0.8378 -0.5460 0.0035
vn -0.0051 0.0015 -1.0000
vn -0.5460 0.8378 0.0040
vn 0.2342 -0.9652 0.1168
vn 0.1480 -0.5076 0.8488
vn -0.0335 0.3357 0.9414
vn -0.1735 0.9297 0.3248
vn -0.1667 0.8272 -0.5367
vn 0.9771 0.2121 -0.0176
vn -0.0182 0.1052 -0.9943
vn 0.1602 -0.6924 -0.7035
vn -0.9771 -0.2121 0.0176
vn -0.1693 0.7964 0.5805
vn 0.8012 0.1709 0.5734
vn -0.1757 0.7997 -0.5741
vn 0.7949 0.1741 -0.5813
vn -0.7949 -0.1741 0.5813
vn 0.1757 -0.7997 0.5741
vn -0.8012 -0.1709 -0.5734
vn 0.1693 -0.7964 -0.5805
vn -0.2113 0.9774 0.0039
vn 0.3870 0.5923 0.7067
vn 0.9774 0.2113 -0.0048
vn 0.3792 0.5963 -0.7075
vn -0.5982 0.3851 -0.7027
vn 0.5904 -0.3811 -0.7115
vn -0.3870 -0.5923 -0.7067
vn -0.9774 -0.2113 0.0048
vn 0.2113 -0.9774 -0.0039
vn -0.3792 -0.5964 0.7075
vn -0.5904 0.3811 0.7114
vn 0.5982 -0.3851 0.7027
vn -0.8405 0.5417 0.0062
vn 0.5418 0.8405 -0.0006
vn 0.0055 -0.0028 1.0000
vn 0.8405 -0.5418 -0.0062
vn -0.0055 0.0028 -1.0000
vn -0.5418 -0.8405 0.0006
vn 0.7971 -0.1674 0.5801
vn -0.1711 -0.7966 0.5798
vn 0.8002 -0.1717 -0.5746
vn -0.1680 -0.8008 -0.5749
vn 0.1680 0.8008 0.5749
vn -0.8002 0.1717 0.5746
vn 0.1711 0.7966 -0.5798
vn -0.7971 0.1674 -0.5801
vn 0.9782 -0.2077 0.0034
vn 0.3834 -0.5903 0.7103
vn -0.2077 -0.9782 0.0030
vn 0.3872 -0.5955 -0.7039
vn 0.5948 0.3827 -0.7069
vn -0.5910 -0.3879 -0.7073
vn -0.3834 0.5903 -0.7103
vn 0.2077 0.9782 -0.0030
vn -0.9782 0.2076 -0.0034
vn -0.3872 0.5955 0.7039
vn 0.5910 0.3879 0.7073
vn -0.5948 -0.3827 0.7069
vn 0.8385 0.5449 0.0003
vn 0.5448 -0.8385 0.0045
vn -0.0027 0.0036 1.0000
vn -0.8385 -0.5449 -0.0003
vn 0.0027 -0.0037 -1.0000
vn -0.5448 0.8385 -0.0045
vn 0.5756 0.5984 0.5572
vn -0.2013 0.9795 0.0063
vn -0.5812 0.3864 0.7162
vn -0.8349 0.5503 0.0130
vn 0.5888 0.3830 -0.7118
vn 0.8399 0.5428 -0.0066
vn -0.2076 -0.9298 -0.3039
vn -0.9814 0.1914 0.0125
vn 0.9814 -0.1914 -0.0125
vn -0.0680 0.9801 0.1867
vn -0.1721 0.9801 0.0993
vn -0.5960 -0.3850 -0.7046
vn -0.2112 0.9774 0.0039
vn 0.3870 0.5924 0.7067
vn 0.5905 -0.3811 -0.7114
vn -0.3870 -0.5924 -0.7067
vn -0.3792 -0.5963 0.7075
vn -0.5904 0.3811 0.7115
vn -0.8405 0.5418 0.0062
vn 0.8405 -0.5417 -0.0062
vn -0.2076 -0.9782 0.0030
vn -0.5910 -0.3878 -0.7073
vn -0.3834 0.5904 -0.7103
vn 0.2076 0.9782 -0.0030
vn -0.9782 0.2077 -0.0034
vn 0.5910 0.3878 0.7073
vn 0.0027 -0.0036 -1.0000
vt 1.000000 1.000000
vt 0.857143 0.500000
vt 1.000000 0.500000
vt 0.857143 1.000000
vt 0.714286 0.500000
vt 0.571429 1.000000
vt 0.571429 0.500000
vt 0.428571 1.000000
vt 0.428571 0.500000
vt 0.285714 1.000000
vt 0.285714 0.500000
vt 0.250000 0.490000
vt 0.016017 0.196595
vt 0.354132 0.033767
vt 0.142857 1.000000
vt 0.142857 0.500000
vt 0.000000 1.000000
vt 0.000000 0.500000
vt 0.937640 0.399638
vt 0.854132 0.033767
vt 0.516017 0.196595
vt 0.714286 1.000000
vt 0.016017 0.196595
vt 0.354132 0.033767
vt 0.937640 0.399638
vt 0.516017 0.196595
vt 0.888889 0.500000
vt 0.888889 1.000000
vt 0.777778 0.500000
vt 0.666667 1.000000
vt 0.666667 0.500000
vt 0.555556 0.500000
vt 0.444444 1.000000
vt 0.444444 0.500000
vt 0.333333 0.500000
vt 0.333333 1.000000
vt 0.222222 0.500000
vt 0.167915 0.024474
vt 0.457846 0.130000
vt 0.222222 1.000000
vt 0.111111 0.500000
vt 0.111111 1.000000
vt 0.000000 0.500000
vt 0.904269 0.433851
vt 0.667915 0.024474
vt 0.513646 0.291676
vt 0.016017 0.196595
vt 0.555556 1.000000
vt 0.777778 1.000000
vt 0.000000 1.000000
vt 0.185000 0.690000
vt 0.185000 0.750000
vt 0.125000 0.690000
vt 0.611826 0.940000
vt 0.625000 0.940000
vt 0.611826 1.000000
vt 0.185000 0.560000
vt 0.125000 0.560000
vt 0.185000 0.500000
vt 0.625000 0.257429
vt 0.611826 0.310000
vt 0.611826 0.190803
vt 0.315000 0.690000
vt 0.387997 0.690000
vt 0.383730 0.806357
vt 0.664826 0.730348
vt 0.611826 0.810000
vt 0.611826 0.690803
vt 0.315000 0.560000
vt 0.383730 0.443643
vt 0.387997 0.560000
vt 0.664826 0.528543
vt 0.611826 0.560000
vt 0.611826 0.440803
vt 0.388174 0.000000
vt 0.611826 0.060000
vt 0.388174 0.060000
vt 0.625000 0.060000
vt 0.388174 0.190000
vt 0.388174 0.940000
vt 0.815000 0.690000
vt 0.388174 0.310000
vt 0.185000 0.690000
vt 0.185000 0.750000
vt 0.125000 0.690000
vt 0.611831 0.940000
vt 0.625000 0.940000
vt 0.611831 1.000000
vt 0.185000 0.560000
vt 0.125000 0.560000
vt 0.185000 0.500000
vt 0.625000 0.257429
vt 0.611831 0.310000
vt 0.611831 0.190802
vt 0.315000 0.690000
vt 0.387993 0.690000
vt 0.383727 0.806358
vt 0.664826 0.730348
vt 0.611831 0.810000
vt 0.611831 0.690802
vt 0.315000 0.560000
vt 0.383727 0.443642
vt 0.387993 0.560000
vt 0.664826 0.528543
vt 0.611831 0.560000
vt 0.611831 0.440802
vt 0.388169 0.000000
vt 0.611831 0.060000
vt 0.388169 0.060000
vt 0.625000 0.060000
vt 0.388169 0.310000
vt 0.388169 0.190000
vt 0.388169 0.940000
vt 0.815000 0.560000
vt 0.185000 0.750000
vt 0.612098 0.940000
vt 0.612098 1.000000
vt 0.185000 0.560000
vt 0.185000 0.500000
vt 0.612098 0.310000
vt 0.612098 0.190785
vt 0.387733 0.690000
vt 0.383571 0.806436
vt 0.612098 0.810000
vt 0.612098 0.690785
vt 0.383571 0.443564
vt 0.387733 0.560000
vt 0.664826 0.528543
vt 0.612098 0.560000
vt 0.612098 0.440785
vt 0.387902 0.000000
vt 0.612098 0.060000
vt 0.387902 0.060000
vt 0.387902 0.310000
vt 0.387902 0.190000
vt 0.387902 0.940000
vt 0.815000 0.560000
vt 0.185000 0.690000
vt 0.125000 0.690000
vt 0.611828 0.940000
vt 0.625000 0.940000
vt 0.611828 1.000000
vt 0.185000 0.560000
vt 0.625000 0.257429
vt 0.611828 0.310000
vt 0.611828 0.190803
vt 0.387996 0.690000
vt 0.383730 0.806357
vt 0.664826 0.730348
vt 0.611828 0.810000
vt 0.611828 0.690803
vt 0.315000 0.560000
vt 0.383730 0.443643
vt 0.387996 0.560000
vt 0.664826 0.528543
vt 0.611828 0.560000
vt 0.611828 0.440803
vt 0.611828 0.000000
vt 0.388173 0.060000
vt 0.388172 0.000000
vt 0.611828 0.060000
vt 0.388172 0.190000
vt 0.388172 0.940000
vt 0.388173 0.310000
vt 0.185000 0.690000
vt 0.185000 0.750000
vt 0.611844 0.940000
vt 0.625000 0.940000
vt 0.611844 1.000000
vt 0.185000 0.560000
vt 0.625000 0.257429
vt 0.611844 0.310000
vt 0.611844 0.190802
vt 0.315000 0.690000
vt 0.387980 0.690000
vt 0.383720 0.806362
vt 0.611844 0.810000
vt 0.611844 0.690802
vt 0.315000 0.560000
vt 0.383720 0.443638
vt 0.387980 0.560000
vt 0.611844 0.560000
vt 0.611844 0.440802
vt 0.611844 0.000000
vt 0.388156 0.060000
vt 0.388156 0.000000
vt 0.611844 0.060000
vt 0.388156 0.190000
vt 0.388156 0.940000
vt 0.388156 0.310000
vt 0.612036 0.940000
vt 0.612036 1.000000
vt 0.612036 0.310000
vt 0.612036 0.190789
vt 0.387794 0.690000
vt 0.383608 0.806417
vt 0.612036 0.810000
vt 0.612036 0.690789
vt 0.383608 0.443583
vt 0.387794 0.560000
vt 0.612036 0.560000
vt 0.612036 0.440789
vt 0.612036 0.000000
vt 0.387964 0.060000
vt 0.387964 0.000000
vt 0.612036 0.060000
vt 0.387964 0.190000
vt 0.387964 0.940000
vt 0.815000 0.690000
vt 0.387964 0.310000
vt 0.483983 0.196595
vt 0.437640 0.399638
vt 0.062360 0.399638
vt 0.145868 0.033767
vt 0.562360 0.399638
vt 0.750000 0.490000
vt 0.983983 0.196595
vt 0.645868 0.033767
vt 0.483983 0.196595
vt 0.062360 0.399638
vt 0.145868 0.033767
vt 0.562360 0.399638
vt 0.750000 0.490000
vt 0.983983 0.196595
vt 0.486354 0.291676
vt 0.404269 0.433851
vt 0.095731 0.433851
vt 0.013646 0.291676
vt 0.042154 0.130000
vt 0.332085 0.024474
vt 0.595731 0.433851
vt 0.986354 0.291676
vt 0.957846 0.130000
vt 0.832085 0.024474
vt 0.542154 0.130000
vt 0.611826 0.000000
vt 0.611831 0.000000
vt 0.612098 0.000000
s 0
usemtl wood
f 2/1/1 3/2/1 1/3/1
f 4/4/2 5/5/2 3/2/2
f 5/5/3 8/6/3 7/7/3
f 7/7/4 10/8/4 9/9/4
f 9/9/5 12/10/5 11/11/5
f 2/12/6 12/13/6 8/14/6
f 11/11/7 14/15/7 13/16/7
f 13/16/8 2/17/8 1/18/8
f 3/19/9 7/20/9 11/21/9
f 16/1/10 17/2/10 15/3/10
f 18/4/11 19/5/11 17/2/11
f 20/22/12 21/7/12 19/5/12
f 22/6/13 23/9/13 21/7/13
f 24/8/14 25/11/14 23/9/14
f 16/12/15 26/23/15 22/24/15
f 25/11/16 28/15/16 27/16/16
f 28/15/17 15/18/17 27/16/17
f 17/25/18 21/20/18 25/26/18
f 30/1/19 31/2/19 29/3/19
f 31/2/20 34/22/20 33/5/20
f 34/22/21 35/7/21 33/5/21
f 36/6/22 37/9/22 35/7/22
f 38/8/23 39/11/23 37/9/23
f 30/12/24 40/23/24 36/24/24
f 40/10/25 41/16/25 39/11/25
f 42/15/26 29/18/26 41/16/26
f 31/25/27 35/20/27 39/26/27
f 62/1/39 63/2/39 61/3/39
f 63/2/40 66/22/40 65/5/40
f 65/5/41 68/6/41 67/7/41
f 68/6/42 69/9/42 67/7/42
f 70/8/43 71/11/43 69/9/43
f 62/12/44 72/47/44 68/14/44
f 72/10/45 73/16/45 71/11/45
f 73/16/46 62/17/46 61/18/46
f 63/25/47 67/20/47 71/21/47
f 196/1/156 197/2/156 195/3/156
f 198/4/157 199/5/157 197/2/157
f 200/22/158 201/7/158 199/5/158
f 201/7/159 204/8/159 203/9/159
f 203/9/160 206/10/160 205/11/160
f 196/12/161 206/47/161 202/14/161
f 206/10/162 207/16/162 205/11/162
f 207/16/163 196/17/163 195/18/163
f 197/25/164 201/20/164 205/21/164
f 330/1/219 331/2/219 329/3/219
f 331/2/220 334/22/220 333/5/220
f 334/22/221 335/7/221 333/5/221
f 336/6/222 337/9/222 335/7/222
f 338/8/223 339/11/223 337/9/223
f 330/12/224 340/47/224 336/14/224
f 339/11/225 342/15/225 341/16/225
f 341/16/226 330/17/226 329/18/226
f 331/25/227 335/20/227 339/21/227
f 2/1/1 4/4/1 3/2/1
f 4/4/2 6/22/2 5/5/2
f 5/5/3 6/22/3 8/6/3
f 7/7/4 8/6/4 10/8/4
f 9/9/5 10/8/5 12/10/5
f 6/211/6 4/212/6 2/12/6
f 2/12/6 14/213/6 12/13/6
f 12/13/6 10/214/6 8/14/6
f 8/14/6 6/211/6 2/12/6
f 11/11/7 12/10/7 14/15/7
f 13/16/8 14/15/8 2/17/8
f 13/215/9 1/216/9 3/19/9
f 3/19/9 5/217/9 7/20/9
f 7/20/9 9/218/9 11/21/9
f 11/21/9 13/215/9 3/19/9
f 16/1/10 18/4/10 17/2/10
f 18/4/11 20/22/11 19/5/11
f 20/22/12 22/6/12 21/7/12
f 22/6/13 24/8/13 23/9/13
f 24/8/14 26/10/14 25/11/14
f 20/219/15 18/212/15 16/12/15
f 16/12/15 28/220/15 26/23/15
f 26/23/15 24/221/15 22/24/15
f 22/24/15 20/219/15 16/12/15
f 25/11/16 26/10/16 28/15/16
f 28/15/280 16/17/280 15/18/280
f 27/222/18 15/223/18 17/25/18
f 17/25/18 19/224/18 21/20/18
f 21/20/18 23/218/18 25/26/18
f 25/26/18 27/222/18 17/25/18
f 30/1/19 32/4/19 31/2/19
f 31/2/20 32/4/20 34/22/20
f 34/22/21 36/6/21 35/7/21
f 36/6/22 38/8/22 37/9/22
f 38/8/23 40/10/23 39/11/23
f 34/219/24 32/212/24 30/12/24
f 30/12/24 42/220/24 40/23/24
f 40/23/24 38/221/24 36/24/24
f 36/24/24 34/219/24 30/12/24
f 40/10/25 42/15/25 41/16/25
f 42/15/26 30/17/26 29/18/26
f 41/222/27 29/223/27 31/25/27
f 31/25/27 33/224/27 35/20/27
f 35/20/27 37/218/27 39/26/27
f 39/26/27 41/222/27 31/25/27
f 62/1/39 64/4/39 63/2/39
f 63/2/40 64/4/40 66/22/40
f 65/5/41 66/22/41 68/6/41
f 68/6/42 70/8/42 69/9/42
f 70/8/43 72/10/43 71/11/43
f 66/219/44 64/212/44 62/12/44
f 62/12/44 74/213/44 72/47/44
f 72/47/44 70/214/44 68/14/44
f 68/14/44 66/219/44 62/12/44
f 72/10/45 74/15/45 73/16/45
f 73/16/46 74/15/46 62/17/46
f 73/222/47 61/216/47 63/25/47
f 63/25/47 65/217/47 67/20/47
f 67/20/47 69/218/47 71/21/47
f 71/21/47 73/222/47 63/25/47
f 196/1/156 198/4/156 197/2/156
f 198/4/157 200/22/157 199/5/157
f 200/22/158 202/6/158 201/7/158
f 201/7/286 202/6/286 204/8/286
f 203/9/160 204/8/160 206/10/160
f 200/219/287 198/212/287 196/12/287
f 196/12/161 208/213/161 206/47/161
f 206/47/161 204/214/161 202/14/161
f 202/14/161 200/219/161 196/12/161
f 206/10/162 208/15/162 207/16/162
f 207/16/163 208/15/163 196/17/163
f 207/222/288 195/216/288 197/25/288
f 197/25/164 199/217/164 201/20/164
f 201/20/288 203/218/288 205/21/288
f 205/21/164 207/222/164 197/25/164
f 330/1/219 332/4/219 331/2/219
f 331/2/220 332/4/220 334/22/220
f 334/22/221 336/6/221 335/7/221
f 336/6/222 338/8/222 337/9/222
f 338/8/223 340/10/223 339/11/223
f 334/219/224 332/212/224 330/12/224
f 330/12/224 342/213/224 340/47/224
f 340/47/224 338/214/224 336/14/224
f 336/14/224 334/219/224 330/12/224
f 339/11/225 340/10/225 342/15/225
f 341/16/226 342/15/226 330/17/226
f 341/222/227 329/216/227 331/25/227
f 331/25/227 333/217/227 335/20/227
f 335/20/227 337/218/227 339/21/227
f 339/21/227 341/222/227 331/25/227
usemtl rope
f 44/1/28 45/27/28 43/3/28
f 46/28/29 47/29/29 45/27/29
f 47/29/30 50/30/30 49/31/30
f 50/30/31 51/32/31 49/31/31
f 51/32/32 54/33/32 53/34/32
f 54/33/33 55/35/33 53/34/33
f 56/36/34 57/37/34 55/35/34
f 44/12/35 54/38/35 50/39/35
f 58/40/36 59/41/36 57/37/36
f 60/42/37 43/43/37 59/41/37
f 45/44/38 53/45/38 57/46/38
f 112/1/84 113/27/84 111/3/84
f 113/27/85 116/49/85 115/29/85
f 116/49/86 117/31/86 115/29/86
f 118/30/87 119/32/87 117/31/87
f 119/32/88 122/33/88 121/34/88
f 121/34/89 124/36/89 123/35/89
f 124/36/90 125/37/90 123/35/90
f 126/40/91 127/41/91 125/37/91
f 127/41/92 112/50/92 111/43/92
f 131/27/93 130/1/93 129/3/93
f 131/27/94 134/49/94 132/28/94
f 133/29/95 136/30/95 134/49/95
f 137/32/96 136/30/96 135/31/96
f 139/34/97 138/48/97 137/32/97
f 139/34/98 142/36/98 140/33/98
f 143/37/99 142/36/99 141/35/99
f 143/37/100 146/42/100 144/40/100
f 145/41/101 130/50/101 146/42/101
f 113/27/102 129/3/102 111/3/102
f 114/28/103 130/1/103 132/28/103
f 115/29/102 131/27/102 113/27/102
f 114/28/103 134/49/103 116/49/103
f 117/31/102 133/29/102 115/29/102
f 116/49/103 136/30/103 118/30/103
f 119/32/102 135/31/102 117/31/102
f 118/30/103 138/48/103 120/48/103
f 121/34/102 137/32/102 119/32/102
f 122/33/103 138/48/103 140/33/103
f 121/34/102 141/35/102 139/34/102
f 122/33/103 142/36/103 124/36/103
f 125/37/102 141/35/102 123/35/102
f 124/36/103 144/40/103 126/40/103
f 127/41/102 143/37/102 125/37/102
f 128/42/103 144/40/103 146/42/103
f 111/43/102 145/41/102 127/41/102
f 128/42/103 130/50/103 112/50/103
f 147/51/104 148/52/104 149/53/104
f 150/54/105 151/55/105 152/56/105
f 153/57/106 154/58/106 155/59/106
f 156/60/107 157/61/107 158/62/107
f 159/63/108 160/64/108 161/65/108
f 162/66/109 163/67/109 164/68/109
f 165/69/110 166/70/110 167/71/110
f 168/72/111 169/73/111 170/74/111
f 147/51/112 154/58/112 153/57/112
f 148/75/113 152/76/113 149/77/113
f 151/78/114 158/62/114 152/76/114
f 157/61/115 154/79/115 158/62/115
f 165/69/116 155/59/116 166/70/116
f 168/72/117 157/61/117 156/60/117
f 167/71/118 170/74/118 169/73/118
f 165/69/119 160/64/119 159/63/119
f 168/72/120 164/68/120 169/73/120
f 163/67/121 160/64/121 164/68/121
f 147/51/122 161/65/122 148/52/122
f 162/66/123 150/54/123 163/67/123
f 165/69/124 147/51/124 153/57/124
f 152/76/125 154/79/125 149/77/125
f 161/65/126 150/54/126 148/80/126
f 168/72/127 151/81/127 162/66/127
f 157/61/128 166/70/128 155/82/128
f 169/73/129 160/64/129 167/71/129
f 171/83/130 172/84/130 173/85/130
f 174/86/131 175/87/131 176/88/131
f 177/89/132 178/90/132 179/91/132
f 180/92/133 181/93/133 182/94/133
f 183/95/134 184/96/134 185/97/134
f 186/98/135 187/99/135 188/100/135
f 189/101/136 190/102/136 191/103/136
f 192/104/137 193/105/137 194/106/137
f 171/83/138 178/90/138 177/89/138
f 172/107/139 176/108/139 173/109/139
f 175/110/140 182/94/140 176/108/140
f 179/111/141 182/94/141 181/93/141
f 177/89/142 190/102/142 189/101/142
f 192/104/143 181/93/143 180/92/143
f 191/103/144 194/106/144 193/105/144
f 189/101/145 184/96/145 183/95/145
f 192/104/146 188/100/146 193/105/146
f 185/97/147 188/100/147 187/99/147
f 183/95/148 172/84/148 171/83/148
f 175/87/149 187/99/149 186/98/149
f 177/89/150 183/95/150 171/83/150
f 173/109/151 182/94/151 178/112/151
f 185/97/152 174/86/152 172/113/152
f 180/114/153 186/98/153 192/104/153
f 181/93/154 190/102/154 179/111/154
f 193/105/155 184/96/155 191/103/155
f 246/1/84 247/27/84 245/3/84
f 248/28/85 249/29/85 247/27/85
f 250/49/86 251/31/86 249/29/86
f 252/30/87 253/32/87 251/31/87
f 253/32/88 256/33/88 255/34/88
f 256/33/89 257/35/89 255/34/89
f 257/35/90 260/40/90 259/37/90
f 260/40/91 261/41/91 259/37/91
f 262/42/92 245/43/92 261/41/92
f 263/3/93 266/28/93 264/1/93
f 267/29/94 266/28/94 265/27/94
f 269/31/95 268/49/95 267/29/95
f 269/31/96 272/48/96 270/30/96
f 273/34/97 272/48/97 271/32/97
f 273/34/98 276/36/98 274/33/98
f 277/37/99 276/36/99 275/35/99
f 279/41/100 278/40/100 277/37/100
f 279/41/101 264/50/101 280/42/101
f 247/27/102 263/3/102 245/3/102
f 246/1/103 266/28/103 248/28/103
f 247/27/102 267/29/102 265/27/102
f 250/49/103 266/28/103 268/49/103
f 249/29/102 269/31/102 267/29/102
f 252/30/103 268/49/103 270/30/103
f 253/32/102 269/31/102 251/31/102
f 254/48/103 270/30/103 272/48/103
f 255/34/102 271/32/102 253/32/102
f 254/48/103 274/33/103 256/33/103
f 255/34/102 275/35/102 273/34/102
f 256/33/103 276/36/103 258/36/103
f 259/37/102 275/35/102 257/35/102
f 260/40/103 276/36/103 278/40/103
f 261/41/102 277/37/102 259/37/102
f 262/42/103 278/40/103 280/42/103
f 261/41/102 263/43/102 279/41/102
f 262/42/103 264/50/103 246/50/103
f 281/51/167 282/115/167 283/53/167
f 284/116/168 285/55/168 286/117/168
f 287/118/169 288/90/169 289/119/169
f 290/92/170 291/120/170 292/121/170
f 293/63/171 294/122/171 295/123/171
f 296/66/172 297/124/172 298/125/172
f 299/69/173 300/126/173 301/127/173
f 302/128/174 303/129/174 304/130/174
f 281/51/175 288/90/175 287/118/175
f 282/131/176 286/132/176 283/133/176
f 290/92/177 286/132/177 285/78/177
f 289/134/178 292/121/178 291/120/178
f 287/118/179 300/126/179 299/69/179
f 302/128/180 291/120/180 290/92/180
f 301/127/181 304/130/181 303/129/181
f 299/69/182 294/122/182 293/63/182
f 302/128/183 298/125/183 303/129/183
f 295/123/184 298/125/184 297/124/184
f 281/51/185 295/123/185 282/115/185
f 296/66/186 284/116/186 297/124/186
f 287/118/187 293/63/187 281/51/187
f 286/132/188 288/135/188 283/133/188
f 297/124/189 282/136/189 295/123/189
f 290/137/190 296/66/190 302/128/190
f 291/120/191 300/126/191 289/134/191
f 301/127/192 298/125/192 294/122/192
f 305/138/193 306/84/193 307/139/193
f 308/140/194 309/141/194 310/142/194
f 311/143/195 312/58/195 313/59/195
f 314/144/196 315/145/196 316/146/196
f 317/95/197 318/147/197 319/148/197
f 320/149/198 321/150/198 322/151/198
f 323/152/199 324/153/199 325/154/199
f 326/155/200 327/156/200 328/157/200
f 305/138/201 312/58/201 311/143/201
f 308/158/202 307/159/202 306/160/202
f 314/144/203 310/161/203 309/110/203
f 315/145/204 312/162/204 316/146/204
f 311/143/205 324/153/205 323/152/205
f 314/144/206 328/157/206 315/145/206
f 325/154/207 328/157/207 327/156/207
f 323/152/208 318/147/208 317/95/208
f 326/155/209 322/151/209 327/156/209
f 319/148/210 322/151/210 321/150/210
f 317/95/211 306/84/211 305/138/211
f 309/141/212 321/150/212 320/149/212
f 323/152/213 305/138/213 311/143/213
f 307/159/214 316/146/214 312/162/214
f 321/150/215 306/163/215 319/148/215
f 314/114/216 320/149/216 326/155/216
f 315/145/217 324/153/217 313/164/217
f 325/154/218 322/151/218 318/147/218
f 379/3/84 382/28/84 381/27/84
f 381/27/85 384/49/85 383/29/85
f 384/49/86 385/31/86 383/29/86
f 386/30/87 387/32/87 385/31/87
f 388/48/88 389/34/88 387/32/88
f 390/33/89 391/35/89 389/34/89
f 392/36/90 393/37/90 391/35/90
f 393/37/91 396/42/91 395/41/91
f 396/42/92 379/43/92 395/41/92
f 397/3/93 400/28/93 398/1/93
f 401/29/94 400/28/94 399/27/94
f 401/29/95 404/30/95 402/49/95
f 405/32/96 404/30/96 403/31/96
f 407/34/97 406/48/97 405/32/97
f 409/35/98 408/33/98 407/34/98
f 409/35/99 412/40/99 410/36/99
f 411/37/100 414/42/100 412/40/100
f 397/43/101 414/42/101 413/41/101
f 381/27/102 397/3/102 379/3/102
f 380/1/103 400/28/103 382/28/103
f 383/29/102 399/27/102 381/27/102
f 382/28/103 402/49/103 384/49/103
f 385/31/102 401/29/102 383/29/102
f 384/49/103 404/30/103 386/30/103
f 387/32/102 403/31/102 385/31/102
f 388/48/103 404/30/103 406/48/103
f 389/34/102 405/32/102 387/32/102
f 388/48/103 408/33/103 390/33/103
f 391/35/102 407/34/102 389/34/102
f 390/33/103 410/36/103 392/36/103
f 393/37/102 409/35/102 391/35/102
f 392/36/103 412/40/103 394/40/103
f 393/37/102 413/41/102 411/37/102
f 394/40/103 414/42/103 396/42/103
f 395/41/102 397/43/102 413/41/102
f 380/50/103 414/42/103 398/50/103
f 415/165/228 416/166/228 417/53/228
f 418/167/229 419/168/229 420/169/229
f 421/170/230 422/58/230 423/119/230
f 424/171/231 425/172/231 426/173/231
f 427/174/232 428/175/232 429/176/232
f 430/98/233 431/177/233 432/178/233
f 433/179/234 434/180/234 435/181/234
f 436/104/235 437/182/235 438/183/235
f 421/170/236 417/53/236 422/58/236
f 418/184/237 417/185/237 416/186/237
f 424/171/238 420/187/238 419/110/238
f 425/172/239 422/188/239 426/173/239
f 433/179/240 423/119/240 434/180/240
f 436/104/241 425/172/241 424/171/241
f 437/182/242 434/180/242 438/183/242
f 427/174/243 435/181/243 428/175/243
f 436/104/244 432/178/244 437/182/244
f 431/177/245 428/175/245 432/178/245
f 415/165/246 429/176/246 416/166/246
f 419/168/247 431/177/247 430/98/247
f 433/179/248 415/165/248 421/170/248
f 417/185/249 426/173/249 422/188/249
f 429/176/250 418/167/250 416/189/250
f 424/114/251 430/98/251 436/104/251
f 425/172/252 434/180/252 423/190/252
f 437/182/253 428/175/253 435/181/253
f 439/165/254 440/166/254 441/53/254
f 442/191/255 443/168/255 444/192/255
f 445/170/256 446/58/256 447/119/256
f 448/171/257 449/193/257 450/194/257
f 451/174/258 452/195/258 453/196/258
f 454/98/259 455/197/259 456/198/259
f 457/179/260 458/199/260 459/200/260
f 460/104/261 461/201/261 462/202/261
f 439/165/262 446/58/262 445/170/262
f 442/203/263 441/204/263 440/205/263
f 448/171/264 444/206/264 443/110/264
f 449/193/265 446/207/265 450/194/265
f 457/179/266 447/119/266 458/199/266
f 448/171/267 462/202/267 449/193/267
f 459/200/268 462/202/268 461/201/268
f 457/179/269 452/195/269 451/174/269
f 454/98/270 461/201/270 460/104/270
f 453/196/271 456/198/271 455/197/271
f 439/165/272 453/196/272 440/166/272
f 443/168/273 455/197/273 454/98/273
f 457/179/274 439/165/274 445/170/274
f 444/206/275 446/207/275 441/204/275
f 453/196/276 442/191/276 440/208/276
f 460/104/277 443/209/277 454/98/277
f 449/193/278 458/199/278 447/210/278
f 459/200/279 456/198/279 452/195/279
f 44/1/28 46/28/28 45/27/28
f 46/28/29 48/49/29 47/29/29
f 47/29/30 48/49/30 50/30/30
f 50/30/31 52/48/31 51/32/31
f 51/32/32 52/48/32 54/33/32
f 54/33/33 56/36/33 55/35/33
f 56/36/34 58/40/34 57/37/34
f 48/225/35 46/226/35 44/12/35
f 44/12/35 60/227/35 58/228/35
f 58/228/35 56/229/35 54/38/35
f 54/38/35 52/230/35 50/39/35
f 50/39/35 48/225/35 44/12/35
f 44/12/35 58/228/35 54/38/35
f 58/40/36 60/42/36 59/41/36
f 60/42/37 44/50/37 43/43/37
f 59/231/38 43/216/38 45/44/38
f 45/44/38 47/232/38 49/233/38
f 49/233/38 51/234/38 53/45/38
f 53/45/38 55/235/38 57/46/38
f 57/46/38 59/231/38 45/44/38
f 45/44/38 49/233/38 53/45/38
f 112/1/84 114/28/84 113/27/84
f 113/27/85 114/28/85 116/49/85
f 116/49/86 118/30/86 117/31/86
f 118/30/87 120/48/87 119/32/87
f 119/32/88 120/48/88 122/33/88
f 121/34/89 122/33/89 124/36/89
f 124/36/90 126/40/90 125/37/90
f 126/40/91 128/42/91 127/41/91
f 127/41/92 128/42/92 112/50/92
f 131/27/93 132/28/93 130/1/93
f 131/27/94 133/29/94 134/49/94
f 133/29/95 135/31/95 136/30/95
f 137/32/96 138/48/96 136/30/96
f 139/34/97 140/33/97 138/48/97
f 139/34/98 141/35/98 142/36/98
f 143/37/99 144/40/99 142/36/99
f 143/37/100 145/41/100 146/42/100
f 145/41/101 129/43/101 130/50/101
f 113/27/102 131/27/102 129/3/102
f 114/28/103 112/1/103 130/1/103
f 115/29/102 133/29/102 131/27/102
f 114/28/103 132/28/103 134/49/103
f 117/31/102 135/31/102 133/29/102
f 116/49/103 134/49/103 136/30/103
f 119/32/102 137/32/102 135/31/102
f 118/30/103 136/30/103 138/48/103
f 121/34/102 139/34/102 137/32/102
f 122/33/103 120/48/103 138/48/103
f 121/34/102 123/35/102 141/35/102
f 122/33/103 140/33/103 142/36/103
f 125/37/102 143/37/102 141/35/102
f 124/36/103 142/36/103 144/40/103
f 127/41/102 145/41/102 143/37/102
f 128/42/103 126/40/103 144/40/103
f 111/43/102 129/43/102 145/41/102
f 128/42/103 146/42/103 130/50/103
f 147/51/281 149/53/281 154/58/281
f 148/75/113 150/236/113 152/76/113
f 151/78/114 156/60/114 158/62/114
f 157/61/115 155/82/115 154/79/115
f 165/69/116 153/57/116 155/59/116
f 168/72/117 170/74/117 157/61/117
f 167/71/118 166/70/118 170/74/118
f 165/69/119 167/71/119 160/64/119
f 168/72/120 162/66/120 164/68/120
f 163/67/121 161/65/121 160/64/121
f 147/51/282 159/63/282 161/65/282
f 162/66/123 151/55/123 150/54/123
f 165/69/283 159/63/283 147/51/283
f 152/76/125 158/62/125 154/79/125
f 161/65/126 163/67/126 150/54/126
f 168/72/127 156/137/127 151/81/127
f 157/61/128 170/74/128 166/70/128
f 169/73/129 164/68/129 160/64/129
f 171/83/138 173/85/138 178/90/138
f 172/107/139 174/237/139 176/108/139
f 175/110/140 180/92/140 182/94/140
f 179/111/141 178/112/141 182/94/141
f 177/89/284 179/91/284 190/102/284
f 192/104/143 194/106/143 181/93/143
f 191/103/144 190/102/144 194/106/144
f 189/101/145 191/103/145 184/96/145
f 192/104/146 186/98/146 188/100/146
f 185/97/147 184/96/147 188/100/147
f 183/95/148 185/97/148 172/84/148
f 175/87/149 174/86/149 187/99/149
f 177/89/285 189/101/285 183/95/285
f 173/109/151 176/108/151 182/94/151
f 185/97/152 187/99/152 174/86/152
f 180/114/153 175/209/153 186/98/153
f 181/93/154 194/106/154 190/102/154
f 193/105/155 188/100/155 184/96/155
f 246/1/84 248/28/84 247/27/84
f 248/28/85 250/49/85 249/29/85
f 250/49/86 252/30/86 251/31/86
f 252/30/87 254/48/87 253/32/87
f 253/32/88 254/48/88 256/33/88
f 256/33/89 258/36/89 257/35/89
f 257/35/90 258/36/90 260/40/90
f 260/40/91 262/42/91 261/41/91
f 262/42/92 246/50/92 245/43/92
f 263/3/93 265/27/93 266/28/93
f 267/29/94 268/49/94 266/28/94
f 269/31/95 270/30/95 268/49/95
f 269/31/96 271/32/96 272/48/96
f 273/34/97 274/33/97 272/48/97
f 273/34/98 275/35/98 276/36/98
f 277/37/99 278/40/99 276/36/99
f 279/41/100 280/42/100 278/40/100
f 279/41/101 263/43/101 264/50/101
f 247/27/102 265/27/102 263/3/102
f 246/1/103 264/1/103 266/28/103
f 247/27/102 249/29/102 267/29/102
f 250/49/103 248/28/103 266/28/103
f 249/29/102 251/31/102 269/31/102
f 252/30/103 250/49/103 268/49/103
f 253/32/102 271/32/102 269/31/102
f 254/48/103 252/30/103 270/30/103
f 255/34/102 273/34/102 271/32/102
f 254/48/103 272/48/103 274/33/103
f 255/34/102 257/35/102 275/35/102
f 256/33/103 274/33/103 276/36/103
f 259/37/102 277/37/102 275/35/102
f 260/40/103 258/36/103 276/36/103
f 261/41/102 279/41/102 277/37/102
f 262/42/103 260/40/103 278/40/103
f 261/41/102 245/43/102 263/43/102
f 262/42/103 280/42/103 264/50/103
f 281/51/175 283/53/175 288/90/175
f 282/131/176 284/238/176 286/132/176
f 290/92/177 292/121/177 286/132/177
f 289/134/178 288/135/178 292/121/178
f 287/118/179 289/119/179 300/126/179
f 302/128/180 304/130/180 291/120/180
f 301/127/181 300/126/181 304/130/181
f 299/69/182 301/127/182 294/122/182
f 302/128/183 296/66/183 298/125/183
f 295/123/184 294/122/184 298/125/184
f 281/51/185 293/63/185 295/123/185
f 296/66/186 285/55/186 284/116/186
f 287/118/187 299/69/187 293/63/187
f 286/132/188 292/121/188 288/135/188
f 297/124/189 284/116/189 282/136/189
f 290/137/190 285/81/190 296/66/190
f 291/120/191 304/130/191 300/126/191
f 301/127/192 303/129/192 298/125/192
f 305/138/201 307/139/201 312/58/201
f 308/158/202 310/161/202 307/159/202
f 314/144/203 316/146/203 310/161/203
f 315/145/204 313/164/204 312/162/204
f 311/143/205 313/59/205 324/153/205
f 314/144/291 326/155/291 328/157/291
f 325/154/207 324/153/207 328/157/207
f 323/152/208 325/154/208 318/147/208
f 326/155/209 320/149/209 322/151/209
f 319/148/210 318/147/210 322/151/210
f 317/95/211 319/148/211 306/84/211
f 309/141/212 308/140/212 321/150/212
f 323/152/213 317/95/213 305/138/213
f 307/159/214 310/161/214 316/146/214
f 321/150/215 308/140/215 306/163/215
f 314/114/216 309/209/216 320/149/216
f 315/145/217 328/157/217 324/153/217
f 325/154/218 327/156/218 322/151/218
f 379/3/84 380/1/84 382/28/84
f 381/27/85 382/28/85 384/49/85
f 384/49/86 386/30/86 385/31/86
f 386/30/87 388/48/87 387/32/87
f 388/48/88 390/33/88 389/34/88
f 390/33/89 392/36/89 391/35/89
f 392/36/90 394/40/90 393/37/90
f 393/37/91 394/40/91 396/42/91
f 396/42/92 380/50/92 379/43/92
f 397/3/93 399/27/93 400/28/93
f 401/29/94 402/49/94 400/28/94
f 401/29/95 403/31/95 404/30/95
f 405/32/96 406/48/96 404/30/96
f 407/34/97 408/33/97 406/48/97
f 409/35/98 410/36/98 408/33/98
f 409/35/99 411/37/99 412/40/99
f 411/37/100 413/41/100 414/42/100
f 397/43/101 398/50/101 414/42/101
f 381/27/102 399/27/102 397/3/102
f 380/1/103 398/1/103 400/28/103
f 383/29/102 401/29/102 399/27/102
f 382/28/103 400/28/103 402/49/103
f 385/31/102 403/31/102 401/29/102
f 384/49/103 402/49/103 404/30/103
f 387/32/102 405/32/102 403/31/102
f 388/48/103 386/30/103 404/30/103
f 389/34/102 407/34/102 405/32/102
f 388/48/103 406/48/103 408/33/103
f 391/35/102 409/35/102 407/34/102
f 390/33/103 408/33/103 410/36/103
f 393/37/102 411/37/102 409/35/102
f 392/36/103 410/36/103 412/40/103
f 393/37/102 395/41/102 413/41/102
f 394/40/103 412/40/103 414/42/103
f 395/41/102 379/43/102 397/43/102
f 380/50/103 396/42/103 414/42/103
f 421/170/292 415/165/292 417/53/292
f 418/184/293 420/187/293 417/185/293
f 424/171/238 426/173/238 420/187/238
f 425/172/239 423/190/239 422/188/239
f 433/179/240 421/170/240 423/119/240
f 436/104/294 438/183/294 425/172/294
f 437/182/295 435/181/295 434/180/295
f 427/174/243 433/179/243 435/181/243
f 436/104/244 430/98/244 432/178/244
f 431/177/296 429/176/296 428/175/296
f 415/165/297 427/174/297 429/176/297
f 419/168/247 418/167/247 431/177/247
f 433/179/298 427/174/298 415/165/298
f 417/185/249 420/187/249 426/173/249
f 429/176/250 431/177/250 418/167/250
f 424/114/299 419/209/299 430/98/299
f 425/172/252 438/183/252 434/180/252
f 437/182/253 432/178/253 428/175/253
f 439/165/262 441/53/262 446/58/262
f 442/203/263 444/206/263 441/204/263
f 448/171/300 450/194/300 444/206/300
f 449/193/265 447/210/265 446/207/265
f 457/179/266 445/170/266 447/119/266
f 448/171/301 460/104/301 462/202/301
f 459/200/302 458/199/302 462/202/302
f 457/179/303 459/200/303 452/195/303
f 454/98/304 456/198/304 461/201/304
f 453/196/271 452/195/271 456/198/271
f 439/165/305 451/174/305 453/196/305
f 443/168/273 442/191/273 455/197/273
f 457/179/274 451/174/274 439/165/274
f 444/206/275 450/194/275 446/207/275
f 453/196/276 455/197/276 442/191/276
f 460/104/277 448/114/277 443/209/277
f 449/193/306 462/202/306 458/199/306
f 459/200/279 461/201/279 456/198/279
usemtl bark
f 76/1/48 77/27/48 75/3/48
f 78/28/49 79/29/49 77/27/49
f 79/29/50 82/30/50 81/31/50
f 82/30/51 83/32/51 81/31/51
f 84/48/52 85/34/52 83/32/52
f 86/33/53 87/35/53 85/34/53
f 87/35/54 90/40/54 89/37/54
f 90/40/55 91/41/55 89/37/55
f 92/42/56 75/43/56 91/41/56
f 95/27/57 94/1/57 93/3/57
f 97/29/58 96/28/58 95/27/58
f 99/31/59 98/49/59 97/29/59
f 101/32/60 100/30/60 99/31/60
f 101/32/61 104/33/61 102/48/61
f 105/35/62 104/33/62 103/34/62
f 107/37/63 106/36/63 105/35/63
f 109/41/64 108/40/64 107/37/64
f 93/43/65 110/42/65 109/41/65
f 77/27/66 93/3/66 75/3/66
f 78/28/67 94/1/67 96/28/67
f 79/29/68 95/27/68 77/27/68
f 78/28/69 98/49/69 80/49/69
f 79/29/70 99/31/70 97/29/70
f 80/49/71 100/30/71 82/30/71
f 83/32/72 99/31/72 81/31/72
f 82/30/73 102/48/73 84/48/73
f 85/34/74 101/32/74 83/32/74
f 84/48/75 104/33/75 86/33/75
f 87/35/76 103/34/76 85/34/76
f 86/33/77 106/36/77 88/36/77
f 87/35/78 107/37/78 105/35/78
f 88/36/79 108/40/79 90/40/79
f 91/41/80 107/37/80 89/37/80
f 92/42/81 108/40/81 110/42/81
f 75/43/82 109/41/82 91/41/82
f 92/42/83 94/50/83 76/50/83
f 210/1/48 211/27/48 209/3/48
f 212/28/49 213/29/49 211/27/49
f 213/29/50 216/30/50 215/31/50
f 216/30/51 217/32/51 215/31/51
f 218/48/52 219/34/52 217/32/52
f 220/33/53 221/35/53 219/34/53
f 221/35/54 224/40/54 223/37/54
f 224/40/55 225/41/55 223/37/55
f 225/41/56 210/50/56 209/43/56
f 229/27/57 228/1/57 227/3/57
f 231/29/58 230/28/58 229/27/58
f 233/31/59 232/49/59 231/29/59
f 235/32/60 234/30/60 233/31/60
f 237/34/61 236/48/61 235/32/61
f 239/35/62 238/33/62 237/34/62
f 241/37/63 240/36/63 239/35/63
f 243/41/64 242/40/64 241/37/64
f 227/43/65 244/42/65 243/41/65
f 211/27/66 227/3/66 209/3/66
f 210/1/67 230/28/67 212/28/67
f 213/29/68 229/27/68 211/27/68
f 212/28/69 232/49/69 214/49/69
f 213/29/70 233/31/70 231/29/70
f 214/49/71 234/30/71 216/30/71
f 217/32/72 233/31/72 215/31/72
f 218/48/73 234/30/73 236/48/73
f 217/32/74 237/34/74 235/32/74
f 218/48/75 238/33/75 220/33/75
f 221/35/76 237/34/76 219/34/76
f 222/36/77 238/33/77 240/36/77
f 223/37/78 239/35/78 221/35/78
f 224/40/165 240/36/165 242/40/165
f 223/37/80 243/41/80 241/37/80
f 226/42/81 242/40/81 244/42/81
f 209/43/82 243/41/82 225/41/82
f 210/50/166 244/42/166 228/50/166
f 344/1/48 345/27/48 343/3/48
f 345/27/49 348/49/49 347/29/49
f 348/49/50 349/31/50 347/29/50
f 350/30/51 351/32/51 349/31/51
f 352/48/52 353/34/52 351/32/52
f 354/33/53 355/35/53 353/34/53
f 356/36/54 357/37/54 355/35/54
f 358/40/55 359/41/55 357/37/55
f 360/42/56 343/43/56 359/41/56
f 363/27/57 362/1/57 361/3/57
f 365/29/58 364/28/58 363/27/58
f 367/31/59 366/49/59 365/29/59
f 369/32/60 368/30/60 367/31/60
f 371/34/61 370/48/61 369/32/61
f 373/35/62 372/33/62 371/34/62
f 375/37/63 374/36/63 373/35/63
f 375/37/64 378/42/64 376/40/64
f 361/43/65 378/42/65 377/41/65
f 343/3/66 363/27/66 361/3/66
f 346/28/67 362/1/67 364/28/67
f 345/27/68 365/29/68 363/27/68
f 346/28/69 366/49/69 348/49/69
f 349/31/70 365/29/70 347/29/70
f 348/49/71 368/30/71 350/30/71
f 351/32/72 367/31/72 349/31/72
f 352/48/73 368/30/73 370/48/73
f 351/32/74 371/34/74 369/32/74
f 354/33/75 370/48/75 372/33/75
f 353/34/76 373/35/76 371/34/76
f 356/36/77 372/33/77 374/36/77
f 357/37/78 373/35/78 355/35/78
f 356/36/79 376/40/79 358/40/79
f 359/41/80 375/37/80 357/37/80
f 358/40/81 378/42/81 360/42/81
f 343/43/82 377/41/82 359/41/82
f 360/42/83 362/50/83 344/50/83
f 76/1/48 78/28/48 77/27/48
f 78/28/49 80/49/49 79/29/49
f 79/29/50 80/49/50 82/30/50
f 82/30/51 84/48/51 83/32/51
f 84/48/52 86/33/52 85/34/52
f 86/33/53 88/36/53 87/35/53
f 87/35/54 88/36/54 90/40/54
f 90/40/55 92/42/55 91/41/55
f 92/42/56 76/50/56 75/43/56
f 95/27/57 96/28/57 94/1/57
f 97/29/58 98/49/58 96/28/58
f 99/31/59 100/30/59 98/49/59
f 101/32/60 102/48/60 100/30/60
f 101/32/61 103/34/61 104/33/61
f 105/35/62 106/36/62 104/33/62
f 107/37/63 108/40/63 106/36/63
f 109/41/64 110/42/64 108/40/64
f 93/43/65 94/50/65 110/42/65
f 77/27/66 95/27/66 93/3/66
f 78/28/67 76/1/67 94/1/67
f 79/29/68 97/29/68 95/27/68
f 78/28/69 96/28/69 98/49/69
f 79/29/70 81/31/70 99/31/70
f 80/49/71 98/49/71 100/30/71
f 83/32/72 101/32/72 99/31/72
f 82/30/73 100/30/73 102/48/73
f 85/34/74 103/34/74 101/32/74
f 84/48/75 102/48/75 104/33/75
f 87/35/76 105/35/76 103/34/76
f 86/33/77 104/33/77 106/36/77
f 87/35/78 89/37/78 107/37/78
f 88/36/79 106/36/79 108/40/79
f 91/41/80 109/41/80 107/37/80
f 92/42/81 90/40/81 108/40/81
f 75/43/82 93/43/82 109/41/82
f 92/42/83 110/42/83 94/50/83
f 210/1/48 212/28/48 211/27/48
f 212/28/49 214/49/49 213/29/49
f 213/29/50 214/49/50 216/30/50
f 216/30/51 218/48/51 217/32/51
f 218/48/52 220/33/52 219/34/52
f 220/33/53 222/36/53 221/35/53
f 221/35/54 222/36/54 224/40/54
f 224/40/55 226/42/55 225/41/55
f 225/41/56 226/42/56 210/50/56
f 229/27/57 230/28/57 228/1/57
f 231/29/58 232/49/58 230/28/58
f 233/31/59 234/30/59 232/49/59
f 235/32/60 236/48/60 234/30/60
f 237/34/61 238/33/61 236/48/61
f 239/35/62 240/36/62 238/33/62
f 241/37/63 242/40/63 240/36/63
f 243/41/64 244/42/64 242/40/64
f 227/43/65 228/50/65 244/42/65
f 211/27/66 229/27/66 227/3/66
f 210/1/289 228/1/289 230/28/289
f 213/29/68 231/29/68 229/27/68
f 212/28/290 230/28/290 232/49/290
f 213/29/70 215/31/70 233/31/70
f 214/49/71 232/49/71 234/30/71
f 217/32/72 235/32/72 233/31/72
f 218/48/73 216/30/73 234/30/73
f 217/32/74 219/34/74 237/34/74
f 218/48/75 236/48/75 238/33/75
f 221/35/76 239/35/76 237/34/76
f 222/36/77 220/33/77 238/33/77
f 223/37/78 241/37/78 239/35/78
f 224/40/79 222/36/79 240/36/79
f 223/37/80 225/41/80 243/41/80
f 226/42/81 224/40/81 242/40/81
f 209/43/82 227/43/82 243/41/82
f 210/50/83 226/42/83 244/42/83
f 344/1/48 346/28/48 345/27/48
f 345/27/49 346/28/49 348/49/49
f 348/49/50 350/30/50 349/31/50
f 350/30/51 352/48/51 351/32/51
f 352/48/52 354/33/52 353/34/52
f 354/33/53 356/36/53 355/35/53
f 356/36/54 358/40/54 357/37/54
f 358/40/55 360/42/55 359/41/55
f 360/42/56 344/50/56 343/43/56
f 363/27/57 364/28/57 362/1/57
f 365/29/58 366/49/58 364/28/58
f 367/31/59 368/30/59 366/49/59
f 369/32/60 370/48/60 368/30/60
f 371/34/61 372/33/61 370/48/61
f 373/35/62 374/36/62 372/33/62
f 375/37/63 376/40/63 374/36/63
f 375/37/64 377/41/64 378/42/64
f 361/43/65 362/50/65 378/42/65
f 343/3/66 345/27/66 363/27/66
f 346/28/67 344/1/67 362/1/67
f 345/27/68 347/29/68 365/29/68
f 346/28/69 364/28/69 366/49/69
f 349/31/70 367/31/70 365/29/70
f 348/49/71 366/49/71 368/30/71
f 351/32/72 369/32/72 367/31/72
f 352/48/73 350/30/73 368/30/73
f 351/32/74 353/34/74 371/34/74
f 354/33/75 352/48/75 370/48/75
f 353/34/76 355/35/76 373/35/76
f 356/36/77 354/33/77 372/33/77
f 357/37/78 375/37/78 373/35/78
f 356/36/79 374/36/79 376/40/79
f 359/41/80 377/41/80 375/37/80
f 358/40/81 376/40/81 378/42/81
f 343/43/82 361/43/82 377/41/82
f 360/42/83 378/42/83 362/50/83
