# Blender 4.5.10 LTS
# www.blender.org
mtllib stow_post_remodel_b.mtl
o stow_post_remodel_b
v 0.421814 0.101674 -0.234901
v 0.423643 0.123487 -0.258521
v 0.445752 0.123746 -0.236483
v 0.511781 1.119833 -0.332063
v 0.513837 1.141932 -0.311684
v 0.533899 1.120195 -0.310032
v 0.422094 0.104752 0.241089
v 0.446033 0.126843 0.242357
v 0.423950 0.126868 0.264423
v 0.514199 1.145915 0.304303
v 0.512167 1.124082 0.324968
v 0.534259 1.124159 0.302909
v -0.414161 0.095300 -0.234368
v -0.438434 0.117005 -0.235919
v -0.416352 0.117082 -0.257986
v -0.522133 1.134033 -0.311024
v -0.519766 1.111968 -0.331405
v -0.541858 1.111993 -0.309346
v -0.413881 0.098378 0.241622
v -0.416044 0.120464 0.264958
v -0.438152 0.120101 0.242920
v -0.521770 1.138016 0.304963
v -0.541498 1.115957 0.303594
v -0.519379 1.116217 0.325626
v 0.556024 -0.075435 -0.341232
v 0.550358 -0.050620 -0.359124
v 0.571583 -0.048923 -0.336439
v 0.458411 0.287277 -0.298379
v 0.452694 0.304293 -0.272968
v 0.479637 0.288974 -0.275694
v 0.555877 -0.097768 -0.217227
v 0.571436 -0.071255 -0.212434
v 0.550160 -0.080752 -0.191816
v 0.452547 0.281960 -0.148963
v 0.458213 0.257145 -0.131071
v 0.479490 0.266642 -0.151690
v 0.434313 -0.107491 -0.347150
v 0.407371 -0.092172 -0.344423
v 0.428647 -0.082676 -0.365041
v 0.330984 0.272238 -0.278885
v 0.336701 0.255221 -0.304297
v 0.315424 0.245725 -0.283678
v 0.434166 -0.129823 -0.223145
v 0.428449 -0.112807 -0.197733
v 0.407224 -0.114505 -0.220418
v 0.330837 0.249905 -0.154880
v 0.315277 0.223392 -0.159673
v 0.336502 0.225090 -0.136988
v 0.559646 -0.094327 0.211234
v 0.553398 -0.077047 0.186127
v 0.575058 -0.067730 0.206426
v 0.459011 0.263538 0.130534
v 0.453651 0.288145 0.148804
v 0.480671 0.272854 0.150834
v 0.562190 -0.073347 0.335449
v 0.577602 -0.046750 0.330641
v 0.556830 -0.048740 0.353718
v 0.456195 0.309125 0.273019
v 0.462443 0.291844 0.298126
v 0.483215 0.293834 0.275049
v 0.438137 -0.126702 0.219190
v 0.411117 -0.111412 0.217161
v 0.431889 -0.109422 0.194083
v 0.332142 0.255769 0.156761
v 0.337502 0.231163 0.138491
v 0.316730 0.229173 0.161569
v 0.440681 -0.105722 0.343405
v 0.435321 -0.081115 0.361675
v 0.413661 -0.090432 0.341376
v 0.334685 0.276749 0.280976
v 0.319274 0.250153 0.285784
v 0.340934 0.259469 0.306083
v -0.443612 -0.102346 -0.341402
v -0.437490 -0.077555 -0.359177
v -0.416369 -0.087574 -0.338647
v -0.338507 0.259157 -0.296697
v -0.332412 0.275927 -0.271210
v -0.317386 0.249138 -0.276167
v -0.443688 -0.125312 -0.217513
v -0.416444 -0.110541 -0.214758
v -0.437592 -0.108542 -0.192025
v -0.332487 0.252961 -0.147321
v -0.338609 0.228171 -0.129545
v -0.317461 0.226172 -0.152277
v -0.564658 -0.067932 -0.335096
v -0.579684 -0.041143 -0.330139
v -0.558536 -0.043142 -0.352871
v -0.453457 0.310341 -0.264904
v -0.459553 0.293571 -0.290391
v -0.480701 0.295569 -0.267659
v -0.564733 -0.090899 -0.211207
v -0.558638 -0.074129 -0.185719
v -0.579759 -0.064110 -0.206250
v -0.453533 0.287374 -0.141015
v -0.480776 0.272603 -0.143770
v -0.459655 0.262584 -0.123239
v -0.445079 -0.130372 0.220328
v -0.438760 -0.113699 0.194831
v -0.417668 -0.115908 0.217596
v -0.336649 0.219514 0.132560
v -0.330277 0.244254 0.150317
v -0.315558 0.217305 0.155325
v -0.444925 -0.107271 0.344192
v -0.417515 -0.092807 0.341461
v -0.438553 -0.082531 0.361949
v -0.330124 0.267355 0.274181
v -0.336442 0.250682 0.299678
v -0.315404 0.240406 0.279189
v -0.565724 -0.094619 0.213809
v -0.580444 -0.067670 0.208802
v -0.559405 -0.077946 0.188313
v -0.450922 0.280007 0.143799
v -0.457294 0.255267 0.126041
v -0.478333 0.265543 0.146530
v -0.565571 -0.071518 0.337674
v -0.559198 -0.046778 0.355431
v -0.580290 -0.044569 0.332666
v -0.450769 0.303108 0.267663
v -0.478179 0.288644 0.270394
v -0.457088 0.286435 0.293160
v 0.571436 1.136181 -0.359879
v 0.571496 1.158480 -0.381576
v 0.593804 1.157807 -0.359899
v 0.572616 1.224464 -0.380681
v 0.573304 1.246155 -0.358386
v 0.594925 1.223791 -0.359004
v 0.581365 1.126568 0.335984
v 0.603733 1.148194 0.335963
v 0.582052 1.148259 0.358278
v 0.583232 1.236542 0.337476
v 0.583173 1.214243 0.359174
v 0.604853 1.214178 0.336859
v -0.577239 1.155463 -0.343223
v -0.598860 1.177827 -0.342606
v -0.577179 1.177762 -0.364921
v -0.575371 1.265437 -0.341731
v -0.576059 1.243747 -0.364025
v -0.597739 1.243812 -0.341710
v -0.567310 1.145850 0.352639
v -0.566623 1.167541 0.374933
v -0.588932 1.168214 0.353257
v -0.565443 1.255824 0.354132
v -0.587811 1.234199 0.354152
v -0.565502 1.233526 0.375829
v 0.453847 1.253999 -0.272652
v 0.453657 1.273123 -0.291927
v 0.473067 1.273176 -0.272940
v 0.453705 1.314723 -0.292092
v 0.453938 1.333998 -0.272970
v 0.473115 1.314776 -0.273105
v 0.459588 1.256063 0.248912
v 0.478809 1.275239 0.248625
v 0.459821 1.275338 0.268035
v 0.459680 1.336062 0.248595
v 0.459869 1.316938 0.267870
v 0.478857 1.316839 0.248460
v -0.475084 1.255105 -0.262431
v -0.494261 1.274328 -0.262296
v -0.475273 1.274229 -0.281706
v -0.474992 1.335104 -0.262748
v -0.475226 1.315829 -0.281871
v -0.494213 1.315927 -0.262461
v -0.469342 1.257169 0.259134
v -0.469109 1.276444 0.278256
v -0.488519 1.276391 0.259269
v -0.469251 1.337168 0.258816
v -0.488472 1.317991 0.259104
v -0.469061 1.318044 0.278091
v 0.381297 0.161778 0.276631
v 0.381179 0.174404 0.265292
v 0.393347 0.173718 0.277102
v 0.385035 1.069110 0.313278
v 0.385256 1.080449 0.325902
v 0.397203 1.068424 0.325088
v 0.381663 0.160384 0.302591
v 0.393714 0.172324 0.303062
v 0.381884 0.171724 0.315215
v 0.385623 1.079055 0.351862
v 0.385740 1.066429 0.363201
v 0.397570 1.067030 0.351048
v 0.296670 0.162078 0.277842
v 0.284723 0.174103 0.278656
v 0.296553 0.174704 0.266503
v 0.300630 1.080749 0.327114
v 0.300409 1.069410 0.314489
v 0.288579 1.068809 0.326643
v 0.297037 0.160684 0.303802
v 0.297258 0.172023 0.316426
v 0.285090 0.172709 0.304616
v 0.300996 1.079355 0.353074
v 0.288946 1.067415 0.352603
v 0.301114 1.066729 0.364413
v 0.203540 0.736606 0.308683
v 0.203756 0.749267 0.297384
v 0.215669 0.748452 0.309442
v 0.207173 1.064739 0.315327
v 0.207217 1.076038 0.327989
v 0.219086 1.063924 0.327386
v 0.203355 0.735132 0.334640
v 0.215484 0.746977 0.335400
v 0.203400 0.746431 0.347302
v 0.207032 1.074564 0.353947
v 0.206817 1.061903 0.365246
v 0.218901 1.062449 0.353343
v 0.168279 0.737001 0.308454
v 0.156409 0.749116 0.309057
v 0.168494 0.749662 0.297155
v 0.171955 1.076433 0.327760
v 0.171911 1.065133 0.315098
v 0.159827 1.064587 0.327001
v 0.168093 0.735527 0.334411
v 0.168138 0.746826 0.347073
v 0.156224 0.747641 0.335015
v 0.171770 1.074958 0.353718
v 0.159641 1.063113 0.352958
v 0.171555 1.062298 0.365017
v -0.297078 0.158172 0.265187
v -0.297325 0.171040 0.254124
v -0.285145 0.170217 0.265913
v -0.302184 1.064489 0.321511
v -0.302068 1.075553 0.334379
v -0.290005 1.063666 0.333300
v -0.296685 0.156219 0.291110
v -0.284752 0.168264 0.291837
v -0.296569 0.167284 0.303977
v -0.301675 1.073600 0.360302
v -0.301429 1.060733 0.371364
v -0.289612 1.061713 0.359224
v -0.384519 0.157600 0.266469
v -0.396582 0.169487 0.267547
v -0.384765 0.170467 0.255406
v -0.389508 1.074981 0.335661
v -0.389625 1.063916 0.322793
v -0.401442 1.062936 0.334934
v -0.384126 0.155647 0.292392
v -0.384009 0.166711 0.305259
v -0.396189 0.167534 0.293471
v -0.389115 1.073028 0.361584
v -0.401049 1.060983 0.360858
v -0.388869 1.060160 0.372646
v -0.156229 0.727972 0.301163
v -0.156279 0.740796 0.290049
v -0.144160 0.739879 0.301893
v -0.154422 1.055988 0.312553
v -0.154232 1.067102 0.325376
v -0.142304 1.055071 0.324397
v -0.155970 0.726119 0.327095
v -0.143901 0.738026 0.327826
v -0.155780 0.737233 0.339919
v -0.153973 1.065249 0.351309
v -0.153924 1.052425 0.362423
v -0.142045 1.053218 0.350330
v -0.191462 0.728153 0.301528
v -0.203390 0.740184 0.302507
v -0.191511 0.740978 0.290413
v -0.189465 1.067284 0.325741
v -0.189655 1.056170 0.312918
v -0.201534 1.055376 0.325011
v -0.191203 0.726300 0.327460
v -0.191013 0.737414 0.340284
v -0.203131 0.738331 0.328439
v -0.189206 1.065431 0.351674
v -0.201275 1.053523 0.350944
v -0.189156 1.052606 0.362788
v 0.204899 1.034826 0.312352
v 0.204828 1.047750 0.301353
v 0.216858 1.046830 0.313287
v 0.204707 1.083634 0.304239
v 0.204697 1.094633 0.317162
v 0.216737 1.082714 0.316173
v 0.204965 1.032742 0.338268
v 0.216924 1.044746 0.339203
v 0.204955 1.043741 0.351192
v 0.204763 1.092549 0.343078
v 0.204834 1.079625 0.354078
v 0.216803 1.080630 0.342089
v -0.189998 1.033423 0.313240
v -0.202038 1.045341 0.314229
v -0.190069 1.046346 0.302241
v -0.190200 1.093229 0.318051
v -0.190190 1.082230 0.305127
v -0.202159 1.081225 0.317116
v -0.189932 1.031338 0.339157
v -0.189942 1.042338 0.352080
v -0.201972 1.043257 0.340146
v -0.190134 1.091145 0.343967
v -0.202093 1.079141 0.343032
v -0.190063 1.078222 0.354966
v 0.201969 0.708309 0.311582
v 0.202107 0.720966 0.300279
v 0.213909 0.720336 0.312457
v 0.201935 0.756909 0.302307
v 0.201682 0.768213 0.314962
v 0.213737 0.756278 0.314485
v 0.201544 0.706842 0.337537
v 0.213485 0.718870 0.338412
v 0.201290 0.718147 0.350193
v 0.201257 0.766747 0.340917
v 0.201118 0.754089 0.352220
v 0.213312 0.754812 0.340440
v -0.189266 0.706801 0.305092
v -0.201321 0.718736 0.305569
v -0.189127 0.719459 0.293788
v -0.189552 0.766705 0.308471
v -0.189299 0.755401 0.295816
v -0.201493 0.754678 0.307596
v -0.189690 0.705335 0.331047
v -0.189944 0.716639 0.343702
v -0.201746 0.717269 0.331524
v -0.189977 0.765239 0.334426
v -0.201918 0.753212 0.333551
v -0.190116 0.752581 0.345730
v 0.007656 0.789867 0.311340
v -0.055686 0.847559 0.259346
v 0.035658 0.847959 0.234624
v 0.087378 0.850549 0.313829
v 0.027999 0.851751 0.387502
v -0.060420 0.849903 0.353829
v -0.015112 0.943900 0.229701
v 0.073307 0.945748 0.263373
v 0.068573 0.948091 0.357856
v -0.022771 0.947692 0.382579
v -0.074492 0.945101 0.303374
v 0.005230 1.005784 0.305863
v 0.024328 0.805058 0.266728
v -0.029362 0.804823 0.281260
v -0.012904 0.838969 0.236167
v -0.069376 0.840112 0.306234
v -0.032145 0.806201 0.336795
v 0.054729 0.806581 0.313283
v 0.071188 0.840726 0.268191
v 0.019826 0.807287 0.356587
v 0.066686 0.842955 0.358050
v -0.020188 0.842575 0.381562
v -0.077648 0.896068 0.276577
v -0.080430 0.897446 0.332113
v 0.010945 0.895597 0.218741
v -0.042746 0.895362 0.233273
v 0.093317 0.898205 0.285089
v 0.062917 0.896683 0.238534
v 0.055632 0.900289 0.383930
v 0.090535 0.899583 0.340625
v -0.050030 0.898968 0.378669
v 0.001942 0.900054 0.398461
v -0.053799 0.952695 0.259152
v 0.033075 0.953075 0.235640
v 0.082263 0.955539 0.310968
v 0.025791 0.956682 0.381035
v -0.058301 0.954924 0.349011
v -0.006939 0.988364 0.260615
v -0.041842 0.989070 0.303919
v 0.045031 0.989450 0.280407
v 0.042249 0.990827 0.335943
v -0.011441 0.990593 0.350474
v 0.044432 0.401569 0.304680
v 0.044490 0.409346 0.298108
v 0.051598 0.408768 0.305375
v 0.044014 0.514575 0.306940
v 0.043891 0.521147 0.314716
v 0.051123 0.513997 0.314207
v 0.044235 0.400264 0.320224
v 0.051402 0.407463 0.320919
v 0.044112 0.406836 0.328000
v 0.043694 0.519842 0.330260
v 0.043636 0.512065 0.336832
v 0.050926 0.512692 0.329751
v -0.030162 0.401313 0.303715
v -0.037394 0.408463 0.304224
v -0.030104 0.409090 0.297143
v -0.030703 0.520891 0.313751
v -0.030579 0.514319 0.305974
v -0.037870 0.513692 0.313055
v -0.030359 0.400007 0.319259
v -0.030482 0.406579 0.327035
v -0.037590 0.407157 0.319768
v -0.030899 0.519586 0.329295
v -0.038066 0.512386 0.328599
v -0.030958 0.511808 0.335867
v 0.589253 0.896672 -0.048906
v 0.589400 0.906390 -0.058386
v 0.599014 0.906108 -0.048805
v 0.589750 0.927185 -0.058128
v 0.589928 0.936663 -0.048409
v 0.599365 0.926904 -0.048546
v 0.589437 0.895291 0.061885
v 0.599198 0.904727 0.061986
v 0.589615 0.904770 0.071604
v 0.590112 0.935282 0.062382
v 0.589966 0.925565 0.071862
v 0.599549 0.925523 0.062245
v 0.558573 0.897189 -0.048849
v 0.549136 0.906949 -0.048712
v 0.558719 0.906906 -0.058329
v 0.559248 0.937180 -0.048352
v 0.559070 0.927702 -0.058070
v 0.549487 0.927744 -0.048453
v 0.558757 0.895808 0.061942
v 0.558935 0.905286 0.071661
v 0.549320 0.905568 0.062080
v 0.559432 0.935799 0.062440
v 0.549671 0.926363 0.062338
v 0.559286 0.926082 0.071919
v -0.552021 0.903760 -0.052068
v -0.551906 0.913340 -0.061687
v -0.542462 0.913400 -0.051934
v -0.551993 0.934139 -0.061733
v -0.552187 0.943760 -0.052155
v -0.542549 0.934200 -0.051980
v -0.553807 0.903996 0.058718
v -0.544248 0.913636 0.058851
v -0.554001 0.913616 0.068295
v -0.553973 0.943995 0.058630
v -0.554088 0.934416 0.068250
v -0.544334 0.934436 0.058806
v -0.582844 0.903631 -0.052564
v -0.592483 0.913191 -0.052740
v -0.582729 0.913211 -0.062184
v -0.583010 0.943631 -0.052652
v -0.582816 0.934010 -0.062230
v -0.592569 0.933990 -0.052785
v -0.584630 0.903867 0.058221
v -0.584824 0.913487 0.067799
v -0.594268 0.913426 0.058045
v -0.584796 0.943866 0.058133
v -0.594355 0.934226 0.058000
v -0.584911 0.934287 0.067753
vn 0.5493 -0.6347 -0.5436
vn 0.6029 0.5098 -0.6137
vn 0.5499 -0.6276 0.5511
vn 0.6036 0.5177 0.6063
vn -0.5403 -0.6430 -0.5429
vn -0.6114 0.5006 -0.6129
vn -0.5396 -0.6359 0.5518
vn -0.6107 0.5084 0.6071
vn 0.6780 -0.7350 0.0044
vn 0.7021 -0.1140 -0.7029
vn 0.7350 0.6780 -0.0048
vn 0.7029 -0.1049 0.7035
vn 0.0060 -0.7260 0.6877
vn -0.0048 0.6876 0.7260
vn -0.7003 -0.1156 0.7044
vn -0.6667 -0.7453 0.0052
vn -0.7453 0.6667 -0.0039
vn -0.7011 -0.1247 -0.7021
vn 0.0052 -0.7348 -0.6782
vn -0.0056 0.6782 -0.7349
vn 0.0076 -1.0000 0.0065
vn 0.9961 -0.0881 -0.0000
vn -0.0001 -0.0736 -0.9973
vn -0.0076 1.0000 -0.0065
vn 0.0011 -0.0607 0.9982
vn -0.9946 -0.1033 0.0013
vn 0.7077 -0.2997 -0.6398
vn 0.4090 0.7981 -0.4424
vn 0.7064 -0.5043 0.4966
vn 0.4077 0.5934 0.6940
vn -0.4077 -0.5934 -0.6940
vn -0.7064 0.5043 -0.4966
vn -0.4090 -0.7981 0.4424
vn -0.7077 0.2997 0.6398
vn 0.8660 -0.4924 -0.0876
vn 0.6839 0.3052 -0.6627
vn 0.5001 0.8522 0.1541
vn 0.6822 0.0546 0.7291
vn 0.1821 -0.7976 0.5751
vn -0.1838 0.5469 0.8168
vn -0.6839 -0.3052 0.6627
vn -0.5001 -0.8522 -0.1541
vn -0.8660 0.4924 0.0876
vn -0.6822 -0.0546 -0.7291
vn 0.1838 -0.5469 -0.8168
vn -0.1821 0.7976 -0.5751
vn 0.2587 -0.9507 -0.1709
vn 0.9660 0.2544 0.0470
vn 0.0012 0.1772 -0.9842
vn -0.2587 0.9507 0.1709
vn -0.0012 -0.1772 0.9842
vn -0.9660 -0.2544 -0.0470
vn 0.6974 -0.4974 -0.5159
vn 0.3928 0.6018 -0.6953
vn 0.7207 -0.3051 0.6224
vn 0.4161 0.7941 0.4430
vn -0.4161 -0.7941 -0.4430
vn -0.7207 0.3051 -0.6224
vn -0.3928 -0.6018 0.6953
vn -0.6974 0.4974 0.5159
vn 0.8685 -0.4915 0.0652
vn 0.6676 0.0640 -0.7417
vn 0.4954 0.8548 -0.1545
vn 0.6962 0.2994 0.6524
vn 0.2008 -0.5554 0.8070
vn -0.1723 0.7909 0.5872
vn -0.6676 -0.0640 0.7417
vn -0.4954 -0.8548 0.1545
vn -0.8685 0.4915 -0.0652
vn -0.6962 -0.2994 -0.6524
vn 0.1723 -0.7909 -0.5872
vn -0.2008 0.5554 -0.8070
vn 0.2638 -0.9520 0.1554
vn 0.9644 0.2569 -0.0631
vn -0.0202 -0.1665 -0.9858
vn -0.2638 0.9520 -0.1554
vn 0.0202 0.1665 0.9858
vn -0.9644 -0.2569 0.0631
vn 0.3947 -0.5978 -0.6978
vn 0.7153 0.4929 -0.4954
vn 0.3940 -0.8083 0.4376
vn 0.7146 0.2824 0.6400
vn -0.7146 -0.2824 -0.6400
vn -0.3940 0.8083 -0.4376
vn -0.7153 -0.4929 0.4954
vn -0.3947 0.5978 0.6978
vn 0.4830 -0.8610 -0.1593
vn 0.6797 -0.0642 -0.7306
vn 0.8756 0.4748 0.0885
vn 0.6789 -0.3220 0.6599
vn -0.1968 -0.7968 0.5713
vn 0.1959 0.5390 0.8192
vn -0.6797 0.0642 0.7306
vn -0.8756 -0.4748 -0.0885
vn -0.4830 0.8610 0.1593
vn -0.6789 0.3220 -0.6599
vn -0.1959 -0.5390 -0.8192
vn 0.1968 0.7968 -0.5713
vn -0.2777 -0.9446 -0.1753
vn 0.9607 -0.2731 -0.0500
vn 0.0006 0.1823 -0.9832
vn 0.2777 0.9446 0.1753
vn -0.0006 -0.1823 0.9832
vn -0.9607 0.2731 0.0500
vn 0.3856 -0.8131 -0.4361
vn 0.7186 0.2737 -0.6392
vn 0.3870 -0.6014 0.6990
vn 0.7200 0.4854 0.4959
vn -0.7200 -0.4854 -0.4959
vn -0.3870 0.6014 -0.6990
vn -0.7186 -0.2737 0.6392
vn -0.3856 0.8131 0.4361
vn 0.4731 -0.8662 0.1610
vn 0.6762 -0.3303 -0.6585
vn 0.8810 0.4649 -0.0878
vn 0.6779 -0.0710 0.7317
vn -0.2031 -0.5359 0.8195
vn 0.2048 0.7952 0.5707
vn -0.6762 0.3303 0.6585
vn -0.8810 -0.4649 0.0878
vn -0.4731 0.8662 -0.1610
vn -0.6779 0.0710 -0.7317
vn -0.2048 -0.7952 -0.5707
vn 0.2031 0.5359 -0.8195
vn -0.2884 -0.9412 0.1759
vn 0.9575 -0.2838 0.0517
vn -0.0012 -0.1833 -0.9830
vn 0.2884 0.9412 -0.1759
vn 0.0012 0.1833 0.9830
vn -0.9575 0.2838 -0.0517
vn 0.5592 -0.5789 -0.5934
vn 0.5788 0.5755 -0.5778
vn 0.5756 -0.5949 0.5610
vn 0.5952 0.5595 0.5767
vn -0.5952 -0.5596 -0.5767
vn -0.5756 0.5949 -0.5610
vn -0.5788 -0.5755 0.5778
vn -0.5592 0.5789 0.5934
vn 0.6949 -0.7188 -0.0198
vn 0.6968 -0.0021 -0.7172
vn 0.7189 0.6951 -0.0007
vn 0.7170 -0.0216 0.6967
vn -0.0019 -0.7167 0.6974
vn 0.0221 0.6972 0.7166
vn -0.6968 0.0021 0.7172
vn -0.7189 -0.6951 0.0007
vn -0.6949 0.7188 0.0198
vn -0.7170 0.0216 -0.6967
vn -0.0221 -0.6972 -0.7166
vn 0.0019 0.7167 -0.6974
vn -0.0170 -0.9998 -0.0136
vn 0.9998 -0.0168 -0.0145
vn -0.0143 0.0138 -0.9998
vn 0.0170 0.9998 0.0136
vn 0.0143 -0.0138 0.9998
vn -0.9998 0.0168 0.0145
vn 0.5703 -0.5803 -0.5814
vn 0.5716 0.5744 -0.5860
vn 0.5830 -0.5757 0.5732
vn 0.5843 0.5789 0.5687
vn -0.5843 -0.5789 -0.5687
vn -0.5830 0.5757 -0.5732
vn -0.5716 -0.5744 0.5860
vn -0.5703 0.5803 0.5814
vn 0.7062 -0.7079 -0.0050
vn 0.6993 -0.0036 -0.7148
vn 0.7079 0.7063 -0.0106
vn 0.7148 0.0020 0.6993
vn 0.0070 -0.7043 0.7099
vn 0.0086 0.7099 0.7043
vn -0.6993 0.0036 0.7148
vn -0.7079 -0.7063 0.0106
vn -0.7063 0.7079 0.0050
vn -0.7148 -0.0020 -0.6993
vn -0.0086 -0.7099 -0.7043
vn -0.0070 0.7043 -0.7099
vn -0.0011 -1.0000 0.0040
vn 0.9999 -0.0012 -0.0110
vn -0.0110 -0.0040 -0.9999
vn 0.0011 1.0000 -0.0040
vn 0.0110 0.0040 0.9999
vn -0.9999 0.0012 0.0110
vn 0.5667 -0.5476 -0.6156
vn 0.5716 0.6054 -0.5538
vn 0.5829 -0.6095 0.5373
vn 0.5879 0.5435 0.5991
vn -0.5879 -0.5435 -0.5991
vn -0.5829 0.6095 -0.5373
vn -0.5716 -0.6054 0.5538
vn -0.5667 0.5476 0.6156
vn 0.7040 -0.7086 -0.0480
vn 0.6971 0.0354 -0.7161
vn 0.7101 0.7036 0.0278
vn 0.7170 -0.0404 0.6959
vn 0.0069 -0.7440 0.6681
vn 0.0130 0.6682 0.7439
vn -0.6971 -0.0354 0.7161
vn -0.7101 -0.7036 -0.0277
vn -0.7040 0.7086 0.0480
vn -0.7170 0.0404 -0.6959
vn -0.0130 -0.6682 -0.7439
vn -0.0069 0.7440 -0.6681
vn -0.0043 -0.9986 -0.0536
vn 0.9999 -0.0035 -0.0143
vn -0.0141 0.0536 -0.9985
vn 0.0043 0.9986 0.0536
vn 0.0141 -0.0536 0.9985
vn -0.9999 0.0035 0.0143
vn 0.5752 -0.5501 -0.6054
vn 0.5877 0.6027 -0.5399
vn 0.5670 -0.6156 0.5474
vn 0.5794 0.5372 0.6129
vn -0.5794 -0.5372 -0.6129
vn -0.5670 0.6156 -0.5474
vn -0.5877 -0.6027 0.5399
vn -0.5752 0.5501 0.6054
vn 0.6994 -0.7138 -0.0356
vn 0.7121 0.0322 -0.7014
vn 0.7147 0.6980 0.0447
vn 0.7020 -0.0480 0.7105
vn -0.0127 -0.7460 0.6658
vn 0.0026 0.6658 0.7461
vn -0.7121 -0.0322 0.7014
vn -0.7147 -0.6980 -0.0447
vn -0.6994 0.7138 0.0356
vn -0.7020 0.0480 -0.7105
vn -0.0026 -0.6658 -0.7461
vn 0.0127 0.7460 -0.6658
vn -0.0108 -0.9983 -0.0568
vn 0.9999 -0.0112 0.0065
vn 0.0071 0.0567 -0.9984
vn 0.0108 0.9983 0.0568
vn -0.0071 -0.0567 0.9984
vn -0.9999 0.0112 -0.0065
vn 0.5717 -0.5286 -0.6275
vn 0.5654 0.6229 -0.5407
vn 0.5891 -0.6153 0.5238
vn 0.5829 0.5361 0.6106
vn -0.5829 -0.5361 -0.6106
vn -0.5891 0.6153 -0.5238
vn -0.5654 -0.6229 0.5407
vn -0.5717 0.5286 0.6275
vn 0.7109 -0.7005 -0.0635
vn 0.6963 0.0577 -0.7154
vn 0.7032 0.7097 0.0428
vn 0.7177 -0.0485 0.6947
vn 0.0145 -0.7582 0.6518
vn 0.0069 0.6520 0.7582
vn -0.6963 -0.0577 0.7154
vn -0.7032 -0.7097 -0.0428
vn -0.7109 0.7005 0.0635
vn -0.7177 0.0485 -0.6947
vn -0.0068 -0.6520 -0.7582
vn -0.0145 0.7582 -0.6518
vn 0.0054 -0.9972 -0.0752
vn 0.9999 0.0065 -0.0147
vn -0.0151 0.0751 -0.9971
vn -0.0054 0.9972 0.0752
vn 0.0151 -0.0751 0.9971
vn -0.9999 -0.0065 0.0147
vn 0.5682 -0.5377 -0.6229
vn 0.5750 0.6141 -0.5407
vn 0.5797 -0.6200 0.5288
vn 0.5865 0.5317 0.6110
vn -0.5865 -0.5318 -0.6110
vn -0.5797 0.6200 -0.5288
vn -0.5750 -0.6140 0.5407
vn -0.5682 0.5377 0.6229
vn 0.7029 -0.7089 -0.0577
vn 0.7000 0.0468 -0.7126
vn 0.7112 0.7017 0.0430
vn 0.7141 -0.0540 0.6980
vn 0.0029 -0.7557 0.6549
vn 0.0112 0.6549 0.7556
vn -0.7000 -0.0468 0.7126
vn -0.7112 -0.7017 -0.0430
vn -0.7029 0.7089 0.0577
vn -0.7141 0.0540 -0.6979
vn -0.0112 -0.6549 -0.7556
vn -0.0029 0.7557 -0.6549
vn -0.0059 -0.9974 -0.0712
vn 0.9999 -0.0051 -0.0104
vn -0.0100 0.0713 -0.9974
vn 0.0059 0.9974 0.0712
vn 0.0100 -0.0713 0.9974
vn -0.9999 0.0051 0.0104
vn 0.5778 -0.5272 -0.6231
vn 0.5739 0.6238 -0.5305
vn 0.5808 -0.6197 0.5279
vn 0.5769 0.5313 0.6205
vn -0.5769 -0.5313 -0.6205
vn -0.5807 0.6197 -0.5279
vn -0.5739 -0.6238 0.5305
vn -0.5778 0.5272 0.6231
vn 0.7095 -0.7023 -0.0583
vn 0.7053 0.0592 -0.7064
vn 0.7047 0.7073 0.0551
vn 0.7089 -0.0542 0.7032
vn 0.0042 -0.7615 0.6481
vn -0.0006 0.6481 0.7615
vn -0.7053 -0.0592 0.7064
vn -0.7047 -0.7073 -0.0551
vn -0.7095 0.7023 0.0583
vn -0.7089 0.0542 -0.7032
vn 0.0006 -0.6481 -0.7615
vn -0.0042 0.7615 -0.6481
vn 0.0034 -0.9968 -0.0802
vn 1.0000 0.0036 -0.0022
vn -0.0025 0.0802 -0.9968
vn -0.0034 0.9968 0.0802
vn 0.0025 -0.0802 0.9968
vn -1.0000 -0.0036 0.0022
vn 0.5895 -0.5416 -0.5993
vn 0.5839 0.6112 -0.5343
vn 0.5706 -0.6068 0.5534
vn 0.5651 0.5461 0.6185
vn -0.5651 -0.5461 -0.6185
vn -0.5706 0.6068 -0.5534
vn -0.5839 -0.6112 0.5343
vn -0.5895 0.5416 0.5993
vn 0.7104 -0.7033 -0.0281
vn 0.7186 0.0426 -0.6942
vn 0.7036 0.7087 0.0516
vn 0.6954 -0.0372 0.7176
vn -0.0082 -0.7459 0.6661
vn -0.0149 0.6661 0.7457
vn -0.7186 -0.0426 0.6942
vn -0.7036 -0.7087 -0.0516
vn -0.7104 0.7033 0.0281
vn -0.6954 0.0372 -0.7176
vn 0.0149 -0.6661 -0.7457
vn 0.0082 0.7459 -0.6661
vn 0.0048 -0.9984 -0.0563
vn 0.9999 0.0039 0.0166
vn 0.0163 0.0564 -0.9983
vn -0.0048 0.9984 0.0563
vn -0.0163 -0.0564 0.9983
vn -0.9999 -0.0039 -0.0166
vn -0.0910 -0.9318 -0.3513
vn -0.7303 -0.6088 -0.3099
vn 0.3355 -0.9229 -0.1889
vn 0.3127 -0.9116 0.2669
vn -0.1280 -0.9135 0.3861
vn -0.9025 -0.2982 -0.3109
vn 0.0260 -0.3040 -0.9523
vn 0.9229 -0.2766 -0.2679
vn 0.5487 -0.2538 0.7966
vn -0.5794 -0.2671 0.7700
vn -0.7731 -0.1294 -0.6210
vn 0.3554 -0.1245 -0.9264
vn 0.9943 -0.0925 0.0521
vn 0.2608 -0.0776 0.9623
vn -0.8316 -0.1005 0.5463
vn -0.4117 0.5700 -0.7110
vn 0.5304 0.5830 -0.6154
vn 0.7303 0.6088 0.3099
vn -0.0882 0.6116 0.7862
vn -0.7940 0.5877 0.1552
vn -0.3355 0.9229 0.1889
vn -0.5741 0.7399 0.3507
vn -0.4792 0.6035 0.6373
vn 0.0910 0.9318 0.3513
vn 0.1681 0.7554 0.6334
vn 0.4677 0.6141 0.6357
vn 0.3774 0.9260 -0.0041
vn 0.6666 0.7453 0.0149
vn 0.7591 0.5945 -0.2652
vn 0.1280 0.9135 -0.3861
vn 0.2324 0.7235 -0.6500
vn -0.0078 0.5718 -0.8204
vn -0.3127 0.9116 -0.2669
vn -0.5344 0.7202 -0.4424
vn -0.7731 0.5773 -0.2626
vn -0.9229 0.2766 0.2679
vn -0.8287 0.1615 0.5359
vn -0.6249 0.2915 0.7242
vn -0.0260 0.3040 0.9523
vn 0.2560 0.1842 0.9490
vn 0.5003 0.3063 0.8099
vn 0.9025 0.2982 0.3109
vn 0.9845 0.1694 0.0451
vn 0.9298 0.2847 -0.2335
vn 0.5794 0.2671 -0.7700
vn 0.3500 0.1377 -0.9266
vn 0.0700 0.2565 -0.9640
vn -0.5487 0.2538 -0.7966
vn -0.7706 0.1328 -0.6233
vn -0.8908 0.2607 -0.3721
vn -0.3554 0.1245 0.9264
vn -0.3500 -0.1377 0.9266
vn -0.0700 -0.2565 0.9640
vn 0.7731 0.1294 0.6210
vn 0.7706 -0.1328 0.6233
vn 0.8908 -0.2607 0.3721
vn 0.8316 0.1005 -0.5463
vn 0.8287 -0.1615 -0.5359
vn 0.6249 -0.2915 -0.7242
vn -0.2608 0.0776 -0.9623
vn -0.2560 -0.1842 -0.9490
vn -0.5003 -0.3063 -0.8099
vn -0.9943 0.0925 -0.0521
vn -0.9845 -0.1694 -0.0451
vn -0.9297 -0.2847 0.2335
vn -0.5304 -0.5830 0.6154
vn -0.2324 -0.7235 0.6500
vn 0.0078 -0.5718 0.8204
vn 0.4117 -0.5700 0.7110
vn 0.5344 -0.7202 0.4424
vn 0.7731 -0.5773 0.2626
vn 0.7940 -0.5877 -0.1552
vn 0.5741 -0.7399 -0.3507
vn 0.4792 -0.6035 -0.6373
vn -0.7591 -0.5945 0.2652
vn -0.6666 -0.7453 -0.0149
vn -0.3774 -0.9260 0.0041
vn 0.0882 -0.6116 -0.7862
vn -0.1681 -0.7554 -0.6334
vn -0.4677 -0.6141 -0.6357
vn 0.5872 -0.5250 -0.6161
vn 0.5820 0.6256 -0.5195
vn 0.5726 -0.6217 0.5345
vn 0.5674 0.5290 0.6310
vn -0.5674 -0.5290 -0.6310
vn -0.5726 0.6216 -0.5345
vn -0.5820 -0.6256 0.5195
vn -0.5872 0.5250 0.6161
vn 0.7102 -0.7022 -0.0500
vn 0.7160 0.0616 -0.6954
vn 0.7039 0.7071 0.0683
vn 0.6981 -0.0567 0.7137
vn -0.0057 -0.7638 0.6454
vn -0.0121 0.6455 0.7637
vn -0.7160 -0.0616 0.6954
vn -0.7039 -0.7071 -0.0683
vn -0.7102 0.7022 0.0500
vn -0.6981 0.0567 -0.7137
vn 0.0121 -0.6454 -0.7637
vn 0.0057 0.7638 -0.6454
vn 0.0045 -0.9965 -0.0836
vn 0.9999 0.0034 0.0129
vn 0.0126 0.0837 -0.9964
vn -0.0045 0.9965 0.0836
vn -0.0126 -0.0837 0.9964
vn -0.9999 -0.0034 -0.0129
vn 0.5666 -0.5798 -0.5856
vn 0.5860 0.5747 -0.5712
vn 0.5685 -0.5941 0.5691
vn 0.5880 0.5603 0.5834
vn -0.5880 -0.5603 -0.5834
vn -0.5685 0.5941 -0.5691
vn -0.5860 -0.5747 0.5712
vn -0.5666 0.5798 0.5856
vn 0.6951 -0.7189 -0.0101
vn 0.7058 -0.0031 -0.7084
vn 0.7189 0.6950 0.0075
vn 0.7082 -0.0207 0.7057
vn -0.0108 -0.7158 0.6983
vn 0.0131 0.6981 0.7158
vn -0.7058 0.0031 0.7084
vn -0.7189 -0.6950 -0.0075
vn -0.6951 0.7189 0.0101
vn -0.7082 0.0207 -0.7057
vn -0.0131 -0.6981 -0.7158
vn 0.0108 0.7158 -0.6983
vn -0.0169 -0.9998 -0.0124
vn 0.9999 -0.0169 -0.0019
vn -0.0017 0.0125 -0.9999
vn 0.0169 0.9998 0.0124
vn 0.0017 -0.0125 0.9999
vn -0.9999 0.0168 0.0019
vn 0.5890 -0.5762 -0.5667
vn 0.5842 0.5785 -0.5692
vn 0.5704 -0.5737 0.5878
vn 0.5656 0.5810 0.5853
vn -0.5656 -0.5810 -0.5853
vn -0.5704 0.5737 -0.5878
vn -0.5842 -0.5785 0.5692
vn -0.5890 0.5762 0.5667
vn 0.7099 -0.7041 0.0129
vn 0.7184 0.0015 -0.6956
vn 0.7041 0.7101 0.0098
vn 0.6956 0.0045 0.7184
vn -0.0085 -0.7056 0.7086
vn -0.0143 0.7086 0.7055
vn -0.7184 -0.0015 0.6956
vn -0.7041 -0.7101 -0.0098
vn -0.7099 0.7041 -0.0129
vn -0.6956 -0.0045 -0.7184
vn 0.0143 -0.7086 -0.7055
vn 0.0085 0.7056 -0.7086
vn 0.0042 -1.0000 0.0022
vn 0.9999 0.0042 0.0161
vn 0.0161 -0.0021 -0.9999
vn -0.0042 1.0000 -0.0022
vn -0.0161 0.0021 0.9999
vn -0.9999 -0.0042 -0.0161
vn -0.6668 -0.7453 0.0052
vn 0.7063 -0.7079 -0.0050
vn 0.7101 0.7036 0.0277
vn -0.7101 -0.7036 -0.0278
vn 0.7108 -0.7005 -0.0635
vn 0.0068 0.6520 0.7582
vn 0.7141 -0.0540 0.6979
vn -0.0121 0.6454 0.7637
vn -0.7039 -0.7070 -0.0683
vn 0.0121 -0.6455 -0.7637
vn 0.9999 -0.0168 -0.0019
vn 0.0041 -1.0000 0.0022
vt 0.131250 0.739423
vt 0.130679 0.750000
vt 0.125000 0.740108
vt 0.619220 0.000000
vt 0.624989 0.008333
vt 0.619736 0.008593
vt 0.131250 0.510577
vt 0.125000 0.509892
vt 0.130679 0.500000
vt 0.624996 0.250068
vt 0.619723 0.255280
vt 0.619736 0.241407
vt 0.368750 0.739423
vt 0.380260 0.739742
vt 0.379974 0.755871
vt 0.629859 0.742281
vt 0.619724 0.755282
vt 0.619736 0.741412
vt 0.368750 0.510577
vt 0.379974 0.494129
vt 0.380260 0.510258
vt 0.629859 0.507719
vt 0.619736 0.508588
vt 0.619723 0.494718
vt 0.380264 0.010258
vt 0.379773 0.000000
vt 0.380264 0.239742
vt 0.619723 0.994718
vt 0.380277 0.993962
vt 0.869907 0.508333
vt 0.380276 0.256038
vt 0.157353 0.717647
vt 0.157353 0.750000
vt 0.125000 0.717647
vt 0.611230 0.000000
vt 0.625000 0.032353
vt 0.611230 0.032353
vt 0.157353 0.532353
vt 0.125000 0.532353
vt 0.157353 0.500000
vt 0.625000 0.248358
vt 0.611230 0.282128
vt 0.611230 0.217647
vt 0.342647 0.717647
vt 0.388674 0.717647
vt 0.385444 0.780020
vt 0.651536 0.729281
vt 0.611230 0.782353
vt 0.611230 0.717872
vt 0.342647 0.532353
vt 0.385444 0.469980
vt 0.388674 0.532353
vt 0.651536 0.520719
vt 0.611230 0.532128
vt 0.611230 0.467647
vt 0.388770 0.000000
vt 0.388770 0.032353
vt 0.388770 0.282353
vt 0.611230 0.967647
vt 0.388770 0.217647
vt 0.388770 0.967647
vt 0.842647 0.717647
vt 0.611310 0.000000
vt 0.611310 0.032353
vt 0.611310 0.282129
vt 0.611310 0.217647
vt 0.388595 0.717647
vt 0.385390 0.780034
vt 0.611310 0.782353
vt 0.611310 0.717871
vt 0.385390 0.469966
vt 0.388595 0.532353
vt 0.651536 0.520719
vt 0.611311 0.532129
vt 0.611310 0.467647
vt 0.388690 0.032353
vt 0.388690 0.000000
vt 0.388690 0.282353
vt 0.625000 0.967647
vt 0.388690 0.217647
vt 0.611310 0.967647
vt 0.388690 0.967647
vt 0.842647 0.532353
vt 0.611266 0.000000
vt 0.611266 0.032353
vt 0.611266 0.282128
vt 0.611266 0.217647
vt 0.388638 0.717647
vt 0.385420 0.780027
vt 0.611266 0.782353
vt 0.611266 0.717872
vt 0.385420 0.469974
vt 0.388638 0.532353
vt 0.611266 0.532128
vt 0.611266 0.467647
vt 0.388734 0.000000
vt 0.388734 0.032353
vt 0.388734 0.282353
vt 0.388734 0.217647
vt 0.388734 0.967647
vt 0.157353 0.750000
vt 0.611182 0.000000
vt 0.625000 0.032353
vt 0.611182 0.032353
vt 0.157353 0.500000
vt 0.625000 0.248358
vt 0.611182 0.282127
vt 0.611182 0.217647
vt 0.388722 0.717647
vt 0.385477 0.780011
vt 0.611182 0.782353
vt 0.611182 0.717873
vt 0.385477 0.469988
vt 0.388722 0.532353
vt 0.611182 0.532127
vt 0.611182 0.467647
vt 0.388818 0.000000
vt 0.388818 0.032353
vt 0.388818 0.282353
vt 0.388818 0.217647
vt 0.611182 0.967647
vt 0.388818 0.967647
vt 0.129610 0.742568
vt 0.129610 0.750000
vt 0.125000 0.742568
vt 0.575000 0.000000
vt 0.625000 0.007432
vt 0.575000 0.007432
vt 0.129610 0.507432
vt 0.125000 0.507432
vt 0.129610 0.500000
vt 0.625000 0.250013
vt 0.575000 0.254593
vt 0.575000 0.242568
vt 0.370390 0.742568
vt 0.424701 0.742568
vt 0.407683 0.753148
vt 0.629416 0.743076
vt 0.575000 0.754611
vt 0.575000 0.742612
vt 0.370390 0.507432
vt 0.407683 0.496852
vt 0.424701 0.507432
vt 0.629416 0.506924
vt 0.575000 0.507388
vt 0.575000 0.495390
vt 0.425000 0.007432
vt 0.425000 0.000000
vt 0.425000 0.254610
vt 0.625000 0.995390
vt 0.425000 0.242568
vt 0.425000 0.995390
vt 0.870390 0.742568
vt 0.129962 0.741429
vt 0.129962 0.750000
vt 0.125000 0.741428
vt 0.565000 0.000000
vt 0.625000 0.008571
vt 0.565000 0.008571
vt 0.129962 0.508571
vt 0.125000 0.508571
vt 0.129962 0.500000
vt 0.625000 0.250026
vt 0.565000 0.254938
vt 0.565000 0.241429
vt 0.370038 0.741428
vt 0.434487 0.741429
vt 0.409596 0.753021
vt 0.629720 0.742088
vt 0.565000 0.754962
vt 0.565000 0.741502
vt 0.370038 0.508571
vt 0.409596 0.496979
vt 0.434487 0.508571
vt 0.629720 0.507912
vt 0.565000 0.508498
vt 0.565000 0.495038
vt 0.435000 0.008571
vt 0.435000 0.000000
vt 0.435000 0.241429
vt 0.625000 0.995038
vt 0.435000 0.995038
vt 0.870038 0.508571
vt 0.435000 0.254962
vt 0.152615 0.690000
vt 0.152615 0.750000
vt 0.125000 0.690000
vt 0.621739 0.972385
vt 0.625000 0.972385
vt 0.621739 1.000000
vt 0.152615 0.560000
vt 0.125000 0.560000
vt 0.152615 0.500000
vt 0.625000 0.258308
vt 0.621739 0.277615
vt 0.621739 0.190192
vt 0.347385 0.690000
vt 0.378251 0.690000
vt 0.377740 0.777150
vt 0.642358 0.722543
vt 0.621739 0.777615
vt 0.621739 0.690191
vt 0.347385 0.560000
vt 0.377740 0.472850
vt 0.378251 0.560000
vt 0.642358 0.530057
vt 0.621739 0.560000
vt 0.621739 0.472422
vt 0.621739 0.000000
vt 0.378261 0.060000
vt 0.378261 0.000000
vt 0.625000 0.060000
vt 0.621739 0.060000
vt 0.378261 0.277615
vt 0.378261 0.190000
vt 0.378261 0.972385
vt 0.847385 0.690000
vt 0.175620 0.690000
vt 0.175620 0.750000
vt 0.616176 0.949380
vt 0.625000 0.949380
vt 0.616176 1.000000
vt 0.175620 0.560000
vt 0.125000 0.560000
vt 0.175620 0.500000
vt 0.625000 0.258702
vt 0.616177 0.300620
vt 0.616176 0.190529
vt 0.324380 0.690000
vt 0.383746 0.690000
vt 0.381328 0.798496
vt 0.658032 0.728436
vt 0.616177 0.800620
vt 0.616176 0.690529
vt 0.324380 0.560000
vt 0.381328 0.451504
vt 0.383746 0.560000
vt 0.658032 0.528192
vt 0.616176 0.560000
vt 0.616176 0.449746
vt 0.616176 0.000000
vt 0.383824 0.060000
vt 0.383824 0.000000
vt 0.616176 0.060000
vt 0.625000 0.060000
vt 0.383824 0.300620
vt 0.383824 0.190000
vt 0.383824 0.949380
vt 0.824380 0.560000
vt 0.151918 0.690000
vt 0.151918 0.750000
vt 0.621739 0.973082
vt 0.625000 0.973082
vt 0.151918 0.560000
vt 0.151918 0.500000
vt 0.625000 0.258210
vt 0.621739 0.276918
vt 0.621739 0.190192
vt 0.348082 0.690000
vt 0.378250 0.690000
vt 0.377751 0.776462
vt 0.641902 0.722341
vt 0.621739 0.776918
vt 0.621739 0.690192
vt 0.348082 0.560000
vt 0.377751 0.473537
vt 0.378250 0.560000
vt 0.641902 0.530166
vt 0.621739 0.560000
vt 0.621739 0.473118
vt 0.621739 0.060000
vt 0.378261 0.060000
vt 0.378261 0.276918
vt 0.378261 0.190000
vt 0.378261 0.973082
vt 0.848082 0.690000
vt 0.175646 0.690000
vt 0.175646 0.750000
vt 0.616177 0.949354
vt 0.625000 0.949354
vt 0.175646 0.560000
vt 0.175646 0.500000
vt 0.625000 0.258700
vt 0.616176 0.300646
vt 0.324354 0.690000
vt 0.381328 0.798521
vt 0.658050 0.728442
vt 0.616176 0.800646
vt 0.616176 0.690529
vt 0.324354 0.560000
vt 0.381328 0.451479
vt 0.383746 0.560000
vt 0.658050 0.528192
vt 0.616176 0.560000
vt 0.616177 0.449721
vt 0.383823 0.060000
vt 0.616176 0.060000
vt 0.383824 0.949354
vt 0.824354 0.560000
vt 0.383824 0.300646
vt 0.132162 0.690000
vt 0.132162 0.750000
vt 0.575000 0.992838
vt 0.625000 0.992838
vt 0.575000 1.000000
vt 0.132162 0.560000
vt 0.132162 0.500000
vt 0.625000 0.253084
vt 0.575000 0.257162
vt 0.575000 0.193541
vt 0.367838 0.690000
vt 0.422049 0.690000
vt 0.406980 0.754904
vt 0.629374 0.716146
vt 0.575000 0.757162
vt 0.575000 0.693541
vt 0.367838 0.560000
vt 0.406980 0.495096
vt 0.422049 0.560000
vt 0.629374 0.534332
vt 0.575000 0.560000
vt 0.575000 0.492880
vt 0.575000 0.060000
vt 0.425000 0.060000
vt 0.425000 0.190000
vt 0.425000 0.992838
vt 0.867838 0.560000
vt 0.425000 0.257162
vt 0.132224 0.690000
vt 0.132224 0.750000
vt 0.125000 0.690000
vt 0.575000 0.992776
vt 0.625000 0.992776
vt 0.132224 0.560000
vt 0.132224 0.500000
vt 0.625000 0.253108
vt 0.575000 0.257224
vt 0.575000 0.193541
vt 0.367776 0.690000
vt 0.406963 0.754947
vt 0.629412 0.716167
vt 0.575000 0.757224
vt 0.575000 0.693541
vt 0.367776 0.560000
vt 0.406963 0.495053
vt 0.422049 0.560000
vt 0.629412 0.534315
vt 0.575000 0.560000
vt 0.575000 0.492818
vt 0.425000 0.060000
vt 0.425000 0.992776
vt 0.867776 0.690000
vt 0.425000 0.257224
vt 0.181819 0.000000
vt 0.227273 0.078731
vt 0.136365 0.078731
vt 0.272728 0.157461
vt 0.318182 0.078731
vt 0.363637 0.157461
vt 0.909091 0.000000
vt 0.954545 0.078731
vt 0.863636 0.078731
vt 0.727273 0.000000
vt 0.772727 0.078731
vt 0.681818 0.078731
vt 0.545455 0.000000
vt 0.590909 0.078731
vt 0.500000 0.078731
vt 0.318182 0.236191
vt 0.090910 0.157461
vt 0.181819 0.157461
vt 0.136365 0.236191
vt 0.818182 0.157461
vt 0.909091 0.157461
vt 0.863636 0.236191
vt 0.636364 0.157461
vt 0.727273 0.157461
vt 0.681818 0.236191
vt 0.454546 0.157461
vt 0.545455 0.157461
vt 0.500000 0.236191
vt 0.227273 0.236191
vt 0.045455 0.236191
vt 0.772727 0.236191
vt 0.590909 0.236191
vt 0.409092 0.236191
vt 0.181819 0.314921
vt 0.272728 0.314921
vt 0.227273 0.393651
vt 0.000000 0.314921
vt 0.090910 0.314921
vt 0.045455 0.393651
vt 0.727273 0.314921
vt 0.818182 0.314921
vt 0.772727 0.393651
vt 0.545455 0.314921
vt 0.636364 0.314921
vt 0.590909 0.393651
vt 0.363637 0.314921
vt 0.454546 0.314921
vt 0.409092 0.393651
vt 0.500000 0.393651
vt 0.454546 0.472382
vt 0.681818 0.393651
vt 0.636364 0.472382
vt 0.863636 0.393651
vt 0.818182 0.472382
vt 0.909091 0.314921
vt 0.136365 0.393651
vt 0.090910 0.472382
vt 0.318182 0.393651
vt 0.272728 0.472382
vt 0.954545 0.236191
vt 1.000000 0.157461
vt 0.409092 0.078731
vt 0.363637 0.000000
vt 0.145225 0.690000
vt 0.145225 0.750000
vt 0.610000 0.979775
vt 0.625000 0.979775
vt 0.610000 1.000000
vt 0.145225 0.560000
vt 0.145225 0.500000
vt 0.625000 0.256997
vt 0.610000 0.270225
vt 0.610000 0.190920
vt 0.354775 0.690000
vt 0.389770 0.690000
vt 0.387096 0.768557
vt 0.637575 0.720342
vt 0.610000 0.770225
vt 0.610000 0.690921
vt 0.354775 0.560000
vt 0.387096 0.481443
vt 0.389770 0.560000
vt 0.637575 0.531351
vt 0.610000 0.560000
vt 0.610000 0.479868
vt 0.610000 0.000000
vt 0.390000 0.060000
vt 0.390000 0.000000
vt 0.610000 0.060000
vt 0.390000 0.270225
vt 0.390000 0.190000
vt 0.390000 0.979775
vt 0.854775 0.560000
vt 0.173111 0.731539
vt 0.173111 0.750000
vt 0.125000 0.731538
vt 0.565000 0.951889
vt 0.625000 0.951889
vt 0.565000 1.000000
vt 0.173111 0.518462
vt 0.125000 0.518462
vt 0.173111 0.500000
vt 0.625000 0.248056
vt 0.565000 0.298111
vt 0.565000 0.231892
vt 0.326889 0.731538
vt 0.433852 0.731538
vt 0.397128 0.781257
vt 0.668689 0.737658
vt 0.565000 0.798111
vt 0.565000 0.731892
vt 0.326889 0.518462
vt 0.397128 0.468743
vt 0.433852 0.518462
vt 0.668689 0.513326
vt 0.565000 0.518462
vt 0.565000 0.454599
vt 0.565000 0.000000
vt 0.435000 0.018462
vt 0.625000 0.018462
vt 0.565000 0.018462
vt 0.435000 0.298111
vt 0.435000 0.231538
vt 0.435000 0.951889
vt 0.826889 0.731539
vt 0.172974 0.731538
vt 0.172974 0.750000
vt 0.125000 0.731538
vt 0.565000 0.952026
vt 0.625000 0.952026
vt 0.172974 0.518462
vt 0.172974 0.500000
vt 0.625000 0.248071
vt 0.565000 0.297974
vt 0.327026 0.731538
vt 0.433852 0.731538
vt 0.397159 0.781161
vt 0.668561 0.737649
vt 0.565000 0.797974
vt 0.565000 0.731892
vt 0.327026 0.518462
vt 0.397159 0.468839
vt 0.668561 0.513330
vt 0.565000 0.518461
vt 0.565000 0.454719
vt 0.435000 0.297974
vt 0.435000 0.952026
vt 0.827026 0.731539
vt 0.625000 0.994907
vt 0.869907 0.741667
vt 0.611266 0.967647
vt 0.575000 0.995390
vt 0.870390 0.507432
vt 0.565000 0.995038
vt 0.870038 0.741428
vt 0.847385 0.560000
vt 0.824380 0.690000
vt 0.848082 0.560000
vt 0.824354 0.690000
vt 0.867838 0.690000
vt 0.867776 0.560000
vt 0.854775 0.690000
vt 0.826889 0.518462
vt 0.827026 0.518462
s 0
usemtl wood
f 1/1/1 2/2/1 3/3/1
f 4/4/2 5/5/2 6/6/2
f 7/7/3 8/8/3 9/9/3
f 10/10/4 11/11/4 12/12/4
f 13/13/5 14/14/5 15/15/5
f 16/16/6 17/17/6 18/18/6
f 19/19/7 20/20/7 21/21/7
f 22/22/8 23/23/8 24/24/8
f 1/1/9 8/8/9 7/7/9
f 4/4/10 3/25/10 2/26/10
f 5/5/11 12/12/11 6/6/11
f 11/11/12 8/27/12 12/12/12
f 7/7/13 20/20/13 19/19/13
f 10/10/14 24/24/14 11/11/14
f 21/21/15 24/24/15 23/23/15
f 19/19/16 14/14/16 13/13/16
f 16/16/17 23/23/17 22/22/17
f 17/17/18 14/14/18 18/18/18
f 13/13/19 2/2/19 1/1/19
f 16/16/20 4/28/20 17/17/20
f 19/19/21 1/1/21 7/7/21
f 6/6/22 8/27/22 3/25/22
f 15/15/23 4/28/23 2/29/23
f 10/30/24 16/16/24 22/22/24
f 11/11/25 20/20/25 9/31/25
f 23/23/26 14/14/26 21/21/26
f 25/32/27 26/33/27 27/34/27
f 28/35/28 29/36/28 30/37/28
f 31/38/29 32/39/29 33/40/29
f 34/41/30 35/42/30 36/43/30
f 37/44/31 38/45/31 39/46/31
f 40/47/32 41/48/32 42/49/32
f 43/50/33 44/51/33 45/52/33
f 46/53/34 47/54/34 48/55/34
f 25/32/35 32/39/35 31/38/35
f 26/56/36 30/37/36 27/57/36
f 34/41/37 30/37/37 29/36/37
f 33/58/38 36/43/38 35/42/38
f 31/38/39 44/51/39 43/50/39
f 46/53/40 35/42/40 34/41/40
f 45/52/41 48/55/41 47/54/41
f 37/44/42 45/52/42 38/45/42
f 46/53/43 42/49/43 47/54/43
f 41/48/44 38/45/44 42/49/44
f 37/44/45 26/33/45 25/32/45
f 40/47/46 28/59/46 41/48/46
f 43/50/47 25/32/47 31/38/47
f 30/37/48 32/60/48 27/57/48
f 39/46/49 28/59/49 26/61/49
f 46/53/50 29/62/50 40/47/50
f 35/42/51 44/51/51 33/58/51
f 47/54/52 38/45/52 45/52/52
f 49/32/53 50/33/53 51/34/53
f 52/63/54 53/36/54 54/64/54
f 55/38/55 56/39/55 57/40/55
f 58/41/56 59/65/56 60/66/56
f 61/44/57 62/67/57 63/68/57
f 64/47/58 65/69/58 66/70/58
f 67/50/59 68/71/59 69/72/59
f 70/73/60 71/74/60 72/75/60
f 55/38/61 51/34/61 56/39/61
f 52/63/62 51/76/62 50/77/62
f 53/36/63 60/66/63 54/64/63
f 57/78/64 60/66/64 59/65/64
f 67/50/65 57/40/65 68/71/65
f 58/41/66 72/75/66 59/65/66
f 71/74/67 68/71/67 72/75/67
f 67/50/68 62/67/68 61/44/68
f 64/47/69 71/74/69 70/73/69
f 63/68/70 66/70/70 65/69/70
f 49/32/71 63/68/71 50/33/71
f 53/79/72 65/69/72 64/47/72
f 55/38/73 61/44/73 49/32/73
f 54/64/74 56/80/74 51/76/74
f 63/68/75 52/81/75 50/82/75
f 58/83/76 64/47/76 70/73/76
f 57/78/77 72/75/77 68/71/77
f 71/74/78 62/67/78 69/72/78
f 73/32/79 74/33/79 75/34/79
f 76/84/80 77/36/80 78/85/80
f 79/38/81 80/39/81 81/40/81
f 82/41/82 83/86/82 84/87/82
f 85/44/83 86/88/83 87/89/83
f 88/47/84 89/90/84 90/91/84
f 91/50/85 92/92/85 93/93/85
f 94/53/86 95/94/86 96/95/86
f 73/32/87 80/39/87 79/38/87
f 74/96/88 78/85/88 75/97/88
f 77/36/89 84/87/89 78/85/89
f 81/98/90 84/87/90 83/86/90
f 79/38/91 92/92/91 91/50/91
f 94/53/92 83/86/92 82/41/92
f 93/93/93 96/95/93 95/94/93
f 91/50/94 86/88/94 85/44/94
f 88/47/95 95/94/95 94/53/95
f 87/89/96 90/91/96 89/90/96
f 85/44/97 74/33/97 73/32/97
f 77/79/98 89/90/98 88/47/98
f 79/38/99 85/44/99 73/32/99
f 78/85/100 80/99/100 75/97/100
f 89/90/101 74/100/101 87/89/101
f 82/83/102 88/47/102 94/53/102
f 81/98/103 96/95/103 92/92/103
f 93/93/104 90/91/104 86/88/104
f 97/32/105 98/101/105 99/34/105
f 100/102/106 101/103/106 102/104/106
f 103/38/107 104/39/107 105/105/107
f 106/106/108 107/107/108 108/108/108
f 109/44/109 110/109/109 111/110/109
f 112/47/110 113/111/110 114/112/110
f 115/50/111 116/113/111 117/114/111
f 118/53/112 119/115/112 120/116/112
f 97/32/113 104/39/113 103/38/113
f 98/117/114 102/104/114 99/118/114
f 101/103/115 108/108/115 102/104/115
f 105/119/116 108/108/116 107/107/116
f 103/38/117 116/113/117 115/50/117
f 118/53/118 107/107/118 106/106/118
f 119/115/119 116/113/119 120/116/119
f 115/50/120 110/109/120 109/44/120
f 112/47/121 119/115/121 118/53/121
f 113/111/122 110/109/122 114/112/122
f 109/44/123 98/101/123 97/32/123
f 101/79/124 113/111/124 112/47/124
f 103/38/125 109/44/125 97/32/125
f 102/104/126 104/120/126 99/118/126
f 111/110/127 100/121/127 98/122/127
f 118/53/128 101/62/128 112/47/128
f 107/107/129 116/113/129 105/119/129
f 119/115/130 110/109/130 117/114/130
f 121/123/131 122/124/131 123/125/131
f 124/126/132 125/127/132 126/128/132
f 127/129/133 128/130/133 129/131/133
f 130/132/134 131/133/134 132/134/134
f 133/135/135 134/136/135 135/137/135
f 136/138/136 137/139/136 138/140/136
f 139/141/137 140/142/137 141/143/137
f 142/144/138 143/145/138 144/146/138
f 121/123/139 128/130/139 127/129/139
f 124/126/140 123/147/140 122/148/140
f 125/127/141 132/134/141 126/128/141
f 129/149/142 132/134/142 131/133/142
f 127/129/143 140/142/143 139/141/143
f 142/144/144 131/133/144 130/132/144
f 143/145/145 140/142/145 144/146/145
f 133/135/146 141/143/146 134/136/146
f 136/138/147 143/145/147 142/144/147
f 135/137/148 138/140/148 137/139/148
f 133/135/149 122/124/149 121/123/149
f 125/150/150 137/139/150 136/138/150
f 139/141/151 121/123/151 127/129/151
f 126/128/152 128/151/152 123/147/152
f 137/139/153 122/152/153 135/137/153
f 142/144/154 125/153/154 136/138/154
f 131/133/155 140/142/155 129/149/155
f 141/143/156 138/140/156 134/136/156
f 145/154/157 146/155/157 147/156/157
f 148/157/158 149/158/158 150/159/158
f 151/160/159 152/161/159 153/162/159
f 154/163/160 155/164/160 156/165/160
f 157/166/161 158/167/161 159/168/161
f 160/169/162 161/170/162 162/171/162
f 163/172/163 164/173/163 165/174/163
f 166/175/164 167/176/164 168/177/164
f 145/154/165 152/161/165 151/160/165
f 148/157/166 147/178/166 146/179/166
f 154/163/167 150/159/167 149/158/167
f 155/164/168 152/180/168 156/165/168
f 151/160/169 164/173/169 163/172/169
f 166/175/170 155/164/170 154/163/170
f 165/174/171 168/177/171 167/176/171
f 163/172/172 158/167/172 157/166/172
f 166/175/173 162/171/173 167/176/173
f 161/170/174 158/167/174 162/171/174
f 157/166/175 146/155/175 145/154/175
f 149/181/176 161/170/176 160/169/176
f 163/172/177 145/154/177 151/160/177
f 150/159/178 152/180/178 147/178/178
f 161/170/179 146/182/179 159/168/179
f 154/183/180 160/169/180 166/175/180
f 155/164/181 164/173/181 153/184/181
f 167/176/182 158/167/182 165/174/182
f 169/185/183 170/186/183 171/187/183
f 172/188/184 173/189/184 174/190/184
f 175/191/185 176/192/185 177/193/185
f 178/194/186 179/195/186 180/196/186
f 181/197/187 182/198/187 183/199/187
f 184/200/188 185/201/188 186/202/188
f 187/203/189 188/204/189 189/205/189
f 190/206/190 191/207/190 192/208/190
f 175/191/191 171/187/191 176/192/191
f 172/209/192 171/210/192 170/211/192
f 173/212/193 180/196/193 174/213/193
f 177/214/194 180/196/194 179/195/194
f 175/191/195 188/204/195 187/203/195
f 190/206/196 179/195/196 178/194/196
f 189/205/197 192/208/197 191/207/197
f 187/203/198 182/198/198 181/197/198
f 184/200/199 191/207/199 190/206/199
f 185/201/200 182/198/200 186/202/200
f 169/185/201 183/199/201 170/186/201
f 173/189/202 185/201/202 184/200/202
f 187/203/203 169/185/203 175/191/203
f 174/213/204 176/215/204 171/210/204
f 185/201/205 170/216/205 183/199/205
f 190/206/206 173/217/206 184/200/206
f 177/214/207 192/208/207 188/204/207
f 191/207/208 182/198/208 189/205/208
f 193/218/209 194/219/209 195/187/209
f 196/220/210 197/221/210 198/222/210
f 199/223/211 200/224/211 201/225/211
f 202/226/212 203/227/212 204/228/212
f 205/229/213 206/230/213 207/231/213
f 208/232/214 209/233/214 210/234/214
f 211/235/215 212/236/215 213/237/215
f 214/238/216 215/239/216 216/240/216
f 193/218/217 200/224/217 199/223/217
f 196/241/218 195/242/218 194/243/218
f 202/226/219 198/244/219 197/245/219
f 201/246/220 204/228/220 203/227/220
f 211/235/221 201/225/221 212/236/221
f 202/226/222 216/240/222 203/227/222
f 213/237/223 216/240/223 215/239/223
f 211/235/224 206/230/224 205/229/224
f 214/238/225 210/234/225 215/239/225
f 207/231/226 210/234/226 209/233/226
f 193/218/227 207/231/227 194/219/227
f 208/232/228 196/220/228 209/233/228
f 199/223/229 205/229/229 193/218/229
f 198/244/230 200/247/230 195/242/230
f 209/233/231 194/248/231 207/231/231
f 202/249/232 208/232/232 214/238/232
f 203/227/233 212/236/233 201/246/233
f 213/237/234 210/234/234 206/230/234
f 217/250/235 218/251/235 219/187/235
f 220/252/236 221/253/236 222/190/236
f 223/254/237 224/192/237 225/255/237
f 226/256/238 227/257/238 228/258/238
f 229/259/239 230/260/239 231/261/239
f 232/262/240 233/263/240 234/264/240
f 235/265/241 236/266/241 237/267/241
f 238/268/242 239/269/242 240/270/242
f 217/250/243 224/192/243 223/254/243
f 218/211/244 222/271/244 219/272/244
f 226/256/245 222/271/245 221/245/245
f 225/273/246 228/258/246 227/257/246
f 223/254/247 236/266/247 235/265/247
f 226/256/248 240/270/248 227/257/248
f 237/267/249 240/270/249 239/269/249
f 229/259/250 237/267/250 230/260/250
f 238/268/251 234/264/251 239/269/251
f 231/261/252 234/264/252 233/263/252
f 229/259/253 218/251/253 217/250/253
f 221/253/254 233/263/254 232/262/254
f 223/254/255 229/259/255 217/250/255
f 222/271/256 224/274/256 219/272/256
f 233/263/257 218/275/257 231/261/257
f 238/268/258 221/276/258 232/262/258
f 225/273/259 240/270/259 236/266/259
f 239/269/260 230/260/260 237/267/260
f 241/277/261 242/278/261 243/187/261
f 244/279/262 245/280/262 246/222/262
f 247/281/263 248/192/263 249/282/263
f 250/283/264 251/284/264 252/228/264
f 253/285/265 254/230/265 255/286/265
f 256/287/266 257/288/266 258/289/266
f 259/290/267 260/291/267 261/292/267
f 262/293/268 263/294/268 264/295/268
f 241/277/269 248/192/269 247/281/269
f 244/241/270 243/296/270 242/243/270
f 245/212/271 252/228/271 246/297/271
f 251/284/272 248/247/272 252/228/272
f 247/281/273 260/291/273 259/290/273
f 262/293/274 251/284/274 250/283/274
f 261/292/275 264/295/275 263/294/275
f 259/290/276 254/230/276 253/285/276
f 262/293/277 258/289/277 263/294/277
f 255/286/278 258/289/278 257/288/278
f 253/285/279 242/278/279 241/277/279
f 245/280/280 257/288/280 256/287/280
f 247/281/281 253/285/281 241/277/281
f 243/296/282 252/228/282 248/247/282
f 257/288/283 242/298/283 255/286/283
f 250/299/284 256/287/284 262/293/284
f 251/284/285 260/291/285 249/300/285
f 263/294/286 254/230/286 261/292/286
f 265/301/287 266/302/287 267/187/287
f 268/303/288 269/304/288 270/305/288
f 271/306/289 272/192/289 273/307/289
f 274/308/290 275/309/290 276/310/290
f 277/311/291 278/312/291 279/313/291
f 280/314/292 281/315/292 282/316/292
f 283/317/293 284/318/293 285/319/293
f 286/320/294 287/321/294 288/322/294
f 265/301/295 272/192/295 271/306/295
f 266/148/296 270/323/296 267/324/296
f 274/308/297 270/323/297 269/212/297
f 275/309/298 272/325/298 276/310/298
f 271/306/299 284/318/299 283/317/299
f 286/320/300 275/309/300 274/308/300
f 287/321/301 284/318/301 288/322/301
f 283/317/302 278/312/302 277/311/302
f 286/320/303 282/316/303 287/321/303
f 281/315/304 278/312/304 282/316/304
f 277/311/305 266/302/305 265/301/305
f 269/304/306 281/315/306 280/314/306
f 271/306/307 277/311/307 265/301/307
f 270/323/308 272/325/308 267/324/308
f 281/315/309 266/326/309 279/313/309
f 274/327/310 280/314/310 286/320/310
f 275/309/311 284/318/311 273/328/311
f 287/321/312 278/312/312 285/319/312
f 289/329/313 290/330/313 291/331/313
f 292/332/314 293/333/314 294/305/314
f 295/334/315 296/192/315 297/335/315
f 298/336/316 299/337/316 300/338/316
f 301/339/317 302/312/317 303/340/317
f 304/341/318 305/342/318 306/343/318
f 307/344/319 308/345/319 309/346/319
f 310/347/320 311/348/320 312/349/320
f 295/334/321 291/331/321 296/192/321
f 290/148/322 294/323/322 291/350/322
f 293/245/323 300/338/323 294/323/323
f 299/337/324 296/325/324 300/338/324
f 295/334/325 308/345/325 307/344/325
f 310/347/326 299/337/326 298/336/326
f 309/346/327 312/349/327 311/348/327
f 301/339/328 309/346/328 302/312/328
f 304/341/329 311/348/329 310/347/329
f 303/340/330 306/343/330 305/342/330
f 301/339/331 290/330/331 289/329/331
f 293/333/332 305/342/332 304/341/332
f 307/344/333 289/329/333 295/334/333
f 291/350/334 300/338/334 296/325/334
f 305/342/335 290/351/335 303/340/335
f 310/347/336 293/352/336 304/341/336
f 299/337/337 308/345/337 297/353/337
f 309/346/338 306/343/338 302/312/338
f 1/1/9 3/3/9 8/8/9
f 4/4/10 6/6/10 3/25/10
f 5/5/11 10/10/11 12/12/11
f 11/11/12 9/31/12 8/27/12
f 7/7/13 9/9/13 20/20/13
f 10/10/14 22/22/14 24/24/14
f 21/21/15 20/20/15 24/24/15
f 19/19/497 21/21/497 14/14/497
f 16/16/17 18/18/17 23/23/17
f 17/17/18 15/15/18 14/14/18
f 13/13/19 15/15/19 2/2/19
f 16/16/20 5/502/20 4/28/20
f 19/19/21 13/13/21 1/1/21
f 6/6/22 12/12/22 8/27/22
f 15/15/23 17/17/23 4/28/23
f 10/30/24 5/503/24 16/16/24
f 11/11/25 24/24/25 20/20/25
f 23/23/26 18/18/26 14/14/26
f 25/32/35 27/34/35 32/39/35
f 26/56/36 28/35/36 30/37/36
f 34/41/37 36/43/37 30/37/37
f 33/58/38 32/60/38 36/43/38
f 31/38/39 33/40/39 44/51/39
f 46/53/40 48/55/40 35/42/40
f 45/52/41 44/51/41 48/55/41
f 37/44/42 43/50/42 45/52/42
f 46/53/43 40/47/43 42/49/43
f 41/48/44 39/46/44 38/45/44
f 37/44/45 39/46/45 26/33/45
f 40/47/46 29/79/46 28/59/46
f 43/50/47 37/44/47 25/32/47
f 30/37/48 36/43/48 32/60/48
f 39/46/49 41/48/49 28/59/49
f 46/53/50 34/83/50 29/62/50
f 35/42/51 48/55/51 44/51/51
f 47/54/52 42/49/52 38/45/52
f 55/38/61 49/32/61 51/34/61
f 52/63/62 54/64/62 51/76/62
f 53/36/63 58/41/63 60/66/63
f 57/78/64 56/80/64 60/66/64
f 67/50/65 55/38/65 57/40/65
f 58/41/66 70/73/66 72/75/66
f 71/74/67 69/72/67 68/71/67
f 67/50/68 69/72/68 62/67/68
f 64/47/69 66/70/69 71/74/69
f 63/68/70 62/67/70 66/70/70
f 49/32/71 61/44/71 63/68/71
f 53/79/72 52/81/72 65/69/72
f 55/38/73 67/50/73 61/44/73
f 54/64/74 60/66/74 56/80/74
f 63/68/75 65/69/75 52/81/75
f 58/83/76 53/62/76 64/47/76
f 57/78/77 59/65/77 72/75/77
f 71/74/78 66/70/78 62/67/78
f 73/32/87 75/34/87 80/39/87
f 74/96/88 76/84/88 78/85/88
f 77/36/89 82/41/89 84/87/89
f 81/98/90 80/99/90 84/87/90
f 79/38/91 81/40/91 92/92/91
f 94/53/92 96/95/92 83/86/92
f 93/93/93 92/92/93 96/95/93
f 91/50/94 93/93/94 86/88/94
f 88/47/95 90/91/95 95/94/95
f 87/89/96 86/88/96 90/91/96
f 85/44/97 87/89/97 74/33/97
f 77/79/98 76/504/98 89/90/98
f 79/38/99 91/50/99 85/44/99
f 78/85/100 84/87/100 80/99/100
f 89/90/101 76/504/101 74/100/101
f 82/83/102 77/62/102 88/47/102
f 81/98/103 83/86/103 96/95/103
f 93/93/104 95/94/104 90/91/104
f 97/32/113 99/34/113 104/39/113
f 98/117/114 100/102/114 102/104/114
f 101/103/115 106/106/115 108/108/115
f 105/119/116 104/120/116 108/108/116
f 103/38/117 105/105/117 116/113/117
f 118/53/118 120/116/118 107/107/118
f 119/115/119 117/114/119 116/113/119
f 115/50/120 117/114/120 110/109/120
f 112/47/121 114/112/121 119/115/121
f 113/111/122 111/110/122 110/109/122
f 109/44/123 111/110/123 98/101/123
f 101/79/124 100/121/124 113/111/124
f 103/38/125 115/50/125 109/44/125
f 102/104/126 108/108/126 104/120/126
f 111/110/127 113/111/127 100/121/127
f 118/53/128 106/83/128 101/62/128
f 107/107/129 120/116/129 116/113/129
f 119/115/130 114/112/130 110/109/130
f 121/123/139 123/125/139 128/130/139
f 124/126/140 126/128/140 123/147/140
f 125/127/141 130/132/141 132/134/141
f 129/149/142 128/151/142 132/134/142
f 127/129/143 129/131/143 140/142/143
f 142/144/144 144/146/144 131/133/144
f 143/145/145 141/143/145 140/142/145
f 133/135/146 139/141/146 141/143/146
f 136/138/147 138/140/147 143/145/147
f 135/137/148 134/136/148 138/140/148
f 133/135/149 135/137/149 122/124/149
f 125/150/150 124/505/150 137/139/150
f 139/141/151 133/135/151 121/123/151
f 126/128/152 132/134/152 128/151/152
f 137/139/153 124/505/153 122/152/153
f 142/144/154 130/506/154 125/153/154
f 131/133/155 144/146/155 140/142/155
f 141/143/156 143/145/156 138/140/156
f 145/154/498 147/156/498 152/161/498
f 148/157/166 150/159/166 147/178/166
f 154/163/167 156/165/167 150/159/167
f 155/164/168 153/184/168 152/180/168
f 151/160/169 153/162/169 164/173/169
f 166/175/170 168/177/170 155/164/170
f 165/174/171 164/173/171 168/177/171
f 163/172/172 165/174/172 158/167/172
f 166/175/173 160/169/173 162/171/173
f 161/170/174 159/168/174 158/167/174
f 157/166/175 159/168/175 146/155/175
f 149/181/176 148/507/176 161/170/176
f 163/172/177 157/166/177 145/154/177
f 150/159/178 156/165/178 152/180/178
f 161/170/179 148/507/179 146/182/179
f 154/183/180 149/508/180 160/169/180
f 155/164/181 168/177/181 164/173/181
f 167/176/182 162/171/182 158/167/182
f 175/191/191 169/185/191 171/187/191
f 172/209/192 174/213/192 171/210/192
f 173/212/499 178/194/499 180/196/499
f 177/214/194 176/215/194 180/196/194
f 175/191/195 177/193/195 188/204/195
f 190/206/196 192/208/196 179/195/196
f 189/205/197 188/204/197 192/208/197
f 187/203/500 189/205/500 182/198/500
f 184/200/199 186/202/199 191/207/199
f 185/201/200 183/199/200 182/198/200
f 169/185/201 181/197/201 183/199/201
f 173/189/202 172/188/202 185/201/202
f 187/203/203 181/197/203 169/185/203
f 174/213/204 180/196/204 176/215/204
f 185/201/205 172/188/205 170/216/205
f 190/206/206 178/509/206 173/217/206
f 177/214/207 179/195/207 192/208/207
f 191/207/208 186/202/208 182/198/208
f 193/218/217 195/187/217 200/224/217
f 196/241/218 198/244/218 195/242/218
f 202/226/219 204/228/219 198/244/219
f 201/246/220 200/247/220 204/228/220
f 211/235/221 199/223/221 201/225/221
f 202/226/222 214/238/222 216/240/222
f 213/237/223 212/236/223 216/240/223
f 211/235/224 213/237/224 206/230/224
f 214/238/225 208/232/225 210/234/225
f 207/231/226 206/230/226 210/234/226
f 193/218/227 205/229/227 207/231/227
f 208/232/228 197/221/228 196/220/228
f 199/223/229 211/235/229 205/229/229
f 198/244/230 204/228/230 200/247/230
f 209/233/231 196/220/231 194/248/231
f 202/249/232 197/510/232 208/232/232
f 203/227/233 216/240/233 212/236/233
f 213/237/234 215/239/234 210/234/234
f 217/250/501 219/187/501 224/192/501
f 218/211/244 220/209/244 222/271/244
f 226/256/245 228/258/245 222/271/245
f 225/273/246 224/274/246 228/258/246
f 223/254/247 225/255/247 236/266/247
f 226/256/502 238/268/502 240/270/502
f 237/267/249 236/266/249 240/270/249
f 229/259/250 235/265/250 237/267/250
f 238/268/251 232/262/251 234/264/251
f 231/261/252 230/260/252 234/264/252
f 229/259/253 231/261/253 218/251/253
f 221/253/254 220/252/254 233/263/254
f 223/254/255 235/265/255 229/259/255
f 222/271/256 228/258/256 224/274/256
f 233/263/257 220/252/257 218/275/257
f 238/268/258 226/511/258 221/276/258
f 225/273/259 227/257/259 240/270/259
f 239/269/260 234/264/260 230/260/260
f 241/277/269 243/187/269 248/192/269
f 244/241/270 246/297/270 243/296/270
f 245/212/271 250/283/271 252/228/271
f 251/284/503 249/300/503 248/247/503
f 247/281/273 249/282/273 260/291/273
f 262/293/274 264/295/274 251/284/274
f 261/292/275 260/291/275 264/295/275
f 259/290/276 261/292/276 254/230/276
f 262/293/277 256/287/277 258/289/277
f 255/286/278 254/230/278 258/289/278
f 253/285/279 255/286/279 242/278/279
f 245/280/280 244/279/280 257/288/280
f 247/281/281 259/290/281 253/285/281
f 243/296/282 246/297/282 252/228/282
f 257/288/283 244/279/283 242/298/283
f 250/299/284 245/512/284 256/287/284
f 251/284/285 264/295/285 260/291/285
f 263/294/286 258/289/286 254/230/286
f 265/301/295 267/187/295 272/192/295
f 266/148/296 268/126/296 270/323/296
f 274/308/297 276/310/297 270/323/297
f 275/309/298 273/328/298 272/325/298
f 271/306/299 273/307/299 284/318/299
f 286/320/300 288/322/300 275/309/300
f 287/321/301 285/319/301 284/318/301
f 283/317/302 285/319/302 278/312/302
f 286/320/303 280/314/303 282/316/303
f 281/315/304 279/313/304 278/312/304
f 277/311/305 279/313/305 266/302/305
f 269/304/306 268/303/306 281/315/306
f 271/306/307 283/317/307 277/311/307
f 270/323/308 276/310/308 272/325/308
f 281/315/309 268/303/309 266/326/309
f 274/327/310 269/513/310 280/314/310
f 275/309/311 288/322/311 284/318/311
f 287/321/312 282/316/312 278/312/312
f 295/334/321 289/329/321 291/331/321
f 290/148/322 292/126/322 294/323/322
f 293/245/323 298/336/323 300/338/323
f 299/337/324 297/353/324 296/325/324
f 295/334/325 297/335/325 308/345/325
f 310/347/326 312/349/326 299/337/326
f 309/346/327 308/345/327 312/349/327
f 301/339/328 307/344/328 309/346/328
f 304/341/329 306/343/329 311/348/329
f 303/340/330 302/312/330 306/343/330
f 301/339/331 303/340/331 290/330/331
f 293/333/332 292/332/332 305/342/332
f 307/344/333 301/339/333 289/329/333
f 291/350/334 294/323/334 300/338/334
f 305/342/335 292/332/335 290/351/335
f 310/347/336 298/514/336 293/352/336
f 299/337/337 312/349/337 308/345/337
f 309/346/338 311/348/338 306/343/338
usemtl core
f 313/354/339 326/355/339 325/356/339
f 314/357/340 326/358/340 328/359/340
f 313/360/341 325/361/341 330/362/341
f 313/363/342 330/364/342 332/365/342
f 313/366/343 332/367/343 329/368/343
f 314/357/344 328/359/344 335/369/344
f 315/370/345 327/371/345 337/372/345
f 316/373/346 331/374/346 339/375/346
f 317/376/347 333/377/347 341/378/347
f 318/379/348 334/380/348 343/381/348
f 314/357/349 335/369/349 338/382/349
f 315/370/350 337/372/350 340/383/350
f 316/373/351 339/375/351 342/384/351
f 317/376/352 341/378/352 344/385/352
f 318/379/353 343/381/353 336/386/353
f 319/387/354 345/388/354 350/389/354
f 320/390/355 346/391/355 352/392/355
f 321/393/356 347/394/356 353/395/356
f 322/396/357 348/397/357 354/398/357
f 323/399/358 349/400/358 351/401/358
f 351/401/359 354/402/359 324/403/359
f 351/401/360 349/400/360 354/402/360
f 349/400/361 322/396/361 354/402/361
f 354/398/362 353/404/362 324/405/362
f 354/398/363 348/397/363 353/404/363
f 348/397/364 321/393/364 353/404/364
f 353/395/365 352/406/365 324/407/365
f 353/395/366 347/394/366 352/406/366
f 347/394/367 320/408/367 352/406/367
f 352/392/368 350/409/368 324/410/368
f 352/392/369 346/391/369 350/409/369
f 346/391/370 319/387/370 350/409/370
f 350/389/371 351/411/371 324/412/371
f 350/389/372 345/388/372 351/411/372
f 345/388/373 323/399/373 351/411/373
f 336/386/374 349/400/374 323/399/374
f 336/386/375 343/381/375 349/400/375
f 343/381/376 322/396/376 349/400/376
f 344/385/377 348/397/377 322/396/377
f 344/385/378 341/378/378 348/397/378
f 341/378/379 321/393/379 348/397/379
f 342/384/380 347/394/380 321/393/380
f 342/384/381 339/375/381 347/394/381
f 339/375/382 320/408/382 347/394/382
f 340/383/383 346/391/383 320/390/383
f 340/383/384 337/372/384 346/391/384
f 337/372/385 319/387/385 346/391/385
f 338/382/386 345/388/386 319/387/386
f 338/382/387 335/369/387 345/388/387
f 335/369/388 323/399/388 345/388/388
f 343/381/389 344/385/389 322/396/389
f 343/381/390 334/380/390 344/385/390
f 334/380/391 317/376/391 344/385/391
f 341/378/392 342/384/392 321/393/392
f 341/378/393 333/377/393 342/384/393
f 333/377/394 316/373/394 342/384/394
f 339/375/395 340/413/395 320/408/395
f 339/375/396 331/374/396 340/413/396
f 331/374/397 315/414/397 340/413/397
f 337/372/398 338/382/398 319/387/398
f 337/372/399 327/371/399 338/382/399
f 327/371/400 314/357/400 338/382/400
f 335/369/401 336/386/401 323/399/401
f 335/369/402 328/359/402 336/386/402
f 328/359/403 318/379/403 336/386/403
f 329/368/404 334/380/404 318/379/404
f 329/368/405 332/367/405 334/380/405
f 332/367/406 317/376/406 334/380/406
f 332/365/407 333/377/407 317/376/407
f 332/365/408 330/364/408 333/377/408
f 330/364/409 316/373/409 333/377/409
f 330/362/410 331/374/410 316/373/410
f 330/362/411 325/361/411 331/374/411
f 325/361/412 315/414/412 331/374/412
f 328/359/413 329/415/413 318/379/413
f 328/359/414 326/358/414 329/415/414
f 326/358/415 313/416/415 329/415/415
f 325/356/416 327/371/416 315/370/416
f 325/356/417 326/355/417 327/371/417
f 326/355/418 314/357/418 327/371/418
usemtl iron
f 355/417/419 356/418/419 357/187/419
f 358/419/420 359/420/420 360/421/420
f 361/422/421 362/192/421 363/423/421
f 364/424/422 365/425/422 366/426/422
f 367/427/423 368/428/423 369/429/423
f 370/430/424 371/431/424 372/432/424
f 373/433/425 374/434/425 375/435/425
f 376/436/426 377/437/426 378/438/426
f 361/422/427 357/187/427 362/192/427
f 358/439/428 357/440/428 356/441/428
f 359/245/429 366/426/429 360/442/429
f 363/443/430 366/426/430 365/425/430
f 361/422/431 374/434/431 373/433/431
f 376/436/432 365/425/432 364/424/432
f 375/435/433 378/438/433 377/437/433
f 367/427/434 375/435/434 368/428/434
f 376/436/435 372/432/435 377/437/435
f 369/429/436 372/432/436 371/431/436
f 367/427/437 356/418/437 355/417/437
f 359/420/438 371/431/438 370/430/438
f 361/422/439 367/427/439 355/417/439
f 357/440/440 366/426/440 362/444/440
f 371/431/441 356/445/441 369/429/441
f 364/446/442 370/430/442 376/436/442
f 363/443/443 378/438/443 374/434/443
f 375/435/444 372/432/444 368/428/444
f 379/447/445 380/448/445 381/449/445
f 382/450/446 383/451/446 384/452/446
f 385/453/447 386/454/447 387/455/447
f 388/456/448 389/457/448 390/458/448
f 391/459/449 392/460/449 393/461/449
f 394/462/450 395/463/450 396/464/450
f 397/465/451 398/466/451 399/467/451
f 400/468/452 401/469/452 402/470/452
f 379/447/453 386/454/453 385/453/453
f 382/471/454 381/472/454 380/179/454
f 383/473/455 390/458/455 384/474/455
f 387/475/456 390/458/456 389/457/456
f 397/465/457 387/455/457 398/466/457
f 400/468/458 389/457/458 388/456/458
f 401/469/459 398/466/459 402/470/459
f 391/459/460 399/467/460 392/460/460
f 394/462/461 401/469/461 400/468/461
f 395/463/462 392/460/462 396/464/462
f 379/447/463 393/461/463 380/448/463
f 383/451/464 395/463/464 394/462/464
f 397/465/465 379/447/465 385/453/465
f 384/474/466 386/476/466 381/472/466
f 393/461/467 382/450/467 380/477/467
f 400/468/468 383/478/468 394/462/468
f 389/457/469 398/466/469 387/475/469
f 401/469/470 392/460/470 399/467/470
f 403/479/471 404/480/471 405/481/471
f 406/482/472 407/483/472 408/452/472
f 409/484/473 410/454/473 411/485/473
f 412/486/474 413/487/474 414/458/474
f 415/488/475 416/489/475 417/490/475
f 418/491/476 419/492/476 420/493/476
f 421/494/477 422/495/477 423/467/477
f 424/496/478 425/497/478 426/498/478
f 409/484/479 405/481/479 410/454/479
f 406/471/480 405/472/480 404/179/480
f 412/486/481 408/474/481 407/473/481
f 411/499/482 414/458/482 413/487/482
f 409/484/483 422/495/483 421/494/483
f 424/496/484 413/487/484 412/486/484
f 425/497/485 422/495/485 426/498/485
f 415/488/486 423/467/486 416/489/486
f 424/496/487 420/493/487 425/497/487
f 419/492/488 416/489/488 420/493/488
f 403/479/489 417/490/489 404/480/489
f 407/483/490 419/492/490 418/491/490
f 409/484/491 415/488/491 403/479/491
f 408/474/492 410/476/492 405/472/492
f 417/490/493 406/482/493 404/500/493
f 424/496/494 407/501/494 418/491/494
f 413/487/495 422/495/495 411/499/495
f 425/497/496 416/489/496 423/467/496
f 361/422/427 355/417/427 357/187/427
f 358/439/428 360/442/428 357/440/428
f 359/245/429 364/424/429 366/426/429
f 363/443/430 362/444/430 366/426/430
f 361/422/431 363/423/431 374/434/431
f 376/436/504 378/438/504 365/425/504
f 375/435/433 374/434/433 378/438/433
f 367/427/505 373/433/505 375/435/505
f 376/436/435 370/430/435 372/432/435
f 369/429/436 368/428/436 372/432/436
f 367/427/506 369/429/506 356/418/506
f 359/420/438 358/419/438 371/431/438
f 361/422/439 373/433/439 367/427/439
f 357/440/440 360/442/440 366/426/440
f 371/431/441 358/419/441 356/445/441
f 364/446/442 359/515/442 370/430/442
f 363/443/443 365/425/443 378/438/443
f 375/435/444 377/437/444 372/432/444
f 379/447/453 381/449/453 386/454/453
f 382/471/454 384/474/454 381/472/454
f 383/473/455 388/456/455 390/458/455
f 387/475/456 386/476/456 390/458/456
f 397/465/457 385/453/457 387/455/457
f 400/468/458 402/470/458 389/457/458
f 401/469/459 399/467/459 398/466/459
f 391/459/460 397/465/460 399/467/460
f 394/462/461 396/464/461 401/469/461
f 395/463/462 393/461/462 392/460/462
f 379/447/463 391/459/463 393/461/463
f 383/451/464 382/450/464 395/463/464
f 397/465/465 391/459/465 379/447/465
f 384/474/507 390/458/507 386/476/507
f 393/461/467 395/463/467 382/450/467
f 400/468/468 388/516/468 383/478/468
f 389/457/469 402/470/469 398/466/469
f 401/469/470 396/464/470 392/460/470
f 409/484/479 403/479/479 405/481/479
f 406/471/480 408/474/480 405/472/480
f 412/486/481 414/458/481 408/474/481
f 411/499/482 410/476/482 414/458/482
f 409/484/483 411/485/483 422/495/483
f 424/496/484 426/498/484 413/487/484
f 425/497/485 423/467/485 422/495/485
f 415/488/486 421/494/486 423/467/486
f 424/496/487 418/491/487 420/493/487
f 419/492/488 417/490/488 416/489/488
f 403/479/489 415/488/489 417/490/489
f 407/483/490 406/482/490 419/492/490
f 409/484/508 421/494/508 415/488/508
f 408/474/492 414/458/492 410/476/492
f 417/490/493 419/492/493 406/482/493
f 424/496/494 412/517/494 407/501/494
f 413/487/495 426/498/495 422/495/495
f 425/497/496 420/493/496 416/489/496
