# Blender 4.5.10 LTS
# www.blender.org
mtllib stow_label_slate.mtl
o stow_label_slate
v 0.190566 0.416298 0.255781
v 0.190551 0.416675 0.255348
v 0.195812 0.416890 0.255751
v 0.190561 0.416403 0.255480
v 0.193597 0.416571 0.255523
v 0.194270 0.416821 0.255459
v 0.194281 0.416554 0.255765
v 0.189511 0.443857 0.254472
v 0.189497 0.444263 0.254879
v 0.194772 0.444072 0.254875
v 0.189501 0.444138 0.254586
v 0.192540 0.444205 0.254632
v 0.193221 0.444290 0.254871
v 0.193231 0.444003 0.254583
v 0.190623 0.417240 0.284925
v 0.195869 0.417832 0.284896
v 0.190609 0.417645 0.285333
v 0.194338 0.417496 0.284910
v 0.193654 0.417529 0.285153
v 0.194328 0.417783 0.285198
v 0.190620 0.417364 0.285219
v 0.189554 0.445205 0.284024
v 0.189570 0.444827 0.284456
v 0.194829 0.445014 0.284019
v 0.189559 0.445100 0.284324
v 0.192598 0.445163 0.284262
v 0.193289 0.444965 0.284321
v 0.193278 0.445232 0.284015
v -0.174638 0.402369 0.256945
v -0.179913 0.402559 0.256949
v -0.174654 0.402746 0.256512
v -0.178362 0.402341 0.256953
v -0.177682 0.402410 0.256707
v -0.178373 0.402609 0.256647
v -0.174643 0.402474 0.256644
v -0.175708 0.430334 0.256043
v -0.175694 0.429929 0.255636
v -0.180953 0.429741 0.256072
v -0.175704 0.430209 0.255750
v -0.178739 0.430044 0.255815
v -0.179413 0.429791 0.255770
v -0.179423 0.430077 0.256058
v -0.174581 0.403311 0.286089
v -0.174595 0.403716 0.286497
v -0.179856 0.403501 0.286094
v -0.174585 0.403435 0.286382
v -0.177624 0.403368 0.286336
v -0.178315 0.403570 0.286385
v -0.178305 0.403283 0.286097
v -0.175651 0.431276 0.285188
v -0.180896 0.430683 0.285217
v -0.175635 0.430898 0.285620
v -0.179366 0.431019 0.285203
v -0.178681 0.431002 0.285445
v -0.179355 0.430752 0.285509
v -0.175646 0.431171 0.285488
v 0.178189 0.229960 0.242446
v 0.178207 0.230343 0.242019
v 0.183466 0.230027 0.242376
v 0.178192 0.230069 0.242147
v 0.181229 0.229934 0.242165
v 0.181924 0.230117 0.242098
v 0.181910 0.229846 0.242400
v 0.179876 0.257502 0.241463
v 0.179906 0.257902 0.241875
v 0.185135 0.257187 0.241821
v 0.179895 0.257781 0.241580
v 0.182926 0.257545 0.241600
v 0.183614 0.257558 0.241833
v 0.183593 0.257276 0.241542
v 0.178568 0.230533 0.271598
v 0.183845 0.230600 0.271528
v 0.178597 0.230933 0.272010
v 0.182290 0.230419 0.271552
v 0.181614 0.230516 0.271802
v 0.182311 0.230701 0.271843
v 0.178579 0.230654 0.271893
v 0.180285 0.258475 0.271027
v 0.180266 0.258092 0.271455
v 0.185515 0.257760 0.270973
v 0.180282 0.258366 0.271326
v 0.183311 0.258127 0.271237
v 0.183980 0.257860 0.271288
v 0.183993 0.258131 0.270985
v -0.186565 0.252465 0.246749
v -0.191794 0.253180 0.246803
v -0.186546 0.252848 0.246321
v -0.190272 0.252808 0.246790
v -0.189591 0.252812 0.246539
v -0.190259 0.253079 0.246488
v -0.186561 0.252573 0.246450
v -0.184847 0.280406 0.246177
v -0.184877 0.280007 0.245765
v -0.190125 0.280339 0.246247
v -0.184858 0.280286 0.245883
v -0.187894 0.280423 0.245974
v -0.188590 0.280238 0.245932
v -0.188569 0.280521 0.246224
v -0.186185 0.253038 0.275901
v -0.186156 0.253437 0.276313
v -0.191415 0.253753 0.275955
v -0.186174 0.253158 0.276195
v -0.189205 0.253395 0.276176
v -0.189872 0.253664 0.276234
v -0.189893 0.253381 0.275942
v -0.184468 0.280979 0.275329
v -0.189746 0.280912 0.275399
v -0.184487 0.280596 0.275757
v -0.188190 0.281094 0.275375
v -0.187508 0.281006 0.275611
v -0.188203 0.280823 0.275678
v -0.184471 0.280870 0.275629
v 0.177927 0.276998 0.244405
v 0.178063 0.278827 0.244053
v 0.178431 0.278788 0.244492
v 0.177976 0.277539 0.244128
v 0.178214 0.277758 0.244203
v 0.178333 0.278805 0.244190
v 0.178237 0.277511 0.244439
v 0.185952 0.404854 0.248730
v 0.186043 0.406655 0.249217
v 0.186320 0.404814 0.249170
v 0.186026 0.406133 0.248901
v 0.186234 0.405881 0.248958
v 0.186286 0.406105 0.249211
v 0.186222 0.404832 0.248867
v 0.176375 0.276015 0.273507
v 0.176879 0.277805 0.273594
v 0.176466 0.277816 0.273993
v 0.176685 0.276529 0.273541
v 0.176636 0.276759 0.273789
v 0.176749 0.277802 0.273885
v 0.176393 0.276536 0.273823
v 0.184491 0.405672 0.278319
v 0.184355 0.403842 0.278671
v 0.184768 0.403831 0.278272
v 0.184442 0.405130 0.278596
v 0.184656 0.404882 0.278544
v 0.184638 0.403829 0.278562
v 0.184734 0.405122 0.278313
v 0.150803 0.278747 0.243017
v 0.150526 0.280587 0.243065
v 0.150939 0.280576 0.242666
v 0.150560 0.279297 0.243023
v 0.150638 0.279537 0.242792
v 0.150656 0.280590 0.242774
v 0.150852 0.279289 0.242741
v 0.158919 0.408404 0.247830
v 0.158828 0.406603 0.247343
v 0.158415 0.406614 0.247742
v 0.158902 0.407883 0.247513
v 0.158658 0.407660 0.247548
v 0.158545 0.406617 0.247452
v 0.158610 0.407890 0.247796
v 0.149251 0.277764 0.272119
v 0.149342 0.279565 0.272606
v 0.148974 0.279604 0.272167
v 0.149268 0.278286 0.272436
v 0.149060 0.278538 0.272378
v 0.149072 0.279587 0.272469
v 0.149008 0.278314 0.272125
v 0.157367 0.407421 0.276932
v 0.156863 0.405631 0.276844
v 0.157231 0.405592 0.277283
v 0.157058 0.406907 0.276898
v 0.157081 0.406660 0.277134
v 0.156961 0.405614 0.277147
v 0.157318 0.406880 0.277208
v -0.158466 0.281855 0.252111
v -0.158464 0.283666 0.251653
v -0.158075 0.283675 0.252075
v -0.158465 0.282382 0.251803
v -0.158239 0.282619 0.251854
v -0.158188 0.283669 0.251778
v -0.158189 0.282388 0.252102
v -0.158487 0.409998 0.248982
v -0.158490 0.411826 0.249363
v -0.158098 0.410007 0.249404
v -0.158488 0.411287 0.249077
v -0.158262 0.411052 0.249138
v -0.158213 0.411293 0.249376
v -0.158211 0.410001 0.249106
v -0.158629 0.282472 0.281264
v -0.158237 0.284291 0.281228
v -0.158632 0.284300 0.281646
v -0.158352 0.283005 0.281255
v -0.158404 0.283246 0.281492
v -0.158354 0.284298 0.281524
v -0.158631 0.283011 0.281550
v -0.158653 0.412443 0.278516
v -0.158655 0.410632 0.278975
v -0.158260 0.410623 0.278557
v -0.158654 0.411916 0.278824
v -0.158428 0.411679 0.278776
v -0.158377 0.410629 0.278853
v -0.158376 0.411910 0.278529
v -0.185682 0.281847 0.251960
v -0.186074 0.283667 0.251919
v -0.185680 0.283658 0.251501
v -0.185959 0.282380 0.251947
v -0.185907 0.282611 0.251700
v -0.185958 0.283660 0.251623
v -0.185680 0.282374 0.251652
v -0.185706 0.411818 0.249211
v -0.185703 0.409990 0.248830
v -0.186097 0.409998 0.249248
v -0.185704 0.411279 0.248926
v -0.185931 0.411044 0.248984
v -0.185981 0.409992 0.248952
v -0.185983 0.411285 0.249221
v -0.185845 0.282464 0.281113
v -0.185847 0.284292 0.281494
v -0.186237 0.284283 0.281072
v -0.185846 0.283003 0.281398
v -0.186072 0.283238 0.281338
v -0.186124 0.284289 0.281370
v -0.186122 0.282996 0.281100
v -0.185868 0.412434 0.278365
v -0.186260 0.410615 0.278401
v -0.185870 0.410624 0.278823
v -0.186145 0.411901 0.278374
v -0.186096 0.411671 0.278622
v -0.186147 0.410621 0.278698
v -0.185870 0.411908 0.278673
v 0.156854 0.280326 0.251570
v 0.156782 0.282124 0.251197
v 0.161251 0.282337 0.251531
v 0.156835 0.280846 0.251357
v 0.159408 0.281197 0.251421
v 0.159944 0.282268 0.251329
v 0.159995 0.280997 0.251593
v 0.151405 0.408086 0.242741
v 0.151322 0.409917 0.242870
v 0.155874 0.408299 0.243074
v 0.151349 0.409374 0.242728
v 0.153942 0.409254 0.242824
v 0.154509 0.409525 0.242964
v 0.154568 0.408230 0.242873
v 0.156483 0.281482 0.269024
v 0.160880 0.283493 0.268985
v 0.156400 0.283313 0.269154
v 0.159624 0.282153 0.269047
v 0.159030 0.282372 0.269165
v 0.159566 0.283447 0.269138
v 0.156456 0.282026 0.269166
v 0.150951 0.411073 0.260324
v 0.151023 0.409275 0.260697
v 0.155503 0.409455 0.260528
v 0.150970 0.410553 0.260538
v 0.153564 0.410429 0.260568
v 0.154189 0.409409 0.260682
v 0.154138 0.410681 0.260418
v -0.153834 0.266681 0.245865
v -0.158387 0.268299 0.245661
v -0.153907 0.268479 0.245492
v -0.157021 0.267074 0.245771
v -0.156448 0.267325 0.245621
v -0.157072 0.268345 0.245508
v -0.153853 0.267201 0.245652
v -0.159366 0.396272 0.237165
v -0.159283 0.394441 0.237036
v -0.163764 0.394261 0.237205
v -0.159340 0.395729 0.237023
v -0.161914 0.395382 0.237024
v -0.162449 0.394307 0.237051
v -0.162508 0.395602 0.237143
v -0.154206 0.267837 0.263319
v -0.154288 0.269668 0.263449
v -0.158758 0.269455 0.263115
v -0.154232 0.268380 0.263461
v -0.156825 0.268500 0.263365
v -0.157451 0.269524 0.263317
v -0.157393 0.268230 0.263225
v -0.159737 0.397428 0.254619
v -0.164135 0.395417 0.254659
v -0.159665 0.395630 0.254992
v -0.162879 0.396758 0.254597
v -0.162291 0.396557 0.254768
v -0.162828 0.395486 0.254861
v -0.159718 0.396908 0.254832
v 0.151853 0.278257 0.274775
v 0.151858 0.279796 0.274651
v 0.156057 0.279785 0.274803
v 0.151855 0.278707 0.274692
v 0.154280 0.278901 0.274728
v 0.154827 0.279788 0.274712
v 0.154824 0.278700 0.274800
v 0.152147 0.386712 0.273835
v 0.152150 0.388253 0.273936
v 0.156346 0.386702 0.273987
v 0.152149 0.387801 0.273860
v 0.154574 0.387595 0.273899
v 0.155118 0.387794 0.273967
v 0.155116 0.386705 0.273896
v 0.151779 0.278316 0.282550
v 0.155983 0.279845 0.282578
v 0.151782 0.279857 0.282650
v 0.154750 0.278759 0.282575
v 0.154205 0.278961 0.282633
v 0.154752 0.279849 0.282646
v 0.151779 0.278768 0.282626
v 0.152076 0.388312 0.281711
v 0.152071 0.386773 0.281835
v 0.156272 0.386761 0.281763
v 0.152074 0.387862 0.281794
v 0.154499 0.387656 0.281804
v 0.155041 0.386765 0.281830
v 0.155045 0.387854 0.281743
v -0.139733 0.279023 0.272002
v -0.143929 0.280574 0.271951
v -0.139728 0.280563 0.271878
v -0.142702 0.279482 0.271971
v -0.142156 0.279680 0.271910
v -0.142698 0.280571 0.271883
v -0.139731 0.279474 0.271920
v -0.139436 0.389020 0.271163
v -0.139439 0.387479 0.271063
v -0.143640 0.387491 0.271135
v -0.139436 0.388568 0.271087
v -0.141862 0.388375 0.271080
v -0.142409 0.387487 0.271067
v -0.142407 0.388577 0.271138
v -0.139807 0.279083 0.279778
v -0.139804 0.280624 0.279878
v -0.144003 0.280634 0.279726
v -0.139806 0.279535 0.279853
v -0.142231 0.279741 0.279814
v -0.142773 0.280631 0.279817
v -0.142775 0.279542 0.279746
v -0.139510 0.389079 0.278938
v -0.143714 0.387550 0.278910
v -0.139515 0.387540 0.279062
v -0.142481 0.388636 0.278914
v -0.141937 0.388435 0.278985
v -0.142484 0.387548 0.279001
v -0.139512 0.388629 0.279021
vn 0.0656 -0.9652 -0.2533
vn 0.0369 -0.4335 -0.9004
vn 0.1566 -0.7408 -0.6532
vn 0.0171 0.2925 -0.9561
vn -0.0143 0.9205 -0.3904
vn 0.1012 0.7070 -0.6999
vn 0.0584 -0.9189 0.3902
vn 0.1592 -0.6971 0.6991
vn 0.0454 -0.2902 0.9559
vn -0.0065 0.9674 0.2532
vn 0.0094 0.4355 0.9001
vn 0.1038 0.7507 0.6524
vn 0.0129 -0.9438 -0.3302
vn -0.1039 -0.7507 -0.6524
vn -0.0208 -0.3533 -0.9353
vn -0.0667 0.9468 -0.3149
vn -0.0404 0.3745 -0.9263
vn -0.1592 0.6970 -0.6991
vn 0.0076 -0.9491 0.3150
vn -0.0059 -0.3763 0.9265
vn -0.1012 -0.7070 0.6999
vn -0.0569 0.9421 0.3303
vn -0.1566 0.7408 0.6533
vn -0.0417 0.3514 0.9353
vn 0.0690 -0.9971 0.0321
vn 0.2144 -0.9763 0.0311
vn 0.0311 -0.0310 -0.9990
vn 0.1871 -0.0245 -0.9820
vn -0.0074 0.9995 -0.0323
vn 0.1392 0.9897 -0.0323
vn 0.0350 0.0335 0.9988
vn 0.1909 0.0389 0.9808
vn 0.0363 -0.9199 0.3905
vn 0.0173 -0.3755 0.9267
vn -0.0349 0.9432 0.3303
vn -0.0137 0.4347 0.9005
vn -0.1871 0.0245 0.9820
vn -0.0311 0.0310 0.9990
vn 0.0074 -0.9995 0.0323
vn -0.1392 -0.9897 0.0323
vn -0.0690 0.9971 -0.0321
vn -0.2144 0.9762 -0.0311
vn -0.0350 -0.0335 -0.9988
vn -0.1909 -0.0389 -0.9808
vn 0.0349 -0.9432 -0.3303
vn 0.0137 -0.4346 -0.9005
vn -0.0363 0.9199 -0.3904
vn -0.0173 0.3754 -0.9267
vn 0.0382 -0.9988 0.0322
vn 0.9993 0.0381 -0.0032
vn -0.0020 -0.0323 -0.9995
vn -0.0382 0.9988 -0.0322
vn 0.0020 0.0323 0.9995
vn -0.9993 -0.0381 0.0032
vn -0.0330 -0.9637 -0.2650
vn -0.0136 -0.4240 -0.9055
vn 0.0768 -0.7446 -0.6631
vn 0.0387 0.3010 -0.9528
vn 0.0745 0.9221 -0.3797
vn 0.1657 0.7020 -0.6927
vn -0.0305 -0.9248 0.3792
vn 0.0944 -0.7180 0.6896
vn 0.0238 -0.3049 0.9521
vn 0.0920 0.9600 0.2643
vn 0.0599 0.4212 0.9050
vn 0.1833 0.7286 0.6599
vn -0.0839 -0.9363 -0.3412
vn -0.1833 -0.7286 -0.6600
vn -0.0633 -0.3382 -0.9389
vn 0.0256 0.9525 -0.3034
vn -0.0101 0.3883 -0.9215
vn -0.0944 0.7180 -0.6896
vn -0.0846 -0.9489 0.3041
vn -0.0361 -0.3854 0.9220
vn -0.1657 -0.7020 0.6927
vn 0.0399 0.9390 0.3416
vn -0.0768 0.7446 0.6631
vn 0.0008 0.3420 0.9397
vn -0.0305 -0.9993 0.0200
vn 0.1162 -0.9931 0.0180
vn 0.0200 -0.0217 -0.9996
vn 0.1760 -0.0309 -0.9839
vn 0.0921 0.9955 -0.0208
vn 0.2369 0.9713 -0.0222
vn 0.0460 0.0176 0.9988
vn 0.2015 0.0076 0.9795
vn -0.0525 -0.9236 0.3796
vn -0.0130 -0.3868 0.9221
vn 0.0619 0.9378 0.3415
vn 0.0368 0.4227 0.9055
vn -0.1760 0.0309 0.9839
vn -0.0200 0.0217 0.9996
vn -0.0921 -0.9955 0.0208
vn -0.2370 -0.9713 0.0222
vn 0.0305 0.9993 -0.0200
vn -0.1162 0.9931 -0.0180
vn -0.0460 -0.0176 -0.9988
vn -0.2015 -0.0076 -0.9794
vn -0.0619 -0.9379 -0.3414
vn -0.0368 -0.4227 -0.9055
vn 0.0525 0.9237 -0.3795
vn 0.0130 0.3868 -0.9221
vn -0.0613 -0.9979 0.0204
vn 0.9980 -0.0616 -0.0118
vn -0.0130 -0.0197 -0.9997
vn 0.0613 0.9979 -0.0204
vn 0.0130 0.0196 0.9997
vn -0.9980 0.0616 0.0118
vn 0.6928 -0.3768 -0.6149
vn 0.3645 -0.0787 -0.9279
vn 0.9429 -0.1113 -0.3139
vn 0.4561 0.0714 -0.8871
vn 0.7371 0.3320 -0.5886
vn 0.9724 0.0331 -0.2309
vn 0.6249 -0.4199 0.6582
vn 0.9316 -0.1560 0.3283
vn 0.3508 -0.1235 0.9283
vn 0.6692 0.2889 0.6846
vn 0.2754 0.0374 0.9606
vn 0.9126 -0.0084 0.4089
vn -0.6693 -0.2890 -0.6845
vn -0.9422 -0.0140 -0.3348
vn -0.3591 -0.0100 -0.9333
vn -0.6249 0.4198 -0.6582
vn -0.2642 0.1423 -0.9539
vn -0.9045 0.1355 -0.4043
vn -0.7371 -0.3320 0.5886
vn -0.3758 -0.1010 0.9212
vn -0.9508 -0.0159 0.3093
vn -0.6929 0.3768 0.6148
vn -0.9617 0.1369 0.2373
vn -0.4477 0.0620 0.8920
vn 0.8554 -0.5171 0.0282
vn 0.9871 -0.1527 0.0475
vn 0.4529 0.0047 -0.8915
vn 0.9488 -0.0478 -0.3122
vn 0.9130 0.4031 0.0623
vn 0.9982 0.0246 0.0541
vn 0.3556 -0.0569 0.9329
vn 0.9104 -0.0721 0.4074
vn -0.0769 -0.5149 0.8538
vn -0.0589 -0.1285 0.9900
vn -0.0161 0.4559 0.8899
vn -0.0470 0.0614 0.9970
vn -0.9488 0.0478 0.3123
vn -0.4530 -0.0047 0.8915
vn -0.9130 -0.4031 -0.0623
vn -0.9982 -0.0246 -0.0541
vn -0.8554 0.5172 -0.0281
vn -0.9871 0.1526 -0.0475
vn -0.3557 0.0569 -0.9329
vn -0.9104 0.0721 -0.4074
vn 0.0161 -0.4560 -0.8898
vn 0.0470 -0.0614 -0.9970
vn 0.0769 0.5148 -0.8538
vn 0.0589 0.1285 -0.9900
vn -0.0624 -0.9974 -0.0370
vn 0.9966 -0.0643 0.0510
vn 0.0532 0.0337 -0.9980
vn 0.0624 0.9974 0.0370
vn -0.0532 -0.0337 0.9980
vn -0.9966 0.0643 -0.0510
vn 0.6870 -0.3685 -0.6262
vn 0.3263 -0.1099 -0.9388
vn 0.9328 -0.0710 -0.3533
vn 0.4098 0.0477 -0.9109
vn 0.6868 0.3420 -0.6414
vn 0.9568 0.0795 -0.2798
vn 0.6798 -0.3416 0.6490
vn 0.9536 -0.0789 0.2905
vn 0.3997 -0.0474 0.9154
vn 0.6798 0.3689 0.6339
vn 0.3159 0.1101 0.9424
vn 0.9288 0.0716 0.3636
vn -0.6797 -0.3690 -0.6339
vn -0.9536 -0.0915 -0.2869
vn -0.3995 -0.0863 -0.9126
vn -0.6799 0.3415 -0.6489
vn -0.3158 0.0700 -0.9462
vn -0.9288 0.0558 -0.3663
vn -0.6868 -0.3420 0.6414
vn -0.3262 -0.0703 0.9427
vn -0.9328 -0.0564 0.3559
vn -0.6869 0.3685 0.6263
vn -0.9568 0.0909 0.2761
vn -0.4098 0.0860 0.9081
vn 0.8873 -0.4610 0.0147
vn 0.9960 -0.0885 0.0074
vn 0.4107 -0.0192 -0.9116
vn 0.9347 -0.0073 -0.3554
vn 0.8871 0.4615 -0.0048
vn 0.9960 0.0891 0.0037
vn 0.4005 0.0194 0.9161
vn 0.9307 0.0079 0.3657
vn -0.0048 -0.4681 0.8837
vn -0.0055 -0.0741 0.9972
vn -0.0050 0.5050 0.8631
vn -0.0056 0.1161 0.9932
vn -0.9347 0.0073 0.3553
vn -0.4107 0.0192 0.9116
vn -0.8871 -0.4615 0.0048
vn -0.9960 -0.0891 -0.0037
vn -0.8873 0.4610 -0.0147
vn -0.9960 0.0886 -0.0074
vn -0.4005 -0.0194 -0.9161
vn -0.9308 -0.0079 -0.3656
vn 0.0050 -0.5051 -0.8630
vn 0.0056 -0.1161 -0.9932
vn 0.0048 0.4681 -0.8837
vn 0.0055 0.0741 -0.9972
vn 0.0002 -0.9998 0.0211
vn 1.0000 0.0003 0.0056
vn 0.0056 -0.0211 -0.9998
vn -0.0002 0.9998 -0.0211
vn -0.0056 0.0211 0.9998
vn -1.0000 -0.0003 -0.0056
vn 0.1033 -0.4546 -0.8847
vn 0.0414 -0.1223 -0.9916
vn 0.1598 -0.1945 -0.9678
vn 0.0426 -0.0211 -0.9989
vn 0.0475 0.2550 -0.9658
vn 0.1482 0.0765 -0.9860
vn 0.0342 -0.2513 0.9673
vn 0.1181 -0.0647 0.9909
vn 0.0039 0.0232 0.9997
vn 0.0306 0.4607 0.8870
vn -0.0058 0.1238 0.9923
vn 0.1065 0.2062 0.9727
vn -0.0073 -0.3802 -0.9249
vn -0.1066 -0.2062 -0.9727
vn -0.0002 -0.1108 -0.9938
vn -0.0645 0.3338 -0.9404
vn 0.0009 -0.0097 -1.0000
vn -0.1181 0.0648 -0.9909
vn -0.0694 -0.3396 0.9380
vn -0.0366 0.0081 0.9993
vn -0.1482 -0.0765 0.9860
vn -0.0744 0.3766 0.9234
vn -0.1598 0.1946 0.9678
vn -0.0463 0.1088 0.9930
vn 0.2077 -0.9757 0.0690
vn 0.7298 -0.6810 0.0606
vn 0.0445 -0.0650 -0.9969
vn 0.1554 -0.0596 -0.9860
vn 0.1238 0.9903 -0.0630
vn 0.6690 0.7424 -0.0349
vn 0.0021 0.0671 0.9977
vn 0.1134 0.0714 0.9910
vn -0.0066 -0.2534 0.9673
vn -0.0187 0.0088 0.9998
vn -0.0336 0.3787 0.9249
vn -0.0236 0.1231 0.9921
vn -0.1555 0.0596 0.9860
vn -0.0445 0.0650 0.9969
vn -0.1238 -0.9903 0.0630
vn -0.6691 -0.7424 0.0349
vn -0.2077 0.9758 -0.0690
vn -0.7298 0.6810 -0.0606
vn -0.0021 -0.0671 -0.9977
vn -0.1134 -0.0714 -0.9910
vn 0.0336 -0.3786 -0.9249
vn 0.0236 -0.1231 -0.9921
vn 0.0066 0.2534 -0.9674
vn 0.0188 -0.0089 -0.9998
vn 0.0426 -0.9969 0.0669
vn 0.9989 0.0439 0.0183
vn 0.0212 -0.0661 -0.9976
vn -0.0426 0.9969 -0.0669
vn -0.0212 0.0661 0.9976
vn -0.9989 -0.0439 -0.0183
vn 0.0425 -0.2305 -0.9722
vn 0.0179 -0.0377 -0.9991
vn 0.0733 -0.0802 -0.9941
vn 0.0206 0.0154 -0.9997
vn 0.0300 0.1652 -0.9858
vn 0.0737 0.0646 -0.9952
vn 0.0103 -0.1655 0.9862
vn 0.0544 -0.0649 0.9964
vn 0.0015 -0.0156 0.9999
vn 0.0252 0.2304 0.9728
vn -0.0009 0.0378 0.9993
vn 0.0548 0.0798 0.9953
vn -0.0113 -0.1803 -0.9836
vn -0.0548 -0.0798 -0.9953
vn -0.0016 -0.0307 -0.9995
vn -0.0240 0.2154 -0.9762
vn 0.0011 0.0224 -0.9997
vn -0.0544 0.0649 -0.9964
vn -0.0437 -0.2153 0.9756
vn -0.0180 -0.0225 0.9996
vn -0.0737 -0.0647 0.9952
vn -0.0290 0.1806 0.9831
vn -0.0733 0.0802 0.9941
vn -0.0205 0.0309 0.9993
vn 0.1475 -0.9890 0.0090
vn 0.6608 -0.7505 0.0120
vn 0.0205 -0.0077 -0.9998
vn 0.0737 -0.0078 -0.9973
vn 0.1528 0.9882 -0.0061
vn 0.6648 0.7470 0.0006
vn 0.0016 0.0076 1.0000
vn 0.0548 0.0075 0.9985
vn -0.0098 -0.1654 0.9862
vn -0.0096 -0.0225 0.9997
vn -0.0089 0.1806 0.9835
vn -0.0094 0.0378 0.9992
vn -0.0737 0.0078 0.9973
vn -0.0205 0.0077 0.9998
vn -0.1528 -0.9882 0.0061
vn -0.6648 -0.7470 -0.0006
vn -0.1475 0.9890 -0.0090
vn -0.6608 0.7505 -0.0120
vn -0.0016 -0.0076 -1.0000
vn -0.0548 -0.0075 -0.9985
vn 0.0089 -0.1803 -0.9836
vn 0.0094 -0.0378 -0.9992
vn 0.0098 0.1653 -0.9862
vn 0.0096 0.0225 -0.9997
vn -0.0027 -1.0000 0.0076
vn 1.0000 -0.0026 0.0095
vn 0.0095 -0.0077 -0.9999
vn 0.0027 1.0000 -0.0076
vn -0.0095 0.0077 0.9999
vn -1.0000 0.0026 -0.0095
vn 0.0570 -0.9421 -0.3304
vn 0.0417 -0.3514 -0.9353
vn 0.2106 -0.7322 -0.6477
vn 0.0059 0.3763 -0.9265
vn -0.0076 0.9490 -0.3151
vn 0.1558 0.7030 -0.6939
vn 0.0667 -0.9468 0.3149
vn 0.2132 -0.6889 0.6928
vn 0.0404 -0.3745 0.9263
vn -0.0129 0.9438 0.3302
vn 0.0208 0.3535 0.9352
vn 0.1583 0.7463 0.6465
vn 0.0065 -0.9674 -0.2532
vn -0.1583 -0.7462 -0.6466
vn -0.0095 -0.4355 -0.9001
vn -0.0584 0.9189 -0.3902
vn -0.0454 0.2900 -0.9559
vn -0.2132 0.6888 -0.6929
vn 0.0143 -0.9205 0.3904
vn -0.0171 -0.2924 0.9561
vn -0.1558 -0.7030 0.6940
vn -0.0656 0.9652 0.2533
vn -0.2106 0.7322 0.6477
vn -0.0369 0.4335 0.9004
vn 0.2144 -0.9762 0.0311
vn 0.0363 -0.9199 0.3904
vn 0.0173 -0.3759 0.9265
vn -0.0349 0.9432 0.3304
vn -0.0137 0.4346 0.9005
vn -0.2144 0.9763 -0.0311
vn 0.0137 -0.4347 -0.9005
vn -0.0173 0.3758 -0.9265
vn -0.0399 -0.9390 -0.3416
vn -0.0008 -0.3419 -0.9397
vn 0.1314 -0.7415 -0.6580
vn 0.0361 0.3852 -0.9221
vn 0.0846 0.9489 -0.3042
vn 0.2196 0.6925 -0.6872
vn -0.0256 -0.9525 0.3034
vn 0.1489 -0.7152 0.6829
vn 0.0101 -0.3882 0.9215
vn 0.0839 0.9363 0.3411
vn 0.0633 0.3383 0.9389
vn 0.2370 0.7188 0.6536
vn -0.0920 -0.9601 -0.2643
vn -0.2369 -0.7188 -0.6535
vn -0.0599 -0.4213 -0.9049
vn 0.0305 0.9248 -0.3792
vn -0.0237 0.3048 -0.9521
vn -0.1489 0.7152 -0.6829
vn -0.0745 -0.9221 0.3798
vn -0.0387 -0.3008 0.9529
vn -0.2195 -0.6925 0.6872
vn 0.0330 0.9637 0.2649
vn -0.1315 0.7415 0.6579
vn 0.0136 0.4240 0.9056
vn 0.2015 0.0077 0.9795
vn -0.0525 -0.9237 0.3795
vn -0.0130 -0.3867 0.9221
vn 0.0619 0.9379 0.3414
vn 0.0368 0.4228 0.9055
vn -0.2369 -0.9713 0.0222
vn -0.1163 0.9931 -0.0180
vn -0.0619 -0.9378 -0.3415
vn 0.0130 0.0197 0.9997
vn 0.6423 -0.4971 -0.5833
vn 0.4477 -0.0619 -0.8920
vn 0.9618 -0.1368 -0.2372
vn 0.3757 0.1010 -0.9212
vn 0.7020 0.4549 -0.5480
vn 0.9508 0.0159 -0.3094
vn 0.5787 -0.5374 0.6134
vn 0.9045 -0.1355 0.4043
vn 0.2642 -0.1423 0.9539
vn 0.6382 0.4146 0.6488
vn 0.3590 0.0100 0.9333
vn 0.9422 0.0140 0.3347
vn -0.6381 -0.4145 -0.6489
vn -0.9125 0.0084 -0.4090
vn -0.2754 -0.0375 -0.9606
vn -0.5785 0.5376 -0.6134
vn -0.3507 0.1235 -0.9283
vn -0.9316 0.1559 -0.3284
vn -0.7019 -0.4551 0.5479
vn -0.4561 -0.0715 0.8871
vn -0.9724 -0.0331 0.2309
vn -0.6423 0.4972 0.5833
vn -0.9429 0.1112 0.3141
vn -0.3646 0.0787 0.9278
vn 0.8554 -0.5172 0.0282
vn 0.9871 -0.1526 0.0475
vn 0.4529 0.0047 -0.8916
vn 0.9488 -0.0478 -0.3123
vn 0.9131 0.4030 0.0623
vn 0.3557 -0.0569 0.9329
vn 0.9104 -0.0721 0.4075
vn -0.0161 0.4560 0.8898
vn -0.4529 -0.0047 0.8915
vn -0.8555 0.5171 -0.0281
vn -0.9871 0.1527 -0.0475
vn -0.3556 0.0569 -0.9329
vn -0.9104 0.0721 -0.4075
vn 0.0470 -0.0613 -0.9970
vn 0.0769 0.5149 -0.8538
vn 0.6457 -0.4898 -0.5858
vn 0.4098 -0.0860 -0.9081
vn 0.9568 -0.0909 -0.2761
vn 0.3264 0.0703 -0.9426
vn 0.6457 0.4647 -0.6059
vn 0.9328 0.0564 -0.3559
vn 0.6391 -0.4644 0.6130
vn 0.9288 -0.0558 0.3663
vn 0.3158 -0.0700 0.9462
vn 0.6390 0.4900 0.5929
vn 0.3996 0.0862 0.9126
vn 0.9536 0.0915 0.2869
vn -0.6391 -0.4899 -0.5929
vn -0.9288 -0.0716 -0.3635
vn -0.3158 -0.1101 -0.9424
vn -0.6392 0.4643 -0.6131
vn -0.3997 0.0475 -0.9154
vn -0.9536 0.0789 -0.2905
vn -0.6456 -0.4647 0.6060
vn -0.4099 -0.0477 0.9109
vn -0.9568 -0.0795 0.2798
vn -0.6458 0.4897 0.5857
vn -0.9328 0.0710 0.3532
vn -0.3263 0.1099 0.9388
vn 0.4108 -0.0192 -0.9115
vn 0.9347 -0.0073 -0.3553
vn 0.9960 0.0892 0.0037
vn -0.0056 0.1162 0.9932
vn -0.4108 0.0192 0.9115
vn -0.9960 -0.0892 -0.0037
vn -0.8873 0.4609 -0.0147
vn -0.9960 0.0885 -0.0074
vn -0.4004 -0.0194 -0.9161
vn -0.9307 -0.0079 -0.3657
vn 0.0050 -0.5050 -0.8631
vn 0.0056 -0.1162 -0.9932
vn 0.0048 0.4681 -0.8836
vn 0.0744 -0.3766 -0.9234
vn 0.0463 -0.1088 -0.9930
vn 0.2149 -0.1903 -0.9579
vn 0.0366 -0.0081 -0.9993
vn 0.0694 0.3398 -0.9379
vn 0.2034 0.0783 -0.9760
vn 0.0645 -0.3341 0.9403
vn 0.1736 -0.0617 0.9829
vn -0.0009 0.0097 1.0000
vn 0.0073 0.3801 0.9249
vn 0.0002 0.1108 0.9938
vn 0.1621 0.2068 0.9649
vn -0.0306 -0.4606 -0.8871
vn -0.1621 -0.2068 -0.9649
vn 0.0058 -0.1238 -0.9923
vn -0.0342 0.2515 -0.9673
vn -0.0039 -0.0232 -0.9997
vn -0.1736 0.0617 -0.9829
vn -0.0475 -0.2550 0.9658
vn -0.0426 0.0211 0.9989
vn -0.2034 -0.0783 0.9760
vn -0.1033 0.4546 0.8847
vn -0.2149 0.1903 0.9579
vn -0.0414 0.1223 0.9916
vn -0.0188 0.0089 0.9998
vn -0.0336 0.3786 0.9249
vn -0.0236 0.1230 0.9921
vn -0.6690 -0.7424 0.0349
vn -0.2077 0.9757 -0.0690
vn 0.0336 -0.3787 -0.9249
vn 0.0236 -0.1230 -0.9921
vn 0.0066 0.2535 -0.9673
vn 0.0187 -0.0089 -0.9998
vn 0.0290 -0.1806 -0.9831
vn 0.0205 -0.0308 -0.9993
vn 0.1006 -0.0801 -0.9917
vn 0.0180 0.0225 -0.9996
vn 0.0437 0.2154 -0.9755
vn 0.1010 0.0643 -0.9928
vn 0.0240 -0.2154 0.9762
vn 0.0817 -0.0648 0.9945
vn -0.0011 -0.0224 0.9997
vn 0.0113 0.1803 0.9836
vn 0.0016 0.0307 0.9995
vn 0.0821 0.0796 0.9934
vn -0.0252 -0.2304 -0.9728
vn -0.0821 -0.0796 -0.9934
vn 0.0009 -0.0378 -0.9993
vn -0.0103 0.1654 -0.9862
vn -0.0015 0.0155 -0.9999
vn -0.0817 0.0648 -0.9945
vn -0.0300 -0.1651 0.9858
vn -0.0206 -0.0154 0.9997
vn -0.1010 -0.0644 0.9928
vn -0.0425 0.2304 0.9722
vn -0.1006 0.0800 0.9917
vn -0.0179 0.0378 0.9991
vn -0.0098 -0.1653 0.9862
vn -0.0096 -0.0224 0.9997
vn -0.0089 0.1804 0.9835
vn -0.0094 0.0377 0.9992
vn 0.0089 -0.1806 -0.9835
vn 0.0094 -0.0377 -0.9992
vn 0.0098 0.1654 -0.9862
vt 0.128500 0.746500
vt 0.126479 0.750000
vt 0.125000 0.746500
vt 0.378500 0.996500
vt 0.376479 1.000000
vt 0.375000 0.996500
vt 0.375000 0.003500
vt 0.378500 0.000000
vt 0.378500 0.003500
vt 0.621500 0.996500
vt 0.625000 0.998521
vt 0.621500 1.000000
vt 0.871500 0.746500
vt 0.875000 0.748521
vt 0.871500 0.750000
vt 0.621500 0.000000
vt 0.625000 0.003500
vt 0.621500 0.003500
vt 0.128500 0.503500
vt 0.125000 0.501479
vt 0.128500 0.500000
vt 0.378500 0.250000
vt 0.375000 0.246500
vt 0.378500 0.246500
vt 0.378500 0.253500
vt 0.375740 0.250740
vt 0.871500 0.503500
vt 0.873521 0.500000
vt 0.875000 0.503500
vt 0.621500 0.253500
vt 0.624260 0.249260
vt 0.625000 0.253500
vt 0.625000 0.246500
vt 0.621500 0.250000
vt 0.621500 0.246500
vt 0.371500 0.746500
vt 0.375493 0.750000
vt 0.373250 0.751750
vt 0.378500 0.750000
vt 0.375000 0.746500
vt 0.378500 0.746500
vt 0.378500 0.753500
vt 0.628500 0.746500
vt 0.625000 0.749507
vt 0.625000 0.746500
vt 0.621500 0.753500
vt 0.626750 0.751750
vt 0.621500 0.750000
vt 0.621500 0.746500
vt 0.371500 0.503500
vt 0.375000 0.500493
vt 0.375000 0.503500
vt 0.378500 0.496500
vt 0.373250 0.498250
vt 0.378500 0.500000
vt 0.378500 0.503500
vt 0.628500 0.503500
vt 0.624507 0.500000
vt 0.626750 0.498250
vt 0.621500 0.500000
vt 0.625000 0.503500
vt 0.621500 0.503500
vt 0.621500 0.496500
vt 0.125000 0.503500
vt 0.378500 1.000000
vt 0.875000 0.746500
vt 0.375000 0.253500
vt 0.871500 0.500000
vt 0.128500 0.750000
vt 0.625000 0.996500
vt 0.621500 0.003500
vt 0.378500 0.246500
vt 0.871500 0.503500
vt 0.371500 0.746500
vt 0.621500 0.746500
vt 0.626750 0.498250
vt 0.128500 0.746500
vt 0.375000 0.001479
vt 0.623521 0.000000
vt 0.621500 0.253500
vt 0.621500 0.246500
vt 0.378500 0.746500
vt 0.621500 0.753500
vt 0.128500 0.503500
vt 0.371500 0.746500
vt 0.378500 0.753500
vt 0.871500 0.746500
vt 0.378500 0.250000
vt 0.621500 0.746500
vt 0.378500 0.253500
vt 0.871500 0.503500
vt 0.625000 0.746500
s 0
usemtl wood
f 1/1/1 5/2/1 7/3/1
f 2/4/2 5/5/2 4/6/2
f 7/7/3 6/8/3 3/9/3
f 8/10/4 12/11/4 14/12/4
f 9/13/5 12/14/5 11/15/5
f 14/16/6 13/17/6 10/18/6
f 15/19/7 19/20/7 21/21/7
f 20/22/8 18/23/8 16/24/8
f 17/25/9 19/26/9 20/22/9
f 22/27/10 26/28/10 28/29/10
f 23/30/11 26/31/11 25/32/11
f 28/33/12 27/34/12 24/35/12
f 29/36/13 33/37/13 35/38/13
f 34/39/14 32/40/14 30/41/14
f 31/42/15 33/37/15 34/39/15
f 36/43/16 40/44/16 42/45/16
f 37/46/17 40/44/17 39/47/17
f 42/45/18 41/48/18 38/49/18
f 43/50/19 47/51/19 49/52/19
f 44/53/20 47/51/20 46/54/20
f 49/52/21 48/55/21 45/56/21
f 50/57/22 54/58/22 56/59/22
f 55/60/23 53/61/23 51/62/23
f 52/63/24 54/58/24 55/60/24
f 1/1/25 18/64/25 15/19/25
f 7/7/26 16/24/26 18/23/26
f 8/10/27 6/65/27 2/4/27
f 6/8/28 10/18/28 3/9/28
f 9/13/29 28/29/29 13/66/29
f 13/17/30 24/35/30 10/18/30
f 17/25/31 27/34/31 23/30/31
f 20/22/32 24/35/32 27/34/32
f 43/50/33 21/21/33 46/54/33
f 21/67/34 44/53/34 46/54/34
f 22/27/35 56/59/35 25/68/35
f 56/59/36 23/30/36 25/32/36
f 51/62/37 48/55/37 55/60/37
f 48/55/38 52/63/38 55/60/38
f 29/36/39 49/52/39 32/40/39
f 49/52/40 30/41/40 32/40/40
f 50/57/41 42/45/41 53/61/41
f 53/61/42 38/49/42 51/62/42
f 37/46/43 34/39/43 41/48/43
f 41/48/44 30/41/44 38/49/44
f 29/36/45 4/69/45 1/1/45
f 35/38/46 2/4/46 4/6/46
f 36/43/47 11/15/47 39/47/47
f 11/70/48 37/46/48 39/47/48
f 43/50/49 1/1/49 15/19/49
f 3/9/50 24/35/50 16/24/50
f 37/46/51 2/4/51 31/42/51
f 22/27/52 36/43/52 50/57/52
f 23/30/53 44/53/53 17/25/53
f 51/62/54 30/41/54 45/56/54
f 57/1/55 61/2/55 63/3/55
f 58/4/56 61/5/56 60/6/56
f 63/7/57 62/8/57 59/9/57
f 64/10/58 68/11/58 70/12/58
f 65/13/59 68/14/59 67/15/59
f 70/16/60 69/17/60 66/71/60
f 71/19/61 75/20/61 77/21/61
f 76/22/62 74/23/62 72/72/62
f 73/25/63 75/26/63 76/22/63
f 78/73/64 82/28/64 84/29/64
f 79/30/65 82/31/65 81/32/65
f 84/33/66 83/34/66 80/35/66
f 85/74/67 89/37/67 91/38/67
f 90/39/68 88/40/68 86/41/68
f 87/42/69 89/37/69 90/39/69
f 92/43/70 96/44/70 98/45/70
f 93/46/71 96/44/71 95/47/71
f 98/45/72 97/48/72 94/75/72
f 99/50/73 103/51/73 105/52/73
f 100/53/74 103/51/74 102/54/74
f 105/52/75 104/55/75 101/56/75
f 106/57/76 110/58/76 112/76/76
f 111/60/77 109/61/77 107/62/77
f 108/63/78 110/58/78 111/60/78
f 71/19/79 63/3/79 74/64/79
f 63/7/80 72/72/80 74/23/80
f 64/10/81 62/65/81 58/4/81
f 70/16/82 59/9/82 62/8/82
f 78/73/83 69/66/83 65/13/83
f 84/33/84 66/71/84 69/17/84
f 79/30/85 76/22/85 83/34/85
f 83/34/86 72/72/86 80/35/86
f 71/19/87 102/54/87 99/50/87
f 77/67/88 100/53/88 102/54/88
f 78/73/89 112/76/89 81/68/89
f 81/32/90 108/63/90 79/30/90
f 107/62/91 104/55/91 111/60/91
f 111/60/92 100/53/92 108/63/92
f 85/74/93 105/52/93 88/40/93
f 105/52/94 86/41/94 88/40/94
f 106/57/95 98/45/95 109/61/95
f 98/45/96 107/62/96 109/61/96
f 87/42/97 97/48/97 93/46/97
f 90/39/98 94/75/98 97/48/98
f 85/74/99 60/69/99 57/1/99
f 60/6/100 87/42/100 58/4/100
f 92/43/101 67/15/101 95/47/101
f 95/47/102 64/10/102 93/46/102
f 99/50/103 57/1/103 71/19/103
f 66/71/104 72/72/104 59/9/104
f 93/46/105 58/4/105 87/42/105
f 78/73/106 92/43/106 106/57/106
f 73/25/107 108/63/107 100/53/107
f 101/56/108 94/75/108 86/41/108
f 116/69/109 119/3/109 113/77/109
f 114/4/110 117/5/110 116/6/110
f 115/9/111 117/78/111 118/8/111
f 120/10/112 124/11/112 126/12/112
f 125/66/113 123/15/113 121/13/113
f 122/18/114 124/79/114 125/17/114
f 130/64/115 133/21/115 127/19/115
f 128/24/116 131/26/116 130/23/116
f 129/25/117 131/26/117 132/22/117
f 137/68/118 140/29/118 134/73/118
f 135/80/119 138/31/119 137/32/119
f 136/81/120 138/31/120 139/34/120
f 144/40/121 147/38/121 141/74/121
f 142/82/122 145/37/122 144/40/122
f 143/42/123 145/37/123 146/39/123
f 151/47/124 154/45/124 148/43/124
f 149/83/125 152/44/125 151/47/125
f 150/75/126 152/44/126 153/48/126
f 158/54/127 161/52/127 155/50/127
f 156/53/128 159/51/128 158/54/128
f 157/56/129 159/51/129 160/55/129
f 165/61/130 168/76/130 162/57/130
f 163/62/131 166/58/131 165/61/131
f 164/63/132 166/58/132 167/60/132
f 113/77/133 130/64/133 127/19/133
f 130/23/134 115/9/134 128/24/134
f 120/10/135 118/65/135 114/4/135
f 118/8/136 122/18/136 115/9/136
f 134/73/137 125/66/137 121/13/137
f 140/33/138 122/18/138 125/17/138
f 129/25/139 139/34/139 135/80/139
f 139/34/140 128/24/140 136/81/140
f 127/19/141 158/54/141 155/50/141
f 158/54/142 129/25/142 156/53/142
f 162/57/143 137/68/143 134/73/143
f 168/76/144 135/80/144 137/32/144
f 157/56/145 167/60/145 163/62/145
f 167/60/146 156/53/146 164/63/146
f 141/74/147 161/52/147 144/40/147
f 161/52/148 142/82/148 144/40/148
f 148/43/149 165/61/149 162/57/149
f 165/61/150 150/75/150 163/62/150
f 143/42/151 153/48/151 149/83/151
f 153/48/152 142/82/152 150/75/152
f 113/77/153 147/38/153 116/69/153
f 116/6/154 143/42/154 114/4/154
f 148/43/155 123/15/155 151/47/155
f 151/47/156 120/10/156 149/83/156
f 155/50/157 113/77/157 127/19/157
f 122/18/158 128/24/158 115/9/158
f 149/83/159 114/4/159 143/42/159
f 134/73/160 148/43/160 162/57/160
f 129/25/161 164/63/161 156/53/161
f 163/62/162 142/82/162 157/56/162
f 172/69/163 175/3/163 169/77/163
f 170/4/164 173/5/164 172/6/164
f 171/9/165 173/78/165 174/8/165
f 176/10/166 180/11/166 182/12/166
f 181/66/167 179/15/167 177/13/167
f 178/18/168 180/79/168 181/17/168
f 186/64/169 189/21/169 183/84/169
f 184/24/170 187/26/170 186/23/170
f 185/25/171 187/26/171 188/22/171
f 193/68/172 196/29/172 190/73/172
f 191/80/173 194/31/173 193/32/173
f 192/81/174 194/31/174 195/34/174
f 200/40/175 203/38/175 197/85/175
f 198/82/176 201/37/176 200/40/176
f 199/86/177 201/37/177 202/39/177
f 207/47/178 210/45/178 204/43/178
f 205/83/179 208/44/179 207/47/179
f 206/75/180 208/44/180 209/48/180
f 214/54/181 217/52/181 211/50/181
f 212/53/182 215/51/182 214/54/182
f 213/56/183 215/51/183 216/55/183
f 221/61/184 224/76/184 218/57/184
f 219/62/185 222/58/185 221/61/185
f 220/63/186 222/58/186 223/60/186
f 169/77/187 186/64/187 183/84/187
f 175/7/188 184/24/188 186/23/188
f 170/4/189 182/12/189 174/65/189
f 182/16/190 171/9/190 174/8/190
f 190/73/191 181/66/191 177/13/191
f 196/33/192 178/18/192 181/17/192
f 185/25/193 195/34/193 191/80/193
f 188/22/194 192/81/194 195/34/194
f 211/50/195 189/21/195 214/54/195
f 214/54/196 185/25/196 212/53/196
f 190/73/197 224/76/197 193/68/197
f 224/76/198 191/80/198 193/32/198
f 219/62/199 216/55/199 223/60/199
f 216/55/200 220/63/200 223/60/200
f 211/50/201 200/40/201 197/85/201
f 217/52/202 198/82/202 200/40/202
f 204/43/203 221/61/203 218/57/203
f 210/45/204 219/62/204 221/61/204
f 205/83/205 202/39/205 209/48/205
f 202/39/206 206/75/206 209/48/206
f 169/77/207 203/38/207 172/69/207
f 203/38/208 170/4/208 172/6/208
f 177/13/209 207/47/209 204/43/209
f 179/70/210 205/83/210 207/47/210
f 183/84/211 197/85/211 169/77/211
f 178/18/212 184/24/212 171/9/212
f 205/83/213 170/4/213 199/86/213
f 218/57/214 177/13/214 204/43/214
f 191/80/215 212/53/215 185/25/215
f 219/62/216 198/82/216 213/56/216
f 1/1/325 4/69/325 5/2/325
f 2/4/326 6/65/326 5/5/326
f 7/7/327 5/78/327 6/8/327
f 8/10/328 11/70/328 12/11/328
f 9/13/329 13/66/329 12/14/329
f 14/16/330 12/79/330 13/17/330
f 15/19/331 18/64/331 19/20/331
f 20/22/332 19/26/332 18/23/332
f 17/25/333 21/67/333 19/26/333
f 22/27/334 25/68/334 26/28/334
f 23/30/335 27/34/335 26/31/335
f 28/33/336 26/31/336 27/34/336
f 29/36/337 32/40/337 33/37/337
f 34/39/338 33/37/338 32/40/338
f 31/42/339 35/38/339 33/37/339
f 36/43/340 39/47/340 40/44/340
f 37/46/341 41/48/341 40/44/341
f 42/45/342 40/44/342 41/48/342
f 43/50/343 46/54/343 47/51/343
f 44/53/344 48/55/344 47/51/344
f 49/52/345 47/51/345 48/55/345
f 50/57/346 53/61/346 54/58/346
f 55/60/347 54/58/347 53/61/347
f 52/63/348 56/59/348 54/58/348
f 1/1/25 7/3/25 18/64/25
f 7/7/349 3/9/349 16/24/349
f 8/10/27 14/12/27 6/65/27
f 6/8/28 14/16/28 10/18/28
f 9/13/29 22/27/29 28/29/29
f 13/17/30 28/33/30 24/35/30
f 17/25/31 20/22/31 27/34/31
f 20/22/32 16/24/32 24/35/32
f 43/50/350 15/19/350 21/21/350
f 21/67/351 17/25/351 44/53/351
f 22/27/352 50/57/352 56/59/352
f 56/59/353 52/63/353 23/30/353
f 51/62/37 45/56/37 48/55/37
f 48/55/38 44/53/38 52/63/38
f 29/36/39 43/50/39 49/52/39
f 49/52/40 45/56/40 30/41/40
f 50/57/41 36/43/41 42/45/41
f 53/61/354 42/45/354 38/49/354
f 37/46/43 31/42/43 34/39/43
f 41/48/44 34/39/44 30/41/44
f 29/36/45 35/38/45 4/69/45
f 35/38/355 31/42/355 2/4/355
f 36/43/47 9/13/47 11/15/47
f 11/70/356 8/10/356 37/46/356
f 43/50/49 29/36/49 1/1/49
f 3/9/50 10/18/50 24/35/50
f 37/46/51 8/10/51 2/4/51
f 22/27/52 9/13/52 36/43/52
f 23/30/53 52/63/53 44/53/53
f 51/62/54 38/49/54 30/41/54
f 57/1/357 60/69/357 61/2/357
f 58/4/358 62/65/358 61/5/358
f 63/7/359 61/78/359 62/8/359
f 64/10/360 67/70/360 68/11/360
f 65/13/361 69/66/361 68/14/361
f 70/16/362 68/79/362 69/17/362
f 71/19/363 74/64/363 75/20/363
f 76/22/364 75/26/364 74/23/364
f 73/25/365 77/67/365 75/26/365
f 78/73/366 81/68/366 82/28/366
f 79/30/367 83/34/367 82/31/367
f 84/33/368 82/31/368 83/34/368
f 85/74/369 88/40/369 89/37/369
f 90/39/370 89/37/370 88/40/370
f 87/42/371 91/38/371 89/37/371
f 92/43/372 95/47/372 96/44/372
f 93/46/373 97/48/373 96/44/373
f 98/45/374 96/44/374 97/48/374
f 99/50/375 102/54/375 103/51/375
f 100/53/376 104/55/376 103/51/376
f 105/52/377 103/51/377 104/55/377
f 106/57/378 109/61/378 110/58/378
f 111/60/379 110/58/379 109/61/379
f 108/63/380 112/76/380 110/58/380
f 71/19/79 57/1/79 63/3/79
f 63/7/80 59/9/80 72/72/80
f 64/10/81 70/12/81 62/65/81
f 70/16/82 66/71/82 59/9/82
f 78/73/83 84/29/83 69/66/83
f 84/33/84 80/35/84 66/71/84
f 79/30/85 73/25/85 76/22/85
f 83/34/381 76/22/381 72/72/381
f 71/19/382 77/21/382 102/54/382
f 77/67/383 73/25/383 100/53/383
f 78/73/384 106/57/384 112/76/384
f 81/32/385 112/76/385 108/63/385
f 107/62/91 101/56/91 104/55/91
f 111/60/92 104/55/92 100/53/92
f 85/74/93 99/50/93 105/52/93
f 105/52/386 101/56/386 86/41/386
f 106/57/95 92/43/95 98/45/95
f 98/45/387 94/75/387 107/62/387
f 87/42/97 90/39/97 97/48/97
f 90/39/98 86/41/98 94/75/98
f 85/74/388 91/38/388 60/69/388
f 60/6/100 91/38/100 87/42/100
f 92/43/101 65/13/101 67/15/101
f 95/47/102 67/70/102 64/10/102
f 99/50/103 85/74/103 57/1/103
f 66/71/104 80/35/104 72/72/104
f 93/46/105 64/10/105 58/4/105
f 78/73/106 65/13/106 92/43/106
f 73/25/389 79/30/389 108/63/389
f 101/56/108 107/62/108 94/75/108
f 116/69/390 117/2/390 119/3/390
f 114/4/391 118/65/391 117/5/391
f 115/9/392 119/7/392 117/78/392
f 120/10/393 123/70/393 124/11/393
f 125/66/394 124/14/394 123/15/394
f 122/18/395 126/16/395 124/79/395
f 130/64/396 131/20/396 133/21/396
f 128/24/397 132/22/397 131/26/397
f 129/25/398 133/67/398 131/26/398
f 137/68/399 138/28/399 140/29/399
f 135/80/400 139/34/400 138/31/400
f 136/81/401 140/33/401 138/31/401
f 144/40/402 145/37/402 147/38/402
f 142/82/403 146/39/403 145/37/403
f 143/42/404 147/38/404 145/37/404
f 151/47/405 152/44/405 154/45/405
f 149/83/406 153/48/406 152/44/406
f 150/75/407 154/45/407 152/44/407
f 158/54/408 159/51/408 161/52/408
f 156/53/409 160/55/409 159/51/409
f 157/56/410 161/52/410 159/51/410
f 165/61/411 166/58/411 168/76/411
f 163/62/412 167/60/412 166/58/412
f 164/63/413 168/76/413 166/58/413
f 113/77/414 119/3/414 130/64/414
f 130/23/415 119/7/415 115/9/415
f 120/10/416 126/12/416 118/65/416
f 118/8/417 126/16/417 122/18/417
f 134/73/418 140/29/418 125/66/418
f 140/33/138 136/81/138 122/18/138
f 129/25/419 132/22/419 139/34/419
f 139/34/420 132/22/420 128/24/420
f 127/19/141 133/21/141 158/54/141
f 158/54/142 133/67/142 129/25/142
f 162/57/421 168/76/421 137/68/421
f 168/76/144 164/63/144 135/80/144
f 157/56/145 160/55/145 167/60/145
f 167/60/422 160/55/422 156/53/422
f 141/74/147 155/50/147 161/52/147
f 161/52/148 157/56/148 142/82/148
f 148/43/423 154/45/423 165/61/423
f 165/61/424 154/45/424 150/75/424
f 143/42/425 146/39/425 153/48/425
f 153/48/426 146/39/426 142/82/426
f 113/77/153 141/74/153 147/38/153
f 116/6/427 147/38/427 143/42/427
f 148/43/428 121/13/428 123/15/428
f 151/47/156 123/70/156 120/10/156
f 155/50/157 141/74/157 113/77/157
f 122/18/158 136/81/158 128/24/158
f 149/83/159 120/10/159 114/4/159
f 134/73/160 121/13/160 148/43/160
f 129/25/161 135/80/161 164/63/161
f 163/62/162 150/75/162 142/82/162
f 172/69/429 173/2/429 175/3/429
f 170/4/430 174/65/430 173/5/430
f 171/9/431 175/7/431 173/78/431
f 176/10/432 179/70/432 180/11/432
f 181/66/433 180/14/433 179/15/433
f 178/18/434 182/16/434 180/79/434
f 186/64/435 187/20/435 189/21/435
f 184/24/436 188/22/436 187/26/436
f 185/25/437 189/67/437 187/26/437
f 193/68/438 194/28/438 196/29/438
f 191/80/439 195/34/439 194/31/439
f 192/81/440 196/33/440 194/31/440
f 200/40/441 201/37/441 203/38/441
f 198/82/442 202/39/442 201/37/442
f 199/86/443 203/38/443 201/37/443
f 207/47/444 208/44/444 210/45/444
f 205/83/445 209/48/445 208/44/445
f 206/75/446 210/45/446 208/44/446
f 214/54/447 215/51/447 217/52/447
f 212/53/448 216/55/448 215/51/448
f 213/56/449 217/52/449 215/51/449
f 221/61/450 222/58/450 224/76/450
f 219/62/451 223/60/451 222/58/451
f 220/63/452 224/76/452 222/58/452
f 169/77/187 175/3/187 186/64/187
f 175/7/188 171/9/188 184/24/188
f 170/4/453 176/10/453 182/12/453
f 182/16/454 178/18/454 171/9/454
f 190/73/191 196/29/191 181/66/191
f 196/33/455 192/81/455 178/18/455
f 185/25/193 188/22/193 195/34/193
f 188/22/194 184/24/194 192/81/194
f 211/50/195 183/84/195 189/21/195
f 214/54/196 189/67/196 185/25/196
f 190/73/197 218/57/197 224/76/197
f 224/76/456 220/63/456 191/80/456
f 219/62/199 213/56/199 216/55/199
f 216/55/457 212/53/457 220/63/457
f 211/50/201 217/52/201 200/40/201
f 217/52/458 213/56/458 198/82/458
f 204/43/459 210/45/459 221/61/459
f 210/45/460 206/75/460 219/62/460
f 205/83/461 199/86/461 202/39/461
f 202/39/462 198/82/462 206/75/462
f 169/77/463 197/85/463 203/38/463
f 203/38/464 199/86/464 170/4/464
f 177/13/465 179/15/465 207/47/465
f 179/70/210 176/10/210 205/83/210
f 183/84/211 211/50/211 197/85/211
f 178/18/212 192/81/212 184/24/212
f 205/83/213 176/10/213 170/4/213
f 218/57/214 190/73/214 177/13/214
f 191/80/215 220/63/215 212/53/215
f 219/62/216 206/75/216 198/82/216
usemtl stone
f 225/1/217 229/2/217 231/3/217
f 226/4/218 229/5/218 228/6/218
f 231/7/219 230/8/219 227/9/219
f 232/10/220 236/11/220 238/12/220
f 233/87/221 236/14/221 235/15/221
f 238/16/222 237/17/222 234/18/222
f 239/84/223 243/20/223 245/21/223
f 244/88/224 242/23/224 240/24/224
f 241/25/225 243/26/225 244/88/225
f 246/73/226 250/28/226 252/29/226
f 247/80/227 250/31/227 249/32/227
f 252/33/228 251/34/228 248/81/228
f 253/36/229 257/37/229 259/38/229
f 258/39/230 256/40/230 254/82/230
f 255/86/231 257/37/231 258/39/231
f 260/43/232 264/44/232 266/45/232
f 261/83/233 264/44/233 263/47/233
f 266/45/234 265/48/234 262/89/234
f 267/50/235 271/51/235 273/52/235
f 268/53/236 271/51/236 270/54/236
f 273/52/237 272/55/237 269/56/237
f 274/57/238 278/58/238 280/59/238
f 279/60/239 277/61/239 275/62/239
f 276/63/240 278/58/240 279/60/240
f 225/1/241 242/64/241 239/84/241
f 231/7/242 240/24/242 242/23/242
f 226/4/243 238/12/243 230/65/243
f 230/8/244 234/18/244 227/9/244
f 246/73/245 237/66/245 233/87/245
f 237/17/246 248/81/246 234/18/246
f 241/25/247 251/34/247 247/80/247
f 251/34/248 240/24/248 248/81/248
f 239/84/249 270/54/249 267/50/249
f 270/54/250 241/25/250 268/53/250
f 274/57/251 249/68/251 246/73/251
f 249/32/252 276/63/252 247/80/252
f 275/62/253 272/55/253 279/60/253
f 272/55/254 276/63/254 279/60/254
f 267/50/255 256/40/255 253/36/255
f 256/40/256 269/56/256 254/82/256
f 274/57/257 266/45/257 277/61/257
f 266/45/258 275/62/258 277/61/258
f 255/86/259 265/48/259 261/83/259
f 258/39/260 262/89/260 265/48/260
f 253/36/261 228/69/261 225/1/261
f 259/38/262 226/4/262 228/6/262
f 233/87/263 263/47/263 260/43/263
f 235/70/264 261/83/264 263/47/264
f 267/50/265 225/1/265 239/84/265
f 234/18/266 240/24/266 227/9/266
f 261/83/267 226/4/267 255/86/267
f 246/73/268 260/43/268 274/57/268
f 247/80/269 268/53/269 241/25/269
f 275/62/270 254/82/270 269/56/270
f 225/1/466 228/69/466 229/2/466
f 226/4/467 230/65/467 229/5/467
f 231/7/468 229/78/468 230/8/468
f 232/10/469 235/70/469 236/11/469
f 233/87/470 237/66/470 236/14/470
f 238/16/471 236/79/471 237/17/471
f 239/84/472 242/64/472 243/20/472
f 244/88/473 243/26/473 242/23/473
f 241/25/474 245/67/474 243/26/474
f 246/73/475 249/68/475 250/28/475
f 247/80/476 251/34/476 250/31/476
f 252/33/477 250/31/477 251/34/477
f 253/36/478 256/40/478 257/37/478
f 258/39/479 257/37/479 256/40/479
f 255/86/480 259/38/480 257/37/480
f 260/43/481 263/47/481 264/44/481
f 261/83/482 265/48/482 264/44/482
f 266/45/483 264/44/483 265/48/483
f 267/50/484 270/54/484 271/51/484
f 268/53/485 272/55/485 271/51/485
f 273/52/486 271/51/486 272/55/486
f 274/57/487 277/61/487 278/58/487
f 279/60/488 278/58/488 277/61/488
f 276/63/489 280/59/489 278/58/489
f 225/1/241 231/3/241 242/64/241
f 231/7/242 227/9/242 240/24/242
f 226/4/243 232/10/243 238/12/243
f 230/8/244 238/16/244 234/18/244
f 246/73/245 252/29/245 237/66/245
f 237/17/246 252/33/246 248/81/246
f 241/25/247 244/88/247 251/34/247
f 251/34/248 244/88/248 240/24/248
f 239/84/249 245/21/249 270/54/249
f 270/54/490 245/67/490 241/25/490
f 274/57/491 280/59/491 249/68/491
f 249/32/492 280/59/492 276/63/492
f 275/62/253 269/56/253 272/55/253
f 272/55/254 268/53/254 276/63/254
f 267/50/255 273/52/255 256/40/255
f 256/40/493 273/52/493 269/56/493
f 274/57/494 260/43/494 266/45/494
f 266/45/258 262/89/258 275/62/258
f 255/86/259 258/39/259 265/48/259
f 258/39/260 254/82/260 262/89/260
f 253/36/495 259/38/495 228/69/495
f 259/38/496 255/86/496 226/4/496
f 233/87/497 235/15/497 263/47/497
f 235/70/498 232/10/498 261/83/498
f 267/50/265 253/36/265 225/1/265
f 234/18/266 248/81/266 240/24/266
f 261/83/267 232/10/267 226/4/267
f 246/73/268 233/87/268 260/43/268
f 247/80/269 276/63/269 268/53/269
f 275/62/270 262/89/270 254/82/270
usemtl slate
f 281/1/271 285/2/271 287/3/271
f 282/4/272 285/5/272 284/6/272
f 287/7/273 286/8/273 283/9/273
f 288/10/274 292/11/274 294/12/274
f 289/13/275 292/14/275 291/15/275
f 294/16/276 293/17/276 290/18/276
f 295/84/277 299/20/277 301/21/277
f 300/22/278 298/23/278 296/72/278
f 297/90/279 299/26/279 300/22/279
f 302/91/280 306/28/280 308/29/280
f 303/30/281 306/31/281 305/32/281
f 308/33/282 307/34/282 304/81/282
f 309/36/283 313/37/283 315/38/283
f 314/39/284 312/40/284 310/41/284
f 311/42/285 313/37/285 314/39/285
f 316/43/286 320/44/286 322/92/286
f 317/83/287 320/44/287 319/47/287
f 322/92/288 321/48/288 318/89/288
f 323/50/289 327/51/289 329/52/289
f 324/53/290 327/51/290 326/54/290
f 329/52/291 328/55/291 325/56/291
f 330/57/292 334/58/292 336/59/292
f 335/60/293 333/61/293 331/62/293
f 332/63/294 334/58/294 335/60/294
f 295/84/295 287/3/295 298/64/295
f 287/7/296 296/72/296 298/23/296
f 282/4/297 294/12/297 286/65/297
f 294/16/298 283/9/298 286/8/298
f 302/91/299 293/66/299 289/13/299
f 308/33/300 290/18/300 293/17/300
f 303/30/301 300/22/301 307/34/301
f 307/34/302 296/72/302 304/81/302
f 323/50/303 301/21/303 326/54/303
f 301/67/304 324/53/304 326/54/304
f 330/57/305 305/68/305 302/91/305
f 305/32/306 332/63/306 303/30/306
f 325/56/307 335/60/307 331/62/307
f 335/60/308 324/53/308 332/63/308
f 309/36/309 329/52/309 312/40/309
f 312/40/310 325/56/310 310/41/310
f 316/43/311 333/61/311 330/57/311
f 333/61/312 318/89/312 331/62/312
f 317/83/313 314/39/313 321/48/313
f 321/48/314 310/41/314 318/89/314
f 281/1/315 315/38/315 284/69/315
f 315/38/316 282/4/316 284/6/316
f 316/43/317 291/15/317 319/47/317
f 291/70/318 317/83/318 319/47/318
f 323/50/319 281/1/319 295/84/319
f 290/18/320 296/72/320 283/9/320
f 317/83/321 282/4/321 311/42/321
f 330/57/322 289/13/322 316/43/322
f 297/90/323 332/63/323 324/53/323
f 325/56/324 318/89/324 310/41/324
f 281/1/499 284/69/499 285/2/499
f 282/4/500 286/65/500 285/5/500
f 287/7/501 285/78/501 286/8/501
f 288/10/502 291/70/502 292/11/502
f 289/13/503 293/66/503 292/14/503
f 294/16/504 292/79/504 293/17/504
f 295/84/505 298/64/505 299/20/505
f 300/22/506 299/26/506 298/23/506
f 297/90/507 301/67/507 299/26/507
f 302/91/508 305/68/508 306/28/508
f 303/30/509 307/34/509 306/31/509
f 308/33/510 306/31/510 307/34/510
f 309/36/511 312/40/511 313/37/511
f 314/39/512 313/37/512 312/40/512
f 311/42/513 315/38/513 313/37/513
f 316/43/514 319/47/514 320/44/514
f 317/83/515 321/48/515 320/44/515
f 322/92/516 320/44/516 321/48/516
f 323/50/517 326/54/517 327/51/517
f 324/53/518 328/55/518 327/51/518
f 329/52/519 327/51/519 328/55/519
f 330/57/520 333/61/520 334/58/520
f 335/60/521 334/58/521 333/61/521
f 332/63/522 336/59/522 334/58/522
f 295/84/295 281/1/295 287/3/295
f 287/7/296 283/9/296 296/72/296
f 282/4/297 288/10/297 294/12/297
f 294/16/298 290/18/298 283/9/298
f 302/91/299 308/29/299 293/66/299
f 308/33/300 304/81/300 290/18/300
f 303/30/301 297/90/301 300/22/301
f 307/34/302 300/22/302 296/72/302
f 323/50/523 295/84/523 301/21/523
f 301/67/524 297/90/524 324/53/524
f 330/57/525 336/59/525 305/68/525
f 305/32/526 336/59/526 332/63/526
f 325/56/307 328/55/307 335/60/307
f 335/60/308 328/55/308 324/53/308
f 309/36/309 323/50/309 329/52/309
f 312/40/310 329/52/310 325/56/310
f 316/43/311 322/92/311 333/61/311
f 333/61/312 322/92/312 318/89/312
f 317/83/313 311/42/313 314/39/313
f 321/48/314 314/39/314 310/41/314
f 281/1/527 309/36/527 315/38/527
f 315/38/528 311/42/528 282/4/528
f 316/43/529 289/13/529 291/15/529
f 291/70/318 288/10/318 317/83/318
f 323/50/319 309/36/319 281/1/319
f 290/18/320 304/81/320 296/72/320
f 317/83/321 288/10/321 282/4/321
f 330/57/322 302/91/322 289/13/322
f 297/90/323 303/30/323 332/63/323
f 325/56/324 331/62/324 318/89/324
