# Blender 4.5.10 LTS
# www.blender.org
mtllib stow_perch_remodel_c.mtl
o stow_perch_remodel_c
v -0.118265 -0.096363 -0.088134
v -0.065742 0.862923 -0.062891
v -0.004248 -0.098645 -0.141305
v 0.012890 0.861349 -0.099561
v 0.108410 -0.100533 -0.085298
v 0.090585 0.860047 -0.060935
v 0.134876 -0.100604 0.037713
v 0.108838 0.859998 0.023900
v 0.055220 -0.098805 0.135099
v 0.053902 0.861239 0.091063
v -0.070575 -0.096491 0.133525
v -0.032853 0.862835 0.089977
v -0.147783 -0.095404 0.034177
v -0.086100 0.863584 0.021461
v 0.042361 0.767475 0.073259
v 0.315579 1.371194 0.054187
v -0.023377 0.798586 0.060960
v 0.275363 1.390227 0.046663
v -0.055197 0.814879 -0.003558
v 0.255897 1.400194 0.007193
v -0.029138 0.804085 -0.071713
v 0.271839 1.393591 -0.034502
v 0.035177 0.774332 -0.092181
v 0.311185 1.375389 -0.047023
v 0.089317 0.748025 -0.049551
v 0.344306 1.359295 -0.020944
v 0.092514 0.744973 0.024077
v 0.346262 1.357428 0.024099
v -0.005417 0.785045 -0.074366
v -0.279050 1.388566 -0.054971
v 0.044078 0.807635 -0.024561
v -0.248770 1.402386 -0.024502
v 0.038927 0.806867 0.049015
v -0.251922 1.401917 0.020509
v -0.016992 0.783320 0.090958
v -0.286131 1.387511 0.046168
v -0.081569 0.754724 0.069685
v -0.325637 1.370017 0.033154
v -0.106178 0.742614 0.001213
v -0.340692 1.362608 -0.008735
v -0.072287 0.756108 -0.062895
v -0.319959 1.370864 -0.047954
v 0.333558 -0.066946 -0.145022
v 0.340402 -0.036875 -0.149135
v 0.335372 -0.047906 -0.120482
v 0.160088 0.325009 -0.041467
v 0.134281 0.332995 -0.026032
v 0.155058 0.313978 -0.012814
v 0.292002 -0.095054 -0.120141
v 0.293817 -0.076015 -0.095601
v 0.266196 -0.087069 -0.104705
v 0.092726 0.304886 -0.001151
v 0.085881 0.274816 0.002963
v 0.113502 0.285870 0.012067
v 0.289402 -0.066990 -0.218820
v 0.268625 -0.047974 -0.232038
v 0.296247 -0.036920 -0.222934
v 0.090126 0.332950 -0.099831
v 0.115932 0.324964 -0.115266
v 0.088311 0.313911 -0.124370
v 0.247846 -0.095099 -0.193940
v 0.222040 -0.087113 -0.178504
v 0.227070 -0.076082 -0.207157
v 0.048570 0.304842 -0.074950
v 0.046755 0.285802 -0.099490
v 0.041726 0.274771 -0.070836
v -0.297879 -0.068856 -0.223207
v -0.304518 -0.038699 -0.227013
v -0.277284 -0.050005 -0.236937
v -0.116037 0.323464 -0.122393
v -0.089721 0.331116 -0.107665
v -0.088803 0.312158 -0.132318
v -0.255936 -0.097498 -0.199619
v -0.235341 -0.078647 -0.213349
v -0.229619 -0.089846 -0.184891
v -0.047777 0.302474 -0.084077
v -0.041138 0.272317 -0.080272
v -0.046860 0.283515 -0.108730
v -0.339925 -0.068645 -0.148187
v -0.340842 -0.049687 -0.123534
v -0.346564 -0.038488 -0.151992
v -0.131767 0.331327 -0.032645
v -0.158083 0.323675 -0.047372
v -0.152361 0.312476 -0.018915
v -0.297982 -0.097287 -0.124599
v -0.271666 -0.089635 -0.109871
v -0.298899 -0.078329 -0.099946
v -0.089824 0.302684 -0.009057
v -0.110418 0.283834 0.004673
v -0.083185 0.272527 -0.005251
v -0.036397 -0.064753 0.364745
v -0.036792 -0.034610 0.372442
v -0.058872 -0.046206 0.353841
v -0.045800 0.320202 0.161929
v -0.046366 0.327891 0.131786
v -0.067881 0.308606 0.143328
v -0.036616 -0.093331 0.316587
v -0.059091 -0.074785 0.305683
v -0.037182 -0.085643 0.286444
v -0.046585 0.299313 0.083628
v -0.046190 0.269169 0.075932
v -0.068099 0.280027 0.095170
v 0.049582 -0.063310 0.363499
v 0.071096 -0.044025 0.351957
v 0.049187 -0.033167 0.371195
v 0.039613 0.329334 0.130540
v 0.040179 0.321645 0.160682
v 0.062087 0.310787 0.141444
v 0.049363 -0.091888 0.315340
v 0.048797 -0.084199 0.285198
v 0.070877 -0.072603 0.303798
v 0.039394 0.300756 0.082381
v 0.061869 0.282209 0.093285
v 0.039788 0.270613 0.074685
v 0.062475 0.812391 0.104038
v 0.062437 0.872390 0.103894
v -0.021308 0.812379 0.121110
v -0.021346 0.872378 0.120966
v -0.096464 0.812233 0.080333
v -0.096502 0.872233 0.080189
v -0.127825 0.812023 0.000787
v -0.127863 0.872023 0.000644
v -0.100719 0.811846 -0.080307
v -0.100757 0.871845 -0.080451
v -0.027827 0.811785 -0.125005
v -0.027865 0.871784 -0.125149
v 0.056743 0.811868 -0.112392
v 0.056705 0.871868 -0.112536
v 0.113419 0.812057 -0.048370
v 0.113381 0.872057 -0.048514
v 0.115683 0.812264 0.037105
v 0.115645 0.872264 0.036961
v 0.000226 0.952700 0.010135
v -0.066379 1.010723 -0.037205
v 0.022264 1.008349 -0.070249
v 0.081154 1.011472 0.003760
v 0.028907 1.015776 0.082543
v -0.062273 1.015313 0.057225
v -0.026614 1.105358 -0.072839
v 0.064566 1.105820 -0.047521
v 0.068672 1.110410 0.046909
v -0.019971 1.112784 0.079953
v -0.078862 1.109662 0.005944
v 0.002067 1.168433 -0.000431
v 0.013018 0.966471 -0.036186
v -0.039085 0.967867 -0.016763
v -0.026131 1.000577 -0.064012
v -0.075821 1.004671 0.010915
v -0.036671 0.970565 0.038741
v 0.047633 0.968307 0.007315
v 0.060587 1.001016 -0.039933
v 0.016923 0.970837 0.053623
v 0.064491 1.005382 0.049876
v -0.019814 1.007640 0.081302
v -0.085572 1.060127 -0.019226
v -0.083159 1.062825 0.036278
v -0.002758 1.056201 -0.084957
v -0.054862 1.057597 -0.065535
v 0.085451 1.058308 -0.026574
v 0.050836 1.056473 -0.070076
v 0.057154 1.063536 0.075239
v 0.087864 1.061006 0.028931
v -0.048544 1.064660 0.079780
v 0.005051 1.064932 0.094661
v -0.062199 1.115752 -0.040171
v 0.022106 1.113493 -0.071598
v 0.078114 1.116463 -0.001211
v 0.028424 1.120556 0.073716
v -0.058294 1.120117 0.049637
v -0.014630 1.150297 -0.043919
v -0.045340 1.152826 0.002389
v 0.038964 1.150568 -0.029037
v 0.041377 1.153266 0.026467
v -0.010725 1.154662 0.045890
vn -0.4214 0.0469 -0.9057
vn 0.4454 0.0310 -0.8948
vn 0.9774 0.0235 -0.2103
vn 0.7740 0.0301 0.6325
vn -0.0117 0.0458 0.9989
vn 0.0184 0.9998 -0.0034
vn -0.7879 0.0588 0.6130
vn -0.9703 0.0593 -0.2346
vn -0.0184 -0.9998 0.0034
vn -0.1397 0.0944 0.9857
vn -0.7760 0.4036 0.4847
vn -0.8136 0.4394 -0.3807
vn -0.2242 0.1750 -0.9587
vn 0.5484 -0.1907 -0.8142
vn 0.4248 0.9051 0.0191
vn 0.9224 -0.3822 -0.0559
vn 0.6161 -0.2553 0.7451
vn -0.4248 -0.9051 -0.0191
vn 0.6059 0.2984 -0.7375
vn 0.8951 0.4407 0.0673
vn 0.4968 0.2821 0.8207
vn -0.2891 -0.0580 0.9555
vn -0.8708 -0.3235 0.3702
vn -0.3997 0.9164 -0.0184
vn -0.8103 -0.3144 -0.4945
vn -0.1531 -0.0377 -0.9875
vn 0.3997 -0.9164 0.0184
vn 0.9737 -0.2093 0.0904
vn 0.4761 0.7894 0.3875
vn 0.1168 -0.7888 0.6034
vn -0.3808 0.2099 0.9005
vn 0.3808 -0.2099 -0.9005
vn -0.1168 0.7888 -0.6034
vn -0.4761 -0.7894 -0.3875
vn -0.9737 0.2093 -0.0904
vn 0.6678 -0.6112 0.4248
vn 0.8878 0.3553 0.2926
vn 0.0583 0.6119 0.7887
vn -0.1617 -0.3546 0.9210
vn -0.2200 -0.9665 0.1322
vn -0.8294 0.2567 0.4961
vn -0.8878 -0.3553 -0.2926
vn -0.0583 -0.6119 -0.7887
vn -0.6678 0.6112 -0.4248
vn 0.1617 0.3546 -0.9210
vn 0.8294 -0.2567 -0.4961
vn 0.2200 0.9665 -0.1322
vn 0.4310 -0.8649 -0.2573
vn 0.5134 0.0005 0.8581
vn 0.7421 0.5019 -0.4443
vn -0.4310 0.8649 0.2573
vn -0.7421 -0.5019 0.4443
vn -0.5134 -0.0005 -0.8581
vn -0.4083 -0.2022 -0.8901
vn 0.1080 0.7900 -0.6035
vn 0.4565 -0.7928 -0.4038
vn 0.9729 0.1994 -0.1171
vn -0.9729 -0.1994 0.1171
vn -0.4565 0.7928 0.4038
vn -0.1080 -0.7900 0.6035
vn 0.4083 0.2022 0.8901
vn 0.0295 -0.6093 -0.7924
vn -0.1839 0.3599 -0.9147
vn 0.6619 0.6059 -0.4413
vn 0.8753 -0.3634 -0.3190
vn 0.2134 -0.9693 0.1223
vn 0.8458 0.2459 0.4734
vn 0.1839 -0.3599 0.9147
vn -0.6619 -0.6059 0.4413
vn -0.0295 0.6093 0.7924
vn -0.8753 0.3634 0.3190
vn -0.8458 -0.2459 -0.4734
vn -0.2134 0.9693 -0.1223
vn -0.4472 -0.8593 -0.2482
vn 0.4889 -0.0024 -0.8723
vn -0.7490 0.5115 -0.4212
vn 0.4472 0.8593 0.2482
vn 0.7490 -0.5115 0.4212
vn -0.4889 0.0024 0.8723
vn -0.5624 -0.2115 0.7994
vn -0.5876 0.7814 0.2103
vn -0.5669 -0.8007 -0.1936
vn -0.5921 0.1921 -0.7827
vn 0.5921 -0.1921 0.7827
vn 0.5669 0.8007 0.1936
vn 0.5876 -0.7814 -0.2103
vn 0.5624 0.2115 -0.7994
vn -0.6915 -0.6198 0.3710
vn -0.7042 0.3490 0.6183
vn -0.7224 0.5961 -0.3505
vn -0.7097 -0.3727 -0.5978
vn 0.0127 -0.9688 -0.2474
vn -0.0182 0.2471 -0.9688
vn 0.7042 -0.3490 -0.6183
vn 0.7224 -0.5961 0.3505
vn 0.6915 0.6198 -0.3710
vn 0.7097 0.3727 0.5978
vn 0.0182 -0.2471 0.9688
vn -0.0127 0.9688 0.2474
vn 0.0218 -0.8598 0.5101
vn -0.9998 -0.0168 0.0145
vn 0.0039 0.5103 0.8600
vn -0.0218 0.8598 -0.5101
vn -0.0039 -0.5103 -0.8600
vn 0.9998 0.0168 -0.0145
vn 0.1997 0.0025 0.9799
vn -0.4769 0.0018 0.8790
vn -0.9303 0.0003 0.3668
vn -0.9484 -0.0014 -0.3170
vn -0.5228 -0.0024 -0.8525
vn 0.1475 -0.0023 -0.9891
vn 0.7488 -0.0011 -0.6628
vn -0.0006 1.0000 -0.0024
vn 0.9996 0.0006 -0.0265
vn 0.7828 0.0020 0.6223
vn 0.0006 -1.0000 0.0024
vn -0.1438 -0.9370 -0.3183
vn -0.7692 -0.5977 -0.2261
vn 0.2961 -0.9348 -0.1962
vn 0.3159 -0.9127 0.2593
vn -0.1117 -0.9012 0.4187
vn -0.9338 -0.2831 -0.2188
vn -0.0692 -0.3260 -0.9428
vn 0.8877 -0.3048 -0.3449
vn 0.6145 -0.2490 0.7486
vn -0.5112 -0.2355 0.8265
vn -0.8300 -0.1246 -0.5436
vn 0.2651 -0.1540 -0.9519
vn 0.9926 -0.1154 -0.0375
vn 0.3472 -0.0622 0.9357
vn -0.7793 -0.0679 0.6230
vn -0.4632 0.5637 -0.6839
vn 0.4838 0.5560 -0.6759
vn 0.7692 0.5977 0.2261
vn -0.0014 0.6312 0.7756
vn -0.7631 0.6101 0.2132
vn -0.2961 0.9348 0.1962
vn -0.5226 0.7613 0.3838
vn -0.4046 0.6292 0.6637
vn 0.1438 0.9370 0.3183
vn 0.2428 0.7652 0.5963
vn 0.5381 0.6167 0.5745
vn 0.3958 0.9163 -0.0617
vn 0.6814 0.7290 -0.0651
vn 0.7442 0.5698 -0.3487
vn 0.1117 0.9012 -0.4187
vn 0.1870 0.7028 -0.6863
vn -0.0712 0.5532 -0.8300
vn -0.3159 0.9127 -0.2593
vn -0.5571 0.7228 -0.4089
vn -0.7812 0.5899 -0.2044
vn -0.8877 0.3048 0.3449
vn -0.7717 0.1936 0.6058
vn -0.5484 0.3228 0.7714
vn 0.0692 0.3260 0.9428
vn 0.3470 0.1993 0.9165
vn 0.5799 0.3123 0.7525
vn 0.9338 0.2831 0.2188
vn 0.9879 0.1465 -0.0501
vn 0.9101 0.2567 -0.3252
vn 0.5112 0.2355 -0.8265
vn 0.2655 0.1082 -0.9580
vn -0.0141 0.2329 -0.9724
vn -0.6145 0.2490 -0.7486
vn -0.8220 0.1373 -0.5526
vn -0.9155 0.2738 -0.2947
vn -0.2651 0.1540 0.9519
vn -0.2655 -0.1082 0.9580
vn 0.0141 -0.2329 0.9724
vn 0.8300 0.1246 0.5436
vn 0.8220 -0.1373 0.5526
vn 0.9155 -0.2738 0.2947
vn 0.7793 0.0679 -0.6230
vn 0.7717 -0.1936 -0.6058
vn 0.5484 -0.3228 -0.7714
vn -0.3472 0.0622 -0.9357
vn -0.3470 -0.1993 -0.9165
vn -0.5799 -0.3123 -0.7525
vn -0.9926 0.1154 0.0375
vn -0.9879 -0.1465 0.0501
vn -0.9101 -0.2567 0.3252
vn -0.4838 -0.5560 0.6759
vn -0.1870 -0.7028 0.6863
vn 0.0712 -0.5532 0.8300
vn 0.4632 -0.5637 0.6839
vn 0.5571 -0.7228 0.4089
vn 0.7812 -0.5899 0.2044
vn 0.7631 -0.6102 -0.2132
vn 0.5226 -0.7613 -0.3838
vn 0.4046 -0.6292 -0.6637
vn -0.7442 -0.5698 0.3486
vn -0.6814 -0.7290 0.0651
vn -0.3958 -0.9163 0.0617
vn 0.0014 -0.6312 -0.7756
vn -0.2428 -0.7652 -0.5963
vn -0.5381 -0.6167 -0.5745
vt 1.000000 1.000000
vt 0.857143 0.500000
vt 1.000000 0.500000
vt 0.857143 1.000000
vt 0.714286 0.500000
vt 0.714286 1.000000
vt 0.571429 0.500000
vt 0.571429 1.000000
vt 0.428571 0.500000
vt 0.428571 1.000000
vt 0.285714 0.500000
vt 0.250000 0.490000
vt 0.016017 0.196595
vt 0.354132 0.033767
vt 0.285714 1.000000
vt 0.142857 0.500000
vt 0.142857 1.000000
vt 0.000000 0.500000
vt 0.937640 0.399638
vt 0.854132 0.033767
vt 0.516017 0.196595
vt 0.016017 0.196595
vt 0.354132 0.033767
vt 0.000000 1.000000
vt 0.854132 0.033767
vt 0.516017 0.196595
vt 0.167308 0.695000
vt 0.167308 0.750000
vt 0.125000 0.695000
vt 0.613106 0.000000
vt 0.625000 0.055000
vt 0.613106 0.055000
vt 0.167308 0.555000
vt 0.125000 0.555000
vt 0.167308 0.500000
vt 0.625000 0.248826
vt 0.613106 0.291967
vt 0.613106 0.195000
vt 0.332692 0.695000
vt 0.386765 0.695000
vt 0.383674 0.789794
vt 0.653744 0.726197
vt 0.613106 0.792308
vt 0.613106 0.695597
vt 0.332692 0.555000
vt 0.383674 0.460206
vt 0.386765 0.555000
vt 0.653744 0.523803
vt 0.613106 0.554403
vt 0.613106 0.457692
vt 0.386894 0.055000
vt 0.386894 0.000000
vt 0.386894 0.195000
vt 0.613106 0.957692
vt 0.386894 0.957692
vt 0.832692 0.555000
vt 0.386894 0.292308
vt 0.167308 0.695000
vt 0.167308 0.750000
vt 0.613184 0.000000
vt 0.625000 0.055000
vt 0.613184 0.055000
vt 0.167308 0.555000
vt 0.125000 0.555000
vt 0.625000 0.248826
vt 0.613184 0.291970
vt 0.613184 0.195000
vt 0.386689 0.695000
vt 0.383623 0.789811
vt 0.653744 0.726197
vt 0.613184 0.792308
vt 0.613184 0.695593
vt 0.332692 0.555000
vt 0.383623 0.460189
vt 0.386689 0.555000
vt 0.613184 0.554407
vt 0.613184 0.457692
vt 0.386816 0.055000
vt 0.386816 0.000000
vt 0.386816 0.292308
vt 0.625000 0.957692
vt 0.386816 0.195000
vt 0.386816 0.957692
vt 0.125000 0.695000
vt 0.612956 0.000000
vt 0.612956 0.055000
vt 0.125000 0.555000
vt 0.167308 0.500000
vt 0.625000 0.248826
vt 0.612956 0.291963
vt 0.612956 0.195000
vt 0.332692 0.695000
vt 0.386912 0.695000
vt 0.383773 0.789761
vt 0.612956 0.792308
vt 0.612956 0.695605
vt 0.383773 0.460239
vt 0.386911 0.555000
vt 0.612956 0.554395
vt 0.612956 0.457692
vt 0.387044 0.000000
vt 0.387044 0.055000
vt 0.387044 0.292308
vt 0.612956 0.957692
vt 0.387044 0.195000
vt 0.387044 0.957692
vt 0.888889 0.500000
vt 0.777778 1.000000
vt 0.777778 0.500000
vt 0.666667 0.500000
vt 0.555556 1.000000
vt 0.555556 0.500000
vt 0.444444 0.500000
vt 0.444444 1.000000
vt 0.333333 0.500000
vt 0.333333 1.000000
vt 0.222222 0.500000
vt 0.167915 0.024474
vt 0.457846 0.130000
vt 0.222222 1.000000
vt 0.111111 0.500000
vt 0.000000 1.000000
vt 0.000000 0.500000
vt 0.904269 0.433851
vt 0.667915 0.024474
vt 0.513646 0.291676
vt 0.181819 0.000000
vt 0.227273 0.078731
vt 0.136365 0.078731
vt 0.272728 0.157461
vt 0.318182 0.078731
vt 0.363637 0.157461
vt 0.909091 0.000000
vt 0.954545 0.078731
vt 0.863636 0.078731
vt 0.727273 0.000000
vt 0.772727 0.078731
vt 0.681818 0.078731
vt 0.545455 0.000000
vt 0.590909 0.078731
vt 0.500000 0.078731
vt 0.318182 0.236191
vt 0.090910 0.157461
vt 0.181819 0.157461
vt 0.136365 0.236191
vt 0.818182 0.157461
vt 0.909091 0.157461
vt 0.863636 0.236191
vt 0.636364 0.157461
vt 0.727273 0.157461
vt 0.681818 0.236191
vt 0.454546 0.157461
vt 0.545455 0.157461
vt 0.500000 0.236191
vt 0.227273 0.236191
vt 0.045455 0.236191
vt 0.772727 0.236191
vt 0.590909 0.236191
vt 0.409092 0.236191
vt 0.181819 0.314921
vt 0.272728 0.314921
vt 0.227273 0.393651
vt 0.000000 0.314921
vt 0.090910 0.314921
vt 0.045455 0.393651
vt 0.727273 0.314921
vt 0.818182 0.314921
vt 0.772727 0.393651
vt 0.545455 0.314921
vt 0.636364 0.314921
vt 0.590909 0.393651
vt 0.363637 0.314921
vt 0.454546 0.314921
vt 0.409092 0.393651
vt 0.500000 0.393651
vt 0.454546 0.472382
vt 0.681818 0.393651
vt 0.636364 0.472382
vt 0.863636 0.393651
vt 0.818182 0.472382
vt 0.909091 0.314921
vt 0.136365 0.393651
vt 0.090910 0.472382
vt 0.318182 0.393651
vt 0.272728 0.472382
vt 0.954545 0.236191
vt 1.000000 0.157461
vt 0.409092 0.078731
vt 0.363637 0.000000
vt 0.483983 0.196595
vt 0.437640 0.399638
vt 0.062360 0.399638
vt 0.145868 0.033767
vt 0.562360 0.399638
vt 0.750000 0.490000
vt 0.983983 0.196595
vt 0.645868 0.033767
vt 0.483983 0.196595
vt 0.062360 0.399638
vt 0.145868 0.033767
vt 0.983983 0.196595
vt 0.645868 0.033767
vt 0.832692 0.695000
vt 0.613184 0.957692
vt 0.888889 1.000000
vt 0.666667 1.000000
vt 0.486354 0.291676
vt 0.404269 0.433851
vt 0.095731 0.433851
vt 0.013646 0.291676
vt 0.042154 0.130000
vt 0.332085 0.024474
vt 0.111111 1.000000
vt 0.595731 0.433851
vt 0.986354 0.291676
vt 0.957846 0.130000
vt 0.832085 0.024474
vt 0.542154 0.130000
s 0
usemtl wood
f 2/1/1 3/2/1 1/3/1
f 4/4/2 5/5/2 3/2/2
f 6/6/3 7/7/3 5/5/3
f 8/8/4 9/9/4 7/7/4
f 10/10/5 11/11/5 9/9/5
f 2/12/6 12/13/6 8/14/6
f 12/15/7 13/16/7 11/11/7
f 14/17/8 1/18/8 13/16/8
f 3/19/9 7/20/9 11/21/9
f 15/3/10 18/4/10 17/2/10
f 18/4/11 19/5/11 17/2/11
f 20/6/12 21/7/12 19/5/12
f 21/7/13 24/10/13 23/9/13
f 24/10/14 25/11/14 23/9/14
f 16/12/15 26/22/15 22/23/15
f 26/15/16 27/16/16 25/11/16
f 27/16/17 16/24/17 15/18/17
f 17/19/18 21/25/18 25/26/18
f 29/3/19 32/4/19 31/2/19
f 32/4/20 33/5/20 31/2/20
f 34/6/21 35/7/21 33/5/21
f 35/7/22 38/10/22 37/9/22
f 38/10/23 39/11/23 37/9/23
f 30/12/24 40/22/24 36/23/24
f 40/15/25 41/16/25 39/11/25
f 41/16/26 30/24/26 29/18/26
f 31/19/27 35/25/27 39/26/27
f 43/27/28 44/28/28 45/29/28
f 46/30/29 47/31/29 48/32/29
f 49/33/30 50/34/30 51/35/30
f 52/36/31 53/37/31 54/38/31
f 55/39/32 56/40/32 57/41/32
f 58/42/33 59/43/33 60/44/33
f 61/45/34 62/46/34 63/47/34
f 64/48/35 65/49/35 66/50/35
f 43/27/36 50/34/36 49/33/36
f 46/30/37 45/51/37 44/52/37
f 52/36/38 48/32/38 47/31/38
f 53/37/39 50/53/39 54/38/39
f 49/33/40 62/46/40 61/45/40
f 52/36/41 66/50/41 53/37/41
f 63/47/42 66/50/42 65/49/42
f 55/39/43 63/47/43 56/40/43
f 64/48/44 60/44/44 65/49/44
f 59/43/45 56/40/45 60/44/45
f 55/39/46 44/28/46 43/27/46
f 58/42/47 46/54/47 59/43/47
f 61/45/48 43/27/48 49/33/48
f 48/32/49 50/53/49 45/51/49
f 59/43/50 44/55/50 57/41/50
f 52/56/51 58/42/51 64/48/51
f 51/57/52 66/50/52 62/46/52
f 65/49/53 56/40/53 63/47/53
f 67/58/54 68/59/54 69/29/54
f 70/60/55 71/61/55 72/62/55
f 73/63/56 74/64/56 75/35/56
f 76/65/57 77/66/57 78/67/57
f 79/39/58 80/68/58 81/69/58
f 82/70/59 83/71/59 84/72/59
f 85/73/60 86/74/60 87/75/60
f 88/48/61 89/76/61 90/77/61
f 67/58/62 74/64/62 73/63/62
f 70/60/63 69/78/63 68/79/63
f 76/65/64 72/62/64 71/61/64
f 75/80/65 78/67/65 77/66/65
f 73/63/66 86/74/66 85/73/66
f 88/48/67 77/66/67 76/65/67
f 87/75/68 90/77/68 89/76/68
f 85/73/69 80/68/69 79/39/69
f 88/48/70 84/72/70 89/76/70
f 81/69/71 84/72/71 83/71/71
f 67/58/72 81/69/72 68/59/72
f 71/81/73 83/71/73 82/70/73
f 85/73/74 67/58/74 73/63/74
f 69/78/75 78/67/75 74/82/75
f 83/71/76 68/83/76 81/69/76
f 76/56/77 82/70/77 88/48/77
f 75/80/78 90/77/78 86/74/78
f 89/76/79 80/68/79 87/75/79
f 91/27/80 92/28/80 93/84/80
f 94/85/81 95/31/81 96/86/81
f 97/33/82 98/87/82 99/88/82
f 100/89/83 101/90/83 102/91/83
f 103/92/84 104/93/84 105/94/84
f 106/70/85 107/95/85 108/96/85
f 109/45/86 110/97/86 111/98/86
f 112/48/87 113/99/87 114/100/87
f 97/33/88 93/84/88 98/87/88
f 92/101/89 96/86/89 93/102/89
f 95/31/90 102/91/90 96/86/90
f 99/103/91 102/91/91 101/90/91
f 97/33/92 110/97/92 109/45/92
f 112/48/93 101/90/93 100/89/93
f 113/99/94 110/97/94 114/100/94
f 109/45/95 104/93/95 103/92/95
f 112/48/96 108/96/96 113/99/96
f 105/94/97 108/96/97 107/95/97
f 91/27/98 105/94/98 92/28/98
f 106/70/99 94/104/99 107/95/99
f 109/45/100 91/27/100 97/33/100
f 93/102/101 102/91/101 98/105/101
f 107/95/102 92/106/102 105/94/102
f 100/56/103 106/70/103 112/48/103
f 101/90/104 110/97/104 99/103/104
f 113/99/105 104/93/105 111/98/105
f 2/1/1 4/4/1 3/2/1
f 4/4/2 6/6/2 5/5/2
f 6/6/3 8/8/3 7/7/3
f 8/8/4 10/10/4 9/9/4
f 10/10/5 12/15/5 11/11/5
f 6/190/6 4/191/6 2/12/6
f 2/12/6 14/192/6 12/13/6
f 12/13/6 10/193/6 8/14/6
f 8/14/6 6/190/6 2/12/6
f 12/15/7 14/17/7 13/16/7
f 14/17/8 2/24/8 1/18/8
f 13/194/9 1/195/9 3/19/9
f 3/19/9 5/196/9 7/20/9
f 7/20/9 9/197/9 11/21/9
f 11/21/9 13/194/9 3/19/9
f 15/3/10 16/1/10 18/4/10
f 18/4/11 20/6/11 19/5/11
f 20/6/12 22/8/12 21/7/12
f 21/7/13 22/8/13 24/10/13
f 24/10/14 26/15/14 25/11/14
f 20/198/15 18/191/15 16/12/15
f 16/12/15 28/199/15 26/22/15
f 26/22/15 24/200/15 22/23/15
f 22/23/15 20/198/15 16/12/15
f 26/15/16 28/17/16 27/16/16
f 27/16/17 28/17/17 16/24/17
f 27/194/18 15/195/18 17/19/18
f 17/19/18 19/201/18 21/25/18
f 21/25/18 23/202/18 25/26/18
f 25/26/18 27/194/18 17/19/18
f 29/3/19 30/1/19 32/4/19
f 32/4/20 34/6/20 33/5/20
f 34/6/21 36/8/21 35/7/21
f 35/7/22 36/8/22 38/10/22
f 38/10/23 40/15/23 39/11/23
f 34/198/24 32/191/24 30/12/24
f 30/12/24 42/199/24 40/22/24
f 40/22/24 38/200/24 36/23/24
f 36/23/24 34/198/24 30/12/24
f 40/15/25 42/17/25 41/16/25
f 41/16/26 42/17/26 30/24/26
f 41/194/27 29/195/27 31/19/27
f 31/19/27 33/201/27 35/25/27
f 35/25/27 37/202/27 39/26/27
f 39/26/27 41/194/27 31/19/27
f 43/27/36 45/29/36 50/34/36
f 46/30/37 48/32/37 45/51/37
f 52/36/38 54/38/38 48/32/38
f 53/37/39 51/57/39 50/53/39
f 49/33/40 51/35/40 62/46/40
f 52/36/41 64/48/41 66/50/41
f 63/47/42 62/46/42 66/50/42
f 55/39/43 61/45/43 63/47/43
f 64/48/44 58/42/44 60/44/44
f 59/43/45 57/41/45 56/40/45
f 55/39/46 57/41/46 44/28/46
f 58/42/47 47/81/47 46/54/47
f 61/45/48 55/39/48 43/27/48
f 48/32/49 54/38/49 50/53/49
f 59/43/50 46/54/50 44/55/50
f 52/56/51 47/203/51 58/42/51
f 51/57/52 53/37/52 66/50/52
f 65/49/53 60/44/53 56/40/53
f 67/58/62 69/29/62 74/64/62
f 70/60/63 72/62/63 69/78/63
f 76/65/64 78/67/64 72/62/64
f 75/80/65 74/82/65 78/67/65
f 73/63/66 75/35/66 86/74/66
f 88/48/67 90/77/67 77/66/67
f 87/75/68 86/74/68 90/77/68
f 85/73/69 87/75/69 80/68/69
f 88/48/70 82/70/70 84/72/70
f 81/69/71 80/68/71 84/72/71
f 67/58/72 79/39/72 81/69/72
f 71/81/73 70/204/73 83/71/73
f 85/73/74 79/39/74 67/58/74
f 69/78/75 72/62/75 78/67/75
f 83/71/76 70/204/76 68/83/76
f 76/56/77 71/203/77 82/70/77
f 75/80/78 77/66/78 90/77/78
f 89/76/79 84/72/79 80/68/79
f 97/33/88 91/27/88 93/84/88
f 92/101/89 94/85/89 96/86/89
f 95/31/90 100/89/90 102/91/90
f 99/103/91 98/105/91 102/91/91
f 97/33/92 99/88/92 110/97/92
f 112/48/93 114/100/93 101/90/93
f 113/99/94 111/98/94 110/97/94
f 109/45/95 111/98/95 104/93/95
f 112/48/96 106/70/96 108/96/96
f 105/94/97 104/93/97 108/96/97
f 91/27/98 103/92/98 105/94/98
f 106/70/99 95/81/99 94/104/99
f 109/45/100 103/92/100 91/27/100
f 93/102/101 96/86/101 102/91/101
f 107/95/102 94/104/102 92/106/102
f 100/56/103 95/203/103 106/70/103
f 101/90/104 114/100/104 110/97/104
f 113/99/105 108/96/105 104/93/105
usemtl rope
f 116/1/106 117/107/106 115/3/106
f 117/107/107 120/108/107 119/109/107
f 120/108/108 121/110/108 119/109/108
f 121/110/109 124/111/109 123/112/109
f 124/111/110 125/113/110 123/112/110
f 126/114/111 127/115/111 125/113/111
f 128/116/112 129/117/112 127/115/112
f 116/12/113 126/118/113 122/119/113
f 130/120/114 131/121/114 129/117/114
f 131/121/115 116/122/115 115/123/115
f 117/124/116 125/125/116 129/126/116
f 116/1/106 118/205/106 117/107/106
f 117/107/107 118/205/107 120/108/107
f 120/108/108 122/206/108 121/110/108
f 121/110/109 122/206/109 124/111/109
f 124/111/110 126/114/110 125/113/110
f 126/114/111 128/116/111 127/115/111
f 128/116/112 130/120/112 129/117/112
f 120/207/113 118/208/113 116/12/113
f 116/12/113 132/209/113 130/210/113
f 130/210/113 128/211/113 126/118/113
f 126/118/113 124/212/113 122/119/113
f 122/119/113 120/207/113 116/12/113
f 116/12/113 130/210/113 126/118/113
f 130/120/114 132/213/114 131/121/114
f 131/121/115 132/213/115 116/122/115
f 131/214/116 115/195/116 117/124/116
f 117/124/116 119/215/116 121/216/116
f 121/216/116 123/217/116 125/125/116
f 125/125/116 127/218/116 129/126/116
f 129/126/116 131/214/116 117/124/116
f 117/124/116 121/216/116 125/125/116
usemtl core
f 133/127/117 146/128/117 145/129/117
f 134/130/118 146/131/118 148/132/118
f 133/133/119 145/134/119 150/135/119
f 133/136/120 150/137/120 152/138/120
f 133/139/121 152/140/121 149/141/121
f 134/130/122 148/132/122 155/142/122
f 135/143/123 147/144/123 157/145/123
f 136/146/124 151/147/124 159/148/124
f 137/149/125 153/150/125 161/151/125
f 138/152/126 154/153/126 163/154/126
f 134/130/127 155/142/127 158/155/127
f 135/143/128 157/145/128 160/156/128
f 136/146/129 159/148/129 162/157/129
f 137/149/130 161/151/130 164/158/130
f 138/152/131 163/154/131 156/159/131
f 139/160/132 165/161/132 170/162/132
f 140/163/133 166/164/133 172/165/133
f 141/166/134 167/167/134 173/168/134
f 142/169/135 168/170/135 174/171/135
f 143/172/136 169/173/136 171/174/136
f 171/174/137 174/175/137 144/176/137
f 171/174/138 169/173/138 174/175/138
f 169/173/139 142/169/139 174/175/139
f 174/171/140 173/177/140 144/178/140
f 174/171/141 168/170/141 173/177/141
f 168/170/142 141/166/142 173/177/142
f 173/168/143 172/179/143 144/180/143
f 173/168/144 167/167/144 172/179/144
f 167/167/145 140/181/145 172/179/145
f 172/165/146 170/182/146 144/183/146
f 172/165/147 166/164/147 170/182/147
f 166/164/148 139/160/148 170/182/148
f 170/162/149 171/184/149 144/185/149
f 170/162/150 165/161/150 171/184/150
f 165/161/151 143/172/151 171/184/151
f 156/159/152 169/173/152 143/172/152
f 156/159/153 163/154/153 169/173/153
f 163/154/154 142/169/154 169/173/154
f 164/158/155 168/170/155 142/169/155
f 164/158/156 161/151/156 168/170/156
f 161/151/157 141/166/157 168/170/157
f 162/157/158 167/167/158 141/166/158
f 162/157/159 159/148/159 167/167/159
f 159/148/160 140/181/160 167/167/160
f 160/156/161 166/164/161 140/163/161
f 160/156/162 157/145/162 166/164/162
f 157/145/163 139/160/163 166/164/163
f 158/155/164 165/161/164 139/160/164
f 158/155/165 155/142/165 165/161/165
f 155/142/166 143/172/166 165/161/166
f 163/154/167 164/158/167 142/169/167
f 163/154/168 154/153/168 164/158/168
f 154/153/169 137/149/169 164/158/169
f 161/151/170 162/157/170 141/166/170
f 161/151/171 153/150/171 162/157/171
f 153/150/172 136/146/172 162/157/172
f 159/148/173 160/186/173 140/181/173
f 159/148/174 151/147/174 160/186/174
f 151/147/175 135/187/175 160/186/175
f 157/145/176 158/155/176 139/160/176
f 157/145/177 147/144/177 158/155/177
f 147/144/178 134/130/178 158/155/178
f 155/142/179 156/159/179 143/172/179
f 155/142/180 148/132/180 156/159/180
f 148/132/181 138/152/181 156/159/181
f 149/141/182 154/153/182 138/152/182
f 149/141/183 152/140/183 154/153/183
f 152/140/184 137/149/184 154/153/184
f 152/138/185 153/150/185 137/149/185
f 152/138/186 150/137/186 153/150/186
f 150/137/187 136/146/187 153/150/187
f 150/135/188 151/147/188 136/146/188
f 150/135/189 145/134/189 151/147/189
f 145/134/190 135/187/190 151/147/190
f 148/132/191 149/188/191 138/152/191
f 148/132/192 146/131/192 149/188/192
f 146/131/193 133/189/193 149/188/193
f 145/129/194 147/144/194 135/143/194
f 145/129/195 146/128/195 147/144/195
f 146/128/196 134/130/196 147/144/196
