# Blender 4.5.10 LTS
# www.blender.org
mtllib stow_rail_remodel_a.mtl
o stow_rail_remodel_a
v 0.755574 -0.122877 -0.140653
v 0.731544 -0.103115 -0.140446
v 0.753423 -0.100772 -0.162442
v 0.626400 0.975986 -0.130077
v 0.646163 1.000015 -0.129864
v 0.648279 0.978329 -0.152073
v 0.861075 -0.112598 -0.140639
v 0.858924 -0.090493 -0.162428
v 0.880838 -0.088569 -0.140426
v 0.751664 1.010294 -0.129850
v 0.775693 0.990532 -0.130058
v 0.753780 0.988608 -0.152060
v 0.755794 -0.125508 0.135334
v 0.753678 -0.103822 0.157544
v 0.731764 -0.105746 0.135542
v 0.646383 0.997384 0.146123
v 0.626620 0.973355 0.145910
v 0.648534 0.975279 0.167912
v 0.861295 -0.115228 0.135348
v 0.881057 -0.091199 0.135561
v 0.859179 -0.093542 0.157558
v 0.751884 1.007664 0.146137
v 0.754035 0.985559 0.167926
v 0.775913 0.987902 0.145930
v 0.728354 1.083312 -0.001978
v 0.678357 1.083774 -0.001772
v 0.728409 1.056278 0.071895
v 0.678412 1.056740 0.072102
v 0.727941 0.988086 0.111109
v 0.677943 0.988548 0.111316
v 0.727168 0.910643 0.097315
v 0.677171 0.911106 0.097522
v 0.726453 0.860188 0.036968
v 0.676455 0.860650 0.037174
v 0.726130 0.860327 -0.041696
v 0.676132 0.860789 -0.041490
v 0.726350 0.910996 -0.101868
v 0.676352 0.911458 -0.101662
v 0.727010 0.988486 -0.115394
v 0.677013 0.988948 -0.115188
v 0.727802 1.056539 -0.075944
v 0.677804 1.057001 -0.075738
v -0.859545 -0.111409 -0.145477
v -0.879197 -0.087289 -0.145328
v -0.857103 -0.089220 -0.167149
v -0.769623 0.986395 -0.129410
v -0.745505 1.006043 -0.128909
v -0.747530 0.984464 -0.151231
v -0.754097 -0.122183 -0.144629
v -0.751656 -0.099994 -0.166302
v -0.729978 -0.102535 -0.144129
v -0.640057 0.995269 -0.128062
v -0.620405 0.971149 -0.128211
v -0.642082 0.973690 -0.150383
v -0.862153 -0.115235 0.130485
v -0.860127 -0.093656 0.152806
v -0.881805 -0.091115 0.130633
v -0.748112 1.002218 0.147052
v -0.772231 0.982570 0.146552
v -0.750554 0.980029 0.168724
v -0.756705 -0.126008 0.131332
v -0.732586 -0.106361 0.131832
v -0.754680 -0.104429 0.153653
v -0.642665 0.991444 0.147899
v -0.645106 0.969255 0.169572
v -0.623013 0.967324 0.147750
v -0.677569 0.854271 0.001685
v -0.727566 0.854151 0.002153
v -0.678325 0.881153 -0.072240
v -0.728322 0.881033 -0.071772
v -0.678856 0.949266 -0.111590
v -0.728854 0.949146 -0.111123
v -0.678915 1.026740 -0.097953
v -0.728912 1.026620 -0.097486
v -0.678472 1.077323 -0.037710
v -0.728470 1.077203 -0.037242
v -0.677737 1.077348 0.040951
v -0.727734 1.077228 0.041419
v -0.677052 1.026802 0.101224
v -0.727049 1.026682 0.101692
v -0.676738 0.949337 0.114906
v -0.726735 0.949217 0.115373
v -0.676942 0.881199 0.075595
v -0.726940 0.881079 0.076062
v 0.941874 0.940943 -0.020908
v -0.937440 0.904462 0.014926
v 0.940280 0.966735 -0.073957
v -0.938893 0.927978 -0.033442
v 0.938734 1.024297 -0.086849
v -0.940304 0.980461 -0.045197
v 0.938399 1.070284 -0.049876
v -0.940609 1.022390 -0.011485
v 0.939528 1.070067 0.009121
v -0.939579 1.022192 0.042306
v 0.941271 1.023809 0.045716
v -0.937990 0.980016 0.075672
v 0.942315 0.966344 0.032352
v -0.937038 0.927622 0.063487
v 0.683264 0.153471 -0.028385
v 0.683082 0.175834 -0.050014
v 0.704940 0.175784 -0.027874
v 0.682264 0.231821 -0.049080
v 0.681804 0.253446 -0.026716
v 0.704122 0.231770 -0.026939
v 0.682912 0.152531 0.027606
v 0.704588 0.174844 0.028117
v 0.682452 0.174156 0.049970
v 0.681452 0.252506 0.029275
v 0.681634 0.230143 0.050904
v 0.703770 0.230831 0.029052
v -0.675705 0.133765 -0.037269
v -0.698023 0.155441 -0.037046
v -0.675887 0.156129 -0.058899
v -0.677165 0.233741 -0.035601
v -0.676705 0.212115 -0.057964
v -0.698841 0.211427 -0.036112
v -0.676057 0.132826 0.018722
v -0.676517 0.154451 0.041085
v -0.698376 0.154501 0.018945
v -0.677517 0.232801 0.020390
v -0.699193 0.210488 0.019879
v -0.677335 0.210437 0.042020
v 0.450000 0.465000 0.115000
v 0.450000 0.735000 0.165000
v 0.376079 0.465000 0.088095
v 0.343940 0.735000 0.126397
v 0.336747 0.465000 0.019970
v 0.287507 0.735000 0.028652
v 0.350407 0.465000 -0.057500
v 0.307106 0.735000 -0.082500
v 0.410668 0.465000 -0.108065
v 0.393567 0.735000 -0.155049
v 0.489332 0.465000 -0.108065
v 0.506433 0.735000 -0.155049
v 0.549593 0.465000 -0.057500
v 0.592894 0.735000 -0.082500
v 0.563253 0.465000 0.019970
v 0.612493 0.735000 0.028652
v 0.523921 0.465000 0.088095
v 0.556060 0.735000 0.126397
v 0.450000 0.469370 0.091401
v 0.450000 0.739370 0.141401
v 0.391248 0.469370 0.070017
v 0.359109 0.739370 0.108320
v 0.359987 0.469370 0.015872
v 0.310747 0.739370 0.024554
v 0.370844 0.469370 -0.045701
v 0.327543 0.739370 -0.070701
v 0.418739 0.469370 -0.085889
v 0.401638 0.739370 -0.132874
v 0.481261 0.469370 -0.085889
v 0.498362 0.739370 -0.132874
v 0.529156 0.469370 -0.045701
v 0.572457 0.739370 -0.070701
v 0.540013 0.469370 0.015872
v 0.589253 0.739370 0.024554
v 0.508752 0.469370 0.070017
v 0.540891 0.739370 0.108320
v 0.450000 0.690000 0.177000
v 0.450000 0.740000 0.177000
v 0.336227 0.690000 0.135590
v 0.336227 0.740000 0.135590
v 0.275689 0.690000 0.030736
v 0.275689 0.740000 0.030736
v 0.296714 0.690000 -0.088500
v 0.296714 0.740000 -0.088500
v 0.389462 0.690000 -0.166326
v 0.389462 0.740000 -0.166326
v 0.510538 0.690000 -0.166326
v 0.510538 0.740000 -0.166326
v 0.603287 0.690000 -0.088500
v 0.603287 0.740000 -0.088500
v 0.624311 0.690000 0.030736
v 0.624311 0.740000 0.030736
v 0.563773 0.690000 0.135590
v 0.563773 0.740000 0.135590
v 0.450000 0.690000 0.157000
v 0.450000 0.740000 0.157000
v 0.349082 0.690000 0.120269
v 0.349082 0.740000 0.120269
v 0.295385 0.690000 0.027263
v 0.295385 0.740000 0.027263
v 0.314034 0.690000 -0.078500
v 0.314034 0.740000 -0.078500
v 0.396303 0.690000 -0.147532
v 0.396303 0.740000 -0.147532
v 0.503697 0.690000 -0.147532
v 0.503697 0.740000 -0.147532
v 0.585966 0.690000 -0.078500
v 0.585966 0.740000 -0.078500
v 0.604615 0.690000 0.027263
v 0.604615 0.740000 0.027263
v 0.550918 0.690000 0.120269
v 0.550918 0.740000 0.120269
v 0.451882 0.974531 0.002343
v 0.454564 0.969978 0.007618
v 0.459102 0.972626 0.002313
v 0.587718 0.741402 0.007409
v 0.590352 0.736830 0.002125
v 0.592257 0.744051 0.002104
v 0.451831 0.974511 -0.009097
v 0.459051 0.972607 -0.009127
v 0.454465 0.969940 -0.014381
v 0.590301 0.736811 -0.009315
v 0.587619 0.741364 -0.014591
v 0.592205 0.744031 -0.009336
v 0.441997 0.968773 0.002397
v 0.440093 0.961553 0.002418
v 0.444679 0.964219 0.007673
v 0.580467 0.731072 0.002179
v 0.577833 0.735643 0.007463
v 0.573247 0.732977 0.002209
v 0.441946 0.968753 -0.009043
v 0.444580 0.964182 -0.014327
v 0.440041 0.961533 -0.009022
v 0.580416 0.731053 -0.009261
v 0.573196 0.732957 -0.009231
v 0.577734 0.735606 -0.014536
v 0.455085 0.966129 0.006500
v 0.452477 0.961610 0.011842
v 0.456973 0.958905 0.006529
v 0.318788 0.733328 0.014938
v 0.316061 0.728736 0.009720
v 0.323285 0.730623 0.009626
v 0.454957 0.966049 -0.004939
v 0.456844 0.958825 -0.004910
v 0.452229 0.961457 -0.010156
v 0.315932 0.728656 -0.001719
v 0.318541 0.733175 -0.007060
v 0.323156 0.730543 -0.001813
v 0.445214 0.971911 0.006571
v 0.437990 0.970024 0.006665
v 0.442605 0.967392 0.011912
v 0.306190 0.734517 0.009791
v 0.308917 0.739110 0.015009
v 0.304302 0.741742 0.009762
v 0.445085 0.971831 -0.004868
v 0.442358 0.967238 -0.010086
v 0.437861 0.969944 -0.004774
v 0.306061 0.734437 -0.001648
v 0.304173 0.741662 -0.001677
v 0.308670 0.738957 -0.006989
v 0.000000 0.465000 0.115000
v 0.000000 0.735000 0.165000
v -0.073921 0.465000 0.088095
v -0.106060 0.735000 0.126397
v -0.113253 0.465000 0.019970
v -0.162493 0.735000 0.028652
v -0.099593 0.465000 -0.057500
v -0.142894 0.735000 -0.082500
v -0.039332 0.465000 -0.108065
v -0.056433 0.735000 -0.155049
v 0.039332 0.465000 -0.108065
v 0.056433 0.735000 -0.155049
v 0.099593 0.465000 -0.057500
v 0.142894 0.735000 -0.082500
v 0.113253 0.465000 0.019970
v 0.162493 0.735000 0.028652
v 0.073921 0.465000 0.088095
v 0.106060 0.735000 0.126397
v 0.000000 0.469370 0.091401
v 0.000000 0.739370 0.141401
v -0.058752 0.469370 0.070017
v -0.090891 0.739370 0.108320
v -0.090013 0.469370 0.015872
v -0.139253 0.739370 0.024554
v -0.079156 0.469370 -0.045701
v -0.122457 0.739370 -0.070701
v -0.031261 0.469370 -0.085889
v -0.048362 0.739370 -0.132874
v 0.031261 0.469370 -0.085889
v 0.048362 0.739370 -0.132874
v 0.079156 0.469370 -0.045701
v 0.122457 0.739370 -0.070701
v 0.090013 0.469370 0.015872
v 0.139253 0.739370 0.024554
v 0.058752 0.469370 0.070017
v 0.090891 0.739370 0.108320
v 0.000000 0.690000 0.177000
v -0.000000 0.740000 0.177000
v -0.113773 0.690000 0.135590
v -0.113773 0.740000 0.135590
v -0.174311 0.690000 0.030736
v -0.174311 0.740000 0.030736
v -0.153287 0.690000 -0.088500
v -0.153287 0.740000 -0.088500
v -0.060538 0.690000 -0.166326
v -0.060538 0.740000 -0.166326
v 0.060538 0.690000 -0.166326
v 0.060538 0.740000 -0.166326
v 0.153287 0.690000 -0.088500
v 0.153287 0.740000 -0.088500
v 0.174311 0.690000 0.030736
v 0.174311 0.740000 0.030736
v 0.113773 0.690000 0.135590
v 0.113773 0.740000 0.135590
v 0.000000 0.690000 0.157000
v -0.000000 0.740000 0.157000
v -0.100918 0.690000 0.120269
v -0.100918 0.740000 0.120269
v -0.154615 0.690000 0.027263
v -0.154615 0.740000 0.027263
v -0.135966 0.690000 -0.078500
v -0.135966 0.740000 -0.078500
v -0.053697 0.690000 -0.147532
v -0.053697 0.740000 -0.147532
v 0.053697 0.690000 -0.147532
v 0.053697 0.740000 -0.147532
v 0.135966 0.690000 -0.078500
v 0.135966 0.740000 -0.078500
v 0.154615 0.690000 0.027263
v 0.154615 0.740000 0.027263
v 0.100918 0.690000 0.120269
v 0.100918 0.740000 0.120269
v 0.008694 0.977436 0.007691
v 0.011294 0.972891 0.013014
v 0.015904 0.975496 0.007749
v 0.146132 0.738725 0.015218
v 0.148801 0.734120 0.009981
v 0.150742 0.741330 0.009953
v 0.008768 0.977372 -0.003749
v 0.015978 0.975431 -0.003691
v 0.011437 0.972766 -0.008985
v 0.148876 0.734055 -0.001459
v 0.146275 0.738600 -0.006781
v 0.150817 0.741265 -0.001487
v -0.001220 0.971728 0.007659
v -0.003161 0.964517 0.007687
v 0.001380 0.967182 0.012982
v 0.138887 0.728411 0.009949
v 0.136218 0.733016 0.015185
v 0.131677 0.730351 0.009891
v -0.001146 0.971663 -0.003781
v 0.001523 0.967057 -0.009017
v -0.003087 0.964453 -0.003753
v 0.138962 0.728346 -0.001491
v 0.131752 0.730287 -0.001549
v 0.136362 0.732892 -0.006814
v 0.002333 0.963922 0.007241
v -0.000281 0.959340 0.012526
v 0.004257 0.956707 0.007213
v -0.132784 0.730477 0.012786
v -0.135461 0.725920 0.007512
v -0.128247 0.727844 0.007473
v 0.002265 0.963948 -0.004199
v 0.004188 0.956733 -0.004227
v -0.000412 0.959391 -0.009473
v -0.135530 0.725946 -0.003928
v -0.132916 0.730528 -0.009213
v -0.128315 0.727870 -0.003967
v -0.007567 0.969654 0.007314
v -0.014782 0.967730 0.007352
v -0.010181 0.965072 0.012599
v -0.145362 0.731652 0.007584
v -0.142685 0.736209 0.012859
v -0.147285 0.738867 0.007612
v -0.007636 0.969680 -0.004126
v -0.010313 0.965123 -0.009401
v -0.014850 0.967757 -0.004087
v -0.145430 0.731678 -0.003856
v -0.147354 0.738893 -0.003827
v -0.142816 0.736260 -0.009141
v -0.450000 0.465000 0.115000
v -0.450000 0.735000 0.165000
v -0.523921 0.465000 0.088095
v -0.556060 0.735000 0.126397
v -0.563253 0.465000 0.019970
v -0.612493 0.735000 0.028652
v -0.549593 0.465000 -0.057500
v -0.592894 0.735000 -0.082500
v -0.489332 0.465000 -0.108065
v -0.506433 0.735000 -0.155049
v -0.410668 0.465000 -0.108065
v -0.393567 0.735000 -0.155049
v -0.350407 0.465000 -0.057500
v -0.307106 0.735000 -0.082500
v -0.336747 0.465000 0.019970
v -0.287507 0.735000 0.028652
v -0.376079 0.465000 0.088095
v -0.343940 0.735000 0.126397
v -0.450000 0.469370 0.091401
v -0.450000 0.739370 0.141401
v -0.508752 0.469370 0.070017
v -0.540891 0.739370 0.108320
v -0.540013 0.469370 0.015872
v -0.589253 0.739370 0.024554
v -0.529156 0.469370 -0.045701
v -0.572457 0.739370 -0.070701
v -0.481261 0.469370 -0.085889
v -0.498362 0.739370 -0.132874
v -0.418739 0.469370 -0.085889
v -0.401638 0.739370 -0.132874
v -0.370844 0.469370 -0.045701
v -0.327543 0.739370 -0.070701
v -0.359988 0.469370 0.015872
v -0.310747 0.739370 0.024554
v -0.391249 0.469370 0.070017
v -0.359109 0.739370 0.108320
v -0.450000 0.690000 0.177000
v -0.450000 0.740000 0.177000
v -0.563773 0.690000 0.135590
v -0.563774 0.740000 0.135590
v -0.624311 0.690000 0.030736
v -0.624311 0.740000 0.030736
v -0.603287 0.690000 -0.088500
v -0.603287 0.740000 -0.088500
v -0.510538 0.690000 -0.166326
v -0.510538 0.740000 -0.166326
v -0.389463 0.690000 -0.166326
v -0.389463 0.740000 -0.166326
v -0.296714 0.690000 -0.088500
v -0.296714 0.740000 -0.088500
v -0.275689 0.690000 0.030736
v -0.275689 0.740000 0.030736
v -0.336227 0.690000 0.135590
v -0.336227 0.740000 0.135590
v -0.450000 0.690000 0.157000
v -0.450000 0.740000 0.157000
v -0.550918 0.690000 0.120269
v -0.550918 0.740000 0.120269
v -0.604615 0.690000 0.027263
v -0.604615 0.740000 0.027263
v -0.585966 0.690000 -0.078500
v -0.585966 0.740000 -0.078500
v -0.503697 0.690000 -0.147532
v -0.503697 0.740000 -0.147532
v -0.396303 0.690000 -0.147532
v -0.396303 0.740000 -0.147532
v -0.314034 0.690000 -0.078500
v -0.314034 0.740000 -0.078500
v -0.295385 0.690000 0.027263
v -0.295385 0.740000 0.027263
v -0.349082 0.690000 0.120269
v -0.349082 0.740000 0.120269
v -0.440922 0.971144 0.006869
v -0.438244 0.966573 0.012131
v -0.433706 0.969225 0.006828
v -0.304455 0.735852 0.011235
v -0.301836 0.731288 0.005938
v -0.299917 0.738505 0.005932
v -0.440986 0.971152 -0.004571
v -0.433770 0.969233 -0.004612
v -0.438367 0.966588 -0.009868
v -0.301899 0.731296 -0.005502
v -0.304577 0.735867 -0.010764
v -0.299980 0.738512 -0.005508
v -0.450818 0.965406 0.006920
v -0.452737 0.958189 0.006926
v -0.448140 0.960835 0.012182
v -0.311732 0.725549 0.005989
v -0.314351 0.730114 0.011287
v -0.318948 0.727468 0.006030
v -0.450882 0.965413 -0.004520
v -0.448263 0.960849 -0.009817
v -0.452801 0.958197 -0.004514
v -0.311795 0.725557 -0.005451
v -0.319012 0.727476 -0.005409
v -0.314473 0.730128 -0.010713
v -0.442211 0.967639 0.005435
v -0.444871 0.963050 0.010690
v -0.440298 0.960421 0.005405
v -0.577887 0.734090 0.009458
v -0.580532 0.729549 0.004153
v -0.573314 0.731462 0.004173
v -0.442194 0.967690 -0.006005
v -0.440281 0.960473 -0.006035
v -0.444838 0.963149 -0.011310
v -0.580514 0.729600 -0.007286
v -0.577854 0.734189 -0.012542
v -0.573297 0.731513 -0.007267
v -0.452103 0.973386 0.005446
v -0.459320 0.971473 0.005426
v -0.454763 0.968796 0.010701
v -0.590424 0.735295 0.004165
v -0.587779 0.739837 0.009469
v -0.592337 0.742513 0.004194
v -0.452086 0.973437 -0.005994
v -0.454730 0.968896 -0.011299
v -0.459304 0.971524 -0.006013
v -0.590406 0.735347 -0.007275
v -0.592320 0.742565 -0.007246
v -0.587746 0.739936 -0.012531
vn -0.5191 -0.6251 -0.5829
vn -0.6311 0.5241 -0.5719
vn 0.6302 -0.5131 -0.5828
vn 0.5182 0.6361 -0.5717
vn -0.5182 -0.6361 0.5717
vn -0.6302 0.5131 0.5828
vn 0.6311 -0.5241 0.5719
vn 0.5191 0.6251 0.5829
vn 0.0680 -0.6970 -0.7138
vn -0.7043 -0.0618 -0.7072
vn -0.0691 0.7105 -0.7003
vn 0.7032 0.0753 -0.7070
vn 0.7723 -0.6352 -0.0067
vn 0.6352 0.7723 0.0069
vn 0.7043 0.0618 0.7072
vn 0.0691 -0.7105 0.7003
vn -0.0680 0.6970 0.7138
vn -0.7032 -0.0753 0.7070
vn -0.6352 -0.7723 -0.0069
vn -0.7723 0.6352 0.0067
vn 0.0970 -0.9952 -0.0096
vn -0.0008 0.0095 -1.0000
vn -0.9953 -0.0970 -0.0001
vn -0.0970 0.9952 0.0096
vn 0.9953 0.0970 0.0001
vn 0.0008 -0.0095 1.0000
vn 0.0101 0.9390 0.3436
vn 0.0082 0.4984 0.8669
vn 0.0024 -0.1754 0.9845
vn -0.0044 -0.7671 0.6415
vn -0.0093 -1.0000 -0.0017
vn -0.0097 -0.7649 -0.6441
vn -0.0057 -0.1719 -0.9851
vn -0.9999 0.0092 0.0041
vn 0.0011 0.5015 -0.8652
vn 0.0073 0.9403 -0.3404
vn 0.9999 -0.0092 -0.0041
vn -0.6275 -0.5076 -0.5904
vn -0.5103 0.6410 -0.5734
vn 0.5212 -0.6250 -0.5812
vn 0.6384 0.5236 -0.5641
vn -0.6384 -0.5236 0.5641
vn -0.5212 0.6250 0.5812
vn 0.5103 -0.6410 0.5734
vn 0.6275 0.5076 0.5904
vn -0.0651 -0.6936 -0.7174
vn -0.6967 0.0817 -0.7127
vn 0.0785 0.7132 -0.6966
vn 0.7101 -0.0621 -0.7014
vn 0.6316 -0.7752 -0.0048
vn 0.7752 0.6315 0.0161
vn 0.6967 -0.0817 0.7127
vn -0.0785 -0.7132 0.6966
vn 0.0651 0.6936 0.7174
vn -0.7101 0.0621 0.7014
vn -0.7752 -0.6315 -0.0161
vn -0.6316 0.7752 0.0048
vn -0.1015 -0.9947 -0.0147
vn 0.0094 0.0139 -0.9999
vn -0.9948 0.1016 -0.0080
vn 0.1015 0.9947 0.0147
vn 0.9948 -0.1016 0.0080
vn -0.0094 -0.0139 0.9999
vn -0.0009 -0.9398 -0.3417
vn -0.0069 -0.5003 -0.8658
vn -0.0096 0.1733 -0.9848
vn -0.0079 0.7658 -0.6430
vn -0.0024 1.0000 -0.0003
vn 0.0042 0.7662 0.6425
vn 0.0088 0.1740 0.9847
vn -1.0000 -0.0024 0.0094
vn 0.0093 -0.4997 0.8661
vn 0.0055 -0.9396 0.3423
vn 1.0000 0.0024 -0.0094
vn 0.0091 -0.8992 -0.4374
vn -0.0165 -0.2189 -0.9756
vn -0.0319 0.6261 -0.7791
vn -0.0254 0.9997 0.0042
vn -0.0020 0.6204 0.7843
vn -0.9996 -0.0226 0.0190
vn 0.0208 -0.2261 0.9739
vn 0.0257 -0.9024 0.4302
vn 0.9996 0.0226 -0.0190
vn 0.5893 -0.5592 -0.5831
vn 0.5725 0.5953 -0.5638
vn 0.5821 -0.5785 0.5714
vn 0.5652 0.5759 0.5907
vn -0.5652 -0.5759 -0.5907
vn -0.5821 0.5785 -0.5714
vn -0.5725 -0.5953 0.5638
vn -0.5893 0.5591 0.5831
vn 0.7173 -0.6967 -0.0072
vn 0.7115 0.0221 -0.7024
vn 0.6967 0.7172 0.0164
vn 0.7026 -0.0016 0.7116
vn 0.0059 -0.7188 0.6952
vn -0.0148 0.6951 0.7188
vn -0.7115 -0.0221 0.7024
vn -0.6967 -0.7172 -0.0164
vn -0.7173 0.6967 0.0072
vn -0.7026 0.0016 -0.7116
vn 0.0148 -0.6951 -0.7188
vn -0.0059 0.7188 -0.6952
vn 0.0146 -0.9998 -0.0167
vn 0.9999 0.0145 0.0065
vn 0.0063 0.0168 -0.9998
vn -0.0146 0.9998 0.0167
vn -0.0063 -0.0168 0.9998
vn -0.9999 -0.0145 -0.0065
vn -0.3370 -0.1714 0.9258
vn -0.8532 -0.1714 0.4926
vn -0.9702 -0.1714 -0.1711
vn -0.6333 -0.1714 -0.7547
vn -0.0000 -0.1714 -0.9852
vn 0.6333 -0.1714 -0.7547
vn 0.9702 -0.1714 -0.1711
vn 0.8532 -0.1714 0.4926
vn 0.3370 -0.1714 0.9258
vn 0.3370 0.1714 -0.9258
vn 0.8532 0.1714 -0.4926
vn 0.9702 0.1714 0.1711
vn 0.6333 0.1714 0.7547
vn -0.0000 0.1714 0.9852
vn -0.6333 0.1714 0.7547
vn -0.9702 0.1714 0.1711
vn -0.8532 0.1714 -0.4926
vn -0.3370 0.1714 -0.9258
vn 0.0661 -0.9811 -0.1817
vn -0.0661 0.9811 0.1817
vn 0.1674 -0.9811 -0.0967
vn -0.1674 0.9811 0.0967
vn 0.1904 -0.9811 0.0336
vn -0.1904 0.9811 -0.0336
vn 0.1243 -0.9811 0.1481
vn -0.1243 0.9811 -0.1481
vn -0.0000 -0.9811 0.1934
vn -0.0000 0.9811 -0.1934
vn -0.1243 -0.9811 0.1481
vn 0.1243 0.9811 -0.1481
vn -0.1904 -0.9811 0.0336
vn 0.1904 0.9811 -0.0336
vn -0.1674 -0.9811 -0.0967
vn 0.1675 0.9811 0.0967
vn -0.0661 -0.9811 -0.1817
vn 0.0661 0.9811 0.1817
vn -0.3420 -0.0000 0.9397
vn -0.8660 -0.0000 0.5000
vn -0.9848 -0.0000 -0.1736
vn -0.6428 -0.0000 -0.7660
vn -0.0000 -0.0000 -1.0000
vn 0.6428 -0.0000 -0.7660
vn 0.9848 -0.0000 -0.1736
vn 0.8660 -0.0000 0.5000
vn 0.3420 -0.0000 0.9397
vn 0.3420 -0.0000 -0.9397
vn 0.8660 -0.0000 -0.5000
vn 0.9848 -0.0000 0.1736
vn 0.6428 -0.0000 0.7660
vn -0.0000 -0.0000 1.0000
vn -0.6428 -0.0000 0.7660
vn -0.9848 -0.0000 0.1736
vn -0.8660 -0.0000 -0.5000
vn -0.3420 -0.0000 -0.9397
vn -0.0000 -1.0000 -0.0000
vn -0.0000 1.0000 -0.0000
vn 0.2108 0.7905 0.5751
vn 0.7921 -0.2073 0.5741
vn 0.2056 0.7885 -0.5796
vn 0.7869 -0.2092 -0.5806
vn -0.7869 0.2093 0.5806
vn -0.2057 -0.7885 0.5796
vn -0.7921 0.2073 -0.5741
vn -0.2109 -0.7905 -0.5751
vn 0.2551 0.9669 -0.0028
vn 0.6142 0.3571 0.7037
vn 0.9669 -0.2551 -0.0039
vn 0.6078 0.3547 -0.7105
vn -0.3591 0.6098 -0.7065
vn 0.3527 -0.6122 -0.7077
vn -0.6142 -0.3571 -0.7037
vn -0.9669 0.2551 0.0039
vn -0.2551 -0.9669 0.0028
vn -0.6078 -0.3547 0.7105
vn -0.3527 0.6122 0.7077
vn 0.3591 -0.6098 0.7065
vn -0.5034 0.8641 0.0008
vn 0.8641 0.5034 -0.0048
vn 0.0045 0.0017 1.0000
vn 0.5034 -0.8641 -0.0008
vn -0.0045 -0.0017 -1.0000
vn -0.8641 -0.5034 0.0048
vn 0.7964 0.2104 0.5670
vn 0.2129 -0.7859 0.5805
vn 0.7834 0.2023 -0.5876
vn 0.1999 -0.7940 -0.5741
vn -0.1999 0.7940 0.5741
vn -0.7834 -0.2023 0.5876
vn -0.2129 0.7859 -0.5805
vn -0.7964 -0.2104 -0.5670
vn 0.9674 0.2528 -0.0126
vn 0.6181 -0.3524 0.7027
vn 0.2528 -0.9675 0.0039
vn 0.6022 -0.3623 -0.7114
vn 0.3494 0.6052 -0.7153
vn -0.3653 -0.6151 -0.6988
vn -0.6181 0.3524 -0.7027
vn -0.2528 0.9675 -0.0039
vn -0.9674 -0.2528 0.0126
vn -0.6022 0.3623 0.7114
vn 0.3653 0.6151 0.6988
vn -0.3494 -0.6052 0.7153
vn 0.5053 0.8629 -0.0117
vn 0.8629 -0.5054 -0.0062
vn 0.0112 0.0070 0.9999
vn -0.5053 -0.8629 0.0117
vn -0.0112 -0.0070 -0.9999
vn -0.8629 0.5054 0.0062
vn 0.2085 0.7917 0.5742
vn 0.7847 -0.2089 0.5837
vn 0.2160 0.7852 -0.5804
vn 0.7922 -0.2155 -0.5710
vn -0.7922 0.2155 0.5710
vn -0.2160 -0.7852 0.5804
vn -0.7847 0.2089 -0.5837
vn -0.2085 -0.7917 -0.5742
vn 0.2599 0.9656 -0.0038
vn 0.6082 0.3569 0.7091
vn 0.9656 -0.2599 0.0078
vn 0.6174 0.3489 -0.7051
vn -0.3482 0.6087 -0.7129
vn 0.3574 -0.6168 -0.7013
vn -0.6082 -0.3569 -0.7091
vn -0.9656 0.2599 -0.0078
vn -0.2599 -0.9656 0.0038
vn -0.6174 -0.3489 0.7051
vn -0.3574 0.6168 0.7013
vn 0.3482 -0.6088 0.7128
vn -0.4990 0.8666 -0.0081
vn 0.8666 0.4990 0.0028
vn -0.0065 0.0057 1.0000
vn 0.4990 -0.8666 0.0081
vn 0.0065 -0.0057 -1.0000
vn -0.8666 -0.4990 -0.0028
vn 0.7924 0.2090 0.5731
vn 0.2138 -0.7903 0.5742
vn 0.7855 0.2117 -0.5816
vn 0.2069 -0.7876 -0.5804
vn -0.2069 0.7876 0.5804
vn -0.7855 -0.2117 0.5816
vn -0.2138 0.7903 -0.5743
vn -0.7924 -0.2090 -0.5731
vn 0.9662 0.2577 -0.0052
vn 0.6162 -0.3559 0.7026
vn 0.2576 -0.9662 -0.0038
vn 0.6077 -0.3526 -0.7116
vn 0.3501 0.6136 -0.7078
vn -0.3585 -0.6103 -0.7064
vn -0.6162 0.3559 -0.7026
vn -0.2576 0.9662 0.0038
vn -0.9662 -0.2576 0.0052
vn -0.6077 0.3526 0.7116
vn 0.3585 0.6103 0.7064
vn -0.3501 -0.6136 0.7078
vn 0.5010 0.8654 -0.0010
vn 0.8654 -0.5010 -0.0063
vn 0.0060 -0.0023 1.0000
vn -0.5010 -0.8654 0.0010
vn -0.0060 0.0023 -1.0000
vn -0.8654 0.5010 0.0063
vn -0.0000 0.9811 -0.1933
vn -0.1675 -0.9811 -0.0967
vn 0.1674 0.9811 0.0967
vn 0.2131 0.7887 0.5767
vn 0.7923 -0.2102 0.5728
vn 0.2066 0.7895 -0.5780
vn 0.7859 -0.2094 -0.5819
vn -0.7859 0.2094 0.5819
vn -0.2066 -0.7895 0.5780
vn -0.7923 0.2102 -0.5728
vn -0.2130 -0.7887 -0.5767
vn 0.2570 0.9664 -0.0008
vn 0.6156 0.3543 0.7039
vn 0.9664 -0.2570 -0.0055
vn 0.6078 0.3552 -0.7103
vn -0.3586 0.6122 -0.7047
vn 0.3508 -0.6112 -0.7095
vn -0.6156 -0.3543 -0.7039
vn -0.9664 0.2570 0.0055
vn -0.2570 -0.9664 0.0008
vn -0.6078 -0.3552 0.7103
vn -0.3508 0.6112 0.7095
vn 0.3586 -0.6122 0.7047
vn -0.5016 0.8651 0.0034
vn 0.8651 0.5016 -0.0045
vn 0.0056 -0.0007 1.0000
vn 0.5016 -0.8651 -0.0034
vn -0.0056 0.0007 -1.0000
vn -0.8651 -0.5016 0.0045
vn 0.7884 0.2066 0.5795
vn 0.2083 -0.7918 0.5741
vn 0.7901 0.2118 -0.5752
vn 0.2101 -0.7866 -0.5806
vn -0.2101 0.7866 0.5806
vn -0.7901 -0.2118 0.5752
vn -0.2083 0.7918 -0.5741
vn -0.7884 -0.2066 -0.5795
vn 0.9666 0.2562 0.0026
vn 0.6104 -0.3584 0.7064
vn 0.2562 -0.9666 -0.0040
vn 0.6125 -0.3520 -0.7078
vn 0.3563 0.6146 -0.7038
vn -0.3541 -0.6082 -0.7104
vn -0.6104 0.3584 -0.7064
vn -0.2562 0.9666 0.0040
vn -0.9666 -0.2562 -0.0026
vn -0.6125 0.3520 0.7078
vn 0.3541 0.6082 0.7104
vn -0.3563 -0.6146 0.7038
vn 0.5023 0.8647 0.0047
vn 0.8647 -0.5023 -0.0010
vn -0.0015 -0.0045 1.0000
vn -0.5023 -0.8647 -0.0047
vn 0.0015 0.0045 -1.0000
vn -0.8647 0.5023 0.0010
vn -0.6316 0.7753 0.0048
vn -0.0078 0.7658 -0.6430
vn -1.0000 -0.0024 0.0093
vn -0.9996 -0.0226 0.0191
vn -0.3528 0.6122 0.7077
vn 0.8641 0.5034 -0.0047
vn -0.8641 -0.5034 0.0047
vn 0.3493 0.6052 -0.7153
vn 0.5053 0.8628 -0.0117
vn -0.9656 0.2599 -0.0077
vn 0.4990 -0.8666 0.0082
vn 0.2577 -0.9662 -0.0038
vn 0.5011 0.8654 -0.0010
vn -0.5011 -0.8654 0.0010
vn -0.6156 -0.3542 -0.7039
vn -0.3542 -0.6082 -0.7104
vt 0.142188 0.713333
vt 0.142188 0.750000
vt 0.125000 0.713333
vt 0.620125 0.000000
vt 0.625000 0.036667
vt 0.620125 0.036667
vt 0.142188 0.536667
vt 0.125000 0.536667
vt 0.142188 0.500000
vt 0.625000 0.250918
vt 0.620125 0.267166
vt 0.620125 0.213333
vt 0.357812 0.713333
vt 0.379861 0.713333
vt 0.379294 0.766735
vt 0.638463 0.725004
vt 0.620125 0.767187
vt 0.620125 0.713434
vt 0.357812 0.536667
vt 0.379294 0.483265
vt 0.379861 0.536667
vt 0.638463 0.524996
vt 0.620125 0.536566
vt 0.620125 0.482812
vt 0.379875 0.036667
vt 0.379875 0.000000
vt 0.379875 0.213333
vt 0.625000 0.982812
vt 0.379875 0.982812
vt 0.857812 0.536667
vt 0.379875 0.267187
vt 1.000000 1.000000
vt 0.888889 0.500000
vt 1.000000 0.500000
vt 0.888889 1.000000
vt 0.777778 0.500000
vt 0.666667 1.000000
vt 0.666667 0.500000
vt 0.555556 0.500000
vt 0.444444 1.000000
vt 0.444444 0.500000
vt 0.333333 0.500000
vt 0.333333 1.000000
vt 0.222222 0.500000
vt 0.250000 0.490000
vt 0.167915 0.024474
vt 0.457846 0.130000
vt 0.222222 1.000000
vt 0.111111 0.500000
vt 0.111111 1.000000
vt 0.000000 0.500000
vt 0.904269 0.433851
vt 0.667915 0.024474
vt 0.513646 0.291676
vt 0.620104 0.000000
vt 0.620104 0.036667
vt 0.142188 0.536667
vt 0.620104 0.267166
vt 0.620104 0.213333
vt 0.379882 0.713333
vt 0.379312 0.766733
vt 0.620104 0.767187
vt 0.620104 0.713435
vt 0.379312 0.483267
vt 0.379882 0.536667
vt 0.620104 0.536565
vt 0.620104 0.482812
vt 0.379896 0.036667
vt 0.379896 0.000000
vt 0.379896 0.267187
vt 0.379896 0.213333
vt 0.379896 0.982812
vt 0.777778 1.000000
vt 0.000000 1.000000
vt 0.857143 1.000000
vt 0.857143 0.500000
vt 0.714286 0.500000
vt 0.714286 1.000000
vt 0.571429 0.500000
vt 0.428571 1.000000
vt 0.428571 0.500000
vt 0.285714 0.500000
vt 0.016017 0.196595
vt 0.354132 0.033767
vt 0.285714 1.000000
vt 0.142857 0.500000
vt 0.142857 1.000000
vt 0.000000 0.500000
vt 0.937640 0.399638
vt 0.854132 0.033767
vt 0.516017 0.196595
vt 0.128920 0.695000
vt 0.128920 0.750000
vt 0.125000 0.695000
vt 0.570000 0.000000
vt 0.625000 0.055000
vt 0.570000 0.055000
vt 0.128920 0.555000
vt 0.125000 0.555000
vt 0.128920 0.500000
vt 0.625000 0.251055
vt 0.570000 0.253906
vt 0.570000 0.195000
vt 0.371080 0.695000
vt 0.426725 0.695000
vt 0.409129 0.752531
vt 0.627531 0.715871
vt 0.570000 0.753920
vt 0.570000 0.698275
vt 0.371080 0.555000
vt 0.409129 0.497469
vt 0.426725 0.555000
vt 0.627531 0.534129
vt 0.570000 0.551725
vt 0.570000 0.496080
vt 0.430000 0.055000
vt 0.430000 0.000000
vt 0.430000 0.253920
vt 0.625000 0.996080
vt 0.430000 0.195000
vt 0.430000 0.996080
vt 0.871080 0.695000
vt 0.555556 1.000000
vt 0.185000 0.690000
vt 0.185000 0.750000
vt 0.125000 0.690000
vt 0.620202 0.940000
vt 0.625000 0.940000
vt 0.620202 1.000000
vt 0.185000 0.560000
vt 0.125000 0.560000
vt 0.185000 0.500000
vt 0.625000 0.257429
vt 0.620202 0.310000
vt 0.620202 0.190283
vt 0.315000 0.690000
vt 0.379776 0.690000
vt 0.378409 0.808714
vt 0.664826 0.730348
vt 0.620202 0.810000
vt 0.620202 0.690283
vt 0.315000 0.560000
vt 0.378409 0.441286
vt 0.379776 0.560000
vt 0.664826 0.528543
vt 0.620202 0.560000
vt 0.620202 0.440283
vt 0.620202 0.000000
vt 0.379798 0.060000
vt 0.379798 0.000000
vt 0.620202 0.060000
vt 0.625000 0.060000
vt 0.379798 0.190000
vt 0.379798 0.940000
vt 0.815000 0.560000
vt 0.379798 0.310000
vt 0.185000 0.690000
vt 0.620202 0.940000
vt 0.620202 1.000000
vt 0.185000 0.560000
vt 0.620202 0.310000
vt 0.620202 0.190283
vt 0.379775 0.690000
vt 0.378409 0.808714
vt 0.620202 0.810000
vt 0.620202 0.690283
vt 0.378409 0.441286
vt 0.379775 0.560000
vt 0.620202 0.560000
vt 0.620202 0.440283
vt 0.620202 0.000000
vt 0.379798 0.060000
vt 0.379798 0.000000
vt 0.620202 0.060000
vt 0.379798 0.190000
vt 0.379798 0.940000
vt 0.815000 0.690000
vt 0.379798 0.310000
vt 0.185000 0.690000
vt 0.185000 0.750000
vt 0.125000 0.690000
vt 0.620299 0.940000
vt 0.620299 1.000000
vt 0.185000 0.560000
vt 0.185000 0.500000
vt 0.625000 0.257429
vt 0.620299 0.310000
vt 0.620299 0.190278
vt 0.315000 0.690000
vt 0.379679 0.690000
vt 0.378343 0.808740
vt 0.664826 0.730348
vt 0.620299 0.810000
vt 0.620299 0.690278
vt 0.315000 0.560000
vt 0.378343 0.441260
vt 0.379679 0.560000
vt 0.664826 0.528543
vt 0.620299 0.560000
vt 0.620299 0.440278
vt 0.620299 0.000000
vt 0.379701 0.060000
vt 0.379701 0.000000
vt 0.625000 0.060000
vt 0.620299 0.060000
vt 0.379701 0.190000
vt 0.379701 0.940000
vt 0.815000 0.560000
vt 0.379701 0.310000
vt 0.185000 0.690000
vt 0.620200 0.940000
vt 0.620200 1.000000
vt 0.620200 0.310000
vt 0.620200 0.190284
vt 0.379777 0.690000
vt 0.378410 0.808713
vt 0.620200 0.810000
vt 0.620200 0.690283
vt 0.378410 0.441287
vt 0.379777 0.560000
vt 0.620200 0.560000
vt 0.620200 0.440284
vt 0.379800 0.000000
vt 0.620200 0.060000
vt 0.379800 0.060000
vt 0.379800 0.310000
vt 0.379800 0.190000
vt 0.379800 0.940000
vt 0.125000 0.690000
vt 0.620239 0.940000
vt 0.625000 0.940000
vt 0.620239 1.000000
vt 0.185000 0.560000
vt 0.125000 0.560000
vt 0.625000 0.257429
vt 0.620239 0.310000
vt 0.620239 0.190281
vt 0.315000 0.690000
vt 0.379738 0.690000
vt 0.378384 0.808724
vt 0.664826 0.730348
vt 0.620239 0.810000
vt 0.620239 0.690281
vt 0.315000 0.560000
vt 0.378384 0.441276
vt 0.379738 0.560000
vt 0.664826 0.528543
vt 0.620239 0.560000
vt 0.620239 0.440281
vt 0.379761 0.000000
vt 0.620239 0.060000
vt 0.379761 0.060000
vt 0.379761 0.190000
vt 0.379761 0.940000
vt 0.815000 0.690000
vt 0.379761 0.310000
vt 0.620206 0.940000
vt 0.620206 1.000000
vt 0.620206 0.310000
vt 0.620206 0.190283
vt 0.379771 0.690000
vt 0.378406 0.808715
vt 0.620206 0.810000
vt 0.620206 0.690283
vt 0.378406 0.441285
vt 0.379771 0.560000
vt 0.620206 0.560000
vt 0.620206 0.440283
vt 0.620206 0.000000
vt 0.379794 0.060000
vt 0.379794 0.000000
vt 0.620206 0.060000
vt 0.379794 0.310000
vt 0.379794 0.190000
vt 0.379794 0.940000
vt 0.620125 0.982813
vt 0.857812 0.713333
vt 0.486354 0.291676
vt 0.404269 0.433851
vt 0.095731 0.433851
vt 0.013646 0.291676
vt 0.042154 0.130000
vt 0.332085 0.024474
vt 0.595731 0.433851
vt 0.750000 0.490000
vt 0.986354 0.291676
vt 0.957846 0.130000
vt 0.832085 0.024474
vt 0.542154 0.130000
vt 0.620104 0.982812
vt 0.571429 1.000000
vt 0.483983 0.196595
vt 0.437640 0.399638
vt 0.062360 0.399638
vt 0.145868 0.033767
vt 0.000000 1.000000
vt 0.562360 0.399638
vt 0.983983 0.196595
vt 0.645868 0.033767
vt 0.570000 0.996080
vt 0.871080 0.555000
vt 0.620200 0.000000
vt 0.620239 0.000000
s 0
usemtl wood
f 1/1/1 2/2/1 3/3/1
f 4/4/2 5/5/2 6/6/2
f 7/7/3 8/8/3 9/9/3
f 10/10/4 11/11/4 12/12/4
f 13/13/5 14/14/5 15/15/5
f 16/16/6 17/17/6 18/18/6
f 19/19/7 20/20/7 21/21/7
f 22/22/8 23/23/8 24/24/8
f 1/1/9 8/8/9 7/7/9
f 4/4/10 3/25/10 2/26/10
f 10/10/11 6/6/11 5/5/11
f 11/11/12 8/27/12 12/12/12
f 7/7/13 20/20/13 19/19/13
f 22/22/14 11/11/14 10/10/14
f 21/21/15 24/24/15 23/23/15
f 13/13/16 21/21/16 14/14/16
f 22/22/17 18/18/17 23/23/17
f 15/15/18 18/18/18 17/17/18
f 13/13/19 2/2/19 1/1/19
f 5/28/20 17/17/20 16/16/20
f 19/19/21 1/1/21 7/7/21
f 3/25/22 12/12/22 8/27/22
f 17/17/23 2/29/23 15/15/23
f 10/30/24 16/16/24 22/22/24
f 11/11/25 20/20/25 9/31/25
f 23/23/26 14/14/26 21/21/26
f 43/1/38 44/2/38 45/3/38
f 46/55/39 47/5/39 48/56/39
f 49/57/40 50/8/40 51/9/40
f 52/10/41 53/58/41 54/59/41
f 55/13/42 56/60/42 57/61/42
f 58/16/43 59/62/43 60/63/43
f 61/19/44 62/64/44 63/65/44
f 64/22/45 65/66/45 66/67/45
f 43/1/46 50/8/46 49/57/46
f 46/55/47 45/68/47 44/69/47
f 47/5/48 54/59/48 48/56/48
f 51/70/49 54/59/49 53/58/49
f 49/57/50 62/64/50 61/19/50
f 64/22/51 53/58/51 52/10/51
f 65/66/52 62/64/52 66/67/52
f 55/13/53 63/65/53 56/60/53
f 64/22/54 60/63/54 65/66/54
f 59/62/55 56/60/55 60/63/55
f 55/13/56 44/2/56 43/1/56
f 47/28/57 59/62/57 58/16/57
f 61/19/58 43/1/58 49/57/58
f 45/68/59 54/59/59 50/71/59
f 59/62/60 44/72/60 57/61/60
f 52/30/61 58/16/61 64/22/61
f 53/58/62 62/64/62 51/70/62
f 65/66/63 56/60/63 63/65/63
f 85/34/75 88/75/75 87/76/75
f 88/75/76 89/77/76 87/76/76
f 90/78/77 91/79/77 89/77/77
f 91/79/78 94/80/78 93/81/78
f 94/80/79 95/82/79 93/81/79
f 86/45/80 96/83/80 92/84/80
f 96/85/81 97/86/81 95/82/81
f 98/87/82 85/88/82 97/86/82
f 87/89/83 91/90/83 95/91/83
f 99/92/84 100/93/84 101/94/84
f 102/95/85 103/96/85 104/97/85
f 105/98/86 106/99/86 107/100/86
f 108/101/87 109/102/87 110/103/87
f 111/104/88 112/105/88 113/106/88
f 114/107/89 115/108/89 116/109/89
f 117/110/90 118/111/90 119/112/90
f 120/113/91 121/114/91 122/115/91
f 105/98/92 101/94/92 106/99/92
f 102/95/93 101/116/93 100/117/93
f 108/101/94 104/97/94 103/96/94
f 107/118/95 110/103/95 109/102/95
f 117/110/96 107/100/96 118/111/96
f 120/113/97 109/102/97 108/101/97
f 121/114/98 118/111/98 122/115/98
f 117/110/99 112/105/99 111/104/99
f 114/107/100 121/114/100 120/113/100
f 115/108/101 112/105/101 116/109/101
f 99/92/102 113/106/102 100/93/102
f 103/119/103 115/108/103 114/107/103
f 117/110/104 99/92/104 105/98/104
f 101/116/105 110/103/105 106/120/105
f 115/108/106 100/121/106 113/106/106
f 120/113/107 103/122/107 114/107/107
f 107/118/108 122/115/108 118/111/108
f 121/114/109 112/105/109 119/112/109
f 1/1/9 3/3/9 8/8/9
f 4/4/10 6/6/10 3/25/10
f 10/10/11 12/12/11 6/6/11
f 11/11/12 9/31/12 8/27/12
f 7/7/13 9/9/13 20/20/13
f 22/22/14 24/24/14 11/11/14
f 21/21/15 20/20/15 24/24/15
f 13/13/16 19/19/16 21/21/16
f 22/22/17 16/16/17 18/18/17
f 15/15/18 14/14/18 18/18/18
f 13/13/19 15/15/19 2/2/19
f 5/28/20 4/276/20 17/17/20
f 19/19/21 13/13/21 1/1/21
f 3/25/22 6/6/22 12/12/22
f 17/17/23 4/276/23 2/29/23
f 10/30/24 5/277/24 16/16/24
f 11/11/25 24/24/25 20/20/25
f 23/23/26 18/18/26 14/14/26
f 43/1/46 45/3/46 50/8/46
f 46/55/47 48/56/47 45/68/47
f 47/5/48 52/10/48 54/59/48
f 51/70/49 50/71/49 54/59/49
f 49/57/50 51/9/50 62/64/50
f 64/22/51 66/67/51 53/58/51
f 65/66/52 63/65/52 62/64/52
f 55/13/53 61/19/53 63/65/53
f 64/22/54 58/16/54 60/63/54
f 59/62/55 57/61/55 56/60/55
f 55/13/56 57/61/56 44/2/56
f 47/28/325 46/290/325 59/62/325
f 61/19/58 55/13/58 43/1/58
f 45/68/59 48/56/59 54/59/59
f 59/62/60 46/290/60 44/72/60
f 52/30/61 47/277/61 58/16/61
f 53/58/62 66/67/62 62/64/62
f 65/66/63 60/63/63 56/60/63
f 85/34/75 86/32/75 88/75/75
f 88/75/76 90/78/76 89/77/76
f 90/78/77 92/291/77 91/79/77
f 91/79/78 92/291/78 94/80/78
f 94/80/79 96/85/79 95/82/79
f 90/292/80 88/293/80 86/45/80
f 86/45/328 98/294/328 96/83/328
f 96/83/80 94/295/80 92/84/80
f 92/84/328 90/292/328 86/45/328
f 96/85/81 98/87/81 97/86/81
f 98/87/82 86/296/82 85/88/82
f 97/297/83 85/285/83 87/89/83
f 87/89/83 89/298/83 91/90/83
f 91/90/83 93/299/83 95/91/83
f 95/91/83 97/297/83 87/89/83
f 105/98/92 99/92/92 101/94/92
f 102/95/93 104/97/93 101/116/93
f 108/101/94 110/103/94 104/97/94
f 107/118/95 106/120/95 110/103/95
f 117/110/96 105/98/96 107/100/96
f 120/113/97 122/115/97 109/102/97
f 121/114/98 119/112/98 118/111/98
f 117/110/99 119/112/99 112/105/99
f 114/107/100 116/109/100 121/114/100
f 115/108/101 113/106/101 112/105/101
f 99/92/102 111/104/102 113/106/102
f 103/119/103 102/300/103 115/108/103
f 117/110/104 111/104/104 99/92/104
f 101/116/105 104/97/105 110/103/105
f 115/108/106 102/300/106 100/121/106
f 120/113/107 108/301/107 103/122/107
f 107/118/108 109/102/108 122/115/108
f 121/114/109 116/109/109 112/105/109
usemtl rope
f 26/32/27 27/33/27 25/34/27
f 28/35/28 29/36/28 27/33/28
f 29/36/29 32/37/29 31/38/29
f 32/37/30 33/39/30 31/38/30
f 33/39/31 36/40/31 35/41/31
f 36/40/32 37/42/32 35/41/32
f 38/43/33 39/44/33 37/42/33
f 26/45/34 36/46/34 32/47/34
f 40/48/35 41/49/35 39/44/35
f 42/50/36 25/51/36 41/49/36
f 27/52/37 35/53/37 39/54/37
f 68/32/64 69/33/64 67/34/64
f 69/33/65 72/73/65 71/36/65
f 71/36/66 74/37/66 73/38/66
f 74/37/67 75/39/67 73/38/67
f 75/39/68 78/40/68 77/41/68
f 78/40/69 79/42/69 77/41/69
f 80/43/70 81/44/70 79/42/70
f 68/45/71 78/46/71 74/47/71
f 82/48/72 83/49/72 81/44/72
f 83/49/73 68/74/73 67/51/73
f 69/52/74 77/53/74 81/54/74
f 159/34/146 162/35/146 161/33/146
f 161/33/147 164/73/147 163/36/147
f 164/73/148 165/38/148 163/36/148
f 165/38/149 168/123/149 167/39/149
f 167/39/150 170/40/150 169/41/150
f 170/40/151 171/42/151 169/41/151
f 172/43/152 173/44/152 171/42/152
f 173/44/153 176/50/153 175/49/153
f 175/49/154 160/74/154 159/51/154
f 179/33/155 178/32/155 177/34/155
f 181/36/156 180/35/156 179/33/156
f 183/38/157 182/73/157 181/36/157
f 183/38/158 186/123/158 184/37/158
f 187/41/159 186/123/159 185/39/159
f 189/42/160 188/40/160 187/41/160
f 191/44/161 190/43/161 189/42/161
f 193/49/162 192/48/162 191/44/162
f 177/51/163 194/50/163 193/49/163
f 159/34/164 179/33/164 177/34/164
f 160/32/165 180/35/165 162/35/165
f 163/36/164 179/33/164 161/33/164
f 164/73/165 180/35/165 182/73/165
f 165/38/164 181/36/164 163/36/164
f 166/37/165 182/73/165 184/37/165
f 167/39/164 183/38/164 165/38/164
f 168/123/165 184/37/165 186/123/165
f 169/41/164 185/39/164 167/39/164
f 168/123/165 188/40/165 170/40/165
f 169/41/164 189/42/164 187/41/164
f 170/40/165 190/43/165 172/43/165
f 173/44/164 189/42/164 171/42/164
f 172/43/165 192/48/165 174/48/165
f 173/44/164 193/49/164 191/44/164
f 174/48/165 194/50/165 176/50/165
f 175/49/164 177/51/164 193/49/164
f 176/50/165 178/74/165 160/74/165
f 195/124/166 196/125/166 197/126/166
f 198/127/167 199/128/167 200/129/167
f 201/130/168 202/131/168 203/132/168
f 204/133/169 205/134/169 206/135/169
f 207/136/170 208/137/170 209/138/170
f 210/139/171 211/140/171 212/141/171
f 213/142/172 214/143/172 215/144/172
f 216/145/173 217/146/173 218/147/173
f 195/124/174 202/131/174 201/130/174
f 198/148/175 197/149/175 196/150/175
f 204/133/176 200/151/176 199/152/176
f 205/134/177 202/153/177 206/135/177
f 213/142/178 203/132/178 214/143/178
f 204/133/179 218/147/179 205/134/179
f 215/144/180 218/147/180 217/146/180
f 207/136/181 215/144/181 208/137/181
f 210/139/182 217/146/182 216/145/182
f 209/138/183 212/141/183 211/140/183
f 207/136/184 196/125/184 195/124/184
f 199/128/185 211/140/185 210/139/185
f 213/142/186 195/124/186 201/130/186
f 197/149/187 206/135/187 202/153/187
f 209/138/188 198/127/188 196/154/188
f 204/155/189 210/139/189 216/145/189
f 205/134/190 214/143/190 203/156/190
f 217/146/191 208/137/191 215/144/191
f 219/157/192 220/125/192 221/126/192
f 222/158/193 223/128/193 224/159/193
f 225/160/194 226/131/194 227/132/194
f 228/133/195 229/161/195 230/162/195
f 231/136/196 232/163/196 233/164/196
f 234/139/197 235/165/197 236/166/197
f 237/142/198 238/167/198 239/168/198
f 240/145/199 241/169/199 242/170/199
f 225/160/200 221/126/200 226/131/200
f 222/171/201 221/172/201 220/173/201
f 228/133/202 224/174/202 223/152/202
f 229/161/203 226/175/203 230/162/203
f 237/142/204 227/132/204 238/167/204
f 228/133/205 242/170/205 229/161/205
f 239/168/206 242/170/206 241/169/206
f 231/136/207 239/168/207 232/163/207
f 234/139/208 241/169/208 240/145/208
f 235/165/209 232/163/209 236/166/209
f 231/136/210 220/125/210 219/157/210
f 223/128/211 235/165/211 234/139/211
f 237/142/212 219/157/212 225/160/212
f 224/174/213 226/175/213 221/172/213
f 233/164/214 222/158/214 220/176/214
f 240/145/215 223/177/215 234/139/215
f 227/178/216 242/170/216 238/167/216
f 239/168/217 236/166/217 232/163/217
f 279/34/146 282/35/146 281/33/146
f 282/35/147 283/36/147 281/33/147
f 283/36/148 286/37/148 285/38/148
f 286/37/149 287/39/149 285/38/149
f 288/123/150 289/41/150 287/39/150
f 290/40/151 291/42/151 289/41/151
f 292/43/152 293/44/152 291/42/152
f 293/44/153 296/50/153 295/49/153
f 296/50/154 279/51/154 295/49/154
f 299/33/155 298/32/155 297/34/155
f 301/36/156 300/35/156 299/33/156
f 303/38/157 302/73/157 301/36/157
f 305/39/158 304/37/158 303/38/158
f 307/41/159 306/123/159 305/39/159
f 309/42/160 308/40/160 307/41/160
f 311/44/161 310/43/161 309/42/161
f 313/49/162 312/48/162 311/44/162
f 297/51/163 314/50/163 313/49/163
f 279/34/164 299/33/164 297/34/164
f 282/35/165 298/32/165 300/35/165
f 283/36/164 299/33/164 281/33/164
f 284/73/165 300/35/165 302/73/165
f 285/38/164 301/36/164 283/36/164
f 286/37/165 302/73/165 304/37/165
f 287/39/164 303/38/164 285/38/164
f 288/123/165 304/37/165 306/123/165
f 289/41/164 305/39/164 287/39/164
f 288/123/165 308/40/165 290/40/165
f 291/42/164 307/41/164 289/41/164
f 290/40/165 310/43/165 292/43/165
f 293/44/164 309/42/164 291/42/164
f 292/43/165 312/48/165 294/48/165
f 293/44/164 313/49/164 311/44/164
f 294/48/165 314/50/165 296/50/165
f 279/51/164 313/49/164 295/49/164
f 296/50/165 298/74/165 280/74/165
f 315/179/218 316/180/218 317/181/218
f 318/182/219 319/128/219 320/183/219
f 321/184/220 322/131/220 323/185/220
f 324/186/221 325/187/221 326/188/221
f 327/189/222 328/190/222 329/191/222
f 330/192/223 331/193/223 332/194/223
f 333/195/224 334/196/224 335/197/224
f 336/198/225 337/199/225 338/200/225
f 315/179/226 322/131/226 321/184/226
f 318/201/227 317/202/227 316/203/227
f 319/204/228 326/188/228 320/205/228
f 325/187/229 322/206/229 326/188/229
f 321/184/230 334/196/230 333/195/230
f 336/198/231 325/187/231 324/186/231
f 335/197/232 338/200/232 337/199/232
f 327/189/233 335/197/233 328/190/233
f 336/198/234 332/194/234 337/199/234
f 329/191/235 332/194/235 331/193/235
f 315/179/236 329/191/236 316/180/236
f 330/192/237 318/182/237 331/193/237
f 321/184/238 327/189/238 315/179/238
f 320/205/239 322/206/239 317/202/239
f 329/191/240 318/182/240 316/207/240
f 324/208/241 330/192/241 336/198/241
f 323/209/242 338/200/242 334/196/242
f 337/199/243 328/190/243 335/197/243
f 339/210/244 340/125/244 341/126/244
f 342/211/245 343/128/245 344/212/245
f 345/130/246 346/131/246 347/132/246
f 348/133/247 349/213/247 350/214/247
f 351/136/248 352/215/248 353/216/248
f 354/139/249 355/217/249 356/218/249
f 357/142/250 358/219/250 359/220/250
f 360/145/251 361/221/251 362/222/251
f 345/130/252 341/126/252 346/131/252
f 340/223/253 344/224/253 341/225/253
f 348/133/254 344/224/254 343/152/254
f 347/226/255 350/214/255 349/213/255
f 345/130/256 358/219/256 357/142/256
f 348/133/257 362/222/257 349/213/257
f 361/221/258 358/219/258 362/222/258
f 351/136/259 359/220/259 352/215/259
f 354/139/260 361/221/260 360/145/260
f 355/217/261 352/215/261 356/218/261
f 351/136/262 340/125/262 339/210/262
f 354/139/263 342/211/263 355/217/263
f 345/130/264 351/136/264 339/210/264
f 341/225/265 350/214/265 346/227/265
f 355/217/266 340/228/266 353/216/266
f 348/155/267 354/139/267 360/145/267
f 349/213/268 358/219/268 347/226/268
f 361/221/269 352/215/269 359/220/269
f 400/32/146 401/33/146 399/34/146
f 402/35/147 403/36/147 401/33/147
f 403/36/148 406/37/148 405/38/148
f 405/38/149 408/123/149 407/39/149
f 408/123/150 409/41/150 407/39/150
f 410/40/151 411/42/151 409/41/151
f 411/42/152 414/48/152 413/44/152
f 413/44/153 416/50/153 415/49/153
f 415/49/154 400/74/154 399/51/154
f 417/34/155 420/35/155 418/32/155
f 419/33/156 422/73/156 420/35/156
f 423/38/157 422/73/157 421/36/157
f 425/39/158 424/37/158 423/38/158
f 425/39/159 428/40/159 426/123/159
f 427/41/160 430/43/160 428/40/160
f 429/42/161 432/48/161 430/43/161
f 433/49/162 432/48/162 431/44/162
f 417/51/163 434/50/163 433/49/163
f 399/34/164 419/33/164 417/34/164
f 400/32/165 420/35/165 402/35/165
f 403/36/164 419/33/164 401/33/164
f 402/35/165 422/73/165 404/73/165
f 403/36/164 423/38/164 421/36/164
f 406/37/165 422/73/165 424/37/165
f 407/39/164 423/38/164 405/38/164
f 408/123/165 424/37/165 426/123/165
f 409/41/164 425/39/164 407/39/164
f 408/123/165 428/40/165 410/40/165
f 411/42/164 427/41/164 409/41/164
f 410/40/165 430/43/165 412/43/165
f 413/44/164 429/42/164 411/42/164
f 412/43/165 432/48/165 414/48/165
f 413/44/164 433/49/164 431/44/164
f 414/48/165 434/50/165 416/50/165
f 415/49/164 417/51/164 433/49/164
f 416/50/165 418/74/165 400/74/165
f 435/124/273 436/125/273 437/229/273
f 438/230/274 439/231/274 440/232/274
f 441/233/275 442/234/275 443/132/275
f 444/235/276 445/236/276 446/237/276
f 447/238/277 448/239/277 449/240/277
f 450/241/278 451/242/278 452/243/278
f 453/244/279 454/245/279 455/246/279
f 456/247/280 457/248/280 458/249/280
f 441/233/281 437/229/281 442/234/281
f 436/250/282 440/251/282 437/252/282
f 444/235/283 440/251/283 439/204/283
f 445/236/284 442/253/284 446/237/284
f 453/244/285 443/132/285 454/245/285
f 456/247/286 445/236/286 444/235/286
f 457/248/287 454/245/287 458/249/287
f 453/244/288 448/239/288 447/238/288
f 456/247/289 452/243/289 457/248/289
f 451/242/290 448/239/290 452/243/290
f 447/238/291 436/125/291 435/124/291
f 450/241/292 438/230/292 451/242/292
f 441/233/293 447/238/293 435/124/293
f 440/251/294 442/253/294 437/252/294
f 451/242/295 436/254/295 449/240/295
f 456/247/296 439/255/296 450/241/296
f 445/236/297 454/245/297 443/256/297
f 457/248/298 448/239/298 455/246/298
f 459/179/299 460/180/299 461/181/299
f 462/257/300 463/128/300 464/258/300
f 465/184/301 466/131/301 467/185/301
f 468/186/302 469/259/302 470/260/302
f 471/189/303 472/261/303 473/262/303
f 474/192/304 475/263/304 476/264/304
f 477/195/305 478/265/305 479/266/305
f 480/247/306 481/267/306 482/268/306
f 459/179/307 466/131/307 465/184/307
f 462/269/308 461/270/308 460/271/308
f 468/186/309 464/272/309 463/204/309
f 467/273/310 470/260/310 469/259/310
f 477/195/311 467/185/311 478/265/311
f 480/247/312 469/259/312 468/186/312
f 479/266/313 482/268/313 481/267/313
f 477/195/314 472/261/314 471/189/314
f 474/192/315 481/267/315 480/247/315
f 473/262/316 476/264/316 475/263/316
f 459/179/317 473/262/317 460/180/317
f 463/128/318 475/263/318 474/192/318
f 477/195/319 459/179/319 465/184/319
f 464/272/320 466/274/320 461/270/320
f 473/262/321 462/257/321 460/275/321
f 480/247/322 463/255/322 474/192/322
f 469/259/323 478/265/323 467/273/323
f 481/267/324 472/261/324 479/266/324
f 26/32/27 28/35/27 27/33/27
f 28/35/28 30/73/28 29/36/28
f 29/36/29 30/73/29 32/37/29
f 32/37/30 34/123/30 33/39/30
f 33/39/31 34/123/31 36/40/31
f 36/40/32 38/43/32 37/42/32
f 38/43/33 40/48/33 39/44/33
f 30/278/34 28/279/34 26/45/34
f 26/45/34 42/280/34 40/281/34
f 40/281/34 38/282/34 36/46/34
f 36/46/34 34/283/34 32/47/34
f 32/47/34 30/278/34 26/45/34
f 26/45/34 40/281/34 36/46/34
f 40/48/35 42/50/35 41/49/35
f 42/50/36 26/74/36 25/51/36
f 41/284/37 25/285/37 27/52/37
f 27/52/37 29/286/37 31/287/37
f 31/287/37 33/288/37 35/53/37
f 35/53/37 37/289/37 39/54/37
f 39/54/37 41/284/37 27/52/37
f 27/52/37 31/287/37 35/53/37
f 68/32/64 70/35/64 69/33/64
f 69/33/65 70/35/65 72/73/65
f 71/36/66 72/73/66 74/37/66
f 74/37/326 76/123/326 75/39/326
f 75/39/68 76/123/68 78/40/68
f 78/40/69 80/43/69 79/42/69
f 80/43/70 82/48/70 81/44/70
f 72/278/71 70/279/71 68/45/71
f 68/45/71 84/280/71 82/281/71
f 82/281/327 80/282/327 78/46/327
f 78/46/71 76/283/71 74/47/71
f 74/47/71 72/278/71 68/45/71
f 68/45/71 82/281/71 78/46/71
f 82/48/72 84/50/72 83/49/72
f 83/49/73 84/50/73 68/74/73
f 83/284/74 67/285/74 69/52/74
f 69/52/74 71/286/74 73/287/74
f 73/287/74 75/288/74 77/53/74
f 77/53/74 79/289/74 81/54/74
f 81/54/74 83/284/74 69/52/74
f 69/52/74 73/287/74 77/53/74
f 159/34/146 160/32/146 162/35/146
f 161/33/147 162/35/147 164/73/147
f 164/73/148 166/37/148 165/38/148
f 165/38/149 166/37/149 168/123/149
f 167/39/150 168/123/150 170/40/150
f 170/40/151 172/43/151 171/42/151
f 172/43/152 174/48/152 173/44/152
f 173/44/153 174/48/153 176/50/153
f 175/49/154 176/50/154 160/74/154
f 179/33/155 180/35/155 178/32/155
f 181/36/156 182/73/156 180/35/156
f 183/38/157 184/37/157 182/73/157
f 183/38/158 185/39/158 186/123/158
f 187/41/159 188/40/159 186/123/159
f 189/42/160 190/43/160 188/40/160
f 191/44/161 192/48/161 190/43/161
f 193/49/162 194/50/162 192/48/162
f 177/51/163 178/74/163 194/50/163
f 159/34/164 161/33/164 179/33/164
f 160/32/165 178/32/165 180/35/165
f 163/36/164 181/36/164 179/33/164
f 164/73/165 162/35/165 180/35/165
f 165/38/164 183/38/164 181/36/164
f 166/37/165 164/73/165 182/73/165
f 167/39/164 185/39/164 183/38/164
f 168/123/165 166/37/165 184/37/165
f 169/41/164 187/41/164 185/39/164
f 168/123/165 186/123/165 188/40/165
f 169/41/164 171/42/164 189/42/164
f 170/40/165 188/40/165 190/43/165
f 173/44/164 191/44/164 189/42/164
f 172/43/165 190/43/165 192/48/165
f 173/44/164 175/49/164 193/49/164
f 174/48/165 192/48/165 194/50/165
f 175/49/164 159/51/164 177/51/164
f 176/50/165 194/50/165 178/74/165
f 195/124/174 197/126/174 202/131/174
f 198/148/175 200/151/175 197/149/175
f 204/133/176 206/135/176 200/151/176
f 205/134/177 203/156/177 202/153/177
f 213/142/178 201/130/178 203/132/178
f 204/133/179 216/145/179 218/147/179
f 215/144/180 214/143/180 218/147/180
f 207/136/181 213/142/181 215/144/181
f 210/139/182 212/141/182 217/146/182
f 209/138/183 208/137/183 212/141/183
f 207/136/329 209/138/329 196/125/329
f 199/128/185 198/127/185 211/140/185
f 213/142/186 207/136/186 195/124/186
f 197/149/330 200/151/330 206/135/330
f 209/138/188 211/140/188 198/127/188
f 204/155/189 199/177/189 210/139/189
f 205/134/190 218/147/190 214/143/190
f 217/146/331 212/141/331 208/137/331
f 225/160/200 219/157/200 221/126/200
f 222/171/201 224/174/201 221/172/201
f 228/133/202 230/162/202 224/174/202
f 229/161/203 227/178/203 226/175/203
f 237/142/332 225/160/332 227/132/332
f 228/133/205 240/145/205 242/170/205
f 239/168/206 238/167/206 242/170/206
f 231/136/207 237/142/207 239/168/207
f 234/139/208 236/166/208 241/169/208
f 235/165/209 233/164/209 232/163/209
f 231/136/210 233/164/210 220/125/210
f 223/128/211 222/158/211 235/165/211
f 237/142/333 231/136/333 219/157/333
f 224/174/213 230/162/213 226/175/213
f 233/164/214 235/165/214 222/158/214
f 240/145/215 228/155/215 223/177/215
f 227/178/216 229/161/216 242/170/216
f 239/168/217 241/169/217 236/166/217
f 279/34/146 280/32/146 282/35/146
f 282/35/147 284/73/147 283/36/147
f 283/36/148 284/73/148 286/37/148
f 286/37/149 288/123/149 287/39/149
f 288/123/150 290/40/150 289/41/150
f 290/40/151 292/43/151 291/42/151
f 292/43/152 294/48/152 293/44/152
f 293/44/153 294/48/153 296/50/153
f 296/50/154 280/74/154 279/51/154
f 299/33/155 300/35/155 298/32/155
f 301/36/156 302/73/156 300/35/156
f 303/38/157 304/37/157 302/73/157
f 305/39/158 306/123/158 304/37/158
f 307/41/159 308/40/159 306/123/159
f 309/42/160 310/43/160 308/40/160
f 311/44/161 312/48/161 310/43/161
f 313/49/162 314/50/162 312/48/162
f 297/51/163 298/74/163 314/50/163
f 279/34/164 281/33/164 299/33/164
f 282/35/165 280/32/165 298/32/165
f 283/36/164 301/36/164 299/33/164
f 284/73/165 282/35/165 300/35/165
f 285/38/164 303/38/164 301/36/164
f 286/37/165 284/73/165 302/73/165
f 287/39/164 305/39/164 303/38/164
f 288/123/165 286/37/165 304/37/165
f 289/41/164 307/41/164 305/39/164
f 288/123/165 306/123/165 308/40/165
f 291/42/164 309/42/164 307/41/164
f 290/40/165 308/40/165 310/43/165
f 293/44/164 311/44/164 309/42/164
f 292/43/165 310/43/165 312/48/165
f 293/44/164 295/49/164 313/49/164
f 294/48/165 312/48/165 314/50/165
f 279/51/164 297/51/164 313/49/164
f 296/50/165 314/50/165 298/74/165
f 315/179/226 317/181/226 322/131/226
f 318/201/227 320/205/227 317/202/227
f 319/204/228 324/186/228 326/188/228
f 325/187/229 323/209/229 322/206/229
f 321/184/230 323/185/230 334/196/230
f 336/198/231 338/200/231 325/187/231
f 335/197/232 334/196/232 338/200/232
f 327/189/334 333/195/334 335/197/334
f 336/198/234 330/192/234 332/194/234
f 329/191/235 328/190/235 332/194/235
f 315/179/236 327/189/236 329/191/236
f 330/192/237 319/128/237 318/182/237
f 321/184/238 333/195/238 327/189/238
f 320/205/239 326/188/239 322/206/239
f 329/191/240 331/193/240 318/182/240
f 324/208/335 319/255/335 330/192/335
f 323/209/242 325/187/242 338/200/242
f 337/199/243 332/194/243 328/190/243
f 345/130/252 339/210/252 341/126/252
f 340/223/253 342/302/253 344/224/253
f 348/133/336 350/214/336 344/224/336
f 347/226/255 346/227/255 350/214/255
f 345/130/256 347/132/256 358/219/256
f 348/133/257 360/145/257 362/222/257
f 361/221/258 359/220/258 358/219/258
f 351/136/259 357/142/259 359/220/259
f 354/139/260 356/218/260 361/221/260
f 355/217/261 353/216/261 352/215/261
f 351/136/262 353/216/262 340/125/262
f 354/139/263 343/128/263 342/211/263
f 345/130/337 357/142/337 351/136/337
f 341/225/265 344/224/265 350/214/265
f 355/217/266 342/211/266 340/228/266
f 348/155/338 343/177/338 354/139/338
f 349/213/268 362/222/268 358/219/268
f 361/221/269 356/218/269 352/215/269
f 400/32/146 402/35/146 401/33/146
f 402/35/147 404/73/147 403/36/147
f 403/36/148 404/73/148 406/37/148
f 405/38/149 406/37/149 408/123/149
f 408/123/150 410/40/150 409/41/150
f 410/40/151 412/43/151 411/42/151
f 411/42/152 412/43/152 414/48/152
f 413/44/153 414/48/153 416/50/153
f 415/49/154 416/50/154 400/74/154
f 417/34/155 419/33/155 420/35/155
f 419/33/156 421/36/156 422/73/156
f 423/38/157 424/37/157 422/73/157
f 425/39/158 426/123/158 424/37/158
f 425/39/159 427/41/159 428/40/159
f 427/41/160 429/42/160 430/43/160
f 429/42/161 431/44/161 432/48/161
f 433/49/162 434/50/162 432/48/162
f 417/51/163 418/74/163 434/50/163
f 399/34/164 401/33/164 419/33/164
f 400/32/165 418/32/165 420/35/165
f 403/36/164 421/36/164 419/33/164
f 402/35/165 420/35/165 422/73/165
f 403/36/164 405/38/164 423/38/164
f 406/37/165 404/73/165 422/73/165
f 407/39/164 425/39/164 423/38/164
f 408/123/165 406/37/165 424/37/165
f 409/41/164 427/41/164 425/39/164
f 408/123/165 426/123/165 428/40/165
f 411/42/164 429/42/164 427/41/164
f 410/40/165 428/40/165 430/43/165
f 413/44/164 431/44/164 429/42/164
f 412/43/165 430/43/165 432/48/165
f 413/44/164 415/49/164 433/49/164
f 414/48/165 432/48/165 434/50/165
f 415/49/164 399/51/164 417/51/164
f 416/50/165 434/50/165 418/74/165
f 441/233/281 435/124/281 437/229/281
f 436/250/282 438/303/282 440/251/282
f 444/235/283 446/237/283 440/251/283
f 445/236/284 443/256/284 442/253/284
f 453/244/285 441/233/285 443/132/285
f 456/247/286 458/249/286 445/236/286
f 457/248/339 455/246/339 454/245/339
f 453/244/288 455/246/288 448/239/288
f 456/247/289 450/241/289 452/243/289
f 451/242/290 449/240/290 448/239/290
f 447/238/291 449/240/291 436/125/291
f 450/241/292 439/231/292 438/230/292
f 441/233/293 453/244/293 447/238/293
f 440/251/294 446/237/294 442/253/294
f 451/242/295 438/230/295 436/254/295
f 456/247/296 444/208/296 439/255/296
f 445/236/297 458/249/297 454/245/297
f 457/248/298 452/243/298 448/239/298
f 459/179/307 461/181/307 466/131/307
f 462/269/308 464/272/308 461/270/308
f 468/186/309 470/260/309 464/272/309
f 467/273/310 466/274/310 470/260/310
f 477/195/311 465/184/311 467/185/311
f 480/247/340 482/268/340 469/259/340
f 479/266/313 478/265/313 482/268/313
f 477/195/314 479/266/314 472/261/314
f 474/192/315 476/264/315 481/267/315
f 473/262/316 472/261/316 476/264/316
f 459/179/317 471/189/317 473/262/317
f 463/128/318 462/257/318 475/263/318
f 477/195/319 471/189/319 459/179/319
f 464/272/320 470/260/320 466/274/320
f 473/262/321 475/263/321 462/257/321
f 480/247/322 468/208/322 463/255/322
f 469/259/323 482/268/323 478/265/323
f 481/267/324 476/264/324 472/261/324
usemtl bark
f 124/32/110 125/33/110 123/34/110
f 126/35/111 127/36/111 125/33/111
f 128/73/112 129/38/112 127/36/112
f 130/37/113 131/39/113 129/38/113
f 132/123/114 133/41/114 131/39/114
f 134/40/115 135/42/115 133/41/115
f 136/43/116 137/44/116 135/42/116
f 138/48/117 139/49/117 137/44/117
f 140/50/118 123/51/118 139/49/118
f 143/33/119 142/32/119 141/34/119
f 145/36/120 144/35/120 143/33/120
f 147/38/121 146/73/121 145/36/121
f 149/39/122 148/37/122 147/38/122
f 151/41/123 150/123/123 149/39/123
f 153/42/124 152/40/124 151/41/124
f 155/44/125 154/43/125 153/42/125
f 157/49/126 156/48/126 155/44/126
f 141/51/127 158/50/127 157/49/127
f 125/33/128 141/34/128 123/34/128
f 126/35/129 142/32/129 144/35/129
f 127/36/130 143/33/130 125/33/130
f 126/35/131 146/73/131 128/73/131
f 129/38/132 145/36/132 127/36/132
f 128/73/133 148/37/133 130/37/133
f 131/39/134 147/38/134 129/38/134
f 130/37/135 150/123/135 132/123/135
f 131/39/136 151/41/136 149/39/136
f 132/123/137 152/40/137 134/40/137
f 133/41/138 153/42/138 151/41/138
f 134/40/139 154/43/139 136/43/139
f 135/42/140 155/44/140 153/42/140
f 136/43/141 156/48/141 138/48/141
f 139/49/142 155/44/142 137/44/142
f 138/48/143 158/50/143 140/50/143
f 123/51/144 157/49/144 139/49/144
f 124/74/145 158/50/145 142/74/145
f 243/34/110 246/35/110 245/33/110
f 245/33/111 248/73/111 247/36/111
f 248/73/112 249/38/112 247/36/112
f 250/37/113 251/39/113 249/38/113
f 252/123/114 253/41/114 251/39/114
f 254/40/115 255/42/115 253/41/115
f 255/42/116 258/48/116 257/44/116
f 257/44/117 260/50/117 259/49/117
f 260/50/118 243/51/118 259/49/118
f 263/33/119 262/32/119 261/34/119
f 265/36/120 264/35/120 263/33/120
f 267/38/121 266/73/121 265/36/121
f 269/39/122 268/37/122 267/38/122
f 271/41/123 270/123/123 269/39/123
f 273/42/124 272/40/124 271/41/124
f 275/44/125 274/43/125 273/42/125
f 275/44/126 278/50/126 276/48/126
f 261/51/127 278/50/127 277/49/127
f 245/33/128 261/34/128 243/34/128
f 246/35/129 262/32/129 264/35/129
f 247/36/130 263/33/130 245/33/130
f 248/73/131 264/35/131 266/73/131
f 247/36/132 267/38/132 265/36/132
f 248/73/133 268/37/133 250/37/133
f 249/38/134 269/39/134 267/38/134
f 250/37/135 270/123/135 252/123/135
f 253/41/136 269/39/136 251/39/136
f 252/123/137 272/40/137 254/40/137
f 255/42/138 271/41/138 253/41/138
f 254/40/139 274/43/139 256/43/139
f 257/44/140 273/42/140 255/42/140
f 256/43/141 276/48/141 258/48/141
f 259/49/142 275/44/142 257/44/142
f 260/50/143 276/48/143 278/50/143
f 243/51/144 277/49/144 259/49/144
f 244/74/145 278/50/145 262/74/145
f 363/34/110 366/35/110 365/33/110
f 366/35/111 367/36/111 365/33/111
f 368/73/112 369/38/112 367/36/112
f 369/38/113 372/123/113 371/39/113
f 372/123/114 373/41/114 371/39/114
f 373/41/115 376/43/115 375/42/115
f 375/42/116 378/48/116 377/44/116
f 378/48/117 379/49/117 377/44/117
f 380/50/118 363/51/118 379/49/118
f 381/34/119 384/35/119 382/32/119
f 385/36/120 384/35/120 383/33/120
f 387/38/121 386/73/121 385/36/121
f 389/39/122 388/37/122 387/38/122
f 391/41/123 390/123/123 389/39/123
f 393/42/124 392/40/124 391/41/124
f 393/42/125 396/48/125 394/43/125
f 397/49/126 396/48/126 395/44/126
f 381/51/127 398/50/127 397/49/127
f 365/33/128 381/34/128 363/34/128
f 364/32/129 384/35/129 366/35/129
f 367/36/130 383/33/130 365/33/130
f 368/73/131 384/35/131 386/73/131
f 369/38/132 385/36/132 367/36/132
f 368/73/133 388/37/133 370/37/133
f 371/39/134 387/38/134 369/38/134
f 370/37/135 390/123/135 372/123/135
f 373/41/136 389/39/136 371/39/136
f 372/123/270 392/40/270 374/40/270
f 373/41/138 393/42/138 391/41/138
f 376/43/139 392/40/139 394/43/139
f 377/44/140 393/42/140 375/42/140
f 378/48/141 394/43/141 396/48/141
f 379/49/271 395/44/271 377/44/271
f 378/48/272 398/50/272 380/50/272
f 363/51/144 397/49/144 379/49/144
f 380/50/145 382/74/145 364/74/145
f 124/32/110 126/35/110 125/33/110
f 126/35/111 128/73/111 127/36/111
f 128/73/112 130/37/112 129/38/112
f 130/37/113 132/123/113 131/39/113
f 132/123/114 134/40/114 133/41/114
f 134/40/115 136/43/115 135/42/115
f 136/43/116 138/48/116 137/44/116
f 138/48/117 140/50/117 139/49/117
f 140/50/118 124/74/118 123/51/118
f 143/33/119 144/35/119 142/32/119
f 145/36/120 146/73/120 144/35/120
f 147/38/121 148/37/121 146/73/121
f 149/39/122 150/123/122 148/37/122
f 151/41/123 152/40/123 150/123/123
f 153/42/124 154/43/124 152/40/124
f 155/44/125 156/48/125 154/43/125
f 157/49/126 158/50/126 156/48/126
f 141/51/127 142/74/127 158/50/127
f 125/33/128 143/33/128 141/34/128
f 126/35/129 124/32/129 142/32/129
f 127/36/130 145/36/130 143/33/130
f 126/35/131 144/35/131 146/73/131
f 129/38/132 147/38/132 145/36/132
f 128/73/133 146/73/133 148/37/133
f 131/39/134 149/39/134 147/38/134
f 130/37/135 148/37/135 150/123/135
f 131/39/136 133/41/136 151/41/136
f 132/123/270 150/123/270 152/40/270
f 133/41/138 135/42/138 153/42/138
f 134/40/139 152/40/139 154/43/139
f 135/42/140 137/44/140 155/44/140
f 136/43/141 154/43/141 156/48/141
f 139/49/142 157/49/142 155/44/142
f 138/48/272 156/48/272 158/50/272
f 123/51/144 141/51/144 157/49/144
f 124/74/145 140/50/145 158/50/145
f 243/34/110 244/32/110 246/35/110
f 245/33/111 246/35/111 248/73/111
f 248/73/112 250/37/112 249/38/112
f 250/37/113 252/123/113 251/39/113
f 252/123/114 254/40/114 253/41/114
f 254/40/115 256/43/115 255/42/115
f 255/42/116 256/43/116 258/48/116
f 257/44/117 258/48/117 260/50/117
f 260/50/118 244/74/118 243/51/118
f 263/33/119 264/35/119 262/32/119
f 265/36/120 266/73/120 264/35/120
f 267/38/121 268/37/121 266/73/121
f 269/39/122 270/123/122 268/37/122
f 271/41/123 272/40/123 270/123/123
f 273/42/124 274/43/124 272/40/124
f 275/44/125 276/48/125 274/43/125
f 275/44/126 277/49/126 278/50/126
f 261/51/127 262/74/127 278/50/127
f 245/33/128 263/33/128 261/34/128
f 246/35/129 244/32/129 262/32/129
f 247/36/130 265/36/130 263/33/130
f 248/73/131 246/35/131 264/35/131
f 247/36/132 249/38/132 267/38/132
f 248/73/133 266/73/133 268/37/133
f 249/38/134 251/39/134 269/39/134
f 250/37/135 268/37/135 270/123/135
f 253/41/136 271/41/136 269/39/136
f 252/123/270 270/123/270 272/40/270
f 255/42/138 273/42/138 271/41/138
f 254/40/139 272/40/139 274/43/139
f 257/44/140 275/44/140 273/42/140
f 256/43/141 274/43/141 276/48/141
f 259/49/142 277/49/142 275/44/142
f 260/50/272 258/48/272 276/48/272
f 243/51/144 261/51/144 277/49/144
f 244/74/145 260/50/145 278/50/145
f 363/34/110 364/32/110 366/35/110
f 366/35/111 368/73/111 367/36/111
f 368/73/112 370/37/112 369/38/112
f 369/38/113 370/37/113 372/123/113
f 372/123/114 374/40/114 373/41/114
f 373/41/115 374/40/115 376/43/115
f 375/42/116 376/43/116 378/48/116
f 378/48/117 380/50/117 379/49/117
f 380/50/118 364/74/118 363/51/118
f 381/34/119 383/33/119 384/35/119
f 385/36/120 386/73/120 384/35/120
f 387/38/121 388/37/121 386/73/121
f 389/39/122 390/123/122 388/37/122
f 391/41/123 392/40/123 390/123/123
f 393/42/124 394/43/124 392/40/124
f 393/42/125 395/44/125 396/48/125
f 397/49/126 398/50/126 396/48/126
f 381/51/127 382/74/127 398/50/127
f 365/33/128 383/33/128 381/34/128
f 364/32/129 382/32/129 384/35/129
f 367/36/130 385/36/130 383/33/130
f 368/73/131 366/35/131 384/35/131
f 369/38/132 387/38/132 385/36/132
f 368/73/133 386/73/133 388/37/133
f 371/39/134 389/39/134 387/38/134
f 370/37/135 388/37/135 390/123/135
f 373/41/136 391/41/136 389/39/136
f 372/123/270 390/123/270 392/40/270
f 373/41/138 375/42/138 393/42/138
f 376/43/139 374/40/139 392/40/139
f 377/44/140 395/44/140 393/42/140
f 378/48/141 376/43/141 394/43/141
f 379/49/142 397/49/142 395/44/142
f 378/48/272 396/48/272 398/50/272
f 363/51/144 381/51/144 397/49/144
f 380/50/145 398/50/145 382/74/145
