# Blender 4.5.10 LTS
# www.blender.org
mtllib stow_label_tag.mtl
o stow_label_tag
v 0.123033 0.504003 0.172066
v 0.123030 0.504173 0.170525
v 0.123479 0.504189 0.172064
v 0.123031 0.504048 0.170977
v 0.123290 0.504075 0.171176
v 0.123347 0.504179 0.170975
v 0.123349 0.504059 0.172065
v 0.122909 0.516808 0.170422
v 0.122909 0.517002 0.171961
v 0.123358 0.516824 0.171962
v 0.122908 0.516940 0.170872
v 0.123167 0.516921 0.171072
v 0.123226 0.516952 0.171961
v 0.123226 0.516814 0.170873
v 0.123110 0.504867 0.278982
v 0.123556 0.505054 0.278981
v 0.123109 0.505062 0.280521
v 0.123426 0.504924 0.278982
v 0.123368 0.504954 0.279871
v 0.123425 0.505061 0.280070
v 0.123110 0.504930 0.280071
v 0.122986 0.517866 0.278877
v 0.122988 0.517697 0.280419
v 0.123435 0.517689 0.278879
v 0.122987 0.517822 0.279967
v 0.123246 0.517799 0.279767
v 0.123305 0.517696 0.279968
v 0.123303 0.517816 0.278878
v 0.091930 0.503707 0.172091
v 0.091480 0.503884 0.172090
v 0.091927 0.503876 0.170549
v 0.091613 0.503757 0.172091
v 0.091670 0.503774 0.171201
v 0.091611 0.503877 0.171001
v 0.091929 0.503751 0.171001
v 0.091806 0.516706 0.171986
v 0.091807 0.516511 0.170447
v 0.091360 0.516519 0.171988
v 0.091806 0.516644 0.170897
v 0.091548 0.516619 0.171097
v 0.091490 0.516512 0.170899
v 0.091490 0.516649 0.171986
v 0.092007 0.504571 0.279007
v 0.092006 0.504765 0.280546
v 0.091557 0.504749 0.279006
v 0.092007 0.504633 0.280096
v 0.091748 0.504653 0.279896
v 0.091689 0.504759 0.280095
v 0.091690 0.504621 0.279007
v 0.091883 0.517570 0.278902
v 0.091437 0.517384 0.278904
v 0.091886 0.517400 0.280444
v 0.091567 0.517514 0.278903
v 0.091626 0.517498 0.279792
v 0.091569 0.517394 0.279993
v 0.091884 0.517525 0.279992
v 0.111506 0.386707 0.263810
v 0.111531 0.388315 0.263620
v 0.111979 0.388309 0.263800
v 0.111513 0.387177 0.263679
v 0.111775 0.387382 0.263700
v 0.111847 0.388311 0.263672
v 0.111830 0.387173 0.263806
v 0.113251 0.500081 0.263064
v 0.113276 0.501692 0.263238
v 0.113699 0.500075 0.263245
v 0.113268 0.501219 0.263112
v 0.113524 0.501007 0.263136
v 0.113585 0.501215 0.263240
v 0.113568 0.500076 0.263117
v 0.111545 0.386769 0.276445
v 0.112017 0.388372 0.276436
v 0.111570 0.388379 0.276619
v 0.111869 0.387235 0.276442
v 0.111814 0.387446 0.276546
v 0.111886 0.388374 0.276565
v 0.111552 0.387241 0.276572
v 0.113314 0.501754 0.275874
v 0.113290 0.500145 0.276064
v 0.113737 0.500137 0.275881
v 0.113307 0.501283 0.276005
v 0.113563 0.501070 0.275982
v 0.113607 0.500140 0.276010
v 0.113624 0.501277 0.275876
v 0.080406 0.387186 0.263901
v 0.079983 0.388802 0.263895
v 0.080430 0.388795 0.263711
v 0.080097 0.387662 0.263900
v 0.080158 0.387870 0.263794
v 0.080114 0.388800 0.263766
v 0.080413 0.387657 0.263770
v 0.082176 0.502171 0.263330
v 0.082150 0.500560 0.263156
v 0.081703 0.500568 0.263339
v 0.082168 0.501698 0.263204
v 0.081906 0.501494 0.263229
v 0.081834 0.500565 0.263210
v 0.081852 0.501704 0.263333
v 0.080444 0.387248 0.276537
v 0.080470 0.388859 0.276711
v 0.080021 0.388865 0.276531
v 0.080452 0.387720 0.276664
v 0.080197 0.387933 0.276640
v 0.080153 0.388863 0.276659
v 0.080135 0.387724 0.276536
v 0.082214 0.502233 0.275966
v 0.081741 0.500630 0.275975
v 0.082190 0.500624 0.276156
v 0.081890 0.501766 0.275969
v 0.081945 0.501557 0.276075
v 0.081873 0.500629 0.276103
v 0.082207 0.501762 0.276097
v -0.090218 0.501912 0.162357
v -0.090195 0.502107 0.160819
v -0.089767 0.502087 0.162364
v -0.090203 0.501974 0.161269
v -0.089946 0.501992 0.161472
v -0.089884 0.502098 0.161274
v -0.089900 0.501960 0.162362
v -0.089993 0.514741 0.160928
v -0.090010 0.514910 0.162469
v -0.089565 0.514720 0.162474
v -0.089997 0.514866 0.161380
v -0.089741 0.514836 0.161583
v -0.089694 0.514851 0.162473
v -0.089682 0.514732 0.161383
v -0.091598 0.501009 0.269264
v -0.091147 0.501184 0.269272
v -0.091615 0.501178 0.270806
v -0.091281 0.501057 0.269269
v -0.091350 0.501074 0.270157
v -0.091293 0.501177 0.270359
v -0.091612 0.501053 0.270354
v -0.091391 0.514007 0.269377
v -0.091413 0.513812 0.270915
v -0.090946 0.513818 0.269381
v -0.091406 0.513944 0.270465
v -0.091145 0.513918 0.270268
v -0.091091 0.513810 0.270468
v -0.091075 0.513948 0.269380
v -0.121315 0.502412 0.161960
v -0.121760 0.502601 0.161956
v -0.121292 0.502607 0.160421
v -0.121631 0.502470 0.161956
v -0.121561 0.502501 0.161068
v -0.121615 0.502608 0.160868
v -0.121300 0.502474 0.160871
v -0.121108 0.515410 0.162072
v -0.121091 0.515241 0.160531
v -0.121558 0.515235 0.162065
v -0.121094 0.515366 0.160983
v -0.121356 0.515345 0.161179
v -0.121413 0.515242 0.160978
v -0.121425 0.515362 0.162068
v -0.122696 0.501509 0.268867
v -0.122713 0.501678 0.270408
v -0.123141 0.501698 0.268863
v -0.122709 0.501553 0.269956
v -0.122965 0.501583 0.269753
v -0.123024 0.501687 0.269953
v -0.123012 0.501567 0.268863
v -0.122488 0.514507 0.268979
v -0.122939 0.514332 0.268972
v -0.122511 0.514312 0.270518
v -0.122806 0.514459 0.268975
v -0.122759 0.514427 0.269864
v -0.122822 0.514321 0.270063
v -0.122503 0.514444 0.270068
v -0.082603 0.399613 0.270246
v -0.082603 0.401222 0.270055
v -0.082155 0.401223 0.270238
v -0.082603 0.400084 0.270114
v -0.082344 0.400293 0.270137
v -0.082286 0.401223 0.270109
v -0.082286 0.400085 0.270244
v -0.082610 0.513001 0.269464
v -0.082611 0.514612 0.269638
v -0.082162 0.513002 0.269647
v -0.082610 0.514140 0.269512
v -0.082352 0.513931 0.269537
v -0.082294 0.514140 0.269641
v -0.082293 0.513001 0.269518
v -0.082620 0.399680 0.282881
v -0.082172 0.401290 0.282874
v -0.082621 0.401291 0.283055
v -0.082304 0.400152 0.282879
v -0.082362 0.400361 0.282983
v -0.082304 0.401291 0.283002
v -0.082620 0.400152 0.283008
v -0.082628 0.514679 0.282274
v -0.082628 0.513070 0.282464
v -0.082180 0.513069 0.282283
v -0.082628 0.514208 0.282405
v -0.082370 0.513999 0.282383
v -0.082311 0.513069 0.282411
v -0.082311 0.514207 0.282277
v -0.113707 0.399611 0.270202
v -0.114155 0.401221 0.270193
v -0.113706 0.401220 0.270012
v -0.114023 0.400083 0.270199
v -0.113965 0.400291 0.270093
v -0.114023 0.401220 0.270065
v -0.113706 0.400082 0.270071
v -0.113714 0.514610 0.269594
v -0.113714 0.512999 0.269421
v -0.114162 0.512999 0.269602
v -0.113714 0.514137 0.269468
v -0.113973 0.513928 0.269493
v -0.114031 0.512999 0.269474
v -0.114031 0.514138 0.269597
v -0.113724 0.399678 0.282838
v -0.113725 0.401289 0.283012
v -0.114172 0.401288 0.282829
v -0.113724 0.400150 0.282964
v -0.113983 0.400359 0.282939
v -0.114041 0.401289 0.282958
v -0.114041 0.400149 0.282835
v -0.113732 0.514676 0.282230
v -0.114180 0.513066 0.282238
v -0.113732 0.513067 0.282421
v -0.114049 0.514205 0.282232
v -0.113991 0.513996 0.282339
v -0.114049 0.513067 0.282367
v -0.113732 0.514205 0.282361
v 0.161942 0.300491 0.255024
v 0.161864 0.302427 0.254614
v 0.166473 0.302648 0.254978
v 0.161921 0.301050 0.254788
v 0.164574 0.301423 0.254857
v 0.165126 0.302575 0.254756
v 0.165180 0.301207 0.255046
v 0.156074 0.438078 0.245507
v 0.155984 0.440050 0.245655
v 0.160683 0.438299 0.245871
v 0.156013 0.439465 0.245496
v 0.158687 0.439331 0.245598
v 0.159272 0.439621 0.245753
v 0.159335 0.438227 0.245649
v 0.161529 0.301776 0.274418
v 0.166061 0.303932 0.274371
v 0.161440 0.303748 0.274566
v 0.164768 0.302491 0.274439
v 0.164155 0.302729 0.274572
v 0.164705 0.303886 0.274544
v 0.161501 0.302361 0.274577
v 0.155572 0.441335 0.265048
v 0.155649 0.439399 0.265459
v 0.160270 0.439583 0.265264
v 0.155592 0.440775 0.265284
v 0.158268 0.440636 0.265314
v 0.158914 0.439537 0.265437
v 0.158859 0.440906 0.265147
v -0.158456 0.286420 0.249141
v -0.163154 0.288171 0.248925
v -0.158533 0.288355 0.248730
v -0.161743 0.286849 0.249043
v -0.161152 0.287118 0.248875
v -0.161798 0.288217 0.248752
v -0.158476 0.286979 0.248905
v -0.164413 0.425979 0.239772
v -0.164323 0.424006 0.239624
v -0.168944 0.423822 0.239818
v -0.164384 0.425393 0.239613
v -0.167038 0.425025 0.239617
v -0.167588 0.423868 0.239645
v -0.167651 0.425263 0.239750
v -0.158868 0.287704 0.268534
v -0.158957 0.289676 0.268682
v -0.163566 0.289455 0.268318
v -0.158897 0.288289 0.268693
v -0.161571 0.288423 0.268591
v -0.162219 0.289528 0.268541
v -0.162156 0.288133 0.268436
v -0.164825 0.427263 0.259165
v -0.169357 0.425107 0.259211
v -0.164748 0.425328 0.259575
v -0.168064 0.426547 0.259143
v -0.167458 0.426331 0.259333
v -0.168009 0.425179 0.259434
v -0.164805 0.426704 0.259401
v 0.151853 0.303257 0.279775
v 0.151858 0.304796 0.279651
v 0.156057 0.304785 0.279803
v 0.151855 0.303707 0.279692
v 0.154280 0.303900 0.279728
v 0.154827 0.304788 0.279712
v 0.154824 0.303700 0.279799
v 0.152147 0.411712 0.278835
v 0.152150 0.413253 0.278935
v 0.156346 0.411702 0.278987
v 0.152149 0.412801 0.278860
v 0.154574 0.412595 0.278899
v 0.155118 0.412794 0.278967
v 0.155116 0.411705 0.278896
v 0.151779 0.303316 0.287550
v 0.155983 0.304845 0.287578
v 0.151782 0.304857 0.287650
v 0.154750 0.303759 0.287575
v 0.154205 0.303961 0.287633
v 0.154752 0.304849 0.287646
v 0.151779 0.303768 0.287626
v 0.152076 0.413312 0.286711
v 0.152071 0.411773 0.286835
v 0.156272 0.411761 0.286763
v 0.152074 0.412862 0.286794
v 0.154499 0.412656 0.286804
v 0.155041 0.411765 0.286830
v 0.155045 0.412854 0.286743
v -0.139733 0.304023 0.277002
v -0.143929 0.305574 0.276950
v -0.139728 0.305562 0.276878
v -0.142702 0.304482 0.276970
v -0.142156 0.304680 0.276909
v -0.142698 0.305571 0.276883
v -0.139731 0.304474 0.276919
v -0.139436 0.414020 0.276163
v -0.139439 0.412479 0.276063
v -0.143640 0.412491 0.276135
v -0.139436 0.413568 0.276087
v -0.141862 0.413375 0.276080
v -0.142409 0.412487 0.276067
v -0.142407 0.413577 0.276138
v -0.139807 0.304083 0.284778
v -0.139804 0.305624 0.284878
v -0.144003 0.305634 0.284726
v -0.139807 0.304535 0.284853
v -0.142231 0.304741 0.284814
v -0.142773 0.305631 0.284817
v -0.142775 0.304542 0.284746
v -0.139510 0.414079 0.283938
v -0.143714 0.412550 0.283910
v -0.139515 0.412540 0.284062
v -0.142481 0.413636 0.283914
v -0.141937 0.413435 0.283985
v -0.142484 0.412548 0.284001
v -0.139512 0.413629 0.284021
vn 0.1749 -0.9841 -0.0292
vn 0.3720 -0.8943 -0.2487
vn 0.7895 -0.6071 -0.0902
vn 0.3552 0.8970 -0.2630
vn 0.1183 0.9914 -0.0566
vn 0.6920 0.7184 -0.0709
vn 0.1374 -0.9889 0.0564
vn 0.7056 -0.7052 0.0698
vn 0.3727 -0.8901 0.2625
vn 0.1564 0.9873 0.0289
vn 0.3554 0.9012 0.2480
vn 0.7785 0.6213 0.0888
vn -0.1187 -0.9921 -0.0404
vn -0.6915 -0.7201 -0.0584
vn -0.3554 -0.9012 -0.2480
vn -0.1755 0.9834 -0.0449
vn -0.3725 0.8901 -0.2625
vn -0.7897 0.6055 -0.0988
vn -0.1566 -0.9866 0.0451
vn -0.3550 -0.8971 0.2631
vn -0.7780 -0.6202 0.1000
vn -0.1371 0.9897 0.0406
vn -0.7055 0.7062 0.0594
vn -0.3720 0.8943 0.2486
vn 0.1752 -0.9845 0.0078
vn 0.7072 -0.7070 0.0052
vn 0.8179 0.0032 -0.5754
vn 0.9927 0.0085 -0.1204
vn 0.1564 0.9877 -0.0081
vn 0.6934 0.7205 -0.0063
vn 0.8187 0.0124 0.5740
vn 0.9929 0.0104 0.1188
vn 0.0096 -0.9983 0.0570
vn 0.0094 -0.9593 0.2821
vn -0.0095 0.9991 0.0408
vn -0.0090 0.9638 0.2665
vn -0.9927 -0.0085 0.1204
vn -0.8179 -0.0032 0.5754
vn -0.1568 -0.9876 0.0081
vn -0.6932 -0.7207 0.0063
vn -0.1755 0.9845 -0.0078
vn -0.7070 0.7071 -0.0052
vn -0.8187 -0.0124 -0.5741
vn -0.9929 -0.0104 -0.1189
vn 0.0095 -0.9991 -0.0408
vn 0.0090 -0.9638 -0.2666
vn -0.0096 0.9983 -0.0570
vn -0.0094 0.9593 -0.2821
vn 0.0095 -0.9999 0.0081
vn 1.0000 0.0095 -0.0008
vn -0.0007 -0.0081 -1.0000
vn -0.0095 0.9999 -0.0081
vn 0.0007 0.0081 1.0000
vn -1.0000 -0.0095 0.0008
vn 0.3584 -0.2551 -0.8980
vn 0.1242 -0.0533 -0.9908
vn 0.6957 -0.0760 -0.7143
vn 0.1634 0.0280 -0.9862
vn 0.3659 0.2351 -0.9005
vn 0.7838 0.0753 -0.6164
vn 0.3639 -0.2464 0.8983
vn 0.7847 -0.0994 0.6118
vn 0.1682 -0.0331 0.9852
vn 0.3714 0.2440 0.8958
vn 0.1316 0.0494 0.9901
vn 0.7018 0.0545 0.7102
vn -0.3713 -0.2438 -0.8959
vn -0.7876 -0.0814 -0.6108
vn -0.1693 -0.0377 -0.9848
vn -0.3638 0.2463 -0.8983
vn -0.1302 0.0434 -0.9905
vn -0.7000 0.0691 -0.7108
vn -0.3659 -0.2351 0.9005
vn -0.1256 -0.0395 0.9913
vn -0.6977 -0.0476 0.7148
vn -0.3584 0.2552 0.8980
vn -0.7811 0.1055 0.6155
vn -0.1623 0.0428 0.9858
vn 0.8214 -0.5703 0.0003
vn 0.9915 -0.1298 -0.0024
vn 0.1630 -0.0074 -0.9866
vn 0.6980 -0.0143 -0.7160
vn 0.8386 0.5448 -0.0052
vn 0.9951 0.0992 -0.0035
vn 0.1689 0.0023 0.9856
vn 0.7023 -0.0073 0.7118
vn -0.0011 -0.2585 0.9660
vn 0.0023 -0.0418 0.9991
vn 0.0070 0.2680 0.9634
vn 0.0037 0.0517 0.9987
vn -0.6980 0.0143 0.7160
vn -0.1630 0.0074 0.9866
vn -0.8386 -0.5447 0.0052
vn -0.9951 -0.0992 0.0035
vn -0.8214 0.5703 -0.0003
vn -0.9915 0.1298 0.0024
vn -0.1688 -0.0023 -0.9856
vn -0.7023 0.0073 -0.7119
vn -0.0070 -0.2680 -0.9634
vn -0.0037 -0.0517 -0.9987
vn 0.0011 0.2585 -0.9660
vn -0.0023 0.0419 -0.9991
vn -0.0154 -0.9999 0.0050
vn 0.9999 -0.0154 -0.0029
vn -0.0030 -0.0049 -1.0000
vn 0.0154 0.9999 -0.0050
vn 0.0030 0.0049 1.0000
vn -0.9999 0.0154 0.0029
vn 0.1507 -0.9876 -0.0434
vn 0.3530 -0.8992 -0.2586
vn 0.7753 -0.6252 -0.0898
vn 0.3813 0.8919 -0.2432
vn 0.1442 0.9888 -0.0383
vn 0.7111 0.7014 -0.0495
vn 0.1118 -0.9929 0.0416
vn 0.6866 -0.7239 0.0673
vn 0.3459 -0.9037 0.2525
vn 0.1811 0.9823 0.0476
vn 0.3747 0.8876 0.2678
vn 0.7925 0.5999 0.1098
vn -0.1437 -0.9879 -0.0587
vn -0.7088 -0.7009 -0.0798
vn -0.3749 -0.8875 -0.2679
vn -0.1495 0.9883 -0.0306
vn -0.3463 0.9035 -0.2523
vn -0.7728 0.6268 -0.0992
vn -0.1821 -0.9829 0.0263
vn -0.3813 -0.8919 0.2431
vn -0.7948 -0.6017 0.0791
vn -0.1129 0.9921 0.0554
vn -0.6878 0.7233 0.0619
vn -0.3533 0.8991 0.2586
vn 0.1503 -0.9886 -0.0064
vn 0.6885 -0.7253 0.0028
vn 0.8256 -0.0083 -0.5642
vn 0.9942 -0.0150 -0.1069
vn 0.1819 0.9833 0.0107
vn 0.7120 0.7020 0.0151
vn 0.8107 -0.0180 0.5852
vn 0.9911 -0.0170 0.1323
vn -0.0166 -0.9991 0.0403
vn -0.0189 -0.9638 0.2660
vn 0.0153 0.9982 0.0576
vn 0.0118 0.9592 0.2826
vn -0.9942 0.0150 0.1069
vn -0.8256 0.0083 0.5642
vn -0.1817 -0.9833 -0.0107
vn -0.7118 -0.7022 -0.0151
vn -0.1504 0.9886 0.0064
vn -0.6884 0.7253 -0.0028
vn -0.8107 0.0180 -0.5851
vn -0.9911 0.0170 -0.1323
vn -0.0153 -0.9982 -0.0576
vn -0.0118 -0.9592 -0.2826
vn 0.0166 0.9991 -0.0403
vn 0.0189 0.9638 -0.2659
vn -0.0160 -0.9998 -0.0087
vn 0.9998 -0.0161 0.0128
vn 0.0129 0.0084 -0.9999
vn 0.0160 0.9998 0.0087
vn -0.0129 -0.0084 0.9999
vn -0.9998 0.0161 -0.0128
vn 0.3662 -0.2500 -0.8963
vn 0.1292 -0.0516 -0.9903
vn 0.6999 -0.0655 -0.7113
vn 0.1672 0.0301 -0.9855
vn 0.3662 0.2403 -0.8990
vn 0.7853 0.0872 -0.6129
vn 0.3637 -0.2404 0.9000
vn 0.7835 -0.0872 0.6152
vn 0.1644 -0.0303 0.9859
vn 0.3636 0.2498 0.8974
vn 0.1264 0.0517 0.9906
vn 0.6979 0.0656 0.7132
vn -0.3637 -0.2498 -0.8974
vn -0.7836 -0.0938 -0.6141
vn -0.1644 -0.0407 -0.9856
vn -0.3636 0.2404 -0.9000
vn -0.1265 0.0411 -0.9911
vn -0.6978 0.0580 -0.7139
vn -0.3661 -0.2405 0.8989
vn -0.1294 -0.0411 0.9907
vn -0.6998 -0.0582 0.7119
vn -0.3661 0.2497 0.8964
vn -0.7852 0.0935 0.6121
vn -0.1671 0.0406 0.9851
vn 0.8302 -0.5575 0.0041
vn 0.9934 -0.1144 0.0020
vn 0.1674 -0.0052 -0.9859
vn 0.7012 -0.0037 -0.7129
vn 0.8300 0.5577 -0.0018
vn 0.9934 0.1146 0.0008
vn 0.1646 0.0052 0.9864
vn 0.6992 0.0038 0.7149
vn -0.0013 -0.2581 0.9661
vn -0.0014 -0.0415 0.9991
vn -0.0014 0.2683 0.9633
vn -0.0014 0.0520 0.9986
vn -0.7012 0.0037 0.7130
vn -0.1673 0.0052 0.9859
vn -0.8301 -0.5576 0.0018
vn -0.9934 -0.1146 -0.0008
vn -0.8301 0.5576 -0.0041
vn -0.9934 0.1144 -0.0020
vn -0.1646 -0.0052 -0.9863
vn -0.6992 -0.0038 -0.7149
vn 0.0014 -0.2683 -0.9633
vn 0.0014 -0.0521 -0.9986
vn 0.0013 0.2582 -0.9661
vn 0.0014 0.0415 -0.9991
vn 0.0001 -1.0000 0.0053
vn 1.0000 0.0001 0.0014
vn 0.0014 -0.0053 -1.0000
vn -0.0001 1.0000 -0.0053
vn -0.0014 0.0053 1.0000
vn -1.0000 -0.0001 -0.0014
vn 0.1085 -0.4645 -0.8789
vn 0.0429 -0.1239 -0.9914
vn 0.1699 -0.1980 -0.9654
vn 0.0443 -0.0197 -0.9988
vn 0.0501 0.2642 -0.9632
vn 0.1580 0.0810 -0.9841
vn 0.0377 -0.2603 0.9648
vn 0.1283 -0.0685 0.9894
vn 0.0058 0.0219 0.9997
vn 0.0351 0.4710 0.8814
vn -0.0045 0.1256 0.9921
vn 0.1164 0.2105 0.9706
vn -0.0100 -0.3890 -0.9212
vn -0.1164 -0.2105 -0.9706
vn -0.0019 -0.1123 -0.9937
vn -0.0699 0.3444 -0.9362
vn -0.0005 -0.0079 -1.0000
vn -0.1284 0.0685 -0.9894
vn -0.0737 -0.3507 0.9336
vn -0.0379 0.0063 0.9993
vn -0.1580 -0.0811 0.9841
vn -0.0778 0.3851 0.9196
vn -0.1700 0.1979 0.9654
vn -0.0482 0.1101 0.9928
vn 0.2148 -0.9742 0.0691
vn 0.7444 -0.6650 0.0599
vn 0.0463 -0.0649 -0.9968
vn 0.1656 -0.0590 -0.9844
vn 0.1310 0.9894 -0.0627
vn 0.6850 0.7278 -0.0336
vn 0.0039 0.0671 0.9977
vn 0.1236 0.0717 0.9897
vn -0.0062 -0.2626 0.9649
vn -0.0187 0.0071 0.9998
vn -0.0339 0.3874 0.9213
vn -0.0237 0.1248 0.9919
vn -0.1656 0.0590 0.9844
vn -0.0463 0.0649 0.9968
vn -0.1310 -0.9894 0.0627
vn -0.6850 -0.7278 0.0336
vn -0.2148 0.9742 -0.0691
vn -0.7444 0.6650 -0.0599
vn -0.0039 -0.0671 -0.9977
vn -0.1236 -0.0717 -0.9897
vn 0.0339 -0.3875 -0.9213
vn 0.0237 -0.1248 -0.9919
vn 0.0062 0.2625 -0.9649
vn 0.0187 -0.0071 -0.9998
vn 0.0426 -0.9969 0.0669
vn 0.9989 0.0439 0.0183
vn 0.0212 -0.0661 -0.9976
vn -0.0426 0.9969 -0.0669
vn -0.0212 0.0661 0.9976
vn -0.9989 -0.0439 -0.0183
vn 0.0425 -0.2304 -0.9722
vn 0.0179 -0.0378 -0.9991
vn 0.0733 -0.0802 -0.9941
vn 0.0206 0.0154 -0.9997
vn 0.0300 0.1652 -0.9858
vn 0.0737 0.0647 -0.9952
vn 0.0103 -0.1655 0.9862
vn 0.0544 -0.0650 0.9964
vn 0.0015 -0.0156 0.9999
vn 0.0252 0.2304 0.9728
vn -0.0009 0.0378 0.9993
vn 0.0548 0.0798 0.9953
vn -0.0113 -0.1803 -0.9836
vn -0.0548 -0.0798 -0.9953
vn -0.0016 -0.0307 -0.9995
vn -0.0240 0.2155 -0.9762
vn 0.0011 0.0224 -0.9997
vn -0.0544 0.0649 -0.9964
vn -0.0437 -0.2153 0.9756
vn -0.0180 -0.0224 0.9996
vn -0.0737 -0.0646 0.9952
vn -0.0290 0.1805 0.9831
vn -0.0733 0.0802 0.9941
vn -0.0205 0.0308 0.9993
vn 0.1475 -0.9890 0.0090
vn 0.6608 -0.7505 0.0120
vn 0.0205 -0.0077 -0.9998
vn 0.0737 -0.0078 -0.9972
vn 0.1528 0.9882 -0.0061
vn 0.6648 0.7470 0.0006
vn 0.0016 0.0076 1.0000
vn 0.0548 0.0075 0.9985
vn -0.0098 -0.1654 0.9862
vn -0.0096 -0.0225 0.9997
vn -0.0089 0.1805 0.9835
vn -0.0094 0.0377 0.9992
vn -0.0737 0.0078 0.9972
vn -0.0205 0.0077 0.9998
vn -0.1528 -0.9882 0.0061
vn -0.6648 -0.7470 -0.0006
vn -0.1475 0.9890 -0.0090
vn -0.6608 0.7505 -0.0120
vn -0.0016 -0.0076 -1.0000
vn -0.0548 -0.0075 -0.9985
vn 0.0089 -0.1804 -0.9835
vn 0.0094 -0.0378 -0.9992
vn 0.0098 0.1653 -0.9862
vn 0.0096 0.0225 -0.9997
vn -0.0027 -1.0000 0.0076
vn 1.0000 -0.0026 0.0095
vn 0.0095 -0.0077 -0.9999
vn 0.0027 1.0000 -0.0076
vn -0.0095 0.0077 0.9999
vn -1.0000 0.0026 -0.0095
vn 0.1372 -0.9897 -0.0406
vn 0.3599 -0.8663 -0.3465
vn 0.7057 -0.7060 -0.0594
vn 0.3435 0.8672 -0.3605
vn 0.1564 0.9867 -0.0451
vn 0.7780 0.6202 -0.1000
vn 0.1755 -0.9834 0.0449
vn 0.7898 -0.6053 0.0988
vn 0.3603 -0.8606 0.3600
vn 0.1188 0.9921 0.0404
vn 0.3439 0.8729 0.3459
vn 0.6915 0.7200 0.0584
vn -0.1566 -0.9872 -0.0289
vn -0.7787 -0.6211 -0.0888
vn -0.3441 -0.8729 -0.3459
vn -0.1373 0.9889 -0.0564
vn -0.3603 0.8605 -0.3600
vn -0.7056 0.7052 -0.0698
vn -0.1183 -0.9914 0.0566
vn -0.3435 -0.8672 0.3604
vn -0.6918 -0.7186 0.0709
vn -0.1751 0.9841 0.0292
vn -0.7896 0.6070 0.0901
vn -0.3599 0.8662 0.3465
vn 0.1753 -0.9845 0.0078
vn 0.7070 -0.7071 0.0052
vn 0.1566 0.9876 -0.0081
vn 0.6935 0.7204 -0.0063
vn 0.8187 0.0124 0.5741
vn -0.0090 0.9638 0.2666
vn -0.8179 -0.0032 0.5753
vn -0.1565 -0.9877 0.0081
vn -0.6934 -0.7205 0.0063
vn -0.1751 0.9845 -0.0078
vn -0.7070 0.7072 -0.0052
vn -0.9929 -0.0104 -0.1188
vn 0.0090 -0.9638 -0.2665
vn 0.3460 -0.3496 -0.8707
vn 0.1624 -0.0428 -0.9858
vn 0.7811 -0.1055 -0.6155
vn 0.1257 0.0396 -0.9913
vn 0.3564 0.3298 -0.8742
vn 0.6975 0.0475 -0.7150
vn 0.3513 -0.3409 0.8720
vn 0.7000 -0.0691 0.7108
vn 0.1302 -0.0435 0.9905
vn 0.3618 0.3386 0.8686
vn 0.1693 0.0376 0.9848
vn 0.7876 0.0813 0.6108
vn -0.3619 -0.3385 -0.8686
vn -0.7019 -0.0545 -0.7102
vn -0.1316 -0.0493 -0.9901
vn -0.3513 0.3409 -0.8720
vn -0.1681 0.0331 -0.9852
vn -0.7848 0.0995 -0.6118
vn -0.3565 -0.3300 0.8741
vn -0.1634 -0.0280 0.9862
vn -0.7838 -0.0753 0.6165
vn -0.3461 0.3493 0.8707
vn -0.6957 0.0761 0.7143
vn -0.1242 0.0532 0.9908
vn 0.8386 0.5447 -0.0052
vn 0.0070 0.2679 0.9634
vn -0.6980 0.0143 0.7159
vn -0.1629 0.0074 0.9866
vn -0.8385 -0.5448 0.0052
vn -0.8214 0.5704 -0.0003
vn -0.1689 -0.0023 -0.9856
vn -0.7023 0.0073 -0.7118
vn -0.0070 -0.2681 -0.9634
vn 0.0011 0.2586 -0.9660
vn -0.0023 0.0418 -0.9991
vn 0.9999 -0.0154 -0.0030
vn 0.1124 -0.9921 -0.0554
vn 0.3429 -0.8692 -0.3562
vn 0.6879 -0.7231 -0.0619
vn 0.3704 0.8639 -0.3413
vn 0.1821 0.9829 -0.0263
vn 0.7948 0.6016 -0.0791
vn 0.1495 -0.9883 0.0306
vn 0.7725 -0.6272 0.0992
vn 0.3334 -0.8753 0.3502
vn 0.1433 0.9879 0.0587
vn 0.3612 0.8580 0.3653
vn 0.7092 0.7005 0.0797
vn -0.1810 -0.9823 -0.0477
vn -0.7927 -0.5996 -0.1097
vn -0.3615 -0.8579 -0.3652
vn -0.1114 0.9929 -0.0416
vn -0.3337 0.8752 -0.3503
vn -0.6864 0.7241 -0.0674
vn -0.1441 -0.9888 0.0383
vn -0.3703 -0.8640 0.3412
vn -0.7109 -0.7015 0.0495
vn -0.1507 0.9876 0.0434
vn -0.7755 0.6250 0.0897
vn -0.3430 0.8692 0.3561
vn 0.6886 -0.7251 0.0028
vn 0.1818 0.9833 0.0107
vn 0.7110 0.7030 0.0151
vn 0.8108 -0.0180 0.5851
vn 0.0153 0.9982 0.0575
vn 0.0118 0.9591 0.2827
vn -0.1818 -0.9833 -0.0107
vn -0.7111 -0.7029 -0.0151
vn -0.1501 0.9886 0.0064
vn -0.6887 0.7251 -0.0028
vn -0.8108 0.0180 -0.5851
vn -0.0118 -0.9591 -0.2827
vn 0.0189 0.9638 -0.2660
vn 0.3552 -0.3444 -0.8690
vn 0.1673 -0.0406 -0.9851
vn 0.7854 -0.0936 -0.6119
vn 0.1292 0.0412 -0.9908
vn 0.3551 0.3353 -0.8726
vn 0.6999 0.0581 -0.7119
vn 0.3528 -0.3351 0.8736
vn 0.6978 -0.0580 0.7139
vn 0.1266 -0.0411 0.9911
vn 0.3528 0.3445 0.8700
vn 0.1645 0.0406 0.9855
vn 0.7836 0.0937 0.6141
vn -0.3528 -0.3446 -0.8700
vn -0.6979 -0.0656 -0.7132
vn -0.1265 -0.0517 -0.9906
vn -0.3529 0.3350 -0.8736
vn -0.1645 0.0302 -0.9859
vn -0.7836 0.0871 -0.6152
vn -0.3552 -0.3351 0.8727
vn -0.1673 -0.0303 0.9854
vn -0.7853 -0.0872 0.6130
vn -0.3553 0.3444 0.8690
vn -0.6998 0.0656 0.7113
vn -0.1294 0.0516 0.9903
vn 0.8301 -0.5576 0.0041
vn 0.1673 -0.0052 -0.9859
vn 0.7013 -0.0037 -0.7129
vn 0.1645 0.0052 0.9864
vn 0.6991 0.0038 0.7150
vn -0.0013 -0.2582 0.9661
vn -0.0014 0.2685 0.9633
vn -0.7012 0.0037 0.7129
vn -0.1674 0.0052 0.9859
vn -0.8301 -0.5577 0.0018
vn -0.1645 -0.0052 -0.9864
vn 0.0014 -0.2684 -0.9633
vn 0.0778 -0.3853 -0.9195
vn 0.0482 -0.1101 -0.9928
vn 0.2289 -0.1932 -0.9541
vn 0.0379 -0.0062 -0.9993
vn 0.0737 0.3507 -0.9336
vn 0.2171 0.0829 -0.9726
vn 0.0699 -0.3444 0.9362
vn 0.1878 -0.0651 0.9801
vn 0.0005 0.0079 1.0000
vn 0.0100 0.3890 0.9212
vn 0.0019 0.1123 0.9937
vn 0.1760 0.2110 0.9615
vn -0.0351 -0.4708 -0.8816
vn -0.1760 -0.2110 -0.9615
vn 0.0045 -0.1256 -0.9921
vn -0.0377 0.2604 -0.9648
vn -0.0058 -0.0219 -0.9997
vn -0.1878 0.0651 -0.9801
vn -0.0500 -0.2642 0.9632
vn -0.0443 0.0197 0.9988
vn -0.2171 -0.0829 0.9726
vn -0.1085 0.4647 0.8788
vn -0.2289 0.1932 0.9541
vn -0.0429 0.1240 0.9914
vn -0.0062 -0.2624 0.9649
vn -0.0339 0.3875 0.9212
vn 0.0339 -0.3876 -0.9212
vn 0.0187 -0.0070 -0.9998
vn 0.0290 -0.1805 -0.9831
vn 0.0205 -0.0308 -0.9993
vn 0.1006 -0.0801 -0.9917
vn 0.0180 0.0225 -0.9996
vn 0.0437 0.2153 -0.9756
vn 0.1010 0.0644 -0.9928
vn 0.0240 -0.2155 0.9762
vn 0.0818 -0.0649 0.9945
vn -0.0011 -0.0224 0.9997
vn 0.0113 0.1803 0.9836
vn 0.0016 0.0307 0.9995
vn 0.0821 0.0796 0.9934
vn -0.0252 -0.2305 -0.9728
vn -0.0821 -0.0796 -0.9934
vn 0.0009 -0.0378 -0.9993
vn -0.0104 0.1654 -0.9862
vn -0.0015 0.0156 -0.9999
vn -0.0817 0.0649 -0.9945
vn -0.0300 -0.1653 0.9858
vn -0.0206 -0.0154 0.9997
vn -0.1010 -0.0644 0.9928
vn -0.0425 0.2304 0.9722
vn -0.1006 0.0800 0.9917
vn -0.0179 0.0378 0.9991
vn 0.6607 -0.7505 0.0120
vn 0.0089 -0.1804 -0.9836
vn 0.0098 0.1654 -0.9862
vn 0.0096 0.0224 -0.9997
vt 0.128500 0.746500
vt 0.126479 0.750000
vt 0.125000 0.746500
vt 0.378500 1.000000
vt 0.375000 0.996500
vt 0.378500 0.996500
vt 0.378500 0.003500
vt 0.375000 0.001479
vt 0.378500 0.000000
vt 0.625000 0.996500
vt 0.621500 1.000000
vt 0.621500 0.996500
vt 0.871500 0.746500
vt 0.875000 0.748521
vt 0.871500 0.750000
vt 0.621500 0.003500
vt 0.623521 0.000000
vt 0.625000 0.003500
vt 0.128500 0.503500
vt 0.125000 0.501479
vt 0.128500 0.500000
vt 0.378500 0.246500
vt 0.375740 0.250740
vt 0.375000 0.246500
vt 0.375000 0.253500
vt 0.378500 0.250000
vt 0.378500 0.253500
vt 0.871500 0.503500
vt 0.873521 0.500000
vt 0.875000 0.503500
vt 0.621500 0.250000
vt 0.625000 0.253500
vt 0.621500 0.253500
vt 0.621500 0.246500
vt 0.624260 0.249260
vt 0.371500 0.746500
vt 0.375493 0.750000
vt 0.373250 0.751750
vt 0.378500 0.746500
vt 0.375000 0.746500
vt 0.378500 0.750000
vt 0.378500 0.753500
vt 0.628500 0.746500
vt 0.625000 0.749507
vt 0.625000 0.746500
vt 0.621500 0.750000
vt 0.626750 0.751750
vt 0.621500 0.753500
vt 0.621500 0.746500
vt 0.371500 0.503500
vt 0.375000 0.500493
vt 0.375000 0.503500
vt 0.378500 0.500000
vt 0.373250 0.498250
vt 0.378500 0.496500
vt 0.378500 0.503500
vt 0.628500 0.503500
vt 0.624507 0.500000
vt 0.626750 0.498250
vt 0.621500 0.503500
vt 0.625000 0.503500
vt 0.621500 0.500000
vt 0.621500 0.496500
vt 0.125000 0.503500
vt 0.375000 0.003500
vt 0.875000 0.746500
vt 0.871500 0.500000
vt 0.128500 0.750000
vt 0.376479 1.000000
vt 0.625000 0.998521
vt 0.871500 0.746500
vt 0.378500 0.250000
vt 0.621500 0.746500
vt 0.371500 0.503500
vt 0.621500 0.000000
vt 0.625000 0.246500
vt 0.871500 0.746500
vt 0.378500 0.246500
vt 0.378500 0.746500
vt 0.378500 0.753500
vt 0.625000 0.746500
vt 0.621500 0.753500
vt 0.621500 0.746500
vt 0.628500 0.503500
vt 0.128500 0.503500
vt 0.378500 0.253500
vt 0.871500 0.503500
vt 0.621500 0.246500
vt 0.621500 0.496500
vt 0.128500 0.746500
vt 0.621500 0.253500
vt 0.371500 0.746500
vt 0.626750 0.498250
vt 0.371500 0.746500
s 0
usemtl iron
f 1/1/1 5/2/1 7/3/1
f 6/4/2 4/5/2 2/6/2
f 3/7/3 5/8/3 6/9/3
f 11/10/4 14/11/4 8/12/4
f 9/13/5 12/14/5 11/15/5
f 10/16/6 12/17/6 13/18/6
f 15/19/7 19/20/7 21/21/7
f 16/22/8 19/23/8 18/24/8
f 21/25/9 20/26/9 17/27/9
f 22/28/10 26/29/10 28/30/10
f 27/31/11 25/32/11 23/33/11
f 24/34/12 26/35/12 27/31/12
f 29/36/13 33/37/13 35/38/13
f 30/39/14 33/37/14 32/40/14
f 35/38/15 34/41/15 31/42/15
f 36/43/16 40/44/16 42/45/16
f 41/46/17 39/47/17 37/48/17
f 38/49/18 40/44/18 41/46/18
f 43/50/19 47/51/19 49/52/19
f 48/53/20 46/54/20 44/55/20
f 45/56/21 47/51/21 48/53/21
f 50/57/22 54/58/22 56/59/22
f 51/60/23 54/58/23 53/61/23
f 56/59/24 55/62/24 52/63/24
f 1/1/25 18/64/25 15/19/25
f 7/65/26 16/22/26 18/24/26
f 2/6/27 14/11/27 6/4/27
f 6/9/28 10/16/28 3/7/28
f 22/28/29 13/66/29 9/13/29
f 13/18/30 24/34/30 10/16/30
f 17/27/31 27/31/31 23/33/31
f 20/26/32 24/34/32 27/31/32
f 43/50/33 21/21/33 46/54/33
f 46/54/34 17/27/34 44/55/34
f 50/57/35 25/67/35 22/28/35
f 56/59/36 23/33/36 25/32/36
f 45/56/37 55/62/37 51/60/37
f 48/53/38 52/63/38 55/62/38
f 29/36/39 49/52/39 32/40/39
f 49/52/40 30/39/40 32/40/40
f 50/57/41 42/45/41 53/61/41
f 53/61/42 38/49/42 51/60/42
f 31/42/43 41/46/43 37/48/43
f 41/46/44 30/39/44 38/49/44
f 1/1/45 35/38/45 4/68/45
f 35/38/46 2/6/46 4/5/46
f 9/13/47 39/47/47 36/43/47
f 11/10/48 37/48/48 39/47/48
f 43/50/49 1/1/49 15/19/49
f 3/7/50 24/34/50 16/22/50
f 37/48/51 2/6/51 31/42/51
f 22/28/52 36/43/52 50/57/52
f 17/27/53 52/63/53 44/55/53
f 51/60/54 30/39/54 45/56/54
f 60/68/55 63/3/55 57/1/55
f 58/6/56 61/69/56 60/5/56
f 59/7/57 61/8/57 62/9/57
f 64/12/58 68/70/58 70/11/58
f 69/66/59 67/15/59 65/71/59
f 66/16/60 68/17/60 69/18/60
f 74/64/61 77/21/61 71/19/61
f 72/22/62 75/23/62 74/24/62
f 73/27/63 75/23/63 76/72/63
f 81/67/64 84/30/64 78/28/64
f 79/33/65 82/35/65 81/32/65
f 80/34/66 82/35/66 83/31/66
f 88/40/67 91/38/67 85/36/67
f 86/39/68 89/37/68 88/40/68
f 87/42/69 89/37/69 90/41/69
f 95/47/70 98/45/70 92/43/70
f 93/48/71 96/44/71 95/47/71
f 94/73/72 96/44/72 97/46/72
f 102/54/73 105/52/73 99/74/73
f 100/55/74 103/51/74 102/54/74
f 101/56/75 103/51/75 104/53/75
f 109/61/76 112/59/76 106/57/76
f 107/60/77 110/58/77 109/61/77
f 108/63/78 110/58/78 111/62/78
f 71/19/79 63/3/79 74/64/79
f 74/24/80 59/7/80 72/22/80
f 64/12/81 62/4/81 58/6/81
f 70/75/82 59/7/82 62/9/82
f 78/28/83 69/66/83 65/71/83
f 84/76/84 66/16/84 69/18/84
f 79/33/85 76/72/85 83/31/85
f 76/72/86 80/34/86 83/31/86
f 71/19/87 102/54/87 99/74/87
f 102/54/88 73/27/88 100/55/88
f 106/57/89 81/67/89 78/28/89
f 112/59/90 79/33/90 81/32/90
f 101/56/91 111/62/91 107/60/91
f 111/62/92 100/55/92 108/63/92
f 85/36/93 105/52/93 88/40/93
f 88/40/94 101/56/94 86/39/94
f 106/57/95 98/45/95 109/61/95
f 98/45/96 107/60/96 109/61/96
f 93/48/97 90/41/97 97/46/97
f 90/41/98 94/73/98 97/46/98
f 57/1/99 91/38/99 60/68/99
f 91/38/100 58/6/100 60/5/100
f 65/71/101 95/47/101 92/43/101
f 67/10/102 93/48/102 95/47/102
f 99/74/103 57/1/103 71/19/103
f 59/7/104 80/34/104 72/22/104
f 93/48/105 58/6/105 87/42/105
f 106/57/106 65/71/106 92/43/106
f 79/33/107 100/55/107 73/27/107
f 101/56/108 94/73/108 86/39/108
f 113/1/109 117/2/109 119/3/109
f 118/4/110 116/5/110 114/6/110
f 115/7/111 117/8/111 118/9/111
f 123/10/112 126/11/112 120/12/112
f 121/77/113 124/14/113 123/15/113
f 122/16/114 124/17/114 125/18/114
f 127/19/115 131/20/115 133/21/115
f 128/78/116 131/23/116 130/24/116
f 133/25/117 132/72/117 129/27/117
f 134/28/118 138/29/118 140/30/118
f 139/31/119 137/32/119 135/33/119
f 136/34/120 138/35/120 139/31/120
f 141/36/121 145/37/121 147/38/121
f 142/79/122 145/37/122 144/40/122
f 147/38/123 146/41/123 143/80/123
f 148/43/124 152/44/124 154/81/124
f 153/46/125 151/47/125 149/82/125
f 150/83/126 152/44/126 153/46/126
f 155/74/127 159/51/127 161/52/127
f 160/53/128 158/54/128 156/55/128
f 157/56/129 159/51/129 160/53/129
f 162/84/130 166/58/130 168/59/130
f 163/60/131 166/58/131 165/61/131
f 168/59/132 167/62/132 164/63/132
f 113/1/133 130/64/133 127/19/133
f 119/65/134 128/78/134 130/24/134
f 120/12/135 118/4/135 114/6/135
f 118/9/136 122/16/136 115/7/136
f 134/28/137 125/66/137 121/77/137
f 125/18/138 136/34/138 122/16/138
f 129/27/139 139/31/139 135/33/139
f 139/31/140 128/78/140 136/34/140
f 155/74/141 133/21/141 158/54/141
f 133/25/142 156/55/142 158/54/142
f 134/28/143 168/59/143 137/67/143
f 168/59/144 135/33/144 137/32/144
f 157/56/145 167/62/145 163/60/145
f 167/62/146 156/55/146 164/63/146
f 155/74/147 144/40/147 141/36/147
f 144/40/148 157/56/148 142/79/148
f 148/43/149 165/61/149 162/84/149
f 165/61/150 150/83/150 163/60/150
f 143/80/151 153/46/151 149/82/151
f 146/41/152 150/83/152 153/46/152
f 141/36/153 116/68/153 113/1/153
f 147/38/154 114/6/154 116/5/154
f 148/43/155 123/15/155 151/47/155
f 123/10/156 149/82/156 151/47/156
f 155/74/157 113/1/157 127/19/157
f 122/16/158 128/78/158 115/7/158
f 149/82/159 114/6/159 143/80/159
f 134/28/160 148/43/160 162/84/160
f 129/27/161 164/63/161 156/55/161
f 163/60/162 142/79/162 157/56/162
f 172/68/163 175/3/163 169/1/163
f 170/6/164 173/69/164 172/5/164
f 171/7/165 173/8/165 174/9/165
f 176/12/166 180/70/166 182/11/166
f 181/66/167 179/15/167 177/71/167
f 178/16/168 180/17/168 181/18/168
f 186/64/169 189/21/169 183/85/169
f 184/22/170 187/23/170 186/24/170
f 185/86/171 187/23/171 188/72/171
f 193/67/172 196/30/172 190/87/172
f 191/33/173 194/35/173 193/32/173
f 192/88/174 194/35/174 195/31/174
f 200/40/175 203/38/175 197/36/175
f 198/79/176 201/37/176 200/40/176
f 199/80/177 201/37/177 202/41/177
f 207/47/178 210/45/178 204/43/178
f 205/82/179 208/44/179 207/47/179
f 206/83/180 208/44/180 209/46/180
f 214/54/181 217/52/181 211/50/181
f 212/55/182 215/51/182 214/54/182
f 213/56/183 215/51/183 216/53/183
f 221/61/184 224/59/184 218/57/184
f 219/60/185 222/58/185 221/61/185
f 220/89/186 222/58/186 223/62/186
f 169/1/187 186/64/187 183/85/187
f 186/24/188 171/7/188 184/22/188
f 176/12/189 174/4/189 170/6/189
f 182/75/190 171/7/190 174/9/190
f 177/71/191 196/30/191 181/66/191
f 181/18/192 192/88/192 178/16/192
f 185/86/193 195/31/193 191/33/193
f 188/72/194 192/88/194 195/31/194
f 211/50/195 189/21/195 214/54/195
f 214/54/196 185/86/196 212/55/196
f 190/87/197 224/59/197 193/67/197
f 224/59/198 191/33/198 193/32/198
f 213/56/199 223/62/199 219/60/199
f 223/62/200 212/55/200 220/89/200
f 211/50/201 200/40/201 197/36/201
f 200/40/202 213/56/202 198/79/202
f 204/43/203 221/61/203 218/57/203
f 210/45/204 219/60/204 221/61/204
f 199/80/205 209/46/205 205/82/205
f 202/41/206 206/83/206 209/46/206
f 169/1/207 203/38/207 172/68/207
f 203/38/208 170/6/208 172/5/208
f 177/71/209 207/47/209 204/43/209
f 179/10/210 205/82/210 207/47/210
f 183/85/211 197/36/211 169/1/211
f 171/7/212 192/88/212 184/22/212
f 205/82/213 170/6/213 199/80/213
f 218/57/214 177/71/214 204/43/214
f 191/33/215 212/55/215 185/86/215
f 213/56/216 206/83/216 198/79/216
f 1/1/325 4/68/325 5/2/325
f 6/4/326 5/69/326 4/5/326
f 3/7/327 7/65/327 5/8/327
f 11/10/328 12/70/328 14/11/328
f 9/13/329 13/66/329 12/14/329
f 10/16/330 14/75/330 12/17/330
f 15/19/331 18/64/331 19/20/331
f 16/22/332 20/26/332 19/23/332
f 21/25/333 19/23/333 20/26/333
f 22/28/334 25/67/334 26/29/334
f 27/31/335 26/35/335 25/32/335
f 24/34/336 28/76/336 26/35/336
f 29/36/337 32/40/337 33/37/337
f 30/39/338 34/41/338 33/37/338
f 35/38/339 33/37/339 34/41/339
f 36/43/340 39/47/340 40/44/340
f 41/46/341 40/44/341 39/47/341
f 38/49/342 42/45/342 40/44/342
f 43/50/343 46/54/343 47/51/343
f 48/53/344 47/51/344 46/54/344
f 45/56/345 49/52/345 47/51/345
f 50/57/346 53/61/346 54/58/346
f 51/60/347 55/62/347 54/58/347
f 56/59/348 54/58/348 55/62/348
f 1/1/349 7/3/349 18/64/349
f 7/65/350 3/7/350 16/22/350
f 2/6/27 8/12/27 14/11/27
f 6/9/28 14/75/28 10/16/28
f 22/28/351 28/30/351 13/66/351
f 13/18/352 28/76/352 24/34/352
f 17/27/353 20/26/353 27/31/353
f 20/26/32 16/22/32 24/34/32
f 43/50/33 15/19/33 21/21/33
f 46/54/34 21/25/34 17/27/34
f 50/57/35 56/59/35 25/67/35
f 56/59/354 52/63/354 23/33/354
f 45/56/37 48/53/37 55/62/37
f 48/53/355 44/55/355 52/63/355
f 29/36/356 43/50/356 49/52/356
f 49/52/357 45/56/357 30/39/357
f 50/57/358 36/43/358 42/45/358
f 53/61/359 42/45/359 38/49/359
f 31/42/43 34/41/43 41/46/43
f 41/46/360 34/41/360 30/39/360
f 1/1/45 29/36/45 35/38/45
f 35/38/361 31/42/361 2/6/361
f 9/13/47 11/15/47 39/47/47
f 11/10/48 8/12/48 37/48/48
f 43/50/49 29/36/49 1/1/49
f 3/7/50 10/16/50 24/34/50
f 37/48/51 8/12/51 2/6/51
f 22/28/52 9/13/52 36/43/52
f 17/27/53 23/33/53 52/63/53
f 51/60/54 38/49/54 30/39/54
f 60/68/362 61/2/362 63/3/362
f 58/6/363 62/4/363 61/69/363
f 59/7/364 63/65/364 61/8/364
f 64/12/365 67/10/365 68/70/365
f 69/66/366 68/14/366 67/15/366
f 66/16/367 70/75/367 68/17/367
f 74/64/368 75/20/368 77/21/368
f 72/22/369 76/72/369 75/23/369
f 73/27/370 77/25/370 75/23/370
f 81/67/371 82/29/371 84/30/371
f 79/33/372 83/31/372 82/35/372
f 80/34/373 84/76/373 82/35/373
f 88/40/374 89/37/374 91/38/374
f 86/39/375 90/41/375 89/37/375
f 87/42/376 91/38/376 89/37/376
f 95/47/377 96/44/377 98/45/377
f 93/48/378 97/46/378 96/44/378
f 94/73/379 98/45/379 96/44/379
f 102/54/380 103/51/380 105/52/380
f 100/55/381 104/53/381 103/51/381
f 101/56/382 105/52/382 103/51/382
f 109/61/383 110/58/383 112/59/383
f 107/60/384 111/62/384 110/58/384
f 108/63/385 112/59/385 110/58/385
f 71/19/79 57/1/79 63/3/79
f 74/24/80 63/65/80 59/7/80
f 64/12/81 70/11/81 62/4/81
f 70/75/82 66/16/82 59/7/82
f 78/28/386 84/30/386 69/66/386
f 84/76/84 80/34/84 66/16/84
f 79/33/85 73/27/85 76/72/85
f 76/72/86 72/22/86 80/34/86
f 71/19/87 77/21/87 102/54/87
f 102/54/88 77/25/88 73/27/88
f 106/57/387 112/59/387 81/67/387
f 112/59/90 108/63/90 79/33/90
f 101/56/388 104/53/388 111/62/388
f 111/62/389 104/53/389 100/55/389
f 85/36/390 99/74/390 105/52/390
f 88/40/94 105/52/94 101/56/94
f 106/57/391 92/43/391 98/45/391
f 98/45/96 94/73/96 107/60/96
f 93/48/392 87/42/392 90/41/392
f 90/41/393 86/39/393 94/73/393
f 57/1/394 85/36/394 91/38/394
f 91/38/100 87/42/100 58/6/100
f 65/71/395 67/15/395 95/47/395
f 67/10/396 64/12/396 93/48/396
f 99/74/103 85/36/103 57/1/103
f 59/7/397 66/16/397 80/34/397
f 93/48/105 64/12/105 58/6/105
f 106/57/106 78/28/106 65/71/106
f 79/33/107 108/63/107 100/55/107
f 101/56/108 107/60/108 94/73/108
f 113/1/398 116/68/398 117/2/398
f 118/4/399 117/69/399 116/5/399
f 115/7/400 119/65/400 117/8/400
f 123/10/401 124/70/401 126/11/401
f 121/77/402 125/66/402 124/14/402
f 122/16/403 126/75/403 124/17/403
f 127/19/404 130/64/404 131/20/404
f 128/78/405 132/72/405 131/23/405
f 133/25/406 131/23/406 132/72/406
f 134/28/407 137/67/407 138/29/407
f 139/31/408 138/35/408 137/32/408
f 136/34/409 140/76/409 138/35/409
f 141/36/410 144/40/410 145/37/410
f 142/79/411 146/41/411 145/37/411
f 147/38/412 145/37/412 146/41/412
f 148/43/413 151/47/413 152/44/413
f 153/46/414 152/44/414 151/47/414
f 150/83/415 154/81/415 152/44/415
f 155/74/416 158/54/416 159/51/416
f 160/53/417 159/51/417 158/54/417
f 157/56/418 161/52/418 159/51/418
f 162/84/419 165/61/419 166/58/419
f 163/60/420 167/62/420 166/58/420
f 168/59/421 166/58/421 167/62/421
f 113/1/133 119/3/133 130/64/133
f 119/65/422 115/7/422 128/78/422
f 120/12/135 126/11/135 118/4/135
f 118/9/136 126/75/136 122/16/136
f 134/28/423 140/30/423 125/66/423
f 125/18/424 140/76/424 136/34/424
f 129/27/425 132/72/425 139/31/425
f 139/31/140 132/72/140 128/78/140
f 155/74/141 127/19/141 133/21/141
f 133/25/142 129/27/142 156/55/142
f 134/28/426 162/84/426 168/59/426
f 168/59/427 164/63/427 135/33/427
f 157/56/145 160/53/145 167/62/145
f 167/62/146 160/53/146 156/55/146
f 155/74/428 161/52/428 144/40/428
f 144/40/429 161/52/429 157/56/429
f 148/43/430 154/81/430 165/61/430
f 165/61/431 154/81/431 150/83/431
f 143/80/432 146/41/432 153/46/432
f 146/41/152 142/79/152 150/83/152
f 141/36/153 147/38/153 116/68/153
f 147/38/433 143/80/433 114/6/433
f 148/43/155 121/77/155 123/15/155
f 123/10/434 120/12/434 149/82/434
f 155/74/157 141/36/157 113/1/157
f 122/16/158 136/34/158 128/78/158
f 149/82/159 120/12/159 114/6/159
f 134/28/160 121/77/160 148/43/160
f 129/27/161 135/33/161 164/63/161
f 163/60/162 150/83/162 142/79/162
f 172/68/435 173/2/435 175/3/435
f 170/6/436 174/4/436 173/69/436
f 171/7/437 175/65/437 173/8/437
f 176/12/438 179/10/438 180/70/438
f 181/66/439 180/14/439 179/15/439
f 178/16/440 182/75/440 180/17/440
f 186/64/441 187/20/441 189/21/441
f 184/22/442 188/72/442 187/23/442
f 185/86/443 189/25/443 187/23/443
f 193/67/444 194/29/444 196/30/444
f 191/33/445 195/31/445 194/35/445
f 192/88/446 196/76/446 194/35/446
f 200/40/447 201/37/447 203/38/447
f 198/79/448 202/41/448 201/37/448
f 199/80/449 203/38/449 201/37/449
f 207/47/450 208/44/450 210/45/450
f 205/82/451 209/46/451 208/44/451
f 206/83/452 210/45/452 208/44/452
f 214/54/453 215/51/453 217/52/453
f 212/55/454 216/53/454 215/51/454
f 213/56/455 217/52/455 215/51/455
f 221/61/456 222/58/456 224/59/456
f 219/60/457 223/62/457 222/58/457
f 220/89/458 224/59/458 222/58/458
f 169/1/459 175/3/459 186/64/459
f 186/24/188 175/65/188 171/7/188
f 176/12/460 182/11/460 174/4/460
f 182/75/461 178/16/461 171/7/461
f 177/71/191 190/87/191 196/30/191
f 181/18/192 196/76/192 192/88/192
f 185/86/462 188/72/462 195/31/462
f 188/72/463 184/22/463 192/88/463
f 211/50/464 183/85/464 189/21/464
f 214/54/196 189/25/196 185/86/196
f 190/87/465 218/57/465 224/59/465
f 224/59/198 220/89/198 191/33/198
f 213/56/466 216/53/466 223/62/466
f 223/62/467 216/53/467 212/55/467
f 211/50/468 217/52/468 200/40/468
f 200/40/202 217/52/202 213/56/202
f 204/43/203 210/45/203 221/61/203
f 210/45/204 206/83/204 219/60/204
f 199/80/469 202/41/469 209/46/469
f 202/41/206 198/79/206 206/83/206
f 169/1/470 197/36/470 203/38/470
f 203/38/208 199/80/208 170/6/208
f 177/71/209 179/15/209 207/47/209
f 179/10/210 176/12/210 205/82/210
f 183/85/211 211/50/211 197/36/211
f 171/7/212 178/16/212 192/88/212
f 205/82/213 176/12/213 170/6/213
f 218/57/214 190/87/214 177/71/214
f 191/33/215 220/89/215 212/55/215
f 213/56/216 219/60/216 206/83/216
usemtl wood
f 225/90/217 229/2/217 231/3/217
f 226/6/218 229/69/218 228/5/218
f 231/65/219 230/9/219 227/7/219
f 232/12/220 236/70/220 238/11/220
f 233/71/221 236/14/221 235/15/221
f 238/75/222 237/18/222 234/16/222
f 239/85/223 243/20/223 245/21/223
f 244/72/224 242/24/224 240/22/224
f 241/86/225 243/23/225 244/72/225
f 246/28/226 250/29/226 252/30/226
f 247/91/227 250/35/227 249/32/227
f 252/76/228 251/31/228 248/34/228
f 253/92/229 257/37/229 259/38/229
f 258/41/230 256/40/230 254/39/230
f 255/80/231 257/37/231 258/41/231
f 260/43/232 264/44/232 266/45/232
f 261/48/233 264/44/233 263/47/233
f 266/45/234 265/46/234 262/73/234
f 267/50/235 271/51/235 273/52/235
f 268/55/236 271/51/236 270/54/236
f 273/52/237 272/53/237 269/56/237
f 274/57/238 278/58/238 280/93/238
f 279/62/239 277/61/239 275/60/239
f 276/89/240 278/58/240 279/62/240
f 225/90/241 242/64/241 239/85/241
f 242/24/242 227/7/242 240/22/242
f 232/12/243 230/4/243 226/6/243
f 238/75/244 227/7/244 230/9/244
f 233/71/245 252/30/245 237/66/245
f 252/76/246 234/16/246 237/18/246
f 241/86/247 251/31/247 247/91/247
f 251/31/248 240/22/248 248/34/248
f 267/50/249 245/21/249 270/54/249
f 245/25/250 268/55/250 270/54/250
f 274/57/251 249/67/251 246/28/251
f 249/32/252 276/89/252 247/91/252
f 269/56/253 279/62/253 275/60/253
f 279/62/254 268/55/254 276/89/254
f 253/92/255 273/52/255 256/40/255
f 273/52/256 254/39/256 256/40/256
f 274/57/257 266/45/257 277/61/257
f 266/45/258 275/60/258 277/61/258
f 261/48/259 258/41/259 265/46/259
f 258/41/260 262/73/260 265/46/260
f 253/92/261 228/68/261 225/90/261
f 259/38/262 226/6/262 228/5/262
f 233/71/263 263/47/263 260/43/263
f 263/47/264 232/12/264 261/48/264
f 267/50/265 225/90/265 239/85/265
f 234/16/266 240/22/266 227/7/266
f 261/48/267 226/6/267 255/80/267
f 246/28/268 260/43/268 274/57/268
f 247/91/269 268/55/269 241/86/269
f 275/60/270 254/39/270 269/56/270
f 225/90/471 228/68/471 229/2/471
f 226/6/472 230/4/472 229/69/472
f 231/65/473 229/8/473 230/9/473
f 232/12/474 235/10/474 236/70/474
f 233/71/475 237/66/475 236/14/475
f 238/75/476 236/17/476 237/18/476
f 239/85/477 242/64/477 243/20/477
f 244/72/478 243/23/478 242/24/478
f 241/86/479 245/25/479 243/23/479
f 246/28/480 249/67/480 250/29/480
f 247/91/481 251/31/481 250/35/481
f 252/76/482 250/35/482 251/31/482
f 253/92/483 256/40/483 257/37/483
f 258/41/484 257/37/484 256/40/484
f 255/80/485 259/38/485 257/37/485
f 260/43/486 263/47/486 264/44/486
f 261/48/487 265/46/487 264/44/487
f 266/45/488 264/44/488 265/46/488
f 267/50/489 270/54/489 271/51/489
f 268/55/490 272/53/490 271/51/490
f 273/52/491 271/51/491 272/53/491
f 274/57/492 277/61/492 278/58/492
f 279/62/493 278/58/493 277/61/493
f 276/89/494 280/93/494 278/58/494
f 225/90/241 231/3/241 242/64/241
f 242/24/242 231/65/242 227/7/242
f 232/12/243 238/11/243 230/4/243
f 238/75/244 234/16/244 227/7/244
f 233/71/245 246/28/245 252/30/245
f 252/76/246 248/34/246 234/16/246
f 241/86/247 244/72/247 251/31/247
f 251/31/248 244/72/248 240/22/248
f 267/50/495 239/85/495 245/21/495
f 245/25/250 241/86/250 268/55/250
f 274/57/496 280/93/496 249/67/496
f 249/32/252 280/93/252 276/89/252
f 269/56/253 272/53/253 279/62/253
f 279/62/254 272/53/254 268/55/254
f 253/92/255 267/50/255 273/52/255
f 273/52/256 269/56/256 254/39/256
f 274/57/257 260/43/257 266/45/257
f 266/45/258 262/73/258 275/60/258
f 261/48/259 255/80/259 258/41/259
f 258/41/260 254/39/260 262/73/260
f 253/92/497 259/38/497 228/68/497
f 259/38/262 255/80/262 226/6/262
f 233/71/263 235/15/263 263/47/263
f 263/47/498 235/10/498 232/12/498
f 267/50/265 253/92/265 225/90/265
f 234/16/266 248/34/266 240/22/266
f 261/48/267 232/12/267 226/6/267
f 246/28/268 233/71/268 260/43/268
f 247/91/269 276/89/269 268/55/269
f 275/60/270 262/73/270 254/39/270
usemtl slate
f 281/90/271 285/2/271 287/3/271
f 282/6/272 285/69/272 284/5/272
f 287/65/273 286/9/273 283/7/273
f 288/12/274 292/70/274 294/11/274
f 289/71/275 292/14/275 291/15/275
f 294/75/276 293/18/276 290/16/276
f 295/19/277 299/20/277 301/21/277
f 300/72/278 298/24/278 296/22/278
f 297/86/279 299/23/279 300/72/279
f 302/87/280 306/29/280 308/30/280
f 303/91/281 306/35/281 305/32/281
f 308/76/282 307/31/282 304/34/282
f 309/94/283 313/37/283 315/38/283
f 314/41/284 312/40/284 310/39/284
f 311/42/285 313/37/285 314/41/285
f 316/43/286 320/44/286 322/45/286
f 317/48/287 320/44/287 319/47/287
f 322/45/288 321/46/288 318/73/288
f 323/50/289 327/51/289 329/52/289
f 324/55/290 327/51/290 326/54/290
f 329/52/291 328/53/291 325/56/291
f 330/57/292 334/58/292 336/59/292
f 335/62/293 333/61/293 331/60/293
f 332/89/294 334/58/294 335/62/294
f 295/19/295 287/3/295 298/64/295
f 298/24/296 283/7/296 296/22/296
f 288/12/297 286/4/297 282/6/297
f 294/75/298 283/7/298 286/9/298
f 289/71/299 308/30/299 293/66/299
f 308/76/300 290/16/300 293/18/300
f 297/86/301 307/31/301 303/91/301
f 300/72/302 304/34/302 307/31/302
f 295/19/303 326/54/303 323/50/303
f 301/25/304 324/55/304 326/54/304
f 330/57/305 305/67/305 302/87/305
f 336/59/306 303/91/306 305/32/306
f 331/60/307 328/53/307 335/62/307
f 328/53/308 332/89/308 335/62/308
f 309/94/309 329/52/309 312/40/309
f 329/52/310 310/39/310 312/40/310
f 316/43/311 333/61/311 330/57/311
f 322/45/312 331/60/312 333/61/312
f 311/42/313 321/46/313 317/48/313
f 314/41/314 318/73/314 321/46/314
f 281/90/315 315/38/315 284/68/315
f 315/38/316 282/6/316 284/5/316
f 289/71/317 319/47/317 316/43/317
f 291/10/318 317/48/318 319/47/318
f 323/50/319 281/90/319 295/19/319
f 290/16/320 296/22/320 283/7/320
f 317/48/321 282/6/321 311/42/321
f 330/57/322 289/71/322 316/43/322
f 303/91/323 324/55/323 297/86/323
f 331/60/324 310/39/324 325/56/324
f 281/90/499 284/68/499 285/2/499
f 282/6/500 286/4/500 285/69/500
f 287/65/501 285/8/501 286/9/501
f 288/12/502 291/10/502 292/70/502
f 289/71/503 293/66/503 292/14/503
f 294/75/504 292/17/504 293/18/504
f 295/19/505 298/64/505 299/20/505
f 300/72/506 299/23/506 298/24/506
f 297/86/507 301/25/507 299/23/507
f 302/87/508 305/67/508 306/29/508
f 303/91/509 307/31/509 306/35/509
f 308/76/510 306/35/510 307/31/510
f 309/94/511 312/40/511 313/37/511
f 314/41/512 313/37/512 312/40/512
f 311/42/513 315/38/513 313/37/513
f 316/43/514 319/47/514 320/44/514
f 317/48/515 321/46/515 320/44/515
f 322/45/516 320/44/516 321/46/516
f 323/50/517 326/54/517 327/51/517
f 324/55/518 328/53/518 327/51/518
f 329/52/519 327/51/519 328/53/519
f 330/57/520 333/61/520 334/58/520
f 335/62/521 334/58/521 333/61/521
f 332/89/522 336/59/522 334/58/522
f 295/19/295 281/90/295 287/3/295
f 298/24/523 287/65/523 283/7/523
f 288/12/297 294/11/297 286/4/297
f 294/75/298 290/16/298 283/7/298
f 289/71/299 302/87/299 308/30/299
f 308/76/300 304/34/300 290/16/300
f 297/86/301 300/72/301 307/31/301
f 300/72/302 296/22/302 304/34/302
f 295/19/303 301/21/303 326/54/303
f 301/25/304 297/86/304 324/55/304
f 330/57/305 336/59/305 305/67/305
f 336/59/306 332/89/306 303/91/306
f 331/60/307 325/56/307 328/53/307
f 328/53/308 324/55/308 332/89/308
f 309/94/309 323/50/309 329/52/309
f 329/52/310 325/56/310 310/39/310
f 316/43/311 322/45/311 333/61/311
f 322/45/312 318/73/312 331/60/312
f 311/42/313 314/41/313 321/46/313
f 314/41/314 310/39/314 318/73/314
f 281/90/524 309/94/524 315/38/524
f 315/38/316 311/42/316 282/6/316
f 289/71/525 291/15/525 319/47/525
f 291/10/526 288/12/526 317/48/526
f 323/50/319 309/94/319 281/90/319
f 290/16/320 304/34/320 296/22/320
f 317/48/321 288/12/321 282/6/321
f 330/57/322 302/87/322 289/71/322
f 303/91/323 332/89/323 324/55/323
f 331/60/324 318/73/324 310/39/324
