# Blender 4.5.10 LTS
# www.blender.org
mtllib stow_carrier_crook.mtl
o stow_carrier_crook
v 0.123711 1.000751 -0.000249
v 0.130854 1.015401 -0.011751
v 0.131500 1.015401 0.010826
v 0.129228 1.005349 -0.008396
v 0.133156 1.007485 -0.000519
v 0.134735 1.015708 -0.000564
v 0.129685 1.005349 0.007569
v 0.112195 1.104144 0.000080
v 0.123073 1.091047 0.011067
v 0.122428 1.091047 -0.011510
v 0.119073 1.100615 0.007872
v 0.122945 1.099151 -0.000227
v 0.126309 1.091354 -0.000323
v 0.118617 1.100615 -0.008092
v 0.117930 1.000232 0.008239
v 0.130242 1.015289 0.012672
v 0.109049 1.013444 0.020260
v 0.127122 1.005119 0.011331
v 0.120770 1.006374 0.017664
v 0.120842 1.014461 0.019832
v 0.112136 1.003815 0.016697
v 0.108132 1.103779 0.006045
v 0.101880 1.089203 0.018656
v 0.123073 1.091047 0.011067
v 0.103108 1.099222 0.014676
v 0.112083 1.098176 0.015719
v 0.113674 1.090220 0.018227
v 0.118094 1.100527 0.009310
v 0.108099 0.999392 0.005341
v 0.106911 1.013261 0.019630
v 0.093167 1.012121 0.001743
v 0.107779 1.003442 0.015413
v 0.099711 1.004574 0.011456
v 0.097220 1.012443 0.012868
v 0.098060 1.002636 0.002764
v 0.101223 1.103189 0.004009
v 0.088136 1.088063 0.000768
v 0.101880 1.089203 0.018656
v 0.091725 1.098274 0.001537
v 0.093615 1.096598 0.010275
v 0.092189 1.088384 0.011894
v 0.101443 1.099080 0.014185
v 0.107805 0.999392 -0.004938
v 0.093103 1.012121 -0.000492
v 0.105802 1.013261 -0.019136
v 0.097930 1.002636 -0.001792
v 0.099081 1.004574 -0.010564
v 0.096514 1.012443 -0.011831
v 0.106910 1.003442 -0.014975
v 0.101017 1.103189 -0.003215
v 0.100835 1.089203 -0.017875
v 0.088136 1.088063 0.000768
v 0.100655 1.099080 -0.013387
v 0.093062 1.096598 -0.009036
v 0.091547 1.088384 -0.010571
v 0.091675 1.098274 -0.000204
v 0.117454 1.000232 -0.008393
v 0.107901 1.013444 -0.019887
v 0.129493 1.015289 -0.013522
v 0.111187 1.003815 -0.016506
v 0.119751 1.006374 -0.017965
v 0.119699 1.014461 -0.020133
v 0.126455 1.005119 -0.012005
v 0.107797 1.103779 -0.005643
v 0.122428 1.091047 -0.011510
v 0.100835 1.089203 -0.017875
v 0.117557 1.100527 -0.009471
v 0.111190 1.098176 -0.015527
v 0.112634 1.090220 -0.018121
v 0.102289 1.099222 -0.013972
v 0.114196 1.098489 0.000597
v 0.116931 1.112932 -0.009320
v 0.115952 1.112932 0.010733
v 0.118118 1.103965 -0.006318
v 0.120302 1.106795 0.000895
v 0.119360 1.114178 0.000849
v 0.117426 1.103965 0.007861
v 0.071067 1.193137 -0.001510
v 0.083111 1.185003 0.009129
v 0.084090 1.185003 -0.010924
v 0.077310 1.192000 0.005902
v 0.081522 1.191901 -0.000999
v 0.086519 1.186248 -0.000755
v 0.078003 1.192000 -0.008278
v 0.108702 1.096304 0.008007
v 0.114603 1.112396 0.012552
v 0.096757 1.104907 0.017892
v 0.114881 1.102953 0.011294
v 0.108758 1.102203 0.016467
v 0.106434 1.109036 0.018283
v 0.102262 1.097658 0.015069
v 0.067345 1.191656 0.003511
v 0.065265 1.177514 0.014468
v 0.083111 1.185003 0.009129
v 0.063794 1.186348 0.010888
v 0.071570 1.187942 0.012424
v 0.074942 1.181643 0.014860
v 0.076413 1.191643 0.007112
v 0.100561 1.092768 0.004676
v 0.094758 1.104039 0.017074
v 0.084708 1.099411 0.000321
v 0.098491 1.096020 0.013527
v 0.091651 1.094772 0.009468
v 0.087281 1.100717 0.010447
v 0.091385 1.092747 0.001681
v 0.061829 1.189260 0.001254
v 0.055215 1.172886 -0.002284
v 0.065265 1.177514 0.014468
v 0.055358 1.182498 -0.001502
v 0.056824 1.181537 0.006391
v 0.057788 1.174192 0.007841
v 0.062464 1.185771 0.010344
v 0.101024 1.092768 -0.004792
v 0.084821 1.099411 -0.002003
v 0.096456 1.104039 -0.017697
v 0.091599 1.092747 -0.002705
v 0.092623 1.094772 -0.010429
v 0.088369 1.100717 -0.011830
v 0.099826 1.096020 -0.013802
v 0.062142 1.189260 -0.005162
v 0.066850 1.177514 -0.017978
v 0.055215 1.172886 -0.002284
v 0.063661 1.185771 -0.014146
v 0.057661 1.181537 -0.010761
v 0.058762 1.174192 -0.012111
v 0.055434 1.182498 -0.003049
v 0.109451 1.096304 -0.007314
v 0.098525 1.104907 -0.018316
v 0.115766 1.112396 -0.011262
v 0.103729 1.097658 -0.014970
v 0.110331 1.102203 -0.015727
v 0.108195 1.109036 -0.017762
v 0.115920 1.102953 -0.009982
v 0.067852 1.191656 -0.006870
v 0.084090 1.185003 -0.010924
v 0.066850 1.177514 -0.017978
v 0.077228 1.191643 -0.009570
v 0.072926 1.187942 -0.015329
v 0.076519 1.181643 -0.017424
v 0.065037 1.186348 -0.014557
v 0.074669 1.188410 -0.001764
v 0.071860 1.200946 -0.010464
v 0.072410 1.200946 0.007095
v 0.075751 1.193990 -0.008012
v 0.077167 1.197081 -0.001842
v 0.074154 1.202854 -0.001748
v 0.076141 1.193990 0.004404
v 0.001396 1.262224 0.000532
v 0.014431 1.259353 0.008912
v 0.013881 1.259353 -0.008647
v 0.007347 1.263292 0.006560
v 0.010358 1.264383 0.000251
v 0.016175 1.261261 0.000069
v 0.006958 1.263292 -0.005856
v 0.071183 1.184907 0.005369
v 0.071438 1.199969 0.009083
v 0.059469 1.188496 0.014889
v 0.074444 1.192285 0.007876
v 0.070011 1.189891 0.012800
v 0.066161 1.194822 0.014608
v 0.065980 1.184172 0.011982
v -0.000862 1.259955 0.005152
v 0.002462 1.247880 0.014718
v 0.014431 1.259353 0.008912
v -0.001660 1.254632 0.011779
v 0.004321 1.258318 0.012603
v 0.009153 1.254206 0.014437
v 0.006803 1.262745 0.007673
v 0.065103 1.179240 0.002876
v 0.057775 1.186916 0.014194
v 0.049827 1.179826 0.000224
v 0.063020 1.181413 0.010769
v 0.057530 1.178257 0.007684
v 0.052219 1.181827 0.008893
v 0.057401 1.176399 0.000890
v -0.004800 1.256284 0.003538
v -0.005485 1.240789 0.000748
v 0.002462 1.247880 0.014718
v -0.008229 1.248733 0.001511
v -0.006207 1.248505 0.008287
v -0.003094 1.242790 0.009417
v -0.002609 1.253747 0.011390
v 0.064831 1.179240 -0.005797
v 0.049752 1.179826 -0.002193
v 0.056809 1.186916 -0.016633
v 0.057268 1.176399 -0.003332
v 0.056972 1.178257 -0.010120
v 0.051595 1.181827 -0.010995
v 0.062259 1.181413 -0.013543
v -0.004976 1.256284 -0.002080
v 0.001572 1.247880 -0.013693
v -0.005485 1.240789 0.000748
v -0.003281 1.253747 -0.010053
v -0.006678 1.248505 -0.006731
v -0.003642 1.242790 -0.008054
v -0.008272 1.248733 0.000158
v 0.070743 1.184907 -0.008665
v 0.058457 1.188496 -0.017433
v 0.070766 1.199969 -0.012387
v 0.065137 1.184172 -0.014939
v 0.069108 1.189891 -0.016008
v 0.065152 1.194822 -0.017571
v 0.073840 1.192285 -0.011371
v -0.001147 1.259955 -0.003938
v 0.013881 1.259353 -0.008647
v 0.001572 1.247880 -0.013693
v 0.006345 1.262745 -0.006933
v 0.003560 1.258318 -0.011698
v 0.008268 1.254206 -0.013831
v -0.002359 1.254632 -0.010501
v 0.006819 1.258783 0.000609
v 0.001753 1.268312 -0.007162
v 0.001058 1.268312 0.007880
v 0.006612 1.263669 -0.004730
v 0.006534 1.266512 0.000596
v 0.002539 1.270407 0.000411
v 0.006121 1.263669 0.005906
v -0.085772 1.306019 -0.003672
v -0.074968 1.307097 0.004364
v -0.074273 1.307097 -0.010678
v -0.081619 1.308429 0.001849
v -0.079057 1.310177 -0.003362
v -0.073488 1.309192 -0.003104
v -0.081127 1.308429 -0.008787
v 0.004323 1.254713 0.006871
v 0.000262 1.267015 0.009876
v -0.006765 1.254422 0.014209
v 0.004835 1.261571 0.009133
v 0.001556 1.258395 0.013085
v -0.003006 1.261366 0.014321
v -0.000134 1.252667 0.012197
v -0.087299 1.303529 0.000159
v -0.081995 1.294504 0.008697
v -0.074968 1.307097 0.004364
v -0.086956 1.298925 0.005836
v -0.083139 1.303520 0.006880
v -0.078236 1.301448 0.008810
v -0.081987 1.307829 0.002772
v 0.000873 1.248127 0.004276
v -0.007864 1.252323 0.013381
v -0.011511 1.244540 0.001018
v -0.001912 1.249274 0.010860
v -0.005325 1.245261 0.007909
v -0.010669 1.246737 0.008556
v -0.004491 1.243770 0.002117
v -0.089410 1.299499 -0.001429
v -0.085642 1.286721 -0.003666
v -0.081995 1.294504 0.008697
v -0.090043 1.292450 -0.003289
v -0.088781 1.292749 0.002635
v -0.084800 1.288918 0.003872
v -0.087464 1.297954 0.005454
v 0.001237 1.248127 -0.003590
v -0.011395 1.244540 -0.001489
v -0.006623 1.252323 -0.013463
v -0.004303 1.243770 -0.001936
v -0.004599 1.245261 -0.007779
v -0.009861 1.246737 -0.008917
v -0.000928 1.249274 -0.010403
v -0.089188 1.299499 -0.006242
v -0.080870 1.294504 -0.015641
v -0.085642 1.286721 -0.003666
v -0.086615 1.297954 -0.012916
v -0.088186 1.292749 -0.010231
v -0.084108 1.288918 -0.011095
v -0.089990 1.292450 -0.004449
v 0.004912 1.254713 -0.005856
v -0.005452 1.254422 -0.014186
v 0.001145 1.267015 -0.009222
v 0.000965 1.252667 -0.011570
v 0.002730 1.258395 -0.012299
v -0.001698 1.261366 -0.013951
v 0.005630 1.261571 -0.008061
v -0.086939 1.303529 -0.007628
v -0.074273 1.307097 -0.010678
v -0.080870 1.294504 -0.015641
v -0.081408 1.307829 -0.009740
v -0.082176 1.303520 -0.013937
v -0.077117 1.301448 -0.015406
v -0.086073 1.298925 -0.013250
v -0.079404 1.304383 -0.003445
v -0.086363 1.310448 -0.009578
v -0.086105 1.310448 0.002968
v -0.081163 1.308116 -0.007847
v -0.081702 1.310405 -0.003398
v -0.085901 1.312405 -0.003312
v -0.080980 1.308116 0.001024
v -0.182343 1.319275 -0.001330
v -0.173697 1.323120 0.004768
v -0.173955 1.323120 -0.007777
v -0.179425 1.322358 0.003048
v -0.178155 1.324359 -0.001416
v -0.173493 1.325077 -0.001512
v -0.179607 1.322358 -0.005823
v -0.079984 1.300286 0.002289
v -0.086319 1.308941 0.005077
v -0.088242 1.297177 0.008995
v -0.081299 1.305862 0.004179
v -0.082817 1.302526 0.007627
v -0.087138 1.303664 0.008921
v -0.082659 1.297543 0.006950
v -0.182673 1.316949 0.001926
v -0.175620 1.311355 0.008686
v -0.173697 1.323120 0.004768
v -0.180864 1.313479 0.006603
v -0.179035 1.318140 0.007287
v -0.174517 1.317842 0.008612
v -0.179504 1.321797 0.003832
v -0.081157 1.293656 0.000127
v -0.088673 1.294738 0.008200
v -0.090119 1.287467 -0.001924
v -0.083305 1.293895 0.005760
v -0.085073 1.289779 0.003471
v -0.089642 1.289520 0.004310
v -0.084327 1.288754 -0.001398
v -0.183339 1.313184 0.000699
v -0.177067 1.304084 -0.001438
v -0.175620 1.311355 0.008686
v -0.182047 1.307430 -0.000852
v -0.180816 1.308077 0.004006
v -0.176589 1.306137 0.004796
v -0.181024 1.312572 0.006307
v -0.081303 1.293656 -0.006943
v -0.090173 1.287467 -0.004525
v -0.089144 1.294738 -0.014700
v -0.084407 1.288754 -0.005288
v -0.085353 1.289779 -0.010123
v -0.089952 1.289520 -0.010773
v -0.083680 1.293895 -0.012483
v -0.183421 1.313184 -0.003315
v -0.176038 1.311355 -0.011613
v -0.177067 1.304084 -0.001438
v -0.181339 1.312571 -0.009014
v -0.181037 1.308077 -0.006724
v -0.176846 1.306137 -0.007687
v -0.182067 1.307430 -0.001819
v -0.080219 1.300286 -0.009151
v -0.088745 1.297177 -0.015512
v -0.086663 1.308941 -0.011676
v -0.083083 1.297543 -0.013698
v -0.083269 1.302526 -0.014368
v -0.087640 1.303664 -0.015483
v -0.081611 1.305862 -0.010986
v -0.182806 1.316949 -0.004569
v -0.173955 1.323120 -0.007777
v -0.176038 1.311355 -0.011613
v -0.179718 1.321797 -0.006604
v -0.179392 1.318140 -0.010075
v -0.174932 1.317842 -0.011585
v -0.181191 1.313479 -0.009316
v 0.121337 0.919849 -0.007019
v 0.069191 0.968821 -0.045366
v 0.142708 0.968254 -0.068567
v 0.187481 0.966876 -0.005822
v 0.141634 0.966591 0.056157
v 0.068528 0.967793 0.031717
v 0.103107 1.046115 -0.067869
v 0.176214 1.044913 -0.043430
v 0.175551 1.043885 0.033653
v 0.102034 1.044452 0.056854
v 0.057261 1.045830 -0.005890
v 0.123405 1.092856 -0.004694
v 0.133717 0.933113 -0.043400
v 0.090505 0.933447 -0.029762
v 0.103066 0.961898 -0.065939
v 0.059465 0.961627 -0.006994
v 0.090115 0.932842 0.015545
v 0.160034 0.932303 -0.006520
v 0.172595 0.960755 -0.042696
v 0.133086 0.932136 0.029911
v 0.171964 0.959777 0.030614
v 0.102045 0.960316 0.052679
v 0.052842 1.007496 -0.029099
v 0.052452 1.006892 0.016209
v 0.123002 1.007330 -0.079167
v 0.079790 1.007664 -0.065530
v 0.192290 1.005814 -0.027921
v 0.165973 1.006624 -0.064802
v 0.164952 1.005042 0.053817
v 0.191900 1.005209 0.017387
v 0.078769 1.006082 0.053089
v 0.121740 1.005375 0.067455
v 0.072777 1.052928 -0.042326
v 0.142696 1.052389 -0.064392
v 0.185277 1.051078 -0.004718
v 0.141675 1.050808 0.054227
v 0.072146 1.051951 0.030984
v 0.111656 1.080570 -0.041623
v 0.084708 1.080402 -0.005193
v 0.154627 1.079863 -0.027258
v 0.154237 1.079259 0.018050
v 0.111025 1.079592 0.031687
v 0.115282 0.931845 -0.001267
v 0.081649 0.968575 -0.024957
v 0.127628 0.968938 -0.040165
v 0.156303 0.968705 -0.001137
v 0.128046 0.968198 0.038192
v 0.081908 0.968117 0.023470
v 0.101885 1.028137 -0.039469
v 0.148023 1.028218 -0.024747
v 0.148282 1.027760 0.023680
v 0.102303 1.027397 0.038888
v 0.073628 1.027629 -0.000140
v 0.114649 1.064490 -0.000010
v 0.122594 0.942003 -0.024241
v 0.095569 0.941790 -0.015302
v 0.102826 0.963593 -0.038166
v 0.075952 0.963110 -0.000762
v 0.095721 0.941521 0.013163
v 0.139449 0.941867 -0.001301
v 0.146706 0.963670 -0.024165
v 0.122840 0.941568 0.021816
v 0.146952 0.963234 0.021892
v 0.103223 0.962888 0.036356
v 0.071085 0.998091 -0.014639
v 0.071237 0.997822 0.013825
v 0.114720 0.998603 -0.046696
v 0.087694 0.998389 -0.037756
v 0.158694 0.998513 -0.015102
v 0.141840 0.998650 -0.038043
v 0.142237 0.997946 0.036480
v 0.158846 0.998244 0.013362
v 0.088091 0.997685 0.036766
v 0.115211 0.997732 0.045419
v 0.082979 1.033100 -0.023169
v 0.126708 1.033446 -0.037633
v 0.153979 1.033224 -0.000515
v 0.127105 1.032742 0.036889
v 0.083225 1.032665 0.022888
v 0.107091 1.054767 -0.023093
v 0.090482 1.054468 0.000024
v 0.134210 1.054814 -0.014440
v 0.134362 1.054545 0.014025
v 0.107337 1.054331 0.022964
v -0.176397 1.299481 0.001912
v -0.181726 1.292248 0.006656
v -0.170326 1.292604 0.006279
v -0.180259 1.297287 0.005185
v -0.176135 1.296496 0.007027
v -0.175966 1.292424 0.008272
v -0.172198 1.297538 0.004918
v -0.172818 1.184536 0.001674
v -0.167186 1.191760 0.006070
v -0.178587 1.191404 0.006448
v -0.168748 1.186724 0.004688
v -0.172741 1.187511 0.006801
v -0.172827 1.191580 0.008064
v -0.176809 1.186472 0.004955
v -0.173354 1.299580 -0.000457
v -0.170326 1.292604 0.006279
v -0.167162 1.292725 -0.004686
v -0.171389 1.297565 0.004288
v -0.168341 1.296751 0.000958
v -0.167010 1.292717 0.001298
v -0.169151 1.297650 -0.003466
v -0.169776 1.184636 -0.000695
v -0.164022 1.191881 -0.004894
v -0.167186 1.191760 0.006070
v -0.165701 1.186836 -0.003695
v -0.164948 1.187766 0.000732
v -0.163870 1.191873 0.001089
v -0.167938 1.186750 0.004058
v -0.174667 1.299547 -0.004085
v -0.167162 1.292725 -0.004686
v -0.176608 1.292444 -0.011085
v -0.169500 1.297642 -0.004430
v -0.171703 1.296665 -0.008333
v -0.170873 1.292619 -0.009380
v -0.176180 1.297443 -0.008955
v -0.171088 1.184603 -0.004322
v -0.173468 1.191600 -0.011294
v -0.164022 1.191881 -0.004894
v -0.172729 1.186629 -0.009185
v -0.168310 1.187681 -0.008559
v -0.167733 1.191775 -0.009589
v -0.166050 1.186827 -0.004660
v -0.178520 1.299427 -0.003957
v -0.176608 1.292444 -0.011085
v -0.185609 1.292149 -0.004075
v -0.177205 1.297411 -0.008921
v -0.181573 1.296357 -0.008007
v -0.182217 1.292265 -0.009005
v -0.183569 1.297202 -0.003965
v -0.174942 1.184483 -0.004195
v -0.182469 1.191305 -0.004284
v -0.173468 1.191600 -0.011294
v -0.180119 1.186388 -0.004194
v -0.178180 1.187373 -0.008232
v -0.179077 1.191421 -0.009214
v -0.173754 1.186597 -0.009151
v -0.179590 1.299386 -0.000251
v -0.185609 1.292149 -0.004075
v -0.181726 1.292248 0.006656
v -0.183854 1.297192 -0.002979
v -0.184313 1.296252 0.001487
v -0.185365 1.292145 0.001905
v -0.181109 1.297261 0.004609
v -0.176011 1.184442 -0.000489
v -0.178587 1.191404 0.006448
v -0.182469 1.191305 -0.004284
v -0.177658 1.186447 0.004380
v -0.180919 1.187268 0.001261
v -0.182225 1.191300 0.001696
v -0.180404 1.186377 -0.003208
vn 0.5809 -0.8133 0.0345
vn 0.8893 -0.2676 -0.3709
vn 0.9474 -0.1805 0.2643
vn 0.4190 0.9059 -0.0620
vn 0.8331 0.4539 0.3162
vn 0.8708 0.3796 -0.3125
vn 0.1960 -0.8476 0.4932
vn 0.6460 -0.2912 0.7056
vn 0.0574 -0.2589 0.9642
vn 0.1389 0.8805 0.4533
vn -0.0638 0.3751 0.9248
vn 0.5482 0.3491 0.7600
vn -0.3577 -0.8947 0.2674
vn -0.4493 -0.3858 0.8058
vn -0.8810 -0.3382 0.3308
vn -0.4359 0.8312 0.3450
vn -0.9177 0.3032 0.2566
vn -0.5679 0.2529 0.7833
vn -0.3150 -0.8896 -0.3308
vn -0.8829 -0.4207 -0.2088
vn -0.5710 -0.3088 -0.7607
vn -0.5111 0.8262 -0.2371
vn -0.5487 0.3375 -0.7649
vn -0.9350 0.2239 -0.2749
vn 0.2651 -0.8392 -0.4748
vn -0.0556 -0.3476 -0.9360
vn 0.5590 -0.2114 -0.8017
vn 0.0172 0.8723 -0.4886
vn 0.5334 0.4306 -0.7281
vn -0.0459 0.3022 -0.9522
vn 0.7939 -0.3124 0.5217
vn 0.4000 -0.8902 0.2180
vn 0.7152 0.4714 0.5160
vn 0.2371 0.9464 0.2194
vn 0.9386 0.1056 -0.3285
vn 0.9558 0.1056 0.2744
vn 0.0342 0.0244 0.9991
vn 0.6002 0.0737 0.7965
vn -0.2273 -0.4012 0.8873
vn -0.0304 -0.9277 0.3721
vn -0.2911 0.3838 0.8764
vn -0.1871 0.9095 0.3712
vn -0.9375 -0.0577 0.3432
vn -0.5705 -0.0273 0.8209
vn -0.8895 -0.4562 0.0254
vn -0.3095 -0.9509 0.0089
vn -0.0000 1.0000 -0.0000
vn -0.4623 0.8867 0.0132
vn -0.6165 -0.0273 -0.7869
vn -0.9556 -0.0577 -0.2891
vn -0.2776 -0.4012 -0.8729
vn -0.0516 -0.9277 -0.3697
vn -0.3407 0.3838 -0.8583
vn -0.2081 0.9095 -0.3599
vn 0.5537 0.0737 -0.8295
vn -0.0229 0.0244 -0.9994
vn 0.7628 -0.3124 -0.5662
vn 0.3868 -0.8902 -0.2405
vn 0.6846 0.4713 -0.5560
vn 0.2241 0.9464 -0.2325
vn 0.0858 -0.9963 -0.0025
vn 0.8206 0.0896 0.5644
vn 0.7870 0.0896 -0.6104
vn -0.0859 0.9963 0.0025
vn -0.2822 -0.0064 0.9593
vn -0.9974 -0.0657 0.0285
vn -0.3366 -0.0064 -0.9416
vn 0.8009 -0.5920 0.0902
vn 0.9539 0.0262 -0.2991
vn 0.9336 0.1213 0.3372
vn 0.1195 0.9919 -0.0442
vn 0.6238 0.6881 0.3708
vn 0.7304 0.6348 -0.2522
vn 0.4121 -0.7486 0.5193
vn 0.6490 -0.0817 0.7564
vn 0.0618 -0.2367 0.9696
vn -0.1770 0.8759 0.4489
vn -0.2474 0.3283 0.9116
vn 0.3528 0.4958 0.7935
vn -0.0806 -0.9640 0.2535
vn -0.3666 -0.5138 0.7756
vn -0.7543 -0.5989 0.2690
vn -0.6979 0.6509 0.2987
vn -0.9832 -0.0002 0.1825
vn -0.6761 0.0563 0.7346
vn 0.0037 -0.9404 -0.3399
vn -0.6894 -0.6730 -0.2679
vn -0.3870 -0.4646 -0.7965
vn -0.7234 0.6279 -0.2872
vn -0.5668 0.1565 -0.8089
vn -0.9346 -0.0762 -0.3475
vn 0.5484 -0.7106 -0.4408
vn 0.1267 -0.3393 -0.9321
vn 0.6562 -0.0195 -0.7543
vn -0.2182 0.8386 -0.4992
vn 0.4264 0.5819 -0.6925
vn -0.0653 0.2813 -0.9574
vn 0.8097 -0.0540 0.5843
vn 0.6395 -0.7232 0.2608
vn 0.4916 0.6661 0.5609
vn -0.0868 0.9712 0.2221
vn 0.8811 0.3957 -0.2589
vn 0.8517 0.3957 0.3435
vn -0.0510 0.0249 0.9984
vn 0.4851 0.2499 0.8380
vn -0.1577 -0.4600 0.8738
vn 0.2318 -0.8943 0.3828
vn -0.4618 0.2661 0.8461
vn -0.4886 0.8026 0.3423
vn -0.8961 -0.3500 0.2729
vn -0.5942 -0.2110 0.7762
vn -0.7025 -0.7109 -0.0343
vn 0.0022 -1.0000 0.0001
vn -1.0000 0.0049 -0.0000
vn -0.7149 0.6983 -0.0349
vn -0.5157 -0.2110 -0.8304
vn -0.8653 -0.3500 -0.3589
vn -0.0718 -0.4600 -0.8850
vn 0.2680 -0.8943 -0.3584
vn -0.4529 0.8026 -0.3883
vn 0.5645 0.2499 -0.7867
vn 0.0465 0.0249 -0.9986
vn 0.8628 -0.0540 -0.5026
vn 0.6619 -0.7232 -0.1973
vn 0.5439 0.6662 -0.5103
vn -0.0646 0.9712 -0.2294
vn 0.3918 -0.9199 0.0191
vn 0.7066 0.3358 0.6229
vn 0.7639 0.3358 -0.5511
vn -0.3917 0.9199 -0.0191
vn -0.3382 -0.1026 0.9355
vn -0.9265 -0.3735 -0.0453
vn -0.2454 -0.1026 -0.9640
vn 0.9608 -0.2765 0.0210
vn 0.8597 0.3497 -0.3724
vn 0.8567 0.4427 0.2645
vn -0.2353 0.9710 -0.0426
vn 0.3734 0.8676 0.3284
vn 0.4435 0.8440 -0.3016
vn 0.6846 -0.5508 0.4774
vn 0.6934 0.1608 0.7024
vn 0.2145 -0.1843 0.9592
vn -0.4343 0.7679 0.4709
vn -0.2748 0.2377 0.9316
vn 0.2193 0.6006 0.7689
vn 0.2782 -0.9278 0.2485
vn -0.1050 -0.5957 0.7963
vn -0.4770 -0.8184 0.3205
vn -0.8550 0.3740 0.3594
vn -0.9051 -0.3375 0.2588
vn -0.5951 -0.1688 0.7857
vn 0.3031 -0.8866 -0.3494
vn -0.4320 -0.8745 -0.2205
vn -0.2622 -0.5832 -0.7688
vn -0.9159 0.3337 -0.2230
vn -0.6464 -0.0631 -0.7604
vn -0.8741 -0.4009 -0.2743
vn 0.7249 -0.4841 -0.4900
vn 0.1641 -0.2902 -0.9428
vn 0.5621 0.1962 -0.8034
vn -0.5330 0.7026 -0.4715
vn 0.1437 0.6817 -0.7174
vn -0.2322 0.2251 -0.9463
vn 0.8207 0.2395 0.5187
vn 0.8685 -0.4526 0.2022
vn 0.2720 0.8045 0.5280
vn -0.4004 0.8847 0.2387
vn 0.6667 0.6719 -0.3226
vn 0.6856 0.6719 0.2802
vn 0.0206 0.0226 0.9995
vn 0.4315 0.4165 0.8002
vn 0.0792 -0.4713 0.8784
vn 0.5560 -0.7521 0.3538
vn -0.4587 0.1041 0.8825
vn -0.7085 0.5894 0.3881
vn -0.6955 -0.6339 0.3382
vn -0.4226 -0.3905 0.8179
vn -0.4131 -0.9106 0.0129
vn 0.3485 -0.9372 -0.0109
vn -0.0000 -1.0000 -0.0000
vn -0.9130 0.4069 0.0286
vn -0.4730 -0.3905 -0.7898
vn -0.7153 -0.6339 -0.2940
vn 0.0240 -0.4713 -0.8817
vn 0.5328 -0.7521 -0.3879
vn -0.5130 0.1041 -0.8520
vn -0.7314 0.5894 -0.3430
vn 0.3806 0.4165 -0.8256
vn -0.0421 0.0226 -0.9989
vn 0.7866 0.2395 -0.5691
vn 0.8541 -0.4525 -0.2562
vn -0.4147 0.8846 -0.2132
vn 0.6864 -0.7269 -0.0215
vn 0.5922 0.5702 0.5694
vn 0.5554 0.5702 -0.6054
vn -0.6864 0.7269 0.0215
vn -0.2086 -0.1975 0.9579
vn -0.7403 -0.6719 0.0232
vn -0.2681 -0.1975 -0.9429
vn 0.9946 0.0369 0.0971
vn 0.7334 0.6041 -0.3117
vn 0.6533 0.6854 0.3218
vn -0.5225 0.8494 -0.0742
vn 0.0581 0.9376 0.3430
vn 0.1797 0.9432 -0.2795
vn 0.7840 -0.3143 0.5354
vn 0.5532 0.3623 0.7502
vn 0.1878 -0.1175 0.9752
vn -0.6866 0.5893 0.4258
vn -0.4051 0.1310 0.9048
vn -0.0380 0.6315 0.7744
vn 0.5339 -0.7971 0.2821
vn 0.0259 -0.6065 0.7947
vn -0.2209 -0.9294 0.2955
vn -0.9537 0.0850 0.2887
vn -0.7716 -0.6056 0.1949
vn -0.5706 -0.3537 0.7412
vn 0.5901 -0.7443 -0.3128
vn -0.1197 -0.9634 -0.2397
vn -0.0081 -0.6284 -0.7779
vn -0.9546 0.0333 -0.2960
vn -0.5348 -0.2542 -0.8058
vn -0.6820 -0.6509 -0.3334
vn 0.8748 -0.2289 -0.4271
vn 0.3175 -0.2152 -0.9235
vn 0.5322 0.3696 -0.7617
vn -0.6881 0.5058 -0.5203
vn -0.0221 0.6995 -0.7143
vn -0.2183 0.1506 -0.9642
vn 0.6633 0.4786 0.5754
vn 0.9483 -0.1609 0.2734
vn -0.0334 0.8440 0.5353
vn -0.6733 0.7132 0.1951
vn 0.4464 0.8495 -0.2813
vn 0.4185 0.8495 0.3213
vn -0.0634 0.0181 0.9978
vn 0.2180 0.5226 0.8243
vn 0.1554 -0.4316 0.8886
vn 0.7343 -0.5445 0.4054
vn -0.5339 -0.0529 0.8439
vn -0.8842 0.3351 0.3253
vn -0.4867 -0.8226 0.2941
vn -0.3406 -0.5109 0.7893
vn -0.1082 -0.9941 -0.0050
vn 0.6232 -0.7815 0.0288
vn -0.9938 0.1014 -0.0460
vn -0.2663 -0.5109 -0.8174
vn -0.4574 -0.8226 -0.3378
vn 0.2367 -0.4316 -0.8705
vn 0.7686 -0.5445 -0.3359
vn -0.8505 0.3351 -0.4055
vn 0.2932 0.5226 -0.8006
vn 0.0289 0.0181 -0.9994
vn 0.7135 0.4786 -0.5117
vn 0.9695 -0.1609 -0.1847
vn 0.0162 0.8440 -0.5361
vn -0.6525 0.7131 -0.2564
vn 0.8784 -0.4762 0.0406
vn 0.3398 0.7209 0.6040
vn 0.3941 0.7209 -0.5701
vn -0.8784 0.4762 -0.0406
vn -0.2086 -0.2620 0.9422
vn -0.4933 -0.8695 -0.0228
vn -0.1208 -0.2620 -0.9575
vn 0.9339 0.3561 0.0319
vn 0.4783 0.8031 -0.3552
vn 0.4172 0.8637 0.2827
vn -0.7716 0.6352 -0.0341
vn -0.2247 0.9115 0.3446
vn -0.1517 0.9466 -0.2845
vn 0.8761 -0.0376 0.4807
vn 0.4542 0.5320 0.7146
vn 0.2779 -0.0364 0.9599
vn -0.8108 0.3436 0.4738
vn -0.3667 0.0072 0.9303
vn -0.1893 0.5972 0.7794
vn 0.7790 -0.5788 0.2412
vn 0.2707 -0.5541 0.7872
vn 0.1094 -0.9466 0.3032
vn -0.9096 -0.2218 0.3512
vn -0.5215 -0.8185 0.2411
vn -0.3775 -0.5073 0.7746
vn 0.7768 -0.5197 -0.3557
vn 0.1815 -0.9542 -0.2377
vn 0.1446 -0.6091 -0.7798
vn -0.9315 -0.2798 -0.2325
vn -0.4752 -0.4246 -0.7707
vn -0.4562 -0.8406 -0.2922
vn 0.8725 0.0582 -0.4851
vn 0.3098 -0.1154 -0.9438
vn 0.3349 0.5097 -0.7925
vn -0.8462 0.2499 -0.4706
vn -0.2918 0.6446 -0.7067
vn -0.3166 0.0581 -0.9468
vn 0.5095 0.6749 0.5338
vn 0.9652 0.1566 0.2095
vn -0.2688 0.7963 0.5419
vn -0.8530 0.4616 0.2436
vn 0.1303 0.9436 -0.3043
vn 0.1427 0.9436 0.2987
vn -0.0016 0.0116 0.9999
vn 0.0908 0.5771 0.8116
vn 0.3427 -0.3455 0.8736
vn 0.8949 -0.2734 0.3527
vn -0.4331 -0.2092 0.8767
vn -0.9222 0.0378 0.3848
vn -0.1761 -0.9309 0.3200
vn -0.1066 -0.5814 0.8066
vn 0.2173 -0.9761 -0.0045
vn 0.8420 -0.5392 -0.0173
vn -0.9743 -0.2242 0.0200
vn -0.1397 -0.5814 -0.8015
vn -0.1891 -0.9309 -0.3125
vn 0.3065 -0.3455 -0.8870
vn 0.8796 -0.2734 -0.3892
vn -0.4688 -0.2092 -0.8582
vn -0.9373 0.0377 -0.3465
vn 0.0574 0.5771 -0.8147
vn -0.0427 0.0116 -0.9990
vn 0.4871 0.6749 -0.5543
vn 0.9558 0.1566 -0.2490
vn -0.2908 0.7963 -0.5304
vn -0.8622 0.4616 -0.2084
vn 0.9856 -0.1678 -0.0203
vn 0.1279 0.8008 0.5851
vn 0.1037 0.8008 -0.5899
vn -0.9856 0.1678 0.0203
vn -0.0522 -0.3012 0.9521
vn -0.1877 -0.9822 0.0039
vn -0.0913 -0.3012 -0.9492
vn -0.1262 -0.9174 -0.3774
vn -0.7525 -0.5860 -0.3006
vn 0.3005 -0.9244 -0.2348
vn 0.2967 -0.9304 0.2152
vn -0.1324 -0.9271 0.3506
vn -0.9202 -0.2696 -0.2838
vn -0.0203 -0.2713 -0.9623
vn 0.9030 -0.2910 -0.3162
vn 0.5736 -0.3015 0.7616
vn -0.5531 -0.2883 0.7816
vn -0.8006 -0.0892 -0.5926
vn 0.3141 -0.0978 -0.9443
vn 0.9929 -0.1187 0.0070
vn 0.2978 -0.1230 0.9467
vn -0.8106 -0.1048 0.5761
vn -0.4238 0.6130 -0.6668
vn 0.5158 0.6011 -0.6104
vn 0.7525 0.5860 0.3006
vn -0.0409 0.5887 0.8073
vn -0.7679 0.6054 0.2095
vn -0.3005 0.9244 0.2348
vn -0.5361 0.7439 0.3989
vn -0.4354 0.5952 0.6755
vn 0.1262 0.9174 0.3774
vn 0.2103 0.7317 0.6484
vn 0.5051 0.5845 0.6350
vn 0.3938 0.9191 0.0156
vn 0.6784 0.7346 0.0156
vn 0.7574 0.5936 -0.2719
vn 0.1325 0.9271 -0.3506
vn 0.2212 0.7486 -0.6250
vn -0.0271 0.6100 -0.7919
vn -0.2967 0.9304 -0.2152
vn -0.5294 0.7544 -0.3881
vn -0.7643 0.6109 -0.2064
vn -0.9030 0.2910 0.3162
vn -0.8016 0.1616 0.5756
vn -0.5867 0.2813 0.7594
vn 0.0203 0.2713 0.9623
vn 0.2988 0.1436 0.9434
vn 0.5395 0.2673 0.7984
vn 0.9202 0.2696 0.2838
vn 0.9890 0.1478 0.0105
vn 0.9249 0.2769 -0.2606
vn 0.5531 0.2883 -0.7816
vn 0.3150 0.1686 -0.9340
vn 0.0368 0.2968 -0.9542
vn -0.5736 0.3015 -0.7616
vn -0.7916 0.1771 -0.5848
vn -0.8975 0.2995 -0.3238
vn -0.3141 0.0978 0.9443
vn -0.3150 -0.1686 0.9340
vn -0.0368 -0.2968 0.9542
vn 0.8006 0.0892 0.5926
vn 0.7916 -0.1771 0.5848
vn 0.8975 -0.2995 0.3238
vn 0.8106 0.1048 -0.5761
vn 0.8016 -0.1616 -0.5756
vn 0.5867 -0.2813 -0.7594
vn -0.2978 0.1230 -0.9467
vn -0.2988 -0.1436 -0.9434
vn -0.5395 -0.2673 -0.7984
vn -0.9929 0.1187 -0.0070
vn -0.9890 -0.1478 -0.0105
vn -0.9249 -0.2769 0.2606
vn -0.5158 -0.6011 0.6104
vn -0.2212 -0.7486 0.6250
vn 0.0271 -0.6100 0.7919
vn 0.4238 -0.6131 0.6668
vn 0.5294 -0.7544 0.3881
vn 0.7643 -0.6109 0.2064
vn 0.7679 -0.6054 -0.2095
vn 0.5361 -0.7439 -0.3989
vn 0.4354 -0.5952 -0.6755
vn -0.7574 -0.5936 0.2719
vn -0.6784 -0.7346 -0.0156
vn -0.3938 -0.9191 -0.0156
vn 0.0409 -0.5887 -0.8073
vn -0.2103 -0.7317 -0.6484
vn -0.5051 -0.5845 -0.6350
vn -0.1375 -0.8890 -0.4368
vn -0.7954 -0.5235 -0.3055
vn 0.3679 -0.8881 -0.2756
vn 0.3707 -0.8931 0.2548
vn -0.1329 -0.8971 0.4214
vn -0.9320 -0.2381 -0.2732
vn -0.0295 -0.2271 -0.9734
vn 0.9153 -0.2287 -0.3315
vn 0.5968 -0.2406 0.7655
vn -0.5449 -0.2464 0.8014
vn -0.8086 -0.0859 -0.5821
vn 0.3032 -0.0772 -0.9498
vn 0.9965 -0.0828 -0.0061
vn 0.3133 -0.0951 0.9449
vn -0.8023 -0.0970 0.5889
vn -0.4713 0.5270 -0.7072
vn 0.5299 0.5314 -0.6609
vn 0.7954 0.5235 0.3055
vn -0.0418 0.5143 0.8566
vn -0.8246 0.5164 0.2307
vn -0.3679 0.8881 0.2756
vn -0.5995 0.6656 0.4445
vn -0.4637 0.5135 0.7220
vn 0.1375 0.8890 0.4368
vn 0.2292 0.6671 0.7089
vn 0.5370 0.5188 0.6652
vn 0.4470 0.8945 0.0061
vn 0.7367 0.6762 0.0025
vn 0.7921 0.5292 -0.3040
vn 0.1329 0.8971 -0.4214
vn 0.2217 0.6804 -0.6985
vn -0.0508 0.5303 -0.8463
vn -0.3707 0.8931 -0.2548
vn -0.6041 0.6738 -0.4254
vn -0.8270 0.5206 -0.2121
vn -0.9153 0.2287 0.3315
vn -0.7995 0.1221 0.5881
vn -0.5886 0.2261 0.7762
vn 0.0295 0.2271 0.9734
vn 0.3107 0.1240 0.9424
vn 0.5535 0.2313 0.8001
vn 0.9320 0.2381 0.2732
vn 0.9907 0.1363 -0.0040
vn 0.9291 0.2433 -0.2786
vn 0.5449 0.2464 -0.8014
vn 0.3007 0.1419 -0.9431
vn 0.0192 0.2455 -0.9692
vn -0.5968 0.2406 -0.7655
vn -0.8057 0.1331 -0.5772
vn -0.9188 0.2348 -0.3173
vn -0.3032 0.0772 0.9498
vn -0.3007 -0.1419 0.9431
vn -0.0192 -0.2455 0.9692
vn 0.8086 0.0859 0.5821
vn 0.8057 -0.1331 0.5772
vn 0.9188 -0.2348 0.3173
vn 0.8023 0.0970 -0.5889
vn 0.7995 -0.1221 -0.5881
vn 0.5886 -0.2261 -0.7762
vn -0.3133 0.0951 -0.9449
vn -0.3107 -0.1240 -0.9424
vn -0.5535 -0.2313 -0.8001
vn -0.9965 0.0828 0.0061
vn -0.9907 -0.1363 0.0040
vn -0.9291 -0.2433 0.2786
vn -0.5299 -0.5314 0.6609
vn -0.2217 -0.6804 0.6985
vn 0.0508 -0.5303 0.8463
vn 0.4713 -0.5270 0.7072
vn 0.6041 -0.6738 0.4254
vn 0.8270 -0.5206 0.2121
vn 0.8246 -0.5164 -0.2307
vn 0.5995 -0.6656 -0.4444
vn 0.4637 -0.5135 -0.7220
vn -0.7921 -0.5292 0.3040
vn -0.7367 -0.6762 -0.0025
vn -0.4470 -0.8945 -0.0061
vn 0.0418 -0.5143 -0.8566
vn -0.2292 -0.6671 -0.7089
vn -0.5370 -0.5188 -0.6652
vn 0.0402 0.8639 0.5021
vn -0.3249 0.3511 0.8782
vn 0.3107 0.2897 0.9053
vn -0.0069 -0.8649 0.5019
vn 0.3823 -0.3529 0.8540
vn -0.2501 -0.2916 0.9233
vn 0.4695 0.8781 0.0926
vn 0.7259 0.3845 0.5704
vn 0.9499 0.3115 -0.0238
vn 0.4952 -0.8486 0.1861
vn 0.9384 -0.3337 -0.0896
vn 0.8070 -0.2579 0.5313
vn 0.2128 0.8712 -0.4424
vn 0.7579 0.3877 -0.5246
vn 0.2643 0.2921 -0.9192
vn 0.3501 -0.8520 -0.3893
vn 0.2133 -0.3545 -0.9104
vn 0.7610 -0.2570 -0.5957
vn -0.3751 0.8527 -0.3635
vn -0.2731 0.3564 -0.8935
vn -0.7987 0.2582 -0.5435
vn -0.2416 -0.8703 -0.4291
vn -0.7910 -0.3867 -0.4741
vn -0.3246 -0.2902 -0.9003
vn -0.4817 0.8482 0.2202
vn -0.9423 0.3338 -0.0266
vn -0.7700 0.2568 0.5841
vn -0.4623 -0.8783 0.1216
vn -0.6865 -0.3857 0.6164
vn -0.9494 -0.3116 0.0385
vn 0.5520 0.4098 0.7262
vn 0.2091 0.9282 0.3077
vn 0.5766 -0.3776 0.7245
vn 0.2666 -0.9147 0.3038
vn -0.2698 -0.0104 0.9629
vn 0.3329 0.0084 0.9429
vn 0.9992 0.0312 -0.0254
vn 0.8319 0.0248 0.5543
vn 0.3354 0.9331 -0.1299
vn 0.8761 -0.3662 -0.3136
vn 0.3928 -0.9098 -0.1337
vn 0.2846 0.0108 -0.9586
vn 0.7840 0.0257 -0.6203
vn -0.0427 0.3947 -0.9178
vn -0.0415 0.9219 -0.3853
vn -0.0182 -0.3928 -0.9195
vn 0.0158 -0.9211 -0.3891
vn -0.8233 -0.0245 -0.5671
vn -0.3474 -0.0089 -0.9377
vn -0.8949 0.3668 -0.2542
vn -0.4007 0.9101 -0.1056
vn -0.8704 -0.4207 -0.2558
vn -0.3433 -0.9328 -0.1094
vn -0.7934 -0.0260 0.6081
vn -0.9987 -0.0312 0.0408
vn -0.5274 0.3761 0.7619
vn -0.2458 0.9140 0.3227
vn -0.5029 -0.4113 0.7602
vn -0.1884 -0.9289 0.3189
vn -0.0311 0.9995 0.0020
vn 0.0311 -0.9995 -0.0021
vn 0.9997 0.0234 -0.0000
vn -0.9996 -0.0266 -0.0000
vn 0.5780 -0.8133 -0.0676
vn 0.9308 -0.1805 -0.3180
vn 0.9090 -0.2676 0.3194
vn 0.4218 0.9059 0.0379
vn 0.8872 0.3796 0.2623
vn 0.8136 0.4539 -0.3633
vn 0.2918 -0.8392 0.4589
vn 0.6039 -0.2114 0.7685
vn -0.0020 -0.3476 0.9376
vn 0.0452 0.8723 0.4868
vn 0.0086 0.3022 0.9532
vn 0.5741 0.4306 0.6964
vn -0.2956 -0.8896 0.3483
vn -0.5266 -0.3088 0.7920
vn -0.8695 -0.4207 0.2589
vn -0.4967 0.8262 0.2659
vn -0.9178 0.2239 0.3279
vn -0.5041 0.3375 0.7950
vn -0.3724 -0.8947 -0.2466
vn -0.8985 -0.3382 -0.2799
vn -0.4946 -0.3858 -0.7788
vn -0.4549 0.8312 -0.3195
vn -0.6117 0.2529 -0.7495
vn -0.9309 0.3032 -0.2038
vn 0.1675 -0.8475 -0.5036
vn 0.0022 -0.2589 -0.9659
vn 0.6046 -0.2912 -0.7414
vn 0.1128 0.8805 -0.4605
vn 0.5038 0.3491 -0.7901
vn -0.1165 0.3751 -0.9196
vn 0.3999 -0.8903 0.2180
vn 0.2369 0.9465 0.2194
vn 1.0000 -0.0000 -0.0000
vn -0.1872 0.9095 0.3712
vn -0.9437 0.3296 0.0270
vn -0.4622 0.8867 0.0132
vn -0.0517 -0.9277 -0.3697
vn -0.2080 0.9095 -0.3599
vn 0.7628 -0.3123 -0.5662
vn 0.3869 -0.8902 -0.2405
vn 0.9995 0.0312 -0.0000
vn 0.0859 -0.9963 -0.0025
vn -0.0858 0.9963 0.0025
vn -0.9982 -0.0595 -0.0000
vn 0.8058 -0.5920 -0.0118
vn 0.9620 0.1213 -0.2446
vn 0.9202 0.0262 0.3906
vn 0.1146 0.9919 0.0556
vn 0.7023 0.6348 0.3222
vn 0.6570 0.6881 -0.3082
vn 0.5029 -0.7106 0.4922
vn 0.5796 -0.0195 0.8147
vn 0.0352 -0.3393 0.9400
vn -0.2658 0.8386 0.4755
vn -0.1583 0.2813 0.9465
vn 0.3569 0.5819 0.7308
vn -0.0295 -0.9404 0.3387
vn -0.4628 -0.4646 0.7550
vn -0.7123 -0.6730 0.1994
vn -0.7479 0.6279 0.2154
vn -0.9640 -0.0762 0.2548
vn -0.6429 0.1565 0.7498
vn -0.0555 -0.9640 -0.2601
vn -0.7245 -0.5989 -0.3412
vn -0.2892 -0.5138 -0.8077
vn -0.6655 0.6509 -0.3653
vn -0.6013 0.0563 -0.7970
vn -0.9607 -0.0002 -0.2775
vn 0.4608 -0.7486 -0.4767
vn 0.1560 -0.2367 -0.9590
vn 0.7197 -0.0817 -0.6895
vn -0.1324 0.8759 -0.4641
vn 0.4285 0.4958 -0.7554
vn -0.1574 0.3283 -0.9314
vn 0.8097 -0.0540 0.5844
vn 0.6395 -0.7232 0.2609
vn -0.0869 0.9712 0.2220
vn -0.4887 0.8025 0.3423
vn -0.9986 0.0189 -0.0488
vn -0.3771 0.2661 -0.8871
vn -0.4530 0.8025 -0.3883
vn 0.8628 -0.0540 -0.5027
vn -0.0648 0.9712 -0.2295
vn 0.3917 -0.9199 0.0191
vn 0.9849 0.1734 -0.0000
vn -0.9231 -0.3846 -0.0000
vn 0.9576 -0.2765 -0.0811
vn 0.8385 0.4427 -0.3177
vn 0.8813 0.3497 0.3178
vn -0.2322 0.9710 0.0573
vn 0.4615 0.8440 0.2732
vn 0.3521 0.8676 -0.3511
vn 0.7542 -0.4841 0.4437
vn 0.6114 0.1962 0.7667
vn 0.2229 -0.2902 0.9307
vn -0.5024 0.7026 0.5039
vn -0.1725 0.2251 0.9589
vn 0.1883 0.6817 0.7070
vn 0.3243 -0.8866 0.3297
vn -0.2135 -0.5832 0.7837
vn -0.4174 -0.8745 0.2471
vn -0.9002 0.3337 0.2799
vn -0.8552 -0.4009 0.3285
vn -0.5975 -0.0631 0.7994
vn 0.2620 -0.9278 -0.2654
vn -0.4962 -0.8183 -0.2900
vn -0.1546 -0.5957 -0.7882
vn -0.8758 0.3740 -0.3051
vn -0.6431 -0.1688 -0.7469
vn -0.9195 -0.3375 -0.2016
vn 0.6534 -0.5508 -0.5193
vn 0.1540 -0.1843 -0.9707
vn 0.6480 0.1608 -0.7445
vn -0.4629 0.7679 -0.4428
vn 0.1707 0.6006 -0.7811
vn -0.3326 0.2377 -0.9126
vn 0.8685 -0.4525 0.2022
vn -0.0000 0.7474 0.6644
vn -0.4006 0.8846 0.2387
vn -0.7086 0.5894 0.3881
vn 0.3485 -0.9373 -0.0109
vn -0.9439 -0.3289 0.0296
vn 0.0241 -0.4713 -0.8817
vn 0.5327 -0.7521 -0.3879
vn 0.8541 -0.4526 -0.2562
vn 0.2384 0.8045 -0.5440
vn -0.4146 0.8847 -0.2132
vn 0.2007 0.3440 0.9173
vn 0.2867 0.9580 -0.0000
vn -1.0000 -0.0000 -0.0000
vn 0.9993 0.0369 -0.0049
vn 0.6802 0.6854 -0.2601
vn 0.7015 0.6041 0.3781
vn -0.5271 0.8494 0.0256
vn 0.1531 0.9432 0.2949
vn 0.0895 0.9376 -0.3361
vn 0.8316 -0.2289 0.5060
vn 0.4596 0.3696 0.8075
vn 0.2309 -0.2152 0.9489
vn -0.7332 0.5058 0.4546
vn -0.3064 0.1506 0.9399
vn -0.0879 0.6995 0.7092
vn 0.5587 -0.7443 0.3659
vn -0.0798 -0.6284 0.7738
vn -0.1413 -0.9634 0.2276
vn -0.9778 0.0333 0.2066
vn -0.7099 -0.6509 0.2690
vn -0.6069 -0.2542 0.7530
vn 0.5577 -0.7971 -0.2316
vn -0.1927 -0.9294 -0.3147
vn 0.0992 -0.6065 -0.7889
vn -0.9229 0.0850 -0.3754
vn -0.4997 -0.3537 -0.7907
vn -0.7503 -0.6056 -0.2652
vn 0.8300 -0.3143 -0.4608
vn 0.2770 -0.1175 -0.9537
vn 0.6200 0.3623 -0.6959
vn -0.6443 0.5894 -0.4873
vn 0.0336 0.6315 -0.7747
vn -0.3199 0.1310 -0.9384
vn 0.6632 0.4786 0.5754
vn -0.6733 0.7131 0.1951
vn -0.8843 0.3350 0.3252
vn -0.4866 -0.8226 0.2941
vn -0.7937 -0.6073 -0.0367
vn -0.4537 -0.0529 -0.8896
vn -0.8504 0.3351 -0.4056
vn 0.7135 0.4786 -0.5118
vn -0.6524 0.7131 -0.2564
vn -0.3354 -0.9421 -0.0000
vn 0.9318 0.3561 -0.0702
vn 0.4053 0.8637 -0.2996
vn 0.4926 0.8031 0.3352
vn -0.7696 0.6352 0.0658
vn -0.1399 0.9466 0.2904
vn -0.2387 0.9115 -0.3350
vn 0.8917 0.0582 0.4488
vn 0.3671 0.5097 0.7781
vn 0.3484 -0.1154 0.9302
vn -0.8261 0.2499 0.5050
vn -0.2775 0.0581 0.9590
vn -0.2625 0.6446 0.7181
vn 0.7907 -0.5197 0.3235
vn 0.1765 -0.6091 0.7732
vn 0.1911 -0.9542 0.2301
vn -0.9212 -0.2797 0.2706
vn -0.4438 -0.8405 0.3107
vn -0.4431 -0.4246 0.7895
vn 0.7684 -0.5788 -0.2730
vn 0.0968 -0.9466 -0.3075
vn 0.2382 -0.5541 -0.7977
vn -0.9233 -0.2219 -0.3135
vn -0.4091 -0.5073 -0.7585
vn -0.5310 -0.8185 -0.2194
vn 0.8556 -0.0376 -0.5163
vn 0.2382 -0.0364 -0.9705
vn 0.4244 0.5320 -0.7327
vn -0.8296 0.3436 -0.4401
vn -0.2212 0.5972 -0.7710
vn -0.4046 0.0072 -0.9145
vn -0.8529 0.4616 0.2436
vn 0.1426 0.9436 0.2987
vn 0.8949 -0.2734 0.3528
vn -0.9223 0.0378 0.3847
vn 0.8420 -0.5391 -0.0173
vn -0.5567 -0.8307 0.0113
vn -0.1891 -0.9309 -0.3124
vn 0.8797 -0.2734 -0.3892
vn 0.9999 0.0156 -0.0000
vn -0.9373 0.0378 -0.3465
vn 0.9557 0.1566 -0.2490
vn 0.9195 0.3930 -0.0000
vn 0.7602 0.6497 -0.0000
vn -0.9981 -0.0624 -0.0000
vn -0.0607 0.8607 0.5054
vn -0.2676 0.2717 0.9244
vn 0.3597 0.3725 0.8555
vn 0.0939 -0.8618 0.4985
vn 0.3282 -0.2736 0.9041
vn -0.3023 -0.3743 0.8766
vn 0.4414 0.8770 0.1896
vn 0.7895 0.3054 0.5324
vn 0.9158 0.3918 -0.0881
vn 0.5232 -0.8475 0.0890
vn 0.9675 -0.2517 -0.0249
vn 0.7484 -0.3409 0.5689
vn 0.2964 0.8737 -0.3858
vn 0.7434 0.3063 -0.5945
vn 0.1907 0.3709 -0.9089
vn 0.2665 -0.8544 -0.4460
vn 0.2818 -0.2713 -0.9203
vn 0.7805 -0.3377 -0.5261
vn -0.2954 0.8554 -0.4256
vn -0.3421 0.2731 -0.8991
vn -0.8136 0.3387 -0.4726
vn -0.3213 -0.8729 -0.3671
vn -0.7812 -0.3051 -0.5447
vn -0.2505 -0.3690 -0.8950
vn -0.5161 0.8473 0.1252
vn -0.9670 0.2517 0.0397
vn -0.7091 0.3397 0.6179
vn -0.4280 -0.8774 0.2166
vn -0.7525 -0.3066 0.5829
vn -0.9197 -0.3916 -0.0281
vn 0.2092 0.9282 0.3076
vn 0.2665 -0.9147 0.3039
vn 0.8516 0.4213 -0.3119
vn 0.9999 -0.0156 -0.0000
vn 0.3928 -0.9099 -0.1337
vn 0.0160 -0.9211 -0.3891
vn -1.0000 0.0078 -0.0000
vn -0.4008 0.9101 -0.1056
vn -0.3434 -0.9328 -0.1094
vn -0.1885 -0.9289 0.3189
vn -0.0311 0.9995 0.0021
vn -0.0312 0.9995 0.0021
vn -0.9995 -0.0312 -0.0000
vt 0.750000 0.330744
vt 0.718127 0.466843
vt 0.847108 0.419447
vt 0.092609 0.567091
vt 0.000000 0.529210
vt 0.085088 0.500000
vt 0.907391 0.567091
vt 0.972072 0.500000
vt 1.000000 0.567647
vt 0.250000 0.313049
vt 0.283976 0.465315
vt 0.143099 0.412332
vt 0.900000 0.932909
vt 1.000000 0.972499
vt 0.906331 1.000000
vt 0.100000 0.932909
vt 0.029771 1.000000
vt 0.000000 0.933466
vt 0.826792 0.274951
vt 0.946380 0.347321
vt 0.941161 0.210007
vt 0.892609 0.567091
vt 0.786036 0.514605
vt 0.885088 0.500000
vt 0.707392 0.567091
vt 0.800000 0.567647
vt 0.309963 0.269483
vt 0.465276 0.284223
vt 0.371352 0.401832
vt 0.700000 0.932909
vt 0.814885 0.986249
vt 0.706331 1.000000
vt 0.900000 0.932909
vt 0.800000 0.933466
vt 0.797460 0.184676
vt 0.903243 0.093305
vt 0.771036 0.055836
vt 0.692609 0.567091
vt 0.586036 0.514605
vt 0.685088 0.500000
vt 0.507391 0.567091
vt 0.600000 0.567647
vt 0.287059 0.198992
vt 0.349071 0.055836
vt 0.431901 0.181506
vt 0.500000 0.932909
vt 0.614885 0.986249
vt 0.506331 1.000000
vt 0.700000 0.932909
vt 0.600000 0.933466
vt 0.702540 0.184676
vt 0.648329 0.055836
vt 0.571840 0.169993
vt 0.492609 0.567091
vt 0.386036 0.514605
vt 0.485088 0.500000
vt 0.307391 0.567091
vt 0.400000 0.567647
vt 0.212941 0.198992
vt 0.095954 0.095777
vt 0.241069 0.055836
vt 0.300000 0.932909
vt 0.414885 0.986249
vt 0.306331 1.000000
vt 0.500000 0.932909
vt 0.400000 0.933466
vt 0.673208 0.274951
vt 0.533921 0.286695
vt 0.618855 0.394717
vt 0.292609 0.567091
vt 0.186036 0.514605
vt 0.285088 0.500000
vt 0.107391 0.567091
vt 0.200000 0.567647
vt 0.190037 0.269483
vt 0.055723 0.348849
vt 0.062579 0.198494
vt 0.100000 0.932909
vt 0.214885 0.986249
vt 0.106331 1.000000
vt 0.300000 0.932909
vt 0.200000 0.933466
vt 0.914912 0.500000
vt 0.881145 0.394717
vt 0.893669 1.000000
vt 0.000000 0.567647
vt 1.000000 0.933466
vt 0.714912 0.500000
vt 0.928161 0.169993
vt 0.693669 1.000000
vt 0.514912 0.500000
vt 0.728964 0.055836
vt 0.493669 1.000000
vt 0.258931 0.055836
vt 0.314912 0.500000
vt 0.293669 1.000000
vt 0.068099 0.181506
vt 0.114912 0.500000
vt 0.093669 1.000000
vt 0.128648 0.401832
vt 0.750000 0.332711
vt 0.718520 0.467129
vt 0.845909 0.420318
vt 0.091455 0.559636
vt 0.000000 0.525965
vt 0.084038 0.500000
vt 0.908545 0.559636
vt 0.972417 0.500000
vt 1.000000 0.560131
vt 0.250000 0.313049
vt 0.283976 0.465315
vt 0.143099 0.412332
vt 0.900000 0.940364
vt 1.000000 0.975554
vt 0.906331 1.000000
vt 0.100000 0.940364
vt 0.000000 0.940858
vt 0.828662 0.275559
vt 0.946774 0.347035
vt 0.941619 0.211416
vt 0.891455 0.559636
vt 0.786209 0.512982
vt 0.884038 0.500000
vt 0.708545 0.559636
vt 0.800000 0.560131
vt 0.309963 0.269483
vt 0.465276 0.284223
vt 0.371352 0.401832
vt 0.700000 0.940364
vt 0.814885 0.987777
vt 0.706331 1.000000
vt 0.900000 0.940364
vt 0.800000 0.940858
vt 0.798616 0.183086
vt 0.903093 0.092842
vt 0.772518 0.055836
vt 0.691455 0.559636
vt 0.586209 0.512982
vt 0.684038 0.500000
vt 0.508545 0.559636
vt 0.600000 0.560131
vt 0.287059 0.198992
vt 0.431901 0.181506
vt 0.500000 0.940364
vt 0.614885 0.987777
vt 0.506331 1.000000
vt 0.600000 0.940858
vt 0.701384 0.183086
vt 0.647842 0.055836
vt 0.572297 0.168584
vt 0.491455 0.559636
vt 0.386208 0.512982
vt 0.484038 0.500000
vt 0.308545 0.559636
vt 0.400000 0.560131
vt 0.212941 0.198992
vt 0.095954 0.095777
vt 0.241069 0.055836
vt 0.300000 0.940364
vt 0.414885 0.987777
vt 0.306331 1.000000
vt 0.500000 0.940364
vt 0.400000 0.940858
vt 0.671338 0.275559
vt 0.533771 0.287158
vt 0.617656 0.393846
vt 0.291455 0.559636
vt 0.186209 0.512982
vt 0.284038 0.500000
vt 0.108545 0.559636
vt 0.200000 0.560131
vt 0.190037 0.269483
vt 0.055723 0.348849
vt 0.062579 0.198494
vt 0.214885 0.987777
vt 0.106331 1.000000
vt 0.300000 0.940364
vt 0.200000 0.940858
vt 0.915963 0.500000
vt 0.000000 0.560131
vt 1.000000 0.940858
vt 0.715962 0.500000
vt 0.927703 0.168584
vt 0.693669 1.000000
vt 0.437421 0.198494
vt 0.515962 0.500000
vt 0.493669 1.000000
vt 0.258931 0.055836
vt 0.315962 0.500000
vt 0.558380 0.211416
vt 0.068099 0.181506
vt 0.115962 0.500000
vt 0.093669 1.000000
vt 0.128648 0.401832
vt 0.750000 0.335168
vt 0.719012 0.467486
vt 0.844411 0.421407
vt 0.090014 0.552182
vt 0.000000 0.522719
vt 0.082724 0.500000
vt 0.909986 0.552182
vt 0.972848 0.500000
vt 1.000000 0.552614
vt 0.250000 0.313049
vt 0.283976 0.465315
vt 0.143099 0.412332
vt 0.900000 0.947818
vt 1.000000 0.978610
vt 0.906331 1.000000
vt 0.100000 0.947818
vt 0.029771 1.000000
vt 0.000000 0.948251
vt 0.831000 0.276318
vt 0.947266 0.346678
vt 0.942192 0.213178
vt 0.890014 0.552182
vt 0.786424 0.511360
vt 0.882725 0.500000
vt 0.709986 0.552182
vt 0.800000 0.552614
vt 0.465276 0.284223
vt 0.371352 0.401832
vt 0.700000 0.947818
vt 0.814885 0.989305
vt 0.900000 0.947818
vt 0.800000 0.948251
vt 0.800061 0.181098
vt 0.902905 0.092264
vt 0.774370 0.055836
vt 0.690014 0.552182
vt 0.586424 0.511360
vt 0.682725 0.500000
vt 0.509986 0.552182
vt 0.600000 0.552614
vt 0.349072 0.055836
vt 0.500000 0.947818
vt 0.614885 0.989305
vt 0.506331 1.000000
vt 0.700000 0.947818
vt 0.600000 0.948251
vt 0.699939 0.181098
vt 0.647234 0.055836
vt 0.572870 0.166822
vt 0.490014 0.552182
vt 0.386424 0.511360
vt 0.482724 0.500000
vt 0.309986 0.552182
vt 0.400000 0.552614
vt 0.212941 0.198992
vt 0.095954 0.095777
vt 0.241069 0.055836
vt 0.300000 0.947818
vt 0.414885 0.989305
vt 0.500000 0.947818
vt 0.400000 0.948251
vt 0.669000 0.276318
vt 0.533583 0.287736
vt 0.616157 0.392758
vt 0.290014 0.552182
vt 0.186424 0.511360
vt 0.282725 0.500000
vt 0.109986 0.552182
vt 0.200000 0.552614
vt 0.055723 0.348849
vt 0.062579 0.198494
vt 0.100000 0.947818
vt 0.214885 0.989305
vt 0.106331 1.000000
vt 0.300000 0.947818
vt 0.200000 0.948251
vt 0.917276 0.500000
vt 0.883843 0.392758
vt 0.893669 1.000000
vt 0.000000 0.552614
vt 1.000000 0.948251
vt 0.717276 0.500000
vt 0.517276 0.500000
vt 0.725630 0.055836
vt 0.317276 0.500000
vt 0.293669 1.000000
vt 0.068099 0.181506
vt 0.117276 0.500000
vt 0.093669 1.000000
vt 0.128648 0.401832
vt 0.750000 0.338328
vt 0.719645 0.467946
vt 0.842484 0.422806
vt 0.088162 0.544727
vt 0.000000 0.519474
vt 0.081036 0.500000
vt 0.911838 0.544727
vt 0.973402 0.500000
vt 1.000000 0.545098
vt 0.250000 0.313049
vt 0.143099 0.412332
vt 0.900000 0.955273
vt 1.000000 0.981666
vt 0.906331 1.000000
vt 0.100000 0.955273
vt 0.000000 0.955644
vt 0.834005 0.277295
vt 0.947898 0.346219
vt 0.942928 0.215443
vt 0.888161 0.544727
vt 0.786701 0.509737
vt 0.881036 0.500000
vt 0.711838 0.544727
vt 0.800000 0.545098
vt 0.309963 0.269483
vt 0.700000 0.955273
vt 0.814885 0.990833
vt 0.706331 1.000000
vt 0.900000 0.955273
vt 0.800000 0.955644
vt 0.801918 0.178541
vt 0.902663 0.091521
vt 0.776752 0.055836
vt 0.688161 0.544727
vt 0.586701 0.509737
vt 0.681036 0.500000
vt 0.511839 0.544727
vt 0.600000 0.545098
vt 0.287059 0.198992
vt 0.431901 0.181506
vt 0.500000 0.955273
vt 0.614885 0.990833
vt 0.700000 0.955273
vt 0.600000 0.955644
vt 0.698082 0.178541
vt 0.646453 0.055836
vt 0.573606 0.164557
vt 0.488162 0.544727
vt 0.386701 0.509737
vt 0.481036 0.500000
vt 0.311839 0.544727
vt 0.400000 0.545098
vt 0.212941 0.198992
vt 0.095954 0.095777
vt 0.241069 0.055836
vt 0.300000 0.955273
vt 0.414885 0.990833
vt 0.500000 0.955273
vt 0.400000 0.955644
vt 0.665995 0.277295
vt 0.533341 0.288479
vt 0.614230 0.391358
vt 0.288162 0.544727
vt 0.186701 0.509737
vt 0.281036 0.500000
vt 0.111839 0.544727
vt 0.200000 0.545098
vt 0.190037 0.269483
vt 0.062579 0.198494
vt 0.100000 0.955273
vt 0.214885 0.990833
vt 0.106331 1.000000
vt 0.300000 0.955273
vt 0.200000 0.955644
vt 0.918964 0.500000
vt 0.356901 0.412332
vt 0.000000 0.545098
vt 1.000000 0.955644
vt 0.718964 0.500000
vt 0.437421 0.198494
vt 0.518964 0.500000
vt 0.723248 0.055836
vt 0.493669 1.000000
vt 0.258931 0.055836
vt 0.318964 0.500000
vt 0.557072 0.215443
vt 0.118964 0.500000
vt 0.128648 0.401832
vt 0.750000 0.342541
vt 0.720488 0.468558
vt 0.839915 0.424673
vt 0.085693 0.537273
vt 0.000000 0.516228
vt 0.078785 0.500000
vt 0.914307 0.537273
vt 0.974141 0.500000
vt 1.000000 0.537582
vt 0.250000 0.313049
vt 0.143099 0.412332
vt 0.900000 0.962727
vt 1.000000 0.984721
vt 0.906331 1.000000
vt 0.100000 0.962727
vt 0.000000 0.963036
vt 0.838012 0.278597
vt 0.948741 0.345606
vt 0.943909 0.218463
vt 0.885693 0.537273
vt 0.787071 0.508114
vt 0.878785 0.500000
vt 0.714306 0.537273
vt 0.800000 0.537582
vt 0.309963 0.269483
vt 0.371352 0.401832
vt 0.700000 0.962727
vt 0.814885 0.992361
vt 0.900000 0.962727
vt 0.800000 0.963036
vt 0.804394 0.175133
vt 0.902341 0.090530
vt 0.779927 0.055836
vt 0.685693 0.537273
vt 0.587071 0.508114
vt 0.678785 0.500000
vt 0.514307 0.537273
vt 0.600000 0.537582
vt 0.287059 0.198992
vt 0.431901 0.181506
vt 0.500000 0.962727
vt 0.614885 0.992361
vt 0.506331 1.000000
vt 0.700000 0.962727
vt 0.600000 0.963036
vt 0.695606 0.175133
vt 0.645411 0.055836
vt 0.574587 0.161537
vt 0.485693 0.537273
vt 0.387071 0.508114
vt 0.478785 0.500000
vt 0.314307 0.537273
vt 0.400000 0.537582
vt 0.212941 0.198992
vt 0.300000 0.962727
vt 0.414885 0.992361
vt 0.306331 1.000000
vt 0.500000 0.962727
vt 0.400000 0.963036
vt 0.661988 0.278597
vt 0.533019 0.289470
vt 0.611661 0.389491
vt 0.285693 0.537273
vt 0.187071 0.508114
vt 0.278785 0.500000
vt 0.114307 0.537273
vt 0.200000 0.537582
vt 0.055723 0.348849
vt 0.100000 0.962727
vt 0.214885 0.992361
vt 0.106331 1.000000
vt 0.200000 0.963036
vt 0.921215 0.500000
vt 0.893669 1.000000
vt 0.000000 0.537582
vt 1.000000 0.963036
vt 0.721215 0.500000
vt 0.693669 1.000000
vt 0.521215 0.500000
vt 0.321215 0.500000
vt 0.556091 0.218463
vt 0.068099 0.181506
vt 0.121215 0.500000
vt 0.093669 1.000000
vt 0.181819 0.000000
vt 0.227273 0.078731
vt 0.136365 0.078731
vt 0.272728 0.157461
vt 0.318182 0.078731
vt 0.363637 0.157461
vt 0.909091 0.000000
vt 0.954545 0.078731
vt 0.863636 0.078731
vt 0.727273 0.000000
vt 0.772727 0.078731
vt 0.681818 0.078731
vt 0.545455 0.000000
vt 0.590909 0.078731
vt 0.500000 0.078731
vt 0.318182 0.236191
vt 0.090910 0.157461
vt 0.181819 0.157461
vt 0.136365 0.236191
vt 0.818182 0.157461
vt 0.909091 0.157461
vt 0.863636 0.236191
vt 0.636364 0.157461
vt 0.727273 0.157461
vt 0.681818 0.236191
vt 0.454546 0.157461
vt 0.545455 0.157461
vt 0.500000 0.236191
vt 0.227273 0.236191
vt 0.045455 0.236191
vt 0.772727 0.236191
vt 0.590909 0.236191
vt 0.409092 0.236191
vt 0.181819 0.314921
vt 0.272728 0.314921
vt 0.227273 0.393651
vt 0.000000 0.314921
vt 0.090910 0.314921
vt 0.045455 0.393651
vt 0.727273 0.314921
vt 0.818182 0.314921
vt 0.772727 0.393651
vt 0.545455 0.314921
vt 0.636364 0.314921
vt 0.590909 0.393651
vt 0.363637 0.314921
vt 0.454546 0.314921
vt 0.409092 0.393651
vt 0.500000 0.393651
vt 0.454546 0.472382
vt 0.681818 0.393651
vt 0.636364 0.472382
vt 0.863636 0.393651
vt 0.818182 0.472382
vt 0.909091 0.314921
vt 0.136365 0.393651
vt 0.090910 0.472382
vt 0.318182 0.393651
vt 0.272728 0.472382
vt 0.954545 0.236191
vt 1.000000 0.157461
vt 0.409092 0.078731
vt 0.363637 0.000000
vt 0.750000 0.315630
vt 0.715812 0.465161
vt 0.855827 0.413113
vt 0.100000 0.530667
vt 0.000000 0.512961
vt 0.092727 0.500000
vt 0.900000 0.530667
vt 0.970044 0.500000
vt 1.000000 0.530667
vt 0.250000 0.315630
vt 0.284188 0.465161
vt 0.144174 0.413113
vt 0.900000 0.969333
vt 1.000000 0.987039
vt 0.907273 1.000000
vt 0.100000 0.969333
vt 0.029956 1.000000
vt 0.000000 0.969333
vt 0.812418 0.270281
vt 0.944066 0.349003
vt 0.937832 0.199758
vt 0.900000 0.530667
vt 0.785022 0.506481
vt 0.892727 0.500000
vt 0.700000 0.530667
vt 0.800000 0.530667
vt 0.312418 0.270281
vt 0.465195 0.283974
vt 0.372427 0.401051
vt 0.700000 0.969333
vt 0.814978 0.993519
vt 0.707273 1.000000
vt 0.900000 0.969333
vt 0.800000 0.969333
vt 0.788576 0.196904
vt 0.904127 0.096026
vt 0.760260 0.055836
vt 0.585022 0.506481
vt 0.692727 0.500000
vt 0.500000 0.530667
vt 0.600000 0.530667
vt 0.288576 0.196904
vt 0.348810 0.055836
vt 0.431491 0.180242
vt 0.500000 0.969333
vt 0.614978 0.993519
vt 0.507273 1.000000
vt 0.700000 0.969333
vt 0.600000 0.969333
vt 0.711424 0.196904
vt 0.651190 0.055836
vt 0.568510 0.180242
vt 0.500000 0.530667
vt 0.385022 0.506481
vt 0.492727 0.500000
vt 0.300000 0.530667
vt 0.400000 0.530667
vt 0.211424 0.196904
vt 0.095873 0.096026
vt 0.239740 0.055836
vt 0.300000 0.969333
vt 0.414978 0.993519
vt 0.307273 1.000000
vt 0.400000 0.969333
vt 0.687582 0.270281
vt 0.534805 0.283974
vt 0.627573 0.401051
vt 0.185022 0.506481
vt 0.292727 0.500000
vt 0.100000 0.530667
vt 0.200000 0.530667
vt 0.187582 0.270281
vt 0.055934 0.349003
vt 0.062169 0.199758
vt 0.100000 0.969333
vt 0.214978 0.993519
vt 0.107273 1.000000
vt 0.300000 0.969333
vt 0.200000 0.969333
vt 0.907273 0.500000
vt 0.872427 0.401051
vt 0.892727 1.000000
vt 0.000000 0.530667
vt 0.707273 0.500000
vt 0.692727 1.000000
vt 0.507273 0.500000
vt 0.739740 0.055836
vt 0.492727 1.000000
vt 0.307273 0.500000
vt 0.562168 0.199758
vt 0.292727 1.000000
vt 0.107273 0.500000
vt 0.644174 0.413113
vt 0.092727 1.000000
vt 0.652892 0.419447
vt 0.437421 0.198494
vt 0.558838 0.210007
vt 0.654091 0.420318
vt 0.356901 0.412332
vt 0.882344 0.393846
vt 0.727482 0.055836
vt 0.655589 0.421407
vt 0.437421 0.198494
vt 0.927130 0.166822
vt 0.557808 0.213178
vt 0.657516 0.422806
vt 0.885770 0.391358
vt 0.926394 0.164557
vt 0.660085 0.424673
vt 0.356901 0.412332
vt 0.888339 0.389491
vt 0.437421 0.198494
vt 0.925413 0.161537
vt 0.258931 0.055836
vt 0.720073 0.055836
vt 0.355826 0.413113
vt 1.000000 0.969333
vt 0.437831 0.199758
vt 0.931491 0.180242
vt 0.260260 0.055836
vt 0.068509 0.180242
vt 0.127573 0.401051
s 0
usemtl core
f 1/1/1 5/2/1 7/3/1
f 2/4/2 5/5/2 4/6/2
f 3/7/3 5/8/3 6/9/3
f 8/10/4 12/11/4 14/12/4
f 9/13/5 12/14/5 11/15/5
f 10/16/6 12/17/6 13/18/6
f 15/19/7 19/20/7 21/21/7
f 16/22/8 19/23/8 18/24/8
f 17/25/9 19/23/9 20/26/9
f 22/27/10 26/28/10 28/29/10
f 23/30/11 26/31/11 25/32/11
f 24/33/12 26/31/12 27/34/12
f 29/35/13 33/36/13 35/37/13
f 30/38/14 33/39/14 32/40/14
f 31/41/15 33/39/15 34/42/15
f 36/43/16 40/44/16 42/45/16
f 37/46/17 40/47/17 39/48/17
f 38/49/18 40/47/18 41/50/18
f 43/51/19 47/52/19 49/53/19
f 44/54/20 47/55/20 46/56/20
f 45/57/21 47/55/21 48/58/21
f 50/59/22 54/60/22 56/61/22
f 51/62/23 54/63/23 53/64/23
f 52/65/24 54/63/24 55/66/24
f 57/67/25 61/68/25 63/69/25
f 58/70/26 61/71/26 60/72/26
f 59/73/27 61/71/27 62/74/27
f 64/75/28 68/76/28 70/77/28
f 65/78/29 68/79/29 67/80/29
f 66/81/30 68/79/30 69/82/30
f 16/22/31 7/83/31 3/7/31
f 18/84/32 1/1/32 7/3/32
f 24/33/33 11/15/33 28/85/33
f 28/29/34 8/10/34 22/27/34
f 2/4/35 13/18/35 6/86/35
f 13/87/36 3/7/36 6/9/36
f 17/25/37 27/34/37 23/30/37
f 27/34/38 16/22/38 24/33/38
f 30/38/39 21/88/39 17/25/39
f 32/89/40 15/19/40 21/21/40
f 38/49/41 25/32/41 42/90/41
f 42/45/42 22/27/42 36/43/42
f 31/41/43 41/50/43 37/46/43
f 41/50/44 30/38/44 38/49/44
f 44/54/45 35/91/45 31/41/45
f 46/92/46 29/35/46 35/37/46
f 37/46/47 56/93/47 52/65/47
f 39/94/48 50/59/48 56/61/48
f 45/57/49 55/66/49 51/62/49
f 55/66/50 44/54/50 52/65/50
f 45/57/51 60/72/51 49/95/51
f 49/53/52 57/67/52 43/51/52
f 66/81/53 53/64/53 70/96/53
f 53/97/54 64/75/54 70/77/54
f 59/73/55 69/82/55 65/78/55
f 69/82/56 58/70/56 66/81/56
f 59/73/57 4/6/57 63/98/57
f 63/69/58 1/1/58 57/67/58
f 10/16/59 67/80/59 14/99/59
f 67/100/60 8/10/60 14/12/60
f 15/19/61 43/51/61 57/67/61
f 9/13/62 16/22/62 3/7/62
f 59/73/63 10/16/63 2/4/63
f 8/10/64 50/59/64 36/43/64
f 17/25/65 38/49/65 30/38/65
f 37/46/66 44/54/66 31/41/66
f 45/57/67 66/81/67 58/70/67
f 71/101/68 75/102/68 77/103/68
f 72/104/69 75/105/69 74/106/69
f 73/107/70 75/108/70 76/109/70
f 78/110/71 82/111/71 84/112/71
f 79/113/72 82/114/72 81/115/72
f 80/116/73 82/17/73 83/117/73
f 85/118/74 89/119/74 91/120/74
f 86/121/75 89/122/75 88/123/75
f 87/124/76 89/122/76 90/125/76
f 92/126/77 96/127/77 98/128/77
f 93/129/78 96/130/78 95/131/78
f 94/132/79 96/130/79 97/133/79
f 99/134/80 103/135/80 105/136/80
f 100/137/81 103/138/81 102/139/81
f 101/140/82 103/138/82 104/141/82
f 106/142/83 110/44/83 112/143/83
f 107/144/84 110/145/84 109/146/84
f 108/129/85 110/145/85 111/147/85
f 113/148/86 117/149/86 119/150/86
f 114/151/87 117/152/87 116/153/87
f 115/154/88 117/152/88 118/155/88
f 120/156/89 124/157/89 126/158/89
f 121/159/90 124/160/90 123/161/90
f 122/162/91 124/160/91 125/163/91
f 127/164/92 131/165/92 133/166/92
f 128/167/93 131/168/93 130/169/93
f 129/170/94 131/168/94 132/171/94
f 134/172/95 138/173/95 140/174/95
f 135/116/96 138/175/96 137/176/96
f 136/177/97 138/175/97 139/178/97
f 73/107/98 88/123/98 77/179/98
f 77/103/99 85/118/99 71/101/99
f 94/132/100 81/115/100 98/85/100
f 98/128/101 78/110/101 92/126/101
f 72/104/102 83/117/102 76/180/102
f 83/181/103 73/107/103 76/109/103
f 87/124/104 97/133/104 93/129/104
f 97/133/105 86/121/105 94/132/105
f 87/124/106 102/139/106 91/182/106
f 102/183/107 85/118/107 91/120/107
f 108/129/108 95/131/108 112/184/108
f 95/185/109 106/142/109 112/143/109
f 101/140/110 111/147/110 107/144/110
f 111/147/111 100/137/111 108/129/111
f 101/140/112 116/153/112 105/186/112
f 105/136/113 113/148/113 99/134/113
f 107/144/114 126/187/114 122/162/114
f 109/188/115 120/156/115 126/158/115
f 115/154/116 125/163/116 121/159/116
f 125/163/117 114/151/117 122/162/117
f 115/154/118 130/169/118 119/189/118
f 130/190/119 113/148/119 119/150/119
f 121/159/47 140/96/47 136/177/47
f 123/191/120 134/172/120 140/174/120
f 129/170/121 139/178/121 135/116/121
f 139/178/122 128/167/122 136/177/122
f 72/104/123 133/192/123 129/170/123
f 133/166/124 71/101/124 127/164/124
f 80/116/125 137/176/125 84/193/125
f 137/194/126 78/110/126 84/112/126
f 85/118/127 113/148/127 127/164/127
f 73/107/128 94/132/128 86/121/128
f 135/116/129 72/104/129 129/170/129
f 78/110/130 120/156/130 106/142/130
f 87/124/131 108/129/131 100/137/131
f 107/144/132 114/151/132 101/140/132
f 121/159/133 128/167/133 115/154/133
f 141/195/134 145/196/134 147/197/134
f 142/198/135 145/199/135 144/200/135
f 143/201/136 145/202/136 146/203/136
f 148/204/137 152/205/137 154/206/137
f 149/207/138 152/208/138 151/209/138
f 150/210/139 152/211/139 153/212/139
f 155/213/140 159/214/140 161/215/140
f 156/216/141 159/217/141 158/218/141
f 157/219/142 159/217/142 160/220/142
f 162/126/143 166/221/143 168/222/143
f 163/223/144 166/224/144 165/131/144
f 164/225/145 166/224/145 167/226/145
f 169/227/146 173/228/146 175/229/146
f 170/230/147 173/231/147 172/232/147
f 171/233/148 173/231/148 174/234/148
f 176/43/149 180/235/149 182/45/149
f 177/236/150 180/237/150 179/238/150
f 178/239/151 180/237/151 181/240/151
f 183/241/152 187/242/152 189/243/152
f 184/244/153 187/245/153 186/246/153
f 185/247/154 187/245/154 188/248/154
f 190/249/155 194/250/155 196/251/155
f 191/252/156 194/253/156 193/64/156
f 192/254/157 194/253/157 195/255/157
f 197/256/158 201/257/158 203/258/158
f 198/259/159 201/260/159 200/261/159
f 199/262/160 201/260/160 202/263/160
f 204/172/161 208/264/161 210/265/161
f 205/266/162 208/267/162 207/268/162
f 206/269/163 208/267/163 209/270/163
f 143/201/164 158/218/164 147/271/164
f 158/272/165 141/195/165 147/197/165
f 164/225/166 151/209/166 168/273/166
f 168/222/167 148/204/167 162/126/167
f 142/198/168 153/212/168 146/274/168
f 153/275/169 143/201/169 146/203/169
f 157/219/170 167/226/170 163/223/170
f 167/226/171 156/216/171 164/225/171
f 170/230/172 161/276/172 157/219/172
f 161/215/173 169/227/173 155/213/173
f 178/239/174 165/131/174 182/90/174
f 182/45/175 162/126/175 176/43/175
f 171/233/176 181/240/176 177/236/176
f 181/240/177 170/230/177 178/239/177
f 184/244/178 175/277/178 171/233/178
f 186/278/179 169/227/179 175/229/179
f 177/236/180 196/93/180 192/254/180
f 196/251/181 176/43/181 190/249/181
f 185/247/182 195/255/182 191/252/182
f 195/255/183 184/244/183 192/254/183
f 198/259/184 189/279/184 185/247/184
f 189/243/185 197/256/185 183/241/185
f 206/269/186 193/64/186 210/280/186
f 193/281/187 204/172/187 210/265/187
f 199/262/188 209/270/188 205/266/188
f 209/270/189 198/259/189 206/269/189
f 199/262/190 144/200/190 203/282/190
f 203/258/191 141/195/191 197/256/191
f 205/266/47 154/283/47 150/210/47
f 207/284/192 148/204/192 154/206/192
f 155/213/193 183/241/193 197/256/193
f 149/207/194 156/216/194 143/201/194
f 199/262/195 150/210/195 142/198/195
f 148/204/196 190/249/196 176/43/196
f 157/219/197 178/239/197 170/230/197
f 177/236/198 184/244/198 171/233/198
f 185/247/199 206/269/199 198/259/199
f 211/285/200 215/286/200 217/287/200
f 212/288/201 215/289/201 214/290/201
f 213/291/202 215/292/202 216/293/202
f 218/294/203 222/11/203 224/295/203
f 219/296/204 222/297/204 221/298/204
f 220/299/205 222/17/205 223/300/205
f 225/301/206 229/302/206 231/303/206
f 226/304/207 229/305/207 228/306/207
f 227/307/208 229/305/208 230/308/208
f 232/309/209 236/221/209 238/29/209
f 233/310/210 236/311/210 235/312/210
f 234/313/211 236/311/211 237/314/211
f 239/315/212 243/316/212 245/317/212
f 240/318/213 243/319/213 242/320/213
f 241/321/214 243/319/214 244/322/214
f 246/323/215 250/235/215 252/324/215
f 247/325/216 250/326/216 249/48/216
f 248/327/217 250/326/217 251/328/217
f 253/329/218 257/330/218 259/331/218
f 254/332/219 257/333/219 256/334/219
f 255/335/220 257/333/220 258/336/220
f 260/337/221 264/338/221 266/339/221
f 261/340/222 264/341/222 263/64/222
f 262/342/223 264/341/223 265/343/223
f 267/344/224 271/345/224 273/346/224
f 268/347/225 271/348/225 270/349/225
f 269/350/226 271/348/226 272/351/226
f 274/352/227 278/173/227 280/353/227
f 275/354/228 278/355/228 277/356/228
f 276/357/229 278/355/229 279/358/229
f 226/304/230 217/359/230 213/291/230
f 217/287/231 225/301/231 211/285/231
f 234/313/232 221/298/232 238/273/232
f 221/360/233 232/309/233 238/29/233
f 212/288/234 223/300/234 216/361/234
f 223/362/235 213/291/235 216/293/235
f 227/307/236 237/314/236 233/310/236
f 237/314/237 226/304/237 234/313/237
f 240/318/238 231/363/238 227/307/238
f 231/303/239 239/315/239 225/301/239
f 248/327/240 235/312/240 252/90/240
f 235/364/241 246/323/241 252/324/241
f 241/321/242 251/328/242 247/325/242
f 251/328/243 240/318/243 248/327/243
f 254/332/244 245/365/244 241/321/244
f 256/366/245 239/315/245 245/317/245
f 247/325/180 266/367/180 262/342/180
f 249/368/246 260/337/246 266/339/246
f 255/335/247 265/343/247 261/340/247
f 265/343/248 254/332/248 262/342/248
f 255/335/249 270/349/249 259/369/249
f 270/370/250 253/329/250 259/331/250
f 261/340/47 280/280/47 276/357/47
f 280/353/251 260/337/251 274/352/251
f 269/350/252 279/358/252 275/354/252
f 279/358/253 268/347/253 276/357/253
f 212/288/254 273/371/254 269/350/254
f 273/346/255 211/285/255 267/344/255
f 220/299/256 277/356/256 224/283/256
f 277/372/257 218/294/257 224/295/257
f 225/301/258 253/329/258 267/344/258
f 213/291/259 234/313/259 226/304/259
f 269/350/260 220/299/260 212/288/260
f 218/294/261 260/337/261 246/323/261
f 227/307/262 248/327/262 240/318/262
f 247/325/263 254/332/263 241/321/263
f 255/335/264 276/357/264 268/347/264
f 281/373/265 285/374/265 287/375/265
f 282/376/266 285/377/266 284/378/266
f 283/379/267 285/380/267 286/381/267
f 288/382/268 292/205/268 294/383/268
f 289/384/269 292/385/269 291/386/269
f 290/387/270 292/17/270 293/388/270
f 295/389/271 299/390/271 301/391/271
f 296/392/272 299/393/272 298/394/272
f 297/395/273 299/393/273 300/396/273
f 302/397/274 306/28/274 308/398/274
f 303/399/275 306/400/275 305/131/275
f 304/401/276 306/400/276 307/402/276
f 309/403/277 313/404/277 315/405/277
f 310/406/278 313/407/278 312/408/278
f 311/409/279 313/407/279 314/410/279
f 316/411/280 320/235/280 322/412/280
f 317/413/281 320/414/281 319/415/281
f 318/416/282 320/414/282 321/417/282
f 323/418/283 327/419/283 329/420/283
f 324/421/284 327/422/284 326/423/284
f 325/424/285 327/422/285 328/425/285
f 330/426/286 334/250/286 336/339/286
f 331/427/287 334/428/287 333/429/287
f 332/430/288 334/428/288 335/431/288
f 337/432/289 341/433/289 343/434/289
f 338/435/290 341/436/290 340/437/290
f 339/438/291 341/436/291 342/439/291
f 344/172/292 348/440/292 350/265/292
f 345/441/293 348/442/293 347/443/293
f 346/427/294 348/442/294 349/444/294
f 283/379/295 298/394/295 287/445/295
f 287/375/296 295/389/296 281/373/296
f 304/401/297 291/386/297 308/446/297
f 308/398/298 288/382/298 302/397/298
f 282/376/299 293/388/299 286/447/299
f 293/448/300 283/379/300 286/381/300
f 297/395/301 307/402/301 303/399/301
f 307/402/302 296/392/302 304/401/302
f 310/406/303 301/449/303 297/395/303
f 301/391/304 309/403/304 295/389/304
f 318/416/305 305/131/305 322/450/305
f 322/412/306 302/397/306 316/411/306
f 311/409/307 321/417/307 317/413/307
f 321/417/308 310/406/308 318/416/308
f 324/421/309 315/451/309 311/409/309
f 315/405/310 323/418/310 309/403/310
f 317/413/180 336/367/180 332/430/180
f 336/339/311 316/411/311 330/426/311
f 325/424/312 335/431/312 331/427/312
f 335/431/313 324/421/313 332/430/313
f 325/424/314 340/437/314 329/452/314
f 340/453/315 323/418/315 329/420/315
f 346/427/316 333/429/316 350/96/316
f 333/454/317 344/172/317 350/265/317
f 339/438/318 349/444/318 345/441/318
f 349/444/319 338/435/319 346/427/319
f 339/438/320 284/378/320 343/455/320
f 343/434/321 281/373/321 337/432/321
f 290/387/322 347/443/322 294/456/322
f 294/383/323 344/172/323 288/382/323
f 295/389/324 323/418/324 337/432/324
f 283/379/325 304/401/325 296/392/325
f 339/438/326 290/387/326 282/376/326
f 288/382/327 330/426/327 316/411/327
f 297/395/328 318/416/328 310/406/328
f 317/413/329 324/421/329 311/409/329
f 325/424/330 346/427/330 338/435/330
f 351/457/331 364/458/331 363/459/331
f 352/460/332 364/461/332 366/462/332
f 351/463/333 363/464/333 368/465/333
f 351/466/334 368/467/334 370/468/334
f 351/469/335 370/470/335 367/471/335
f 352/460/336 366/462/336 373/472/336
f 353/473/337 365/474/337 375/475/337
f 354/476/338 369/477/338 377/478/338
f 355/479/339 371/480/339 379/481/339
f 356/482/340 372/483/340 381/484/340
f 352/460/341 373/472/341 376/485/341
f 353/473/342 375/475/342 378/486/342
f 354/476/343 377/478/343 380/487/343
f 355/479/344 379/481/344 382/488/344
f 356/482/345 381/484/345 374/489/345
f 357/490/346 383/491/346 388/492/346
f 358/493/347 384/494/347 390/495/347
f 359/496/348 385/497/348 391/498/348
f 360/499/349 386/500/349 392/501/349
f 361/502/350 387/503/350 389/504/350
f 389/504/351 392/505/351 362/506/351
f 389/504/352 387/503/352 392/505/352
f 387/503/353 360/499/353 392/505/353
f 392/501/354 391/507/354 362/508/354
f 392/501/355 386/500/355 391/507/355
f 386/500/356 359/496/356 391/507/356
f 391/498/357 390/509/357 362/510/357
f 391/498/358 385/497/358 390/509/358
f 385/497/359 358/511/359 390/509/359
f 390/495/360 388/512/360 362/513/360
f 390/495/361 384/494/361 388/512/361
f 384/494/362 357/490/362 388/512/362
f 388/492/363 389/514/363 362/515/363
f 388/492/364 383/491/364 389/514/364
f 383/491/365 361/502/365 389/514/365
f 374/489/366 387/503/366 361/502/366
f 374/489/367 381/484/367 387/503/367
f 381/484/368 360/499/368 387/503/368
f 382/488/369 386/500/369 360/499/369
f 382/488/370 379/481/370 386/500/370
f 379/481/371 359/496/371 386/500/371
f 380/487/372 385/497/372 359/496/372
f 380/487/373 377/478/373 385/497/373
f 377/478/374 358/511/374 385/497/374
f 378/486/375 384/494/375 358/493/375
f 378/486/376 375/475/376 384/494/376
f 375/475/377 357/490/377 384/494/377
f 376/485/378 383/491/378 357/490/378
f 376/485/379 373/472/379 383/491/379
f 373/472/380 361/502/380 383/491/380
f 381/484/381 382/488/381 360/499/381
f 381/484/382 372/483/382 382/488/382
f 372/483/383 355/479/383 382/488/383
f 379/481/384 380/487/384 359/496/384
f 379/481/385 371/480/385 380/487/385
f 371/480/386 354/476/386 380/487/386
f 377/478/387 378/516/387 358/511/387
f 377/478/388 369/477/388 378/516/388
f 369/477/389 353/517/389 378/516/389
f 375/475/390 376/485/390 357/490/390
f 375/475/391 365/474/391 376/485/391
f 365/474/392 352/460/392 376/485/392
f 373/472/393 374/489/393 361/502/393
f 373/472/394 366/462/394 374/489/394
f 366/462/395 356/482/395 374/489/395
f 367/471/396 372/483/396 356/482/396
f 367/471/397 370/470/397 372/483/397
f 370/470/398 355/479/398 372/483/398
f 370/468/399 371/480/399 355/479/399
f 370/468/400 368/467/400 371/480/400
f 368/467/401 354/476/401 371/480/401
f 368/465/402 369/477/402 354/476/402
f 368/465/403 363/464/403 369/477/403
f 363/464/404 353/517/404 369/477/404
f 366/462/405 367/518/405 356/482/405
f 366/462/406 364/461/406 367/518/406
f 364/461/407 351/519/407 367/518/407
f 363/459/408 365/474/408 353/473/408
f 363/459/409 364/458/409 365/474/409
f 364/458/410 352/460/410 365/474/410
f 393/457/411 406/458/411 405/459/411
f 394/460/412 406/461/412 408/462/412
f 393/463/413 405/464/413 410/465/413
f 393/466/414 410/467/414 412/468/414
f 393/469/415 412/470/415 409/471/415
f 394/460/416 408/462/416 415/472/416
f 395/473/417 407/474/417 417/475/417
f 396/476/418 411/477/418 419/478/418
f 397/479/419 413/480/419 421/481/419
f 398/482/420 414/483/420 423/484/420
f 394/460/421 415/472/421 418/485/421
f 395/473/422 417/475/422 420/486/422
f 396/476/423 419/478/423 422/487/423
f 397/479/424 421/481/424 424/488/424
f 398/482/425 423/484/425 416/489/425
f 399/490/426 425/491/426 430/492/426
f 400/493/427 426/494/427 432/495/427
f 401/496/428 427/497/428 433/498/428
f 402/499/429 428/500/429 434/501/429
f 403/502/430 429/503/430 431/504/430
f 431/504/431 434/505/431 404/506/431
f 431/504/432 429/503/432 434/505/432
f 429/503/433 402/499/433 434/505/433
f 434/501/434 433/507/434 404/508/434
f 434/501/435 428/500/435 433/507/435
f 428/500/436 401/496/436 433/507/436
f 433/498/437 432/509/437 404/510/437
f 433/498/438 427/497/438 432/509/438
f 427/497/439 400/511/439 432/509/439
f 432/495/440 430/512/440 404/513/440
f 432/495/441 426/494/441 430/512/441
f 426/494/442 399/490/442 430/512/442
f 430/492/443 431/514/443 404/515/443
f 430/492/444 425/491/444 431/514/444
f 425/491/445 403/502/445 431/514/445
f 416/489/446 429/503/446 403/502/446
f 416/489/447 423/484/447 429/503/447
f 423/484/448 402/499/448 429/503/448
f 424/488/449 428/500/449 402/499/449
f 424/488/450 421/481/450 428/500/450
f 421/481/451 401/496/451 428/500/451
f 422/487/452 427/497/452 401/496/452
f 422/487/453 419/478/453 427/497/453
f 419/478/454 400/511/454 427/497/454
f 420/486/455 426/494/455 400/493/455
f 420/486/456 417/475/456 426/494/456
f 417/475/457 399/490/457 426/494/457
f 418/485/458 425/491/458 399/490/458
f 418/485/459 415/472/459 425/491/459
f 415/472/460 403/502/460 425/491/460
f 423/484/461 424/488/461 402/499/461
f 423/484/462 414/483/462 424/488/462
f 414/483/463 397/479/463 424/488/463
f 421/481/464 422/487/464 401/496/464
f 421/481/465 413/480/465 422/487/465
f 413/480/466 396/476/466 422/487/466
f 419/478/467 420/516/467 400/511/467
f 419/478/468 411/477/468 420/516/468
f 411/477/469 395/517/469 420/516/469
f 417/475/470 418/485/470 399/490/470
f 417/475/471 407/474/471 418/485/471
f 407/474/472 394/460/472 418/485/472
f 415/472/473 416/489/473 403/502/473
f 415/472/474 408/462/474 416/489/474
f 408/462/475 398/482/475 416/489/475
f 409/471/476 414/483/476 398/482/476
f 409/471/477 412/470/477 414/483/477
f 412/470/478 397/479/478 414/483/478
f 412/468/479 413/480/479 397/479/479
f 412/468/480 410/467/480 413/480/480
f 410/467/481 396/476/481 413/480/481
f 410/465/482 411/477/482 396/476/482
f 410/465/483 405/464/483 411/477/483
f 405/464/484 395/517/484 411/477/484
f 408/462/485 409/518/485 398/482/485
f 408/462/486 406/461/486 409/518/486
f 406/461/487 393/519/487 409/518/487
f 405/459/488 407/474/488 395/473/488
f 405/459/489 406/458/489 407/474/489
f 406/458/490 394/460/490 407/474/490
f 435/520/491 439/521/491 441/522/491
f 436/523/492 439/524/492 438/525/492
f 437/526/493 439/527/493 440/528/493
f 442/529/494 446/530/494 448/531/494
f 443/532/495 446/533/495 445/534/495
f 444/535/496 446/536/496 447/537/496
f 449/538/497 453/539/497 455/540/497
f 450/541/498 453/542/498 452/543/498
f 451/544/499 453/542/499 454/545/499
f 456/546/500 460/547/500 462/548/500
f 457/549/501 460/550/501 459/551/501
f 458/552/502 460/550/502 461/553/502
f 463/554/503 467/555/503 469/556/503
f 464/544/504 467/557/504 466/558/504
f 465/559/505 467/557/505 468/560/505
f 470/561/506 474/562/506 476/563/506
f 471/564/507 474/565/507 473/566/507
f 472/567/508 474/565/508 475/568/508
f 477/569/509 481/570/509 483/571/509
f 478/572/510 481/573/510 480/574/510
f 479/575/511 481/573/511 482/576/511
f 484/577/512 488/578/512 490/579/512
f 485/580/513 488/581/513 487/582/513
f 486/564/514 488/581/514 489/583/514
f 491/584/515 495/585/515 497/586/515
f 492/575/516 495/587/516 494/588/516
f 493/589/517 495/587/517 496/590/517
f 498/591/518 502/592/518 504/593/518
f 499/594/519 502/595/519 501/596/519
f 500/597/520 502/595/520 503/598/520
f 437/526/521 452/543/521 441/599/521
f 452/600/522 435/520/522 441/522/522
f 458/552/523 445/534/523 462/601/523
f 462/548/524 442/529/524 456/546/524
f 436/523/525 447/537/525 440/602/525
f 440/528/526 443/532/526 437/526/526
f 451/544/527 461/553/527 457/549/527
f 454/545/528 458/552/528 461/553/528
f 464/544/47 455/603/47 451/544/47
f 455/540/529 463/554/529 449/538/529
f 472/567/530 459/551/530 476/604/530
f 476/563/531 456/546/531 470/561/531
f 471/564/532 468/560/532 475/568/532
f 475/568/533 464/544/533 472/567/533
f 465/559/534 480/574/534 469/605/534
f 480/606/535 463/554/535 469/556/535
f 486/564/536 473/566/536 490/607/536
f 490/579/537 470/561/537 484/577/537
f 479/575/538 489/583/538 485/580/538
f 489/583/539 478/572/539 486/564/539
f 479/575/540 494/588/540 483/608/540
f 494/609/541 477/569/541 483/571/541
f 500/597/542 487/582/542 504/610/542
f 504/593/543 484/577/543 498/591/543
f 499/594/544 496/590/544 503/598/544
f 496/590/545 500/597/545 503/598/545
f 493/589/546 438/525/546 497/611/546
f 438/612/547 491/584/547 497/586/547
f 444/535/548 501/596/548 448/613/548
f 448/531/549 498/591/549 442/529/549
f 449/538/550 477/569/550 491/584/550
f 437/526/47 458/552/47 450/541/47
f 493/589/47 444/535/47 436/523/47
f 442/529/551 484/577/551 470/561/551
f 451/544/552 472/567/552 464/544/552
f 465/559/47 486/564/47 478/572/47
f 485/580/553 492/575/553 479/575/553
f 1/1/554 4/614/554 5/2/554
f 2/4/555 6/86/555 5/5/555
f 3/7/556 7/83/556 5/8/556
f 8/10/557 11/360/557 12/11/557
f 9/13/558 13/87/558 12/14/558
f 10/16/559 14/99/559 12/17/559
f 15/19/560 18/84/560 19/20/560
f 16/22/561 20/26/561 19/23/561
f 17/25/562 21/88/562 19/23/562
f 22/27/563 25/615/563 26/28/563
f 23/30/564 27/34/564 26/31/564
f 24/33/565 28/85/565 26/31/565
f 29/35/566 32/89/566 33/36/566
f 30/38/567 34/42/567 33/39/567
f 31/41/568 35/91/568 33/39/568
f 36/43/569 39/94/569 40/44/569
f 37/46/570 41/50/570 40/47/570
f 38/49/571 42/90/571 40/47/571
f 43/51/572 46/92/572 47/52/572
f 44/54/573 48/58/573 47/55/573
f 45/57/574 49/95/574 47/55/574
f 50/59/575 53/97/575 54/60/575
f 51/62/576 55/66/576 54/63/576
f 52/65/577 56/93/577 54/63/577
f 57/67/578 60/616/578 61/68/578
f 58/70/579 62/74/579 61/71/579
f 59/73/580 63/98/580 61/71/580
f 64/75/581 67/100/581 68/76/581
f 65/78/582 69/82/582 68/79/582
f 66/81/583 70/96/583 68/79/583
f 16/22/31 18/24/31 7/83/31
f 18/84/584 15/19/584 1/1/584
f 24/33/47 9/13/47 11/15/47
f 28/29/585 11/360/585 8/10/585
f 2/4/35 10/16/35 13/18/35
f 13/87/36 9/13/36 3/7/36
f 17/25/37 20/26/37 27/34/37
f 27/34/38 20/26/38 16/22/38
f 30/38/39 32/40/39 21/88/39
f 32/89/40 29/35/40 15/19/40
f 38/49/586 23/30/586 25/32/586
f 42/45/587 25/615/587 22/27/587
f 31/41/43 34/42/43 41/50/43
f 41/50/44 34/42/44 30/38/44
f 44/54/45 46/56/45 35/91/45
f 46/92/46 43/51/46 29/35/46
f 37/46/588 39/48/588 56/93/588
f 39/94/589 36/43/589 50/59/589
f 45/57/49 48/58/49 55/66/49
f 55/66/50 48/58/50 44/54/50
f 45/57/51 58/70/51 60/72/51
f 49/53/590 60/616/590 57/67/590
f 66/81/47 51/62/47 53/64/47
f 53/97/591 50/59/591 64/75/591
f 59/73/55 62/74/55 69/82/55
f 69/82/56 62/74/56 58/70/56
f 59/73/592 2/4/592 4/6/592
f 63/69/593 4/614/593 1/1/593
f 10/16/594 65/78/594 67/80/594
f 67/100/60 64/75/60 8/10/60
f 57/67/595 1/1/595 15/19/595
f 15/19/61 29/35/61 43/51/61
f 9/13/47 24/33/47 16/22/47
f 59/73/586 65/78/586 10/16/586
f 36/43/596 22/27/596 8/10/596
f 8/10/596 64/75/596 50/59/596
f 17/25/586 23/30/586 38/49/586
f 37/46/597 52/65/597 44/54/597
f 45/57/586 51/62/586 66/81/586
f 71/101/598 74/617/598 75/102/598
f 72/104/599 76/180/599 75/105/599
f 73/107/600 77/179/600 75/108/600
f 78/110/601 81/618/601 82/111/601
f 79/113/602 83/181/602 82/114/602
f 80/116/603 84/193/603 82/17/603
f 85/118/604 88/619/604 89/119/604
f 86/121/605 90/125/605 89/122/605
f 87/124/606 91/182/606 89/122/606
f 92/126/607 95/185/607 96/127/607
f 93/129/608 97/133/608 96/130/608
f 94/132/609 98/85/609 96/130/609
f 99/134/610 102/183/610 103/135/610
f 100/137/611 104/141/611 103/138/611
f 101/140/612 105/186/612 103/138/612
f 106/142/613 109/188/613 110/44/613
f 107/144/614 111/147/614 110/145/614
f 108/129/615 112/184/615 110/145/615
f 113/148/616 116/620/616 117/149/616
f 114/151/617 118/155/617 117/152/617
f 115/154/618 119/189/618 117/152/618
f 120/156/619 123/191/619 124/157/619
f 121/159/620 125/163/620 124/160/620
f 122/162/621 126/187/621 124/160/621
f 127/164/622 130/190/622 131/165/622
f 128/167/623 132/171/623 131/168/623
f 129/170/624 133/192/624 131/168/624
f 134/172/625 137/194/625 138/173/625
f 135/116/626 139/178/626 138/175/626
f 136/177/627 140/96/627 138/175/627
f 73/107/628 86/121/628 88/123/628
f 77/103/629 88/619/629 85/118/629
f 94/132/47 79/113/47 81/115/47
f 98/128/630 81/618/630 78/110/630
f 72/104/102 80/116/102 83/117/102
f 83/181/103 79/113/103 73/107/103
f 87/124/104 90/125/104 97/133/104
f 97/133/105 90/125/105 86/121/105
f 87/124/106 100/137/106 102/139/106
f 102/183/107 99/134/107 85/118/107
f 108/129/47 93/129/47 95/131/47
f 95/185/631 92/126/631 106/142/631
f 101/140/110 104/141/110 111/147/110
f 111/147/111 104/141/111 100/137/111
f 101/140/112 114/151/112 116/153/112
f 105/136/113 116/620/113 113/148/113
f 107/144/632 109/146/632 126/187/632
f 109/188/115 106/142/115 120/156/115
f 115/154/116 118/155/116 125/163/116
f 125/163/117 118/155/117 114/151/117
f 115/154/118 128/167/118 130/169/118
f 130/190/119 127/164/119 113/148/119
f 121/159/633 123/161/633 140/96/633
f 123/191/634 120/156/634 134/172/634
f 129/170/121 132/171/121 139/178/121
f 139/178/122 132/171/122 128/167/122
f 72/104/635 74/106/635 133/192/635
f 133/166/124 74/617/124 71/101/124
f 80/116/586 135/116/586 137/176/586
f 137/194/636 134/172/636 78/110/636
f 127/164/637 71/101/637 85/118/637
f 85/118/637 99/134/637 113/148/637
f 73/107/47 79/113/47 94/132/47
f 135/116/47 80/116/47 72/104/47
f 106/142/130 92/126/130 78/110/130
f 78/110/130 134/172/130 120/156/130
f 87/124/638 93/129/638 108/129/638
f 107/144/639 122/162/639 114/151/639
f 121/159/47 136/177/47 128/167/47
f 141/195/640 144/621/640 145/196/640
f 142/198/641 146/274/641 145/199/641
f 143/201/642 147/271/642 145/202/642
f 148/204/643 151/360/643 152/205/643
f 149/207/644 153/275/644 152/208/644
f 150/210/645 154/283/645 152/211/645
f 155/213/646 158/272/646 159/214/646
f 156/216/647 160/220/647 159/217/647
f 157/219/648 161/276/648 159/217/648
f 162/126/649 165/622/649 166/221/649
f 163/223/650 167/226/650 166/224/650
f 164/225/651 168/273/651 166/224/651
f 169/227/652 172/623/652 173/228/652
f 170/230/653 174/234/653 173/231/653
f 171/233/654 175/277/654 173/231/654
f 176/43/655 179/368/655 180/235/655
f 177/236/656 181/240/656 180/237/656
f 178/239/657 182/90/657 180/237/657
f 183/241/658 186/278/658 187/242/658
f 184/244/659 188/248/659 187/245/659
f 185/247/660 189/279/660 187/245/660
f 190/249/661 193/281/661 194/250/661
f 191/252/662 195/255/662 194/253/662
f 192/254/663 196/93/663 194/253/663
f 197/256/664 200/624/664 201/257/664
f 198/259/665 202/263/665 201/260/665
f 199/262/666 203/282/666 201/260/666
f 204/172/667 207/284/667 208/264/667
f 205/266/668 209/270/668 208/267/668
f 206/269/669 210/280/669 208/267/669
f 143/201/164 156/216/164 158/218/164
f 158/272/670 155/213/670 141/195/670
f 164/225/671 149/207/671 151/209/671
f 168/222/672 151/360/672 148/204/672
f 142/198/168 150/210/168 153/212/168
f 153/275/169 149/207/169 143/201/169
f 157/219/170 160/220/170 167/226/170
f 167/226/171 160/220/171 156/216/171
f 170/230/172 172/232/172 161/276/172
f 161/215/173 172/623/173 169/227/173
f 178/239/180 163/223/180 165/131/180
f 182/45/673 165/622/673 162/126/673
f 171/233/176 174/234/176 181/240/176
f 181/240/177 174/234/177 170/230/177
f 184/244/178 186/246/178 175/277/178
f 186/278/674 183/241/674 169/227/674
f 177/236/675 179/238/675 196/93/675
f 196/251/181 179/368/181 176/43/181
f 185/247/182 188/248/182 195/255/182
f 195/255/183 188/248/183 184/244/183
f 198/259/676 200/261/676 189/279/676
f 189/243/677 200/624/677 197/256/677
f 206/269/47 191/252/47 193/64/47
f 193/281/187 190/249/187 204/172/187
f 199/262/188 202/263/188 209/270/188
f 209/270/189 202/263/189 198/259/189
f 199/262/190 142/198/190 144/200/190
f 203/258/678 144/621/678 141/195/678
f 205/266/679 207/268/679 154/283/679
f 207/284/680 204/172/680 148/204/680
f 197/256/193 141/195/193 155/213/193
f 155/213/193 169/227/193 183/241/193
f 149/207/681 164/225/681 156/216/681
f 199/262/682 205/266/682 150/210/682
f 176/43/196 162/126/196 148/204/196
f 148/204/196 204/172/196 190/249/196
f 157/219/683 163/223/683 178/239/683
f 177/236/180 192/254/180 184/244/180
f 185/247/47 191/252/47 206/269/47
f 211/285/684 214/625/684 215/286/684
f 212/288/685 216/361/685 215/289/685
f 213/291/686 217/359/686 215/292/686
f 218/294/687 221/360/687 222/11/687
f 219/296/688 223/362/688 222/297/688
f 220/299/689 224/283/689 222/17/689
f 225/301/690 228/626/690 229/302/690
f 226/304/691 230/308/691 229/305/691
f 227/307/692 231/363/692 229/305/692
f 232/309/693 235/364/693 236/221/693
f 233/310/694 237/314/694 236/311/694
f 234/313/695 238/273/695 236/311/695
f 239/315/696 242/627/696 243/316/696
f 240/318/697 244/322/697 243/319/697
f 241/321/698 245/365/698 243/319/698
f 246/323/699 249/368/699 250/235/699
f 247/325/700 251/328/700 250/326/700
f 248/327/701 252/90/701 250/326/701
f 253/329/702 256/366/702 257/330/702
f 254/332/703 258/336/703 257/333/703
f 255/335/704 259/369/704 257/333/704
f 260/337/705 263/281/705 264/338/705
f 261/340/706 265/343/706 264/341/706
f 262/342/707 266/367/707 264/341/707
f 267/344/708 270/370/708 271/345/708
f 268/347/709 272/351/709 271/348/709
f 269/350/710 273/371/710 271/348/710
f 274/352/711 277/372/711 278/173/711
f 275/354/712 279/358/712 278/355/712
f 276/357/713 280/280/713 278/355/713
f 226/304/714 228/306/714 217/359/714
f 217/287/231 228/626/231 225/301/231
f 234/313/47 219/296/47 221/298/47
f 221/360/715 218/294/715 232/309/715
f 212/288/234 220/299/234 223/300/234
f 223/362/235 219/296/235 213/291/235
f 227/307/236 230/308/236 237/314/236
f 237/314/237 230/308/237 226/304/237
f 240/318/238 242/320/238 231/363/238
f 231/303/239 242/627/239 239/315/239
f 248/327/47 233/310/47 235/312/47
f 235/364/716 232/309/716 246/323/716
f 241/321/717 244/322/717 251/328/717
f 251/328/243 244/322/243 240/318/243
f 254/332/244 256/334/244 245/365/244
f 256/366/245 253/329/245 239/315/245
f 247/325/718 249/48/718 266/367/718
f 249/368/246 246/323/246 260/337/246
f 255/335/247 258/336/247 265/343/247
f 265/343/248 258/336/248 254/332/248
f 255/335/249 268/347/249 270/349/249
f 270/370/250 267/344/250 253/329/250
f 261/340/719 263/64/719 280/280/719
f 280/353/720 263/281/720 260/337/720
f 269/350/252 272/351/252 279/358/252
f 279/358/253 272/351/253 268/347/253
f 212/288/721 214/290/721 273/371/721
f 273/346/255 214/625/255 211/285/255
f 220/299/47 275/354/47 277/356/47
f 277/372/722 274/352/722 218/294/722
f 267/344/258 211/285/258 225/301/258
f 225/301/258 239/315/258 253/329/258
f 213/291/47 219/296/47 234/313/47
f 269/350/586 275/354/586 220/299/586
f 246/323/261 232/309/261 218/294/261
f 218/294/261 274/352/261 260/337/261
f 227/307/47 233/310/47 248/327/47
f 247/325/180 262/342/180 254/332/180
f 255/335/723 261/340/723 276/357/723
f 281/373/724 284/628/724 285/374/724
f 282/376/725 286/447/725 285/377/725
f 283/379/726 287/445/726 285/380/726
f 288/382/727 291/629/727 292/205/727
f 289/384/728 293/448/728 292/385/728
f 290/387/729 294/456/729 292/17/729
f 295/389/730 298/630/730 299/390/730
f 296/392/731 300/396/731 299/393/731
f 297/395/732 301/449/732 299/393/732
f 302/397/733 305/631/733 306/28/733
f 303/399/734 307/402/734 306/400/734
f 304/401/735 308/446/735 306/400/735
f 309/403/736 312/632/736 313/404/736
f 310/406/737 314/410/737 313/407/737
f 311/409/738 315/451/738 313/407/738
f 316/411/739 319/633/739 320/235/739
f 317/413/740 321/417/740 320/414/740
f 318/416/741 322/450/741 320/414/741
f 323/418/742 326/634/742 327/419/742
f 324/421/743 328/425/743 327/422/743
f 325/424/744 329/452/744 327/422/744
f 330/426/745 333/454/745 334/250/745
f 331/427/746 335/431/746 334/428/746
f 332/430/747 336/367/747 334/428/747
f 337/432/748 340/453/748 341/433/748
f 338/435/749 342/439/749 341/436/749
f 339/438/750 343/455/750 341/436/750
f 344/172/751 347/194/751 348/440/751
f 345/441/752 349/444/752 348/442/752
f 346/427/753 350/96/753 348/442/753
f 283/379/295 296/392/295 298/394/295
f 287/375/296 298/630/296 295/389/296
f 304/401/47 289/384/47 291/386/47
f 308/398/754 291/629/754 288/382/754
f 282/376/299 290/387/299 293/388/299
f 293/448/755 289/384/755 283/379/755
f 297/395/301 300/396/301 307/402/301
f 307/402/302 300/396/302 296/392/302
f 310/406/303 312/408/303 301/449/303
f 301/391/756 312/632/756 309/403/756
f 318/416/47 303/399/47 305/131/47
f 322/412/757 305/631/757 302/397/757
f 311/409/307 314/410/307 321/417/307
f 321/417/308 314/410/308 310/406/308
f 324/421/309 326/423/309 315/451/309
f 315/405/758 326/634/758 323/418/758
f 317/413/759 319/415/759 336/367/759
f 336/339/311 319/633/311 316/411/311
f 325/424/312 328/425/312 335/431/312
f 335/431/760 328/425/760 324/421/760
f 325/424/314 338/435/314 340/437/314
f 340/453/761 337/432/761 323/418/761
f 346/427/762 331/427/762 333/429/762
f 333/454/763 330/426/763 344/172/763
f 339/438/318 342/439/318 349/444/318
f 349/444/319 342/439/319 338/435/319
f 339/438/320 282/376/320 284/378/320
f 343/434/764 284/628/764 281/373/764
f 290/387/47 345/441/47 347/443/47
f 294/383/323 347/194/323 344/172/323
f 337/432/324 281/373/324 295/389/324
f 295/389/324 309/403/324 323/418/324
f 283/379/765 289/384/765 304/401/765
f 339/438/766 345/441/766 290/387/766
f 316/411/327 302/397/327 288/382/327
f 288/382/327 344/172/327 330/426/327
f 297/395/683 303/399/683 318/416/683
f 317/413/767 332/430/767 324/421/767
f 325/424/586 331/427/586 346/427/586
f 435/520/768 438/612/768 439/521/768
f 436/523/769 440/602/769 439/524/769
f 437/526/770 441/599/770 439/527/770
f 442/529/771 445/635/771 446/530/771
f 443/532/772 447/636/772 446/533/772
f 444/535/773 448/613/773 446/536/773
f 449/538/774 452/600/774 453/539/774
f 450/541/775 454/545/775 453/542/775
f 451/544/776 455/603/776 453/542/776
f 456/546/777 459/637/777 460/547/777
f 457/549/778 461/553/778 460/550/778
f 458/552/779 462/601/779 460/550/779
f 463/554/780 466/638/780 467/555/780
f 464/544/781 468/560/781 467/557/781
f 465/559/782 469/605/782 467/557/782
f 470/561/783 473/639/783 474/562/783
f 471/564/784 475/568/784 474/565/784
f 472/567/785 476/604/785 474/565/785
f 477/569/786 480/606/786 481/570/786
f 478/572/787 482/576/787 481/573/787
f 479/575/788 483/608/788 481/573/788
f 484/577/789 487/640/789 488/578/789
f 485/580/790 489/583/790 488/581/790
f 486/564/791 490/607/791 488/581/791
f 491/584/792 494/609/792 495/585/792
f 492/575/793 496/590/793 495/587/793
f 493/589/794 497/611/794 495/587/794
f 498/591/795 501/641/795 502/592/795
f 499/594/796 503/598/796 502/595/796
f 500/597/797 504/610/797 502/595/797
f 437/526/47 450/541/47 452/543/47
f 452/600/798 449/538/798 435/520/798
f 458/552/47 443/532/47 445/534/47
f 462/548/799 445/635/799 442/529/799
f 436/523/525 444/535/525 447/537/525
f 440/528/526 447/636/526 443/532/526
f 451/544/527 454/545/527 461/553/527
f 454/545/528 450/541/528 458/552/528
f 464/544/800 466/558/800 455/603/800
f 455/540/529 466/638/529 463/554/529
f 472/567/801 457/549/801 459/551/801
f 476/563/802 459/637/802 456/546/802
f 471/564/532 465/559/532 468/560/532
f 475/568/533 468/560/533 464/544/533
f 465/559/47 478/572/47 480/574/47
f 480/606/535 477/569/535 463/554/535
f 486/564/47 471/564/47 473/566/47
f 490/579/803 473/639/803 470/561/803
f 479/575/538 482/576/538 489/583/538
f 489/583/539 482/576/539 478/572/539
f 479/575/804 492/575/804 494/588/804
f 494/609/805 491/584/805 477/569/805
f 500/597/180 485/580/180 487/582/180
f 504/593/806 487/640/806 484/577/806
f 499/594/544 493/589/544 496/590/544
f 496/590/545 492/575/545 500/597/545
f 493/589/47 436/523/47 438/525/47
f 438/612/547 435/520/547 491/584/547
f 444/535/47 499/594/47 501/596/47
f 448/531/807 501/641/807 498/591/807
f 491/584/808 435/520/808 449/538/808
f 449/538/809 463/554/809 477/569/809
f 437/526/47 443/532/47 458/552/47
f 493/589/47 499/594/47 444/535/47
f 470/561/551 456/546/551 442/529/551
f 442/529/551 498/591/551 484/577/551
f 451/544/586 457/549/586 472/567/586
f 465/559/47 471/564/47 486/564/47
f 485/580/810 500/597/810 492/575/810
