# Blender 4.5.10 LTS
# www.blender.org
mtllib stow_perch_remodel2_c.mtl
o stow_perch_remodel2_c
v -0.118265 -0.096363 -0.088134
v -0.065742 0.862923 -0.062891
v -0.004248 -0.098645 -0.141305
v 0.012890 0.861349 -0.099561
v 0.108410 -0.100533 -0.085298
v 0.090585 0.860047 -0.060935
v 0.134876 -0.100604 0.037713
v 0.108838 0.859998 0.023900
v 0.055220 -0.098805 0.135099
v 0.053902 0.861239 0.091063
v -0.070575 -0.096491 0.133525
v -0.032853 0.862835 0.089977
v -0.147783 -0.095404 0.034177
v -0.086100 0.863584 0.021461
v 0.042361 0.767475 0.073259
v 0.315579 1.371194 0.054187
v -0.023377 0.798586 0.060960
v 0.275363 1.390227 0.046663
v -0.055197 0.814879 -0.003558
v 0.255897 1.400194 0.007193
v -0.029138 0.804085 -0.071713
v 0.271839 1.393591 -0.034502
v 0.035177 0.774332 -0.092181
v 0.311185 1.375389 -0.047023
v 0.089317 0.748025 -0.049551
v 0.344306 1.359295 -0.020944
v 0.092514 0.744973 0.024077
v 0.346262 1.357428 0.024099
v 0.179604 1.074235 -0.071034
v 0.196026 1.106271 -0.071124
v 0.216435 1.055440 -0.040666
v 0.232857 1.087476 -0.040756
v 0.227309 1.050006 0.009176
v 0.243731 1.082042 0.009086
v 0.207137 1.060476 0.055171
v 0.223560 1.092512 0.055081
v 0.165359 1.081951 0.075797
v 0.181782 1.113987 0.075706
v 0.121523 1.104382 0.061402
v 0.137945 1.136418 0.061312
v 0.096139 1.117274 0.018723
v 0.112562 1.149310 0.018633
v 0.101087 1.114594 -0.032270
v 0.117509 1.146630 -0.032360
v 0.134049 1.097597 -0.067718
v 0.150472 1.129633 -0.067808
v -0.067519 0.758560 -0.068264
v -0.331538 1.365932 -0.038575
v -0.001900 0.789476 -0.081636
v -0.291394 1.384846 -0.046755
v 0.048586 0.812964 -0.033261
v -0.260509 1.399215 -0.017161
v 0.045920 0.811336 0.040433
v -0.262140 1.398219 0.027923
v -0.007889 0.785819 0.083953
v -0.295059 1.382608 0.054547
v -0.072323 0.755626 0.064528
v -0.334477 1.364138 0.042663
v -0.098860 0.743495 -0.003216
v -0.350711 1.356717 0.001220
v -0.212980 1.054759 0.044113
v -0.229277 1.086856 0.044478
v -0.227965 1.047704 -0.004443
v -0.244262 1.079801 -0.004078
v -0.211662 1.056526 -0.052280
v -0.227959 1.088624 -0.051915
v -0.171699 1.077098 -0.077015
v -0.187997 1.109196 -0.076649
v -0.126777 1.099794 -0.067073
v -0.143074 1.131892 -0.066708
v -0.097913 1.113994 -0.027108
v -0.114210 1.146092 -0.026742
v -0.098614 1.113054 0.024182
v -0.114912 1.145151 0.024548
v -0.128552 1.097413 0.062796
v -0.144850 1.129511 0.063162
v -0.173719 1.074391 0.070668
v -0.190016 1.106488 0.071033
v 0.350461 -0.059841 -0.148097
v 0.354354 -0.042741 -0.150086
v 0.351478 -0.049320 -0.133963
v 0.168344 0.328442 -0.031812
v 0.153697 0.332803 -0.022984
v 0.165469 0.321863 -0.015688
v 0.330375 -0.073640 -0.136379
v 0.331393 -0.063119 -0.122244
v 0.315728 -0.069278 -0.127551
v 0.133611 0.319004 -0.011266
v 0.129718 0.301905 -0.009277
v 0.145384 0.308064 -0.003970
v 0.296635 -0.058078 -0.238280
v 0.284862 -0.047138 -0.245576
v 0.300528 -0.040978 -0.240270
v 0.099871 0.334566 -0.113168
v 0.114519 0.330205 -0.121995
v 0.098853 0.324045 -0.127302
v 0.276549 -0.071877 -0.226562
v 0.261902 -0.067515 -0.217735
v 0.264777 -0.060937 -0.233858
v 0.079786 0.320767 -0.101449
v 0.078768 0.310246 -0.115583
v 0.075893 0.303668 -0.099460
v 0.306022 -0.081337 -0.123758
v 0.310047 -0.064316 -0.126117
v 0.307071 -0.070509 -0.109860
v 0.105251 0.353938 -0.004276
v 0.090607 0.358603 0.004401
v 0.102275 0.347745 0.011981
v 0.285798 -0.094723 -0.111801
v 0.286847 -0.083895 -0.097904
v 0.271154 -0.090058 -0.103124
v 0.070383 0.345217 0.016358
v 0.066358 0.328196 0.018718
v 0.082051 0.334359 0.023938
v 0.252504 -0.081212 -0.214142
v 0.240836 -0.070354 -0.221722
v 0.256529 -0.064191 -0.216501
v 0.037089 0.358728 -0.085982
v 0.051733 0.354063 -0.094660
v 0.036040 0.347900 -0.099880
v 0.232280 -0.094598 -0.202185
v 0.217636 -0.089933 -0.193508
v 0.220612 -0.083740 -0.209765
v 0.016865 0.345343 -0.074026
v 0.015816 0.334514 -0.087923
v 0.012840 0.328321 -0.071666
v -0.294718 -0.060746 -0.225884
v -0.298943 -0.043783 -0.228312
v -0.283336 -0.049872 -0.233867
v -0.115623 0.334089 -0.127475
v -0.100804 0.338962 -0.119220
v -0.100016 0.328000 -0.133029
v -0.274086 -0.073844 -0.214310
v -0.262705 -0.062970 -0.222292
v -0.259267 -0.068971 -0.206054
v -0.080173 0.325864 -0.107646
v -0.075948 0.308901 -0.105217
v -0.079385 0.314902 -0.121455
v -0.345930 -0.060374 -0.134175
v -0.346718 -0.049412 -0.120365
v -0.350156 -0.043411 -0.136603
v -0.152017 0.339334 -0.027511
v -0.166836 0.334461 -0.035766
v -0.163398 0.328460 -0.019528
v -0.325299 -0.073472 -0.122601
v -0.310480 -0.068599 -0.114345
v -0.326087 -0.062509 -0.108791
v -0.131385 0.326236 -0.015937
v -0.142767 0.315362 -0.007954
v -0.127160 0.309273 -0.013508
v -0.254936 -0.087564 -0.205136
v -0.258998 -0.070587 -0.207737
v -0.243320 -0.076805 -0.212934
v -0.049867 0.358942 -0.090754
v -0.035191 0.363762 -0.082216
v -0.034188 0.352723 -0.095950
v -0.234636 -0.100734 -0.193068
v -0.223020 -0.089975 -0.200867
v -0.219960 -0.095914 -0.184530
v -0.014891 0.350591 -0.070148
v -0.010829 0.333614 -0.067547
v -0.013888 0.339553 -0.083883
v -0.308042 -0.086387 -0.114517
v -0.309045 -0.075349 -0.100782
v -0.312105 -0.069410 -0.117119
v -0.088298 0.364938 0.008403
v -0.102973 0.360118 -0.000135
v -0.099914 0.354179 0.016201
v -0.287742 -0.099558 -0.102450
v -0.273067 -0.094737 -0.093912
v -0.288746 -0.088519 -0.088715
v -0.067998 0.351768 0.020470
v -0.079614 0.341009 0.028269
v -0.063935 0.334791 0.023072
v -0.053453 -0.059932 0.375714
v -0.053275 -0.042868 0.380218
v -0.065953 -0.049065 0.369617
v -0.054018 0.330241 0.162984
v -0.054239 0.334747 0.145922
v -0.066696 0.324044 0.152384
v -0.053884 -0.073536 0.352349
v -0.066384 -0.062670 0.346253
v -0.054105 -0.069030 0.335286
v -0.054671 0.321143 0.122557
v -0.054848 0.304079 0.118053
v -0.067127 0.310439 0.129019
v 0.051574 -0.060619 0.374174
v 0.064031 -0.049916 0.367711
v 0.051751 -0.043555 0.378678
v 0.050788 0.334060 0.144382
v 0.051008 0.329554 0.161445
v 0.063287 0.323193 0.150478
v 0.051142 -0.074224 0.350809
v 0.050921 -0.069717 0.333746
v 0.063599 -0.063520 0.344347
v 0.050356 0.320456 0.121017
v 0.062856 0.309589 0.127113
v 0.050178 0.303392 0.116513
v -0.046330 -0.086964 0.331341
v -0.046370 -0.069917 0.335914
v -0.058929 -0.076218 0.325234
v -0.051048 0.350488 0.093362
v -0.051248 0.355060 0.076316
v -0.063607 0.344186 0.082682
v -0.046503 -0.100478 0.307921
v -0.059102 -0.089733 0.301814
v -0.046703 -0.095906 0.290875
v -0.051421 0.341546 0.052896
v -0.051380 0.324499 0.048324
v -0.063780 0.330672 0.059262
v 0.058703 -0.086423 0.330253
v 0.071062 -0.075549 0.323887
v 0.058663 -0.069376 0.334826
v 0.053785 0.355601 0.075228
v 0.053985 0.351029 0.092274
v 0.066385 0.344856 0.081336
v 0.058530 -0.099937 0.306833
v 0.058330 -0.095365 0.289787
v 0.070889 -0.089063 0.300467
v 0.053612 0.342087 0.051808
v 0.066212 0.331341 0.057916
v 0.053653 0.325040 0.047236
v 0.091881 0.822337 0.086804
v 0.091988 0.858336 0.087016
v 0.014710 0.822349 0.123624
v 0.014817 0.858348 0.123837
v -0.068074 0.822721 0.102227
v -0.067967 0.858721 0.102440
v -0.117734 0.823280 0.032624
v -0.117627 0.859280 0.032836
v -0.111036 0.823764 -0.052617
v -0.110929 0.859764 -0.052404
v -0.051112 0.823947 -0.113611
v -0.051005 0.859946 -0.113398
v 0.033998 0.823742 -0.121817
v 0.034105 0.859741 -0.121604
v 0.104471 0.823247 -0.073397
v 0.104578 0.859246 -0.073184
v 0.127330 0.822692 0.008994
v 0.127437 0.858691 0.009207
v -0.137237 0.335665 -0.011650
v -0.136942 0.371664 -0.011704
v -0.095928 0.335194 -0.098046
v -0.095632 0.371193 -0.098101
v -0.008750 0.334417 -0.137675
v -0.008454 0.370416 -0.137730
v 0.083505 0.333698 -0.111993
v 0.083801 0.369697 -0.112048
v 0.137670 0.333374 -0.033018
v 0.137966 0.369372 -0.033072
v 0.128400 0.333595 0.062298
v 0.128696 0.369594 0.062243
v 0.060033 0.334259 0.129355
v 0.060329 0.370258 0.129300
v -0.035441 0.335055 0.136776
v -0.035145 0.371054 0.136721
v -0.113349 0.335610 0.081089
v -0.113053 0.371609 0.081034
v -0.004023 0.946217 -0.001054
v -0.064047 1.008488 -0.051687
v 0.026976 1.003648 -0.077113
v 0.079301 1.001837 0.001716
v 0.020616 1.005557 0.075860
v -0.067978 1.009667 0.042855
v -0.017818 1.102594 -0.080210
v 0.070775 1.098483 -0.047204
v 0.066845 1.099663 0.047337
v -0.024178 1.104503 0.072763
v -0.076504 1.106314 -0.006065
v 0.006821 1.161933 -0.003295
v 0.013245 0.961037 -0.045563
v -0.040256 0.963882 -0.030618
v -0.022035 0.997639 -0.075324
v -0.077847 1.001177 -0.004809
v -0.042566 0.964576 0.024952
v 0.044002 0.959973 0.000771
v 0.062223 0.993729 -0.043935
v 0.009507 0.962159 0.044351
v 0.058485 0.994851 0.045980
v -0.028084 0.999454 0.070161
v -0.082859 1.057985 -0.033564
v -0.085170 1.058678 0.022006
v 0.005137 1.052953 -0.092090
v -0.048365 1.055798 -0.077145
v 0.087967 1.049472 -0.026355
v 0.057211 1.050537 -0.072690
v 0.051163 1.052352 0.072796
v 0.085657 1.050166 0.029214
v -0.054414 1.057614 0.068341
v -0.002339 1.055197 0.087741
v -0.055687 1.113299 -0.050329
v 0.030882 1.108696 -0.074510
v 0.080645 1.106973 0.000460
v 0.024833 1.110512 0.070975
v -0.059425 1.114421 0.039586
v -0.006710 1.145991 -0.048701
v -0.041204 1.148178 -0.005120
v 0.045364 1.143575 -0.029301
v 0.043054 1.144268 0.026269
v -0.010448 1.147113 0.041214
v 0.007478 -0.012188 0.301603
v -0.060803 0.024733 0.269667
v 0.023700 0.028730 0.234235
v 0.085242 0.024128 0.296017
v 0.038772 0.017287 0.369632
v -0.051489 0.017660 0.353347
v -0.025239 0.083868 0.244342
v 0.065021 0.083495 0.260628
v 0.074336 0.076422 0.344307
v -0.010168 0.072424 0.379740
v -0.071710 0.077026 0.317958
v 0.006054 0.113343 0.312371
v 0.266888 -0.011920 -0.148187
v 0.295856 0.026224 -0.076546
v 0.205636 0.020645 -0.110566
v 0.197530 0.018109 -0.197740
v 0.282742 0.022121 -0.217595
v 0.343510 0.027137 -0.142693
v 0.244402 0.079828 -0.081821
v 0.183634 0.074812 -0.156723
v 0.231287 0.075725 -0.222870
v 0.321508 0.081304 -0.188851
v 0.329614 0.083840 -0.101677
v 0.260256 0.113869 -0.151229
v -0.266792 -0.017084 -0.150430
v -0.229510 0.013001 -0.215991
v -0.194101 0.016050 -0.137273
v -0.257515 0.021338 -0.079332
v -0.332115 0.021557 -0.122242
v -0.314806 0.016405 -0.206701
v -0.197191 0.070018 -0.185412
v -0.214500 0.075170 -0.100953
v -0.299796 0.078574 -0.091663
v -0.335204 0.075525 -0.170381
v -0.271791 0.070237 -0.228322
v -0.262514 0.108659 -0.157224
vn -0.4214 0.0469 -0.9057
vn 0.4454 0.0310 -0.8948
vn 0.9774 0.0235 -0.2103
vn 0.7740 0.0301 0.6325
vn -0.0117 0.0458 0.9989
vn 0.0184 0.9998 -0.0034
vn -0.7879 0.0588 0.6130
vn -0.9703 0.0593 -0.2346
vn -0.0184 -0.9998 0.0034
vn -0.1397 0.0944 0.9857
vn -0.7760 0.4036 0.4847
vn -0.8136 0.4394 -0.3807
vn -0.2242 0.1750 -0.9587
vn 0.5484 -0.1907 -0.8142
vn 0.4248 0.9051 0.0191
vn 0.9224 -0.3822 -0.0559
vn 0.6161 -0.2553 0.7451
vn -0.4248 -0.9051 -0.0191
vn 0.5258 -0.2718 -0.8060
vn 0.8643 -0.4437 -0.2369
vn 0.7983 -0.4080 0.4430
vn 0.3588 -0.1814 0.9156
vn -0.2486 0.1301 0.9598
vn -0.7397 0.3807 0.5549
vn -0.8846 0.4532 -0.1096
vn 0.4562 0.8899 -0.0025
vn -0.6157 0.3136 -0.7229
vn -0.0587 0.0273 -0.9979
vn -0.4562 -0.8899 0.0025
vn -0.1849 -0.0324 -0.9822
vn 0.5724 0.3225 -0.7539
vn 0.8843 0.4651 0.0423
vn 0.5159 0.2880 0.8068
vn -0.2553 -0.0754 0.9639
vn -0.4254 0.9050 0.0046
vn -0.8486 -0.3514 0.3954
vn -0.8173 -0.3323 -0.4707
vn 0.4254 -0.9050 -0.0046
vn -0.8425 -0.4314 0.3227
vn -0.8331 -0.4189 -0.3612
vn -0.4339 -0.2103 -0.8760
vn 0.1683 0.0966 -0.9810
vn 0.6918 0.3584 -0.6269
vn 0.8916 0.4524 0.0205
vn 0.6742 0.3348 0.6583
vn -0.4527 0.8916 0.0102
vn 0.1414 0.0605 0.9881
vn -0.4576 -0.2421 0.8556
vn 0.4527 -0.8916 -0.0102
vn 0.9735 -0.2115 0.0873
vn 0.4759 0.7814 0.4037
vn 0.1158 -0.8007 0.5877
vn -0.3818 0.1921 0.9041
vn 0.3818 -0.1921 -0.9041
vn -0.1158 0.8007 -0.5877
vn -0.4759 -0.7814 -0.4037
vn -0.9735 0.2115 -0.0873
vn 0.6670 -0.6198 0.4134
vn 0.8876 0.3490 0.3007
vn 0.0577 0.5961 0.8008
vn -0.1629 -0.3727 0.9135
vn -0.2206 -0.9688 0.1127
vn -0.8299 0.2471 0.5002
vn -0.8876 -0.3490 -0.3007
vn -0.0577 -0.5961 -0.8008
vn -0.6670 0.6198 -0.4134
vn 0.1629 0.3727 -0.9135
vn 0.8299 -0.2471 -0.5002
vn 0.2206 0.9688 -0.1127
vn 0.4309 -0.8598 -0.2740
vn 0.5124 -0.0168 0.8586
vn 0.7428 0.5103 -0.4334
vn -0.4309 0.8598 0.2740
vn -0.7428 -0.5103 0.4334
vn -0.5124 0.0168 -0.8586
vn 0.9716 -0.2165 0.0954
vn 0.4804 0.7868 0.3876
vn 0.1080 -0.7881 0.6060
vn -0.3833 0.2151 0.8982
vn 0.3833 -0.2151 -0.8982
vn -0.1080 0.7881 -0.6060
vn -0.4804 -0.7868 -0.3876
vn -0.9716 0.2165 -0.0954
vn 0.6611 -0.6152 0.4295
vn 0.8891 0.3492 0.2958
vn 0.0594 0.6135 0.7874
vn -0.1686 -0.3509 0.9211
vn -0.2280 -0.9644 0.1337
vn -0.8297 0.2643 0.4916
vn -0.8891 -0.3492 -0.2958
vn -0.0594 -0.6135 -0.7874
vn -0.6611 0.6152 -0.4295
vn 0.1686 0.3509 -0.9211
vn 0.8297 -0.2643 -0.4916
vn 0.2280 0.9644 -0.1337
vn 0.4254 -0.8689 -0.2531
vn 0.5095 -0.0012 0.8605
vn 0.7479 0.4950 -0.4422
vn -0.4254 0.8689 0.2531
vn -0.7479 -0.4950 0.4422
vn -0.5095 0.0012 -0.8605
vn -0.4041 -0.2275 -0.8860
vn 0.0860 0.7827 -0.6164
vn 0.4770 -0.7868 -0.3917
vn 0.9670 0.2234 -0.1222
vn -0.9670 -0.2234 0.1222
vn -0.4770 0.7868 0.3917
vn -0.0860 -0.7827 0.6164
vn 0.4041 0.2275 0.8860
vn 0.0446 -0.6211 -0.7824
vn -0.1948 0.3400 -0.9200
vn 0.6449 0.6161 -0.4523
vn 0.8843 -0.3450 -0.3147
vn 0.2394 -0.9611 0.1376
vn 0.8396 0.2761 0.4677
vn 0.1948 -0.3400 0.9200
vn -0.6449 -0.6161 0.4523
vn -0.0446 0.6211 0.7824
vn -0.8843 0.3450 0.3147
vn -0.8396 -0.2761 -0.4677
vn -0.2394 0.9611 -0.1376
vn -0.4244 -0.8748 -0.2335
vn 0.4876 -0.0035 -0.8731
vn -0.7630 0.4844 -0.4280
vn 0.4244 0.8749 0.2335
vn 0.7630 -0.4844 0.4280
vn -0.4876 0.0035 0.8731
vn -0.3870 -0.2295 -0.8931
vn 0.1039 0.7789 -0.6184
vn 0.4798 -0.7919 -0.3777
vn 0.9708 0.2165 -0.1031
vn -0.9708 -0.2165 0.1031
vn -0.4798 0.7919 0.3777
vn -0.1039 -0.7789 0.6184
vn 0.3870 0.2295 0.8931
vn 0.0568 -0.6254 -0.7782
vn -0.1733 0.3365 -0.9256
vn 0.6582 0.6096 -0.4418
vn 0.8883 -0.3523 -0.2945
vn 0.2302 -0.9619 0.1474
vn 0.8315 0.2731 0.4838
vn 0.1733 -0.3365 0.9256
vn -0.6582 -0.6096 0.4418
vn -0.0568 0.6254 0.7782
vn -0.8883 0.3523 0.2945
vn -0.8315 -0.2731 -0.4838
vn -0.2302 0.9619 -0.1474
vn -0.4252 -0.8733 -0.2378
vn 0.5056 -0.0112 -0.8627
vn -0.7507 0.4871 -0.4463
vn 0.4252 0.8733 0.2378
vn 0.7507 -0.4871 0.4463
vn -0.5056 0.0112 0.8627
vn -0.5671 -0.2047 0.7978
vn -0.5691 0.7932 0.2168
vn -0.5855 -0.7856 -0.1999
vn -0.5875 0.2122 -0.7809
vn 0.5875 -0.2122 0.7809
vn 0.5855 0.7856 0.1999
vn 0.5691 -0.7932 -0.2168
vn 0.5671 0.2047 -0.7978
vn -0.7058 -0.6065 0.3662
vn -0.6957 0.3604 0.6214
vn -0.7082 0.6157 -0.3454
vn -0.7183 -0.3511 -0.6006
vn -0.0101 -0.9668 -0.2552
vn -0.0125 0.2553 -0.9668
vn 0.6957 -0.3604 -0.6214
vn 0.7082 -0.6157 0.3454
vn 0.7058 0.6064 -0.3662
vn 0.7183 0.3511 0.6006
vn 0.0125 -0.2553 0.9668
vn 0.0101 0.9668 0.2552
vn 0.0017 -0.8642 0.5032
vn -0.9999 0.0065 0.0147
vn 0.0160 0.5031 0.8641
vn -0.0017 0.8642 -0.5032
vn -0.0160 -0.5031 -0.8641
vn 0.9999 -0.0065 -0.0147
vn -0.5681 -0.2145 0.7946
vn -0.5792 0.7856 0.2175
vn -0.5754 -0.7916 -0.2056
vn -0.5866 0.2085 -0.7826
vn 0.5866 -0.2085 0.7826
vn 0.5754 0.7916 0.2056
vn 0.5792 -0.7856 -0.2175
vn 0.5681 0.2145 -0.7946
vn -0.7002 -0.6161 0.3607
vn -0.7025 0.3498 0.6198
vn -0.7139 0.6088 -0.3460
vn -0.7116 -0.3570 -0.6051
vn 0.0023 -0.9658 -0.2591
vn -0.0113 0.2591 -0.9658
vn 0.7025 -0.3498 -0.6198
vn 0.7139 -0.6088 0.3460
vn 0.7002 0.6161 -0.3607
vn 0.7116 0.3570 0.6051
vn 0.0113 -0.2590 0.9658
vn -0.0023 0.9658 0.2591
vn 0.0096 -0.8661 0.4997
vn -0.9999 -0.0051 0.0104
vn 0.0064 0.4998 0.8661
vn -0.0096 0.8661 -0.4997
vn -0.0064 -0.4998 -0.8661
vn 0.9999 0.0051 -0.0104
vn 0.4306 -0.0066 0.9025
vn -0.2503 -0.0050 0.9682
vn -0.8140 -0.0010 0.5808
vn -0.9969 0.0034 -0.0783
vn -0.7133 0.0063 -0.7008
vn -0.0960 0.0062 -0.9954
vn 0.5663 0.0032 -0.8242
vn 0.0030 1.0000 0.0059
vn 0.9636 -0.0013 -0.2674
vn 0.9100 -0.0052 0.4146
vn -0.0030 -1.0000 -0.0059
vn -0.9021 0.0068 -0.4314
vn -0.4138 0.0020 -0.9104
vn 0.2682 -0.0037 -0.9634
vn 0.8246 -0.0076 -0.5656
vn 0.9953 -0.0080 0.0968
vn 0.7002 -0.0047 0.7139
vn 0.0775 0.0009 0.9970
vn 0.0082 1.0000 -0.0015
vn -0.5815 0.0060 0.8136
vn -0.9684 0.0083 0.2494
vn -0.0082 -1.0000 0.0015
vn -0.1507 -0.9190 -0.3644
vn -0.7685 -0.5579 -0.3132
vn 0.2767 -0.9388 -0.2052
vn 0.2577 -0.9331 0.2508
vn -0.1813 -0.9097 0.3735
vn -0.9212 -0.2373 -0.3082
vn 0.0007 -0.2904 -0.9569
vn 0.9022 -0.3287 -0.2792
vn 0.5375 -0.2992 0.7884
vn -0.5895 -0.2428 0.7704
vn -0.7838 -0.0721 -0.6168
vn 0.3407 -0.1319 -0.9309
vn 0.9871 -0.1543 0.0430
vn 0.2621 -0.1083 0.9589
vn -0.8324 -0.0575 0.5512
vn -0.3807 0.6051 -0.6992
vn 0.5611 0.5587 -0.6108
vn 0.7685 0.5579 0.3132
vn -0.0450 0.6038 0.7959
vn -0.7552 0.6330 0.1701
vn -0.2767 0.9388 0.2052
vn -0.5250 0.7683 0.3662
vn -0.4368 0.6220 0.6499
vn 0.1507 0.9190 0.3644
vn 0.2187 0.7338 0.6432
vn 0.5090 0.5743 0.6411
vn 0.4337 0.9010 0.0068
vn 0.7113 0.7026 0.0208
vn 0.7925 0.5507 -0.2622
vn 0.1813 0.9097 -0.3735
vn 0.2721 0.7178 -0.6409
vn 0.0218 0.5837 -0.8117
vn -0.2577 0.9331 -0.2508
vn -0.4920 0.7584 -0.4275
vn -0.7379 0.6278 -0.2479
vn -0.9022 0.3287 0.2792
vn -0.8135 0.2039 0.5447
vn -0.6008 0.3182 0.7334
vn -0.0007 0.2904 0.9569
vn 0.2734 0.1535 0.9496
vn 0.5238 0.2625 0.8104
vn 0.9212 0.2373 0.3082
vn 0.9934 0.1079 0.0400
vn 0.9439 0.2305 -0.2365
vn 0.5895 0.2428 -0.7704
vn 0.3514 0.1301 -0.9271
vn 0.0790 0.2664 -0.9606
vn -0.5375 0.2992 -0.7884
vn -0.7653 0.1895 -0.6152
vn -0.8756 0.3207 -0.3612
vn -0.3407 0.1319 0.9309
vn -0.3514 -0.1301 0.9271
vn -0.0790 -0.2664 0.9606
vn 0.7838 0.0721 0.6168
vn 0.7653 -0.1895 0.6152
vn 0.8756 -0.3207 0.3612
vn 0.8324 0.0575 -0.5512
vn 0.8135 -0.2039 -0.5447
vn 0.6008 -0.3182 -0.7334
vn -0.2621 0.1083 -0.9589
vn -0.2734 -0.1535 -0.9496
vn -0.5238 -0.2625 -0.8104
vn -0.9871 0.1543 -0.0430
vn -0.9934 -0.1079 -0.0400
vn -0.9439 -0.2305 0.2365
vn -0.5611 -0.5587 0.6108
vn -0.2721 -0.7178 0.6409
vn -0.0219 -0.5837 0.8117
vn 0.3807 -0.6051 0.6992
vn 0.4920 -0.7584 0.4275
vn 0.7379 -0.6278 0.2479
vn 0.7552 -0.6330 -0.1701
vn 0.5250 -0.7683 -0.3662
vn 0.4368 -0.6220 -0.6499
vn -0.7925 -0.5507 0.2622
vn -0.7113 -0.7026 -0.0208
vn -0.4337 -0.9010 -0.0068
vn 0.0450 -0.6038 -0.7959
vn -0.2187 -0.7338 -0.6432
vn -0.5090 -0.5743 -0.6411
vn -0.1888 -0.8185 -0.5426
vn -0.4673 -0.8838 -0.0227
vn 0.3591 -0.8335 -0.4198
vn 0.4267 -0.8848 0.1871
vn -0.0808 -0.9005 0.4273
vn -0.9574 -0.2765 0.0832
vn -0.3747 -0.1653 -0.9123
vn 0.6897 -0.1827 -0.7006
vn 0.8226 -0.2836 0.4929
vn -0.1694 -0.3212 0.9317
vn -0.8226 0.2836 -0.4929
vn 0.1694 0.3212 -0.9317
vn 0.9574 0.2765 -0.0832
vn 0.3747 0.1653 0.9123
vn -0.6897 0.1827 0.7006
vn -0.4267 0.8848 -0.1871
vn 0.0808 0.9005 -0.4273
vn 0.4673 0.8838 0.0227
vn 0.1888 0.8185 0.5426
vn -0.3591 0.8335 0.4198
vn -0.1393 -0.8496 0.5087
vn 0.4182 -0.8611 0.2894
vn -0.4362 -0.8974 0.0667
vn -0.0632 -0.8903 -0.4511
vn 0.4494 -0.8383 -0.3085
vn 0.7935 -0.2169 0.5686
vn -0.3312 -0.2278 0.9157
vn -0.9482 -0.3025 0.0970
vn -0.2044 -0.2883 -0.9355
vn 0.7665 -0.2068 -0.6080
vn 0.2044 0.2883 0.9355
vn -0.7665 0.2068 0.6080
vn -0.7935 0.2169 -0.5686
vn 0.3312 0.2278 -0.9157
vn 0.9482 0.3025 -0.0970
vn 0.0632 0.8903 0.4511
vn -0.4494 0.8383 0.3085
vn -0.4182 0.8611 -0.2894
vn 0.1393 0.8496 -0.5087
vn 0.4362 0.8974 -0.0667
vn 0.4333 -0.8868 -0.1606
vn -0.0849 -0.8864 -0.4551
vn 0.3125 -0.8522 0.4198
vn -0.2811 -0.8285 0.4844
vn -0.5261 -0.8485 -0.0561
vn -0.1150 -0.2897 -0.9502
vn 0.8766 -0.2915 -0.3830
vn 0.6471 -0.2244 0.7287
vn -0.4909 -0.1790 0.8526
vn -0.9586 -0.2182 -0.1831
vn 0.4909 0.1790 -0.8526
vn 0.9586 0.2182 0.1831
vn 0.1150 0.2897 0.9502
vn -0.8766 0.2915 0.3830
vn -0.6471 0.2244 -0.7287
vn 0.2811 0.8285 -0.4844
vn 0.5261 0.8485 0.0561
vn 0.0849 0.8864 0.4551
vn -0.4333 0.8868 0.1606
vn -0.3125 0.8522 -0.4198
vn -0.4244 -0.8749 -0.2335
vn 0.4244 0.8748 0.2335
vn -0.7058 -0.6064 0.3662
vn 0.0113 -0.2591 0.9658
vt 1.000000 1.000000
vt 0.857143 0.500000
vt 1.000000 0.500000
vt 0.857143 1.000000
vt 0.714286 0.500000
vt 0.714286 1.000000
vt 0.571429 0.500000
vt 0.571429 1.000000
vt 0.428571 0.500000
vt 0.428571 1.000000
vt 0.285714 0.500000
vt 0.250000 0.490000
vt 0.016017 0.196595
vt 0.354132 0.033767
vt 0.285714 1.000000
vt 0.142857 0.500000
vt 0.142857 1.000000
vt 0.000000 0.500000
vt 0.937640 0.399638
vt 0.854132 0.033767
vt 0.516017 0.196595
vt 0.016017 0.196595
vt 0.354132 0.033767
vt 0.000000 1.000000
vt 0.854132 0.033767
vt 0.516017 0.196595
vt 0.888889 1.000000
vt 0.888889 0.500000
vt 0.777778 0.500000
vt 0.777778 1.000000
vt 0.666667 0.500000
vt 0.666667 1.000000
vt 0.555556 0.500000
vt 0.444444 1.000000
vt 0.444444 0.500000
vt 0.333333 0.500000
vt 0.333333 1.000000
vt 0.222222 0.500000
vt 0.167915 0.024474
vt 0.457846 0.130000
vt 0.111111 1.000000
vt 0.111111 0.500000
vt 0.000000 0.500000
vt 0.904269 0.433851
vt 0.667915 0.024474
vt 0.513646 0.291676
vt 0.555556 1.000000
vt 0.222222 1.000000
vt 0.000000 1.000000
vt 0.149000 0.690000
vt 0.149000 0.750000
vt 0.125000 0.690000
vt 0.618168 0.976000
vt 0.625000 0.976000
vt 0.618168 1.000000
vt 0.149000 0.560000
vt 0.125000 0.560000
vt 0.149000 0.500000
vt 0.625000 0.257744
vt 0.618168 0.274000
vt 0.618168 0.190407
vt 0.351000 0.690000
vt 0.381786 0.690000
vt 0.380716 0.773131
vt 0.640005 0.721483
vt 0.618168 0.774000
vt 0.618168 0.690407
vt 0.351000 0.560000
vt 0.380716 0.476869
vt 0.381786 0.560000
vt 0.640005 0.530652
vt 0.618168 0.560000
vt 0.618168 0.476059
vt 0.618168 0.000000
vt 0.381832 0.060000
vt 0.381832 0.000000
vt 0.618168 0.060000
vt 0.625000 0.060000
vt 0.381832 0.274000
vt 0.381832 0.190000
vt 0.381832 0.976000
vt 0.851000 0.560000
vt 0.618838 0.976000
vt 0.625000 0.976000
vt 0.618838 1.000000
vt 0.125000 0.560000
vt 0.149000 0.500000
vt 0.618838 0.274000
vt 0.618838 0.190366
vt 0.381124 0.690000
vt 0.380179 0.773218
vt 0.640005 0.721483
vt 0.618838 0.774000
vt 0.618838 0.690366
vt 0.380179 0.476782
vt 0.381124 0.560000
vt 0.640005 0.530652
vt 0.618838 0.560000
vt 0.618838 0.476053
vt 0.381162 0.000000
vt 0.618838 0.060000
vt 0.381162 0.060000
vt 0.381162 0.274000
vt 0.381162 0.190000
vt 0.381162 0.976000
vt 0.149000 0.690000
vt 0.149000 0.750000
vt 0.618171 0.976000
vt 0.618171 1.000000
vt 0.149000 0.560000
vt 0.618171 0.274000
vt 0.618171 0.190406
vt 0.381783 0.690000
vt 0.380714 0.773132
vt 0.618171 0.774000
vt 0.618171 0.690406
vt 0.351000 0.560000
vt 0.380714 0.476868
vt 0.381783 0.560000
vt 0.618171 0.560000
vt 0.618171 0.476059
vt 0.381829 0.000000
vt 0.618171 0.060000
vt 0.381829 0.060000
vt 0.381829 0.190000
vt 0.381829 0.976000
vt 0.381829 0.274000
vt 0.149000 0.690000
vt 0.149000 0.750000
vt 0.618963 0.976000
vt 0.618963 1.000000
vt 0.149000 0.560000
vt 0.625000 0.257744
vt 0.618963 0.274000
vt 0.618963 0.190358
vt 0.351000 0.690000
vt 0.381001 0.690000
vt 0.380079 0.773234
vt 0.618963 0.774000
vt 0.618963 0.690358
vt 0.351000 0.560000
vt 0.380079 0.476766
vt 0.381001 0.560000
vt 0.640005 0.530652
vt 0.618963 0.560000
vt 0.618963 0.476052
vt 0.618963 0.000000
vt 0.381037 0.060000
vt 0.381037 0.000000
vt 0.625000 0.060000
vt 0.618963 0.060000
vt 0.381037 0.190000
vt 0.381037 0.976000
vt 0.851000 0.560000
vt 0.381037 0.274000
vt 0.125000 0.690000
vt 0.618168 0.976000
vt 0.618168 1.000000
vt 0.618168 0.274000
vt 0.618168 0.190407
vt 0.381785 0.690000
vt 0.380716 0.773132
vt 0.618168 0.774000
vt 0.618168 0.690407
vt 0.380716 0.476868
vt 0.381785 0.560000
vt 0.618168 0.560000
vt 0.618168 0.476059
vt 0.381832 0.000000
vt 0.618168 0.060000
vt 0.381832 0.060000
vt 0.381832 0.190000
vt 0.381832 0.976000
vt 0.381832 0.274000
vt 0.149000 0.690000
vt 0.618886 0.976000
vt 0.618886 1.000000
vt 0.149000 0.560000
vt 0.625000 0.257744
vt 0.618886 0.274000
vt 0.618886 0.190363
vt 0.351000 0.690000
vt 0.381077 0.690000
vt 0.380140 0.773224
vt 0.618886 0.774000
vt 0.618886 0.690363
vt 0.351000 0.560000
vt 0.380140 0.476776
vt 0.381077 0.560000
vt 0.640005 0.530652
vt 0.618887 0.560000
vt 0.618886 0.476053
vt 0.618886 0.000000
vt 0.381114 0.060000
vt 0.381114 0.000000
vt 0.618886 0.060000
vt 0.381114 0.274000
vt 0.381114 0.190000
vt 0.381114 0.976000
vt 0.457846 0.130000
vt 0.250000 0.490000
vt 0.457846 0.130000
vt 0.181819 0.000000
vt 0.227273 0.078731
vt 0.136365 0.078731
vt 0.272728 0.157461
vt 0.318182 0.078731
vt 0.363637 0.157461
vt 0.909091 0.000000
vt 0.954545 0.078731
vt 0.863636 0.078731
vt 0.727273 0.000000
vt 0.772727 0.078731
vt 0.681818 0.078731
vt 0.545455 0.000000
vt 0.590909 0.078731
vt 0.500000 0.078731
vt 0.318182 0.236191
vt 0.090910 0.157461
vt 0.181819 0.157461
vt 0.136365 0.236191
vt 0.818182 0.157461
vt 0.909091 0.157461
vt 0.863636 0.236191
vt 0.636364 0.157461
vt 0.727273 0.157461
vt 0.681818 0.236191
vt 0.454546 0.157461
vt 0.545455 0.157461
vt 0.500000 0.236191
vt 0.227273 0.236191
vt 0.045455 0.236191
vt 0.772727 0.236191
vt 0.590909 0.236191
vt 0.409092 0.236191
vt 0.181819 0.314921
vt 0.272728 0.314921
vt 0.227273 0.393651
vt 0.000000 0.314921
vt 0.090910 0.314921
vt 0.045455 0.393651
vt 0.727273 0.314921
vt 0.818182 0.314921
vt 0.772727 0.393651
vt 0.545455 0.314921
vt 0.636364 0.314921
vt 0.590909 0.393651
vt 0.363637 0.314921
vt 0.454546 0.314921
vt 0.409092 0.393651
vt 0.500000 0.393651
vt 0.454546 0.472382
vt 0.681818 0.393651
vt 0.636364 0.472382
vt 0.863636 0.393651
vt 0.818182 0.472382
vt 0.909091 0.314921
vt 0.136365 0.393651
vt 0.090910 0.472382
vt 0.318182 0.393651
vt 0.272728 0.472382
vt 0.954545 0.236191
vt 1.000000 0.157461
vt 0.409092 0.078731
vt 0.363637 0.000000
vt 0.483983 0.196595
vt 0.437640 0.399638
vt 0.062360 0.399638
vt 0.145868 0.033767
vt 0.562360 0.399638
vt 0.750000 0.490000
vt 0.983983 0.196595
vt 0.645868 0.033767
vt 0.483983 0.196595
vt 0.062360 0.399638
vt 0.145868 0.033767
vt 0.983983 0.196595
vt 0.645868 0.033767
vt 0.486354 0.291676
vt 0.404269 0.433851
vt 0.095731 0.433851
vt 0.013646 0.291676
vt 0.042154 0.130000
vt 0.332085 0.024474
vt 0.595731 0.433851
vt 0.986354 0.291676
vt 0.957846 0.130000
vt 0.832085 0.024474
vt 0.542154 0.130000
vt 0.851000 0.690000
vt 0.618838 0.000000
vt 0.618171 0.000000
vt 0.851000 0.690000
vt 0.618168 0.000000
vt 0.486354 0.291676
vt 0.013646 0.291676
vt 0.042154 0.130000
vt 0.957846 0.130000
vt 0.542154 0.130000
vt 0.042154 0.130000
vt 0.750000 0.490000
vt 0.957846 0.130000
vt 0.542154 0.130000
s 0
usemtl wood
f 2/1/1 3/2/1 1/3/1
f 4/4/2 5/5/2 3/2/2
f 6/6/3 7/7/3 5/5/3
f 8/8/4 9/9/4 7/7/4
f 10/10/5 11/11/5 9/9/5
f 2/12/6 12/13/6 8/14/6
f 12/15/7 13/16/7 11/11/7
f 14/17/8 1/18/8 13/16/8
f 3/19/9 7/20/9 11/21/9
f 15/3/10 18/4/10 17/2/10
f 18/4/11 19/5/11 17/2/11
f 20/6/12 21/7/12 19/5/12
f 21/7/13 24/10/13 23/9/13
f 24/10/14 25/11/14 23/9/14
f 16/12/15 26/22/15 22/23/15
f 26/15/16 27/16/16 25/11/16
f 27/16/17 16/24/17 15/18/17
f 17/19/18 21/25/18 25/26/18
f 48/1/30 49/2/30 47/3/30
f 50/4/31 51/5/31 49/2/31
f 51/5/32 54/8/32 53/7/32
f 54/8/33 55/9/33 53/7/33
f 56/10/34 57/11/34 55/9/34
f 48/12/35 58/22/35 54/23/35
f 58/15/36 59/16/36 57/11/36
f 59/16/37 48/24/37 47/18/37
f 49/19/38 53/25/38 57/26/38
f 79/50/50 80/51/50 81/52/50
f 82/53/51 83/54/51 84/55/51
f 85/56/52 86/57/52 87/58/52
f 88/59/53 89/60/53 90/61/53
f 91/62/54 92/63/54 93/64/54
f 94/65/55 95/66/55 96/67/55
f 97/68/56 98/69/56 99/70/56
f 100/71/57 101/72/57 102/73/57
f 85/56/58 81/52/58 86/57/58
f 82/74/59 81/75/59 80/76/59
f 88/59/60 84/77/60 83/78/60
f 87/79/61 90/61/61 89/60/61
f 85/56/62 98/69/62 97/68/62
f 100/71/63 89/60/63 88/59/63
f 99/70/64 102/73/64 101/72/64
f 91/62/65 99/70/65 92/63/65
f 94/65/66 101/72/66 100/71/66
f 95/66/67 92/63/67 96/67/67
f 91/62/68 80/51/68 79/50/68
f 83/54/69 95/66/69 94/65/69
f 97/68/70 79/50/70 85/56/70
f 81/75/71 90/61/71 86/80/71
f 95/66/72 80/81/72 93/64/72
f 88/82/73 94/65/73 100/71/73
f 87/79/74 102/73/74 98/69/74
f 99/70/75 96/67/75 92/63/75
f 103/50/76 104/51/76 105/52/76
f 106/83/77 107/84/77 108/85/77
f 109/56/78 110/86/78 111/87/78
f 112/59/79 113/88/79 114/89/79
f 115/62/80 116/90/80 117/91/80
f 118/92/81 119/93/81 120/94/81
f 121/68/82 122/95/82 123/96/82
f 124/97/83 125/98/83 126/99/83
f 103/50/84 110/86/84 109/56/84
f 104/100/85 108/101/85 105/102/85
f 112/59/86 108/101/86 107/78/86
f 111/103/87 114/89/87 113/88/87
f 109/56/88 122/95/88 121/68/88
f 124/97/89 113/88/89 112/59/89
f 125/98/90 122/95/90 126/99/90
f 115/62/91 123/96/91 116/90/91
f 124/97/92 120/94/92 125/98/92
f 117/91/93 120/94/93 119/93/93
f 115/62/94 104/51/94 103/50/94
f 107/84/95 119/93/95 118/92/95
f 121/68/96 103/50/96 109/56/96
f 108/101/97 110/104/97 105/102/97
f 119/93/98 104/105/98 117/91/98
f 112/82/99 118/92/99 124/97/99
f 113/88/100 122/95/100 111/103/100
f 125/98/101 116/90/101 123/96/101
f 127/106/102 128/107/102 129/52/102
f 130/108/103 131/54/103 132/109/103
f 133/110/104 134/57/104 135/58/104
f 136/59/105 137/111/105 138/112/105
f 139/62/106 140/113/106 141/114/106
f 142/92/107 143/115/107 144/116/107
f 145/117/108 146/118/108 147/119/108
f 148/97/109 149/120/109 150/121/109
f 127/106/110 134/57/110 133/110/110
f 128/122/111 132/123/111 129/124/111
f 131/78/112 138/112/112 132/123/112
f 137/111/113 134/125/113 138/112/113
f 133/110/114 146/118/114 145/117/114
f 148/97/115 137/111/115 136/59/115
f 147/119/116 150/121/116 149/120/116
f 145/117/117 140/113/117 139/62/117
f 142/92/118 149/120/118 148/97/118
f 141/114/119 144/116/119 143/115/119
f 139/62/120 128/107/120 127/106/120
f 131/54/121 143/115/121 142/92/121
f 145/117/122 127/106/122 133/110/122
f 132/123/123 134/125/123 129/124/123
f 141/114/124 130/108/124 128/126/124
f 136/82/125 142/92/125 148/97/125
f 137/111/126 146/118/126 135/127/126
f 149/120/127 140/113/127 147/119/127
f 151/128/128 152/129/128 153/52/128
f 154/130/129 155/84/129 156/131/129
f 157/132/130 158/86/130 159/87/130
f 160/133/131 161/134/131 162/135/131
f 163/136/132 164/137/132 165/138/132
f 166/92/133 167/139/133 168/140/133
f 169/141/134 170/142/134 171/143/134
f 172/144/135 173/145/135 174/146/135
f 151/128/136 158/86/136 157/132/136
f 154/147/137 153/148/137 152/149/137
f 155/150/138 162/135/138 156/151/138
f 161/134/139 158/152/139 162/135/139
f 169/141/140 159/87/140 170/142/140
f 172/144/141 161/134/141 160/133/141
f 171/143/142 174/146/142 173/145/142
f 169/141/143 164/137/143 163/136/143
f 172/144/144 168/140/144 173/145/144
f 165/138/145 168/140/145 167/139/145
f 163/136/146 152/129/146 151/128/146
f 155/84/147 167/139/147 166/92/147
f 157/132/148 163/136/148 151/128/148
f 153/148/149 162/135/149 158/152/149
f 165/138/150 154/130/150 152/153/150
f 160/154/151 166/92/151 172/144/151
f 159/155/152 174/146/152 170/142/152
f 171/143/153 168/140/153 164/137/153
f 175/106/154 176/51/154 177/156/154
f 178/157/155 179/84/155 180/158/155
f 181/56/156 182/86/156 183/87/156
f 184/59/157 185/159/157 186/160/157
f 187/136/158 188/161/158 189/162/158
f 190/92/159 191/163/159 192/164/159
f 193/117/160 194/165/160 195/166/160
f 196/71/161 197/167/161 198/168/161
f 175/106/162 182/86/162 181/56/162
f 176/169/163 180/170/163 177/171/163
f 179/78/164 186/160/164 180/170/164
f 185/159/165 182/172/165 186/160/165
f 193/117/166 183/87/166 194/165/166
f 184/59/167 198/168/167 185/159/167
f 195/166/168 198/168/168 197/167/168
f 193/117/169 188/161/169 187/136/169
f 190/92/170 197/167/170 196/71/170
f 189/162/171 192/164/171 191/163/171
f 187/136/172 176/51/172 175/106/172
f 179/84/173 191/163/173 190/92/173
f 193/117/174 175/106/174 181/56/174
f 180/170/175 182/172/175 177/171/175
f 191/163/176 176/173/176 189/162/176
f 184/82/177 190/92/177 196/71/177
f 185/159/178 194/165/178 183/174/178
f 197/167/179 188/161/179 195/166/179
f 199/175/180 200/129/180 201/52/180
f 202/176/181 203/84/181 204/177/181
f 205/178/182 206/86/182 207/87/182
f 208/179/183 209/180/183 210/181/183
f 211/182/184 212/183/184 213/184/184
f 214/65/185 215/185/185 216/186/185
f 217/187/186 218/188/186 219/189/186
f 220/190/187 221/191/187 222/192/187
f 199/175/188 206/86/188 205/178/188
f 202/193/189 201/194/189 200/195/189
f 208/179/190 204/196/190 203/150/190
f 207/197/191 210/181/191 209/180/191
f 217/187/192 207/87/192 218/188/192
f 220/190/193 209/180/193 208/179/193
f 221/191/194 218/188/194 222/192/194
f 211/182/195 219/189/195 212/183/195
f 214/65/196 221/191/196 220/190/196
f 215/185/197 212/183/197 216/186/197
f 199/175/198 213/184/198 200/129/198
f 203/84/199 215/185/199 214/65/199
f 217/187/200 199/175/200 205/178/200
f 204/196/201 206/198/201 201/194/201
f 215/185/202 200/199/202 213/184/202
f 208/154/203 214/65/203 220/190/203
f 209/180/204 218/188/204 207/197/204
f 221/191/205 212/183/205 219/189/205
f 2/1/1 4/4/1 3/2/1
f 4/4/2 6/6/2 5/5/2
f 6/6/3 8/8/3 7/7/3
f 8/8/4 10/10/4 9/9/4
f 10/10/5 12/15/5 11/11/5
f 6/266/6 4/267/6 2/12/6
f 2/12/6 14/268/6 12/13/6
f 12/13/6 10/269/6 8/14/6
f 8/14/6 6/266/6 2/12/6
f 12/15/7 14/17/7 13/16/7
f 14/17/8 2/24/8 1/18/8
f 13/270/9 1/271/9 3/19/9
f 3/19/9 5/272/9 7/20/9
f 7/20/9 9/273/9 11/21/9
f 11/21/9 13/270/9 3/19/9
f 15/3/10 16/1/10 18/4/10
f 18/4/11 20/6/11 19/5/11
f 20/6/12 22/8/12 21/7/12
f 21/7/13 22/8/13 24/10/13
f 24/10/14 26/15/14 25/11/14
f 20/274/15 18/267/15 16/12/15
f 16/12/15 28/275/15 26/22/15
f 26/22/15 24/276/15 22/23/15
f 22/23/15 20/274/15 16/12/15
f 26/15/16 28/17/16 27/16/16
f 27/16/17 28/17/17 16/24/17
f 27/270/18 15/271/18 17/19/18
f 17/19/18 19/277/18 21/25/18
f 21/25/18 23/278/18 25/26/18
f 25/26/18 27/270/18 17/19/18
f 48/1/30 50/4/30 49/2/30
f 50/4/31 52/6/31 51/5/31
f 51/5/32 52/6/32 54/8/32
f 54/8/33 56/10/33 55/9/33
f 56/10/34 58/15/34 57/11/34
f 52/274/35 50/267/35 48/12/35
f 48/12/35 60/275/35 58/22/35
f 58/22/35 56/276/35 54/23/35
f 54/23/35 52/274/35 48/12/35
f 58/15/36 60/17/36 59/16/36
f 59/16/37 60/17/37 48/24/37
f 59/270/38 47/271/38 49/19/38
f 49/19/38 51/277/38 53/25/38
f 53/25/38 55/278/38 57/26/38
f 57/26/38 59/270/38 49/19/38
f 85/56/58 79/50/58 81/52/58
f 82/74/59 84/77/59 81/75/59
f 88/59/60 90/61/60 84/77/60
f 87/79/61 86/80/61 90/61/61
f 85/56/62 87/58/62 98/69/62
f 100/71/63 102/73/63 89/60/63
f 99/70/64 98/69/64 102/73/64
f 91/62/65 97/68/65 99/70/65
f 94/65/66 96/67/66 101/72/66
f 95/66/67 93/64/67 92/63/67
f 91/62/68 93/64/68 80/51/68
f 83/54/69 82/53/69 95/66/69
f 97/68/70 91/62/70 79/50/70
f 81/75/71 84/77/71 90/61/71
f 95/66/72 82/53/72 80/81/72
f 88/82/73 83/290/73 94/65/73
f 87/79/74 89/60/74 102/73/74
f 99/70/75 101/72/75 96/67/75
f 103/50/84 105/52/84 110/86/84
f 104/100/85 106/291/85 108/101/85
f 112/59/86 114/89/86 108/101/86
f 111/103/87 110/104/87 114/89/87
f 109/56/88 111/87/88 122/95/88
f 124/97/89 126/99/89 113/88/89
f 125/98/90 123/96/90 122/95/90
f 115/62/91 121/68/91 123/96/91
f 124/97/92 118/92/92 120/94/92
f 117/91/93 116/90/93 120/94/93
f 115/62/94 117/91/94 104/51/94
f 107/84/95 106/83/95 119/93/95
f 121/68/96 115/62/96 103/50/96
f 108/101/97 114/89/97 110/104/97
f 119/93/98 106/83/98 104/105/98
f 112/82/99 107/290/99 118/92/99
f 113/88/100 126/99/100 122/95/100
f 125/98/101 120/94/101 116/90/101
f 127/106/110 129/52/110 134/57/110
f 128/122/111 130/292/111 132/123/111
f 131/78/112 136/59/112 138/112/112
f 137/111/113 135/127/113 134/125/113
f 133/110/114 135/58/114 146/118/114
f 148/97/115 150/121/115 137/111/115
f 147/119/116 146/118/116 150/121/116
f 145/117/117 147/119/117 140/113/117
f 142/92/118 144/116/118 149/120/118
f 141/114/119 140/113/119 144/116/119
f 139/62/120 141/114/120 128/107/120
f 131/54/121 130/108/121 143/115/121
f 145/117/368 139/62/368 127/106/368
f 132/123/123 138/112/123 134/125/123
f 141/114/124 143/115/124 130/108/124
f 136/82/369 131/290/369 142/92/369
f 137/111/126 150/121/126 146/118/126
f 149/120/127 144/116/127 140/113/127
f 151/128/136 153/52/136 158/86/136
f 154/147/137 156/151/137 153/148/137
f 155/150/138 160/133/138 162/135/138
f 161/134/139 159/155/139 158/152/139
f 169/141/140 157/132/140 159/87/140
f 172/144/141 174/146/141 161/134/141
f 171/143/142 170/142/142 174/146/142
f 169/141/143 171/143/143 164/137/143
f 172/144/144 166/92/144 168/140/144
f 165/138/145 164/137/145 168/140/145
f 163/136/146 165/138/146 152/129/146
f 155/84/147 154/130/147 167/139/147
f 157/132/148 169/141/148 163/136/148
f 153/148/149 156/151/149 162/135/149
f 165/138/150 167/139/150 154/130/150
f 160/154/151 155/293/151 166/92/151
f 159/155/152 161/134/152 174/146/152
f 171/143/153 173/145/153 168/140/153
f 175/106/370 177/156/370 182/86/370
f 176/169/163 178/294/163 180/170/163
f 179/78/164 184/59/164 186/160/164
f 185/159/165 183/174/165 182/172/165
f 193/117/166 181/56/166 183/87/166
f 184/59/167 196/71/167 198/168/167
f 195/166/168 194/165/168 198/168/168
f 193/117/169 195/166/169 188/161/169
f 190/92/170 192/164/170 197/167/170
f 189/162/171 188/161/171 192/164/171
f 187/136/172 189/162/172 176/51/172
f 179/84/173 178/157/173 191/163/173
f 193/117/174 187/136/174 175/106/174
f 180/170/175 186/160/175 182/172/175
f 191/163/176 178/157/176 176/173/176
f 184/82/177 179/290/177 190/92/177
f 185/159/178 198/168/178 194/165/178
f 197/167/179 192/164/179 188/161/179
f 199/175/188 201/52/188 206/86/188
f 202/193/189 204/196/189 201/194/189
f 208/179/190 210/181/190 204/196/190
f 207/197/191 206/198/191 210/181/191
f 217/187/192 205/178/192 207/87/192
f 220/190/193 222/192/193 209/180/193
f 221/191/194 219/189/194 218/188/194
f 211/182/195 217/187/195 219/189/195
f 214/65/196 216/186/196 221/191/196
f 215/185/197 213/184/197 212/183/197
f 199/175/371 211/182/371 213/184/371
f 203/84/199 202/176/199 215/185/199
f 217/187/200 211/182/200 199/175/200
f 204/196/201 210/181/201 206/198/201
f 215/185/202 202/176/202 200/199/202
f 208/154/203 203/293/203 214/65/203
f 209/180/204 222/192/204 218/188/204
f 221/191/205 216/186/205 212/183/205
usemtl rope
f 29/3/19 32/27/19 31/28/19
f 32/27/20 33/29/20 31/28/20
f 34/30/21 35/31/21 33/29/21
f 36/32/22 37/33/22 35/31/22
f 37/33/23 40/34/23 39/35/23
f 40/34/24 41/36/24 39/35/24
f 42/37/25 43/38/25 41/36/25
f 30/12/26 40/39/26 36/40/26
f 43/38/27 46/41/27 45/42/27
f 46/41/28 29/43/28 45/42/28
f 31/44/29 39/45/29 43/46/29
f 61/3/39 64/27/39 63/28/39
f 63/28/40 66/30/40 65/29/40
f 66/30/41 67/31/41 65/29/41
f 67/31/42 70/47/42 69/33/42
f 70/47/43 71/35/43 69/33/43
f 72/34/44 73/36/44 71/35/44
f 73/36/45 76/48/45 75/38/45
f 62/12/46 72/39/46 68/40/46
f 75/38/47 78/41/47 77/42/47
f 77/42/48 62/49/48 61/43/48
f 63/44/49 71/45/49 75/46/49
f 223/3/206 226/27/206 225/28/206
f 225/28/207 228/30/207 227/29/207
f 227/29/208 230/32/208 229/31/208
f 230/32/209 231/33/209 229/31/209
f 231/33/210 234/34/210 233/35/210
f 233/35/211 236/37/211 235/36/211
f 235/36/212 238/48/212 237/38/212
f 224/12/213 234/39/213 230/200/213
f 238/48/214 239/42/214 237/38/214
f 239/42/215 224/49/215 223/43/215
f 225/44/216 233/45/216 237/46/216
f 242/1/217 243/28/217 241/3/217
f 244/27/218 245/29/218 243/28/218
f 246/30/219 247/31/219 245/29/219
f 248/32/220 249/33/220 247/31/220
f 249/33/221 252/34/221 251/35/221
f 251/35/222 254/37/222 253/36/222
f 254/37/223 255/38/223 253/36/223
f 242/201/224 252/39/224 248/202/224
f 256/48/225 257/42/225 255/38/225
f 258/41/226 241/43/226 257/42/226
f 243/44/227 251/45/227 255/46/227
f 29/3/19 30/1/19 32/27/19
f 32/27/20 34/30/20 33/29/20
f 34/30/21 36/32/21 35/31/21
f 36/32/22 38/47/22 37/33/22
f 37/33/23 38/47/23 40/34/23
f 40/34/24 42/37/24 41/36/24
f 42/37/25 44/48/25 43/38/25
f 34/279/26 32/280/26 30/12/26
f 30/12/26 46/281/26 44/282/26
f 44/282/26 42/283/26 40/39/26
f 40/39/26 38/284/26 36/40/26
f 36/40/26 34/279/26 30/12/26
f 30/12/26 44/282/26 40/39/26
f 43/38/27 44/48/27 46/41/27
f 46/41/28 30/49/28 29/43/28
f 45/285/29 29/271/29 31/44/29
f 31/44/29 33/286/29 35/287/29
f 35/287/29 37/288/29 39/45/29
f 39/45/29 41/289/29 43/46/29
f 43/46/29 45/285/29 31/44/29
f 31/44/29 35/287/29 39/45/29
f 61/3/39 62/1/39 64/27/39
f 63/28/40 64/27/40 66/30/40
f 66/30/41 68/32/41 67/31/41
f 67/31/42 68/32/42 70/47/42
f 70/47/43 72/34/43 71/35/43
f 72/34/44 74/37/44 73/36/44
f 73/36/45 74/37/45 76/48/45
f 66/279/46 64/280/46 62/12/46
f 62/12/46 78/281/46 76/282/46
f 76/282/46 74/283/46 72/39/46
f 72/39/46 70/284/46 68/40/46
f 68/40/46 66/279/46 62/12/46
f 62/12/46 76/282/46 72/39/46
f 75/38/47 76/48/47 78/41/47
f 77/42/48 78/41/48 62/49/48
f 77/285/49 61/271/49 63/44/49
f 63/44/49 65/286/49 67/287/49
f 67/287/49 69/288/49 71/45/49
f 71/45/49 73/289/49 75/46/49
f 75/46/49 77/285/49 63/44/49
f 63/44/49 67/287/49 71/45/49
f 223/3/206 224/1/206 226/27/206
f 225/28/207 226/27/207 228/30/207
f 227/29/208 228/30/208 230/32/208
f 230/32/209 232/47/209 231/33/209
f 231/33/210 232/47/210 234/34/210
f 233/35/211 234/34/211 236/37/211
f 235/36/212 236/37/212 238/48/212
f 228/295/213 226/280/213 224/12/213
f 224/12/213 240/281/213 238/296/213
f 238/296/213 236/297/213 234/39/213
f 234/39/213 232/284/213 230/200/213
f 230/200/213 228/295/213 224/12/213
f 224/12/213 238/296/213 234/39/213
f 238/48/214 240/41/214 239/42/214
f 239/42/215 240/41/215 224/49/215
f 239/285/216 223/271/216 225/44/216
f 225/44/216 227/286/216 229/298/216
f 229/298/216 231/288/216 233/45/216
f 233/45/216 235/299/216 237/46/216
f 237/46/216 239/285/216 225/44/216
f 225/44/216 229/298/216 233/45/216
f 242/1/217 244/27/217 243/28/217
f 244/27/218 246/30/218 245/29/218
f 246/30/219 248/32/219 247/31/219
f 248/32/220 250/47/220 249/33/220
f 249/33/221 250/47/221 252/34/221
f 251/35/222 252/34/222 254/37/222
f 254/37/223 256/48/223 255/38/223
f 246/295/224 244/280/224 242/201/224
f 242/201/224 258/281/224 256/296/224
f 256/296/224 254/300/224 252/39/224
f 252/39/224 250/284/224 248/202/224
f 248/202/224 246/295/224 242/201/224
f 242/201/224 256/296/224 252/39/224
f 256/48/225 258/41/225 257/42/225
f 258/41/226 242/49/226 241/43/226
f 257/285/227 241/301/227 243/44/227
f 243/44/227 245/286/227 247/302/227
f 247/302/227 249/288/227 251/45/227
f 251/45/227 253/303/227 255/46/227
f 255/46/227 257/285/227 243/44/227
f 243/44/227 247/302/227 251/45/227
usemtl core
f 259/203/228 272/204/228 271/205/228
f 260/206/229 272/207/229 274/208/229
f 259/209/230 271/210/230 276/211/230
f 259/212/231 276/213/231 278/214/231
f 259/215/232 278/216/232 275/217/232
f 260/206/233 274/208/233 281/218/233
f 261/219/234 273/220/234 283/221/234
f 262/222/235 277/223/235 285/224/235
f 263/225/236 279/226/236 287/227/236
f 264/228/237 280/229/237 289/230/237
f 260/206/238 281/218/238 284/231/238
f 261/219/239 283/221/239 286/232/239
f 262/222/240 285/224/240 288/233/240
f 263/225/241 287/227/241 290/234/241
f 264/228/242 289/230/242 282/235/242
f 265/236/243 291/237/243 296/238/243
f 266/239/244 292/240/244 298/241/244
f 267/242/245 293/243/245 299/244/245
f 268/245/246 294/246/246 300/247/246
f 269/248/247 295/249/247 297/250/247
f 297/250/248 300/251/248 270/252/248
f 297/250/249 295/249/249 300/251/249
f 295/249/250 268/245/250 300/251/250
f 300/247/251 299/253/251 270/254/251
f 300/247/252 294/246/252 299/253/252
f 294/246/253 267/242/253 299/253/253
f 299/244/254 298/255/254 270/256/254
f 299/244/255 293/243/255 298/255/255
f 293/243/256 266/257/256 298/255/256
f 298/241/257 296/258/257 270/259/257
f 298/241/258 292/240/258 296/258/258
f 292/240/259 265/236/259 296/258/259
f 296/238/260 297/260/260 270/261/260
f 296/238/261 291/237/261 297/260/261
f 291/237/262 269/248/262 297/260/262
f 282/235/263 295/249/263 269/248/263
f 282/235/264 289/230/264 295/249/264
f 289/230/265 268/245/265 295/249/265
f 290/234/266 294/246/266 268/245/266
f 290/234/267 287/227/267 294/246/267
f 287/227/268 267/242/268 294/246/268
f 288/233/269 293/243/269 267/242/269
f 288/233/270 285/224/270 293/243/270
f 285/224/271 266/257/271 293/243/271
f 286/232/272 292/240/272 266/239/272
f 286/232/273 283/221/273 292/240/273
f 283/221/274 265/236/274 292/240/274
f 284/231/275 291/237/275 265/236/275
f 284/231/276 281/218/276 291/237/276
f 281/218/277 269/248/277 291/237/277
f 289/230/278 290/234/278 268/245/278
f 289/230/279 280/229/279 290/234/279
f 280/229/280 263/225/280 290/234/280
f 287/227/281 288/233/281 267/242/281
f 287/227/282 279/226/282 288/233/282
f 279/226/283 262/222/283 288/233/283
f 285/224/284 286/262/284 266/257/284
f 285/224/285 277/223/285 286/262/285
f 277/223/286 261/263/286 286/262/286
f 283/221/287 284/231/287 265/236/287
f 283/221/288 273/220/288 284/231/288
f 273/220/289 260/206/289 284/231/289
f 281/218/290 282/235/290 269/248/290
f 281/218/291 274/208/291 282/235/291
f 274/208/292 264/228/292 282/235/292
f 275/217/293 280/229/293 264/228/293
f 275/217/294 278/216/294 280/229/294
f 278/216/295 263/225/295 280/229/295
f 278/214/296 279/226/296 263/225/296
f 278/214/297 276/213/297 279/226/297
f 276/213/298 262/222/298 279/226/298
f 276/211/299 277/223/299 262/222/299
f 276/211/300 271/210/300 277/223/300
f 271/210/301 261/263/301 277/223/301
f 274/208/302 275/264/302 264/228/302
f 274/208/303 272/207/303 275/264/303
f 272/207/304 259/265/304 275/264/304
f 271/205/305 273/220/305 261/219/305
f 271/205/306 272/204/306 273/220/306
f 272/204/307 260/206/307 273/220/307
usemtl stone
f 301/203/308 302/206/308 303/219/308
f 302/206/309 301/265/309 306/228/309
f 301/209/310 303/263/310 304/222/310
f 301/212/311 304/222/311 305/225/311
f 301/215/312 305/225/312 306/228/312
f 302/206/313 306/228/313 311/248/313
f 303/219/314 302/206/314 307/236/314
f 304/222/315 303/263/315 308/257/315
f 305/225/316 304/222/316 309/242/316
f 306/228/317 305/225/317 310/245/317
f 302/206/318 311/248/318 307/236/318
f 303/219/319 307/236/319 308/239/319
f 304/222/320 308/257/320 309/242/320
f 305/225/321 309/242/321 310/245/321
f 306/228/322 310/245/322 311/248/322
f 307/236/323 311/248/323 312/261/323
f 308/239/324 307/236/324 312/259/324
f 309/242/325 308/257/325 312/256/325
f 310/245/326 309/242/326 312/254/326
f 311/248/327 310/245/327 312/252/327
f 313/203/328 314/206/328 315/219/328
f 314/206/329 313/265/329 318/228/329
f 313/209/330 315/263/330 316/222/330
f 313/212/331 316/222/331 317/225/331
f 313/215/332 317/225/332 318/228/332
f 314/206/333 318/228/333 323/248/333
f 315/219/334 314/206/334 319/236/334
f 316/222/335 315/263/335 320/257/335
f 317/225/336 316/222/336 321/242/336
f 318/228/337 317/225/337 322/245/337
f 314/206/338 323/248/338 319/236/338
f 315/219/339 319/236/339 320/239/339
f 316/222/340 320/257/340 321/242/340
f 317/225/341 321/242/341 322/245/341
f 318/228/342 322/245/342 323/248/342
f 319/236/343 323/248/343 324/261/343
f 320/239/344 319/236/344 324/259/344
f 321/242/345 320/257/345 324/256/345
f 322/245/346 321/242/346 324/254/346
f 323/248/347 322/245/347 324/252/347
f 325/203/348 326/206/348 327/219/348
f 326/206/349 325/265/349 330/228/349
f 325/209/350 327/263/350 328/222/350
f 325/212/351 328/222/351 329/225/351
f 325/215/352 329/225/352 330/228/352
f 326/206/353 330/228/353 335/248/353
f 327/219/354 326/206/354 331/236/354
f 328/222/355 327/263/355 332/257/355
f 329/225/356 328/222/356 333/242/356
f 330/228/357 329/225/357 334/245/357
f 326/206/358 335/248/358 331/236/358
f 327/219/359 331/236/359 332/239/359
f 328/222/360 332/257/360 333/242/360
f 329/225/361 333/242/361 334/245/361
f 330/228/362 334/245/362 335/248/362
f 331/236/363 335/248/363 336/261/363
f 332/239/364 331/236/364 336/259/364
f 333/242/365 332/257/365 336/256/365
f 334/245/366 333/242/366 336/254/366
f 335/248/367 334/245/367 336/252/367
