# Blender 4.5.10 LTS
# www.blender.org
mtllib stow_carrier_claw.mtl
o stow_carrier_claw
v 0.008283 1.218276 0.006183
v -0.045253 1.265280 -0.032706
v 0.028046 1.265786 -0.056587
v 0.073403 1.266723 0.005744
v 0.028136 1.266794 0.068148
v -0.045198 1.265903 0.044384
v -0.013220 1.342779 -0.057180
v 0.060114 1.343670 -0.033416
v 0.060169 1.344293 0.043674
v -0.013130 1.343787 0.067555
v -0.058488 1.342851 0.005224
v 0.006633 1.391297 0.004785
v 0.020044 1.231013 -0.030589
v -0.023040 1.230715 -0.016553
v -0.011424 1.258641 -0.053448
v -0.054475 1.258710 0.005901
v -0.023007 1.231082 0.028759
v 0.046704 1.231563 0.006048
v 0.058321 1.259489 -0.030847
v 0.020097 1.231606 0.042727
v 0.058374 1.260082 0.042470
v -0.011338 1.259600 0.065182
v -0.062287 1.303939 -0.017116
v -0.062254 1.304305 0.028196
v 0.007405 1.304194 -0.067834
v -0.035679 1.303896 -0.053797
v 0.077170 1.305268 -0.017228
v 0.050510 1.304718 -0.053865
v 0.050595 1.305677 0.064765
v 0.077202 1.305634 0.028085
v -0.035594 1.304855 0.064834
v 0.007511 1.305379 0.078802
v -0.043458 1.349491 -0.031502
v 0.026254 1.349973 -0.054213
v 0.069391 1.350863 0.005067
v 0.026339 1.350932 0.064416
v -0.043405 1.350084 0.041816
v -0.005181 1.377968 -0.031759
v -0.031789 1.378010 0.004920
v 0.037923 1.378491 -0.017791
v 0.037956 1.378858 0.027521
v -0.005128 1.378560 0.041558
v -0.004160 1.228152 -0.005783
v -0.036995 1.265205 -0.030081
v 0.009014 1.264422 -0.045183
v 0.037596 1.264177 -0.006086
v 0.009251 1.264808 0.033178
v -0.036848 1.265444 0.018348
v -0.015531 1.324132 -0.045402
v 0.030569 1.323496 -0.030572
v 0.030715 1.323734 0.017857
v -0.015294 1.324517 0.032958
v -0.043876 1.324763 -0.006138
v -0.002119 1.360788 -0.006442
v 0.003404 1.237828 -0.028883
v -0.023639 1.238288 -0.020007
v -0.015895 1.259607 -0.043166
v -0.042852 1.260208 -0.005823
v -0.023553 1.238428 0.008459
v 0.020204 1.237684 -0.005903
v 0.027948 1.259003 -0.029062
v 0.003543 1.238054 0.017175
v 0.028087 1.259229 0.016997
v -0.015670 1.259974 0.031359
v -0.046983 1.295074 -0.020216
v -0.046897 1.295215 0.008250
v -0.003279 1.294243 -0.052171
v -0.030323 1.294703 -0.043295
v 0.040617 1.293725 -0.020474
v 0.023818 1.293869 -0.043455
v 0.024043 1.294236 0.031071
v 0.040704 1.293865 0.007992
v -0.030097 1.295070 0.031230
v -0.003001 1.294696 0.039947
v -0.034367 1.329710 -0.029221
v 0.009390 1.328966 -0.043584
v 0.036573 1.328732 -0.006401
v 0.009616 1.329332 0.030941
v -0.034228 1.329937 0.016838
v -0.009823 1.350885 -0.029400
v -0.026484 1.351256 -0.006321
v 0.017273 1.350511 -0.020683
v 0.017359 1.350652 0.007783
v -0.009684 1.351112 0.016659
v -0.054336 1.241455 0.047578
v -0.072046 1.235070 0.047105
v -0.059298 1.234381 0.064311
v -0.064414 1.241568 0.045617
v -0.063105 1.241864 0.054092
v -0.067923 1.236566 0.057449
v -0.055399 1.241081 0.057784
v -0.139707 1.069012 0.103927
v -0.133392 1.084716 0.113217
v -0.146141 1.085405 0.096011
v -0.137468 1.075310 0.111953
v -0.143710 1.079048 0.107295
v -0.142017 1.086901 0.106355
v -0.146482 1.075797 0.099786
v -0.040361 1.235921 0.053152
v -0.052182 1.231563 0.067149
v -0.034710 1.220284 0.061996
v -0.046220 1.237446 0.061445
v -0.039505 1.232517 0.063504
v -0.042224 1.226389 0.067699
v -0.033865 1.229470 0.057801
v -0.133930 1.066725 0.106231
v -0.115920 1.073437 0.108064
v -0.133392 1.084716 0.113217
v -0.123814 1.066820 0.108827
v -0.127850 1.072767 0.113620
v -0.123434 1.079542 0.113767
v -0.136169 1.074795 0.112471
v -0.033183 1.227800 0.041340
v -0.031055 1.216149 0.055982
v -0.033005 1.209867 0.035591
v -0.029150 1.224136 0.050042
v -0.027383 1.218804 0.043556
v -0.029024 1.211455 0.045977
v -0.030529 1.219694 0.035624
v -0.130963 1.063368 0.101349
v -0.117870 1.067155 0.087673
v -0.115920 1.073437 0.108064
v -0.124526 1.061623 0.093311
v -0.119705 1.063551 0.100215
v -0.113889 1.068743 0.098060
v -0.123147 1.066065 0.107730
v -0.042722 1.228316 0.028466
v -0.037862 1.210130 0.029036
v -0.056540 1.217527 0.021586
v -0.036794 1.220032 0.027167
v -0.043492 1.219674 0.021815
v -0.046565 1.212403 0.022303
v -0.050002 1.225263 0.021900
v -0.134906 1.063581 0.096027
v -0.136548 1.074552 0.080224
v -0.117870 1.067155 0.087673
v -0.138620 1.066901 0.086847
v -0.130530 1.064136 0.085605
v -0.126573 1.069428 0.080940
v -0.125412 1.061671 0.092115
v -0.055795 1.236755 0.032321
v -0.063196 1.221824 0.023550
v -0.072789 1.232677 0.039337
v -0.058589 1.230806 0.024432
v -0.065569 1.233926 0.028327
v -0.070606 1.227923 0.029393
v -0.065372 1.238481 0.035595
v -0.140310 1.067069 0.097621
v -0.146141 1.085405 0.096011
v -0.136548 1.074552 0.080224
v -0.146618 1.075360 0.098369
v -0.145366 1.073714 0.089981
v -0.143958 1.080651 0.086067
v -0.139834 1.067685 0.087206
v -0.142886 1.070835 0.111494
v -0.140195 1.078564 0.116319
v -0.146897 1.078563 0.107692
v -0.141957 1.073796 0.115663
v -0.145370 1.075333 0.113423
v -0.144793 1.079261 0.112974
v -0.146696 1.073795 0.109563
v -0.086401 1.205753 0.067590
v -0.095406 1.201551 0.067670
v -0.088705 1.201553 0.076297
v -0.091674 1.205219 0.066796
v -0.090996 1.205209 0.071160
v -0.093303 1.202249 0.072953
v -0.086935 1.205220 0.072896
v -0.144035 1.067023 0.095935
v -0.147740 1.075765 0.096272
v -0.142304 1.071571 0.087775
v -0.147639 1.070667 0.096796
v -0.146914 1.070212 0.092519
v -0.146415 1.073883 0.091026
v -0.143795 1.067702 0.090787
v -0.086625 1.205011 0.064558
v -0.089970 1.197358 0.059173
v -0.095406 1.201551 0.067670
v -0.087872 1.202116 0.060224
v -0.091649 1.203043 0.062315
v -0.094081 1.199670 0.062424
v -0.091716 1.205081 0.066232
v -0.129953 1.060859 0.091281
v -0.131969 1.067047 0.084360
v -0.121907 1.064456 0.087736
v -0.132241 1.062644 0.086969
v -0.127995 1.061930 0.086267
v -0.126551 1.065187 0.084462
v -0.125126 1.060812 0.089356
v -0.083881 1.203809 0.063652
v -0.079908 1.194767 0.062549
v -0.089970 1.197358 0.059173
v -0.080247 1.200061 0.062442
v -0.083645 1.199538 0.059670
v -0.084552 1.195498 0.059275
v -0.087361 1.201892 0.060055
v -0.120101 1.060861 0.103965
v -0.114676 1.064458 0.097045
v -0.113894 1.067051 0.107628
v -0.117042 1.060814 0.099764
v -0.114758 1.061933 0.103308
v -0.112653 1.065191 0.102354
v -0.116489 1.062647 0.107247
v -0.081961 1.203810 0.066123
v -0.079126 1.197360 0.073132
v -0.079908 1.194767 0.062549
v -0.079337 1.201894 0.070385
v -0.078044 1.199540 0.066880
v -0.077885 1.195500 0.067858
v -0.079890 1.200061 0.062902
v -0.128093 1.067027 0.116457
v -0.119760 1.071576 0.116796
v -0.129338 1.075769 0.119961
v -0.123047 1.067707 0.117497
v -0.125496 1.070217 0.120091
v -0.123927 1.073889 0.119975
v -0.129820 1.070672 0.119735
v -0.083518 1.205011 0.068557
v -0.088705 1.201553 0.076297
v -0.079126 1.197360 0.073132
v -0.086399 1.205082 0.073076
v -0.082587 1.203045 0.073981
v -0.083294 1.199672 0.076311
v -0.079626 1.202118 0.070838
v 0.045837 1.243513 0.061430
v 0.045738 1.235858 0.078637
v 0.062738 1.236328 0.065604
v 0.044042 1.242870 0.071520
v 0.052490 1.243375 0.070103
v 0.055993 1.237790 0.074471
v 0.056063 1.243203 0.062304
v 0.105747 1.066136 0.133181
v 0.114734 1.082381 0.127878
v 0.097734 1.081911 0.140910
v 0.113655 1.072688 0.131280
v 0.109055 1.075901 0.137848
v 0.107989 1.083843 0.136745
v 0.101634 1.072356 0.140495
v 0.051247 1.239080 0.047005
v 0.065492 1.234071 0.058260
v 0.060192 1.224016 0.040098
v 0.059617 1.240291 0.052829
v 0.061626 1.235890 0.045743
v 0.065942 1.229639 0.047945
v 0.055869 1.233180 0.039987
v 0.107983 1.064304 0.127219
v 0.109434 1.072325 0.109716
v 0.114734 1.082381 0.127878
v 0.110410 1.065166 0.117097
v 0.115194 1.070871 0.121478
v 0.115183 1.077948 0.117563
v 0.114158 1.072276 0.129939
v 0.039421 1.231339 0.039443
v 0.054170 1.220074 0.036247
v 0.033894 1.213389 0.038055
v 0.048100 1.228095 0.035019
v 0.041653 1.222817 0.032972
v 0.044193 1.215403 0.034038
v 0.033763 1.223368 0.036298
v 0.103095 1.061104 0.124093
v 0.089158 1.065640 0.111524
v 0.109434 1.072325 0.109716
v 0.094974 1.059719 0.117673
v 0.101773 1.062085 0.112896
v 0.099456 1.067654 0.107507
v 0.109311 1.064446 0.116394
v 0.026701 1.230987 0.049194
v 0.027418 1.213210 0.043020
v 0.020187 1.219134 0.062299
v 0.025408 1.223137 0.042703
v 0.020173 1.222223 0.049439
v 0.020802 1.214756 0.051969
v 0.020295 1.227326 0.056335
v 0.097837 1.060959 0.128123
v 0.081927 1.071564 0.130803
v 0.089158 1.065640 0.111524
v 0.088679 1.063876 0.132211
v 0.087338 1.061686 0.123962
v 0.082542 1.067186 0.120473
v 0.093792 1.059687 0.118579
v 0.030667 1.238511 0.062783
v 0.022206 1.222965 0.069218
v 0.038013 1.233312 0.079325
v 0.022900 1.232269 0.065261
v 0.026870 1.234929 0.072387
v 0.028095 1.228592 0.076958
v 0.034077 1.239585 0.072408
v 0.099476 1.064068 0.133740
v 0.097734 1.081911 0.140910
v 0.081927 1.071564 0.130803
v 0.100225 1.071891 0.140621
v 0.091838 1.070225 0.139383
v 0.087815 1.077191 0.138543
v 0.089047 1.064575 0.133474
v 0.110602 1.071491 0.144743
v 0.115490 1.079183 0.142059
v 0.106673 1.079279 0.148508
v 0.114791 1.074445 0.143884
v 0.112451 1.076035 0.147203
v 0.112013 1.079951 0.146546
v 0.108557 1.074512 0.148444
v 0.068127 1.205320 0.084687
v 0.067954 1.201274 0.093762
v 0.076771 1.201178 0.087313
v 0.067182 1.204875 0.089944
v 0.071564 1.204863 0.089392
v 0.073294 1.201947 0.091801
v 0.073416 1.204808 0.085383
v 0.095022 1.067666 0.145509
v 0.095238 1.076471 0.149071
v 0.086909 1.072166 0.143465
v 0.095773 1.071374 0.149073
v 0.091520 1.070897 0.148233
v 0.090036 1.074556 0.147628
v 0.089883 1.068330 0.145110
v 0.065091 1.204575 0.084836
v 0.059624 1.196969 0.088157
v 0.067954 1.201274 0.093762
v 0.060727 1.201692 0.086008
v 0.062707 1.202689 0.089828
v 0.062751 1.199359 0.092319
v 0.066617 1.204737 0.089971
v 0.090787 1.061250 0.131408
v 0.083801 1.067457 0.133115
v 0.087469 1.064700 0.123202
v 0.086408 1.063065 0.133539
v 0.085830 1.062276 0.129288
v 0.084062 1.065505 0.127736
v 0.089003 1.061116 0.126529
v 0.064266 1.203324 0.082089
v 0.063293 1.194212 0.078243
v 0.059624 1.196969 0.088157
v 0.063168 1.199511 0.078487
v 0.060300 1.199041 0.081812
v 0.059886 1.195017 0.082777
v 0.060574 1.201460 0.085497
v 0.103750 1.061109 0.121927
v 0.096983 1.064597 0.116243
v 0.107580 1.067199 0.115721
v 0.099639 1.061000 0.118749
v 0.103245 1.062087 0.116549
v 0.102347 1.065306 0.114361
v 0.107132 1.062840 0.118380
v 0.066792 1.203297 0.080241
v 0.073890 1.196814 0.077722
v 0.063293 1.194212 0.078243
v 0.071131 1.201345 0.077774
v 0.067668 1.198961 0.076422
v 0.068657 1.194921 0.076362
v 0.063638 1.199505 0.078143
v 0.115996 1.067438 0.130168
v 0.116568 1.071844 0.121770
v 0.119449 1.076208 0.131361
v 0.117181 1.068033 0.125142
v 0.119698 1.070591 0.127622
v 0.119622 1.074234 0.125986
v 0.119217 1.071119 0.131925
v 0.069178 1.204530 0.081847
v 0.076771 1.201178 0.087313
v 0.073890 1.196814 0.077722
v 0.073612 1.204661 0.084855
v 0.074630 1.202559 0.081107
v 0.076944 1.199204 0.081938
v 0.071575 1.201575 0.078073
v 0.053607 1.240735 -0.045960
v 0.071393 1.234549 -0.045796
v 0.058430 1.233928 -0.062844
v 0.063708 1.240939 -0.044128
v 0.062285 1.241325 -0.052581
v 0.067118 1.236126 -0.056067
v 0.054541 1.240500 -0.056183
v 0.140186 1.070002 -0.105577
v 0.133573 1.085746 -0.114586
v 0.146536 1.086368 -0.097538
v 0.137771 1.076372 -0.113493
v 0.144030 1.080124 -0.108869
v 0.142261 1.087945 -0.107809
v 0.146937 1.076812 -0.101439
v 0.039624 1.235110 -0.051422
v 0.051310 1.231064 -0.065625
v 0.034036 1.219521 -0.060389
v 0.045356 1.236805 -0.059771
v 0.038671 1.231826 -0.061805
v 0.041405 1.225782 -0.066111
v 0.033141 1.228643 -0.056068
v 0.134406 1.067677 -0.107835
v 0.116298 1.074203 -0.109350
v 0.133573 1.085746 -0.114586
v 0.124256 1.067688 -0.110298
v 0.128162 1.073740 -0.115068
v 0.123667 1.080465 -0.115072
v 0.136471 1.075850 -0.114001
v 0.032694 1.226761 -0.039622
v 0.030507 1.215270 -0.054381
v 0.032794 1.208757 -0.034098
v 0.028589 1.223159 -0.048317
v 0.026968 1.217726 -0.041877
v 0.028660 1.210428 -0.044411
v 0.030206 1.218554 -0.033975
v 0.131541 1.064225 -0.102957
v 0.118586 1.067691 -0.089067
v 0.116298 1.074203 -0.109350
v 0.125230 1.062307 -0.094860
v 0.120297 1.064265 -0.101676
v 0.114451 1.069362 -0.099380
v 0.123613 1.066912 -0.109202
v 0.042393 1.227225 -0.026866
v 0.037733 1.208994 -0.027603
v 0.056421 1.216511 -0.020303
v 0.036578 1.218859 -0.025596
v 0.043348 1.218511 -0.020336
v 0.046497 1.211283 -0.020955
v 0.049792 1.224175 -0.020434
v 0.135551 1.064417 -0.097685
v 0.137274 1.075209 -0.081767
v 0.118586 1.067691 -0.089067
v 0.139346 1.067666 -0.088512
v 0.131305 1.064793 -0.087201
v 0.127350 1.069980 -0.082419
v 0.126131 1.062350 -0.093674
v 0.055318 1.235862 -0.030784
v 0.063002 1.220909 -0.022297
v 0.072265 1.232068 -0.038069
v 0.058282 1.229848 -0.023007
v 0.065175 1.233096 -0.026952
v 0.070265 1.227165 -0.028159
v 0.064832 1.237739 -0.034159
v 0.140893 1.067987 -0.099304
v 0.146536 1.086368 -0.097538
v 0.137274 1.075209 -0.081767
v 0.147096 1.076359 -0.100028
v 0.145973 1.074594 -0.091646
v 0.144537 1.081465 -0.087628
v 0.140547 1.068468 -0.088876
v 0.142188 1.070721 -0.112098
v 0.139382 1.078434 -0.116883
v 0.146296 1.078460 -0.108425
v 0.141158 1.073667 -0.116254
v 0.144626 1.075210 -0.114104
v 0.144063 1.079140 -0.113656
v 0.146047 1.073686 -0.110273
v 0.086871 1.205828 -0.067300
v 0.095869 1.201621 -0.067587
v 0.088956 1.201595 -0.076045
v 0.092162 1.205294 -0.066634
v 0.091375 1.205269 -0.070980
v 0.093636 1.202301 -0.072819
v 0.087273 1.205276 -0.072615
v 0.143722 1.066964 -0.096558
v 0.147421 1.075703 -0.097019
v 0.142195 1.071543 -0.088375
v 0.147305 1.070603 -0.097522
v 0.146686 1.070164 -0.093226
v 0.146225 1.073841 -0.091735
v 0.143610 1.067662 -0.091409
v 0.087169 1.205096 -0.064272
v 0.090643 1.197461 -0.058943
v 0.095869 1.201621 -0.067587
v 0.088522 1.202216 -0.059959
v 0.092247 1.203134 -0.062146
v 0.094674 1.199759 -0.062303
v 0.092217 1.205158 -0.066071
v 0.129756 1.060825 -0.091535
v 0.131945 1.067037 -0.084688
v 0.121802 1.064440 -0.087804
v 0.132151 1.062624 -0.087287
v 0.127924 1.061915 -0.086478
v 0.126526 1.065180 -0.084649
v 0.124978 1.060788 -0.089491
v 0.084448 1.203900 -0.063293
v 0.080500 1.194864 -0.062059
v 0.090643 1.197461 -0.058943
v 0.080843 1.200157 -0.061980
v 0.084309 1.199643 -0.059291
v 0.085224 1.195604 -0.058904
v 0.088016 1.201994 -0.059777
v 0.119592 1.060786 -0.103970
v 0.114342 1.064412 -0.096931
v 0.113299 1.066966 -0.107501
v 0.116638 1.060756 -0.099695
v 0.114268 1.061864 -0.103185
v 0.112188 1.065126 -0.102191
v 0.115901 1.062563 -0.107169
v 0.082468 1.203892 -0.065716
v 0.079457 1.197419 -0.072629
v 0.080500 1.194864 -0.062059
v 0.079738 1.201963 -0.069905
v 0.078531 1.199622 -0.066360
v 0.078346 1.195579 -0.067319
v 0.080475 1.200156 -0.062431
v 0.127276 1.066903 -0.116679
v 0.118939 1.071455 -0.116828
v 0.128437 1.075631 -0.120245
v 0.122205 1.067581 -0.117597
v 0.124591 1.070081 -0.120259
v 0.123027 1.073754 -0.120118
v 0.128922 1.070534 -0.120012
v 0.083965 1.205084 -0.068192
v 0.088956 1.201595 -0.076045
v 0.079457 1.197419 -0.072629
v 0.086733 1.205137 -0.072781
v 0.082898 1.203098 -0.073584
v 0.083545 1.199717 -0.075918
v 0.080016 1.202184 -0.070365
v -0.046246 1.240934 -0.053905
v -0.046152 1.234718 -0.071682
v -0.063119 1.234025 -0.058618
v -0.044474 1.241131 -0.064017
v -0.052920 1.241473 -0.062545
v -0.056406 1.236246 -0.067349
v -0.056472 1.240641 -0.054779
v -0.105423 1.069726 -0.139847
v -0.114481 1.085433 -0.133208
v -0.097513 1.086125 -0.146272
v -0.113361 1.076057 -0.137396
v -0.108794 1.079824 -0.143689
v -0.107767 1.087653 -0.141940
v -0.101362 1.076548 -0.146634
v -0.051595 1.235303 -0.039881
v -0.065843 1.231158 -0.051477
v -0.060443 1.219674 -0.034214
v -0.059986 1.236942 -0.045567
v -0.061953 1.231963 -0.038862
v -0.066242 1.225891 -0.041560
v -0.056167 1.228822 -0.033361
v -0.107635 1.067399 -0.134050
v -0.109080 1.073948 -0.115945
v -0.114481 1.085433 -0.133208
v -0.110039 1.067414 -0.123887
v -0.114865 1.073433 -0.127774
v -0.114880 1.080165 -0.123291
v -0.113858 1.075534 -0.136093
v -0.039708 1.227030 -0.033006
v -0.054391 1.215462 -0.030714
v -0.034085 1.209057 -0.033109
v -0.048359 1.223388 -0.028844
v -0.041880 1.217994 -0.027252
v -0.044383 1.210679 -0.028917
v -0.034001 1.218859 -0.030538
v -0.102721 1.063980 -0.131209
v -0.088775 1.067544 -0.118340
v -0.109080 1.073948 -0.115945
v -0.094577 1.062116 -0.124941
v -0.101375 1.064045 -0.119972
v -0.099073 1.069165 -0.114148
v -0.108935 1.066645 -0.123248
v -0.027013 1.227549 -0.042781
v -0.027621 1.209321 -0.038086
v -0.020472 1.216847 -0.056829
v -0.025662 1.219199 -0.036959
v -0.020440 1.218869 -0.043759
v -0.021037 1.211632 -0.046892
v -0.020607 1.224521 -0.050212
v -0.097474 1.064194 -0.135249
v -0.081626 1.075070 -0.137083
v -0.088775 1.067544 -0.118340
v -0.088342 1.067486 -0.139103
v -0.086967 1.064634 -0.131065
v -0.082191 1.069854 -0.127147
v -0.093397 1.062164 -0.125850
v -0.031053 1.236142 -0.055697
v -0.022529 1.221222 -0.063406
v -0.038416 1.232278 -0.072594
v -0.023261 1.230165 -0.058697
v -0.027263 1.233380 -0.065571
v -0.028467 1.227434 -0.070645
v -0.034494 1.237983 -0.065194
v -0.099144 1.067746 -0.140588
v -0.097513 1.086125 -0.146272
v -0.081626 1.075070 -0.137083
v -0.099951 1.076102 -0.146801
v -0.091553 1.074385 -0.145723
v -0.087564 1.081281 -0.144323
v -0.088717 1.068284 -0.140303
v -0.110712 1.070513 -0.142878
v -0.115666 1.078076 -0.139958
v -0.107240 1.078387 -0.146903
v -0.114932 1.073348 -0.141795
v -0.112834 1.074984 -0.145252
v -0.112476 1.078915 -0.144642
v -0.108973 1.073568 -0.146707
v -0.068886 1.205951 -0.086061
v -0.069112 1.201850 -0.095110
v -0.077538 1.201538 -0.088165
v -0.068231 1.205498 -0.091361
v -0.072571 1.205361 -0.090559
v -0.074349 1.202378 -0.092849
v -0.074189 1.205278 -0.086450
v -0.095094 1.067145 -0.144519
v -0.095777 1.075915 -0.148107
v -0.087015 1.071897 -0.142967
v -0.096158 1.070804 -0.148053
v -0.091851 1.070459 -0.147456
v -0.090446 1.074164 -0.146956
v -0.089963 1.067963 -0.144418
v -0.065843 1.205295 -0.086381
v -0.060350 1.197832 -0.089970
v -0.069112 1.201850 -0.095110
v -0.061469 1.202535 -0.087786
v -0.063693 1.203446 -0.091491
v -0.063781 1.200099 -0.093959
v -0.067665 1.205376 -0.091421
v -0.089869 1.060954 -0.130651
v -0.083180 1.067353 -0.132789
v -0.086191 1.064558 -0.122667
v -0.085675 1.062883 -0.133039
v -0.084831 1.062142 -0.128824
v -0.083074 1.065431 -0.127393
v -0.087804 1.060907 -0.125881
v -0.064825 1.204089 -0.083679
v -0.063361 1.195037 -0.079848
v -0.060350 1.197832 -0.089970
v -0.063409 1.200334 -0.080126
v -0.060723 1.199927 -0.083608
v -0.060245 1.195910 -0.084575
v -0.061280 1.202311 -0.087283
v -0.102257 1.060497 -0.120439
v -0.095283 1.064222 -0.115172
v -0.105906 1.066513 -0.114056
v -0.097969 1.060531 -0.117503
v -0.101475 1.061526 -0.115105
v -0.100550 1.064785 -0.112989
v -0.105481 1.062151 -0.116714
v -0.067239 1.204000 -0.081689
v -0.073984 1.197328 -0.078732
v -0.063361 1.195037 -0.079848
v -0.071369 1.201938 -0.078967
v -0.067765 1.199667 -0.077803
v -0.068628 1.195600 -0.077665
v -0.063858 1.200318 -0.079756
v -0.115139 1.066404 -0.127996
v -0.115361 1.070849 -0.119603
v -0.118915 1.075060 -0.129035
v -0.116051 1.066999 -0.122914
v -0.118782 1.069463 -0.125258
v -0.118721 1.073119 -0.123649
v -0.118564 1.069976 -0.129584
v -0.069749 1.205151 -0.083162
v -0.077538 1.201538 -0.088165
v -0.073984 1.197328 -0.078732
v -0.074349 1.205129 -0.085911
v -0.075088 1.203025 -0.082099
v -0.077344 1.199597 -0.082779
v -0.071836 1.202152 -0.079241
vn -0.1097 -0.9278 -0.3565
vn -0.7423 -0.6083 -0.2808
vn 0.3183 -0.9226 -0.2178
vn 0.3186 -0.9190 0.2322
vn -0.1092 -0.9219 0.3716
vn -0.9167 -0.2953 -0.2692
vn -0.0231 -0.2924 -0.9560
vn 0.9061 -0.2783 -0.3185
vn 0.5869 -0.2727 0.7624
vn -0.5397 -0.2832 0.7928
vn -0.8038 -0.1191 -0.5829
vn 0.3076 -0.1114 -0.9450
vn 0.9953 -0.0972 0.0001
vn 0.3089 -0.0961 0.9462
vn -0.8029 -0.1096 0.5859
vn -0.4430 0.5893 -0.6757
vn 0.4972 0.5986 -0.6280
vn 0.7423 0.6083 0.2808
vn -0.0463 0.6050 0.7949
vn -0.7788 0.5932 0.2038
vn -0.3183 0.9226 0.2178
vn -0.5485 0.7407 0.3880
vn -0.4420 0.6001 0.6667
vn 0.1097 0.9278 0.3565
vn 0.2003 0.7498 0.6306
vn 0.4981 0.6087 0.6176
vn 0.3740 0.9274 -0.0078
vn 0.6624 0.7491 -0.0065
vn 0.7419 0.6037 -0.2917
vn 0.1092 0.9219 -0.3716
vn 0.1994 0.7395 -0.6429
vn -0.0474 0.5920 -0.8045
vn -0.3186 0.9190 -0.2322
vn -0.5490 0.7344 -0.3991
vn -0.7791 0.5898 -0.2122
vn -0.9061 0.2783 0.3185
vn -0.7997 0.1568 0.5796
vn -0.5858 0.2850 0.7587
vn 0.0231 0.2924 0.9560
vn 0.3042 0.1703 0.9373
vn 0.5408 0.2959 0.7874
vn 0.9167 0.2953 0.2692
vn 0.9856 0.1692 -0.0021
vn 0.9163 0.2909 -0.2753
vn 0.5397 0.2832 -0.7928
vn 0.3028 0.1551 -0.9403
vn 0.0217 0.2769 -0.9607
vn -0.5869 0.2727 -0.7624
vn -0.8005 0.1475 -0.5809
vn -0.9066 0.2732 -0.3216
vn -0.3076 0.1114 0.9450
vn -0.3028 -0.1551 0.9403
vn -0.0217 -0.2769 0.9607
vn 0.8038 0.1191 0.5829
vn 0.8005 -0.1475 0.5809
vn 0.9066 -0.2732 0.3216
vn 0.8029 0.1096 -0.5859
vn 0.7997 -0.1568 -0.5796
vn 0.5858 -0.2850 -0.7587
vn -0.3089 0.0961 -0.9462
vn -0.3042 -0.1703 -0.9373
vn -0.5408 -0.2959 -0.7874
vn -0.9953 0.0972 -0.0001
vn -0.9856 -0.1692 0.0021
vn -0.9163 -0.2909 0.2753
vn -0.4972 -0.5986 0.6280
vn -0.1994 -0.7395 0.6429
vn 0.0474 -0.5920 0.8045
vn 0.4430 -0.5893 0.6757
vn 0.5490 -0.7344 0.3991
vn 0.7791 -0.5898 0.2122
vn 0.7788 -0.5932 -0.2038
vn 0.5485 -0.7407 -0.3880
vn 0.4420 -0.6001 -0.6667
vn -0.7419 -0.6037 0.2917
vn -0.6624 -0.7491 0.0065
vn -0.3740 -0.9274 0.0078
vn 0.0463 -0.6050 -0.7949
vn -0.2003 -0.7498 -0.6306
vn -0.4981 -0.6087 -0.6176
vn -0.1545 -0.8923 -0.4243
vn -0.8051 -0.5117 -0.2998
vn 0.3505 -0.8992 -0.2619
vn 0.3521 -0.8966 0.2686
vn -0.1518 -0.8880 0.4340
vn -0.9361 -0.2232 -0.2720
vn -0.0320 -0.2406 -0.9701
vn 0.9112 -0.2519 -0.3259
vn 0.5902 -0.2415 0.7703
vn -0.5515 -0.2238 0.8036
vn -0.8089 -0.0781 -0.5827
vn 0.3036 -0.0970 -0.9479
vn 0.9947 -0.1029 -0.0025
vn 0.3093 -0.0877 0.9469
vn -0.8054 -0.0723 0.5883
vn -0.4591 0.5261 -0.7158
vn 0.5419 0.5110 -0.6673
vn 0.8051 0.5117 0.2998
vn -0.0332 0.5273 0.8490
vn -0.8145 0.5362 0.2213
vn -0.3505 0.8992 0.2619
vn -0.5869 0.6839 0.4334
vn -0.4548 0.5332 0.7134
vn 0.1545 0.8923 0.4243
vn 0.2411 0.6725 0.6997
vn 0.5459 0.5175 0.6589
vn 0.4649 0.8853 -0.0058
vn 0.7502 0.6612 -0.0055
vn 0.8033 0.5087 -0.3097
vn 0.1519 0.8880 -0.4340
vn 0.2369 0.6656 -0.7077
vn -0.0383 0.5190 -0.8539
vn -0.3521 0.8966 -0.2686
vn -0.5895 0.6796 -0.4365
vn -0.8159 0.5341 -0.2216
vn -0.9112 0.2519 0.3259
vn -0.7981 0.1467 0.5844
vn -0.5855 0.2491 0.7714
vn 0.0320 0.2406 0.9701
vn 0.3112 0.1314 0.9412
vn 0.5563 0.2316 0.7980
vn 0.9361 0.2232 0.2720
vn 0.9932 0.1162 -0.0036
vn 0.9344 0.2205 -0.2799
vn 0.5515 0.2238 -0.8036
vn 0.3055 0.1221 -0.9443
vn 0.0262 0.2310 -0.9726
vn -0.5902 0.2415 -0.7703
vn -0.8016 0.1409 -0.5810
vn -0.9132 0.2487 -0.3229
vn -0.3036 0.0970 0.9479
vn -0.3055 -0.1221 0.9443
vn -0.0262 -0.2310 0.9726
vn 0.8089 0.0781 0.5827
vn 0.8016 -0.1409 0.5810
vn 0.9132 -0.2487 0.3229
vn 0.8054 0.0723 -0.5883
vn 0.7981 -0.1467 -0.5844
vn 0.5855 -0.2491 -0.7714
vn -0.3093 0.0877 -0.9469
vn -0.3112 -0.1314 -0.9412
vn -0.5563 -0.2316 -0.7980
vn -0.9947 0.1029 0.0025
vn -0.9932 -0.1162 0.0036
vn -0.9344 -0.2205 0.2799
vn -0.5419 -0.5110 0.6673
vn -0.2369 -0.6656 0.7077
vn 0.0384 -0.5190 0.8539
vn 0.4591 -0.5261 0.7158
vn 0.5895 -0.6797 0.4365
vn 0.8159 -0.5341 0.2216
vn 0.8145 -0.5362 -0.2213
vn 0.5869 -0.6839 -0.4334
vn 0.4548 -0.5332 -0.7134
vn -0.8033 -0.5087 0.3097
vn -0.7502 -0.6612 0.0055
vn -0.4649 -0.8853 0.0058
vn 0.0332 -0.5273 -0.8490
vn -0.2411 -0.6725 -0.6997
vn -0.5459 -0.5175 -0.6589
vn 0.0797 0.9958 0.0448
vn -0.6384 0.7663 0.0719
vn -0.3275 0.7001 0.6346
vn -0.7503 -0.4589 0.4758
vn -0.5445 0.1244 0.8295
vn -0.9139 0.2364 0.3301
vn 0.6146 0.7631 0.2000
vn 0.1840 0.5818 0.7923
vn 0.6836 0.1807 0.7072
vn -0.2555 -0.6347 0.7293
vn 0.4066 -0.3899 0.8262
vn -0.0496 0.0107 0.9987
vn 0.8369 0.4708 -0.2791
vn 0.9600 -0.0214 0.2791
vn 0.9049 -0.3012 -0.3008
vn 0.0492 -0.9402 0.3371
vn 0.5503 -0.8204 -0.1552
vn 0.6862 -0.5950 0.4185
vn 0.4394 0.5229 -0.7304
vn 0.6172 -0.2097 -0.7584
vn 0.0306 -0.0797 -0.9963
vn -0.2572 -0.9532 -0.1588
vn -0.3120 -0.5722 -0.7585
vn 0.2767 -0.7435 -0.6088
vn -0.0286 0.8474 -0.5302
vn -0.3707 0.2772 -0.8864
vn -0.7310 0.5391 -0.4183
vn -0.7514 -0.6558 -0.0731
vn -0.9886 0.0118 -0.1499
vn -0.7122 -0.2297 -0.6634
vn -0.0076 0.7001 0.7140
vn 0.3430 0.9367 0.0701
vn -0.3598 0.0306 0.9325
vn -0.4900 -0.6142 0.6186
vn -0.8293 0.4952 0.2590
vn -0.4706 0.4758 0.7431
vn 0.5722 -0.0598 0.8179
vn 0.0806 0.2575 0.9629
vn 0.8837 0.1248 0.4512
vn 0.7186 0.6943 -0.0407
vn 0.5108 -0.5315 0.6758
vn -0.1230 -0.8511 0.5104
vn 0.8005 -0.5569 -0.2217
vn 0.8553 -0.3802 0.3520
vn 0.7842 -0.1957 -0.5889
vn 0.6766 0.5593 -0.4789
vn 0.4136 -0.8445 -0.3403
vn -0.1639 -0.9831 0.0821
vn -0.1013 -0.3285 -0.9391
vn 0.4242 -0.5366 -0.7295
vn -0.1685 0.1816 -0.9688
vn 0.2752 0.7182 -0.6391
vn -0.5170 -0.4759 -0.7115
vn -0.5562 -0.8277 -0.0744
vn -0.8868 0.3098 -0.3428
vn -0.6169 0.0044 -0.7870
vn -0.6578 0.7352 -0.1636
vn 0.0690 0.9515 -0.2997
vn -0.9951 0.0649 0.0752
vn -0.7577 -0.5997 0.2572
vn 0.4526 0.8391 -0.3018
vn -0.2021 0.3931 0.8970
vn -0.9012 0.4309 -0.0466
vn -0.4527 -0.8391 0.3018
vn 0.7561 -0.2254 0.6144
vn 0.6492 -0.5699 -0.5038
vn -0.3751 -0.1643 -0.9123
vn -0.6782 -0.5723 0.4611
vn -0.5229 0.0765 0.8490
vn -0.9225 0.1747 0.3442
vn -0.0435 0.9945 0.0955
vn -0.6839 0.7216 0.1079
vn -0.3652 0.6737 0.6424
vn -0.6640 -0.7367 -0.1281
vn -0.9859 -0.0363 -0.1633
vn -0.6740 -0.1977 -0.7118
vn -0.1388 0.8775 -0.4590
vn -0.3837 0.3572 -0.8516
vn -0.7556 0.5323 -0.3818
vn -0.1082 -0.9627 -0.2479
vn -0.2216 -0.4870 -0.8448
vn 0.4094 -0.5743 -0.7090
vn 0.3419 0.6509 -0.6779
vn 0.6297 0.0246 -0.7764
vn 0.0484 0.0863 -0.9951
vn 0.2211 -0.9379 0.2672
vn 0.7138 -0.6528 -0.2538
vn 0.8304 -0.4346 0.3487
vn 0.7342 0.6277 -0.2585
vn 0.9559 0.1833 0.2295
vn 0.9356 -0.0480 -0.3499
vn -0.1313 -0.6966 0.7053
vn 0.5276 -0.3045 0.7931
vn 0.0073 0.0283 0.9996
vn 0.4961 0.8401 0.2194
vn 0.1440 0.6141 0.7760
vn 0.6799 0.3150 0.6622
vn -0.9970 -0.0118 0.0766
vn -0.6661 -0.7116 0.2236
vn -0.7100 0.6943 -0.1176
vn -0.0631 0.9704 -0.2330
vn -0.4810 0.4468 0.7543
vn -0.8499 0.4467 0.2793
vn -0.5958 0.0659 -0.8004
vn -0.8952 0.2968 -0.3326
vn -0.4484 -0.4350 -0.7808
vn -0.4350 -0.8899 -0.1376
vn -0.1840 0.2887 -0.9396
vn 0.1584 0.7994 -0.5795
vn 0.5119 -0.3191 -0.7975
vn -0.0420 -0.1765 -0.9834
vn 0.5668 -0.6964 -0.4402
vn -0.0073 -1.0000 0.0059
vn 0.7891 0.0381 -0.6130
vn 0.5688 0.6938 -0.4418
vn 0.9425 -0.1763 0.2840
vn 0.8994 -0.3191 -0.2987
vn 0.6457 -0.4348 0.6277
vn 0.0259 -0.8897 0.4557
vn 0.8648 0.2889 0.4107
vn 0.6005 0.7996 -0.0104
vn 0.1008 0.2971 0.9495
vn 0.6282 0.0662 0.7753
vn -0.3208 -0.0117 0.9471
vn -0.3812 -0.7115 0.5903
vn -0.0613 0.6945 0.7169
vn 0.2105 0.9704 0.1186
vn -0.3186 -0.9149 0.2477
vn -0.9250 0.3792 -0.0246
vn -0.2050 0.3794 0.9022
vn 0.3187 0.9149 -0.2477
vn -0.3409 -0.0713 -0.9374
vn 0.7399 -0.3496 -0.5747
vn 0.8239 -0.0710 0.5622
vn 0.0310 0.9995 -0.0079
vn 0.0729 0.7191 0.6911
vn 0.6311 0.6832 0.3674
vn 0.4939 -0.5055 0.7076
vn 0.8368 0.0961 0.5391
vn 0.3422 0.1742 0.9233
vn 0.1802 0.8082 -0.5607
vn 0.7818 0.6043 -0.1537
vn 0.6934 0.2394 -0.6796
vn 0.7413 -0.6415 0.1974
vn 0.8242 -0.3481 -0.4467
vn 0.9992 0.0207 0.0346
vn -0.2988 0.5262 -0.7961
vn 0.2634 0.0519 -0.9633
vn -0.3120 -0.2391 -0.9195
vn 0.3480 -0.9295 -0.1226
vn -0.1540 -0.7805 -0.6059
vn 0.4144 -0.5380 -0.7340
vn -0.7440 0.5433 -0.3889
vn -0.7658 -0.1748 -0.6189
vn -0.9956 -0.0909 -0.0207
vn -0.1426 -0.9714 0.1899
vn -0.7460 -0.6035 0.2815
vn -0.6039 -0.7298 -0.3204
vn -0.5402 0.8358 0.0982
vn -0.8836 0.2375 0.4036
vn -0.4128 0.4791 0.7747
vn -0.0524 -0.7093 0.7029
vn -0.1336 -0.0618 0.9891
vn -0.6485 -0.2896 0.7039
vn 0.7053 0.7074 0.0471
vn 0.0527 0.9599 -0.2752
vn 0.9995 -0.0312 -0.0000
vn 0.6343 -0.6395 0.4344
vn 0.2665 0.4374 0.8589
vn 0.7447 0.4506 0.4922
vn 0.8090 -0.0071 -0.5877
vn 0.9581 0.2758 -0.0768
vn 0.4349 0.1945 -0.8792
vn -0.0612 0.7438 -0.6656
vn 0.6739 -0.4838 -0.5584
vn 0.5230 -0.8507 0.0529
vn -0.2279 -0.5005 -0.8352
vn 0.3425 -0.3125 -0.8860
vn -0.5993 -0.1465 -0.7870
vn -0.4970 0.6001 -0.6267
vn -0.3364 -0.8170 -0.4684
vn 0.0971 -0.9911 0.0909
vn -0.9331 -0.3477 0.0918
vn -0.7296 -0.5144 -0.4505
vn -0.9681 0.1557 0.1963
vn -0.6525 0.7274 -0.2124
vn -0.6968 -0.5218 0.4922
vn -0.0548 -0.8667 0.4958
vn -0.3319 0.2401 0.9122
vn -0.7767 -0.0510 0.6279
vn -0.1618 0.6834 0.7119
vn -0.3127 0.9498 0.0049
vn 0.0908 -0.0062 0.9958
vn 0.2772 -0.6494 0.7081
vn -0.3197 0.8654 -0.3858
vn 0.8952 0.3897 0.2160
vn -0.0370 0.3640 0.9307
vn 0.3197 -0.8654 0.3858
vn 0.6046 -0.1617 -0.7800
vn -0.5073 -0.5283 -0.6808
vn -0.9038 -0.2034 0.3764
vn 0.4422 -0.5595 0.7010
vn 0.8334 0.0873 0.5457
vn 0.3171 0.1913 0.9289
vn 0.0926 0.9953 0.0290
vn 0.0870 0.7335 0.6741
vn 0.6305 0.6813 0.3719
vn -0.1460 -0.7254 0.6727
vn -0.1916 -0.0196 0.9813
vn -0.7306 -0.1876 0.6565
vn -0.4643 0.8788 0.1102
vn -0.8629 0.3620 0.3528
vn -0.4043 0.5445 0.7349
vn -0.2494 -0.9612 0.1176
vn -0.8501 -0.4849 0.2056
vn -0.6959 -0.5828 -0.4196
vn -0.6688 0.6434 -0.3726
vn -0.7580 0.0121 -0.6522
vn -0.9934 0.0833 -0.0785
vn 0.2751 -0.9410 -0.1970
vn -0.2320 -0.6655 -0.7094
vn 0.3732 -0.4481 -0.8123
vn -0.2382 0.6144 -0.7521
vn 0.2566 0.1673 -0.9519
vn -0.3227 -0.0649 -0.9443
vn 0.7024 -0.6928 0.1636
vn 0.8084 -0.3119 -0.4992
vn 0.9993 0.0303 0.0211
vn 0.2323 0.8319 -0.5040
vn 0.7788 0.6131 -0.1322
vn 0.6810 0.3046 -0.6659
vn 0.0478 0.0055 0.9988
vn 0.2054 -0.6995 0.6845
vn -0.1394 0.7062 0.6941
vn -0.2364 0.9709 0.0396
vn 0.7394 0.4567 0.4947
vn 0.2540 0.4619 0.8498
vn -0.8174 0.0745 0.5713
vn -0.3588 0.3115 0.8799
vn -0.7927 -0.4289 0.4332
vn -0.1486 -0.8825 0.4462
vn -0.9449 0.2898 0.1520
vn -0.5760 0.7953 -0.1889
vn -0.7819 -0.3296 -0.5291
vn -0.9839 -0.1779 0.0167
vn -0.4225 -0.7070 -0.5671
vn 0.0073 -0.9997 0.0248
vn -0.5900 0.0232 -0.8070
vn -0.4265 0.6829 -0.5931
vn 0.3113 -0.1919 -0.9307
vn -0.2721 -0.3352 -0.9020
vn 0.6468 -0.4445 -0.6197
vn 0.4577 -0.8891 0.0027
vn 0.4350 0.2748 -0.8575
vn 0.0058 0.7890 -0.6144
vn 0.9516 0.2973 -0.0785
vn 0.7930 0.0570 -0.6066
vn 0.9375 -0.0041 0.3481
vn 0.5802 -0.7036 0.4103
vn 0.7137 0.6970 0.0702
vn 0.1231 0.9669 -0.2233
vn 0.2399 -0.9088 0.3415
vn -0.0519 0.3951 0.9172
vn 0.8953 0.3848 0.2243
vn -0.2399 0.9088 -0.3415
vn -0.9467 -0.0674 0.3150
vn -0.5526 -0.3635 -0.7500
vn 0.5859 -0.0840 -0.8060
vn -0.0915 0.9953 -0.0312
vn 0.6287 0.7745 -0.0705
vn 0.3112 0.7116 -0.6298
vn 0.7492 -0.4443 -0.4912
vn 0.5322 0.1410 -0.8348
vn 0.9067 0.2510 -0.3389
vn -0.6257 0.7584 -0.1824
vn -0.2009 0.5894 -0.7824
vn -0.6947 0.1817 -0.6959
vn 0.2531 -0.6226 -0.7405
vn -0.4129 -0.3842 -0.8257
vn 0.0364 0.0237 -0.9991
vn -0.8385 0.4576 0.2958
vn -0.9633 -0.0290 -0.2670
vn -0.8974 -0.3153 0.3086
vn -0.0430 -0.9364 -0.3482
vn -0.5389 -0.8285 0.1519
vn -0.6848 -0.5976 -0.4170
vn -0.4358 0.5087 0.7425
vn -0.6048 -0.2262 0.7636
vn -0.0167 -0.0925 0.9956
vn 0.2701 -0.9521 0.1434
vn 0.3283 -0.5779 0.7471
vn -0.2603 -0.7542 0.6029
vn 0.0259 0.8410 0.5404
vn 0.3790 0.2704 0.8850
vn 0.7303 0.5422 0.4156
vn 0.7597 -0.6480 0.0551
vn 0.9903 0.0213 0.1373
vn 0.7233 -0.2297 0.6512
vn -0.0097 0.7089 -0.7052
vn -0.3545 0.9335 -0.0538
vn 0.3472 0.0463 -0.9366
vn 0.4888 -0.6008 -0.6326
vn 0.8202 0.5079 -0.2634
vn 0.4555 0.4904 -0.7430
vn -0.5821 -0.0562 -0.8112
vn -0.0961 0.2685 -0.9585
vn -0.8908 0.1202 -0.4381
vn -0.7258 0.6854 0.0587
vn -0.5135 -0.5288 -0.6757
vn 0.1260 -0.8432 -0.5226
vn -0.7911 -0.5688 0.2250
vn -0.8555 -0.3856 -0.3457
vn -0.7742 -0.2120 0.5964
vn -0.6766 0.5454 0.4947
vn -0.3996 -0.8533 0.3349
vn 0.1740 -0.9800 -0.0966
vn 0.1173 -0.3390 0.9335
vn -0.4085 -0.5505 0.7281
vn 0.1791 0.1715 0.9688
vn -0.2750 0.7070 0.6516
vn 0.5317 -0.4788 0.6987
vn 0.5666 -0.8221 0.0567
vn 0.8877 0.3157 0.3352
vn 0.6271 0.0017 0.7789
vn 0.6515 0.7406 0.1643
vn -0.0758 0.9469 0.3126
vn 0.9932 0.0773 -0.0872
vn 0.7610 -0.5877 -0.2746
vn -0.4582 0.8300 0.3182
vn 0.1859 0.4066 -0.8945
vn 0.8968 0.4407 0.0404
vn 0.4582 -0.8300 -0.3182
vn -0.7614 -0.2264 -0.6074
vn -0.6360 -0.5836 0.5049
vn 0.3888 -0.1713 0.9053
vn 0.6663 -0.5743 -0.4756
vn 0.5017 0.0731 -0.8620
vn 0.9138 0.1729 -0.3676
vn 0.0415 0.9941 -0.1002
vn 0.6813 0.7208 -0.1275
vn 0.3495 0.6712 -0.6538
vn 0.6666 -0.7366 0.1143
vn 0.9896 -0.0362 0.1389
vn 0.6914 -0.1955 0.6955
vn 0.1505 0.8791 0.4523
vn 0.4049 0.3601 0.8405
vn 0.7650 0.5333 0.3610
vn 0.1139 -0.9619 0.2486
vn 0.2423 -0.4840 0.8408
vn -0.3919 -0.5715 0.7210
vn -0.3247 0.6535 0.6837
vn -0.6103 0.0278 0.7917
vn -0.0237 0.0899 0.9957
vn -0.2280 -0.9388 -0.2582
vn -0.7076 -0.6514 0.2738
vn -0.8390 -0.4354 -0.3264
vn -0.7273 0.6291 0.2743
vn -0.9612 0.1830 -0.2063
vn -0.9266 -0.0462 0.3731
vn 0.1134 -0.6992 -0.7058
vn -0.5472 -0.3071 -0.7786
vn -0.0320 0.0247 -0.9992
vn -0.5009 0.8396 -0.2101
vn -0.1629 0.6113 -0.7744
vn -0.6960 0.3130 -0.6463
vn 0.9948 -0.0127 -0.1012
vn 0.6600 -0.7128 -0.2374
vn 0.7130 0.6943 0.0976
vn 0.0695 0.9712 0.2279
vn 0.4623 0.4438 -0.7676
vn 0.8430 0.4453 -0.3019
vn 0.6155 0.0685 0.7851
vn 0.9033 0.2975 0.3092
vn 0.4674 -0.4324 0.7710
vn 0.4379 -0.8896 0.1300
vn 0.2075 0.2920 0.9336
vn -0.1435 0.8016 0.5803
vn -0.4922 -0.3160 0.8111
vn 0.0663 -0.1730 0.9827
vn -0.5560 -0.6945 0.4566
vn 0.0067 -1.0000 -0.0024
vn -0.7737 0.0407 0.6323
vn -0.5572 0.6957 0.4533
vn -0.9493 -0.1768 -0.2599
vn -0.8919 -0.3175 0.3221
vn -0.6613 -0.4367 -0.6099
vn -0.0376 -0.8914 -0.4517
vn -0.8745 0.2879 -0.3902
vn -0.5998 0.7999 0.0222
vn -0.1242 0.2937 -0.9478
vn -0.6471 0.0637 -0.7597
vn 0.2972 -0.0153 -0.9547
vn 0.3661 -0.7139 -0.5969
vn 0.0442 0.6918 -0.7207
vn -0.2120 0.9702 -0.1169
vn 0.3120 -0.9160 -0.2522
vn 0.9255 0.3788 0.0003
vn 0.1828 0.3760 -0.9084
vn -0.3120 0.9160 0.2522
vn 0.3640 -0.0681 0.9289
vn -0.7256 -0.3471 0.5942
vn -0.8377 -0.0726 -0.5414
vn -0.0362 0.9953 0.0901
vn -0.0784 0.7730 -0.6296
vn -0.6356 0.7076 -0.3087
vn -0.4931 -0.4483 -0.7456
vn -0.8387 0.1355 -0.5275
vn -0.3455 0.2476 -0.9051
vn -0.1830 0.7584 0.6255
vn -0.7845 0.5855 0.2045
vn -0.6929 0.1790 0.6985
vn -0.7385 -0.6271 -0.2478
vn -0.8212 -0.3881 0.4184
vn -0.9994 0.0181 -0.0306
vn 0.2981 0.4607 0.8360
vn -0.2612 -0.0288 0.9649
vn 0.3156 -0.3121 0.8961
vn -0.3428 -0.9383 0.0466
vn 0.1597 -0.8268 0.5394
vn -0.4097 -0.5987 0.6883
vn 0.7422 0.5135 0.4306
vn 0.7683 -0.2209 0.6007
vn 0.9962 -0.0869 0.0110
vn 0.1471 -0.9517 -0.2693
vn 0.7484 -0.5744 -0.3317
vn 0.6085 -0.7504 0.2580
vn 0.5356 0.8439 -0.0304
vn 0.8813 0.2746 -0.3847
vn 0.4083 0.5433 -0.7336
vn 0.0543 -0.6489 -0.7589
vn 0.1314 0.0203 -0.9911
vn 0.6482 -0.2274 -0.7267
vn -0.7090 0.7051 0.0127
vn -0.0569 0.9338 0.3532
vn -0.9389 0.0406 -0.3419
vn -0.6321 -0.6051 -0.4841
vn -0.2710 0.5050 -0.8195
vn -0.7484 0.4855 -0.4519
vn -0.8074 -0.0597 0.5869
vn -0.9594 0.2634 0.1013
vn -0.4336 0.1193 0.8932
vn 0.0592 0.6870 0.7243
vn -0.6699 -0.5316 0.5183
vn -0.5187 -0.8463 -0.1215
vn 0.2327 -0.5662 0.7907
vn -0.3386 -0.3860 0.8581
vn 0.6021 -0.2074 0.7710
vn 0.4956 0.5493 0.6728
vn 0.3420 -0.8508 0.3990
vn -0.0922 -0.9808 -0.1718
vn 0.9346 -0.3340 -0.1221
vn 0.7335 -0.5457 0.4052
vn 0.9668 0.1765 -0.1850
vn 0.6492 0.7111 0.2699
vn 0.6982 -0.4758 -0.5350
vn 0.0579 -0.8227 -0.5655
vn 0.3283 0.3160 -0.8902
vn 0.7752 0.0049 -0.6316
vn 0.1564 0.7404 -0.6537
vn 0.3078 0.9487 0.0724
vn -0.0934 0.0751 -0.9928
vn -0.2757 -0.5905 -0.7585
vn 0.3163 0.8325 0.4549
vn -0.8978 0.4013 -0.1813
vn 0.0327 0.4393 -0.8977
vn -0.3162 -0.8325 -0.4549
vn -0.6017 -0.2284 0.7654
vn 0.5118 -0.5797 0.6340
vn 0.9039 -0.1670 -0.3938
vn -0.4647 -0.5771 -0.6715
vn -0.8655 0.0589 -0.4974
vn -0.3754 0.1755 -0.9101
vn -0.1238 0.9919 -0.0289
vn -0.1473 0.7259 -0.6718
vn -0.6709 0.6598 -0.3386
vn 0.1288 -0.7254 -0.6761
vn 0.1356 -0.0207 -0.9906
vn 0.6971 -0.1705 -0.6964
vn 0.4308 0.8913 -0.1413
vn 0.8300 0.3849 -0.4037
vn 0.3451 0.5511 -0.7597
vn 0.2708 -0.9543 -0.1268
vn 0.8510 -0.4610 -0.2515
vn 0.7359 -0.5590 0.3819
vn 0.6695 0.6654 0.3301
vn 0.7934 0.0390 0.6075
vn 0.9934 0.1132 0.0209
vn -0.2350 -0.9474 0.2174
vn 0.2921 -0.6534 0.6984
vn -0.3125 -0.4533 0.8348
vn 0.2624 0.6264 0.7340
vn -0.2066 0.1662 0.9642
vn 0.3780 -0.0488 0.9245
vn -0.6896 -0.7143 -0.1193
vn -0.7688 -0.3322 0.5464
vn -0.9993 0.0006 0.0362
vn -0.2278 0.8281 0.5121
vn -0.7880 0.5908 0.1735
vn -0.6505 0.2890 0.7023
vn -0.1051 -0.0028 -0.9945
vn -0.2233 -0.7100 -0.6679
vn 0.0781 0.7052 -0.7047
vn 0.2046 0.9771 -0.0582
vn -0.7798 0.4312 -0.4538
vn -0.3159 0.4483 -0.8362
vn 0.7807 0.0946 -0.6177
vn 0.2983 0.3159 -0.9007
vn 0.7791 -0.4083 -0.4758
vn 0.1492 -0.8808 -0.4494
vn 0.9256 0.3165 -0.2075
vn 0.5618 0.8134 0.1513
vn 0.8204 -0.3027 0.4850
vn 0.9862 -0.1488 -0.0723
vn 0.4752 -0.6903 0.5456
vn 0.0212 -0.9996 -0.0191
vn 0.6343 0.0462 0.7717
vn 0.4391 0.6993 0.5640
vn -0.2516 -0.1946 0.9481
vn 0.3332 -0.3207 0.8866
vn -0.5967 -0.4591 0.6582
vn -0.4303 -0.9022 0.0283
vn -0.3932 0.2678 0.8796
vn 0.0061 0.7928 0.6095
vn -0.9540 0.2696 0.1315
vn -0.7583 0.0377 0.6508
vn -0.9553 -0.0342 -0.2936
vn -0.5814 -0.7232 -0.3727
vn -0.7370 0.6751 -0.0328
vn -0.1389 0.9644 0.2250
vn -0.2318 -0.9178 -0.3224
vn -0.0126 0.3901 -0.9207
vn -0.9178 0.3567 -0.1745
vn 0.2318 0.9178 0.3224
vn 0.9287 -0.0416 -0.3685
vn 0.6052 -0.3418 0.7189
vn -0.5360 -0.0957 0.8388
vn 0.0186 0.9991 -0.0377
vn -0.6753 0.7188 0.1652
vn -0.2257 0.7440 0.6289
vn -0.6913 -0.4621 0.5555
vn -0.5732 0.2180 0.7899
vn -0.9469 0.1462 0.2864
vn 0.5308 0.8172 0.2247
vn 0.2070 0.4884 0.8477
vn 0.7496 0.2167 0.6255
vn -0.1746 -0.6870 0.7054
vn 0.4173 -0.2907 0.8610
vn -0.1449 -0.0338 0.9889
vn 0.8463 0.5009 -0.1813
vn 0.9581 -0.1298 0.2554
vn 0.8969 -0.2248 -0.3809
vn 0.0402 -0.9693 0.2426
vn 0.6341 -0.7629 -0.1264
vn 0.6119 -0.6221 0.4884
vn 0.5290 0.4874 -0.6946
vn 0.5401 -0.2815 -0.7931
vn 0.0126 0.0298 -0.9995
vn -0.3437 -0.9189 -0.1933
vn -0.2224 -0.5459 -0.8078
vn 0.2776 -0.8056 -0.5233
vn 0.0175 0.7953 -0.6059
vn -0.4694 0.2431 -0.8489
vn -0.6812 0.6285 -0.3754
vn -0.7958 -0.6055 -0.0000
vn -0.9685 0.0603 -0.2415
vn -0.6858 -0.3308 -0.6482
vn -0.0075 0.7001 0.7140
vn -0.0000 1.0000 -0.0000
vn 0.8837 0.1247 0.4512
vn 0.7185 0.6943 -0.0407
vn -0.1640 -0.9830 0.0821
vn -0.6170 0.0044 -0.7870
vn -0.0000 -1.0000 -0.0000
vn 0.4527 0.8391 -0.3018
vn -1.0000 -0.0000 -0.0000
vn -0.4526 -0.8391 0.3018
vn 1.0000 -0.0000 -0.0000
vn -0.6144 -0.5722 0.5432
vn -0.5617 0.1748 0.8087
vn -0.9519 0.0764 0.2966
vn -0.1035 0.9945 0.0183
vn -0.7129 0.6736 0.1948
vn -0.2738 0.7216 0.6358
vn -0.7157 -0.6968 -0.0471
vn -0.9667 0.0281 -0.2543
vn -0.6379 -0.3048 -0.7073
vn -0.0902 0.8400 -0.5351
vn -0.4735 0.3147 -0.8226
vn -0.7164 0.6139 -0.3316
vn -0.2040 -0.9381 -0.2801
vn -0.1324 -0.4348 -0.8907
vn 0.4226 -0.6528 -0.6287
vn 0.4319 0.6277 -0.6477
vn 0.5704 -0.0481 -0.8199
vn 0.0141 0.1831 -0.9830
vn 0.2136 -0.9626 0.1664
vn 0.7883 -0.5742 -0.2211
vn 0.7638 -0.4868 0.4238
vn 0.7412 0.6510 -0.1638
vn 0.9761 0.0865 0.1992
vn 0.9080 0.0247 -0.4182
vn -0.0399 -0.7366 0.6752
vn 0.5230 -0.1974 0.8292
vn -0.0856 -0.0361 0.9957
vn 0.4103 0.8777 0.2478
vn 0.1830 0.5326 0.8264
vn 0.7301 0.3575 0.5823
vn -0.6660 -0.7116 0.2236
vn -0.0632 0.9704 -0.2331
vn 0.1588 0.7993 -0.5795
vn -0.9923 -0.1240 -0.0000
vn 0.5687 0.6938 -0.4418
vn 0.8994 -0.3190 -0.2987
vn 0.0258 -0.8897 0.4557
vn 0.6009 0.7993 -0.0104
vn 0.6281 0.0662 0.7753
vn 0.2100 0.9705 0.1186
vn -0.3187 -0.9149 0.2477
vn -0.0000 -0.3630 -0.9318
vn 0.3186 0.9150 -0.2477
vn -0.0000 0.2666 0.9638
vn -0.9874 0.1584 -0.0000
vn -0.0505 0.9972 0.0545
vn 0.1674 0.6704 0.7229
vn 0.6231 0.7343 0.2693
vn 0.5726 -0.5033 0.6472
vn 0.7965 0.1868 0.5751
vn 0.3002 0.0812 0.9504
vn 0.2057 0.8564 -0.4736
vn 0.8380 0.5137 -0.1842
vn 0.6102 0.2788 -0.7415
vn 0.7167 -0.6881 0.1133
vn 0.8576 -0.2480 -0.4507
vn 0.9915 -0.0307 0.1266
vn -0.2015 0.5583 -0.8048
vn 0.2411 -0.0567 -0.9688
vn -0.3928 -0.1645 -0.9048
vn 0.2540 -0.9604 -0.1142
vn -0.1273 -0.7167 -0.6857
vn 0.4860 -0.5695 -0.6630
vn -0.7094 0.5149 -0.4814
vn -0.7984 -0.2525 -0.5466
vn -0.9998 0.0169 0.0052
vn -0.1761 -0.9440 0.2792
vn -0.7971 -0.5715 0.1948
vn -0.5178 -0.7905 -0.3271
vn -0.6160 0.7862 0.0497
vn -0.8440 0.1968 0.4990
vn -0.3720 0.5724 0.7308
vn 0.0208 -0.6614 0.7497
vn -0.2262 -0.0132 0.9740
vn -0.6326 -0.3884 0.6701
vn 0.9379 0.0172 0.3465
vn -0.0613 0.7438 -0.6656
vn 0.9992 0.0390 -0.0000
vn 0.5231 -0.8506 0.0529
vn -0.0000 0.7071 0.7071
vn 0.0970 -0.9911 0.0909
vn -0.7297 -0.5144 -0.4505
vn -0.6525 0.7275 -0.2124
vn -0.3320 0.2401 0.9122
vn -0.1619 0.6834 0.7119
vn 0.2773 -0.6494 0.7081
vn -0.3197 0.8654 -0.3859
vn 0.3197 -0.8654 0.3859
vn -0.9765 0.2156 -0.0000
vn -0.8012 0.5984 -0.0000
vn 0.5262 -0.5604 0.6396
vn 0.7919 0.1862 0.5816
vn 0.2689 0.0935 0.9586
vn 0.0137 0.9961 0.0867
vn 0.1731 0.6863 0.7065
vn 0.6264 0.7276 0.2795
vn -0.0667 -0.6844 0.7261
vn -0.2821 0.0442 0.9584
vn -0.7249 -0.2952 0.6224
vn -0.5388 0.8403 0.0601
vn -0.8365 0.3211 0.4441
vn -0.3531 0.6255 0.6958
vn -0.2843 -0.9350 0.2121
vn -0.8935 -0.4344 0.1142
vn -0.6152 -0.6614 -0.4291
vn -0.6359 0.6187 -0.4612
vn -0.8031 -0.0597 -0.5929
vn -0.9825 0.1807 -0.0456
vn 0.1740 -0.9658 -0.1920
vn -0.1974 -0.5882 -0.7843
vn 0.4465 -0.4990 -0.7428
vn -0.1434 0.6377 -0.7568
vn 0.2271 0.0701 -0.9713
vn -0.3918 0.0081 -0.9200
vn 0.6750 -0.7343 0.0722
vn 0.8442 -0.2047 -0.4954
vn 0.9928 -0.0324 0.1149
vn 0.2580 0.8710 -0.4182
vn 0.8304 0.5311 -0.1683
vn 0.6026 0.3461 -0.7191
vn -0.2363 0.9709 0.0396
vn -0.3587 0.3115 0.8799
vn -0.1487 -0.8825 0.4462
vn 0.0072 -0.9997 0.0248
vn -0.0000 -0.0312 0.9995
vn -0.4264 0.6830 -0.5931
vn 0.0056 0.7890 -0.6143
vn 0.1229 0.9669 -0.2234
vn -0.2400 0.9087 -0.3415
vn 0.9876 0.1567 -0.0000
vn -0.0000 0.3503 0.9366
vn -0.0294 0.9983 0.0505
vn 0.6648 0.7286 -0.1648
vn 0.2091 0.7544 -0.6223
vn 0.6892 -0.4472 -0.5701
vn 0.5603 0.2344 -0.7944
vn 0.9414 0.1606 -0.2967
vn -0.5429 0.8137 -0.2075
vn -0.2236 0.4965 -0.8387
vn -0.7601 0.2158 -0.6130
vn 0.1731 -0.6761 -0.7162
vn -0.4252 -0.2848 -0.8591
vn 0.1323 -0.0198 -0.9910
vn -0.8495 0.4889 0.1985
vn -0.9598 -0.1376 -0.2446
vn -0.8892 -0.2398 0.3896
vn -0.0324 -0.9666 -0.2543
vn -0.6237 -0.7716 0.1250
vn -0.6111 -0.6230 -0.4883
vn -0.5254 0.4726 0.7075
vn -0.5265 -0.2975 0.7964
vn 0.0001 0.0172 0.9999
vn 0.3566 -0.9173 0.1773
vn 0.2391 -0.5533 0.7979
vn -0.2615 -0.8153 0.5167
vn -0.0185 0.7875 0.6161
vn 0.4776 0.2378 0.8458
vn 0.6789 0.6316 0.3745
vn 0.8026 -0.5963 -0.0179
vn 0.9708 0.0685 0.2297
vn 0.6979 -0.3310 0.6351
vn 0.1259 -0.8432 -0.5226
vn -0.0000 0.7071 -0.7071
vn 0.1172 -0.3390 0.9335
vn 0.5665 -0.8221 0.0567
vn 0.6271 0.0017 0.7790
vn -0.0759 0.9469 0.3126
vn 0.7611 -0.5877 -0.2745
vn -0.0000 0.5803 -0.8144
vn 0.6005 -0.5745 -0.5562
vn 0.5415 0.1715 -0.8230
vn 0.9443 0.0748 -0.3204
vn 0.1034 0.9943 -0.0245
vn 0.7082 0.6725 -0.2149
vn 0.2583 0.7192 -0.6450
vn 0.7164 -0.6970 0.0319
vn 0.9727 0.0285 0.2301
vn 0.6551 -0.3026 0.6924
vn 0.1038 0.8419 0.5296
vn 0.4939 0.3175 0.8095
vn 0.7246 0.6147 0.3115
vn 0.2105 -0.9371 0.2783
vn 0.1542 -0.4317 0.8888
vn -0.4071 -0.6503 0.6413
vn -0.4155 0.6303 0.6559
vn -0.5499 -0.0448 0.8340
vn 0.0104 0.1867 0.9824
vn -0.2181 -0.9631 -0.1575
vn -0.7828 -0.5730 0.2427
vn -0.7744 -0.4879 -0.4030
vn -0.7367 0.6519 0.1798
vn -0.9807 0.0863 -0.1753
vn -0.8974 0.0267 0.4404
vn 0.0229 -0.7390 -0.6733
vn -0.5435 -0.2002 -0.8152
vn 0.0609 -0.0397 -0.9974
vn -0.4159 0.8770 -0.2407
vn -0.2032 0.5297 -0.8235
vn -0.7442 0.3558 -0.5654
vn 0.6600 -0.7127 -0.2374
vn 0.0693 0.9712 0.2281
vn 0.8430 0.4453 -0.3020
vn -0.0000 -0.0000 -1.0000
vn -0.1437 0.8016 0.5803
vn 0.0068 -1.0000 -0.0024
vn -0.5572 0.6957 0.4534
vn -0.5997 0.7999 0.0224
vn -0.0000 -0.4472 0.8944
vn -0.2124 0.9702 -0.1169
vn 0.0452 0.9986 0.0274
vn -0.1727 0.7265 -0.6651
vn -0.6276 0.7506 -0.2067
vn -0.5717 -0.4515 -0.6851
vn -0.7990 0.2291 -0.5560
vn -0.3031 0.1574 -0.9399
vn -0.2089 0.8135 0.5428
vn -0.8401 0.4923 0.2276
vn -0.6097 0.2137 0.7633
vn -0.7135 -0.6803 -0.1678
vn -0.8551 -0.2888 0.4307
vn -0.9916 -0.0255 -0.1265
vn 0.2008 0.4914 0.8475
vn -0.2383 -0.1374 0.9614
vn 0.3961 -0.2361 0.8873
vn -0.2488 -0.9679 0.0355
vn 0.1329 -0.7698 0.6243
vn -0.4813 -0.6246 0.6150
vn 0.7079 0.4774 0.5205
vn 0.8011 -0.2922 0.5223
vn 0.9997 0.0227 -0.0059
vn 0.1802 -0.9169 -0.3561
vn 0.7996 -0.5493 -0.2428
vn 0.5227 -0.8119 0.2599
vn 0.6118 0.7909 0.0136
vn 0.8416 0.2417 -0.4830
vn 0.3670 0.6325 -0.6821
vn -0.0194 -0.5977 -0.8015
vn 0.2237 0.0681 -0.9723
vn 0.6328 -0.3287 -0.7011
vn -0.0923 -0.9808 -0.1718
vn 0.7753 0.0049 -0.6316
vn 0.3162 0.8325 0.4549
vn 0.7340 0.6792 -0.0000
vn -0.0000 0.7665 -0.6423
vn -0.5450 -0.5801 -0.6054
vn -0.8291 0.1587 -0.5361
vn -0.3260 0.0788 -0.9421
vn -0.0484 0.9947 -0.0910
vn -0.2337 0.6759 -0.6989
vn -0.6629 0.7068 -0.2469
vn 0.0454 -0.6871 -0.7251
vn 0.2253 0.0459 -0.9732
vn 0.6965 -0.2780 -0.6615
vn 0.5091 0.8554 -0.0953
vn 0.7997 0.3426 -0.4931
vn 0.2939 0.6308 -0.7182
vn 0.2995 -0.9276 -0.2232
vn 0.8981 -0.4086 -0.1631
vn 0.6582 -0.6399 0.3965
vn 0.6425 0.6404 0.4207
vn 0.8371 -0.0318 0.5461
vn 0.9776 0.2100 -0.0119
vn -0.1338 -0.9692 0.2067
vn 0.2595 -0.5767 0.7747
vn -0.3881 -0.5068 0.7698
vn 0.1674 0.6469 0.7440
vn -0.1731 0.0701 0.9824
vn 0.4434 0.0260 0.8959
vn -0.6558 -0.7544 -0.0294
vn -0.8080 -0.2261 0.5441
vn -0.9964 -0.0626 -0.0575
vn -0.2596 0.8658 0.4277
vn -0.8349 0.5075 0.2129
vn -0.5705 0.3331 0.7507
vn -0.1050 -0.0028 -0.9945
vn 0.5619 0.8133 0.1513
vn -0.9985 -0.0546 -0.0000
vn -0.4304 -0.9022 0.0283
vn 0.0059 0.7927 0.6095
vn -0.7583 0.0377 0.6509
vn -0.1390 0.9644 0.2250
vn 0.2319 0.9178 0.3223
vn 0.2317 0.9178 0.3224
vn -0.8264 0.1913 -0.5296
vt 0.181819 0.000000
vt 0.227273 0.078731
vt 0.136365 0.078731
vt 0.272728 0.157461
vt 0.318182 0.078731
vt 0.363637 0.157461
vt 0.909091 0.000000
vt 0.954545 0.078731
vt 0.863636 0.078731
vt 0.727273 0.000000
vt 0.772727 0.078731
vt 0.681818 0.078731
vt 0.545455 0.000000
vt 0.590909 0.078731
vt 0.500000 0.078731
vt 0.318182 0.236191
vt 0.090910 0.157461
vt 0.181819 0.157461
vt 0.136365 0.236191
vt 0.818182 0.157461
vt 0.909091 0.157461
vt 0.863636 0.236191
vt 0.636364 0.157461
vt 0.727273 0.157461
vt 0.681818 0.236191
vt 0.454546 0.157461
vt 0.545455 0.157461
vt 0.500000 0.236191
vt 0.227273 0.236191
vt 0.045455 0.236191
vt 0.772727 0.236191
vt 0.590909 0.236191
vt 0.409092 0.236191
vt 0.181819 0.314921
vt 0.272728 0.314921
vt 0.227273 0.393651
vt 0.000000 0.314921
vt 0.090910 0.314921
vt 0.045455 0.393651
vt 0.727273 0.314921
vt 0.818182 0.314921
vt 0.772727 0.393651
vt 0.545455 0.314921
vt 0.636364 0.314921
vt 0.590909 0.393651
vt 0.363637 0.314921
vt 0.454546 0.314921
vt 0.409092 0.393651
vt 0.500000 0.393651
vt 0.454546 0.472382
vt 0.681818 0.393651
vt 0.636364 0.472382
vt 0.863636 0.393651
vt 0.818182 0.472382
vt 0.909091 0.314921
vt 0.136365 0.393651
vt 0.090910 0.472382
vt 0.318182 0.393651
vt 0.272728 0.472382
vt 0.954545 0.236191
vt 1.000000 0.157461
vt 0.409092 0.078731
vt 0.363637 0.000000
vt 0.750000 0.359094
vt 0.723481 0.470733
vt 0.830050 0.431840
vt 0.076578 0.533022
vt 0.000000 0.514628
vt 0.070141 0.500000
vt 0.923422 0.533022
vt 0.976764 0.500000
vt 1.000000 0.533459
vt 0.250000 0.311491
vt 0.283845 0.465410
vt 0.142446 0.411858
vt 0.900000 0.966978
vt 1.000000 0.986715
vt 0.905760 1.000000
vt 0.100000 0.966978
vt 0.029656 1.000000
vt 0.000000 0.967415
vt 0.853754 0.283712
vt 0.951735 0.343431
vt 0.947677 0.230060
vt 0.876578 0.533022
vt 0.788382 0.507314
vt 0.870141 0.500000
vt 0.723422 0.533022
vt 0.800000 0.533459
vt 0.308482 0.269002
vt 0.465326 0.284377
vt 0.370700 0.402306
vt 0.700000 0.966978
vt 0.814828 0.993357
vt 0.705760 1.000000
vt 0.900000 0.966978
vt 0.800000 0.967415
vt 0.814124 0.161741
vt 0.901198 0.087011
vt 0.792121 0.055836
vt 0.676578 0.533022
vt 0.588382 0.507314
vt 0.670141 0.500000
vt 0.523422 0.533022
vt 0.600000 0.533459
vt 0.286144 0.200253
vt 0.349233 0.055836
vt 0.432150 0.182273
vt 0.500000 0.966978
vt 0.614828 0.993357
vt 0.505760 1.000000
vt 0.600000 0.967415
vt 0.685876 0.161741
vt 0.641711 0.055836
vt 0.578355 0.149940
vt 0.476578 0.533022
vt 0.388382 0.507314
vt 0.470141 0.500000
vt 0.323422 0.533022
vt 0.400000 0.533459
vt 0.213856 0.200253
vt 0.096004 0.095623
vt 0.241875 0.055836
vt 0.300000 0.966978
vt 0.414828 0.993357
vt 0.305760 1.000000
vt 0.400000 0.967415
vt 0.646246 0.283712
vt 0.531876 0.292989
vt 0.601796 0.382324
vt 0.276578 0.533022
vt 0.188382 0.507314
vt 0.270141 0.500000
vt 0.123422 0.533022
vt 0.200000 0.533459
vt 0.191518 0.269002
vt 0.055592 0.348754
vt 0.062828 0.197727
vt 0.100000 0.966978
vt 0.214828 0.993357
vt 0.105760 1.000000
vt 0.300000 0.966978
vt 0.200000 0.967415
vt 0.929859 0.500000
vt 0.898204 0.382324
vt 0.894240 1.000000
vt 0.000000 0.533459
vt 1.000000 0.967415
vt 0.729859 0.500000
vt 0.694240 1.000000
vt 0.529859 0.500000
vt 0.494240 1.000000
vt 0.329859 0.500000
vt 0.552323 0.230060
vt 0.294240 1.000000
vt 0.067850 0.182273
vt 0.129859 0.500000
vt 0.669950 0.431840
vt 0.094240 1.000000
vt 0.750000 0.399042
vt 0.731092 0.476263
vt 0.805972 0.449334
vt 0.053805 0.522105
vt 0.000000 0.510154
vt 0.049044 0.500000
vt 0.946195 0.522105
vt 0.983433 0.500000
vt 1.000000 0.522634
vt 0.250000 0.308084
vt 0.283550 0.465624
vt 0.141012 0.410815
vt 0.900000 0.977895
vt 1.000000 0.991468
vt 0.904502 1.000000
vt 0.100000 0.977895
vt 0.029397 1.000000
vt 0.000000 0.978423
vt 0.891748 0.296057
vt 0.959346 0.337901
vt 0.956874 0.258365
vt 0.853805 0.522105
vt 0.791716 0.505077
vt 0.849044 0.500000
vt 0.746195 0.522105
vt 0.800000 0.522634
vt 0.305241 0.267949
vt 0.465439 0.284724
vt 0.369265 0.403349
vt 0.700000 0.977895
vt 0.814699 0.995734
vt 0.704502 1.000000
vt 0.800000 0.978423
vt 0.837605 0.129422
vt 0.898291 0.078063
vt 0.821883 0.055836
vt 0.653805 0.522105
vt 0.591716 0.505077
vt 0.649044 0.500000
vt 0.546195 0.522105
vt 0.600000 0.522634
vt 0.284141 0.203009
vt 0.349598 0.055836
vt 0.432698 0.183960
vt 0.500000 0.977895
vt 0.614699 0.995734
vt 0.504502 1.000000
vt 0.700000 0.977895
vt 0.600000 0.978423
vt 0.662395 0.129422
vt 0.632303 0.055836
vt 0.587552 0.121635
vt 0.453805 0.522105
vt 0.391716 0.505077
vt 0.449044 0.500000
vt 0.346195 0.522105
vt 0.400000 0.522634
vt 0.215859 0.203009
vt 0.096117 0.095276
vt 0.243649 0.055836
vt 0.300000 0.977895
vt 0.414699 0.995734
vt 0.304502 1.000000
vt 0.500000 0.977895
vt 0.400000 0.978423
vt 0.608253 0.296057
vt 0.528968 0.301937
vt 0.577718 0.364830
vt 0.253805 0.522105
vt 0.191716 0.505077
vt 0.249044 0.500000
vt 0.146195 0.522105
vt 0.200000 0.522634
vt 0.194759 0.267949
vt 0.055297 0.348540
vt 0.063376 0.196040
vt 0.100000 0.977895
vt 0.214699 0.995734
vt 0.104502 1.000000
vt 0.300000 0.977895
vt 0.200000 0.978423
vt 0.950956 0.500000
vt 0.922282 0.364830
vt 0.895498 1.000000
vt 0.358988 0.410815
vt 0.000000 0.522634
vt 1.000000 0.978423
vt 0.750956 0.500000
vt 0.912448 0.121635
vt 0.695498 1.000000
vt 0.550956 0.500000
vt 0.678117 0.055836
vt 0.495498 1.000000
vt 0.256351 0.055836
vt 0.350956 0.500000
vt 0.543126 0.258365
vt 0.295498 1.000000
vt 0.150956 0.500000
vt 0.694028 0.449334
vt 0.095498 1.000000
vt 0.130735 0.403349
vt 0.923422 0.533022
vt 0.853754 0.283712
vt 0.723422 0.533022
vt 0.308482 0.269002
vt 0.814124 0.161741
vt 0.685876 0.161741
vt 0.323422 0.533022
vt 0.123422 0.533022
vt 0.707879 0.055836
vt 0.129300 0.402306
vt 0.053805 0.522105
vt 0.746195 0.522105
vt 0.546195 0.522105
vt 0.700000 0.977895
vt 0.662395 0.129422
vt 0.215859 0.203009
vt 0.300000 0.977895
vt 0.067302 0.183960
vt 0.750000 0.359094
vt 0.723422 0.533022
vt 0.300000 0.966978
vt 0.258125 0.055836
vt 0.305241 0.267949
vt 0.546195 0.522105
vt 0.662395 0.129422
vt 0.436624 0.196040
vt 0.685876 0.161741
vt 0.100000 0.966978
vt 0.357553 0.411858
vt 0.437172 0.197727
vt 0.700000 0.977895
vt 0.837605 0.129422
vt 0.500000 0.977895
vt 0.921645 0.149940
s 0
usemtl core
f 1/1/1 14/2/1 13/3/1
f 2/4/2 14/5/2 16/6/2
f 1/7/3 13/8/3 18/9/3
f 1/10/4 18/11/4 20/12/4
f 1/13/5 20/14/5 17/15/5
f 2/4/6 16/6/6 23/16/6
f 3/17/7 15/18/7 25/19/7
f 4/20/8 19/21/8 27/22/8
f 5/23/9 21/24/9 29/25/9
f 6/26/10 22/27/10 31/28/10
f 2/4/11 23/16/11 26/29/11
f 3/17/12 25/19/12 28/30/12
f 4/20/13 27/22/13 30/31/13
f 5/23/14 29/25/14 32/32/14
f 6/26/15 31/28/15 24/33/15
f 7/34/16 33/35/16 38/36/16
f 8/37/17 34/38/17 40/39/17
f 9/40/18 35/41/18 41/42/18
f 10/43/19 36/44/19 42/45/19
f 11/46/20 37/47/20 39/48/20
f 39/48/21 42/49/21 12/50/21
f 39/48/22 37/47/22 42/49/22
f 37/47/23 10/43/23 42/49/23
f 42/45/24 41/51/24 12/52/24
f 42/45/25 36/44/25 41/51/25
f 36/44/26 9/40/26 41/51/26
f 41/42/27 40/53/27 12/54/27
f 41/42/28 35/41/28 40/53/28
f 35/41/29 8/55/29 40/53/29
f 40/39/30 38/56/30 12/57/30
f 40/39/31 34/38/31 38/56/31
f 34/38/32 7/34/32 38/56/32
f 38/36/33 39/58/33 12/59/33
f 38/36/34 33/35/34 39/58/34
f 33/35/35 11/46/35 39/58/35
f 24/33/36 37/47/36 11/46/36
f 24/33/37 31/28/37 37/47/37
f 31/28/38 10/43/38 37/47/38
f 32/32/39 36/44/39 10/43/39
f 32/32/40 29/25/40 36/44/40
f 29/25/41 9/40/41 36/44/41
f 30/31/42 35/41/42 9/40/42
f 30/31/43 27/22/43 35/41/43
f 27/22/44 8/55/44 35/41/44
f 28/30/45 34/38/45 8/37/45
f 28/30/46 25/19/46 34/38/46
f 25/19/47 7/34/47 34/38/47
f 26/29/48 33/35/48 7/34/48
f 26/29/49 23/16/49 33/35/49
f 23/16/50 11/46/50 33/35/50
f 31/28/51 32/32/51 10/43/51
f 31/28/52 22/27/52 32/32/52
f 22/27/53 5/23/53 32/32/53
f 29/25/54 30/31/54 9/40/54
f 29/25/55 21/24/55 30/31/55
f 21/24/56 4/20/56 30/31/56
f 27/22/57 28/60/57 8/55/57
f 27/22/58 19/21/58 28/60/58
f 19/21/59 3/61/59 28/60/59
f 25/19/60 26/29/60 7/34/60
f 25/19/61 15/18/61 26/29/61
f 15/18/62 2/4/62 26/29/62
f 23/16/63 24/33/63 11/46/63
f 23/16/64 16/6/64 24/33/64
f 16/6/65 6/26/65 24/33/65
f 17/15/66 22/27/66 6/26/66
f 17/15/67 20/14/67 22/27/67
f 20/14/68 5/23/68 22/27/68
f 20/12/69 21/24/69 5/23/69
f 20/12/70 18/11/70 21/24/70
f 18/11/71 4/20/71 21/24/71
f 18/9/72 19/21/72 4/20/72
f 18/9/73 13/8/73 19/21/73
f 13/8/74 3/61/74 19/21/74
f 16/6/75 17/62/75 6/26/75
f 16/6/76 14/5/76 17/62/76
f 14/5/77 1/63/77 17/62/77
f 13/3/78 15/18/78 3/17/78
f 13/3/79 14/2/79 15/18/79
f 14/2/80 2/4/80 15/18/80
f 43/1/81 56/2/81 55/3/81
f 44/4/82 56/5/82 58/6/82
f 43/7/83 55/8/83 60/9/83
f 43/10/84 60/11/84 62/12/84
f 43/13/85 62/14/85 59/15/85
f 44/4/86 58/6/86 65/16/86
f 45/17/87 57/18/87 67/19/87
f 46/20/88 61/21/88 69/22/88
f 47/23/89 63/24/89 71/25/89
f 48/26/90 64/27/90 73/28/90
f 44/4/91 65/16/91 68/29/91
f 45/17/92 67/19/92 70/30/92
f 46/20/93 69/22/93 72/31/93
f 47/23/94 71/25/94 74/32/94
f 48/26/95 73/28/95 66/33/95
f 49/34/96 75/35/96 80/36/96
f 50/37/97 76/38/97 82/39/97
f 51/40/98 77/41/98 83/42/98
f 52/43/99 78/44/99 84/45/99
f 53/46/100 79/47/100 81/48/100
f 81/48/101 84/49/101 54/50/101
f 81/48/102 79/47/102 84/49/102
f 79/47/103 52/43/103 84/49/103
f 84/45/104 83/51/104 54/52/104
f 84/45/105 78/44/105 83/51/105
f 78/44/106 51/40/106 83/51/106
f 83/42/107 82/53/107 54/54/107
f 83/42/108 77/41/108 82/53/108
f 77/41/109 50/55/109 82/53/109
f 82/39/110 80/56/110 54/57/110
f 82/39/111 76/38/111 80/56/111
f 76/38/112 49/34/112 80/56/112
f 80/36/113 81/58/113 54/59/113
f 80/36/114 75/35/114 81/58/114
f 75/35/115 53/46/115 81/58/115
f 66/33/116 79/47/116 53/46/116
f 66/33/117 73/28/117 79/47/117
f 73/28/118 52/43/118 79/47/118
f 74/32/119 78/44/119 52/43/119
f 74/32/120 71/25/120 78/44/120
f 71/25/121 51/40/121 78/44/121
f 72/31/122 77/41/122 51/40/122
f 72/31/123 69/22/123 77/41/123
f 69/22/124 50/55/124 77/41/124
f 70/30/125 76/38/125 50/37/125
f 70/30/126 67/19/126 76/38/126
f 67/19/127 49/34/127 76/38/127
f 68/29/128 75/35/128 49/34/128
f 68/29/129 65/16/129 75/35/129
f 65/16/130 53/46/130 75/35/130
f 73/28/131 74/32/131 52/43/131
f 73/28/132 64/27/132 74/32/132
f 64/27/133 47/23/133 74/32/133
f 71/25/134 72/31/134 51/40/134
f 71/25/135 63/24/135 72/31/135
f 63/24/136 46/20/136 72/31/136
f 69/22/137 70/60/137 50/55/137
f 69/22/138 61/21/138 70/60/138
f 61/21/139 45/61/139 70/60/139
f 67/19/140 68/29/140 49/34/140
f 67/19/141 57/18/141 68/29/141
f 57/18/142 44/4/142 68/29/142
f 65/16/143 66/33/143 53/46/143
f 65/16/144 58/6/144 66/33/144
f 58/6/145 48/26/145 66/33/145
f 59/15/146 64/27/146 48/26/146
f 59/15/147 62/14/147 64/27/147
f 62/14/148 47/23/148 64/27/148
f 62/12/149 63/24/149 47/23/149
f 62/12/150 60/11/150 63/24/150
f 60/11/151 46/20/151 63/24/151
f 60/9/152 61/21/152 46/20/152
f 60/9/153 55/8/153 61/21/153
f 55/8/154 45/61/154 61/21/154
f 58/6/155 59/62/155 48/26/155
f 58/6/156 56/5/156 59/62/156
f 56/5/157 43/63/157 59/62/157
f 55/3/158 57/18/158 45/17/158
f 55/3/159 56/2/159 57/18/159
f 56/2/160 44/4/160 57/18/160
f 85/64/161 89/65/161 91/66/161
f 86/67/162 89/68/162 88/69/162
f 87/70/163 89/71/163 90/72/163
f 92/73/164 96/74/164 98/75/164
f 93/76/165 96/77/165 95/78/165
f 94/79/166 96/80/166 97/81/166
f 99/82/167 103/83/167 105/84/167
f 100/85/168 103/86/168 102/87/168
f 101/88/169 103/86/169 104/89/169
f 106/90/170 110/91/170 112/92/170
f 107/93/171 110/94/171 109/95/171
f 108/96/172 110/94/172 111/97/172
f 113/98/173 117/99/173 119/100/173
f 114/101/174 117/102/174 116/103/174
f 115/104/175 117/102/175 118/105/175
f 120/106/176 124/107/176 126/108/176
f 121/109/177 124/110/177 123/111/177
f 122/93/178 124/110/178 125/112/178
f 127/113/179 131/114/179 133/115/179
f 128/116/180 131/117/180 130/118/180
f 129/119/181 131/117/181 132/120/181
f 134/121/182 138/122/182 140/123/182
f 135/124/183 138/125/183 137/126/183
f 136/109/184 138/125/184 139/127/184
f 141/128/185 145/129/185 147/130/185
f 142/131/186 145/132/186 144/133/186
f 143/134/187 145/132/187 146/135/187
f 148/136/188 152/137/188 154/138/188
f 149/139/189 152/140/189 151/141/189
f 150/142/190 152/140/190 153/143/190
f 100/85/191 91/144/191 87/70/191
f 102/145/192 85/64/192 91/66/192
f 108/96/193 95/78/193 112/146/193
f 112/92/194 92/73/194 106/90/194
f 86/67/195 97/81/195 90/147/195
f 97/148/196 87/70/196 90/72/196
f 101/88/197 111/97/197 107/93/197
f 111/97/198 100/85/198 108/96/198
f 101/88/199 116/103/199 105/149/199
f 105/84/200 113/98/200 99/82/200
f 122/93/201 109/95/201 126/150/201
f 126/108/202 106/90/202 120/106/202
f 115/104/203 125/112/203 121/109/203
f 125/112/204 114/101/204 122/93/204
f 128/116/205 119/151/205 115/104/205
f 119/100/206 127/113/206 113/98/206
f 136/109/207 123/111/207 140/152/207
f 140/123/208 120/106/208 134/121/208
f 129/119/209 139/127/209 135/124/209
f 139/127/210 128/116/210 136/109/210
f 142/131/211 133/153/211 129/119/211
f 144/154/212 127/113/212 133/115/212
f 150/142/213 137/126/213 154/155/213
f 137/156/214 148/136/214 154/138/214
f 143/134/215 153/143/215 149/139/215
f 153/143/216 142/131/216 150/142/216
f 86/67/217 147/157/217 143/134/217
f 88/158/218 141/128/218 147/130/218
f 94/79/219 151/141/219 98/159/219
f 98/75/220 148/136/220 92/73/220
f 99/82/221 127/113/221 141/128/221
f 87/70/222 108/96/222 100/85/222
f 143/134/223 94/79/223 86/67/223
f 92/73/224 134/121/224 120/106/224
f 101/88/225 122/93/225 114/101/225
f 115/104/226 136/109/226 128/116/226
f 129/119/227 150/142/227 142/131/227
f 155/160/228 159/161/228 161/162/228
f 156/163/229 159/164/229 158/165/229
f 157/166/230 159/167/230 160/168/230
f 162/169/231 166/170/231 168/171/231
f 163/172/232 166/173/232 165/174/232
f 164/175/233 166/176/233 167/177/233
f 169/178/234 173/179/234 175/180/234
f 170/181/235 173/182/235 172/183/235
f 171/184/236 173/182/236 174/185/236
f 176/186/237 180/187/237 182/188/237
f 177/189/238 180/190/238 179/191/238
f 178/172/239 180/190/239 181/192/239
f 183/193/240 187/194/240 189/195/240
f 184/196/241 187/197/241 186/198/241
f 185/199/242 187/197/242 188/200/242
f 190/201/243 194/202/243 196/203/243
f 191/204/244 194/205/244 193/206/244
f 192/207/245 194/205/245 195/208/245
f 197/209/246 201/210/246 203/211/246
f 198/212/247 201/213/247 200/214/247
f 199/215/248 201/213/248 202/216/248
f 204/217/249 208/218/249 210/219/249
f 205/220/250 208/221/250 207/222/250
f 206/223/251 208/221/251 209/224/251
f 211/225/252 215/226/252 217/227/252
f 212/228/253 215/229/253 214/230/253
f 213/231/254 215/229/254 216/232/254
f 218/233/255 222/234/255 224/235/255
f 219/236/256 222/237/256 221/238/256
f 220/239/257 222/237/257 223/240/257
f 157/166/258 172/183/258 161/241/258
f 172/242/259 155/160/259 161/162/259
f 178/172/260 165/174/260 182/243/260
f 165/244/261 176/186/261 182/188/261
f 156/163/262 167/177/262 160/245/262
f 167/246/263 157/166/263 160/168/263
f 171/184/264 181/192/264 177/189/264
f 181/192/265 170/181/265 178/172/265
f 184/196/266 175/247/266 171/184/266
f 186/248/267 169/178/267 175/180/267
f 192/207/268 179/191/268 196/249/268
f 196/203/269 176/186/269 190/201/269
f 185/199/270 195/208/270 191/204/270
f 195/208/271 184/196/271 192/207/271
f 185/199/272 200/214/272 189/250/272
f 200/251/273 183/193/273 189/195/273
f 206/223/274 193/206/274 210/252/274
f 193/253/275 204/217/275 210/219/275
f 199/215/276 209/224/276 205/220/276
f 209/224/277 198/212/277 206/223/277
f 212/228/278 203/254/278 199/215/278
f 214/255/279 197/209/279 203/211/279
f 220/239/280 207/222/280 224/256/280
f 224/235/281 204/217/281 218/233/281
f 213/231/282 223/240/282 219/236/282
f 223/240/283 212/228/283 220/239/283
f 156/163/284 217/257/284 213/231/284
f 158/258/285 211/225/285 217/227/285
f 164/175/286 221/238/286 168/259/286
f 221/260/287 162/169/287 168/171/287
f 169/178/288 197/209/288 211/225/288
f 157/166/289 178/172/289 170/181/289
f 213/231/290 164/175/290 156/163/290
f 162/169/291 204/217/291 190/201/291
f 171/184/292 192/207/292 184/196/292
f 185/199/293 206/223/293 198/212/293
f 199/215/294 220/239/294 212/228/294
f 225/64/295 229/65/295 231/66/295
f 226/67/296 229/68/296 228/69/296
f 227/261/297 229/71/297 230/72/297
f 232/73/298 236/74/298 238/75/298
f 233/76/299 236/77/299 235/78/299
f 234/79/300 236/80/300 237/81/300
f 239/262/301 243/83/301 245/84/301
f 240/85/302 243/86/302 242/87/302
f 241/263/303 243/86/303 244/89/303
f 246/264/304 250/91/304 252/92/304
f 247/93/305 250/94/305 249/95/305
f 248/96/306 250/94/306 251/97/306
f 253/265/307 257/99/307 259/100/307
f 254/101/308 257/102/308 256/103/308
f 255/104/309 257/102/309 258/105/309
f 260/106/310 264/107/310 266/108/310
f 261/109/311 264/110/311 263/111/311
f 262/93/312 264/110/312 265/112/312
f 267/266/313 271/114/313 273/115/313
f 268/116/314 271/117/314 270/118/314
f 269/267/315 271/117/315 272/120/315
f 274/121/316 278/122/316 280/123/316
f 275/124/317 278/125/317 277/126/317
f 276/109/318 278/125/318 279/127/318
f 281/128/319 285/129/319 287/130/319
f 282/131/320 285/132/320 284/133/320
f 283/268/321 285/132/321 286/135/321
f 288/136/322 292/137/322 294/138/322
f 289/79/323 292/140/323 291/141/323
f 290/142/324 292/140/324 293/143/324
f 240/85/325 231/144/325 227/261/325
f 242/145/326 225/64/326 231/66/326
f 233/76/327 252/146/327 248/96/327
f 252/92/328 232/73/328 246/264/328
f 226/67/329 237/81/329 230/147/329
f 237/148/330 227/261/330 230/72/330
f 241/263/331 251/97/331 247/93/331
f 251/97/332 240/85/332 248/96/332
f 254/101/333 245/149/333 241/263/333
f 245/84/334 253/265/334 239/262/334
f 262/93/335 249/95/335 266/150/335
f 266/108/336 246/264/336 260/106/336
f 255/104/337 265/112/337 261/109/337
f 265/112/338 254/101/338 262/93/338
f 255/104/339 270/118/339 259/151/339
f 270/269/340 253/265/340 259/100/340
f 276/109/341 263/111/341 280/152/341
f 280/123/342 260/106/342 274/121/342
f 269/267/343 279/127/343 275/124/343
f 279/127/344 268/116/344 276/109/344
f 282/131/345 273/153/345 269/267/345
f 273/115/346 281/128/346 267/266/346
f 290/142/347 277/126/347 294/155/347
f 294/138/348 274/121/348 288/136/348
f 283/268/349 293/143/349 289/79/349
f 293/143/350 282/131/350 290/142/350
f 226/67/351 287/157/351 283/268/351
f 287/130/352 225/64/352 281/128/352
f 234/79/353 291/141/353 238/159/353
f 291/270/354 232/73/354 238/75/354
f 239/262/355 267/266/355 281/128/355
f 227/261/356 248/96/356 240/85/356
f 283/268/357 234/79/357 226/67/357
f 232/73/358 274/121/358 260/106/358
f 241/263/359 262/93/359 254/101/359
f 255/104/360 276/109/360 268/116/360
f 269/267/361 290/142/361 282/131/361
f 295/160/362 299/161/362 301/162/362
f 296/271/363 299/164/363 298/165/363
f 297/166/364 299/167/364 300/168/364
f 302/169/365 306/170/365 308/171/365
f 303/172/366 306/173/366 305/174/366
f 304/175/367 306/176/367 307/177/367
f 309/178/368 313/179/368 315/180/368
f 310/181/369 313/182/369 312/183/369
f 311/272/370 313/182/370 314/185/370
f 316/186/371 320/187/371 322/188/371
f 317/189/372 320/190/372 319/191/372
f 318/172/373 320/190/373 321/192/373
f 323/193/374 327/194/374 329/195/374
f 324/196/375 327/197/375 326/198/375
f 325/273/376 327/197/376 328/200/376
f 330/201/377 334/202/377 336/203/377
f 331/204/378 334/205/378 333/206/378
f 332/274/379 334/205/379 335/208/379
f 337/275/380 341/210/380 343/211/380
f 338/212/381 341/213/381 340/214/381
f 339/215/382 341/213/382 342/216/382
f 344/276/383 348/218/383 350/219/383
f 345/277/384 348/221/384 347/222/384
f 346/223/385 348/221/385 349/224/385
f 351/225/386 355/226/386 357/227/386
f 352/228/387 355/229/387 354/230/387
f 353/231/388 355/229/388 356/232/388
f 358/233/389 362/234/389 364/235/389
f 359/236/390 362/237/390 361/238/390
f 360/239/391 362/237/391 363/240/391
f 297/166/392 312/183/392 301/241/392
f 312/242/393 295/160/393 301/162/393
f 318/172/394 305/174/394 322/243/394
f 322/188/395 302/169/395 316/186/395
f 296/271/396 307/177/396 300/245/396
f 307/246/397 297/166/397 300/168/397
f 311/272/398 321/192/398 317/189/398
f 321/192/399 310/181/399 318/172/399
f 324/196/400 315/247/400 311/272/400
f 315/180/401 323/193/401 309/178/401
f 332/274/402 319/191/402 336/249/402
f 336/203/403 316/186/403 330/201/403
f 325/273/404 335/208/404 331/204/404
f 335/208/405 324/196/405 332/274/405
f 338/212/406 329/250/406 325/273/406
f 340/251/407 323/193/407 329/195/407
f 346/223/408 333/206/408 350/252/408
f 333/253/409 344/276/409 350/219/409
f 339/215/410 349/224/410 345/277/410
f 349/224/411 338/212/411 346/223/411
f 352/228/412 343/254/412 339/215/412
f 343/211/413 351/225/413 337/275/413
f 360/239/414 347/222/414 364/256/414
f 347/278/415 358/233/415 364/235/415
f 353/231/416 363/240/416 359/236/416
f 363/240/417 352/228/417 360/239/417
f 296/271/418 357/257/418 353/231/418
f 298/258/419 351/225/419 357/227/419
f 304/175/420 361/238/420 308/259/420
f 308/171/421 358/233/421 302/169/421
f 309/178/422 337/275/422 351/225/422
f 297/166/423 318/172/423 310/181/423
f 353/231/424 304/175/424 296/271/424
f 302/169/425 344/276/425 330/201/425
f 311/272/426 332/274/426 324/196/426
f 325/273/427 346/223/427 338/212/427
f 339/215/428 360/239/428 352/228/428
f 365/279/429 369/65/429 371/66/429
f 366/67/430 369/68/430 368/69/430
f 367/70/431 369/71/431 370/72/431
f 372/73/432 376/74/432 378/75/432
f 373/76/433 376/77/433 375/78/433
f 374/79/434 376/80/434 377/81/434
f 379/82/435 383/83/435 385/84/435
f 380/85/436 383/86/436 382/87/436
f 381/280/437 383/86/437 384/89/437
f 386/90/438 390/91/438 392/92/438
f 387/93/439 390/94/439 389/95/439
f 388/96/440 390/94/440 391/97/440
f 393/98/441 397/99/441 399/100/441
f 394/101/442 397/102/442 396/103/442
f 395/104/443 397/102/443 398/105/443
f 400/106/444 404/107/444 406/108/444
f 401/109/445 404/110/445 403/111/445
f 402/93/446 404/110/446 405/112/446
f 407/113/447 411/114/447 413/115/447
f 408/116/448 411/117/448 410/118/448
f 409/119/449 411/117/449 412/120/449
f 414/121/450 418/122/450 420/123/450
f 415/281/451 418/125/451 417/126/451
f 416/109/452 418/125/452 419/127/452
f 421/128/453 425/129/453 427/130/453
f 422/131/454 425/132/454 424/133/454
f 423/268/455 425/132/455 426/135/455
f 428/136/456 432/137/456 434/138/456
f 429/139/457 432/140/457 431/141/457
f 430/142/458 432/140/458 433/143/458
f 380/85/459 371/144/459 367/70/459
f 371/66/460 379/82/460 365/279/460
f 388/96/461 375/78/461 392/146/461
f 392/92/462 372/73/462 386/90/462
f 366/67/463 377/81/463 370/147/463
f 377/148/464 367/70/464 370/72/464
f 381/280/465 391/97/465 387/93/465
f 391/97/466 380/85/466 388/96/466
f 381/280/467 396/103/467 385/149/467
f 385/84/468 393/98/468 379/82/468
f 402/93/469 389/95/469 406/150/469
f 406/108/470 386/90/470 400/106/470
f 395/104/471 405/112/471 401/109/471
f 405/112/472 394/101/472 402/93/472
f 408/116/473 399/151/473 395/104/473
f 399/100/474 407/113/474 393/98/474
f 416/109/475 403/111/475 420/152/475
f 403/282/476 414/121/476 420/123/476
f 409/119/477 419/127/477 415/281/477
f 419/127/478 408/116/478 416/109/478
f 422/131/479 413/153/479 409/119/479
f 424/154/480 407/113/480 413/115/480
f 430/142/481 417/126/481 434/155/481
f 417/156/482 428/136/482 434/138/482
f 423/268/483 433/143/483 429/139/483
f 433/143/484 422/131/484 430/142/484
f 366/67/485 427/157/485 423/268/485
f 427/130/486 365/279/486 421/128/486
f 374/79/487 431/141/487 378/159/487
f 431/270/488 372/73/488 378/75/488
f 379/82/489 407/113/489 421/128/489
f 367/70/490 388/96/490 380/85/490
f 423/268/491 374/79/491 366/67/491
f 372/73/492 414/121/492 400/106/492
f 381/280/493 402/93/493 394/101/493
f 395/104/494 416/109/494 408/116/494
f 409/119/495 430/142/495 422/131/495
f 435/160/496 439/161/496 441/162/496
f 436/271/497 439/164/497 438/165/497
f 437/166/498 439/167/498 440/168/498
f 442/169/499 446/170/499 448/171/499
f 443/172/500 446/173/500 445/174/500
f 444/175/501 446/176/501 447/177/501
f 449/178/502 453/179/502 455/180/502
f 450/181/503 453/182/503 452/183/503
f 451/184/504 453/182/504 454/185/504
f 456/283/505 460/187/505 462/188/505
f 457/189/506 460/190/506 459/191/506
f 458/172/507 460/190/507 461/192/507
f 463/193/508 467/194/508 469/195/508
f 464/196/509 467/197/509 466/198/509
f 465/284/510 467/197/510 468/200/510
f 470/201/511 474/202/511 476/203/511
f 471/204/512 474/205/512 473/206/512
f 472/207/513 474/205/513 475/208/513
f 477/285/514 481/210/514 483/211/514
f 478/212/515 481/213/515 480/214/515
f 479/215/516 481/213/516 482/216/516
f 484/217/517 488/218/517 490/219/517
f 485/220/518 488/221/518 487/222/518
f 486/223/519 488/221/519 489/224/519
f 491/225/520 495/226/520 497/227/520
f 492/228/521 495/229/521 494/230/521
f 493/231/522 495/229/522 496/232/522
f 498/233/523 502/234/523 504/235/523
f 499/236/524 502/237/524 501/238/524
f 500/239/525 502/237/525 503/240/525
f 450/181/526 441/241/526 437/166/526
f 441/162/527 449/178/527 435/160/527
f 458/172/528 445/174/528 462/243/528
f 462/188/529 442/169/529 456/283/529
f 436/271/530 447/177/530 440/245/530
f 447/246/531 437/166/531 440/168/531
f 451/184/532 461/192/532 457/189/532
f 461/192/533 450/181/533 458/172/533
f 464/196/534 455/247/534 451/184/534
f 466/248/535 449/178/535 455/180/535
f 472/207/536 459/191/536 476/249/536
f 459/286/537 470/201/537 476/203/537
f 465/284/538 475/208/538 471/204/538
f 475/208/539 464/196/539 472/207/539
f 478/212/540 469/250/540 465/284/540
f 480/251/541 463/193/541 469/195/541
f 486/223/542 473/206/542 490/252/542
f 490/219/543 470/201/543 484/217/543
f 479/215/544 489/224/544 485/220/544
f 489/224/545 478/212/545 486/223/545
f 479/215/546 494/230/546 483/254/546
f 483/211/547 491/225/547 477/285/547
f 500/239/548 487/222/548 504/256/548
f 487/278/549 498/233/549 504/235/549
f 493/231/550 503/240/550 499/236/550
f 503/240/551 492/228/551 500/239/551
f 436/271/552 497/257/552 493/231/552
f 438/258/553 491/225/553 497/227/553
f 444/175/554 501/238/554 448/259/554
f 501/260/555 442/169/555 448/171/555
f 449/178/556 477/285/556 491/225/556
f 437/166/557 458/172/557 450/181/557
f 493/231/558 444/175/558 436/271/558
f 442/169/559 484/217/559 470/201/559
f 451/184/560 472/207/560 464/196/560
f 465/284/561 486/223/561 478/212/561
f 479/215/562 500/239/562 492/228/562
f 505/64/563 509/65/563 511/66/563
f 506/67/564 509/68/564 508/69/564
f 507/261/565 509/71/565 510/72/565
f 512/73/566 516/74/566 518/75/566
f 513/76/567 516/77/567 515/78/567
f 514/79/568 516/80/568 517/81/568
f 519/262/569 523/83/569 525/84/569
f 520/85/570 523/86/570 522/87/570
f 521/263/571 523/86/571 524/89/571
f 526/264/572 530/91/572 532/92/572
f 527/93/573 530/94/573 529/95/573
f 528/96/574 530/94/574 531/97/574
f 533/265/575 537/99/575 539/100/575
f 534/101/576 537/102/576 536/103/576
f 535/104/577 537/102/577 538/105/577
f 540/106/578 544/107/578 546/108/578
f 541/109/579 544/110/579 543/111/579
f 542/93/580 544/110/580 545/112/580
f 547/287/581 551/114/581 553/115/581
f 548/116/582 551/117/582 550/118/582
f 549/119/583 551/117/583 552/120/583
f 554/121/584 558/122/584 560/123/584
f 555/124/585 558/125/585 557/126/585
f 556/109/586 558/125/586 559/127/586
f 561/128/587 565/129/587 567/130/587
f 562/131/588 565/132/588 564/133/588
f 563/268/589 565/132/589 566/135/589
f 568/136/590 572/137/590 574/138/590
f 569/288/591 572/140/591 571/141/591
f 570/142/592 572/140/592 573/143/592
f 507/261/593 522/87/593 511/144/593
f 511/66/594 519/262/594 505/64/594
f 528/96/595 515/78/595 532/146/595
f 515/289/596 526/264/596 532/92/596
f 506/67/597 517/81/597 510/147/597
f 517/148/598 507/261/598 510/72/598
f 521/263/599 531/97/599 527/93/599
f 531/97/600 520/85/600 528/96/600
f 534/101/601 525/149/601 521/263/601
f 525/84/602 533/265/602 519/262/602
f 542/93/603 529/95/603 546/150/603
f 529/290/604 540/106/604 546/108/604
f 535/104/605 545/112/605 541/109/605
f 545/112/606 534/101/606 542/93/606
f 548/116/607 539/151/607 535/104/607
f 539/100/608 547/287/608 533/265/608
f 556/109/609 543/111/609 560/152/609
f 560/123/610 540/106/610 554/121/610
f 549/119/611 559/127/611 555/124/611
f 559/127/612 548/116/612 556/109/612
f 562/131/613 553/153/613 549/119/613
f 564/154/614 547/287/614 553/115/614
f 570/142/615 557/126/615 574/155/615
f 574/138/616 554/121/616 568/136/616
f 563/268/617 573/143/617 569/288/617
f 573/143/618 562/131/618 570/142/618
f 563/268/619 508/69/619 567/157/619
f 508/158/620 561/128/620 567/130/620
f 514/79/621 571/141/621 518/159/621
f 571/270/622 512/73/622 518/75/622
f 519/262/623 547/287/623 561/128/623
f 507/261/624 528/96/624 520/85/624
f 563/268/625 514/79/625 506/67/625
f 512/73/626 554/121/626 540/106/626
f 521/263/627 542/93/627 534/101/627
f 535/104/628 556/109/628 548/116/628
f 549/119/629 570/142/629 562/131/629
f 575/160/630 579/161/630 581/162/630
f 576/271/631 579/164/631 578/165/631
f 577/166/632 579/167/632 580/168/632
f 582/169/633 586/170/633 588/171/633
f 583/172/634 586/173/634 585/174/634
f 584/175/635 586/176/635 587/177/635
f 589/178/636 593/179/636 595/180/636
f 590/181/637 593/182/637 592/183/637
f 591/272/638 593/182/638 594/185/638
f 596/186/639 600/187/639 602/188/639
f 597/291/640 600/190/640 599/191/640
f 598/172/641 600/190/641 601/192/641
f 603/292/642 607/194/642 609/195/642
f 604/196/643 607/197/643 606/198/643
f 605/273/644 607/197/644 608/200/644
f 610/201/645 614/202/645 616/203/645
f 611/293/646 614/205/646 613/206/646
f 612/207/647 614/205/647 615/208/647
f 617/275/648 621/210/648 623/211/648
f 618/212/649 621/213/649 620/214/649
f 619/215/650 621/213/650 622/216/650
f 624/217/651 628/218/651 630/219/651
f 625/277/652 628/221/652 627/222/652
f 626/223/653 628/221/653 629/224/653
f 631/225/654 635/226/654 637/227/654
f 632/228/655 635/229/655 634/230/655
f 633/231/656 635/229/656 636/232/656
f 638/233/657 642/234/657 644/235/657
f 639/236/658 642/237/658 641/238/658
f 640/239/659 642/237/659 643/240/659
f 590/181/660 581/241/660 577/166/660
f 581/162/661 589/178/661 575/160/661
f 598/172/662 585/174/662 602/243/662
f 585/244/663 596/186/663 602/188/663
f 576/271/664 587/177/664 580/245/664
f 587/246/665 577/166/665 580/168/665
f 591/272/666 601/192/666 597/291/666
f 601/192/667 590/181/667 598/172/667
f 591/272/668 606/198/668 595/247/668
f 606/248/669 589/178/669 595/180/669
f 612/207/670 599/191/670 616/249/670
f 599/286/671 610/201/671 616/203/671
f 605/273/672 615/208/672 611/293/672
f 615/208/673 604/196/673 612/207/673
f 605/273/674 620/214/674 609/250/674
f 609/195/675 617/275/675 603/292/675
f 626/223/676 613/206/676 630/252/676
f 613/253/677 624/217/677 630/219/677
f 619/215/678 629/224/678 625/277/678
f 629/224/679 618/212/679 626/223/679
f 632/228/680 623/254/680 619/215/680
f 634/255/681 617/275/681 623/211/681
f 640/239/682 627/222/682 644/256/682
f 627/278/683 638/233/683 644/235/683
f 633/231/684 643/240/684 639/236/684
f 643/240/685 632/228/685 640/239/685
f 633/231/686 578/165/686 637/257/686
f 578/258/687 631/225/687 637/227/687
f 584/175/688 641/238/688 588/259/688
f 588/171/689 638/233/689 582/169/689
f 589/178/690 617/275/690 631/225/690
f 577/166/691 598/172/691 590/181/691
f 633/231/692 584/175/692 576/271/692
f 582/169/693 624/217/693 610/201/693
f 591/272/694 612/207/694 604/196/694
f 605/273/695 626/223/695 618/212/695
f 619/215/696 640/239/696 632/228/696
f 85/64/697 88/158/697 89/65/697
f 86/67/698 90/147/698 89/68/698
f 87/70/699 91/144/699 89/71/699
f 92/73/700 95/289/700 96/74/700
f 93/76/701 97/148/701 96/77/701
f 94/79/702 98/159/702 96/80/702
f 99/82/703 102/145/703 103/83/703
f 100/85/704 104/89/704 103/86/704
f 101/88/705 105/149/705 103/86/705
f 106/90/706 109/290/706 110/91/706
f 107/93/707 111/97/707 110/94/707
f 108/96/708 112/146/708 110/94/708
f 113/98/709 116/294/709 117/99/709
f 114/101/710 118/105/710 117/102/710
f 115/104/711 119/151/711 117/102/711
f 120/106/712 123/282/712 124/107/712
f 121/109/713 125/112/713 124/110/713
f 122/93/714 126/150/714 124/110/714
f 127/113/715 130/269/715 131/114/715
f 128/116/716 132/120/716 131/117/716
f 129/119/717 133/153/717 131/117/717
f 134/121/718 137/156/718 138/122/718
f 135/124/719 139/127/719 138/125/719
f 136/109/720 140/152/720 138/125/720
f 141/128/721 144/154/721 145/129/721
f 142/131/722 146/135/722 145/132/722
f 143/134/723 147/157/723 145/132/723
f 148/136/724 151/270/724 152/137/724
f 149/139/725 153/143/725 152/140/725
f 150/142/726 154/155/726 152/140/726
f 100/85/727 102/87/727 91/144/727
f 102/145/192 99/82/192 85/64/192
f 108/96/728 93/76/728 95/78/728
f 112/92/194 95/289/194 92/73/194
f 86/67/195 94/79/195 97/81/195
f 97/148/196 93/76/196 87/70/196
f 101/88/197 104/89/197 111/97/197
f 111/97/198 104/89/198 100/85/198
f 101/88/729 114/101/729 116/103/729
f 105/84/730 116/294/730 113/98/730
f 122/93/728 107/93/728 109/95/728
f 126/108/202 109/290/202 106/90/202
f 115/104/203 118/105/203 125/112/203
f 125/112/204 118/105/204 114/101/204
f 128/116/205 130/118/205 119/151/205
f 119/100/206 130/269/206 127/113/206
f 136/109/728 121/109/728 123/111/728
f 140/123/731 123/282/731 120/106/731
f 129/119/209 132/120/209 139/127/209
f 139/127/210 132/120/210 128/116/210
f 142/131/211 144/133/211 133/153/211
f 144/154/212 141/128/212 127/113/212
f 150/142/728 135/124/728 137/126/728
f 137/156/214 134/121/214 148/136/214
f 143/134/215 146/135/215 153/143/215
f 153/143/732 146/135/732 142/131/732
f 86/67/217 88/69/217 147/157/217
f 88/158/218 85/64/218 141/128/218
f 94/79/733 149/139/733 151/141/733
f 98/75/220 151/270/220 148/136/220
f 141/128/734 85/64/734 99/82/734
f 99/82/221 113/98/221 127/113/221
f 87/70/728 93/76/728 108/96/728
f 143/134/735 149/139/735 94/79/735
f 120/106/736 106/90/736 92/73/736
f 92/73/224 148/136/224 134/121/224
f 101/88/728 107/93/728 122/93/728
f 115/104/737 121/109/737 136/109/737
f 129/119/728 135/124/728 150/142/728
f 155/160/738 158/258/738 159/161/738
f 156/163/739 160/245/739 159/164/739
f 157/166/740 161/241/740 159/167/740
f 162/169/741 165/244/741 166/170/741
f 163/172/742 167/246/742 166/173/742
f 164/175/743 168/259/743 166/176/743
f 169/178/744 172/242/744 173/179/744
f 170/181/745 174/185/745 173/182/745
f 171/184/746 175/247/746 173/182/746
f 176/186/747 179/286/747 180/187/747
f 177/189/748 181/192/748 180/190/748
f 178/172/749 182/243/749 180/190/749
f 183/193/750 186/248/750 187/194/750
f 184/196/751 188/200/751 187/197/751
f 185/199/752 189/250/752 187/197/752
f 190/201/753 193/253/753 194/202/753
f 191/204/754 195/208/754 194/205/754
f 192/207/755 196/249/755 194/205/755
f 197/209/756 200/251/756 201/210/756
f 198/212/757 202/216/757 201/213/757
f 199/215/758 203/254/758 201/213/758
f 204/217/759 207/278/759 208/218/759
f 205/220/760 209/224/760 208/221/760
f 206/223/761 210/252/761 208/221/761
f 211/225/762 214/255/762 215/226/762
f 212/228/763 216/232/763 215/229/763
f 213/231/764 217/257/764 215/229/764
f 218/233/765 221/260/765 222/234/765
f 219/236/766 223/240/766 222/237/766
f 220/239/767 224/256/767 222/237/767
f 157/166/258 170/181/258 172/183/258
f 172/242/768 169/178/768 155/160/768
f 178/172/733 163/172/733 165/174/733
f 165/244/769 162/169/769 176/186/769
f 156/163/262 164/175/262 167/177/262
f 167/246/263 163/172/263 157/166/263
f 171/184/264 174/185/264 181/192/264
f 181/192/265 174/185/265 170/181/265
f 184/196/266 186/198/266 175/247/266
f 186/248/267 183/193/267 169/178/267
f 192/207/733 177/189/733 179/191/733
f 196/203/770 179/286/770 176/186/770
f 185/199/270 188/200/270 195/208/270
f 195/208/271 188/200/271 184/196/271
f 185/199/272 198/212/272 200/214/272
f 200/251/273 197/209/273 183/193/273
f 206/223/771 191/204/771 193/206/771
f 193/253/772 190/201/772 204/217/772
f 199/215/276 202/216/276 209/224/276
f 209/224/773 202/216/773 198/212/773
f 212/228/278 214/230/278 203/254/278
f 214/255/774 211/225/774 197/209/774
f 220/239/728 205/220/728 207/222/728
f 224/235/775 207/278/775 204/217/775
f 213/231/282 216/232/282 223/240/282
f 223/240/776 216/232/776 212/228/776
f 156/163/284 158/165/284 217/257/284
f 158/258/285 155/160/285 211/225/285
f 164/175/733 219/236/733 221/238/733
f 221/260/777 218/233/777 162/169/777
f 211/225/778 155/160/778 169/178/778
f 169/178/778 183/193/778 197/209/778
f 157/166/737 163/172/737 178/172/737
f 213/231/779 219/236/779 164/175/779
f 190/201/780 176/186/780 162/169/780
f 162/169/291 218/233/291 204/217/291
f 171/184/781 177/189/781 192/207/781
f 185/199/782 191/204/782 206/223/782
f 199/215/737 205/220/737 220/239/737
f 225/64/783 228/158/783 229/65/783
f 226/67/784 230/147/784 229/68/784
f 227/261/785 231/144/785 229/71/785
f 232/73/786 235/289/786 236/74/786
f 233/76/787 237/148/787 236/77/787
f 234/79/788 238/159/788 236/80/788
f 239/262/789 242/145/789 243/83/789
f 240/85/790 244/89/790 243/86/790
f 241/263/791 245/149/791 243/86/791
f 246/264/792 249/290/792 250/91/792
f 247/93/793 251/97/793 250/94/793
f 248/96/794 252/146/794 250/94/794
f 253/265/795 256/294/795 257/99/795
f 254/101/796 258/105/796 257/102/796
f 255/104/797 259/151/797 257/102/797
f 260/106/798 263/282/798 264/107/798
f 261/109/799 265/112/799 264/110/799
f 262/93/800 266/150/800 264/110/800
f 267/266/801 270/269/801 271/114/801
f 268/116/802 272/120/802 271/117/802
f 269/267/803 273/153/803 271/117/803
f 274/121/804 277/156/804 278/122/804
f 275/124/805 279/127/805 278/125/805
f 276/109/806 280/152/806 278/125/806
f 281/128/807 284/154/807 285/129/807
f 282/131/808 286/135/808 285/132/808
f 283/268/809 287/157/809 285/132/809
f 288/136/810 291/270/810 292/137/810
f 289/79/811 293/143/811 292/140/811
f 290/142/812 294/155/812 292/140/812
f 240/85/325 242/87/325 231/144/325
f 242/145/326 239/262/326 225/64/326
f 233/76/813 235/78/813 252/146/813
f 252/92/328 235/289/328 232/73/328
f 226/67/329 234/79/329 237/81/329
f 237/148/330 233/76/330 227/261/330
f 241/263/331 244/89/331 251/97/331
f 251/97/332 244/89/332 240/85/332
f 254/101/333 256/103/333 245/149/333
f 245/84/814 256/294/814 253/265/814
f 262/93/815 247/93/815 249/95/815
f 266/108/816 249/290/816 246/264/816
f 255/104/337 258/105/337 265/112/337
f 265/112/338 258/105/338 254/101/338
f 255/104/339 268/116/339 270/118/339
f 270/269/340 267/266/340 253/265/340
f 276/109/817 261/109/817 263/111/817
f 280/123/818 263/282/818 260/106/818
f 269/267/343 272/120/343 279/127/343
f 279/127/819 272/120/819 268/116/819
f 282/131/345 284/133/345 273/153/345
f 273/115/820 284/154/820 281/128/820
f 290/142/728 275/124/728 277/126/728
f 294/138/348 277/156/348 274/121/348
f 283/268/821 286/135/821 293/143/821
f 293/143/350 286/135/350 282/131/350
f 226/67/822 228/69/822 287/157/822
f 287/130/352 228/158/352 225/64/352
f 234/79/728 289/79/728 291/141/728
f 291/270/823 288/136/823 232/73/823
f 281/128/355 225/64/355 239/262/355
f 239/262/824 253/265/824 267/266/824
f 227/261/737 233/76/737 248/96/737
f 283/268/728 289/79/728 234/79/728
f 260/106/825 246/264/825 232/73/825
f 232/73/358 288/136/358 274/121/358
f 241/263/826 247/93/826 262/93/826
f 255/104/827 261/109/827 276/109/827
f 269/267/728 275/124/728 290/142/728
f 295/160/828 298/258/828 299/161/828
f 296/271/829 300/245/829 299/164/829
f 297/166/830 301/241/830 299/167/830
f 302/169/831 305/244/831 306/170/831
f 303/172/832 307/246/832 306/173/832
f 304/175/833 308/259/833 306/176/833
f 309/178/834 312/242/834 313/179/834
f 310/181/835 314/185/835 313/182/835
f 311/272/836 315/247/836 313/182/836
f 316/186/837 319/286/837 320/187/837
f 317/189/838 321/192/838 320/190/838
f 318/172/839 322/243/839 320/190/839
f 323/193/840 326/248/840 327/194/840
f 324/196/841 328/200/841 327/197/841
f 325/273/842 329/250/842 327/197/842
f 330/201/843 333/253/843 334/202/843
f 331/204/844 335/208/844 334/205/844
f 332/274/845 336/249/845 334/205/845
f 337/275/846 340/251/846 341/210/846
f 338/212/847 342/216/847 341/213/847
f 339/215/848 343/254/848 341/213/848
f 344/276/849 347/278/849 348/218/849
f 345/277/850 349/224/850 348/221/850
f 346/223/851 350/252/851 348/221/851
f 351/225/852 354/255/852 355/226/852
f 352/228/853 356/232/853 355/229/853
f 353/231/854 357/257/854 355/229/854
f 358/233/855 361/260/855 362/234/855
f 359/236/856 363/240/856 362/237/856
f 360/239/857 364/256/857 362/237/857
f 297/166/392 310/181/392 312/183/392
f 312/242/393 309/178/393 295/160/393
f 318/172/728 303/172/728 305/174/728
f 322/188/858 305/244/858 302/169/858
f 296/271/396 304/175/396 307/177/396
f 307/246/397 303/172/397 297/166/397
f 311/272/398 314/185/398 321/192/398
f 321/192/859 314/185/859 310/181/859
f 324/196/400 326/198/400 315/247/400
f 315/180/860 326/248/860 323/193/860
f 332/274/737 317/189/737 319/191/737
f 336/203/403 319/286/403 316/186/403
f 325/273/404 328/200/404 335/208/404
f 335/208/405 328/200/405 324/196/405
f 338/212/406 340/214/406 329/250/406
f 340/251/861 337/275/861 323/193/861
f 346/223/862 331/204/862 333/206/862
f 333/253/863 330/201/863 344/276/863
f 339/215/410 342/216/410 349/224/410
f 349/224/411 342/216/411 338/212/411
f 352/228/412 354/230/412 343/254/412
f 343/211/413 354/255/413 351/225/413
f 360/239/728 345/277/728 347/222/728
f 347/278/864 344/276/864 358/233/864
f 353/231/416 356/232/416 363/240/416
f 363/240/417 356/232/417 352/228/417
f 296/271/418 298/165/418 357/257/418
f 298/258/419 295/160/419 351/225/419
f 304/175/728 359/236/728 361/238/728
f 308/171/865 361/260/865 358/233/865
f 351/225/422 295/160/422 309/178/422
f 309/178/422 323/193/422 337/275/422
f 297/166/728 303/172/728 318/172/728
f 353/231/728 359/236/728 304/175/728
f 330/201/425 316/186/425 302/169/425
f 302/169/866 358/233/866 344/276/866
f 311/272/867 317/189/867 332/274/867
f 325/273/868 331/204/868 346/223/868
f 339/215/728 345/277/728 360/239/728
f 365/279/869 368/158/869 369/65/869
f 366/67/870 370/147/870 369/68/870
f 367/70/871 371/144/871 369/71/871
f 372/73/872 375/289/872 376/74/872
f 373/76/873 377/148/873 376/77/873
f 374/79/874 378/159/874 376/80/874
f 379/82/875 382/145/875 383/83/875
f 380/85/876 384/89/876 383/86/876
f 381/280/877 385/149/877 383/86/877
f 386/90/878 389/290/878 390/91/878
f 387/93/879 391/97/879 390/94/879
f 388/96/880 392/146/880 390/94/880
f 393/98/881 396/294/881 397/99/881
f 394/101/882 398/105/882 397/102/882
f 395/104/883 399/151/883 397/102/883
f 400/106/884 403/282/884 404/107/884
f 401/109/885 405/112/885 404/110/885
f 402/93/886 406/150/886 404/110/886
f 407/113/887 410/269/887 411/114/887
f 408/116/888 412/120/888 411/117/888
f 409/119/889 413/153/889 411/117/889
f 414/121/890 417/156/890 418/122/890
f 415/281/891 419/127/891 418/125/891
f 416/109/892 420/152/892 418/125/892
f 421/128/893 424/154/893 425/129/893
f 422/131/894 426/135/894 425/132/894
f 423/268/895 427/157/895 425/132/895
f 428/136/896 431/270/896 432/137/896
f 429/139/897 433/143/897 432/140/897
f 430/142/898 434/155/898 432/140/898
f 380/85/459 382/87/459 371/144/459
f 371/66/460 382/145/460 379/82/460
f 388/96/728 373/76/728 375/78/728
f 392/92/462 375/289/462 372/73/462
f 366/67/463 374/79/463 377/81/463
f 377/148/464 373/76/464 367/70/464
f 381/280/465 384/89/465 391/97/465
f 391/97/466 384/89/466 380/85/466
f 381/280/467 394/101/467 396/103/467
f 385/84/468 396/294/468 393/98/468
f 402/93/728 387/93/728 389/95/728
f 406/108/899 389/290/899 386/90/899
f 395/104/471 398/105/471 405/112/471
f 405/112/472 398/105/472 394/101/472
f 408/116/473 410/118/473 399/151/473
f 399/100/474 410/269/474 407/113/474
f 416/109/900 401/109/900 403/111/900
f 403/282/476 400/106/476 414/121/476
f 409/119/901 412/120/901 419/127/901
f 419/127/478 412/120/478 408/116/478
f 422/131/479 424/133/479 413/153/479
f 424/154/480 421/128/480 407/113/480
f 430/142/728 415/281/728 417/126/728
f 417/156/902 414/121/902 428/136/902
f 423/268/483 426/135/483 433/143/483
f 433/143/903 426/135/903 422/131/903
f 366/67/485 368/69/485 427/157/485
f 427/130/904 368/158/904 365/279/904
f 374/79/728 429/139/728 431/141/728
f 431/270/905 428/136/905 372/73/905
f 421/128/489 365/279/489 379/82/489
f 379/82/489 393/98/489 407/113/489
f 367/70/728 373/76/728 388/96/728
f 423/268/728 429/139/728 374/79/728
f 400/106/492 386/90/492 372/73/492
f 372/73/492 428/136/492 414/121/492
f 381/280/728 387/93/728 402/93/728
f 395/104/906 401/109/906 416/109/906
f 409/119/728 415/281/728 430/142/728
f 435/160/907 438/258/907 439/161/907
f 436/271/908 440/245/908 439/164/908
f 437/166/909 441/241/909 439/167/909
f 442/169/910 445/244/910 446/170/910
f 443/172/911 447/246/911 446/173/911
f 444/175/912 448/259/912 446/176/912
f 449/178/913 452/242/913 453/179/913
f 450/181/914 454/185/914 453/182/914
f 451/184/915 455/247/915 453/182/915
f 456/283/916 459/286/916 460/187/916
f 457/189/917 461/192/917 460/190/917
f 458/172/918 462/243/918 460/190/918
f 463/193/919 466/248/919 467/194/919
f 464/196/920 468/200/920 467/197/920
f 465/284/921 469/250/921 467/197/921
f 470/201/922 473/253/922 474/202/922
f 471/204/923 475/208/923 474/205/923
f 472/207/924 476/249/924 474/205/924
f 477/285/925 480/251/925 481/210/925
f 478/212/926 482/216/926 481/213/926
f 479/215/927 483/254/927 481/213/927
f 484/217/928 487/278/928 488/218/928
f 485/220/929 489/224/929 488/221/929
f 486/223/930 490/252/930 488/221/930
f 491/225/931 494/255/931 495/226/931
f 492/228/932 496/232/932 495/229/932
f 493/231/933 497/257/933 495/229/933
f 498/233/934 501/260/934 502/234/934
f 499/236/935 503/240/935 502/237/935
f 500/239/936 504/256/936 502/237/936
f 450/181/526 452/183/526 441/241/526
f 441/162/937 452/242/937 449/178/937
f 458/172/733 443/172/733 445/174/733
f 462/188/938 445/244/938 442/169/938
f 436/271/530 444/175/530 447/177/530
f 447/246/939 443/172/939 437/166/939
f 451/184/532 454/185/532 461/192/532
f 461/192/533 454/185/533 450/181/533
f 464/196/534 466/198/534 455/247/534
f 466/248/535 463/193/535 449/178/535
f 472/207/940 457/189/940 459/191/940
f 459/286/941 456/283/941 470/201/941
f 465/284/538 468/200/538 475/208/538
f 475/208/539 468/200/539 464/196/539
f 478/212/540 480/214/540 469/250/540
f 480/251/942 477/285/942 463/193/942
f 486/223/728 471/204/728 473/206/728
f 490/219/943 473/253/943 470/201/943
f 479/215/544 482/216/544 489/224/544
f 489/224/545 482/216/545 478/212/545
f 479/215/546 492/228/546 494/230/546
f 483/211/547 494/255/547 491/225/547
f 500/239/728 485/220/728 487/222/728
f 487/278/944 484/217/944 498/233/944
f 493/231/550 496/232/550 503/240/550
f 503/240/551 496/232/551 492/228/551
f 436/271/552 438/165/552 497/257/552
f 438/258/553 435/160/553 491/225/553
f 444/175/945 499/236/945 501/238/945
f 501/260/946 498/233/946 442/169/946
f 491/225/556 435/160/556 449/178/556
f 449/178/556 463/193/556 477/285/556
f 437/166/737 443/172/737 458/172/737
f 493/231/733 499/236/733 444/175/733
f 470/201/559 456/283/559 442/169/559
f 442/169/559 498/233/559 484/217/559
f 451/184/728 457/189/728 472/207/728
f 465/284/728 471/204/728 486/223/728
f 479/215/728 485/220/728 500/239/728
f 505/64/947 508/158/947 509/65/947
f 506/67/948 510/147/948 509/68/948
f 507/261/949 511/144/949 509/71/949
f 512/73/950 515/289/950 516/74/950
f 513/76/951 517/148/951 516/77/951
f 514/79/952 518/159/952 516/80/952
f 519/262/953 522/145/953 523/83/953
f 520/85/954 524/89/954 523/86/954
f 521/263/955 525/149/955 523/86/955
f 526/264/956 529/290/956 530/91/956
f 527/93/957 531/97/957 530/94/957
f 528/96/958 532/146/958 530/94/958
f 533/265/959 536/294/959 537/99/959
f 534/101/960 538/105/960 537/102/960
f 535/104/961 539/151/961 537/102/961
f 540/106/962 543/282/962 544/107/962
f 541/109/963 545/112/963 544/110/963
f 542/93/964 546/150/964 544/110/964
f 547/287/965 550/269/965 551/114/965
f 548/116/966 552/120/966 551/117/966
f 549/119/967 553/153/967 551/117/967
f 554/121/968 557/156/968 558/122/968
f 555/124/969 559/127/969 558/125/969
f 556/109/970 560/152/970 558/125/970
f 561/128/971 564/154/971 565/129/971
f 562/131/972 566/135/972 565/132/972
f 563/268/973 567/157/973 565/132/973
f 568/136/974 571/270/974 572/137/974
f 569/288/975 573/143/975 572/140/975
f 570/142/976 574/155/976 572/140/976
f 507/261/593 520/85/593 522/87/593
f 511/66/594 522/145/594 519/262/594
f 528/96/728 513/76/728 515/78/728
f 515/289/596 512/73/596 526/264/596
f 506/67/597 514/79/597 517/81/597
f 517/148/598 513/76/598 507/261/598
f 521/263/599 524/89/599 531/97/599
f 531/97/600 524/89/600 520/85/600
f 534/101/601 536/103/601 525/149/601
f 525/84/602 536/294/602 533/265/602
f 542/93/728 527/93/728 529/95/728
f 529/290/604 526/264/604 540/106/604
f 535/104/605 538/105/605 545/112/605
f 545/112/606 538/105/606 534/101/606
f 548/116/607 550/118/607 539/151/607
f 539/100/608 550/269/608 547/287/608
f 556/109/728 541/109/728 543/111/728
f 560/123/977 543/282/977 540/106/977
f 549/119/611 552/120/611 559/127/611
f 559/127/612 552/120/612 548/116/612
f 562/131/613 564/133/613 553/153/613
f 564/154/614 561/128/614 547/287/614
f 570/142/728 555/124/728 557/126/728
f 574/138/616 557/156/616 554/121/616
f 563/268/617 566/135/617 573/143/617
f 573/143/978 566/135/978 562/131/978
f 563/268/619 506/67/619 508/69/619
f 508/158/620 505/64/620 561/128/620
f 514/79/728 569/288/728 571/141/728
f 571/270/622 568/136/622 512/73/622
f 561/128/623 505/64/623 519/262/623
f 519/262/979 533/265/979 547/287/979
f 507/261/728 513/76/728 528/96/728
f 563/268/728 569/288/728 514/79/728
f 540/106/626 526/264/626 512/73/626
f 512/73/626 568/136/626 554/121/626
f 521/263/728 527/93/728 542/93/728
f 535/104/980 541/109/980 556/109/980
f 549/119/981 555/124/981 570/142/981
f 575/160/982 578/258/982 579/161/982
f 576/271/983 580/245/983 579/164/983
f 577/166/984 581/241/984 579/167/984
f 582/169/985 585/244/985 586/170/985
f 583/172/986 587/246/986 586/173/986
f 584/175/987 588/259/987 586/176/987
f 589/178/988 592/242/988 593/179/988
f 590/181/989 594/185/989 593/182/989
f 591/272/990 595/247/990 593/182/990
f 596/186/991 599/286/991 600/187/991
f 597/291/992 601/192/992 600/190/992
f 598/172/993 602/243/993 600/190/993
f 603/292/994 606/248/994 607/194/994
f 604/196/995 608/200/995 607/197/995
f 605/273/996 609/250/996 607/197/996
f 610/201/997 613/253/997 614/202/997
f 611/293/998 615/208/998 614/205/998
f 612/207/999 616/249/999 614/205/999
f 617/275/1000 620/251/1000 621/210/1000
f 618/212/1001 622/216/1001 621/213/1001
f 619/215/1002 623/254/1002 621/213/1002
f 624/217/1003 627/278/1003 628/218/1003
f 625/277/1004 629/224/1004 628/221/1004
f 626/223/1005 630/252/1005 628/221/1005
f 631/225/1006 634/255/1006 635/226/1006
f 632/228/1007 636/232/1007 635/229/1007
f 633/231/1008 637/257/1008 635/229/1008
f 638/233/1009 641/260/1009 642/234/1009
f 639/236/1010 643/240/1010 642/237/1010
f 640/239/1011 644/256/1011 642/237/1011
f 590/181/1012 592/183/1012 581/241/1012
f 581/162/661 592/242/661 589/178/661
f 598/172/728 583/172/728 585/174/728
f 585/244/663 582/169/663 596/186/663
f 576/271/664 584/175/664 587/177/664
f 587/246/665 583/172/665 577/166/665
f 591/272/666 594/185/666 601/192/666
f 601/192/667 594/185/667 590/181/667
f 591/272/668 604/196/668 606/198/668
f 606/248/669 603/292/669 589/178/669
f 612/207/728 597/291/728 599/191/728
f 599/286/1013 596/186/1013 610/201/1013
f 605/273/672 608/200/672 615/208/672
f 615/208/673 608/200/673 604/196/673
f 605/273/674 618/212/674 620/214/674
f 609/195/675 620/251/675 617/275/675
f 626/223/1014 611/293/1014 613/206/1014
f 613/253/677 610/201/677 624/217/677
f 619/215/678 622/216/678 629/224/678
f 629/224/679 622/216/679 618/212/679
f 632/228/680 634/230/680 623/254/680
f 634/255/1015 631/225/1015 617/275/1015
f 640/239/728 625/277/728 627/222/728
f 627/278/1016 624/217/1016 638/233/1016
f 633/231/684 636/232/684 643/240/684
f 643/240/1017 636/232/1017 632/228/1017
f 633/231/686 576/271/686 578/165/686
f 578/258/687 575/160/687 631/225/687
f 584/175/728 639/236/728 641/238/728
f 588/171/1018 641/260/1018 638/233/1018
f 631/225/690 575/160/690 589/178/690
f 589/178/690 603/292/690 617/275/690
f 577/166/728 583/172/728 598/172/728
f 633/231/728 639/236/728 584/175/728
f 610/201/1019 596/186/1019 582/169/1019
f 582/169/1020 638/233/1020 624/217/1020
f 591/272/737 597/291/737 612/207/737
f 605/273/1021 611/293/1021 626/223/1021
f 619/215/728 625/277/728 640/239/728
