# Blender 4.5.10 LTS
# www.blender.org
mtllib stow_carrier_yoke.mtl
o stow_carrier_yoke
v 0.203108 1.229450 -0.021190
v 0.203019 1.230062 -0.021970
v 0.208563 1.230862 -0.021209
v 0.203082 1.229624 -0.021738
v 0.206271 1.230162 -0.021644
v 0.206940 1.230623 -0.021751
v 0.207002 1.230190 -0.021200
v 0.196862 1.273360 -0.022668
v 0.196773 1.273996 -0.021908
v 0.202406 1.274161 -0.021907
v 0.196799 1.273805 -0.022449
v 0.200012 1.274181 -0.022353
v 0.200719 1.274371 -0.021911
v 0.200782 1.273921 -0.022449
v 0.203071 1.230306 0.032263
v 0.208527 1.231718 0.032244
v 0.202982 1.230942 0.033023
v 0.206965 1.231046 0.032253
v 0.206234 1.231032 0.032698
v 0.206902 1.231496 0.032791
v 0.203045 1.230497 0.032804
v 0.196736 1.274852 0.031545
v 0.196824 1.274241 0.032325
v 0.202369 1.275017 0.031546
v 0.196762 1.274678 0.032093
v 0.199974 1.275051 0.031989
v 0.200745 1.274795 0.032093
v 0.200683 1.275227 0.031542
v -0.181821 1.174721 -0.020577
v -0.187454 1.174556 -0.020578
v -0.181909 1.175332 -0.021357
v -0.185767 1.174346 -0.020574
v -0.185059 1.174522 -0.021021
v -0.185829 1.174778 -0.021125
v -0.181846 1.174895 -0.021124
v -0.188155 1.219267 -0.021294
v -0.188066 1.218631 -0.022054
v -0.193611 1.217855 -0.021276
v -0.188129 1.219076 -0.021836
v -0.191319 1.218541 -0.021730
v -0.191987 1.218077 -0.021823
v -0.192050 1.218527 -0.021285
v -0.181857 1.175577 0.032876
v -0.181946 1.176213 0.033636
v -0.187490 1.175412 0.032875
v -0.181884 1.175768 0.033418
v -0.185096 1.175392 0.033321
v -0.185867 1.175652 0.033417
v -0.185804 1.175202 0.032879
v -0.188192 1.220123 0.032159
v -0.193647 1.218711 0.032178
v -0.188104 1.219511 0.032939
v -0.192086 1.219383 0.032168
v -0.191356 1.219411 0.032613
v -0.192024 1.218950 0.032719
v -0.188166 1.219949 0.032706
v 0.160670 1.212166 -0.005728
v 0.113819 1.255459 -0.040246
v 0.179266 1.254345 -0.061727
v 0.219924 1.253996 -0.006113
v 0.179603 1.254894 0.049740
v 0.114027 1.255798 0.028644
v 0.144117 1.324046 -0.061964
v 0.209693 1.323142 -0.040869
v 0.209901 1.323481 0.028021
v 0.144454 1.324595 0.049503
v 0.103797 1.324944 -0.006111
v 0.163050 1.366773 -0.006496
v 0.171392 1.223386 -0.038576
v 0.132923 1.224041 -0.025949
v 0.143853 1.248833 -0.058865
v 0.105507 1.249687 -0.005746
v 0.133046 1.224240 0.014543
v 0.195290 1.223181 -0.005887
v 0.206220 1.247973 -0.038802
v 0.171590 1.223709 0.026942
v 0.206418 1.248295 0.026716
v 0.144174 1.249355 0.047146
v 0.099493 1.290330 -0.026175
v 0.099616 1.290529 0.014318
v 0.161662 1.289147 -0.071631
v 0.123193 1.289802 -0.059005
v 0.224105 1.288410 -0.026542
v 0.200207 1.288616 -0.059232
v 0.200527 1.289137 0.046780
v 0.224227 1.288610 0.013950
v 0.123514 1.290324 0.047007
v 0.162058 1.289792 0.059407
v 0.117302 1.330644 -0.038940
v 0.179546 1.329585 -0.059370
v 0.218213 1.329253 -0.006478
v 0.179867 1.330107 0.046641
v 0.117500 1.330967 0.026578
v 0.152130 1.355231 -0.039167
v 0.128431 1.355759 -0.006337
v 0.190675 1.354699 -0.026767
v 0.190797 1.354899 0.013725
v 0.152329 1.355554 0.026352
v 0.157700 1.237949 -0.004845
v 0.128726 1.271369 -0.026578
v 0.170050 1.270820 -0.039424
v 0.195031 1.270115 -0.004091
v 0.169145 1.270228 0.030593
v 0.128167 1.271003 0.016695
v 0.148149 1.324191 -0.039256
v 0.189127 1.323416 -0.025358
v 0.188568 1.323050 0.017914
v 0.147245 1.323599 0.030761
v 0.122264 1.324304 -0.004573
v 0.159594 1.356470 -0.003819
v 0.164793 1.246865 -0.025260
v 0.140503 1.247188 -0.017709
v 0.147762 1.266509 -0.038035
v 0.123144 1.266617 -0.005049
v 0.140175 1.246973 0.007726
v 0.179476 1.246451 -0.004492
v 0.186735 1.265772 -0.024817
v 0.164261 1.246518 0.015895
v 0.186204 1.265425 0.016338
v 0.146902 1.265947 0.028555
v 0.119674 1.297946 -0.017549
v 0.119346 1.297732 0.007886
v 0.159178 1.297557 -0.045487
v 0.134889 1.297880 -0.037936
v 0.197949 1.296687 -0.016549
v 0.183265 1.297102 -0.037318
v 0.182405 1.296539 0.029272
v 0.197620 1.296473 0.008886
v 0.134029 1.297317 0.028654
v 0.158116 1.296862 0.036823
v 0.131091 1.328994 -0.025001
v 0.170392 1.328472 -0.037219
v 0.194150 1.327802 -0.003615
v 0.169532 1.327910 0.029371
v 0.130559 1.328647 0.016153
v 0.153033 1.347901 -0.024558
v 0.137818 1.347968 -0.004172
v 0.177119 1.347446 -0.016389
v 0.176791 1.347231 0.009045
v 0.152501 1.347553 0.016596
v 0.254854 1.147075 -0.012630
v 0.254818 1.147214 0.013526
v 0.229930 1.147255 0.021574
v 0.214585 1.147142 0.000392
v 0.229989 1.147031 -0.020748
v 0.255924 1.145384 0.000459
v 0.236835 1.140014 0.000461
v 0.242708 1.145480 0.018595
v 0.221376 1.145441 0.011631
v 0.221408 1.145323 -0.010809
v 0.242759 1.145288 -0.017714
v 0.210337 1.150373 -0.002720
v 0.196584 1.172622 -0.002857
v 0.203488 1.186262 -0.024081
v 0.221508 1.172443 -0.037061
v 0.225741 1.150262 -0.023860
v 0.201701 1.160410 -0.002785
v 0.206378 1.163184 -0.021854
v 0.198069 1.179438 -0.014111
v 0.211285 1.179344 -0.032247
v 0.223083 1.160256 -0.032129
v 0.217160 1.148554 -0.013921
v 0.256485 1.150297 -0.017643
v 0.231619 1.150253 -0.025760
v 0.227387 1.172433 -0.038962
v 0.249636 1.186187 -0.039004
v 0.267620 1.172505 -0.025828
v 0.244390 1.148509 -0.022727
v 0.248528 1.163115 -0.035485
v 0.228962 1.160246 -0.034030
v 0.238514 1.179299 -0.041052
v 0.259846 1.179337 -0.034088
v 0.263478 1.160308 -0.022763
v 0.260073 1.150462 0.013516
v 0.260109 1.150324 -0.012640
v 0.271244 1.172532 -0.020825
v 0.278090 1.186396 0.000273
v 0.271185 1.172756 0.021497
v 0.261179 1.148633 0.000449
v 0.274517 1.163306 0.000390
v 0.267102 1.160335 -0.017759
v 0.276636 1.179461 -0.010912
v 0.276605 1.179579 0.011527
v 0.267052 1.160527 0.018549
v 0.231546 1.150529 0.026557
v 0.256434 1.150488 0.018510
v 0.267547 1.172782 0.026490
v 0.249527 1.186601 0.039470
v 0.227278 1.172848 0.039512
v 0.244325 1.148754 0.023578
v 0.248429 1.163494 0.036192
v 0.263413 1.160553 0.023542
v 0.259751 1.179701 0.034656
v 0.238399 1.179736 0.041560
v 0.228866 1.160610 0.034714
v 0.196575 1.172655 0.003321
v 0.210328 1.150406 0.003458
v 0.225674 1.150519 0.024640
v 0.221404 1.172837 0.037595
v 0.203421 1.186518 0.024419
v 0.201692 1.160442 0.003393
v 0.206317 1.163418 0.022444
v 0.217120 1.148705 0.014696
v 0.222993 1.160599 0.032796
v 0.211194 1.179687 0.032679
v 0.198029 1.179590 0.014507
v 0.246388 1.191442 -0.039036
v 0.224139 1.177689 -0.038994
v 0.206119 1.191508 -0.026014
v 0.217231 1.213802 -0.018034
v 0.242119 1.213761 -0.026081
v 0.235266 1.184554 -0.041085
v 0.225237 1.200796 -0.035716
v 0.213915 1.184589 -0.034180
v 0.210252 1.203737 -0.023066
v 0.229340 1.215536 -0.023102
v 0.244799 1.203680 -0.034238
v 0.277090 1.191635 -0.002845
v 0.270245 1.177771 -0.023943
v 0.252261 1.191452 -0.037119
v 0.247992 1.213771 -0.024164
v 0.263337 1.213884 -0.002982
v 0.275636 1.184700 -0.014031
v 0.267349 1.200872 -0.021968
v 0.262471 1.184603 -0.032203
v 0.250673 1.203691 -0.032320
v 0.256545 1.215585 -0.014221
v 0.271973 1.203848 -0.002917
v 0.252157 1.191847 0.037537
v 0.270177 1.178028 0.024557
v 0.277081 1.191668 0.003333
v 0.263328 1.213917 0.003196
v 0.247924 1.214028 0.024335
v 0.262381 1.184946 0.032723
v 0.267287 1.201106 0.022330
v 0.275596 1.184851 0.014587
v 0.271965 1.203880 0.003261
v 0.256505 1.215736 0.014397
v 0.250582 1.204034 0.032605
v 0.206046 1.191785 0.026304
v 0.224029 1.178103 0.039480
v 0.246278 1.191857 0.039438
v 0.242046 1.214037 0.026236
v 0.217181 1.213993 0.018119
v 0.213819 1.184953 0.034564
v 0.225137 1.201175 0.035961
v 0.235151 1.184991 0.041528
v 0.244704 1.204044 0.034506
v 0.229275 1.215780 0.023203
v 0.210188 1.203982 0.023238
v 0.202480 1.191534 -0.021021
v 0.195576 1.177894 0.000203
v 0.202421 1.191758 0.021301
v 0.213556 1.213966 0.013116
v 0.213592 1.213828 -0.013040
v 0.197061 1.184710 -0.011051
v 0.199148 1.200984 0.000086
v 0.197029 1.184829 0.011388
v 0.206563 1.203955 0.018235
v 0.212486 1.215657 0.000027
v 0.206613 1.203763 -0.018073
v 0.243736 1.217035 -0.021098
v 0.218848 1.217076 -0.013050
v 0.218811 1.217214 0.013106
v 0.243677 1.217259 0.021223
v 0.259081 1.217148 0.000084
v 0.230957 1.218810 -0.018119
v 0.236830 1.224276 0.000015
v 0.217742 1.218905 0.000017
v 0.230906 1.219002 0.018190
v 0.252258 1.218967 0.011285
v 0.252289 1.218848 -0.011155
v -0.186308 1.174837 0.005444
v -0.192360 1.166903 0.010086
v -0.180000 1.167174 0.010200
v -0.190657 1.172392 0.008735
v -0.186283 1.171427 0.010885
v -0.186197 1.166973 0.012098
v -0.181917 1.172584 0.008815
v -0.183752 1.059928 0.001662
v -0.177783 1.067535 0.006921
v -0.190144 1.067263 0.006808
v -0.179460 1.062147 0.005181
v -0.183870 1.062971 0.007316
v -0.183980 1.067334 0.008819
v -0.188200 1.061955 0.005101
v -0.182908 1.174993 0.003020
v -0.180000 1.167174 0.010200
v -0.176081 1.167647 -0.001517
v -0.181013 1.172625 0.008170
v -0.177573 1.171825 0.004676
v -0.176186 1.167431 0.004963
v -0.178242 1.172960 -0.000115
v -0.180351 1.060083 -0.000762
v -0.173864 1.068007 -0.004796
v -0.177783 1.067535 0.006921
v -0.175785 1.062523 -0.003749
v -0.175160 1.063369 0.001107
v -0.173969 1.067792 0.001684
v -0.178556 1.062189 0.004536
v -0.184165 1.175096 -0.000965
v -0.176081 1.167647 -0.001517
v -0.186020 1.167667 -0.008872
v -0.178576 1.172987 -0.001174
v -0.180794 1.172089 -0.005529
v -0.179888 1.167735 -0.006765
v -0.185604 1.173002 -0.006375
v -0.181608 1.060186 -0.004746
v -0.183803 1.068028 -0.012150
v -0.173864 1.068007 -0.004796
v -0.183147 1.062565 -0.010009
v -0.178381 1.063633 -0.009098
v -0.177671 1.068095 -0.010044
v -0.176119 1.062550 -0.004808
v -0.188343 1.175004 -0.001003
v -0.186020 1.167667 -0.008872
v -0.196081 1.167208 -0.001701
v -0.186715 1.172978 -0.006385
v -0.191495 1.171854 -0.005627
v -0.192186 1.167465 -0.006878
v -0.193829 1.172652 -0.001314
v -0.185786 1.060095 -0.004784
v -0.193864 1.067569 -0.004979
v -0.183803 1.068028 -0.012150
v -0.191372 1.062216 -0.004948
v -0.189082 1.063399 -0.009196
v -0.189969 1.067826 -0.010157
v -0.184258 1.062541 -0.010019
v -0.189668 1.174844 0.002958
v -0.196081 1.167208 -0.001701
v -0.192360 1.166903 0.010086
v -0.194181 1.172610 -0.000261
v -0.194888 1.171445 0.004517
v -0.196085 1.166994 0.004780
v -0.191551 1.172394 0.008074
v -0.187111 1.059935 -0.000824
v -0.190144 1.067263 0.006808
v -0.193864 1.067569 -0.004979
v -0.189094 1.061957 0.004440
v -0.192475 1.062989 0.000948
v -0.193869 1.067355 0.001501
v -0.191724 1.062173 -0.003895
vn 0.1809 -0.9548 -0.2360
vn 0.1028 -0.4556 -0.8843
vn 0.3107 -0.7307 -0.6079
vn 0.0022 0.3505 -0.9366
vn -0.0995 0.9367 -0.3358
vn 0.0975 0.7688 -0.6320
vn 0.1665 -0.9271 0.3359
vn 0.3099 -0.7108 0.6314
vn 0.1028 -0.3356 0.9364
vn -0.0917 0.9675 0.2359
vn -0.0256 0.4665 0.8841
vn 0.0966 0.7887 0.6072
vn 0.1001 -0.9469 -0.3056
vn -0.0966 -0.7887 -0.6072
vn -0.0010 -0.3803 -0.9249
vn -0.1805 0.9467 -0.2668
vn -0.1015 0.4271 -0.8985
vn -0.3100 0.7108 -0.6314
vn 0.0914 -0.9594 0.2667
vn 0.0244 -0.4380 0.8986
vn -0.0975 -0.7688 0.6320
vn -0.1671 0.9374 0.3057
vn -0.3107 0.7307 0.6079
vn -0.1040 0.3654 0.9250
vn 0.1867 -0.9823 0.0158
vn 0.3954 -0.9184 0.0150
vn 0.0570 -0.0080 -0.9983
vn 0.3126 0.0292 -0.9494
vn -0.0945 0.9954 -0.0160
vn 0.1237 0.9922 -0.0158
vn 0.0556 0.0240 0.9982
vn 0.3113 0.0595 0.9485
vn 0.1331 -0.9324 0.3360
vn 0.0630 -0.4329 0.8992
vn -0.1335 0.9427 0.3058
vn -0.0642 0.4614 0.8849
vn -0.3125 -0.0292 0.9495
vn -0.0570 0.0080 0.9983
vn 0.0945 -0.9954 0.0160
vn -0.1236 -0.9922 0.0158
vn -0.1867 0.9823 -0.0158
vn -0.3953 0.9184 -0.0150
vn -0.0556 -0.0240 -0.9982
vn -0.3113 -0.0595 -0.9485
vn 0.1335 -0.9427 -0.3058
vn 0.0642 -0.4614 -0.8849
vn -0.1331 0.9324 -0.3361
vn -0.0630 0.4329 -0.8992
vn 0.1408 -0.9899 0.0159
vn 0.9900 0.1408 -0.0016
vn 0.0007 -0.0160 -0.9999
vn -0.1408 0.9899 -0.0159
vn -0.0007 0.0160 0.9999
vn -0.9900 -0.1408 0.0016
vn -0.1336 -0.9237 -0.3591
vn -0.7579 -0.5887 -0.2811
vn 0.2947 -0.9296 -0.2213
vn 0.2961 -0.9274 0.2287
vn -0.1314 -0.9201 0.3690
vn -0.9243 -0.2715 -0.2681
vn -0.0324 -0.2887 -0.9569
vn 0.8982 -0.2999 -0.3213
vn 0.5815 -0.2896 0.7603
vn -0.5449 -0.2721 0.7931
vn -0.8077 -0.0972 -0.5815
vn 0.3027 -0.1161 -0.9460
vn 0.9925 -0.1220 -0.0024
vn 0.3084 -0.1068 0.9452
vn -0.8042 -0.0914 0.5873
vn -0.4295 0.6023 -0.6729
vn 0.5106 0.5880 -0.6273
vn 0.7579 0.5887 0.2811
vn -0.0295 0.6034 0.7969
vn -0.7634 0.6118 0.2073
vn -0.2947 0.9296 0.2213
vn -0.5290 0.7529 0.3915
vn -0.4255 0.6089 0.6695
vn 0.1336 0.9237 0.3591
vn 0.2202 0.7426 0.6325
vn 0.5144 0.5942 0.6183
vn 0.3970 0.9178 -0.0057
vn 0.6809 0.7324 -0.0057
vn 0.7561 0.5859 -0.2915
vn 0.1314 0.9201 -0.3690
vn 0.2164 0.7363 -0.6411
vn -0.0343 0.5955 -0.8026
vn -0.2961 0.9274 -0.2287
vn -0.5314 0.7491 -0.3956
vn -0.7646 0.6097 -0.2087
vn -0.8982 0.2999 0.3213
vn -0.7943 0.1749 0.5818
vn -0.5769 0.2971 0.7609
vn 0.0324 0.2887 0.9569
vn 0.3103 0.1597 0.9371
vn 0.5497 0.2799 0.7871
vn 0.9243 0.2715 0.2681
vn 0.9895 0.1446 -0.0037
vn 0.9227 0.2689 -0.2764
vn 0.5449 0.2721 -0.7931
vn 0.3046 0.1504 -0.9405
vn 0.0266 0.2793 -0.9598
vn -0.5815 0.2896 -0.7603
vn -0.7978 0.1692 -0.5787
vn -0.9002 0.2967 -0.3188
vn -0.3027 0.1161 0.9460
vn -0.3046 -0.1504 0.9405
vn -0.0266 -0.2793 0.9598
vn 0.8077 0.0972 0.5815
vn 0.7978 -0.1692 0.5787
vn 0.9002 -0.2967 0.3188
vn 0.8042 0.0914 -0.5873
vn 0.7943 -0.1749 -0.5818
vn 0.5769 -0.2971 -0.7609
vn -0.3084 0.1068 -0.9452
vn -0.3103 -0.1597 -0.9371
vn -0.5497 -0.2799 -0.7871
vn -0.9925 0.1220 0.0024
vn -0.9895 -0.1446 0.0037
vn -0.9227 -0.2689 0.2764
vn -0.5107 -0.5880 0.6273
vn -0.2164 -0.7363 0.6411
vn 0.0344 -0.5955 0.8026
vn 0.4295 -0.6023 0.6729
vn 0.5314 -0.7491 0.3956
vn 0.7646 -0.6097 0.2087
vn 0.7634 -0.6118 -0.2073
vn 0.5290 -0.7529 -0.3915
vn 0.4255 -0.6089 -0.6695
vn -0.7561 -0.5859 0.2914
vn -0.6809 -0.7324 0.0057
vn -0.3970 -0.9178 0.0057
vn 0.0295 -0.6034 -0.7969
vn -0.2202 -0.7426 -0.6325
vn -0.5144 -0.5942 -0.6183
vn -0.1481 -0.8864 -0.4386
vn -0.8005 -0.5071 -0.3194
vn 0.3542 -0.8959 -0.2682
vn 0.3473 -0.9004 0.2621
vn -0.1592 -0.8936 0.4196
vn -0.9317 -0.2189 -0.2899
vn -0.0167 -0.2276 -0.9736
vn 0.9162 -0.2482 -0.3147
vn 0.5777 -0.2522 0.7763
vn -0.5643 -0.2341 0.7917
vn -0.7996 -0.0697 -0.5965
vn 0.3186 -0.0845 -0.9441
vn 0.9945 -0.1036 0.0120
vn 0.2941 -0.1005 0.9505
vn -0.8147 -0.0796 0.5744
vn -0.4474 0.5360 -0.7160
vn 0.5527 0.5194 -0.6517
vn 0.8005 0.5071 0.3195
vn -0.0465 0.5160 0.8553
vn -0.8177 0.5338 0.2154
vn -0.3542 0.8959 0.2683
vn -0.5934 0.6785 0.4331
vn -0.4658 0.5239 0.7131
vn 0.1481 0.8864 0.4386
vn 0.2303 0.6629 0.7124
vn 0.5356 0.5082 0.6744
vn 0.4654 0.8850 0.0135
vn 0.7505 0.6606 0.0153
vn 0.8084 0.5122 -0.2901
vn 0.1592 0.8936 -0.4196
vn 0.2484 0.6748 -0.6949
vn -0.0245 0.5304 -0.8474
vn -0.3473 0.9004 -0.2621
vn -0.5822 0.6858 -0.4367
vn -0.8120 0.5376 -0.2274
vn -0.9162 0.2482 0.3147
vn -0.8072 0.1394 0.5735
vn -0.5976 0.2392 0.7653
vn 0.0167 0.2276 0.9736
vn 0.2962 0.1186 0.9477
vn 0.5437 0.2206 0.8098
vn 0.9317 0.2189 0.2899
vn 0.9932 0.1155 0.0138
vn 0.9388 0.2235 -0.2620
vn 0.5643 0.2341 -0.7917
vn 0.3205 0.1345 -0.9376
vn 0.0418 0.2440 -0.9689
vn -0.5777 0.2522 -0.7763
vn -0.7922 0.1493 -0.5917
vn -0.9078 0.2536 -0.3340
vn -0.3186 0.0845 0.9441
vn -0.3205 -0.1345 0.9376
vn -0.0418 -0.2440 0.9689
vn 0.7996 0.0697 0.5965
vn 0.7922 -0.1493 0.5917
vn 0.9078 -0.2536 0.3340
vn 0.8147 0.0796 -0.5744
vn 0.8073 -0.1394 -0.5735
vn 0.5976 -0.2392 -0.7653
vn -0.2941 0.1005 -0.9505
vn -0.2962 -0.1186 -0.9477
vn -0.5437 -0.2206 -0.8098
vn -0.9945 0.1036 -0.0120
vn -0.9932 -0.1155 -0.0138
vn -0.9388 -0.2235 0.2620
vn -0.5527 -0.5194 0.6517
vn -0.2484 -0.6748 0.6949
vn 0.0245 -0.5304 0.8474
vn 0.4474 -0.5360 0.7160
vn 0.5822 -0.6858 0.4367
vn 0.8120 -0.5376 0.2274
vn 0.8177 -0.5338 -0.2154
vn 0.5934 -0.6785 -0.4331
vn 0.4658 -0.5239 -0.7131
vn -0.8084 -0.5122 0.2901
vn -0.7506 -0.6606 -0.0153
vn -0.4654 -0.8850 -0.0135
vn 0.0465 -0.5160 -0.8553
vn -0.2303 -0.6629 -0.7124
vn -0.5356 -0.5082 -0.6744
vn 0.2261 -0.9528 -0.2028
vn 0.2675 -0.9509 0.1558
vn -0.0606 -0.9501 0.3060
vn -0.3049 -0.9515 0.0403
vn -0.1277 -0.9532 -0.2741
vn -0.6797 -0.6667 -0.3058
vn -0.8870 -0.3732 -0.2719
vn -0.8192 -0.1558 -0.5519
vn -0.5700 -0.3150 -0.7589
vn -0.4838 -0.6307 -0.6067
vn 0.4307 -0.6309 -0.6453
vn 0.0841 -0.6690 -0.7385
vn -0.0136 -0.3766 -0.9263
vn 0.2726 -0.1579 -0.9491
vn 0.5472 -0.3150 -0.7755
vn 0.7500 -0.6263 0.2125
vn 0.7318 -0.6658 -0.1458
vn 0.8786 -0.3732 -0.2979
vn 0.9877 -0.1530 -0.0335
vn 0.9082 -0.3094 0.2819
vn 0.0329 -0.6234 0.7812
vn 0.3682 -0.6616 0.6533
vn 0.5567 -0.3677 0.7449
vn 0.3379 -0.1479 0.9295
vn 0.0141 -0.3059 0.9520
vn -0.8994 -0.3094 0.3087
vn -0.7297 -0.6261 0.2749
vn -0.5042 -0.6622 0.5544
vn -0.5345 -0.3677 0.7610
vn -0.7788 -0.1497 0.6091
vn 0.0162 0.3668 -0.9302
vn -0.2699 0.1478 -0.9515
vn -0.5450 0.3068 -0.7803
vn -0.4289 0.6240 -0.6532
vn -0.0820 0.6611 -0.7458
vn 0.8878 0.3703 -0.2733
vn 0.8207 0.1500 -0.5513
vn 0.5721 0.3070 -0.7606
vn 0.4855 0.6243 -0.6120
vn 0.6806 0.6635 -0.3109
vn 0.5324 0.3758 0.7585
vn 0.7771 0.1561 0.6097
vn 0.8986 0.3126 0.3079
vn 0.7289 0.6290 0.2703
vn 0.5026 0.6680 0.5488
vn -0.5588 0.3756 0.7394
vn -0.3405 0.1577 0.9269
vn -0.0168 0.3160 0.9486
vn -0.0350 0.6316 0.7745
vn -0.3700 0.6684 0.6452
vn -0.8778 0.3700 -0.3042
vn -0.9876 0.1526 -0.0379
vn -0.9090 0.3123 0.2761
vn -0.7506 0.6285 0.2038
vn -0.7313 0.6642 -0.1549
vn 0.1285 0.9502 -0.2838
vn -0.2255 0.9506 -0.2135
vn -0.2680 0.9525 0.1450
vn 0.0598 0.9533 0.2961
vn 0.3048 0.9519 0.0311
vn 0.3098 -0.8425 -0.4407
vn 0.0126 -0.8430 -0.5377
vn -0.5116 -0.8412 -0.1751
vn -0.3276 -0.8425 -0.4277
vn -0.2838 -0.3910 -0.8756
vn -0.2332 -0.6560 -0.7178
vn -0.9223 -0.3864 0.0008
vn -0.7580 -0.6523 0.0024
vn -0.3288 -0.8379 0.4356
vn -0.5121 -0.8393 0.1825
vn 0.5191 -0.8393 0.1614
vn 0.5195 -0.8410 -0.1511
vn 0.7470 -0.3891 -0.5391
vn 0.6139 -0.6545 -0.4413
vn 0.0112 -0.8373 0.5466
vn 0.3085 -0.8378 0.4504
vn 0.7455 -0.3834 0.5452
vn 0.6127 -0.6498 0.4499
vn -0.2862 -0.3817 0.8788
vn -0.2352 -0.6484 0.7241
vn -0.8977 0.0798 -0.4333
vn -0.9802 -0.0832 -0.1797
vn -0.8989 0.0844 0.4300
vn -0.9807 -0.0813 0.1779
vn 0.1343 0.0769 -0.9879
vn -0.1316 -0.0874 -0.9875
vn -0.6871 0.0783 -0.7223
vn -0.4718 -0.0868 -0.8774
vn 0.9807 0.0813 -0.1779
vn 0.8989 -0.0844 -0.4300
vn 0.4742 0.0776 -0.8770
vn 0.6891 -0.0859 -0.7196
vn 0.4718 0.0868 0.8774
vn 0.6871 -0.0783 0.7223
vn 0.9802 0.0832 0.1797
vn 0.8977 -0.0798 0.4333
vn -0.6891 0.0859 0.7195
vn -0.4742 -0.0776 0.8770
vn 0.1315 0.0874 0.9875
vn -0.1343 -0.0769 0.9879
vn -0.6127 0.6498 -0.4499
vn -0.7455 0.3834 -0.5452
vn 0.2352 0.6484 -0.7241
vn 0.2862 0.3817 -0.8788
vn 0.7580 0.6523 -0.0024
vn 0.9223 0.3864 -0.0008
vn 0.2332 0.6560 0.7178
vn 0.2838 0.3910 0.8756
vn -0.6139 0.6545 0.4413
vn -0.7470 0.3891 0.5391
vn -0.0111 0.8373 -0.5466
vn -0.3085 0.8378 -0.4504
vn -0.5195 0.8410 0.1511
vn -0.5191 0.8393 -0.1614
vn 0.5121 0.8393 -0.1825
vn 0.3288 0.8379 -0.4356
vn 0.3276 0.8425 0.4277
vn 0.5116 0.8412 0.1751
vn -0.3098 0.8425 0.4407
vn -0.0126 0.8431 0.5377
vn 0.4917 -0.7965 -0.3520
vn -0.1867 -0.7977 -0.5734
vn -0.6070 -0.7947 0.0034
vn 0.4907 -0.7927 0.3617
vn -0.1884 -0.7916 0.5813
vn -0.9822 -0.1877 -0.0004
vn -0.7939 0.1845 -0.5794
vn -0.3022 -0.1925 -0.9336
vn 0.3048 0.1827 -0.9347
vn 0.7955 -0.1906 -0.5752
vn 0.9822 0.1877 0.0004
vn 0.7939 -0.1845 0.5795
vn 0.3022 0.1925 0.9336
vn -0.3048 -0.1827 0.9347
vn -0.7955 0.1906 0.5753
vn 0.1883 0.7916 -0.5813
vn -0.4907 0.7927 -0.3617
vn 0.6070 0.7947 -0.0034
vn 0.1868 0.7977 0.5734
vn -0.4917 0.7965 0.3519
vn 0.0271 0.8471 0.5308
vn -0.3580 0.3264 0.8748
vn 0.2754 0.2577 0.9262
vn -0.0355 -0.8803 0.4731
vn 0.3433 -0.3837 0.8572
vn -0.2908 -0.3182 0.9023
vn 0.4731 0.8698 0.1400
vn 0.7050 0.3587 0.6118
vn 0.9528 0.3024 0.0254
vn 0.4794 -0.8591 0.1790
vn 0.9383 -0.3403 -0.0615
vn 0.7819 -0.2829 0.5556
vn 0.2388 0.8826 -0.4050
vn 0.7825 0.3964 -0.4802
vn 0.3049 0.3183 -0.8976
vn 0.3584 -0.8427 -0.4017
vn 0.2477 -0.3276 -0.9117
vn 0.7827 -0.2458 -0.5718
vn -0.3520 0.8676 -0.3511
vn -0.2325 0.3873 -0.8921
vn -0.7731 0.2835 -0.5674
vn -0.2314 -0.8537 -0.4665
vn -0.7741 -0.3633 -0.5185
vn -0.2895 -0.2581 -0.9217
vn -0.4829 0.8457 0.2273
vn -0.9373 0.3441 -0.0547
vn -0.7913 0.2460 0.5597
vn -0.4748 -0.8769 0.0742
vn -0.7150 -0.3980 0.5748
vn -0.9530 -0.3029 -0.0107
vn 0.5251 0.3808 0.7611
vn 0.2044 0.9158 0.3457
vn 0.5426 -0.4063 0.7352
vn 0.2453 -0.9266 0.2850
vn -0.3097 -0.0382 0.9501
vn 0.2935 -0.0249 0.9556
vn 0.9996 0.0217 0.0169
vn 0.8084 -0.0014 0.5887
vn -0.0000 1.0000 -0.0000
vn 0.3489 0.9332 -0.0860
vn 0.9487 -0.3162 -0.0000
vn 0.3899 -0.9091 -0.1466
vn 0.3243 0.0383 -0.9452
vn 0.8093 0.0373 -0.5863
vn -0.0000 0.1563 -0.9877
vn -0.0173 0.9340 -0.3569
vn 0.0165 -0.3632 -0.9316
vn 0.0236 -0.9084 -0.4175
vn -0.7992 0.0020 -0.6010
vn -0.3082 0.0244 -0.9510
vn -0.9903 0.1393 -0.0000
vn -0.3878 0.9171 -0.0928
vn -0.0000 -1.0000 -0.0000
vn -0.3469 -0.9253 -0.1533
vn -0.8182 -0.0371 0.5737
vn -0.9998 -0.0222 -0.0015
vn -0.5551 0.3571 0.7512
vn -0.2508 0.9058 0.3415
vn -0.5377 -0.4300 0.7253
vn -0.2098 -0.9365 0.2808
vn -0.0222 0.9992 0.0329
vn -0.9976 -0.0697 -0.0000
vn 0.0222 -0.9992 -0.0329
vn 0.9997 0.0258 -0.0000
vn -0.9997 -0.0260 -0.0000
vn 0.1670 -0.9374 -0.3057
vn 0.1040 -0.3654 -0.9250
vn 0.3895 -0.7030 -0.5950
vn -0.0243 0.4380 -0.8986
vn -0.0914 0.9594 -0.2667
vn 0.1808 0.7646 -0.6186
vn 0.1805 -0.9467 0.2668
vn 0.3887 -0.6835 0.6178
vn 0.1015 -0.4271 0.8985
vn -0.1000 0.9469 0.3056
vn 0.0010 0.3803 0.9249
vn 0.1801 0.7840 0.5941
vn 0.0917 -0.9675 -0.2359
vn -0.1802 -0.7840 -0.5941
vn 0.0256 -0.4665 -0.8841
vn -0.1665 0.9271 -0.3359
vn -0.1028 0.3356 -0.9364
vn -0.3887 0.6835 -0.6178
vn 0.0995 -0.9367 0.3358
vn -0.0022 -0.3505 0.9366
vn -0.1809 -0.7646 0.6186
vn -0.1809 0.9548 0.2360
vn -0.3896 0.7030 0.5950
vn -0.1027 0.4556 0.8843
vn 0.3953 -0.9185 0.0150
vn 0.3126 0.0292 -0.9495
vn -0.0946 0.9954 -0.0160
vn 0.1238 0.9922 -0.0158
vn 0.1331 -0.9324 0.3361
vn -0.3126 -0.0292 0.9494
vn 0.0946 -0.9954 0.0160
vn -0.1238 -0.9922 0.0158
vn -0.3954 0.9184 -0.0150
vn -0.1331 0.9324 -0.3360
vn 0.2680 -0.9525 -0.1450
vn 0.2255 -0.9506 0.2135
vn -0.1285 -0.9502 0.2838
vn -0.3048 -0.9519 -0.0311
vn -0.0598 -0.9533 -0.2961
vn -0.7289 -0.6290 -0.2703
vn -0.8986 -0.3126 -0.3079
vn -0.7771 -0.1561 -0.6097
vn -0.5324 -0.3758 -0.7585
vn -0.5026 -0.6680 -0.5488
vn 0.3700 -0.6684 -0.6452
vn 0.0350 -0.6316 -0.7745
vn 0.0168 -0.3160 -0.9486
vn 0.3404 -0.1577 -0.9269
vn 0.5587 -0.3756 -0.7394
vn 0.7313 -0.6642 0.1549
vn 0.7506 -0.6285 -0.2038
vn 0.9090 -0.3123 -0.2761
vn 0.9876 -0.1526 0.0379
vn 0.8778 -0.3700 0.3042
vn 0.0821 -0.6611 0.7458
vn 0.4289 -0.6240 0.6532
vn 0.5450 -0.3068 0.7803
vn 0.2699 -0.1478 0.9515
vn -0.0162 -0.3668 0.9302
vn -0.8878 -0.3703 0.2734
vn -0.6806 -0.6635 0.3109
vn -0.4855 -0.6243 0.6120
vn -0.5721 -0.3070 0.7606
vn -0.8207 -0.1500 0.5513
vn -0.0141 0.3059 -0.9520
vn -0.3379 0.1479 -0.9295
vn -0.5567 0.3677 -0.7449
vn -0.3682 0.6616 -0.6533
vn -0.0329 0.6234 -0.7812
vn 0.8994 0.3094 -0.3087
vn 0.7788 0.1497 -0.6091
vn 0.5345 0.3677 -0.7610
vn 0.5042 0.6622 -0.5544
vn 0.7297 0.6261 -0.2749
vn 0.5700 0.3150 0.7589
vn 0.8192 0.1558 0.5519
vn 0.8870 0.3732 0.2719
vn 0.6797 0.6667 0.3058
vn 0.4838 0.6307 0.6067
vn -0.5472 0.3150 0.7755
vn -0.2726 0.1579 0.9491
vn 0.0136 0.3766 0.9263
vn -0.0841 0.6690 0.7385
vn -0.4307 0.6309 0.6453
vn -0.9082 0.3094 -0.2819
vn -0.9877 0.1530 0.0335
vn -0.8786 0.3732 0.2979
vn -0.7318 0.6658 0.1458
vn -0.7500 0.6263 -0.2125
vn 0.0606 0.9501 -0.3060
vn -0.2676 0.9509 -0.1558
vn -0.2261 0.9528 0.2028
vn 0.1278 0.9532 0.2741
vn 0.3049 0.9515 -0.0403
vn 0.0126 -0.8431 -0.5377
vn -0.9223 -0.3864 0.0007
vn -0.7580 -0.6522 0.0024
vn -0.5122 -0.8393 0.1825
vn 0.0111 -0.8373 0.5466
vn -0.1315 -0.0874 -0.9875
vn 0.6891 -0.0859 -0.7195
vn -0.6891 0.0859 0.7196
vn 0.1316 0.0874 0.9874
vn -0.5196 0.8410 0.1511
vn -0.5192 0.8393 -0.1614
vn 0.5117 0.8412 0.1751
vn -0.0127 0.8430 0.5377
vn -0.0739 0.8448 0.5299
vn -0.3034 0.2450 0.9209
vn 0.3272 0.3414 0.8811
vn 0.0654 -0.8781 0.4740
vn 0.2879 -0.3055 0.9076
vn -0.3418 -0.3988 0.8510
vn 0.4410 0.8660 0.2358
vn 0.7693 0.2802 0.5741
vn 0.9222 0.3849 -0.0376
vn 0.5114 -0.8553 0.0832
vn 0.9654 -0.2608 0.0069
vn 0.7211 -0.3665 0.5880
vn 0.3199 0.8824 -0.3449
vn 0.7702 0.3174 -0.5532
vn 0.2316 0.3975 -0.8879
vn 0.2771 -0.8426 -0.4618
vn 0.3174 -0.2448 -0.9162
vn 0.7986 -0.3288 -0.5041
vn -0.2698 0.8714 -0.4097
vn -0.3020 0.3050 -0.9032
vn -0.7902 0.3619 -0.4946
vn -0.3136 -0.8575 -0.4079
vn -0.7606 -0.2797 -0.5859
vn -0.2163 -0.3378 -0.9160
vn -0.5132 0.8482 0.1310
vn -0.9655 0.2603 0.0078
vn -0.7311 0.3272 0.5987
vn -0.4444 -0.8794 0.1705
vn -0.7788 -0.3172 0.5412
vn -0.9212 -0.3811 -0.0786
vn 1.0000 0.0039 -0.0000
vn 0.2045 0.9158 0.3456
vn 0.2455 -0.9265 0.2850
vn 0.8676 0.4222 -0.2629
vn 0.8851 -0.3650 -0.2888
vn -0.0009 0.4240 -0.9057
vn -0.0171 0.9340 -0.3569
vn 0.0238 -0.9084 -0.4175
vn -0.8803 0.3838 -0.2790
vn -0.3878 0.9170 -0.0927
vn -0.8628 -0.4034 -0.3048
vn 1.0000 -0.0000 -0.0000
vn -1.0000 -0.0039 -0.0000
vn -0.2097 -0.9366 0.2808
vn 0.9999 0.0131 -0.0000
vn 0.0223 -0.9992 -0.0329
vn 0.0221 -0.9992 -0.0329
vn 0.9998 0.0176 -0.0000
vn -0.9998 -0.0176 -0.0000
vt 0.128500 0.746500
vt 0.126479 0.750000
vt 0.125000 0.746500
vt 0.378500 0.996500
vt 0.376479 1.000000
vt 0.375000 0.996500
vt 0.375000 0.003500
vt 0.378500 0.000000
vt 0.378500 0.003500
vt 0.621500 0.996500
vt 0.625000 0.998521
vt 0.621500 1.000000
vt 0.871500 0.746500
vt 0.875000 0.748521
vt 0.871500 0.750000
vt 0.621500 0.000000
vt 0.625000 0.003500
vt 0.621500 0.003500
vt 0.128500 0.503500
vt 0.125000 0.501479
vt 0.128500 0.500000
vt 0.378500 0.250000
vt 0.375000 0.246500
vt 0.378500 0.246500
vt 0.378500 0.253500
vt 0.375740 0.250740
vt 0.871500 0.503500
vt 0.873521 0.500000
vt 0.875000 0.503500
vt 0.621500 0.253500
vt 0.624260 0.249260
vt 0.625000 0.253500
vt 0.625000 0.246500
vt 0.621500 0.250000
vt 0.621500 0.246500
vt 0.371500 0.746500
vt 0.375493 0.750000
vt 0.373250 0.751750
vt 0.378500 0.750000
vt 0.375000 0.746500
vt 0.378500 0.746500
vt 0.378500 0.753500
vt 0.628500 0.746500
vt 0.625000 0.749507
vt 0.625000 0.746500
vt 0.621500 0.753500
vt 0.626750 0.751750
vt 0.621500 0.750000
vt 0.621500 0.746500
vt 0.371500 0.503500
vt 0.375000 0.500493
vt 0.375000 0.503500
vt 0.378500 0.496500
vt 0.373250 0.498250
vt 0.378500 0.500000
vt 0.378500 0.503500
vt 0.628500 0.503500
vt 0.624507 0.500000
vt 0.626750 0.498250
vt 0.621500 0.500000
vt 0.625000 0.503500
vt 0.621500 0.503500
vt 0.621500 0.496500
vt 0.125000 0.503500
vt 0.378500 1.000000
vt 0.875000 0.746500
vt 0.375000 0.253500
vt 0.871500 0.500000
vt 0.128500 0.750000
vt 0.181819 0.000000
vt 0.227273 0.078731
vt 0.136365 0.078731
vt 0.272728 0.157461
vt 0.318182 0.078731
vt 0.363637 0.157461
vt 0.909091 0.000000
vt 0.954545 0.078731
vt 0.863636 0.078731
vt 0.727273 0.000000
vt 0.772727 0.078731
vt 0.681818 0.078731
vt 0.545455 0.000000
vt 0.590909 0.078731
vt 0.500000 0.078731
vt 0.318182 0.236191
vt 0.090910 0.157461
vt 0.181819 0.157461
vt 0.136365 0.236191
vt 0.818182 0.157461
vt 0.909091 0.157461
vt 0.863636 0.236191
vt 0.636364 0.157461
vt 0.727273 0.157461
vt 0.681818 0.236191
vt 0.454546 0.157461
vt 0.545455 0.157461
vt 0.500000 0.236191
vt 0.227273 0.236191
vt 0.045455 0.236191
vt 0.772727 0.236191
vt 0.590909 0.236191
vt 0.409092 0.236191
vt 0.181819 0.314921
vt 0.272728 0.314921
vt 0.227273 0.393651
vt 0.000000 0.314921
vt 0.090910 0.314921
vt 0.045455 0.393651
vt 0.727273 0.314921
vt 0.818182 0.314921
vt 0.772727 0.393651
vt 0.545455 0.314921
vt 0.636364 0.314921
vt 0.590909 0.393651
vt 0.363637 0.314921
vt 0.454546 0.314921
vt 0.409092 0.393651
vt 0.500000 0.393651
vt 0.454546 0.472382
vt 0.681818 0.393651
vt 0.636364 0.472382
vt 0.863636 0.393651
vt 0.818182 0.472382
vt 0.909091 0.314921
vt 0.136365 0.393651
vt 0.090910 0.472382
vt 0.318182 0.393651
vt 0.272728 0.472382
vt 0.954545 0.236191
vt 1.000000 0.157461
vt 0.409092 0.078731
vt 0.363637 0.000000
vt 0.909091 0.093112
vt 0.900465 0.014941
vt 0.949409 0.069834
vt 0.727273 0.093112
vt 0.718647 0.014941
vt 0.767591 0.069834
vt 0.545455 0.093113
vt 0.536829 0.014941
vt 0.585773 0.069834
vt 0.363637 0.093113
vt 0.355011 0.014941
vt 0.403956 0.069835
vt 0.181819 0.093113
vt 0.173193 0.014941
vt 0.222138 0.069835
vt 0.353365 0.110905
vt 0.271003 0.160449
vt 0.272728 0.087627
vt 0.353365 0.204016
vt 0.353365 0.157461
vt 0.272728 0.250572
vt 0.313046 0.227294
vt 0.192091 0.204016
vt 0.232410 0.227294
vt 0.192091 0.110905
vt 0.192091 0.157461
vt 0.919364 0.110905
vt 0.987061 0.149991
vt 0.919364 0.157461
vt 0.171547 0.110905
vt 0.096661 0.167422
vt 0.131228 0.087627
vt 0.171546 0.204016
vt 0.171546 0.157461
vt 0.090910 0.250573
vt 0.131228 0.227295
vt 0.919364 0.204016
vt 0.959682 0.227295
vt 0.737545 0.110905
vt 0.816457 0.160449
vt 0.737546 0.157461
vt 0.898819 0.110905
vt 0.818182 0.087627
vt 0.898818 0.204016
vt 0.898818 0.157461
vt 0.818182 0.250573
vt 0.858500 0.227295
vt 0.737546 0.204016
vt 0.777864 0.227295
vt 0.555727 0.110905
vt 0.634639 0.160449
vt 0.555728 0.157461
vt 0.717000 0.110905
vt 0.636364 0.087627
vt 0.717000 0.204016
vt 0.717000 0.157461
vt 0.636364 0.250573
vt 0.676682 0.227295
vt 0.555728 0.204016
vt 0.596046 0.227295
vt 0.373909 0.204016
vt 0.452821 0.160449
vt 0.414228 0.227294
vt 0.373909 0.110905
vt 0.373909 0.157461
vt 0.535183 0.110905
vt 0.454546 0.087627
vt 0.535183 0.204016
vt 0.535183 0.157461
vt 0.454546 0.250572
vt 0.494864 0.227294
vt 0.101183 0.268366
vt 0.183544 0.311933
vt 0.101182 0.314921
vt 0.181819 0.221809
vt 0.141501 0.245087
vt 0.262455 0.268366
vt 0.222137 0.245087
vt 0.262455 0.361477
vt 0.262455 0.314921
vt 0.101182 0.361477
vt 0.181819 0.384755
vt 0.828454 0.268366
vt 0.903340 0.304960
vt 0.828454 0.314921
vt 0.909091 0.221810
vt 0.868773 0.245088
vt 0.080637 0.268366
vt 0.012939 0.322391
vt 0.040318 0.245088
vt 0.080637 0.361477
vt 0.080637 0.314921
vt 0.828454 0.361477
vt 0.868773 0.384755
vt 0.646636 0.268366
vt 0.728998 0.311933
vt 0.646636 0.314921
vt 0.727273 0.221810
vt 0.686955 0.245088
vt 0.807910 0.268366
vt 0.767591 0.245088
vt 0.807910 0.361477
vt 0.807910 0.314921
vt 0.646636 0.361477
vt 0.727273 0.384755
vt 0.464819 0.268366
vt 0.547180 0.311933
vt 0.464819 0.314921
vt 0.545455 0.221809
vt 0.505137 0.245087
vt 0.626091 0.268366
vt 0.585773 0.245087
vt 0.626092 0.361477
vt 0.626091 0.314921
vt 0.464819 0.361477
vt 0.545455 0.384755
vt 0.283001 0.268366
vt 0.365362 0.311933
vt 0.283001 0.314921
vt 0.363637 0.221809
vt 0.323319 0.245087
vt 0.444273 0.268366
vt 0.403955 0.245087
vt 0.444274 0.361477
vt 0.444273 0.314921
vt 0.283000 0.361477
vt 0.363637 0.384756
vt 0.090910 0.379269
vt 0.099536 0.457441
vt 0.050591 0.402547
vt 0.272728 0.379270
vt 0.281354 0.457441
vt 0.232410 0.402548
vt 0.454546 0.379270
vt 0.463172 0.457441
vt 0.414228 0.402548
vt 0.636364 0.379269
vt 0.644990 0.457441
vt 0.596046 0.402548
vt 0.818182 0.379269
vt 0.826808 0.457441
vt 0.777863 0.402547
vt 0.959682 0.087627
vt 0.141501 0.069834
vt 0.323318 0.069835
vt 0.505136 0.069835
vt 0.050591 0.227295
vt 0.131228 0.402548
vt 0.858501 0.402547
vt 0.676683 0.402547
vt 0.494864 0.402548
vt 0.750000 0.315630
vt 0.715812 0.465161
vt 0.855826 0.413113
vt 0.100000 0.533223
vt 0.000000 0.514042
vt 0.092727 0.500000
vt 0.900000 0.533223
vt 0.970044 0.500000
vt 1.000000 0.533223
vt 0.250000 0.315630
vt 0.284188 0.465161
vt 0.144174 0.413113
vt 0.900000 0.966777
vt 1.000000 0.985958
vt 0.907273 1.000000
vt 0.100000 0.966777
vt 0.029956 1.000000
vt 0.000000 0.966777
vt 0.812418 0.270281
vt 0.944066 0.349003
vt 0.937832 0.199758
vt 0.900000 0.533223
vt 0.785022 0.507021
vt 0.892727 0.500000
vt 0.700000 0.533223
vt 0.800000 0.533223
vt 0.312418 0.270281
vt 0.465195 0.283974
vt 0.372427 0.401051
vt 0.700000 0.966777
vt 0.814978 0.992979
vt 0.707273 1.000000
vt 0.900000 0.966777
vt 0.800000 0.966777
vt 0.788576 0.196904
vt 0.904127 0.096026
vt 0.760260 0.055836
vt 0.700000 0.533223
vt 0.585022 0.507021
vt 0.692727 0.500000
vt 0.500000 0.533223
vt 0.600000 0.533223
vt 0.288576 0.196904
vt 0.348810 0.055836
vt 0.431491 0.180242
vt 0.500000 0.966777
vt 0.614978 0.992979
vt 0.507273 1.000000
vt 0.700000 0.966777
vt 0.600000 0.966777
vt 0.711424 0.196904
vt 0.651190 0.055836
vt 0.568509 0.180242
vt 0.500000 0.533223
vt 0.385022 0.507021
vt 0.492727 0.500000
vt 0.300000 0.533223
vt 0.400000 0.533223
vt 0.211424 0.196904
vt 0.095873 0.096026
vt 0.239740 0.055836
vt 0.300000 0.966777
vt 0.414978 0.992979
vt 0.307273 1.000000
vt 0.400000 0.966777
vt 0.687582 0.270281
vt 0.534805 0.283974
vt 0.627573 0.401051
vt 0.300000 0.533223
vt 0.185022 0.507021
vt 0.292727 0.500000
vt 0.100000 0.533223
vt 0.200000 0.533223
vt 0.187582 0.270281
vt 0.055934 0.349003
vt 0.062169 0.199758
vt 0.100000 0.966777
vt 0.214978 0.992979
vt 0.107273 1.000000
vt 0.300000 0.966777
vt 0.200000 0.966777
vt 0.907273 0.500000
vt 0.872427 0.401051
vt 0.892727 1.000000
vt 0.355826 0.413113
vt 0.000000 0.533223
vt 1.000000 0.966777
vt 0.707273 0.500000
vt 0.692727 1.000000
vt 0.507273 0.500000
vt 0.492727 1.000000
vt 0.260260 0.055836
vt 0.307273 0.500000
vt 0.562168 0.199758
vt 0.292727 1.000000
vt 0.068509 0.180242
vt 0.107273 0.500000
vt 0.092727 1.000000
vt 0.375000 0.001479
vt 0.625000 0.996500
vt 0.623521 0.000000
vt 0.868773 0.069834
vt 0.686954 0.069834
vt 0.949409 0.245088
vt 0.040319 0.384755
vt 0.313046 0.402548
vt 0.644174 0.413113
vt 0.437831 0.199758
vt 0.931491 0.180242
vt 0.739740 0.055836
vt 0.127573 0.401051
s 0
usemtl core
f 1/1/1 5/2/1 7/3/1
f 2/4/2 5/5/2 4/6/2
f 7/7/3 6/8/3 3/9/3
f 8/10/4 12/11/4 14/12/4
f 9/13/5 12/14/5 11/15/5
f 14/16/6 13/17/6 10/18/6
f 15/19/7 19/20/7 21/21/7
f 20/22/8 18/23/8 16/24/8
f 17/25/9 19/26/9 20/22/9
f 22/27/10 26/28/10 28/29/10
f 23/30/11 26/31/11 25/32/11
f 28/33/12 27/34/12 24/35/12
f 29/36/13 33/37/13 35/38/13
f 34/39/14 32/40/14 30/41/14
f 31/42/15 33/37/15 34/39/15
f 36/43/16 40/44/16 42/45/16
f 37/46/17 40/44/17 39/47/17
f 42/45/18 41/48/18 38/49/18
f 43/50/19 47/51/19 49/52/19
f 44/53/20 47/51/20 46/54/20
f 49/52/21 48/55/21 45/56/21
f 50/57/22 54/58/22 56/59/22
f 55/60/23 53/61/23 51/62/23
f 52/63/24 54/58/24 55/60/24
f 1/1/25 18/64/25 15/19/25
f 18/23/26 3/9/26 16/24/26
f 2/4/27 14/12/27 6/65/27
f 6/8/28 10/18/28 3/9/28
f 22/27/29 13/66/29 9/13/29
f 28/33/30 10/18/30 13/17/30
f 23/30/31 20/22/31 27/34/31
f 20/22/32 24/35/32 27/34/32
f 43/50/33 21/21/33 46/54/33
f 21/67/34 44/53/34 46/54/34
f 50/57/35 25/68/35 22/27/35
f 25/32/36 52/63/36 23/30/36
f 51/62/37 48/55/37 55/60/37
f 55/60/38 44/53/38 52/63/38
f 29/36/39 49/52/39 32/40/39
f 49/52/40 30/41/40 32/40/40
f 36/43/41 53/61/41 50/57/41
f 42/45/42 51/62/42 53/61/42
f 37/46/43 34/39/43 41/48/43
f 41/48/44 30/41/44 38/49/44
f 1/1/45 35/38/45 4/69/45
f 35/38/46 2/4/46 4/6/46
f 9/13/47 39/47/47 36/43/47
f 39/47/48 8/10/48 37/46/48
f 15/19/49 29/36/49 1/1/49
f 3/9/50 24/35/50 16/24/50
f 37/46/51 2/4/51 31/42/51
f 22/27/52 36/43/52 50/57/52
f 23/30/53 44/53/53 17/25/53
f 45/56/54 38/49/54 30/41/54
f 57/70/55 70/71/55 69/72/55
f 58/73/56 70/74/56 72/75/56
f 57/76/57 69/77/57 74/78/57
f 57/79/58 74/80/58 76/81/58
f 57/82/59 76/83/59 73/84/59
f 58/73/60 72/75/60 79/85/60
f 59/86/61 71/87/61 81/88/61
f 60/89/62 75/90/62 83/91/62
f 61/92/63 77/93/63 85/94/63
f 62/95/64 78/96/64 87/97/64
f 58/73/65 79/85/65 82/98/65
f 59/86/66 81/88/66 84/99/66
f 60/89/67 83/91/67 86/100/67
f 61/92/68 85/94/68 88/101/68
f 62/95/69 87/97/69 80/102/69
f 63/103/70 89/104/70 94/105/70
f 64/106/71 90/107/71 96/108/71
f 65/109/72 91/110/72 97/111/72
f 66/112/73 92/113/73 98/114/73
f 67/115/74 93/116/74 95/117/74
f 95/117/75 98/118/75 68/119/75
f 95/117/76 93/116/76 98/118/76
f 93/116/77 66/112/77 98/118/77
f 98/114/78 97/120/78 68/121/78
f 98/114/79 92/113/79 97/120/79
f 92/113/80 65/109/80 97/120/80
f 97/111/81 96/122/81 68/123/81
f 97/111/82 91/110/82 96/122/82
f 91/110/83 64/124/83 96/122/83
f 96/108/84 94/125/84 68/126/84
f 96/108/85 90/107/85 94/125/85
f 90/107/86 63/103/86 94/125/86
f 94/105/87 95/127/87 68/128/87
f 94/105/88 89/104/88 95/127/88
f 89/104/89 67/115/89 95/127/89
f 80/102/90 93/116/90 67/115/90
f 80/102/91 87/97/91 93/116/91
f 87/97/92 66/112/92 93/116/92
f 88/101/93 92/113/93 66/112/93
f 88/101/94 85/94/94 92/113/94
f 85/94/95 65/109/95 92/113/95
f 86/100/96 91/110/96 65/109/96
f 86/100/97 83/91/97 91/110/97
f 83/91/98 64/124/98 91/110/98
f 84/99/99 90/107/99 64/106/99
f 84/99/100 81/88/100 90/107/100
f 81/88/101 63/103/101 90/107/101
f 82/98/102 89/104/102 63/103/102
f 82/98/103 79/85/103 89/104/103
f 79/85/104 67/115/104 89/104/104
f 87/97/105 88/101/105 66/112/105
f 87/97/106 78/96/106 88/101/106
f 78/96/107 61/92/107 88/101/107
f 85/94/108 86/100/108 65/109/108
f 85/94/109 77/93/109 86/100/109
f 77/93/110 60/89/110 86/100/110
f 83/91/111 84/129/111 64/124/111
f 83/91/112 75/90/112 84/129/112
f 75/90/113 59/130/113 84/129/113
f 81/88/114 82/98/114 63/103/114
f 81/88/115 71/87/115 82/98/115
f 71/87/116 58/73/116 82/98/116
f 79/85/117 80/102/117 67/115/117
f 79/85/118 72/75/118 80/102/118
f 72/75/119 62/95/119 80/102/119
f 73/84/120 78/96/120 62/95/120
f 73/84/121 76/83/121 78/96/121
f 76/83/122 61/92/122 78/96/122
f 76/81/123 77/93/123 61/92/123
f 76/81/124 74/80/124 77/93/124
f 74/80/125 60/89/125 77/93/125
f 74/78/126 75/90/126 60/89/126
f 74/78/127 69/77/127 75/90/127
f 69/77/128 59/130/128 75/90/128
f 72/75/129 73/131/129 62/95/129
f 72/75/130 70/74/130 73/131/130
f 70/74/131 57/132/131 73/131/131
f 69/72/132 71/87/132 59/86/132
f 69/72/133 70/71/133 71/87/133
f 70/71/134 58/73/134 71/87/134
f 99/70/135 112/71/135 111/72/135
f 100/73/136 112/74/136 114/75/136
f 99/76/137 111/77/137 116/78/137
f 99/79/138 116/80/138 118/81/138
f 99/82/139 118/83/139 115/84/139
f 100/73/140 114/75/140 121/85/140
f 101/86/141 113/87/141 123/88/141
f 102/89/142 117/90/142 125/91/142
f 103/92/143 119/93/143 127/94/143
f 104/95/144 120/96/144 129/97/144
f 100/73/145 121/85/145 124/98/145
f 101/86/146 123/88/146 126/99/146
f 102/89/147 125/91/147 128/100/147
f 103/92/148 127/94/148 130/101/148
f 104/95/149 129/97/149 122/102/149
f 105/103/150 131/104/150 136/105/150
f 106/106/151 132/107/151 138/108/151
f 107/109/152 133/110/152 139/111/152
f 108/112/153 134/113/153 140/114/153
f 109/115/154 135/116/154 137/117/154
f 137/117/155 140/118/155 110/119/155
f 137/117/156 135/116/156 140/118/156
f 135/116/157 108/112/157 140/118/157
f 140/114/158 139/120/158 110/121/158
f 140/114/159 134/113/159 139/120/159
f 134/113/160 107/109/160 139/120/160
f 139/111/161 138/122/161 110/123/161
f 139/111/162 133/110/162 138/122/162
f 133/110/163 106/124/163 138/122/163
f 138/108/164 136/125/164 110/126/164
f 138/108/165 132/107/165 136/125/165
f 132/107/166 105/103/166 136/125/166
f 136/105/167 137/127/167 110/128/167
f 136/105/168 131/104/168 137/127/168
f 131/104/169 109/115/169 137/127/169
f 122/102/170 135/116/170 109/115/170
f 122/102/171 129/97/171 135/116/171
f 129/97/172 108/112/172 135/116/172
f 130/101/173 134/113/173 108/112/173
f 130/101/174 127/94/174 134/113/174
f 127/94/175 107/109/175 134/113/175
f 128/100/176 133/110/176 107/109/176
f 128/100/177 125/91/177 133/110/177
f 125/91/178 106/124/178 133/110/178
f 126/99/179 132/107/179 106/106/179
f 126/99/180 123/88/180 132/107/180
f 123/88/181 105/103/181 132/107/181
f 124/98/182 131/104/182 105/103/182
f 124/98/183 121/85/183 131/104/183
f 121/85/184 109/115/184 131/104/184
f 129/97/185 130/101/185 108/112/185
f 129/97/186 120/96/186 130/101/186
f 120/96/187 103/92/187 130/101/187
f 127/94/188 128/100/188 107/109/188
f 127/94/189 119/93/189 128/100/189
f 119/93/190 102/89/190 128/100/190
f 125/91/191 126/129/191 106/124/191
f 125/91/192 117/90/192 126/129/192
f 117/90/193 101/130/193 126/129/193
f 123/88/194 124/98/194 105/103/194
f 123/88/195 113/87/195 124/98/195
f 113/87/196 100/73/196 124/98/196
f 121/85/197 122/102/197 109/115/197
f 121/85/198 114/75/198 122/102/198
f 114/75/199 104/95/199 122/102/199
f 115/84/200 120/96/200 104/95/200
f 115/84/201 118/83/201 120/96/201
f 118/83/202 103/92/202 120/96/202
f 118/81/203 119/93/203 103/92/203
f 118/81/204 116/80/204 119/93/204
f 116/80/205 102/89/205 119/93/205
f 116/78/206 117/90/206 102/89/206
f 116/78/207 111/77/207 117/90/207
f 111/77/208 101/130/208 117/90/208
f 114/75/209 115/131/209 104/95/209
f 114/75/210 112/74/210 115/131/210
f 112/74/211 99/132/211 115/131/211
f 111/72/212 113/87/212 101/86/212
f 111/72/213 112/71/213 113/87/213
f 112/71/214 100/73/214 113/87/214
f 141/133/215 147/134/215 151/135/215
f 142/136/216 147/137/216 146/138/216
f 143/139/217 147/140/217 148/141/217
f 144/142/218 147/143/218 149/144/218
f 145/145/219 147/146/219 150/147/219
f 152/148/220 158/149/220 162/150/220
f 153/151/221 158/149/221 157/152/221
f 154/153/222 158/149/222 159/154/222
f 155/155/223 158/149/223 160/156/223
f 156/157/224 158/149/224 161/158/224
f 163/159/225 169/160/225 173/161/225
f 164/162/226 169/163/226 168/164/226
f 165/165/227 169/163/227 170/166/227
f 166/167/228 169/163/228 171/168/228
f 167/169/229 169/160/229 172/170/229
f 174/171/230 180/172/230 184/173/230
f 175/174/231 180/172/231 179/175/231
f 176/176/232 180/172/232 181/177/232
f 177/178/233 180/172/233 182/179/233
f 178/180/234 180/172/234 183/181/234
f 185/182/235 191/183/235 195/184/235
f 186/185/236 191/183/236 190/186/236
f 187/187/237 191/183/237 192/188/237
f 188/189/238 191/183/238 193/190/238
f 189/191/239 191/183/239 194/192/239
f 196/193/240 202/194/240 206/195/240
f 197/196/241 202/194/241 201/197/241
f 198/198/242 202/194/242 203/199/242
f 199/200/243 202/194/243 204/201/243
f 200/202/244 202/194/244 205/203/244
f 207/204/245 213/205/245 217/206/245
f 208/207/246 213/205/246 212/208/246
f 209/209/247 213/205/247 214/210/247
f 210/211/248 213/205/248 215/212/248
f 211/213/249 213/205/249 216/214/249
f 218/215/250 224/216/250 228/217/250
f 219/218/251 224/216/251 223/219/251
f 220/220/252 224/221/252 225/222/252
f 221/223/253 224/221/253 226/224/253
f 222/225/254 224/216/254 227/226/254
f 229/227/255 235/228/255 239/229/255
f 230/230/256 235/228/256 234/231/256
f 231/232/257 235/228/257 236/233/257
f 232/234/258 235/228/258 237/235/258
f 233/236/259 235/228/259 238/237/259
f 240/238/260 246/239/260 250/240/260
f 241/241/261 246/239/261 245/242/261
f 242/243/262 246/239/262 247/244/262
f 243/245/263 246/239/263 248/246/263
f 244/247/264 246/239/264 249/248/264
f 251/249/265 257/250/265 261/251/265
f 252/252/266 257/250/266 256/253/266
f 253/254/267 257/250/267 258/255/267
f 254/256/268 257/250/268 259/257/268
f 255/258/269 257/250/269 260/259/269
f 262/260/270 268/261/270 272/262/270
f 263/263/271 268/264/271 267/265/271
f 264/266/272 268/267/272 269/268/272
f 265/269/273 268/270/273 270/271/273
f 266/272/274 268/273/274 271/274/274
f 163/159/275 151/135/275 168/275/275
f 151/276/276 164/162/276 168/164/276
f 144/142/277 162/150/277 150/277/277
f 150/147/278 156/157/278 145/145/278
f 165/165/279 161/158/279 155/155/279
f 161/158/280 164/162/280 156/157/280
f 153/151/281 201/197/281 196/193/281
f 201/197/282 152/148/282 197/196/282
f 198/198/283 149/278/283 143/139/283
f 203/199/284 144/142/284 149/144/284
f 174/171/285 146/138/285 179/175/285
f 179/175/286 141/133/286 175/174/286
f 167/169/287 181/177/287 173/161/287
f 173/161/288 175/174/288 163/159/288
f 185/182/289 148/141/289 190/186/289
f 190/186/290 142/136/290 186/185/290
f 187/187/291 184/173/291 178/180/291
f 192/188/292 174/171/292 184/173/292
f 199/200/293 195/184/293 189/191/293
f 195/184/294 198/198/294 185/182/294
f 154/153/295 256/253/295 251/249/295
f 159/154/296 252/252/296 256/253/296
f 200/202/297 258/255/297 206/195/297
f 206/195/298 252/252/298 196/193/298
f 166/167/299 212/208/299 207/204/299
f 171/168/300 208/207/300 212/208/300
f 154/153/301 214/210/301 160/156/301
f 160/156/302 208/207/302 155/155/302
f 177/178/303 223/219/303 218/215/303
f 182/179/304 219/218/304 223/219/304
f 166/167/305 225/222/305 172/279/305
f 172/170/306 219/218/306 167/169/306
f 188/189/307 234/231/307 229/227/307
f 234/231/308 187/187/308 230/230/308
f 177/178/309 236/233/309 183/181/309
f 183/181/310 230/230/310 178/180/310
f 200/202/311 245/242/311 240/238/311
f 205/203/312 241/241/312 245/242/312
f 188/189/313 247/244/313 194/192/313
f 194/192/314 241/241/314 189/191/314
f 255/258/315 215/212/315 261/251/315
f 261/251/316 209/209/316 251/249/316
f 211/213/317 226/224/317 217/206/317
f 217/206/318 220/220/318 207/204/318
f 232/234/319 228/217/319 222/225/319
f 237/235/320 218/215/320 228/217/320
f 243/245/321 239/229/321 233/236/321
f 239/229/322 242/243/322 229/227/322
f 254/256/323 250/240/323 244/247/323
f 259/257/324 240/238/324 250/240/324
f 262/260/325 216/214/325 267/280/325
f 267/265/326 210/211/326 263/263/326
f 254/256/327 269/268/327 260/259/327
f 260/259/328 263/263/328 255/258/328
f 266/272/329 227/226/329 272/281/329
f 272/262/330 221/223/330 262/260/330
f 233/236/331 271/282/331 265/269/331
f 238/237/332 266/272/332 271/274/332
f 244/247/333 270/283/333 264/266/333
f 270/271/334 243/245/334 265/269/334
f 141/133/335 163/159/335 175/174/335
f 145/145/336 156/157/336 164/162/336
f 152/148/337 144/142/337 197/196/337
f 142/136/338 174/171/338 186/185/338
f 143/139/339 185/182/339 198/198/339
f 153/151/340 196/193/340 252/252/340
f 154/153/341 251/249/341 209/209/341
f 165/165/342 155/155/342 208/207/342
f 166/167/343 207/204/343 220/220/343
f 176/176/344 167/169/344 219/218/344
f 177/178/345 218/215/345 231/232/345
f 187/187/346 178/180/346 230/230/346
f 188/189/347 229/227/347 242/243/347
f 199/200/348 189/191/348 241/241/348
f 200/202/349 240/238/349 253/254/349
f 221/223/350 211/213/350 262/260/350
f 210/211/351 255/258/351 263/263/351
f 232/234/352 222/225/352 266/272/352
f 243/245/353 233/236/353 265/269/353
f 254/256/354 244/247/354 264/266/354
f 273/284/355 277/285/355 279/286/355
f 274/287/356 277/288/356 276/289/356
f 275/290/357 277/291/357 278/292/357
f 280/293/358 284/294/358 286/295/358
f 281/296/359 284/297/359 283/298/359
f 282/299/360 284/300/360 285/301/360
f 287/302/361 291/303/361 293/304/361
f 288/305/362 291/306/362 290/307/362
f 289/308/363 291/306/363 292/309/363
f 294/310/364 298/311/364 300/312/364
f 295/313/365 298/314/365 297/315/365
f 296/316/366 298/314/366 299/317/366
f 301/318/367 305/319/367 307/320/367
f 302/321/368 305/322/368 304/323/368
f 303/324/369 305/322/369 306/325/369
f 308/326/370 312/327/370 314/328/370
f 309/329/371 312/330/371 311/331/371
f 310/332/372 312/330/372 313/333/372
f 315/334/373 319/335/373 321/336/373
f 316/337/374 319/338/374 318/339/374
f 317/340/375 319/338/375 320/341/375
f 322/342/376 326/343/376 328/344/376
f 323/345/377 326/346/377 325/347/377
f 324/329/378 326/346/378 327/348/378
f 329/349/379 333/350/379 335/351/379
f 330/352/380 333/353/380 332/354/380
f 331/355/381 333/353/381 334/356/381
f 336/357/382 340/358/382 342/359/382
f 337/360/383 340/361/383 339/362/383
f 338/363/384 340/361/384 341/364/384
f 275/290/385 290/307/385 279/365/385
f 290/366/386 273/284/386 279/286/386
f 296/316/387 283/298/387 300/367/387
f 283/368/388 294/310/388 300/312/388
f 282/299/389 278/369/389 274/287/389
f 285/370/390 275/290/390 278/292/390
f 289/308/391 299/317/391 295/313/391
f 299/317/392 288/305/392 296/316/392
f 302/321/393 293/371/393 289/308/393
f 293/304/394 301/318/394 287/302/394
f 295/313/395 314/372/395 310/332/395
f 314/328/396 294/310/396 308/326/396
f 309/329/397 306/325/397 313/333/397
f 306/325/398 310/332/398 313/333/398
f 316/337/399 307/373/399 303/324/399
f 307/320/400 315/334/400 301/318/400
f 324/329/401 311/331/401 328/374/401
f 311/375/402 322/342/402 328/344/402
f 323/345/403 320/341/403 327/348/403
f 320/341/404 324/329/404 327/348/404
f 330/352/405 321/376/405 317/340/405
f 332/377/406 315/334/406 321/336/406
f 323/345/407 342/378/407 338/363/407
f 325/379/408 336/357/408 342/359/408
f 337/360/409 334/356/409 341/364/409
f 334/356/410 338/363/410 341/364/410
f 331/355/411 276/289/411 335/380/411
f 335/351/412 273/284/412 329/349/412
f 282/299/413 339/362/413 286/381/413
f 286/295/414 336/357/414 280/293/414
f 287/302/415 315/334/415 329/349/415
f 275/290/393 296/316/393 288/305/393
f 337/360/416 274/287/416 331/355/416
f 280/293/417 322/342/417 308/326/417
f 295/313/418 302/321/418 289/308/418
f 303/324/393 324/329/393 316/337/393
f 323/345/419 330/352/419 317/340/419
f 1/1/420 4/69/420 5/2/420
f 2/4/421 6/65/421 5/5/421
f 7/7/422 5/382/422 6/8/422
f 8/10/423 11/383/423 12/11/423
f 9/13/424 13/66/424 12/14/424
f 14/16/425 12/384/425 13/17/425
f 15/19/426 18/64/426 19/20/426
f 20/22/427 19/26/427 18/23/427
f 17/25/428 21/67/428 19/26/428
f 22/27/429 25/68/429 26/28/429
f 23/30/430 27/34/430 26/31/430
f 28/33/431 26/31/431 27/34/431
f 29/36/432 32/40/432 33/37/432
f 34/39/433 33/37/433 32/40/433
f 31/42/434 35/38/434 33/37/434
f 36/43/435 39/47/435 40/44/435
f 37/46/436 41/48/436 40/44/436
f 42/45/437 40/44/437 41/48/437
f 43/50/438 46/54/438 47/51/438
f 44/53/439 48/55/439 47/51/439
f 49/52/440 47/51/440 48/55/440
f 50/57/441 53/61/441 54/58/441
f 55/60/442 54/58/442 53/61/442
f 52/63/443 56/59/443 54/58/443
f 1/1/25 7/3/25 18/64/25
f 18/23/444 7/7/444 3/9/444
f 2/4/27 8/10/27 14/12/27
f 6/8/445 14/16/445 10/18/445
f 22/27/446 28/29/446 13/66/446
f 28/33/447 24/35/447 10/18/447
f 23/30/31 17/25/31 20/22/31
f 20/22/32 16/24/32 24/35/32
f 43/50/448 15/19/448 21/21/448
f 21/67/34 17/25/34 44/53/34
f 50/57/35 56/59/35 25/68/35
f 25/32/36 56/59/36 52/63/36
f 51/62/449 45/56/449 48/55/449
f 55/60/38 48/55/38 44/53/38
f 29/36/450 43/50/450 49/52/450
f 49/52/451 45/56/451 30/41/451
f 36/43/41 42/45/41 53/61/41
f 42/45/452 38/49/452 51/62/452
f 37/46/43 31/42/43 34/39/43
f 41/48/44 34/39/44 30/41/44
f 1/1/45 29/36/45 35/38/45
f 35/38/46 31/42/46 2/4/46
f 9/13/453 11/15/453 39/47/453
f 39/47/48 11/383/48 8/10/48
f 15/19/49 43/50/49 29/36/49
f 3/9/50 10/18/50 24/35/50
f 37/46/51 8/10/51 2/4/51
f 22/27/52 9/13/52 36/43/52
f 23/30/53 52/63/53 44/53/53
f 45/56/54 51/62/54 38/49/54
f 141/133/454 146/385/454 147/134/454
f 142/136/455 148/386/455 147/137/455
f 143/139/456 149/278/456 147/140/456
f 144/142/457 150/277/457 147/143/457
f 145/145/458 151/276/458 147/146/458
f 152/148/459 157/152/459 158/149/459
f 153/151/460 159/154/460 158/149/460
f 154/153/461 160/156/461 158/149/461
f 155/155/462 161/158/462 158/149/462
f 156/157/463 162/150/463 158/149/463
f 163/159/464 168/275/464 169/160/464
f 164/162/465 170/166/465 169/163/465
f 165/165/466 171/168/466 169/163/466
f 166/167/467 172/279/467 169/163/467
f 167/169/468 173/161/468 169/160/468
f 174/171/469 179/175/469 180/172/469
f 175/174/470 181/177/470 180/172/470
f 176/176/471 182/179/471 180/172/471
f 177/178/472 183/181/472 180/172/472
f 178/180/473 184/173/473 180/172/473
f 185/182/474 190/186/474 191/183/474
f 186/185/475 192/188/475 191/183/475
f 187/187/476 193/190/476 191/183/476
f 188/189/477 194/192/477 191/183/477
f 189/191/478 195/184/478 191/183/478
f 196/193/479 201/197/479 202/194/479
f 197/196/480 203/199/480 202/194/480
f 198/198/481 204/201/481 202/194/481
f 199/200/482 205/203/482 202/194/482
f 200/202/483 206/195/483 202/194/483
f 207/204/484 212/208/484 213/205/484
f 208/207/485 214/210/485 213/205/485
f 209/209/486 215/212/486 213/205/486
f 210/211/487 216/214/487 213/205/487
f 211/213/488 217/206/488 213/205/488
f 218/215/489 223/219/489 224/216/489
f 219/218/490 225/387/490 224/216/490
f 220/220/491 226/224/491 224/221/491
f 221/223/492 227/388/492 224/221/492
f 222/225/493 228/217/493 224/216/493
f 229/227/494 234/231/494 235/228/494
f 230/230/495 236/233/495 235/228/495
f 231/232/496 237/235/496 235/228/496
f 232/234/497 238/237/497 235/228/497
f 233/236/498 239/229/498 235/228/498
f 240/238/499 245/242/499 246/239/499
f 241/241/500 247/244/500 246/239/500
f 242/243/501 248/246/501 246/239/501
f 243/245/502 249/248/502 246/239/502
f 244/247/503 250/240/503 246/239/503
f 251/249/504 256/253/504 257/250/504
f 252/252/505 258/255/505 257/250/505
f 253/254/506 259/257/506 257/250/506
f 254/256/507 260/259/507 257/250/507
f 255/258/508 261/251/508 257/250/508
f 262/260/509 267/280/509 268/261/509
f 263/263/510 269/389/510 268/264/510
f 264/266/511 270/283/511 268/267/511
f 265/269/512 271/282/512 268/270/512
f 266/272/513 272/281/513 268/273/513
f 163/159/275 141/133/275 151/135/275
f 151/276/514 145/145/514 164/162/514
f 144/142/277 152/148/277 162/150/277
f 150/147/278 162/150/278 156/157/278
f 165/165/279 170/166/279 161/158/279
f 161/158/280 170/166/280 164/162/280
f 153/151/515 157/152/515 201/197/515
f 201/197/516 157/152/516 152/148/516
f 198/198/283 203/199/283 149/278/283
f 203/199/517 197/196/517 144/142/517
f 174/171/285 142/136/285 146/138/285
f 179/175/286 146/385/286 141/133/286
f 167/169/287 176/176/287 181/177/287
f 173/161/288 181/177/288 175/174/288
f 185/182/518 143/139/518 148/141/518
f 190/186/290 148/386/290 142/136/290
f 187/187/291 192/188/291 184/173/291
f 192/188/292 186/185/292 174/171/292
f 199/200/293 204/201/293 195/184/293
f 195/184/294 204/201/294 198/198/294
f 154/153/295 159/154/295 256/253/295
f 159/154/296 153/151/296 252/252/296
f 200/202/297 253/254/297 258/255/297
f 206/195/298 258/255/298 252/252/298
f 166/167/299 171/168/299 212/208/299
f 171/168/519 165/165/519 208/207/519
f 154/153/301 209/209/301 214/210/301
f 160/156/302 214/210/302 208/207/302
f 177/178/303 182/179/303 223/219/303
f 182/179/304 176/176/304 219/218/304
f 166/167/305 220/220/305 225/222/305
f 172/170/520 225/387/520 219/218/520
f 188/189/307 193/190/307 234/231/307
f 234/231/308 193/190/308 187/187/308
f 177/178/309 231/232/309 236/233/309
f 183/181/310 236/233/310 230/230/310
f 200/202/521 205/203/521 245/242/521
f 205/203/312 199/200/312 241/241/312
f 188/189/522 242/243/522 247/244/522
f 194/192/314 247/244/314 241/241/314
f 255/258/315 210/211/315 215/212/315
f 261/251/316 215/212/316 209/209/316
f 211/213/317 221/223/317 226/224/317
f 217/206/318 226/224/318 220/220/318
f 232/234/319 237/235/319 228/217/319
f 237/235/320 231/232/320 218/215/320
f 243/245/321 248/246/321 239/229/321
f 239/229/322 248/246/322 242/243/322
f 254/256/323 259/257/323 250/240/323
f 259/257/324 253/254/324 240/238/324
f 262/260/325 211/213/325 216/214/325
f 267/265/326 216/214/326 210/211/326
f 254/256/523 264/266/523 269/268/523
f 260/259/524 269/389/524 263/263/524
f 266/272/329 222/225/329 227/226/329
f 272/262/330 227/388/330 221/223/330
f 233/236/331 238/237/331 271/282/331
f 238/237/525 232/234/525 266/272/525
f 244/247/333 249/248/333 270/283/333
f 270/271/526 249/248/526 243/245/526
f 273/284/527 276/390/527 277/285/527
f 274/287/528 278/369/528 277/288/528
f 275/290/529 279/365/529 277/291/529
f 280/293/530 283/368/530 284/294/530
f 281/296/531 285/370/531 284/297/531
f 282/299/532 286/381/532 284/300/532
f 287/302/533 290/366/533 291/303/533
f 288/305/534 292/309/534 291/306/534
f 289/308/535 293/371/535 291/306/535
f 294/310/536 297/391/536 298/311/536
f 295/313/537 299/317/537 298/314/537
f 296/316/538 300/367/538 298/314/538
f 301/318/539 304/392/539 305/319/539
f 302/321/540 306/325/540 305/322/540
f 303/324/541 307/373/541 305/322/541
f 308/326/542 311/375/542 312/327/542
f 309/329/543 313/333/543 312/330/543
f 310/332/544 314/372/544 312/330/544
f 315/334/545 318/393/545 319/335/545
f 316/337/546 320/341/546 319/338/546
f 317/340/547 321/376/547 319/338/547
f 322/342/548 325/379/548 326/343/548
f 323/345/549 327/348/549 326/346/549
f 324/329/550 328/374/550 326/346/550
f 329/349/551 332/377/551 333/350/551
f 330/352/552 334/356/552 333/353/552
f 331/355/553 335/380/553 333/353/553
f 336/357/554 339/394/554 340/358/554
f 337/360/555 341/364/555 340/361/555
f 338/363/556 342/378/556 340/361/556
f 275/290/557 288/305/557 290/307/557
f 290/366/558 287/302/558 273/284/558
f 296/316/407 281/296/407 283/298/407
f 283/368/559 280/293/559 294/310/559
f 282/299/389 285/301/389 278/369/389
f 285/370/390 281/296/390 275/290/390
f 289/308/391 292/309/391 299/317/391
f 299/317/392 292/309/392 288/305/392
f 302/321/560 304/323/560 293/371/560
f 293/304/394 304/392/394 301/318/394
f 295/313/561 297/315/561 314/372/561
f 314/328/396 297/391/396 294/310/396
f 309/329/397 303/324/397 306/325/397
f 306/325/398 302/321/398 310/332/398
f 316/337/562 318/339/562 307/373/562
f 307/320/563 318/393/563 315/334/563
f 324/329/393 309/329/393 311/331/393
f 311/375/564 308/326/564 322/342/564
f 323/345/403 317/340/403 320/341/403
f 320/341/404 316/337/404 324/329/404
f 330/352/565 332/354/565 321/376/565
f 332/377/566 329/349/566 315/334/566
f 323/345/567 325/347/567 342/378/567
f 325/379/408 322/342/408 336/357/408
f 337/360/409 331/355/409 334/356/409
f 334/356/410 330/352/410 338/363/410
f 331/355/568 274/287/568 276/289/568
f 335/351/412 276/390/412 273/284/412
f 282/299/569 337/360/569 339/362/569
f 286/295/570 339/394/570 336/357/570
f 329/349/415 273/284/415 287/302/415
f 287/302/415 301/318/415 315/334/415
f 275/290/571 281/296/571 296/316/571
f 337/360/393 282/299/393 274/287/393
f 308/326/572 294/310/572 280/293/572
f 280/293/573 336/357/573 322/342/573
f 295/313/574 310/332/574 302/321/574
f 303/324/393 309/329/393 324/329/393
f 323/345/575 338/363/575 330/352/575
