# Blender 4.5.10 LTS
# www.blender.org
mtllib thistle_spike.mtl
o thistle_spike
v 0.000188 0.000106 0.006580
v 0.005147 0.006167 0.010170
v -0.004557 0.006167 0.010448
v 0.000075 0.150062 0.002617
v -0.004662 0.144127 0.006802
v 0.005043 0.144127 0.006524
v -0.006201 0.000033 0.002212
v -0.008177 0.006126 0.007973
v -0.011440 0.005976 -0.001169
v -0.004820 0.150006 -0.000729
v -0.010170 0.143952 -0.003876
v -0.006907 0.144101 0.005267
v -0.004020 -0.000086 -0.005213
v -0.010205 0.005909 -0.005377
v -0.002517 0.005817 -0.011305
v -0.003149 0.149914 -0.006417
v -0.001715 0.143818 -0.012413
v -0.009403 0.143910 -0.006485
v 0.003716 -0.000086 -0.005434
v 0.001867 0.005817 -0.011430
v 0.009881 0.005909 -0.005951
v 0.002777 0.149914 -0.006587
v 0.009017 0.143910 -0.007012
v 0.001003 0.143818 -0.012491
v 0.006317 0.000033 0.001854
v 0.011355 0.005976 -0.001821
v 0.008620 0.006126 0.007493
v 0.004770 0.150006 -0.001003
v 0.007197 0.144101 0.004863
v 0.009931 0.143952 -0.004451
v -0.000310 0.138166 0.002804
v 0.004363 0.144302 0.006643
v -0.005334 0.144302 0.006170
v 0.000032 0.288010 -0.004200
v -0.005019 0.282158 -0.000275
v 0.004678 0.282158 0.000199
v -0.004931 0.138039 -0.000908
v -0.007341 0.144246 0.004557
v -0.009887 0.143909 -0.004805
v -0.003178 0.287922 -0.006779
v -0.008274 0.281802 -0.010206
v -0.005728 0.282139 -0.000844
v -0.002826 0.137833 -0.006448
v -0.008973 0.143820 -0.007211
v -0.000850 0.143612 -0.012523
v -0.001715 0.287779 -0.010627
v 0.000172 0.281562 -0.016369
v -0.007951 0.281770 -0.011056
v 0.003096 0.137833 -0.006158
v 0.001722 0.143612 -0.012398
v 0.009289 0.143820 -0.006319
v 0.002398 0.287779 -0.010426
v 0.008647 0.281770 -0.010245
v 0.001080 0.281562 -0.016324
v 0.004651 0.138039 -0.000440
v 0.009964 0.143909 -0.003836
v 0.006517 0.144246 0.005234
v 0.003479 0.287922 -0.006454
v 0.005438 0.282139 -0.000299
v 0.008885 0.281802 -0.009368
v -0.012581 0.063199 0.055548
v -0.011754 0.065916 0.054734
v -0.013704 0.065916 0.055257
v -0.036354 0.105854 -0.033173
v -0.036529 0.106870 -0.029927
v -0.034579 0.106870 -0.030450
v -0.029439 0.043302 0.046171
v -0.031984 0.044341 0.045089
v -0.031262 0.042891 0.043883
v -0.036354 0.105854 -0.033173
v -0.037901 0.102949 -0.032298
v -0.038623 0.104398 -0.031092
v -0.002670 0.043302 0.038998
v -0.002235 0.042891 0.036105
v -0.001007 0.044341 0.036788
v -0.036354 0.105854 -0.033173
v -0.033348 0.104398 -0.032505
v -0.034576 0.102949 -0.033189
v 0.048941 0.111199 0.029131
v 0.048423 0.113916 0.028092
v 0.048317 0.113916 0.030109
v -0.042784 0.153854 0.024323
v -0.039750 0.154870 0.025493
v -0.039645 0.154870 0.023477
v 0.034814 0.091302 0.042266
v 0.032998 0.092341 0.044352
v 0.032075 0.090891 0.043292
v -0.042784 0.153854 0.024323
v -0.042429 0.150949 0.026066
v -0.041505 0.152398 0.027125
v 0.036264 0.091302 0.014591
v 0.033647 0.090891 0.013283
v 0.034677 0.092341 0.012326
v -0.042784 0.153854 0.024323
v -0.041220 0.152398 0.021671
v -0.042249 0.150949 0.022628
v 0.042829 0.159199 -0.037544
v 0.041681 0.161916 -0.037372
v 0.043566 0.161916 -0.036648
v 0.009912 0.201854 0.048206
v 0.011962 0.202870 0.045683
v 0.010077 0.202870 0.044959
v 0.050955 0.139302 -0.020049
v 0.052378 0.140341 -0.017678
v 0.051085 0.138891 -0.017127
v 0.009912 0.201854 0.048206
v 0.011679 0.198949 0.048407
v 0.012972 0.200398 0.047856
v 0.025083 0.139302 -0.029981
v 0.023031 0.138891 -0.027896
v 0.022439 0.140341 -0.029170
v 0.009912 0.201854 0.048206
v 0.007873 0.200398 0.045899
v 0.008465 0.198949 0.047173
v -0.022472 0.207199 -0.052334
v -0.022663 0.209916 -0.051190
v -0.021392 0.209916 -0.052759
v 0.048910 0.249854 0.005469
v 0.047143 0.250870 0.002740
v 0.045873 0.250870 0.004309
v -0.003322 0.187302 -0.054657
v -0.000627 0.188341 -0.055277
v -0.000502 0.186891 -0.053877
v 0.048910 0.249854 0.005469
v 0.049647 0.246949 0.003852
v 0.049522 0.248398 0.002452
v -0.020762 0.187302 -0.033120
v -0.019414 0.186891 -0.030524
v -0.020809 0.188341 -0.030354
v 0.048910 0.249854 0.005469
v 0.046085 0.248398 0.006696
v 0.047480 0.246949 0.006527
v -0.056717 0.255199 0.005200
v -0.055687 0.257916 0.005735
v -0.056787 0.257916 0.004042
v 0.020316 0.297854 -0.044826
v 0.017174 0.298870 -0.043989
v 0.018274 0.298870 -0.042296
v -0.053008 0.235302 -0.013730
v -0.052765 0.236341 -0.016486
v -0.051396 0.234891 -0.016171
v 0.020316 0.297854 -0.044826
v 0.019005 0.294949 -0.046027
v 0.017635 0.296398 -0.046341
v -0.037915 0.235302 0.009512
v -0.035029 0.234891 0.009031
v -0.035299 0.236341 0.010410
v 0.020316 0.297854 -0.044826
v 0.020610 0.296398 -0.041760
v 0.020880 0.294949 -0.043139
v 0.015331 0.270643 -0.007354
v 0.017311 0.275223 -0.011941
v 0.016725 0.275714 -0.003078
v -0.003220 0.324671 -0.011575
v 0.001372 0.320428 -0.006572
v 0.001958 0.319937 -0.015435
v 0.006556 0.271136 0.008173
v 0.011074 0.276031 0.006922
v 0.003776 0.275983 0.012010
v -0.005166 0.324781 -0.008131
v -0.005926 0.320380 -0.001484
v 0.001372 0.320428 -0.006572
v -0.011043 0.270468 0.011032
v -0.007558 0.275553 0.013851
v -0.016073 0.275001 0.011331
v -0.009070 0.324632 -0.007497
v -0.014440 0.319828 -0.004003
v -0.005926 0.320380 -0.001484
v -0.024213 0.269142 -0.000931
v -0.024555 0.274147 0.003627
v -0.027874 0.273507 -0.004602
v -0.011991 0.324338 -0.010151
v -0.017760 0.319188 -0.012233
v -0.014440 0.319828 -0.004003
v -0.023038 0.268157 -0.018707
v -0.027118 0.272873 -0.016051
v -0.022742 0.272627 -0.023793
v -0.011731 0.324120 -0.014093
v -0.013384 0.318943 -0.019975
v -0.017760 0.319188 -0.012233
v -0.008402 0.268254 -0.028910
v -0.013316 0.272690 -0.030364
v -0.004541 0.273023 -0.031790
v -0.008484 0.324141 -0.016357
v -0.004609 0.319276 -0.021400
v -0.013384 0.318943 -0.019975
v 0.008674 0.269360 -0.023857
v 0.006457 0.273735 -0.028535
v 0.013024 0.274396 -0.022570
v -0.004697 0.324387 -0.015236
v 0.001958 0.319937 -0.015435
v -0.004609 0.319276 -0.021400
vn 0.0243 -0.5242 0.8513
vn 0.0236 0.5634 0.8258
vn -0.7937 -0.5336 0.2920
vn -0.7868 0.5541 0.2718
vn -0.5146 -0.5488 -0.6588
vn -0.5103 0.5390 -0.6702
vn 0.4761 -0.5488 -0.6871
vn 0.4711 0.5390 -0.6982
vn 0.8091 -0.5336 0.2461
vn 0.8011 0.5541 0.2263
vn -0.4004 -0.6948 0.5974
vn -0.3978 0.7192 0.5697
vn 0.0286 0.0264 0.9992
vn -0.9418 0.0153 0.3359
vn -0.6810 -0.7076 -0.1886
vn -0.6760 0.7064 -0.2098
vn -0.6106 -0.0028 -0.7919
vn -0.0200 -0.7156 -0.6983
vn -0.0205 0.6986 -0.7153
vn 0.5644 -0.0028 -0.8255
vn 0.6691 -0.7076 -0.2272
vn 0.6629 0.7064 -0.2481
vn 0.9594 0.0153 0.2815
vn 0.4339 -0.6948 0.5736
vn 0.4297 0.7192 0.5461
vn 0.0005 -0.9999 0.0162
vn -0.5644 0.0214 0.8252
vn 0.6106 0.0214 0.7916
vn -0.0005 0.9999 -0.0162
vn -0.9595 0.0033 -0.2818
vn -0.0286 -0.0079 -0.9996
vn 0.9418 0.0033 -0.3362
vn -0.0421 -0.5068 0.8611
vn -0.0397 0.5801 0.8136
vn -0.8145 -0.5280 0.2405
vn -0.8049 0.5591 0.1988
vn -0.4626 -0.5624 -0.6853
vn -0.4564 0.5250 -0.7184
vn 0.5272 -0.5624 -0.6370
vn 0.5242 0.5250 -0.6705
vn 0.7872 -0.5280 0.3187
vn 0.7817 0.5591 0.2763
vn -0.4461 -0.6827 0.5787
vn -0.4399 0.7304 0.5226
vn -0.0487 0.0467 0.9977
vn -0.9649 0.0215 0.2617
vn -0.6650 -0.7117 -0.2263
vn -0.6570 0.7016 -0.2758
vn -0.5476 -0.0193 -0.8365
vn 0.0334 -0.7296 -0.6831
vn 0.0356 0.6839 -0.7287
vn 0.6265 -0.0193 -0.7792
vn 0.6839 -0.7117 -0.1604
vn 0.6808 0.7016 -0.2104
vn 0.9348 0.0215 0.3545
vn 0.3876 -0.6827 0.6194
vn 0.3869 0.7304 0.5630
vn -0.0018 -0.9993 0.0364
vn -0.6265 0.0378 0.7785
vn 0.5476 0.0378 0.8359
vn 0.0018 0.9993 -0.0365
vn -0.9348 -0.0030 -0.3551
vn 0.0488 -0.0282 -0.9984
vn 0.9650 -0.0030 -0.2623
vn 0.2533 0.2061 0.9452
vn -0.0809 0.9500 -0.3017
vn -0.5033 -0.6868 0.5244
vn -0.7266 0.1878 -0.6609
vn 0.6980 -0.6868 0.2025
vn 0.2988 0.1878 -0.9357
vn -0.4159 -0.0747 0.9063
vn -0.0000 1.0000 -0.0000
vn 0.1090 0.9070 0.4068
vn -0.9314 -0.3210 -0.1719
vn 0.0392 -0.9885 0.1463
vn 0.7207 -0.3210 -0.6145
vn 0.8134 -0.0747 0.5769
vn 0.2146 -0.5592 0.8008
vn -0.7788 0.4578 0.4288
vn 0.8889 0.4578 -0.0181
vn -0.1614 -0.7818 -0.6023
vn 0.9772 0.2061 0.0512
vn -0.3120 0.9500 -0.0163
vn 0.3432 -0.6868 0.6407
vn -0.8531 0.1878 0.4868
vn 0.4083 -0.6868 -0.6013
vn -0.7975 0.1878 -0.5733
vn 0.7334 -0.0747 0.6756
vn 0.4206 0.9070 0.0220
vn -0.4513 -0.3210 0.8327
vn 0.1513 -0.9885 0.0079
vn -0.3618 -0.3210 -0.8753
vn 0.8000 -0.0747 -0.5953
vn 0.8279 -0.5592 0.0434
vn 0.1671 0.4578 0.8732
vn 0.2575 0.4578 -0.8510
vn -0.6227 -0.7818 -0.0326
vn 0.3507 0.2061 -0.9135
vn -0.1119 0.9500 0.2916
vn 0.7154 -0.6868 -0.1284
vn 0.1993 0.1878 0.9618
vn -0.4457 -0.6868 -0.5741
vn -0.7917 0.1878 0.5814
vn 0.8692 -0.0747 -0.4888
vn 0.1509 0.9070 -0.3932
vn 0.6525 -0.3210 0.6865
vn 0.0543 -0.9885 -0.1414
vn -0.9442 -0.3210 0.0736
vn -0.3189 -0.0747 -0.9448
vn 0.2971 -0.5592 -0.7740
vn 0.8821 0.4578 0.1109
vn -0.7297 0.4578 -0.5078
vn -0.2235 -0.7818 0.5821
vn -0.7605 0.2061 -0.6158
vn 0.2428 0.9500 0.1966
vn 0.0989 -0.6868 -0.7200
vn 0.9763 0.1878 0.1076
vn -0.6837 -0.6868 0.2465
vn 0.3083 0.1878 0.9326
vn -0.1962 -0.0747 -0.9777
vn -0.3273 0.9070 -0.2651
vn 0.8545 -0.3210 -0.4084
vn -0.1177 -0.9885 -0.0953
vn -0.2218 -0.3210 0.9207
vn -0.9971 -0.0747 0.0113
vn -0.6443 -0.5592 -0.5217
vn 0.3781 0.4578 -0.8047
vn -0.7085 0.4578 0.5371
vn 0.4846 -0.7818 0.3924
vn -0.8207 0.2061 0.5329
vn 0.2620 0.9500 -0.1701
vn -0.6542 -0.6868 -0.3166
vn 0.4041 0.1878 -0.8952
vn 0.0231 -0.6868 0.7264
vn 0.9822 0.1878 -0.0050
vn -0.9905 -0.0747 -0.1155
vn -0.3532 0.9070 0.2294
vn -0.1244 -0.3210 -0.9389
vn -0.1271 -0.9885 0.0825
vn 0.8071 -0.3210 0.4955
vn -0.2974 -0.0747 0.9518
vn -0.6953 -0.5592 0.4515
vn -0.6485 0.4578 -0.6082
vn 0.2919 0.4578 0.8398
vn 0.5229 -0.7818 -0.3396
vn 0.9417 -0.3267 0.0804
vn 0.6763 0.7366 0.0039
vn 0.5461 -0.3045 0.7804
vn 0.3725 0.7537 0.5415
vn -0.2474 -0.3346 0.9093
vn -0.2368 0.7305 0.6405
vn -0.8412 -0.3944 0.3700
vn -0.6929 0.6846 0.2263
vn -0.7882 -0.4388 -0.4315
vn -0.6522 0.6505 -0.3892
vn -0.1283 -0.4345 -0.8915
vn -0.1454 0.6539 -0.7425
vn 0.6416 -0.3846 -0.6637
vn 0.4458 0.6922 -0.5676
vn 0.7172 -0.5538 0.4229
vn 0.4937 0.8322 0.2526
vn 0.9438 0.3275 0.0442
vn 0.5340 0.3505 0.7694
vn 0.1537 -0.5576 0.8158
vn 0.0588 0.8293 0.5557
vn -0.2878 0.3193 0.9029
vn -0.5038 -0.6002 0.6212
vn -0.4486 0.7964 0.4056
vn -0.9029 0.2574 0.3442
vn -0.7602 -0.6496 -0.0142
vn -0.6464 0.7583 -0.0848
vn -0.8480 0.2114 -0.4859
vn -0.4223 -0.6686 -0.6121
vn -0.3857 0.7436 -0.5461
vn -0.1645 0.2159 -0.9624
vn 0.2553 -0.6428 -0.7222
vn 0.6329 0.2676 -0.7265
vn 0.7625 -0.5918 -0.2616
vn 0.5286 0.8029 -0.2756
vn 0.0473 -0.9972 0.0584
vn 0.8290 0.3205 0.4583
vn 0.8843 0.2741 -0.3780
vn -0.0473 0.9972 -0.0584
vn 0.1404 0.3159 0.9383
vn -0.6629 0.2638 0.7006
vn -0.9761 0.2035 -0.0758
vn -0.5633 0.1803 -0.8063
vn 0.2647 0.2117 -0.9408
vn -0.4399 0.7304 0.5225
vn -0.6570 0.7016 -0.2757
vn 0.3869 0.7304 0.5629
vn -0.0018 -0.9993 0.0365
vn -0.6760 0.6921 -0.2532
vn -0.2558 -0.1515 -0.9548
vn 0.4589 0.6921 -0.5572
vn -0.4497 0.6921 0.5647
vn -0.9871 -0.1515 -0.0517
vn -0.3882 0.6921 -0.6086
vn 0.3981 0.6921 0.6021
vn 0.1510 0.9070 -0.3932
vn -0.3542 -0.1515 0.9228
vn -0.6988 0.6921 0.1811
vn 0.6957 0.6921 -0.1925
vn 0.7682 -0.1515 0.6221
vn -0.0437 0.6921 0.7205
vn 0.0319 0.6921 -0.7211
vn -0.1243 -0.3210 -0.9389
vn -0.1270 -0.9885 0.0825
vn 0.8290 -0.1515 -0.5383
vn 0.6718 0.6921 0.2642
vn -0.0000 -0.9701 -0.2425
vn -0.0000 -0.2425 0.9701
vn 0.1373 0.7635 -0.6311
vn -0.0000 -1.0000 -0.0000
vn -0.9887 -0.1500 -0.0000
vn -1.0000 -0.0000 -0.0000
vn -0.0000 0.3687 0.9295
vn -1.0000 -0.0014 -0.0000
vn 0.4320 -0.9019 -0.0000
vt 0.750000 0.362862
vt 0.666485 0.428898
vt 0.833515 0.428898
vt 0.250000 0.347148
vt 0.342935 0.422478
vt 0.157065 0.422478
vt 0.857338 0.284876
vt 0.894334 0.384710
vt 0.945949 0.225855
vt 0.342393 0.280020
vt 0.442755 0.214912
vt 0.385318 0.391686
vt 0.816338 0.158693
vt 0.922718 0.154357
vt 0.787589 0.056180
vt 0.307102 0.171406
vt 0.276194 0.055836
vt 0.426567 0.165088
vt 0.683662 0.158693
vt 0.712411 0.056180
vt 0.577282 0.154357
vt 0.192898 0.171406
vt 0.073433 0.165088
vt 0.223806 0.055836
vt 0.642662 0.284876
vt 0.554051 0.225855
vt 0.605665 0.384710
vt 0.157607 0.280020
vt 0.114682 0.391686
vt 0.057245 0.214912
vt 0.081493 0.980001
vt 0.000000 0.520120
vt 0.073279 0.519999
vt 0.718507 0.980001
vt 0.873279 0.519999
vt 0.881493 0.980001
vt 0.518507 0.980001
vt 0.673279 0.519999
vt 0.681493 0.980001
vt 0.326721 0.519999
vt 0.481493 0.980001
vt 0.318507 0.980001
vt 0.118507 0.980001
vt 0.273279 0.519999
vt 0.281493 0.980001
vt 0.918507 0.980001
vt 0.926721 0.519999
vt 0.126721 0.519999
vt 0.726721 0.519999
vt 0.473279 0.519999
vt 0.526721 0.519999
vt 0.750000 0.347148
vt 0.656213 0.421278
vt 0.843787 0.421278
vt 0.250000 0.327002
vt 0.356042 0.412956
vt 0.143958 0.412956
vt 0.842393 0.280020
vt 0.883913 0.392125
vt 0.941877 0.213731
vt 0.323233 0.273795
vt 0.437749 0.199505
vt 0.372212 0.401208
vt 0.807102 0.171406
vt 0.926550 0.166560
vt 0.774799 0.056306
vt 0.295261 0.187704
vt 0.259994 0.055836
vt 0.431573 0.180495
vt 0.692898 0.171406
vt 0.725201 0.056306
vt 0.573450 0.166560
vt 0.204739 0.187704
vt 0.068427 0.180495
vt 0.240006 0.055836
vt 0.657607 0.280020
vt 0.558123 0.213731
vt 0.616087 0.392125
vt 0.176767 0.273795
vt 0.127788 0.401208
vt 0.062251 0.199505
vt 0.092944 0.980001
vt 0.082362 0.519999
vt 0.707056 0.980001
vt 0.882362 0.519999
vt 0.892944 0.980001
vt 0.517638 0.519999
vt 0.692944 0.980001
vt 0.507056 0.980001
vt 0.307056 0.980001
vt 0.482362 0.519999
vt 0.492944 0.980001
vt 0.117638 0.519999
vt 0.292944 0.980001
vt 0.107056 0.980001
vt 0.917638 0.519999
vt 0.682362 0.519999
vt 0.717638 0.519999
vt 0.317638 0.519999
vt 0.282362 0.519999
vt 0.750000 0.442000
vt 0.736286 0.466114
vt 0.763714 0.466114
vt 0.250000 0.250000
vt 0.302282 0.399444
vt 0.197718 0.399444
vt 0.916277 0.154000
vt 0.944018 0.153820
vt 0.930303 0.130066
vt 0.250000 0.250000
vt 0.353282 0.130000
vt 0.405564 0.220556
vt 0.583723 0.154000
vt 0.569697 0.130066
vt 0.555983 0.153820
vt 0.094436 0.220556
vt 0.146718 0.130000
vt 0.087295 0.990032
vt -0.000000 0.511332
vt 0.020794 0.509968
vt 0.645873 0.509968
vt 0.753961 0.990032
vt 0.579372 0.990032
vt 0.312539 0.509968
vt 0.420628 0.990032
vt 0.246039 0.990032
vt 0.912705 0.990032
vt 0.687461 0.509968
vt 0.979206 0.509968
vt 0.354127 0.509968
vt 0.583723 0.154000
vt 0.583723 0.154000
vt -0.000000 0.991396
vt 0.750000 0.442000
vt 0.750000 0.439789
vt 0.704986 0.465703
vt 0.795014 0.465703
vt 0.250000 0.359452
vt 0.343820 0.444819
vt 0.156180 0.444819
vt 0.898383 0.368332
vt 0.890578 0.419682
vt 0.946709 0.349296
vt 0.335573 0.318242
vt 0.460811 0.298116
vt 0.343820 0.444819
vt 0.935031 0.207768
vt 0.970312 0.245886
vt 0.950279 0.158116
vt 0.356708 0.225645
vt 0.419057 0.115181
vt 0.460811 0.298116
vt 0.832347 0.079006
vt 0.884146 0.075189
vt 0.803034 0.036127
vt 0.297489 0.151387
vt 0.250000 0.033767
vt 0.419057 0.115181
vt 0.667654 0.079006
vt 0.696966 0.036127
vt 0.615854 0.075189
vt 0.202511 0.151387
vt 0.080943 0.115181
vt 0.564969 0.207768
vt 0.549721 0.158116
vt 0.529688 0.245886
vt 0.143292 0.225645
vt 0.039189 0.298116
vt 0.080943 0.115181
vt 0.601617 0.368332
vt 0.553291 0.349296
vt 0.609422 0.419682
vt 0.164427 0.318242
vt 0.156180 0.444819
vt 0.039189 0.298116
vt 0.071429 0.956903
vt 0.000000 0.548320
vt 0.033732 0.543097
vt 0.823411 0.543097
vt 0.928571 0.956903
vt 0.785714 0.956903
vt 0.680554 0.543097
vt 0.785714 0.956903
vt 0.642857 0.956903
vt 0.500000 0.956903
vt 0.605160 0.543097
vt 0.642857 0.956903
vt 0.357143 0.956903
vt 0.462303 0.543097
vt 0.500000 0.956903
vt 0.251983 0.543097
vt 0.357143 0.956903
vt 0.214286 0.956903
vt 0.109126 0.543097
vt 0.214286 0.956903
vt 0.071429 0.956903
vt 0.966269 0.543097
vt 0.890874 0.543097
vt 0.748017 0.543097
vt 0.537697 0.543097
vt 0.394840 0.543097
vt 0.319446 0.543097
vt 0.176589 0.543097
vt 0.000000 0.980121
vt 0.907056 0.980001
vt 0.000000 0.962126
vt 0.928571 0.956903
s 0
usemtl bark
f 1/1/1 2/2/1 3/3/1
f 4/4/2 5/5/2 6/6/2
f 7/7/3 8/8/3 9/9/3
f 10/10/4 11/11/4 12/12/4
f 13/13/5 14/14/5 15/15/5
f 16/16/6 17/17/6 18/18/6
f 19/19/7 20/20/7 21/21/7
f 22/22/8 23/23/8 24/24/8
f 25/25/9 26/26/9 27/27/9
f 28/28/10 29/29/10 30/30/10
f 8/8/11 1/1/11 3/3/11
f 5/5/12 10/10/12 12/12/12
f 6/31/13 3/32/13 2/33/13
f 11/34/14 8/35/14 12/36/14
f 9/9/15 13/13/15 7/7/15
f 18/18/16 10/10/16 16/16/16
f 17/37/17 14/38/17 18/39/17
f 20/20/18 13/13/18 15/15/18
f 17/17/19 22/22/19 24/24/19
f 21/40/20 24/41/20 23/42/20
f 26/26/21 19/19/21 21/21/21
f 23/23/22 28/28/22 30/30/22
f 29/43/23 26/44/23 30/45/23
f 27/27/24 1/1/24 25/25/24
f 6/6/25 28/28/25 4/4/25
f 7/7/26 19/19/26 25/25/26
f 5/46/27 8/35/27 3/47/27
f 27/48/28 6/31/28 2/33/28
f 4/4/29 22/22/29 16/16/29
f 11/34/30 14/38/30 9/49/30
f 17/37/31 20/50/31 15/51/31
f 21/40/32 30/45/32 26/44/32
f 31/52/33 32/53/33 33/54/33
f 34/55/34 35/56/34 36/57/34
f 37/58/35 38/59/35 39/60/35
f 40/61/36 41/62/36 42/63/36
f 43/64/37 44/65/37 45/66/37
f 46/67/38 47/68/38 48/69/38
f 49/70/39 50/71/39 51/72/39
f 52/73/40 53/74/40 54/75/40
f 55/76/41 56/77/41 57/78/41
f 58/79/42 59/80/42 60/81/42
f 33/54/43 37/58/43 31/52/43
f 35/56/44 40/61/44 42/63/44
f 36/82/45 33/32/45 32/83/45
f 41/84/46 38/85/46 42/86/46
f 44/65/47 37/58/47 39/60/47
f 48/69/48 40/61/48 46/67/48
f 45/87/49 48/88/49 47/89/49
f 50/71/50 43/64/50 45/66/50
f 47/68/51 52/73/51 54/75/51
f 53/90/52 50/91/52 54/92/52
f 51/72/53 55/76/53 49/70/53
f 53/74/54 58/79/54 60/81/54
f 57/93/55 60/94/55 59/95/55
f 32/53/56 55/76/56 57/78/56
f 59/80/57 34/55/57 36/57/57
f 37/58/58 49/70/58 55/76/58
f 33/96/59 42/86/59 38/85/59
f 59/95/60 32/83/60 57/93/60
f 34/55/61 52/73/61 46/67/61
f 41/84/62 44/97/62 39/98/62
f 47/89/63 50/91/63 45/87/63
f 51/99/64 60/94/64 56/100/64
f 8/8/11 7/7/11 1/1/11
f 5/5/12 4/4/12 10/10/12
f 6/31/13 5/204/13 3/32/13
f 11/34/14 9/49/14 8/35/14
f 9/9/15 14/14/15 13/13/15
f 18/18/16 11/11/16 10/10/16
f 17/37/17 15/51/17 14/38/17
f 20/20/18 19/19/18 13/13/18
f 17/17/19 16/16/19 22/22/19
f 21/40/20 20/50/20 24/41/20
f 26/26/21 25/25/21 19/19/21
f 23/23/22 22/22/22 28/28/22
f 29/43/23 27/48/23 26/44/23
f 27/27/24 2/2/24 1/1/24
f 6/6/25 29/29/25 28/28/25
f 25/25/26 1/1/26 7/7/26
f 7/7/26 13/13/26 19/19/26
f 5/46/27 12/36/27 8/35/27
f 27/48/28 29/43/28 6/31/28
f 16/16/29 10/10/29 4/4/29
f 4/4/29 28/28/29 22/22/29
f 11/34/30 18/39/30 14/38/30
f 17/37/31 24/41/31 20/50/31
f 21/40/32 23/42/32 30/45/32
f 33/54/43 38/59/43 37/58/43
f 35/56/189 34/55/189 40/61/189
f 36/82/45 35/204/45 33/32/45
f 41/84/46 39/98/46 38/85/46
f 44/65/47 43/64/47 37/58/47
f 48/69/190 41/62/190 40/61/190
f 45/87/49 44/97/49 48/88/49
f 50/71/50 49/70/50 43/64/50
f 47/68/51 46/67/51 52/73/51
f 53/90/52 51/99/52 50/91/52
f 51/72/53 56/77/53 55/76/53
f 53/74/54 52/73/54 58/79/54
f 57/93/55 56/100/55 60/94/55
f 32/53/56 31/52/56 55/76/56
f 59/80/191 58/79/191 34/55/191
f 55/76/192 31/52/192 37/58/192
f 37/58/58 43/64/58 49/70/58
f 33/96/59 35/205/59 42/86/59
f 59/95/60 36/82/60 32/83/60
f 46/67/61 40/61/61 34/55/61
f 34/55/61 58/79/61 52/73/61
f 41/84/62 48/88/62 44/97/62
f 47/89/63 54/92/63 50/91/63
f 51/99/64 53/90/64 60/94/64
usemtl moss
f 61/101/65 62/102/65 63/103/65
f 64/104/66 65/105/66 66/106/66
f 67/107/67 68/108/67 69/109/67
f 70/110/68 71/111/68 72/112/68
f 73/113/69 74/114/69 75/115/69
f 76/104/70 77/116/70 78/117/70
f 63/103/71 67/107/71 61/101/71
f 72/112/72 64/104/72 70/110/72
f 66/118/73 63/119/73 62/120/73
f 69/121/74 72/122/74 71/123/74
f 74/114/75 67/107/75 69/109/75
f 78/117/72 70/110/72 76/104/72
f 75/124/76 78/125/76 77/126/76
f 75/115/77 61/101/77 73/113/77
f 66/106/72 76/104/72 64/104/72
f 61/101/78 67/107/78 73/113/78
f 65/127/79 68/128/79 63/129/79
f 77/126/80 62/120/80 75/124/80
f 70/110/72 64/104/72 76/104/72
f 69/121/81 78/125/81 74/130/81
f 79/101/82 80/102/82 81/103/82
f 82/104/83 83/105/83 84/106/83
f 85/107/84 86/108/84 87/109/84
f 88/110/85 89/111/85 90/112/85
f 91/131/86 92/114/86 93/115/86
f 94/104/87 95/116/87 96/117/87
f 81/103/88 85/107/88 79/101/88
f 90/112/72 82/104/72 88/110/72
f 84/118/89 81/119/89 80/120/89
f 87/121/90 90/122/90 89/123/90
f 87/109/91 91/131/91 85/107/91
f 96/117/72 88/110/72 94/104/72
f 93/124/92 96/125/92 95/126/92
f 80/102/93 91/131/93 93/115/93
f 84/106/72 94/104/72 82/104/72
f 79/101/94 85/107/94 91/131/94
f 83/127/95 86/128/95 81/129/95
f 93/124/96 84/118/96 80/120/96
f 88/110/72 82/104/72 94/104/72
f 87/121/97 96/125/97 92/130/97
f 97/101/98 98/102/98 99/103/98
f 100/104/99 101/105/99 102/106/99
f 103/107/100 104/108/100 105/109/100
f 106/110/101 107/111/101 108/112/101
f 109/132/102 110/114/102 111/115/102
f 112/104/103 113/116/103 114/117/103
f 104/108/104 97/101/104 99/103/104
f 108/112/72 100/104/72 106/110/72
f 98/120/105 101/133/105 99/119/105
f 105/121/106 108/122/106 107/123/106
f 110/114/107 103/107/107 105/109/107
f 114/117/72 106/110/72 112/104/72
f 111/124/108 114/125/108 113/126/108
f 111/115/109 97/101/109 109/132/109
f 102/106/72 112/104/72 100/104/72
f 97/101/110 103/107/110 109/132/110
f 101/127/111 104/128/111 99/129/111
f 113/126/112 98/120/112 111/124/112
f 106/110/72 100/104/72 112/104/72
f 107/123/113 110/130/113 105/121/113
f 115/134/114 116/102/114 117/103/114
f 118/104/115 119/105/115 120/106/115
f 121/107/116 122/108/116 123/109/116
f 124/110/117 125/111/117 126/112/117
f 127/132/118 128/114/118 129/115/118
f 130/104/119 131/116/119 132/117/119
f 122/108/120 115/134/120 117/103/120
f 126/112/72 118/104/72 124/110/72
f 120/118/121 117/119/121 116/120/121
f 123/121/122 126/122/122 125/123/122
f 123/109/123 127/132/123 121/107/123
f 132/117/72 124/110/72 130/104/72
f 129/124/124 132/125/124 131/126/124
f 116/102/125 127/132/125 129/115/125
f 120/106/72 130/104/72 118/104/72
f 115/134/126 121/107/126 127/132/126
f 119/127/127 122/128/127 117/129/127
f 129/124/128 120/118/128 116/120/128
f 124/110/72 118/104/72 130/104/72
f 125/123/129 128/130/129 123/121/129
f 133/134/130 134/102/130 135/103/130
f 136/104/131 137/105/131 138/106/131
f 139/107/132 140/108/132 141/109/132
f 142/110/133 143/111/133 144/112/133
f 145/113/134 146/114/134 147/115/134
f 148/104/135 149/116/135 150/117/135
f 135/103/136 139/107/136 133/134/136
f 144/112/72 136/104/72 142/110/72
f 138/118/137 135/119/137 134/120/137
f 141/121/138 144/122/138 143/123/138
f 141/109/139 145/113/139 139/107/139
f 150/117/72 142/110/72 148/104/72
f 149/126/140 146/130/140 150/125/140
f 134/102/141 145/113/141 147/115/141
f 138/106/72 148/104/72 136/104/72
f 133/134/142 139/107/142 145/113/142
f 135/129/143 144/122/143 140/128/143
f 147/124/144 138/118/144 134/120/144
f 142/110/72 136/104/72 148/104/72
f 141/121/145 150/125/145 146/130/145
f 63/103/71 68/108/71 67/107/71
f 72/112/193 65/105/193 64/104/193
f 66/118/73 65/133/73 63/119/73
f 69/121/74 68/128/74 72/122/74
f 74/114/75 73/113/75 67/107/75
f 78/117/194 71/111/194 70/110/194
f 75/124/76 74/130/76 78/125/76
f 75/115/77 62/102/77 61/101/77
f 66/106/195 77/116/195 76/104/195
f 65/127/79 72/122/79 68/128/79
f 77/126/80 66/118/80 62/120/80
f 69/121/81 71/123/81 78/125/81
f 81/103/88 86/108/88 85/107/88
f 90/112/196 83/105/196 82/104/196
f 84/118/89 83/133/89 81/119/89
f 87/121/90 86/128/90 90/122/90
f 87/109/91 92/114/91 91/131/91
f 96/117/197 89/111/197 88/110/197
f 93/124/92 92/130/92 96/125/92
f 80/102/93 79/101/93 91/131/93
f 84/106/198 95/116/198 94/104/198
f 83/127/95 90/122/95 86/128/95
f 93/124/96 95/126/96 84/118/96
f 87/121/97 89/123/97 96/125/97
f 104/108/104 103/107/104 97/101/104
f 108/112/199 101/105/199 100/104/199
f 98/120/200 102/118/200 101/133/200
f 105/121/106 104/128/106 108/122/106
f 110/114/107 109/132/107 103/107/107
f 114/117/201 107/111/201 106/110/201
f 111/124/108 110/130/108 114/125/108
f 111/115/109 98/102/109 97/101/109
f 102/106/202 113/116/202 112/104/202
f 101/127/111 108/122/111 104/128/111
f 113/126/112 102/118/112 98/120/112
f 107/123/113 114/125/113 110/130/113
f 122/108/120 121/107/120 115/134/120
f 126/112/203 119/105/203 118/104/203
f 120/118/121 119/133/121 117/119/121
f 123/121/122 122/128/122 126/122/122
f 123/109/123 128/114/123 127/132/123
f 132/117/204 125/111/204 124/110/204
f 129/124/124 128/130/124 132/125/124
f 116/102/125 115/134/125 127/132/125
f 120/106/205 131/116/205 130/104/205
f 119/127/127 126/122/127 122/128/127
f 129/124/128 131/126/128 120/118/128
f 125/123/129 132/125/129 128/130/129
f 135/103/136 140/108/136 139/107/136
f 144/112/206 137/105/206 136/104/206
f 138/118/137 137/133/137 135/119/137
f 141/121/207 140/128/207 144/122/207
f 141/109/208 146/114/208 145/113/208
f 150/117/209 143/111/209 142/110/209
f 149/126/140 147/124/140 146/130/140
f 134/102/141 133/134/141 145/113/141
f 138/106/210 149/116/210 148/104/210
f 135/129/143 137/127/143 144/122/143
f 147/124/144 149/126/144 138/118/144
f 141/121/145 143/123/145 150/125/145
usemtl bud
f 151/135/146 152/136/146 153/137/146
f 154/138/147 155/139/147 156/140/147
f 157/141/148 158/142/148 159/143/148
f 160/144/149 161/145/149 162/146/149
f 163/147/150 164/148/150 165/149/150
f 166/150/151 167/151/151 168/152/151
f 169/153/152 170/154/152 171/155/152
f 172/156/153 173/157/153 174/158/153
f 175/159/154 176/160/154 177/161/154
f 178/162/155 179/163/155 180/157/155
f 181/164/156 182/165/156 183/166/156
f 184/167/157 185/168/157 186/169/157
f 187/170/158 188/171/158 189/172/158
f 190/173/159 191/174/159 192/175/159
f 153/137/160 157/141/160 151/135/160
f 162/146/161 154/138/161 160/144/161
f 156/176/162 153/177/162 152/178/162
f 159/179/163 162/180/163 161/181/163
f 164/148/164 157/141/164 159/143/164
f 168/152/165 160/144/165 166/150/165
f 165/182/166 168/183/166 167/184/166
f 165/149/167 169/153/167 163/147/167
f 174/158/168 166/150/168 172/156/168
f 173/185/169 170/186/169 174/187/169
f 176/160/170 169/153/170 171/155/170
f 180/157/171 172/156/171 178/162/171
f 179/188/172 176/189/172 180/190/172
f 177/161/173 181/164/173 175/159/173
f 186/169/174 178/162/174 184/167/174
f 183/191/175 186/192/175 185/193/175
f 188/171/176 181/164/176 183/166/176
f 185/168/72 190/173/72 192/175/72
f 189/194/177 192/195/177 191/196/177
f 152/136/178 187/170/178 189/172/178
f 156/140/179 190/173/179 154/138/179
f 157/141/180 169/153/180 181/164/180
f 153/197/181 162/180/181 158/198/181
f 189/194/182 156/176/182 152/178/182
f 154/138/183 184/167/183 172/156/183
f 159/179/184 168/183/184 164/199/184
f 165/182/185 174/187/185 170/186/185
f 171/200/186 180/190/186 176/189/186
f 177/201/187 186/192/187 182/202/187
f 183/191/188 192/195/188 188/203/188
f 153/137/160 158/142/160 157/141/160
f 162/146/211 155/139/211 154/138/211
f 156/176/162 155/206/162 153/177/162
f 159/179/163 158/198/163 162/180/163
f 164/148/164 163/147/164 157/141/164
f 168/152/72 161/145/72 160/144/72
f 165/182/166 164/199/166 168/183/166
f 165/149/167 170/154/167 169/153/167
f 174/158/72 167/151/72 166/150/72
f 173/185/169 171/200/169 170/186/169
f 176/160/170 175/159/170 169/153/170
f 180/157/72 173/157/72 172/156/72
f 179/188/172 177/201/172 176/189/172
f 177/161/173 182/165/173 181/164/173
f 186/169/212 179/163/212 178/162/212
f 183/191/175 182/202/175 186/192/175
f 188/171/176 187/170/176 181/164/176
f 185/168/213 184/167/213 190/173/213
f 189/194/177 188/203/177 192/195/177
f 152/136/178 151/135/178 187/170/178
f 156/140/214 191/174/214 190/173/214
f 187/170/180 151/135/180 157/141/180
f 157/141/180 163/147/180 169/153/180
f 169/153/180 175/159/180 181/164/180
f 181/164/180 187/170/180 157/141/180
f 153/197/215 155/207/215 162/180/215
f 189/194/216 191/196/216 156/176/216
f 166/150/183 160/144/183 154/138/183
f 154/138/183 190/173/183 184/167/183
f 184/167/183 178/162/183 172/156/183
f 172/156/183 166/150/183 154/138/183
f 159/179/217 161/181/217 168/183/217
f 165/182/218 167/184/218 174/187/218
f 171/200/72 173/185/72 180/190/72
f 177/201/219 179/188/219 186/192/219
f 183/191/72 185/193/72 192/195/72
