# Blender 4.5.10 LTS
# www.blender.org
mtllib thistle_fork.mtl
o thistle_fork
v -0.032602 0.024834 0.055779
v -0.031589 0.027125 0.054298
v -0.033615 0.027125 0.054298
v -0.032602 0.030829 -0.050941
v -0.033615 0.032894 -0.048374
v -0.031589 0.032894 -0.048374
v -0.049922 -0.004275 0.048521
v -0.052045 -0.003847 0.046576
v -0.051031 -0.005550 0.046151
v -0.032602 0.030829 -0.050941
v -0.034368 0.028223 -0.049538
v -0.035381 0.029926 -0.049114
v -0.015281 -0.004275 0.048521
v -0.014173 -0.005550 0.046151
v -0.013159 -0.003847 0.046576
v -0.032602 0.030829 -0.050941
v -0.029823 0.029926 -0.049114
v -0.030836 0.028223 -0.049538
v 0.048533 0.024834 0.042646
v 0.047273 0.027125 0.041369
v 0.046887 0.027125 0.043358
v -0.056225 0.030829 0.022283
v -0.053899 0.032894 0.023768
v -0.053512 0.032894 0.021778
v 0.038104 -0.004275 0.058264
v 0.035790 -0.003847 0.059976
v 0.035566 -0.005550 0.058900
v -0.056225 0.030829 0.022283
v -0.055186 0.028223 0.024284
v -0.054962 0.029926 0.025360
v 0.044714 -0.004275 0.024259
v 0.042599 -0.005550 0.022718
v 0.043210 -0.003847 0.021805
v -0.056225 0.030829 0.022283
v -0.053902 0.029926 0.019904
v -0.054512 0.028223 0.020817
v 0.051123 0.024834 -0.039504
v 0.049629 0.027125 -0.038511
v 0.051508 0.027125 -0.037752
v 0.011145 0.030829 0.059444
v 0.013046 0.032894 0.057444
v 0.011167 0.032894 0.056685
v 0.064464 -0.004275 -0.026287
v 0.065703 -0.003847 -0.023688
v 0.064604 -0.005550 -0.023674
v 0.011145 0.030829 0.059444
v 0.013308 0.028223 0.058806
v 0.014406 0.029926 0.058791
v 0.032345 -0.004275 -0.039264
v 0.030429 -0.005550 -0.037482
v 0.029649 -0.003847 -0.038255
v 0.011145 0.030829 0.059444
v 0.009253 0.029926 0.056709
v 0.010033 0.028223 0.057483
v -0.029024 0.024834 -0.057722
v -0.028334 0.027125 -0.056065
v -0.027230 0.027125 -0.057765
v 0.060479 0.030829 0.000402
v 0.058878 0.032894 -0.001846
v 0.057774 0.032894 -0.000146
v -0.013504 -0.004275 -0.068295
v -0.010716 -0.003847 -0.069016
v -0.010912 -0.005550 -0.067934
v 0.060479 0.030829 0.000402
v 0.060264 0.028223 -0.001843
v 0.060460 0.029926 -0.002924
v -0.032371 -0.004275 -0.039243
v -0.030987 -0.005550 -0.037022
v -0.031895 -0.003847 -0.036403
v 0.060479 0.030829 0.000402
v 0.057433 0.029926 0.001738
v 0.058341 0.028223 0.001119
v -0.062199 0.024834 0.017477
v -0.060442 0.027125 0.017116
v -0.061900 0.027125 0.015708
v 0.011934 0.030829 -0.059291
v 0.009422 0.032894 -0.058148
v 0.010880 0.032894 -0.056741
v -0.069617 -0.004275 0.000224
v -0.069792 -0.003847 -0.002649
v -0.068768 -0.005550 -0.002251
v 0.011934 0.030829 -0.059291
v 0.009690 0.028223 -0.059509
v 0.008666 0.029926 -0.059907
v -0.044698 -0.004275 0.024288
v -0.042254 -0.005550 0.023354
v -0.041820 -0.003847 0.024363
v 0.011934 0.030829 -0.059291
v 0.012665 0.029926 -0.056046
v 0.012231 0.028223 -0.057056
v 0.002461 0.021375 0.003614
v 0.007506 0.028242 0.002399
v -0.000520 0.028242 0.007862
v -0.015135 0.116371 -0.022231
v -0.016004 0.111839 -0.014882
v -0.007978 0.111839 -0.020345
v -0.002843 0.020425 0.003570
v -0.002501 0.027887 0.007846
v -0.009938 0.025116 0.002254
v -0.018911 0.115694 -0.022263
v -0.024078 0.108954 -0.020480
v -0.016641 0.111724 -0.014887
v -0.004218 0.018887 -0.001408
v -0.010452 0.024542 0.000393
v -0.007022 0.022829 -0.008526
v -0.019890 0.114599 -0.025807
v -0.020814 0.107057 -0.029998
v -0.024243 0.108769 -0.021078
v 0.000236 0.018887 -0.004440
v -0.005358 0.022829 -0.009659
v 0.004198 0.024542 -0.009580
v -0.016718 0.114599 -0.027966
v -0.010723 0.108769 -0.030283
v -0.020279 0.107057 -0.030362
v 0.004364 0.020425 -0.001336
v 0.005740 0.025116 -0.008420
v 0.008217 0.027887 0.000549
v -0.013780 0.115694 -0.025756
v -0.007750 0.111724 -0.020940
v -0.010226 0.108954 -0.029910
v -0.013551 0.108827 -0.019727
v -0.008784 0.115133 -0.020604
v -0.016335 0.115133 -0.015759
v -0.029288 0.204496 -0.044253
v -0.030327 0.200194 -0.037565
v -0.022776 0.200194 -0.042410
v -0.017986 0.108090 -0.019899
v -0.017695 0.114907 -0.015812
v -0.024453 0.112529 -0.021212
v -0.032192 0.204013 -0.044366
v -0.037085 0.197816 -0.042965
v -0.030327 0.200194 -0.037565
v -0.019034 0.106897 -0.024108
v -0.024775 0.112163 -0.022502
v -0.021401 0.110693 -0.030684
v -0.032879 0.203232 -0.047122
v -0.033711 0.196346 -0.051147
v -0.037085 0.197816 -0.042965
v -0.015248 0.106897 -0.026537
v -0.020240 0.110693 -0.031429
v -0.011396 0.112163 -0.031087
v -0.030399 0.203232 -0.048714
v -0.024868 0.197816 -0.050804
v -0.033711 0.196346 -0.051147
v -0.011860 0.108090 -0.023830
v -0.010357 0.112529 -0.030256
v -0.008265 0.114907 -0.021862
v -0.028180 0.204013 -0.046940
v -0.022776 0.200194 -0.042410
v -0.024868 0.197816 -0.050804
v 0.029567 0.115374 -0.027818
v 0.028340 0.117993 -0.028196
v 0.029502 0.117993 -0.026536
v -0.029373 0.140750 0.013452
v -0.026307 0.142021 0.012542
v -0.027469 0.142021 0.010883
v 0.027920 0.097188 -0.011864
v 0.027704 0.098132 -0.009113
v 0.026404 0.096612 -0.009440
v -0.029373 0.140750 0.013452
v -0.027846 0.137861 0.014532
v -0.026546 0.139381 0.014858
v 0.014011 0.097188 -0.031727
v 0.011215 0.096612 -0.031132
v 0.011353 0.098132 -0.032465
v -0.029373 0.140750 0.013452
v -0.029728 0.139381 0.010315
v -0.029865 0.137861 0.011648
v -0.022914 0.200757 -0.023557
v -0.018785 0.204287 -0.023730
v -0.025267 0.204717 -0.020673
v -0.025752 0.246137 -0.035953
v -0.027625 0.242422 -0.030973
v -0.021143 0.241992 -0.034030
v -0.038162 0.201813 -0.023693
v -0.035337 0.205414 -0.020763
v -0.041762 0.205877 -0.023935
v -0.028880 0.246353 -0.035981
v -0.034050 0.242886 -0.034145
v -0.027625 0.242422 -0.030973
v -0.047558 0.202535 -0.035728
v -0.047967 0.206354 -0.031883
v -0.049495 0.206502 -0.038897
v -0.030808 0.246501 -0.038451
v -0.035578 0.243034 -0.041159
v -0.034050 0.242886 -0.034145
v -0.044026 0.202381 -0.050599
v -0.047163 0.206400 -0.048718
v -0.042645 0.206121 -0.054291
v -0.030084 0.246470 -0.041502
v -0.031060 0.242755 -0.046733
v -0.035578 0.243034 -0.041159
v -0.030226 0.201466 -0.057108
v -0.033531 0.205517 -0.058590
v -0.026369 0.205021 -0.058526
v -0.027252 0.246282 -0.042837
v -0.023897 0.242259 -0.046669
v -0.031060 0.242755 -0.046733
v -0.016550 0.200479 -0.050353
v -0.017337 0.204370 -0.054065
v -0.012923 0.204030 -0.048412
v -0.024446 0.246080 -0.041452
v -0.019484 0.241920 -0.041015
v -0.023897 0.242259 -0.046669
v -0.013296 0.200164 -0.035422
v -0.010774 0.203822 -0.038551
v -0.012433 0.203895 -0.031566
v -0.023778 0.246015 -0.038388
v -0.021143 0.241992 -0.034030
v -0.019484 0.241920 -0.041015
v -0.002351 0.021370 -0.003688
v -0.007422 0.028227 -0.002611
v 0.000765 0.028227 -0.007830
v 0.010380 0.092545 0.016281
v 0.011460 0.088015 0.008945
v 0.003273 0.088015 0.014164
v 0.002949 0.020423 -0.003483
v 0.002715 0.027878 -0.007755
v 0.009981 0.025118 -0.001938
v 0.014154 0.091871 0.016427
v 0.019394 0.085135 0.014787
v 0.012127 0.087896 0.008970
v 0.004174 0.018891 0.001535
v 0.010432 0.024554 -0.000092
v 0.006736 0.022848 0.008723
v 0.015026 0.090780 0.020000
v 0.015852 0.083236 0.024233
v 0.019548 0.084942 0.015419
v -0.000369 0.018891 0.004432
v 0.005065 0.022848 0.009788
v -0.004485 0.024554 0.009419
v 0.011791 0.090780 0.022063
v 0.005730 0.084942 0.024229
v 0.015280 0.083236 0.024598
v -0.004402 0.020423 0.001204
v -0.005969 0.025118 0.008231
v -0.008176 0.027878 -0.000811
v 0.008920 0.091871 0.019764
v 0.003015 0.087896 0.014780
v 0.005222 0.085135 0.023822
v 0.009066 0.087138 0.014438
v 0.004559 0.093556 0.015815
v 0.011981 0.093556 0.010735
v 0.024155 0.157232 0.036482
v 0.024833 0.153261 0.029511
v 0.017411 0.153261 0.034592
v 0.013454 0.086244 0.014435
v 0.013277 0.093292 0.010734
v 0.020115 0.090387 0.015804
v 0.027022 0.156648 0.036480
v 0.031672 0.150355 0.034581
v 0.024833 0.153261 0.029511
v 0.014574 0.084798 0.018522
v 0.020446 0.089960 0.017010
v 0.017250 0.088165 0.025224
v 0.027754 0.155703 0.039150
v 0.028476 0.148560 0.042795
v 0.031672 0.150355 0.034581
v 0.010879 0.084798 0.021051
v 0.016159 0.088165 0.025970
v 0.007345 0.089960 0.025977
v 0.025340 0.155703 0.040803
v 0.019662 0.150355 0.042801
v 0.028476 0.148560 0.042795
v 0.007475 0.086244 0.018527
v 0.006340 0.090387 0.025232
v 0.004089 0.093292 0.017022
v 0.023115 0.156648 0.039154
v 0.017411 0.153261 0.034592
v 0.019662 0.150355 0.042801
v -0.032095 0.087874 0.023983
v -0.030869 0.090493 0.024361
v -0.032031 0.090493 0.022701
v 0.026844 0.113250 -0.017287
v 0.023779 0.114521 -0.016377
v 0.024940 0.114521 -0.014718
v -0.030449 0.069688 0.008028
v -0.030233 0.070632 0.005278
v -0.028933 0.069112 0.005605
v 0.026844 0.113250 -0.017287
v 0.025317 0.110361 -0.018367
v 0.024018 0.111881 -0.018693
v -0.016540 0.069688 0.027892
v -0.013744 0.069112 0.027297
v -0.013882 0.070632 0.028630
v 0.026844 0.113250 -0.017287
v 0.027199 0.111881 -0.014150
v 0.027336 0.110361 -0.015483
v 0.032698 0.154522 0.034565
v 0.032229 0.158162 0.030557
v 0.035893 0.158349 0.036729
v 0.021801 0.200088 0.039658
v 0.026838 0.196210 0.040961
v 0.023174 0.196023 0.034789
v 0.034026 0.155177 0.049778
v 0.036770 0.158781 0.046776
v 0.034229 0.159149 0.053481
v 0.022073 0.200223 0.042780
v 0.024298 0.196578 0.047666
v 0.026838 0.196210 0.040961
v 0.022953 0.155932 0.060287
v 0.026916 0.159648 0.060422
v 0.020084 0.159920 0.062612
v 0.019801 0.200378 0.044936
v 0.017465 0.196849 0.049856
v 0.024298 0.196578 0.047666
v 0.007817 0.156220 0.058179
v 0.010088 0.160110 0.061219
v 0.004108 0.160081 0.057244
v 0.016696 0.200437 0.044503
v 0.011486 0.196821 0.045882
v 0.017465 0.196849 0.049856
v 0.000015 0.155822 0.045040
v -0.001044 0.159819 0.048568
v -0.001667 0.159511 0.041421
v 0.015095 0.200355 0.041808
v 0.010862 0.196513 0.038735
v 0.011486 0.196821 0.045882
v 0.005424 0.155040 0.030765
v 0.001904 0.158994 0.031994
v 0.007106 0.158639 0.027057
v 0.016205 0.200195 0.038878
v 0.016064 0.196158 0.033799
v 0.010862 0.196513 0.038735
v 0.019969 0.154461 0.026103
v 0.016712 0.158257 0.023979
v 0.023822 0.158122 0.024969
v 0.019189 0.200076 0.037922
v 0.023174 0.196023 0.034789
v 0.016064 0.196158 0.033799
vn -0.0000 0.5426 0.8400
vn -0.0000 0.7792 -0.6267
vn -0.6320 -0.5194 0.5752
vn -0.5235 -0.1005 -0.8461
vn 0.6320 -0.5194 0.5752
vn 0.5235 -0.1005 -0.8461
vn -0.6407 0.1962 0.7423
vn -0.0000 1.0000 -0.0000
vn -0.0000 0.9984 0.0561
vn -0.8507 -0.4313 -0.3004
vn -0.0000 -0.8806 0.4738
vn 0.8507 -0.4313 -0.3004
vn 0.6407 0.1962 0.7423
vn -0.0000 -0.2419 0.9703
vn -0.8621 0.5059 0.0284
vn 0.8621 0.5059 0.0284
vn -0.0000 -0.9430 -0.3328
vn 0.8245 0.5426 0.1603
vn -0.6152 0.7792 -0.1196
vn 0.4440 -0.5194 0.7301
vn -0.9304 -0.1005 0.3524
vn 0.6852 -0.5194 -0.5106
vn -0.7307 -0.1005 -0.6753
vn 0.6064 0.1962 0.7706
vn -0.9629 -0.2698 -0.0000
vn 0.0551 0.9984 0.0107
vn -0.4572 -0.4313 0.7778
vn 0.4651 -0.8806 0.0904
vn 0.6173 0.7867 -0.0000
vn -0.1325 -0.4313 -0.8924
vn 0.8509 0.1962 -0.4873
vn 0.9525 -0.2419 0.1851
vn -0.1366 0.5059 0.8517
vn 0.1924 0.5059 -0.8409
vn -0.3267 -0.9430 -0.0635
vn 0.3147 0.5426 -0.7788
vn -0.2348 0.7792 0.5811
vn 0.8014 -0.5194 -0.2965
vn 0.1684 -0.1005 0.9806
vn -0.3705 -0.5194 -0.7700
vn -0.8023 -0.1005 0.5884
vn 0.8721 0.1962 -0.4482
vn 0.0210 0.9984 -0.0520
vn 0.6763 -0.4313 0.5972
vn 0.1775 -0.8806 -0.4393
vn -0.9013 -0.4313 -0.0402
vn -0.3160 0.1962 -0.9282
vn 0.3635 -0.2419 -0.8996
vn 0.8100 0.5059 0.2966
vn -0.7887 0.5059 -0.3493
vn -0.1247 -0.9430 0.3086
vn -0.7045 0.5426 -0.4575
vn 0.5256 0.7792 0.3413
vn -0.1382 -0.5194 -0.8433
vn 0.9947 -0.1005 0.0218
vn -0.8266 -0.5194 0.2168
vn 0.4245 -0.1005 0.8998
vn -0.2735 0.1962 -0.9416
vn -0.0470 0.9984 -0.0306
vn 0.7153 -0.4313 -0.5499
vn -0.3973 -0.8806 -0.2580
vn -0.2114 -0.4313 0.8771
vn -0.9715 0.1962 0.1331
vn -0.8138 -0.2419 -0.5285
vn 0.4457 0.5059 -0.7385
vn -0.4934 0.5059 0.7076
vn 0.2791 -0.9430 0.1813
vn -0.5835 0.5426 0.6042
vn 0.4354 0.7792 -0.4508
vn -0.8541 -0.5194 -0.0253
vn 0.2112 -0.1005 -0.9723
vn 0.0551 -0.5194 0.8527
vn 0.9643 -0.1005 -0.2450
vn -0.9765 0.1962 0.0888
vn 1.0000 -0.0000 -0.0000
vn -0.0390 0.9984 0.0404
vn -0.4033 -0.4313 -0.8070
vn -0.3291 -0.8806 0.3408
vn 0.8206 -0.4313 0.3749
vn -0.0547 0.1962 0.9790
vn -0.6740 -0.2419 0.6980
vn -0.6399 0.5059 -0.5784
vn 0.6004 0.5059 0.6193
vn 0.2312 -0.9430 -0.2394
vn 0.5437 -0.2581 0.7986
vn 0.3546 0.7766 0.5208
vn -0.4331 -0.4331 0.7905
vn -0.6105 0.6036 0.5128
vn -0.6862 -0.7163 -0.1263
vn -0.8606 0.3238 -0.3930
vn 0.1341 -0.7163 -0.6848
vn -0.0501 0.3238 -0.9448
vn 0.8942 -0.4331 -0.1131
vn 0.7009 0.6036 -0.3800
vn 0.0821 -0.4983 0.8631
vn -0.1563 0.8489 0.5050
vn 0.5345 0.3126 0.7852
vn -0.6225 0.1053 0.7755
vn -0.5580 -0.7368 0.3817
vn -0.7896 0.6129 0.0287
vn -0.9223 -0.2302 -0.3104
vn -0.2628 -0.8842 -0.3861
vn -0.4976 0.4671 -0.7309
vn 0.0493 -0.2302 -0.9719
vn 0.5597 -0.7368 -0.3792
vn 0.3162 0.6129 -0.7241
vn 0.9497 0.1053 -0.2948
vn 0.7729 -0.4983 0.3928
vn 0.5271 0.8489 0.0397
vn 0.1689 -0.9539 0.2480
vn -0.0534 0.2529 0.9660
vn 0.9183 0.2529 0.3045
vn -0.1689 0.9539 -0.2480
vn -0.9538 -0.0825 0.2889
vn -0.5386 -0.2899 -0.7911
vn 0.6184 -0.0825 -0.7815
vn 0.5185 -0.2796 0.8081
vn 0.3495 0.7623 0.5447
vn -0.4597 -0.4422 0.7702
vn -0.6170 0.6017 0.5073
vn -0.6911 -0.7052 -0.1583
vn -0.8456 0.3418 -0.4101
vn 0.1441 -0.7052 -0.6942
vn -0.0204 0.3418 -0.9396
vn 0.8917 -0.4422 -0.0969
vn 0.7182 0.6017 -0.3495
vn 0.0525 -0.5152 0.8555
vn -0.1598 0.8413 0.5164
vn 0.5166 0.2914 0.8051
vn -0.6421 0.0988 0.7602
vn -0.5771 -0.7367 0.3525
vn -0.7827 0.6221 0.0188
vn -0.9162 -0.2128 -0.3396
vn -0.2628 -0.8736 -0.4096
vn -0.4718 0.4867 -0.7352
vn 0.0731 -0.2128 -0.9744
vn 0.5610 -0.7367 -0.3777
vn 0.3433 0.6221 -0.7037
vn 0.9586 0.0988 -0.2669
vn 0.7558 -0.5152 0.4042
vn 0.5360 0.8413 0.0699
vn 0.1505 -0.9604 0.2346
vn -0.0767 0.2357 0.9688
vn 0.9126 0.2357 0.3340
vn -0.1505 0.9604 -0.2346
vn -0.9623 -0.0759 0.2613
vn -0.5202 -0.2685 -0.8108
vn 0.6385 -0.0759 -0.7658
vn 0.7844 0.2880 -0.5493
vn -0.3166 0.9223 0.2217
vn 0.6988 -0.6580 0.2806
vn -0.3878 0.1357 0.9117
vn -0.0247 -0.6580 -0.7526
vn -0.9893 0.1357 0.0526
vn 0.9963 -0.0166 0.0839
vn 0.2725 0.9431 -0.1908
vn 0.1568 -0.3339 0.9295
vn 0.1750 -0.9769 -0.1225
vn -0.8198 -0.3339 -0.4653
vn 0.2619 -0.0166 -0.9649
vn 0.7094 -0.5000 -0.4967
vn 0.6326 0.4776 0.6097
vn -0.3566 0.4776 -0.8029
vn -0.4737 -0.8158 0.3317
vn 0.3709 -0.3927 0.8416
vn 0.3477 0.6842 0.6411
vn -0.4364 -0.3368 0.8344
vn -0.2615 0.7264 0.6356
vn -0.9338 -0.2985 0.1972
vn -0.6369 0.7552 0.1548
vn -0.7468 -0.3067 -0.5901
vn -0.4958 0.7491 -0.4394
vn -0.0162 -0.3552 -0.9347
vn 0.0556 0.7125 -0.6995
vn 0.7078 -0.4074 -0.5771
vn 0.6020 0.6731 -0.4296
vn 0.8801 -0.4241 0.2134
vn 0.7320 0.6605 0.1670
vn -0.0491 -0.6070 0.7932
vn 0.0493 0.7917 0.6090
vn 0.4258 0.2631 0.8657
vn -0.4008 0.3203 0.8583
vn -0.6678 -0.5624 0.4876
vn -0.4198 0.8255 0.3773
vn -0.9101 0.3595 0.2060
vn -0.8150 -0.5482 -0.1879
vn -0.5314 0.8363 -0.1349
vn -0.7187 0.3511 -0.6002
vn -0.3799 -0.5750 -0.7246
vn -0.2015 0.8160 -0.5419
vn 0.0294 0.3015 -0.9530
vn 0.3099 -0.6227 -0.7184
vn 0.3216 0.7798 -0.5372
vn 0.7708 0.2480 -0.5869
vn 0.7349 -0.6554 -0.1740
vn 0.6438 0.7550 -0.1244
vn 0.9472 0.2309 0.2226
vn 0.5752 -0.6484 0.4987
vn 0.5227 0.7603 0.3857
vn -0.0690 -0.9976 -0.0060
vn 0.0097 0.2641 0.9645
vn 0.7640 0.2140 0.6087
vn 0.0690 0.9976 0.0060
vn -0.7380 0.3180 0.5952
vn -0.9159 0.3352 -0.2210
vn -0.3901 0.3028 -0.8696
vn 0.4435 0.2451 -0.8621
vn 0.9571 0.2056 -0.2043
vn -0.5196 -0.2562 -0.8151
vn -0.3379 0.7778 -0.5300
vn 0.4585 -0.4309 -0.7772
vn 0.6246 0.6058 -0.4928
vn 0.6845 -0.7137 0.1489
vn 0.8471 0.3276 0.4186
vn -0.1539 -0.7137 0.6834
vn 0.0220 0.3276 0.9446
vn -0.8981 -0.4309 0.0876
vn -0.7103 0.6058 0.3583
vn -0.0554 -0.4977 -0.8656
vn 0.1710 0.8494 -0.4993
vn -0.5101 0.3157 -0.8001
vn 0.6461 0.1092 -0.7554
vn 0.5711 -0.7357 -0.3640
vn 0.7888 0.6147 -0.0048
vn 0.9133 -0.2250 0.3394
vn 0.2525 -0.8828 0.3960
vn 0.4746 0.4697 0.7444
vn -0.0778 -0.2250 0.9712
vn -0.5710 -0.7357 0.3642
vn -0.3373 0.6147 0.7130
vn -0.9575 0.1092 0.2670
vn -0.7613 -0.4977 -0.4155
vn -0.5249 0.8494 -0.0557
vn -0.1607 -0.9543 -0.2521
vn 0.0829 0.2554 -0.9633
vn -0.9083 0.2554 -0.3314
vn 0.1607 0.9543 0.2521
vn 0.9627 -0.0788 -0.2590
vn 0.5152 -0.2854 0.8082
vn -0.6411 -0.0788 0.7634
vn -0.5517 -0.2145 -0.8060
vn -0.3359 0.8040 -0.4907
vn 0.4226 -0.4130 -0.8067
vn 0.6229 0.6087 -0.4914
vn 0.6715 -0.7342 0.1008
vn 0.8678 0.2926 0.4016
vn -0.1491 -0.7342 0.6624
vn 0.0604 0.2926 0.9543
vn -0.9050 -0.4130 0.1020
vn -0.6835 0.6087 0.4028
vn -0.0953 -0.4647 -0.8803
vn 0.1754 0.8627 -0.4743
vn -0.5278 0.3561 -0.7711
vn 0.6239 0.1215 -0.7720
vn 0.5411 -0.7351 -0.4085
vn 0.8028 0.5961 -0.0092
vn 0.9181 -0.2582 0.3008
vn 0.2437 -0.9022 0.3560
vn 0.5096 0.4314 0.7445
vn -0.0519 -0.2582 0.9647
vn -0.5766 -0.7351 0.3566
vn -0.9455 0.1215 0.3022
vn -0.7862 -0.4647 -0.4075
vn -0.5057 0.8627 -0.0082
vn -0.1918 -0.9406 -0.2803
vn 0.0580 0.2881 -0.9558
vn -0.9120 0.2881 -0.2919
vn 0.1918 0.9406 0.2803
vn 0.9516 -0.0915 -0.2933
vn 0.5339 -0.3262 0.7801
vn -0.6178 -0.0915 0.7810
vn -0.7844 0.2880 0.5493
vn 0.3166 0.9223 -0.2217
vn -0.6988 -0.6580 -0.2806
vn 0.3878 0.1357 -0.9117
vn 0.0247 -0.6580 0.7526
vn 0.9893 0.1357 -0.0526
vn -0.9963 -0.0166 -0.0839
vn -0.2724 0.9431 0.1908
vn -0.1568 -0.3339 -0.9295
vn -0.1750 -0.9769 0.1225
vn 0.8198 -0.3339 0.4653
vn -0.2619 -0.0166 0.9649
vn -0.7094 -0.5000 0.4967
vn -0.6326 0.4776 -0.6097
vn 0.3566 0.4776 0.8029
vn 0.4737 -0.8158 -0.3317
vn 0.7925 -0.4023 -0.4584
vn 0.6229 0.6779 -0.3903
vn 0.8628 -0.3677 0.3470
vn 0.6760 0.7041 0.2175
vn 0.2765 -0.3277 0.9034
vn 0.2335 0.7343 0.6374
vn -0.5248 -0.3125 0.7918
vn -0.3713 0.7458 0.5532
vn -0.9378 -0.3335 0.0962
vn -0.6830 0.7299 0.0282
vn -0.6515 -0.3749 -0.6595
vn -0.4669 0.6986 -0.5422
vn 0.1186 -0.4056 -0.9063
vn 0.1143 0.6755 -0.7284
vn 0.7783 -0.6265 -0.0410
vn 0.6219 0.7782 -0.0878
vn 0.8283 0.2539 -0.4995
vn 0.9003 0.2894 0.3252
vn 0.5336 -0.5911 0.6048
vn 0.4363 0.8051 0.4019
vn 0.3000 0.3304 0.8949
vn -0.1244 -0.5650 0.8157
vn -0.0626 0.8249 0.5618
vn -0.5205 0.3459 0.7806
vn -0.7002 -0.5677 0.4329
vn -0.4992 0.8228 0.2715
vn -0.9434 0.3244 0.0684
vn -0.7603 -0.5973 -0.2553
vn -0.5448 0.8004 -0.2503
vn -0.6502 0.2820 -0.7054
vn -0.2593 -0.6315 -0.7307
vn 0.1382 0.2506 -0.9582
vn 0.4254 -0.6445 -0.6353
vn 0.3543 0.7646 -0.5384
vn -0.0253 -0.9987 0.0452
vn 0.9658 0.2415 -0.0947
vn 0.5393 0.2198 -0.8129
vn 0.0253 0.9987 -0.0452
vn 0.6701 0.2843 0.6856
vn -0.1250 0.3160 0.9405
vn -0.8209 0.3126 0.4779
vn -0.8934 0.2769 -0.3537
vn -0.2881 0.2356 -0.9282
vn -0.5826 0.5054 -0.6365
vn -0.0000 -0.4738 -0.8806
vn 0.5826 0.5054 -0.6365
vn -0.7360 0.5054 0.4505
vn -0.8645 -0.4738 -0.1680
vn -0.5136 0.5054 -0.6934
vn 0.3018 0.5054 0.8084
vn -0.3299 -0.4738 0.8165
vn -0.7786 0.5054 0.3719
vn 0.8511 0.5054 -0.1420
vn 0.7386 -0.4738 0.4796
vn 0.2165 0.5054 0.8353
vn 0.0231 0.5054 -0.8626
vn 0.6117 -0.4738 -0.6335
vn 0.8613 0.5054 -0.0531
vn 0.5272 0.8488 0.0397
vn 0.0524 -0.5152 0.8555
vn -0.0000 -1.0000 -0.0000
vn 0.9625 0.2714 -0.0000
vn -0.0000 0.1546 0.9880
vn -0.0520 0.6612 0.7484
vn 0.2724 0.9431 -0.1908
vn -0.8002 -0.2136 0.5603
vn -0.7210 0.6612 -0.2071
vn 0.7888 0.6147 -0.0049
vn -0.3372 0.6147 0.7130
vn -0.2991 0.5961 0.7451
vn -0.8944 -0.4472 -0.0000
vn 0.1919 0.9406 0.2802
vn -0.0000 -0.3467 0.9380
vn 0.0520 0.6612 -0.7484
vn -0.2725 0.9431 0.1908
vn 0.8002 -0.2136 -0.5603
vn 0.7210 0.6612 0.2071
vn -0.0000 -0.8944 -0.4472
vn -0.0000 -0.0000 1.0000
vn -0.1649 0.7744 -0.6108
vn -1.0000 -0.0000 -0.0000
vn -0.9984 -0.0572 -0.0000
vn 0.0252 0.9987 -0.0452
vn -0.0000 -0.2954 -0.9554
vn -0.0000 0.3847 0.9230
vt 0.750000 0.450000
vt 0.738270 0.469577
vt 0.761730 0.469577
vt 0.250000 0.250000
vt 0.300951 0.401751
vt 0.199049 0.401751
vt 0.923205 0.150000
vt 0.946024 0.150370
vt 0.934294 0.130053
vt 0.250000 0.250000
vt 0.355945 0.130000
vt 0.406895 0.218249
vt 0.576795 0.150000
vt 0.565706 0.130053
vt 0.553976 0.150370
vt 0.250000 0.250000
vt 0.093105 0.218249
vt 0.144055 0.130000
vt 0.085826 0.990519
vt -0.000000 0.511017
vt 0.017551 0.509481
vt 0.649116 0.509481
vt 0.752493 0.990519
vt 0.580841 0.990519
vt 0.315782 0.509481
vt 0.419159 0.990519
vt 0.247507 0.990519
vt 0.914174 0.990519
vt 0.684218 0.509481
vt 0.982449 0.509481
vt 0.350884 0.509481
vt 0.750000 0.450000
vt 0.576795 0.150000
vt 0.750000 0.341672
vt 0.652557 0.418372
vt 0.847443 0.418372
vt 0.250000 0.323339
vt 0.358238 0.411361
vt 0.141762 0.411361
vt 0.837185 0.278328
vt 0.880020 0.394704
vt 0.940243 0.209356
vt 0.319750 0.272663
vt 0.436910 0.196923
vt 0.370016 0.402804
vt 0.803883 0.175836
vt 0.927800 0.171059
vt 0.770134 0.056508
vt 0.293108 0.190667
vt 0.257279 0.055836
vt 0.432412 0.183077
vt 0.696117 0.175836
vt 0.729866 0.056508
vt 0.572200 0.171059
vt 0.206892 0.190667
vt 0.067588 0.183077
vt 0.242721 0.055836
vt 0.662815 0.278328
vt 0.559757 0.209356
vt 0.619980 0.394704
vt 0.180250 0.272663
vt 0.129984 0.402804
vt 0.063090 0.196923
vt 0.094867 0.970002
vt 0.000000 0.530231
vt 0.085662 0.529998
vt 0.714338 0.529998
vt 0.894867 0.970002
vt 0.705133 0.970002
vt 0.514338 0.529998
vt 0.694867 0.970002
vt 0.505133 0.970002
vt 0.314338 0.529998
vt 0.494867 0.970002
vt 0.305133 0.970002
vt 0.114338 0.529998
vt 0.294867 0.970002
vt 0.105133 0.970002
vt 0.914338 0.529998
vt 0.885662 0.529998
vt 0.685662 0.529998
vt 0.485662 0.529998
vt 0.285662 0.529998
vt 0.750000 0.335991
vt 0.648854 0.415589
vt 0.851145 0.415589
vt 0.250000 0.314272
vt 0.364127 0.407082
vt 0.135873 0.407082
vt 0.831782 0.276573
vt 0.876228 0.397365
vt 0.938740 0.204975
vt 0.311126 0.269861
vt 0.434661 0.190000
vt 0.364127 0.407082
vt 0.800544 0.180432
vt 0.929159 0.175488
vt 0.765502 0.056584
vt 0.287778 0.198003
vt 0.250000 0.055836
vt 0.434661 0.190000
vt 0.699456 0.180432
vt 0.734498 0.056584
vt 0.570841 0.175488
vt 0.212222 0.198003
vt 0.065339 0.190000
vt 0.250000 0.055836
vt 0.668218 0.276573
vt 0.561260 0.204975
vt 0.623772 0.397365
vt 0.188874 0.269861
vt 0.135873 0.407082
vt 0.065339 0.190000
vt 0.088958 0.527721
vt 0.000000 0.972494
vt 0.000000 0.527936
vt 0.700000 0.972279
vt 0.888958 0.527721
vt 0.900000 0.972279
vt 0.500000 0.972279
vt 0.688958 0.527721
vt 0.311042 0.527721
vt 0.500000 0.972279
vt 0.300000 0.972279
vt 0.100000 0.972279
vt 0.288958 0.527721
vt 0.300000 0.972279
vt 0.911042 0.527721
vt 0.111042 0.527721
vt 0.100000 0.972279
vt 0.711042 0.527721
vt 0.511042 0.527721
vt 0.488958 0.527721
vt 0.750000 0.436667
vt 0.734433 0.462843
vt 0.765567 0.462843
vt 0.301115 0.401467
vt 0.198885 0.401467
vt 0.911658 0.156667
vt 0.942111 0.157060
vt 0.926544 0.130097
vt 0.250000 0.250000
vt 0.355617 0.130000
vt 0.406731 0.218533
vt 0.588342 0.156667
vt 0.573456 0.130097
vt 0.557889 0.157060
vt 0.250000 0.250000
vt 0.093269 0.218533
vt 0.144383 0.130000
vt 0.086060 0.986724
vt -0.000000 0.515385
vt 0.023384 0.513276
vt 0.580607 0.986724
vt 0.690051 0.513276
vt 0.752727 0.986724
vt 0.309949 0.513276
vt 0.419393 0.986724
vt 0.247273 0.986724
vt 0.976616 0.513276
vt 0.356717 0.513276
vt 0.643283 0.513276
vt 0.750000 0.442155
vt 0.706770 0.466668
vt 0.793230 0.466668
vt 0.250000 0.358427
vt 0.343820 0.444819
vt 0.156180 0.444819
vt 0.900233 0.369807
vt 0.892444 0.418888
vt 0.946351 0.351292
vt 0.334772 0.317603
vt 0.460811 0.298116
vt 0.343820 0.444819
vt 0.937338 0.207241
vt 0.970855 0.243932
vt 0.951616 0.159641
vt 0.355709 0.225873
vt 0.419057 0.115181
vt 0.460811 0.298116
vt 0.833373 0.076874
vt 0.882957 0.073546
vt 0.805060 0.036032
vt 0.297045 0.152310
vt 0.250000 0.033767
vt 0.419057 0.115181
vt 0.666627 0.076874
vt 0.694940 0.036032
vt 0.617043 0.073546
vt 0.202955 0.152310
vt 0.080943 0.115181
vt 0.562662 0.207241
vt 0.548384 0.159641
vt 0.529145 0.243933
vt 0.144291 0.225873
vt 0.039189 0.298116
vt 0.080943 0.115181
vt 0.599767 0.369807
vt 0.553649 0.351292
vt 0.607556 0.418888
vt 0.165228 0.317603
vt 0.156180 0.444819
vt 0.039189 0.298116
vt 0.032275 0.542275
vt 0.000000 0.963174
vt 0.000000 0.547724
vt 0.824868 0.542275
vt 0.928571 0.957725
vt 0.785714 0.957725
vt 0.642857 0.957725
vt 0.746560 0.542275
vt 0.785714 0.957725
vt 0.500000 0.957725
vt 0.603703 0.542275
vt 0.642857 0.957725
vt 0.357143 0.957725
vt 0.460846 0.542275
vt 0.500000 0.957725
vt 0.253440 0.542275
vt 0.357143 0.957725
vt 0.214286 0.957725
vt 0.110583 0.542275
vt 0.214286 0.957725
vt 0.071429 0.957725
vt 0.967725 0.542275
vt 0.889417 0.542275
vt 0.071429 0.957725
vt 0.682011 0.542275
vt 0.539154 0.542275
vt 0.396297 0.542275
vt 0.317989 0.542275
vt 0.175132 0.542275
vt 0.750000 0.341672
vt 0.652437 0.418006
vt 0.847563 0.418006
vt 0.250000 0.323339
vt 0.357958 0.411564
vt 0.142042 0.411564
vt 0.837185 0.278328
vt 0.879634 0.394705
vt 0.939932 0.209128
vt 0.437017 0.197251
vt 0.370295 0.402600
vt 0.803883 0.175836
vt 0.927682 0.171427
vt 0.769821 0.056734
vt 0.293108 0.190667
vt 0.257624 0.055836
vt 0.432305 0.182749
vt 0.696117 0.175836
vt 0.730179 0.056734
vt 0.572318 0.171427
vt 0.206892 0.190667
vt 0.067695 0.182749
vt 0.242376 0.055836
vt 0.662815 0.278328
vt 0.560068 0.209128
vt 0.620366 0.394705
vt 0.180250 0.272663
vt 0.129705 0.402600
vt 0.062983 0.197251
vt 0.094634 0.960004
vt 0.000000 0.540410
vt 0.085862 0.539996
vt 0.714138 0.539996
vt 0.894634 0.960004
vt 0.705366 0.960004
vt 0.514138 0.539996
vt 0.694634 0.960004
vt 0.505366 0.960004
vt 0.314138 0.539996
vt 0.494634 0.960004
vt 0.305366 0.960004
vt 0.105366 0.960004
vt 0.285862 0.539996
vt 0.294634 0.960004
vt 0.905366 0.960004
vt 0.885862 0.539996
vt 0.914138 0.539996
vt 0.114138 0.539996
vt 0.685862 0.539996
vt 0.485862 0.539996
vt 0.750000 0.335592
vt 0.648480 0.414997
vt 0.851520 0.414996
vt 0.250000 0.313817
vt 0.364127 0.407082
vt 0.135873 0.407082
vt 0.831403 0.276449
vt 0.875549 0.397538
vt 0.938292 0.204436
vt 0.310693 0.269720
vt 0.434661 0.190000
vt 0.364127 0.407082
vt 0.800310 0.180754
vt 0.929114 0.176187
vt 0.764851 0.056843
vt 0.287511 0.198371
vt 0.250000 0.055836
vt 0.434661 0.190000
vt 0.699690 0.180754
vt 0.735149 0.056843
vt 0.570886 0.176187
vt 0.212489 0.198371
vt 0.065339 0.190000
vt 0.250000 0.055836
vt 0.668597 0.276449
vt 0.561708 0.204435
vt 0.624450 0.397538
vt 0.189307 0.269720
vt 0.135873 0.407082
vt 0.065339 0.190000
vt 0.089403 0.537055
vt 0.000000 0.963328
vt 0.000000 0.537439
vt 0.700000 0.962945
vt 0.889403 0.537055
vt 0.900000 0.962945
vt 0.500000 0.962945
vt 0.689403 0.537055
vt 0.310597 0.537055
vt 0.500000 0.962945
vt 0.300000 0.962945
vt 0.100000 0.962945
vt 0.289403 0.537055
vt 0.300000 0.962945
vt 0.910597 0.537055
vt 0.110597 0.537055
vt 0.100000 0.962945
vt 0.710597 0.537055
vt 0.510597 0.537055
vt 0.489403 0.537055
vt 0.750000 0.436667
vt 0.588342 0.156667
vt 0.913940 0.986724
vt 0.599767 0.369807
vt -0.000000 0.992055
vt 0.000000 0.970234
vt 0.905133 0.970002
vt 0.900000 0.972279
vt -0.000000 0.988834
vt 0.928571 0.957725
vt 0.000000 0.960418
vt 0.900000 0.962945
s 0
usemtl moss
f 1/1/1 2/2/1 3/3/1
f 4/4/2 5/5/2 6/6/2
f 7/7/3 8/8/3 9/9/3
f 10/10/4 11/11/4 12/12/4
f 13/13/5 14/14/5 15/15/5
f 16/16/6 17/17/6 18/18/6
f 3/3/7 7/7/7 1/1/7
f 12/12/8 4/4/8 10/10/8
f 6/19/9 3/20/9 2/21/9
f 9/22/10 12/23/10 11/24/10
f 9/9/11 13/13/11 7/7/11
f 18/18/8 10/10/8 16/16/8
f 15/25/12 18/26/12 17/27/12
f 15/15/13 1/1/13 13/13/13
f 6/6/8 16/16/8 4/4/8
f 1/1/14 7/7/14 13/13/14
f 5/28/15 8/29/15 3/30/15
f 15/25/16 6/19/16 2/21/16
f 10/10/8 4/4/8 16/16/8
f 11/24/17 14/31/17 9/22/17
f 19/32/18 20/2/18 21/3/18
f 22/4/19 23/5/19 24/6/19
f 25/7/20 26/8/20 27/9/20
f 28/10/21 29/11/21 30/12/21
f 31/33/22 32/14/22 33/15/22
f 34/16/23 35/17/23 36/18/23
f 26/8/24 19/32/24 21/3/24
f 30/12/25 22/4/25 28/10/25
f 24/19/26 21/20/26 20/21/26
f 27/22/27 30/23/27 29/24/27
f 27/9/28 31/33/28 25/7/28
f 36/18/29 28/10/29 34/16/29
f 33/25/30 36/26/30 35/27/30
f 33/15/31 19/32/31 31/33/31
f 24/6/8 34/16/8 22/4/8
f 19/32/32 25/7/32 31/33/32
f 23/28/33 26/29/33 21/30/33
f 35/27/34 20/21/34 33/25/34
f 28/10/8 22/4/8 34/16/8
f 29/24/35 32/31/35 27/22/35
f 37/32/36 38/2/36 39/3/36
f 40/4/37 41/5/37 42/6/37
f 43/7/38 44/8/38 45/9/38
f 46/10/39 47/11/39 48/12/39
f 49/13/40 50/14/40 51/15/40
f 52/16/41 53/17/41 54/18/41
f 44/8/42 37/32/42 39/3/42
f 48/12/8 40/4/8 46/10/8
f 42/19/43 39/20/43 38/21/43
f 45/22/44 48/23/44 47/24/44
f 50/14/45 43/7/45 45/9/45
f 54/18/8 46/10/8 52/16/8
f 53/27/46 50/31/46 54/26/46
f 51/15/47 37/32/47 49/13/47
f 42/6/8 52/16/8 40/4/8
f 37/32/48 43/7/48 49/13/48
f 41/28/49 44/29/49 39/30/49
f 53/27/50 38/21/50 51/25/50
f 46/10/8 40/4/8 52/16/8
f 47/24/51 50/31/51 45/22/51
f 55/1/52 56/2/52 57/3/52
f 58/4/53 59/5/53 60/6/53
f 61/7/54 62/8/54 63/9/54
f 64/10/55 65/11/55 66/12/55
f 67/33/56 68/14/56 69/15/56
f 70/16/57 71/17/57 72/18/57
f 62/8/58 55/1/58 57/3/58
f 66/12/8 58/4/8 64/10/8
f 60/19/59 57/20/59 56/21/59
f 65/24/60 62/29/60 66/23/60
f 68/14/61 61/7/61 63/9/61
f 72/18/8 64/10/8 70/16/8
f 71/27/62 68/31/62 72/26/62
f 69/15/63 55/1/63 67/33/63
f 60/6/8 70/16/8 58/4/8
f 55/1/64 61/7/64 67/33/64
f 59/28/65 62/29/65 57/30/65
f 69/25/66 60/19/66 56/21/66
f 64/10/8 58/4/8 70/16/8
f 65/24/67 68/31/67 63/22/67
f 73/32/68 74/2/68 75/3/68
f 76/4/69 77/5/69 78/6/69
f 79/7/70 80/8/70 81/9/70
f 82/10/71 83/11/71 84/12/71
f 85/13/72 86/14/72 87/15/72
f 88/16/73 89/17/73 90/18/73
f 75/3/74 79/7/74 73/32/74
f 84/12/75 76/4/75 82/10/75
f 78/19/76 75/20/76 74/21/76
f 81/22/77 84/23/77 83/24/77
f 86/14/78 79/7/78 81/9/78
f 90/18/8 82/10/8 88/16/8
f 89/27/79 86/31/79 90/26/79
f 74/2/80 85/13/80 87/15/80
f 78/6/75 88/16/75 76/4/75
f 73/32/81 79/7/81 85/13/81
f 77/28/82 80/29/82 75/30/82
f 89/27/83 74/21/83 87/25/83
f 82/10/8 76/4/8 88/16/8
f 83/24/84 86/31/84 81/22/84
f 151/134/149 152/135/149 153/136/149
f 154/16/150 155/137/150 156/138/150
f 157/139/151 158/140/151 159/141/151
f 160/142/152 161/143/152 162/144/152
f 163/145/153 164/146/153 165/147/153
f 166/148/154 167/149/154 168/150/154
f 153/136/155 157/139/155 151/134/155
f 162/144/8 154/16/8 160/142/8
f 156/151/156 153/152/156 152/153/156
f 161/154/157 158/155/157 162/156/157
f 164/146/158 157/139/158 159/141/158
f 168/150/8 160/142/8 166/148/8
f 165/157/159 168/158/159 167/159/159
f 152/135/160 163/145/160 165/147/160
f 156/138/8 166/148/8 154/16/8
f 151/134/161 157/139/161 163/145/161
f 153/160/162 162/156/162 158/155/162
f 167/159/163 152/153/163 165/157/163
f 160/142/8 154/16/8 166/148/8
f 161/154/164 164/161/164 159/162/164
f 271/333/272 272/135/272 273/136/272
f 274/16/273 275/137/273 276/138/273
f 277/139/274 278/140/274 279/141/274
f 280/142/275 281/143/275 282/144/275
f 283/334/276 284/146/276 285/147/276
f 286/148/277 287/149/277 288/150/277
f 273/136/278 277/139/278 271/333/278
f 282/144/8 274/16/8 280/142/8
f 276/151/279 273/152/279 272/153/279
f 279/162/280 282/156/280 281/154/280
f 284/146/281 277/139/281 279/141/281
f 288/150/8 280/142/8 286/148/8
f 287/159/282 284/161/282 288/158/282
f 272/135/283 283/334/283 285/147/283
f 276/138/8 286/148/8 274/16/8
f 271/333/284 277/139/284 283/334/284
f 275/335/285 278/155/285 273/160/285
f 285/157/286 276/151/286 272/153/286
f 280/142/8 274/16/8 286/148/8
f 281/154/287 284/161/287 279/162/287
f 3/3/7 8/8/7 7/7/7
f 12/12/331 5/5/331 4/4/331
f 6/19/9 5/337/9 3/20/9
f 9/22/10 8/29/10 12/23/10
f 9/9/11 14/14/11 13/13/11
f 18/18/332 11/11/332 10/10/332
f 15/25/12 14/31/12 18/26/12
f 15/15/13 2/2/13 1/1/13
f 6/6/333 17/17/333 16/16/333
f 5/28/15 12/23/15 8/29/15
f 15/25/16 17/27/16 6/19/16
f 11/24/17 18/26/17 14/31/17
f 26/8/24 25/7/24 19/32/24
f 30/12/334 23/5/334 22/4/334
f 24/19/26 23/337/26 21/20/26
f 27/22/27 26/29/27 30/23/27
f 27/9/28 32/14/28 31/33/28
f 36/18/335 29/11/335 28/10/335
f 33/25/30 32/31/30 36/26/30
f 33/15/31 20/2/31 19/32/31
f 24/6/336 35/17/336 34/16/336
f 23/28/33 30/23/33 26/29/33
f 35/27/34 24/19/34 20/21/34
f 29/24/35 36/26/35 32/31/35
f 44/8/42 43/7/42 37/32/42
f 48/12/337 41/5/337 40/4/337
f 42/19/43 41/337/43 39/20/43
f 45/22/44 44/29/44 48/23/44
f 50/14/45 49/13/45 43/7/45
f 54/18/338 47/11/338 46/10/338
f 53/27/46 51/25/46 50/31/46
f 51/15/47 38/2/47 37/32/47
f 42/6/339 53/17/339 52/16/339
f 41/28/49 48/23/49 44/29/49
f 53/27/50 42/19/50 38/21/50
f 47/24/51 54/26/51 50/31/51
f 62/8/58 61/7/58 55/1/58
f 66/12/340 59/5/340 58/4/340
f 60/19/59 59/337/59 57/20/59
f 65/24/60 63/22/60 62/29/60
f 68/14/61 67/33/61 61/7/61
f 72/18/341 65/11/341 64/10/341
f 71/27/62 69/25/62 68/31/62
f 69/15/63 56/2/63 55/1/63
f 60/6/342 71/17/342 70/16/342
f 59/28/65 66/23/65 62/29/65
f 69/25/66 71/27/66 60/19/66
f 65/24/67 72/26/67 68/31/67
f 75/3/74 80/8/74 79/7/74
f 84/12/343 77/5/343 76/4/343
f 78/19/76 77/337/76 75/20/76
f 81/22/77 80/29/77 84/23/77
f 86/14/78 85/13/78 79/7/78
f 90/18/344 83/11/344 82/10/344
f 89/27/79 87/25/79 86/31/79
f 74/2/80 73/32/80 85/13/80
f 78/6/345 89/17/345 88/16/345
f 77/28/82 84/23/82 80/29/82
f 89/27/83 78/19/83 74/21/83
f 83/24/84 90/26/84 86/31/84
f 153/136/155 158/140/155 157/139/155
f 162/144/351 155/137/351 154/16/351
f 156/151/352 155/341/352 153/152/352
f 161/154/157 159/162/157 158/155/157
f 164/146/158 163/145/158 157/139/158
f 168/150/353 161/143/353 160/142/353
f 165/157/159 164/161/159 168/158/159
f 152/135/160 151/134/160 163/145/160
f 156/138/354 167/149/354 166/148/354
f 153/160/162 155/335/162 162/156/162
f 167/159/163 156/151/163 152/153/163
f 161/154/164 168/158/164 164/161/164
f 273/136/278 278/140/278 277/139/278
f 282/144/361 275/137/361 274/16/361
f 276/151/362 275/341/362 273/152/362
f 279/162/280 278/155/280 282/156/280
f 284/146/281 283/334/281 277/139/281
f 288/150/363 281/143/363 280/142/363
f 287/159/282 285/157/282 284/161/282
f 272/135/283 271/333/283 283/334/283
f 276/138/364 287/149/364 286/148/364
f 275/335/285 282/156/285 278/155/285
f 285/157/286 287/159/286 276/151/286
f 281/154/287 288/158/287 284/161/287
usemtl bark
f 91/34/85 92/35/85 93/36/85
f 94/37/86 95/38/86 96/39/86
f 97/40/87 98/41/87 99/42/87
f 100/43/88 101/44/88 102/45/88
f 103/46/89 104/47/89 105/48/89
f 106/49/90 107/50/90 108/51/90
f 109/52/91 110/53/91 111/54/91
f 112/55/92 113/56/92 114/57/92
f 115/58/93 116/59/93 117/60/93
f 118/61/94 119/62/94 120/63/94
f 98/41/95 91/34/95 93/36/95
f 95/38/96 100/43/96 102/45/96
f 96/64/97 93/65/97 92/66/97
f 99/67/98 102/68/98 101/69/98
f 104/47/99 97/40/99 99/42/99
f 101/44/100 106/49/100 108/51/100
f 105/70/101 108/71/101 107/72/101
f 110/53/102 103/46/102 105/48/102
f 107/50/103 112/55/103 114/57/103
f 111/73/104 114/74/104 113/75/104
f 111/54/105 115/58/105 109/52/105
f 113/56/106 118/61/106 120/63/106
f 117/76/107 120/77/107 119/78/107
f 92/35/108 115/58/108 117/60/108
f 96/39/109 118/61/109 94/37/109
f 97/40/110 109/52/110 115/58/110
f 93/79/111 102/68/111 98/80/111
f 119/78/112 92/66/112 117/76/112
f 94/37/113 112/55/113 106/49/113
f 101/69/114 104/81/114 99/67/114
f 107/72/115 110/82/115 105/70/115
f 113/75/116 116/83/116 111/73/116
f 121/84/117 122/85/117 123/86/117
f 124/87/118 125/88/118 126/89/118
f 127/90/119 128/91/119 129/92/119
f 130/93/120 131/94/120 132/95/120
f 133/96/121 134/97/121 135/98/121
f 136/99/122 137/100/122 138/101/122
f 139/102/123 140/103/123 141/104/123
f 142/105/124 143/106/124 144/107/124
f 145/108/125 146/109/125 147/110/125
f 148/111/126 149/112/126 150/113/126
f 123/86/127 127/90/127 121/84/127
f 132/95/128 124/87/128 130/93/128
f 122/114/129 125/115/129 123/116/129
f 131/117/130 128/118/130 132/119/130
f 129/92/131 133/96/131 127/90/131
f 138/101/132 130/93/132 136/99/132
f 137/120/133 134/121/133 138/117/133
f 135/98/134 139/102/134 133/96/134
f 144/107/135 136/99/135 142/105/135
f 141/122/136 144/123/136 143/124/136
f 141/104/137 145/108/137 139/102/137
f 150/113/138 142/105/138 148/111/138
f 149/125/139 146/126/139 150/127/139
f 147/110/140 121/84/140 145/108/140
f 126/89/141 148/111/141 124/87/141
f 127/90/142 139/102/142 145/108/142
f 123/128/143 132/119/143 128/118/143
f 147/129/144 126/130/144 122/114/144
f 124/87/145 142/105/145 136/99/145
f 129/131/146 138/117/146 134/121/146
f 135/132/147 144/123/147 140/133/147
f 141/122/148 150/127/148 146/126/148
f 211/233/209 212/234/209 213/235/209
f 214/236/210 215/237/210 216/238/210
f 217/239/211 218/240/211 219/241/211
f 220/43/212 221/242/212 222/243/212
f 223/244/213 224/245/213 225/246/213
f 226/247/214 227/248/214 228/249/214
f 229/250/215 230/251/215 231/252/215
f 232/253/216 233/254/216 234/255/216
f 235/256/217 236/257/217 237/258/217
f 238/259/218 239/260/218 240/261/218
f 218/240/219 211/233/219 213/235/219
f 222/243/220 214/236/220 220/43/220
f 216/262/221 213/263/221 212/264/221
f 219/265/222 222/266/222 221/267/222
f 219/241/223 223/244/223 217/239/223
f 221/242/224 226/247/224 228/249/224
f 225/268/225 228/269/225 227/270/225
f 230/251/226 223/244/226 225/246/226
f 227/248/227 232/253/227 234/255/227
f 231/271/228 234/272/228 233/273/228
f 236/257/229 229/250/229 231/252/229
f 240/261/230 232/253/230 238/259/230
f 239/274/231 236/275/231 240/276/231
f 212/234/232 235/256/232 237/258/232
f 216/238/233 238/259/233 214/236/233
f 217/239/234 229/250/234 235/256/234
f 215/277/235 218/278/235 213/279/235
f 239/274/236 212/264/236 237/280/236
f 214/236/237 232/253/237 226/247/237
f 221/267/238 224/281/238 219/265/238
f 227/270/239 230/282/239 225/268/239
f 233/273/240 236/275/240 231/271/240
f 241/283/241 242/284/241 243/285/241
f 244/286/242 245/287/242 246/288/242
f 247/289/243 248/290/243 249/291/243
f 250/292/244 251/293/244 252/294/244
f 253/295/245 254/296/245 255/297/245
f 256/298/246 257/299/246 258/300/246
f 259/301/247 260/302/247 261/303/247
f 262/304/248 263/305/248 264/306/248
f 265/307/249 266/308/249 267/309/249
f 268/310/250 269/311/250 270/312/250
f 248/290/251 241/283/251 243/285/251
f 252/294/252 244/286/252 250/292/252
f 242/313/253 245/314/253 243/315/253
f 251/316/254 248/317/254 252/318/254
f 254/296/255 247/289/255 249/291/255
f 258/300/256 250/292/256 256/298/256
f 257/319/257 254/320/257 258/316/257
f 255/297/258 259/301/258 253/295/258
f 264/306/259 256/298/259 262/304/259
f 261/321/260 264/322/260 263/323/260
f 261/303/261 265/307/261 259/301/261
f 263/305/8 268/310/8 270/312/8
f 269/324/262 266/325/262 270/326/262
f 267/309/263 241/283/263 265/307/263
f 246/288/264 268/310/264 244/286/264
f 247/289/265 259/301/265 265/307/265
f 243/327/266 252/318/266 248/317/266
f 267/328/267 246/329/267 242/313/267
f 244/286/268 262/304/268 256/298/268
f 249/330/269 258/316/269 254/320/269
f 255/331/270 264/322/270 260/332/270
f 261/321/271 270/326/271 266/325/271
f 98/41/95 97/40/95 91/34/95
f 95/38/96 94/37/96 100/43/96
f 96/64/97 95/338/97 93/65/97
f 99/67/98 98/80/98 102/68/98
f 104/47/99 103/46/99 97/40/99
f 101/44/100 100/43/100 106/49/100
f 105/70/101 104/81/101 108/71/101
f 110/53/102 109/52/102 103/46/102
f 107/50/103 106/49/103 112/55/103
f 111/73/104 110/82/104 114/74/104
f 111/54/105 116/59/105 115/58/105
f 113/56/106 112/55/106 118/61/106
f 117/76/107 116/83/107 120/77/107
f 92/35/108 91/34/108 115/58/108
f 96/39/346 119/62/346 118/61/346
f 115/58/110 91/34/110 97/40/110
f 97/40/110 103/46/110 109/52/110
f 93/79/111 95/339/111 102/68/111
f 119/78/112 96/64/112 92/66/112
f 106/49/113 100/43/113 94/37/113
f 94/37/113 118/61/113 112/55/113
f 101/69/114 108/71/114 104/81/114
f 107/72/115 114/74/115 110/82/115
f 113/75/116 120/77/116 116/83/116
f 123/86/347 128/91/347 127/90/347
f 132/95/348 125/88/348 124/87/348
f 122/114/129 126/130/129 125/115/129
f 131/117/130 129/131/130 128/118/130
f 129/92/131 134/97/131 133/96/131
f 138/101/348 131/94/348 130/93/348
f 137/120/133 135/132/133 134/121/133
f 135/98/134 140/103/134 139/102/134
f 144/107/8 137/100/8 136/99/8
f 141/122/136 140/133/136 144/123/136
f 141/104/137 146/109/137 145/108/137
f 150/113/8 143/106/8 142/105/8
f 149/125/139 147/129/139 146/126/139
f 147/110/140 122/85/140 121/84/140
f 126/89/8 149/112/8 148/111/8
f 145/108/142 121/84/142 127/90/142
f 127/90/142 133/96/142 139/102/142
f 123/128/348 125/340/348 132/119/348
f 147/129/8 149/125/8 126/130/8
f 136/99/145 130/93/145 124/87/145
f 124/87/145 148/111/145 142/105/145
f 129/131/349 131/117/349 138/117/349
f 135/132/8 137/120/8 144/123/8
f 141/122/350 143/124/350 150/127/350
f 218/240/219 217/239/219 211/233/219
f 222/243/220 215/237/220 214/236/220
f 216/262/221 215/343/221 213/263/221
f 219/265/222 218/278/222 222/266/222
f 219/241/223 224/245/223 223/244/223
f 221/242/355 220/43/355 226/247/355
f 225/268/225 224/281/225 228/269/225
f 230/251/226 229/250/226 223/244/226
f 227/248/227 226/247/227 232/253/227
f 231/271/228 230/282/228 234/272/228
f 236/257/229 235/256/229 229/250/229
f 240/261/356 233/254/356 232/253/356
f 239/274/231 237/280/231 236/275/231
f 212/234/232 211/233/232 235/256/232
f 216/238/233 239/260/233 238/259/233
f 235/256/234 211/233/234 217/239/234
f 217/239/234 223/244/234 229/250/234
f 215/277/235 222/266/235 218/278/235
f 239/274/236 216/262/236 212/264/236
f 226/247/237 220/43/237 214/236/237
f 214/236/237 238/259/237 232/253/237
f 221/267/238 228/269/238 224/281/238
f 227/270/239 234/272/239 230/282/239
f 233/273/240 240/276/240 236/275/240
f 248/290/251 247/289/251 241/283/251
f 252/294/8 245/287/8 244/286/8
f 242/313/253 246/329/253 245/314/253
f 251/316/254 249/330/254 248/317/254
f 254/296/255 253/295/255 247/289/255
f 258/300/8 251/293/8 250/292/8
f 257/319/257 255/331/257 254/320/257
f 255/297/258 260/302/258 259/301/258
f 264/306/8 257/299/8 256/298/8
f 261/321/260 260/332/260 264/322/260
f 261/303/261 266/308/261 265/307/261
f 263/305/357 262/304/357 268/310/357
f 269/324/262 267/328/262 266/325/262
f 267/309/263 242/284/263 241/283/263
f 246/288/358 269/311/358 268/310/358
f 265/307/265 241/283/265 247/289/265
f 247/289/265 253/295/265 259/301/265
f 243/327/8 245/344/8 252/318/8
f 267/328/75 269/324/75 246/329/75
f 256/298/268 250/292/268 244/286/268
f 244/286/359 268/310/359 262/304/359
f 249/330/8 251/316/8 258/316/8
f 255/331/8 257/319/8 264/322/8
f 261/321/360 263/323/360 270/326/360
usemtl bud
f 169/163/165 170/164/165 171/165/165
f 172/166/166 173/167/166 174/168/166
f 175/169/167 176/170/167 177/171/167
f 178/172/168 179/173/168 180/174/168
f 181/175/169 182/176/169 183/177/169
f 184/178/170 185/179/170 186/180/170
f 187/181/171 188/182/171 189/183/171
f 190/184/172 191/185/172 192/186/172
f 193/187/173 194/188/173 195/189/173
f 196/190/174 197/191/174 198/185/174
f 199/192/175 200/193/175 201/194/175
f 202/195/176 203/196/176 204/197/176
f 205/198/177 206/199/177 207/200/177
f 208/201/178 209/202/178 210/203/178
f 171/165/179 175/169/179 169/163/179
f 180/174/180 172/166/180 178/172/180
f 170/204/181 173/205/181 171/206/181
f 177/207/182 180/208/182 179/209/182
f 177/171/183 181/175/183 175/169/183
f 186/180/184 178/172/184 184/178/184
f 185/210/185 182/211/185 186/212/185
f 183/177/186 187/181/186 181/175/186
f 192/186/187 184/178/187 190/184/187
f 191/213/188 188/214/188 192/215/188
f 194/188/189 187/181/189 189/183/189
f 198/185/190 190/184/190 196/190/190
f 197/216/191 194/217/191 198/218/191
f 200/193/192 193/187/192 195/189/192
f 204/197/193 196/190/193 202/195/193
f 201/219/194 204/220/194 203/221/194
f 206/199/195 199/192/195 201/194/195
f 210/203/196 202/195/196 208/201/196
f 207/222/197 210/223/197 209/224/197
f 170/164/198 205/198/198 207/200/198
f 174/168/199 208/201/199 172/166/199
f 175/169/200 187/181/200 199/192/200
f 171/225/201 180/208/201 176/226/201
f 207/222/202 174/227/202 170/204/202
f 172/166/203 202/195/203 190/184/203
f 177/207/204 186/212/204 182/211/204
f 183/228/205 192/215/205 188/214/205
f 189/229/206 198/218/206 194/217/206
f 195/230/207 204/220/207 200/231/207
f 201/219/208 210/223/208 206/232/208
f 289/163/288 290/164/288 291/165/288
f 292/166/289 293/167/289 294/168/289
f 295/169/290 296/170/290 297/171/290
f 298/172/291 299/173/291 300/174/291
f 301/175/292 302/176/292 303/177/292
f 304/178/293 305/179/293 306/180/293
f 307/181/294 308/182/294 309/183/294
f 310/184/295 311/185/295 312/186/295
f 313/187/296 314/188/296 315/189/296
f 316/190/297 317/191/297 318/185/297
f 319/192/298 320/193/298 321/194/298
f 322/195/299 323/196/299 324/197/299
f 325/336/300 326/199/300 327/200/300
f 328/201/301 329/202/301 330/203/301
f 291/165/302 295/169/302 289/163/302
f 300/174/303 292/166/303 298/172/303
f 290/204/304 293/205/304 291/206/304
f 299/209/305 296/226/305 300/208/305
f 297/171/306 301/175/306 295/169/306
f 306/180/307 298/172/307 304/178/307
f 305/210/308 302/211/308 306/212/308
f 303/177/309 307/181/309 301/175/309
f 312/186/310 304/178/310 310/184/310
f 309/229/311 312/215/311 311/213/311
f 309/183/312 313/187/312 307/181/312
f 318/185/313 310/184/313 316/190/313
f 317/216/314 314/217/314 318/218/314
f 315/189/315 319/192/315 313/187/315
f 324/197/316 316/190/316 322/195/316
f 321/219/317 324/220/317 323/221/317
f 321/194/318 325/336/318 319/192/318
f 323/196/75 328/201/75 330/203/75
f 329/224/319 326/232/319 330/223/319
f 327/200/320 289/163/320 325/336/320
f 294/168/321 328/201/321 292/166/321
f 295/169/322 307/181/322 319/192/322
f 291/225/323 300/208/323 296/226/323
f 327/222/324 294/227/324 290/204/324
f 292/166/325 322/195/325 310/184/325
f 297/207/326 306/212/326 302/211/326
f 303/228/327 312/215/327 308/214/327
f 309/229/328 318/218/328 314/217/328
f 315/230/329 324/220/329 320/231/329
f 323/221/330 326/232/330 321/219/330
f 171/165/179 176/170/179 175/169/179
f 180/174/8 173/167/8 172/166/8
f 170/204/181 174/227/181 173/205/181
f 177/207/182 176/226/182 180/208/182
f 177/171/183 182/176/183 181/175/183
f 186/180/8 179/173/8 178/172/8
f 185/210/185 183/228/185 182/211/185
f 183/177/186 188/182/186 187/181/186
f 192/186/8 185/179/8 184/178/8
f 191/213/188 189/229/188 188/214/188
f 194/188/189 193/187/189 187/181/189
f 198/185/8 191/185/8 190/184/8
f 197/216/191 195/230/191 194/217/191
f 200/193/192 199/192/192 193/187/192
f 204/197/8 197/191/8 196/190/8
f 201/219/194 200/231/194 204/220/194
f 206/199/195 205/198/195 199/192/195
f 210/203/8 203/196/8 202/195/8
f 207/222/197 206/232/197 210/223/197
f 170/164/198 169/163/198 205/198/198
f 174/168/348 209/202/348 208/201/348
f 205/198/200 169/163/200 175/169/200
f 175/169/200 181/175/200 187/181/200
f 187/181/200 193/187/200 199/192/200
f 199/192/200 205/198/200 175/169/200
f 171/225/348 173/342/348 180/208/348
f 207/222/348 209/224/348 174/227/348
f 184/178/203 178/172/203 172/166/203
f 172/166/203 208/201/203 202/195/203
f 202/195/203 196/190/203 190/184/203
f 190/184/203 184/178/203 172/166/203
f 177/207/8 179/209/8 186/212/8
f 183/228/8 185/210/8 192/215/8
f 189/229/8 191/213/8 198/218/8
f 195/230/8 197/216/8 204/220/8
f 201/219/8 203/221/8 210/223/8
f 291/165/302 296/170/302 295/169/302
f 300/174/358 293/167/358 292/166/358
f 290/204/304 294/227/304 293/205/304
f 299/209/305 297/207/305 296/226/305
f 297/171/306 302/176/306 301/175/306
f 306/180/8 299/173/8 298/172/8
f 305/210/308 303/228/308 302/211/308
f 303/177/309 308/182/309 307/181/309
f 312/186/365 305/179/365 304/178/365
f 309/229/311 308/214/311 312/215/311
f 309/183/312 314/188/312 313/187/312
f 318/185/8 311/185/8 310/184/8
f 317/216/314 315/230/314 314/217/314
f 315/189/315 320/193/315 319/192/315
f 324/197/366 317/191/366 316/190/366
f 321/219/317 320/231/317 324/220/317
f 321/194/318 326/199/318 325/336/318
f 323/196/367 322/195/367 328/201/367
f 329/224/319 327/222/319 326/232/319
f 327/200/320 290/164/320 289/163/320
f 294/168/8 329/202/8 328/201/8
f 325/336/322 289/163/322 295/169/322
f 295/169/322 301/175/322 307/181/322
f 307/181/322 313/187/322 319/192/322
f 319/192/322 325/336/322 295/169/322
f 291/225/368 293/342/368 300/208/368
f 327/222/369 329/224/369 294/227/369
f 304/178/370 298/172/370 292/166/370
f 292/166/325 328/201/325 322/195/325
f 322/195/325 316/190/325 310/184/325
f 310/184/325 304/178/325 292/166/325
f 297/207/8 299/209/8 306/212/8
f 303/228/371 305/210/371 312/215/371
f 309/229/8 311/213/8 318/218/8
f 315/230/372 317/216/372 324/220/372
f 323/221/368 330/223/368 326/232/368
