# Blender 4.5.10 LTS
# www.blender.org
mtllib thistle_rosette.mtl
o thistle_rosette
v -0.041312 0.027847 0.071567
v -0.040301 0.030240 0.070216
v -0.042324 0.030240 0.070216
v -0.041312 0.044366 -0.064551
v -0.042324 0.046271 -0.061885
v -0.040301 0.046271 -0.061885
v -0.062097 -0.006580 0.061042
v -0.064243 -0.006065 0.059116
v -0.063231 -0.007741 0.058604
v -0.041312 0.044366 -0.064551
v -0.043060 0.041701 -0.063282
v -0.044071 0.043377 -0.062770
v -0.020528 -0.006580 0.061042
v -0.019394 -0.007741 0.058604
v -0.018382 -0.006065 0.059116
v -0.041312 0.044366 -0.064551
v -0.038553 0.043377 -0.062770
v -0.039565 0.041701 -0.063282
v 0.039345 0.027847 0.072668
v 0.038723 0.030240 0.071098
v 0.037664 0.030240 0.072822
v -0.076626 0.044366 0.001401
v -0.074884 0.046271 0.003659
v -0.073825 0.046271 0.001935
v 0.019496 -0.006580 0.084865
v 0.016731 -0.006065 0.085685
v 0.016825 -0.007741 0.084555
v -0.076626 0.044366 0.001401
v -0.076460 0.041701 0.003554
v -0.076553 0.043377 0.004685
v 0.041260 -0.006580 0.049449
v 0.039776 -0.007741 0.047206
v 0.040742 -0.006065 0.046612
v -0.076626 0.044366 0.001401
v -0.073664 0.043377 -0.000017
v -0.074630 0.041701 0.000577
v 0.082511 0.027847 0.004524
v 0.080849 0.030240 0.004232
v 0.081763 0.030240 0.006037
v -0.038924 0.044366 0.066018
v -0.036089 0.046271 0.065716
v -0.037003 0.046271 0.063911
v 0.082511 -0.006580 0.027822
v 0.081763 -0.006065 0.030606
v 0.080848 -0.007741 0.029935
v -0.038924 0.044366 0.066018
v -0.037003 0.041701 0.067004
v -0.036089 0.043377 0.067675
v 0.063732 -0.006580 -0.009263
v 0.061044 -0.007741 -0.009174
v 0.061044 -0.006065 -0.010308
v -0.038924 0.044366 0.066018
v -0.038582 0.043377 0.062752
v -0.038582 0.041701 0.063886
v 0.047055 0.027847 -0.067930
v 0.045935 0.030240 -0.066666
v 0.047952 0.030240 -0.066500
v 0.035867 0.044366 0.067728
v 0.037095 0.046271 0.065154
v 0.035078 0.046271 0.064988
v 0.066904 -0.006580 -0.055732
v 0.068884 -0.006065 -0.053636
v 0.067834 -0.007741 -0.053209
v 0.035867 0.044366 0.067728
v 0.037713 0.041701 0.066607
v 0.038764 0.043377 0.066179
v 0.025475 -0.006580 -0.059148
v 0.024145 -0.007741 -0.056812
v 0.023178 -0.006065 -0.057406
v 0.035867 0.044366 0.067728
v 0.033264 0.043377 0.065726
v 0.034230 0.041701 0.066320
v -0.033240 0.027847 -0.075655
v -0.032749 0.030240 -0.074040
v -0.031552 0.030240 -0.075671
v 0.076482 0.044366 0.004901
v 0.074932 0.046271 0.002508
v 0.073734 0.046271 0.004139
v -0.012455 -0.006580 -0.086180
v -0.009633 -0.006065 -0.086770
v -0.009818 -0.007741 -0.085652
v 0.076482 0.044366 0.004901
v 0.076493 0.041701 0.002742
v 0.076679 0.043377 0.001623
v -0.037056 -0.006580 -0.052672
v -0.035762 -0.007741 -0.050315
v -0.036774 -0.006065 -0.049803
v 0.076482 0.044366 0.004901
v 0.073413 0.043377 0.006071
v 0.074425 0.041701 0.005559
v -0.081861 0.027847 -0.011290
v -0.080227 0.030240 -0.010863
v -0.080990 0.030240 -0.012737
v 0.044218 0.044366 -0.062596
v 0.041368 0.046271 -0.062528
v 0.042131 0.046271 -0.060654
v -0.079945 -0.006580 -0.034509
v -0.078971 -0.006065 -0.037223
v -0.078115 -0.007741 -0.036479
v 0.044218 0.044366 -0.062596
v 0.042385 0.041701 -0.063736
v 0.041529 0.043377 -0.064480
v -0.064277 -0.006580 0.003994
v -0.061592 -0.007741 0.004125
v -0.061685 -0.006065 0.005256
v 0.044218 0.044366 -0.062596
v 0.043609 0.043377 -0.059369
v 0.043702 0.041701 -0.060499
v -0.052478 0.027847 0.063833
v -0.051259 0.030240 0.062665
v -0.053255 0.030240 0.062334
v -0.030180 0.044366 -0.070446
v -0.031614 0.046271 -0.067982
v -0.029618 0.046271 -0.067651
v -0.071258 -0.006580 0.050045
v -0.073059 -0.006065 0.047794
v -0.071977 -0.007741 0.047454
v -0.030180 0.044366 -0.070446
v -0.032111 0.041701 -0.069481
v -0.033193 0.043377 -0.069141
v -0.030250 -0.006580 0.056855
v -0.028732 -0.007741 0.054635
v -0.027818 -0.006065 0.055306
v -0.030180 0.044366 -0.070446
v -0.027750 0.043377 -0.068237
v -0.028664 0.041701 -0.068909
v 0.003286 0.018897 0.009785
v 0.007069 0.022712 0.008929
v 0.001070 0.022746 0.012926
v -0.005827 0.068637 -0.004318
v -0.006653 0.064906 0.000972
v -0.000655 0.064872 -0.003025
v -0.013558 0.018853 0.012141
v -0.010584 0.022716 0.014557
v -0.017449 0.022648 0.012360
v -0.008920 0.068629 -0.003886
v -0.013518 0.064839 -0.001225
v -0.006653 0.064906 0.000972
v -0.025901 0.018609 0.000444
v -0.025990 0.022479 0.004266
v -0.028552 0.022360 -0.002471
v -0.011187 0.068584 -0.006034
v -0.016080 0.064720 -0.007961
v -0.013518 0.064839 -0.001225
v -0.024450 0.018348 -0.016500
v -0.027548 0.022180 -0.014195
v -0.023878 0.022099 -0.020398
v -0.010920 0.068536 -0.009145
v -0.012410 0.064639 -0.014164
v -0.016080 0.064720 -0.007961
v -0.010297 0.018267 -0.025931
v -0.014084 0.022043 -0.026923
v -0.006946 0.022062 -0.027922
v -0.008321 0.068521 -0.010877
v -0.005272 0.064658 -0.015163
v -0.012410 0.064639 -0.014164
v 0.005901 0.018427 -0.020747
v 0.004262 0.022172 -0.024335
v 0.009493 0.022276 -0.019378
v -0.005346 0.068551 -0.009925
v -0.000040 0.064761 -0.010205
v -0.005272 0.064658 -0.015163
v 0.011946 0.018707 -0.004852
v 0.013676 0.022470 -0.008379
v 0.013061 0.022581 -0.001199
v -0.004236 0.068602 -0.007006
v -0.000655 0.064872 -0.003025
v -0.000040 0.064761 -0.010205
vn -0.0000 0.4917 0.8708
vn -0.0000 0.8135 -0.5816
vn -0.6277 -0.5480 0.5529
vn -0.5265 -0.0585 -0.8482
vn 0.6277 -0.5480 0.5529
vn 0.5265 -0.0585 -0.8482
vn -0.6389 0.1554 0.7534
vn -0.0000 1.0000 -0.0000
vn -0.0000 0.9927 0.1205
vn -0.8527 -0.4196 -0.3113
vn -0.0000 -0.9029 0.4299
vn 0.8527 -0.4196 -0.3113
vn 0.6389 0.1554 0.7534
vn -0.0000 -0.2924 0.9563
vn -0.8626 0.5022 0.0609
vn 0.8626 0.5022 0.0609
vn -0.0000 -0.9267 -0.3759
vn 0.7419 0.4917 0.4559
vn -0.4955 0.8135 -0.3045
vn 0.1424 -0.5480 0.8243
vn -0.9983 -0.0585 0.0045
vn 0.7997 -0.5480 -0.2453
vn -0.4470 -0.0585 -0.8926
vn 0.3074 0.1554 0.9388
vn 0.1026 0.9927 0.0631
vn -0.7117 -0.4196 0.5635
vn 0.3663 -0.9029 0.2251
vn 0.1812 -0.4196 -0.8894
vn 0.9764 0.1554 -0.1499
vn 0.8148 -0.2924 0.5007
vn -0.3997 0.5022 0.7669
vn 0.5036 0.5022 -0.7030
vn -0.3203 -0.9267 -0.1968
vn 0.7768 0.4917 -0.3934
vn -0.5188 0.8135 0.2627
vn 0.7768 -0.5480 0.3102
vn -0.5188 -0.0585 0.8529
vn 0.2097 -0.5480 -0.8098
vn -0.9945 -0.0585 -0.0865
vn 0.9608 0.1554 0.2296
vn 0.1075 0.9927 -0.0544
vn 0.1075 -0.4196 0.9013
vn 0.3835 -0.9029 -0.1942
vn -0.6629 -0.4196 -0.6200
vn 0.3835 0.1554 -0.9104
vn 0.8532 -0.2924 -0.4320
vn 0.4441 0.5022 0.7420
vn -0.3353 0.5022 -0.7971
vn -0.3353 -0.9267 0.1698
vn 0.0716 0.4917 -0.8678
vn -0.0478 0.8135 0.5796
vn 0.6710 -0.5480 -0.4994
vn 0.4550 -0.0585 0.8886
vn -0.5801 -0.5480 -0.6026
vn -0.5944 -0.0585 0.8020
vn 0.6987 0.1554 -0.6984
vn 0.0099 0.9927 -0.1201
vn 0.8242 -0.4196 0.3803
vn 0.0353 -0.9029 -0.4284
vn -0.8754 -0.4196 0.2402
vn -0.5748 0.1554 -0.8034
vn 0.0786 -0.2924 -0.9531
vn 0.8647 0.5022 0.0102
vn -0.8547 0.5022 -0.1316
vn -0.0309 -0.9267 0.3746
vn -0.7019 0.4917 -0.5153
vn 0.4688 0.8135 0.3442
vn -0.0742 -0.5480 -0.8332
vn 0.9953 -0.0585 0.0776
vn -0.8171 -0.5480 0.1788
vn 0.3721 -0.0585 0.9263
vn -0.2292 0.1554 -0.9609
vn -0.0971 0.9927 -0.0713
vn 0.7556 -0.4196 -0.5031
vn -0.3465 -0.9029 -0.2544
vn -0.2537 -0.4196 0.8715
vn -0.9854 0.1554 0.0691
vn -0.7709 -0.2924 -0.5660
vn 0.4614 0.5022 -0.7314
vn -0.5596 0.5022 0.6593
vn 0.3030 -0.9267 0.2225
vn -0.8065 0.4917 0.3282
vn 0.5387 0.8135 -0.2192
vn -0.7487 -0.5480 -0.3730
vn 0.5872 -0.0585 -0.8073
vn -0.2755 -0.5480 0.7898
vn 0.9841 -0.0585 0.1680
vn -0.9387 0.1554 -0.3078
vn -0.1116 0.9927 0.0454
vn -0.0330 -0.4196 -0.9071
vn -0.3982 -0.9029 0.1620
vn 0.6097 -0.4196 0.6724
vn -0.4570 0.1554 0.8758
vn -0.8858 -0.2924 0.3604
vn -0.3816 0.5022 -0.7760
vn 0.2687 0.5022 0.8220
vn 0.3482 -0.9267 -0.1417
vn -0.1426 0.4917 0.8590
vn 0.0953 0.8135 -0.5737
vn -0.7098 -0.5480 0.4426
vn -0.3804 -0.0585 -0.9230
vn 0.5287 -0.5480 0.6482
vn 0.6583 -0.0585 -0.7505
vn -0.7537 0.1554 0.6386
vn -0.0000 -0.0683 -0.9977
vn -0.0197 0.9927 0.1188
vn -0.7901 -0.4196 -0.4468
vn -0.0704 -0.9029 0.4241
vn -0.0000 0.4712 0.8820
vn 0.8921 -0.4196 -0.1674
vn 0.5068 0.1554 0.8479
vn -0.0000 -1.0000 -0.0000
vn -0.1567 -0.2924 0.9434
vn -0.8610 0.5022 -0.0812
vn 0.8410 0.5022 0.2014
vn 0.0616 -0.9267 -0.3708
vn 0.5201 -0.3400 0.7835
vn 0.3848 0.7249 0.5713
vn -0.2833 -0.3421 0.8959
vn -0.2169 0.7233 0.6555
vn -0.8722 -0.3538 0.3379
vn -0.6579 0.7146 0.2376
vn -0.8029 -0.3662 -0.4703
vn -0.6061 0.7053 -0.3677
vn -0.1278 -0.3701 -0.9202
vn -0.1004 0.7024 -0.7047
vn 0.6449 -0.3624 -0.6729
vn 0.4783 0.7081 -0.5195
vn 0.9332 -0.3491 0.0853
vn 0.6942 0.7181 0.0484
vn 0.1136 -0.5881 0.8008
vn 0.9995 0.0312 -0.0000
vn 0.5266 0.3198 0.7876
vn -0.2919 0.3177 0.9022
vn -0.5468 -0.5946 0.5894
vn -0.0000 0.5300 -0.8480
vn -0.8917 0.3058 0.3337
vn -0.7933 -0.6061 -0.0586
vn -0.6029 0.7953 -0.0639
vn -0.8212 0.2931 -0.4897
vn -0.4402 -0.6138 -0.6554
vn -0.3372 0.7894 -0.5129
vn -0.1334 0.2892 -0.9479
vn 0.2465 -0.6120 -0.7514
vn 0.1795 0.7908 -0.5852
vn 0.6537 0.2970 -0.6960
vn 0.7498 -0.6021 -0.2745
vn 0.5581 0.7983 -0.2263
vn 0.9475 0.3106 0.0764
vn 0.6906 -0.5914 0.4163
vn 0.0048 -0.9999 0.0158
vn 0.1318 0.2927 0.9471
vn 0.8256 0.2887 0.4848
vn -0.0048 0.9999 -0.0158
vn -0.6623 0.2848 0.6930
vn -0.9587 0.2711 -0.0863
vn -0.5341 0.2618 -0.8039
vn 0.2916 0.2639 -0.9194
vn 0.8968 0.2759 -0.3459
vn -0.5846 0.5385 -0.6068
vn -0.0000 -0.4299 -0.9029
vn 0.5846 0.5385 -0.6068
vn -0.8231 0.5385 0.1804
vn -0.7692 -0.4299 -0.4727
vn -0.2109 0.5385 -0.8158
vn -0.2772 0.5385 0.7957
vn -0.8055 -0.4299 0.4079
vn -0.8055 0.5385 -0.2474
vn 0.5328 0.5385 0.6528
vn -0.0742 -0.4299 0.8998
vn -0.6325 0.5385 0.5567
vn 0.8351 0.5385 -0.1121
vn 0.7278 -0.4299 0.5343
vn 0.1431 0.5385 0.8304
vn 0.3417 0.5385 -0.7702
vn 0.8363 -0.4299 -0.3403
vn 0.7824 0.5385 0.3128
vn -0.4773 0.5385 -0.6944
vn 0.1479 -0.4299 -0.8907
vn 0.5069 0.1554 0.8479
vn 0.6761 0.5385 -0.5029
vn 0.0794 0.8088 0.5827
vn -0.4175 0.8039 0.4237
vn 0.1789 -0.0000 -0.9839
vn 0.5136 0.8063 0.2934
vn 1.0000 -0.0000 -0.0000
vn -0.5614 0.2453 0.7904
vn 0.3511 -0.0000 -0.9363
vt 0.087965 -0.067500
vt 0.089390 -0.065508
vt 0.086539 -0.065508
vt 0.175929 0.067500
vt 0.183953 0.065508
vt 0.167906 0.065508
vt 0.023971 -0.067500
vt 0.025268 -0.065508
vt 0.023371 -0.065508
vt 0.000000 0.067500
vt 0.005870 0.065508
vt 0.011302 0.065508
vt 0.151958 -0.067500
vt 0.152558 -0.065508
vt 0.150661 -0.065508
vt 0.164627 0.065508
vt 0.170059 0.065508
vt 0.199900 -0.067500
vt 0.199300 -0.065508
vt 0.008023 0.065508
vt 0.181799 0.065508
vt 0.075398 -0.025000
vt 0.079519 -0.021190
vt 0.071278 -0.021190
vt 0.075398 0.025000
vt 0.064291 0.021190
vt 0.086505 0.021190
vt 0.053605 -0.025000
vt 0.057730 -0.021190
vt 0.049528 -0.021190
vt 0.052437 0.025000
vt 0.042347 0.021190
vt 0.032004 -0.025000
vt 0.036092 -0.021190
vt 0.027974 -0.021190
vt 0.030651 0.025000
vt 0.020966 0.021190
vt 0.042347 0.021190
vt 0.010635 -0.025000
vt 0.014674 -0.021190
vt 0.006621 -0.021190
vt 0.010065 0.025000
vt 0.000000 0.021190
vt 0.020966 0.021190
vt 0.140162 -0.025000
vt 0.144175 -0.021190
vt 0.136123 -0.021190
vt 0.140732 0.025000
vt 0.129831 0.021190
vt 0.150796 0.021190
vt 0.118793 -0.025000
vt 0.122822 -0.021190
vt 0.114704 -0.021190
vt 0.120145 0.025000
vt 0.108450 0.021190
vt 0.097192 -0.025000
vt 0.101269 -0.021190
vt 0.093067 -0.021190
vt 0.098360 0.025000
vt 0.108450 0.021190
vt 0.161431 -0.025000
vt 0.157418 -0.021190
vt 0.160861 0.025000
vt 0.182800 -0.025000
vt 0.181448 0.025000
s 0
usemtl moss
f 1/1/1 2/2/1 3/3/1
f 4/4/2 5/5/2 6/6/2
f 7/7/3 8/8/3 9/9/3
f 10/10/4 11/11/4 12/12/4
f 13/13/5 14/14/5 15/15/5
f 16/4/6 17/16/6 18/17/6
f 3/3/7 7/7/7 1/1/7
f 12/12/8 4/10/8 10/10/8
f 6/6/9 3/3/9 2/2/9
f 9/9/10 12/12/10 11/11/10
f 14/14/11 7/18/11 9/19/11
f 18/17/8 10/4/8 16/4/8
f 17/16/12 14/14/12 18/17/12
f 2/2/13 13/13/13 15/15/13
f 6/6/8 16/4/8 4/4/8
f 1/1/14 7/18/14 13/13/14
f 5/20/15 8/8/15 3/3/15
f 17/16/16 2/2/16 15/15/16
f 10/10/8 4/10/8 16/10/8
f 11/21/17 14/14/17 9/19/17
f 19/1/18 20/2/18 21/3/18
f 22/4/19 23/5/19 24/6/19
f 25/7/20 26/8/20 27/9/20
f 28/10/21 29/11/21 30/12/21
f 31/13/22 32/14/22 33/15/22
f 34/4/23 35/16/23 36/17/23
f 26/8/24 19/1/24 21/3/24
f 30/12/8 22/10/8 28/10/8
f 24/6/25 21/3/25 20/2/25
f 27/9/26 30/12/26 29/11/26
f 32/14/27 25/18/27 27/19/27
f 36/17/8 28/4/8 34/4/8
f 35/16/28 32/14/28 36/17/28
f 33/15/29 19/1/29 31/13/29
f 24/6/8 34/4/8 22/4/8
f 19/1/30 25/18/30 31/13/30
f 23/20/31 26/8/31 21/3/31
f 35/16/32 20/2/32 33/15/32
f 28/10/8 22/10/8 34/10/8
f 27/19/33 36/17/33 32/14/33
f 37/1/34 38/2/34 39/3/34
f 40/4/35 41/5/35 42/6/35
f 43/7/36 44/8/36 45/9/36
f 46/10/37 47/11/37 48/12/37
f 49/13/38 50/14/38 51/15/38
f 52/4/39 53/16/39 54/17/39
f 44/8/40 37/1/40 39/3/40
f 48/12/8 40/10/8 46/10/8
f 38/2/41 41/5/41 39/3/41
f 45/9/42 48/12/42 47/11/42
f 50/14/43 43/18/43 45/19/43
f 54/17/8 46/4/8 52/4/8
f 51/15/44 54/17/44 53/16/44
f 38/2/45 49/13/45 51/15/45
f 42/6/8 52/4/8 40/4/8
f 37/1/46 43/18/46 49/13/46
f 41/20/47 44/8/47 39/3/47
f 53/16/48 38/2/48 51/15/48
f 46/10/8 40/10/8 52/10/8
f 45/19/49 54/17/49 50/14/49
f 55/1/50 56/2/50 57/3/50
f 58/4/51 59/5/51 60/6/51
f 61/7/52 62/8/52 63/9/52
f 64/10/53 65/11/53 66/12/53
f 67/13/54 68/14/54 69/15/54
f 70/4/55 71/16/55 72/17/55
f 62/8/56 55/1/56 57/3/56
f 66/12/8 58/10/8 64/10/8
f 60/6/57 57/3/57 56/2/57
f 65/11/58 62/8/58 66/12/58
f 68/14/59 61/18/59 63/19/59
f 72/17/8 64/4/8 70/4/8
f 69/15/60 72/17/60 71/16/60
f 69/15/61 55/1/61 67/13/61
f 60/6/8 70/4/8 58/4/8
f 55/1/62 61/18/62 67/13/62
f 59/20/63 62/8/63 57/3/63
f 71/16/64 56/2/64 69/15/64
f 64/10/8 58/10/8 70/10/8
f 65/21/65 68/14/65 63/19/65
f 73/1/66 74/2/66 75/3/66
f 76/4/67 77/5/67 78/6/67
f 79/7/68 80/8/68 81/9/68
f 82/10/69 83/11/69 84/12/69
f 85/13/70 86/14/70 87/15/70
f 88/4/71 89/16/71 90/17/71
f 80/8/72 73/1/72 75/3/72
f 84/12/8 76/10/8 82/10/8
f 74/2/73 77/5/73 75/3/73
f 83/11/74 80/8/74 84/12/74
f 86/14/75 79/18/75 81/19/75
f 90/17/8 82/4/8 88/4/8
f 87/15/76 90/17/76 89/16/76
f 87/15/77 73/1/77 85/13/77
f 78/6/8 88/4/8 76/4/8
f 73/1/78 79/18/78 85/13/78
f 75/3/79 84/12/79 80/8/79
f 89/16/80 74/2/80 87/15/80
f 82/10/8 76/10/8 88/10/8
f 83/21/81 86/14/81 81/19/81
f 91/1/82 92/2/82 93/3/82
f 94/4/83 95/5/83 96/6/83
f 97/7/84 98/8/84 99/9/84
f 100/10/85 101/11/85 102/12/85
f 103/13/86 104/14/86 105/15/86
f 106/4/87 107/16/87 108/17/87
f 98/8/88 91/1/88 93/3/88
f 102/12/8 94/10/8 100/10/8
f 96/6/89 93/3/89 92/2/89
f 101/11/90 98/8/90 102/12/90
f 104/14/91 97/18/91 99/19/91
f 108/17/8 100/4/8 106/4/8
f 107/16/92 104/14/92 108/17/92
f 92/2/93 103/13/93 105/15/93
f 96/6/8 106/4/8 94/4/8
f 91/1/94 97/18/94 103/13/94
f 93/3/95 102/12/95 98/8/95
f 107/16/96 92/2/96 105/15/96
f 100/10/8 94/10/8 106/10/8
f 101/21/97 104/14/97 99/19/97
f 109/1/98 110/2/98 111/3/98
f 112/4/99 113/5/99 114/6/99
f 115/7/100 116/8/100 117/9/100
f 118/10/101 119/11/101 120/12/101
f 121/13/102 122/14/102 123/15/102
f 124/4/103 125/16/103 126/17/103
f 116/8/104 109/1/104 111/3/104
f 120/12/105 112/10/105 118/10/105
f 114/6/106 111/3/106 110/2/106
f 119/11/107 116/8/107 120/12/107
f 117/19/108 121/13/108 115/18/108
f 126/17/109 118/4/109 124/4/109
f 123/15/110 126/17/110 125/16/110
f 110/2/111 121/13/111 123/15/111
f 114/6/112 124/4/112 112/4/112
f 109/1/113 115/18/113 121/13/113
f 111/3/114 120/12/114 116/8/114
f 125/16/115 110/2/115 123/15/115
f 118/10/8 112/10/8 124/10/8
f 119/21/116 122/14/116 117/19/116
f 3/3/7 8/8/7 7/7/7
f 12/12/160 5/20/160 4/10/160
f 6/6/9 5/5/9 3/3/9
f 9/9/10 8/8/10 12/12/10
f 14/14/11 13/13/11 7/18/11
f 18/17/161 11/21/161 10/4/161
f 17/16/12 15/15/12 14/14/12
f 2/2/13 1/1/13 13/13/13
f 6/6/162 17/16/162 16/4/162
f 5/20/15 12/12/15 8/8/15
f 17/16/16 6/6/16 2/2/16
f 11/21/17 18/17/17 14/14/17
f 26/8/24 25/7/24 19/1/24
f 30/12/163 23/20/163 22/10/163
f 24/6/25 23/5/25 21/3/25
f 27/9/26 26/8/26 30/12/26
f 32/14/27 31/13/27 25/18/27
f 36/17/164 29/21/164 28/4/164
f 35/16/28 33/15/28 32/14/28
f 33/15/29 20/2/29 19/1/29
f 24/6/165 35/16/165 34/4/165
f 23/20/31 30/12/31 26/8/31
f 35/16/32 24/6/32 20/2/32
f 27/19/33 29/21/33 36/17/33
f 44/8/40 43/7/40 37/1/40
f 48/12/166 41/20/166 40/10/166
f 38/2/41 42/6/41 41/5/41
f 45/9/42 44/8/42 48/12/42
f 50/14/43 49/13/43 43/18/43
f 54/17/167 47/21/167 46/4/167
f 51/15/44 50/14/44 54/17/44
f 38/2/45 37/1/45 49/13/45
f 42/6/168 53/16/168 52/4/168
f 41/20/47 48/12/47 44/8/47
f 53/16/48 42/6/48 38/2/48
f 45/19/49 47/21/49 54/17/49
f 62/8/56 61/7/56 55/1/56
f 66/12/169 59/20/169 58/10/169
f 60/6/57 59/5/57 57/3/57
f 65/11/58 63/9/58 62/8/58
f 68/14/59 67/13/59 61/18/59
f 72/17/170 65/21/170 64/4/170
f 69/15/60 68/14/60 72/17/60
f 69/15/61 56/2/61 55/1/61
f 60/6/171 71/16/171 70/4/171
f 59/20/63 66/12/63 62/8/63
f 71/16/64 60/6/64 56/2/64
f 65/21/65 72/17/65 68/14/65
f 80/8/72 79/7/72 73/1/72
f 84/12/172 77/20/172 76/10/172
f 74/2/73 78/6/73 77/5/73
f 83/11/74 81/9/74 80/8/74
f 86/14/75 85/13/75 79/18/75
f 90/17/173 83/21/173 82/4/173
f 87/15/76 86/14/76 90/17/76
f 87/15/77 74/2/77 73/1/77
f 78/6/174 89/16/174 88/4/174
f 75/3/79 77/20/79 84/12/79
f 89/16/80 78/6/80 74/2/80
f 83/21/81 90/17/81 86/14/81
f 98/8/88 97/7/88 91/1/88
f 102/12/175 95/20/175 94/10/175
f 96/6/89 95/5/89 93/3/89
f 101/11/90 99/9/90 98/8/90
f 104/14/91 103/13/91 97/18/91
f 108/17/176 101/21/176 100/4/176
f 107/16/92 105/15/92 104/14/92
f 92/2/93 91/1/93 103/13/93
f 96/6/177 107/16/177 106/4/177
f 93/3/95 95/20/95 102/12/95
f 107/16/96 96/6/96 92/2/96
f 101/21/97 108/17/97 104/14/97
f 116/8/104 115/7/104 109/1/104
f 120/12/178 113/20/178 112/10/178
f 114/6/106 113/5/106 111/3/106
f 119/11/107 117/9/107 116/8/107
f 117/19/108 122/14/108 121/13/108
f 126/17/179 119/21/179 118/4/179
f 123/15/110 122/14/110 126/17/110
f 110/2/180 109/1/180 121/13/180
f 114/6/181 125/16/181 124/4/181
f 111/3/114 113/20/114 120/12/114
f 125/16/115 114/6/115 110/2/115
f 119/21/116 126/17/116 122/14/116
usemtl bud
f 127/22/117 128/23/117 129/24/117
f 130/25/118 131/26/118 132/27/118
f 133/28/119 134/29/119 135/30/119
f 136/31/120 137/32/120 138/26/120
f 139/33/121 140/34/121 141/35/121
f 142/36/122 143/37/122 144/38/122
f 145/39/123 146/40/123 147/41/123
f 148/42/124 149/43/124 150/44/124
f 151/45/125 152/46/125 153/47/125
f 154/48/126 155/49/126 156/50/126
f 157/51/127 158/52/127 159/53/127
f 160/54/128 161/55/128 162/49/128
f 163/56/129 164/57/129 165/58/129
f 166/59/130 167/27/130 168/60/130
f 134/29/131 127/22/131 129/24/131
f 131/26/132 136/31/132 138/26/132
f 128/23/133 131/26/133 129/24/133
f 135/30/134 138/26/134 137/32/134
f 135/30/135 139/33/135 133/28/135
f 137/32/136 142/36/136 144/38/136
f 141/35/137 144/38/137 143/37/137
f 146/40/138 139/33/138 141/35/138
f 150/44/139 142/36/139 148/42/139
f 147/41/140 150/44/140 149/43/140
f 152/46/141 145/61/141 147/62/141
f 156/50/142 148/63/142 154/48/142
f 153/47/143 156/50/143 155/49/143
f 158/52/144 151/45/144 153/47/144
f 162/49/145 154/48/145 160/54/145
f 161/55/146 158/52/146 162/49/146
f 164/57/147 157/51/147 159/53/147
f 168/60/148 160/54/148 166/59/148
f 165/58/149 168/60/149 167/27/149
f 128/23/150 163/56/150 165/58/150
f 167/27/8 130/25/8 132/27/8
f 133/28/151 145/61/151 157/51/151
f 129/24/152 138/26/152 134/29/152
f 167/27/153 128/23/153 165/58/153
f 130/25/154 160/54/154 148/63/154
f 135/30/155 144/38/155 140/34/155
f 141/35/156 150/44/156 146/40/156
f 147/62/157 156/50/157 152/46/157
f 153/47/158 162/49/158 158/52/158
f 161/55/159 164/57/159 159/53/159
f 134/29/131 133/28/131 127/22/131
f 131/26/182 130/25/182 136/31/182
f 128/23/133 132/27/133 131/26/133
f 135/30/134 134/29/134 138/26/134
f 135/30/135 140/34/135 139/33/135
f 137/32/183 136/31/183 142/36/183
f 141/35/137 140/34/137 144/38/137
f 146/40/138 145/39/138 139/33/138
f 150/44/8 143/37/8 142/36/8
f 147/41/140 146/40/140 150/44/140
f 152/46/141 151/45/141 145/61/141
f 156/50/8 149/50/8 148/63/8
f 153/47/143 152/46/143 156/50/143
f 158/52/144 157/51/144 151/45/144
f 162/49/8 155/49/8 154/48/8
f 161/55/146 159/53/146 158/52/146
f 164/57/147 163/56/147 157/51/147
f 168/60/184 161/55/184 160/54/184
f 165/58/149 164/57/149 168/60/149
f 128/23/150 127/22/150 163/56/150
f 167/27/185 166/59/185 130/25/185
f 163/56/151 127/22/151 133/28/151
f 133/28/151 139/64/151 145/61/151
f 145/61/151 151/45/151 157/51/151
f 157/51/151 163/56/151 133/28/151
f 129/24/186 131/26/186 138/26/186
f 167/27/132 132/27/132 128/23/132
f 142/65/154 136/31/154 130/25/154
f 130/25/154 166/59/154 160/54/154
f 160/54/154 154/48/154 148/63/154
f 148/63/154 142/65/154 130/25/154
f 135/30/187 137/32/187 144/38/187
f 141/35/8 143/37/8 150/44/8
f 147/62/8 149/50/8 156/50/8
f 153/47/8 155/49/8 162/49/8
f 161/55/188 168/60/188 164/57/188
