# Blender 4.5.10 LTS
# www.blender.org
mtllib upgrade_grow_leanto.mtl
o upgrade_grow_leanto
v 0.474452 0.007583 -0.256808
v 0.474426 0.009190 -0.264384
v 0.487872 0.009417 -0.256837
v 0.473091 0.125817 -0.265514
v 0.473079 0.127570 -0.257971
v 0.486537 0.126044 -0.257968
v 0.474896 0.012675 0.268047
v 0.488315 0.014508 0.268018
v 0.474883 0.014428 0.275590
v 0.473522 0.132661 0.266884
v 0.473548 0.131055 0.274460
v 0.486980 0.131135 0.266888
v -0.458607 -0.003088 -0.255916
v -0.472065 -0.001562 -0.255920
v -0.458632 -0.001481 -0.263492
v -0.459980 0.116899 -0.257079
v -0.459967 0.115145 -0.264622
v -0.473400 0.115065 -0.257050
v -0.458163 0.002003 0.268939
v -0.458176 0.003756 0.276482
v -0.471621 0.003529 0.268936
v -0.459536 0.121990 0.267776
v -0.472956 0.120156 0.267806
v -0.459511 0.120383 0.275352
v 0.443214 0.092408 -0.227699
v 0.443375 0.102321 -0.234198
v 0.444658 0.102336 -0.227763
v 0.456132 0.793209 -0.238325
v 0.456339 0.803198 -0.231945
v 0.457415 0.793224 -0.231890
v 0.444845 0.095049 0.219411
v 0.446289 0.104976 0.219347
v 0.445052 0.105038 0.225791
v 0.457970 0.805839 0.215165
v 0.457810 0.795926 0.221664
v 0.459046 0.795864 0.215220
v 0.355750 0.094025 -0.227389
v 0.354674 0.103999 -0.227444
v 0.355910 0.103938 -0.233888
v 0.368875 0.804815 -0.231635
v 0.368668 0.794826 -0.238015
v 0.367431 0.794887 -0.231571
v 0.357381 0.096665 0.219720
v 0.357588 0.106655 0.226101
v 0.356305 0.106640 0.219665
v 0.370506 0.807456 0.215474
v 0.369062 0.797528 0.215538
v 0.370346 0.797542 0.221974
v -0.378811 0.103751 -0.232445
v -0.378440 0.117940 -0.238737
v -0.377281 0.117850 -0.232279
v -0.359670 1.098528 -0.228507
v -0.359500 1.112587 -0.221921
v -0.358511 1.098439 -0.222049
v -0.385752 0.099220 0.214598
v -0.384223 0.113319 0.214764
v -0.385582 0.113278 0.221184
v -0.366442 1.108056 0.225123
v -0.366812 1.093867 0.231414
v -0.365452 1.093908 0.224995
v -0.466264 0.105439 -0.233786
v -0.467253 0.119587 -0.233658
v -0.465894 0.119628 -0.240078
v -0.446953 1.114275 -0.223261
v -0.447124 1.100216 -0.229848
v -0.448483 1.100175 -0.223428
v -0.473206 0.100908 0.213257
v -0.473036 0.114966 0.219843
v -0.474195 0.115056 0.213385
v -0.453895 1.109744 0.223782
v -0.455425 1.095644 0.223615
v -0.454266 1.095555 0.230073
v 0.450068 0.113916 -0.217609
v 0.436069 0.099915 -0.217544
v 0.436091 0.113826 -0.231632
v -0.435908 0.113747 -0.233090
v -0.435930 0.099836 -0.219001
v -0.449931 0.113835 -0.219113
v -0.435987 1.103360 -0.239366
v -0.450010 1.109434 -0.225428
v -0.436854 1.118651 -0.225464
v 0.450014 0.782282 -0.221848
v 0.436037 0.786386 -0.235898
v 0.436856 0.801065 -0.221989
v 0.435998 0.100181 -0.175545
v 0.449997 0.114182 -0.175610
v 0.435974 0.114270 -0.161634
v -0.436000 0.100102 -0.177002
v -0.436025 0.114191 -0.163091
v -0.450001 0.114101 -0.177114
v -0.436104 1.103804 -0.169368
v -0.436924 1.118918 -0.183465
v -0.450081 1.109701 -0.183429
v 0.449944 0.782549 -0.179849
v 0.436785 0.801331 -0.179990
v 0.435920 0.786830 -0.165899
v 0.396601 0.469177 -0.196552
v 0.396485 0.470046 -0.202706
v 0.408358 0.470024 -0.196767
v 0.396454 0.528365 -0.202426
v 0.396569 0.529176 -0.196263
v 0.408327 0.528343 -0.196487
v 0.404601 0.467125 0.231049
v 0.416359 0.467972 0.230833
v 0.404716 0.467935 0.237212
v 0.404569 0.527124 0.231337
v 0.404685 0.526254 0.237492
v 0.416328 0.526291 0.231113
v -0.419736 0.468668 -0.181280
v -0.431495 0.469501 -0.181056
v -0.419852 0.469537 -0.187435
v -0.419768 0.528667 -0.180991
v -0.419883 0.527857 -0.187154
v -0.431526 0.527820 -0.180775
v -0.411736 0.466616 0.246320
v -0.411621 0.467426 0.252483
v -0.423494 0.467449 0.246544
v -0.411768 0.526615 0.246609
v -0.423525 0.525768 0.246825
v -0.411652 0.525746 0.252764
v 0.021156 0.091422 -0.184464
v 0.021385 0.103158 -0.190388
v 0.022348 0.103163 -0.184505
v 0.036154 0.919499 -0.193426
v 0.036350 0.931279 -0.187590
v 0.037117 0.919503 -0.187543
v 0.019983 0.092963 0.223772
v 0.021176 0.104703 0.223731
v 0.020179 0.104743 0.229608
v 0.035177 0.932820 0.220646
v 0.034948 0.921084 0.226569
v 0.035944 0.921044 0.220692
v -0.046873 0.092652 -0.184664
v -0.047640 0.104428 -0.184711
v -0.046643 0.104388 -0.190588
v -0.031679 0.932509 -0.187790
v -0.031875 0.920729 -0.193626
v -0.032872 0.920769 -0.187749
v -0.048045 0.094193 0.223572
v -0.047849 0.105973 0.229408
v -0.048812 0.105969 0.223525
v -0.032851 0.934050 0.220446
v -0.034044 0.922309 0.220486
v -0.033081 0.922314 0.226369
v 0.465282 0.479485 0.224668
v 0.465285 0.480198 0.223839
v 0.478428 0.480386 0.224897
v 0.464527 0.528786 0.224612
v 0.464502 0.529472 0.225463
v 0.477670 0.528974 0.225670
v 0.464330 0.478543 0.282973
v 0.477476 0.479444 0.283202
v 0.464305 0.479229 0.283823
v 0.463550 0.528530 0.283767
v 0.463547 0.527817 0.284596
v 0.476718 0.528032 0.283974
v -0.448165 0.465476 0.209524
v -0.461332 0.465974 0.209317
v -0.448162 0.466190 0.208695
v -0.448944 0.515464 0.210319
v -0.448920 0.514778 0.209468
v -0.462090 0.514562 0.210090
v -0.449117 0.464534 0.267829
v -0.449142 0.465221 0.268680
v -0.462284 0.465032 0.267622
v -0.449897 0.514522 0.268624
v -0.463042 0.513620 0.268394
v -0.449899 0.513808 0.269452
v 0.449513 0.117268 -0.245376
v 0.449651 0.118022 -0.252649
v 0.462397 0.117833 -0.245139
v 0.450153 0.166618 -0.252275
v 0.450029 0.167264 -0.244991
v 0.462899 0.166429 -0.244765
v 0.440391 0.113466 0.259967
v 0.453275 0.114031 0.260204
v 0.440267 0.114111 0.267251
v 0.440907 0.163461 0.260353
v 0.440769 0.162707 0.267626
v 0.453777 0.162627 0.260579
v -0.444534 0.126625 -0.261444
v -0.457404 0.127460 -0.261670
v -0.444395 0.127380 -0.268717
v -0.444018 0.176621 -0.261059
v -0.443893 0.175976 -0.268343
v -0.456902 0.176056 -0.261295
v -0.453656 0.122823 0.243899
v -0.453780 0.123468 0.251183
v -0.466526 0.123658 0.243673
v -0.453139 0.172819 0.244285
v -0.466024 0.172254 0.244048
v -0.453278 0.172064 0.251558
v 0.576064 0.735282 -0.281079
v 0.576069 0.735636 -0.290049
v 0.592207 0.729679 -0.281326
v 0.589999 0.771922 -0.291037
v 0.590395 0.772613 -0.282095
v 0.606136 0.765964 -0.282313
v 0.589653 0.746990 0.340743
v 0.605796 0.741387 0.340496
v 0.590050 0.747682 0.349685
v 0.603984 0.784321 0.339727
v 0.603979 0.783967 0.348697
v 0.619726 0.777672 0.339508
v -0.530754 1.160616 -0.264899
v -0.546495 1.167265 -0.264680
v -0.530749 1.160970 -0.273869
v -0.516423 1.197947 -0.265915
v -0.516819 1.197255 -0.274857
v -0.532565 1.203550 -0.265667
v -0.517164 1.172324 0.356923
v -0.516768 1.173015 0.365865
v -0.532906 1.178973 0.357142
v -0.502834 1.209655 0.355907
v -0.518976 1.215258 0.356154
v -0.502838 1.209301 0.364877
v -0.485864 1.169442 -0.297200
v -0.485979 1.170123 -0.306452
v -0.484741 1.170279 -0.297228
v -0.485817 1.228435 -0.307456
v -0.485697 1.229433 -0.298232
v -0.484579 1.228590 -0.298232
v -0.477683 1.180459 0.344174
v -0.476561 1.181296 0.344145
v -0.477563 1.181458 0.353397
v -0.477516 1.240450 0.343141
v -0.477401 1.239769 0.352393
v -0.476398 1.239607 0.343141
v -0.563617 1.169675 -0.296212
v -0.564735 1.170519 -0.296212
v -0.563733 1.170357 -0.305464
v -0.563450 1.229666 -0.297245
v -0.563570 1.228668 -0.306468
v -0.564572 1.228830 -0.297216
v -0.555436 1.180692 0.345161
v -0.555316 1.181691 0.354385
v -0.556554 1.181536 0.345161
v -0.555269 1.240683 0.344129
v -0.556392 1.239847 0.344158
v -0.555154 1.240002 0.353381
vn 0.1320 -0.9696 -0.2061
vn 0.1098 0.9682 -0.2248
vn 0.1324 -0.9654 0.2246
vn 0.1102 0.9724 0.2058
vn -0.1102 -0.9724 -0.2058
vn -0.1324 0.9654 -0.2246
vn -0.1098 -0.9682 0.2248
vn -0.1320 0.9696 0.2061
vn 0.1354 -0.9907 0.0095
vn 0.4895 -0.0028 -0.8720
vn 0.1127 0.9936 -0.0097
vn 0.4910 0.0141 0.8711
vn 0.0114 -0.9740 0.2264
vn -0.0110 0.9782 0.2075
vn -0.4895 0.0028 0.8720
vn -0.1127 -0.9936 0.0097
vn -0.1354 0.9907 -0.0095
vn -0.4910 -0.0141 -0.8711
vn 0.0110 -0.9782 -0.2075
vn -0.0114 0.9740 -0.2264
vn 0.0114 -0.9999 0.0097
vn 0.9999 0.0114 -0.0010
vn -0.0008 -0.0097 -1.0000
vn -0.0114 0.9999 -0.0097
vn 0.0008 0.0097 1.0000
vn -0.9999 -0.0114 0.0010
vn 0.9708 -0.1424 -0.1932
vn 0.9753 0.1041 -0.1947
vn 0.9721 -0.1401 0.1878
vn 0.9767 0.1064 0.1864
vn -0.9767 -0.1064 -0.1864
vn -0.9722 0.1401 -0.1878
vn -0.9753 -0.1041 0.1947
vn -0.9708 0.1424 0.1932
vn 0.9896 -0.1439 -0.0028
vn 0.9805 -0.0193 -0.1955
vn 0.9942 0.1072 -0.0043
vn 0.9819 -0.0170 0.1885
vn -0.0070 -0.5382 0.8428
vn 0.0131 0.5481 0.8363
vn -0.9805 0.0193 0.1955
vn -0.9942 -0.1072 0.0043
vn -0.9896 0.1439 0.0028
vn -0.9819 0.0170 -0.1885
vn -0.0131 -0.5481 -0.8363
vn 0.0070 0.5382 -0.8428
vn -0.0185 -0.9998 0.0060
vn 0.9998 -0.0185 -0.0035
vn -0.0036 -0.0059 -1.0000
vn 0.0185 0.9998 -0.0060
vn 0.0036 0.0059 1.0000
vn -0.9998 0.0185 0.0035
vn 0.9787 -0.1041 -0.1772
vn 0.9820 0.0703 -0.1753
vn 0.9727 -0.1080 0.2053
vn 0.9761 0.0664 0.2071
vn -0.9761 -0.0664 -0.2071
vn -0.9727 0.1080 -0.2053
vn -0.9820 -0.0703 0.1754
vn -0.9787 0.1041 0.1772
vn 0.9940 -0.1080 0.0143
vn 0.9841 -0.0170 -0.1769
vn 0.9974 0.0696 0.0162
vn 0.9781 -0.0209 0.2070
vn -0.0221 -0.4239 0.9054
vn -0.0062 0.4055 0.9141
vn -0.9841 0.0170 0.1769
vn -0.9974 -0.0696 -0.0162
vn -0.9940 0.1080 -0.0143
vn -0.9781 0.0209 -0.2070
vn 0.0062 -0.4055 -0.9141
vn 0.0221 0.4239 -0.9054
vn -0.0191 -0.9998 -0.0104
vn 0.9997 -0.0193 0.0153
vn 0.0155 0.0101 -0.9998
vn 0.0191 0.9998 0.0104
vn -0.0155 -0.0101 0.9998
vn -0.9997 0.0193 -0.0153
vn 0.5784 -0.5809 -0.5727
vn -0.5763 -0.5811 -0.5746
vn -0.4203 0.5972 -0.6831
vn 0.6885 0.4782 -0.5452
vn 0.5764 -0.5736 0.5820
vn -0.5783 -0.5737 0.5800
vn -0.4226 0.6058 0.6741
vn 0.6867 0.4851 0.5414
vn -0.7059 -0.0045 -0.7083
vn -0.7070 -0.7072 0.0033
vn -0.7083 0.0044 0.7059
vn -0.5738 0.8190 -0.0062
vn -0.0011 -0.7026 0.7116
vn 0.7059 0.0045 0.7083
vn 0.2404 0.6690 0.7033
vn 0.8190 0.5738 -0.0023
vn 0.2428 0.6601 -0.7109
vn 0.7083 -0.0044 -0.7059
vn 0.0012 -0.7116 -0.7026
vn 0.7072 -0.7070 0.0057
vn 1.0000 0.0001 0.0017
vn 0.0017 -0.0063 -1.0000
vn 0.0001 -1.0000 0.0063
vn -1.0000 -0.0001 -0.0017
vn 0.3416 0.9398 -0.0054
vn -0.0017 0.0063 1.0000
vn 0.0686 -0.9877 -0.1408
vn 0.0675 0.9890 -0.1313
vn 0.0736 -0.9889 0.1287
vn 0.0726 0.9877 0.1382
vn -0.0726 -0.9877 -0.1382
vn -0.0736 0.9889 -0.1287
vn -0.0675 -0.9890 0.1313
vn -0.0686 0.9877 0.1408
vn 0.0718 -0.9974 -0.0061
vn 0.4474 0.0045 -0.8943
vn 0.0707 0.9975 0.0035
vn 0.4805 -0.0040 0.8770
vn 0.0031 -0.9915 0.1303
vn 0.0020 0.9902 0.1399
vn -0.4474 -0.0045 0.8943
vn -0.0707 -0.9975 -0.0035
vn -0.0718 0.9974 0.0061
vn -0.4805 0.0040 -0.8770
vn -0.0020 -0.9902 -0.1399
vn -0.0031 0.9915 -0.1303
vn 0.0005 -1.0000 -0.0048
vn 0.9998 0.0006 -0.0187
vn -0.0187 0.0048 -0.9998
vn -0.0005 1.0000 0.0048
vn 0.0187 -0.0048 0.9998
vn -0.9998 -0.0006 0.0187
vn 0.9819 -0.1003 -0.1607
vn 0.9849 0.0635 -0.1613
vn 0.9810 -0.0991 0.1670
vn 0.9839 0.0648 0.1664
vn -0.9839 -0.0648 -0.1664
vn -0.9810 0.0991 -0.1670
vn -0.9849 -0.0635 0.1613
vn -0.9819 0.1003 0.1606
vn 0.9949 -0.1010 0.0032
vn 0.9867 -0.0185 -0.1615
vn 0.9979 0.0650 0.0026
vn 0.9858 -0.0172 0.1673
vn -0.0107 -0.4438 0.8961
vn 0.0055 0.4505 0.8928
vn -0.9867 0.0185 0.1615
vn -0.9979 -0.0650 -0.0026
vn -0.9949 0.1010 -0.0032
vn -0.9858 0.0172 -0.1673
vn -0.0055 -0.4505 -0.8928
vn 0.0107 0.4438 -0.8961
vn -0.0181 -0.9998 0.0037
vn 0.9998 -0.0181 0.0029
vn 0.0029 -0.0038 -1.0000
vn 0.0181 0.9998 -0.0037
vn -0.0029 0.0038 1.0000
vn -0.9998 0.0181 -0.0029
vn 0.0632 -0.7564 -0.6510
vn 0.0393 0.7783 -0.6266
vn 0.0423 -0.7771 0.6280
vn 0.0184 0.7577 0.6524
vn -0.0184 -0.7577 -0.6524
vn -0.0423 0.7771 -0.6280
vn -0.0393 -0.7783 0.6266
vn -0.0632 0.7564 0.6510
vn 0.0687 -0.9975 -0.0150
vn 0.0800 0.0171 -0.9967
vn 0.0375 0.9992 0.0168
vn 0.0474 -0.0151 0.9988
vn 0.0015 -0.7784 0.6278
vn -0.0224 0.7577 0.6522
vn -0.0800 -0.0171 0.9967
vn -0.0375 -0.9992 -0.0168
vn -0.0687 0.9975 0.0150
vn -0.0474 0.0151 -0.9988
vn 0.0224 -0.7577 -0.6522
vn -0.0015 0.7784 -0.6278
vn 0.0156 -0.9998 -0.0159
vn 0.9997 0.0153 0.0166
vn 0.0163 0.0162 -0.9997
vn -0.0156 0.9998 0.0159
vn -0.0163 -0.0162 0.9997
vn -0.9997 -0.0153 -0.0166
vn 0.0455 -0.9937 -0.1022
vn 0.0660 0.9940 -0.0869
vn 0.0420 -0.9952 0.0889
vn 0.0625 0.9926 0.1042
vn -0.0625 -0.9926 -0.1042
vn -0.0420 0.9952 -0.0889
vn -0.0660 -0.9940 0.0869
vn -0.0455 0.9937 0.1022
vn 0.0439 -0.9990 -0.0067
vn 0.5077 0.0014 -0.8616
vn 0.0646 0.9979 0.0087
vn 0.4762 -0.0117 0.8792
vn -0.0120 -0.9960 0.0880
vn 0.0086 0.9946 0.1034
vn -0.5077 -0.0014 0.8616
vn -0.0646 -0.9979 -0.0087
vn -0.0439 0.9990 0.0067
vn -0.4762 0.0117 -0.8792
vn -0.0086 -0.9946 -0.1034
vn 0.0120 0.9960 -0.0880
vn -0.0103 -0.9999 -0.0077
vn 0.9998 -0.0105 0.0180
vn 0.0180 0.0075 -0.9998
vn 0.0103 0.9999 0.0077
vn -0.0180 -0.0075 0.9998
vn -0.9998 0.0105 -0.0180
vn -0.3282 -0.9439 -0.0374
vn 0.3865 0.9181 -0.0881
vn -0.3255 -0.9415 0.0872
vn 0.3893 0.9204 0.0365
vn -0.3893 -0.9204 -0.0365
vn 0.3255 0.9415 -0.0872
vn -0.3865 -0.9181 0.0881
vn 0.3282 0.9439 0.0374
vn -0.3275 -0.9445 0.0249
vn 0.4142 -0.1833 -0.8915
vn 0.3887 0.9210 -0.0258
vn 0.4529 -0.1500 0.8788
vn -0.3562 -0.9303 0.0877
vn 0.3589 0.9326 0.0370
vn -0.4143 0.1833 0.8915
vn -0.3887 -0.9210 0.0258
vn 0.3275 0.9445 -0.0249
vn -0.4529 0.1500 -0.8788
vn -0.3589 -0.9326 -0.0370
vn 0.3562 0.9303 -0.0877
vn -0.3583 -0.9333 0.0254
vn 0.9334 -0.3587 -0.0136
vn -0.0218 -0.0188 -0.9996
vn 0.3583 0.9333 -0.0254
vn 0.0218 0.0188 0.9996
vn -0.9334 0.3587 0.0136
vn 0.5951 -0.8009 -0.0664
vn 0.5996 0.7947 -0.0939
vn 0.5971 -0.7983 0.0786
vn 0.6015 0.7973 0.0512
vn -0.6017 -0.7971 -0.0512
vn -0.5971 0.7983 -0.0786
vn -0.5996 -0.7948 0.0938
vn -0.5953 0.8008 0.0664
vn 0.5978 -0.8016 0.0061
vn 0.9911 -0.0050 -0.1329
vn 0.6023 0.7980 -0.0214
vn 0.9942 -0.0009 0.1077
vn -0.0016 -0.9942 0.1076
vn 0.0039 0.9973 0.0734
vn -0.9911 0.0050 0.1329
vn -0.6020 -0.7982 0.0214
vn -0.5975 0.8018 -0.0061
vn -0.9942 0.0009 -0.1077
vn -0.0039 -0.9973 -0.0734
vn 0.0016 0.9942 -0.1076
vn -0.0028 -0.9998 0.0172
vn 0.9999 -0.0030 -0.0127
vn -0.0128 -0.0172 -0.9998
vn 0.0028 0.9998 -0.0172
vn 0.0128 0.0172 0.9998
vn -0.9999 0.0030 0.0127
vn -0.0800 -0.0171 0.9966
vn -0.0015 0.7783 -0.6278
vn -0.4142 0.1833 0.8915
vn 0.6021 0.7981 -0.0214
vn -0.6022 -0.7981 0.0214
vn -0.5979 0.8016 -0.0061
vt 0.128500 0.746500
vt 0.128500 0.750000
vt 0.125000 0.746500
vt 0.621500 0.996500
vt 0.625000 0.996500
vt 0.621500 1.000000
vt 0.128500 0.503500
vt 0.125000 0.503500
vt 0.128500 0.500000
vt 0.625000 0.250015
vt 0.621500 0.253500
vt 0.621500 0.246501
vt 0.371500 0.746500
vt 0.378499 0.746500
vt 0.378362 0.753431
vt 0.628431 0.746638
vt 0.621500 0.753500
vt 0.621500 0.746501
vt 0.371500 0.503500
vt 0.378362 0.496569
vt 0.378499 0.503500
vt 0.628431 0.503363
vt 0.621500 0.503500
vt 0.621500 0.496501
vt 0.621500 0.000000
vt 0.378500 0.003500
vt 0.378500 0.000000
vt 0.621500 0.003500
vt 0.625000 0.003500
vt 0.378500 0.253500
vt 0.378500 0.246500
vt 0.378500 0.996500
vt 0.871500 0.746500
vt 0.621500 0.246501
vt 0.378499 0.746500
vt 0.871500 0.503500
vt 0.128500 0.746500
vt 0.378362 0.496569
vt 0.628431 0.503363
vt 0.000000 0.000000
vt 0.621500 0.496501
s 0
usemtl stone
f 1/1/1 2/2/1 3/3/1
f 4/4/2 5/5/2 6/6/2
f 7/7/3 8/8/3 9/9/3
f 10/10/4 11/11/4 12/12/4
f 13/13/5 14/14/5 15/15/5
f 16/16/6 17/17/6 18/18/6
f 19/19/7 20/20/7 21/21/7
f 22/22/8 23/23/8 24/24/8
f 1/1/9 8/8/9 7/7/9
f 4/25/10 3/26/10 2/27/10
f 10/10/11 6/28/11 5/29/11
f 9/30/12 12/12/12 11/11/12
f 7/7/13 20/20/13 19/19/13
f 10/10/14 24/24/14 11/11/14
f 21/21/15 24/24/15 23/23/15
f 19/19/16 14/14/16 13/13/16
f 16/16/17 23/23/17 22/22/17
f 15/15/18 18/18/18 17/17/18
f 1/1/19 15/15/19 2/2/19
f 5/5/20 17/17/20 16/16/20
f 19/19/21 1/1/21 7/7/21
f 6/28/22 8/31/22 3/26/22
f 15/15/23 4/4/23 2/32/23
f 22/22/24 5/33/24 16/16/24
f 11/11/25 20/20/25 9/30/25
f 23/23/26 14/14/26 21/21/26
f 1/1/9 3/3/9 8/8/9
f 4/25/10 6/28/10 3/26/10
f 10/10/11 12/12/11 6/28/11
f 9/30/12 8/31/12 12/12/12
f 7/7/13 9/9/13 20/20/13
f 10/10/14 22/22/14 24/24/14
f 21/21/15 20/20/15 24/24/15
f 19/19/16 21/21/16 14/14/16
f 16/16/17 18/18/17 23/23/17
f 15/15/18 14/14/18 18/18/18
f 1/1/19 13/13/19 15/15/19
f 5/5/20 4/4/20 17/17/20
f 19/19/21 13/13/21 1/1/21
f 6/28/22 12/12/22 8/31/22
f 15/15/23 17/17/23 4/4/23
f 22/22/24 10/36/24 5/33/24
f 11/11/25 24/24/25 20/20/25
f 23/23/26 18/18/26 14/14/26
usemtl wood
f 25/1/27 26/2/27 27/3/27
f 28/4/28 29/5/28 30/6/28
f 31/7/29 32/8/29 33/9/29
f 34/10/30 35/11/30 36/34/30
f 37/13/31 38/35/31 39/15/31
f 40/16/32 41/17/32 42/18/32
f 43/19/33 44/20/33 45/21/33
f 46/22/34 47/23/34 48/24/34
f 25/1/35 32/8/35 31/7/35
f 28/25/36 27/26/36 26/27/36
f 29/29/37 36/34/37 30/28/37
f 33/30/38 36/34/38 35/11/38
f 43/19/39 33/9/39 44/20/39
f 46/22/40 35/11/40 34/10/40
f 45/21/41 48/24/41 47/23/41
f 43/19/42 38/35/42 37/13/42
f 40/16/43 47/23/43 46/22/43
f 39/15/44 42/18/44 41/17/44
f 25/1/45 39/15/45 26/2/45
f 29/5/46 41/17/46 40/16/46
f 43/19/47 25/1/47 31/7/47
f 30/28/48 32/31/48 27/26/48
f 41/17/49 26/32/49 39/15/49
f 34/36/50 40/16/50 46/22/50
f 33/30/51 48/24/51 44/20/51
f 47/23/52 38/35/52 45/21/52
f 49/37/53 50/2/53 51/3/53
f 52/4/54 53/5/54 54/6/54
f 55/7/55 56/8/55 57/9/55
f 58/10/56 59/11/56 60/12/56
f 61/13/57 62/14/57 63/15/57
f 64/16/58 65/17/58 66/18/58
f 67/19/59 68/38/59 69/21/59
f 70/39/60 71/23/60 72/24/60
f 55/7/61 51/3/61 56/8/61
f 52/25/62 51/26/62 50/27/62
f 58/10/63 54/28/63 53/29/63
f 59/11/64 56/31/64 60/12/64
f 55/7/65 68/38/65 67/19/65
f 70/39/66 59/11/66 58/10/66
f 71/23/67 68/38/67 72/24/67
f 61/13/68 69/21/68 62/14/68
f 70/39/69 66/18/69 71/23/69
f 63/15/70 66/18/70 65/17/70
f 61/13/71 50/2/71 49/37/71
f 64/16/72 52/4/72 65/17/72
f 67/19/73 49/37/73 55/7/73
f 54/28/74 56/31/74 51/26/74
f 65/17/75 50/32/75 63/15/75
f 58/36/76 64/16/76 70/39/76
f 59/11/77 68/38/77 57/30/77
f 71/23/78 62/14/78 69/21/78
f 73/40/79 74/40/79 75/40/79
f 76/40/80 77/40/80 78/40/80
f 79/40/81 80/40/81 81/40/81
f 82/40/82 83/40/82 84/40/82
f 85/40/83 86/40/83 87/40/83
f 88/40/84 89/40/84 90/40/84
f 91/40/85 92/40/85 93/40/85
f 94/40/86 95/40/86 96/40/86
f 79/40/87 78/40/87 80/40/87
f 88/40/88 78/40/88 77/40/88
f 91/40/89 90/40/89 89/40/89
f 81/40/90 93/40/90 92/40/90
f 85/40/91 89/40/91 88/40/91
f 94/40/92 87/40/92 86/40/92
f 95/40/93 91/40/93 96/40/93
f 82/40/94 95/40/94 94/40/94
f 79/40/95 84/40/95 83/40/95
f 82/40/96 75/40/96 83/40/96
f 77/40/97 75/40/97 74/40/97
f 86/40/98 74/40/98 73/40/98
f 94/40/99 73/40/99 82/40/99
f 76/40/100 83/40/100 75/40/100
f 88/40/101 74/40/101 85/40/101
f 93/40/102 78/40/102 90/40/102
f 92/40/103 84/40/103 81/40/103
f 96/40/104 89/40/104 87/40/104
f 97/37/105 98/2/105 99/3/105
f 100/4/106 101/5/106 102/6/106
f 103/7/107 104/8/107 105/9/107
f 106/10/108 107/11/108 108/12/108
f 109/13/109 110/14/109 111/15/109
f 112/16/110 113/17/110 114/18/110
f 115/19/111 116/20/111 117/21/111
f 118/22/112 119/23/112 120/41/112
f 103/7/113 99/3/113 104/8/113
f 100/25/114 99/26/114 98/27/114
f 106/10/115 102/28/115 101/29/115
f 107/11/116 104/31/116 108/12/116
f 103/7/117 116/20/117 115/19/117
f 118/22/118 107/11/118 106/10/118
f 117/21/119 120/41/119 119/23/119
f 115/19/120 110/14/120 109/13/120
f 118/22/121 114/18/121 119/23/121
f 113/17/122 110/14/122 114/18/122
f 97/37/123 111/15/123 98/2/123
f 101/5/124 113/17/124 112/16/124
f 115/19/125 97/37/125 103/7/125
f 102/28/126 104/31/126 99/26/126
f 113/17/127 98/32/127 111/15/127
f 106/36/128 112/16/128 118/22/128
f 107/11/129 116/20/129 105/30/129
f 119/23/130 110/14/130 117/21/130
f 121/37/131 122/2/131 123/3/131
f 124/4/132 125/5/132 126/6/132
f 127/7/133 128/8/133 129/9/133
f 130/10/134 131/11/134 132/12/134
f 133/13/135 134/14/135 135/15/135
f 136/16/136 137/17/136 138/18/136
f 139/19/137 140/38/137 141/21/137
f 142/22/138 143/23/138 144/41/138
f 127/7/139 123/3/139 128/8/139
f 122/27/140 126/28/140 123/26/140
f 130/10/141 126/28/141 125/29/141
f 129/30/142 132/12/142 131/11/142
f 127/7/143 140/38/143 139/19/143
f 130/10/144 144/41/144 131/11/144
f 141/21/145 144/41/145 143/23/145
f 133/13/146 141/21/146 134/14/146
f 142/22/147 138/18/147 143/23/147
f 135/15/148 138/18/148 137/17/148
f 133/13/149 122/2/149 121/37/149
f 125/5/150 137/17/150 136/16/150
f 127/7/151 133/13/151 121/37/151
f 126/28/152 128/31/152 123/26/152
f 135/15/153 124/4/153 122/32/153
f 130/36/154 136/16/154 142/22/154
f 131/11/155 140/38/155 129/30/155
f 143/23/156 134/14/156 141/21/156
f 193/37/209 194/2/209 195/3/209
f 196/4/210 197/5/210 198/6/210
f 199/7/211 200/8/211 201/9/211
f 202/10/212 203/11/212 204/12/212
f 205/13/213 206/14/213 207/15/213
f 208/16/214 209/17/214 210/18/214
f 211/19/215 212/38/215 213/21/215
f 214/39/216 215/23/216 216/24/216
f 199/7/217 195/3/217 200/8/217
f 194/27/218 198/28/218 195/26/218
f 197/29/219 204/12/219 198/28/219
f 203/11/220 200/31/220 204/12/220
f 199/7/221 212/38/221 211/19/221
f 214/39/222 203/11/222 202/10/222
f 215/23/223 212/38/223 216/24/223
f 211/19/224 206/14/224 205/13/224
f 214/39/225 210/18/225 215/23/225
f 207/15/226 210/18/226 209/17/226
f 205/13/227 194/2/227 193/37/227
f 197/5/228 209/17/228 208/16/228
f 211/19/229 193/37/229 199/7/229
f 198/28/230 200/31/230 195/26/230
f 209/17/231 194/32/231 207/15/231
f 202/36/232 208/16/232 214/39/232
f 203/11/233 212/38/233 201/30/233
f 215/23/234 206/14/234 213/21/234
f 217/37/235 218/2/235 219/3/235
f 220/4/236 221/5/236 222/6/236
f 223/7/237 224/8/237 225/9/237
f 226/10/238 227/11/238 228/12/238
f 229/13/239 230/14/239 231/15/239
f 232/16/240 233/17/240 234/18/240
f 235/19/241 236/38/241 237/21/241
f 238/39/242 239/23/242 240/24/242
f 217/37/243 224/8/243 223/7/243
f 218/27/244 222/28/244 219/26/244
f 221/29/245 228/12/245 222/28/245
f 225/30/246 228/12/246 227/11/246
f 235/19/247 225/9/247 236/38/247
f 226/10/248 240/24/248 227/11/248
f 237/21/249 240/24/249 239/23/249
f 235/19/250 230/14/250 229/13/250
f 238/39/251 234/18/251 239/23/251
f 231/15/252 234/18/252 233/17/252
f 217/37/253 231/15/253 218/2/253
f 221/5/254 233/17/254 232/16/254
f 235/19/255 217/37/255 223/7/255
f 222/28/256 224/31/256 219/26/256
f 233/17/257 218/32/257 231/15/257
f 226/36/258 232/16/258 238/39/258
f 225/30/259 240/24/259 236/38/259
f 239/23/260 230/14/260 237/21/260
f 25/1/35 27/3/35 32/8/35
f 28/25/36 30/28/36 27/26/36
f 29/29/37 34/10/37 36/34/37
f 33/30/38 32/31/38 36/34/38
f 43/19/39 31/7/39 33/9/39
f 46/22/40 48/24/40 35/11/40
f 45/21/41 44/20/41 48/24/41
f 43/19/42 45/21/42 38/35/42
f 40/16/43 42/18/43 47/23/43
f 39/15/44 38/35/44 42/18/44
f 25/1/45 37/13/45 39/15/45
f 29/5/46 28/4/46 41/17/46
f 43/19/47 37/13/47 25/1/47
f 30/28/48 36/34/48 32/31/48
f 41/17/49 28/4/49 26/32/49
f 34/36/50 29/33/50 40/16/50
f 33/30/51 35/11/51 48/24/51
f 47/23/52 42/18/52 38/35/52
f 55/7/61 49/37/61 51/3/61
f 52/25/62 54/28/62 51/26/62
f 58/10/63 60/12/63 54/28/63
f 59/11/64 57/30/64 56/31/64
f 55/7/65 57/9/65 68/38/65
f 70/39/66 72/24/66 59/11/66
f 71/23/67 69/21/67 68/38/67
f 61/13/68 67/19/68 69/21/68
f 70/39/69 64/16/69 66/18/69
f 63/15/70 62/14/70 66/18/70
f 61/13/71 63/15/71 50/2/71
f 64/16/72 53/5/72 52/4/72
f 67/19/73 61/13/73 49/37/73
f 54/28/74 60/12/74 56/31/74
f 65/17/75 52/4/75 50/32/75
f 58/36/76 53/33/76 64/16/76
f 59/11/77 72/24/77 68/38/77
f 71/23/78 66/18/78 62/14/78
f 79/40/87 76/40/87 78/40/87
f 88/40/88 90/40/88 78/40/88
f 91/40/89 93/40/89 90/40/89
f 81/40/90 80/40/90 93/40/90
f 85/40/91 87/40/91 89/40/91
f 94/40/92 96/40/92 87/40/92
f 95/40/93 92/40/93 91/40/93
f 82/40/94 84/40/94 95/40/94
f 79/40/95 81/40/95 84/40/95
f 82/40/96 73/40/96 75/40/96
f 77/40/97 76/40/97 75/40/97
f 86/40/98 85/40/98 74/40/98
f 94/40/99 86/40/99 73/40/99
f 76/40/100 79/40/100 83/40/100
f 88/40/101 77/40/101 74/40/101
f 93/40/102 80/40/102 78/40/102
f 92/40/103 95/40/103 84/40/103
f 96/40/104 91/40/104 89/40/104
f 103/7/113 97/37/113 99/3/113
f 100/25/114 102/28/114 99/26/114
f 106/10/115 108/12/115 102/28/115
f 107/11/116 105/30/116 104/31/116
f 103/7/117 105/9/117 116/20/117
f 118/22/118 120/41/118 107/11/118
f 117/21/119 116/20/119 120/41/119
f 115/19/120 117/21/120 110/14/120
f 118/22/121 112/16/121 114/18/121
f 113/17/122 111/15/122 110/14/122
f 97/37/123 109/13/123 111/15/123
f 101/5/124 100/4/124 113/17/124
f 115/19/125 109/13/125 97/37/125
f 102/28/126 108/12/126 104/31/126
f 113/17/127 100/4/127 98/32/127
f 106/36/128 101/33/128 112/16/128
f 107/11/129 120/41/129 116/20/129
f 119/23/130 114/18/130 110/14/130
f 127/7/139 121/37/139 123/3/139
f 122/27/140 124/25/140 126/28/140
f 130/10/141 132/12/141 126/28/141
f 129/30/142 128/31/142 132/12/142
f 127/7/143 129/9/143 140/38/143
f 130/10/144 142/22/144 144/41/144
f 141/21/145 140/38/145 144/41/145
f 133/13/146 139/19/146 141/21/146
f 142/22/147 136/16/147 138/18/147
f 135/15/148 134/14/148 138/18/148
f 133/13/149 135/15/149 122/2/149
f 125/5/150 124/4/150 137/17/150
f 127/7/151 139/19/151 133/13/151
f 126/28/152 132/12/152 128/31/152
f 135/15/153 137/17/153 124/4/153
f 130/36/154 125/33/154 136/16/154
f 131/11/155 144/41/155 140/38/155
f 143/23/156 138/18/156 134/14/156
f 199/7/217 193/37/217 195/3/217
f 194/27/218 196/25/218 198/28/218
f 197/29/219 202/10/219 204/12/219
f 203/11/220 201/30/220 200/31/220
f 199/7/221 201/9/221 212/38/221
f 214/39/222 216/24/222 203/11/222
f 215/23/263 213/21/263 212/38/263
f 211/19/224 213/21/224 206/14/224
f 214/39/225 208/16/225 210/18/225
f 207/15/226 206/14/226 210/18/226
f 205/13/227 207/15/227 194/2/227
f 197/5/228 196/4/228 209/17/228
f 211/19/229 205/13/229 193/37/229
f 198/28/230 204/12/230 200/31/230
f 209/17/231 196/4/231 194/32/231
f 202/36/232 197/33/232 208/16/232
f 203/11/233 216/24/233 212/38/233
f 215/23/234 210/18/234 206/14/234
f 217/37/243 219/3/243 224/8/243
f 218/27/244 220/25/244 222/28/244
f 221/29/264 226/10/264 228/12/264
f 225/30/246 224/31/246 228/12/246
f 235/19/247 223/7/247 225/9/247
f 226/10/248 238/39/248 240/24/248
f 237/21/249 236/38/249 240/24/249
f 235/19/265 237/21/265 230/14/265
f 238/39/266 232/16/266 234/18/266
f 231/15/252 230/14/252 234/18/252
f 217/37/253 229/13/253 231/15/253
f 221/5/254 220/4/254 233/17/254
f 235/19/255 229/13/255 217/37/255
f 222/28/256 228/12/256 224/31/256
f 233/17/257 220/4/257 218/32/257
f 226/36/258 221/33/258 232/16/258
f 225/30/259 227/11/259 240/24/259
f 239/23/260 234/18/260 230/14/260
usemtl iron
f 145/1/157 146/2/157 147/3/157
f 148/4/158 149/5/158 150/6/158
f 151/7/159 152/8/159 153/9/159
f 154/10/160 155/11/160 156/12/160
f 157/13/161 158/14/161 159/15/161
f 160/16/162 161/17/162 162/18/162
f 163/19/163 164/20/163 165/21/163
f 166/22/164 167/23/164 168/24/164
f 145/1/165 152/8/165 151/7/165
f 148/25/166 147/26/166 146/27/166
f 149/29/167 156/12/167 150/28/167
f 155/11/168 152/31/168 156/12/168
f 163/19/169 153/9/169 164/20/169
f 166/22/170 155/11/170 154/10/170
f 167/23/171 164/20/171 168/24/171
f 157/13/172 165/21/172 158/14/172
f 166/22/173 162/18/173 167/23/173
f 159/15/174 162/18/174 161/17/174
f 145/1/175 159/15/175 146/2/175
f 149/5/176 161/17/176 160/16/176
f 151/7/177 157/13/177 145/1/177
f 147/26/178 156/12/178 152/31/178
f 161/17/179 146/32/179 159/15/179
f 166/22/180 149/33/180 160/16/180
f 155/11/181 164/20/181 153/30/181
f 165/21/182 162/18/182 158/14/182
f 169/37/183 170/2/183 171/3/183
f 172/4/184 173/5/184 174/6/184
f 175/7/185 176/8/185 177/9/185
f 178/10/186 179/11/186 180/34/186
f 181/13/187 182/14/187 183/15/187
f 184/16/188 185/17/188 186/18/188
f 187/19/189 188/38/189 189/21/189
f 190/39/190 191/23/190 192/24/190
f 169/37/191 176/8/191 175/7/191
f 172/25/192 171/26/192 170/27/192
f 178/10/193 174/28/193 173/29/193
f 179/11/194 176/31/194 180/34/194
f 187/19/195 177/9/195 188/38/195
f 178/10/196 192/24/196 179/11/196
f 191/23/197 188/38/197 192/24/197
f 181/13/198 189/21/198 182/14/198
f 184/16/199 191/23/199 190/39/199
f 183/15/200 186/18/200 185/17/200
f 169/37/201 183/15/201 170/2/201
f 173/5/202 185/17/202 184/16/202
f 187/19/203 169/37/203 175/7/203
f 174/28/204 176/31/204 171/26/204
f 185/17/205 170/32/205 183/15/205
f 178/36/206 184/16/206 190/39/206
f 179/11/207 188/38/207 177/30/207
f 191/23/208 182/14/208 189/21/208
f 145/1/165 147/3/165 152/8/165
f 148/25/166 150/28/166 147/26/166
f 149/29/167 154/10/167 156/12/167
f 155/11/168 153/30/168 152/31/168
f 163/19/169 151/7/169 153/9/169
f 166/22/170 168/24/170 155/11/170
f 167/23/261 165/21/261 164/20/261
f 157/13/172 163/19/172 165/21/172
f 166/22/173 160/16/173 162/18/173
f 159/15/174 158/14/174 162/18/174
f 145/1/175 157/13/175 159/15/175
f 149/5/262 148/4/262 161/17/262
f 151/7/177 163/19/177 157/13/177
f 147/26/178 150/28/178 156/12/178
f 161/17/179 148/4/179 146/32/179
f 166/22/180 154/36/180 149/33/180
f 155/11/181 168/24/181 164/20/181
f 165/21/182 167/23/182 162/18/182
f 169/37/191 171/3/191 176/8/191
f 172/25/192 174/28/192 171/26/192
f 178/10/193 180/34/193 174/28/193
f 179/11/194 177/30/194 176/31/194
f 187/19/195 175/7/195 177/9/195
f 178/10/196 190/39/196 192/24/196
f 191/23/197 189/21/197 188/38/197
f 181/13/198 187/19/198 189/21/198
f 184/16/199 186/18/199 191/23/199
f 183/15/200 182/14/200 186/18/200
f 169/37/201 181/13/201 183/15/201
f 173/5/202 172/4/202 185/17/202
f 187/19/203 181/13/203 169/37/203
f 174/28/204 180/34/204 176/31/204
f 185/17/205 172/4/205 170/32/205
f 178/36/206 173/33/206 184/16/206
f 179/11/207 192/24/207 188/38/207
f 191/23/208 186/18/208 182/14/208
