# Blender 4.5.10 LTS
# www.blender.org
mtllib upgrade_bench_block.mtl
o upgrade_bench_block
v -0.322493 0.008226 -0.263044
v -0.341129 0.022089 -0.261375
v -0.324448 0.021837 -0.281838
v -0.337010 0.088381 -0.275864
v -0.334019 0.074682 -0.290290
v -0.350700 0.074933 -0.269827
v -0.072767 0.004818 -0.411982
v -0.088098 0.018612 -0.422798
v -0.062166 0.018282 -0.427750
v -0.075536 0.084813 -0.431809
v -0.063991 0.071020 -0.440822
v -0.089923 0.071350 -0.435870
v 0.214266 0.001397 -0.365540
v 0.209493 0.015044 -0.383796
v 0.232541 0.014790 -0.370919
v 0.225002 0.081231 -0.383182
v 0.239619 0.067423 -0.382550
v 0.216571 0.067676 -0.395427
v 0.404302 -0.000437 -0.145449
v 0.412398 0.013054 -0.162617
v 0.421778 0.012995 -0.137937
v 0.423979 0.079311 -0.152737
v 0.434751 0.065571 -0.142741
v 0.425371 0.065630 -0.167421
v 0.408420 0.000175 0.145307
v 0.425676 0.013575 0.137247
v 0.416999 0.013738 0.162182
v 0.428290 0.079952 0.151699
v 0.430099 0.066333 0.166396
v 0.438776 0.066170 0.141460
v 0.224693 0.002946 0.370682
v 0.243113 0.016361 0.375485
v 0.220438 0.016670 0.389008
v 0.235920 0.082853 0.387677
v 0.227840 0.069351 0.400212
v 0.250514 0.069042 0.386689
v -0.060910 0.006580 0.425219
v -0.049868 0.020110 0.440624
v -0.075929 0.020420 0.436407
v -0.063121 0.086658 0.444780
v -0.077387 0.073214 0.449303
v -0.051325 0.072903 0.453520
v -0.314753 0.009376 0.283400
v -0.316176 0.023066 0.302184
v -0.333431 0.023233 0.282201
v -0.328907 0.089586 0.296289
v -0.342762 0.076113 0.290698
v -0.325507 0.075947 0.310681
v -0.418060 0.010026 0.011584
v -0.431205 0.023848 0.024943
v -0.431578 0.023793 -0.001456
v -0.437074 0.090266 0.011684
v -0.444114 0.076693 -0.001390
v -0.443740 0.076748 0.025010
v 0.103091 0.049049 0.362890
v 0.117887 0.062812 0.367617
v 0.092397 0.062719 0.374270
v 0.087223 0.490173 0.308271
v 0.077530 0.476037 0.323093
v 0.103020 0.476130 0.316441
v -0.159177 0.049839 0.338237
v -0.150710 0.063450 0.351417
v -0.174513 0.063692 0.340131
v -0.130777 0.490829 0.287778
v -0.147904 0.476886 0.292854
v -0.124100 0.476644 0.304140
v -0.344232 0.053589 0.150798
v -0.346049 0.067168 0.166386
v -0.357027 0.067632 0.142443
v -0.284597 0.493947 0.131977
v -0.301151 0.480232 0.124808
v -0.290173 0.479769 0.148752
v -0.365485 0.058546 -0.111722
v -0.376727 0.072226 -0.100897
v -0.369744 0.072695 -0.126295
v -0.302263 0.498067 -0.086233
v -0.310507 0.484511 -0.102413
v -0.317490 0.484043 -0.077015
v -0.212992 0.062390 -0.326486
v -0.228391 0.076258 -0.325369
v -0.206713 0.076512 -0.340337
v -0.175509 0.501262 -0.264748
v -0.171593 0.487721 -0.282490
v -0.193271 0.487467 -0.267523
v 0.041895 0.063322 -0.393005
v 0.029552 0.077376 -0.401996
v 0.055781 0.077297 -0.399530
v 0.036356 0.502037 -0.320039
v 0.050591 0.488358 -0.331164
v 0.024363 0.488437 -0.333630
v 0.279910 0.060907 -0.280153
v 0.276407 0.075058 -0.294923
v 0.294914 0.074683 -0.276178
v 0.234198 0.500029 -0.226235
v 0.252083 0.486126 -0.225659
v 0.233576 0.486501 -0.244404
v 0.389684 0.056273 -0.040735
v 0.396668 0.070388 -0.054251
v 0.398794 0.069892 -0.027998
v 0.325444 0.496178 -0.027228
v 0.338602 0.482069 -0.015342
v 0.336477 0.482564 -0.041596
v 0.319853 0.051591 0.213223
v 0.334064 0.065552 0.207406
v 0.318814 0.065167 0.228884
v 0.267399 0.492285 0.183865
v 0.269666 0.478084 0.201377
v 0.284916 0.478468 0.179899
v -0.076451 0.484017 0.004068
v -0.076474 0.486277 0.003212
v -0.076059 0.486360 0.003628
v -0.078433 0.648613 -0.027565
v -0.078466 0.651030 -0.027595
v -0.078018 0.648697 -0.027148
v -0.076797 0.489444 0.032716
v -0.076405 0.491788 0.032277
v -0.076830 0.491860 0.032685
v -0.078812 0.656457 0.001053
v -0.078789 0.654197 0.001909
v -0.078364 0.654124 0.001500
v -0.105606 0.483612 0.003792
v -0.106055 0.485945 0.003345
v -0.105630 0.485872 0.002936
v -0.107622 0.650626 -0.027871
v -0.107589 0.648209 -0.027840
v -0.108014 0.648282 -0.027432
v -0.105952 0.489039 0.032440
v -0.105986 0.491456 0.032410
v -0.106401 0.491372 0.031993
v -0.107968 0.656053 0.000778
v -0.108360 0.653709 0.001217
v -0.107945 0.653793 0.001633
v 0.000489 0.495583 -0.135540
v 0.000083 0.497959 -0.135717
v 0.000504 0.497988 -0.135299
v -0.027592 0.660002 -0.118977
v -0.027983 0.662294 -0.118318
v -0.027171 0.660031 -0.118559
v 0.001001 0.492673 -0.106530
v 0.001016 0.495078 -0.106289
v 0.000610 0.494966 -0.105871
v -0.027471 0.659385 -0.089308
v -0.027065 0.657009 -0.089131
v -0.026659 0.657122 -0.089549
v -0.028255 0.490672 -0.135525
v -0.029067 0.492936 -0.135284
v -0.028661 0.493048 -0.135702
v -0.056727 0.657384 -0.118303
v -0.056336 0.655092 -0.118962
v -0.056742 0.654979 -0.118544
v -0.027743 0.487763 -0.106515
v -0.028134 0.490055 -0.105856
v -0.028555 0.490026 -0.106274
v -0.056215 0.654474 -0.089293
v -0.056230 0.652070 -0.089534
v -0.055809 0.652099 -0.089116
v -0.157487 0.483707 -0.137519
v -0.157076 0.486084 -0.137682
v -0.156676 0.485969 -0.137258
v -0.129527 0.648050 -0.120014
v -0.129144 0.650340 -0.119342
v -0.129126 0.647936 -0.119590
v -0.158439 0.480707 -0.108529
v -0.157628 0.482969 -0.108269
v -0.158056 0.482997 -0.107857
v -0.130096 0.647339 -0.090352
v -0.130506 0.644963 -0.090189
v -0.130079 0.644935 -0.090601
v -0.186223 0.488643 -0.137952
v -0.186240 0.491046 -0.137704
v -0.185812 0.491019 -0.138115
v -0.157880 0.655275 -0.119775
v -0.158263 0.652985 -0.120447
v -0.158690 0.653013 -0.120036
v -0.187175 0.485642 -0.108962
v -0.186792 0.487932 -0.108290
v -0.187192 0.488046 -0.108714
v -0.158832 0.652274 -0.090785
v -0.159642 0.650012 -0.091046
v -0.159242 0.649898 -0.090622
v -0.183541 0.520990 -0.086290
v -0.183760 0.504994 -0.086541
v -0.167544 0.520775 -0.086494
v -0.183541 0.520990 -0.086290
v -0.167763 0.504778 -0.086745
v -0.167544 0.520775 -0.086494
v -0.183760 0.504994 -0.086541
v -0.167763 0.504778 -0.086745
v -0.171724 0.504103 -0.040224
v -0.171505 0.520100 -0.039973
v -0.171505 0.520100 -0.039973
v -0.157434 0.520027 -0.047588
v -0.157434 0.520027 -0.047588
v -0.157652 0.504030 -0.047839
v -0.157652 0.504030 -0.047839
v -0.171724 0.504103 -0.040224
v -0.139540 0.503108 -0.004811
v -0.139322 0.519105 -0.004560
v -0.139322 0.519105 -0.004560
v -0.130399 0.519191 -0.017841
v -0.130399 0.519191 -0.017841
v -0.130618 0.503195 -0.018092
v -0.130618 0.503195 -0.018092
v -0.139540 0.503108 -0.004811
v -0.094582 0.502237 0.011586
v -0.094363 0.518233 0.011837
v -0.094363 0.518233 0.011837
v -0.092635 0.518459 -0.004068
v -0.092634 0.518459 -0.004068
v -0.092853 0.502463 -0.004318
v -0.092853 0.502463 -0.004318
v -0.094582 0.502237 0.011586
v -0.047148 0.501689 0.005211
v -0.046930 0.517685 0.005462
v -0.046930 0.517685 0.005462
v -0.052790 0.517999 -0.009423
v -0.052790 0.517998 -0.009423
v -0.053009 0.502002 -0.009673
v -0.053009 0.502002 -0.009673
v -0.047148 0.501689 0.005211
v -0.008106 0.501589 -0.022476
v -0.007887 0.517586 -0.022225
v -0.007887 0.517586 -0.022225
v -0.019995 0.517915 -0.032680
v -0.019995 0.517915 -0.032680
v -0.020213 0.501918 -0.032931
v -0.020213 0.501918 -0.032931
v -0.008106 0.501589 -0.022476
v 0.013601 0.501961 -0.065132
v 0.013819 0.517958 -0.064881
v 0.013819 0.517958 -0.064881
v -0.001761 0.518227 -0.068511
v -0.001761 0.518227 -0.068511
v -0.001980 0.502231 -0.068762
v -0.001980 0.502231 -0.068762
v 0.013601 0.501961 -0.065132
v 0.013000 0.502719 -0.112985
v 0.013218 0.518716 -0.112734
v 0.013218 0.518716 -0.112734
v -0.002266 0.518864 -0.108708
v -0.002266 0.518864 -0.108708
v -0.002485 0.502868 -0.108959
v -0.002485 0.502868 -0.108959
v 0.013000 0.502719 -0.112985
v -0.009772 0.503690 -0.155073
v -0.009553 0.519687 -0.154822
v -0.009553 0.519687 -0.154822
v -0.021394 0.519680 -0.144062
v -0.021394 0.519680 -0.144062
v -0.021613 0.503684 -0.144312
v -0.021613 0.503684 -0.144312
v -0.009772 0.503690 -0.155073
v -0.049497 0.504652 -0.181754
v -0.049279 0.520648 -0.181503
v -0.049279 0.520648 -0.181503
v -0.054764 0.520487 -0.166473
v -0.054764 0.520487 -0.166473
v -0.054982 0.504491 -0.166724
v -0.054982 0.504491 -0.166724
v -0.049497 0.504652 -0.181754
v -0.097076 0.505383 -0.186915
v -0.096857 0.521379 -0.186664
v -0.096857 0.521379 -0.186664
v -0.094729 0.521102 -0.170809
v -0.094729 0.521102 -0.170809
v -0.094948 0.505105 -0.171059
v -0.094948 0.505105 -0.171059
v -0.097076 0.505383 -0.186915
v -0.141608 0.505716 -0.169374
v -0.141389 0.521713 -0.169123
v -0.141389 0.521713 -0.169123
v -0.132136 0.521382 -0.156074
v -0.132136 0.521382 -0.156074
v -0.132355 0.505385 -0.156325
v -0.132355 0.505385 -0.156325
v -0.141608 0.505716 -0.169374
v -0.172891 0.505576 -0.133150
v -0.172673 0.521573 -0.132899
v -0.172673 0.521573 -0.132899
v -0.158414 0.521264 -0.125646
v -0.158414 0.521264 -0.125646
v -0.158633 0.505267 -0.125897
v -0.158633 0.505267 -0.125897
v -0.172891 0.505576 -0.133150
v -0.084974 0.498981 -0.080207
v -0.161448 0.557134 -0.138562
v -0.051313 0.555775 -0.171183
v 0.013708 0.552684 -0.076534
v -0.056243 0.552131 0.014583
v -0.164494 0.554881 -0.023753
v -0.110029 0.646778 -0.170956
v -0.001778 0.644027 -0.132620
v -0.004824 0.641775 -0.017811
v -0.114959 0.643133 0.014810
v -0.179979 0.646225 -0.079839
v -0.081298 0.699927 -0.076167
v -0.065511 0.514724 -0.134036
v -0.130246 0.515522 -0.114861
v -0.110461 0.548905 -0.168336
v -0.176987 0.548380 -0.081679
v -0.132037 0.514199 -0.047379
v -0.027293 0.512907 -0.078403
v -0.007508 0.546289 -0.131877
v -0.068409 0.512582 -0.024846
v -0.010405 0.544147 -0.022687
v -0.115150 0.545439 0.008337
v -0.186090 0.602070 -0.114645
v -0.187880 0.600746 -0.047163
v -0.080238 0.601597 -0.187377
v -0.144974 0.602395 -0.168203
v 0.021609 0.598162 -0.109210
v -0.016609 0.599980 -0.164844
v -0.021298 0.596514 0.011830
v 0.019818 0.596838 -0.041728
v -0.149662 0.598929 0.008471
v -0.086033 0.597312 0.031004
v -0.155867 0.654762 -0.133686
v -0.051122 0.653470 -0.164710
v 0.010715 0.650529 -0.074694
v -0.055810 0.650004 0.011963
v -0.158764 0.652619 -0.024496
v -0.097863 0.686327 -0.131527
v -0.138979 0.686002 -0.077971
v -0.034235 0.684710 -0.108994
v -0.036026 0.683386 -0.041512
v -0.100761 0.684185 -0.022338
v -0.091294 0.519699 -0.083518
v -0.142685 0.564405 -0.124427
v -0.071475 0.567194 -0.144054
v -0.030931 0.571355 -0.082388
v -0.077084 0.571136 -0.024649
v -0.146151 0.566841 -0.050632
v -0.114083 0.643692 -0.148581
v -0.045016 0.647987 -0.122599
v -0.048482 0.650424 -0.048803
v -0.119692 0.647634 -0.029177
v -0.160236 0.643474 -0.090843
v -0.099873 0.695130 -0.089713
v -0.078891 0.532215 -0.118556
v -0.120747 0.530576 -0.107020
v -0.109098 0.558493 -0.142602
v -0.152992 0.558286 -0.087690
v -0.122785 0.532008 -0.063644
v -0.055060 0.534661 -0.082310
v -0.043411 0.562578 -0.117892
v -0.082188 0.534533 -0.048372
v -0.046708 0.564895 -0.047708
v -0.114433 0.562242 -0.029042
v -0.161271 0.603329 -0.111326
v -0.163308 0.604761 -0.067950
v -0.092286 0.605097 -0.156800
v -0.134143 0.603457 -0.145264
v -0.027859 0.610067 -0.105281
v -0.051689 0.607622 -0.141528
v -0.057024 0.611371 -0.027967
v -0.029896 0.611499 -0.061905
v -0.139477 0.607207 -0.031703
v -0.098880 0.609731 -0.016431
v -0.144459 0.649933 -0.125523
v -0.076734 0.652586 -0.144188
v -0.038175 0.656543 -0.085541
v -0.082069 0.656335 -0.030628
v -0.147756 0.652250 -0.055339
v -0.108978 0.680296 -0.124858
v -0.136106 0.680167 -0.090921
v -0.068382 0.682820 -0.109586
v -0.070420 0.684252 -0.066211
v -0.112275 0.682613 -0.054675
v 0.205780 0.451443 0.076154
v 0.204203 0.454090 0.075461
v 0.205765 0.455020 0.076165
v 0.094643 0.637731 0.075944
v 0.093064 0.640374 0.076651
v 0.096205 0.638661 0.076648
v 0.205747 0.451295 0.124754
v 0.205732 0.454873 0.124764
v 0.204169 0.453938 0.125461
v 0.093031 0.640226 0.125251
v 0.094608 0.637579 0.125944
v 0.096172 0.638513 0.125248
v 0.097265 0.386703 0.075882
v 0.094124 0.388416 0.075885
v 0.095688 0.389351 0.075189
v -0.015451 0.575634 0.076380
v -0.013873 0.572991 0.075673
v -0.015436 0.572057 0.076369
v 0.097232 0.386556 0.124482
v 0.095653 0.389198 0.125189
v 0.094091 0.388268 0.124485
v -0.015485 0.575486 0.124979
v -0.015469 0.571909 0.124969
v -0.013907 0.572839 0.125673
v 0.043940 0.606835 0.109052
v 0.055032 0.609318 0.125650
v 0.048679 0.626175 0.111917
v 0.487968 0.857449 0.211264
v 0.468799 0.863294 0.208625
v 0.475152 0.846437 0.222359
v 0.044457 0.611795 0.094985
v 0.048926 0.628548 0.105187
v 0.056550 0.623873 0.084374
v 0.488323 0.860846 0.201630
v 0.476516 0.859513 0.185276
v 0.468892 0.864189 0.206089
v 0.052066 0.601851 0.086866
v 0.060191 0.619115 0.080489
v 0.071256 0.599368 0.081360
v 0.493535 0.854035 0.196068
v 0.488953 0.837973 0.184683
v 0.477888 0.857720 0.183812
v 0.056252 0.590745 0.095913
v 0.073258 0.594054 0.085689
v 0.072473 0.586525 0.107039
v 0.496401 0.846428 0.202265
v 0.488922 0.828441 0.207665
v 0.489708 0.835970 0.186314
v 0.051229 0.593825 0.109625
v 0.070070 0.587999 0.113599
v 0.058520 0.603093 0.125924
v 0.492961 0.848538 0.211657
v 0.476466 0.844091 0.222462
v 0.488017 0.828997 0.210137
vn -0.5592 -0.6980 -0.4473
vn -0.6904 0.4477 -0.5683
vn -0.1419 -0.7037 -0.6962
vn -0.1630 0.4405 -0.8828
vn 0.3378 -0.7094 -0.6186
vn 0.4432 0.4332 -0.7848
vn 0.6554 -0.7124 -0.2508
vn 0.8445 0.4294 -0.3200
vn 0.6623 -0.7114 0.2351
vn 0.8532 0.4307 0.2941
vn 0.3552 -0.7068 0.6118
vn 0.4652 0.4365 0.7701
vn -0.1221 -0.7007 0.7029
vn -0.1379 0.4442 0.8852
vn -0.5463 -0.6960 0.4659
vn -0.6740 0.4501 0.5857
vn -0.7190 -0.6950 0.0116
vn -0.8922 0.4515 0.0117
vn -0.3277 -0.7811 -0.5316
vn -0.3938 0.6244 -0.6746
vn -0.7549 -0.2347 -0.6125
vn -0.1849 -0.2425 -0.9524
vn 0.0895 -0.7864 -0.6113
vn 0.1328 0.6177 -0.7752
vn 0.4701 -0.2503 -0.8464
vn 0.4604 -0.7904 -0.4041
vn 0.6008 0.6125 -0.5137
vn 0.9038 -0.2544 -0.3441
vn 0.6113 -0.7914 -0.0070
vn 0.7913 0.6113 -0.0125
vn 0.9132 -0.2530 0.3194
vn 0.4717 -0.7888 0.3942
vn 0.6151 0.6146 0.4939
vn 0.4939 -0.2467 0.8338
vn 0.1068 -0.7838 0.6118
vn 0.1546 0.6209 0.7685
vn -0.1579 -0.2384 0.9582
vn -0.3125 -0.7788 0.5439
vn -0.3746 0.6272 0.6828
vn -0.7372 -0.2320 0.6346
vn -0.5901 -0.7761 0.2224
vn -0.7250 0.6306 0.2770
vn -0.9730 -0.2306 0.0143
vn -0.5961 -0.7770 -0.2023
vn -0.7326 0.6295 -0.2591
vn -0.0123 -0.9999 0.0023
vn -0.5014 -0.2245 -0.8356
vn -0.9222 -0.2181 -0.3195
vn 0.0123 0.9999 -0.0023
vn 0.1526 -0.2328 -0.9605
vn 0.7339 -0.2392 -0.6357
vn 0.9705 -0.2407 -0.0132
vn 0.7517 -0.2365 0.6157
vn 0.1798 -0.2287 0.9567
vn -0.4775 -0.2209 0.8504
vn -0.9127 -0.2167 0.3464
vn 0.2177 -0.5182 0.8271
vn 0.1907 0.6451 0.7399
vn -0.3711 -0.5164 0.7717
vn -0.3214 0.6466 0.6918
vn -0.7867 -0.5080 0.3509
vn -0.6828 0.6539 0.3257
vn -0.8344 -0.4969 -0.2386
vn -0.7243 0.6636 -0.1869
vn -0.4920 -0.4883 -0.7208
vn -0.4265 0.6711 -0.6063
vn 0.0803 -0.4862 -0.8702
vn 0.0712 0.6729 -0.7363
vn 0.6148 -0.4916 -0.6168
vn 0.5361 0.6682 -0.5159
vn 0.8612 -0.5020 -0.0792
vn 0.7504 0.6592 -0.0483
vn 0.7044 -0.5125 0.4910
vn 0.6141 0.6500 0.4476
vn -0.0714 -0.6706 0.7384
vn -0.0605 0.7418 0.6679
vn 0.2500 0.1278 0.9598
vn -0.4237 0.1299 0.8964
vn -0.5375 -0.6659 0.5174
vn -0.4664 0.7459 0.4754
vn -0.8991 0.1395 0.4149
vn -0.7525 -0.6568 0.0485
vn -0.6536 0.7538 0.0671
vn -0.9537 0.1522 -0.2594
vn -0.6158 -0.6476 -0.4488
vn -0.5345 0.7618 -0.3659
vn -0.5620 0.1621 -0.8111
vn -0.1913 -0.6426 -0.7419
vn -0.1649 0.7662 -0.6211
vn 0.0928 0.1645 -0.9820
vn 0.3223 -0.6442 -0.6936
vn 0.2823 0.7648 -0.5791
vn 0.7042 0.1583 -0.6921
vn 0.6847 -0.6515 -0.3266
vn 0.5979 0.7584 -0.2595
vn 0.9862 0.1464 -0.0771
vn 0.7264 -0.6612 0.1875
vn 0.6341 0.7500 0.1882
vn 0.8068 0.1344 0.5753
vn 0.4277 -0.6688 0.6081
vn 0.3741 0.7434 0.5544
vn -0.0012 -0.9998 -0.0188
vn -0.0926 0.1191 0.9886
vn 0.5630 0.1215 0.8175
vn 0.0012 0.9998 0.0188
vn -0.7048 0.1253 0.6983
vn -0.9871 0.1372 0.0825
vn -0.8075 0.1492 -0.5707
vn -0.2500 0.1558 -0.9556
vn 0.4246 0.1538 -0.8922
vn 0.9006 0.1441 -0.4101
vn 0.9552 0.1314 0.2651
vn 0.7113 -0.2425 -0.6597
vn 0.7084 0.0008 -0.7058
vn 0.6947 0.0187 0.7191
vn 0.6918 0.2620 0.6729
vn -0.6918 -0.2620 -0.6729
vn -0.6947 -0.0187 -0.7191
vn -0.7084 -0.0008 0.7058
vn -0.7114 0.2425 0.6597
vn 0.9867 -0.1571 0.0417
vn 0.7154 -0.1218 -0.6880
vn 0.9826 0.1844 -0.0231
vn 0.6986 0.1414 0.7014
vn -0.0096 0.0125 0.9999
vn -0.0137 0.3540 0.9351
vn -0.7154 0.1218 0.6880
vn -0.9826 -0.1844 0.0231
vn -0.9867 0.1571 -0.0417
vn -0.6986 -0.1414 -0.7014
vn 0.0137 -0.3540 -0.9351
vn 0.0096 -0.0126 -0.9999
vn 0.0119 -0.9824 0.1863
vn 0.9999 0.0139 0.0094
vn 0.0119 -0.1861 -0.9825
vn -0.0119 0.9824 -0.1863
vn -0.0119 0.1861 0.9825
vn -0.9999 -0.0139 -0.0094
vn 0.7001 0.0667 -0.7109
vn 0.6586 0.3096 -0.6859
vn 0.7247 -0.0733 0.6851
vn 0.6832 0.1696 0.7102
vn -0.6832 -0.1696 -0.7102
vn -0.7247 0.0733 -0.6852
vn -0.6586 -0.3096 0.6859
vn -0.7001 -0.0667 0.7109
vn 0.9998 -0.0046 -0.0181
vn 0.6846 0.1896 -0.7038
vn 0.9416 0.3363 0.0171
vn 0.7094 0.0485 0.7031
vn 0.0464 -0.2687 0.9621
vn -0.0118 0.0722 0.9973
vn -0.6846 -0.1896 0.7038
vn -0.9416 -0.3363 -0.0171
vn -0.9998 0.0046 0.0181
vn -0.7094 -0.0485 -0.7031
vn 0.0118 -0.0722 -0.9973
vn -0.0464 0.2687 -0.9621
vn 0.1675 -0.9807 -0.1013
vn 0.9857 0.1684 -0.0005
vn -0.0176 0.0998 -0.9949
vn -0.1675 0.9807 0.1013
vn 0.0176 -0.0998 0.9949
vn -0.9857 -0.1684 0.0005
vn 0.6937 -0.1679 -0.7004
vn 0.7351 0.0748 -0.6739
vn 0.6479 -0.3123 0.6947
vn 0.6892 -0.0696 0.7212
vn -0.6892 0.0696 -0.7212
vn -0.6480 0.3123 -0.6947
vn -0.7351 -0.0748 0.6739
vn -0.6937 0.1679 0.7004
vn 0.9415 -0.3370 -0.0040
vn 0.7199 -0.0469 -0.6925
vn 0.9994 0.0037 0.0332
vn 0.6738 -0.1924 0.7135
vn -0.0611 -0.2717 0.9604
vn -0.0032 0.0690 0.9976
vn -0.7199 0.0469 0.6925
vn -0.9994 -0.0037 -0.0332
vn -0.9415 0.3370 0.0040
vn -0.6737 0.1924 -0.7135
vn 0.0032 -0.0690 -0.9976
vn 0.0611 0.2717 -0.9604
vn -0.1667 -0.9802 -0.1069
vn 0.9855 -0.1692 0.0148
vn 0.0326 0.1029 -0.9942
vn 0.1667 0.9802 0.1069
vn -0.0326 -0.1029 0.9942
vn -0.9855 0.1692 -0.0148
vn -0.9678 0.0093 0.2517
vn 0.0137 0.9998 0.0157
vn 0.9678 -0.0093 -0.2517
vn -0.0137 -0.9998 -0.0157
vn -0.7400 -0.0004 0.6726
vn 0.7401 0.0004 -0.6725
vn -0.3428 -0.0100 0.9394
vn 0.3428 0.0100 -0.9394
vn 0.1330 -0.0174 0.9910
vn -0.1330 0.0174 -0.9910
vn 0.5783 -0.0207 0.8156
vn -0.5783 0.0207 -0.8156
vn 0.8911 -0.0193 0.4533
vn -0.8911 0.0193 -0.4533
vn 0.9998 -0.0135 -0.0128
vn -0.9998 0.0135 0.0128
vn 0.8795 -0.0046 -0.4759
vn -0.8795 0.0046 0.4759
vn 0.5576 0.0054 -0.8301
vn -0.5576 -0.0054 0.8301
vn 0.1080 0.0141 -0.9940
vn -0.1080 -0.0141 0.9940
vn -0.3663 0.0196 -0.9303
vn 0.3663 -0.0196 0.9303
vn -0.7567 0.0206 -0.6534
vn 0.7567 -0.0206 0.6534
vn -0.9738 0.0169 -0.2269
vn 0.9738 -0.0169 0.2269
vn -0.0000 1.0000 -0.0000
vn -0.9690 0.0044 0.2472
vn -0.4585 -0.8887 -0.0000
vn -0.0000 -1.0000 -0.0000
vn -0.0000 -0.9995 -0.0312
vn -0.0808 -0.9967 -0.0000
vn -0.0000 1.0000 -0.0010
vn -0.6898 -0.0000 -0.7240
vn -0.0000 -1.0000 -0.0059
vn 0.9829 0.1843 0.0011
vn -0.0000 1.0000 0.0078
vn -0.0000 -0.0000 -1.0000
vn -0.8944 -0.4472 -0.0035
vn -0.0000 0.9999 0.0156
vn 0.2425 0.9701 -0.0000
vn -0.1921 -0.0000 0.9814
vn 0.6417 -0.0000 0.7670
vn -0.0000 1.0000 -0.0039
vn -0.1046 -0.9437 -0.3138
vn -0.6794 -0.6743 -0.2894
vn 0.2360 -0.9524 -0.1932
vn 0.2264 -0.9594 0.1680
vn -0.1201 -0.9552 0.2706
vn -0.8952 -0.3334 -0.2959
vn -0.0062 -0.3367 -0.9416
vn 0.8823 -0.3659 -0.2960
vn 0.5425 -0.3807 0.7488
vn -0.5560 -0.3606 0.7489
vn -0.7881 -0.1098 -0.6057
vn 0.3285 -0.1236 -0.9364
vn 0.9877 -0.1549 0.0232
vn 0.2785 -0.1605 0.9469
vn -0.8190 -0.1327 0.5583
vn -0.3647 0.7113 -0.6009
vn 0.4809 0.6945 -0.5352
vn 0.6794 0.6743 0.2894
vn -0.0435 0.6786 0.7332
vn -0.6888 0.7014 0.1830
vn -0.2360 0.9524 0.1932
vn -0.4590 0.8200 0.3421
vn -0.3968 0.6875 0.6081
vn 0.1046 0.9437 0.3138
vn 0.1780 0.8038 0.5677
vn 0.4512 0.6725 0.5867
vn 0.3246 0.9454 0.0272
vn 0.5897 0.8070 0.0315
vn 0.6931 0.6844 -0.2263
vn 0.1201 0.9552 -0.2706
vn 0.2071 0.8252 -0.5255
vn -0.0053 0.7068 -0.7074
vn -0.2264 0.9594 -0.1680
vn -0.4410 0.8332 -0.3335
vn -0.6789 0.7088 -0.1916
vn -0.8823 0.3659 0.2960
vn -0.8033 0.2068 0.5586
vn -0.5819 0.3516 0.7333
vn 0.0062 0.3367 0.9416
vn 0.2814 0.1792 0.9427
vn 0.5152 0.3304 0.7908
vn 0.8952 0.3334 0.2959
vn 0.9823 0.1848 0.0297
vn 0.9092 0.3438 -0.2347
vn 0.5560 0.3606 -0.7489
vn 0.3308 0.2158 -0.9187
vn 0.0558 0.3733 -0.9260
vn -0.5425 0.3807 -0.7488
vn -0.7727 0.2294 -0.5918
vn -0.8658 0.3782 -0.3277
vn -0.3285 0.1236 0.9364
vn -0.3308 -0.2158 0.9187
vn -0.0558 -0.3733 0.9260
vn 0.7881 0.1098 0.6057
vn 0.7727 -0.2294 0.5918
vn 0.8658 -0.3782 0.3277
vn 0.8190 0.1327 -0.5583
vn 0.8033 -0.2068 -0.5586
vn 0.5819 -0.3516 -0.7333
vn -0.2785 0.1605 -0.9469
vn -0.2814 -0.1792 -0.9427
vn -0.5152 -0.3304 -0.7908
vn -0.9877 0.1549 -0.0232
vn -0.9823 -0.1848 -0.0297
vn -0.9092 -0.3438 0.2347
vn -0.4809 -0.6945 0.5352
vn -0.2071 -0.8252 0.5255
vn 0.0053 -0.7068 0.7074
vn 0.3647 -0.7113 0.6009
vn 0.4410 -0.8332 0.3335
vn 0.6789 -0.7088 0.1916
vn 0.6888 -0.7014 -0.1830
vn 0.4590 -0.8200 -0.3421
vn 0.3968 -0.6875 -0.6081
vn -0.6931 -0.6844 0.2263
vn -0.5897 -0.8070 -0.0315
vn -0.3246 -0.9454 -0.0272
vn 0.0435 -0.6786 -0.7332
vn -0.1781 -0.8038 -0.5677
vn -0.4512 -0.6725 -0.5867
vn -0.0613 -0.9329 -0.3549
vn -0.7193 -0.6238 -0.3057
vn 0.3802 -0.9054 -0.1889
vn 0.3580 -0.8898 0.2828
vn -0.0971 -0.9077 0.4083
vn -0.8952 -0.3247 -0.3052
vn 0.0331 -0.3022 -0.9527
vn 0.9339 -0.2340 -0.2704
vn 0.5622 -0.2145 0.7987
vn -0.5682 -0.2705 0.7772
vn -0.7707 -0.1604 -0.6167
vn 0.3560 -0.1163 -0.9272
vn 0.9975 -0.0505 0.0485
vn 0.2673 -0.0539 0.9621
vn -0.8256 -0.1219 0.5510
vn -0.4406 0.5307 -0.7240
vn 0.5140 0.5806 -0.6314
vn 0.7193 0.6238 0.3057
vn -0.1083 0.6005 0.7923
vn -0.8252 0.5430 0.1558
vn -0.3802 0.9054 0.1889
vn -0.6118 0.7071 0.3545
vn -0.5048 0.5758 0.6431
vn 0.0613 0.9329 0.3549
vn 0.1468 0.7543 0.6399
vn 0.4544 0.6225 0.6372
vn 0.3563 0.9343 -0.0141
vn 0.6537 0.7567 0.0057
vn 0.7467 0.6045 -0.2774
vn 0.0971 0.9077 -0.4083
vn 0.2084 0.7110 -0.6716
vn -0.0318 0.5467 -0.8367
vn -0.3580 0.8898 -0.2828
vn -0.5737 0.6804 -0.4560
vn -0.8053 0.5290 -0.2678
vn -0.9339 0.2340 0.2704
vn -0.8325 0.1296 0.5386
vn -0.6339 0.2648 0.7267
vn -0.0331 0.3022 0.9527
vn 0.2533 0.1971 0.9471
vn 0.4938 0.3228 0.8075
vn 0.8952 0.3247 0.3052
vn 0.9789 0.2006 0.0394
vn 0.9209 0.3067 -0.2408
vn 0.5682 0.2705 -0.7772
vn 0.3415 0.1352 -0.9301
vn 0.0572 0.2387 -0.9694
vn -0.5622 0.2145 -0.7987
vn -0.7780 0.0913 -0.6216
vn -0.9037 0.2128 -0.3715
vn -0.3560 0.1163 0.9272
vn -0.3415 -0.1352 0.9301
vn -0.0572 -0.2387 0.9694
vn 0.7707 0.1604 0.6167
vn 0.7780 -0.0913 0.6216
vn 0.9037 -0.2128 0.3715
vn 0.8256 0.1219 -0.5510
vn 0.8325 -0.1296 -0.5386
vn 0.6339 -0.2648 -0.7267
vn -0.2673 0.0539 -0.9621
vn -0.2533 -0.1971 -0.9471
vn -0.4938 -0.3228 -0.8075
vn -0.9975 0.0505 -0.0485
vn -0.9789 -0.2006 -0.0394
vn -0.9209 -0.3067 0.2408
vn -0.5140 -0.5806 0.6314
vn -0.2084 -0.7110 0.6716
vn 0.0318 -0.5467 0.8367
vn 0.4406 -0.5307 0.7240
vn 0.5737 -0.6804 0.4560
vn 0.8053 -0.5290 0.2678
vn 0.8252 -0.5430 -0.1558
vn 0.6118 -0.7071 -0.3545
vn 0.5048 -0.5758 -0.6431
vn -0.7467 -0.6045 0.2774
vn -0.6537 -0.7567 -0.0057
vn -0.3563 -0.9343 0.0141
vn 0.1083 -0.6005 -0.7923
vn -0.1468 -0.7543 -0.6399
vn -0.4544 -0.6225 -0.6372
vn 0.4085 0.0045 -0.9127
vn 0.1959 0.3609 -0.9118
vn 0.4073 -0.0011 0.9133
vn 0.1946 0.3553 0.9143
vn -0.1946 -0.3553 -0.9143
vn -0.4073 0.0011 -0.9133
vn -0.1959 -0.3609 0.9118
vn -0.4085 -0.0045 0.9127
vn 1.0000 0.0042 0.0007
vn 0.3089 0.1868 -0.9326
vn 0.4787 0.8780 0.0030
vn 0.3076 0.1811 0.9341
vn 0.1129 -0.1933 0.9746
vn -0.1142 0.1874 0.9756
vn -0.3089 -0.1868 0.9326
vn -0.4787 -0.8780 -0.0030
vn -1.0000 -0.0042 -0.0007
vn -0.3076 -0.1811 -0.9341
vn 0.1142 -0.1874 -0.9756
vn -0.1129 0.1933 -0.9746
vn 0.5123 -0.8588 -0.0023
vn 0.8588 0.5123 0.0021
vn 0.0007 0.0030 -1.0000
vn -0.5123 0.8588 0.0023
vn -0.0007 -0.0030 1.0000
vn -0.8588 -0.5123 -0.0021
vn -0.8335 0.1245 0.5384
vn 0.0944 0.6499 0.7541
vn -0.7992 0.4535 -0.3946
vn 0.1285 0.9766 -0.1723
vn -0.2944 -0.2061 -0.9332
vn 0.6297 0.3217 -0.7071
vn -0.0168 -0.9428 -0.3331
vn 0.9054 -0.4098 -0.1112
vn -0.3499 -0.7384 0.5764
vn 0.5745 -0.2070 0.7919
vn -0.9718 0.2313 0.0458
vn 0.2333 0.9143 0.3310
vn -0.4384 0.4625 0.7706
vn -0.3977 0.8532 -0.3374
vn -0.6912 0.0592 -0.7203
vn 0.5121 0.7433 -0.4303
vn 0.2017 0.0700 -0.9769
vn -0.2839 -0.6677 -0.6882
vn 0.9169 0.0209 -0.3985
vn 0.5314 -0.8048 -0.2643
vn -0.3128 -0.9448 0.0977
vn 0.8882 -0.2545 0.3825
vn 0.1358 -0.5622 0.8158
vn -0.7379 -0.3892 0.5514
vn 0.4657 0.2977 0.8334
vn -0.8505 -0.4855 -0.2025
vn -0.5196 0.8116 0.2671
vn -0.1899 -0.0632 0.9798
vn 0.8505 0.4855 0.2025
vn -0.1239 0.5690 -0.8130
vn 0.4503 -0.4558 -0.7678
vn 0.4095 -0.8465 0.3402
vn 0.0895 -0.7864 -0.6112
vn -0.3746 0.6272 0.6829
vn 0.0096 -0.0125 -0.9999
vn 0.7199 -0.0469 -0.6924
vn 0.6737 -0.1924 0.7135
vn -0.6738 0.1924 -0.7135
vn -0.7401 -0.0004 0.6726
vn 0.7401 0.0004 -0.6726
vn -0.4071 0.9125 0.0396
vn 0.1406 0.4955 0.8571
vn -0.4032 0.9151 -0.0000
vn 1.0000 -0.0000 -0.0000
vn -0.7741 0.6331 -0.0000
vn -1.0000 -0.0000 -0.0000
vn -0.0000 -0.9988 -0.0499
vn -0.5118 0.8574 0.0541
vn 0.0807 -0.9967 -0.0000
vn 0.0808 -0.9967 -0.0000
vn -0.5116 0.8591 -0.0141
vn -0.0000 -1.0000 0.0023
vn -0.4096 0.9123 -0.0011
vn 0.8755 0.4831 0.0078
vn 0.9992 -0.0406 -0.0006
vn -0.1195 -0.9928 -0.0079
vn 0.3975 0.9176 0.0099
vn -0.0000 0.9964 -0.0847
vn 0.9896 -0.1437 0.0117
vn -0.8818 -0.0000 0.4716
vn -0.3645 -0.0000 0.9312
vn 0.4155 0.9096 -0.0000
vn -0.9117 -0.4108 0.0055
vn 0.4193 0.9078 0.0047
vn 0.5122 0.7433 -0.4303
vn 0.8882 -0.2545 0.3826
vn -0.7379 -0.3892 0.5513
vt 0.750000 0.481873
vt 0.743397 0.487597
vt 0.756603 0.487597
vt 0.250000 0.482227
vt 0.257437 0.487226
vt 0.242563 0.487226
vt 0.899045 0.427625
vt 0.897666 0.436254
vt 0.907783 0.427765
vt 0.399273 0.427896
vt 0.408183 0.426945
vt 0.396789 0.436506
vt 0.978351 0.290264
vt 0.982840 0.297761
vt 0.985134 0.284755
vt 0.478699 0.290326
vt 0.484914 0.283869
vt 0.482331 0.298518
vt 0.950808 0.134063
vt 0.959066 0.136920
vt 0.952463 0.125483
vt 0.451114 0.133887
vt 0.451725 0.124946
vt 0.459162 0.137828
vt 0.829305 0.032110
vt 0.837468 0.028991
vt 0.825058 0.024474
vt 0.329426 0.031778
vt 0.324147 0.024537
vt 0.338125 0.029624
vt 0.670695 0.032110
vt 0.674942 0.024474
vt 0.662532 0.028991
vt 0.170574 0.031778
vt 0.161875 0.029624
vt 0.175853 0.024537
vt 0.549192 0.134063
vt 0.547537 0.125483
vt 0.540934 0.136920
vt 0.048886 0.133887
vt 0.040838 0.137828
vt 0.048275 0.124946
vt 0.521649 0.290264
vt 0.514866 0.284755
vt 0.517160 0.297761
vt 0.021301 0.290326
vt 0.017669 0.298518
vt 0.015086 0.283869
vt 0.600955 0.427625
vt 0.592217 0.427765
vt 0.602334 0.436254
vt 0.100727 0.427896
vt 0.103211 0.436506
vt 0.091817 0.426945
vt 0.005109 0.585181
vt 0.000000 0.907753
vt 0.000000 0.578115
vt 0.883865 0.914819
vt 0.893998 0.585181
vt 0.893913 0.914819
vt 0.772669 0.585181
vt 0.782802 0.914819
vt 0.772754 0.914819
vt 0.661642 0.914819
vt 0.671775 0.585181
vt 0.671691 0.914819
vt 0.550532 0.914819
vt 0.560664 0.585181
vt 0.560580 0.914819
vt 0.439420 0.914819
vt 0.449553 0.585181
vt 0.449468 0.914819
vt 0.328225 0.585181
vt 0.338357 0.914819
vt 0.328309 0.914819
vt 0.217113 0.585181
vt 0.227246 0.914819
vt 0.217198 0.914819
vt 0.106002 0.585181
vt 0.116135 0.914819
vt 0.106087 0.914819
vt 0.994976 0.914819
vt 0.994891 0.585181
vt 0.883780 0.585181
vt 0.782887 0.585181
vt 0.661558 0.585181
vt 0.550447 0.585181
vt 0.338442 0.585181
vt 0.439336 0.585181
vt 0.227331 0.585181
vt 0.116220 0.585181
vt 0.750000 0.481061
vt 0.741719 0.486933
vt 0.758281 0.486933
vt 0.250000 0.479326
vt 0.258965 0.486737
vt 0.241035 0.486737
vt 0.898523 0.427003
vt 0.895954 0.436824
vt 0.908641 0.426178
vt 0.397408 0.425674
vt 0.409039 0.425588
vt 0.395304 0.437114
vt 0.977551 0.290123
vt 0.981895 0.299298
vt 0.984771 0.282988
vt 0.475842 0.289822
vt 0.484697 0.282280
vt 0.481584 0.299938
vt 0.950104 0.134470
vt 0.959330 0.138705
vt 0.951049 0.124362
vt 0.448603 0.135337
vt 0.450538 0.123868
vt 0.459503 0.139396
vt 0.829027 0.032874
vt 0.838817 0.030188
vt 0.823254 0.024524
vt 0.328434 0.034504
vt 0.322544 0.024474
vt 0.339393 0.030606
vt 0.670973 0.032874
vt 0.676746 0.024524
vt 0.661182 0.030188
vt 0.171566 0.034504
vt 0.160607 0.030606
vt 0.177456 0.024474
vt 0.549895 0.134470
vt 0.548951 0.124362
vt 0.540670 0.138705
vt 0.051397 0.135337
vt 0.040497 0.139396
vt 0.049462 0.123868
vt 0.522449 0.290123
vt 0.515229 0.282988
vt 0.518105 0.299298
vt 0.024158 0.289822
vt 0.018416 0.299938
vt 0.015303 0.282280
vt 0.601477 0.427003
vt 0.591359 0.426178
vt 0.604046 0.436824
vt 0.102592 0.425674
vt 0.104696 0.437114
vt 0.090961 0.425588
vt 0.006630 0.984242
vt 0.000000 0.516546
vt 0.005821 0.515758
vt 0.883068 0.515758
vt 0.895519 0.984242
vt 0.882259 0.984242
vt 0.771957 0.515758
vt 0.784408 0.984242
vt 0.771148 0.984242
vt 0.660846 0.515758
vt 0.673297 0.984242
vt 0.660036 0.984242
vt 0.549735 0.515758
vt 0.562186 0.984242
vt 0.548925 0.984242
vt 0.438624 0.515758
vt 0.451075 0.984242
vt 0.437814 0.984242
vt 0.327513 0.515758
vt 0.339964 0.984242
vt 0.326703 0.984242
vt 0.216402 0.515758
vt 0.228853 0.984242
vt 0.215592 0.984242
vt 0.105291 0.515758
vt 0.117741 0.984242
vt 0.104481 0.984242
vt 0.994179 0.515758
vt 0.894709 0.515758
vt 0.783598 0.515758
vt 0.672487 0.515758
vt 0.561376 0.515758
vt 0.450265 0.515758
vt 0.339154 0.515758
vt 0.228043 0.515758
vt 0.116932 0.515758
vt 0.128500 0.746500
vt 0.128500 0.750000
vt 0.125000 0.746500
vt 0.621500 0.996500
vt 0.625000 0.996500
vt 0.621500 1.000000
vt 0.128500 0.503500
vt 0.125000 0.503500
vt 0.128500 0.500000
vt 0.625000 0.250015
vt 0.621500 0.253500
vt 0.621500 0.246501
vt 0.371500 0.746500
vt 0.378499 0.746500
vt 0.378362 0.753431
vt 0.628431 0.746638
vt 0.621500 0.753500
vt 0.621500 0.746501
vt 0.371500 0.503500
vt 0.378362 0.496569
vt 0.378499 0.503500
vt 0.628431 0.503363
vt 0.621500 0.503500
vt 0.621500 0.496501
vt 0.621500 0.000000
vt 0.378500 0.003500
vt 0.378500 0.000000
vt 0.625000 0.003500
vt 0.621500 0.003500
vt 0.378500 0.246500
vt 0.378500 0.996500
vt 0.871500 0.503500
vt 0.378500 0.253500
vt 0.628431 0.503363
vt 0.871500 0.746500
vt 0.128500 0.746500
vt 0.621500 0.246501
vt 0.621500 0.496501
vt 0.615385 0.375000
vt 0.538462 0.625000
vt 0.538462 0.375000
vt 0.615385 0.625000
vt 0.538462 0.875000
vt 0.538462 0.625000
vt 0.538462 0.000000
vt 0.615385 0.125000
vt 0.538462 0.125000
vt 0.615385 0.125000
vt 0.538462 0.125000
vt 0.692308 0.375000
vt 0.615385 0.625000
vt 0.692308 0.875000
vt 0.615385 0.875000
vt 0.615385 0.000000
vt 0.692308 0.125000
vt 0.692308 0.125000
vt 0.615385 0.375000
vt 0.769231 0.375000
vt 0.692308 0.625000
vt 0.769231 0.625000
vt 0.692308 0.625000
vt 0.769231 0.000000
vt 0.692308 0.000000
vt 0.769231 0.125000
vt 0.692308 0.375000
vt 0.846154 0.375000
vt 0.769231 0.625000
vt 0.846154 0.875000
vt 0.769231 0.875000
vt 0.846154 0.000000
vt 0.769231 0.125000
vt 0.846154 0.125000
vt 0.769231 0.375000
vt 0.923077 0.375000
vt 0.846154 0.625000
vt 0.923077 0.625000
vt 0.846154 0.625000
vt 0.923077 0.125000
vt 0.846154 0.125000
vt 0.923077 0.125000
vt 0.846154 0.375000
vt 1.000000 0.625000
vt 0.923077 0.625000
vt 1.000000 0.875000
vt 0.923077 0.875000
vt 0.923077 0.000000
vt 1.000000 0.125000
vt 1.000000 0.125000
vt 0.923077 0.375000
vt -0.000000 0.375000
vt 0.076923 0.625000
vt -0.000000 0.625000
vt 0.076923 0.625000
vt -0.000000 0.875000
vt -0.000000 0.625000
vt 0.076923 0.000000
vt -0.000000 0.125000
vt -0.000000 0.000000
vt 0.076923 0.375000
vt -0.000000 0.375000
vt 0.153846 0.375000
vt 0.076923 0.375000
vt 0.153846 0.875000
vt 0.076923 0.875000
vt 0.153846 0.125000
vt 0.076923 0.125000
vt 0.153846 0.125000
vt 0.076923 0.125000
vt 0.230769 0.625000
vt 0.153846 0.625000
vt 0.230769 0.625000
vt 0.153846 0.625000
vt 0.153846 0.000000
vt 0.230769 0.125000
vt 0.230769 0.125000
vt 0.153846 0.375000
vt 0.307692 0.375000
vt 0.230769 0.375000
vt 0.307692 0.875000
vt 0.230769 0.875000
vt 0.307692 0.000000
vt 0.230769 0.000000
vt 0.307692 0.125000
vt 0.230769 0.375000
vt 0.384615 0.625000
vt 0.307692 0.625000
vt 0.384615 0.625000
vt 0.307692 0.625000
vt 0.384615 0.125000
vt 0.307692 0.125000
vt 0.384615 0.375000
vt 0.307692 0.375000
vt 0.384615 0.375000
vt 0.461538 0.625000
vt 0.461538 0.625000
vt 0.384615 0.875000
vt 0.461538 0.000000
vt 0.384615 0.000000
vt 0.461539 0.125000
vt 0.384615 0.125000
vt 0.461538 0.375000
vt 0.461538 0.875000
vt 0.461538 0.375000
vt 0.615385 0.875000
vt 0.538462 0.875000
vt 0.461538 0.125000
vt 0.692308 0.875000
vt 0.769231 0.875000
vt 0.846154 0.875000
vt 0.923077 0.875000
vt 1.000000 0.375000
vt 1.000000 0.875000
vt 0.076923 0.875000
vt 0.153846 0.875000
vt 0.230769 0.875000
vt 0.307692 0.875000
vt 0.384615 0.875000
vt 0.181819 0.000000
vt 0.227273 0.078731
vt 0.136365 0.078731
vt 0.272728 0.157461
vt 0.318182 0.078731
vt 0.363637 0.157461
vt 0.909091 0.000000
vt 0.954545 0.078731
vt 0.863636 0.078731
vt 0.727273 0.000000
vt 0.772727 0.078731
vt 0.681818 0.078731
vt 0.545455 0.000000
vt 0.590909 0.078731
vt 0.500000 0.078731
vt 0.318182 0.236191
vt 0.090910 0.157461
vt 0.181819 0.157461
vt 0.136365 0.236191
vt 0.818182 0.157461
vt 0.909091 0.157461
vt 0.863636 0.236191
vt 0.636364 0.157461
vt 0.727273 0.157461
vt 0.681818 0.236191
vt 0.454546 0.157461
vt 0.545455 0.157461
vt 0.500000 0.236191
vt 0.227273 0.236191
vt 0.045455 0.236191
vt 0.772727 0.236191
vt 0.590909 0.236191
vt 0.409092 0.236191
vt 0.181819 0.314921
vt 0.272728 0.314921
vt 0.227273 0.393651
vt 0.000000 0.314921
vt 0.090910 0.314921
vt 0.045455 0.393651
vt 0.727273 0.314921
vt 0.818182 0.314921
vt 0.772727 0.393651
vt 0.545455 0.314921
vt 0.636364 0.314921
vt 0.590909 0.393651
vt 0.363637 0.314921
vt 0.454546 0.314921
vt 0.409092 0.393651
vt 0.500000 0.393651
vt 0.454546 0.472382
vt 0.681818 0.393651
vt 0.636364 0.472382
vt 0.863636 0.393651
vt 0.818182 0.472382
vt 0.909091 0.314921
vt 0.136365 0.393651
vt 0.090910 0.472382
vt 0.318182 0.393651
vt 0.272728 0.472382
vt 0.954545 0.236191
vt 1.000000 0.157461
vt 0.409092 0.078731
vt 0.363637 0.000000
vt 0.750000 0.351560
vt 0.659169 0.423608
vt 0.840831 0.423608
vt 0.250000 0.330262
vt 0.354078 0.414383
vt 0.145922 0.414383
vt 0.846590 0.281384
vt 0.887043 0.390033
vt 0.943179 0.217263
vt 0.326334 0.274802
vt 0.438499 0.201813
vt 0.374175 0.399781
vt 0.809696 0.167836
vt 0.925528 0.162937
vt 0.778561 0.056159
vt 0.297177 0.185067
vt 0.262421 0.055836
vt 0.430823 0.178187
vt 0.690304 0.167836
vt 0.721439 0.056159
vt 0.574472 0.162937
vt 0.202823 0.185067
vt 0.069177 0.178187
vt 0.237579 0.055836
vt 0.653410 0.281384
vt 0.556821 0.217263
vt 0.612957 0.390033
vt 0.173666 0.274802
vt 0.125825 0.399781
vt 0.061501 0.201813
vt 0.091220 0.986539
vt 0.000000 0.513522
vt 0.079706 0.513461
vt 0.720294 0.513461
vt 0.891220 0.986539
vt 0.708780 0.986539
vt 0.520294 0.513461
vt 0.691220 0.986539
vt 0.508780 0.986539
vt 0.320294 0.513461
vt 0.491220 0.986539
vt 0.308780 0.986539
vt 0.108780 0.986539
vt 0.279706 0.513461
vt 0.291220 0.986539
vt 0.908780 0.986539
vt 0.879706 0.513461
vt 0.920294 0.513461
vt 0.120294 0.513461
vt 0.679706 0.513461
vt 0.479706 0.513461
vt 0.005024 0.914819
vt 0.000000 0.985030
vt 0.993370 0.984242
vt 1.000000 0.000000
vt 1.000000 0.375000
vt 0.000000 0.986600
s 0
usemtl stone
f 1/1/1 2/2/1 3/3/1
f 4/4/2 5/5/2 6/6/2
f 7/7/3 8/8/3 9/9/3
f 10/10/4 11/11/4 12/12/4
f 13/13/5 14/14/5 15/15/5
f 16/16/6 17/17/6 18/18/6
f 19/19/7 20/20/7 21/21/7
f 22/22/8 23/23/8 24/24/8
f 25/25/9 26/26/9 27/27/9
f 28/28/10 29/29/10 30/30/10
f 31/31/11 32/32/11 33/33/11
f 34/34/12 35/35/12 36/36/12
f 37/37/13 38/38/13 39/39/13
f 40/40/14 41/41/14 42/42/14
f 43/43/15 44/44/15 45/45/15
f 46/46/16 47/47/16 48/48/16
f 49/49/17 50/50/17 51/51/17
f 52/52/18 53/53/18 54/54/18
f 8/8/19 1/1/19 3/3/19
f 5/5/20 10/10/20 12/12/20
f 2/55/21 5/56/21 3/57/21
f 11/58/22 8/59/22 12/60/22
f 14/14/23 7/7/23 9/9/23
f 18/18/24 10/10/24 16/16/24
f 15/61/25 18/62/25 17/63/25
f 20/20/26 13/13/26 15/15/26
f 17/17/27 22/22/27 24/24/27
f 23/64/28 20/65/28 24/66/28
f 26/26/29 19/19/29 21/21/29
f 30/30/30 22/22/30 28/28/30
f 29/67/31 26/68/31 30/69/31
f 32/32/32 25/25/32 27/27/32
f 29/29/33 34/34/33 36/36/33
f 35/70/34 32/71/34 36/72/34
f 33/33/35 37/37/35 31/31/35
f 35/35/36 40/40/36 42/42/36
f 39/73/37 42/74/37 41/75/37
f 39/39/38 43/43/38 37/37/38
f 41/41/39 46/46/39 48/48/39
f 45/76/40 48/77/40 47/78/40
f 45/45/41 49/49/41 43/43/41
f 47/47/42 52/52/42 54/54/42
f 51/79/43 54/80/43 53/81/43
f 2/2/44 49/49/44 51/51/44
f 53/53/45 4/4/45 6/6/45
f 7/7/46 31/31/46 43/43/46
f 5/82/47 8/59/47 3/83/47
f 53/81/48 2/55/48 51/79/48
f 4/4/49 34/34/49 22/22/49
f 9/84/50 18/62/50 14/85/50
f 17/63/51 20/65/51 15/61/51
f 23/64/52 26/68/52 21/86/52
f 29/67/53 32/71/53 27/87/53
f 35/70/54 38/88/54 33/89/54
f 41/75/55 44/90/55 39/73/55
f 47/78/56 50/91/56 45/76/56
f 8/8/19 7/7/19 1/1/19
f 5/5/20 4/4/20 10/10/20
f 2/55/21 6/453/21 5/56/21
f 11/58/22 9/84/22 8/59/22
f 14/14/455 13/13/455 7/7/455
f 18/18/24 11/11/24 10/10/24
f 15/61/25 14/85/25 18/62/25
f 20/20/26 19/19/26 13/13/26
f 17/17/27 16/16/27 22/22/27
f 23/64/28 21/86/28 20/65/28
f 26/26/29 25/25/29 19/19/29
f 30/30/30 23/23/30 22/22/30
f 29/67/31 27/87/31 26/68/31
f 32/32/32 31/31/32 25/25/32
f 29/29/33 28/28/33 34/34/33
f 35/70/34 33/89/34 32/71/34
f 33/33/35 38/38/35 37/37/35
f 35/35/36 34/34/36 40/40/36
f 39/73/37 38/88/37 42/74/37
f 39/39/38 44/44/38 43/43/38
f 41/41/456 40/40/456 46/46/456
f 45/76/40 44/90/40 48/77/40
f 45/45/41 50/50/41 49/49/41
f 47/47/42 46/46/42 52/52/42
f 51/79/43 50/91/43 54/80/43
f 2/2/44 1/1/44 49/49/44
f 53/53/45 52/52/45 4/4/45
f 49/49/46 1/1/46 7/7/46
f 7/7/46 13/13/46 19/19/46
f 19/19/46 25/25/46 31/31/46
f 31/31/46 37/37/46 43/43/46
f 43/43/46 49/49/46 7/7/46
f 7/7/46 19/19/46 31/31/46
f 5/82/47 12/60/47 8/59/47
f 53/81/48 6/453/48 2/55/48
f 16/16/49 10/10/49 4/4/49
f 4/4/49 52/52/49 46/46/49
f 46/46/49 40/40/49 34/34/49
f 34/34/49 28/28/49 22/22/49
f 22/22/49 16/16/49 4/4/49
f 4/4/49 46/46/49 34/34/49
f 9/84/50 11/58/50 18/62/50
f 17/63/51 24/66/51 20/65/51
f 23/64/52 30/69/52 26/68/52
f 29/67/53 36/72/53 32/71/53
f 35/70/54 42/74/54 38/88/54
f 41/75/55 48/77/55 44/90/55
f 47/78/56 54/80/56 50/91/56
usemtl wood
f 55/92/57 56/93/57 57/94/57
f 58/95/58 59/96/58 60/97/58
f 61/98/59 62/99/59 63/100/59
f 64/101/60 65/102/60 66/103/60
f 67/104/61 68/105/61 69/106/61
f 70/107/62 71/108/62 72/109/62
f 73/110/63 74/111/63 75/112/63
f 76/113/64 77/114/64 78/115/64
f 79/116/65 80/117/65 81/118/65
f 82/119/66 83/120/66 84/121/66
f 85/122/67 86/123/67 87/124/67
f 88/125/68 89/126/68 90/127/68
f 91/128/69 92/129/69 93/130/69
f 94/131/70 95/132/70 96/133/70
f 97/134/71 98/135/71 99/136/71
f 100/137/72 101/138/72 102/139/72
f 103/140/73 104/141/73 105/142/73
f 106/143/74 107/144/74 108/145/74
f 62/99/75 55/92/75 57/94/75
f 59/96/76 64/101/76 66/103/76
f 60/146/77 57/147/77 56/148/77
f 63/149/78 66/150/78 65/151/78
f 68/105/79 61/98/79 63/100/79
f 65/102/80 70/107/80 72/109/80
f 69/152/81 72/153/81 71/154/81
f 74/111/82 67/104/82 69/106/82
f 78/115/83 70/107/83 76/113/83
f 75/155/84 78/156/84 77/157/84
f 75/112/85 79/116/85 73/110/85
f 84/121/86 76/113/86 82/119/86
f 81/158/87 84/159/87 83/160/87
f 86/123/88 79/116/88 81/118/88
f 83/120/89 88/125/89 90/127/89
f 87/161/90 90/162/90 89/163/90
f 92/129/91 85/122/91 87/124/91
f 96/133/92 88/125/92 94/131/92
f 93/164/93 96/165/93 95/166/93
f 98/135/94 91/128/94 93/130/94
f 95/132/95 100/137/95 102/139/95
f 99/167/96 102/168/96 101/169/96
f 104/141/97 97/134/97 99/136/97
f 101/138/98 106/143/98 108/145/98
f 105/170/99 108/171/99 107/172/99
f 105/142/100 55/92/100 103/140/100
f 107/144/101 58/95/101 60/97/101
f 61/98/102 85/122/102 97/134/102
f 57/173/103 66/150/103 62/174/103
f 105/170/104 60/146/104 56/148/104
f 58/95/105 88/125/105 76/113/105
f 65/151/106 68/175/106 63/149/106
f 69/152/107 78/156/107 74/176/107
f 77/157/108 80/177/108 75/155/108
f 83/160/109 86/178/109 81/158/109
f 89/163/110 92/179/110 87/161/110
f 95/166/111 98/180/111 93/164/111
f 99/167/112 108/171/112 104/181/112
f 393/402/423 394/403/423 395/404/423
f 396/405/424 397/406/424 398/407/424
f 399/408/425 400/409/425 401/410/425
f 402/411/426 403/412/426 404/413/426
f 405/414/427 406/415/427 407/416/427
f 408/417/428 409/418/428 410/419/428
f 411/420/429 412/421/429 413/422/429
f 414/423/430 415/424/430 416/425/430
f 417/426/431 418/427/431 419/428/431
f 420/429/432 421/430/432 422/431/432
f 400/409/433 393/402/433 395/404/433
f 397/406/434 402/411/434 404/413/434
f 398/432/435 395/433/435 394/434/435
f 401/435/436 404/436/436 403/437/436
f 401/410/437 405/414/437 399/408/437
f 403/412/438 408/417/438 410/419/438
f 407/438/439 410/439/439 409/440/439
f 412/421/440 405/414/440 407/416/440
f 416/425/441 408/417/441 414/423/441
f 413/441/442 416/442/442 415/443/442
f 413/422/443 417/426/443 411/420/443
f 422/431/444 414/423/444 420/429/444
f 421/444/445 418/445/445 422/446/445
f 394/403/446 417/426/446 419/428/446
f 421/430/447 396/405/447 398/407/447
f 399/408/448 411/420/448 417/426/448
f 397/447/449 400/448/449 395/449/449
f 421/444/450 394/434/450 419/450/450
f 396/405/451 414/423/451 408/417/451
f 403/437/452 406/451/452 401/435/452
f 407/438/453 416/442/453 412/452/453
f 415/443/454 418/445/454 413/441/454
f 62/99/75 61/98/75 55/92/75
f 59/96/76 58/95/76 64/101/76
f 60/146/77 59/454/77 57/147/77
f 63/149/78 62/174/78 66/150/78
f 68/105/79 67/104/79 61/98/79
f 65/102/80 64/101/80 70/107/80
f 69/152/81 68/175/81 72/153/81
f 74/111/82 73/110/82 67/104/82
f 78/115/83 71/108/83 70/107/83
f 75/155/84 74/176/84 78/156/84
f 75/112/85 80/117/85 79/116/85
f 84/121/86 77/114/86 76/113/86
f 81/158/87 80/177/87 84/159/87
f 86/123/88 85/122/88 79/116/88
f 83/120/89 82/119/89 88/125/89
f 87/161/90 86/178/90 90/162/90
f 92/129/91 91/128/91 85/122/91
f 96/133/92 89/126/92 88/125/92
f 93/164/93 92/179/93 96/165/93
f 98/135/94 97/134/94 91/128/94
f 95/132/95 94/131/95 100/137/95
f 99/167/96 98/180/96 102/168/96
f 104/141/97 103/140/97 97/134/97
f 101/138/98 100/137/98 106/143/98
f 105/170/99 104/181/99 108/171/99
f 105/142/100 56/93/100 55/92/100
f 107/144/101 106/143/101 58/95/101
f 103/140/102 55/92/102 61/98/102
f 61/98/102 67/104/102 73/110/102
f 73/110/102 79/116/102 85/122/102
f 85/122/102 91/128/102 97/134/102
f 97/134/102 103/140/102 61/98/102
f 61/98/102 73/110/102 85/122/102
f 57/173/103 59/455/103 66/150/103
f 105/170/104 107/172/104 60/146/104
f 70/107/105 64/101/105 58/95/105
f 58/95/105 106/143/105 100/137/105
f 100/137/105 94/131/105 88/125/105
f 88/125/105 82/119/105 76/113/105
f 76/113/105 70/107/105 58/95/105
f 58/95/105 100/137/105 88/125/105
f 65/151/106 72/153/106 68/175/106
f 69/152/107 71/154/107 78/156/107
f 77/157/108 84/159/108 80/177/108
f 83/160/109 90/162/109 86/178/109
f 89/163/110 96/165/110 92/179/110
f 95/166/111 102/168/111 98/180/111
f 99/167/112 101/169/112 108/171/112
f 400/409/433 399/408/433 393/402/433
f 397/406/434 396/405/434 402/411/434
f 398/432/435 397/458/435 395/433/435
f 401/435/436 400/448/436 404/436/436
f 401/410/437 406/415/437 405/414/437
f 403/412/487 402/411/487 408/417/487
f 407/438/439 406/451/439 410/439/439
f 412/421/440 411/420/440 405/414/440
f 416/425/441 409/418/441 408/417/441
f 413/441/442 412/452/442 416/442/442
f 413/422/443 418/427/443 417/426/443
f 422/431/488 415/424/488 414/423/488
f 421/444/445 419/450/445 418/445/445
f 394/403/489 393/402/489 417/426/489
f 421/430/447 420/429/447 396/405/447
f 417/426/448 393/402/448 399/408/448
f 399/408/448 405/414/448 411/420/448
f 397/447/449 404/436/449 400/448/449
f 421/444/450 398/432/450 394/434/450
f 408/417/451 402/411/451 396/405/451
f 396/405/451 420/429/451 414/423/451
f 403/437/452 410/439/452 406/451/452
f 407/438/453 409/440/453 416/442/453
f 415/443/454 422/446/454 418/445/454
usemtl iron
f 109/182/113 110/183/113 111/184/113
f 112/185/114 113/186/114 114/187/114
f 115/188/115 116/189/115 117/190/115
f 118/191/116 119/192/116 120/193/116
f 121/194/117 122/195/117 123/196/117
f 124/197/118 125/198/118 126/199/118
f 127/200/119 128/201/119 129/202/119
f 130/203/120 131/204/120 132/205/120
f 109/182/121 116/189/121 115/188/121
f 112/206/122 111/207/122 110/208/122
f 113/209/123 120/193/123 114/210/123
f 119/192/124 116/211/124 120/193/124
f 127/200/125 117/190/125 128/201/125
f 130/203/126 119/192/126 118/191/126
f 129/202/127 132/205/127 131/204/127
f 127/200/128 122/195/128 121/194/128
f 130/203/129 126/199/129 131/204/129
f 125/198/130 122/195/130 126/199/130
f 121/194/131 110/183/131 109/182/131
f 113/186/132 125/198/132 124/197/132
f 127/200/133 109/182/133 115/188/133
f 114/210/134 116/211/134 111/207/134
f 125/198/135 110/212/135 123/196/135
f 118/213/136 124/197/136 130/203/136
f 119/192/137 128/201/137 117/214/137
f 131/204/138 122/195/138 129/202/138
f 133/182/139 134/183/139 135/184/139
f 136/185/140 137/186/140 138/187/140
f 139/188/141 140/189/141 141/190/141
f 142/191/142 143/192/142 144/193/142
f 145/194/143 146/195/143 147/196/143
f 148/197/144 149/198/144 150/199/144
f 151/200/145 152/201/145 153/202/145
f 154/215/146 155/204/146 156/205/146
f 139/188/147 135/184/147 140/189/147
f 136/206/148 135/207/148 134/208/148
f 137/209/149 144/193/149 138/210/149
f 141/214/150 144/193/150 143/192/150
f 139/188/151 152/201/151 151/200/151
f 154/215/152 143/192/152 142/191/152
f 155/204/153 152/201/153 156/205/153
f 145/194/154 153/202/154 146/195/154
f 154/215/155 150/199/155 155/204/155
f 147/196/156 150/199/156 149/198/156
f 133/182/157 147/196/157 134/183/157
f 137/186/158 149/198/158 148/197/158
f 151/200/159 133/182/159 139/188/159
f 138/210/160 140/211/160 135/207/160
f 147/196/161 136/185/161 134/212/161
f 154/215/162 137/216/162 148/197/162
f 143/192/163 152/201/163 141/214/163
f 153/202/164 150/199/164 146/195/164
f 157/217/165 158/183/165 159/184/165
f 160/185/166 161/186/166 162/187/166
f 163/188/167 164/189/167 165/190/167
f 166/191/168 167/192/168 168/218/168
f 169/194/169 170/195/169 171/196/169
f 172/197/170 173/198/170 174/199/170
f 175/200/171 176/201/171 177/202/171
f 178/215/172 179/204/172 180/219/172
f 163/188/173 159/184/173 164/189/173
f 160/206/174 159/207/174 158/208/174
f 166/191/175 162/210/175 161/209/175
f 165/214/176 168/218/176 167/192/176
f 175/200/177 165/190/177 176/201/177
f 178/215/178 167/192/178 166/191/178
f 177/202/179 180/219/179 179/204/179
f 175/200/180 170/195/180 169/194/180
f 178/215/181 174/199/181 179/204/181
f 173/198/182 170/195/182 174/199/182
f 157/217/183 171/196/183 158/183/183
f 172/197/184 160/185/184 173/198/184
f 175/200/185 157/217/185 163/188/185
f 162/210/186 164/211/186 159/207/186
f 173/198/187 158/212/187 171/196/187
f 166/213/188 172/197/188 178/215/188
f 167/192/189 176/201/189 165/214/189
f 179/204/190 170/195/190 177/202/190
f 189/220/191 181/221/191 182/222/191
f 191/223/192 183/224/192 184/225/192
f 186/226/193 194/227/193 185/228/193
f 195/229/194 187/222/194 188/230/194
f 197/231/195 190/232/195 189/220/195
f 191/223/192 200/233/192 192/234/192
f 193/235/196 202/236/196 194/227/196
f 203/237/194 196/238/194 195/229/194
f 205/239/197 198/240/197 197/231/197
f 207/241/192 200/233/192 199/242/192
f 209/243/198 202/236/198 201/244/198
f 211/245/194 204/246/194 203/237/194
f 213/247/199 206/248/199 205/239/199
f 207/241/192 216/249/192 208/250/192
f 217/251/200 210/252/200 209/243/200
f 219/253/194 212/254/194 211/245/194
f 221/255/201 214/256/201 213/247/201
f 223/257/192 216/249/192 215/258/192
f 217/251/202 226/259/202 218/260/202
f 227/261/194 220/262/194 219/253/194
f 221/255/203 230/263/203 222/264/203
f 223/257/192 232/265/192 224/266/192
f 225/267/204 234/268/204 226/259/204
f 235/269/194 228/270/194 227/261/194
f 229/271/205 238/272/205 230/273/205
f 239/274/192 232/275/192 231/276/192
f 241/277/206 234/278/206 233/279/206
f 235/278/194 244/280/194 236/281/194
f 245/282/207 238/272/207 237/283/207
f 239/274/192 248/284/192 240/285/192
f 241/277/208 250/286/208 242/287/208
f 251/288/194 244/280/194 243/289/194
f 245/282/209 254/290/209 246/291/209
f 255/292/192 248/284/192 247/293/192
f 249/294/210 258/295/210 250/286/210
f 259/296/194 252/297/194 251/288/194
f 261/298/211 254/290/211 253/299/211
f 255/292/192 264/300/192 256/301/192
f 265/302/212 258/295/212 257/303/212
f 267/304/194 260/305/194 259/296/194
f 261/298/213 270/306/213 262/307/213
f 271/308/192 264/300/192 263/309/192
f 265/302/214 274/310/214 266/311/214
f 267/304/194 276/312/194 268/313/194
f 269/314/215 278/315/215 270/306/215
f 279/316/192 272/317/192 271/308/192
f 281/318/216 274/310/216 273/319/216
f 283/320/194 276/312/194 275/321/194
f 181/221/217 277/322/217 182/222/217
f 280/323/192 184/225/192 183/224/192
f 185/228/218 281/318/218 186/226/218
f 187/222/194 283/320/194 188/230/194
f 278/315/219 184/225/219 279/316/219
f 181/221/219 191/223/219 184/225/219
f 187/222/219 189/220/219 182/222/219
f 284/324/219 182/222/219 277/322/219
f 183/224/219 193/325/219 186/326/219
f 280/323/219 186/326/219 281/323/219
f 185/228/219 195/229/219 188/230/219
f 282/327/219 188/230/219 283/320/219
f 204/246/220 189/220/220 196/238/220
f 190/232/219 199/242/219 191/223/219
f 192/234/219 201/328/219 193/325/219
f 202/236/221 195/229/221 194/227/221
f 204/246/222 205/239/222 197/231/222
f 198/240/219 207/241/219 199/242/219
f 200/233/219 209/329/219 201/328/219
f 202/236/223 211/245/223 203/237/223
f 212/254/219 213/247/219 205/239/219
f 206/248/219 215/258/219 207/241/219
f 208/250/219 217/330/219 209/329/219
f 210/252/222 219/253/222 211/245/222
f 228/270/224 213/247/224 220/262/224
f 214/256/225 223/257/225 215/258/225
f 216/249/226 225/331/226 217/330/226
f 218/260/219 227/261/219 219/253/219
f 228/270/227 229/332/227 221/255/227
f 222/264/228 231/263/228 223/257/228
f 224/266/219 233/333/219 225/331/219
f 226/259/219 235/269/219 227/261/219
f 236/281/219 237/283/219 229/271/219
f 230/273/219 239/274/219 231/276/219
f 232/275/219 241/334/219 233/275/219
f 234/278/219 243/289/219 235/278/219
f 244/280/219 245/282/219 237/283/219
f 238/272/219 247/293/219 239/274/219
f 240/285/229 249/335/229 241/334/229
f 242/287/230 251/288/230 243/289/230
f 252/297/231 253/299/231 245/282/231
f 246/291/232 255/292/232 247/293/232
f 248/284/219 257/336/219 249/335/219
f 250/286/219 259/296/219 251/288/219
f 260/305/230 261/298/230 253/299/230
f 254/290/233 263/309/233 255/292/233
f 256/301/219 265/337/219 257/336/219
f 258/295/234 267/304/234 259/296/234
f 268/313/219 269/314/219 261/298/219
f 262/307/219 271/308/219 263/309/219
f 264/300/235 273/338/235 265/337/235
f 266/311/222 275/321/222 267/304/222
f 276/312/222 277/322/222 269/314/222
f 270/306/236 279/316/236 271/308/236
f 272/317/219 281/323/219 273/338/219
f 274/310/219 283/320/219 275/321/219
f 369/217/397 370/183/397 371/184/397
f 372/185/398 373/186/398 374/187/398
f 375/188/399 376/189/399 377/190/399
f 378/191/400 379/192/400 380/218/400
f 381/194/401 382/195/401 383/196/401
f 384/197/402 385/198/402 386/199/402
f 387/200/403 388/201/403 389/202/403
f 390/215/404 391/204/404 392/205/404
f 369/217/405 376/189/405 375/188/405
f 370/208/406 374/210/406 371/207/406
f 378/191/407 374/210/407 373/209/407
f 377/214/408 380/218/408 379/192/408
f 375/188/409 388/201/409 387/200/409
f 390/215/410 379/192/410 378/191/410
f 391/204/411 388/201/411 392/205/411
f 387/200/412 382/195/412 381/194/412
f 390/215/413 386/199/413 391/204/413
f 383/196/414 386/199/414 385/198/414
f 369/217/415 383/196/415 370/183/415
f 384/197/416 372/185/416 385/198/416
f 387/200/417 369/217/417 375/188/417
f 374/210/418 376/211/418 371/207/418
f 385/198/419 370/212/419 383/196/419
f 378/213/420 384/197/420 390/215/420
f 377/214/421 392/205/421 388/201/421
f 391/204/422 382/195/422 389/202/422
f 109/182/121 111/184/121 116/189/121
f 112/206/122 114/210/122 111/207/122
f 113/209/123 118/191/123 120/193/123
f 119/192/124 117/214/124 116/211/124
f 127/200/125 115/188/125 117/190/125
f 130/203/126 132/205/126 119/192/126
f 129/202/127 128/201/127 132/205/127
f 127/200/128 129/202/128 122/195/128
f 130/203/129 124/197/129 126/199/129
f 125/198/130 123/196/130 122/195/130
f 121/194/131 123/196/131 110/183/131
f 113/186/457 112/185/457 125/198/457
f 127/200/133 121/194/133 109/182/133
f 114/210/134 120/193/134 116/211/134
f 125/198/135 112/185/135 110/212/135
f 118/213/136 113/216/136 124/197/136
f 119/192/137 132/205/137 128/201/137
f 131/204/138 126/199/138 122/195/138
f 139/188/147 133/182/147 135/184/147
f 136/206/148 138/210/148 135/207/148
f 137/209/149 142/191/149 144/193/149
f 141/214/150 140/211/150 144/193/150
f 139/188/151 141/190/151 152/201/151
f 154/215/152 156/205/152 143/192/152
f 155/204/153 153/202/153 152/201/153
f 145/194/154 151/200/154 153/202/154
f 154/215/155 148/197/155 150/199/155
f 147/196/156 146/195/156 150/199/156
f 133/182/157 145/194/157 147/196/157
f 137/186/158 136/185/158 149/198/158
f 151/200/159 145/194/159 133/182/159
f 138/210/160 144/193/160 140/211/160
f 147/196/161 149/198/161 136/185/161
f 154/215/162 142/213/162 137/216/162
f 143/192/163 156/205/163 152/201/163
f 153/202/164 155/204/164 150/199/164
f 163/188/173 157/217/173 159/184/173
f 160/206/458 162/210/458 159/207/458
f 166/191/175 168/218/175 162/210/175
f 165/214/459 164/211/459 168/218/459
f 175/200/177 163/188/177 165/190/177
f 178/215/178 180/219/178 167/192/178
f 177/202/179 176/201/179 180/219/179
f 175/200/180 177/202/180 170/195/180
f 178/215/181 172/197/181 174/199/181
f 173/198/460 171/196/460 170/195/460
f 157/217/183 169/194/183 171/196/183
f 172/197/184 161/186/184 160/185/184
f 175/200/185 169/194/185 157/217/185
f 162/210/186 168/218/186 164/211/186
f 173/198/187 160/185/187 158/212/187
f 166/213/188 161/216/188 172/197/188
f 167/192/189 180/219/189 176/201/189
f 179/204/190 174/199/190 170/195/190
f 189/220/191 190/232/191 181/221/191
f 191/223/192 192/234/192 183/224/192
f 186/226/193 193/235/193 194/227/193
f 195/229/194 196/238/194 187/222/194
f 197/231/461 198/240/461 190/232/461
f 191/223/192 199/242/192 200/233/192
f 193/235/462 201/244/462 202/236/462
f 203/237/194 204/246/194 196/238/194
f 205/239/197 206/248/197 198/240/197
f 207/241/192 208/250/192 200/233/192
f 209/243/198 210/252/198 202/236/198
f 211/245/194 212/254/194 204/246/194
f 213/247/199 214/256/199 206/248/199
f 207/241/192 215/258/192 216/249/192
f 217/251/200 218/260/200 210/252/200
f 219/253/194 220/262/194 212/254/194
f 221/255/201 222/264/201 214/256/201
f 223/257/192 224/266/192 216/249/192
f 217/251/202 225/267/202 226/259/202
f 227/261/194 228/270/194 220/262/194
f 221/255/203 229/332/203 230/263/203
f 223/257/192 231/263/192 232/265/192
f 225/267/204 233/456/204 234/268/204
f 235/269/194 236/457/194 228/270/194
f 229/271/205 237/283/205 238/272/205
f 239/274/192 240/285/192 232/275/192
f 241/277/206 242/287/206 234/278/206
f 235/278/194 243/289/194 244/280/194
f 245/282/207 246/291/207 238/272/207
f 239/274/192 247/293/192 248/284/192
f 241/277/208 249/294/208 250/286/208
f 251/288/194 252/297/194 244/280/194
f 245/282/209 253/299/209 254/290/209
f 255/292/192 256/301/192 248/284/192
f 249/294/210 257/303/210 258/295/210
f 259/296/194 260/305/194 252/297/194
f 261/298/211 262/307/211 254/290/211
f 255/292/192 263/309/192 264/300/192
f 265/302/212 266/311/212 258/295/212
f 267/304/194 268/313/194 260/305/194
f 261/298/213 269/314/213 270/306/213
f 271/308/192 272/317/192 264/300/192
f 265/302/214 273/319/214 274/310/214
f 267/304/194 275/321/194 276/312/194
f 269/314/215 277/322/215 278/315/215
f 279/316/192 280/323/192 272/317/192
f 281/318/216 282/327/216 274/310/216
f 283/320/194 284/324/194 276/312/194
f 181/221/217 278/315/217 277/322/217
f 280/323/192 279/316/192 184/225/192
f 185/228/218 282/327/218 281/318/218
f 187/222/194 284/324/194 283/320/194
f 278/315/219 181/221/219 184/225/219
f 181/221/463 190/232/463 191/223/463
f 187/222/464 196/238/464 189/220/464
f 284/324/219 187/222/219 182/222/219
f 183/224/465 192/234/465 193/325/465
f 280/323/219 183/224/219 186/326/219
f 185/228/466 194/227/466 195/229/466
f 282/327/219 185/228/219 188/230/219
f 204/246/222 197/231/222 189/220/222
f 190/232/467 198/240/467 199/242/467
f 192/234/468 200/233/468 201/328/468
f 202/236/469 203/237/469 195/229/469
f 204/246/219 212/254/219 205/239/219
f 198/240/219 206/248/219 207/241/219
f 200/233/470 208/250/470 209/329/470
f 202/236/471 210/252/471 211/245/471
f 212/254/472 220/262/472 213/247/472
f 206/248/473 214/256/473 215/258/473
f 208/250/230 216/249/230 217/330/230
f 210/252/219 218/260/219 219/253/219
f 228/270/474 221/255/474 213/247/474
f 214/256/475 222/264/475 223/257/475
f 216/249/219 224/266/219 225/331/219
f 218/260/219 226/259/219 227/261/219
f 228/270/219 236/457/219 229/332/219
f 222/264/219 230/263/219 231/263/219
f 224/266/219 232/265/219 233/333/219
f 226/259/219 234/268/219 235/269/219
f 236/281/219 244/280/219 237/283/219
f 230/273/219 238/272/219 239/274/219
f 232/275/476 240/285/476 241/334/476
f 234/278/477 242/287/477 243/289/477
f 244/280/478 252/297/478 245/282/478
f 238/272/479 246/291/479 247/293/479
f 240/285/219 248/284/219 249/335/219
f 242/287/219 250/286/219 251/288/219
f 252/297/480 260/305/480 253/299/480
f 246/291/481 254/290/481 255/292/481
f 248/284/219 256/301/219 257/336/219
f 250/286/482 258/295/482 259/296/482
f 260/305/219 268/313/219 261/298/219
f 254/290/219 262/307/219 263/309/219
f 256/301/483 264/300/483 265/337/483
f 258/295/484 266/311/484 267/304/484
f 268/313/468 276/312/468 269/314/468
f 262/307/485 270/306/485 271/308/485
f 264/300/219 272/317/219 273/338/219
f 266/311/219 274/310/219 275/321/219
f 276/312/219 284/324/219 277/322/219
f 270/306/486 278/315/486 279/316/486
f 272/317/219 280/323/219 281/323/219
f 274/310/219 282/327/219 283/320/219
f 369/217/405 371/184/405 376/189/405
f 370/208/406 372/206/406 374/210/406
f 378/191/407 380/218/407 374/210/407
f 377/214/408 376/211/408 380/218/408
f 375/188/409 377/190/409 388/201/409
f 390/215/410 392/205/410 379/192/410
f 391/204/411 389/202/411 388/201/411
f 387/200/412 389/202/412 382/195/412
f 390/215/413 384/197/413 386/199/413
f 383/196/414 382/195/414 386/199/414
f 369/217/415 381/194/415 383/196/415
f 384/197/416 373/186/416 372/185/416
f 387/200/417 381/194/417 369/217/417
f 374/210/418 380/218/418 376/211/418
f 385/198/419 372/185/419 370/212/419
f 378/213/420 373/216/420 384/197/420
f 377/214/421 379/192/421 392/205/421
f 391/204/422 386/199/422 382/195/422
usemtl core
f 285/339/237 298/340/237 297/341/237
f 286/342/238 298/343/238 300/344/238
f 285/345/239 297/346/239 302/347/239
f 285/348/240 302/349/240 304/350/240
f 285/351/241 304/352/241 301/353/241
f 286/342/242 300/344/242 307/354/242
f 287/355/243 299/356/243 309/357/243
f 288/358/244 303/359/244 311/360/244
f 289/361/245 305/362/245 313/363/245
f 290/364/246 306/365/246 315/366/246
f 286/342/247 307/354/247 310/367/247
f 287/355/248 309/357/248 312/368/248
f 288/358/249 311/360/249 314/369/249
f 289/361/250 313/363/250 316/370/250
f 290/364/251 315/366/251 308/371/251
f 291/372/252 317/373/252 322/374/252
f 292/375/253 318/376/253 324/377/253
f 293/378/254 319/379/254 325/380/254
f 294/381/255 320/382/255 326/383/255
f 295/384/256 321/385/256 323/386/256
f 323/386/257 326/387/257 296/388/257
f 323/386/258 321/385/258 326/387/258
f 321/385/259 294/381/259 326/387/259
f 326/383/260 325/389/260 296/390/260
f 326/383/261 320/382/261 325/389/261
f 320/382/262 293/378/262 325/389/262
f 325/380/263 324/391/263 296/392/263
f 325/380/264 319/379/264 324/391/264
f 319/379/265 292/393/265 324/391/265
f 324/377/266 322/394/266 296/395/266
f 324/377/267 318/376/267 322/394/267
f 318/376/268 291/372/268 322/394/268
f 322/374/269 323/396/269 296/397/269
f 322/374/270 317/373/270 323/396/270
f 317/373/271 295/384/271 323/396/271
f 308/371/272 321/385/272 295/384/272
f 308/371/273 315/366/273 321/385/273
f 315/366/274 294/381/274 321/385/274
f 316/370/275 320/382/275 294/381/275
f 316/370/276 313/363/276 320/382/276
f 313/363/277 293/378/277 320/382/277
f 314/369/278 319/379/278 293/378/278
f 314/369/279 311/360/279 319/379/279
f 311/360/280 292/393/280 319/379/280
f 312/368/281 318/376/281 292/375/281
f 312/368/282 309/357/282 318/376/282
f 309/357/283 291/372/283 318/376/283
f 310/367/284 317/373/284 291/372/284
f 310/367/285 307/354/285 317/373/285
f 307/354/286 295/384/286 317/373/286
f 315/366/287 316/370/287 294/381/287
f 315/366/288 306/365/288 316/370/288
f 306/365/289 289/361/289 316/370/289
f 313/363/290 314/369/290 293/378/290
f 313/363/291 305/362/291 314/369/291
f 305/362/292 288/358/292 314/369/292
f 311/360/293 312/398/293 292/393/293
f 311/360/294 303/359/294 312/398/294
f 303/359/295 287/399/295 312/398/295
f 309/357/296 310/367/296 291/372/296
f 309/357/297 299/356/297 310/367/297
f 299/356/298 286/342/298 310/367/298
f 307/354/299 308/371/299 295/384/299
f 307/354/300 300/344/300 308/371/300
f 300/344/301 290/364/301 308/371/301
f 301/353/302 306/365/302 290/364/302
f 301/353/303 304/352/303 306/365/303
f 304/352/304 289/361/304 306/365/304
f 304/350/305 305/362/305 289/361/305
f 304/350/306 302/349/306 305/362/306
f 302/349/307 288/358/307 305/362/307
f 302/347/308 303/359/308 288/358/308
f 302/347/309 297/346/309 303/359/309
f 297/346/310 287/399/310 303/359/310
f 300/344/311 301/400/311 290/364/311
f 300/344/312 298/343/312 301/400/312
f 298/343/313 285/401/313 301/400/313
f 297/341/314 299/356/314 287/355/314
f 297/341/315 298/340/315 299/356/315
f 298/340/316 286/342/316 299/356/316
f 327/339/317 340/340/317 339/341/317
f 328/342/318 340/343/318 342/344/318
f 327/345/319 339/346/319 344/347/319
f 327/348/320 344/349/320 346/350/320
f 327/351/321 346/352/321 343/353/321
f 328/342/322 342/344/322 349/354/322
f 329/355/323 341/356/323 351/357/323
f 330/358/324 345/359/324 353/360/324
f 331/361/325 347/362/325 355/363/325
f 332/364/326 348/365/326 357/366/326
f 328/342/327 349/354/327 352/367/327
f 329/355/328 351/357/328 354/368/328
f 330/358/329 353/360/329 356/369/329
f 331/361/330 355/363/330 358/370/330
f 332/364/331 357/366/331 350/371/331
f 333/372/332 359/373/332 364/374/332
f 334/375/333 360/376/333 366/377/333
f 335/378/334 361/379/334 367/380/334
f 336/381/335 362/382/335 368/383/335
f 337/384/336 363/385/336 365/386/336
f 365/386/337 368/387/337 338/388/337
f 365/386/338 363/385/338 368/387/338
f 363/385/339 336/381/339 368/387/339
f 368/383/340 367/389/340 338/390/340
f 368/383/341 362/382/341 367/389/341
f 362/382/342 335/378/342 367/389/342
f 367/380/343 366/391/343 338/392/343
f 367/380/344 361/379/344 366/391/344
f 361/379/345 334/393/345 366/391/345
f 366/377/346 364/394/346 338/395/346
f 366/377/347 360/376/347 364/394/347
f 360/376/348 333/372/348 364/394/348
f 364/374/349 365/396/349 338/397/349
f 364/374/350 359/373/350 365/396/350
f 359/373/351 337/384/351 365/396/351
f 350/371/352 363/385/352 337/384/352
f 350/371/353 357/366/353 363/385/353
f 357/366/354 336/381/354 363/385/354
f 358/370/355 362/382/355 336/381/355
f 358/370/356 355/363/356 362/382/356
f 355/363/357 335/378/357 362/382/357
f 356/369/358 361/379/358 335/378/358
f 356/369/359 353/360/359 361/379/359
f 353/360/360 334/393/360 361/379/360
f 354/368/361 360/376/361 334/375/361
f 354/368/362 351/357/362 360/376/362
f 351/357/363 333/372/363 360/376/363
f 352/367/364 359/373/364 333/372/364
f 352/367/365 349/354/365 359/373/365
f 349/354/366 337/384/366 359/373/366
f 357/366/367 358/370/367 336/381/367
f 357/366/368 348/365/368 358/370/368
f 348/365/369 331/361/369 358/370/369
f 355/363/370 356/369/370 335/378/370
f 355/363/371 347/362/371 356/369/371
f 347/362/372 330/358/372 356/369/372
f 353/360/373 354/398/373 334/393/373
f 353/360/374 345/359/374 354/398/374
f 345/359/375 329/399/375 354/398/375
f 351/357/376 352/367/376 333/372/376
f 351/357/377 341/356/377 352/367/377
f 341/356/378 328/342/378 352/367/378
f 349/354/379 350/371/379 337/384/379
f 349/354/380 342/344/380 350/371/380
f 342/344/381 332/364/381 350/371/381
f 343/353/382 348/365/382 332/364/382
f 343/353/383 346/352/383 348/365/383
f 346/352/384 331/361/384 348/365/384
f 346/350/385 347/362/385 331/361/385
f 346/350/386 344/349/386 347/362/386
f 344/349/387 330/358/387 347/362/387
f 344/347/388 345/359/388 330/358/388
f 344/347/389 339/346/389 345/359/389
f 339/346/390 329/399/390 345/359/390
f 342/344/391 343/400/391 332/364/391
f 342/344/392 340/343/392 343/400/392
f 340/343/393 327/401/393 343/400/393
f 339/341/394 341/356/394 329/355/394
f 339/341/395 340/340/395 341/356/395
f 340/340/396 328/342/396 341/356/396
