# Blender 4.5.10 LTS
# www.blender.org
mtllib upgrade_spirit_hut.mtl
o upgrade_spirit_hut
v 0.432391 0.004095 -0.295329
v 0.432362 0.005971 -0.304028
v 0.437969 0.006119 -0.295354
v 0.430804 0.142035 -0.305346
v 0.430789 0.144079 -0.296686
v 0.436411 0.142183 -0.296672
v 0.432901 0.009940 0.307282
v 0.438478 0.011964 0.307258
v 0.432886 0.011984 0.315943
v 0.431299 0.149925 0.305926
v 0.431328 0.148049 0.314624
v 0.436921 0.148029 0.305939
v 0.043617 -0.000351 -0.294958
v 0.037995 0.001544 -0.294971
v 0.043587 0.001524 -0.303656
v 0.042015 0.139633 -0.296314
v 0.042030 0.137589 -0.304975
v 0.036438 0.137609 -0.296290
v 0.044126 0.005494 0.307654
v 0.044111 0.007538 0.316315
v 0.038504 0.007390 0.307640
v 0.042524 0.145478 0.306297
v 0.036947 0.143454 0.306322
v 0.042554 0.143603 0.314996
v -0.041166 -0.010890 -0.307695
v -0.041161 -0.008981 -0.316386
v -0.035530 -0.009034 -0.307726
v -0.038649 0.127073 -0.317199
v -0.038581 0.129084 -0.308531
v -0.033018 0.127021 -0.308539
v -0.038967 -0.007331 0.294931
v -0.033332 -0.005475 0.294899
v -0.038900 -0.005320 0.303599
v -0.036383 0.132643 0.294095
v -0.036387 0.130735 0.302786
v -0.030820 0.130580 0.294087
v -0.429897 -0.003703 -0.306319
v -0.435460 -0.001640 -0.306311
v -0.429892 -0.001795 -0.315011
v -0.427312 0.136270 -0.307155
v -0.427380 0.134259 -0.315823
v -0.432947 0.134414 -0.307124
v -0.427699 -0.000144 0.296306
v -0.427631 0.001867 0.304975
v -0.433261 0.001919 0.296315
v -0.425114 0.139829 0.295470
v -0.430749 0.137973 0.295502
v -0.425118 0.137921 0.304162
v 0.121110 0.135961 -0.099380
v 0.121181 0.136975 -0.102729
v 0.124767 0.136871 -0.099314
v 0.122483 0.204999 -0.102019
v 0.122449 0.205945 -0.098650
v 0.126070 0.204895 -0.098604
v 0.117488 0.133597 0.133860
v 0.121146 0.134507 0.133926
v 0.117455 0.134543 0.137230
v 0.118828 0.203581 0.134590
v 0.118757 0.202567 0.137939
v 0.122448 0.202531 0.134636
v -0.131533 0.140838 -0.103254
v -0.135154 0.141888 -0.103299
v -0.131463 0.141852 -0.106603
v -0.130194 0.210821 -0.102524
v -0.130160 0.209876 -0.105893
v -0.133852 0.209912 -0.102590
v -0.135155 0.138474 0.129986
v -0.135189 0.139420 0.133356
v -0.138775 0.139524 0.129941
v -0.133816 0.208457 0.130716
v -0.137473 0.207548 0.130650
v -0.133887 0.207443 0.134066
v 0.342473 0.130512 -0.261469
v 0.342486 0.131164 -0.269033
v 0.352273 0.131213 -0.261457
v 0.342482 0.179763 -0.269342
v 0.342469 0.180511 -0.261786
v 0.352269 0.179812 -0.261766
v 0.341595 0.133841 0.263400
v 0.351395 0.134541 0.263411
v 0.341583 0.134589 0.270955
v 0.341591 0.183840 0.263082
v 0.341579 0.183188 0.270647
v 0.351391 0.183140 0.263103
v -0.337926 0.130450 -0.262607
v -0.347726 0.131149 -0.262627
v -0.337913 0.131102 -0.270171
v -0.337930 0.180449 -0.262924
v -0.337917 0.179701 -0.270479
v -0.347730 0.179748 -0.262936
v -0.338804 0.133779 0.262262
v -0.338816 0.134527 0.269818
v -0.348604 0.134478 0.262241
v -0.338808 0.183778 0.261945
v -0.348607 0.183077 0.261933
v -0.338820 0.183126 0.269509
v 0.321239 0.142705 -0.254215
v 0.321192 0.146612 -0.254922
v 0.330427 0.146746 -0.254242
v 0.317639 0.418695 -0.260345
v 0.317584 0.422626 -0.259793
v 0.326875 0.418829 -0.259664
v 0.320987 0.143574 -0.210484
v 0.330175 0.147614 -0.210511
v 0.320932 0.147505 -0.209932
v 0.317332 0.423494 -0.216063
v 0.317380 0.419588 -0.215355
v 0.326622 0.419697 -0.215934
v -0.320216 0.134260 -0.257748
v -0.329506 0.138057 -0.257877
v -0.320263 0.138166 -0.258456
v -0.323870 0.414181 -0.263327
v -0.323816 0.410249 -0.263879
v -0.333058 0.410140 -0.263300
v -0.320468 0.135128 -0.214017
v -0.320523 0.139060 -0.213465
v -0.329758 0.138926 -0.214146
v -0.324123 0.415049 -0.219596
v -0.333311 0.411008 -0.219569
v -0.324075 0.411142 -0.218888
v 0.341861 0.129851 -0.234527
v 0.342015 0.133664 -0.241584
v 0.342513 0.133767 -0.234574
v 0.343526 0.405788 -0.245723
v 0.343415 0.409815 -0.238784
v 0.344023 0.405892 -0.238713
v 0.332660 0.137291 0.251329
v 0.333311 0.141207 0.251282
v 0.332549 0.141318 0.258268
v 0.334214 0.417255 0.247072
v 0.334059 0.413442 0.254129
v 0.334822 0.413332 0.247143
v 0.298129 0.130081 -0.235358
v 0.297521 0.134004 -0.235430
v 0.298284 0.133894 -0.242416
v 0.299683 0.410045 -0.239616
v 0.299794 0.406018 -0.246554
v 0.299032 0.406128 -0.239569
v 0.288928 0.137521 0.250498
v 0.288817 0.141548 0.257436
v 0.288320 0.141444 0.250426
v 0.290482 0.417485 0.246240
v 0.289830 0.413568 0.246287
v 0.290328 0.413672 0.253297
v -0.280982 0.138459 -0.249570
v -0.280999 0.142518 -0.256490
v -0.280421 0.142388 -0.249486
v -0.285775 0.414582 -0.251046
v -0.285897 0.418360 -0.243969
v -0.285198 0.414452 -0.244043
v -0.284624 0.128673 0.236318
v -0.284063 0.132603 0.236401
v -0.284745 0.132451 0.243395
v -0.289538 0.408574 0.241918
v -0.289522 0.404514 0.248838
v -0.288840 0.404666 0.241845
v -0.324714 0.137698 -0.249913
v -0.325413 0.141605 -0.249839
v -0.324731 0.141757 -0.256833
v -0.329629 0.417599 -0.244312
v -0.329507 0.413821 -0.251389
v -0.330190 0.413669 -0.244396
v -0.328356 0.127912 0.235975
v -0.328477 0.131690 0.243052
v -0.329055 0.131820 0.236048
v -0.333270 0.407813 0.241575
v -0.333832 0.403883 0.241492
v -0.333254 0.403753 0.248495
v 0.388443 0.397963 -0.311049
v 0.388576 0.398324 -0.319454
v 0.394767 0.394258 -0.311135
v 0.407092 0.425695 -0.319855
v 0.407492 0.426123 -0.311462
v 0.413283 0.421629 -0.311537
v 0.397694 0.400256 0.272073
v 0.404019 0.396551 0.271987
v 0.398094 0.400683 0.280466
v 0.416743 0.428416 0.271660
v 0.416610 0.428055 0.280064
v 0.422534 0.423922 0.271585
v -0.032147 0.682554 -0.305496
v -0.037938 0.687048 -0.305422
v -0.032014 0.682916 -0.313900
v -0.013098 0.710714 -0.305909
v -0.013498 0.710287 -0.314302
v -0.019423 0.714419 -0.305823
v -0.022896 0.684848 0.277626
v -0.022496 0.685275 0.286019
v -0.028687 0.689341 0.277701
v -0.003847 0.713007 0.277213
v -0.010172 0.716712 0.277299
v -0.003980 0.712646 0.285618
v 0.009271 0.691035 -0.302082
v 0.008950 0.691543 -0.310474
v 0.014981 0.695631 -0.302050
v -0.010058 0.718573 -0.309983
v -0.010284 0.718843 -0.301577
v -0.004027 0.722661 -0.301558
v 0.012602 0.682773 0.281050
v 0.018312 0.687369 0.281082
v 0.012376 0.683043 0.289456
v -0.006953 0.710581 0.281555
v -0.006631 0.710073 0.289947
v -0.000696 0.714399 0.281574
v -0.406167 0.398926 -0.303848
v -0.412424 0.395108 -0.303866
v -0.406488 0.399434 -0.312240
v -0.425722 0.426735 -0.303342
v -0.425496 0.426465 -0.311748
v -0.431432 0.422138 -0.303375
v -0.402836 0.390664 0.279284
v -0.403062 0.390934 0.287690
v -0.409093 0.386846 0.279266
v -0.422391 0.418473 0.279790
v -0.428101 0.413876 0.279757
v -0.422069 0.417965 0.288182
v 0.043694 0.661949 -0.319768
v 0.043565 0.662524 -0.328588
v 0.044964 0.662515 -0.319789
v 0.044263 0.703341 -0.328660
v 0.044411 0.703942 -0.319842
v 0.045661 0.703333 -0.319861
v 0.053313 0.662857 0.292515
v 0.054583 0.663423 0.292495
v 0.053462 0.663458 0.301333
v 0.054031 0.704851 0.292442
v 0.054159 0.704276 0.301262
v 0.055280 0.704241 0.292423
v -0.043763 0.663445 -0.318396
v -0.045012 0.664055 -0.318378
v -0.043891 0.664020 -0.327216
v -0.043045 0.705439 -0.318470
v -0.043194 0.704838 -0.327288
v -0.044315 0.704873 -0.318449
v -0.034143 0.664354 0.293887
v -0.033994 0.664955 0.302705
v -0.035393 0.664963 0.293906
v -0.033426 0.706347 0.293814
v -0.034695 0.705781 0.293835
v -0.033297 0.705773 0.302634
v 0.332800 0.183065 0.213931
v 0.332781 0.183685 0.213223
v 0.342310 0.183815 0.213777
v 0.332220 0.227417 0.212640
v 0.332223 0.228057 0.213332
v 0.341749 0.227547 0.213194
v 0.333538 0.183722 0.262521
v 0.343048 0.184472 0.262367
v 0.333540 0.184361 0.263213
v 0.332961 0.228714 0.261921
v 0.332979 0.228094 0.262630
v 0.342487 0.228204 0.261784
v -0.328030 0.174726 0.224078
v -0.337556 0.175236 0.224216
v -0.328048 0.175347 0.223370
v -0.328607 0.219719 0.223478
v -0.328609 0.219079 0.222787
v -0.338117 0.218969 0.223633
v -0.327292 0.175384 0.272668
v -0.327289 0.176023 0.273359
v -0.336818 0.175894 0.272806
v -0.327869 0.220376 0.272068
v -0.337379 0.219626 0.272223
v -0.327850 0.219756 0.272776
v 0.008902 0.191148 0.021337
v -0.067139 0.242106 -0.037578
v 0.039596 0.243753 -0.068887
v 0.102310 0.247026 0.022937
v 0.034333 0.247400 0.110996
v -0.070391 0.244360 0.073595
v -0.020726 0.329479 -0.072390
v 0.083998 0.332520 -0.034989
v 0.080746 0.334774 0.076184
v -0.025989 0.333127 0.107493
v -0.088703 0.329854 0.015669
v 0.004705 0.385732 0.017269
v 0.027312 0.204987 -0.031338
v -0.035425 0.204018 -0.012935
v -0.017384 0.234939 -0.065967
v -0.082032 0.235296 0.017782
v -0.037337 0.205343 0.052411
v 0.064174 0.206911 0.022635
v 0.082216 0.237831 -0.030398
v 0.024218 0.207131 0.074394
v 0.079122 0.239975 0.075335
v -0.022389 0.238408 0.105111
v -0.092796 0.285548 -0.016266
v -0.094708 0.286873 0.049079
v 0.009897 0.286296 -0.086430
v -0.052841 0.285328 -0.068027
v 0.108315 0.290007 -0.010473
v 0.071453 0.288083 -0.064446
v 0.066448 0.291552 0.106633
v 0.106403 0.291332 0.054873
v -0.057846 0.288796 0.103053
v 0.003710 0.290584 0.125036
v -0.065515 0.336905 -0.036728
v 0.035996 0.338472 -0.066505
v 0.095639 0.341584 0.020825
v 0.030991 0.341940 0.104574
v -0.068609 0.339049 0.069004
v -0.010611 0.369749 -0.035788
v -0.050567 0.369969 0.015972
v 0.050944 0.371536 -0.013804
v 0.049032 0.372861 0.051541
v -0.013705 0.371893 0.069944
v -0.000729 0.201054 0.021285
v -0.048093 0.249256 -0.015513
v 0.019669 0.245326 -0.038253
v 0.062318 0.245118 0.019238
v 0.020915 0.248920 0.077509
v -0.047323 0.251477 0.056031
v -0.014317 0.323112 -0.040302
v 0.053920 0.320555 -0.018825
v 0.054690 0.322776 0.052720
v -0.013071 0.326707 0.075460
v -0.055721 0.326914 0.017969
v 0.007327 0.370979 0.015922
v 0.010553 0.212159 -0.013240
v -0.029276 0.214469 0.000127
v -0.017286 0.240492 -0.034869
v -0.056663 0.244108 0.020550
v -0.028823 0.215775 0.042179
v 0.035622 0.212038 0.020552
v 0.047612 0.238060 -0.014443
v 0.011285 0.214272 0.054803
v 0.048344 0.240172 0.053600
v -0.016101 0.243910 0.075227
v -0.061599 0.288448 -0.001822
v -0.061147 0.289754 0.040230
v 0.002566 0.283904 -0.049440
v -0.037263 0.286214 -0.036074
v 0.067744 0.282278 -0.003023
v 0.042675 0.282400 -0.036816
v 0.043861 0.285819 0.073281
v 0.068197 0.283584 0.039029
v -0.036078 0.289632 0.074023
v 0.004031 0.288129 0.086647
v -0.041747 0.331860 -0.016393
v 0.022699 0.328122 -0.038020
v 0.063260 0.327925 0.016657
v 0.023884 0.331541 0.072076
v -0.041014 0.333973 0.051650
v -0.004688 0.357760 -0.017596
v -0.029024 0.359995 0.016654
v 0.035421 0.356257 -0.004972
v 0.035873 0.357563 0.037080
v -0.003956 0.359873 0.050446
v 0.297744 0.124109 0.258742
v 0.300311 0.136414 0.272101
v 0.284193 0.136354 0.257039
v 0.302160 0.464079 0.252672
v 0.288291 0.451845 0.251406
v 0.304409 0.451905 0.266468
v 0.291331 0.124033 0.242231
v 0.282444 0.136334 0.252535
v 0.284171 0.136223 0.230543
v 0.297632 0.464026 0.241014
v 0.290018 0.451735 0.229414
v 0.288292 0.451845 0.251406
v 0.300242 0.123949 0.226923
v 0.286602 0.136200 0.226367
v 0.304873 0.136121 0.214006
v 0.303924 0.463966 0.230206
v 0.308290 0.451656 0.217052
v 0.290018 0.451735 0.229414
v 0.317767 0.123920 0.224345
v 0.309653 0.136114 0.213303
v 0.330710 0.136126 0.219880
v 0.316298 0.463946 0.228386
v 0.329346 0.451669 0.223630
v 0.308290 0.451656 0.217052
v 0.330708 0.123968 0.236439
v 0.334240 0.136139 0.223179
v 0.342226 0.136234 0.243743
v 0.325435 0.463979 0.236925
v 0.337333 0.451764 0.244193
v 0.329346 0.451669 0.223630
v 0.329322 0.124057 0.254098
v 0.341848 0.136258 0.248559
v 0.330750 0.136363 0.267624
v 0.324456 0.464042 0.249393
v 0.326235 0.451869 0.263258
v 0.337333 0.451764 0.244193
v 0.314651 0.124120 0.264024
v 0.326748 0.136380 0.270332
v 0.304923 0.136417 0.273542
v 0.314098 0.464087 0.256401
v 0.304409 0.451905 0.266468
v 0.326235 0.451869 0.263258
v -0.326680 0.133914 0.228761
v -0.340412 0.145970 0.230360
v -0.324025 0.146409 0.215597
v -0.326640 0.473816 0.238916
v -0.323988 0.461836 0.225021
v -0.340374 0.461397 0.239783
v -0.309681 0.134196 0.223791
v -0.319388 0.146486 0.214241
v -0.297626 0.146680 0.217850
v -0.314637 0.474015 0.235407
v -0.302225 0.462030 0.228629
v -0.323988 0.461836 0.225021
v -0.295193 0.134195 0.233982
v -0.293674 0.146680 0.220630
v -0.282924 0.146483 0.239892
v -0.304408 0.474014 0.242602
v -0.291475 0.461833 0.247892
v -0.302225 0.462030 0.228629
v -0.294127 0.133911 0.251661
v -0.282633 0.146405 0.244715
v -0.290990 0.145965 0.265126
v -0.303655 0.473813 0.255085
v -0.299832 0.461393 0.268303
v -0.291475 0.461833 0.247892
v -0.307284 0.133559 0.263514
v -0.294579 0.145869 0.268359
v -0.315750 0.145518 0.274549
v -0.312945 0.473564 0.263454
v -0.321003 0.461042 0.274493
v -0.299832 0.461393 0.268303
v -0.324758 0.133403 0.260617
v -0.320516 0.145475 0.273759
v -0.338559 0.145477 0.261066
v -0.325283 0.473454 0.261408
v -0.339046 0.461044 0.261801
v -0.321003 0.461042 0.274493
v -0.333390 0.133561 0.245150
v -0.340914 0.145520 0.256848
v -0.342242 0.145874 0.234830
v -0.331377 0.473566 0.250488
v -0.340374 0.461397 0.239783
v -0.339046 0.461044 0.261801
vn 0.3335 -0.9213 -0.1998
vn 0.3123 0.9247 -0.2177
vn 0.3338 -0.9173 0.2171
vn 0.3127 0.9287 0.1992
vn -0.3127 -0.9287 -0.1992
vn -0.3338 0.9173 -0.2171
vn -0.3123 -0.9247 0.2177
vn -0.3335 0.9213 0.1998
vn 0.3411 -0.9400 0.0088
vn 0.8398 0.0044 -0.5429
vn 0.3195 0.9475 -0.0095
vn 0.8407 0.0149 0.5413
vn 0.0113 -0.9732 0.2297
vn -0.0110 0.9775 0.2108
vn -0.8398 -0.0044 0.5429
vn -0.3195 -0.9475 0.0095
vn -0.3411 0.9400 -0.0088
vn -0.8407 -0.0149 -0.5413
vn 0.0110 -0.9775 -0.2108
vn -0.0114 0.9732 -0.2297
vn 0.0114 -0.9999 0.0097
vn 0.9999 0.0114 -0.0010
vn -0.0008 -0.0097 -1.0000
vn -0.0114 0.9999 -0.0097
vn 0.0008 0.0097 1.0000
vn -0.9999 -0.0114 0.0010
vn 0.3052 -0.9302 -0.2041
vn 0.3393 0.9157 -0.2151
vn 0.3068 -0.9277 0.2128
vn 0.3408 0.9182 0.2018
vn -0.3408 -0.9182 -0.2018
vn -0.3068 0.9277 -0.2128
vn -0.3393 -0.9157 0.2151
vn -0.3052 0.9302 0.2041
vn 0.3129 -0.9498 0.0045
vn 0.8382 -0.0187 -0.5451
vn 0.3477 0.9376 -0.0068
vn 0.8421 -0.0123 0.5391
vn -0.0172 -0.9740 0.2261
vn 0.0188 0.9766 0.2144
vn -0.8382 0.0187 0.5451
vn -0.3477 -0.9376 0.0068
vn -0.3129 0.9498 -0.0045
vn -0.8421 0.0123 -0.5391
vn -0.0188 -0.9766 -0.2144
vn 0.0172 0.9740 -0.2261
vn -0.0185 -0.9998 0.0060
vn 0.9998 -0.0185 -0.0035
vn -0.0036 -0.0059 -1.0000
vn 0.0185 0.9998 -0.0060
vn 0.0036 0.0059 1.0000
vn -0.9998 0.0185 0.0035
vn 0.2366 -0.9313 -0.2769
vn 0.2722 0.9272 -0.2575
vn 0.2282 -0.9368 0.2652
vn 0.2637 0.9217 0.2846
vn -0.2637 -0.9217 -0.2846
vn -0.2282 0.9368 -0.2652
vn -0.2722 -0.9272 0.2575
vn -0.2366 0.9313 0.2769
vn 0.2414 -0.9704 -0.0061
vn 0.6895 -0.0056 -0.7243
vn 0.2784 0.9604 0.0141
vn 0.6667 -0.0205 0.7451
vn -0.0227 -0.9626 0.2699
vn 0.0140 0.9569 0.2900
vn -0.6895 0.0056 0.7243
vn -0.2784 -0.9604 -0.0141
vn -0.2414 0.9704 0.0061
vn -0.6667 0.0205 -0.7451
vn -0.0140 -0.9569 -0.2900
vn 0.0227 0.9626 -0.2699
vn -0.0191 -0.9998 -0.0104
vn 0.9997 -0.0193 0.0153
vn 0.0155 0.0101 -0.9998
vn 0.0191 0.9998 0.0104
vn -0.0155 -0.0101 0.9998
vn -0.9997 0.0193 -0.0153
vn 0.0712 -0.9938 -0.0855
vn 0.0710 0.9926 -0.0981
vn 0.0709 -0.9926 0.0984
vn 0.0707 0.9938 0.0858
vn -0.0707 -0.9938 -0.0858
vn -0.0709 0.9926 -0.0984
vn -0.0710 -0.9926 0.0981
vn -0.0712 0.9938 0.0855
vn 0.0713 -0.9974 0.0064
vn 0.6121 -0.0050 -0.7907
vn 0.0712 0.9974 -0.0062
vn 0.6095 0.0051 0.7928
vn -0.0001 -0.9951 0.0985
vn -0.0002 0.9963 0.0859
vn -0.6121 0.0050 0.7907
vn -0.0712 -0.9974 0.0062
vn -0.0713 0.9974 -0.0064
vn -0.6095 -0.0051 -0.7928
vn 0.0002 -0.9963 -0.0859
vn 0.0001 0.9951 -0.0985
vn 0.0001 -1.0000 0.0063
vn 1.0000 0.0001 0.0017
vn 0.0017 -0.0063 -1.0000
vn -0.0001 1.0000 -0.0063
vn -0.0017 0.0063 1.0000
vn -1.0000 -0.0001 -0.0017
vn 0.0749 -0.1769 -0.9814
vn 0.0708 0.1396 -0.9877
vn 0.0635 -0.1378 0.9884
vn 0.0594 0.1787 0.9821
vn -0.0594 -0.1787 -0.9821
vn -0.0635 0.1378 -0.9884
vn -0.0708 -0.1396 0.9877
vn -0.0749 0.1769 0.9814
vn 0.4025 -0.9152 0.0205
vn 0.0738 -0.0189 -0.9971
vn 0.3785 0.9255 -0.0162
vn 0.0623 0.0207 0.9978
vn -0.0036 -0.1390 0.9903
vn -0.0078 0.1782 0.9840
vn -0.0738 0.0189 0.9971
vn -0.3785 -0.9255 0.0162
vn -0.4025 0.9152 -0.0205
vn -0.0623 -0.0207 -0.9978
vn 0.0078 -0.1782 -0.9840
vn 0.0036 0.1390 -0.9903
vn 0.0131 -0.9997 0.0199
vn 0.9999 0.0132 0.0055
vn 0.0058 -0.0199 -0.9998
vn -0.0131 0.9997 -0.0199
vn -0.0058 0.0199 0.9998
vn -0.9999 -0.0132 -0.0055
vn 0.9841 -0.1646 -0.0674
vn 0.9858 0.1515 -0.0722
vn 0.9807 -0.1619 0.1096
vn 0.9825 0.1542 0.1048
vn -0.9825 -0.1542 -0.1048
vn -0.9807 0.1619 -0.1096
vn -0.9858 -0.1515 0.0722
vn -0.9841 0.1646 0.0674
vn 0.9863 -0.1639 0.0212
vn 0.9975 -0.0066 -0.0707
vn 0.9880 0.1535 0.0164
vn 0.9941 -0.0039 0.1085
vn -0.0141 -0.8649 0.5017
vn -0.0044 0.8799 0.4752
vn -0.9975 0.0066 0.0707
vn -0.9880 -0.1535 -0.0164
vn -0.9863 0.1638 -0.0212
vn -0.9941 0.0039 -0.1085
vn 0.0044 -0.8799 -0.4752
vn 0.0141 0.8649 -0.5017
vn -0.0056 -0.9999 0.0152
vn 0.9998 -0.0053 0.0190
vn 0.0189 -0.0153 -0.9997
vn 0.0056 0.9999 -0.0152
vn -0.0189 0.0153 0.9997
vn -0.9998 0.0053 -0.0190
vn 0.9867 -0.1391 -0.0839
vn 0.9812 0.1769 -0.0776
vn 0.9854 -0.1427 0.0930
vn 0.9798 0.1733 0.0994
vn -0.9798 -0.1734 -0.0994
vn -0.9854 0.1427 -0.0930
vn -0.9812 -0.1769 0.0776
vn -0.9867 0.1391 0.0839
vn 0.9899 -0.1415 0.0046
vn 0.9965 0.0191 -0.0818
vn 0.9844 0.1758 0.0109
vn 0.9951 0.0155 0.0974
vn 0.0117 -0.8820 0.4710
vn -0.0190 0.8624 0.5059
vn -0.9965 -0.0191 0.0818
vn -0.9844 -0.1758 -0.0109
vn -0.9899 0.1414 -0.0046
vn -0.9951 -0.0155 -0.0974
vn 0.0190 -0.8624 -0.5059
vn -0.0117 0.8820 -0.4710
vn 0.0176 -0.9996 -0.0200
vn 0.9998 0.0174 0.0078
vn 0.0075 0.0201 -0.9998
vn -0.0176 0.9996 0.0200
vn -0.0075 -0.0201 0.9998
vn -0.9998 -0.0174 -0.0078
vn -0.5054 -0.8617 -0.0451
vn 0.6110 0.7886 -0.0693
vn -0.5036 -0.8613 0.0678
vn 0.6128 0.7891 0.0436
vn -0.6128 -0.7890 -0.0436
vn 0.5036 0.8613 -0.0678
vn -0.6110 -0.7886 0.0692
vn 0.5054 0.8617 0.0451
vn -0.5053 -0.8629 0.0114
vn 0.6141 -0.4252 -0.6649
vn 0.6129 0.7901 -0.0128
vn 0.6350 -0.4200 0.6484
vn -0.5585 -0.8267 0.0687
vn 0.5603 0.8271 0.0444
vn -0.6141 0.4252 0.6649
vn -0.6129 -0.7901 0.0128
vn 0.5053 0.8629 -0.0114
vn -0.6350 0.4200 -0.6484
vn -0.5603 -0.8271 -0.0444
vn 0.5585 0.8267 -0.0687
vn -0.5603 -0.8282 0.0121
vn 0.8282 -0.5604 -0.0109
vn -0.0159 -0.0039 -0.9999
vn 0.5603 0.8282 -0.0121
vn 0.0159 0.0039 0.9999
vn -0.8282 0.5604 0.0109
vn 0.6257 -0.7768 -0.0710
vn -0.5203 0.8530 -0.0414
vn 0.6264 -0.7784 0.0418
vn -0.5197 0.8514 0.0715
vn 0.5197 -0.8514 -0.0715
vn -0.6264 0.7784 -0.0419
vn 0.5203 -0.8530 0.0414
vn -0.6257 0.7768 0.0710
vn 0.6271 -0.7788 -0.0146
vn 0.6132 0.4431 -0.6540
vn -0.5208 0.8535 0.0151
vn 0.6207 0.4245 0.6593
vn 0.5746 -0.8174 0.0417
vn -0.5739 0.8158 0.0714
vn -0.6131 -0.4431 0.6540
vn 0.5208 -0.8535 -0.0151
vn -0.6271 0.7788 0.0146
vn -0.6207 -0.4245 -0.6593
vn 0.5739 -0.8158 -0.0714
vn -0.5746 0.8174 -0.0417
vn 0.5752 -0.8179 -0.0149
vn 0.8180 0.5752 0.0035
vn -0.0057 0.0142 -0.9999
vn -0.5752 0.8179 0.0149
vn 0.0057 -0.0142 0.9999
vn -0.8180 -0.5752 -0.0035
vn 0.4056 -0.9117 -0.0653
vn 0.4364 0.8971 -0.0685
vn 0.4074 -0.9116 0.0553
vn 0.4384 0.8973 0.0521
vn -0.4384 -0.8973 -0.0521
vn -0.4075 0.9115 -0.0553
vn -0.4365 -0.8971 0.0685
vn -0.4056 0.9117 0.0653
vn 0.4074 -0.9132 -0.0050
vn 0.9875 -0.0171 -0.1569
vn 0.4382 0.8988 -0.0082
vn 0.9919 -0.0167 0.1259
vn -0.0160 -0.9975 0.0683
vn 0.0181 0.9977 0.0648
vn -0.9875 0.0171 0.1569
vn -0.4383 -0.8988 0.0082
vn -0.4074 0.9132 0.0050
vn -0.9919 0.0167 -0.1259
vn -0.0181 -0.9977 -0.0648
vn 0.0160 0.9975 -0.0683
vn -0.0171 -0.9999 0.0018
vn 0.9997 -0.0171 -0.0157
vn -0.0157 -0.0015 -0.9999
vn 0.0171 0.9999 -0.0018
vn 0.0157 0.0015 0.9999
vn -0.9997 0.0171 0.0157
vn 0.0485 -0.7507 -0.6589
vn 0.0295 0.7339 -0.6787
vn 0.0688 -0.7326 0.6772
vn 0.0497 0.7519 0.6574
vn -0.0497 -0.7519 -0.6574
vn -0.0688 0.7326 -0.6772
vn -0.0295 -0.7339 0.6787
vn -0.0485 0.7507 0.6589
vn 0.0788 -0.9968 0.0123
vn 0.0582 -0.0126 -0.9982
vn 0.0532 0.9985 -0.0143
vn 0.0885 0.0144 0.9960
vn 0.0197 -0.7341 0.6788
vn 0.0006 0.7522 0.6589
vn -0.0582 0.0126 0.9982
vn -0.0532 -0.9985 0.0143
vn -0.0788 0.9968 -0.0123
vn -0.0885 -0.0144 -0.9960
vn -0.0006 -0.7522 -0.6589
vn -0.0197 0.7341 -0.6787
vn 0.0128 -0.9998 0.0133
vn 0.9998 0.0126 -0.0154
vn -0.0152 -0.0135 -0.9998
vn -0.0128 0.9998 -0.0133
vn 0.0152 0.0135 0.9998
vn -0.9998 -0.0126 0.0154
vn -0.0659 -0.9592 -0.2750
vn -0.6510 -0.7121 -0.2628
vn 0.2743 -0.9493 -0.1535
vn 0.2638 -0.9420 0.2076
vn -0.0830 -0.9473 0.3093
vn -0.8801 -0.3807 -0.2836
vn 0.0105 -0.3749 -0.9270
vn 0.8972 -0.3423 -0.2790
vn 0.5546 -0.3278 0.7648
vn -0.5439 -0.3516 0.7620
vn -0.7810 -0.1659 -0.6021
vn 0.3364 -0.1486 -0.9299
vn 0.9929 -0.1143 0.0314
vn 0.2813 -0.1104 0.9532
vn -0.8150 -0.1423 0.5617
vn -0.3906 0.6710 -0.6303
vn 0.4548 0.6906 -0.5623
vn 0.6510 0.7121 0.2628
vn -0.0731 0.7057 0.7047
vn -0.7168 0.6803 0.1528
vn -0.2743 0.9493 0.1535
vn -0.4924 0.8143 0.3073
vn -0.4260 0.6955 0.5787
vn 0.0659 0.9592 0.2750
vn 0.1439 0.8328 0.5345
vn 0.4220 0.7134 0.5595
vn 0.2867 0.9580 -0.0110
vn 0.5570 0.8305 -0.0005
vn 0.6661 0.7017 -0.2529
vn 0.0830 0.9473 -0.3093
vn 0.1759 0.8106 -0.5585
vn -0.0309 0.6765 -0.7358
vn -0.2638 0.9420 -0.2076
vn -0.4726 0.8006 -0.3683
vn -0.7059 0.6727 -0.2218
vn -0.8972 0.3423 0.2790
vn -0.8128 0.1973 0.5481
vn -0.5980 0.3579 0.7172
vn -0.0105 0.3749 0.9270
vn 0.2708 0.2287 0.9351
vn 0.4988 0.3828 0.7776
vn 0.8801 0.3807 0.2836
vn 0.9741 0.2249 0.0239
vn 0.8957 0.3699 -0.2469
vn 0.5439 0.3516 -0.7620
vn 0.3252 0.1910 -0.9262
vn 0.0441 0.3371 -0.9404
vn -0.5546 0.3278 -0.7648
vn -0.7792 0.1740 -0.6022
vn -0.8790 0.3296 -0.3446
vn -0.3364 0.1486 0.9299
vn -0.3252 -0.1910 0.9262
vn -0.0441 -0.3371 0.9404
vn 0.7810 0.1659 0.6021
vn 0.7792 -0.1740 0.6022
vn 0.8790 -0.3296 0.3446
vn 0.8150 0.1423 -0.5617
vn 0.8128 -0.1973 -0.5481
vn 0.5980 -0.3579 -0.7172
vn -0.2813 0.1104 -0.9532
vn -0.2708 -0.2287 -0.9351
vn -0.4988 -0.3828 -0.7776
vn -0.9929 0.1143 -0.0314
vn -0.9741 -0.2249 -0.0239
vn -0.8957 -0.3699 0.2469
vn -0.4548 -0.6906 0.5623
vn -0.1759 -0.8106 0.5585
vn 0.0309 -0.6765 0.7358
vn 0.3906 -0.6710 0.6303
vn 0.4726 -0.8006 0.3683
vn 0.7059 -0.6727 0.2218
vn 0.7168 -0.6803 -0.1528
vn 0.4924 -0.8143 -0.3073
vn 0.4260 -0.6955 -0.5787
vn -0.6661 -0.7017 0.2529
vn -0.5570 -0.8305 0.0005
vn -0.2867 -0.9580 0.0110
vn 0.0731 -0.7057 -0.7047
vn -0.1439 -0.8328 -0.5345
vn -0.4220 -0.7134 -0.5595
vn -0.1715 -0.9201 -0.3520
vn -0.7925 -0.5485 -0.2666
vn 0.2789 -0.9370 -0.2103
vn 0.2840 -0.9224 0.2619
vn -0.1633 -0.8964 0.4120
vn -0.9379 -0.2337 -0.2563
vn -0.0483 -0.2979 -0.9534
vn 0.8904 -0.3224 -0.3212
vn 0.5810 -0.2735 0.7666
vn -0.5490 -0.2186 0.8067
vn -0.8150 -0.0804 -0.5738
vn 0.2921 -0.1446 -0.9454
vn 0.9890 -0.1480 -0.0060
vn 0.3125 -0.0859 0.9460
vn -0.8024 -0.0441 0.5951
vn -0.4251 0.5758 -0.6984
vn 0.5334 0.5316 -0.6579
vn 0.7925 0.5485 0.2666
vn -0.0059 0.6031 0.7976
vn -0.7584 0.6200 0.2012
vn -0.2789 0.9370 0.2103
vn -0.5195 0.7613 0.3881
vn -0.4104 0.6183 0.6703
vn 0.1715 0.9201 0.3520
vn 0.2545 0.7323 0.6317
vn 0.5470 0.5711 0.6121
vn 0.4448 0.8950 -0.0326
vn 0.7240 0.6891 -0.0292
vn 0.7862 0.5304 -0.3171
vn 0.1633 0.8964 -0.4120
vn 0.2403 0.6915 -0.6812
vn -0.0234 0.5525 -0.8332
vn -0.2840 0.9224 -0.2619
vn -0.5282 0.7361 -0.4233
vn -0.7629 0.6068 -0.2229
vn -0.8904 0.3224 0.3212
vn -0.7854 0.2069 0.5834
vn -0.5646 0.3209 0.7605
vn 0.0483 0.2979 0.9534
vn 0.3224 0.1654 0.9320
vn 0.5661 0.2679 0.7796
vn 0.9379 0.2337 0.2563
vn 0.9945 0.1037 -0.0139
vn 0.9320 0.2167 -0.2904
vn 0.5490 0.2186 -0.8067
vn 0.3021 0.1071 -0.9472
vn 0.0276 0.2381 -0.9708
vn -0.5810 0.2735 -0.7666
vn -0.7979 0.1709 -0.5781
vn -0.8973 0.3025 -0.3214
vn -0.2921 0.1446 0.9454
vn -0.3021 -0.1071 0.9472
vn -0.0276 -0.2381 0.9708
vn 0.8150 0.0804 0.5738
vn 0.7979 -0.1709 0.5781
vn 0.8973 -0.3025 0.3214
vn 0.8024 0.0441 -0.5951
vn 0.7854 -0.2069 -0.5834
vn 0.5646 -0.3209 -0.7605
vn -0.3125 0.0859 -0.9460
vn -0.3224 -0.1654 -0.9320
vn -0.5661 -0.2679 -0.7796
vn -0.9890 0.1480 0.0060
vn -0.9945 -0.1037 0.0139
vn -0.9320 -0.2167 0.2904
vn -0.5334 -0.5316 0.6579
vn -0.2403 -0.6915 0.6812
vn 0.0234 -0.5525 0.8332
vn 0.4251 -0.5758 0.6984
vn 0.5282 -0.7361 0.4233
vn 0.7629 -0.6068 0.2229
vn 0.7584 -0.6200 -0.2012
vn 0.5195 -0.7613 -0.3881
vn 0.4104 -0.6183 -0.6703
vn -0.7862 -0.5304 0.3171
vn -0.7240 -0.6891 0.0292
vn -0.4448 -0.8950 0.0326
vn 0.0059 -0.6031 -0.7976
vn -0.2545 -0.7323 -0.6317
vn -0.5470 -0.5711 -0.6121
vn -0.5708 -0.5464 0.6129
vn -0.5605 0.5735 0.5975
vn -0.8332 -0.5495 -0.0627
vn -0.8186 0.5705 -0.0672
vn -0.4685 -0.5529 -0.6890
vn -0.4599 0.5671 -0.6833
vn 0.2485 -0.5541 -0.7945
vn 0.2455 0.5659 -0.7871
vn 0.7780 -0.5522 -0.2996
vn 0.7664 0.5678 -0.3003
vn 0.7213 -0.5485 0.4229
vn 0.7106 0.5714 0.4105
vn 0.1210 -0.5460 0.8290
vn 0.1201 0.5739 0.8101
vn -0.6650 -0.6996 0.2615
vn -0.6532 0.7146 0.2504
vn -0.6827 0.0219 0.7304
vn -0.9968 0.0182 -0.0784
vn -0.6166 -0.7027 -0.3551
vn -0.6056 0.7115 -0.3564
vn -0.5603 0.0141 -0.8282
vn -0.1044 -0.7049 -0.7016
vn -0.1014 0.7093 -0.6975
vn 0.2981 0.0126 -0.9544
vn 0.4860 -0.7045 -0.5172
vn 0.4796 0.7097 -0.5160
vn 0.9320 0.0150 -0.3620
vn 0.7099 -0.7018 0.0593
vn 0.7000 0.7123 0.0514
vn 0.8641 0.0193 0.5029
vn 0.3987 -0.6989 0.5938
vn 0.3937 0.7152 0.5774
vn 0.1455 0.0224 0.9891
vn -0.2132 -0.6979 0.6838
vn -0.2085 0.7162 0.6660
vn -0.0009 -1.0000 0.0050
vn -0.9320 0.0186 0.3619
vn -0.2981 0.0209 0.9543
vn 0.0009 1.0000 -0.0050
vn -0.8641 0.0142 -0.5031
vn -0.1455 0.0111 -0.9893
vn 0.6827 0.0116 -0.7306
vn 0.9968 0.0153 0.0782
vn 0.5603 0.0195 0.8280
vn -0.5526 -0.5460 -0.6297
vn -0.5567 0.5737 -0.6008
vn 0.1429 -0.5344 -0.8330
vn 0.1276 0.5850 -0.8009
vn 0.7357 -0.5345 -0.4161
vn 0.7107 0.5850 -0.3907
vn 0.7793 -0.5461 0.3073
vn 0.7537 0.5736 0.3209
vn 0.2410 -0.5605 0.7923
vn 0.2241 0.5594 0.7981
vn -0.4740 -0.5669 0.6738
vn -0.4793 0.5531 0.6814
vn -0.8272 -0.5604 0.0409
vn -0.8268 0.5595 0.0589
vn -0.1919 -0.6922 -0.6957
vn -0.2053 0.7215 -0.6612
vn -0.6695 0.0223 -0.7425
vn 0.1632 0.0361 -0.9859
vn 0.4182 -0.6868 -0.5946
vn 0.3952 0.7269 -0.5617
vn 0.8728 0.0360 -0.4867
vn 0.7196 -0.6923 -0.0545
vn 0.6918 0.7214 -0.0302
vn 0.9250 0.0221 0.3792
vn 0.4853 -0.7046 0.5177
vn 0.4612 0.7093 0.5331
vn 0.2806 0.0048 0.9598
vn -0.1083 -0.7145 0.6912
vn -0.1230 0.6996 0.7039
vn -0.5754 -0.0028 0.8179
vn -0.6141 -0.7144 0.3354
vn -0.6208 0.6997 0.3536
vn -0.9982 0.0050 0.0603
vn -0.6513 -0.7045 -0.2819
vn -0.6575 0.7094 -0.2539
vn 0.0117 -0.9998 -0.0168
vn -0.2810 0.0287 -0.9593
vn -0.9255 0.0114 -0.3786
vn -0.0117 0.9998 0.0168
vn 0.5750 0.0363 -0.8174
vn 0.9978 0.0286 -0.0598
vn 0.6691 0.0113 0.7431
vn -0.1636 -0.0025 0.9865
vn -0.8732 -0.0025 0.4873
vn 0.0114 -0.9732 0.2297
vn -0.9863 0.1639 -0.0212
vn -0.9941 0.0039 -0.1086
vn -0.0055 -0.9999 0.0152
vn -0.6132 -0.4431 0.6540
vn 0.4072 -0.9133 -0.0050
vn -0.4382 -0.8988 0.0082
vn -0.4072 0.9133 0.0050
vn 0.0197 -0.7341 0.6787
vn -0.0197 0.7341 -0.6788
vn -0.6650 -0.6995 0.2615
vn -0.0000 1.0000 -0.0000
vn -0.0000 -0.0100 -1.0000
vn 1.0000 0.0031 -0.0000
vn 0.0010 1.0000 -0.0050
vn -0.6513 -0.7045 -0.2818
vn -0.9989 -0.0473 -0.0000
vt 0.128500 0.746500
vt 0.128500 0.750000
vt 0.125000 0.746500
vt 0.621500 0.996500
vt 0.625000 0.996500
vt 0.621500 1.000000
vt 0.128500 0.503500
vt 0.125000 0.503500
vt 0.128500 0.500000
vt 0.625000 0.250015
vt 0.621500 0.253500
vt 0.621500 0.246501
vt 0.371500 0.746500
vt 0.378499 0.746500
vt 0.378362 0.753431
vt 0.628431 0.746638
vt 0.621500 0.753500
vt 0.621500 0.746501
vt 0.371500 0.503500
vt 0.378362 0.496569
vt 0.378499 0.503500
vt 0.628431 0.503363
vt 0.621500 0.503500
vt 0.621500 0.496501
vt 0.621500 0.000000
vt 0.378500 0.003500
vt 0.378500 0.000000
vt 0.621500 0.003500
vt 0.625000 0.003500
vt 0.378500 0.253500
vt 0.378500 0.246500
vt 0.378500 0.996500
vt 0.871500 0.503500
vt 0.621500 0.246501
vt 0.378499 0.746500
vt 0.621500 0.496501
vt 0.871500 0.746500
vt 0.378362 0.496569
vt 0.128500 0.746500
vt 0.181819 0.000000
vt 0.227273 0.078731
vt 0.136365 0.078731
vt 0.272728 0.157461
vt 0.318182 0.078731
vt 0.363637 0.157461
vt 0.909091 0.000000
vt 0.954545 0.078731
vt 0.863636 0.078731
vt 0.727273 0.000000
vt 0.772727 0.078731
vt 0.681818 0.078731
vt 0.545455 0.000000
vt 0.590909 0.078731
vt 0.500000 0.078731
vt 0.318182 0.236191
vt 0.090910 0.157461
vt 0.181819 0.157461
vt 0.136365 0.236191
vt 0.818182 0.157461
vt 0.909091 0.157461
vt 0.863636 0.236191
vt 0.636364 0.157461
vt 0.727273 0.157461
vt 0.681818 0.236191
vt 0.454546 0.157461
vt 0.545455 0.157461
vt 0.500000 0.236191
vt 0.227273 0.236191
vt 0.045455 0.236191
vt 0.772727 0.236191
vt 0.590909 0.236191
vt 0.409092 0.236191
vt 0.181819 0.314921
vt 0.272728 0.314921
vt 0.227273 0.393651
vt 0.000000 0.314921
vt 0.090910 0.314921
vt 0.045455 0.393651
vt 0.727273 0.314921
vt 0.818182 0.314921
vt 0.772727 0.393651
vt 0.545455 0.314921
vt 0.636364 0.314921
vt 0.590909 0.393651
vt 0.363637 0.314921
vt 0.454546 0.314921
vt 0.409092 0.393651
vt 0.500000 0.393651
vt 0.454546 0.472382
vt 0.681818 0.393651
vt 0.636364 0.472382
vt 0.863636 0.393651
vt 0.818182 0.472382
vt 0.909091 0.314921
vt 0.136365 0.393651
vt 0.090910 0.472382
vt 0.318182 0.393651
vt 0.272728 0.472382
vt 0.954545 0.236191
vt 1.000000 0.157461
vt 0.409092 0.078731
vt 0.363637 0.000000
vt 0.750000 0.394087
vt 0.671816 0.451655
vt 0.828184 0.451655
vt 0.250000 0.373534
vt 0.343820 0.444819
vt 0.156180 0.444819
vt 0.862651 0.339837
vt 0.858913 0.436857
vt 0.956407 0.314603
vt 0.346583 0.327022
vt 0.460811 0.298116
vt 0.343820 0.444819
vt 0.890474 0.217938
vt 0.963996 0.281352
vt 0.929201 0.128904
vt 0.370437 0.222511
vt 0.419057 0.115181
vt 0.460811 0.298116
vt 0.812517 0.120182
vt 0.907936 0.102238
vt 0.767053 0.034393
vt 0.303599 0.138700
vt 0.250000 0.033767
vt 0.419057 0.115181
vt 0.687483 0.120182
vt 0.732947 0.034393
vt 0.592064 0.102238
vt 0.196401 0.138700
vt 0.080943 0.115181
vt 0.250000 0.033767
vt 0.609526 0.217938
vt 0.570799 0.128904
vt 0.536004 0.281352
vt 0.129563 0.222511
vt 0.039189 0.298116
vt 0.080943 0.115181
vt 0.637349 0.339837
vt 0.543593 0.314603
vt 0.641087 0.436857
vt 0.153417 0.327022
vt 0.156180 0.444819
vt 0.039189 0.298116
vt 0.071429 0.981999
vt 0.000000 0.518139
vt 0.059681 0.518001
vt 0.797462 0.518001
vt 0.928571 0.981999
vt 0.785714 0.981999
vt 0.654605 0.518001
vt 0.785714 0.981999
vt 0.642857 0.981999
vt 0.500000 0.981999
vt 0.631110 0.518001
vt 0.368890 0.518001
vt 0.357143 0.981999
vt 0.226033 0.518001
vt 0.357143 0.981999
vt 0.214286 0.981999
vt 0.083176 0.518001
vt 0.214286 0.981999
vt 0.071429 0.981999
vt 0.940319 0.518001
vt 0.916824 0.518001
vt 0.773967 0.518001
vt 0.511748 0.518001
vt 0.488253 0.518001
vt 0.345395 0.518001
vt 0.202538 0.518001
vt 0.000000 0.982137
vt 0.928571 0.981999
s 0
usemtl stone
f 1/1/1 2/2/1 3/3/1
f 4/4/2 5/5/2 6/6/2
f 7/7/3 8/8/3 9/9/3
f 10/10/4 11/11/4 12/12/4
f 13/13/5 14/14/5 15/15/5
f 16/16/6 17/17/6 18/18/6
f 19/19/7 20/20/7 21/21/7
f 22/22/8 23/23/8 24/24/8
f 1/1/9 8/8/9 7/7/9
f 4/25/10 3/26/10 2/27/10
f 10/10/11 6/28/11 5/29/11
f 9/30/12 12/12/12 11/11/12
f 19/19/13 9/9/13 20/20/13
f 22/22/14 11/11/14 10/10/14
f 21/21/15 24/24/15 23/23/15
f 19/19/16 14/14/16 13/13/16
f 16/16/17 23/23/17 22/22/17
f 15/15/18 18/18/18 17/17/18
f 1/1/19 15/15/19 2/2/19
f 5/5/20 17/17/20 16/16/20
f 7/7/21 13/13/21 1/1/21
f 6/28/22 8/31/22 3/26/22
f 17/17/23 2/32/23 15/15/23
f 10/33/24 16/16/24 22/22/24
f 9/30/25 24/24/25 20/20/25
f 23/23/26 14/14/26 21/21/26
f 25/1/27 26/2/27 27/3/27
f 28/4/28 29/5/28 30/6/28
f 31/7/29 32/8/29 33/9/29
f 34/10/30 35/11/30 36/34/30
f 37/13/31 38/35/31 39/15/31
f 40/16/32 41/17/32 42/18/32
f 43/19/33 44/20/33 45/21/33
f 46/22/34 47/23/34 48/36/34
f 31/7/35 27/3/35 32/8/35
f 28/25/36 27/26/36 26/27/36
f 34/10/37 30/28/37 29/29/37
f 35/11/38 32/31/38 36/34/38
f 31/7/39 44/20/39 43/19/39
f 46/22/40 35/11/40 34/10/40
f 45/21/41 48/36/41 47/23/41
f 43/19/42 38/35/42 37/13/42
f 40/16/43 47/23/43 46/22/43
f 39/15/44 42/18/44 41/17/44
f 37/13/45 26/2/45 25/1/45
f 29/5/46 41/17/46 40/16/46
f 43/19/47 25/1/47 31/7/47
f 30/28/48 32/31/48 27/26/48
f 41/17/49 26/32/49 39/15/49
f 34/33/50 40/16/50 46/22/50
f 35/11/51 44/20/51 33/30/51
f 47/23/52 38/35/52 45/21/52
f 49/1/53 50/2/53 51/3/53
f 52/4/54 53/5/54 54/6/54
f 55/7/55 56/8/55 57/9/55
f 58/10/56 59/11/56 60/34/56
f 61/13/57 62/35/57 63/15/57
f 64/16/58 65/17/58 66/18/58
f 67/19/59 68/20/59 69/21/59
f 70/22/60 71/23/60 72/36/60
f 55/7/61 51/3/61 56/8/61
f 52/25/62 51/26/62 50/27/62
f 53/29/63 60/34/63 54/28/63
f 57/30/64 60/34/64 59/11/64
f 67/19/65 57/9/65 68/20/65
f 70/22/66 59/11/66 58/10/66
f 69/21/67 72/36/67 71/23/67
f 67/19/68 62/35/68 61/13/68
f 64/16/69 71/23/69 70/22/69
f 63/15/70 66/18/70 65/17/70
f 61/13/71 50/2/71 49/1/71
f 53/5/72 65/17/72 64/16/72
f 67/19/73 49/1/73 55/7/73
f 54/28/74 56/31/74 51/26/74
f 63/15/75 52/4/75 50/32/75
f 70/22/76 53/37/76 64/16/76
f 59/11/77 68/20/77 57/30/77
f 71/23/78 62/35/78 69/21/78
f 1/1/9 3/3/9 8/8/9
f 4/25/10 6/28/10 3/26/10
f 10/10/11 12/12/11 6/28/11
f 9/30/12 8/31/12 12/12/12
f 19/19/535 7/7/535 9/9/535
f 22/22/14 24/24/14 11/11/14
f 21/21/15 20/20/15 24/24/15
f 19/19/16 21/21/16 14/14/16
f 16/16/17 18/18/17 23/23/17
f 15/15/18 14/14/18 18/18/18
f 1/1/19 13/13/19 15/15/19
f 5/5/20 4/4/20 17/17/20
f 7/7/21 19/19/21 13/13/21
f 6/28/22 12/12/22 8/31/22
f 17/17/23 4/4/23 2/32/23
f 10/33/24 5/37/24 16/16/24
f 9/30/25 11/11/25 24/24/25
f 23/23/26 18/18/26 14/14/26
f 31/7/35 25/1/35 27/3/35
f 28/25/36 30/28/36 27/26/36
f 34/10/37 36/34/37 30/28/37
f 35/11/38 33/30/38 32/31/38
f 31/7/39 33/9/39 44/20/39
f 46/22/40 48/36/40 35/11/40
f 45/21/41 44/20/41 48/36/41
f 43/19/42 45/21/42 38/35/42
f 40/16/43 42/18/43 47/23/43
f 39/15/44 38/35/44 42/18/44
f 37/13/45 39/15/45 26/2/45
f 29/5/46 28/4/46 41/17/46
f 43/19/47 37/13/47 25/1/47
f 30/28/48 36/34/48 32/31/48
f 41/17/49 28/4/49 26/32/49
f 34/33/50 29/37/50 40/16/50
f 35/11/51 48/36/51 44/20/51
f 47/23/52 42/18/52 38/35/52
f 55/7/61 49/1/61 51/3/61
f 52/25/62 54/28/62 51/26/62
f 53/29/63 58/10/63 60/34/63
f 57/30/64 56/31/64 60/34/64
f 67/19/65 55/7/65 57/9/65
f 70/22/66 72/36/66 59/11/66
f 69/21/67 68/20/67 72/36/67
f 67/19/68 69/21/68 62/35/68
f 64/16/69 66/18/69 71/23/69
f 63/15/70 62/35/70 66/18/70
f 61/13/71 63/15/71 50/2/71
f 53/5/72 52/4/72 65/17/72
f 67/19/73 61/13/73 49/1/73
f 54/28/74 60/34/74 56/31/74
f 63/15/75 65/17/75 52/4/75
f 70/22/76 58/33/76 53/37/76
f 59/11/77 72/36/77 68/20/77
f 71/23/78 66/18/78 62/35/78
usemtl wood
f 73/1/79 74/2/79 75/3/79
f 76/4/80 77/5/80 78/6/80
f 79/7/81 80/8/81 81/9/81
f 82/10/82 83/11/82 84/34/82
f 85/13/83 86/14/83 87/15/83
f 88/16/84 89/17/84 90/18/84
f 91/19/85 92/38/85 93/21/85
f 94/22/86 95/23/86 96/36/86
f 73/1/87 80/8/87 79/7/87
f 74/27/88 78/28/88 75/26/88
f 77/29/89 84/34/89 78/28/89
f 81/30/90 84/34/90 83/11/90
f 79/7/91 92/38/91 91/19/91
f 82/10/92 96/36/92 83/11/92
f 93/21/93 96/36/93 95/23/93
f 85/13/94 93/21/94 86/14/94
f 94/22/95 90/18/95 95/23/95
f 89/17/96 86/14/96 90/18/96
f 73/1/97 87/15/97 74/2/97
f 88/16/98 76/4/98 89/17/98
f 91/19/99 73/1/99 79/7/99
f 78/28/100 80/31/100 75/26/100
f 89/17/101 74/32/101 87/15/101
f 82/33/102 88/16/102 94/22/102
f 83/11/103 92/38/103 81/30/103
f 93/21/104 90/18/104 86/14/104
f 97/39/105 98/2/105 99/3/105
f 100/4/106 101/5/106 102/6/106
f 103/7/107 104/8/107 105/9/107
f 106/10/108 107/11/108 108/34/108
f 109/13/109 110/14/109 111/15/109
f 112/16/110 113/17/110 114/18/110
f 115/19/111 116/20/111 117/21/111
f 118/22/112 119/23/112 120/36/112
f 97/39/113 104/8/113 103/7/113
f 98/27/114 102/28/114 99/26/114
f 106/10/115 102/28/115 101/29/115
f 105/30/116 108/34/116 107/11/116
f 103/7/117 116/20/117 115/19/117
f 118/22/118 107/11/118 106/10/118
f 117/21/119 120/36/119 119/23/119
f 109/13/120 117/21/120 110/14/120
f 112/16/121 119/23/121 118/22/121
f 111/15/122 114/18/122 113/17/122
f 109/13/123 98/2/123 97/39/123
f 112/16/124 100/4/124 113/17/124
f 103/7/125 109/13/125 97/39/125
f 99/26/126 108/34/126 104/31/126
f 111/15/127 100/4/127 98/32/127
f 118/22/128 101/37/128 112/16/128
f 107/11/129 116/20/129 105/30/129
f 119/23/130 110/14/130 117/21/130
f 121/1/131 122/2/131 123/3/131
f 124/4/132 125/5/132 126/6/132
f 127/7/133 128/8/133 129/9/133
f 130/10/134 131/11/134 132/12/134
f 133/13/135 134/14/135 135/15/135
f 136/16/136 137/17/136 138/18/136
f 139/19/137 140/20/137 141/21/137
f 142/22/138 143/23/138 144/24/138
f 121/1/139 128/8/139 127/7/139
f 124/25/140 123/26/140 122/27/140
f 125/29/141 132/12/141 126/28/141
f 129/30/142 132/12/142 131/11/142
f 127/7/143 140/20/143 139/19/143
f 130/10/144 144/24/144 131/11/144
f 141/21/145 144/24/145 143/23/145
f 139/19/146 134/14/146 133/13/146
f 142/22/147 138/18/147 143/23/147
f 137/17/148 134/14/148 138/18/148
f 133/13/149 122/2/149 121/1/149
f 125/5/150 137/17/150 136/16/150
f 127/7/151 133/13/151 121/1/151
f 126/28/152 128/31/152 123/26/152
f 135/15/153 124/4/153 122/32/153
f 130/33/154 136/16/154 142/22/154
f 131/11/155 140/20/155 129/30/155
f 143/23/156 134/14/156 141/21/156
f 145/1/157 146/2/157 147/3/157
f 148/4/158 149/5/158 150/6/158
f 151/7/159 152/8/159 153/9/159
f 154/10/160 155/11/160 156/34/160
f 157/13/161 158/35/161 159/15/161
f 160/16/162 161/17/162 162/18/162
f 163/19/163 164/20/163 165/21/163
f 166/22/164 167/23/164 168/36/164
f 145/1/165 152/8/165 151/7/165
f 148/25/166 147/26/166 146/27/166
f 154/10/167 150/28/167 149/29/167
f 153/30/168 156/34/168 155/11/168
f 163/19/169 153/9/169 164/20/169
f 166/22/170 155/11/170 154/10/170
f 165/21/171 168/36/171 167/23/171
f 157/13/172 165/21/172 158/35/172
f 160/16/173 167/23/173 166/22/173
f 161/17/174 158/35/174 162/18/174
f 157/13/175 146/2/175 145/1/175
f 149/5/176 161/17/176 160/16/176
f 163/19/177 145/1/177 151/7/177
f 150/28/178 152/31/178 147/26/178
f 161/17/179 146/32/179 159/15/179
f 166/22/180 149/37/180 160/16/180
f 153/30/181 168/36/181 164/20/181
f 167/23/182 158/35/182 165/21/182
f 169/1/183 170/2/183 171/3/183
f 172/4/184 173/5/184 174/6/184
f 175/7/185 176/8/185 177/9/185
f 178/10/186 179/11/186 180/34/186
f 181/13/187 182/14/187 183/15/187
f 184/16/188 185/17/188 186/18/188
f 187/19/189 188/38/189 189/21/189
f 190/22/190 191/23/190 192/36/190
f 169/1/191 176/8/191 175/7/191
f 172/25/192 171/26/192 170/27/192
f 178/10/193 174/28/193 173/29/193
f 177/30/194 180/34/194 179/11/194
f 175/7/195 188/38/195 187/19/195
f 178/10/196 192/36/196 179/11/196
f 189/21/197 192/36/197 191/23/197
f 187/19/198 182/14/198 181/13/198
f 184/16/199 191/23/199 190/22/199
f 185/17/200 182/14/200 186/18/200
f 169/1/201 183/15/201 170/2/201
f 173/5/202 185/17/202 184/16/202
f 187/19/203 169/1/203 175/7/203
f 171/26/204 180/34/204 176/31/204
f 183/15/205 172/4/205 170/32/205
f 178/33/206 184/16/206 190/22/206
f 179/11/207 188/38/207 177/30/207
f 189/21/208 186/18/208 182/14/208
f 193/1/209 194/2/209 195/3/209
f 196/4/210 197/5/210 198/6/210
f 199/7/211 200/8/211 201/9/211
f 202/10/212 203/11/212 204/34/212
f 205/13/213 206/14/213 207/15/213
f 208/16/214 209/17/214 210/18/214
f 211/19/215 212/20/215 213/21/215
f 214/22/216 215/23/216 216/36/216
f 199/7/217 195/3/217 200/8/217
f 196/25/218 195/26/218 194/27/218
f 202/10/219 198/28/219 197/29/219
f 203/11/220 200/31/220 204/34/220
f 199/7/221 212/20/221 211/19/221
f 202/10/222 216/36/222 203/11/222
f 215/23/223 212/20/223 216/36/223
f 205/13/224 213/21/224 206/14/224
f 214/22/225 210/18/225 215/23/225
f 207/15/226 210/18/226 209/17/226
f 205/13/227 194/2/227 193/1/227
f 197/5/228 209/17/228 208/16/228
f 211/19/229 193/1/229 199/7/229
f 198/28/230 200/31/230 195/26/230
f 207/15/231 196/4/231 194/32/231
f 214/22/232 197/37/232 208/16/232
f 201/30/233 216/36/233 212/20/233
f 215/23/234 206/14/234 213/21/234
f 217/1/235 218/2/235 219/3/235
f 220/4/236 221/5/236 222/6/236
f 223/7/237 224/8/237 225/9/237
f 226/10/238 227/11/238 228/12/238
f 229/13/239 230/14/239 231/15/239
f 232/16/240 233/17/240 234/18/240
f 235/19/241 236/20/241 237/21/241
f 238/22/242 239/23/242 240/36/242
f 217/1/243 224/8/243 223/7/243
f 220/25/244 219/26/244 218/27/244
f 226/10/245 222/28/245 221/29/245
f 227/11/246 224/31/246 228/12/246
f 223/7/247 236/20/247 235/19/247
f 226/10/248 240/36/248 227/11/248
f 239/23/249 236/20/249 240/36/249
f 229/13/250 237/21/250 230/14/250
f 238/22/251 234/18/251 239/23/251
f 231/15/252 234/18/252 233/17/252
f 217/1/253 231/15/253 218/2/253
f 232/16/254 220/4/254 233/17/254
f 223/7/255 229/13/255 217/1/255
f 222/28/256 224/31/256 219/26/256
f 231/15/257 220/4/257 218/32/257
f 226/33/258 232/16/258 238/22/258
f 227/11/259 236/20/259 225/30/259
f 237/21/260 234/18/260 230/14/260
f 349/103/447 350/104/447 351/105/447
f 352/106/448 353/107/448 354/108/448
f 355/109/449 356/110/449 357/111/449
f 358/112/450 359/113/450 360/114/450
f 361/115/451 362/116/451 363/117/451
f 364/118/452 365/119/452 366/120/452
f 367/121/453 368/122/453 369/123/453
f 370/124/454 371/125/454 372/126/454
f 373/127/455 374/128/455 375/129/455
f 376/130/456 377/131/456 378/132/456
f 379/133/457 380/134/457 381/135/457
f 382/136/458 383/137/458 384/138/458
f 385/139/459 386/140/459 387/141/459
f 388/142/460 389/143/460 390/144/460
f 351/105/461 355/109/461 349/103/461
f 360/114/462 352/106/462 358/112/462
f 354/145/463 351/146/463 350/147/463
f 357/148/464 360/149/464 359/150/464
f 357/111/465 361/115/465 355/109/465
f 366/120/466 358/112/466 364/118/466
f 363/151/467 366/152/467 365/153/467
f 368/122/468 361/115/468 363/117/468
f 372/126/469 364/118/469 370/124/469
f 371/154/470 368/155/470 372/153/470
f 374/128/471 367/121/471 369/123/471
f 378/132/472 370/124/472 376/130/472
f 375/156/473 378/154/473 377/157/473
f 375/129/474 379/133/474 373/127/474
f 384/138/475 376/130/475 382/136/475
f 381/158/476 384/159/476 383/160/476
f 386/140/477 379/133/477 381/135/477
f 390/144/478 382/136/478 388/142/478
f 387/161/479 390/162/479 389/163/479
f 387/141/480 349/103/480 385/139/480
f 354/108/481 388/142/481 352/106/481
f 355/109/482 367/121/482 379/133/482
f 351/164/483 360/149/483 356/165/483
f 387/161/484 354/145/484 350/147/484
f 352/106/485 382/136/485 370/124/485
f 357/148/486 366/152/486 362/166/486
f 363/151/487 372/153/487 368/155/487
f 369/167/488 378/154/488 374/168/488
f 375/156/489 384/159/489 380/169/489
f 381/158/490 390/162/490 386/170/490
f 391/103/491 392/104/491 393/105/491
f 394/106/492 395/107/492 396/108/492
f 397/109/493 398/110/493 399/111/493
f 400/112/494 401/113/494 402/114/494
f 403/115/495 404/116/495 405/117/495
f 406/118/496 407/119/496 408/120/496
f 409/121/497 410/122/497 411/123/497
f 412/124/498 413/125/498 414/126/498
f 415/127/499 416/128/499 417/129/499
f 418/130/500 419/131/500 420/132/500
f 421/133/501 422/134/501 423/135/501
f 424/136/502 425/137/502 426/138/502
f 427/139/503 428/140/503 429/141/503
f 430/142/504 431/143/504 432/144/504
f 393/105/505 397/109/505 391/103/505
f 402/114/506 394/106/506 400/112/506
f 396/145/507 393/146/507 392/147/507
f 399/148/508 402/149/508 401/150/508
f 404/116/509 397/109/509 399/111/509
f 408/120/510 400/112/510 406/118/510
f 405/151/511 408/152/511 407/153/511
f 405/117/512 409/121/512 403/115/512
f 414/126/513 406/118/513 412/124/513
f 413/154/514 410/155/514 414/153/514
f 416/128/515 409/121/515 411/123/515
f 420/132/516 412/124/516 418/130/516
f 417/156/517 420/154/517 419/157/517
f 422/134/518 415/127/518 417/129/518
f 426/138/519 418/130/519 424/136/519
f 425/160/520 422/169/520 426/159/520
f 423/135/521 427/139/521 421/133/521
f 432/144/522 424/136/522 430/142/522
f 431/163/523 428/170/523 432/162/523
f 429/141/524 391/103/524 427/139/524
f 396/108/525 430/142/525 394/106/525
f 397/109/526 409/121/526 421/133/526
f 393/164/527 402/149/527 398/165/527
f 429/161/528 396/145/528 392/147/528
f 394/106/529 424/136/529 412/124/529
f 399/148/530 408/152/530 404/166/530
f 405/151/531 414/153/531 410/155/531
f 411/167/532 420/154/532 416/168/532
f 417/156/533 426/159/533 422/169/533
f 423/158/534 432/162/534 428/170/534
f 73/1/87 75/3/87 80/8/87
f 74/27/88 76/25/88 78/28/88
f 77/29/89 82/10/89 84/34/89
f 81/30/90 80/31/90 84/34/90
f 79/7/91 81/9/91 92/38/91
f 82/10/92 94/22/92 96/36/92
f 93/21/93 92/38/93 96/36/93
f 85/13/94 91/19/94 93/21/94
f 94/22/95 88/16/95 90/18/95
f 89/17/96 87/15/96 86/14/96
f 73/1/97 85/13/97 87/15/97
f 88/16/98 77/5/98 76/4/98
f 91/19/99 85/13/99 73/1/99
f 78/28/100 84/34/100 80/31/100
f 89/17/101 76/4/101 74/32/101
f 82/33/102 77/37/102 88/16/102
f 83/11/103 96/36/103 92/38/103
f 93/21/104 95/23/104 90/18/104
f 97/39/113 99/3/113 104/8/113
f 98/27/114 100/25/114 102/28/114
f 106/10/115 108/34/115 102/28/115
f 105/30/116 104/31/116 108/34/116
f 103/7/117 105/9/117 116/20/117
f 118/22/118 120/36/118 107/11/118
f 117/21/119 116/20/119 120/36/119
f 109/13/120 115/19/120 117/21/120
f 112/16/121 114/18/121 119/23/121
f 111/15/122 110/14/122 114/18/122
f 109/13/123 111/15/123 98/2/123
f 112/16/124 101/5/124 100/4/124
f 103/7/125 115/19/125 109/13/125
f 99/26/126 102/28/126 108/34/126
f 111/15/127 113/17/127 100/4/127
f 118/22/128 106/33/128 101/37/128
f 107/11/129 120/36/129 116/20/129
f 119/23/130 114/18/130 110/14/130
f 121/1/139 123/3/139 128/8/139
f 124/25/140 126/28/140 123/26/140
f 125/29/141 130/10/141 132/12/141
f 129/30/142 128/31/142 132/12/142
f 127/7/143 129/9/143 140/20/143
f 130/10/144 142/22/144 144/24/144
f 141/21/145 140/20/145 144/24/145
f 139/19/146 141/21/146 134/14/146
f 142/22/536 136/16/536 138/18/536
f 137/17/537 135/15/537 134/14/537
f 133/13/149 135/15/149 122/2/149
f 125/5/150 124/4/150 137/17/150
f 127/7/538 139/19/538 133/13/538
f 126/28/152 132/12/152 128/31/152
f 135/15/153 137/17/153 124/4/153
f 130/33/154 125/37/154 136/16/154
f 131/11/155 144/24/155 140/20/155
f 143/23/156 138/18/156 134/14/156
f 145/1/165 147/3/165 152/8/165
f 148/25/166 150/28/166 147/26/166
f 154/10/167 156/34/167 150/28/167
f 153/30/168 152/31/168 156/34/168
f 163/19/169 151/7/169 153/9/169
f 166/22/170 168/36/170 155/11/170
f 165/21/171 164/20/171 168/36/171
f 157/13/172 163/19/172 165/21/172
f 160/16/173 162/18/173 167/23/173
f 161/17/174 159/15/174 158/35/174
f 157/13/175 159/15/175 146/2/175
f 149/5/176 148/4/176 161/17/176
f 163/19/177 157/13/177 145/1/177
f 150/28/178 156/34/178 152/31/178
f 161/17/179 148/4/179 146/32/179
f 166/22/180 154/33/180 149/37/180
f 153/30/181 155/11/181 168/36/181
f 167/23/182 162/18/182 158/35/182
f 169/1/191 171/3/191 176/8/191
f 172/25/192 174/28/192 171/26/192
f 178/10/193 180/34/193 174/28/193
f 177/30/194 176/31/194 180/34/194
f 175/7/195 177/9/195 188/38/195
f 178/10/196 190/22/196 192/36/196
f 189/21/197 188/38/197 192/36/197
f 187/19/198 189/21/198 182/14/198
f 184/16/199 186/18/199 191/23/199
f 185/17/200 183/15/200 182/14/200
f 169/1/201 181/13/201 183/15/201
f 173/5/202 172/4/202 185/17/202
f 187/19/203 181/13/203 169/1/203
f 171/26/204 174/28/204 180/34/204
f 183/15/205 185/17/205 172/4/205
f 178/33/206 173/37/206 184/16/206
f 179/11/207 192/36/207 188/38/207
f 189/21/208 191/23/208 186/18/208
f 199/7/217 193/1/217 195/3/217
f 196/25/218 198/28/218 195/26/218
f 202/10/219 204/34/219 198/28/219
f 203/11/220 201/30/220 200/31/220
f 199/7/221 201/9/221 212/20/221
f 202/10/222 214/22/222 216/36/222
f 215/23/539 213/21/539 212/20/539
f 205/13/224 211/19/224 213/21/224
f 214/22/225 208/16/225 210/18/225
f 207/15/226 206/14/226 210/18/226
f 205/13/227 207/15/227 194/2/227
f 197/5/228 196/4/228 209/17/228
f 211/19/229 205/13/229 193/1/229
f 198/28/230 204/34/230 200/31/230
f 207/15/231 209/17/231 196/4/231
f 214/22/232 202/33/232 197/37/232
f 201/30/233 203/11/233 216/36/233
f 215/23/234 210/18/234 206/14/234
f 217/1/540 219/3/540 224/8/540
f 220/25/244 222/28/244 219/26/244
f 226/10/245 228/12/245 222/28/245
f 227/11/246 225/30/246 224/31/246
f 223/7/247 225/9/247 236/20/247
f 226/10/248 238/22/248 240/36/248
f 239/23/249 237/21/249 236/20/249
f 229/13/541 235/19/541 237/21/541
f 238/22/542 232/16/542 234/18/542
f 231/15/252 230/14/252 234/18/252
f 217/1/253 229/13/253 231/15/253
f 232/16/254 221/5/254 220/4/254
f 223/7/255 235/19/255 229/13/255
f 222/28/256 228/12/256 224/31/256
f 231/15/257 233/17/257 220/4/257
f 226/33/258 221/37/258 232/16/258
f 227/11/259 240/36/259 236/20/259
f 237/21/260 239/23/260 234/18/260
f 351/105/545 356/110/545 355/109/545
f 360/114/546 353/107/546 352/106/546
f 354/145/463 353/171/463 351/146/463
f 357/148/464 356/165/464 360/149/464
f 357/111/465 362/116/465 361/115/465
f 366/120/546 359/113/546 358/112/546
f 363/151/467 362/166/467 366/152/467
f 368/122/468 367/121/468 361/115/468
f 372/126/546 365/119/546 364/118/546
f 371/154/470 369/167/470 368/155/470
f 374/128/471 373/127/471 367/121/471
f 378/132/546 371/125/546 370/124/546
f 375/156/473 374/168/473 378/154/473
f 375/129/474 380/134/474 379/133/474
f 384/138/546 377/131/546 376/130/546
f 381/158/476 380/169/476 384/159/476
f 386/140/477 385/139/477 379/133/477
f 390/144/546 383/137/546 382/136/546
f 387/161/479 386/170/479 390/162/479
f 387/141/480 350/104/480 349/103/480
f 354/108/546 389/143/546 388/142/546
f 385/139/482 349/103/482 355/109/482
f 355/109/482 361/115/482 367/121/482
f 367/121/482 373/127/482 379/133/482
f 379/133/482 385/139/482 355/109/482
f 351/164/547 353/172/547 360/149/547
f 387/161/548 389/163/548 354/145/548
f 364/118/549 358/112/549 352/106/549
f 352/106/485 388/142/485 382/136/485
f 382/136/485 376/130/485 370/124/485
f 370/124/485 364/118/485 352/106/485
f 357/148/546 359/150/546 366/152/546
f 363/151/546 365/153/546 372/153/546
f 369/167/546 371/154/546 378/154/546
f 375/156/546 377/157/546 384/159/546
f 381/158/546 383/160/546 390/162/546
f 393/105/505 398/110/505 397/109/505
f 402/114/546 395/107/546 394/106/546
f 396/145/507 395/171/507 393/146/507
f 399/148/508 398/165/508 402/149/508
f 404/116/509 403/115/509 397/109/509
f 408/120/546 401/113/546 400/112/546
f 405/151/511 404/166/511 408/152/511
f 405/117/512 410/122/512 409/121/512
f 414/126/546 407/119/546 406/118/546
f 413/154/514 411/167/514 410/155/514
f 416/128/515 415/127/515 409/121/515
f 420/132/546 413/125/546 412/124/546
f 417/156/517 416/168/517 420/154/517
f 422/134/518 421/133/518 415/127/518
f 426/138/546 419/131/546 418/130/546
f 425/160/520 423/158/520 422/169/520
f 423/135/521 428/140/521 427/139/521
f 432/144/546 425/137/546 424/136/546
f 431/163/523 429/161/523 428/170/523
f 429/141/550 392/104/550 391/103/550
f 396/108/546 431/143/546 430/142/546
f 427/139/526 391/103/526 397/109/526
f 397/109/526 403/115/526 409/121/526
f 409/121/526 415/127/526 421/133/526
f 421/133/526 427/139/526 397/109/526
f 393/164/546 395/172/546 402/149/546
f 429/161/546 431/163/546 396/145/546
f 406/118/529 400/112/529 394/106/529
f 394/106/529 430/142/529 424/136/529
f 424/136/529 418/130/529 412/124/529
f 412/124/529 406/118/529 394/106/529
f 399/148/551 401/150/551 408/152/551
f 405/151/546 407/153/546 414/153/546
f 411/167/546 413/154/546 420/154/546
f 417/156/546 419/157/546 426/159/546
f 423/158/546 425/160/546 432/162/546
usemtl iron
f 241/39/261 242/2/261 243/3/261
f 244/4/262 245/5/262 246/6/262
f 247/7/263 248/8/263 249/9/263
f 250/10/264 251/11/264 252/12/264
f 253/13/265 254/35/265 255/15/265
f 256/16/266 257/17/266 258/18/266
f 259/19/267 260/20/267 261/21/267
f 262/22/268 263/23/268 264/24/268
f 241/39/269 248/8/269 247/7/269
f 242/27/270 246/28/270 243/26/270
f 245/29/271 252/12/271 246/28/271
f 249/30/272 252/12/272 251/11/272
f 259/19/273 249/9/273 260/20/273
f 262/22/274 251/11/274 250/10/274
f 263/23/275 260/20/275 264/24/275
f 259/19/276 254/35/276 253/13/276
f 262/22/277 258/18/277 263/23/277
f 255/15/278 258/18/278 257/17/278
f 253/13/279 242/2/279 241/39/279
f 256/16/280 244/4/280 257/17/280
f 247/7/281 253/13/281 241/39/281
f 243/26/282 252/12/282 248/31/282
f 257/17/283 242/32/283 255/15/283
f 262/22/284 245/37/284 256/16/284
f 251/11/285 260/20/285 249/30/285
f 261/21/286 258/18/286 254/35/286
f 241/39/269 243/3/269 248/8/269
f 242/27/270 244/25/270 246/28/270
f 245/29/271 250/10/271 252/12/271
f 249/30/272 248/31/272 252/12/272
f 259/19/543 247/7/543 249/9/543
f 262/22/274 264/24/274 251/11/274
f 263/23/275 261/21/275 260/20/275
f 259/19/276 261/21/276 254/35/276
f 262/22/277 256/16/277 258/18/277
f 255/15/278 254/35/278 258/18/278
f 253/13/279 255/15/279 242/2/279
f 256/16/544 245/5/544 244/4/544
f 247/7/281 259/19/281 253/13/281
f 243/26/282 246/28/282 252/12/282
f 257/17/283 244/4/283 242/32/283
f 262/22/284 250/33/284 245/37/284
f 251/11/285 264/24/285 260/20/285
f 261/21/286 263/23/286 258/18/286
usemtl core
f 265/40/287 278/41/287 277/42/287
f 266/43/288 278/44/288 280/45/288
f 265/46/289 277/47/289 282/48/289
f 265/49/290 282/50/290 284/51/290
f 265/52/291 284/53/291 281/54/291
f 266/43/292 280/45/292 287/55/292
f 267/56/293 279/57/293 289/58/293
f 268/59/294 283/60/294 291/61/294
f 269/62/295 285/63/295 293/64/295
f 270/65/296 286/66/296 295/67/296
f 266/43/297 287/55/297 290/68/297
f 267/56/298 289/58/298 292/69/298
f 268/59/299 291/61/299 294/70/299
f 269/62/300 293/64/300 296/71/300
f 270/65/301 295/67/301 288/72/301
f 271/73/302 297/74/302 302/75/302
f 272/76/303 298/77/303 304/78/303
f 273/79/304 299/80/304 305/81/304
f 274/82/305 300/83/305 306/84/305
f 275/85/306 301/86/306 303/87/306
f 303/87/307 306/88/307 276/89/307
f 303/87/308 301/86/308 306/88/308
f 301/86/309 274/82/309 306/88/309
f 306/84/310 305/90/310 276/91/310
f 306/84/311 300/83/311 305/90/311
f 300/83/312 273/79/312 305/90/312
f 305/81/313 304/92/313 276/93/313
f 305/81/314 299/80/314 304/92/314
f 299/80/315 272/94/315 304/92/315
f 304/78/316 302/95/316 276/96/316
f 304/78/317 298/77/317 302/95/317
f 298/77/318 271/73/318 302/95/318
f 302/75/319 303/97/319 276/98/319
f 302/75/320 297/74/320 303/97/320
f 297/74/321 275/85/321 303/97/321
f 288/72/322 301/86/322 275/85/322
f 288/72/323 295/67/323 301/86/323
f 295/67/324 274/82/324 301/86/324
f 296/71/325 300/83/325 274/82/325
f 296/71/326 293/64/326 300/83/326
f 293/64/327 273/79/327 300/83/327
f 294/70/328 299/80/328 273/79/328
f 294/70/329 291/61/329 299/80/329
f 291/61/330 272/94/330 299/80/330
f 292/69/331 298/77/331 272/76/331
f 292/69/332 289/58/332 298/77/332
f 289/58/333 271/73/333 298/77/333
f 290/68/334 297/74/334 271/73/334
f 290/68/335 287/55/335 297/74/335
f 287/55/336 275/85/336 297/74/336
f 295/67/337 296/71/337 274/82/337
f 295/67/338 286/66/338 296/71/338
f 286/66/339 269/62/339 296/71/339
f 293/64/340 294/70/340 273/79/340
f 293/64/341 285/63/341 294/70/341
f 285/63/342 268/59/342 294/70/342
f 291/61/343 292/99/343 272/94/343
f 291/61/344 283/60/344 292/99/344
f 283/60/345 267/100/345 292/99/345
f 289/58/346 290/68/346 271/73/346
f 289/58/347 279/57/347 290/68/347
f 279/57/348 266/43/348 290/68/348
f 287/55/349 288/72/349 275/85/349
f 287/55/350 280/45/350 288/72/350
f 280/45/351 270/65/351 288/72/351
f 281/54/352 286/66/352 270/65/352
f 281/54/353 284/53/353 286/66/353
f 284/53/354 269/62/354 286/66/354
f 284/51/355 285/63/355 269/62/355
f 284/51/356 282/50/356 285/63/356
f 282/50/357 268/59/357 285/63/357
f 282/48/358 283/60/358 268/59/358
f 282/48/359 277/47/359 283/60/359
f 277/47/360 267/100/360 283/60/360
f 280/45/361 281/101/361 270/65/361
f 280/45/362 278/44/362 281/101/362
f 278/44/363 265/102/363 281/101/363
f 277/42/364 279/57/364 267/56/364
f 277/42/365 278/41/365 279/57/365
f 278/41/366 266/43/366 279/57/366
f 307/40/367 320/41/367 319/42/367
f 308/43/368 320/44/368 322/45/368
f 307/46/369 319/47/369 324/48/369
f 307/49/370 324/50/370 326/51/370
f 307/52/371 326/53/371 323/54/371
f 308/43/372 322/45/372 329/55/372
f 309/56/373 321/57/373 331/58/373
f 310/59/374 325/60/374 333/61/374
f 311/62/375 327/63/375 335/64/375
f 312/65/376 328/66/376 337/67/376
f 308/43/377 329/55/377 332/68/377
f 309/56/378 331/58/378 334/69/378
f 310/59/379 333/61/379 336/70/379
f 311/62/380 335/64/380 338/71/380
f 312/65/381 337/67/381 330/72/381
f 313/73/382 339/74/382 344/75/382
f 314/76/383 340/77/383 346/78/383
f 315/79/384 341/80/384 347/81/384
f 316/82/385 342/83/385 348/84/385
f 317/85/386 343/86/386 345/87/386
f 345/87/387 348/88/387 318/89/387
f 345/87/388 343/86/388 348/88/388
f 343/86/389 316/82/389 348/88/389
f 348/84/390 347/90/390 318/91/390
f 348/84/391 342/83/391 347/90/391
f 342/83/392 315/79/392 347/90/392
f 347/81/393 346/92/393 318/93/393
f 347/81/394 341/80/394 346/92/394
f 341/80/395 314/94/395 346/92/395
f 346/78/396 344/95/396 318/96/396
f 346/78/397 340/77/397 344/95/397
f 340/77/398 313/73/398 344/95/398
f 344/75/399 345/97/399 318/98/399
f 344/75/400 339/74/400 345/97/400
f 339/74/401 317/85/401 345/97/401
f 330/72/402 343/86/402 317/85/402
f 330/72/403 337/67/403 343/86/403
f 337/67/404 316/82/404 343/86/404
f 338/71/405 342/83/405 316/82/405
f 338/71/406 335/64/406 342/83/406
f 335/64/407 315/79/407 342/83/407
f 336/70/408 341/80/408 315/79/408
f 336/70/409 333/61/409 341/80/409
f 333/61/410 314/94/410 341/80/410
f 334/69/411 340/77/411 314/76/411
f 334/69/412 331/58/412 340/77/412
f 331/58/413 313/73/413 340/77/413
f 332/68/414 339/74/414 313/73/414
f 332/68/415 329/55/415 339/74/415
f 329/55/416 317/85/416 339/74/416
f 337/67/417 338/71/417 316/82/417
f 337/67/418 328/66/418 338/71/418
f 328/66/419 311/62/419 338/71/419
f 335/64/420 336/70/420 315/79/420
f 335/64/421 327/63/421 336/70/421
f 327/63/422 310/59/422 336/70/422
f 333/61/423 334/99/423 314/94/423
f 333/61/424 325/60/424 334/99/424
f 325/60/425 309/100/425 334/99/425
f 331/58/426 332/68/426 313/73/426
f 331/58/427 321/57/427 332/68/427
f 321/57/428 308/43/428 332/68/428
f 329/55/429 330/72/429 317/85/429
f 329/55/430 322/45/430 330/72/430
f 322/45/431 312/65/431 330/72/431
f 323/54/432 328/66/432 312/65/432
f 323/54/433 326/53/433 328/66/433
f 326/53/434 311/62/434 328/66/434
f 326/51/435 327/63/435 311/62/435
f 326/51/436 324/50/436 327/63/436
f 324/50/437 310/59/437 327/63/437
f 324/48/438 325/60/438 310/59/438
f 324/48/439 319/47/439 325/60/439
f 319/47/440 309/100/440 325/60/440
f 322/45/441 323/101/441 312/65/441
f 322/45/442 320/44/442 323/101/442
f 320/44/443 307/102/443 323/101/443
f 319/42/444 321/57/444 309/56/444
f 319/42/445 320/41/445 321/57/445
f 320/41/446 308/43/446 321/57/446
