# Blender 4.5.10 LTS
# www.blender.org
mtllib upgrade_spirit_cairn.mtl
o upgrade_spirit_cairn
v -0.031496 -0.028745 0.016379
v -0.050479 -0.026354 0.000524
v -0.037588 -0.029022 -0.027347
v -0.010638 -0.033061 -0.028718
v -0.006872 -0.032890 -0.001693
v 0.335267 0.034792 -0.155646
v 0.347662 0.046549 -0.168713
v 0.359087 0.053987 -0.149765
v 0.353754 0.046826 -0.124987
v 0.339032 0.034963 -0.128622
v 0.131036 0.077056 0.285921
v 0.155659 0.072911 0.267849
v 0.170380 0.084774 0.271484
v 0.154856 0.096252 0.291802
v 0.130539 0.091482 0.300725
v -0.271324 0.136913 0.289562
v -0.252340 0.134522 0.305417
v -0.252837 0.148947 0.320222
v -0.272127 0.160254 0.313516
v -0.283552 0.152816 0.294568
v -0.311991 0.131812 -0.122737
v -0.324882 0.134479 -0.094866
v -0.337110 0.150382 -0.089861
v -0.331777 0.157543 -0.114639
v -0.316253 0.146066 -0.134957
v 0.077624 0.080561 -0.394252
v 0.065229 0.068803 -0.381184
v 0.038279 0.072843 -0.379814
v 0.034017 0.087097 -0.392034
v 0.058334 0.091867 -0.400957
v 0.331168 0.263507 0.105925
v 0.346693 0.252030 0.085607
v 0.352026 0.259191 0.060829
v 0.339797 0.275094 0.065834
v 0.326906 0.277762 0.093705
v -0.062708 0.329012 0.365220
v -0.043418 0.317706 0.371925
v -0.019102 0.322476 0.363002
v -0.023363 0.336730 0.350782
v -0.050314 0.340770 0.352153
v -0.338838 0.362747 0.095955
v -0.344172 0.355586 0.120733
v -0.332746 0.363024 0.139681
v -0.320351 0.374781 0.126614
v -0.324117 0.374610 0.099590
v -0.115624 0.318091 -0.329757
v -0.139940 0.313321 -0.320834
v -0.155465 0.324799 -0.300516
v -0.140743 0.336662 -0.296880
v -0.116120 0.332517 -0.314953
v 0.298468 0.256757 -0.323600
v 0.287042 0.249319 -0.342548
v 0.267753 0.260626 -0.349253
v 0.267256 0.275051 -0.334449
v 0.286239 0.272660 -0.318594
v 0.052504 0.438595 -0.001684
v 0.065395 0.435927 -0.029556
v 0.046411 0.438318 -0.045411
v 0.021788 0.442463 -0.027339
v 0.025553 0.442634 -0.000314
v -0.281337 -0.005048 0.045802
v -0.275529 -0.009372 0.068202
v -0.297841 -0.011589 0.081204
v -0.317438 -0.008634 0.066840
v -0.307238 -0.004592 0.044960
v -0.499575 0.090191 0.021815
v -0.512726 0.105004 0.028084
v -0.510654 0.118202 0.010079
v -0.496222 0.111545 -0.007318
v -0.489375 0.094233 -0.000064
v -0.262686 0.113722 -0.116231
v -0.288587 0.114178 -0.117073
v -0.295433 0.131490 -0.124326
v -0.273764 0.141733 -0.127967
v -0.253525 0.130752 -0.122964
v -0.080518 0.082811 0.035439
v -0.086326 0.087135 0.013039
v -0.077165 0.104165 0.006306
v -0.065695 0.110367 0.024545
v -0.067768 0.097169 0.042550
v -0.194627 0.044219 0.245343
v -0.172315 0.046435 0.232341
v -0.159565 0.060793 0.239452
v -0.173997 0.067450 0.256849
v -0.195666 0.057207 0.260489
v -0.460464 0.066092 0.229668
v -0.447313 0.051278 0.223399
v -0.427716 0.048323 0.237763
v -0.428755 0.061312 0.252910
v -0.448994 0.072293 0.247907
v -0.392110 0.275050 -0.071550
v -0.413779 0.264807 -0.067909
v -0.428210 0.271464 -0.050513
v -0.415460 0.285822 -0.043402
v -0.393149 0.288038 -0.056403
v -0.127312 0.266165 -0.040728
v -0.138781 0.259964 -0.058967
v -0.159020 0.270945 -0.063970
v -0.160059 0.283933 -0.048824
v -0.140463 0.280979 -0.034459
v -0.091554 0.220712 0.196257
v -0.077122 0.214055 0.178860
v -0.075050 0.227252 0.160855
v -0.088200 0.242066 0.167124
v -0.098400 0.238024 0.189004
v -0.334250 0.201505 0.311903
v -0.314011 0.190524 0.316907
v -0.292342 0.200767 0.313266
v -0.299189 0.218079 0.306013
v -0.325090 0.218535 0.305171
v -0.520008 0.235088 0.146390
v -0.522080 0.221890 0.164395
v -0.510611 0.228091 0.182633
v -0.501450 0.245121 0.175901
v -0.507258 0.249445 0.153501
v -0.289935 0.343845 0.107735
v -0.312246 0.341629 0.120737
v -0.306439 0.337305 0.143137
v -0.280538 0.336849 0.143979
v -0.270338 0.340891 0.122100
v 0.253347 0.014461 0.049403
v 0.259120 0.010522 0.024197
v 0.284670 0.005186 0.022495
v 0.294688 0.005828 0.046649
v 0.275329 0.011560 0.063279
v 0.434442 0.080105 0.183728
v 0.450726 0.093442 0.185373
v 0.441432 0.107418 0.203020
v 0.419403 0.102718 0.212281
v 0.415084 0.085837 0.200358
v 0.173438 0.134612 0.201118
v 0.195420 0.131711 0.214994
v 0.199739 0.148591 0.226917
v 0.180427 0.161925 0.220410
v 0.164171 0.153285 0.204465
v 0.093079 0.125156 -0.031747
v 0.087306 0.129095 -0.006541
v 0.078040 0.147768 -0.003195
v 0.078086 0.155370 -0.026331
v 0.087381 0.141394 -0.043978
v 0.285066 0.070536 -0.176423
v 0.259516 0.075872 -0.174721
v 0.253817 0.092110 -0.186952
v 0.275845 0.096810 -0.196213
v 0.295158 0.083477 -0.189706
v 0.500357 0.059574 -0.031328
v 0.484073 0.046236 -0.032973
v 0.474055 0.045595 -0.057127
v 0.484147 0.058535 -0.070410
v 0.500403 0.067175 -0.054465
v 0.320423 0.276592 0.234551
v 0.339736 0.263259 0.241058
v 0.361764 0.267959 0.231797
v 0.356066 0.284197 0.219566
v 0.330515 0.289533 0.221268
v 0.115224 0.300495 0.076173
v 0.115178 0.292894 0.099310
v 0.131434 0.301534 0.115255
v 0.141526 0.314474 0.101972
v 0.131508 0.313833 0.077818
v 0.196178 0.257352 -0.167436
v 0.174150 0.252651 -0.158175
v 0.164855 0.266627 -0.140528
v 0.181139 0.279964 -0.138883
v 0.200498 0.274232 -0.155513
v 0.451410 0.206784 -0.159620
v 0.435154 0.198144 -0.175565
v 0.415842 0.211478 -0.182072
v 0.420161 0.228358 -0.170149
v 0.442143 0.225457 -0.156273
v 0.528201 0.218675 0.088823
v 0.537495 0.204699 0.071177
v 0.537541 0.212301 0.048040
v 0.528275 0.230974 0.051386
v 0.522502 0.234913 0.076592
v 0.330911 0.354883 0.022350
v 0.356462 0.349547 0.020648
v 0.362234 0.345608 -0.004558
v 0.340252 0.348509 -0.018434
v 0.320893 0.354241 -0.001804
v -0.044109 0.343787 -0.026534
v -0.058130 0.342532 -0.048580
v -0.039370 0.341974 -0.070071
v -0.013753 0.342884 -0.061307
v -0.016682 0.344004 -0.034400
v 0.264876 0.426721 -0.059985
v 0.277423 0.437294 -0.068566
v 0.282249 0.444950 -0.046964
v 0.272684 0.439107 -0.025030
v 0.261947 0.427841 -0.033078
v 0.012897 0.434217 0.228665
v 0.040324 0.434435 0.220799
v 0.051061 0.445700 0.228846
v 0.030270 0.452446 0.241686
v 0.006684 0.445349 0.241574
v -0.303738 0.422219 0.103099
v -0.289717 0.423473 0.125144
v -0.295930 0.434605 0.138053
v -0.313792 0.440230 0.123986
v -0.318617 0.432575 0.102383
v -0.250372 0.408427 -0.236252
v -0.269133 0.408985 -0.214761
v -0.284012 0.419341 -0.215477
v -0.274447 0.425184 -0.237410
v -0.253657 0.418438 -0.250249
v 0.111786 0.422475 -0.328992
v 0.099239 0.411902 -0.320410
v 0.073623 0.410992 -0.329173
v 0.070338 0.421004 -0.343171
v 0.093925 0.428101 -0.343059
v 0.178490 0.577354 0.140307
v 0.199280 0.570608 0.127467
v 0.208845 0.576451 0.105534
v 0.193966 0.586807 0.104818
v 0.175205 0.587365 0.126309
v -0.186953 0.573317 0.219049
v -0.169092 0.567691 0.233116
v -0.145505 0.574788 0.233228
v -0.148790 0.584800 0.219230
v -0.174406 0.583890 0.210467
v -0.347851 0.556685 -0.084912
v -0.357416 0.550842 -0.062979
v -0.352591 0.558497 -0.041376
v -0.340043 0.569071 -0.049958
v -0.337114 0.567951 -0.076865
v -0.081851 0.550443 -0.351517
v -0.105437 0.543346 -0.351629
v -0.126228 0.550092 -0.338789
v -0.115491 0.561357 -0.330742
v -0.088065 0.561575 -0.338608
v 0.243450 0.563217 -0.212326
v 0.238625 0.555562 -0.233928
v 0.220763 0.561187 -0.247995
v 0.214549 0.572319 -0.235087
v 0.228571 0.573573 -0.213041
v -0.035798 0.653818 -0.039872
v -0.017037 0.653260 -0.061363
v -0.031058 0.652005 -0.083408
v -0.058485 0.651788 -0.075542
v -0.061414 0.652908 -0.048635
v 0.192875 0.455471 0.126638
v 0.192894 0.459051 0.127418
v 0.193529 0.458914 0.127807
v 0.194522 0.698198 0.209110
v 0.194550 0.701507 0.210684
v 0.195157 0.698061 0.209499
v 0.193204 0.446043 0.154230
v 0.193858 0.449486 0.155399
v 0.193232 0.449352 0.155804
v 0.194879 0.692079 0.238276
v 0.194861 0.688499 0.237497
v 0.195486 0.688633 0.237091
v 0.149139 0.455578 0.127196
v 0.148533 0.459024 0.128381
v 0.149158 0.459158 0.127976
v 0.150814 0.701614 0.211242
v 0.150786 0.698305 0.209668
v 0.150161 0.698171 0.210074
v 0.149468 0.446151 0.154788
v 0.149496 0.449459 0.156362
v 0.148861 0.449597 0.155973
v 0.151143 0.692186 0.238834
v 0.150490 0.688743 0.237666
v 0.151124 0.688606 0.238055
v -0.155554 0.457023 0.134838
v -0.155516 0.460623 0.135518
v -0.154895 0.460490 0.135930
v -0.153442 0.701930 0.210581
v -0.153420 0.705281 0.212063
v -0.152820 0.701796 0.210992
v -0.156141 0.448368 0.162678
v -0.155482 0.451835 0.163769
v -0.156120 0.451719 0.164160
v -0.154007 0.696626 0.239903
v -0.154046 0.693025 0.239223
v -0.153407 0.693141 0.238832
v -0.199284 0.457627 0.134104
v -0.199884 0.461112 0.135174
v -0.199246 0.461228 0.134784
v -0.197150 0.705885 0.211329
v -0.197172 0.702534 0.209847
v -0.197810 0.702418 0.210237
v -0.199871 0.448972 0.161944
v -0.199850 0.452323 0.163426
v -0.200471 0.452457 0.163014
v -0.197737 0.697230 0.239169
v -0.198397 0.693763 0.238077
v -0.197775 0.693629 0.238489
v 0.242167 0.620375 -0.190757
v 0.242154 0.621133 -0.196349
v 0.249178 0.620949 -0.190783
v 0.243030 0.669723 -0.195845
v 0.243068 0.670364 -0.190238
v 0.250054 0.669538 -0.190278
v 0.243940 0.616307 0.198018
v 0.250951 0.616881 0.197992
v 0.243978 0.616948 0.203625
v 0.244840 0.666296 0.198537
v 0.244853 0.665538 0.204129
v 0.251827 0.665471 0.198496
v -0.243749 0.629108 -0.188450
v -0.250735 0.629934 -0.188409
v -0.243762 0.629866 -0.194042
v -0.242848 0.679097 -0.187931
v -0.242886 0.678456 -0.193538
v -0.249860 0.678523 -0.187905
v -0.241977 0.625040 0.200325
v -0.241938 0.625681 0.205932
v -0.248963 0.625866 0.200365
v -0.241076 0.675029 0.200844
v -0.248087 0.674455 0.200870
v -0.241063 0.674271 0.206436
v 0.218700 0.640264 -0.182294
v 0.218648 0.644475 -0.182848
v 0.225076 0.644557 -0.182107
v 0.214296 0.935996 -0.177642
v 0.214223 0.940183 -0.176937
v 0.220724 0.936078 -0.176901
v 0.217955 0.639472 -0.138567
v 0.224330 0.643765 -0.138381
v 0.217881 0.643660 -0.137862
v 0.213477 0.939391 -0.133211
v 0.213529 0.935181 -0.132656
v 0.219978 0.935286 -0.133174
v -0.228305 0.633729 -0.190036
v -0.234806 0.637834 -0.190073
v -0.228357 0.637939 -0.190591
v -0.232783 0.933648 -0.184680
v -0.232709 0.929460 -0.185384
v -0.239158 0.929355 -0.184866
v -0.229051 0.632937 -0.146310
v -0.229124 0.637124 -0.145605
v -0.235552 0.637042 -0.146346
v -0.233528 0.932856 -0.140953
v -0.239904 0.928563 -0.141140
v -0.233477 0.928645 -0.140398
v 0.240042 0.625682 -0.169454
v 0.239981 0.629896 -0.174481
v 0.240619 0.629889 -0.169442
v 0.236278 0.921471 -0.173600
v 0.236233 0.925656 -0.168548
v 0.236916 0.921464 -0.168561
v 0.240575 0.624631 0.180464
v 0.241151 0.628839 0.180476
v 0.240529 0.628816 0.185517
v 0.236765 0.924606 0.181370
v 0.236826 0.920391 0.186398
v 0.237448 0.920414 0.181357
v 0.196306 0.625126 -0.169389
v 0.195622 0.629318 -0.169375
v 0.196245 0.629341 -0.174416
v 0.192496 0.925100 -0.168483
v 0.192542 0.920916 -0.173535
v 0.191920 0.920893 -0.168494
v 0.196838 0.624076 0.180529
v 0.196792 0.628260 0.185582
v 0.196155 0.628267 0.180543
v 0.193029 0.924050 0.181435
v 0.192452 0.919843 0.181424
v 0.193090 0.919836 0.186463
v -0.199757 0.628494 -0.169370
v -0.199753 0.632733 -0.174378
v -0.199042 0.632681 -0.169349
v -0.193873 0.924265 -0.172200
v -0.193708 0.928425 -0.167130
v -0.193163 0.924213 -0.167171
v -0.194132 0.625768 0.180494
v -0.193417 0.629954 0.180515
v -0.193966 0.629927 0.185565
v -0.188083 0.925698 0.182735
v -0.188086 0.921460 0.187743
v -0.187538 0.921486 0.182693
v -0.243482 0.629371 -0.168660
v -0.244027 0.633583 -0.168619
v -0.243478 0.633609 -0.173668
v -0.237433 0.929302 -0.166420
v -0.237599 0.925142 -0.171490
v -0.238148 0.925115 -0.166441
v -0.237857 0.626644 0.181204
v -0.237692 0.630804 0.186275
v -0.238402 0.630856 0.181246
v -0.231808 0.926575 0.183444
v -0.232523 0.922388 0.183423
v -0.231812 0.922336 0.188452
v 0.302287 0.897783 -0.239089
v 0.302401 0.898175 -0.245534
v 0.307221 0.896207 -0.239133
v 0.315307 0.928597 -0.245898
v 0.315565 0.929081 -0.239464
v 0.320127 0.926629 -0.239497
v 0.307284 0.901015 0.207991
v 0.312217 0.899439 0.207947
v 0.307542 0.901500 0.214425
v 0.320561 0.932314 0.207617
v 0.320447 0.931922 0.214061
v 0.325123 0.929861 0.207583
v -0.027332 1.037648 -0.236417
v -0.031894 1.040101 -0.236383
v -0.027218 1.038040 -0.242861
v -0.014055 1.068946 -0.236791
v -0.014313 1.068462 -0.243226
v -0.018988 1.070523 -0.236748
v -0.022336 1.040881 0.210664
v -0.022078 1.041365 0.217098
v -0.026897 1.043333 0.210697
v -0.009058 1.072179 0.210289
v -0.013992 1.073755 0.210333
v -0.009172 1.071787 0.216734
v 0.025151 1.045096 -0.234276
v 0.024876 1.045543 -0.240712
v 0.029685 1.047600 -0.234332
v 0.011622 1.075816 -0.240487
v 0.011516 1.076241 -0.234045
v 0.016431 1.077874 -0.234107
v 0.031036 1.044348 0.212804
v 0.035569 1.046853 0.212749
v 0.030929 1.044774 0.219247
v 0.017401 1.075494 0.213036
v 0.017676 1.075047 0.219472
v 0.022316 1.077126 0.212974
v -0.302836 0.901477 -0.230199
v -0.307751 0.899845 -0.230137
v -0.303111 0.901924 -0.236636
v -0.316471 0.932623 -0.229968
v -0.316365 0.932197 -0.236411
v -0.321004 0.930118 -0.229912
v -0.296951 0.900730 0.216881
v -0.297058 0.901155 0.223324
v -0.301866 0.899097 0.216943
v -0.310586 0.931875 0.217113
v -0.315120 0.929371 0.217168
v -0.310311 0.931428 0.223549
v 0.041437 1.043053 -0.255781
v 0.041415 1.043666 -0.262639
v 0.042704 1.043625 -0.255784
v 0.041927 1.084486 -0.262492
v 0.041963 1.085049 -0.255630
v 0.043216 1.084445 -0.255637
v 0.043447 1.041311 0.220492
v 0.044714 1.041884 0.220488
v 0.043483 1.041874 0.227354
v 0.043973 1.083308 0.220643
v 0.043995 1.082695 0.227501
v 0.045226 1.082704 0.220635
v -0.046036 1.044148 -0.255408
v -0.047288 1.044752 -0.255400
v -0.046057 1.044761 -0.262266
v -0.045509 1.086145 -0.255257
v -0.045545 1.085582 -0.262119
v -0.046776 1.085572 -0.255253
v -0.044026 1.042407 0.220865
v -0.043989 1.042970 0.227727
v -0.045278 1.043011 0.220872
v -0.043499 1.084403 0.221016
v -0.044766 1.083831 0.221019
v -0.043478 1.083790 0.227874
v 0.230854 0.653305 0.135128
v 0.230853 0.653931 0.134423
v 0.237581 0.653847 0.135033
v 0.231420 0.697666 0.134131
v 0.231437 0.698300 0.134827
v 0.238148 0.697583 0.134741
v 0.231509 0.653622 0.183722
v 0.238236 0.654164 0.183628
v 0.231527 0.654256 0.184418
v 0.232092 0.698617 0.183421
v 0.232093 0.697992 0.184125
v 0.238803 0.697899 0.183335
v -0.235624 0.659392 0.141372
v -0.242335 0.660109 0.141458
v -0.235625 0.660017 0.140668
v -0.235041 0.704387 0.141071
v -0.235059 0.703753 0.140375
v -0.241768 0.703845 0.141165
v -0.234970 0.659708 0.189966
v -0.234952 0.660343 0.190662
v -0.241680 0.660426 0.190052
v -0.234386 0.704704 0.189666
v -0.241113 0.704161 0.189760
v -0.234385 0.704078 0.190370
v 0.001909 0.676045 0.015077
v -0.067814 0.718229 -0.033084
v 0.023371 0.721328 -0.065229
v 0.081981 0.726409 0.011561
v 0.027018 0.726449 0.091164
v -0.065559 0.721393 0.063572
v -0.030833 0.794665 -0.066366
v 0.061745 0.799720 -0.038773
v 0.063999 0.802885 0.057882
v -0.027186 0.799785 0.090027
v -0.085795 0.794704 0.013237
v -0.005724 0.845068 0.009721
v 0.015194 0.687824 -0.031655
v -0.038402 0.686002 -0.012761
v -0.025788 0.712619 -0.059964
v -0.078059 0.712657 0.015743
v -0.037077 0.687862 0.044051
v 0.049644 0.690810 0.013481
v 0.062259 0.717427 -0.033722
v 0.017338 0.690834 0.060270
v 0.064403 0.720437 0.058203
v -0.022319 0.717489 0.088774
v -0.089954 0.755749 -0.013842
v -0.088629 0.757609 0.042970
v -0.004051 0.757547 -0.079527
v -0.057648 0.755725 -0.060632
v 0.084815 0.763504 -0.018172
v 0.050365 0.760518 -0.063308
v 0.053834 0.765388 0.085431
v 0.086140 0.765365 0.038640
v -0.054180 0.760595 0.088107
v 0.000236 0.763566 0.104325
v -0.068218 0.800676 -0.033405
v 0.018504 0.803624 -0.063976
v 0.074245 0.808456 0.009055
v 0.021973 0.808494 0.084762
v -0.066074 0.803686 0.058520
v -0.021153 0.830279 -0.035472
v -0.053459 0.830303 0.011318
v 0.033263 0.833251 -0.019253
v 0.034588 0.835111 0.037559
v -0.019009 0.833289 0.056453
v 0.005377 0.687079 0.020857
v -0.035646 0.728874 -0.011505
v 0.024252 0.728207 -0.028430
v 0.058849 0.727226 0.023306
v 0.020334 0.727285 0.072206
v -0.038067 0.728304 0.050691
v -0.007527 0.794852 -0.029057
v 0.050874 0.793833 -0.007542
v 0.048453 0.793263 0.054654
v -0.011445 0.793930 0.071580
v -0.046043 0.794911 0.019843
v 0.007430 0.835058 0.022292
v 0.016291 0.698263 -0.008239
v -0.018916 0.698655 0.001709
v -0.007822 0.722829 -0.027261
v -0.044451 0.722886 0.019245
v -0.020339 0.698320 0.038267
v 0.036627 0.697686 0.022170
v 0.047721 0.721861 -0.006800
v 0.013988 0.697721 0.050913
v 0.045419 0.721319 0.052353
v -0.011547 0.721952 0.068449
v -0.049140 0.762037 0.001113
v -0.050563 0.761702 0.037671
v 0.008706 0.761610 -0.037578
v -0.026501 0.762002 -0.027630
v 0.063370 0.760435 0.005478
v 0.043034 0.761012 -0.024932
v 0.039308 0.760135 0.070779
v 0.061946 0.760100 0.042036
v -0.030227 0.761125 0.068081
v 0.004101 0.760527 0.080727
v -0.032612 0.800818 -0.009203
v 0.024354 0.800184 -0.025300
v 0.057258 0.799251 0.023904
v 0.020629 0.799308 0.070410
v -0.034914 0.800276 0.049949
v -0.001182 0.824416 -0.007764
v -0.023820 0.824451 0.020979
v 0.033146 0.823817 0.004882
v 0.031722 0.823482 0.041440
v -0.003484 0.823874 0.051388
vn -0.1469 -0.9888 0.0267
vn 0.6377 -0.7657 -0.0840
vn 0.3696 -0.6593 0.6548
vn -0.5537 -0.6056 0.5716
vn -0.7971 -0.5123 -0.3196
vn -0.1373 -0.6680 -0.7313
vn 0.7971 0.5123 0.3196
vn 0.1373 0.6680 0.7313
vn -0.6377 0.7657 0.0840
vn -0.3696 0.6593 -0.6548
vn 0.5537 0.6056 -0.5716
vn 0.1469 0.9888 -0.0267
vn 0.0783 -0.9432 0.3230
vn 0.1855 -0.9824 -0.0196
vn 0.5433 -0.7739 0.3254
vn 0.2903 -0.8318 -0.4731
vn -0.1563 -0.9394 -0.3051
vn -0.3310 -0.9072 0.2595
vn -0.0719 -0.7156 0.6948
vn -0.4666 -0.8745 -0.1321
vn -0.7706 -0.6276 0.1113
vn -0.5218 -0.6398 -0.5643
vn 0.8714 -0.1421 -0.4696
vn 0.2912 -0.0690 -0.9542
vn 0.7640 -0.0962 0.6381
vn 0.9755 -0.1403 0.1694
vn -0.2912 0.0690 0.9542
vn 0.3489 -0.0265 0.9368
vn -0.9755 0.1403 -0.1694
vn -0.8714 0.1421 0.4696
vn -0.3489 0.0265 -0.9368
vn -0.7640 0.0962 -0.6381
vn 0.7706 0.6276 -0.1113
vn 0.5218 0.6398 0.5643
vn -0.2903 0.8318 0.4731
vn -0.5433 0.7739 -0.3254
vn 0.0719 0.7156 -0.6948
vn 0.4666 0.8745 0.1321
vn 0.3310 0.9072 -0.2595
vn 0.1563 0.9394 0.3051
vn -0.1855 0.9824 0.0196
vn -0.0783 0.9432 -0.3230
vn -0.1134 -0.8997 0.4215
vn 0.2623 -0.9415 0.2114
vn 0.0941 -0.9616 -0.2577
vn -0.5243 -0.8479 0.0784
vn -0.3884 -0.8596 -0.3320
vn 0.5384 -0.4499 -0.7125
vn 0.9752 0.1741 -0.1370
vn 0.8171 -0.3989 0.4161
vn 0.6010 0.2203 0.7683
vn 0.0040 -0.2974 0.9547
vn -0.5384 0.4499 0.7125
vn -0.9752 -0.1741 0.1370
vn -0.8171 0.3989 -0.4161
vn -0.6010 -0.2203 -0.7683
vn -0.0040 0.2974 -0.9547
vn 0.3884 0.8596 0.3320
vn 0.5243 0.8479 -0.0784
vn -0.0941 0.9616 0.2577
vn -0.2623 0.9415 -0.2114
vn 0.1134 0.8997 -0.4215
vn -0.0112 -0.9823 -0.1867
vn -0.7556 -0.4838 -0.4416
vn 0.0234 -0.3784 -0.9253
vn 0.7820 -0.5422 -0.3074
vn 0.4207 -0.6742 0.6070
vn -0.5001 -0.6740 0.5437
vn -0.4207 0.6742 -0.6070
vn 0.5001 0.6740 -0.5437
vn 0.7556 0.4838 0.4416
vn -0.0234 0.3784 0.9253
vn -0.7820 0.5422 0.3074
vn 0.0112 0.9823 0.1867
vn 0.0050 -0.8068 -0.5908
vn -0.3831 -0.8599 -0.3375
vn -0.4039 -0.4848 -0.7758
vn -0.7338 -0.6767 0.0596
vn -0.2560 -0.9545 0.1529
vn 0.3745 -0.8875 -0.2684
vn 0.4494 -0.5269 -0.7214
vn 0.2086 -0.9584 0.1947
vn 0.6856 -0.7028 0.1898
vn -0.0345 -0.7598 0.6492
vn -0.9952 0.0291 -0.0932
vn -0.8277 -0.0957 0.5530
vn -0.2467 0.1837 -0.9515
vn -0.7368 0.1344 -0.6626
vn 0.8277 0.0957 -0.5530
vn 0.3239 0.1731 -0.9301
vn 0.7368 -0.1344 0.6626
vn 0.9952 -0.0291 0.0932
vn -0.3239 -0.1731 0.9301
vn 0.2467 -0.1837 0.9515
vn -0.6856 0.7028 -0.1898
vn 0.0345 0.7598 -0.6492
vn 0.7338 0.6767 -0.0596
vn 0.4039 0.4848 0.7758
vn -0.4494 0.5269 0.7214
vn -0.2086 0.9584 -0.1947
vn -0.3745 0.8875 0.2684
vn 0.2560 0.9545 -0.1529
vn 0.3831 0.8598 0.3375
vn -0.0050 0.8068 0.5908
vn 0.2813 -0.7891 -0.5460
vn -0.2678 -0.7621 -0.5895
vn -0.4669 -0.8829 -0.0494
vn 0.4319 -0.9013 0.0348
vn -0.0275 -0.9410 0.3373
vn -0.9378 -0.2927 0.1866
vn -0.8763 0.3343 -0.3468
vn -0.4965 -0.0748 -0.8648
vn 0.0369 0.4170 -0.9081
vn 0.5766 -0.1111 -0.8095
vn 0.9378 0.2927 -0.1866
vn 0.8763 -0.3343 0.3468
vn 0.4965 0.0748 0.8648
vn -0.0369 -0.4170 0.9081
vn -0.5766 0.1111 0.8095
vn 0.0275 0.9410 -0.3373
vn -0.4319 0.9013 -0.0348
vn 0.4669 0.8829 0.0494
vn 0.2678 0.7621 0.5895
vn -0.2813 0.7891 0.5460
vn -0.1964 -0.9746 0.1073
vn 0.4163 -0.5932 0.6891
vn -0.5269 -0.3962 0.7519
vn -0.8967 -0.4199 -0.1397
vn -0.1821 -0.6315 -0.7536
vn 0.6294 -0.7386 -0.2414
vn 0.1821 0.6316 0.7536
vn -0.6294 0.7386 0.2414
vn -0.4163 0.5932 -0.6891
vn 0.5269 0.3962 -0.7519
vn 0.8967 0.4199 0.1397
vn 0.1964 0.9746 -0.1074
vn -0.3848 -0.8114 0.4399
vn 0.0821 -0.9089 0.4088
vn -0.0632 -0.5649 0.8227
vn 0.5970 -0.7604 0.2556
vn 0.1875 -0.9809 -0.0517
vn -0.5678 -0.8231 -0.0014
vn -0.8128 -0.4660 0.3495
vn -0.2141 -0.9279 -0.3053
vn -0.6159 -0.6004 -0.5101
vn 0.2554 -0.7823 -0.5681
vn 0.8404 -0.1109 0.5305
vn 0.9768 -0.2040 -0.0651
vn -0.2207 0.1506 0.9636
vn 0.3830 0.0245 0.9234
vn -0.9768 0.2040 0.0651
vn -0.7401 0.2192 0.6358
vn -0.3830 -0.0245 -0.9234
vn -0.8404 0.1109 -0.5305
vn 0.7401 -0.2192 -0.6358
vn 0.2207 -0.1506 -0.9636
vn 0.6159 0.6003 0.5101
vn -0.2554 0.7823 0.5681
vn -0.5970 0.7604 -0.2556
vn 0.0632 0.5649 -0.8227
vn 0.8128 0.4660 -0.3495
vn 0.2141 0.9279 0.3053
vn 0.5678 0.8231 0.0014
vn -0.1875 0.9809 0.0517
vn -0.0821 0.9089 -0.4088
vn 0.3848 0.8114 -0.4399
vn -0.6071 -0.7468 0.2716
vn -0.1310 -0.8096 0.5722
vn 0.2884 -0.9338 0.2120
vn -0.4820 -0.8321 -0.2743
vn 0.0714 -0.9477 -0.3112
vn 0.8731 -0.4099 0.2640
vn 0.6720 0.2060 0.7113
vn 0.0321 -0.1609 0.9865
vn -0.4379 0.4378 0.7852
vn -0.9228 -0.0349 0.3837
vn -0.8731 0.4099 -0.2640
vn -0.6720 -0.2060 -0.7113
vn -0.0321 0.1609 -0.9865
vn 0.4379 -0.4378 -0.7852
vn 0.9228 0.0349 -0.3837
vn -0.0714 0.9477 0.3112
vn 0.4820 0.8321 0.2743
vn -0.2884 0.9338 -0.2120
vn 0.1310 0.8096 -0.5722
vn 0.6071 0.7468 -0.2716
vn 0.0205 -0.9988 0.0438
vn 0.6817 -0.7242 0.1044
vn 0.2045 -0.6905 0.6938
vn -0.5395 -0.7484 0.3857
vn -0.5045 -0.7539 -0.4208
vn 0.2328 -0.7643 -0.6013
vn 0.5045 0.7539 0.4208
vn -0.2328 0.7643 0.6013
vn -0.6817 0.7242 -0.1044
vn -0.2045 0.6905 -0.6938
vn 0.5395 0.7484 -0.3857
vn -0.0205 0.9988 -0.0438
vn 0.0973 -0.9447 0.3130
vn 0.2871 -0.9553 0.0710
vn 0.4758 -0.7643 0.4352
vn 0.5035 -0.8195 -0.2736
vn 0.1070 -0.9714 -0.2121
vn -0.2000 -0.9628 0.1820
vn -0.1751 -0.7857 0.5933
vn -0.1929 -0.9707 -0.1432
vn -0.5701 -0.8211 -0.0279
vn -0.1516 -0.8205 -0.5512
vn 0.9751 0.0103 -0.2214
vn 0.6143 -0.0220 -0.7888
vn 0.5361 0.0480 0.8428
vn 0.9124 0.0366 0.4076
vn -0.6143 0.0220 0.7888
vn -0.0178 0.0435 0.9989
vn -0.9124 -0.0366 -0.4076
vn -0.9751 -0.0103 0.2214
vn 0.0178 -0.0435 -0.9989
vn -0.5361 -0.0480 -0.8428
vn 0.5701 0.8211 0.0279
vn 0.1516 0.8205 0.5512
vn -0.5035 0.8195 0.2736
vn -0.4758 0.7643 -0.4352
vn 0.1751 0.7857 -0.5933
vn 0.1929 0.9707 0.1432
vn 0.2000 0.9628 -0.1820
vn -0.1070 0.9714 0.2121
vn -0.2871 0.9553 -0.0710
vn -0.0973 0.9447 -0.3130
vn -0.0866 -0.9328 0.3499
vn 0.2766 -0.9236 0.2655
vn 0.2863 -0.9495 -0.1281
vn -0.3050 -0.9523 0.0064
vn -0.0747 -0.9550 -0.2870
vn 0.7813 -0.4062 -0.4738
vn 0.9076 0.4119 0.0817
vn 0.7066 -0.3309 0.6255
vn 0.2476 0.4163 0.8749
vn -0.2910 -0.3567 0.8877
vn -0.7813 0.4062 0.4738
vn -0.9076 -0.4119 -0.0817
vn -0.7066 0.3309 -0.6255
vn -0.2476 -0.4163 -0.8749
vn 0.2910 0.3567 -0.8877
vn 0.0747 0.9550 0.2870
vn 0.3050 0.9523 -0.0064
vn -0.2863 0.9495 0.1281
vn -0.2766 0.9236 -0.2655
vn 0.0866 0.9328 -0.3499
vn 0.5422 0.1760 -0.8216
vn 0.5434 0.3569 -0.7599
vn 0.5609 -0.3596 0.7458
vn 0.5621 -0.1787 0.8076
vn -0.5621 0.1787 -0.8076
vn -0.5608 0.3596 -0.7458
vn -0.5434 -0.3568 0.7599
vn -0.5422 -0.1760 0.8216
vn 0.9842 -0.1638 -0.0677
vn 0.5453 0.2676 -0.7944
vn 0.9864 0.1590 0.0426
vn 0.5640 -0.2704 0.7803
vn 0.0105 -0.4296 0.9029
vn 0.0119 -0.2127 0.9770
vn -0.5453 -0.2677 0.7944
vn -0.9864 -0.1590 -0.0426
vn -0.9842 0.1638 0.0677
vn -0.5640 0.2704 -0.7802
vn -0.0119 0.2127 -0.9770
vn -0.0105 0.4296 -0.9029
vn -0.0064 -0.9463 -0.3233
vn 0.9999 -0.0024 -0.0128
vn -0.0113 0.3233 -0.9462
vn 0.0064 0.9463 0.3233
vn 0.0113 -0.3233 0.9462
vn -0.9999 0.0024 0.0128
vn 0.5679 0.1470 -0.8099
vn 0.5695 0.3295 -0.7531
vn 0.5346 -0.3447 0.7716
vn 0.5361 -0.1622 0.8284
vn -0.5361 0.1622 -0.8284
vn -0.5346 0.3447 -0.7716
vn -0.5695 -0.3294 0.7531
vn -0.5679 -0.1470 0.8099
vn 0.9837 -0.1765 -0.0341
vn 0.5713 0.2393 -0.7851
vn 0.9865 0.1492 0.0672
vn 0.5378 -0.2546 0.8037
vn -0.0209 -0.4043 0.9144
vn -0.0191 -0.1854 0.9825
vn -0.5713 -0.2393 0.7851
vn -0.9865 -0.1492 -0.0672
vn -0.9837 0.1765 0.0341
vn -0.5379 0.2546 -0.8037
vn 0.0191 0.1854 -0.9825
vn 0.0209 0.4043 -0.9144
vn -0.0082 -0.9548 -0.2970
vn 0.9998 -0.0138 0.0168
vn 0.0201 0.2968 -0.9547
vn 0.0082 0.9548 0.2970
vn -0.0201 -0.2968 0.9547
vn -0.9998 0.0138 -0.0168
vn 0.0804 -0.9877 -0.1341
vn 0.1160 0.9867 -0.1136
vn 0.0815 -0.9903 0.1127
vn 0.1171 0.9841 0.1332
vn -0.1171 -0.9841 -0.1332
vn -0.0815 0.9903 -0.1127
vn -0.1160 -0.9867 0.1136
vn -0.0804 0.9877 0.1341
vn 0.0816 -0.9966 -0.0108
vn 0.6210 -0.0031 -0.7838
vn 0.1174 0.9930 0.0099
vn 0.6281 -0.0194 0.7779
vn -0.0173 -0.9934 0.1137
vn 0.0184 0.9908 0.1343
vn -0.6210 0.0031 0.7838
vn -0.1174 -0.9930 -0.0099
vn -0.0815 0.9966 0.0108
vn -0.6281 0.0194 -0.7779
vn -0.0184 -0.9908 -0.1343
vn 0.0173 0.9934 -0.1137
vn -0.0180 -0.9998 -0.0104
vn 0.9998 -0.0180 -0.0047
vn -0.0046 0.0105 -0.9999
vn 0.0180 0.9998 0.0104
vn 0.0046 -0.0105 0.9999
vn -0.9998 0.0180 0.0047
vn 0.1153 -0.1284 -0.9850
vn 0.1108 0.1668 -0.9797
vn 0.0817 -0.1640 0.9831
vn 0.0773 0.1312 0.9883
vn -0.0773 -0.1312 -0.9883
vn -0.0817 0.1640 -0.9831
vn -0.1109 -0.1668 0.9797
vn -0.1153 0.1284 0.9850
vn 0.5586 -0.8294 -0.0055
vn 0.1143 0.0194 -0.9933
vn 0.5336 0.8454 0.0244
vn 0.0804 -0.0166 0.9966
vn -0.0146 -0.1662 0.9860
vn -0.0191 0.1304 0.9913
vn -0.1143 -0.0194 0.9933
vn -0.5336 -0.8454 -0.0244
vn -0.5586 0.8294 0.0055
vn -0.0804 0.0166 -0.9966
vn 0.0191 -0.1304 -0.9913
vn 0.0146 0.1662 -0.9860
vn 0.0149 -0.9997 -0.0179
vn 0.9997 0.0146 0.0173
vn 0.0171 0.0181 -0.9997
vn -0.0149 0.9997 0.0179
vn -0.0171 -0.0181 0.9997
vn -0.9997 -0.0146 -0.0173
vn 0.9831 -0.1344 -0.1246
vn 0.9793 0.1600 -0.1237
vn 0.9834 -0.1351 0.1208
vn 0.9797 0.1593 0.1217
vn -0.9797 -0.1593 -0.1217
vn -0.9834 0.1351 -0.1208
vn -0.9793 -0.1600 0.1237
vn -0.9831 0.1344 0.1246
vn 0.9907 -0.1358 -0.0019
vn 0.9920 0.0130 -0.1255
vn 0.9870 0.1609 -0.0010
vn 0.9924 0.0122 0.1226
vn 0.0107 -0.7701 0.6379
vn -0.0088 0.7662 0.6425
vn -0.9920 -0.0130 0.1255
vn -0.9870 -0.1609 0.0010
vn -0.9907 0.1358 0.0019
vn -0.9924 -0.0122 -0.1226
vn 0.0088 -0.7662 -0.6425
vn -0.0107 0.7701 -0.6379
vn 0.0127 -0.9999 -0.0030
vn 0.9999 0.0127 -0.0015
vn -0.0015 0.0030 -1.0000
vn -0.0127 0.9999 0.0030
vn 0.0015 -0.0030 1.0000
vn -0.9999 -0.0127 0.0015
vn 0.9762 -0.1659 -0.1397
vn 0.9821 0.1285 -0.1375
vn 0.9801 -0.1678 0.1056
vn 0.9861 0.1266 0.1078
vn -0.9861 -0.1266 -0.1078
vn -0.9801 0.1678 -0.1056
vn -0.9821 -0.1285 0.1375
vn -0.9762 0.1659 0.1397
vn 0.9856 -0.1681 -0.0172
vn 0.9900 -0.0189 -0.1401
vn 0.9916 0.1285 -0.0149
vn 0.9939 -0.0209 0.1079
vn -0.0052 -0.7730 0.6343
vn 0.0258 0.7631 0.6458
vn -0.9900 0.0189 0.1401
vn -0.9916 -0.1285 0.0149
vn -0.9856 0.1681 0.0172
vn -0.9939 0.0209 -0.1079
vn -0.0258 -0.7631 -0.6458
vn 0.0052 0.7730 -0.6343
vn -0.0202 -0.9998 -0.0075
vn 0.9997 -0.0200 -0.0162
vn -0.0161 0.0078 -0.9998
vn 0.0202 0.9998 0.0075
vn 0.0161 -0.0078 0.9998
vn -0.9997 0.0200 0.0162
vn -0.3043 -0.9505 -0.0632
vn 0.4714 0.8778 -0.0850
vn -0.3026 -0.9494 0.0837
vn 0.4730 0.8789 0.0618
vn -0.4730 -0.8789 -0.0617
vn 0.3027 0.9494 -0.0837
vn -0.4714 -0.8778 0.0850
vn 0.3043 0.9505 0.0631
vn -0.3042 -0.9525 0.0103
vn 0.7115 -0.3094 -0.6309
vn 0.4735 0.8807 -0.0117
vn 0.7255 -0.3004 0.6192
vn -0.3886 -0.9175 0.0847
vn 0.3903 0.9186 0.0627
vn -0.7115 0.3094 0.6309
vn -0.4734 -0.8808 0.0117
vn 0.3043 0.9525 -0.0103
vn -0.7255 0.3004 -0.6192
vn -0.3903 -0.9186 -0.0627
vn 0.3886 0.9175 -0.0847
vn -0.3905 -0.9205 0.0110
vn 0.9205 -0.3906 -0.0075
vn -0.0112 -0.0072 -0.9999
vn 0.3905 0.9205 -0.0110
vn 0.0112 0.0072 0.9999
vn -0.9205 0.3906 0.0075
vn 0.4812 -0.8728 -0.0812
vn -0.3153 0.9466 -0.0677
vn 0.4832 -0.8730 0.0656
vn -0.3133 0.9463 0.0791
vn 0.3133 -0.9463 -0.0791
vn -0.4832 0.8731 -0.0656
vn 0.3152 -0.9466 0.0677
vn -0.4813 0.8728 0.0812
vn 0.4835 -0.8753 -0.0078
vn 0.7067 0.3141 -0.6339
vn -0.3151 0.9490 0.0057
vn 0.7232 0.3120 0.6162
vn 0.4009 -0.9137 0.0669
vn -0.3990 0.9134 0.0805
vn -0.7067 -0.3141 0.6339
vn 0.3152 -0.9490 -0.0057
vn -0.4835 0.8753 0.0078
vn -0.7232 -0.3120 -0.6162
vn 0.3990 -0.9134 -0.0805
vn -0.4009 0.9137 -0.0669
vn 0.4010 -0.9160 -0.0068
vn 0.9160 0.4011 -0.0114
vn -0.0132 0.0017 -0.9999
vn -0.4010 0.9160 0.0068
vn 0.0132 -0.0017 0.9999
vn -0.9160 -0.4011 0.0114
vn 0.4100 -0.9083 -0.0825
vn 0.4325 0.8984 -0.0760
vn 0.4108 -0.9089 0.0724
vn 0.4333 0.8978 0.0789
vn -0.4332 -0.8978 -0.0789
vn -0.4108 0.9089 -0.0724
vn -0.4326 -0.8984 0.0760
vn -0.4101 0.9083 0.0825
vn 0.4115 -0.9114 -0.0051
vn 0.9827 -0.0117 -0.1848
vn 0.4340 0.9009 0.0015
vn 0.9842 -0.0130 0.1765
vn -0.0121 -0.9966 0.0818
vn 0.0129 0.9960 0.0890
vn -0.9827 0.0117 0.1848
vn -0.4342 -0.9008 -0.0015
vn -0.4115 0.9114 0.0051
vn -0.9842 0.0130 -0.1765
vn -0.0129 -0.9959 -0.0890
vn 0.0121 0.9966 -0.0818
vn -0.0125 -0.9999 -0.0036
vn 0.9999 -0.0125 -0.0043
vn -0.0042 0.0037 -1.0000
vn 0.0125 0.9999 0.0036
vn 0.0042 -0.0037 1.0000
vn -0.9999 0.0125 0.0043
vn 0.0509 -0.7467 -0.6632
vn 0.0701 0.7362 -0.6731
vn 0.0689 -0.7380 0.6713
vn 0.0881 0.7449 0.6613
vn -0.0881 -0.7448 -0.6614
vn -0.0689 0.7380 -0.6713
vn -0.0701 -0.7361 0.6732
vn -0.0509 0.7467 0.6632
vn 0.0804 -0.9967 0.0054
vn 0.0902 -0.0078 -0.9959
vn 0.1062 0.9943 -0.0079
vn 0.1170 0.0051 0.9931
vn -0.0006 -0.7388 0.6739
vn 0.0186 0.7476 0.6639
vn -0.0902 0.0078 0.9959
vn -0.1062 -0.9943 0.0079
vn -0.0804 0.9967 -0.0054
vn -0.1170 -0.0051 -0.9931
vn -0.0186 -0.7476 -0.6639
vn 0.0006 0.7389 -0.6738
vn -0.0130 -0.9999 0.0067
vn 0.9998 -0.0130 -0.0134
vn -0.0135 -0.0065 -0.9999
vn 0.0130 0.9999 -0.0067
vn 0.0135 0.0065 0.9999
vn -0.9998 0.0130 0.0134
vn -0.0588 -0.9639 -0.2597
vn -0.6479 -0.7295 -0.2192
vn 0.2871 -0.9450 -0.1566
vn 0.2955 -0.9332 0.2045
vn -0.0452 -0.9448 0.3246
vn -0.8852 -0.4035 -0.2318
vn -0.0302 -0.3867 -0.9217
vn 0.8886 -0.3262 -0.3223
vn 0.6016 -0.3056 0.7381
vn -0.4947 -0.3533 0.7940
vn -0.8078 -0.1907 -0.5577
vn 0.2899 -0.1534 -0.9447
vn 0.9955 -0.0922 -0.0202
vn 0.3338 -0.0918 0.9382
vn -0.7807 -0.1526 0.6060
vn -0.4384 0.6540 -0.6165
vn 0.4087 0.6930 -0.5939
vn 0.6479 0.7295 0.2192
vn -0.0515 0.7131 0.6991
vn -0.7228 0.6665 0.1826
vn -0.2871 0.9450 0.1566
vn -0.4936 0.8073 0.3233
vn -0.4102 0.6936 0.5922
vn 0.0588 0.9639 0.2597
vn 0.1533 0.8427 0.5161
vn 0.4349 0.7297 0.5277
vn 0.2641 0.9638 -0.0377
vn 0.5374 0.8424 -0.0401
vn 0.6359 0.7126 -0.2963
vn 0.0451 0.9448 -0.3246
vn 0.1278 0.8069 -0.5767
vn -0.0850 0.6660 -0.7411
vn -0.2955 0.9332 -0.2045
vn -0.5094 0.7852 -0.3521
vn -0.7316 0.6542 -0.1919
vn -0.8886 0.3262 0.3223
vn -0.7869 0.1867 0.5882
vn -0.5670 0.3541 0.7437
vn 0.0302 0.3867 0.9217
vn 0.3147 0.2468 0.9165
vn 0.5306 0.4037 0.7453
vn 0.8852 0.4035 0.2318
vn 0.9687 0.2464 -0.0307
vn 0.8728 0.3861 -0.2986
vn 0.4947 0.3533 -0.7940
vn 0.2713 0.1859 -0.9444
vn -0.0133 0.3256 -0.9454
vn -0.6016 0.3056 -0.7381
vn -0.8137 0.1490 -0.5619
vn -0.9032 0.3058 -0.3012
vn -0.2899 0.1534 0.9447
vn -0.2713 -0.1859 0.9444
vn 0.0133 -0.3256 0.9454
vn 0.8078 0.1907 0.5577
vn 0.8137 -0.1490 0.5619
vn 0.9032 -0.3058 0.3012
vn 0.7807 0.1526 -0.6060
vn 0.7869 -0.1867 -0.5882
vn 0.5670 -0.3541 -0.7437
vn -0.3338 0.0918 -0.9382
vn -0.3147 -0.2468 -0.9165
vn -0.5306 -0.4037 -0.7453
vn -0.9955 0.0922 0.0202
vn -0.9687 -0.2464 0.0307
vn -0.8728 -0.3861 0.2986
vn -0.4087 -0.6930 0.5939
vn -0.1278 -0.8069 0.5767
vn 0.0851 -0.6660 0.7411
vn 0.4384 -0.6540 0.6165
vn 0.5094 -0.7852 0.3521
vn 0.7316 -0.6542 0.1919
vn 0.7228 -0.6665 -0.1826
vn 0.4936 -0.8073 -0.3233
vn 0.4102 -0.6936 -0.5922
vn -0.6359 -0.7126 0.2964
vn -0.5374 -0.8424 0.0401
vn -0.2641 -0.9638 0.0377
vn 0.0515 -0.7131 -0.6991
vn -0.1533 -0.8427 -0.5161
vn -0.4349 -0.7297 -0.5277
vn -0.1219 -0.9103 -0.3956
vn -0.7589 -0.5631 -0.3270
vn 0.3214 -0.9180 -0.2323
vn 0.3030 -0.9223 0.2398
vn -0.1517 -0.9173 0.3682
vn -0.9156 -0.2540 -0.3116
vn 0.0085 -0.2605 -0.9655
vn 0.9157 -0.2796 -0.2886
vn 0.5523 -0.2850 0.7834
vn -0.5795 -0.2691 0.7692
vn -0.7829 -0.0840 -0.6165
vn 0.3426 -0.0965 -0.9345
vn 0.9927 -0.1149 0.0376
vn 0.2690 -0.1138 0.9564
vn -0.8284 -0.0947 0.5521
vn -0.4106 0.5893 -0.6958
vn 0.5458 0.5752 -0.6093
vn 0.7589 0.5631 0.3270
vn -0.0657 0.5698 0.8191
vn -0.7885 0.5860 0.1870
vn -0.3214 0.9180 0.2323
vn -0.5640 0.7274 0.3910
vn -0.4638 0.5768 0.6725
vn 0.1219 0.9103 0.3956
vn 0.1977 0.7141 0.6716
vn 0.4963 0.5636 0.6603
vn 0.4143 0.9098 0.0245
vn 0.7001 0.7133 0.0338
vn 0.7816 0.5685 -0.2566
vn 0.1517 0.9173 -0.3682
vn 0.2488 0.7261 -0.6410
vn -0.0022 0.5847 -0.8112
vn -0.3030 0.9223 -0.2398
vn -0.5324 0.7348 -0.4203
vn -0.7720 0.5898 -0.2370
vn -0.9157 0.2796 0.2886
vn -0.8196 0.1571 0.5510
vn -0.6117 0.2710 0.7432
vn -0.0085 0.2605 0.9655
vn 0.2707 0.1381 0.9527
vn 0.5178 0.2546 0.8167
vn 0.9156 0.2540 0.3116
vn 0.9898 0.1369 0.0398
vn 0.9369 0.2590 -0.2348
vn 0.5795 0.2691 -0.7692
vn 0.3439 0.1553 -0.9261
vn 0.0664 0.2781 -0.9583
vn -0.5523 0.2850 -0.7834
vn -0.7744 0.1677 -0.6101
vn -0.8907 0.2855 -0.3538
vn -0.3426 0.0965 0.9345
vn -0.3439 -0.1553 0.9261
vn -0.0664 -0.2781 0.9583
vn 0.7829 0.0840 0.6165
vn 0.7744 -0.1677 0.6101
vn 0.8907 -0.2855 0.3538
vn 0.8284 0.0947 -0.5521
vn 0.8196 -0.1571 -0.5510
vn 0.6117 -0.2710 -0.7432
vn -0.2690 0.1138 -0.9564
vn -0.2707 -0.1381 -0.9527
vn -0.5178 -0.2546 -0.8167
vn -0.9927 0.1149 -0.0376
vn -0.9898 -0.1369 -0.0398
vn -0.9369 -0.2590 0.2348
vn -0.5458 -0.5752 0.6093
vn -0.2488 -0.7261 0.6410
vn 0.0022 -0.5847 0.8112
vn 0.4106 -0.5893 0.6958
vn 0.5324 -0.7348 0.4203
vn 0.7720 -0.5898 0.2370
vn 0.7885 -0.5860 -0.1870
vn 0.5640 -0.7274 -0.3910
vn 0.4638 -0.5768 -0.6725
vn -0.7816 -0.5685 0.2566
vn -0.7001 -0.7133 -0.0338
vn -0.4143 -0.9098 -0.0245
vn 0.0657 -0.5698 -0.8191
vn -0.1977 -0.7141 -0.6716
vn -0.4964 -0.5636 -0.6603
vn 0.5536 0.6056 -0.5716
vn -0.3831 -0.8598 -0.3375
vn -0.5269 -0.3963 0.7519
vn -0.8967 -0.4199 -0.1398
vn -0.1821 -0.6316 -0.7536
vn 0.6294 -0.7387 -0.2414
vn 0.5269 0.3963 -0.7519
vn 0.1964 0.9746 -0.1073
vn 0.6159 0.6004 0.5101
vn 0.6816 -0.7242 0.1044
vn 0.2328 -0.7644 -0.6013
vn -0.2328 0.7644 0.6013
vn 0.9751 0.0103 -0.2215
vn 0.5453 0.2677 -0.7944
vn 0.5641 -0.2704 0.7802
vn 0.5379 -0.2546 0.8037
vn -0.5714 -0.2393 0.7850
vn -0.9837 0.1764 0.0341
vn -0.5378 0.2546 -0.8037
vn 0.0815 -0.9966 -0.0108
vn -0.0816 0.9966 0.0108
vn 0.0052 0.7730 -0.6344
vn -0.3043 -0.9525 0.0103
vn -0.4735 -0.8807 0.0117
vn -0.3152 0.9490 0.0057
vn 0.3151 -0.9490 -0.0057
vn 0.4342 0.9008 0.0015
vn 0.0129 0.9959 0.0890
vn -0.0129 -0.9960 -0.0890
vn -0.0805 0.9967 -0.0054
vn 0.0006 0.7389 -0.6739
vt 0.903850 0.009078
vt 0.909758 0.001156
vt 0.914332 0.009078
vt 0.283048 0.163408
vt 0.262245 0.163425
vt 0.262245 0.151409
vt 0.994759 0.148383
vt 0.995180 0.165560
vt 0.989517 0.163425
vt 0.828665 0.151409
vt 0.818202 0.169389
vt 0.807862 0.163408
vt 0.646847 0.151409
vt 0.636383 0.169389
vt 0.626044 0.163408
vt 0.446192 0.150999
vt 0.465029 0.163425
vt 0.454565 0.169389
vt 0.181742 0.302861
vt 0.190230 0.321250
vt 0.171336 0.320885
vt 0.909015 0.302861
vt 0.904271 0.323020
vt 0.898608 0.320885
vt 0.727350 0.302861
vt 0.737756 0.320885
vt 0.718862 0.321250
vt 0.545532 0.302861
vt 0.555938 0.320885
vt 0.537044 0.321250
vt 0.363560 0.302861
vt 0.372048 0.321250
vt 0.353154 0.320885
vt 0.818849 0.471226
vt 0.812941 0.463304
vt 0.818182 0.460277
vt 0.909091 0.012105
vt 0.989517 0.151409
vt 0.187060 0.009079
vt 0.181819 0.012105
vt 0.101393 0.163513
vt 0.444226 0.163408
vt 0.465029 0.151409
vt 0.540214 0.009079
vt 0.545455 0.012105
vt 0.809828 0.150999
vt 0.628010 0.150999
vt 0.727273 0.012105
vt 0.646847 0.163425
vt 0.353154 0.308869
vt 0.373957 0.308940
vt 0.171336 0.308869
vt 0.192139 0.308940
vt 0.272709 0.169389
vt 0.898608 0.308869
vt 0.828665 0.163425
vt 0.913695 0.306698
vt 0.716953 0.308940
vt 0.737756 0.308869
vt 0.535135 0.308940
vt 0.555938 0.308869
vt 0.010483 0.320973
vt 0.096151 0.463304
vt 0.090910 0.460277
vt 0.272728 0.460277
vt 0.823423 0.463304
vt 0.631123 0.463304
vt 0.636364 0.460277
vt 0.101393 0.151409
vt 0.281082 0.150999
vt 0.363637 0.012105
vt 0.090910 0.169565
vt 0.010483 0.308869
vt 0.454546 0.460277
vt 0.901326 0.013449
vt 0.910080 0.001713
vt 0.916856 0.013450
vt 0.287739 0.166092
vt 0.257198 0.166146
vt 0.257198 0.148495
vt 0.992235 0.144011
vt 0.993164 0.168752
vt 0.984470 0.166146
vt 0.833712 0.148495
vt 0.818244 0.174831
vt 0.803171 0.166092
vt 0.651894 0.148495
vt 0.636426 0.174831
vt 0.621353 0.166092
vt 0.443574 0.147618
vt 0.470076 0.166146
vt 0.454608 0.174830
vt 0.181575 0.297129
vt 0.192973 0.324342
vt 0.166289 0.323606
vt 0.908847 0.297129
vt 0.902255 0.326212
vt 0.893561 0.323606
vt 0.727517 0.297129
vt 0.742803 0.323606
vt 0.716119 0.324342
vt 0.545699 0.297129
vt 0.560985 0.323606
vt 0.534301 0.324342
vt 0.363393 0.297129
vt 0.374791 0.324342
vt 0.348107 0.323606
vt 0.819171 0.470670
vt 0.810417 0.458932
vt 0.818182 0.454449
vt 0.909091 0.017933
vt 0.984470 0.148495
vt 0.189584 0.013450
vt 0.181819 0.017933
vt 0.106440 0.166427
vt 0.439535 0.166092
vt 0.470076 0.148495
vt 0.537690 0.013450
vt 0.545455 0.017933
vt 0.807210 0.147617
vt 0.625392 0.147617
vt 0.727273 0.017933
vt 0.651894 0.166146
vt 0.348107 0.305955
vt 0.378648 0.306183
vt 0.166289 0.305955
vt 0.196830 0.306183
vt 0.272666 0.174830
vt 0.893561 0.305955
vt 0.833712 0.166146
vt 0.915451 0.303355
vt 0.712262 0.306183
vt 0.742803 0.305955
vt 0.530444 0.306183
vt 0.560985 0.305955
vt 0.015530 0.323887
vt 0.098675 0.458932
vt 0.090910 0.454449
vt 0.272728 0.454449
vt 0.825947 0.458932
vt 0.628599 0.458932
vt 0.636364 0.454449
vt 0.106440 0.148495
vt 0.283700 0.147617
vt 0.363637 0.017933
vt 0.090910 0.175394
vt 0.015530 0.305955
vt 0.454546 0.454449
vt 0.901027 0.013967
vt 0.910118 0.001778
vt 0.917155 0.013967
vt 0.288276 0.166397
vt 0.256601 0.166457
vt 0.256601 0.148150
vt 0.991936 0.143494
vt 0.992939 0.169099
vt 0.983873 0.166457
vt 0.834309 0.148150
vt 0.818251 0.175454
vt 0.802634 0.166397
vt 0.652491 0.148150
vt 0.636433 0.175454
vt 0.620816 0.166397
vt 0.443320 0.147206
vt 0.470673 0.166457
vt 0.454615 0.175454
vt 0.181547 0.296456
vt 0.193248 0.324704
vt 0.165692 0.323918
vt 0.908819 0.296456
vt 0.902030 0.326559
vt 0.892964 0.323918
vt 0.727545 0.296456
vt 0.743400 0.323918
vt 0.715844 0.324704
vt 0.545728 0.296456
vt 0.561582 0.323918
vt 0.534026 0.324704
vt 0.363365 0.296456
vt 0.375066 0.324704
vt 0.347510 0.323918
vt 0.819209 0.470604
vt 0.810118 0.458415
vt 0.818182 0.453759
vt 0.909091 0.018622
vt 0.983873 0.148150
vt 0.189883 0.013967
vt 0.181819 0.018623
vt 0.107037 0.148150
vt 0.438998 0.166397
vt 0.470673 0.148150
vt 0.537391 0.013967
vt 0.545455 0.018623
vt 0.806956 0.147206
vt 0.625138 0.147206
vt 0.727273 0.018622
vt 0.652491 0.166457
vt 0.347510 0.305610
vt 0.379185 0.305864
vt 0.165692 0.305610
vt 0.107037 0.166772
vt 0.197367 0.305864
vt 0.272659 0.175454
vt 0.892964 0.305610
vt 0.834309 0.166457
vt 0.915639 0.302987
vt 0.711725 0.305864
vt 0.743400 0.305610
vt 0.529907 0.305864
vt 0.561582 0.305610
vt 0.016127 0.305610
vt 0.098974 0.458415
vt 0.090910 0.453759
vt 0.272728 0.453760
vt 0.826246 0.458415
vt 0.636364 0.453759
vt 0.628300 0.458415
vt 0.283954 0.147206
vt 0.363637 0.018623
vt 0.090910 0.176083
vt 0.016127 0.324232
vt 0.454546 0.453760
vt 0.902925 0.010680
vt 0.909876 0.001360
vt 0.915257 0.010681
vt 0.284798 0.164411
vt 0.260395 0.164438
vt 0.260395 0.150341
vt 0.993834 0.146780
vt 0.994418 0.166784
vt 0.987667 0.164438
vt 0.830515 0.150341
vt 0.818213 0.171416
vt 0.806112 0.164411
vt 0.648697 0.150341
vt 0.636396 0.171416
vt 0.624295 0.164411
vt 0.445132 0.149779
vt 0.466879 0.164438
vt 0.454577 0.171416
vt 0.181695 0.300752
vt 0.191325 0.322389
vt 0.169486 0.321899
vt 0.908967 0.300752
vt 0.903509 0.324244
vt 0.896758 0.321899
vt 0.727397 0.300752
vt 0.739606 0.321899
vt 0.717767 0.322389
vt 0.545579 0.300752
vt 0.557788 0.321898
vt 0.535949 0.322389
vt 0.363513 0.300752
vt 0.373143 0.322389
vt 0.351304 0.321898
vt 0.818967 0.471022
vt 0.812016 0.461701
vt 0.818182 0.458141
vt 0.909091 0.014241
vt 0.987667 0.150341
vt 0.187985 0.010681
vt 0.181819 0.014241
vt 0.103243 0.164581
vt 0.442476 0.164411
vt 0.466879 0.150341
vt 0.539289 0.010681
vt 0.545455 0.014241
vt 0.808768 0.149779
vt 0.626950 0.149779
vt 0.727273 0.014241
vt 0.648697 0.164438
vt 0.351304 0.307801
vt 0.375706 0.307916
vt 0.169486 0.307801
vt 0.193889 0.307916
vt 0.272697 0.171416
vt 0.896758 0.307801
vt 0.830514 0.164438
vt 0.914374 0.305425
vt 0.715204 0.307916
vt 0.739606 0.307801
vt 0.533385 0.307916
vt 0.557788 0.307801
vt 0.012333 0.322041
vt 0.097076 0.461701
vt 0.090910 0.458141
vt 0.278894 0.461702
vt 0.824348 0.461701
vt 0.630198 0.461701
vt 0.636364 0.458141
vt 0.103243 0.150341
vt 0.282142 0.149779
vt 0.363637 0.014241
vt 0.090910 0.171702
vt 0.012333 0.307801
vt 0.272728 0.458141
vt 0.454546 0.458141
vt 0.128500 0.746500
vt 0.128500 0.750000
vt 0.125000 0.746500
vt 0.621500 0.996500
vt 0.625000 0.996500
vt 0.621500 1.000000
vt 0.128500 0.503500
vt 0.125000 0.503500
vt 0.128500 0.500000
vt 0.625000 0.250015
vt 0.621500 0.253500
vt 0.621500 0.246501
vt 0.371500 0.746500
vt 0.378499 0.746500
vt 0.378362 0.753431
vt 0.628431 0.746638
vt 0.621500 0.753500
vt 0.621500 0.746501
vt 0.371500 0.503500
vt 0.378362 0.496569
vt 0.378499 0.503500
vt 0.628431 0.503363
vt 0.621500 0.503500
vt 0.621500 0.496501
vt 0.621500 0.000000
vt 0.378500 0.003500
vt 0.378500 0.000000
vt 0.625000 0.003500
vt 0.621500 0.003500
vt 0.378500 0.246500
vt 0.378500 0.996500
vt 0.871500 0.746500
vt 0.378500 0.253500
vt 0.378499 0.746500
vt 0.621500 0.496501
vt 0.621500 0.246501
vt 0.871500 0.503500
vt 0.378362 0.496569
vt 0.181819 0.000000
vt 0.227273 0.078731
vt 0.136365 0.078731
vt 0.272728 0.157461
vt 0.318182 0.078731
vt 0.363637 0.157461
vt 0.909091 0.000000
vt 0.954545 0.078731
vt 0.863636 0.078731
vt 0.727273 0.000000
vt 0.772727 0.078731
vt 0.681818 0.078731
vt 0.545455 0.000000
vt 0.590909 0.078731
vt 0.500000 0.078731
vt 0.318182 0.236191
vt 0.090910 0.157461
vt 0.181819 0.157461
vt 0.136365 0.236191
vt 0.818182 0.157461
vt 0.909091 0.157461
vt 0.863636 0.236191
vt 0.636364 0.157461
vt 0.727273 0.157461
vt 0.681818 0.236191
vt 0.454546 0.157461
vt 0.545455 0.157461
vt 0.500000 0.236191
vt 0.227273 0.236191
vt 0.045455 0.236191
vt 0.772727 0.236191
vt 0.590909 0.236191
vt 0.409092 0.236191
vt 0.181819 0.314921
vt 0.272728 0.314921
vt 0.227273 0.393651
vt 0.000000 0.314921
vt 0.090910 0.314921
vt 0.045455 0.393651
vt 0.727273 0.314921
vt 0.818182 0.314921
vt 0.772727 0.393651
vt 0.545455 0.314921
vt 0.636364 0.314921
vt 0.590909 0.393651
vt 0.363637 0.314921
vt 0.454546 0.314921
vt 0.409092 0.393651
vt 0.500000 0.393651
vt 0.454546 0.472382
vt 0.681818 0.393651
vt 0.636364 0.472382
vt 0.863636 0.393651
vt 0.818182 0.472382
vt 0.909091 0.314921
vt 0.136365 0.393651
vt 0.090910 0.472382
vt 0.318182 0.393651
vt 0.272728 0.472382
vt 0.954545 0.236191
vt 1.000000 0.157461
vt 0.409092 0.078731
vt 0.363637 0.000000
vt 0.908424 0.001156
vt 0.999333 0.156305
vt 0.817515 0.471226
vt 0.722032 0.009078
vt 0.277969 0.463304
vt 0.908102 0.001712
vt 0.999011 0.155749
vt 0.817193 0.470670
vt 0.719508 0.013450
vt 0.280493 0.458933
vt 0.908064 0.001778
vt 0.998973 0.155683
vt 0.817155 0.470604
vt 0.719209 0.013967
vt 0.280792 0.458415
vt 0.908306 0.001360
vt 0.999215 0.156101
vt 0.817397 0.471022
vt 0.721107 0.010681
s 0
usemtl stone
f 2/1/1 4/2/1 5/3/1
f 7/4/2 9/5/2 10/6/2
f 12/7/3 14/8/3 15/9/3
f 17/10/4 19/11/4 20/12/4
f 22/13/5 24/14/5 25/15/5
f 27/16/6 29/17/6 30/18/6
f 32/19/7 34/20/7 35/21/7
f 37/22/8 39/23/8 40/24/8
f 42/25/9 44/26/9 45/27/9
f 47/28/10 49/29/10 50/30/10
f 52/31/11 54/32/11 55/33/11
f 57/34/12 59/35/12 60/36/12
f 1/37/13 12/7/13 11/38/13
f 4/39/14 10/6/14 5/40/14
f 13/41/15 10/6/15 9/5/15
f 7/4/16 27/16/16 26/42/16
f 28/43/17 4/44/17 3/45/17
f 2/1/18 17/10/18 16/46/18
f 15/9/19 17/10/19 11/38/19
f 21/47/20 2/48/20 22/13/20
f 23/49/21 16/46/21 20/12/21
f 25/15/22 28/43/22 21/47/22
f 51/50/23 7/4/23 52/31/23
f 53/51/24 26/42/24 30/18/24
f 31/52/25 13/41/25 32/19/25
f 33/53/26 9/5/26 8/54/26
f 36/55/27 18/56/27 37/22/27
f 38/57/28 15/9/28 14/8/28
f 41/58/29 23/49/29 42/25/29
f 43/59/30 20/12/30 19/11/30
f 46/60/31 29/17/31 47/28/31
f 48/61/32 25/15/32 24/14/32
f 55/33/33 33/53/33 51/50/33
f 39/62/34 31/52/34 35/21/34
f 40/24/35 43/59/35 36/55/35
f 45/27/36 48/61/36 41/58/36
f 54/32/37 46/60/37 50/30/37
f 35/21/38 57/63/38 56/64/38
f 54/32/39 57/65/39 55/33/39
f 60/36/40 39/23/40 56/66/40
f 45/27/41 60/36/41 59/35/41
f 58/67/42 49/29/42 59/68/42
f 1/37/43 11/38/43 17/10/43
f 5/40/44 10/6/44 12/69/44
f 6/70/45 4/71/45 27/16/45
f 2/48/46 16/46/46 22/13/46
f 3/45/47 21/47/47 28/43/47
f 7/4/48 26/42/48 52/31/48
f 8/54/49 51/50/49 33/53/49
f 13/41/50 9/5/50 32/19/50
f 14/72/51 31/52/51 38/73/51
f 18/56/52 15/9/52 37/22/52
f 19/11/53 36/55/53 43/59/53
f 23/49/54 20/12/54 42/25/54
f 24/14/55 41/58/55 48/61/55
f 29/17/56 25/15/56 47/28/56
f 30/18/57 46/60/57 53/51/57
f 39/62/58 35/21/58 56/64/58
f 34/20/59 55/33/59 57/65/59
f 44/26/60 40/24/60 60/36/60
f 49/29/61 45/27/61 59/68/61
f 54/32/62 50/30/62 58/74/62
f 62/75/63 64/76/63 65/77/63
f 67/78/64 69/79/64 70/80/64
f 72/81/65 74/82/65 75/83/65
f 77/84/66 79/85/66 80/86/66
f 82/87/67 84/88/67 85/89/67
f 87/90/68 89/91/68 90/92/68
f 92/93/69 94/94/69 95/95/69
f 97/96/70 99/97/70 100/98/70
f 102/99/71 104/100/71 105/101/71
f 107/102/72 109/103/72 110/104/72
f 112/105/73 114/106/73 115/107/73
f 117/108/74 119/109/74 120/110/74
f 61/111/75 72/81/75 71/112/75
f 64/113/76 70/80/76 65/114/76
f 73/115/77 70/80/77 69/79/77
f 67/78/78 87/90/78 86/116/78
f 88/117/79 64/118/79 63/119/79
f 76/120/80 61/111/80 77/84/80
f 75/83/81 77/84/81 71/112/81
f 81/121/82 62/122/82 82/87/82
f 83/123/83 76/120/83 80/86/83
f 85/89/84 88/117/84 81/121/84
f 111/124/85 67/78/85 112/105/85
f 113/125/86 86/116/86 90/92/86
f 91/126/87 73/115/87 92/93/87
f 93/127/88 69/79/88 68/128/88
f 96/129/89 78/130/89 97/96/89
f 98/131/90 75/83/90 74/82/90
f 101/132/91 83/123/91 102/99/91
f 103/133/92 80/86/92 79/85/92
f 106/134/93 89/91/93 107/102/93
f 108/135/94 85/89/94 84/88/94
f 115/107/95 93/127/95 111/124/95
f 99/136/96 91/126/96 95/95/96
f 100/98/97 103/133/97 96/129/97
f 105/101/98 108/135/98 101/132/98
f 114/106/99 106/134/99 110/104/99
f 95/95/100 117/137/100 116/138/100
f 114/106/101 117/139/101 115/107/101
f 120/110/102 99/97/102 116/140/102
f 105/101/103 120/110/103 119/109/103
f 118/141/104 109/103/104 119/142/104
f 61/111/105 71/112/105 77/84/105
f 65/114/106 70/80/106 72/143/106
f 66/144/107 64/145/107 87/90/107
f 62/122/108 76/120/108 82/87/108
f 63/119/109 81/121/109 88/117/109
f 67/78/110 86/116/110 112/105/110
f 68/128/111 111/124/111 93/127/111
f 73/115/112 69/79/112 92/93/112
f 74/146/113 91/126/113 98/147/113
f 78/130/114 75/83/114 97/96/114
f 79/85/115 96/129/115 103/133/115
f 83/123/116 80/86/116 102/99/116
f 84/88/117 101/132/117 108/135/117
f 89/91/118 85/89/118 107/102/118
f 90/92/119 106/134/119 113/125/119
f 99/136/120 95/95/120 116/138/120
f 94/94/121 115/107/121 117/139/121
f 104/100/122 100/98/122 120/110/122
f 109/103/123 105/101/123 119/142/123
f 114/106/124 110/104/124 118/148/124
f 122/149/125 124/150/125 125/151/125
f 127/152/126 129/153/126 130/154/126
f 132/155/127 134/156/127 135/157/127
f 137/158/128 139/159/128 140/160/128
f 142/161/129 144/162/129 145/163/129
f 147/164/130 149/165/130 150/166/130
f 152/167/131 154/168/131 155/169/131
f 157/170/132 159/171/132 160/172/132
f 162/173/133 164/174/133 165/175/133
f 167/176/134 169/177/134 170/178/134
f 172/179/135 174/180/135 175/181/135
f 177/182/136 179/183/136 180/184/136
f 121/185/137 132/155/137 131/186/137
f 124/187/138 130/154/138 125/188/138
f 129/153/139 132/189/139 130/154/139
f 127/152/140 147/164/140 146/190/140
f 148/191/141 124/192/141 123/193/141
f 122/149/142 137/158/142 136/194/142
f 135/157/143 137/158/143 131/186/143
f 141/195/144 122/196/144 142/161/144
f 143/197/145 136/194/145 140/160/145
f 149/165/146 141/195/146 145/163/146
f 171/198/147 127/152/147 172/179/147
f 173/199/148 146/190/148 150/166/148
f 151/200/149 133/201/149 152/167/149
f 153/202/150 129/153/150 128/203/150
f 156/204/151 138/205/151 157/170/151
f 158/206/152 135/157/152 134/156/152
f 161/207/153 143/197/153 162/173/153
f 163/208/154 140/160/154 139/159/154
f 166/209/155 149/165/155 167/176/155
f 168/210/156 145/163/156 144/162/156
f 175/181/157 153/202/157 171/198/157
f 155/169/158 158/211/158 151/200/158
f 164/174/159 156/204/159 160/172/159
f 169/177/160 161/207/160 165/175/160
f 174/180/161 166/209/161 170/178/161
f 155/169/162 177/212/162 176/213/162
f 174/180/163 177/214/163 175/181/163
f 180/184/164 159/171/164 176/215/164
f 165/175/165 180/184/165 179/183/165
f 170/178/166 179/216/166 178/217/166
f 121/185/167 131/186/167 137/158/167
f 125/188/168 130/154/168 132/189/168
f 126/218/169 124/219/169 147/164/169
f 122/196/170 136/194/170 142/161/170
f 123/193/171 141/195/171 148/191/171
f 127/152/172 146/190/172 172/179/172
f 128/203/173 171/198/173 153/202/173
f 133/201/174 129/153/174 152/167/174
f 134/220/175 151/200/175 158/211/175
f 138/205/176 135/157/176 157/170/176
f 139/159/177 156/204/177 163/208/177
f 143/197/178 140/160/178 162/173/178
f 144/162/179 161/207/179 168/210/179
f 149/165/180 145/163/180 167/176/180
f 150/166/181 166/209/181 173/199/181
f 159/221/182 155/169/182 176/213/182
f 154/168/183 175/181/183 177/214/183
f 164/174/184 160/172/184 180/184/184
f 169/177/185 165/175/185 179/216/185
f 174/180/186 170/178/186 178/222/186
f 182/223/187 184/224/187 185/225/187
f 187/226/188 189/227/188 190/228/188
f 192/229/189 194/230/189 195/231/189
f 197/232/190 199/233/190 200/234/190
f 202/235/191 204/236/191 205/237/191
f 207/238/192 209/239/192 210/240/192
f 212/241/193 214/242/193 215/243/193
f 217/244/194 219/245/194 220/246/194
f 222/247/195 224/248/195 225/249/195
f 227/250/196 229/251/196 230/252/196
f 232/253/197 234/254/197 235/255/197
f 237/256/198 239/257/198 240/258/198
f 181/259/199 192/229/199 191/260/199
f 184/261/200 190/228/200 185/262/200
f 193/263/201 190/228/201 189/227/201
f 187/226/202 207/238/202 206/264/202
f 208/265/203 184/266/203 183/267/203
f 196/268/204 181/259/204 197/232/204
f 195/231/205 197/232/205 191/260/205
f 201/269/206 182/270/206 202/235/206
f 203/271/207 196/268/207 200/234/207
f 205/237/208 208/265/208 201/269/208
f 231/272/209 187/226/209 232/253/209
f 233/273/210 206/264/210 210/240/210
f 211/274/211 193/263/211 212/241/211
f 213/275/212 189/227/212 188/276/212
f 216/277/213 198/278/213 217/244/213
f 218/279/214 195/231/214 194/230/214
f 221/280/215 203/271/215 222/247/215
f 223/281/216 200/234/216 199/233/216
f 226/282/217 209/239/217 227/250/217
f 228/283/218 205/237/218 204/236/218
f 235/255/219 213/275/219 231/272/219
f 219/284/220 211/274/220 215/243/220
f 224/248/221 216/277/221 220/246/221
f 225/249/222 228/283/222 221/280/222
f 234/254/223 226/282/223 230/252/223
f 215/243/224 237/285/224 236/286/224
f 238/287/225 235/255/225 234/254/225
f 240/258/226 219/245/226 236/288/226
f 225/249/227 240/258/227 239/257/227
f 238/289/228 229/251/228 239/290/228
f 181/259/229 191/260/229 197/232/229
f 185/262/230 190/228/230 192/291/230
f 186/292/231 184/293/231 207/238/231
f 182/270/232 196/268/232 202/235/232
f 183/267/233 201/269/233 208/265/233
f 187/226/234 206/264/234 232/253/234
f 188/276/235 231/272/235 213/275/235
f 193/263/236 189/227/236 212/241/236
f 194/294/237 211/274/237 218/295/237
f 198/278/238 195/231/238 217/244/238
f 199/233/239 216/277/239 223/281/239
f 203/271/240 200/234/240 222/247/240
f 204/236/241 221/280/241 228/283/241
f 209/239/242 205/237/242 227/250/242
f 210/240/243 226/282/243 233/273/243
f 219/284/244 215/243/244 236/286/244
f 214/242/245 235/255/245 237/296/245
f 224/248/246 220/246/246 240/258/246
f 229/251/247 225/249/247 239/290/247
f 234/254/248 230/252/248 238/297/248
f 5/3/1 1/37/1 2/1/1
f 2/1/1 3/399/1 4/2/1
f 10/6/2 6/70/2 7/4/2
f 7/4/2 8/54/2 9/5/2
f 15/9/3 11/38/3 12/7/3
f 12/7/3 13/400/3 14/8/3
f 20/12/4 16/46/4 17/10/4
f 17/10/4 18/56/4 19/11/4
f 25/15/5 21/47/5 22/13/5
f 22/13/5 23/49/5 24/14/5
f 30/18/6 26/42/6 27/16/6
f 27/16/6 28/43/6 29/17/6
f 35/21/7 31/52/7 32/19/7
f 32/19/7 33/53/7 34/20/7
f 40/24/8 36/55/8 37/22/8
f 37/22/8 38/57/8 39/23/8
f 45/27/9 41/58/9 42/25/9
f 42/25/9 43/59/9 44/26/9
f 50/30/10 46/60/10 47/28/10
f 47/28/10 48/61/10 49/29/10
f 55/33/669 51/50/669 52/31/669
f 52/31/11 53/51/11 54/32/11
f 60/36/12 56/66/12 57/34/12
f 57/34/12 58/401/12 59/35/12
f 1/37/13 5/3/13 12/7/13
f 4/39/14 6/70/14 10/6/14
f 13/41/15 12/69/15 10/6/15
f 7/4/16 6/70/16 27/16/16
f 28/43/17 27/16/17 4/44/17
f 2/1/18 1/37/18 17/10/18
f 15/9/19 18/56/19 17/10/19
f 21/47/20 3/402/20 2/48/20
f 23/49/21 22/13/21 16/46/21
f 25/15/22 29/17/22 28/43/22
f 51/50/23 8/54/23 7/4/23
f 53/51/24 52/31/24 26/42/24
f 31/52/25 14/72/25 13/41/25
f 33/53/26 32/19/26 9/5/26
f 36/55/27 19/11/27 18/56/27
f 38/57/28 37/22/28 15/9/28
f 41/58/29 24/14/29 23/49/29
f 43/59/30 42/25/30 20/12/30
f 46/60/31 30/18/31 29/17/31
f 48/61/32 47/28/32 25/15/32
f 55/33/33 34/20/33 33/53/33
f 39/62/34 38/73/34 31/52/34
f 40/24/35 44/26/35 43/59/35
f 45/27/36 49/29/36 48/61/36
f 54/32/37 53/51/37 46/60/37
f 35/21/38 34/20/38 57/63/38
f 54/32/39 58/403/39 57/65/39
f 60/36/40 40/24/40 39/23/40
f 45/27/41 44/26/41 60/36/41
f 58/67/42 50/30/42 49/29/42
f 65/77/63 61/111/63 62/75/63
f 62/75/63 63/404/63 64/76/63
f 70/80/64 66/144/64 67/78/64
f 67/78/64 68/128/64 69/79/64
f 75/83/65 71/112/65 72/81/65
f 72/81/65 73/405/65 74/82/65
f 80/86/66 76/120/66 77/84/66
f 77/84/66 78/130/66 79/85/66
f 85/89/67 81/121/67 82/87/67
f 82/87/67 83/123/67 84/88/67
f 90/92/68 86/116/68 87/90/68
f 87/90/68 88/117/68 89/91/68
f 95/95/69 91/126/69 92/93/69
f 92/93/69 93/127/69 94/94/69
f 100/98/70 96/129/70 97/96/70
f 97/96/70 98/131/70 99/97/70
f 105/101/71 101/132/71 102/99/71
f 102/99/71 103/133/71 104/100/71
f 110/104/72 106/134/72 107/102/72
f 107/102/72 108/135/72 109/103/72
f 115/107/73 111/124/73 112/105/73
f 112/105/73 113/125/73 114/106/73
f 120/110/74 116/140/74 117/108/74
f 117/108/74 118/406/74 119/109/74
f 61/111/75 65/77/75 72/81/75
f 64/113/670 66/144/670 70/80/670
f 73/115/77 72/143/77 70/80/77
f 67/78/78 66/144/78 87/90/78
f 88/117/79 87/90/79 64/118/79
f 76/120/80 62/75/80 61/111/80
f 75/83/81 78/130/81 77/84/81
f 81/121/82 63/407/82 62/122/82
f 83/123/83 82/87/83 76/120/83
f 85/89/84 89/91/84 88/117/84
f 111/124/85 68/128/85 67/78/85
f 113/125/86 112/105/86 86/116/86
f 91/126/87 74/146/87 73/115/87
f 93/127/88 92/93/88 69/79/88
f 96/129/89 79/85/89 78/130/89
f 98/131/90 97/96/90 75/83/90
f 101/132/91 84/88/91 83/123/91
f 103/133/92 102/99/92 80/86/92
f 106/134/93 90/92/93 89/91/93
f 108/135/94 107/102/94 85/89/94
f 115/107/95 94/94/95 93/127/95
f 99/136/96 98/147/96 91/126/96
f 100/98/97 104/100/97 103/133/97
f 105/101/98 109/103/98 108/135/98
f 114/106/99 113/125/99 106/134/99
f 95/95/100 94/94/100 117/137/100
f 114/106/101 118/408/101 117/139/101
f 120/110/102 100/98/102 99/97/102
f 105/101/103 104/100/103 120/110/103
f 118/141/104 110/104/104 109/103/104
f 125/151/125 121/185/125 122/149/125
f 122/149/125 123/409/125 124/150/125
f 130/154/126 126/218/126 127/152/126
f 127/152/126 128/203/126 129/153/126
f 135/157/127 131/186/127 132/155/127
f 132/155/671 133/410/671 134/156/671
f 140/160/128 136/194/128 137/158/128
f 137/158/672 138/205/672 139/159/672
f 145/163/673 141/195/673 142/161/673
f 142/161/673 143/197/673 144/162/673
f 150/166/674 146/190/674 147/164/674
f 147/164/130 148/191/130 149/165/130
f 155/169/131 151/200/131 152/167/131
f 152/167/131 153/202/131 154/168/131
f 160/172/132 156/204/132 157/170/132
f 157/170/132 158/206/132 159/171/132
f 165/175/133 161/207/133 162/173/133
f 162/173/133 163/208/133 164/174/133
f 170/178/134 166/209/134 167/176/134
f 167/176/675 168/210/675 169/177/675
f 175/181/135 171/198/135 172/179/135
f 172/179/135 173/199/135 174/180/135
f 180/184/676 176/215/676 177/182/676
f 177/182/136 178/411/136 179/183/136
f 121/185/137 125/151/137 132/155/137
f 124/187/138 126/218/138 130/154/138
f 129/153/139 133/201/139 132/189/139
f 127/152/140 126/218/140 147/164/140
f 148/191/141 147/164/141 124/192/141
f 122/149/142 121/185/142 137/158/142
f 135/157/143 138/205/143 137/158/143
f 141/195/144 123/412/144 122/196/144
f 143/197/145 142/161/145 136/194/145
f 149/165/146 148/191/146 141/195/146
f 171/198/147 128/203/147 127/152/147
f 173/199/148 172/179/148 146/190/148
f 151/200/149 134/220/149 133/201/149
f 153/202/150 152/167/150 129/153/150
f 156/204/151 139/159/151 138/205/151
f 158/206/152 157/170/152 135/157/152
f 161/207/153 144/162/153 143/197/153
f 163/208/154 162/173/154 140/160/154
f 166/209/155 150/166/155 149/165/155
f 168/210/156 167/176/156 145/163/156
f 175/181/677 154/168/677 153/202/677
f 155/169/158 159/221/158 158/211/158
f 164/174/159 163/208/159 156/204/159
f 169/177/160 168/210/160 161/207/160
f 174/180/161 173/199/161 166/209/161
f 155/169/162 154/168/162 177/212/162
f 174/180/163 178/413/163 177/214/163
f 180/184/164 160/172/164 159/171/164
f 165/175/165 164/174/165 180/184/165
f 170/178/166 169/177/166 179/216/166
f 185/225/187 181/259/187 182/223/187
f 182/223/187 183/414/187 184/224/187
f 190/228/678 186/292/678 187/226/678
f 187/226/188 188/276/188 189/227/188
f 195/231/189 191/260/189 192/229/189
f 192/229/189 193/415/189 194/230/189
f 200/234/190 196/268/190 197/232/190
f 197/232/190 198/278/190 199/233/190
f 205/237/191 201/269/191 202/235/191
f 202/235/191 203/271/191 204/236/191
f 210/240/679 206/264/679 207/238/679
f 207/238/192 208/265/192 209/239/192
f 215/243/193 211/274/193 212/241/193
f 212/241/193 213/275/193 214/242/193
f 220/246/680 216/277/680 217/244/680
f 217/244/194 218/279/194 219/245/194
f 225/249/195 221/280/195 222/247/195
f 222/247/195 223/281/195 224/248/195
f 230/252/196 226/282/196 227/250/196
f 227/250/196 228/283/196 229/251/196
f 235/255/197 231/272/197 232/253/197
f 232/253/197 233/273/197 234/254/197
f 240/258/198 236/288/198 237/256/198
f 237/256/198 238/416/198 239/257/198
f 181/259/199 185/225/199 192/229/199
f 184/261/200 186/292/200 190/228/200
f 193/263/201 192/291/201 190/228/201
f 187/226/202 186/292/202 207/238/202
f 208/265/203 207/238/203 184/266/203
f 196/268/204 182/223/204 181/259/204
f 195/231/205 198/278/205 197/232/205
f 201/269/206 183/417/206 182/270/206
f 203/271/207 202/235/207 196/268/207
f 205/237/208 209/239/208 208/265/208
f 231/272/681 188/276/681 187/226/681
f 233/273/210 232/253/210 206/264/210
f 211/274/211 194/294/211 193/263/211
f 213/275/212 212/241/212 189/227/212
f 216/277/213 199/233/213 198/278/213
f 218/279/214 217/244/214 195/231/214
f 221/280/215 204/236/215 203/271/215
f 223/281/216 222/247/216 200/234/216
f 226/282/217 210/240/217 209/239/217
f 228/283/218 227/250/218 205/237/218
f 235/255/219 214/242/219 213/275/219
f 219/284/220 218/295/220 211/274/220
f 224/248/221 223/281/221 216/277/221
f 225/249/222 229/251/222 228/283/222
f 234/254/223 233/273/223 226/282/223
f 215/243/224 214/242/224 237/285/224
f 238/287/225 237/296/225 235/255/225
f 240/258/226 220/246/226 219/245/226
f 225/249/227 224/248/227 240/258/227
f 238/289/228 230/252/228 229/251/228
usemtl iron
f 241/298/249 242/299/249 243/300/249
f 244/301/250 245/302/250 246/303/250
f 247/304/251 248/305/251 249/306/251
f 250/307/252 251/308/252 252/309/252
f 253/310/253 254/311/253 255/312/253
f 256/313/254 257/314/254 258/315/254
f 259/316/255 260/317/255 261/318/255
f 262/319/256 263/320/256 264/321/256
f 247/304/257 243/300/257 248/305/257
f 244/322/258 243/323/258 242/324/258
f 245/325/259 252/309/259 246/326/259
f 251/308/260 248/327/260 252/309/260
f 247/304/261 260/317/261 259/316/261
f 262/319/262 251/308/262 250/307/262
f 263/320/263 260/317/263 264/321/263
f 253/310/264 261/318/264 254/311/264
f 262/319/265 258/315/265 263/320/265
f 255/312/266 258/315/266 257/314/266
f 241/298/267 255/312/267 242/299/267
f 245/302/268 257/314/268 256/313/268
f 247/304/269 253/310/269 241/298/269
f 243/323/270 252/309/270 248/327/270
f 255/312/271 244/301/271 242/328/271
f 262/319/272 245/329/272 256/313/272
f 251/308/273 260/317/273 249/330/273
f 261/318/274 258/315/274 254/311/274
f 265/298/275 266/299/275 267/300/275
f 268/301/276 269/302/276 270/303/276
f 271/304/277 272/305/277 273/306/277
f 274/307/278 275/308/278 276/309/278
f 277/310/279 278/331/279 279/312/279
f 280/313/280 281/314/280 282/315/280
f 283/316/281 284/317/281 285/318/281
f 286/319/282 287/320/282 288/332/282
f 265/298/283 272/305/283 271/304/283
f 268/322/284 267/323/284 266/324/284
f 274/307/285 270/326/285 269/325/285
f 273/330/286 276/309/286 275/308/286
f 271/304/287 284/317/287 283/316/287
f 286/319/288 275/308/288 274/307/288
f 285/318/289 288/332/289 287/320/289
f 277/310/290 285/318/290 278/331/290
f 286/319/291 282/315/291 287/320/291
f 279/312/292 282/315/292 281/314/292
f 265/298/293 279/312/293 266/299/293
f 280/313/294 268/301/294 281/314/294
f 271/304/295 277/310/295 265/298/295
f 270/326/296 272/327/296 267/323/296
f 279/312/297 268/301/297 266/328/297
f 286/319/298 269/329/298 280/313/298
f 275/308/299 284/317/299 273/330/299
f 285/318/300 282/315/300 278/331/300
f 457/298/483 458/299/483 459/300/483
f 460/301/484 461/302/484 462/303/484
f 463/304/485 464/305/485 465/306/485
f 466/307/486 467/308/486 468/333/486
f 469/310/487 470/311/487 471/312/487
f 472/313/488 473/314/488 474/315/488
f 475/316/489 476/335/489 477/318/489
f 478/319/490 479/320/490 480/321/490
f 457/298/491 464/305/491 463/304/491
f 458/324/492 462/326/492 459/323/492
f 466/307/493 462/326/493 461/325/493
f 465/330/494 468/333/494 467/308/494
f 475/316/495 465/306/495 476/335/495
f 478/319/496 467/308/496 466/307/496
f 477/318/497 480/321/497 479/320/497
f 475/316/498 470/311/498 469/310/498
f 472/313/499 479/320/499 478/319/499
f 471/312/500 474/315/500 473/314/500
f 457/298/501 471/312/501 458/299/501
f 472/313/502 460/301/502 473/314/502
f 463/304/503 469/310/503 457/298/503
f 462/326/504 464/327/504 459/323/504
f 473/314/505 458/328/505 471/312/505
f 466/334/506 472/313/506 478/319/506
f 465/330/507 480/321/507 476/335/507
f 477/318/508 474/315/508 470/311/508
f 247/304/257 241/298/257 243/300/257
f 244/322/682 246/326/682 243/323/682
f 245/325/259 250/307/259 252/309/259
f 251/308/683 249/330/683 248/327/683
f 247/304/261 249/306/261 260/317/261
f 262/319/262 264/321/262 251/308/262
f 263/320/263 261/318/263 260/317/263
f 253/310/264 259/316/264 261/318/264
f 262/319/265 256/313/265 258/315/265
f 255/312/266 254/311/266 258/315/266
f 241/298/267 253/310/267 255/312/267
f 245/302/268 244/301/268 257/314/268
f 247/304/269 259/316/269 253/310/269
f 243/323/270 246/326/270 252/309/270
f 255/312/271 257/314/271 244/301/271
f 262/319/272 250/334/272 245/329/272
f 251/308/273 264/321/273 260/317/273
f 261/318/274 263/320/274 258/315/274
f 265/298/283 267/300/283 272/305/283
f 268/322/284 270/326/284 267/323/284
f 274/307/285 276/309/285 270/326/285
f 273/330/684 272/327/684 276/309/684
f 271/304/287 273/306/287 284/317/287
f 286/319/288 288/332/288 275/308/288
f 285/318/685 284/317/685 288/332/685
f 277/310/290 283/316/290 285/318/290
f 286/319/686 280/313/686 282/315/686
f 279/312/687 278/331/687 282/315/687
f 265/298/293 277/310/293 279/312/293
f 280/313/294 269/302/294 268/301/294
f 271/304/295 283/316/295 277/310/295
f 270/326/296 276/309/296 272/327/296
f 279/312/297 281/314/297 268/301/297
f 286/319/298 274/334/298 269/329/298
f 275/308/299 288/332/299 284/317/299
f 285/318/300 287/320/300 282/315/300
f 457/298/491 459/300/491 464/305/491
f 458/324/492 460/322/492 462/326/492
f 466/307/493 468/333/493 462/326/493
f 465/330/494 464/327/494 468/333/494
f 475/316/495 463/304/495 465/306/495
f 478/319/496 480/321/496 467/308/496
f 477/318/497 476/335/497 480/321/497
f 475/316/498 477/318/498 470/311/498
f 472/313/698 474/315/698 479/320/698
f 471/312/500 470/311/500 474/315/500
f 457/298/501 469/310/501 471/312/501
f 472/313/699 461/302/699 460/301/699
f 463/304/503 475/316/503 469/310/503
f 462/326/504 468/333/504 464/327/504
f 473/314/505 460/301/505 458/328/505
f 466/334/506 461/329/506 472/313/506
f 465/330/507 467/308/507 480/321/507
f 477/318/508 479/320/508 474/315/508
usemtl wood
f 289/298/301 290/299/301 291/300/301
f 292/301/302 293/302/302 294/303/302
f 295/304/303 296/305/303 297/306/303
f 298/307/304 299/308/304 300/333/304
f 301/310/305 302/331/305 303/312/305
f 304/313/306 305/314/306 306/315/306
f 307/316/307 308/317/307 309/318/307
f 310/319/308 311/320/308 312/321/308
f 295/304/309 291/300/309 296/305/309
f 290/324/310 294/326/310 291/323/310
f 298/307/311 294/326/311 293/325/311
f 299/308/312 296/327/312 300/333/312
f 295/304/313 308/317/313 307/316/313
f 310/319/314 299/308/314 298/307/314
f 309/318/315 312/321/315 311/320/315
f 301/310/316 309/318/316 302/331/316
f 310/319/317 306/315/317 311/320/317
f 305/314/318 302/331/318 306/315/318
f 289/298/319 303/312/319 290/299/319
f 293/302/320 305/314/320 304/313/320
f 307/316/321 289/298/321 295/304/321
f 291/323/322 300/333/322 296/327/322
f 305/314/323 290/328/323 303/312/323
f 298/334/324 304/313/324 310/319/324
f 297/330/325 312/321/325 308/317/325
f 311/320/326 302/331/326 309/318/326
f 313/298/327 314/299/327 315/300/327
f 316/301/328 317/302/328 318/303/328
f 319/304/329 320/305/329 321/306/329
f 322/307/330 323/308/330 324/333/330
f 325/310/331 326/311/331 327/312/331
f 328/313/332 329/314/332 330/315/332
f 331/316/333 332/335/333 333/318/333
f 334/319/334 335/320/334 336/321/334
f 313/298/335 320/305/335 319/304/335
f 316/322/336 315/323/336 314/324/336
f 322/307/337 318/326/337 317/325/337
f 321/330/338 324/333/338 323/308/338
f 319/304/339 332/335/339 331/316/339
f 322/307/340 336/321/340 323/308/340
f 335/320/341 332/335/341 336/321/341
f 325/310/342 333/318/342 326/311/342
f 334/319/343 330/315/343 335/320/343
f 327/312/344 330/315/344 329/314/344
f 325/310/345 314/299/345 313/298/345
f 317/302/346 329/314/346 328/313/346
f 319/304/347 325/310/347 313/298/347
f 315/323/348 324/333/348 320/327/348
f 329/314/349 314/328/349 327/312/349
f 322/334/350 328/313/350 334/319/350
f 323/308/351 332/335/351 321/330/351
f 335/320/352 326/311/352 333/318/352
f 337/298/353 338/299/353 339/300/353
f 340/301/354 341/302/354 342/303/354
f 343/304/355 344/305/355 345/306/355
f 346/307/356 347/308/356 348/333/356
f 349/310/357 350/311/357 351/312/357
f 352/313/358 353/314/358 354/315/358
f 355/316/359 356/335/359 357/318/359
f 358/319/360 359/320/360 360/321/360
f 337/298/361 344/305/361 343/304/361
f 338/324/362 342/326/362 339/323/362
f 346/307/363 342/326/363 341/325/363
f 345/330/364 348/333/364 347/308/364
f 355/316/365 345/306/365 356/335/365
f 346/307/366 360/321/366 347/308/366
f 357/318/367 360/321/367 359/320/367
f 355/316/368 350/311/368 349/310/368
f 352/313/369 359/320/369 358/319/369
f 351/312/370 354/315/370 353/314/370
f 349/310/371 338/299/371 337/298/371
f 352/313/372 340/301/372 353/314/372
f 343/304/373 349/310/373 337/298/373
f 342/326/374 344/327/374 339/323/374
f 353/314/375 338/328/375 351/312/375
f 346/334/376 352/313/376 358/319/376
f 345/330/377 360/321/377 356/335/377
f 359/320/378 350/311/378 357/318/378
f 361/298/379 362/299/379 363/300/379
f 364/301/380 365/302/380 366/303/380
f 367/304/381 368/305/381 369/306/381
f 370/307/382 371/308/382 372/333/382
f 373/310/383 374/311/383 375/312/383
f 376/313/384 377/314/384 378/315/384
f 379/316/385 380/317/385 381/318/385
f 382/319/386 383/320/386 384/321/386
f 361/298/387 368/305/387 367/304/387
f 364/322/388 363/323/388 362/324/388
f 370/307/389 366/326/389 365/325/389
f 369/330/390 372/333/390 371/308/390
f 379/316/391 369/306/391 380/317/391
f 370/307/392 384/321/392 371/308/392
f 381/318/393 384/321/393 383/320/393
f 379/316/394 374/311/394 373/310/394
f 376/313/395 383/320/395 382/319/395
f 375/312/396 378/315/396 377/314/396
f 373/310/397 362/299/397 361/298/397
f 376/313/398 364/301/398 377/314/398
f 379/316/399 361/298/399 367/304/399
f 366/326/400 368/327/400 363/323/400
f 375/312/401 364/301/401 362/328/401
f 370/334/402 376/313/402 382/319/402
f 371/308/403 380/317/403 369/330/403
f 381/318/404 378/315/404 374/311/404
f 385/298/405 386/299/405 387/300/405
f 388/301/406 389/302/406 390/303/406
f 391/304/407 392/305/407 393/306/407
f 394/307/408 395/308/408 396/309/408
f 397/310/409 398/311/409 399/312/409
f 400/313/410 401/314/410 402/315/410
f 403/316/411 404/317/411 405/318/411
f 406/319/412 407/320/412 408/332/412
f 385/298/413 392/305/413 391/304/413
f 386/324/414 390/326/414 387/323/414
f 389/325/415 396/309/415 390/326/415
f 393/330/416 396/309/416 395/308/416
f 403/316/417 393/306/417 404/317/417
f 406/319/418 395/308/418 394/307/418
f 405/318/419 408/332/419 407/320/419
f 397/310/420 405/318/420 398/311/420
f 400/313/421 407/320/421 406/319/421
f 399/312/422 402/315/422 401/314/422
f 397/310/423 386/299/423 385/298/423
f 400/313/424 388/301/424 401/314/424
f 403/316/425 385/298/425 391/304/425
f 390/326/426 392/327/426 387/323/426
f 401/314/427 386/328/427 399/312/427
f 406/319/428 389/329/428 400/313/428
f 395/308/429 404/317/429 393/330/429
f 407/320/430 398/311/430 405/318/430
f 409/298/431 410/299/431 411/300/431
f 412/301/432 413/302/432 414/303/432
f 415/304/433 416/305/433 417/306/433
f 418/307/434 419/308/434 420/333/434
f 421/310/435 422/331/435 423/312/435
f 424/313/436 425/314/436 426/315/436
f 427/316/437 428/317/437 429/318/437
f 430/319/438 431/320/438 432/321/438
f 409/298/439 416/305/439 415/304/439
f 410/324/440 414/326/440 411/323/440
f 418/307/441 414/326/441 413/325/441
f 419/308/442 416/327/442 420/333/442
f 415/304/443 428/317/443 427/316/443
f 418/307/444 432/321/444 419/308/444
f 429/318/445 432/321/445 431/320/445
f 427/316/446 422/331/446 421/310/446
f 430/319/447 426/315/447 431/320/447
f 425/314/448 422/331/448 426/315/448
f 421/310/449 410/299/449 409/298/449
f 413/302/450 425/314/450 424/313/450
f 427/316/451 409/298/451 415/304/451
f 414/326/452 416/327/452 411/323/452
f 425/314/453 410/328/453 423/312/453
f 418/334/454 424/313/454 430/319/454
f 419/308/455 428/317/455 417/330/455
f 431/320/456 422/331/456 429/318/456
f 433/298/457 434/299/457 435/300/457
f 436/301/458 437/302/458 438/303/458
f 439/304/459 440/305/459 441/306/459
f 442/307/460 443/308/460 444/333/460
f 445/310/461 446/311/461 447/312/461
f 448/313/462 449/314/462 450/315/462
f 451/316/463 452/335/463 453/318/463
f 454/319/464 455/320/464 456/321/464
f 433/298/465 440/305/465 439/304/465
f 436/322/466 435/323/466 434/324/466
f 437/325/467 444/333/467 438/326/467
f 443/308/468 440/327/468 444/333/468
f 439/304/469 452/335/469 451/316/469
f 454/319/470 443/308/470 442/307/470
f 455/320/471 452/335/471 456/321/471
f 445/310/472 453/318/472 446/311/472
f 454/319/473 450/315/473 455/320/473
f 447/312/474 450/315/474 449/314/474
f 433/298/475 447/312/475 434/299/475
f 448/313/476 436/301/476 449/314/476
f 451/316/477 433/298/477 439/304/477
f 438/326/478 440/327/478 435/323/478
f 447/312/479 436/301/479 434/328/479
f 454/319/480 437/329/480 448/313/480
f 441/330/481 456/321/481 452/335/481
f 455/320/482 446/311/482 453/318/482
f 295/304/688 289/298/688 291/300/688
f 290/324/310 292/322/310 294/326/310
f 298/307/311 300/333/311 294/326/311
f 299/308/312 297/330/312 296/327/312
f 295/304/313 297/306/313 308/317/313
f 310/319/314 312/321/314 299/308/314
f 309/318/315 308/317/315 312/321/315
f 301/310/316 307/316/316 309/318/316
f 310/319/689 304/313/689 306/315/689
f 305/314/318 303/312/318 302/331/318
f 289/298/319 301/310/319 303/312/319
f 293/302/320 292/301/320 305/314/320
f 307/316/321 301/310/321 289/298/321
f 291/323/322 294/326/322 300/333/322
f 305/314/323 292/301/323 290/328/323
f 298/334/324 293/329/324 304/313/324
f 297/330/325 299/308/325 312/321/325
f 311/320/326 306/315/326 302/331/326
f 313/298/335 315/300/335 320/305/335
f 316/322/336 318/326/336 315/323/336
f 322/307/337 324/333/337 318/326/337
f 321/330/338 320/327/338 324/333/338
f 319/304/339 321/306/339 332/335/339
f 322/307/340 334/319/340 336/321/340
f 335/320/341 333/318/341 332/335/341
f 325/310/342 331/316/342 333/318/342
f 334/319/343 328/313/343 330/315/343
f 327/312/344 326/311/344 330/315/344
f 325/310/345 327/312/345 314/299/345
f 317/302/346 316/301/346 329/314/346
f 319/304/347 331/316/347 325/310/347
f 315/323/348 318/326/348 324/333/348
f 329/314/349 316/301/349 314/328/349
f 322/334/350 317/329/350 328/313/350
f 323/308/351 336/321/351 332/335/351
f 335/320/352 330/315/352 326/311/352
f 337/298/361 339/300/361 344/305/361
f 338/324/362 340/322/362 342/326/362
f 346/307/363 348/333/363 342/326/363
f 345/330/364 344/327/364 348/333/364
f 355/316/365 343/304/365 345/306/365
f 346/307/366 358/319/366 360/321/366
f 357/318/367 356/335/367 360/321/367
f 355/316/368 357/318/368 350/311/368
f 352/313/369 354/315/369 359/320/369
f 351/312/370 350/311/370 354/315/370
f 349/310/371 351/312/371 338/299/371
f 352/313/372 341/302/372 340/301/372
f 343/304/373 355/316/373 349/310/373
f 342/326/374 348/333/374 344/327/374
f 353/314/375 340/301/375 338/328/375
f 346/334/376 341/329/376 352/313/376
f 345/330/377 347/308/377 360/321/377
f 359/320/378 354/315/378 350/311/378
f 361/298/387 363/300/387 368/305/387
f 364/322/388 366/326/388 363/323/388
f 370/307/389 372/333/389 366/326/389
f 369/330/390 368/327/390 372/333/390
f 379/316/391 367/304/391 369/306/391
f 370/307/392 382/319/392 384/321/392
f 381/318/393 380/317/393 384/321/393
f 379/316/394 381/318/394 374/311/394
f 376/313/395 378/315/395 383/320/395
f 375/312/396 374/311/396 378/315/396
f 373/310/397 375/312/397 362/299/397
f 376/313/690 365/302/690 364/301/690
f 379/316/399 373/310/399 361/298/399
f 366/326/400 372/333/400 368/327/400
f 375/312/401 377/314/401 364/301/401
f 370/334/402 365/329/402 376/313/402
f 371/308/403 384/321/403 380/317/403
f 381/318/404 383/320/404 378/315/404
f 385/298/691 387/300/691 392/305/691
f 386/324/414 388/322/414 390/326/414
f 389/325/415 394/307/415 396/309/415
f 393/330/416 392/327/416 396/309/416
f 403/316/417 391/304/417 393/306/417
f 406/319/418 408/332/418 395/308/418
f 405/318/419 404/317/419 408/332/419
f 397/310/692 403/316/692 405/318/692
f 400/313/421 402/315/421 407/320/421
f 399/312/422 398/311/422 402/315/422
f 397/310/423 399/312/423 386/299/423
f 400/313/424 389/302/424 388/301/424
f 403/316/425 397/310/425 385/298/425
f 390/326/426 396/309/426 392/327/426
f 401/314/427 388/301/427 386/328/427
f 406/319/428 394/334/428 389/329/428
f 395/308/429 408/332/429 404/317/429
f 407/320/430 402/315/430 398/311/430
f 409/298/439 411/300/439 416/305/439
f 410/324/440 412/322/440 414/326/440
f 418/307/693 420/333/693 414/326/693
f 419/308/442 417/330/442 416/327/442
f 415/304/443 417/306/443 428/317/443
f 418/307/444 430/319/444 432/321/444
f 429/318/445 428/317/445 432/321/445
f 427/316/694 429/318/694 422/331/694
f 430/319/447 424/313/447 426/315/447
f 425/314/448 423/312/448 422/331/448
f 421/310/449 423/312/449 410/299/449
f 413/302/450 412/301/450 425/314/450
f 427/316/451 421/310/451 409/298/451
f 414/326/452 420/333/452 416/327/452
f 425/314/453 412/301/453 410/328/453
f 418/334/454 413/329/454 424/313/454
f 419/308/455 432/321/455 428/317/455
f 431/320/456 426/315/456 422/331/456
f 433/298/465 435/300/465 440/305/465
f 436/322/466 438/326/466 435/323/466
f 437/325/695 442/307/695 444/333/695
f 443/308/468 441/330/468 440/327/468
f 439/304/469 441/306/469 452/335/469
f 454/319/696 456/321/696 443/308/696
f 455/320/471 453/318/471 452/335/471
f 445/310/472 451/316/472 453/318/472
f 454/319/473 448/313/473 450/315/473
f 447/312/474 446/311/474 450/315/474
f 433/298/697 445/310/697 447/312/697
f 448/313/476 437/302/476 436/301/476
f 451/316/477 445/310/477 433/298/477
f 438/326/478 444/333/478 440/327/478
f 447/312/479 449/314/479 436/301/479
f 454/319/480 442/334/480 437/329/480
f 441/330/481 443/308/481 456/321/481
f 455/320/482 450/315/482 446/311/482
usemtl core
f 481/336/509 494/337/509 493/338/509
f 482/339/510 494/340/510 496/341/510
f 481/342/511 493/343/511 498/344/511
f 481/345/512 498/346/512 500/347/512
f 481/348/513 500/349/513 497/350/513
f 482/339/514 496/341/514 503/351/514
f 483/352/515 495/353/515 505/354/515
f 484/355/516 499/356/516 507/357/516
f 485/358/517 501/359/517 509/360/517
f 486/361/518 502/362/518 511/363/518
f 482/339/519 503/351/519 506/364/519
f 483/352/520 505/354/520 508/365/520
f 484/355/521 507/357/521 510/366/521
f 485/358/522 509/360/522 512/367/522
f 486/361/523 511/363/523 504/368/523
f 487/369/524 513/370/524 518/371/524
f 488/372/525 514/373/525 520/374/525
f 489/375/526 515/376/526 521/377/526
f 490/378/527 516/379/527 522/380/527
f 491/381/528 517/382/528 519/383/528
f 519/383/529 522/384/529 492/385/529
f 519/383/530 517/382/530 522/384/530
f 517/382/531 490/378/531 522/384/531
f 522/380/532 521/386/532 492/387/532
f 522/380/533 516/379/533 521/386/533
f 516/379/534 489/375/534 521/386/534
f 521/377/535 520/388/535 492/389/535
f 521/377/536 515/376/536 520/388/536
f 515/376/537 488/390/537 520/388/537
f 520/374/538 518/391/538 492/392/538
f 520/374/539 514/373/539 518/391/539
f 514/373/540 487/369/540 518/391/540
f 518/371/541 519/393/541 492/394/541
f 518/371/542 513/370/542 519/393/542
f 513/370/543 491/381/543 519/393/543
f 504/368/544 517/382/544 491/381/544
f 504/368/545 511/363/545 517/382/545
f 511/363/546 490/378/546 517/382/546
f 512/367/547 516/379/547 490/378/547
f 512/367/548 509/360/548 516/379/548
f 509/360/549 489/375/549 516/379/549
f 510/366/550 515/376/550 489/375/550
f 510/366/551 507/357/551 515/376/551
f 507/357/552 488/390/552 515/376/552
f 508/365/553 514/373/553 488/372/553
f 508/365/554 505/354/554 514/373/554
f 505/354/555 487/369/555 514/373/555
f 506/364/556 513/370/556 487/369/556
f 506/364/557 503/351/557 513/370/557
f 503/351/558 491/381/558 513/370/558
f 511/363/559 512/367/559 490/378/559
f 511/363/560 502/362/560 512/367/560
f 502/362/561 485/358/561 512/367/561
f 509/360/562 510/366/562 489/375/562
f 509/360/563 501/359/563 510/366/563
f 501/359/564 484/355/564 510/366/564
f 507/357/565 508/395/565 488/390/565
f 507/357/566 499/356/566 508/395/566
f 499/356/567 483/396/567 508/395/567
f 505/354/568 506/364/568 487/369/568
f 505/354/569 495/353/569 506/364/569
f 495/353/570 482/339/570 506/364/570
f 503/351/571 504/368/571 491/381/571
f 503/351/572 496/341/572 504/368/572
f 496/341/573 486/361/573 504/368/573
f 497/350/574 502/362/574 486/361/574
f 497/350/575 500/349/575 502/362/575
f 500/349/576 485/358/576 502/362/576
f 500/347/577 501/359/577 485/358/577
f 500/347/578 498/346/578 501/359/578
f 498/346/579 484/355/579 501/359/579
f 498/344/580 499/356/580 484/355/580
f 498/344/581 493/343/581 499/356/581
f 493/343/582 483/396/582 499/356/582
f 496/341/583 497/397/583 486/361/583
f 496/341/584 494/340/584 497/397/584
f 494/340/585 481/398/585 497/397/585
f 493/338/586 495/353/586 483/352/586
f 493/338/587 494/337/587 495/353/587
f 494/337/588 482/339/588 495/353/588
f 523/336/589 536/337/589 535/338/589
f 524/339/590 536/340/590 538/341/590
f 523/342/591 535/343/591 540/344/591
f 523/345/592 540/346/592 542/347/592
f 523/348/593 542/349/593 539/350/593
f 524/339/594 538/341/594 545/351/594
f 525/352/595 537/353/595 547/354/595
f 526/355/596 541/356/596 549/357/596
f 527/358/597 543/359/597 551/360/597
f 528/361/598 544/362/598 553/363/598
f 524/339/599 545/351/599 548/364/599
f 525/352/600 547/354/600 550/365/600
f 526/355/601 549/357/601 552/366/601
f 527/358/602 551/360/602 554/367/602
f 528/361/603 553/363/603 546/368/603
f 529/369/604 555/370/604 560/371/604
f 530/372/605 556/373/605 562/374/605
f 531/375/606 557/376/606 563/377/606
f 532/378/607 558/379/607 564/380/607
f 533/381/608 559/382/608 561/383/608
f 561/383/609 564/384/609 534/385/609
f 561/383/610 559/382/610 564/384/610
f 559/382/611 532/378/611 564/384/611
f 564/380/612 563/386/612 534/387/612
f 564/380/613 558/379/613 563/386/613
f 558/379/614 531/375/614 563/386/614
f 563/377/615 562/388/615 534/389/615
f 563/377/616 557/376/616 562/388/616
f 557/376/617 530/390/617 562/388/617
f 562/374/618 560/391/618 534/392/618
f 562/374/619 556/373/619 560/391/619
f 556/373/620 529/369/620 560/391/620
f 560/371/621 561/393/621 534/394/621
f 560/371/622 555/370/622 561/393/622
f 555/370/623 533/381/623 561/393/623
f 546/368/624 559/382/624 533/381/624
f 546/368/625 553/363/625 559/382/625
f 553/363/626 532/378/626 559/382/626
f 554/367/627 558/379/627 532/378/627
f 554/367/628 551/360/628 558/379/628
f 551/360/629 531/375/629 558/379/629
f 552/366/630 557/376/630 531/375/630
f 552/366/631 549/357/631 557/376/631
f 549/357/632 530/390/632 557/376/632
f 550/365/633 556/373/633 530/372/633
f 550/365/634 547/354/634 556/373/634
f 547/354/635 529/369/635 556/373/635
f 548/364/636 555/370/636 529/369/636
f 548/364/637 545/351/637 555/370/637
f 545/351/638 533/381/638 555/370/638
f 553/363/639 554/367/639 532/378/639
f 553/363/640 544/362/640 554/367/640
f 544/362/641 527/358/641 554/367/641
f 551/360/642 552/366/642 531/375/642
f 551/360/643 543/359/643 552/366/643
f 543/359/644 526/355/644 552/366/644
f 549/357/645 550/395/645 530/390/645
f 549/357/646 541/356/646 550/395/646
f 541/356/647 525/396/647 550/395/647
f 547/354/648 548/364/648 529/369/648
f 547/354/649 537/353/649 548/364/649
f 537/353/650 524/339/650 548/364/650
f 545/351/651 546/368/651 533/381/651
f 545/351/652 538/341/652 546/368/652
f 538/341/653 528/361/653 546/368/653
f 539/350/654 544/362/654 528/361/654
f 539/350/655 542/349/655 544/362/655
f 542/349/656 527/358/656 544/362/656
f 542/347/657 543/359/657 527/358/657
f 542/347/658 540/346/658 543/359/658
f 540/346/659 526/355/659 543/359/659
f 540/344/660 541/356/660 526/355/660
f 540/344/661 535/343/661 541/356/661
f 535/343/662 525/396/662 541/356/662
f 538/341/663 539/397/663 528/361/663
f 538/341/664 536/340/664 539/397/664
f 536/340/665 523/398/665 539/397/665
f 535/338/666 537/353/666 525/352/666
f 535/338/667 536/337/667 537/353/667
f 536/337/668 524/339/668 537/353/668
