# Blender 4.5.10 LTS
# www.blender.org
mtllib upgrade_grow_tiers.mtl
o upgrade_grow_tiers
v 0.509098 0.037813 -0.305751
v 0.503167 0.053759 -0.314861
v 0.503831 0.054088 -0.305904
v 0.091880 1.166876 -0.325311
v 0.085964 1.182995 -0.316502
v 0.092544 1.167205 -0.316354
v 0.509624 0.043847 0.316300
v 0.504357 0.060122 0.316146
v 0.503708 0.059967 0.325109
v 0.086489 1.189029 0.305549
v 0.092421 1.173083 0.314659
v 0.093070 1.173239 0.305697
v 0.463511 0.020971 -0.305549
v 0.456930 0.036761 -0.305697
v 0.457579 0.036916 -0.314659
v 0.040376 1.166153 -0.316300
v 0.046292 1.150033 -0.325109
v 0.045643 1.149878 -0.316146
v 0.464036 0.027005 0.316502
v 0.458120 0.043124 0.325311
v 0.457456 0.042795 0.316354
v 0.040902 1.172187 0.305751
v 0.046169 1.155911 0.305904
v 0.046833 1.156241 0.314861
v 0.543178 0.050749 0.271840
v 0.537200 0.066781 0.271250
v 0.538524 0.067251 0.272222
v 0.122982 1.178531 0.298265
v 0.117028 1.194525 0.299634
v 0.124306 1.179001 0.299238
v 0.544050 0.049421 0.339862
v 0.539396 0.065923 0.340244
v 0.538096 0.065415 0.341231
v 0.117900 1.193197 0.367656
v 0.123878 1.177165 0.368246
v 0.125178 1.177673 0.367259
v 0.452100 0.016803 0.272344
v 0.444822 0.032327 0.272741
v 0.446122 0.032835 0.271754
v 0.025950 1.160579 0.300138
v 0.031904 1.144585 0.298769
v 0.030604 1.144077 0.299756
v 0.452972 0.015475 0.340366
v 0.447018 0.031469 0.341735
v 0.445694 0.030999 0.340762
v 0.026822 1.159251 0.368160
v 0.031476 1.142749 0.367778
v 0.032800 1.143219 0.368750
v 0.570613 -0.011947 -0.356180
v 0.570585 -0.010926 -0.366271
v 0.573446 -0.010913 -0.356208
v 0.572976 0.066793 -0.367051
v 0.573072 0.068012 -0.356983
v 0.575837 0.066806 -0.356988
v 0.574952 -0.005060 0.343612
v 0.577785 -0.004027 0.343585
v 0.575049 -0.003841 0.353680
v 0.577412 0.074898 0.342810
v 0.577440 0.073878 0.352901
v 0.580176 0.073692 0.342805
v 0.376309 -0.005959 -0.355035
v 0.373544 -0.004753 -0.355029
v 0.376281 -0.004938 -0.365125
v 0.378768 0.074000 -0.355837
v 0.378671 0.072781 -0.365905
v 0.375935 0.072966 -0.355809
v 0.380648 0.000928 0.344758
v 0.380745 0.002147 0.354826
v 0.377884 0.002134 0.344763
v 0.383107 0.080886 0.343956
v 0.380274 0.079853 0.343984
v 0.383135 0.079866 0.354047
v -0.463387 0.028644 -0.319860
v -0.457201 0.044720 -0.328563
v -0.456686 0.044382 -0.319597
v -0.037411 1.154565 -0.310796
v -0.031504 1.170460 -0.301581
v -0.036895 1.154227 -0.301829
v -0.473045 0.022340 0.302113
v -0.466344 0.038078 0.302376
v -0.467138 0.038235 0.311327
v -0.041162 1.164156 0.320392
v -0.047347 1.148079 0.329094
v -0.046554 1.147923 0.320144
v -0.508838 0.045844 -0.320392
v -0.503446 0.062077 -0.320144
v -0.502653 0.061920 -0.329094
v -0.076955 1.187660 -0.302113
v -0.082862 1.171765 -0.311327
v -0.083656 1.171922 -0.302376
v -0.518496 0.039540 0.301581
v -0.512589 0.055435 0.310796
v -0.513105 0.055773 0.301829
v -0.086613 1.181356 0.319860
v -0.093314 1.165618 0.319597
v -0.092799 1.165280 0.328563
v -0.451061 0.015039 0.296779
v -0.445146 0.031054 0.295497
v -0.443827 0.030586 0.296477
v -0.034091 1.144109 0.274529
v -0.028165 1.160156 0.275207
v -0.032772 1.143640 0.275509
v -0.450654 0.016170 0.364809
v -0.443420 0.031717 0.364507
v -0.444728 0.032218 0.365486
v -0.027759 1.161288 0.343236
v -0.033673 1.145273 0.344518
v -0.032366 1.144771 0.343538
v -0.542241 0.048712 0.296764
v -0.537634 0.065229 0.296462
v -0.536327 0.064727 0.295482
v -0.119346 1.193830 0.275191
v -0.125272 1.177781 0.274514
v -0.126580 1.178283 0.275493
v -0.541835 0.049844 0.364793
v -0.535909 0.065891 0.365471
v -0.537228 0.066360 0.364491
v -0.118940 1.194961 0.343221
v -0.126173 1.179414 0.343523
v -0.124854 1.178946 0.344503
v -0.379988 0.003463 -0.348968
v -0.379960 0.004476 -0.359059
v -0.377188 0.004583 -0.348972
v -0.379969 0.082232 -0.359881
v -0.379997 0.083459 -0.349813
v -0.377197 0.082339 -0.349794
v -0.381938 0.010860 0.350831
v -0.379138 0.011981 0.350827
v -0.381966 0.012087 0.360898
v -0.381948 0.090856 0.349985
v -0.381976 0.089843 0.360076
v -0.379148 0.089737 0.350005
v -0.574387 0.003434 -0.349509
v -0.577187 0.004553 -0.349529
v -0.574359 0.004447 -0.359600
v -0.574396 0.083429 -0.350355
v -0.574368 0.082203 -0.360422
v -0.577196 0.082309 -0.350351
v -0.576337 0.010831 0.350289
v -0.576366 0.012058 0.360357
v -0.579138 0.011951 0.350269
v -0.576347 0.090827 0.349444
v -0.579147 0.089706 0.349448
v -0.576375 0.089813 0.359535
v 0.451301 0.079501 -0.302266
v 0.466319 0.079203 -0.288170
v 0.457088 0.065858 -0.287958
v -0.437543 0.067799 -0.307162
v -0.443126 0.054006 -0.292917
v -0.452702 0.067103 -0.293232
v -0.088693 1.118554 -0.312009
v -0.092473 1.104227 -0.325749
v -0.107114 1.105088 -0.311847
v 0.074985 1.120709 -0.311107
v 0.093750 1.107733 -0.310741
v 0.079291 1.106488 -0.324803
v 0.466193 0.079639 -0.266175
v 0.451013 0.080494 -0.252276
v 0.456961 0.066295 -0.265963
v -0.437831 0.068791 -0.257172
v -0.452829 0.067540 -0.271237
v -0.443252 0.054443 -0.270922
v -0.088820 1.118991 -0.290013
v -0.107241 1.105525 -0.289852
v -0.092761 1.105219 -0.275760
v 0.093624 1.108170 -0.288746
v 0.074858 1.121145 -0.289112
v 0.079003 1.107481 -0.274813
v 0.120682 1.144139 -0.351386
v 0.120734 1.145361 -0.361471
v 0.124344 1.145333 -0.351380
v 0.122316 1.232826 -0.361796
v 0.122310 1.234124 -0.351721
v 0.125926 1.232798 -0.351706
v 0.118672 1.146780 0.348446
v 0.122335 1.147974 0.348452
v 0.118666 1.148078 0.358521
v 0.120300 1.236765 0.348111
v 0.120249 1.235543 0.358195
v 0.123917 1.235439 0.348126
v -0.131996 1.148708 -0.352129
v -0.135612 1.150033 -0.352145
v -0.131944 1.149929 -0.362214
v -0.130368 1.238692 -0.352464
v -0.130362 1.237394 -0.362539
v -0.134030 1.237498 -0.352470
v -0.134005 1.151349 0.347703
v -0.134011 1.152647 0.357778
v -0.137622 1.152674 0.347688
v -0.132377 1.241333 0.347368
v -0.136040 1.240139 0.347362
v -0.132429 1.240112 0.357453
v 0.144604 1.174567 0.339351
v 0.144607 1.175280 0.338523
v 0.148512 1.175327 0.339428
v 0.143849 1.223868 0.339295
v 0.143824 1.224555 0.340146
v 0.147754 1.223915 0.340200
v 0.143652 1.173625 0.397656
v 0.147560 1.174385 0.397732
v 0.143627 1.174311 0.398507
v 0.142872 1.223612 0.398451
v 0.142869 1.222899 0.399280
v 0.146802 1.222973 0.398505
v -0.127487 1.170394 0.334840
v -0.131416 1.171034 0.334787
v -0.127484 1.171108 0.334012
v -0.128266 1.220382 0.335635
v -0.128242 1.219696 0.334785
v -0.132174 1.219622 0.335559
v -0.128439 1.169452 0.393145
v -0.128463 1.170138 0.393996
v -0.132369 1.170092 0.393091
v -0.129218 1.219440 0.393940
v -0.133127 1.218680 0.393864
v -0.129221 1.218726 0.394769
v 0.380115 0.255869 -0.285249
v 0.380280 0.256704 -0.293921
v 0.390977 0.256525 -0.285048
v 0.380832 0.310160 -0.293509
v 0.380683 0.310864 -0.284825
v 0.391529 0.309981 -0.284636
v 0.369239 0.251336 0.317276
v 0.380101 0.251992 0.317477
v 0.369090 0.252040 0.325960
v 0.369807 0.306331 0.317700
v 0.369642 0.305496 0.326373
v 0.380653 0.305447 0.317889
v -0.373434 0.263756 -0.298792
v -0.384279 0.264639 -0.298981
v -0.373269 0.264591 -0.307464
v -0.372866 0.318751 -0.298368
v -0.372717 0.318047 -0.307052
v -0.383727 0.318095 -0.298569
v -0.384310 0.259223 0.303733
v -0.384459 0.259927 0.312418
v -0.395155 0.260106 0.303544
v -0.383742 0.314218 0.304157
v -0.394603 0.313562 0.303956
v -0.383906 0.313383 0.312830
v 0.372770 0.271149 0.283408
v 0.372770 0.271832 0.282554
v 0.383355 0.271657 0.283240
v 0.373635 0.320414 0.281562
v 0.373660 0.321131 0.282387
v 0.384221 0.320239 0.282247
v 0.373643 0.272325 0.341710
v 0.384229 0.272833 0.341541
v 0.373668 0.273041 0.342535
v 0.374534 0.322306 0.340689
v 0.374534 0.321623 0.341543
v 0.385095 0.321415 0.340549
v -0.361303 0.284447 0.294139
v -0.371864 0.285338 0.294280
v -0.361303 0.285130 0.293285
v -0.360413 0.334428 0.293118
v -0.360438 0.333712 0.292293
v -0.370998 0.333920 0.293287
v -0.360430 0.285623 0.352441
v -0.360405 0.286339 0.353266
v -0.370990 0.286514 0.352581
v -0.359539 0.335604 0.351420
v -0.370125 0.335096 0.351589
v -0.359539 0.334921 0.352274
v 0.264274 0.572514 -0.300727
v 0.264166 0.573135 -0.309419
v 0.272018 0.573260 -0.300839
v 0.264314 0.626586 -0.310339
v 0.264427 0.627505 -0.301674
v 0.272167 0.626712 -0.301759
v 0.271959 0.582863 0.301775
v 0.279703 0.583610 0.301663
v 0.272072 0.583782 0.310440
v 0.272112 0.637855 0.300828
v 0.272221 0.637234 0.309519
v 0.279852 0.637061 0.300743
v -0.273245 0.574127 -0.293899
v -0.280985 0.574920 -0.293814
v -0.273354 0.574748 -0.302590
v -0.273092 0.629119 -0.294846
v -0.273205 0.628200 -0.303510
v -0.280837 0.628372 -0.294734
v -0.265561 0.584476 0.308603
v -0.265448 0.585395 0.317268
v -0.273300 0.585269 0.308688
v -0.265408 0.639468 0.307657
v -0.273152 0.638721 0.307768
v -0.265299 0.638847 0.316348
v 0.253202 0.605413 0.291483
v 0.253224 0.606124 0.290652
v 0.260668 0.606055 0.291642
v 0.253590 0.654718 0.291313
v 0.253578 0.655407 0.292162
v 0.261034 0.654649 0.292302
v 0.252027 0.604629 0.349786
v 0.259493 0.605271 0.349945
v 0.252016 0.605318 0.350635
v 0.252403 0.654623 0.350465
v 0.252381 0.653912 0.351296
v 0.259859 0.653865 0.350605
v -0.264804 0.609451 0.281100
v -0.272259 0.610209 0.280960
v -0.264782 0.610163 0.280269
v -0.264428 0.659445 0.281779
v -0.264416 0.658757 0.280930
v -0.271894 0.658804 0.281620
v -0.265978 0.608668 0.339403
v -0.265990 0.609356 0.340252
v -0.273434 0.609426 0.339262
v -0.265602 0.658662 0.340082
v -0.273069 0.658020 0.339923
v -0.265624 0.657950 0.340912
v 0.159233 0.871361 -0.291009
v 0.159074 0.872187 -0.299682
v 0.164050 0.872169 -0.291089
v 0.158660 0.925644 -0.299330
v 0.158807 0.926358 -0.290646
v 0.163636 0.925626 -0.290736
v 0.169865 0.867472 0.311525
v 0.174682 0.868279 0.311445
v 0.170012 0.868186 0.320208
v 0.169440 0.922469 0.311887
v 0.169599 0.921643 0.320561
v 0.174269 0.921737 0.311797
v -0.175633 0.868731 -0.285117
v -0.180462 0.869463 -0.285027
v -0.175792 0.869557 -0.293790
v -0.176059 0.923728 -0.284754
v -0.176206 0.923014 -0.293438
v -0.180876 0.922920 -0.284674
v -0.165001 0.864841 0.317417
v -0.164854 0.865555 0.326101
v -0.169830 0.865574 0.317507
v -0.165426 0.919839 0.317780
v -0.170244 0.919031 0.317859
v -0.165267 0.919013 0.326453
v 0.153132 0.901654 0.274092
v 0.153138 0.902369 0.273264
v 0.157677 0.902345 0.274132
v 0.153221 0.950961 0.274131
v 0.153217 0.951646 0.274983
v 0.157760 0.950938 0.274999
v 0.152769 0.900615 0.332401
v 0.157314 0.901307 0.332442
v 0.152765 0.901300 0.333254
v 0.152855 0.950607 0.333293
v 0.152849 0.949892 0.334120
v 0.157398 0.949899 0.333308
v -0.162350 0.902229 0.272143
v -0.166893 0.902938 0.272127
v -0.162344 0.902944 0.271315
v -0.162264 0.952221 0.273034
v -0.162260 0.951536 0.272181
v -0.166810 0.951530 0.272993
v -0.162712 0.901191 0.330452
v -0.162716 0.901876 0.331304
v -0.167255 0.901899 0.330437
v -0.162627 0.951183 0.331343
v -0.167172 0.950491 0.331303
v -0.162633 0.950468 0.332171
vn 0.9485 0.3062 -0.0816
vn 0.9202 0.3827 -0.0823
vn 0.9486 0.3077 0.0740
vn 0.9203 0.3842 0.0733
vn -0.9203 -0.3842 -0.0733
vn -0.9486 -0.3077 -0.0740
vn -0.9202 -0.3827 0.0823
vn -0.9485 -0.3062 0.0816
vn 0.9514 0.3079 -0.0038
vn 0.9351 0.3447 -0.0820
vn 0.9231 0.3846 -0.0045
vn 0.9352 0.3463 0.0737
vn 0.1617 -0.4269 0.8897
vn -0.1602 0.4441 0.8816
vn -0.9351 -0.3447 0.0820
vn -0.9231 -0.3846 0.0045
vn -0.9514 -0.3079 0.0038
vn -0.9352 -0.3463 -0.0737
vn 0.1602 -0.4441 -0.8816
vn -0.1617 0.4269 -0.8897
vn 0.3466 -0.9380 0.0088
vn 0.9380 0.3466 -0.0042
vn -0.0008 -0.0097 -1.0000
vn -0.3466 0.9380 -0.0088
vn 0.0008 0.0097 1.0000
vn -0.9380 -0.3466 0.0042
vn 0.5426 0.1721 -0.8222
vn 0.5099 0.2600 -0.8200
vn 0.5636 0.1401 0.8141
vn 0.5309 0.2280 0.8162
vn -0.5308 -0.2280 -0.8162
vn -0.5636 -0.1401 -0.8141
vn -0.5099 -0.2600 0.8200
vn -0.5426 -0.1721 0.8221
vn 0.9624 0.2716 -0.0070
vn 0.5269 0.2163 -0.8220
vn 0.9054 0.4246 -0.0033
vn 0.5478 0.1843 0.8160
vn 0.0328 -0.0731 0.9968
vn -0.0072 0.0341 0.9994
vn -0.5269 -0.2163 0.8220
vn -0.9054 -0.4246 0.0033
vn -0.9624 -0.2716 0.0070
vn -0.5478 -0.1843 -0.8160
vn 0.0072 -0.0341 -0.9994
vn -0.0328 0.0731 -0.9968
vn 0.3490 -0.9368 -0.0228
vn 0.9370 0.3492 -0.0052
vn -0.0128 0.0195 -0.9997
vn -0.3490 0.9368 0.0228
vn 0.0128 -0.0195 0.9997
vn -0.9370 -0.3492 0.0052
vn 0.3402 -0.9355 -0.0955
vn 0.3970 0.9107 -0.1141
vn 0.3415 -0.9335 0.1097
vn 0.3983 0.9127 0.0912
vn -0.3983 -0.9127 -0.0912
vn -0.3415 0.9335 -0.1097
vn -0.3970 -0.9107 0.1141
vn -0.3402 0.9355 0.0955
vn 0.3427 -0.9394 0.0071
vn 0.9614 -0.0323 -0.2733
vn 0.3998 0.9165 -0.0115
vn 0.9647 -0.0270 0.2619
vn -0.0299 -0.9923 0.1204
vn 0.0312 0.9945 0.1005
vn -0.9614 0.0323 0.2733
vn -0.3998 -0.9165 0.0115
vn -0.3427 0.9394 -0.0071
vn -0.9647 0.0270 -0.2619
vn -0.0312 -0.9945 -0.1005
vn 0.0299 0.9923 -0.1204
vn -0.0307 -0.9995 0.0100
vn 0.9995 -0.0308 -0.0059
vn -0.0062 -0.0098 -0.9999
vn 0.0307 0.9995 -0.0100
vn 0.0062 0.0098 0.9999
vn -0.9995 0.0308 0.0059
vn 0.9184 -0.3899 -0.0675
vn 0.9472 -0.3136 -0.0663
vn 0.9160 -0.3915 0.0881
vn 0.9448 -0.3152 0.0893
vn -0.9448 0.3152 -0.0893
vn -0.9160 0.3915 -0.0881
vn -0.9472 0.3136 0.0663
vn -0.9184 0.3899 0.0675
vn 0.9200 -0.3919 0.0103
vn 0.9336 -0.3520 -0.0670
vn 0.9489 -0.3153 0.0115
vn 0.9312 -0.3536 0.0888
vn -0.1780 -0.4432 0.8786
vn 0.1505 0.4252 0.8925
vn -0.9336 0.3520 0.0670
vn -0.9489 0.3153 -0.0115
vn -0.9200 0.3919 -0.0103
vn -0.9312 0.3536 -0.0888
vn -0.1505 -0.4252 -0.8925
vn 0.1780 0.4432 -0.8786
vn -0.3537 -0.9352 -0.0150
vn 0.9352 -0.3539 0.0109
vn 0.0155 0.0101 -0.9998
vn 0.3537 0.9352 0.0150
vn -0.0155 -0.0101 0.9998
vn -0.9352 0.3539 -0.0109
vn 0.5162 -0.2561 -0.8173
vn 0.5487 -0.1680 -0.8189
vn 0.5260 -0.2288 0.8191
vn 0.5585 -0.1408 0.8175
vn -0.5585 0.1408 -0.8175
vn -0.5260 0.2288 -0.8191
vn -0.5487 0.1680 0.8189
vn -0.5162 0.2561 0.8173
vn 0.9067 -0.4218 0.0016
vn 0.5331 -0.2123 -0.8190
vn 0.9632 -0.2687 -0.0013
vn 0.5428 -0.1850 0.8192
vn -0.0139 -0.0371 0.9992
vn 0.0258 0.0703 0.9972
vn -0.5331 0.2123 0.8190
vn -0.9632 0.2687 0.0013
vn -0.9067 0.4218 -0.0016
vn -0.5429 0.1851 -0.8192
vn -0.0258 -0.0703 -0.9972
vn 0.0139 0.0371 -0.9992
vn -0.3464 -0.9379 0.0177
vn 0.9381 -0.3464 0.0002
vn -0.0060 -0.0166 -0.9998
vn 0.3464 0.9379 -0.0177
vn 0.0060 0.0166 0.9998
vn -0.9381 0.3464 -0.0002
vn 0.3698 -0.9246 -0.0918
vn 0.3696 0.9225 -0.1113
vn 0.3693 -0.9224 0.1134
vn 0.3690 0.9247 0.0939
vn -0.3690 -0.9247 -0.0939
vn -0.3692 0.9224 -0.1134
vn -0.3696 -0.9225 0.1113
vn -0.3698 0.9245 0.0918
vn 0.3715 -0.9284 0.0108
vn 0.9643 -0.0027 -0.2649
vn 0.3713 0.9285 -0.0088
vn 0.9628 0.0030 0.2703
vn -0.0002 -0.9927 0.1209
vn -0.0004 0.9950 0.0999
vn -0.9643 0.0027 0.2649
vn -0.3713 -0.9285 0.0088
vn -0.3715 0.9284 -0.0108
vn -0.9628 -0.0030 -0.2703
vn 0.0004 -0.9950 -0.0999
vn 0.0002 0.9927 -0.1209
vn 0.0001 -0.9999 0.0106
vn 1.0000 0.0002 0.0028
vn 0.0028 -0.0106 -0.9999
vn -0.0001 0.9999 -0.0106
vn -0.0028 0.0106 0.9999
vn -1.0000 -0.0002 -0.0028
vn 0.6120 -0.4339 -0.6612
vn -0.5930 -0.4497 -0.6679
vn -0.4922 0.6666 -0.5597
vn 0.4806 0.6795 -0.5544
vn 0.6042 -0.4071 0.6850
vn -0.6008 -0.4230 0.6783
vn -0.4985 0.6882 0.5271
vn 0.4744 0.7010 0.5325
vn 0.0133 -0.7209 -0.6929
vn 0.8224 -0.5687 0.0160
vn 0.0052 -0.6929 0.7210
vn -0.8073 -0.5901 0.0071
vn 0.6608 0.2548 0.7060
vn -0.0133 0.7209 0.6929
vn -0.6750 0.2373 0.6987
vn -0.5901 0.8071 -0.0194
vn -0.6668 0.2092 -0.7153
vn -0.0052 0.6929 -0.7210
vn 0.6689 0.2268 -0.7079
vn 0.5689 0.8223 -0.0130
vn 0.0058 -0.0199 -0.9998
vn 0.0131 -0.9997 0.0199
vn 0.9402 0.3406 -0.0013
vn -0.9488 0.3157 -0.0117
vn -0.0131 0.9997 -0.0199
vn -0.0058 0.0199 0.9998
vn 0.3081 -0.9446 -0.1129
vn 0.3421 0.9320 -0.1198
vn 0.3075 -0.9437 0.1218
vn 0.3414 0.9329 0.1148
vn -0.3414 -0.9329 -0.1148
vn -0.3075 0.9437 -0.1218
vn -0.3421 -0.9320 0.1198
vn -0.3081 0.9446 0.1129
vn 0.3099 -0.9507 0.0045
vn 0.9414 -0.0183 -0.3369
vn 0.3442 0.9389 -0.0026
vn 0.9394 -0.0157 0.3424
vn -0.0183 -0.9916 0.1277
vn 0.0176 0.9926 0.1203
vn -0.9414 0.0183 0.3369
vn -0.3442 -0.9389 0.0026
vn -0.3099 0.9508 -0.0045
vn -0.9394 0.0157 -0.3424
vn -0.0176 -0.9926 -0.1204
vn 0.0183 0.9916 -0.1277
vn -0.0181 -0.9998 0.0037
vn 0.9998 -0.0181 0.0029
vn 0.0029 -0.0038 -1.0000
vn 0.0181 0.9998 -0.0037
vn -0.0029 0.0038 1.0000
vn -0.9998 0.0181 -0.0029
vn 0.1582 -0.7486 -0.6439
vn 0.1343 0.7733 -0.6197
vn 0.1374 -0.7691 0.6242
vn 0.1136 0.7528 0.6484
vn -0.1137 -0.7527 -0.6485
vn -0.1374 0.7690 -0.6243
vn -0.1344 -0.7733 0.6197
vn -0.1581 0.7486 0.6439
vn 0.1911 -0.9815 -0.0127
vn 0.2254 0.0190 -0.9741
vn 0.1603 0.9869 0.0186
vn 0.1935 -0.0126 0.9810
vn 0.0015 -0.7784 0.6278
vn -0.0224 0.7578 0.6521
vn -0.2255 -0.0190 0.9741
vn -0.1604 -0.9869 -0.0186
vn -0.1911 0.9815 0.0127
vn -0.1935 0.0126 -0.9810
vn 0.0224 -0.7577 -0.6522
vn -0.0015 0.7783 -0.6279
vn 0.0156 -0.9998 -0.0159
vn 0.9997 0.0153 0.0166
vn 0.0163 0.0162 -0.9997
vn -0.0156 0.9998 0.0159
vn -0.0163 -0.0162 0.9997
vn -0.9997 -0.0153 -0.0166
vn 0.0618 -0.9936 -0.0945
vn 0.0823 0.9935 -0.0792
vn 0.0586 -0.9949 0.0817
vn 0.0791 0.9921 0.0971
vn -0.0791 -0.9921 -0.0971
vn -0.0586 0.9949 -0.0817
vn -0.0823 -0.9935 0.0792
vn -0.0618 0.9936 0.0945
vn 0.0604 -0.9982 -0.0064
vn 0.6384 -0.0007 -0.7697
vn 0.0810 0.9967 0.0090
vn 0.6103 -0.0124 0.7921
vn -0.0119 -0.9967 0.0807
vn 0.0087 0.9953 0.0960
vn -0.6384 0.0007 0.7697
vn -0.0810 -0.9967 -0.0090
vn -0.0604 0.9982 0.0064
vn -0.6103 0.0124 -0.7921
vn -0.0087 -0.9953 -0.0960
vn 0.0119 0.9967 -0.0807
vn -0.0103 -0.9999 -0.0077
vn 0.9998 -0.0105 0.0180
vn 0.0180 0.0075 -0.9998
vn 0.0103 0.9999 0.0077
vn -0.0180 -0.0075 0.9998
vn -0.9998 0.0105 -0.0180
vn 0.0275 -0.7808 -0.6242
vn 0.0549 0.7531 -0.6556
vn 0.0467 -0.7550 0.6541
vn 0.0740 0.7789 0.6227
vn -0.0740 -0.7790 -0.6227
vn -0.0467 0.7550 -0.6541
vn -0.0549 -0.7531 0.6556
vn -0.0275 0.7808 0.6242
vn 0.0483 -0.9986 0.0194
vn 0.0642 -0.0215 -0.9977
vn 0.0838 0.9963 -0.0213
vn 0.0941 0.0187 0.9954
vn -0.0041 -0.7550 0.6557
vn 0.0233 0.7808 0.6243
vn -0.0642 0.0215 0.9977
vn -0.0838 -0.9963 0.0213
vn -0.0483 0.9986 -0.0194
vn -0.0941 -0.0187 -0.9954
vn -0.0233 -0.7809 -0.6242
vn 0.0041 0.7550 -0.6557
vn -0.0178 -0.9996 0.0204
vn 0.9997 -0.0181 -0.0146
vn -0.0150 -0.0202 -0.9997
vn 0.0178 0.9996 -0.0204
vn 0.0150 0.0202 0.9997
vn -0.9997 0.0181 0.0146
vn 0.0947 -0.9929 -0.0721
vn 0.1002 0.9893 -0.1062
vn 0.0969 -0.9899 0.1037
vn 0.1024 0.9923 0.0696
vn -0.1024 -0.9923 -0.0696
vn -0.0969 0.9899 -0.1037
vn -0.1002 -0.9893 0.1062
vn -0.0947 0.9929 0.0721
vn 0.0962 -0.9952 0.0159
vn 0.7377 -0.0137 -0.6750
vn 0.1017 0.9946 -0.0184
vn 0.7547 0.0092 0.6560
vn -0.0016 -0.9944 0.1055
vn 0.0039 0.9975 0.0712
vn -0.7377 0.0137 0.6750
vn -0.1017 -0.9946 0.0184
vn -0.0962 0.9952 -0.0159
vn -0.7547 -0.0092 -0.6560
vn -0.0039 -0.9975 -0.0712
vn 0.0016 0.9944 -0.1055
vn -0.0028 -0.9998 0.0172
vn 0.9999 -0.0030 -0.0127
vn -0.0128 -0.0172 -0.9998
vn 0.0028 0.9998 -0.0172
vn 0.0128 0.0172 0.9998
vn -0.9999 0.0030 0.0127
vn 0.0789 -0.7581 -0.6473
vn 0.0905 0.7742 -0.6265
vn 0.0532 -0.7753 0.6293
vn 0.0648 0.7570 0.6502
vn -0.0648 -0.7570 -0.6502
vn -0.0532 0.7752 -0.6294
vn -0.0905 -0.7741 0.6265
vn -0.0789 0.7581 0.6473
vn 0.0859 -0.9962 -0.0117
vn 0.1318 0.0125 -0.9912
vn 0.1008 0.9948 0.0154
vn 0.0918 -0.0142 0.9957
vn -0.0187 -0.7767 0.6296
vn -0.0071 0.7595 0.6505
vn -0.1318 -0.0125 0.9912
vn -0.1009 -0.9948 -0.0154
vn -0.0859 0.9962 0.0117
vn -0.0918 0.0142 -0.9957
vn 0.0071 -0.7595 -0.6505
vn 0.0187 0.7767 -0.6296
vn -0.0075 -0.9999 -0.0136
vn 0.9998 -0.0078 0.0200
vn 0.0201 0.0134 -0.9997
vn 0.0075 0.9999 0.0136
vn -0.0201 -0.0134 0.9997
vn -0.9998 0.0078 -0.0200
vn 0.1631 -0.9819 -0.0965
vn 0.1478 0.9855 -0.0835
vn 0.1661 -0.9830 0.0780
vn 0.1509 0.9843 0.0910
vn -0.1509 -0.9844 -0.0910
vn -0.1661 0.9830 -0.0780
vn -0.1479 -0.9855 0.0835
vn -0.1631 0.9819 0.0965
vn 0.1652 -0.9862 -0.0093
vn 0.8653 0.0100 -0.5011
vn 0.1499 0.9887 0.0037
vn 0.8825 0.0037 0.4703
vn 0.0093 -0.9966 0.0818
vn -0.0061 0.9955 0.0949
vn -0.8653 -0.0100 0.5011
vn -0.1500 -0.9887 -0.0037
vn -0.1652 0.9862 0.0093
vn -0.8825 -0.0037 -0.4703
vn 0.0061 -0.9955 -0.0949
vn -0.0093 0.9966 -0.0818
vn 0.0077 -0.9999 -0.0066
vn 0.9998 0.0079 -0.0176
vn -0.0176 0.0065 -0.9998
vn -0.0077 0.9999 0.0066
vn 0.0176 -0.0065 0.9998
vn -0.9998 -0.0079 0.0176
vn 0.1202 -0.7516 -0.6485
vn 0.1228 0.7739 -0.6213
vn 0.1123 -0.7743 0.6228
vn 0.1149 0.7513 0.6499
vn -0.1149 -0.7513 -0.6499
vn -0.1123 0.7743 -0.6227
vn -0.1228 -0.7739 0.6213
vn -0.1202 0.7517 0.6485
vn 0.1506 -0.9885 -0.0167
vn 0.1879 0.0172 -0.9820
vn 0.1539 0.9879 0.0186
vn 0.1757 -0.0178 0.9843
vn -0.0053 -0.7795 0.6263
vn -0.0027 0.7567 0.6538
vn -0.1879 -0.0172 0.9820
vn -0.1540 -0.9879 -0.0186
vn -0.1506 0.9885 0.0167
vn -0.1757 0.0178 -0.9843
vn 0.0027 -0.7567 -0.6538
vn 0.0053 0.7795 -0.6264
vn -0.0017 -0.9998 -0.0178
vn 1.0000 -0.0018 0.0062
vn 0.0062 0.0178 -0.9998
vn 0.0017 0.9998 0.0178
vn -0.0062 -0.0178 0.9998
vn -1.0000 0.0018 -0.0062
vn -0.9352 -0.3463 -0.0738
vn 0.5268 0.2163 -0.8220
vn 0.3997 0.9166 -0.0115
vn 0.9647 -0.0270 0.2620
vn -0.9647 0.0270 -0.2620
vn -0.5428 0.1850 -0.8192
vn 0.9643 -0.0027 -0.2650
vn 1.0000 0.0001 0.0028
vn -0.0051 0.6929 -0.7210
vn 0.3100 -0.9507 0.0045
vn 0.3441 0.9389 -0.0026
vn -0.3441 -0.9389 0.0026
vn -0.3100 0.9507 -0.0045
vn -0.0176 -0.9926 -0.1203
vn 0.1604 0.9869 0.0186
vn 0.0015 -0.7784 0.6277
vn -0.0224 0.7577 0.6522
vn -0.2254 -0.0190 0.9741
vn 0.0224 -0.7576 -0.6523
vn -0.0015 0.7784 -0.6278
vn -0.6385 0.0007 0.7697
vn 0.0482 -0.9986 0.0194
vn 0.0233 0.7809 0.6242
vn -0.0233 -0.7809 -0.6243
vn 0.1009 0.9948 0.0154
vn -0.1008 -0.9948 -0.0154
vn 0.0071 -0.7595 -0.6504
vn 0.1500 0.9887 0.0037
vn -0.1499 -0.9887 -0.0037
vn 0.1505 -0.9885 -0.0167
vn 0.1540 0.9879 0.0186
vn -0.0053 -0.7795 0.6264
vn -0.1539 -0.9879 -0.0186
vn 0.0027 -0.7567 -0.6537
vn 0.0053 0.7795 -0.6263
vt 0.128500 0.746500
vt 0.128500 0.750000
vt 0.125000 0.746500
vt 0.621500 0.996500
vt 0.625000 0.996500
vt 0.621500 1.000000
vt 0.128500 0.503500
vt 0.125000 0.503500
vt 0.128500 0.500000
vt 0.625000 0.250015
vt 0.621500 0.253500
vt 0.621500 0.246501
vt 0.371500 0.746500
vt 0.378499 0.746500
vt 0.378362 0.753431
vt 0.628431 0.746638
vt 0.621500 0.753500
vt 0.621500 0.746501
vt 0.371500 0.503500
vt 0.378362 0.496569
vt 0.378499 0.503500
vt 0.628431 0.503363
vt 0.621500 0.503500
vt 0.621500 0.496501
vt 0.378500 0.000000
vt 0.621500 0.003500
vt 0.378500 0.003500
vt 0.625000 0.003500
vt 0.378500 0.253500
vt 0.378500 0.246500
vt 0.378500 0.996500
vt 0.871500 0.503500
vt 0.128500 0.746500
vt 0.621500 0.246501
vt 0.621500 0.496501
vt 0.621500 0.000000
vt 0.378499 0.746500
vt 0.378362 0.496569
vt 0.871500 0.746500
vt 0.000000 0.000000
s 0
usemtl wood
f 1/1/1 2/2/1 3/3/1
f 4/4/2 5/5/2 6/6/2
f 7/7/3 8/8/3 9/9/3
f 10/10/4 11/11/4 12/12/4
f 13/13/5 14/14/5 15/15/5
f 16/16/6 17/17/6 18/18/6
f 19/19/7 20/20/7 21/21/7
f 22/22/8 23/23/8 24/24/8
f 1/1/9 8/8/9 7/7/9
f 2/25/10 6/26/10 3/27/10
f 10/10/11 6/26/11 5/28/11
f 9/29/12 12/12/12 11/11/12
f 7/7/13 20/20/13 19/19/13
f 22/22/14 11/11/14 10/10/14
f 21/21/15 24/24/15 23/23/15
f 19/19/16 14/14/16 13/13/16
f 16/16/17 23/23/17 22/22/17
f 15/15/18 18/18/18 17/17/18
f 13/13/19 2/2/19 1/1/19
f 5/5/20 17/17/20 16/16/20
f 19/19/21 1/1/21 7/7/21
f 3/27/22 12/12/22 8/30/22
f 17/17/23 2/31/23 15/15/23
f 10/32/24 16/16/24 22/22/24
f 9/29/25 24/24/25 20/20/25
f 23/23/26 14/14/26 21/21/26
f 25/33/27 26/2/27 27/3/27
f 28/4/28 29/5/28 30/6/28
f 31/7/29 32/8/29 33/9/29
f 34/10/30 35/11/30 36/34/30
f 37/13/31 38/14/31 39/15/31
f 40/16/32 41/17/32 42/18/32
f 43/19/33 44/20/33 45/21/33
f 46/22/34 47/23/34 48/35/34
f 25/33/35 32/8/35 31/7/35
f 28/36/36 27/27/36 26/25/36
f 29/28/37 36/34/37 30/26/37
f 33/29/38 36/34/38 35/11/38
f 31/7/39 44/20/39 43/19/39
f 34/10/40 48/35/40 35/11/40
f 45/21/41 48/35/41 47/23/41
f 43/19/42 38/14/42 37/13/42
f 40/16/43 47/23/43 46/22/43
f 41/17/44 38/14/44 42/18/44
f 37/13/45 26/2/45 25/33/45
f 29/5/46 41/17/46 40/16/46
f 31/7/47 37/13/47 25/33/47
f 30/26/48 32/30/48 27/27/48
f 41/17/49 26/31/49 39/15/49
f 34/32/50 40/16/50 46/22/50
f 35/11/51 44/20/51 33/29/51
f 45/21/52 42/18/52 38/14/52
f 73/33/79 74/2/79 75/3/79
f 76/4/80 77/5/80 78/6/80
f 79/7/81 80/8/81 81/9/81
f 82/10/82 83/11/82 84/12/82
f 85/13/83 86/37/83 87/15/83
f 88/16/84 89/17/84 90/18/84
f 91/19/85 92/20/85 93/21/85
f 94/22/86 95/23/86 96/24/86
f 73/33/87 80/8/87 79/7/87
f 74/25/88 78/26/88 75/27/88
f 82/10/89 78/26/89 77/28/89
f 83/11/90 80/30/90 84/12/90
f 91/19/91 81/9/91 92/20/91
f 82/10/92 96/24/92 83/11/92
f 95/23/93 92/20/93 96/24/93
f 91/19/94 86/37/94 85/13/94
f 88/16/95 95/23/95 94/22/95
f 87/15/96 90/18/96 89/17/96
f 85/13/97 74/2/97 73/33/97
f 88/16/98 76/4/98 89/17/98
f 79/7/99 85/13/99 73/33/99
f 75/27/100 84/12/100 80/30/100
f 89/17/101 74/31/101 87/15/101
f 94/22/102 77/39/102 88/16/102
f 83/11/103 92/20/103 81/29/103
f 95/23/104 86/37/104 93/21/104
f 97/33/105 98/2/105 99/3/105
f 100/4/106 101/5/106 102/6/106
f 103/7/107 104/8/107 105/9/107
f 106/10/108 107/11/108 108/12/108
f 109/13/109 110/14/109 111/15/109
f 112/16/110 113/17/110 114/18/110
f 115/19/111 116/38/111 117/21/111
f 118/22/112 119/23/112 120/24/112
f 103/7/113 99/3/113 104/8/113
f 100/36/114 99/27/114 98/25/114
f 106/10/115 102/26/115 101/28/115
f 107/11/116 104/30/116 108/12/116
f 115/19/117 105/9/117 116/38/117
f 118/22/118 107/11/118 106/10/118
f 117/21/119 120/24/119 119/23/119
f 115/19/120 110/14/120 109/13/120
f 112/16/121 119/23/121 118/22/121
f 113/17/122 110/14/122 114/18/122
f 109/13/123 98/2/123 97/33/123
f 101/5/124 113/17/124 112/16/124
f 103/7/125 109/13/125 97/33/125
f 102/26/126 104/30/126 99/27/126
f 113/17/127 98/31/127 111/15/127
f 118/22/128 101/39/128 112/16/128
f 105/29/129 120/24/129 116/38/129
f 119/23/130 110/14/130 117/21/130
f 145/40/157 146/40/157 147/40/157
f 148/40/158 149/40/158 150/40/158
f 151/40/159 152/40/159 153/40/159
f 154/40/160 155/40/160 156/40/160
f 157/40/161 158/40/161 159/40/161
f 160/40/162 161/40/162 162/40/162
f 163/40/163 164/40/163 165/40/163
f 166/40/164 167/40/164 168/40/164
f 148/40/165 147/40/165 149/40/165
f 157/40/166 147/40/166 146/40/166
f 160/40/167 159/40/167 158/40/167
f 161/40/168 149/40/168 162/40/168
f 166/40/169 158/40/169 157/40/169
f 167/40/170 165/40/170 168/40/170
f 164/40/171 160/40/171 165/40/171
f 151/40/172 164/40/172 163/40/172
f 148/40/173 153/40/173 152/40/173
f 154/40/174 152/40/174 151/40/174
f 155/40/175 145/40/175 156/40/175
f 154/40/176 166/40/176 155/40/176
f 148/40/177 156/40/177 145/40/177
f 162/40/178 147/40/178 159/40/178
f 166/40/179 146/40/179 155/40/179
f 161/40/180 153/40/180 150/40/180
f 163/40/181 154/40/181 151/40/181
f 160/40/182 168/40/182 165/40/182
f 169/33/183 170/2/183 171/3/183
f 172/4/184 173/5/184 174/6/184
f 175/7/185 176/8/185 177/9/185
f 178/10/186 179/11/186 180/12/186
f 181/13/187 182/37/187 183/15/187
f 184/16/188 185/17/188 186/18/188
f 187/19/189 188/20/189 189/21/189
f 190/22/190 191/23/190 192/24/190
f 169/33/191 176/8/191 175/7/191
f 170/25/192 174/26/192 171/27/192
f 178/10/193 174/26/193 173/28/193
f 177/29/194 180/12/194 179/11/194
f 175/7/195 188/20/195 187/19/195
f 190/22/196 179/11/196 178/10/196
f 189/21/197 192/24/197 191/23/197
f 181/13/198 189/21/198 182/37/198
f 184/16/199 191/23/199 190/22/199
f 185/17/200 182/37/200 186/18/200
f 181/13/201 170/2/201 169/33/201
f 173/5/202 185/17/202 184/16/202
f 187/19/203 169/33/203 175/7/203
f 174/26/204 176/30/204 171/27/204
f 183/15/205 172/4/205 170/31/205
f 178/32/206 184/16/206 190/22/206
f 179/11/207 188/20/207 177/29/207
f 191/23/208 182/37/208 189/21/208
f 217/33/235 218/2/235 219/3/235
f 220/4/236 221/5/236 222/6/236
f 223/7/237 224/8/237 225/9/237
f 226/10/238 227/11/238 228/12/238
f 229/13/239 230/14/239 231/15/239
f 232/16/240 233/17/240 234/18/240
f 235/19/241 236/38/241 237/21/241
f 238/22/242 239/23/242 240/24/242
f 217/33/243 224/8/243 223/7/243
f 220/36/244 219/27/244 218/25/244
f 221/28/245 228/12/245 222/26/245
f 227/11/246 224/30/246 228/12/246
f 235/19/247 225/9/247 236/38/247
f 238/22/248 227/11/248 226/10/248
f 237/21/249 240/24/249 239/23/249
f 229/13/250 237/21/250 230/14/250
f 232/16/251 239/23/251 238/22/251
f 231/15/252 234/18/252 233/17/252
f 229/13/253 218/2/253 217/33/253
f 232/16/254 220/4/254 233/17/254
f 235/19/255 217/33/255 223/7/255
f 219/27/256 228/12/256 224/30/256
f 231/15/257 220/4/257 218/31/257
f 226/32/258 232/16/258 238/22/258
f 225/29/259 240/24/259 236/38/259
f 239/23/260 230/14/260 237/21/260
f 265/1/287 266/2/287 267/3/287
f 268/4/288 269/5/288 270/6/288
f 271/7/289 272/8/289 273/9/289
f 274/10/290 275/11/290 276/34/290
f 277/13/291 278/37/291 279/15/291
f 280/16/292 281/17/292 282/18/292
f 283/19/293 284/20/293 285/21/293
f 286/22/294 287/23/294 288/35/294
f 265/1/295 272/8/295 271/7/295
f 266/25/296 270/26/296 267/27/296
f 274/10/297 270/26/297 269/28/297
f 273/29/298 276/34/298 275/11/298
f 271/7/299 284/20/299 283/19/299
f 286/22/300 275/11/300 274/10/300
f 285/21/301 288/35/301 287/23/301
f 277/13/302 285/21/302 278/37/302
f 280/16/303 287/23/303 286/22/303
f 279/15/304 282/18/304 281/17/304
f 277/13/305 266/2/305 265/1/305
f 269/5/306 281/17/306 280/16/306
f 283/19/307 265/1/307 271/7/307
f 270/26/308 272/30/308 267/27/308
f 279/15/309 268/4/309 266/31/309
f 274/32/310 280/16/310 286/22/310
f 275/11/311 284/20/311 273/29/311
f 287/23/312 278/37/312 285/21/312
f 313/33/339 314/2/339 315/3/339
f 316/4/340 317/5/340 318/6/340
f 319/7/341 320/8/341 321/9/341
f 322/10/342 323/11/342 324/12/342
f 325/13/343 326/14/343 327/15/343
f 328/16/344 329/17/344 330/18/344
f 331/19/345 332/38/345 333/21/345
f 334/22/346 335/23/346 336/24/346
f 319/7/347 315/3/347 320/8/347
f 316/36/348 315/27/348 314/25/348
f 317/28/349 324/12/349 318/26/349
f 321/29/350 324/12/350 323/11/350
f 331/19/351 321/9/351 332/38/351
f 334/22/352 323/11/352 322/10/352
f 333/21/353 336/24/353 335/23/353
f 331/19/354 326/14/354 325/13/354
f 334/22/355 330/18/355 335/23/355
f 329/17/356 326/14/356 330/18/356
f 325/13/357 314/2/357 313/33/357
f 317/5/358 329/17/358 328/16/358
f 319/7/359 325/13/359 313/33/359
f 318/26/360 320/30/360 315/27/360
f 329/17/361 314/31/361 327/15/361
f 334/22/362 317/39/362 328/16/362
f 321/29/363 336/24/363 332/38/363
f 335/23/364 326/14/364 333/21/364
f 1/1/9 3/3/9 8/8/9
f 2/25/10 4/36/10 6/26/10
f 10/10/11 12/12/11 6/26/11
f 9/29/12 8/30/12 12/12/12
f 7/7/13 9/9/13 20/20/13
f 22/22/14 24/24/14 11/11/14
f 21/21/15 20/20/15 24/24/15
f 19/19/16 21/21/16 14/14/16
f 16/16/17 18/18/17 23/23/17
f 15/15/391 14/14/391 18/18/391
f 13/13/19 15/15/19 2/2/19
f 5/5/20 4/4/20 17/17/20
f 19/19/21 13/13/21 1/1/21
f 3/27/22 6/26/22 12/12/22
f 17/17/23 4/4/23 2/31/23
f 10/32/24 5/39/24 16/16/24
f 9/29/25 11/11/25 24/24/25
f 23/23/26 18/18/26 14/14/26
f 25/33/35 27/3/35 32/8/35
f 28/36/392 30/26/392 27/27/392
f 29/28/37 34/10/37 36/34/37
f 33/29/38 32/30/38 36/34/38
f 31/7/39 33/9/39 44/20/39
f 34/10/40 46/22/40 48/35/40
f 45/21/41 44/20/41 48/35/41
f 43/19/42 45/21/42 38/14/42
f 40/16/43 42/18/43 47/23/43
f 41/17/44 39/15/44 38/14/44
f 37/13/45 39/15/45 26/2/45
f 29/5/46 28/4/46 41/17/46
f 31/7/47 43/19/47 37/13/47
f 30/26/48 36/34/48 32/30/48
f 41/17/49 28/4/49 26/31/49
f 34/32/50 29/39/50 40/16/50
f 35/11/51 48/35/51 44/20/51
f 45/21/52 47/23/52 42/18/52
f 73/33/87 75/3/87 80/8/87
f 74/25/88 76/36/88 78/26/88
f 82/10/89 84/12/89 78/26/89
f 83/11/90 81/29/90 80/30/90
f 91/19/91 79/7/91 81/9/91
f 82/10/92 94/22/92 96/24/92
f 95/23/93 93/21/93 92/20/93
f 91/19/94 93/21/94 86/37/94
f 88/16/95 90/18/95 95/23/95
f 87/15/96 86/37/96 90/18/96
f 85/13/97 87/15/97 74/2/97
f 88/16/98 77/5/98 76/4/98
f 79/7/99 91/19/99 85/13/99
f 75/27/100 78/26/100 84/12/100
f 89/17/101 76/4/101 74/31/101
f 94/22/102 82/32/102 77/39/102
f 83/11/103 96/24/103 92/20/103
f 95/23/104 90/18/104 86/37/104
f 103/7/113 97/33/113 99/3/113
f 100/36/114 102/26/114 99/27/114
f 106/10/115 108/12/115 102/26/115
f 107/11/116 105/29/116 104/30/116
f 115/19/117 103/7/117 105/9/117
f 118/22/118 120/24/118 107/11/118
f 117/21/119 116/38/119 120/24/119
f 115/19/120 117/21/120 110/14/120
f 112/16/121 114/18/121 119/23/121
f 113/17/396 111/15/396 110/14/396
f 109/13/123 111/15/123 98/2/123
f 101/5/124 100/4/124 113/17/124
f 103/7/125 115/19/125 109/13/125
f 102/26/126 108/12/126 104/30/126
f 113/17/127 100/4/127 98/31/127
f 118/22/128 106/32/128 101/39/128
f 105/29/129 107/11/129 120/24/129
f 119/23/130 114/18/130 110/14/130
f 148/40/165 145/40/165 147/40/165
f 157/40/166 159/40/166 147/40/166
f 160/40/167 162/40/167 159/40/167
f 161/40/168 150/40/168 149/40/168
f 166/40/169 168/40/169 158/40/169
f 167/40/170 163/40/170 165/40/170
f 164/40/171 161/40/171 160/40/171
f 151/40/172 153/40/172 164/40/172
f 148/40/173 150/40/173 153/40/173
f 154/40/399 156/40/399 152/40/399
f 155/40/175 146/40/175 145/40/175
f 154/40/176 167/40/176 166/40/176
f 148/40/177 152/40/177 156/40/177
f 162/40/178 149/40/178 147/40/178
f 166/40/179 157/40/179 146/40/179
f 161/40/180 164/40/180 153/40/180
f 163/40/181 167/40/181 154/40/181
f 160/40/182 158/40/182 168/40/182
f 169/33/400 171/3/400 176/8/400
f 170/25/192 172/36/192 174/26/192
f 178/10/401 180/12/401 174/26/401
f 177/29/194 176/30/194 180/12/194
f 175/7/195 177/9/195 188/20/195
f 190/22/196 192/24/196 179/11/196
f 189/21/197 188/20/197 192/24/197
f 181/13/402 187/19/402 189/21/402
f 184/16/403 186/18/403 191/23/403
f 185/17/200 183/15/200 182/37/200
f 181/13/404 183/15/404 170/2/404
f 173/5/202 172/4/202 185/17/202
f 187/19/203 181/13/203 169/33/203
f 174/26/204 180/12/204 176/30/204
f 183/15/205 185/17/205 172/4/205
f 178/32/206 173/39/206 184/16/206
f 179/11/207 192/24/207 188/20/207
f 191/23/208 186/18/208 182/37/208
f 217/33/243 219/3/243 224/8/243
f 220/36/244 222/26/244 219/27/244
f 221/28/245 226/10/245 228/12/245
f 227/11/246 225/29/246 224/30/246
f 235/19/247 223/7/247 225/9/247
f 238/22/248 240/24/248 227/11/248
f 237/21/411 236/38/411 240/24/411
f 229/13/250 235/19/250 237/21/250
f 232/16/251 234/18/251 239/23/251
f 231/15/252 230/14/252 234/18/252
f 229/13/253 231/15/253 218/2/253
f 232/16/254 221/5/254 220/4/254
f 235/19/255 229/13/255 217/33/255
f 219/27/256 222/26/256 228/12/256
f 231/15/257 233/17/257 220/4/257
f 226/32/258 221/39/258 232/16/258
f 225/29/259 227/11/259 240/24/259
f 239/23/260 234/18/260 230/14/260
f 265/1/295 267/3/295 272/8/295
f 266/25/296 268/36/296 270/26/296
f 274/10/297 276/34/297 270/26/297
f 273/29/298 272/30/298 276/34/298
f 271/7/299 273/9/299 284/20/299
f 286/22/300 288/35/300 275/11/300
f 285/21/301 284/20/301 288/35/301
f 277/13/302 283/19/302 285/21/302
f 280/16/303 282/18/303 287/23/303
f 279/15/304 278/37/304 282/18/304
f 277/13/305 279/15/305 266/2/305
f 269/5/306 268/4/306 281/17/306
f 283/19/307 277/13/307 265/1/307
f 270/26/308 276/34/308 272/30/308
f 279/15/309 281/17/309 268/4/309
f 274/32/310 269/39/310 280/16/310
f 275/11/311 288/35/311 284/20/311
f 287/23/312 282/18/312 278/37/312
f 319/7/347 313/33/347 315/3/347
f 316/36/348 318/26/348 315/27/348
f 317/28/418 322/10/418 324/12/418
f 321/29/350 320/30/350 324/12/350
f 331/19/351 319/7/351 321/9/351
f 334/22/352 336/24/352 323/11/352
f 333/21/353 332/38/353 336/24/353
f 331/19/419 333/21/419 326/14/419
f 334/22/355 328/16/355 330/18/355
f 329/17/356 327/15/356 326/14/356
f 325/13/357 327/15/357 314/2/357
f 317/5/358 316/4/358 329/17/358
f 319/7/359 331/19/359 325/13/359
f 318/26/360 324/12/360 320/30/360
f 329/17/361 316/4/361 314/31/361
f 334/22/362 322/32/362 317/39/362
f 321/29/363 323/11/363 336/24/363
f 335/23/364 330/18/364 326/14/364
usemtl stone
f 49/33/53 50/2/53 51/3/53
f 52/4/54 53/5/54 54/6/54
f 55/7/55 56/8/55 57/9/55
f 58/10/56 59/11/56 60/34/56
f 61/13/57 62/37/57 63/15/57
f 64/16/58 65/17/58 66/18/58
f 67/19/59 68/38/59 69/21/59
f 70/22/60 71/23/60 72/35/60
f 49/33/61 56/8/61 55/7/61
f 52/36/62 51/27/62 50/25/62
f 58/10/63 54/26/63 53/28/63
f 57/29/64 60/34/64 59/11/64
f 55/7/65 68/38/65 67/19/65
f 58/10/66 72/35/66 59/11/66
f 71/23/67 68/38/67 72/35/67
f 67/19/68 62/37/68 61/13/68
f 70/22/69 66/18/69 71/23/69
f 63/15/70 66/18/70 65/17/70
f 49/33/71 63/15/71 50/2/71
f 53/5/72 65/17/72 64/16/72
f 67/19/73 49/33/73 55/7/73
f 54/26/74 56/30/74 51/27/74
f 65/17/75 50/31/75 63/15/75
f 58/32/76 64/16/76 70/22/76
f 57/29/77 72/35/77 68/38/77
f 71/23/78 62/37/78 69/21/78
f 121/1/131 122/2/131 123/3/131
f 124/4/132 125/5/132 126/6/132
f 127/7/133 128/8/133 129/9/133
f 130/10/134 131/11/134 132/34/134
f 133/13/135 134/37/135 135/15/135
f 136/16/136 137/17/136 138/18/136
f 139/19/137 140/20/137 141/21/137
f 142/22/138 143/23/138 144/24/138
f 121/1/139 128/8/139 127/7/139
f 124/36/140 123/27/140 122/25/140
f 130/10/141 126/26/141 125/28/141
f 131/11/142 128/30/142 132/34/142
f 127/7/143 140/20/143 139/19/143
f 142/22/144 131/11/144 130/10/144
f 141/21/145 144/24/145 143/23/145
f 133/13/146 141/21/146 134/37/146
f 142/22/147 138/18/147 143/23/147
f 137/17/148 134/37/148 138/18/148
f 133/13/149 122/2/149 121/1/149
f 136/16/150 124/4/150 137/17/150
f 139/19/151 121/1/151 127/7/151
f 123/27/152 132/34/152 128/30/152
f 137/17/153 122/31/153 135/15/153
f 130/32/154 136/16/154 142/22/154
f 129/29/155 144/24/155 140/20/155
f 143/23/156 134/37/156 141/21/156
f 49/33/61 51/3/61 56/8/61
f 52/36/62 54/26/62 51/27/62
f 58/10/393 60/34/393 54/26/393
f 57/29/394 56/30/394 60/34/394
f 55/7/65 57/9/65 68/38/65
f 58/10/66 70/22/66 72/35/66
f 71/23/67 69/21/67 68/38/67
f 67/19/68 69/21/68 62/37/68
f 70/22/69 64/16/69 66/18/69
f 63/15/395 62/37/395 66/18/395
f 49/33/71 61/13/71 63/15/71
f 53/5/72 52/4/72 65/17/72
f 67/19/73 61/13/73 49/33/73
f 54/26/74 60/34/74 56/30/74
f 65/17/75 52/4/75 50/31/75
f 58/32/76 53/39/76 64/16/76
f 57/29/77 59/11/77 72/35/77
f 71/23/78 66/18/78 62/37/78
f 121/1/139 123/3/139 128/8/139
f 124/36/397 126/26/397 123/27/397
f 130/10/141 132/34/141 126/26/141
f 131/11/142 129/29/142 128/30/142
f 127/7/143 129/9/143 140/20/143
f 142/22/144 144/24/144 131/11/144
f 141/21/145 140/20/145 144/24/145
f 133/13/146 139/19/146 141/21/146
f 142/22/147 136/16/147 138/18/147
f 137/17/148 135/15/148 134/37/148
f 133/13/149 135/15/149 122/2/149
f 136/16/150 125/5/150 124/4/150
f 139/19/151 133/13/151 121/1/151
f 123/27/398 126/26/398 132/34/398
f 137/17/153 124/4/153 122/31/153
f 130/32/154 125/39/154 136/16/154
f 129/29/155 131/11/155 144/24/155
f 143/23/156 138/18/156 134/37/156
usemtl iron
f 193/33/209 194/2/209 195/3/209
f 196/4/210 197/5/210 198/6/210
f 199/7/211 200/8/211 201/9/211
f 202/10/212 203/11/212 204/12/212
f 205/13/213 206/14/213 207/15/213
f 208/16/214 209/17/214 210/18/214
f 211/19/215 212/38/215 213/21/215
f 214/22/216 215/23/216 216/24/216
f 199/7/217 195/3/217 200/8/217
f 196/36/218 195/27/218 194/25/218
f 197/28/219 204/12/219 198/26/219
f 201/29/220 204/12/220 203/11/220
f 199/7/221 212/38/221 211/19/221
f 202/10/222 216/24/222 203/11/222
f 213/21/223 216/24/223 215/23/223
f 211/19/224 206/14/224 205/13/224
f 208/16/225 215/23/225 214/22/225
f 209/17/226 206/14/226 210/18/226
f 205/13/227 194/2/227 193/33/227
f 197/5/228 209/17/228 208/16/228
f 199/7/229 205/13/229 193/33/229
f 195/27/230 204/12/230 200/30/230
f 209/17/231 194/31/231 207/15/231
f 214/22/232 197/39/232 208/16/232
f 203/11/233 212/38/233 201/29/233
f 215/23/234 206/14/234 213/21/234
f 241/33/261 242/2/261 243/3/261
f 244/4/262 245/5/262 246/6/262
f 247/7/263 248/8/263 249/9/263
f 250/10/264 251/11/264 252/34/264
f 253/13/265 254/14/265 255/15/265
f 256/16/266 257/17/266 258/18/266
f 259/19/267 260/20/267 261/21/267
f 262/22/268 263/23/268 264/24/268
f 247/7/269 243/3/269 248/8/269
f 244/36/270 243/27/270 242/25/270
f 245/28/271 252/34/271 246/26/271
f 251/11/272 248/30/272 252/34/272
f 259/19/273 249/9/273 260/20/273
f 262/22/274 251/11/274 250/10/274
f 261/21/275 264/24/275 263/23/275
f 259/19/276 254/14/276 253/13/276
f 262/22/277 258/18/277 263/23/277
f 257/17/278 254/14/278 258/18/278
f 253/13/279 242/2/279 241/33/279
f 256/16/280 244/4/280 257/17/280
f 259/19/281 241/33/281 247/7/281
f 246/26/282 248/30/282 243/27/282
f 257/17/283 242/31/283 255/15/283
f 262/22/284 245/39/284 256/16/284
f 249/29/285 264/24/285 260/20/285
f 263/23/286 254/14/286 261/21/286
f 289/33/313 290/2/313 291/3/313
f 292/4/314 293/5/314 294/6/314
f 295/7/315 296/8/315 297/9/315
f 298/10/316 299/11/316 300/12/316
f 301/13/317 302/37/317 303/15/317
f 304/16/318 305/17/318 306/18/318
f 307/19/319 308/20/319 309/21/319
f 310/22/320 311/23/320 312/24/320
f 295/7/321 291/3/321 296/8/321
f 290/25/322 294/26/322 291/27/322
f 298/10/323 294/26/323 293/28/323
f 299/11/324 296/30/324 300/12/324
f 295/7/325 308/20/325 307/19/325
f 310/22/326 299/11/326 298/10/326
f 309/21/327 312/24/327 311/23/327
f 307/19/328 302/37/328 301/13/328
f 304/16/329 311/23/329 310/22/329
f 303/15/330 306/18/330 305/17/330
f 301/13/331 290/2/331 289/33/331
f 293/5/332 305/17/332 304/16/332
f 307/19/333 289/33/333 295/7/333
f 291/27/334 300/12/334 296/30/334
f 305/17/335 290/31/335 303/15/335
f 310/22/336 293/39/336 304/16/336
f 299/11/337 308/20/337 297/29/337
f 311/23/338 302/37/338 309/21/338
f 337/1/365 338/2/365 339/3/365
f 340/4/366 341/5/366 342/6/366
f 343/7/367 344/8/367 345/9/367
f 346/10/368 347/11/368 348/12/368
f 349/13/369 350/14/369 351/15/369
f 352/16/370 353/17/370 354/18/370
f 355/19/371 356/20/371 357/21/371
f 358/22/372 359/23/372 360/24/372
f 343/7/373 339/3/373 344/8/373
f 340/36/374 339/27/374 338/25/374
f 346/10/375 342/26/375 341/28/375
f 347/11/376 344/30/376 348/12/376
f 343/7/377 356/20/377 355/19/377
f 358/22/378 347/11/378 346/10/378
f 359/23/379 356/20/379 360/24/379
f 349/13/380 357/21/380 350/14/380
f 352/16/381 359/23/381 358/22/381
f 351/15/382 354/18/382 353/17/382
f 349/13/383 338/2/383 337/1/383
f 341/5/384 353/17/384 352/16/384
f 355/19/385 337/1/385 343/7/385
f 342/26/386 344/30/386 339/27/386
f 353/17/387 338/31/387 351/15/387
f 358/22/388 341/39/388 352/16/388
f 345/29/389 360/24/389 356/20/389
f 359/23/390 350/14/390 357/21/390
f 199/7/217 193/33/217 195/3/217
f 196/36/218 198/26/218 195/27/218
f 197/28/405 202/10/405 204/12/405
f 201/29/220 200/30/220 204/12/220
f 199/7/406 201/9/406 212/38/406
f 202/10/407 214/22/407 216/24/407
f 213/21/408 212/38/408 216/24/408
f 211/19/224 213/21/224 206/14/224
f 208/16/225 210/18/225 215/23/225
f 209/17/226 207/15/226 206/14/226
f 205/13/409 207/15/409 194/2/409
f 197/5/410 196/4/410 209/17/410
f 199/7/229 211/19/229 205/13/229
f 195/27/230 198/26/230 204/12/230
f 209/17/231 196/4/231 194/31/231
f 214/22/232 202/32/232 197/39/232
f 203/11/233 216/24/233 212/38/233
f 215/23/234 210/18/234 206/14/234
f 247/7/412 241/33/412 243/3/412
f 244/36/270 246/26/270 243/27/270
f 245/28/271 250/10/271 252/34/271
f 251/11/272 249/29/272 248/30/272
f 259/19/273 247/7/273 249/9/273
f 262/22/413 264/24/413 251/11/413
f 261/21/275 260/20/275 264/24/275
f 259/19/276 261/21/276 254/14/276
f 262/22/277 256/16/277 258/18/277
f 257/17/278 255/15/278 254/14/278
f 253/13/414 255/15/414 242/2/414
f 256/16/280 245/5/280 244/4/280
f 259/19/281 253/13/281 241/33/281
f 246/26/282 252/34/282 248/30/282
f 257/17/283 244/4/283 242/31/283
f 262/22/284 250/32/284 245/39/284
f 249/29/285 251/11/285 264/24/285
f 263/23/286 258/18/286 254/14/286
f 295/7/321 289/33/321 291/3/321
f 290/25/322 292/36/322 294/26/322
f 298/10/415 300/12/415 294/26/415
f 299/11/324 297/29/324 296/30/324
f 295/7/325 297/9/325 308/20/325
f 310/22/326 312/24/326 299/11/326
f 309/21/327 308/20/327 312/24/327
f 307/19/416 309/21/416 302/37/416
f 304/16/329 306/18/329 311/23/329
f 303/15/330 302/37/330 306/18/330
f 301/13/417 303/15/417 290/2/417
f 293/5/332 292/4/332 305/17/332
f 307/19/333 301/13/333 289/33/333
f 291/27/334 294/26/334 300/12/334
f 305/17/335 292/4/335 290/31/335
f 310/22/336 298/32/336 293/39/336
f 299/11/337 312/24/337 308/20/337
f 311/23/338 306/18/338 302/37/338
f 343/7/420 337/1/420 339/3/420
f 340/36/374 342/26/374 339/27/374
f 346/10/421 348/12/421 342/26/421
f 347/11/376 345/29/376 344/30/376
f 343/7/422 345/9/422 356/20/422
f 358/22/378 360/24/378 347/11/378
f 359/23/379 357/21/379 356/20/379
f 349/13/423 355/19/423 357/21/423
f 352/16/381 354/18/381 359/23/381
f 351/15/382 350/14/382 354/18/382
f 349/13/424 351/15/424 338/2/424
f 341/5/425 340/4/425 353/17/425
f 355/19/385 349/13/385 337/1/385
f 342/26/386 348/12/386 344/30/386
f 353/17/387 340/4/387 338/31/387
f 358/22/388 346/32/388 341/39/388
f 345/29/389 347/11/389 360/24/389
f 359/23/390 354/18/390 350/14/390
