# Blender 4.5.10 LTS
# www.blender.org
mtllib upgrade_grow_hopper.mtl
o upgrade_grow_hopper
v 0.422895 1.086828 -0.294917
v 0.415272 1.078263 -0.277017
v 0.431245 1.074918 -0.290639
v -0.429049 1.077084 -0.294103
v -0.437116 1.064987 -0.289809
v -0.421198 1.068696 -0.276218
v -0.178141 0.579582 -0.100830
v -0.192893 0.573524 -0.113579
v -0.172962 0.561747 -0.109312
v 0.183802 0.583721 -0.101176
v 0.179015 0.565773 -0.109648
v 0.198663 0.578003 -0.113953
v 0.422945 1.081112 -0.310927
v 0.431295 1.069202 -0.306649
v 0.415405 1.063132 -0.319397
v -0.437066 1.059271 -0.305819
v -0.428999 1.071368 -0.310113
v -0.421065 1.053565 -0.318597
v -0.192843 0.567808 -0.129589
v -0.178009 0.564451 -0.143209
v -0.172912 0.556031 -0.125322
v 0.183934 0.568591 -0.143555
v 0.198713 0.572286 -0.129963
v 0.179065 0.560057 -0.125658
v 0.427235 1.065047 -0.277953
v 0.414611 1.071797 -0.292527
v 0.420357 1.083729 -0.282534
v 0.434433 1.054077 0.283828
v 0.427684 1.072563 0.289310
v 0.422190 1.060247 0.298973
v 0.182760 0.552641 0.102246
v 0.201395 0.559386 0.105842
v 0.188612 0.564410 0.120576
v 0.180044 0.556779 -0.109696
v 0.185432 0.569258 -0.127696
v 0.198585 0.563669 -0.113502
v 0.399189 1.078941 -0.292190
v 0.386411 1.083957 -0.277061
v 0.404935 1.090873 -0.282197
v 0.393609 1.072988 0.284720
v 0.406767 1.067391 0.299310
v 0.412261 1.079707 0.289647
v 0.167337 0.559784 0.102583
v 0.173190 0.571554 0.120913
v 0.160571 0.578296 0.106735
v 0.170009 0.576402 -0.127358
v 0.164622 0.563923 -0.109359
v 0.157761 0.582579 -0.112610
v 0.431031 1.069876 0.304987
v 0.422998 1.052264 0.313771
v 0.439001 1.057657 0.300860
v -0.420818 1.085624 0.308001
v -0.429263 1.073708 0.303933
v -0.413379 1.067726 0.316730
v -0.200669 0.572471 0.134394
v -0.181119 0.560038 0.130226
v -0.185877 0.568884 0.148001
v 0.176026 0.562194 0.146721
v 0.170818 0.553532 0.128981
v 0.190843 0.565233 0.133008
v 0.423114 1.066730 0.271159
v 0.431075 1.075341 0.288889
v 0.439045 1.063122 0.284763
v -0.429219 1.079173 0.287835
v -0.420774 1.091089 0.291903
v -0.413263 1.082192 0.274119
v -0.200625 0.577936 0.118296
v -0.185760 0.583350 0.105390
v -0.181075 0.565503 0.114129
v 0.176142 0.576660 0.104109
v 0.190887 0.570698 0.116911
v 0.170862 0.558997 0.112884
v -0.398223 1.070951 -0.299415
v -0.403959 1.083167 -0.289766
v -0.385458 1.076359 -0.284410
v -0.393519 1.080978 0.277447
v -0.412165 1.087868 0.282156
v -0.406711 1.075814 0.292165
v -0.168022 0.562473 0.109953
v -0.161224 0.581079 0.113600
v -0.173878 0.574758 0.127940
v -0.164981 0.560731 -0.102018
v -0.170316 0.572717 -0.120365
v -0.158077 0.579276 -0.105774
v -0.413659 1.063831 -0.299578
v -0.426319 1.057513 -0.284842
v -0.419396 1.076048 -0.289929
v -0.434380 1.062132 0.277015
v -0.422147 1.068694 0.292003
v -0.427601 1.080749 0.281993
v -0.202085 0.562233 0.113169
v -0.183459 0.555353 0.109790
v -0.189315 0.567638 0.127777
v -0.185752 0.565597 -0.120528
v -0.180417 0.553611 -0.102181
v -0.198938 0.560430 -0.106205
v 0.179905 0.545031 -0.137818
v 0.179980 0.545770 -0.141730
v 0.185237 0.545628 -0.137729
v 0.180910 0.594359 -0.141223
v 0.180862 0.595019 -0.137297
v 0.186167 0.594216 -0.137223
v 0.175680 0.542273 0.134295
v 0.181012 0.542870 0.134384
v 0.175632 0.542933 0.138222
v 0.176637 0.592261 0.134816
v 0.176562 0.591521 0.138728
v 0.181942 0.591458 0.134891
v -0.189343 0.552158 -0.143480
v -0.194648 0.552960 -0.143554
v -0.189268 0.552897 -0.147392
v -0.188386 0.602146 -0.142958
v -0.188338 0.601486 -0.146885
v -0.193717 0.601549 -0.143047
v -0.193568 0.549400 0.128633
v -0.193615 0.550060 0.132560
v -0.198873 0.550202 0.128559
v -0.192611 0.599388 0.129155
v -0.197943 0.598791 0.129066
v -0.192685 0.598648 0.133067
v 0.458714 1.074526 -0.328166
v 0.458716 1.075151 -0.329010
v 0.471874 1.075157 -0.328151
v 0.458713 1.118891 -0.329241
v 0.458711 1.119525 -0.328404
v 0.471871 1.118896 -0.328382
v 0.458633 1.074834 -0.269847
v 0.471793 1.075465 -0.269832
v 0.458632 1.075468 -0.269011
v 0.458630 1.119833 -0.270085
v 0.458629 1.119208 -0.269242
v 0.471790 1.119204 -0.270063
v -0.454965 1.074457 -0.329439
v -0.468125 1.075086 -0.329461
v -0.454964 1.075082 -0.330282
v -0.454968 1.119456 -0.329677
v -0.454967 1.118822 -0.330513
v -0.468128 1.118825 -0.329692
v -0.455046 1.074765 -0.271120
v -0.455047 1.075399 -0.270283
v -0.468206 1.075394 -0.271142
v -0.455049 1.119764 -0.271358
v -0.468209 1.119133 -0.271373
v -0.455050 1.119139 -0.270514
v 0.449492 1.061395 -0.327111
v 0.449529 1.061872 -0.336360
v 0.450325 1.062034 -0.327117
v 0.449052 1.105604 -0.337085
v 0.449001 1.106386 -0.327857
v 0.449848 1.105766 -0.327843
v 0.446431 1.072008 0.314314
v 0.447264 1.072647 0.314308
v 0.446380 1.072791 0.323543
v 0.445941 1.116999 0.313568
v 0.445903 1.116522 0.322817
v 0.446788 1.116378 0.313582
v 0.391176 1.060755 -0.327378
v 0.390329 1.061376 -0.327393
v 0.391213 1.061232 -0.336627
v 0.390686 1.105747 -0.328125
v 0.390737 1.104964 -0.337353
v 0.389853 1.105107 -0.328118
v 0.388115 1.071368 0.314047
v 0.388064 1.072151 0.323275
v 0.387268 1.071989 0.314032
v 0.387625 1.116359 0.313300
v 0.386792 1.115720 0.313307
v 0.387588 1.115882 0.322549
v 0.463307 1.058795 0.284227
v 0.463323 1.059415 0.283379
v 0.476468 1.059368 0.284428
v 0.463524 1.103151 0.282824
v 0.463513 1.103791 0.283656
v 0.476669 1.103104 0.283873
v 0.462386 1.059539 0.342535
v 0.475547 1.060112 0.342736
v 0.462376 1.060180 0.343367
v 0.462592 1.104535 0.341964
v 0.462576 1.103916 0.342812
v 0.475748 1.103848 0.342181
v -0.450249 1.062800 0.269749
v -0.463405 1.063488 0.269532
v -0.450233 1.063420 0.268901
v -0.450043 1.107796 0.269178
v -0.450033 1.107156 0.268346
v -0.463204 1.107224 0.268977
v -0.451170 1.063544 0.328057
v -0.451181 1.064185 0.328889
v -0.464326 1.064232 0.327840
v -0.450964 1.108540 0.327486
v -0.464125 1.107968 0.327285
v -0.450980 1.107921 0.328334
v -0.385623 1.066447 -0.324890
v -0.385574 1.067232 -0.334118
v -0.384792 1.067089 -0.324874
v -0.386213 1.110961 -0.333389
v -0.386280 1.111436 -0.324140
v -0.385431 1.110818 -0.324145
v -0.389660 1.055682 0.316527
v -0.388830 1.056324 0.316542
v -0.389728 1.056157 0.325776
v -0.390317 1.100671 0.317277
v -0.390366 1.099886 0.326505
v -0.389468 1.100053 0.317272
v -0.443935 1.065601 -0.325272
v -0.444785 1.066219 -0.325267
v -0.443887 1.066386 -0.334500
v -0.444593 1.110590 -0.324521
v -0.444525 1.110115 -0.333770
v -0.445423 1.109948 -0.324537
v -0.447973 1.054836 0.316145
v -0.448040 1.055311 0.325394
v -0.448822 1.055454 0.316150
v -0.448630 1.099825 0.316896
v -0.449461 1.099183 0.316880
v -0.448679 1.099040 0.326124
v 0.402551 1.096863 -0.299604
v 0.398450 1.089805 -0.297266
v 0.398920 1.089889 -0.296399
v 0.156812 0.585351 -0.117639
v 0.153951 0.577877 -0.114802
v 0.157281 0.585435 -0.116771
v 0.445599 1.082408 -0.282288
v 0.441968 1.075435 -0.279083
v 0.442739 1.074934 -0.279451
v 0.197000 0.563422 -0.097486
v 0.201100 0.570480 -0.099823
v 0.200330 0.570980 -0.099455
v 0.413000 1.076578 -0.342514
v 0.409671 1.069020 -0.340545
v 0.408900 1.069520 -0.340177
v 0.164401 0.557592 -0.157712
v 0.167261 0.565066 -0.160549
v 0.168032 0.564565 -0.160917
v 0.456049 1.062123 -0.325198
v 0.453189 1.054649 -0.322361
v 0.452719 1.054565 -0.323229
v 0.207449 0.543137 -0.140396
v 0.211080 0.550111 -0.143601
v 0.211550 0.550195 -0.142734
v 0.450591 1.081623 0.273504
v 0.447563 1.074133 0.270892
v 0.446791 1.074637 0.270531
v 0.194911 0.569550 0.107514
v 0.190660 0.562504 0.105420
v 0.194139 0.570054 0.107153
v 0.408163 1.097038 0.291508
v 0.404363 1.090052 0.288535
v 0.403913 1.089992 0.289414
v 0.148232 0.577919 0.123425
v 0.151260 0.585409 0.126037
v 0.151710 0.585469 0.125158
v 0.461768 1.062081 0.316575
v 0.458290 1.054531 0.314842
v 0.458740 1.054591 0.313963
v 0.201837 0.542962 0.148492
v 0.206088 0.550008 0.150586
v 0.205637 0.549948 0.151465
v 0.419340 1.077496 0.334580
v 0.415089 1.070450 0.332486
v 0.415862 1.069947 0.332847
v 0.159409 0.558377 0.166496
v 0.163209 0.565363 0.169469
v 0.162437 0.565867 0.169108
v -0.417796 1.077098 -0.336978
v -0.413572 1.070062 -0.334801
v -0.414338 1.069556 -0.335173
v -0.162984 0.566146 -0.166265
v -0.159989 0.558666 -0.163587
v -0.163750 0.565641 -0.166637
v -0.460486 1.061678 -0.319608
v -0.457028 1.054137 -0.317803
v -0.457492 1.054198 -0.316931
v -0.202680 0.543246 -0.146217
v -0.206904 0.550282 -0.148395
v -0.206440 0.550221 -0.149267
v -0.407320 1.096754 -0.293783
v -0.403560 1.089779 -0.290733
v -0.403096 1.089718 -0.291605
v -0.149514 0.578322 -0.120392
v -0.152508 0.585802 -0.123069
v -0.152972 0.585863 -0.122197
v -0.450011 1.081334 -0.276413
v -0.447016 1.073854 -0.273735
v -0.446251 1.074359 -0.273363
v -0.192204 0.562902 -0.103022
v -0.195663 0.570444 -0.104827
v -0.196428 0.569938 -0.105199
v -0.455240 1.064534 0.320682
v -0.452405 1.056999 0.317984
v -0.451936 1.056930 0.318853
v -0.212465 0.548501 0.147726
v -0.208388 0.541388 0.145520
v -0.211996 0.548431 0.148595
v -0.412148 1.079153 0.337750
v -0.408844 1.071549 0.335921
v -0.408072 1.072039 0.335544
v -0.165296 0.556006 0.162587
v -0.168131 0.563541 0.165286
v -0.168904 0.563050 0.165663
v -0.444704 1.083994 0.277413
v -0.441096 1.076950 0.274337
v -0.441869 1.076459 0.274715
v -0.197852 0.560847 0.102250
v -0.201929 0.567961 0.104456
v -0.201156 0.568452 0.104079
v -0.401612 1.098612 0.294480
v -0.397535 1.091499 0.292274
v -0.398004 1.091569 0.291405
v -0.154760 0.575466 0.119318
v -0.158064 0.583070 0.121147
v -0.157595 0.583001 0.122016
v 0.215467 0.468448 -0.171462
v 0.215416 0.469841 -0.176224
v 0.221649 0.469743 -0.171561
v 0.217076 0.567027 -0.176394
v 0.217175 0.568434 -0.171637
v 0.223309 0.566928 -0.171732
v 0.220658 0.468939 0.158977
v 0.226840 0.470233 0.158877
v 0.220757 0.470345 0.163733
v 0.222366 0.568924 0.158801
v 0.222417 0.567531 0.163563
v 0.228501 0.567419 0.158707
v -0.212098 0.475765 -0.164756
v -0.218233 0.477271 -0.164662
v -0.212149 0.477158 -0.169518
v -0.210390 0.575751 -0.164931
v -0.210489 0.574344 -0.169688
v -0.216572 0.574456 -0.164832
v -0.206907 0.476256 0.165683
v -0.206808 0.477663 0.170440
v -0.213041 0.477761 0.165777
v -0.205198 0.576241 0.165508
v -0.211381 0.574947 0.165607
v -0.205148 0.574848 0.170270
v 0.313935 0.033921 -0.248276
v 0.312295 0.042184 -0.248135
v 0.313433 0.042240 -0.247035
v 0.201160 0.604597 -0.161449
v 0.199599 0.612535 -0.159093
v 0.202298 0.604652 -0.160349
v 0.316670 0.022611 -0.171392
v 0.316168 0.030930 -0.170150
v 0.315109 0.030549 -0.169036
v 0.202334 0.601225 -0.082209
v 0.203974 0.592961 -0.082350
v 0.205033 0.593343 -0.083464
v 0.237666 0.018775 -0.247791
v 0.234967 0.026657 -0.246535
v 0.236026 0.027038 -0.247650
v 0.123330 0.597389 -0.158608
v 0.124891 0.589451 -0.160964
v 0.123832 0.589070 -0.159850
v 0.240401 0.007465 -0.170907
v 0.238840 0.015403 -0.168551
v 0.237702 0.015347 -0.169651
v 0.126065 0.586079 -0.081724
v 0.126567 0.577760 -0.082965
v 0.127705 0.577816 -0.081865
v 0.338129 -0.002656 -0.282061
v 0.338053 -0.001514 -0.284148
v 0.340213 -0.001509 -0.282110
v 0.337060 0.076235 -0.283282
v 0.337107 0.077332 -0.281170
v 0.339221 0.076240 -0.281244
v 0.342424 -0.004224 -0.136333
v 0.344508 -0.003077 -0.136382
v 0.342471 -0.003127 -0.134222
v 0.341402 0.075764 -0.135442
v 0.341479 0.074622 -0.133356
v 0.343516 0.074672 -0.135516
v 0.192404 -0.004564 -0.277787
v 0.190291 -0.003472 -0.277713
v 0.192328 -0.003422 -0.279873
v 0.191383 0.075424 -0.276896
v 0.191335 0.074327 -0.279008
v 0.189298 0.074277 -0.276847
v 0.196699 -0.006133 -0.132059
v 0.196746 -0.005035 -0.129947
v 0.194586 -0.005040 -0.131985
v 0.195678 0.073856 -0.131168
v 0.193593 0.072709 -0.131119
v 0.195754 0.072713 -0.129081
v 0.311856 0.021004 0.169721
v 0.310400 0.028971 0.167398
v 0.311479 0.029332 0.168500
v 0.207763 0.593348 0.083030
v 0.206261 0.601638 0.082922
v 0.208842 0.593709 0.084132
v 0.310254 0.032213 0.246652
v 0.309878 0.040541 0.245431
v 0.308752 0.040503 0.246545
v 0.204660 0.612848 0.159854
v 0.206115 0.604880 0.162177
v 0.207240 0.604918 0.161063
v 0.235340 0.007152 0.170146
v 0.232760 0.015082 0.168937
v 0.233885 0.015120 0.167823
v 0.129746 0.587787 0.083348
v 0.131248 0.579497 0.083455
v 0.130122 0.579459 0.084569
v 0.233739 0.018361 0.247078
v 0.232237 0.026652 0.246970
v 0.231158 0.026291 0.245868
v 0.128144 0.598996 0.160279
v 0.128521 0.590668 0.161500
v 0.129600 0.591029 0.162602
v 0.344396 -0.008580 0.136106
v 0.344417 -0.007505 0.133983
v 0.346530 -0.007528 0.136070
v 0.346877 0.070199 0.132357
v 0.346927 0.071362 0.134433
v 0.348990 0.070176 0.134444
v 0.345394 -0.005562 0.281872
v 0.347529 -0.004509 0.281835
v 0.345444 -0.004399 0.283948
v 0.347925 0.074381 0.280199
v 0.347904 0.073305 0.282322
v 0.349988 0.073195 0.280209
v 0.198673 -0.003948 0.137008
v 0.196609 -0.002762 0.136998
v 0.198694 -0.002873 0.134885
v 0.201203 0.075994 0.135335
v 0.201154 0.074832 0.133259
v 0.199069 0.074942 0.135372
v 0.199671 -0.000930 0.282773
v 0.199720 0.000233 0.284849
v 0.197607 0.000256 0.282763
v 0.202201 0.079013 0.281101
v 0.200067 0.077960 0.281137
v 0.202180 0.077937 0.283224
v -0.232330 0.019487 -0.251188
v -0.230840 0.027776 -0.250949
v -0.229775 0.027401 -0.249838
v -0.129958 0.591057 -0.157615
v -0.128543 0.598994 -0.155165
v -0.128893 0.590682 -0.156504
v -0.234927 0.007235 -0.174443
v -0.232372 0.015150 -0.173093
v -0.233512 0.015172 -0.171993
v -0.131140 0.586742 -0.078420
v -0.132631 0.578453 -0.078659
v -0.131491 0.578431 -0.079759
v -0.308860 0.033258 -0.251580
v -0.308509 0.041569 -0.250241
v -0.307369 0.041547 -0.251341
v -0.205073 0.612765 -0.155557
v -0.206488 0.604828 -0.158007
v -0.207628 0.604850 -0.156907
v -0.311457 0.021006 -0.174835
v -0.310042 0.028943 -0.172385
v -0.311107 0.029318 -0.173496
v -0.207670 0.600513 -0.078812
v -0.210225 0.592599 -0.080162
v -0.209160 0.592224 -0.079051
v -0.200843 -0.006064 -0.279513
v -0.200803 -0.004927 -0.281603
v -0.198759 -0.004917 -0.279449
v -0.201832 0.072824 -0.281006
v -0.201901 0.073927 -0.278898
v -0.199787 0.072834 -0.278852
v -0.204631 -0.007235 -0.133767
v -0.202547 -0.006087 -0.133703
v -0.204701 -0.006132 -0.131659
v -0.205690 0.072756 -0.133152
v -0.205730 0.071619 -0.131061
v -0.203576 0.071663 -0.133105
v -0.346581 -0.007963 -0.283316
v -0.348695 -0.006871 -0.283362
v -0.346541 -0.006826 -0.285407
v -0.347639 0.072028 -0.282701
v -0.347570 0.070925 -0.284809
v -0.349724 0.070880 -0.282765
v -0.350369 -0.009134 -0.137570
v -0.350439 -0.008031 -0.135462
v -0.352483 -0.008041 -0.137616
v -0.351428 0.070857 -0.136955
v -0.353512 0.069709 -0.137018
v -0.351468 0.069720 -0.134864
v -0.231853 0.007010 0.170903
v -0.230515 0.014988 0.168548
v -0.229377 0.014965 0.169649
v -0.135248 0.580314 0.081919
v -0.133842 0.588621 0.081779
v -0.134110 0.580291 0.083020
v -0.229492 0.018393 0.247789
v -0.227015 0.026349 0.246535
v -0.228085 0.026700 0.247649
v -0.131480 0.600004 0.158665
v -0.132818 0.592026 0.161020
v -0.131748 0.591675 0.159906
v -0.308520 0.019996 0.171335
v -0.308252 0.028325 0.170094
v -0.307182 0.027974 0.168980
v -0.210508 0.601606 0.082211
v -0.211915 0.593300 0.082351
v -0.212985 0.593651 0.083465
v -0.306158 0.031379 0.248221
v -0.304752 0.039686 0.248081
v -0.305891 0.039709 0.246980
v -0.208147 0.612990 0.159097
v -0.210623 0.605035 0.160351
v -0.209485 0.605012 0.161452
v -0.187962 -0.002765 0.138840
v -0.187900 -0.001680 0.136723
v -0.185871 -0.001628 0.138891
v -0.188504 0.076067 0.135418
v -0.188583 0.077221 0.137498
v -0.186476 0.076119 0.137586
v -0.192815 -0.000358 0.284539
v -0.190725 0.000780 0.284590
v -0.192894 0.000797 0.286619
v -0.193437 0.079629 0.283197
v -0.193498 0.078544 0.285314
v -0.191329 0.078526 0.283285
v -0.333676 -0.003978 0.134006
v -0.335784 -0.002876 0.133917
v -0.333615 -0.002893 0.131888
v -0.334298 0.076008 0.132663
v -0.334219 0.074854 0.130583
v -0.336388 0.074871 0.132612
v -0.338530 -0.001571 0.279705
v -0.338609 -0.000416 0.281785
v -0.340638 -0.000469 0.279616
v -0.339152 0.078415 0.278363
v -0.341242 0.077278 0.278312
v -0.339213 0.077330 0.280480
v 0.257996 0.213211 -0.227427
v 0.258007 0.214064 -0.228254
v 0.265290 0.213929 -0.227444
v 0.258989 0.272368 -0.227354
v 0.259006 0.273195 -0.226501
v 0.266271 0.272233 -0.226544
v 0.258222 0.212306 -0.169115
v 0.265515 0.213024 -0.169132
v 0.258239 0.213133 -0.168262
v 0.259231 0.272291 -0.168188
v 0.259220 0.271438 -0.167361
v 0.266496 0.271329 -0.168231
v -0.247368 0.221684 -0.225344
v -0.254633 0.222646 -0.225301
v -0.247357 0.222537 -0.226171
v -0.246359 0.281668 -0.224418
v -0.246376 0.280841 -0.225270
v -0.253652 0.280950 -0.224400
v -0.247143 0.220779 -0.167031
v -0.247126 0.221606 -0.166179
v -0.254408 0.221741 -0.166988
v -0.246133 0.280764 -0.166105
v -0.253426 0.280046 -0.166088
v -0.246144 0.279911 -0.165278
v 0.289688 0.205270 -0.193042
v 0.289774 0.206101 -0.198642
v 0.290531 0.206107 -0.193030
v 0.289963 0.264421 -0.198728
v 0.289882 0.265270 -0.193129
v 0.290720 0.264427 -0.193116
v 0.283875 0.205858 0.195715
v 0.284718 0.206695 0.195726
v 0.283794 0.206706 0.201313
v 0.284069 0.265857 0.195627
v 0.283983 0.265026 0.201227
v 0.284907 0.265014 0.195641
v 0.231375 0.205458 -0.193914
v 0.230538 0.206300 -0.193928
v 0.231461 0.206289 -0.199514
v 0.231569 0.265457 -0.194002
v 0.231650 0.264609 -0.199600
v 0.230727 0.264620 -0.194013
v 0.225562 0.206045 0.194842
v 0.225481 0.206894 0.200440
v 0.224725 0.206888 0.194829
v 0.225756 0.266045 0.194755
v 0.224914 0.265208 0.194743
v 0.225670 0.265213 0.200355
v 0.251411 0.199616 0.163103
v 0.251418 0.200441 0.162248
v 0.258698 0.200384 0.163083
v 0.251992 0.258749 0.161215
v 0.252001 0.259604 0.162040
v 0.259272 0.258692 0.162049
v 0.251465 0.200649 0.221414
v 0.258753 0.201418 0.221394
v 0.251474 0.201504 0.222239
v 0.252056 0.260637 0.220351
v 0.252048 0.259812 0.221205
v 0.259327 0.259726 0.220360
v -0.254005 0.204597 0.163489
v -0.261276 0.205509 0.163480
v -0.253997 0.205422 0.162635
v -0.253414 0.264585 0.162426
v -0.253423 0.263730 0.161601
v -0.260702 0.263817 0.162447
v -0.253950 0.205630 0.221800
v -0.253941 0.206485 0.222625
v -0.261221 0.206542 0.221791
v -0.253360 0.265618 0.220737
v -0.260648 0.264850 0.220757
v -0.253367 0.264793 0.221592
v -0.217370 0.207216 -0.189962
v -0.217432 0.208079 -0.195558
v -0.216536 0.208062 -0.189967
v -0.217893 0.266397 -0.195310
v -0.217843 0.267213 -0.189707
v -0.216997 0.266380 -0.189719
v -0.213476 0.205596 0.198815
v -0.212642 0.206443 0.198811
v -0.213426 0.206413 0.204419
v -0.213949 0.265594 0.199070
v -0.213887 0.264730 0.204666
v -0.213103 0.264760 0.199058
v -0.275685 0.206753 -0.189380
v -0.276531 0.207586 -0.189368
v -0.275748 0.207616 -0.194976
v -0.276159 0.266750 -0.189125
v -0.276208 0.265934 -0.194728
v -0.276992 0.265904 -0.189120
v -0.271791 0.205133 0.199398
v -0.271741 0.205950 0.205001
v -0.272637 0.205966 0.199410
v -0.272265 0.265131 0.199652
v -0.273098 0.264284 0.199657
v -0.272202 0.264267 0.205248
vn 0.5863 0.6047 0.5390
vn -0.5990 0.5911 0.5402
vn -0.4482 -0.4868 0.7498
vn 0.4606 -0.4764 0.7489
vn 0.5905 0.1278 -0.7969
vn -0.5948 0.1142 -0.7957
vn -0.4450 -0.8525 -0.2745
vn 0.4638 -0.8421 -0.2753
vn 0.0058 -0.4281 0.9037
vn -0.5321 -0.7979 0.2832
vn 0.0099 -0.9036 -0.4282
vn 0.5508 -0.7855 0.2822
vn -0.6384 -0.5206 -0.5670
vn -0.0058 0.4281 -0.9037
vn 0.6491 -0.5058 -0.5682
vn 0.8347 0.5195 -0.1829
vn 0.6449 -0.0303 0.7637
vn -0.0099 0.9036 0.4282
vn -0.6426 -0.0450 0.7649
vn -0.8467 0.5003 -0.1813
vn 0.9150 -0.3791 0.1382
vn -0.0029 0.3362 0.9418
vn -0.0111 0.9417 -0.3363
vn -0.9058 -0.3999 0.1400
vn 0.0111 -0.9417 0.3363
vn 0.0029 -0.3362 -0.9418
vn 0.7793 0.1369 -0.6116
vn 0.7947 0.1133 0.5963
vn 0.2160 -0.8515 0.4778
vn 0.2033 -0.8321 -0.5161
vn -0.4210 0.6929 -0.5853
vn -0.4056 0.6693 0.6225
vn -0.7716 -0.3940 0.4994
vn -0.7843 -0.3746 -0.4945
vn 0.9388 0.3443 -0.0053
vn 0.2388 0.5533 -0.7980
vn -0.3442 0.9386 0.0227
vn 0.2595 0.5218 0.8126
vn -0.7387 0.1193 -0.6634
vn -0.9388 -0.3443 0.0053
vn -0.7214 0.0929 0.6863
vn -0.3311 -0.7424 0.5824
vn 0.5616 -0.5014 0.6582
vn 0.3441 -0.9386 -0.0227
vn 0.5443 -0.4750 -0.6915
vn -0.3463 -0.7192 -0.6023
vn 0.9072 -0.4202 -0.0198
vn 0.4205 0.9072 0.0123
vn -0.1375 -0.2515 -0.9580
vn -0.1130 -0.2888 0.9507
vn -0.4205 -0.9072 -0.0123
vn -0.9072 0.4202 0.0198
vn 0.5978 0.1224 0.7922
vn -0.5873 0.1443 0.7964
vn -0.4689 -0.8344 0.2897
vn 0.4398 -0.8512 0.2865
vn 0.6015 0.5784 -0.5510
vn -0.5836 0.6003 -0.5468
vn -0.4661 -0.4848 -0.7401
vn 0.4426 -0.5016 -0.7433
vn 0.6400 -0.0615 -0.7659
vn 0.8507 0.4971 0.1711
vn 0.6364 -0.5161 0.5733
vn 0.5257 -0.8060 -0.2722
vn 0.0113 0.4421 0.8969
vn -0.6509 -0.4923 0.5778
vn -0.0150 -0.8968 0.4423
vn -0.5570 -0.7859 -0.2683
vn -0.0113 -0.4421 -0.8969
vn -0.6473 -0.0377 -0.7613
vn 0.0150 0.8968 -0.4423
vn -0.8305 0.5282 0.1770
vn 0.9026 -0.4084 -0.1362
vn -0.0026 -0.3215 0.9469
vn 0.0186 0.9467 0.3215
vn -0.9180 -0.3748 -0.1297
vn -0.0186 -0.9467 -0.3215
vn 0.0026 0.3215 -0.9469
vn 0.4233 0.6756 -0.6037
vn 0.4060 0.6855 0.6044
vn 0.7700 -0.3816 0.5113
vn 0.7843 -0.3897 -0.4827
vn -0.7781 0.1215 -0.6163
vn -0.7954 0.1314 0.5917
vn -0.2185 -0.8375 0.5009
vn -0.2042 -0.8457 -0.4931
vn -0.5636 -0.4818 0.6710
vn 0.3288 -0.7266 0.6033
vn 0.7206 0.1105 0.6845
vn -0.2596 0.5447 0.7975
vn 0.9381 -0.3459 0.0163
vn 0.7399 0.0994 -0.6653
vn 0.3460 0.9382 -0.0027
vn -0.2365 0.5314 -0.8134
vn -0.9381 0.3459 -0.0163
vn -0.5442 -0.4929 -0.6789
vn -0.3460 -0.9382 0.0027
vn 0.3458 -0.7363 -0.5816
vn 0.9080 0.4188 0.0096
vn -0.4187 0.9080 -0.0135
vn 0.1384 -0.2783 -0.9505
vn 0.1110 -0.2626 0.9585
vn 0.4187 -0.9080 0.0135
vn -0.9080 -0.4188 -0.0096
vn 0.1125 -0.9767 -0.1825
vn 0.1498 0.9753 -0.1621
vn 0.1070 -0.9803 0.1661
vn 0.1444 0.9718 0.1864
vn -0.1444 -0.9718 -0.1865
vn -0.1070 0.9803 -0.1661
vn -0.1498 -0.9753 0.1621
vn -0.1125 0.9768 0.1825
vn 0.1114 -0.9937 -0.0083
vn 0.6055 -0.0033 -0.7958
vn 0.1494 0.9887 0.0123
vn 0.5805 -0.0196 0.8140
vn -0.0216 -0.9860 0.1655
vn 0.0161 0.9824 0.1860
vn -0.6055 0.0033 0.7958
vn -0.1494 -0.9887 -0.0123
vn -0.1114 0.9937 0.0083
vn -0.5805 0.0196 -0.8140
vn -0.0161 -0.9824 -0.1860
vn 0.0216 0.9860 -0.1655
vn -0.0191 -0.9998 -0.0104
vn 0.9997 -0.0193 0.0153
vn 0.0155 0.0101 -0.9998
vn 0.0191 0.9998 0.0104
vn -0.0155 -0.0101 0.9998
vn -0.9997 0.0193 -0.0153
vn 0.0391 -0.8026 -0.5953
vn 0.0391 0.7962 -0.6038
vn 0.0375 -0.7962 0.6038
vn 0.0374 0.8025 0.5954
vn -0.0374 -0.8025 -0.5954
vn -0.0375 0.7962 -0.6038
vn -0.0391 -0.7962 0.6038
vn -0.0391 0.8026 0.5953
vn 0.0479 -0.9988 0.0053
vn 0.0651 -0.0053 -0.9979
vn 0.0477 0.9988 -0.0052
vn 0.0623 0.0053 0.9980
vn -0.0008 -0.7968 0.6042
vn -0.0009 0.8031 0.5958
vn -0.0651 0.0053 0.9979
vn -0.0477 -0.9988 0.0052
vn -0.0479 0.9988 -0.0053
vn -0.0623 -0.0053 -0.9980
vn 0.0009 -0.8032 -0.5957
vn 0.0008 0.7968 -0.6042
vn 0.0001 -1.0000 0.0053
vn 1.0000 0.0001 0.0014
vn 0.0014 -0.0053 -1.0000
vn -0.0001 1.0000 -0.0053
vn -0.0014 0.0053 1.0000
vn -1.0000 -0.0001 -0.0014
vn 0.6081 -0.7930 -0.0385
vn 0.5907 0.8043 -0.0650
vn 0.6076 -0.7911 0.0705
vn 0.5902 0.8061 0.0439
vn -0.5902 -0.8061 -0.0440
vn -0.6076 0.7911 -0.0705
vn -0.5905 -0.8044 0.0650
vn -0.6082 0.7929 0.0384
vn 0.6089 -0.7931 0.0160
vn 0.9963 0.0094 -0.0859
vn 0.5913 0.8064 -0.0105
vn 0.9954 0.0124 0.0951
vn 0.0105 -0.9964 0.0846
vn -0.0112 0.9986 0.0515
vn -0.9963 -0.0094 0.0859
vn -0.5913 -0.8064 0.0105
vn -0.6086 0.7933 -0.0160
vn -0.9954 -0.0124 -0.0951
vn 0.0112 -0.9986 -0.0515
vn -0.0105 0.9964 -0.0846
vn 0.0109 -0.9998 0.0166
vn 0.9999 0.0110 0.0046
vn 0.0048 -0.0165 -0.9999
vn -0.0109 0.9998 -0.0166
vn -0.0048 0.0165 0.9999
vn -0.9999 -0.0110 -0.0046
vn 0.0441 -0.8071 -0.5887
vn 0.0514 0.7915 -0.6090
vn 0.0251 -0.7918 0.6103
vn 0.0325 0.8068 0.5899
vn -0.0325 -0.8068 -0.5899
vn -0.0251 0.7919 -0.6102
vn -0.0514 -0.7915 0.6090
vn -0.0441 0.8072 0.5886
vn 0.0432 -0.9990 0.0134
vn 0.0795 -0.0130 -0.9968
vn 0.0524 0.9986 -0.0119
vn 0.0479 0.0125 0.9988
vn -0.0131 -0.7922 0.6101
vn -0.0058 0.8076 0.5897
vn -0.0795 0.0130 0.9968
vn -0.0524 -0.9986 0.0119
vn -0.0432 0.9990 -0.0134
vn -0.0479 -0.0125 -0.9988
vn 0.0058 -0.8076 -0.5898
vn 0.0131 0.7923 -0.6101
vn -0.0046 -0.9999 0.0127
vn 0.9999 -0.0044 0.0158
vn 0.0158 -0.0128 -0.9998
vn 0.0046 0.9999 -0.0127
vn -0.0158 0.0128 0.9998
vn -0.9999 0.0044 -0.0158
vn 0.6111 -0.7890 -0.0639
vn 0.5878 0.8081 -0.0372
vn 0.6106 -0.7907 0.0450
vn 0.5870 0.8064 0.0717
vn -0.5869 -0.8065 -0.0717
vn -0.6102 0.7909 -0.0450
vn -0.5876 -0.8083 0.0372
vn -0.6109 0.7892 0.0639
vn 0.6115 -0.7912 -0.0094
vn 0.9963 0.0160 -0.0840
vn 0.5879 0.8087 0.0173
vn 0.9952 0.0129 0.0970
vn 0.0141 -0.9986 0.0514
vn -0.0150 0.9963 0.0847
vn -0.9963 -0.0160 0.0840
vn -0.5885 -0.8083 -0.0173
vn -0.6115 0.7912 0.0094
vn -0.9952 -0.0129 -0.0970
vn 0.0150 -0.9963 -0.0847
vn -0.0141 0.9986 -0.0514
vn 0.0146 -0.9998 -0.0167
vn 0.9999 0.0145 0.0065
vn 0.0063 0.0168 -0.9998
vn -0.0146 0.9998 0.0167
vn -0.0063 -0.0168 0.9998
vn -0.9999 -0.0145 -0.0065
vn -0.7530 0.5547 0.3539
vn -0.8011 0.4545 0.3896
vn 0.4975 0.1348 0.8569
vn 0.4495 0.0345 0.8926
vn -0.4496 -0.0345 -0.8926
vn -0.4975 -0.1348 -0.8569
vn 0.8011 -0.4544 -0.3896
vn 0.7530 -0.5547 -0.3539
vn -0.1804 0.4868 0.8547
vn -0.7783 0.5055 0.3724
vn -0.2482 0.3452 0.9051
vn 0.4743 0.0848 0.8763
vn 0.9167 -0.2256 0.3299
vn 0.8488 -0.3672 0.3803
vn 0.7784 -0.5054 -0.3723
vn 0.2482 -0.3452 -0.9051
vn 0.1804 -0.4868 -0.8547
vn -0.4743 -0.0848 -0.8763
vn -0.8488 0.3672 -0.3803
vn -0.9167 0.2256 -0.3299
vn 0.4113 0.8587 -0.3058
vn -0.2150 0.4174 0.8829
vn -0.8858 0.2974 -0.3563
vn -0.4113 -0.8587 0.3058
vn 0.8858 -0.2974 0.3563
vn 0.2150 -0.4174 -0.8829
vn 0.4790 0.1101 -0.8709
vn 0.4288 0.0098 -0.9033
vn -0.7535 0.5579 -0.3478
vn -0.8037 0.4576 -0.3803
vn 0.8037 -0.4576 0.3803
vn 0.7535 -0.5579 0.3478
vn -0.4288 -0.0098 0.9033
vn -0.4790 -0.1101 0.8709
vn -0.1937 0.4716 -0.8603
vn 0.4547 0.0601 -0.8886
vn -0.2646 0.3299 -0.9062
vn -0.7799 0.5086 -0.3647
vn -0.8346 0.3869 0.3921
vn -0.9055 0.2453 0.3463
vn -0.4547 -0.0601 0.8886
vn 0.2646 -0.3299 0.9062
vn 0.1937 -0.4715 0.8603
vn 0.7799 -0.5086 0.3647
vn 0.9055 -0.2453 -0.3463
vn 0.8346 -0.3869 -0.3921
vn 0.4301 0.8589 0.2781
vn -0.2300 0.4021 -0.8862
vn 0.8730 -0.3172 -0.3705
vn -0.4301 -0.8589 -0.2781
vn -0.8730 0.3172 0.3705
vn 0.2300 -0.4021 0.8862
vn 0.4430 -0.0114 -0.8964
vn 0.4928 -0.1116 -0.8629
vn -0.7972 -0.4594 -0.3918
vn -0.7473 -0.5596 -0.3584
vn 0.7473 0.5596 0.3583
vn 0.7971 0.4594 0.3919
vn -0.4928 0.1116 0.8630
vn -0.4430 0.0114 0.8964
vn -0.2500 -0.3324 -0.9094
vn 0.4687 -0.0617 -0.8812
vn -0.1796 -0.4738 -0.8621
vn -0.7735 -0.5103 -0.3758
vn -0.9106 -0.2455 0.3325
vn -0.8402 -0.3869 0.3798
vn -0.4688 0.0616 0.8812
vn 0.1796 0.4738 0.8621
vn 0.2500 0.3324 0.9094
vn 0.7735 0.5103 0.3758
vn 0.8403 0.3869 -0.3798
vn 0.9106 0.2455 -0.3325
vn -0.4265 0.8578 -0.2869
vn -0.2155 -0.4044 -0.8888
vn 0.8784 0.3173 -0.3574
vn 0.4265 -0.8578 0.2869
vn -0.8784 -0.3173 0.3574
vn 0.2155 0.4044 0.8888
vn -0.8028 -0.4444 0.3975
vn -0.7551 -0.5455 0.3637
vn 0.4490 -0.0198 0.8933
vn 0.4967 -0.1208 0.8595
vn -0.4968 0.1209 -0.8594
vn -0.4490 0.0198 -0.8933
vn 0.7552 0.5455 -0.3636
vn 0.8028 0.4444 -0.3975
vn -0.2497 -0.3277 0.9112
vn -0.7803 -0.4958 0.3813
vn -0.1824 -0.4704 0.8634
vn 0.4737 -0.0704 0.8779
vn 0.8500 0.3711 0.3739
vn 0.9173 0.2284 0.3261
vn 0.7803 0.4958 -0.3812
vn 0.1824 0.4704 -0.8634
vn 0.2497 0.3277 -0.9112
vn -0.4737 0.0704 -0.8779
vn -0.9173 -0.2284 -0.3261
vn -0.8500 -0.3711 -0.3739
vn -0.4084 0.8656 0.2898
vn -0.2168 -0.4004 0.8903
vn -0.8867 -0.3008 -0.3512
vn 0.4084 -0.8656 -0.2898
vn 0.8867 0.3008 0.3512
vn 0.2168 0.4004 -0.8903
vn 0.1926 -0.9413 -0.2774
vn 0.2246 0.9332 -0.2806
vn 0.2013 -0.9404 0.2740
vn 0.2333 0.9340 0.2707
vn -0.2333 -0.9340 -0.2707
vn -0.2013 0.9404 -0.2740
vn -0.2246 -0.9332 0.2806
vn -0.1926 0.9413 0.2774
vn 0.2049 -0.9788 -0.0018
vn 0.5989 -0.0116 -0.8008
vn 0.2382 0.9712 -0.0052
vn 0.6237 -0.0093 0.7816
vn -0.0120 -0.9588 0.2838
vn 0.0208 0.9596 0.2805
vn -0.5989 0.0116 0.8008
vn -0.2382 -0.9712 0.0052
vn -0.2049 0.9788 0.0018
vn -0.6237 0.0093 -0.7816
vn -0.0208 -0.9596 -0.2804
vn 0.0120 0.9588 -0.2838
vn -0.0171 -0.9999 0.0018
vn 0.9997 -0.0171 -0.0157
vn -0.0157 -0.0015 -0.9999
vn 0.0171 0.9999 -0.0018
vn 0.0157 0.0015 0.9999
vn -0.9997 0.0171 0.0157
vn 0.6838 0.1479 -0.7145
vn 0.6476 0.3311 -0.6863
vn 0.7333 -0.0568 0.6775
vn 0.6971 0.1263 0.7057
vn -0.6971 -0.1263 -0.7058
vn -0.7333 0.0568 -0.6775
vn -0.6476 -0.3311 0.6863
vn -0.6838 -0.1479 0.7145
vn 0.9976 0.0641 -0.0261
vn 0.6687 0.2406 -0.7036
vn 0.9466 0.3220 0.0137
vn 0.7184 0.0349 0.6947
vn 0.0603 -0.2731 0.9601
vn 0.0094 -0.0152 0.9998
vn -0.6687 -0.2406 0.7036
vn -0.9466 -0.3220 -0.0137
vn -0.9976 -0.0641 0.0261
vn -0.7184 -0.0349 -0.6947
vn -0.0094 0.0152 -0.9998
vn -0.0603 0.2731 -0.9601
vn 0.1917 -0.9700 -0.1495
vn 0.9808 0.1948 -0.0062
vn -0.0352 0.1454 -0.9887
vn -0.1917 0.9700 0.1495
vn 0.0352 -0.1454 0.9887
vn -0.9808 -0.1948 0.0062
vn 0.4232 -0.7881 -0.4469
vn 0.4028 0.8084 -0.4292
vn 0.4483 -0.7973 0.4042
vn 0.4279 0.7992 0.4220
vn -0.4279 -0.7993 -0.4220
vn -0.4483 0.7973 -0.4042
vn -0.4028 -0.8084 0.4292
vn -0.4232 0.7881 0.4469
vn 0.4816 -0.8761 -0.0236
vn 0.6859 0.0169 -0.7275
vn 0.4591 0.8884 -0.0040
vn 0.7276 0.0016 0.6860
vn 0.0251 -0.8873 0.4605
vn 0.0026 0.8772 0.4802
vn -0.6859 -0.0169 0.7275
vn -0.4591 -0.8884 0.0040
vn -0.4816 0.8761 0.0236
vn -0.7276 -0.0016 -0.6860
vn -0.0026 -0.8772 -0.4802
vn -0.0251 0.8873 -0.4605
vn 0.0128 -0.9999 -0.0111
vn 0.9995 0.0131 -0.0293
vn -0.0295 0.0108 -0.9995
vn -0.0128 0.9999 0.0111
vn 0.0295 -0.0108 0.9995
vn -0.9995 -0.0131 0.0293
vn 0.7239 -0.0680 -0.6866
vn 0.6905 0.1158 -0.7140
vn 0.6949 0.1350 0.7063
vn 0.6615 0.3188 0.6789
vn -0.6615 -0.3188 -0.6789
vn -0.6949 -0.1350 -0.7063
vn -0.6905 -0.1158 0.7140
vn -0.7239 0.0680 0.6865
vn 0.9988 0.0472 0.0139
vn 0.7104 0.0240 -0.7034
vn 0.9517 0.3059 -0.0248
vn 0.6812 0.2279 0.6957
vn 0.0031 0.0135 0.9999
vn -0.0439 0.2723 0.9612
vn -0.7104 -0.0240 0.7034
vn -0.9517 -0.3059 0.0248
vn -0.9988 -0.0472 -0.0139
vn -0.6812 -0.2279 -0.6957
vn 0.0439 -0.2723 -0.9612
vn -0.0031 -0.0135 -0.9999
vn 0.1770 -0.9734 0.1455
vn 0.9840 0.1781 -0.0055
vn 0.0206 -0.1441 -0.9893
vn -0.1770 0.9734 -0.1455
vn -0.0206 0.1442 0.9893
vn -0.9840 -0.1781 0.0055
vn 0.3974 -0.8201 -0.4116
vn 0.4479 0.7755 -0.4450
vn 0.4032 -0.8025 0.4398
vn 0.4538 0.7931 0.4064
vn -0.4537 -0.7931 -0.4064
vn -0.4032 0.8025 -0.4398
vn -0.4479 -0.7755 0.4450
vn -0.3974 0.8201 0.4116
vn 0.4424 -0.8967 0.0155
vn 0.7019 -0.0371 -0.7113
vn 0.4983 0.8668 -0.0214
vn 0.7116 -0.0078 0.7026
vn -0.0247 -0.8720 0.4889
vn 0.0311 0.8915 0.4520
vn -0.7019 0.0371 0.7113
vn -0.4982 -0.8668 0.0214
vn -0.4424 0.8967 -0.0155
vn -0.7116 0.0078 -0.7026
vn -0.0311 -0.8915 -0.4520
vn 0.0247 0.8720 -0.4889
vn -0.0316 -0.9993 0.0209
vn 0.9995 -0.0318 -0.0062
vn -0.0068 -0.0207 -0.9998
vn 0.0316 0.9993 -0.0209
vn 0.0068 0.0207 0.9998
vn -0.9995 0.0318 0.0062
vn 0.6999 -0.1055 -0.7064
vn 0.7327 0.0780 -0.6760
vn 0.6529 -0.3273 0.6831
vn 0.6857 -0.1439 0.7135
vn -0.6857 0.1439 -0.7135
vn -0.6529 0.3273 -0.6831
vn -0.7328 -0.0780 0.6760
vn -0.6999 0.1055 0.7064
vn 0.9523 -0.3047 -0.0164
vn 0.7196 -0.0138 -0.6943
vn 0.9986 -0.0464 0.0264
vn 0.6723 -0.2366 0.7014
vn -0.0562 -0.2853 0.9568
vn -0.0100 -0.0270 0.9996
vn -0.7195 0.0138 0.6943
vn -0.9986 0.0464 -0.0264
vn -0.9523 0.3047 0.0164
vn -0.6723 0.2366 -0.7014
vn 0.0100 0.0270 -0.9996
vn 0.0562 0.2853 -0.9568
vn -0.1740 -0.9715 -0.1610
vn 0.9842 -0.1771 0.0050
vn 0.0334 0.1576 -0.9869
vn 0.1740 0.9715 0.1610
vn -0.0334 -0.1576 0.9869
vn -0.9842 0.1771 -0.0050
vn 0.4473 -0.7893 -0.4207
vn 0.4261 0.8072 -0.4084
vn 0.4251 -0.7962 0.4306
vn 0.4040 0.8004 0.4429
vn -0.4040 -0.8004 -0.4429
vn -0.4251 0.7962 -0.4306
vn -0.4261 -0.8073 0.4084
vn -0.4472 0.7893 0.4207
vn 0.4820 -0.8761 0.0055
vn 0.7252 0.0149 -0.6884
vn 0.4587 0.8884 0.0191
vn 0.6884 0.0035 0.7253
vn -0.0006 -0.8860 0.4636
vn -0.0239 0.8785 0.4772
vn -0.7252 -0.0149 0.6884
vn -0.4587 -0.8884 -0.0191
vn -0.4821 0.8761 -0.0055
vn -0.6884 -0.0035 -0.7253
vn 0.0239 -0.8785 -0.4772
vn 0.0006 0.8860 -0.4636
vn 0.0132 -0.9999 -0.0077
vn 0.9996 0.0130 0.0261
vn 0.0260 0.0080 -0.9996
vn -0.0132 0.9999 0.0077
vn -0.0260 -0.0080 0.9996
vn -0.9996 -0.0130 -0.0261
vn 0.6572 -0.3127 -0.6858
vn 0.6882 -0.1286 -0.7141
vn 0.6999 -0.1066 0.7062
vn 0.7309 0.0776 0.6780
vn -0.7309 -0.0776 -0.6780
vn -0.6999 0.1066 -0.7062
vn -0.6882 0.1286 0.7141
vn -0.6572 0.3127 0.6858
vn 0.9554 -0.2951 0.0144
vn 0.6757 -0.2216 -0.7031
vn 0.9990 -0.0359 -0.0254
vn 0.7186 -0.0146 0.6952
vn 0.0083 0.0155 0.9998
vn 0.0519 0.2747 0.9601
vn -0.6757 0.2216 0.7031
vn -0.9990 0.0359 0.0254
vn -0.9554 0.2951 -0.0144
vn -0.7187 0.0146 -0.6952
vn -0.0519 -0.2747 -0.9601
vn -0.0083 -0.0155 -0.9998
vn -0.1643 -0.9750 0.1494
vn 0.9859 -0.1670 -0.0056
vn -0.0304 -0.1464 -0.9888
vn 0.1643 0.9750 -0.1494
vn 0.0304 0.1464 0.9888
vn -0.9859 0.1670 0.0056
vn 0.4459 -0.8017 -0.3980
vn 0.4335 0.7947 -0.4248
vn 0.4176 -0.7877 0.4530
vn 0.4052 0.8088 0.4262
vn -0.4052 -0.8088 -0.4262
vn -0.4176 0.7877 -0.4530
vn -0.4335 -0.7947 0.4248
vn -0.4459 0.8017 0.3980
vn 0.4772 -0.8783 0.0304
vn 0.7302 -0.0058 -0.6832
vn 0.4635 0.8861 0.0008
vn 0.6831 0.0176 0.7301
vn -0.0088 -0.8744 0.4851
vn -0.0225 0.8900 0.4555
vn -0.7302 0.0058 0.6832
vn -0.4635 -0.8861 -0.0008
vn -0.4772 0.8783 -0.0304
vn -0.6832 -0.0176 -0.7301
vn 0.0225 -0.8900 -0.4555
vn 0.0088 0.8744 -0.4851
vn 0.0078 -0.9998 0.0168
vn 0.9994 0.0083 0.0332
vn 0.0333 -0.0165 -0.9993
vn -0.0078 0.9998 -0.0168
vn -0.0333 0.0165 0.9993
vn -0.9994 -0.0083 -0.0332
vn 0.0667 -0.6951 -0.7159
vn 0.0904 0.7142 -0.6941
vn 0.0722 -0.7169 0.6935
vn 0.0959 0.6923 0.7152
vn -0.0959 -0.6923 -0.7152
vn -0.0722 0.7169 -0.6935
vn -0.0904 -0.7141 0.6941
vn -0.0667 0.6950 0.7159
vn 0.0979 -0.9951 -0.0158
vn 0.1108 0.0135 -0.9938
vn 0.1313 0.9912 0.0149
vn 0.1184 -0.0173 0.9928
vn -0.0092 -0.7179 0.6961
vn 0.0146 0.6960 0.7179
vn -0.1108 -0.0135 0.9938
vn -0.1313 -0.9912 -0.0149
vn -0.0979 0.9951 0.0158
vn -0.1184 0.0173 -0.9928
vn -0.0146 -0.6960 -0.7179
vn 0.0092 0.7179 -0.6961
vn -0.0168 -0.9997 -0.0154
vn 0.9999 -0.0168 -0.0041
vn -0.0039 0.0155 -0.9999
vn 0.0168 0.9997 0.0154
vn 0.0039 -0.0155 0.9999
vn -0.9999 0.0168 0.0041
vn 0.7024 -0.7056 -0.0939
vn 0.7070 0.7007 -0.0960
vn 0.6992 -0.7053 0.1170
vn 0.7038 0.7010 0.1149
vn -0.7038 -0.7010 -0.1150
vn -0.6992 0.7053 -0.1170
vn -0.7069 -0.7008 0.0960
vn -0.7024 0.7056 0.0939
vn 0.7047 -0.7094 0.0116
vn 0.9910 -0.0034 -0.1335
vn 0.7094 0.7048 0.0095
vn 0.9866 -0.0030 0.1631
vn -0.0054 -0.9887 0.1498
vn 0.0010 0.9892 0.1469
vn -0.9910 0.0034 0.1335
vn -0.7094 -0.7048 -0.0095
vn -0.7047 0.7094 -0.0116
vn -0.9866 0.0030 -0.1631
vn -0.0010 -0.9892 -0.1469
vn 0.0054 0.9887 -0.1498
vn -0.0032 -1.0000 0.0015
vn 0.9999 -0.0032 0.0150
vn 0.0150 -0.0015 -0.9999
vn 0.0032 1.0000 -0.0015
vn -0.0150 0.0015 0.9999
vn -0.9999 0.0032 -0.0150
vn 0.0737 -0.7179 -0.6923
vn 0.0876 0.6913 -0.7172
vn 0.0750 -0.6929 0.7171
vn 0.0889 0.7163 0.6921
vn -0.0889 -0.7163 -0.6921
vn -0.0750 0.6929 -0.7171
vn -0.0876 -0.6914 0.7172
vn -0.0737 0.7179 0.6922
vn 0.1049 -0.9943 0.0175
vn 0.1137 -0.0187 -0.9933
vn 0.1244 0.9921 -0.0177
vn 0.1156 0.0165 0.9932
vn -0.0063 -0.6945 0.7195
vn 0.0076 0.7195 0.6945
vn -0.1137 0.0187 0.9933
vn -0.1244 -0.9921 0.0177
vn -0.1049 0.9943 -0.0175
vn -0.1156 -0.0165 -0.9932
vn -0.0076 -0.7194 -0.6945
vn 0.0063 0.6944 -0.7195
vn -0.0098 -0.9998 0.0177
vn 1.0000 -0.0099 -0.0008
vn -0.0009 -0.0177 -0.9998
vn 0.0098 0.9998 -0.0177
vn 0.0009 0.0177 0.9998
vn -1.0000 0.0099 0.0008
vn 0.7076 -0.6971 -0.1155
vn 0.6965 0.7092 -0.1095
vn 0.7098 -0.6979 0.0955
vn 0.6986 0.7083 0.1014
vn -0.6986 -0.7083 -0.1014
vn -0.7097 0.6980 -0.0955
vn -0.6965 -0.7092 0.1095
vn -0.7076 0.6971 0.1155
vn 0.7127 -0.7014 -0.0101
vn 0.9874 0.0085 -0.1582
vn 0.7014 0.7127 -0.0041
vn 0.9903 0.0072 0.1385
vn 0.0093 -0.9895 0.1441
vn -0.0063 0.9883 0.1525
vn -0.9874 -0.0085 0.1582
vn -0.7014 -0.7127 0.0041
vn -0.7126 0.7015 0.0101
vn -0.9903 -0.0072 -0.1385
vn 0.0063 -0.9883 -0.1525
vn -0.0093 0.9895 -0.1441
vn 0.0079 -1.0000 -0.0042
vn 0.9999 0.0079 -0.0100
vn -0.0100 0.0042 -0.9999
vn -0.0079 1.0000 0.0042
vn 0.0100 -0.0042 0.9999
vn -0.9999 -0.0079 0.0100
vn -0.3441 0.9386 0.0227
vn -0.6510 -0.4923 0.5778
vn 0.0478 0.9988 -0.0052
vn -0.0009 0.8032 0.5958
vn -0.0478 -0.9988 0.0052
vn 0.0009 -0.8032 -0.5958
vn 0.6084 -0.7935 0.0160
vn 0.9963 0.0094 -0.0860
vn 0.5914 0.8063 -0.0105
vn -0.9963 -0.0094 0.0860
vn -0.5912 -0.8065 0.0105
vn -0.6087 0.7932 -0.0160
vn 0.0433 -0.9990 0.0134
vn 0.0131 0.7923 -0.6099
vn 0.5886 0.8083 0.0173
vn -0.5883 -0.8085 -0.0173
vn -0.6116 0.7911 0.0094
vn -0.7784 0.5055 0.3724
vn 0.4743 0.0849 0.8763
vn 0.7784 -0.5055 -0.3723
vn -0.1937 0.4715 -0.8603
vn 0.4547 0.0600 -0.8886
vn -0.7800 0.5086 -0.3647
vn -0.4547 -0.0600 0.8886
vn 0.2647 -0.3299 0.9061
vn -0.2500 -0.3323 -0.9094
vn -0.7735 -0.5103 -0.3757
vn -0.4687 0.0616 0.8812
vn 0.1797 0.4738 0.8621
vn 0.8402 0.3869 -0.3798
vn -0.7803 -0.4958 0.3812
vn 0.4737 -0.0705 0.8779
vn -0.0208 -0.9596 -0.2805
vn -0.7103 -0.0240 0.7034
vn 0.0206 -0.1442 -0.9893
vn 0.7195 -0.0138 -0.6943
vn 0.4821 -0.8761 0.0055
vn -0.7186 0.0146 -0.6952
vn -0.6831 -0.0176 -0.7301
vn -0.0146 -0.6959 -0.7179
vn 0.7093 0.7048 0.0095
vn -0.7093 -0.7048 -0.0095
vn 0.1048 -0.9943 0.0175
vn -0.0063 -0.6944 0.7195
vn -0.1048 0.9943 -0.0175
vn -0.0076 -0.7195 -0.6944
vn 0.7126 -0.7015 -0.0101
vn 0.7015 0.7127 -0.0041
vn -0.7127 0.7014 0.0101
vt 0.000000 0.000000
vt 0.128500 0.746500
vt 0.128500 0.750000
vt 0.125000 0.746500
vt 0.621500 0.996500
vt 0.625000 0.996500
vt 0.621500 1.000000
vt 0.128500 0.503500
vt 0.125000 0.503500
vt 0.128500 0.500000
vt 0.625000 0.250015
vt 0.621500 0.253500
vt 0.621500 0.246501
vt 0.371500 0.746500
vt 0.378499 0.746500
vt 0.378362 0.753431
vt 0.628431 0.746638
vt 0.621500 0.753500
vt 0.621500 0.746501
vt 0.371500 0.503500
vt 0.378362 0.496569
vt 0.378499 0.503500
vt 0.628431 0.503363
vt 0.621500 0.503500
vt 0.621500 0.496501
vt 0.378500 0.000000
vt 0.621500 0.003500
vt 0.378500 0.003500
vt 0.625000 0.003500
vt 0.378500 0.253500
vt 0.378500 0.246500
vt 0.378500 0.996500
vt 0.871500 0.746500
vt 0.621500 0.496501
vt 0.621500 0.000000
vt 0.621500 0.246501
vt 0.378499 0.746500
vt 0.378362 0.496569
vt 0.871500 0.503500
vt 0.128500 0.746500
s 0
usemtl wood
f 1/1/1 2/1/1 3/1/1
f 4/1/2 5/1/2 6/1/2
f 7/1/3 8/1/3 9/1/3
f 10/1/4 11/1/4 12/1/4
f 13/1/5 14/1/5 15/1/5
f 16/1/6 17/1/6 18/1/6
f 19/1/7 20/1/7 21/1/7
f 22/1/8 23/1/8 24/1/8
f 10/1/9 9/1/9 11/1/9
f 19/1/10 9/1/10 8/1/10
f 20/1/11 24/1/11 21/1/11
f 23/1/12 11/1/12 24/1/12
f 19/1/13 18/1/13 20/1/13
f 13/1/14 18/1/14 17/1/14
f 23/1/15 15/1/15 14/1/15
f 13/1/16 3/1/16 14/1/16
f 2/1/17 12/1/17 3/1/17
f 1/1/18 6/1/18 2/1/18
f 8/1/19 6/1/19 5/1/19
f 17/1/20 5/1/20 4/1/20
f 23/1/21 3/1/21 12/1/21
f 7/1/22 2/1/22 6/1/22
f 13/1/23 4/1/23 1/1/23
f 19/1/24 5/1/24 16/1/24
f 24/1/25 9/1/25 21/1/25
f 22/1/26 18/1/26 15/1/26
f 25/1/27 26/1/27 27/1/27
f 28/1/28 29/1/28 30/1/28
f 31/1/29 32/1/29 33/1/29
f 34/1/30 35/1/30 36/1/30
f 37/1/31 38/1/31 39/1/31
f 40/1/32 41/1/32 42/1/32
f 43/1/33 44/1/33 45/1/33
f 46/1/34 47/1/34 48/1/34
f 25/1/35 29/1/35 28/1/35
f 37/1/36 27/1/36 26/1/36
f 40/1/37 39/1/37 38/1/37
f 41/1/38 29/1/38 42/1/38
f 46/1/39 38/1/39 37/1/39
f 43/1/40 48/1/40 47/1/40
f 44/1/41 40/1/41 45/1/41
f 31/1/42 44/1/42 43/1/42
f 28/1/43 33/1/43 32/1/43
f 31/1/44 36/1/44 32/1/44
f 35/1/45 25/1/45 36/1/45
f 47/1/46 35/1/46 34/1/46
f 28/1/47 36/1/47 25/1/47
f 42/1/48 27/1/48 39/1/48
f 46/1/49 26/1/49 35/1/49
f 41/1/50 33/1/50 30/1/50
f 43/1/51 34/1/51 31/1/51
f 40/1/52 48/1/52 45/1/52
f 49/1/53 50/1/53 51/1/53
f 52/1/54 53/1/54 54/1/54
f 55/1/55 56/1/55 57/1/55
f 58/1/56 59/1/56 60/1/56
f 61/1/57 62/1/57 63/1/57
f 64/1/58 65/1/58 66/1/58
f 67/1/59 68/1/59 69/1/59
f 70/1/60 71/1/60 72/1/60
f 61/1/61 71/1/61 70/1/61
f 49/1/62 63/1/62 62/1/62
f 50/1/63 60/1/63 51/1/63
f 59/1/64 71/1/64 60/1/64
f 52/1/65 50/1/65 49/1/65
f 55/1/66 54/1/66 53/1/66
f 59/1/67 57/1/67 56/1/67
f 67/1/68 56/1/68 55/1/68
f 70/1/69 69/1/69 68/1/69
f 67/1/70 66/1/70 68/1/70
f 65/1/71 61/1/71 66/1/71
f 64/1/72 52/1/72 65/1/72
f 51/1/73 71/1/73 63/1/73
f 58/1/74 54/1/74 57/1/74
f 49/1/75 65/1/75 52/1/75
f 67/1/76 53/1/76 64/1/76
f 59/1/77 69/1/77 72/1/77
f 70/1/78 66/1/78 61/1/78
f 73/1/79 74/1/79 75/1/79
f 76/1/80 77/1/80 78/1/80
f 79/1/81 80/1/81 81/1/81
f 82/1/82 83/1/82 84/1/82
f 85/1/83 86/1/83 87/1/83
f 88/1/84 89/1/84 90/1/84
f 91/1/85 92/1/85 93/1/85
f 94/1/86 95/1/86 96/1/86
f 88/1/87 93/1/87 89/1/87
f 79/1/88 93/1/88 92/1/88
f 76/1/89 81/1/89 80/1/89
f 90/1/90 78/1/90 77/1/90
f 82/1/91 80/1/91 79/1/91
f 83/1/92 75/1/92 84/1/92
f 77/1/93 75/1/93 74/1/93
f 73/1/94 87/1/94 74/1/94
f 86/1/95 90/1/95 87/1/95
f 94/1/96 86/1/96 85/1/96
f 95/1/97 91/1/97 96/1/97
f 94/1/98 82/1/98 95/1/98
f 76/1/99 84/1/99 75/1/99
f 77/1/100 87/1/100 90/1/100
f 85/1/101 83/1/101 94/1/101
f 81/1/102 89/1/102 93/1/102
f 79/1/103 95/1/103 82/1/103
f 88/1/104 96/1/104 91/1/104
f 97/2/105 98/3/105 99/4/105
f 100/5/106 101/6/106 102/7/106
f 103/8/107 104/9/107 105/10/107
f 106/11/108 107/12/108 108/13/108
f 109/14/109 110/15/109 111/16/109
f 112/17/110 113/18/110 114/19/110
f 115/20/111 116/21/111 117/22/111
f 118/23/112 119/24/112 120/25/112
f 103/8/113 99/4/113 104/9/113
f 98/26/114 102/27/114 99/28/114
f 106/11/115 102/27/115 101/29/115
f 105/30/116 108/13/116 107/12/116
f 103/8/117 116/21/117 115/20/117
f 118/23/118 107/12/118 106/11/118
f 119/24/119 116/21/119 120/25/119
f 115/20/120 110/15/120 109/14/120
f 112/17/121 119/24/121 118/23/121
f 111/16/122 114/19/122 113/18/122
f 97/2/123 111/16/123 98/3/123
f 101/6/124 113/18/124 112/17/124
f 115/20/125 97/2/125 103/8/125
f 102/27/126 104/31/126 99/28/126
f 113/18/127 98/32/127 111/16/127
f 118/23/128 101/33/128 112/17/128
f 107/12/129 116/21/129 105/30/129
f 119/24/130 110/15/130 117/22/130
f 313/40/339 314/3/339 315/4/339
f 316/5/340 317/6/340 318/7/340
f 319/8/341 320/9/341 321/10/341
f 322/11/342 323/12/342 324/13/342
f 325/14/343 326/15/343 327/16/343
f 328/17/344 329/18/344 330/19/344
f 331/20/345 332/38/345 333/22/345
f 334/23/346 335/24/346 336/34/346
f 313/40/347 320/9/347 319/8/347
f 316/35/348 315/28/348 314/26/348
f 322/11/349 318/27/349 317/29/349
f 321/30/350 324/13/350 323/12/350
f 331/20/351 321/10/351 332/38/351
f 334/23/352 323/12/352 322/11/352
f 335/24/353 332/38/353 336/34/353
f 331/20/354 326/15/354 325/14/354
f 328/17/355 335/24/355 334/23/355
f 329/18/356 326/15/356 330/19/356
f 325/14/357 314/3/357 313/40/357
f 317/6/358 329/18/358 328/17/358
f 331/20/359 313/40/359 319/8/359
f 318/27/360 320/31/360 315/28/360
f 329/18/361 314/32/361 327/16/361
f 322/39/362 328/17/362 334/23/362
f 321/30/363 336/34/363 332/38/363
f 335/24/364 326/15/364 333/22/364
f 337/2/365 338/3/365 339/4/365
f 340/5/366 341/6/366 342/7/366
f 343/8/367 344/9/367 345/10/367
f 346/11/368 347/12/368 348/13/368
f 349/14/369 350/15/369 351/16/369
f 352/17/370 353/18/370 354/19/370
f 355/20/371 356/38/371 357/22/371
f 358/23/372 359/24/372 360/25/372
f 337/2/373 344/9/373 343/8/373
f 338/26/374 342/27/374 339/28/374
f 341/29/375 348/13/375 342/27/375
f 347/12/376 344/31/376 348/13/376
f 343/8/377 356/38/377 355/20/377
f 346/11/378 360/25/378 347/12/378
f 357/22/379 360/25/379 359/24/379
f 355/20/380 350/15/380 349/14/380
f 352/17/381 359/24/381 358/23/381
f 351/16/382 354/19/382 353/18/382
f 349/14/383 338/3/383 337/2/383
f 341/6/384 353/18/384 352/17/384
f 355/20/385 337/2/385 343/8/385
f 339/28/386 348/13/386 344/31/386
f 351/16/387 340/5/387 338/32/387
f 346/39/388 352/17/388 358/23/388
f 347/12/389 356/38/389 345/30/389
f 357/22/390 354/19/390 350/15/390
f 385/2/417 386/3/417 387/4/417
f 388/5/418 389/6/418 390/7/418
f 391/8/419 392/9/419 393/10/419
f 394/11/420 395/12/420 396/13/420
f 397/14/421 398/15/421 399/16/421
f 400/17/422 401/18/422 402/19/422
f 403/20/423 404/21/423 405/22/423
f 406/23/424 407/24/424 408/34/424
f 391/8/425 387/4/425 392/9/425
f 388/35/426 387/28/426 386/26/426
f 394/11/427 390/27/427 389/29/427
f 393/30/428 396/13/428 395/12/428
f 391/8/429 404/21/429 403/20/429
f 406/23/430 395/12/430 394/11/430
f 407/24/431 404/21/431 408/34/431
f 403/20/432 398/15/432 397/14/432
f 400/17/433 407/24/433 406/23/433
f 401/18/434 398/15/434 402/19/434
f 397/14/435 386/3/435 385/2/435
f 400/17/436 388/5/436 401/18/436
f 403/20/437 385/2/437 391/8/437
f 387/28/438 396/13/438 392/31/438
f 401/18/439 386/32/439 399/16/439
f 394/39/440 400/17/440 406/23/440
f 395/12/441 404/21/441 393/30/441
f 407/24/442 398/15/442 405/22/442
f 433/40/469 434/3/469 435/4/469
f 436/5/470 437/6/470 438/7/470
f 439/8/471 440/9/471 441/10/471
f 442/11/472 443/12/472 444/13/472
f 445/14/473 446/37/473 447/16/473
f 448/17/474 449/18/474 450/19/474
f 451/20/475 452/38/475 453/22/475
f 454/23/476 455/24/476 456/34/476
f 433/40/477 440/9/477 439/8/477
f 434/26/478 438/27/478 435/28/478
f 442/11/479 438/27/479 437/29/479
f 443/12/480 440/31/480 444/13/480
f 451/20/481 441/10/481 452/38/481
f 454/23/482 443/12/482 442/11/482
f 455/24/483 452/38/483 456/34/483
f 445/14/484 453/22/484 446/37/484
f 454/23/485 450/19/485 455/24/485
f 447/16/486 450/19/486 449/18/486
f 433/40/487 447/16/487 434/3/487
f 437/6/488 449/18/488 448/17/488
f 451/20/489 433/40/489 439/8/489
f 435/28/490 444/13/490 440/31/490
f 449/18/491 434/32/491 447/16/491
f 442/39/492 448/17/492 454/23/492
f 443/12/493 452/38/493 441/30/493
f 455/24/494 446/37/494 453/22/494
f 481/2/521 482/3/521 483/4/521
f 484/5/522 485/6/522 486/7/522
f 487/8/523 488/9/523 489/10/523
f 490/11/524 491/12/524 492/36/524
f 493/14/525 494/15/525 495/16/525
f 496/17/526 497/18/526 498/19/526
f 499/20/527 500/38/527 501/22/527
f 502/23/528 503/24/528 504/34/528
f 481/2/529 488/9/529 487/8/529
f 484/35/530 483/28/530 482/26/530
f 490/11/531 486/27/531 485/29/531
f 491/12/532 488/31/532 492/36/532
f 487/8/533 500/38/533 499/20/533
f 502/23/534 491/12/534 490/11/534
f 501/22/535 504/34/535 503/24/535
f 499/20/536 494/15/536 493/14/536
f 496/17/537 503/24/537 502/23/537
f 495/16/538 498/19/538 497/18/538
f 493/14/539 482/3/539 481/2/539
f 496/17/540 484/5/540 497/18/540
f 499/20/541 481/2/541 487/8/541
f 486/27/542 488/31/542 483/28/542
f 497/18/543 482/32/543 495/16/543
f 490/39/544 496/17/544 502/23/544
f 489/30/545 504/34/545 500/38/545
f 501/22/546 498/19/546 494/15/546
f 529/2/573 530/3/573 531/4/573
f 532/5/574 533/6/574 534/7/574
f 535/8/575 536/9/575 537/10/575
f 538/11/576 539/12/576 540/36/576
f 541/14/577 542/37/577 543/16/577
f 544/17/578 545/18/578 546/19/578
f 547/20/579 548/38/579 549/22/579
f 550/23/580 551/24/580 552/34/580
f 529/2/581 536/9/581 535/8/581
f 530/26/582 534/27/582 531/28/582
f 538/11/583 534/27/583 533/29/583
f 537/30/584 540/36/584 539/12/584
f 535/8/585 548/38/585 547/20/585
f 550/23/586 539/12/586 538/11/586
f 551/24/587 548/38/587 552/34/587
f 547/20/588 542/37/588 541/14/588
f 544/17/589 551/24/589 550/23/589
f 543/16/590 546/19/590 545/18/590
f 529/2/591 543/16/591 530/3/591
f 544/17/592 532/5/592 545/18/592
f 547/20/593 529/2/593 535/8/593
f 531/28/594 540/36/594 536/31/594
f 543/16/595 532/5/595 530/32/595
f 550/23/596 533/33/596 544/17/596
f 537/30/597 552/34/597 548/38/597
f 549/22/598 546/19/598 542/37/598
f 553/40/599 554/3/599 555/4/599
f 556/5/600 557/6/600 558/7/600
f 559/8/601 560/9/601 561/10/601
f 562/11/602 563/12/602 564/36/602
f 565/14/603 566/15/603 567/16/603
f 568/17/604 569/18/604 570/19/604
f 571/20/605 572/21/605 573/22/605
f 574/23/606 575/24/606 576/34/606
f 553/40/607 560/9/607 559/8/607
f 554/26/608 558/27/608 555/28/608
f 557/29/609 564/36/609 558/27/609
f 561/30/610 564/36/610 563/12/610
f 571/20/611 561/10/611 572/21/611
f 562/11/612 576/34/612 563/12/612
f 575/24/613 572/21/613 576/34/613
f 571/20/614 566/15/614 565/14/614
f 568/17/615 575/24/615 574/23/615
f 569/18/616 566/15/616 570/19/616
f 565/14/617 554/3/617 553/40/617
f 557/6/618 569/18/618 568/17/618
f 571/20/619 553/40/619 559/8/619
f 558/27/620 560/31/620 555/28/620
f 567/16/621 556/5/621 554/32/621
f 562/39/622 568/17/622 574/23/622
f 563/12/623 572/21/623 561/30/623
f 575/24/624 566/15/624 573/22/624
f 577/2/625 578/3/625 579/4/625
f 580/5/626 581/6/626 582/7/626
f 583/8/627 584/9/627 585/10/627
f 586/11/628 587/12/628 588/13/628
f 589/14/629 590/15/629 591/16/629
f 592/17/630 593/18/630 594/19/630
f 595/20/631 596/21/631 597/22/631
f 598/23/632 599/24/632 600/25/632
f 577/2/633 584/9/633 583/8/633
f 578/26/634 582/27/634 579/28/634
f 581/29/635 588/13/635 582/27/635
f 587/12/636 584/31/636 588/13/636
f 595/20/637 585/10/637 596/21/637
f 598/23/638 587/12/638 586/11/638
f 597/22/639 600/25/639 599/24/639
f 589/14/640 597/22/640 590/15/640
f 598/23/641 594/19/641 599/24/641
f 593/18/642 590/15/642 594/19/642
f 577/2/643 591/16/643 578/3/643
f 592/17/644 580/5/644 593/18/644
f 595/20/645 577/2/645 583/8/645
f 582/27/646 584/31/646 579/28/646
f 591/16/647 580/5/647 578/32/647
f 586/39/648 592/17/648 598/23/648
f 585/30/649 600/25/649 596/21/649
f 599/24/650 590/15/650 597/22/650
f 601/2/651 602/3/651 603/4/651
f 604/5/652 605/6/652 606/7/652
f 607/8/653 608/9/653 609/10/653
f 610/11/654 611/12/654 612/36/654
f 613/14/655 614/15/655 615/16/655
f 616/17/656 617/18/656 618/19/656
f 619/20/657 620/38/657 621/22/657
f 622/23/658 623/24/658 624/34/658
f 601/2/659 608/9/659 607/8/659
f 602/26/660 606/27/660 603/28/660
f 610/11/661 606/27/661 605/29/661
f 611/12/662 608/31/662 612/36/662
f 607/8/663 620/38/663 619/20/663
f 622/23/664 611/12/664 610/11/664
f 621/22/665 624/34/665 623/24/665
f 619/20/666 614/15/666 613/14/666
f 616/17/667 623/24/667 622/23/667
f 615/16/668 618/19/668 617/18/668
f 613/14/669 602/3/669 601/2/669
f 605/6/670 617/18/670 616/17/670
f 619/20/671 601/2/671 607/8/671
f 603/28/672 612/36/672 608/31/672
f 617/18/673 602/32/673 615/16/673
f 610/39/674 616/17/674 622/23/674
f 611/12/675 620/38/675 609/30/675
f 621/22/676 618/19/676 614/15/676
f 10/1/9 7/1/9 9/1/9
f 19/1/10 21/1/10 9/1/10
f 20/1/11 22/1/11 24/1/11
f 23/1/12 12/1/12 11/1/12
f 19/1/13 16/1/13 18/1/13
f 13/1/14 15/1/14 18/1/14
f 23/1/15 22/1/15 15/1/15
f 13/1/16 1/1/16 3/1/16
f 2/1/17 10/1/17 12/1/17
f 1/1/18 4/1/18 6/1/18
f 8/1/19 7/1/19 6/1/19
f 17/1/20 16/1/20 5/1/20
f 23/1/21 14/1/21 3/1/21
f 7/1/22 10/1/22 2/1/22
f 13/1/23 17/1/23 4/1/23
f 19/1/24 8/1/24 5/1/24
f 24/1/25 11/1/25 9/1/25
f 22/1/26 20/1/26 18/1/26
f 25/1/35 27/1/35 29/1/35
f 37/1/36 39/1/36 27/1/36
f 40/1/677 42/1/677 39/1/677
f 41/1/38 30/1/38 29/1/38
f 46/1/39 48/1/39 38/1/39
f 43/1/40 45/1/40 48/1/40
f 44/1/41 41/1/41 40/1/41
f 31/1/42 33/1/42 44/1/42
f 28/1/43 30/1/43 33/1/43
f 31/1/44 34/1/44 36/1/44
f 35/1/45 26/1/45 25/1/45
f 47/1/46 46/1/46 35/1/46
f 28/1/47 32/1/47 36/1/47
f 42/1/48 29/1/48 27/1/48
f 46/1/49 37/1/49 26/1/49
f 41/1/50 44/1/50 33/1/50
f 43/1/51 47/1/51 34/1/51
f 40/1/52 38/1/52 48/1/52
f 61/1/61 63/1/61 71/1/61
f 49/1/62 51/1/62 63/1/62
f 50/1/63 58/1/63 60/1/63
f 59/1/64 72/1/64 71/1/64
f 52/1/65 54/1/65 50/1/65
f 55/1/678 57/1/678 54/1/678
f 59/1/67 58/1/67 57/1/67
f 67/1/68 69/1/68 56/1/68
f 70/1/69 72/1/69 69/1/69
f 67/1/70 64/1/70 66/1/70
f 65/1/71 62/1/71 61/1/71
f 64/1/72 53/1/72 52/1/72
f 51/1/73 60/1/73 71/1/73
f 58/1/74 50/1/74 54/1/74
f 49/1/75 62/1/75 65/1/75
f 67/1/76 55/1/76 53/1/76
f 59/1/77 56/1/77 69/1/77
f 70/1/78 68/1/78 66/1/78
f 88/1/87 91/1/87 93/1/87
f 79/1/88 81/1/88 93/1/88
f 76/1/89 78/1/89 81/1/89
f 90/1/90 89/1/90 78/1/90
f 82/1/91 84/1/91 80/1/91
f 83/1/92 73/1/92 75/1/92
f 77/1/93 76/1/93 75/1/93
f 73/1/94 85/1/94 87/1/94
f 86/1/95 88/1/95 90/1/95
f 94/1/96 96/1/96 86/1/96
f 95/1/97 92/1/97 91/1/97
f 94/1/98 83/1/98 82/1/98
f 76/1/99 80/1/99 84/1/99
f 77/1/100 74/1/100 87/1/100
f 85/1/101 73/1/101 83/1/101
f 81/1/102 78/1/102 89/1/102
f 79/1/103 92/1/103 95/1/103
f 88/1/104 86/1/104 96/1/104
f 103/8/113 97/2/113 99/4/113
f 98/26/114 100/35/114 102/27/114
f 106/11/115 108/13/115 102/27/115
f 105/30/116 104/31/116 108/13/116
f 103/8/117 105/10/117 116/21/117
f 118/23/118 120/25/118 107/12/118
f 119/24/119 117/22/119 116/21/119
f 115/20/120 117/22/120 110/15/120
f 112/17/121 114/19/121 119/24/121
f 111/16/122 110/15/122 114/19/122
f 97/2/123 109/14/123 111/16/123
f 101/6/124 100/5/124 113/18/124
f 115/20/125 109/14/125 97/2/125
f 102/27/126 108/13/126 104/31/126
f 113/18/127 100/5/127 98/32/127
f 118/23/128 106/39/128 101/33/128
f 107/12/129 120/25/129 116/21/129
f 119/24/130 114/19/130 110/15/130
f 313/40/347 315/4/347 320/9/347
f 316/35/348 318/27/348 315/28/348
f 322/11/349 324/13/349 318/27/349
f 321/30/350 320/31/350 324/13/350
f 331/20/351 319/8/351 321/10/351
f 334/23/352 336/34/352 323/12/352
f 335/24/353 333/22/353 332/38/353
f 331/20/354 333/22/354 326/15/354
f 328/17/355 330/19/355 335/24/355
f 329/18/356 327/16/356 326/15/356
f 325/14/709 327/16/709 314/3/709
f 317/6/358 316/5/358 329/18/358
f 331/20/359 325/14/359 313/40/359
f 318/27/360 324/13/360 320/31/360
f 329/18/361 316/5/361 314/32/361
f 322/39/362 317/33/362 328/17/362
f 321/30/363 323/12/363 336/34/363
f 335/24/364 330/19/364 326/15/364
f 337/2/373 339/4/373 344/9/373
f 338/26/374 340/35/374 342/27/374
f 341/29/375 346/11/375 348/13/375
f 347/12/376 345/30/376 344/31/376
f 343/8/377 345/10/377 356/38/377
f 346/11/378 358/23/378 360/25/378
f 357/22/379 356/38/379 360/25/379
f 355/20/380 357/22/380 350/15/380
f 352/17/381 354/19/381 359/24/381
f 351/16/382 350/15/382 354/19/382
f 349/14/383 351/16/383 338/3/383
f 341/6/384 340/5/384 353/18/384
f 355/20/385 349/14/385 337/2/385
f 339/28/386 342/27/386 348/13/386
f 351/16/387 353/18/387 340/5/387
f 346/39/388 341/33/388 352/17/388
f 347/12/389 360/25/389 356/38/389
f 357/22/390 359/24/390 354/19/390
f 391/8/425 385/2/425 387/4/425
f 388/35/426 390/27/426 387/28/426
f 394/11/427 396/13/427 390/27/427
f 393/30/428 392/31/428 396/13/428
f 391/8/429 393/10/429 404/21/429
f 406/23/430 408/34/430 395/12/430
f 407/24/710 405/22/710 404/21/710
f 403/20/432 405/22/432 398/15/432
f 400/17/433 402/19/433 407/24/433
f 401/18/434 399/16/434 398/15/434
f 397/14/435 399/16/435 386/3/435
f 400/17/436 389/6/436 388/5/436
f 403/20/437 397/14/437 385/2/437
f 387/28/438 390/27/438 396/13/438
f 401/18/711 388/5/711 386/32/711
f 394/39/440 389/33/440 400/17/440
f 395/12/441 408/34/441 404/21/441
f 407/24/442 402/19/442 398/15/442
f 433/40/477 435/4/477 440/9/477
f 434/26/712 436/35/712 438/27/712
f 442/11/479 444/13/479 438/27/479
f 443/12/480 441/30/480 440/31/480
f 451/20/481 439/8/481 441/10/481
f 454/23/482 456/34/482 443/12/482
f 455/24/483 453/22/483 452/38/483
f 445/14/484 451/20/484 453/22/484
f 454/23/485 448/17/485 450/19/485
f 447/16/486 446/37/486 450/19/486
f 433/40/487 445/14/487 447/16/487
f 437/6/488 436/5/488 449/18/488
f 451/20/489 445/14/489 433/40/489
f 435/28/490 438/27/490 444/13/490
f 449/18/491 436/5/491 434/32/491
f 442/39/492 437/33/492 448/17/492
f 443/12/493 456/34/493 452/38/493
f 455/24/494 450/19/494 446/37/494
f 481/2/529 483/4/529 488/9/529
f 484/35/530 486/27/530 483/28/530
f 490/11/531 492/36/531 486/27/531
f 491/12/532 489/30/532 488/31/532
f 487/8/533 489/10/533 500/38/533
f 502/23/534 504/34/534 491/12/534
f 501/22/535 500/38/535 504/34/535
f 499/20/536 501/22/536 494/15/536
f 496/17/537 498/19/537 503/24/537
f 495/16/714 494/15/714 498/19/714
f 493/14/539 495/16/539 482/3/539
f 496/17/540 485/6/540 484/5/540
f 499/20/541 493/14/541 481/2/541
f 486/27/542 492/36/542 488/31/542
f 497/18/543 484/5/543 482/32/543
f 490/39/544 485/33/544 496/17/544
f 489/30/545 491/12/545 504/34/545
f 501/22/546 503/24/546 498/19/546
f 529/2/581 531/4/581 536/9/581
f 530/26/582 532/35/582 534/27/582
f 538/11/583 540/36/583 534/27/583
f 537/30/584 536/31/584 540/36/584
f 535/8/585 537/10/585 548/38/585
f 550/23/586 552/34/586 539/12/586
f 551/24/587 549/22/587 548/38/587
f 547/20/588 549/22/588 542/37/588
f 544/17/589 546/19/589 551/24/589
f 543/16/590 542/37/590 546/19/590
f 529/2/716 541/14/716 543/16/716
f 544/17/592 533/6/592 532/5/592
f 547/20/593 541/14/593 529/2/593
f 531/28/594 534/27/594 540/36/594
f 543/16/595 545/18/595 532/5/595
f 550/23/596 538/39/596 533/33/596
f 537/30/597 539/12/597 552/34/597
f 549/22/598 551/24/598 546/19/598
f 553/40/607 555/4/607 560/9/607
f 554/26/608 556/35/608 558/27/608
f 557/29/717 562/11/717 564/36/717
f 561/30/610 560/31/610 564/36/610
f 571/20/611 559/8/611 561/10/611
f 562/11/612 574/23/612 576/34/612
f 575/24/613 573/22/613 572/21/613
f 571/20/718 573/22/718 566/15/718
f 568/17/615 570/19/615 575/24/615
f 569/18/616 567/16/616 566/15/616
f 565/14/617 567/16/617 554/3/617
f 557/6/618 556/5/618 569/18/618
f 571/20/619 565/14/619 553/40/619
f 558/27/620 564/36/620 560/31/620
f 567/16/621 569/18/621 556/5/621
f 562/39/622 557/33/622 568/17/622
f 563/12/623 576/34/623 572/21/623
f 575/24/624 570/19/624 566/15/624
f 577/2/719 579/4/719 584/9/719
f 578/26/634 580/35/634 582/27/634
f 581/29/635 586/11/635 588/13/635
f 587/12/636 585/30/636 584/31/636
f 595/20/720 583/8/720 585/10/720
f 598/23/638 600/25/638 587/12/638
f 597/22/639 596/21/639 600/25/639
f 589/14/640 595/20/640 597/22/640
f 598/23/721 592/17/721 594/19/721
f 593/18/642 591/16/642 590/15/642
f 577/2/722 589/14/722 591/16/722
f 592/17/644 581/6/644 580/5/644
f 595/20/645 589/14/645 577/2/645
f 582/27/646 588/13/646 584/31/646
f 591/16/647 593/18/647 580/5/647
f 586/39/648 581/33/648 592/17/648
f 585/30/649 587/12/649 600/25/649
f 599/24/650 594/19/650 590/15/650
f 601/2/723 603/4/723 608/9/723
f 602/26/660 604/35/660 606/27/660
f 610/11/724 612/36/724 606/27/724
f 611/12/662 609/30/662 608/31/662
f 607/8/663 609/10/663 620/38/663
f 622/23/664 624/34/664 611/12/664
f 621/22/665 620/38/665 624/34/665
f 619/20/666 621/22/666 614/15/666
f 616/17/725 618/19/725 623/24/725
f 615/16/668 614/15/668 618/19/668
f 613/14/669 615/16/669 602/3/669
f 605/6/670 604/5/670 617/18/670
f 619/20/671 613/14/671 601/2/671
f 603/28/672 606/27/672 612/36/672
f 617/18/673 604/5/673 602/32/673
f 610/39/674 605/33/674 616/17/674
f 611/12/675 624/34/675 620/38/675
f 621/22/676 623/24/676 618/19/676
usemtl iron
f 121/2/131 122/3/131 123/4/131
f 124/5/132 125/6/132 126/7/132
f 127/8/133 128/9/133 129/10/133
f 130/11/134 131/12/134 132/13/134
f 133/14/135 134/15/135 135/16/135
f 136/17/136 137/18/136 138/19/136
f 139/20/137 140/21/137 141/22/137
f 142/23/138 143/24/138 144/34/138
f 121/2/139 128/9/139 127/8/139
f 124/35/140 123/28/140 122/26/140
f 130/11/141 126/27/141 125/29/141
f 129/30/142 132/13/142 131/12/142
f 127/8/143 140/21/143 139/20/143
f 142/23/144 131/12/144 130/11/144
f 141/22/145 144/34/145 143/24/145
f 133/14/146 141/22/146 134/15/146
f 142/23/147 138/19/147 143/24/147
f 135/16/148 138/19/148 137/18/148
f 133/14/149 122/3/149 121/2/149
f 136/17/150 124/5/150 137/18/150
f 139/20/151 121/2/151 127/8/151
f 123/28/152 132/13/152 128/31/152
f 137/18/153 122/32/153 135/16/153
f 142/23/154 125/33/154 136/17/154
f 131/12/155 140/21/155 129/30/155
f 141/22/156 138/19/156 134/15/156
f 145/2/157 146/3/157 147/4/157
f 148/5/158 149/6/158 150/7/158
f 151/8/159 152/9/159 153/10/159
f 154/11/160 155/12/160 156/36/160
f 157/14/161 158/15/161 159/16/161
f 160/17/162 161/18/162 162/19/162
f 163/20/163 164/21/163 165/22/163
f 166/23/164 167/24/164 168/34/164
f 145/2/165 152/9/165 151/8/165
f 146/26/166 150/27/166 147/28/166
f 149/29/167 156/36/167 150/27/167
f 153/30/168 156/36/168 155/12/168
f 151/8/169 164/21/169 163/20/169
f 166/23/170 155/12/170 154/11/170
f 167/24/171 164/21/171 168/34/171
f 163/20/172 158/15/172 157/14/172
f 166/23/173 162/19/173 167/24/173
f 159/16/174 162/19/174 161/18/174
f 145/2/175 159/16/175 146/3/175
f 160/17/176 148/5/176 161/18/176
f 163/20/177 145/2/177 151/8/177
f 150/27/178 152/31/178 147/28/178
f 159/16/179 148/5/179 146/32/179
f 166/23/180 149/33/180 160/17/180
f 155/12/181 164/21/181 153/30/181
f 167/24/182 158/15/182 165/22/182
f 169/2/183 170/3/183 171/4/183
f 172/5/184 173/6/184 174/7/184
f 175/8/185 176/9/185 177/10/185
f 178/11/186 179/12/186 180/36/186
f 181/14/187 182/37/187 183/16/187
f 184/17/188 185/18/188 186/19/188
f 187/20/189 188/38/189 189/22/189
f 190/23/190 191/24/190 192/34/190
f 175/8/191 171/4/191 176/9/191
f 172/35/192 171/28/192 170/26/192
f 178/11/193 174/27/193 173/29/193
f 177/30/194 180/36/194 179/12/194
f 187/20/195 177/10/195 188/38/195
f 178/11/196 192/34/196 179/12/196
f 191/24/197 188/38/197 192/34/197
f 181/14/198 189/22/198 182/37/198
f 184/17/199 191/24/199 190/23/199
f 183/16/200 186/19/200 185/18/200
f 181/14/201 170/3/201 169/2/201
f 173/6/202 185/18/202 184/17/202
f 187/20/203 169/2/203 175/8/203
f 171/28/204 180/36/204 176/31/204
f 185/18/205 170/32/205 183/16/205
f 178/39/206 184/17/206 190/23/206
f 179/12/207 188/38/207 177/30/207
f 189/22/208 186/19/208 182/37/208
f 193/2/209 194/3/209 195/4/209
f 196/5/210 197/6/210 198/7/210
f 199/8/211 200/9/211 201/10/211
f 202/11/212 203/12/212 204/13/212
f 205/14/213 206/15/213 207/16/213
f 208/17/214 209/18/214 210/19/214
f 211/20/215 212/38/215 213/22/215
f 214/23/216 215/24/216 216/34/216
f 199/8/217 195/4/217 200/9/217
f 196/35/218 195/28/218 194/26/218
f 197/29/219 204/13/219 198/27/219
f 201/30/220 204/13/220 203/12/220
f 199/8/221 212/38/221 211/20/221
f 202/11/222 216/34/222 203/12/222
f 213/22/223 216/34/223 215/24/223
f 205/14/224 213/22/224 206/15/224
f 214/23/225 210/19/225 215/24/225
f 209/18/226 206/15/226 210/19/226
f 205/14/227 194/3/227 193/2/227
f 208/17/228 196/5/228 209/18/228
f 211/20/229 193/2/229 199/8/229
f 198/27/230 200/31/230 195/28/230
f 209/18/231 194/32/231 207/16/231
f 202/39/232 208/17/232 214/23/232
f 201/30/233 216/34/233 212/38/233
f 215/24/234 206/15/234 213/22/234
f 217/2/235 218/3/235 219/4/235
f 220/5/236 221/6/236 222/7/236
f 223/8/237 224/9/237 225/10/237
f 226/11/238 227/12/238 228/13/238
f 229/14/239 230/15/239 231/16/239
f 232/17/240 233/18/240 234/19/240
f 235/20/241 236/38/241 237/22/241
f 238/23/242 239/24/242 240/25/242
f 217/2/243 224/9/243 223/8/243
f 220/35/244 219/28/244 218/26/244
f 221/29/245 228/13/245 222/27/245
f 225/30/246 228/13/246 227/12/246
f 223/8/247 236/38/247 235/20/247
f 238/23/248 227/12/248 226/11/248
f 239/24/249 236/38/249 240/25/249
f 229/14/250 237/22/250 230/15/250
f 238/23/251 234/19/251 239/24/251
f 233/18/252 230/15/252 234/19/252
f 217/2/253 231/16/253 218/3/253
f 221/6/254 233/18/254 232/17/254
f 235/20/255 217/2/255 223/8/255
f 219/28/256 228/13/256 224/31/256
f 233/18/257 218/32/257 231/16/257
f 238/23/258 221/33/258 232/17/258
f 227/12/259 236/38/259 225/30/259
f 239/24/260 230/15/260 237/22/260
f 241/2/261 242/3/261 243/4/261
f 244/5/262 245/6/262 246/7/262
f 247/8/263 248/9/263 249/10/263
f 250/11/264 251/12/264 252/36/264
f 253/14/265 254/15/265 255/16/265
f 256/17/266 257/18/266 258/19/266
f 259/20/267 260/38/267 261/22/267
f 262/23/268 263/24/268 264/34/268
f 247/8/269 243/4/269 248/9/269
f 242/26/270 246/27/270 243/28/270
f 245/29/271 252/36/271 246/27/271
f 251/12/272 248/31/272 252/36/272
f 247/8/273 260/38/273 259/20/273
f 250/11/274 264/34/274 251/12/274
f 263/24/275 260/38/275 264/34/275
f 253/14/276 261/22/276 254/15/276
f 256/17/277 263/24/277 262/23/277
f 257/18/278 254/15/278 258/19/278
f 241/2/279 255/16/279 242/3/279
f 256/17/280 244/5/280 257/18/280
f 247/8/281 253/14/281 241/2/281
f 243/28/282 252/36/282 248/31/282
f 255/16/283 244/5/283 242/32/283
f 250/39/284 256/17/284 262/23/284
f 251/12/285 260/38/285 249/30/285
f 263/24/286 254/15/286 261/22/286
f 265/2/287 266/3/287 267/4/287
f 268/5/288 269/6/288 270/7/288
f 271/8/289 272/9/289 273/10/289
f 274/11/290 275/12/290 276/13/290
f 277/14/291 278/37/291 279/16/291
f 280/17/292 281/18/292 282/19/292
f 283/20/293 284/21/293 285/22/293
f 286/23/294 287/24/294 288/34/294
f 271/8/295 267/4/295 272/9/295
f 268/35/296 267/28/296 266/26/296
f 274/11/297 270/27/297 269/29/297
f 273/30/298 276/13/298 275/12/298
f 283/20/299 273/10/299 284/21/299
f 286/23/300 275/12/300 274/11/300
f 287/24/301 284/21/301 288/34/301
f 277/14/302 285/22/302 278/37/302
f 286/23/303 282/19/303 287/24/303
f 281/18/304 278/37/304 282/19/304
f 277/14/305 266/3/305 265/2/305
f 269/6/306 281/18/306 280/17/306
f 271/8/307 277/14/307 265/2/307
f 267/28/308 276/13/308 272/31/308
f 281/18/309 266/32/309 279/16/309
f 274/39/310 280/17/310 286/23/310
f 273/30/311 288/34/311 284/21/311
f 287/24/312 278/37/312 285/22/312
f 289/2/313 290/3/313 291/4/313
f 292/5/314 293/6/314 294/7/314
f 295/8/315 296/9/315 297/10/315
f 298/11/316 299/12/316 300/36/316
f 301/14/317 302/37/317 303/16/317
f 304/17/318 305/18/318 306/19/318
f 307/20/319 308/38/319 309/22/319
f 310/23/320 311/24/320 312/34/320
f 289/2/321 296/9/321 295/8/321
f 290/26/322 294/27/322 291/28/322
f 298/11/323 294/27/323 293/29/323
f 297/30/324 300/36/324 299/12/324
f 295/8/325 308/38/325 307/20/325
f 298/11/326 312/34/326 299/12/326
f 309/22/327 312/34/327 311/24/327
f 307/20/328 302/37/328 301/14/328
f 310/23/329 306/19/329 311/24/329
f 303/16/330 306/19/330 305/18/330
f 301/14/331 290/3/331 289/2/331
f 304/17/332 292/5/332 305/18/332
f 307/20/333 289/2/333 295/8/333
f 294/27/334 296/31/334 291/28/334
f 303/16/335 292/5/335 290/32/335
f 310/23/336 293/33/336 304/17/336
f 299/12/337 308/38/337 297/30/337
f 311/24/338 302/37/338 309/22/338
f 121/2/139 123/4/139 128/9/139
f 124/35/140 126/27/140 123/28/140
f 130/11/679 132/13/679 126/27/679
f 129/30/142 128/31/142 132/13/142
f 127/8/143 129/10/143 140/21/143
f 142/23/680 144/34/680 131/12/680
f 141/22/145 140/21/145 144/34/145
f 133/14/681 139/20/681 141/22/681
f 142/23/147 136/17/147 138/19/147
f 135/16/148 134/15/148 138/19/148
f 133/14/682 135/16/682 122/3/682
f 136/17/150 125/6/150 124/5/150
f 139/20/151 133/14/151 121/2/151
f 123/28/152 126/27/152 132/13/152
f 137/18/153 124/5/153 122/32/153
f 142/23/154 130/39/154 125/33/154
f 131/12/155 144/34/155 140/21/155
f 141/22/156 143/24/156 138/19/156
f 145/2/683 147/4/683 152/9/683
f 146/26/684 148/35/684 150/27/684
f 149/29/685 154/11/685 156/36/685
f 153/30/168 152/31/168 156/36/168
f 151/8/169 153/10/169 164/21/169
f 166/23/170 168/34/170 155/12/170
f 167/24/686 165/22/686 164/21/686
f 163/20/687 165/22/687 158/15/687
f 166/23/688 160/17/688 162/19/688
f 159/16/174 158/15/174 162/19/174
f 145/2/175 157/14/175 159/16/175
f 160/17/176 149/6/176 148/5/176
f 163/20/177 157/14/177 145/2/177
f 150/27/178 156/36/178 152/31/178
f 159/16/179 161/18/179 148/5/179
f 166/23/180 154/39/180 149/33/180
f 155/12/181 168/34/181 164/21/181
f 167/24/182 162/19/182 158/15/182
f 175/8/689 169/2/689 171/4/689
f 172/35/192 174/27/192 171/28/192
f 178/11/193 180/36/193 174/27/193
f 177/30/194 176/31/194 180/36/194
f 187/20/195 175/8/195 177/10/195
f 178/11/196 190/23/196 192/34/196
f 191/24/197 189/22/197 188/38/197
f 181/14/198 187/20/198 189/22/198
f 184/17/199 186/19/199 191/24/199
f 183/16/200 182/37/200 186/19/200
f 181/14/201 183/16/201 170/3/201
f 173/6/690 172/5/690 185/18/690
f 187/20/203 181/14/203 169/2/203
f 171/28/204 174/27/204 180/36/204
f 185/18/205 172/5/205 170/32/205
f 178/39/206 173/33/206 184/17/206
f 179/12/207 192/34/207 188/38/207
f 189/22/208 191/24/208 186/19/208
f 199/8/217 193/2/217 195/4/217
f 196/35/218 198/27/218 195/28/218
f 197/29/691 202/11/691 204/13/691
f 201/30/220 200/31/220 204/13/220
f 199/8/221 201/10/221 212/38/221
f 202/11/222 214/23/222 216/34/222
f 213/22/223 212/38/223 216/34/223
f 205/14/692 211/20/692 213/22/692
f 214/23/693 208/17/693 210/19/693
f 209/18/226 207/16/226 206/15/226
f 205/14/227 207/16/227 194/3/227
f 208/17/228 197/6/228 196/5/228
f 211/20/229 205/14/229 193/2/229
f 198/27/230 204/13/230 200/31/230
f 209/18/231 196/5/231 194/32/231
f 202/39/232 197/33/232 208/17/232
f 201/30/233 203/12/233 216/34/233
f 215/24/234 210/19/234 206/15/234
f 217/2/243 219/4/243 224/9/243
f 220/35/694 222/27/694 219/28/694
f 221/29/245 226/11/245 228/13/245
f 225/30/695 224/31/695 228/13/695
f 223/8/247 225/10/247 236/38/247
f 238/23/248 240/25/248 227/12/248
f 239/24/696 237/22/696 236/38/696
f 229/14/250 235/20/250 237/22/250
f 238/23/251 232/17/251 234/19/251
f 233/18/252 231/16/252 230/15/252
f 217/2/253 229/14/253 231/16/253
f 221/6/254 220/5/254 233/18/254
f 235/20/255 229/14/255 217/2/255
f 219/28/256 222/27/256 228/13/256
f 233/18/257 220/5/257 218/32/257
f 238/23/258 226/39/258 221/33/258
f 227/12/259 240/25/259 236/38/259
f 239/24/260 234/19/260 230/15/260
f 247/8/697 241/2/697 243/4/697
f 242/26/698 244/35/698 246/27/698
f 245/29/271 250/11/271 252/36/271
f 251/12/699 249/30/699 248/31/699
f 247/8/273 249/10/273 260/38/273
f 250/11/274 262/23/274 264/34/274
f 263/24/700 261/22/700 260/38/700
f 253/14/701 259/20/701 261/22/701
f 256/17/277 258/19/277 263/24/277
f 257/18/278 255/16/278 254/15/278
f 241/2/279 253/14/279 255/16/279
f 256/17/280 245/6/280 244/5/280
f 247/8/281 259/20/281 253/14/281
f 243/28/282 246/27/282 252/36/282
f 255/16/283 257/18/283 244/5/283
f 250/39/284 245/33/284 256/17/284
f 251/12/285 264/34/285 260/38/285
f 263/24/286 258/19/286 254/15/286
f 271/8/702 265/2/702 267/4/702
f 268/35/296 270/27/296 267/28/296
f 274/11/297 276/13/297 270/27/297
f 273/30/703 272/31/703 276/13/703
f 283/20/299 271/8/299 273/10/299
f 286/23/300 288/34/300 275/12/300
f 287/24/704 285/22/704 284/21/704
f 277/14/705 283/20/705 285/22/705
f 286/23/303 280/17/303 282/19/303
f 281/18/304 279/16/304 278/37/304
f 277/14/706 279/16/706 266/3/706
f 269/6/306 268/5/306 281/18/306
f 271/8/307 283/20/307 277/14/307
f 267/28/308 270/27/308 276/13/308
f 281/18/309 268/5/309 266/32/309
f 274/39/310 269/33/310 280/17/310
f 273/30/311 275/12/311 288/34/311
f 287/24/312 282/19/312 278/37/312
f 289/2/321 291/4/321 296/9/321
f 290/26/707 292/35/707 294/27/707
f 298/11/323 300/36/323 294/27/323
f 297/30/708 296/31/708 300/36/708
f 295/8/325 297/10/325 308/38/325
f 298/11/326 310/23/326 312/34/326
f 309/22/327 308/38/327 312/34/327
f 307/20/328 309/22/328 302/37/328
f 310/23/329 304/17/329 306/19/329
f 303/16/330 302/37/330 306/19/330
f 301/14/331 303/16/331 290/3/331
f 304/17/332 293/6/332 292/5/332
f 307/20/333 301/14/333 289/2/333
f 294/27/334 300/36/334 296/31/334
f 303/16/335 305/18/335 292/5/335
f 310/23/336 298/39/336 293/33/336
f 299/12/337 312/34/337 308/38/337
f 311/24/338 306/19/338 302/37/338
usemtl stone
f 361/2/391 362/3/391 363/4/391
f 364/5/392 365/6/392 366/7/392
f 367/8/393 368/9/393 369/10/393
f 370/11/394 371/12/394 372/36/394
f 373/14/395 374/15/395 375/16/395
f 376/17/396 377/18/396 378/19/396
f 379/20/397 380/38/397 381/22/397
f 382/23/398 383/24/398 384/34/398
f 367/8/399 363/4/399 368/9/399
f 362/26/400 366/27/400 363/28/400
f 365/29/401 372/36/401 366/27/401
f 369/30/402 372/36/402 371/12/402
f 367/8/403 380/38/403 379/20/403
f 370/11/404 384/34/404 371/12/404
f 383/24/405 380/38/405 384/34/405
f 379/20/406 374/15/406 373/14/406
f 376/17/407 383/24/407 382/23/407
f 375/16/408 378/19/408 377/18/408
f 373/14/409 362/3/409 361/2/409
f 376/17/410 364/5/410 377/18/410
f 379/20/411 361/2/411 367/8/411
f 366/27/412 368/31/412 363/28/412
f 377/18/413 362/32/413 375/16/413
f 370/39/414 376/17/414 382/23/414
f 371/12/415 380/38/415 369/30/415
f 383/24/416 374/15/416 381/22/416
f 409/2/443 410/3/443 411/4/443
f 412/5/444 413/6/444 414/7/444
f 415/8/445 416/9/445 417/10/445
f 418/11/446 419/12/446 420/36/446
f 421/14/447 422/37/447 423/16/447
f 424/17/448 425/18/448 426/19/448
f 427/20/449 428/38/449 429/22/449
f 430/23/450 431/24/450 432/34/450
f 415/8/451 411/4/451 416/9/451
f 412/35/452 411/28/452 410/26/452
f 418/11/453 414/27/453 413/29/453
f 417/30/454 420/36/454 419/12/454
f 427/20/455 417/10/455 428/38/455
f 430/23/456 419/12/456 418/11/456
f 431/24/457 428/38/457 432/34/457
f 421/14/458 429/22/458 422/37/458
f 430/23/459 426/19/459 431/24/459
f 423/16/460 426/19/460 425/18/460
f 421/14/461 410/3/461 409/2/461
f 413/6/462 425/18/462 424/17/462
f 427/20/463 409/2/463 415/8/463
f 411/28/464 420/36/464 416/31/464
f 425/18/465 410/32/465 423/16/465
f 430/23/466 413/33/466 424/17/466
f 419/12/467 428/38/467 417/30/467
f 431/24/468 422/37/468 429/22/468
f 457/2/495 458/3/495 459/4/495
f 460/5/496 461/6/496 462/7/496
f 463/8/497 464/9/497 465/10/497
f 466/11/498 467/12/498 468/36/498
f 469/14/499 470/37/499 471/16/499
f 472/17/500 473/18/500 474/19/500
f 475/20/501 476/21/501 477/22/501
f 478/23/502 479/24/502 480/34/502
f 463/8/503 459/4/503 464/9/503
f 458/26/504 462/27/504 459/28/504
f 466/11/505 462/27/505 461/29/505
f 465/30/506 468/36/506 467/12/506
f 463/8/507 476/21/507 475/20/507
f 466/11/508 480/34/508 467/12/508
f 477/22/509 480/34/509 479/24/509
f 475/20/510 470/37/510 469/14/510
f 472/17/511 479/24/511 478/23/511
f 471/16/512 474/19/512 473/18/512
f 469/14/513 458/3/513 457/2/513
f 461/6/514 473/18/514 472/17/514
f 475/20/515 457/2/515 463/8/515
f 459/28/516 468/36/516 464/31/516
f 473/18/517 458/32/517 471/16/517
f 478/23/518 461/33/518 472/17/518
f 467/12/519 476/21/519 465/30/519
f 479/24/520 470/37/520 477/22/520
f 505/2/547 506/3/547 507/4/547
f 508/5/548 509/6/548 510/7/548
f 511/8/549 512/9/549 513/10/549
f 514/11/550 515/12/550 516/13/550
f 517/14/551 518/15/551 519/16/551
f 520/17/552 521/18/552 522/19/552
f 523/20/553 524/21/553 525/22/553
f 526/23/554 527/24/554 528/34/554
f 505/2/555 512/9/555 511/8/555
f 508/35/556 507/28/556 506/26/556
f 514/11/557 510/27/557 509/29/557
f 513/30/558 516/13/558 515/12/558
f 523/20/559 513/10/559 524/21/559
f 526/23/560 515/12/560 514/11/560
f 525/22/561 528/34/561 527/24/561
f 517/14/562 525/22/562 518/15/562
f 526/23/563 522/19/563 527/24/563
f 521/18/564 518/15/564 522/19/564
f 517/14/565 506/3/565 505/2/565
f 509/6/566 521/18/566 520/17/566
f 511/8/567 517/14/567 505/2/567
f 507/28/568 516/13/568 512/31/568
f 521/18/569 506/32/569 519/16/569
f 526/23/570 509/33/570 520/17/570
f 515/12/571 524/21/571 513/30/571
f 525/22/572 522/19/572 518/15/572
f 367/8/399 361/2/399 363/4/399
f 362/26/400 364/35/400 366/27/400
f 365/29/401 370/11/401 372/36/401
f 369/30/402 368/31/402 372/36/402
f 367/8/403 369/10/403 380/38/403
f 370/11/404 382/23/404 384/34/404
f 383/24/405 381/22/405 380/38/405
f 379/20/406 381/22/406 374/15/406
f 376/17/407 378/19/407 383/24/407
f 375/16/408 374/15/408 378/19/408
f 373/14/409 375/16/409 362/3/409
f 376/17/410 365/6/410 364/5/410
f 379/20/411 373/14/411 361/2/411
f 366/27/412 372/36/412 368/31/412
f 377/18/413 364/5/413 362/32/413
f 370/39/414 365/33/414 376/17/414
f 371/12/415 384/34/415 380/38/415
f 383/24/416 378/19/416 374/15/416
f 415/8/451 409/2/451 411/4/451
f 412/35/452 414/27/452 411/28/452
f 418/11/453 420/36/453 414/27/453
f 417/30/454 416/31/454 420/36/454
f 427/20/455 415/8/455 417/10/455
f 430/23/456 432/34/456 419/12/456
f 431/24/457 429/22/457 428/38/457
f 421/14/458 427/20/458 429/22/458
f 430/23/459 424/17/459 426/19/459
f 423/16/460 422/37/460 426/19/460
f 421/14/461 423/16/461 410/3/461
f 413/6/462 412/5/462 425/18/462
f 427/20/463 421/14/463 409/2/463
f 411/28/464 414/27/464 420/36/464
f 425/18/465 412/5/465 410/32/465
f 430/23/466 418/39/466 413/33/466
f 419/12/467 432/34/467 428/38/467
f 431/24/468 426/19/468 422/37/468
f 463/8/713 457/2/713 459/4/713
f 458/26/504 460/35/504 462/27/504
f 466/11/505 468/36/505 462/27/505
f 465/30/506 464/31/506 468/36/506
f 463/8/507 465/10/507 476/21/507
f 466/11/508 478/23/508 480/34/508
f 477/22/509 476/21/509 480/34/509
f 475/20/510 477/22/510 470/37/510
f 472/17/511 474/19/511 479/24/511
f 471/16/512 470/37/512 474/19/512
f 469/14/513 471/16/513 458/3/513
f 461/6/514 460/5/514 473/18/514
f 475/20/515 469/14/515 457/2/515
f 459/28/516 462/27/516 468/36/516
f 473/18/517 460/5/517 458/32/517
f 478/23/518 466/39/518 461/33/518
f 467/12/519 480/34/519 476/21/519
f 479/24/520 474/19/520 470/37/520
f 505/2/555 507/4/555 512/9/555
f 508/35/556 510/27/556 507/28/556
f 514/11/557 516/13/557 510/27/557
f 513/30/558 512/31/558 516/13/558
f 523/20/559 511/8/559 513/10/559
f 526/23/560 528/34/560 515/12/560
f 525/22/561 524/21/561 528/34/561
f 517/14/562 523/20/562 525/22/562
f 526/23/563 520/17/563 522/19/563
f 521/18/715 519/16/715 518/15/715
f 517/14/565 519/16/565 506/3/565
f 509/6/566 508/5/566 521/18/566
f 511/8/567 523/20/567 517/14/567
f 507/28/568 510/27/568 516/13/568
f 521/18/569 508/5/569 506/32/569
f 526/23/570 514/39/570 509/33/570
f 515/12/571 528/34/571 524/21/571
f 525/22/572 527/24/572 522/19/572
