# Blender 4.5.10 LTS
# www.blender.org
mtllib upgrade_bench_trestle.mtl
o upgrade_bench_trestle
v 0.494055 0.589691 -0.062436
v 0.494034 0.591352 -0.064412
v 0.508035 0.591531 -0.062466
v 0.492699 0.707979 -0.065542
v 0.492682 0.709678 -0.063599
v 0.506700 0.708158 -0.063596
v 0.494170 0.591011 0.073638
v 0.508150 0.592851 0.073608
v 0.494152 0.592710 0.075581
v 0.492797 0.710998 0.072475
v 0.492817 0.709337 0.074451
v 0.506815 0.709478 0.072478
v -0.477881 0.578575 -0.061507
v -0.491899 0.580095 -0.061510
v -0.477902 0.580236 -0.063483
v -0.479254 0.698562 -0.062669
v -0.479237 0.696863 -0.064613
v -0.493234 0.696722 -0.062640
v -0.477766 0.579895 0.074567
v -0.477784 0.581594 0.076511
v -0.491784 0.581415 0.074564
v -0.479139 0.699882 0.073404
v -0.493119 0.698042 0.073434
v -0.479119 0.698221 0.075380
v 0.305615 0.677100 -0.040236
v 0.308147 0.669908 -0.059842
v 0.295036 0.658947 -0.041285
v 0.502893 0.002554 -0.299283
v 0.484938 0.009618 -0.290649
v 0.498049 0.020579 -0.309207
v 0.302782 0.667505 -0.017655
v 0.293879 0.655029 -0.032065
v 0.301775 0.648329 -0.009062
v 0.500657 -0.005018 -0.281463
v 0.492252 0.000947 -0.263008
v 0.484356 0.007647 -0.286012
v 0.319545 0.665280 0.000345
v 0.308620 0.647421 -0.001712
v 0.331577 0.650027 0.008416
v 0.513886 -0.006774 -0.267257
v 0.518653 0.003096 -0.249183
v 0.495695 0.000490 -0.259311
v 0.343282 0.672102 0.000212
v 0.341269 0.652812 0.008361
v 0.362000 0.662762 -0.002013
v 0.532619 -0.001390 -0.267363
v 0.544259 0.014446 -0.259585
v 0.523528 0.004497 -0.249211
v 0.356118 0.682833 -0.017956
v 0.367241 0.667144 -0.009431
v 0.370135 0.676945 -0.032496
v 0.542748 0.007078 -0.281701
v 0.549789 0.026452 -0.286381
v 0.546895 0.016650 -0.263317
v 0.348387 0.689392 -0.040477
v 0.366979 0.679623 -0.041691
v 0.349856 0.681895 -0.060078
v 0.536647 0.012255 -0.299474
v 0.531079 0.030071 -0.309393
v 0.548202 0.027799 -0.291006
v 0.325912 0.686841 -0.050392
v 0.340679 0.680854 -0.064126
v 0.316434 0.673886 -0.063990
v 0.518910 0.010242 -0.307299
v 0.502217 0.022579 -0.311293
v 0.526463 0.029547 -0.311429
v 0.335672 0.692819 0.062268
v 0.327032 0.680359 0.076850
v 0.351512 0.685871 0.074243
v 0.515601 0.004219 0.295703
v 0.524714 0.023013 0.298952
v 0.500235 0.017500 0.301559
v 0.356996 0.694096 0.049873
v 0.360218 0.686393 0.069182
v 0.374988 0.683230 0.048976
v 0.532429 0.005227 0.285921
v 0.543863 0.020113 0.276200
v 0.529093 0.023275 0.296406
v 0.361727 0.687240 0.026622
v 0.376919 0.680431 0.039483
v 0.370857 0.670975 0.016894
v 0.536163 -0.000184 0.267572
v 0.538772 0.009249 0.248836
v 0.544834 0.018705 0.271425
v 0.346302 0.677415 0.010024
v 0.364559 0.666963 0.010116
v 0.342231 0.658334 0.002155
v 0.523990 -0.007938 0.254473
v 0.513276 -0.001398 0.237465
v 0.535605 0.007231 0.245427
v 0.322337 0.672018 0.012577
v 0.332445 0.656131 0.003197
v 0.310664 0.654827 0.015858
v 0.505077 -0.012197 0.256487
v 0.486573 -0.003811 0.250650
v 0.508354 -0.002506 0.237990
v 0.307878 0.675114 0.032358
v 0.304760 0.656091 0.023935
v 0.299928 0.663094 0.047684
v 0.493666 -0.009753 0.272099
v 0.478771 0.003828 0.278462
v 0.483603 -0.003175 0.254713
v 0.313812 0.684371 0.054473
v 0.302351 0.666873 0.056713
v 0.318107 0.676910 0.073668
v 0.498349 -0.002448 0.289551
v 0.495745 0.015765 0.299958
v 0.479990 0.005729 0.283004
v 0.500554 0.133826 -0.227645
v 0.500670 0.134731 -0.234075
v 0.501549 0.134646 -0.227621
v 0.501786 0.193037 -0.233467
v 0.501702 0.193811 -0.227019
v 0.502665 0.192953 -0.227013
v 0.493612 0.129295 0.219398
v 0.494607 0.130115 0.219422
v 0.493528 0.130069 0.225846
v 0.494760 0.189280 0.220024
v 0.494644 0.188375 0.226454
v 0.495724 0.188422 0.220030
v 0.432534 0.135138 -0.228688
v 0.431571 0.135997 -0.228694
v 0.432650 0.136043 -0.235118
v 0.433683 0.195124 -0.228062
v 0.433766 0.194350 -0.234510
v 0.432687 0.194303 -0.228086
v 0.425592 0.130607 0.218355
v 0.425508 0.131382 0.224803
v 0.424629 0.131466 0.218349
v 0.426741 0.190593 0.218981
v 0.425745 0.189772 0.218957
v 0.426625 0.189688 0.225411
v 0.390287 0.556662 -0.091597
v 0.390290 0.558888 -0.094268
v 0.391967 0.558903 -0.091606
v 0.390280 0.714406 -0.095090
v 0.390276 0.716660 -0.092442
v 0.391956 0.714420 -0.092428
v 0.390029 0.557638 0.093081
v 0.391709 0.559879 0.093071
v 0.390026 0.559892 0.095729
v 0.390019 0.717636 0.092235
v 0.390015 0.715410 0.094907
v 0.391699 0.715396 0.092249
v 0.273647 0.556654 -0.091759
v 0.271967 0.558893 -0.091773
v 0.273650 0.558879 -0.094431
v 0.273636 0.716651 -0.092605
v 0.273640 0.714397 -0.095253
v 0.271956 0.714411 -0.092595
v 0.273390 0.557630 0.092918
v 0.273386 0.559884 0.095566
v 0.271709 0.559869 0.092904
v 0.273379 0.717627 0.092073
v 0.271699 0.715387 0.092082
v 0.273375 0.715402 0.094744
v -0.355281 0.689413 -0.036215
v -0.365943 0.683074 -0.053206
v -0.369713 0.675722 -0.029370
v -0.543316 0.005482 -0.276877
v -0.550718 0.017359 -0.261035
v -0.546948 0.024710 -0.284871
v -0.348380 0.679794 -0.014539
v -0.366895 0.671795 -0.020519
v -0.350422 0.661442 -0.004460
v -0.537869 -0.002108 -0.259771
v -0.532828 0.005031 -0.240524
v -0.549301 0.015383 -0.256584
v -0.326222 0.671150 -0.007885
v -0.341375 0.657913 -0.001743
v -0.317065 0.652354 -0.005554
v -0.520383 -0.008931 -0.254519
v -0.503967 -0.002303 -0.242968
v -0.528278 0.003255 -0.239158
v -0.305493 0.669988 -0.021262
v -0.308601 0.651880 -0.011016
v -0.294759 0.655301 -0.031827
v -0.504024 -0.009847 -0.265076
v -0.485868 0.000880 -0.266527
v -0.499710 -0.002542 -0.245716
v -0.301803 0.677185 -0.044598
v -0.293252 0.658240 -0.041355
v -0.300302 0.668065 -0.063496
v -0.501111 -0.004167 -0.283493
v -0.492159 0.012183 -0.293460
v -0.485110 0.002358 -0.271320
v -0.317929 0.687321 -0.060320
v -0.306886 0.672203 -0.069915
v -0.329519 0.681033 -0.076712
v -0.513838 0.003831 -0.295900
v -0.518104 0.023094 -0.303486
v -0.495471 0.014264 -0.296689
v -0.341730 0.692762 -0.056589
v -0.339237 0.683255 -0.075189
v -0.360410 0.684441 -0.061525
v -0.532621 0.008126 -0.292956
v -0.544165 0.025398 -0.289056
v -0.522992 0.024212 -0.302720
v -0.355661 0.686308 0.027240
v -0.365017 0.670203 0.017460
v -0.371008 0.679732 0.040037
v -0.542051 0.001537 0.266788
v -0.550430 0.020559 0.270631
v -0.544439 0.011030 0.248054
v -0.350906 0.693062 0.050515
v -0.369067 0.682489 0.049540
v -0.354322 0.685392 0.069803
v -0.538297 0.006867 0.285157
v -0.534709 0.024848 0.295674
v -0.549453 0.021946 0.275411
v -0.329650 0.691428 0.062986
v -0.345643 0.684725 0.074895
v -0.321266 0.678815 0.077586
v -0.521523 0.005578 0.294999
v -0.505966 0.018603 0.300926
v -0.530343 0.024513 0.298235
v -0.307901 0.682637 0.055261
v -0.312386 0.675225 0.074432
v -0.296732 0.664954 0.057524
v -0.504359 -0.001360 0.288903
v -0.485846 0.006526 0.282431
v -0.501499 0.016797 0.299339
v -0.302036 0.673308 0.033158
v -0.294337 0.661145 0.048499
v -0.299195 0.654246 0.024725
v -0.499730 -0.008722 0.271459
v -0.489499 -0.002289 0.254117
v -0.484641 0.004610 0.277892
v -0.316471 0.670467 0.013320
v -0.305089 0.653086 0.016625
v -0.326800 0.654755 0.003886
v -0.511122 -0.010965 0.255803
v -0.514175 -0.001203 0.237305
v -0.492464 -0.002872 0.250043
v -0.340337 0.676252 0.010686
v -0.336545 0.657117 0.002811
v -0.358760 0.666097 0.010701
v -0.529956 -0.006399 0.253725
v -0.541292 0.008965 0.244654
v -0.519076 -0.000015 0.236764
v -0.425749 0.120071 -0.216534
v -0.425622 0.120812 -0.222985
v -0.424765 0.120905 -0.216528
v -0.425299 0.179124 -0.223872
v -0.425416 0.180063 -0.217446
v -0.424441 0.179218 -0.217415
v -0.434214 0.126915 0.230453
v -0.433230 0.127750 0.230459
v -0.434332 0.127854 0.236879
v -0.433881 0.186907 0.229541
v -0.434008 0.186166 0.235992
v -0.432906 0.186062 0.229572
v -0.493776 0.120428 -0.217828
v -0.494751 0.121273 -0.217859
v -0.493649 0.121170 -0.224279
v -0.493443 0.180421 -0.218740
v -0.493326 0.179482 -0.225166
v -0.494427 0.179586 -0.218746
v -0.502241 0.127273 0.229160
v -0.502358 0.128212 0.235585
v -0.503216 0.128118 0.229128
v -0.501908 0.187265 0.228247
v -0.502892 0.186431 0.228241
v -0.502035 0.186524 0.234698
v -0.267064 0.545551 -0.097276
v -0.267080 0.547835 -0.099898
v -0.265417 0.547814 -0.097228
v -0.269352 0.703316 -0.097303
v -0.269401 0.705511 -0.094606
v -0.267689 0.703296 -0.094633
v -0.268227 0.542452 0.087374
v -0.266579 0.544715 0.087423
v -0.268276 0.544646 0.090071
v -0.270563 0.702412 0.090044
v -0.270547 0.700128 0.092666
v -0.268851 0.700197 0.090018
v -0.383690 0.543860 -0.098039
v -0.385402 0.546075 -0.098012
v -0.383705 0.546144 -0.100661
v -0.386026 0.703820 -0.095369
v -0.385977 0.701625 -0.098066
v -0.387673 0.701556 -0.095417
v -0.384852 0.540761 0.086612
v -0.384901 0.542955 0.089309
v -0.386564 0.542976 0.086638
v -0.387189 0.700721 0.089282
v -0.388836 0.698457 0.089233
v -0.387173 0.698437 0.091904
v 0.006807 0.689375 0.075861
v 0.006800 0.691620 0.074968
v 0.007224 0.691705 0.075374
v 0.006624 0.853435 0.041499
v 0.006626 0.855851 0.041428
v 0.007049 0.853520 0.041906
v 0.007128 0.695281 0.104415
v 0.007545 0.697611 0.103928
v 0.007130 0.697697 0.104344
v 0.006947 0.861757 0.069982
v 0.006954 0.859512 0.070875
v 0.007370 0.859426 0.070460
v -0.022351 0.689409 0.076182
v -0.022774 0.691741 0.075704
v -0.022359 0.691655 0.075289
v -0.022532 0.855886 0.041749
v -0.022534 0.853470 0.041820
v -0.022950 0.853556 0.042236
v -0.022030 0.695316 0.104736
v -0.022028 0.697731 0.104665
v -0.022453 0.697647 0.104258
v -0.022211 0.861792 0.070303
v -0.022628 0.859462 0.070790
v -0.022204 0.859546 0.071196
v 0.092710 0.696297 -0.065231
v 0.092256 0.698667 -0.065378
v 0.092677 0.698699 -0.064959
v 0.061287 0.859891 -0.046620
v 0.060848 0.862166 -0.045932
v 0.061707 0.859923 -0.046201
v 0.093234 0.693027 -0.036259
v 0.093201 0.695429 -0.035988
v 0.092796 0.695302 -0.035572
v 0.061373 0.858896 -0.016961
v 0.061826 0.856527 -0.016814
v 0.062231 0.856653 -0.017230
v 0.064072 0.690808 -0.065332
v 0.063213 0.693051 -0.065063
v 0.063618 0.693177 -0.065479
v 0.032210 0.856677 -0.046034
v 0.032648 0.854402 -0.046721
v 0.032243 0.854276 -0.046305
v 0.064596 0.687538 -0.036361
v 0.064157 0.689813 -0.035673
v 0.063737 0.689781 -0.036092
v 0.032734 0.853407 -0.017062
v 0.032768 0.851005 -0.017334
v 0.033188 0.851037 -0.016915
v -0.065618 0.677936 -0.065850
v -0.065172 0.680304 -0.066039
v -0.064761 0.680185 -0.065627
v -0.034316 0.841857 -0.050148
v -0.033874 0.844144 -0.049501
v -0.033906 0.841739 -0.049735
v -0.065775 0.675111 -0.036828
v -0.064918 0.677360 -0.036604
v -0.065333 0.677397 -0.036181
v -0.034031 0.841319 -0.020479
v -0.034477 0.838951 -0.020290
v -0.034062 0.838914 -0.020713
v -0.094265 0.683370 -0.065476
v -0.094233 0.685776 -0.065241
v -0.093818 0.685738 -0.065665
v -0.062521 0.849578 -0.049127
v -0.062963 0.847292 -0.049774
v -0.063378 0.847329 -0.049350
v -0.094422 0.680546 -0.036453
v -0.093980 0.682832 -0.035806
v -0.094390 0.682951 -0.036219
v -0.062677 0.846753 -0.020104
v -0.063534 0.844505 -0.020328
v -0.063124 0.844386 -0.019915
v -0.097617 0.718457 0.004428
v -0.097412 0.702460 0.004641
v -0.081621 0.718659 0.004183
v -0.097617 0.718457 0.004428
v -0.081415 0.702662 0.004396
v -0.081621 0.718659 0.004183
v -0.097412 0.702460 0.004641
v -0.081415 0.702662 0.004396
v -0.085255 0.703233 0.050928
v -0.085460 0.719230 0.050715
v -0.085460 0.719230 0.050715
v -0.071408 0.719309 0.043064
v -0.071408 0.719309 0.043064
v -0.071203 0.703311 0.043277
v -0.071203 0.703311 0.043277
v -0.085255 0.703233 0.050928
v -0.052978 0.704118 0.086260
v -0.053183 0.720115 0.086046
v -0.053183 0.720115 0.086046
v -0.044296 0.720052 0.072742
v -0.044296 0.720052 0.072742
v -0.044091 0.704055 0.072955
v -0.044091 0.704055 0.072955
v -0.052978 0.704118 0.086260
v -0.007976 0.704912 0.102542
v -0.008181 0.720910 0.102328
v -0.008181 0.720910 0.102328
v -0.006494 0.720719 0.086419
v -0.006494 0.720719 0.086419
v -0.006289 0.704722 0.086632
v -0.006289 0.704722 0.086632
v -0.007976 0.704912 0.102542
v 0.039441 0.705434 0.096044
v 0.039236 0.721431 0.095831
v 0.039236 0.721431 0.095831
v 0.033336 0.721157 0.080961
v 0.033336 0.721157 0.080961
v 0.033541 0.705160 0.081174
v 0.033541 0.705160 0.081174
v 0.039441 0.705434 0.096044
v 0.078411 0.705563 0.068256
v 0.078206 0.721560 0.068043
v 0.078206 0.721560 0.068043
v 0.066071 0.721265 0.057619
v 0.066071 0.721265 0.057619
v 0.066276 0.705268 0.057832
v 0.066276 0.705268 0.057832
v 0.078411 0.705563 0.068256
v 0.100006 0.705270 0.025542
v 0.099801 0.721267 0.025329
v 0.099801 0.721267 0.025329
v 0.084211 0.721020 0.021739
v 0.084211 0.721020 0.021739
v 0.084416 0.705022 0.021953
v 0.084416 0.705022 0.021953
v 0.100006 0.705270 0.025542
v 0.099280 0.704623 -0.022311
v 0.099075 0.720620 -0.022524
v 0.099075 0.720620 -0.022524
v 0.083601 0.720476 -0.018457
v 0.083601 0.720476 -0.018457
v 0.083806 0.704479 -0.018244
v 0.083806 0.704479 -0.018244
v 0.099280 0.704623 -0.022311
v 0.076398 0.703769 -0.064341
v 0.076193 0.719766 -0.064555
v 0.076193 0.719766 -0.064555
v 0.064380 0.719759 -0.053763
v 0.064380 0.719759 -0.053763
v 0.064585 0.703761 -0.053550
v 0.064585 0.703761 -0.053550
v 0.076398 0.703769 -0.064341
v 0.036602 0.702904 -0.090920
v 0.036397 0.718902 -0.091134
v 0.036397 0.718902 -0.091134
v 0.030952 0.719032 -0.076089
v 0.030952 0.719032 -0.076089
v 0.031157 0.703035 -0.075876
v 0.031157 0.703035 -0.075876
v 0.036602 0.702904 -0.090920
v -0.010990 0.702227 -0.095959
v -0.011195 0.718224 -0.096172
v -0.011195 0.718224 -0.096172
v -0.009026 0.718463 -0.080322
v -0.009026 0.718463 -0.080322
v -0.008821 0.702466 -0.080109
v -0.008821 0.702466 -0.080109
v -0.010990 0.702227 -0.095959
v -0.055477 0.701892 -0.078303
v -0.055682 0.717889 -0.078516
v -0.055682 0.717889 -0.078516
v -0.046395 0.718182 -0.065491
v -0.046395 0.718182 -0.065491
v -0.046189 0.702185 -0.065278
v -0.046189 0.702185 -0.065278
v -0.055477 0.701892 -0.078303
v -0.086666 0.701976 -0.041997
v -0.086871 0.717973 -0.042210
v -0.086871 0.717973 -0.042210
v -0.072593 0.718253 -0.034994
v -0.072593 0.718253 -0.034994
v -0.072388 0.702255 -0.034781
v -0.072388 0.702255 -0.034781
v -0.086666 0.701976 -0.041997
v 0.008970 0.697175 0.001403
v -0.069550 0.749795 -0.059432
v 0.040665 0.751496 -0.091763
v 0.105424 0.754875 0.003055
v 0.035231 0.755262 0.093986
v -0.072909 0.752122 0.055366
v -0.021624 0.840018 -0.095380
v 0.086516 0.843157 -0.056760
v 0.083157 0.845485 0.058039
v -0.027058 0.843784 0.090369
v -0.091817 0.840404 -0.004449
v 0.004637 0.898105 -0.002797
v 0.027980 0.711465 -0.052989
v -0.036802 0.710466 -0.033986
v -0.018173 0.742395 -0.088748
v -0.084929 0.742763 -0.002268
v -0.038776 0.711834 0.033490
v 0.066045 0.713452 0.002743
v 0.084675 0.745381 -0.052018
v 0.024786 0.713679 0.056191
v 0.081481 0.747595 0.057162
v -0.023341 0.745976 0.087909
v -0.096044 0.794654 -0.037426
v -0.098018 0.796022 0.030050
v 0.009998 0.795426 -0.109878
v -0.054786 0.794426 -0.090875
v 0.111625 0.799258 -0.031444
v 0.073561 0.797272 -0.087177
v 0.068393 0.800853 0.089481
v 0.109651 0.800626 0.036032
v -0.059954 0.798008 0.085784
v 0.003609 0.799854 0.108484
v -0.067874 0.847685 -0.058556
v 0.036948 0.849303 -0.089303
v 0.098536 0.852517 0.000874
v 0.031780 0.852885 0.087354
v -0.071068 0.849899 0.050625
v -0.011179 0.881600 -0.057584
v -0.052438 0.881828 -0.004137
v 0.052383 0.883446 -0.034884
v 0.050409 0.884814 0.032592
v -0.014373 0.883814 0.051595
v -0.000861 0.707483 0.001372
v -0.049769 0.757257 -0.036625
v 0.020202 0.753199 -0.060107
v 0.064243 0.752985 -0.000741
v 0.021489 0.756910 0.059430
v -0.048973 0.759551 0.037252
v -0.014892 0.833522 -0.062223
v 0.055571 0.830881 -0.040045
v 0.056366 0.833175 0.033832
v -0.013605 0.837234 0.057314
v -0.057645 0.837448 -0.002052
v 0.007458 0.882949 -0.004165
v 0.010790 0.718951 -0.034278
v -0.030338 0.721336 -0.020476
v -0.017958 0.748207 -0.056612
v -0.058618 0.751941 0.000614
v -0.029871 0.722685 0.022948
v 0.036676 0.718825 0.000616
v 0.049057 0.745696 -0.035520
v 0.011546 0.721133 0.035984
v 0.049813 0.747878 0.034741
v -0.016734 0.751737 0.057073
v -0.063716 0.797728 -0.022489
v -0.063248 0.799076 0.020935
v 0.002542 0.793035 -0.071659
v -0.038586 0.795420 -0.057857
v 0.069846 0.791357 -0.023728
v 0.043959 0.791483 -0.058623
v 0.045183 0.795012 0.055063
v 0.070313 0.792705 0.019695
v -0.037362 0.798950 0.055830
v 0.004055 0.797398 0.068865
v -0.043215 0.842555 -0.037534
v 0.023331 0.838695 -0.059866
v 0.065215 0.838491 -0.003407
v 0.024555 0.842225 0.053819
v -0.042459 0.844736 0.032727
v -0.004948 0.869300 -0.038777
v -0.030078 0.871607 -0.003409
v 0.036468 0.867748 -0.025741
v 0.036936 0.869096 0.017683
v -0.004192 0.871481 0.031485
v -0.147155 0.696667 -0.037632
v -0.147346 0.697296 -0.038234
v -0.142617 0.697302 -0.039067
v -0.147416 0.741036 -0.038293
v -0.147227 0.741667 -0.037693
v -0.142688 0.741042 -0.039127
v -0.133974 0.696745 0.004075
v -0.129437 0.697380 0.002639
v -0.133785 0.697376 0.004675
v -0.134047 0.741745 0.004014
v -0.133856 0.741116 0.004615
v -0.129507 0.741120 0.002580
v -0.462272 0.696295 0.061958
v -0.466812 0.696920 0.063391
v -0.462463 0.696924 0.061356
v -0.462345 0.741295 0.061896
v -0.462534 0.740664 0.061297
v -0.466882 0.740660 0.063332
v -0.449091 0.696373 0.103664
v -0.448903 0.697004 0.104264
v -0.453631 0.696998 0.105098
v -0.449164 0.741373 0.103603
v -0.453701 0.740738 0.105038
v -0.448973 0.740744 0.104205
v -0.454823 0.706320 0.000843
v -0.455502 0.707425 -0.001300
v -0.453893 0.707442 0.000541
v -0.455801 0.785183 -0.001751
v -0.455131 0.786318 0.000379
v -0.454192 0.785200 0.000090
v -0.407996 0.707361 0.149142
v -0.407066 0.708483 0.148840
v -0.407326 0.708496 0.151271
v -0.408304 0.787359 0.148678
v -0.407625 0.786254 0.150820
v -0.407365 0.786241 0.148389
v -0.519705 0.706189 0.021331
v -0.520644 0.707307 0.021619
v -0.520384 0.707294 0.019188
v -0.520013 0.786187 0.020867
v -0.520683 0.785052 0.018737
v -0.520943 0.785065 0.021168
v -0.472878 0.707230 0.169630
v -0.472208 0.708365 0.171759
v -0.473817 0.708348 0.169919
v -0.473186 0.787228 0.169166
v -0.474116 0.786106 0.169467
v -0.472507 0.786123 0.171308
vn 0.0988 -0.7613 -0.6408
vn 0.0815 0.7508 -0.6555
vn 0.0999 -0.7487 0.6553
vn 0.0826 0.7634 0.6407
vn -0.0826 -0.7634 -0.6407
vn -0.0999 0.7487 -0.6553
vn -0.0815 -0.7508 0.6555
vn -0.0988 0.7613 0.6408
vn 0.1305 -0.9914 0.0095
vn 0.1378 -0.0080 -0.9904
vn 0.1078 0.9941 -0.0097
vn 0.1395 0.0112 0.9902
vn 0.0092 -0.7529 0.6581
vn -0.0081 0.7655 0.6434
vn -0.1378 0.0080 0.9904
vn -0.1078 -0.9941 0.0097
vn -0.1305 0.9914 -0.0095
vn -0.1395 -0.0112 -0.9902
vn 0.0081 -0.7655 -0.6434
vn -0.0092 0.7529 -0.6581
vn 0.0114 -0.9999 0.0097
vn 0.9999 0.0114 -0.0010
vn -0.0008 -0.0097 -1.0000
vn -0.0114 0.9999 -0.0097
vn 0.0008 0.0097 1.0000
vn -0.9999 -0.0114 0.0010
vn -0.8202 0.4947 -0.2873
vn -0.5275 -0.5141 -0.6763
vn -0.9030 0.2143 0.3724
vn -0.6097 -0.7924 -0.0215
vn -0.4132 0.1493 0.8983
vn -0.1235 -0.8569 0.5005
vn 0.2803 0.3486 0.8944
vn 0.5648 -0.6591 0.4966
vn 0.6553 0.6621 0.3636
vn 0.9371 -0.3479 -0.0302
vn 0.4294 0.8538 -0.2944
vn 0.7129 -0.1576 -0.6833
vn -0.2272 0.7793 -0.5841
vn 0.0611 -0.2316 -0.9709
vn -0.8620 0.4964 0.1028
vn -0.4938 -0.7763 -0.3918
vn -0.8127 -0.0140 -0.5825
vn -0.9123 -0.3511 0.2109
vn -0.6692 0.3329 0.6643
vn -0.3024 -0.9387 0.1657
vn -0.3233 -0.4293 0.8433
vn -0.1088 0.3965 0.9116
vn 0.2539 -0.8755 0.4111
vn 0.5107 -0.1896 0.8386
vn 0.3973 0.6394 0.6583
vn 0.7564 -0.6344 0.1597
vn 0.9616 0.1874 0.2003
vn 0.4679 0.8786 0.0953
vn 0.8265 -0.3968 -0.3993
vn 0.6900 0.4179 -0.5910
vn 0.0499 0.9341 -0.3535
vn 0.4115 -0.3418 -0.8449
vn -0.0996 0.3282 -0.9393
vn -0.5419 0.7640 -0.3502
vn -0.1761 -0.5106 -0.8416
vn -0.2569 0.9007 0.3505
vn -0.9577 -0.2011 -0.2056
vn -0.5068 0.1759 -0.8440
vn 0.2569 -0.9007 -0.3505
vn -0.6861 -0.4316 0.5856
vn 0.1035 -0.3420 0.9340
vn 0.8166 0.0003 0.5771
vn 0.9162 0.3374 -0.2162
vn 0.3272 0.4156 -0.8487
vn -0.1128 0.7874 0.6060
vn 0.1564 -0.2414 0.9577
vn 0.5102 0.8247 0.2439
vn 0.7748 -0.2044 0.5983
vn 0.6485 0.6244 -0.4354
vn 0.9120 -0.4032 -0.0760
vn 0.1978 0.3374 -0.9204
vn 0.4646 -0.6881 -0.5573
vn -0.5024 0.1797 -0.8458
vn -0.2303 -0.8446 -0.4833
vn -0.9248 0.2702 -0.2678
vn -0.6497 -0.7548 0.0904
vn -0.7514 0.5406 0.3783
vn -0.4776 -0.4864 0.7317
vn 0.1454 0.9271 0.3456
vn 0.4831 -0.3713 0.7929
vn 0.0269 0.3272 0.9446
vn 0.7761 0.3721 0.5091
vn 0.5059 0.8499 -0.1477
vn 0.8411 -0.4480 0.3032
vn 0.9423 0.1312 -0.3078
vn 0.3579 0.6190 -0.6991
vn 0.6941 -0.6771 -0.2442
vn 0.4004 -0.2140 -0.8910
vn -0.1871 0.4084 -0.8934
vn 0.1530 -0.8863 -0.4372
vn -0.4416 -0.4036 -0.8013
vn -0.7188 0.3766 -0.5844
vn -0.3749 -0.9179 -0.1304
vn -0.9496 -0.2948 -0.1063
vn -0.8368 0.5475 -0.0046
vn -0.4920 -0.7482 0.4452
vn -0.7411 0.0304 0.6707
vn -0.4522 0.7925 0.4092
vn -0.1101 -0.5049 0.8561
vn -0.2404 0.9167 -0.3192
vn 0.4453 0.3896 0.8062
vn -0.3967 0.2000 0.8959
vn 0.2404 -0.9167 0.3192
vn 0.9533 0.2809 0.1112
vn 0.7448 -0.0444 -0.6658
vn -0.0233 -0.3412 -0.9397
vn -0.7725 -0.3861 -0.5042
vn -0.9387 -0.1452 0.3127
vn 0.6345 -0.7669 -0.0965
vn 0.6634 0.7439 -0.0807
vn 0.6315 -0.7689 0.1006
vn 0.6604 0.7419 0.1163
vn -0.6603 -0.7419 -0.1163
vn -0.6314 0.7689 -0.1006
vn -0.6635 -0.7438 0.0807
vn -0.6345 0.7669 0.0965
vn 0.6361 -0.7716 0.0021
vn 0.9907 -0.0176 -0.1353
vn 0.6651 0.7465 0.0179
vn 0.9860 -0.0206 0.1656
vn -0.0210 -0.9927 0.1190
vn 0.0170 0.9901 0.1397
vn -0.9907 0.0176 0.1353
vn -0.6651 -0.7465 -0.0179
vn -0.6361 0.7716 -0.0021
vn -0.9860 0.0206 -0.1656
vn -0.0170 -0.9901 -0.1397
vn 0.0210 0.9927 -0.1190
vn -0.0191 -0.9998 -0.0104
vn 0.9997 -0.0193 0.0153
vn 0.0155 0.0101 -0.9998
vn 0.0191 0.9998 0.0104
vn -0.0155 -0.0101 0.9998
vn -0.9997 0.0193 -0.0153
vn 0.7147 -0.5378 -0.4471
vn 0.7146 0.5332 -0.4528
vn 0.7134 -0.5331 0.4548
vn 0.7134 0.5380 0.4491
vn -0.7134 -0.5380 -0.4491
vn -0.7134 0.5331 -0.4548
vn -0.7146 -0.5332 0.4528
vn -0.7147 0.5379 0.4471
vn 0.8001 -0.5999 0.0043
vn 0.8462 -0.0028 -0.5328
vn 0.8000 0.6000 -0.0021
vn 0.8447 0.0029 0.5352
vn -0.0008 -0.7615 0.6482
vn -0.0009 0.7683 0.6401
vn -0.8462 0.0028 0.5328
vn -0.8000 -0.6000 0.0021
vn -0.8000 0.6000 -0.0043
vn -0.8447 -0.0029 -0.5352
vn 0.0009 -0.7683 -0.6401
vn 0.0008 0.7615 -0.6482
vn 0.0001 -1.0000 0.0053
vn 1.0000 0.0001 0.0014
vn 0.0014 -0.0053 -1.0000
vn -0.0001 1.0000 -0.0053
vn -0.0014 0.0053 1.0000
vn -1.0000 -0.0001 -0.0014
vn -0.6498 0.7492 0.1283
vn -0.9337 -0.2728 -0.2318
vn -0.4482 0.4681 0.7615
vn -0.7336 -0.5517 0.3968
vn 0.1991 0.2156 0.9560
vn -0.0910 -0.8024 0.5898
vn 0.8048 0.1817 0.5651
vn 0.5101 -0.8361 0.2018
vn 0.9126 0.3919 -0.1166
vn 0.6171 -0.6274 -0.4749
vn 0.4414 0.6880 -0.5760
vn 0.1495 -0.3335 -0.9308
vn -0.2539 0.8470 -0.4670
vn -0.5407 -0.1757 -0.8226
vn -0.4739 0.7390 0.4788
vn -0.8351 -0.5497 0.0220
vn -0.9564 0.2852 -0.0633
vn -0.7139 -0.0527 0.6983
vn -0.0718 0.4863 0.8708
vn -0.4358 -0.8006 0.4111
vn 0.0646 -0.3565 0.9321
vn 0.5216 0.3506 0.7778
vn 0.1533 -0.9353 0.3188
vn 0.7929 -0.3973 0.4621
vn 0.8595 0.4341 0.2698
vn 0.4888 -0.8524 -0.1856
vn 0.9226 -0.1444 -0.3578
vn 0.6874 0.6739 -0.2706
vn 0.3179 -0.6143 -0.7222
vn 0.3560 0.2117 -0.9102
vn 0.1349 0.8895 -0.4366
vn -0.2306 -0.4003 -0.8869
vn -0.4802 0.4029 -0.7791
vn -0.3819 0.9184 -0.1030
vn -0.7437 -0.3716 -0.5557
vn 0.2587 0.9108 0.3218
vn -0.9265 0.1305 0.3529
vn -0.7968 0.3834 -0.4670
vn -0.2587 -0.9108 -0.3218
vn -0.3599 -0.2256 0.9053
vn 0.4763 -0.4168 0.7742
vn 0.9524 -0.2991 0.0584
vn 0.7100 0.0389 -0.7032
vn -0.0685 0.3426 -0.9370
vn -0.6367 0.6353 -0.4371
vn -0.9181 -0.3883 -0.0797
vn -0.4977 0.8326 0.2429
vn -0.7802 -0.1925 0.5952
vn 0.1232 0.7849 0.6073
vn -0.1638 -0.2398 0.9569
vn 0.7587 0.5280 0.3816
vn 0.4670 -0.4948 0.7329
vn 0.9300 0.2555 -0.2642
vn 0.6371 -0.7653 0.0919
vn 0.5083 0.1725 -0.8437
vn 0.2184 -0.8477 -0.4834
vn -0.1890 0.3415 -0.9207
vn -0.4737 -0.6799 -0.5598
vn -0.4916 0.8581 -0.1485
vn -0.8493 -0.4346 0.2997
vn -0.9390 0.1467 -0.3111
vn -0.7719 0.3840 0.5067
vn -0.1317 0.9289 0.3461
vn -0.4919 -0.3643 0.7907
vn -0.0251 0.3266 0.9448
vn 0.4634 0.7847 0.4118
vn 0.0988 -0.5075 0.8559
vn 0.7390 0.0178 0.6734
vn 0.8455 0.5339 -0.0010
vn 0.4782 -0.7565 0.4462
vn 0.9451 -0.3100 -0.1032
vn 0.7269 0.3655 -0.5813
vn 0.3605 -0.9237 -0.1300
vn 0.4380 -0.4098 -0.8001
vn 0.1970 0.4063 -0.8923
vn -0.1657 -0.8832 -0.4387
vn -0.4005 -0.2066 -0.8927
vn -0.3453 0.6255 -0.6997
vn -0.7041 -0.6656 -0.2475
vn 0.2564 0.9130 -0.3173
vn -0.9490 0.2961 0.1080
vn -0.7430 -0.0317 -0.6686
vn -0.2564 -0.9130 0.3173
vn -0.4419 0.3959 0.8050
vn 0.3966 0.1927 0.8975
vn 0.9351 -0.1607 0.3159
vn 0.7680 -0.3979 -0.5018
vn 0.0212 -0.3405 -0.9400
vn 0.6451 -0.7604 -0.0747
vn 0.6535 0.7506 -0.0977
vn 0.6414 -0.7574 0.1223
vn 0.6498 0.7536 0.0993
vn -0.6498 -0.7536 -0.0993
vn -0.6414 0.7574 -0.1223
vn -0.6536 -0.7505 0.0977
vn -0.6451 0.7604 0.0747
vn 0.6465 -0.7626 0.0239
vn 0.9913 -0.0075 -0.1316
vn 0.6549 0.7557 0.0008
vn 0.9856 -0.0029 0.1692
vn -0.0080 -0.9895 0.1444
vn 0.0031 0.9935 0.1142
vn -0.9913 0.0075 0.1316
vn -0.6549 -0.7558 -0.0008
vn -0.6464 0.7626 -0.0239
vn -0.9856 0.0029 -0.1692
vn -0.0031 -0.9935 -0.1142
vn 0.0080 0.9895 -0.1444
vn -0.0055 -0.9999 0.0152
vn 0.9998 -0.0053 0.0190
vn 0.0189 -0.0153 -0.9997
vn 0.0056 0.9999 -0.0152
vn -0.0189 0.0153 0.9997
vn -0.9998 0.0053 -0.0190
vn 0.7246 -0.5175 -0.4552
vn 0.7090 0.5533 -0.4373
vn 0.7189 -0.5326 0.4466
vn 0.7033 0.5382 0.4645
vn -0.7033 -0.5382 -0.4645
vn -0.7189 0.5326 -0.4466
vn -0.7090 -0.5533 0.4373
vn -0.7246 0.5175 0.4552
vn 0.8087 -0.5883 -0.0048
vn 0.8487 0.0212 -0.5284
vn 0.7911 0.6115 0.0152
vn 0.8420 0.0033 0.5394
vn 0.0071 -0.7755 0.6313
vn -0.0152 0.7539 0.6568
vn -0.8488 -0.0212 0.5284
vn -0.7912 -0.6114 -0.0152
vn -0.8087 0.5882 0.0048
vn -0.8420 -0.0033 -0.5394
vn 0.0152 -0.7539 -0.6568
vn -0.0071 0.7755 -0.6313
vn 0.0146 -0.9998 -0.0167
vn 0.9999 0.0145 0.0065
vn 0.0063 0.0168 -0.9998
vn -0.0146 0.9998 0.0167
vn -0.0063 -0.0168 0.9998
vn -0.9999 -0.0145 -0.0065
vn 0.6940 -0.2642 -0.6697
vn 0.6938 -0.0217 -0.7199
vn 0.7095 0.0200 0.7044
vn 0.7092 0.2625 0.6543
vn -0.7092 -0.2625 -0.6543
vn -0.7095 -0.0200 -0.7044
vn -0.6938 0.0217 0.7199
vn -0.6940 0.2642 0.6697
vn 0.9849 -0.1714 0.0244
vn 0.6993 -0.1441 -0.7002
vn 0.9845 0.1690 -0.0460
vn 0.7149 0.1424 0.6846
vn 0.0110 0.0293 0.9995
vn 0.0107 0.3696 0.9291
vn -0.6992 0.1441 0.7002
vn -0.9845 -0.1690 0.0460
vn -0.9849 0.1713 -0.0244
vn -0.7149 -0.1424 -0.6846
vn -0.0107 -0.3696 -0.9291
vn -0.0110 -0.0293 -0.9995
vn 0.0011 -0.9793 0.2025
vn 0.9999 -0.0012 -0.0110
vn -0.0110 -0.2025 -0.9792
vn -0.0011 0.9793 -0.2025
vn 0.0110 0.2025 0.9792
vn -0.9999 0.0012 0.0110
vn 0.6997 0.0900 -0.7087
vn 0.6533 0.3316 -0.6806
vn 0.7249 -0.0674 0.6855
vn 0.6785 0.1742 0.7136
vn -0.6785 -0.1742 -0.7136
vn -0.7249 0.0674 -0.6855
vn -0.6533 -0.3316 0.6806
vn -0.6997 -0.0900 0.7087
vn 0.9997 0.0158 -0.0163
vn 0.6817 0.2124 -0.7001
vn 0.9346 0.3549 0.0232
vn 0.7072 0.0538 0.7050
vn 0.0503 -0.2800 0.9587
vn -0.0149 0.0591 0.9981
vn -0.6818 -0.2124 0.7001
vn -0.9346 -0.3550 -0.0232
vn -0.9997 -0.0158 0.0163
vn -0.7072 -0.0538 -0.7050
vn 0.0149 -0.0591 -0.9981
vn -0.0503 0.2800 -0.9587
vn 0.1874 -0.9757 -0.1135
vn 0.9821 0.1883 0.0035
vn -0.0180 0.1121 -0.9935
vn -0.1874 0.9757 0.1135
vn 0.0180 -0.1121 0.9935
vn -0.9821 -0.1883 -0.0035
vn 0.6700 -0.1839 -0.7193
vn 0.7162 0.0583 -0.6955
vn 0.6624 -0.3198 0.6775
vn 0.7087 -0.0777 0.7012
vn -0.7086 0.0777 -0.7013
vn -0.6624 0.3198 -0.6774
vn -0.7162 -0.0583 0.6954
vn -0.6700 0.1838 0.7192
vn 0.9350 -0.3534 -0.0294
vn 0.6985 -0.0633 -0.7128
vn 0.9999 -0.0136 0.0041
vn 0.6909 -0.2003 0.6947
vn -0.0377 -0.2653 0.9634
vn 0.0272 0.0745 0.9969
vn -0.6985 0.0633 0.7128
vn -0.9999 0.0136 -0.0041
vn -0.9350 0.3534 0.0294
vn -0.6909 0.2003 -0.6947
vn -0.0272 -0.0745 -0.9969
vn 0.0377 0.2653 -0.9634
vn -0.1867 -0.9777 -0.0962
vn 0.9824 -0.1864 -0.0128
vn 0.0054 0.0969 -0.9953
vn 0.1867 0.9777 0.0962
vn -0.0054 -0.0969 0.9953
vn -0.9824 0.1864 0.0128
vn -0.9671 -0.0090 0.2542
vn -0.0128 0.9998 -0.0133
vn 0.9671 0.0090 -0.2542
vn 0.0128 -0.9998 0.0133
vn -0.7383 -0.0005 0.6745
vn 0.7383 0.0005 -0.6745
vn -0.3403 0.0082 0.9403
vn 0.3403 -0.0082 -0.9403
vn 0.1356 0.0149 0.9907
vn -0.1356 -0.0149 -0.9907
vn 0.5804 0.0183 0.8141
vn -0.5804 -0.0183 -0.8141
vn 0.8923 0.0175 0.4510
vn -0.8923 -0.0175 -0.4510
vn 0.9998 0.0126 -0.0154
vn -0.9998 -0.0126 0.0154
vn 0.8782 0.0049 -0.4782
vn -0.8782 -0.0049 0.4782
vn 0.5555 -0.0040 -0.8315
vn -0.5555 0.0040 0.8315
vn 0.1054 -0.0119 -0.9944
vn -0.1054 0.0119 0.9944
vn -0.3687 -0.0171 -0.9294
vn 0.3687 0.0171 0.9294
vn -0.7584 -0.0184 -0.6515
vn 0.7584 0.0184 0.6515
vn -0.9744 -0.0155 -0.2244
vn 0.9744 0.0155 0.2244
vn -0.0000 0.9998 -0.0208
vn -0.0000 1.0000 -0.0000
vn -0.0000 -1.0000 -0.0000
vn -0.0000 -0.0000 1.0000
vn -0.0000 1.0000 -0.0078
vn 0.8269 -0.5624 -0.0000
vn -1.0000 -0.0000 -0.0000
vn -0.0000 -1.0000 -0.0010
vn 0.9848 -0.0308 0.1707
vn -0.0000 0.9999 -0.0115
vn 1.0000 0.0002 -0.0000
vn -1.0000 -0.0004 -0.0000
vn 0.9399 -0.0000 -0.3414
vn 0.9981 0.0624 -0.0019
vn -0.9956 -0.0933 -0.0000
vn -0.0000 0.9666 0.2563
vn -0.0000 -0.0000 -1.0000
vn 0.8533 -0.1067 0.5104
vn -0.9511 -0.3089 -0.0000
vn -0.0659 -0.9592 -0.2750
vn -0.6510 -0.7121 -0.2628
vn 0.2743 -0.9493 -0.1535
vn 0.2638 -0.9420 0.2076
vn -0.0830 -0.9473 0.3093
vn -0.8801 -0.3807 -0.2836
vn 0.0105 -0.3749 -0.9270
vn 0.8972 -0.3423 -0.2790
vn 0.5546 -0.3278 0.7648
vn -0.5439 -0.3516 0.7620
vn -0.7810 -0.1659 -0.6021
vn 0.3364 -0.1486 -0.9299
vn 0.9929 -0.1143 0.0314
vn 0.2813 -0.1104 0.9532
vn -0.8150 -0.1423 0.5617
vn -0.3906 0.6710 -0.6303
vn 0.4548 0.6906 -0.5623
vn 0.6510 0.7121 0.2627
vn -0.0731 0.7057 0.7047
vn -0.7168 0.6803 0.1528
vn -0.2743 0.9493 0.1535
vn -0.4924 0.8143 0.3073
vn -0.4260 0.6955 0.5787
vn 0.0659 0.9592 0.2750
vn 0.1439 0.8328 0.5345
vn 0.4220 0.7134 0.5595
vn 0.2867 0.9580 -0.0110
vn 0.5570 0.8305 -0.0005
vn 0.6661 0.7017 -0.2529
vn 0.0830 0.9473 -0.3093
vn 0.1759 0.8106 -0.5585
vn -0.0309 0.6765 -0.7358
vn -0.2638 0.9420 -0.2076
vn -0.4726 0.8006 -0.3683
vn -0.7059 0.6727 -0.2218
vn -0.8972 0.3423 0.2790
vn -0.8128 0.1973 0.5481
vn -0.5980 0.3579 0.7172
vn -0.0105 0.3749 0.9270
vn 0.2708 0.2287 0.9351
vn 0.4988 0.3828 0.7776
vn 0.8801 0.3807 0.2836
vn 0.9741 0.2249 0.0239
vn 0.8957 0.3699 -0.2469
vn 0.5439 0.3516 -0.7620
vn 0.3252 0.1910 -0.9262
vn 0.0441 0.3371 -0.9404
vn -0.5546 0.3278 -0.7648
vn -0.7792 0.1740 -0.6022
vn -0.8790 0.3296 -0.3446
vn -0.3364 0.1486 0.9299
vn -0.3252 -0.1910 0.9262
vn -0.0441 -0.3371 0.9404
vn 0.7810 0.1659 0.6021
vn 0.7792 -0.1740 0.6022
vn 0.8790 -0.3296 0.3446
vn 0.8150 0.1423 -0.5617
vn 0.8128 -0.1973 -0.5481
vn 0.5980 -0.3579 -0.7172
vn -0.2813 0.1104 -0.9532
vn -0.2708 -0.2287 -0.9351
vn -0.4988 -0.3828 -0.7776
vn -0.9929 0.1143 -0.0314
vn -0.9741 -0.2249 -0.0239
vn -0.8957 -0.3699 0.2469
vn -0.4548 -0.6906 0.5623
vn -0.1759 -0.8106 0.5585
vn 0.0309 -0.6765 0.7358
vn 0.3906 -0.6710 0.6303
vn 0.4726 -0.8006 0.3683
vn 0.7059 -0.6727 0.2218
vn 0.7168 -0.6803 -0.1528
vn 0.4924 -0.8143 -0.3073
vn 0.4260 -0.6955 -0.5787
vn -0.6661 -0.7017 0.2529
vn -0.5570 -0.8305 0.0005
vn -0.2867 -0.9580 0.0110
vn 0.0731 -0.7057 -0.7047
vn -0.1439 -0.8328 -0.5345
vn -0.4220 -0.7134 -0.5595
vn -0.1715 -0.9201 -0.3520
vn -0.7925 -0.5485 -0.2666
vn 0.2789 -0.9370 -0.2103
vn 0.2840 -0.9224 0.2619
vn -0.1633 -0.8964 0.4120
vn -0.9379 -0.2337 -0.2563
vn -0.0483 -0.2979 -0.9534
vn 0.8904 -0.3224 -0.3212
vn 0.5810 -0.2735 0.7666
vn -0.5490 -0.2186 0.8067
vn -0.8150 -0.0804 -0.5738
vn 0.2921 -0.1446 -0.9454
vn 0.9890 -0.1480 -0.0060
vn 0.3125 -0.0859 0.9460
vn -0.8024 -0.0441 0.5951
vn -0.4251 0.5758 -0.6984
vn 0.5334 0.5316 -0.6579
vn 0.7925 0.5485 0.2666
vn -0.0059 0.6031 0.7976
vn -0.7584 0.6200 0.2012
vn -0.2789 0.9370 0.2103
vn -0.5195 0.7613 0.3881
vn -0.4104 0.6183 0.6703
vn 0.1715 0.9201 0.3520
vn 0.2545 0.7323 0.6317
vn 0.5470 0.5711 0.6121
vn 0.4448 0.8950 -0.0326
vn 0.7240 0.6891 -0.0292
vn 0.7862 0.5304 -0.3171
vn 0.1633 0.8964 -0.4120
vn 0.2403 0.6915 -0.6812
vn -0.0234 0.5525 -0.8332
vn -0.2840 0.9224 -0.2619
vn -0.5282 0.7361 -0.4233
vn -0.7629 0.6068 -0.2229
vn -0.8904 0.3224 0.3212
vn -0.7854 0.2069 0.5834
vn -0.5646 0.3209 0.7605
vn 0.0483 0.2979 0.9534
vn 0.3224 0.1654 0.9320
vn 0.5661 0.2679 0.7796
vn 0.9379 0.2337 0.2563
vn 0.9945 0.1037 -0.0139
vn 0.9320 0.2167 -0.2904
vn 0.5490 0.2186 -0.8067
vn 0.3021 0.1071 -0.9472
vn 0.0276 0.2381 -0.9708
vn -0.5810 0.2735 -0.7666
vn -0.7979 0.1709 -0.5781
vn -0.8973 0.3025 -0.3214
vn -0.2921 0.1446 0.9454
vn -0.3021 -0.1071 0.9472
vn -0.0276 -0.2381 0.9708
vn 0.8150 0.0804 0.5738
vn 0.7979 -0.1709 0.5781
vn 0.8973 -0.3025 0.3214
vn 0.8024 0.0441 -0.5951
vn 0.7854 -0.2069 -0.5834
vn 0.5646 -0.3209 -0.7605
vn -0.3125 0.0859 -0.9460
vn -0.3224 -0.1654 -0.9320
vn -0.5661 -0.2679 -0.7796
vn -0.9890 0.1480 0.0060
vn -0.9945 -0.1037 0.0139
vn -0.9320 -0.2167 0.2904
vn -0.5334 -0.5316 0.6579
vn -0.2403 -0.6915 0.6812
vn 0.0234 -0.5525 0.8332
vn 0.4251 -0.5758 0.6984
vn 0.5282 -0.7361 0.4233
vn 0.7629 -0.6068 0.2229
vn 0.7584 -0.6200 -0.2012
vn 0.5195 -0.7613 -0.3881
vn 0.4104 -0.6183 -0.6703
vn -0.7862 -0.5304 0.3171
vn -0.7240 -0.6891 0.0292
vn -0.4448 -0.8951 0.0326
vn 0.0059 -0.6031 -0.7976
vn -0.2545 -0.7323 -0.6317
vn -0.5470 -0.5711 -0.6121
vn -0.1222 -0.7052 -0.6984
vn -0.1244 0.7029 -0.7003
vn 0.3022 -0.7027 0.6442
vn 0.2998 0.7054 0.6422
vn -0.2999 -0.7054 -0.6422
vn -0.3021 0.7027 -0.6442
vn 0.1244 -0.7029 0.7003
vn 0.1222 0.7052 0.6984
vn 0.1267 -0.9912 -0.0382
vn -0.1736 -0.0016 -0.9848
vn 0.1235 0.9915 -0.0409
vn 0.4239 0.0019 0.9057
vn 0.2142 -0.7059 0.6752
vn 0.2119 0.7084 0.6733
vn 0.1736 0.0016 0.9848
vn -0.1235 -0.9915 0.0409
vn -0.1267 0.9912 0.0382
vn -0.4239 -0.0019 -0.9057
vn -0.2119 -0.7084 -0.6733
vn -0.2142 0.7058 -0.6752
vn 0.0016 -1.0000 0.0014
vn 0.9535 0.0011 -0.3013
vn -0.3013 -0.0018 -0.9535
vn -0.0016 1.0000 -0.0014
vn 0.3013 0.0018 0.9535
vn -0.9535 -0.0011 0.3013
vn 0.5898 -0.6262 -0.5099
vn 0.5850 0.6247 -0.5171
vn 0.7782 -0.6220 0.0866
vn 0.7734 0.6290 0.0793
vn -0.7734 -0.6289 -0.0793
vn -0.7782 0.6220 -0.0866
vn -0.5851 -0.6247 0.5171
vn -0.5899 0.6261 0.5098
vn 0.7202 -0.6570 -0.2228
vn 0.7530 -0.0009 -0.6581
vn 0.7152 0.6599 -0.2304
vn 0.9943 0.0044 0.1064
vn 0.1381 -0.8914 0.4316
vn 0.1312 0.8974 0.4213
vn -0.7529 0.0009 0.6581
vn -0.7151 -0.6600 0.2304
vn -0.7202 0.6570 0.2228
vn -0.9943 -0.0044 -0.1063
vn -0.1312 -0.8974 -0.4212
vn -0.1381 0.8914 -0.4316
vn 0.0039 -1.0000 0.0058
vn 0.9536 0.0019 -0.3011
vn -0.3011 -0.0067 -0.9536
vn -0.0039 1.0000 -0.0058
vn 0.3011 0.0067 0.9536
vn -0.9536 -0.0019 0.3011
vn -0.2569 0.9006 0.3505
vn -0.5068 0.1759 -0.8439
vn 0.2569 -0.9006 -0.3505
vn 0.1036 -0.3420 0.9340
vn -0.3749 -0.9179 -0.1303
vn 0.6360 -0.7716 0.0021
vn -0.6652 -0.7465 -0.0179
vn -0.6360 0.7716 -0.0021
vn 0.8000 -0.5999 0.0043
vn 0.8000 0.6001 -0.0021
vn -0.7999 -0.6001 0.0021
vn -0.8001 0.5999 -0.0043
vn -0.8351 -0.5497 0.0219
vn 0.3180 -0.6143 -0.7221
vn 0.1350 0.8895 -0.4366
vn -0.8493 -0.4347 0.2997
vn -0.1316 0.9289 0.3461
vn -0.4920 -0.3643 0.7907
vn 0.3967 0.1927 0.8975
vn 0.6464 -0.7626 0.0239
vn -0.6549 -0.7557 -0.0008
vn -0.6465 0.7626 -0.0239
vn -0.0031 -0.9934 -0.1142
vn 0.0055 0.9999 -0.0152
vn 0.8488 0.0212 -0.5284
vn 0.7912 0.6114 0.0152
vn -0.8487 -0.0212 0.5284
vn -0.7911 -0.6115 -0.0152
vn -0.8087 0.5883 0.0048
vn 0.9849 -0.1713 0.0244
vn -0.6993 0.1441 0.7002
vn -0.9849 0.1714 -0.0244
vn 0.9346 0.3550 0.0232
vn -0.6817 -0.2124 0.7001
vn 0.6984 -0.0633 -0.7129
vn -0.0000 -0.9991 0.0414
vn 0.7567 0.6536 -0.0123
vn -0.9468 -0.3220 -0.0000
vn 0.8047 0.5937 -0.0067
vn -0.7990 0.6014 -0.0044
vn 1.0000 -0.0000 -0.0000
vn -0.0000 0.0369 0.9993
vn -0.0000 -0.9999 0.0110
vn -0.9988 -0.0482 -0.0000
vn -0.9604 -0.0000 -0.2787
vn -0.9987 0.0519 -0.0013
vn 0.9987 -0.0508 0.0012
vn -0.9083 0.4181 -0.0143
vn -0.0000 1.0000 -0.0051
vn -0.0092 1.0000 -0.0000
vn -0.2776 -0.0000 0.9607
vn 0.8386 -0.5447 -0.0000
vn 0.9478 0.3189 -0.0000
vn -0.0000 -1.0000 0.0039
vn 0.4238 0.0019 0.9057
vn 0.2143 -0.7058 0.6752
vn 0.2120 0.7083 0.6733
vn -0.2120 -0.7084 -0.6732
vn -0.2142 0.7059 -0.6752
vn 0.7529 -0.0009 -0.6581
vn 0.7151 0.6600 -0.2304
vn 0.9943 0.0044 0.1063
vn -0.7151 -0.6599 0.2304
vn -0.9943 -0.0044 -0.1064
vn -0.1312 -0.8974 -0.4213
vt 0.128500 0.746500
vt 0.128500 0.750000
vt 0.125000 0.746500
vt 0.621500 0.996500
vt 0.625000 0.996500
vt 0.621500 1.000000
vt 0.128500 0.503500
vt 0.125000 0.503500
vt 0.128500 0.500000
vt 0.625000 0.250015
vt 0.621500 0.253500
vt 0.621500 0.246501
vt 0.371500 0.746500
vt 0.378499 0.746500
vt 0.378362 0.753431
vt 0.628431 0.746638
vt 0.621500 0.753500
vt 0.621500 0.746501
vt 0.371500 0.503500
vt 0.378362 0.496569
vt 0.378499 0.503500
vt 0.628431 0.503363
vt 0.621500 0.503500
vt 0.621500 0.496501
vt 0.621500 0.000000
vt 0.378500 0.003500
vt 0.378500 0.000000
vt 0.621500 0.003500
vt 0.625000 0.003500
vt 0.378500 0.246500
vt 0.378500 0.996500
vt 0.871500 0.503500
vt 0.378500 0.253500
vt 0.750000 0.405243
vt 0.681051 0.456562
vt 0.818949 0.456562
vt 0.250000 0.391860
vt 0.329388 0.451769
vt 0.170612 0.451769
vt 0.871374 0.346792
vt 0.868507 0.432696
vt 0.954486 0.324882
vt 0.360911 0.338448
vt 0.457247 0.313733
vt 0.358251 0.437869
vt 0.901351 0.215455
vt 0.966726 0.271256
vt 0.936040 0.136815
vt 0.388303 0.218433
vt 0.429044 0.127704
vt 0.464375 0.282500
vt 0.817357 0.110131
vt 0.901745 0.093810
vt 0.777503 0.033978
vt 0.311551 0.122189
vt 0.266018 0.033767
vt 0.409070 0.102658
vt 0.682643 0.110131
vt 0.722497 0.033978
vt 0.598255 0.093810
vt 0.188449 0.122189
vt 0.090930 0.102658
vt 0.233982 0.033767
vt 0.598649 0.215455
vt 0.563960 0.136815
vt 0.533274 0.271256
vt 0.111697 0.218433
vt 0.035625 0.282500
vt 0.070956 0.127704
vt 0.628626 0.346792
vt 0.545514 0.324882
vt 0.631493 0.432696
vt 0.139089 0.338448
vt 0.141749 0.437869
vt 0.042753 0.313733
vt 0.060463 0.990654
vt 0.000000 0.509378
vt 0.052533 0.509346
vt 0.804610 0.509346
vt 0.917605 0.990654
vt 0.796680 0.990654
vt 0.653823 0.990654
vt 0.766819 0.509345
vt 0.774748 0.990654
vt 0.510966 0.990654
vt 0.623962 0.509346
vt 0.631891 0.990654
vt 0.376038 0.509346
vt 0.489034 0.990654
vt 0.368109 0.990654
vt 0.233181 0.509346
vt 0.346177 0.990654
vt 0.225252 0.990654
vt 0.090324 0.509346
vt 0.203320 0.990654
vt 0.082394 0.990654
vt 0.939537 0.990654
vt 0.909676 0.509346
vt 0.947467 0.509346
vt 0.661753 0.509345
vt 0.481105 0.509346
vt 0.518896 0.509346
vt 0.338247 0.509346
vt 0.195390 0.509346
vt 0.360911 0.338448
vt 0.901351 0.215455
vt 0.378499 0.746500
vt 0.378362 0.496569
vt 0.817357 0.110131
vt 0.628626 0.346792
vt 0.871374 0.346792
vt 0.360911 0.338448
vt 0.000000 0.990687
vt 0.871500 0.746500
vt 0.621500 0.246501
vt 0.538462 0.375000
vt 0.615385 0.625000
vt 0.538462 0.625000
vt 0.615385 0.625000
vt 0.538462 0.875000
vt 0.538462 0.625000
vt 0.615385 0.000000
vt 0.538462 0.125000
vt 0.538462 0.000000
vt 0.538462 0.125000
vt 0.615385 0.375000
vt 0.692308 0.375000
vt 0.615385 0.375000
vt 0.692308 0.875000
vt 0.615385 0.875000
vt 0.692308 0.000000
vt 0.615385 0.125000
vt 0.692308 0.125000
vt 0.615385 0.125000
vt 0.769231 0.375000
vt 0.692308 0.625000
vt 0.769231 0.625000
vt 0.692308 0.625000
vt 0.769231 0.000000
vt 0.692308 0.125000
vt 0.769231 0.375000
vt 0.692308 0.375000
vt 0.846154 0.625000
vt 0.769231 0.625000
vt 0.846154 0.625000
vt 0.769231 0.875000
vt 0.846154 0.125000
vt 0.769231 0.125000
vt 0.846154 0.125000
vt 0.769231 0.125000
vt 0.923077 0.375000
vt 0.846154 0.375000
vt 0.923077 0.625000
vt 0.846154 0.875000
vt 0.846154 0.000000
vt 0.923077 0.125000
vt 0.923077 0.375000
vt 0.846154 0.375000
vt 1.000000 0.625000
vt 0.923077 0.625000
vt 0.923077 0.875000
vt 1.000000 0.000000
vt 0.923077 0.000000
vt 1.000000 0.125000
vt 0.923077 0.125000
vt 0.076923 0.375000
vt -0.000000 0.625000
vt -0.000000 0.375000
vt 0.076923 0.625000
vt -0.000000 0.875000
vt -0.000000 0.625000
vt 0.076923 0.000000
vt -0.000000 0.125000
vt -0.000000 0.000000
vt 0.076923 0.375000
vt -0.000000 0.375000
vt 0.153846 0.625000
vt 0.076923 0.625000
vt 0.153846 0.625000
vt 0.076923 0.875000
vt 0.153846 0.000000
vt 0.076923 0.125000
vt 0.153846 0.125000
vt 0.076923 0.125000
vt 0.230769 0.375000
vt 0.153846 0.375000
vt 0.230769 0.625000
vt 0.153846 0.875000
vt 0.230769 0.125000
vt 0.153846 0.125000
vt 0.230769 0.125000
vt 0.153846 0.375000
vt 0.307692 0.625000
vt 0.230769 0.625000
vt 0.307692 0.625000
vt 0.230769 0.875000
vt 0.230769 0.000000
vt 0.307692 0.125000
vt 0.307692 0.125000
vt 0.230769 0.375000
vt 0.307692 0.375000
vt 0.384615 0.625000
vt 0.384615 0.625000
vt 0.307692 0.875000
vt 0.384615 0.000000
vt 0.307692 0.000000
vt 0.384615 0.375000
vt 0.307692 0.375000
vt 0.461538 0.375000
vt 0.384615 0.375000
vt 0.461538 0.625000
vt 0.384615 0.875000
vt 0.461538 0.000000
vt 0.384615 0.125000
vt 0.461538 0.125000
vt 0.384615 0.125000
vt 0.461538 0.625000
vt 0.461539 0.875000
vt 0.461538 0.125000
vt 0.461538 0.375000
vt 0.615385 0.875000
vt 0.538462 0.875000
vt 0.461538 0.875000
vt 0.769231 0.875000
vt 0.846154 0.875000
vt 0.923077 0.875000
vt 1.000000 0.375000
vt 1.000000 0.875000
vt 0.076923 0.875000
vt 0.153846 0.875000
vt 0.230769 0.875000
vt 0.307692 0.875000
vt 0.384615 0.875000
vt 0.181819 0.000000
vt 0.227273 0.078731
vt 0.136365 0.078731
vt 0.272728 0.157461
vt 0.318182 0.078731
vt 0.363637 0.157461
vt 0.909091 0.000000
vt 0.954545 0.078731
vt 0.863636 0.078731
vt 0.727273 0.000000
vt 0.772727 0.078731
vt 0.681818 0.078731
vt 0.545455 0.000000
vt 0.590909 0.078731
vt 0.500000 0.078731
vt 0.318182 0.236191
vt 0.090910 0.157461
vt 0.181819 0.157461
vt 0.136365 0.236191
vt 0.818182 0.157461
vt 0.909091 0.157461
vt 0.863636 0.236191
vt 0.636364 0.157461
vt 0.727273 0.157461
vt 0.681818 0.236191
vt 0.454546 0.157461
vt 0.545455 0.157461
vt 0.500000 0.236191
vt 0.227273 0.236191
vt 0.045455 0.236191
vt 0.772727 0.236191
vt 0.590909 0.236191
vt 0.409092 0.236191
vt 0.181819 0.314921
vt 0.272728 0.314921
vt 0.227273 0.393651
vt 0.000000 0.314921
vt 0.090910 0.314921
vt 0.045455 0.393651
vt 0.727273 0.314921
vt 0.818182 0.314921
vt 0.772727 0.393651
vt 0.545455 0.314921
vt 0.636364 0.314921
vt 0.590909 0.393651
vt 0.363637 0.314921
vt 0.454546 0.314921
vt 0.409092 0.393651
vt 0.500000 0.393651
vt 0.454546 0.472382
vt 0.681818 0.393651
vt 0.636364 0.472382
vt 0.863636 0.393651
vt 0.818182 0.472382
vt 0.909091 0.314921
vt 0.136365 0.393651
vt 0.090910 0.472382
vt 0.318182 0.393651
vt 0.272728 0.472382
vt 0.954545 0.236191
vt 1.000000 0.157461
vt 0.409092 0.078731
vt 0.363637 0.000000
vt 0.621500 0.496501
vt 1.000000 0.875000
vt 1.000000 0.125000
vt 1.000000 0.375000
s 0
usemtl wood
f 1/1/1 2/2/1 3/3/1
f 4/4/2 5/5/2 6/6/2
f 7/7/3 8/8/3 9/9/3
f 10/10/4 11/11/4 12/12/4
f 13/13/5 14/14/5 15/15/5
f 16/16/6 17/17/6 18/18/6
f 19/19/7 20/20/7 21/21/7
f 22/22/8 23/23/8 24/24/8
f 1/1/9 8/8/9 7/7/9
f 4/25/10 3/26/10 2/27/10
f 10/10/11 6/28/11 5/29/11
f 11/11/12 8/30/12 12/12/12
f 7/7/13 20/20/13 19/19/13
f 10/10/14 24/24/14 11/11/14
f 23/23/15 20/20/15 24/24/15
f 19/19/16 14/14/16 13/13/16
f 16/16/17 23/23/17 22/22/17
f 15/15/18 18/18/18 17/17/18
f 13/13/19 2/2/19 1/1/19
f 16/16/20 4/4/20 17/17/20
f 19/19/21 1/1/21 7/7/21
f 6/28/22 8/30/22 3/26/22
f 15/15/23 4/4/23 2/31/23
f 10/32/24 16/16/24 22/22/24
f 11/11/25 20/20/25 9/33/25
f 23/23/26 14/14/26 21/21/26
f 25/34/27 26/35/27 27/36/27
f 28/37/28 29/38/28 30/39/28
f 31/40/29 32/41/29 33/42/29
f 34/43/30 35/44/30 36/45/30
f 37/46/31 38/47/31 39/48/31
f 40/49/32 41/50/32 42/51/32
f 43/52/33 44/53/33 45/54/33
f 46/55/34 47/56/34 48/57/34
f 49/58/35 50/59/35 51/60/35
f 52/61/36 53/62/36 54/63/36
f 55/64/37 56/65/37 57/66/37
f 58/67/38 59/68/38 60/69/38
f 61/70/39 62/71/39 63/72/39
f 64/73/40 65/74/40 66/75/40
f 32/41/41 25/34/41 27/36/41
f 29/38/42 34/43/42 36/45/42
f 30/76/43 27/77/43 26/78/43
f 33/79/44 36/80/44 35/81/44
f 33/42/45 37/46/45 31/40/45
f 35/44/46 40/49/46 42/51/46
f 41/82/47 38/83/47 42/84/47
f 44/53/48 37/46/48 39/48/48
f 48/57/49 40/49/49 46/55/49
f 47/85/50 44/86/50 48/87/50
f 50/59/51 43/52/51 45/54/51
f 47/56/52 52/61/52 54/63/52
f 51/88/53 54/89/53 53/90/53
f 51/60/54 55/64/54 49/58/54
f 53/62/55 58/67/55 60/69/55
f 57/91/56 60/92/56 59/93/56
f 57/66/57 61/70/57 55/64/57
f 59/68/58 64/73/58 66/75/58
f 63/94/59 66/95/59 65/96/59
f 63/72/60 25/34/60 61/70/60
f 65/74/61 28/37/61 30/39/61
f 31/40/62 43/52/62 55/64/62
f 29/97/63 32/98/63 27/99/63
f 63/94/64 30/76/64 26/78/64
f 28/37/65 58/67/65 46/55/65
f 35/81/66 38/83/66 33/79/66
f 39/100/67 48/87/67 44/86/67
f 47/85/68 50/101/68 45/102/68
f 51/88/69 60/92/69 56/103/69
f 57/91/70 66/95/70 62/104/70
f 67/34/71 68/35/71 69/36/71
f 70/37/72 71/38/72 72/39/72
f 73/40/73 74/41/73 75/42/73
f 76/105/74 77/44/74 78/45/74
f 79/106/75 80/47/75 81/48/75
f 82/49/76 83/50/76 84/51/76
f 85/52/77 86/53/77 87/54/77
f 88/55/78 89/56/78 90/57/78
f 91/58/79 92/59/79 93/60/79
f 94/61/80 95/62/80 96/63/80
f 97/64/81 98/65/81 99/66/81
f 100/67/82 101/68/82 102/69/82
f 103/70/83 104/71/83 105/72/83
f 106/73/84 107/74/84 108/75/84
f 69/36/85 73/40/85 67/34/85
f 78/45/86 70/37/86 76/105/86
f 72/76/87 69/77/87 68/78/87
f 75/79/88 78/80/88 77/81/88
f 80/47/89 73/40/89 75/42/89
f 84/51/90 76/105/90 82/49/90
f 81/100/91 84/84/91 83/82/91
f 86/53/92 79/106/92 81/48/92
f 83/50/93 88/55/93 90/57/93
f 89/85/94 86/86/94 90/87/94
f 92/59/95 85/52/95 87/54/95
f 89/56/96 94/61/96 96/63/96
f 93/88/97 96/89/97 95/90/97
f 98/65/98 91/58/98 93/60/98
f 95/62/99 100/67/99 102/69/99
f 99/91/100 102/92/100 101/93/100
f 104/71/101 97/64/101 99/66/101
f 108/75/102 100/67/102 106/73/102
f 105/94/103 108/95/103 107/96/103
f 105/72/104 67/34/104 103/70/104
f 72/39/105 106/73/105 70/37/105
f 73/40/106 85/52/106 97/64/106
f 71/97/107 74/98/107 69/99/107
f 105/94/108 72/76/108 68/78/108
f 70/37/109 100/67/109 88/55/109
f 77/81/110 80/83/110 75/79/110
f 81/100/111 90/87/111 86/86/111
f 89/85/112 92/101/112 87/102/112
f 95/90/113 98/103/113 93/88/113
f 101/93/114 104/104/114 99/91/114
f 109/1/115 110/2/115 111/3/115
f 112/4/116 113/5/116 114/6/116
f 115/7/117 116/8/117 117/9/117
f 118/10/118 119/11/118 120/12/118
f 121/13/119 122/107/119 123/15/119
f 124/16/120 125/17/120 126/18/120
f 127/19/121 128/20/121 129/21/121
f 130/22/122 131/23/122 132/24/122
f 115/7/123 111/3/123 116/8/123
f 112/25/124 111/26/124 110/27/124
f 118/10/125 114/28/125 113/29/125
f 119/11/126 116/30/126 120/12/126
f 115/7/127 128/20/127 127/19/127
f 130/22/128 119/11/128 118/10/128
f 129/21/129 132/24/129 131/23/129
f 127/19/130 122/107/130 121/13/130
f 130/22/131 126/18/131 131/23/131
f 123/15/132 126/18/132 125/17/132
f 121/13/133 110/2/133 109/1/133
f 113/5/134 125/17/134 124/16/134
f 127/19/135 109/1/135 115/7/135
f 114/28/136 116/30/136 111/26/136
f 125/17/137 110/31/137 123/15/137
f 118/32/138 124/16/138 130/22/138
f 117/33/139 132/24/139 128/20/139
f 131/23/140 122/107/140 129/21/140
f 157/34/167 158/35/167 159/36/167
f 160/37/168 161/38/168 162/39/168
f 163/40/169 164/41/169 165/42/169
f 166/105/170 167/44/170 168/45/170
f 169/106/171 170/47/171 171/48/171
f 172/49/172 173/50/172 174/51/172
f 175/109/173 176/53/173 177/54/173
f 178/55/174 179/56/174 180/57/174
f 181/58/175 182/59/175 183/60/175
f 184/61/176 185/62/176 186/63/176
f 187/64/177 188/65/177 189/66/177
f 190/67/178 191/68/178 192/69/178
f 193/110/179 194/71/179 195/72/179
f 196/73/180 197/74/180 198/75/180
f 159/36/181 163/40/181 157/34/181
f 161/38/182 166/105/182 168/45/182
f 162/76/183 159/77/183 158/78/183
f 165/79/184 168/80/184 167/81/184
f 170/47/185 163/40/185 165/42/185
f 167/44/186 172/49/186 174/51/186
f 171/100/187 174/84/187 173/82/187
f 176/53/188 169/106/188 171/48/188
f 180/57/189 172/49/189 178/55/189
f 179/85/190 176/86/190 180/87/190
f 182/59/191 175/109/191 177/54/191
f 186/63/192 178/55/192 184/61/192
f 183/88/193 186/89/193 185/90/193
f 188/65/194 181/58/194 183/60/194
f 192/69/195 184/61/195 190/67/195
f 189/91/196 192/92/196 191/93/196
f 189/66/197 193/110/197 187/64/197
f 198/75/198 190/67/198 196/73/198
f 195/94/199 198/95/199 197/96/199
f 195/72/200 157/34/200 193/110/200
f 197/74/201 160/37/201 162/39/201
f 163/40/202 175/109/202 187/64/202
f 159/99/203 168/80/203 164/98/203
f 195/94/204 162/76/204 158/78/204
f 160/37/205 190/67/205 178/55/205
f 167/81/206 170/83/206 165/79/206
f 171/100/207 180/87/207 176/86/207
f 179/85/208 182/101/208 177/102/208
f 183/88/209 192/92/209 188/103/209
f 189/91/210 198/95/210 194/104/210
f 199/34/211 200/35/211 201/36/211
f 202/37/212 203/38/212 204/39/212
f 205/111/213 206/41/213 207/42/213
f 208/112/214 209/44/214 210/45/214
f 211/106/215 212/47/215 213/48/215
f 214/49/216 215/50/216 216/51/216
f 217/52/217 218/53/217 219/54/217
f 220/55/218 221/56/218 222/57/218
f 223/58/219 224/59/219 225/60/219
f 226/61/220 227/62/220 228/63/220
f 229/64/221 230/65/221 231/66/221
f 232/67/222 233/68/222 234/69/222
f 235/70/223 236/71/223 237/72/223
f 238/73/224 239/74/224 240/75/224
f 206/41/225 199/34/225 201/36/225
f 203/38/226 208/112/226 210/45/226
f 200/78/227 203/113/227 201/77/227
f 207/79/228 210/80/228 209/81/228
f 207/42/229 211/106/229 205/111/229
f 216/51/230 208/112/230 214/49/230
f 215/82/231 212/83/231 216/84/231
f 218/53/232 211/106/232 213/48/232
f 222/57/233 214/49/233 220/55/233
f 219/102/234 222/87/234 221/85/234
f 224/59/235 217/52/235 219/54/235
f 228/63/236 220/55/236 226/61/236
f 227/90/237 224/101/237 228/89/237
f 230/65/238 223/58/238 225/60/238
f 227/62/239 232/67/239 234/69/239
f 231/91/240 234/92/240 233/93/240
f 236/71/241 229/64/241 231/66/241
f 233/68/242 238/73/242 240/75/242
f 237/94/243 240/95/243 239/96/243
f 237/72/244 199/34/244 235/70/244
f 239/74/245 202/37/245 204/39/245
f 205/111/246 217/52/246 229/64/246
f 203/97/247 206/98/247 201/99/247
f 239/96/248 200/78/248 237/94/248
f 202/37/249 232/67/249 220/55/249
f 209/81/250 212/83/250 207/79/250
f 213/100/251 222/87/251 218/86/251
f 221/85/252 224/101/252 219/102/252
f 227/90/253 230/103/253 225/88/253
f 231/91/254 240/95/254 236/104/254
f 241/1/255 242/2/255 243/3/255
f 244/4/256 245/5/256 246/6/256
f 247/7/257 248/8/257 249/9/257
f 250/10/258 251/11/258 252/12/258
f 253/13/259 254/14/259 255/15/259
f 256/16/260 257/17/260 258/18/260
f 259/19/261 260/20/261 261/21/261
f 262/22/262 263/23/262 264/24/262
f 247/7/263 243/3/263 248/8/263
f 244/25/264 243/26/264 242/27/264
f 245/29/265 252/12/265 246/28/265
f 251/11/266 248/30/266 252/12/266
f 259/19/267 249/9/267 260/20/267
f 262/22/268 251/11/268 250/10/268
f 261/21/269 264/24/269 263/23/269
f 253/13/270 261/21/270 254/14/270
f 262/22/271 258/18/271 263/23/271
f 255/15/272 258/18/272 257/17/272
f 253/13/273 242/2/273 241/1/273
f 256/16/274 244/4/274 257/17/274
f 259/19/275 241/1/275 247/7/275
f 243/26/276 252/12/276 248/30/276
f 255/15/277 244/4/277 242/31/277
f 262/22/278 245/114/278 256/16/278
f 249/33/279 264/24/279 260/20/279
f 263/23/280 254/14/280 261/21/280
f 549/1/592 550/2/592 551/3/592
f 552/4/593 553/5/593 554/6/593
f 555/7/594 556/8/594 557/9/594
f 558/10/595 559/11/595 560/115/595
f 561/13/596 562/107/596 563/15/596
f 564/16/597 565/17/597 566/18/597
f 567/19/598 568/108/598 569/21/598
f 570/22/599 571/23/599 572/297/599
f 549/1/600 556/8/600 555/7/600
f 550/27/601 554/28/601 551/26/601
f 553/29/602 560/115/602 554/28/602
f 557/33/603 560/115/603 559/11/603
f 555/7/604 568/108/604 567/19/604
f 558/10/605 572/297/605 559/11/605
f 569/21/606 572/297/606 571/23/606
f 567/19/607 562/107/607 561/13/607
f 570/22/608 566/18/608 571/23/608
f 565/17/609 562/107/609 566/18/609
f 561/13/610 550/2/610 549/1/610
f 564/16/611 552/4/611 565/17/611
f 555/7/612 561/13/612 549/1/612
f 554/28/613 556/30/613 551/26/613
f 563/15/614 552/4/614 550/31/614
f 558/32/615 564/16/615 570/22/615
f 559/11/616 568/108/616 557/33/616
f 569/21/617 566/18/617 562/107/617
f 1/1/9 3/3/9 8/8/9
f 4/25/10 6/28/10 3/26/10
f 10/10/11 12/12/11 6/28/11
f 11/11/12 9/33/12 8/30/12
f 7/7/13 9/9/13 20/20/13
f 10/10/14 22/22/14 24/24/14
f 23/23/15 21/21/15 20/20/15
f 19/19/16 21/21/16 14/14/16
f 16/16/17 18/18/17 23/23/17
f 15/15/18 14/14/18 18/18/18
f 13/13/19 15/15/19 2/2/19
f 16/16/20 5/5/20 4/4/20
f 19/19/21 13/13/21 1/1/21
f 6/28/22 12/12/22 8/30/22
f 15/15/23 17/17/23 4/4/23
f 10/32/24 5/114/24 16/16/24
f 11/11/25 24/24/25 20/20/25
f 23/23/26 18/18/26 14/14/26
f 32/41/41 31/40/41 25/34/41
f 29/38/42 28/37/42 34/43/42
f 30/76/43 29/113/43 27/77/43
f 33/79/44 32/98/44 36/80/44
f 33/42/45 38/47/45 37/46/45
f 35/44/46 34/43/46 40/49/46
f 41/82/47 39/100/47 38/83/47
f 44/53/48 43/52/48 37/46/48
f 48/57/49 41/50/49 40/49/49
f 47/85/50 45/102/50 44/86/50
f 50/59/51 49/58/51 43/52/51
f 47/56/52 46/55/52 52/61/52
f 51/88/53 50/101/53 54/89/53
f 51/60/54 56/65/54 55/64/54
f 53/62/55 52/61/55 58/67/55
f 57/91/56 56/103/56 60/92/56
f 57/66/57 62/71/57 61/70/57
f 59/68/58 58/67/58 64/73/58
f 63/94/59 62/104/59 66/95/59
f 63/72/60 26/35/60 25/34/60
f 65/74/61 64/73/61 28/37/61
f 61/70/62 25/34/62 31/40/62
f 31/40/62 37/46/62 43/52/62
f 43/52/644 49/58/644 55/64/644
f 55/64/644 61/70/644 31/40/644
f 29/97/63 36/80/63 32/98/63
f 63/94/645 65/96/645 30/76/645
f 40/49/65 34/43/65 28/37/65
f 28/37/646 64/73/646 58/67/646
f 58/67/65 52/61/65 46/55/65
f 46/55/646 40/49/646 28/37/646
f 35/81/66 42/84/66 38/83/66
f 39/100/647 41/82/647 48/87/647
f 47/85/68 54/89/68 50/101/68
f 51/88/69 53/90/69 60/92/69
f 57/91/70 59/93/70 66/95/70
f 69/36/85 74/41/85 73/40/85
f 78/45/86 71/38/86 70/37/86
f 72/76/87 71/113/87 69/77/87
f 75/79/88 74/98/88 78/80/88
f 80/47/89 79/106/89 73/40/89
f 84/51/90 77/44/90 76/105/90
f 81/100/91 80/83/91 84/84/91
f 86/53/92 85/52/92 79/106/92
f 83/50/93 82/49/93 88/55/93
f 89/85/94 87/102/94 86/86/94
f 92/59/95 91/58/95 85/52/95
f 89/56/96 88/55/96 94/61/96
f 93/88/97 92/101/97 96/89/97
f 98/65/98 97/64/98 91/58/98
f 95/62/648 94/61/648 100/67/648
f 99/91/100 98/103/100 102/92/100
f 104/71/101 103/70/101 97/64/101
f 108/75/102 101/68/102 100/67/102
f 105/94/103 104/104/103 108/95/103
f 105/72/104 68/35/104 67/34/104
f 72/39/105 107/74/105 106/73/105
f 103/70/106 67/34/106 73/40/106
f 73/40/106 79/106/106 85/52/106
f 85/52/106 91/58/106 97/64/106
f 97/64/106 103/70/106 73/40/106
f 71/97/107 78/80/107 74/98/107
f 105/94/108 107/96/108 72/76/108
f 82/49/109 76/105/109 70/37/109
f 70/37/109 106/73/109 100/67/109
f 100/67/109 94/61/109 88/55/109
f 88/55/109 82/49/109 70/37/109
f 77/81/110 84/84/110 80/83/110
f 81/100/111 83/82/111 90/87/111
f 89/85/112 96/89/112 92/101/112
f 95/90/113 102/92/113 98/103/113
f 101/93/114 108/95/114 104/104/114
f 115/7/649 109/1/649 111/3/649
f 112/25/124 114/28/124 111/26/124
f 118/10/125 120/12/125 114/28/125
f 119/11/126 117/33/126 116/30/126
f 115/7/127 117/9/127 128/20/127
f 130/22/128 132/24/128 119/11/128
f 129/21/129 128/20/129 132/24/129
f 127/19/650 129/21/650 122/107/650
f 130/22/651 124/16/651 126/18/651
f 123/15/132 122/107/132 126/18/132
f 121/13/133 123/15/133 110/2/133
f 113/5/134 112/4/134 125/17/134
f 127/19/135 121/13/135 109/1/135
f 114/28/136 120/12/136 116/30/136
f 125/17/137 112/4/137 110/31/137
f 118/32/138 113/114/138 124/16/138
f 117/33/139 119/11/139 132/24/139
f 131/23/140 126/18/140 122/107/140
f 159/36/181 164/41/181 163/40/181
f 161/38/656 160/37/656 166/105/656
f 162/76/183 161/113/183 159/77/183
f 165/79/184 164/98/184 168/80/184
f 170/47/185 169/106/185 163/40/185
f 167/44/186 166/105/186 172/49/186
f 171/100/187 170/83/187 174/84/187
f 176/53/188 175/109/188 169/106/188
f 180/57/189 173/50/189 172/49/189
f 179/85/190 177/102/190 176/86/190
f 182/59/191 181/58/191 175/109/191
f 186/63/192 179/56/192 178/55/192
f 183/88/193 182/101/193 186/89/193
f 188/65/194 187/64/194 181/58/194
f 192/69/657 185/62/657 184/61/657
f 189/91/196 188/103/196 192/92/196
f 189/66/658 194/71/658 193/110/658
f 198/75/198 191/68/198 190/67/198
f 195/94/199 194/104/199 198/95/199
f 195/72/200 158/35/200 157/34/200
f 197/74/201 196/73/201 160/37/201
f 193/110/202 157/34/202 163/40/202
f 163/40/202 169/106/202 175/109/202
f 175/109/202 181/58/202 187/64/202
f 187/64/202 193/110/202 163/40/202
f 159/99/203 161/97/203 168/80/203
f 195/94/204 197/96/204 162/76/204
f 172/49/205 166/105/205 160/37/205
f 160/37/205 196/73/205 190/67/205
f 190/67/205 184/61/205 178/55/205
f 178/55/205 172/49/205 160/37/205
f 167/81/206 174/84/206 170/83/206
f 171/100/207 173/82/207 180/87/207
f 179/85/208 186/89/208 182/101/208
f 183/88/209 185/90/209 192/92/209
f 189/91/210 191/93/210 198/95/210
f 206/41/225 205/111/225 199/34/225
f 203/38/659 202/37/659 208/112/659
f 200/78/227 204/76/227 203/113/227
f 207/79/228 206/98/228 210/80/228
f 207/42/660 212/47/660 211/106/660
f 216/51/661 209/44/661 208/112/661
f 215/82/231 213/100/231 212/83/231
f 218/53/232 217/52/232 211/106/232
f 222/57/233 215/50/233 214/49/233
f 219/102/234 218/86/234 222/87/234
f 224/59/235 223/58/235 217/52/235
f 228/63/236 221/56/236 220/55/236
f 227/90/237 225/88/237 224/101/237
f 230/65/238 229/64/238 223/58/238
f 227/62/239 226/61/239 232/67/239
f 231/91/240 230/103/240 234/92/240
f 236/71/241 235/70/241 229/64/241
f 233/68/242 232/67/242 238/73/242
f 237/94/243 236/104/243 240/95/243
f 237/72/244 200/35/244 199/34/244
f 239/74/245 238/73/245 202/37/245
f 235/70/246 199/34/246 205/111/246
f 205/111/246 211/106/246 217/52/246
f 217/52/246 223/58/246 229/64/246
f 229/64/246 235/70/246 205/111/246
f 203/97/247 210/80/247 206/98/247
f 239/96/248 204/76/248 200/78/248
f 214/49/249 208/112/249 202/37/249
f 202/37/249 238/73/249 232/67/249
f 232/67/249 226/61/249 220/55/249
f 220/55/249 214/49/249 202/37/249
f 209/81/250 216/84/250 212/83/250
f 213/100/662 215/82/662 222/87/662
f 221/85/252 228/89/252 224/101/252
f 227/90/253 234/92/253 230/103/253
f 231/91/254 233/93/254 240/95/254
f 247/7/663 241/1/663 243/3/663
f 244/25/264 246/28/264 243/26/264
f 245/29/265 250/10/265 252/12/265
f 251/11/266 249/33/266 248/30/266
f 259/19/267 247/7/267 249/9/267
f 262/22/268 264/24/268 251/11/268
f 261/21/269 260/20/269 264/24/269
f 253/13/664 259/19/664 261/21/664
f 262/22/665 256/16/665 258/18/665
f 255/15/272 254/14/272 258/18/272
f 253/13/666 255/15/666 242/2/666
f 256/16/274 245/5/274 244/4/274
f 259/19/275 253/13/275 241/1/275
f 243/26/276 246/28/276 252/12/276
f 255/15/277 257/17/277 244/4/277
f 262/22/667 250/32/667 245/114/667
f 249/33/279 251/11/279 264/24/279
f 263/23/280 258/18/280 254/14/280
f 549/1/600 551/3/600 556/8/600
f 550/27/601 552/25/601 554/28/601
f 553/29/602 558/10/602 560/115/602
f 557/33/698 556/30/698 560/115/698
f 555/7/699 557/9/699 568/108/699
f 558/10/700 570/22/700 572/297/700
f 569/21/606 568/108/606 572/297/606
f 567/19/607 569/21/607 562/107/607
f 570/22/608 564/16/608 566/18/608
f 565/17/609 563/15/609 562/107/609
f 561/13/701 563/15/701 550/2/701
f 564/16/702 553/5/702 552/4/702
f 555/7/612 567/19/612 561/13/612
f 554/28/613 560/115/613 556/30/613
f 563/15/614 565/17/614 552/4/614
f 558/32/615 553/114/615 564/16/615
f 559/11/616 572/297/616 568/108/616
f 569/21/617 571/23/617 566/18/617
usemtl iron
f 133/1/141 134/2/141 135/3/141
f 136/4/142 137/5/142 138/6/142
f 139/7/143 140/8/143 141/9/143
f 142/10/144 143/11/144 144/12/144
f 145/13/145 146/14/145 147/15/145
f 148/16/146 149/17/146 150/18/146
f 151/19/147 152/108/147 153/21/147
f 154/22/148 155/23/148 156/24/148
f 133/1/149 140/8/149 139/7/149
f 136/25/150 135/26/150 134/27/150
f 142/10/151 138/28/151 137/29/151
f 141/33/152 144/12/152 143/11/152
f 151/19/153 141/9/153 152/108/153
f 154/22/154 143/11/154 142/10/154
f 153/21/155 156/24/155 155/23/155
f 145/13/156 153/21/156 146/14/156
f 148/16/157 155/23/157 154/22/157
f 147/15/158 150/18/158 149/17/158
f 145/13/159 134/2/159 133/1/159
f 137/5/160 149/17/160 148/16/160
f 151/19/161 133/1/161 139/7/161
f 135/26/162 144/12/162 140/30/162
f 149/17/163 134/31/163 147/15/163
f 142/32/164 148/16/164 154/22/164
f 143/11/165 152/108/165 141/33/165
f 155/23/166 146/14/166 153/21/166
f 265/1/281 266/2/281 267/3/281
f 268/4/282 269/5/282 270/6/282
f 271/7/283 272/8/283 273/9/283
f 274/10/284 275/11/284 276/12/284
f 277/13/285 278/107/285 279/15/285
f 280/16/286 281/17/286 282/18/286
f 283/19/287 284/20/287 285/21/287
f 286/22/288 287/23/288 288/24/288
f 271/7/289 267/3/289 272/8/289
f 266/27/290 270/28/290 267/26/290
f 274/10/291 270/28/291 269/29/291
f 273/33/292 276/12/292 275/11/292
f 283/19/293 273/9/293 284/20/293
f 286/22/294 275/11/294 274/10/294
f 285/21/295 288/24/295 287/23/295
f 283/19/296 278/107/296 277/13/296
f 280/16/297 287/23/297 286/22/297
f 281/17/298 278/107/298 282/18/298
f 277/13/299 266/2/299 265/1/299
f 269/5/300 281/17/300 280/16/300
f 283/19/301 265/1/301 271/7/301
f 267/26/302 276/12/302 272/30/302
f 281/17/303 266/31/303 279/15/303
f 274/32/304 280/16/304 286/22/304
f 275/11/305 284/20/305 273/33/305
f 285/21/306 282/18/306 278/107/306
f 289/1/307 290/2/307 291/3/307
f 292/4/308 293/5/308 294/6/308
f 295/7/309 296/8/309 297/9/309
f 298/10/310 299/11/310 300/12/310
f 301/13/311 302/107/311 303/15/311
f 304/16/312 305/17/312 306/18/312
f 307/19/313 308/108/313 309/21/313
f 310/22/314 311/23/314 312/24/314
f 289/1/315 296/8/315 295/7/315
f 292/25/316 291/26/316 290/27/316
f 298/10/317 294/28/317 293/29/317
f 297/33/318 300/12/318 299/11/318
f 295/7/319 308/108/319 307/19/319
f 298/10/320 312/24/320 299/11/320
f 309/21/321 312/24/321 311/23/321
f 307/19/322 302/107/322 301/13/322
f 304/16/323 311/23/323 310/22/323
f 305/17/324 302/107/324 306/18/324
f 289/1/325 303/15/325 290/2/325
f 293/5/326 305/17/326 304/16/326
f 307/19/327 289/1/327 295/7/327
f 294/28/328 296/30/328 291/26/328
f 305/17/329 290/31/329 303/15/329
f 298/32/330 304/16/330 310/22/330
f 299/11/331 308/108/331 297/33/331
f 309/21/332 306/18/332 302/107/332
f 313/1/333 314/2/333 315/3/333
f 316/4/334 317/5/334 318/6/334
f 319/7/335 320/8/335 321/9/335
f 322/10/336 323/11/336 324/12/336
f 325/13/337 326/14/337 327/15/337
f 328/16/338 329/17/338 330/18/338
f 331/19/339 332/108/339 333/21/339
f 334/22/340 335/23/340 336/24/340
f 319/7/341 315/3/341 320/8/341
f 314/27/342 318/28/342 315/26/342
f 317/29/343 324/12/343 318/28/343
f 321/33/344 324/12/344 323/11/344
f 319/7/345 332/108/345 331/19/345
f 334/22/346 323/11/346 322/10/346
f 333/21/347 336/24/347 335/23/347
f 331/19/348 326/14/348 325/13/348
f 328/16/349 335/23/349 334/22/349
f 327/15/350 330/18/350 329/17/350
f 325/13/351 314/2/351 313/1/351
f 317/5/352 329/17/352 328/16/352
f 331/19/353 313/1/353 319/7/353
f 318/28/354 320/30/354 315/26/354
f 329/17/355 314/31/355 327/15/355
f 322/32/356 328/16/356 334/22/356
f 321/33/357 336/24/357 332/108/357
f 333/21/358 330/18/358 326/14/358
f 337/1/359 338/2/359 339/3/359
f 340/4/360 341/5/360 342/6/360
f 343/7/361 344/8/361 345/9/361
f 346/10/362 347/11/362 348/115/362
f 349/13/363 350/107/363 351/15/363
f 352/16/364 353/17/364 354/18/364
f 355/19/365 356/108/365 357/21/365
f 358/22/366 359/23/366 360/24/366
f 337/1/367 344/8/367 343/7/367
f 340/25/368 339/26/368 338/27/368
f 346/10/369 342/28/369 341/29/369
f 345/33/370 348/115/370 347/11/370
f 343/7/371 356/108/371 355/19/371
f 346/10/372 360/24/372 347/11/372
f 357/21/373 360/24/373 359/23/373
f 355/19/374 350/107/374 349/13/374
f 358/22/375 354/18/375 359/23/375
f 351/15/376 354/18/376 353/17/376
f 337/1/377 351/15/377 338/2/377
f 352/16/378 340/4/378 353/17/378
f 355/19/379 337/1/379 343/7/379
f 339/26/380 348/115/380 344/30/380
f 353/17/381 338/31/381 351/15/381
f 346/32/382 352/16/382 358/22/382
f 345/33/383 360/24/383 356/108/383
f 359/23/384 350/107/384 357/21/384
f 362/116/385 370/117/385 361/118/385
f 371/119/386 363/120/386 364/121/386
f 373/122/387 365/123/387 366/124/387
f 368/125/388 376/126/388 367/116/388
f 377/127/389 370/117/389 369/128/389
f 371/119/386 380/129/386 372/130/386
f 381/131/390 374/132/390 373/122/390
f 383/133/388 376/126/388 375/134/388
f 385/135/391 378/136/391 377/127/391
f 387/137/386 380/129/386 379/138/386
f 389/139/392 382/140/392 381/131/392
f 383/133/388 392/141/388 384/142/388
f 385/135/393 394/143/393 386/144/393
f 395/145/386 388/146/386 387/137/386
f 389/139/394 398/147/394 390/148/394
f 399/149/388 392/141/388 391/150/388
f 401/151/395 394/143/395 393/152/395
f 403/153/386 396/154/386 395/145/386
f 397/155/396 406/156/396 398/147/396
f 399/149/388 408/157/388 400/158/388
f 401/151/397 410/159/397 402/160/397
f 411/159/386 404/161/386 403/153/386
f 413/162/398 406/156/398 405/163/398
f 415/164/388 408/157/388 407/165/388
f 417/166/399 410/167/399 409/168/399
f 419/169/386 412/170/386 411/171/386
f 421/172/400 414/173/400 413/174/400
f 415/173/388 424/175/388 416/176/388
f 417/166/401 426/177/401 418/178/401
f 427/179/386 420/180/386 419/169/386
f 429/181/402 422/182/402 421/172/402
f 431/183/388 424/175/388 423/184/388
f 433/185/403 426/177/403 425/186/403
f 435/187/386 428/188/386 427/179/386
f 429/181/404 438/189/404 430/190/404
f 439/191/388 432/192/388 431/183/388
f 433/185/405 442/193/405 434/194/405
f 443/195/386 436/196/386 435/187/386
f 437/197/406 446/198/406 438/189/406
f 447/199/388 440/200/388 439/191/388
f 441/201/407 450/202/407 442/193/407
f 451/203/386 444/204/386 443/195/386
f 453/205/408 446/198/408 445/206/408
f 447/199/388 456/207/388 448/208/388
f 457/209/409 450/202/409 449/210/409
f 459/211/386 452/212/386 451/203/386
f 461/213/410 454/214/410 453/205/410
f 463/215/388 456/207/388 455/216/388
f 458/217/411 362/116/411 361/118/411
f 460/218/386 364/121/386 363/120/386
f 462/219/412 366/124/412 365/123/412
f 464/220/388 368/125/388 367/116/388
f 458/217/413 364/121/413 459/211/413
f 361/118/414 371/119/414 364/121/414
f 367/116/414 369/128/414 362/116/414
f 464/220/415 362/116/415 457/209/415
f 363/120/414 373/221/414 366/222/414
f 460/218/414 366/222/414 461/223/414
f 365/123/414 375/134/414 368/125/414
f 462/219/414 368/125/414 463/215/414
f 376/126/416 377/127/416 369/128/416
f 370/117/414 379/138/414 371/119/414
f 372/130/414 381/129/414 373/221/414
f 374/132/414 383/133/414 375/134/414
f 384/142/414 385/135/414 377/127/414
f 378/136/414 387/137/414 379/138/414
f 380/129/417 389/224/417 381/129/417
f 390/148/418 383/133/418 382/140/418
f 392/141/414 393/152/414 385/135/414
f 386/144/414 395/145/414 387/137/414
f 388/146/414 397/225/414 389/224/414
f 390/148/419 399/149/419 391/150/419
f 400/158/420 401/151/420 393/152/420
f 394/143/414 403/153/414 395/145/414
f 396/154/414 405/226/414 397/225/414
f 398/147/414 407/165/414 399/149/414
f 408/157/421 409/227/421 401/151/421
f 410/159/422 403/153/422 402/160/422
f 404/161/414 413/228/414 405/226/414
f 406/156/414 415/164/414 407/165/414
f 416/176/423 417/166/423 409/168/423
f 410/167/424 419/169/424 411/171/424
f 412/170/414 421/229/414 413/170/414
f 414/173/416 423/184/416 415/173/416
f 424/175/425 425/186/425 417/166/425
f 418/178/414 427/179/414 419/169/414
f 420/180/426 429/230/426 421/229/426
f 422/182/427 431/183/427 423/184/427
f 440/200/428 425/186/428 432/192/428
f 426/177/429 435/187/429 427/179/429
f 428/188/414 437/231/414 429/230/414
f 430/190/414 439/191/414 431/183/414
f 440/200/415 441/201/415 433/185/415
f 434/194/429 443/195/429 435/187/429
f 436/196/414 445/232/414 437/231/414
f 438/189/414 447/199/414 439/191/414
f 448/208/415 449/210/415 441/201/415
f 442/193/414 451/203/414 443/195/414
f 444/204/419 453/233/419 445/232/419
f 446/198/430 455/216/430 447/199/430
f 464/220/431 449/210/431 456/207/431
f 450/202/414 459/211/414 451/203/414
f 452/212/414 461/223/414 453/233/414
f 454/214/414 463/215/414 455/216/414
f 573/1/618 574/2/618 575/3/618
f 576/4/619 577/5/619 578/6/619
f 579/7/620 580/8/620 581/9/620
f 582/10/621 583/11/621 584/12/621
f 585/13/622 586/107/622 587/15/622
f 588/16/623 589/17/623 590/18/623
f 591/19/624 592/108/624 593/21/624
f 594/22/625 595/23/625 596/24/625
f 573/1/626 580/8/626 579/7/626
f 574/27/627 578/28/627 575/26/627
f 577/29/628 584/12/628 578/28/628
f 581/33/629 584/12/629 583/11/629
f 579/7/630 592/108/630 591/19/630
f 594/22/631 583/11/631 582/10/631
f 595/23/632 592/108/632 596/24/632
f 585/13/633 593/21/633 586/107/633
f 588/16/634 595/23/634 594/22/634
f 589/17/635 586/107/635 590/18/635
f 573/1/636 587/15/636 574/2/636
f 588/16/637 576/4/637 589/17/637
f 579/7/638 585/13/638 573/1/638
f 578/28/639 580/30/639 575/26/639
f 587/15/640 576/4/640 574/31/640
f 582/32/641 588/16/641 594/22/641
f 583/11/642 592/108/642 581/33/642
f 595/23/643 586/107/643 593/21/643
f 133/1/652 135/3/652 140/8/652
f 136/25/150 138/28/150 135/26/150
f 142/10/653 144/12/653 138/28/653
f 141/33/152 140/30/152 144/12/152
f 151/19/153 139/7/153 141/9/153
f 154/22/154 156/24/154 143/11/154
f 153/21/155 152/108/155 156/24/155
f 145/13/654 151/19/654 153/21/654
f 148/16/655 150/18/655 155/23/655
f 147/15/158 146/14/158 150/18/158
f 145/13/159 147/15/159 134/2/159
f 137/5/160 136/4/160 149/17/160
f 151/19/161 145/13/161 133/1/161
f 135/26/162 138/28/162 144/12/162
f 149/17/163 136/4/163 134/31/163
f 142/32/164 137/114/164 148/16/164
f 143/11/165 156/24/165 152/108/165
f 155/23/166 150/18/166 146/14/166
f 271/7/289 265/1/289 267/3/289
f 266/27/668 268/25/668 270/28/668
f 274/10/669 276/12/669 270/28/669
f 273/33/292 272/30/292 276/12/292
f 283/19/293 271/7/293 273/9/293
f 286/22/294 288/24/294 275/11/294
f 285/21/670 284/20/670 288/24/670
f 283/19/671 285/21/671 278/107/671
f 280/16/672 282/18/672 287/23/672
f 281/17/298 279/15/298 278/107/298
f 277/13/299 279/15/299 266/2/299
f 269/5/300 268/4/300 281/17/300
f 283/19/301 277/13/301 265/1/301
f 267/26/302 270/28/302 276/12/302
f 281/17/303 268/4/303 266/31/303
f 274/32/304 269/114/304 280/16/304
f 275/11/305 288/24/305 284/20/305
f 285/21/306 287/23/306 282/18/306
f 289/1/673 291/3/673 296/8/673
f 292/25/316 294/28/316 291/26/316
f 298/10/317 300/12/317 294/28/317
f 297/33/318 296/30/318 300/12/318
f 295/7/319 297/9/319 308/108/319
f 298/10/320 310/22/320 312/24/320
f 309/21/674 308/108/674 312/24/674
f 307/19/322 309/21/322 302/107/322
f 304/16/675 306/18/675 311/23/675
f 305/17/324 303/15/324 302/107/324
f 289/1/325 301/13/325 303/15/325
f 293/5/326 292/4/326 305/17/326
f 307/19/327 301/13/327 289/1/327
f 294/28/328 300/12/328 296/30/328
f 305/17/329 292/4/329 290/31/329
f 298/32/330 293/114/330 304/16/330
f 299/11/331 312/24/331 308/108/331
f 309/21/332 311/23/332 306/18/332
f 319/7/341 313/1/341 315/3/341
f 314/27/342 316/25/342 318/28/342
f 317/29/676 322/10/676 324/12/676
f 321/33/344 320/30/344 324/12/344
f 319/7/345 321/9/345 332/108/345
f 334/22/346 336/24/346 323/11/346
f 333/21/677 332/108/677 336/24/677
f 331/19/348 333/21/348 326/14/348
f 328/16/349 330/18/349 335/23/349
f 327/15/350 326/14/350 330/18/350
f 325/13/351 327/15/351 314/2/351
f 317/5/352 316/4/352 329/17/352
f 331/19/353 325/13/353 313/1/353
f 318/28/354 324/12/354 320/30/354
f 329/17/355 316/4/355 314/31/355
f 322/32/356 317/114/356 328/16/356
f 321/33/357 323/11/357 336/24/357
f 333/21/358 335/23/358 330/18/358
f 337/1/367 339/3/367 344/8/367
f 340/25/678 342/28/678 339/26/678
f 346/10/369 348/115/369 342/28/369
f 345/33/370 344/30/370 348/115/370
f 343/7/371 345/9/371 356/108/371
f 346/10/372 358/22/372 360/24/372
f 357/21/373 356/108/373 360/24/373
f 355/19/374 357/21/374 350/107/374
f 358/22/375 352/16/375 354/18/375
f 351/15/376 350/107/376 354/18/376
f 337/1/377 349/13/377 351/15/377
f 352/16/378 341/5/378 340/4/378
f 355/19/379 349/13/379 337/1/379
f 339/26/380 342/28/380 348/115/380
f 353/17/381 340/4/381 338/31/381
f 346/32/382 341/114/382 352/16/382
f 345/33/383 347/11/383 360/24/383
f 359/23/384 354/18/384 350/107/384
f 362/116/385 369/128/385 370/117/385
f 371/119/386 372/130/386 363/120/386
f 373/122/387 374/132/387 365/123/387
f 368/125/388 375/134/388 376/126/388
f 377/127/389 378/136/389 370/117/389
f 371/119/386 379/138/386 380/129/386
f 381/131/390 382/140/390 374/132/390
f 383/133/388 384/142/388 376/126/388
f 385/135/391 386/144/391 378/136/391
f 387/137/386 388/146/386 380/129/386
f 389/139/392 390/148/392 382/140/392
f 383/133/388 391/150/388 392/141/388
f 385/135/393 393/152/393 394/143/393
f 395/145/386 396/154/386 388/146/386
f 389/139/394 397/155/394 398/147/394
f 399/149/388 400/158/388 392/141/388
f 401/151/395 402/160/395 394/143/395
f 403/153/386 404/161/386 396/154/386
f 397/155/396 405/163/396 406/156/396
f 399/149/388 407/165/388 408/157/388
f 401/151/397 409/227/397 410/159/397
f 411/159/386 412/298/386 404/161/386
f 413/162/398 414/299/398 406/156/398
f 415/164/388 416/300/388 408/157/388
f 417/166/399 418/178/399 410/167/399
f 419/169/386 420/180/386 412/170/386
f 421/172/400 422/182/400 414/173/400
f 415/173/388 423/184/388 424/175/388
f 417/166/401 425/186/401 426/177/401
f 427/179/386 428/188/386 420/180/386
f 429/181/402 430/190/402 422/182/402
f 431/183/388 432/192/388 424/175/388
f 433/185/403 434/194/403 426/177/403
f 435/187/386 436/196/386 428/188/386
f 429/181/404 437/197/404 438/189/404
f 439/191/388 440/200/388 432/192/388
f 433/185/405 441/201/405 442/193/405
f 443/195/386 444/204/386 436/196/386
f 437/197/406 445/206/406 446/198/406
f 447/199/388 448/208/388 440/200/388
f 441/201/407 449/210/407 450/202/407
f 451/203/386 452/212/386 444/204/386
f 453/205/408 454/214/408 446/198/408
f 447/199/388 455/216/388 456/207/388
f 457/209/409 458/217/409 450/202/409
f 459/211/386 460/218/386 452/212/386
f 461/213/410 462/219/410 454/214/410
f 463/215/388 464/220/388 456/207/388
f 458/217/411 457/209/411 362/116/411
f 460/218/386 459/211/386 364/121/386
f 462/219/412 461/213/412 366/124/412
f 464/220/388 463/215/388 368/125/388
f 458/217/414 361/118/414 364/121/414
f 361/118/414 370/117/414 371/119/414
f 367/116/679 376/126/679 369/128/679
f 464/220/414 367/116/414 362/116/414
f 363/120/414 372/130/414 373/221/414
f 460/218/414 363/120/414 366/222/414
f 365/123/414 374/132/414 375/134/414
f 462/219/414 365/123/414 368/125/414
f 376/126/414 384/142/414 377/127/414
f 370/117/414 378/136/414 379/138/414
f 372/130/680 380/129/680 381/129/680
f 374/132/681 382/140/681 383/133/681
f 384/142/414 392/141/414 385/135/414
f 378/136/414 386/144/414 387/137/414
f 380/129/682 388/146/682 389/224/682
f 390/148/415 391/150/415 383/133/415
f 392/141/683 400/158/683 393/152/683
f 386/144/684 394/143/684 395/145/684
f 388/146/414 396/154/414 397/225/414
f 390/148/414 398/147/414 399/149/414
f 400/158/685 408/157/685 401/151/685
f 394/143/686 402/160/686 403/153/686
f 396/154/414 404/161/414 405/226/414
f 398/147/414 406/156/414 407/165/414
f 408/157/687 416/300/687 409/227/687
f 410/159/419 411/159/419 403/153/419
f 404/161/414 412/298/414 413/228/414
f 406/156/688 414/299/688 415/164/688
f 416/176/429 424/175/429 417/166/429
f 410/167/414 418/178/414 419/169/414
f 412/170/689 420/180/689 421/229/689
f 414/173/690 422/182/690 423/184/690
f 424/175/415 432/192/415 425/186/415
f 418/178/414 426/177/414 427/179/414
f 420/180/414 428/188/414 429/230/414
f 422/182/414 430/190/414 431/183/414
f 440/200/414 433/185/414 425/186/414
f 426/177/691 434/194/691 435/187/691
f 428/188/414 436/196/414 437/231/414
f 430/190/414 438/189/414 439/191/414
f 440/200/692 448/208/692 441/201/692
f 434/194/414 442/193/414 443/195/414
f 436/196/693 444/204/693 445/232/693
f 438/189/694 446/198/694 447/199/694
f 448/208/695 456/207/695 449/210/695
f 442/193/696 450/202/696 451/203/696
f 444/204/414 452/212/414 453/233/414
f 446/198/414 454/214/414 455/216/414
f 464/220/697 457/209/697 449/210/697
f 450/202/414 458/217/414 459/211/414
f 452/212/414 460/218/414 461/223/414
f 454/214/414 462/219/414 463/215/414
f 573/1/626 575/3/626 580/8/626
f 574/27/703 576/25/703 578/28/703
f 577/29/704 582/10/704 584/12/704
f 581/33/705 580/30/705 584/12/705
f 579/7/630 581/9/630 592/108/630
f 594/22/631 596/24/631 583/11/631
f 595/23/632 593/21/632 592/108/632
f 585/13/706 591/19/706 593/21/706
f 588/16/634 590/18/634 595/23/634
f 589/17/707 587/15/707 586/107/707
f 573/1/708 585/13/708 587/15/708
f 588/16/637 577/5/637 576/4/637
f 579/7/638 591/19/638 585/13/638
f 578/28/639 584/12/639 580/30/639
f 587/15/640 589/17/640 576/4/640
f 582/32/641 577/114/641 588/16/641
f 583/11/642 596/24/642 592/108/642
f 595/23/643 590/18/643 586/107/643
usemtl core
f 465/234/432 478/235/432 477/236/432
f 466/237/433 478/238/433 480/239/433
f 465/240/434 477/241/434 482/242/434
f 465/243/435 482/244/435 484/245/435
f 465/246/436 484/247/436 481/248/436
f 466/237/437 480/239/437 487/249/437
f 467/250/438 479/251/438 489/252/438
f 468/253/439 483/254/439 491/255/439
f 469/256/440 485/257/440 493/258/440
f 470/259/441 486/260/441 495/261/441
f 466/237/442 487/249/442 490/262/442
f 467/250/443 489/252/443 492/263/443
f 468/253/444 491/255/444 494/264/444
f 469/256/445 493/258/445 496/265/445
f 470/259/446 495/261/446 488/266/446
f 471/267/447 497/268/447 502/269/447
f 472/270/448 498/271/448 504/272/448
f 473/273/449 499/274/449 505/275/449
f 474/276/450 500/277/450 506/278/450
f 475/279/451 501/280/451 503/281/451
f 503/281/452 506/282/452 476/283/452
f 503/281/453 501/280/453 506/282/453
f 501/280/454 474/276/454 506/282/454
f 506/278/455 505/284/455 476/285/455
f 506/278/456 500/277/456 505/284/456
f 500/277/457 473/273/457 505/284/457
f 505/275/458 504/286/458 476/287/458
f 505/275/459 499/274/459 504/286/459
f 499/274/460 472/288/460 504/286/460
f 504/272/461 502/289/461 476/290/461
f 504/272/462 498/271/462 502/289/462
f 498/271/463 471/267/463 502/289/463
f 502/269/464 503/291/464 476/292/464
f 502/269/465 497/268/465 503/291/465
f 497/268/466 475/279/466 503/291/466
f 488/266/467 501/280/467 475/279/467
f 488/266/468 495/261/468 501/280/468
f 495/261/469 474/276/469 501/280/469
f 496/265/470 500/277/470 474/276/470
f 496/265/471 493/258/471 500/277/471
f 493/258/472 473/273/472 500/277/472
f 494/264/473 499/274/473 473/273/473
f 494/264/474 491/255/474 499/274/474
f 491/255/475 472/288/475 499/274/475
f 492/263/476 498/271/476 472/270/476
f 492/263/477 489/252/477 498/271/477
f 489/252/478 471/267/478 498/271/478
f 490/262/479 497/268/479 471/267/479
f 490/262/480 487/249/480 497/268/480
f 487/249/481 475/279/481 497/268/481
f 495/261/482 496/265/482 474/276/482
f 495/261/483 486/260/483 496/265/483
f 486/260/484 469/256/484 496/265/484
f 493/258/485 494/264/485 473/273/485
f 493/258/486 485/257/486 494/264/486
f 485/257/487 468/253/487 494/264/487
f 491/255/488 492/293/488 472/288/488
f 491/255/489 483/254/489 492/293/489
f 483/254/490 467/294/490 492/293/490
f 489/252/491 490/262/491 471/267/491
f 489/252/492 479/251/492 490/262/492
f 479/251/493 466/237/493 490/262/493
f 487/249/494 488/266/494 475/279/494
f 487/249/495 480/239/495 488/266/495
f 480/239/496 470/259/496 488/266/496
f 481/248/497 486/260/497 470/259/497
f 481/248/498 484/247/498 486/260/498
f 484/247/499 469/256/499 486/260/499
f 484/245/500 485/257/500 469/256/500
f 484/245/501 482/244/501 485/257/501
f 482/244/502 468/253/502 485/257/502
f 482/242/503 483/254/503 468/253/503
f 482/242/504 477/241/504 483/254/504
f 477/241/505 467/294/505 483/254/505
f 480/239/506 481/295/506 470/259/506
f 480/239/507 478/238/507 481/295/507
f 478/238/508 465/296/508 481/295/508
f 477/236/509 479/251/509 467/250/509
f 477/236/510 478/235/510 479/251/510
f 478/235/511 466/237/511 479/251/511
f 507/234/512 520/235/512 519/236/512
f 508/237/513 520/238/513 522/239/513
f 507/240/514 519/241/514 524/242/514
f 507/243/515 524/244/515 526/245/515
f 507/246/516 526/247/516 523/248/516
f 508/237/517 522/239/517 529/249/517
f 509/250/518 521/251/518 531/252/518
f 510/253/519 525/254/519 533/255/519
f 511/256/520 527/257/520 535/258/520
f 512/259/521 528/260/521 537/261/521
f 508/237/522 529/249/522 532/262/522
f 509/250/523 531/252/523 534/263/523
f 510/253/524 533/255/524 536/264/524
f 511/256/525 535/258/525 538/265/525
f 512/259/526 537/261/526 530/266/526
f 513/267/527 539/268/527 544/269/527
f 514/270/528 540/271/528 546/272/528
f 515/273/529 541/274/529 547/275/529
f 516/276/530 542/277/530 548/278/530
f 517/279/531 543/280/531 545/281/531
f 545/281/532 548/282/532 518/283/532
f 545/281/533 543/280/533 548/282/533
f 543/280/534 516/276/534 548/282/534
f 548/278/535 547/284/535 518/285/535
f 548/278/536 542/277/536 547/284/536
f 542/277/537 515/273/537 547/284/537
f 547/275/538 546/286/538 518/287/538
f 547/275/539 541/274/539 546/286/539
f 541/274/540 514/288/540 546/286/540
f 546/272/541 544/289/541 518/290/541
f 546/272/542 540/271/542 544/289/542
f 540/271/543 513/267/543 544/289/543
f 544/269/544 545/291/544 518/292/544
f 544/269/545 539/268/545 545/291/545
f 539/268/546 517/279/546 545/291/546
f 530/266/547 543/280/547 517/279/547
f 530/266/548 537/261/548 543/280/548
f 537/261/549 516/276/549 543/280/549
f 538/265/550 542/277/550 516/276/550
f 538/265/551 535/258/551 542/277/551
f 535/258/552 515/273/552 542/277/552
f 536/264/553 541/274/553 515/273/553
f 536/264/554 533/255/554 541/274/554
f 533/255/555 514/288/555 541/274/555
f 534/263/556 540/271/556 514/270/556
f 534/263/557 531/252/557 540/271/557
f 531/252/558 513/267/558 540/271/558
f 532/262/559 539/268/559 513/267/559
f 532/262/560 529/249/560 539/268/560
f 529/249/561 517/279/561 539/268/561
f 537/261/562 538/265/562 516/276/562
f 537/261/563 528/260/563 538/265/563
f 528/260/564 511/256/564 538/265/564
f 535/258/565 536/264/565 515/273/565
f 535/258/566 527/257/566 536/264/566
f 527/257/567 510/253/567 536/264/567
f 533/255/568 534/293/568 514/288/568
f 533/255/569 525/254/569 534/293/569
f 525/254/570 509/294/570 534/293/570
f 531/252/571 532/262/571 513/267/571
f 531/252/572 521/251/572 532/262/572
f 521/251/573 508/237/573 532/262/573
f 529/249/574 530/266/574 517/279/574
f 529/249/575 522/239/575 530/266/575
f 522/239/576 512/259/576 530/266/576
f 523/248/577 528/260/577 512/259/577
f 523/248/578 526/247/578 528/260/578
f 526/247/579 511/256/579 528/260/579
f 526/245/580 527/257/580 511/256/580
f 526/245/581 524/244/581 527/257/581
f 524/244/582 510/253/582 527/257/582
f 524/242/583 525/254/583 510/253/583
f 524/242/584 519/241/584 525/254/584
f 519/241/585 509/294/585 525/254/585
f 522/239/586 523/295/586 512/259/586
f 522/239/587 520/238/587 523/295/587
f 520/238/588 507/296/588 523/295/588
f 519/236/589 521/251/589 509/250/589
f 519/236/590 520/235/590 521/251/590
f 520/235/591 508/237/591 521/251/591
