# Blender 4.5.10 LTS
# www.blender.org
mtllib grove_spirit_heart.mtl
o grove_spirit_heart
v 0.009317 -0.190198 0.007059
v -0.100303 -0.084086 -0.072581
v 0.049654 -0.083051 -0.121438
v 0.142447 -0.081135 0.006081
v 0.049838 -0.080988 0.133749
v -0.100190 -0.082811 0.085131
v -0.034922 0.090561 -0.122780
v 0.115106 0.092385 -0.074163
v 0.115219 0.093659 0.083550
v -0.034738 0.092624 0.132406
v -0.127532 0.090708 0.004887
v 0.005598 0.199771 0.003909
v 0.033353 -0.161452 -0.068193
v -0.054789 -0.162061 -0.039476
v -0.031080 -0.099081 -0.115004
v -0.119156 -0.098940 0.006414
v -0.054722 -0.161311 0.053225
v 0.087896 -0.160326 0.006761
v 0.111605 -0.097346 -0.068767
v 0.033461 -0.160240 0.081801
v 0.111713 -0.096134 0.081227
v -0.030906 -0.097119 0.127691
v -0.135228 0.003052 -0.040753
v -0.135161 0.003802 0.051948
v 0.007350 0.003574 -0.144511
v -0.080793 0.002965 -0.115794
v 0.150077 0.005771 -0.040980
v 0.095534 0.004646 -0.115935
v 0.095709 0.006608 0.126762
v 0.150143 0.006521 0.051721
v -0.080619 0.004927 0.126903
v 0.007566 0.005999 0.155479
v -0.096798 0.105707 -0.070259
v 0.045821 0.106692 -0.116723
v 0.134072 0.108513 0.004554
v 0.045996 0.108654 0.125972
v -0.096690 0.106920 0.079735
v -0.018545 0.169813 -0.070833
v -0.072980 0.169899 0.004207
v 0.069638 0.170885 -0.042257
v 0.069705 0.171634 0.050444
v -0.018437 0.171025 0.079161
v -0.005620 -0.166709 -0.005311
v -0.079660 -0.076723 -0.060207
v 0.024224 -0.078491 -0.094305
v 0.088760 -0.079045 -0.006028
v 0.024759 -0.077620 0.082627
v -0.079330 -0.076184 0.049142
v -0.031039 0.066559 -0.094852
v 0.073050 0.065124 -0.061367
v 0.073381 0.065662 0.047982
v -0.030504 0.067430 0.082080
v -0.095039 0.067984 -0.006196
v -0.000659 0.155649 -0.006913
v 0.011486 -0.143154 -0.057479
v -0.049575 -0.142115 -0.037437
v -0.032033 -0.090261 -0.089746
v -0.092900 -0.088905 -0.005430
v -0.049381 -0.141798 0.026836
v 0.049419 -0.143480 -0.005592
v 0.066962 -0.091626 -0.057901
v 0.011801 -0.142642 0.046518
v 0.067276 -0.091114 0.046097
v -0.031524 -0.089433 0.078525
v -0.102135 -0.004165 -0.037957
v -0.101941 -0.003849 0.026316
v -0.003454 -0.006042 -0.110110
v -0.064516 -0.005003 -0.090068
v 0.095661 -0.007212 -0.038541
v 0.057728 -0.006886 -0.090429
v 0.058237 -0.006058 0.077844
v 0.095855 -0.006896 0.025733
v -0.064008 -0.004175 0.078204
v -0.002825 -0.005018 0.097886
v -0.073556 0.080054 -0.058321
v 0.025245 0.078372 -0.090750
v 0.086621 0.077845 -0.006794
v 0.025754 0.079201 0.077522
v -0.073241 0.080566 0.045677
v -0.018080 0.131582 -0.058742
v -0.055699 0.132419 -0.006632
v 0.043101 0.130738 -0.039060
v 0.043296 0.131054 0.025213
v -0.017766 0.132093 0.045255
vn -0.1199 -0.9140 -0.3875
vn -0.7675 -0.5714 -0.2906
vn 0.3444 -0.9084 -0.2370
vn 0.3448 -0.9045 0.2512
vn -0.1194 -0.9077 0.4024
vn -0.9235 -0.2710 -0.2714
vn -0.0235 -0.2680 -0.9631
vn 0.9124 -0.2539 -0.3210
vn 0.5909 -0.2482 0.7677
vn -0.5438 -0.2588 0.7983
vn -0.8047 -0.1093 -0.5836
vn 0.3078 -0.1017 -0.9460
vn 0.9962 -0.0875 -0.0000
vn 0.3092 -0.0864 0.9471
vn -0.8038 -0.0999 0.5864
vn -0.4571 0.5517 -0.6976
vn 0.5142 0.5614 -0.6484
vn 0.7675 0.5714 0.2906
vn -0.0473 0.5679 0.8217
vn -0.8041 0.5557 0.2110
vn -0.3444 0.9084 0.2370
vn -0.5765 0.7074 0.4089
vn -0.4561 0.5629 0.6893
vn 0.1199 0.9140 0.3875
vn 0.2115 0.7170 0.6642
vn 0.5152 0.5718 0.6385
vn 0.4066 0.9136 -0.0077
vn 0.6979 0.7162 -0.0063
vn 0.7671 0.5666 -0.3009
vn 0.1194 0.9077 -0.4024
vn 0.2105 0.7062 -0.6760
vn -0.0485 0.5545 -0.8307
vn -0.3448 0.9045 -0.2512
vn -0.5771 0.7007 -0.4194
vn -0.8044 0.5523 -0.2188
vn -0.9124 0.2539 0.3210
vn -0.8014 0.1424 0.5810
vn -0.5898 0.2606 0.7644
vn 0.0235 0.2680 0.9631
vn 0.3050 0.1559 0.9395
vn 0.5450 0.2716 0.7932
vn 0.9235 0.2710 0.2714
vn 0.9879 0.1548 -0.0020
vn 0.9231 0.2666 -0.2770
vn 0.5438 0.2588 -0.7983
vn 0.3037 0.1407 -0.9423
vn 0.0221 0.2524 -0.9674
vn -0.5909 0.2482 -0.7677
vn -0.8022 0.1330 -0.5821
vn -0.9129 0.2487 -0.3237
vn -0.3078 0.1017 0.9460
vn -0.3037 -0.1407 0.9423
vn -0.0221 -0.2524 0.9674
vn 0.8047 0.1093 0.5836
vn 0.8022 -0.1330 0.5821
vn 0.9129 -0.2487 0.3237
vn 0.8038 0.0999 -0.5864
vn 0.8014 -0.1424 -0.5810
vn 0.5898 -0.2606 -0.7644
vn -0.3092 0.0864 -0.9471
vn -0.3050 -0.1559 -0.9395
vn -0.5450 -0.2716 -0.7932
vn -0.9962 0.0875 -0.0000
vn -0.9879 -0.1548 0.0020
vn -0.9231 -0.2666 0.2770
vn -0.5142 -0.5614 0.6484
vn -0.2105 -0.7062 0.6760
vn 0.0485 -0.5545 0.8307
vn 0.4571 -0.5517 0.6976
vn 0.5771 -0.7007 0.4194
vn 0.8044 -0.5523 0.2188
vn 0.8041 -0.5557 -0.2110
vn 0.5765 -0.7074 -0.4089
vn 0.4561 -0.5629 -0.6893
vn -0.7671 -0.5666 0.3009
vn -0.6979 -0.7162 0.0063
vn -0.4066 -0.9136 0.0077
vn 0.0473 -0.5679 -0.8217
vn -0.2115 -0.7170 -0.6642
vn -0.5152 -0.5718 -0.6385
vn -0.1626 -0.8782 -0.4498
vn -0.8200 -0.4838 -0.3058
vn 0.3723 -0.8856 -0.2778
vn 0.3740 -0.8828 0.2842
vn -0.1598 -0.8737 0.4594
vn -0.9394 -0.2072 -0.2731
vn -0.0319 -0.2247 -0.9739
vn 0.9150 -0.2360 -0.3273
vn 0.5927 -0.2256 0.7732
vn -0.5534 -0.2078 0.8066
vn -0.8093 -0.0719 -0.5830
vn 0.3038 -0.0908 -0.9484
vn 0.9953 -0.0968 -0.0025
vn 0.3096 -0.0815 0.9474
vn -0.8057 -0.0661 0.5886
vn -0.4685 0.4984 -0.7294
vn 0.5518 0.4830 -0.6799
vn 0.8200 0.4838 0.3058
vn -0.0344 0.4997 0.8655
vn -0.8308 0.5088 0.2257
vn -0.3723 0.8856 0.2778
vn -0.6067 0.6569 0.4477
vn -0.4641 0.5056 0.7273
vn 0.1626 0.8782 0.4498
vn 0.2482 0.6451 0.7227
vn 0.5558 0.4896 0.6718
vn 0.4915 0.8709 -0.0058
vn 0.7738 0.6334 -0.0055
vn 0.8182 0.4807 -0.3155
vn 0.1598 0.8737 -0.4594
vn 0.2438 0.6379 -0.7305
vn -0.0397 0.4911 -0.8702
vn -0.3740 0.8828 -0.2842
vn -0.6094 0.6524 -0.4504
vn -0.8322 0.5065 -0.2257
vn -0.9150 0.2360 0.3273
vn -0.7992 0.1375 0.5851
vn -0.5880 0.2332 0.7745
vn 0.0319 0.2247 0.9739
vn 0.3114 0.1222 0.9424
vn 0.5582 0.2157 0.8012
vn 0.9394 0.2072 0.2731
vn 0.9943 0.1070 -0.0035
vn 0.9377 0.2045 -0.2808
vn 0.5534 0.2078 -0.8066
vn 0.3057 0.1129 -0.9454
vn 0.0260 0.2151 -0.9763
vn -0.5927 0.2256 -0.7732
vn -0.8027 0.1318 -0.5816
vn -0.9170 0.2328 -0.3240
vn -0.3038 0.0908 0.9484
vn -0.3057 -0.1129 0.9454
vn -0.0260 -0.2151 0.9763
vn 0.8093 0.0719 0.5830
vn 0.8027 -0.1318 0.5816
vn 0.9170 -0.2328 0.3240
vn 0.8057 0.0661 -0.5886
vn 0.7992 -0.1375 -0.5851
vn 0.5880 -0.2332 -0.7745
vn -0.3096 0.0815 -0.9474
vn -0.3114 -0.1222 -0.9424
vn -0.5582 -0.2157 -0.8012
vn -0.9953 0.0968 0.0025
vn -0.9943 -0.1070 0.0035
vn -0.9377 -0.2045 0.2808
vn -0.5518 -0.4830 0.6799
vn -0.2438 -0.6379 0.7305
vn 0.0397 -0.4911 0.8702
vn 0.4685 -0.4984 0.7294
vn 0.6094 -0.6524 0.4504
vn 0.8322 -0.5065 0.2257
vn 0.8308 -0.5088 -0.2257
vn 0.6067 -0.6569 -0.4477
vn 0.4641 -0.5056 -0.7273
vn -0.8182 -0.4807 0.3155
vn -0.7738 -0.6334 0.0055
vn -0.4915 -0.8709 0.0058
vn 0.0344 -0.4997 -0.8655
vn -0.2482 -0.6451 -0.7227
vn -0.5558 -0.4896 -0.6718
vt 0.500000 0.500000
vt 0.563798 0.453648
vt 0.475632 0.425001
vt 0.421141 0.412792
vt 0.453648 0.334122
vt 0.500000 0.397482
vt 0.421141 0.500000
vt 0.475632 0.574999
vt 0.563798 0.546352
vt 0.453648 0.500000
vt 0.458542 0.412792
vt 0.539430 0.397481
vt 0.500000 0.412793
vt 0.425000 0.397481
vt 0.396772 0.397481
vt 0.411832 0.500000
vt 0.608541 0.412792
vt 0.588168 0.500000
vt 0.378647 0.500000
vt 0.546352 0.500000
vt 0.578859 0.412792
vt 0.621352 0.500000
vt 0.541458 0.587208
vt 0.603228 0.602519
vt 0.524368 0.665878
vt 0.391459 0.587208
vt 0.460570 0.602519
vt 0.436202 0.665878
vt 0.578859 0.587208
vt 0.500000 0.602518
vt 0.546352 0.665878
vt 0.500000 0.587207
vt 0.575000 0.602519
vt 0.500000 0.665877
vt 0.578859 0.500000
vt 0.524368 0.574999
vt 0.603228 0.575000
vt 0.436202 0.546352
vt 0.460570 0.621352
vt 0.436202 0.453648
vt 0.372403 0.500000
vt 0.421141 0.587208
vt 0.453648 0.665878
vt 0.524368 0.425001
vt 0.460570 0.378648
vt 0.603228 0.425000
vt 0.425000 0.602519
vt 0.575000 0.397481
vt 0.563798 0.334122
vt 0.539430 0.621352
vt 0.475632 0.334122
vt 0.396772 0.575000
vt 0.500000 0.334123
vt 0.396772 0.425000
vt 0.546352 0.334122
vt 0.627597 0.500000
vt 0.539430 0.378648
vt 0.544234 0.467863
vt 0.483105 0.448000
vt 0.445325 0.427908
vt 0.467863 0.362875
vt 0.500000 0.415251
vt 0.445324 0.500000
vt 0.483105 0.552000
vt 0.544234 0.532137
vt 0.467863 0.500000
vt 0.471256 0.427908
vt 0.527338 0.415251
vt 0.500000 0.427909
vt 0.448000 0.415251
vt 0.428428 0.415251
vt 0.438870 0.500000
vt 0.575255 0.427908
vt 0.561130 0.500000
vt 0.415862 0.500000
vt 0.532137 0.500000
vt 0.554675 0.427908
vt 0.584138 0.500000
vt 0.528744 0.572092
vt 0.571572 0.584749
vt 0.516895 0.637125
vt 0.424745 0.572092
vt 0.472662 0.584749
vt 0.455766 0.637125
vt 0.554675 0.572092
vt 0.500000 0.584749
vt 0.532137 0.637125
vt 0.500000 0.572091
vt 0.552000 0.584749
vt 0.500000 0.637125
vt 0.554676 0.500000
vt 0.516895 0.552000
vt 0.571572 0.552000
vt 0.455766 0.532137
vt 0.455766 0.467863
vt 0.467863 0.637125
vt 0.445325 0.572092
vt 0.516895 0.448000
vt 0.571572 0.448000
vt 0.448000 0.584749
vt 0.552000 0.415251
vt 0.544234 0.362875
vt 0.483105 0.362875
vt 0.428428 0.552000
vt 0.500000 0.362875
vt 0.428428 0.448000
vt 0.532137 0.362875
s 0
usemtl core
f 1/1/1 14/2/1 13/3/1
f 2/4/2 14/5/2 16/6/2
f 1/1/3 13/3/3 18/7/3
f 1/1/4 18/7/4 20/8/4
f 1/1/5 20/8/5 17/9/5
f 2/4/6 16/6/6 23/10/6
f 3/11/7 15/12/7 25/1/7
f 4/13/8 19/14/8 27/10/8
f 5/11/9 21/15/9 29/16/9
f 6/17/10 22/12/10 31/18/10
f 2/4/11 23/10/11 26/19/11
f 3/11/12 25/1/12 28/16/12
f 4/13/13 27/10/13 30/20/13
f 5/11/14 29/16/14 32/1/14
f 6/21/15 31/22/15 24/20/15
f 7/23/16 33/24/16 38/25/16
f 8/26/17 34/27/17 40/28/17
f 9/29/18 35/30/18 41/31/18
f 10/23/19 36/27/19 42/25/19
f 11/32/20 37/33/20 39/34/20
f 39/35/21 42/36/21 12/1/21
f 39/35/22 37/37/22 42/36/22
f 37/24/23 10/23/23 42/25/23
f 42/36/24 41/38/24 12/1/24
f 42/36/25 36/39/25 41/38/25
f 36/27/26 9/26/26 41/28/26
f 41/38/27 40/40/27 12/1/27
f 41/38/28 35/41/28 40/40/28
f 35/30/29 8/42/29 40/43/29
f 40/40/30 38/44/30 12/1/30
f 40/40/31 34/45/31 38/44/31
f 34/27/32 7/23/32 38/25/32
f 38/44/33 39/35/33 12/1/33
f 38/44/34 33/46/34 39/35/34
f 33/47/35 11/32/35 39/34/35
f 24/20/36 37/33/36 11/32/36
f 24/20/37 31/22/37 37/33/37
f 31/18/38 10/23/38 37/24/38
f 32/1/39 36/27/39 10/23/39
f 32/1/40 29/16/40 36/27/40
f 29/16/41 9/26/41 36/27/41
f 30/20/42 35/30/42 9/29/42
f 30/20/43 27/10/43 35/30/43
f 27/10/44 8/42/44 35/30/44
f 28/16/45 34/27/45 8/26/45
f 28/16/46 25/1/46 34/27/46
f 25/1/47 7/23/47 34/27/47
f 26/18/48 33/24/48 7/23/48
f 26/19/49 23/10/49 33/47/49
f 23/10/50 11/32/50 33/47/50
f 31/18/51 32/1/51 10/23/51
f 31/18/52 22/12/52 32/1/52
f 22/12/53 5/11/53 32/1/53
f 29/22/54 30/20/54 9/29/54
f 29/22/55 21/48/55 30/20/55
f 21/48/56 4/13/56 30/20/56
f 27/10/57 28/19/57 8/42/57
f 27/10/58 19/14/58 28/19/58
f 19/15/59 3/11/59 28/16/59
f 25/1/60 26/18/60 7/23/60
f 25/1/61 15/12/61 26/18/61
f 15/12/62 2/17/62 26/18/62
f 23/10/63 24/20/63 11/32/63
f 23/10/64 16/6/64 24/20/64
f 16/6/65 6/21/65 24/20/65
f 17/49/66 22/12/66 6/17/66
f 17/9/67 20/8/67 22/50/67
f 20/51/68 5/11/68 22/12/68
f 20/51/69 21/15/69 5/11/69
f 20/8/70 18/7/70 21/52/70
f 18/53/71 4/13/71 21/48/71
f 18/53/72 19/14/72 4/13/72
f 18/7/73 13/3/73 19/54/73
f 13/51/74 3/11/74 19/15/74
f 16/6/75 17/55/75 6/21/75
f 16/56/76 14/2/76 17/9/76
f 14/2/77 1/1/77 17/9/77
f 13/51/78 15/12/78 3/11/78
f 13/3/79 14/2/79 15/57/79
f 14/49/80 2/17/80 15/12/80
f 43/1/81 56/58/81 55/59/81
f 44/60/82 56/61/82 58/62/82
f 43/1/83 55/59/83 60/63/83
f 43/1/84 60/63/84 62/64/84
f 43/1/85 62/64/85 59/65/85
f 44/60/86 58/62/86 65/66/86
f 45/67/87 57/68/87 67/1/87
f 46/69/88 61/70/88 69/66/88
f 47/67/89 63/71/89 71/72/89
f 48/73/90 64/68/90 73/74/90
f 44/60/91 65/66/91 68/75/91
f 45/67/92 67/1/92 70/72/92
f 46/69/93 69/66/93 72/76/93
f 47/67/94 71/72/94 74/1/94
f 48/77/95 73/78/95 66/76/95
f 49/79/96 75/80/96 80/81/96
f 50/82/97 76/83/97 82/84/97
f 51/85/98 77/86/98 83/87/98
f 52/79/99 78/83/99 84/81/99
f 53/88/100 79/89/100 81/90/100
f 81/91/101 84/92/101 54/1/101
f 81/91/102 79/93/102 84/92/102
f 79/80/103 52/79/103 84/81/103
f 84/92/104 83/94/104 54/1/104
f 84/81/105 78/83/105 83/84/105
f 78/83/106 51/82/106 83/84/106
f 83/94/107 82/95/107 54/1/107
f 83/87/108 77/86/108 82/96/108
f 77/86/109 50/97/109 82/96/109
f 82/95/110 80/98/110 54/1/110
f 82/84/111 76/83/111 80/81/111
f 76/83/112 49/79/112 80/81/112
f 80/98/113 81/91/113 54/1/113
f 80/98/114 75/99/114 81/91/114
f 75/100/115 53/88/115 81/90/115
f 66/76/116 79/89/116 53/88/116
f 66/76/117 73/78/117 79/89/117
f 73/74/118 52/79/118 79/80/118
f 74/1/119 78/83/119 52/79/119
f 74/1/120 71/72/120 78/83/120
f 71/72/121 51/82/121 78/83/121
f 72/76/122 77/86/122 51/85/122
f 72/76/123 69/66/123 77/86/123
f 69/66/124 50/97/124 77/86/124
f 70/72/125 76/83/125 50/82/125
f 70/72/126 67/1/126 76/83/126
f 67/1/127 49/79/127 76/83/127
f 68/74/128 75/80/128 49/79/128
f 68/75/129 65/66/129 75/100/129
f 65/66/130 53/88/130 75/100/130
f 73/74/131 74/1/131 52/79/131
f 73/74/132 64/68/132 74/1/132
f 64/68/133 47/67/133 74/1/133
f 71/78/134 72/76/134 51/85/134
f 71/78/135 63/101/135 72/76/135
f 63/101/136 46/69/136 72/76/136
f 69/66/137 70/75/137 50/97/137
f 69/66/138 61/70/138 70/75/138
f 61/71/139 45/67/139 70/72/139
f 67/1/140 68/74/140 49/79/140
f 67/1/141 57/68/141 68/74/141
f 57/68/142 44/73/142 68/74/142
f 65/66/143 66/76/143 53/88/143
f 65/66/144 58/62/144 66/76/144
f 58/62/145 48/77/145 66/76/145
f 59/102/146 64/68/146 48/73/146
f 59/102/147 62/103/147 64/68/147
f 62/103/148 47/67/148 64/68/148
f 62/103/149 63/71/149 47/67/149
f 62/64/150 60/63/150 63/104/150
f 60/105/151 46/69/151 63/101/151
f 60/105/152 61/70/152 46/69/152
f 60/63/153 55/59/153 61/106/153
f 55/103/154 45/67/154 61/71/154
f 58/62/155 59/107/155 48/77/155
f 58/62/156 56/61/156 59/107/156
f 56/58/157 43/1/157 59/65/157
f 55/103/158 57/68/158 45/67/158
f 55/103/159 56/102/159 57/68/159
f 56/102/160 44/73/160 57/68/160
