# Blender 4.5.10 LTS
# www.blender.org
mtllib grove_sapling_3.mtl
o grove_sapling_3
v 0.000000 -0.010000 0.280000
v 0.000000 0.080000 0.210000
v -0.197990 -0.010000 0.197990
v -0.148492 0.080000 0.148492
v -0.280000 -0.010000 0.000000
v -0.210000 0.080000 0.000000
v -0.197990 -0.010000 -0.197990
v -0.148492 0.080000 -0.148492
v 0.000000 -0.010000 -0.280000
v 0.000000 0.080000 -0.210000
v 0.197990 -0.010000 -0.197990
v 0.148492 0.080000 -0.148492
v 0.280000 -0.010000 0.000000
v 0.210000 0.080000 0.000000
v 0.197990 -0.010000 0.197990
v 0.148492 0.080000 0.148492
v 0.000000 0.041111 0.224324
v 0.000000 0.975113 0.085251
v -0.173205 0.035878 0.124461
v -0.095263 0.972234 0.030327
v -0.173205 0.025411 -0.075265
v -0.095263 0.966477 -0.079523
v 0.000000 0.020177 -0.175128
v 0.000000 0.963599 -0.134447
v 0.173205 0.025411 -0.075265
v 0.095263 0.966477 -0.079523
v 0.173205 0.035878 0.124461
v 0.095263 0.972234 0.030327
v -0.330459 0.458966 -0.095000
v -0.022658 0.800812 -0.095000
v -0.330459 0.458966 -0.005000
v -0.022658 0.800812 -0.005000
v -0.397342 0.519188 -0.095000
v -0.089541 0.861034 -0.095000
v -0.397342 0.519188 -0.005000
v -0.089541 0.861034 -0.005000
v 0.358593 0.630103 0.005000
v 0.112328 0.945307 0.005000
v 0.358593 0.630103 0.095000
v 0.112328 0.945307 0.095000
v 0.287672 0.574693 0.005000
v 0.041407 0.889897 0.005000
v 0.287672 0.574693 0.095000
v 0.041407 0.889897 0.095000
v -0.010000 0.727046 0.241685
v -0.010000 0.985931 0.053594
v -0.010000 0.774069 0.306406
v -0.010000 1.032954 0.118315
v -0.090000 0.727046 0.241685
v -0.090000 0.985931 0.053594
v -0.090000 0.774069 0.306406
v -0.090000 1.032954 0.118315
v 0.000000 0.890000 0.140000
v 0.000000 1.150000 0.110000
v -0.113137 0.890000 0.093137
v -0.091924 1.150000 0.071924
v -0.160000 0.890000 -0.020000
v -0.130000 1.150000 -0.020000
v -0.113137 0.890000 -0.133137
v -0.091924 1.150000 -0.111924
v 0.000000 0.890000 -0.180000
v 0.000000 1.150000 -0.150000
v 0.113137 0.890000 -0.133137
v 0.091924 1.150000 -0.111924
v 0.160000 0.890000 -0.020000
v 0.130000 1.150000 -0.020000
v 0.113137 0.890000 0.093137
v 0.091924 1.150000 0.071924
v 0.000000 1.130000 0.110000
v 0.000000 1.270000 0.020000
v -0.091924 1.130000 0.071924
v -0.028284 1.270000 0.008284
v -0.130000 1.130000 -0.020000
v -0.040000 1.270000 -0.020000
v -0.091924 1.130000 -0.111924
v -0.028284 1.270000 -0.048284
v 0.000000 1.130000 -0.150000
v 0.000000 1.270000 -0.060000
v 0.091924 1.130000 -0.111924
v 0.028284 1.270000 -0.048284
v 0.130000 1.130000 -0.020000
v 0.040000 1.270000 -0.020000
v 0.091924 1.130000 0.071924
v 0.028284 1.270000 0.008284
v 0.030000 0.928127 -0.143649
v 0.030000 1.107688 -0.156205
v 0.030000 0.932312 -0.083795
v 0.030000 1.111873 -0.096351
v -0.030000 0.928127 -0.143649
v -0.030000 1.107688 -0.156205
v -0.030000 0.932312 -0.083795
v -0.030000 1.111873 -0.096351
vn -0.3108 0.5835 0.7503
vn -0.7503 0.5835 0.3108
vn -0.7503 0.5835 -0.3108
vn -0.3108 0.5835 -0.7503
vn 0.3108 0.5835 -0.7503
vn 0.7503 0.5835 -0.3108
vn -0.0000 1.0000 -0.0000
vn 0.7503 0.5835 0.3108
vn 0.3108 0.5835 0.7503
vn -0.0000 -1.0000 -0.0000
vn -0.4983 0.1277 0.8576
vn -0.9966 0.0825 -0.0043
vn -0.4983 0.0374 -0.8662
vn 0.4983 0.0374 -0.8662
vn -0.0000 0.9986 -0.0523
vn 0.9966 0.0825 -0.0043
vn 0.4983 0.1277 0.8576
vn -0.0000 -0.9986 0.0523
vn 0.7431 -0.6691 -0.0000
vn -0.0000 -0.0000 1.0000
vn -0.7431 0.6691 -0.0000
vn -0.0000 -0.0000 -1.0000
vn -0.6691 -0.7431 -0.0000
vn 0.6691 0.7431 -0.0000
vn 0.7880 0.6157 -0.0000
vn -0.7880 -0.6157 -0.0000
vn 0.6157 -0.7880 -0.0000
vn -0.6157 0.7880 -0.0000
vn 1.0000 -0.0000 -0.0000
vn -0.0000 0.5878 0.8090
vn -1.0000 -0.0000 -0.0000
vn -0.0000 -0.5878 -0.8090
vn -0.0000 -0.8090 0.5878
vn -0.0000 0.8090 -0.5878
vn -0.3805 0.1060 0.9187
vn -0.9187 0.1060 0.3805
vn -0.9187 0.1060 -0.3805
vn -0.3805 0.1060 -0.9187
vn 0.3805 0.1060 -0.9187
vn 0.9187 0.1060 -0.3805
vn 0.9187 0.1060 0.3805
vn 0.3805 0.1060 0.9187
vn -0.3290 0.5106 0.7943
vn -0.7943 0.5106 0.3290
vn -0.7943 0.5106 -0.3290
vn -0.3290 0.5106 -0.7943
vn 0.3290 0.5106 -0.7943
vn 0.7943 0.5106 -0.3290
vn 0.7943 0.5106 0.3290
vn 0.3290 0.5106 0.7943
vn -0.0000 0.0698 0.9976
vn -0.0000 -0.0698 -0.9976
vn -0.0000 -0.9976 0.0698
vn -0.0000 0.9976 -0.0698
vt 1.000000 1.000000
vt 0.875000 0.500000
vt 1.000000 0.500000
vt 0.750000 1.000000
vt 0.750000 0.500000
vt 0.625000 0.500000
vt 0.500000 1.000000
vt 0.500000 0.500000
vt 0.375000 0.500000
vt 0.250000 1.000000
vt 0.250000 0.500000
vt 0.010000 0.250000
vt 0.250000 0.010000
vt 0.490000 0.250000
vt 0.125000 0.500000
vt 0.000000 1.000000
vt 0.000000 0.500000
vt 0.919706 0.080294
vt 0.580294 0.080294
vt 0.580294 0.419706
vt 0.833333 0.500000
vt 0.833333 1.000000
vt 0.666667 0.500000
vt 0.666667 1.000000
vt 0.500000 0.500000
vt 0.333333 1.000000
vt 0.333333 0.500000
vt 0.250000 0.490000
vt 0.042154 0.130000
vt 0.457846 0.130000
vt 0.166667 0.500000
vt 0.166667 1.000000
vt -0.000000 0.500000
vt 0.957846 0.370000
vt 0.750000 0.010000
vt 0.542154 0.370000
vt 0.625000 0.000000
vt 0.375000 0.250000
vt 0.375000 0.000000
vt 0.625000 0.250000
vt 0.375000 0.750000
vt 0.625000 0.750000
vt 0.375000 1.000000
vt 0.125000 0.750000
vt 0.875000 1.000000
vt 0.625000 1.000000
vt 0.010000 0.250000
vt 0.250000 0.010000
vt 0.125000 1.000000
vt 0.919706 0.080294
vt 0.580294 0.080294
vt 0.419706 0.419706
vt 0.080294 0.419706
vt 0.080294 0.080294
vt 0.419706 0.080294
vt 0.750000 0.490000
vt 0.919706 0.419706
vt 0.990000 0.250000
vt 0.750000 0.010000
vt 0.510000 0.250000
vt 0.500000 1.000000
vt 0.457846 0.370000
vt 0.042154 0.370000
vt -0.000000 1.000000
vt 0.750000 0.490000
vt 0.957846 0.130000
vt 0.542154 0.130000
vt 0.875000 0.750000
vt 0.080294 0.419706
vt 0.080294 0.080294
vt 0.419706 0.080294
s 0
usemtl moss
f 2/1/1 3/2/1 1/3/1
f 3/2/2 6/4/2 5/5/2
f 6/4/3 7/6/3 5/5/3
f 7/6/4 10/7/4 9/8/4
f 10/7/5 11/9/5 9/8/5
f 11/9/6 14/10/6 13/11/6
f 14/12/7 10/13/7 6/14/7
f 14/10/8 15/15/8 13/11/8
f 15/15/9 2/16/9 1/17/9
f 7/18/10 11/19/10 15/20/10
f 54/1/35 55/2/35 53/3/35
f 56/45/36 57/5/36 55/2/36
f 58/4/37 59/6/37 57/5/37
f 60/46/38 61/8/38 59/6/38
f 62/7/39 63/9/39 61/8/39
f 64/43/40 65/11/40 63/9/40
f 66/47/7 62/48/7 58/14/7
f 66/10/41 67/15/41 65/11/41
f 68/49/42 53/17/42 67/15/42
f 59/50/10 63/51/10 67/20/10
f 69/3/43 72/45/43 71/2/43
f 72/45/44 73/5/44 71/2/44
f 73/5/45 76/46/45 75/6/45
f 76/46/46 77/8/46 75/6/46
f 77/8/47 80/43/47 79/9/47
f 79/9/48 82/10/48 81/11/48
f 82/47/7 78/48/7 74/14/7
f 82/10/49 83/15/49 81/11/49
f 84/49/50 69/17/50 83/15/50
f 75/18/10 79/19/10 83/20/10
f 2/1/1 4/45/1 3/2/1
f 3/2/2 4/45/2 6/4/2
f 6/4/3 8/46/3 7/6/3
f 7/6/4 8/46/4 10/7/4
f 10/7/5 12/43/5 11/9/5
f 11/9/6 12/43/6 14/10/6
f 6/14/7 4/52/7 2/28/7
f 2/28/7 16/53/7 14/12/7
f 14/12/7 12/54/7 10/13/7
f 10/13/7 8/55/7 6/14/7
f 6/14/7 2/28/7 14/12/7
f 14/10/8 16/49/8 15/15/8
f 15/15/9 16/49/9 2/16/9
f 15/20/10 1/56/10 3/57/10
f 3/57/10 5/58/10 7/18/10
f 7/18/10 9/59/10 11/19/10
f 11/19/10 13/60/10 15/20/10
f 15/20/10 3/57/10 7/18/10
f 54/1/35 56/45/35 55/2/35
f 56/45/36 58/4/36 57/5/36
f 58/4/37 60/46/37 59/6/37
f 60/46/38 62/7/38 61/8/38
f 62/7/39 64/43/39 63/9/39
f 64/43/40 66/10/40 65/11/40
f 58/14/7 56/52/7 54/28/7
f 54/28/7 68/53/7 66/47/7
f 66/47/7 64/54/7 62/48/7
f 62/48/7 60/55/7 58/14/7
f 58/14/7 54/28/7 66/47/7
f 66/10/41 68/49/41 67/15/41
f 68/49/42 54/16/42 53/17/42
f 67/20/10 53/65/10 55/57/10
f 55/57/10 57/58/10 59/50/10
f 59/50/10 61/35/10 63/51/10
f 63/51/10 65/60/10 67/20/10
f 67/20/10 55/57/10 59/50/10
f 69/3/43 70/1/43 72/45/43
f 72/45/44 74/4/44 73/5/44
f 73/5/45 74/4/45 76/46/45
f 76/46/46 78/7/46 77/8/46
f 77/8/47 78/7/47 80/43/47
f 79/9/48 80/43/48 82/10/48
f 74/14/7 72/52/7 70/28/7
f 70/28/7 84/69/7 82/47/7
f 82/47/7 80/70/7 78/48/7
f 78/48/7 76/71/7 74/14/7
f 74/14/7 70/28/7 82/47/7
f 82/10/49 84/49/49 83/15/49
f 84/49/50 70/16/50 69/17/50
f 83/20/10 69/65/10 71/57/10
f 71/57/10 73/58/10 75/18/10
f 75/18/10 77/35/10 79/19/10
f 79/19/10 81/60/10 83/20/10
f 83/20/10 71/57/10 75/18/10
usemtl bark
f 18/1/11 19/21/11 17/3/11
f 20/22/12 21/23/12 19/21/12
f 22/24/13 23/25/13 21/23/13
f 23/25/14 26/26/14 25/27/14
f 18/28/15 26/29/15 22/30/15
f 26/26/16 27/31/16 25/27/16
f 28/32/17 17/33/17 27/31/17
f 19/34/18 23/35/18 27/36/18
f 30/37/19 31/38/19 29/39/19
f 32/40/20 35/9/20 31/38/20
f 36/6/21 33/41/21 35/9/21
f 34/42/22 29/43/22 33/41/22
f 35/9/23 29/44/23 31/15/23
f 32/2/24 34/42/24 36/6/24
f 38/37/25 39/38/25 37/39/25
f 40/40/20 43/9/20 39/38/20
f 44/6/26 41/41/26 43/9/26
f 42/42/22 37/43/22 41/41/22
f 43/9/27 37/44/27 39/15/27
f 40/2/28 42/42/28 44/6/28
f 46/37/29 47/38/29 45/39/29
f 48/40/30 51/9/30 47/38/30
f 52/6/31 49/41/31 51/9/31
f 50/42/32 45/43/32 49/41/32
f 51/9/33 45/44/33 47/15/33
f 48/2/34 50/42/34 52/6/34
f 18/1/11 20/22/11 19/21/11
f 20/22/12 22/24/12 21/23/12
f 22/24/13 24/61/13 23/25/13
f 23/25/14 24/61/14 26/26/14
f 22/30/15 20/62/15 18/28/15
f 18/28/15 28/63/15 26/29/15
f 26/29/15 24/13/15 22/30/15
f 26/26/16 28/32/16 27/31/16
f 28/32/17 18/64/17 17/33/17
f 27/36/18 17/65/18 19/34/18
f 19/34/18 21/66/18 23/35/18
f 23/35/18 25/67/18 27/36/18
f 30/37/19 32/40/19 31/38/19
f 32/40/20 36/6/20 35/9/20
f 36/6/21 34/42/21 33/41/21
f 34/42/22 30/46/22 29/43/22
f 35/9/23 33/41/23 29/44/23
f 32/2/24 30/68/24 34/42/24
f 38/37/25 40/40/25 39/38/25
f 40/40/20 44/6/20 43/9/20
f 44/6/26 42/42/26 41/41/26
f 42/42/22 38/46/22 37/43/22
f 43/9/27 41/41/27 37/44/27
f 40/2/28 38/68/28 42/42/28
f 46/37/29 48/40/29 47/38/29
f 48/40/30 52/6/30 51/9/30
f 52/6/31 50/42/31 49/41/31
f 50/42/32 46/46/32 45/43/32
f 51/9/33 49/41/33 45/44/33
f 48/2/34 46/68/34 50/42/34
usemtl core
f 86/37/29 87/38/29 85/39/29
f 88/40/51 91/9/51 87/38/51
f 91/9/31 90/42/31 89/41/31
f 90/42/52 85/43/52 89/41/52
f 91/9/53 85/44/53 87/15/53
f 88/2/54 90/42/54 92/6/54
f 86/37/29 88/40/29 87/38/29
f 88/40/51 92/6/51 91/9/51
f 91/9/31 92/6/31 90/42/31
f 90/42/52 86/46/52 85/43/52
f 91/9/53 89/41/53 85/44/53
f 88/2/54 86/68/54 90/42/54
