# Blender 4.5.10 LTS
# www.blender.org
mtllib grove_sapling_4.mtl
o grove_sapling_4
v 0.000000 -0.010000 0.280000
v 0.000000 0.080000 0.210000
v -0.197990 -0.010000 0.197990
v -0.148492 0.080000 0.148492
v -0.280000 -0.010000 0.000000
v -0.210000 0.080000 0.000000
v -0.197990 -0.010000 -0.197990
v -0.148492 0.080000 -0.148492
v 0.000000 -0.010000 -0.280000
v 0.000000 0.080000 -0.210000
v 0.197990 -0.010000 -0.197990
v 0.148492 0.080000 -0.148492
v 0.280000 -0.010000 0.000000
v 0.210000 0.080000 0.000000
v 0.197990 -0.010000 0.197990
v 0.148492 0.080000 0.148492
v 0.000000 0.029451 0.281479
v 0.000000 1.264508 0.118277
v -0.225167 0.024915 0.151559
v -0.121244 1.262065 0.048320
v -0.225167 0.015841 -0.108283
v -0.121244 1.257179 -0.091595
v 0.000000 0.011304 -0.238204
v 0.000000 1.254736 -0.161552
v 0.225167 0.015841 -0.108283
v 0.121244 1.257179 -0.091595
v 0.225167 0.024915 0.151559
v 0.121244 1.262065 0.048320
v -0.448834 0.585992 -0.115000
v -0.032039 1.017596 -0.115000
v -0.448834 0.585992 -0.005000
v -0.032039 1.017596 -0.005000
v -0.527961 0.662404 -0.115000
v -0.111166 1.094008 -0.115000
v -0.527961 0.662404 -0.005000
v -0.111166 1.094008 -0.005000
v 0.469257 0.816182 0.005000
v 0.135008 1.214525 0.005000
v 0.469257 0.816182 0.115000
v 0.135008 1.214525 0.115000
v 0.384992 0.745475 0.005000
v 0.050743 1.143818 0.005000
v 0.384992 0.745475 0.115000
v 0.050743 1.143818 0.115000
v -0.020000 0.895855 0.326045
v -0.020000 1.242579 0.055154
v -0.020000 0.957421 0.404846
v -0.020000 1.304145 0.133955
v -0.120000 0.895855 0.326045
v -0.120000 1.242579 0.055154
v -0.120000 0.957421 0.404846
v -0.120000 1.304145 0.133955
v 0.000000 1.170000 0.220000
v 0.000000 1.630000 0.112000
v -0.169706 1.170000 0.149706
v -0.093338 1.630000 0.073338
v -0.240000 1.170000 -0.020000
v -0.132000 1.630000 -0.020000
v -0.169706 1.170000 -0.189706
v -0.093338 1.630000 -0.113338
v 0.000000 1.170000 -0.260000
v 0.000000 1.630000 -0.152000
v 0.169706 1.170000 -0.189706
v 0.093338 1.630000 -0.113338
v 0.240000 1.170000 -0.020000
v 0.132000 1.630000 -0.020000
v 0.169706 1.170000 0.149706
v 0.093338 1.630000 0.073338
v 0.070000 1.220000 -0.090000
v 0.070000 1.540000 -0.090000
v 0.070000 1.220000 0.050000
v 0.070000 1.540000 0.050000
v -0.070000 1.220000 -0.090000
v -0.070000 1.540000 -0.090000
v -0.070000 1.220000 0.050000
v -0.070000 1.540000 0.050000
v -0.168964 1.475955 0.148412
v -0.065620 1.847186 0.041137
v -0.163930 1.494041 0.215847
v -0.060585 1.865271 0.108573
v -0.236400 1.494729 0.148412
v -0.133055 1.865959 0.041137
v -0.231365 1.512814 0.215847
v -0.128021 1.884044 0.108573
v 0.236400 1.494729 0.148412
v 0.133055 1.865959 0.041137
v 0.231365 1.512814 0.215847
v 0.128021 1.884044 0.108573
v 0.168964 1.475955 0.148412
v 0.065620 1.847186 0.041137
v 0.163930 1.494041 0.215847
v 0.060585 1.865271 0.108573
v 0.231365 1.512814 -0.255847
v 0.128021 1.884044 -0.148573
v 0.236400 1.494729 -0.188412
v 0.133055 1.865959 -0.081137
v 0.163930 1.494041 -0.255847
v 0.060585 1.865271 -0.148573
v 0.168964 1.475955 -0.188412
v 0.065620 1.847186 -0.081137
v -0.163930 1.494041 -0.255847
v -0.060585 1.865271 -0.148573
v -0.168964 1.475955 -0.188412
v -0.065620 1.847186 -0.081137
v -0.231365 1.512814 -0.255847
v -0.128021 1.884044 -0.148573
v -0.236400 1.494729 -0.188412
v -0.133055 1.865959 -0.081137
vn -0.3108 0.5835 0.7503
vn -0.7503 0.5835 0.3108
vn -0.7503 0.5835 -0.3108
vn -0.3108 0.5835 -0.7503
vn 0.3108 0.5835 -0.7503
vn 0.7503 0.5835 -0.3108
vn -0.0000 1.0000 -0.0000
vn 0.7503 0.5835 0.3108
vn 0.3108 0.5835 0.7503
vn -0.0000 -1.0000 -0.0000
vn -0.4983 0.1136 0.8596
vn -0.9965 0.0835 -0.0029
vn -0.4983 0.0533 -0.8654
vn 0.4983 0.0533 -0.8654
vn -0.0000 0.9994 -0.0349
vn 0.9965 0.0835 -0.0029
vn 0.4983 0.1136 0.8596
vn -0.0000 -0.9994 0.0349
vn 0.7193 -0.6947 -0.0000
vn -0.0000 -0.0000 1.0000
vn -0.7193 0.6947 -0.0000
vn -0.0000 -0.0000 -1.0000
vn -0.6947 -0.7193 -0.0000
vn 0.6947 0.7193 -0.0000
vn 0.7660 0.6428 -0.0000
vn -0.7660 -0.6428 -0.0000
vn 0.6428 -0.7660 -0.0000
vn -0.6428 0.7660 -0.0000
vn 1.0000 -0.0000 -0.0000
vn -0.0000 0.6157 0.7880
vn -1.0000 -0.0000 -0.0000
vn -0.0000 -0.6157 -0.7880
vn -0.0000 -0.7880 0.6157
vn -0.0000 0.7880 -0.6157
vn -0.3740 0.2120 0.9029
vn -0.9029 0.2120 0.3740
vn -0.9029 0.2120 -0.3740
vn -0.3740 0.2120 -0.9029
vn 0.3740 0.2120 -0.9029
vn 0.9029 0.2120 -0.3740
vn 0.9029 0.2120 0.3740
vn 0.3740 0.2120 0.9029
vn 0.9634 -0.2682 -0.0000
vn 0.0719 0.2584 0.9634
vn -0.9634 0.2682 -0.0000
vn -0.0719 -0.2584 -0.9634
vn -0.2584 -0.9281 0.2682
vn 0.2584 0.9281 -0.2682
vn 0.9634 0.2682 -0.0000
vn -0.0719 0.2584 0.9634
vn -0.9634 -0.2682 -0.0000
vn 0.0719 -0.2584 -0.9634
vn 0.2584 -0.9281 0.2682
vn -0.2584 0.9281 -0.2682
vn 0.0719 -0.2584 0.9634
vn -0.0719 0.2584 -0.9634
vn 0.2584 -0.9281 -0.2682
vn -0.2584 0.9281 0.2682
vn -0.0719 -0.2584 0.9634
vn 0.0719 0.2584 -0.9634
vn -0.2584 -0.9281 -0.2682
vn 0.2584 0.9281 0.2682
vt 1.000000 1.000000
vt 0.875000 0.500000
vt 1.000000 0.500000
vt 0.750000 1.000000
vt 0.750000 0.500000
vt 0.625000 0.500000
vt 0.500000 1.000000
vt 0.500000 0.500000
vt 0.375000 0.500000
vt 0.250000 1.000000
vt 0.250000 0.500000
vt 0.010000 0.250000
vt 0.250000 0.010000
vt 0.490000 0.250000
vt 0.125000 0.500000
vt 0.000000 1.000000
vt 0.000000 0.500000
vt 0.919706 0.080294
vt 0.580294 0.080294
vt 0.580294 0.419706
vt 0.833333 0.500000
vt 0.833333 1.000000
vt 0.666667 0.500000
vt 0.500000 1.000000
vt 0.500000 0.500000
vt 0.333333 0.500000
vt 0.250000 0.490000
vt 0.042154 0.130000
vt 0.457846 0.130000
vt 0.333333 1.000000
vt 0.166667 0.500000
vt -0.000000 1.000000
vt -0.000000 0.500000
vt 0.957846 0.370000
vt 0.750000 0.010000
vt 0.542154 0.370000
vt 0.625000 0.000000
vt 0.375000 0.250000
vt 0.375000 0.000000
vt 0.625000 0.250000
vt 0.375000 0.750000
vt 0.625000 1.000000
vt 0.375000 1.000000
vt 0.125000 0.750000
vt 0.625000 0.750000
vt 0.875000 1.000000
vt 0.125000 1.000000
vt 0.875000 0.750000
vt 0.419706 0.419706
vt 0.250000 0.490000
vt 0.080294 0.419706
vt 0.080294 0.080294
vt 0.419706 0.080294
vt 0.750000 0.490000
vt 0.919706 0.419706
vt 0.990000 0.250000
vt 0.750000 0.010000
vt 0.510000 0.250000
vt 0.666667 1.000000
vt 0.457846 0.370000
vt 0.042154 0.370000
vt 0.250000 0.010000
vt 0.166667 1.000000
vt 0.750000 0.490000
vt 0.957846 0.130000
vt 0.542154 0.130000
s 0
usemtl moss
f 2/1/1 3/2/1 1/3/1
f 3/2/2 6/4/2 5/5/2
f 6/4/3 7/6/3 5/5/3
f 7/6/4 10/7/4 9/8/4
f 10/7/5 11/9/5 9/8/5
f 11/9/6 14/10/6 13/11/6
f 14/12/7 10/13/7 6/14/7
f 14/10/8 15/15/8 13/11/8
f 15/15/9 2/16/9 1/17/9
f 7/18/10 11/19/10 15/20/10
f 54/1/35 55/2/35 53/3/35
f 56/46/36 57/5/36 55/2/36
f 58/4/37 59/6/37 57/5/37
f 60/42/38 61/8/38 59/6/38
f 62/7/39 63/9/39 61/8/39
f 63/9/40 66/10/40 65/11/40
f 66/10/41 67/15/41 65/11/41
f 68/47/42 53/17/42 67/15/42
f 2/1/1 4/46/1 3/2/1
f 3/2/2 4/46/2 6/4/2
f 6/4/3 8/42/3 7/6/3
f 7/6/4 8/42/4 10/7/4
f 10/7/5 12/43/5 11/9/5
f 11/9/6 12/43/6 14/10/6
f 6/14/7 4/49/7 2/50/7
f 2/50/7 16/51/7 14/12/7
f 14/12/7 12/52/7 10/13/7
f 10/13/7 8/53/7 6/14/7
f 6/14/7 2/50/7 14/12/7
f 14/10/8 16/47/8 15/15/8
f 15/15/9 16/47/9 2/16/9
f 15/20/10 1/54/10 3/55/10
f 3/55/10 5/56/10 7/18/10
f 7/18/10 9/57/10 11/19/10
f 11/19/10 13/58/10 15/20/10
f 15/20/10 3/55/10 7/18/10
f 54/1/35 56/46/35 55/2/35
f 56/46/36 58/4/36 57/5/36
f 58/4/37 60/42/37 59/6/37
f 60/42/38 62/7/38 61/8/38
f 62/7/39 64/43/39 63/9/39
f 63/9/40 64/43/40 66/10/40
f 66/10/41 68/47/41 67/15/41
f 68/47/42 54/16/42 53/17/42
usemtl bark
f 18/1/11 19/21/11 17/3/11
f 20/22/12 21/23/12 19/21/12
f 21/23/13 24/24/13 23/25/13
f 24/24/14 25/26/14 23/25/14
f 18/27/15 26/28/15 22/29/15
f 26/30/16 27/31/16 25/26/16
f 27/31/17 18/32/17 17/33/17
f 19/34/18 23/35/18 27/36/18
f 30/37/19 31/38/19 29/39/19
f 32/40/20 35/9/20 31/38/20
f 36/6/21 33/41/21 35/9/21
f 33/41/22 30/42/22 29/43/22
f 35/9/23 29/44/23 31/15/23
f 32/2/24 34/45/24 36/6/24
f 38/37/25 39/38/25 37/39/25
f 40/40/20 43/9/20 39/38/20
f 44/6/26 41/41/26 43/9/26
f 41/41/22 38/42/22 37/43/22
f 43/9/27 37/44/27 39/15/27
f 40/2/28 42/45/28 44/6/28
f 45/39/29 48/40/29 47/38/29
f 48/40/30 51/9/30 47/38/30
f 52/6/31 49/41/31 51/9/31
f 50/45/32 45/43/32 49/41/32
f 51/9/33 45/44/33 47/15/33
f 48/2/34 50/45/34 52/6/34
f 78/37/43 79/38/43 77/39/43
f 80/40/44 83/9/44 79/38/44
f 84/6/45 81/41/45 83/9/45
f 82/45/46 77/43/46 81/41/46
f 83/9/47 77/44/47 79/15/47
f 80/2/48 82/45/48 84/6/48
f 85/39/49 88/40/49 87/38/49
f 88/40/50 91/9/50 87/38/50
f 92/6/51 89/41/51 91/9/51
f 89/41/52 86/42/52 85/43/52
f 87/15/53 89/41/53 85/44/53
f 92/6/54 86/48/54 90/45/54
f 94/37/49 95/38/49 93/39/49
f 96/40/55 99/9/55 95/38/55
f 100/6/51 97/41/51 99/9/51
f 97/41/56 94/42/56 93/43/56
f 95/15/57 97/41/57 93/44/57
f 96/2/58 98/45/58 100/6/58
f 102/37/43 103/38/43 101/39/43
f 104/40/59 107/9/59 103/38/59
f 107/9/45 106/45/45 105/41/45
f 106/45/60 101/43/60 105/41/60
f 107/9/61 101/44/61 103/15/61
f 108/6/62 102/48/62 106/45/62
f 18/1/11 20/22/11 19/21/11
f 20/22/12 22/59/12 21/23/12
f 21/23/13 22/59/13 24/24/13
f 24/24/14 26/30/14 25/26/14
f 22/29/15 20/60/15 18/27/15
f 18/27/15 28/61/15 26/28/15
f 26/28/15 24/62/15 22/29/15
f 26/30/16 28/63/16 27/31/16
f 27/31/17 28/63/17 18/32/17
f 27/36/18 17/64/18 19/34/18
f 19/34/18 21/65/18 23/35/18
f 23/35/18 25/66/18 27/36/18
f 30/37/19 32/40/19 31/38/19
f 32/40/20 36/6/20 35/9/20
f 36/6/21 34/45/21 33/41/21
f 33/41/22 34/45/22 30/42/22
f 35/9/23 33/41/23 29/44/23
f 32/2/24 30/48/24 34/45/24
f 38/37/25 40/40/25 39/38/25
f 40/40/20 44/6/20 43/9/20
f 44/6/26 42/45/26 41/41/26
f 41/41/22 42/45/22 38/42/22
f 43/9/27 41/41/27 37/44/27
f 40/2/28 38/48/28 42/45/28
f 45/39/29 46/37/29 48/40/29
f 48/40/30 52/6/30 51/9/30
f 52/6/31 50/45/31 49/41/31
f 50/45/32 46/42/32 45/43/32
f 51/9/33 49/41/33 45/44/33
f 48/2/34 46/48/34 50/45/34
f 78/37/43 80/40/43 79/38/43
f 80/40/44 84/6/44 83/9/44
f 84/6/45 82/45/45 81/41/45
f 82/45/46 78/42/46 77/43/46
f 83/9/47 81/41/47 77/44/47
f 80/2/48 78/48/48 82/45/48
f 85/39/49 86/37/49 88/40/49
f 88/40/50 92/6/50 91/9/50
f 92/6/51 90/45/51 89/41/51
f 89/41/52 90/45/52 86/42/52
f 87/15/53 91/9/53 89/41/53
f 92/6/54 88/2/54 86/48/54
f 94/37/49 96/40/49 95/38/49
f 96/40/55 100/6/55 99/9/55
f 100/6/51 98/45/51 97/41/51
f 97/41/56 98/45/56 94/42/56
f 95/15/57 99/9/57 97/41/57
f 96/2/58 94/48/58 98/45/58
f 102/37/43 104/40/43 103/38/43
f 104/40/59 108/6/59 107/9/59
f 107/9/45 108/6/45 106/45/45
f 106/45/60 102/42/60 101/43/60
f 107/9/61 105/41/61 101/44/61
f 108/6/62 104/2/62 102/48/62
usemtl core
f 70/37/29 71/38/29 69/39/29
f 72/40/20 75/9/20 71/38/20
f 76/6/31 73/41/31 75/9/31
f 74/45/22 69/43/22 73/41/22
f 75/9/10 69/44/10 71/15/10
f 72/2/7 74/45/7 76/6/7
f 70/37/29 72/40/29 71/38/29
f 72/40/20 76/6/20 75/9/20
f 76/6/31 74/45/31 73/41/31
f 74/45/22 70/42/22 69/43/22
f 75/9/10 73/41/10 69/44/10
f 72/2/7 70/48/7 74/45/7
