# Blender 4.5.10 LTS
# www.blender.org
mtllib grove_heartwood.mtl
o grove_heartwood
v 0.087340 -0.118759 0.043994
v 0.100904 -0.105359 0.052398
v 0.075730 -0.103680 0.052478
v 0.096544 -0.115079 0.049656
v 0.087784 -0.112558 0.053248
v 0.088334 -0.104416 0.055655
v 0.078743 -0.113891 0.049712
v 0.103890 0.130233 0.025865
v 0.090427 0.117444 0.036378
v 0.115601 0.115764 0.036298
v 0.094750 0.126939 0.032177
v 0.103550 0.124656 0.035976
v 0.103031 0.116708 0.039554
v 0.112551 0.125752 0.032120
v 0.060388 -0.117385 0.031112
v 0.062302 -0.102995 0.046060
v 0.046500 -0.102585 0.026395
v 0.061721 -0.113023 0.041577
v 0.053440 -0.110806 0.036833
v 0.051901 -0.102558 0.038241
v 0.050548 -0.112733 0.027671
v 0.084759 0.131209 0.016720
v 0.068143 0.118185 0.013614
v 0.083944 0.117774 0.033279
v 0.074120 0.127711 0.013751
v 0.076657 0.126028 0.023122
v 0.073544 0.118212 0.025460
v 0.085293 0.127421 0.027657
v 0.053593 -0.117883 0.001994
v 0.043115 -0.102833 0.011888
v 0.048586 -0.104000 -0.012715
v 0.046257 -0.113047 0.009282
v 0.044781 -0.111440 -0.000271
v 0.042716 -0.103231 -0.001119
v 0.050125 -0.113872 -0.008115
v 0.079935 0.130856 -0.003948
v 0.071979 0.116898 -0.017992
v 0.066509 0.118065 0.006611
v 0.075604 0.126712 -0.013863
v 0.069877 0.125531 -0.005932
v 0.066110 0.117667 -0.006396
v 0.071735 0.127537 0.003534
v 0.072072 -0.119878 -0.021433
v 0.057792 -0.104994 -0.024387
v 0.080415 -0.106860 -0.035400
v 0.061795 -0.115132 -0.022910
v 0.068328 -0.113982 -0.030122
v 0.067695 -0.105927 -0.032787
v 0.077792 -0.116452 -0.030698
v 0.093052 0.129440 -0.020577
v 0.099047 0.114552 -0.034640
v 0.076424 0.116418 -0.023627
v 0.098084 0.124692 -0.029870
v 0.088315 0.123541 -0.029307
v 0.086327 0.115485 -0.032027
v 0.082087 0.126012 -0.022083
v 0.101910 -0.121868 -0.021528
v 0.095281 -0.107851 -0.035448
v 0.118021 -0.109011 -0.024579
v 0.096636 -0.117709 -0.030758
v 0.106348 -0.116518 -0.030244
v 0.108028 -0.108617 -0.032915
v 0.112716 -0.118529 -0.023073
v 0.114231 0.128027 -0.020644
v 0.128963 0.112914 -0.023794
v 0.106223 0.114074 -0.034663
v 0.124634 0.123174 -0.022218
v 0.118087 0.121555 -0.029402
v 0.118971 0.113307 -0.032131
v 0.108554 0.123994 -0.029904
v 0.120638 -0.122354 0.001781
v 0.127351 -0.109253 -0.012966
v 0.133085 -0.108833 0.011601
v 0.124544 -0.118836 -0.008352
v 0.130213 -0.117138 -0.000543
v 0.133345 -0.109275 -0.001408
v 0.128598 -0.118539 0.009019
v 0.127525 0.127682 -0.004100
v 0.139201 0.113217 0.006379
v 0.133467 0.112797 -0.018188
v 0.135259 0.123300 0.003332
v 0.136774 0.121069 -0.006145
v 0.139461 0.112775 -0.006630
v 0.131205 0.123003 -0.014040
v 0.114154 -0.120971 0.030941
v 0.129854 -0.108144 0.026129
v 0.114263 -0.106461 0.045895
v 0.124503 -0.117666 0.027435
v 0.121951 -0.115376 0.036614
v 0.124580 -0.107405 0.038009
v 0.113478 -0.116475 0.041412
v 0.122923 0.128664 0.016599
v 0.122050 0.115233 0.033158
v 0.137641 0.113549 0.013392
v 0.121959 0.124976 0.027540
v 0.130304 0.122450 0.022951
v 0.132367 0.114288 0.025273
v 0.132984 0.123785 0.013563
v -0.084821 -0.113679 0.027523
v -0.072985 -0.098777 0.036023
v -0.098168 -0.100304 0.036320
v -0.076105 -0.108935 0.033169
v -0.085080 -0.107592 0.036865
v -0.085543 -0.099477 0.039389
v -0.093912 -0.110015 0.033379
v -0.098887 0.115678 0.014161
v -0.110522 0.101148 0.024584
v -0.085339 0.102675 0.024287
v -0.107476 0.111169 0.020493
v -0.098422 0.109972 0.024190
v -0.097897 0.101975 0.027653
v -0.089669 0.112249 0.020283
v -0.109498 -0.115400 0.015970
v -0.109291 -0.101080 0.031113
v -0.125201 -0.102420 0.011577
v -0.108632 -0.111041 0.026487
v -0.117173 -0.109830 0.021839
v -0.119736 -0.101863 0.023380
v -0.119882 -0.111989 0.012673
v -0.116504 0.114449 0.005913
v -0.131355 0.099465 0.002743
v -0.115445 0.100805 0.022279
v -0.126639 0.109670 0.002974
v -0.123819 0.108200 0.012300
v -0.125890 0.100022 0.014547
v -0.115388 0.110617 0.016789
v -0.115843 -0.116291 -0.010568
v -0.128062 -0.102821 -0.000386
v -0.122719 -0.102965 -0.025044
v -0.123668 -0.112520 -0.003158
v -0.125426 -0.110989 -0.012675
v -0.128529 -0.103097 -0.013394
v -0.119890 -0.112622 -0.020594
v -0.121034 0.113813 -0.013033
v -0.127278 0.099144 -0.027209
v -0.132621 0.099288 -0.002551
v -0.124895 0.109283 -0.022971
v -0.130350 0.107283 -0.015014
v -0.133088 0.099012 -0.015559
v -0.128673 0.109384 -0.005535
v -0.099080 -0.115680 -0.032108
v -0.115163 -0.102690 -0.034753
v -0.092590 -0.101529 -0.045965
v -0.109890 -0.112257 -0.033443
v -0.103625 -0.110195 -0.040689
v -0.105301 -0.102251 -0.043241
v -0.093928 -0.111437 -0.041371
v -0.109066 0.114249 -0.028411
v -0.101361 0.100426 -0.042718
v -0.123934 0.099266 -0.031506
v -0.103559 0.110299 -0.037806
v -0.113097 0.107912 -0.037183
v -0.114072 0.099705 -0.039994
v -0.119520 0.109479 -0.029878
v -0.071831 -0.114028 -0.032429
v -0.080307 -0.100784 -0.046110
v -0.057502 -0.099193 -0.035433
v -0.077674 -0.110451 -0.041563
v -0.068185 -0.108046 -0.041107
v -0.067542 -0.099961 -0.043687
v -0.061548 -0.109326 -0.034013
v -0.089612 0.115429 -0.028641
v -0.073120 0.102347 -0.032105
v -0.095925 0.100756 -0.042782
v -0.078696 0.111954 -0.030359
v -0.085052 0.109612 -0.037513
v -0.083160 0.101579 -0.040359
v -0.094821 0.110829 -0.037909
v -0.054615 -0.112578 -0.011290
v -0.049742 -0.098540 -0.025905
v -0.043878 -0.097717 -0.001379
v -0.051279 -0.108461 -0.021403
v -0.045795 -0.106160 -0.013615
v -0.043686 -0.097953 -0.014395
v -0.047132 -0.107879 -0.004061
v -0.077321 0.116464 -0.013549
v -0.063821 0.103459 -0.003362
v -0.069686 0.102636 -0.027888
v -0.069029 0.113001 -0.006239
v -0.067334 0.111104 -0.015757
v -0.063630 0.103224 -0.016378
v -0.073176 0.112419 -0.023581
v -0.060397 -0.112423 0.015391
v -0.046484 -0.097647 0.010648
v -0.061976 -0.098211 0.030554
v -0.050580 -0.107787 0.011855
v -0.053314 -0.105958 0.021086
v -0.051697 -0.097737 0.022578
v -0.061535 -0.108186 0.025931
v -0.081449 0.116575 0.005500
v -0.080467 0.102926 0.021867
v -0.064975 0.103490 0.001960
v -0.081837 0.112652 0.016393
v -0.073284 0.111264 0.011704
v -0.070188 0.103400 0.013890
v -0.070883 0.113051 0.002317
v 0.033989 -0.110714 -0.065984
v 0.034049 -0.107558 -0.066741
v 0.035243 -0.107584 -0.065941
v 0.034011 -0.109787 -0.066530
v 0.034711 -0.109391 -0.066416
v 0.034898 -0.107574 -0.066500
v 0.034855 -0.109806 -0.065965
v 0.037542 0.111106 -0.064849
v 0.037582 0.114249 -0.064037
v 0.038736 0.111080 -0.064049
v 0.037575 0.113331 -0.064600
v 0.038262 0.112910 -0.064493
v 0.038419 0.113312 -0.064034
v 0.038390 0.111090 -0.064608
v 0.033286 -0.111174 -0.011558
v 0.034540 -0.108044 -0.011516
v 0.033326 -0.108031 -0.010747
v 0.034152 -0.110265 -0.011539
v 0.033997 -0.109858 -0.011085
v 0.034181 -0.108043 -0.010966
v 0.033294 -0.110256 -0.010996
v 0.036879 0.113789 -0.009612
v 0.036819 0.110633 -0.008855
v 0.038033 0.110620 -0.009624
v 0.036858 0.112862 -0.009066
v 0.037547 0.112443 -0.009162
v 0.037673 0.110621 -0.009074
v 0.037716 0.112853 -0.009609
v -0.049585 -0.109370 -0.067052
v -0.050739 -0.106201 -0.067040
v -0.049525 -0.106214 -0.067808
v -0.050422 -0.108434 -0.067055
v -0.050253 -0.108024 -0.067502
v -0.050379 -0.106202 -0.067590
v -0.049563 -0.108443 -0.067598
v -0.045992 0.115593 -0.065105
v -0.046032 0.112450 -0.065916
v -0.047246 0.112463 -0.065148
v -0.046000 0.114675 -0.065667
v -0.046702 0.114277 -0.065578
v -0.046886 0.112462 -0.065698
v -0.046858 0.114684 -0.065124
v -0.050288 -0.109830 -0.012626
v -0.050248 -0.106687 -0.011815
v -0.051442 -0.106661 -0.012614
v -0.050281 -0.108912 -0.012064
v -0.050968 -0.108491 -0.012171
v -0.051096 -0.106671 -0.012056
v -0.051125 -0.108894 -0.012629
v -0.046695 0.115133 -0.010680
v -0.047949 0.112003 -0.010722
v -0.046755 0.111977 -0.009923
v -0.047561 0.114224 -0.010699
v -0.047417 0.113809 -0.010247
v -0.047604 0.111993 -0.010164
v -0.046717 0.114206 -0.010133
v 0.011541 0.040201 -0.060268
v 0.011541 0.040201 -0.043256
v -0.004639 0.040201 -0.037998
v -0.014639 0.040201 -0.051762
v -0.004639 0.040201 -0.065526
v 0.012248 0.039056 -0.051762
v -0.000167 0.035563 -0.051762
v 0.003669 0.039056 -0.039954
v -0.010212 0.039056 -0.044464
v -0.010212 0.039056 -0.059060
v 0.003669 0.039056 -0.063570
v -0.014639 0.040201 -0.051762
v -0.023584 0.054673 -0.051762
v -0.019111 0.063617 -0.065526
v -0.007403 0.054673 -0.074032
v -0.004640 0.040201 -0.065526
v -0.020256 0.046729 -0.051762
v -0.017231 0.048599 -0.064159
v -0.022628 0.059145 -0.059060
v -0.014049 0.059145 -0.070868
v -0.006375 0.046729 -0.070868
v -0.010212 0.039056 -0.059060
v 0.011541 0.040201 -0.060269
v -0.004639 0.040201 -0.065526
v -0.007403 0.054673 -0.074032
v 0.007069 0.063617 -0.074032
v 0.018777 0.054673 -0.065526
v 0.003669 0.039056 -0.063570
v 0.006350 0.048599 -0.071821
v -0.006375 0.046729 -0.070868
v -0.000167 0.059145 -0.075378
v 0.013714 0.059145 -0.070868
v 0.016085 0.046729 -0.063570
v 0.011541 0.040201 -0.043256
v 0.011541 0.040201 -0.060268
v 0.018777 0.054673 -0.065525
v 0.023249 0.063617 -0.051762
v 0.018777 0.054673 -0.037999
v 0.012248 0.039056 -0.051762
v 0.020925 0.048599 -0.051762
v 0.016085 0.046729 -0.063570
v 0.022293 0.059145 -0.059060
v 0.022293 0.059145 -0.044464
v 0.016085 0.046729 -0.039954
v -0.004639 0.040201 -0.037998
v 0.011541 0.040201 -0.043255
v 0.018777 0.054673 -0.037998
v 0.007069 0.063617 -0.029492
v -0.007403 0.054673 -0.029492
v 0.003669 0.039056 -0.039954
v 0.006350 0.048599 -0.031703
v 0.016085 0.046729 -0.039954
v 0.013714 0.059145 -0.032656
v -0.000167 0.059145 -0.028146
v -0.006375 0.046729 -0.032656
v -0.023584 0.054673 -0.051762
v -0.014639 0.040201 -0.051762
v -0.004640 0.040201 -0.037998
v -0.007403 0.054673 -0.029492
v -0.019111 0.063617 -0.037998
v -0.020256 0.046729 -0.051762
v -0.017231 0.048599 -0.039365
v -0.010212 0.039056 -0.044464
v -0.006375 0.046729 -0.032656
v -0.014049 0.059145 -0.032656
v -0.022628 0.059145 -0.044464
v 0.007068 0.063617 -0.074032
v -0.007403 0.054673 -0.074032
v -0.019111 0.063617 -0.065526
v -0.011875 0.078089 -0.060269
v 0.004305 0.078089 -0.065526
v -0.000167 0.059145 -0.075378
v -0.006685 0.069691 -0.071821
v -0.014048 0.059145 -0.070868
v -0.016420 0.071561 -0.063570
v -0.004004 0.079234 -0.063570
v 0.006040 0.071561 -0.070868
v 0.023249 0.063617 -0.051762
v 0.018777 0.054673 -0.065526
v 0.007069 0.063617 -0.074032
v 0.004305 0.078089 -0.065526
v 0.014305 0.078089 -0.051762
v 0.022293 0.059145 -0.059060
v 0.016896 0.069691 -0.064159
v 0.013714 0.059145 -0.070868
v 0.006041 0.071561 -0.070868
v 0.009877 0.079234 -0.059060
v 0.019922 0.071561 -0.051762
v 0.007069 0.063617 -0.029492
v 0.018777 0.054673 -0.037998
v 0.023249 0.063617 -0.051762
v 0.014305 0.078089 -0.051762
v 0.004305 0.078089 -0.037998
v 0.013714 0.059145 -0.032656
v 0.016896 0.069691 -0.039365
v 0.022293 0.059145 -0.044464
v 0.019922 0.071561 -0.051762
v 0.009877 0.079234 -0.044464
v 0.006041 0.071561 -0.032656
v -0.019111 0.063617 -0.037998
v -0.007403 0.054673 -0.029492
v 0.007068 0.063617 -0.029492
v 0.004305 0.078089 -0.037998
v -0.011875 0.078089 -0.043255
v -0.014048 0.059145 -0.032656
v -0.006685 0.069691 -0.031703
v -0.000167 0.059145 -0.028146
v 0.006040 0.071561 -0.032656
v -0.004004 0.079234 -0.039954
v -0.016420 0.071561 -0.039954
v -0.019112 0.063617 -0.065525
v -0.023584 0.054673 -0.051762
v -0.019112 0.063617 -0.037999
v -0.011876 0.078089 -0.043256
v -0.011876 0.078089 -0.060268
v -0.022628 0.059145 -0.059060
v -0.021259 0.069691 -0.051762
v -0.022628 0.059145 -0.044464
v -0.016420 0.071561 -0.039954
v -0.012583 0.079234 -0.051762
v -0.016420 0.071561 -0.063570
v 0.004305 0.078089 -0.065526
v -0.011875 0.078089 -0.060268
v -0.011875 0.078089 -0.043256
v 0.004305 0.078089 -0.037998
v 0.014305 0.078089 -0.051762
v -0.004004 0.079234 -0.063570
v -0.000167 0.082726 -0.051762
v -0.012583 0.079234 -0.051762
v -0.004004 0.079234 -0.039954
v 0.009877 0.079234 -0.044464
v 0.009877 0.079234 -0.059060
vn -0.0963 -0.8247 0.5573
vn 0.2599 -0.3685 0.8926
vn -0.2502 -0.2589 0.9329
vn 0.1011 0.8697 0.4831
vn -0.2390 0.4818 0.8431
vn 0.2585 0.3825 0.8871
vn -0.4948 -0.8057 0.3256
vn -0.5340 -0.3192 0.7830
vn -0.8845 -0.2339 0.4038
vn -0.3143 0.8922 0.3244
vn -0.8077 0.5022 0.3090
vn -0.5309 0.4300 0.7302
vn -0.5631 -0.8160 -0.1305
vn -0.9447 -0.3143 0.0931
vn -0.8679 -0.2620 -0.4220
vn -0.4501 0.8874 -0.0997
vn -0.7463 0.4728 -0.4685
vn -0.9021 0.4313 0.0145
vn -0.2497 -0.8479 -0.4677
vn -0.6631 -0.3576 -0.6576
vn -0.2131 -0.3219 -0.9225
vn -0.2041 0.8589 -0.4697
vn -0.1011 0.4156 -0.9039
vn -0.5755 0.3856 -0.7212
vn 0.2093 -0.8773 -0.4319
vn 0.0989 -0.4164 -0.9038
vn 0.5869 -0.3686 -0.7209
vn 0.2386 0.8282 -0.5070
vn 0.6421 0.3738 -0.6693
vn 0.2030 0.3271 -0.9229
vn 0.4684 -0.8821 -0.0501
vn 0.7675 -0.4464 -0.4601
vn 0.9297 -0.3669 0.0311
vn 0.5445 0.8184 -0.1836
vn 0.9236 0.3788 0.0585
vn 0.8471 0.3000 -0.4387
vn 0.3324 -0.8587 0.3901
vn 0.8391 -0.4251 0.3393
vn 0.5572 -0.3181 0.7671
vn 0.4833 0.8369 0.2570
vn 0.5315 0.4268 0.7316
vn 0.8718 0.3247 0.3668
vn -0.4184 -0.3504 0.8379
vn -0.2360 -0.8859 0.3993
vn -0.3503 0.5077 0.7871
vn -0.1100 0.9375 0.3301
vn 0.2542 0.0534 0.9657
vn -0.2387 0.0863 0.9672
vn -0.9042 0.1125 0.4120
vn -0.5948 0.1045 0.7970
vn -0.9154 -0.3375 0.2194
vn -0.4588 -0.8801 0.1221
vn -0.8336 0.5203 0.1856
vn -0.3268 0.9432 0.0602
vn -0.8869 0.0831 -0.4544
vn -0.9940 0.1059 0.0273
vn -0.7433 -0.3742 -0.5545
vn -0.3817 -0.8966 -0.2247
vn -0.6663 0.4846 -0.5668
vn -0.2518 0.9271 -0.2775
vn -0.1998 0.0202 -0.9796
vn -0.6427 0.0567 -0.7640
vn -0.0317 -0.4329 -0.9009
vn -0.0628 -0.9229 -0.3800
vn 0.0256 0.4275 -0.9036
vn 0.0588 0.9015 -0.4287
vn 0.6397 -0.0288 -0.7681
vn 0.1945 -0.0061 -0.9809
vn 0.6835 -0.4694 -0.5590
vn 0.2578 -0.9392 -0.2267
vn 0.7211 0.3920 -0.5712
vn 0.3709 0.8856 -0.2795
vn 0.9994 -0.0270 0.0209
vn 0.8872 -0.0353 -0.4601
vn 0.8638 -0.4562 0.2137
vn 0.3386 -0.9333 0.1196
vn 0.8965 0.4049 0.1801
vn 0.4496 0.8914 0.0577
vn 0.6085 0.0242 0.7932
vn 0.9137 -0.0088 0.4062
vn 0.3734 -0.4033 0.8354
vn 0.1188 -0.9096 0.3982
vn 0.4196 0.4564 0.7846
vn 0.2356 0.9145 0.3290
vn -0.0664 -0.9973 0.0325
vn -0.4254 0.0938 0.9001
vn 0.4398 0.0361 0.8974
vn 0.0664 0.9973 -0.0325
vn -0.9686 0.1079 0.2242
vn -0.7805 0.0678 -0.6214
vn -0.0029 0.0037 -1.0000
vn 0.7787 -0.0362 -0.6264
vn 0.9757 -0.0217 0.2180
vn 0.0142 -0.8375 0.5462
vn 0.3128 -0.3448 0.8850
vn -0.2065 -0.3014 0.9309
vn -0.0053 0.8690 0.4947
vn -0.2902 0.4360 0.8519
vn 0.2164 0.3999 0.8906
vn -0.3855 -0.8662 0.3179
vn -0.4817 -0.3951 0.7822
vn -0.8436 -0.3501 0.4071
vn -0.4218 0.8407 0.3395
vn -0.8621 0.3911 0.3223
vn -0.5743 0.3489 0.7405
vn -0.4562 -0.8792 -0.1377
vn -0.8961 -0.4334 0.0958
vn -0.8314 -0.3651 -0.4188
vn -0.5600 0.8243 -0.0837
vn -0.8048 0.3798 -0.4562
vn -0.9495 0.3126 0.0275
vn -0.1446 -0.8667 -0.4775
vn -0.6184 -0.4308 -0.6573
vn -0.1792 -0.3350 -0.9250
vn -0.3157 0.8321 -0.4561
vn -0.1614 0.4106 -0.8974
vn -0.6265 0.3182 -0.7115
vn 0.3146 -0.8381 -0.4456
vn 0.1424 -0.3893 -0.9100
vn 0.6220 -0.2825 -0.7303
vn 0.1271 0.8582 -0.4973
vn 0.5835 0.4602 -0.6691
vn 0.1513 0.3615 -0.9200
vn 0.5756 -0.8150 -0.0661
vn 0.8133 -0.3401 -0.4721
vn 0.9688 -0.2472 0.0187
vn 0.4349 0.8831 -0.1763
vn 0.8691 0.4914 0.0568
vn 0.7984 0.4100 -0.4410
vn 0.4420 -0.8148 0.3753
vn 0.8892 -0.3203 0.3268
vn 0.6001 -0.2556 0.7580
vn 0.3760 0.8879 0.2652
vn 0.4803 0.4806 0.7337
vn 0.8273 0.4271 0.3648
vn -0.3626 -0.4121 0.8359
vn -0.1181 -0.9138 0.3885
vn -0.4045 0.4484 0.7971
vn -0.2248 0.9116 0.3442
vn 0.2545 0.0718 0.9644
vn -0.2386 0.0419 0.9702
vn -0.9072 -0.0093 0.4205
vn -0.5957 0.0170 0.8030
vn -0.8629 -0.4543 0.2216
vn -0.3424 -0.9327 0.1132
vn -0.8912 0.4074 0.1994
vn -0.4432 0.8932 0.0760
vn -0.8945 -0.0250 -0.4464
vn -0.9991 -0.0221 0.0364
vn -0.6949 -0.4588 -0.5538
vn -0.2671 -0.9348 -0.2343
vn -0.7278 0.4030 -0.5550
vn -0.3698 0.8912 -0.2626
vn -0.2099 0.0066 -0.9777
vn -0.6519 -0.0161 -0.7582
vn 0.0149 -0.4223 -0.9063
vn 0.0511 -0.9184 -0.3924
vn -0.0372 0.4385 -0.8980
vn -0.0599 0.9072 -0.4165
vn 0.6310 0.0617 -0.7733
vn 0.1845 0.0305 -0.9824
vn 0.7320 -0.3723 -0.5706
vn 0.3724 -0.8960 -0.2419
vn 0.6605 0.4872 -0.5713
vn 0.2532 0.9290 -0.2699
vn 0.9950 0.0988 0.0129
vn 0.8802 0.0827 -0.4673
vn 0.9164 -0.3464 0.2006
vn 0.4551 -0.8844 0.1038
vn 0.8399 0.5123 0.1790
vn 0.3337 0.9403 0.0668
vn 0.6080 0.0900 0.7888
vn 0.9114 0.1010 0.3990
vn 0.4293 -0.3641 0.8265
vn 0.2368 -0.8923 0.3843
vn 0.3660 0.4951 0.7880
vn 0.1210 0.9326 0.3402
vn 0.0607 -0.9980 0.0190
vn -0.4254 0.0266 0.9046
vn 0.4402 0.0791 0.8944
vn -0.0607 0.9980 -0.0190
vn -0.9723 -0.0194 0.2331
vn -0.7886 -0.0244 -0.6144
vn -0.0127 0.0155 -0.9998
vn 0.7711 0.0702 -0.6328
vn 0.9727 0.0985 0.2102
vn 0.4898 -0.4512 -0.7460
vn 0.2126 -0.0954 -0.9725
vn 0.8444 -0.1109 -0.5240
vn 0.2733 0.0801 -0.9586
vn 0.5041 0.4481 -0.7383
vn 0.8974 0.1302 -0.4216
vn 0.4704 -0.4638 0.7507
vn 0.8817 -0.1588 0.4444
vn 0.2460 -0.0884 0.9652
vn 0.4848 0.4355 0.7585
vn 0.1906 0.0890 0.9776
vn 0.8339 0.0839 0.5455
vn -0.4848 -0.4355 -0.7585
vn -0.8861 -0.1229 -0.4468
vn -0.2484 -0.0638 -0.9666
vn -0.4704 0.4638 -0.7507
vn -0.1874 0.1119 -0.9759
vn -0.8306 0.1200 -0.5437
vn -0.5041 -0.4481 0.7383
vn -0.2158 -0.1054 0.9707
vn -0.8477 -0.0930 0.5222
vn -0.4898 0.4512 0.7460
vn -0.8929 0.1515 0.4240
vn -0.2708 0.0722 0.9599
vn 0.7239 -0.6899 0.0035
vn 0.9850 -0.1722 0.0113
vn 0.2728 0.0040 -0.9621
vn 0.8505 -0.0090 -0.5259
vn 0.7456 0.6662 0.0153
vn 0.9900 0.1405 0.0140
vn 0.2479 -0.0123 0.9687
vn 0.8366 -0.0181 0.5475
vn -0.0193 -0.5222 0.8526
vn -0.0145 -0.1109 0.9937
vn -0.0028 0.5077 0.8615
vn -0.0112 0.0941 0.9955
vn -0.8505 0.0090 0.5259
vn -0.2728 -0.0040 0.9621
vn -0.7456 -0.6662 -0.0153
vn -0.9900 -0.1405 -0.0140
vn -0.7239 0.6899 -0.0035
vn -0.9850 0.1722 -0.0113
vn -0.2479 0.0123 -0.9687
vn -0.8366 0.0181 -0.5475
vn 0.0028 -0.5077 -0.8615
vn 0.0112 -0.0941 -0.9955
vn 0.0193 0.5222 -0.8526
vn 0.0145 0.1109 -0.9937
vn -0.0160 -0.9998 -0.0087
vn 0.9998 -0.0161 0.0128
vn 0.0129 0.0084 -0.9999
vn 0.0160 0.9998 0.0087
vn -0.0129 -0.0084 0.9999
vn -0.9998 0.0161 -0.0128
vn 0.2257 -0.9517 -0.2081
vn 0.2677 -0.9517 0.1504
vn -0.0603 -0.9517 0.3011
vn -0.3050 -0.9517 0.0357
vn -0.1282 -0.9517 -0.2790
vn -0.6802 -0.6650 -0.3083
vn -0.8874 -0.3717 -0.2726
vn -0.8200 -0.1529 -0.5516
vn -0.5711 -0.3109 -0.7597
vn -0.4847 -0.6275 -0.6094
vn 0.4298 -0.6275 -0.6493
vn 0.0830 -0.6650 -0.7422
vn -0.0150 -0.3717 -0.9282
vn 0.2712 -0.1529 -0.9503
vn 0.5461 -0.3109 -0.7779
vn 0.7503 -0.6275 0.2081
vn 0.7315 -0.6650 -0.1504
vn 0.8782 -0.3717 -0.3011
vn 0.9876 -0.1529 -0.0357
vn 0.9086 -0.3109 0.2790
vn 0.0339 -0.6275 0.7779
vn 0.3690 -0.6650 0.6492
vn 0.5577 -0.3717 0.7422
vn 0.3391 -0.1529 0.9282
vn 0.0154 -0.3109 0.9503
vn -0.8990 -0.3110 0.3083
vn -0.7293 -0.6275 0.2726
vn -0.5034 -0.6650 0.5516
vn -0.5335 -0.3717 0.7597
vn -0.7780 -0.1529 0.6094
vn 0.0150 0.3717 -0.9282
vn -0.2712 0.1529 -0.9503
vn -0.5461 0.3109 -0.7779
vn -0.4298 0.6275 -0.6492
vn -0.0830 0.6650 -0.7422
vn 0.8874 0.3717 -0.2726
vn 0.8200 0.1529 -0.5516
vn 0.5711 0.3109 -0.7597
vn 0.4847 0.6275 -0.6094
vn 0.6802 0.6650 -0.3083
vn 0.5335 0.3717 0.7597
vn 0.7780 0.1529 0.6094
vn 0.8990 0.3110 0.3083
vn 0.7293 0.6275 0.2726
vn 0.5034 0.6650 0.5516
vn -0.5577 0.3717 0.7422
vn -0.3391 0.1529 0.9282
vn -0.0154 0.3109 0.9503
vn -0.0339 0.6275 0.7779
vn -0.3690 0.6650 0.6492
vn -0.8782 0.3717 -0.3011
vn -0.9876 0.1529 -0.0357
vn -0.9086 0.3109 0.2790
vn -0.7503 0.6275 0.2081
vn -0.7315 0.6650 -0.1504
vn 0.1282 0.9517 -0.2790
vn -0.2257 0.9517 -0.2081
vn -0.2677 0.9517 0.1504
vn 0.0603 0.9517 0.3011
vn 0.3050 0.9517 0.0357
vn 0.3339 -0.8270 -0.4524
vn 0.0228 -0.8195 -0.5726
vn -0.3422 -0.9354 -0.0891
vn -0.3482 -0.8704 -0.3482
vn -0.2659 -0.3883 -0.8823
vn -0.2145 -0.6531 -0.7262
vn -0.9195 -0.3932 -0.0000
vn -0.0000 1.0000 -0.0000
vn -0.3643 -0.8269 0.4285
vn 0.5361 -0.8296 0.1560
vn 0.4958 -0.8541 -0.1573
vn 0.7506 -0.3832 -0.5383
vn 0.6123 -0.6546 -0.4434
vn -0.0000 -0.8361 0.5485
vn 0.2976 -0.8502 0.4344
vn 0.7425 -0.3865 0.5471
vn 0.5962 -0.6591 0.4585
vn -0.2091 -0.3871 0.8980
vn -0.1990 -0.6467 0.7363
vn -0.8968 0.0546 -0.4391
vn -0.9775 -0.0989 -0.1862
vn -0.8892 0.0610 0.4533
vn -0.9778 -0.0960 0.1862
vn 0.1318 0.0539 -0.9898
vn -0.1385 -0.0527 -0.9890
vn -0.6969 0.0680 -0.7139
vn -0.4727 -0.0805 -0.8775
vn 0.9835 0.0601 -0.1707
vn 0.9042 -0.0952 -0.4164
vn 0.4802 0.0772 -0.8737
vn 0.6884 -0.1252 -0.7145
vn 0.4608 0.0747 0.8843
vn 0.6856 -0.0935 0.7220
vn 0.9768 0.0992 0.1897
vn 0.8945 -0.0706 0.4414
vn -0.6902 0.0690 0.7204
vn -0.4868 -0.0831 0.8696
vn 0.1403 0.0765 0.9871
vn -0.1278 -0.0767 0.9888
vn -0.6117 0.6395 -0.4657
vn -0.7523 0.3654 -0.5481
vn 0.1780 0.6674 -0.7231
vn 0.2396 0.3794 -0.8936
vn 0.7435 0.6673 -0.0445
vn 0.9193 0.3931 -0.0178
vn 0.2025 0.6505 0.7320
vn 0.2578 0.3818 0.8876
vn -0.5900 0.6570 0.4693
vn -0.7609 0.3910 0.5178
vn -0.0433 0.8658 -0.4985
vn -0.3031 0.8660 -0.3978
vn -0.4457 0.8810 0.1584
vn -0.4721 0.8667 -0.1613
vn 0.1529 0.9835 -0.0964
vn 0.3443 0.8185 -0.4599
vn 0.4828 0.7644 0.4274
vn -0.2945 0.8568 0.4234
vn -0.0000 0.8338 0.5520
vn 0.4759 -0.8158 -0.3288
vn -0.1699 -0.7766 -0.6067
vn 0.4617 -0.8080 0.3659
vn -0.2357 -0.7542 0.6128
vn -0.9721 -0.2346 -0.0000
vn -0.7992 0.1598 -0.5794
vn -0.2890 -0.1445 -0.9464
vn 0.2522 0.1682 -0.9529
vn 0.7895 -0.1842 -0.5855
vn 0.9656 0.2600 -0.0093
vn 0.7991 -0.1831 0.5727
vn 0.2802 0.1962 0.9397
vn -0.2788 -0.2068 0.9378
vn -0.7882 0.1708 0.5912
vn 0.3594 0.7187 -0.5952
vn -0.5212 0.7819 -0.3421
vn 0.1877 0.7507 0.6334
vn -0.4661 0.8073 0.3620
vn -0.0105 -0.8304 0.5571
vn 0.2195 -0.2902 0.9314
vn -0.3009 -0.3311 0.8943
vn 0.0184 0.8752 0.4834
vn -0.1998 0.4131 0.8885
vn 0.3062 0.4454 0.8413
vn -0.4410 -0.8071 0.3926
vn -0.5896 -0.2416 0.7707
vn -0.8860 -0.3100 0.3448
vn -0.3662 0.8935 0.2597
vn -0.8186 0.4374 0.3722
vn -0.4655 0.4933 0.7348
vn -0.5817 -0.8121 -0.0468
vn -0.9700 -0.2402 0.0371
vn -0.8229 -0.3403 -0.4550
vn -0.4321 0.8836 -0.1805
vn -0.8025 0.4101 -0.4334
vn -0.8648 0.4980 0.0642
vn -0.3267 -0.8416 -0.4301
vn -0.6352 -0.2871 -0.7170
vn -0.1591 -0.3991 -0.9030
vn -0.1297 0.8528 -0.5059
vn -0.1636 0.3516 -0.9218
vn -0.5910 0.4560 -0.6654
vn 0.1319 -0.8734 -0.4689
vn 0.1626 -0.3470 -0.9237
vn 0.6055 -0.4422 -0.6617
vn 0.3133 0.8244 -0.4713
vn 0.6170 0.3060 -0.7250
vn 0.1497 0.3989 -0.9047
vn 0.4489 -0.8835 -0.1338
vn 0.8228 -0.3747 -0.4274
vn 0.8952 -0.4370 0.0872
vn 0.5633 0.8198 -0.1029
vn 0.9514 0.3077 0.0086
vn 0.7995 0.3697 -0.4734
vn 0.3855 -0.8644 0.3228
vn 0.8481 -0.3495 0.3982
vn 0.4918 -0.3876 0.7797
vn 0.4320 0.8424 0.3220
vn 0.5880 0.3553 0.7267
vn 0.8691 0.3904 0.3036
vn -0.3269 0.9432 0.0602
vn 0.0999 -0.8324 0.5452
vn 0.2632 -0.2729 0.9253
vn -0.2480 -0.3788 0.8916
vn -0.0881 0.8640 0.4957
vn -0.2422 0.3721 0.8960
vn 0.2553 0.4691 0.8455
vn -0.3313 -0.8617 0.3844
vn -0.5468 -0.3251 0.7716
vn -0.8360 -0.4249 0.3471
vn -0.4742 0.8363 0.2752
vn -0.8641 0.3245 0.3848
vn -0.5174 0.4201 0.7455
vn -0.4744 -0.8787 -0.0537
vn -0.9311 -0.3624 0.0412
vn -0.7771 -0.4366 -0.4533
vn -0.5424 0.8238 -0.1648
vn -0.8522 0.3099 -0.4215
vn -0.9205 0.3829 0.0779
vn -0.2214 -0.8706 -0.4393
vn -0.6003 -0.3566 -0.7159
vn -0.1156 -0.4049 -0.9070
vn -0.2415 0.8359 -0.4930
vn -0.2155 0.3393 -0.9157
vn -0.6504 0.3854 -0.6546
vn 0.2370 -0.8435 -0.4820
vn 0.1966 -0.3122 -0.9295
vn 0.6503 -0.3539 -0.6723
vn 0.2021 0.8634 -0.4622
vn 0.5666 0.3905 -0.7256
vn 0.0895 0.4258 -0.9004
vn 0.5557 -0.8178 -0.1496
vn 0.8594 -0.2625 -0.4388
vn 0.9439 -0.3218 0.0741
vn 0.4542 0.8858 -0.0957
vn 0.9052 0.4250 0.0056
vn 0.7420 0.4736 -0.4744
vn 0.4947 -0.8128 0.3075
vn 0.8891 -0.2450 0.3867
vn 0.5441 -0.3329 0.7701
vn 0.3250 0.8860 0.3307
vn 0.5452 0.4168 0.7273
vn 0.8158 0.4928 0.3025
vn 0.3725 -0.8960 -0.2419
vn 0.4423 -0.5853 -0.6795
vn 0.2708 -0.0722 -0.9599
vn 0.8929 -0.1515 -0.4241
vn 0.2158 0.1054 -0.9707
vn 0.4610 0.5825 -0.6694
vn 0.8477 0.0930 -0.5223
vn 0.4247 -0.5968 0.6808
vn 0.8307 -0.1200 0.5437
vn 0.1874 -0.1119 0.9759
vn 0.4434 0.5711 0.6909
vn 0.2484 0.0638 0.9666
vn 0.8862 0.1229 0.4468
vn -0.4434 -0.5710 -0.6909
vn -0.8339 -0.0839 -0.5455
vn -0.1906 -0.0890 -0.9776
vn -0.4247 0.5968 -0.6808
vn -0.2460 0.0884 -0.9652
vn -0.8816 0.1588 -0.4444
vn -0.4610 -0.5825 0.6695
vn -0.2732 -0.0801 0.9586
vn -0.8974 -0.1302 0.4216
vn -0.4423 0.5853 0.6795
vn -0.8445 0.1109 0.5240
vn -0.2126 0.0954 0.9725
vn 0.8367 -0.0181 0.5474
vn -0.8367 0.0181 -0.5474
vn 0.2677 -0.9517 -0.1504
vn 0.2257 -0.9517 0.2081
vn -0.1282 -0.9517 0.2790
vn -0.3050 -0.9517 -0.0357
vn -0.0603 -0.9517 -0.3011
vn -0.7293 -0.6275 -0.2726
vn -0.8990 -0.3110 -0.3083
vn -0.7780 -0.1529 -0.6094
vn -0.5335 -0.3717 -0.7597
vn -0.5034 -0.6650 -0.5516
vn 0.3690 -0.6650 -0.6492
vn 0.0339 -0.6275 -0.7779
vn 0.0154 -0.3109 -0.9503
vn 0.3391 -0.1529 -0.9282
vn 0.5577 -0.3717 -0.7422
vn 0.7315 -0.6650 0.1504
vn 0.7503 -0.6275 -0.2081
vn 0.9086 -0.3109 -0.2790
vn 0.9876 -0.1529 0.0357
vn 0.8782 -0.3717 0.3011
vn 0.0830 -0.6650 0.7422
vn 0.4298 -0.6275 0.6492
vn 0.5461 -0.3109 0.7779
vn 0.2712 -0.1529 0.9503
vn -0.0150 -0.3717 0.9282
vn -0.8874 -0.3717 0.2726
vn -0.6802 -0.6650 0.3083
vn -0.4847 -0.6275 0.6094
vn -0.5711 -0.3109 0.7597
vn -0.8200 -0.1529 0.5516
vn -0.0154 0.3109 -0.9503
vn -0.3391 0.1529 -0.9282
vn -0.5577 0.3717 -0.7422
vn -0.3690 0.6650 -0.6492
vn -0.0339 0.6275 -0.7779
vn 0.8990 0.3110 -0.3083
vn 0.7780 0.1529 -0.6094
vn 0.5335 0.3717 -0.7597
vn 0.5034 0.6650 -0.5516
vn 0.7293 0.6275 -0.2726
vn 0.5711 0.3109 0.7597
vn 0.8200 0.1529 0.5516
vn 0.8874 0.3717 0.2726
vn 0.6802 0.6650 0.3083
vn 0.4847 0.6275 0.6094
vn -0.5461 0.3109 0.7779
vn -0.2712 0.1529 0.9503
vn 0.0150 0.3717 0.9282
vn -0.0831 0.6650 0.7422
vn -0.4298 0.6275 0.6493
vn -0.9086 0.3109 -0.2790
vn -0.9876 0.1529 0.0357
vn -0.8782 0.3717 0.3011
vn -0.7315 0.6650 0.1504
vn -0.7503 0.6275 -0.2081
vn 0.0603 0.9517 -0.3011
vn -0.2677 0.9517 -0.1504
vn -0.2257 0.9517 0.2081
vn 0.1282 0.9517 0.2790
vn 0.3050 0.9517 -0.0357
vn 0.2962 -0.8616 -0.4123
vn 0.0190 -0.8620 -0.5065
vn -0.3005 -0.8646 -0.4027
vn -0.2798 -0.3751 -0.8838
vn -0.1298 -0.6417 -0.7559
vn -0.9253 -0.3792 -0.0070
vn -0.7437 -0.6675 0.0371
vn -0.3790 -0.8053 0.4559
vn -0.3672 -0.9181 0.1492
vn 0.5102 -0.8458 0.1561
vn 0.5348 -0.8303 -0.1566
vn 0.7420 -0.3816 -0.5512
vn 0.6311 -0.6507 -0.4222
vn 0.0096 -0.8386 0.5446
vn 0.3111 -0.8392 0.4460
vn 0.7420 -0.3860 0.5481
vn 0.6031 -0.6570 0.4523
vn -0.2799 -0.3816 0.8809
vn -0.2294 -0.6573 0.7179
vn -0.8934 0.0788 -0.4423
vn -0.9718 -0.1164 -0.2051
vn -0.9015 0.0764 0.4260
vn -0.9709 -0.1262 0.2035
vn 0.1354 0.0492 -0.9896
vn -0.1324 -0.0985 -0.9863
vn -0.6970 0.0540 -0.7151
vn -0.4768 -0.0680 -0.8764
vn 0.9727 0.1265 -0.1945
vn 0.8965 -0.0779 -0.4361
vn 0.4573 0.0762 -0.8860
vn 0.6769 -0.0899 -0.7305
vn 0.4712 0.0761 0.8788
vn 0.6841 -0.0789 0.7251
vn 0.9708 0.1262 0.2039
vn 0.8987 -0.0698 0.4329
vn -0.6944 0.0718 0.7160
vn -0.4808 -0.0921 0.8720
vn 0.1341 0.0791 0.9878
vn -0.1212 -0.1136 0.9861
vn -0.6154 0.6516 -0.4436
vn -0.7460 0.3928 -0.5377
vn 0.2015 0.6492 -0.7334
vn 0.2639 0.3864 -0.8838
vn 0.9247 0.3789 -0.0379
vn 0.1944 0.6562 0.7291
vn 0.2762 0.3881 0.8792
vn -0.6287 0.6493 0.4280
vn -0.7371 0.3832 0.5566
vn 0.0151 0.8470 -0.5313
vn -0.3347 0.8353 -0.4362
vn -0.5171 0.8411 0.1583
vn -0.5018 0.8504 -0.1579
vn 0.5339 0.8009 -0.2711
vn 0.1833 0.8828 0.4326
vn 0.3356 0.9229 0.1888
vn -0.3336 0.8367 0.4345
vn -0.0393 0.7875 0.6151
vt 0.750000 0.415414
vt 0.738577 0.484499
vt 0.802983 0.464485
vt 0.046726 0.527982
vt 0.000000 0.512294
vt 0.040338 0.500000
vt 0.953274 0.527982
vt 0.991303 0.500000
vt 1.000000 0.528210
vt 0.250000 0.396767
vt 0.263170 0.483658
vt 0.184541 0.458477
vt 0.943235 0.972018
vt 1.000000 0.988641
vt 0.950163 1.000000
vt 0.056765 0.972018
vt 0.010027 1.000000
vt 0.000000 0.972246
vt 0.879326 0.353134
vt 0.926216 0.405139
vt 0.950725 0.342306
vt 0.903869 0.527982
vt 0.852794 0.506147
vt 0.897480 0.500000
vt 0.810417 0.527982
vt 0.857143 0.528210
vt 0.364747 0.341508
vt 0.440892 0.385387
vt 0.372180 0.431161
vt 0.800377 0.972018
vt 0.862156 0.994320
vt 0.807306 1.000000
vt 0.913908 0.972018
vt 0.857143 0.972246
vt 0.911266 0.213192
vt 0.981161 0.208956
vt 0.947318 0.150618
vt 0.761011 0.527982
vt 0.709937 0.506147
vt 0.754623 0.500000
vt 0.667560 0.527982
vt 0.714286 0.528210
vt 0.393087 0.217341
vt 0.474869 0.185167
vt 0.467816 0.267428
vt 0.657520 0.972018
vt 0.719299 0.994320
vt 0.664449 1.000000
vt 0.771051 0.972018
vt 0.714286 0.972246
vt 0.821770 0.100968
vt 0.862037 0.043680
vt 0.795326 0.033767
vt 0.618154 0.527982
vt 0.567080 0.506147
vt 0.611766 0.500000
vt 0.524703 0.527982
vt 0.571429 0.528210
vt 0.313680 0.117768
vt 0.339515 0.033767
vt 0.399431 0.090571
vt 0.514663 0.972018
vt 0.576442 0.994320
vt 0.521592 1.000000
vt 0.628194 0.972018
vt 0.571429 0.972246
vt 0.678230 0.100967
vt 0.658547 0.033767
vt 0.609203 0.079744
vt 0.475297 0.527982
vt 0.424223 0.506147
vt 0.468909 0.500000
vt 0.381846 0.527982
vt 0.428571 0.528210
vt 0.186320 0.117767
vt 0.136754 0.045196
vt 0.218522 0.033767
vt 0.371806 0.972018
vt 0.433585 0.994320
vt 0.378735 1.000000
vt 0.485337 0.972018
vt 0.428571 0.972246
vt 0.588734 0.213192
vt 0.523923 0.186682
vt 0.529103 0.253927
vt 0.332440 0.527982
vt 0.281366 0.506147
vt 0.326052 0.500000
vt 0.238989 0.527982
vt 0.285714 0.528210
vt 0.106913 0.217341
vt 0.019270 0.210846
vt 0.061316 0.139792
vt 0.228949 0.972018
vt 0.290728 0.994320
vt 0.235878 1.000000
vt 0.342480 0.972018
vt 0.285714 0.972246
vt 0.620674 0.353134
vt 0.559539 0.387276
vt 0.615343 0.425153
vt 0.189583 0.527982
vt 0.138509 0.506147
vt 0.183195 0.500000
vt 0.096131 0.527982
vt 0.142857 0.528210
vt 0.135253 0.341508
vt 0.075530 0.405980
vt 0.046193 0.328805
vt 0.086092 0.972018
vt 0.147870 0.994321
vt 0.093021 1.000000
vt 0.199623 0.972018
vt 0.142857 0.972246
vt 0.959662 0.500000
vt 0.884657 0.425153
vt 0.906980 1.000000
vt 0.315459 0.458477
vt 0.000000 0.528210
vt 1.000000 0.972246
vt 0.816805 0.500000
vt 0.970897 0.253927
vt 0.764122 1.000000
vt 0.453807 0.328805
vt 0.673948 0.500000
vt 0.621265 1.000000
vt 0.531091 0.500000
vt 0.478408 1.000000
vt 0.281478 0.033767
vt 0.388234 0.500000
vt 0.335551 1.000000
vt 0.100569 0.090571
vt 0.245377 0.500000
vt 0.549275 0.342306
vt 0.192694 1.000000
vt 0.032184 0.267428
vt 0.102520 0.500000
vt 0.049837 1.000000
vt 0.127820 0.431161
vt 0.750000 0.410653
vt 0.737858 0.484153
vt 0.806357 0.462860
vt 0.049712 0.530416
vt 0.000000 0.513352
vt 0.042907 0.500000
vt 0.950288 0.530416
vt 0.990756 0.500000
vt 1.000000 0.530659
vt 0.250000 0.391860
vt 0.263876 0.483318
vt 0.181087 0.456813
vt 0.940254 0.969584
vt 1.000000 0.987642
vt 0.947534 1.000000
vt 0.059746 0.969584
vt 0.010564 1.000000
vt 0.000000 0.969827
vt 0.875603 0.350165
vt 0.925497 0.405485
vt 0.951559 0.338654
vt 0.906855 0.530416
vt 0.852521 0.506676
vt 0.900050 0.500000
vt 0.807431 0.530416
vt 0.857143 0.530659
vt 0.360911 0.338448
vt 0.441067 0.384623
vt 0.368727 0.432824
vt 0.797397 0.969584
vt 0.862425 0.993821
vt 0.804677 1.000000
vt 0.916889 0.969584
vt 0.857143 0.969827
vt 0.906625 0.214251
vt 0.980984 0.209734
vt 0.944982 0.147690
vt 0.763998 0.530416
vt 0.709663 0.506676
vt 0.757192 0.500000
vt 0.664574 0.530416
vt 0.714286 0.530659
vt 0.388303 0.218433
vt 0.474380 0.184554
vt 0.466963 0.271165
vt 0.654540 0.969584
vt 0.719568 0.993821
vt 0.661820 1.000000
vt 0.774032 0.969584
vt 0.714286 0.969827
vt 0.819705 0.105257
vt 0.862535 0.044304
vt 0.791581 0.033767
vt 0.621141 0.530416
vt 0.566806 0.506676
vt 0.614335 0.500000
vt 0.521716 0.530416
vt 0.571429 0.530659
vt 0.311551 0.122189
vt 0.338731 0.033767
vt 0.401821 0.093568
vt 0.511682 0.969584
vt 0.576711 0.993821
vt 0.518963 1.000000
vt 0.631175 0.969584
vt 0.571429 0.969827
vt 0.680296 0.105257
vt 0.659345 0.033767
vt 0.606868 0.082672
vt 0.478283 0.530416
vt 0.423949 0.506676
vt 0.471478 0.500000
vt 0.378859 0.530416
vt 0.428571 0.530659
vt 0.188449 0.122189
vt 0.136266 0.045808
vt 0.222355 0.033767
vt 0.368825 0.969584
vt 0.433853 0.993821
vt 0.376105 1.000000
vt 0.488318 0.969584
vt 0.428571 0.969827
vt 0.593375 0.214251
vt 0.524420 0.186058
vt 0.529936 0.257578
vt 0.335426 0.530416
vt 0.281092 0.506676
vt 0.328621 0.500000
vt 0.236002 0.530416
vt 0.285714 0.530659
vt 0.111697 0.218433
vt 0.019444 0.211610
vt 0.063706 0.136795
vt 0.225968 0.969584
vt 0.290996 0.993821
vt 0.233248 1.000000
vt 0.345461 0.969584
vt 0.285714 0.969827
vt 0.624397 0.350165
vt 0.559362 0.386498
vt 0.618717 0.426778
vt 0.192569 0.530416
vt 0.138235 0.506676
vt 0.185764 0.500000
vt 0.093145 0.530416
vt 0.142857 0.530659
vt 0.139089 0.338448
vt 0.076236 0.406320
vt 0.045340 0.325068
vt 0.083111 0.969584
vt 0.148139 0.993821
vt 0.090391 1.000000
vt 0.202603 0.969584
vt 0.142857 0.969827
vt 0.957093 0.500000
vt 0.881283 0.426778
vt 0.909609 1.000000
vt 0.000000 0.530659
vt 1.000000 0.969827
vt 0.814236 0.500000
vt 0.766752 1.000000
vt 0.454660 0.325068
vt 0.671379 0.500000
vt 0.623895 1.000000
vt 0.436294 0.136795
vt 0.528522 0.500000
vt 0.481037 1.000000
vt 0.277645 0.033767
vt 0.385665 0.500000
vt 0.338180 1.000000
vt 0.098179 0.093568
vt 0.242808 0.500000
vt 0.195323 1.000000
vt 0.033037 0.271165
vt 0.099950 0.500000
vt 0.052466 1.000000
vt 0.128500 0.750000
vt 0.125000 0.746500
vt 0.128500 0.746500
vt 0.378500 0.996500
vt 0.376479 1.000000
vt 0.375000 0.996500
vt 0.378500 0.003500
vt 0.375000 0.001479
vt 0.378500 0.000000
vt 0.621500 0.996500
vt 0.625000 0.998521
vt 0.621500 1.000000
vt 0.875000 0.746500
vt 0.871500 0.750000
vt 0.871500 0.746500
vt 0.621500 0.003500
vt 0.623521 0.000000
vt 0.625000 0.003500
vt 0.125000 0.503500
vt 0.128500 0.500000
vt 0.128500 0.503500
vt 0.378500 0.246500
vt 0.375740 0.250740
vt 0.375000 0.246500
vt 0.378500 0.253500
vt 0.378500 0.250000
vt 0.871500 0.500000
vt 0.875000 0.503500
vt 0.871500 0.503500
vt 0.621500 0.253500
vt 0.624260 0.249260
vt 0.625000 0.253500
vt 0.621500 0.246500
vt 0.621500 0.250000
vt 0.375000 0.746500
vt 0.373250 0.751750
vt 0.371500 0.746500
vt 0.378500 0.746500
vt 0.375493 0.750000
vt 0.378500 0.753500
vt 0.378500 0.750000
vt 0.626750 0.751750
vt 0.625000 0.746500
vt 0.628500 0.746500
vt 0.621500 0.753500
vt 0.625000 0.749507
vt 0.621500 0.746500
vt 0.621500 0.750000
vt 0.373250 0.498250
vt 0.375000 0.503500
vt 0.371500 0.503500
vt 0.378500 0.496500
vt 0.375000 0.500493
vt 0.378500 0.503500
vt 0.378500 0.500000
vt 0.625000 0.503500
vt 0.626750 0.498250
vt 0.628500 0.503500
vt 0.621500 0.503500
vt 0.624507 0.500000
vt 0.621500 0.496500
vt 0.621500 0.500000
vt 0.378500 1.000000
vt 0.621500 0.000000
vt 0.625000 0.246500
vt 0.375000 0.253500
vt 0.625000 0.996500
vt 0.909091 0.104973
vt 0.899366 0.016844
vt 0.954545 0.078730
vt 0.727273 0.104973
vt 0.717548 0.016845
vt 0.772727 0.078729
vt 0.545455 0.104974
vt 0.535730 0.016845
vt 0.590909 0.078730
vt 0.363637 0.104974
vt 0.353912 0.016845
vt 0.409092 0.078731
vt 0.181819 0.104974
vt 0.172094 0.016845
vt 0.227274 0.078731
vt 0.363637 0.104974
vt 0.270783 0.160830
vt 0.272728 0.078731
vt 0.363637 0.209947
vt 0.363637 0.157461
vt 0.272728 0.262433
vt 0.318182 0.236190
vt 0.181819 0.209947
vt 0.227274 0.236190
vt 0.181819 0.104974
vt 0.181819 0.157461
vt 0.909092 0.104974
vt 0.985413 0.149039
vt 0.909092 0.157461
vt 0.181819 0.104974
vt 0.097393 0.168690
vt 0.136364 0.078731
vt 0.181818 0.209947
vt 0.181818 0.157461
vt 0.090910 0.262434
vt 0.136364 0.236190
vt 0.909092 0.209947
vt 0.954546 0.236190
vt 0.727273 0.104974
vt 0.816237 0.160830
vt 0.727274 0.157461
vt 0.909091 0.104974
vt 0.818182 0.078731
vt 0.909090 0.209947
vt 0.909090 0.157461
vt 0.818182 0.262434
vt 0.863636 0.236191
vt 0.727274 0.209947
vt 0.772728 0.236191
vt 0.545455 0.104974
vt 0.634419 0.160830
vt 0.545456 0.157461
vt 0.727272 0.104974
vt 0.636364 0.078731
vt 0.727272 0.209947
vt 0.727272 0.157461
vt 0.636364 0.262434
vt 0.681818 0.236190
vt 0.545456 0.209947
vt 0.590910 0.236190
vt 0.363638 0.209947
vt 0.452601 0.160830
vt 0.409092 0.236190
vt 0.363637 0.104974
vt 0.363637 0.157461
vt 0.545455 0.104974
vt 0.454546 0.078731
vt 0.545454 0.209947
vt 0.545455 0.157461
vt 0.454546 0.262433
vt 0.500000 0.236190
vt 0.090911 0.262435
vt 0.183764 0.311552
vt 0.090910 0.314921
vt 0.181819 0.209948
vt 0.136365 0.236192
vt 0.272727 0.262435
vt 0.227273 0.236192
vt 0.272727 0.367408
vt 0.272727 0.314921
vt 0.090910 0.367408
vt 0.181819 0.393651
vt 0.818182 0.262435
vt 0.902608 0.303692
vt 0.818182 0.314921
vt 0.909091 0.209949
vt 0.863637 0.236192
vt 0.090909 0.262435
vt 0.014587 0.323343
vt 0.045454 0.236192
vt 0.090909 0.367408
vt 0.090909 0.314921
vt 0.818182 0.367408
vt 0.863637 0.393651
vt 0.636365 0.262435
vt 0.729218 0.311552
vt 0.636364 0.314921
vt 0.727273 0.209949
vt 0.681819 0.236192
vt 0.818182 0.262435
vt 0.772727 0.236192
vt 0.818182 0.367408
vt 0.818182 0.314921
vt 0.636364 0.367408
vt 0.727273 0.393651
vt 0.454547 0.262435
vt 0.547400 0.311552
vt 0.454547 0.314921
vt 0.545455 0.209948
vt 0.500001 0.236192
vt 0.636363 0.262435
vt 0.590909 0.236192
vt 0.636364 0.367408
vt 0.636363 0.314921
vt 0.454547 0.367408
vt 0.545455 0.393651
vt 0.272729 0.262435
vt 0.365582 0.311552
vt 0.272729 0.314921
vt 0.363637 0.209948
vt 0.318183 0.236191
vt 0.454545 0.262435
vt 0.409091 0.236191
vt 0.454546 0.367408
vt 0.454545 0.314921
vt 0.272728 0.367408
vt 0.363637 0.393651
vt 0.090910 0.367408
vt 0.100635 0.455537
vt 0.045455 0.393651
vt 0.272728 0.367409
vt 0.282453 0.455538
vt 0.227274 0.393652
vt 0.454546 0.367409
vt 0.464271 0.455537
vt 0.409092 0.393653
vt 0.636364 0.367408
vt 0.646089 0.455537
vt 0.590910 0.393652
vt 0.818182 0.367408
vt 0.827907 0.455537
vt 0.772727 0.393651
vt 0.954546 0.078731
vt 0.136365 0.078730
vt 0.318182 0.078731
vt 0.500000 0.078731
vt 0.681819 0.078730
vt 0.045455 0.236190
vt 0.954545 0.236192
vt 0.136364 0.393652
vt 0.318182 0.393653
vt 0.863637 0.393651
vt 0.681819 0.393651
vt 0.500000 0.393652
vt 0.697018 0.464485
vt 0.438684 0.139792
vt 0.890797 0.079744
vt 0.704674 0.033767
vt 0.552682 0.150618
vt 0.693643 0.462860
vt 0.318913 0.456813
vt 0.970064 0.257578
vt 0.893132 0.082672
vt 0.708419 0.033767
vt 0.555018 0.147690
vt 0.548441 0.338654
vt 0.131273 0.432824
vt 0.126479 0.750000
vt 0.375000 0.003500
vt 0.875000 0.748521
vt 0.125000 0.501479
vt 0.873521 0.500000
vt 0.863637 0.078729
vt 0.045455 0.393651
s 0
usemtl bark
f 1/1/1 5/2/1 7/3/1
f 2/4/2 5/5/2 4/6/2
f 3/7/3 5/8/3 6/9/3
f 8/10/4 12/11/4 14/12/4
f 9/13/5 12/14/5 11/15/5
f 10/16/6 12/17/6 13/18/6
f 15/19/7 19/20/7 21/21/7
f 16/22/8 19/23/8 18/24/8
f 17/25/9 19/23/9 20/26/9
f 22/27/10 26/28/10 28/29/10
f 23/30/11 26/31/11 25/32/11
f 24/33/12 26/31/12 27/34/12
f 29/35/13 33/36/13 35/37/13
f 30/38/14 33/39/14 32/40/14
f 31/41/15 33/39/15 34/42/15
f 36/43/16 40/44/16 42/45/16
f 37/46/17 40/47/17 39/48/17
f 38/49/18 40/47/18 41/50/18
f 43/51/19 47/52/19 49/53/19
f 44/54/20 47/55/20 46/56/20
f 45/57/21 47/55/21 48/58/21
f 50/59/22 54/60/22 56/61/22
f 51/62/23 54/63/23 53/64/23
f 52/65/24 54/63/24 55/66/24
f 57/67/25 61/68/25 63/69/25
f 58/70/26 61/71/26 60/72/26
f 59/73/27 61/71/27 62/74/27
f 64/75/28 68/76/28 70/77/28
f 65/78/29 68/79/29 67/80/29
f 66/81/30 68/79/30 69/82/30
f 71/83/31 75/84/31 77/85/31
f 72/86/32 75/87/32 74/88/32
f 73/89/33 75/87/33 76/90/33
f 78/91/34 82/92/34 84/93/34
f 79/94/35 82/95/35 81/96/35
f 80/97/36 82/95/36 83/98/36
f 85/99/37 89/100/37 91/101/37
f 86/102/38 89/103/38 88/104/38
f 87/105/39 89/103/39 90/106/39
f 92/107/40 96/108/40 98/109/40
f 93/110/41 96/111/41 95/112/41
f 94/113/42 96/111/42 97/114/42
f 3/7/43 18/24/43 7/115/43
f 18/116/44 1/1/44 7/3/44
f 9/13/45 28/117/45 24/33/45
f 11/118/46 22/27/46 28/29/46
f 2/4/47 13/18/47 6/119/47
f 13/120/48 3/7/48 6/9/48
f 17/25/49 27/34/49 23/30/49
f 27/34/50 16/22/50 24/33/50
f 30/38/51 21/121/51 17/25/51
f 32/122/52 15/19/52 21/21/52
f 38/49/53 25/32/53 42/123/53
f 25/124/54 36/43/54 42/45/54
f 31/41/55 41/50/55 37/46/55
f 41/50/56 30/38/56 38/49/56
f 44/54/57 35/125/57 31/41/57
f 35/37/58 43/51/58 29/35/58
f 37/46/59 56/126/59 52/65/59
f 56/61/60 36/43/60 50/59/60
f 45/57/61 55/66/61 51/62/61
f 55/66/62 44/54/62 52/65/62
f 58/70/63 49/127/63 45/57/63
f 49/53/64 57/67/64 43/51/64
f 51/62/65 70/128/65 66/81/65
f 53/129/66 64/75/66 70/77/66
f 59/73/67 69/82/67 65/78/67
f 69/82/68 58/70/68 66/81/68
f 72/86/69 63/130/69 59/73/69
f 63/69/70 71/83/70 57/67/70
f 65/78/71 84/131/71 80/97/71
f 67/132/72 78/91/72 84/93/72
f 73/89/73 83/98/73 79/94/73
f 83/98/74 72/86/74 80/97/74
f 86/102/75 77/133/75 73/89/75
f 88/134/76 71/83/76 77/85/76
f 94/113/77 81/96/77 98/135/77
f 81/136/78 92/107/78 98/109/78
f 87/105/79 97/114/79 93/110/79
f 97/114/80 86/102/80 94/113/80
f 2/4/81 91/137/81 87/105/81
f 91/101/82 1/1/82 85/99/82
f 93/110/83 14/138/83 10/16/83
f 95/139/84 8/10/84 14/12/84
f 15/19/85 43/51/85 71/83/85
f 3/7/86 24/33/86 16/22/86
f 93/110/87 2/4/87 87/105/87
f 8/10/88 78/91/88 50/59/88
f 23/30/89 30/38/89 17/25/89
f 37/46/90 44/54/90 31/41/90
f 51/62/91 58/70/91 45/57/91
f 59/73/92 80/97/92 72/86/92
f 79/94/93 86/102/93 73/89/93
f 99/140/94 103/141/94 105/142/94
f 100/143/95 103/144/95 102/145/95
f 101/146/96 103/147/96 104/148/96
f 106/149/97 110/150/97 112/151/97
f 107/152/98 110/153/98 109/154/98
f 108/155/99 110/156/99 111/157/99
f 113/158/100 117/159/100 119/160/100
f 114/161/101 117/162/101 116/163/101
f 115/164/102 117/162/102 118/165/102
f 120/166/103 124/167/103 126/168/103
f 121/169/104 124/170/104 123/171/104
f 122/172/105 124/170/105 125/173/105
f 127/174/106 131/175/106 133/176/106
f 128/177/107 131/178/107 130/179/107
f 129/180/108 131/178/108 132/181/108
f 134/182/109 138/183/109 140/184/109
f 135/185/110 138/186/110 137/187/110
f 136/188/111 138/186/111 139/189/111
f 141/190/112 145/191/112 147/192/112
f 142/193/113 145/194/113 144/195/113
f 143/196/114 145/194/114 146/197/114
f 148/198/115 152/199/115 154/200/115
f 149/201/116 152/202/116 151/203/116
f 150/204/117 152/202/117 153/205/117
f 155/206/118 159/207/118 161/208/118
f 156/209/119 159/210/119 158/211/119
f 157/212/120 159/210/120 160/213/120
f 162/214/121 166/215/121 168/216/121
f 163/217/122 166/218/122 165/219/122
f 164/220/123 166/218/123 167/221/123
f 169/222/124 173/223/124 175/224/124
f 170/225/125 173/226/125 172/227/125
f 171/228/126 173/226/126 174/229/126
f 176/230/127 180/231/127 182/232/127
f 177/233/128 180/234/128 179/235/128
f 178/236/129 180/234/129 181/237/129
f 183/238/130 187/239/130 189/240/130
f 184/241/131 187/242/131 186/243/131
f 185/244/132 187/242/132 188/245/132
f 190/246/133 194/247/133 196/248/133
f 191/249/134 194/250/134 193/251/134
f 192/252/135 194/250/135 195/253/135
f 101/146/136 116/163/136 105/254/136
f 116/255/137 99/140/137 105/142/137
f 122/172/138 109/154/138 126/256/138
f 126/168/139 106/149/139 120/166/139
f 100/143/140 111/157/140 104/257/140
f 111/258/141 101/146/141 104/148/141
f 115/164/142 125/173/142 121/169/142
f 125/173/143 114/161/143 122/172/143
f 128/177/144 119/259/144 115/164/144
f 119/160/145 127/174/145 113/158/145
f 121/169/146 140/260/146 136/188/146
f 123/261/147 134/182/147 140/184/147
f 129/180/148 139/189/148 135/185/148
f 139/189/149 128/177/149 136/188/149
f 142/193/150 133/262/150 129/180/150
f 133/176/151 141/190/151 127/174/151
f 150/204/152 137/187/152 154/263/152
f 137/264/153 148/198/153 154/200/153
f 143/196/154 153/205/154 149/201/154
f 153/205/155 142/193/155 150/204/155
f 156/209/156 147/265/156 143/196/156
f 147/192/157 155/206/157 141/190/157
f 149/201/158 168/266/158 164/220/158
f 151/267/159 162/214/159 168/216/159
f 157/212/160 167/221/160 163/217/160
f 167/221/161 156/209/161 164/220/161
f 157/212/162 172/227/162 161/268/162
f 161/208/163 169/222/163 155/206/163
f 178/236/164 165/219/164 182/269/164
f 165/270/165 176/230/165 182/232/165
f 171/228/166 181/237/166 177/233/166
f 181/237/167 170/225/167 178/236/167
f 184/241/168 175/271/168 171/228/168
f 175/224/169 183/238/169 169/222/169
f 177/233/170 196/272/170 192/252/170
f 179/273/171 190/246/171 196/248/171
f 185/244/172 195/253/172 191/249/172
f 195/253/173 184/241/173 192/252/173
f 185/244/174 102/145/174 189/274/174
f 189/240/175 99/140/175 183/238/175
f 108/155/176 193/251/176 112/275/176
f 112/151/177 190/246/177 106/149/177
f 113/158/178 141/190/178 169/222/178
f 107/152/179 114/161/179 101/146/179
f 191/249/180 100/143/180 185/244/180
f 106/149/181 176/230/181 148/198/181
f 121/169/182 128/177/182 115/164/182
f 129/180/183 150/204/183 142/193/183
f 149/201/184 156/209/184 143/196/184
f 163/217/185 170/225/185 157/212/185
f 177/233/186 184/241/186 171/228/186
f 1/1/377 4/497/377 5/2/377
f 2/4/378 6/119/378 5/5/378
f 3/7/379 7/115/379 5/8/379
f 8/10/380 11/118/380 12/11/380
f 9/13/381 13/120/381 12/14/381
f 10/16/382 14/138/382 12/17/382
f 15/19/383 18/116/383 19/20/383
f 16/22/384 20/26/384 19/23/384
f 17/25/385 21/121/385 19/23/385
f 22/27/386 25/124/386 26/28/386
f 23/30/387 27/34/387 26/31/387
f 24/33/388 28/117/388 26/31/388
f 29/35/389 32/122/389 33/36/389
f 30/38/390 34/42/390 33/39/390
f 31/41/391 35/125/391 33/39/391
f 36/43/392 39/498/392 40/44/392
f 37/46/393 41/50/393 40/47/393
f 38/49/394 42/123/394 40/47/394
f 43/51/395 46/499/395 47/52/395
f 44/54/396 48/58/396 47/55/396
f 45/57/397 49/127/397 47/55/397
f 50/59/398 53/129/398 54/60/398
f 51/62/399 55/66/399 54/63/399
f 52/65/400 56/126/400 54/63/400
f 57/67/401 60/500/401 61/68/401
f 58/70/402 62/74/402 61/71/402
f 59/73/403 63/130/403 61/71/403
f 64/75/404 67/132/404 68/76/404
f 65/78/405 69/82/405 68/79/405
f 66/81/406 70/128/406 68/79/406
f 71/83/407 74/501/407 75/84/407
f 72/86/408 76/90/408 75/87/408
f 73/89/409 77/133/409 75/87/409
f 78/91/410 81/136/410 82/92/410
f 79/94/411 83/98/411 82/95/411
f 80/97/412 84/131/412 82/95/412
f 85/99/413 88/134/413 89/100/413
f 86/102/414 90/106/414 89/103/414
f 87/105/415 91/137/415 89/103/415
f 92/107/416 95/139/416 96/108/416
f 93/110/417 97/114/417 96/111/417
f 94/113/418 98/135/418 96/111/418
f 3/7/43 16/22/43 18/24/43
f 18/116/44 15/19/44 1/1/44
f 9/13/45 11/15/45 28/117/45
f 11/118/46 8/10/46 22/27/46
f 2/4/47 10/16/47 13/18/47
f 13/120/48 9/13/48 3/7/48
f 17/25/49 20/26/49 27/34/49
f 27/34/50 20/26/50 16/22/50
f 30/38/51 32/40/51 21/121/51
f 32/122/52 29/35/52 15/19/52
f 38/49/53 23/30/53 25/32/53
f 25/124/419 22/27/419 36/43/419
f 31/41/55 34/42/55 41/50/55
f 41/50/56 34/42/56 30/38/56
f 44/54/57 46/56/57 35/125/57
f 35/37/58 46/499/58 43/51/58
f 37/46/59 39/48/59 56/126/59
f 56/61/60 39/498/60 36/43/60
f 45/57/61 48/58/61 55/66/61
f 55/66/62 48/58/62 44/54/62
f 58/70/63 60/72/63 49/127/63
f 49/53/64 60/500/64 57/67/64
f 51/62/65 53/64/65 70/128/65
f 53/129/66 50/59/66 64/75/66
f 59/73/67 62/74/67 69/82/67
f 69/82/68 62/74/68 58/70/68
f 72/86/69 74/88/69 63/130/69
f 63/69/70 74/501/70 71/83/70
f 65/78/71 67/80/71 84/131/71
f 67/132/72 64/75/72 78/91/72
f 73/89/73 76/90/73 83/98/73
f 83/98/74 76/90/74 72/86/74
f 86/102/75 88/104/75 77/133/75
f 88/134/76 85/99/76 71/83/76
f 94/113/77 79/94/77 81/96/77
f 81/136/78 78/91/78 92/107/78
f 87/105/79 90/106/79 97/114/79
f 97/114/80 90/106/80 86/102/80
f 2/4/81 4/6/81 91/137/81
f 91/101/82 4/497/82 1/1/82
f 93/110/83 95/112/83 14/138/83
f 95/139/84 92/107/84 8/10/84
f 85/99/85 1/1/85 15/19/85
f 15/19/85 29/35/85 43/51/85
f 43/51/85 57/67/85 71/83/85
f 71/83/85 85/99/85 15/19/85
f 3/7/86 9/13/86 24/33/86
f 93/110/87 10/16/87 2/4/87
f 36/43/88 22/27/88 8/10/88
f 8/10/88 92/107/88 78/91/88
f 78/91/88 64/75/88 50/59/88
f 50/59/88 36/43/88 8/10/88
f 23/30/89 38/49/89 30/38/89
f 37/46/90 52/65/90 44/54/90
f 51/62/91 66/81/91 58/70/91
f 59/73/92 65/78/92 80/97/92
f 79/94/93 94/113/93 86/102/93
f 99/140/420 102/502/420 103/141/420
f 100/143/421 104/257/421 103/144/421
f 101/146/422 105/254/422 103/147/422
f 106/149/423 109/503/423 110/150/423
f 107/152/424 111/258/424 110/153/424
f 108/155/425 112/275/425 110/156/425
f 113/158/426 116/255/426 117/159/426
f 114/161/427 118/165/427 117/162/427
f 115/164/428 119/259/428 117/162/428
f 120/166/429 123/261/429 124/167/429
f 121/169/430 125/173/430 124/170/430
f 122/172/431 126/256/431 124/170/431
f 127/174/432 130/504/432 131/175/432
f 128/177/433 132/181/433 131/178/433
f 129/180/434 133/262/434 131/178/434
f 134/182/435 137/264/435 138/183/435
f 135/185/436 139/189/436 138/186/436
f 136/188/437 140/260/437 138/186/437
f 141/190/438 144/505/438 145/191/438
f 142/193/439 146/197/439 145/194/439
f 143/196/440 147/265/440 145/194/440
f 148/198/441 151/267/441 152/199/441
f 149/201/442 153/205/442 152/202/442
f 150/204/443 154/263/443 152/202/443
f 155/206/444 158/506/444 159/207/444
f 156/209/445 160/213/445 159/210/445
f 157/212/446 161/268/446 159/210/446
f 162/214/447 165/270/447 166/215/447
f 163/217/448 167/221/448 166/218/448
f 164/220/449 168/266/449 166/218/449
f 169/222/450 172/507/450 173/223/450
f 170/225/451 174/229/451 173/226/451
f 171/228/452 175/271/452 173/226/452
f 176/230/453 179/273/453 180/231/453
f 177/233/454 181/237/454 180/234/454
f 178/236/455 182/269/455 180/234/455
f 183/238/456 186/508/456 187/239/456
f 184/241/457 188/245/457 187/242/457
f 185/244/458 189/274/458 187/242/458
f 190/246/459 193/509/459 194/247/459
f 191/249/460 195/253/460 194/250/460
f 192/252/461 196/272/461 194/250/461
f 101/146/136 114/161/136 116/163/136
f 116/255/137 113/158/137 99/140/137
f 122/172/138 107/152/138 109/154/138
f 126/168/139 109/503/139 106/149/139
f 100/143/140 108/155/140 111/157/140
f 111/258/141 107/152/141 101/146/141
f 115/164/142 118/165/142 125/173/142
f 125/173/143 118/165/143 114/161/143
f 128/177/144 130/179/144 119/259/144
f 119/160/145 130/504/145 127/174/145
f 121/169/146 123/171/146 140/260/146
f 123/261/147 120/166/147 134/182/147
f 129/180/148 132/181/148 139/189/148
f 139/189/149 132/181/149 128/177/149
f 142/193/150 144/195/150 133/262/150
f 133/176/151 144/505/151 141/190/151
f 150/204/152 135/185/152 137/187/152
f 137/264/153 134/182/153 148/198/153
f 143/196/154 146/197/154 153/205/154
f 153/205/155 146/197/155 142/193/155
f 156/209/156 158/211/156 147/265/156
f 147/192/157 158/506/157 155/206/157
f 149/201/158 151/203/158 168/266/158
f 151/267/159 148/198/159 162/214/159
f 157/212/160 160/213/160 167/221/160
f 167/221/161 160/213/161 156/209/161
f 157/212/162 170/225/162 172/227/162
f 161/208/462 172/507/462 169/222/462
f 178/236/164 163/217/164 165/219/164
f 165/270/165 162/214/165 176/230/165
f 171/228/166 174/229/166 181/237/166
f 181/237/167 174/229/167 170/225/167
f 184/241/168 186/243/168 175/271/168
f 175/224/169 186/508/169 183/238/169
f 177/233/170 179/235/170 196/272/170
f 179/273/171 176/230/171 190/246/171
f 185/244/172 188/245/172 195/253/172
f 195/253/173 188/245/173 184/241/173
f 185/244/174 100/143/174 102/145/174
f 189/240/175 102/502/175 99/140/175
f 108/155/176 191/249/176 193/251/176
f 112/151/177 193/509/177 190/246/177
f 183/238/178 99/140/178 113/158/178
f 113/158/178 127/174/178 141/190/178
f 141/190/178 155/206/178 169/222/178
f 169/222/178 183/238/178 113/158/178
f 107/152/179 122/172/179 114/161/179
f 191/249/180 108/155/180 100/143/180
f 134/182/181 120/166/181 106/149/181
f 106/149/181 190/246/181 176/230/181
f 176/230/181 162/214/181 148/198/181
f 148/198/181 134/182/181 106/149/181
f 121/169/182 136/188/182 128/177/182
f 129/180/183 135/185/183 150/204/183
f 149/201/184 164/220/184 156/209/184
f 163/217/185 178/236/185 170/225/185
f 177/233/186 192/252/186 184/241/186
usemtl core
f 200/276/187 203/277/187 197/278/187
f 198/279/188 201/280/188 200/281/188
f 199/282/189 201/283/189 202/284/189
f 204/285/190 208/286/190 210/287/190
f 209/288/191 207/289/191 205/290/191
f 206/291/192 208/292/192 209/293/192
f 214/294/193 217/295/193 211/296/193
f 212/297/194 215/298/194 214/299/194
f 213/300/195 215/298/195 216/301/195
f 221/302/196 224/303/196 218/304/196
f 219/305/197 222/306/197 221/307/197
f 220/308/198 222/306/198 223/309/198
f 228/310/199 231/311/199 225/312/199
f 226/313/200 229/314/200 228/310/200
f 227/315/201 229/314/201 230/316/201
f 235/317/202 238/318/202 232/319/202
f 233/320/203 236/321/203 235/317/203
f 234/322/204 236/321/204 237/323/204
f 242/324/205 245/325/205 239/326/205
f 240/327/206 243/328/206 242/324/206
f 241/329/207 243/328/207 244/330/207
f 249/331/208 252/332/208 246/333/208
f 247/334/209 250/335/209 249/331/209
f 248/336/210 250/335/210 251/337/210
f 211/296/211 203/277/211 214/294/211
f 214/299/212 199/282/212 212/297/212
f 198/279/213 210/287/213 202/338/213
f 210/339/214 199/282/214 202/284/214
f 218/304/215 209/288/215 205/290/215
f 224/340/216 206/291/216 209/293/216
f 219/305/217 216/301/217 223/309/217
f 216/301/218 220/308/218 223/309/218
f 211/296/219 242/324/219 239/326/219
f 217/341/220 240/327/220 242/324/220
f 246/333/221 221/302/221 218/304/221
f 221/307/222 248/336/222 219/305/222
f 247/334/223 244/330/223 251/337/223
f 244/330/224 248/336/224 251/337/224
f 239/326/225 228/310/225 225/312/225
f 245/325/226 226/313/226 228/310/226
f 246/333/227 238/318/227 249/331/227
f 238/318/228 247/334/228 249/331/228
f 227/315/229 237/323/229 233/320/229
f 230/316/230 234/322/230 237/323/230
f 225/312/231 200/276/231 197/278/231
f 231/311/232 198/279/232 200/281/232
f 205/290/233 235/317/233 232/319/233
f 207/342/234 233/320/234 235/317/234
f 211/296/235 225/312/235 197/278/235
f 206/291/236 212/297/236 199/282/236
f 233/320/237 198/279/237 227/315/237
f 218/304/238 232/319/238 246/333/238
f 219/305/239 240/327/239 213/300/239
f 247/334/240 226/313/240 241/329/240
f 253/343/241 259/344/241 263/345/241
f 254/346/242 259/347/242 258/348/242
f 255/349/243 259/350/243 260/351/243
f 256/352/244 259/353/244 261/354/244
f 257/355/245 259/356/245 262/357/245
f 264/358/246 270/359/246 274/360/246
f 265/361/247 270/359/247 269/362/247
f 266/363/248 270/359/248 271/364/248
f 267/365/249 270/359/249 272/366/249
f 268/367/250 270/359/250 273/368/250
f 275/369/251 281/370/251 285/371/251
f 276/372/252 281/373/252 280/374/252
f 277/375/253 281/373/253 282/376/253
f 278/377/254 281/373/254 283/378/254
f 279/379/255 281/370/255 284/380/255
f 286/381/256 292/382/256 296/383/256
f 287/384/257 292/382/257 291/385/257
f 288/386/258 292/382/258 293/387/258
f 289/388/259 292/382/259 294/389/259
f 290/390/260 292/382/260 295/391/260
f 297/392/261 303/393/261 307/394/261
f 298/395/262 303/393/262 302/396/262
f 299/397/263 303/393/263 304/398/263
f 300/399/264 303/393/264 305/400/264
f 301/401/265 303/393/265 306/402/265
f 308/403/266 314/404/266 318/405/266
f 309/406/267 314/404/267 313/407/267
f 310/408/268 314/404/268 315/409/268
f 311/410/269 314/404/269 316/411/269
f 312/412/270 314/404/270 317/413/270
f 319/414/271 325/415/271 329/416/271
f 320/417/272 325/415/272 324/418/272
f 321/419/273 325/415/273 326/420/273
f 322/421/274 325/415/274 327/422/274
f 323/423/275 325/415/275 328/424/275
f 330/425/276 336/426/276 340/427/276
f 331/428/277 336/426/277 335/429/277
f 332/430/278 336/431/278 337/432/278
f 333/433/279 336/431/279 338/434/279
f 334/435/280 336/426/280 339/436/280
f 341/437/281 347/438/281 351/439/281
f 342/440/282 347/438/282 346/441/282
f 343/442/283 347/438/283 348/443/283
f 344/444/284 347/438/284 349/445/284
f 345/446/285 347/438/285 350/447/285
f 352/448/286 358/449/286 362/450/286
f 353/451/287 358/449/287 357/452/287
f 354/453/288 358/449/288 359/454/288
f 355/455/289 358/449/289 360/456/289
f 356/457/290 358/449/290 361/458/290
f 363/459/291 369/460/291 373/461/291
f 364/462/292 369/460/292 368/463/292
f 365/464/293 369/460/293 370/465/293
f 366/466/294 369/460/294 371/467/294
f 367/468/295 369/460/295 372/469/295
f 374/470/296 380/471/296 384/472/296
f 375/473/297 380/474/297 379/475/297
f 376/476/298 380/477/298 381/478/298
f 377/479/299 380/480/299 382/481/299
f 378/482/300 380/483/300 383/484/300
f 275/369/301 263/345/301 280/485/301
f 263/486/302 276/372/302 280/374/302
f 256/352/303 274/360/303 262/487/303
f 274/360/304 257/355/304 262/357/304
f 267/365/305 282/376/305 273/368/305
f 282/376/306 268/367/306 273/368/306
f 265/361/307 313/407/307 308/403/307
f 313/407/308 264/358/308 309/406/308
f 255/349/309 315/409/309 261/488/309
f 261/354/308 309/406/308 256/352/308
f 286/381/310 258/348/310 291/385/310
f 291/385/311 253/343/311 287/384/311
f 279/379/312 293/387/312 285/371/312
f 293/387/313 275/369/313 285/371/313
f 255/349/314 302/396/314 297/392/314
f 260/489/315 298/395/315 302/396/315
f 299/397/316 296/383/316 290/390/316
f 296/383/317 298/395/317 286/381/317
f 301/401/318 316/411/318 307/394/318
f 316/411/319 297/392/319 307/394/319
f 363/459/320 271/364/320 368/463/320
f 271/364/321 364/462/321 368/463/321
f 365/464/322 318/405/322 312/412/322
f 370/465/323 308/403/323 318/405/323
f 319/414/324 283/378/324 324/418/324
f 283/378/325 320/417/325 324/418/325
f 321/419/326 272/366/326 266/363/326
f 326/420/327 267/365/327 272/366/327
f 330/425/328 294/389/328 335/429/328
f 294/389/329 331/428/329 335/429/329
f 278/377/330 337/432/330 284/490/330
f 337/491/331 279/379/331 284/380/331
f 300/399/332 346/441/332 341/437/332
f 305/400/333 342/440/333 346/441/333
f 289/388/334 348/443/334 295/391/334
f 348/443/335 290/390/335 295/391/335
f 312/412/336 357/452/336 352/448/336
f 357/452/337 311/410/337 353/451/337
f 354/453/338 306/402/338 300/399/338
f 359/454/339 301/401/339 306/402/339
f 322/421/340 373/461/340 367/468/340
f 327/422/341 363/459/341 373/461/341
f 333/433/342 329/416/342 323/423/342
f 338/434/343 319/414/343 329/416/343
f 334/435/344 349/445/344 340/427/344
f 340/427/345 343/442/345 330/425/345
f 345/446/346 360/456/346 351/439/346
f 360/456/347 341/437/347 351/439/347
f 366/466/348 362/450/348 356/457/348
f 371/467/349 352/448/349 362/450/349
f 323/423/350 379/492/350 374/470/350
f 328/424/351 375/473/351 379/475/351
f 376/476/352 372/469/352 366/466/352
f 381/493/353 367/468/353 372/469/353
f 378/482/354 339/436/354 384/494/354
f 384/472/355 333/433/355 374/470/355
f 345/446/356 383/495/356 377/479/356
f 383/484/308 344/444/308 378/482/308
f 356/457/357 382/496/357 376/476/357
f 361/458/358 377/479/358 382/481/358
f 253/343/359 275/369/359 287/384/359
f 257/355/360 268/367/360 276/372/360
f 264/358/308 256/352/308 309/406/308
f 254/346/361 286/381/361 298/395/361
f 255/349/362 297/392/362 310/408/362
f 265/361/363 308/403/363 364/462/363
f 266/363/364 363/459/364 321/419/364
f 277/375/365 267/365/365 320/417/365
f 278/377/366 319/414/366 332/430/366
f 288/386/367 279/379/367 331/428/367
f 289/388/368 330/425/368 343/442/368
f 299/397/369 290/390/369 342/440/369
f 300/399/370 341/437/370 354/453/370
f 311/410/371 301/401/371 353/451/371
f 312/412/372 352/448/372 365/464/372
f 333/433/373 323/423/373 374/470/373
f 322/421/374 367/468/374 375/473/374
f 344/444/308 334/435/308 378/482/308
f 355/455/375 345/446/375 377/479/375
f 366/466/376 356/457/376 376/476/376
f 200/276/463 201/510/463 203/277/463
f 198/279/464 202/338/464 201/280/464
f 199/282/465 203/511/465 201/283/465
f 204/285/466 207/342/466 208/286/466
f 209/288/467 208/512/467 207/289/467
f 206/291/468 210/339/468 208/292/468
f 214/294/469 215/513/469 217/295/469
f 212/297/470 216/301/470 215/298/470
f 213/300/471 217/341/471 215/298/471
f 221/302/472 222/514/472 224/303/472
f 219/305/473 223/309/473 222/306/473
f 220/308/474 224/340/474 222/306/474
f 228/310/475 229/314/475 231/311/475
f 226/313/476 230/316/476 229/314/476
f 227/315/477 231/311/477 229/314/477
f 235/317/478 236/321/478 238/318/478
f 233/320/479 237/323/479 236/321/479
f 234/322/480 238/318/480 236/321/480
f 242/324/481 243/328/481 245/325/481
f 240/327/482 244/330/482 243/328/482
f 241/329/483 245/325/483 243/328/483
f 249/331/484 250/335/484 252/332/484
f 247/334/485 251/337/485 250/335/485
f 248/336/486 252/332/486 250/335/486
f 211/296/211 197/278/211 203/277/211
f 214/299/212 203/511/212 199/282/212
f 198/279/213 204/285/213 210/287/213
f 210/339/214 206/291/214 199/282/214
f 218/304/215 224/303/215 209/288/215
f 224/340/216 220/308/216 206/291/216
f 219/305/217 213/300/217 216/301/217
f 216/301/487 212/297/487 220/308/487
f 211/296/219 217/295/219 242/324/219
f 217/341/220 213/300/220 240/327/220
f 246/333/221 252/332/221 221/302/221
f 221/307/222 252/332/222 248/336/222
f 247/334/223 241/329/223 244/330/223
f 244/330/224 240/327/224 248/336/224
f 239/326/225 245/325/225 228/310/225
f 245/325/226 241/329/226 226/313/226
f 246/333/227 232/319/227 238/318/227
f 238/318/228 234/322/228 247/334/228
f 227/315/229 230/316/229 237/323/229
f 230/316/488 226/313/488 234/322/488
f 225/312/231 231/311/231 200/276/231
f 231/311/232 227/315/232 198/279/232
f 205/290/233 207/289/233 235/317/233
f 207/342/234 204/285/234 233/320/234
f 211/296/235 239/326/235 225/312/235
f 206/291/236 220/308/236 212/297/236
f 233/320/237 204/285/237 198/279/237
f 218/304/238 205/290/238 232/319/238
f 219/305/239 248/336/239 240/327/239
f 247/334/240 234/322/240 226/313/240
f 253/343/489 258/515/489 259/344/489
f 254/346/490 260/489/490 259/347/490
f 255/349/491 261/488/491 259/350/491
f 256/352/492 262/487/492 259/353/492
f 257/355/493 263/486/493 259/356/493
f 264/358/494 269/362/494 270/359/494
f 265/361/495 271/364/495 270/359/495
f 266/363/496 272/366/496 270/359/496
f 267/365/497 273/368/497 270/359/497
f 268/367/498 274/360/498 270/359/498
f 275/369/499 280/485/499 281/370/499
f 276/372/500 282/376/500 281/373/500
f 277/375/501 283/378/501 281/373/501
f 278/377/502 284/490/502 281/373/502
f 279/379/503 285/371/503 281/370/503
f 286/381/504 291/385/504 292/382/504
f 287/384/505 293/387/505 292/382/505
f 288/386/506 294/389/506 292/382/506
f 289/388/507 295/391/507 292/382/507
f 290/390/508 296/383/508 292/382/508
f 297/392/509 302/396/509 303/393/509
f 298/395/510 304/398/510 303/393/510
f 299/397/511 305/400/511 303/393/511
f 300/399/512 306/402/512 303/393/512
f 301/401/513 307/394/513 303/393/513
f 308/403/514 313/407/514 314/404/514
f 309/406/515 315/409/515 314/404/515
f 310/408/516 316/411/516 314/404/516
f 311/410/517 317/413/517 314/404/517
f 312/412/518 318/405/518 314/404/518
f 319/414/519 324/418/519 325/415/519
f 320/417/520 326/420/520 325/415/520
f 321/419/521 327/422/521 325/415/521
f 322/421/522 328/424/522 325/415/522
f 323/423/523 329/416/523 325/415/523
f 330/425/524 335/429/524 336/426/524
f 331/428/525 337/491/525 336/426/525
f 332/430/526 338/434/526 336/431/526
f 333/433/527 339/516/527 336/431/527
f 334/435/528 340/427/528 336/426/528
f 341/437/529 346/441/529 347/438/529
f 342/440/530 348/443/530 347/438/530
f 343/442/531 349/445/531 347/438/531
f 344/444/532 350/447/532 347/438/532
f 345/446/533 351/439/533 347/438/533
f 352/448/534 357/452/534 358/449/534
f 353/451/535 359/454/535 358/449/535
f 354/453/536 360/456/536 358/449/536
f 355/455/537 361/458/537 358/449/537
f 356/457/538 362/450/538 358/449/538
f 363/459/539 368/463/539 369/460/539
f 364/462/540 370/465/540 369/460/540
f 365/464/541 371/467/541 369/460/541
f 366/466/542 372/469/542 369/460/542
f 367/468/543 373/461/543 369/460/543
f 374/470/544 379/492/544 380/471/544
f 375/473/545 381/493/545 380/474/545
f 376/476/546 382/496/546 380/477/546
f 377/479/547 383/495/547 380/480/547
f 378/482/548 384/494/548 380/483/548
f 275/369/549 253/343/549 263/345/549
f 263/486/550 257/355/550 276/372/550
f 256/352/308 264/358/308 274/360/308
f 274/360/551 268/367/551 257/355/551
f 267/365/552 277/375/552 282/376/552
f 282/376/553 276/372/553 268/367/553
f 265/361/554 269/362/554 313/407/554
f 313/407/555 269/362/555 264/358/555
f 255/349/556 310/408/556 315/409/556
f 261/354/557 315/409/557 309/406/557
f 286/381/558 254/346/558 258/348/558
f 291/385/559 258/515/559 253/343/559
f 279/379/560 288/386/560 293/387/560
f 293/387/561 287/384/561 275/369/561
f 255/349/562 260/351/562 302/396/562
f 260/489/563 254/346/563 298/395/563
f 299/397/564 304/398/564 296/383/564
f 296/383/565 304/398/565 298/395/565
f 301/401/566 311/410/566 316/411/566
f 316/411/567 310/408/567 297/392/567
f 363/459/568 266/363/568 271/364/568
f 271/364/569 265/361/569 364/462/569
f 365/464/570 370/465/570 318/405/570
f 370/465/571 364/462/571 308/403/571
f 319/414/572 278/377/572 283/378/572
f 283/378/573 277/375/573 320/417/573
f 321/419/574 326/420/574 272/366/574
f 326/420/575 320/417/575 267/365/575
f 330/425/576 289/388/576 294/389/576
f 294/389/577 288/386/577 331/428/577
f 278/377/578 332/430/578 337/432/578
f 337/491/579 331/428/579 279/379/579
f 300/399/580 305/400/580 346/441/580
f 305/400/581 299/397/581 342/440/581
f 289/388/582 343/442/582 348/443/582
f 348/443/583 342/440/583 290/390/583
f 312/412/584 317/413/584 357/452/584
f 357/452/585 317/413/585 311/410/585
f 354/453/586 359/454/586 306/402/586
f 359/454/587 353/451/587 301/401/587
f 322/421/588 327/422/588 373/461/588
f 327/422/589 321/419/589 363/459/589
f 333/433/590 338/434/590 329/416/590
f 338/434/591 332/430/591 319/414/591
f 334/435/308 344/444/308 349/445/308
f 340/427/592 349/445/592 343/442/592
f 345/446/593 355/455/593 360/456/593
f 360/456/594 354/453/594 341/437/594
f 366/466/595 371/467/595 362/450/595
f 371/467/596 365/464/596 352/448/596
f 323/423/597 328/424/597 379/492/597
f 328/424/598 322/421/598 375/473/598
f 376/476/599 381/478/599 372/469/599
f 381/493/600 375/473/600 367/468/600
f 378/482/308 334/435/308 339/436/308
f 384/472/601 339/516/601 333/433/601
f 345/446/602 350/447/602 383/495/602
f 383/484/603 350/447/603 344/444/603
f 356/457/604 361/458/604 382/496/604
f 361/458/605 355/455/605 377/479/605
