# Blender 4.5.10 LTS
# www.blender.org
mtllib grove_sapling_2.mtl
o grove_sapling_2
v 0.000000 -0.010000 0.280000
v 0.000000 0.080000 0.210000
v -0.197990 -0.010000 0.197990
v -0.148492 0.080000 0.148492
v -0.280000 -0.010000 0.000000
v -0.210000 0.080000 0.000000
v -0.197990 -0.010000 -0.197990
v -0.148492 0.080000 -0.148492
v 0.000000 -0.010000 -0.280000
v 0.000000 0.080000 -0.210000
v 0.197990 -0.010000 -0.197990
v 0.148492 0.080000 -0.148492
v 0.280000 -0.010000 0.000000
v 0.210000 0.080000 0.000000
v 0.197990 -0.010000 0.197990
v 0.148492 0.080000 0.148492
v 0.000000 0.061219 0.171259
v 0.000000 0.675523 0.068156
v -0.129904 0.055987 0.096442
v -0.077942 0.672384 0.023266
v -0.129904 0.045523 -0.053193
v -0.077942 0.666106 -0.066515
v 0.000000 0.040292 -0.128010
v 0.000000 0.662967 -0.111405
v 0.129904 0.045523 -0.053193
v 0.077942 0.666106 -0.066515
v 0.129904 0.055987 0.096442
v 0.077942 0.672384 0.023266
v -0.227082 0.364490 -0.075000
v -0.017757 0.632414 -0.075000
v -0.227082 0.364490 -0.005000
v -0.017757 0.632414 -0.005000
v -0.282243 0.407586 -0.075000
v -0.072918 0.675510 -0.075000
v -0.282243 0.407586 -0.005000
v -0.072918 0.675510 -0.005000
v 0.247303 0.483506 -0.005000
v 0.090729 0.715637 -0.005000
v 0.247303 0.483506 0.065000
v 0.090729 0.715637 0.065000
v 0.189271 0.444363 -0.005000
v 0.032697 0.676493 -0.005000
v 0.189271 0.444363 0.065000
v 0.032697 0.676493 0.065000
v 0.000000 0.635000 0.100000
v 0.000000 0.805000 0.030000
v -0.095263 0.635000 0.045000
v -0.034641 0.805000 0.010000
v -0.095263 0.635000 -0.065000
v -0.034641 0.805000 -0.030000
v 0.000000 0.635000 -0.120000
v 0.000000 0.805000 -0.050000
v 0.095263 0.635000 -0.065000
v 0.034641 0.805000 -0.030000
v 0.095263 0.635000 0.045000
v 0.034641 0.805000 0.010000
v 0.005000 0.607202 -0.065015
v 0.005000 0.745839 -0.084499
v 0.005000 0.614161 -0.015501
v 0.005000 0.752798 -0.034985
v -0.045000 0.607202 -0.065015
v -0.045000 0.745839 -0.084499
v -0.045000 0.614161 -0.015501
v -0.045000 0.752798 -0.034985
vn -0.3108 0.5835 0.7503
vn -0.7503 0.5835 0.3108
vn -0.7503 0.5835 -0.3108
vn -0.3108 0.5835 -0.7503
vn 0.3108 0.5835 -0.7503
vn 0.7503 0.5835 -0.3108
vn -0.0000 1.0000 -0.0000
vn 0.7503 0.5835 0.3108
vn 0.3108 0.5835 0.7503
vn -0.0000 -1.0000 -0.0000
vn -0.4983 0.1435 0.8551
vn -0.9965 0.0833 -0.0058
vn -0.4983 0.0231 -0.8667
vn 0.4983 0.0231 -0.8667
vn -0.0000 0.9976 -0.0698
vn 0.9965 0.0833 -0.0058
vn 0.4983 0.1435 0.8551
vn -0.0000 -0.9976 0.0698
vn 0.7880 -0.6157 -0.0000
vn -0.0000 -0.0000 1.0000
vn -0.7880 0.6157 -0.0000
vn -0.0000 -0.0000 -1.0000
vn -0.6157 -0.7880 -0.0000
vn 0.6157 0.7880 -0.0000
vn 0.8290 0.5592 -0.0000
vn -0.8290 -0.5592 -0.0000
vn 0.5592 -0.8290 -0.0000
vn -0.5592 0.8290 -0.0000
vn -0.4710 0.3359 0.8157
vn -0.9419 0.3359 -0.0000
vn -0.4710 0.3359 -0.8157
vn 0.4710 0.3359 -0.8157
vn 0.9419 0.3359 -0.0000
vn 0.4710 0.3359 0.8157
vn 1.0000 -0.0000 -0.0000
vn -0.0000 0.1392 0.9903
vn -1.0000 -0.0000 -0.0000
vn -0.0000 -0.1392 -0.9903
vn -0.0000 -0.9903 0.1392
vn -0.0000 0.9903 -0.1392
vt 1.000000 1.000000
vt 0.875000 0.500000
vt 1.000000 0.500000
vt 0.750000 1.000000
vt 0.750000 0.500000
vt 0.625000 0.500000
vt 0.500000 1.000000
vt 0.500000 0.500000
vt 0.375000 0.500000
vt 0.250000 1.000000
vt 0.250000 0.500000
vt 0.010000 0.250000
vt 0.250000 0.010000
vt 0.490000 0.250000
vt 0.125000 0.500000
vt 0.000000 1.000000
vt 0.000000 0.500000
vt 0.919706 0.080294
vt 0.580294 0.080294
vt 0.580294 0.419706
vt 0.833333 0.500000
vt 0.666667 1.000000
vt 0.666667 0.500000
vt 0.500000 1.000000
vt 0.500000 0.500000
vt 0.333333 0.500000
vt 0.250000 0.490000
vt 0.042154 0.130000
vt 0.457846 0.130000
vt 0.333333 1.000000
vt 0.166667 0.500000
vt 0.166667 1.000000
vt -0.000000 0.500000
vt 0.957846 0.370000
vt 0.750000 0.010000
vt 0.542154 0.370000
vt 0.625000 0.000000
vt 0.375000 0.250000
vt 0.375000 0.000000
vt 0.625000 0.250000
vt 0.375000 0.750000
vt 0.625000 0.750000
vt 0.375000 1.000000
vt 0.125000 0.750000
vt 0.833333 1.000000
vt 0.042154 0.130000
vt 0.957846 0.370000
vt 0.750000 0.010000
vt 0.542154 0.370000
vt 0.875000 1.000000
vt 0.625000 1.000000
vt 0.419706 0.419706
vt 0.080294 0.419706
vt 0.080294 0.080294
vt 0.419706 0.080294
vt 0.125000 1.000000
vt 0.750000 0.490000
vt 0.919706 0.419706
vt 0.990000 0.250000
vt 0.750000 0.010000
vt 0.510000 0.250000
vt 0.457846 0.370000
vt 0.042154 0.370000
vt 0.250000 0.010000
vt -0.000000 1.000000
vt 0.750000 0.490000
vt 0.957846 0.130000
vt 0.542154 0.130000
vt 0.875000 0.750000
vt 0.042154 0.370000
vt 0.957846 0.130000
vt 0.542154 0.130000
s 0
usemtl moss
f 2/1/1 3/2/1 1/3/1
f 3/2/2 6/4/2 5/5/2
f 6/4/3 7/6/3 5/5/3
f 7/6/4 10/7/4 9/8/4
f 10/7/5 11/9/5 9/8/5
f 11/9/6 14/10/6 13/11/6
f 14/12/7 10/13/7 6/14/7
f 14/10/8 15/15/8 13/11/8
f 15/15/9 2/16/9 1/17/9
f 7/18/10 11/19/10 15/20/10
f 46/1/29 47/21/29 45/3/29
f 48/45/30 49/23/30 47/21/30
f 50/22/31 51/25/31 49/23/31
f 52/24/32 53/26/32 51/25/32
f 46/27/7 54/46/7 50/29/7
f 54/30/33 55/31/33 53/26/33
f 56/32/34 45/33/34 55/31/34
f 47/47/10 51/48/10 55/49/10
f 2/1/1 4/50/1 3/2/1
f 3/2/2 4/50/2 6/4/2
f 6/4/3 8/51/3 7/6/3
f 7/6/4 8/51/4 10/7/4
f 10/7/5 12/43/5 11/9/5
f 11/9/6 12/43/6 14/10/6
f 6/14/7 4/52/7 2/27/7
f 2/27/7 16/53/7 14/12/7
f 14/12/7 12/54/7 10/13/7
f 10/13/7 8/55/7 6/14/7
f 6/14/7 2/27/7 14/12/7
f 14/10/8 16/56/8 15/15/8
f 15/15/9 16/56/9 2/16/9
f 15/20/10 1/57/10 3/58/10
f 3/58/10 5/59/10 7/18/10
f 7/18/10 9/60/10 11/19/10
f 11/19/10 13/61/10 15/20/10
f 15/20/10 3/58/10 7/18/10
f 46/1/29 48/45/29 47/21/29
f 48/45/30 50/22/30 49/23/30
f 50/22/31 52/24/31 51/25/31
f 52/24/32 54/30/32 53/26/32
f 50/29/7 48/62/7 46/27/7
f 46/27/7 56/70/7 54/46/7
f 54/46/7 52/64/7 50/29/7
f 54/30/33 56/32/33 55/31/33
f 56/32/34 46/65/34 45/33/34
f 55/49/10 45/66/10 47/47/10
f 47/47/10 49/71/10 51/48/10
f 51/48/10 53/72/10 55/49/10
usemtl bark
f 18/1/11 19/21/11 17/3/11
f 19/21/12 22/22/12 21/23/12
f 21/23/13 24/24/13 23/25/13
f 24/24/14 25/26/14 23/25/14
f 18/27/15 26/28/15 22/29/15
f 26/30/16 27/31/16 25/26/16
f 28/32/17 17/33/17 27/31/17
f 19/34/18 23/35/18 27/36/18
f 30/37/19 31/38/19 29/39/19
f 32/40/20 35/9/20 31/38/20
f 36/6/21 33/41/21 35/9/21
f 34/42/22 29/43/22 33/41/22
f 35/9/23 29/44/23 31/15/23
f 32/2/24 34/42/24 36/6/24
f 38/37/25 39/38/25 37/39/25
f 39/38/20 44/6/20 43/9/20
f 44/6/26 41/41/26 43/9/26
f 42/42/22 37/43/22 41/41/22
f 43/9/27 37/44/27 39/15/27
f 40/2/28 42/42/28 44/6/28
f 18/1/11 20/45/11 19/21/11
f 19/21/12 20/45/12 22/22/12
f 21/23/13 22/22/13 24/24/13
f 24/24/14 26/30/14 25/26/14
f 22/29/15 20/62/15 18/27/15
f 18/27/15 28/63/15 26/28/15
f 26/28/15 24/64/15 22/29/15
f 26/30/16 28/32/16 27/31/16
f 28/32/17 18/65/17 17/33/17
f 27/36/18 17/66/18 19/34/18
f 19/34/18 21/67/18 23/35/18
f 23/35/18 25/68/18 27/36/18
f 30/37/19 32/40/19 31/38/19
f 32/40/20 36/6/20 35/9/20
f 36/6/21 34/42/21 33/41/21
f 34/42/22 30/51/22 29/43/22
f 35/9/23 33/41/23 29/44/23
f 32/2/24 30/69/24 34/42/24
f 38/37/25 40/40/25 39/38/25
f 39/38/20 40/40/20 44/6/20
f 44/6/26 42/42/26 41/41/26
f 42/42/22 38/51/22 37/43/22
f 43/9/27 41/41/27 37/44/27
f 40/2/28 38/69/28 42/42/28
usemtl core
f 58/37/35 59/38/35 57/39/35
f 60/40/36 63/9/36 59/38/36
f 64/6/37 61/41/37 63/9/37
f 62/42/38 57/43/38 61/41/38
f 63/9/39 57/44/39 59/15/39
f 60/2/40 62/42/40 64/6/40
f 58/37/35 60/40/35 59/38/35
f 60/40/36 64/6/36 63/9/36
f 64/6/37 62/42/37 61/41/37
f 62/42/38 58/51/38 57/43/38
f 63/9/39 61/41/39 57/44/39
f 60/2/40 58/69/40 62/42/40
