# Blender 4.5.10 LTS
# www.blender.org
mtllib grove_sapling_1.mtl
o grove_planted_curl
v 0.013918 -0.008421 0.079266
v 0.025768 0.006388 0.085384
v 0.001013 0.005444 0.085463
v 0.022513 -0.003566 0.084181
v 0.013691 -0.001793 0.087416
v 0.013388 0.006237 0.088563
v 0.005009 -0.004234 0.084236
v 0.000947 0.325282 0.002856
v -0.010917 0.312363 0.015185
v 0.013838 0.313307 0.015107
v -0.006191 0.321822 0.011003
v 0.001157 0.320696 0.014018
v 0.001447 0.313382 0.017536
v 0.008379 0.322378 0.010956
v -0.030413 -0.012290 0.058147
v -0.029156 0.002811 0.071091
v -0.044576 0.000248 0.051872
v -0.029318 -0.007230 0.067883
v -0.037500 -0.006261 0.063029
v -0.039333 0.001636 0.063447
v -0.040222 -0.009041 0.054294
v -0.010583 0.324276 -0.002637
v -0.026337 0.309801 -0.004033
v -0.010917 0.312363 0.015185
v -0.021032 0.319811 -0.003055
v -0.018680 0.318964 0.004568
v -0.020541 0.311463 0.007061
v -0.011956 0.321319 0.008256
v -0.041332 -0.017601 0.010410
v -0.052006 -0.003366 0.019386
v -0.046481 -0.005617 -0.004658
v -0.048676 -0.013154 0.017329
v -0.050108 -0.012394 0.007905
v -0.052317 -0.004680 0.006675
v -0.044769 -0.014746 0.000328
v -0.013422 0.322894 -0.015052
v -0.020811 0.307550 -0.028076
v -0.026337 0.309801 -0.004033
v -0.019199 0.317795 -0.023414
v -0.023565 0.316588 -0.016793
v -0.025956 0.308829 -0.016616
v -0.022452 0.319120 -0.009263
v -0.010615 -0.020354 -0.027998
v -0.025577 -0.007491 -0.030796
v -0.003266 -0.007735 -0.041559
v -0.020985 -0.016878 -0.029413
v -0.014639 -0.015573 -0.036446
v -0.015788 -0.007955 -0.039002
v -0.005208 -0.017051 -0.037024
v -0.005434 0.322178 -0.025041
v 0.001499 0.307306 -0.038840
v -0.020811 0.307550 -0.028076
v -0.002073 0.317293 -0.034744
v -0.009821 0.315356 -0.033979
v -0.010721 0.307463 -0.035666
v -0.015205 0.317437 -0.028409
v 0.038605 -0.018477 -0.028155
v 0.030230 -0.006458 -0.041666
v 0.052526 -0.004512 -0.031045
v 0.032905 -0.015597 -0.037145
v 0.042199 -0.013406 -0.036627
v 0.042748 -0.005722 -0.039188
v 0.048670 -0.014221 -0.029635
v 0.007367 0.322666 -0.025082
v 0.023795 0.309251 -0.028218
v 0.001499 0.307306 -0.038840
v 0.017450 0.318683 -0.028513
v 0.012204 0.316196 -0.034050
v 0.013692 0.308394 -0.035744
v 0.004327 0.317537 -0.034764
v 0.069266 -0.013382 0.010057
v 0.073392 -0.001045 -0.005040
v 0.078883 0.001626 0.018969
v 0.072412 -0.010276 -0.000045
v 0.077605 -0.007523 0.007498
v 0.079212 0.000336 0.006256
v 0.076295 -0.008388 0.016931
v 0.015342 0.323991 -0.015144
v 0.029286 0.311922 -0.004210
v 0.023795 0.309251 -0.028218
v 0.024669 0.320917 -0.009413
v 0.025924 0.318475 -0.016951
v 0.028900 0.310921 -0.016791
v 0.021437 0.319345 -0.023544
v 0.058279 -0.008907 0.057864
v 0.071406 0.004672 0.051503
v 0.055958 0.006057 0.070819
v 0.067787 -0.004922 0.053950
v 0.064917 -0.002355 0.062703
v 0.066146 0.005659 0.063111
v 0.056864 -0.003943 0.067608
v 0.012484 0.325155 -0.002711
v 0.013838 0.313307 0.015107
v 0.029286 0.311922 -0.004210
v 0.014148 0.322314 0.008173
v 0.021008 0.320478 0.004441
v 0.023451 0.313141 0.006921
v 0.023240 0.321499 -0.003196
v 0.074033 -0.011449 -0.008701
v 0.078363 0.001382 -0.022521
v 0.079941 0.002947 0.002799
v 0.078186 -0.007952 -0.018196
v 0.081872 -0.005584 -0.009551
v 0.082363 0.002228 -0.010065
v 0.079301 -0.006845 -0.000292
v 0.050321 0.062962 -0.011823
v 0.064787 0.050500 0.000804
v 0.063209 0.048935 -0.024516
v 0.059487 0.059624 -0.004868
v 0.062212 0.057627 -0.012234
v 0.066311 0.050447 -0.012045
v 0.058582 0.058726 -0.019394
v 0.049019 -0.008334 0.052675
v 0.061777 0.005209 0.047365
v 0.042933 0.005795 0.064411
v 0.058817 -0.004294 0.049969
v 0.054243 -0.002143 0.058238
v 0.054513 0.005696 0.058267
v 0.045492 -0.003880 0.062022
v 0.032504 0.065180 0.031894
v 0.032378 0.052775 0.051131
v 0.051223 0.052189 0.034084
v 0.032985 0.061914 0.043409
v 0.040539 0.060326 0.040943
v 0.043350 0.053306 0.044292
v 0.043796 0.061578 0.033630
v -0.014609 -0.008696 0.071483
v -0.003269 0.005532 0.078068
v -0.028345 0.004697 0.074005
v -0.006614 -0.004177 0.077424
v -0.016034 -0.002543 0.079012
v -0.016327 0.005293 0.079207
v -0.024346 -0.004767 0.074551
v -0.012817 0.064923 0.045290
v -0.027200 0.051743 0.057266
v -0.002123 0.052578 0.061329
v -0.021312 0.061208 0.052876
v -0.014589 0.060012 0.057239
v -0.015054 0.052974 0.061556
v -0.006926 0.061687 0.055207
v -0.068937 -0.012263 0.033561
v -0.067794 0.002107 0.046469
v -0.080219 0.000480 0.024355
v -0.068836 -0.007688 0.043496
v -0.076040 -0.006482 0.037126
v -0.076813 0.001322 0.036987
v -0.077622 -0.008839 0.027860
v -0.051513 0.062382 0.018279
v -0.069084 0.048182 0.014589
v -0.056659 0.049809 0.036703
v -0.062518 0.058037 0.016402
v -0.061660 0.056922 0.024382
v -0.064923 0.049700 0.026747
v -0.055390 0.058971 0.029089
v -0.073056 -0.016348 -0.032535
v -0.083210 -0.002487 -0.023639
v -0.073627 -0.003680 -0.047150
v -0.080994 -0.012184 -0.026267
v -0.080588 -0.010995 -0.035877
v -0.081398 -0.003226 -0.036602
v -0.074218 -0.013028 -0.042893
v -0.054447 0.059472 -0.028800
v -0.061735 0.044774 -0.044763
v -0.071317 0.045967 -0.021251
v -0.059604 0.054790 -0.038546
v -0.065228 0.053382 -0.032885
v -0.068703 0.045950 -0.033924
v -0.065102 0.055474 -0.025057
v -0.023863 -0.017876 -0.077034
v -0.037907 -0.004790 -0.079461
v -0.013533 -0.004651 -0.086666
v -0.033934 -0.014279 -0.079333
v -0.026255 -0.012682 -0.085026
v -0.026630 -0.004928 -0.086144
v -0.016699 -0.014181 -0.084428
v -0.019408 0.058384 -0.060495
v -0.010686 0.044084 -0.076096
v -0.035060 0.043945 -0.068892
v -0.014764 0.053911 -0.070591
v -0.022607 0.052058 -0.071439
v -0.023549 0.044547 -0.074769
v -0.028748 0.053831 -0.066458
v 0.041598 -0.015696 -0.066427
v 0.033999 -0.003068 -0.078964
v 0.054811 -0.001701 -0.064437
v 0.036908 -0.012396 -0.075741
v 0.046047 -0.010274 -0.073310
v 0.046251 -0.002500 -0.074334
v 0.051624 -0.011430 -0.065469
v 0.027218 0.059937 -0.052939
v 0.045621 0.046632 -0.055817
v 0.024809 0.045266 -0.070345
v 0.038236 0.056063 -0.055603
v 0.034109 0.053947 -0.062248
v 0.036538 0.046549 -0.065033
v 0.026297 0.055279 -0.063938
v 0.010034 0.256799 0.015385
v 0.016991 0.272192 0.005739
v 0.016232 0.272192 0.025535
v 0.016262 0.262031 0.008614
v 0.019942 0.264583 0.015765
v 0.020644 0.272915 0.015792
v 0.015725 0.262031 0.022613
v -0.009125 0.339717 0.014650
v 0.003380 0.327813 0.025043
v 0.004139 0.327813 0.005246
v -0.001587 0.336954 0.021949
v 0.003448 0.335964 0.015132
v 0.007793 0.328536 0.015299
v -0.001050 0.336954 0.007950
v -0.000391 0.255000 0.025194
v 0.006535 0.270519 0.034660
v -0.012952 0.267025 0.033912
v 0.005516 0.260269 0.032218
v -0.001860 0.260821 0.036278
v -0.003366 0.268772 0.038383
v -0.008263 0.257798 0.031690
v -0.015207 0.338668 0.020372
v -0.022890 0.323149 0.030678
v -0.003404 0.326643 0.031426
v -0.021650 0.333399 0.027334
v -0.014614 0.332847 0.032128
v -0.013304 0.324896 0.035149
v -0.007871 0.335869 0.027862
v -0.010034 0.253201 0.014615
v -0.021922 0.265352 0.024072
v -0.021163 0.265352 0.004275
v -0.017706 0.256037 0.021331
v -0.022026 0.257059 0.014155
v -0.025576 0.264629 0.014019
v -0.017169 0.256037 0.007332
v -0.020832 0.337618 0.014201
v -0.028406 0.321978 0.003998
v -0.029165 0.321978 0.023795
v -0.026927 0.332314 0.006958
v -0.031322 0.329730 0.013799
v -0.032819 0.321255 0.013741
v -0.027464 0.332314 0.020956
v 0.000391 0.255000 0.004806
v -0.011466 0.267025 -0.004849
v 0.008021 0.270519 -0.004101
v -0.006960 0.257798 -0.002274
v -0.000225 0.260821 -0.006358
v -0.001565 0.268772 -0.008573
v 0.006819 0.260269 -0.001745
v -0.014751 0.338668 0.008479
v -0.002136 0.326643 -0.001638
v -0.021623 0.323149 -0.002385
v -0.006863 0.335869 0.001573
v -0.013259 0.332847 -0.003196
v -0.011722 0.324896 -0.006109
v -0.020642 0.333399 0.001045
v -0.009196 0.335767 0.014602
v -0.010746 0.352408 0.004648
v -0.011307 0.352408 0.024451
v -0.006375 0.343254 0.007674
v -0.004387 0.347418 0.014738
v -0.007868 0.355021 0.014639
v -0.006772 0.343254 0.021677
v -0.066616 0.398563 0.012973
v -0.049824 0.394531 0.023359
v -0.049263 0.394531 0.003556
v -0.058655 0.399995 0.020206
v -0.053818 0.401477 0.013336
v -0.046385 0.397144 0.013547
v -0.058258 0.399995 0.006203
v -0.013949 0.331974 0.020420
v -0.015492 0.349069 0.029574
v -0.030753 0.336444 0.029141
v -0.011357 0.339596 0.027290
v -0.018032 0.336531 0.031442
v -0.023239 0.342757 0.033456
v -0.022148 0.330669 0.026984
v -0.067975 0.397479 0.014636
v -0.066993 0.380384 0.025261
v -0.051732 0.393009 0.025694
v -0.070964 0.389857 0.021758
v -0.064540 0.392922 0.026462
v -0.059479 0.386697 0.029577
v -0.060173 0.398785 0.022064
v -0.018365 0.328182 0.014342
v -0.034640 0.333105 0.023790
v -0.034079 0.333105 0.003986
v -0.026407 0.327011 0.021121
v -0.030708 0.325645 0.013992
v -0.037518 0.330492 0.013798
v -0.026010 0.327011 0.007118
v -0.069237 0.396395 0.012899
v -0.068203 0.378862 0.003019
v -0.068765 0.378862 0.022822
v -0.071976 0.388647 0.005814
v -0.074501 0.384367 0.012750
v -0.071643 0.376249 0.012831
v -0.072374 0.388647 0.019817
v -0.013612 0.331974 0.008523
v -0.029894 0.336444 -0.001136
v -0.014633 0.349069 -0.000703
v -0.021425 0.330669 0.001505
v -0.017063 0.336532 -0.002712
v -0.022148 0.342757 -0.005019
v -0.010634 0.339596 0.001811
v -0.067878 0.397479 0.011236
v -0.051035 0.393009 0.001116
v -0.066296 0.380384 0.000683
v -0.059668 0.398785 0.004263
v -0.063779 0.392922 -0.000377
v -0.058549 0.386697 -0.003199
v -0.070459 0.389857 0.003957
v -0.061769 0.396076 0.013030
v -0.069470 0.408547 0.004521
v -0.069196 0.408547 0.021779
v -0.062546 0.402955 0.006939
v -0.062253 0.407049 0.013038
v -0.067798 0.411773 0.013126
v -0.062353 0.402955 0.019143
v -0.140338 0.428762 0.014276
v -0.125230 0.431858 0.022668
v -0.125504 0.431858 0.005409
v -0.134322 0.432895 0.020284
v -0.131298 0.435772 0.014132
v -0.123832 0.435084 0.014014
v -0.134515 0.432895 0.008080
v -0.063527 0.392239 0.017308
v -0.070698 0.405270 0.025433
v -0.078114 0.389684 0.025551
v -0.064035 0.399283 0.023236
v -0.068025 0.394453 0.027080
v -0.074350 0.397477 0.029064
v -0.069279 0.388262 0.023319
v -0.140338 0.428762 0.014276
v -0.132894 0.415731 0.023388
v -0.125478 0.431317 0.023270
v -0.139637 0.421717 0.020541
v -0.135525 0.426548 0.024415
v -0.129129 0.423524 0.026901
v -0.134393 0.432738 0.020458
v -0.065421 0.388401 0.013088
v -0.079731 0.386406 0.021946
v -0.080005 0.386406 0.004688
v -0.071090 0.384591 0.019281
v -0.074239 0.381857 0.013228
v -0.081403 0.383180 0.013341
v -0.071284 0.384591 0.007077
v -0.140338 0.428762 0.014276
v -0.133434 0.415191 0.005535
v -0.133161 0.415191 0.022793
v -0.139908 0.421561 0.008166
v -0.140075 0.417325 0.014272
v -0.134832 0.411965 0.014188
v -0.139714 0.421561 0.020369
v -0.063662 0.392239 0.008809
v -0.078503 0.389684 0.001034
v -0.071087 0.405270 0.000916
v -0.069601 0.388262 0.002984
v -0.068467 0.394453 -0.000815
v -0.074852 0.397477 -0.002597
v -0.064358 0.399283 0.002901
v -0.140338 0.428762 0.014276
v -0.125771 0.431317 0.004815
v -0.133186 0.415731 0.004932
v -0.134592 0.432738 0.007908
v -0.135848 0.426548 0.003989
v -0.129535 0.423524 0.001301
v -0.139836 0.421717 0.007991
v -0.134199 0.430090 0.014178
v -0.143360 0.436125 0.007636
v -0.143414 0.436125 0.020644
v -0.136871 0.434550 0.009568
v -0.138083 0.437399 0.014162
v -0.143387 0.438818 0.014140
v -0.136910 0.434550 0.018766
v -0.219198 0.425827 0.013823
v -0.210040 0.432784 0.020366
v -0.209985 0.432784 0.007358
v -0.216527 0.430557 0.018433
v -0.215316 0.433526 0.013839
v -0.210013 0.435476 0.013862
v -0.216489 0.430557 0.009235
v -0.134216 0.425840 0.018428
v -0.143429 0.432343 0.024427
v -0.143427 0.419335 0.024427
v -0.136926 0.430439 0.022878
v -0.138130 0.425840 0.025722
v -0.143439 0.425839 0.027119
v -0.136925 0.421241 0.022878
v -0.219198 0.425827 0.013823
v -0.210039 0.419325 0.020817
v -0.210041 0.432333 0.020817
v -0.216526 0.421229 0.018564
v -0.215347 0.425828 0.021537
v -0.210052 0.425829 0.023509
v -0.216528 0.430427 0.018564
v -0.134198 0.421590 0.014178
v -0.143411 0.415552 0.020644
v -0.143357 0.415552 0.007636
v -0.136907 0.417129 0.018766
v -0.138080 0.414280 0.014162
v -0.143383 0.412860 0.014140
v -0.136869 0.417129 0.009568
v -0.219198 0.425827 0.013823
v -0.209983 0.418873 0.007358
v -0.210037 0.418873 0.020366
v -0.216487 0.421098 0.009235
v -0.215314 0.418130 0.013839
v -0.210010 0.416181 0.013862
v -0.216526 0.421098 0.018433
v -0.134181 0.425840 0.009928
v -0.143341 0.419335 0.003854
v -0.143343 0.432343 0.003854
v -0.136852 0.421241 0.005457
v -0.138033 0.425840 0.002603
v -0.143331 0.425839 0.001161
v -0.136854 0.430439 0.005457
v -0.219198 0.425827 0.013823
v -0.209983 0.432333 0.006906
v -0.209981 0.419325 0.006906
v -0.216488 0.430427 0.009105
v -0.215283 0.425828 0.006142
v -0.209971 0.425829 0.004214
v -0.216487 0.421229 0.009105
v -0.205310 0.399779 0.007780
v -0.204974 0.399693 0.029326
v -0.225363 0.399656 0.036304
v -0.238300 0.399719 0.019070
v -0.225906 0.399795 0.001441
v -0.204246 0.398286 0.018533
v -0.219968 0.393855 0.018761
v -0.214878 0.398221 0.033657
v -0.232547 0.398235 0.028219
v -0.232836 0.398309 0.009734
v -0.215344 0.398341 0.003748
v -0.238300 0.399719 0.019070
v -0.249636 0.418044 0.019320
v -0.244249 0.429446 0.001845
v -0.229583 0.418168 -0.009204
v -0.225906 0.399795 0.001441
v -0.245417 0.407985 0.019214
v -0.241832 0.410418 0.003462
v -0.248572 0.423746 0.010081
v -0.237939 0.423812 -0.005043
v -0.228214 0.408091 -0.005257
v -0.232836 0.398309 0.009734
v -0.205310 0.399779 0.007779
v -0.225906 0.399795 0.001441
v -0.229583 0.418168 -0.009205
v -0.211259 0.429507 -0.009445
v -0.196258 0.418142 0.001052
v -0.215344 0.398341 0.003748
v -0.212117 0.410472 -0.006707
v -0.228214 0.408091 -0.005257
v -0.220448 0.423844 -0.011029
v -0.202778 0.423830 -0.005591
v -0.199624 0.408068 0.003541
v -0.204974 0.399693 0.029326
v -0.205310 0.399779 0.007780
v -0.196258 0.418142 0.001052
v -0.190327 0.429404 0.018441
v -0.195714 0.418002 0.035915
v -0.204245 0.398287 0.018533
v -0.193262 0.410380 0.018410
v -0.199624 0.408068 0.003542
v -0.191680 0.423776 0.009194
v -0.191391 0.423702 0.027679
v -0.199157 0.407949 0.033451
v -0.225363 0.399656 0.036304
v -0.204974 0.399693 0.029327
v -0.195714 0.418002 0.035915
v -0.210380 0.429281 0.046965
v -0.228704 0.417942 0.047206
v -0.214878 0.398221 0.033658
v -0.211325 0.410269 0.044103
v -0.199158 0.407949 0.033451
v -0.202024 0.423637 0.042804
v -0.219515 0.423605 0.048790
v -0.227459 0.407897 0.043137
v -0.249636 0.418044 0.019320
v -0.238300 0.399719 0.019070
v -0.225363 0.399656 0.036304
v -0.228704 0.417942 0.047205
v -0.243705 0.429307 0.036709
v -0.245417 0.407985 0.019214
v -0.241342 0.410292 0.034865
v -0.232547 0.398235 0.028219
v -0.227460 0.407897 0.043137
v -0.237185 0.423618 0.043352
v -0.248284 0.423672 0.028566
v -0.211260 0.429507 -0.009445
v -0.229583 0.418168 -0.009205
v -0.244249 0.429447 0.001845
v -0.234989 0.447756 0.008434
v -0.214600 0.447793 0.001456
v -0.220448 0.423844 -0.011029
v -0.228638 0.437180 -0.006343
v -0.237939 0.423812 -0.005043
v -0.240806 0.439500 0.004309
v -0.225085 0.449228 0.004103
v -0.212504 0.439552 -0.005377
v -0.190327 0.429405 0.018441
v -0.196258 0.418142 0.001052
v -0.211259 0.429507 -0.009445
v -0.214600 0.447793 0.001456
v -0.201664 0.447730 0.018691
v -0.191680 0.423776 0.009194
v -0.198621 0.437157 0.002896
v -0.202778 0.423831 -0.005591
v -0.212504 0.439552 -0.005377
v -0.207416 0.449214 0.009541
v -0.194546 0.439464 0.018547
v -0.210380 0.429281 0.046965
v -0.195714 0.418003 0.035915
v -0.190327 0.429405 0.018441
v -0.201664 0.447730 0.018691
v -0.214057 0.447654 0.036320
v -0.202024 0.423637 0.042803
v -0.198132 0.437031 0.034298
v -0.191391 0.423702 0.027679
v -0.194546 0.439464 0.018547
v -0.207128 0.449140 0.028026
v -0.211749 0.439358 0.043018
v -0.243705 0.429307 0.036709
v -0.228704 0.417942 0.047206
v -0.210380 0.429281 0.046965
v -0.214057 0.447654 0.036320
v -0.234653 0.447670 0.029981
v -0.237185 0.423619 0.043352
v -0.227846 0.436977 0.044468
v -0.219515 0.423605 0.048790
v -0.211749 0.439358 0.043018
v -0.224619 0.449108 0.034013
v -0.240339 0.439381 0.034219
v -0.244249 0.429447 0.001846
v -0.249636 0.418044 0.019320
v -0.243705 0.429307 0.036708
v -0.234653 0.447670 0.029981
v -0.234989 0.447756 0.008434
v -0.248572 0.423747 0.010081
v -0.246701 0.437069 0.019350
v -0.248284 0.423673 0.028566
v -0.240339 0.439381 0.034219
v -0.235718 0.449162 0.019227
v -0.240806 0.439500 0.004310
v -0.214600 0.447793 0.001457
v -0.234989 0.447756 0.008434
v -0.234653 0.447670 0.029981
v -0.214057 0.447654 0.036320
v -0.201664 0.447730 0.018691
v -0.225085 0.449228 0.004103
v -0.219995 0.453594 0.019000
v -0.235718 0.449162 0.019227
v -0.224619 0.449108 0.034013
v -0.207128 0.449140 0.028026
v -0.207416 0.449214 0.009541
vn -0.0128 -0.7760 0.6306
vn 0.2461 -0.1953 0.9494
vn -0.2245 -0.2132 0.9509
vn -0.0538 0.9233 0.3804
vn -0.2019 0.4787 0.8544
vn 0.1703 0.4929 0.8532
vn -0.4243 -0.8163 0.3920
vn -0.5645 -0.2429 0.7889
vn -0.8577 -0.2916 0.4235
vn -0.4154 0.8898 0.1892
vn -0.8338 0.4053 0.3749
vn -0.6019 0.4438 0.6639
vn -0.4922 -0.8670 -0.0777
vn -0.9414 -0.3323 0.0574
vn -0.8364 -0.3751 -0.3997
vn -0.4895 0.8458 -0.2120
vn -0.8492 0.3235 -0.4173
vn -0.9323 0.3574 -0.0558
vn -0.1654 -0.8900 -0.4249
vn -0.6008 -0.3962 -0.6943
vn -0.1766 -0.4009 -0.8989
vn -0.2204 0.8245 -0.5212
vn -0.2366 0.2950 -0.9257
vn -0.5721 0.2987 -0.7639
vn 0.3100 -0.8679 -0.3881
vn 0.2009 -0.3865 -0.9001
vn 0.6248 -0.3495 -0.6982
vn 0.1893 0.8419 -0.5054
vn 0.5428 0.3412 -0.7675
vn 0.2075 0.3119 -0.9272
vn 0.5760 -0.8174 0.0050
vn 0.8599 -0.3104 -0.4051
vn 0.9643 -0.2596 0.0513
vn 0.4311 0.8849 -0.1766
vn 0.9020 0.4273 -0.0617
vn 0.8194 0.3872 -0.4227
vn 0.4323 -0.7765 0.4584
vn 0.8801 -0.2253 0.4180
vn 0.5864 -0.1990 0.7852
vn 0.3229 0.9211 0.2176
vn 0.5706 0.4885 0.6601
vn 0.8029 0.4677 0.3697
vn -0.3941 -0.2739 0.8773
vn -0.1475 -0.8707 0.4691
vn -0.4018 0.5307 0.7462
vn -0.1946 0.9526 0.2340
vn 0.2396 0.2276 0.9438
vn -0.2502 0.2089 0.9454
vn -0.8865 0.1323 0.4434
vn -0.6448 0.1725 0.7447
vn -0.9007 -0.3581 0.2459
vn -0.3741 -0.9084 0.1866
vn -0.8795 0.4514 0.1509
vn -0.3925 0.9197 -0.0126
vn -0.9096 0.0437 -0.4132
vn -0.9962 0.0789 -0.0363
vn -0.7192 -0.4320 -0.5442
vn -0.2929 -0.9415 -0.1667
vn -0.7083 0.3817 -0.5938
vn -0.3216 0.8908 -0.3210
vn -0.2512 0.0122 -0.9679
vn -0.6010 0.0160 -0.7991
vn 0.0139 -0.4401 -0.8979
vn 0.0350 -0.9451 -0.3249
vn -0.0172 0.3741 -0.9272
vn -0.0353 0.8877 -0.4591
vn 0.5929 0.0615 -0.8029
vn 0.2434 0.0310 -0.9694
vn 0.7465 -0.3761 -0.5488
vn 0.3627 -0.9165 -0.1688
vn 0.6734 0.4344 -0.5982
vn 0.2507 0.9126 -0.3229
vn 0.9871 0.1546 -0.0426
vn 0.9010 0.1127 -0.4190
vn 0.9269 -0.2884 0.2400
vn 0.4434 -0.8772 0.1840
vn 0.8435 0.5171 0.1454
vn 0.3212 0.9469 -0.0148
vn 0.6345 0.2213 0.7406
vn 0.8767 0.1996 0.4377
vn 0.4193 -0.2429 0.8747
vn 0.2164 -0.8569 0.4679
vn 0.3650 0.5600 0.7438
vn 0.1230 0.9647 0.2330
vn 0.0382 -0.9941 0.1018
vn -0.4358 0.1848 0.8809
vn 0.4260 0.2176 0.8781
vn -0.0382 0.9941 -0.1019
vn -0.9726 0.0956 0.2118
vn -0.7803 0.0172 -0.6252
vn -0.0035 0.0087 -1.0000
vn 0.7727 0.0764 -0.6302
vn 0.9638 0.1694 0.2057
vn 0.6022 -0.7962 0.0587
vn 0.9438 -0.1535 -0.2927
vn 0.9739 -0.1237 0.1903
vn 0.4065 0.9112 -0.0661
vn 0.8334 0.5442 0.0966
vn 0.8109 0.5218 -0.2649
vn 0.3743 -0.7743 0.5102
vn 0.8254 -0.1052 0.5546
vn 0.4660 -0.0940 0.8798
vn 0.2542 0.9281 0.2722
vn 0.4141 0.5712 0.7087
vn 0.6831 0.5629 0.4653
vn -0.1210 -0.7797 0.6144
vn 0.0882 -0.0961 0.9914
vn -0.3901 -0.1121 0.9139
vn -0.1055 0.9252 0.3646
vn -0.3262 0.5571 0.7637
vn 0.0318 0.5691 0.8217
vn -0.5109 -0.8083 0.2927
vn -0.7126 -0.1333 0.6888
vn -0.9496 -0.1643 0.2670
vn -0.4018 0.9047 0.1414
vn -0.8300 0.5125 0.2201
vn -0.6526 0.5357 0.5358
vn -0.5017 -0.8385 -0.2125
vn -0.9740 -0.1885 -0.1254
vn -0.7913 -0.2113 -0.5738
vn -0.4115 0.8821 -0.2292
vn -0.7179 0.4709 -0.5127
vn -0.8547 0.4879 -0.1770
vn -0.1003 -0.8477 -0.5209
vn -0.4992 -0.2204 -0.8380
vn -0.0343 -0.2177 -0.9754
vn -0.1273 0.8744 -0.4682
vn -0.0744 0.4637 -0.8829
vn -0.4224 0.4617 -0.7800
vn 0.3909 -0.8289 -0.4002
vn 0.3543 -0.2048 -0.9124
vn 0.7513 -0.1787 -0.6353
vn 0.2368 0.8874 -0.3956
vn 0.6160 0.4963 -0.6117
vn 0.3189 0.4768 -0.8191
vn 0.9079 -0.1789 0.3791
vn 0.4227 -0.8799 0.2170
vn 0.7478 0.6048 0.2741
vn 0.2932 0.9534 0.0711
vn 0.9057 0.2887 -0.3104
vn 0.9349 0.3177 0.1583
vn 0.4862 0.3371 0.8062
vn 0.7649 0.3285 0.5540
vn 0.2807 -0.1595 0.9465
vn 0.1437 -0.8712 0.4694
vn 0.2189 0.6212 0.7525
vn 0.0741 0.9602 0.2693
vn -0.3442 0.3222 0.8819
vn 0.0268 0.3345 0.9420
vn -0.5540 -0.1873 0.8112
vn -0.2276 -0.8836 0.4092
vn -0.4849 0.5977 0.6384
vn -0.2174 0.9505 0.2220
vn -0.9203 0.2723 0.2810
vn -0.7365 0.2964 0.6081
vn -0.9675 -0.2414 0.0752
vn -0.4116 -0.9077 0.0818
vn -0.8336 0.5521 0.0178
vn -0.3618 0.9316 -0.0350
vn -0.8083 0.2252 -0.5441
vn -0.9500 0.2428 -0.1963
vn -0.6486 -0.2811 -0.7073
vn -0.2697 -0.9254 -0.2664
vn -0.5647 0.5186 -0.6420
vn -0.2504 0.9177 -0.3084
vn -0.0925 0.2162 -0.9720
vn -0.4531 0.2142 -0.8654
vn 0.1627 -0.2765 -0.9471
vn 0.0912 -0.9233 -0.3731
vn 0.1194 0.5225 -0.8442
vn 0.0329 0.9193 -0.3921
vn 0.6880 0.2522 -0.6805
vn 0.3802 0.2319 -0.8954
vn 0.8554 -0.2310 -0.4636
vn 0.3994 -0.9031 -0.1580
vn 0.7035 0.5608 -0.4365
vn 0.2749 0.9352 -0.2232
vn 0.0235 -0.9979 0.0602
vn 0.8892 0.2979 0.3473
vn 0.8371 0.2463 -0.4885
vn -0.0235 0.9979 -0.0602
vn 0.2672 0.3172 0.9099
vn -0.5605 0.2897 0.7758
vn -0.9707 0.2360 0.0459
vn -0.6544 0.1966 -0.7302
vn 0.1502 0.2012 -0.9680
vn 0.6135 -0.7851 0.0852
vn 0.8994 -0.1776 -0.3995
vn 0.9103 -0.0781 0.4065
vn 0.2874 0.9566 -0.0482
vn 0.7130 0.5391 0.4484
vn 0.8177 0.4708 -0.3311
vn 0.0768 -0.8785 0.4715
vn 0.4527 -0.2489 0.8562
vn -0.3573 -0.3017 0.8839
vn -0.1161 0.8878 0.4454
vn -0.5158 0.3215 0.7941
vn 0.2660 0.3804 0.8857
vn -0.3028 -0.9502 -0.0733
vn -0.7829 -0.4732 0.4039
vn -0.8257 -0.3944 -0.4032
vn -0.6015 0.7980 0.0361
vn -0.8546 0.2523 -0.4538
vn -0.9311 0.1623 0.3267
vn 0.2339 -0.8568 -0.4596
vn -0.3362 -0.4019 -0.8518
vn 0.4419 -0.1708 -0.8807
vn -0.1980 0.8669 -0.4575
vn 0.3741 0.4699 -0.7995
vn -0.3794 0.2527 -0.8901
vn 0.6875 -0.2322 0.6881
vn 0.4213 -0.8592 0.2902
vn 0.5374 0.5174 0.6660
vn 0.0893 0.9585 0.2707
vn 0.9144 0.2082 -0.3473
vn 0.8851 0.2082 0.4163
vn -0.4193 -0.0220 0.9076
vn 0.3323 0.1128 0.9364
vn -0.6133 -0.4654 0.6382
vn -0.1174 -0.9558 0.2695
vn -0.7313 0.2899 0.6173
vn -0.4361 0.8643 0.2505
vn -0.9013 -0.1173 -0.4169
vn -0.9306 -0.1173 0.3467
vn -0.5626 -0.4654 -0.6833
vn -0.0964 -0.9558 -0.2777
vn -0.6819 0.2899 -0.6715
vn -0.4156 0.8643 -0.2832
vn 0.4030 0.1128 -0.9082
vn -0.3486 -0.0220 -0.9370
vn 0.7382 -0.2322 -0.6334
vn 0.4423 -0.8592 -0.2571
vn 0.5868 0.5174 -0.6229
vn 0.1098 0.9585 -0.2631
vn 0.1762 -0.9843 0.0068
vn 0.6618 0.1594 0.7326
vn 0.7159 0.1594 -0.6797
vn -0.1762 0.9843 -0.0068
vn -0.7284 -0.0898 0.6793
vn -0.6742 -0.0898 -0.7330
vn 0.9204 -0.3809 0.0877
vn 0.8686 0.2794 -0.4092
vn 0.8333 0.3866 0.3951
vn -0.2198 0.9734 -0.0654
vn 0.3585 0.8281 0.4310
vn 0.4794 0.8054 -0.3487
vn 0.5008 -0.7186 0.4826
vn 0.5209 0.0216 0.8534
vn -0.1586 -0.4216 0.8928
vn -0.5349 0.7246 0.4346
vn -0.6032 0.0417 0.7965
vn 0.0493 0.4786 0.8766
vn 0.2026 -0.9777 -0.0559
vn -0.4475 -0.7889 0.4211
vn -0.5275 -0.7566 -0.3864
vn -0.9157 0.4004 0.0332
vn -0.8706 -0.2084 -0.4456
vn -0.8891 -0.3097 0.3371
vn 0.6222 -0.6400 -0.4508
vn -0.0997 -0.5311 -0.8414
vn 0.4643 0.0516 -0.8841
vn -0.6006 0.6492 -0.4668
vn 0.0910 0.5779 -0.8110
vn -0.4590 0.0170 -0.8882
vn 0.7163 0.1483 0.6818
vn 0.7905 -0.5360 0.2964
vn 0.2173 0.7270 0.6513
vn -0.3916 0.8838 0.2561
vn 0.6924 0.6237 -0.3626
vn 0.6708 0.6237 0.4012
vn -0.3499 -0.2079 0.9134
vn 0.2388 0.2790 0.9301
vn -0.3024 -0.6945 0.6529
vn 0.3686 -0.8850 0.2844
vn -0.7763 -0.0949 0.6232
vn -0.8031 0.5434 0.2444
vn -0.7296 -0.5526 -0.4029
vn -0.7512 -0.5526 0.3609
vn -0.2649 -0.6945 -0.6690
vn 0.3841 -0.8850 -0.2630
vn -0.7397 -0.0949 -0.6662
vn -0.7880 0.5434 -0.2895
vn 0.2911 0.2790 -0.9151
vn -0.2976 -0.2079 -0.9318
vn 0.7538 0.1483 -0.6401
vn 0.8060 -0.5360 -0.2511
vn 0.2538 0.7270 -0.6380
vn -0.3765 0.8838 -0.2779
vn 0.6370 -0.7706 0.0181
vn 0.5018 0.4776 0.7212
vn 0.5419 0.4776 -0.6916
vn -0.6370 0.7707 -0.0181
vn -0.5869 -0.4231 0.6903
vn -0.5468 -0.4231 -0.7225
vn 0.9980 0.0440 0.0458
vn 0.6517 0.6149 -0.4440
vn 0.6080 0.7068 0.3617
vn -0.6125 0.7889 -0.0494
vn -0.0069 0.9071 0.4209
vn 0.0798 0.9282 -0.3635
vn 0.7768 -0.4344 0.4560
vn 0.4981 0.2495 0.8305
vn 0.0714 -0.4384 0.8959
vn -0.7722 0.4364 0.4619
vn -0.5308 -0.2071 0.8218
vn -0.1209 0.4652 0.8769
vn 0.5937 -0.8015 -0.0710
vn -0.0548 -0.8990 0.4346
vn -0.1745 -0.9131 -0.3686
vn -0.9969 -0.0230 0.0750
vn -0.7190 -0.5616 -0.4094
vn -0.6605 -0.6518 0.3727
vn 0.8149 -0.3231 -0.4812
vn 0.0989 -0.5336 -0.8399
vn 0.3620 0.2321 -0.9028
vn -0.8373 0.3296 -0.4363
vn -0.1951 0.5526 -0.8103
vn -0.4598 -0.1888 -0.8677
vn 0.6145 0.4448 0.6516
vn 0.9544 -0.1489 0.2587
vn -0.0830 0.7585 0.6463
vn -0.0000 1.0000 -0.0000
vn 0.3488 0.8533 -0.3876
vn 0.3609 0.8533 0.3764
vn -0.1912 -0.3252 0.9261
vn 0.1371 0.3648 0.9209
vn 0.0463 -0.7493 0.6606
vn 0.7191 -0.6434 0.2625
vn -0.6371 -0.4061 0.6551
vn -0.4443 -0.8136 -0.3751
vn -0.4322 -0.8136 0.3890
vn 0.0254 -0.7493 -0.6617
vn 0.7104 -0.6434 -0.2851
vn -0.6575 -0.4061 -0.6346
vn 0.1079 0.3648 -0.9248
vn -0.2204 -0.3252 -0.9196
vn 0.5935 0.4448 -0.6707
vn 0.9457 -0.1489 -0.2889
vn -0.1034 0.7585 -0.6434
vn 0.9029 -0.4297 -0.0143
vn 0.2829 0.6533 0.7023
vn 0.2605 0.6533 -0.7109
vn -0.3243 -0.6229 0.7119
vn -0.3467 -0.6229 -0.7013
vn 0.8811 0.4683 0.0653
vn 0.3322 0.8383 -0.4323
vn 0.2383 0.8970 0.3723
vn -0.8911 0.4494 -0.0629
vn -0.4039 0.8132 0.4190
vn -0.3202 0.8748 -0.3635
vn 0.8795 -0.0615 0.4719
vn 0.3270 0.4337 0.8396
vn 0.2363 -0.3713 0.8980
vn -0.8932 0.0590 0.4458
vn -0.4054 -0.4208 0.8116
vn -0.3253 0.3621 0.8735
vn 0.8818 -0.4681 -0.0579
vn 0.3289 -0.8382 0.4350
vn 0.2417 -0.8969 -0.3703
vn -0.8915 -0.4497 0.0554
vn -0.4001 -0.8133 -0.4224
vn -0.3230 -0.8749 0.3608
vn 0.8834 0.0617 -0.4645
vn 0.3341 -0.4336 -0.8369
vn 0.2437 0.3713 -0.8959
vn -0.8894 -0.0593 -0.4533
vn -0.3987 0.4207 -0.8149
vn -0.3179 -0.3622 -0.8762
vn 0.3515 0.6613 0.6627
vn 0.9208 0.2740 0.2777
vn -0.4129 0.6448 0.6433
vn -0.0447 0.9230 -0.3823
vn -0.0479 0.9230 0.3819
vn -0.0499 -0.3821 0.9228
vn -0.0501 0.3821 0.9228
vn 0.3517 -0.6612 0.6627
vn 0.9209 -0.2737 0.2777
vn -0.4127 -0.6450 0.6432
vn 0.9863 -0.1650 -0.0000
vn -0.0444 -0.9230 -0.3823
vn -0.0476 -0.9230 0.3819
vn 0.3572 -0.6612 -0.6597
vn 0.9232 -0.2737 -0.2700
vn -0.4073 -0.6448 -0.6467
vn -0.0423 0.3821 -0.9232
vn -0.0422 -0.3821 -0.9232
vn 0.3570 0.6613 -0.6597
vn 0.9231 0.2740 -0.2700
vn -0.4075 0.6448 -0.6467
vn 0.9998 0.0192 -0.0000
vn 1.0000 0.0001 0.0042
vn -0.0384 0.7067 0.7065
vn -0.0325 0.7067 -0.7068
vn -0.0382 -0.7067 0.7065
vn -0.0323 -0.7067 -0.7068
vn 0.2229 -0.9507 -0.2154
vn 0.2704 -0.9522 0.1424
vn -0.0551 -0.9529 0.2981
vn -0.3039 -0.9520 0.0366
vn -0.1321 -0.9506 -0.2808
vn -0.6846 -0.6642 -0.3004
vn -0.8914 -0.3711 -0.2602
vn -0.8284 -0.1511 -0.5394
vn -0.5827 -0.3082 -0.7520
vn -0.4938 -0.6253 -0.6043
vn 0.4199 -0.6247 -0.6584
vn 0.0718 -0.6620 -0.7460
vn -0.0293 -0.3680 -0.9294
vn 0.2564 -0.1489 -0.9550
vn 0.5340 -0.3075 -0.7875
vn 0.7537 -0.6279 0.1939
vn 0.7294 -0.6641 -0.1644
vn 0.8735 -0.3700 -0.3162
vn 0.9870 -0.1522 -0.0517
vn 0.9129 -0.3116 0.2635
vn 0.0463 -0.6306 0.7747
vn 0.3794 -0.6674 0.6407
vn 0.5694 -0.3744 0.7319
vn 0.3536 -0.1564 0.9222
vn 0.0304 -0.3147 0.9487
vn -0.8940 -0.3126 0.3211
vn -0.7247 -0.6290 0.2814
vn -0.4945 -0.6675 0.5567
vn -0.5214 -0.3750 0.7665
vn -0.7683 -0.1557 0.6208
vn 0.0003 0.3754 -0.9269
vn -0.2861 0.1565 -0.9453
vn -0.5583 0.3138 -0.7680
vn -0.4401 0.6299 -0.6400
vn -0.0949 0.6680 -0.7381
vn 0.8829 0.3733 -0.2849
vn 0.8112 0.1555 -0.5637
vn 0.5590 0.3143 -0.7673
vn 0.4748 0.6302 -0.6144
vn 0.6750 0.6666 -0.3162
vn 0.5451 0.3689 0.7528
vn 0.7873 0.1508 0.5978
vn 0.9036 0.3102 0.2955
vn 0.7332 0.6268 0.2637
vn 0.5117 0.6631 0.5464
vn -0.5462 0.3684 0.7523
vn -0.3247 0.1490 0.9340
vn -0.0008 0.3071 0.9517
vn -0.0221 0.6244 0.7808
vn -0.3592 0.6623 0.6576
vn -0.8829 0.3725 -0.2858
vn -0.9881 0.1525 -0.0197
vn -0.9042 0.3094 0.2944
vn -0.7472 0.6263 0.2223
vn -0.7341 0.6653 -0.1363
vn 0.1234 0.9529 -0.2771
vn -0.2294 0.9524 -0.2008
vn -0.2658 0.9510 0.1583
vn 0.0645 0.9505 0.3039
vn 0.3050 0.9517 0.0348
vn 0.3728 -0.7630 -0.5281
vn 0.0871 -0.7758 -0.6249
vn -0.8212 -0.5380 -0.1903
vn -0.4426 -0.7467 -0.4966
vn -0.2702 -0.4011 -0.8753
vn -0.2367 -0.8001 -0.5512
vn -0.9189 -0.3945 -0.0000
vn 0.7607 0.6491 -0.0000
vn 0.3860 -0.9225 -0.0000
vn -1.0000 -0.0000 -0.0000
vn 0.4385 -0.8824 0.1704
vn 0.6340 -0.7561 -0.1623
vn 0.7517 -0.3917 -0.5306
vn 0.5712 -0.6632 -0.4835
vn 0.0690 -0.8206 0.5673
vn 0.3478 -0.8132 0.4666
vn 0.7658 -0.3909 0.5106
vn 0.6342 -0.6474 0.4228
vn -0.2538 -0.3827 0.8883
vn -0.0000 -0.6449 0.7643
vn -0.9093 0.0855 -0.4072
vn -0.9859 -0.0688 -0.1527
vn -0.8890 0.0803 0.4508
vn -0.9837 -0.0734 0.1640
vn 0.1080 0.0820 -0.9908
vn -0.1538 -0.0884 -0.9841
vn -0.7168 0.0841 -0.6922
vn -0.5027 -0.0660 -0.8619
vn 0.9849 0.0763 -0.1557
vn 0.8790 -0.0983 -0.4665
vn 0.4596 0.0855 -0.8840
vn 0.6804 -0.0752 -0.7290
vn 0.4947 0.0773 0.8656
vn 0.6221 -0.0907 0.7776
vn 0.9680 0.1153 0.2230
vn 0.9143 -0.0643 0.4000
vn -0.7049 0.0783 0.7049
vn -0.4455 -0.0866 0.8911
vn 0.1392 0.0691 0.9879
vn -0.1164 -0.0873 0.9894
vn -0.6701 0.6240 -0.4020
vn -0.7721 0.3728 -0.5147
vn -0.0000 0.6894 -0.7243
vn 0.0926 0.3667 -0.9257
vn 0.6795 0.6057 -0.4140
vn 0.9214 0.3886 -0.0000
vn 0.2976 0.6369 0.7111
vn 0.3224 0.3963 0.8597
vn -0.6288 0.6550 0.4192
vn -0.7692 0.3814 0.5128
vn -0.0000 0.9979 -0.0644
vn -0.3006 0.8266 -0.4759
vn -0.6344 0.7547 0.1671
vn -0.5583 0.8193 -0.1306
vn 0.7283 0.5651 -0.3876
vn -0.3514 0.9341 -0.0633
vn -0.6373 0.7624 0.1121
vn -0.3339 0.8152 0.4733
vn -0.1010 0.8079 0.5807
vn 0.4685 -0.7491 -0.4685
vn -0.2130 -0.7390 -0.6391
vn 0.6015 -0.7049 0.3759
vn -0.4258 -0.7984 0.4258
vn -0.9884 -0.1519 -0.0000
vn -0.8302 0.1608 -0.5337
vn -0.2713 -0.1569 -0.9496
vn 0.2061 0.1803 -0.9618
vn 0.7566 -0.2104 -0.6191
vn 0.9888 0.1493 -0.0000
vn 0.7786 -0.1872 0.5989
vn 0.3317 0.1658 0.9287
vn -0.2708 -0.1692 0.9477
vn -0.7776 0.1620 0.6075
vn -0.3824 0.8784 -0.2868
vn 0.3845 0.7209 0.5767
vn -0.5225 0.7783 0.3483
vn 0.0759 -0.7726 0.6303
vn 0.3201 -0.1221 0.9395
vn -0.3038 -0.1458 0.9415
vn -0.0143 0.9248 0.3802
vn -0.2933 0.4050 0.8660
vn 0.2671 0.4263 0.8642
vn -0.3690 -0.8071 0.4609
vn -0.5176 -0.1645 0.8397
vn -0.9062 -0.2291 0.3553
vn -0.3907 0.8939 0.2198
vn -0.8929 0.3251 0.3116
vn -0.5438 0.3831 0.7467
vn -0.5120 -0.8589 0.0085
vn -0.9589 -0.2547 0.1251
vn -0.8196 -0.3114 -0.4809
vn -0.4983 0.8494 -0.1737
vn -0.8294 0.2441 -0.5024
vn -0.9545 0.2951 0.0419
vn -0.2454 -0.8891 -0.3863
vn -0.6715 -0.3247 -0.6661
vn -0.1092 -0.3309 -0.9373
vn -0.2560 0.8249 -0.5040
vn -0.1508 0.2230 -0.9631
vn -0.6559 0.2286 -0.7194
vn 0.2300 -0.8749 -0.4261
vn 0.1281 -0.3218 -0.9381
vn 0.6900 -0.2728 -0.6704
vn 0.1537 0.8388 -0.5224
vn 0.6320 0.2777 -0.7235
vn 0.1273 0.2336 -0.9640
vn 0.5563 -0.8270 -0.0810
vn 0.8379 -0.2482 -0.4861
vn 0.9763 -0.1809 0.1189
vn 0.4223 0.8806 -0.2150
vn 0.9295 0.3670 0.0359
vn 0.8052 0.3065 -0.5076
vn 0.4877 -0.7815 0.3891
vn 0.9233 -0.1593 0.3495
vn 0.5340 -0.1244 0.8363
vn 0.3476 0.9189 0.1867
vn 0.5177 0.4236 0.7433
vn 0.8675 0.3922 0.3060
vn -0.0000 -0.6000 -0.8000
vn -0.1946 0.9525 0.2340
vn 0.1888 0.2262 0.9556
vn -0.1994 0.2114 0.9569
vn -0.9091 0.1273 0.3966
vn -0.6040 0.1780 0.7768
vn -0.0000 -1.0000 -0.0000
vn -0.8869 0.0404 -0.4601
vn -0.9963 0.0849 0.0156
vn -0.2003 0.0136 -0.9796
vn -0.6418 0.0184 -0.7667
vn -0.0000 -0.0000 1.0000
vn 0.6336 0.0671 -0.7707
vn 0.1925 0.0286 -0.9809
vn 0.2508 0.9126 -0.3229
vn 0.9870 0.1606 0.0093
vn 0.8783 0.1077 -0.4658
vn 0.5936 0.2237 0.7730
vn 0.8993 0.1963 0.3908
vn -0.0000 -0.6518 -0.7584
vn 0.7734 -0.1370 -0.6190
vn -0.7810 -0.0402 -0.6232
vn -0.0382 0.9941 -0.1018
vn 1.0000 -0.0000 -0.0000
vn 0.9857 -0.1687 -0.0000
vn -0.0000 0.0082 1.0000
vn -0.0000 -0.0121 0.9999
vn -0.9863 -0.1649 -0.0000
vn 0.5964 -0.8020 -0.0346
vn 0.9247 -0.0826 -0.3716
vn 0.9642 -0.0434 0.2617
vn 0.4046 0.9093 -0.0969
vn 0.8519 0.4912 0.1820
vn 0.8190 0.4586 -0.3448
vn 0.4437 -0.7765 0.4474
vn 0.8711 -0.0318 0.4901
vn 0.3997 -0.0172 0.9165
vn 0.2771 0.9274 0.2515
vn 0.3620 0.5155 0.7767
vn 0.7540 0.5033 0.4221
vn -0.0287 -0.7766 0.6293
vn 0.1630 -0.0185 0.9865
vn -0.4643 -0.0394 0.8848
vn -0.0751 0.9262 0.3695
vn -0.4086 0.4967 0.7657
vn 0.1131 0.5141 0.8502
vn -0.4651 -0.8023 0.3742
vn -0.6664 -0.0527 0.7437
vn -0.9772 -0.0934 0.1906
vn -0.3867 0.9067 0.1683
vn -0.8796 0.4489 0.1573
vn -0.6211 0.4828 0.6174
vn -0.5370 -0.8341 -0.1259
vn -0.9925 -0.1086 -0.0553
vn -0.7528 -0.1384 -0.6435
vn -0.4231 0.8836 -0.2006
vn -0.6964 0.4081 -0.5903
vn -0.8957 0.4329 -0.1012
vn -0.1901 -0.8482 -0.4944
vn -0.5698 -0.1441 -0.8090
vn 0.0399 -0.1407 -0.9893
vn -0.1569 0.8742 -0.4594
vn 0.0031 0.4050 -0.9143
vn -0.5039 0.4021 -0.7644
vn 0.3143 -0.8339 -0.4537
vn 0.2834 -0.1326 -0.9498
vn 0.8040 -0.0984 -0.5864
vn 0.2115 0.8857 -0.4133
vn 0.6922 0.4420 -0.5706
vn 0.2592 0.4136 -0.8728
vn 0.9222 0.2828 -0.2637
vn 0.9456 0.3060 0.1109
vn 0.4419 0.3465 0.8274
vn 0.7908 0.3357 0.5119
vn -0.3889 0.3290 0.8606
vn 0.0753 0.3444 0.9358
vn -0.9319 0.2783 0.2327
vn -0.7019 0.3084 0.6421
vn -0.7782 0.2327 -0.5833
vn -0.9556 0.2548 -0.1481
vn -0.0436 0.2264 -0.9731
vn -0.4948 0.2239 -0.8397
vn 0.7188 0.2643 -0.6430
vn 0.3335 0.2390 -0.9119
vn 0.6182 -0.7851 -0.0379
vn 0.9388 -0.0781 -0.3356
vn 0.8661 -0.1776 0.4672
vn 0.2828 0.9566 0.0700
vn 0.7900 0.4708 0.3927
vn 0.7452 0.5391 -0.3924
vn 0.1980 -0.8568 0.4761
vn 0.3731 -0.1708 0.9119
vn -0.4004 -0.4019 0.8235
vn -0.2325 0.8669 0.4410
vn -0.4464 0.2527 0.8584
vn 0.3118 0.4699 0.8258
vn -0.3076 -0.9502 0.0499
vn -0.8542 -0.3944 0.3388
vn -0.7496 -0.4732 -0.4627
vn -0.5970 0.7980 -0.0821
vn -0.9033 0.1623 -0.3971
vn -0.8869 0.2523 0.3870
vn 0.1127 -0.8785 -0.4642
vn -0.2885 -0.3017 -0.9087
vn 0.5169 -0.2489 -0.8191
vn -0.0817 0.8878 -0.4530
vn 0.3331 0.3804 -0.8627
vn -0.4535 0.3215 -0.8312
vn 0.9239 -0.3809 -0.0354
vn 0.8544 0.3866 -0.3472
vn 0.8440 0.2794 0.4578
vn -0.2231 0.9734 0.0528
vn 0.4588 0.8054 0.3753
vn 0.3823 0.8281 -0.4100
vn 0.5957 -0.6400 0.4853
vn 0.4135 0.0516 0.9090
vn -0.1472 -0.5311 0.8344
vn -0.6261 0.6492 0.4320
vn -0.5086 0.0170 0.8608
vn 0.0449 0.5779 0.8149
vn 0.1991 -0.9777 0.0673
vn -0.5486 -0.7566 0.3559
vn -0.4229 -0.7889 -0.4458
vn -0.9124 0.4004 -0.0850
vn -0.8685 -0.3097 -0.3869
vn -0.8945 -0.2084 0.3955
vn 0.5273 -0.7186 -0.4534
vn -0.1077 -0.4216 -0.9004
vn 0.5684 0.0216 -0.8225
vn -0.5095 0.7246 -0.4642
vn 0.0989 0.4786 -0.8724
vn -0.5571 0.0417 -0.8294
vn -0.3917 0.8838 0.2561
vn -0.7398 -0.0949 -0.6661
vn 0.9960 0.0440 -0.0774
vn 0.5962 0.7068 -0.3808
vn 0.6655 0.6149 0.4231
vn -0.6106 0.7889 0.0688
vn 0.0913 0.9282 0.3608
vn -0.0202 0.9071 -0.4204
vn 0.8297 -0.3231 0.4551
vn 0.3904 0.2321 0.8909
vn 0.1254 -0.5336 0.8364
vn -0.8230 0.3296 0.4627
vn -0.4321 -0.1888 0.8818
vn -0.1693 0.5526 0.8160
vn 0.5957 -0.8015 0.0522
vn -0.1628 -0.9131 0.3739
vn -0.0686 -0.8990 -0.4326
vn -0.9988 -0.0230 -0.0433
vn -0.6720 -0.6518 -0.3516
vn -0.7057 -0.5616 0.4319
vn 0.7619 -0.4344 -0.4804
vn 0.0430 -0.4384 -0.8977
vn 0.4715 0.2495 -0.8458
vn -0.7864 0.4364 -0.4371
vn -0.1486 0.4652 -0.8726
vn -0.5566 -0.2071 -0.8045
vn -0.0829 0.7585 0.6463
vn -0.7170 0.6390 0.2784
vn 0.3488 0.8533 -0.3877
vn -0.6371 -0.4062 0.6551
vn -0.9465 0.1567 0.2820
vn -0.6576 -0.4061 -0.6346
vn -0.9549 0.1567 -0.2521
vn 0.1078 0.3648 -0.9248
vn -0.2205 -0.3252 -0.9196
vn -0.7255 0.6390 -0.2556
vn -0.3467 -0.6229 -0.7012
vn 0.8816 0.4683 -0.0579
vn 0.2414 0.8970 -0.3703
vn 0.3286 0.8383 0.4350
vn -0.8916 0.4494 0.0554
vn -0.3232 0.8748 0.3608
vn -0.4004 0.8132 -0.4224
vn 0.8795 0.0617 0.4719
vn 0.2362 0.3713 0.8979
vn 0.3271 -0.4336 0.8396
vn -0.8932 -0.0593 0.4458
vn -0.3252 -0.3622 0.8735
vn -0.4055 0.4206 0.8116
vn 0.8813 -0.4681 0.0653
vn 0.2386 -0.8969 0.3723
vn 0.3325 -0.8382 -0.4323
vn -0.8910 -0.4497 -0.0629
vn -0.3200 -0.8749 -0.3635
vn -0.4037 -0.8133 0.4190
vn 0.8834 -0.0615 -0.4645
vn 0.2438 -0.3713 -0.8959
vn 0.3340 0.4337 -0.8369
vn -0.8894 0.0590 -0.4533
vn -0.3180 0.3621 -0.8762
vn -0.3986 -0.4208 -0.8149
vn -0.4129 0.6449 0.6431
vn -0.9270 0.2670 0.2634
vn -0.4127 -0.6450 0.6431
vn -0.9270 -0.2672 0.2634
vn -0.4073 -0.6450 -0.6466
vn -0.9248 -0.2672 -0.2709
vn -0.4074 0.6449 -0.6466
vn -0.9248 0.2669 -0.2710
vn 1.0000 0.0002 0.0042
vn -0.0325 0.7066 -0.7068
vn 0.2658 -0.9510 -0.1583
vn 0.2294 -0.9524 0.2008
vn -0.1234 -0.9529 0.2771
vn -0.3050 -0.9517 -0.0348
vn -0.0645 -0.9505 -0.3039
vn -0.7332 -0.6268 -0.2637
vn -0.9036 -0.3102 -0.2955
vn -0.7873 -0.1508 -0.5978
vn -0.5451 -0.3689 -0.7528
vn -0.5117 -0.6631 -0.5464
vn 0.3592 -0.6623 -0.6576
vn 0.0221 -0.6244 -0.7808
vn 0.0008 -0.3071 -0.9517
vn 0.3247 -0.1490 -0.9340
vn 0.5462 -0.3684 -0.7523
vn 0.7341 -0.6653 0.1363
vn 0.7472 -0.6263 -0.2223
vn 0.9042 -0.3093 -0.2944
vn 0.9881 -0.1525 0.0197
vn 0.8829 -0.3725 0.2858
vn 0.0949 -0.6680 0.7381
vn 0.4401 -0.6299 0.6400
vn 0.5583 -0.3138 0.7680
vn 0.2861 -0.1565 0.9453
vn -0.0003 -0.3754 0.9269
vn -0.8829 -0.3733 0.2849
vn -0.6750 -0.6666 0.3162
vn -0.4748 -0.6302 0.6144
vn -0.5590 -0.3143 0.7673
vn -0.8112 -0.1555 0.5637
vn -0.0304 0.3147 -0.9487
vn -0.3536 0.1564 -0.9222
vn -0.5694 0.3744 -0.7319
vn -0.3794 0.6674 -0.6407
vn -0.0463 0.6306 -0.7747
vn 0.8940 0.3126 -0.3211
vn 0.7683 0.1557 -0.6208
vn 0.5214 0.3750 -0.7665
vn 0.4945 0.6675 -0.5567
vn 0.7247 0.6290 -0.2814
vn 0.5827 0.3082 0.7520
vn 0.8284 0.1511 0.5394
vn 0.8914 0.3711 0.2602
vn 0.6846 0.6642 0.3004
vn 0.4938 0.6253 0.6043
vn -0.5340 0.3075 0.7875
vn -0.2564 0.1489 0.9550
vn 0.0293 0.3680 0.9294
vn -0.0718 0.6620 0.7460
vn -0.4199 0.6247 0.6584
vn -0.9129 0.3116 -0.2635
vn -0.9870 0.1522 0.0517
vn -0.8735 0.3700 0.3162
vn -0.7294 0.6641 0.1644
vn -0.7537 0.6279 -0.1939
vn 0.0551 0.9529 -0.2982
vn -0.2704 0.9522 -0.1424
vn -0.2229 0.9507 0.2154
vn 0.1321 0.9506 0.2808
vn 0.3039 0.9520 -0.0366
vn 0.3058 -0.8205 -0.4829
vn -0.0000 -0.8281 -0.5606
vn -0.6901 -0.6362 -0.3450
vn -0.2862 -0.4254 -0.8586
vn -0.1936 -0.6021 -0.7746
vn -0.9264 -0.3766 -0.0000
vn -0.7618 -0.6478 -0.0000
vn -0.6930 -0.6064 0.3898
vn 0.7526 -0.6585 -0.0000
vn 0.5382 -0.8346 0.1177
vn 0.2871 -0.9409 -0.1794
vn 0.7007 -0.3639 -0.6137
vn 0.5191 -0.6359 -0.5710
vn -0.0000 -0.9285 0.3714
vn 0.2102 -0.8407 0.4991
vn 0.7510 -0.3905 0.5324
vn 0.5407 -0.6665 0.5133
vn -0.3232 -0.4215 0.8473
vn -0.6839 -0.5319 0.4994
vn -0.8924 0.0676 -0.4462
vn -0.9723 -0.1063 -0.2083
vn -0.8740 0.0710 0.4807
vn -0.9869 -0.0580 0.1507
vn 0.1236 0.0850 -0.9887
vn -0.1631 -0.0685 -0.9842
vn -0.7267 0.0876 -0.6813
vn -0.4664 -0.0810 -0.8809
vn 0.9345 0.0621 -0.3504
vn 0.8907 -0.0915 -0.4453
vn 0.4940 0.0926 -0.8645
vn 0.6399 -0.0956 -0.7625
vn 0.5004 0.0743 0.8626
vn 0.7015 -0.0883 0.7072
vn 0.9949 0.0583 0.0829
vn 0.8847 -0.0795 0.4594
vn -0.6716 0.0814 0.7364
vn -0.4350 -0.0767 0.8972
vn 0.1640 0.0656 0.9843
vn -0.1277 -0.0820 0.9884
vn -0.6137 0.6602 -0.4331
vn -0.7169 0.3826 -0.5828
vn 0.0895 0.6279 -0.7731
vn 0.2667 0.3795 -0.8859
vn 0.9069 0.3769 -0.1884
vn 0.4300 0.6316 0.6451
vn 0.3057 0.3746 0.8753
vn -0.5871 0.6312 0.5068
vn -0.7750 0.3913 0.4962
vn 0.0075 0.8227 -0.5684
vn -0.3103 0.8980 -0.3120
vn -0.7081 0.6906 0.1475
vn -0.5341 0.8288 -0.1669
vn 0.5770 0.4958 -0.6491
vn 0.4444 0.7778 0.4444
vn -0.3314 0.8119 0.4805
vn 0.1011 0.8244 0.5569
vt 0.750000 0.439209
vt 0.741591 0.485950
vt 0.786546 0.472400
vt 0.000000 0.520567
vt 0.027824 0.500000
vt 0.032574 0.520065
vt 0.972176 0.500000
vt 1.000000 0.520567
vt 0.967426 0.520065
vt 0.250000 0.368102
vt 0.264387 0.483072
vt 0.179264 0.455935
vt 1.000000 0.981002
vt 0.946146 1.000000
vt 0.928571 0.979935
vt 0.053854 1.000000
vt 0.000000 0.981002
vt 0.071429 0.979935
vt 0.897929 0.367970
vt 0.929230 0.403687
vt 0.946666 0.360091
vt 0.857143 0.520568
vt 0.884967 0.500000
vt 0.889717 0.520065
vt 0.829319 0.500000
vt 0.824569 0.520065
vt 0.342336 0.323635
vt 0.441193 0.384070
vt 0.366904 0.433702
vt 0.857143 0.981002
vt 0.803289 1.000000
vt 0.785714 0.979935
vt 0.910997 1.000000
vt 0.928571 0.979935
vt 0.934465 0.207897
vt 0.981906 0.205694
vt 0.958692 0.164881
vt 0.714286 0.520568
vt 0.742110 0.500000
vt 0.746860 0.520065
vt 0.686462 0.500000
vt 0.681712 0.520065
vt 0.365140 0.223720
vt 0.474027 0.184111
vt 0.466512 0.273138
vt 0.714286 0.981003
vt 0.660432 1.000000
vt 0.642857 0.979935
vt 0.768140 1.000000
vt 0.785714 0.979935
vt 0.832095 0.079529
vt 0.859951 0.041065
vt 0.813569 0.033767
vt 0.571429 0.520568
vt 0.599253 0.500000
vt 0.604003 0.520065
vt 0.543605 0.500000
vt 0.538854 0.520065
vt 0.301242 0.143594
vt 0.338164 0.033767
vt 0.403083 0.095150
vt 0.571429 0.981002
vt 0.517575 1.000000
vt 0.500000 0.979935
vt 0.625283 1.000000
vt 0.642857 0.979935
vt 0.667905 0.079529
vt 0.655201 0.033767
vt 0.620577 0.065481
vt 0.428571 0.520568
vt 0.456395 0.500000
vt 0.461146 0.520065
vt 0.400748 0.500000
vt 0.395997 0.520065
vt 0.198758 0.143594
vt 0.135912 0.046252
vt 0.224379 0.033767
vt 0.428571 0.981002
vt 0.374718 1.000000
vt 0.357143 0.979935
vt 0.482425 1.000000
vt 0.565535 0.207897
vt 0.521837 0.189298
vt 0.525043 0.236141
vt 0.285714 0.520568
vt 0.313538 0.500000
vt 0.318288 0.520065
vt 0.257890 0.500000
vt 0.253140 0.520065
vt 0.134859 0.223720
vt 0.019571 0.212163
vt 0.064968 0.135213
vt 0.285714 0.981002
vt 0.231860 1.000000
vt 0.214286 0.979935
vt 0.339568 1.000000
vt 0.357143 0.979935
vt 0.602070 0.367970
vt 0.560284 0.390538
vt 0.598907 0.417237
vt 0.142857 0.520567
vt 0.170681 0.500000
vt 0.175431 0.520065
vt 0.115033 0.500000
vt 0.110283 0.520065
vt 0.157664 0.323635
vt 0.076747 0.406566
vt 0.044890 0.323095
vt 0.142857 0.981002
vt 0.089003 1.000000
vt 0.071429 0.979935
vt 0.196711 1.000000
vt 0.214286 0.979935
vt 0.320736 0.455935
vt 0.974957 0.236141
vt 0.455110 0.323095
vt 0.686431 0.033767
vt 0.275621 0.033767
vt 0.541308 0.164881
vt 0.096917 0.095150
vt 0.033488 0.273137
vt 0.750000 0.449464
vt 0.742302 0.486293
vt 0.779967 0.475569
vt 0.000000 0.595461
vt 0.022815 0.500000
vt 0.026764 0.590235
vt 0.977185 0.500000
vt 1.000000 0.595461
vt 0.973236 0.590235
vt 0.250000 0.436724
vt 0.255030 0.487578
vt 0.220461 0.475775
vt 1.000000 0.920785
vt 0.977511 1.000000
vt 0.969191 0.909765
vt 0.022489 1.000000
vt 0.000000 0.920785
vt 0.030809 0.909765
vt 0.905947 0.374364
vt 0.929942 0.403345
vt 0.945041 0.367211
vt 0.857143 0.595461
vt 0.879957 0.500000
vt 0.883907 0.590235
vt 0.834328 0.500000
vt 0.830379 0.590235
vt 0.395987 0.366420
vt 0.438882 0.394195
vt 0.408101 0.413863
vt 0.857143 0.920785
vt 0.834654 1.000000
vt 0.826334 0.909765
vt 0.879632 1.000000
vt 0.887952 0.909765
vt 0.944463 0.205615
vt 0.982081 0.204925
vt 0.963245 0.170591
vt 0.714286 0.595461
vt 0.737100 0.500000
vt 0.741050 0.590235
vt 0.691471 0.500000
vt 0.687522 0.590235
vt 0.432043 0.208450
vt 0.480502 0.192230
vt 0.476687 0.228559
vt 0.714286 0.920785
vt 0.691797 1.000000
vt 0.683477 0.909765
vt 0.736775 1.000000
vt 0.745094 0.909765
vt 0.836544 0.070289
vt 0.859459 0.040447
vt 0.820872 0.033767
vt 0.571429 0.595461
vt 0.594243 0.500000
vt 0.598193 0.590235
vt 0.548614 0.500000
vt 0.544665 0.590235
vt 0.331016 0.081767
vt 0.348549 0.033768
vt 0.374574 0.059400
vt 0.571429 0.920785
vt 0.548940 1.000000
vt 0.540620 0.909765
vt 0.593918 1.000000
vt 0.602237 0.909765
vt 0.663456 0.070289
vt 0.654412 0.033767
vt 0.625130 0.059772
vt 0.428571 0.595461
vt 0.451386 0.500000
vt 0.455335 0.590235
vt 0.405757 0.500000
vt 0.401807 0.590235
vt 0.168984 0.081768
vt 0.142387 0.038132
vt 0.178654 0.033768
vt 0.428571 0.920785
vt 0.406082 1.000000
vt 0.397763 0.909765
vt 0.451061 1.000000
vt 0.459380 0.909765
vt 0.555537 0.205615
vt 0.521344 0.189915
vt 0.523418 0.229021
vt 0.285714 0.595461
vt 0.308529 0.500000
vt 0.312478 0.590235
vt 0.262900 0.500000
vt 0.258950 0.590235
vt 0.067958 0.208450
vt 0.017260 0.202038
vt 0.036459 0.170962
vt 0.285714 0.920785
vt 0.263225 1.000000
vt 0.254906 0.909765
vt 0.308203 1.000000
vt 0.316523 0.909765
vt 0.594053 0.374364
vt 0.560459 0.391308
vt 0.592327 0.414069
vt 0.142857 0.595461
vt 0.165672 0.500000
vt 0.169621 0.590235
vt 0.120042 0.500000
vt 0.116093 0.590235
vt 0.104013 0.366421
vt 0.067390 0.402060
vt 0.055065 0.367674
vt 0.142857 0.920785
vt 0.120368 1.000000
vt 0.112049 0.909765
vt 0.165346 1.000000
vt 0.173666 0.909765
vt 0.907673 0.414069
vt 0.279539 0.475775
vt 0.976582 0.229021
vt 0.444935 0.367674
vt 0.874870 0.059772
vt 0.679128 0.033767
vt 0.321346 0.033768
vt 0.536755 0.170591
vt 0.125426 0.059400
vt 0.023313 0.228559
vt 0.720034 0.475569
vt 0.750000 0.331608
vt 0.715335 0.455335
vt 0.830040 0.409960
vt 0.084764 0.582301
vt 0.000000 0.537241
vt 0.083375 0.500000
vt 0.915236 0.582301
vt 0.963890 0.500000
vt 1.000000 0.584005
vt 0.250000 0.305466
vt 0.287631 0.452369
vt 0.158659 0.398659
vt 0.906592 0.917699
vt 1.000000 0.967671
vt 0.904853 1.000000
vt 0.093408 0.917698
vt 0.039199 1.000000
vt 0.000000 0.919402
vt 0.831608 0.250000
vt 0.955335 0.284665
vt 0.909960 0.169960
vt 0.834764 0.582301
vt 0.731945 0.518620
vt 0.833375 0.500000
vt 0.665236 0.582301
vt 0.750000 0.584005
vt 0.305466 0.250000
vt 0.452369 0.212369
vt 0.398659 0.341341
vt 0.656592 0.917698
vt 0.769599 0.983836
vt 0.654853 1.000000
vt 0.843408 0.917698
vt 0.750000 0.919402
vt 0.750000 0.168392
vt 0.784665 0.044665
vt 0.669960 0.090040
vt 0.584764 0.582301
vt 0.481945 0.518620
vt 0.583375 0.500000
vt 0.415236 0.582301
vt 0.500000 0.584005
vt 0.250000 0.194534
vt 0.212369 0.047631
vt 0.341341 0.101341
vt 0.406592 0.917699
vt 0.519599 0.983836
vt 0.404853 1.000000
vt 0.593408 0.917698
vt 0.500000 0.919402
vt 0.668392 0.250000
vt 0.544665 0.215335
vt 0.590040 0.330040
vt 0.334764 0.582301
vt 0.231945 0.518620
vt 0.333375 0.500000
vt 0.165236 0.582301
vt 0.250000 0.584005
vt 0.194534 0.250000
vt 0.047631 0.287631
vt 0.101341 0.158659
vt 0.156592 0.917698
vt 0.269599 0.983836
vt 0.154853 1.000000
vt 0.343408 0.917698
vt 0.250000 0.919402
vt 0.916625 0.500000
vt 0.845147 1.000000
vt 0.341341 0.398659
vt 0.000000 0.584005
vt 1.000000 0.919402
vt 0.666625 0.500000
vt 0.830040 0.090040
vt 0.595147 1.000000
vt 0.398659 0.158659
vt 0.416625 0.500000
vt 0.345147 1.000000
vt 0.166625 0.500000
vt 0.669960 0.409960
vt 0.095147 1.000000
vt 0.101341 0.341341
vt 0.750000 0.305466
vt 0.709613 0.449613
vt 0.843251 0.396749
vt 0.099034 0.582302
vt 0.097136 0.500000
vt 0.900966 0.582301
vt 0.957930 0.500000
vt 0.250000 0.268988
vt 0.295070 0.444930
vt 0.140603 0.380603
vt 0.888550 0.917699
vt 0.886045 1.000000
vt 0.111450 0.917699
vt 0.046948 1.000000
vt 0.805466 0.250000
vt 0.949613 0.290387
vt 0.896749 0.156749
vt 0.849034 0.582302
vt 0.728965 0.518620
vt 0.847136 0.500000
vt 0.650967 0.582302
vt 0.268988 0.250000
vt 0.444930 0.204930
vt 0.380603 0.359397
vt 0.638550 0.917698
vt 0.773474 0.983836
vt 0.636045 1.000000
vt 0.861450 0.917698
vt 0.750000 0.194534
vt 0.790387 0.050387
vt 0.656749 0.103251
vt 0.599033 0.582301
vt 0.478965 0.518620
vt 0.597136 0.500000
vt 0.400966 0.582301
vt 0.500000 0.584005
vt 0.250000 0.231012
vt 0.204930 0.055070
vt 0.359397 0.119397
vt 0.388550 0.917699
vt 0.523474 0.983836
vt 0.386045 1.000000
vt 0.611450 0.917699
vt 0.694534 0.250000
vt 0.550387 0.209613
vt 0.603251 0.343251
vt 0.349034 0.582301
vt 0.228965 0.518620
vt 0.347136 0.500000
vt 0.150966 0.582301
vt 0.250000 0.584005
vt 0.231012 0.250000
vt 0.055070 0.295070
vt 0.119397 0.140603
vt 0.138550 0.917698
vt 0.273474 0.983836
vt 0.136045 1.000000
vt 0.361450 0.917698
vt 0.902864 0.500000
vt 0.863955 1.000000
vt 0.000000 0.584005
vt 0.652864 0.500000
vt 0.843251 0.103251
vt 0.613955 1.000000
vt 0.380603 0.140603
vt 0.402864 0.500000
vt 0.603251 0.156749
vt 0.363955 1.000000
vt 0.140603 0.119397
vt 0.152864 0.500000
vt 0.113955 1.000000
vt 0.119397 0.359397
vt 0.750000 0.297442
vt 0.707857 0.447857
vt 0.847305 0.392695
vt 0.103441 0.571706
vt 0.000000 0.532446
vt 0.101360 0.500000
vt 0.896559 0.571706
vt 0.956101 0.500000
vt 1.000000 0.573190
vt 0.250000 0.250000
vt 0.298942 0.441058
vt 0.131204 0.371204
vt 0.879225 0.928294
vt 1.000000 0.971833
vt 0.876255 1.000000
vt 0.120775 0.928294
vt 0.050981 1.000000
vt 0.000000 0.929778
vt 0.797442 0.250000
vt 0.947857 0.292143
vt 0.892694 0.152695
vt 0.853441 0.571706
vt 0.728051 0.516223
vt 0.851360 0.500000
vt 0.646559 0.571706
vt 0.750000 0.573190
vt 0.441058 0.201058
vt 0.371204 0.368796
vt 0.629225 0.928294
vt 0.775491 0.985917
vt 0.626255 1.000000
vt 0.870775 0.928294
vt 0.750000 0.929778
vt 0.750000 0.202558
vt 0.792143 0.052143
vt 0.652694 0.107305
vt 0.603441 0.571706
vt 0.478051 0.516223
vt 0.601360 0.500000
vt 0.396559 0.571706
vt 0.500000 0.573190
vt 0.201058 0.058942
vt 0.368796 0.128796
vt 0.379225 0.928294
vt 0.525491 0.985917
vt 0.376255 1.000000
vt 0.620775 0.928294
vt 0.500000 0.929778
vt 0.702558 0.250000
vt 0.552143 0.207857
vt 0.607305 0.347305
vt 0.353441 0.571706
vt 0.228051 0.516223
vt 0.351360 0.500000
vt 0.146559 0.571706
vt 0.250000 0.573190
vt 0.058942 0.298942
vt 0.128796 0.131204
vt 0.129225 0.928294
vt 0.275491 0.985917
vt 0.126255 1.000000
vt 0.370775 0.928294
vt 0.250000 0.929778
vt 0.898640 0.500000
vt 0.873745 1.000000
vt 0.000000 0.573190
vt 1.000000 0.929778
vt 0.648640 0.500000
vt 0.623745 1.000000
vt 0.398640 0.500000
vt 0.607305 0.152695
vt 0.373745 1.000000
vt 0.148640 0.500000
vt 0.652695 0.392695
vt 0.123745 1.000000
vt 0.750000 0.309130
vt 0.710415 0.450415
vt 0.841399 0.398601
vt 0.097063 0.554039
vt 0.000000 0.524452
vt 0.095207 0.500000
vt 0.902937 0.554039
vt 0.958766 0.500000
vt 1.000000 0.555157
vt 0.250000 0.250000
vt 0.298942 0.441058
vt 0.131204 0.371204
vt 0.879228 0.945961
vt 1.000000 0.978773
vt 0.876255 1.000000
vt 0.120772 0.945961
vt 0.050981 1.000000
vt 0.000000 0.947079
vt 0.809130 0.250000
vt 0.950415 0.289585
vt 0.898601 0.158601
vt 0.847063 0.554039
vt 0.729383 0.512226
vt 0.845207 0.500000
vt 0.652938 0.554039
vt 0.750000 0.555157
vt 0.250000 0.250000
vt 0.441058 0.201058
vt 0.371204 0.368796
vt 0.629228 0.945961
vt 0.775491 0.989386
vt 0.626255 1.000000
vt 0.870772 0.945961
vt 0.750000 0.947079
vt 0.750000 0.190870
vt 0.789585 0.049585
vt 0.658601 0.101399
vt 0.597063 0.554039
vt 0.479383 0.512226
vt 0.595207 0.500000
vt 0.402938 0.554039
vt 0.500000 0.555157
vt 0.250000 0.250000
vt 0.201058 0.058942
vt 0.368796 0.128796
vt 0.379228 0.945961
vt 0.525491 0.989386
vt 0.620772 0.945961
vt 0.500000 0.947079
vt 0.690870 0.250000
vt 0.549585 0.210415
vt 0.601399 0.341399
vt 0.347062 0.554039
vt 0.229383 0.512226
vt 0.345207 0.500000
vt 0.152937 0.554039
vt 0.250000 0.555157
vt 0.250000 0.250000
vt 0.058942 0.298942
vt 0.128796 0.131204
vt 0.129228 0.945961
vt 0.275491 0.989386
vt 0.126255 1.000000
vt 0.370772 0.945961
vt 0.250000 0.947079
vt 0.904793 0.500000
vt 0.898601 0.341399
vt 0.873745 1.000000
vt 0.000000 0.555157
vt 1.000000 0.947079
vt 0.654793 0.500000
vt 0.841399 0.101399
vt 0.404793 0.500000
vt 0.154793 0.500000
vt 0.123745 1.000000
vt 0.909091 0.104973
vt 0.899366 0.016844
vt 0.954545 0.078730
vt 0.727273 0.104973
vt 0.717548 0.016845
vt 0.772727 0.078729
vt 0.545455 0.104974
vt 0.535730 0.016845
vt 0.590909 0.078730
vt 0.363637 0.104974
vt 0.353912 0.016845
vt 0.409092 0.078731
vt 0.181819 0.104974
vt 0.172094 0.016845
vt 0.227274 0.078731
vt 0.363637 0.104974
vt 0.270783 0.160830
vt 0.272728 0.078731
vt 0.363636 0.209947
vt 0.363637 0.157461
vt 0.272728 0.262433
vt 0.318182 0.236190
vt 0.181819 0.209947
vt 0.227274 0.236190
vt 0.181819 0.104974
vt 0.181819 0.157461
vt 0.909092 0.104974
vt 0.985413 0.149039
vt 0.909092 0.157461
vt 0.181819 0.104974
vt 0.097393 0.168690
vt 0.136364 0.078731
vt 0.181818 0.209947
vt 0.181818 0.157461
vt 0.090910 0.262434
vt 0.136364 0.236190
vt 0.909092 0.209947
vt 0.954546 0.236190
vt 0.727273 0.104974
vt 0.816237 0.160830
vt 0.727274 0.157461
vt 0.909091 0.104974
vt 0.818182 0.078731
vt 0.909090 0.209947
vt 0.909090 0.157461
vt 0.818182 0.262434
vt 0.863636 0.236191
vt 0.727274 0.209947
vt 0.772728 0.236191
vt 0.545455 0.104974
vt 0.634419 0.160830
vt 0.545456 0.157461
vt 0.727272 0.104974
vt 0.636364 0.078731
vt 0.727272 0.209947
vt 0.727272 0.157461
vt 0.636364 0.262434
vt 0.681818 0.236190
vt 0.545456 0.209947
vt 0.590910 0.236190
vt 0.363638 0.209947
vt 0.452601 0.160830
vt 0.409092 0.236190
vt 0.363637 0.104974
vt 0.363637 0.157461
vt 0.545455 0.104974
vt 0.454546 0.078731
vt 0.545454 0.209947
vt 0.545455 0.157461
vt 0.454546 0.262433
vt 0.500000 0.236190
vt 0.090911 0.262435
vt 0.183764 0.311552
vt 0.090910 0.314921
vt 0.181819 0.209948
vt 0.136365 0.236192
vt 0.272727 0.262435
vt 0.227273 0.236192
vt 0.272727 0.367408
vt 0.272727 0.314921
vt 0.090910 0.367408
vt 0.181819 0.393651
vt 0.818183 0.262435
vt 0.902608 0.303692
vt 0.818182 0.314921
vt 0.909091 0.209949
vt 0.863637 0.236192
vt 0.090909 0.262435
vt 0.014587 0.323343
vt 0.045454 0.236192
vt 0.090909 0.367408
vt 0.090909 0.314921
vt 0.818182 0.367408
vt 0.863637 0.393651
vt 0.636364 0.262435
vt 0.729218 0.311552
vt 0.636364 0.314921
vt 0.727273 0.209949
vt 0.681819 0.236192
vt 0.818182 0.262435
vt 0.772727 0.236192
vt 0.818182 0.367408
vt 0.818182 0.314921
vt 0.636364 0.367408
vt 0.727273 0.393651
vt 0.454547 0.262435
vt 0.547400 0.311552
vt 0.454547 0.314921
vt 0.545455 0.209948
vt 0.500001 0.236192
vt 0.636363 0.262435
vt 0.590909 0.236192
vt 0.636364 0.367408
vt 0.636363 0.314921
vt 0.454547 0.367408
vt 0.545455 0.393651
vt 0.272729 0.262435
vt 0.365582 0.311552
vt 0.272729 0.314921
vt 0.363637 0.209948
vt 0.318183 0.236191
vt 0.454545 0.262435
vt 0.409091 0.236191
vt 0.454546 0.367408
vt 0.454545 0.314921
vt 0.272728 0.367408
vt 0.363637 0.393651
vt 0.090910 0.367408
vt 0.100635 0.455537
vt 0.045455 0.393651
vt 0.272728 0.367409
vt 0.282453 0.455538
vt 0.227274 0.393652
vt 0.454546 0.367409
vt 0.464271 0.455537
vt 0.409092 0.393653
vt 0.636364 0.367408
vt 0.646089 0.455537
vt 0.590910 0.393652
vt 0.818182 0.367408
vt 0.827907 0.455537
vt 0.772727 0.393651
vt 0.954546 0.078731
vt 0.318182 0.078731
vt 0.500000 0.078731
vt 0.045455 0.236190
vt 0.954545 0.236192
vt 0.136364 0.393652
vt 0.863637 0.393651
vt 0.681819 0.393651
vt 0.500000 0.393652
vt 0.713454 0.472400
vt 0.000000 0.509508
vt 0.993598 0.500000
vt 1.000000 0.992561
vt 0.010953 1.000000
vt 0.901093 0.417237
vt 0.853942 0.504754
vt 0.862619 0.996280
vt 0.711085 0.504754
vt 0.435032 0.135213
vt 0.719762 0.996280
vt 0.879423 0.065481
vt 0.568227 0.504754
vt 0.576905 0.996280
vt 0.425370 0.504754
vt 0.434048 0.996280
vt 0.282513 0.504754
vt 0.291191 0.996280
vt 0.553334 0.360091
vt 0.139656 0.504754
vt 0.133096 0.433702
vt 0.148334 0.996280
vt 0.000000 0.548708
vt 0.994139 0.500000
vt 1.000000 0.972515
vt 0.003829 1.000000
vt 0.854213 0.524354
vt 0.859058 0.986258
vt 0.711355 0.524354
vt 0.463541 0.170962
vt 0.716200 0.986258
vt 0.568498 0.524354
vt 0.573343 0.986258
vt 0.425641 0.524354
vt 0.430486 0.986258
vt 0.282784 0.524354
vt 0.287629 0.986258
vt 0.554959 0.367211
vt 0.139927 0.524354
vt 0.091899 0.413863
vt 0.144772 0.986258
vt 0.909960 0.330040
vt 0.158659 0.101341
vt 0.590040 0.169960
vt 0.656749 0.396749
vt 0.359397 0.380603
vt 0.896749 0.343251
vt 0.368796 0.371204
vt 0.892694 0.347305
vt 0.371204 0.131204
vt 0.847305 0.107305
vt 0.131204 0.128796
vt 0.128796 0.368796
vt 0.658601 0.398601
vt 0.368796 0.371204
vt 0.371204 0.131204
vt 0.131204 0.128796
vt 0.601399 0.158601
vt 0.128796 0.368796
vt 0.863637 0.078729
vt 0.681819 0.078730
vt 0.136365 0.078730
vt 0.045455 0.393651
vt 0.318182 0.393653
s 0
usemtl seed
f 1/1/1 5/2/1 7/3/1
f 6/4/2 4/5/2 2/6/2
f 7/7/3 6/8/3 3/9/3
f 8/10/4 12/11/4 14/12/4
f 13/13/5 11/14/5 9/15/5
f 14/16/6 13/17/6 10/18/6
f 15/19/7 19/20/7 21/21/7
f 20/22/8 18/23/8 16/24/8
f 21/25/9 20/22/9 17/26/9
f 22/27/10 26/28/10 28/29/10
f 27/30/11 25/31/11 23/32/11
f 28/33/12 27/30/12 24/34/12
f 29/35/13 33/36/13 35/37/13
f 34/38/14 32/39/14 30/40/14
f 35/41/15 34/38/15 31/42/15
f 36/43/16 40/44/16 42/45/16
f 41/46/17 39/47/17 37/48/17
f 42/49/18 41/46/18 38/50/18
f 43/51/19 47/52/19 49/53/19
f 48/54/20 46/55/20 44/56/20
f 49/57/21 48/54/21 45/58/21
f 50/59/22 54/60/22 56/61/22
f 55/62/23 53/63/23 51/64/23
f 56/65/24 55/62/24 52/66/24
f 57/67/25 61/68/25 63/69/25
f 62/70/26 60/71/26 58/72/26
f 63/73/27 62/70/27 59/74/27
f 64/75/28 68/76/28 70/77/28
f 69/78/29 67/79/29 65/80/29
f 70/81/30 69/78/30 66/64/30
f 71/82/31 75/83/31 77/84/31
f 76/85/32 74/86/32 72/87/32
f 77/88/33 76/85/33 73/89/33
f 78/90/34 82/91/34 84/92/34
f 83/93/35 81/94/35 79/95/35
f 84/96/36 83/93/36 80/97/36
f 85/98/37 89/99/37 91/100/37
f 90/101/38 88/102/38 86/103/38
f 91/104/39 90/101/39 87/105/39
f 92/106/40 96/107/40 98/108/40
f 97/109/41 95/110/41 93/111/41
f 98/112/42 97/109/42 94/113/42
f 16/24/43 7/7/43 3/9/43
f 7/3/44 15/19/44 1/1/44
f 24/34/45 11/14/45 28/33/45
f 11/114/46 22/27/46 28/29/46
f 2/6/47 13/17/47 6/4/47
f 13/13/48 3/9/48 6/8/48
f 17/26/49 27/30/49 23/32/49
f 27/30/50 16/24/50 24/34/50
f 17/26/51 32/39/51 21/25/51
f 32/115/52 15/19/52 21/21/52
f 38/50/53 25/31/53 42/49/53
f 25/116/54 36/43/54 42/45/54
f 31/42/55 41/46/55 37/48/55
f 41/46/56 30/40/56 38/50/56
f 44/56/57 35/41/57 31/42/57
f 35/37/58 43/51/58 29/35/58
f 52/66/59 39/47/59 56/65/59
f 56/61/60 36/43/60 50/59/60
f 45/58/61 55/62/61 51/64/61
f 55/62/62 44/56/62 52/66/62
f 45/58/63 60/71/63 49/57/63
f 60/117/64 43/51/64 49/53/64
f 66/64/65 53/63/65 70/81/65
f 53/118/66 64/75/66 70/77/66
f 59/74/67 69/78/67 65/80/67
f 69/78/68 58/72/68 66/64/68
f 72/87/69 63/73/69 59/74/69
f 74/119/70 57/67/70 63/69/70
f 80/97/71 67/79/71 84/96/71
f 67/120/72 78/90/72 84/92/72
f 73/89/73 83/93/73 79/95/73
f 83/93/74 72/87/74 80/97/74
f 86/103/75 77/88/75 73/89/75
f 77/84/76 85/98/76 71/82/76
f 94/113/77 81/94/77 98/112/77
f 81/121/78 92/106/78 98/108/78
f 87/105/79 97/109/79 93/111/79
f 97/109/80 86/103/80 94/113/80
f 2/6/81 91/104/81 87/105/81
f 91/100/82 1/1/82 85/98/82
f 10/18/83 95/110/83 14/16/83
f 14/12/84 92/106/84 8/10/84
f 15/19/85 43/51/85 71/82/85
f 3/9/86 24/34/86 16/24/86
f 87/105/87 10/18/87 2/6/87
f 8/10/88 78/90/88 50/59/88
f 17/26/89 38/50/89 30/40/89
f 31/42/90 52/66/90 44/56/90
f 45/58/91 66/64/91 58/72/91
f 59/74/92 80/97/92 72/87/92
f 73/89/93 94/113/93 86/103/93
f 99/122/94 103/123/94 105/124/94
f 104/125/95 102/126/95 100/127/95
f 105/128/96 104/129/96 101/130/96
f 106/131/97 110/132/97 112/133/97
f 111/134/98 109/135/98 107/136/98
f 112/137/99 111/138/99 108/139/99
f 113/140/100 117/141/100 119/142/100
f 118/143/101 116/144/101 114/145/101
f 119/146/102 118/143/102 115/147/102
f 120/148/103 124/149/103 126/150/103
f 125/151/104 123/152/104 121/153/104
f 126/154/105 125/151/105 122/155/105
f 127/156/106 131/157/106 133/158/106
f 132/159/107 130/160/107 128/161/107
f 133/162/108 132/159/108 129/163/108
f 134/164/109 138/165/109 140/166/109
f 139/167/110 137/168/110 135/169/110
f 140/170/111 139/167/111 136/171/111
f 141/172/112 145/173/112 147/174/112
f 146/175/113 144/176/113 142/177/113
f 147/178/114 146/175/114 143/179/114
f 148/180/115 152/181/115 154/182/115
f 153/183/116 151/184/116 149/185/116
f 154/186/117 153/183/117 150/187/117
f 155/188/118 159/189/118 161/190/118
f 160/191/119 158/192/119 156/193/119
f 161/194/120 160/191/120 157/195/120
f 162/196/121 166/197/121 168/198/121
f 167/199/122 165/200/122 163/201/122
f 168/202/123 167/199/123 164/203/123
f 169/204/124 173/205/124 175/206/124
f 174/207/125 172/208/125 170/209/125
f 175/210/126 174/207/126 171/211/126
f 176/212/127 180/213/127 182/214/127
f 181/215/128 179/216/128 177/217/128
f 182/218/129 181/215/129 178/219/129
f 183/220/130 187/221/130 189/222/130
f 188/223/131 186/224/131 184/225/131
f 189/226/132 188/223/132 185/227/132
f 190/228/133 194/229/133 196/230/133
f 195/231/134 193/232/134 191/233/134
f 196/234/135 195/231/135 192/235/135
f 114/145/136 105/128/136 101/130/136
f 116/236/137 99/122/137 105/124/137
f 122/155/138 109/135/138 126/154/138
f 109/237/139 120/148/139 126/150/139
f 100/127/140 111/138/140 104/125/140
f 111/134/141 101/130/141 104/129/141
f 115/147/142 125/151/142 121/153/142
f 125/151/143 114/145/143 122/155/143
f 128/161/144 119/146/144 115/147/144
f 130/238/145 113/140/145 119/142/145
f 121/153/146 140/170/146 136/171/146
f 123/239/147 134/164/147 140/166/147
f 129/163/148 139/167/148 135/169/148
f 139/167/149 128/161/149 136/171/149
f 129/163/150 144/176/150 133/162/150
f 144/240/151 127/156/151 133/158/151
f 135/169/152 154/186/152 150/187/152
f 154/182/153 134/164/153 148/180/153
f 143/179/154 153/183/154 149/185/154
f 153/183/155 142/177/155 150/187/155
f 156/193/156 147/178/156 143/179/156
f 158/241/157 141/172/157 147/174/157
f 149/185/158 168/202/158 164/203/158
f 151/242/159 162/196/159 168/198/159
f 157/195/160 167/199/160 163/201/160
f 167/199/161 156/193/161 164/203/161
f 170/209/162 161/194/162 157/195/162
f 172/243/163 155/188/163 161/190/163
f 163/201/164 182/218/164 178/219/164
f 165/244/165 176/212/165 182/214/165
f 171/211/166 181/215/166 177/217/166
f 181/215/167 170/209/167 178/219/167
f 184/225/168 175/210/168 171/211/168
f 175/206/169 183/220/169 169/204/169
f 177/217/170 196/234/170 192/235/170
f 179/245/171 190/228/171 196/230/171
f 185/227/172 195/231/172 191/233/172
f 195/231/173 184/225/173 192/235/173
f 100/127/174 189/226/174 185/227/174
f 102/246/175 183/220/175 189/222/175
f 191/233/176 112/137/176 108/139/176
f 112/133/177 190/228/177 106/131/177
f 113/140/178 141/172/178 169/204/178
f 107/136/179 114/145/179 101/130/179
f 191/233/180 100/127/180 185/227/180
f 106/131/181 176/212/181 148/180/181
f 121/153/182 128/161/182 115/147/182
f 135/169/183 142/177/183 129/163/183
f 149/185/184 156/193/184 143/179/184
f 163/201/185 170/209/185 157/195/185
f 171/211/186 192/235/186 184/225/186
f 1/1/532 4/701/532 5/2/532
f 6/4/533 5/702/533 4/5/533
f 7/7/534 5/703/534 6/8/534
f 8/10/535 11/114/535 12/11/535
f 13/13/536 12/704/536 11/14/536
f 14/16/537 12/705/537 13/17/537
f 15/19/538 18/706/538 19/20/538
f 20/22/539 19/707/539 18/23/539
f 21/25/540 19/707/540 20/22/540
f 22/27/541 25/116/541 26/28/541
f 27/30/542 26/708/542 25/31/542
f 28/33/543 26/708/543 27/30/543
f 29/35/544 32/115/544 33/36/544
f 34/38/545 33/709/545 32/39/545
f 35/41/546 33/709/546 34/38/546
f 36/43/547 39/710/547 40/44/547
f 41/46/548 40/711/548 39/47/548
f 42/49/549 40/711/549 41/46/549
f 43/51/550 46/712/550 47/52/550
f 48/54/551 47/713/551 46/55/551
f 49/57/552 47/713/552 48/54/552
f 50/59/553 53/118/553 54/60/553
f 55/62/554 54/714/554 53/63/554
f 56/65/555 54/714/555 55/62/555
f 57/67/556 60/117/556 61/68/556
f 62/70/557 61/715/557 60/71/557
f 63/73/558 61/715/558 62/70/558
f 64/75/559 67/120/559 68/76/559
f 69/78/560 68/716/560 67/79/560
f 70/81/561 68/716/561 69/78/561
f 71/82/562 74/119/562 75/83/562
f 76/85/563 75/717/563 74/86/563
f 77/88/564 75/717/564 76/85/564
f 78/90/565 81/121/565 82/91/565
f 83/93/566 82/718/566 81/94/566
f 84/96/567 82/718/567 83/93/567
f 85/98/568 88/719/568 89/99/568
f 90/101/569 89/720/569 88/102/569
f 91/104/570 89/720/570 90/101/570
f 92/106/571 95/721/571 96/107/571
f 97/109/572 96/722/572 95/110/572
f 98/112/573 96/722/573 97/109/573
f 16/24/43 18/23/43 7/7/43
f 7/3/44 18/706/44 15/19/44
f 24/34/574 9/15/574 11/14/574
f 11/114/575 8/10/575 22/27/575
f 2/6/576 10/18/576 13/17/576
f 13/13/577 9/15/577 3/9/577
f 17/26/578 20/22/578 27/30/578
f 27/30/579 20/22/579 16/24/579
f 17/26/51 30/40/51 32/39/51
f 32/115/52 29/35/52 15/19/52
f 38/50/580 23/32/580 25/31/580
f 25/116/54 22/27/54 36/43/54
f 31/42/581 34/38/581 41/46/581
f 41/46/582 34/38/582 30/40/582
f 44/56/57 46/55/57 35/41/57
f 35/37/58 46/712/58 43/51/58
f 52/66/322 37/48/322 39/47/322
f 56/61/60 39/710/60 36/43/60
f 45/58/583 48/54/583 55/62/583
f 55/62/584 48/54/584 44/56/584
f 45/58/63 58/72/63 60/71/63
f 60/117/64 57/67/64 43/51/64
f 66/64/585 51/64/585 53/63/585
f 53/118/66 50/59/66 64/75/66
f 59/74/586 62/70/586 69/78/586
f 69/78/587 62/70/587 58/72/587
f 72/87/69 74/86/69 63/73/69
f 74/119/70 71/82/70 57/67/70
f 80/97/585 65/80/585 67/79/585
f 67/120/588 64/75/588 78/90/588
f 73/89/589 76/85/589 83/93/589
f 83/93/590 76/85/590 72/87/590
f 86/103/75 88/102/75 77/88/75
f 77/84/76 88/719/76 85/98/76
f 94/113/580 79/95/580 81/94/580
f 81/121/78 78/90/78 92/106/78
f 87/105/591 90/101/591 97/109/591
f 97/109/592 90/101/592 86/103/592
f 2/6/81 4/5/81 91/104/81
f 91/100/82 4/701/82 1/1/82
f 10/18/593 93/111/593 95/110/593
f 14/12/84 95/721/84 92/106/84
f 85/98/85 1/1/85 15/19/85
f 15/19/85 29/35/85 43/51/85
f 43/51/85 57/67/85 71/82/85
f 71/82/85 85/98/85 15/19/85
f 3/9/594 9/15/594 24/34/594
f 87/105/595 93/111/595 10/18/595
f 36/43/596 22/27/596 8/10/596
f 8/10/596 92/106/596 78/90/596
f 78/90/596 64/75/596 50/59/596
f 50/59/596 36/43/596 8/10/596
f 17/26/597 23/32/597 38/50/597
f 31/42/598 37/48/598 52/66/598
f 45/58/599 51/64/599 66/64/599
f 59/74/600 65/80/600 80/97/600
f 73/89/601 79/95/601 94/113/601
f 99/122/602 102/246/602 103/123/602
f 104/125/603 103/723/603 102/126/603
f 105/128/604 103/724/604 104/129/604
f 106/131/605 109/237/605 110/132/605
f 111/134/606 110/725/606 109/135/606
f 112/137/607 110/726/607 111/138/607
f 113/140/608 116/236/608 117/141/608
f 118/143/609 117/727/609 116/144/609
f 119/146/610 117/727/610 118/143/610
f 120/148/611 123/239/611 124/149/611
f 125/151/612 124/728/612 123/152/612
f 126/154/613 124/728/613 125/151/613
f 127/156/614 130/238/614 131/157/614
f 132/159/615 131/729/615 130/160/615
f 133/162/616 131/729/616 132/159/616
f 134/164/617 137/730/617 138/165/617
f 139/167/618 138/731/618 137/168/618
f 140/170/619 138/731/619 139/167/619
f 141/172/620 144/240/620 145/173/620
f 146/175/621 145/732/621 144/176/621
f 147/178/622 145/732/622 146/175/622
f 148/180/623 151/242/623 152/181/623
f 153/183/624 152/733/624 151/184/624
f 154/186/625 152/733/625 153/183/625
f 155/188/626 158/241/626 159/189/626
f 160/191/627 159/734/627 158/192/627
f 161/194/628 159/734/628 160/191/628
f 162/196/629 165/244/629 166/197/629
f 167/199/630 166/735/630 165/200/630
f 168/202/631 166/735/631 167/199/631
f 169/204/632 172/243/632 173/205/632
f 174/207/633 173/736/633 172/208/633
f 175/210/634 173/736/634 174/207/634
f 176/212/635 179/245/635 180/213/635
f 181/215/636 180/737/636 179/216/636
f 182/218/637 180/737/637 181/215/637
f 183/220/638 186/738/638 187/221/638
f 188/223/639 187/739/639 186/224/639
f 189/226/640 187/739/640 188/223/640
f 190/228/641 193/740/641 194/229/641
f 195/231/642 194/741/642 193/232/642
f 196/234/643 194/741/643 195/231/643
f 114/145/136 116/144/136 105/128/136
f 116/236/137 113/140/137 99/122/137
f 122/155/138 107/136/138 109/135/138
f 109/237/139 106/131/139 120/148/139
f 100/127/644 108/139/644 111/138/644
f 111/134/645 107/136/645 101/130/645
f 115/147/646 118/143/646 125/151/646
f 125/151/647 118/143/647 114/145/647
f 128/161/144 130/160/144 119/146/144
f 130/238/145 127/156/145 113/140/145
f 121/153/146 123/152/146 140/170/146
f 123/239/147 120/148/147 134/164/147
f 129/163/648 132/159/648 139/167/648
f 139/167/649 132/159/649 128/161/649
f 129/163/150 142/177/150 144/176/150
f 144/240/151 141/172/151 127/156/151
f 135/169/152 137/168/152 154/186/152
f 154/182/153 137/730/153 134/164/153
f 143/179/650 146/175/650 153/183/650
f 153/183/651 146/175/651 142/177/651
f 156/193/156 158/192/156 147/178/156
f 158/241/157 155/188/157 141/172/157
f 149/185/158 151/184/158 168/202/158
f 151/242/159 148/180/159 162/196/159
f 157/195/652 160/191/652 167/199/652
f 167/199/653 160/191/653 156/193/653
f 170/209/162 172/208/162 161/194/162
f 172/243/163 169/204/163 155/188/163
f 163/201/164 165/200/164 182/218/164
f 165/244/165 162/196/165 176/212/165
f 171/211/654 174/207/654 181/215/654
f 181/215/655 174/207/655 170/209/655
f 184/225/168 186/224/168 175/210/168
f 175/206/169 186/738/169 183/220/169
f 177/217/170 179/216/170 196/234/170
f 179/245/171 176/212/171 190/228/171
f 185/227/656 188/223/656 195/231/656
f 195/231/657 188/223/657 184/225/657
f 100/127/174 102/126/174 189/226/174
f 102/246/175 99/122/175 183/220/175
f 191/233/176 193/232/176 112/137/176
f 112/133/177 193/740/177 190/228/177
f 183/220/178 99/122/178 113/140/178
f 113/140/178 127/156/178 141/172/178
f 141/172/178 155/188/178 169/204/178
f 169/204/178 183/220/178 113/140/178
f 107/136/179 122/155/179 114/145/179
f 191/233/180 108/139/180 100/127/180
f 134/164/181 120/148/181 106/131/181
f 106/131/181 190/228/181 176/212/181
f 176/212/181 162/196/181 148/180/181
f 148/180/181 134/164/181 106/131/181
f 121/153/182 136/171/182 128/161/182
f 135/169/183 150/187/183 142/177/183
f 149/185/184 164/203/184 156/193/184
f 163/201/185 178/219/185 170/209/185
f 171/211/186 177/217/186 192/235/186
usemtl bark
f 197/247/187 201/248/187 203/249/187
f 198/250/188 201/251/188 200/252/188
f 199/253/189 201/254/189 202/255/189
f 204/256/190 208/257/190 210/258/190
f 205/259/191 208/260/191 207/261/191
f 206/262/192 208/263/192 209/264/192
f 211/265/193 215/266/193 217/267/193
f 212/268/194 215/269/194 214/270/194
f 213/271/195 215/269/195 216/272/195
f 218/273/196 222/274/196 224/275/196
f 219/276/197 222/277/197 221/278/197
f 220/279/198 222/277/198 223/280/198
f 225/281/199 229/282/199 231/283/199
f 226/284/200 229/285/200 228/286/200
f 227/287/201 229/285/201 230/288/201
f 232/289/202 236/290/202 238/291/202
f 233/292/203 236/293/203 235/294/203
f 234/295/204 236/293/204 237/296/204
f 239/297/205 243/298/205 245/299/205
f 240/300/206 243/301/206 242/302/206
f 241/303/207 243/301/207 244/304/207
f 246/305/208 250/306/208 252/307/208
f 247/308/209 250/309/209 249/310/209
f 248/311/210 250/309/210 251/312/210
f 212/268/211 203/313/211 199/253/211
f 203/249/212 211/265/212 197/247/212
f 220/279/213 207/261/213 224/314/213
f 207/315/214 218/273/214 224/275/214
f 198/250/215 209/264/215 202/316/215
f 209/317/216 199/253/216 202/255/216
f 213/271/217 223/280/217 219/276/217
f 223/280/218 212/268/218 220/279/218
f 226/284/219 217/318/219 213/271/219
f 228/319/220 211/265/220 217/267/220
f 219/276/221 238/320/221 234/295/221
f 221/321/222 232/289/222 238/291/222
f 227/287/223 237/296/223 233/292/223
f 237/296/224 226/284/224 234/295/224
f 227/287/225 242/302/225 231/322/225
f 231/283/226 239/297/226 225/281/226
f 233/292/227 252/323/227 248/311/227
f 252/307/228 232/289/228 246/305/228
f 241/303/229 251/312/229 247/308/229
f 251/312/230 240/300/230 248/311/230
f 198/250/231 245/324/231 241/303/231
f 200/325/232 239/297/232 245/299/232
f 247/308/233 210/326/233 206/262/233
f 249/327/234 204/256/234 210/258/234
f 211/265/235 239/297/235 197/247/235
f 205/259/236 212/268/236 199/253/236
f 241/303/237 206/262/237 198/250/237
f 204/256/238 232/289/238 218/273/238
f 213/271/239 234/295/239 226/284/239
f 233/292/240 240/300/240 227/287/240
f 253/328/241 257/329/241 259/330/241
f 254/331/242 257/251/242 256/332/242
f 255/333/243 257/334/243 258/255/243
f 260/335/244 264/336/244 266/337/244
f 261/338/245 264/260/245 263/339/245
f 262/340/246 264/341/246 265/264/246
f 267/342/247 271/343/247 273/344/247
f 268/345/248 271/346/248 270/347/248
f 269/348/249 271/346/249 272/272/249
f 274/349/250 278/350/250 280/351/250
f 275/352/251 278/353/251 277/354/251
f 276/355/252 278/353/252 279/280/252
f 281/356/253 285/357/253 287/358/253
f 282/359/254 285/360/254 284/361/254
f 283/362/255 285/360/255 286/363/255
f 288/364/256 292/365/256 294/366/256
f 289/367/257 292/368/257 291/369/257
f 290/370/258 292/368/258 293/296/258
f 295/371/259 299/372/259 301/373/259
f 296/374/260 299/375/260 298/376/260
f 297/377/261 299/375/261 300/378/261
f 302/379/262 306/380/262 308/381/262
f 303/382/263 306/383/263 305/384/263
f 304/385/264 306/383/264 307/312/264
f 268/345/265 259/386/265 255/333/265
f 259/330/266 267/342/266 253/328/266
f 261/338/267 280/387/267 276/355/267
f 280/351/268 260/335/268 274/349/268
f 254/331/269 265/264/269 258/388/269
f 265/317/270 255/333/270 258/255/270
f 269/348/271 279/280/271 275/352/271
f 279/280/272 268/345/272 276/355/272
f 269/348/273 284/361/273 273/389/273
f 284/390/274 267/342/274 273/344/274
f 290/370/275 277/354/275 294/391/275
f 277/392/276 288/364/276 294/366/276
f 283/362/277 293/296/277 289/367/277
f 293/296/278 282/359/278 290/370/278
f 296/374/279 287/393/279 283/362/279
f 298/394/280 281/356/280 287/358/280
f 304/385/281 291/369/281 308/395/281
f 291/396/282 302/379/282 308/381/282
f 297/377/283 307/312/283 303/382/283
f 307/312/284 296/374/284 304/385/284
f 297/377/285 256/332/285 301/397/285
f 301/373/286 253/328/286 295/371/286
f 303/382/287 266/398/287 262/340/287
f 305/399/288 260/335/288 266/337/288
f 253/328/289 281/356/289 295/371/289
f 261/338/290 268/345/290 255/333/290
f 297/377/291 262/340/291 254/331/291
f 274/349/292 302/379/292 288/364/292
f 269/348/293 290/370/293 282/359/293
f 283/362/294 304/385/294 296/374/294
f 309/400/295 313/401/295 315/402/295
f 310/403/296 313/404/296 312/405/296
f 311/406/297 313/407/297 314/408/297
f 316/409/298 320/410/298 322/411/298
f 317/412/299 320/413/299 319/414/299
f 318/415/300 320/416/300 321/417/300
f 323/418/301 327/419/301 329/420/301
f 324/421/302 327/422/302 326/423/302
f 325/424/303 327/422/303 328/425/303
f 330/409/304 334/426/304 336/427/304
f 331/428/305 334/429/305 333/430/305
f 332/431/306 334/429/306 335/432/306
f 337/433/307 341/434/307 343/435/307
f 338/436/308 341/437/308 340/438/308
f 339/439/309 341/437/309 342/440/309
f 344/409/310 348/441/310 350/442/310
f 345/443/311 348/444/311 347/445/311
f 346/446/312 348/444/312 349/447/312
f 351/448/313 355/449/313 357/450/313
f 352/451/314 355/452/314 354/453/314
f 353/454/315 355/452/315 356/455/315
f 358/409/316 362/456/316 364/457/316
f 359/458/317 362/459/317 361/460/317
f 360/461/318 362/459/318 363/462/318
f 324/421/319 315/463/319 311/406/319
f 315/402/320 323/418/320 309/400/320
f 317/412/321 336/464/321 332/431/321
f 336/427/322 316/409/322 330/409/322
f 310/403/323 321/417/323 314/465/323
f 321/466/324 311/406/324 314/408/324
f 325/424/325 335/432/325 331/428/325
f 335/432/326 324/421/326 332/431/326
f 338/436/327 329/467/327 325/424/327
f 329/420/328 337/433/328 323/418/328
f 331/428/329 350/468/329 346/446/329
f 350/442/322 330/409/322 344/409/322
f 339/439/330 349/447/330 345/443/330
f 349/447/331 338/436/331 346/446/331
f 339/439/332 354/453/332 343/469/332
f 354/470/333 337/433/333 343/435/333
f 345/443/334 364/471/334 360/461/334
f 364/457/322 344/409/322 358/409/322
f 353/454/335 363/462/335 359/458/335
f 363/462/336 352/451/336 360/461/336
f 353/454/337 312/405/337 357/472/337
f 312/473/338 351/448/338 357/450/338
f 318/415/339 361/460/339 322/474/339
f 322/411/322 358/409/322 316/409/322
f 323/418/340 351/448/340 309/400/340
f 311/406/341 332/431/341 324/421/341
f 359/458/342 310/403/342 353/454/342
f 330/409/322 358/409/322 344/409/322
f 325/424/343 346/446/343 338/436/343
f 339/439/344 360/461/344 352/451/344
f 365/475/345 369/476/345 371/477/345
f 366/478/346 369/479/346 368/480/346
f 367/481/347 369/482/347 370/483/347
f 372/484/348 376/485/348 378/486/348
f 373/487/349 376/488/349 375/489/349
f 374/490/350 376/491/350 377/492/350
f 379/493/351 383/494/351 385/495/351
f 380/496/352 383/497/352 382/498/352
f 381/499/353 383/497/353 384/500/353
f 386/501/354 390/502/354 392/503/354
f 387/504/355 390/505/355 389/506/355
f 388/507/356 390/505/356 391/508/356
f 393/509/357 397/510/357 399/511/357
f 394/512/358 397/513/358 396/514/358
f 395/515/359 397/513/359 398/516/359
f 400/517/360 404/518/360 406/519/360
f 401/520/361 404/521/361 403/445/361
f 402/522/362 404/521/362 405/523/362
f 407/524/363 411/525/363 413/526/363
f 408/527/364 411/528/364 410/529/364
f 409/530/365 411/528/365 412/531/365
f 414/532/366 418/533/366 420/534/366
f 415/535/367 418/536/367 417/537/367
f 416/538/368 418/536/368 419/539/368
f 367/481/369 382/498/369 371/540/369
f 382/541/370 365/475/370 371/477/370
f 388/507/371 375/489/371 392/542/371
f 392/503/322 372/484/322 386/501/322
f 366/478/372 377/492/372 370/543/372
f 377/544/373 367/481/373 370/483/373
f 381/499/374 391/508/374 387/504/374
f 391/508/375 380/496/375 388/507/375
f 394/512/376 385/545/376 381/499/376
f 396/546/377 379/493/377 385/495/377
f 387/504/378 406/468/378 402/522/378
f 406/519/379 386/501/379 400/517/379
f 395/515/380 405/523/380 401/520/380
f 405/523/381 394/512/381 402/522/381
f 395/515/382 410/529/382 399/547/382
f 399/511/383 407/524/383 393/509/383
f 416/538/384 403/445/384 420/471/384
f 420/534/322 400/517/322 414/532/322
f 409/530/385 419/539/385 415/535/385
f 419/539/386 408/527/386 416/538/386
f 366/478/387 413/548/387 409/530/387
f 413/526/388 365/475/388 407/524/388
f 415/535/389 378/549/389 374/490/389
f 378/486/390 414/532/390 372/484/390
f 379/493/391 407/524/391 365/475/391
f 367/481/392 388/507/392 380/496/392
f 409/530/393 374/490/393 366/478/393
f 386/501/322 414/532/322 400/517/322
f 387/504/394 394/512/394 381/499/394
f 401/520/395 408/527/395 395/515/395
f 197/247/658 200/325/658 201/248/658
f 198/250/659 202/316/659 201/251/659
f 199/253/660 203/313/660 201/254/660
f 204/256/661 207/315/661 208/257/661
f 205/259/662 209/317/662 208/260/662
f 206/262/663 210/326/663 208/263/663
f 211/265/664 214/742/664 215/266/664
f 212/268/665 216/272/665 215/269/665
f 213/271/666 217/318/666 215/269/666
f 218/273/667 221/321/667 222/274/667
f 219/276/668 223/280/668 222/277/668
f 220/279/669 224/314/669 222/277/669
f 225/281/670 228/319/670 229/282/670
f 226/284/671 230/288/671 229/285/671
f 227/287/672 231/322/672 229/285/672
f 232/289/673 235/743/673 236/290/673
f 233/292/674 237/296/674 236/293/674
f 234/295/675 238/320/675 236/293/675
f 239/297/676 242/744/676 243/298/676
f 240/300/677 244/304/677 243/301/677
f 241/303/678 245/324/678 243/301/678
f 246/305/679 249/327/679 250/306/679
f 247/308/680 251/312/680 250/309/680
f 248/311/681 252/323/681 250/309/681
f 212/268/211 214/270/211 203/313/211
f 203/249/212 214/742/212 211/265/212
f 220/279/213 205/259/213 207/261/213
f 207/315/214 204/256/214 218/273/214
f 198/250/215 206/262/215 209/264/215
f 209/317/216 205/259/216 199/253/216
f 213/271/217 216/272/217 223/280/217
f 223/280/218 216/272/218 212/268/218
f 226/284/219 228/286/219 217/318/219
f 228/319/220 225/281/220 211/265/220
f 219/276/221 221/278/221 238/320/221
f 221/321/222 218/273/222 232/289/222
f 227/287/223 230/288/223 237/296/223
f 237/296/224 230/288/224 226/284/224
f 227/287/225 240/300/225 242/302/225
f 231/283/226 242/744/226 239/297/226
f 233/292/227 235/294/227 252/323/227
f 252/307/228 235/743/228 232/289/228
f 241/303/229 244/304/229 251/312/229
f 251/312/230 244/304/230 240/300/230
f 198/250/231 200/252/231 245/324/231
f 200/325/232 197/247/232 239/297/232
f 247/308/233 249/310/233 210/326/233
f 249/327/234 246/305/234 204/256/234
f 211/265/235 225/281/235 239/297/235
f 205/259/236 220/279/236 212/268/236
f 241/303/237 247/308/237 206/262/237
f 204/256/238 246/305/238 232/289/238
f 213/271/239 219/276/239 234/295/239
f 233/292/240 248/311/240 240/300/240
f 253/328/682 256/745/682 257/329/682
f 254/331/683 258/388/683 257/251/683
f 255/333/684 259/386/684 257/334/684
f 260/335/685 263/746/685 264/336/685
f 261/338/686 265/317/686 264/260/686
f 262/340/687 266/398/687 264/341/687
f 267/342/688 270/747/688 271/343/688
f 268/345/689 272/272/689 271/346/689
f 269/348/690 273/389/690 271/346/690
f 274/349/691 277/392/691 278/350/691
f 275/352/692 279/280/692 278/353/692
f 276/355/693 280/387/693 278/353/693
f 281/356/694 284/390/694 285/357/694
f 282/359/695 286/363/695 285/360/695
f 283/362/696 287/393/696 285/360/696
f 288/364/697 291/396/697 292/365/697
f 289/367/698 293/296/698 292/368/698
f 290/370/699 294/391/699 292/368/699
f 295/371/700 298/394/700 299/372/700
f 296/374/701 300/378/701 299/375/701
f 297/377/702 301/397/702 299/375/702
f 302/379/703 305/399/703 306/380/703
f 303/382/704 307/312/704 306/383/704
f 304/385/705 308/395/705 306/383/705
f 268/345/265 270/347/265 259/386/265
f 259/330/266 270/747/266 267/342/266
f 261/338/267 263/339/267 280/387/267
f 280/351/706 263/746/706 260/335/706
f 254/331/269 262/340/269 265/264/269
f 265/317/270 261/338/270 255/333/270
f 269/348/271 272/272/271 279/280/271
f 279/280/272 272/272/272 268/345/272
f 269/348/273 282/359/273 284/361/273
f 284/390/274 281/356/274 267/342/274
f 290/370/275 275/352/275 277/354/275
f 277/392/276 274/349/276 288/364/276
f 283/362/277 286/363/277 293/296/277
f 293/296/278 286/363/278 282/359/278
f 296/374/279 298/376/279 287/393/279
f 298/394/280 295/371/280 281/356/280
f 304/385/707 289/367/707 291/369/707
f 291/396/282 288/364/282 302/379/282
f 297/377/283 300/378/283 307/312/283
f 307/312/284 300/378/284 296/374/284
f 297/377/285 254/331/285 256/332/285
f 301/373/286 256/745/286 253/328/286
f 303/382/287 305/384/287 266/398/287
f 305/399/288 302/379/288 260/335/288
f 253/328/289 267/342/289 281/356/289
f 261/338/290 276/355/290 268/345/290
f 297/377/291 303/382/291 262/340/291
f 274/349/292 260/335/292 302/379/292
f 269/348/293 275/352/293 290/370/293
f 283/362/294 289/367/294 304/385/294
f 309/400/708 312/473/708 313/401/708
f 310/403/709 314/465/709 313/404/709
f 311/406/710 315/463/710 313/407/710
f 316/409/711 319/748/711 320/410/711
f 317/412/712 321/466/712 320/413/712
f 318/415/713 322/474/713 320/416/713
f 323/418/714 326/749/714 327/419/714
f 324/421/715 328/425/715 327/422/715
f 325/424/716 329/467/716 327/422/716
f 330/409/717 333/750/717 334/426/717
f 331/428/718 335/432/718 334/429/718
f 332/431/719 336/464/719 334/429/719
f 337/433/720 340/751/720 341/434/720
f 338/436/721 342/440/721 341/437/721
f 339/439/722 343/469/722 341/437/722
f 344/409/723 347/752/723 348/441/723
f 345/443/724 349/447/724 348/444/724
f 346/446/725 350/468/725 348/444/725
f 351/448/726 354/470/726 355/449/726
f 352/451/727 356/455/727 355/452/727
f 353/454/728 357/472/728 355/452/728
f 358/409/729 361/753/729 362/456/729
f 359/458/730 363/462/730 362/459/730
f 360/461/731 364/471/731 362/459/731
f 324/421/319 326/423/319 315/463/319
f 315/402/320 326/749/320 323/418/320
f 317/412/732 319/414/732 336/464/732
f 336/427/733 319/748/733 316/409/733
f 310/403/734 318/415/734 321/417/734
f 321/466/324 317/412/324 311/406/324
f 325/424/325 328/425/325 335/432/325
f 335/432/326 328/425/326 324/421/326
f 338/436/327 340/438/327 329/467/327
f 329/420/328 340/751/328 337/433/328
f 331/428/735 333/430/735 350/468/735
f 350/442/736 333/750/736 330/409/736
f 339/439/330 342/440/330 349/447/330
f 349/447/331 342/440/331 338/436/331
f 339/439/332 352/451/332 354/453/332
f 354/470/333 351/448/333 337/433/333
f 345/443/737 347/445/737 364/471/737
f 364/457/738 347/752/738 344/409/738
f 353/454/739 356/455/739 363/462/739
f 363/462/740 356/455/740 352/451/740
f 353/454/337 310/403/337 312/405/337
f 312/473/338 309/400/338 351/448/338
f 318/415/339 359/458/339 361/460/339
f 322/411/741 361/753/741 358/409/741
f 323/418/340 337/433/340 351/448/340
f 311/406/341 317/412/341 332/431/341
f 359/458/342 318/415/342 310/403/342
f 330/409/322 316/409/322 358/409/322
f 325/424/343 331/428/343 346/446/343
f 339/439/742 345/443/742 360/461/742
f 365/475/743 368/754/743 369/476/743
f 366/478/744 370/543/744 369/479/744
f 367/481/745 371/540/745 369/482/745
f 372/484/746 375/755/746 376/485/746
f 373/487/747 377/544/747 376/488/747
f 374/490/748 378/549/748 376/491/748
f 379/493/749 382/541/749 383/494/749
f 380/496/750 384/500/750 383/497/750
f 381/499/751 385/545/751 383/497/751
f 386/501/752 389/756/752 390/502/752
f 387/504/753 391/508/753 390/505/753
f 388/507/754 392/542/754 390/505/754
f 393/509/755 396/546/755 397/510/755
f 394/512/756 398/516/756 397/513/756
f 395/515/757 399/547/757 397/513/757
f 400/517/758 403/757/758 404/518/758
f 401/520/759 405/523/759 404/521/759
f 402/522/760 406/468/760 404/521/760
f 407/524/761 410/758/761 411/525/761
f 408/527/762 412/531/762 411/528/762
f 409/530/763 413/548/763 411/528/763
f 414/532/764 417/759/764 418/533/764
f 415/535/765 419/539/765 418/536/765
f 416/538/766 420/471/766 418/536/766
f 367/481/369 380/496/369 382/498/369
f 382/541/370 379/493/370 365/475/370
f 388/507/767 373/487/767 375/489/767
f 392/503/768 375/755/768 372/484/768
f 366/478/372 374/490/372 377/492/372
f 377/544/373 373/487/373 367/481/373
f 381/499/374 384/500/374 391/508/374
f 391/508/375 384/500/375 380/496/375
f 394/512/376 396/514/376 385/545/376
f 396/546/377 393/509/377 379/493/377
f 387/504/769 389/506/769 406/468/769
f 406/519/770 389/756/770 386/501/770
f 395/515/380 398/516/380 405/523/380
f 405/523/381 398/516/381 394/512/381
f 395/515/382 408/527/382 410/529/382
f 399/511/383 410/758/383 407/524/383
f 416/538/771 401/520/771 403/445/771
f 420/534/772 403/757/772 400/517/772
f 409/530/385 412/531/385 419/539/385
f 419/539/386 412/531/386 408/527/386
f 366/478/387 368/480/387 413/548/387
f 413/526/388 368/754/388 365/475/388
f 415/535/773 417/537/773 378/549/773
f 378/486/774 417/759/774 414/532/774
f 379/493/775 393/509/775 407/524/775
f 367/481/392 373/487/392 388/507/392
f 409/530/776 415/535/776 374/490/776
f 386/501/322 372/484/322 414/532/322
f 387/504/394 402/522/394 394/512/394
f 401/520/395 416/538/395 408/527/395
usemtl core
f 421/550/396 427/551/396 431/552/396
f 422/553/397 427/554/397 426/555/397
f 423/556/398 427/557/398 428/558/398
f 424/559/399 427/560/399 429/561/399
f 425/562/400 427/563/400 430/564/400
f 432/565/401 438/566/401 442/567/401
f 433/568/402 438/566/402 437/569/402
f 434/570/403 438/566/403 439/571/403
f 435/572/404 438/566/404 440/573/404
f 436/574/405 438/566/405 441/575/405
f 443/576/406 449/577/406 453/578/406
f 444/579/407 449/580/407 448/581/407
f 445/582/408 449/580/408 450/583/408
f 446/584/409 449/580/409 451/585/409
f 447/586/410 449/577/410 452/587/410
f 454/588/411 460/589/411 464/590/411
f 455/591/412 460/589/412 459/592/412
f 456/593/413 460/589/413 461/594/413
f 457/595/414 460/589/414 462/596/414
f 458/597/415 460/589/415 463/598/415
f 465/599/416 471/600/416 475/601/416
f 466/602/417 471/600/417 470/603/417
f 467/604/418 471/600/418 472/605/418
f 468/606/419 471/600/419 473/607/419
f 469/608/420 471/600/420 474/609/420
f 476/610/421 482/611/421 486/612/421
f 477/613/422 482/611/422 481/614/422
f 478/615/423 482/611/423 483/616/423
f 479/617/424 482/611/424 484/618/424
f 480/619/425 482/611/425 485/620/425
f 487/621/426 493/622/426 497/623/426
f 488/624/427 493/622/427 492/625/427
f 489/626/428 493/622/428 494/627/428
f 490/628/429 493/622/429 495/629/429
f 491/630/430 493/622/430 496/631/430
f 498/632/431 504/633/431 508/634/431
f 499/635/432 504/633/432 503/636/432
f 500/637/433 504/638/433 505/639/433
f 501/640/434 504/638/434 506/641/434
f 502/642/435 504/633/435 507/643/435
f 509/644/436 515/645/436 519/646/436
f 510/647/437 515/645/437 514/648/437
f 511/649/438 515/645/438 516/650/438
f 512/651/439 515/645/439 517/652/439
f 513/653/440 515/645/440 518/654/440
f 520/655/441 526/656/441 530/657/441
f 521/658/442 526/656/442 525/659/442
f 522/660/443 526/656/443 527/661/443
f 523/662/444 526/656/444 528/663/444
f 524/664/445 526/656/445 529/665/445
f 531/666/446 537/667/446 541/668/446
f 532/669/447 537/667/447 536/670/447
f 533/671/448 537/667/448 538/672/448
f 534/673/449 537/667/449 539/674/449
f 535/675/450 537/667/450 540/676/450
f 542/677/451 548/678/451 552/679/451
f 543/680/452 548/681/452 547/682/452
f 544/683/453 548/684/453 549/685/453
f 545/686/454 548/687/454 550/688/454
f 546/689/455 548/690/455 551/691/455
f 421/550/456 448/692/456 443/576/456
f 448/581/457 425/562/457 444/579/457
f 424/559/458 442/567/458 430/693/458
f 430/564/459 436/574/459 425/562/459
f 435/572/460 450/583/460 441/575/460
f 441/575/461 444/579/461 436/574/461
f 476/610/462 437/569/462 481/614/462
f 481/614/463 432/565/463 477/613/463
f 423/556/464 483/616/464 429/694/464
f 429/561/465 477/613/465 424/559/465
f 454/588/466 426/555/466 459/592/466
f 459/592/467 421/550/467 455/591/467
f 456/593/468 453/578/468 447/586/468
f 453/578/469 455/591/469 443/576/469
f 465/599/470 428/558/470 470/603/470
f 470/603/471 422/553/471 466/602/471
f 467/604/472 464/590/472 458/597/472
f 472/605/473 454/588/473 464/590/473
f 479/617/474 475/601/474 469/608/474
f 484/618/475 465/599/475 475/601/475
f 531/666/476 439/571/476 536/670/476
f 536/670/477 433/568/477 532/669/477
f 480/619/478 538/672/478 486/612/478
f 538/672/479 476/610/479 486/612/479
f 487/621/480 451/585/480 492/625/480
f 451/585/481 488/624/481 492/625/481
f 434/570/482 494/627/482 440/573/482
f 440/573/483 488/624/483 435/572/483
f 498/632/484 462/596/484 503/636/484
f 503/636/485 456/593/485 499/635/485
f 446/584/486 505/639/486 452/695/486
f 505/696/487 447/586/487 452/587/487
f 468/606/488 514/648/488 509/644/488
f 473/607/489 510/647/489 514/648/489
f 457/595/490 516/650/490 463/598/490
f 516/650/491 458/597/491 463/598/491
f 480/619/492 525/659/492 520/655/492
f 485/620/493 521/658/493 525/659/493
f 468/606/494 527/661/494 474/609/494
f 527/661/495 469/608/495 474/609/495
f 490/628/496 541/668/496 535/675/496
f 495/629/497 531/666/497 541/668/497
f 501/640/498 497/623/498 491/630/498
f 506/641/499 487/621/499 497/623/499
f 502/642/500 517/652/500 508/634/500
f 508/634/501 511/649/501 498/632/501
f 513/653/502 528/663/502 519/646/502
f 528/663/503 509/644/503 519/646/503
f 534/673/504 530/657/504 524/664/504
f 539/674/505 520/655/505 530/657/505
f 491/630/506 547/697/506 542/677/506
f 496/631/507 543/680/507 547/682/507
f 534/673/508 549/685/508 540/676/508
f 540/676/509 543/680/509 535/675/509
f 546/689/510 507/643/510 552/698/510
f 552/679/511 501/640/511 542/677/511
f 545/686/512 518/654/512 551/699/512
f 551/691/322 512/651/322 546/689/322
f 544/683/513 529/665/513 550/700/513
f 529/665/514 545/686/514 550/688/514
f 421/550/515 443/576/515 455/591/515
f 425/562/516 436/574/516 444/579/516
f 432/565/322 424/559/322 477/613/322
f 422/553/517 454/588/517 466/602/517
f 423/556/518 465/599/518 478/615/518
f 433/568/519 476/610/519 532/669/519
f 434/570/520 531/666/520 489/626/520
f 445/582/521 435/572/521 488/624/521
f 446/584/522 487/621/522 500/637/522
f 456/593/523 447/586/523 499/635/523
f 457/595/524 498/632/524 511/649/524
f 467/604/525 458/597/525 510/647/525
f 468/606/526 509/644/526 522/660/526
f 479/617/527 469/608/527 521/658/527
f 480/619/528 520/655/528 533/671/528
f 501/640/322 491/630/322 542/677/322
f 490/628/529 535/675/529 543/680/529
f 512/651/322 502/642/322 546/689/322
f 523/662/530 513/653/530 545/686/530
f 534/673/531 524/664/531 544/683/531
f 421/550/777 426/760/777 427/551/777
f 422/553/778 428/761/778 427/554/778
f 423/556/779 429/694/779 427/557/779
f 424/559/780 430/693/780 427/560/780
f 425/562/781 431/762/781 427/563/781
f 432/565/782 437/569/782 438/566/782
f 433/568/783 439/571/783 438/566/783
f 434/570/784 440/573/784 438/566/784
f 435/572/785 441/575/785 438/566/785
f 436/574/786 442/567/786 438/566/786
f 443/576/787 448/692/787 449/577/787
f 444/579/788 450/583/788 449/580/788
f 445/582/789 451/585/789 449/580/789
f 446/584/790 452/695/790 449/580/790
f 447/586/791 453/578/791 449/577/791
f 454/588/792 459/592/792 460/589/792
f 455/591/793 461/594/793 460/589/793
f 456/593/794 462/596/794 460/589/794
f 457/595/795 463/598/795 460/589/795
f 458/597/796 464/590/796 460/589/796
f 465/599/797 470/603/797 471/600/797
f 466/602/798 472/605/798 471/600/798
f 467/604/799 473/607/799 471/600/799
f 468/606/800 474/609/800 471/600/800
f 469/608/801 475/601/801 471/600/801
f 476/610/802 481/614/802 482/611/802
f 477/613/803 483/616/803 482/611/803
f 478/615/804 484/618/804 482/611/804
f 479/617/805 485/620/805 482/611/805
f 480/619/806 486/612/806 482/611/806
f 487/621/807 492/625/807 493/622/807
f 488/624/808 494/627/808 493/622/808
f 489/626/809 495/629/809 493/622/809
f 490/628/810 496/631/810 493/622/810
f 491/630/811 497/623/811 493/622/811
f 498/632/812 503/636/812 504/633/812
f 499/635/813 505/696/813 504/633/813
f 500/637/814 506/641/814 504/638/814
f 501/640/815 507/763/815 504/638/815
f 502/642/816 508/634/816 504/633/816
f 509/644/817 514/648/817 515/645/817
f 510/647/818 516/650/818 515/645/818
f 511/649/819 517/652/819 515/645/819
f 512/651/820 518/654/820 515/645/820
f 513/653/821 519/646/821 515/645/821
f 520/655/822 525/659/822 526/656/822
f 521/658/823 527/661/823 526/656/823
f 522/660/824 528/663/824 526/656/824
f 523/662/825 529/665/825 526/656/825
f 524/664/826 530/657/826 526/656/826
f 531/666/827 536/670/827 537/667/827
f 532/669/828 538/672/828 537/667/828
f 533/671/829 539/674/829 537/667/829
f 534/673/830 540/676/830 537/667/830
f 535/675/831 541/668/831 537/667/831
f 542/677/832 547/697/832 548/678/832
f 543/680/833 549/764/833 548/681/833
f 544/683/834 550/700/834 548/684/834
f 545/686/835 551/699/835 548/687/835
f 546/689/836 552/698/836 548/690/836
f 421/550/837 431/552/837 448/692/837
f 448/581/838 431/762/838 425/562/838
f 424/559/322 432/565/322 442/567/322
f 430/564/839 442/567/839 436/574/839
f 435/572/840 445/582/840 450/583/840
f 441/575/841 450/583/841 444/579/841
f 476/610/842 433/568/842 437/569/842
f 481/614/843 437/569/843 432/565/843
f 423/556/844 478/615/844 483/616/844
f 429/561/845 483/616/845 477/613/845
f 454/588/846 422/553/846 426/555/846
f 459/592/847 426/760/847 421/550/847
f 456/593/848 461/594/848 453/578/848
f 453/578/849 461/594/849 455/591/849
f 465/599/850 423/556/850 428/558/850
f 470/603/851 428/761/851 422/553/851
f 467/604/852 472/605/852 464/590/852
f 472/605/853 466/602/853 454/588/853
f 479/617/854 484/618/854 475/601/854
f 484/618/855 478/615/855 465/599/855
f 531/666/856 434/570/856 439/571/856
f 536/670/857 439/571/857 433/568/857
f 480/619/858 533/671/858 538/672/858
f 538/672/859 532/669/859 476/610/859
f 487/621/860 446/584/860 451/585/860
f 451/585/861 445/582/861 488/624/861
f 434/570/862 489/626/862 494/627/862
f 440/573/863 494/627/863 488/624/863
f 498/632/864 457/595/864 462/596/864
f 503/636/865 462/596/865 456/593/865
f 446/584/866 500/637/866 505/639/866
f 505/696/867 499/635/867 447/586/867
f 468/606/868 473/607/868 514/648/868
f 473/607/869 467/604/869 510/647/869
f 457/595/870 511/649/870 516/650/870
f 516/650/871 510/647/871 458/597/871
f 480/619/872 485/620/872 525/659/872
f 485/620/873 479/617/873 521/658/873
f 468/606/874 522/660/874 527/661/874
f 527/661/875 521/658/875 469/608/875
f 490/628/876 495/629/876 541/668/876
f 495/629/877 489/626/877 531/666/877
f 501/640/878 506/641/878 497/623/878
f 506/641/879 500/637/879 487/621/879
f 502/642/322 512/651/322 517/652/322
f 508/634/880 517/652/880 511/649/880
f 513/653/881 523/662/881 528/663/881
f 528/663/882 522/660/882 509/644/882
f 534/673/883 539/674/883 530/657/883
f 539/674/884 533/671/884 520/655/884
f 491/630/885 496/631/885 547/697/885
f 496/631/886 490/628/886 543/680/886
f 534/673/887 544/683/887 549/685/887
f 540/676/888 549/764/888 543/680/888
f 546/689/322 502/642/322 507/643/322
f 552/679/889 507/763/889 501/640/889
f 545/686/890 513/653/890 518/654/890
f 551/691/322 518/654/322 512/651/322
f 544/683/891 524/664/891 529/665/891
f 529/665/892 523/662/892 545/686/892
