# Blender 4.5.10 LTS
# www.blender.org
mtllib grove_spirit_mote.mtl
o grove_spirit_mote
v 0.023068 -0.020473 -0.005858
v 0.023068 -0.020473 0.016826
v 0.001495 -0.020473 0.023836
v -0.011838 -0.020472 0.005484
v 0.001495 -0.020473 -0.012867
v 0.024012 -0.021999 0.005484
v 0.007458 -0.026655 0.005484
v 0.012573 -0.021999 0.021228
v -0.005935 -0.021999 0.015214
v -0.005935 -0.021999 -0.004246
v 0.012573 -0.021999 -0.010260
v -0.011838 -0.020472 0.005484
v -0.023764 -0.001177 0.005484
v -0.017801 0.010749 -0.012867
v -0.002190 -0.001176 -0.024209
v 0.001495 -0.020472 -0.012867
v -0.019327 -0.011768 0.005484
v -0.015294 -0.009275 -0.011046
v -0.022489 0.004786 -0.004246
v -0.011050 0.004786 -0.019990
v -0.000819 -0.011768 -0.019990
v -0.005935 -0.021999 -0.004246
v 0.023069 -0.020472 -0.005858
v 0.001495 -0.020472 -0.012867
v -0.002190 -0.001176 -0.024209
v 0.017106 0.010749 -0.024209
v 0.032716 -0.001176 -0.012868
v 0.012573 -0.021999 -0.010260
v 0.016148 -0.009275 -0.021262
v -0.000819 -0.011768 -0.019990
v 0.007458 0.004786 -0.026004
v 0.025966 0.004786 -0.019990
v 0.029127 -0.011768 -0.010260
v 0.023069 -0.020472 0.016826
v 0.023069 -0.020472 -0.005858
v 0.032717 -0.001176 -0.012867
v 0.038679 0.010749 0.005484
v 0.032717 -0.001176 0.023835
v 0.024012 -0.021999 0.005484
v 0.035580 -0.009275 0.005484
v 0.029128 -0.011768 -0.010260
v 0.037405 0.004787 -0.004246
v 0.037405 0.004787 0.015214
v 0.029128 -0.011768 0.021228
v 0.001495 -0.020472 0.023836
v 0.023069 -0.020472 0.016826
v 0.032716 -0.001176 0.023836
v 0.017106 0.010749 0.035177
v -0.002190 -0.001176 0.035177
v 0.012573 -0.021999 0.021228
v 0.016148 -0.009275 0.032230
v 0.029127 -0.011768 0.021228
v 0.025966 0.004786 0.030958
v 0.007458 0.004786 0.036972
v -0.000819 -0.011768 0.030958
v -0.023764 -0.001177 0.005484
v -0.011838 -0.020472 0.005484
v 0.001495 -0.020472 0.023836
v -0.002190 -0.001176 0.035177
v -0.017801 0.010749 0.023836
v -0.019327 -0.011768 0.005484
v -0.015294 -0.009275 0.022014
v -0.005935 -0.021999 0.015214
v -0.000819 -0.011768 0.030958
v -0.011050 0.004786 0.030958
v -0.022489 0.004786 0.015214
v 0.017106 0.010750 -0.024209
v -0.002190 -0.001176 -0.024209
v -0.017801 0.010750 -0.012868
v -0.008153 0.030046 -0.005858
v 0.013421 0.030046 -0.012867
v 0.007458 0.004787 -0.026004
v -0.001232 0.018848 -0.021262
v -0.011050 0.004787 -0.019990
v -0.014212 0.021341 -0.010260
v 0.002342 0.031572 -0.010260
v 0.015735 0.021341 -0.019990
v 0.038679 0.010750 0.005484
v 0.032717 -0.001176 -0.012867
v 0.017106 0.010750 -0.024209
v 0.013421 0.030046 -0.012867
v 0.026754 0.030046 0.005484
v 0.037405 0.004787 -0.004246
v 0.030209 0.018848 -0.011046
v 0.025966 0.004787 -0.019990
v 0.015735 0.021341 -0.019990
v 0.020851 0.031572 -0.004246
v 0.034243 0.021341 0.005484
v 0.017106 0.010750 0.035177
v 0.032717 -0.001176 0.023836
v 0.038679 0.010750 0.005484
v 0.026754 0.030046 0.005484
v 0.013421 0.030046 0.023836
v 0.025966 0.004787 0.030958
v 0.030209 0.018848 0.022014
v 0.037405 0.004787 0.015214
v 0.034243 0.021341 0.005484
v 0.020851 0.031572 0.015214
v 0.015735 0.021341 0.030958
v -0.017801 0.010750 0.023836
v -0.002190 -0.001176 0.035177
v 0.017106 0.010750 0.035177
v 0.013421 0.030046 0.023836
v -0.008153 0.030046 0.016826
v -0.011050 0.004787 0.030958
v -0.001232 0.018848 0.032230
v 0.007458 0.004787 0.036972
v 0.015735 0.021341 0.030958
v 0.002342 0.031572 0.021228
v -0.014212 0.021341 0.021228
v -0.017801 0.010750 -0.012867
v -0.023764 -0.001176 0.005484
v -0.017801 0.010750 0.023835
v -0.008153 0.030046 0.016826
v -0.008153 0.030046 -0.005858
v -0.022489 0.004787 -0.004246
v -0.020665 0.018848 0.005484
v -0.022489 0.004787 0.015214
v -0.014212 0.021341 0.021228
v -0.009097 0.031572 0.005484
v -0.014212 0.021341 -0.010260
v 0.013421 0.030046 -0.012867
v -0.008153 0.030046 -0.005858
v -0.008153 0.030046 0.016826
v 0.013421 0.030046 0.023836
v 0.026754 0.030046 0.005484
v 0.002342 0.031572 -0.010260
v 0.007458 0.036229 0.005484
v -0.009096 0.031572 0.005484
v 0.002342 0.031572 0.021228
v 0.020851 0.031572 0.015214
v 0.020851 0.031572 -0.004246
vn 0.2257 -0.9517 -0.2081
vn 0.2677 -0.9517 0.1504
vn -0.0603 -0.9517 0.3011
vn -0.3050 -0.9517 0.0357
vn -0.1282 -0.9517 -0.2790
vn -0.6802 -0.6650 -0.3083
vn -0.8874 -0.3717 -0.2726
vn -0.8200 -0.1529 -0.5516
vn -0.5711 -0.3109 -0.7597
vn -0.4847 -0.6275 -0.6094
vn 0.4298 -0.6275 -0.6493
vn 0.0830 -0.6650 -0.7422
vn -0.0150 -0.3717 -0.9282
vn 0.2712 -0.1529 -0.9503
vn 0.5461 -0.3109 -0.7779
vn 0.7503 -0.6275 0.2081
vn 0.7315 -0.6650 -0.1504
vn 0.8782 -0.3717 -0.3011
vn 0.9876 -0.1529 -0.0357
vn 0.9086 -0.3109 0.2790
vn 0.0339 -0.6275 0.7779
vn 0.3690 -0.6650 0.6492
vn 0.5577 -0.3717 0.7422
vn 0.3391 -0.1529 0.9282
vn 0.0154 -0.3109 0.9503
vn -0.8990 -0.3110 0.3083
vn -0.7293 -0.6275 0.2726
vn -0.5034 -0.6650 0.5516
vn -0.5335 -0.3717 0.7597
vn -0.7780 -0.1529 0.6094
vn 0.0150 0.3717 -0.9282
vn -0.2712 0.1529 -0.9503
vn -0.5461 0.3109 -0.7779
vn -0.4298 0.6275 -0.6492
vn -0.0830 0.6650 -0.7422
vn 0.8874 0.3717 -0.2726
vn 0.8200 0.1529 -0.5516
vn 0.5711 0.3109 -0.7597
vn 0.4847 0.6275 -0.6094
vn 0.6802 0.6650 -0.3083
vn 0.5335 0.3717 0.7597
vn 0.7780 0.1529 0.6094
vn 0.8990 0.3110 0.3083
vn 0.7293 0.6275 0.2726
vn 0.5034 0.6650 0.5516
vn -0.5577 0.3717 0.7422
vn -0.3391 0.1529 0.9282
vn -0.0154 0.3109 0.9503
vn -0.0339 0.6275 0.7779
vn -0.3690 0.6650 0.6492
vn -0.8782 0.3717 -0.3011
vn -0.9876 0.1529 -0.0357
vn -0.9086 0.3109 0.2790
vn -0.7503 0.6275 0.2081
vn -0.7315 0.6650 -0.1504
vn 0.1282 0.9517 -0.2790
vn -0.2257 0.9517 -0.2081
vn -0.2677 0.9517 0.1504
vn 0.0603 0.9517 0.3011
vn 0.3050 0.9517 0.0357
vn 0.3036 -0.8456 -0.4391
vn 0.0088 -0.8447 -0.5352
vn -0.4500 -0.8808 -0.1474
vn -0.3109 -0.8446 -0.4358
vn -0.2800 -0.3862 -0.8789
vn -0.2321 -0.6520 -0.7218
vn -0.9224 -0.3862 -0.0000
vn -0.0000 1.0000 -0.0000
vn -0.3276 -0.8440 0.4246
vn 0.7883 -0.0000 -0.6153
vn 0.5152 -0.8430 0.1547
vn 0.5130 -0.8443 -0.1551
vn 0.7522 -0.3877 -0.5328
vn 0.6114 -0.6549 -0.4441
vn -0.0000 -0.8801 0.4748
vn 0.3075 -0.8470 0.4337
vn 0.7454 -0.3869 0.5429
vn 0.6082 -0.6522 0.4525
vn -0.2846 -0.3877 0.8767
vn -0.2338 -0.6524 0.7209
vn -0.8988 0.0894 -0.4291
vn -0.9793 -0.0851 -0.1834
vn -0.8995 0.0852 0.4285
vn -0.9798 -0.0826 0.1821
vn 0.1323 0.0847 -0.9876
vn -0.1326 -0.0884 -0.9872
vn -0.6870 0.0857 -0.7216
vn -0.4718 -0.0732 -0.8787
vn 0.9799 0.0851 -0.1802
vn 0.8996 -0.0869 -0.4280
vn 0.4738 0.0768 -0.8773
vn 0.6879 -0.0851 -0.7208
vn 0.4758 0.0713 0.8767
vn 0.6869 -0.0852 0.7217
vn 0.9788 0.0844 0.1867
vn 0.8961 -0.0762 0.4373
vn -0.6886 0.0809 0.7207
vn -0.4738 -0.0799 0.8770
vn 0.1327 0.0655 0.9890
vn -0.1328 -0.0956 0.9865
vn -0.6188 0.6514 -0.4390
vn -0.7497 0.3858 -0.5378
vn 0.2294 0.6514 -0.7232
vn 0.2765 0.3854 -0.8804
vn 0.7579 0.6524 -0.0000
vn 0.9219 0.3874 -0.0000
vn 0.2675 0.6566 0.7052
vn 0.2840 0.3861 0.8776
vn -0.6126 0.6553 0.4420
vn -0.7487 0.3856 0.5392
vn -0.0126 0.8381 -0.5453
vn -0.3089 0.8434 -0.4397
vn -0.5230 0.8382 0.1545
vn -0.5183 0.8410 -0.1552
vn 0.4557 0.8760 -0.1580
vn 0.3403 0.8360 -0.4304
vn 0.3010 0.8529 0.4265
vn -0.0000 -0.0000 -1.0000
vn -0.3162 0.8419 0.4373
vn -0.0058 0.8522 0.5232
vn 0.4867 -0.7979 -0.3557
vn -0.1723 -0.8122 -0.5573
vn 0.4842 -0.8022 0.3493
vn -0.2039 -0.8157 0.5413
vn -0.9817 -0.1905 -0.0000
vn -0.7953 0.1952 -0.5739
vn -0.2992 -0.1912 -0.9349
vn 0.2988 0.1912 -0.9350
vn 0.7952 -0.1890 -0.5761
vn 0.9816 0.1909 -0.0000
vn 0.7967 -0.1803 0.5768
vn 0.3059 0.1759 0.9357
vn -0.3052 -0.1758 0.9359
vn -0.7969 0.1875 0.5742
vn 0.1960 0.8025 -0.5636
vn -0.4871 0.7986 -0.3536
vn 0.1900 0.8312 0.5225
vn -0.4762 0.8024 0.3596
vn 0.2677 -0.9517 -0.1504
vn 0.2257 -0.9517 0.2081
vn -0.1282 -0.9517 0.2790
vn -0.3050 -0.9517 -0.0357
vn -0.0603 -0.9517 -0.3011
vn -0.7293 -0.6275 -0.2726
vn -0.8990 -0.3110 -0.3083
vn -0.7780 -0.1529 -0.6094
vn -0.5335 -0.3717 -0.7597
vn -0.5034 -0.6650 -0.5516
vn 0.3690 -0.6650 -0.6492
vn 0.0339 -0.6275 -0.7779
vn 0.0154 -0.3109 -0.9503
vn 0.3391 -0.1529 -0.9282
vn 0.5577 -0.3717 -0.7422
vn 0.7315 -0.6650 0.1504
vn 0.7503 -0.6275 -0.2081
vn 0.9086 -0.3109 -0.2790
vn 0.9876 -0.1529 0.0357
vn 0.8782 -0.3717 0.3011
vn 0.0830 -0.6650 0.7422
vn 0.4298 -0.6275 0.6492
vn 0.5461 -0.3109 0.7779
vn 0.2712 -0.1529 0.9503
vn -0.0150 -0.3717 0.9282
vn -0.8874 -0.3717 0.2726
vn -0.6802 -0.6650 0.3083
vn -0.4847 -0.6275 0.6094
vn -0.5711 -0.3109 0.7597
vn -0.8200 -0.1529 0.5516
vn -0.0154 0.3109 -0.9503
vn -0.3391 0.1529 -0.9282
vn -0.5577 0.3717 -0.7422
vn -0.3690 0.6650 -0.6492
vn -0.0339 0.6275 -0.7779
vn 0.8990 0.3110 -0.3083
vn 0.7780 0.1529 -0.6094
vn 0.5335 0.3717 -0.7597
vn 0.5034 0.6650 -0.5516
vn 0.7293 0.6275 -0.2726
vn 0.5711 0.3109 0.7597
vn 0.8200 0.1529 0.5516
vn 0.8874 0.3717 0.2726
vn 0.6802 0.6650 0.3083
vn 0.4847 0.6275 0.6094
vn -0.5461 0.3109 0.7779
vn -0.2712 0.1529 0.9503
vn 0.0150 0.3717 0.9282
vn -0.0830 0.6650 0.7422
vn -0.4298 0.6275 0.6492
vn -0.9086 0.3109 -0.2790
vn -0.9876 0.1529 0.0357
vn -0.8782 0.3717 0.3011
vn -0.7315 0.6650 0.1504
vn -0.7503 0.6275 -0.2081
vn 0.0603 0.9517 -0.3011
vn -0.2677 0.9517 -0.1504
vn -0.2257 0.9517 0.2081
vn 0.1282 0.9517 0.2790
vn 0.3050 0.9517 -0.0357
vn 0.3075 -0.8455 -0.4366
vn 0.0071 -0.8565 -0.5161
vn 0.8240 -0.0000 0.5665
vn -0.3217 -0.8580 -0.4005
vn -0.2815 -0.3853 -0.8788
vn -0.2560 -0.6505 -0.7150
vn -0.9221 -0.3871 -0.0000
vn -0.7578 -0.6525 -0.0000
vn -0.3167 -0.8527 0.4153
vn -0.4303 -0.8875 0.1647
vn 0.5227 -0.8378 0.1576
vn 0.5126 -0.8441 -0.1576
vn 0.7442 -0.3844 -0.5463
vn 0.6175 -0.6526 -0.4390
vn 0.0079 -0.8469 0.5316
vn 0.3044 -0.8425 0.4444
vn 0.7470 -0.3851 0.5420
vn 0.6131 -0.6552 0.4414
vn -0.2805 -0.3863 0.8787
vn -0.2704 -0.6489 0.7112
vn -0.8987 0.0865 -0.4300
vn -0.9815 -0.0780 -0.1748
vn -0.8983 0.0811 0.4318
vn -0.9806 -0.0803 0.1789
vn 0.1329 0.0754 -0.9883
vn -0.1327 -0.0777 -0.9881
vn -0.6860 0.0856 -0.7225
vn -0.4721 -0.0797 -0.8780
vn 0.9812 0.0775 -0.1770
vn 0.9002 -0.0857 -0.4270
vn 0.4726 0.0779 -0.8779
vn 0.6894 -0.0839 -0.7195
vn 0.4724 0.0806 0.8777
vn 0.6902 -0.0758 0.7196
vn 0.9824 0.0823 0.1675
vn 0.8968 -0.0806 0.4351
vn -0.6883 0.0812 0.7209
vn -0.4733 -0.0725 0.8779
vn 0.1323 0.0850 0.9876
vn -0.1325 -0.0857 0.9875
vn -0.6112 0.6532 -0.4469
vn -0.7485 0.3861 -0.5391
vn 0.2553 0.6510 -0.7148
vn 0.2800 0.3871 -0.8785
vn 0.9224 0.3862 -0.0000
vn 0.2327 0.6487 0.7246
vn 0.2848 0.3888 0.8762
vn -0.6086 0.6529 0.4510
vn -0.7423 0.3859 0.5479
vn -0.0000 0.8480 -0.5300
vn -0.3122 0.8384 -0.4467
vn -0.5254 0.8364 0.1565
vn -0.5072 0.8474 -0.1571
vn -0.0000 -0.0000 1.0000
vn 0.3206 0.8551 -0.4075
vn 0.3828 0.8161 0.4330
vn 0.4285 0.8839 0.1875
vn -0.3017 0.8448 0.4420
vn -0.0098 0.8690 0.4947
vt 0.909091 0.104973
vt 0.899366 0.016844
vt 0.954545 0.078730
vt 0.727273 0.104973
vt 0.717548 0.016845
vt 0.772727 0.078729
vt 0.545455 0.104974
vt 0.535730 0.016845
vt 0.590909 0.078730
vt 0.363637 0.104974
vt 0.353912 0.016845
vt 0.409092 0.078731
vt 0.181819 0.104974
vt 0.172094 0.016845
vt 0.227274 0.078731
vt 0.363637 0.104974
vt 0.270783 0.160830
vt 0.272728 0.078731
vt 0.363636 0.209947
vt 0.363637 0.157461
vt 0.272728 0.262433
vt 0.318182 0.236190
vt 0.181819 0.209947
vt 0.227274 0.236190
vt 0.181819 0.104974
vt 0.181819 0.157461
vt 0.909092 0.104974
vt 0.985413 0.149039
vt 0.909092 0.157461
vt 0.181819 0.104974
vt 0.097393 0.168690
vt 0.136364 0.078731
vt 0.181818 0.209947
vt 0.181818 0.157461
vt 0.090910 0.262434
vt 0.136364 0.236190
vt 0.909092 0.209947
vt 0.954546 0.236190
vt 0.727273 0.104974
vt 0.816237 0.160830
vt 0.727274 0.157461
vt 0.909091 0.104974
vt 0.818182 0.078731
vt 0.909090 0.209947
vt 0.909090 0.157461
vt 0.818182 0.262434
vt 0.863636 0.236191
vt 0.727274 0.209947
vt 0.772728 0.236191
vt 0.545455 0.104974
vt 0.634419 0.160830
vt 0.545456 0.157461
vt 0.727272 0.104974
vt 0.636364 0.078731
vt 0.727272 0.209947
vt 0.727272 0.157461
vt 0.636364 0.262434
vt 0.681818 0.236190
vt 0.545456 0.209947
vt 0.590910 0.236190
vt 0.363637 0.209947
vt 0.452601 0.160830
vt 0.409092 0.236190
vt 0.363637 0.157461
vt 0.545455 0.104974
vt 0.454546 0.078731
vt 0.545455 0.209947
vt 0.545455 0.157461
vt 0.454546 0.262433
vt 0.500000 0.236190
vt 0.090911 0.262435
vt 0.183764 0.311552
vt 0.090910 0.314921
vt 0.181819 0.209948
vt 0.136365 0.236192
vt 0.272727 0.262435
vt 0.227273 0.236192
vt 0.272727 0.367408
vt 0.272727 0.314921
vt 0.090910 0.367408
vt 0.181819 0.393651
vt 0.818182 0.262435
vt 0.902608 0.303692
vt 0.818182 0.314921
vt 0.909091 0.209949
vt 0.863637 0.236192
vt 0.090909 0.262435
vt 0.014587 0.323343
vt 0.045454 0.236192
vt 0.090909 0.367408
vt 0.090909 0.314921
vt 0.818182 0.367408
vt 0.863637 0.393651
vt 0.636364 0.262435
vt 0.729218 0.311552
vt 0.636364 0.314921
vt 0.727273 0.209949
vt 0.681819 0.236192
vt 0.818181 0.262435
vt 0.772727 0.236192
vt 0.818182 0.367408
vt 0.818182 0.314921
vt 0.636364 0.367408
vt 0.727273 0.393651
vt 0.454547 0.262435
vt 0.547400 0.311552
vt 0.454547 0.314921
vt 0.545455 0.209948
vt 0.500001 0.236192
vt 0.636363 0.262435
vt 0.590909 0.236192
vt 0.636364 0.367408
vt 0.636363 0.314921
vt 0.454547 0.367408
vt 0.545455 0.393651
vt 0.272729 0.262435
vt 0.365582 0.311552
vt 0.272729 0.314921
vt 0.363637 0.209948
vt 0.318183 0.236191
vt 0.454545 0.262435
vt 0.409091 0.236191
vt 0.454546 0.367408
vt 0.454545 0.314921
vt 0.272728 0.367408
vt 0.363637 0.393651
vt 0.090910 0.367408
vt 0.100635 0.455537
vt 0.045455 0.393651
vt 0.272728 0.367409
vt 0.282453 0.455538
vt 0.227274 0.393652
vt 0.454546 0.367409
vt 0.464271 0.455537
vt 0.409092 0.393653
vt 0.636364 0.367408
vt 0.646089 0.455537
vt 0.590910 0.393652
vt 0.827907 0.455537
vt 0.772727 0.393651
vt 0.954546 0.078731
vt 0.136365 0.078730
vt 0.318182 0.078731
vt 0.500000 0.078731
vt 0.863637 0.078729
vt 0.681819 0.078730
vt 0.045455 0.236190
vt 0.954545 0.236192
vt 0.136364 0.393652
vt 0.863637 0.393651
vt 0.681819 0.393651
vt 0.500000 0.393652
vt 0.045455 0.393651
vt 0.318182 0.393653
s 0
usemtl core
f 1/1/1 7/2/1 11/3/1
f 2/4/2 7/5/2 6/6/2
f 3/7/3 7/8/3 8/9/3
f 4/10/4 7/11/4 9/12/4
f 5/13/5 7/14/5 10/15/5
f 12/16/6 18/17/6 22/18/6
f 13/19/7 18/17/7 17/20/7
f 14/21/8 18/17/8 19/22/8
f 15/23/9 18/17/9 20/24/9
f 16/25/10 18/17/10 21/26/10
f 23/27/11 29/28/11 33/29/11
f 24/30/12 29/31/12 28/32/12
f 25/33/13 29/31/13 30/34/13
f 26/35/14 29/31/14 31/36/14
f 27/37/15 29/28/15 32/38/15
f 34/39/16 40/40/16 44/41/16
f 35/42/17 40/40/17 39/43/17
f 36/44/18 40/40/18 41/45/18
f 37/46/19 40/40/19 42/47/19
f 38/48/20 40/40/20 43/49/20
f 45/50/21 51/51/21 55/52/21
f 46/53/22 51/51/22 50/54/22
f 47/55/23 51/51/23 52/56/23
f 48/57/24 51/51/24 53/58/24
f 49/59/25 51/51/25 54/60/25
f 56/61/26 62/62/26 66/63/26
f 57/16/27 62/62/27 61/64/27
f 58/65/28 62/62/28 63/66/28
f 59/67/29 62/62/29 64/68/29
f 60/69/30 62/62/30 65/70/30
f 67/71/31 73/72/31 77/73/31
f 68/74/32 73/72/32 72/75/32
f 69/76/33 73/72/33 74/77/33
f 70/78/34 73/72/34 75/79/34
f 71/80/35 73/72/35 76/81/35
f 78/82/36 84/83/36 88/84/36
f 79/85/37 84/83/37 83/86/37
f 80/87/38 84/88/38 85/89/38
f 81/90/39 84/88/39 86/91/39
f 82/92/40 84/83/40 87/93/40
f 89/94/41 95/95/41 99/96/41
f 90/97/42 95/95/42 94/98/42
f 91/99/43 95/95/43 96/100/43
f 92/101/44 95/95/44 97/102/44
f 93/103/45 95/95/45 98/104/45
f 100/105/46 106/106/46 110/107/46
f 101/108/47 106/106/47 105/109/47
f 102/110/48 106/106/48 107/111/48
f 103/112/49 106/106/49 108/113/49
f 104/114/50 106/106/50 109/115/50
f 111/116/51 117/117/51 121/118/51
f 112/119/52 117/117/52 116/120/52
f 113/121/53 117/117/53 118/122/53
f 114/123/54 117/117/54 119/124/54
f 115/125/55 117/117/55 120/126/55
f 122/127/56 128/128/56 132/129/56
f 123/130/57 128/131/57 127/132/57
f 124/133/58 128/134/58 129/135/58
f 125/136/59 128/137/59 130/138/59
f 126/101/60 128/139/60 131/140/60
f 1/1/61 28/141/61 23/27/61
f 11/142/62 24/30/62 28/32/62
f 4/10/63 22/18/63 10/143/63
f 10/15/64 16/25/64 5/13/64
f 15/23/65 30/34/65 21/26/65
f 30/34/66 16/25/66 21/26/66
f 13/19/67 61/64/67 56/61/67
f 61/64/68 12/16/68 57/16/68
f 3/7/69 63/66/69 9/144/69
f 9/12/70 57/16/70 4/10/70
f 34/39/71 6/6/71 39/43/71
f 6/145/72 35/42/72 39/43/72
f 36/44/73 33/29/73 27/37/73
f 33/29/74 35/42/74 23/27/74
f 3/7/75 50/54/75 45/50/75
f 8/146/76 46/53/76 50/54/76
f 38/48/77 52/56/77 44/41/77
f 52/56/78 34/39/78 44/41/78
f 59/67/79 55/52/79 49/59/79
f 64/68/80 45/50/80 55/52/80
f 14/21/81 116/120/81 111/116/81
f 116/120/82 13/19/82 112/119/82
f 113/121/83 66/63/83 60/69/83
f 66/63/84 112/119/84 56/61/84
f 26/35/85 72/75/85 67/71/85
f 72/75/86 25/33/86 68/74/86
f 69/76/87 20/24/87 14/21/87
f 20/24/88 68/74/88 15/23/88
f 37/46/89 83/86/89 78/82/89
f 42/47/90 79/85/90 83/86/90
f 26/35/91 85/89/91 32/147/91
f 85/148/92 27/37/92 32/38/92
f 48/57/93 94/98/93 89/94/93
f 53/58/94 90/97/94 94/98/94
f 37/46/95 96/100/95 43/49/95
f 96/100/96 38/48/96 43/49/96
f 60/69/97 105/109/97 100/105/97
f 65/70/98 101/108/98 105/109/98
f 48/57/99 107/111/99 54/60/99
f 54/60/100 101/108/100 49/59/100
f 115/125/101 75/79/101 121/118/101
f 75/79/102 111/116/102 121/118/102
f 71/80/103 86/91/103 77/73/103
f 77/73/104 80/87/104 67/71/104
f 82/92/105 97/102/105 88/84/105
f 97/102/106 78/82/106 88/84/106
f 103/112/107 99/96/107 93/103/107
f 99/96/108 102/110/108 89/94/108
f 114/123/109 110/107/109 104/114/109
f 110/107/110 113/121/110 100/105/110
f 122/127/111 76/81/111 127/149/111
f 127/132/112 70/78/112 123/130/112
f 114/123/113 129/135/113 120/126/113
f 120/126/114 123/130/114 115/125/114
f 126/101/115 87/93/115 132/150/115
f 132/129/116 81/90/116 122/127/116
f 93/103/117 131/151/117 125/136/117
f 131/140/118 92/101/118 126/101/118
f 124/133/119 109/115/119 130/152/119
f 109/115/120 125/136/120 130/138/120
f 1/1/121 23/27/121 35/42/121
f 5/13/122 16/25/122 24/30/122
f 12/16/68 4/10/68 57/16/68
f 2/4/123 34/39/123 46/53/123
f 3/7/124 45/50/124 58/65/124
f 13/19/125 56/61/125 112/119/125
f 14/21/126 111/116/126 69/76/126
f 25/33/127 15/23/127 68/74/127
f 26/35/128 67/71/128 80/87/128
f 36/44/129 27/37/129 79/85/129
f 37/46/130 78/82/130 91/99/130
f 47/55/131 38/48/131 90/97/131
f 48/57/132 89/94/132 102/110/132
f 59/67/133 49/59/133 101/108/133
f 60/69/134 100/105/134 113/121/134
f 81/90/135 71/80/135 122/127/135
f 70/78/136 115/125/136 123/130/136
f 92/101/68 82/92/68 126/101/68
f 103/112/137 93/103/137 125/136/137
f 114/123/138 104/114/138 124/133/138
f 1/1/139 6/145/139 7/2/139
f 2/4/140 8/146/140 7/5/140
f 3/7/141 9/144/141 7/8/141
f 4/10/142 10/143/142 7/11/142
f 5/13/143 11/142/143 7/14/143
f 12/16/144 17/20/144 18/17/144
f 13/19/145 19/22/145 18/17/145
f 14/21/146 20/24/146 18/17/146
f 15/23/147 21/26/147 18/17/147
f 16/25/148 22/18/148 18/17/148
f 23/27/149 28/141/149 29/28/149
f 24/30/150 30/34/150 29/31/150
f 25/33/151 31/36/151 29/31/151
f 26/35/152 32/147/152 29/31/152
f 27/37/153 33/29/153 29/28/153
f 34/39/154 39/43/154 40/40/154
f 35/42/155 41/45/155 40/40/155
f 36/44/156 42/47/156 40/40/156
f 37/46/157 43/49/157 40/40/157
f 38/48/158 44/41/158 40/40/158
f 45/50/159 50/54/159 51/51/159
f 46/53/160 52/56/160 51/51/160
f 47/55/161 53/58/161 51/51/161
f 48/57/162 54/60/162 51/51/162
f 49/59/163 55/52/163 51/51/163
f 56/61/164 61/64/164 62/62/164
f 57/16/165 63/66/165 62/62/165
f 58/65/166 64/68/166 62/62/166
f 59/67/167 65/70/167 62/62/167
f 60/69/168 66/63/168 62/62/168
f 67/71/169 72/75/169 73/72/169
f 68/74/170 74/77/170 73/72/170
f 69/76/171 75/79/171 73/72/171
f 70/78/172 76/81/172 73/72/172
f 71/80/173 77/73/173 73/72/173
f 78/82/174 83/86/174 84/83/174
f 79/85/175 85/148/175 84/83/175
f 80/87/176 86/91/176 84/88/176
f 81/90/177 87/153/177 84/88/177
f 82/92/178 88/84/178 84/83/178
f 89/94/179 94/98/179 95/95/179
f 90/97/180 96/100/180 95/95/180
f 91/99/181 97/102/181 95/95/181
f 92/101/182 98/104/182 95/95/182
f 93/103/183 99/96/183 95/95/183
f 100/105/184 105/109/184 106/106/184
f 101/108/185 107/111/185 106/106/185
f 102/110/186 108/113/186 106/106/186
f 103/112/187 109/115/187 106/106/187
f 104/114/188 110/107/188 106/106/188
f 111/116/189 116/120/189 117/117/189
f 112/119/190 118/122/190 117/117/190
f 113/121/191 119/124/191 117/117/191
f 114/123/192 120/126/192 117/117/192
f 115/125/193 121/118/193 117/117/193
f 122/127/194 127/149/194 128/128/194
f 123/130/195 129/154/195 128/131/195
f 124/133/196 130/152/196 128/134/196
f 125/136/197 131/151/197 128/137/197
f 126/101/198 132/150/198 128/139/198
f 1/1/199 11/3/199 28/141/199
f 11/142/200 5/13/200 24/30/200
f 4/10/201 12/16/201 22/18/201
f 10/15/202 22/18/202 16/25/202
f 15/23/203 25/33/203 30/34/203
f 30/34/204 24/30/204 16/25/204
f 13/19/205 17/20/205 61/64/205
f 61/64/206 17/20/206 12/16/206
f 3/7/207 58/65/207 63/66/207
f 9/12/208 63/66/208 57/16/208
f 34/39/209 2/4/209 6/6/209
f 6/145/210 1/1/210 35/42/210
f 36/44/211 41/45/211 33/29/211
f 33/29/212 41/45/212 35/42/212
f 3/7/213 8/9/213 50/54/213
f 8/146/214 2/4/214 46/53/214
f 38/48/215 47/55/215 52/56/215
f 52/56/216 46/53/216 34/39/216
f 59/67/217 64/68/217 55/52/217
f 64/68/218 58/65/218 45/50/218
f 14/21/219 19/22/219 116/120/219
f 116/120/220 19/22/220 13/19/220
f 113/121/221 118/122/221 66/63/221
f 66/63/222 118/122/222 112/119/222
f 26/35/223 31/36/223 72/75/223
f 72/75/224 31/36/224 25/33/224
f 69/76/225 74/77/225 20/24/225
f 20/24/226 74/77/226 68/74/226
f 37/46/227 42/47/227 83/86/227
f 42/47/228 36/44/228 79/85/228
f 26/35/229 80/87/229 85/89/229
f 85/148/230 79/85/230 27/37/230
f 48/57/231 53/58/231 94/98/231
f 53/58/232 47/55/232 90/97/232
f 37/46/233 91/99/233 96/100/233
f 96/100/234 90/97/234 38/48/234
f 60/69/235 65/70/235 105/109/235
f 65/70/236 59/67/236 101/108/236
f 48/57/237 102/110/237 107/111/237
f 54/60/238 107/111/238 101/108/238
f 115/125/239 70/78/239 75/79/239
f 75/79/240 69/76/240 111/116/240
f 71/80/241 81/90/241 86/91/241
f 77/73/242 86/91/242 80/87/242
f 82/92/68 92/101/68 97/102/68
f 97/102/243 91/99/243 78/82/243
f 103/112/244 108/113/244 99/96/244
f 99/96/245 108/113/245 102/110/245
f 114/123/246 119/124/246 110/107/246
f 110/107/247 119/124/247 113/121/247
f 122/127/248 71/80/248 76/81/248
f 127/132/249 76/81/249 70/78/249
f 114/123/250 124/133/250 129/135/250
f 120/126/251 129/154/251 123/130/251
f 126/101/252 82/92/252 87/93/252
f 132/129/253 87/153/253 81/90/253
f 93/103/254 98/104/254 131/151/254
f 131/140/255 98/104/255 92/101/255
f 124/133/256 104/114/256 109/115/256
f 109/115/257 103/112/257 125/136/257
