# Blender 4.5.10 LTS
# www.blender.org
mtllib grove_spirit.mtl
o grove_spirit
v 0.160000 0.010000 0.100000
v 0.160000 0.870000 0.070000
v 0.073397 0.010000 0.050000
v 0.099378 0.870000 0.035000
v 0.073397 0.010000 -0.050000
v 0.099378 0.870000 -0.035000
v 0.160000 0.010000 -0.100000
v 0.160000 0.870000 -0.070000
v 0.246603 0.010000 -0.050000
v 0.220622 0.870000 -0.035000
v 0.246603 0.010000 0.050000
v 0.220622 0.870000 0.035000
v 0.240000 0.005000 -0.150000
v 0.240000 0.095000 -0.150000
v 0.240000 0.005000 0.070000
v 0.240000 0.095000 0.070000
v 0.080000 0.005000 -0.150000
v 0.080000 0.095000 -0.150000
v 0.080000 0.005000 0.070000
v 0.080000 0.095000 0.070000
v -0.160000 0.010000 0.100000
v -0.160000 0.870000 0.070000
v -0.246603 0.010000 0.050000
v -0.220622 0.870000 0.035000
v -0.246603 0.010000 -0.050000
v -0.220622 0.870000 -0.035000
v -0.160000 0.010000 -0.100000
v -0.160000 0.870000 -0.070000
v -0.073397 0.010000 -0.050000
v -0.099378 0.870000 -0.035000
v -0.073397 0.010000 0.050000
v -0.099378 0.870000 0.035000
v -0.080000 0.005000 -0.150000
v -0.080000 0.095000 -0.150000
v -0.080000 0.005000 0.070000
v -0.080000 0.095000 0.070000
v -0.240000 0.005000 -0.150000
v -0.240000 0.095000 -0.150000
v -0.240000 0.005000 0.070000
v -0.240000 0.095000 0.070000
v 0.000000 0.820000 0.230000
v 0.000000 0.980000 0.190000
v -0.199186 0.820000 0.115000
v -0.164545 0.980000 0.095000
v -0.199186 0.820000 -0.115000
v -0.164545 0.980000 -0.095000
v 0.000000 0.820000 -0.230000
v 0.000000 0.980000 -0.190000
v 0.199186 0.820000 -0.115000
v 0.164545 0.980000 -0.095000
v 0.199186 0.820000 0.115000
v 0.164545 0.980000 0.095000
v 0.000000 1.320000 0.200000
v 0.000000 1.480000 0.230000
v -0.173205 1.320000 0.100000
v -0.199186 1.480000 0.115000
v -0.173205 1.320000 -0.100000
v -0.199186 1.480000 -0.115000
v 0.000000 1.320000 -0.200000
v 0.000000 1.480000 -0.230000
v 0.173205 1.320000 -0.100000
v 0.199186 1.480000 -0.115000
v 0.173205 1.320000 0.100000
v 0.199186 1.480000 0.115000
v 0.085000 0.980000 -0.085000
v 0.085000 1.320000 -0.085000
v 0.085000 0.980000 0.085000
v 0.085000 1.320000 0.085000
v -0.085000 0.980000 -0.085000
v -0.085000 1.320000 -0.085000
v -0.085000 0.980000 0.085000
v -0.085000 1.320000 0.085000
v -0.128139 0.900000 0.081480
v -0.128139 1.400000 0.081480
v -0.128139 0.900000 0.136480
v -0.128139 1.400000 0.136480
v -0.183139 0.900000 0.081480
v -0.183139 1.400000 0.081480
v -0.183139 0.900000 0.136480
v -0.183139 1.400000 0.136480
v 0.183139 0.900000 0.081480
v 0.183139 1.400000 0.081480
v 0.183139 0.900000 0.136480
v 0.183139 1.400000 0.136480
v 0.128139 0.900000 0.081480
v 0.128139 1.400000 0.081480
v 0.128139 0.900000 0.136480
v 0.128139 1.400000 0.136480
v 0.183139 0.900000 -0.136480
v 0.183139 1.400000 -0.136480
v 0.183139 0.900000 -0.081480
v 0.183139 1.400000 -0.081480
v 0.128139 0.900000 -0.136480
v 0.128139 1.400000 -0.136480
v 0.128139 0.900000 -0.081480
v 0.128139 1.400000 -0.081480
v -0.128139 0.900000 -0.136480
v -0.128139 1.400000 -0.136480
v -0.128139 0.900000 -0.081480
v -0.128139 1.400000 -0.081480
v -0.183139 0.900000 -0.136480
v -0.183139 1.400000 -0.136480
v -0.183139 0.900000 -0.081480
v -0.183139 1.400000 -0.081480
v 0.000000 1.460000 0.190000
v 0.000000 1.660000 0.130000
v -0.164545 1.460000 0.095000
v -0.112583 1.660000 0.065000
v -0.164545 1.460000 -0.095000
v -0.112583 1.660000 -0.065000
v 0.000000 1.460000 -0.190000
v 0.000000 1.660000 -0.130000
v 0.164545 1.460000 -0.095000
v 0.112583 1.660000 -0.065000
v 0.164545 1.460000 0.095000
v 0.112583 1.660000 0.065000
v 0.412075 0.979460 -0.005000
v 0.213703 1.524482 -0.005000
v 0.412075 0.979460 0.065000
v 0.213703 1.524482 0.065000
v 0.346297 0.955518 -0.005000
v 0.147925 1.500540 -0.005000
v 0.346297 0.955518 0.065000
v 0.147925 1.500540 0.065000
v 0.483883 0.618704 0.020000
v 0.404005 1.071715 0.020000
v 0.483883 0.618704 0.080000
v 0.404005 1.071715 0.080000
v 0.424795 0.608285 0.020000
v 0.344917 1.061296 0.020000
v 0.424795 0.608285 0.080000
v 0.344917 1.061296 0.080000
v -0.346297 0.955518 -0.005000
v -0.147925 1.500540 -0.005000
v -0.346297 0.955518 0.065000
v -0.147925 1.500540 0.065000
v -0.412075 0.979460 -0.005000
v -0.213703 1.524482 -0.005000
v -0.412075 0.979460 0.065000
v -0.213703 1.524482 0.065000
v -0.424795 0.608285 0.020000
v -0.344917 1.061296 0.020000
v -0.424795 0.608285 0.080000
v -0.344917 1.061296 0.080000
v -0.483883 0.618704 0.020000
v -0.404005 1.071715 0.020000
v -0.483883 0.618704 0.080000
v -0.404005 1.071715 0.080000
v 0.000000 1.670000 0.140000
v 0.000000 1.930000 0.110000
v -0.129904 1.670000 0.065000
v -0.103923 1.930000 0.050000
v -0.129904 1.670000 -0.085000
v -0.103923 1.930000 -0.070000
v 0.000000 1.670000 -0.160000
v 0.000000 1.930000 -0.130000
v 0.129904 1.670000 -0.085000
v 0.103923 1.930000 -0.070000
v 0.129904 1.670000 0.065000
v 0.103923 1.930000 0.050000
v 0.055000 1.795000 -0.150000
v 0.055000 1.845000 -0.150000
v 0.055000 1.795000 -0.110000
v 0.055000 1.845000 -0.110000
v -0.055000 1.795000 -0.150000
v -0.055000 1.845000 -0.150000
v -0.055000 1.795000 -0.110000
v -0.055000 1.845000 -0.110000
v 0.038179 1.871674 -0.005000
v 0.225968 2.224853 -0.005000
v 0.038179 1.871674 0.045000
v 0.225968 2.224853 0.045000
v -0.005968 1.895147 -0.005000
v 0.181821 2.248326 -0.005000
v -0.005968 1.895147 0.045000
v 0.181821 2.248326 0.045000
v 0.198950 2.160264 0.005000
v 0.403833 2.320336 0.005000
v 0.198950 2.160264 0.055000
v 0.403833 2.320336 0.055000
v 0.168167 2.199664 0.005000
v 0.373050 2.359736 0.005000
v 0.168167 2.199664 0.055000
v 0.373050 2.359736 0.055000
v 0.005968 1.895147 -0.005000
v -0.181821 2.248326 -0.005000
v 0.005968 1.895147 0.045000
v -0.181821 2.248326 0.045000
v -0.038179 1.871674 -0.005000
v -0.225968 2.224853 -0.005000
v -0.038179 1.871674 0.045000
v -0.225968 2.224853 0.045000
v -0.168167 2.199664 0.005000
v -0.373050 2.359736 0.005000
v -0.168167 2.199664 0.055000
v -0.373050 2.359736 0.055000
v -0.198950 2.160264 0.005000
v -0.403833 2.320336 0.005000
v -0.198950 2.160264 0.055000
v -0.403833 2.320336 0.055000
vn -0.4998 0.0302 0.8656
vn -0.9995 0.0302 -0.0000
vn -0.4998 0.0302 -0.8656
vn 0.4998 0.0302 -0.8656
vn -0.0000 1.0000 -0.0000
vn 0.9995 0.0302 -0.0000
vn 0.4998 0.0302 0.8656
vn -0.0000 -1.0000 -0.0000
vn 1.0000 -0.0000 -0.0000
vn -0.0000 -0.0000 1.0000
vn -1.0000 -0.0000 -0.0000
vn -0.0000 -0.0000 -1.0000
vn -0.4887 0.2116 0.8464
vn -0.9774 0.2116 -0.0000
vn -0.4887 0.2116 -0.8464
vn 0.4887 0.2116 -0.8464
vn 0.9774 0.2116 -0.0000
vn 0.4887 0.2116 0.8464
vn -0.4935 -0.1603 0.8548
vn -0.9871 -0.1603 -0.0000
vn -0.4935 -0.1603 -0.8548
vn 0.4935 -0.1603 -0.8548
vn 0.9871 -0.1603 -0.0000
vn 0.4935 -0.1603 0.8548
vn -0.4839 0.2515 0.8382
vn -0.9679 0.2515 -0.0000
vn -0.4839 0.2515 -0.8382
vn 0.4839 0.2515 -0.8382
vn 0.9679 0.2515 -0.0000
vn 0.4839 0.2515 0.8382
vn 0.9397 0.3420 -0.0000
vn -0.9397 -0.3420 -0.0000
vn 0.3420 -0.9397 -0.0000
vn -0.3420 0.9397 -0.0000
vn 0.9848 0.1736 -0.0000
vn -0.9848 -0.1736 -0.0000
vn 0.1736 -0.9848 -0.0000
vn -0.1736 0.9848 -0.0000
vn 0.9397 -0.3420 -0.0000
vn -0.9397 0.3420 -0.0000
vn -0.3420 -0.9397 -0.0000
vn 0.3420 0.9397 -0.0000
vn 0.9848 -0.1736 -0.0000
vn -0.9848 0.1736 -0.0000
vn -0.1736 -0.9848 -0.0000
vn 0.1736 0.9848 -0.0000
vn -0.4975 0.0994 0.8617
vn -0.9950 0.0994 -0.0000
vn -0.4975 0.0994 -0.8617
vn 0.4975 0.0994 -0.8617
vn 0.9950 0.0994 -0.0000
vn 0.4975 0.0994 0.8617
vn 0.8829 -0.4695 -0.0000
vn -0.8829 0.4695 -0.0000
vn -0.4695 -0.8829 -0.0000
vn 0.4695 0.8829 -0.0000
vn 0.6157 -0.7880 -0.0000
vn -0.6157 0.7880 -0.0000
vn -0.7880 -0.6157 -0.0000
vn 0.7880 0.6157 -0.0000
vn 0.8829 0.4695 -0.0000
vn -0.8829 -0.4695 -0.0000
vn 0.4695 -0.8829 -0.0000
vn -0.4695 0.8829 -0.0000
vn 0.6157 0.7880 -0.0000
vn -0.6157 -0.7880 -0.0000
vn 0.7880 -0.6157 -0.0000
vn -0.7880 0.6157 -0.0000
vt 1.000000 1.000000
vt 0.833333 0.500000
vt 1.000000 0.500000
vt 0.833333 1.000000
vt 0.666667 0.500000
vt 0.666667 1.000000
vt 0.500000 0.500000
vt 0.500000 1.000000
vt 0.333333 0.500000
vt 0.250000 0.490000
vt 0.042154 0.130000
vt 0.457846 0.130000
vt 0.333333 1.000000
vt 0.166667 0.500000
vt 0.166667 1.000000
vt -0.000000 0.500000
vt 0.957846 0.370000
vt 0.750000 0.010000
vt 0.542154 0.370000
vt 0.625000 0.000000
vt 0.375000 0.250000
vt 0.375000 0.000000
vt 0.625000 0.250000
vt 0.375000 0.500000
vt 0.625000 0.500000
vt 0.375000 0.750000
vt 0.625000 0.750000
vt 0.375000 1.000000
vt 0.125000 0.750000
vt 0.125000 0.500000
vt 0.875000 0.500000
vt 0.250000 0.490000
vt 0.042154 0.130000
vt 0.457846 0.130000
vt 0.957846 0.370000
vt 0.542154 0.370000
vt 0.042154 0.130000
vt 0.457846 0.130000
vt 0.042154 0.130000
vt 0.625000 1.000000
vt -0.000000 1.000000
vt 0.457846 0.370000
vt 0.042154 0.370000
vt 0.250000 0.010000
vt 0.750000 0.490000
vt 0.957846 0.130000
vt 0.542154 0.130000
vt 0.875000 0.750000
vt 0.250000 0.010000
vt 0.957846 0.130000
vt 0.542154 0.130000
vt 0.457846 0.370000
vt 0.042154 0.370000
vt 0.042154 0.370000
s 0
usemtl bark
f 2/1/1 3/2/1 1/3/1
f 4/4/2 5/5/2 3/2/2
f 6/6/3 7/7/3 5/5/3
f 8/8/4 9/9/4 7/7/4
f 2/10/5 10/11/5 6/12/5
f 10/13/6 11/14/6 9/9/6
f 12/15/7 1/16/7 11/14/7
f 3/17/8 7/18/8 11/19/8
f 14/20/9 15/21/9 13/22/9
f 16/23/10 19/24/10 15/21/10
f 20/25/11 17/26/11 19/24/11
f 18/27/12 13/28/12 17/26/12
f 19/24/8 13/29/8 15/30/8
f 16/31/5 18/27/5 20/25/5
f 22/1/1 23/2/1 21/3/1
f 24/4/2 25/5/2 23/2/2
f 26/6/3 27/7/3 25/5/3
f 28/8/4 29/9/4 27/7/4
f 22/10/5 30/11/5 26/12/5
f 30/13/6 31/14/6 29/9/6
f 32/15/7 21/16/7 31/14/7
f 23/17/8 27/18/8 31/19/8
f 34/20/9 35/21/9 33/22/9
f 36/23/10 39/24/10 35/21/10
f 40/25/11 37/26/11 39/24/11
f 38/27/12 33/28/12 37/26/12
f 39/24/8 33/29/8 35/30/8
f 36/31/5 38/27/5 40/25/5
f 42/1/13 43/2/13 41/3/13
f 43/2/14 46/6/14 45/5/14
f 46/6/15 47/7/15 45/5/15
f 48/8/16 49/9/16 47/7/16
f 42/32/5 50/33/5 46/34/5
f 49/9/17 52/15/17 51/14/17
f 52/15/18 41/16/18 51/14/18
f 43/35/8 47/18/8 51/36/8
f 54/1/19 55/2/19 53/3/19
f 56/4/20 57/5/20 55/2/20
f 58/6/21 59/7/21 57/5/21
f 60/8/22 61/9/22 59/7/22
f 54/32/5 62/37/5 58/38/5
f 62/13/23 63/14/23 61/9/23
f 64/15/24 53/16/24 63/14/24
f 55/17/8 59/18/8 63/19/8
f 74/20/9 75/21/9 73/22/9
f 76/23/10 79/24/10 75/21/10
f 80/25/11 77/26/11 79/24/11
f 78/27/12 73/28/12 77/26/12
f 79/24/8 73/29/8 75/30/8
f 76/31/5 78/27/5 80/25/5
f 82/20/9 83/21/9 81/22/9
f 84/23/10 87/24/10 83/21/10
f 88/25/11 85/26/11 87/24/11
f 86/27/12 81/28/12 85/26/12
f 87/24/8 81/29/8 83/30/8
f 84/31/5 86/27/5 88/25/5
f 90/20/9 91/21/9 89/22/9
f 92/23/10 95/24/10 91/21/10
f 96/25/11 93/26/11 95/24/11
f 94/27/12 89/28/12 93/26/12
f 95/24/8 89/29/8 91/30/8
f 92/31/5 94/27/5 96/25/5
f 98/20/9 99/21/9 97/22/9
f 100/23/10 103/24/10 99/21/10
f 104/25/11 101/26/11 103/24/11
f 102/27/12 97/28/12 101/26/12
f 103/24/8 97/29/8 99/30/8
f 100/31/5 102/27/5 104/25/5
f 118/20/31 119/21/31 117/22/31
f 119/21/10 124/25/10 123/24/10
f 124/25/32 121/26/32 123/24/32
f 121/26/12 118/40/12 117/28/12
f 123/24/33 117/29/33 119/30/33
f 120/31/34 122/27/34 124/25/34
f 126/20/35 127/21/35 125/22/35
f 128/23/10 131/24/10 127/21/10
f 132/25/36 129/26/36 131/24/36
f 130/27/12 125/28/12 129/26/12
f 131/24/37 125/29/37 127/30/37
f 128/31/38 130/27/38 132/25/38
f 134/20/39 135/21/39 133/22/39
f 135/21/10 140/25/10 139/24/10
f 140/25/40 137/26/40 139/24/40
f 137/26/12 134/40/12 133/28/12
f 139/24/41 133/29/41 135/30/41
f 136/31/42 138/27/42 140/25/42
f 142/20/43 143/21/43 141/22/43
f 144/23/10 147/24/10 143/21/10
f 148/25/44 145/26/44 147/24/44
f 146/27/12 141/28/12 145/26/12
f 147/24/45 141/29/45 143/30/45
f 144/31/46 146/27/46 148/25/46
f 149/3/47 152/4/47 151/2/47
f 152/4/48 153/5/48 151/2/48
f 154/6/49 155/7/49 153/5/49
f 156/8/50 157/9/50 155/7/50
f 150/32/5 158/39/5 154/38/5
f 158/13/51 159/14/51 157/9/51
f 159/14/52 150/41/52 149/16/52
f 151/17/8 155/18/8 159/19/8
f 170/20/53 171/21/53 169/22/53
f 172/23/10 175/24/10 171/21/10
f 176/25/54 173/26/54 175/24/54
f 174/27/12 169/28/12 173/26/12
f 175/24/55 169/29/55 171/30/55
f 172/31/56 174/27/56 176/25/56
f 178/20/57 179/21/57 177/22/57
f 179/21/10 184/25/10 183/24/10
f 184/25/58 181/26/58 183/24/58
f 182/27/12 177/28/12 181/26/12
f 183/24/59 177/29/59 179/30/59
f 180/31/60 182/27/60 184/25/60
f 186/20/61 187/21/61 185/22/61
f 187/21/10 192/25/10 191/24/10
f 192/25/62 189/26/62 191/24/62
f 190/27/12 185/28/12 189/26/12
f 191/24/63 185/29/63 187/30/63
f 188/31/64 190/27/64 192/25/64
f 194/20/65 195/21/65 193/22/65
f 196/23/10 199/24/10 195/21/10
f 200/25/66 197/26/66 199/24/66
f 197/26/12 194/40/12 193/28/12
f 199/24/67 193/29/67 195/30/67
f 196/31/68 198/27/68 200/25/68
f 2/1/1 4/4/1 3/2/1
f 4/4/2 6/6/2 5/5/2
f 6/6/3 8/8/3 7/7/3
f 8/8/4 10/13/4 9/9/4
f 6/12/5 4/42/5 2/10/5
f 2/10/5 12/43/5 10/11/5
f 10/11/5 8/44/5 6/12/5
f 10/13/6 12/15/6 11/14/6
f 12/15/7 2/41/7 1/16/7
f 11/19/8 1/45/8 3/17/8
f 3/17/8 5/46/8 7/18/8
f 7/18/8 9/47/8 11/19/8
f 14/20/9 16/23/9 15/21/9
f 16/23/10 20/25/10 19/24/10
f 20/25/11 18/27/11 17/26/11
f 18/27/12 14/40/12 13/28/12
f 19/24/8 17/26/8 13/29/8
f 16/31/5 14/48/5 18/27/5
f 22/1/1 24/4/1 23/2/1
f 24/4/2 26/6/2 25/5/2
f 26/6/3 28/8/3 27/7/3
f 28/8/4 30/13/4 29/9/4
f 26/12/5 24/42/5 22/10/5
f 22/10/5 32/43/5 30/11/5
f 30/11/5 28/44/5 26/12/5
f 30/13/6 32/15/6 31/14/6
f 32/15/7 22/41/7 21/16/7
f 31/19/8 21/45/8 23/17/8
f 23/17/8 25/46/8 27/18/8
f 27/18/8 29/47/8 31/19/8
f 34/20/9 36/23/9 35/21/9
f 36/23/10 40/25/10 39/24/10
f 40/25/11 38/27/11 37/26/11
f 38/27/12 34/40/12 33/28/12
f 39/24/8 37/26/8 33/29/8
f 36/31/5 34/48/5 38/27/5
f 42/1/13 44/4/13 43/2/13
f 43/2/14 44/4/14 46/6/14
f 46/6/15 48/8/15 47/7/15
f 48/8/16 50/13/16 49/9/16
f 46/34/5 44/42/5 42/32/5
f 42/32/5 52/43/5 50/33/5
f 50/33/5 48/49/5 46/34/5
f 49/9/17 50/13/17 52/15/17
f 52/15/18 42/41/18 41/16/18
f 51/36/8 41/45/8 43/35/8
f 43/35/8 45/50/8 47/18/8
f 47/18/8 49/51/8 51/36/8
f 54/1/19 56/4/19 55/2/19
f 56/4/20 58/6/20 57/5/20
f 58/6/21 60/8/21 59/7/21
f 60/8/22 62/13/22 61/9/22
f 58/38/5 56/52/5 54/32/5
f 54/32/5 64/53/5 62/37/5
f 62/37/5 60/49/5 58/38/5
f 62/13/23 64/15/23 63/14/23
f 64/15/24 54/41/24 53/16/24
f 63/19/8 53/45/8 55/17/8
f 55/17/8 57/46/8 59/18/8
f 59/18/8 61/47/8 63/19/8
f 74/20/9 76/23/9 75/21/9
f 76/23/10 80/25/10 79/24/10
f 80/25/11 78/27/11 77/26/11
f 78/27/12 74/40/12 73/28/12
f 79/24/8 77/26/8 73/29/8
f 76/31/5 74/48/5 78/27/5
f 82/20/9 84/23/9 83/21/9
f 84/23/10 88/25/10 87/24/10
f 88/25/11 86/27/11 85/26/11
f 86/27/12 82/40/12 81/28/12
f 87/24/8 85/26/8 81/29/8
f 84/31/5 82/48/5 86/27/5
f 90/20/9 92/23/9 91/21/9
f 92/23/10 96/25/10 95/24/10
f 96/25/11 94/27/11 93/26/11
f 94/27/12 90/40/12 89/28/12
f 95/24/8 93/26/8 89/29/8
f 92/31/5 90/48/5 94/27/5
f 98/20/9 100/23/9 99/21/9
f 100/23/10 104/25/10 103/24/10
f 104/25/11 102/27/11 101/26/11
f 102/27/12 98/40/12 97/28/12
f 103/24/8 101/26/8 97/29/8
f 100/31/5 98/48/5 102/27/5
f 118/20/31 120/23/31 119/21/31
f 119/21/10 120/23/10 124/25/10
f 124/25/32 122/27/32 121/26/32
f 121/26/12 122/27/12 118/40/12
f 123/24/33 121/26/33 117/29/33
f 120/31/34 118/48/34 122/27/34
f 126/20/35 128/23/35 127/21/35
f 128/23/10 132/25/10 131/24/10
f 132/25/36 130/27/36 129/26/36
f 130/27/12 126/40/12 125/28/12
f 131/24/37 129/26/37 125/29/37
f 128/31/38 126/48/38 130/27/38
f 134/20/39 136/23/39 135/21/39
f 135/21/10 136/23/10 140/25/10
f 140/25/40 138/27/40 137/26/40
f 137/26/12 138/27/12 134/40/12
f 139/24/41 137/26/41 133/29/41
f 136/31/42 134/48/42 138/27/42
f 142/20/43 144/23/43 143/21/43
f 144/23/10 148/25/10 147/24/10
f 148/25/44 146/27/44 145/26/44
f 146/27/12 142/40/12 141/28/12
f 147/24/45 145/26/45 141/29/45
f 144/31/46 142/48/46 146/27/46
f 149/3/47 150/1/47 152/4/47
f 152/4/48 154/6/48 153/5/48
f 154/6/49 156/8/49 155/7/49
f 156/8/50 158/13/50 157/9/50
f 154/38/5 152/52/5 150/32/5
f 150/32/5 160/54/5 158/39/5
f 158/39/5 156/49/5 154/38/5
f 158/13/51 160/15/51 159/14/51
f 159/14/52 160/15/52 150/41/52
f 159/19/8 149/45/8 151/17/8
f 151/17/8 153/46/8 155/18/8
f 155/18/8 157/47/8 159/19/8
f 170/20/53 172/23/53 171/21/53
f 172/23/10 176/25/10 175/24/10
f 176/25/54 174/27/54 173/26/54
f 174/27/12 170/40/12 169/28/12
f 175/24/55 173/26/55 169/29/55
f 172/31/56 170/48/56 174/27/56
f 178/20/57 180/23/57 179/21/57
f 179/21/10 180/23/10 184/25/10
f 184/25/58 182/27/58 181/26/58
f 182/27/12 178/40/12 177/28/12
f 183/24/59 181/26/59 177/29/59
f 180/31/60 178/48/60 182/27/60
f 186/20/61 188/23/61 187/21/61
f 187/21/10 188/23/10 192/25/10
f 192/25/62 190/27/62 189/26/62
f 190/27/12 186/40/12 185/28/12
f 191/24/63 189/26/63 185/29/63
f 188/31/64 186/48/64 190/27/64
f 194/20/65 196/23/65 195/21/65
f 196/23/10 200/25/10 199/24/10
f 200/25/66 198/27/66 197/26/66
f 197/26/12 198/27/12 194/40/12
f 199/24/67 197/26/67 193/29/67
f 196/31/68 194/48/68 198/27/68
usemtl core
f 66/20/9 67/21/9 65/22/9
f 68/23/10 71/24/10 67/21/10
f 72/25/11 69/26/11 71/24/11
f 70/27/12 65/28/12 69/26/12
f 71/24/8 65/29/8 67/30/8
f 68/31/5 70/27/5 72/25/5
f 162/20/9 163/21/9 161/22/9
f 164/23/10 167/24/10 163/21/10
f 168/25/11 165/26/11 167/24/11
f 166/27/12 161/28/12 165/26/12
f 167/24/8 161/29/8 163/30/8
f 164/31/5 166/27/5 168/25/5
f 66/20/9 68/23/9 67/21/9
f 68/23/10 72/25/10 71/24/10
f 72/25/11 70/27/11 69/26/11
f 70/27/12 66/40/12 65/28/12
f 71/24/8 69/26/8 65/29/8
f 68/31/5 66/48/5 70/27/5
f 162/20/9 164/23/9 163/21/9
f 164/23/10 168/25/10 167/24/10
f 168/25/11 166/27/11 165/26/11
f 166/27/12 162/40/12 161/28/12
f 167/24/8 165/26/8 161/29/8
f 164/31/5 162/48/5 166/27/5
usemtl moss
f 106/1/25 107/2/25 105/3/25
f 108/4/26 109/5/26 107/2/26
f 110/6/27 111/7/27 109/5/27
f 112/8/28 113/9/28 111/7/28
f 106/32/5 114/39/5 110/38/5
f 114/13/29 115/14/29 113/9/29
f 116/15/30 105/16/30 115/14/30
f 107/17/8 111/18/8 115/19/8
f 106/1/25 108/4/25 107/2/25
f 108/4/26 110/6/26 109/5/26
f 110/6/27 112/8/27 111/7/27
f 112/8/28 114/13/28 113/9/28
f 110/38/5 108/52/5 106/32/5
f 106/32/5 116/54/5 114/39/5
f 114/39/5 112/49/5 110/38/5
f 114/13/29 116/15/29 115/14/29
f 116/15/30 106/41/30 105/16/30
f 115/19/8 105/45/8 107/17/8
f 107/17/8 109/46/8 111/18/8
f 111/18/8 113/47/8 115/19/8
