# Blender 4.5.10 LTS
# www.blender.org
mtllib grove_spirit_stag.mtl
o grove_spirit_stag
v -0.031140 0.026745 -0.172876
v 0.214507 0.214787 -0.313936
v -0.006432 0.045659 -0.104636
v 0.239214 0.233701 -0.245695
v -0.076728 0.086299 -0.172876
v 0.168918 0.274341 -0.313936
v -0.052020 0.105213 -0.104636
v 0.193626 0.293255 -0.245695
v 0.330060 0.054443 -0.039048
v 0.244317 0.242486 -0.309026
v 0.305352 0.108630 0.006540
v 0.219609 0.296673 -0.263438
v 0.261819 0.023327 -0.039048
v 0.176076 0.211370 -0.309026
v 0.237111 0.077514 0.006540
v 0.151368 0.265557 -0.263438
v 0.432020 0.105213 -0.415364
v 0.186374 0.293255 -0.274305
v 0.456728 0.086299 -0.347124
v 0.211082 0.274341 -0.206064
v 0.386432 0.045659 -0.415364
v 0.140786 0.233701 -0.274305
v 0.411140 0.026745 -0.347124
v 0.165493 0.214787 -0.206064
v 0.142889 0.077514 -0.526540
v 0.228632 0.265557 -0.256562
v 0.118181 0.023327 -0.480951
v 0.203924 0.211370 -0.210974
v 0.074648 0.108630 -0.526540
v 0.160391 0.296673 -0.256562
v 0.049940 0.054443 -0.480951
v 0.135683 0.242486 -0.210974
v 0.190000 0.108932 -0.230096
v 0.190000 0.713184 -0.088039
v 0.086077 0.125471 -0.287772
v 0.112058 0.725587 -0.131296
v 0.086077 0.158547 -0.403123
v 0.112058 0.750395 -0.217809
v 0.190000 0.175085 -0.460799
v 0.190000 0.762798 -0.261066
v 0.293923 0.158547 -0.403123
v 0.267942 0.750395 -0.217809
v 0.293923 0.125471 -0.287772
v 0.267942 0.725587 -0.131296
v -0.411140 0.026745 -0.172876
v -0.165493 0.214787 -0.313936
v -0.386432 0.045659 -0.104636
v -0.140786 0.233701 -0.245695
v -0.456728 0.086299 -0.172876
v -0.211082 0.274341 -0.313936
v -0.432020 0.105213 -0.104636
v -0.186374 0.293255 -0.245695
v -0.049940 0.054443 -0.039048
v -0.135683 0.242486 -0.309026
v -0.074648 0.108630 0.006540
v -0.160391 0.296673 -0.263438
v -0.118181 0.023327 -0.039048
v -0.203924 0.211370 -0.309026
v -0.142889 0.077514 0.006540
v -0.228632 0.265557 -0.263438
v 0.052020 0.105213 -0.415364
v -0.193626 0.293255 -0.274305
v 0.076728 0.086299 -0.347124
v -0.168918 0.274341 -0.206064
v 0.006432 0.045659 -0.415364
v -0.239214 0.233701 -0.274305
v 0.031140 0.026745 -0.347124
v -0.214507 0.214787 -0.206064
v -0.237111 0.077514 -0.526540
v -0.151368 0.265557 -0.256562
v -0.261819 0.023327 -0.480951
v -0.176076 0.211370 -0.210974
v -0.305352 0.108630 -0.526540
v -0.219609 0.296673 -0.256562
v -0.330060 0.054443 -0.480951
v -0.244317 0.242486 -0.210974
v -0.190000 0.108932 -0.230096
v -0.190000 0.713184 -0.088039
v -0.293923 0.125471 -0.287772
v -0.267942 0.725587 -0.131296
v -0.293923 0.158547 -0.403123
v -0.267942 0.750395 -0.217809
v -0.190000 0.175085 -0.460799
v -0.190000 0.762798 -0.261066
v -0.086077 0.158547 -0.403123
v -0.112058 0.750395 -0.217809
v -0.086077 0.125471 -0.287772
v -0.112058 0.725587 -0.131296
v -0.031140 0.026745 0.387124
v 0.214507 0.214787 0.246064
v -0.006432 0.045659 0.455364
v 0.239214 0.233701 0.314305
v -0.076728 0.086299 0.387124
v 0.168918 0.274341 0.246064
v -0.052020 0.105213 0.455364
v 0.193626 0.293255 0.314305
v 0.330060 0.054443 0.520952
v 0.244317 0.242486 0.250974
v 0.305352 0.108630 0.566540
v 0.219609 0.296673 0.296562
v 0.261819 0.023327 0.520951
v 0.176076 0.211370 0.250974
v 0.237111 0.077514 0.566540
v 0.151368 0.265557 0.296562
v 0.432020 0.105213 0.144636
v 0.186374 0.293255 0.285695
v 0.456728 0.086299 0.212876
v 0.211082 0.274341 0.353936
v 0.386432 0.045659 0.144636
v 0.140786 0.233701 0.285695
v 0.411140 0.026745 0.212876
v 0.165493 0.214787 0.353936
v 0.142889 0.077514 0.033460
v 0.228632 0.265557 0.303438
v 0.118181 0.023327 0.079048
v 0.203924 0.211370 0.349026
v 0.074648 0.108630 0.033460
v 0.160391 0.296673 0.303438
v 0.049940 0.054443 0.079048
v 0.135683 0.242486 0.349026
v 0.190000 0.189738 0.518789
v 0.190000 0.762087 0.278546
v 0.086077 0.169216 0.462408
v 0.112058 0.746696 0.236260
v 0.086077 0.128174 0.349645
v 0.112058 0.715914 0.151688
v 0.190000 0.107653 0.293263
v 0.190000 0.700523 0.109401
v 0.293923 0.128174 0.349645
v 0.267942 0.715914 0.151688
v 0.293923 0.169216 0.462408
v 0.267942 0.746696 0.236260
v -0.411140 0.026745 0.387124
v -0.165493 0.214787 0.246064
v -0.386432 0.045659 0.455364
v -0.140786 0.233701 0.314305
v -0.456728 0.086299 0.387124
v -0.211082 0.274341 0.246064
v -0.432021 0.105213 0.455364
v -0.186374 0.293255 0.314305
v -0.049940 0.054443 0.520952
v -0.135683 0.242486 0.250974
v -0.074648 0.108630 0.566540
v -0.160391 0.296673 0.296562
v -0.118181 0.023327 0.520952
v -0.203924 0.211370 0.250974
v -0.142889 0.077514 0.566540
v -0.228632 0.265557 0.296562
v 0.052020 0.105213 0.144636
v -0.193626 0.293255 0.285695
v 0.076728 0.086299 0.212876
v -0.168918 0.274341 0.353936
v 0.006432 0.045659 0.144636
v -0.239214 0.233701 0.285695
v 0.031140 0.026745 0.212876
v -0.214507 0.214787 0.353936
v -0.237111 0.077514 0.033460
v -0.151368 0.265557 0.303438
v -0.261819 0.023327 0.079048
v -0.176076 0.211370 0.349026
v -0.305352 0.108630 0.033460
v -0.219609 0.296673 0.303438
v -0.330060 0.054443 0.079048
v -0.244317 0.242486 0.349026
v -0.190000 0.189738 0.518789
v -0.190000 0.762086 0.278546
v -0.293923 0.169216 0.462408
v -0.267942 0.746696 0.236260
v -0.293923 0.128174 0.349645
v -0.267942 0.715914 0.151688
v -0.190000 0.107653 0.293263
v -0.190000 0.700523 0.109401
v -0.086077 0.128174 0.349645
v -0.112058 0.715914 0.151688
v -0.086077 0.169216 0.462408
v -0.112058 0.746696 0.236260
v -0.000000 1.109465 0.475298
v -0.000000 1.397908 -0.207345
v -0.242487 0.983634 0.413926
v -0.207846 1.290052 -0.259949
v -0.242487 0.731972 0.291182
v -0.207846 1.074342 -0.365158
v -0.000000 0.606140 0.229810
v 0.000000 0.966487 -0.417763
v 0.242487 0.731972 0.291182
v 0.207846 1.074342 -0.365158
v 0.242487 0.983634 0.413926
v 0.207846 1.290053 -0.259949
v 0.150000 0.908200 -0.150000
v 0.150000 1.211800 -0.150000
v 0.150000 0.908200 0.150000
v 0.150000 1.211800 0.150000
v -0.150000 0.908200 -0.150000
v -0.150000 1.211800 -0.150000
v -0.150000 0.908200 0.150000
v -0.150000 1.211800 0.150000
v -0.162711 0.830000 0.034303
v -0.162711 1.290000 0.034303
v -0.162711 0.830000 0.089303
v -0.162711 1.290000 0.089303
v -0.217711 0.830000 0.034303
v -0.217711 1.290000 0.034303
v -0.217711 0.830000 0.089303
v -0.217711 1.290000 0.089303
v 0.027500 0.830000 0.172500
v 0.027500 1.290000 0.172500
v 0.027500 0.830000 0.227500
v 0.027500 1.290000 0.227500
v -0.027500 0.830000 0.172500
v -0.027500 1.290000 0.172500
v -0.027500 0.830000 0.227500
v -0.027500 1.290000 0.227500
v 0.217711 0.830000 0.034303
v 0.217711 1.290000 0.034303
v 0.217711 0.830000 0.089303
v 0.217711 1.290000 0.089303
v 0.162711 0.830000 0.034303
v 0.162711 1.290000 0.034303
v 0.162711 0.830000 0.089303
v 0.162711 1.290000 0.089303
v 0.145057 0.830000 -0.189303
v 0.145057 1.290000 -0.189303
v 0.145057 0.830000 -0.134303
v 0.145057 1.290000 -0.134303
v 0.090057 0.830000 -0.189303
v 0.090057 1.290000 -0.189303
v 0.090057 0.830000 -0.134303
v 0.090057 1.290000 -0.134303
v -0.090057 0.830000 -0.189303
v -0.090057 1.290000 -0.189303
v -0.090057 0.830000 -0.134303
v -0.090057 1.290000 -0.134303
v -0.145057 0.830000 -0.189303
v -0.145057 1.290000 -0.189303
v -0.145057 0.830000 -0.134303
v -0.145057 1.290000 -0.134303
v 0.000000 1.323451 -0.003941
v 0.000000 1.737362 -0.470822
v -0.173205 1.256538 -0.078255
v -0.112583 1.693868 -0.519126
v -0.173205 1.122712 -0.226884
v -0.112583 1.606881 -0.615735
v 0.000000 1.055799 -0.301198
v 0.000000 1.563388 -0.664039
v 0.173205 1.122712 -0.226884
v 0.112583 1.606881 -0.615735
v 0.173205 1.256538 -0.078255
v 0.112583 1.693868 -0.519126
v 0.000000 1.602249 -0.410092
v 0.000000 1.823502 -0.552386
v -0.129904 1.571744 -0.478608
v -0.095263 1.801131 -0.602631
v -0.129904 1.510734 -0.615640
v -0.095263 1.756390 -0.703121
v 0.000000 1.480228 -0.684156
v 0.000000 1.734020 -0.753366
v 0.129904 1.510734 -0.615640
v 0.095263 1.756390 -0.703121
v 0.129904 1.571744 -0.478608
v 0.095263 1.801131 -0.602631
v 0.060000 1.655000 -0.725000
v 0.060000 1.705000 -0.725000
v 0.060000 1.655000 -0.675000
v 0.060000 1.705000 -0.675000
v -0.060000 1.655000 -0.725000
v -0.060000 1.705000 -0.725000
v -0.060000 1.655000 -0.675000
v -0.060000 1.705000 -0.675000
v -0.006432 1.696647 -0.590000
v 0.313712 2.106413 -0.590000
v -0.006432 1.696647 -0.530000
v 0.313712 2.106413 -0.530000
v -0.053712 1.733587 -0.590000
v 0.266432 2.143352 -0.590000
v -0.053712 1.733587 -0.530000
v 0.266432 2.143353 -0.530000
v 0.214404 2.000978 -0.530000
v 0.591898 2.185094 -0.530000
v 0.214404 2.000978 -0.470000
v 0.591898 2.185094 -0.470000
v 0.188102 2.054906 -0.530000
v 0.565596 2.239022 -0.530000
v 0.188102 2.054906 -0.470000
v 0.565596 2.239022 -0.470000
v 0.229714 2.054221 -0.645000
v 0.361226 2.323860 -0.645000
v 0.229714 2.054221 -0.595000
v 0.361226 2.323860 -0.595000
v 0.184774 2.076140 -0.645000
v 0.316286 2.345778 -0.645000
v 0.184774 2.076140 -0.595000
v 0.316286 2.345778 -0.595000
v 0.053712 1.733587 -0.590000
v -0.266431 2.143353 -0.590000
v 0.053713 1.733587 -0.530000
v -0.266431 2.143353 -0.530000
v 0.006432 1.696647 -0.590000
v -0.313712 2.106413 -0.590000
v 0.006432 1.696647 -0.530000
v -0.313712 2.106413 -0.530000
v -0.188102 2.054906 -0.530000
v -0.565596 2.239022 -0.530000
v -0.188102 2.054906 -0.470000
v -0.565596 2.239021 -0.470000
v -0.214404 2.000978 -0.530000
v -0.591898 2.185094 -0.530000
v -0.214404 2.000978 -0.470000
v -0.591898 2.185094 -0.470000
v -0.184774 2.076140 -0.645000
v -0.316286 2.345778 -0.645000
v -0.184774 2.076140 -0.595000
v -0.316286 2.345778 -0.595000
v -0.229714 2.054221 -0.645000
v -0.361225 2.323859 -0.645000
v -0.229714 2.054221 -0.595000
v -0.361225 2.323859 -0.595000
vn 0.6078 -0.7941 -0.0000
vn 0.3294 0.2522 0.9099
vn -0.6078 0.7941 -0.0000
vn -0.3294 -0.2522 -0.9099
vn -0.7225 -0.5531 0.4149
vn 0.7225 0.5531 -0.4149
vn 0.9099 0.4149 -0.0000
vn -0.3294 0.7225 0.6078
vn -0.9099 -0.4149 -0.0000
vn 0.3294 -0.7225 -0.6078
vn 0.2522 -0.5531 0.7941
vn -0.2522 0.5531 -0.7941
vn 0.6078 0.7941 -0.0000
vn 0.3294 -0.2522 0.9099
vn -0.6078 -0.7941 -0.0000
vn -0.3294 0.2522 -0.9099
vn 0.7225 -0.5531 -0.4149
vn -0.7225 0.5531 0.4149
vn 0.9099 -0.4149 -0.0000
vn -0.3294 -0.7225 0.6078
vn -0.9099 0.4149 -0.0000
vn 0.3294 0.7225 -0.6078
vn -0.2522 -0.5531 -0.7941
vn 0.2522 0.5531 0.7941
vn -0.4996 -0.1983 0.8433
vn -0.9991 0.0402 0.0115
vn -0.4996 0.2787 -0.8202
vn 0.4996 0.2787 -0.8202
vn -0.0000 0.9613 0.2756
vn 0.9991 0.0402 0.0115
vn 0.4996 -0.1983 0.8433
vn -0.0000 -0.9613 -0.2756
vn -0.4996 0.3353 0.7988
vn -0.9991 0.0393 -0.0143
vn -0.4996 -0.2566 -0.8274
vn 0.4996 -0.2566 -0.8274
vn -0.0000 0.9397 -0.3420
vn 0.9991 0.0393 -0.0143
vn 0.4996 0.3353 0.7988
vn -0.0000 -0.9397 0.3420
vn -0.4995 0.7980 0.3372
vn -0.9989 0.0205 -0.0420
vn -0.4995 -0.7570 -0.4213
vn 0.4995 -0.7570 -0.4213
vn -0.0000 0.4384 -0.8988
vn 0.9989 0.0205 -0.0420
vn 0.4995 0.7980 0.3372
vn -0.0000 -0.4384 0.8988
vn 1.0000 -0.0000 -0.0000
vn -0.0000 -0.0000 1.0000
vn -1.0000 -0.0000 -0.0000
vn -0.0000 -0.0000 -1.0000
vn -0.0000 -1.0000 -0.0000
vn -0.0000 1.0000 -0.0000
vn -0.4976 0.6491 0.5754
vn -0.9953 0.0723 -0.0651
vn -0.4976 -0.5044 -0.7056
vn 0.4976 -0.5044 -0.7056
vn -0.0000 0.7431 -0.6691
vn 0.9953 0.0723 -0.0651
vn 0.4976 0.6491 0.5754
vn -0.0000 -0.7431 0.6691
vn -0.4956 0.4698 0.7305
vn -0.9912 0.1207 -0.0537
vn -0.4956 -0.2285 -0.8379
vn 0.4956 -0.2285 -0.8379
vn -0.0000 0.9135 -0.4067
vn 0.9912 0.1206 -0.0537
vn 0.4956 0.4698 0.7305
vn -0.0000 -0.9135 0.4067
vn 0.7880 -0.6157 -0.0000
vn -0.7880 0.6157 -0.0000
vn -0.6157 -0.7880 -0.0000
vn 0.6157 0.7880 -0.0000
vn 0.4384 -0.8988 -0.0000
vn -0.4384 0.8988 -0.0000
vn -0.8988 -0.4384 -0.0000
vn 0.8988 0.4384 -0.0000
vn 0.8988 -0.4384 -0.0000
vn -0.8988 0.4384 -0.0000
vn -0.4384 -0.8988 -0.0000
vn 0.4384 0.8988 -0.0000
vn 0.7880 0.6157 -0.0000
vn -0.7880 -0.6157 -0.0000
vn 0.6157 -0.7880 -0.0000
vn -0.6157 0.7880 -0.0000
vt 0.625000 0.000000
vt 0.375000 0.250000
vt 0.375000 0.000000
vt 0.625000 0.250000
vt 0.375000 0.500000
vt 0.625000 0.500000
vt 0.375000 0.750000
vt 0.625000 0.750000
vt 0.375000 1.000000
vt 0.125000 0.750000
vt 0.125000 0.500000
vt 0.875000 0.500000
vt 0.875000 0.750000
vt 0.625000 1.000000
vt 1.000000 0.500000
vt 0.833333 1.000000
vt 0.833333 0.500000
vt 0.666667 0.500000
vt 0.666667 1.000000
vt 0.500000 0.500000
vt 0.500000 1.000000
vt 0.333333 0.500000
vt 0.250000 0.490000
vt 0.042154 0.130000
vt 0.457846 0.130000
vt 0.166667 1.000000
vt 0.166667 0.500000
vt -0.000000 0.500000
vt 0.957846 0.370000
vt 0.750000 0.010000
vt 0.542154 0.370000
vt 1.000000 1.000000
vt 0.333333 1.000000
vt 0.957846 0.370000
vt 0.750000 0.010000
vt 0.542154 0.370000
vt -0.000000 1.000000
vt 0.042154 0.130000
vt 0.457846 0.370000
vt 0.042154 0.370000
vt 0.250000 0.010000
vt 0.750000 0.490000
vt 0.957846 0.130000
vt 0.542154 0.130000
vt 0.750000 0.490000
vt 0.957846 0.130000
vt 0.542154 0.130000
vt 0.957846 0.130000
vt 0.542154 0.130000
vt 0.042154 0.370000
vt 0.250000 0.010000
s 0
usemtl bark
f 2/1/1 3/2/1 1/3/1
f 4/4/2 7/5/2 3/2/2
f 8/6/3 5/7/3 7/5/3
f 6/8/4 1/9/4 5/7/4
f 7/5/5 1/10/5 3/11/5
f 4/12/6 6/8/6 8/6/6
f 9/3/7 12/4/7 11/2/7
f 11/2/8 16/6/8 15/5/8
f 15/5/9 14/8/9 13/7/9
f 14/8/10 9/9/10 13/7/10
f 15/5/11 9/10/11 11/11/11
f 16/6/12 10/13/12 14/8/12
f 17/3/13 20/4/13 19/2/13
f 20/4/14 23/5/14 19/2/14
f 23/5/15 22/8/15 21/7/15
f 21/7/16 18/14/16 17/9/16
f 19/11/17 21/7/17 17/10/17
f 20/12/18 22/8/18 24/6/18
f 26/1/19 27/2/19 25/3/19
f 28/4/20 31/5/20 27/2/20
f 32/6/21 29/7/21 31/5/21
f 29/7/22 26/14/22 25/9/22
f 31/5/23 25/10/23 27/11/23
f 28/12/24 30/8/24 32/6/24
f 33/15/25 36/16/25 35/17/25
f 36/16/26 37/18/26 35/17/26
f 38/19/27 39/20/27 37/18/27
f 40/21/28 41/22/28 39/20/28
f 34/23/29 42/24/29 38/25/29
f 41/22/30 44/26/30 43/27/30
f 44/26/31 33/28/31 43/27/31
f 35/29/32 39/30/32 43/31/32
f 46/1/1 47/2/1 45/3/1
f 48/4/2 51/5/2 47/2/2
f 52/6/3 49/7/3 51/5/3
f 50/8/4 45/9/4 49/7/4
f 51/5/5 45/10/5 47/11/5
f 48/12/6 50/8/6 52/6/6
f 53/3/7 56/4/7 55/2/7
f 55/2/8 60/6/8 59/5/8
f 60/6/9 57/7/9 59/5/9
f 58/8/10 53/9/10 57/7/10
f 59/5/11 53/10/11 55/11/11
f 56/12/12 58/8/12 60/6/12
f 62/1/13 63/2/13 61/3/13
f 64/4/14 67/5/14 63/2/14
f 68/6/15 65/7/15 67/5/15
f 66/8/16 61/9/16 65/7/16
f 67/5/17 61/10/17 63/11/17
f 68/6/18 62/13/18 66/8/18
f 69/3/19 72/4/19 71/2/19
f 72/4/20 75/5/20 71/2/20
f 76/6/21 73/7/21 75/5/21
f 74/8/22 69/9/22 73/7/22
f 71/11/23 73/7/23 69/10/23
f 72/12/24 74/8/24 76/6/24
f 78/32/25 79/17/25 77/15/25
f 79/17/26 82/19/26 81/18/26
f 81/18/27 84/21/27 83/20/27
f 84/21/28 85/22/28 83/20/28
f 78/23/29 86/24/29 82/25/29
f 86/33/30 87/27/30 85/22/30
f 88/26/31 77/28/31 87/27/31
f 79/29/32 83/30/32 87/31/32
f 90/1/1 91/2/1 89/3/1
f 92/4/2 95/5/2 91/2/2
f 95/5/3 94/8/3 93/7/3
f 94/8/4 89/9/4 93/7/4
f 91/11/5 93/7/5 89/10/5
f 92/12/6 94/8/6 96/6/6
f 98/1/7 99/2/7 97/3/7
f 100/4/8 103/5/8 99/2/8
f 104/6/9 101/7/9 103/5/9
f 102/8/10 97/9/10 101/7/10
f 103/5/11 97/10/11 99/11/11
f 104/6/12 98/13/12 102/8/12
f 105/3/13 108/4/13 107/2/13
f 108/4/14 111/5/14 107/2/14
f 112/6/15 109/7/15 111/5/15
f 110/8/16 105/9/16 109/7/16
f 107/11/17 109/7/17 105/10/17
f 108/12/18 110/8/18 112/6/18
f 114/1/19 115/2/19 113/3/19
f 116/4/20 119/5/20 115/2/20
f 120/6/21 117/7/21 119/5/21
f 118/8/22 113/9/22 117/7/22
f 119/5/23 113/10/23 115/11/23
f 120/6/24 114/13/24 118/8/24
f 121/15/33 124/16/33 123/17/33
f 124/16/34 125/18/34 123/17/34
f 125/18/35 128/21/35 127/20/35
f 128/21/36 129/22/36 127/20/36
f 122/23/37 130/24/37 126/25/37
f 129/22/38 132/26/38 131/27/38
f 132/26/39 121/28/39 131/27/39
f 123/29/40 127/30/40 131/31/40
f 134/1/1 135/2/1 133/3/1
f 136/4/2 139/5/2 135/2/2
f 140/6/3 137/7/3 139/5/3
f 137/7/4 134/14/4 133/9/4
f 135/11/5 137/7/5 133/10/5
f 136/12/6 138/8/6 140/6/6
f 142/1/7 143/2/7 141/3/7
f 143/2/8 148/6/8 147/5/8
f 148/6/9 145/7/9 147/5/9
f 146/8/10 141/9/10 145/7/10
f 147/5/11 141/10/11 143/11/11
f 144/12/12 146/8/12 148/6/12
f 150/1/13 151/2/13 149/3/13
f 152/4/14 155/5/14 151/2/14
f 156/6/15 153/7/15 155/5/15
f 154/8/16 149/9/16 153/7/16
f 151/11/17 153/7/17 149/10/17
f 152/12/18 154/8/18 156/6/18
f 158/1/19 159/2/19 157/3/19
f 159/2/20 164/6/20 163/5/20
f 164/6/21 161/7/21 163/5/21
f 161/7/22 158/14/22 157/9/22
f 163/5/23 157/10/23 159/11/23
f 164/6/24 158/13/24 162/8/24
f 165/15/33 168/16/33 167/17/33
f 168/16/34 169/18/34 167/17/34
f 170/19/35 171/20/35 169/18/35
f 172/21/36 173/22/36 171/20/36
f 166/23/37 174/24/37 170/25/37
f 173/22/38 176/26/38 175/27/38
f 176/26/39 165/28/39 175/27/39
f 167/29/40 171/30/40 175/31/40
f 178/32/41 179/17/41 177/15/41
f 179/17/42 182/19/42 181/18/42
f 182/19/43 183/20/43 181/18/43
f 184/21/44 185/22/44 183/20/44
f 178/23/45 186/24/45 182/25/45
f 186/33/46 187/27/46 185/22/46
f 188/26/47 177/28/47 187/27/47
f 179/34/48 183/35/48 187/36/48
f 198/1/49 199/2/49 197/3/49
f 200/4/50 203/5/50 199/2/50
f 204/6/51 201/7/51 203/5/51
f 201/7/52 198/14/52 197/9/52
f 203/5/53 197/10/53 199/11/53
f 200/12/54 202/8/54 204/6/54
f 206/1/49 207/2/49 205/3/49
f 208/4/50 211/5/50 207/2/50
f 212/6/51 209/7/51 211/5/51
f 209/7/52 206/14/52 205/9/52
f 207/11/53 209/7/53 205/10/53
f 212/6/54 206/13/54 210/8/54
f 214/1/49 215/2/49 213/3/49
f 215/2/50 220/6/50 219/5/50
f 220/6/51 217/7/51 219/5/51
f 217/7/52 214/14/52 213/9/52
f 215/11/53 217/7/53 213/10/53
f 216/12/54 218/8/54 220/6/54
f 221/3/49 224/4/49 223/2/49
f 224/4/50 227/5/50 223/2/50
f 228/6/51 225/7/51 227/5/51
f 226/8/52 221/9/52 225/7/52
f 227/5/53 221/10/53 223/11/53
f 224/12/54 226/8/54 228/6/54
f 229/3/49 232/4/49 231/2/49
f 232/4/50 235/5/50 231/2/50
f 236/6/51 233/7/51 235/5/51
f 234/8/52 229/9/52 233/7/52
f 235/5/53 229/10/53 231/11/53
f 232/12/54 234/8/54 236/6/54
f 237/15/55 240/16/55 239/17/55
f 240/16/56 241/18/56 239/17/56
f 242/19/57 243/20/57 241/18/57
f 243/20/58 246/33/58 245/22/58
f 238/23/59 246/24/59 242/25/59
f 246/33/60 247/27/60 245/22/60
f 247/27/61 238/37/61 237/28/61
f 239/34/62 243/30/62 247/36/62
f 249/15/63 252/16/63 251/17/63
f 252/16/64 253/18/64 251/17/64
f 253/18/65 256/21/65 255/20/65
f 255/20/66 258/33/66 257/22/66
f 250/23/67 258/38/67 254/25/67
f 257/22/68 260/26/68 259/27/68
f 260/26/69 249/28/69 259/27/69
f 251/34/70 255/30/70 259/36/70
f 270/1/71 271/2/71 269/3/71
f 271/2/50 276/6/50 275/5/50
f 275/5/72 274/8/72 273/7/72
f 274/8/52 269/9/52 273/7/52
f 271/11/73 273/7/73 269/10/73
f 276/6/74 270/13/74 274/8/74
f 277/3/75 280/4/75 279/2/75
f 280/4/50 283/5/50 279/2/50
f 283/5/76 282/8/76 281/7/76
f 282/8/52 277/9/52 281/7/52
f 283/5/77 277/10/77 279/11/77
f 284/6/78 278/13/78 282/8/78
f 286/1/79 287/2/79 285/3/79
f 288/4/50 291/5/50 287/2/50
f 292/6/80 289/7/80 291/5/80
f 290/8/52 285/9/52 289/7/52
f 291/5/81 285/10/81 287/11/81
f 288/12/82 290/8/82 292/6/82
f 294/1/83 295/2/83 293/3/83
f 296/4/50 299/5/50 295/2/50
f 299/5/84 298/8/84 297/7/84
f 298/8/52 293/9/52 297/7/52
f 299/5/85 293/10/85 295/11/85
f 300/6/86 294/13/86 298/8/86
f 302/1/82 303/2/82 301/3/82
f 303/2/50 308/6/50 307/5/50
f 308/6/81 305/7/81 307/5/81
f 306/8/52 301/9/52 305/7/52
f 303/11/79 305/7/79 301/10/79
f 304/12/80 306/8/80 308/6/80
f 310/1/78 311/2/78 309/3/78
f 311/2/50 316/6/50 315/5/50
f 315/5/77 314/8/77 313/7/77
f 314/8/52 309/9/52 313/7/52
f 315/5/75 309/10/75 311/11/75
f 312/12/76 314/8/76 316/6/76
f 2/1/1 4/4/1 3/2/1
f 4/4/2 8/6/2 7/5/2
f 8/6/3 6/8/3 5/7/3
f 6/8/4 2/14/4 1/9/4
f 7/5/5 5/7/5 1/10/5
f 4/12/6 2/13/6 6/8/6
f 9/3/7 10/1/7 12/4/7
f 11/2/8 12/4/8 16/6/8
f 15/5/9 16/6/9 14/8/9
f 14/8/10 10/14/10 9/9/10
f 15/5/11 13/7/11 9/10/11
f 16/6/12 12/12/12 10/13/12
f 17/3/13 18/1/13 20/4/13
f 20/4/14 24/6/14 23/5/14
f 23/5/15 24/6/15 22/8/15
f 21/7/16 22/8/16 18/14/16
f 19/11/17 23/5/17 21/7/17
f 20/12/18 18/13/18 22/8/18
f 26/1/19 28/4/19 27/2/19
f 28/4/20 32/6/20 31/5/20
f 32/6/21 30/8/21 29/7/21
f 29/7/22 30/8/22 26/14/22
f 31/5/23 29/7/23 25/10/23
f 28/12/24 26/13/24 30/8/24
f 33/15/25 34/32/25 36/16/25
f 36/16/26 38/19/26 37/18/26
f 38/19/27 40/21/27 39/20/27
f 40/21/28 42/33/28 41/22/28
f 38/25/29 36/39/29 34/23/29
f 34/23/29 44/40/29 42/24/29
f 42/24/29 40/41/29 38/25/29
f 41/22/30 42/33/30 44/26/30
f 44/26/31 34/37/31 33/28/31
f 43/31/32 33/42/32 35/29/32
f 35/29/32 37/43/32 39/30/32
f 39/30/32 41/44/32 43/31/32
f 46/1/1 48/4/1 47/2/1
f 48/4/2 52/6/2 51/5/2
f 52/6/3 50/8/3 49/7/3
f 50/8/4 46/14/4 45/9/4
f 51/5/5 49/7/5 45/10/5
f 48/12/6 46/13/6 50/8/6
f 53/3/7 54/1/7 56/4/7
f 55/2/8 56/4/8 60/6/8
f 60/6/9 58/8/9 57/7/9
f 58/8/10 54/14/10 53/9/10
f 59/5/11 57/7/11 53/10/11
f 56/12/12 54/13/12 58/8/12
f 62/1/13 64/4/13 63/2/13
f 64/4/14 68/6/14 67/5/14
f 68/6/15 66/8/15 65/7/15
f 66/8/16 62/14/16 61/9/16
f 67/5/17 65/7/17 61/10/17
f 68/6/18 64/12/18 62/13/18
f 69/3/19 70/1/19 72/4/19
f 72/4/20 76/6/20 75/5/20
f 76/6/21 74/8/21 73/7/21
f 74/8/22 70/14/22 69/9/22
f 71/11/23 75/5/23 73/7/23
f 72/12/24 70/13/24 74/8/24
f 78/32/25 80/16/25 79/17/25
f 79/17/26 80/16/26 82/19/26
f 81/18/27 82/19/27 84/21/27
f 84/21/28 86/33/28 85/22/28
f 82/25/29 80/39/29 78/23/29
f 78/23/29 88/40/29 86/24/29
f 86/24/29 84/41/29 82/25/29
f 86/33/30 88/26/30 87/27/30
f 88/26/31 78/37/31 77/28/31
f 87/31/32 77/42/32 79/29/32
f 79/29/32 81/43/32 83/30/32
f 83/30/32 85/44/32 87/31/32
f 90/1/1 92/4/1 91/2/1
f 92/4/2 96/6/2 95/5/2
f 95/5/3 96/6/3 94/8/3
f 94/8/4 90/14/4 89/9/4
f 91/11/5 95/5/5 93/7/5
f 92/12/6 90/13/6 94/8/6
f 98/1/7 100/4/7 99/2/7
f 100/4/8 104/6/8 103/5/8
f 104/6/9 102/8/9 101/7/9
f 102/8/10 98/14/10 97/9/10
f 103/5/11 101/7/11 97/10/11
f 104/6/12 100/12/12 98/13/12
f 105/3/13 106/1/13 108/4/13
f 108/4/14 112/6/14 111/5/14
f 112/6/15 110/8/15 109/7/15
f 110/8/16 106/14/16 105/9/16
f 107/11/17 111/5/17 109/7/17
f 108/12/18 106/13/18 110/8/18
f 114/1/19 116/4/19 115/2/19
f 116/4/20 120/6/20 119/5/20
f 120/6/21 118/8/21 117/7/21
f 118/8/22 114/14/22 113/9/22
f 119/5/23 117/7/23 113/10/23
f 120/6/24 116/12/24 114/13/24
f 121/15/33 122/32/33 124/16/33
f 124/16/34 126/19/34 125/18/34
f 125/18/35 126/19/35 128/21/35
f 128/21/36 130/33/36 129/22/36
f 126/25/37 124/39/37 122/23/37
f 122/23/37 132/40/37 130/24/37
f 130/24/37 128/41/37 126/25/37
f 129/22/38 130/33/38 132/26/38
f 132/26/39 122/37/39 121/28/39
f 131/31/40 121/42/40 123/29/40
f 123/29/40 125/43/40 127/30/40
f 127/30/40 129/44/40 131/31/40
f 134/1/1 136/4/1 135/2/1
f 136/4/2 140/6/2 139/5/2
f 140/6/3 138/8/3 137/7/3
f 137/7/4 138/8/4 134/14/4
f 135/11/5 139/5/5 137/7/5
f 136/12/6 134/13/6 138/8/6
f 142/1/7 144/4/7 143/2/7
f 143/2/8 144/4/8 148/6/8
f 148/6/9 146/8/9 145/7/9
f 146/8/10 142/14/10 141/9/10
f 147/5/11 145/7/11 141/10/11
f 144/12/12 142/13/12 146/8/12
f 150/1/13 152/4/13 151/2/13
f 152/4/14 156/6/14 155/5/14
f 156/6/15 154/8/15 153/7/15
f 154/8/16 150/14/16 149/9/16
f 151/11/17 155/5/17 153/7/17
f 152/12/18 150/13/18 154/8/18
f 158/1/19 160/4/19 159/2/19
f 159/2/20 160/4/20 164/6/20
f 164/6/21 162/8/21 161/7/21
f 161/7/22 162/8/22 158/14/22
f 163/5/23 161/7/23 157/10/23
f 164/6/24 160/12/24 158/13/24
f 165/15/33 166/32/33 168/16/33
f 168/16/34 170/19/34 169/18/34
f 170/19/35 172/21/35 171/20/35
f 172/21/36 174/33/36 173/22/36
f 170/25/37 168/39/37 166/23/37
f 166/23/37 176/40/37 174/24/37
f 174/24/37 172/41/37 170/25/37
f 173/22/38 174/33/38 176/26/38
f 176/26/39 166/37/39 165/28/39
f 175/31/40 165/42/40 167/29/40
f 167/29/40 169/43/40 171/30/40
f 171/30/40 173/44/40 175/31/40
f 178/32/41 180/16/41 179/17/41
f 179/17/42 180/16/42 182/19/42
f 182/19/43 184/21/43 183/20/43
f 184/21/44 186/33/44 185/22/44
f 182/25/45 180/39/45 178/23/45
f 178/23/45 188/40/45 186/24/45
f 186/24/45 184/41/45 182/25/45
f 186/33/46 188/26/46 187/27/46
f 188/26/47 178/37/47 177/28/47
f 187/36/48 177/45/48 179/34/48
f 179/34/48 181/46/48 183/35/48
f 183/35/48 185/47/48 187/36/48
f 198/1/49 200/4/49 199/2/49
f 200/4/50 204/6/50 203/5/50
f 204/6/51 202/8/51 201/7/51
f 201/7/52 202/8/52 198/14/52
f 203/5/53 201/7/53 197/10/53
f 200/12/54 198/13/54 202/8/54
f 206/1/49 208/4/49 207/2/49
f 208/4/50 212/6/50 211/5/50
f 212/6/51 210/8/51 209/7/51
f 209/7/52 210/8/52 206/14/52
f 207/11/53 211/5/53 209/7/53
f 212/6/54 208/12/54 206/13/54
f 214/1/49 216/4/49 215/2/49
f 215/2/50 216/4/50 220/6/50
f 220/6/51 218/8/51 217/7/51
f 217/7/52 218/8/52 214/14/52
f 215/11/53 219/5/53 217/7/53
f 216/12/54 214/13/54 218/8/54
f 221/3/49 222/1/49 224/4/49
f 224/4/50 228/6/50 227/5/50
f 228/6/51 226/8/51 225/7/51
f 226/8/52 222/14/52 221/9/52
f 227/5/53 225/7/53 221/10/53
f 224/12/54 222/13/54 226/8/54
f 229/3/49 230/1/49 232/4/49
f 232/4/50 236/6/50 235/5/50
f 236/6/51 234/8/51 233/7/51
f 234/8/52 230/14/52 229/9/52
f 235/5/53 233/7/53 229/10/53
f 232/12/54 230/13/54 234/8/54
f 237/15/55 238/32/55 240/16/55
f 240/16/56 242/19/56 241/18/56
f 242/19/57 244/21/57 243/20/57
f 243/20/58 244/21/58 246/33/58
f 242/25/59 240/39/59 238/23/59
f 238/23/59 248/40/59 246/24/59
f 246/24/59 244/41/59 242/25/59
f 246/33/60 248/26/60 247/27/60
f 247/27/61 248/26/61 238/37/61
f 247/36/62 237/42/62 239/34/62
f 239/34/62 241/48/62 243/30/62
f 243/30/62 245/49/62 247/36/62
f 249/15/63 250/32/63 252/16/63
f 252/16/64 254/19/64 253/18/64
f 253/18/65 254/19/65 256/21/65
f 255/20/66 256/21/66 258/33/66
f 254/25/67 252/39/67 250/23/67
f 250/23/67 260/50/67 258/38/67
f 258/38/67 256/51/67 254/25/67
f 257/22/68 258/33/68 260/26/68
f 260/26/69 250/37/69 249/28/69
f 259/36/70 249/42/70 251/34/70
f 251/34/70 253/48/70 255/30/70
f 255/30/70 257/49/70 259/36/70
f 270/1/71 272/4/71 271/2/71
f 271/2/50 272/4/50 276/6/50
f 275/5/72 276/6/72 274/8/72
f 274/8/52 270/14/52 269/9/52
f 271/11/73 275/5/73 273/7/73
f 276/6/74 272/12/74 270/13/74
f 277/3/75 278/1/75 280/4/75
f 280/4/50 284/6/50 283/5/50
f 283/5/76 284/6/76 282/8/76
f 282/8/52 278/14/52 277/9/52
f 283/5/77 281/7/77 277/10/77
f 284/6/78 280/12/78 278/13/78
f 286/1/79 288/4/79 287/2/79
f 288/4/50 292/6/50 291/5/50
f 292/6/80 290/8/80 289/7/80
f 290/8/52 286/14/52 285/9/52
f 291/5/81 289/7/81 285/10/81
f 288/12/82 286/13/82 290/8/82
f 294/1/83 296/4/83 295/2/83
f 296/4/50 300/6/50 299/5/50
f 299/5/84 300/6/84 298/8/84
f 298/8/52 294/14/52 293/9/52
f 299/5/85 297/7/85 293/10/85
f 300/6/86 296/12/86 294/13/86
f 302/1/82 304/4/82 303/2/82
f 303/2/50 304/4/50 308/6/50
f 308/6/81 306/8/81 305/7/81
f 306/8/52 302/14/52 301/9/52
f 303/11/79 307/5/79 305/7/79
f 304/12/80 302/13/80 306/8/80
f 310/1/78 312/4/78 311/2/78
f 311/2/50 312/4/50 316/6/50
f 315/5/77 316/6/77 314/8/77
f 314/8/52 310/14/52 309/9/52
f 315/5/75 313/7/75 309/10/75
f 312/12/76 310/13/76 314/8/76
usemtl core
f 189/3/49 192/4/49 191/2/49
f 192/4/50 195/5/50 191/2/50
f 196/6/51 193/7/51 195/5/51
f 194/8/52 189/9/52 193/7/52
f 195/5/53 189/10/53 191/11/53
f 196/6/54 190/13/54 194/8/54
f 261/3/49 264/4/49 263/2/49
f 263/2/50 268/6/50 267/5/50
f 267/5/51 266/8/51 265/7/51
f 266/8/52 261/9/52 265/7/52
f 267/5/53 261/10/53 263/11/53
f 268/6/54 262/13/54 266/8/54
f 189/3/49 190/1/49 192/4/49
f 192/4/50 196/6/50 195/5/50
f 196/6/51 194/8/51 193/7/51
f 194/8/52 190/14/52 189/9/52
f 195/5/53 193/7/53 189/10/53
f 196/6/54 192/12/54 190/13/54
f 261/3/49 262/1/49 264/4/49
f 263/2/50 264/4/50 268/6/50
f 267/5/51 268/6/51 266/8/51
f 266/8/52 262/14/52 261/9/52
f 267/5/53 265/7/53 261/10/53
f 268/6/54 264/12/54 262/13/54
