# Blender 4.5.10 LTS
# www.blender.org
mtllib grove_spirit_hoop.mtl
o grove_spirit_hoop
v -0.339117 0.004787 0.000769
v -0.339117 0.004787 0.010199
v -0.340536 0.004787 0.005484
v -0.330042 0.004787 -0.002210
v -0.339058 0.004787 0.000688
v -0.334998 0.004787 -0.002114
v -0.324452 0.004787 0.005403
v -0.330042 0.004787 -0.002210
v -0.326089 0.004787 0.000772
v -0.330042 0.004787 0.013178
v -0.324452 0.004787 0.005565
v -0.326089 0.004787 0.010196
v -0.339058 0.004787 0.010280
v -0.330042 0.004787 0.013178
v -0.334998 0.004787 0.013082
v -0.318216 0.123322 0.010199
v -0.318216 0.123322 0.000769
v -0.319549 0.123807 0.005484
v -0.318160 0.123302 0.000688
v -0.309688 0.120218 -0.002210
v -0.314346 0.121913 -0.002114
v -0.309688 0.120218 -0.002210
v -0.304435 0.118306 0.005403
v -0.305974 0.118866 0.000772
v -0.304435 0.118306 0.005565
v -0.309688 0.120218 0.013178
v -0.305974 0.118866 0.010196
v -0.309688 0.120218 0.013178
v -0.318160 0.123302 0.010280
v -0.314346 0.121913 0.013082
v -0.258034 0.227560 0.010199
v -0.258034 0.227560 0.000769
v -0.259121 0.228473 0.005484
v -0.257988 0.227523 0.000688
v -0.251082 0.221727 -0.002210
v -0.254879 0.224913 -0.002114
v -0.251082 0.221727 -0.002210
v -0.246800 0.218134 0.005403
v -0.248054 0.219187 0.000772
v -0.246800 0.218134 0.005565
v -0.251082 0.221727 0.013178
v -0.248054 0.219187 0.010196
v -0.251082 0.221727 0.013178
v -0.257988 0.227523 0.010280
v -0.254879 0.224913 0.013082
v -0.165829 0.304929 0.010199
v -0.165829 0.304929 0.000769
v -0.166539 0.306158 0.005484
v -0.165800 0.304878 0.000688
v -0.161292 0.297070 -0.002210
v -0.163770 0.301362 -0.002114
v -0.161292 0.297070 -0.002210
v -0.158497 0.292229 0.005403
v -0.159316 0.293647 0.000772
v -0.158497 0.292229 0.005565
v -0.161292 0.297070 0.013178
v -0.159316 0.293647 0.010196
v -0.161292 0.297070 0.013178
v -0.165800 0.304878 0.010280
v -0.163770 0.301362 0.013082
v -0.052724 0.346096 0.010199
v -0.052724 0.346096 0.000769
v -0.052971 0.347493 0.005484
v -0.052714 0.346038 0.000688
v -0.051148 0.337159 -0.002210
v -0.052009 0.342040 -0.002114
v -0.051148 0.337159 -0.002210
v -0.050178 0.331654 0.005403
v -0.050462 0.333266 0.000772
v -0.050178 0.331654 0.005565
v -0.051148 0.337159 0.013178
v -0.050462 0.333266 0.010196
v -0.051148 0.337159 0.013178
v -0.052714 0.346038 0.010280
v -0.052009 0.342040 0.013082
v 0.067640 0.346096 0.010199
v 0.067640 0.346096 0.000770
v 0.067886 0.347493 0.005484
v 0.067630 0.346038 0.000688
v 0.066064 0.337159 -0.002210
v 0.066925 0.342040 -0.002114
v 0.066064 0.337159 -0.002210
v 0.065093 0.331654 0.005403
v 0.065378 0.333266 0.000772
v 0.065093 0.331654 0.005565
v 0.066064 0.337159 0.013178
v 0.065378 0.333266 0.010196
v 0.066064 0.337159 0.013178
v 0.067630 0.346038 0.010280
v 0.066925 0.342040 0.013082
v 0.180745 0.304929 0.010199
v 0.180745 0.304929 0.000770
v 0.181454 0.306158 0.005484
v 0.180716 0.304878 0.000688
v 0.176208 0.297070 -0.002210
v 0.178686 0.301362 -0.002114
v 0.176208 0.297070 -0.002210
v 0.173413 0.292229 0.005403
v 0.174231 0.293647 0.000772
v 0.173413 0.292229 0.005565
v 0.176208 0.297070 0.013178
v 0.174231 0.293647 0.010196
v 0.176208 0.297070 0.013178
v 0.180716 0.304878 0.010280
v 0.178686 0.301362 0.013082
v 0.272949 0.227561 0.010199
v 0.272949 0.227561 0.000769
v 0.274036 0.228473 0.005484
v 0.272904 0.227523 0.000688
v 0.265998 0.221727 -0.002210
v 0.269794 0.224913 -0.002114
v 0.265998 0.221727 -0.002210
v 0.261715 0.218134 0.005403
v 0.262970 0.219187 0.000772
v 0.261715 0.218134 0.005565
v 0.265998 0.221727 0.013178
v 0.262970 0.219187 0.010196
v 0.265998 0.221727 0.013178
v 0.272904 0.227523 0.010280
v 0.269794 0.224913 0.013082
v 0.333131 0.123322 0.010199
v 0.333131 0.123322 0.000769
v 0.334465 0.123807 0.005484
v 0.333076 0.123302 0.000688
v 0.324604 0.120218 -0.002210
v 0.329261 0.121914 -0.002114
v 0.324604 0.120218 -0.002210
v 0.319351 0.118307 0.005403
v 0.320890 0.118867 0.000772
v 0.319351 0.118307 0.005565
v 0.324604 0.120218 0.013178
v 0.320890 0.118867 0.010196
v 0.324604 0.120218 0.013178
v 0.333076 0.123302 0.010280
v 0.329261 0.121914 0.013082
v 0.354032 0.004787 0.010199
v 0.354032 0.004787 0.000769
v 0.355451 0.004787 0.005484
v 0.353973 0.004787 0.000688
v 0.344958 0.004787 -0.002210
v 0.349914 0.004787 -0.002114
v 0.344958 0.004787 -0.002210
v 0.339368 0.004787 0.005403
v 0.341005 0.004787 0.000772
v 0.339368 0.004787 0.005565
v 0.344958 0.004787 0.013178
v 0.341005 0.004787 0.010196
v 0.344958 0.004787 0.013178
v 0.353973 0.004787 0.010280
v 0.349914 0.004787 0.013082
v 0.333131 -0.113749 0.010199
v 0.333131 -0.113749 0.000769
v 0.334465 -0.114234 0.005484
v 0.333076 -0.113729 0.000688
v 0.324604 -0.110645 -0.002210
v 0.329261 -0.112340 -0.002114
v 0.324604 -0.110645 -0.002210
v 0.319351 -0.108733 0.005403
v 0.320890 -0.109293 0.000772
v 0.319351 -0.108733 0.005565
v 0.324604 -0.110645 0.013178
v 0.320890 -0.109293 0.010196
v 0.324604 -0.110645 0.013178
v 0.333076 -0.113729 0.010280
v 0.329261 -0.112340 0.013082
v 0.272949 -0.217987 0.010199
v 0.272949 -0.217987 0.000769
v 0.274036 -0.218899 0.005484
v 0.272904 -0.217949 0.000688
v 0.265998 -0.212154 -0.002210
v 0.269794 -0.215340 -0.002114
v 0.265998 -0.212154 -0.002210
v 0.261716 -0.208561 0.005403
v 0.262970 -0.209613 0.000772
v 0.261716 -0.208561 0.005565
v 0.265998 -0.212154 0.013178
v 0.262970 -0.209613 0.010196
v 0.265998 -0.212154 0.013178
v 0.272904 -0.217949 0.010280
v 0.269794 -0.215340 0.013082
v 0.180745 -0.295356 0.010199
v 0.180745 -0.295356 0.000769
v 0.181454 -0.296585 0.005484
v 0.180716 -0.295305 0.000688
v 0.176208 -0.287497 -0.002210
v 0.178686 -0.291789 -0.002114
v 0.176208 -0.287497 -0.002210
v 0.173413 -0.282656 0.005403
v 0.174231 -0.284074 0.000772
v 0.173413 -0.282656 0.005565
v 0.176208 -0.287497 0.013178
v 0.174231 -0.284074 0.010196
v 0.176208 -0.287497 0.013178
v 0.180716 -0.295305 0.010280
v 0.178686 -0.291789 0.013082
v 0.067640 -0.336523 0.010199
v 0.067640 -0.336523 0.000769
v 0.067886 -0.337920 0.005484
v 0.067630 -0.336465 0.000688
v 0.066064 -0.327586 -0.002210
v 0.066925 -0.332467 -0.002114
v 0.066064 -0.327586 -0.002210
v 0.065093 -0.322081 0.005403
v 0.065378 -0.323693 0.000772
v 0.065093 -0.322081 0.005565
v 0.066064 -0.327586 0.013178
v 0.065378 -0.323693 0.010196
v 0.066064 -0.327586 0.013178
v 0.067630 -0.336465 0.010280
v 0.066925 -0.332467 0.013082
v -0.052724 -0.336523 0.010199
v -0.052724 -0.336523 0.000769
v -0.052971 -0.337920 0.005484
v -0.052714 -0.336465 0.000688
v -0.051148 -0.327586 -0.002210
v -0.052009 -0.332467 -0.002114
v -0.051148 -0.327586 -0.002210
v -0.050178 -0.322081 0.005403
v -0.050462 -0.323693 0.000772
v -0.050178 -0.322081 0.005565
v -0.051148 -0.327586 0.013178
v -0.050462 -0.323693 0.010196
v -0.051148 -0.327586 0.013178
v -0.052714 -0.336465 0.010280
v -0.052009 -0.332467 0.013082
v -0.165829 -0.295356 0.010199
v -0.165829 -0.295356 0.000769
v -0.166539 -0.296585 0.005484
v -0.165800 -0.295305 0.000688
v -0.161292 -0.287497 -0.002210
v -0.163770 -0.291789 -0.002114
v -0.161292 -0.287497 -0.002210
v -0.158497 -0.282656 0.005403
v -0.159316 -0.284074 0.000772
v -0.158497 -0.282656 0.005565
v -0.161292 -0.287497 0.013178
v -0.159316 -0.284074 0.010196
v -0.161292 -0.287497 0.013178
v -0.165800 -0.295305 0.010280
v -0.163770 -0.291789 0.013082
v -0.258034 -0.217987 0.010199
v -0.258034 -0.217987 0.000769
v -0.259121 -0.218899 0.005484
v -0.257988 -0.217949 0.000688
v -0.251082 -0.212154 -0.002210
v -0.254879 -0.215340 -0.002114
v -0.251082 -0.212154 -0.002210
v -0.246800 -0.208561 0.005403
v -0.248054 -0.209613 0.000772
v -0.246800 -0.208561 0.005565
v -0.251082 -0.212154 0.013178
v -0.248054 -0.209613 0.010196
v -0.251082 -0.212154 0.013178
v -0.257988 -0.217949 0.010280
v -0.254879 -0.215340 0.013082
v -0.318216 -0.113749 0.010199
v -0.318216 -0.113749 0.000769
v -0.319549 -0.114234 0.005484
v -0.318160 -0.113729 0.000688
v -0.309688 -0.110645 -0.002210
v -0.314346 -0.112340 -0.002114
v -0.309688 -0.110645 -0.002210
v -0.304435 -0.108733 0.005403
v -0.305974 -0.109293 0.000772
v -0.304435 -0.108733 0.005565
v -0.309688 -0.110645 0.013178
v -0.305974 -0.109293 0.010196
v -0.309688 -0.110645 0.013178
v -0.318160 -0.113729 0.010280
v -0.314346 -0.112340 0.013082
vn -0.9442 0.1665 0.2842
vn -0.9442 0.1665 -0.2842
vn -0.5652 0.0997 -0.8189
vn -0.0195 0.0034 -0.9998
vn 0.5989 -0.1056 -0.7938
vn 0.9300 -0.1640 -0.3288
vn 0.9300 -0.1640 0.3288
vn 0.5989 -0.1056 0.7938
vn -0.0195 0.0034 0.9998
vn -0.5652 0.0997 0.8189
vn -0.8303 0.4794 0.2842
vn -0.8303 0.4794 -0.2842
vn -0.4970 0.2870 -0.8189
vn -0.0171 0.0099 -0.9998
vn 0.5267 -0.3041 -0.7938
vn 0.8179 -0.4722 -0.3288
vn 0.8179 -0.4722 0.3288
vn 0.5267 -0.3041 0.7938
vn -0.0171 0.0099 0.9998
vn -0.4970 0.2870 0.8189
vn -0.6163 0.7345 0.2842
vn -0.6163 0.7345 -0.2842
vn -0.3689 0.4396 -0.8189
vn -0.0127 0.0151 -0.9998
vn 0.3909 -0.4659 -0.7938
vn 0.6070 -0.7235 -0.3288
vn 0.6070 -0.7235 0.3288
vn 0.3909 -0.4659 0.7938
vn -0.0127 0.0151 0.9998
vn -0.3689 0.4396 0.8189
vn -0.3279 0.9010 0.2842
vn -0.3279 0.9010 -0.2842
vn -0.1963 0.5393 -0.8189
vn -0.0068 0.0186 -0.9998
vn 0.2080 -0.5715 -0.7938
vn 0.3230 -0.8874 -0.3288
vn 0.3230 -0.8874 0.3288
vn 0.2080 -0.5715 0.7938
vn -0.0068 0.0186 0.9998
vn -0.1963 0.5393 0.8189
vn -0.0000 0.9588 0.2842
vn -0.0000 0.9588 -0.2842
vn -0.0000 0.5739 -0.8189
vn -0.0000 0.0198 -0.9998
vn -0.0000 -0.6082 -0.7938
vn -0.0000 -0.9444 -0.3288
vn -0.0000 -0.9444 0.3288
vn -0.0000 -0.6082 0.7938
vn -0.0000 0.0198 0.9998
vn -0.0000 0.5739 0.8189
vn 0.3279 0.9010 0.2842
vn 0.3279 0.9010 -0.2842
vn 0.1963 0.5393 -0.8189
vn 0.0068 0.0186 -0.9998
vn -0.2080 -0.5715 -0.7938
vn -0.3230 -0.8874 -0.3288
vn -0.3230 -0.8874 0.3288
vn -0.2080 -0.5715 0.7938
vn 0.0068 0.0186 0.9998
vn 0.1963 0.5393 0.8189
vn 0.6163 0.7345 0.2842
vn 0.6163 0.7345 -0.2842
vn 0.3689 0.4396 -0.8189
vn 0.0127 0.0151 -0.9998
vn -0.3909 -0.4659 -0.7938
vn -0.6070 -0.7235 -0.3288
vn -0.6070 -0.7234 0.3288
vn -0.3909 -0.4659 0.7938
vn 0.0127 0.0151 0.9998
vn 0.3689 0.4396 0.8189
vn 0.8303 0.4794 0.2842
vn 0.8303 0.4794 -0.2842
vn 0.4970 0.2870 -0.8189
vn 0.0171 0.0099 -0.9998
vn -0.5267 -0.3041 -0.7938
vn -0.8179 -0.4722 -0.3288
vn -0.8179 -0.4722 0.3288
vn -0.5267 -0.3041 0.7938
vn 0.0171 0.0099 0.9998
vn 0.4970 0.2870 0.8189
vn 0.9442 0.1665 0.2841
vn 0.9442 0.1665 -0.2842
vn 0.5652 0.0997 -0.8189
vn 0.0195 0.0034 -0.9998
vn -0.5989 -0.1056 -0.7938
vn -0.9300 -0.1640 -0.3288
vn -0.9300 -0.1640 0.3288
vn -0.5989 -0.1056 0.7938
vn 0.0195 0.0034 0.9998
vn 0.5652 0.0997 0.8189
vn 0.9442 -0.1665 0.2842
vn 0.9442 -0.1665 -0.2842
vn 0.5652 -0.0997 -0.8189
vn 0.0195 -0.0034 -0.9998
vn -0.5989 0.1056 -0.7938
vn -0.9300 0.1640 -0.3288
vn -0.9300 0.1640 0.3288
vn -0.5989 0.1056 0.7938
vn 0.0195 -0.0034 0.9998
vn 0.5652 -0.0997 0.8189
vn 0.8303 -0.4794 0.2841
vn 0.8303 -0.4794 -0.2842
vn 0.4970 -0.2870 -0.8189
vn 0.0171 -0.0099 -0.9998
vn -0.5267 0.3041 -0.7938
vn -0.8179 0.4722 -0.3288
vn -0.8179 0.4722 0.3288
vn -0.5267 0.3041 0.7938
vn 0.0171 -0.0099 0.9998
vn 0.4970 -0.2870 0.8189
vn 0.6163 -0.7345 0.2842
vn 0.6163 -0.7345 -0.2842
vn 0.3689 -0.4396 -0.8189
vn 0.0127 -0.0151 -0.9998
vn -0.3909 0.4659 -0.7938
vn -0.6070 0.7234 -0.3288
vn -0.6070 0.7234 0.3288
vn -0.3909 0.4659 0.7938
vn 0.0127 -0.0151 0.9998
vn 0.3689 -0.4396 0.8189
vn 0.3279 -0.9010 0.2842
vn 0.3279 -0.9010 -0.2842
vn 0.1963 -0.5393 -0.8189
vn 0.0068 -0.0186 -0.9998
vn -0.2080 0.5715 -0.7938
vn -0.3230 0.8874 -0.3288
vn -0.3230 0.8874 0.3288
vn -0.2080 0.5715 0.7938
vn 0.0068 -0.0186 0.9998
vn 0.1963 -0.5393 0.8189
vn -0.0000 -0.9588 0.2842
vn -0.0000 -0.9588 -0.2842
vn -0.0000 -0.5739 -0.8189
vn -0.0000 -0.0198 -0.9998
vn -0.0000 0.6082 -0.7938
vn -0.0000 0.9444 -0.3288
vn -0.0000 0.9444 0.3288
vn -0.0000 0.6082 0.7938
vn -0.0000 -0.0198 0.9998
vn -0.0000 -0.5739 0.8189
vn -0.3279 -0.9010 0.2842
vn -0.3279 -0.9010 -0.2842
vn -0.1963 -0.5393 -0.8189
vn -0.0068 -0.0186 -0.9998
vn 0.2080 0.5715 -0.7938
vn 0.3230 0.8874 -0.3288
vn 0.3230 0.8874 0.3288
vn 0.2080 0.5715 0.7938
vn -0.0068 -0.0186 0.9998
vn -0.1963 -0.5393 0.8189
vn -0.6163 -0.7345 0.2842
vn -0.6163 -0.7345 -0.2842
vn -0.3689 -0.4396 -0.8189
vn -0.0127 -0.0151 -0.9998
vn 0.3909 0.4659 -0.7938
vn 0.6070 0.7234 -0.3288
vn 0.6070 0.7234 0.3288
vn 0.3909 0.4659 0.7938
vn -0.0127 -0.0151 0.9998
vn -0.3689 -0.4396 0.8189
vn -0.8303 -0.4794 0.2841
vn -0.8303 -0.4794 -0.2841
vn -0.4970 -0.2870 -0.8189
vn -0.0171 -0.0099 -0.9998
vn 0.5267 0.3041 -0.7938
vn 0.8179 0.4722 -0.3288
vn 0.8179 0.4722 0.3288
vn 0.5267 0.3041 0.7938
vn -0.0171 -0.0099 0.9998
vn -0.4970 -0.2870 0.8189
vn -0.9442 -0.1665 -0.2842
vn -0.9442 -0.1665 0.2842
vn -0.0195 -0.0034 -0.9998
vn -0.5652 -0.0997 -0.8189
vn 0.9300 0.1640 -0.3288
vn 0.5989 0.1056 -0.7938
vn 0.5989 0.1056 0.7938
vn 0.9300 0.1640 0.3288
vn -0.5652 -0.0997 0.8189
vn -0.0195 -0.0034 0.9998
vn -0.8009 -0.1412 -0.5820
vn -0.8010 0.1412 -0.5817
vn -0.8010 0.1412 0.5818
vn -0.8007 -0.1412 0.5822
vn 0.9835 -0.1807 -0.0000
vn 0.9849 0.1733 -0.0000
vn 0.9848 -0.1736 -0.0000
vn 0.9848 0.1736 -0.0000
vn 0.9882 -0.1529 -0.0000
vn 0.9871 0.1603 -0.0000
vn -0.7043 0.4066 0.5820
vn -0.7042 0.4066 -0.5820
vn 0.8645 -0.5027 -0.0000
vn 0.8660 -0.5000 -0.0000
vn 0.9380 -0.3465 -0.0000
vn -0.5228 0.6230 0.5819
vn -0.5228 0.6230 -0.5818
vn 0.3708 -0.4357 -0.8202
vn 0.6428 -0.7660 -0.0000
vn 0.2109 -0.2916 0.9330
vn -0.2781 0.7641 0.5820
vn -0.2781 0.7642 -0.5820
vn 0.0619 -0.1707 -0.9834
vn 0.3420 -0.9397 -0.0000
vn 0.0591 -0.1879 0.9804
vn -0.0000 0.8131 0.5821
vn -0.0000 0.8131 -0.5821
vn -0.0000 -0.3303 -0.9439
vn -0.0000 -1.0000 -0.0000
vn -0.0000 -0.3713 0.9285
vn 0.2782 0.7643 0.5818
vn 0.2782 0.7643 -0.5818
vn -0.3054 -0.9522 -0.0000
vn -0.3420 -0.9397 -0.0000
vn -0.1583 -0.9874 -0.0000
vn 0.5229 0.6231 0.5817
vn 0.5228 0.6231 -0.5817
vn -0.6706 -0.7418 -0.0000
vn -0.6428 -0.7660 -0.0000
vn -0.0376 -0.0623 0.9973
vn 0.7044 0.4067 0.5817
vn 0.7043 0.4067 -0.5818
vn -0.2437 -0.1351 -0.9604
vn -0.8660 -0.5000 -0.0000
vn -0.2432 -0.1497 0.9583
vn 0.8008 0.1412 0.5820
vn 0.8009 0.1412 -0.5819
vn -0.0000 1.0000 -0.0000
vn -0.9848 -0.1736 -0.0000
vn -0.9653 -0.2613 -0.0000
vn 0.8010 -0.1412 0.5817
vn 0.8010 -0.1412 -0.5818
vn -0.9855 0.1698 -0.0000
vn -0.9848 0.1736 -0.0000
vn -0.9960 0.0899 -0.0000
vn 0.7042 -0.4066 0.5821
vn 0.7044 -0.4067 -0.5817
vn 0.8515 -0.5243 -0.0000
vn -0.8660 0.5000 -0.0000
vn 0.5227 -0.6230 0.5819
vn 0.5228 -0.6230 -0.5818
vn -0.5466 0.6478 -0.5306
vn -0.6428 0.7660 -0.0000
vn -0.6264 0.7795 -0.0000
vn 0.2782 -0.7644 0.5817
vn 0.2782 -0.7644 -0.5817
vn -0.0299 0.0856 -0.9959
vn -0.3420 0.9397 -0.0000
vn -0.0397 0.1239 0.9915
vn -0.0000 -0.8133 0.5818
vn -0.0000 -0.8133 -0.5818
vn -0.2781 -0.7641 0.5821
vn -0.2781 -0.7641 -0.5820
vn 0.1006 0.2763 -0.9558
vn 0.3420 0.9397 -0.0000
vn 0.1046 0.2966 0.9492
vn -0.5227 -0.6229 0.5820
vn -0.5227 -0.6229 -0.5820
vn 0.1113 0.1346 -0.9846
vn 0.6428 0.7660 -0.0000
vn 0.1470 0.1626 0.9757
vn -0.7043 -0.4066 0.5819
vn -0.7043 -0.4066 -0.5819
vn 0.2656 0.1561 -0.9514
vn 0.8660 0.5000 -0.0000
vn 0.8897 0.4565 -0.0000
vn 0.6070 -0.7234 -0.3288
vn 0.6070 -0.7234 0.3288
vn -0.6070 -0.7234 -0.3288
vn 0.8303 0.4794 -0.2841
vn 0.9442 0.1665 0.2842
vn -0.9301 0.1640 -0.3288
vn -0.9301 0.1640 0.3288
vn 0.8303 -0.4794 0.2842
vn 0.8303 -0.4794 -0.2841
vn -0.6070 0.7235 -0.3288
vn -0.6070 0.7235 0.3288
vn 0.6070 0.7235 -0.3288
vn 0.6070 0.7235 0.3288
vn -0.8303 -0.4794 0.2842
vn -0.8303 -0.4794 -0.2842
vn -0.9442 -0.1665 0.2841
vn -0.8010 -0.1412 -0.5818
vn -0.8007 0.1412 -0.5822
vn 0.1287 -0.0223 0.9914
vn 0.9835 0.1807 -0.0000
vn 0.3539 -0.0575 0.9335
vn 0.9741 0.2260 -0.0000
vn -0.7043 0.4066 0.5819
vn 0.8602 -0.5076 0.0489
vn 0.8505 -0.5237 -0.0484
vn -0.5228 0.6231 0.5817
vn -0.5228 0.6231 -0.5818
vn 0.0956 -0.1141 -0.9889
vn 0.1306 -0.1458 0.9807
vn -0.2781 0.7641 -0.5820
vn 0.1049 -0.2899 -0.9513
vn 0.1381 -0.3132 0.9396
vn -0.0000 0.8133 0.5818
vn -0.0000 0.8133 -0.5818
vn -1.0000 -0.0000 -0.0000
vn 0.2782 0.7644 0.5817
vn 0.2782 0.7644 -0.5817
vn -0.0280 -0.0728 -0.9969
vn -0.0187 -0.0000 0.9998
vn 0.5227 0.6230 0.5819
vn 0.5228 0.6230 -0.5818
vn -0.1460 -0.1756 -0.9736
vn -0.4658 -0.6183 0.6330
vn 0.7043 0.4066 0.5819
vn 0.7044 0.4067 -0.5817
vn -0.8515 -0.5243 -0.0000
vn 0.8007 0.1412 0.5821
vn 0.8010 0.1412 -0.5818
vn -0.9855 -0.1698 -0.0000
vn -0.9960 -0.0899 -0.0000
vn 0.8008 -0.1412 0.5820
vn 0.8009 -0.1412 -0.5819
vn 0.0222 -0.0032 -0.9997
vn -0.0000 0.0113 -0.9999
vn 0.7043 -0.4066 0.5819
vn 0.7041 -0.4065 -0.5822
vn -0.7360 0.4208 0.5303
vn -0.7503 0.4619 -0.4730
vn 0.5228 -0.6231 0.5818
vn 0.5228 -0.6231 -0.5818
vn -0.0563 0.0700 -0.9960
vn -0.0636 0.0528 0.9966
vn 0.2782 -0.7643 0.5818
vn 0.2782 -0.7643 -0.5818
vn -0.5399 0.8417 -0.0000
vn -0.0000 -0.8131 0.5821
vn -0.0000 -0.8131 -0.5821
vn -0.0000 0.3018 -0.9534
vn -0.0000 0.3162 0.9487
vn -0.2781 -0.7642 0.5820
vn -0.2781 -0.7642 -0.5820
vn 0.0619 0.1707 -0.9834
vn 0.1052 0.3077 0.9456
vn -0.5229 -0.6232 0.5815
vn -0.5229 -0.6232 -0.5816
vn 0.1944 0.2272 -0.9543
vn 0.3661 0.4049 0.8379
vn -0.7042 -0.4066 0.5820
vn -0.7042 -0.4066 -0.5820
vn 0.4233 0.2476 0.8715
vn 0.4434 0.3276 0.8343
vt 0.500000 0.500856
vt 0.555556 0.600000
vt 0.500000 0.600000
vt 0.500000 0.699144
vt 0.555556 0.700855
vt 0.500000 0.800000
vt 0.500000 0.700855
vt 0.555556 0.800000
vt 0.500000 0.900000
vt 0.555556 0.900000
vt 0.500000 1.000000
vt 0.500000 0.900000
vt 0.555556 0.000000
vt 0.500000 0.098627
vt 0.500000 0.000000
vt 0.555556 0.101373
vt 0.500000 0.200000
vt 0.500000 0.101373
vt 0.555556 0.300000
vt 0.500000 0.300000
vt 0.500000 0.300000
vt 0.555556 0.400000
vt 0.500000 0.400000
vt 0.555556 0.499145
vt 0.500000 0.499144
vt 0.611111 0.500856
vt 0.555556 0.500856
vt 0.611111 0.600000
vt 0.555556 0.699144
vt 0.611111 0.700855
vt 0.611111 0.900000
vt 0.555556 0.900000
vt 0.611111 0.900000
vt 0.555556 1.000000
vt 0.611111 0.000000
vt 0.555556 0.098627
vt 0.611111 0.101373
vt 0.555556 0.200000
vt 0.611111 0.300000
vt 0.611111 0.300000
vt 0.555556 0.300000
vt 0.611111 0.499145
vt 0.666667 0.500856
vt 0.666667 0.600000
vt 0.611111 0.699144
vt 0.666667 0.700855
vt 0.611111 0.800000
vt 0.666667 0.800000
vt 0.666667 0.900001
vt 0.611111 1.000000
vt 0.666667 0.098627
vt 0.611111 0.098627
vt 0.666667 0.200000
vt 0.611111 0.200000
vt 0.666667 0.300000
vt 0.666667 0.300001
vt 0.611111 0.400000
vt 0.666667 0.400000
vt 0.722222 0.500856
vt 0.722222 0.600000
vt 0.666667 0.699144
vt 0.722222 0.700855
vt 0.722222 0.800000
vt 0.666667 0.899999
vt 0.722222 0.900000
vt 0.666667 1.000000
vt 0.666667 0.000000
vt 0.722222 0.098627
vt 0.666667 0.101373
vt 0.722222 0.200000
vt 0.722222 0.300000
vt 0.722222 0.400000
vt 0.666667 0.499145
vt 0.777778 0.600000
vt 0.722222 0.699144
vt 0.777778 0.700855
vt 0.777778 0.800000
vt 0.722222 0.900000
vt 0.777778 0.900000
vt 0.722222 1.000000
vt 0.777778 0.000000
vt 0.722222 0.000000
vt 0.777778 0.101373
vt 0.722222 0.101373
vt 0.777778 0.200000
vt 0.722222 0.300000
vt 0.777778 0.400000
vt 0.722222 0.499145
vt 0.833333 0.500855
vt 0.777778 0.500855
vt 0.833333 0.600000
vt 0.777778 0.699145
vt 0.833333 0.700855
vt 0.833333 0.800000
vt 0.777778 0.900000
vt 0.833333 0.900000
vt 0.777778 1.000000
vt 0.833333 0.000000
vt 0.777778 0.098627
vt 0.833333 0.101373
vt 0.833333 0.300000
vt 0.777778 0.300000
vt 0.833333 0.300001
vt 0.777778 0.300000
vt 0.833333 0.499145
vt 0.777778 0.499145
vt 0.888889 0.500855
vt 0.888889 0.600000
vt 0.833333 0.699145
vt 0.888889 0.800000
vt 0.888889 0.900000
vt 0.833333 0.900000
vt 0.888889 0.900000
vt 0.833333 1.000000
vt 0.888889 0.098627
vt 0.833333 0.098627
vt 0.888889 0.101373
vt 0.833333 0.200000
vt 0.888889 0.200000
vt 0.888889 0.300000
vt 0.833333 0.400000
vt 0.888889 0.400000
vt 0.944444 0.500855
vt 0.944445 0.699145
vt 0.888889 0.699145
vt 0.944444 0.700856
vt 0.888889 0.700855
vt 0.944444 0.899999
vt 0.944444 0.899999
vt 0.888889 1.000000
vt 0.944444 0.000000
vt 0.888889 0.000000
vt 0.944445 0.101373
vt 0.944444 0.300000
vt 0.888889 0.300000
vt 0.944444 0.300001
vt 0.944444 0.400000
vt 0.888889 0.499145
vt 1.000000 0.500855
vt 0.944445 0.600000
vt 0.999841 0.600000
vt 1.000000 0.700855
vt 0.944444 0.800000
vt 0.999949 0.800000
vt 1.000000 0.900000
vt 0.944444 1.000000
vt 1.000000 0.098627
vt 0.944444 0.098627
vt 1.000000 0.101373
vt 0.944444 0.200000
vt 1.000000 0.200000
vt 1.000000 0.300000
vt 1.000000 0.499145
vt 0.944444 0.499144
vt 0.055556 0.500855
vt 0.000159 0.600000
vt 0.000000 0.500855
vt 0.055556 0.600000
vt 0.000000 0.699145
vt 0.000000 0.700855
vt 0.055556 0.800000
vt 0.000051 0.800000
vt 0.055556 0.900000
vt 0.000000 0.900000
vt 0.055556 1.000000
vt 0.000000 1.000000
vt 0.055556 0.000000
vt 0.000000 0.098627
vt 0.000000 0.000000
vt 0.055556 0.101373
vt 0.000000 0.200000
vt 0.000000 0.101373
vt 0.055556 0.200000
vt 0.000000 0.300000
vt 0.055556 0.300000
vt 0.000051 0.400000
vt 0.055556 0.400000
vt 0.000000 0.499145
vt 0.111111 0.500855
vt 0.111111 0.600000
vt 0.055556 0.699145
vt 0.111111 0.700855
vt 0.055556 0.700856
vt 0.111111 0.800000
vt 0.111111 0.900000
vt 0.055556 0.900000
vt 0.111111 0.000000
vt 0.055556 0.098627
vt 0.111111 0.200000
vt 0.111111 0.300000
vt 0.055556 0.300000
vt 0.111111 0.400000
vt 0.055556 0.499144
vt 0.166667 0.500856
vt 0.166667 0.699144
vt 0.111111 0.699145
vt 0.166667 0.700855
vt 0.166667 0.800000
vt 0.111111 0.900000
vt 0.166667 1.000000
vt 0.111111 1.000000
vt 0.166667 0.000000
vt 0.111111 0.098627
vt 0.166667 0.101373
vt 0.111111 0.101373
vt 0.166667 0.200000
vt 0.111111 0.300000
vt 0.166667 0.400000
vt 0.111111 0.499145
vt 0.222222 0.500856
vt 0.166667 0.600000
vt 0.222222 0.699145
vt 0.222222 0.700855
vt 0.222222 0.800000
vt 0.166667 0.900000
vt 0.222222 0.900000
vt 0.166667 0.900000
vt 0.222222 0.000000
vt 0.166667 0.098627
vt 0.222222 0.101373
vt 0.222222 0.200000
vt 0.166667 0.300000
vt 0.222222 0.300000
vt 0.166667 0.300000
vt 0.222222 0.499145
vt 0.166667 0.499144
vt 0.277778 0.500856
vt 0.222222 0.600000
vt 0.277778 0.600000
vt 0.277778 0.700855
vt 0.277778 0.900000
vt 0.222222 0.900000
vt 0.277778 0.900000
vt 0.222222 1.000000
vt 0.277778 0.098627
vt 0.222222 0.098627
vt 0.277778 0.101373
vt 0.277778 0.200000
vt 0.222222 0.300000
vt 0.277778 0.300000
vt 0.222222 0.400000
vt 0.277778 0.400000
vt 0.333333 0.600000
vt 0.277778 0.699144
vt 0.333333 0.800000
vt 0.277778 0.800000
vt 0.333333 0.899999
vt 0.333333 0.900000
vt 0.277778 1.000000
vt 0.333333 0.000000
vt 0.277778 0.000000
vt 0.333333 0.101373
vt 0.333333 0.200000
vt 0.277778 0.300000
vt 0.333333 0.300000
vt 0.333333 0.400000
vt 0.277778 0.499145
vt 0.388889 0.500856
vt 0.333333 0.500855
vt 0.388889 0.600000
vt 0.333333 0.699145
vt 0.388889 0.700855
vt 0.333333 0.700855
vt 0.388889 0.800000
vt 0.388889 1.000000
vt 0.333333 1.000000
vt 0.388889 0.098627
vt 0.333333 0.098627
vt 0.388889 0.101373
vt 0.388889 0.200000
vt 0.333333 0.300000
vt 0.388889 0.400000
vt 0.333333 0.499145
vt 0.444444 0.600000
vt 0.444444 0.699144
vt 0.388889 0.699144
vt 0.444444 0.700855
vt 0.444444 0.900000
vt 0.388889 0.899999
vt 0.444444 0.900000
vt 0.388889 0.900000
vt 0.444444 0.000000
vt 0.388889 0.000000
vt 0.444444 0.101373
vt 0.444444 0.200000
vt 0.388889 0.300000
vt 0.388889 0.300001
vt 0.444444 0.400000
vt 0.388889 0.499145
vt 0.444444 0.800000
vt 0.444444 0.300000
vt 0.444444 0.499145
vt 0.444444 0.500856
vt 0.444444 0.098627
vt 0.444444 0.300000
vt 1.000000 0.699145
vt 1.000000 0.900000
vt 1.000000 1.000000
vt 1.000000 0.000000
vt 0.999949 0.400000
vt 0.444444 1.000000
s 0
usemtl core
f 2/1/1 18/2/1 3/3/1
f 18/2/2 1/4/2 3/3/2
f 19/5/3 6/6/3 5/7/3
f 21/8/4 4/9/4 6/6/4
f 22/10/5 9/11/5 8/12/5
f 24/13/6 7/14/6 9/15/6
f 25/16/7 12/17/7 11/18/7
f 12/17/8 26/19/8 10/20/8
f 14/21/9 30/22/9 15/23/9
f 15/23/10 29/24/10 13/25/10
f 31/26/11 18/2/11 16/27/11
f 33/28/12 17/29/12 18/2/12
f 34/30/13 21/8/13 19/5/13
f 21/8/14 35/31/14 20/32/14
f 37/33/15 24/34/15 22/10/15
f 39/35/16 23/36/16 24/13/16
f 40/37/17 27/38/17 25/16/17
f 27/38/18 41/39/18 26/19/18
f 43/40/19 30/22/19 28/41/19
f 30/22/20 44/42/20 29/24/20
f 46/43/21 33/28/21 31/26/21
f 48/44/22 32/45/22 33/28/22
f 49/46/23 36/47/23 34/30/23
f 51/48/24 35/31/24 36/47/24
f 52/49/25 39/50/25 37/33/25
f 39/35/26 53/51/26 38/52/26
f 40/37/27 57/53/27 42/54/27
f 42/54/28 56/55/28 41/39/28
f 58/56/29 45/57/29 43/40/29
f 60/58/30 44/42/30 45/57/30
f 61/59/31 48/44/31 46/43/31
f 63/60/32 47/61/32 48/44/32
f 64/62/33 51/48/33 49/46/33
f 66/63/34 50/64/34 51/48/34
f 67/65/35 54/66/35 52/49/35
f 54/67/36 68/68/36 53/51/36
f 55/69/37 72/70/37 57/53/37
f 72/70/38 56/55/38 57/53/38
f 73/71/39 60/58/39 58/56/39
f 75/72/40 59/73/40 60/58/40
f 61/59/41 78/74/41 63/60/41
f 78/74/42 62/75/42 63/60/42
f 79/76/43 66/63/43 64/62/43
f 81/77/44 65/78/44 66/63/44
f 82/79/45 69/80/45 67/65/45
f 84/81/46 68/68/46 69/82/46
f 85/83/47 72/70/47 70/84/47
f 87/85/48 71/86/48 72/70/48
f 73/71/49 90/87/49 75/72/49
f 90/87/50 74/88/50 75/72/50
f 91/89/51 78/74/51 76/90/51
f 93/91/52 77/92/52 78/74/52
f 94/93/53 81/77/53 79/76/53
f 96/94/54 80/95/54 81/77/54
f 97/96/55 84/97/55 82/79/55
f 99/98/56 83/99/56 84/81/56
f 100/100/57 87/85/57 85/83/57
f 87/85/58 101/101/58 86/102/58
f 103/103/59 90/87/59 88/104/59
f 90/87/60 104/105/60 89/106/60
f 106/107/61 93/91/61 91/89/61
f 108/108/62 92/109/62 93/91/62
f 94/93/63 111/110/63 96/94/63
f 96/94/64 110/111/64 95/112/64
f 112/113/65 99/114/65 97/96/65
f 99/98/66 113/115/66 98/116/66
f 115/117/67 102/118/67 100/100/67
f 117/119/68 101/101/68 102/118/68
f 118/120/69 105/121/69 103/103/69
f 120/122/70 104/105/70 105/121/70
f 121/123/71 108/108/71 106/107/71
f 108/108/72 122/124/72 107/125/72
f 124/126/73 111/110/73 109/127/73
f 111/110/74 125/128/74 110/111/74
f 127/129/75 114/130/75 112/113/75
f 129/131/76 113/115/76 114/132/76
f 130/133/77 117/119/77 115/117/77
f 117/119/78 131/134/78 116/135/78
f 133/136/79 120/122/79 118/120/79
f 135/137/80 119/138/80 120/122/80
f 136/139/81 123/140/81 121/123/81
f 138/141/82 122/124/82 123/140/82
f 139/142/83 126/143/83 124/126/83
f 141/144/84 125/128/84 126/143/84
f 142/145/85 129/146/85 127/129/85
f 129/131/86 143/147/86 128/148/86
f 145/149/87 132/150/87 130/133/87
f 147/151/88 131/134/88 132/150/88
f 148/152/89 135/137/89 133/136/89
f 135/137/90 149/153/90 134/154/90
f 151/155/91 138/156/91 136/157/91
f 153/158/92 137/159/92 138/156/92
f 139/160/93 156/161/93 141/162/93
f 141/162/94 155/163/94 140/164/94
f 142/164/95 159/165/95 144/166/95
f 159/167/96 143/168/96 144/169/96
f 160/170/97 147/171/97 145/172/97
f 162/173/98 146/174/98 147/171/98
f 163/175/99 150/176/99 148/174/99
f 165/177/100 149/178/100 150/176/100
f 166/179/101 153/158/101 151/155/101
f 168/180/102 152/181/102 153/158/102
f 169/182/103 156/161/103 154/183/103
f 171/184/104 155/163/104 156/161/104
f 172/185/105 159/165/105 157/186/105
f 174/187/106 158/188/106 159/167/106
f 160/170/107 177/189/107 162/173/107
f 162/173/108 176/190/108 161/191/108
f 163/175/109 180/192/109 165/177/109
f 180/192/110 164/193/110 165/177/110
f 181/194/111 168/180/111 166/179/111
f 168/180/112 182/195/112 167/196/112
f 184/197/113 171/184/113 169/182/113
f 186/198/114 170/199/114 171/184/114
f 172/185/115 189/200/115 174/201/115
f 189/202/116 173/203/116 174/187/116
f 190/204/117 177/189/117 175/205/117
f 192/206/118 176/190/118 177/189/118
f 178/207/119 195/208/119 180/192/119
f 195/208/120 179/209/120 180/192/120
f 196/210/121 183/211/121 181/194/121
f 183/211/122 197/212/122 182/195/122
f 199/213/123 186/198/123 184/197/123
f 201/214/124 185/215/124 186/198/124
f 202/216/125 189/200/125 187/217/125
f 204/218/126 188/219/126 189/202/126
f 205/220/127 192/206/127 190/204/127
f 207/221/128 191/222/128 192/206/128
f 208/223/129 195/208/129 193/224/129
f 195/208/130 209/225/130 194/226/130
f 211/227/131 198/228/131 196/210/131
f 213/229/132 197/212/132 198/228/132
f 214/230/133 201/214/133 199/213/133
f 201/214/134 215/231/134 200/232/134
f 217/233/135 204/234/135 202/216/135
f 204/218/136 218/235/136 203/236/136
f 220/237/137 207/221/137 205/220/137
f 222/238/138 206/239/138 207/221/138
f 223/240/139 210/241/139 208/223/139
f 225/242/140 209/225/140 210/241/140
f 211/227/141 228/243/141 213/229/141
f 228/243/142 212/244/142 213/229/142
f 214/230/143 231/245/143 216/246/143
f 216/246/144 230/247/144 215/231/144
f 232/248/145 219/249/145 217/233/145
f 234/250/146 218/235/146 219/251/146
f 235/252/147 222/238/147 220/237/147
f 237/253/148 221/254/148 222/238/148
f 238/255/149 225/242/149 223/240/149
f 240/256/150 224/257/150 225/242/150
f 241/258/151 228/243/151 226/259/151
f 243/260/152 227/261/152 228/243/152
f 244/262/153 231/245/153 229/263/153
f 246/264/154 230/247/154 231/245/154
f 232/248/155 249/265/155 234/266/155
f 234/250/156 248/267/156 233/268/156
f 250/269/157 237/253/157 235/252/157
f 252/270/158 236/271/158 237/253/158
f 238/255/159 255/272/159 240/256/159
f 255/272/160 239/273/160 240/256/160
f 241/258/161 258/274/161 243/260/161
f 243/260/162 257/275/162 242/276/162
f 259/277/163 246/264/163 244/262/163
f 246/264/164 260/278/164 245/279/164
f 262/280/165 249/265/165 247/281/165
f 264/282/166 248/267/166 249/283/166
f 265/284/167 252/270/167 250/269/167
f 267/285/168 251/286/168 252/270/168
f 253/287/169 270/288/169 255/272/169
f 270/288/170 254/289/170 255/272/170
f 257/275/171 3/3/171 1/4/171
f 258/274/172 2/1/172 3/3/172
f 260/278/173 6/6/173 4/9/173
f 261/290/174 5/7/174 6/6/174
f 7/14/175 264/282/175 9/15/175
f 9/11/176 262/280/176 8/12/176
f 266/291/177 12/17/177 10/20/177
f 267/285/178 11/18/178 12/17/178
f 13/25/179 270/288/179 15/23/179
f 270/288/180 14/21/180 15/23/180
f 1/4/181 259/277/181 257/275/181
f 17/29/182 5/7/182 1/4/182
f 29/24/183 2/1/183 13/25/183
f 269/292/184 2/1/184 256/293/184
f 20/32/185 8/12/185 4/9/185
f 260/278/186 8/12/186 262/280/186
f 23/36/187 11/18/187 7/14/187
f 7/14/188 265/284/188 263/294/188
f 10/20/189 28/41/189 14/21/189
f 266/291/190 14/21/190 268/295/190
f 29/24/191 31/26/191 16/27/191
f 32/45/192 19/5/192 17/29/192
f 20/32/193 37/33/193 22/10/193
f 38/52/194 25/16/194 23/36/194
f 26/19/195 43/40/195 28/41/195
f 59/73/196 31/26/196 44/42/196
f 32/45/197 49/46/197 34/30/197
f 35/31/198 52/49/198 37/33/198
f 38/52/199 55/69/199 40/37/199
f 41/39/200 58/56/200 43/40/200
f 59/73/201 61/59/201 46/43/201
f 62/75/202 49/46/202 47/61/202
f 65/78/203 52/49/203 50/64/203
f 68/68/204 55/69/204 53/51/204
f 71/86/205 58/56/205 56/55/205
f 89/106/206 61/59/206 74/88/206
f 77/92/207 64/62/207 62/75/207
f 65/78/208 82/79/208 67/65/208
f 83/99/209 70/84/209 68/68/209
f 71/86/210 88/104/210 73/71/210
f 104/105/211 76/90/211 89/106/211
f 92/109/212 79/76/212 77/92/212
f 80/95/213 97/96/213 82/79/213
f 98/116/214 85/83/214 83/99/214
f 86/102/215 103/103/215 88/104/215
f 104/105/216 106/107/216 91/89/216
f 92/109/217 109/127/217 94/93/217
f 95/112/218 112/113/218 97/96/218
f 113/115/219 100/100/219 98/116/219
f 101/101/220 118/120/220 103/103/220
f 119/138/221 121/123/221 106/107/221
f 122/124/222 109/127/222 107/125/222
f 110/111/223 127/129/223 112/113/223
f 113/115/224 130/133/224 115/117/224
f 116/135/225 133/136/225 118/120/225
f 149/153/226 121/123/226 134/154/226
f 137/296/227 124/126/227 122/124/227
f 125/128/228 142/145/228 127/129/228
f 143/147/229 130/133/229 128/148/229
f 146/152/230 133/136/230 131/134/230
f 149/178/231 151/155/231 136/157/231
f 137/159/232 154/183/232 139/160/232
f 140/164/233 157/186/233 142/164/233
f 158/188/234 145/172/234 143/168/234
f 146/174/235 163/175/235 148/174/235
f 164/193/236 166/179/236 151/155/236
f 152/181/237 169/182/237 154/183/237
f 155/163/238 172/185/238 157/186/238
f 173/203/239 160/170/239 158/188/239
f 161/191/228 178/207/228 163/175/228
f 179/209/240 181/194/240 166/179/240
f 182/195/241 169/182/241 167/196/241
f 185/215/242 172/185/242 170/199/242
f 188/219/243 175/205/243 173/203/243
f 176/190/244 193/224/244 178/207/244
f 194/226/245 196/210/245 181/194/245
f 197/212/246 184/197/246 182/195/246
f 185/215/247 202/216/247 187/217/247
f 203/236/248 190/204/248 188/219/248
f 191/222/249 208/223/249 193/224/249
f 209/225/250 211/227/250 196/210/250
f 197/212/251 214/230/251 199/213/251
f 200/232/228 217/233/228 202/216/228
f 218/235/228 205/220/228 203/236/228
f 206/239/228 223/240/228 208/223/228
f 224/257/252 226/259/252 211/227/252
f 212/244/253 229/263/253 214/230/253
f 215/231/254 232/248/254 217/233/254
f 233/268/255 220/237/255 218/235/255
f 221/254/256 238/255/256 223/240/256
f 254/289/257 226/259/257 239/273/257
f 227/261/258 244/262/258 229/263/258
f 230/247/259 247/281/259 232/248/259
f 233/268/260 250/269/260 235/252/260
f 236/271/261 253/287/261 238/255/261
f 254/289/262 256/293/262 241/258/262
f 257/275/263 244/262/263 242/276/263
f 245/279/264 262/280/264 247/281/264
f 263/294/265 250/269/265 248/267/265
f 251/286/266 268/295/266 253/287/266
f 2/1/1 16/27/1 18/2/1
f 18/2/2 17/29/2 1/4/2
f 19/5/3 21/8/3 6/6/3
f 21/8/4 20/32/4 4/9/4
f 22/10/5 24/34/5 9/11/5
f 24/13/6 23/36/6 7/14/6
f 25/16/7 27/38/7 12/17/7
f 12/17/8 27/38/8 26/19/8
f 14/21/9 28/41/9 30/22/9
f 15/23/10 30/22/10 29/24/10
f 31/26/11 33/28/11 18/2/11
f 33/28/12 32/45/12 17/29/12
f 34/30/13 36/47/13 21/8/13
f 21/8/14 36/47/14 35/31/14
f 37/33/15 39/50/15 24/34/15
f 39/35/16 38/52/16 23/36/16
f 40/37/17 42/54/17 27/38/17
f 27/38/18 42/54/18 41/39/18
f 43/40/19 45/57/19 30/22/19
f 30/22/20 45/57/20 44/42/20
f 46/43/21 48/44/21 33/28/21
f 48/44/22 47/61/22 32/45/22
f 49/46/23 51/48/23 36/47/23
f 51/48/24 50/64/24 35/31/24
f 52/49/25 54/66/25 39/50/25
f 39/35/267 54/67/267 53/51/267
f 40/37/268 55/69/268 57/53/268
f 42/54/28 57/53/28 56/55/28
f 58/56/29 60/58/29 45/57/29
f 60/58/30 59/73/30 44/42/30
f 61/59/31 63/60/31 48/44/31
f 63/60/32 62/75/32 47/61/32
f 64/62/33 66/63/33 51/48/33
f 66/63/34 65/78/34 50/64/34
f 67/65/35 69/80/35 54/66/35
f 54/67/36 69/82/36 68/68/36
f 55/69/37 70/84/37 72/70/37
f 72/70/38 71/86/38 56/55/38
f 73/71/39 75/72/39 60/58/39
f 75/72/40 74/88/40 59/73/40
f 61/59/41 76/90/41 78/74/41
f 78/74/42 77/92/42 62/75/42
f 79/76/43 81/77/43 66/63/43
f 81/77/44 80/95/44 65/78/44
f 82/79/45 84/97/45 69/80/45
f 84/81/46 83/99/46 68/68/46
f 85/83/47 87/85/47 72/70/47
f 87/85/48 86/102/48 71/86/48
f 73/71/49 88/104/49 90/87/49
f 90/87/50 89/106/50 74/88/50
f 91/89/51 93/91/51 78/74/51
f 93/91/52 92/109/52 77/92/52
f 94/93/53 96/94/53 81/77/53
f 96/94/54 95/112/54 80/95/54
f 97/96/55 99/114/55 84/97/55
f 99/98/56 98/116/56 83/99/56
f 100/100/57 102/118/57 87/85/57
f 87/85/58 102/118/58 101/101/58
f 103/103/59 105/121/59 90/87/59
f 90/87/60 105/121/60 104/105/60
f 106/107/61 108/108/61 93/91/61
f 108/108/62 107/125/62 92/109/62
f 94/93/63 109/127/63 111/110/63
f 96/94/64 111/110/64 110/111/64
f 112/113/65 114/130/65 99/114/65
f 99/98/269 114/132/269 113/115/269
f 115/117/67 117/119/67 102/118/67
f 117/119/68 116/135/68 101/101/68
f 118/120/69 120/122/69 105/121/69
f 120/122/70 119/138/70 104/105/70
f 121/123/71 123/140/71 108/108/71
f 108/108/270 123/140/270 122/124/270
f 124/126/73 126/143/73 111/110/73
f 111/110/74 126/143/74 125/128/74
f 127/129/75 129/146/75 114/130/75
f 129/131/76 128/148/76 113/115/76
f 130/133/77 132/150/77 117/119/77
f 117/119/78 132/150/78 131/134/78
f 133/136/79 135/137/79 120/122/79
f 135/137/80 134/154/80 119/138/80
f 136/139/271 138/141/271 123/140/271
f 138/141/82 137/296/82 122/124/82
f 139/142/83 141/144/83 126/143/83
f 141/144/84 140/297/84 125/128/84
f 142/145/85 144/298/85 129/146/85
f 129/131/86 144/299/86 143/147/86
f 145/149/87 147/151/87 132/150/87
f 147/151/88 146/152/88 131/134/88
f 148/152/89 150/300/89 135/137/89
f 135/137/90 150/300/90 149/153/90
f 151/155/91 153/158/91 138/156/91
f 153/158/92 152/181/92 137/159/92
f 139/160/93 154/183/93 156/161/93
f 141/162/94 156/161/94 155/163/94
f 142/164/95 157/186/95 159/165/95
f 159/167/272 158/188/272 143/168/272
f 160/170/273 162/173/273 147/171/273
f 162/173/98 161/191/98 146/174/98
f 163/175/99 165/177/99 150/176/99
f 165/177/100 164/193/100 149/178/100
f 166/179/274 168/180/274 153/158/274
f 168/180/275 167/196/275 152/181/275
f 169/182/103 171/184/103 156/161/103
f 171/184/104 170/199/104 155/163/104
f 172/185/105 174/201/105 159/165/105
f 174/187/106 173/203/106 158/188/106
f 160/170/107 175/205/107 177/189/107
f 162/173/108 177/189/108 176/190/108
f 163/175/109 178/207/109 180/192/109
f 180/192/110 179/209/110 164/193/110
f 181/194/111 183/211/111 168/180/111
f 168/180/112 183/211/112 182/195/112
f 184/197/113 186/198/113 171/184/113
f 186/198/114 185/215/114 170/199/114
f 172/185/115 187/217/115 189/200/115
f 189/202/276 188/219/276 173/203/276
f 190/204/277 192/206/277 177/189/277
f 192/206/118 191/222/118 176/190/118
f 178/207/119 193/224/119 195/208/119
f 195/208/120 194/226/120 179/209/120
f 196/210/121 198/228/121 183/211/121
f 183/211/122 198/228/122 197/212/122
f 199/213/123 201/214/123 186/198/123
f 201/214/124 200/232/124 185/215/124
f 202/216/125 204/234/125 189/200/125
f 204/218/126 203/236/126 188/219/126
f 205/220/127 207/221/127 192/206/127
f 207/221/128 206/239/128 191/222/128
f 208/223/129 210/241/129 195/208/129
f 195/208/130 210/241/130 209/225/130
f 211/227/131 213/229/131 198/228/131
f 213/229/132 212/244/132 197/212/132
f 214/230/133 216/246/133 201/214/133
f 201/214/134 216/246/134 215/231/134
f 217/233/135 219/249/135 204/234/135
f 204/218/136 219/251/136 218/235/136
f 220/237/137 222/238/137 207/221/137
f 222/238/138 221/254/138 206/239/138
f 223/240/139 225/242/139 210/241/139
f 225/242/140 224/257/140 209/225/140
f 211/227/141 226/259/141 228/243/141
f 228/243/142 227/261/142 212/244/142
f 214/230/143 229/263/143 231/245/143
f 216/246/144 231/245/144 230/247/144
f 232/248/145 234/266/145 219/249/145
f 234/250/146 233/268/146 218/235/146
f 235/252/147 237/253/147 222/238/147
f 237/253/148 236/271/148 221/254/148
f 238/255/149 240/256/149 225/242/149
f 240/256/150 239/273/150 224/257/150
f 241/258/151 243/260/151 228/243/151
f 243/260/152 242/276/152 227/261/152
f 244/262/153 246/264/153 231/245/153
f 246/264/154 245/279/154 230/247/154
f 232/248/155 247/281/155 249/265/155
f 234/250/278 249/283/278 248/267/278
f 250/269/279 252/270/279 237/253/279
f 252/270/158 251/286/158 236/271/158
f 238/255/159 253/287/159 255/272/159
f 255/272/160 254/289/160 239/273/160
f 241/258/280 256/293/280 258/274/280
f 243/260/281 258/274/281 257/275/281
f 259/277/163 261/290/163 246/264/163
f 246/264/164 261/290/164 260/278/164
f 262/280/165 264/301/165 249/265/165
f 264/282/166 263/294/166 248/267/166
f 265/284/167 267/285/167 252/270/167
f 267/285/168 266/291/168 251/286/168
f 253/287/169 268/295/169 270/288/169
f 270/288/170 269/292/170 254/289/170
f 257/275/171 258/274/171 3/3/171
f 258/274/282 256/293/282 2/1/282
f 260/278/173 261/290/173 6/6/173
f 261/290/174 259/277/174 5/7/174
f 7/14/175 263/294/175 264/282/175
f 9/11/176 264/301/176 262/280/176
f 266/291/177 267/285/177 12/17/177
f 267/285/178 265/284/178 11/18/178
f 13/25/179 269/292/179 270/288/179
f 270/288/180 268/295/180 14/21/180
f 1/4/283 5/7/283 259/277/283
f 17/29/284 19/5/284 5/7/284
f 29/24/183 16/27/183 2/1/183
f 269/292/184 13/25/184 2/1/184
f 20/32/285 22/10/285 8/12/285
f 260/278/286 4/9/286 8/12/286
f 23/36/187 25/16/187 11/18/187
f 7/14/188 11/18/188 265/284/188
f 10/20/287 26/19/287 28/41/287
f 266/291/288 10/20/288 14/21/288
f 29/24/289 44/42/289 31/26/289
f 32/45/192 34/30/192 19/5/192
f 20/32/290 35/31/290 37/33/290
f 38/52/194 40/37/194 25/16/194
f 26/19/291 41/39/291 43/40/291
f 59/73/292 46/43/292 31/26/292
f 32/45/293 47/61/293 49/46/293
f 35/31/294 50/64/294 52/49/294
f 38/52/199 53/51/199 55/69/199
f 41/39/295 56/55/295 58/56/295
f 59/73/201 74/88/201 61/59/201
f 62/75/296 64/62/296 49/46/296
f 65/78/297 67/65/297 52/49/297
f 68/68/204 70/84/204 55/69/204
f 71/86/298 73/71/298 58/56/298
f 89/106/299 76/90/299 61/59/299
f 77/92/300 79/76/300 64/62/300
f 65/78/209 80/95/209 82/79/209
f 83/99/209 85/83/209 70/84/209
f 71/86/301 86/102/301 88/104/301
f 104/105/302 91/89/302 76/90/302
f 92/109/303 94/93/303 79/76/303
f 80/95/304 95/112/304 97/96/304
f 98/116/214 100/100/214 85/83/214
f 86/102/305 101/101/305 103/103/305
f 104/105/306 119/138/306 106/107/306
f 92/109/307 107/125/307 109/127/307
f 95/112/308 110/111/308 112/113/308
f 113/115/219 115/117/219 100/100/219
f 101/101/309 116/135/309 118/120/309
f 119/138/310 134/154/310 121/123/310
f 122/124/311 124/126/311 109/127/311
f 110/111/228 125/128/228 127/129/228
f 113/115/224 128/148/224 130/133/224
f 116/135/312 131/134/312 133/136/312
f 149/153/313 136/139/313 121/123/313
f 137/296/314 139/142/314 124/126/314
f 125/128/315 140/297/315 142/145/315
f 143/147/229 145/149/229 130/133/229
f 146/152/316 148/152/316 133/136/316
f 149/178/317 164/193/317 151/155/317
f 137/159/318 152/181/318 154/183/318
f 140/164/319 155/163/319 157/186/319
f 158/188/234 160/170/234 145/172/234
f 146/174/320 161/191/320 163/175/320
f 164/193/321 179/209/321 166/179/321
f 152/181/322 167/196/322 169/182/322
f 155/163/323 170/199/323 172/185/323
f 173/203/239 175/205/239 160/170/239
f 161/191/324 176/190/324 178/207/324
f 179/209/325 194/226/325 181/194/325
f 182/195/326 184/197/326 169/182/326
f 185/215/327 187/217/327 172/185/327
f 188/219/243 190/204/243 175/205/243
f 176/190/328 191/222/328 193/224/328
f 194/226/329 209/225/329 196/210/329
f 197/212/330 199/213/330 184/197/330
f 185/215/331 200/232/331 202/216/331
f 203/236/248 205/220/248 190/204/248
f 191/222/301 206/239/301 208/223/301
f 209/225/332 224/257/332 211/227/332
f 197/212/333 212/244/333 214/230/333
f 200/232/334 215/231/334 217/233/334
f 218/235/228 220/237/228 205/220/228
f 206/239/335 221/254/335 223/240/335
f 224/257/336 239/273/336 226/259/336
f 212/244/337 227/261/337 229/263/337
f 215/231/338 230/247/338 232/248/338
f 233/268/255 235/252/255 220/237/255
f 221/254/339 236/271/339 238/255/339
f 254/289/340 241/258/340 226/259/340
f 227/261/341 242/276/341 244/262/341
f 230/247/342 245/279/342 247/281/342
f 233/268/260 248/267/260 250/269/260
f 236/271/343 251/286/343 253/287/343
f 254/289/344 269/292/344 256/293/344
f 257/275/345 259/277/345 244/262/345
f 245/279/346 260/278/346 262/280/346
f 263/294/265 265/284/265 250/269/265
f 251/286/347 266/291/347 268/295/347
