# Blender 4.5.10 LTS
# www.blender.org
mtllib grove_spirit_podkin.mtl
o grove_spirit_podkin
v -0.012041 0.022275 0.091427
v 0.219156 0.199257 -0.041335
v 0.012667 0.041189 0.159668
v 0.243863 0.218171 0.026906
v -0.057630 0.081829 0.091427
v 0.173567 0.258811 -0.041335
v -0.032922 0.100743 0.159668
v 0.198275 0.277725 0.026906
v 0.365990 0.049974 0.231137
v 0.285291 0.226955 -0.022960
v 0.341283 0.104161 0.276726
v 0.260583 0.281142 0.022629
v 0.297750 0.018858 0.231137
v 0.217050 0.195839 -0.022960
v 0.273042 0.073045 0.276726
v 0.192343 0.250026 0.022629
v 0.472922 0.100743 -0.159668
v 0.241725 0.277725 -0.026906
v 0.497630 0.081829 -0.091427
v 0.266433 0.258811 0.041335
v 0.427333 0.041189 -0.159668
v 0.196137 0.218171 -0.026906
v 0.452041 0.022275 -0.091427
v 0.220844 0.199257 0.041335
v 0.166958 0.073045 -0.276726
v 0.247657 0.250026 -0.022629
v 0.142250 0.018858 -0.231137
v 0.222950 0.195839 0.022960
v 0.098717 0.104161 -0.276726
v 0.179417 0.281142 -0.022629
v 0.074010 0.049974 -0.231137
v 0.154709 0.226955 0.022960
v 0.191239 0.131256 0.120000
v 0.248761 0.788744 0.100000
v 0.087711 0.140313 0.060000
v 0.162488 0.796292 0.050000
v 0.087711 0.140313 -0.060000
v 0.162488 0.796292 -0.050000
v 0.191239 0.131256 -0.120000
v 0.248761 0.788744 -0.100000
v 0.294766 0.122198 -0.060000
v 0.335034 0.781196 -0.050000
v 0.294766 0.122198 0.060000
v 0.335034 0.781196 0.050000
v -0.452041 0.022275 0.091427
v -0.220844 0.199257 -0.041335
v -0.427333 0.041189 0.159668
v -0.196137 0.218171 0.026906
v -0.497630 0.081829 0.091427
v -0.266433 0.258811 -0.041335
v -0.472922 0.100743 0.159668
v -0.241725 0.277725 0.026906
v -0.074010 0.049974 0.231137
v -0.154709 0.226955 -0.022960
v -0.098717 0.104161 0.276726
v -0.179417 0.281142 0.022629
v -0.142250 0.018858 0.231137
v -0.222950 0.195839 -0.022960
v -0.166958 0.073045 0.276726
v -0.247657 0.250026 0.022629
v 0.032922 0.100743 -0.159668
v -0.198275 0.277725 -0.026906
v 0.057630 0.081829 -0.091427
v -0.173567 0.258811 0.041335
v -0.012667 0.041189 -0.159668
v -0.243863 0.218171 -0.026906
v 0.012041 0.022275 -0.091427
v -0.219156 0.199257 0.041335
v -0.273042 0.073045 -0.276726
v -0.192343 0.250026 -0.022629
v -0.297750 0.018858 -0.231137
v -0.217050 0.195839 0.022960
v -0.341283 0.104161 -0.276726
v -0.260583 0.281142 -0.022629
v -0.365990 0.049974 -0.231137
v -0.285291 0.226955 0.022960
v -0.191239 0.131256 0.120000
v -0.248761 0.788744 0.100000
v -0.294766 0.122198 0.060000
v -0.335034 0.781196 0.050000
v -0.294766 0.122198 -0.060000
v -0.335034 0.781196 -0.050000
v -0.191239 0.131256 -0.120000
v -0.248761 0.788744 -0.100000
v -0.087711 0.140313 -0.060000
v -0.162488 0.796292 -0.050000
v -0.087711 0.140313 0.060000
v -0.162488 0.796292 0.050000
v 0.000000 0.750000 0.280000
v 0.000000 0.930000 0.240000
v -0.242487 0.750000 0.140000
v -0.207846 0.930000 0.120000
v -0.242487 0.750000 -0.140000
v -0.207846 0.930000 -0.120000
v -0.000000 0.750000 -0.280000
v 0.000000 0.930000 -0.240000
v 0.242487 0.750000 -0.140000
v 0.207846 0.930000 -0.120000
v 0.242487 0.750000 0.140000
v 0.207846 0.930000 0.120000
v 0.433808 0.568885 0.010000
v 0.283816 1.170468 0.010000
v 0.433808 0.568885 0.090000
v 0.283816 1.170469 0.090000
v 0.356184 0.549531 0.010000
v 0.206192 1.151115 0.010000
v 0.356184 0.549531 0.090000
v 0.206192 1.151115 0.090000
v 0.418486 0.197247 0.035000
v 0.482763 0.632527 0.035000
v 0.418486 0.197247 0.105000
v 0.482763 0.632527 0.105000
v 0.349237 0.207473 0.035000
v 0.413514 0.642753 0.035000
v 0.349237 0.207473 0.105000
v 0.413514 0.642753 0.105000
v -0.356184 0.549531 0.010000
v -0.206192 1.151115 0.010000
v -0.356184 0.549531 0.090000
v -0.206192 1.151115 0.090000
v -0.433808 0.568885 0.010000
v -0.283816 1.170468 0.010000
v -0.433808 0.568885 0.090000
v -0.283816 1.170468 0.090000
v -0.349237 0.207473 0.035000
v -0.413514 0.642753 0.035000
v -0.349237 0.207473 0.105000
v -0.413514 0.642753 0.105000
v -0.418486 0.197247 0.035000
v -0.482763 0.632527 0.035000
v -0.418486 0.197247 0.105000
v -0.482763 0.632527 0.105000
v -0.000000 0.930000 0.260000
v -0.000000 1.550000 0.340000
v -0.183848 0.930000 0.183848
v -0.240416 1.550000 0.240416
v -0.260000 0.930000 -0.000000
v -0.340000 1.550000 -0.000000
v -0.183848 0.930000 -0.183848
v -0.240416 1.550000 -0.240416
v -0.000000 0.930000 -0.260000
v -0.000000 1.550000 -0.340000
v 0.183848 0.930000 -0.183848
v 0.240416 1.550000 -0.240416
v 0.260000 0.930000 -0.000000
v 0.340000 1.550000 -0.000000
v 0.183848 0.930000 0.183848
v 0.240416 1.550000 0.240416
v 0.127500 1.048200 -0.127500
v 0.127500 1.351800 -0.127500
v 0.127500 1.048200 0.127500
v 0.127500 1.351800 0.127500
v -0.127500 1.048200 -0.127500
v -0.127500 1.351800 -0.127500
v -0.127500 1.048200 0.127500
v -0.127500 1.351800 0.127500
v -0.136680 0.970000 0.027533
v -0.136680 1.430000 0.027533
v -0.136680 0.970000 0.077533
v -0.136680 1.430000 0.077533
v -0.186680 0.970000 0.027533
v -0.186680 1.430000 0.027533
v -0.186680 0.970000 0.077533
v -0.186680 1.430000 0.077533
v 0.077533 0.970000 0.136680
v 0.077533 1.430000 0.136680
v 0.077533 0.970000 0.186680
v 0.077533 1.430000 0.186680
v 0.027533 0.970000 0.136680
v 0.027533 1.430000 0.136680
v 0.027533 0.970000 0.186680
v 0.027533 1.430000 0.186680
v 0.186680 0.970000 -0.077533
v 0.186680 1.430000 -0.077533
v 0.186680 0.970000 -0.027533
v 0.186680 1.430000 -0.027533
v 0.136680 0.970000 -0.077533
v 0.136680 1.430000 -0.077533
v 0.136680 0.970000 -0.027533
v 0.136680 1.430000 -0.027533
v -0.027533 0.970000 -0.186680
v -0.027533 1.430000 -0.186680
v -0.027533 0.970000 -0.136680
v -0.027533 1.430000 -0.136680
v -0.077533 0.970000 -0.186680
v -0.077533 1.430000 -0.186680
v -0.077533 0.970000 -0.136680
v -0.077533 1.430000 -0.136680
v -0.201243 1.448180 0.200971
v -0.072824 1.868991 0.066706
v -0.194853 1.469118 0.272705
v -0.066435 1.889929 0.138440
v -0.272977 1.470071 0.200971
v -0.144558 1.890882 0.066706
v -0.266587 1.491009 0.272705
v -0.138169 1.911820 0.138440
v 0.272977 1.470071 0.200971
v 0.144558 1.890882 0.066706
v 0.266587 1.491009 0.272705
v 0.138169 1.911820 0.138440
v 0.201242 1.448180 0.200971
v 0.072824 1.868991 0.066706
v 0.194853 1.469118 0.272705
v 0.066434 1.889929 0.138440
v 0.266587 1.491009 -0.272705
v 0.138169 1.911820 -0.138440
v 0.272976 1.470071 -0.200971
v 0.144558 1.890882 -0.066706
v 0.194853 1.469118 -0.272705
v 0.066434 1.889929 -0.138440
v 0.201242 1.448180 -0.200971
v 0.072824 1.868991 -0.066706
v -0.194853 1.469118 -0.272705
v -0.066435 1.889929 -0.138440
v -0.201243 1.448180 -0.200971
v -0.072824 1.868991 -0.066706
v -0.266587 1.491009 -0.272705
v -0.138169 1.911820 -0.138440
v -0.272977 1.470071 -0.200971
v -0.144558 1.890882 -0.066706
vn 0.6078 -0.7941 -0.0000
vn 0.3294 0.2522 0.9099
vn -0.6078 0.7941 -0.0000
vn -0.3294 -0.2522 -0.9099
vn -0.7225 -0.5531 0.4149
vn 0.7225 0.5531 -0.4149
vn 0.9099 0.4149 -0.0000
vn -0.3294 0.7225 0.6078
vn -0.9099 -0.4149 -0.0000
vn 0.3294 -0.7225 -0.6078
vn 0.2522 -0.5531 0.7941
vn -0.2522 0.5531 -0.7941
vn 0.6078 0.7941 -0.0000
vn 0.3294 -0.2522 0.9099
vn -0.6078 -0.7941 -0.0000
vn -0.3294 0.2522 -0.9099
vn 0.7225 -0.5531 -0.4149
vn -0.7225 0.5531 0.4149
vn 0.9099 -0.4149 -0.0000
vn -0.3294 -0.7225 0.6078
vn -0.9099 0.4149 -0.0000
vn 0.3294 0.7225 -0.6078
vn -0.2522 -0.5531 -0.7941
vn 0.2522 0.5531 0.7941
vn -0.4956 0.0697 0.8657
vn -0.9936 0.1133 -0.0000
vn -0.4956 0.0697 -0.8657
vn 0.5002 -0.0174 -0.8657
vn 0.0872 0.9962 -0.0000
vn 0.9981 -0.0610 -0.0000
vn 0.5002 -0.0174 0.8657
vn -0.0872 -0.9962 -0.0000
vn -0.5002 -0.0174 0.8657
vn -0.9981 -0.0610 -0.0000
vn -0.5002 -0.0174 -0.8657
vn 0.4956 0.0697 -0.8657
vn -0.0872 0.9962 -0.0000
vn 0.9936 0.1133 -0.0000
vn 0.4956 0.0697 0.8657
vn 0.0872 -0.9962 -0.0000
vn -0.4910 0.1890 0.8504
vn -0.9820 0.1890 -0.0000
vn -0.4910 0.1890 -0.8504
vn 0.4910 0.1890 -0.8504
vn -0.0000 1.0000 -0.0000
vn 0.9820 0.1890 -0.0000
vn 0.4910 0.1890 0.8504
vn -0.0000 -1.0000 -0.0000
vn 0.9703 0.2419 -0.0000
vn -0.0000 -0.0000 1.0000
vn -0.9703 -0.2419 -0.0000
vn -0.0000 -0.0000 -1.0000
vn 0.2419 -0.9703 -0.0000
vn -0.2419 0.9703 -0.0000
vn 0.9893 -0.1461 -0.0000
vn -0.9893 0.1461 -0.0000
vn -0.1461 -0.9893 -0.0000
vn 0.1461 0.9893 -0.0000
vn 0.9703 -0.2419 -0.0000
vn -0.9703 0.2419 -0.0000
vn -0.2419 -0.9703 -0.0000
vn 0.2419 0.9703 -0.0000
vn 0.9893 0.1461 -0.0000
vn -0.9893 -0.1461 -0.0000
vn 0.1461 -0.9893 -0.0000
vn -0.1461 0.9893 -0.0000
vn -0.3800 -0.1184 0.9174
vn -0.9174 -0.1184 0.3800
vn -0.9174 -0.1184 -0.3800
vn -0.3800 -0.1184 -0.9174
vn 0.3800 -0.1184 -0.9174
vn 0.9174 -0.1184 -0.3800
vn 0.9174 -0.1184 0.3800
vn 0.3800 -0.1184 0.9174
vn 1.0000 -0.0000 -0.0000
vn -1.0000 -0.0000 -0.0000
vn 0.9565 -0.2919 -0.0000
vn 0.0852 0.2792 0.9565
vn -0.9565 0.2919 -0.0000
vn -0.0852 -0.2792 -0.9565
vn -0.2792 -0.9148 0.2919
vn 0.2792 0.9148 -0.2919
vn 0.9565 0.2919 -0.0000
vn -0.0852 0.2792 0.9565
vn -0.9565 -0.2919 -0.0000
vn 0.0852 -0.2792 -0.9565
vn 0.2792 -0.9148 0.2919
vn -0.2792 0.9148 -0.2919
vn 0.0852 -0.2792 0.9565
vn -0.0852 0.2792 -0.9565
vn 0.2792 -0.9148 -0.2919
vn -0.2792 0.9148 0.2919
vn -0.0852 -0.2792 0.9565
vn 0.0852 0.2792 -0.9565
vn -0.2792 -0.9148 -0.2919
vn 0.2792 0.9148 0.2919
vt 0.625000 0.000000
vt 0.375000 0.250000
vt 0.375000 0.000000
vt 0.625000 0.250000
vt 0.375000 0.500000
vt 0.625000 0.500000
vt 0.375000 0.750000
vt 0.625000 1.000000
vt 0.375000 1.000000
vt 0.125000 0.750000
vt 0.125000 0.500000
vt 0.875000 0.500000
vt 0.625000 0.750000
vt 1.000000 1.000000
vt 0.833333 0.500000
vt 1.000000 0.500000
vt 0.833333 1.000000
vt 0.666667 0.500000
vt 0.666667 1.000000
vt 0.500000 0.500000
vt 0.333333 1.000000
vt 0.333333 0.500000
vt 0.250000 0.490000
vt 0.042154 0.130000
vt 0.457846 0.130000
vt 0.166667 0.500000
vt 0.166667 1.000000
vt -0.000000 0.500000
vt 0.957846 0.370000
vt 0.750000 0.010000
vt 0.542154 0.370000
vt 0.875000 0.750000
vt 0.500000 1.000000
vt -0.000000 1.000000
vt 0.042154 0.130000
vt 0.457846 0.130000
vt 0.957846 0.370000
vt 0.750000 0.010000
vt 0.542154 0.370000
vt 0.875000 1.000000
vt 0.750000 0.500000
vt 0.500000 1.000000
vt 0.500000 0.500000
vt 0.250000 0.500000
vt 0.250000 1.000000
vt 0.000000 1.000000
vt 0.000000 0.500000
vt 0.457846 0.370000
vt 0.042154 0.370000
vt 0.250000 0.010000
vt 0.750000 0.490000
vt 0.957846 0.130000
vt 0.542154 0.130000
vt 0.457846 0.370000
vt 0.042154 0.370000
vt 0.750000 0.490000
vt 0.957846 0.130000
vt 0.542154 0.130000
vt 0.750000 1.000000
vt 0.125000 1.000000
s 0
usemtl bark
f 2/1/1 3/2/1 1/3/1
f 4/4/2 7/5/2 3/2/2
f 8/6/3 5/7/3 7/5/3
f 5/7/4 2/8/4 1/9/4
f 7/5/5 1/10/5 3/11/5
f 4/12/6 6/13/6 8/6/6
f 9/3/7 12/4/7 11/2/7
f 12/4/8 15/5/8 11/2/8
f 16/6/9 13/7/9 15/5/9
f 14/13/10 9/9/10 13/7/10
f 15/5/11 9/10/11 11/11/11
f 12/12/12 14/13/12 16/6/12
f 18/1/13 19/2/13 17/3/13
f 20/4/14 23/5/14 19/2/14
f 24/6/15 21/7/15 23/5/15
f 22/13/16 17/9/16 21/7/16
f 23/5/17 17/10/17 19/11/17
f 20/12/18 22/13/18 24/6/18
f 26/1/19 27/2/19 25/3/19
f 28/4/20 31/5/20 27/2/20
f 32/6/21 29/7/21 31/5/21
f 30/13/22 25/9/22 29/7/22
f 31/5/23 25/10/23 27/11/23
f 28/12/24 30/13/24 32/6/24
f 34/14/25 35/15/25 33/16/25
f 36/17/26 37/18/26 35/15/26
f 38/19/27 39/20/27 37/18/27
f 39/20/28 42/21/28 41/22/28
f 34/23/29 42/24/29 38/25/29
f 42/21/30 43/26/30 41/22/30
f 44/27/31 33/28/31 43/26/31
f 35/29/32 39/30/32 43/31/32
f 46/1/1 47/2/1 45/3/1
f 48/4/2 51/5/2 47/2/2
f 52/6/3 49/7/3 51/5/3
f 50/13/4 45/9/4 49/7/4
f 51/5/5 45/10/5 47/11/5
f 52/6/6 46/32/6 50/13/6
f 54/1/7 55/2/7 53/3/7
f 55/2/8 60/6/8 59/5/8
f 60/6/9 57/7/9 59/5/9
f 58/13/10 53/9/10 57/7/10
f 59/5/11 53/10/11 55/11/11
f 56/12/12 58/13/12 60/6/12
f 62/1/13 63/2/13 61/3/13
f 64/4/14 67/5/14 63/2/14
f 68/6/15 65/7/15 67/5/15
f 65/7/16 62/8/16 61/9/16
f 67/5/17 61/10/17 63/11/17
f 68/6/18 62/32/18 66/13/18
f 69/3/19 72/4/19 71/2/19
f 72/4/20 75/5/20 71/2/20
f 76/6/21 73/7/21 75/5/21
f 74/13/22 69/9/22 73/7/22
f 71/11/23 73/7/23 69/10/23
f 72/12/24 74/13/24 76/6/24
f 78/14/33 79/15/33 77/16/33
f 80/17/34 81/18/34 79/15/34
f 82/19/35 83/20/35 81/18/35
f 84/33/36 85/22/36 83/20/36
f 78/23/37 86/24/37 82/25/37
f 86/21/38 87/26/38 85/22/38
f 87/26/39 78/34/39 77/28/39
f 79/29/40 83/30/40 87/31/40
f 90/14/41 91/15/41 89/16/41
f 91/15/42 94/19/42 93/18/42
f 94/19/43 95/20/43 93/18/43
f 96/33/44 97/22/44 95/20/44
f 90/23/45 98/35/45 94/36/45
f 97/22/46 100/27/46 99/26/46
f 100/27/47 89/28/47 99/26/47
f 91/37/48 95/38/48 99/39/48
f 102/1/49 103/2/49 101/3/49
f 104/4/50 107/5/50 103/2/50
f 108/6/51 105/7/51 107/5/51
f 105/7/52 102/8/52 101/9/52
f 103/11/53 105/7/53 101/10/53
f 104/12/54 106/13/54 108/6/54
f 110/1/55 111/2/55 109/3/55
f 112/4/50 115/5/50 111/2/50
f 116/6/56 113/7/56 115/5/56
f 114/13/52 109/9/52 113/7/52
f 115/5/57 109/10/57 111/11/57
f 112/12/58 114/13/58 116/6/58
f 118/1/59 119/2/59 117/3/59
f 120/4/50 123/5/50 119/2/50
f 124/6/60 121/7/60 123/5/60
f 122/13/52 117/9/52 121/7/52
f 123/5/61 117/10/61 119/11/61
f 120/12/62 122/13/62 124/6/62
f 126/1/63 127/2/63 125/3/63
f 127/2/50 132/6/50 131/5/50
f 132/6/64 129/7/64 131/5/64
f 130/13/52 125/9/52 129/7/52
f 127/11/65 129/7/65 125/10/65
f 128/12/66 130/13/66 132/6/66
f 158/1/75 159/2/75 157/3/75
f 159/2/50 164/6/50 163/5/50
f 163/5/76 162/13/76 161/7/76
f 162/13/52 157/9/52 161/7/52
f 159/11/48 161/7/48 157/10/48
f 160/12/45 162/13/45 164/6/45
f 166/1/75 167/2/75 165/3/75
f 167/2/50 172/6/50 171/5/50
f 172/6/76 169/7/76 171/5/76
f 170/13/52 165/9/52 169/7/52
f 171/5/48 165/10/48 167/11/48
f 168/12/45 170/13/45 172/6/45
f 174/1/75 175/2/75 173/3/75
f 176/4/50 179/5/50 175/2/50
f 180/6/76 177/7/76 179/5/76
f 177/7/52 174/8/52 173/9/52
f 179/5/48 173/10/48 175/11/48
f 180/6/45 174/32/45 178/13/45
f 182/1/75 183/2/75 181/3/75
f 184/4/50 187/5/50 183/2/50
f 188/6/76 185/7/76 187/5/76
f 186/13/52 181/9/52 185/7/52
f 187/5/48 181/10/48 183/11/48
f 188/6/45 182/32/45 186/13/45
f 190/1/77 191/2/77 189/3/77
f 191/2/78 196/6/78 195/5/78
f 196/6/79 193/7/79 195/5/79
f 193/7/80 190/8/80 189/9/80
f 195/5/81 189/10/81 191/11/81
f 196/6/82 190/32/82 194/13/82
f 197/3/83 200/4/83 199/2/83
f 199/2/84 204/6/84 203/5/84
f 203/5/85 202/13/85 201/7/85
f 202/13/86 197/9/86 201/7/86
f 203/5/87 197/10/87 199/11/87
f 200/12/88 202/13/88 204/6/88
f 206/1/83 207/2/83 205/3/83
f 207/2/89 212/6/89 211/5/89
f 211/5/85 210/13/85 209/7/85
f 210/13/90 205/9/90 209/7/90
f 207/11/91 209/7/91 205/10/91
f 212/6/92 206/32/92 210/13/92
f 214/1/77 215/2/77 213/3/77
f 216/4/93 219/5/93 215/2/93
f 219/5/79 218/13/79 217/7/79
f 217/7/94 214/8/94 213/9/94
f 215/11/95 217/7/95 213/10/95
f 216/12/96 218/13/96 220/6/96
f 2/1/1 4/4/1 3/2/1
f 4/4/2 8/6/2 7/5/2
f 8/6/3 6/13/3 5/7/3
f 5/7/4 6/13/4 2/8/4
f 7/5/5 5/7/5 1/10/5
f 4/12/6 2/32/6 6/13/6
f 9/3/7 10/1/7 12/4/7
f 12/4/8 16/6/8 15/5/8
f 16/6/9 14/13/9 13/7/9
f 14/13/10 10/8/10 9/9/10
f 15/5/11 13/7/11 9/10/11
f 12/12/12 10/32/12 14/13/12
f 18/1/13 20/4/13 19/2/13
f 20/4/14 24/6/14 23/5/14
f 24/6/15 22/13/15 21/7/15
f 22/13/16 18/8/16 17/9/16
f 23/5/17 21/7/17 17/10/17
f 20/12/18 18/32/18 22/13/18
f 26/1/19 28/4/19 27/2/19
f 28/4/20 32/6/20 31/5/20
f 32/6/21 30/13/21 29/7/21
f 30/13/22 26/8/22 25/9/22
f 31/5/23 29/7/23 25/10/23
f 28/12/24 26/32/24 30/13/24
f 34/14/25 36/17/25 35/15/25
f 36/17/26 38/19/26 37/18/26
f 38/19/27 40/33/27 39/20/27
f 39/20/28 40/33/28 42/21/28
f 38/25/29 36/48/29 34/23/29
f 34/23/29 44/49/29 42/24/29
f 42/24/29 40/50/29 38/25/29
f 42/21/30 44/27/30 43/26/30
f 44/27/31 34/34/31 33/28/31
f 43/31/32 33/51/32 35/29/32
f 35/29/32 37/52/32 39/30/32
f 39/30/32 41/53/32 43/31/32
f 46/1/1 48/4/1 47/2/1
f 48/4/2 52/6/2 51/5/2
f 52/6/3 50/13/3 49/7/3
f 50/13/4 46/8/4 45/9/4
f 51/5/5 49/7/5 45/10/5
f 52/6/6 48/12/6 46/32/6
f 54/1/7 56/4/7 55/2/7
f 55/2/8 56/4/8 60/6/8
f 60/6/9 58/13/9 57/7/9
f 58/13/10 54/8/10 53/9/10
f 59/5/11 57/7/11 53/10/11
f 56/12/12 54/32/12 58/13/12
f 62/1/13 64/4/13 63/2/13
f 64/4/14 68/6/14 67/5/14
f 68/6/15 66/13/15 65/7/15
f 65/7/16 66/13/16 62/8/16
f 67/5/17 65/7/17 61/10/17
f 68/6/18 64/12/18 62/32/18
f 69/3/19 70/1/19 72/4/19
f 72/4/20 76/6/20 75/5/20
f 76/6/21 74/13/21 73/7/21
f 74/13/22 70/8/22 69/9/22
f 71/11/23 75/5/23 73/7/23
f 72/12/24 70/32/24 74/13/24
f 78/14/33 80/17/33 79/15/33
f 80/17/34 82/19/34 81/18/34
f 82/19/35 84/33/35 83/20/35
f 84/33/36 86/21/36 85/22/36
f 82/25/37 80/48/37 78/23/37
f 78/23/37 88/49/37 86/24/37
f 86/24/37 84/50/37 82/25/37
f 86/21/38 88/27/38 87/26/38
f 87/26/39 88/27/39 78/34/39
f 87/31/40 77/51/40 79/29/40
f 79/29/40 81/52/40 83/30/40
f 83/30/40 85/53/40 87/31/40
f 90/14/41 92/17/41 91/15/41
f 91/15/42 92/17/42 94/19/42
f 94/19/43 96/33/43 95/20/43
f 96/33/44 98/21/44 97/22/44
f 94/36/45 92/54/45 90/23/45
f 90/23/45 100/55/45 98/35/45
f 98/35/45 96/50/45 94/36/45
f 97/22/46 98/21/46 100/27/46
f 100/27/47 90/34/47 89/28/47
f 99/39/48 89/56/48 91/37/48
f 91/37/48 93/57/48 95/38/48
f 95/38/48 97/58/48 99/39/48
f 102/1/49 104/4/49 103/2/49
f 104/4/50 108/6/50 107/5/50
f 108/6/51 106/13/51 105/7/51
f 105/7/52 106/13/52 102/8/52
f 103/11/53 107/5/53 105/7/53
f 104/12/54 102/32/54 106/13/54
f 110/1/55 112/4/55 111/2/55
f 112/4/50 116/6/50 115/5/50
f 116/6/56 114/13/56 113/7/56
f 114/13/52 110/8/52 109/9/52
f 115/5/57 113/7/57 109/10/57
f 112/12/58 110/32/58 114/13/58
f 118/1/59 120/4/59 119/2/59
f 120/4/50 124/6/50 123/5/50
f 124/6/60 122/13/60 121/7/60
f 122/13/52 118/8/52 117/9/52
f 123/5/61 121/7/61 117/10/61
f 120/12/62 118/32/62 122/13/62
f 126/1/63 128/4/63 127/2/63
f 127/2/50 128/4/50 132/6/50
f 132/6/64 130/13/64 129/7/64
f 130/13/52 126/8/52 125/9/52
f 127/11/65 131/5/65 129/7/65
f 128/12/66 126/32/66 130/13/66
f 158/1/75 160/4/75 159/2/75
f 159/2/50 160/4/50 164/6/50
f 163/5/76 164/6/76 162/13/76
f 162/13/52 158/8/52 157/9/52
f 159/11/48 163/5/48 161/7/48
f 160/12/45 158/32/45 162/13/45
f 166/1/75 168/4/75 167/2/75
f 167/2/50 168/4/50 172/6/50
f 172/6/76 170/13/76 169/7/76
f 170/13/52 166/8/52 165/9/52
f 171/5/48 169/7/48 165/10/48
f 168/12/45 166/32/45 170/13/45
f 174/1/75 176/4/75 175/2/75
f 176/4/50 180/6/50 179/5/50
f 180/6/76 178/13/76 177/7/76
f 177/7/52 178/13/52 174/8/52
f 179/5/48 177/7/48 173/10/48
f 180/6/45 176/12/45 174/32/45
f 182/1/75 184/4/75 183/2/75
f 184/4/50 188/6/50 187/5/50
f 188/6/76 186/13/76 185/7/76
f 186/13/52 182/8/52 181/9/52
f 187/5/48 185/7/48 181/10/48
f 188/6/45 184/12/45 182/32/45
f 190/1/77 192/4/77 191/2/77
f 191/2/78 192/4/78 196/6/78
f 196/6/79 194/13/79 193/7/79
f 193/7/80 194/13/80 190/8/80
f 195/5/81 193/7/81 189/10/81
f 196/6/82 192/12/82 190/32/82
f 197/3/83 198/1/83 200/4/83
f 199/2/84 200/4/84 204/6/84
f 203/5/85 204/6/85 202/13/85
f 202/13/86 198/8/86 197/9/86
f 203/5/87 201/7/87 197/10/87
f 200/12/88 198/32/88 202/13/88
f 206/1/83 208/4/83 207/2/83
f 207/2/89 208/4/89 212/6/89
f 211/5/85 212/6/85 210/13/85
f 210/13/90 206/8/90 205/9/90
f 207/11/91 211/5/91 209/7/91
f 212/6/92 208/12/92 206/32/92
f 214/1/77 216/4/77 215/2/77
f 216/4/93 220/6/93 219/5/93
f 219/5/79 220/6/79 218/13/79
f 217/7/94 218/13/94 214/8/94
f 215/11/95 219/5/95 217/7/95
f 216/12/96 214/32/96 218/13/96
usemtl moss
f 134/14/67 135/12/67 133/16/67
f 136/40/68 137/41/68 135/12/68
f 137/41/69 140/8/69 139/6/69
f 139/6/70 142/42/70 141/43/70
f 142/42/71 143/5/71 141/43/71
f 144/9/72 145/44/72 143/5/72
f 146/45/73 147/11/73 145/44/73
f 147/11/74 134/46/74 133/47/74
f 134/14/67 136/40/67 135/12/67
f 136/40/68 138/59/68 137/41/68
f 137/41/69 138/59/69 140/8/69
f 139/6/70 140/8/70 142/42/70
f 142/42/71 144/9/71 143/5/71
f 144/9/72 146/45/72 145/44/72
f 146/45/73 148/60/73 147/11/73
f 147/11/74 148/60/74 134/46/74
usemtl core
f 150/1/75 151/2/75 149/3/75
f 152/4/50 155/5/50 151/2/50
f 156/6/76 153/7/76 155/5/76
f 154/13/52 149/9/52 153/7/52
f 155/5/48 149/10/48 151/11/48
f 156/6/45 150/32/45 154/13/45
f 150/1/75 152/4/75 151/2/75
f 152/4/50 156/6/50 155/5/50
f 156/6/76 154/13/76 153/7/76
f 154/13/52 150/8/52 149/9/52
f 155/5/48 153/7/48 149/10/48
f 156/6/45 152/12/45 150/32/45
