# Blender 4.5.10 LTS
# www.blender.org
mtllib grove_bonemeal.mtl
o sack
v -0.155000 0.000000 0.000000
v -0.183286 0.096787 0.002152
v -0.173763 0.201398 0.000282
v -0.123648 0.292078 0.000429
v -0.068547 0.336854 -0.014612
v -0.060264 0.383095 0.011147
v -0.050000 0.410000 0.000000
v 0.000000 0.000000 0.000000
v -0.118737 0.000000 0.099632
v -0.125226 0.097436 0.136275
v -0.139599 0.194520 0.116648
v -0.085956 0.282953 0.087798
v -0.033278 0.332481 0.027992
v -0.056155 0.385479 0.046068
v -0.038302 0.410000 0.032139
v 0.000000 0.425000 0.000000
v -0.026915 0.000000 0.152645
v -0.032813 0.089996 0.187240
v -0.036237 0.196451 0.170805
v -0.041358 0.295443 0.150794
v -0.017553 0.335675 0.050469
v -0.005429 0.384261 0.058389
v -0.008682 0.410000 0.049240
v 0.077500 0.000000 0.134234
v 0.096086 0.088184 0.172692
v 0.071010 0.192009 0.164058
v 0.077950 0.289520 0.131683
v 0.011707 0.333169 0.046537
v 0.032840 0.376316 0.074978
v 0.025000 0.410000 0.043301
v 0.145652 0.000000 0.053013
v 0.188706 0.097425 0.057247
v 0.155157 0.195942 0.046101
v 0.141221 0.294752 0.030329
v 0.066106 0.339159 0.021972
v 0.081612 0.374095 0.034000
v 0.046985 0.410000 0.017101
v 0.145652 0.000000 -0.053013
v 0.168669 0.088732 -0.077079
v 0.174783 0.207535 -0.068141
v 0.115936 0.296158 -0.053224
v 0.064917 0.345670 -0.023643
v 0.065371 0.387829 -0.040040
v 0.046985 0.410000 -0.017101
v 0.077500 0.000000 -0.134234
v 0.102823 0.094363 -0.168917
v 0.093658 0.193174 -0.158887
v 0.082256 0.285888 -0.113935
v 0.025354 0.339251 -0.054848
v 0.020971 0.381193 -0.065538
v 0.025000 0.410000 -0.043301
v -0.026915 0.000000 -0.152645
v -0.045320 0.084466 -0.193608
v -0.045092 0.195992 -0.160901
v -0.012275 0.297046 -0.124330
v 0.000851 0.346115 -0.040914
v -0.016751 0.373661 -0.076688
v -0.008682 0.410000 -0.049240
v -0.118737 0.000000 -0.099632
v -0.125111 0.085815 -0.102259
v -0.141423 0.205179 -0.121237
v -0.106889 0.284807 -0.094213
v -0.052363 0.335654 -0.052806
v -0.059591 0.381829 -0.035523
v -0.038302 0.410000 -0.032139
v 0.000000 0.334000 0.066487
v 0.000000 0.342000 0.075000
v 0.000000 0.356000 0.066487
v 0.000000 0.348000 0.075000
v -0.042737 0.334000 0.050932
v -0.048209 0.342000 0.057453
v -0.042737 0.356000 0.050932
v -0.048209 0.348000 0.057453
v -0.065476 0.334000 0.011545
v -0.073861 0.342000 0.013024
v -0.065476 0.356000 0.011545
v -0.073861 0.348000 0.013024
v -0.057579 0.334000 -0.033243
v -0.064952 0.342000 -0.037500
v -0.057579 0.356000 -0.033243
v -0.064952 0.348000 -0.037500
v -0.022740 0.334000 -0.062477
v -0.025652 0.342000 -0.070477
v -0.022740 0.356000 -0.062477
v -0.025652 0.348000 -0.070477
v 0.022740 0.334000 -0.062477
v 0.025652 0.342000 -0.070477
v 0.022740 0.356000 -0.062477
v 0.025652 0.348000 -0.070477
v 0.057579 0.334000 -0.033243
v 0.064952 0.342000 -0.037500
v 0.057579 0.356000 -0.033243
v 0.064952 0.348000 -0.037500
v 0.065476 0.334000 0.011545
v 0.073861 0.342000 0.013024
v 0.065476 0.356000 0.011545
v 0.073861 0.348000 0.013024
v 0.042737 0.334000 0.050932
v 0.048209 0.342000 0.057453
v 0.042737 0.356000 0.050932
v 0.048209 0.348000 0.057453
v 0.000751 0.390014 -0.000338
v -0.030695 0.403240 -0.025778
v 0.015098 0.404775 -0.037583
v 0.040490 0.404998 0.002342
v 0.010390 0.403601 0.038821
v -0.033605 0.402514 0.021442
v -0.010390 0.426399 -0.038821
v 0.033605 0.427486 -0.021442
v 0.030695 0.426760 0.025778
v -0.015098 0.425225 0.037583
v -0.040490 0.425002 -0.002342
v -0.000751 0.439986 0.000338
v 0.009316 0.394303 -0.022289
v -0.017601 0.393401 -0.015350
v -0.009168 0.402077 -0.037242
v -0.037795 0.400749 -0.002548
v -0.019311 0.392974 0.012405
v 0.024241 0.394434 0.001178
v 0.032674 0.403111 -0.020714
v 0.006548 0.393613 0.022620
v 0.029907 0.402421 0.024195
v -0.013646 0.400961 0.035422
v -0.041842 0.413966 -0.016528
v -0.043553 0.413540 0.011227
v 0.002768 0.415690 -0.044909
v -0.024149 0.414788 -0.037971
v 0.043553 0.416460 -0.011227
v 0.028627 0.416329 -0.034694
v 0.024149 0.415212 0.037971
v 0.041842 0.416034 0.016528
v -0.028627 0.413671 0.034694
v -0.002768 0.414310 0.044909
v -0.029907 0.427579 -0.024195
v 0.013646 0.429039 -0.035422
v 0.037795 0.429251 0.002548
v 0.009168 0.427923 0.037242
v -0.032674 0.426889 0.020714
v -0.006548 0.436387 -0.022620
v -0.024241 0.435566 -0.001178
v 0.019311 0.437026 -0.012405
v 0.017601 0.436599 0.015350
v -0.009316 0.435697 0.022289
vn 0.9162 0.0554 -0.3969
vn -0.0000 1.0000 -0.0000
vn 0.2858 -0.9526 -0.1040
vn 0.7643 0.2039 -0.6118
vn 0.7843 -0.5617 -0.2635
vn 0.9044 0.2716 -0.3292
vn 0.7931 -0.6069 -0.0519
vn 0.4626 -0.8388 -0.2872
vn 0.6843 0.4820 -0.5472
vn 0.4098 -0.4979 -0.7643
vn 0.4706 0.3379 -0.8151
vn 0.1789 -0.5812 -0.7939
vn 0.5239 -0.8263 -0.2070
vn 0.4721 -0.1197 -0.8734
vn 0.1521 -0.9526 -0.2634
vn 0.1845 -0.6502 -0.7370
vn -0.1073 -0.9162 -0.3861
vn -0.1130 -0.1094 -0.9876
vn -0.0528 -0.9526 -0.2995
vn -0.1150 0.1877 -0.9755
vn -0.0725 -0.3096 -0.9481
vn -0.1630 0.3447 -0.9245
vn -0.4539 -0.8292 -0.3262
vn -0.7273 -0.3166 -0.6089
vn -0.2330 -0.9526 -0.1955
vn -0.3759 0.6313 -0.6784
vn -0.8045 -0.1348 -0.5784
vn -0.7007 0.4041 -0.5880
vn -0.5057 -0.6506 -0.5666
vn -0.3041 -0.9526 -0.0000
vn -0.9209 0.3817 0.0785
vn -0.9690 -0.1659 -0.1833
vn -0.9147 0.4042 -0.0000
vn -0.7478 -0.6627 0.0411
vn -0.5154 -0.8451 0.1418
vn -0.9398 -0.3020 0.1597
vn -0.6534 -0.3938 0.6465
vn -0.7177 0.3495 0.6022
vn -0.3575 -0.5388 0.7628
vn -0.4051 -0.8376 0.3664
vn -0.8093 -0.1331 0.5721
vn -0.2330 -0.9526 0.1955
vn -0.6213 0.2898 0.7280
vn -0.1219 -0.5808 0.8048
vn -0.1580 -0.8037 0.5737
vn -0.1559 -0.1141 0.9812
vn -0.0528 -0.9526 0.2995
vn 0.5314 0.2609 0.8059
vn -0.0205 -0.3343 0.9422
vn -0.1607 0.3782 0.9117
vn 0.7378 -0.1913 0.6473
vn 0.1521 -0.9526 0.2634
vn -0.2845 0.6868 0.6688
vn 0.3101 -0.4234 0.8512
vn 0.4990 0.0635 0.8643
vn 0.5504 -0.4965 0.6713
vn 0.2820 -0.7693 0.5733
vn 0.2858 -0.9526 0.1040
vn 0.9207 -0.0019 0.3902
vn 0.8667 -0.4494 0.2167
vn 0.9367 0.0800 0.3409
vn 0.9372 -0.3480 0.0230
vn 0.6491 -0.7410 0.1719
vn 0.8682 -0.0703 0.4911
vn 0.9540 -0.0919 -0.2855
vn 0.8923 0.4310 -0.1344
vn 0.8048 -0.4442 -0.3936
vn 0.8976 0.2063 -0.3896
vn 0.8404 -0.4474 -0.3059
vn 0.4758 -0.7434 -0.4702
vn 0.2371 0.0984 -0.9665
vn 0.8207 -0.0721 -0.5667
vn 0.4747 0.3427 -0.8107
vn 0.4857 -0.2376 -0.8412
vn 0.5082 -0.8278 -0.2379
vn 0.4629 -0.1093 -0.8796
vn -0.1628 -0.3486 -0.9230
vn -0.1310 -0.9090 -0.3956
vn -0.0684 -0.1544 -0.9856
vn 0.4325 0.3389 -0.8355
vn -0.1647 -0.2036 -0.9651
vn -0.0963 0.4149 -0.9048
vn -0.0819 -0.9113 -0.4035
vn -0.7870 -0.2374 -0.5694
vn -0.5515 0.4797 -0.6824
vn -0.8264 -0.2005 -0.5262
vn -0.7433 0.3532 -0.5681
vn -0.5306 -0.7213 -0.4452
vn -0.9678 0.1002 0.2309
vn -0.7924 -0.5649 0.2303
vn -0.9518 0.2805 0.1238
vn -0.7198 -0.6942 -0.0000
vn -0.7177 -0.6917 -0.0800
vn -0.9847 0.0629 -0.1628
vn -0.6935 -0.5407 0.4762
vn -0.7334 0.3991 0.5503
vn -0.4670 -0.7927 0.3919
vn -0.3535 -0.7206 0.5964
vn -0.7445 -0.0119 0.6675
vn -0.5095 0.1621 0.8450
vn -0.1399 -0.5927 0.7932
vn 0.0431 -0.8641 0.5015
vn -0.0196 -0.2813 0.9594
vn -0.3310 0.6619 0.6725
vn -0.1497 -0.4462 0.8823
vn -0.1766 0.3981 0.9002
vn 0.3893 0.1963 0.9000
vn 0.6663 -0.1677 0.7266
vn 0.3243 -0.4133 0.8509
vn 0.6816 0.4342 0.5890
vn 0.3971 -0.6077 0.6878
vn 0.0583 -0.8644 0.4993
vn 0.9822 -0.1867 0.0192
vn 0.8594 -0.4753 0.1887
vn 0.8584 0.2408 0.4530
vn 0.7513 -0.6006 0.2735
vn 0.5475 -0.7964 0.2570
vn 0.9508 0.1710 0.2584
vn -0.2418 -0.7071 0.6645
vn -0.2418 0.7071 0.6645
vn -0.6124 -0.7071 0.3536
vn -0.6124 0.7071 0.3536
vn -0.6964 -0.7071 -0.1228
vn -0.6964 0.7071 -0.1228
vn -0.4545 -0.7071 -0.5417
vn -0.4545 0.7071 -0.5417
vn -0.0000 -0.7071 -0.7071
vn -0.0000 0.7071 -0.7071
vn 0.4545 -0.7071 -0.5417
vn 0.4545 0.7071 -0.5417
vn 0.6964 -0.7071 -0.1228
vn 0.6964 0.7071 -0.1228
vn 0.6124 -0.7071 0.3536
vn 0.6124 0.7071 0.3536
vn 0.2418 -0.7071 0.6645
vn 0.2418 0.7071 0.6645
vn -0.0000 -1.0000 -0.0000
vn -0.3420 -0.0000 0.9397
vn 0.3420 -0.0000 0.9397
vn -0.8660 -0.0000 0.5000
vn -0.9848 -0.0000 -0.1736
vn -0.6428 -0.0000 -0.7660
vn -0.0000 -0.0000 -1.0000
vn 0.6428 -0.0000 -0.7660
vn 0.9848 -0.0000 -0.1736
vn 0.8660 -0.0000 0.5000
vn -0.0184 -0.9799 -0.1987
vn -0.4592 -0.8574 -0.2323
vn 0.1909 -0.9747 -0.1160
vn 0.1771 -0.9782 0.1086
vn -0.0408 -0.9855 0.1648
vn -0.7785 -0.5527 -0.2972
vn 0.0459 -0.5205 -0.8526
vn 0.8290 -0.5052 -0.2397
vn 0.4886 -0.5281 0.6946
vn -0.5050 -0.5574 0.6590
vn -0.7450 -0.2363 -0.6238
vn 0.3643 -0.1991 -0.9098
vn 0.9794 -0.1937 0.0574
vn 0.2502 -0.2276 0.9411
vn -0.8155 -0.2539 0.5201
vn -0.2878 0.8442 -0.4522
vn 0.3342 0.8619 -0.3813
vn 0.4592 0.8574 0.2323
vn -0.0854 0.8369 0.5407
vn -0.5472 0.8287 0.1177
vn -0.1909 0.9747 0.1160
vn -0.3571 0.9073 0.2220
vn -0.3428 0.8305 0.4391
vn 0.0184 0.9799 0.1987
vn 0.0700 0.9178 0.3907
vn 0.2832 0.8492 0.4457
vn 0.1615 0.9865 0.0251
vn 0.3621 0.9314 0.0366
vn 0.4827 0.8632 -0.1478
vn 0.0408 0.9855 -0.1648
vn 0.1157 0.9292 -0.3509
vn -0.0200 0.8532 -0.5212
vn -0.1771 0.9782 -0.1086
vn -0.3288 0.9143 -0.2363
vn -0.5301 0.8330 -0.1585
vn -0.8290 0.5052 0.2397
vn -0.8072 0.2941 0.5117
vn -0.5712 0.5075 0.6452
vn -0.0459 0.5205 0.8526
vn 0.2265 0.3196 0.9201
vn 0.4192 0.5361 0.7328
vn 0.7785 0.5527 0.2972
vn 0.9337 0.3525 0.0630
vn 0.8081 0.5601 -0.1823
vn 0.5050 0.5574 -0.6590
vn 0.3371 0.3472 -0.8751
vn 0.0581 0.5464 -0.8355
vn -0.4886 0.5281 -0.6946
vn -0.7389 0.3112 -0.5977
vn -0.7943 0.5139 -0.3241
vn -0.3643 0.1991 0.9098
vn -0.3371 -0.3472 0.8751
vn -0.0581 -0.5464 0.8355
vn 0.7450 0.2363 0.6238
vn 0.7388 -0.3112 0.5977
vn 0.7943 -0.5139 0.3241
vn 0.8155 0.2539 -0.5201
vn 0.8072 -0.2941 -0.5117
vn 0.5712 -0.5075 -0.6452
vn -0.2502 0.2276 -0.9411
vn -0.2265 -0.3196 -0.9201
vn -0.4192 -0.5361 -0.7328
vn -0.9794 0.1937 -0.0574
vn -0.9337 -0.3525 -0.0630
vn -0.8081 -0.5601 0.1823
vn -0.3342 -0.8619 0.3813
vn -0.1157 -0.9292 0.3509
vn 0.0200 -0.8532 0.5212
vn 0.2878 -0.8442 0.4522
vn 0.3288 -0.9143 0.2363
vn 0.5301 -0.8330 0.1585
vn 0.5472 -0.8287 -0.1177
vn 0.3571 -0.9073 -0.2220
vn 0.3428 -0.8305 -0.4391
vn -0.4827 -0.8632 0.1478
vn -0.3621 -0.9314 -0.0366
vn -0.1615 -0.9865 -0.0251
vn 0.0854 -0.8369 -0.5407
vn -0.0700 -0.9178 -0.3907
vn -0.2832 -0.8492 -0.4457
vt 0.674839 0.514010
vt 0.615869 0.814645
vt 0.698921 0.866179
vt 0.811917 0.508360
vt 0.726275 0.508360
vt 0.742598 0.769966
vt 0.419369 0.508360
vt 0.385417 0.508360
vt 0.411696 0.592749
vt 0.432073 0.537629
vt 0.423557 0.581858
vt 0.454891 0.469994
vt 0.607266 0.509101
vt 0.506768 0.738893
vt 0.428567 0.629322
vt 0.521742 0.509485
vt 0.405988 0.640877
vt 0.652167 0.956847
vt 0.794703 0.909164
vt 0.390153 0.661672
vt 0.450516 0.904303
vt 0.775032 1.000000
vt 0.391558 0.637651
vt 0.368290 0.622057
vt 0.358777 0.705232
vt 0.373486 0.630553
vt 0.277774 0.854123
vt 0.988764 0.939129
vt 0.901836 0.961800
vt 0.859981 0.860821
vt 0.128783 0.939129
vt 0.320155 0.566052
vt 0.242022 0.587995
vt 0.041855 0.961800
vt 0.153869 0.629409
vt 0.092843 0.658674
vt 0.894710 0.647558
vt 0.353488 0.553262
vt 0.034729 0.647558
vt 0.000000 0.860821
vt 0.321503 0.597634
vt 0.353488 0.463457
vt 0.323860 0.446279
vt 0.164728 0.329441
vt 0.034729 0.369162
vt 0.336692 0.403227
vt 0.255772 0.368610
vt 0.080971 0.305971
vt 0.894710 0.369162
vt 0.270666 0.209198
vt 0.140019 0.091168
vt 0.000000 0.155899
vt 0.368290 0.394663
vt 0.368913 0.336276
vt 0.359476 0.364344
vt 0.049901 0.064832
vt 0.859981 0.155899
vt 0.391558 0.379068
vt 0.400120 0.306998
vt 0.407682 0.181905
vt 1.000000 0.091168
vt 0.764541 0.000000
vt 0.909882 0.064832
vt 0.794703 0.107556
vt 0.385576 0.400931
vt 0.644179 0.085880
vt 0.705554 0.239856
vt 0.742598 0.246754
vt 0.411696 0.423971
vt 0.441228 0.369707
vt 0.518845 0.260984
vt 0.605613 0.190027
vt 0.431926 0.415087
vt 0.750000 0.490000
vt 0.904269 0.433851
vt 0.886758 0.412981
vt 0.750000 0.462757
vt 0.404269 0.433851
vt 0.250000 0.490000
vt 0.250000 0.462757
vt 0.386758 0.412981
vt 0.986354 0.291676
vt 0.959525 0.286945
vt 0.486354 0.291676
vt 0.459525 0.286945
vt 0.957846 0.130000
vt 0.934253 0.143622
vt 0.457846 0.130000
vt 0.434253 0.143621
vt 0.832085 0.024474
vt 0.822767 0.050074
vt 0.332085 0.024474
vt 0.322767 0.050074
vt 0.667915 0.024474
vt 0.677233 0.050074
vt 0.167915 0.024474
vt 0.177233 0.050074
vt 0.542154 0.130000
vt 0.565747 0.143621
vt 0.042154 0.130000
vt 0.065747 0.143621
vt 0.513646 0.291676
vt 0.540475 0.286945
vt 0.013646 0.291676
vt 0.040475 0.286945
vt 0.595731 0.433851
vt 0.613243 0.412981
vt 0.095731 0.433851
vt 0.113242 0.412981
vt 1.000000 0.681818
vt 1.000000 0.818182
vt 0.888889 0.818182
vt 0.888889 0.681818
vt 0.111111 0.681818
vt 0.111111 0.818182
vt 0.000000 0.818182
vt 0.000000 0.681818
vt 0.777778 0.818182
vt 0.777778 0.681818
vt 0.666667 0.818182
vt 0.666667 0.681818
vt 0.555556 0.818182
vt 0.555556 0.681818
vt 0.444444 0.818182
vt 0.444444 0.681818
vt 0.333333 0.818182
vt 0.333333 0.681818
vt 0.222222 0.818182
vt 0.222222 0.681818
vt 0.181819 0.000000
vt 0.227273 0.078731
vt 0.136365 0.078731
vt 0.272728 0.157461
vt 0.318182 0.078731
vt 0.363637 0.157461
vt 0.909091 0.000000
vt 0.954545 0.078731
vt 0.863636 0.078731
vt 0.727273 0.000000
vt 0.772727 0.078731
vt 0.681818 0.078731
vt 0.545455 0.000000
vt 0.590909 0.078731
vt 0.500000 0.078731
vt 0.318182 0.236191
vt 0.090910 0.157461
vt 0.181819 0.157461
vt 0.136365 0.236191
vt 0.818182 0.157461
vt 0.909091 0.157461
vt 0.863636 0.236191
vt 0.636364 0.157461
vt 0.727273 0.157461
vt 0.681818 0.236191
vt 0.454546 0.157461
vt 0.545455 0.157461
vt 0.500000 0.236191
vt 0.227273 0.236191
vt 0.045455 0.236191
vt 0.772727 0.236191
vt 0.590909 0.236191
vt 0.409092 0.236191
vt 0.181819 0.314921
vt 0.272728 0.314921
vt 0.227273 0.393651
vt 0.000000 0.314921
vt 0.090910 0.314921
vt 0.045455 0.393651
vt 0.727273 0.314921
vt 0.818182 0.314921
vt 0.772727 0.393651
vt 0.545455 0.314921
vt 0.636364 0.314921
vt 0.590909 0.393651
vt 0.363637 0.314921
vt 0.454546 0.314921
vt 0.409092 0.393651
vt 0.500000 0.393651
vt 0.454546 0.472382
vt 0.681818 0.393651
vt 0.636364 0.472382
vt 0.863636 0.393651
vt 0.818182 0.472382
vt 0.909091 0.314921
vt 0.136365 0.393651
vt 0.090910 0.472382
vt 0.318182 0.393651
vt 0.272728 0.472382
vt 0.954545 0.236191
vt 1.000000 0.157461
vt 0.409092 0.078731
vt 0.363637 0.000000
s 0
usemtl cloth
f 2/1/1 11/2/1 10/3/1
f 8/4/2 1/5/2 9/6/2
f 7/7/3 16/8/3 15/9/3
f 6/10/4 13/11/4 5/12/4
f 3/13/5 12/14/5 11/2/5
f 2/1/6 9/6/6 1/5/6
f 6/10/7 15/9/7 14/15/7
f 4/16/8 13/11/8 12/14/8
f 14/15/9 21/17/9 13/11/9
f 12/14/10 19/18/10 11/2/10
f 10/3/11 17/19/11 9/6/11
f 15/9/12 22/20/12 14/15/12
f 12/14/13 21/17/13 20/21/13
f 10/3/14 19/18/14 18/22/14
f 8/4/2 9/6/2 17/19/2
f 15/9/15 16/8/15 23/23/15
f 22/20/16 30/24/16 29/25/16
f 20/21/17 28/26/17 27/27/17
f 18/22/18 26/28/18 25/29/18
f 8/4/2 17/19/2 24/30/2
f 23/23/19 16/8/19 30/24/19
f 22/20/20 28/26/20 21/17/20
f 19/18/21 27/27/21 26/31/21
f 18/22/22 24/30/22 17/19/22
f 27/27/23 35/32/23 34/33/23
f 25/34/24 33/35/24 32/36/24
f 8/4/2 24/30/2 31/37/2
f 30/24/25 16/8/25 37/38/25
f 29/25/26 35/32/26 28/26/26
f 27/27/27 33/35/27 26/31/27
f 25/34/28 31/39/28 24/40/28
f 30/24/29 36/41/29 29/25/29
f 37/38/30 16/8/30 44/42/30
f 36/41/31 42/43/31 35/32/31
f 34/33/32 40/44/32 33/35/32
f 32/36/33 38/45/33 31/39/33
f 36/41/34 44/42/34 43/46/34
f 35/32/35 41/47/35 34/33/35
f 33/35/36 39/48/36 32/36/36
f 8/4/2 31/37/2 38/49/2
f 40/44/37 48/50/37 47/51/37
f 39/48/38 45/52/38 38/45/38
f 43/46/39 51/53/39 50/54/39
f 41/47/40 49/55/40 48/50/40
f 39/48/41 47/51/41 46/56/41
f 8/4/2 38/49/2 45/57/2
f 44/42/42 16/8/42 51/53/42
f 43/46/43 49/55/43 42/43/43
f 50/54/44 58/58/44 57/59/44
f 49/55/45 55/60/45 48/50/45
f 47/61/46 53/62/46 46/63/46
f 8/4/2 45/57/2 52/64/2
f 51/53/47 16/8/47 58/58/47
f 50/54/48 56/65/48 49/55/48
f 47/51/49 55/60/49 54/66/49
f 46/63/50 52/64/50 45/57/50
f 54/66/51 60/67/51 53/62/51
f 8/4/2 52/64/2 59/68/2
f 58/58/52 16/8/52 65/69/52
f 57/59/53 63/70/53 56/65/53
f 54/66/54 62/71/54 61/72/54
f 52/64/55 60/67/55 59/68/55
f 57/59/56 65/69/56 64/73/56
f 55/60/57 63/70/57 62/71/57
f 65/69/58 16/8/58 7/7/58
f 64/73/59 5/12/59 63/70/59
f 62/71/60 3/13/60 61/72/60
f 60/67/61 1/5/61 59/68/61
f 64/73/62 7/7/62 6/10/62
f 62/71/63 5/12/63 4/16/63
f 60/67/64 3/13/64 2/1/64
f 8/4/2 59/68/2 1/5/2
f 2/1/65 3/13/65 11/2/65
f 6/10/66 14/15/66 13/11/66
f 3/13/67 4/16/67 12/14/67
f 2/1/68 10/3/68 9/6/68
f 6/10/69 7/7/69 15/9/69
f 4/16/70 5/12/70 13/11/70
f 14/15/71 22/20/71 21/17/71
f 12/14/72 20/21/72 19/18/72
f 10/3/73 18/22/73 17/19/73
f 15/9/74 23/23/74 22/20/74
f 12/14/75 13/11/75 21/17/75
f 10/3/76 11/2/76 19/18/76
f 22/20/77 23/23/77 30/24/77
f 20/21/78 21/17/78 28/26/78
f 18/22/79 19/18/79 26/28/79
f 22/20/80 29/25/80 28/26/80
f 19/18/81 20/21/81 27/27/81
f 18/22/82 25/29/82 24/30/82
f 27/27/83 28/26/83 35/32/83
f 25/34/84 26/31/84 33/35/84
f 29/25/85 36/41/85 35/32/85
f 27/27/86 34/33/86 33/35/86
f 25/34/87 32/36/87 31/39/87
f 30/24/88 37/38/88 36/41/88
f 36/41/89 43/46/89 42/43/89
f 34/33/90 41/47/90 40/44/90
f 32/36/91 39/48/91 38/45/91
f 36/41/92 37/38/92 44/42/92
f 35/32/93 42/43/93 41/47/93
f 33/35/94 40/44/94 39/48/94
f 40/44/95 41/47/95 48/50/95
f 39/48/96 46/56/96 45/52/96
f 43/46/97 44/42/97 51/53/97
f 41/47/98 42/43/98 49/55/98
f 39/48/99 40/44/99 47/51/99
f 43/46/100 50/54/100 49/55/100
f 50/54/101 51/53/101 58/58/101
f 49/55/102 56/65/102 55/60/102
f 47/61/103 54/66/103 53/62/103
f 50/54/104 57/59/104 56/65/104
f 47/51/105 48/50/105 55/60/105
f 46/63/106 53/62/106 52/64/106
f 54/66/107 61/72/107 60/67/107
f 57/59/108 64/73/108 63/70/108
f 54/66/109 55/60/109 62/71/109
f 52/64/110 53/62/110 60/67/110
f 57/59/111 58/58/111 65/69/111
f 55/60/112 56/65/112 63/70/112
f 64/73/113 6/10/113 5/12/113
f 62/71/114 4/16/114 3/13/114
f 60/67/115 2/1/115 1/5/115
f 64/73/116 65/69/116 7/7/116
f 62/71/117 63/70/117 5/12/117
f 60/67/118 61/72/118 3/13/118
usemtl rope
f 67/74/119 71/75/119 70/76/119 66/77/119
f 73/78/120 69/79/120 68/80/120 72/81/120
f 71/75/121 75/82/121 74/83/121 70/76/121
f 77/84/122 73/78/122 72/81/122 76/85/122
f 75/82/123 79/86/123 78/87/123 74/83/123
f 81/88/124 77/84/124 76/85/124 80/89/124
f 79/86/125 83/90/125 82/91/125 78/87/125
f 85/92/126 81/88/126 80/89/126 84/93/126
f 83/90/127 87/94/127 86/95/127 82/91/127
f 89/96/128 85/92/128 84/93/128 88/97/128
f 87/94/129 91/98/129 90/99/129 86/95/129
f 93/100/130 89/96/130 88/97/130 92/101/130
f 91/98/131 95/102/131 94/103/131 90/99/131
f 97/104/132 93/100/132 92/101/132 96/105/132
f 95/102/133 99/106/133 98/107/133 94/103/133
f 101/108/134 97/104/134 96/105/134 100/109/134
f 99/106/135 67/74/135 66/77/135 98/107/135
f 69/79/136 101/108/136 100/109/136 68/80/136
f 66/77/137 70/76/137 74/83/137 78/87/137 82/91/137 86/95/137 90/99/137 94/103/137 98/107/137
f 67/110/138 69/111/138 73/112/138 71/113/138
f 99/114/139 101/115/139 69/116/139 67/117/139
f 72/81/2 68/80/2 100/109/2 96/105/2 92/101/2 88/97/2 84/93/2 80/89/2 76/85/2
f 71/113/140 73/112/140 77/118/140 75/119/140
f 75/119/141 77/118/141 81/120/141 79/121/141
f 79/121/142 81/120/142 85/122/142 83/123/142
f 83/123/143 85/122/143 89/124/143 87/125/143
f 87/125/144 89/124/144 93/126/144 91/127/144
f 91/127/145 93/126/145 97/128/145 95/129/145
f 95/129/146 97/128/146 101/115/146 99/114/146
usemtl meal
f 102/130/147 115/131/147 114/132/147
f 103/133/148 115/134/148 117/135/148
f 102/136/149 114/137/149 119/138/149
f 102/139/150 119/140/150 121/141/150
f 102/142/151 121/143/151 118/144/151
f 103/133/152 117/135/152 124/145/152
f 104/146/153 116/147/153 126/148/153
f 105/149/154 120/150/154 128/151/154
f 106/152/155 122/153/155 130/154/155
f 107/155/156 123/156/156 132/157/156
f 103/133/157 124/145/157 127/158/157
f 104/146/158 126/148/158 129/159/158
f 105/149/159 128/151/159 131/160/159
f 106/152/160 130/154/160 133/161/160
f 107/155/161 132/157/161 125/162/161
f 108/163/162 134/164/162 139/165/162
f 109/166/163 135/167/163 141/168/163
f 110/169/164 136/170/164 142/171/164
f 111/172/165 137/173/165 143/174/165
f 112/175/166 138/176/166 140/177/166
f 140/177/167 143/178/167 113/179/167
f 140/177/168 138/176/168 143/178/168
f 138/176/169 111/172/169 143/178/169
f 143/174/170 142/180/170 113/181/170
f 143/174/171 137/173/171 142/180/171
f 137/173/172 110/169/172 142/180/172
f 142/171/173 141/182/173 113/183/173
f 142/171/174 136/170/174 141/182/174
f 136/170/175 109/184/175 141/182/175
f 141/168/176 139/185/176 113/186/176
f 141/168/177 135/167/177 139/185/177
f 135/167/178 108/163/178 139/185/178
f 139/165/179 140/187/179 113/188/179
f 139/165/180 134/164/180 140/187/180
f 134/164/181 112/175/181 140/187/181
f 125/162/182 138/176/182 112/175/182
f 125/162/183 132/157/183 138/176/183
f 132/157/184 111/172/184 138/176/184
f 133/161/185 137/173/185 111/172/185
f 133/161/186 130/154/186 137/173/186
f 130/154/187 110/169/187 137/173/187
f 131/160/188 136/170/188 110/169/188
f 131/160/189 128/151/189 136/170/189
f 128/151/190 109/184/190 136/170/190
f 129/159/191 135/167/191 109/166/191
f 129/159/192 126/148/192 135/167/192
f 126/148/193 108/163/193 135/167/193
f 127/158/194 134/164/194 108/163/194
f 127/158/195 124/145/195 134/164/195
f 124/145/196 112/175/196 134/164/196
f 132/157/197 133/161/197 111/172/197
f 132/157/198 123/156/198 133/161/198
f 123/156/199 106/152/199 133/161/199
f 130/154/200 131/160/200 110/169/200
f 130/154/201 122/153/201 131/160/201
f 122/153/202 105/149/202 131/160/202
f 128/151/203 129/189/203 109/184/203
f 128/151/204 120/150/204 129/189/204
f 120/150/205 104/190/205 129/189/205
f 126/148/206 127/158/206 108/163/206
f 126/148/207 116/147/207 127/158/207
f 116/147/208 103/133/208 127/158/208
f 124/145/209 125/162/209 112/175/209
f 124/145/210 117/135/210 125/162/210
f 117/135/211 107/155/211 125/162/211
f 118/144/212 123/156/212 107/155/212
f 118/144/213 121/143/213 123/156/213
f 121/143/214 106/152/214 123/156/214
f 121/141/215 122/153/215 106/152/215
f 121/141/216 119/140/216 122/153/216
f 119/140/217 105/149/217 122/153/217
f 119/138/218 120/150/218 105/149/218
f 119/138/219 114/137/219 120/150/219
f 114/137/220 104/190/220 120/150/220
f 117/135/221 118/191/221 107/155/221
f 117/135/222 115/134/222 118/191/222
f 115/134/223 102/192/223 118/191/223
f 114/132/224 116/147/224 104/146/224
f 114/132/225 115/131/225 116/147/225
f 115/131/226 103/133/226 116/147/226
