# Blender 4.5.10 LTS
# www.blender.org
mtllib grove_spirit_hollow.mtl
o grove_spirit_hollow
v -0.413538 0.002937 -0.045000
v -0.051053 0.286142 -0.045000
v -0.413538 0.002937 0.045000
v -0.051053 0.286142 0.045000
v -0.468947 0.073858 -0.045000
v -0.106462 0.357063 -0.045000
v -0.468947 0.073858 0.045000
v -0.106462 0.357063 0.045000
v -0.303458 -0.015266 0.256262
v -0.057531 0.279546 0.002873
v -0.271701 0.022803 0.331376
v -0.025774 0.317615 0.077988
v -0.372569 0.042385 0.256262
v -0.126642 0.337197 0.002873
v -0.340812 0.080454 0.331376
v -0.094885 0.375266 0.077988
v -0.028825 -0.004005 0.407132
v 0.016403 0.280599 0.048586
v -0.017815 0.065276 0.463514
v 0.027413 0.349880 0.104968
v -0.117710 0.010120 0.407132
v -0.072482 0.294724 0.048586
v -0.106700 0.079401 0.463514
v -0.061472 0.364005 0.104968
v 0.255656 0.025021 0.356094
v 0.113150 0.317201 0.030636
v 0.227742 0.082253 0.419697
v 0.085236 0.374433 0.094239
v 0.174764 -0.014433 0.356094
v 0.032258 0.277747 0.030636
v 0.146850 0.042799 0.419697
v 0.004344 0.334979 0.094239
v 0.449221 0.060775 0.116329
v 0.119329 0.348924 -0.024177
v 0.428517 0.078860 0.202027
v 0.098625 0.367008 0.061522
v 0.390015 -0.007008 0.116329
v 0.060123 0.281140 -0.024177
v 0.369311 0.011076 0.202027
v 0.039419 0.299225 0.061522
v 0.428517 0.078860 -0.202027
v 0.098625 0.367008 -0.061522
v 0.449221 0.060775 -0.116329
v 0.119329 0.348924 0.024177
v 0.369311 0.011076 -0.202027
v 0.039419 0.299225 -0.061522
v 0.390015 -0.007008 -0.116329
v 0.060123 0.281140 0.024177
v 0.227742 0.082253 -0.419697
v 0.085236 0.374433 -0.094239
v 0.255656 0.025021 -0.356094
v 0.113150 0.317201 -0.030636
v 0.146850 0.042799 -0.419697
v 0.004344 0.334979 -0.094239
v 0.174764 -0.014433 -0.356094
v 0.032258 0.277747 -0.030636
v -0.017815 0.065276 -0.463514
v 0.027413 0.349880 -0.104968
v -0.028825 -0.004005 -0.407132
v 0.016403 0.280599 -0.048586
v -0.106700 0.079401 -0.463514
v -0.061472 0.364005 -0.104968
v -0.117710 0.010120 -0.407132
v -0.072482 0.294724 -0.048586
v -0.271701 0.022803 -0.331376
v -0.025774 0.317615 -0.077988
v -0.303458 -0.015266 -0.256262
v -0.057531 0.279546 -0.002873
v -0.340812 0.080454 -0.331376
v -0.094885 0.375266 -0.077988
v -0.372569 0.042385 -0.256262
v -0.126642 0.337197 -0.002873
v 0.000000 0.230000 0.340000
v 0.000000 0.570000 0.300000
v -0.240416 0.230000 0.240416
v -0.212132 0.570000 0.212132
v -0.340000 0.230000 0.000000
v -0.300000 0.570000 0.000000
v -0.240416 0.230000 -0.240416
v -0.212132 0.570000 -0.212132
v 0.000000 0.230000 -0.340000
v 0.000000 0.570000 -0.300000
v 0.240416 0.230000 -0.240416
v 0.212132 0.570000 -0.212132
v 0.340000 0.230000 0.000000
v 0.300000 0.570000 0.000000
v 0.240416 0.230000 0.240416
v 0.212132 0.570000 0.212132
v -0.000000 0.510000 0.300000
v 0.000000 1.610000 0.400000
v -0.212132 0.510000 0.212132
v -0.282843 1.610000 0.282843
v -0.300000 0.510000 0.000000
v -0.400000 1.610000 0.000000
v -0.212132 0.510000 -0.212132
v -0.282843 1.610000 -0.282843
v -0.000000 0.510000 -0.300000
v 0.000000 1.610000 -0.400000
v 0.212132 0.510000 -0.212132
v 0.282843 1.610000 -0.282843
v 0.300000 0.510000 0.000000
v 0.400000 1.610000 0.000000
v 0.212132 0.510000 0.212132
v 0.282843 1.610000 0.282843
v 0.127500 1.042000 -0.127500
v 0.127500 1.438000 -0.127500
v 0.127500 1.042000 0.127500
v 0.127500 1.438000 0.127500
v -0.127500 1.042000 -0.127500
v -0.127500 1.438000 -0.127500
v -0.127500 1.042000 0.127500
v -0.127500 1.438000 0.127500
v -0.136680 0.940000 0.027533
v -0.136680 1.540000 0.027533
v -0.136680 0.940000 0.077533
v -0.136680 1.540000 0.077533
v -0.186680 0.940000 0.027533
v -0.186680 1.540000 0.027533
v -0.186680 0.940000 0.077533
v -0.186680 1.540000 0.077533
v 0.077533 0.940000 0.136680
v 0.077533 1.540000 0.136680
v 0.077533 0.940000 0.186680
v 0.077533 1.540000 0.186680
v 0.027533 0.940000 0.136680
v 0.027533 1.540000 0.136680
v 0.027533 0.940000 0.186680
v 0.027533 1.540000 0.186680
v 0.186680 0.940000 -0.077533
v 0.186680 1.540000 -0.077533
v 0.186680 0.940000 -0.027533
v 0.186680 1.540000 -0.027533
v 0.136680 0.940000 -0.077533
v 0.136680 1.540000 -0.077533
v 0.136680 0.940000 -0.027533
v 0.136680 1.540000 -0.027533
v -0.027533 0.940000 -0.186680
v -0.027533 1.540000 -0.186680
v -0.027533 0.940000 -0.136680
v -0.027533 1.540000 -0.136680
v -0.077533 0.940000 -0.186680
v -0.077533 1.540000 -0.186680
v -0.077533 0.940000 -0.136680
v -0.077533 1.540000 -0.136680
v 0.000000 1.480000 0.420000
v -0.000000 1.680000 0.340000
v -0.296985 1.480000 0.296985
v -0.240416 1.680000 0.240416
v -0.420000 1.480000 0.000000
v -0.340000 1.680000 0.000000
v -0.296985 1.480000 -0.296985
v -0.240416 1.680000 -0.240416
v 0.000000 1.480000 -0.420000
v -0.000000 1.680000 -0.340000
v 0.296985 1.480000 -0.296985
v 0.240416 1.680000 -0.240416
v 0.420000 1.480000 0.000000
v 0.340000 1.680000 0.000000
v 0.296985 1.480000 0.296985
v 0.240416 1.680000 0.240416
v 0.071308 1.656549 -0.035000
v 0.273595 2.157228 -0.035000
v 0.071308 1.656549 0.035000
v 0.273595 2.157228 0.035000
v 0.006405 1.682771 -0.035000
v 0.208692 2.183451 -0.035000
v 0.006405 1.682771 0.035000
v 0.208692 2.183451 0.035000
v 0.236011 2.069928 -0.010000
v 0.527257 2.281531 -0.010000
v 0.236011 2.069928 0.050000
v 0.527257 2.281531 0.050000
v 0.200743 2.118469 -0.010000
v 0.491990 2.330072 -0.010000
v 0.200743 2.118469 0.050000
v 0.491990 2.330072 0.050000
v -0.006405 1.682772 -0.035000
v -0.208692 2.183451 -0.035000
v -0.006405 1.682772 0.035000
v -0.208692 2.183451 0.035000
v -0.071308 1.656549 -0.035000
v -0.273595 2.157228 -0.035000
v -0.071308 1.656549 0.035000
v -0.273595 2.157228 0.035000
v -0.200743 2.118469 -0.010000
v -0.491989 2.330072 -0.010000
v -0.200743 2.118469 0.050000
v -0.491989 2.330072 0.050000
v -0.236010 2.069928 -0.010000
v -0.527257 2.281531 -0.010000
v -0.236010 2.069928 0.050000
v -0.527257 2.281531 0.050000
vn 0.6157 -0.7880 -0.0000
vn -0.0000 -0.0000 1.0000
vn -0.6157 0.7880 -0.0000
vn -0.0000 -0.0000 -1.0000
vn -0.7880 -0.6157 -0.0000
vn 0.7880 0.6157 -0.0000
vn 0.7679 -0.6406 -0.0000
vn 0.3529 0.4230 0.8346
vn -0.7679 0.6406 -0.0000
vn -0.3529 -0.4230 -0.8346
vn -0.5346 -0.6409 0.5508
vn 0.5346 0.6409 -0.5508
vn 0.9876 -0.1569 -0.0000
vn 0.1223 0.7698 0.6265
vn -0.9876 0.1569 -0.0000
vn -0.1223 -0.7698 -0.6265
vn -0.0983 -0.6187 0.7794
vn 0.0983 0.6187 -0.7794
vn 0.8988 0.4384 -0.0000
vn -0.3102 0.6359 0.7067
vn -0.8988 -0.4384 -0.0000
vn 0.3102 -0.6359 -0.7067
vn 0.3098 -0.6352 0.7075
vn -0.3098 0.6352 -0.7075
vn 0.6578 0.7532 -0.0000
vn -0.2300 0.2009 0.9522
vn -0.6578 -0.7532 -0.0000
vn 0.2300 -0.2009 -0.9522
vn 0.7172 -0.6264 0.3054
vn -0.7172 0.6264 -0.3054
vn 0.2300 -0.2009 0.9522
vn -0.2300 0.2009 -0.9522
vn 0.7172 -0.6264 -0.3054
vn -0.7172 0.6264 0.3054
vn 0.3102 -0.6359 0.7067
vn -0.3102 0.6359 -0.7067
vn 0.3098 -0.6352 -0.7075
vn -0.3098 0.6352 0.7075
vn -0.1223 -0.7698 0.6265
vn 0.1223 0.7698 -0.6265
vn -0.0983 -0.6187 -0.7794
vn 0.0983 0.6187 0.7794
vn -0.3529 -0.4230 0.8346
vn 0.3529 0.4230 -0.8346
vn -0.5346 -0.6409 -0.5508
vn 0.5346 0.6409 0.5508
vn -0.3804 0.1081 0.9185
vn -0.9185 0.1081 0.3804
vn -0.9185 0.1081 -0.3804
vn -0.3804 0.1081 -0.9185
vn 0.3804 0.1081 -0.9185
vn 0.9185 0.1081 -0.3804
vn -0.0000 1.0000 -0.0000
vn 0.9185 0.1081 0.3804
vn 0.3804 0.1081 0.9185
vn -0.0000 -1.0000 -0.0000
vn -0.3813 -0.0837 0.9206
vn -0.9206 -0.0837 0.3813
vn -0.9206 -0.0837 -0.3813
vn -0.3813 -0.0837 -0.9206
vn 0.3813 -0.0837 -0.9206
vn 0.9206 -0.0837 -0.3813
vn 0.9206 -0.0837 0.3813
vn 0.3813 -0.0837 0.9206
vn 1.0000 -0.0000 -0.0000
vn -1.0000 -0.0000 -0.0000
vn -0.3590 0.3466 0.8666
vn -0.8666 0.3466 0.3590
vn -0.8666 0.3466 -0.3590
vn -0.3590 0.3466 -0.8666
vn 0.3590 0.3466 -0.8666
vn 0.8666 0.3466 -0.3590
vn 0.8666 0.3466 0.3590
vn 0.3590 0.3466 0.8666
vn 0.9272 -0.3746 -0.0000
vn -0.9272 0.3746 -0.0000
vn -0.3746 -0.9272 -0.0000
vn 0.3746 0.9272 -0.0000
vn 0.5878 -0.8090 -0.0000
vn -0.5878 0.8090 -0.0000
vn -0.8090 -0.5878 -0.0000
vn 0.8090 0.5878 -0.0000
vn 0.9272 0.3746 -0.0000
vn -0.9272 -0.3746 -0.0000
vn 0.3746 -0.9272 -0.0000
vn -0.3746 0.9272 -0.0000
vn 0.5878 0.8090 -0.0000
vn -0.5878 -0.8090 -0.0000
vn 0.8090 -0.5878 -0.0000
vn -0.8090 0.5878 -0.0000
vt 0.625000 0.000000
vt 0.375000 0.250000
vt 0.375000 0.000000
vt 0.625000 0.250000
vt 0.375000 0.500000
vt 0.625000 0.500000
vt 0.375000 0.750000
vt 0.625000 0.750000
vt 0.375000 1.000000
vt 0.125000 0.750000
vt 0.125000 0.500000
vt 0.875000 0.500000
vt 0.625000 1.000000
vt 0.875000 0.750000
vt 1.000000 0.500000
vt 0.875000 1.000000
vt 0.750000 0.500000
vt 0.500000 1.000000
vt 0.500000 0.500000
vt 0.250000 1.000000
vt 0.250000 0.500000
vt 0.010000 0.250000
vt 0.250000 0.010000
vt 0.490000 0.250000
vt 0.000000 1.000000
vt 0.000000 0.500000
vt 0.919706 0.080294
vt 0.580294 0.080294
vt 0.580294 0.419706
vt 1.000000 1.000000
vt 0.750000 1.000000
vt 0.125000 1.000000
vt 0.419706 0.419706
vt 0.250000 0.490000
vt 0.080294 0.419706
vt 0.080294 0.080294
vt 0.419706 0.080294
vt 0.750000 0.490000
vt 0.919706 0.419706
vt 0.990000 0.250000
vt 0.750000 0.010000
vt 0.510000 0.250000
vt 0.750000 0.010000
s 0
usemtl bark
f 2/1/1 3/2/1 1/3/1
f 4/4/2 7/5/2 3/2/2
f 8/6/3 5/7/3 7/5/3
f 6/8/4 1/9/4 5/7/4
f 7/5/5 1/10/5 3/11/5
f 4/12/6 6/8/6 8/6/6
f 9/3/7 12/4/7 11/2/7
f 11/2/8 16/6/8 15/5/8
f 16/6/9 13/7/9 15/5/9
f 13/7/10 10/13/10 9/9/10
f 15/5/11 9/10/11 11/11/11
f 12/12/12 14/8/12 16/6/12
f 18/1/13 19/2/13 17/3/13
f 20/4/14 23/5/14 19/2/14
f 24/6/15 21/7/15 23/5/15
f 22/8/16 17/9/16 21/7/16
f 23/5/17 17/10/17 19/11/17
f 20/12/18 22/8/18 24/6/18
f 26/1/19 27/2/19 25/3/19
f 27/2/20 32/6/20 31/5/20
f 32/6/21 29/7/21 31/5/21
f 30/8/22 25/9/22 29/7/22
f 31/5/23 25/10/23 27/11/23
f 32/6/24 26/14/24 30/8/24
f 34/1/25 35/2/25 33/3/25
f 36/4/26 39/5/26 35/2/26
f 40/6/27 37/7/27 39/5/27
f 38/8/28 33/9/28 37/7/28
f 39/5/29 33/10/29 35/11/29
f 40/6/30 34/14/30 38/8/30
f 42/1/25 43/2/25 41/3/25
f 44/4/31 47/5/31 43/2/31
f 48/6/27 45/7/27 47/5/27
f 46/8/32 41/9/32 45/7/32
f 43/11/33 45/7/33 41/10/33
f 44/12/34 46/8/34 48/6/34
f 50/1/19 51/2/19 49/3/19
f 52/4/35 55/5/35 51/2/35
f 56/6/21 53/7/21 55/5/21
f 53/7/36 50/13/36 49/9/36
f 51/11/37 53/7/37 49/10/37
f 52/12/38 54/8/38 56/6/38
f 57/3/13 60/4/13 59/2/13
f 60/4/39 63/5/39 59/2/39
f 64/6/15 61/7/15 63/5/15
f 62/8/40 57/9/40 61/7/40
f 59/11/41 61/7/41 57/10/41
f 60/12/42 62/8/42 64/6/42
f 66/1/7 67/2/7 65/3/7
f 68/4/43 71/5/43 67/2/43
f 71/5/9 70/8/9 69/7/9
f 70/8/44 65/9/44 69/7/44
f 71/5/45 65/10/45 67/11/45
f 72/6/46 66/14/46 70/8/46
f 73/15/47 76/16/47 75/12/47
f 76/16/48 77/17/48 75/12/48
f 77/17/49 80/13/49 79/6/49
f 79/6/50 82/18/50 81/19/50
f 82/18/51 83/5/51 81/19/51
f 83/5/52 86/20/52 85/21/52
f 86/22/53 82/23/53 78/24/53
f 86/20/54 87/11/54 85/21/54
f 87/11/55 74/25/55 73/26/55
f 79/27/56 83/28/56 87/29/56
f 90/30/57 91/12/57 89/15/57
f 92/16/58 93/17/58 91/12/58
f 94/31/59 95/6/59 93/17/59
f 96/13/60 97/19/60 95/6/60
f 97/19/61 100/9/61 99/5/61
f 100/9/62 101/21/62 99/5/62
f 101/21/63 104/32/63 103/11/63
f 104/32/64 89/26/64 103/11/64
f 114/1/65 115/2/65 113/3/65
f 116/4/2 119/5/2 115/2/2
f 120/6/66 117/7/66 119/5/66
f 118/8/4 113/9/4 117/7/4
f 119/5/56 113/10/56 115/11/56
f 116/12/53 118/8/53 120/6/53
f 122/1/65 123/2/65 121/3/65
f 124/4/2 127/5/2 123/2/2
f 128/6/66 125/7/66 127/5/66
f 126/8/4 121/9/4 125/7/4
f 127/5/56 121/10/56 123/11/56
f 124/12/53 126/8/53 128/6/53
f 130/1/65 131/2/65 129/3/65
f 132/4/2 135/5/2 131/2/2
f 136/6/66 133/7/66 135/5/66
f 134/8/4 129/9/4 133/7/4
f 135/5/56 129/10/56 131/11/56
f 132/12/53 134/8/53 136/6/53
f 138/1/65 139/2/65 137/3/65
f 139/2/2 144/6/2 143/5/2
f 144/6/66 141/7/66 143/5/66
f 142/8/4 137/9/4 141/7/4
f 143/5/56 137/10/56 139/11/56
f 140/12/53 142/8/53 144/6/53
f 162/1/75 163/2/75 161/3/75
f 164/4/2 167/5/2 163/2/2
f 168/6/76 165/7/76 167/5/76
f 165/7/4 162/13/4 161/9/4
f 167/5/77 161/10/77 163/11/77
f 164/12/78 166/8/78 168/6/78
f 170/1/79 171/2/79 169/3/79
f 172/4/2 175/5/2 171/2/2
f 176/6/80 173/7/80 175/5/80
f 173/7/4 170/13/4 169/9/4
f 175/5/81 169/10/81 171/11/81
f 172/12/82 174/8/82 176/6/82
f 178/1/83 179/2/83 177/3/83
f 179/2/2 184/6/2 183/5/2
f 184/6/84 181/7/84 183/5/84
f 182/8/4 177/9/4 181/7/4
f 183/5/85 177/10/85 179/11/85
f 180/12/86 182/8/86 184/6/86
f 186/1/87 187/2/87 185/3/87
f 188/4/2 191/5/2 187/2/2
f 192/6/88 189/7/88 191/5/88
f 189/7/4 186/13/4 185/9/4
f 191/5/89 185/10/89 187/11/89
f 188/12/90 190/8/90 192/6/90
f 2/1/1 4/4/1 3/2/1
f 4/4/2 8/6/2 7/5/2
f 8/6/3 6/8/3 5/7/3
f 6/8/4 2/13/4 1/9/4
f 7/5/5 5/7/5 1/10/5
f 4/12/6 2/14/6 6/8/6
f 9/3/7 10/1/7 12/4/7
f 11/2/8 12/4/8 16/6/8
f 16/6/9 14/8/9 13/7/9
f 13/7/10 14/8/10 10/13/10
f 15/5/11 13/7/11 9/10/11
f 12/12/12 10/14/12 14/8/12
f 18/1/13 20/4/13 19/2/13
f 20/4/14 24/6/14 23/5/14
f 24/6/15 22/8/15 21/7/15
f 22/8/16 18/13/16 17/9/16
f 23/5/17 21/7/17 17/10/17
f 20/12/18 18/14/18 22/8/18
f 26/1/19 28/4/19 27/2/19
f 27/2/20 28/4/20 32/6/20
f 32/6/21 30/8/21 29/7/21
f 30/8/22 26/13/22 25/9/22
f 31/5/23 29/7/23 25/10/23
f 32/6/24 28/12/24 26/14/24
f 34/1/25 36/4/25 35/2/25
f 36/4/26 40/6/26 39/5/26
f 40/6/27 38/8/27 37/7/27
f 38/8/28 34/13/28 33/9/28
f 39/5/29 37/7/29 33/10/29
f 40/6/30 36/12/30 34/14/30
f 42/1/25 44/4/25 43/2/25
f 44/4/31 48/6/31 47/5/31
f 48/6/27 46/8/27 45/7/27
f 46/8/32 42/13/32 41/9/32
f 43/11/33 47/5/33 45/7/33
f 44/12/34 42/14/34 46/8/34
f 50/1/19 52/4/19 51/2/19
f 52/4/35 56/6/35 55/5/35
f 56/6/21 54/8/21 53/7/21
f 53/7/36 54/8/36 50/13/36
f 51/11/37 55/5/37 53/7/37
f 52/12/38 50/14/38 54/8/38
f 57/3/13 58/1/13 60/4/13
f 60/4/39 64/6/39 63/5/39
f 64/6/15 62/8/15 61/7/15
f 62/8/40 58/13/40 57/9/40
f 59/11/41 63/5/41 61/7/41
f 60/12/42 58/14/42 62/8/42
f 66/1/7 68/4/7 67/2/7
f 68/4/43 72/6/43 71/5/43
f 71/5/9 72/6/9 70/8/9
f 70/8/44 66/13/44 65/9/44
f 71/5/45 69/7/45 65/10/45
f 72/6/46 68/12/46 66/14/46
f 73/15/47 74/30/47 76/16/47
f 76/16/48 78/31/48 77/17/48
f 77/17/49 78/31/49 80/13/49
f 79/6/50 80/13/50 82/18/50
f 82/18/51 84/9/51 83/5/51
f 83/5/52 84/9/52 86/20/52
f 78/24/53 76/33/53 74/34/53
f 74/34/53 88/35/53 86/22/53
f 86/22/53 84/36/53 82/23/53
f 82/23/53 80/37/53 78/24/53
f 78/24/53 74/34/53 86/22/53
f 86/20/54 88/32/54 87/11/54
f 87/11/55 88/32/55 74/25/55
f 87/29/56 73/38/56 75/39/56
f 75/39/56 77/40/56 79/27/56
f 79/27/56 81/41/56 83/28/56
f 83/28/56 85/42/56 87/29/56
f 87/29/56 75/39/56 79/27/56
f 90/30/57 92/16/57 91/12/57
f 92/16/58 94/31/58 93/17/58
f 94/31/59 96/13/59 95/6/59
f 96/13/60 98/18/60 97/19/60
f 97/19/61 98/18/61 100/9/61
f 100/9/62 102/20/62 101/21/62
f 101/21/63 102/20/63 104/32/63
f 104/32/64 90/25/64 89/26/64
f 114/1/65 116/4/65 115/2/65
f 116/4/2 120/6/2 119/5/2
f 120/6/66 118/8/66 117/7/66
f 118/8/4 114/13/4 113/9/4
f 119/5/56 117/7/56 113/10/56
f 116/12/53 114/14/53 118/8/53
f 122/1/65 124/4/65 123/2/65
f 124/4/2 128/6/2 127/5/2
f 128/6/66 126/8/66 125/7/66
f 126/8/4 122/13/4 121/9/4
f 127/5/56 125/7/56 121/10/56
f 124/12/53 122/14/53 126/8/53
f 130/1/65 132/4/65 131/2/65
f 132/4/2 136/6/2 135/5/2
f 136/6/66 134/8/66 133/7/66
f 134/8/4 130/13/4 129/9/4
f 135/5/56 133/7/56 129/10/56
f 132/12/53 130/14/53 134/8/53
f 138/1/65 140/4/65 139/2/65
f 139/2/2 140/4/2 144/6/2
f 144/6/66 142/8/66 141/7/66
f 142/8/4 138/13/4 137/9/4
f 143/5/56 141/7/56 137/10/56
f 140/12/53 138/14/53 142/8/53
f 162/1/75 164/4/75 163/2/75
f 164/4/2 168/6/2 167/5/2
f 168/6/76 166/8/76 165/7/76
f 165/7/4 166/8/4 162/13/4
f 167/5/77 165/7/77 161/10/77
f 164/12/78 162/14/78 166/8/78
f 170/1/79 172/4/79 171/2/79
f 172/4/2 176/6/2 175/5/2
f 176/6/80 174/8/80 173/7/80
f 173/7/4 174/8/4 170/13/4
f 175/5/81 173/7/81 169/10/81
f 172/12/82 170/14/82 174/8/82
f 178/1/83 180/4/83 179/2/83
f 179/2/2 180/4/2 184/6/2
f 184/6/84 182/8/84 181/7/84
f 182/8/4 178/13/4 177/9/4
f 183/5/85 181/7/85 177/10/85
f 180/12/86 178/14/86 182/8/86
f 186/1/87 188/4/87 187/2/87
f 188/4/2 192/6/2 191/5/2
f 192/6/88 190/8/88 189/7/88
f 189/7/4 190/8/4 186/13/4
f 191/5/89 189/7/89 185/10/89
f 188/12/90 186/14/90 190/8/90
usemtl core
f 106/1/65 107/2/65 105/3/65
f 108/4/2 111/5/2 107/2/2
f 112/6/66 109/7/66 111/5/66
f 110/8/4 105/9/4 109/7/4
f 111/5/56 105/10/56 107/11/56
f 108/12/53 110/8/53 112/6/53
f 106/1/65 108/4/65 107/2/65
f 108/4/2 112/6/2 111/5/2
f 112/6/66 110/8/66 109/7/66
f 110/8/4 106/13/4 105/9/4
f 111/5/56 109/7/56 105/10/56
f 108/12/53 106/14/53 110/8/53
usemtl moss
f 146/30/67 147/12/67 145/15/67
f 148/16/68 149/17/68 147/12/68
f 150/31/69 151/6/69 149/17/69
f 151/6/70 154/18/70 153/19/70
f 153/19/71 156/9/71 155/5/71
f 155/5/72 158/20/72 157/21/72
f 158/22/53 154/23/53 150/24/53
f 158/20/73 159/11/73 157/21/73
f 160/32/74 145/26/74 159/11/74
f 151/27/56 155/28/56 159/29/56
f 146/30/67 148/16/67 147/12/67
f 148/16/68 150/31/68 149/17/68
f 150/31/69 152/13/69 151/6/69
f 151/6/70 152/13/70 154/18/70
f 153/19/71 154/18/71 156/9/71
f 155/5/72 156/9/72 158/20/72
f 150/24/53 148/33/53 146/34/53
f 146/34/53 160/35/53 158/22/53
f 158/22/53 156/36/53 154/23/53
f 154/23/53 152/37/53 150/24/53
f 150/24/53 146/34/53 158/22/53
f 158/20/73 160/32/73 159/11/73
f 160/32/74 146/25/74 145/26/74
f 159/29/56 145/38/56 147/39/56
f 147/39/56 149/40/56 151/27/56
f 151/27/56 153/43/56 155/28/56
f 155/28/56 157/42/56 159/29/56
f 159/29/56 147/39/56 151/27/56
