# Blender 4.5.10 LTS
# www.blender.org
mtllib stow_post_barrow.mtl
o stow_post_barrow
v 0.470000 0.415000 -0.320000
v 0.470000 0.505000 -0.320000
v 0.470000 0.415000 0.320000
v 0.470000 0.505000 0.320000
v -0.470000 0.415000 -0.320000
v -0.470000 0.505000 -0.320000
v -0.470000 0.415000 0.320000
v -0.470000 0.505000 0.320000
v 0.470000 0.445406 -0.425213
v 0.470000 0.932591 -0.312737
v 0.470000 0.427409 -0.347263
v 0.470000 0.914595 -0.234787
v -0.470000 0.445406 -0.425213
v -0.470000 0.932591 -0.312737
v -0.470000 0.427409 -0.347263
v -0.470000 0.914595 -0.234787
v 0.470000 0.427409 0.347263
v 0.470000 0.914595 0.234787
v 0.470000 0.445406 0.425213
v 0.470000 0.932591 0.312737
v -0.470000 0.427409 0.347263
v -0.470000 0.914595 0.234787
v -0.470000 0.445406 0.425213
v -0.470000 0.932591 0.312737
v 0.555213 0.445406 -0.350000
v 0.442737 0.932591 -0.350000
v 0.555213 0.445406 0.350000
v 0.442737 0.932591 0.350000
v 0.477263 0.427409 -0.350000
v 0.364787 0.914595 -0.350000
v 0.477263 0.427409 0.350000
v 0.364787 0.914595 0.350000
v -0.477263 0.427409 -0.350000
v -0.364787 0.914595 -0.350000
v -0.477263 0.427409 0.350000
v -0.364787 0.914595 0.350000
v -0.555213 0.445406 -0.350000
v -0.442737 0.932591 -0.350000
v -0.555213 0.445406 0.350000
v -0.442737 0.932591 0.350000
v 0.465000 -0.086321 -0.245399
v 0.465000 0.468229 -0.323336
v 0.465000 -0.068229 -0.116664
v 0.465000 0.486321 -0.194601
v 0.335000 -0.086321 -0.245399
v 0.335000 0.468229 -0.323336
v 0.335000 -0.068229 -0.116664
v 0.335000 0.486321 -0.194601
v 0.400000 0.660000 0.770000
v 0.400000 0.660000 -0.290000
v 0.364733 0.648541 0.770000
v 0.364733 0.648541 -0.290000
v 0.342937 0.618541 0.770000
v 0.342937 0.618541 -0.290000
v 0.342937 0.581459 0.770000
v 0.342937 0.581459 -0.290000
v 0.364733 0.551459 0.770000
v 0.364733 0.551459 -0.290000
v 0.400000 0.540000 0.770000
v 0.400000 0.540000 -0.290000
v 0.435267 0.551459 0.770000
v 0.435267 0.551459 -0.290000
v 0.457063 0.581459 0.770000
v 0.457063 0.581459 -0.290000
v 0.457063 0.618541 0.770000
v 0.457063 0.618541 -0.290000
v 0.435267 0.648541 0.770000
v 0.435267 0.648541 -0.290000
v -0.335000 -0.086321 -0.245399
v -0.335000 0.468229 -0.323336
v -0.335000 -0.068229 -0.116664
v -0.335000 0.486321 -0.194601
v -0.465000 -0.086321 -0.245399
v -0.465000 0.468229 -0.323336
v -0.465000 -0.068229 -0.116664
v -0.465000 0.486321 -0.194601
v -0.400000 0.660000 0.770000
v -0.400000 0.660000 -0.290000
v -0.435267 0.648541 0.770000
v -0.435267 0.648541 -0.290000
v -0.457063 0.618541 0.770000
v -0.457063 0.618541 -0.290000
v -0.457063 0.581459 0.770000
v -0.457063 0.581459 -0.290000
v -0.435267 0.551459 0.770000
v -0.435267 0.551459 -0.290000
v -0.400000 0.540000 0.770000
v -0.400000 0.540000 -0.290000
v -0.364733 0.551459 0.770000
v -0.364733 0.551459 -0.290000
v -0.342937 0.581459 0.770000
v -0.342937 0.581459 -0.290000
v -0.342937 0.618541 0.770000
v -0.342937 0.618541 -0.290000
v -0.364733 0.648541 0.770000
v -0.364733 0.648541 -0.290000
v 0.520000 0.865000 -0.370000
v 0.520000 0.935000 -0.370000
v 0.520000 0.865000 -0.290000
v 0.520000 0.935000 -0.290000
v -0.520000 0.865000 -0.370000
v -0.520000 0.935000 -0.370000
v -0.520000 0.865000 -0.290000
v -0.520000 0.935000 -0.290000
v 0.520000 0.865000 0.290000
v 0.520000 0.935000 0.290000
v 0.520000 0.865000 0.370000
v 0.520000 0.935000 0.370000
v -0.520000 0.865000 0.290000
v -0.520000 0.935000 0.290000
v -0.520000 0.865000 0.370000
v -0.520000 0.935000 0.370000
v 0.520000 0.865000 -0.370000
v 0.520000 0.935000 -0.370000
v 0.520000 0.865000 0.370000
v 0.520000 0.935000 0.370000
v 0.440000 0.865000 -0.370000
v 0.440000 0.935000 -0.370000
v 0.440000 0.865000 0.370000
v 0.440000 0.935000 0.370000
v -0.440000 0.865000 -0.370000
v -0.440000 0.935000 -0.370000
v -0.440000 0.865000 0.370000
v -0.440000 0.935000 0.370000
v -0.520000 0.865000 -0.370000
v -0.520000 0.935000 -0.370000
v -0.520000 0.865000 0.370000
v -0.520000 0.935000 0.370000
v 0.500000 0.490000 -0.350000
v 0.500000 0.550000 -0.350000
v 0.500000 0.490000 -0.280000
v 0.500000 0.550000 -0.280000
v -0.500000 0.490000 -0.350000
v -0.500000 0.550000 -0.350000
v -0.500000 0.490000 -0.280000
v -0.500000 0.550000 -0.280000
v 0.500000 0.490000 0.280000
v 0.500000 0.550000 0.280000
v 0.500000 0.490000 0.350000
v 0.500000 0.550000 0.350000
v -0.500000 0.490000 0.280000
v -0.500000 0.550000 0.280000
v -0.500000 0.490000 0.350000
v -0.500000 0.550000 0.350000
v 0.500000 0.490000 -0.350000
v 0.500000 0.550000 -0.350000
v 0.500000 0.490000 0.350000
v 0.500000 0.550000 0.350000
v 0.430000 0.490000 -0.350000
v 0.430000 0.550000 -0.350000
v 0.430000 0.490000 0.350000
v 0.430000 0.550000 0.350000
v -0.430000 0.490000 -0.350000
v -0.430000 0.550000 -0.350000
v -0.430000 0.490000 0.350000
v -0.430000 0.550000 0.350000
v -0.500000 0.490000 -0.350000
v -0.500000 0.550000 -0.350000
v -0.500000 0.490000 0.350000
v -0.500000 0.550000 0.350000
vn 1.0000 -0.0000 -0.0000
vn -0.0000 -0.0000 1.0000
vn -1.0000 -0.0000 -0.0000
vn -0.0000 -0.0000 -1.0000
vn -0.0000 -1.0000 -0.0000
vn -0.0000 1.0000 -0.0000
vn -0.0000 -0.2250 0.9744
vn -0.0000 0.2250 -0.9744
vn -0.0000 -0.9744 -0.2250
vn -0.0000 0.9744 0.2250
vn -0.0000 0.2250 0.9744
vn -0.0000 -0.2250 -0.9744
vn -0.0000 -0.9744 0.2250
vn -0.0000 0.9744 -0.2250
vn 0.9744 0.2250 -0.0000
vn -0.9744 -0.2250 -0.0000
vn 0.2250 -0.9744 -0.0000
vn -0.2250 0.9744 -0.0000
vn 0.9744 -0.2250 -0.0000
vn -0.9744 0.2250 -0.0000
vn -0.2250 -0.9744 -0.0000
vn 0.2250 0.9744 -0.0000
vn -0.0000 0.1392 0.9903
vn -0.0000 -0.1392 -0.9903
vn -0.0000 -0.9903 0.1392
vn -0.0000 0.9903 -0.1392
vn -0.3090 0.9511 -0.0000
vn -0.8090 0.5878 -0.0000
vn -0.8090 -0.5878 -0.0000
vn -0.3090 -0.9511 -0.0000
vn 0.3090 -0.9511 -0.0000
vn 0.8090 -0.5878 -0.0000
vn 0.8090 0.5878 -0.0000
vn 0.3090 0.9511 -0.0000
vt 0.625000 0.000000
vt 0.375000 0.250000
vt 0.375000 0.000000
vt 0.625000 0.250000
vt 0.375000 0.500000
vt 0.625000 0.500000
vt 0.375000 0.750000
vt 0.625000 0.750000
vt 0.375000 1.000000
vt 0.125000 0.750000
vt 0.125000 0.500000
vt 0.875000 0.500000
vt 0.625000 1.000000
vt 1.000000 1.000000
vt 0.900000 0.500000
vt 1.000000 0.500000
vt 0.800000 1.000000
vt 0.800000 0.500000
vt 0.700000 0.500000
vt 0.700000 1.000000
vt 0.600000 0.500000
vt 0.600000 1.000000
vt 0.500000 0.500000
vt 0.500000 1.000000
vt 0.400000 0.500000
vt 0.300000 1.000000
vt 0.300000 0.500000
vt 0.200000 0.500000
vt 0.021746 0.324164
vt 0.391068 0.055836
vt 0.478254 0.324164
vt 0.100000 1.000000
vt 0.100000 0.500000
vt -0.000000 0.500000
vt 0.978254 0.175836
vt 0.521746 0.175836
vt 0.608932 0.444164
vt 0.900000 1.000000
vt 0.400000 1.000000
vt 0.200000 1.000000
vt 0.875000 0.750000
vt 0.391068 0.444164
vt 0.250000 0.490000
vt 0.108932 0.444164
vt 0.021746 0.175836
vt 0.108932 0.055836
vt 0.250000 0.010000
vt 0.478254 0.175836
vt -0.000000 1.000000
vt 0.750000 0.490000
vt 0.891068 0.444164
vt 0.978254 0.324164
vt 0.891068 0.055836
vt 0.750000 0.010000
vt 0.608932 0.055836
vt 0.521746 0.324164
s 0
usemtl wood
f 2/1/1 3/2/1 1/3/1
f 4/4/2 7/5/2 3/2/2
f 8/6/3 5/7/3 7/5/3
f 6/8/4 1/9/4 5/7/4
f 7/5/5 1/10/5 3/11/5
f 4/12/6 6/8/6 8/6/6
f 9/3/1 12/4/1 11/2/1
f 12/4/7 15/5/7 11/2/7
f 16/6/3 13/7/3 15/5/3
f 14/8/8 9/9/8 13/7/8
f 15/5/9 9/10/9 11/11/9
f 12/12/10 14/8/10 16/6/10
f 18/1/1 19/2/1 17/3/1
f 20/4/11 23/5/11 19/2/11
f 23/5/3 22/8/3 21/7/3
f 22/8/12 17/9/12 21/7/12
f 23/5/13 17/10/13 19/11/13
f 20/12/14 22/8/14 24/6/14
f 26/1/15 27/2/15 25/3/15
f 27/2/2 32/6/2 31/5/2
f 32/6/16 29/7/16 31/5/16
f 30/8/4 25/9/4 29/7/4
f 31/5/17 25/10/17 27/11/17
f 28/12/18 30/8/18 32/6/18
f 34/1/19 35/2/19 33/3/19
f 36/4/2 39/5/2 35/2/2
f 40/6/20 37/7/20 39/5/20
f 37/7/4 34/13/4 33/9/4
f 39/5/21 33/10/21 35/11/21
f 36/12/22 38/8/22 40/6/22
f 42/1/1 43/2/1 41/3/1
f 44/4/23 47/5/23 43/2/23
f 47/5/3 46/8/3 45/7/3
f 46/8/24 41/9/24 45/7/24
f 47/5/25 41/10/25 43/11/25
f 44/12/26 46/8/26 48/6/26
f 50/14/27 51/15/27 49/16/27
f 51/15/28 54/17/28 53/18/28
f 54/17/3 55/19/3 53/18/3
f 56/20/29 57/21/29 55/19/29
f 58/22/30 59/23/30 57/21/30
f 60/24/31 61/25/31 59/23/31
f 61/25/32 64/26/32 63/27/32
f 64/26/1 65/28/1 63/27/1
f 66/29/4 58/30/4 54/31/4
f 65/28/33 68/32/33 67/33/33
f 68/32/34 49/34/34 67/33/34
f 55/35/2 63/36/2 67/37/2
f 70/1/1 71/2/1 69/3/1
f 72/4/23 75/5/23 71/2/23
f 75/5/3 74/8/3 73/7/3
f 74/8/24 69/9/24 73/7/24
f 75/5/25 69/10/25 71/11/25
f 72/12/26 74/8/26 76/6/26
f 78/14/27 79/15/27 77/16/27
f 80/38/28 81/18/28 79/15/28
f 82/17/3 83/19/3 81/18/3
f 84/20/29 85/21/29 83/19/29
f 86/22/30 87/23/30 85/21/30
f 87/23/31 90/39/31 89/25/31
f 89/25/32 92/26/32 91/27/32
f 92/26/1 93/28/1 91/27/1
f 94/29/4 86/30/4 82/31/4
f 94/40/33 95/33/33 93/28/33
f 96/32/34 77/34/34 95/33/34
f 83/35/2 91/36/2 95/37/2
f 2/1/1 4/4/1 3/2/1
f 4/4/2 8/6/2 7/5/2
f 8/6/3 6/8/3 5/7/3
f 6/8/4 2/13/4 1/9/4
f 7/5/5 5/7/5 1/10/5
f 4/12/6 2/41/6 6/8/6
f 9/3/1 10/1/1 12/4/1
f 12/4/7 16/6/7 15/5/7
f 16/6/3 14/8/3 13/7/3
f 14/8/8 10/13/8 9/9/8
f 15/5/9 13/7/9 9/10/9
f 12/12/10 10/41/10 14/8/10
f 18/1/1 20/4/1 19/2/1
f 20/4/11 24/6/11 23/5/11
f 23/5/3 24/6/3 22/8/3
f 22/8/12 18/13/12 17/9/12
f 23/5/13 21/7/13 17/10/13
f 20/12/14 18/41/14 22/8/14
f 26/1/15 28/4/15 27/2/15
f 27/2/2 28/4/2 32/6/2
f 32/6/16 30/8/16 29/7/16
f 30/8/4 26/13/4 25/9/4
f 31/5/17 29/7/17 25/10/17
f 28/12/18 26/41/18 30/8/18
f 34/1/19 36/4/19 35/2/19
f 36/4/2 40/6/2 39/5/2
f 40/6/20 38/8/20 37/7/20
f 37/7/4 38/8/4 34/13/4
f 39/5/21 37/7/21 33/10/21
f 36/12/22 34/41/22 38/8/22
f 42/1/1 44/4/1 43/2/1
f 44/4/23 48/6/23 47/5/23
f 47/5/3 48/6/3 46/8/3
f 46/8/24 42/13/24 41/9/24
f 47/5/25 45/7/25 41/10/25
f 44/12/26 42/41/26 46/8/26
f 50/14/27 52/38/27 51/15/27
f 51/15/28 52/38/28 54/17/28
f 54/17/3 56/20/3 55/19/3
f 56/20/29 58/22/29 57/21/29
f 58/22/30 60/24/30 59/23/30
f 60/24/31 62/39/31 61/25/31
f 61/25/32 62/39/32 64/26/32
f 64/26/1 66/40/1 65/28/1
f 54/31/4 52/42/4 50/43/4
f 50/43/4 68/44/4 66/29/4
f 66/29/4 64/45/4 62/46/4
f 62/46/4 60/47/4 58/30/4
f 58/30/4 56/48/4 54/31/4
f 54/31/4 50/43/4 66/29/4
f 66/29/4 62/46/4 58/30/4
f 65/28/33 66/40/33 68/32/33
f 68/32/34 50/49/34 49/34/34
f 67/37/2 49/50/2 51/51/2
f 51/51/2 53/52/2 55/35/2
f 55/35/2 57/53/2 59/54/2
f 59/54/2 61/55/2 63/36/2
f 63/36/2 65/56/2 67/37/2
f 67/37/2 51/51/2 55/35/2
f 55/35/2 59/54/2 63/36/2
f 70/1/1 72/4/1 71/2/1
f 72/4/23 76/6/23 75/5/23
f 75/5/3 76/6/3 74/8/3
f 74/8/24 70/13/24 69/9/24
f 75/5/25 73/7/25 69/10/25
f 72/12/26 70/41/26 74/8/26
f 78/14/27 80/38/27 79/15/27
f 80/38/28 82/17/28 81/18/28
f 82/17/3 84/20/3 83/19/3
f 84/20/29 86/22/29 85/21/29
f 86/22/30 88/24/30 87/23/30
f 87/23/31 88/24/31 90/39/31
f 89/25/32 90/39/32 92/26/32
f 92/26/1 94/40/1 93/28/1
f 82/31/4 80/42/4 78/43/4
f 78/43/4 96/44/4 94/29/4
f 94/29/4 92/45/4 90/46/4
f 90/46/4 88/47/4 86/30/4
f 86/30/4 84/48/4 82/31/4
f 82/31/4 78/43/4 94/29/4
f 94/29/4 90/46/4 86/30/4
f 94/40/33 96/32/33 95/33/33
f 96/32/34 78/49/34 77/34/34
f 95/37/2 77/50/2 79/51/2
f 79/51/2 81/52/2 83/35/2
f 83/35/2 85/53/2 87/54/2
f 87/54/2 89/55/2 91/36/2
f 91/36/2 93/56/2 95/37/2
f 95/37/2 79/51/2 83/35/2
f 83/35/2 87/54/2 91/36/2
usemtl iron
f 98/1/1 99/2/1 97/3/1
f 100/4/2 103/5/2 99/2/2
f 104/6/3 101/7/3 103/5/3
f 102/8/4 97/9/4 101/7/4
f 103/5/5 97/10/5 99/11/5
f 100/12/6 102/8/6 104/6/6
f 106/1/1 107/2/1 105/3/1
f 108/4/2 111/5/2 107/2/2
f 112/6/3 109/7/3 111/5/3
f 110/8/4 105/9/4 109/7/4
f 111/5/5 105/10/5 107/11/5
f 108/12/6 110/8/6 112/6/6
f 114/1/1 115/2/1 113/3/1
f 116/4/2 119/5/2 115/2/2
f 120/6/3 117/7/3 119/5/3
f 118/8/4 113/9/4 117/7/4
f 119/5/5 113/10/5 115/11/5
f 116/12/6 118/8/6 120/6/6
f 122/1/1 123/2/1 121/3/1
f 124/4/2 127/5/2 123/2/2
f 128/6/3 125/7/3 127/5/3
f 126/8/4 121/9/4 125/7/4
f 127/5/5 121/10/5 123/11/5
f 124/12/6 126/8/6 128/6/6
f 130/1/1 131/2/1 129/3/1
f 132/4/2 135/5/2 131/2/2
f 136/6/3 133/7/3 135/5/3
f 134/8/4 129/9/4 133/7/4
f 135/5/5 129/10/5 131/11/5
f 132/12/6 134/8/6 136/6/6
f 138/1/1 139/2/1 137/3/1
f 140/4/2 143/5/2 139/2/2
f 144/6/3 141/7/3 143/5/3
f 142/8/4 137/9/4 141/7/4
f 143/5/5 137/10/5 139/11/5
f 140/12/6 142/8/6 144/6/6
f 146/1/1 147/2/1 145/3/1
f 148/4/2 151/5/2 147/2/2
f 152/6/3 149/7/3 151/5/3
f 150/8/4 145/9/4 149/7/4
f 151/5/5 145/10/5 147/11/5
f 148/12/6 150/8/6 152/6/6
f 154/1/1 155/2/1 153/3/1
f 156/4/2 159/5/2 155/2/2
f 160/6/3 157/7/3 159/5/3
f 158/8/4 153/9/4 157/7/4
f 159/5/5 153/10/5 155/11/5
f 156/12/6 158/8/6 160/6/6
f 98/1/1 100/4/1 99/2/1
f 100/4/2 104/6/2 103/5/2
f 104/6/3 102/8/3 101/7/3
f 102/8/4 98/13/4 97/9/4
f 103/5/5 101/7/5 97/10/5
f 100/12/6 98/41/6 102/8/6
f 106/1/1 108/4/1 107/2/1
f 108/4/2 112/6/2 111/5/2
f 112/6/3 110/8/3 109/7/3
f 110/8/4 106/13/4 105/9/4
f 111/5/5 109/7/5 105/10/5
f 108/12/6 106/41/6 110/8/6
f 114/1/1 116/4/1 115/2/1
f 116/4/2 120/6/2 119/5/2
f 120/6/3 118/8/3 117/7/3
f 118/8/4 114/13/4 113/9/4
f 119/5/5 117/7/5 113/10/5
f 116/12/6 114/41/6 118/8/6
f 122/1/1 124/4/1 123/2/1
f 124/4/2 128/6/2 127/5/2
f 128/6/3 126/8/3 125/7/3
f 126/8/4 122/13/4 121/9/4
f 127/5/5 125/7/5 121/10/5
f 124/12/6 122/41/6 126/8/6
f 130/1/1 132/4/1 131/2/1
f 132/4/2 136/6/2 135/5/2
f 136/6/3 134/8/3 133/7/3
f 134/8/4 130/13/4 129/9/4
f 135/5/5 133/7/5 129/10/5
f 132/12/6 130/41/6 134/8/6
f 138/1/1 140/4/1 139/2/1
f 140/4/2 144/6/2 143/5/2
f 144/6/3 142/8/3 141/7/3
f 142/8/4 138/13/4 137/9/4
f 143/5/5 141/7/5 137/10/5
f 140/12/6 138/41/6 142/8/6
f 146/1/1 148/4/1 147/2/1
f 148/4/2 152/6/2 151/5/2
f 152/6/3 150/8/3 149/7/3
f 150/8/4 146/13/4 145/9/4
f 151/5/5 149/7/5 145/10/5
f 148/12/6 146/41/6 150/8/6
f 154/1/1 156/4/1 155/2/1
f 156/4/2 160/6/2 159/5/2
f 160/6/3 158/8/3 157/7/3
f 158/8/4 154/13/4 153/9/4
f 159/5/5 157/7/5 153/10/5
f 156/12/6 154/41/6 158/8/6
