# Blender 4.5.10 LTS
# www.blender.org
mtllib stow_post_chute.mtl
o stow_post_chute
v 0.370000 0.000000 -0.370000
v 0.370000 0.180000 -0.370000
v 0.370000 0.000000 0.370000
v 0.370000 0.180000 0.370000
v -0.370000 0.000000 -0.370000
v -0.370000 0.180000 -0.370000
v -0.370000 0.000000 0.370000
v -0.370000 0.180000 0.370000
v 0.150000 0.150000 -0.150000
v 0.150000 1.010000 -0.150000
v 0.150000 0.150000 0.150000
v 0.150000 1.010000 0.150000
v -0.150000 0.150000 -0.150000
v -0.150000 1.010000 -0.150000
v -0.150000 0.150000 0.150000
v -0.150000 1.010000 0.150000
v 0.155563 0.870000 0.155563
v 0.523259 1.450000 0.523259
v -0.155563 0.870000 0.155563
v -0.523259 1.450000 0.523259
v -0.155563 0.870000 -0.155563
v -0.523259 1.450000 -0.523259
v 0.155563 0.870000 -0.155563
v 0.523259 1.450000 -0.523259
v 0.142401 0.886689 0.142401
v 0.510097 1.466689 0.510097
v -0.142401 0.886689 0.142401
v -0.510097 1.466689 0.510097
v -0.142401 0.886689 -0.142401
v -0.510097 1.466689 -0.510097
v 0.142401 0.886689 -0.142401
v 0.510097 1.466689 -0.510097
v 0.550000 1.370000 -0.550000
v 0.550000 1.470000 -0.550000
v 0.550000 1.370000 -0.440000
v 0.550000 1.470000 -0.440000
v -0.550000 1.370000 -0.550000
v -0.550000 1.470000 -0.550000
v -0.550000 1.370000 -0.440000
v -0.550000 1.470000 -0.440000
v 0.550000 1.370000 0.440000
v 0.550000 1.470000 0.440000
v 0.550000 1.370000 0.550000
v 0.550000 1.470000 0.550000
v -0.550000 1.370000 0.440000
v -0.550000 1.470000 0.440000
v -0.550000 1.370000 0.550000
v -0.550000 1.470000 0.550000
v 0.550000 1.370000 -0.550000
v 0.550000 1.470000 -0.550000
v 0.550000 1.370000 0.550000
v 0.550000 1.470000 0.550000
v 0.440000 1.370000 -0.550000
v 0.440000 1.470000 -0.550000
v 0.440000 1.370000 0.550000
v 0.440000 1.470000 0.550000
v -0.440000 1.370000 -0.550000
v -0.440000 1.470000 -0.550000
v -0.440000 1.370000 0.550000
v -0.440000 1.470000 0.550000
v -0.550000 1.370000 -0.550000
v -0.550000 1.470000 -0.550000
v -0.550000 1.370000 0.550000
v -0.550000 1.470000 0.550000
v 0.190000 0.900000 -0.190000
v 0.190000 0.980000 -0.190000
v 0.190000 0.900000 0.190000
v 0.190000 0.980000 0.190000
v -0.190000 0.900000 -0.190000
v -0.190000 0.980000 -0.190000
v -0.190000 0.900000 0.190000
v -0.190000 0.980000 0.190000
vn 1.0000 -0.0000 -0.0000
vn -0.0000 -0.0000 1.0000
vn -1.0000 -0.0000 -0.0000
vn -0.0000 -0.0000 -1.0000
vn -0.0000 -1.0000 -0.0000
vn -0.0000 1.0000 -0.0000
vn -0.0000 -0.5354 0.8446
vn -0.8446 -0.5354 -0.0000
vn -0.0000 -0.5354 -0.8446
vn 0.8446 -0.5354 -0.0000
vn -0.0000 0.5354 -0.8446
vn 0.8446 0.5354 -0.0000
vn -0.0000 0.5354 0.8446
vn -0.8446 0.5354 -0.0000
vn -0.0000 -0.6193 -0.7852
vn -0.0000 0.6193 0.7852
vn 0.7852 -0.6193 -0.0000
vn -0.7852 0.6193 -0.0000
vn -0.0000 -0.6193 0.7852
vn -0.0000 0.6193 -0.7852
vn -0.7852 -0.6193 -0.0000
vn 0.7852 0.6193 -0.0000
vt 0.625000 0.000000
vt 0.375000 0.250000
vt 0.375000 0.000000
vt 0.625000 0.250000
vt 0.375000 0.500000
vt 0.625000 0.500000
vt 0.375000 0.750000
vt 0.625000 0.750000
vt 0.375000 1.000000
vt 0.125000 0.750000
vt 0.125000 0.500000
vt 0.875000 0.500000
vt 1.000000 1.000000
vt 0.750000 0.500000
vt 1.000000 0.500000
vt 0.750000 1.000000
vt 0.500000 0.500000
vt 0.500000 1.000000
vt 0.250000 0.500000
vt 0.250000 1.000000
vt 0.000000 0.500000
vt 0.000000 1.000000
vt 0.625000 1.000000
vt 0.875000 0.750000
s 0
usemtl stone
f 2/1/1 3/2/1 1/3/1
f 4/4/2 7/5/2 3/2/2
f 8/6/3 5/7/3 7/5/3
f 6/8/4 1/9/4 5/7/4
f 7/5/5 1/10/5 3/11/5
f 4/12/6 6/8/6 8/6/6
f 2/1/1 4/4/1 3/2/1
f 4/4/2 8/6/2 7/5/2
f 8/6/3 6/8/3 5/7/3
f 6/8/4 2/23/4 1/9/4
f 7/5/5 5/7/5 1/10/5
f 4/12/6 2/24/6 6/8/6
usemtl wood
f 10/1/1 11/2/1 9/3/1
f 12/4/2 15/5/2 11/2/2
f 16/6/3 13/7/3 15/5/3
f 14/8/4 9/9/4 13/7/4
f 15/5/5 9/10/5 11/11/5
f 12/12/6 14/8/6 16/6/6
f 18/13/7 19/14/7 17/15/7
f 20/16/8 21/17/8 19/14/8
f 22/18/9 23/19/9 21/17/9
f 24/20/10 17/21/10 23/19/10
f 27/14/11 26/13/11 25/15/11
f 29/17/12 28/16/12 27/14/12
f 31/19/13 30/18/13 29/17/13
f 25/21/14 32/20/14 31/19/14
f 19/14/15 25/15/15 17/15/15
f 18/13/16 28/16/16 20/16/16
f 21/17/17 27/14/17 19/14/17
f 20/16/18 30/18/18 22/18/18
f 23/19/19 29/17/19 21/17/19
f 22/18/20 32/20/20 24/20/20
f 17/21/21 31/19/21 23/19/21
f 24/20/22 26/22/22 18/22/22
f 10/1/1 12/4/1 11/2/1
f 12/4/2 16/6/2 15/5/2
f 16/6/3 14/8/3 13/7/3
f 14/8/4 10/23/4 9/9/4
f 15/5/5 13/7/5 9/10/5
f 12/12/6 10/24/6 14/8/6
f 18/13/7 20/16/7 19/14/7
f 20/16/8 22/18/8 21/17/8
f 22/18/9 24/20/9 23/19/9
f 24/20/10 18/22/10 17/21/10
f 27/14/11 28/16/11 26/13/11
f 29/17/12 30/18/12 28/16/12
f 31/19/13 32/20/13 30/18/13
f 25/21/14 26/22/14 32/20/14
f 19/14/15 27/14/15 25/15/15
f 18/13/16 26/13/16 28/16/16
f 21/17/17 29/17/17 27/14/17
f 20/16/18 28/16/18 30/18/18
f 23/19/19 31/19/19 29/17/19
f 22/18/20 30/18/20 32/20/20
f 17/21/21 25/21/21 31/19/21
f 24/20/22 32/20/22 26/22/22
usemtl iron
f 34/1/1 35/2/1 33/3/1
f 36/4/2 39/5/2 35/2/2
f 40/6/3 37/7/3 39/5/3
f 38/8/4 33/9/4 37/7/4
f 39/5/5 33/10/5 35/11/5
f 36/12/6 38/8/6 40/6/6
f 42/1/1 43/2/1 41/3/1
f 44/4/2 47/5/2 43/2/2
f 48/6/3 45/7/3 47/5/3
f 46/8/4 41/9/4 45/7/4
f 47/5/5 41/10/5 43/11/5
f 44/12/6 46/8/6 48/6/6
f 50/1/1 51/2/1 49/3/1
f 52/4/2 55/5/2 51/2/2
f 56/6/3 53/7/3 55/5/3
f 54/8/4 49/9/4 53/7/4
f 55/5/5 49/10/5 51/11/5
f 52/12/6 54/8/6 56/6/6
f 58/1/1 59/2/1 57/3/1
f 60/4/2 63/5/2 59/2/2
f 64/6/3 61/7/3 63/5/3
f 62/8/4 57/9/4 61/7/4
f 63/5/5 57/10/5 59/11/5
f 60/12/6 62/8/6 64/6/6
f 66/1/1 67/2/1 65/3/1
f 68/4/2 71/5/2 67/2/2
f 72/6/3 69/7/3 71/5/3
f 70/8/4 65/9/4 69/7/4
f 71/5/5 65/10/5 67/11/5
f 68/12/6 70/8/6 72/6/6
f 34/1/1 36/4/1 35/2/1
f 36/4/2 40/6/2 39/5/2
f 40/6/3 38/8/3 37/7/3
f 38/8/4 34/23/4 33/9/4
f 39/5/5 37/7/5 33/10/5
f 36/12/6 34/24/6 38/8/6
f 42/1/1 44/4/1 43/2/1
f 44/4/2 48/6/2 47/5/2
f 48/6/3 46/8/3 45/7/3
f 46/8/4 42/23/4 41/9/4
f 47/5/5 45/7/5 41/10/5
f 44/12/6 42/24/6 46/8/6
f 50/1/1 52/4/1 51/2/1
f 52/4/2 56/6/2 55/5/2
f 56/6/3 54/8/3 53/7/3
f 54/8/4 50/23/4 49/9/4
f 55/5/5 53/7/5 49/10/5
f 52/12/6 50/24/6 54/8/6
f 58/1/1 60/4/1 59/2/1
f 60/4/2 64/6/2 63/5/2
f 64/6/3 62/8/3 61/7/3
f 62/8/4 58/23/4 57/9/4
f 63/5/5 61/7/5 57/10/5
f 60/12/6 58/24/6 62/8/6
f 66/1/1 68/4/1 67/2/1
f 68/4/2 72/6/2 71/5/2
f 72/6/3 70/8/3 69/7/3
f 70/8/4 66/23/4 65/9/4
f 71/5/5 69/7/5 65/10/5
f 68/12/6 66/24/6 70/8/6
