# Blender 4.5.10 LTS
# www.blender.org
mtllib thicket_dandelion.mtl
o dandelion_bloom
v 0.029647 0.007112 -0.017281
v 0.029653 0.007151 -0.017559
v 0.030363 0.007024 -0.017285
v 0.031135 0.014910 -0.017819
v 0.031147 0.014966 -0.017545
v 0.031845 0.014784 -0.017545
v 0.030068 0.008556 0.028142
v 0.030784 0.008468 0.028138
v 0.030079 0.008611 0.028416
v 0.031567 0.016409 0.027878
v 0.031561 0.016371 0.028156
v 0.032265 0.016227 0.027878
v -0.086806 0.029360 -0.016910
v -0.087504 0.029543 -0.016910
v -0.086800 0.029399 -0.017188
v -0.085307 0.037214 -0.017174
v -0.085318 0.037158 -0.017448
v -0.086023 0.037302 -0.017170
v -0.086386 0.030804 0.028513
v -0.086374 0.030859 0.028787
v -0.087084 0.030986 0.028514
v -0.084886 0.038657 0.028250
v -0.085602 0.038745 0.028253
v -0.084893 0.038619 0.028527
v -0.016683 -0.008561 -0.033824
v -0.016935 -0.008521 -0.033940
v -0.016417 -0.008720 -0.034475
v -0.016225 -0.000945 -0.036079
v -0.015965 -0.000893 -0.035989
v -0.015707 -0.001144 -0.036614
v 0.025447 -0.007703 -0.016799
v 0.025713 -0.007862 -0.017451
v 0.025707 -0.007652 -0.016709
v 0.026165 -0.000036 -0.018964
v 0.026417 -0.000076 -0.018848
v 0.026423 -0.000286 -0.019590
v -0.059857 0.025172 0.071317
v -0.060115 0.025422 0.071943
v -0.060108 0.025212 0.071201
v -0.059138 0.032839 0.069152
v -0.059398 0.032788 0.069062
v -0.059405 0.032998 0.069804
v -0.017727 0.026029 0.088342
v -0.017466 0.026081 0.088432
v -0.017984 0.026280 0.088967
v -0.017008 0.033697 0.086177
v -0.017274 0.033856 0.086828
v -0.016756 0.033656 0.086293
v -0.035908 0.000193 -0.006199
v -0.036125 0.000248 -0.006031
v -0.036369 0.000032 -0.006730
v -0.037414 0.007815 -0.007916
v -0.037212 0.007852 -0.008107
v -0.037657 0.007599 -0.008615
v -0.001375 -0.001277 -0.035709
v -0.001836 -0.001438 -0.036240
v -0.001173 -0.001240 -0.035900
v -0.002680 0.006381 -0.037617
v -0.002462 0.006327 -0.037785
v -0.003125 0.006129 -0.038126
v 0.038707 0.034234 0.079419
v 0.039152 0.034486 0.079927
v 0.038490 0.034289 0.079586
v 0.037403 0.041893 0.077510
v 0.037201 0.041856 0.077701
v 0.037864 0.042053 0.078042
v 0.073240 0.032763 0.049908
v 0.073442 0.032800 0.049718
v 0.073685 0.033016 0.050417
v 0.071935 0.040422 0.048000
v 0.072396 0.040583 0.048532
v 0.072153 0.040367 0.047832
v -0.010527 0.007560 0.028888
v -0.010438 0.007602 0.029151
v -0.011193 0.007446 0.029141
v -0.012040 0.015302 0.029934
v -0.012149 0.015354 0.029681
v -0.012795 0.015146 0.029924
v -0.026776 0.008497 -0.013546
v -0.027442 0.008382 -0.013293
v -0.026884 0.008549 -0.013799
v -0.028397 0.016290 -0.012753
v -0.028486 0.016249 -0.013015
v -0.029044 0.016082 -0.012510
v 0.097558 0.034196 -0.011912
v 0.098204 0.034404 -0.012155
v 0.097647 0.034237 -0.011650
v 0.095936 0.041990 -0.011120
v 0.096045 0.041937 -0.010867
v 0.096602 0.042105 -0.011372
v 0.081309 0.035132 -0.054346
v 0.081201 0.035184 -0.054599
v 0.081956 0.035341 -0.054589
v 0.079688 0.042926 -0.053553
v 0.080354 0.043041 -0.053806
v 0.079599 0.042885 -0.053816
v 0.019110 0.000785 0.016441
v 0.019388 0.000814 0.016461
v 0.019075 0.000701 0.017157
v 0.019834 0.008569 0.017922
v 0.019561 0.008634 0.017920
v 0.019521 0.008456 0.018618
v -0.026203 0.003740 0.014573
v -0.026238 0.003656 0.015288
v -0.026476 0.003805 0.014570
v -0.025752 0.011589 0.016051
v -0.026030 0.011560 0.016031
v -0.025793 0.011411 0.016750
v 0.025317 0.022361 -0.099974
v 0.025357 0.022540 -0.100672
v 0.025595 0.022391 -0.099954
v 0.025768 0.030211 -0.098495
v 0.026040 0.030146 -0.098493
v 0.025803 0.030295 -0.099211
v -0.019996 0.025317 -0.101842
v -0.020269 0.025382 -0.101845
v -0.019956 0.025495 -0.102540
v -0.019545 0.033166 -0.100363
v -0.019510 0.033250 -0.101079
v -0.019823 0.033137 -0.100384
v 0.034547 -0.007580 -0.001744
v 0.034688 -0.007547 -0.001984
v 0.035172 -0.007708 -0.001406
v 0.036558 0.000112 -0.001423
v 0.036440 0.000172 -0.001176
v 0.037042 -0.000049 -0.000844
v 0.013290 -0.005331 0.038363
v 0.013915 -0.005459 0.038701
v 0.013173 -0.005271 0.038610
v 0.015183 0.002421 0.038932
v 0.015042 0.002388 0.039172
v 0.015785 0.002200 0.039263
v -0.066422 0.021111 -0.056867
v -0.067023 0.021332 -0.057198
v -0.066281 0.021144 -0.057107
v -0.064529 0.028863 -0.056299
v -0.064411 0.028803 -0.056546
v -0.065154 0.028991 -0.056637
v -0.087679 0.023361 -0.016760
v -0.087796 0.023421 -0.016513
v -0.088280 0.023581 -0.017091
v -0.085786 0.031113 -0.016191
v -0.086411 0.031240 -0.016530
v -0.085927 0.031080 -0.015951
v 0.002966 0.015331 0.000936
v 0.006495 0.020373 -0.001981
v 0.004182 0.020373 0.005349
v -0.004535 0.079861 -0.001430
v -0.002222 0.075471 0.003329
v 0.000090 0.075471 -0.004002
v 0.000022 0.015102 0.003126
v 0.003387 0.020311 0.005941
v -0.004261 0.019537 0.006020
v -0.006547 0.079705 0.000067
v -0.009870 0.074697 0.003407
v -0.002222 0.075471 0.003329
v -0.002953 0.014732 0.000996
v -0.005065 0.019437 0.005444
v -0.007478 0.018959 -0.001838
v -0.008581 0.079452 -0.001389
v -0.012283 0.074219 -0.003875
v -0.009870 0.074697 0.003407
v -0.001847 0.014732 -0.002510
v -0.007179 0.018959 -0.002786
v -0.001024 0.019437 -0.007365
v -0.007825 0.079452 -0.003786
v -0.006128 0.074697 -0.008454
v -0.012283 0.074219 -0.003875
v 0.001812 0.015102 -0.002548
v -0.000035 0.019537 -0.007375
v 0.006183 0.020311 -0.002923
v -0.005324 0.079705 -0.003812
v 0.000090 0.075471 -0.004002
v -0.006128 0.074697 -0.008454
v -0.003400 0.074924 -0.000888
v -0.000386 0.079457 -0.003336
v -0.002808 0.079457 0.002950
v -0.014062 0.138920 -0.004997
v -0.012105 0.135255 -0.000633
v -0.009682 0.135255 -0.006919
v -0.006202 0.074606 0.000951
v -0.003653 0.079361 0.003504
v -0.010302 0.078331 0.003172
v -0.015895 0.138712 -0.003794
v -0.018754 0.134225 -0.000965
v -0.012105 0.135255 -0.000633
v -0.008776 0.074092 -0.001156
v -0.011078 0.078176 0.002537
v -0.012765 0.077539 -0.003954
v -0.017580 0.138375 -0.005173
v -0.020441 0.133588 -0.007456
v -0.018754 0.134225 -0.000965
v -0.007566 0.074092 -0.004298
v -0.012400 0.077539 -0.004901
v -0.006793 0.078176 -0.008580
v -0.016787 0.138375 -0.007228
v -0.014834 0.134225 -0.011136
v -0.020441 0.133588 -0.007456
v -0.004243 0.074606 -0.004132
v -0.005792 0.078331 -0.008531
v -0.000640 0.079361 -0.004314
v -0.014613 0.138712 -0.007120
v -0.009682 0.135255 -0.006919
v -0.014834 0.134225 -0.011136
v -0.000759 0.139035 0.030161
v 0.001012 0.144202 0.033189
v -0.003762 0.157340 0.021222
v -0.000224 0.151738 0.029509
v -0.019505 0.140314 0.033083
v -0.019573 0.145606 0.036398
v -0.016952 0.158240 0.023278
v -0.018523 0.152986 0.032361
v -0.036846 0.141560 0.025383
v -0.038617 0.146974 0.027943
v -0.029155 0.159116 0.017860
v -0.035451 0.154202 0.024845
v -0.047278 0.142377 0.009506
v -0.050072 0.147871 0.010507
v -0.036496 0.159691 0.006687
v -0.045633 0.155000 0.009347
v -0.047488 0.142506 -0.009507
v -0.050303 0.148013 -0.010372
v -0.036644 0.159782 -0.006692
v -0.045838 0.155126 -0.009213
v -0.037410 0.141906 -0.025621
v -0.039235 0.147355 -0.028066
v -0.029552 0.159360 -0.018031
v -0.036000 0.154541 -0.024942
v -0.020242 0.140768 -0.033718
v -0.020383 0.146105 -0.036958
v -0.017472 0.158559 -0.023728
v -0.019243 0.153429 -0.032846
v -0.001437 0.139452 -0.031228
v 0.000268 0.144660 -0.034224
v -0.004239 0.157634 -0.021976
v -0.000886 0.152145 -0.030415
v 0.013036 0.138377 -0.018942
v 0.016161 0.143480 -0.020732
v 0.005946 0.156877 -0.013331
v 0.013242 0.151096 -0.018422
v 0.018582 0.137884 -0.000760
v 0.022251 0.142938 -0.000766
v 0.009848 0.156530 -0.000537
v 0.018655 0.150614 -0.000674
v 0.013439 0.138129 0.017545
v 0.016603 0.143207 0.019335
v 0.006229 0.156703 0.012344
v 0.013635 0.150854 0.017194
vn -0.1215 -0.9829 -0.1387
vn 0.2471 0.9474 -0.2035
vn -0.1183 -0.9720 0.2030
vn 0.2502 0.9583 0.1383
vn -0.2502 -0.9583 -0.1383
vn 0.1183 0.9720 -0.2030
vn -0.2471 -0.9474 0.2034
vn 0.1215 0.9829 0.1387
vn -0.1217 -0.9920 0.0326
vn 0.3429 -0.0968 -0.9344
vn 0.2524 0.9671 -0.0331
vn 0.3602 -0.0375 0.9321
vn -0.1831 -0.9618 0.2037
vn 0.1863 0.9726 0.1388
vn -0.3429 0.0968 0.9344
vn -0.2524 -0.9671 0.0331
vn 0.1217 0.9920 -0.0326
vn -0.3602 0.0375 -0.9321
vn -0.1863 -0.9726 -0.1388
vn 0.1831 0.9618 -0.2037
vn -0.1875 -0.9817 0.0329
vn 0.9822 -0.1877 -0.0031
vn -0.0093 -0.0318 -0.9995
vn 0.1875 0.9817 -0.0329
vn 0.0093 0.0318 0.9995
vn -0.9822 0.1877 0.0031
vn -0.2230 -0.9642 0.1439
vn -0.0463 0.9204 -0.3882
vn 0.0940 -0.9577 0.2720
vn 0.2707 0.9269 -0.2601
vn -0.2707 -0.9269 0.2601
vn -0.0940 0.9577 -0.2720
vn 0.0463 -0.9204 0.3882
vn 0.2229 0.9642 -0.1439
vn -0.0654 -0.9753 0.2110
vn -0.7352 -0.1195 -0.6672
vn 0.1139 0.9374 -0.3290
vn 0.9959 -0.0842 0.0323
vn 0.0703 -0.9411 0.3308
vn 0.2473 0.9475 -0.2024
vn 0.7352 0.1195 0.6672
vn -0.1139 -0.9374 0.3290
vn 0.0654 0.9753 -0.2110
vn -0.9959 0.0842 -0.0324
vn -0.2473 -0.9475 0.2024
vn -0.0703 0.9411 -0.3308
vn -0.0898 -0.9585 0.2706
vn 0.3641 -0.2845 -0.8868
vn -0.9270 -0.0189 -0.3746
vn 0.0898 0.9585 -0.2706
vn 0.9270 0.0189 0.3746
vn -0.3641 0.2845 0.8868
vn -0.0109 -0.9544 0.2982
vn -0.3315 0.9279 -0.1708
vn 0.2490 -0.9655 0.0761
vn -0.0716 0.9168 -0.3928
vn 0.0716 -0.9168 0.3928
vn -0.2490 0.9655 -0.0761
vn 0.3315 -0.9279 0.1708
vn 0.0108 0.9544 -0.2982
vn 0.1208 -0.9743 0.1900
vn -0.9347 -0.0726 0.3478
vn -0.2046 0.9361 -0.2860
vn 0.4842 -0.1330 -0.8648
vn 0.2908 -0.9487 0.1237
vn -0.0305 0.9376 -0.3462
vn 0.9348 0.0726 -0.3478
vn 0.2046 -0.9361 0.2860
vn -0.1208 0.9743 -0.1900
vn -0.4842 0.1330 0.8648
vn 0.0305 -0.9376 0.3463
vn -0.2909 0.9487 -0.1237
vn 0.1631 -0.9573 0.2385
vn -0.6293 -0.2871 -0.7221
vn -0.7598 0.0324 0.6493
vn -0.1631 0.9573 -0.2385
vn 0.7598 -0.0324 -0.6493
vn 0.6293 0.2871 0.7221
vn 0.2006 -0.9760 0.0848
vn -0.1979 0.9395 0.2796
vn 0.0784 -0.9690 -0.2345
vn -0.3201 0.9465 -0.0396
vn 0.3201 -0.9466 0.0397
vn -0.0784 0.9690 0.2345
vn 0.1979 -0.9395 -0.2796
vn -0.2006 0.9760 -0.0848
vn 0.1416 -0.9870 -0.0760
vn 0.0075 -0.0996 0.9950
vn -0.2629 0.9571 0.1218
vn -0.6602 -0.0612 -0.7486
vn 0.1384 -0.9563 -0.2576
vn -0.2609 0.9633 -0.0623
vn -0.0075 0.0996 -0.9950
vn 0.2629 -0.9571 -0.1218
vn -0.1416 0.9870 0.0760
vn 0.6601 0.0612 0.7486
vn 0.2609 -0.9633 0.0623
vn -0.1384 0.9563 0.2576
vn 0.2027 -0.9742 -0.0991
vn -0.9116 -0.2247 0.3441
vn 0.3575 -0.0206 0.9337
vn -0.2027 0.9742 0.0991
vn -0.3575 0.0206 -0.9337
vn 0.9116 0.2247 -0.3441
vn 0.1116 -0.9876 -0.1103
vn 0.2224 0.9415 0.2531
vn -0.2293 -0.9654 -0.1244
vn -0.1185 0.9638 0.2391
vn 0.1185 -0.9638 -0.2390
vn 0.2293 0.9654 0.1244
vn -0.2224 -0.9415 -0.2531
vn -0.1116 0.9876 0.1103
vn -0.0597 -0.9911 -0.1191
vn 0.9122 -0.1259 0.3898
vn 0.0528 0.9669 0.2498
vn -0.9497 -0.0044 0.3131
vn -0.2264 -0.9555 -0.1892
vn -0.1153 0.9778 0.1751
vn -0.9122 0.1259 -0.3898
vn -0.0528 -0.9669 -0.2498
vn 0.0597 0.9911 0.1191
vn 0.9497 0.0044 -0.3131
vn 0.1153 -0.9778 -0.1751
vn 0.2264 0.9555 0.1892
vn -0.0564 -0.9811 -0.1849
vn -0.0524 -0.1820 0.9819
vn 0.9970 -0.0650 0.0411
vn 0.0564 0.9811 0.1849
vn -0.9970 0.0650 -0.0411
vn 0.0524 0.1820 -0.9819
vn -0.0968 -0.9770 -0.1902
vn 0.3684 0.9283 -0.0506
vn -0.2567 -0.9600 0.1115
vn 0.2084 0.9452 0.2512
vn -0.2084 -0.9452 -0.2512
vn 0.2567 0.9600 -0.1115
vn -0.3684 -0.9283 0.0506
vn 0.0968 0.9769 0.1903
vn -0.1794 -0.9830 -0.0400
vn 0.7416 -0.1328 -0.6576
vn 0.2927 0.9508 0.1018
vn -0.1319 -0.0404 0.9904
vn -0.3132 -0.9462 0.0812
vn 0.1529 0.9632 0.2212
vn -0.7416 0.1328 0.6576
vn -0.2927 -0.9508 -0.1018
vn 0.1794 0.9830 0.0400
vn 0.1319 0.0404 -0.9904
vn -0.1529 -0.9632 -0.2212
vn 0.3132 0.9462 -0.0812
vn -0.2366 -0.9690 -0.0710
vn 0.8516 -0.2420 0.4649
vn 0.4677 -0.0495 -0.8825
vn 0.2366 0.9690 0.0710
vn -0.4677 0.0495 0.8825
vn -0.8516 0.2420 -0.4649
vn 0.8553 -0.4424 0.2698
vn 0.7344 0.6380 0.2317
vn 0.0599 -0.5043 0.8615
vn -0.0500 0.5770 0.8152
vn -0.7436 -0.6043 0.2862
vn -0.8424 0.4784 0.2478
vn -0.4448 -0.6043 -0.6611
vn -0.5478 0.4784 -0.6864
vn 0.5433 -0.5043 -0.6712
vn 0.4268 0.5770 -0.6963
vn 0.4910 -0.6379 0.5934
vn 0.3431 0.7676 0.5413
vn 0.9467 0.1210 0.2986
vn 0.0054 0.0479 0.9988
vn -0.3411 -0.7221 0.6019
vn -0.4788 0.6845 0.5498
vn -0.9455 -0.0705 0.3180
vn -0.6037 -0.7741 -0.1904
vn -0.7382 0.6331 -0.2329
vn -0.5918 -0.0705 -0.8030
vn 0.0660 -0.7221 -0.6887
vn -0.0767 0.6845 -0.7250
vn 0.5776 0.0479 -0.8149
vn 0.7426 -0.6379 -0.2042
vn 0.5916 0.7676 -0.2465
vn 0.1010 -0.9944 0.0318
vn 0.5891 0.0979 0.8021
vn 0.9427 0.0979 -0.3189
vn -0.1010 0.9944 -0.0318
vn -0.5804 -0.0205 0.8141
vn -0.9495 -0.0936 -0.2995
vn -0.0082 -0.0205 -0.9998
vn 0.8584 -0.3921 0.3308
vn 0.6845 0.6797 0.2638
vn 0.0317 -0.4860 0.8734
vn -0.1308 0.5871 0.7989
vn -0.7279 -0.6378 0.2517
vn -0.8799 0.4373 0.1858
vn -0.3707 -0.6378 -0.6751
vn -0.5276 0.4373 -0.7282
vn 0.6097 -0.4860 -0.6262
vn 0.4392 0.5871 -0.6800
vn 0.4851 -0.6011 0.6351
vn 0.2683 0.7936 0.5461
vn 0.9186 0.1758 0.3540
vn -0.0597 0.0647 0.9961
vn -0.3404 -0.7289 0.5939
vn -0.5471 0.6673 0.5054
vn -0.9586 -0.1150 0.2604
vn -0.5498 -0.8080 -0.2119
vn -0.7539 0.5892 -0.2906
vn -0.5359 -0.1150 -0.8364
vn 0.1463 -0.7289 -0.6688
vn -0.0663 0.6673 -0.7418
vn 0.6243 0.0647 -0.7785
vn 0.7859 -0.6011 -0.1453
vn 0.5654 0.7936 -0.2248
vn 0.1500 -0.9870 0.0578
vn 0.5318 0.1422 0.8348
vn 0.9545 0.1422 -0.2620
vn -0.1500 0.9870 -0.0578
vn -0.6284 -0.0375 0.7770
vn -0.9227 -0.1486 -0.3556
vn 0.0556 -0.0375 -0.9977
vn 0.0956 -0.5275 0.8441
vn 0.1378 0.8469 0.5136
vn -0.3822 -0.4941 0.7809
vn -0.1489 0.8669 0.4757
vn -0.7499 -0.4668 0.4687
vn -0.3696 0.8833 0.2883
vn -0.8908 -0.4543 0.0067
vn -0.4542 0.8908 0.0111
vn -0.7602 -0.4605 -0.4583
vn -0.3758 0.8871 -0.2681
vn -0.3994 -0.4835 -0.7789
vn -0.1593 0.8733 -0.4604
vn 0.0769 -0.5160 -0.8531
vn 0.1266 0.8538 -0.5050
vn 0.5175 -0.5476 -0.6575
vn 0.3910 0.8348 -0.3876
vn 0.7825 -0.5684 -0.2541
vn 0.5501 0.8223 -0.1455
vn 0.7879 -0.5717 0.2290
vn 0.5533 0.8204 0.1445
vn 0.5318 -0.5565 0.6384
vn 0.3996 0.8295 0.3902
vn -0.0690 -0.9976 -0.0060
vn 0.1674 0.4547 0.8748
vn 0.6163 0.4249 0.6631
vn 0.0690 0.9976 0.0060
vn -0.3244 0.4891 0.8097
vn -0.7028 0.5172 0.4884
vn -0.8478 0.5301 0.0130
vn -0.7134 0.5237 -0.4657
vn -0.3421 0.5000 -0.7956
vn 0.1481 0.4665 -0.8720
vn 0.6016 0.4340 -0.6707
vn 0.8743 0.4126 -0.2555
vn 0.8798 0.4092 0.2417
vn -0.2474 -0.9475 0.2024
vn -0.9348 -0.0726 0.3478
vn -0.0304 0.9376 -0.3463
vn 0.9347 0.0726 -0.3478
vn 0.0305 -0.9376 0.3462
vn -0.2908 0.9487 -0.1237
vn -0.6601 -0.0612 -0.7486
vn 0.2263 0.9555 0.1892
vn -0.0000 -0.7546 -0.6562
vn 0.9981 -0.0624 -0.0000
vn -0.0000 -1.0000 -0.0000
vn -0.0000 1.0000 -0.0000
vn -0.5547 -0.8321 -0.0000
vn -0.3042 -0.0878 -0.9485
vn -0.9948 -0.1019 -0.0000
vn -0.1010 0.9944 -0.0319
vn 1.0000 -0.0000 -0.0000
vn 0.9955 0.0948 -0.0000
vn -0.0000 -0.4472 0.8944
vn 0.9996 0.0291 -0.0000
vt 0.126500 0.748500
vt 0.126500 0.750000
vt 0.125000 0.748500
vt 0.623500 0.998500
vt 0.625000 0.998500
vt 0.623500 1.000000
vt 0.126500 0.501500
vt 0.125000 0.501500
vt 0.126500 0.500000
vt 0.625000 0.250003
vt 0.623500 0.251500
vt 0.623500 0.248500
vt 0.373500 0.748500
vt 0.376500 0.748500
vt 0.376475 0.751487
vt 0.626487 0.748525
vt 0.623500 0.751500
vt 0.623500 0.748500
vt 0.373500 0.501500
vt 0.376475 0.498513
vt 0.376500 0.501500
vt 0.626487 0.501475
vt 0.623500 0.501500
vt 0.623500 0.498500
vt 0.623500 0.000000
vt 0.376500 0.001500
vt 0.376500 0.000000
vt 0.625000 0.001500
vt 0.623500 0.001500
vt 0.376500 0.251500
vt 0.376500 0.248500
vt 0.376500 0.998500
vt 0.873500 0.501500
vt 0.873500 0.748500
vt 0.126500 0.748500
vt 0.623500 0.248500
vt 0.376475 0.498513
vt 0.623500 0.498500
vt 0.126500 0.501500
vt 0.376500 0.748500
vt 0.126500 0.748500
vt 0.750000 0.333415
vt 0.647125 0.414136
vt 0.852875 0.414136
vt 0.250000 0.314062
vt 0.364127 0.407082
vt 0.135873 0.407082
vt 0.829332 0.275777
vt 0.874313 0.398561
vt 0.937893 0.202881
vt 0.310926 0.269796
vt 0.434661 0.190000
vt 0.364127 0.407082
vt 0.799030 0.182516
vt 0.929705 0.177679
vt 0.763250 0.056743
vt 0.287655 0.198173
vt 0.250000 0.055836
vt 0.434661 0.190000
vt 0.700970 0.182516
vt 0.736751 0.056743
vt 0.570296 0.177679
vt 0.212345 0.198173
vt 0.065339 0.190000
vt 0.250000 0.055836
vt 0.670668 0.275777
vt 0.562107 0.202881
vt 0.625687 0.398561
vt 0.189074 0.269796
vt 0.135873 0.407082
vt 0.065339 0.190000
vt 0.100000 0.963461
vt 0.000000 0.536867
vt 0.090554 0.536540
vt 0.700000 0.963460
vt 0.890553 0.536539
vt 0.900000 0.963461
vt 0.500000 0.963460
vt 0.690554 0.536539
vt 0.700000 0.963461
vt 0.309446 0.536539
vt 0.500000 0.963461
vt 0.300000 0.963460
vt 0.109446 0.536539
vt 0.300000 0.963461
vt 0.100000 0.963461
vt 0.909446 0.536539
vt 0.709446 0.536539
vt 0.509447 0.536539
vt 0.490554 0.536540
vt 0.290554 0.536540
vt 0.750000 0.335807
vt 0.648682 0.415316
vt 0.851318 0.415316
vt 0.250000 0.314062
vt 0.364127 0.407082
vt 0.135873 0.407082
vt 0.831607 0.276516
vt 0.875916 0.397445
vt 0.938534 0.204726
vt 0.310926 0.269796
vt 0.434661 0.190000
vt 0.364127 0.407082
vt 0.800436 0.180581
vt 0.929139 0.175810
vt 0.765202 0.056703
vt 0.287655 0.198173
vt 0.250000 0.055836
vt 0.434661 0.190000
vt 0.699564 0.180581
vt 0.734798 0.056703
vt 0.570862 0.175810
vt 0.212345 0.198173
vt 0.065339 0.190000
vt 0.668393 0.276516
vt 0.561466 0.204726
vt 0.624084 0.397445
vt 0.189074 0.269796
vt 0.135873 0.407082
vt 0.065339 0.190000
vt 0.100000 0.967977
vt 0.000000 0.532310
vt 0.089163 0.532023
vt 0.710837 0.532023
vt 0.900000 0.967977
vt 0.700000 0.967977
vt 0.500000 0.967977
vt 0.689163 0.532023
vt 0.300000 0.967977
vt 0.489163 0.532023
vt 0.110837 0.532023
vt 0.300000 0.967977
vt 0.100000 0.967977
vt 0.910837 0.532023
vt 0.889163 0.532023
vt 0.510837 0.532023
vt 0.310837 0.532023
vt 0.289163 0.532023
vt 0.750000 0.488599
vt 0.859469 0.420337
vt 0.750000 0.452480
vt 0.379754 0.451901
vt 0.250000 0.439974
vt 0.352707 0.409816
vt 0.878997 0.450722
vt 0.934182 0.334113
vt 0.468312 0.349700
vt 0.422806 0.328918
vt 0.986171 0.216044
vt 0.967037 0.349118
vt 0.438040 0.222964
vt 0.487557 0.215844
vt 0.930321 0.093751
vt 0.950419 0.221184
vt 0.393572 0.125594
vt 0.431380 0.092833
vt 0.817221 0.021066
vt 0.903024 0.117404
vt 0.303522 0.067722
vt 0.317616 0.019722
vt 0.682779 0.021066
vt 0.807045 0.055722
vt 0.196478 0.067722
vt 0.182384 0.019722
vt 0.569679 0.093751
vt 0.692955 0.055722
vt 0.068620 0.092833
vt 0.106428 0.125594
vt 0.513830 0.216044
vt 0.596976 0.117404
vt 0.061960 0.222964
vt 0.012443 0.215844
vt 0.565818 0.334113
vt 0.549581 0.221184
vt 0.077194 0.328918
vt 0.031688 0.349700
vt 0.621004 0.450722
vt 0.532963 0.349118
vt 0.147293 0.409816
vt 0.120246 0.451901
vt 0.640531 0.420337
vt 0.250000 0.490000
vt 1.000000 0.852924
vt 0.909091 0.647076
vt 1.000000 0.647076
vt 0.090909 0.647076
vt -0.000000 0.852924
vt -0.000000 0.647076
vt 0.909091 0.852924
vt 0.818182 0.647076
vt 0.818182 0.852924
vt 0.727273 0.647076
vt 0.727273 0.852924
vt 0.636363 0.647076
vt 0.636363 0.852924
vt 0.545454 0.647076
vt 0.454545 0.852924
vt 0.454545 0.647076
vt 0.363636 0.852924
vt 0.363636 0.647076
vt 0.272727 0.852924
vt 0.272727 0.647076
vt 0.181818 0.852924
vt 0.181818 0.647076
vt 0.000000 0.963788
vt 0.900000 0.963461
vt 0.000000 0.968263
vt 0.900000 0.967977
vt 0.090909 0.852924
vt 0.545454 0.852924
s 0
usemtl moss
f 1/1/1 2/2/1 3/3/1
f 4/4/2 5/5/2 6/6/2
f 7/7/3 8/8/3 9/9/3
f 10/10/4 11/11/4 12/12/4
f 13/13/5 14/14/5 15/15/5
f 16/16/6 17/17/6 18/18/6
f 19/19/7 20/20/7 21/21/7
f 22/22/8 23/23/8 24/24/8
f 1/1/9 8/8/9 7/7/9
f 4/25/10 3/26/10 2/27/10
f 5/28/11 12/12/11 6/29/11
f 9/30/12 12/12/12 11/11/12
f 7/7/13 20/20/13 19/19/13
f 22/22/14 11/11/14 10/10/14
f 23/23/15 20/20/15 24/24/15
f 19/19/16 14/14/16 13/13/16
f 16/16/17 23/23/17 22/22/17
f 15/15/18 18/18/18 17/17/18
f 1/1/19 15/15/19 2/2/19
f 16/16/20 4/4/20 17/17/20
f 19/19/21 1/1/21 7/7/21
f 6/29/22 8/31/22 3/26/22
f 15/15/23 4/4/23 2/32/23
f 10/33/24 16/16/24 22/22/24
f 11/11/25 20/20/25 9/30/25
f 23/23/26 14/14/26 21/21/26
f 25/1/27 26/2/27 27/3/27
f 28/4/28 29/5/28 30/6/28
f 31/7/29 32/8/29 33/9/29
f 34/10/30 35/11/30 36/12/30
f 37/13/31 38/14/31 39/15/31
f 40/16/32 41/17/32 42/18/32
f 43/19/33 44/20/33 45/21/33
f 46/22/34 47/23/34 48/24/34
f 25/1/35 32/8/35 31/7/35
f 28/25/36 27/26/36 26/27/36
f 34/10/37 30/29/37 29/28/37
f 35/11/38 32/31/38 36/12/38
f 31/7/39 44/20/39 43/19/39
f 46/22/40 35/11/40 34/10/40
f 47/23/41 44/20/41 48/24/41
f 43/19/42 38/14/42 37/13/42
f 46/22/43 42/18/43 47/23/43
f 39/15/44 42/18/44 41/17/44
f 37/13/45 26/2/45 25/1/45
f 40/16/46 28/4/46 41/17/46
f 43/19/47 25/1/47 31/7/47
f 30/29/48 32/31/48 27/26/48
f 41/17/49 26/32/49 39/15/49
f 46/22/50 29/34/50 40/16/50
f 33/30/51 48/24/51 44/20/51
f 47/23/52 38/14/52 45/21/52
f 49/35/53 50/2/53 51/3/53
f 52/4/54 53/5/54 54/6/54
f 55/7/55 56/8/55 57/9/55
f 58/10/56 59/11/56 60/36/56
f 61/13/57 62/14/57 63/15/57
f 64/16/58 65/17/58 66/18/58
f 67/19/59 68/37/59 69/21/59
f 70/22/60 71/23/60 72/38/60
f 55/7/61 51/3/61 56/8/61
f 50/27/62 54/29/62 51/26/62
f 58/10/63 54/29/63 53/28/63
f 59/11/64 56/31/64 60/36/64
f 55/7/65 68/37/65 67/19/65
f 58/10/66 72/38/66 59/11/66
f 69/21/67 72/38/67 71/23/67
f 67/19/68 62/14/68 61/13/68
f 64/16/69 71/23/69 70/22/69
f 65/17/70 62/14/70 66/18/70
f 61/13/71 50/2/71 49/35/71
f 64/16/72 52/4/72 65/17/72
f 55/7/73 61/13/73 49/35/73
f 51/26/74 60/36/74 56/31/74
f 65/17/75 50/32/75 63/15/75
f 58/33/76 64/16/76 70/22/76
f 59/11/77 68/37/77 57/30/77
f 71/23/78 62/14/78 69/21/78
f 73/35/79 74/2/79 75/3/79
f 76/4/80 77/5/80 78/6/80
f 79/39/81 80/8/81 81/9/81
f 82/10/82 83/11/82 84/36/82
f 85/13/83 86/40/83 87/15/83
f 88/16/84 89/17/84 90/18/84
f 91/19/85 92/37/85 93/21/85
f 94/22/86 95/23/86 96/38/86
f 73/35/87 80/8/87 79/39/87
f 76/25/88 75/26/88 74/27/88
f 77/28/89 84/36/89 78/29/89
f 83/11/90 80/31/90 84/36/90
f 79/39/91 92/37/91 91/19/91
f 94/22/92 83/11/92 82/10/92
f 93/21/93 96/38/93 95/23/93
f 85/13/94 93/21/94 86/40/94
f 94/22/95 90/18/95 95/23/95
f 87/15/96 90/18/96 89/17/96
f 85/13/97 74/2/97 73/35/97
f 77/5/98 89/17/98 88/16/98
f 79/39/99 85/13/99 73/35/99
f 75/26/100 84/36/100 80/31/100
f 89/17/101 74/32/101 87/15/101
f 82/33/102 88/16/102 94/22/102
f 83/11/103 92/37/103 81/30/103
f 95/23/104 86/40/104 93/21/104
f 97/41/105 98/2/105 99/3/105
f 100/4/106 101/5/106 102/6/106
f 103/7/107 104/8/107 105/9/107
f 106/10/108 107/11/108 108/12/108
f 109/13/109 110/14/109 111/15/109
f 112/16/110 113/17/110 114/18/110
f 115/19/111 116/37/111 117/21/111
f 118/22/112 119/23/112 120/24/112
f 97/41/113 104/8/113 103/7/113
f 100/25/114 99/26/114 98/27/114
f 101/28/115 108/12/115 102/29/115
f 107/11/116 104/31/116 108/12/116
f 103/7/117 116/37/117 115/19/117
f 118/22/118 107/11/118 106/10/118
f 117/21/119 120/24/119 119/23/119
f 115/19/120 110/14/120 109/13/120
f 118/22/121 114/18/121 119/23/121
f 111/15/122 114/18/122 113/17/122
f 97/41/123 111/15/123 98/2/123
f 101/5/124 113/17/124 112/16/124
f 115/19/125 97/41/125 103/7/125
f 102/29/126 104/31/126 99/26/126
f 113/17/127 98/32/127 111/15/127
f 118/22/128 101/34/128 112/16/128
f 107/11/129 116/37/129 105/30/129
f 119/23/130 110/14/130 117/21/130
f 121/1/131 122/2/131 123/3/131
f 124/4/132 125/5/132 126/6/132
f 127/7/133 128/8/133 129/9/133
f 130/10/134 131/11/134 132/12/134
f 133/13/135 134/14/135 135/15/135
f 136/16/136 137/17/136 138/18/136
f 139/19/137 140/37/137 141/21/137
f 142/22/138 143/23/138 144/24/138
f 121/1/139 128/8/139 127/7/139
f 124/25/140 123/26/140 122/27/140
f 130/10/141 126/29/141 125/28/141
f 129/30/142 132/12/142 131/11/142
f 139/19/143 129/9/143 140/37/143
f 130/10/144 144/24/144 131/11/144
f 143/23/145 140/37/145 144/24/145
f 139/19/146 134/14/146 133/13/146
f 142/22/147 138/18/147 143/23/147
f 137/17/148 134/14/148 138/18/148
f 121/1/149 135/15/149 122/2/149
f 125/5/150 137/17/150 136/16/150
f 127/7/151 133/13/151 121/1/151
f 126/29/152 128/31/152 123/26/152
f 137/17/153 122/32/153 135/15/153
f 130/33/154 136/16/154 142/22/154
f 131/11/155 140/37/155 129/30/155
f 143/23/156 134/14/156 141/21/156
f 1/1/9 3/3/9 8/8/9
f 4/25/10 6/29/10 3/26/10
f 5/28/11 10/10/11 12/12/11
f 9/30/12 8/31/12 12/12/12
f 7/7/13 9/9/13 20/20/13
f 22/22/14 24/24/14 11/11/14
f 23/23/15 21/21/15 20/20/15
f 19/19/16 21/21/16 14/14/16
f 16/16/17 18/18/17 23/23/17
f 15/15/18 14/14/18 18/18/18
f 1/1/19 13/13/19 15/15/19
f 16/16/20 5/5/20 4/4/20
f 19/19/21 13/13/21 1/1/21
f 6/29/22 12/12/22 8/31/22
f 15/15/23 17/17/23 4/4/23
f 10/33/24 5/34/24 16/16/24
f 11/11/25 24/24/25 20/20/25
f 23/23/26 18/18/26 14/14/26
f 25/1/35 27/3/35 32/8/35
f 28/25/36 30/29/36 27/26/36
f 34/10/37 36/12/37 30/29/37
f 35/11/38 33/30/38 32/31/38
f 31/7/39 33/9/39 44/20/39
f 46/22/40 48/24/40 35/11/40
f 47/23/41 45/21/41 44/20/41
f 43/19/42 45/21/42 38/14/42
f 46/22/43 40/16/43 42/18/43
f 39/15/44 38/14/44 42/18/44
f 37/13/256 39/15/256 26/2/256
f 40/16/46 29/5/46 28/4/46
f 43/19/47 37/13/47 25/1/47
f 30/29/48 36/12/48 32/31/48
f 41/17/49 28/4/49 26/32/49
f 46/22/50 34/33/50 29/34/50
f 33/30/51 35/11/51 48/24/51
f 47/23/52 42/18/52 38/14/52
f 55/7/61 49/35/61 51/3/61
f 50/27/257 52/25/257 54/29/257
f 58/10/63 60/36/63 54/29/63
f 59/11/64 57/30/64 56/31/64
f 55/7/65 57/9/65 68/37/65
f 58/10/258 70/22/258 72/38/258
f 69/21/259 68/37/259 72/38/259
f 67/19/68 69/21/68 62/14/68
f 64/16/69 66/18/69 71/23/69
f 65/17/70 63/15/70 62/14/70
f 61/13/260 63/15/260 50/2/260
f 64/16/261 53/5/261 52/4/261
f 55/7/73 67/19/73 61/13/73
f 51/26/74 54/29/74 60/36/74
f 65/17/75 52/4/75 50/32/75
f 58/33/76 53/34/76 64/16/76
f 59/11/77 72/38/77 68/37/77
f 71/23/78 66/18/78 62/14/78
f 73/35/87 75/3/87 80/8/87
f 76/25/88 78/29/88 75/26/88
f 77/28/89 82/10/89 84/36/89
f 83/11/262 81/30/262 80/31/262
f 79/39/91 81/9/91 92/37/91
f 94/22/92 96/38/92 83/11/92
f 93/21/93 92/37/93 96/38/93
f 85/13/94 91/19/94 93/21/94
f 94/22/95 88/16/95 90/18/95
f 87/15/96 86/40/96 90/18/96
f 85/13/97 87/15/97 74/2/97
f 77/5/98 76/4/98 89/17/98
f 79/39/99 91/19/99 85/13/99
f 75/26/100 78/29/100 84/36/100
f 89/17/101 76/4/101 74/32/101
f 82/33/102 77/34/102 88/16/102
f 83/11/103 96/38/103 92/37/103
f 95/23/104 90/18/104 86/40/104
f 97/41/113 99/3/113 104/8/113
f 100/25/114 102/29/114 99/26/114
f 101/28/115 106/10/115 108/12/115
f 107/11/116 105/30/116 104/31/116
f 103/7/117 105/9/117 116/37/117
f 118/22/118 120/24/118 107/11/118
f 117/21/119 116/37/119 120/24/119
f 115/19/120 117/21/120 110/14/120
f 118/22/121 112/16/121 114/18/121
f 111/15/122 110/14/122 114/18/122
f 97/41/123 109/13/123 111/15/123
f 101/5/263 100/4/263 113/17/263
f 115/19/125 109/13/125 97/41/125
f 102/29/126 108/12/126 104/31/126
f 113/17/127 100/4/127 98/32/127
f 118/22/128 106/33/128 101/34/128
f 107/11/129 120/24/129 116/37/129
f 119/23/130 114/18/130 110/14/130
f 121/1/139 123/3/139 128/8/139
f 124/25/140 126/29/140 123/26/140
f 130/10/141 132/12/141 126/29/141
f 129/30/142 128/31/142 132/12/142
f 139/19/143 127/7/143 129/9/143
f 130/10/144 142/22/144 144/24/144
f 143/23/145 141/21/145 140/37/145
f 139/19/146 141/21/146 134/14/146
f 142/22/147 136/16/147 138/18/147
f 137/17/148 135/15/148 134/14/148
f 121/1/149 133/13/149 135/15/149
f 125/5/150 124/4/150 137/17/150
f 127/7/151 139/19/151 133/13/151
f 126/29/152 132/12/152 128/31/152
f 137/17/153 124/4/153 122/32/153
f 130/33/154 125/34/154 136/16/154
f 131/11/155 144/24/155 140/37/155
f 143/23/156 138/18/156 134/14/156
usemtl bark
f 145/42/157 146/43/157 147/44/157
f 148/45/158 149/46/158 150/47/158
f 151/48/159 152/49/159 153/50/159
f 154/51/160 155/52/160 156/53/160
f 157/54/161 158/55/161 159/56/161
f 160/57/162 161/58/162 162/59/162
f 163/60/163 164/61/163 165/62/163
f 166/63/164 167/64/164 168/65/164
f 169/66/165 170/67/165 171/68/165
f 172/69/166 173/70/166 174/71/166
f 152/49/167 145/42/167 147/44/167
f 156/53/168 148/45/168 154/51/168
f 150/72/169 147/73/169 146/74/169
f 155/75/170 152/76/170 156/77/170
f 158/55/171 151/48/171 153/50/171
f 162/59/172 154/51/172 160/57/172
f 161/78/173 158/79/173 162/80/173
f 159/56/174 163/60/174 157/54/174
f 168/65/175 160/57/175 166/63/175
f 165/81/176 168/82/176 167/83/176
f 170/67/177 163/60/177 165/62/177
f 174/71/178 166/63/178 172/69/178
f 171/84/179 174/85/179 173/86/179
f 171/68/180 145/42/180 169/66/180
f 150/47/181 172/69/181 148/45/181
f 151/48/182 163/60/182 169/66/182
f 147/87/183 156/77/183 152/76/183
f 171/84/184 150/72/184 146/74/184
f 148/45/185 166/63/185 160/57/185
f 153/88/186 162/80/186 158/79/186
f 159/89/187 168/82/187 164/90/187
f 165/81/188 174/85/188 170/91/188
f 175/92/189 176/93/189 177/94/189
f 178/95/190 179/96/190 180/97/190
f 181/98/191 182/99/191 183/100/191
f 184/101/192 185/102/192 186/103/192
f 187/104/193 188/105/193 189/106/193
f 190/107/194 191/108/194 192/109/194
f 193/110/195 194/111/195 195/112/195
f 196/113/196 197/114/196 198/108/196
f 199/115/197 200/116/197 201/117/197
f 202/118/198 203/119/198 204/120/198
f 177/94/199 181/98/199 175/92/199
f 186/103/200 178/95/200 184/101/200
f 180/121/201 177/122/201 176/123/201
f 183/124/202 186/125/202 185/126/202
f 188/105/203 181/98/203 183/100/203
f 192/109/204 184/101/204 190/107/204
f 191/127/205 188/128/205 192/126/205
f 194/111/206 187/104/206 189/106/206
f 198/108/207 190/107/207 196/113/207
f 197/129/208 194/130/208 198/127/208
f 200/116/209 193/110/209 195/112/209
f 204/120/210 196/113/210 202/118/210
f 201/131/211 204/132/211 203/133/211
f 201/117/212 175/92/212 199/115/212
f 180/97/213 202/118/213 178/95/213
f 181/98/214 193/110/214 199/115/214
f 177/134/215 186/125/215 182/135/215
f 201/131/216 180/121/216 176/123/216
f 178/95/217 196/113/217 190/107/217
f 183/124/218 192/126/218 188/128/218
f 189/136/219 198/127/219 194/130/219
f 195/137/220 204/132/220 200/138/220
f 152/49/167 151/48/167 145/42/167
f 156/53/264 149/46/264 148/45/264
f 150/72/169 149/205/169 147/73/169
f 155/75/170 153/88/170 152/76/170
f 158/55/171 157/54/171 151/48/171
f 162/59/265 155/52/265 154/51/265
f 161/78/173 159/89/173 158/79/173
f 159/56/174 164/61/174 163/60/174
f 168/65/266 161/58/266 160/57/266
f 165/81/176 164/90/176 168/82/176
f 170/67/177 169/66/177 163/60/177
f 174/71/267 167/64/267 166/63/267
f 171/84/179 170/91/179 174/85/179
f 171/68/180 146/43/180 145/42/180
f 150/47/268 173/70/268 172/69/268
f 169/66/182 145/42/182 151/48/182
f 151/48/182 157/54/182 163/60/182
f 147/87/269 149/206/269 156/77/269
f 171/84/270 173/86/270 150/72/270
f 160/57/271 154/51/271 148/45/271
f 148/45/185 172/69/185 166/63/185
f 153/88/272 155/75/272 162/80/272
f 159/89/273 161/78/273 168/82/273
f 165/81/267 167/83/267 174/85/267
f 177/94/199 182/99/199 181/98/199
f 186/103/267 179/96/267 178/95/267
f 180/121/201 179/207/201 177/122/201
f 183/124/202 182/135/202 186/125/202
f 188/105/203 187/104/203 181/98/203
f 192/109/266 185/102/266 184/101/266
f 191/127/205 189/136/205 188/128/205
f 194/111/206 193/110/206 187/104/206
f 198/108/267 191/108/267 190/107/267
f 197/129/208 195/137/208 194/130/208
f 200/116/209 199/115/209 193/110/209
f 204/120/274 197/114/274 196/113/274
f 201/131/211 200/138/211 204/132/211
f 201/117/212 176/93/212 175/92/212
f 180/97/267 203/119/267 202/118/267
f 199/115/214 175/92/214 181/98/214
f 181/98/214 187/104/214 193/110/214
f 177/134/267 179/208/267 186/125/267
f 201/131/267 203/133/267 180/121/267
f 190/107/217 184/101/217 178/95/217
f 178/95/217 202/118/217 196/113/217
f 183/124/275 185/126/275 192/126/275
f 189/136/267 191/127/267 198/127/267
f 195/137/267 197/129/267 204/132/267
usemtl bloom
f 206/139/221 209/140/221 205/141/221
f 212/142/222 207/143/222 211/144/222
f 210/145/223 213/146/223 209/140/223
f 216/147/224 211/144/224 215/148/224
f 218/149/225 213/146/225 214/150/225
f 216/147/226 219/151/226 220/152/226
f 222/153/227 217/154/227 218/149/227
f 220/152/228 223/155/228 224/156/228
f 226/157/229 221/158/229 222/153/229
f 224/156/230 227/159/230 228/160/230
f 230/161/231 225/162/231 226/157/231
f 228/160/232 231/163/232 232/164/232
f 234/165/233 229/166/233 230/161/233
f 236/167/234 231/163/234 235/168/234
f 238/169/235 233/170/235 234/165/235
f 236/167/236 239/171/236 240/172/236
f 238/169/237 241/173/237 237/174/237
f 240/172/238 243/175/238 244/176/238
f 246/177/239 241/173/239 242/178/239
f 244/176/240 247/179/240 248/180/240
f 206/139/241 245/181/241 246/177/241
f 248/180/242 207/143/242 208/182/242
f 209/140/243 225/162/243 241/173/243
f 208/183/244 210/184/244 206/185/244
f 246/186/245 208/187/245 206/188/245
f 207/143/246 235/168/246 219/151/246
f 212/189/247 214/190/247 210/184/247
f 216/191/248 218/192/248 214/190/248
f 220/193/249 222/194/249 218/192/249
f 224/195/250 226/196/250 222/194/250
f 226/196/251 232/197/251 230/198/251
f 230/198/252 236/199/252 234/200/252
f 234/200/253 240/201/253 238/202/253
f 238/202/254 244/203/254 242/204/254
f 244/203/255 246/186/255 242/204/255
f 206/139/221 210/145/221 209/140/221
f 212/142/222 208/182/222 207/143/222
f 210/145/223 214/150/223 213/146/223
f 216/147/224 212/142/224 211/144/224
f 218/149/225 217/154/225 213/146/225
f 216/147/226 215/148/226 219/151/226
f 222/153/227 221/158/227 217/154/227
f 220/152/228 219/151/228 223/155/228
f 226/157/229 225/162/229 221/158/229
f 224/156/230 223/155/230 227/159/230
f 230/161/231 229/166/231 225/162/231
f 228/160/232 227/159/232 231/163/232
f 234/165/233 233/170/233 229/166/233
f 236/167/234 232/164/234 231/163/234
f 238/169/235 237/174/235 233/170/235
f 236/167/236 235/168/236 239/171/236
f 238/169/237 242/178/237 241/173/237
f 240/172/238 239/171/238 243/175/238
f 246/177/239 245/181/239 241/173/239
f 244/176/240 243/175/240 247/179/240
f 206/139/241 205/141/241 245/181/241
f 248/180/242 247/179/242 207/143/242
f 245/181/243 205/141/243 209/140/243
f 209/140/243 213/146/243 217/154/243
f 217/154/243 221/158/243 225/162/243
f 225/162/243 229/166/243 233/170/243
f 233/170/243 237/174/243 241/173/243
f 241/173/243 245/181/243 209/140/243
f 209/140/243 217/154/243 225/162/243
f 225/162/243 233/170/243 241/173/243
f 208/183/244 212/189/244 210/184/244
f 246/186/245 248/209/245 208/187/245
f 215/148/246 211/144/246 207/143/246
f 207/143/246 247/179/246 243/175/246
f 243/175/246 239/171/246 235/168/246
f 235/168/246 231/163/246 227/159/246
f 227/159/246 223/155/246 219/151/246
f 219/151/246 215/148/246 207/143/246
f 207/143/246 243/175/246 235/168/246
f 235/168/246 227/159/246 219/151/246
f 212/189/247 216/191/247 214/190/247
f 216/191/248 220/193/248 218/192/248
f 220/193/249 224/195/249 222/194/249
f 224/195/250 228/210/250 226/196/250
f 226/196/251 228/210/251 232/197/251
f 230/198/252 232/197/252 236/199/252
f 234/200/253 236/199/253 240/201/253
f 238/202/254 240/201/254 244/203/254
f 244/203/255 248/209/255 246/186/255
