# Blender 4.5.10 LTS
# www.blender.org
mtllib thicket_mushroom.mtl
o mushroom_cluster
v 0.000130 0.000553 0.004548
v 0.005067 0.006948 0.007321
v -0.004640 0.006948 0.007599
v -0.000028 0.035138 -0.000981
v -0.004744 0.029681 0.003964
v 0.004963 0.029681 0.003687
v -0.004317 0.000171 0.001530
v -0.006157 0.006818 0.006569
v -0.009419 0.005704 -0.002509
v -0.003195 0.034866 -0.003130
v -0.008681 0.028509 -0.005572
v -0.005419 0.029623 0.003506
v -0.002798 -0.000447 -0.003603
v -0.008900 0.005493 -0.004260
v -0.001210 0.004805 -0.010148
v -0.002113 0.034426 -0.006784
v -0.000759 0.027727 -0.012240
v -0.008450 0.028415 -0.006351
v 0.002588 -0.000447 -0.003757
v 0.000628 0.004805 -0.010201
v 0.008642 0.005493 -0.004762
v 0.001722 0.034426 -0.006894
v 0.008073 0.028415 -0.006824
v 0.000058 0.027727 -0.012263
v 0.004398 0.000171 0.001281
v 0.009260 0.005704 -0.003044
v 0.006522 0.006818 0.006206
v 0.003011 0.034866 -0.003307
v 0.005611 0.029623 0.003191
v 0.008348 0.028509 -0.006059
v -0.000291 0.032490 -0.000196
v 0.004128 0.038539 0.002631
v -0.004965 0.038539 0.002187
v 0.000013 0.066955 -0.006422
v -0.004758 0.061932 -0.002038
v 0.004334 0.061932 -0.001594
v -0.003707 0.032127 -0.002916
v -0.005786 0.038452 0.001533
v -0.008177 0.037233 -0.007165
v -0.002193 0.066721 -0.008178
v -0.007150 0.060713 -0.010737
v -0.004758 0.061932 -0.002038
v -0.002154 0.031541 -0.006970
v -0.007804 0.037092 -0.008140
v -0.000189 0.036339 -0.013072
v -0.001190 0.066342 -0.010797
v 0.000465 0.059960 -0.015669
v -0.007150 0.060713 -0.010737
v 0.002223 0.031541 -0.006756
v 0.000863 0.036339 -0.013021
v 0.007960 0.037092 -0.007370
v 0.001637 0.066342 -0.010659
v 0.007562 0.060713 -0.010019
v 0.000465 0.059960 -0.015669
v 0.003374 0.032127 -0.002570
v 0.008237 0.037233 -0.006364
v 0.005009 0.038452 0.002061
v 0.002380 0.066721 -0.007955
v 0.004334 0.061932 -0.001594
v 0.007562 0.060713 -0.010019
v 0.030952 0.068772 0.025784
v 0.031888 0.072962 0.027020
v 0.010137 0.092183 0.005348
v 0.017980 0.088603 0.013366
v 0.009913 0.067493 0.034974
v 0.009760 0.071617 0.036685
v 0.006623 0.091970 0.006883
v 0.007562 0.087970 0.017917
v -0.012094 0.066061 0.028466
v -0.013385 0.070111 0.029840
v 0.002947 0.091731 0.005796
v -0.003336 0.087261 0.014694
v -0.024772 0.065146 0.009305
v -0.026719 0.069148 0.009688
v 0.000829 0.091578 0.002595
v -0.009615 0.086808 0.005205
v -0.022188 0.065175 -0.013544
v -0.024002 0.069179 -0.014342
v 0.001260 0.091582 -0.001221
v -0.008335 0.086822 -0.006109
v -0.005552 0.066135 -0.029388
v -0.006505 0.070189 -0.031006
v 0.004039 0.091743 -0.003868
v -0.000097 0.087298 -0.013956
v 0.017352 0.067577 -0.030815
v 0.017584 0.071706 -0.032507
v 0.007865 0.091984 -0.004106
v 0.011245 0.088012 -0.014662
v 0.035807 0.068826 -0.017157
v 0.036994 0.073019 -0.018142
v 0.010948 0.092192 -0.001825
v 0.020385 0.088630 -0.007899
v 0.041179 0.069298 0.005196
v 0.042643 0.073515 0.005367
v 0.011845 0.092271 0.001909
v 0.023044 0.088864 0.003171
v -0.052731 0.000487 0.022848
v -0.047280 0.006827 0.021990
v -0.054784 0.006827 0.027969
v -0.055461 0.024115 0.019421
v -0.056167 0.018793 0.026234
v -0.048663 0.018793 0.020255
v -0.057031 0.000150 0.023057
v -0.055502 0.006771 0.028004
v -0.063457 0.005561 0.022778
v -0.058345 0.023889 0.019562
v -0.064122 0.017584 0.021008
v -0.056167 0.018793 0.026234
v -0.058524 -0.000394 0.019042
v -0.063706 0.005470 0.022108
v -0.061119 0.004722 0.012899
v -0.059346 0.023524 0.016869
v -0.061535 0.016836 0.011799
v -0.064122 0.017584 0.021008
v -0.055147 -0.000394 0.016351
v -0.060555 0.004723 0.012450
v -0.051001 0.005470 0.011985
v -0.057081 0.023524 0.015065
v -0.051980 0.017584 0.011333
v -0.061535 0.016836 0.011799
v -0.051567 0.000150 0.018703
v -0.050403 0.005561 0.012377
v -0.047086 0.006771 0.021299
v -0.054680 0.023889 0.016642
v -0.048663 0.018793 0.020255
v -0.051980 0.017584 0.011333
v -0.054785 0.022421 0.020339
v -0.050091 0.028040 0.019531
v -0.056735 0.028040 0.024685
v -0.057859 0.045923 0.016377
v -0.058479 0.041376 0.022437
v -0.051835 0.041376 0.017283
v -0.058726 0.022051 0.020487
v -0.057538 0.027964 0.024715
v -0.064431 0.026691 0.020070
v -0.060384 0.045685 0.016472
v -0.065372 0.040103 0.017791
v -0.058479 0.041376 0.022437
v -0.060038 0.021451 0.016799
v -0.064698 0.026569 0.019318
v -0.062314 0.025783 0.011293
v -0.061225 0.045301 0.014109
v -0.062987 0.039317 0.009766
v -0.065372 0.040103 0.017791
v -0.056909 0.021451 0.014371
v -0.061676 0.025783 0.010798
v -0.053310 0.026569 0.010483
v -0.059219 0.045301 0.012553
v -0.054621 0.040103 0.009452
v -0.062987 0.039317 0.009766
v -0.053662 0.022051 0.016559
v -0.052648 0.026691 0.010929
v -0.049862 0.027964 0.018760
v -0.057139 0.045685 0.013955
v -0.051835 0.041376 0.017283
v -0.054621 0.040103 0.009452
v -0.041001 0.042746 0.001037
v -0.040151 0.046949 -0.000219
v -0.056172 0.060721 0.017979
v -0.048825 0.057226 0.009468
v -0.032609 0.043025 0.015631
v -0.031166 0.047247 0.015407
v -0.055178 0.060754 0.019707
v -0.044070 0.057384 0.017737
v -0.035537 0.042536 0.032205
v -0.034301 0.046724 0.033151
v -0.055525 0.060696 0.021670
v -0.045729 0.057107 0.027128
v -0.048416 0.041507 0.043003
v -0.048089 0.045622 0.044712
v -0.057050 0.060575 0.022948
v -0.053026 0.056524 0.033245
v -0.065218 0.040421 0.042973
v -0.066078 0.044459 0.044679
v -0.059040 0.060446 0.022945
v -0.062546 0.055908 0.033228
v -0.078083 0.039784 0.032128
v -0.079851 0.043777 0.033069
v -0.060563 0.060371 0.021661
v -0.069834 0.055548 0.027084
v -0.080990 0.039896 0.015544
v -0.082964 0.043897 0.015313
v -0.060907 0.060384 0.019697
v -0.071482 0.055611 0.017688
v -0.072579 0.040704 0.000980
v -0.073959 0.044762 -0.000280
v -0.059911 0.060479 0.017972
v -0.066716 0.056069 0.009436
v -0.056786 0.041829 -0.004750
v -0.057051 0.045967 -0.006414
v -0.058041 0.060613 0.017293
v -0.057768 0.056707 0.006190
v -0.016789 0.000692 0.058412
v -0.014253 0.006646 0.054321
v -0.015370 0.006646 0.063012
v -0.021793 0.019042 0.057770
v -0.017526 0.014554 0.062735
v -0.016410 0.014554 0.054044
v -0.019409 0.000214 0.061250
v -0.015745 0.006577 0.063418
v -0.024173 0.004836 0.065065
v -0.023543 0.018723 0.059664
v -0.025954 0.012813 0.064382
v -0.017526 0.014554 0.062735
v -0.022846 -0.000560 0.059596
v -0.024665 0.004726 0.064829
v -0.028757 0.003650 0.057156
v -0.025837 0.018207 0.058560
v -0.030047 0.011737 0.056709
v -0.025954 0.012813 0.064382
v -0.022350 -0.000560 0.055736
v -0.028686 0.003650 0.056603
v -0.022788 0.004726 0.050214
v -0.025506 0.018207 0.055983
v -0.024148 0.012813 0.050320
v -0.030047 0.011737 0.056709
v -0.018607 0.000214 0.055005
v -0.022252 0.004836 0.050109
v -0.014514 0.006577 0.053833
v -0.023007 0.018723 0.055494
v -0.016410 0.014554 0.054044
v -0.024148 0.012813 0.050320
v -0.020731 0.017926 0.057947
v -0.018808 0.023250 0.054343
v -0.019892 0.023250 0.061945
v -0.026930 0.035898 0.057063
v -0.023000 0.032258 0.061502
v -0.021916 0.032258 0.053900
v -0.023136 0.017351 0.060522
v -0.020329 0.023145 0.062412
v -0.027618 0.021145 0.063770
v -0.028464 0.035532 0.058705
v -0.030288 0.030258 0.062860
v -0.023000 0.032258 0.061502
v -0.026214 0.016421 0.058968
v -0.028176 0.020976 0.063488
v -0.031597 0.019740 0.056725
v -0.030427 0.034938 0.057715
v -0.033709 0.029022 0.056097
v -0.030288 0.030258 0.062860
v -0.025710 0.016421 0.055434
v -0.031506 0.019740 0.056083
v -0.026331 0.020976 0.050546
v -0.030105 0.034938 0.055460
v -0.028534 0.030258 0.050559
v -0.033709 0.029022 0.056097
v -0.022321 0.017351 0.054803
v -0.025716 0.021145 0.050431
v -0.019097 0.023145 0.053772
v -0.027944 0.035532 0.055058
v -0.021916 0.032258 0.053900
v -0.028534 0.030258 0.050559
v -0.014358 0.029633 0.082780
v -0.013997 0.033715 0.084558
v -0.018621 0.046083 0.065393
v -0.016083 0.041766 0.076049
v -0.027679 0.029558 0.081172
v -0.028498 0.033634 0.082807
v -0.019582 0.046077 0.065277
v -0.024535 0.041719 0.075028
v -0.036850 0.029687 0.071379
v -0.038483 0.033775 0.072147
v -0.020244 0.046087 0.064570
v -0.030355 0.041801 0.068815
v -0.037582 0.029959 0.057984
v -0.039279 0.034071 0.057565
v -0.020296 0.046106 0.063604
v -0.030819 0.041973 0.060315
v -0.029530 0.030247 0.047255
v -0.030514 0.034384 0.045884
v -0.019716 0.046127 0.062830
v -0.025710 0.042156 0.053507
v -0.016464 0.030416 0.044211
v -0.016289 0.034567 0.042571
v -0.018773 0.046139 0.062610
v -0.017419 0.042263 0.051576
v -0.004496 0.030387 0.050278
v -0.003260 0.034536 0.049175
v -0.017910 0.046137 0.063048
v -0.009825 0.042244 0.055425
v 0.000773 0.030173 0.062615
v 0.002476 0.034304 0.062606
v -0.017530 0.046122 0.063938
v -0.006482 0.042109 0.063254
v -0.003122 0.029876 0.075451
v -0.001764 0.033980 0.076580
v -0.017811 0.046100 0.064864
v -0.008953 0.041920 0.071399
v 0.047415 0.000683 0.028480
v 0.046664 0.006107 0.024257
v 0.050898 0.006107 0.030982
v 0.043843 0.014068 0.030729
v 0.049826 0.010123 0.031657
v 0.045592 0.010123 0.024932
v 0.047233 0.000211 0.031891
v 0.050880 0.006059 0.031328
v 0.045968 0.004300 0.037323
v 0.043722 0.013755 0.032989
v 0.044914 0.008364 0.037652
v 0.049826 0.010123 0.031657
v 0.043965 -0.000552 0.032689
v 0.045637 0.004223 0.037403
v 0.038366 0.003136 0.034383
v 0.041557 0.013250 0.033518
v 0.037644 0.007277 0.034632
v 0.044914 0.008364 0.037652
v 0.042128 -0.000552 0.029771
v 0.038180 0.003136 0.034088
v 0.038599 0.004223 0.026226
v 0.040340 0.013250 0.031584
v 0.038063 0.008364 0.026770
v 0.037644 0.007277 0.034632
v 0.044259 0.000211 0.027169
v 0.038815 0.004300 0.025962
v 0.046344 0.006059 0.024124
v 0.041752 0.013755 0.029860
v 0.045592 0.010123 0.024932
v 0.038063 0.008364 0.026770
v 0.044775 0.013242 0.030414
v 0.044302 0.018042 0.026743
v 0.047476 0.018042 0.032943
v 0.040613 0.026476 0.032545
v 0.045867 0.023157 0.033767
v 0.042693 0.023157 0.027567
v 0.044345 0.012748 0.033512
v 0.047415 0.017972 0.033383
v 0.042712 0.016211 0.038209
v 0.040341 0.026163 0.034504
v 0.041164 0.021396 0.038593
v 0.045867 0.023157 0.033767
v 0.041315 0.011947 0.033964
v 0.042282 0.016097 0.038274
v 0.036200 0.015008 0.035057
v 0.038425 0.025656 0.034790
v 0.035083 0.020308 0.035376
v 0.041164 0.021396 0.038593
v 0.039872 0.011947 0.031145
v 0.035995 0.015008 0.034656
v 0.036940 0.016097 0.027842
v 0.037512 0.025656 0.033008
v 0.036027 0.021396 0.028562
v 0.035083 0.020308 0.035376
v 0.042010 0.012748 0.028951
v 0.037244 0.016211 0.027530
v 0.043909 0.017972 0.026535
v 0.038864 0.026163 0.031620
v 0.042693 0.023157 0.027567
v 0.036027 0.021396 0.028562
v 0.052709 0.024678 0.008547
v 0.052954 0.028830 0.007087
v 0.048743 0.036820 0.023462
v 0.051462 0.033399 0.012698
v 0.061077 0.024726 0.014124
v 0.062298 0.028883 0.013314
v 0.048743 0.036820 0.023462
v 0.057657 0.033434 0.016827
v 0.063911 0.024353 0.023764
v 0.065463 0.028467 0.024079
v 0.048743 0.036820 0.023462
v 0.059756 0.033158 0.023965
v 0.059886 0.023734 0.032958
v 0.060969 0.027775 0.034346
v 0.048743 0.036820 0.023462
v 0.056776 0.032699 0.030773
v 0.050885 0.023158 0.037403
v 0.050917 0.027132 0.039310
v 0.048743 0.036820 0.023462
v 0.050111 0.032273 0.034064
v 0.041120 0.022895 0.035020
v 0.040012 0.026838 0.036649
v 0.048743 0.036820 0.023462
v 0.042880 0.032078 0.032300
v 0.035160 0.023068 0.026923
v 0.033356 0.027032 0.027607
v 0.048743 0.036820 0.023462
v 0.038467 0.032206 0.026305
v 0.035793 0.023596 0.016902
v 0.034064 0.027621 0.016416
v 0.048743 0.036820 0.023462
v 0.038936 0.032597 0.018884
v 0.042724 0.024232 0.009645
v 0.041803 0.028332 0.008312
v 0.048743 0.036820 0.023462
v 0.044068 0.033068 0.013511
vn 0.0260 -0.4145 0.9097
vn 0.0214 0.6611 0.7500
vn -0.8020 -0.4856 0.3477
vn -0.7786 0.5924 0.2071
vn -0.5192 -0.6007 -0.6080
vn -0.5053 0.4812 -0.7163
vn 0.4836 -0.6007 -0.6366
vn 0.4636 0.4812 -0.7440
vn 0.8206 -0.4856 0.3013
vn 0.7892 0.5924 0.1622
vn -0.4029 -0.6211 0.6722
vn -0.3956 0.7805 0.4841
vn 0.0282 0.1579 0.9870
vn -0.9414 0.0747 0.3290
vn -0.6863 -0.7179 -0.1167
vn -0.6705 0.6866 -0.2811
vn -0.6102 -0.0601 -0.7900
vn -0.0180 -0.7777 -0.6284
vn -0.0222 0.6286 -0.7774
vn 0.5641 -0.0601 -0.8235
vn 0.6785 -0.7179 -0.1557
vn 0.6533 0.6866 -0.3189
vn 0.9586 0.0747 0.2747
vn 0.4406 -0.6211 0.6481
vn 0.4226 0.7805 0.4607
vn 0.0034 -0.9927 0.1205
vn -0.5644 0.1278 0.8155
vn 0.6101 0.1278 0.7819
vn -0.0034 0.9927 -0.1205
vn -0.9591 -0.0070 -0.2830
vn -0.0285 -0.0903 -0.9955
vn 0.9414 -0.0070 -0.3373
vn -0.0448 -0.3959 0.9172
vn -0.0359 0.6762 0.7358
vn -0.8270 -0.4789 0.2945
vn -0.7917 0.5960 0.1342
vn -0.4713 -0.6132 -0.6340
vn -0.4480 0.4663 -0.7628
vn 0.5308 -0.6132 -0.5850
vn 0.5202 0.4663 -0.7155
vn 0.7944 -0.4789 0.3737
vn 0.7748 0.5960 0.2107
vn -0.4542 -0.6076 0.6515
vn -0.4310 0.7899 0.4361
vn -0.0480 0.1780 0.9829
vn -0.9639 0.0808 0.2537
vn -0.6759 -0.7205 -0.1548
vn -0.6461 0.6804 -0.3460
vn -0.5474 -0.0765 -0.8334
vn 0.0299 -0.7903 -0.6119
vn -0.0000 0.6247 -0.7809
vn 0.6260 -0.0765 -0.7761
vn 0.6878 -0.7205 -0.0882
vn -0.0000 0.9701 -0.2425
vn 0.9346 0.0808 0.3464
vn 0.3886 -0.6076 0.6927
vn 0.3865 0.7899 0.4761
vn -0.0069 -0.9900 0.1406
vn -0.6257 0.1440 0.7667
vn 0.5480 0.1440 0.8240
vn 0.0069 0.9900 -0.1406
vn -0.9344 -0.0133 -0.3561
vn 0.0485 -0.1105 -0.9927
vn 0.9646 -0.0133 -0.2633
vn 0.3937 -0.3398 0.8541
vn 0.0883 0.9389 0.3328
vn -0.2396 -0.3796 0.8936
vn -0.1631 0.9230 0.3484
vn -0.7498 -0.4142 0.5159
vn -0.3657 0.9093 0.1985
vn -0.8984 -0.4272 -0.1021
vn -0.4246 0.9041 -0.0469
vn -0.6156 -0.4127 -0.6714
vn -0.3124 0.9099 -0.2729
vn -0.0339 -0.3773 -0.9255
vn -0.0815 0.9240 -0.3737
vn 0.5746 -0.3377 -0.7455
vn 0.1601 0.9397 -0.3023
vn 0.9251 -0.3124 -0.2157
vn 0.2993 0.9497 -0.0920
vn 0.8537 -0.3132 0.4160
vn 0.2709 0.9494 0.1588
vn 0.0632 -0.9980 0.0059
vn 0.2274 0.7472 0.6244
vn 0.5668 0.7668 0.3011
vn -0.0632 0.9980 -0.0059
vn -0.2400 0.7178 0.6536
vn -0.6166 0.6923 0.3749
vn -0.7262 0.6827 -0.0812
vn -0.5175 0.6934 -0.5013
vn -0.0882 0.7195 -0.6888
vn 0.3608 0.7487 -0.5560
vn 0.6195 0.7674 -0.1651
vn 0.5725 -0.3950 0.7185
vn 0.4589 0.6765 0.5760
vn -0.4321 -0.4736 0.7674
vn -0.5005 0.6014 0.6227
vn -0.7810 -0.6008 -0.1706
vn -0.8337 0.4799 -0.2732
vn 0.0081 -0.6008 -0.7993
vn -0.0801 0.4799 -0.8736
vn 0.8445 -0.4736 -0.2498
vn 0.7188 0.6014 -0.3488
vn 0.0861 -0.6091 0.7884
vn -0.0319 0.7893 0.6132
vn 0.6127 0.1823 0.7690
vn -0.5564 0.0908 0.8259
vn -0.6170 -0.7160 0.3265
vn -0.7069 0.6866 0.1698
vn -0.9623 -0.0572 -0.2657
vn -0.3884 -0.7821 -0.4874
vn -0.4874 0.6232 -0.6116
vn -0.0441 -0.0572 -0.9974
vn 0.4561 -0.7160 -0.5285
vn 0.3233 0.6866 -0.6511
vn 0.9293 0.0908 -0.3579
vn 0.7493 -0.6091 0.2600
vn 0.6048 0.7893 0.1059
vn 0.0826 -0.9912 0.1037
vn 0.0366 0.1475 0.9884
vn 0.9552 0.1475 0.2564
vn -0.0826 0.9912 -0.1037
vn -0.9373 -0.0005 0.3486
vn -0.6205 -0.0921 -0.7788
vn 0.5491 -0.0005 -0.8358
vn 0.5694 -0.3702 0.7340
vn 0.4401 0.6960 0.5673
vn -0.4343 -0.4646 0.7717
vn -0.5185 0.6059 0.6033
vn -0.7686 -0.6173 -0.1678
vn -0.8378 0.4601 -0.2940
vn 0.0285 -0.6173 -0.7862
vn -0.0765 0.4601 -0.8846
vn 0.8554 -0.4646 -0.2289
vn 0.7133 0.6059 -0.3523
vn 0.0857 -0.5908 0.8022
vn -0.0529 0.8013 0.5959
vn 0.5995 0.2087 0.7727
vn -0.5686 0.0988 0.8166
vn -0.6094 -0.7192 0.3337
vn -0.7203 0.6781 0.1461
vn -0.9577 -0.0789 -0.2768
vn -0.3690 -0.7985 -0.4756
vn -0.4895 0.6020 -0.6309
vn -0.0300 -0.0789 -0.9964
vn 0.4747 -0.7192 -0.5073
vn 0.3205 0.6781 -0.6614
vn 0.9323 0.0988 -0.3478
vn 0.7557 -0.5908 0.2824
vn 0.5903 0.8013 0.0968
vn 0.0976 -0.9873 0.1257
vn 0.0212 0.1689 0.9854
vn 0.9492 0.1689 0.2654
vn -0.0976 0.9873 -0.1257
vn -0.9416 -0.0089 0.3365
vn -0.6086 -0.1188 -0.7845
vn 0.5600 -0.0089 -0.8284
vn 0.8274 -0.3078 -0.4698
vn 0.2590 0.9513 -0.1671
vn 0.9371 -0.3120 0.1564
vn 0.3026 0.9496 0.0815
vn 0.6196 -0.3425 0.7063
vn 0.1765 0.9375 0.2998
vn 0.0232 -0.3850 0.9226
vn -0.0602 0.9207 0.3857
vn -0.5728 -0.4196 0.7041
vn -0.2969 0.9069 0.2990
vn -0.8897 -0.4302 0.1531
vn -0.4227 0.9027 0.0802
vn -0.7791 -0.4117 -0.4728
vn -0.3788 0.9101 -0.1683
vn -0.2928 -0.3728 -0.8805
vn -0.1857 0.9255 -0.3301
vn 0.3416 -0.3318 -0.8793
vn 0.0661 0.9418 -0.3297
vn 0.0646 -0.9978 -0.0180
vn 0.5460 0.7706 -0.3287
vn 0.1875 0.7529 -0.6309
vn -0.0646 0.9978 0.0180
vn 0.6270 0.7675 0.1334
vn 0.3926 0.7450 0.5393
vn -0.0474 0.7136 0.6989
vn -0.4873 0.6881 0.5377
vn -0.7211 0.6803 0.1310
vn -0.6395 0.6939 -0.3308
vn -0.2807 0.7226 -0.6317
vn 0.9405 -0.3175 0.1208
vn 0.6726 0.7349 0.0864
vn 0.2591 -0.4418 0.8589
vn 0.0262 0.6170 0.7865
vn -0.6347 -0.6429 0.4287
vn -0.8216 0.4263 0.3784
vn -0.5057 -0.6429 -0.5752
vn -0.6993 0.4263 -0.5738
vn 0.4678 -0.4418 -0.7655
vn 0.2242 0.6170 -0.7543
vn 0.6566 -0.5528 0.5131
vn 0.3401 0.8242 0.4528
vn 0.9564 0.2651 0.1229
vn 0.1663 0.1210 0.9786
vn -0.1615 -0.7218 0.6730
vn -0.4405 0.6629 0.6054
vn -0.8702 -0.1122 0.4798
vn -0.5587 -0.8263 -0.0718
vn -0.8195 0.5633 -0.1053
vn -0.7206 -0.1122 -0.6842
vn 0.0139 -0.7218 -0.6919
vn -1.0000 -0.0000 -0.0000
vn 0.4082 0.1210 -0.9048
vn 0.7650 -0.5529 -0.3305
vn 0.4435 0.8242 -0.3521
vn 0.2072 -0.9779 0.0266
vn 0.6994 0.2146 0.6818
vn 0.8490 0.2146 -0.4829
vn -0.2072 0.9779 -0.0266
vn -0.4302 -0.0187 0.9026
vn -0.9786 -0.1629 -0.1257
vn -0.1880 -0.0187 -0.9820
vn 0.9577 -0.2534 0.1365
vn 0.6212 0.7787 0.0886
vn 0.2757 -0.4163 0.8664
vn -0.0258 0.6241 0.7809
vn -0.5967 -0.6800 0.4261
vn -0.8533 0.3740 0.3632
vn -0.4539 -0.6800 -0.5759
vn -0.7178 0.3740 -0.5872
vn 0.5068 -0.4163 -0.7549
vn 0.1935 0.6241 -0.7570
vn 0.6844 -0.5037 0.5271
vn 0.2783 0.8488 0.4496
vn 0.9349 0.3290 0.1333
vn 0.1440 0.1401 0.9796
vn -0.1228 -0.7252 0.6775
vn -0.4920 0.6374 0.5931
vn -0.8675 -0.1656 0.4691
vn -0.5016 -0.8621 -0.0715
vn -0.8535 0.5067 -0.1217
vn -0.7018 -0.1656 -0.6928
vn 0.0714 -0.7252 -0.6848
vn -0.3066 0.6374 -0.7069
vn 0.4121 0.1401 -0.9003
vn 0.8045 -0.5037 -0.3148
vn 0.3929 0.8488 -0.3539
vn 0.2711 -0.9618 0.0387
vn 0.6739 0.2663 0.6892
vn 0.8396 0.2663 -0.4734
vn -0.2711 0.9618 -0.0387
vn -0.4407 -0.0395 0.8968
vn -0.9638 -0.2286 -0.1374
vn -0.1725 -0.0395 -0.9842
vn -0.1083 -0.3889 0.9149
vn -0.0517 0.9213 0.3855
vn -0.6754 -0.3876 0.6274
vn -0.2768 0.9218 0.2714
vn -0.9250 -0.3774 0.0428
vn -0.3759 0.9258 0.0393
vn -0.7405 -0.3633 -0.5654
vn -0.3027 0.9314 -0.2022
vn -0.2080 -0.3518 -0.9127
vn -0.0913 0.9360 -0.3400
vn 0.4231 -0.3483 -0.8364
vn 0.1593 0.9374 -0.3098
vn 0.8577 -0.3544 -0.3724
vn 0.3318 0.9350 -0.1255
vn 0.8924 -0.3673 0.2623
vn 0.3456 0.9298 0.1264
vn 0.5109 -0.3809 0.7707
vn 0.1941 0.9244 0.3283
vn 0.0081 -0.9998 -0.0207
vn -0.0880 0.7127 0.6959
vn 0.3689 0.7186 0.5895
vn -0.0081 0.9998 0.0207
vn -0.5065 0.7137 0.4838
vn -0.6907 0.7212 0.0523
vn -0.5545 0.7316 -0.3965
vn -0.1616 0.7401 -0.6528
vn 0.3042 0.7427 -0.5965
vn 0.6249 0.7382 -0.2541
vn 0.6505 0.7287 0.2143
vn 0.8111 -0.2853 -0.5107
vn 0.5530 0.7569 -0.3482
vn 0.7574 -0.4245 0.4961
vn 0.5027 0.6264 0.5957
vn -0.2067 -0.6498 0.7315
vn -0.4013 0.4152 0.8165
vn -0.7490 -0.6498 -0.1297
vn -0.9097 0.4152 0.0090
vn -0.1200 -0.4245 -0.8974
vn -0.3199 0.6264 -0.7108
vn 0.8470 -0.5309 -0.0283
vn 0.5290 0.8363 0.1438
vn 0.8071 0.3007 -0.5082
vn 0.7453 0.1403 0.6518
vn 0.3187 -0.7200 0.6164
vn 0.0301 0.6577 0.7527
vn -0.3656 -0.1192 0.9231
vn -0.4631 -0.8370 0.2916
vn -0.7083 0.5473 0.4459
vn -0.9905 -0.1192 -0.0692
vn -0.4181 -0.7200 -0.5538
vn -0.6657 0.6577 -0.3525
vn -0.2657 0.1403 -0.9538
vn 0.3916 -0.5309 -0.7515
vn 0.0990 0.8363 -0.5392
vn 0.1969 -0.9725 -0.1240
vn 0.9662 0.2435 0.0851
vn 0.3408 0.2435 -0.9080
vn -0.1969 0.9725 0.1240
vn 0.2408 -0.0163 0.9704
vn -0.8329 -0.1768 0.5244
vn -0.7711 -0.0163 -0.6365
vn 0.8613 -0.2523 -0.4410
vn 0.5583 0.7788 -0.2859
vn 0.7233 -0.4114 0.5547
vn 0.4289 0.6297 0.6477
vn -0.2506 -0.6687 0.7000
vn -0.4842 0.3885 0.7840
vn -0.7145 -0.6687 -0.2058
vn -0.9191 0.3885 -0.0654
vn -0.0273 -0.4114 -0.9111
vn -0.2748 0.6297 -0.7266
vn 0.8619 -0.5055 0.0387
vn 0.4886 0.8485 0.2032
vn 0.8392 0.3332 -0.4297
vn 0.6802 0.1499 0.7175
vn 0.2848 -0.7216 0.6310
vn -0.0565 0.6445 0.7626
vn -0.4419 -0.1465 0.8850
vn -0.4614 -0.8552 0.2362
vn -0.7612 0.5183 0.3898
vn -0.9764 -0.1465 -0.1588
vn -0.3454 -0.7216 -0.5999
vn -0.6517 0.6445 -0.3999
vn -0.1846 0.1499 -0.9713
vn 0.4724 -0.5055 -0.7220
vn -0.0000 1.0000 -0.0000
vn 0.2366 -0.9640 -0.1212
vn 0.9470 0.2698 0.1744
vn 0.4121 0.2698 -0.8703
vn -0.2366 0.9640 0.1212
vn 0.1545 -0.0270 0.9876
vn -0.8702 -0.2104 0.4456
vn -0.7110 -0.0270 -0.7027
vn 0.5286 -0.3093 -0.7905
vn 0.9054 -0.3203 -0.2786
vn -0.1056 -0.9944 -0.0000
vn 0.8654 -0.3537 0.3550
vn 0.4272 -0.3939 0.8139
vn -0.0000 -0.7793 -0.6266
vn -0.2042 -0.4221 0.8833
vn -0.7332 -0.4251 0.5307
vn -0.9124 -0.4015 -0.0788
vn -0.6580 -0.3624 -0.6601
vn 0.8187 -0.5742 -0.0000
vn -0.0889 -0.3259 -0.9412
vn 0.0391 -0.9980 -0.0501
vn 0.3510 0.7697 -0.5333
vn -0.1047 0.7574 -0.6445
vn 0.6291 0.7616 -0.1555
vn 0.5995 0.7370 0.3121
vn 0.2761 0.7073 0.6507
vn -0.1898 0.6865 0.7019
vn -0.5802 0.6843 0.4418
vn -0.7125 0.7017 -0.0081
vn -0.5247 0.7306 -0.4370
vn 0.6533 0.6866 -0.3190
vn -0.0000 -0.0000 -1.0000
vn 0.0386 0.6127 -0.7894
vn 0.6767 0.6804 -0.2814
vn -0.0000 -0.4472 -0.8944
vn -0.0121 -0.0704 -0.9974
vn -0.0000 -1.0000 -0.0000
vn -0.0000 -0.1644 -0.9864
vn 0.8699 -0.0463 -0.4911
vn 0.6000 -0.8000 -0.0000
vn 1.0000 -0.0000 -0.0000
vn -0.8000 -0.6000 -0.0000
vn 0.0975 -0.9873 0.1257
vn -0.0975 0.9873 -0.1257
vn -0.1564 0.0044 0.9877
vn -0.2732 0.6629 -0.6971
vn 0.7650 -0.5528 -0.3305
vn -0.2425 -0.0000 -0.9701
vn -0.0194 -0.0625 -0.9979
vn 0.3318 0.9350 -0.1256
vn -0.4472 -0.8944 -0.0000
vn -0.8728 -0.3894 0.2942
vn 0.8619 -0.5055 0.0388
vn 0.4724 -0.5056 -0.7220
vn 0.1207 0.8485 -0.5152
vn 0.8049 0.5934 -0.0000
vn 0.1678 0.9509 -0.2599
vn 0.3174 0.9466 -0.0567
vn 0.3015 0.9333 0.1949
vn 0.1275 0.9174 0.3770
vn -0.1231 0.9062 0.4046
vn -0.3332 0.9050 0.2646
vn -0.4043 0.9143 0.0226
vn -0.3033 0.9299 -0.2082
vn -0.0773 0.9443 -0.3197
vt 0.037699 0.491250
vt 0.043700 0.494249
vt 0.031698 0.494249
vt 0.037699 0.508750
vt 0.031165 0.505751
vt 0.044233 0.505751
vt 0.024138 0.491250
vt 0.029511 0.494249
vt 0.017027 0.494249
vt 0.024707 0.508750
vt 0.016488 0.505751
vt 0.030117 0.505751
vt 0.008646 0.491250
vt 0.014680 0.494249
vt 0.001237 0.494249
vt 0.009172 0.508750
vt 0.000599 0.505751
vt 0.015357 0.505751
vt 0.066752 0.491250
vt 0.074162 0.494249
vt 0.060718 0.494249
vt 0.066226 0.508750
vt 0.060042 0.505751
vt 0.074799 0.505751
vt 0.051260 0.491250
vt 0.058371 0.494249
vt 0.045887 0.494249
vt 0.050691 0.508750
vt 0.045282 0.505751
vt 0.058910 0.505751
vt 0.084044 0.491250
vt 0.076635 0.494249
vt 0.075997 0.505751
vt 0.084570 0.508750
vt 0.033552 0.491250
vt 0.039185 0.494061
vt 0.027919 0.494061
vt 0.033552 0.508750
vt 0.027338 0.505939
vt 0.039767 0.505939
vt 0.021808 0.491250
vt 0.026673 0.494061
vt 0.014895 0.494061
vt 0.022630 0.508750
vt 0.014300 0.505939
vt 0.007988 0.491250
vt 0.013544 0.494061
vt 0.000719 0.494061
vt 0.008866 0.508750
vt 0.000000 0.505939
vt 0.014300 0.505939
vt 0.059117 0.491250
vt 0.066386 0.494061
vt 0.053560 0.494061
vt 0.058238 0.508750
vt 0.052805 0.505939
vt 0.067104 0.505939
vt 0.045297 0.491250
vt 0.052209 0.494061
vt 0.040431 0.494061
vt 0.044474 0.508750
vt 0.075092 0.491250
vt 0.067823 0.494061
vt 0.075971 0.508750
vt 0.096945 0.495858
vt 0.125664 0.493800
vt 0.125664 0.495858
vt 0.125664 0.504142
vt 0.092064 0.506200
vt 0.096008 0.504142
vt 0.068619 0.495858
vt 0.096903 0.493800
vt 0.062174 0.506200
vt 0.067266 0.504142
vt 0.040859 0.495858
vt 0.068557 0.493800
vt 0.035926 0.506200
vt 0.039740 0.504142
vt 0.013541 0.493800
vt 0.040807 0.493800
vt 0.011761 0.506200
vt 0.013136 0.504142
vt 0.264889 0.495858
vt 0.237786 0.493800
vt 0.264869 0.493800
vt 0.264464 0.504142
vt 0.239567 0.506200
vt 0.238191 0.504142
vt 0.210468 0.495858
vt 0.237766 0.495858
vt 0.215402 0.506200
vt 0.211587 0.504142
vt 0.182770 0.493800
vt 0.210521 0.493800
vt 0.189154 0.506200
vt 0.184062 0.504142
vt 0.154382 0.495858
vt 0.182708 0.495858
vt 0.159263 0.506200
vt 0.155319 0.504142
vt 0.154425 0.493800
vt 0.125664 0.506200
vt 0.287253 0.506200
vt 0.013561 0.495858
vt 0.034558 0.494000
vt 0.040538 0.496961
vt 0.028577 0.496961
vt 0.034558 0.506000
vt 0.028179 0.503039
vt 0.040936 0.503039
vt 0.022650 0.494000
vt 0.027722 0.496961
vt 0.015180 0.496961
vt 0.023483 0.506000
vt 0.014771 0.503039
vt 0.008410 0.494000
vt 0.014247 0.496961
vt 0.000499 0.496961
vt 0.009350 0.506000
vt 0.000000 0.503039
vt 0.014771 0.503039
vt 0.060705 0.494000
vt 0.068616 0.496961
vt 0.054868 0.496961
vt 0.059765 0.506000
vt 0.054344 0.503039
vt 0.069115 0.503039
vt 0.046465 0.494000
vt 0.053935 0.496961
vt 0.041393 0.496961
vt 0.045632 0.506000
vt 0.077525 0.494000
vt 0.069614 0.496961
vt 0.078465 0.506000
vt 0.030756 0.494000
vt 0.035996 0.496595
vt 0.025517 0.496595
vt 0.030756 0.506000
vt 0.025069 0.503405
vt 0.036443 0.503405
vt 0.020054 0.494000
vt 0.024556 0.496595
vt 0.013585 0.496595
vt 0.020851 0.506000
vt 0.013126 0.503405
vt 0.025069 0.503405
vt 0.007383 0.494000
vt 0.012542 0.496595
vt 0.000557 0.496595
vt 0.008259 0.506000
vt 0.000000 0.503405
vt 0.013126 0.503405
vt 0.054129 0.494000
vt 0.060956 0.496595
vt 0.048971 0.496595
vt 0.053253 0.506000
vt 0.048386 0.503405
vt 0.061512 0.503405
vt 0.041458 0.494000
vt 0.047927 0.496595
vt 0.036956 0.496595
vt 0.040661 0.506000
vt 0.036443 0.503405
vt 0.048386 0.503405
vt 0.068895 0.494000
vt 0.062069 0.496595
vt 0.069772 0.506000
vt 0.097389 0.497253
vt 0.075088 0.495195
vt 0.097389 0.495195
vt 0.097389 0.502747
vt 0.068990 0.504805
vt 0.074561 0.502747
vt 0.053180 0.497253
vt 0.075132 0.497253
vt 0.052350 0.502747
vt 0.045590 0.504805
vt 0.031610 0.495195
vt 0.053114 0.495195
vt 0.026113 0.504805
vt 0.030977 0.502747
vt 0.031666 0.497253
vt 0.010489 0.495195
vt 0.008524 0.504805
vt 0.010248 0.502747
vt 0.184269 0.497253
vt 0.205268 0.495195
vt 0.205289 0.497253
vt 0.205026 0.502747
vt 0.186255 0.504805
vt 0.184531 0.502747
vt 0.163168 0.495195
vt 0.184290 0.495195
vt 0.163802 0.502747
vt 0.168666 0.504805
vt 0.141599 0.497253
vt 0.163113 0.497253
vt 0.142429 0.502747
vt 0.149189 0.504805
vt 0.119646 0.497253
vt 0.141664 0.495195
vt 0.125789 0.504805
vt 0.120218 0.502747
vt 0.119691 0.495195
vt 0.097389 0.504805
vt 0.220891 0.504805
vt 0.010510 0.497253
vt 0.031416 0.495250
vt 0.036900 0.497953
vt 0.025931 0.497953
vt 0.031416 0.504750
vt 0.025622 0.502047
vt 0.037209 0.502047
vt 0.020633 0.495250
vt 0.025268 0.497953
vt 0.013756 0.497953
vt 0.021415 0.504750
vt 0.013439 0.502047
vt 0.025622 0.502047
vt 0.007688 0.495250
vt 0.013032 0.497953
vt 0.000388 0.497953
vt 0.008586 0.504750
vt 0.000000 0.502047
vt 0.013439 0.502047
vt 0.055144 0.495250
vt 0.062443 0.497953
vt 0.049800 0.497953
vt 0.054246 0.504750
vt 0.049393 0.502047
vt 0.062832 0.502047
vt 0.042199 0.495250
vt 0.049075 0.497953
vt 0.037564 0.497953
vt 0.041417 0.504750
vt 0.049393 0.502047
vt 0.070519 0.495250
vt 0.063220 0.497953
vt 0.071418 0.504750
vt 0.027960 0.495250
vt 0.032765 0.497619
vt 0.023155 0.497619
vt 0.027960 0.504750
vt 0.022795 0.502381
vt 0.033125 0.502381
vt 0.018266 0.495250
vt 0.022382 0.497619
vt 0.012313 0.497619
vt 0.019015 0.504750
vt 0.011943 0.502381
vt 0.006746 0.495250
vt 0.011471 0.497619
vt 0.000450 0.497619
vt 0.007584 0.504750
vt 0.000000 0.502381
vt 0.011943 0.502381
vt 0.049175 0.495250
vt 0.055471 0.497619
vt 0.044450 0.497619
vt 0.048337 0.504750
vt 0.043978 0.502381
vt 0.055920 0.502381
vt 0.037654 0.495250
vt 0.043608 0.497619
vt 0.033538 0.497619
vt 0.036905 0.504750
vt 0.043978 0.502381
vt 0.062666 0.495250
vt 0.056370 0.497619
vt 0.063504 0.504750
vt 0.063014 0.498028
vt 0.081681 0.495970
vt 0.081681 0.498028
vt 0.081681 0.501972
vt 0.052556 0.504030
vt 0.062630 0.501972
vt 0.044603 0.498028
vt 0.062967 0.495970
vt 0.044043 0.501972
vt 0.033604 0.504030
vt 0.026558 0.498028
vt 0.044534 0.495970
vt 0.019150 0.504030
vt 0.026092 0.501972
vt 0.008815 0.498028
vt 0.026500 0.495970
vt 0.008637 0.501972
vt 0.006252 0.504030
vt 0.172178 0.498028
vt 0.154570 0.495970
vt 0.172155 0.495970
vt 0.172000 0.501972
vt 0.157111 0.504030
vt 0.154726 0.501972
vt 0.136804 0.498028
vt 0.154548 0.498028
vt 0.144213 0.504030
vt 0.137270 0.501972
vt 0.118829 0.495970
vt 0.136863 0.495970
vt 0.129759 0.504030
vt 0.119320 0.501972
vt 0.100349 0.498028
vt 0.118760 0.498028
vt 0.100733 0.501972
vt 0.110807 0.504030
vt 0.100396 0.495970
vt 0.081681 0.504030
vt 0.182513 0.504030
vt 0.028274 0.496500
vt 0.033285 0.498950
vt 0.023263 0.498950
vt 0.028274 0.503500
vt 0.023069 0.501050
vt 0.033480 0.501050
vt 0.018636 0.496500
vt 0.022845 0.498950
vt 0.012312 0.498950
vt 0.019380 0.503500
vt 0.012112 0.501050
vt 0.023069 0.501050
vt 0.006986 0.496500
vt 0.011854 0.498950
vt 0.000246 0.498950
vt 0.007869 0.503500
vt 0.000000 0.501050
vt 0.012112 0.501050
vt 0.049562 0.496500
vt 0.056303 0.498950
vt 0.044695 0.498950
vt 0.048679 0.503500
vt 0.044437 0.501050
vt 0.056549 0.501050
vt 0.037913 0.496500
vt 0.044237 0.498950
vt 0.033703 0.498950
vt 0.037169 0.503500
vt 0.056795 0.498950
vt 0.063535 0.496500
vt 0.064418 0.503500
vt 0.025164 0.496500
vt 0.029554 0.498647
vt 0.020774 0.498647
vt 0.025164 0.503500
vt 0.020523 0.501353
vt 0.029805 0.501353
vt 0.016495 0.496500
vt 0.020235 0.498647
vt 0.011022 0.498647
vt 0.017208 0.503500
vt 0.010764 0.501353
vt 0.006126 0.496500
vt 0.010433 0.498647
vt 0.000316 0.498647
vt 0.006949 0.503500
vt 0.000000 0.501353
vt 0.010764 0.501353
vt 0.044202 0.496500
vt 0.050013 0.498647
vt 0.039896 0.498647
vt 0.043379 0.503500
vt 0.039565 0.501353
vt 0.050328 0.501353
vt 0.033833 0.496500
vt 0.039306 0.498647
vt 0.030093 0.498647
vt 0.033121 0.503500
vt 0.039565 0.501353
vt 0.050644 0.498647
vt 0.056454 0.496500
vt 0.057277 0.503500
vt 0.065973 0.498775
vt 0.050846 0.496745
vt 0.065973 0.496745
vt 0.050677 0.501225
vt 0.000000 0.503255
vt 0.036025 0.498775
vt 0.050896 0.498775
vt 0.035705 0.501225
vt 0.021451 0.498775
vt 0.035952 0.496745
vt 0.021183 0.501225
vt 0.007120 0.498775
vt 0.021389 0.496745
vt 0.007017 0.501225
vt 0.139067 0.498775
vt 0.124851 0.496745
vt 0.139043 0.496745
vt 0.124930 0.501225
vt 0.131947 0.503255
vt 0.110496 0.498775
vt 0.124827 0.498775
vt 0.110764 0.501225
vt 0.095995 0.496745
vt 0.110558 0.496745
vt 0.096242 0.501225
vt 0.095922 0.498775
vt 0.081101 0.496745
vt 0.081270 0.501225
vt 0.081051 0.498775
vt 0.065973 0.501225
vt 0.263088 0.506200
vt 0.292134 0.493800
vt 0.203303 0.504805
vt 0.226389 0.495195
vt 0.008793 0.495970
vt 0.169615 0.504030
vt 0.189863 0.495970
vt 0.196967 0.504030
vt 0.007096 0.496745
vt 0.138964 0.501225
vt 0.153336 0.496745
s 0
usemtl bark
f 1/1/1 2/2/1 3/3/1
f 4/4/2 5/5/2 6/6/2
f 7/7/3 8/8/3 9/9/3
f 10/10/4 11/11/4 12/12/4
f 13/13/5 14/14/5 15/15/5
f 16/16/6 17/17/6 18/18/6
f 19/19/7 20/20/7 21/21/7
f 22/22/8 23/23/8 24/24/8
f 25/25/9 26/26/9 27/27/9
f 28/28/10 29/29/10 30/30/10
f 8/8/11 1/1/11 3/3/11
f 5/5/12 10/10/12 12/12/12
f 2/2/13 5/5/13 3/3/13
f 9/9/14 12/12/14 11/11/14
f 14/14/15 7/7/15 9/9/15
f 18/18/16 10/10/16 16/16/16
f 17/17/17 14/14/17 18/18/17
f 20/20/18 13/31/18 15/32/18
f 17/33/19 22/22/19 24/24/19
f 23/23/20 20/20/20 24/24/20
f 21/21/21 25/25/21 19/19/21
f 30/30/22 22/22/22 28/28/22
f 27/27/23 30/30/23 29/29/23
f 2/2/24 25/25/24 27/27/24
f 29/29/25 4/4/25 6/6/25
f 7/7/26 19/19/26 25/25/26
f 5/5/27 8/8/27 3/3/27
f 27/27/28 6/6/28 2/2/28
f 4/4/29 22/22/29 16/34/29
f 9/9/30 18/18/30 14/14/30
f 15/32/31 24/24/31 20/20/31
f 23/23/32 26/26/32 21/21/32
f 31/35/33 32/36/33 33/37/33
f 34/38/34 35/39/34 36/40/34
f 37/41/35 38/42/35 39/43/35
f 40/44/36 41/45/36 42/39/36
f 43/46/37 44/47/37 45/48/37
f 46/49/38 47/50/38 48/51/38
f 49/52/39 50/53/39 51/54/39
f 52/55/40 53/56/40 54/57/40
f 55/58/41 56/59/41 57/60/41
f 58/61/42 59/40/42 60/56/42
f 38/42/43 31/35/43 33/37/43
f 42/39/44 34/38/44 40/44/44
f 36/40/45 33/37/45 32/36/45
f 39/43/46 42/39/46 41/45/46
f 39/43/47 43/46/47 37/41/47
f 48/51/48 40/44/48 46/49/48
f 47/50/49 44/47/49 48/51/49
f 50/53/50 43/62/50 45/63/50
f 47/57/51 52/55/51 54/57/51
f 51/54/52 54/57/52 53/56/52
f 56/59/53 49/52/53 51/54/53
f 53/56/54 58/61/54 60/56/54
f 57/60/55 60/56/55 59/40/55
f 32/36/56 55/58/56 57/60/56
f 36/40/57 58/61/57 34/38/57
f 37/41/58 49/52/58 55/58/58
f 33/37/59 42/39/59 38/42/59
f 57/60/60 36/40/60 32/36/60
f 34/38/61 52/55/61 46/64/61
f 39/43/62 48/51/62 44/47/62
f 47/57/63 50/53/63 45/63/63
f 51/54/64 60/56/64 56/59/64
f 97/105/94 98/106/94 99/107/94
f 100/108/95 101/109/95 102/110/95
f 103/111/96 104/112/96 105/113/96
f 106/114/97 107/115/97 108/109/97
f 109/116/98 110/117/98 111/118/98
f 112/119/99 113/120/99 114/121/99
f 115/122/100 116/123/100 117/124/100
f 118/125/101 119/126/101 120/127/101
f 121/128/102 122/129/102 123/130/102
f 124/131/103 125/110/103 126/126/103
f 104/112/104 97/105/104 99/107/104
f 108/109/105 100/108/105 106/114/105
f 102/110/106 99/107/106 98/106/106
f 107/115/107 104/112/107 108/109/107
f 105/113/108 109/116/108 103/111/108
f 114/121/109 106/114/109 112/119/109
f 111/118/110 114/121/110 113/120/110
f 116/123/111 109/132/111 111/133/111
f 120/127/112 112/134/112 118/125/112
f 117/124/113 120/127/113 119/126/113
f 117/124/114 121/128/114 115/122/114
f 126/126/115 118/125/115 124/131/115
f 125/110/116 122/129/116 126/126/116
f 98/106/117 121/128/117 123/130/117
f 102/110/118 124/131/118 100/108/118
f 103/111/119 115/122/119 121/128/119
f 99/107/120 108/109/120 104/112/120
f 123/130/121 102/110/121 98/106/121
f 100/108/122 118/125/122 112/134/122
f 105/113/123 114/121/123 110/117/123
f 111/133/124 120/127/124 116/123/124
f 117/124/125 126/126/125 122/129/125
f 127/135/126 128/136/126 129/137/126
f 130/138/127 131/139/127 132/140/127
f 133/141/128 134/142/128 135/143/128
f 136/144/129 137/145/129 138/146/129
f 139/147/130 140/148/130 141/149/130
f 142/150/131 143/151/131 144/152/131
f 145/153/132 146/154/132 147/155/132
f 148/156/133 149/157/133 150/158/133
f 151/159/134 152/160/134 153/161/134
f 154/162/135 155/163/135 156/164/135
f 134/142/136 127/135/136 129/137/136
f 138/146/137 130/138/137 136/144/137
f 132/140/138 129/137/138 128/136/138
f 135/143/139 138/146/139 137/145/139
f 135/143/140 139/147/140 133/141/140
f 144/152/141 136/144/141 142/150/141
f 141/149/142 144/152/142 143/151/142
f 146/154/143 139/165/143 141/166/143
f 150/158/144 142/167/144 148/156/144
f 147/155/145 150/158/145 149/157/145
f 147/155/146 151/159/146 145/153/146
f 156/164/147 148/156/147 154/162/147
f 155/163/148 152/160/148 156/164/148
f 153/161/149 127/135/149 151/159/149
f 132/140/150 154/162/150 130/138/150
f 133/141/151 145/153/151 151/159/151
f 129/137/152 138/146/152 134/142/152
f 153/161/153 132/140/153 128/136/153
f 130/138/154 148/156/154 142/167/154
f 135/143/155 144/152/155 140/148/155
f 141/166/156 150/158/156 146/154/156
f 147/155/157 156/164/157 152/160/157
f 193/208/187 194/209/187 195/210/187
f 196/211/188 197/212/188 198/213/188
f 199/214/189 200/215/189 201/216/189
f 202/217/190 203/218/190 204/219/190
f 205/220/191 206/221/191 207/222/191
f 208/223/192 209/224/192 210/225/192
f 211/226/193 212/227/193 213/228/193
f 214/229/194 215/230/194 216/231/194
f 217/232/195 218/233/195 219/234/195
f 220/235/196 221/213/196 222/236/196
f 195/210/197 199/214/197 193/208/197
f 204/219/198 196/211/198 202/217/198
f 198/213/199 195/210/199 194/209/199
f 201/216/200 204/219/200 203/218/200
f 206/221/201 199/214/201 201/216/201
f 210/225/202 202/217/202 208/223/202
f 207/222/203 210/225/203 209/224/203
f 212/227/204 205/237/204 207/238/204
f 216/231/205 208/239/205 214/229/205
f 215/230/206 212/227/206 216/231/206
f 213/228/207 217/232/207 211/226/207
f 215/230/208 220/235/208 222/236/208
f 219/234/209 222/236/209 221/213/209
f 194/209/210 217/232/210 219/234/210
f 198/213/211 220/235/211 196/211/211
f 199/214/212 211/226/212 217/232/212
f 195/210/213 204/219/213 200/215/213
f 219/234/214 198/213/214 194/209/214
f 196/211/215 214/229/215 208/239/215
f 201/216/216 210/225/216 206/221/216
f 207/238/217 216/231/217 212/227/217
f 213/228/218 222/236/218 218/233/218
f 223/240/219 224/241/219 225/242/219
f 226/243/220 227/244/220 228/245/220
f 229/246/221 230/247/221 231/248/221
f 232/249/222 233/250/222 234/244/222
f 235/251/223 236/252/223 237/253/223
f 238/254/224 239/255/224 240/256/224
f 241/257/225 242/258/225 243/259/225
f 244/260/226 245/261/226 246/262/226
f 247/263/227 248/264/227 249/265/227
f 250/266/228 251/245/228 252/267/228
f 225/242/229 229/246/229 223/240/229
f 234/244/230 226/243/230 232/249/230
f 224/241/231 227/244/231 225/242/231
f 231/248/232 234/244/232 233/250/232
f 231/248/233 235/251/233 229/246/233
f 240/256/234 232/249/234 238/254/234
f 237/253/235 240/256/235 239/255/235
f 242/258/236 235/268/236 237/269/236
f 246/262/237 238/270/237 244/260/237
f 243/259/238 246/262/238 245/261/238
f 248/264/239 241/257/239 243/259/239
f 252/267/240 244/260/240 250/266/240
f 249/265/241 252/267/241 251/245/241
f 224/241/242 247/263/242 249/265/242
f 228/245/243 250/266/243 226/243/243
f 229/246/244 241/257/244 247/263/244
f 225/242/245 234/244/245 230/247/245
f 249/265/246 228/245/246 224/241/246
f 226/243/247 244/260/247 238/270/247
f 231/248/248 240/256/248 236/252/248
f 237/269/249 246/262/249 242/258/249
f 243/259/250 252/267/250 248/264/250
f 289/310/280 290/311/280 291/312/280
f 292/313/281 293/314/281 294/315/281
f 295/316/282 296/317/282 297/318/282
f 298/319/283 299/320/283 300/321/283
f 301/322/284 302/323/284 303/324/284
f 304/325/285 305/326/285 306/327/285
f 307/328/286 308/329/286 309/330/286
f 310/331/287 311/332/287 312/333/287
f 313/334/288 314/335/288 315/336/288
f 316/337/289 317/315/289 318/332/289
f 291/312/290 295/316/290 289/310/290
f 300/321/291 292/313/291 298/319/291
f 294/315/292 291/312/292 290/311/292
f 299/320/293 296/317/293 300/321/293
f 297/318/294 301/322/294 295/316/294
f 306/327/295 298/319/295 304/325/295
f 305/326/296 302/323/296 306/327/296
f 303/338/297 307/328/297 301/339/297
f 312/333/298 304/340/298 310/331/298
f 311/332/299 308/329/299 312/333/299
f 309/330/300 313/334/300 307/328/300
f 318/332/301 310/331/301 316/337/301
f 315/336/302 318/332/302 317/315/302
f 290/311/303 313/334/303 315/336/303
f 294/315/304 316/337/304 292/313/304
f 295/316/305 307/328/305 313/334/305
f 291/312/306 300/321/306 296/317/306
f 315/336/307 294/315/307 290/311/307
f 292/313/308 310/331/308 304/340/308
f 297/318/309 306/327/309 302/323/309
f 303/338/310 312/333/310 308/329/310
f 309/330/311 318/332/311 314/335/311
f 319/341/312 320/342/312 321/343/312
f 322/344/313 323/345/313 324/346/313
f 325/347/314 326/348/314 327/349/314
f 328/350/315 329/351/315 330/345/315
f 331/352/316 332/353/316 333/354/316
f 334/355/317 335/356/317 336/357/317
f 337/358/318 338/359/318 339/360/318
f 340/361/319 341/362/319 342/363/319
f 343/364/320 344/365/320 345/366/320
f 346/367/321 347/346/321 348/368/321
f 321/343/322 325/347/322 319/341/322
f 330/345/323 322/344/323 328/350/323
f 320/342/324 323/345/324 321/343/324
f 327/349/325 330/345/325 329/351/325
f 327/349/326 331/352/326 325/347/326
f 336/357/327 328/350/327 334/355/327
f 335/356/328 332/353/328 336/357/328
f 333/369/329 337/358/329 331/370/329
f 342/363/330 334/371/330 340/361/330
f 339/360/331 342/363/331 341/362/331
f 344/365/332 337/358/332 339/360/332
f 348/368/333 340/361/333 346/367/333
f 345/366/334 348/368/334 347/346/334
f 345/366/335 319/341/335 343/364/335
f 347/346/336 322/344/336 324/346/336
f 325/347/337 337/358/337 343/364/337
f 321/343/338 330/345/338 326/348/338
f 345/366/339 324/346/339 320/342/339
f 322/344/340 340/361/340 334/371/340
f 327/349/341 336/357/341 332/353/341
f 333/369/342 342/363/342 338/359/342
f 339/360/343 348/368/343 344/365/343
f 8/8/11 7/7/11 1/1/11
f 5/5/12 4/4/12 10/10/12
f 2/2/13 6/6/13 5/5/13
f 9/9/14 8/8/14 12/12/14
f 14/14/15 13/13/15 7/7/15
f 18/18/16 11/11/16 10/10/16
f 17/17/17 15/15/17 14/14/17
f 20/20/18 19/19/18 13/31/18
f 17/33/19 16/34/19 22/22/19
f 23/23/20 21/21/20 20/20/20
f 21/21/21 26/26/21 25/25/21
f 30/30/366 23/23/366 22/22/366
f 27/27/23 26/26/23 30/30/23
f 2/2/24 1/1/24 25/25/24
f 29/29/25 28/28/25 4/4/25
f 25/25/26 1/1/26 7/7/26
f 7/7/26 13/31/26 19/19/26
f 5/5/27 12/12/27 8/8/27
f 27/27/28 29/29/28 6/6/28
f 16/34/29 10/10/29 4/4/29
f 4/4/29 28/28/29 22/22/29
f 9/9/30 11/11/30 18/18/30
f 15/32/31 17/33/31 24/24/31
f 23/23/32 30/30/32 26/26/32
f 38/42/43 37/41/43 31/35/43
f 42/39/336 35/39/336 34/38/336
f 36/40/45 35/39/45 33/37/45
f 39/43/46 38/42/46 42/39/46
f 39/43/47 44/47/47 43/46/47
f 48/51/367 41/45/367 40/44/367
f 47/50/49 45/48/49 44/47/49
f 50/53/50 49/52/50 43/62/50
f 47/57/368 46/64/368 52/55/368
f 51/54/52 50/53/52 54/57/52
f 56/59/53 55/58/53 49/52/53
f 53/56/369 52/55/369 58/61/369
f 57/60/55 56/59/55 60/56/55
f 32/36/56 31/35/56 55/58/56
f 36/40/370 59/40/370 58/61/370
f 55/58/58 31/35/58 37/41/58
f 37/41/58 43/62/58 49/52/58
f 33/37/336 35/39/336 42/39/336
f 57/60/371 59/40/371 36/40/371
f 46/64/61 40/44/61 34/38/61
f 34/38/61 58/61/61 52/55/61
f 39/43/372 41/45/372 48/51/372
f 47/57/373 54/57/373 50/53/373
f 51/54/374 53/56/374 60/56/374
f 104/112/104 103/111/104 97/105/104
f 108/109/336 101/109/336 100/108/336
f 102/110/106 101/109/106 99/107/106
f 107/115/107 105/113/107 104/112/107
f 105/113/108 110/117/108 109/116/108
f 114/121/375 107/115/375 106/114/375
f 111/118/110 110/117/110 114/121/110
f 116/123/111 115/122/111 109/132/111
f 120/127/336 113/127/336 112/134/336
f 117/124/113 116/123/113 120/127/113
f 117/124/114 122/129/114 121/128/114
f 126/126/336 119/126/336 118/125/336
f 125/110/116 123/130/116 122/129/116
f 98/106/117 97/105/117 121/128/117
f 102/110/336 125/110/336 124/131/336
f 121/128/119 97/105/119 103/111/119
f 103/111/119 109/132/119 115/122/119
f 99/107/208 101/109/208 108/109/208
f 123/130/336 125/110/336 102/110/336
f 112/134/122 106/114/122 100/108/122
f 100/108/122 124/131/122 118/125/122
f 105/113/376 107/115/376 114/121/376
f 111/133/336 113/127/336 120/127/336
f 117/124/336 119/126/336 126/126/336
f 134/142/136 133/141/136 127/135/136
f 138/146/336 131/139/336 130/138/336
f 132/140/138 131/139/138 129/137/138
f 135/143/139 134/142/139 138/146/139
f 135/143/140 140/148/140 139/147/140
f 144/152/336 137/145/336 136/144/336
f 141/149/142 140/148/142 144/152/142
f 146/154/143 145/153/143 139/165/143
f 150/158/336 143/158/336 142/167/336
f 147/155/145 146/154/145 150/158/145
f 147/155/146 152/160/146 151/159/146
f 156/164/377 149/157/377 148/156/377
f 155/163/148 153/161/148 152/160/148
f 153/161/149 128/136/149 127/135/149
f 132/140/336 155/163/336 154/162/336
f 151/159/378 127/135/378 133/141/378
f 133/141/151 139/165/151 145/153/151
f 129/137/336 131/139/336 138/146/336
f 153/161/336 155/163/336 132/140/336
f 142/167/379 136/144/379 130/138/379
f 130/138/379 154/162/379 148/156/379
f 135/143/336 137/145/336 144/152/336
f 141/166/336 143/158/336 150/158/336
f 147/155/380 149/157/380 156/164/380
f 195/210/197 200/215/197 199/214/197
f 204/219/336 197/212/336 196/211/336
f 198/213/199 197/212/199 195/210/199
f 201/216/200 200/215/200 204/219/200
f 206/221/201 205/220/201 199/214/201
f 210/225/336 203/218/336 202/217/336
f 207/222/203 206/221/203 210/225/203
f 212/227/204 211/226/204 205/237/204
f 216/231/336 209/231/336 208/239/336
f 215/230/206 213/228/206 212/227/206
f 213/228/207 218/233/207 217/232/207
f 215/230/381 214/229/381 220/235/381
f 219/234/209 218/233/209 222/236/209
f 194/209/382 193/208/382 217/232/382
f 198/213/336 221/213/336 220/235/336
f 217/232/212 193/208/212 199/214/212
f 199/214/212 205/237/212 211/226/212
f 195/210/336 197/212/336 204/219/336
f 219/234/367 221/213/367 198/213/367
f 208/239/215 202/217/215 196/211/215
f 196/211/215 220/235/215 214/229/215
f 201/216/336 203/218/336 210/225/336
f 207/238/336 209/231/336 216/231/336
f 213/228/208 215/230/208 222/236/208
f 225/242/229 230/247/229 229/246/229
f 234/244/336 227/244/336 226/243/336
f 224/241/231 228/245/231 227/244/231
f 231/248/232 230/247/232 234/244/232
f 231/248/233 236/252/233 235/251/233
f 240/256/336 233/250/336 232/249/336
f 237/253/235 236/252/235 240/256/235
f 242/258/236 241/257/236 235/268/236
f 246/262/336 239/262/336 238/270/336
f 243/259/238 242/258/238 246/262/238
f 248/264/239 247/263/239 241/257/239
f 252/267/336 245/261/336 244/260/336
f 249/265/241 248/264/241 252/267/241
f 224/241/242 223/240/242 247/263/242
f 228/245/383 251/245/383 250/266/383
f 247/263/244 223/240/244 229/246/244
f 229/246/244 235/268/244 241/257/244
f 225/242/336 227/244/336 234/244/336
f 249/265/384 251/245/384 228/245/384
f 238/270/247 232/249/247 226/243/247
f 226/243/247 250/266/247 244/260/247
f 231/248/336 233/250/336 240/256/336
f 237/269/336 239/262/336 246/262/336
f 243/259/336 245/261/336 252/267/336
f 291/312/290 296/317/290 295/316/290
f 300/321/386 293/314/386 292/313/386
f 294/315/292 293/314/292 291/312/292
f 299/320/293 297/318/293 296/317/293
f 297/318/294 302/323/294 301/322/294
f 306/327/336 299/320/336 298/319/336
f 305/326/296 303/324/296 302/323/296
f 303/338/297 308/329/297 307/328/297
f 312/333/336 305/333/336 304/340/336
f 311/332/299 309/330/299 308/329/299
f 309/330/300 314/335/300 313/334/300
f 318/332/336 311/332/336 310/331/336
f 315/336/302 314/335/302 318/332/302
f 290/311/303 289/310/303 313/334/303
f 294/315/383 317/315/383 316/337/383
f 313/334/305 289/310/305 295/316/305
f 295/316/305 301/339/305 307/328/305
f 291/312/387 293/314/387 300/321/387
f 315/336/367 317/315/367 294/315/367
f 304/340/308 298/319/308 292/313/308
f 292/313/308 316/337/308 310/331/308
f 297/318/336 299/320/336 306/327/336
f 303/338/336 305/333/336 312/333/336
f 309/330/336 311/332/336 318/332/336
f 321/343/388 326/348/388 325/347/388
f 330/345/376 323/345/376 322/344/376
f 320/342/324 324/346/324 323/345/324
f 327/349/325 326/348/325 330/345/325
f 327/349/326 332/353/326 331/352/326
f 336/357/336 329/351/336 328/350/336
f 335/356/328 333/354/328 332/353/328
f 333/369/329 338/359/329 337/358/329
f 342/363/336 335/363/336 334/371/336
f 339/360/331 338/359/331 342/363/331
f 344/365/332 343/364/332 337/358/332
f 348/368/336 341/362/336 340/361/336
f 345/366/334 344/365/334 348/368/334
f 345/366/389 320/342/389 319/341/389
f 347/346/390 346/367/390 322/344/390
f 343/364/337 319/341/337 325/347/337
f 325/347/337 331/370/337 337/358/337
f 321/343/391 323/345/391 330/345/391
f 345/366/336 347/346/336 324/346/336
f 334/371/340 328/350/340 322/344/340
f 322/344/340 346/367/340 340/361/340
f 327/349/336 329/351/336 336/357/336
f 333/369/336 335/363/336 342/363/336
f 339/360/336 341/362/336 348/368/336
usemtl cap
f 66/65/65 61/66/65 62/67/65
f 64/68/66 67/69/66 68/70/66
f 70/71/67 65/72/67 66/65/67
f 68/70/68 71/73/68 72/74/68
f 74/75/69 69/76/69 70/71/69
f 72/74/70 75/77/70 76/78/70
f 74/75/71 77/79/71 73/80/71
f 76/78/72 79/81/72 80/82/72
f 78/83/73 81/84/73 77/85/73
f 80/86/74 83/87/74 84/88/74
f 86/89/75 81/84/75 82/90/75
f 84/88/76 87/91/76 88/92/76
f 86/89/77 89/93/77 85/94/77
f 88/92/78 91/95/78 92/96/78
f 94/97/79 89/93/79 90/98/79
f 92/96/80 95/99/80 96/100/80
f 62/67/81 93/101/81 94/97/81
f 64/68/82 95/99/82 63/102/82
f 65/72/83 81/84/83 89/93/83
f 64/68/84 66/65/84 62/67/84
f 96/100/85 62/67/85 94/97/85
f 63/102/86 83/87/86 75/103/86
f 68/70/87 70/71/87 66/65/87
f 70/71/88 76/78/88 74/75/88
f 76/78/89 78/104/89 74/75/89
f 78/83/90 84/88/90 82/90/90
f 84/88/91 86/89/91 82/90/91
f 88/92/92 90/98/92 86/89/92
f 92/96/93 94/97/93 90/98/93
f 158/168/158 161/169/158 157/170/158
f 160/171/159 163/172/159 164/173/159
f 166/174/160 161/169/160 162/175/160
f 168/176/161 163/172/161 167/177/161
f 166/174/162 169/178/162 165/179/162
f 168/176/163 171/180/163 172/181/163
f 170/182/164 173/183/164 169/178/164
f 172/181/165 175/184/165 176/185/165
f 178/186/166 173/187/166 174/188/166
f 176/189/167 179/190/167 180/191/167
f 178/186/168 181/192/168 177/193/168
f 184/194/169 179/190/169 183/195/169
f 186/196/170 181/192/170 182/197/170
f 188/198/171 183/195/171 187/199/171
f 190/200/172 185/201/172 186/196/172
f 188/198/173 191/202/173 192/203/173
f 158/168/174 189/204/174 190/200/174
f 192/203/175 159/205/175 160/171/175
f 161/169/176 177/193/176 185/201/176
f 160/171/177 162/175/177 158/168/177
f 192/203/178 158/168/178 190/200/178
f 159/205/179 179/190/179 171/206/179
f 162/175/180 168/176/180 166/174/180
f 166/174/181 172/181/181 170/182/181
f 172/181/182 174/207/182 170/182/182
f 176/189/183 178/186/183 174/188/183
f 180/191/184 182/197/184 178/186/184
f 184/194/185 186/196/185 182/197/185
f 186/196/186 192/203/186 190/200/186
f 258/271/251 253/272/251 254/273/251
f 256/274/252 259/275/252 260/276/252
f 262/277/253 257/278/253 258/271/253
f 264/279/254 259/275/254 263/280/254
f 266/281/255 261/282/255 262/277/255
f 264/279/256 267/283/256 268/284/256
f 270/285/257 265/286/257 266/281/257
f 272/287/258 267/283/258 271/288/258
f 270/289/259 273/290/259 269/291/259
f 272/292/260 275/293/260 276/294/260
f 278/295/261 273/290/261 274/296/261
f 276/294/262 279/297/262 280/298/262
f 278/295/263 281/299/263 277/300/263
f 280/298/264 283/301/264 284/302/264
f 286/303/265 281/299/265 282/304/265
f 288/305/266 283/301/266 287/306/266
f 254/273/267 285/307/267 286/303/267
f 256/274/268 287/306/268 255/308/268
f 257/278/269 273/290/269 281/299/269
f 254/273/270 260/276/270 258/271/270
f 288/305/271 254/273/271 286/303/271
f 255/308/272 275/293/272 267/309/272
f 260/276/273 262/277/273 258/271/273
f 264/279/274 266/281/274 262/277/274
f 266/281/275 272/287/275 270/285/275
f 272/292/276 274/296/276 270/289/276
f 276/294/277 278/295/277 274/296/277
f 278/295/278 284/302/278 282/304/278
f 282/304/279 288/305/279 286/303/279
f 350/372/344 353/373/344 349/374/344
f 356/375/336 351/376/336 355/376/336
f 358/377/345 353/373/345 354/378/345
f 360/379/346 355/376/346 359/376/346
f 362/380/347 357/381/347 358/377/347
f 364/382/336 359/376/336 363/376/336
f 366/383/348 361/384/348 362/380/348
f 368/385/349 363/376/349 367/376/349
f 366/386/350 369/387/350 365/388/350
f 372/389/336 367/390/336 371/390/336
f 374/391/351 369/387/351 370/392/351
f 376/393/336 371/390/336 375/390/336
f 374/391/352 377/394/352 373/395/352
f 380/396/336 375/390/336 379/390/336
f 378/397/353 381/398/353 377/394/353
f 384/399/354 379/390/354 383/390/354
f 382/400/355 349/374/355 381/398/355
f 352/401/336 383/390/336 351/390/336
f 353/373/356 369/387/356 377/394/356
f 352/401/357 354/378/357 350/372/357
f 384/399/358 350/372/358 382/400/358
f 355/376/336 379/376/336 363/376/336
f 354/378/359 360/379/359 358/377/359
f 360/379/360 362/380/360 358/377/360
f 364/382/361 366/383/361 362/380/361
f 366/386/362 372/389/362 370/392/362
f 370/392/363 376/393/363 374/391/363
f 376/393/364 378/397/364 374/391/364
f 380/396/365 382/400/365 378/397/365
f 66/65/65 65/72/65 61/66/65
f 64/68/66 63/102/66 67/69/66
f 70/71/67 69/76/67 65/72/67
f 68/70/68 67/69/68 71/73/68
f 74/75/69 73/80/69 69/76/69
f 72/74/70 71/73/70 75/77/70
f 74/75/71 78/104/71 77/79/71
f 76/78/72 75/77/72 79/81/72
f 78/83/73 82/90/73 81/84/73
f 80/86/74 79/402/74 83/87/74
f 86/89/75 85/94/75 81/84/75
f 84/88/76 83/87/76 87/91/76
f 86/89/77 90/98/77 89/93/77
f 88/92/78 87/91/78 91/95/78
f 94/97/79 93/101/79 89/93/79
f 92/96/80 91/95/80 95/99/80
f 62/67/81 61/66/81 93/101/81
f 64/68/82 96/100/82 95/99/82
f 93/101/83 61/66/83 65/72/83
f 65/72/83 69/76/83 73/403/83
f 73/403/83 77/85/83 81/84/83
f 81/84/83 85/94/83 89/93/83
f 89/93/83 93/101/83 65/72/83
f 65/72/83 73/403/83 81/84/83
f 64/68/84 68/70/84 66/65/84
f 96/100/85 64/68/85 62/67/85
f 71/73/86 67/69/86 63/102/86
f 63/102/86 95/99/86 91/95/86
f 91/95/86 87/91/86 83/87/86
f 83/87/86 79/402/86 75/103/86
f 75/103/86 71/73/86 63/102/86
f 63/102/86 91/95/86 83/87/86
f 68/70/87 72/74/87 70/71/87
f 70/71/88 72/74/88 76/78/88
f 76/78/89 80/82/89 78/104/89
f 78/83/90 80/86/90 84/88/90
f 84/88/91 88/92/91 86/89/91
f 88/92/92 92/96/92 90/98/92
f 92/96/93 96/100/93 94/97/93
f 158/168/158 162/175/158 161/169/158
f 160/171/159 159/205/159 163/172/159
f 166/174/160 165/179/160 161/169/160
f 168/176/161 164/173/161 163/172/161
f 166/174/162 170/182/162 169/178/162
f 168/176/163 167/177/163 171/180/163
f 170/182/164 174/207/164 173/183/164
f 172/181/165 171/180/165 175/184/165
f 178/186/166 177/193/166 173/187/166
f 176/189/167 175/404/167 179/190/167
f 178/186/168 182/197/168 181/192/168
f 184/194/169 180/191/169 179/190/169
f 186/196/170 185/201/170 181/192/170
f 188/198/171 184/194/171 183/195/171
f 190/200/172 189/204/172 185/201/172
f 188/198/173 187/199/173 191/202/173
f 158/168/174 157/170/174 189/204/174
f 192/203/175 191/202/175 159/205/175
f 189/204/176 157/170/176 161/169/176
f 161/169/176 165/179/176 169/405/176
f 169/405/176 173/187/176 177/193/176
f 177/193/176 181/192/176 185/201/176
f 185/201/176 189/204/176 161/169/176
f 161/169/176 169/405/176 177/193/176
f 160/171/177 164/173/177 162/175/177
f 192/203/178 160/171/178 158/168/178
f 167/177/179 163/172/179 159/205/179
f 159/205/179 191/202/179 187/199/179
f 187/199/179 183/195/179 179/190/179
f 179/190/179 175/404/179 171/206/179
f 171/206/179 167/177/179 159/205/179
f 159/205/179 187/199/179 179/190/179
f 162/175/180 164/173/180 168/176/180
f 166/174/181 168/176/181 172/181/181
f 172/181/182 176/185/182 174/207/182
f 176/189/183 180/191/183 178/186/183
f 180/191/184 184/194/184 182/197/184
f 184/194/185 188/198/185 186/196/185
f 186/196/186 188/198/186 192/203/186
f 258/271/251 257/278/251 253/272/251
f 256/274/252 255/308/252 259/275/252
f 262/277/253 261/282/253 257/278/253
f 264/279/254 260/276/254 259/275/254
f 266/281/255 265/286/255 261/282/255
f 264/279/256 263/280/256 267/283/256
f 270/285/257 269/406/257 265/286/257
f 272/287/258 268/284/258 267/283/258
f 270/289/259 274/296/259 273/290/259
f 272/292/260 271/407/260 275/293/260
f 278/295/261 277/300/261 273/290/261
f 276/294/262 275/293/262 279/297/262
f 278/295/263 282/304/263 281/299/263
f 280/298/385 279/297/385 283/301/385
f 286/303/265 285/307/265 281/299/265
f 288/305/266 284/302/266 283/301/266
f 254/273/267 253/272/267 285/307/267
f 256/274/268 288/305/268 287/306/268
f 285/307/269 253/272/269 257/278/269
f 257/278/269 261/282/269 265/408/269
f 265/408/269 269/291/269 273/290/269
f 273/290/269 277/300/269 281/299/269
f 281/299/269 285/307/269 257/278/269
f 257/278/269 265/408/269 273/290/269
f 254/273/270 256/274/270 260/276/270
f 288/305/271 256/274/271 254/273/271
f 263/409/272 259/275/272 255/308/272
f 255/308/272 287/306/272 283/301/272
f 283/301/272 279/297/272 275/293/272
f 275/293/272 271/407/272 267/309/272
f 267/309/272 263/409/272 255/308/272
f 255/308/272 283/301/272 275/293/272
f 260/276/273 264/279/273 262/277/273
f 264/279/274 268/284/274 266/281/274
f 266/281/275 268/284/275 272/287/275
f 272/292/276 276/294/276 274/296/276
f 276/294/277 280/298/277 278/295/277
f 278/295/278 280/298/278 284/302/278
f 282/304/279 284/302/279 288/305/279
f 350/372/344 354/378/344 353/373/344
f 356/375/392 352/401/392 351/376/392
f 358/377/345 357/381/345 353/373/345
f 360/379/393 356/375/393 355/376/393
f 362/380/347 361/384/347 357/381/347
f 364/382/394 360/379/394 359/376/394
f 366/383/348 365/410/348 361/384/348
f 368/385/395 364/382/395 363/376/395
f 366/386/350 370/392/350 369/387/350
f 372/389/396 368/411/396 367/390/396
f 374/391/351 373/395/351 369/387/351
f 376/393/397 372/389/397 371/390/397
f 374/391/352 378/397/352 377/394/352
f 380/396/398 376/393/398 375/390/398
f 378/397/353 382/400/353 381/398/353
f 384/399/399 380/396/399 379/390/399
f 382/400/355 350/372/355 349/374/355
f 352/401/400 384/399/400 383/390/400
f 381/398/356 349/374/356 353/373/356
f 353/373/356 357/381/356 361/412/356
f 361/412/356 365/388/356 369/387/356
f 369/387/356 373/395/356 377/394/356
f 377/394/356 381/398/356 353/373/356
f 353/373/356 361/412/356 369/387/356
f 352/401/357 356/375/357 354/378/357
f 384/399/358 352/401/358 350/372/358
f 355/376/336 351/376/336 383/376/336
f 379/376/336 375/376/336 371/376/336
f 379/376/336 371/376/336 367/376/336
f 363/376/336 359/376/336 355/376/336
f 379/376/336 367/376/336 363/376/336
f 355/376/336 383/376/336 379/376/336
f 354/378/359 356/375/359 360/379/359
f 360/379/360 364/382/360 362/380/360
f 364/382/361 368/385/361 366/383/361
f 366/386/362 368/411/362 372/389/362
f 370/392/363 372/389/363 376/393/363
f 376/393/364 380/396/364 378/397/364
f 380/396/365 384/399/365 382/400/365
