# Blender 4.5.10 LTS
# www.blender.org
mtllib thicket_thistle.mtl
o thistle_rosette
v -0.041312 0.027847 0.071567
v -0.040301 0.030240 0.070216
v -0.042324 0.030240 0.070216
v -0.041312 0.044366 -0.064551
v -0.042324 0.046271 -0.061885
v -0.040301 0.046271 -0.061885
v -0.062097 -0.006580 0.061042
v -0.064243 -0.006065 0.059116
v -0.063231 -0.007741 0.058604
v -0.041312 0.044366 -0.064551
v -0.043060 0.041701 -0.063282
v -0.044071 0.043377 -0.062770
v -0.020528 -0.006580 0.061042
v -0.019394 -0.007741 0.058604
v -0.018382 -0.006065 0.059116
v -0.041312 0.044366 -0.064551
v -0.038553 0.043377 -0.062770
v -0.039565 0.041701 -0.063282
v 0.039345 0.027847 0.072668
v 0.038723 0.030240 0.071098
v 0.037664 0.030240 0.072822
v -0.076626 0.044366 0.001401
v -0.074884 0.046271 0.003659
v -0.073825 0.046271 0.001935
v 0.019496 -0.006580 0.084865
v 0.016731 -0.006065 0.085685
v 0.016825 -0.007741 0.084555
v -0.076626 0.044366 0.001401
v -0.076460 0.041701 0.003554
v -0.076553 0.043377 0.004685
v 0.041260 -0.006580 0.049449
v 0.039776 -0.007741 0.047206
v 0.040742 -0.006065 0.046612
v -0.076626 0.044366 0.001401
v -0.073664 0.043377 -0.000017
v -0.074630 0.041701 0.000577
v 0.082511 0.027847 0.004524
v 0.080849 0.030240 0.004232
v 0.081763 0.030240 0.006037
v -0.038924 0.044366 0.066018
v -0.036089 0.046271 0.065716
v -0.037003 0.046271 0.063911
v 0.082511 -0.006580 0.027822
v 0.081763 -0.006065 0.030606
v 0.080848 -0.007741 0.029935
v -0.038924 0.044366 0.066018
v -0.037003 0.041701 0.067004
v -0.036089 0.043377 0.067675
v 0.063732 -0.006580 -0.009263
v 0.061044 -0.007741 -0.009174
v 0.061044 -0.006065 -0.010308
v -0.038924 0.044366 0.066018
v -0.038582 0.043377 0.062752
v -0.038582 0.041701 0.063886
v 0.047055 0.027847 -0.067930
v 0.045935 0.030240 -0.066666
v 0.047952 0.030240 -0.066500
v 0.035867 0.044366 0.067728
v 0.037095 0.046271 0.065154
v 0.035078 0.046271 0.064988
v 0.066904 -0.006580 -0.055732
v 0.068884 -0.006065 -0.053636
v 0.067834 -0.007741 -0.053209
v 0.035867 0.044366 0.067728
v 0.037713 0.041701 0.066607
v 0.038764 0.043377 0.066179
v 0.025475 -0.006580 -0.059148
v 0.024145 -0.007741 -0.056812
v 0.023178 -0.006065 -0.057406
v 0.035867 0.044366 0.067728
v 0.033264 0.043377 0.065726
v 0.034230 0.041701 0.066320
v -0.033240 0.027847 -0.075655
v -0.032749 0.030240 -0.074040
v -0.031552 0.030240 -0.075671
v 0.076482 0.044366 0.004901
v 0.074932 0.046271 0.002508
v 0.073734 0.046271 0.004139
v -0.012455 -0.006580 -0.086180
v -0.009633 -0.006065 -0.086770
v -0.009818 -0.007741 -0.085652
v 0.076482 0.044366 0.004901
v 0.076493 0.041701 0.002742
v 0.076679 0.043377 0.001623
v -0.037056 -0.006580 -0.052672
v -0.035762 -0.007741 -0.050315
v -0.036774 -0.006065 -0.049803
v 0.076482 0.044366 0.004901
v 0.073413 0.043377 0.006071
v 0.074425 0.041701 0.005559
v -0.081861 0.027847 -0.011290
v -0.080227 0.030240 -0.010863
v -0.080990 0.030240 -0.012737
v 0.044218 0.044366 -0.062596
v 0.041368 0.046271 -0.062528
v 0.042131 0.046271 -0.060654
v -0.079945 -0.006580 -0.034509
v -0.078971 -0.006065 -0.037223
v -0.078115 -0.007741 -0.036479
v 0.044218 0.044366 -0.062596
v 0.042385 0.041701 -0.063736
v 0.041529 0.043377 -0.064480
v -0.064277 -0.006580 0.003994
v -0.061592 -0.007741 0.004125
v -0.061685 -0.006065 0.005256
v 0.044218 0.044366 -0.062596
v 0.043609 0.043377 -0.059369
v 0.043702 0.041701 -0.060499
v -0.052478 0.027847 0.063833
v -0.051259 0.030240 0.062665
v -0.053255 0.030240 0.062334
v -0.030180 0.044366 -0.070446
v -0.031614 0.046271 -0.067982
v -0.029618 0.046271 -0.067651
v -0.071258 -0.006580 0.050045
v -0.073059 -0.006065 0.047794
v -0.071977 -0.007741 0.047454
v -0.030180 0.044366 -0.070446
v -0.032111 0.041701 -0.069481
v -0.033193 0.043377 -0.069141
v -0.030250 -0.006580 0.056855
v -0.028732 -0.007741 0.054635
v -0.027818 -0.006065 0.055306
v -0.030180 0.044366 -0.070446
v -0.027750 0.043377 -0.068237
v -0.028664 0.041701 -0.068909
v 0.003286 0.018897 0.009785
v 0.007069 0.022712 0.008929
v 0.001070 0.022746 0.012926
v -0.005827 0.068637 -0.004318
v -0.006653 0.064906 0.000972
v -0.000655 0.064872 -0.003025
v -0.013558 0.018853 0.012141
v -0.010584 0.022716 0.014557
v -0.017449 0.022648 0.012360
v -0.008920 0.068629 -0.003886
v -0.013518 0.064839 -0.001225
v -0.006653 0.064906 0.000972
v -0.025901 0.018609 0.000444
v -0.025990 0.022479 0.004266
v -0.028552 0.022360 -0.002471
v -0.011187 0.068584 -0.006034
v -0.016080 0.064720 -0.007961
v -0.013518 0.064839 -0.001225
v -0.024450 0.018348 -0.016500
v -0.027548 0.022180 -0.014195
v -0.023878 0.022099 -0.020398
v -0.010920 0.068536 -0.009145
v -0.012410 0.064639 -0.014164
v -0.016080 0.064720 -0.007961
v -0.010297 0.018267 -0.025931
v -0.014084 0.022043 -0.026923
v -0.006946 0.022062 -0.027922
v -0.008321 0.068521 -0.010877
v -0.005272 0.064658 -0.015163
v -0.012410 0.064639 -0.014164
v 0.005901 0.018427 -0.020747
v 0.004262 0.022172 -0.024335
v 0.009493 0.022276 -0.019378
v -0.005346 0.068551 -0.009925
v -0.000040 0.064761 -0.010205
v -0.005272 0.064658 -0.015163
v 0.011946 0.018707 -0.004852
v 0.013676 0.022470 -0.008379
v 0.013061 0.022581 -0.001199
v -0.004236 0.068602 -0.007006
v -0.000655 0.064872 -0.003025
v -0.000040 0.064761 -0.010205
vn -0.0000 0.4917 0.8708
vn -0.0000 0.8135 -0.5816
vn -0.6277 -0.5480 0.5529
vn -0.5265 -0.0585 -0.8482
vn 0.6277 -0.5480 0.5529
vn 0.5265 -0.0585 -0.8482
vn -0.6389 0.1554 0.7534
vn -0.0000 1.0000 -0.0000
vn -0.0000 0.9927 0.1205
vn -0.8527 -0.4196 -0.3113
vn -0.0000 -0.9029 0.4299
vn 0.8527 -0.4196 -0.3113
vn 0.6389 0.1554 0.7534
vn -0.0000 -0.2924 0.9563
vn -0.8626 0.5022 0.0609
vn 0.8626 0.5022 0.0609
vn -0.0000 -0.9267 -0.3759
vn 0.7419 0.4917 0.4559
vn -0.4955 0.8135 -0.3045
vn 0.1424 -0.5480 0.8243
vn -0.9983 -0.0585 0.0045
vn 0.7997 -0.5480 -0.2453
vn -0.4470 -0.0585 -0.8926
vn 0.3074 0.1554 0.9388
vn 0.1026 0.9927 0.0631
vn -0.7117 -0.4196 0.5635
vn 0.3663 -0.9029 0.2251
vn 0.1812 -0.4196 -0.8894
vn 0.9764 0.1554 -0.1499
vn 0.8148 -0.2924 0.5007
vn -0.3997 0.5022 0.7669
vn 0.5036 0.5022 -0.7030
vn -0.3203 -0.9267 -0.1968
vn 0.7768 0.4917 -0.3934
vn -0.5188 0.8135 0.2627
vn 0.7768 -0.5480 0.3102
vn -0.5188 -0.0585 0.8529
vn 0.2097 -0.5480 -0.8098
vn -0.9945 -0.0585 -0.0865
vn 0.9608 0.1554 0.2296
vn 0.1075 0.9927 -0.0544
vn 0.1075 -0.4196 0.9013
vn 0.3835 -0.9029 -0.1942
vn -0.6629 -0.4196 -0.6200
vn 0.3835 0.1554 -0.9104
vn 0.8532 -0.2924 -0.4320
vn 0.4441 0.5022 0.7420
vn -0.3353 0.5022 -0.7971
vn -0.3353 -0.9267 0.1698
vn 0.0716 0.4917 -0.8678
vn -0.0478 0.8135 0.5796
vn 0.6710 -0.5480 -0.4994
vn 0.4550 -0.0585 0.8886
vn -0.5801 -0.5480 -0.6026
vn -0.5944 -0.0585 0.8020
vn 0.6987 0.1554 -0.6984
vn 0.0099 0.9927 -0.1201
vn 0.8242 -0.4196 0.3803
vn 0.0353 -0.9029 -0.4284
vn -0.8754 -0.4196 0.2402
vn -0.5748 0.1554 -0.8034
vn 0.0786 -0.2924 -0.9531
vn 0.8647 0.5022 0.0102
vn -0.8547 0.5022 -0.1316
vn -0.0309 -0.9267 0.3746
vn -0.7019 0.4917 -0.5153
vn 0.4688 0.8135 0.3442
vn -0.0742 -0.5480 -0.8332
vn 0.9953 -0.0585 0.0776
vn -0.8172 -0.5480 0.1788
vn 0.3721 -0.0585 0.9263
vn -0.2292 0.1554 -0.9609
vn -0.0971 0.9927 -0.0713
vn 0.7556 -0.4196 -0.5031
vn -0.3465 -0.9029 -0.2544
vn -0.2537 -0.4196 0.8715
vn -0.9854 0.1554 0.0691
vn -0.7709 -0.2924 -0.5660
vn 0.4614 0.5022 -0.7314
vn -0.5596 0.5022 0.6593
vn 0.3030 -0.9267 0.2225
vn -0.8065 0.4917 0.3282
vn 0.5387 0.8135 -0.2192
vn -0.7487 -0.5480 -0.3730
vn 0.5872 -0.0585 -0.8073
vn -0.2755 -0.5480 0.7898
vn 0.9841 -0.0585 0.1680
vn -0.9387 0.1554 -0.3078
vn -0.1116 0.9927 0.0454
vn -0.0330 -0.4196 -0.9071
vn -0.3982 -0.9029 0.1620
vn 0.6097 -0.4196 0.6724
vn -0.4570 0.1554 0.8758
vn -0.8858 -0.2924 0.3604
vn -0.3816 0.5022 -0.7760
vn 0.2687 0.5022 0.8220
vn 0.3482 -0.9267 -0.1417
vn -0.1426 0.4917 0.8590
vn 0.0953 0.8135 -0.5737
vn -0.7098 -0.5480 0.4426
vn -0.3804 -0.0585 -0.9230
vn 0.5287 -0.5480 0.6482
vn 0.6583 -0.0585 -0.7505
vn -0.7537 0.1554 0.6386
vn -0.0000 -0.0683 -0.9977
vn -0.0197 0.9927 0.1188
vn -0.7901 -0.4196 -0.4468
vn -0.0704 -0.9029 0.4241
vn -0.0000 0.0342 0.9994
vn 0.8921 -0.4196 -0.1674
vn 0.5069 0.1554 0.8479
vn -0.0000 -1.0000 -0.0000
vn -0.1567 -0.2924 0.9434
vn -0.8610 0.5022 -0.0812
vn 0.8410 0.5022 0.2014
vn 0.0616 -0.9267 -0.3708
vn 0.5201 -0.3400 0.7835
vn 0.3848 0.7249 0.5713
vn -0.2833 -0.3421 0.8959
vn -0.2169 0.7233 0.6555
vn -0.8722 -0.3538 0.3379
vn -0.6579 0.7146 0.2376
vn -0.8029 -0.3662 -0.4703
vn -0.6061 0.7053 -0.3677
vn -0.1278 -0.3701 -0.9202
vn -0.1004 0.7024 -0.7047
vn 0.6449 -0.3624 -0.6729
vn 0.4783 0.7081 -0.5195
vn 0.9332 -0.3491 0.0853
vn 0.6942 0.7181 0.0484
vn 0.1136 -0.5881 0.8008
vn 0.0794 0.8088 0.5827
vn 0.5266 0.3198 0.7876
vn -0.2919 0.3177 0.9022
vn -0.5468 -0.5946 0.5894
vn -0.0000 0.6000 -0.8000
vn -0.8917 0.3058 0.3337
vn -0.7933 -0.6061 -0.0586
vn -0.6029 0.7953 -0.0639
vn -0.8212 0.2931 -0.4897
vn -0.4402 -0.6138 -0.6554
vn -0.3372 0.7894 -0.5129
vn -0.1334 0.2892 -0.9479
vn 0.2465 -0.6120 -0.7514
vn 0.1795 0.7908 -0.5852
vn 0.6537 0.2970 -0.6960
vn 0.7498 -0.6021 -0.2745
vn 0.5581 0.7983 -0.2263
vn 0.9475 0.3106 0.0764
vn 0.6906 -0.5914 0.4163
vn 0.5136 0.8063 0.2934
vn 0.0048 -0.9999 0.0158
vn 0.1318 0.2927 0.9471
vn 0.8256 0.2887 0.4847
vn -0.0048 0.9999 -0.0158
vn -0.6623 0.2848 0.6930
vn -0.9587 0.2711 -0.0863
vn -0.5341 0.2618 -0.8039
vn 0.2916 0.2639 -0.9194
vn 0.8968 0.2759 -0.3459
vn -0.5846 0.5385 -0.6068
vn -0.0000 -0.4299 -0.9029
vn 0.5846 0.5385 -0.6068
vn -0.8231 0.5385 0.1804
vn -0.7692 -0.4299 -0.4727
vn -0.2109 0.5385 -0.8158
vn -0.2773 0.5385 0.7957
vn -0.8055 -0.4299 0.4079
vn -0.8055 0.5385 -0.2474
vn 0.5328 0.5385 0.6528
vn -0.0742 -0.4299 0.8998
vn -0.6325 0.5385 0.5567
vn 0.8351 0.5385 -0.1121
vn 0.7278 -0.4299 0.5343
vn 0.1432 0.5385 0.8304
vn 0.3417 0.5385 -0.7702
vn 0.8363 -0.4299 -0.3403
vn 0.7824 0.5385 0.3128
vn -0.4773 0.5385 -0.6944
vn 0.1479 -0.4299 -0.8907
vn 0.6761 0.5385 -0.5029
vn -0.4175 0.8039 0.4237
vn -0.8000 0.6000 -0.0000
vt 0.750000 0.455714
vt 0.740045 0.472686
vt 0.759955 0.472686
vt 0.250000 0.250000
vt 0.301500 0.400799
vt 0.198500 0.400799
vt 0.928154 0.147143
vt 0.947829 0.147279
vt 0.937874 0.130036
vt 0.250000 0.250000
vt 0.354846 0.130000
vt 0.406346 0.219201
vt 0.571846 0.147143
vt 0.562126 0.130036
vt 0.552171 0.147279
vt 0.250000 0.250000
vt 0.093654 0.219201
vt 0.145154 0.130000
vt 0.086398 0.992622
vt -0.000000 0.508497
vt 0.014956 0.507378
vt 0.651710 0.507378
vt 0.753065 0.992622
vt 0.580269 0.992622
vt 0.246935 0.992622
vt 0.348289 0.507378
vt 0.419731 0.992622
vt 0.913602 0.992622
vt 0.681623 0.507378
vt 0.985044 0.507378
vt 0.318377 0.507378
vt 0.571846 0.147143
vt 0.750000 0.455714
vt 0.250000 0.250000
vt 0.750000 0.445993
vt 0.710036 0.468605
vt 0.789964 0.468605
vt 0.250000 0.357979
vt 0.343820 0.444819
vt 0.156180 0.444819
vt 0.903234 0.372200
vt 0.895995 0.417543
vt 0.945829 0.355052
vt 0.334421 0.317324
vt 0.460811 0.298116
vt 0.941079 0.206387
vt 0.972017 0.240318
vt 0.954231 0.162394
vt 0.355272 0.225972
vt 0.419057 0.115181
vt 0.460811 0.298116
vt 0.835038 0.073416
vt 0.880856 0.070384
vt 0.808842 0.035704
vt 0.296850 0.152714
vt 0.250000 0.033767
vt 0.419057 0.115181
vt 0.664962 0.073416
vt 0.691158 0.035704
vt 0.619144 0.070384
vt 0.203150 0.152714
vt 0.080943 0.115181
vt 0.250000 0.033767
vt 0.558921 0.206388
vt 0.545769 0.162394
vt 0.527983 0.240318
vt 0.144728 0.225972
vt 0.039189 0.298116
vt 0.080943 0.115181
vt 0.596767 0.372200
vt 0.554171 0.355052
vt 0.604005 0.417543
vt 0.165579 0.317324
vt 0.039189 0.298116
vt 0.029698 0.538097
vt 0.000000 0.966941
vt 0.000000 0.543135
vt 0.785714 0.961903
vt 0.886841 0.538097
vt 0.928571 0.961903
vt 0.684588 0.538097
vt 0.642857 0.961903
vt 0.541731 0.538097
vt 0.642857 0.961903
vt 0.500000 0.961903
vt 0.398874 0.538097
vt 0.500000 0.961903
vt 0.357143 0.961903
vt 0.214286 0.961903
vt 0.315412 0.538097
vt 0.113160 0.538097
vt 0.214286 0.961903
vt 0.071429 0.961903
vt 0.970302 0.538097
vt 0.071429 0.961903
vt 0.743983 0.538097
vt 0.827445 0.538097
vt 0.601126 0.538097
vt 0.458269 0.538097
vt 0.256017 0.538097
vt 0.172555 0.538097
vt -0.000000 0.993740
vt 0.928571 0.961903
s 0
usemtl moss
f 1/1/1 2/2/1 3/3/1
f 4/4/2 5/5/2 6/6/2
f 7/7/3 8/8/3 9/9/3
f 10/10/4 11/11/4 12/12/4
f 13/13/5 14/14/5 15/15/5
f 16/16/6 17/17/6 18/18/6
f 3/3/7 7/7/7 1/1/7
f 12/12/8 4/4/8 10/10/8
f 6/19/9 3/20/9 2/21/9
f 9/22/10 12/23/10 11/24/10
f 14/14/11 7/7/11 9/9/11
f 18/18/8 10/10/8 16/16/8
f 17/25/12 14/26/12 18/27/12
f 2/2/13 13/13/13 15/15/13
f 6/6/8 16/16/8 4/4/8
f 1/1/14 7/7/14 13/13/14
f 5/28/15 8/29/15 3/30/15
f 17/25/16 2/21/16 15/31/16
f 10/10/8 4/4/8 16/16/8
f 11/24/17 14/26/17 9/22/17
f 19/1/18 20/2/18 21/3/18
f 22/4/19 23/5/19 24/6/19
f 25/7/20 26/8/20 27/9/20
f 28/10/21 29/11/21 30/12/21
f 31/32/22 32/14/22 33/15/22
f 34/16/23 35/17/23 36/18/23
f 21/3/24 25/7/24 19/1/24
f 30/12/8 22/4/8 28/10/8
f 24/19/25 21/20/25 20/21/25
f 27/22/26 30/23/26 29/24/26
f 27/9/27 31/32/27 25/7/27
f 36/18/8 28/10/8 34/16/8
f 33/31/28 36/27/28 35/25/28
f 20/2/29 31/32/29 33/15/29
f 24/6/8 34/16/8 22/4/8
f 19/1/30 25/7/30 31/32/30
f 23/28/31 26/29/31 21/30/31
f 35/25/32 20/21/32 33/31/32
f 28/10/8 22/4/8 34/16/8
f 29/24/33 32/26/33 27/22/33
f 37/1/34 38/2/34 39/3/34
f 40/4/35 41/5/35 42/6/35
f 43/7/36 44/8/36 45/9/36
f 46/10/37 47/11/37 48/12/37
f 49/32/38 50/14/38 51/15/38
f 52/16/39 53/17/39 54/18/39
f 39/3/40 43/7/40 37/1/40
f 48/12/8 40/4/8 46/10/8
f 42/19/41 39/20/41 38/21/41
f 45/22/42 48/23/42 47/24/42
f 50/14/43 43/7/43 45/9/43
f 54/18/8 46/10/8 52/16/8
f 51/31/44 54/27/44 53/25/44
f 38/2/45 49/32/45 51/15/45
f 42/6/8 52/16/8 40/4/8
f 37/1/46 43/7/46 49/32/46
f 41/28/47 44/29/47 39/30/47
f 53/25/48 38/21/48 51/31/48
f 46/10/8 40/4/8 52/16/8
f 47/24/49 50/26/49 45/22/49
f 55/33/50 56/2/50 57/3/50
f 58/4/51 59/5/51 60/6/51
f 61/7/52 62/8/52 63/9/52
f 64/34/53 65/11/53 66/12/53
f 67/32/54 68/14/54 69/15/54
f 70/16/55 71/17/55 72/18/55
f 62/8/56 55/33/56 57/3/56
f 66/12/8 58/4/8 64/34/8
f 60/19/57 57/20/57 56/21/57
f 63/22/58 66/23/58 65/24/58
f 68/14/59 61/7/59 63/9/59
f 72/18/8 64/34/8 70/16/8
f 69/31/60 72/27/60 71/25/60
f 56/2/61 67/32/61 69/15/61
f 60/6/8 70/16/8 58/4/8
f 55/33/62 61/7/62 67/32/62
f 57/30/63 66/23/63 62/29/63
f 71/25/64 56/21/64 69/31/64
f 64/34/8 58/4/8 70/16/8
f 65/24/65 68/26/65 63/22/65
f 73/33/66 74/2/66 75/3/66
f 76/4/67 77/5/67 78/6/67
f 79/7/68 80/8/68 81/9/68
f 82/10/69 83/11/69 84/12/69
f 85/32/70 86/14/70 87/15/70
f 88/16/71 89/17/71 90/18/71
f 80/8/72 73/33/72 75/3/72
f 84/12/8 76/4/8 82/10/8
f 78/19/73 75/20/73 74/21/73
f 83/24/74 80/29/74 84/23/74
f 81/9/75 85/32/75 79/7/75
f 90/18/8 82/10/8 88/16/8
f 89/25/76 86/26/76 90/27/76
f 87/15/77 73/33/77 85/32/77
f 78/6/8 88/16/8 76/4/8
f 73/33/78 79/7/78 85/32/78
f 77/28/79 80/29/79 75/30/79
f 89/25/80 74/21/80 87/31/80
f 82/10/8 76/4/8 88/16/8
f 81/22/81 90/27/81 86/26/81
f 91/1/82 92/2/82 93/3/82
f 94/4/83 95/5/83 96/6/83
f 97/7/84 98/8/84 99/9/84
f 100/10/85 101/11/85 102/12/85
f 103/32/86 104/14/86 105/15/86
f 106/16/87 107/17/87 108/18/87
f 98/8/88 91/1/88 93/3/88
f 102/12/8 94/4/8 100/10/8
f 96/19/89 93/20/89 92/21/89
f 101/24/90 98/29/90 102/23/90
f 104/14/91 97/7/91 99/9/91
f 108/18/8 100/10/8 106/16/8
f 105/31/92 108/27/92 107/25/92
f 105/15/93 91/1/93 103/32/93
f 96/6/8 106/16/8 94/4/8
f 91/1/94 97/7/94 103/32/94
f 93/30/95 102/23/95 98/29/95
f 107/25/96 92/21/96 105/31/96
f 100/10/8 94/4/8 106/16/8
f 101/24/97 104/26/97 99/22/97
f 109/1/98 110/2/98 111/3/98
f 112/4/99 113/5/99 114/6/99
f 115/7/100 116/8/100 117/9/100
f 118/10/101 119/11/101 120/12/101
f 121/32/102 122/14/102 123/15/102
f 124/16/103 125/17/103 126/18/103
f 111/3/104 115/7/104 109/1/104
f 120/12/105 112/4/105 118/10/105
f 114/19/106 111/20/106 110/21/106
f 119/24/107 116/29/107 120/23/107
f 122/14/108 115/7/108 117/9/108
f 126/18/109 118/10/109 124/16/109
f 123/31/110 126/27/110 125/25/110
f 110/2/111 121/32/111 123/15/111
f 114/6/112 124/16/112 112/4/112
f 109/1/113 115/7/113 121/32/113
f 113/28/114 116/29/114 111/30/114
f 125/25/115 110/21/115 123/31/115
f 118/10/8 112/4/8 124/16/8
f 119/24/116 122/26/116 117/22/116
f 3/3/7 8/8/7 7/7/7
f 12/12/161 5/5/161 4/4/161
f 6/19/9 5/102/9 3/20/9
f 9/22/10 8/29/10 12/23/10
f 14/14/11 13/13/11 7/7/11
f 18/18/162 11/11/162 10/10/162
f 17/25/12 15/31/12 14/26/12
f 2/2/13 1/1/13 13/13/13
f 6/6/163 17/17/163 16/16/163
f 5/28/15 12/23/15 8/29/15
f 17/25/16 6/19/16 2/21/16
f 11/24/17 18/27/17 14/26/17
f 21/3/24 26/8/24 25/7/24
f 30/12/164 23/5/164 22/4/164
f 24/19/25 23/102/25 21/20/25
f 27/22/26 26/29/26 30/23/26
f 27/9/27 32/14/27 31/32/27
f 36/18/165 29/11/165 28/10/165
f 33/31/28 32/26/28 36/27/28
f 20/2/29 19/1/29 31/32/29
f 24/6/166 35/17/166 34/16/166
f 23/28/31 30/23/31 26/29/31
f 35/25/32 24/19/32 20/21/32
f 29/24/33 36/27/33 32/26/33
f 39/3/40 44/8/40 43/7/40
f 48/12/167 41/5/167 40/4/167
f 42/19/41 41/102/41 39/20/41
f 45/22/42 44/29/42 48/23/42
f 50/14/43 49/32/43 43/7/43
f 54/18/168 47/11/168 46/10/168
f 51/31/44 50/26/44 54/27/44
f 38/2/45 37/1/45 49/32/45
f 42/6/169 53/17/169 52/16/169
f 41/28/47 48/23/47 44/29/47
f 53/25/48 42/19/48 38/21/48
f 47/24/49 54/27/49 50/26/49
f 62/8/56 61/7/56 55/33/56
f 66/12/170 59/5/170 58/4/170
f 60/19/57 59/102/57 57/20/57
f 63/22/58 62/29/58 66/23/58
f 68/14/59 67/32/59 61/7/59
f 72/18/171 65/11/171 64/34/171
f 69/31/60 68/26/60 72/27/60
f 56/2/61 55/33/61 67/32/61
f 60/6/172 71/17/172 70/16/172
f 57/30/63 59/28/63 66/23/63
f 71/25/64 60/19/64 56/21/64
f 65/24/65 72/27/65 68/26/65
f 80/8/72 79/7/72 73/33/72
f 84/12/173 77/5/173 76/4/173
f 78/19/73 77/102/73 75/20/73
f 83/24/74 81/22/74 80/29/74
f 81/9/75 86/14/75 85/32/75
f 90/18/174 83/11/174 82/10/174
f 89/25/76 87/31/76 86/26/76
f 87/15/77 74/2/77 73/33/77
f 78/6/175 89/17/175 88/16/175
f 77/28/79 84/23/79 80/29/79
f 89/25/80 78/19/80 74/21/80
f 81/22/81 83/24/81 90/27/81
f 98/8/88 97/7/88 91/1/88
f 102/12/176 95/5/176 94/4/176
f 96/19/89 95/102/89 93/20/89
f 101/24/90 99/22/90 98/29/90
f 104/14/91 103/32/91 97/7/91
f 108/18/177 101/11/177 100/10/177
f 105/31/92 104/26/92 108/27/92
f 105/15/93 92/2/93 91/1/93
f 96/6/178 107/17/178 106/16/178
f 93/30/95 95/28/95 102/23/95
f 107/25/96 96/19/96 92/21/96
f 101/24/97 108/27/97 104/26/97
f 111/3/104 116/8/104 115/7/104
f 120/12/179 113/5/179 112/4/179
f 114/19/106 113/102/106 111/20/106
f 119/24/107 117/22/107 116/29/107
f 122/14/108 121/32/108 115/7/108
f 126/18/180 119/11/180 118/10/180
f 123/31/110 122/26/110 126/27/110
f 110/2/111 109/1/111 121/32/111
f 114/6/181 125/17/181 124/16/181
f 113/28/114 120/23/114 116/29/114
f 125/25/115 114/19/115 110/21/115
f 119/24/116 126/27/116 122/26/116
usemtl bud
f 127/35/117 128/36/117 129/37/117
f 130/38/118 131/39/118 132/40/118
f 133/41/119 134/42/119 135/43/119
f 136/44/120 137/45/120 138/39/120
f 139/46/121 140/47/121 141/48/121
f 142/49/122 143/50/122 144/51/122
f 145/52/123 146/53/123 147/54/123
f 148/55/124 149/56/124 150/57/124
f 151/58/125 152/59/125 153/60/125
f 154/61/126 155/62/126 156/63/126
f 157/64/127 158/65/127 159/66/127
f 160/67/128 161/68/128 162/69/128
f 163/70/129 164/71/129 165/72/129
f 166/73/130 167/40/130 168/74/130
f 134/42/131 127/35/131 129/37/131
f 138/39/132 130/38/132 136/44/132
f 128/75/133 131/76/133 129/77/133
f 137/78/134 134/79/134 138/80/134
f 135/43/135 139/46/135 133/41/135
f 137/45/136 142/49/136 144/51/136
f 141/81/137 144/78/137 143/82/137
f 146/53/138 139/46/138 141/48/138
f 150/57/139 142/49/139 148/55/139
f 147/83/140 150/84/140 149/85/140
f 147/54/141 151/58/141 145/52/141
f 156/63/142 148/55/142 154/61/142
f 153/86/143 156/87/143 155/88/143
f 158/65/144 151/58/144 153/60/144
f 162/69/145 154/61/145 160/67/145
f 161/89/146 158/90/146 162/88/146
f 164/71/147 157/64/147 159/66/147
f 168/74/148 160/67/148 166/73/148
f 165/91/149 168/92/149 167/93/149
f 165/72/150 127/35/150 163/70/150
f 132/40/151 166/73/151 130/38/151
f 133/41/152 145/52/152 157/64/152
f 129/94/153 138/80/153 134/79/153
f 165/91/154 132/95/154 128/75/154
f 130/38/155 160/67/155 148/55/155
f 137/78/156 140/96/156 135/97/156
f 141/81/157 150/84/157 146/98/157
f 147/83/158 156/87/158 152/99/158
f 153/86/159 162/88/159 158/90/159
f 159/100/160 168/92/160 164/101/160
f 134/42/131 133/41/131 127/35/131
f 138/39/8 131/39/8 130/38/8
f 128/75/133 132/95/133 131/76/133
f 137/78/134 135/97/134 134/79/134
f 135/43/135 140/47/135 139/46/135
f 137/45/182 136/44/182 142/49/182
f 141/81/137 140/96/137 144/78/137
f 146/53/138 145/52/138 139/46/138
f 150/57/8 143/50/8 142/49/8
f 147/83/140 146/98/140 150/84/140
f 147/54/141 152/59/141 151/58/141
f 156/63/8 149/56/8 148/55/8
f 153/86/143 152/99/143 156/87/143
f 158/65/144 157/64/144 151/58/144
f 162/69/8 155/62/8 154/61/8
f 161/89/146 159/100/146 158/90/146
f 164/71/147 163/70/147 157/64/147
f 168/74/8 161/68/8 160/67/8
f 165/91/149 164/101/149 168/92/149
f 165/72/150 128/36/150 127/35/150
f 132/40/8 167/40/8 166/73/8
f 163/70/152 127/35/152 133/41/152
f 133/41/152 139/46/152 145/52/152
f 145/52/152 151/58/152 157/64/152
f 157/64/152 163/70/152 133/41/152
f 129/94/8 131/103/8 138/80/8
f 165/91/8 167/93/8 132/95/8
f 142/49/155 136/44/155 130/38/155
f 130/38/155 166/73/155 160/67/155
f 160/67/155 154/61/155 148/55/155
f 148/55/155 142/49/155 130/38/155
f 137/78/183 144/78/183 140/96/183
f 141/81/8 143/82/8 150/84/8
f 147/83/8 149/85/8 156/87/8
f 153/86/8 155/88/8 162/88/8
f 159/100/8 161/89/8 168/92/8
