# Blender 4.5.10 LTS
# www.blender.org
mtllib thicket_bush.mtl
o bush_tuft
v 0.003058 0.002211 0.007709
v 0.008363 0.008993 0.007917
v -0.000661 0.008993 0.011497
v -0.012766 0.156359 -0.032179
v -0.015298 0.151580 -0.025400
v -0.006274 0.151580 -0.028980
v -0.006643 0.000683 0.005393
v -0.007133 0.007974 0.009952
v -0.013211 0.005596 0.002765
v -0.020478 0.155144 -0.034021
v -0.026009 0.148473 -0.033693
v -0.019930 0.150851 -0.026506
v -0.007164 -0.001789 -0.004377
v -0.013559 0.003947 -0.003752
v -0.008291 0.002477 -0.011774
v -0.020892 0.153179 -0.041787
v -0.020990 0.145823 -0.046379
v -0.026257 0.147293 -0.038357
v 0.002216 -0.001789 -0.008098
v -0.002034 0.002477 -0.014256
v 0.007300 0.003947 -0.012027
v -0.013436 0.153179 -0.044745
v -0.007178 0.147293 -0.045926
v -0.016512 0.145823 -0.048155
v 0.008533 0.000683 -0.000628
v 0.011514 0.005596 -0.007044
v 0.012015 0.007974 0.002356
v -0.008413 0.155144 -0.038807
v -0.003660 0.150851 -0.032960
v -0.004161 0.148473 -0.042360
v -0.012042 0.144124 -0.028981
v -0.006810 0.150949 -0.028495
v -0.016084 0.150949 -0.025624
v -0.025658 0.297368 -0.072959
v -0.028679 0.292700 -0.066304
v -0.019405 0.292700 -0.069175
v -0.019581 0.142818 -0.031389
v -0.020466 0.150189 -0.027024
v -0.025956 0.147630 -0.034611
v -0.031253 0.296398 -0.074746
v -0.036752 0.289693 -0.074716
v -0.031263 0.292252 -0.067129
v -0.019381 0.140703 -0.039124
v -0.025840 0.146401 -0.039107
v -0.019958 0.144820 -0.046667
v -0.031105 0.294829 -0.080486
v -0.030803 0.287387 -0.084927
v -0.036684 0.288968 -0.077367
v -0.011718 0.140703 -0.041497
v -0.015505 0.144820 -0.048046
v -0.006380 0.146401 -0.045132
v -0.025418 0.294829 -0.082247
v -0.019053 0.288968 -0.082826
v -0.028177 0.287387 -0.085740
v -0.007183 0.142818 -0.035227
v -0.003744 0.147630 -0.041488
v -0.003986 0.150189 -0.032126
v -0.022052 0.296398 -0.077595
v -0.017740 0.292252 -0.071316
v -0.017498 0.289693 -0.080678
v -0.025293 0.117117 -0.047140
v -0.025619 0.117148 -0.047227
v -0.025166 0.117055 -0.047663
v -0.025605 0.124881 -0.048860
v -0.025279 0.124944 -0.048793
v -0.025152 0.124788 -0.049296
v 0.028488 0.119709 -0.034407
v 0.028615 0.119648 -0.034931
v 0.028815 0.119772 -0.034340
v 0.028502 0.127537 -0.036060
v 0.028828 0.127506 -0.035973
v 0.028629 0.127381 -0.036563
v -0.046175 0.135007 0.037421
v -0.046302 0.135162 0.037925
v -0.046502 0.135038 0.037334
v -0.046161 0.142834 0.035769
v -0.046488 0.142771 0.035701
v -0.046288 0.142896 0.036292
v 0.007605 0.137599 0.050154
v 0.007932 0.137662 0.050222
v 0.007478 0.137755 0.050658
v 0.007619 0.145427 0.048502
v 0.007492 0.145489 0.049025
v 0.007946 0.145396 0.048589
v 0.024434 0.118574 -0.043496
v 0.024638 0.118634 -0.043729
v 0.024823 0.118440 -0.043201
v 0.026622 0.126014 -0.041711
v 0.026442 0.126044 -0.041453
v 0.026806 0.125820 -0.041182
v -0.007171 0.116013 -0.003073
v -0.006782 0.115879 -0.002777
v -0.007351 0.116042 -0.002815
v -0.005163 0.123483 -0.001030
v -0.005367 0.123422 -0.000797
v -0.004799 0.123259 -0.000759
v -0.037593 0.147998 -0.090128
v -0.037958 0.148221 -0.090399
v -0.037389 0.148058 -0.090361
v -0.035585 0.155467 -0.088085
v -0.035406 0.155438 -0.088343
v -0.035974 0.155601 -0.088381
v -0.069198 0.145437 -0.049705
v -0.069378 0.145466 -0.049447
v -0.069563 0.145660 -0.049976
v -0.067191 0.152906 -0.047662
v -0.067579 0.153040 -0.047957
v -0.067395 0.152846 -0.047429
v -0.038707 0.188067 -0.064703
v -0.039026 0.188124 -0.064803
v -0.038581 0.187919 -0.065209
v -0.038064 0.195503 -0.067468
v -0.037733 0.195536 -0.067400
v -0.037619 0.195298 -0.067874
v 0.014811 0.186114 -0.050801
v 0.014937 0.185966 -0.051307
v 0.015142 0.186146 -0.050733
v 0.015784 0.193582 -0.053498
v 0.016103 0.193525 -0.053397
v 0.015898 0.193345 -0.053972
v -0.058506 0.219781 0.015975
v -0.058621 0.220019 0.016449
v -0.058825 0.219838 0.015875
v -0.057533 0.227250 0.013278
v -0.057864 0.227217 0.013210
v -0.057659 0.227398 0.013784
v -0.004989 0.217828 0.029877
v -0.004658 0.217861 0.029945
v -0.005103 0.218065 0.030351
v -0.004016 0.225296 0.027180
v -0.004142 0.225444 0.027686
v -0.003696 0.225240 0.027281
v 0.006360 0.191311 -0.060289
v 0.006538 0.191354 -0.060547
v 0.006775 0.191163 -0.060038
v 0.009125 0.198661 -0.058998
v 0.008980 0.198706 -0.058722
v 0.009362 0.198469 -0.058490
v -0.020225 0.191409 -0.016327
v -0.019811 0.191261 -0.016076
v -0.020371 0.191454 -0.016050
v -0.017606 0.198804 -0.014760
v -0.017783 0.198760 -0.014502
v -0.017223 0.198568 -0.014528
v -0.059253 0.222973 -0.100039
v -0.059636 0.223210 -0.100271
v -0.059076 0.223017 -0.100296
v -0.056634 0.230368 -0.098472
v -0.056488 0.230323 -0.098748
v -0.057048 0.230516 -0.098722
v -0.085838 0.223072 -0.056076
v -0.085984 0.223117 -0.055800
v -0.086221 0.223309 -0.056308
v -0.083219 0.230467 -0.054509
v -0.083634 0.230615 -0.054760
v -0.083397 0.230423 -0.054252
v -0.044097 0.257919 -0.085417
v -0.044415 0.257977 -0.085520
v -0.043992 0.257686 -0.085895
v -0.043110 0.264771 -0.089344
v -0.042776 0.264795 -0.089287
v -0.042687 0.264479 -0.089718
v 0.009554 0.255050 -0.072206
v 0.009659 0.254816 -0.072684
v 0.009888 0.255073 -0.072149
v 0.010875 0.261926 -0.076076
v 0.011192 0.261867 -0.075972
v 0.010964 0.261610 -0.076507
v -0.060116 0.303131 -0.010544
v -0.060205 0.303447 -0.010112
v -0.060434 0.303190 -0.010647
v -0.058795 0.310007 -0.014413
v -0.059129 0.309984 -0.014470
v -0.058900 0.310241 -0.013935
v -0.006465 0.300262 0.002667
v -0.006131 0.300286 0.002724
v -0.006554 0.300578 0.003099
v -0.005144 0.307138 -0.001202
v -0.005249 0.307372 -0.000724
v -0.004826 0.307080 -0.001099
v -0.005117 0.257120 -0.074703
v -0.004905 0.257146 -0.074935
v -0.004780 0.256854 -0.074434
v -0.000938 0.263436 -0.072258
v -0.001101 0.263487 -0.071993
v -0.000813 0.263144 -0.071758
v -0.036065 0.259212 -0.033747
v -0.035728 0.258945 -0.033479
v -0.036229 0.259263 -0.033482
v -0.032049 0.265578 -0.031038
v -0.032261 0.265553 -0.030805
v -0.031760 0.265236 -0.030802
v -0.056625 0.307258 -0.116185
v -0.056914 0.307600 -0.116421
v -0.056413 0.307283 -0.116417
v -0.052610 0.313625 -0.113476
v -0.052446 0.313574 -0.113741
v -0.052946 0.313891 -0.113744
v -0.087573 0.309349 -0.075230
v -0.087737 0.309400 -0.074965
v -0.087862 0.309692 -0.075465
v -0.083557 0.315716 -0.072520
v -0.083894 0.315982 -0.072788
v -0.083769 0.315691 -0.072288
v -0.025532 0.279583 -0.093933
v -0.025599 0.279630 -0.094201
v -0.025177 0.279371 -0.094067
v -0.021222 0.286066 -0.095578
v -0.021103 0.286097 -0.095326
v -0.020800 0.285808 -0.095444
v -0.010182 0.278291 -0.051175
v -0.009827 0.278080 -0.051309
v -0.010063 0.278323 -0.050924
v -0.005753 0.284806 -0.052568
v -0.005686 0.284759 -0.052300
v -0.005451 0.284516 -0.052686
v -0.079678 0.320823 -0.073249
v -0.079980 0.321112 -0.073132
v -0.079745 0.320870 -0.073517
v -0.075248 0.327337 -0.074643
v -0.075368 0.327306 -0.074894
v -0.075604 0.327549 -0.074509
v -0.064328 0.319531 -0.030492
v -0.064208 0.319563 -0.030240
v -0.064630 0.319821 -0.030374
v -0.059899 0.326046 -0.031885
v -0.060254 0.326257 -0.031751
v -0.059832 0.325999 -0.031617
v 0.004947 0.002974 -0.006353
v 0.002036 0.009922 -0.010516
v 0.009697 0.009922 -0.004552
v -0.024802 0.129003 0.031853
v -0.017408 0.124750 0.030258
v -0.025069 0.124750 0.024294
v 0.007970 0.000919 0.003052
v 0.011709 0.008555 0.001709
v 0.008754 0.005356 0.010386
v -0.022399 0.127370 0.039330
v -0.018915 0.120567 0.043439
v -0.015961 0.123766 0.034762
v -0.000021 -0.002406 0.008240
v 0.003435 0.003142 0.013839
v -0.006051 0.001165 0.013237
v -0.028752 0.124727 0.043453
v -0.032228 0.116998 0.045321
v -0.022742 0.118975 0.045923
v -0.007983 -0.002406 0.002040
v -0.011350 0.001165 0.009111
v -0.014259 0.003142 0.000061
v -0.035081 0.124727 0.038525
v -0.038948 0.118975 0.033303
v -0.036040 0.116998 0.042353
v -0.004912 0.000919 -0.006979
v -0.012215 0.005356 -0.005942
v -0.004527 0.008555 -0.010933
v -0.032640 0.127370 0.031356
v -0.029790 0.123766 0.023994
v -0.037478 0.120567 0.028985
v -0.022619 0.119102 0.028925
v -0.025732 0.126101 0.024998
v -0.018001 0.126101 0.030871
v -0.054650 0.243295 0.071094
v -0.047185 0.239255 0.069292
v -0.054916 0.239255 0.063419
v -0.020089 0.117310 0.036323
v -0.016535 0.125062 0.035157
v -0.019311 0.121551 0.043773
v -0.052772 0.241965 0.076584
v -0.049090 0.235127 0.080455
v -0.046313 0.238637 0.071840
v -0.026331 0.114409 0.040443
v -0.022928 0.119871 0.046159
v -0.032375 0.117701 0.045612
v -0.057404 0.239812 0.079641
v -0.060687 0.231958 0.081326
v -0.051240 0.234128 0.081874
v -0.032718 0.114409 0.035591
v -0.036076 0.117701 0.042800
v -0.039138 0.119871 0.033846
v -0.062144 0.239812 0.076041
v -0.065949 0.234128 0.070701
v -0.062887 0.231958 0.079655
v -0.030424 0.117310 0.028473
v -0.037809 0.121551 0.029722
v -0.030254 0.125062 0.024736
v -0.060442 0.241965 0.070759
v -0.057604 0.238637 0.063264
v -0.065159 0.235127 0.068249
v -0.033547 0.090782 0.056390
v -0.033473 0.090834 0.056717
v -0.034070 0.090728 0.056524
v -0.034925 0.098599 0.056975
v -0.035017 0.098641 0.056651
v -0.035522 0.098494 0.056782
v -0.047189 0.090012 0.002776
v -0.047712 0.089958 0.002910
v -0.047281 0.090054 0.002452
v -0.048659 0.097871 0.003037
v -0.048733 0.097819 0.002710
v -0.049164 0.097724 0.003168
v 0.051066 0.107322 0.034623
v 0.051571 0.107469 0.034493
v 0.051140 0.107374 0.034950
v 0.049597 0.115181 0.034884
v 0.049688 0.115139 0.035208
v 0.050119 0.115235 0.034750
v 0.037424 0.106552 -0.018991
v 0.037332 0.106594 -0.019315
v 0.037929 0.106699 -0.019122
v 0.035955 0.114411 -0.018730
v 0.036477 0.114465 -0.018864
v 0.035881 0.114359 -0.019057
v -0.034785 0.096595 0.015505
v -0.035096 0.096625 0.015458
v -0.034733 0.096463 0.015019
v -0.035193 0.104015 0.012656
v -0.034884 0.104075 0.012669
v -0.034830 0.103853 0.012217
v 0.016298 0.099109 0.020366
v 0.016351 0.098977 0.019880
v 0.016608 0.099169 0.020378
v 0.016200 0.106589 0.017530
v 0.016511 0.106559 0.017576
v 0.016254 0.106367 0.017078
v -0.043566 0.125751 0.092709
v -0.043620 0.125973 0.093161
v -0.043877 0.125780 0.092663
v -0.043664 0.133230 0.089873
v -0.043974 0.133170 0.089861
v -0.043717 0.133363 0.090359
v 0.007518 0.128264 0.097570
v 0.007827 0.128324 0.097583
v 0.007464 0.128486 0.098022
v 0.007419 0.135744 0.094734
v 0.007367 0.135876 0.095220
v 0.007730 0.135715 0.094781
v -0.043136 0.158133 0.074609
v -0.043051 0.158158 0.074936
v -0.043630 0.157964 0.074758
v -0.045897 0.165407 0.076285
v -0.046017 0.165470 0.075974
v -0.046476 0.165213 0.076107
v -0.060105 0.161253 0.022039
v -0.060598 0.161084 0.022189
v -0.060225 0.161316 0.021728
v -0.062986 0.168591 0.023405
v -0.063071 0.168566 0.023077
v -0.063444 0.168334 0.023538
v 0.035208 0.193209 0.051402
v 0.035667 0.193466 0.051269
v 0.035294 0.193234 0.051730
v 0.032328 0.200546 0.052767
v 0.032448 0.200483 0.053078
v 0.032821 0.200715 0.052618
v 0.018240 0.196329 -0.001167
v 0.018119 0.196392 -0.001478
v 0.018698 0.196586 -0.001300
v 0.015359 0.203667 0.000198
v 0.015852 0.203836 0.000049
v 0.015273 0.203642 -0.000129
v -0.053441 0.148170 0.031168
v -0.053747 0.148222 0.031109
v -0.053396 0.147964 0.030707
v -0.053084 0.155103 0.027277
v -0.052770 0.155134 0.027289
v -0.052733 0.154845 0.026875
v -0.002417 0.146451 0.036917
v -0.002372 0.146246 0.036457
v -0.002103 0.146483 0.036929
v -0.001745 0.153416 0.033038
v -0.001440 0.153364 0.033096
v -0.001709 0.153127 0.032624
v -0.060181 0.188913 0.103155
v -0.060218 0.189202 0.103569
v -0.060487 0.188965 0.103097
v -0.059509 0.195877 0.099277
v -0.059823 0.195846 0.099265
v -0.059554 0.196083 0.099737
v -0.009157 0.187195 0.108905
v -0.008843 0.187226 0.108916
v -0.009193 0.187484 0.109319
v -0.008485 0.194159 0.105026
v -0.008530 0.194365 0.105486
v -0.008179 0.194107 0.105084
v -0.043725 0.219706 0.087648
v -0.043664 0.219743 0.087980
v -0.044195 0.219463 0.087769
v -0.047659 0.226471 0.089099
v -0.047768 0.226516 0.088781
v -0.048189 0.226191 0.088888
v -0.057740 0.220289 0.034128
v -0.058210 0.220046 0.034248
v -0.057849 0.220333 0.033810
v -0.061783 0.227098 0.035261
v -0.061844 0.227061 0.034929
v -0.062204 0.226774 0.035368
v 0.029624 0.266364 0.068950
v 0.030045 0.266688 0.068843
v 0.029685 0.266401 0.069281
v 0.025581 0.273174 0.070082
v 0.025691 0.273129 0.070401
v 0.026051 0.273416 0.069962
v 0.015610 0.266947 0.015429
v 0.015500 0.266991 0.015111
v 0.016031 0.267271 0.015322
v 0.011567 0.273756 0.016562
v 0.012036 0.273999 0.016442
v 0.011506 0.273719 0.016230
v -0.063134 0.222387 0.049266
v -0.063439 0.222443 0.049209
v -0.063104 0.222138 0.048827
v -0.062655 0.228910 0.044733
v -0.062341 0.228933 0.044736
v -0.062320 0.228605 0.044351
v -0.012077 0.219675 0.054293
v -0.012047 0.219426 0.053853
v -0.011762 0.219698 0.054296
v -0.011283 0.226221 0.049763
v -0.010978 0.226165 0.049820
v -0.011262 0.225893 0.049377
v -0.067297 0.269895 0.117188
v -0.067318 0.270222 0.117573
v -0.067602 0.269950 0.117130
v -0.066503 0.276441 0.112658
v -0.066818 0.276418 0.112655
v -0.066533 0.276690 0.113098
v -0.016239 0.267183 0.122214
v -0.015925 0.267205 0.122218
v -0.016260 0.267510 0.122600
v -0.015446 0.273729 0.117684
v -0.015476 0.273978 0.118124
v -0.015140 0.273673 0.117742
v -0.083690 0.222300 0.088444
v -0.083886 0.222354 0.088636
v -0.083990 0.222091 0.088209
v -0.087155 0.228814 0.085467
v -0.086999 0.228838 0.085236
v -0.087260 0.228551 0.085040
v -0.054714 0.219831 0.053518
v -0.055014 0.219622 0.053283
v -0.054558 0.219855 0.053286
v -0.058023 0.226370 0.050310
v -0.057827 0.226316 0.050117
v -0.058284 0.226083 0.050114
v -0.037458 0.263099 0.123916
v -0.037197 0.263386 0.124112
v -0.037653 0.263153 0.124109
v -0.040767 0.269638 0.120708
v -0.040923 0.269614 0.120940
v -0.040466 0.269847 0.120943
v -0.008482 0.260631 0.088990
v -0.008325 0.260655 0.088759
v -0.008221 0.260918 0.089186
v -0.011791 0.267170 0.085782
v -0.011490 0.267378 0.086017
v -0.011595 0.267115 0.085590
v -0.008111 0.002380 -0.001491
v -0.010959 0.009203 0.002921
v -0.009204 0.009203 -0.006627
v 0.033100 0.141205 0.006085
v 0.028597 0.136540 0.000321
v 0.026841 0.136540 0.009870
v -0.001031 0.000736 -0.008490
v -0.004486 0.008107 -0.011291
v 0.004781 0.005547 -0.012637
v 0.038728 0.139898 0.000521
v 0.041250 0.133193 -0.004372
v 0.031982 0.135753 -0.003026
v 0.007474 -0.001926 -0.003756
v 0.010448 0.003774 -0.009483
v 0.014420 0.002191 -0.000767
v 0.045489 0.137782 0.004284
v 0.049289 0.130338 0.006608
v 0.045317 0.131920 -0.002109
v 0.005650 -0.001926 0.006168
v 0.013205 0.002191 0.005845
v 0.006392 0.003774 0.012579
v 0.044039 0.137782 0.012174
v 0.041604 0.131920 0.018087
v 0.048417 0.130338 0.011353
v -0.003982 0.000736 0.007568
v -0.000026 0.005547 0.013512
v -0.008208 0.008107 0.008957
v 0.036382 0.139898 0.013286
v 0.028816 0.135753 0.014202
v 0.036998 0.133193 0.018756
v 0.030033 0.130463 0.005703
v 0.027731 0.137397 0.010259
v 0.029219 0.137397 0.000665
v 0.079856 0.266426 0.013430
v 0.074918 0.262109 0.007752
v 0.073430 0.262109 0.017346
v 0.035416 0.128877 -0.000029
v 0.032342 0.136477 -0.002661
v 0.041395 0.133372 -0.004293
v 0.083850 0.265250 0.009176
v 0.085820 0.258459 0.004150
v 0.076768 0.261564 0.005782
v 0.042136 0.126312 0.003522
v 0.045294 0.131883 -0.002233
v 0.049401 0.129964 0.006352
v 0.088837 0.263346 0.011811
v 0.092237 0.255658 0.013956
v 0.088130 0.257577 0.005370
v 0.040907 0.126312 0.011449
v 0.048687 0.129964 0.010951
v 0.042173 0.131883 0.017889
v 0.087924 0.263346 0.017693
v 0.085300 0.257577 0.023617
v 0.091814 0.255658 0.016679
v 0.033427 0.128877 0.012797
v 0.037833 0.133372 0.018672
v 0.029700 0.136477 0.014374
v 0.082374 0.265250 0.018694
v 0.074596 0.261564 0.019783
v 0.082730 0.258459 0.024081
v 0.064617 0.108121 -0.012475
v 0.064855 0.108183 -0.012709
v 0.065008 0.108007 -0.012117
v 0.066310 0.115723 -0.010838
v 0.066089 0.115752 -0.010581
v 0.066462 0.115547 -0.010246
v 0.026866 0.105389 0.027881
v 0.027257 0.105275 0.028239
v 0.026646 0.105418 0.028137
v 0.028339 0.113021 0.029775
v 0.028100 0.112959 0.030008
v 0.028712 0.112815 0.030110
v 0.001704 0.134417 -0.069547
v 0.001331 0.134623 -0.069882
v 0.001942 0.134480 -0.069780
v 0.003176 0.142049 -0.067653
v 0.003396 0.142020 -0.067909
v 0.002785 0.142163 -0.068011
v -0.036047 0.131686 -0.029191
v -0.036267 0.131715 -0.028934
v -0.036420 0.131891 -0.029526
v -0.034575 0.139318 -0.027297
v -0.034966 0.139432 -0.027655
v -0.034813 0.139256 -0.027063
v 0.033142 0.096486 0.033691
v 0.033257 0.096530 0.033982
v 0.032693 0.096370 0.033893
v 0.030971 0.104020 0.035050
v 0.030829 0.104067 0.034772
v 0.030407 0.103861 0.034961
v 0.012053 0.096731 -0.013157
v 0.011604 0.096616 -0.012955
v 0.011911 0.096778 -0.013435
v 0.009740 0.104312 -0.012075
v 0.009625 0.104268 -0.012366
v 0.009318 0.104106 -0.011886
v 0.104913 0.122977 0.001521
v 0.105335 0.123183 0.001332
v 0.105027 0.123021 0.001812
v 0.102599 0.130558 0.002602
v 0.102741 0.130511 0.002880
v 0.103049 0.130674 0.002401
v 0.083824 0.123222 -0.045326
v 0.083682 0.123269 -0.045604
v 0.084246 0.123429 -0.045515
v 0.081510 0.130804 -0.044245
v 0.081960 0.130919 -0.044447
v 0.081396 0.130760 -0.044536
v 0.073478 0.159388 -0.001393
v 0.073716 0.159413 -0.001633
v 0.073856 0.159213 -0.001046
v 0.076375 0.166628 0.000197
v 0.076169 0.166690 0.000460
v 0.076515 0.166428 0.000784
v 0.036882 0.162373 0.039996
v 0.037260 0.162199 0.040342
v 0.036676 0.162435 0.040258
v 0.039574 0.169676 0.041848
v 0.039335 0.169650 0.042089
v 0.039919 0.169413 0.042173
v 0.013873 0.195388 -0.056693
v 0.013527 0.195650 -0.057017
v 0.014111 0.195413 -0.056933
v 0.016564 0.202690 -0.054840
v 0.016770 0.202628 -0.055102
v 0.016186 0.202865 -0.055187
v -0.022723 0.198373 -0.015304
v -0.022929 0.198435 -0.015041
v -0.023068 0.198636 -0.015629
v -0.020031 0.205675 -0.013451
v -0.020409 0.205850 -0.013798
v -0.020270 0.205650 -0.013211
v 0.052075 0.166507 0.042353
v 0.052207 0.166555 0.042636
v 0.051656 0.166342 0.042583
v 0.049286 0.173748 0.044123
v 0.049120 0.173787 0.043858
v 0.048736 0.173535 0.044071
v 0.027502 0.165858 -0.002761
v 0.027083 0.165693 -0.002530
v 0.027335 0.165898 -0.003026
v 0.024546 0.173138 -0.001256
v 0.024415 0.173090 -0.001539
v 0.024163 0.172886 -0.001043
v 0.118194 0.200902 0.005843
v 0.118578 0.201155 0.005630
v 0.118326 0.200950 0.006126
v 0.115239 0.208182 0.007348
v 0.115406 0.208142 0.007613
v 0.115658 0.208347 0.007117
v 0.093621 0.200253 -0.039271
v 0.093454 0.200292 -0.039536
v 0.094005 0.200505 -0.039483
v 0.090666 0.207533 -0.037765
v 0.091085 0.207698 -0.037996
v 0.090534 0.207485 -0.038048
v 0.087427 0.232343 -0.001415
v 0.087688 0.232394 -0.001626
v 0.087764 0.232095 -0.001070
v 0.090442 0.239069 0.001587
v 0.090215 0.239100 0.001837
v 0.090518 0.238770 0.002143
v 0.047250 0.230624 0.036585
v 0.047587 0.230376 0.036930
v 0.047023 0.230655 0.036835
v 0.050037 0.237381 0.039838
v 0.049777 0.237330 0.040049
v 0.050341 0.237052 0.040143
v 0.034725 0.279875 -0.054987
v 0.034422 0.280204 -0.055293
v 0.034986 0.279926 -0.055198
v 0.037512 0.286632 -0.051734
v 0.037740 0.286601 -0.051985
v 0.037176 0.286880 -0.052079
v -0.005452 0.278156 -0.016987
v -0.005680 0.278187 -0.016737
v -0.005756 0.278486 -0.017293
v -0.002665 0.284913 -0.013734
v -0.003002 0.285161 -0.014079
v -0.002926 0.284862 -0.013523
v 0.058765 0.243785 0.032575
v 0.058877 0.243843 0.032864
v 0.058365 0.243555 0.032784
v 0.054898 0.250499 0.034388
v 0.054737 0.250522 0.034117
v 0.054386 0.250212 0.034308
v 0.036293 0.240903 -0.013536
v 0.035893 0.240673 -0.013326
v 0.036132 0.240926 -0.013806
v 0.032264 0.247641 -0.011993
v 0.032152 0.247583 -0.012283
v 0.031913 0.247330 -0.011803
v 0.120601 0.288287 -0.000343
v 0.120952 0.288597 -0.000534
v 0.120713 0.288345 -0.000054
v 0.116573 0.295024 0.001199
v 0.116733 0.295002 0.001470
v 0.116972 0.295254 0.000990
v 0.098128 0.285405 -0.046453
v 0.097968 0.285428 -0.046724
v 0.098480 0.285716 -0.046644
v 0.094100 0.292143 -0.044911
v 0.094500 0.292372 -0.045120
v 0.093988 0.292085 -0.045201
v 0.105670 0.246317 0.020311
v 0.105942 0.246349 0.020366
v 0.105621 0.246135 0.020703
v 0.105724 0.253113 0.024449
v 0.105448 0.253164 0.024444
v 0.105402 0.252900 0.024786
v 0.060518 0.247846 0.015363
v 0.060469 0.247664 0.015755
v 0.060242 0.247896 0.015358
v 0.060297 0.254692 0.019495
v 0.060024 0.254660 0.019441
v 0.060250 0.254428 0.019838
v 0.113534 0.283040 -0.040103
v 0.113581 0.283304 -0.040446
v 0.113807 0.283071 -0.040049
v 0.113313 0.289886 -0.035971
v 0.113589 0.289836 -0.035966
v 0.113362 0.290068 -0.036363
v 0.068382 0.284568 -0.045052
v 0.068107 0.284618 -0.045057
v 0.068429 0.284832 -0.045394
v 0.068161 0.291414 -0.040919
v 0.068210 0.291596 -0.041311
v 0.067888 0.291383 -0.040974
vn 0.3515 -0.3021 0.8861
vn 0.2452 0.7469 0.6181
vn -0.6016 -0.4522 0.6585
vn -0.6984 0.5983 0.3927
vn -0.6528 -0.6950 -0.3013
vn -0.7491 0.3579 -0.5575
vn 0.2687 -0.6950 -0.6669
vn 0.1632 0.3579 -0.9194
vn 0.8894 -0.4522 0.0670
vn 0.7777 0.5983 -0.1929
vn -0.1165 -0.5322 0.8386
vn -0.2492 0.8330 0.4940
vn 0.3552 0.2682 0.8955
vn -0.7749 0.0902 0.6256
vn -0.6392 -0.7367 0.2205
vn -0.7673 0.6302 -0.1186
vn -0.8356 -0.1977 -0.5125
vn -0.1862 -0.8631 -0.4694
vn -0.3183 0.5050 -0.8023
vn 0.2571 -0.1977 -0.9460
vn 0.6165 -0.7367 -0.2777
vn 0.4774 0.6303 -0.6123
vn 0.9930 0.0902 -0.0758
vn 0.6596 -0.5322 0.5307
vn 0.5201 0.8330 0.1889
vn 0.0950 -0.9663 0.2394
vn -0.2589 0.2170 0.9412
vn 0.8337 0.2170 0.5077
vn -0.0950 0.9663 -0.2394
vn -0.9949 -0.0710 0.0710
vn -0.3571 -0.2490 -0.9003
vn 0.7731 -0.0710 -0.6304
vn 0.2837 -0.2826 0.9163
vn 0.1921 0.7603 0.6205
vn -0.6480 -0.4442 0.6187
vn -0.7303 0.6004 0.3259
vn -0.6233 -0.7055 -0.3373
vn -0.7058 0.3417 -0.6205
vn 0.3237 -0.7055 -0.6305
vn 0.2317 0.3417 -0.9108
vn 0.8843 -0.4442 0.1443
vn 0.7867 0.6004 -0.1438
vn -0.1778 -0.5171 0.8372
vn -0.2917 0.8403 0.4570
vn 0.2833 0.2877 0.9149
vn -0.8215 0.0962 0.5620
vn -0.6499 -0.7372 0.1847
vn -0.7596 0.6221 -0.1897
vn -0.7922 -0.2137 -0.5716
vn -0.1441 -0.8732 -0.4655
vn -0.2583 0.4873 -0.8342
vn 0.3307 -0.2137 -0.9192
vn 0.6406 -0.7372 -0.2148
vn 0.5195 0.6221 -0.5857
vn 0.9954 0.0962 -0.0006
vn 0.6198 -0.5171 0.5903
vn 0.4989 0.8403 0.2123
vn 0.0820 -0.9608 0.2648
vn -0.3323 0.2328 0.9140
vn 0.7906 0.2328 0.5663
vn -0.0820 0.9608 -0.2648
vn -0.9970 -0.0771 -0.0047
vn -0.2849 -0.2686 -0.9202
vn 0.8199 -0.0771 -0.5672
vn -0.1180 -0.9891 0.0879
vn -0.1146 0.9406 -0.3195
vn 0.1557 -0.9759 0.1528
vn 0.1591 0.9539 -0.2546
vn -0.1592 -0.9538 0.2546
vn -0.1558 0.9759 -0.1528
vn 0.1146 -0.9406 0.3195
vn 0.1181 0.9891 -0.0879
vn 0.0191 -0.9924 0.1216
vn -0.7012 -0.1461 -0.6978
vn 0.0225 0.9568 -0.2900
vn 0.9494 -0.0665 -0.3070
vn 0.1358 -0.9620 0.2370
vn 0.1392 0.9752 -0.1720
vn 0.7012 0.1461 0.6978
vn -0.0225 -0.9568 0.2899
vn -0.0191 0.9924 -0.1216
vn -0.9494 0.0665 0.3070
vn -0.1392 -0.9752 0.1719
vn -0.1357 0.9620 -0.2370
vn -0.0017 -0.9784 0.2066
vn 0.2348 -0.2012 -0.9510
vn -0.9720 -0.0469 -0.2301
vn 0.0017 0.9784 -0.2066
vn 0.9720 0.0469 0.2301
vn -0.2348 0.2012 0.9510
vn -0.0838 -0.9445 -0.3177
vn 0.4101 0.8931 0.1848
vn -0.2700 -0.9596 -0.0795
vn 0.2239 0.8780 0.4230
vn -0.2238 -0.8780 -0.4230
vn 0.2700 0.9596 0.0795
vn -0.4101 -0.8931 -0.1848
vn 0.0838 0.9445 0.3177
vn -0.1790 -0.9631 -0.2009
vn 0.9165 -0.1442 -0.3732
vn 0.3207 0.8959 0.3075
vn -0.1297 -0.2290 0.9648
vn -0.3416 -0.9304 -0.1327
vn 0.1545 0.9153 0.3720
vn -0.9165 0.1442 0.3733
vn -0.3206 -0.8959 -0.3075
vn 0.1790 0.9631 0.2009
vn 0.1297 0.2290 -0.9648
vn -0.1544 -0.9153 -0.3721
vn 0.3416 0.9304 0.1328
vn -0.2509 -0.9337 -0.2554
vn 0.7474 -0.3545 0.5619
vn 0.6152 0.0499 -0.7868
vn 0.2509 0.9337 0.2554
vn -0.6152 -0.0499 0.7868
vn -0.7474 0.3545 -0.5619
vn -0.2367 -0.9469 0.2175
vn 0.0032 0.8943 -0.4474
vn 0.0359 -0.9569 0.2883
vn 0.2758 0.8844 -0.3766
vn -0.2757 -0.8844 0.3766
vn -0.0359 0.9569 -0.2883
vn -0.0032 -0.8943 0.4474
vn 0.2367 0.9469 -0.2175
vn -0.1015 -0.9615 0.2555
vn -0.7036 -0.1584 -0.6927
vn 0.1409 0.8983 -0.4161
vn 0.9389 -0.2184 -0.2660
vn 0.0163 -0.9292 0.3693
vn 0.2572 0.9192 -0.2982
vn 0.7036 0.1584 0.6927
vn -0.1409 -0.8983 0.4161
vn 0.1015 0.9615 -0.2555
vn -0.9389 0.2184 0.2660
vn -0.2571 -0.9192 0.2982
vn -0.0163 0.9292 -0.3693
vn -0.1217 -0.9336 0.3371
vn 0.2227 -0.3567 -0.9073
vn -0.9673 0.0353 -0.2513
vn 0.1217 0.9336 -0.3371
vn 0.9673 -0.0353 0.2513
vn -0.2227 0.3567 0.9073
vn -0.1697 -0.9456 -0.2774
vn 0.4746 0.8735 0.1081
vn -0.3264 -0.9451 -0.0184
vn 0.3179 0.8741 0.3672
vn -0.3179 -0.8741 -0.3672
vn 0.3264 0.9451 0.0183
vn -0.4746 -0.8735 -0.1081
vn 0.1698 0.9456 0.2774
vn -0.2509 -0.9564 -0.1496
vn 0.8561 -0.2024 -0.4755
vn 0.4008 0.8841 0.2404
vn -0.0239 -0.1992 0.9797
vn -0.4023 -0.9133 -0.0635
vn 0.2448 0.9139 0.3238
vn -0.8561 0.2024 0.4755
vn -0.4009 -0.8840 -0.2404
vn 0.2510 0.9564 0.1496
vn 0.0239 0.1992 -0.9797
vn -0.2450 -0.9139 -0.3237
vn 0.4023 0.9133 0.0635
vn -0.3274 -0.9244 -0.1959
vn 0.7906 -0.3815 0.4790
vn 0.5175 -0.0019 -0.8557
vn 0.3274 0.9244 0.1959
vn -0.5175 0.0019 0.8557
vn -0.7906 0.3815 -0.4790
vn -0.2836 -0.8849 0.3696
vn 0.0419 0.8103 -0.5845
vn -0.0104 -0.8995 0.4368
vn 0.3152 0.7957 -0.5172
vn -0.3152 -0.7957 0.5172
vn 0.0104 0.8995 -0.4369
vn -0.0419 -0.8103 0.5845
vn 0.2834 0.8849 -0.3696
vn -0.1485 -0.9012 0.4073
vn -0.7281 -0.2246 -0.6476
vn 0.1804 0.8111 -0.5564
vn 0.9185 -0.3127 -0.2421
vn -0.0263 -0.8582 0.5126
vn 0.3008 0.8435 -0.4450
vn 0.7281 0.2246 0.6476
vn -0.1804 -0.8111 0.5564
vn 0.1485 0.9012 -0.4073
vn -0.9185 0.3127 0.2421
vn -0.3004 -0.8436 0.4451
vn 0.0264 0.8582 -0.5126
vn -0.1651 -0.8595 0.4837
vn 0.1801 -0.5085 -0.8420
vn -0.9697 0.0519 -0.2388
vn 0.1651 0.8595 -0.4837
vn 0.9697 -0.0519 0.2388
vn -0.1801 0.5085 0.8420
vn -0.3446 -0.8459 -0.4071
vn 0.6433 0.7203 0.2594
vn -0.5269 -0.8336 -0.1657
vn 0.4608 0.7327 0.5007
vn -0.4608 -0.7327 -0.5007
vn 0.5269 0.8336 0.1657
vn -0.6433 -0.7204 -0.2594
vn 0.3446 0.8459 0.4071
vn -0.4408 -0.8495 -0.2897
vn 0.8389 -0.3526 -0.4147
vn 0.5585 0.7350 0.3845
vn -0.1855 -0.2834 0.9409
vn -0.5877 -0.7804 -0.2135
vn 0.4046 0.7928 0.4559
vn -0.8389 0.3526 0.4147
vn -0.5585 -0.7350 -0.3845
vn 0.4409 0.8495 0.2897
vn 0.1855 0.2834 -0.9409
vn -0.4045 -0.7928 -0.4559
vn 0.5877 0.7804 0.2135
vn -0.5019 -0.7958 -0.3386
vn 0.6206 -0.6041 0.4998
vn 0.6024 -0.0407 -0.7972
vn 0.5019 0.7958 0.3386
vn -0.6024 0.0407 0.7972
vn -0.6206 0.6041 -0.4998
vn -0.5171 -0.8557 -0.0213
vn 0.5676 0.7392 -0.3625
vn -0.4019 -0.8654 0.2992
vn 0.6826 0.7296 -0.0419
vn -0.6827 -0.7295 0.0419
vn 0.4019 0.8654 -0.2991
vn -0.5676 -0.7392 0.3625
vn 0.5170 0.8557 0.0213
vn -0.4662 -0.8734 0.1410
vn 0.1252 -0.2882 -0.9494
vn 0.6344 0.7453 -0.2052
vn 0.6944 -0.3361 0.6363
vn -0.4875 -0.8072 0.3329
vn 0.6034 0.7974 -0.0103
vn -0.1252 0.2882 0.9494
vn -0.6344 -0.7453 0.2052
vn 0.4662 0.8734 -0.1410
vn -0.6944 0.3361 -0.6363
vn -0.6034 -0.7974 0.0104
vn 0.4876 0.8072 -0.3327
vn -0.5537 -0.8143 0.1742
vn 0.7612 -0.5797 -0.2908
vn -0.3377 0.0284 -0.9408
vn 0.5537 0.8143 -0.1742
vn 0.3377 -0.0284 0.9408
vn -0.7612 0.5797 0.2908
vn 0.6006 -0.2106 -0.7713
vn 0.3633 0.8064 -0.4666
vn 0.8979 -0.4126 0.1536
vn 0.6570 0.6068 0.4474
vn 0.1120 -0.7396 0.6637
vn -0.1195 0.2837 0.9514
vn -0.6709 -0.7396 0.0540
vn -0.8931 0.2837 0.3490
vn -0.3689 -0.4126 -0.8328
vn -0.5948 0.6068 -0.5273
vn 0.8108 -0.4606 -0.3612
vn 0.5029 0.8639 0.0271
vn 0.5735 0.3587 -0.7365
vn 0.9256 0.1193 0.3591
vn 0.5565 -0.7359 0.3856
vn 0.2512 0.5915 0.7662
vn -0.0053 -0.2680 0.9634
vn -0.2600 -0.9061 0.3338
vn -0.5567 0.4231 0.7149
vn -0.9327 -0.2680 0.2412
vn -0.5103 -0.7359 -0.4450
vn -0.8044 0.5915 -0.0558
vn -0.5750 0.1193 -0.8094
vn 0.1515 -0.4606 -0.8746
vn -0.1496 0.8639 -0.4809
vn 0.2129 -0.9381 -0.2734
vn 0.9277 0.2902 -0.2348
vn 0.0002 0.2902 -0.9570
vn -0.2129 0.9381 0.2734
vn 0.5700 -0.0972 0.8159
vn -0.5785 -0.3365 0.7430
vn -0.9307 -0.0972 -0.3527
vn 0.5955 -0.1750 -0.7840
vn 0.3398 0.8273 -0.4473
vn 0.9085 -0.3968 0.1311
vn 0.6490 0.6082 0.4570
vn 0.1364 -0.7556 0.6407
vn -0.1140 0.2536 0.9606
vn -0.6538 -0.7556 0.0405
vn -0.8948 0.2536 0.3675
vn -0.3700 -0.3968 -0.8400
vn -0.6144 0.6082 -0.5027
vn 0.8162 -0.4319 -0.3838
vn 0.4841 0.8738 0.0462
vn 0.5564 0.3922 -0.7325
vn 0.9271 0.1295 0.3516
vn 0.5772 -0.7341 0.3577
vn 0.2476 0.5748 0.7799
vn 0.0125 -0.2955 0.9553
vn -0.2359 -0.9208 0.3106
vn -0.5570 0.3900 0.7333
vn -0.9236 -0.2955 0.2442
vn -0.4995 -0.7341 -0.4601
vn -0.8178 0.5748 -0.0293
vn -0.5874 0.1295 -0.7989
vn 0.1508 -0.4319 -0.8892
vn -0.1743 0.8738 -0.4540
vn 0.2300 -0.9249 -0.3028
vn 0.9182 0.3173 -0.2371
vn -0.0179 0.3173 -0.9481
vn -0.2300 0.9249 0.3028
vn 0.5820 -0.1077 0.8060
vn -0.5618 -0.3704 0.7397
vn -0.9326 -0.1077 -0.3445
vn 0.1324 -0.9832 0.1258
vn -0.2298 0.9545 0.1901
vn 0.0630 -0.9871 -0.1472
vn -0.2992 0.9506 -0.0829
vn 0.2992 -0.9506 0.0829
vn -0.0630 0.9871 0.1472
vn 0.2298 -0.9545 -0.1901
vn -0.1324 0.9832 -0.1258
vn 0.0987 -0.9951 -0.0108
vn -0.2934 -0.0865 0.9521
vn -0.2672 0.9621 0.0542
vn -0.7121 -0.1101 -0.6934
vn 0.1469 -0.9745 -0.1693
vn -0.2167 0.9706 -0.1047
vn 0.2934 0.0865 -0.9521
vn 0.2672 -0.9621 -0.0542
vn -0.0987 0.9951 0.0108
vn 0.7121 0.1101 0.6934
vn 0.2167 -0.9706 0.1048
vn -0.1469 0.9745 0.1693
vn 0.1837 -0.9824 -0.0326
vn -0.9516 -0.1860 0.2448
vn 0.2466 0.0139 0.9690
vn -0.1837 0.9824 0.0326
vn -0.2466 -0.0139 -0.9690
vn 0.9516 0.1860 -0.2448
vn -0.1284 -0.9604 0.2473
vn -0.1527 0.8797 -0.4503
vn 0.1726 -0.9456 0.2760
vn 0.1483 0.8945 -0.4217
vn -0.1483 -0.8945 0.4217
vn -0.1726 0.9455 -0.2760
vn 0.1527 -0.8797 0.4503
vn 0.1285 0.9604 -0.2473
vn 0.0223 -0.9641 0.2647
vn -0.7897 -0.2265 -0.5701
vn -0.0022 0.8975 -0.4411
vn 0.9011 -0.1433 -0.4092
vn 0.1634 -0.9167 0.3647
vn 0.1391 0.9315 -0.3360
vn 0.7897 0.2265 0.5701
vn 0.0022 -0.8975 0.4411
vn -0.0223 0.9641 -0.2647
vn -0.9011 0.1433 0.4092
vn -0.1391 -0.9315 0.3360
vn -0.1633 0.9167 -0.3647
vn 0.0123 -0.9350 0.3545
vn 0.1058 -0.3513 -0.9303
vn -0.9943 -0.0489 -0.0946
vn -0.0123 0.9350 -0.3545
vn 0.9943 0.0489 0.0946
vn -0.1058 0.3513 0.9303
vn 0.3210 -0.9470 -0.0116
vn -0.3891 0.8619 0.3251
vn 0.2347 -0.9311 -0.2793
vn -0.4756 0.8778 0.0573
vn 0.4755 -0.8778 -0.0573
vn -0.2347 0.9311 0.2793
vn 0.3891 -0.8619 -0.3250
vn -0.3211 0.9470 0.0116
vn 0.2807 -0.9485 -0.1469
vn -0.2051 -0.2563 0.9446
vn -0.4367 0.8787 0.1931
vn -0.7259 -0.1605 -0.6689
vn 0.3131 -0.9000 -0.3033
vn -0.3998 0.9159 0.0346
vn 0.2051 0.2563 -0.9446
vn 0.4367 -0.8786 -0.1931
vn -0.2807 0.9485 0.1469
vn 0.7259 0.1605 0.6688
vn 0.3998 -0.9159 -0.0346
vn -0.3131 0.9000 0.3034
vn 0.3601 -0.9172 -0.1707
vn -0.8811 -0.3945 0.2610
vn 0.3067 -0.0564 0.9501
vn -0.3601 0.9172 0.1707
vn -0.3067 0.0564 -0.9501
vn 0.8811 0.3945 -0.2610
vn -0.2253 -0.8976 0.3789
vn -0.0601 0.8157 -0.5754
vn 0.0754 -0.9077 0.4128
vn 0.2407 0.8055 -0.5415
vn -0.2406 -0.8056 0.5415
vn -0.0753 0.9077 -0.4128
vn 0.0602 -0.8157 0.5754
vn 0.2253 0.8976 -0.3789
vn -0.0759 -0.9132 0.4004
vn -0.8017 -0.2300 -0.5517
vn 0.0913 0.8201 -0.5649
vn 0.8872 -0.2868 -0.3614
vn 0.0680 -0.8655 0.4962
vn 0.2341 0.8553 -0.4622
vn 0.8017 0.2300 0.5517
vn -0.0913 -0.8201 0.5649
vn 0.0759 0.9132 -0.4004
vn -0.8872 0.2868 0.3614
vn -0.2341 -0.8553 0.4622
vn -0.0680 0.8655 -0.4962
vn -0.0839 -0.8706 0.4849
vn 0.0812 -0.4909 -0.8674
vn -0.9932 0.0334 -0.1119
vn 0.0839 0.8706 -0.4849
vn 0.9932 -0.0334 0.1119
vn -0.0812 0.4909 0.8674
vn 0.4617 -0.8869 0.0151
vn -0.5349 0.7920 0.2944
vn 0.3904 -0.8839 -0.2575
vn -0.6064 0.7949 0.0218
vn 0.6064 -0.7948 -0.0218
vn -0.3904 0.8839 0.2575
vn 0.5350 -0.7919 -0.2943
vn -0.4618 0.8869 -0.0150
vn 0.4304 -0.8943 -0.1224
vn -0.2207 -0.2862 0.9324
vn -0.5764 0.8014 0.1597
vn -0.6509 -0.2683 -0.7102
vn 0.4644 -0.8412 -0.2770
vn -0.5361 0.8441 0.0034
vn 0.2207 0.2862 -0.9324
vn 0.5765 -0.8014 -0.1597
vn -0.4303 0.8943 0.1224
vn 0.6509 0.2683 0.7102
vn 0.5361 -0.8441 -0.0034
vn -0.4645 0.8412 0.2770
vn 0.5054 -0.8512 -0.1416
vn -0.8249 -0.5247 0.2103
vn 0.2533 -0.0105 0.9673
vn -0.5054 0.8512 0.1416
vn -0.2533 0.0105 -0.9673
vn 0.8249 0.5247 -0.2103
vn -0.2434 -0.8508 0.4657
vn -0.0482 0.7595 -0.6487
vn 0.0576 -0.8668 0.4953
vn 0.2527 0.7435 -0.6191
vn -0.2527 -0.7435 0.6191
vn -0.0576 0.8668 -0.4954
vn 0.0482 -0.7596 0.6487
vn 0.2433 0.8508 -0.4657
vn -0.0940 -0.8688 0.4861
vn -0.8186 -0.2564 -0.5139
vn 0.1035 0.7603 -0.6413
vn 0.8714 -0.3462 -0.3476
vn 0.0532 -0.8168 0.5745
vn 0.2491 0.8007 -0.5448
vn 0.8186 0.2564 0.5140
vn -0.1035 -0.7603 0.6413
vn 0.0940 0.8688 -0.4861
vn -0.8714 0.3462 0.3476
vn -0.2491 -0.8007 0.5448
vn -0.0530 0.8168 -0.5746
vn -0.0992 -0.8182 0.5662
vn 0.0502 -0.5724 -0.8184
vn -0.9938 0.0528 -0.0978
vn 0.0992 0.8182 -0.5662
vn 0.9938 -0.0528 0.0978
vn -0.0502 0.5724 0.8184
vn 0.2259 -0.8537 0.4693
vn -0.5845 0.7473 -0.3160
vn 0.4430 -0.8722 0.2076
vn -0.3672 0.7288 -0.5779
vn 0.3673 -0.7288 0.5778
vn -0.4430 0.8722 -0.2076
vn 0.5845 -0.7473 0.3160
vn -0.2257 0.8537 -0.4694
vn 0.3393 -0.8757 0.3435
vn -0.8872 -0.2630 0.3791
vn -0.4829 0.7490 -0.4536
vn 0.1874 -0.3546 -0.9161
vn 0.5169 -0.8146 0.2633
vn -0.2983 0.7960 -0.5267
vn 0.8872 0.2630 -0.3791
vn 0.4830 -0.7490 0.4536
vn -0.3394 0.8757 -0.3434
vn -0.1873 0.3546 0.9161
vn 0.2983 -0.7960 0.5267
vn -0.5168 0.8146 -0.2634
vn 0.4137 -0.8174 0.4010
vn -0.6499 -0.5735 -0.4987
vn -0.6376 0.0543 0.7685
vn -0.4137 0.8174 -0.4010
vn 0.6376 -0.0543 -0.7685
vn 0.6499 0.5735 0.4987
vn -0.9437 -0.2817 -0.1735
vn -0.6382 0.7609 -0.1173
vn -0.2477 -0.4434 -0.8614
vn 0.0501 0.6010 -0.7977
vn 0.5883 -0.7050 -0.3961
vn 0.8769 0.3423 -0.3375
vn 0.4090 -0.7050 0.5794
vn 0.6995 0.3423 0.6273
vn -0.5379 -0.4434 0.7170
vn -0.2368 0.6010 0.7634
vn -0.6596 -0.5166 -0.5459
vn -0.2693 0.8406 -0.4700
vn -0.9416 0.2890 -0.1731
vn -0.1167 0.0973 -0.9884
vn 0.1378 -0.7369 -0.6618
vn 0.5203 0.6224 -0.5848
vn 0.8740 -0.2127 -0.4369
vn 0.4795 -0.8731 0.0882
vn 0.8587 0.4876 0.1579
vn 0.6615 -0.2127 0.7192
vn -0.1066 -0.7369 0.6675
vn 0.2783 0.6224 0.7316
vn -0.4606 0.0973 0.8822
vn -0.8106 -0.5166 0.2756
vn -0.4189 0.8406 0.3435
vn -0.2727 -0.9608 -0.0501
vn -0.6555 0.2338 -0.7181
vn -0.8680 0.2338 0.4380
vn 0.2727 0.9608 0.0501
vn 0.4666 -0.0763 -0.8812
vn 0.9476 -0.2679 0.1742
vn 0.1227 -0.0763 0.9895
vn -0.9636 -0.2218 -0.1494
vn -0.5934 0.7996 -0.0920
vn -0.2980 -0.4178 -0.8583
vn 0.0648 0.6057 -0.7930
vn 0.5329 -0.7350 -0.4192
vn 0.8866 0.2920 -0.3588
vn 0.3809 -0.7350 0.5609
vn 0.7362 0.2920 0.6105
vn -0.5440 -0.4178 0.7277
vn -0.1785 0.6057 0.7754
vn -0.7048 -0.4693 -0.5320
vn -0.2303 0.8606 -0.4542
vn -0.9265 0.3477 -0.1437
vn -0.1378 0.1153 -0.9837
vn 0.0741 -0.7365 -0.6724
vn 0.5410 0.5961 -0.5933
vn 0.8470 -0.2606 -0.4634
vn 0.4275 -0.9016 0.0663
vn 0.8909 0.4326 0.1382
vn 0.6668 -0.2606 0.6982
vn -0.1330 -0.7365 0.6632
vn 0.3359 0.5961 0.7293
vn -0.4293 0.1153 0.8958
vn -0.8328 -0.4693 0.2935
vn -0.3570 0.8606 0.3632
vn -0.3323 -0.9418 -0.0515
vn -0.6595 0.2813 -0.6971
vn -0.8397 0.2813 0.4646
vn 0.3323 0.9418 0.0515
vn 0.4366 -0.0947 -0.8947
vn 0.9339 -0.3270 0.1448
vn 0.1451 -0.0947 0.9849
vn -0.0233 -0.9597 -0.2799
vn 0.3396 0.9218 0.1869
vn -0.2156 -0.9736 -0.0744
vn 0.1474 0.9079 0.3925
vn -0.1474 -0.9079 -0.3925
vn 0.2156 0.9736 0.0744
vn -0.3396 -0.9218 -0.1869
vn 0.0233 0.9597 0.2799
vn -0.1207 -0.9764 -0.1790
vn 0.9531 -0.1143 -0.2802
vn 0.2459 0.9241 0.2926
vn -0.2055 -0.1982 0.9584
vn -0.2787 -0.9514 -0.1312
vn 0.0857 0.9374 0.3375
vn -0.9531 0.1143 0.2802
vn -0.2459 -0.9241 -0.2926
vn 0.1207 0.9764 0.1790
vn 0.2055 0.1982 -0.9584
vn -0.0857 -0.9374 -0.3375
vn 0.2787 0.9514 0.1312
vn -0.1840 -0.9540 -0.2367
vn 0.7075 -0.2957 0.6418
vn 0.6823 0.0494 -0.7294
vn 0.1840 0.9540 0.2367
vn -0.6823 -0.0494 0.7294
vn -0.7075 0.2957 -0.6418
vn 0.2657 -0.9632 0.0414
vn -0.3035 0.9019 0.3074
vn 0.1415 -0.9617 -0.2347
vn -0.4278 0.9033 0.0313
vn 0.4278 -0.9033 -0.0313
vn -0.1413 0.9617 0.2348
vn 0.3035 -0.9019 -0.3073
vn -0.2657 0.9632 -0.0414
vn 0.2060 -0.9737 -0.0978
vn -0.1062 -0.1721 0.9793
vn -0.3699 0.9132 0.1713
vn -0.8042 -0.1640 -0.5713
vn 0.2234 -0.9359 -0.2722
vn -0.3483 0.9374 -0.0051
vn 0.1062 0.1721 -0.9793
vn 0.3699 -0.9131 -0.1713
vn -0.2059 0.9737 0.0978
vn 0.8042 0.1640 0.5713
vn 0.3483 -0.9374 0.0051
vn -0.2234 0.9359 0.2723
vn 0.2892 -0.9477 -0.1352
vn -0.8648 -0.3192 0.3876
vn 0.4105 -0.0048 0.9119
vn -0.2892 0.9477 0.1352
vn -0.4105 0.0048 -0.9119
vn 0.8648 0.3192 -0.3876
vn -0.1799 -0.9432 -0.2793
vn 0.4837 0.8571 0.1775
vn -0.3662 -0.9280 -0.0685
vn 0.2973 0.8723 0.3883
vn -0.2973 -0.8722 -0.3883
vn 0.3662 0.9280 0.0685
vn -0.4837 -0.8570 -0.1775
vn 0.1799 0.9432 0.2793
vn -0.2757 -0.9451 -0.1756
vn 0.9157 -0.2597 -0.3066
vn 0.3944 0.8734 0.2858
vn -0.2075 -0.1681 0.9637
vn -0.4266 -0.8960 -0.1235
vn 0.2395 0.9112 0.3351
vn -0.9157 0.2597 0.3066
vn -0.3945 -0.8733 -0.2858
vn 0.2757 0.9451 0.1757
vn 0.2075 0.1681 -0.9637
vn -0.2395 -0.9112 -0.3351
vn 0.4265 0.8960 0.1235
vn -0.3364 -0.9128 -0.2316
vn 0.6703 -0.4049 0.6219
vn 0.6614 -0.0540 -0.7481
vn 0.3364 0.9128 0.2316
vn -0.6614 0.0540 0.7481
vn -0.6703 0.4049 -0.6219
vn 0.3613 -0.9324 -0.0110
vn -0.3659 0.8585 0.3593
vn 0.2165 -0.9362 -0.2768
vn -0.5107 0.8547 0.0934
vn 0.5106 -0.8547 -0.0934
vn -0.2165 0.9362 0.2769
vn 0.3659 -0.8585 -0.3593
vn -0.3613 0.9324 0.0110
vn 0.2922 -0.9452 -0.1456
vn -0.0127 -0.2074 0.9782
vn -0.4434 0.8666 0.2290
vn -0.8260 -0.2289 -0.5151
vn 0.2925 -0.9013 -0.3195
vn -0.4379 0.8975 0.0525
vn 0.0127 0.2074 -0.9782
vn 0.4433 -0.8666 -0.2290
vn -0.2923 0.9452 0.1456
vn 0.8260 0.2289 0.5151
vn 0.4379 -0.8975 -0.0524
vn -0.2924 0.9013 0.3195
vn 0.3695 -0.9100 -0.1882
vn -0.7967 -0.4144 0.4399
vn 0.4783 0.0126 0.8781
vn -0.3695 0.9100 0.1882
vn -0.4783 -0.0126 -0.8781
vn 0.7967 0.4144 -0.4399
vn -0.1895 -0.8753 -0.4449
vn 0.4978 0.7904 0.3570
vn -0.3939 -0.8841 -0.2514
vn 0.2932 0.7816 0.5505
vn -0.2932 -0.7816 -0.5505
vn 0.3939 0.8841 0.2514
vn -0.4979 -0.7903 -0.3570
vn 0.1893 0.8753 0.4449
vn -0.2947 -0.8886 -0.3516
vn 0.9297 -0.2560 -0.2649
vn 0.3995 0.7939 0.4583
vn -0.3034 -0.3088 0.9014
vn -0.4476 -0.8405 -0.3054
vn 0.2423 0.8317 0.4996
vn -0.9297 0.2560 0.2649
vn -0.3995 -0.7939 -0.4583
vn 0.2947 0.8885 0.3517
vn 0.3034 0.3088 -0.9014
vn -0.2421 -0.8317 -0.4996
vn 0.4476 0.8405 0.3054
vn -0.3484 -0.8446 -0.4066
vn 0.5927 -0.5345 0.6025
vn 0.7262 0.0311 -0.6868
vn 0.3484 0.8446 0.4066
vn -0.7262 -0.0311 0.6868
vn -0.5927 0.5345 -0.6025
vn 0.4919 -0.8705 -0.0166
vn -0.4991 0.7870 0.3627
vn 0.3594 -0.8875 -0.2884
vn -0.6315 0.7701 0.0910
vn 0.6315 -0.7701 -0.0910
vn -0.3595 0.8875 0.2884
vn 0.4991 -0.7870 -0.3627
vn -0.4918 0.8705 0.0167
vn 0.4306 -0.8893 -0.1543
vn -0.0202 -0.2345 0.9719
vn -0.5718 0.7876 0.2295
vn -0.7641 -0.3299 -0.5544
vn 0.4311 -0.8410 -0.3270
vn -0.5641 0.8239 0.0541
vn 0.0203 0.2345 -0.9719
vn 0.5719 -0.7876 -0.2295
vn -0.4306 0.8893 0.1543
vn 0.7641 0.3299 0.5544
vn 0.5642 -0.8239 -0.0540
vn -0.4311 0.8409 0.3270
vn 0.5035 -0.8422 -0.1928
vn -0.7451 -0.5362 0.3966
vn 0.4374 0.0561 0.8975
vn -0.5035 0.8422 0.1928
vn -0.4374 -0.0561 -0.8975
vn 0.7451 0.5362 -0.3966
vn 0.1843 -0.9000 -0.3950
vn 0.1302 0.7763 0.6168
vn -0.1542 -0.8886 -0.4321
vn -0.2082 0.7877 0.5798
vn 0.2081 -0.7877 -0.5798
vn 0.1542 0.8885 0.4321
vn -0.1302 -0.7763 -0.6168
vn -0.1843 0.9000 0.3951
vn 0.0153 -0.9076 -0.4197
vn 0.7777 -0.3063 0.5490
vn -0.0397 0.7936 0.6072
vn -0.8967 -0.2496 0.3655
vn -0.1426 -0.8374 -0.5276
vn -0.1974 0.8489 0.4903
vn -0.7777 0.3063 -0.5490
vn 0.0397 -0.7936 -0.6072
vn -0.0153 0.9075 0.4197
vn 0.8967 0.2496 -0.3655
vn 0.1974 -0.8489 -0.4903
vn 0.1431 0.8374 0.5276
vn 0.0276 -0.8558 -0.5166
vn -0.1106 -0.5162 0.8493
vn 0.9935 -0.0336 0.1089
vn -0.0276 0.8558 0.5166
vn -0.9935 0.0336 -0.1089
vn 0.1106 0.5162 -0.8493
vn 0.4774 0.6302 -0.6123
vn -0.2916 0.8403 0.4570
vn 0.0225 0.9568 -0.2899
vn 0.1357 -0.9620 0.2370
vn 0.1392 0.9752 -0.1719
vn -0.0225 -0.9568 0.2900
vn -0.1392 -0.9752 0.1720
vn -0.1358 0.9620 -0.2370
vn -0.1789 -0.9631 -0.2009
vn 0.3206 0.8959 0.3075
vn -0.9165 0.1442 0.3732
vn -0.3207 -0.8959 -0.3075
vn 0.1297 0.2290 -0.9647
vn -0.1545 -0.9153 -0.3720
vn 0.3416 0.9304 0.1327
vn 0.6152 0.0498 -0.7868
vn -0.1014 -0.9615 0.2555
vn 0.1409 0.8983 -0.4162
vn 0.0164 -0.9292 0.3693
vn -0.1409 -0.8983 0.4162
vn -0.2573 -0.9192 0.2982
vn -0.0164 0.9292 -0.3693
vn -0.2510 -0.9564 -0.1496
vn 0.4009 0.8840 0.2404
vn -0.4022 -0.9133 -0.0635
vn 0.2449 0.9139 0.3237
vn 0.2509 0.9564 0.1496
vn -0.2449 -0.9139 -0.3238
vn -0.0261 -0.8582 0.5126
vn 0.3004 0.8436 -0.4451
vn 0.7282 0.2246 0.6476
vn 0.1484 0.9012 -0.4073
vn -0.9185 0.3126 0.2421
vn -0.3006 -0.8436 0.4451
vn 0.0262 0.8582 -0.5126
vn -0.4409 -0.8495 -0.2897
vn 0.5586 0.7350 0.3845
vn 0.4045 0.7928 0.4559
vn -0.8388 0.3526 0.4147
vn -0.5586 -0.7349 -0.3845
vn -0.4663 -0.8733 0.1410
vn -0.4877 -0.8071 0.3328
vn 0.6033 0.7974 -0.0104
vn -0.6343 -0.7453 0.2052
vn 0.4663 0.8733 -0.1410
vn -0.6034 -0.7974 0.0103
vn 0.4876 0.8071 -0.3329
vn -0.2128 0.9381 0.2734
vn -0.1744 0.8738 -0.4540
vn -0.2167 0.9706 -0.1048
vn 0.2167 -0.9706 0.1047
vn 0.1633 -0.9167 0.3647
vn -0.0222 0.9641 -0.2647
vn 0.2806 -0.9485 -0.1469
vn -0.4367 0.8786 0.1931
vn -0.7259 -0.1605 -0.6688
vn 0.3131 -0.9000 -0.3034
vn -0.3999 0.9159 0.0346
vn -0.3131 0.9000 0.3033
vn 0.2339 0.8554 -0.4622
vn -0.2339 -0.8554 0.4622
vn 0.4303 -0.8943 -0.1224
vn 0.4645 -0.8412 -0.2770
vn 0.5763 -0.8015 -0.1597
vn -0.4303 0.8944 0.1224
vn 0.6508 0.2683 0.7102
vn 0.5361 -0.8442 -0.0034
vn -0.4644 0.8412 0.2770
vn -0.8186 -0.2564 -0.5140
vn 0.0530 -0.8168 0.5745
vn 0.0940 0.8688 -0.4862
vn -0.0532 0.8168 -0.5745
vn 0.3394 -0.8757 0.3434
vn -0.8872 -0.2630 0.3792
vn -0.4829 0.7491 -0.4536
vn 0.1873 -0.3546 -0.9161
vn 0.5168 -0.8146 0.2634
vn -0.2982 0.7960 -0.5267
vn 0.4829 -0.7491 0.4536
vn -0.3394 0.8757 -0.3435
vn -0.1874 0.3546 0.9161
vn 0.2984 -0.7960 0.5267
vn -0.5169 0.8146 -0.2633
vn -0.2302 0.8606 -0.4542
vn 0.1206 0.9764 0.1790
vn 0.2059 -0.9737 -0.0978
vn -0.3700 0.9131 0.1713
vn -0.2234 0.9359 0.2722
vn -0.2074 -0.1681 0.9637
vn 0.2395 0.9113 0.3351
vn -0.3945 -0.8734 -0.2858
vn 0.2757 0.9451 0.1756
vn -0.2395 -0.9113 -0.3351
vn 0.4266 0.8960 0.1235
vn 0.2923 -0.9452 -0.1456
vn -0.4433 0.8666 0.2290
vn -0.4379 0.8975 0.0524
vn 0.4434 -0.8666 -0.2290
vn -0.2922 0.9452 0.1456
vn 0.4379 -0.8975 -0.0525
vn -0.2925 0.9013 0.3195
vn -0.2946 -0.8886 -0.3516
vn 0.2421 0.8317 0.4996
vn -0.3996 -0.7939 -0.4583
vn 0.2946 0.8886 0.3517
vn -0.2422 -0.8317 -0.4996
vn 0.4477 0.8404 0.3053
vn -0.0203 -0.2346 0.9719
vn -0.5719 0.7876 0.2295
vn -0.5642 0.8239 0.0541
vn -0.4307 0.8892 0.1543
vn 0.7641 0.3299 0.5543
vn -0.4311 0.8410 0.3270
vn -0.1430 -0.8374 -0.5276
vn -0.7776 0.3063 -0.5490
vn 0.1972 -0.8489 -0.4903
vn 0.1426 0.8374 0.5276
vt 0.050265 0.460000
vt 0.056128 0.463000
vt 0.044403 0.463000
vt 0.050265 0.540000
vt 0.043627 0.537000
vt 0.056904 0.537000
vt 0.030584 0.460000
vt 0.036348 0.463000
vt 0.024483 0.463000
vt 0.030693 0.540000
vt 0.023715 0.537000
vt 0.037168 0.537000
vt 0.010324 0.460000
vt 0.016267 0.463000
vt 0.004161 0.463000
vt 0.010396 0.540000
vt 0.003351 0.537000
vt 0.017110 0.537000
vt 0.090207 0.460000
vt 0.096370 0.463000
vt 0.084264 0.463000
vt 0.090135 0.540000
vt 0.083421 0.537000
vt 0.097180 0.537000
vt 0.069947 0.460000
vt 0.076048 0.463000
vt 0.064183 0.463000
vt 0.069838 0.540000
vt 0.063363 0.537000
vt 0.076816 0.537000
vt 0.110855 0.460000
vt 0.104692 0.463000
vt 0.110927 0.540000
vt 0.103882 0.537000
vt 0.044736 0.460000
vt 0.050627 0.463000
vt 0.038845 0.463000
vt 0.044736 0.540000
vt 0.037966 0.537000
vt 0.051506 0.537000
vt 0.027640 0.460000
vt 0.033292 0.463000
vt 0.021248 0.463000
vt 0.027909 0.540000
vt 0.020375 0.537000
vt 0.034255 0.537000
vt 0.009475 0.460000
vt 0.015480 0.463000
vt 0.002959 0.463000
vt 0.009672 0.540000
vt 0.001996 0.537000
vt 0.016500 0.537000
vt 0.079997 0.460000
vt 0.086514 0.463000
vt 0.073992 0.463000
vt 0.079801 0.540000
vt 0.072972 0.537000
vt 0.087477 0.537000
vt 0.061833 0.460000
vt 0.068225 0.463000
vt 0.056180 0.463000
vt 0.061563 0.540000
vt 0.055217 0.537000
vt 0.069097 0.537000
vt 0.098948 0.460000
vt 0.092431 0.463000
vt 0.091469 0.537000
vt 0.099144 0.540000
vt 0.455540 0.472336
vt 0.455540 0.472000
vt 0.455000 0.472336
vt 0.455540 0.527664
vt 0.455000 0.527664
vt 0.455540 0.528000
vt 0.544460 0.472336
vt 0.545000 0.472336
vt 0.544460 0.472000
vt 0.544460 0.527664
vt 0.544460 0.528000
vt 0.545000 0.527664
vt 0.455540 0.496048
vt 0.455000 0.503952
vt 0.455000 0.496048
vt 0.455540 0.503952
vt 0.545000 0.496048
vt 0.544460 0.503952
vt 0.545000 0.503952
vt 0.544460 0.496048
vt 0.472336 0.503952
vt 0.527664 0.496048
vt 0.472336 0.496048
vt 0.527664 0.503952
vt 0.458504 0.474312
vt 0.458504 0.474000
vt 0.458000 0.474312
vt 0.458504 0.525688
vt 0.458000 0.525688
vt 0.458504 0.526000
vt 0.541496 0.474312
vt 0.542000 0.474312
vt 0.541496 0.474000
vt 0.541496 0.525688
vt 0.541496 0.526000
vt 0.542000 0.525688
vt 0.458504 0.496048
vt 0.458000 0.503952
vt 0.458000 0.496048
vt 0.458504 0.503952
vt 0.542000 0.496048
vt 0.541496 0.503952
vt 0.542000 0.503952
vt 0.541496 0.496048
vt 0.474312 0.503952
vt 0.525688 0.496048
vt 0.474312 0.496048
vt 0.525688 0.503952
vt 0.464432 0.477276
vt 0.464432 0.477000
vt 0.464000 0.477276
vt 0.464432 0.522724
vt 0.464000 0.522724
vt 0.464432 0.523000
vt 0.535568 0.477276
vt 0.536000 0.477276
vt 0.535568 0.477000
vt 0.535568 0.522724
vt 0.535568 0.523000
vt 0.536000 0.522724
vt 0.464432 0.496048
vt 0.464000 0.503952
vt 0.464000 0.496048
vt 0.464432 0.503952
vt 0.536000 0.496048
vt 0.535568 0.503952
vt 0.536000 0.503952
vt 0.535568 0.496048
vt 0.477276 0.496048
vt 0.522724 0.503952
vt 0.522724 0.496048
vt 0.477276 0.503952
vt 0.050265 0.466250
vt 0.056133 0.469250
vt 0.044398 0.469250
vt 0.050265 0.533750
vt 0.043634 0.530750
vt 0.056896 0.530750
vt 0.030586 0.466250
vt 0.036355 0.469250
vt 0.024479 0.469250
vt 0.030695 0.533750
vt 0.023723 0.530750
vt 0.037163 0.530750
vt 0.010326 0.466250
vt 0.016274 0.469250
vt 0.004156 0.469250
vt 0.010398 0.533750
vt 0.003358 0.530750
vt 0.017105 0.530750
vt 0.090205 0.466250
vt 0.096375 0.469250
vt 0.084257 0.469250
vt 0.090133 0.533750
vt 0.083426 0.530750
vt 0.097173 0.530750
vt 0.069945 0.466250
vt 0.076052 0.469250
vt 0.064176 0.469250
vt 0.069836 0.533750
vt 0.063368 0.530750
vt 0.076808 0.530750
vt 0.110857 0.466250
vt 0.104687 0.469250
vt 0.110929 0.533750
vt 0.103889 0.530750
vt 0.044736 0.466250
vt 0.050632 0.469250
vt 0.038840 0.469250
vt 0.044736 0.533750
vt 0.037974 0.530750
vt 0.051498 0.530750
vt 0.027642 0.466250
vt 0.033300 0.469250
vt 0.021243 0.469250
vt 0.027912 0.533750
vt 0.020384 0.530750
vt 0.034248 0.530750
vt 0.009477 0.466250
vt 0.015488 0.469250
vt 0.002953 0.469250
vt 0.009674 0.533750
vt 0.002004 0.530750
vt 0.016493 0.530750
vt 0.079995 0.466250
vt 0.086520 0.469250
vt 0.073984 0.469250
vt 0.079799 0.533750
vt 0.072979 0.530750
vt 0.087468 0.530750
vt 0.061831 0.466250
vt 0.068229 0.469250
vt 0.056173 0.469250
vt 0.061560 0.533750
vt 0.055224 0.530750
vt 0.069088 0.530750
vt 0.092425 0.469250
vt 0.098950 0.466250
vt 0.091477 0.530750
vt 0.099146 0.533750
vt 0.050265 0.463750
vt 0.056131 0.466750
vt 0.044400 0.466750
vt 0.050265 0.536250
vt 0.043631 0.533250
vt 0.056900 0.533250
vt 0.030585 0.463750
vt 0.036352 0.466750
vt 0.024480 0.466750
vt 0.030694 0.536250
vt 0.023720 0.533250
vt 0.037165 0.533250
vt 0.010325 0.463750
vt 0.016271 0.466750
vt 0.004158 0.466750
vt 0.010397 0.536250
vt 0.003355 0.533250
vt 0.017107 0.533250
vt 0.090206 0.463750
vt 0.096373 0.466750
vt 0.084260 0.466750
vt 0.090134 0.536250
vt 0.083424 0.533250
vt 0.097176 0.533250
vt 0.069946 0.463750
vt 0.076050 0.466750
vt 0.064179 0.466750
vt 0.069837 0.536250
vt 0.063366 0.533250
vt 0.076811 0.533250
vt 0.104689 0.466750
vt 0.110856 0.463750
vt 0.103886 0.533250
vt 0.110928 0.536250
vt 0.044736 0.463750
vt 0.050630 0.466750
vt 0.038843 0.466750
vt 0.044736 0.536250
vt 0.037971 0.533250
vt 0.051502 0.533250
vt 0.027641 0.463750
vt 0.033296 0.466750
vt 0.021245 0.466750
vt 0.027911 0.536250
vt 0.020380 0.533250
vt 0.034251 0.533250
vt 0.009476 0.463750
vt 0.015485 0.466750
vt 0.002955 0.466750
vt 0.009673 0.536250
vt 0.002001 0.533250
vt 0.016496 0.533250
vt 0.079996 0.463750
vt 0.086517 0.466750
vt 0.073988 0.466750
vt 0.079800 0.536250
vt 0.072976 0.533250
vt 0.087472 0.533250
vt 0.061832 0.463750
vt 0.068227 0.466750
vt 0.056176 0.466750
vt 0.061562 0.536250
vt 0.055221 0.533250
vt 0.069092 0.533250
vt 0.098949 0.463750
vt 0.092428 0.466750
vt 0.099145 0.536250
vt 0.091473 0.533250
s 0
usemtl bark
f 1/1/1 2/2/1 3/3/1
f 4/4/2 5/5/2 6/6/2
f 7/7/3 8/8/3 9/9/3
f 10/10/4 11/11/4 12/12/4
f 13/13/5 14/14/5 15/15/5
f 16/16/6 17/17/6 18/18/6
f 19/19/7 20/20/7 21/21/7
f 22/22/8 23/23/8 24/24/8
f 25/25/9 26/26/9 27/27/9
f 28/28/10 29/29/10 30/30/10
f 8/8/11 1/1/11 3/3/11
f 5/5/12 10/10/12 12/12/12
f 6/6/13 3/3/13 2/2/13
f 9/9/14 12/12/14 11/11/14
f 14/14/15 7/7/15 9/9/15
f 11/11/16 16/16/16 18/18/16
f 15/15/17 18/18/17 17/17/17
f 20/20/18 13/31/18 15/32/18
f 24/24/19 16/33/19 22/22/19
f 21/21/20 24/24/20 23/23/20
f 26/26/21 19/19/21 21/21/21
f 30/30/22 22/22/22 28/28/22
f 27/27/23 30/30/23 29/29/23
f 2/2/24 25/25/24 27/27/24
f 6/6/25 28/28/25 4/4/25
f 7/7/26 19/19/26 25/25/26
f 5/5/27 8/8/27 3/3/27
f 27/27/28 6/6/28 2/2/28
f 4/4/29 22/22/29 16/33/29
f 11/11/30 14/14/30 9/9/30
f 17/34/31 20/20/31 15/32/31
f 23/23/32 26/26/32 21/21/32
f 31/35/33 32/36/33 33/37/33
f 34/38/34 35/39/34 36/40/34
f 37/41/35 38/42/35 39/43/35
f 40/44/36 41/45/36 42/46/36
f 43/47/37 44/48/37 45/49/37
f 46/50/38 47/51/38 48/52/38
f 49/53/39 50/54/39 51/55/39
f 52/56/40 53/57/40 54/58/40
f 55/59/41 56/60/41 57/61/41
f 58/62/42 59/63/42 60/64/42
f 33/37/43 37/41/43 31/35/43
f 35/39/44 40/44/44 42/46/44
f 36/40/45 33/37/45 32/36/45
f 39/43/46 42/46/46 41/45/46
f 44/48/47 37/41/47 39/43/47
f 48/52/48 40/44/48 46/50/48
f 45/49/49 48/52/49 47/51/49
f 50/54/50 43/65/50 45/66/50
f 47/67/51 52/56/51 54/58/51
f 51/55/52 54/58/52 53/57/52
f 56/60/53 49/53/53 51/55/53
f 53/57/54 58/62/54 60/64/54
f 57/61/55 60/64/55 59/63/55
f 32/36/56 55/59/56 57/61/56
f 36/40/57 58/62/57 34/38/57
f 37/41/58 49/53/58 55/59/58
f 35/39/59 38/42/59 33/37/59
f 57/61/60 36/40/60 32/36/60
f 34/38/61 52/56/61 46/68/61
f 41/45/62 44/48/62 39/43/62
f 47/67/63 50/54/63 45/66/63
f 51/55/64 60/64/64 56/60/64
f 229/141/247 230/142/247 231/143/247
f 232/144/248 233/145/248 234/146/248
f 235/147/249 236/148/249 237/149/249
f 238/150/250 239/151/250 240/152/250
f 241/153/251 242/154/251 243/155/251
f 244/156/252 245/157/252 246/158/252
f 247/159/253 248/160/253 249/161/253
f 250/162/254 251/163/254 252/164/254
f 253/165/255 254/166/255 255/167/255
f 256/168/256 257/169/256 258/170/256
f 236/148/257 229/141/257 231/143/257
f 240/152/258 232/144/258 238/150/258
f 234/146/259 231/143/259 230/142/259
f 239/151/260 236/148/260 240/152/260
f 242/154/261 235/147/261 237/149/261
f 239/151/262 244/156/262 246/158/262
f 243/155/263 246/158/263 245/157/263
f 248/160/264 241/171/264 243/172/264
f 252/164/265 244/173/265 250/162/265
f 249/161/266 252/164/266 251/163/266
f 254/166/267 247/159/267 249/161/267
f 251/163/268 256/168/268 258/170/268
f 255/167/269 258/170/269 257/169/269
f 255/167/270 229/141/270 253/165/270
f 257/169/271 232/144/271 234/146/271
f 235/147/272 247/159/272 253/165/272
f 233/145/273 236/148/273 231/143/273
f 257/169/274 230/142/274 255/167/274
f 232/144/275 250/162/275 244/173/275
f 237/149/276 246/158/276 242/154/276
f 245/174/277 248/160/277 243/172/277
f 249/161/278 258/170/278 254/166/278
f 259/175/279 260/176/279 261/177/279
f 262/178/280 263/179/280 264/180/280
f 265/181/281 266/182/281 267/183/281
f 268/184/282 269/185/282 270/186/282
f 271/187/283 272/188/283 273/189/283
f 274/190/284 275/191/284 276/192/284
f 277/193/285 278/194/285 279/195/285
f 280/196/286 281/197/286 282/198/286
f 283/199/287 284/200/287 285/201/287
f 286/202/288 287/203/288 288/204/288
f 266/182/289 259/175/289 261/177/289
f 263/179/290 268/184/290 270/186/290
f 264/180/291 261/177/291 260/176/291
f 267/183/292 270/186/292 269/185/292
f 267/183/293 271/187/293 265/181/293
f 269/185/294 274/190/294 276/192/294
f 275/191/295 272/188/295 276/192/295
f 273/205/296 277/193/296 271/206/296
f 275/207/297 280/196/297 282/198/297
f 281/197/298 278/194/298 282/198/298
f 284/200/299 277/193/299 279/195/299
f 288/204/300 280/196/300 286/202/300
f 285/201/301 288/204/301 287/203/301
f 285/201/302 259/175/302 283/199/302
f 287/203/303 262/178/303 264/180/303
f 265/181/304 277/193/304 283/199/304
f 261/177/305 270/186/305 266/182/305
f 287/203/306 260/176/306 285/201/306
f 262/178/307 280/196/307 274/208/307
f 267/183/308 276/192/308 272/188/308
f 273/205/309 282/198/309 278/194/309
f 281/197/310 284/200/310 279/195/310
f 457/209/493 458/210/493 459/211/493
f 460/212/494 461/213/494 462/214/494
f 463/215/495 464/216/495 465/217/495
f 466/218/496 467/219/496 468/220/496
f 469/221/497 470/222/497 471/223/497
f 472/224/498 473/225/498 474/226/498
f 475/227/499 476/228/499 477/229/499
f 478/230/500 479/231/500 480/232/500
f 481/233/501 482/234/501 483/235/501
f 484/236/502 485/237/502 486/238/502
f 459/211/503 463/215/503 457/209/503
f 461/213/504 466/218/504 468/220/504
f 462/214/505 459/211/505 458/210/505
f 465/217/506 468/220/506 467/219/506
f 465/217/507 469/221/507 463/215/507
f 474/226/508 466/218/508 472/224/508
f 471/223/509 474/226/509 473/225/509
f 471/239/510 475/227/510 469/240/510
f 473/241/511 478/230/511 480/232/511
f 477/229/512 480/232/512 479/231/512
f 482/234/513 475/227/513 477/229/513
f 479/231/514 484/236/514 486/238/514
f 483/235/515 486/238/515 485/237/515
f 458/210/516 481/233/516 483/235/516
f 485/237/517 460/212/517 462/214/517
f 463/215/518 475/227/518 481/233/518
f 461/213/519 464/216/519 459/211/519
f 485/237/520 458/210/520 483/235/520
f 460/212/521 478/230/521 472/242/521
f 467/219/522 470/222/522 465/217/522
f 473/241/523 476/228/523 471/239/523
f 477/229/524 486/238/524 482/234/524
f 487/243/525 488/244/525 489/245/525
f 490/246/526 491/247/526 492/248/526
f 493/249/527 494/250/527 495/251/527
f 496/252/528 497/253/528 498/254/528
f 499/255/529 500/256/529 501/257/529
f 502/258/530 503/259/530 504/260/530
f 505/261/531 506/262/531 507/263/531
f 508/264/532 509/265/532 510/266/532
f 511/267/533 512/268/533 513/269/533
f 514/270/534 515/271/534 516/272/534
f 489/245/535 493/249/535 487/243/535
f 498/254/536 490/246/536 496/252/536
f 492/248/537 489/245/537 488/244/537
f 497/253/538 494/250/538 498/254/538
f 495/251/539 499/255/539 493/249/539
f 497/253/540 502/258/540 504/260/540
f 501/257/541 504/260/541 503/259/541
f 506/262/542 499/273/542 501/274/542
f 510/266/543 502/275/543 508/264/543
f 507/263/544 510/266/544 509/265/544
f 512/268/545 505/261/545 507/263/545
f 509/265/546 514/270/546 516/272/546
f 513/269/547 516/272/547 515/271/547
f 488/244/548 511/267/548 513/269/548
f 515/271/549 490/246/549 492/248/549
f 493/249/550 505/261/550 511/267/550
f 489/245/551 498/254/551 494/250/551
f 515/271/552 488/244/552 513/269/552
f 490/246/553 508/264/553 502/275/553
f 497/253/554 500/256/554 495/251/554
f 503/276/555 506/262/555 501/274/555
f 507/263/556 516/272/556 512/268/556
f 8/8/11 7/7/11 1/1/11
f 5/5/12 4/4/12 10/10/12
f 6/6/13 5/5/13 3/3/13
f 9/9/14 8/8/14 12/12/14
f 14/14/15 13/13/15 7/7/15
f 11/11/16 10/10/16 16/16/16
f 15/15/17 14/14/17 18/18/17
f 20/20/18 19/19/18 13/31/18
f 24/24/19 17/34/19 16/33/19
f 21/21/20 20/20/20 24/24/20
f 26/26/21 25/25/21 19/19/21
f 30/30/739 23/23/739 22/22/739
f 27/27/23 26/26/23 30/30/23
f 2/2/24 1/1/24 25/25/24
f 6/6/25 29/29/25 28/28/25
f 25/25/26 1/1/26 7/7/26
f 7/7/26 13/31/26 19/19/26
f 5/5/27 12/12/27 8/8/27
f 27/27/28 29/29/28 6/6/28
f 16/33/29 10/10/29 4/4/29
f 4/4/29 28/28/29 22/22/29
f 11/11/30 18/18/30 14/14/30
f 17/34/31 24/24/31 20/20/31
f 23/23/32 30/30/32 26/26/32
f 33/37/43 38/42/43 37/41/43
f 35/39/740 34/38/740 40/44/740
f 36/40/45 35/39/45 33/37/45
f 39/43/46 38/42/46 42/46/46
f 44/48/47 43/47/47 37/41/47
f 48/52/48 41/45/48 40/44/48
f 45/49/49 44/48/49 48/52/49
f 50/54/50 49/53/50 43/65/50
f 47/67/51 46/68/51 52/56/51
f 51/55/52 50/54/52 54/58/52
f 56/60/53 55/59/53 49/53/53
f 53/57/54 52/56/54 58/62/54
f 57/61/55 56/60/55 60/64/55
f 32/36/56 31/35/56 55/59/56
f 36/40/57 59/63/57 58/62/57
f 55/59/58 31/35/58 37/41/58
f 37/41/58 43/65/58 49/53/58
f 35/39/59 42/46/59 38/42/59
f 57/61/60 59/63/60 36/40/60
f 46/68/61 40/44/61 34/38/61
f 34/38/61 58/62/61 52/56/61
f 41/45/62 48/52/62 44/48/62
f 47/67/63 54/58/63 50/54/63
f 51/55/64 53/57/64 60/64/64
f 236/148/257 235/147/257 229/141/257
f 240/152/258 233/145/258 232/144/258
f 234/146/259 233/145/259 231/143/259
f 239/151/260 237/149/260 236/148/260
f 242/154/261 241/153/261 235/147/261
f 239/151/262 238/150/262 244/156/262
f 243/155/263 242/154/263 246/158/263
f 248/160/264 247/159/264 241/171/264
f 252/164/265 245/174/265 244/173/265
f 249/161/266 248/160/266 252/164/266
f 254/166/267 253/165/267 247/159/267
f 251/163/268 250/162/268 256/168/268
f 255/167/269 254/166/269 258/170/269
f 255/167/270 230/142/270 229/141/270
f 257/169/271 256/168/271 232/144/271
f 253/165/272 229/141/272 235/147/272
f 235/147/272 241/171/272 247/159/272
f 233/145/273 240/152/273 236/148/273
f 257/169/274 234/146/274 230/142/274
f 244/173/786 238/150/786 232/144/786
f 232/144/786 256/168/786 250/162/786
f 237/149/276 239/151/276 246/158/276
f 245/174/277 252/164/277 248/160/277
f 249/161/278 251/163/278 258/170/278
f 266/182/289 265/181/289 259/175/289
f 263/179/290 262/178/290 268/184/290
f 264/180/291 263/179/291 261/177/291
f 267/183/292 266/182/292 270/186/292
f 267/183/293 272/188/293 271/187/293
f 269/185/294 268/184/294 274/190/294
f 275/191/295 273/189/295 272/188/295
f 273/205/296 278/194/296 277/193/296
f 275/207/297 274/208/297 280/196/297
f 281/197/298 279/195/298 278/194/298
f 284/200/299 283/199/299 277/193/299
f 288/204/300 281/197/300 280/196/300
f 285/201/301 284/200/301 288/204/301
f 285/201/302 260/176/302 259/175/302
f 287/203/787 286/202/787 262/178/787
f 283/199/304 259/175/304 265/181/304
f 265/181/304 271/206/304 277/193/304
f 261/177/305 263/179/305 270/186/305
f 287/203/306 264/180/306 260/176/306
f 274/208/307 268/184/307 262/178/307
f 262/178/307 286/202/307 280/196/307
f 267/183/308 269/185/308 276/192/308
f 273/205/309 275/207/309 282/198/309
f 281/197/310 288/204/310 284/200/310
f 459/211/503 464/216/503 463/215/503
f 461/213/504 460/212/504 466/218/504
f 462/214/505 461/213/505 459/211/505
f 465/217/506 464/216/506 468/220/506
f 465/217/507 470/222/507 469/221/507
f 474/226/508 467/219/508 466/218/508
f 471/223/509 470/222/509 474/226/509
f 471/239/510 476/228/510 475/227/510
f 473/241/511 472/242/511 478/230/511
f 477/229/512 476/228/512 480/232/512
f 482/234/513 481/233/513 475/227/513
f 479/231/514 478/230/514 484/236/514
f 483/235/515 482/234/515 486/238/515
f 458/210/516 457/209/516 481/233/516
f 485/237/517 484/236/517 460/212/517
f 481/233/518 457/209/518 463/215/518
f 463/215/518 469/240/518 475/227/518
f 461/213/519 468/220/519 464/216/519
f 485/237/520 462/214/520 458/210/520
f 472/242/521 466/218/521 460/212/521
f 460/212/521 484/236/521 478/230/521
f 467/219/522 474/226/522 470/222/522
f 473/241/523 480/232/523 476/228/523
f 477/229/524 479/231/524 486/238/524
f 489/245/535 494/250/535 493/249/535
f 498/254/822 491/247/822 490/246/822
f 492/248/537 491/247/537 489/245/537
f 497/253/538 495/251/538 494/250/538
f 495/251/539 500/256/539 499/255/539
f 497/253/540 496/252/540 502/258/540
f 501/257/541 500/256/541 504/260/541
f 506/262/542 505/261/542 499/273/542
f 510/266/543 503/276/543 502/275/543
f 507/263/544 506/262/544 510/266/544
f 512/268/545 511/267/545 505/261/545
f 509/265/546 508/264/546 514/270/546
f 513/269/547 512/268/547 516/272/547
f 488/244/548 487/243/548 511/267/548
f 515/271/549 514/270/549 490/246/549
f 511/267/550 487/243/550 493/249/550
f 493/249/550 499/273/550 505/261/550
f 489/245/551 491/247/551 498/254/551
f 515/271/552 492/248/552 488/244/552
f 502/275/553 496/252/553 490/246/553
f 490/246/553 514/270/553 508/264/553
f 497/253/554 504/260/554 500/256/554
f 503/276/555 510/266/555 506/262/555
f 507/263/556 509/265/556 516/272/556
usemtl moss
f 61/69/65 62/70/65 63/71/65
f 64/70/66 65/69/66 66/71/66
f 67/72/67 68/73/67 69/74/67
f 70/72/68 71/74/68 72/73/68
f 73/75/69 74/76/69 75/77/69
f 76/75/70 77/77/70 78/76/70
f 79/78/71 80/79/71 81/80/71
f 82/78/72 83/80/72 84/79/72
f 61/69/73 68/73/73 67/72/73
f 62/81/74 66/82/74 63/83/74
f 70/72/75 66/71/75 65/69/75
f 69/81/76 72/82/76 71/84/76
f 79/78/77 69/74/77 80/79/77
f 82/78/78 71/74/78 70/72/78
f 81/85/79 84/86/79 83/87/79
f 79/78/80 74/76/80 73/75/80
f 76/75/81 83/80/81 82/78/81
f 75/88/82 78/87/82 77/86/82
f 61/69/83 75/77/83 62/70/83
f 65/69/84 77/77/84 76/75/84
f 79/78/85 61/69/85 67/72/85
f 66/89/86 68/90/86 63/91/86
f 75/88/87 64/84/87 62/81/87
f 70/72/88 76/75/88 82/78/88
f 69/81/89 84/86/89 80/88/89
f 83/92/90 74/91/90 81/90/90
f 85/93/91 86/94/91 87/95/91
f 88/94/92 89/93/92 90/95/92
f 91/96/93 92/97/93 93/98/93
f 94/96/94 95/98/94 96/97/94
f 97/99/95 98/100/95 99/101/95
f 100/99/96 101/101/96 102/100/96
f 103/102/97 104/103/97 105/104/97
f 106/102/98 107/104/98 108/103/98
f 91/96/99 87/95/99 92/97/99
f 86/105/100 90/106/100 87/107/100
f 94/96/101 90/95/101 89/93/101
f 93/105/102 96/106/102 95/108/102
f 91/96/103 104/103/103 103/102/103
f 94/96/104 108/103/104 95/98/104
f 105/109/105 108/110/105 107/111/105
f 97/99/106 105/104/106 98/100/106
f 106/102/107 102/100/107 107/104/107
f 99/112/108 102/111/108 101/110/108
f 85/93/109 99/101/109 86/94/109
f 100/99/110 88/94/110 101/101/110
f 103/102/111 85/93/111 91/96/111
f 90/113/112 92/114/112 87/115/112
f 99/112/113 88/108/113 86/105/113
f 106/102/114 89/93/114 100/99/114
f 95/108/115 104/112/115 93/105/115
f 107/116/116 98/115/116 105/114/116
f 109/69/117 110/70/117 111/71/117
f 112/70/118 113/69/118 114/71/118
f 115/72/119 116/73/119 117/74/119
f 118/72/120 119/74/120 120/73/120
f 121/75/121 122/76/121 123/77/121
f 124/75/122 125/77/122 126/76/122
f 127/78/123 128/79/123 129/80/123
f 130/78/124 131/80/124 132/79/124
f 109/69/125 116/73/125 115/72/125
f 112/84/126 111/83/126 110/81/126
f 113/69/127 120/73/127 114/71/127
f 117/81/128 120/82/128 119/84/128
f 115/72/129 128/79/129 127/78/129
f 130/78/130 119/74/130 118/72/130
f 129/85/131 132/86/131 131/87/131
f 127/78/132 122/76/132 121/75/132
f 124/75/133 131/80/133 130/78/133
f 125/86/134 122/85/134 126/87/134
f 109/69/135 123/77/135 110/70/135
f 113/69/136 125/77/136 124/75/136
f 127/78/137 109/69/137 115/72/137
f 114/89/138 116/90/138 111/91/138
f 123/88/139 112/84/139 110/81/139
f 118/72/140 124/75/140 130/78/140
f 117/81/141 132/86/141 128/88/141
f 129/90/142 126/89/142 122/91/142
f 133/93/143 134/94/143 135/95/143
f 136/94/144 137/93/144 138/95/144
f 139/96/145 140/97/145 141/98/145
f 142/96/146 143/98/146 144/97/146
f 145/99/147 146/100/147 147/101/147
f 148/99/148 149/101/148 150/100/148
f 151/102/149 152/103/149 153/104/149
f 154/102/150 155/104/150 156/103/150
f 139/96/151 135/95/151 140/97/151
f 136/108/152 135/107/152 134/105/152
f 142/96/153 138/95/153 137/93/153
f 143/108/154 140/107/154 144/106/154
f 139/96/155 152/103/155 151/102/155
f 154/102/156 143/98/156 142/96/156
f 153/109/157 156/110/157 155/111/157
f 151/102/158 146/100/158 145/99/158
f 148/99/159 155/104/159 154/102/159
f 149/110/160 146/109/160 150/111/160
f 145/99/161 134/94/161 133/93/161
f 148/99/162 136/94/162 149/101/162
f 151/102/163 133/93/163 139/96/163
f 135/115/164 144/116/164 140/114/164
f 149/110/165 134/105/165 147/112/165
f 142/96/166 148/99/166 154/102/166
f 143/108/167 152/112/167 141/105/167
f 155/116/168 146/115/168 153/114/168
f 157/69/169 158/70/169 159/71/169
f 160/70/170 161/69/170 162/71/170
f 163/72/171 164/73/171 165/74/171
f 166/72/172 167/74/172 168/73/172
f 169/75/173 170/76/173 171/77/173
f 172/75/174 173/77/174 174/76/174
f 175/78/175 176/79/175 177/80/175
f 178/78/176 179/80/176 180/79/176
f 163/72/177 159/71/177 164/73/177
f 160/84/178 159/83/178 158/81/178
f 166/72/179 162/71/179 161/69/179
f 165/81/180 168/82/180 167/84/180
f 175/78/181 165/74/181 176/79/181
f 178/78/182 167/74/182 166/72/182
f 177/85/183 180/86/183 179/87/183
f 169/75/184 177/80/184 170/76/184
f 172/75/185 179/80/185 178/78/185
f 171/88/186 174/87/186 173/86/186
f 169/75/187 158/70/187 157/69/187
f 172/75/188 160/70/188 173/77/188
f 175/78/189 157/69/189 163/72/189
f 162/89/190 164/90/190 159/91/190
f 171/88/191 160/84/191 158/81/191
f 166/72/192 172/75/192 178/78/192
f 167/84/193 176/88/193 165/81/193
f 179/92/194 170/91/194 177/90/194
f 181/93/195 182/94/195 183/95/195
f 184/94/196 185/93/196 186/95/196
f 187/96/197 188/97/197 189/98/197
f 190/96/198 191/98/198 192/97/198
f 193/99/199 194/100/199 195/101/199
f 196/99/200 197/101/200 198/100/200
f 199/102/201 200/103/201 201/104/201
f 202/102/202 203/104/202 204/103/202
f 187/96/203 183/95/203 188/97/203
f 182/105/204 186/106/204 183/107/204
f 190/96/205 186/95/205 185/93/205
f 191/108/206 188/107/206 192/106/206
f 187/96/207 200/103/207 199/102/207
f 202/102/208 191/98/208 190/96/208
f 201/109/209 204/110/209 203/111/209
f 199/102/210 194/100/210 193/99/210
f 202/102/211 198/100/211 203/104/211
f 195/112/212 198/111/212 197/110/212
f 181/93/213 195/101/213 182/94/213
f 196/99/214 184/94/214 197/101/214
f 199/102/215 181/93/215 187/96/215
f 183/115/216 192/116/216 188/114/216
f 197/110/217 182/105/217 195/112/217
f 190/96/218 196/99/218 202/102/218
f 189/105/219 204/110/219 200/112/219
f 201/114/220 198/113/220 194/115/220
f 205/117/221 206/118/221 207/119/221
f 208/118/222 209/117/222 210/119/222
f 211/120/223 212/121/223 213/122/223
f 214/120/224 215/122/224 216/121/224
f 217/123/225 218/124/225 219/125/225
f 220/123/226 221/125/226 222/124/226
f 223/126/227 224/127/227 225/128/227
f 226/126/228 227/128/228 228/127/228
f 205/117/229 212/121/229 211/120/229
f 206/129/230 210/130/230 207/131/230
f 209/117/231 216/121/231 210/119/231
f 215/132/232 212/131/232 216/130/232
f 211/120/233 224/127/233 223/126/233
f 226/126/234 215/122/234 214/120/234
f 225/133/235 228/134/235 227/135/235
f 223/126/236 218/124/236 217/123/236
f 220/123/237 227/128/237 226/126/237
f 219/136/238 222/135/238 221/134/238
f 205/117/239 219/125/239 206/118/239
f 209/117/240 221/125/240 220/123/240
f 223/126/241 205/117/241 211/120/241
f 207/137/242 216/138/242 212/139/242
f 221/134/243 206/129/243 219/136/243
f 214/120/244 220/123/244 226/126/244
f 213/129/245 228/134/245 224/136/245
f 225/139/246 222/140/246 218/137/246
f 289/69/311 290/70/311 291/71/311
f 292/70/312 293/69/312 294/71/312
f 295/72/313 296/73/313 297/74/313
f 298/72/314 299/74/314 300/73/314
f 301/75/315 302/76/315 303/77/315
f 304/75/316 305/77/316 306/76/316
f 307/78/317 308/79/317 309/80/317
f 310/78/318 311/80/318 312/79/318
f 295/72/319 291/71/319 296/73/319
f 290/81/320 294/82/320 291/83/320
f 298/72/321 294/71/321 293/69/321
f 299/84/322 296/83/322 300/82/322
f 307/78/323 297/74/323 308/79/323
f 310/78/324 299/74/324 298/72/324
f 309/85/325 312/86/325 311/87/325
f 301/75/326 309/80/326 302/76/326
f 310/78/327 306/76/327 311/80/327
f 303/88/328 306/87/328 305/86/328
f 289/69/329 303/77/329 290/70/329
f 304/75/330 292/70/330 305/77/330
f 295/72/331 301/75/331 289/69/331
f 291/91/332 300/92/332 296/90/332
f 305/86/333 290/81/333 303/88/333
f 310/78/334 293/69/334 304/75/334
f 297/81/335 312/86/335 308/88/335
f 311/92/336 302/91/336 309/90/336
f 313/93/337 314/94/337 315/95/337
f 316/94/338 317/93/338 318/95/338
f 319/96/339 320/97/339 321/98/339
f 322/96/340 323/98/340 324/97/340
f 325/99/341 326/100/341 327/101/341
f 328/99/342 329/101/342 330/100/342
f 331/102/343 332/103/343 333/104/343
f 334/102/344 335/104/344 336/103/344
f 313/93/345 320/97/345 319/96/345
f 316/108/346 315/107/346 314/105/346
f 322/96/347 318/95/347 317/93/347
f 321/105/348 324/106/348 323/108/348
f 331/102/349 321/98/349 332/103/349
f 322/96/350 336/103/350 323/98/350
f 335/111/351 332/112/351 336/110/351
f 325/99/352 333/104/352 326/100/352
f 334/102/353 330/100/353 335/104/353
f 329/110/354 326/109/354 330/111/354
f 313/93/355 327/101/355 314/94/355
f 328/99/356 316/94/356 329/101/356
f 331/102/357 313/93/357 319/96/357
f 315/115/358 324/116/358 320/114/358
f 327/112/359 316/108/359 314/105/359
f 322/96/360 328/99/360 334/102/360
f 321/105/361 336/110/361 332/112/361
f 335/116/362 326/115/362 333/114/362
f 337/69/363 338/70/363 339/71/363
f 340/70/364 341/69/364 342/71/364
f 343/72/365 344/73/365 345/74/365
f 346/72/366 347/74/366 348/73/366
f 349/75/367 350/76/367 351/77/367
f 352/75/368 353/77/368 354/76/368
f 355/78/369 356/79/369 357/80/369
f 358/78/370 359/80/370 360/79/370
f 343/72/371 339/71/371 344/73/371
f 340/84/372 339/83/372 338/81/372
f 346/72/373 342/71/373 341/69/373
f 347/84/374 344/83/374 348/82/374
f 343/72/375 356/79/375 355/78/375
f 346/72/376 360/79/376 347/74/376
f 357/85/377 360/86/377 359/87/377
f 355/78/378 350/76/378 349/75/378
f 358/78/379 354/76/379 359/80/379
f 351/88/380 354/87/380 353/86/380
f 349/75/381 338/70/381 337/69/381
f 341/69/382 353/77/382 352/75/382
f 343/72/383 349/75/383 337/69/383
f 339/91/384 348/92/384 344/90/384
f 351/88/385 340/84/385 338/81/385
f 346/72/386 352/75/386 358/78/386
f 345/81/387 360/86/387 356/88/387
f 357/90/388 354/89/388 350/91/388
f 361/93/389 362/94/389 363/95/389
f 364/94/390 365/93/390 366/95/390
f 367/96/391 368/97/391 369/98/391
f 370/96/392 371/98/392 372/97/392
f 373/99/393 374/100/393 375/101/393
f 376/99/394 377/101/394 378/100/394
f 379/102/395 380/103/395 381/104/395
f 382/102/396 383/104/396 384/103/396
f 361/93/397 368/97/397 367/96/397
f 364/108/398 363/107/398 362/105/398
f 365/93/399 372/97/399 366/95/399
f 369/105/400 372/106/400 371/108/400
f 367/96/401 380/103/401 379/102/401
f 382/102/402 371/98/402 370/96/402
f 381/109/403 384/110/403 383/111/403
f 379/102/404 374/100/404 373/99/404
f 376/99/405 383/104/405 382/102/405
f 377/110/406 374/109/406 378/111/406
f 373/99/407 362/94/407 361/93/407
f 365/93/408 377/101/408 376/99/408
f 379/102/409 361/93/409 367/96/409
f 366/113/410 368/114/410 363/115/410
f 377/110/411 362/105/411 375/112/411
f 370/96/412 376/99/412 382/102/412
f 371/108/413 380/112/413 369/105/413
f 383/116/414 374/115/414 381/114/414
f 385/69/415 386/70/415 387/71/415
f 388/70/416 389/69/416 390/71/416
f 391/72/417 392/73/417 393/74/417
f 394/72/418 395/74/418 396/73/418
f 397/75/419 398/76/419 399/77/419
f 400/75/420 401/77/420 402/76/420
f 403/78/421 404/79/421 405/80/421
f 406/78/422 407/80/422 408/79/422
f 385/69/423 392/73/423 391/72/423
f 388/84/424 387/83/424 386/81/424
f 389/69/425 396/73/425 390/71/425
f 395/84/426 392/83/426 396/82/426
f 403/78/427 393/74/427 404/79/427
f 406/78/428 395/74/428 394/72/428
f 405/85/429 408/86/429 407/87/429
f 403/78/430 398/76/430 397/75/430
f 400/75/431 407/80/431 406/78/431
f 401/86/432 398/85/432 402/87/432
f 397/75/433 386/70/433 385/69/433
f 389/69/434 401/77/434 400/75/434
f 391/72/435 397/75/435 385/69/435
f 387/91/436 396/92/436 392/90/436
f 401/86/437 386/81/437 399/88/437
f 406/78/438 389/69/438 400/75/438
f 393/81/439 408/86/439 404/88/439
f 407/92/440 398/91/440 405/90/440
f 409/93/441 410/94/441 411/95/441
f 412/94/442 413/93/442 414/95/442
f 415/96/443 416/97/443 417/98/443
f 418/96/444 419/98/444 420/97/444
f 421/99/445 422/100/445 423/101/445
f 424/99/446 425/101/446 426/100/446
f 427/102/447 428/103/447 429/104/447
f 430/102/448 431/104/448 432/103/448
f 415/96/449 411/95/449 416/97/449
f 412/108/450 411/107/450 410/105/450
f 418/96/451 414/95/451 413/93/451
f 419/108/452 416/107/452 420/106/452
f 415/96/453 428/103/453 427/102/453
f 430/102/454 419/98/454 418/96/454
f 431/111/455 428/112/455 432/110/455
f 427/102/456 422/100/456 421/99/456
f 424/99/457 431/104/457 430/102/457
f 425/110/458 422/109/458 426/111/458
f 421/99/459 410/94/459 409/93/459
f 413/93/460 425/101/460 424/99/460
f 427/102/461 409/93/461 415/96/461
f 414/113/462 416/114/462 411/115/462
f 425/110/463 410/105/463 423/112/463
f 418/96/464 424/99/464 430/102/464
f 417/105/465 432/110/465 428/112/465
f 431/116/466 422/115/466 429/114/466
f 433/117/467 434/118/467 435/119/467
f 436/118/468 437/117/468 438/119/468
f 439/120/469 440/121/469 441/122/469
f 442/120/470 443/122/470 444/121/470
f 445/123/471 446/124/471 447/125/471
f 448/123/472 449/125/472 450/124/472
f 451/126/473 452/127/473 453/128/473
f 454/126/474 455/128/474 456/127/474
f 439/120/475 435/119/475 440/121/475
f 436/132/476 435/131/476 434/129/476
f 442/120/477 438/119/477 437/117/477
f 443/132/478 440/131/478 444/130/478
f 439/120/479 452/127/479 451/126/479
f 454/126/480 443/122/480 442/120/480
f 455/135/481 452/136/481 456/134/481
f 451/126/482 446/124/482 445/123/482
f 454/126/483 450/124/483 455/128/483
f 449/134/484 446/133/484 450/135/484
f 433/117/485 447/125/485 434/118/485
f 437/117/486 449/125/486 448/123/486
f 451/126/487 433/117/487 439/120/487
f 435/137/488 444/138/488 440/139/488
f 447/136/489 436/132/489 434/129/489
f 442/120/490 448/123/490 454/126/490
f 441/129/491 456/134/491 452/136/491
f 455/138/492 446/137/492 453/139/492
f 517/69/557 518/70/557 519/71/557
f 520/70/558 521/69/558 522/71/558
f 523/72/559 524/73/559 525/74/559
f 526/72/560 527/74/560 528/73/560
f 529/75/561 530/76/561 531/77/561
f 532/75/562 533/77/562 534/76/562
f 535/78/563 536/79/563 537/80/563
f 538/78/564 539/80/564 540/79/564
f 517/69/565 524/73/565 523/72/565
f 520/84/566 519/83/566 518/81/566
f 526/72/567 522/71/567 521/69/567
f 525/81/568 528/82/568 527/84/568
f 523/72/569 536/79/569 535/78/569
f 526/72/570 540/79/570 527/74/570
f 537/85/571 540/86/571 539/87/571
f 529/75/572 537/80/572 530/76/572
f 538/78/573 534/76/573 539/80/573
f 533/86/574 530/85/574 534/87/574
f 517/69/575 531/77/575 518/70/575
f 521/69/576 533/77/576 532/75/576
f 535/78/577 517/69/577 523/72/577
f 522/89/578 524/90/578 519/91/578
f 533/86/579 518/81/579 531/88/579
f 526/72/580 532/75/580 538/78/580
f 527/84/581 536/88/581 525/81/581
f 537/90/582 534/89/582 530/91/582
f 541/93/583 542/94/583 543/95/583
f 544/94/584 545/93/584 546/95/584
f 547/96/585 548/97/585 549/98/585
f 550/96/586 551/98/586 552/97/586
f 553/99/587 554/100/587 555/101/587
f 556/99/588 557/101/588 558/100/588
f 559/102/589 560/103/589 561/104/589
f 562/102/590 563/104/590 564/103/590
f 541/93/591 548/97/591 547/96/591
f 542/105/592 546/106/592 543/107/592
f 550/96/593 546/95/593 545/93/593
f 549/105/594 552/106/594 551/108/594
f 559/102/595 549/98/595 560/103/595
f 562/102/596 551/98/596 550/96/596
f 561/109/597 564/110/597 563/111/597
f 559/102/598 554/100/598 553/99/598
f 562/102/599 558/100/599 563/104/599
f 557/110/600 554/109/600 558/111/600
f 541/93/601 555/101/601 542/94/601
f 545/93/602 557/101/602 556/99/602
f 559/102/603 541/93/603 547/96/603
f 546/113/604 548/114/604 543/115/604
f 557/110/605 542/105/605 555/112/605
f 550/96/606 556/99/606 562/102/606
f 549/105/607 564/110/607 560/112/607
f 561/114/608 558/113/608 554/115/608
f 565/69/609 566/70/609 567/71/609
f 568/70/610 569/69/610 570/71/610
f 571/72/611 572/73/611 573/74/611
f 574/72/612 575/74/612 576/73/612
f 577/75/613 578/76/613 579/77/613
f 580/75/614 581/77/614 582/76/614
f 583/78/615 584/79/615 585/80/615
f 586/78/616 587/80/616 588/79/616
f 565/69/617 572/73/617 571/72/617
f 568/84/618 567/83/618 566/81/618
f 574/72/619 570/71/619 569/69/619
f 575/84/620 572/83/620 576/82/620
f 571/72/621 584/79/621 583/78/621
f 574/72/622 588/79/622 575/74/622
f 585/85/623 588/86/623 587/87/623
f 583/78/624 578/76/624 577/75/624
f 586/78/625 582/76/625 587/80/625
f 579/88/626 582/87/626 581/86/626
f 577/75/627 566/70/627 565/69/627
f 580/75/628 568/70/628 581/77/628
f 571/72/629 577/75/629 565/69/629
f 570/89/630 572/90/630 567/91/630
f 581/86/631 566/81/631 579/88/631
f 586/78/632 569/69/632 580/75/632
f 573/81/633 588/86/633 584/88/633
f 585/90/634 582/89/634 578/91/634
f 589/93/635 590/94/635 591/95/635
f 592/94/636 593/93/636 594/95/636
f 595/96/637 596/97/637 597/98/637
f 598/96/638 599/98/638 600/97/638
f 601/99/639 602/100/639 603/101/639
f 604/99/640 605/101/640 606/100/640
f 607/102/641 608/103/641 609/104/641
f 610/102/642 611/104/642 612/103/642
f 589/93/643 596/97/643 595/96/643
f 590/105/644 594/106/644 591/107/644
f 598/96/645 594/95/645 593/93/645
f 599/108/646 596/107/646 600/106/646
f 595/96/647 608/103/647 607/102/647
f 610/102/648 599/98/648 598/96/648
f 611/111/649 608/112/649 612/110/649
f 601/99/650 609/104/650 602/100/650
f 610/102/651 606/100/651 611/104/651
f 603/112/652 606/111/652 605/110/652
f 601/99/653 590/94/653 589/93/653
f 604/99/654 592/94/654 605/101/654
f 607/102/655 589/93/655 595/96/655
f 591/115/656 600/116/656 596/114/656
f 605/110/657 590/105/657 603/112/657
f 598/96/658 604/99/658 610/102/658
f 599/108/659 608/112/659 597/105/659
f 611/116/660 602/115/660 609/114/660
f 613/69/661 614/70/661 615/71/661
f 616/70/662 617/69/662 618/71/662
f 619/72/663 620/73/663 621/74/663
f 622/72/664 623/74/664 624/73/664
f 625/75/665 626/76/665 627/77/665
f 628/75/666 629/77/666 630/76/666
f 631/78/667 632/79/667 633/80/667
f 634/78/668 635/80/668 636/79/668
f 619/72/669 615/71/669 620/73/669
f 616/84/670 615/83/670 614/81/670
f 622/72/671 618/71/671 617/69/671
f 621/81/672 624/82/672 623/84/672
f 619/72/673 632/79/673 631/78/673
f 634/78/674 623/74/674 622/72/674
f 635/87/675 632/88/675 636/86/675
f 631/78/676 626/76/676 625/75/676
f 634/78/677 630/76/677 635/80/677
f 629/86/678 626/85/678 630/87/678
f 613/69/679 627/77/679 614/70/679
f 617/69/680 629/77/680 628/75/680
f 631/78/681 613/69/681 619/72/681
f 618/89/682 620/90/682 615/91/682
f 629/86/683 614/81/683 627/88/683
f 622/72/684 628/75/684 634/78/684
f 623/84/685 632/88/685 621/81/685
f 635/92/686 626/91/686 633/90/686
f 637/93/687 638/94/687 639/95/687
f 640/94/688 641/93/688 642/95/688
f 643/96/689 644/97/689 645/98/689
f 646/96/690 647/98/690 648/97/690
f 649/99/691 650/100/691 651/101/691
f 652/99/692 653/101/692 654/100/692
f 655/102/693 656/103/693 657/104/693
f 658/102/694 659/104/694 660/103/694
f 637/93/695 644/97/695 643/96/695
f 640/108/696 639/107/696 638/105/696
f 646/96/697 642/95/697 641/93/697
f 645/105/698 648/106/698 647/108/698
f 643/96/699 656/103/699 655/102/699
f 658/102/700 647/98/700 646/96/700
f 659/111/701 656/112/701 660/110/701
f 649/99/702 657/104/702 650/100/702
f 658/102/703 654/100/703 659/104/703
f 653/110/704 650/109/704 654/111/704
f 637/93/705 651/101/705 638/94/705
f 652/99/706 640/94/706 653/101/706
f 643/96/707 649/99/707 637/93/707
f 642/113/708 644/114/708 639/115/708
f 653/110/709 638/105/709 651/112/709
f 646/96/710 652/99/710 658/102/710
f 647/108/711 656/112/711 645/105/711
f 659/116/712 650/115/712 657/114/712
f 661/117/713 662/118/713 663/119/713
f 664/118/714 665/117/714 666/119/714
f 667/120/715 668/121/715 669/122/715
f 670/120/716 671/122/716 672/121/716
f 673/123/717 674/124/717 675/125/717
f 676/123/718 677/125/718 678/124/718
f 679/126/719 680/127/719 681/128/719
f 682/126/720 683/128/720 684/127/720
f 667/120/721 663/119/721 668/121/721
f 664/132/722 663/131/722 662/129/722
f 665/117/723 672/121/723 666/119/723
f 671/132/724 668/131/724 672/130/724
f 679/126/725 669/122/725 680/127/725
f 682/126/726 671/122/726 670/120/726
f 683/135/727 680/136/727 684/134/727
f 679/126/728 674/124/728 673/123/728
f 676/123/729 683/128/729 682/126/729
f 677/134/730 674/133/730 678/135/730
f 673/123/731 662/118/731 661/117/731
f 665/117/732 677/125/732 676/123/732
f 667/120/733 673/123/733 661/117/733
f 666/140/734 668/139/734 663/137/734
f 677/134/735 662/129/735 675/136/735
f 670/120/736 676/123/736 682/126/736
f 669/129/737 684/134/737 680/136/737
f 683/138/738 674/137/738 681/139/738
f 61/69/73 63/71/73 68/73/73
f 62/81/74 64/84/74 66/82/74
f 70/72/741 72/73/741 66/71/741
f 69/81/76 68/83/76 72/82/76
f 79/78/742 67/72/742 69/74/742
f 82/78/743 84/79/743 71/74/743
f 81/85/79 80/88/79 84/86/79
f 79/78/744 81/80/744 74/76/744
f 76/75/81 78/76/81 83/80/81
f 75/88/82 74/85/82 78/87/82
f 61/69/745 73/75/745 75/77/745
f 65/69/746 64/70/746 77/77/746
f 79/78/85 73/75/85 61/69/85
f 66/89/86 72/92/86 68/90/86
f 75/88/87 77/86/87 64/84/87
f 70/72/88 65/69/88 76/75/88
f 69/81/89 71/84/89 84/86/89
f 83/92/90 78/89/90 74/91/90
f 91/96/747 85/93/747 87/95/747
f 86/105/100 88/108/100 90/106/100
f 94/96/748 96/97/748 90/95/748
f 93/105/102 92/107/102 96/106/102
f 91/96/103 93/98/103 104/103/103
f 94/96/104 106/102/104 108/103/104
f 105/109/749 104/112/749 108/110/749
f 97/99/750 103/102/750 105/104/750
f 106/102/107 100/99/107 102/100/107
f 99/112/751 98/109/751 102/111/751
f 85/93/752 97/99/752 99/101/752
f 100/99/753 89/93/753 88/94/753
f 103/102/111 97/99/111 85/93/111
f 90/113/112 96/116/112 92/114/112
f 99/112/754 101/110/754 88/108/754
f 106/102/114 94/96/114 89/93/114
f 95/108/115 108/110/115 104/112/115
f 107/116/116 102/113/116 98/115/116
f 109/69/755 111/71/755 116/73/755
f 112/84/126 114/82/126 111/83/126
f 113/69/756 118/72/756 120/73/756
f 117/81/128 116/83/128 120/82/128
f 115/72/757 117/74/757 128/79/757
f 130/78/130 132/79/130 119/74/130
f 129/85/131 128/88/131 132/86/131
f 127/78/758 129/80/758 122/76/758
f 124/75/133 126/76/133 131/80/133
f 125/86/134 123/88/134 122/85/134
f 109/69/759 121/75/759 123/77/759
f 113/69/760 112/70/760 125/77/760
f 127/78/137 121/75/137 109/69/137
f 114/89/138 120/92/138 116/90/138
f 123/88/139 125/86/139 112/84/139
f 118/72/140 113/69/140 124/75/140
f 117/81/141 119/84/141 132/86/141
f 129/90/142 131/92/142 126/89/142
f 139/96/761 133/93/761 135/95/761
f 136/108/152 138/106/152 135/107/152
f 142/96/762 144/97/762 138/95/762
f 143/108/154 141/105/154 140/107/154
f 139/96/763 141/98/763 152/103/763
f 154/102/764 156/103/764 143/98/764
f 153/109/157 152/112/157 156/110/157
f 151/102/158 153/104/158 146/100/158
f 148/99/765 150/100/765 155/104/765
f 149/110/160 147/112/160 146/109/160
f 145/99/766 147/101/766 134/94/766
f 148/99/162 137/93/162 136/94/162
f 151/102/163 145/99/163 133/93/163
f 135/115/164 138/113/164 144/116/164
f 149/110/165 136/108/165 134/105/165
f 142/96/166 137/93/166 148/99/166
f 143/108/167 156/110/167 152/112/167
f 155/116/168 150/113/168 146/115/168
f 163/72/177 157/69/177 159/71/177
f 160/84/178 162/82/178 159/83/178
f 166/72/179 168/73/179 162/71/179
f 165/81/180 164/83/180 168/82/180
f 175/78/767 163/72/767 165/74/767
f 178/78/768 180/79/768 167/74/768
f 177/85/769 176/88/769 180/86/769
f 169/75/184 175/78/184 177/80/184
f 172/75/770 174/76/770 179/80/770
f 171/88/771 170/85/771 174/87/771
f 169/75/772 171/77/772 158/70/772
f 172/75/773 161/69/773 160/70/773
f 175/78/189 169/75/189 157/69/189
f 162/89/190 168/92/190 164/90/190
f 171/88/191 173/86/191 160/84/191
f 166/72/192 161/69/192 172/75/192
f 167/84/193 180/86/193 176/88/193
f 179/92/194 174/89/194 170/91/194
f 187/96/774 181/93/774 183/95/774
f 182/105/204 184/108/204 186/106/204
f 190/96/775 192/97/775 186/95/775
f 191/108/206 189/105/206 188/107/206
f 187/96/207 189/98/207 200/103/207
f 202/102/776 204/103/776 191/98/776
f 201/109/777 200/112/777 204/110/777
f 199/102/778 201/104/778 194/100/778
f 202/102/211 196/99/211 198/100/211
f 195/112/212 194/109/212 198/111/212
f 181/93/213 193/99/213 195/101/213
f 196/99/214 185/93/214 184/94/214
f 199/102/215 193/99/215 181/93/215
f 183/115/216 186/113/216 192/116/216
f 197/110/217 184/108/217 182/105/217
f 190/96/218 185/93/218 196/99/218
f 189/105/219 191/108/219 204/110/219
f 201/114/220 203/116/220 198/113/220
f 205/117/779 207/119/779 212/121/779
f 206/129/230 208/132/230 210/130/230
f 209/117/231 214/120/231 216/121/231
f 215/132/232 213/129/232 212/131/232
f 211/120/780 213/122/780 224/127/780
f 226/126/781 228/127/781 215/122/781
f 225/133/235 224/136/235 228/134/235
f 223/126/782 225/128/782 218/124/782
f 220/123/783 222/124/783 227/128/783
f 219/136/238 218/133/238 222/135/238
f 205/117/784 217/123/784 219/125/784
f 209/117/785 208/118/785 221/125/785
f 223/126/241 217/123/241 205/117/241
f 207/137/242 210/140/242 216/138/242
f 221/134/243 208/132/243 206/129/243
f 214/120/244 209/117/244 220/123/244
f 213/129/245 215/132/245 228/134/245
f 225/139/246 227/138/246 222/140/246
f 295/72/319 289/69/319 291/71/319
f 290/81/320 292/84/320 294/82/320
f 298/72/321 300/73/321 294/71/321
f 299/84/322 297/81/322 296/83/322
f 307/78/323 295/72/323 297/74/323
f 310/78/788 312/79/788 299/74/788
f 309/85/325 308/88/325 312/86/325
f 301/75/326 307/78/326 309/80/326
f 310/78/327 304/75/327 306/76/327
f 303/88/328 302/85/328 306/87/328
f 289/69/789 301/75/789 303/77/789
f 304/75/330 293/69/330 292/70/330
f 295/72/331 307/78/331 301/75/331
f 291/91/332 294/89/332 300/92/332
f 305/86/333 292/84/333 290/81/333
f 310/78/334 298/72/334 293/69/334
f 297/81/335 299/84/335 312/86/335
f 311/92/336 306/89/336 302/91/336
f 313/93/345 315/95/345 320/97/345
f 316/108/346 318/106/346 315/107/346
f 322/96/347 324/97/347 318/95/347
f 321/105/348 320/107/348 324/106/348
f 331/102/790 319/96/790 321/98/790
f 322/96/350 334/102/350 336/103/350
f 335/111/351 333/109/351 332/112/351
f 325/99/352 331/102/352 333/104/352
f 334/102/791 328/99/791 330/100/791
f 329/110/354 327/112/354 326/109/354
f 313/93/355 325/99/355 327/101/355
f 328/99/356 317/93/356 316/94/356
f 331/102/357 325/99/357 313/93/357
f 315/115/358 318/113/358 324/116/358
f 327/112/359 329/110/359 316/108/359
f 322/96/360 317/93/360 328/99/360
f 321/105/361 323/108/361 336/110/361
f 335/116/362 330/113/362 326/115/362
f 343/72/792 337/69/792 339/71/792
f 340/84/372 342/82/372 339/83/372
f 346/72/793 348/73/793 342/71/793
f 347/84/794 345/81/794 344/83/794
f 343/72/795 345/74/795 356/79/795
f 346/72/796 358/78/796 360/79/796
f 357/85/377 356/88/377 360/86/377
f 355/78/378 357/80/378 350/76/378
f 358/78/379 352/75/379 354/76/379
f 351/88/380 350/85/380 354/87/380
f 349/75/381 351/77/381 338/70/381
f 341/69/797 340/70/797 353/77/797
f 343/72/383 355/78/383 349/75/383
f 339/91/384 342/89/384 348/92/384
f 351/88/385 353/86/385 340/84/385
f 346/72/386 341/69/386 352/75/386
f 345/81/387 347/84/387 360/86/387
f 357/90/388 359/92/388 354/89/388
f 361/93/397 363/95/397 368/97/397
f 364/108/398 366/106/398 363/107/398
f 365/93/399 370/96/399 372/97/399
f 369/105/400 368/107/400 372/106/400
f 367/96/401 369/98/401 380/103/401
f 382/102/798 384/103/798 371/98/798
f 381/109/403 380/112/403 384/110/403
f 379/102/404 381/104/404 374/100/404
f 376/99/405 378/100/405 383/104/405
f 377/110/406 375/112/406 374/109/406
f 373/99/799 375/101/799 362/94/799
f 365/93/408 364/94/408 377/101/408
f 379/102/409 373/99/409 361/93/409
f 366/113/410 372/116/410 368/114/410
f 377/110/411 364/108/411 362/105/411
f 370/96/412 365/93/412 376/99/412
f 371/108/413 384/110/413 380/112/413
f 383/116/414 378/113/414 374/115/414
f 385/69/800 387/71/800 392/73/800
f 388/84/424 390/82/424 387/83/424
f 389/69/425 394/72/425 396/73/425
f 395/84/426 393/81/426 392/83/426
f 403/78/801 391/72/801 393/74/801
f 406/78/428 408/79/428 395/74/428
f 405/85/429 404/88/429 408/86/429
f 403/78/802 405/80/802 398/76/802
f 400/75/803 402/76/803 407/80/803
f 401/86/804 399/88/804 398/85/804
f 397/75/805 399/77/805 386/70/805
f 389/69/806 388/70/806 401/77/806
f 391/72/435 403/78/435 397/75/435
f 387/91/436 390/89/436 396/92/436
f 401/86/437 388/84/437 386/81/437
f 406/78/438 394/72/438 389/69/438
f 393/81/439 395/84/439 408/86/439
f 407/92/440 402/89/440 398/91/440
f 415/96/449 409/93/449 411/95/449
f 412/108/807 414/106/807 411/107/807
f 418/96/451 420/97/451 414/95/451
f 419/108/452 417/105/452 416/107/452
f 415/96/808 417/98/808 428/103/808
f 430/102/454 432/103/454 419/98/454
f 431/111/455 429/109/455 428/112/455
f 427/102/456 429/104/456 422/100/456
f 424/99/809 426/100/809 431/104/809
f 425/110/458 423/112/458 422/109/458
f 421/99/459 423/101/459 410/94/459
f 413/93/810 412/94/810 425/101/810
f 427/102/461 421/99/461 409/93/461
f 414/113/462 420/116/462 416/114/462
f 425/110/463 412/108/463 410/105/463
f 418/96/464 413/93/464 424/99/464
f 417/105/465 419/108/465 432/110/465
f 431/116/466 426/113/466 422/115/466
f 439/120/811 433/117/811 435/119/811
f 436/132/812 438/130/812 435/131/812
f 442/120/813 444/121/813 438/119/813
f 443/132/814 441/129/814 440/131/814
f 439/120/815 441/122/815 452/127/815
f 454/126/816 456/127/816 443/122/816
f 455/135/481 453/133/481 452/136/481
f 451/126/817 453/128/817 446/124/817
f 454/126/818 448/123/818 450/124/818
f 449/134/819 447/136/819 446/133/819
f 433/117/820 445/123/820 447/125/820
f 437/117/821 436/118/821 449/125/821
f 451/126/487 445/123/487 433/117/487
f 435/137/488 438/140/488 444/138/488
f 447/136/489 449/134/489 436/132/489
f 442/120/490 437/117/490 448/123/490
f 441/129/491 443/132/491 456/134/491
f 455/138/492 450/140/492 446/137/492
f 517/69/565 519/71/565 524/73/565
f 520/84/566 522/82/566 519/83/566
f 526/72/567 528/73/567 522/71/567
f 525/81/568 524/83/568 528/82/568
f 523/72/569 525/74/569 536/79/569
f 526/72/570 538/78/570 540/79/570
f 537/85/571 536/88/571 540/86/571
f 529/75/572 535/78/572 537/80/572
f 538/78/823 532/75/823 534/76/823
f 533/86/574 531/88/574 530/85/574
f 517/69/575 529/75/575 531/77/575
f 521/69/576 520/70/576 533/77/576
f 535/78/577 529/75/577 517/69/577
f 522/89/578 528/92/578 524/90/578
f 533/86/579 520/84/579 518/81/579
f 526/72/580 521/69/580 532/75/580
f 527/84/581 540/86/581 536/88/581
f 537/90/582 539/92/582 534/89/582
f 541/93/824 543/95/824 548/97/824
f 542/105/592 544/108/592 546/106/592
f 550/96/825 552/97/825 546/95/825
f 549/105/594 548/107/594 552/106/594
f 559/102/595 547/96/595 549/98/595
f 562/102/596 564/103/596 551/98/596
f 561/109/597 560/112/597 564/110/597
f 559/102/598 561/104/598 554/100/598
f 562/102/599 556/99/599 558/100/599
f 557/110/600 555/112/600 554/109/600
f 541/93/601 553/99/601 555/101/601
f 545/93/826 544/94/826 557/101/826
f 559/102/603 553/99/603 541/93/603
f 546/113/604 552/116/604 548/114/604
f 557/110/605 544/108/605 542/105/605
f 550/96/606 545/93/606 556/99/606
f 549/105/607 551/108/607 564/110/607
f 561/114/608 563/116/608 558/113/608
f 565/69/617 567/71/617 572/73/617
f 568/84/618 570/82/618 567/83/618
f 574/72/619 576/73/619 570/71/619
f 575/84/827 573/81/827 572/83/827
f 571/72/621 573/74/621 584/79/621
f 574/72/828 586/78/828 588/79/828
f 585/85/623 584/88/623 588/86/623
f 583/78/829 585/80/829 578/76/829
f 586/78/830 580/75/830 582/76/830
f 579/88/626 578/85/626 582/87/626
f 577/75/831 579/77/831 566/70/831
f 580/75/832 569/69/832 568/70/832
f 571/72/629 583/78/629 577/75/629
f 570/89/630 576/92/630 572/90/630
f 581/86/631 568/84/631 566/81/631
f 586/78/632 574/72/632 569/69/632
f 573/81/633 575/84/633 588/86/633
f 585/90/634 587/92/634 582/89/634
f 589/93/833 591/95/833 596/97/833
f 590/105/644 592/108/644 594/106/644
f 598/96/834 600/97/834 594/95/834
f 599/108/646 597/105/646 596/107/646
f 595/96/647 597/98/647 608/103/647
f 610/102/835 612/103/835 599/98/835
f 611/111/649 609/109/649 608/112/649
f 601/99/836 607/102/836 609/104/836
f 610/102/837 604/99/837 606/100/837
f 603/112/652 602/109/652 606/111/652
f 601/99/838 603/101/838 590/94/838
f 604/99/839 593/93/839 592/94/839
f 607/102/655 601/99/655 589/93/655
f 591/115/656 594/113/656 600/116/656
f 605/110/657 592/108/657 590/105/657
f 598/96/658 593/93/658 604/99/658
f 599/108/659 612/110/659 608/112/659
f 611/116/660 606/113/660 602/115/660
f 619/72/840 613/69/840 615/71/840
f 616/84/670 618/82/670 615/83/670
f 622/72/671 624/73/671 618/71/671
f 621/81/672 620/83/672 624/82/672
f 619/72/673 621/74/673 632/79/673
f 634/78/841 636/79/841 623/74/841
f 635/87/675 633/85/675 632/88/675
f 631/78/842 633/80/842 626/76/842
f 634/78/843 628/75/843 630/76/843
f 629/86/678 627/88/678 626/85/678
f 613/69/844 625/75/844 627/77/844
f 617/69/845 616/70/845 629/77/845
f 631/78/681 625/75/681 613/69/681
f 618/89/682 624/92/682 620/90/682
f 629/86/683 616/84/683 614/81/683
f 622/72/684 617/69/684 628/75/684
f 623/84/685 636/86/685 632/88/685
f 635/92/686 630/89/686 626/91/686
f 637/93/695 639/95/695 644/97/695
f 640/108/846 642/106/846 639/107/846
f 646/96/847 648/97/847 642/95/847
f 645/105/698 644/107/698 648/106/698
f 643/96/699 645/98/699 656/103/699
f 658/102/848 660/103/848 647/98/848
f 659/111/701 657/109/701 656/112/701
f 649/99/702 655/102/702 657/104/702
f 658/102/849 652/99/849 654/100/849
f 653/110/850 651/112/850 650/109/850
f 637/93/705 649/99/705 651/101/705
f 652/99/851 641/93/851 640/94/851
f 643/96/707 655/102/707 649/99/707
f 642/113/708 648/116/708 644/114/708
f 653/110/709 640/108/709 638/105/709
f 646/96/710 641/93/710 652/99/710
f 647/108/711 660/110/711 656/112/711
f 659/116/712 654/113/712 650/115/712
f 667/120/721 661/117/721 663/119/721
f 664/132/722 666/130/722 663/131/722
f 665/117/723 670/120/723 672/121/723
f 671/132/724 669/129/724 668/131/724
f 679/126/852 667/120/852 669/122/852
f 682/126/726 684/127/726 671/122/726
f 683/135/853 681/133/853 680/136/853
f 679/126/728 681/128/728 674/124/728
f 676/123/729 678/124/729 683/128/729
f 677/134/730 675/136/730 674/133/730
f 673/123/854 675/125/854 662/118/854
f 665/117/855 664/118/855 677/125/855
f 667/120/733 679/126/733 673/123/733
f 666/140/734 672/138/734 668/139/734
f 677/134/735 664/132/735 662/129/735
f 670/120/736 665/117/736 676/123/736
f 669/129/737 671/132/737 684/134/737
f 683/138/738 678/140/738 674/137/738
